<?xml version="1.0" encoding="UTF-8" standalone="no"?>
<!-- Created with Inkscape (http://www.inkscape.org/) -->

<svg
   xmlns:dc="http://purl.org/dc/elements/1.1/"
   xmlns:cc="http://creativecommons.org/ns#"
   xmlns:rdf="http://www.w3.org/1999/02/22-rdf-syntax-ns#"
   xmlns:svg="http://www.w3.org/2000/svg"
   xmlns="http://www.w3.org/2000/svg"
   xmlns:sodipodi="http://sodipodi.sourceforge.net/DTD/sodipodi-0.dtd"
   xmlns:inkscape="http://www.inkscape.org/namespaces/inkscape"
   width="2000"
   height="2048"
   id="svg2992"
   version="1.1"
   inkscape:version="0.91 r13725"
   sodipodi:docname="3.svg">
  <defs
     id="defs5498">
    <inkscape:path-effect
       effect="spiro"
       id="path-effect4157"
       is_visible="true" />
    <inkscape:path-effect
       effect="spiro"
       id="path-effect4137"
       is_visible="true" />
    <inkscape:path-effect
       effect="spiro"
       id="path-effect4137-7"
       is_visible="true" />
    <inkscape:path-effect
       effect="spiro"
       id="path-effect4137-5"
       is_visible="true" />
    <inkscape:path-effect
       effect="spiro"
       id="path-effect4157-1"
       is_visible="true" />
    <inkscape:path-effect
       effect="spiro"
       id="path-effect4157-4"
       is_visible="true" />
    <inkscape:path-effect
       effect="spiro"
       id="path-effect4157-3"
       is_visible="true" />
    <inkscape:path-effect
       effect="spiro"
       id="path-effect4157-7"
       is_visible="true" />
    <inkscape:path-effect
       effect="spiro"
       id="path-effect4157-8"
       is_visible="true" />
    <inkscape:path-effect
       effect="spiro"
       id="path-effect4157-17"
       is_visible="true" />
    <inkscape:path-effect
       effect="spiro"
       id="path-effect4157-17-6"
       is_visible="true" />
    <inkscape:path-effect
       effect="spiro"
       id="path-effect4157-17-2"
       is_visible="true" />
  </defs>
  <sodipodi:namedview
     inkscape:window-height="704"
     inkscape:window-width="1366"
     inkscape:pageshadow="2"
     inkscape:pageopacity="0.0"
     borderopacity="1.0"
     bordercolor="#666666"
     pagecolor="#ffffff"
     id="base"
     showgrid="true"
     showguides="true"
     inkscape:guide-bbox="true"
     inkscape:zoom="0.088388348"
     inkscape:cx="-2932.5715"
     inkscape:cy="-3250.4733"
     inkscape:window-x="-4"
     inkscape:window-y="0"
     inkscape:current-layer="layer1"
     inkscape:window-maximized="1">
    <sodipodi:guide
       orientation="0,1"
       position="288,0"
       id="guide5596"
       inkscape:label=""
       inkscape:color="rgb(0,0,255)" />
    <inkscape:grid
       type="xygrid"
       id="grid3769"
       empspacing="3"
       visible="true"
       enabled="true"
       snapvisiblegridlinesonly="true"
       spacingx="4px"
       units="px"
       dotted="true"
       spacingy="4px" />
    <sodipodi:guide
       orientation="0,1"
       position="-1040,1384"
       id="guide2985"
       inkscape:label=""
       inkscape:color="rgb(0,0,255)" />
    <sodipodi:guide
       position="-144,1960"
       orientation="0,1"
       id="guide4144"
       inkscape:label=""
       inkscape:color="rgb(0,0,255)" />
  </sodipodi:namedview>
  <metadata
     id="metadata5594">
    <rdf:RDF>
      <cc:Work
         rdf:about="">
        <dc:format>image/svg+xml</dc:format>
        <dc:type
           rdf:resource="http://purl.org/dc/dcmitype/StillImage" />
        <dc:title />
      </cc:Work>
    </rdf:RDF>
  </metadata>
  <g
     inkscape:label="Layer 1"
     inkscape:groupmode="layer"
     id="layer1"
     transform="translate(0,1048)">
    <path
       style="fill:none;fill-rule:evenodd;stroke:#000000;stroke-width:150;stroke-linecap:round;stroke-linejoin:round;stroke-miterlimit:4;stroke-dasharray:none;stroke-opacity:1"
       d="m 333.94514,-675.95603 c 20.39698,-55.65934 56.86272,-105.32515 103.85911,-141.45463 46.99638,-36.12947 104.36716,-58.60248 163.39937,-64.00602 87.09176,-7.97198 177.17129,22.41793 241.05118,82.14972 63.87989,59.73179 100.29449,147.96948 96.27988,235.33314 -3.50404,76.25301 -37.46829,150.68353 -92.77019,203.30006 -55.3019,52.61654 -131.32954,82.83689 -207.66246,82.54409 l -23.01915,3.22919 22.21079,1.28529 c 42.1526,2.43928 84.56556,5.38399 125.42456,16.02984 40.859,10.64584 79.96124,29.03196 112.56655,55.85891 32.60531,26.82696 58.38689,61.8177 74.60024,100.80384 16.21336,38.986138 22.94247,81.672089 21.27274,123.862181 C 967.44565,116.77602 921.44931,207.48011 850.05608,268.42729 778.66285,329.37447 683.26896,360.463 589.47819,356.61023 468.9541,351.65929 352.16151,288.34874 282.23364,190.06008"
       id="path4155"
       inkscape:path-effect="#path-effect4157"
       inkscape:original-d="m 333.94514,-675.95603 c 0,0 154.45427,-211.02332 267.25848,-205.46065 155.21843,7.65423 336.90932,164.17776 337.33106,317.48286 0.37756,137.24879 -185.31161,281.0119 -300.43265,285.84415 l -23.01915,3.22919 22.21079,1.28529 C 765.46203,-266.1583 971.75465,-124.74595 971.15776,22.979581 970.48022,190.66385 758.41602,337.98397 589.47819,356.61023 473.34165,369.41488 348.5461,277.77673 282.23364,190.06008"
       inkscape:connector-curvature="0"
       sodipodi:nodetypes="caascsaac" />
    <path
       style="color:#000000;font-style:normal;font-variant:normal;font-weight:normal;font-stretch:normal;font-size:medium;line-height:normal;font-family:sans-serif;text-indent:0;text-align:start;text-decoration:none;text-decoration-line:none;text-decoration-style:solid;text-decoration-color:#000000;letter-spacing:normal;word-spacing:normal;text-transform:none;direction:ltr;block-progression:tb;writing-mode:lr-tb;baseline-shift:baseline;text-anchor:start;white-space:normal;clip-rule:nonzero;display:inline;overflow:visible;visibility:visible;opacity:1;isolation:auto;mix-blend-mode:normal;color-interpolation:sRGB;color-interpolation-filters:linearRGB;solid-color:#000000;solid-opacity:1;fill:#000000;fill-opacity:1;fill-rule:evenodd;stroke:none;stroke-width:150;stroke-linecap:round;stroke-linejoin:round;stroke-miterlimit:4;stroke-dasharray:none;stroke-dashoffset:0;stroke-opacity:1;color-rendering:auto;image-rendering:auto;shape-rendering:auto;text-rendering:auto;enable-background:accumulate"
       d="m -682.7793,-975.66406 c -13.59087,-0.20203 -27.22892,0.31341 -40.85351,1.56054 -73.43736,6.72213 -143.80891,34.28657 -202.27344,79.23243 -58.46453,44.94585 -103.19405,105.86793 -128.56835,175.10937 a 75.0075,75.0075 0 1 0 140.83983,51.61133 c 15.41967,-42.07724 43.62214,-80.48768 79.15039,-107.80078 35.52824,-27.31309 79.89833,-44.69239 124.5254,-48.77735 65.18679,-5.9669 135.53281,17.86842 182.99023,62.24414 47.35143,44.27663 75.53567,112.83204 72.58203,177.10743 -2.5866,56.28824 -28.72426,113.56787 -69.54687,152.4082 -40.82262,38.84034 -99.32854,62.09504 -155.67579,61.87891 a 75.0075,75.0075 0 0 0 -10.70703,0.72656 l -23.01953,3.23047 a 75.0075,75.0075 0 0 0 6.08594,149.14648 l 22.21094,1.28516 c 41.57385,2.40579 78.97747,5.42861 110.84765,13.73242 31.7682,8.27723 60.95412,22.38219 83.82422,41.19922 22.87584,18.82175 41.50351,44.03675 53.00196,71.685546 11.5853,27.857667 16.85784,59.860996 15.58203,92.0976559 -2.81957,71.2437791 -39.31073,143.9535081 -94.85547,191.3710981 -55.88064,47.70433 -133.62915,73.37715 -208.80469,70.28906 -96.31105,-3.9563 -193.33141,-56.54915 -249.21094,-135.0918 a 75.0075,75.0075 0 1 0 -122.2246,86.95703 c 83.9763,118.03463 220.54216,192.06225 365.27929,198.00782 112.40599,4.61745 225.44574,-31.88813 312.35156,-106.07813 87.24172,-74.47675 142.74299,-183.17435 147.34766,-299.5234375 2.06365,-52.1435245 -6.12345,-105.5123485 -26.96484,-155.6269525 -20.92828,-50.32348 -53.86249,-95.08777 -96.19727,-129.91992 -13.95257,-11.47988 -28.68361,-21.51629 -43.88086,-30.44336 6.27949,-5.22896 12.45707,-10.59547 18.4043,-16.25391 69.78118,-66.39272 111.57266,-157.97363 115.99414,-254.1914 5.07558,-110.45194 -39.56821,-218.37164 -119.97656,-293.5586 -70.26457,-65.70187 -163.12171,-102.20101 -258.25782,-103.61523 z"
       id="path4155-0"
       inkscape:connector-curvature="0" />
    <path
       style="fill:none;fill-rule:evenodd;stroke:#000000;stroke-width:74.99999237;stroke-linecap:round;stroke-linejoin:round;stroke-miterlimit:4;stroke-dasharray:none;stroke-opacity:1"
       d="m -4352.1561,-128.58781 c 21.7057,-58.7566 60.3287,-111.15378 110.0319,-149.27292 49.7031,-38.11913 110.323,-61.83476 172.6982,-67.56279 92.0217,-8.45053 187.2246,23.52718 254.8158,86.54178 67.5912,63.0146 106.2175,156.20349 102.0434,248.518114 -3.6453,80.619858 -39.5834,159.328146 -98.1168,214.886206 -58.5333,55.55806 -139.0077,87.34497 -219.708,86.78336 l -24.3517,3.40797 23.4966,1.35645 c 44.5369,2.5711 89.3475,5.67329 132.5252,16.89103 43.1776,11.21774 84.5108,30.59272 119.0043,58.88309 34.4935,28.29038 61.803,65.20712 79.0063,106.36772 17.2032,41.16061 24.386,86.2538 22.6558,130.8313 -3.8483,99.14747 -52.6089,195.00677 -128.1826,259.30015 -75.5738,64.29339 -176.457,96.94607 -275.5925,92.80151 -127.3945,-5.32598 -250.8315,-72.07846 -325.0311,-175.77095"
       id="path4155-1"
       inkscape:path-effect="#path-effect4157-17"
       inkscape:original-d="m -4352.1561,-128.58781 c 0,0 163.3956,-222.70636 282.7301,-216.83571 164.2041,8.07799 356.413,173.26724 356.8592,335.059894 0.3993,144.847396 -196.0393,296.569776 -317.8248,301.669566 l -24.3517,3.40797 23.4966,1.35645 c 135.588,7.82751 353.823,157.06898 353.1916,312.97314 -0.717,176.96794 -225.0575,332.44423 -403.7751,352.10166 -122.8597,13.51361 -254.8798,-83.19804 -325.0311,-175.77095"
       inkscape:connector-curvature="0"
       sodipodi:nodetypes="caascsaac" />
    <path
       style="color:#000000;font-style:normal;font-variant:normal;font-weight:normal;font-stretch:normal;font-size:medium;line-height:normal;font-family:sans-serif;text-indent:0;text-align:start;text-decoration:none;text-decoration-line:none;text-decoration-style:solid;text-decoration-color:#000000;letter-spacing:normal;word-spacing:normal;text-transform:none;direction:ltr;block-progression:tb;writing-mode:lr-tb;baseline-shift:baseline;text-anchor:start;white-space:normal;clip-rule:nonzero;display:inline;overflow:visible;visibility:visible;opacity:1;isolation:auto;mix-blend-mode:normal;color-interpolation:sRGB;color-interpolation-filters:linearRGB;solid-color:#000000;solid-opacity:1;fill:#000000;fill-opacity:1;fill-rule:evenodd;stroke:none;stroke-width:74.99999237;stroke-linecap:round;stroke-linejoin:round;stroke-miterlimit:4;stroke-dasharray:none;stroke-dashoffset:0;stroke-opacity:1;color-rendering:auto;image-rendering:auto;shape-rendering:auto;text-rendering:auto;enable-background:accumulate"
       d="m -6434.2129,-480.23438 c -12.8731,-0.1967 -25.7743,0.28704 -38.6426,1.46876 -69.5582,6.38765 -136.6629,32.6396 -192.0898,75.14843 -55.4269,42.50884 -98.1814,100.51227 -122.3867,166.03516 a 37.503746,37.503746 0 1 0 70.3515,25.98828 c 19.2061,-51.99029 53.6983,-98.78034 97.6778,-132.50977 43.9795,-33.72942 98.1144,-54.90816 153.3066,-59.97656 81.0975,-7.44734 166.4413,21.27392 225.8145,76.62696 59.3154,55.29919 93.8034,138.64798 90.1523,219.39648 -3.1927,70.609862 -35.2051,140.721055 -86.4707,189.380859 -51.2657,48.659831 -122.9505,76.974311 -193.6309,76.482421 a 37.503746,37.503746 0 0 0 -5.4589,0.36133 l -24.3516,3.4082 a 37.503746,37.503746 0 0 0 3.0371,74.57617 l 23.4961,1.35547 c 44.2491,2.55449 86.5632,5.69503 125.2578,15.74805 38.6438,10.03983 75.0252,27.28484 104.6524,51.58398 29.6293,24.30098 53.3529,56.34086 68.1875,91.83399 14.8775,35.59612 21.3193,75.33704 19.7832,114.91601 -3.4085,87.81629 -47.3843,174.65989 -115.0098,232.19141 -67.8016,57.68131 -159.8647,87.65334 -249.7266,83.89648 -115.3392,-4.82198 -228.9233,-66.24681 -296.1015,-160.12695 a 37.503746,37.503746 0 1 0 -60.9922,43.64649 c 81.2211,113.50477 214.5112,185.58604 353.9609,191.41601 108.4091,4.53226 218.1111,-30.80158 301.457,-101.70703 83.522,-71.05522 137.0674,-175.92955 141.3555,-286.4082 1.9242,-49.57603 -5.9984,-100.021 -25.5273,-146.7461 -19.5721,-46.82808 -50.4666,-88.62256 -89.8242,-120.90234 -31.1328,-25.53402 -66.6245,-44.2289 -103.7012,-57.10352 27.0587,-14.63686 52.3046,-32.70243 74.7695,-54.02539 65.801,-62.456299 105.6638,-149.760764 109.7617,-240.39062 4.6971,-103.88074 -38.0666,-206.91064 -113.9336,-277.64063 -66.333,-61.84163 -155.0622,-96.54692 -245.1738,-97.92383 z"
       id="path4155-1-8"
       inkscape:connector-curvature="0" />
  </g>
</svg>
