<?xml version="1.0" encoding="UTF-8" standalone="no"?>
<!-- Created with Inkscape (http://www.inkscape.org/) -->

<svg
   xmlns:dc="http://purl.org/dc/elements/1.1/"
   xmlns:cc="http://creativecommons.org/ns#"
   xmlns:rdf="http://www.w3.org/1999/02/22-rdf-syntax-ns#"
   xmlns:svg="http://www.w3.org/2000/svg"
   xmlns="http://www.w3.org/2000/svg"
   xmlns:sodipodi="http://sodipodi.sourceforge.net/DTD/sodipodi-0.dtd"
   xmlns:inkscape="http://www.inkscape.org/namespaces/inkscape"
   width="2000"
   height="2048"
   id="svg2992"
   version="1.1"
   inkscape:version="0.91 r13725"
   sodipodi:docname="5.svg">
  <defs
     id="defs5498">
    <inkscape:path-effect
       effect="spiro"
       id="path-effect4153"
       is_visible="true" />
    <inkscape:path-effect
       effect="spiro"
       id="path-effect4153-5"
       is_visible="true" />
    <inkscape:path-effect
       effect="spiro"
       id="path-effect4153-3"
       is_visible="true" />
    <inkscape:path-effect
       effect="spiro"
       id="path-effect4153-0"
       is_visible="true" />
    <inkscape:path-effect
       effect="spiro"
       id="path-effect4153-6"
       is_visible="true" />
    <inkscape:path-effect
       effect="spiro"
       id="path-effect4153-6-2"
       is_visible="true" />
    <inkscape:path-effect
       effect="spiro"
       id="path-effect4153-6-1"
       is_visible="true" />
    <inkscape:path-effect
       effect="spiro"
       id="path-effect4153-6-6"
       is_visible="true" />
  </defs>
  <sodipodi:namedview
     inkscape:window-height="704"
     inkscape:window-width="1366"
     inkscape:pageshadow="2"
     inkscape:pageopacity="0.0"
     borderopacity="1.0"
     bordercolor="#666666"
     pagecolor="#ffffff"
     id="base"
     showgrid="true"
     showguides="true"
     inkscape:guide-bbox="true"
     inkscape:zoom="0.1767767"
     inkscape:cx="-2230.3839"
     inkscape:cy="-178.18844"
     inkscape:window-x="-4"
     inkscape:window-y="0"
     inkscape:current-layer="layer1"
     inkscape:window-maximized="1">
    <sodipodi:guide
       orientation="0,1"
       position="288,0"
       id="guide5596"
       inkscape:label=""
       inkscape:color="rgb(0,0,255)" />
    <inkscape:grid
       type="xygrid"
       id="grid3769"
       empspacing="3"
       visible="true"
       enabled="true"
       snapvisiblegridlinesonly="true"
       spacingx="4px"
       units="px"
       dotted="true"
       spacingy="4px" />
    <sodipodi:guide
       orientation="0,1"
       position="-3072,1372"
       id="guide2985"
       inkscape:label=""
       inkscape:color="rgb(0,0,255)" />
    <sodipodi:guide
       position="-984,1980"
       orientation="0,1"
       id="guide4140"
       inkscape:label=""
       inkscape:color="rgb(0,0,255)" />
  </sodipodi:namedview>
  <metadata
     id="metadata5594">
    <rdf:RDF>
      <cc:Work
         rdf:about="">
        <dc:format>image/svg+xml</dc:format>
        <dc:type
           rdf:resource="http://purl.org/dc/dcmitype/StillImage" />
        <dc:title />
      </cc:Work>
    </rdf:RDF>
  </metadata>
  <g
     inkscape:label="Layer 1"
     inkscape:groupmode="layer"
     id="layer1"
     transform="translate(0,1048)">
    <path
       style="fill:none;fill-rule:evenodd;stroke:#000000;stroke-width:150;stroke-linecap:round;stroke-linejoin:round;stroke-miterlimit:4;stroke-dasharray:none;stroke-opacity:1"
       d="m 940.44947,-905.26956 -612.02752,0 -102.00459,612.02751 c 73.47425,-107.1677 201.57884,-174.66023 331.51491,-174.66023 129.93606,0 258.04065,67.49253 331.5149,174.66023 45.95135,67.0235 70.86892,148.19452 70.76091,229.457457 -0.10801,81.262936 -25.19442,162.27744 -70.76091,229.563183 -40.44207,59.71876 -96.8103,108.54464 -161.68788,140.05323 -64.87758,31.50858 -138.1043,45.62207 -210.04515,40.48344 C 445.77329,341.17663 375.29596,316.79857 315.55541,276.38869 255.81486,235.97881 206.95862,179.6369 175.41507,114.77631"
       id="path4151"
       inkscape:path-effect="#path-effect4153"
       inkscape:original-d="m 940.44947,-905.26956 -612.02752,0 -102.00459,612.02751 c 192.51987,-171.56222 506.75219,-156.27762 663.02981,0 108.19219,108.19221 111.98013,354.753841 0,459.02064 -174.63504,162.60605 -485.1354,181.42383 -714.0321,-51.00228"
       inkscape:connector-curvature="0"
       sodipodi:nodetypes="cccaac" />
    <path
       style="color:#000000;font-style:normal;font-variant:normal;font-weight:normal;font-stretch:normal;font-size:medium;line-height:normal;font-family:sans-serif;text-indent:0;text-align:start;text-decoration:none;text-decoration-line:none;text-decoration-style:solid;text-decoration-color:#000000;letter-spacing:normal;word-spacing:normal;text-transform:none;direction:ltr;block-progression:tb;writing-mode:lr-tb;baseline-shift:baseline;text-anchor:start;white-space:normal;clip-rule:nonzero;display:inline;overflow:visible;visibility:visible;opacity:1;isolation:auto;mix-blend-mode:normal;color-interpolation:sRGB;color-interpolation-filters:linearRGB;solid-color:#000000;solid-opacity:1;fill:#000000;fill-opacity:1;fill-rule:evenodd;stroke:none;stroke-width:150;stroke-linecap:round;stroke-linejoin:round;stroke-miterlimit:4;stroke-dasharray:none;stroke-dashoffset:0;stroke-opacity:1;color-rendering:auto;image-rendering:auto;shape-rendering:auto;text-rendering:auto;enable-background:accumulate"
       d="m -1039.5781,-932.26953 a 75.0075,75.0075 0 0 0 -73.9785,62.66992 l -102.0059,612.02734 a 75.0075,75.0075 0 0 0 135.8379,54.74024 c 58.7882,-85.74713 165.69161,-142.07031 269.65624,-142.07031 103.96462,0 210.86988,56.32314 269.6582,142.07031 37.13222,54.16011 57.7067,121.082112 57.61914,186.947264 -0.0876,65.89391 -20.80122,132.884596 -57.86132,187.609376 -32.94171,48.64334 -79.50811,88.97756 -132.35352,114.64258 -52.84541,25.66501 -113.33682,37.32429 -171.93555,33.13867 -58.59873,-4.18562 -116.82128,-24.32474 -165.48239,-57.24024 -48.6611,-32.91549 -89.0214,-79.4595 -114.7149,-132.29101 a 75.0075,75.0075 0 1 0 -134.8925,65.60351 c 37.3935,76.88967 94.7464,143.02934 165.5664,190.9336 70.82,47.90426 153.55293,76.52164 238.83589,82.61328 85.28296,6.09164 171.2426,-10.47598 248.15235,-47.82812 76.90975,-37.35215 143.081,-94.66872 191.02344,-165.4629 54.07289,-79.84671 83.53367,-174.887544 83.6621,-271.519527 0.12849,-96.660743 -29.13377,-192.079903 -83.90429,-271.966793 -88.16018,-128.58822 -237.46557,-207.25 -393.37305,-207.25 -78.3886,0 -155.09104,19.91651 -223.20894,56.03515 l 57.23433,-343.40234 548.49219,0 a 75.0075,75.0075 0 1 0 0,-150 l -612.02732,0 z"
       id="path4151-7"
       inkscape:connector-curvature="0" />
    <path
       style="fill:none;fill-rule:evenodd;stroke:#000000;stroke-width:75;stroke-linecap:round;stroke-linejoin:round;stroke-miterlimit:4;stroke-dasharray:none;stroke-opacity:1"
       d="m -2565.8064,-334.95048 -635.8173,0 -105.9694,635.04163 c 76.2805,-111.40042 209.387,-181.57788 344.4009,-181.57788 135.014,0 268.1205,70.17746 344.401,181.57788 47.6329,69.56324 73.457,153.77721 73.3446,238.08571 -0.1123,84.3085 -26.1122,168.35981 -73.3446,238.19556 -41.9848,62.07678 -100.533,112.83919 -167.9338,145.60173 -67.4007,32.76255 -143.4873,47.44417 -218.2389,42.11127 -74.7517,-5.33289 -147.9834,-30.6671 -210.0506,-72.66608 -62.0672,-41.99898 -112.8162,-100.55881 -145.5633,-167.96708"
       id="path4151-0"
       inkscape:path-effect="#path-effect4153-6"
       inkscape:original-d="m -2565.8064,-334.95048 -635.8173,0 -105.9694,635.04163 c 200.003,-178.0135 526.4496,-162.15414 688.8019,0 112.3976,112.26056 116.3328,368.09371 0,476.28127 -181.4231,168.72047 -503.9927,188.24589 -741.7866,-52.92016"
       inkscape:connector-curvature="0"
       sodipodi:nodetypes="cccaac" />
    <path
       style="color:#000000;font-style:normal;font-variant:normal;font-weight:normal;font-stretch:normal;font-size:medium;line-height:normal;font-family:sans-serif;text-indent:0;text-align:start;text-decoration:none;text-decoration-line:none;text-decoration-style:solid;text-decoration-color:#000000;letter-spacing:normal;word-spacing:normal;text-transform:none;direction:ltr;block-progression:tb;writing-mode:lr-tb;baseline-shift:baseline;text-anchor:start;white-space:normal;clip-rule:nonzero;display:inline;overflow:visible;visibility:visible;opacity:1;isolation:auto;mix-blend-mode:normal;color-interpolation:sRGB;color-interpolation-filters:linearRGB;solid-color:#000000;solid-opacity:1;fill:#000000;fill-opacity:1;fill-rule:evenodd;stroke:none;stroke-width:75;stroke-linecap:round;stroke-linejoin:round;stroke-miterlimit:4;stroke-dasharray:none;stroke-dashoffset:0;stroke-opacity:1;color-rendering:auto;image-rendering:auto;shape-rendering:auto;text-rendering:auto;enable-background:accumulate"
       d="m -2193.623,1451.5488 a 37.50375,37.50375 0 0 0 -36.9883,31.3282 l -105.9707,635.041 a 37.50375,37.50375 0 0 0 67.9297,27.3593 c 68.9388,-100.6786 191.4415,-165.2636 313.4609,-165.2636 122.0195,0 244.5201,64.585 313.459,165.2636 43.2314,63.1355 66.8872,140.232 66.7851,216.8497 -0.1021,76.632 -23.9185,153.6767 -66.9062,217.2363 -38.236,56.534 -91.883,103.0476 -153.2656,132.8847 -61.3826,29.8372 -131.0988,43.2904 -199.1758,38.4336 -68.0772,-4.8567 -135.1779,-28.0713 -191.7031,-66.3203 -56.5253,-38.2489 -103.0265,-91.9054 -132.8497,-153.2949 a 37.50375,37.50375 0 1 0 -67.4609,32.7715 c 35.6711,73.4271 90.6682,136.8896 158.2774,182.6387 67.6091,45.749 146.9722,73.2046 228.3984,79.0136 81.4261,5.8091 163.8839,-10.1012 237.3027,-45.789 73.419,-35.6879 136.868,-90.7008 182.6016,-158.3203 51.4773,-76.112 79.6586,-167.1694 79.7812,-259.1543 0.1226,-91.9994 -27.868,-183.3311 -79.9023,-259.3223 -83.6222,-122.1222 -227.3333,-197.8906 -375.3418,-197.8906 -104.3477,0 -206.455,37.7899 -286.9805,102.8027 l 80.3086,-481.2676 604.0567,0 a 37.50375,37.50375 0 1 0 0,-75 l -635.8164,0 z"
       id="path4151-0-8"
       inkscape:connector-curvature="0" />
  </g>
</svg>
