<?xml version="1.0" encoding="UTF-8" standalone="no"?>
<!-- Created with Inkscape (http://www.inkscape.org/) -->

<svg
   xmlns:dc="http://purl.org/dc/elements/1.1/"
   xmlns:cc="http://creativecommons.org/ns#"
   xmlns:rdf="http://www.w3.org/1999/02/22-rdf-syntax-ns#"
   xmlns:svg="http://www.w3.org/2000/svg"
   xmlns="http://www.w3.org/2000/svg"
   xmlns:sodipodi="http://sodipodi.sourceforge.net/DTD/sodipodi-0.dtd"
   xmlns:inkscape="http://www.inkscape.org/namespaces/inkscape"
   width="2000"
   height="2048"
   id="svg2992"
   version="1.1"
   inkscape:version="0.91 r13725"
   sodipodi:docname="6.svg">
  <defs
     id="defs5498">
    <inkscape:path-effect
       effect="spiro"
       id="path-effect4229"
       is_visible="true" />
    <inkscape:path-effect
       effect="spiro"
       id="path-effect4153"
       is_visible="true" />
    <inkscape:path-effect
       effect="spiro"
       id="path-effect4153-5"
       is_visible="true" />
    <inkscape:path-effect
       effect="spiro"
       id="path-effect4229-4"
       is_visible="true" />
    <inkscape:path-effect
       effect="spiro"
       id="path-effect4229-43"
       is_visible="true" />
    <inkscape:path-effect
       effect="spiro"
       id="path-effect4229-9"
       is_visible="true" />
    <inkscape:path-effect
       effect="spiro"
       id="path-effect4229-8"
       is_visible="true" />
    <inkscape:path-effect
       effect="spiro"
       id="path-effect4229-2"
       is_visible="true" />
    <inkscape:path-effect
       effect="spiro"
       id="path-effect4229-2-6"
       is_visible="true" />
    <inkscape:path-effect
       effect="spiro"
       id="path-effect4229-2-4"
       is_visible="true" />
    <inkscape:path-effect
       effect="spiro"
       id="path-effect4229-2-4-1"
       is_visible="true" />
    <inkscape:path-effect
       effect="spiro"
       id="path-effect4229-2-4-4"
       is_visible="true" />
  </defs>
  <sodipodi:namedview
     inkscape:window-height="704"
     inkscape:window-width="1366"
     inkscape:pageshadow="2"
     inkscape:pageopacity="0.0"
     borderopacity="1.0"
     bordercolor="#666666"
     pagecolor="#ffffff"
     id="base"
     showgrid="true"
     showguides="true"
     inkscape:guide-bbox="true"
     inkscape:zoom="0.125"
     inkscape:cx="-4103.9762"
     inkscape:cy="1068.9488"
     inkscape:window-x="-4"
     inkscape:window-y="0"
     inkscape:current-layer="g4215"
     inkscape:window-maximized="1">
    <sodipodi:guide
       orientation="0,1"
       position="288,0"
       id="guide5596"
       inkscape:label=""
       inkscape:color="rgb(0,0,255)" />
    <inkscape:grid
       type="xygrid"
       id="grid3769"
       empspacing="3"
       visible="true"
       enabled="true"
       snapvisiblegridlinesonly="true"
       spacingx="4px"
       units="px"
       dotted="true"
       spacingy="4px" />
    <sodipodi:guide
       orientation="0,1"
       position="-1040,1384"
       id="guide2985"
       inkscape:label=""
       inkscape:color="rgb(0,0,255)" />
    <sodipodi:guide
       position="-96,1980"
       orientation="0,1"
       id="guide4143"
       inkscape:label=""
       inkscape:color="rgb(0,0,255)" />
  </sodipodi:namedview>
  <metadata
     id="metadata5594">
    <rdf:RDF>
      <cc:Work
         rdf:about="">
        <dc:format>image/svg+xml</dc:format>
        <dc:type
           rdf:resource="http://purl.org/dc/dcmitype/StillImage" />
        <dc:title />
      </cc:Work>
    </rdf:RDF>
  </metadata>
  <g
     inkscape:label="Layer 1"
     inkscape:groupmode="layer"
     id="layer1"
     transform="translate(0,1048)">
    <g
       id="g4215"
       transform="matrix(1,0,0,-1,-91.539969,419.2357)">
      <path
         style="fill:none;fill-rule:evenodd;stroke:#000000;stroke-width:150;stroke-linecap:round;stroke-linejoin:round;stroke-miterlimit:4;stroke-dasharray:none;stroke-opacity:1"
         d="m 375.74585,299.092 c -25.92484,59.8512 -36.37019,126.33081 -30.04918,191.24852 6.32102,64.9177 29.39476,128.13357 66.37856,181.85938 36.98379,53.72581 87.7979,97.84576 146.18202,126.92425 58.38412,29.07849 124.21239,43.05283 189.37475,40.2014 91.56477,-4.00678 181.2492,-41.82591 248.11956,-104.50378 C 1062.6219,672.1439 1106.149,585.13776 1116.3325,494.05287 1128.3874,386.22912 1092.7642,273.69016 1019.8876,193.31422 947.01109,112.93828 837.87758,66.408356 729.46977,70.770513 c -69.4102,2.792955 -137.49101,25.618751 -196.3467,62.518387 -58.8557,36.89964 -108.59374,87.59392 -147.14753,145.37957 -77.10757,115.5713 -108.51205,256.67386 -113.4501,395.51881 -5.1007,143.41831 17.81937,291.16222 90.06089,415.16222 36.12076,62 84.3588,117.308 142.88875,158.8165 58.52994,41.5085 127.4764,68.9314 198.91501,75.6569 70.97373,6.6818 143.77204,-7.3125 207.20983,-39.8327 63.43778,-32.5202 117.29898,-83.4556 153.30798,-144.9801"
         id="path4227"
         inkscape:path-effect="#path-effect4229"
         inkscape:original-d="m 375.74585,299.092 c 0,0 154.53202,516.74295 371.88615,540.23355 167.40085,18.0919 362.1586,-177.02414 368.7005,-345.27268 C 1123.7592,303.05132 920.41194,61.948284 729.46977,70.770513 477.43593,82.415398 280.27461,422.00361 272.52544,674.18728 c -7.98645,259.90585 180.2577,583.99442 431.86465,649.63562 130.66906,34.0901 300.40221,-77.4356 360.51781,-184.8128"
         inkscape:connector-curvature="0"
         sodipodi:nodetypes="caaaaac" />
      <path
         style="color:#000000;font-style:normal;font-variant:normal;font-weight:normal;font-stretch:normal;font-size:medium;line-height:normal;font-family:sans-serif;text-indent:0;text-align:start;text-decoration:none;text-decoration-line:none;text-decoration-style:solid;text-decoration-color:#000000;letter-spacing:normal;word-spacing:normal;text-transform:none;direction:ltr;block-progression:tb;writing-mode:lr-tb;baseline-shift:baseline;text-anchor:start;white-space:normal;clip-rule:nonzero;display:inline;overflow:visible;visibility:visible;opacity:1;isolation:auto;mix-blend-mode:normal;color-interpolation:sRGB;color-interpolation-filters:linearRGB;solid-color:#000000;solid-opacity:1;fill:#000000;fill-opacity:1;fill-rule:evenodd;stroke:none;stroke-width:150;stroke-linecap:round;stroke-linejoin:round;stroke-miterlimit:4;stroke-dasharray:none;stroke-dashoffset:0;stroke-opacity:1;color-rendering:auto;image-rendering:auto;shape-rendering:auto;text-rendering:auto;enable-background:accumulate"
         d="m -498.86914,21.539062 c -8.20786,-0.135932 -16.43598,-0.03859 -24.67578,0.292969 -83.84442,3.373771 -164.05616,30.579946 -233.17188,73.91211 -68.93663,43.219909 -125.85471,101.586219 -169.69726,167.298829 -87.53144,131.1949 -120.73834,286.14956 -126.01364,434.47851 -5.4494,153.22225 18.3967,315.15422 100.20895,455.58202 40.97503,70.3322 95.99661,133.7945 164.30859,182.2403 68.48505,48.5684 149.37393,81.0615 235.26954,89.1484 85.46764,8.0463 172.06235,-8.5985 248.45507,-47.7598 76.39276,-39.1613 140.45966,-99.7492 183.82227,-173.8379 a 75.0075,75.0075 0 1 0 -129.45703,-75.7695 c -28.65546,48.9603 -72.31017,90.244 -122.79297,116.123 -50.48286,25.8791 -109.48698,37.2216 -165.9668,31.9043 -56.98089,-5.3644 -113.98427,-27.7159 -162.55859,-62.164 -48.74792,-34.5713 -90.20421,-81.7248 -121.47071,-135.3926 -57.56619,-98.81029 -80.74287,-219.5506 -80.46484,-342.11523 1.15617,1.72949 2.19084,3.53155 3.3711,5.24609 44.30307,64.35843 104.58481,116.69798 174.52343,151.53125 69.93863,34.83328 148.03153,51.41184 226.08985,47.9961 110.0203,-4.81437 215.83139,-49.44592 296.13086,-124.71094 C -122.6695,740.28731 -71.352364,637.68301 -59.132812,528.38672 -44.62483,398.62186 -86.443652,266.11133 -174.55078,168.9375 -257.2651,77.711448 -375.75118,23.578052 -498.86914,21.539062 Z m -2.66992,150.009768 c 80.0459,1.58493 161.93601,38.66376 215.86523,98.14258 57.64595,63.57803 87.07256,156.1447 77.47071,242.02734 -8.14741,72.87351 -43.88466,144.28271 -97.33594,194.38281 -53.44127,50.09072 -126.99817,81.09575 -200.10742,84.29492 -52.26639,2.28712 -105.83057,-9.08254 -152.66016,-32.40625 -46.8296,-23.32371 -88.17534,-59.22321 -117.83984,-102.3164 -29.66451,-43.09319 -48.43971,-94.5314 -53.50977,-146.60156 -5.07006,-52.07017 3.42848,-106.16358 24.22266,-154.16993 a 75.0075,75.0075 0 0 0 2.67578,-6.83593 c 0.38533,-0.58316 0.7352,-1.19213 1.12304,-1.77344 33.26503,-49.85868 75.82293,-92.88156 124.59766,-123.46094 48.59566,-30.4671 104.54552,-48.9109 159.52149,-51.12305 5.31117,-0.21371 10.64016,-0.26581 15.97656,-0.16015 z"
         id="path4227-4"
         inkscape:connector-curvature="0" />
      <path
         style="color:#000000;font-style:normal;font-variant:normal;font-weight:normal;font-stretch:normal;font-size:medium;line-height:normal;font-family:sans-serif;text-indent:0;text-align:start;text-decoration:none;text-decoration-line:none;text-decoration-style:solid;text-decoration-color:#000000;letter-spacing:normal;word-spacing:normal;text-transform:none;direction:ltr;block-progression:tb;writing-mode:lr-tb;baseline-shift:baseline;text-anchor:start;white-space:normal;clip-rule:nonzero;display:inline;overflow:visible;visibility:visible;opacity:1;isolation:auto;mix-blend-mode:normal;color-interpolation:sRGB;color-interpolation-filters:linearRGB;solid-color:#000000;solid-opacity:1;fill:#000000;fill-opacity:1;fill-rule:evenodd;stroke:none;stroke-width:75.00000763;stroke-linecap:round;stroke-linejoin:round;stroke-miterlimit:4;stroke-dasharray:none;stroke-dashoffset:0;stroke-opacity:1;color-rendering:auto;image-rendering:auto;shape-rendering:auto;text-rendering:auto;enable-background:accumulate"
         d="m -3040.9238,-581.20898 c -7.7934,-0.13376 -15.6013,-0.0458 -23.4121,0.26757 -79.7367,3.19878 -156.9485,29.17654 -223.6211,70.88282 -66.584,41.65084 -122.2225,98.39252 -165.2285,162.70117 -85.9365,128.50448 -119.7847,282.929179 -124.9219,432.828123 -5.3564,156.294837 20.18,319.402827 102.664,457.683597 41.278,69.20067 96.4258,130.99411 163.8575,177.22656 67.5222,46.29451 146.9243,76.31918 229.7441,82.27539 79.7298,5.734 160.4668,-11.14917 231.2168,-48.35352 70.75,-37.20433 130.4178,-94.15358 170.8809,-163.09179 a 37.503754,37.503754 0 1 0 -64.6817,-37.96289 c -33.2524,56.65319 -82.9652,104.09743 -141.1074,134.67187 -58.1422,30.57443 -125.406,44.64187 -190.9277,39.92969 -68.1634,-4.90215 -135.3878,-30.02302 -192.7129,-69.32617 -57.4156,-39.36521 -105.5917,-92.98981 -141.8594,-153.79102 -72.6074,-121.72299 -97.1321,-270.4196 -92.1191,-416.693358 1.5024,-43.838682 5.6619,-87.69820815 12.9726,-130.728515 11.5697,49.2511867 31.2521,96.643946 59.1973,139.369141 79.9481,122.232232 221.0405,199.120492 367.0937,200.048832 108.6212,0.69041 215.8967,-39.80432 297.0157,-112.01368 81.1154,-72.20627 133.7385,-174.020133 145.8261,-281.921871 13.8541,-123.670519 -26.5911,-251.262429 -110.4472,-343.582029 -78.6675,-86.60738 -192.5288,-138.41361 -309.4297,-140.41992 z m -1.334,75.00586 c 95.4098,1.7792 190.9835,45.09103 255.248,115.84179 68.6049,75.5291 102.8197,183.13048 91.4297,284.80469 -9.9668,88.970475 -54.305,174.739739 -121.1601,234.25195 -66.8517,59.50915 -157.1935,93.6039 -246.6719,93.03516 -119.6191,-0.76032 -239.3244,-65.99405 -304.8027,-166.103517 a 37.503754,37.503754 0 0 0 -0,0 c -65.4784,-100.109457 -77.2723,-235.924153 -30.0312,-345.822263 a 37.503754,37.503754 0 0 0 2.455,-7.67578 c 1.667,-2.58741 3.2397,-5.23367 4.9512,-7.79297 37.704,-56.38036 86.1517,-105.4616 142.6582,-140.8086 56.418,-35.29156 121.5196,-56.90823 186.8555,-59.52929 6.3498,-0.25474 12.7096,-0.31979 19.0703,-0.20117 z"
         id="path4227-6"
         inkscape:connector-curvature="0" />
      <path
         style="color:#000000;font-style:normal;font-variant:normal;font-weight:normal;font-stretch:normal;font-size:medium;line-height:normal;font-family:sans-serif;text-indent:0;text-align:start;text-decoration:none;text-decoration-line:none;text-decoration-style:solid;text-decoration-color:#000000;letter-spacing:normal;word-spacing:normal;text-transform:none;direction:ltr;block-progression:tb;writing-mode:lr-tb;baseline-shift:baseline;text-anchor:start;white-space:normal;clip-rule:nonzero;display:inline;overflow:visible;visibility:visible;opacity:1;isolation:auto;mix-blend-mode:normal;color-interpolation:sRGB;color-interpolation-filters:linearRGB;solid-color:#000000;solid-opacity:1;fill:#000000;fill-opacity:1;fill-rule:evenodd;stroke:none;stroke-width:75.00000763;stroke-linecap:round;stroke-linejoin:round;stroke-miterlimit:4;stroke-dasharray:none;stroke-dashoffset:0;stroke-opacity:1;color-rendering:auto;image-rendering:auto;shape-rendering:auto;text-rendering:auto;enable-background:accumulate"
         d="m 2685.8516,-1571.9746 c -7.8601,-0.1346 -15.7338,-0.045 -23.6114,0.2715 -80.4176,3.228 -158.3004,29.4239 -225.5566,71.4843 -67.1676,42.0052 -123.3042,99.2358 -166.7012,164.1055 -86.7188,129.6269 -120.9075,285.4368 -126.0937,436.70705 -5.4075,157.72392 20.3916,322.30115 103.6289,461.79297 41.6544,69.80606 97.2996,132.13337 165.3242,178.75976 68.1151,46.68838 148.2076,76.96593 231.7363,82.97266 80.4193,5.78313 161.8572,-11.24473 233.2227,-48.76367 71.3654,-37.51896 131.5616,-94.9526 172.3887,-164.47852 a 37.503754,37.503754 0 1 0 -64.6739,-37.97656 c -33.6153,57.24485 -83.8558,105.17871 -142.6152,136.07031 -58.7595,30.8916 -126.7275,45.10339 -192.9414,40.3418 -68.8765,-4.95305 -136.794,-30.32975 -194.7129,-70.0293 -58.0092,-39.76152 -106.6795,-93.92077 -143.3223,-155.32812 -73.3575,-122.93505 -98.1417,-273.09702 -93.0781,-420.79102 1.5391,-44.89048 5.8628,-89.79773 13.4453,-133.83986 11.6132,50.32733 31.6313,98.76377 60.1641,142.37697 80.637,123.2559 222.9318,200.80411 370.2187,201.76367 109.5615,0.71379 217.7839,-40.11545 299.6172,-112.93945 81.8301,-72.82121 134.9261,-175.5264 147.1152,-284.36719 13.9696,-124.7389 -26.8499,-253.4394 -111.4414,-346.5391 -79.3563,-87.3379 -194.2116,-139.5743 -312.1132,-141.5937 z m -1.3321,75.0058 c 96.4163,1.7932 192.986,45.5392 257.9375,117.0235 69.3371,76.311 103.9215,185.0198 92.416,287.7558 -10.0682,89.9027 -54.8758,176.5604 -122.4414,236.68755 -67.5625,60.12436 -158.8493,94.55783 -249.2695,93.96875 -120.8609,-0.7874 -241.7761,-66.68469 -307.9453,-167.82618 -66.1692,-101.14142 -78.1172,-238.32772 -30.4277,-349.38472 a 37.503754,37.503754 0 0 0 2.4531,-7.6817 c 1.7083,-2.652 3.3215,-5.3635 5.0762,-7.9863 38.0937,-56.9425 87.0412,-106.5149 144.1328,-142.2188 57.003,-35.6483 122.7753,-57.4826 188.7968,-60.1328 6.417,-0.2576 12.8438,-0.3246 19.2715,-0.2051 z"
         id="path4227-6-2"
         inkscape:connector-curvature="0" />
      <path
         style="fill:none;fill-rule:evenodd;stroke:#000000;stroke-width:75.00000763;stroke-linecap:round;stroke-linejoin:round;stroke-miterlimit:4;stroke-dasharray:none;stroke-opacity:1"
         d="m -555.83304,-608.25135 c 52.90497,-123.19821 39.90252,-272.51378 -33.50094,-384.71301 -73.40346,-112.19924 -205.00935,-183.92154 -339.08387,-184.79324 -99.99025,-0.6501 -199.74375,36.9826 -274.44095,103.4567 -74.6971,66.4741 -123.6493,161.15382 -134.7809,260.52465 -12.7412,113.73933 24.9564,232.44808 101.9209,317.15604 76.9645,84.70796 192.1157,133.66346 306.47395,129.06196 75.4838,-3.03728 149.46796,-28.50289 212.82922,-69.64144 63.36126,-41.13855 116.21936,-97.61999 156.16751,-161.73844 79.89629,-128.23689 107.09961,-283.68918 103.38048,-434.73317 -3.55772,-144.4887 -35.19247,-290.9978 -111.64513,-413.6544 -38.22632,-61.3282 -87.4362,-116.1063 -146.06665,-158.3541 -58.63044,-42.2478 -126.77474,-71.7684 -198.18973,-82.8277 -81.49263,-12.6199 -166.61515,-0.7734 -241.56515,33.6186 -74.95,34.3919 -139.4419,91.1984 -183.0185,161.2083"
         id="path4227-6-5"
         inkscape:path-effect="#path-effect4229-2-4"
         inkscape:original-d="m -555.83304,-608.25135 c 0,0 -147.7137,-539.59205 -372.58481,-569.50625 -180.96325,-24.0731 -399.85415,181.66445 -409.22185,363.98135 -10.3465,201.3658 207.1529,458.74391 408.39485,446.218 271.67654,-16.90998 471.1975,-393.91331 472.37721,-666.11305 1.1527,-265.9667 -199.30103,-584.8661 -455.90151,-654.8362 -150.23145,-40.9653 -361.12215,81.6315 -424.58365,194.8269"
         inkscape:connector-curvature="0"
         sodipodi:nodetypes="caaaaac" />
      <path
         style="color:#000000;font-style:normal;font-variant:normal;font-weight:normal;font-stretch:normal;font-size:medium;line-height:normal;font-family:sans-serif;text-indent:0;text-align:start;text-decoration:none;text-decoration-line:none;text-decoration-style:solid;text-decoration-color:#000000;letter-spacing:normal;word-spacing:normal;text-transform:none;direction:ltr;block-progression:tb;writing-mode:lr-tb;baseline-shift:baseline;text-anchor:start;white-space:normal;clip-rule:nonzero;display:inline;overflow:visible;visibility:visible;opacity:1;isolation:auto;mix-blend-mode:normal;color-interpolation:sRGB;color-interpolation-filters:linearRGB;solid-color:#000000;solid-opacity:1;fill:#000000;fill-opacity:1;fill-rule:evenodd;stroke:none;stroke-width:75.00000763;stroke-linecap:round;stroke-linejoin:round;stroke-miterlimit:4;stroke-dasharray:none;stroke-dashoffset:0;stroke-opacity:1;color-rendering:auto;image-rendering:auto;shape-rendering:auto;text-rendering:auto;enable-background:accumulate"
         d="m 417.87695,-2402.9316 c -67.29109,-0.4376 -134.52776,13.8196 -195.85156,41.9589 -81.7651,37.5193 -151.675854,99.1008 -199.214843,175.4766 a 37.503754,37.503754 0 1 0 63.673828,39.6309 c 39.614285,-63.644 98.685415,-115.6767 166.820315,-146.9414 68.13493,-31.2647 146.10488,-42.115 220.1875,-30.6426 65.00689,10.0669 127.83458,37.1587 182.00586,76.1933 54.23143,39.078 100.27746,90.1912 136.16406,147.7657 71.81823,115.2214 102.54401,255.0984 105.98242,394.7422 1.19963,48.7203 -1.06315,97.667 -7.26172,145.75 -12.00535,-44.6288 -30.81116,-87.4808 -56.33593,-126.4961 -80.63747,-123.2566 -222.933,-200.8042 -370.22071,-201.7618 -109.56091,-0.7123 -217.78289,40.1177 -299.61523,112.9414 -81.829166,72.821 -134.924933,175.5241 -147.11719,284.3633 -13.9735168,124.7404 26.841531,253.4459 111.43359,346.5489 84.64766,93.164 209.69138,146.38616 335.73633,141.3144 82.91391,-3.3363 163.12676,-31.1103 231.74219,-75.6601 68.52047,-44.4884 125.00189,-105.029 167.57422,-173.3594 85.06867,-136.5387 112.88648,-299.3109 109.04101,-455.4864 -3.677,-149.3336 -36.2235,-302.4765 -117.31054,-432.5683 -40.56604,-65.0819 -92.93735,-123.5238 -155.9668,-168.9414 -63.08959,-45.461 -136.55191,-77.4112 -214.375,-89.4629 -22.22566,-3.4419 -44.66143,-5.2194 -67.0918,-5.3652 z m 45.46094,590.6738 c 120.86129,0.7858 241.77781,66.6824 307.94727,167.8242 66.16944,101.1418 78.11492,238.3279 30.42382,349.3848 a 37.503754,37.503754 0 0 0 -1.38086,3.5957 c -0.14002,0.2255 -0.26393,0.4602 -0.40429,0.6855 -37.32395,59.9066 -86.55774,112.3264 -144.75977,150.1153 -58.10707,37.7271 -125.86234,60.8866 -193.91601,63.625 -102.67145,4.1312 -207.93155,-40.5588 -277.21289,-116.8106 -69.33696,-76.313 -103.917016,-185.0255 -92.408207,-287.7637 10.070937,-89.9023 54.878147,-176.5583 122.443357,-236.6855 67.56206,-60.1244 158.84795,-94.5586 249.26758,-93.9707 z"
         id="path4227-6-5-3"
         inkscape:connector-curvature="0" />
    </g>
  </g>
</svg>
