<?xml version="1.0" encoding="UTF-8" standalone="no"?>
<!-- Created with Inkscape (http://www.inkscape.org/) -->

<svg
   xmlns:dc="http://purl.org/dc/elements/1.1/"
   xmlns:cc="http://creativecommons.org/ns#"
   xmlns:rdf="http://www.w3.org/1999/02/22-rdf-syntax-ns#"
   xmlns:svg="http://www.w3.org/2000/svg"
   xmlns="http://www.w3.org/2000/svg"
   xmlns:sodipodi="http://sodipodi.sourceforge.net/DTD/sodipodi-0.dtd"
   xmlns:inkscape="http://www.inkscape.org/namespaces/inkscape"
   width="2000"
   height="2048"
   id="svg2992"
   version="1.1"
   inkscape:version="0.91 r13725"
   sodipodi:docname="8.svg">
  <defs
     id="defs5498">
    <inkscape:path-effect
       effect="spiro"
       id="path-effect4137"
       is_visible="true" />
    <inkscape:path-effect
       effect="spiro"
       id="path-effect4137-9"
       is_visible="true" />
    <inkscape:path-effect
       effect="spiro"
       id="path-effect4137-9-0"
       is_visible="true" />
    <inkscape:path-effect
       effect="spiro"
       id="path-effect4137-8"
       is_visible="true" />
    <inkscape:path-effect
       effect="spiro"
       id="path-effect4137-9-3"
       is_visible="true" />
    <inkscape:path-effect
       effect="spiro"
       id="path-effect4137-91"
       is_visible="true" />
    <inkscape:path-effect
       effect="spiro"
       id="path-effect4137-9-8"
       is_visible="true" />
    <inkscape:path-effect
       effect="spiro"
       id="path-effect4137-7"
       is_visible="true" />
    <inkscape:path-effect
       effect="spiro"
       id="path-effect4137-9-4"
       is_visible="true" />
    <inkscape:path-effect
       effect="spiro"
       id="path-effect4137-94"
       is_visible="true" />
    <inkscape:path-effect
       effect="spiro"
       id="path-effect4137-4"
       is_visible="true" />
    <inkscape:path-effect
       effect="spiro"
       id="path-effect4137-9-00"
       is_visible="true" />
    <inkscape:path-effect
       effect="spiro"
       id="path-effect4137-9-05"
       is_visible="true" />
    <inkscape:path-effect
       effect="spiro"
       id="path-effect4137-72"
       is_visible="true" />
    <inkscape:path-effect
       effect="spiro"
       id="path-effect4137-72-9"
       is_visible="true" />
    <inkscape:path-effect
       effect="spiro"
       id="path-effect4137-9-05-8"
       is_visible="true" />
    <inkscape:path-effect
       effect="spiro"
       id="path-effect4137-9-05-6"
       is_visible="true" />
    <inkscape:path-effect
       effect="spiro"
       id="path-effect4137-72-92"
       is_visible="true" />
    <inkscape:path-effect
       effect="spiro"
       id="path-effect4137-9-05-7"
       is_visible="true" />
    <inkscape:path-effect
       effect="spiro"
       id="path-effect4137-72-8"
       is_visible="true" />
  </defs>
  <sodipodi:namedview
     inkscape:window-height="704"
     inkscape:window-width="1366"
     inkscape:pageshadow="2"
     inkscape:pageopacity="0.0"
     borderopacity="1.0"
     bordercolor="#666666"
     pagecolor="#ffffff"
     id="base"
     showgrid="true"
     showguides="true"
     inkscape:guide-bbox="true"
     inkscape:zoom="0.125"
     inkscape:cx="-845.83425"
     inkscape:cy="-269.78833"
     inkscape:window-x="-4"
     inkscape:window-y="0"
     inkscape:current-layer="layer1"
     inkscape:window-maximized="1">
    <sodipodi:guide
       orientation="0,1"
       position="288,0"
       id="guide5596"
       inkscape:label=""
       inkscape:color="rgb(0,0,255)" />
    <inkscape:grid
       type="xygrid"
       id="grid3769"
       empspacing="3"
       visible="true"
       enabled="true"
       snapvisiblegridlinesonly="true"
       spacingx="4px"
       units="px"
       dotted="true"
       spacingy="4px" />
    <sodipodi:guide
       orientation="0,1"
       position="-2256,1384"
       id="guide2985"
       inkscape:label=""
       inkscape:color="rgb(0,0,255)" />
    <sodipodi:guide
       position="-336,1980"
       orientation="0,1"
       id="guide4147"
       inkscape:label=""
       inkscape:color="rgb(0,0,255)" />
  </sodipodi:namedview>
  <metadata
     id="metadata5594">
    <rdf:RDF>
      <cc:Work
         rdf:about="">
        <dc:format>image/svg+xml</dc:format>
        <dc:type
           rdf:resource="http://purl.org/dc/dcmitype/StillImage" />
        <dc:title />
      </cc:Work>
    </rdf:RDF>
  </metadata>
  <g
     inkscape:label="Layer 1"
     inkscape:groupmode="layer"
     id="layer1"
     transform="translate(0,1048)">
    <path
       style="fill:none;fill-rule:evenodd;stroke:#000000;stroke-width:150;stroke-linecap:round;stroke-linejoin:round;stroke-miterlimit:4;stroke-dasharray:none;stroke-opacity:1"
       d="m 561.66174,-903.62159 c 79.79985,2.33338 158.88783,34.13837 216.15007,89.76658 57.26224,55.6282 91.54896,134.92939 90.0672,214.7496 -1.47475,79.44265 -38.31915,157.06165 -97.09502,210.52853 -58.77586,53.46688 -138.35299,82.68307 -217.80926,82.78909 -79.80513,0.10649 -159.80217,-29.16075 -218.82976,-82.86937 -59.02758,-53.70861 -95.94191,-131.7504 -97.23578,-211.54511 -1.34244,-82.78982 35.82415,-164.85278 96.99456,-220.65725 61.1704,-55.80447 144.99266,-85.18216 227.75799,-82.76207 z"
       id="path10891"
       inkscape:connector-curvature="0"
       sodipodi:nodetypes="acaca"
       inkscape:path-effect="#path-effect4137"
       inkscape:original-d="m 561.66174,-903.62159 c 228.64336,1.43935 309.26389,191.09189 306.21727,304.51618 -2.97548,110.76474 -91.60394,293.31878 -314.90428,293.31762 -224.13281,-9.1e-4 -315.92557,-183.22693 -316.06554,-294.41448 -0.14418,-114.51218 93.93646,-304.87239 324.75255,-303.41932 z" />
    <path
       style="fill:none;fill-rule:evenodd;stroke:#000000;stroke-width:150;stroke-linecap:round;stroke-linejoin:round;stroke-miterlimit:4;stroke-dasharray:none;stroke-opacity:1"
       d="m 562.19358,-290.98005 c 88.08795,2.54927 176.25952,33.3764 242.31448,91.7093 66.05497,58.3329 108.18462,144.854222 106.60589,232.964908 -1.575,87.903002 -46.54906,172.662422 -114.32147,228.665262 -67.77241,56.00284 -156.58026,84.00452 -244.49734,84.0691 C 464.028,346.49336 374.83524,318.39753 306.80665,262.15517 238.77806,205.91282 193.68384,120.77861 192.15311,32.52472 c -1.5886,-91.590537 43.97907,-181.31308 114.5188,-239.75533 70.53973,-58.44225 163.95569,-86.39936 255.52167,-83.74944 z"
       id="path10891-7"
       inkscape:connector-curvature="0"
       sodipodi:nodetypes="acaca"
       inkscape:path-effect="#path-effect4137-9"
       inkscape:original-d="M 562.19358,-290.98005 C 822.72219,-289.44541 914.58552,-87.238434 911.11395,33.694158 907.72363,151.79123 806.73549,346.42968 552.29514,346.42852 296.9062,346.42852 192.31262,151.07251 192.15311,32.52472 191.98884,-89.567839 299.18937,-292.52931 562.19358,-290.98005 Z" />
    <path
       style="color:#000000;font-style:normal;font-variant:normal;font-weight:normal;font-stretch:normal;font-size:medium;line-height:normal;font-family:sans-serif;text-indent:0;text-align:start;text-decoration:none;text-decoration-line:none;text-decoration-style:solid;text-decoration-color:#000000;letter-spacing:normal;word-spacing:normal;text-transform:none;direction:ltr;block-progression:tb;writing-mode:lr-tb;baseline-shift:baseline;text-anchor:start;white-space:normal;clip-rule:nonzero;display:inline;overflow:visible;visibility:visible;opacity:1;isolation:auto;mix-blend-mode:normal;color-interpolation:sRGB;color-interpolation-filters:linearRGB;solid-color:#000000;solid-opacity:1;fill:#000000;fill-opacity:1;fill-rule:evenodd;stroke:none;stroke-width:150;stroke-linecap:round;stroke-linejoin:round;stroke-miterlimit:4;stroke-dasharray:none;stroke-dashoffset:0;stroke-opacity:1;color-rendering:auto;image-rendering:auto;shape-rendering:auto;text-rendering:auto;enable-background:accumulate"
       d="M -362.48242 189.24219 C -364.07462 189.25157 -365.66633 189.27079 -367.25781 189.29883 C -462.74673 190.98095 -556.74525 226.142 -628.64258 291.73242 C -705.68409 362.01576 -751.79937 462.98303 -750.08008 569.01367 C -748.42414 671.13745 -702.59451 767.24393 -628.33008 834.81641 C -617.50802 844.66329 -606.18399 853.81916 -594.43359 862.2832 C -614.95041 874.08048 -634.62139 887.64168 -653.17773 903.01562 C -740.538 975.39372 -796.87053 1084.5219 -794.83594 1201.8262 C -792.87679 1314.7804 -737.11236 1418.4049 -652.98242 1487.959 C -569.59569 1556.8986 -463.86981 1589.5043 -359.65039 1589.4277 C -255.84538 1589.3514 -150.54348 1556.8506 -67.433594 1488.1738 C 16.423901 1418.8793 72.083898 1315.646 74.101562 1203.0371 C 76.124188 1090.1514 23.928326 984.72779 -57.847656 912.51172 C -79.137926 893.71036 -102.057 877.37714 -126.16406 863.45117 C -113.8693 854.68884 -102.03602 845.17072 -90.748047 834.90234 C -16.786068 767.62105 28.977056 672.00068 30.865234 570.28711 C 32.762596 468.07886 -9.8459703 370.37444 -81.927734 300.34961 C -153.698 230.62737 -249.89131 192.28318 -348.14648 189.41016 C -352.92628 189.27039 -357.70584 189.21405 -362.48242 189.24219 z M -358.49609 339.24609 C -356.50638 339.25471 -354.51755 339.28765 -352.53125 339.3457 C -291.18672 341.13944 -229.20148 366.40527 -186.44727 407.93945 C -144.00455 449.17102 -118.04127 510.06978 -119.10742 567.50195 C -120.16874 624.67368 -148.09384 684.29089 -191.68359 723.94336 C -235.59341 763.88699 -297.98694 787.13131 -359.125 787.21289 C -420.52661 787.29479 -483.27049 764.00473 -527.38086 723.86914 C -571.17158 684.02439 -599.16976 624.04767 -600.10156 566.58203 C -601.06715 507.03303 -572.84814 443.87443 -527.54883 402.54883 C -484.75165 363.50586 -424.2389 340.48645 -364.46875 339.29297 C -362.47641 339.25317 -360.48581 339.23748 -358.49609 339.24609 z M -358.99609 951.86133 C -356.65535 951.87881 -354.31546 951.92059 -351.97656 951.98828 C -279.91802 954.07366 -208.19744 979.85573 -157.13672 1024.9473 C -106.80278 1069.397 -74.738233 1137.0159 -75.873047 1200.3516 C -77.005378 1263.5487 -111.2951 1329.8338 -162.98242 1372.5449 C -215.41735 1415.8738 -287.7306 1439.3748 -359.75977 1439.4277 C -432.07462 1439.4808 -504.73385 1415.8966 -557.4043 1372.3516 C -609.33154 1329.4209 -643.75511 1262.7782 -644.85742 1199.2246 C -646.00003 1133.3478 -611.19771 1063.0299 -557.47852 1018.5234 C -506.3486 976.16225 -436.25213 952.84701 -366.01953 951.88281 C -363.67845 951.85067 -361.33684 951.84385 -358.99609 951.86133 z "
       transform="translate(0,-1048)"
       id="path10891-8" />
    <path
       style="fill:none;fill-rule:evenodd;stroke:#000000;stroke-width:75;stroke-linecap:round;stroke-linejoin:round;stroke-miterlimit:4;stroke-dasharray:none;stroke-opacity:1"
       d="m -2663.2184,-345.41481 c 84.5118,2.47055 168.3004,36.01216 229.0403,94.82552 60.7398,58.81336 97.1931,142.76555 95.6255,227.298886 -1.5604,84.140375 -40.723,166.313944 -103.0673,222.840234 -62.3443,56.52629 -146.6542,87.32749 -230.809,87.43805 -84.5231,0.11104 -169.275,-30.74533 -231.8853,-87.52669 -62.6102,-56.78136 -101.8484,-139.39987 -103.2221,-223.911877 -1.4253,-87.685033 38.0863,-174.567173 102.9708,-233.564573 64.8846,-58.99739 153.6879,-89.96211 241.3471,-87.39955 z"
       id="path10891-5"
       inkscape:connector-curvature="0"
       sodipodi:nodetypes="acaca"
       inkscape:path-effect="#path-effect4137-72"
       inkscape:original-d="m -2663.2184,-345.41481 c 242.4183,1.52259 327.8961,202.14152 324.6658,322.124406 -3.1546,117.169549 -97.1228,310.279524 -333.8763,310.278284 -237.636,-9.4e-4 -334.9589,-193.821754 -335.1074,-311.438567 -0.1528,-121.133693 99.596,-322.501223 344.3179,-320.964123 z" />
    <path
       style="fill:none;fill-rule:evenodd;stroke:#000000;stroke-width:75;stroke-linecap:round;stroke-linejoin:round;stroke-miterlimit:4;stroke-dasharray:none;stroke-opacity:1"
       d="m -2662.6545,288.77475 c 93.2969,2.69879 186.7116,35.19282 256.7733,96.86087 70.0617,61.66805 114.8379,153.26617 113.1682,246.58715 -1.6659,93.10867 -49.4556,182.8445 -121.3381,242.04671 -71.8825,59.20221 -165.9746,88.70462 -259.0982,88.77112 -93.493,0.0668 -187.9901,-29.53692 -260.1431,-88.99185 -72.153,-59.45492 -120.0715,-149.58408 -121.6964,-243.063 -1.6864,-97.01395 46.7408,-192.00816 121.5587,-253.78872 74.8179,-61.78057 173.7876,-91.22784 270.7756,-88.42228 z"
       id="path10891-7-1"
       inkscape:connector-curvature="0"
       sodipodi:nodetypes="acaca"
       inkscape:path-effect="#path-effect4137-9-05"
       inkscape:original-d="m -2662.6545,288.77475 c 276.2244,1.62337 373.6224,215.52269 369.9415,343.44802 -3.5944,124.9259 -110.6667,330.81898 -380.4363,330.81783 -270.7753,0 -381.6703,-206.65219 -381.8395,-332.05485 -0.1742,-129.15242 113.4849,-343.84985 392.3343,-342.211 z" />
    <path
       style="color:#000000;font-style:normal;font-variant:normal;font-weight:normal;font-stretch:normal;font-size:medium;line-height:normal;font-family:sans-serif;text-indent:0;text-align:start;text-decoration:none;text-decoration-line:none;text-decoration-style:solid;text-decoration-color:#000000;letter-spacing:normal;word-spacing:normal;text-transform:none;direction:ltr;block-progression:tb;writing-mode:lr-tb;baseline-shift:baseline;text-anchor:start;white-space:normal;clip-rule:nonzero;display:inline;overflow:visible;visibility:visible;opacity:1;isolation:auto;mix-blend-mode:normal;color-interpolation:sRGB;color-interpolation-filters:linearRGB;solid-color:#000000;solid-opacity:1;fill:#000000;fill-opacity:1;fill-rule:evenodd;stroke:none;stroke-width:75;stroke-linecap:round;stroke-linejoin:round;stroke-miterlimit:4;stroke-dasharray:none;stroke-dashoffset:0;stroke-opacity:1;color-rendering:auto;image-rendering:auto;shape-rendering:auto;text-rendering:auto;enable-background:accumulate"
       d="M -1427.7949 1048.9434 C -1429.3139 1048.9526 -1430.833 1048.9709 -1432.3516 1048.998 C -1523.4676 1050.6247 -1613.6807 1084.308 -1681.793 1146.2402 C -1754.6293 1212.468 -1798.6462 1308.8099 -1797.0312 1408.1582 C -1795.4754 1503.8758 -1751.7493 1595.5343 -1681.5059 1659.2383 C -1656.6326 1681.7959 -1628.8219 1700.6028 -1599.1074 1715.4805 C -1638.6713 1731.2322 -1675.9965 1752.7755 -1709.3066 1780.2812 C -1792.5511 1849.0201 -1846.393 1953.7236 -1844.4824 2063.6367 C -1842.6421 2169.5063 -1789.3594 2268.8872 -1709.1406 2334.9883 C -1629.3012 2400.777 -1526.5502 2432.6137 -1425.123 2432.541 C -1324.0973 2432.469 -1221.7701 2400.7415 -1142.2109 2335.2168 C -1062.2702 2269.3778 -1009.1063 2170.3959 -1007.2188 2064.8926 C -1005.3266 1959.1433 -1055.1677 1858.0869 -1133.1055 1789.4863 C -1168.6749 1758.1783 -1209.3067 1733.8757 -1252.6406 1716.4473 C -1222.2449 1701.4416 -1193.8094 1682.3395 -1168.4316 1659.3301 C -1098.4789 1595.9054 -1054.8263 1504.7222 -1053.0586 1409.4043 C -1051.2826 1313.6356 -1091.9268 1220.4738 -1160.0918 1154.4707 C -1228.0943 1088.6251 -1320.4254 1051.8406 -1414.123 1049.1016 C -1418.6802 1048.9683 -1423.238 1048.9156 -1427.7949 1048.9434 z M -1423.6406 1123.9434 C -1421.1973 1123.9556 -1418.7551 1123.997 -1416.3145 1124.0684 C -1340.9885 1126.2704 -1265.741 1156.5704 -1212.2637 1208.3516 C -1158.9491 1259.9753 -1126.6876 1334.7157 -1128.0469 1408.0137 C -1129.4 1480.9765 -1164.0727 1554.1416 -1218.8086 1603.7695 C -1273.7117 1653.549 -1349.4409 1681.3897 -1424.4785 1681.4883 C -1499.8421 1681.5873 -1575.9791 1653.6937 -1631.123 1603.6836 C -1686.1 1553.8248 -1720.8495 1480.2459 -1722.041 1406.9395 C -1723.2767 1330.9176 -1688.2706 1253.4976 -1631.3379 1201.7305 C -1577.7916 1153.0426 -1504.3022 1125.3804 -1430.9727 1123.9941 C -1428.5283 1123.9479 -1426.0839 1123.9311 -1423.6406 1123.9434 z M -1424.0547 1758.1055 C -1421.2813 1758.1277 -1418.5092 1758.1796 -1415.7383 1758.2598 C -1330.4144 1760.7279 -1245.2146 1790.7232 -1182.6582 1845.7852 C -1120.4726 1900.5207 -1080.7597 1982.6601 -1082.207 2063.5527 C -1083.6512 2144.2668 -1126.0662 2224.7566 -1189.8906 2277.3223 C -1254.0965 2330.202 -1339.9544 2357.4802 -1425.1758 2357.541 C -1510.7346 2357.602 -1596.9787 2330.2287 -1661.4453 2277.1074 C -1725.5328 2224.2987 -1768.0846 2143.4222 -1769.4941 2062.334 C -1770.9563 1978.2192 -1727.9438 1892.9355 -1661.5527 1838.1133 C -1598.919 1786.3938 -1515.608 1759.2095 -1432.377 1758.127 C -1429.6026 1758.0909 -1426.828 1758.0833 -1424.0547 1758.1055 z "
       transform="translate(0,-1048)"
       id="path10891-5-2" />
  </g>
</svg>
