<?xml version="1.0" encoding="UTF-8" standalone="no"?>
<!-- Created with Inkscape (http://www.inkscape.org/) -->

<svg
   xmlns:dc="http://purl.org/dc/elements/1.1/"
   xmlns:cc="http://creativecommons.org/ns#"
   xmlns:rdf="http://www.w3.org/1999/02/22-rdf-syntax-ns#"
   xmlns:svg="http://www.w3.org/2000/svg"
   xmlns="http://www.w3.org/2000/svg"
   xmlns:sodipodi="http://sodipodi.sourceforge.net/DTD/sodipodi-0.dtd"
   xmlns:inkscape="http://www.inkscape.org/namespaces/inkscape"
   width="2000"
   height="2048"
   id="svg2992"
   version="1.1"
   inkscape:version="0.92.3 (2405546, 2018-03-11)"
   sodipodi:docname="&lt;.svg">
  <defs
     id="defs5498" />
  <sodipodi:namedview
     inkscape:window-height="1051"
     inkscape:window-width="1920"
     inkscape:pageshadow="2"
     inkscape:pageopacity="0.0"
     borderopacity="1.0"
     bordercolor="#666666"
     pagecolor="#ffffff"
     id="base"
     showgrid="true"
     showguides="true"
     inkscape:guide-bbox="true"
     inkscape:zoom="0.64"
     inkscape:cx="4159.4166"
     inkscape:cy="-142.85811"
     inkscape:window-x="0"
     inkscape:window-y="0"
     inkscape:current-layer="layer1"
     inkscape:window-maximized="1">
    <inkscape:grid
       type="xygrid"
       id="grid3769"
       empspacing="3"
       visible="true"
       enabled="true"
       snapvisiblegridlinesonly="true"
       spacingx="4"
       units="px"
       dotted="true"
       spacingy="4"
       originx="0"
       originy="0" />
    <sodipodi:guide
       orientation="0,1"
       position="-144,900"
       id="guide2985"
       inkscape:label=""
       inkscape:color="rgb(0,0,255)"
       inkscape:locked="false" />
    <sodipodi:guide
       orientation="0,1"
       position="288,0"
       id="guide4311"
       inkscape:label=""
       inkscape:color="rgb(0,0,255)"
       inkscape:locked="false" />
  </sodipodi:namedview>
  <metadata
     id="metadata5594">
    <rdf:RDF>
      <cc:Work
         rdf:about="">
        <dc:format>image/svg+xml</dc:format>
        <dc:type
           rdf:resource="http://purl.org/dc/dcmitype/StillImage" />
        <dc:title />
      </cc:Work>
    </rdf:RDF>
  </metadata>
  <g
     inkscape:label="Layer 1"
     inkscape:groupmode="layer"
     id="layer1"
     transform="translate(0,1048)">
    <path
       style="fill:none;fill-rule:evenodd;stroke:#000000;stroke-width:70.00001526;stroke-linecap:round;stroke-linejoin:round;stroke-miterlimit:4;stroke-dasharray:none;stroke-opacity:1"
       d="m -129.48614,134.93895 -765.37983,405.99347 765.07531,422.42719"
       id="path4416"
       inkscape:connector-curvature="0"
       sodipodi:nodetypes="ccc" />
    <g
       id="g4140"
       transform="matrix(1.7963053,0,0,-1.7963053,-1284.2664,355.98201)">
      <path
         id="path4142"
         d="M 231,401 85,260 231,119 c 8,-9 12,-16 12,-25 0,-19 -13,-35 -36,-35 -11,0 -21,4 -28,13 l 3,-2 -167,161 0,-1 c -22,20 -18,43 2,61 l 0,-1 166,161 -1,0 c 6,6 14,10 25,10 19,0 36,-16 36,-35 0,-9 -4,-16 -12,-25 z M 250,260 395,119 c 9,-9 12,-16 12,-25 0,-19 -16,-35 -36,-35 -11,0 -20,4 -28,13 l 3,-2 -167,161 0,-1 c -22,20 -20,41 2,61 l 0,-1 166,161 -1,0 c 7,6 15,10 25,10 20,0 36,-16 36,-35 0,-9 -3,-16 -12,-25 z"
         inkscape:connector-curvature="0"
         style="fill:currentColor" />
    </g>
    <path
       style="color:#000000;font-style:normal;font-variant:normal;font-weight:normal;font-stretch:normal;font-size:medium;line-height:normal;font-family:sans-serif;text-indent:0;text-align:start;text-decoration:none;text-decoration-line:none;text-decoration-style:solid;text-decoration-color:#000000;letter-spacing:normal;word-spacing:normal;text-transform:none;direction:ltr;block-progression:tb;writing-mode:lr-tb;baseline-shift:baseline;text-anchor:start;white-space:normal;clip-rule:nonzero;display:inline;overflow:visible;visibility:visible;opacity:1;isolation:auto;mix-blend-mode:normal;color-interpolation:sRGB;color-interpolation-filters:linearRGB;solid-color:#000000;solid-opacity:1;fill:#000000;fill-opacity:1;fill-rule:evenodd;stroke:none;stroke-width:140;stroke-linecap:round;stroke-linejoin:round;stroke-miterlimit:4;stroke-dasharray:none;stroke-dashoffset:0;stroke-opacity:1;color-rendering:auto;image-rendering:auto;shape-rendering:auto;text-rendering:auto;enable-background:accumulate"
       d="m 1395.3379,512.05664 a 70.007,70.007 0 0 0 -31.4336,8.61328 L 701.0957,872.73047 a 70.007,70.007 0 0 0 -1.0332,123.08203 l 662.5449,366.3105 a 70.007,70.007 0 1 0 67.7403,-122.5214 L 880.83398,935.7832 1429.5781,644.31055 a 70.007,70.007 0 0 0 -34.2402,-132.25391 z"
       id="path4416-2"
       inkscape:connector-curvature="0" />
    <path
       style="fill:none;fill-rule:evenodd;stroke:#000000;stroke-width:140;stroke-linecap:round;stroke-linejoin:round;stroke-miterlimit:4;stroke-dasharray:none;stroke-opacity:1"
       d="M 1256.7411,-351.63421 593.93268,0.42633016 1256.4774,366.73751"
       id="path4416-4"
       inkscape:connector-curvature="0"
       sodipodi:nodetypes="ccc" />
    <path
       style="color:#000000;font-style:normal;font-variant:normal;font-weight:normal;font-stretch:normal;font-size:medium;line-height:normal;font-family:sans-serif;text-indent:0;text-align:start;text-decoration:none;text-decoration-line:none;text-decoration-style:solid;text-decoration-color:#000000;letter-spacing:normal;word-spacing:normal;text-transform:none;direction:ltr;block-progression:tb;writing-mode:lr-tb;baseline-shift:baseline;text-anchor:start;white-space:normal;clip-rule:nonzero;display:inline;overflow:visible;visibility:visible;opacity:1;isolation:auto;mix-blend-mode:normal;color-interpolation:sRGB;color-interpolation-filters:linearRGB;solid-color:#000000;solid-opacity:1;fill:#000000;fill-opacity:1;fill-rule:evenodd;stroke:none;stroke-width:70.00001526;stroke-linecap:round;stroke-linejoin:round;stroke-miterlimit:4;stroke-dasharray:none;stroke-dashoffset:0;stroke-opacity:1;color-rendering:auto;image-rendering:auto;shape-rendering:auto;text-rendering:auto;enable-background:accumulate"
       d="m -1296.6534,95.425561 a 35.003508,35.003508 0 0 0 -15.7187,4.29883 L -2077.753,505.71853 a 35.003508,35.003508 0 0 0 -0.5156,61.5586 l 765.0742,422.42773 a 35.003508,35.003508 0 1 0 33.836,-61.2793 l -708.4668,-391.17187 708.2539,-375.69141 a 35.003508,35.003508 0 0 0 -17.0821,-66.136719 z"
       id="path4416-5"
       inkscape:connector-curvature="0" />
    <path
       style="color:#000000;font-style:normal;font-variant:normal;font-weight:normal;font-stretch:normal;font-size:medium;line-height:normal;font-family:sans-serif;text-indent:0;text-align:start;text-decoration:none;text-decoration-line:none;text-decoration-style:solid;text-decoration-color:#000000;letter-spacing:normal;word-spacing:normal;text-transform:none;direction:ltr;block-progression:tb;writing-mode:lr-tb;baseline-shift:baseline;text-anchor:start;white-space:normal;clip-rule:nonzero;display:inline;overflow:visible;visibility:visible;opacity:1;isolation:auto;mix-blend-mode:normal;color-interpolation:sRGB;color-interpolation-filters:linearRGB;solid-color:#000000;solid-opacity:1;fill:#000000;fill-opacity:1;fill-rule:evenodd;stroke:none;stroke-width:70.00001526;stroke-linecap:round;stroke-linejoin:round;stroke-miterlimit:4;stroke-dasharray:none;stroke-dashoffset:0;stroke-opacity:1;color-rendering:auto;image-rendering:auto;shape-rendering:auto;text-rendering:auto;enable-background:accumulate"
       d="m -1642.7154,102.6178 a 35.003508,35.003508 0 0 0 -15.7187,4.29879 l -765.381,405.99412 a 35.003508,35.003508 0 0 0 -0.5156,61.5586 l 765.0743,422.42772 a 35.003508,35.003508 0 1 0 33.836,-61.2793 l -708.4668,-391.17186 708.2539,-375.69141 a 35.003508,35.003508 0 0 0 -17.0821,-66.13666 z"
       id="path4416-5-8"
       inkscape:connector-curvature="0" />
    <path
       style="fill:none;fill-rule:evenodd;stroke:#ff5555;stroke-width:180;stroke-linecap:round;stroke-linejoin:round;stroke-miterlimit:4;stroke-dasharray:none;stroke-opacity:1"
       d="m 3686,352 -308,300 294,284"
       id="path4416-9"
       inkscape:connector-curvature="0"
       sodipodi:nodetypes="ccc" />
    <path
       style="fill:none;fill-rule:evenodd;stroke:#ff5555;stroke-width:180;stroke-linecap:round;stroke-linejoin:round;stroke-miterlimit:4;stroke-dasharray:none;stroke-opacity:1"
       d="m 4086,352 -308,300 294,284"
       id="path4416-9-3"
       inkscape:connector-curvature="0"
       sodipodi:nodetypes="ccc" />
    <path
       style="color:#000000;font-style:normal;font-variant:normal;font-weight:normal;font-stretch:normal;font-size:medium;line-height:normal;font-family:sans-serif;font-variant-ligatures:normal;font-variant-position:normal;font-variant-caps:normal;font-variant-numeric:normal;font-variant-alternates:normal;font-feature-settings:normal;text-indent:0;text-align:start;text-decoration:none;text-decoration-line:none;text-decoration-style:solid;text-decoration-color:#000000;letter-spacing:normal;word-spacing:normal;text-transform:none;writing-mode:lr-tb;direction:ltr;text-orientation:mixed;dominant-baseline:auto;baseline-shift:baseline;text-anchor:start;white-space:normal;shape-padding:0;clip-rule:nonzero;display:inline;overflow:visible;visibility:visible;opacity:1;isolation:auto;mix-blend-mode:normal;color-interpolation:sRGB;color-interpolation-filters:linearRGB;solid-color:#000000;solid-opacity:1;vector-effect:none;fill:#ff5555;fill-opacity:1;fill-rule:evenodd;stroke:none;stroke-width:180;stroke-linecap:round;stroke-linejoin:round;stroke-miterlimit:4;stroke-dasharray:none;stroke-dashoffset:0;stroke-opacity:1;color-rendering:auto;image-rendering:auto;shape-rendering:auto;text-rendering:auto;enable-background:accumulate"
       d="M 3715.4258 2113.1152 A 90.009 90.009 0 0 0 3653.2031 2139.5293 L 3345.2031 2439.5293 A 90.009 90.009 0 0 0 3345.4707 2568.7305 L 3639.4707 2852.7305 A 90.009 90.009 0 1 0 3764.5293 2723.2695 L 3537.2617 2503.7324 L 3778.7969 2268.4707 A 90.009 90.009 0 0 0 3715.4258 2113.1152 z M 4115.4258 2113.1152 A 90.009 90.009 0 0 0 4053.2031 2139.5293 L 3745.2031 2439.5293 A 90.009 90.009 0 0 0 3745.4707 2568.7305 L 4039.4707 2852.7305 A 90.009 90.009 0 1 0 4164.5293 2723.2695 L 3937.2617 2503.7324 L 4178.7969 2268.4707 A 90.009 90.009 0 0 0 4115.4258 2113.1152 z "
       transform="translate(0,-1048)"
       id="path4416-9-0" />
  </g>
</svg>
