<?xml version="1.0" encoding="UTF-8" standalone="no"?>
<svg
   xmlns:dc="http://purl.org/dc/elements/1.1/"
   xmlns:cc="http://creativecommons.org/ns#"
   xmlns:rdf="http://www.w3.org/1999/02/22-rdf-syntax-ns#"
   xmlns:svg="http://www.w3.org/2000/svg"
   xmlns="http://www.w3.org/2000/svg"
   xmlns:sodipodi="http://sodipodi.sourceforge.net/DTD/sodipodi-0.dtd"
   xmlns:inkscape="http://www.inkscape.org/namespaces/inkscape"
   version="1.1"
   id="svg2992"
   height="2048"
   width="4000"
   inkscape:version="0.91 r13725"
   sodipodi:docname="a.svg">
  <sodipodi:namedview
     pagecolor="#ffffff"
     bordercolor="#666666"
     borderopacity="1"
     objecttolerance="10"
     gridtolerance="10"
     guidetolerance="10"
     inkscape:pageopacity="0"
     inkscape:pageshadow="2"
     inkscape:window-width="1600"
     inkscape:window-height="843"
     id="namedview33"
     showgrid="false"
     inkscape:zoom="0.22627416"
     inkscape:cx="5909.6155"
     inkscape:cy="1429.0337"
     inkscape:window-x="1600"
     inkscape:window-y="0"
     inkscape:window-maximized="1"
     inkscape:current-layer="svg2992"
     showguides="true"
     inkscape:guide-bbox="true">
    <inkscape:grid
       type="xygrid"
       id="grid4162" />
    <sodipodi:guide
       orientation="0,1"
       position="-2651.6504,1734"
       id="guide4164"
       inkscape:label=""
       inkscape:color="rgb(0,0,255)" />
    <sodipodi:guide
       orientation="0,1"
       position="-4299.2092,0"
       id="guide4166"
       inkscape:label=""
       inkscape:color="rgb(0,0,255)" />
    <sodipodi:guide
       position="-4321.8366,1024"
       orientation="0,1"
       id="guide4196"
       inkscape:label=""
       inkscape:color="rgb(0,0,255)" />
    <sodipodi:guide
       position="7539.5264,614"
       orientation="0,1"
       id="guide4217"
       inkscape:label=""
       inkscape:color="rgb(0,0,255)" />
    <sodipodi:guide
       position="7336.2331,2096"
       orientation="0,1"
       id="guide4200"
       inkscape:label=""
       inkscape:color="rgb(0,0,255)" />
  </sodipodi:namedview>
  <defs
     id="defs5498">
    <inkscape:path-effect
       effect="spiro"
       id="path-effect4277-7-2"
       is_visible="true" />
    <inkscape:path-effect
       effect="spiro"
       id="path-effect4277-7-2-2"
       is_visible="true" />
    <inkscape:path-effect
       effect="spiro"
       id="path-effect4273-29-3"
       is_visible="true" />
    <inkscape:path-effect
       effect="spiro"
       id="path-effect4277-7-2-2-2"
       is_visible="true" />
    <inkscape:path-effect
       effect="spiro"
       id="path-effect4273-29-3-9"
       is_visible="true" />
    <inkscape:path-effect
       effect="spiro"
       id="path-effect4277-7-2-2-5"
       is_visible="true" />
    <inkscape:path-effect
       effect="spiro"
       id="path-effect4273-29-3-4"
       is_visible="true" />
    <inkscape:path-effect
       effect="spiro"
       id="path-effect4273-29-3-2"
       is_visible="true" />
    <inkscape:path-effect
       effect="spiro"
       id="path-effect4277-7-2-2-4"
       is_visible="true" />
    <inkscape:path-effect
       effect="spiro"
       id="path-effect4277-7-2-2-9"
       is_visible="true" />
    <inkscape:path-effect
       effect="spiro"
       id="path-effect4273-29-3-1"
       is_visible="true" />
    <inkscape:path-effect
       effect="spiro"
       id="path-effect4273-29-3-6"
       is_visible="true" />
    <inkscape:path-effect
       effect="spiro"
       id="path-effect4277-7-2-2-40"
       is_visible="true" />
    <inkscape:path-effect
       effect="spiro"
       id="path-effect4273-29-3-62"
       is_visible="true" />
    <inkscape:path-effect
       effect="spiro"
       id="path-effect4277-7-2-2-93"
       is_visible="true" />
    <inkscape:path-effect
       effect="spiro"
       id="path-effect4277-7-2-2-51"
       is_visible="true" />
    <inkscape:path-effect
       effect="spiro"
       id="path-effect4273-29-3-18"
       is_visible="true" />
    <inkscape:path-effect
       effect="spiro"
       id="path-effect4277-7-2-2-51-8"
       is_visible="true" />
    <inkscape:path-effect
       effect="spiro"
       id="path-effect4273-29-3-18-3"
       is_visible="true" />
    <inkscape:path-effect
       effect="spiro"
       id="path-effect4273-29-3-13"
       is_visible="true" />
    <inkscape:path-effect
       effect="spiro"
       id="path-effect4277-7-2-2-28"
       is_visible="true" />
    <inkscape:path-effect
       effect="spiro"
       id="path-effect4273-29-3-620"
       is_visible="true" />
    <inkscape:path-effect
       effect="spiro"
       id="path-effect4277-7-2-2-58"
       is_visible="true" />
    <inkscape:path-effect
       effect="spiro"
       id="path-effect4277-7-2-2-7"
       is_visible="true" />
    <inkscape:path-effect
       effect="spiro"
       id="path-effect4273-29-3-66"
       is_visible="true" />
    <inkscape:path-effect
       effect="spiro"
       id="path-effect4277-7-2-2-47"
       is_visible="true" />
    <inkscape:path-effect
       effect="spiro"
       id="path-effect4273-29-3-7"
       is_visible="true" />
    <inkscape:path-effect
       effect="spiro"
       id="path-effect4277-7-2-2-47-4"
       is_visible="true" />
    <inkscape:path-effect
       effect="spiro"
       id="path-effect4273-29-3-7-9"
       is_visible="true" />
  </defs>
  <metadata
     id="metadata5594">
    <rdf:RDF>
      <cc:Work
         rdf:about="">
        <dc:format>image/svg+xml</dc:format>
        <dc:type
           rdf:resource="http://purl.org/dc/dcmitype/StillImage" />
        <dc:title />
      </cc:Work>
    </rdf:RDF>
  </metadata>
  <path
     style="fill:none;fill-rule:evenodd;stroke:#000000;stroke-width:150;stroke-linecap:round;stroke-linejoin:round;stroke-miterlimit:4;stroke-dasharray:none;stroke-opacity:1"
     d="M 1351.3504,1388.3759 1900.8071,126.37594 2450.9528,1386.3759"
     id="path4138"
     inkscape:connector-curvature="0"
     sodipodi:nodetypes="ccc" />
  <path
     style="fill:none;fill-rule:evenodd;stroke:#000000;stroke-width:150;stroke-linecap:square;stroke-linejoin:miter;stroke-miterlimit:4;stroke-dasharray:none;stroke-opacity:1"
     d="m 1677.6269,894.34862 c 193.6005,2.03874 382.6644,4.07747 484.7462,6.11621"
     id="path4140"
     inkscape:connector-curvature="0"
     sodipodi:nodetypes="cc" />
  <path
     style="fill:none;fill-rule:evenodd;stroke:#000000;stroke-width:75;stroke-linecap:round;stroke-linejoin:round;stroke-miterlimit:4;stroke-dasharray:none;stroke-opacity:1"
     d="m -3281.1505,1060.1131 -2.197,952.6364"
     id="path4271-4-5"
     inkscape:path-effect="#path-effect4273-29-3"
     inkscape:original-d="m -3281.1505,1060.1131 -2.197,952.6364"
     inkscape:connector-curvature="0"
     sodipodi:nodetypes="cc" />
  <path
     style="fill:none;fill-rule:evenodd;stroke:#000000;stroke-width:75;stroke-linecap:round;stroke-linejoin:round;stroke-miterlimit:4;stroke-dasharray:none;stroke-opacity:1"
     d="m -4158.8462,1536.0285 c -0.2188,118.802 40.8511,238.4075 119.2221,327.6932 78.3711,89.2858 194.411,146.139 313.2116,146.757 121.5971,0.6326 240.7736,-57.7548 320.2954,-149.7469 79.5219,-91.992 119.8328,-215.2488 117.3225,-336.8217 -2.2858,-110.7004 -39.811,-221.3639 -110.2078,-306.8279 -70.3968,-85.4639 -174.1015,-144.19 -284.334,-154.6103 -125.3258,-11.8471 -253.5601,39.9287 -340.9854,130.5031 -87.4253,90.5743 -134.2926,217.1692 -134.5244,343.0535 z"
     id="path4275-3-0"
     inkscape:path-effect="#path-effect4277-7-2-2"
     inkscape:original-d="m -4158.8462,1536.0285 c -5.1741,213.8812 218.4027,475.1583 432.4337,474.4502 218.1868,-0.7217 434.8824,-268.4878 437.6179,-486.5686 2.5378,-202.3203 -192.2839,-453.342 -394.5418,-461.4382 -223.5642,-8.9492 -470.1007,249.9708 -475.5098,473.5566 z"
     inkscape:connector-curvature="0"
     sodipodi:nodetypes="aaaaa" />
  <path
     style="color:#000000;font-style:normal;font-variant:normal;font-weight:normal;font-stretch:normal;font-size:medium;line-height:normal;font-family:sans-serif;text-indent:0;text-align:start;text-decoration:none;text-decoration-line:none;text-decoration-style:solid;text-decoration-color:#000000;letter-spacing:normal;word-spacing:normal;text-transform:none;direction:ltr;block-progression:tb;writing-mode:lr-tb;baseline-shift:baseline;text-anchor:start;white-space:normal;clip-rule:nonzero;display:inline;overflow:visible;visibility:visible;opacity:1;isolation:auto;mix-blend-mode:normal;color-interpolation:sRGB;color-interpolation-filters:linearRGB;solid-color:#000000;solid-opacity:1;fill:#000000;fill-opacity:1;fill-rule:evenodd;stroke:none;stroke-width:150;stroke-linecap:round;stroke-linejoin:round;stroke-miterlimit:4;stroke-dasharray:none;stroke-dashoffset:0;stroke-opacity:1;color-rendering:auto;image-rendering:auto;shape-rendering:auto;text-rendering:auto;enable-background:accumulate"
     d="m 1321.3653,3660.1697 a 75.0075,75.0075 0 0 0 -73.3359,76.5742 l 0.5195,74.2735 c -96.1083,-95.6526 -228.8065,-150.5351 -365.02342,-148.7774 -137.82578,1.7785 -270.52072,61.4317 -364.34571,161.5527 -93.71547,100.0042 -144.12397,235.1032 -140.79492,371.4864 3.1078,127.3183 52.80765,251.4656 140.09766,345.0215 87.38052,93.6528 208.78032,152.3938 337.16597,161.1054 143.1527,9.7138 285.64012,-43.6617 388.16802,-143.1347 3.3465,-3.2468 6.6414,-6.5398 9.8906,-9.8711 l 0.5508,78.7734 a 75.0075,75.0075 0 1 0 149.9961,-1.0488 l -2.9219,-417.8047 c 0.5179,-10.3114 0.7386,-20.6497 0.6407,-31.002 -0.09,-9.503 -0.4491,-18.9897 -1.0567,-28.4511 l -2.8906,-413.1719 a 75.0075,75.0075 0 0 0 -76.6602,-75.5254 z M 889.88488,3812.201 c 92.9551,0.071 188.02612,40.0147 253.98632,106.2578 61.5766,61.8406 100.3957,148.7253 107.084,236.5703 l 0.3437,49.0762 c -5.7032,91.7954 -46.5618,183.0857 -111.9316,246.5078 -71.2675,69.1439 -175.12102,107.8185 -273.56252,101.1386 -88.59411,-6.0115 -176.66337,-48.4206 -237.64649,-113.7812 -61.07361,-65.4576 -97.61916,-156.2559 -99.81836,-246.3516 -2.35102,-96.3156 34.84157,-195.4145 100.29102,-265.2558 65.33993,-69.7246 161.90721,-112.9099 256.83003,-114.1348 1.4743,-0.019 2.9484,-0.029 4.4239,-0.027 z"
     id="path4271-4-5-2"
     inkscape:connector-curvature="0" />
  <path
     style="color:#000000;font-style:normal;font-variant:normal;font-weight:normal;font-stretch:normal;font-size:medium;line-height:normal;font-family:sans-serif;text-indent:0;text-align:start;text-decoration:none;text-decoration-line:none;text-decoration-style:solid;text-decoration-color:#000000;letter-spacing:normal;word-spacing:normal;text-transform:none;direction:ltr;block-progression:tb;writing-mode:lr-tb;baseline-shift:baseline;text-anchor:start;white-space:normal;clip-rule:nonzero;display:inline;overflow:visible;visibility:visible;opacity:1;isolation:auto;mix-blend-mode:normal;color-interpolation:sRGB;color-interpolation-filters:linearRGB;solid-color:#000000;solid-opacity:1;fill:#000000;fill-opacity:1;fill-rule:evenodd;stroke:none;stroke-width:150;stroke-linecap:round;stroke-linejoin:round;stroke-miterlimit:4;stroke-dasharray:none;stroke-dashoffset:0;stroke-opacity:1;color-rendering:auto;image-rendering:auto;shape-rendering:auto;text-rendering:auto;enable-background:accumulate"
     d="M 2042.5254 1395.209 A 75.0075 75.0075 0 0 0 1976.8418 1440.1953 L 1427.3848 2702.1953 A 75.0075 75.0075 0 1 0 1564.916 2762.0742 L 1770.0039 2291.0273 L 1812.9883 2291.4805 C 2006.5764 2293.519 2195.794 2295.5641 2297.0254 2297.5859 L 2325.3008 2298.1504 L 2527.0195 2760.1465 A 75.0075 75.0075 0 1 0 2664.4863 2700.125 L 2114.3418 1440.125 A 75.0075 75.0075 0 0 0 2042.5254 1395.209 z M 2045.7051 1657.793 L 2259.25 2146.877 C 2155.9149 2145.1457 1998.1048 2143.428 1835.0156 2141.707 L 2045.7051 1657.793 z "
     id="path4138-1" />
  <path
     style="fill:none;fill-rule:evenodd;stroke:#000000;stroke-width:150;stroke-linecap:round;stroke-linejoin:round;stroke-miterlimit:4;stroke-dasharray:none;stroke-opacity:1"
     d="M -2324.2887,1374.8691 -1774.832,112.86917 -1224.6863,1372.8691"
     id="path4138-7"
     inkscape:connector-curvature="0"
     sodipodi:nodetypes="ccc" />
  <path
     style="fill:none;fill-rule:evenodd;stroke:#000000;stroke-width:150;stroke-linecap:square;stroke-linejoin:miter;stroke-miterlimit:4;stroke-dasharray:none;stroke-opacity:1"
     d="m -1998.0122,880.84183 c 193.6005,2.0388 382.6644,4.0775 484.7462,6.1162"
     id="path4140-9"
     inkscape:connector-curvature="0"
     sodipodi:nodetypes="cc" />
  <path
     style="fill:none;fill-rule:evenodd;stroke:#000000;stroke-width:75.00001526;stroke-linecap:round;stroke-linejoin:round;stroke-miterlimit:4;stroke-dasharray:none;stroke-opacity:1"
     d="m -5997.9067,2012.0795 570.9659,-1310.9941 571.6818,1308.9165"
     id="path4138-7-2"
     inkscape:connector-curvature="0"
     sodipodi:nodetypes="ccc" />
  <path
     style="fill:none;fill-rule:evenodd;stroke:#000000;stroke-width:75.00001526;stroke-linecap:square;stroke-linejoin:miter;stroke-miterlimit:4;stroke-dasharray:none;stroke-opacity:1"
     d="m -5720.6243,1511.2004 c 204.3134,2.1507 514.2723,4.3012 622.0028,6.4518"
     id="path4140-9-5"
     inkscape:connector-curvature="0"
     sodipodi:nodetypes="cc" />
  <path
     style="color:#000000;font-style:normal;font-variant:normal;font-weight:normal;font-stretch:normal;font-size:medium;line-height:normal;font-family:sans-serif;text-indent:0;text-align:start;text-decoration:none;text-decoration-line:none;text-decoration-style:solid;text-decoration-color:#000000;letter-spacing:normal;word-spacing:normal;text-transform:none;direction:ltr;block-progression:tb;writing-mode:lr-tb;baseline-shift:baseline;text-anchor:start;white-space:normal;clip-rule:nonzero;display:inline;overflow:visible;visibility:visible;opacity:1;isolation:auto;mix-blend-mode:normal;color-interpolation:sRGB;color-interpolation-filters:linearRGB;solid-color:#000000;solid-opacity:1;fill:#000000;fill-opacity:1;fill-rule:evenodd;stroke:none;stroke-width:75.00001526;stroke-linecap:round;stroke-linejoin:round;stroke-miterlimit:4;stroke-dasharray:none;stroke-dashoffset:0;stroke-opacity:1;color-rendering:auto;image-rendering:auto;shape-rendering:auto;text-rendering:auto;enable-background:accumulate"
     d="m -1921.9141,2365.5352 c -14.3461,0.5926 -27.0948,9.324 -32.832,22.4863 l -582.6055,1337.5097 c -8.6277,19.0601 0.01,41.4939 19.1893,49.8491 19.1811,8.3551 41.4896,-0.5996 49.5705,-19.8979 l 212.9414,-488.8574 c 235.3318,4.41 472.754,2.9941 674.7012,7.0508 l 209.5566,479.7226 c 8.0929,19.3023 30.4189,28.2449 49.5991,19.8668 19.1802,-8.3782 27.7909,-30.8343 19.1294,-49.8882 L -1886.002,2387.9863 c -6.1953,-14.1735 -20.4569,-23.0895 -35.9121,-22.4511 z m 1.5977,131.2519 306.3437,701.293 c -206.6924,-2.8696 -414.3617,-4.0498 -609.1562,-6.1171 z"
     id="path4138-7-2-5"
     inkscape:connector-curvature="0"
     sodipodi:nodetypes="sccsccccsccscccc" />
  <path
     style="color:#000000;font-style:normal;font-variant:normal;font-weight:normal;font-stretch:normal;font-size:medium;line-height:normal;font-family:sans-serif;text-indent:0;text-align:start;text-decoration:none;text-decoration-line:none;text-decoration-style:solid;text-decoration-color:#000000;letter-spacing:normal;word-spacing:normal;text-transform:none;direction:ltr;block-progression:tb;writing-mode:lr-tb;baseline-shift:baseline;text-anchor:start;white-space:normal;clip-rule:nonzero;display:inline;overflow:visible;visibility:visible;opacity:1;isolation:auto;mix-blend-mode:normal;color-interpolation:sRGB;color-interpolation-filters:linearRGB;solid-color:#000000;solid-opacity:1;fill:#000000;fill-opacity:1;fill-rule:evenodd;stroke:none;stroke-width:75.00001526;stroke-linecap:round;stroke-linejoin:round;stroke-miterlimit:4;stroke-dasharray:none;stroke-dashoffset:0;stroke-opacity:1;color-rendering:auto;image-rendering:auto;shape-rendering:auto;text-rendering:auto;enable-background:accumulate"
     d="M -8062.9219 1054.2715 A 37.503758 37.503758 0 0 0 -8095.7559 1076.7617 L -8666.7227 2387.7559 A 37.503758 37.503758 0 1 0 -8597.9609 2417.7031 L -8389.4707 1938.9902 L -8355.4531 1939.3477 C -8151.0036 1941.4998 -7840.5989 1943.663 -7733.8047 1945.7949 L -7729.2363 1945.8867 L -7524.0586 2415.6602 A 37.503758 37.503758 0 1 0 -7455.3281 2385.6426 L -8027.0098 1076.7246 A 37.503758 37.503758 0 0 0 -8062.9219 1054.2715 z M -8061.3262 1185.5391 L -7762.2539 1870.293 C -7889.8833 1868.3002 -8166.705 1866.33 -8354.6641 1864.3516 L -8356.9531 1864.3281 L -8061.3262 1185.5391 z "
     id="path4138-7-2-2" />
  <path
     style="color:#000000;font-style:normal;font-variant:normal;font-weight:normal;font-stretch:normal;font-size:medium;line-height:normal;font-family:sans-serif;text-indent:0;text-align:start;text-decoration:none;text-decoration-line:none;text-decoration-style:solid;text-decoration-color:#000000;letter-spacing:normal;word-spacing:normal;text-transform:none;direction:ltr;block-progression:tb;writing-mode:lr-tb;baseline-shift:baseline;text-anchor:start;white-space:normal;clip-rule:nonzero;display:inline;overflow:visible;visibility:visible;opacity:1;isolation:auto;mix-blend-mode:normal;color-interpolation:sRGB;color-interpolation-filters:linearRGB;solid-color:#000000;solid-opacity:1;fill:#000000;fill-opacity:1;fill-rule:evenodd;stroke:none;stroke-width:75;stroke-linecap:round;stroke-linejoin:round;stroke-miterlimit:4;stroke-dasharray:none;stroke-dashoffset:0;stroke-opacity:1;color-rendering:auto;image-rendering:auto;shape-rendering:auto;text-rendering:auto;enable-background:accumulate"
     d="M -3353.4922 2947.8652 A 37.50375 37.50375 0 0 0 -3390.5137 2985.8086 L -3390.9941 3193.9121 C -3405.6319 3167.572 -3422.6104 3142.4682 -3441.9219 3119.0234 C -3518.4496 3026.1164 -3630.4911 2962.3752 -3751.6719 2950.9199 C -3768.9098 2949.2904 -3786.1542 2948.7426 -3803.3223 2949.2246 C -3923.4985 2952.5986 -4039.8737 3006.4228 -4123.166 3092.7148 C -4218.0663 3191.0334 -4267.9601 3326.5966 -4268.209 3461.7422 C -4268.4438 3589.233 -4224.711 3717.3597 -4139.6719 3814.2422 C -4054.4008 3911.3889 -3929.1078 3973.0802 -3798.4707 3973.7598 C -3664.7423 3974.4555 -3536.1214 3911.1134 -3449.6113 3811.0371 C -3427.6597 3785.6432 -3408.5251 3758.1625 -3392.2285 3729.1582 L -3392.7109 3938.4453 A 37.50375 37.50375 0 1 0 -3317.7109 3938.6191 L -3315.5137 2985.9824 A 37.50375 37.50375 0 0 0 -3353.4922 2947.8652 z M -3789.8809 3024.1016 C -3786.5599 3024.1075 -3783.2395 3024.1612 -3779.9219 3024.2637 C -3772.8442 3024.4822 -3765.7753 3024.9218 -3758.7285 3025.5879 C -3659.4443 3034.9732 -3564.0764 3088.6863 -3499.8105 3166.707 C -3435.3559 3244.957 -3400.272 3347.7198 -3398.1504 3450.4668 C -3395.8219 3563.2325 -3433.5651 3677.7922 -3506.3496 3761.9902 C -3578.8831 3845.8982 -3688.6162 3899.3312 -3798.082 3898.7617 C -3905.0461 3898.2053 -4011.8335 3846.1905 -4083.3047 3764.7656 C -4155.0076 3683.0767 -4193.4137 3571.9921 -4193.2109 3461.8789 C -4192.9962 3345.2559 -4149.1554 3227.6308 -4069.2051 3144.8008 C -3996.8582 3069.848 -3892.8315 3023.9182 -3789.8809 3024.1016 z "
     id="path4271-4-5-9" />
  <path
     style="fill:none;fill-rule:evenodd;stroke:#000000;stroke-width:200;stroke-linecap:round;stroke-linejoin:round;stroke-miterlimit:4;stroke-dasharray:none;stroke-opacity:1"
     d="m 5742.147,412.82734 -2.197,924.63636"
     id="path4271-4-5-92"
     inkscape:path-effect="#path-effect4273-29-3-7"
     inkscape:original-d="m 5742.147,412.82734 -2.197,924.63636"
     inkscape:connector-curvature="0"
     sodipodi:nodetypes="cc" />
  <path
     style="fill:none;fill-rule:evenodd;stroke:#000000;stroke-width:200;stroke-linecap:round;stroke-linejoin:round;stroke-miterlimit:4;stroke-dasharray:none;stroke-opacity:1"
     d="m 4839.4513,860.74274 c -3.5332,122.82146 42.5884,246.79466 127.2973,335.80026 84.7089,89.0055 207.2942,141.3689 330.1364,138.6499 121.629,-2.6922 240.6286,-59.2571 321.3708,-150.2601 80.7422,-91.003 122.6453,-214.81807 116.2471,-336.30846 -5.5819,-105.99058 -47.5122,-210.04602 -118.4686,-288.9786 -70.9564,-78.93258 -170.6848,-131.87231 -276.0732,-144.4596 -124.7497,-14.89975 -254.7242,27.85894 -347.9956,112.0311 -93.2714,84.17217 -148.9015,207.94108 -152.5142,333.5255 z"
     id="path4275-3-0-1"
     inkscape:path-effect="#path-effect4277-7-2-2-47"
     inkscape:original-d="m 4839.4513,860.74274 c -8.3766,219.52396 237.7829,478.25696 457.4337,474.45016 218.1054,-3.78 438.2695,-268.4314 437.6179,-486.56856 -0.5836,-195.37111 -199.4388,-423.18942 -394.5418,-433.4382 -223.0583,-11.71728 -491.9928,222.35318 -500.5098,445.5566 z"
     inkscape:connector-curvature="0"
     sodipodi:nodetypes="aaaaa" />
  <path
     style="color:#000000;font-style:normal;font-variant:normal;font-weight:normal;font-stretch:normal;font-size:medium;line-height:normal;font-family:sans-serif;text-indent:0;text-align:start;text-decoration:none;text-decoration-line:none;text-decoration-style:solid;text-decoration-color:#000000;letter-spacing:normal;word-spacing:normal;text-transform:none;direction:ltr;block-progression:tb;writing-mode:lr-tb;baseline-shift:baseline;text-anchor:start;white-space:normal;clip-rule:nonzero;display:inline;overflow:visible;visibility:visible;opacity:1;isolation:auto;mix-blend-mode:normal;color-interpolation:sRGB;color-interpolation-filters:linearRGB;solid-color:#000000;solid-opacity:1;fill:#000000;fill-opacity:1;fill-rule:evenodd;stroke:none;stroke-width:200;stroke-linecap:round;stroke-linejoin:round;stroke-miterlimit:4;stroke-dasharray:none;stroke-dashoffset:0;stroke-opacity:1;color-rendering:auto;image-rendering:auto;shape-rendering:auto;text-rendering:auto;enable-background:accumulate"
     d="M 5862.6738 1646.7656 A 100.01 100.01 0 0 0 5763.9395 1747.9434 L 5763.8613 1780.6504 C 5682.7857 1710.2633 5581.699 1664.1539 5473.6113 1651.2441 C 5454.2062 1648.9264 5434.7822 1647.7084 5415.4199 1647.5527 L 5415.4199 1647.5547 C 5279.8843 1646.4647 5147.4459 1697.4685 5046.7598 1788.332 C 4931.9737 1891.92 4865.6901 2040.0293 4861.2832 2193.2207 C 4856.9751 2342.9789 4911.9219 2491.37 5016.1035 2600.8359 C 5120.5241 2710.5529 5268.1782 2773.9016 5420.8887 2770.5215 C 5546.9505 2767.7312 5667.5561 2719.6779 5761.8223 2638.7852 L 5761.7422 2672.5801 A 100.01 100.01 0 1 0 5961.7422 2673.0566 L 5963.9375 1748.4199 A 100.01 100.01 0 0 0 5862.6738 1646.7656 z M 5414.1973 1847.6953 C 5426.1852 1847.7243 5438.1103 1848.4267 5449.8926 1849.834 C 5529.8728 1859.3866 5608.7826 1901.0331 5663.457 1961.8535 C 5718.2964 2022.8573 5752.0541 2106.0794 5756.4336 2189.2383 C 5761.4382 2284.2668 5727.5027 2383.7516 5665.2461 2453.9199 C 5603.2238 2523.8241 5508.5533 2568.5339 5416.4629 2570.5723 C 5323.489 2572.6302 5225.9737 2531.251 5160.9766 2462.957 C 5095.7401 2394.4117 5058.4429 2294.8574 5061.2012 2198.9727 C 5064.0197 2100.9952 5108.9972 2001.5669 5180.7539 1936.8105 C 5243.2928 1880.3727 5330.2815 1847.492 5414.1973 1847.6953 z "
     id="path4271-4-5-92-9" />
  <path
     style="color:#000000;font-style:normal;font-variant:normal;font-weight:normal;font-stretch:normal;font-size:medium;line-height:normal;font-family:sans-serif;text-indent:0;text-align:start;text-decoration:none;text-decoration-line:none;text-decoration-style:solid;text-decoration-color:#000000;letter-spacing:normal;word-spacing:normal;text-transform:none;direction:ltr;block-progression:tb;writing-mode:lr-tb;baseline-shift:baseline;text-anchor:start;white-space:normal;clip-rule:nonzero;display:inline;overflow:visible;visibility:visible;opacity:1;isolation:auto;mix-blend-mode:normal;color-interpolation:sRGB;color-interpolation-filters:linearRGB;solid-color:#000000;solid-opacity:1;fill:#000000;fill-opacity:1;fill-rule:evenodd;stroke:none;stroke-width:200;stroke-linecap:round;stroke-linejoin:round;stroke-miterlimit:4;stroke-dasharray:none;stroke-dashoffset:0;stroke-opacity:1;color-rendering:auto;image-rendering:auto;shape-rendering:auto;text-rendering:auto;enable-background:accumulate"
     d="M 7208.4941 -46.59375 A 100.01 100.01 0 0 0 7120.2754 13.826172 L 6570.8184 1291.8262 A 100.01 100.01 0 1 0 6754.5566 1370.8223 L 6929.1738 964.67188 L 6987.9102 965.29102 C 7181.4942 967.32958 7370.7649 969.37648 7471.7129 971.39258 L 7499.3066 971.94336 L 7670.4609 1368.916 A 100.01 100.01 0 1 0 7854.1191 1289.7324 L 7303.9727 13.732422 A 100.01 100.01 0 0 0 7208.4941 -46.59375 z M 7212.2734 306.20117 L 7412.3867 770.33984 C 7310.2483 768.74063 7165.2554 767.15516 7014.7773 765.56641 L 7212.2734 306.20117 z "
     id="path4138-77" />
</svg>
