<?xml version="1.0" encoding="UTF-8" standalone="no"?>
<!-- Created with Inkscape (http://www.inkscape.org/) -->

<svg
   xmlns:dc="http://purl.org/dc/elements/1.1/"
   xmlns:cc="http://creativecommons.org/ns#"
   xmlns:rdf="http://www.w3.org/1999/02/22-rdf-syntax-ns#"
   xmlns:svg="http://www.w3.org/2000/svg"
   xmlns="http://www.w3.org/2000/svg"
   xmlns:sodipodi="http://sodipodi.sourceforge.net/DTD/sodipodi-0.dtd"
   xmlns:inkscape="http://www.inkscape.org/namespaces/inkscape"
   width="2000"
   height="2000"
   id="svg2992"
   version="1.1"
   inkscape:version="0.92.3 (2405546, 2018-03-11)"
   sodipodi:docname="germandbls.svg">
  <defs
     id="defs5498">
    <inkscape:path-effect
       effect="spiro"
       id="path-effect4231"
       is_visible="true" />
    <inkscape:path-effect
       effect="spiro"
       id="path-effect4473"
       is_visible="true" />
    <inkscape:path-effect
       effect="spiro"
       id="path-effect4277"
       is_visible="true" />
    <inkscape:path-effect
       effect="spiro"
       id="path-effect4273"
       is_visible="true" />
    <inkscape:path-effect
       effect="powerstroke"
       id="path-effect4176"
       is_visible="true"
       offset_points="0,89.748228 | 5.6321604,136.95347 | 12,55.592499"
       sort_points="true"
       interpolator_type="CubicBezierJohan"
       interpolator_beta="0.2"
       start_linecap_type="round"
       linejoin_type="round"
       miter_limit="4"
       end_linecap_type="round" />
    <inkscape:path-effect
       effect="spiro"
       id="path-effect4174"
       is_visible="true" />
    <inkscape:path-effect
       effect="powerstroke"
       id="path-effect4165"
       is_visible="true"
       offset_points="0.08006682,-138.82044 | 8.7788483,-102.82691 | 18,-106.24007"
       sort_points="true"
       interpolator_type="SpiroInterpolator"
       interpolator_beta="0.2"
       start_linecap_type="round"
       linejoin_type="round"
       miter_limit="4"
       end_linecap_type="round" />
    <inkscape:path-effect
       effect="interpolate"
       id="path-effect4163"
       is_visible="true"
       trajectory="M 0,0 0,0"
       equidistant_spacing="true"
       steps="5" />
    <inkscape:path-effect
       effect="powerstroke"
       id="path-effect4161"
       is_visible="true"
       offset_points="0,1 | 9,1 | 18,1"
       sort_points="true"
       interpolator_type="CubicBezierJohan"
       interpolator_beta="0.2"
       start_linecap_type="round"
       linejoin_type="round"
       miter_limit="4"
       end_linecap_type="round" />
    <inkscape:path-effect
       effect="spiro"
       id="path-effect2987"
       is_visible="true" />
    <inkscape:path-effect
       effect="spiro"
       id="path-effect4141-3-4-6"
       is_visible="true" />
    <inkscape:path-effect
       effect="spiro"
       id="path-effect4141-3-4-6-8"
       is_visible="true" />
    <inkscape:path-effect
       effect="spiro"
       id="path-effect4141-3-4-6-8-8"
       is_visible="true" />
    <inkscape:path-effect
       effect="spiro"
       id="path-effect4141-3-4-6-8-86"
       is_visible="true" />
    <inkscape:path-effect
       effect="spiro"
       id="path-effect4141-3-4-6-8-86-6"
       is_visible="true" />
    <inkscape:path-effect
       effect="spiro"
       id="path-effect4141-3-4-6-8-86-2"
       is_visible="true" />
    <inkscape:path-effect
       effect="spiro"
       id="path-effect4141-3-4-6-8-86-2-4"
       is_visible="true" />
    <inkscape:path-effect
       effect="spiro"
       id="path-effect4277-0"
       is_visible="true" />
    <inkscape:path-effect
       effect="spiro"
       id="path-effect4273-2"
       is_visible="true" />
    <inkscape:path-effect
       effect="spiro"
       id="path-effect4273-29"
       is_visible="true" />
    <inkscape:path-effect
       effect="spiro"
       id="path-effect4277-7"
       is_visible="true" />
    <inkscape:path-effect
       effect="spiro"
       id="path-effect4277-7-5"
       is_visible="true" />
    <inkscape:path-effect
       effect="spiro"
       id="path-effect4273-29-6"
       is_visible="true" />
    <inkscape:path-effect
       effect="spiro"
       id="path-effect4273-29-6-8"
       is_visible="true" />
    <inkscape:path-effect
       effect="spiro"
       id="path-effect4277-7-5-3"
       is_visible="true" />
    <inkscape:path-effect
       effect="spiro"
       id="path-effect4273-29-3"
       is_visible="true" />
    <inkscape:path-effect
       effect="spiro"
       id="path-effect4277-7-2"
       is_visible="true" />
    <inkscape:path-effect
       effect="spiro"
       id="path-effect4277-7-2-4"
       is_visible="true" />
    <inkscape:path-effect
       effect="spiro"
       id="path-effect4277-7-2-4-0"
       is_visible="true" />
    <inkscape:path-effect
       effect="spiro"
       id="path-effect4277-7-8"
       is_visible="true" />
    <inkscape:path-effect
       effect="spiro"
       id="path-effect4277-7-5-6"
       is_visible="true" />
    <inkscape:path-effect
       effect="spiro"
       id="path-effect4277-7-8-5"
       is_visible="true" />
    <inkscape:path-effect
       effect="spiro"
       id="path-effect4277-9"
       is_visible="true" />
    <inkscape:path-effect
       effect="spiro"
       id="path-effect4273-6"
       is_visible="true" />
    <inkscape:path-effect
       effect="spiro"
       id="path-effect4273-2-1"
       is_visible="true" />
    <inkscape:path-effect
       effect="spiro"
       id="path-effect4273-2-1-9"
       is_visible="true" />
    <inkscape:path-effect
       effect="spiro"
       id="path-effect4277-7-8-5-6"
       is_visible="true" />
    <inkscape:path-effect
       effect="spiro"
       id="path-effect4273-2-1-9-4"
       is_visible="true" />
    <inkscape:path-effect
       effect="spiro"
       id="path-effect4273-2-4"
       is_visible="true" />
    <inkscape:path-effect
       effect="spiro"
       id="path-effect4273-2-1-2"
       is_visible="true" />
    <inkscape:path-effect
       effect="spiro"
       id="path-effect4273-2-1-2-6"
       is_visible="true" />
    <inkscape:path-effect
       effect="spiro"
       id="path-effect4273-6-1"
       is_visible="true" />
    <inkscape:path-effect
       effect="spiro"
       id="path-effect4277-9-3"
       is_visible="true" />
    <inkscape:path-effect
       effect="spiro"
       id="path-effect4277-9-3-1"
       is_visible="true" />
    <inkscape:path-effect
       effect="spiro"
       id="path-effect4273-6-1-1"
       is_visible="true" />
    <inkscape:path-effect
       effect="spiro"
       id="path-effect4277-9-3-10"
       is_visible="true" />
    <inkscape:path-effect
       effect="spiro"
       id="path-effect4273-6-1-5"
       is_visible="true" />
    <inkscape:path-effect
       effect="spiro"
       id="path-effect4277-9-3-9"
       is_visible="true" />
    <inkscape:path-effect
       effect="spiro"
       id="path-effect4273-63"
       is_visible="true" />
    <inkscape:path-effect
       effect="spiro"
       id="path-effect4277-6"
       is_visible="true" />
    <inkscape:path-effect
       effect="spiro"
       id="path-effect4273-4"
       is_visible="true" />
    <inkscape:path-effect
       effect="spiro"
       id="path-effect4277-5"
       is_visible="true" />
    <inkscape:path-effect
       effect="spiro"
       id="path-effect4277-5-8"
       is_visible="true" />
    <inkscape:path-effect
       effect="spiro"
       id="path-effect4277-5-7"
       is_visible="true" />
    <inkscape:path-effect
       effect="spiro"
       id="path-effect4277-5-9"
       is_visible="true" />
    <inkscape:path-effect
       effect="spiro"
       id="path-effect4277-5-6"
       is_visible="true" />
    <inkscape:path-effect
       effect="spiro"
       id="path-effect4277-5-1"
       is_visible="true" />
    <inkscape:path-effect
       effect="spiro"
       id="path-effect4277-5-93"
       is_visible="true" />
    <inkscape:path-effect
       effect="spiro"
       id="path-effect4277-5-11"
       is_visible="true" />
    <inkscape:path-effect
       effect="spiro"
       id="path-effect4277-5-2"
       is_visible="true" />
    <inkscape:path-effect
       effect="spiro"
       id="path-effect4142-8-7"
       is_visible="true" />
    <inkscape:path-effect
       effect="spiro"
       id="path-effect4142-8-7-6"
       is_visible="true" />
    <inkscape:path-effect
       effect="spiro"
       id="path-effect4142-8-7-3"
       is_visible="true" />
    <inkscape:path-effect
       effect="spiro"
       id="path-effect4142-8-7-9"
       is_visible="true" />
    <inkscape:path-effect
       effect="spiro"
       id="path-effect4142-8-7-9-4"
       is_visible="true" />
  </defs>
  <sodipodi:namedview
     inkscape:window-height="1051"
     inkscape:window-width="1920"
     inkscape:pageshadow="2"
     inkscape:pageopacity="0.0"
     borderopacity="1.0"
     bordercolor="#666666"
     pagecolor="#ffffff"
     id="base"
     showgrid="true"
     showguides="true"
     inkscape:guide-bbox="true"
     inkscape:zoom="0.32102648"
     inkscape:cx="1837.1583"
     inkscape:cy="-1645.8743"
     inkscape:window-x="0"
     inkscape:window-y="0"
     inkscape:current-layer="layer1"
     inkscape:window-maximized="1">
    <sodipodi:guide
       orientation="horizontal"
       position="800,600"
       id="guide5596"
       inkscape:locked="false" />
    <inkscape:grid
       type="xygrid"
       id="grid3769"
       empspacing="5"
       visible="true"
       enabled="true"
       snapvisiblegridlinesonly="true" />
    <sodipodi:guide
       orientation="0,1"
       position="2480,0"
       id="guide4210"
       inkscape:locked="false" />
    <sodipodi:guide
       orientation="0.0059522755,-0.99998229"
       position="1920,2000"
       id="guide4365"
       inkscape:locked="false" />
    <sodipodi:guide
       orientation="0,1"
       position="1440,0"
       id="guide4367"
       inkscape:locked="false" />
    <sodipodi:guide
       position="3460,1420"
       orientation="0,1"
       id="guide4910"
       inkscape:locked="false" />
  </sodipodi:namedview>
  <metadata
     id="metadata5594">
    <rdf:RDF>
      <cc:Work
         rdf:about="">
        <dc:format>image/svg+xml</dc:format>
        <dc:type
           rdf:resource="http://purl.org/dc/dcmitype/StillImage" />
        <dc:title />
      </cc:Work>
    </rdf:RDF>
  </metadata>
  <g
     inkscape:label="Layer 1"
     inkscape:groupmode="layer"
     id="layer1"
     transform="translate(0,1000)">
    <path
       style="fill:none;fill-rule:evenodd;stroke:#000000;stroke-width:140;stroke-linecap:round;stroke-linejoin:round;stroke-miterlimit:4;stroke-dasharray:none;stroke-opacity:1"
       d="M 446.18603,725.46615 427.65685,-76.255935 c -1.94304,-84.071525 -2.24631,-169.324745 19.22796,-250.630665 21.47428,-81.30592 64.96633,-157.38262 127.81774,-213.25298 62.8514,-55.87037 143.46443,-90.47815 226.80516,-101.70847 83.34073,-11.23032 168.61737,-0.005 249.27369,23.79368 52.5606,15.50836 104.4974,36.80637 146.4563,72.05648 20.9795,17.62506 39.2538,38.657 52.5452,62.61781 13.2913,23.9608 21.5111,50.89887 22.4524,78.28307 1.2248,35.63087 -9.935,71.08688 -28.4924,101.52833 -18.5574,30.44145 -44.2613,56.0931 -72.7515,77.52591 -56.9805,42.86561 -124.4446,69.05425 -187.07027,103.14625 -21.28901,11.58926 -42.44002,24.429439 -58.37569,42.693817 -7.96783,9.132189 -14.53637,19.576414 -18.58065,31.001257 -4.04429,11.424843 -5.50622,23.854045 -3.45425,35.798612 3.29019,19.1522465 15.42804,35.967551 30.58259,48.13198 15.15456,12.16443 33.21013,20.148253 51.4401,26.878944 55.01157,20.310846 113.22067,30.326657 169.52817,46.7055 56.3076,16.37883 112.4238,40.28349 152.9874,82.63208 41.6375,43.4698 63.5169,104.29286 62.9223,164.48383 -0.5946,60.19097 -22.8785,119.35043 -59.09,167.43402 -36.2115,48.0836 -85.8692,85.31095 -140.6368,110.28726 -54.7676,24.97632 -114.5499,37.99006 -174.6024,42.11412 -93.31786,6.40854 -188.04109,-8.57955 -274.8218,-43.48515"
       id="path4138-3-8-6-7"
       inkscape:connector-curvature="0"
       sodipodi:nodetypes="csaascsssc"
       inkscape:path-effect="#path-effect4142-8-7"
       inkscape:original-d="M 446.18603,725.46615 427.65685,-76.255935 c -5.52646,-239.119085 347.96776,-548.698485 623.12455,-541.798435 102.3791,2.56734 221.0012,110.54706 221.4539,212.95736 0.5944,134.478 -199.9409,284.84483 -288.31417,282.20049 -182.61501,-5.46428 -106.73079,-55.729 -80.41059,109.493686 20.2602,91.317514 -40.1435,101.675873 82.02269,75.010924 118.98777,-25.971202 302.23757,44.9613 322.51557,129.33758 23.2227,96.62901 -219.4544,452.62294 -311.4069,484.31923 -92.89771,32.0221 -113.88655,37.87924 -274.8218,-43.48515" />
    <path
       style="color:#000000;font-style:normal;font-variant:normal;font-weight:normal;font-stretch:normal;font-size:medium;line-height:normal;font-family:sans-serif;text-indent:0;text-align:start;text-decoration:none;text-decoration-line:none;text-decoration-style:solid;text-decoration-color:#000000;letter-spacing:normal;word-spacing:normal;text-transform:none;direction:ltr;block-progression:tb;writing-mode:lr-tb;baseline-shift:baseline;text-anchor:start;white-space:normal;clip-rule:nonzero;display:inline;overflow:visible;visibility:visible;opacity:1;isolation:auto;mix-blend-mode:normal;color-interpolation:sRGB;color-interpolation-filters:linearRGB;solid-color:#000000;solid-opacity:1;fill:#000000;fill-opacity:1;fill-rule:evenodd;stroke:none;stroke-width:140;stroke-linecap:round;stroke-linejoin:round;stroke-miterlimit:4;stroke-dasharray:none;stroke-dashoffset:0;stroke-opacity:1;color-rendering:auto;image-rendering:auto;shape-rendering:auto;text-rendering:auto;enable-background:accumulate"
       d="m 1023.5,1064.7832 c -23.73302,0.1873 -47.61568,1.7928 -71.54688,5.0176 -96.28269,12.9742 -189.62606,52.6836 -263.96289,118.7637 -74.44964,66.1804 -124.31006,154.2512 -148.99023,247.6953 -24.60087,93.1438 -23.49566,185.1269 -21.53125,270.123 l 18.5293,801.7227 a 70.007,70.007 0 1 0 139.96289,-3.2364 l -18.5293,-801.7207 c -1.92167,-83.1468 -1.42191,-161.6706 16.92578,-231.1386 18.26839,-69.1678 55.39136,-133.2502 106.64453,-178.8106 51.36602,-45.6607 119.24966,-75.166 189.64844,-84.6523 70.95551,-9.5614 146.56971,-0.137 220.11521,21.5586 47.881,14.1276 90.4294,32.6308 121.2383,58.5136 15.3089,12.8612 27.8417,27.6214 36.3594,42.9766 8.4342,15.2048 13.1922,31.756 13.707,46.7324 0.6685,19.4471 -5.8273,42.223 -18.3027,62.6875 -12.7012,20.835 -31.8529,40.5617 -55.0645,58.0235 -46.7142,35.1424 -110.5114,60.6174 -178.457,97.6054 -23.2582,12.6613 -52.2288,29.0136 -77.6523,58.1524 a 70.007,70.007 0 0 0 0,0 c -12.8204,14.6939 -24.2999,32.4119 -31.8223,53.6621 -7.60258,21.4772 -10.82039,45.611 -6.45705,71.0098 6.99655,40.7266 30.27055,70.4138 55.75395,90.8691 24.6608,19.795 49.9992,30.1983 71.0136,37.9571 63.0483,23.278 122.9878,33.3491 174.2207,48.2519 a 70.007,70.007 0 0 0 0,0 c 50.7449,14.7607 94.6283,35.276 121.9863,63.8379 27.5484,28.7607 43.899,72.6088 43.4766,115.3731 -0.4285,43.3698 -17.0946,88.9465 -45.0098,126.0136 -28.1561,37.3873 -68.3563,68.0005 -113.7656,88.709 -45.6223,20.8057 -97.1729,32.3167 -150.3516,35.9688 -82.6451,5.6756 -167.04866,-7.6803 -243.90427,-38.5938 a 70.007,70.007 0 1 0 -52.24414,129.8867 c 96.70581,38.8978 201.74951,55.5185 305.74021,48.377 66.9263,-4.5962 134.9387,-19.1128 198.8516,-48.2598 64.1259,-29.2441 123.2409,-73.0852 167.5078,-131.8652 44.5081,-59.1001 72.409,-131.8413 73.1699,-208.8535 0.7668,-77.6176 -26.6406,-155.4168 -82.3672,-213.5957 -53.7692,-56.1353 -122.1179,-83.4289 -183.9883,-101.4258 -61.382,-17.855 -117.859,-27.8146 -164.8339,-45.1582 -15.4456,-5.7027 -26.2189,-11.2689 -31.8672,-15.8027 l 0,0 c -3.0189,-2.4232 -4.4319,-4.6894 -5.0469,-5.5918 0.041,-0.1649 0.019,-0.1967 0.088,-0.3926 0.5661,-1.5993 2.2234,-4.7679 5.3379,-8.3379 6.4478,-7.39 19.7798,-16.717 39.0996,-27.2343 57.3058,-31.196 128.4368,-58.1006 195.6836,-108.6895 33.7688,-25.4038 66.0258,-56.9793 90.4394,-97.0273 24.6394,-40.4183 40.4628,-88.5544 38.6817,-140.3692 -1.3678,-39.7919 -13.0509,-77.1171 -31.1992,-109.834 -18.0651,-32.5664 -42.0804,-59.8687 -68.7305,-82.2578 -53.1089,-44.6173 -114.4337,-68.7104 -171.6738,-85.5996 a 70.007,70.007 0 0 0 -0,0 c -65.8245,-19.4183 -135.6819,-31.6069 -206.8809,-31.0449 z"
       id="path4138-3-8-6-7-6"
       inkscape:connector-curvature="0" />
    <path
       style="fill:none;fill-rule:evenodd;stroke:#000000;stroke-width:180;stroke-linecap:round;stroke-linejoin:round;stroke-miterlimit:4;stroke-dasharray:none;stroke-opacity:1"
       d="m 2564.3659,933.6864 -18.5292,-801.72212 c -1.943,-84.071535 -2.2463,-169.324752 19.228,-250.63068 21.4742,-81.30592 64.9663,-157.38263 127.8177,-213.253 62.8514,-55.87036 143.4645,-90.47814 226.8052,-101.70846 83.3407,-11.23031 168.6174,-0.005 249.2737,23.7937 52.5606,15.50836 104.4974,36.80637 146.4563,72.05648 20.9795,17.62506 39.2538,38.657 52.5452,62.61781 13.2913,23.9608 21.5111,50.89887 22.4524,78.28307 1.2248,35.63087 -9.935,71.08688 -28.4924,101.528337 -18.5574,30.441452 -44.2613,56.093103 -72.7515,77.525907 -56.9805,42.865608 -124.4446,69.054247 -187.0703,103.146246 -21.289,11.589262 -42.44,24.42944 -58.3757,42.69382 -7.9678,9.13219 -14.5364,19.57641 -18.5807,31.00126 -4.0442,11.42484 -5.5062,23.85404 -3.4542,35.79861 3.2902,19.15225 15.428,35.96755 30.5826,48.13198 15.1546,12.16443 33.2101,20.14825 51.4401,26.87894 55.0116,20.31084 113.2207,30.32665 169.5282,46.70549 56.3076,16.37884 112.4238,40.2835 152.9874,82.63209 41.6375,43.4698 63.5169,104.29286 62.9223,164.48383 -0.5946,60.19097 -22.8785,119.35041 -59.09,167.43401 -36.2116,48.0836 -85.8692,85.31094 -140.6368,110.28725 -54.7676,24.97632 -114.5499,37.99006 -174.6024,42.11413 C 3021.5039,889.89365 2926.7807,874.90558 2840,840"
       id="path4138-3-8-6-7-1"
       inkscape:connector-curvature="0"
       sodipodi:nodetypes="csaascsssc"
       inkscape:path-effect="#path-effect4142-8-7-9"
       inkscape:original-d="m 2564.3659,933.6864 -18.5292,-801.72212 c -5.5264,-239.11909 347.9678,-548.69849 623.1246,-541.79844 102.3791,2.56734 221.0012,110.54706 221.4539,212.95736 0.5944,134.478003 -199.9409,284.84483 -288.3142,282.20049 -182.615,-5.46428 -106.7308,-55.729 -80.4106,109.49369 20.2602,91.31751 -40.1435,101.67587 82.0227,75.01092 118.9878,-25.9712 302.2376,44.9613 322.5156,129.33758 C 3449.4514,495.7949 3206.7743,851.7888 3114.8218,883.4851 3021.9241,915.5072 3000.9352,921.3644 2840,840" />
    <path
       style="color:#000000;font-style:normal;font-variant:normal;font-weight:normal;font-stretch:normal;font-size:medium;line-height:normal;font-family:sans-serif;font-variant-ligatures:normal;font-variant-position:normal;font-variant-caps:normal;font-variant-numeric:normal;font-variant-alternates:normal;font-feature-settings:normal;text-indent:0;text-align:start;text-decoration:none;text-decoration-line:none;text-decoration-style:solid;text-decoration-color:#000000;letter-spacing:normal;word-spacing:normal;text-transform:none;writing-mode:lr-tb;direction:ltr;text-orientation:mixed;dominant-baseline:auto;baseline-shift:baseline;text-anchor:start;white-space:normal;shape-padding:0;clip-rule:nonzero;display:inline;overflow:visible;visibility:visible;opacity:1;isolation:auto;mix-blend-mode:normal;color-interpolation:sRGB;color-interpolation-filters:linearRGB;solid-color:#000000;solid-opacity:1;vector-effect:none;fill:#000000;fill-opacity:1;fill-rule:evenodd;stroke:none;stroke-width:180;stroke-linecap:round;stroke-linejoin:round;stroke-miterlimit:4;stroke-dasharray:none;stroke-dashoffset:0;stroke-opacity:1;color-rendering:auto;image-rendering:auto;shape-rendering:auto;text-rendering:auto;enable-background:accumulate"
       d="M 2788.6094 2631.9609 C 2786.3141 2631.9538 2784.0176 2631.9601 2781.7188 2631.9785 L 2781.7227 2631.9766 C 2757.2016 2632.1732 2732.4837 2633.8338 2707.668 2637.1777 C 2607.6875 2650.6503 2510.7062 2691.8173 2433.0879 2760.8145 C 2355.3245 2829.9406 2303.6449 2921.4394 2278.0488 3018.3516 C 2252.5546 3114.8776 2253.8909 3208.7827 2255.8613 3294.043 L 2274.3906 4095.7656 A 90.009 90.009 0 1 0 2454.3418 4091.6074 L 2435.8125 3289.8848 C 2433.897 3207.002 2434.6257 3130.4021 2452.0801 3064.3164 C 2469.4324 2998.6168 2504.7364 2937.9604 2552.6758 2895.3457 C 2600.7602 2852.6021 2665.0059 2824.5545 2731.707 2815.5664 C 2799.1254 2806.4817 2871.9808 2815.3912 2943.4961 2836.4883 C 2990.0383 2850.2213 3029.903 2867.927 3057.5254 2891.1328 C 3071.2141 2902.6328 3082.1059 2915.6016 3089.2598 2928.498 C 3096.3063 2941.2011 3100.0757 2954.7835 3100.4688 2966.2148 C 3100.9783 2981.0379 3095.8138 3000.1907 3085.0762 3017.8047 C 3074.0482 3035.895 3056.7699 3053.9286 3035.0664 3070.2559 C 2991.2855 3103.1917 2928.5359 3128.4619 2859.0703 3166.2773 C 2835.2495 3179.2449 2804.0446 3196.602 2775.9102 3228.8477 C 2761.7034 3245.1305 2748.8189 3264.9288 2740.3027 3288.9863 C 2731.6835 3313.3355 2727.9665 3340.8118 2732.9902 3370.0547 C 2741.0457 3416.9454 2767.5011 3450.3106 2795.9355 3473.1348 C 2823.3125 3495.1099 2850.7311 3506.2054 2872.541 3514.2578 C 2937.8855 3538.3836 2998.3205 3548.4701 3048.1035 3562.9512 C 3097.259 3577.2496 3137.6494 3596.799 3161.2344 3621.4219 C 3184.7573 3645.9799 3199.5295 3684.9745 3199.1562 3722.7598 C 3198.7753 3761.3235 3183.7127 3803.0218 3158.168 3836.9414 C 3132.3134 3871.2725 3094.8155 3899.9952 3052.0801 3919.4844 C 3009.0707 3939.0984 2959.8711 3950.1801 2908.6562 3953.6973 C 2829.0606 3959.1635 2747.6058 3946.2748 2673.5859 3916.502 A 90.009 90.009 0 1 0 2606.4141 4083.498 C 2705.9556 4123.5364 2813.9482 4140.6244 2920.9883 4133.2734 C 2989.8786 4128.5424 3060.2418 4113.5963 3126.7676 4083.2578 C 3193.5673 4052.7944 3255.3847 4007.0626 3301.9531 3945.2266 C 3348.8316 3882.979 3378.3381 3806.3573 3379.1465 3724.5391 C 3379.9624 3641.9425 3350.9747 3559.2917 3291.2227 3496.9102 C 3233.6804 3436.8358 3161.8386 3408.5744 3098.3789 3390.1152 C 3035.547 3371.8385 2979.5635 3361.8942 2934.8848 3345.3984 C 2929.171 3343.2888 2924.6357 3341.3211 2920.7227 3339.4922 C 2926.4938 3335.2936 2934.4227 3330.1995 2945.1328 3324.3691 C 3000.9187 3294.0006 3073.0973 3266.8932 3143.2773 3214.0977 C 3178.5543 3187.5593 3212.6827 3154.2908 3238.7695 3111.498 C 3265.1467 3068.2292 3282.3014 3016.4701 3280.3613 2960.0312 C 3278.8717 2916.6943 3266.2021 2876.4021 3246.666 2841.1836 C 3227.237 2806.1584 3201.5789 2777.0627 3173.3086 2753.3125 C 3117.014 2706.0188 3053.0088 2681.1293 2994.4316 2663.8457 A 90.009 90.009 0 0 0 2994.4219 2663.8457 C 2929.1785 2644.5988 2859.7639 2632.1817 2788.6094 2631.9609 z "
       transform="translate(0,-1000)"
       id="path4138-3-8-6-7-1-3" />
  </g>
</svg>
