<?xml version="1.0" encoding="UTF-8" standalone="no"?>
<!-- Created with Inkscape (http://www.inkscape.org/) -->

<svg
   xmlns:dc="http://purl.org/dc/elements/1.1/"
   xmlns:cc="http://creativecommons.org/ns#"
   xmlns:rdf="http://www.w3.org/1999/02/22-rdf-syntax-ns#"
   xmlns:svg="http://www.w3.org/2000/svg"
   xmlns="http://www.w3.org/2000/svg"
   xmlns:sodipodi="http://sodipodi.sourceforge.net/DTD/sodipodi-0.dtd"
   xmlns:inkscape="http://www.inkscape.org/namespaces/inkscape"
   width="2000"
   height="2048"
   id="svg2992"
   version="1.1"
   inkscape:version="0.91 r13725"
   sodipodi:docname="munnumaa.svg">
  <defs
     id="defs5498">
    <inkscape:path-effect
       effect="spiro"
       id="path-effect4162"
       is_visible="true" />
    <inkscape:path-effect
       effect="spiro"
       id="path-effect3006"
       is_visible="true" />
    <inkscape:path-effect
       effect="spiro"
       id="path-effect4141-37"
       is_visible="true" />
    <inkscape:path-effect
       effect="spiro"
       id="path-effect4141-37-3"
       is_visible="true" />
    <inkscape:path-effect
       effect="spiro"
       id="path-effect4141-37-3-0"
       is_visible="true" />
    <inkscape:path-effect
       effect="spiro"
       id="path-effect4141-37-3-0-9"
       is_visible="true" />
    <inkscape:path-effect
       effect="spiro"
       id="path-effect4141-37-3-0-9-1"
       is_visible="true" />
    <inkscape:path-effect
       effect="spiro"
       id="path-effect4141-37-3-0-9-8"
       is_visible="true" />
    <inkscape:path-effect
       effect="spiro"
       id="path-effect4141-37-3-0-9-8-9"
       is_visible="true" />
    <inkscape:path-effect
       effect="spiro"
       id="path-effect4141-37-3-0-9-5"
       is_visible="true" />
    <inkscape:path-effect
       effect="spiro"
       id="path-effect4141-37-3-0-9-84"
       is_visible="true" />
    <inkscape:path-effect
       effect="spiro"
       id="path-effect4141-37-3-0-9-84-7"
       is_visible="true" />
    <inkscape:path-effect
       effect="spiro"
       id="path-effect4141-37-3-0-9-4"
       is_visible="true" />
    <inkscape:path-effect
       effect="spiro"
       id="path-effect4141-37-3-0-9-3"
       is_visible="true" />
    <inkscape:path-effect
       effect="spiro"
       id="path-effect4141-37-3-0-9-3-7"
       is_visible="true" />
    <inkscape:path-effect
       effect="spiro"
       id="path-effect4141-37-3-0-9-3-3"
       is_visible="true" />
    <inkscape:path-effect
       effect="spiro"
       id="path-effect4141-37-3-0-9-3-3-2"
       is_visible="true" />
    <inkscape:path-effect
       effect="spiro"
       id="path-effect4141-37-3-0-9-3-1"
       is_visible="true" />
    <inkscape:path-effect
       effect="spiro"
       id="path-effect4141-37-3-0-9-3-1-7"
       is_visible="true" />
    <inkscape:path-effect
       effect="spiro"
       id="path-effect4141-37-3-0-9-3-36"
       is_visible="true" />
    <inkscape:path-effect
       effect="spiro"
       id="path-effect4141-37-3-0-9-3-5"
       is_visible="true" />
    <inkscape:path-effect
       effect="spiro"
       id="path-effect4141-37-3-0-9-3-367"
       is_visible="true" />
    <inkscape:path-effect
       effect="spiro"
       id="path-effect4141-37-3-0-9-3-367-3"
       is_visible="true" />
  </defs>
  <sodipodi:namedview
     inkscape:window-height="843"
     inkscape:window-width="1600"
     inkscape:pageshadow="2"
     inkscape:pageopacity="0.0"
     borderopacity="1.0"
     bordercolor="#666666"
     pagecolor="#ffffff"
     id="base"
     showgrid="true"
     showguides="true"
     inkscape:guide-bbox="true"
     inkscape:zoom="0.25"
     inkscape:cx="-2461.6383"
     inkscape:cy="557.84171"
     inkscape:window-x="1600"
     inkscape:window-y="0"
     inkscape:current-layer="layer1"
     inkscape:window-maximized="1">
    <sodipodi:guide
       orientation="horizontal"
       position="0,600"
       id="guide5596" />
    <inkscape:grid
       type="xygrid"
       id="grid3769"
       empspacing="3"
       visible="true"
       enabled="true"
       snapvisiblegridlinesonly="true"
       spacingx="4px"
       units="px"
       dotted="true"
       spacingy="4px" />
    <sodipodi:guide
       orientation="0,1"
       position="-1040,1600"
       id="guide2985" />
  </sodipodi:namedview>
  <metadata
     id="metadata5594">
    <rdf:RDF>
      <cc:Work
         rdf:about="">
        <dc:format>image/svg+xml</dc:format>
        <dc:type
           rdf:resource="http://purl.org/dc/dcmitype/StillImage" />
        <dc:title />
      </cc:Work>
    </rdf:RDF>
  </metadata>
  <g
     inkscape:label="Layer 1"
     inkscape:groupmode="layer"
     id="layer1"
     transform="translate(0,1048)">
    <path
       style="fill:none;fill-rule:evenodd;stroke:#000000;stroke-width:140;stroke-linecap:round;stroke-linejoin:round;stroke-miterlimit:4;stroke-dasharray:none;stroke-opacity:1"
       d="m 3747.3069,-566.49349 c 107.6495,22.19337 207.3348,81.29309 278.4621,165.0897 71.1272,83.79661 113.2458,191.75944 117.6545,301.584379 4.3518,108.4075293 -29.2203,219.995221 -101.7113,300.718141 -36.2455,40.36145 -81.7425,72.59948 -132.4046,91.99383 -50.662,19.39436 -106.4523,25.76453 -159.952,16.78876 -52.1449,-8.74847 -101.4131,-31.85511 -143.544,-63.80211 -42.1309,-31.94701 -77.285,-72.56084 -105.7267,-117.13316 -56.8835,-89.144649 -86.6745,-192.565633 -112.3627,-295.14542 -21.4732,-85.74835 -41.2158,-173.65671 -86.3731,-249.64811 -22.5787,-37.9957 -51.5201,-72.61331 -87.2333,-98.65249 -35.7132,-26.03919 -78.4319,-43.22177 -122.5689,-45.54442 -49.3289,-2.59586 -98.7827,13.55735 -139.5343,41.47487 -40.7516,27.91753 -73.072,67.12674 -96.5105,110.60911 -46.8771,86.96475 -58.3288,188.15694 -65.7432,286.6727 -7.0808,94.083189 -11.8408,190.831228 -50.2794,276.99538 -19.2192,43.08208 -46.9837,82.89778 -83.83,112.35625 -36.8462,29.45847 -83.1445,48.05834 -130.3185,47.80757 -47.1344,-0.25056 -93.1529,-19.28271 -129.8781,-48.82894 -36.7251,-29.54623 -64.5674,-69.12215 -84.5572,-111.80848 -39.9797,-85.372658 -49.0994,-181.301218 -65.7724,-274.08524 -18.2877,-101.76997 -47.3674,-204.10761 -107.5099,-288.21739 -30.0712,-42.05488 -67.7799,-79.01404 -112.1478,-105.55435 -44.3678,-26.54031 -95.5283,-42.40609 -147.2282,-42.49967 -50.6996,-0.0918 -100.9907,14.99693 -144.6644,40.74713 -43.6736,25.7502 -80.8224,61.92829 -109.9512,103.42491 -58.2577,82.99324 -83.7572,185.07128 -92.4271,286.09934 -7.278,84.808903 -3.6189,171.069322 -22.6739,254.02973 -9.5275,41.4802 -24.8597,81.99225 -48.7415,117.22061 C 1435.8974,281.42751 1403.115,311.22505 1364,328 c -56.7444,24.33556 -123.7544,19.32798 -179.6278,-6.94584 -55.8734,-26.27382 -101.0163,-72.307 -132.7997,-125.24057 C 988.0056,89.946454 976.9491,-38.007188 961.87961,-160.56945 945.63272,-292.70771 922.97068,-424.05701 894,-554 890.82653,-362.4273 849.46995,-171.56323 773.06159,4.1408707 744.43772,69.962606 710.6931,134.0706 666.12561,190.33396 621.55812,246.59731 565.63586,294.95245 500,324 397.44753,369.38522 273.58192,363.2684 176,308"
       id="path4139-9-6-5-3-6"
       inkscape:path-effect="#path-effect4141-37-3-0-9-3"
       inkscape:original-d="m 3747.3069,-566.49349 c -15.5207,188.15091 402.481,262.73278 396.1166,466.674079 -5.9089,189.345681 -204.9517,420.536321 -394.0679,409.500731 -198.9468,-11.60925 -296.2274,-209.31653 -361.6334,-476.08069 -43.6319,-157.31584 -131.9515,-397.31706 -296.1753,-393.84502 -177.4689,3.75206 -205.513,289.62453 -301.788,438.75668 -92.3673,143.079145 -94.1415,434.7284 -264.4279,437.1592 -172.3838,2.46073 -177.8205,-296.017603 -280.2077,-434.72266 -112.8455,-152.87291 -176.8847,-438.21792 -366.8859,-436.27141 -184.2523,1.88762 -256.1054,270.01264 -347.0427,430.27138 C 1451.7512,14.952001 1522.7183,301.15458 1364,328 1156.0297,363.17585 1049.7591,31.175635 961.87961,-160.56945 906.43263,-281.54967 894,-554 894,-554 894,-554 857.57489,-166.4349 773.06159,4.1408707 710.82464,129.7556 628.71307,268.45322 500,324 400.71894,366.84524 176,308 176,308"
       inkscape:connector-curvature="0"
       sodipodi:nodetypes="caacaaaaaaaacaac" />
    <path
       style="color:#000000;font-style:normal;font-variant:normal;font-weight:normal;font-stretch:normal;font-size:medium;line-height:normal;font-family:sans-serif;text-indent:0;text-align:start;text-decoration:none;text-decoration-line:none;text-decoration-style:solid;text-decoration-color:#000000;letter-spacing:normal;word-spacing:normal;text-transform:none;direction:ltr;block-progression:tb;writing-mode:lr-tb;baseline-shift:baseline;text-anchor:start;white-space:normal;clip-rule:nonzero;display:inline;overflow:visible;visibility:visible;opacity:1;isolation:auto;mix-blend-mode:normal;color-interpolation:sRGB;color-interpolation-filters:linearRGB;solid-color:#000000;solid-opacity:1;fill:#000000;fill-opacity:1;fill-rule:evenodd;stroke:none;stroke-width:140;stroke-linecap:round;stroke-linejoin:round;stroke-miterlimit:4;stroke-dasharray:none;stroke-dashoffset:0;stroke-opacity:1;color-rendering:auto;image-rendering:auto;shape-rendering:auto;text-rendering:auto;enable-background:accumulate"
       d="m 3459.5586,707.31055 a 70.007,70.007 0 0 0 -14.3867,138.7539 c 91.9501,18.95673 178.4763,70.25423 239.2304,141.83008 60.7542,71.57587 97.3124,165.28557 101.0782,259.09377 3.6958,92.0668 -25.6072,186.2843 -83.8496,251.1406 -29.1694,32.4818 -65.8077,58.2533 -105.3497,73.3906 -39.4169,15.0896 -83.0056,19.8946 -123.3437,13.127 -39.405,-6.6111 -78.6861,-24.6543 -112.8301,-50.5449 -34.3094,-26.0161 -64.2694,-60.2319 -89.0136,-99.0098 -49.6389,-77.7912 -78.1853,-173.5326 -103.4688,-274.4961 -21.1906,-84.62 -41.4082,-179.73241 -94.0996,-268.40234 -26.4599,-44.52695 -61.1393,-86.62235 -106.1699,-119.45508 -45.3399,-33.05819 -100.2687,-55.73655 -160.1309,-58.88672 -66.9989,-3.52571 -130.6246,17.9055 -182.7734,53.63086 -51.7256,35.4354 -90.7144,83.47229 -118.5664,135.14258 -55.3794,102.7379 -66.3778,214.3173 -73.9278,314.6348 -7.1741,95.3232 -13.0324,183.4051 -44.4043,253.7285 a 70.007,70.007 0 0 0 0,0 c -15.5377,34.8297 -37.4012,65.2413 -63.6152,86.1993 -25.7327,20.5732 -57.7029,32.6341 -86.2344,32.4824 -28.5342,-0.1517 -60.459,-12.5224 -86.3711,-33.3692 -26.4017,-21.2408 -48.5929,-51.8277 -65.0429,-86.955 -33.1726,-70.8368 -42.897,-160.1022 -60.2696,-256.7793 -19.1275,-106.4438 -49.9061,-219.27432 -119.4648,-316.55278 -34.8891,-48.79276 -79.2122,-92.64268 -133.1543,-124.91015 -54.1651,-32.40092 -117.0997,-52.30838 -183.0371,-52.42774 -64.6719,-0.11709 -126.7233,18.83238 -180.3438,50.44727 -53.4236,31.49885 -97.4753,74.76384 -131.6914,123.50781 -68.2465,97.22321 -95.5507,211.65439 -104.8769,320.33009 -7.7947,90.829 -4.9069,173.6088 -21.1543,244.3457 -8.0857,35.2028 -20.7555,67.4967 -38.459,93.6113 -17.4741,25.7763 -40.8889,46.2224 -65.4277,56.7461 -35.2009,15.0964 -82.78099,12.6028 -122.25004,-5.957 -40.52001,-19.0541 -76.62913,-54.7196 -102.57422,-97.9297 -52.59718,-87.5978 -64.94695,-204.5876 -80.23047,-328.8906 -16.52338,-134.387 -39.56951,-267.96682 -69.0332,-400.12112 a 70.007,70.007 0 0 0 -138.3125,14.07226 c -3.01939,182.27237 -42.44168,364.21066 -115.14063,531.38476 -27.22909,62.6144 -58.43906,121.1873 -97.61523,170.6445 -38.99192,49.2246 -86.78069,89.7517 -139.58203,113.1192 -81.34915,36.0015 -183.76756143,30.9448 -261.173833,-12.8965 a 70.007,70.007 0 1 0 -68.996097,121.8164 c 117.757577,66.6955 263.07038,73.8724 386.82617,19.1035 78.47038,-34.7275 142.52491,-90.9108 192.66797,-154.2129 49.95881,-63.0695 86.23917,-132.7131 116.25782,-201.7422 22.37463,-51.4513 41.76824,-104.1502 58.33007,-157.7128 13.46352,114.5219 26.69589,242.1206 95.97657,357.5039 37.62176,62.6569 91.79666,119.059 163.02343,152.5527 72.27773,33.9877 158.71792,41.5084 237.00582,7.9336 53.6912,-23.0261 95.8412,-62.1749 126.1309,-106.8555 30.0601,-44.342 48.0541,-93.0725 59.0234,-140.8301 21.8626,-95.1839 17.432,-184.926 24.1934,-263.7148 8.0136,-93.3805 31.7096,-183.1039 79.9785,-251.86719 24.0415,-34.24927 54.2854,-63.34025 88.209,-83.3418 33.7269,-19.88553 72.259,-31.11338 108.9863,-31.04688 37.4624,0.0678 76.8494,11.89257 111.4199,32.57227 34.7938,20.81315 65.8874,50.88025 91.1407,86.19727 50.7262,70.94113 78.1068,162.78653 95.5547,259.88283 15.9734,88.8908 24.4885,191.4819 71.2754,291.3906 23.5296,50.2452 57.0237,98.8104 104.0722,136.6621 47.5383,38.2456 107.6502,63.9376 173.3848,64.2871 65.8166,0.3499 126.4426,-24.7891 174.4023,-63.1328 l 0,0 c 47.4787,-37.9589 81.1443,-87.1792 104.0449,-138.5137 45.5054,-102.005 49.1669,-207.4167 56.1543,-300.2598 7.2788,-96.7141 19.1858,-187.5193 57.5606,-258.71091 19.0249,-35.29445 44.6755,-65.67653 74.4531,-86.07617 29.3544,-20.10971 64.636,-30.98632 96.2949,-29.32032 28.4119,1.49514 58.9194,13.18296 85.0059,32.20313 26.3957,19.24565 49.5993,46.38711 68.2969,77.85156 37.6232,63.31291 56.8907,144.01581 78.6465,230.89261 26.0929,104.196 57.1277,215.2969 121.2558,315.7949 32.1392,50.3667 72.491,97.378 122.4434,135.2558 50.1178,38.0034 109.371,66.1747 174.2558,77.0606 66.6614,11.184 134.6535,3.248 196.5606,-20.4512 61.7823,-23.6513 116.1393,-62.3544 159.4609,-110.5957 86.7396,-96.5895 124.5801,-225.5486 119.5723,-350.2969 -5.0517,-125.8415 -52.7302,-248.05875 -134.2305,-344.07612 -81.5003,-96.01739 -194.3464,-162.91765 -317.6953,-188.34766 a 70.007,70.007 0 0 0 -13.8828,-1.63867 z"
       id="path4139-9-6-5-3-6-7"
       inkscape:connector-curvature="0" />
    <path
       style="color:#000000;font-style:normal;font-variant:normal;font-weight:normal;font-stretch:normal;font-size:medium;line-height:normal;font-family:sans-serif;text-indent:0;text-align:start;text-decoration:none;text-decoration-line:none;text-decoration-style:solid;text-decoration-color:#000000;letter-spacing:normal;word-spacing:normal;text-transform:none;direction:ltr;block-progression:tb;writing-mode:lr-tb;baseline-shift:baseline;text-anchor:start;white-space:normal;clip-rule:nonzero;display:inline;overflow:visible;visibility:visible;opacity:1;isolation:auto;mix-blend-mode:normal;color-interpolation:sRGB;color-interpolation-filters:linearRGB;solid-color:#000000;solid-opacity:1;fill:#000000;fill-opacity:1;fill-rule:evenodd;stroke:none;stroke-width:200;stroke-linecap:round;stroke-linejoin:round;stroke-miterlimit:4;stroke-dasharray:none;stroke-dashoffset:0;stroke-opacity:1;color-rendering:auto;image-rendering:auto;shape-rendering:auto;text-rendering:auto;enable-background:accumulate"
       d="m 8643.668,-762.77344 a 100.01,100.01 0 0 0 -20.5528,198.22071 c 85.2218,17.56959 166.1054,65.52286 222.4141,131.86132 56.3085,66.33839 90.4844,153.93885 93.9746,240.88282 3.4147,85.06366 -24.0574,171.836186 -76.1934,229.892574 -26.1367,29.10474 -58.9777,52.105041 -93.7539,65.417966 -34.5976,13.24463 -72.9568,17.37987 -107.6543,11.5586 -33.9449,-5.69502 -68.9489,-21.568163 -99.6699,-44.863284 -30.9574,-23.474358 -58.688,-54.94766 -81.8476,-91.242188 -46.5341,-72.925545 -74.5482,-165.375638 -99.6582,-265.646488 -21.0695,-84.13631 -41.4899,-182.3378 -97.4102,-276.4414 -28.1232,-47.32606 -65.2613,-92.6249 -114.2852,-128.36914 -49.4656,-36.06636 -109.627,-61.0987 -176.2285,-64.60352 -74.5717,-3.92422 -144.2733,19.76634 -201.3066,58.83789 -56.4287,38.65734 -98.2759,90.47879 -128.0195,145.6582 -59.0233,109.49782 -69.8275,225.52756 -77.4356,326.61719 -7.2141,95.85474 -13.5434,180.225334 -41.8867,243.759768 -13.96,31.292891 -33.2938,57.675284 -54.9512,74.990234 -20.9697,16.765278 -46.798,26.025218 -67.3398,25.916018 -20.5626,-0.10931 -46.4487,-9.62755 -67.7266,-26.746096 C 7332.1594,75.246483 7312.39,48.512888 7297.457,16.625 c -30.2552,-64.606972 -40.2377,-151.01765 -57.9101,-249.36328 -19.4875,-108.44669 -50.9956,-225.77314 -124.5899,-328.69531 -36.9539,-51.68041 -84.1109,-98.48506 -142.1562,-133.20703 -58.3639,-34.91262 -126.3436,-56.55125 -198.3828,-56.68165 -70.66,-0.12794 -137.7514,20.47716 -195.6348,54.60547 -57.6021,33.96256 -104.6134,80.2633 -141.0098,132.11328 -72.5274,103.32178 -100.6054,223.04871 -110.2129,335.00196 -8.016,93.40908 -5.4577,174.69509 -20.5019,240.193357 -7.4677,32.512475 -18.997,61.285276 -34.0527,83.494141 -14.728,21.725282 -34.1279,38.164972 -52.42,46.009762 -25.9679,11.13669 -65.2215,9.71874 -97.6601,-5.53515 -33.9399,-15.95986 -66.1782,-47.181719 -89.6211,-86.224612 -47.8959,-79.767935 -60.7966,-192.060308 -76.1719,-317.109378 -16.6419,-135.35064 -39.8543,-269.88427 -69.5293,-402.98633 a 100.01,100.01 0 0 0 -197.5898,20.10352 c -2.9534,178.28653 -41.5471,356.39957 -112.6563,519.91797 -26.6314,61.239851 -56.7535,117.44025 -93.6191,163.980468 -36.6024,46.207965 -80.9061,83.379192 -128.2071,104.312502 -72.262,31.97999 -165.4885,27.37564 -234.248,-11.56836 a 100.01,100.01 0 1 0 -98.5664,174.02734 c 126.4043,71.5928 280.909,79.22209 413.752,20.43164 83.9708,-37.16179 151.5123,-96.70079 204.0449,-163.01953 52.2694,-65.986495 89.6355,-138.002629 120.2519,-208.406249 6.0194,-13.841823 11.7688,-27.794057 17.3789,-41.800781 13.4021,80.750499 35.6418,165.041736 83.6953,245.07227 40.124,66.82425 98.1717,127.67003 175.9786,164.25781 79.3081,37.29376 174.0748,45.8899 261.5957,8.35547 59.9379,-25.70511 106.1028,-68.86034 139.1386,-117.5918 32.7079,-48.24786 51.8424,-100.49934 63.4297,-150.947266 23.0657,-100.421709 18.306,-191.656904 24.8457,-267.865234 l 0,-0.002 c 7.7325,-90.10214 30.653,-174.53106 74.6407,-237.19532 21.8611,-31.14325 49.1494,-57.19848 78.8945,-74.73632 29.464,-17.37209 62.9541,-26.94433 93.6933,-26.88868 31.3606,0.0568 65.7026,10.14841 96.0743,28.31641 30.6904,18.35865 58.9501,45.47299 82.1386,77.90234 46.6908,65.29739 73.3418,152.64504 90.4297,247.73829 15.6736,87.2224 23.9306,192.670247 73.6348,298.80859 25.0466,53.48477 60.9626,105.90324 112.4355,147.31445 52.1725,41.97391 118.3231,70.5203 192.0293,70.91211 73.8062,0.39234 140.5742,-27.54755 193.2969,-69.69922 52.0353,-41.60199 88.2306,-94.85139 112.709,-149.72265 48.5339,-108.7938832 51.7244,-217.91883 58.6719,-310.23047 7.2207,-95.94189 19.3198,-182.29683 54.0507,-246.72852 17.1334,-31.78533 39.9274,-58.38282 65.002,-75.56054 24.4699,-16.76349 53.6756,-25.37883 77.7617,-24.11133 21.6725,1.14048 46.9494,10.4743 68.9102,26.48633 22.4025,16.33411 43.1474,40.26825 60.1816,68.93359 34.3943,57.87919 53.4571,135.49508 75.334,222.85547 26.2664,104.88873 57.8354,219.280782 125.0684,324.644529 33.7237,52.850121 76.301,102.603771 129.6054,143.023441 53.5408,40.59888 117.0751,70.94026 187.4199,82.74218 72.302,12.13027 145.5217,3.52457 212.2481,-22.01953 66.548,-25.47577 124.7024,-66.95215 171.0566,-118.57031 92.8461,-103.389441 132.5174,-239.791569 127.2286,-371.54297 -5.3273,-132.70589 -55.3901,-261.03032 -141.336,-362.28515 -85.9459,-101.25476 -204.4325,-171.50122 -334.5098,-198.31836 a 100.01,100.01 0 0 0 -19.83,-2.33985 z"
       id="path4139-9-6-5-3-6-6"
       inkscape:connector-curvature="0" />
    <path
       style="fill:none;fill-rule:evenodd;stroke:#000000;stroke-width:70;stroke-linecap:round;stroke-linejoin:round;stroke-miterlimit:4;stroke-dasharray:none;stroke-opacity:1"
       d="m -756.6931,-570.49351 c 103.86455,29.97326 198.50251,91.16478 268.45813,173.58111 69.95562,82.41633 114.95831,185.73867 127.65846,293.09297 13.77017,116.399179 -12.07537,239.93217 -84.47192,332.11203 -36.19828,46.08993 -83.5255,83.69701 -137.45432,106.63779 -53.92882,22.94077 -114.42804,30.93599 -172.14165,20.75091 -55.77231,-9.84248 -107.97399,-36.3494 -151.52984,-72.54764 -43.55585,-36.19825 -78.70368,-81.85726 -106.23816,-131.34744 -55.0689,-98.980365 -79.6432,-211.537594 -103.8654,-322.18561 -18.9533,-86.57922 -38.791,-174.86679 -84.6216,-250.72681 -22.9153,-37.93001 -52.3147,-72.32342 -88.3594,-98.10273 -36.0448,-25.7793 -78.9411,-42.68061 -123.1943,-45.01548 -49.5147,-2.61247 -99.2033,13.19083 -140.3848,40.80631 -41.1815,27.61548 -74.0892,66.59639 -97.9523,110.05991 -47.7263,86.92705 -59.2434,188.81268 -63.4509,287.89046 -4.3705,102.915548 -2.3206,208.712783 -38.5847,305.12663 -18.132,48.20692 -46.0783,93.39169 -85.0008,127.12182 -38.9224,33.73014 -89.3401,55.34761 -140.8424,54.91075 -51.2856,-0.43502 -101.0829,-22.68099 -139.6123,-56.53188 -38.5294,-33.8509 -66.3547,-78.68512 -85.2081,-126.38153 -37.7068,-95.392826 -40.4695,-200.325018 -55.3873,-301.80925 -15.0954,-102.6923 -44.2136,-205.83659 -105.1628,-289.85311 -30.4746,-42.00827 -68.7514,-78.69474 -113.5617,-104.87554 -44.8102,-26.18081 -96.2635,-41.61583 -148.1614,-41.54276 -50.8007,0.0715 -101.1838,15.00882 -145.0877,40.56588 -43.904,25.55706 -81.4041,61.51816 -110.8213,102.93491 -58.8343,82.8335 -84.572,185.38116 -91.1337,286.77059 -6.0635,93.691114 3.1357,188.65025 -13.678,281.01957 -8.4069,46.18466 -23.4969,91.61424 -48.8038,131.15225 -25.307,39.53801 -61.3135,72.98557 -104.7129,90.87938 -30.4356,12.54876 -63.943,17.23102 -96.7575,14.58397 -32.8145,-2.64704 -64.9163,-12.53753 -94.0551,-27.85827 -58.2777,-30.64149 -103.7382,-82.39845 -134.3515,-140.69098 -61.2266,-116.58506 -64.7034,-253.491103 -76.9563,-384.60417 -12.3954,-132.63707 -35.1129,-264.3082 -67.8796,-393.43055 -16.7193,190.13269 -57.457,378.14061 -120.9384,558.1408699 -26.184,74.2442581 -56.5131,147.6884901 -100.2105,213.1740001 -43.6973,65.48552 -101.6768,123.03948 -172.8511,156.68513 -101.7991,48.12268 -227.4374,41.91832 -324,-16"
       id="path4139-9-6-5-3-6-5"
       inkscape:path-effect="#path-effect4141-37-3-0-9-3-367"
       inkscape:original-d="m -756.6931,-570.49351 c -15.5207,188.15091 396.6357,262.63415 396.11659,466.67408 -0.51335,201.777669 -192.57645,470.25679 -394.06789,459.50073 -212.49354,-11.34338 -296.2274,-259.31653 -361.6334,-526.08069 -43.6319,-157.31584 -131.9515,-397.31706 -296.1753,-393.84502 -177.4689,3.75206 -209.0214,287.41721 -301.788,438.75668 -96.5593,157.527014 -79.6786,484.67884 -264.4279,487.1592 -186.6119,2.50537 -173.0369,-331.93297 -280.2077,-484.72266 -109.1131,-155.55882 -176.8847,-438.21792 -366.8859,-436.27141 -184.2523,1.88762 -258.7345,268.54901 -347.0427,430.27138 -84.6854,155.087813 7.2443,474.85779 -167.1947,503.0512 -221.173,35.74671 -313.6166,-332.74817 -402.1204,-538.56945 -52.571,-122.25738 -67.8796,-393.43055 -67.8796,-393.43055 0,0 -42.5041,384.68581 -120.9384,558.1408699 C -3794.079,139.77442 -3865.5304,304.34606 -4004,369.99998 c -97.7054,46.326 -324,-16 -324,-16"
       inkscape:connector-curvature="0"
       sodipodi:nodetypes="caacaaaaaaaacaac" />
    <path
       style="color:#000000;font-style:normal;font-variant:normal;font-weight:normal;font-stretch:normal;font-size:medium;line-height:normal;font-family:sans-serif;text-indent:0;text-align:start;text-decoration:none;text-decoration-line:none;text-decoration-style:solid;text-decoration-color:#000000;letter-spacing:normal;word-spacing:normal;text-transform:none;direction:ltr;block-progression:tb;writing-mode:lr-tb;baseline-shift:baseline;text-anchor:start;white-space:normal;clip-rule:nonzero;display:inline;overflow:visible;visibility:visible;opacity:1;isolation:auto;mix-blend-mode:normal;color-interpolation:sRGB;color-interpolation-filters:linearRGB;solid-color:#000000;solid-opacity:1;fill:#000000;fill-opacity:1;fill-rule:evenodd;stroke:none;stroke-width:70;stroke-linecap:round;stroke-linejoin:round;stroke-miterlimit:4;stroke-dasharray:none;stroke-dashoffset:0;stroke-opacity:1;color-rendering:auto;image-rendering:auto;shape-rendering:auto;text-rendering:auto;enable-background:accumulate"
       d="m -861.33984,626.36523 a 35.0035,35.0035 0 0 0 -9.05664,68.76954 c 97.11377,28.02511 186.06973,85.54194 251.47851,162.60156 65.40879,77.0596 107.7093,174.17997 119.58399,274.55667 12.83047,108.456 -11.72635,222.9645 -77.24024,306.3808 -32.75745,41.7089 -75.59139,75.6142 -123.6289,96.0489 -47.94784,20.3965 -101.85532,27.4049 -152.35938,18.4921 -48.86215,-8.623 -95.79708,-32.2177 -135.24023,-64.998 -39.54757,-32.8671 -72.19667,-75.0229 -98.02537,-121.4473 -51.7389,-92.995 -76.0348,-201.9933 -100.2598,-312.6543 -18.9814,-86.70743 -39.1193,-179.01841 -88.8535,-261.33981 -24.9243,-41.25539 -57.256,-79.36311 -97.957,-108.47266 -40.8445,-29.21202 -89.7717,-48.75764 -141.711,-51.49804 -58.1611,-3.06867 -114.8549,15.25894 -161.7226,46.6875 -46.6719,31.29725 -82.9913,74.66132 -109.1387,122.28515 -52.1356,94.95829 -63.4591,202.48336 -67.7383,303.24996 -4.4333,104.3949 -3.2361,206.1789 -36.3769,294.2891 -16.4973,43.8607 -41.6643,83.965 -75.1621,112.9941 -33.2111,28.7807 -76.1093,46.7136 -117.625,46.3614 -41.3577,-0.3508 -83.7988,-18.8264 -116.8067,-47.8262 -33.2946,-29.2518 -58.4777,-69.2321 -75.7598,-112.9531 -34.6961,-87.7763 -37.9763,-189.7297 -53.3085,-294.0332 -15.5469,-105.76336 -45.628,-214.56783 -111.461,-305.31643 -32.9669,-45.44384 -74.6252,-85.55726 -124.2363,-114.54297 -49.713,-29.04528 -106.9972,-46.40515 -165.8672,-46.32227 -57.629,0.0811 -113.8055,16.88538 -162.6465,45.31641 -48.7521,28.37919 -89.7379,67.84859 -121.748,112.91602 -63.9409,90.02303 -90.681,199.01958 -97.5254,304.77734 -6.3093,97.4888 2.4685,191.0152 -13.1856,277.0137 -7.8096,42.9031 -21.6976,83.9449 -43.8476,118.5508 -22.0125,34.3908 -53.0795,62.7551 -88.5762,77.3906 -24.9029,10.2676 -52.9875,14.2822 -80.6016,12.0547 -27.6733,-2.2324 -55.3215,-10.6707 -80.58,-23.9512 -50.5445,-26.5754 -91.7076,-72.7694 -119.6543,-125.9844 -56.2361,-107.0822 -60.6879,-238.8381 -73.0938,-371.5879 -12.5643,-134.44503 -35.5913,-267.9007 -68.8047,-398.78318 a 35.0035,35.0035 0 0 0 -68.789,5.54297 c -16.4612,187.19632 -56.5792,372.34601 -119.0801,549.56641 -25.7724,73.0773 -55.1751,143.7337 -96.3164,205.3887 -41.0187,61.4713 -94.8258,114.2752 -158.6973,144.4687 -90.6888,42.8706 -205.0132,37.2241 -291.0371,-14.373 a 35.0035,35.0035 0 1 0 -36.0078,60.0312 c 107.1013,64.2395 244.0535,71.0018 356.9629,17.627 78.4771,-37.0979 140.6299,-99.4005 187.0058,-168.9004 46.2535,-69.3161 77.508,-145.5496 104.1036,-220.961 41.7567,-118.4006 73.7532,-240.2052 95.7734,-363.79292 10.7873,63.22142 19.222,126.84492 25.1894,190.69922 12.1,129.4764 14.6012,271.5332 80.8184,397.6211 33.2798,63.37 83.0377,120.6889 149.0488,155.3965 33.0191,17.3608 69.5737,28.7038 107.5293,31.7656 38.015,3.0665 76.9458,-2.2833 112.9141,-17.1133 51.3021,-21.1521 92.2481,-59.684 120.8496,-104.3691 28.4638,-44.4701 44.7556,-94.2859 53.7598,-143.752 17.9733,-98.7403 8.3522,-195.1339 14.1699,-285.0273 6.279,-97.0211 31.0144,-193.11972 84.7422,-268.76369 26.8242,-37.76607 60.8386,-70.21819 99.8945,-92.95312 38.9668,-22.68309 83.5569,-35.75257 127.5293,-35.81446 44.9258,-0.0633 90.5476,13.4454 130.4551,36.76172 40.0095,23.3759 74.9064,56.63632 102.8887,95.20899 56.0654,77.28443 84.2212,174.76936 98.8652,274.39066 14.5034,98.6648 16.7473,206.5764 57.4648,309.5859 20.4248,51.6718 50.8921,101.3586 94.6563,139.8086 44.0509,38.702 101.2024,64.7171 162.416,65.2363 61.4889,0.5216 119.4287,-24.7794 164.0625,-63.459 44.3472,-38.4312 75.0711,-88.6966 94.8379,-141.25 39.3873,-104.7174 36.4853,-214.5267 40.793,-315.9629 4.1357,-97.389 15.8473,-193.63537 59.164,-272.5312 21.5791,-39.30325 51.0746,-73.90221 86.7656,-97.83594 35.4953,-23.80242 78.1787,-37.0801 119.0469,-34.92383 36.5672,1.92934 73.4326,16.18661 104.6778,38.5332 31.3883,22.44908 57.8554,53.1278 78.7617,87.73243 41.927,69.39864 61.4634,153.66228 80.3886,240.11324 24.2194,110.6351 49.0719,226.7512 107.4708,331.7168 29.2402,52.5561 66.8889,101.7186 114.4531,141.2481 47.66845,39.6161 105.13587,69.0357 167.81834,80.0976 64.92315,11.4575 132.01402,2.4734 191.92383,-23.0117 59.8201,-25.4469 111.64019,-66.7556 151.27929,-117.2265 79.27922,-100.9433 106.41493,-233.4994 91.70508,-357.8418 -13.5256,-114.3319 -61.22995,-223.85783 -135.73242,-311.6309 -74.50246,-87.77308 -174.82216,-152.63719 -285.4375,-184.55859 a 35.0035,35.0035 0 0 0 -10.35156,-1.51368 z"
       id="path4139-9-6-5-3-6-5-5"
       inkscape:connector-curvature="0" />
  </g>
</svg>
