<?xml version="1.0" encoding="UTF-8" standalone="no"?>
<!-- Created with Inkscape (http://www.inkscape.org/) -->

<svg
   xmlns:dc="http://purl.org/dc/elements/1.1/"
   xmlns:cc="http://creativecommons.org/ns#"
   xmlns:rdf="http://www.w3.org/1999/02/22-rdf-syntax-ns#"
   xmlns:svg="http://www.w3.org/2000/svg"
   xmlns="http://www.w3.org/2000/svg"
   xmlns:sodipodi="http://sodipodi.sourceforge.net/DTD/sodipodi-0.dtd"
   xmlns:inkscape="http://www.inkscape.org/namespaces/inkscape"
   width="2000"
   height="2048"
   id="svg2992"
   version="1.1"
   inkscape:version="0.91 r13725"
   sodipodi:docname="para.svg">
  <defs
     id="defs5498">
    <inkscape:path-effect
       effect="spiro"
       id="path-effect3846"
       is_visible="true" />
    <inkscape:path-effect
       effect="spiro"
       id="path-effect3801"
       is_visible="true" />
    <inkscape:path-effect
       effect="spiro"
       id="path-effect4372-5-0"
       is_visible="true" />
    <inkscape:path-effect
       effect="spiro"
       id="path-effect4372-5-0-7"
       is_visible="true" />
    <inkscape:path-effect
       effect="spiro"
       id="path-effect4372-5-0-7-0"
       is_visible="true" />
    <inkscape:path-effect
       effect="spiro"
       id="path-effect4372-5-0-7-0-2"
       is_visible="true" />
    <inkscape:path-effect
       effect="spiro"
       id="path-effect4372-5-0-7-0-2-7"
       is_visible="true" />
    <inkscape:path-effect
       effect="spiro"
       id="path-effect4372-5-0-7-0-2-7-7"
       is_visible="true" />
    <inkscape:path-effect
       effect="spiro"
       id="path-effect4372-5-0-7-0-2-6"
       is_visible="true" />
    <inkscape:path-effect
       effect="spiro"
       id="path-effect4372-5-0-7-0-2-3"
       is_visible="true" />
    <inkscape:path-effect
       effect="spiro"
       id="path-effect4372-5-0-7-0-2-7-77"
       is_visible="true" />
    <inkscape:path-effect
       effect="spiro"
       id="path-effect4372-5-0-7-0-2-3-2"
       is_visible="true" />
    <inkscape:path-effect
       effect="spiro"
       id="path-effect4372-5-0-7-0-2-7-77-2"
       is_visible="true" />
    <inkscape:path-effect
       effect="spiro"
       id="path-effect4372-5-0-7-0-2-3-1"
       is_visible="true" />
    <inkscape:path-effect
       effect="spiro"
       id="path-effect4372-5-0-7-0-2-7-77-27"
       is_visible="true" />
    <inkscape:path-effect
       effect="spiro"
       id="path-effect4372-5-0-7-0-2-3-8"
       is_visible="true" />
    <inkscape:path-effect
       effect="spiro"
       id="path-effect4372-5-0-7-0-2-3-83"
       is_visible="true" />
    <inkscape:path-effect
       effect="spiro"
       id="path-effect4372-5-0-7-0-2-67"
       is_visible="true" />
    <inkscape:path-effect
       effect="spiro"
       id="path-effect4372-5-0-7-0-2-36"
       is_visible="true" />
    <inkscape:path-effect
       effect="spiro"
       id="path-effect4372-5-0-7-0-2-3-5"
       is_visible="true" />
    <inkscape:path-effect
       effect="spiro"
       id="path-effect4372-5-0-7-0-2-5"
       is_visible="true" />
  </defs>
  <sodipodi:namedview
     inkscape:window-height="843"
     inkscape:window-width="1600"
     inkscape:pageshadow="2"
     inkscape:pageopacity="0.0"
     borderopacity="1.0"
     bordercolor="#666666"
     pagecolor="#ffffff"
     id="base"
     showgrid="true"
     showguides="true"
     inkscape:guide-bbox="true"
     inkscape:zoom="0.25"
     inkscape:cx="3171.6734"
     inkscape:cy="770.30776"
     inkscape:window-x="1600"
     inkscape:window-y="0"
     inkscape:current-layer="layer1"
     inkscape:window-maximized="1">
    <sodipodi:guide
       orientation="horizontal"
       position="0,600"
       id="guide5596" />
    <inkscape:grid
       type="xygrid"
       id="grid3769"
       empspacing="3"
       visible="true"
       enabled="true"
       snapvisiblegridlinesonly="true"
       spacingx="4px"
       units="px"
       dotted="true"
       spacingy="4px" />
    <sodipodi:guide
       orientation="0,1"
       position="-1040,1600"
       id="guide2985" />
  </sodipodi:namedview>
  <metadata
     id="metadata5594">
    <rdf:RDF>
      <cc:Work
         rdf:about="">
        <dc:format>image/svg+xml</dc:format>
        <dc:type
           rdf:resource="http://purl.org/dc/dcmitype/StillImage" />
        <dc:title />
      </cc:Work>
    </rdf:RDF>
  </metadata>
  <g
     inkscape:label="Layer 1"
     inkscape:groupmode="layer"
     id="layer1"
     transform="translate(0,1048)">
    <path
       style="fill:none;fill-rule:evenodd;stroke:#000000;stroke-width:140;stroke-linecap:round;stroke-linejoin:round;stroke-miterlimit:4;stroke-dasharray:none;stroke-opacity:1"
       d="M 648.99359,245.793 C 608.12682,188.30175 589.71504,115.27452 598.43988,45.280131 c 8.72484,-69.994386 44.50044,-136.267134 98.23003,-181.966891 53.72959,-45.69976 124.88445,-70.37681 195.37182,-67.75646 70.48738,2.62036 139.61367,32.51233 189.80187,82.07521 36.7935,36.33509 63.4198,82.876119 76.0088,133.031084 12.589,50.154964 11.0931,103.778396 -4.3574,153.127006 -15.4505,49.34861 -44.8192,94.26959 -83.8847,128.15003 -39.0656,33.88044 -87.71384,56.60666 -138.78131,64.73789 -55.51512,8.83941 -113.39277,0.403 -164.8769,-22.16798 -51.48412,-22.57099 -96.54694,-59.02003 -130.939,-103.48631 -68.78413,-88.93256 -92.95328,-207.538365 -78.9475,-319.09147 16.81152,-133.90025 87.70846,-260.72035 194.65375,-343.02837 106.94528,-82.30802 248.89218,-118.37979 381.70466,-94.44761 50.3513,9.07308 99.3872,26.54244 142.9635,53.35089 43.5762,26.80845 81.394,63.0237 109.5764,105.72423 28.1823,42.70053 46.4516,91.54902 56.0323,141.80626 9.5807,50.25723 10.4901,101.71078 10.8405,152.87186 l 3.0322,442.6673 -2.2485,-441.4524 c -0.2889,-56.7231 0.061,-113.83648 10.8465,-169.5254 10.786,-55.68892 32.0917,-109.70358 65.3832,-155.63038 33.2915,-45.92679 78.2496,-83.29569 129.4483,-107.71466 51.1987,-24.41898 108.2289,-35.95234 164.9499,-35.38643 74.6782,0.74506 148.7773,22.29085 213.3046,59.88893 64.5273,37.59807 119.4839,91.01235 160.7018,153.2897 82.4359,124.55472 107.8757,282.072995 84.7668,429.63835 -20.0488,128.02439 -75.076,249.79893 -154.1242,352.4808 C 2048.849,559.14717 1946.1904,642.89086 1831.9529,704.06265 1603.4779,826.40624 1333.5248,856.6478 1076.2701,825.20222 916.33161,805.65211 758.03791,762.70841 616.24435,686.17661 474.4508,609.64482 349.56494,498.37459 268.74717,358.97942 187.82638,219.40657 153.24093,53.480535 171.66083,-106.79879 c 18.4199,-160.27932 89.74424,-314.0338 200.21767,-431.61091"
       id="path4370-9-0-9-5-7"
       inkscape:path-effect="#path-effect4372-5-0-7-0-2"
       inkscape:original-d="m 648.99359,245.793 c 30.8036,-177.9508 275.0039,-472.86324 432.85001,-368.16101 139.5241,92.548899 13.1618,446.20741 -151.01461,479.04601 -190.0978,38.02339 -396.1734,-252.06845 -374.7634,-444.74576 26.6372,-239.71937 338.0213,-474.49433 576.35841,-437.47598 182.7759,28.38863 319.7806,373.10332 319.4127,453.75324 l 3.0322,442.6673 -2.2485,-441.4524 c -14.4158,-211.86482 171.6278,-473.20143 370.6279,-468.25687 263.1649,6.53886 512.6042,385.13359 458.7732,642.81698 -95.7683,458.433 -898.266,652.13567 -1205.7514,721.21771 C 527.92032,948.39868 408.50951,636.59934 268.74717,358.97942 133.35421,90.038697 371.8785,-538.4097 371.8785,-538.4097"
       inkscape:connector-curvature="0"
       sodipodi:nodetypes="caaaacccaasac" />
    <path
       style="fill:none;fill-rule:evenodd;stroke:#000000;stroke-width:70;stroke-linecap:round;stroke-linejoin:round;stroke-miterlimit:4;stroke-dasharray:none;stroke-opacity:1"
       d="m -2012.9213,245.96137 c -42.8293,-60.55744 -62.0643,-137.35877 -52.834,-210.954642 9.2303,-73.595875 46.8359,-143.268318 103.2935,-191.373298 56.4576,-48.10499 131.2164,-74.17323 205.3443,-71.60313 74.1279,2.57009 146.9018,33.75345 199.8921,85.65311 39.0227,38.21949 67.3249,87.290798 80.7633,140.2333035 13.4383,52.9425055 11.9601,109.6011365 -4.3213,161.7395465 -16.2814,52.1384 -47.3284,99.59228 -88.6506,135.31307 -41.3221,35.72079 -92.7973,59.58537 -146.7766,67.93598 -58.4318,9.03941 -119.2635,-0.12257 -173.3154,-24.08885 -54.0519,-23.96627 -101.3003,-62.46329 -137.378,-109.30755 -72.1555,-93.68852 -97.6625,-218.206731 -83.8501,-335.65102 16.7268,-142.22494 90.243,-277.64933 202.7537,-366.24436 112.5106,-88.59504 263.0523,-128.32377 404.025,-103.13605 53.088,9.48529 104.7792,27.92652 150.679,56.23763 45.8998,28.31111 85.6946,66.55918 115.3289,111.616 29.6343,45.05681 48.8214,96.56825 58.8817,149.55033 10.0603,52.98208 11.0131,107.21564 11.3818,161.143125 l 3.1922,466.855395 -2.3672,-465.574111 c -0.3038,-59.745619 0.067,-119.902329 11.4306,-178.558069 11.3638,-58.65574 33.8064,-115.54514 68.8566,-163.93015 35.0503,-48.38501 82.3691,-87.77187 136.25326,-113.58124 53.8842,-25.80938 113.90381,-38.11203 173.64924,-37.77376 130.63622,0.73963 257.88895,62.6236 346.2977,158.80189 88.40875,96.17829 138.82447,224.39979 149.3229,354.615587 10.86786,134.797887 -19.85714,271.871703 -82.04209,391.961723 -62.18495,120.09002 -155.1703,223.29571 -264.75039,302.54712 -219.16017,158.5028 -498.43422,218.22925 -768.75442,209.21129 -219.0323,-7.30698 -439.5056,-58.63806 -627.4229,-171.40171 -187.9172,-112.76365 -341.0408,-290.33224 -401.9107,-500.86347 -36.5045,-126.258559 -39.3098,-262.09379 -8.0493,-389.75186 31.2605,-127.65808 96.5107,-246.82807 187.2224,-341.93431"
       id="path4370-9-0-9-5-7-8"
       inkscape:path-effect="#path-effect4372-5-0-7-0-2-3"
       inkscape:original-d="m -2012.9213,245.96137 c 32.4294,-187.674335 289.5186,-498.7013 455.6959,-388.27796 146.8881,97.605935 -81.0514,518.12679 -158.9852,505.2219 -201.363,-33.34328 -416.2657,-265.899062 -394.5435,-469.04742 27.1879,-254.2627 353.9352,-507.57524 606.7787,-469.38041 192.7732,29.12054 336.6587,393.49032 336.2714,478.547085 l 3.1922,466.855395 -2.3672,-465.574111 c -15.1766,-223.441479 180.8789,-483.444439 390.1897,-493.843219 237.3605,-11.79233 615.07267,307.71594 495.6206,513.417477 -72.32172,124.541065 -737.4328,850.818733 -1115.5469,903.720133 -511.9628,71.628 -784.4285,-564.59872 -1029.3336,-672.26518 -423.3826,-186.129697 276.0931,-683.96328 179.1731,-731.68617"
       inkscape:connector-curvature="0"
       sodipodi:nodetypes="cssaacccasssc" />
    <path
       style="color:#000000;font-style:normal;font-variant:normal;font-weight:normal;font-stretch:normal;font-size:medium;line-height:normal;font-family:sans-serif;text-indent:0;text-align:start;text-decoration:none;text-decoration-line:none;text-decoration-style:solid;text-decoration-color:#000000;letter-spacing:normal;word-spacing:normal;text-transform:none;direction:ltr;block-progression:tb;writing-mode:lr-tb;baseline-shift:baseline;text-anchor:start;white-space:normal;clip-rule:nonzero;display:inline;overflow:visible;visibility:visible;opacity:1;isolation:auto;mix-blend-mode:normal;color-interpolation:sRGB;color-interpolation-filters:linearRGB;solid-color:#000000;solid-opacity:1;fill:#000000;fill-opacity:1;fill-rule:evenodd;stroke:none;stroke-width:140;stroke-linecap:round;stroke-linejoin:round;stroke-miterlimit:4;stroke-dasharray:none;stroke-dashoffset:0;stroke-opacity:1;color-rendering:auto;image-rendering:auto;shape-rendering:auto;text-rendering:auto;enable-background:accumulate"
       d="m 75.298828,1966.916 a 70.007,70.007 0 0 0 -54.435547,22.7422 c -121.031061,128.8136 -198.563891,295.954 -218.744141,471.5508 -20.18024,175.5967 17.41615,355.9694 106.070313,508.8808 88.4051661,152.482 223.175037,271.8457 374.806637,353.6875 151.32429,81.676 318.10981,126.5351 484.78125,146.9082 268.47406,32.8171 552.74916,1.9954 797.22066,-128.914 122.2901,-65.4838 232.6712,-155.2882 318.3672,-266.6055 85.7883,-111.437 145.7844,-243.6881 167.8125,-384.3515 25.5019,-162.846 -1.7819,-337.4235 -95.5507,-479.1016 -46.8561,-70.7961 -109.3271,-131.7258 -183.834,-175.1387 -74.6174,-43.4771 -160.1674,-68.5275 -247.8457,-69.4023 -66.6767,-0.6653 -134.0841,12.7741 -195.7832,42.2011 -61.8731,29.5101 -115.7127,74.248 -155.9903,129.8125 -9.0158,12.4376 -17.1359,25.3275 -24.6289,38.4864 -1.4073,-2.224 -2.7044,-4.4966 -4.1582,-6.6992 -34.0178,-51.5424 -79.1756,-94.7073 -131.3203,-126.7872 -51.9784,-31.9776 -109.25018,-52.1716 -167.22851,-62.6191 -153.46079,-27.6529 -313.97603,13.327 -436.8125,107.8652 -122.63699,94.3848 -202.25279,237.1657 -221.41406,389.7813 -16.00979,127.5146 10.67503,264.1564 93.03125,370.6367 41.17019,53.2299 95.09522,97.1026 158.20312,124.7695 63.27811,27.7416 134.18358,38.3025 203.99024,27.1875 64.25216,-10.2305 124.54756,-38.409 173.63867,-80.9843 49.08359,-42.5688 85.43358,-98.1901 104.82227,-160.1172 19.38576,-61.9178 21.22512,-128.2323 5.44921,-191.084 -15.77353,-62.8424 -48.67297,-120.3248 -94.71679,-165.7949 -63.04115,-62.2557 -147.84785,-98.9294 -236.38672,-102.2207 -86.4092,-3.2123 -171.58168,25.6221 -238.36719,80.3672 29.54242,-71.2443 76.95619,-135.2792 137.13672,-181.5957 91.05411,-70.0778 214.43348,-101.2408 326.59766,-81.0293 42.72436,7.6987 83.5252,22.4406 118.69921,44.08 35.00781,21.5372 65.48522,50.8033 87.83202,84.6621 22.3238,33.824 37.6156,73.9819 45.6934,116.3555 8.0875,42.4246 9.2566,89.5911 9.6035,140.2442 l 3.0273,441.9121 0,0.6308 0,0 0,0.1231 a 70.007,70.007 0 0 0 139.9961,-0.836 l 0,-0.123 -0,-0.3574 -2.2461,-440.9707 c -0.2862,-56.196 0.4299,-108.6643 9.5704,-155.8594 9.1205,-47.0902 27.0221,-91.5566 53.3359,-127.8574 26.3049,-36.2887 62.3825,-66.2873 102.9062,-85.6153 40.6983,-19.4107 87.3538,-29.0388 134.1192,-28.5722 61.6781,0.6154 124.3244,18.6561 178.7617,50.375 54.5477,31.7832 101.9886,77.6829 137.5684,131.4414 71.1029,107.4315 94.7003,247.889 73.9843,380.1738 -18.0695,115.3853 -68.1272,226.6826 -140.4355,320.6094 -72.4004,94.0465 -167.3366,171.73 -273.5215,228.5898 -212.4784,113.7778 -468.1092,143.4394 -714.14453,113.3653 C 631.55814,3312.9917 481.75502,3271.9638 349.49219,3200.5762 217.53669,3129.3544 102.53507,3026.1775 29.304688,2899.8691 -43.882711,2773.6349 -75.456436,2622.1552 -58.796875,2477.1934 -42.137304,2332.2315 22.976792,2191.864 122.89258,2085.5234 A 70.007,70.007 0 0 0 75.298828,1966.916 Z m 514.142582,474.5918 c 52.43589,1.9493 105.8815,25.0615 143.21679,61.9317 27.54324,27.2 47.89634,62.7979 57.30078,100.2656 9.40206,37.4581 8.24961,78.3905 -3.26562,115.1699 -11.51229,36.7701 -33.89974,70.9915 -62.94727,96.1836 -29.04003,25.1856 -66.04107,42.4584 -103.92382,48.4902 -41.2236,6.5639 -86.07352,0.252 -125.76368,-17.1484 -31.4057,-13.7685 -60.464,-34.7825 -84.91601,-60.5078 a 70.007,70.007 0 0 0 -3.09375,-4.6563 c -30.40098,-42.7679 -44.63694,-99.2276 -38.14649,-151.2968 6.49046,-52.0693 34.14936,-103.3084 74.11914,-137.3047 39.96976,-33.9963 94.98404,-53.0763 147.41993,-51.127 z"
       id="path4370-9-0-9-5-7-7"
       inkscape:connector-curvature="0" />
    <path
       style="color:#000000;font-style:normal;font-variant:normal;font-weight:normal;font-stretch:normal;font-size:medium;line-height:normal;font-family:sans-serif;text-indent:0;text-align:start;text-decoration:none;text-decoration-line:none;text-decoration-style:solid;text-decoration-color:#000000;letter-spacing:normal;word-spacing:normal;text-transform:none;direction:ltr;block-progression:tb;writing-mode:lr-tb;baseline-shift:baseline;text-anchor:start;white-space:normal;clip-rule:nonzero;display:inline;overflow:visible;visibility:visible;opacity:1;isolation:auto;mix-blend-mode:normal;color-interpolation:sRGB;color-interpolation-filters:linearRGB;solid-color:#000000;solid-opacity:1;fill:#000000;fill-opacity:1;fill-rule:evenodd;stroke:none;stroke-width:70;stroke-linecap:round;stroke-linejoin:round;stroke-miterlimit:4;stroke-dasharray:none;stroke-dashoffset:0;stroke-opacity:1;color-rendering:auto;image-rendering:auto;shape-rendering:auto;text-rendering:auto;enable-background:accumulate"
       d="m -728.49023,1535.4629 c -64.6827,-0.3663 -129.85852,12.8954 -188.9668,41.207 -59.19617,28.3537 -110.94247,71.4184 -149.47847,124.6153 -23.7052,32.7237 -41.9224,68.666 -55.3047,106.1289 -10.3175,-25.8179 -23.0175,-50.8001 -38.4844,-74.3164 -32.5422,-49.478 -76.0027,-91.2118 -126.1973,-122.1719 -50.1129,-30.9098 -105.9507,-50.7274 -162.8984,-60.9024 -151.4927,-27.0673 -311.3968,15.2551 -431.834,110.0918 -120.3087,94.7356 -198.0441,238.1741 -215.8594,389.6543 -14.7314,125.2587 12.0109,258.689 90.8809,361.0957 39.4352,51.2038 91.081,93.4151 150.9199,119.9473 59.9257,26.5706 127.2637,36.8284 192.8535,26.6816 60.6134,-9.3768 117.9479,-35.9653 164.3145,-76.0468 46.3624,-40.0778 80.916,-92.9024 99.1699,-151.3575 18.2522,-58.4496 19.8918,-121.4757 4.8379,-180.7832 -15.0527,-59.302 -46.5192,-113.8498 -90.1973,-156.6289 -59.4276,-58.2045 -140.0368,-92.7446 -223.1699,-95.6269 -83.1331,-2.8823 -165.9416,25.9925 -229.2578,79.9414 -41.6587,35.4955 -73.8575,81.0781 -94.0156,131.5937 0.2174,-16.9322 1.2097,-33.8572 3.1836,-50.6406 15.6383,-132.9695 84.9338,-260.3793 189.6464,-342.834 104.584,-82.3533 245.7641,-119.4877 376.2168,-96.1797 49.2283,8.7957 96.7743,25.8599 138.461,51.5723 41.605,25.6621 77.7345,60.4249 104.4609,101.0606 26.7158,40.6194 44.4239,87.7916 53.7383,136.8457 9.3193,49.0793 10.4006,101.1778 10.7676,154.8535 l 3.1914,466.7949 0,0.061 a 35.0035,35.0035 0 0 0 70,-0.4179 l 0,-0.061 -0,-0.1758 -2.3652,-465.3359 c -0.3025,-59.4813 0.2502,-117.3161 10.791,-171.7246 10.5309,-54.3567 31.2719,-106.4767 62.8399,-150.0547 31.5645,-43.5731 74.45702,-79.2818 123.02925,-102.5469 48.66012,-23.3071 103.52385,-34.6502 158.33203,-34.3398 119.71215,0.6777 238.5798,58.1223 320.72656,147.4883 82.40663,89.6487 130.28006,210.6385 140.20508,333.7422 10.29046,127.6364 -18.88742,258.4415 -78.23633,373.0546 -59.39901,114.7099 -148.67481,213.9758 -254.18164,290.2813 -211.10268,152.6754 -482.70565,211.4093 -747.07615,202.5898 -214.3554,-7.1509 -429.0012,-57.4714 -610.5801,-166.4316 -181.2097,-108.7386 -328.3185,-280.0439 -386.2969,-480.5742 -34.777,-120.2838 -37.459,-250.0881 -7.6777,-371.7051 a 35.0035,35.0035 0 0 0 0,0 c 29.7812,-121.617 92.1338,-235.498 178.5528,-326.1035 a 35.0035,35.0035 0 1 0 -50.6543,-48.3125 c -95.0044,99.6069 -163.1508,224.0664 -195.8906,357.7656 -32.74,133.6992 -29.8101,275.5654 8.4218,407.7988 63.7615,220.5322 222.9007,404.3638 417.5254,521.1524 194.2557,116.5672 420.5545,168.9081 644.2637,176.3711 276.2699,9.2164 563.21593,-51.4999 790.43359,-215.8301 113.65335,-82.1973 210.34745,-189.3443 275.31836,-314.8145 65.021,-125.5669 97.29483,-268.9078 85.84961,-410.8671 -11.07182,-137.328 -64.03055,-272.7824 -158.44141,-375.4903 -94.67073,-102.9906 -230.30687,-169.3138 -371.86718,-170.1152 z m -994.06447,431.4199 c 4.078,-0.057 8.1545,-0.014 12.2246,0.127 65.1228,2.2578 130.0623,30.0829 176.6153,75.6777 34.3673,33.66 59.5039,77.2569 71.3281,123.8398 11.8227,46.5776 10.5059,96.8682 -3.8047,142.6954 -14.3089,45.8219 -41.8488,87.9037 -78.1309,119.2675 -36.2776,31.3601 -81.893,52.5019 -129.2382,59.8262 -51.2738,7.9321 -105.6012,-0.1343 -153.7793,-21.4961 -41.0478,-18.2003 -78.1095,-46.144 -108.4239,-80.209 a 35.0035,35.0035 0 0 0 -0.582,-0.8593 c -37.6263,-53.2008 -54.7906,-121.7353 -46.6816,-186.3907 8.1089,-64.6552 41.6665,-126.8267 91.2656,-169.0879 46.4991,-39.6198 108.0369,-62.5407 169.207,-63.3906 z"
       id="path4370-9-0-9-5-7-8-3"
       inkscape:connector-curvature="0" />
    <path
       style="color:#000000;font-style:normal;font-variant:normal;font-weight:normal;font-stretch:normal;font-size:medium;line-height:normal;font-family:sans-serif;text-indent:0;text-align:start;text-decoration:none;text-decoration-line:none;text-decoration-style:solid;text-decoration-color:#000000;letter-spacing:normal;word-spacing:normal;text-transform:none;direction:ltr;block-progression:tb;writing-mode:lr-tb;baseline-shift:baseline;text-anchor:start;white-space:normal;clip-rule:nonzero;display:inline;overflow:visible;visibility:visible;opacity:1;isolation:auto;mix-blend-mode:normal;color-interpolation:sRGB;color-interpolation-filters:linearRGB;solid-color:#000000;solid-opacity:1;fill:#000000;fill-opacity:1;fill-rule:evenodd;stroke:none;stroke-width:200;stroke-linecap:round;stroke-linejoin:round;stroke-miterlimit:4;stroke-dasharray:none;stroke-dashoffset:0;stroke-opacity:1;color-rendering:auto;image-rendering:auto;shape-rendering:auto;text-rendering:auto;enable-background:accumulate"
       d="M 3064.7656,-667.37305 A 100.01,100.01 0 0 0 2987,-634.88477 c -125.5557,133.62928 -205.7509,306.50661 -226.6855,488.66797 -20.9347,182.161359 17.9533,368.72553 109.9218,527.35352 91.6569,158.09056 230.6638,280.92154 386.5117,365.03906 155.4089,83.88056 325.8317,129.56127 495.3887,150.28711 273.2824,33.40473 563.6942,2.33638 815.0215,-132.24414 125.7413,-67.33179 239.4334,-159.73395 327.9785,-274.75195 88.6768,-115.18913 150.8053,-251.92953 173.6817,-398.009769 a 100.01,100.01 0 0 0 0,-0.002 c 26.5274,-169.394791 -1.548,-351.284188 -100.1739,-500.300778 -49.2724,-74.44715 -114.9641,-138.59504 -193.748,-184.5 -78.9417,-45.99689 -169.4006,-72.55208 -262.6504,-73.48242 -70.9433,-0.70781 -142.7966,13.54951 -208.9961,45.12304 -66.4479,31.69199 -124.0936,79.58844 -167.3652,139.2832 -0.5817,0.80237 -1.0847,1.64009 -1.6602,2.44532 -33.0808,-41.90872 -73.2297,-77.57646 -118.4375,-105.38867 -55.5793,-34.19277 -116.3818,-55.5573 -177.6289,-66.59375 -162.31,-29.2475 -330.7827,13.83536 -460.4297,113.61523 -129.3619,99.56054 -212.7165,249.18194 -232.8847,409.81836 -16.8687,134.3552558 10.8955,278.72787 99.0683,392.72851 44.0751,56.98563 101.7991,104.04164 169.8887,133.89258 68.3326,29.9575 144.8203,41.42815 220.7519,29.33789 69.9028,-11.13029 135.1885,-41.64567 188.5762,-87.94726 53.3769,-46.29229 92.7223,-106.50038 113.7988,-173.81836 C 3958,98.363409 3959.9855,26.611532 3942.8438,-41.681641 3925.7054,-109.96137 3890.1176,-172.13632 3840.1094,-221.52148 3771.5598,-289.21695 3680.031,-328.796 3583.7559,-332.375 c -54.361,-2.02086 -108.0601,7.52909 -157.7286,27.45312 21.368,-28.27584 46.1055,-53.70286 73.6836,-74.92773 84.2436,-64.83617 199.6636,-93.89616 302.9786,-75.2793 39.4555,7.10971 76.7255,20.68524 108.2988,40.10938 31.3354,19.27783 58.6695,45.56499 78.5156,75.63476 l -0,0 c 19.813,30.01986 33.8299,66.45426 41.2636,105.44922 7.4476,39.06763 8.7288,84.39476 9.0742,134.830081 l 3.0313,442.667969 a 100.01,100.01 0 0 0 199.9961,-1.19531 l 0,-0.17578 -0,-0.50782 -2.2442,-440.767574 0,-0.002 c -0.285,-55.968412 0.5884,-106.445942 9.0235,-150.000002 l 0,-0.002 c 8.4069,-43.40425 24.8508,-83.77819 48.1738,-115.95313 23.3114,-32.15881 55.5817,-58.99858 91.5313,-76.14453 36.1979,-17.26443 78.4036,-26.07635 120.9023,-25.65234 56.1066,0.55977 113.8461,17.0976 163.959,46.29687 50.2707,29.29118 94.4928,71.97055 127.6562,122.07813 66.246,100.09283 89.0517,233.240643 69.3614,358.976562 -17.2213,109.968538 -65.1487,216.776558 -134.5684,306.951168 -69.5515,90.34574 -161.1782,165.42962 -263.9121,220.44141 -205.6227,110.10668 -455.1168,139.52159 -696.3438,110.03516 -150.32,-18.3744 -296.4819,-58.58259 -424.6601,-127.76563 -127.7392,-68.94606 -238.5057,-168.65374 -308.4844,-289.35351 -69.8731,-120.51772 -100.1551,-265.805846 -84.25,-404.20313 15.9051,-138.39728 78.357,-273.02974 173.7481,-374.55469 a 100.01,100.01 0 0 0 -67.9903,-169.4375 z m 511.5606,534.86133 c 44.6996,1.6617 91.4251,21.86658 123.2519,53.296876 23.5788,23.285014 41.2436,54.192455 49.2832,86.2226565 8.0363,32.0167555 7.0299,67.5116325 -2.7988,98.9042975 -9.8245,31.37922 -29.2166,61.01383 -53.9707,82.48242 -24.7435,21.45929 -56.7541,36.39515 -88.9863,41.52735 -35.0986,5.58858 -74.3664,0.18641 -109.002,-14.99805 -26.6163,-11.66878 -51.7601,-29.51229 -73.1738,-51.49414 a 100.01,100.01 0 0 0 -2.4297,-3.57422 c -25.9157,-36.45806 -38.361,-85.819952 -32.8281,-130.207032 5.5328,-44.386935 29.7144,-89.181573 63.7871,-118.16211 34.0726,-28.980518 82.1677,-45.659738 126.8672,-43.998048 z"
       id="path4370-9-0-9-5-7-6"
       inkscape:connector-curvature="0" />
  </g>
</svg>
