<?xml version="1.0" encoding="UTF-8" standalone="no"?>
<!-- Created with Inkscape (http://www.inkscape.org/) -->

<svg
   xmlns:dc="http://purl.org/dc/elements/1.1/"
   xmlns:cc="http://creativecommons.org/ns#"
   xmlns:rdf="http://www.w3.org/1999/02/22-rdf-syntax-ns#"
   xmlns:svg="http://www.w3.org/2000/svg"
   xmlns="http://www.w3.org/2000/svg"
   xmlns:sodipodi="http://sodipodi.sourceforge.net/DTD/sodipodi-0.dtd"
   xmlns:inkscape="http://www.inkscape.org/namespaces/inkscape"
   width="4000"
   height="2048"
   id="svg2992"
   version="1.1"
   inkscape:version="0.92.3 (2405546, 2018-03-11)"
   sodipodi:docname="thorn.svg">
  <defs
     id="defs5498">
    <inkscape:path-effect
       effect="spiro"
       id="path-effect4140"
       is_visible="true" />
    <inkscape:path-effect
       effect="spiro"
       id="path-effect4140-9"
       is_visible="true" />
    <inkscape:path-effect
       effect="spiro"
       id="path-effect4140-3"
       is_visible="true" />
    <inkscape:path-effect
       effect="spiro"
       id="path-effect4273"
       is_visible="true" />
    <inkscape:path-effect
       effect="spiro"
       id="path-effect4277"
       is_visible="true" />
    <inkscape:path-effect
       effect="spiro"
       id="path-effect4277-2"
       is_visible="true" />
    <inkscape:path-effect
       effect="spiro"
       id="path-effect4273-8"
       is_visible="true" />
    <inkscape:path-effect
       effect="spiro"
       id="path-effect4277-8"
       is_visible="true" />
    <inkscape:path-effect
       effect="spiro"
       id="path-effect4273-88"
       is_visible="true" />
    <inkscape:path-effect
       effect="spiro"
       id="path-effect4273-4"
       is_visible="true" />
    <inkscape:path-effect
       effect="spiro"
       id="path-effect4277-7"
       is_visible="true" />
    <inkscape:path-effect
       effect="spiro"
       id="path-effect4273-4-7"
       is_visible="true" />
    <inkscape:path-effect
       effect="spiro"
       id="path-effect4277-7-4"
       is_visible="true" />
  </defs>
  <sodipodi:namedview
     inkscape:window-height="839"
     inkscape:window-width="1600"
     inkscape:pageshadow="2"
     inkscape:pageopacity="0.0"
     borderopacity="1.0"
     bordercolor="#666666"
     pagecolor="#ffffff"
     id="base"
     showgrid="true"
     showguides="true"
     inkscape:guide-bbox="true"
     inkscape:zoom="0.227"
     inkscape:cx="2963.6523"
     inkscape:cy="-707.67402"
     inkscape:window-x="1920"
     inkscape:window-y="0"
     inkscape:current-layer="layer1"
     inkscape:window-maximized="1">
    <sodipodi:guide
       orientation="horizontal"
       position="1152,576"
       id="guide5596"
       inkscape:locked="false" />
    <inkscape:grid
       type="xygrid"
       id="grid3769"
       empspacing="3"
       visible="true"
       enabled="true"
       snapvisiblegridlinesonly="true"
       spacingx="4"
       units="px"
       dotted="true"
       spacingy="4"
       originx="0"
       originy="0" />
    <sodipodi:guide
       orientation="0,1"
       position="-1040,1600"
       id="guide2985"
       inkscape:locked="false" />
    <sodipodi:guide
       orientation="1,0"
       position="100,2496"
       id="guide7215"
       inkscape:label=""
       inkscape:color="rgb(0,0,255)"
       inkscape:locked="false" />
  </sodipodi:namedview>
  <metadata
     id="metadata5594">
    <rdf:RDF>
      <cc:Work
         rdf:about="">
        <dc:format>image/svg+xml</dc:format>
        <dc:type
           rdf:resource="http://purl.org/dc/dcmitype/StillImage" />
        <dc:title />
      </cc:Work>
    </rdf:RDF>
  </metadata>
  <g
     inkscape:label="Layer 1"
     inkscape:groupmode="layer"
     id="layer1"
     transform="translate(0,1048)">
    <path
       style="fill:none;fill-rule:evenodd;stroke:#000000;stroke-width:150;stroke-linecap:round;stroke-linejoin:round;stroke-miterlimit:4;stroke-dasharray:none;stroke-opacity:1"
       d="m 2680.9363,728.41259 -9.345,-1519.29036"
       id="path4271"
       inkscape:path-effect="#path-effect4273"
       inkscape:original-d="m 2680.9363,728.41259 -9.345,-1519.29036"
       inkscape:connector-curvature="0"
       sodipodi:nodetypes="cc" />
    <path
       style="fill:none;fill-rule:evenodd;stroke:#000000;stroke-width:150;stroke-linecap:round;stroke-linejoin:round;stroke-miterlimit:4;stroke-dasharray:none;stroke-opacity:1"
       d="m 2671.1663,132.48272 c 26.234,67.49907 74.5151,126.22303 135.6684,165.01245 61.1533,38.78943 134.854,57.43829 207.0966,52.40272 100.0686,-6.97515 194.7045,-59.37713 259.6359,-135.83815 64.9314,-76.46103 100.9351,-175.434715 108.0789,-275.49141 7.5771,-106.12651 -17.3766,-215.80132 -77.9816,-303.25007 -60.605,-87.44874 -158.1098,-150.59678 -263.9672,-161.2956 -82.714,-8.35976 -168.2723,15.62482 -234.5879,65.76206 -66.3155,50.13723 -112.7142,125.91751 -127.2181,207.77794"
       id="path4275"
       inkscape:path-effect="#path-effect4277"
       inkscape:original-d="m 2671.1663,132.48272 c 0,0 208.7509,236.03199 342.765,217.41517 182.1608,-25.30522 358.9888,-227.62663 367.7148,-411.32956 9.1231,-192.05978 -151.675,-436.8679 -341.9488,-464.54567 -149.6161,-21.76359 -361.806,273.54 -361.806,273.54"
       inkscape:connector-curvature="0"
       sodipodi:nodetypes="caaac" />
    <path
       style="color:#000000;font-style:normal;font-variant:normal;font-weight:normal;font-stretch:normal;font-size:medium;line-height:normal;font-family:sans-serif;text-indent:0;text-align:start;text-decoration:none;text-decoration-line:none;text-decoration-style:solid;text-decoration-color:#000000;letter-spacing:normal;word-spacing:normal;text-transform:none;direction:ltr;block-progression:tb;writing-mode:lr-tb;baseline-shift:baseline;text-anchor:start;white-space:normal;clip-rule:nonzero;display:inline;overflow:visible;visibility:visible;opacity:1;isolation:auto;mix-blend-mode:normal;color-interpolation:sRGB;color-interpolation-filters:linearRGB;solid-color:#000000;solid-opacity:1;fill:#000000;fill-opacity:1;fill-rule:evenodd;stroke:none;stroke-width:150;stroke-linecap:round;stroke-linejoin:round;stroke-miterlimit:4;stroke-dasharray:none;stroke-dashoffset:0;stroke-opacity:1;color-rendering:auto;image-rendering:auto;shape-rendering:auto;text-rendering:auto;enable-background:accumulate"
       d="M 1601.5332 338.80664 A 75.0075 75.0075 0 0 0 1528.1328 415.31836 L 1533.6191 1307.2207 A 75.0075 75.0075 0 0 0 1532.8008 1365.3867 C 1533.1892 1366.3861 1533.6001 1367.3752 1533.9961 1368.3711 L 1537.4785 1934.6094 A 75.0075 75.0075 0 1 0 1687.4746 1933.6855 L 1685.1641 1557.9336 C 1689.4533 1560.8873 1693.7964 1563.7693 1698.2031 1566.5645 C 1773.1911 1614.1291 1862.0996 1636.6259 1950.6855 1630.4512 C 2073.4754 1621.8923 2185.0141 1559.3221 2262.2754 1468.3418 C 2339.0227 1377.9667 2379.8277 1264.0518 2387.9961 1149.6445 C 2396.6676 1028.1896 2368.6854 901.98877 2296.8477 798.33203 C 2224.4189 693.8225 2109.4281 618.34312 1978.7793 605.13867 C 1966.0116 603.84827 1953.2254 603.17071 1940.4648 603.0957 C 1851.1409 602.57068 1763.0728 631.51942 1691.418 685.69336 C 1687.5031 688.65315 1683.6488 691.68247 1679.8535 694.77539 L 1678.1289 414.39648 A 75.0075 75.0075 0 0 0 1601.5332 338.80664 z M 1939.793 753.15625 C 1947.8024 753.17384 1955.7845 753.57742 1963.6953 754.37695 C 2044.7613 762.57015 2124.7793 813.38549 2173.5605 883.77344 C 2222.9329 955.01419 2244.8597 1048.1648 2238.377 1138.9629 C 2232.2577 1224.669 2201.0549 1308.7011 2147.9395 1371.248 C 2095.338 1433.1897 2017.6032 1475.4231 1940.2559 1480.8145 C 1884.3566 1484.7108 1825.8657 1469.9107 1778.5469 1439.8965 C 1738.8531 1414.7188 1705.4999 1377.864 1683.7969 1335.8105 L 1681.5703 973.91406 A 75.0075 75.0075 0 0 0 1683.2812 966.38281 C 1694.3787 903.74916 1731.1411 843.70707 1781.8809 805.3457 C 1826.2783 771.77948 1883.7271 753.03313 1939.793 753.15625 z "
       transform="translate(0,-1048)"
       id="path4271-5" />
    <path
       style="fill:none;fill-rule:evenodd;stroke:#000000;stroke-width:180;stroke-linecap:round;stroke-linejoin:round;stroke-miterlimit:4;stroke-dasharray:none;stroke-opacity:1"
       d="m 4024.9363,584.4126 -9.345,-1519.29033"
       id="path4271-7"
       inkscape:path-effect="#path-effect4273-4"
       inkscape:original-d="m 4024.9363,584.4126 -9.345,-1519.29033"
       inkscape:connector-curvature="0"
       sodipodi:nodetypes="cc" />
    <path
       style="fill:none;fill-rule:evenodd;stroke:#000000;stroke-width:180;stroke-linecap:round;stroke-linejoin:round;stroke-miterlimit:4;stroke-dasharray:none;stroke-opacity:1"
       d="m 4015.1663,-11.517243 c 26.234,67.499064 74.5151,126.223013 135.6684,165.012433 61.1533,38.78942 134.854,57.43828 207.0966,52.40271 100.0686,-6.97515 194.7045,-59.37712 259.6359,-135.838139 64.9314,-76.4610199 100.9351,-175.434701 108.0789,-275.491391 7.5771,-106.12651 -17.3766,-215.80133 -77.9816,-303.25007 -60.605,-87.44874 -158.1098,-150.59678 -263.9672,-161.2956 -82.714,-8.35976 -168.2723,15.62482 -234.5879,65.76206 -66.3155,50.13723 -112.7142,125.91751 -127.2181,207.77794"
       id="path4275-0"
       inkscape:path-effect="#path-effect4277-7"
       inkscape:original-d="m 4015.1663,-11.517243 c 0,0 208.7509,236.031943 342.765,217.415143 182.1608,-25.3052 358.9888,-227.626603 367.7148,-411.32953 9.1231,-192.05978 -151.675,-436.8679 -341.9488,-464.54567 -149.6161,-21.76359 -361.806,273.54 -361.806,273.54"
       inkscape:connector-curvature="0"
       sodipodi:nodetypes="caaac" />
    <path
       style="color:#000000;font-style:normal;font-variant:normal;font-weight:normal;font-stretch:normal;font-size:medium;line-height:normal;font-family:sans-serif;font-variant-ligatures:normal;font-variant-position:normal;font-variant-caps:normal;font-variant-numeric:normal;font-variant-alternates:normal;font-feature-settings:normal;text-indent:0;text-align:start;text-decoration:none;text-decoration-line:none;text-decoration-style:solid;text-decoration-color:#000000;letter-spacing:normal;word-spacing:normal;text-transform:none;writing-mode:lr-tb;direction:ltr;text-orientation:mixed;dominant-baseline:auto;baseline-shift:baseline;text-anchor:start;white-space:normal;shape-padding:0;clip-rule:nonzero;display:inline;overflow:visible;visibility:visible;opacity:1;isolation:auto;mix-blend-mode:normal;color-interpolation:sRGB;color-interpolation-filters:linearRGB;solid-color:#000000;solid-opacity:1;vector-effect:none;fill:#000000;fill-opacity:1;fill-rule:evenodd;stroke:none;stroke-width:180;stroke-linecap:round;stroke-linejoin:round;stroke-miterlimit:4;stroke-dasharray:none;stroke-dashoffset:0;stroke-opacity:1;color-rendering:auto;image-rendering:auto;shape-rendering:auto;text-rendering:auto;enable-background:accumulate"
       d="m 4023.7832,1802.2988 c -49.6671,1.0533 -89.0897,42.1464 -88.082,91.8145 l 9.3457,1519.291 c -0.4108,50.2136 40.3455,91.0526 90.5597,90.7437 50.2143,-0.309 90.4651,-41.6464 89.4364,-91.8511 l -2.1407,-348.1348 c 75.5437,45.0282 163.5106,66.0811 251.3965,59.9551 127.3341,-8.8757 242.2512,-73.4791 321.9785,-167.3633 79.1106,-93.1579 120.8748,-210.0605 129.2481,-327.3379 8.8904,-124.5206 -19.6951,-254.0274 -93.7793,-360.9258 -74.7935,-107.9216 -193.2835,-185.8686 -328.8906,-199.5742 -13.2534,-1.3395 -26.5202,-2.0423 -39.7559,-2.123 -87.6076,-0.5346 -173.8457,26.2479 -245.8594,76.707 l -1.541,-250.4941 c 0.405,-50.7386 -41.1872,-91.7837 -91.916,-90.7071 z m 338.5117,444.5684 c 7.5343,0.012 15.0358,0.3863 22.461,1.1367 76.1076,7.6921 152.6283,56.0418 199.0449,123.0176 47.1258,67.9992 68.4454,157.8418 62.1816,245.5742 -5.9143,82.8361 -36.1559,163.8804 -86.9082,223.6445 -50.1354,59.0378 -124.4898,99.2378 -197.293,104.3125 -52.6304,3.6686 -108.0791,-10.362 -152.6308,-38.6211 -36.3928,-23.0837 -67.291,-56.7942 -87.8066,-95.1699 l -2.1895,-356.0332 c 0.5815,-2.322 1.0702,-4.6663 1.4648,-7.0273 10.4161,-58.7883 45.2524,-115.6814 92.877,-151.6875 41.6717,-31.5055 96.0587,-49.2295 148.7988,-49.1465 z"
       transform="translate(0,-1048)"
       id="path4271-7-5"
       inkscape:connector-curvature="0"
       sodipodi:nodetypes="cccsccssscsccccccsscsccccsc" />
  </g>
</svg>
