<?xml version="1.0" encoding="UTF-8" standalone="no"?>
<svg
   xmlns:dc="http://purl.org/dc/elements/1.1/"
   xmlns:cc="http://creativecommons.org/ns#"
   xmlns:rdf="http://www.w3.org/1999/02/22-rdf-syntax-ns#"
   xmlns:svg="http://www.w3.org/2000/svg"
   xmlns="http://www.w3.org/2000/svg"
   xmlns:sodipodi="http://sodipodi.sourceforge.net/DTD/sodipodi-0.dtd"
   xmlns:inkscape="http://www.inkscape.org/namespaces/inkscape"
   width="2000"
   height="2048"
   id="svg2992"
   version="1.1"
   inkscape:version="1.0 (9f2f71dc58, 2020-08-02)"
   sodipodi:docname="£.svg">
  <defs
     id="defs5498">
    <inkscape:path-effect
       effect="spiro"
       id="path-effect1018"
       is_visible="true" />
    <inkscape:path-effect
       effect="spiro"
       id="path-effect1016"
       is_visible="true" />
    <inkscape:path-effect
       effect="spiro"
       id="path-effect992"
       is_visible="true" />
    <inkscape:path-effect
       effect="spiro"
       id="path-effect990"
       is_visible="true" />
    <inkscape:path-effect
       effect="spiro"
       id="path-effect969"
       is_visible="true" />
    <inkscape:path-effect
       effect="spiro"
       id="path-effect967"
       is_visible="true" />
    <inkscape:path-effect
       effect="spiro"
       id="path-effect943"
       is_visible="true" />
    <inkscape:path-effect
       effect="spiro"
       id="path-effect941"
       is_visible="true" />
    <inkscape:path-effect
       effect="spiro"
       id="path-effect908"
       is_visible="true" />
    <inkscape:path-effect
       effect="spiro"
       id="path-effect906"
       is_visible="true" />
    <inkscape:path-effect
       effect="spiro"
       id="path-effect882"
       is_visible="true" />
    <inkscape:path-effect
       effect="spiro"
       id="path-effect4215"
       is_visible="true" />
    <inkscape:path-effect
       effect="spiro"
       id="path-effect4215-6"
       is_visible="true" />
    <inkscape:path-effect
       effect="spiro"
       id="path-effect4215-9"
       is_visible="true" />
    <inkscape:path-effect
       effect="spiro"
       id="path-effect4215-97"
       is_visible="true" />
    <inkscape:path-effect
       effect="spiro"
       id="path-effect4215-7"
       is_visible="true" />
    <inkscape:path-effect
       effect="spiro"
       id="path-effect4215-7-6"
       is_visible="true" />
  </defs>
  <sodipodi:namedview
     inkscape:window-height="1015"
     inkscape:window-width="1920"
     inkscape:pageshadow="2"
     inkscape:pageopacity="0.0"
     borderopacity="1.0"
     bordercolor="#666666"
     pagecolor="#ffffff"
     id="base"
     showgrid="false"
     showguides="true"
     inkscape:guide-bbox="true"
     inkscape:zoom="0.15942383"
     inkscape:cx="4104.6613"
     inkscape:cy="888.17768"
     inkscape:window-x="1920"
     inkscape:window-y="0"
     inkscape:current-layer="layer1"
     inkscape:window-maximized="1"
     inkscape:snap-grids="false"
     inkscape:document-rotation="0">
    <sodipodi:guide
       orientation="horizontal"
       position="0,600"
       id="guide5596" />
    <inkscape:grid
       type="xygrid"
       id="grid3769"
       empspacing="3"
       visible="true"
       enabled="true"
       snapvisiblegridlinesonly="true"
       spacingx="4"
       units="px"
       dotted="true"
       spacingy="4"
       originx="0"
       originy="0" />
    <sodipodi:guide
       orientation="0,1"
       position="-1040,1600"
       id="guide2985" />
    <sodipodi:guide
       position="-3061.0229,0"
       orientation="0,1"
       id="guide4161"
       inkscape:label=""
       inkscape:color="rgb(0,0,255)" />
    <sodipodi:guide
       position="-3061.0229,-460"
       orientation="0,1"
       id="guide4163"
       inkscape:label=""
       inkscape:color="rgb(0,0,255)" />
    <sodipodi:guide
       position="-3261.7457,1372"
       orientation="0,1"
       id="guide4165"
       inkscape:label=""
       inkscape:color="rgb(255,19,0)" />
  </sodipodi:namedview>
  <metadata
     id="metadata5594">
    <rdf:RDF>
      <cc:Work
         rdf:about="">
        <dc:format>image/svg+xml</dc:format>
        <dc:type
           rdf:resource="http://purl.org/dc/dcmitype/StillImage" />
        <dc:title></dc:title>
      </cc:Work>
    </rdf:RDF>
  </metadata>
  <g
     inkscape:label="Layer 1"
     inkscape:groupmode="layer"
     id="layer1"
     transform="translate(0,1048)">
    <path
       style="fill:none;fill-rule:evenodd;stroke:#000000;stroke-width:150;stroke-linecap:round;stroke-linejoin:round;stroke-miterlimit:4;stroke-dasharray:none;stroke-opacity:1"
       d="m 1374.469,-666.22119 c -54.4349,-65.0463 -134.9554,-107.61529 -219.3615,-115.97042 -84.406,-8.35513 -171.70966,17.60139 -237.84076,70.71318 -31.76244,25.50933 -58.6173,57.86265 -73.92864,95.61369 -15.31134,37.75104 -17.51461,79.34971 -17.39563,120.08746 l 1.78469,611.04842 c 0.0726,24.8491 -0.55548,49.94161 -6.66537,74.02797 -6.10988,24.08635 -17.36235,46.83503 -32.71665,66.37291 -32.10231,40.8492 -81.95402,67.22924 -133.78546,70.79528 l 749.32822,-3.10753"
       id="path4213"
       inkscape:path-effect="#path-effect4215"
       inkscape:original-d="m 1374.469,-666.22119 c -114.2191,-78.70803 -399.40696,-140.76609 -457.20226,-45.25724 -25.83471,42.69279 -91.46949,165.98069 -91.32427,215.70115 l 1.78469,611.04842 c 0.14329,49.05929 -20.00586,96.39469 -39.38202,140.40088 -28.03507,62.30017 -133.78546,70.79528 -133.78546,70.79528 l 749.32822,-3.10753"
       inkscape:connector-curvature="0"
       sodipodi:nodetypes="csssccc" />
    <path
       style="fill:none;fill-rule:evenodd;stroke:#000000;stroke-width:150;stroke-linecap:round;stroke-linejoin:round;stroke-miterlimit:4;stroke-dasharray:none;stroke-opacity:1"
       d="m 618.40776,-256.79451 432.13144,-5.67469"
       id="path4213-0"
       inkscape:path-effect="#path-effect882"
       inkscape:original-d="m 618.40776,-256.79451 432.13144,-5.67469"
       inkscape:connector-curvature="0"
       sodipodi:nodetypes="cc" />
    <path
       id="path916"
       style="color:#000000;font-style:normal;font-variant:normal;font-weight:normal;font-stretch:normal;font-size:medium;line-height:normal;font-family:sans-serif;font-variant-ligatures:normal;font-variant-position:normal;font-variant-caps:normal;font-variant-numeric:normal;font-variant-alternates:normal;font-variant-east-asian:normal;font-feature-settings:normal;font-variation-settings:normal;text-indent:0;text-align:start;text-decoration:none;text-decoration-line:none;text-decoration-style:solid;text-decoration-color:#000000;letter-spacing:normal;word-spacing:normal;text-transform:none;writing-mode:lr-tb;direction:ltr;text-orientation:mixed;dominant-baseline:auto;baseline-shift:baseline;text-anchor:start;white-space:normal;shape-padding:0;shape-margin:0;inline-size:0;clip-rule:nonzero;display:inline;overflow:visible;visibility:visible;isolation:auto;mix-blend-mode:normal;color-interpolation:sRGB;color-interpolation-filters:linearRGB;solid-color:#000000;solid-opacity:1;vector-effect:none;fill:#000000;fill-opacity:1;fill-rule:evenodd;stroke:none;stroke-width:150;stroke-linecap:round;stroke-linejoin:round;stroke-miterlimit:4;stroke-dasharray:none;stroke-dashoffset:0;stroke-opacity:1;color-rendering:auto;image-rendering:auto;shape-rendering:auto;text-rendering:auto;enable-background:accumulate;stop-color:#000000;stop-opacity:1;opacity:1"
       d="M 1554.8164 2255.2734 C 1463.4008 2255.248 1373.5609 2286.4925 1301.8496 2344.0859 C 1262.0401 2376.0581 1226.5666 2417.7613 1205.3848 2469.9863 C 1183.8029 2523.1977 1182.3629 2574.8914 1182.4902 2618.4824 L 1182.9629 2780.4922 L 1048.9707 2782.252 A 75 75 0 0 0 974.96094 2858.2305 A 75 75 0 0 0 1050.9395 2932.2402 L 1183.4023 2930.5 L 1184.2754 3229.5312 C 1184.3438 3252.9691 1183.2708 3271.658 1179.9121 3284.8984 C 1176.4311 3298.6213 1169.8017 3312.0723 1160.9238 3323.3691 C 1142.4369 3346.8932 1110.8075 3363.6319 1080.959 3365.6855 A 75.0075 75.0075 0 0 0 1086.418 3515.5078 L 1835.7461 3512.4004 A 75 75 0 0 0 1910.4355 3437.0898 A 75 75 0 0 0 1835.125 3362.4004 L 1310.1504 3364.5781 C 1316.427 3350.8397 1321.5603 3336.5501 1325.3066 3321.7812 C 1334.1678 3286.8491 1334.3501 3255.3521 1334.2734 3229.0918 L 1333.3965 2928.5312 L 1483.0723 2926.5645 A 75 75 0 0 0 1557.0801 2850.5859 A 75 75 0 0 0 1481.666 2776.5723 A 75 75 0 0 0 1481.1016 2776.5781 L 1332.959 2778.5234 L 1332.4902 2618.0449 C 1332.3796 2580.1605 1335.3459 2548.6559 1344.3867 2526.3652 C 1353.8276 2503.0882 1372.062 2480.0836 1395.7773 2461.0371 C 1446.0838 2420.6345 1515.0592 2400.1286 1579.2676 2406.4844 C 1643.4759 2412.8402 1707.0909 2446.4719 1748.5 2495.9531 A 75 75 0 0 0 1854.1504 2505.3359 A 75 75 0 0 0 1863.5332 2399.6855 C 1796.0724 2319.0742 1698.6467 2267.5673 1594.043 2257.2129 C 1580.9675 2255.9186 1567.8758 2255.2771 1554.8164 2255.2734 z "
       transform="translate(0,-1048)" />
    <path
       style="fill:none;fill-rule:evenodd;stroke:#000000;stroke-width:75;stroke-linecap:round;stroke-linejoin:round;stroke-miterlimit:4;stroke-dasharray:none;stroke-opacity:1"
       d="m 2773.6858,-670.83056 c -54.435,-65.04629 -134.9555,-107.61528 -219.3615,-115.9704 -84.406,-8.35513 -171.7097,17.60138 -237.8408,70.71316 -31.7624,25.50932 -58.6173,57.86264 -73.9287,95.61368 -15.3113,37.75105 -17.5146,79.34972 -17.3956,120.08747 l 1.7847,611.0484 c 0.073,24.84911 -0.5555,49.94162 -6.6654,74.02798 -6.1098,24.08635 -17.3623,46.83504 -32.7166,66.37292 -32.1023,40.84922 -81.954,67.22927 -133.7855,70.7953 l 749.3283,-3.1075"
       id="path4213-1"
       inkscape:path-effect="#path-effect943"
       inkscape:original-d="m 2773.6858,-670.83056 c -114.2191,-78.70803 -399.407,-140.76609 -457.2023,-45.25724 -25.8347,42.69279 -91.4695,165.98069 -91.3243,215.70115 l 1.7847,611.0484 c 0.1433,49.0593 -20.0058,96.3947 -39.382,140.4009 -28.0351,62.3002 -133.7855,70.7953 -133.7855,70.7953 l 749.3283,-3.1075"
       inkscape:connector-curvature="0"
       sodipodi:nodetypes="csssccc" />
    <path
       style="fill:none;fill-rule:evenodd;stroke:#000000;stroke-width:75;stroke-linecap:round;stroke-linejoin:round;stroke-miterlimit:4;stroke-dasharray:none;stroke-opacity:1"
       d="m 2017.6245,-261.40388 432.1315,-5.67469"
       id="path4213-0-6"
       inkscape:path-effect="#path-effect941"
       inkscape:original-d="m 2017.6245,-261.40388 432.1315,-5.67469"
       inkscape:connector-curvature="0"
       sodipodi:nodetypes="cc" />
    <path
       id="path977"
       style="color:#000000;font-style:normal;font-variant:normal;font-weight:normal;font-stretch:normal;font-size:medium;line-height:normal;font-family:sans-serif;font-variant-ligatures:normal;font-variant-position:normal;font-variant-caps:normal;font-variant-numeric:normal;font-variant-alternates:normal;font-variant-east-asian:normal;font-feature-settings:normal;font-variation-settings:normal;text-indent:0;text-align:start;text-decoration:none;text-decoration-line:none;text-decoration-style:solid;text-decoration-color:#000000;letter-spacing:normal;word-spacing:normal;text-transform:none;writing-mode:lr-tb;direction:ltr;text-orientation:mixed;dominant-baseline:auto;baseline-shift:baseline;text-anchor:start;white-space:normal;shape-padding:0;shape-margin:0;inline-size:0;clip-rule:nonzero;display:inline;overflow:visible;visibility:visible;isolation:auto;mix-blend-mode:normal;color-interpolation:sRGB;color-interpolation-filters:linearRGB;solid-color:#000000;solid-opacity:1;vector-effect:none;fill:#000000;fill-opacity:1;fill-rule:evenodd;stroke:none;stroke-width:75;stroke-linecap:round;stroke-linejoin:round;stroke-miterlimit:4;stroke-dasharray:none;stroke-dashoffset:0;stroke-opacity:1;color-rendering:auto;image-rendering:auto;shape-rendering:auto;text-rendering:auto;enable-background:accumulate;stop-color:#000000;stop-opacity:1;opacity:1"
       d="M 2946.3848 2283.7422 C 2863.5969 2283.778 2781.6396 2312.2423 2716.8516 2364.2754 C 2681.0656 2393.0161 2649.9009 2430.0433 2631.6543 2475.0312 C 2613.2077 2520.5125 2611.3847 2567.1579 2611.5078 2609.3223 L 2612.0898 2808.4531 L 2440.9805 2810.6992 A 37.5 37.5 0 0 0 2403.9766 2848.6895 A 37.5 37.5 0 0 0 2441.9668 2885.6934 L 2612.3086 2883.4551 L 2613.293 3220.3711 C 2613.3635 3244.5146 2612.5136 3266.4069 2607.7793 3285.0703 C 2602.9838 3303.9749 2594.0419 3322.0748 2581.9258 3337.4922 C 2556.6312 3369.6788 2515.8927 3391.2371 2475.0527 3394.0469 A 37.50375 37.50375 0 0 0 2477.7812 3468.957 L 3227.1094 3465.8496 A 37.5 37.5 0 0 0 3264.4531 3428.1953 A 37.5 37.5 0 0 0 3226.7988 3390.8516 L 2632.9863 3393.3145 C 2635.7025 3390.2309 2638.3479 3387.077 2640.8965 3383.834 C 2659.489 3360.1756 2673.0522 3332.7778 2680.4766 3303.5098 C 2687.9621 3274.0005 2688.3676 3245.707 2688.293 3220.1523 L 2687.3066 2882.4707 L 2874.0977 2880.0176 A 37.5 37.5 0 0 0 2911.1016 2842.0293 A 37.5 37.5 0 0 0 2873.8301 2805.0215 A 37.5 37.5 0 0 0 2873.1133 2805.0254 L 2687.0879 2807.4688 L 2686.5078 2609.1035 C 2686.393 2569.7924 2688.9782 2533.2416 2701.1543 2503.2207 C 2713.5304 2472.7067 2736.0755 2445.0279 2763.8145 2422.75 C 2822.0332 2375.9928 2900.1733 2352.7617 2974.4805 2360.1172 C 3048.7877 2367.4727 3120.8553 2405.5722 3168.7773 2462.8359 A 37.5 37.5 0 0 0 3221.6016 2467.5273 A 37.5 37.5 0 0 0 3226.293 2414.7031 C 3165.3451 2341.8743 3076.3721 2294.8372 2981.8672 2285.4824 C 2970.0541 2284.3131 2958.2116 2283.7371 2946.3848 2283.7422 z "
       transform="translate(0,-1048)" />
    <path
       style="fill:none;fill-rule:evenodd;stroke:#000000;stroke-width:200;stroke-linecap:round;stroke-linejoin:round;stroke-miterlimit:4;stroke-dasharray:none;stroke-opacity:1"
       d="m 5165.6856,-699.752 c -54.435,-65.04627 -134.9555,-107.61524 -219.3615,-115.97036 -84.406,-8.35512 -171.7097,17.60139 -237.8408,70.71316 -31.7624,25.50932 -58.6173,57.86262 -73.9287,95.61366 -15.3113,37.75103 -17.5146,79.3497 -17.3956,120.08744 l 1.7847,611.04845 c 0.073,24.8491 -0.5555,49.94161 -6.6654,74.02796 -6.1098,24.08635 -17.3623,46.83503 -32.7166,66.37291 -32.1023,40.84922 -81.954,67.22927 -133.7855,70.7953 l 749.3283,-3.1075"
       id="path4213-1-2"
       inkscape:path-effect="#path-effect992"
       inkscape:original-d="m 5165.6856,-699.752 c -114.2191,-78.708 -399.407,-140.7661 -457.2023,-45.2572 -25.8347,42.6928 -91.4695,165.9807 -91.3243,215.7011 l 1.7847,611.04845 c 0.1433,49.0593 -20.0058,96.39467 -39.382,140.40087 -28.0351,62.3002 -133.7855,70.7953 -133.7855,70.7953 l 749.3283,-3.1075"
       inkscape:connector-curvature="0"
       sodipodi:nodetypes="csssccc" />
    <path
       style="fill:none;fill-rule:evenodd;stroke:#000000;stroke-width:200;stroke-linecap:round;stroke-linejoin:round;stroke-miterlimit:4;stroke-dasharray:none;stroke-opacity:1"
       d="M 4409.6243,-290.3253 4841.7558,-296"
       id="path4213-0-6-1"
       inkscape:path-effect="#path-effect990"
       inkscape:original-d="M 4409.6243,-290.3253 4841.7558,-296"
       inkscape:connector-curvature="0"
       sodipodi:nodetypes="cc" />
    <path
       id="path1026"
       style="color:#000000;font-style:normal;font-variant:normal;font-weight:normal;font-stretch:normal;font-size:medium;line-height:normal;font-family:sans-serif;font-variant-ligatures:normal;font-variant-position:normal;font-variant-caps:normal;font-variant-numeric:normal;font-variant-alternates:normal;font-variant-east-asian:normal;font-feature-settings:normal;font-variation-settings:normal;text-indent:0;text-align:start;text-decoration:none;text-decoration-line:none;text-decoration-style:solid;text-decoration-color:#000000;letter-spacing:normal;word-spacing:normal;text-transform:none;writing-mode:lr-tb;direction:ltr;text-orientation:mixed;dominant-baseline:auto;baseline-shift:baseline;text-anchor:start;white-space:normal;shape-padding:0;shape-margin:0;inline-size:0;clip-rule:nonzero;display:inline;overflow:visible;visibility:visible;isolation:auto;mix-blend-mode:normal;color-interpolation:sRGB;color-interpolation-filters:linearRGB;solid-color:#000000;solid-opacity:1;vector-effect:none;fill:#000000;fill-opacity:1;fill-rule:evenodd;stroke:none;stroke-width:200;stroke-linecap:round;stroke-linejoin:round;stroke-miterlimit:4;stroke-dasharray:none;stroke-dashoffset:0;stroke-opacity:1;color-rendering:auto;image-rendering:auto;shape-rendering:auto;text-rendering:auto;enable-background:accumulate;stop-color:#000000;stop-opacity:1;opacity:1"
       d="M 5224.248 1690.8262 C 5127.0806 1690.7599 5031.987 1723.858 4955.6602 1785.1582 C 4913.1683 1819.2846 4874.8203 1864.1045 4851.6816 1921.1543 C 4828.0096 1979.5192 4826.825 2034.577 4826.9551 2079.1191 L 4827.3555 2216.3828 L 4718.1055 2217.8184 A 100 100 0 0 0 4619.4277 2319.123 A 100 100 0 0 0 4720.7324 2417.8008 L 4827.9395 2416.3926 L 4828.7383 2690.168 C 4828.8054 2713.1355 4827.5842 2729.6892 4825.1426 2739.3145 C 4822.5378 2749.5829 4817.4496 2759.9365 4810.7305 2768.4863 C 4796.782 2786.2353 4771.2278 2799.7572 4748.707 2801.3066 A 100.01 100.01 0 0 0 4755.9863 3001.0703 L 5505.3145 2997.9629 A 100 100 0 0 0 5604.8984 2897.5488 A 100 100 0 0 0 5504.4844 2797.9648 L 5015.7617 2799.9922 C 5016.9047 2796.1817 5018.0222 2792.3602 5019.0039 2788.4902 C 5028.7821 2749.9427 5028.8164 2716.3147 5028.7383 2689.584 L 5027.9316 2413.7676 L 5152.8633 2412.127 A 100 100 0 0 0 5251.541 2310.8223 A 100 100 0 0 0 5151.752 2212.1348 A 100 100 0 0 0 5150.2383 2212.1426 L 5027.3477 2213.7559 L 5026.9531 2078.5352 C 5026.8453 2041.6018 5030.067 2013.4614 5037.0176 1996.3242 C 5044.5016 1977.8719 5059.8635 1957.986 5080.8965 1941.0938 C 5125.9281 1904.9276 5188.7918 1886.2364 5246.2676 1891.9258 C 5303.7434 1897.6152 5361.7238 1928.2677 5398.791 1972.5605 A 100 100 0 0 0 5539.6582 1985.0723 A 100 100 0 0 0 5552.1699 1844.2051 C 5480.3672 1758.4054 5377.305 1703.9193 5265.9688 1692.8984 C 5252.0517 1691.5208 5238.1291 1690.8356 5224.248 1690.8262 z "
       transform="translate(0,-1048)" />
  </g>
</svg>
