<?xml version="1.0" encoding="UTF-8" standalone="no"?>
<!-- Created with Inkscape (http://www.inkscape.org/) -->

<svg
   xmlns:dc="http://purl.org/dc/elements/1.1/"
   xmlns:cc="http://creativecommons.org/ns#"
   xmlns:rdf="http://www.w3.org/1999/02/22-rdf-syntax-ns#"
   xmlns:svg="http://www.w3.org/2000/svg"
   xmlns="http://www.w3.org/2000/svg"
   xmlns:sodipodi="http://sodipodi.sourceforge.net/DTD/sodipodi-0.dtd"
   xmlns:inkscape="http://www.inkscape.org/namespaces/inkscape"
   width="2000"
   height="2048"
   id="svg2992"
   version="1.1"
   inkscape:version="0.91 r13725"
   sodipodi:docname="കു.svg">
  <defs
     id="defs5498">
    <inkscape:path-effect
       effect="spiro"
       id="path-effect4183"
       is_visible="true" />
    <inkscape:path-effect
       effect="spiro"
       id="path-effect3846"
       is_visible="true" />
    <inkscape:path-effect
       effect="spiro"
       id="path-effect3801"
       is_visible="true" />
    <inkscape:path-effect
       is_visible="true"
       id="path-effect3846-9"
       effect="spiro" />
    <inkscape:path-effect
       is_visible="true"
       id="path-effect3801-9"
       effect="spiro" />
    <inkscape:path-effect
       is_visible="true"
       id="path-effect4500"
       effect="spiro" />
    <inkscape:path-effect
       is_visible="true"
       id="path-effect4500-8"
       effect="spiro" />
    <inkscape:path-effect
       is_visible="true"
       id="path-effect4500-0"
       effect="spiro" />
    <inkscape:path-effect
       is_visible="true"
       id="path-effect4500-0-5"
       effect="spiro" />
    <inkscape:path-effect
       is_visible="true"
       id="path-effect4500-0-5-7"
       effect="spiro" />
    <inkscape:path-effect
       is_visible="true"
       id="path-effect4500-0-5-1"
       effect="spiro" />
    <inkscape:path-effect
       is_visible="true"
       id="path-effect4500-0-5-18"
       effect="spiro" />
    <inkscape:path-effect
       is_visible="true"
       id="path-effect4500-0-5-18-1"
       effect="spiro" />
    <inkscape:path-effect
       is_visible="true"
       id="path-effect4500-0-5-18-1-3"
       effect="spiro" />
    <inkscape:path-effect
       is_visible="true"
       id="path-effect4500-0-5-18-1-3-3"
       effect="spiro" />
    <inkscape:path-effect
       is_visible="true"
       id="path-effect4500-0-5-18-1-6"
       effect="spiro" />
    <inkscape:path-effect
       is_visible="true"
       id="path-effect4500-0-5-18-1-4"
       effect="spiro" />
    <inkscape:path-effect
       is_visible="true"
       id="path-effect4500-0-5-18-1-4-6"
       effect="spiro" />
    <inkscape:path-effect
       is_visible="true"
       id="path-effect4500-0-5-18-1-4-2"
       effect="spiro" />
    <inkscape:path-effect
       is_visible="true"
       id="path-effect4500-0-5-18-1-4-2-1"
       effect="spiro" />
    <inkscape:path-effect
       is_visible="true"
       id="path-effect4500-0-5-18-1-32"
       effect="spiro" />
  </defs>
  <sodipodi:namedview
     inkscape:window-height="844"
     inkscape:window-width="1600"
     inkscape:pageshadow="2"
     inkscape:pageopacity="0.0"
     borderopacity="1.0"
     bordercolor="#666666"
     pagecolor="#ffffff"
     id="base"
     showgrid="true"
     showguides="true"
     inkscape:guide-bbox="true"
     inkscape:zoom="0.1767767"
     inkscape:cx="1292.6586"
     inkscape:cy="-2671.8068"
     inkscape:window-x="1600"
     inkscape:window-y="0"
     inkscape:current-layer="layer1-2"
     inkscape:window-maximized="1">
    <sodipodi:guide
       orientation="horizontal"
       position="0,600"
       id="guide5596" />
    <inkscape:grid
       type="xygrid"
       id="grid3769"
       empspacing="3"
       visible="true"
       enabled="true"
       snapvisiblegridlinesonly="true"
       spacingx="4px"
       units="px"
       dotted="true"
       spacingy="4px" />
    <sodipodi:guide
       orientation="0,1"
       position="-1040,1600"
       id="guide2985" />
  </sodipodi:namedview>
  <metadata
     id="metadata5594">
    <rdf:RDF>
      <cc:Work
         rdf:about="">
        <dc:format>image/svg+xml</dc:format>
        <dc:type
           rdf:resource="http://purl.org/dc/dcmitype/StillImage" />
        <dc:title />
      </cc:Work>
    </rdf:RDF>
  </metadata>
  <g
     inkscape:label="Layer 1"
     inkscape:groupmode="layer"
     id="layer1"
     transform="translate(0,1048)">
    <g
       id="layer1-2"
       inkscape:label="Layer 1"
       transform="translate(-900.90145,-124.23254)"
       style="display:inline">
      <path
         style="color:#000000;font-style:normal;font-variant:normal;font-weight:normal;font-stretch:normal;font-size:medium;line-height:normal;font-family:sans-serif;text-indent:0;text-align:start;text-decoration:none;text-decoration-line:none;text-decoration-style:solid;text-decoration-color:#000000;letter-spacing:normal;word-spacing:normal;text-transform:none;direction:ltr;block-progression:tb;writing-mode:lr-tb;baseline-shift:baseline;text-anchor:start;clip-rule:nonzero;display:inline;overflow:visible;visibility:visible;opacity:1;isolation:auto;mix-blend-mode:normal;color-interpolation:sRGB;color-interpolation-filters:linearRGB;solid-color:#000000;solid-opacity:1;fill:#000000;fill-opacity:1;fill-rule:evenodd;stroke:none;stroke-width:140;stroke-linecap:round;stroke-linejoin:round;stroke-miterlimit:4;stroke-dasharray:none;stroke-dashoffset:0;stroke-opacity:1;color-rendering:auto;image-rendering:auto;shape-rendering:auto;text-rendering:auto;enable-background:accumulate"
         d="m 55.953464,794.59417 c -60.4465448,1.51132 -120.507079,17.19786 -173.916004,45.54492 -52.01693,27.60825 -97.44844,66.96125 -134.3399,112.86328 -48.38251,60.19973 -82.3059,131.94013 -98.1348,207.53323 -70.40903,0.215 -140.7632,12.7996 -206.8808,37.0058 -59.39813,21.7462 -115.93356,53.2761 -161.0703,97.5899 -48.52029,47.6356 -83.03405,110.3091 -92.93362,177.58 -11.17475,75.9361 9.99423,155.89 56.38082,217.0411 45.71911,60.2711 115.12622,101.7592 189.6407,114.8144 92.48168,16.2032 191.79945,-12.2651 261.5351,-75.1328 22.40935,-20.2023 41.84384,-43.6991 57.4844,-69.5 29.79286,35.4862 65.52975,65.9698 105.2695,89.7949 56.243482,33.7196 120.770532,53.9863 186.300804,56.461 68.057416,2.5702 136.526596,-14.1275 196.564496,-46.2813 58.51065,-31.3359 108.87863,-77.0079 148.4004,-130.332 71.7655,-96.8285 107.44238,-219.7813 98.6523,-339.9844 53.07035,0.023 106.14026,1.074 159.1699,3.1524 25.99892,1.019 52.5801,2.4103 76.66489,12.2543 12.0424,4.922 23.32271,11.9746 32.29459,21.3954 8.97188,9.4208 15.55877,21.2845 17.81462,34.0969 1.86294,10.5808 0.73928,21.627 -2.89078,31.7387 -3.63005,10.1117 -9.72999,19.2854 -17.40894,26.7992 -15.35789,15.0277 -36.69942,23.0915 -58.12868,24.6666 -16.3032,1.1983 -32.73428,-1.122 -49.0117,0.3867 -17.80484,1.6502 -35.48812,8.1697 -48.62323,20.3025 -6.56756,6.0664 -11.92909,13.4793 -15.35451,21.7377 -3.42542,8.2583 -4.88613,17.3628 -3.91526,26.2505 1.62632,14.8879 10.08721,28.5817 21.6689,38.0769 11.5817,9.4952 26.07417,15.0131 40.8589,17.402 17.78503,2.8737 35.94717,1.4108 53.955,1.9433 17.80259,0.5264 35.98645,3.159 51.63266,11.6681 7.8231,4.2546 14.91216,9.9661 20.3155,17.0447 5.40335,7.0786 9.0781,15.5513 10.02904,24.4056 0.86533,8.0572 -0.53768,16.306 -3.72545,23.7561 -3.18777,7.4502 -8.1305,14.1053 -14.12797,19.5549 -11.99493,10.899 -27.92441,16.7908 -44.00123,18.841 -32.15365,4.1003 -64.19365,-6.2014 -96.42525,-9.6356 -18.08745,-1.9272 -36.86821,-1.5958 -53.80309,5.0434 -8.46744,3.3197 -16.37138,8.2151 -22.7465,14.7017 -6.37511,6.4865 -11.1826,14.5954 -13.30861,23.4383 -1.79818,7.4793 -1.65988,15.377 0.0755,22.8711 1.73544,7.4942 5.04429,14.5879 9.39705,20.9304 8.70551,12.6851 21.39357,22.1975 34.9657,29.4428 35.59324,19.0009 77.10597,23.2867 117.4437,24.1694 43.72296,0.9567 88.59235,-1.9082 128.7306,-19.2729 28.73842,-12.4329 54.34114,-32.2312 73.09619,-57.3055 18.75505,-25.0743 30.55172,-55.4026 33.03611,-86.6164 2.32458,-29.206 -3.52695,-59.0196 -16.71834,-85.1803 -13.19139,-26.1607 -33.68399,-48.5916 -58.54916,-64.0873 24.1138,-17.6626 43.34212,-41.926 55.02804,-69.4375 11.68593,-27.5115 15.79752,-58.1959 11.76666,-87.8134 -7.07937,-52.017 -38.91823,-98.5924 -80.2029,-131.0186 -24.6729,-19.3788 -52.97912,-34.1511 -83.08322,-42.9848 -30.10409,-8.8338 -61.65645,-11.2891 -92.98908,-12.8883 l -191.9804,-9.7988 c -16.50758,-73.3255 -50.60192,-142.629 -98.6153,-200.45506 -38.14142,-45.93651 -85.07761,-84.69972 -137.9843,-112.37305 -54.44027,-28.47548 -115.88224,-43.73648 -177.300796,-42.20117 -6.67e-4,2e-5 -0.0013,3e-5 -0.002,5e-5 z m 1.8203,139.98828 c 38.761118,-0.50316 77.427996,9.34415 111.953096,26.9707 35.94448,18.3512 67.39677,44.97795 93.0488,76.13475 28.30935,34.3844 49.73394,74.4139 62.6426,117.041 l -529.7031,3.0508 c 12.57431,-42.6801 33.58736,-82.8562 61.4707,-117.5293 24.9682,-31.0481 55.587002,-57.79086 90.722604,-76.57615 33.72903,-18.03327 71.621349,-28.59536 109.8653,-29.0918 z M 348.97096,1294.35 c -2e-5,89.0929 -19.8698,180.605 -71.9472,252.8926 -26.46196,36.7313 -60.94609,67.8642 -100.9395,89.0762 -38.48507,20.412 -82.145624,31.5047 -125.681596,29.9648 -41.9670773,-1.4844 -83.261295,-14.686 -119.1621,-36.4707 -37.290724,-22.6281 -68.712484,-54.2679 -93.527404,-90.1406 -48.40934,-69.9809 -71.73379,-156.9404 -64.8437,-241.7539 2.50056,-0.028 5.00122,-0.044 7.5019,-0.057 l 525.6563,-2.7656 c 14.31703,-0.075 28.63511,-0.2374 42.9433,-0.7461 0,10e-5 0,2e-4 0,3e-4 z m -716.1601,8.0391 25.8926,182.9609 c 0.0237,0.4661 0.0457,0.9323 0.066,1.3985 2.23528,51.4341 -18.14597,103.9221 -56.1817,138.6171 -38.14855,34.7979 -92.90418,50.2699 -143.7539,41.2969 -40.10029,-7.0761 -77.64125,-29.0911 -102.248,-61.5351 -23.93442,-31.5575 -35.12371,-72.734 -29.416,-111.9278 5.46862,-37.5521 25.82962,-71.9529 52.9043,-98.5429 30.39191,-29.8478 68.86473,-50.4272 108.8964,-64.9883 46.06142,-16.7543 94.84256,-26.0057 143.8399,-27.2793 l 4e-4,0 z"
         id="path4498-7-1-0"
         inkscape:connector-curvature="0"
         sodipodi:nodetypes="csscsssssscsssscaaccscaacscssccacscssccsssccssscssssscssccccsssssscc"
         inkscape:path-effect="#path-effect4183"
         inkscape:original-d="m 55.953464,794.59417 c -61.4738997,0.79931 -121.0348,17.34801 -173.916004,45.54492 -52.7727,28.13904 -98.0438,67.31476 -134.3399,112.86328 -49.2255,61.77403 -80.7547,133.44013 -98.1348,207.53323 -67.764,3.6221 -137.6055,12.7353 -206.8808,37.0058 -57.7813,20.2437 -114.3749,51.3929 -161.0703,97.5899 -47.0884,46.5858 -82.5871,107.6375 -92.93362,177.58 -11.44088,77.3392 9.73122,155.5613 56.38082,217.0411 46.5009,61.2836 114.866,101.7284 189.6407,114.8144 93.7876,16.4134 190.759,-11.444 261.5351,-75.1328 22.6785,-20.4075 41.9351,-43.9016 57.4844,-69.5 29.8672,34.9122 65.1105,65.5983 105.2695,89.7949 55.704804,33.5634 119.717204,54.0284 186.300804,56.461 69.133296,2.5257 136.926496,-14.5442 196.564496,-46.2813 59.4986,-31.6629 109.728,-77.1469 148.4004,-130.332 72.6415,-99.9021 101.6236,-221.9614 98.6523,-339.9844 38.2804,-0.7805 107.8228,-10.2485 159.1699,3.1524 46.3606,12.0994 119.0423,20.4612 126.7741,67.7466 6.1505,37.6144 14.4613,81.1246 -78.4284,83.2045 -16.3688,1.3947 -34.1545,-0.01 -49.0117,0.3867 -37.1794,1.1125 -66.9977,31.1054 -67.893,68.2907 -0.8953,37.1852 25.445,52.5785 62.5278,55.4789 19.3212,1.5988 36.7915,-3.4691 53.955,1.9433 31.0533,9.7925 86.1106,20.821 81.9772,53.1184 -7.0567,55.1385 -48.6656,88.7021 -158.2799,52.5164 -36.7543,-13.1844 -77.1901,6.248 -89.8582,43.1834 -12.6681,36.9355 7.329,61.0951 44.4383,73.2443 31.6318,10.8493 73.897,20.9865 117.4437,24.1694 44.978,3.2875 91.3231,-0.8441 128.7306,-19.2729 53.4709,-26.3424 97.0219,-67.5697 106.1323,-143.9219 7.4929,-70.4785 -31.2857,-108.7287 -75.2675,-149.2676 25.0558,-25.5024 70.9947,-100.4563 66.7947,-157.2509 -3.7764,-51.0664 -20.7555,-85.5164 -80.2029,-131.0186 -55.0796,-41.4731 -118.5416,-52.9367 -176.0723,-55.8731 l -191.9804,-9.7988 c -18.2308,-71.8238 -50.0529,-140.9513 -98.6153,-200.45506 -37.3692,-45.78881 -83.9259,-84.84632 -137.9843,-112.37305 -54.1714,-27.58427 -114.9696,-43.01163 -177.300796,-42.20117 z m 1.8203,139.98828 c 37.7716,-0.49112 76.913096,9.12819 111.953096,26.9707 35.153,17.90003 67.1196,44.36345 93.0488,76.13475 27.5152,33.7145 48.3187,73.7687 62.6426,117.041 -174.7871,1.5802 -353.548296,2.1238 -529.7031,3.0508 13.9951,-43.3473 34.3879,-83.5427 61.4707,-117.5293 25.2411,-31.6753 56.364104,-58.25574 90.722604,-76.57615 34.2502,-18.26256 72.6038,-28.60731 109.8653,-29.0918 z M 348.97096,1294.35 c 1.9727,91.7214 -21.4325,183.4209 -71.9472,252.8926 -26.9958,37.1266 -61.8645,68.2819 -100.9395,89.0762 -38.9356,20.7201 -83.226896,31.5159 -125.681596,29.9648 -40.9169997,-1.4949 -82.7273,-14.5179 -119.1621,-36.4707 -36.557504,-22.0266 -68.748504,-53.431 -93.527404,-90.1406 -45.6783,-67.6719 -66.4921,-154.5029 -64.8437,-241.7539 2.5124,-0.015 4.9827,-0.043 7.5019,-0.057 l 525.6563,-2.7656 c 14.4599,-0.076 28.7552,-0.3654 42.9433,-0.7461 z m -716.1601,8.0391 c -0.5611,61.2906 7.4547,123.4566 25.8926,182.9609 0.017,0.4664 0.039,0.9325 0.066,1.3985 3.4126,50.1571 -18.8114,104.989 -56.1817,138.6171 -37.3702,33.6281 -94.2333,49.9633 -143.7539,41.2969 -39.8557,-6.975 -78.4055,-30.1129 -102.248,-61.5351 -23.6938,-31.2261 -35.005,-74.1472 -29.416,-111.9278 5.1524,-34.8303 24.7002,-70.6399 52.9043,-98.5429 28.5972,-28.292 66.7217,-50.2125 108.8964,-64.9883 44.2821,-15.5142 92.6999,-23.2591 143.8399,-27.2793 z" />
      <path
         sodipodi:nodetypes="aaaaacaassaacaasc"
         inkscape:connector-curvature="0"
         inkscape:original-d="m 1854.7037,-437.41427 c 184.6818,-1.05854 363.0286,229.53659 368.0399,414.153489 5.4789,201.844851 -175.3405,477.543611 -377.228,473.963231 -196.4476,-3.4839 -358.1679,-277.58963 -350.4799,-473.917584 7.1549,-182.714526 176.8165,-413.151076 359.668,-414.199136 z m -334.4576,629.07379 c 0,0 -159.0133,271.02286 -287.166,258.40979 C 1126.4642,439.57604 1015.4935,296.76664 1040.6703,192.63603 1087.0488,0.81503813 1290.1659,-65.790984 1572.6117,-67.276937 l 535.5885,-2.817747 c 177.219,-0.932287 483.2395,1.734664 510.0214,180.020884 9.4551,62.94127 -93.1308,93.29592 -153.4358,113.65033 -17.4621,5.89378 -55.2845,0.74695 -55.2845,0.74695 0,0 39.2418,-4.75038 56.9325,2.15618 63.1016,24.63509 152.3694,64.23048 154.5687,131.93466 1.5792,48.61208 -41.4385,98.09378 -104.5996,101.73306 -88.0274,5.07204 -160.2782,-3.93527 -160.2782,-3.93527"
         inkscape:path-effect="#path-effect4500-0-5-18-1"
         id="path4498-7-1-0-1"
         d="m 1854.7037,-437.41427 c 50.997,-0.66309 101.9109,12.0976 147.3593,35.2401 45.4484,23.1425 85.4512,56.52144 117.6984,96.03413 64.4943,79.02538 96.8803,181.05934 102.9822,282.879259 6.806,113.568293 -19.1275,231.325491 -86.0362,323.343411 -33.4544,46.00896 -76.8064,85.05257 -127.0244,111.77667 -50.2179,26.7241 -107.3193,40.92007 -164.1674,38.84315 -54.7657,-2.00084 -108.677,-19.06124 -155.6172,-47.34374 -46.9403,-28.28251 -86.9405,-67.60969 -117.6008,-113.03254 -61.3206,-90.84569 -84.1493,-204.153378 -77.2619,-313.541304 6.3221,-100.410486 37.739,-200.983796 100.4387,-279.666626 31.3498,-39.34142 70.2696,-72.8405 114.6583,-96.50911 44.3887,-23.6686 94.2706,-37.36936 144.571,-38.0234 z m -334.4576,629.07379 c 5.0312,73.94642 -25.5971,149.51689 -80.6919,199.09459 -55.0948,49.57771 -133.4663,72.09202 -206.4741,59.3152 -58.398,-10.22002 -112.8654,-42.61211 -148.7016,-89.84076 -35.8362,-47.22865 -52.3839,-108.9452 -43.7082,-167.59252 7.896,-53.37612 35.9386,-102.722197 74.2961,-140.670306 38.3575,-37.948109 86.6114,-64.983596 137.5336,-82.824135 101.8444,-35.681079 212.1992,-35.850795 320.1117,-36.418526 l 535.5885,-2.817747 c 102.38,-0.538624 205.1012,-12.11177 306.9871,-2.050707 50.943,5.030532 102.6126,18.250045 143.5069,49.042064 20.4471,15.3960095 37.8397,35.175601 48.8606,58.276726 11.0209,23.101125 15.4436,49.607137 10.6668,74.752801 -6.3712,33.53876 -28.8074,62.74651 -57.1914,81.71461 -28.384,18.9681 -62.2875,28.4185 -96.2444,31.93572 -18.3564,1.90134 -36.8835,2.15166 -55.2845,0.74695 18.9974,-0.53337 38.0299,0.18744 56.9325,2.15618 37.5177,3.90753 75.5742,13.22406 106.1193,35.35651 15.2725,11.06623 28.4182,25.27503 37.227,41.95189 8.8087,16.67686 13.1548,35.86518 11.2224,54.62626 -2.6467,25.69639 -16.9633,49.32989 -36.3232,66.43272 -19.3598,17.10283 -43.4595,28.12875 -68.2764,35.30034 -52.1507,15.07053 -108.9299,13.67645 -160.2782,-3.93527"
         style="fill:none;fill-rule:evenodd;stroke:#000000;stroke-width:140;stroke-linecap:round;stroke-linejoin:round;stroke-miterlimit:4;stroke-dasharray:none;stroke-opacity:1" />
      <path
         sodipodi:nodetypes="aaaaacaassaacaasc"
         inkscape:connector-curvature="0"
         inkscape:original-d="M -12.896796,-438.0733 C 178.10903,-439.16989 362.56284,-200.28817 367.74576,-9.0369419 373.41227,200.06134 186.40113,485.66752 -22.399592,481.95846 -225.57406,478.34938 -392.83206,194.39347 -384.88085,-8.9896553 -377.48098,-198.27015 -202.00969,-436.98758 -12.896796,-438.0733 Z M -358.80721,213.60666 c 0,0 -164.45831,280.76225 -296.99935,267.69591 -110.26672,-10.87034 -225.03723,-158.8117 -198.99841,-266.68432 47.96666,-198.714192 258.03898,-267.713747 550.15657,-269.253099 l 553.9285,-2.919 c 183.28749,-0.965789 499.78697,1.796996 527.48595,186.490049 9.77879,65.20311 -96.31991,96.64856 -158.6899,117.73443 -18.06003,6.10558 -57.17758,0.77379 -57.17758,0.77379 0,0 40.58567,-4.92109 58.88197,2.23367 65.26241,25.52037 157.58712,66.53865 159.86171,136.67582 1.63325,50.35899 -42.85753,101.61884 -108.18138,105.3889 -91.04173,5.25431 -165.76659,-4.07669 -165.76659,-4.07669"
         inkscape:path-effect="#path-effect4500-0-5-18-1-3"
         id="path4498-7-1-0-1-0"
         d="m -12.896796,-438.0733 c 52.792779,-0.6869 105.497545,12.55376 152.525906,36.55132 47.02836,23.99755 88.40176,58.60015 121.73723,99.54275 66.67094,81.88518 100.07066,187.53642 106.37942,292.9422881 C 374.7829,108.53872 348.07413,230.45923 278.91468,325.80349 244.33495,373.47562 199.49887,413.95 147.53348,441.6626 95.568097,469.37519 36.454196,484.10814 -22.399592,481.95846 -79.101027,479.8874 -134.91373,462.19078 -183.48802,432.86706 -232.06231,403.54335 -273.43129,362.77783 -305.12183,315.71349 -368.5029,221.58481 -392.00536,104.26497 -384.88085,-8.9896553 -378.34179,-112.93776 -345.942,-217.07714 -281.12756,-298.60662 c 32.40722,-40.76474 72.6596,-75.49103 118.59089,-100.033 45.93129,-24.54198 97.567492,-38.75615 149.639874,-39.43368 z M -358.80721,213.60666 c 5.37848,76.55704 -26.22642,154.8766 -83.23322,206.25883 -57.0068,51.38222 -138.177,74.7108 -213.76613,61.43708 -60.45157,-10.61551 -116.80851,-44.21124 -153.86142,-93.14143 -37.05291,-48.93019 -54.12861,-112.82854 -45.13699,-173.54289 8.17813,-55.22137 37.15096,-106.28534 76.79741,-145.584716 39.64644,-39.299379 89.5353,-67.3302704 142.20054,-85.841185 105.33048,-37.021829 219.51284,-37.238866 331.15862,-37.827198 l 553.9285,-2.919 c 105.89763,-0.558042 212.1564,-12.494208 317.53372,-1.994669 52.68866,5.24977 106.11753,18.97741 148.39431,50.8573131 21.13839,15.9399516 39.11663,36.4074899 50.51115,60.3047379 11.39453,23.897248 15.97203,51.310067 11.04677,77.322667 -6.57248,34.71232 -29.75941,64.95962 -59.11478,84.61681 -29.35538,19.65718 -64.43508,29.46787 -99.57512,33.11762 -18.98455,1.97179 -38.14662,2.23111 -57.17758,0.77379 19.64792,-0.5577 39.33277,0.18904 58.88197,2.23367 38.82349,4.06051 78.19618,13.75079 109.78073,36.68912 15.79227,11.46917 29.38057,26.18624 38.48422,43.45069 9.10365,17.26445 13.59315,37.12076 11.59676,56.53601 -2.7348,26.59636 -17.52999,51.06585 -37.54988,68.7873 -20.01988,17.72145 -44.95097,29.16144 -70.6315,36.6016 -53.92994,15.62458 -112.66989,14.17999 -165.76659,-4.07669"
         style="display:inline;fill:none;fill-rule:evenodd;stroke:#000000;stroke-width:70;stroke-linecap:round;stroke-linejoin:round;stroke-miterlimit:4;stroke-dasharray:none;stroke-opacity:1" />
      <path
         style="color:#000000;font-style:normal;font-variant:normal;font-weight:normal;font-stretch:normal;font-size:medium;line-height:normal;font-family:sans-serif;text-indent:0;text-align:start;text-decoration:none;text-decoration-line:none;text-decoration-style:solid;text-decoration-color:#000000;letter-spacing:normal;word-spacing:normal;text-transform:none;direction:ltr;block-progression:tb;writing-mode:lr-tb;baseline-shift:baseline;text-anchor:start;white-space:normal;clip-rule:nonzero;display:inline;overflow:visible;visibility:visible;opacity:1;isolation:auto;mix-blend-mode:normal;color-interpolation:sRGB;color-interpolation-filters:linearRGB;solid-color:#000000;solid-opacity:1;fill:#000000;fill-opacity:1;fill-rule:evenodd;stroke:none;stroke-width:70;stroke-linecap:round;stroke-linejoin:round;stroke-miterlimit:4;stroke-dasharray:none;stroke-dashoffset:0;stroke-opacity:1;color-rendering:auto;image-rendering:auto;shape-rendering:auto;text-rendering:auto;enable-background:accumulate"
         d="m -2701.3516,-473.07031 c -58.1391,0.75645 -115.0862,16.52748 -165.6796,43.56054 -50.5387,27.00376 -94.327,64.88651 -129.4942,109.12305 -53.8813,67.77683 -86.4126,148.8287 -101.8125,232.376954 -78.9873,2.704595 -159.3216,10.852966 -237.0742,38.181641 -56.5699,19.883346 -111.0718,50.22782419 -155.2344,94.003906 -44.3573,43.96904 -77.3062,101.335929 -86.7812,165.314449 -10.4537,70.58701 9.0755,143.30516 51.8574,199.80079 42.7095,56.39999 106.5192,94.33406 175.7109,106.48437 86.6736,15.2202 177.8856,-10.9951 243.252,-69.91211 36.0895,-32.52876 63.0205,-73.94654 78.9199,-119.27734 1.8522,2.88831 3.6121,5.82272 5.5332,8.67578 34.3425,51.00295 79.2443,95.37137 132.5781,127.56836 53.3957,32.23434 114.7665,51.79951 177.8985,54.10547 65.5375,2.3938 130.5364,-13.9157 187.6816,-44.39063 57.0748,-30.43739 105.748,-74.50125 143.2422,-126.1914 74.9715,-103.35678 102.8763,-233.19427 95.4375,-357.482426 -0.3225,-5.387623 -0.7718,-10.778891 -1.2285,-16.169922 55.0835,-1.935752 109.1451,-2.677113 161.8887,2.578125 49.0215,4.884396 95.9761,17.7215667 130.791,43.974609 17.2556,13.012056 31.4118,29.428549 39.9922,47.423828 8.4865,17.7983 11.6016,38.046376 8.25,55.748046 -4.4647,23.57997 -21.5564,46.8826 -44.1993,62.04492 -23.1176,15.4802 -52.6065,24.15551 -83.7168,27.38672 -5.217,0.54186 -10.4539,0.8876 -15.6953,1.13867 -12.9406,-0.68199 -25.904,-0.90484 -38.8594,-0.53711 a 35.0035,35.0035 0 0 0 -1.6796,69.88282 c 12.7806,0.97869 25.6056,1.17267 38.4121,0.75781 6.5082,0.36791 13.0198,0.71071 19.5019,1.38867 35.5287,3.71591 68.667,12.63371 92.8535,30.19922 11.9975,8.71313 21.8628,19.64215 28.0918,31.45508 6.1537,11.66988 8.9422,24.94203 7.7403,36.63086 -1.6445,15.99235 -11.4767,33.36465 -25.9317,46.16015 -14.8191,13.11779 -34.8885,22.7349 -57.1738,29.19141 -46.8515,13.57383 -98.5189,12.30383 -144.6465,-3.55664 a 35.0035,35.0035 0 1 0 -22.7597,66.19531 c 60.0657,20.65295 125.8783,22.27107 186.8867,4.59571 29.0757,-8.42383 58.8692,-21.68661 84.0898,-44.01172 25.5846,-22.6474 45.3428,-54.21372 49.168,-91.41407 2.7909,-27.14167 -3.3994,-53.58238 -15.4531,-76.4414 -11.9782,-22.71597 -29.2898,-41.22011 -48.877,-55.44531 -6.0913,-4.42385 -12.3875,-8.27383 -18.7637,-11.8711 1.9156,-1.19264 3.8718,-2.27675 5.7598,-3.54101 36.0679,-24.15207 65.349,-61.34281 74.0293,-107.1875 6.4988,-34.32291 0.4603,-68.90067 -13.8418,-98.896489 l 0,-0.002 c -14.2086,-29.7985024 -36.0105,-54.318033 -61.0313,-73.185547 -49.7387,-37.506761 -109.6424,-52.125086 -165.998,-57.740234 -60.493,-6.027387 -120.0428,-4.990496 -178.6406,-2.796875 -16.2831,-81.896892 -49.4448,-160.962292 -103.1348,-226.904292 -36.1917,-44.45064 -81.212,-82.20778 -132.9707,-108.61915 -51.8158,-26.44046 -109.9422,-41.14 -168.8887,-40.37304 z m 0.9102,69.99414 c 46.6392,-0.60683 93.9211,11.17584 136.1621,32.73047 42.2979,21.58375 80.0247,53.03029 110.5039,90.46484 42.9372,52.73549 71.2736,117.24209 86.3965,185.503907 -24.0372,0.931187 -47.902,1.699732 -71.5254,1.824219 l -553.9277,2.917968 c -11.1907,0.05897 -22.4917,0.122863 -33.8047,0.203125 14.625,-68.760359 42.3817,-133.903249 84.9062,-187.394529 29.6472,-37.29294 66.3636,-68.86317 107.6875,-90.94336 41.2692,-22.05088 87.5959,-34.70806 133.6016,-35.30664 z m 343.9062,378.48242 c 0.5334,5.876861 0.9914,11.7609 1.3438,17.6484375 6.6353,110.8631825 -18.8771,224.8655025 -82.2246,312.1972625 -31.6652,43.65411 -72.6636,80.53956 -119.5195,105.52735 -46.7856,24.95027 -100.0155,38.10867 -152.1856,36.20312 -50.2708,-1.83618 -100.5264,-17.66502 -144.2793,-44.07812 -43.8148,-26.45045 -81.651,-63.6145 -110.6894,-106.74024 -58.0947,-86.27761 -80.586,-196.02743 -73.8594,-302.9570288 0.2623,-4.1696912 0.6312,-8.3334032 0.9824,-12.4980472 14.7925,-0.166127 29.6271,-0.265364 44.502,-0.34375 l 553.9296,-2.919922 c 27.5632,-0.145247 54.8946,-1.00381 82,-2.039062 z m -750.7851,7.132812 c -0.1513,2.091091 -0.3607,4.183141 -0.4922,6.273438 -4.677,74.34779 3.0535,150.74147 26.0566,222.41211 a 35.0035,35.0035 0 0 0 0.035,4.83398 c 4.5898,65.33059 -23.1047,133.96115 -71.752,177.8086 -48.6472,43.84745 -119.7766,64.29013 -184.2812,52.96289 -51.7115,-9.08071 -100.6154,-38.33844 -132.0117,-79.79883 -31.3239,-41.36475 -45.9455,-96.44346 -38.416,-147.28516 6.8812,-46.46421 31.8789,-91.22575 66.8144,-125.855465 35.1302,-34.822674 80.4055,-60.539246 129.166,-77.677734 64.046,-22.5110492 133.3551,-30.566011 204.8809,-33.673829 z"
         id="path4498-7-1-0-1-0-3"
         inkscape:connector-curvature="0" />
      <path
         style="color:#000000;font-style:normal;font-variant:normal;font-weight:normal;font-stretch:normal;font-size:medium;line-height:normal;font-family:sans-serif;text-indent:0;text-align:start;text-decoration:none;text-decoration-line:none;text-decoration-style:solid;text-decoration-color:#000000;letter-spacing:normal;word-spacing:normal;text-transform:none;direction:ltr;block-progression:tb;writing-mode:lr-tb;baseline-shift:baseline;text-anchor:start;white-space:normal;clip-rule:nonzero;display:inline;overflow:visible;visibility:visible;opacity:1;isolation:auto;mix-blend-mode:normal;color-interpolation:sRGB;color-interpolation-filters:linearRGB;solid-color:#000000;solid-opacity:1;fill:#000000;fill-opacity:1;fill-rule:evenodd;stroke:none;stroke-width:140;stroke-linecap:round;stroke-linejoin:round;stroke-miterlimit:4;stroke-dasharray:none;stroke-dashoffset:0;stroke-opacity:1;color-rendering:auto;image-rendering:auto;shape-rendering:auto;text-rendering:auto;enable-background:accumulate"
         d="m 1943.793,788.5918 c -62.4066,0.81144 -122.8914,17.6142 -176.5957,46.25 -53.5958,28.5779 -99.5894,68.37425 -136.4668,114.65234 -50.2256,63.02886 -82.3496,136.22076 -99.9727,211.88866 -69.2778,3.652 -140.6569,12.9097 -211.4023,37.6953 -58.7255,20.5745 -116.2145,52.2243 -163.6211,99.125 -47.7998,47.2896 -83.8175,109.2574 -94.3106,180.1895 -11.6016,78.4265 9.8772,157.7929 57.1914,220.1484 47.1654,62.1594 116.541,103.205 192.3985,116.4805 95.1413,16.6503 193.5655,-11.6244 265.3633,-76.2324 23.4638,-21.1143 43.2925,-45.5083 59.2285,-72.0879 30.5987,36.059 66.8379,67.713 108.1679,92.6152 56.5753,34.0878 121.5865,54.8702 189.1856,57.3398 70.1874,2.5643 139.0403,-14.7694 199.6094,-47.0019 60.4297,-32.1584 111.4612,-78.3662 150.7539,-132.4043 74.0793,-101.8796 103.483,-226.5013 100.2109,-346.9219 39.5098,-0.8329 77.8297,-0.4608 114.7754,3.1875 49.0198,7.1033 137.857,30.464 141.1426,85.3457 2.4537,40.9851 -57.4854,73.9929 -97.0469,75.8555 -12.2794,-0.557 -34.5762,-0.7103 -46.8672,-0.3652 -37.1791,1.1133 -64.9966,27.1065 -65.8914,64.2915 -0.8948,37.185 27.4456,64.5777 64.5281,67.478 13.0827,0.9987 26.2024,1.2325 39.3086,0.8691 29.7531,5.9794 107.419,5.2423 107.8887,60.252 0.5072,59.4137 -84.4697,76.9903 -172.5371,44.7558 -36.7539,-13.1828 -77.1882,6.2497 -89.856,43.1843 -12.6677,36.9345 7.3281,71.0933 44.4361,83.2435 65.2554,22.3816 136.1468,24.1228 202.4218,4.9707 31.5887,-9.1285 65.4131,-23.7846 95.1875,-50.0879 30.5067,-26.9502 54.7769,-64.7857 59.6114,-111.7227 3.5268,-34.2405 -4.2344,-66.6153 -18.959,-94.4921 -10.1322,-19.1823 -23.2207,-35.4936 -37.9199,-49.2618 25.8307,-25.9624 45.6875,-59.1043 53.2363,-98.8418 7.9385,-41.7891 0.5873,-82.6436 -16.2598,-117.957 -16.6584,-34.9179 -41.7078,-62.805 -69.9316,-84.0566 -55.8379,-42.044 -120.4631,-57.029 -178.7344,-62.7832 -50.5992,-4.9966 -99.7879,-5.1327 -147.5957,-3.834 -18.4908,-73.3855 -50.9085,-144.0212 -100.4785,-204.75979 -37.9671,-46.52146 -85.2649,-86.19648 -140.166,-114.15234 -55.0141,-28.01339 -116.7564,-43.67823 -180.0332,-42.85547 z m 1.8203,139.98828 c 38.7171,-0.50342 78.8028,9.35338 114.6855,27.625 35.9957,18.32916 68.7034,45.41012 95.2305,77.91402 28.5118,34.9358 49.9699,76.4985 64.623,121.3789 -7.4558,0.1578 -14.9537,0.3695 -22.3203,0.4082 l -521.0371,2.7422 c 14.3146,-44.9669 35.3541,-86.681 63.4239,-121.9062 25.8222,-32.4048 57.6679,-59.60595 92.8496,-78.36525 35.073,-18.7014 74.3507,-29.30025 112.5449,-29.79687 z m 298.0078,366.52342 c 2.2732,94.1418 -21.6092,188.4079 -73.5293,259.8125 -27.6161,37.9797 -63.2869,69.8587 -103.293,91.1485 -39.8669,21.2156 -85.2178,32.2751 -128.7265,30.6855 -41.9323,-1.5319 -84.7417,-14.8724 -122.0469,-37.3496 -37.4277,-22.551 -70.3596,-54.6844 -95.707,-92.2363 -46.9505,-69.5566 -68.1967,-158.8139 -66.2812,-248.3731 2.9941,-0.018 5.9419,-0.053 8.9453,-0.068 l 535.5879,-2.8184 c 15.1741,-0.08 30.1672,-0.3934 45.0527,-0.8008 z m -729.6445,8.1348 c -0.7092,62.8399 7.4377,126.6051 26.3574,187.6015 0.019,0.5244 0.043,1.0485 0.074,1.5723 3.5059,51.5282 -19.2859,107.7612 -57.6777,142.3086 -38.3919,34.5474 -96.7098,51.2998 -147.584,42.3965 -40.9385,-7.1645 -80.4969,-30.9032 -105.0039,-63.2012 -24.3582,-32.1016 -35.9763,-76.169 -30.2266,-115.0371 5.2989,-35.8201 25.366,-72.5437 54.2813,-101.1504 29.3082,-28.9955 68.3283,-51.4167 111.4472,-66.5234 45.6787,-16.0035 95.6237,-23.8991 148.3321,-27.9668 z"
         id="path4498-7-1-0-1-4"
         inkscape:connector-curvature="0"
         sodipodi:nodetypes="ssscsssssscssssccaccsccscscsssscsssscsssssscscssscsssssccscccccsssssscc" />
      <path
         sodipodi:nodetypes="aaaaacaassaacaasc"
         inkscape:connector-curvature="0"
         inkscape:original-d="m 3573.5106,562.42538 c 129.7016,-0.74341 254.9542,161.20303 258.4735,290.85905 3.8478,141.75516 -123.1411,335.37777 -264.9263,332.86327 -137.9646,-2.4467 -251.5404,-194.95051 -246.1412,-332.83124 5.0249,-128.31997 124.1778,-290.15503 252.594,-290.89108 z m -234.8888,441.79712 c 0,0 -111.6746,190.3386 -201.676,181.4806 -74.8761,-7.3695 -152.8105,-107.6642 -135.1289,-180.7948 32.5715,-134.71549 175.2202,-181.49273 373.5812,-182.53634 l 376.1425,-1.97887 c 124.4604,-0.65475 339.3779,1.21821 358.1868,126.42826 6.6404,44.20344 -65.4055,65.52155 -107.7575,79.81635 -12.2637,4.1392 -38.8263,0.5245 -38.8263,0.5245 0,0 27.5595,-3.3361 39.9836,1.5143 44.3161,17.3012 107.0087,45.109 108.5533,92.6575 1.109,34.1401 -29.1022,68.891 -73.4601,71.4468 -61.8214,3.5621 -112.563,-2.7637 -112.563,-2.7637"
         inkscape:path-effect="#path-effect4500-0-5-18-1-4"
         id="path4498-7-1-0-1-1"
         d="m 3573.5106,562.42538 c 35.8151,-0.46568 71.5718,8.49613 103.4901,24.74905 31.9183,16.25293 60.0122,39.69489 82.6593,67.44456 45.2942,55.49934 68.0387,127.15756 72.3241,198.66544 4.7798,79.75874 -13.4332,162.45937 -60.423,227.08327 -23.495,32.312 -53.941,59.7323 -89.2089,78.5005 -35.268,18.7683 -75.3701,28.7381 -115.2944,27.2795 -38.4618,-1.4052 -76.3236,-13.3867 -109.2896,-33.2494 -32.9661,-19.8627 -61.0581,-47.4821 -82.5908,-79.3825 -43.0653,-63.8007 -59.0978,-143.37645 -54.2608,-220.19934 4.44,-70.51805 26.504,-141.15045 70.5378,-196.40922 22.017,-27.62939 49.3502,-51.15572 80.5243,-67.77812 31.1741,-16.6224 66.206,-26.24442 101.5319,-26.70374 z m -234.8888,441.79712 c 3.5334,51.9324 -17.9768,105.0054 -56.6697,139.8237 -38.693,34.8183 -93.7331,50.6301 -145.0063,41.6569 -41.0128,-7.1775 -79.2651,-29.9264 -104.4327,-63.095 -25.1677,-33.1685 -36.7891,-76.5119 -30.6962,-117.6998 5.5453,-37.48593 25.2396,-72.14157 52.1779,-98.79245 26.9384,-26.65088 60.827,-45.63785 96.5896,-58.16723 71.5251,-25.05876 149.027,-25.17795 224.8137,-25.57666 l 376.1425,-1.97887 c 71.9012,-0.37827 144.0421,-8.50605 215.5963,-1.44017 35.7771,3.53293 72.0646,12.81697 100.7845,34.44213 14.36,10.81258 26.5748,24.70373 34.3147,40.92759 7.74,16.22387 10.846,34.83897 7.4913,52.49871 -4.4745,23.55418 -20.2313,44.06672 -40.1653,57.38795 -19.934,13.3213 -43.7444,19.9583 -67.5922,22.4284 -12.8917,1.3353 -25.9032,1.5111 -38.8263,0.5245 13.3418,-0.3746 26.7083,0.1317 39.9836,1.5143 26.3486,2.7443 53.0756,9.2872 74.5274,24.8308 10.7259,7.7718 19.9581,17.7506 26.1444,29.4628 6.1864,11.7121 9.2386,25.188 7.8815,38.3639 -1.8588,18.0465 -11.9134,34.6442 -25.5097,46.6555 -13.5964,12.0113 -30.5216,19.7547 -47.9504,24.7913 -36.6253,10.584 -76.5012,9.6049 -112.563,-2.7637"
         style="display:inline;fill:none;fill-rule:evenodd;stroke:#000000;stroke-width:120;stroke-linecap:round;stroke-linejoin:round;stroke-miterlimit:4;stroke-dasharray:none;stroke-opacity:1" />
      <path
         style="color:#000000;font-style:normal;font-variant:normal;font-weight:normal;font-stretch:normal;font-size:medium;line-height:normal;font-family:sans-serif;text-indent:0;text-align:start;text-decoration:none;text-decoration-line:none;text-decoration-style:solid;text-decoration-color:#000000;letter-spacing:normal;word-spacing:normal;text-transform:none;direction:ltr;block-progression:tb;writing-mode:lr-tb;baseline-shift:baseline;text-anchor:start;white-space:normal;clip-rule:nonzero;display:inline;overflow:visible;visibility:visible;opacity:1;isolation:auto;mix-blend-mode:normal;color-interpolation:sRGB;color-interpolation-filters:linearRGB;solid-color:#000000;solid-opacity:1;fill:#000000;fill-opacity:1;fill-rule:evenodd;stroke:none;stroke-width:120;stroke-linecap:round;stroke-linejoin:round;stroke-miterlimit:4;stroke-dasharray:none;stroke-dashoffset:0;stroke-opacity:1;color-rendering:auto;image-rendering:auto;shape-rendering:auto;text-rendering:auto;enable-background:accumulate"
         d="m 3159.6859,1801.1815 c -122.1789,1.1793 -222.764,82.8516 -270.6367,184.8047 a 60.006,60.006 0 0 0 -0.053,0.1133 c -11.6507,24.9465 -21.0179,51.2128 -28.0332,78.2207 -20.7282,1.4307 -41.5516,3.2098 -62.5625,5.9062 a 60.006,60.006 0 0 0 -0.2988,0.039 c -55.3233,7.3838 -112.4444,26.6528 -161.8203,61.0508 -49.2713,34.3251 -91.2426,86.1145 -105.0586,152.875 -28.8844,132.7615 76.4901,258.2203 208.9629,262.3711 83.7975,6.4972 160.402,-35.0608 205.1484,-99.5567 5.6373,6.0862 11.4538,12.065 17.6035,17.832 95.7377,92.9412 248.4322,108.1082 359.2774,30.9786 110.2979,-72.9612 158.5323,-197.7921 157.832,-320.5567 4.7271,-0.1626 9.4433,-0.2498 14.1719,-0.4238 32.7436,-0.1367 67.1108,2.2334 92.539,9.9453 25.5329,7.7437 39.5471,17.3267 48.9942,35.7109 a 60.006,60.006 0 0 0 0.5527,1.0469 c 3.7412,6.9402 3.2795,10.9248 -2.668,20.3926 -5.9475,9.4678 -18.8909,18.0949 -27.9101,19.5781 a 60.006,60.006 0 0 0 -12.6641,3.543 c 12.3485,-4.9696 -11.2636,0.1007 -23.7441,0.9238 -4.1276,-0.2084 -7.8351,-0.2793 -15.6856,0.1192 -0.8571,0.044 -1.6862,0.028 -4.7812,0.4257 -1.5475,0.1988 -3.1707,0.168 -9.1309,1.8985 -2.98,0.8652 -6.8778,1.3562 -16.1582,7.4355 -9.2803,6.0793 -25.2328,65.1451 -25.2324,65.1465 4e-4,0 24.3892,35.1525 30.4902,38.3164 6.1011,3.1639 8.9421,3.8003 11.168,4.4356 4.4518,1.2705 5.9612,1.3932 7.2871,1.5996 2.6519,0.4127 3.4763,0.4449 4.2774,0.5136 3.2005,0.2746 3.715,0.2336 5.0722,0.2754 -1.202,0.1358 5.7961,0.1417 14.2949,0.2696 4.7571,0.1619 10.0478,0.2625 15.8086,0.3144 13.616,1.1859 33.3301,7.6834 43.0899,15.1641 8.9361,6.8494 10.4005,6.4911 9.2441,11.0781 -5.1916,11.0991 -14.9768,17.9801 -35.7812,22.7031 -22.0533,5.0066 -52.6093,2.6231 -71.584,-3.7695 a 60.006,60.006 0 1 0 -38.3125,113.7207 c 41.4705,13.9715 88.863,17.877 136.4648,7.0703 47.6018,-10.8066 99.2215,-41.3525 121.5508,-97.084 a 60.006,60.006 0 0 0 2.0488,-6.0156 c 13.3104,-47.1493 -4.4144,-94.208 -31.8925,-125.3047 4.9157,-5.8841 9.5862,-11.9873 13.6933,-18.5254 24.0552,-38.2931 32.2432,-93.2622 6.9082,-140.707 -26.872,-51.7966 -75.1802,-81.3422 -120.5742,-95.1094 -45.57,-13.8206 -90.6917,-15.2962 -128.3477,-15.1152 a 60.006,60.006 0 0 0 -1.9335,0.041 c -9.2102,0.3415 -18.4501,0.5262 -27.668,0.8242 -0.4578,-1.6631 -0.889,-3.3375 -1.3652,-4.9922 -34.5894,-133.1978 -151.3847,-251.9602 -302.584,-249.5234 z m 1.7441,119.9805 c 76.6128,-1.3238 148.5291,61.776 177.4141,137.4726 -67.5335,1.0295 -135.2422,1.4105 -203.1582,1.5703 a 60.006,60.006 0 0 0 -1.2774,0.016 c -47.561,1.1247 -96.5577,0.3375 -146.457,0.3613 2.962,-8.0442 6.1619,-15.9658 9.7519,-23.6563 30.4979,-64.8901 96.1157,-115.1506 163.2325,-115.7578 a 60.006,60.006 0 0 0 0.4941,-0.01 z m 197.8399,257.1328 c -1.0498,86.6645 -35.2224,172.6984 -103.6973,217.75 a 60.006,60.006 0 0 0 -1.459,0.9902 c -60.3201,42.2769 -154.8354,33.1973 -207.8887,-18.5683 a 60.006,60.006 0 0 0 -0.9297,-0.8887 c -51.8908,-48.5033 -76.9437,-121.9551 -77.7148,-196.7031 54.7304,-0.3618 110.9634,0.6588 168.5059,-0.67 74.1777,-0.1746 148.5937,-0.618 223.1836,-1.9101 z m -513.2227,7.5644 c 0.4922,42.0327 6.9207,83.9372 19.752,123.9024 4.7598,59.8935 -57.448,122.3819 -117.3672,117.1308 a 60.006,60.006 0 0 0 -3.7969,-0.2129 c -54.5927,-1.3114 -107.7768,-64.0973 -96.127,-117.1523 a 60.006,60.006 0 0 0 0.1739,-0.8203 c 6.6768,-32.5763 25.9647,-57.8688 56.1933,-78.9277 30.1943,-21.035 70.8822,-35.443 108.9707,-40.5469 10.6476,-1.3641 21.4083,-2.4076 32.2012,-3.3731 z"
         id="path4498-7-1-0-1-1-2"
         inkscape:connector-curvature="0" />
      <path
         sodipodi:nodetypes="aaaaacaassaacaasc"
         inkscape:connector-curvature="0"
         inkscape:original-d="m 4950.8403,556.88631 c 136.5879,-0.78439 268.4905,170.08787 272.1967,306.88999 4.0522,149.5681 -129.679,353.8624 -278.992,351.2093 -145.2897,-2.5815 -264.8955,-205.6954 -259.2096,-351.17551 5.2916,-135.39243 130.7708,-306.14716 266.0049,-306.92378 z m -247.3597,466.14719 c 0,0 -117.6038,200.8293 -212.3837,191.483 -78.8515,-7.7757 -160.9237,-113.5982 -142.3033,-190.7594 34.3008,-142.1405 184.5232,-191.49591 393.4158,-192.59704 l 396.1132,-2.08794 c 131.0683,-0.69083 357.3965,1.28535 377.204,133.3965 6.9931,46.63968 -68.8779,69.13278 -113.4785,84.21538 -12.9149,4.3674 -40.8878,0.5535 -40.8878,0.5535 0,0 29.0227,-3.52 42.1064,1.5978 46.6691,18.2547 112.6902,47.5952 114.3168,97.7644 1.1678,36.0217 -30.6473,72.688 -77.3603,75.3846 -65.1037,3.7584 -118.5394,-2.9161 -118.5394,-2.9161"
         inkscape:path-effect="#path-effect4500-0-5-18-1-4-2"
         id="path4498-7-1-0-1-1-4"
         d="m 4950.8403,556.88631 c 37.7582,-0.49135 75.4531,8.98236 109.0859,26.15072 33.6329,17.16837 63.219,41.92263 87.0551,71.21012 47.6723,58.575 71.5446,134.1413 76.0557,209.52915 5.032,84.09279 -14.0534,171.2941 -63.5041,239.4963 -24.7254,34.1012 -56.7875,63.0559 -93.9513,82.8823 -37.1637,19.8263 -79.4431,30.3681 -121.5366,28.8307 -40.5546,-1.4812 -80.473,-14.1425 -115.2117,-35.1208 -34.7387,-20.9784 -64.3214,-50.1411 -86.9808,-83.8074 -45.3188,-67.3326 -62.112,-151.24415 -57.0171,-232.24731 4.6761,-74.34538 27.8336,-148.83036 74.1782,-207.15082 23.1724,-29.16022 51.9567,-54.00285 84.8049,-71.56057 32.8482,-17.55772 69.7788,-27.72775 107.0218,-28.21239 z m -247.3597,466.14719 c 3.8679,54.7555 -18.7238,110.7817 -59.4924,147.5383 -40.7686,36.7565 -98.8276,53.4441 -152.8913,43.9447 -43.2355,-7.5968 -83.5392,-31.6327 -110.0343,-66.6331 -26.4952,-35.0003 -38.7012,-80.7023 -32.269,-124.1263 5.8496,-39.49087 26.5643,-76.01012 54.9123,-104.11947 28.348,-28.10936 64.0213,-48.16284 101.682,-61.40735 75.3215,-26.48901 156.9791,-26.64937 236.8215,-27.07022 l 396.1132,-2.08794 c 75.7286,-0.39917 151.7166,-8.93057 227.072,-1.4107 37.6777,3.75993 75.8833,13.58342 106.1131,36.38483 15.1149,11.40071 27.9699,26.03833 36.1176,43.12784 8.1477,17.0895 11.4215,36.69225 7.9013,55.29453 -4.6979,24.82576 -21.2766,46.46038 -42.2684,60.52208 -20.9918,14.0617 -46.0791,21.0819 -71.2101,23.6933 -13.5758,1.4107 -27.2788,1.5962 -40.8878,0.5535 14.0502,-0.3995 28.1269,0.1346 42.1064,1.5978 27.7652,2.9061 55.9222,9.8424 78.5074,26.2515 11.2927,8.2045 21.0087,18.7314 27.5178,31.0792 6.5092,12.3479 9.719,26.5484 8.2916,40.4337 -1.9554,19.0215 -12.5339,36.5228 -26.8498,49.1995 -14.3158,12.6766 -32.1447,20.8618 -50.5105,26.1851 -38.5644,11.1778 -80.5713,10.1444 -118.5394,-2.9161"
         style="display:inline;fill:none;fill-rule:evenodd;stroke:#000000;stroke-width:60.00000381;stroke-linecap:round;stroke-linejoin:round;stroke-miterlimit:4;stroke-dasharray:none;stroke-opacity:1" />
      <path
         style="color:#000000;font-style:normal;font-variant:normal;font-weight:normal;font-stretch:normal;font-size:medium;line-height:normal;font-family:sans-serif;text-indent:0;text-align:start;text-decoration:none;text-decoration-line:none;text-decoration-style:solid;text-decoration-color:#000000;letter-spacing:normal;word-spacing:normal;text-transform:none;direction:ltr;block-progression:tb;writing-mode:lr-tb;baseline-shift:baseline;text-anchor:start;white-space:normal;clip-rule:nonzero;display:inline;overflow:visible;visibility:visible;opacity:1;isolation:auto;mix-blend-mode:normal;color-interpolation:sRGB;color-interpolation-filters:linearRGB;solid-color:#000000;solid-opacity:1;fill:#000000;fill-opacity:1;fill-rule:evenodd;stroke:none;stroke-width:60.00000381;stroke-linecap:round;stroke-linejoin:round;stroke-miterlimit:4;stroke-dasharray:none;stroke-dashoffset:0;stroke-opacity:1;color-rendering:auto;image-rendering:auto;shape-rendering:auto;text-rendering:auto;enable-background:accumulate"
         d="m 4681.459,1560.7617 c -42.4451,0.5523 -83.9286,12.0579 -120.7735,31.752 -36.7979,19.6688 -68.6128,47.2169 -94.1503,79.3535 -38.2778,48.1689 -61.6783,105.4134 -73.0957,164.4609 -55.4458,2.0802 -111.9933,8.1293 -166.9961,27.4727 -41.0081,14.4217 -80.6337,36.4598 -112.8516,68.4062 -32.3844,32.1118 -56.5039,74.0335 -63.4648,121.0274 -7.6854,51.8837 6.621,105.1436 38.0253,146.6289 31.3425,41.4038 78.0332,69.1589 128.7618,78.0722 63.5673,11.1693 130.2367,-7.9931 178.1718,-51.2109 23.9617,-21.6036 42.4268,-48.4829 54.336,-78.0078 24.7475,36.1755 56.8169,67.6958 94.9121,90.7012 38.8719,23.4742 83.5564,37.7373 129.625,39.4199 47.8245,1.7467 95.1477,-10.1466 136.7519,-32.3418 41.5438,-22.1631 76.8963,-54.1965 104.1192,-91.7422 54.4308,-75.0707 74.5381,-169.0544 69.1621,-258.8965 -0.1293,-2.1608 -0.4386,-4.3242 -0.5977,-6.4863 37.5592,-1.2418 74.2759,-1.5545 110.0313,2.0137 34.5341,3.4462 67.1901,12.5061 91.0254,30.4843 11.7877,8.8911 21.3672,20.0564 27.1035,32.0879 5.6559,11.8632 7.6764,25.3264 5.5039,36.8067 -2.8925,15.285 -14.2475,30.9658 -29.4863,41.1738 -15.6456,10.4804 -35.9404,16.527 -57.6153,18.7793 -4.1564,0.4319 -8.3378,0.5653 -12.5156,0.7324 -8.7025,-0.407 -17.415,-0.5758 -26.125,-0.3281 a 30.003002,30.003002 0 0 0 -1.4394,59.9004 c 9.2418,0.7081 18.5152,0.8541 27.7753,0.5625 4.5052,0.2581 9.0129,0.4913 13.5,0.9609 24.9383,2.6102 47.7528,8.8827 63.9981,20.6856 8.0405,5.8416 14.5669,13.1209 18.6133,20.7968 3.9818,7.5536 5.7331,16.1124 4.9863,23.377 -1.0213,9.9348 -7.3473,21.3526 -16.8945,29.8066 -9.859,8.7301 -23.5203,15.3527 -38.9746,19.8321 -32.4948,9.4185 -68.4374,8.5342 -100.4297,-2.4707 a 30.003002,30.003002 0 1 0 -19.5157,56.7363 c 43.9439,15.1161 92.0145,16.2984 136.6485,3.3613 21.2773,-6.1672 43.2742,-15.9159 62.0469,-32.539 19.0844,-16.8992 33.9151,-40.4837 36.8046,-68.5918 2.1081,-20.5061 -2.5593,-40.348 -11.5957,-57.4903 -8.972,-17.0196 -21.8789,-30.794 -36.4238,-41.3613 l 0,0 c -2.3133,-1.6807 -4.6984,-3.1387 -7.0664,-4.6524 25.6267,-17.9384 46.3592,-44.8013 52.6641,-78.1191 4.8679,-25.7244 0.3406,-51.4672 -10.2989,-73.7832 -10.5591,-22.1475 -26.6907,-40.2577 -45.1328,-54.168 -36.6243,-27.6246 -80.3779,-38.2116 -121.1992,-42.2852 -42.1919,-4.2104 -83.616,-3.6741 -124.2519,-2.2168 -12.0581,-57.7651 -35.8001,-113.5027 -73.8731,-160.2832 -26.2838,-32.2949 -58.9955,-59.7537 -96.6836,-78.9921 -37.737,-19.2634 -80.0805,-29.9877 -123.1152,-29.4278 z m 0.7812,59.9942 c 32.4817,-0.4227 65.5261,7.7997 95.0547,22.873 29.5777,15.0984 56.0393,37.1477 77.4278,63.4277 28.9015,35.5114 48.2777,78.8158 59.2461,124.7969 -15.0547,0.554 -30.0131,1.0139 -44.795,1.0918 l -396.1133,2.0879 c -5.8459,0.031 -11.8927,0.1516 -17.7929,0.1856 10.6346,-46.3068 29.6317,-90.0198 58.2422,-126.0235 20.8072,-26.184 46.5605,-48.321 75.459,-63.7676 28.8513,-15.4213 61.2305,-24.2549 93.2714,-24.6718 z m 241.1387,270.9023 c 0.2055,2.5981 0.5651,5.1822 0.7207,7.7832 4.688,78.3436 -13.3751,158.7601 -57.8457,220.0938 -22.2279,30.6566 -50.9994,56.5337 -83.7832,74.0234 -32.7232,17.4574 -69.9597,26.6464 -106.3223,25.3184 -35.0405,-1.2799 -70.1913,-12.338 -100.7968,-30.8204 -30.6587,-18.5144 -57.2147,-44.5889 -77.6016,-74.8789 -40.7891,-60.6025 -56.719,-138.0253 -51.9648,-213.6113 0.088,-1.4041 0.2958,-2.7979 0.3984,-4.2012 9.0753,-0.09 18.0612,-0.2858 27.1934,-0.334 l 396.1132,-2.0878 c 18.1325,-0.096 36.0874,-0.6325 53.8887,-1.2852 z m -537.5215,5.1465 c -3.2305,53.1275 2.2905,107.7159 18.6406,159.0742 a 30.003002,30.003002 0 0 0 0.067,3.1406 c 3.1879,45.1303 -16.0543,92.8473 -49.6563,123.1426 -33.602,30.2952 -83.0513,44.5092 -127.6113,36.6797 -35.7425,-6.2802 -69.6569,-26.5963 -91.3047,-55.1934 a 30.003002,30.003002 0 0 0 -0,0 c -21.5861,-28.5153 -31.6908,-66.6588 -26.5117,-101.623 4.7382,-31.9879 22.0478,-63.1059 46.3594,-87.2129 24.4783,-24.2721 56.1984,-42.3409 90.5117,-54.4082 43.4647,-15.2856 90.5956,-21.1996 139.5078,-23.5996 z"
         id="path4498-7-1-0-1-1-4-0"
         inkscape:connector-curvature="0" />
      <path
         style="color:#000000;font-style:normal;font-variant:normal;font-weight:normal;font-stretch:normal;font-size:medium;line-height:normal;font-family:sans-serif;text-indent:0;text-align:start;text-decoration:none;text-decoration-line:none;text-decoration-style:solid;text-decoration-color:#000000;letter-spacing:normal;word-spacing:normal;text-transform:none;direction:ltr;block-progression:tb;writing-mode:lr-tb;baseline-shift:baseline;text-anchor:start;white-space:normal;clip-rule:nonzero;display:inline;overflow:visible;visibility:visible;opacity:1;isolation:auto;mix-blend-mode:normal;color-interpolation:sRGB;color-interpolation-filters:linearRGB;solid-color:#000000;solid-opacity:1;fill:#000000;fill-opacity:1;fill-rule:evenodd;stroke:none;stroke-width:200;stroke-linecap:round;stroke-linejoin:round;stroke-miterlimit:4;stroke-dasharray:none;stroke-dashoffset:0;stroke-opacity:1;color-rendering:auto;image-rendering:auto;shape-rendering:auto;text-rendering:auto;enable-background:accumulate"
         d="m 1853.377,2202.5938 c -72.7524,0.9646 -142.1963,22.2598 -202.5567,57.6152 -60.1402,35.2263 -109.8324,83.4147 -148.2402,138.1367 -48.1766,68.6402 -77.4242,145.1674 -93.041,222.9258 -61.8363,4.789 -125.7967,14.9643 -190.1036,37.4941 -62.0696,21.7461 -123.514,55.3738 -174.7988,106.1114 -51.84638,51.293 -91.2845,118.6689 -102.89061,197.125 -12.85561,86.9032 10.73533,173.8352 62.96871,242.6738 52.0207,68.5583 127.7868,113.3114 211.127,127.8965 104.6271,18.3103 211.6474,-12.4348 290.6035,-83.4844 16.5502,-14.8929 31.3615,-31.2677 44.5391,-48.7149 25.9233,26.7233 55.0629,50.7921 87.539,70.9649 60.112,37.3391 129.8116,60.603 203.3301,63.2969 76.31,2.7961 150.1597,-16.8069 214.5684,-52.2266 64.1593,-35.2827 117.2817,-85.1559 158.0371,-142.4687 a 100.01,100.01 0 0 0 0,-0 c 71.1843,-100.1042 101.987,-217.5324 107.4433,-331.834 28.8065,-0.1081 56.718,0.6271 83.4571,3.2676 40.474,3.9968 73.6372,14.6944 93.1836,29.4121 9.3375,7.0309 15.7885,15.2293 18.7558,21.4492 2.6978,5.655 2.9398,11.662 2.6797,13.0313 -0.3245,1.7085 -5.3146,11.0896 -14.5097,17.2343 -10.5563,7.0544 -28.5037,13.2827 -50.9864,15.6114 -3.2883,0.3406 -6.6044,0.3944 -9.9101,0.5781 -12.6164,-0.544 -25.2485,-0.6788 -37.877,-0.3242 a 100.01,100.01 0 0 0 -4.8066,199.6699 c 13.701,1.0459 27.4386,1.3224 41.1621,0.9844 4.3445,0.2804 8.6956,0.4731 13.0234,0.9238 28.1585,2.9327 48.4195,10.0708 57.8047,16.8711 2.9228,2.1178 4.686,4.0567 5.9238,5.6191 -0.4001,0.4849 -0.7572,0.9647 -1.33,1.4707 -4.4818,3.9593 -14.6891,9.7998 -29.8321,14.1758 -31.9733,9.2396 -68.591,8.3406 -100.0722,-2.457 a 100.01,100.01 0 1 0 -64.8868,189.1816 c 71.2156,24.4259 148.1542,26.3155 220.4825,5.4141 34.4908,-9.9672 72.4847,-26.1794 106.7226,-56.4258 35.2839,-31.1704 63.8178,-75.0907 69.5899,-131.1308 4.2101,-40.8747 -5.0135,-78.9014 -22.2735,-111.5782 -6.916,-13.0934 -14.9877,-24.9351 -23.834,-35.7207 20.1252,-25.9036 35.2728,-56.855 42.0957,-92.7715 9.2935,-48.9221 0.6897,-95.9273 -18.6543,-136.4746 -19.0744,-39.9822 -47.4081,-71.3443 -78.9648,-95.1054 -62.2422,-46.8663 -132.42,-62.6075 -193.832,-68.6719 -41.0668,-4.0553 -80.8581,-5.0226 -119.4414,-4.6621 -16.5695,-74.8325 -46.1094,-148.081 -93.3125,-213.707 -39.6038,-55.0608 -90.7675,-103.1696 -152.4082,-137.709 -61.8699,-34.6678 -132.7628,-54.6434 -206.4746,-53.666 z m 2.6523,199.9824 c 35.2098,-0.4669 72.8987,9.5795 106.0586,28.1601 33.3888,18.709 63.8075,46.6444 87.8105,80.0157 21.7139,30.1886 38.362,65.2501 50.2618,103.1933 l -483.0313,2.543 c 11.6219,-37.8801 27.8824,-72.9387 49.1543,-103.2461 23.3663,-33.2914 52.9775,-61.3365 85.6211,-80.457 32.4232,-18.9915 69.3584,-29.7481 104.125,-30.209 z m 265.0391,411.1367 c -6.1109,78.496 -28.778,152.9133 -69.6016,210.3223 -24.7668,34.8285 -56.5067,63.9245 -91.418,83.123 -34.6619,19.0613 -74.194,28.9552 -110.8711,27.6113 -35.3737,-1.2961 -72.6752,-13.1677 -105.125,-33.3242 -32.6691,-20.2927 -61.9709,-49.6086 -84.7187,-84.0762 -36.8194,-55.7886 -57.1029,-126.303 -62.7402,-200.7714 l 512.1328,-2.6934 c 4.1634,-0.022 8.2083,-0.1421 12.3418,-0.1914 z m -724.4883,10.4023 c 3.0402,47.9724 10.5746,96.3831 23.8535,143.7793 a 100.01,100.01 0 0 0 0.043,14.5528 c 2.8522,41.9204 -16.5791,89.8668 -47.8125,117.9726 -31.2335,28.1058 -80.9573,42.3897 -122.3457,35.1465 -33.4559,-5.855 -66.6257,-25.8861 -86.2774,-51.7852 -19.439,-25.6186 -28.943,-62.1204 -24.4472,-92.5117 4.1858,-28.2961 20.8345,-59.6116 45.7031,-84.2148 25.43,-25.1586 60.4928,-45.602 100.2676,-59.5371 33.9634,-11.8991 71.2882,-18.968 111.0156,-23.4024 z"
         id="path4498-7-1-0-1-3"
         inkscape:connector-curvature="0" />
    </g>
  </g>
</svg>
