<?xml version="1.0" encoding="UTF-8" standalone="no"?>
<!-- Created with Inkscape (http://www.inkscape.org/) -->

<svg
   xmlns:dc="http://purl.org/dc/elements/1.1/"
   xmlns:cc="http://creativecommons.org/ns#"
   xmlns:rdf="http://www.w3.org/1999/02/22-rdf-syntax-ns#"
   xmlns:svg="http://www.w3.org/2000/svg"
   xmlns="http://www.w3.org/2000/svg"
   xmlns:sodipodi="http://sodipodi.sourceforge.net/DTD/sodipodi-0.dtd"
   xmlns:inkscape="http://www.inkscape.org/namespaces/inkscape"
   width="2000"
   height="2048"
   id="svg2992"
   version="1.1"
   inkscape:version="0.91 r13725"
   sodipodi:docname="കൃ.svg">
  <defs
     id="defs5498">
    <inkscape:path-effect
       effect="spiro"
       id="path-effect3846"
       is_visible="true" />
    <inkscape:path-effect
       effect="spiro"
       id="path-effect3801"
       is_visible="true" />
    <inkscape:path-effect
       effect="spiro"
       id="path-effect4500"
       is_visible="true" />
    <inkscape:path-effect
       effect="spiro"
       id="path-effect4500-8"
       is_visible="true" />
    <inkscape:path-effect
       effect="spiro"
       id="path-effect4500-0"
       is_visible="true" />
    <inkscape:path-effect
       effect="spiro"
       id="path-effect4500-0-5"
       is_visible="true" />
    <inkscape:path-effect
       effect="spiro"
       id="path-effect4500-0-5-5"
       is_visible="true" />
    <inkscape:path-effect
       is_visible="true"
       id="path-effect4500-0-5-18"
       effect="spiro" />
    <inkscape:path-effect
       is_visible="true"
       id="path-effect4500-0-5-18-3"
       effect="spiro" />
    <inkscape:path-effect
       is_visible="true"
       id="path-effect4500-0-5-18-3-5"
       effect="spiro" />
    <inkscape:path-effect
       is_visible="true"
       id="path-effect4500-0-5-18-3-0"
       effect="spiro" />
    <inkscape:path-effect
       is_visible="true"
       id="path-effect4500-0-5-18-3-9"
       effect="spiro" />
    <inkscape:path-effect
       is_visible="true"
       id="path-effect4500-0-5-18-3-9-8"
       effect="spiro" />
    <inkscape:path-effect
       effect="spiro"
       id="path-effect4187"
       is_visible="true" />
    <inkscape:path-effect
       effect="spiro"
       id="path-effect4183"
       is_visible="true" />
    <inkscape:path-effect
       effect="spiro"
       id="path-effect4183-0"
       is_visible="true" />
    <inkscape:path-effect
       is_visible="true"
       id="path-effect4500-0-5-18-3-2"
       effect="spiro" />
    <inkscape:path-effect
       effect="spiro"
       id="path-effect4183-3"
       is_visible="true" />
    <inkscape:path-effect
       is_visible="true"
       id="path-effect4500-0-5-18-3-98"
       effect="spiro" />
    <inkscape:path-effect
       is_visible="true"
       id="path-effect4500-0-5-18-3-98-7"
       effect="spiro" />
    <inkscape:path-effect
       effect="spiro"
       id="path-effect4183-3-8"
       is_visible="true" />
    <inkscape:path-effect
       effect="spiro"
       id="path-effect4183-5"
       is_visible="true" />
    <inkscape:path-effect
       is_visible="true"
       id="path-effect4500-0-5-18-3-6"
       effect="spiro" />
    <inkscape:path-effect
       effect="spiro"
       id="path-effect4183-3-0"
       is_visible="true" />
    <inkscape:path-effect
       is_visible="true"
       id="path-effect4500-0-5-18-3-98-0"
       effect="spiro" />
  </defs>
  <sodipodi:namedview
     inkscape:window-height="845"
     inkscape:window-width="1600"
     inkscape:pageshadow="2"
     inkscape:pageopacity="0.0"
     borderopacity="1.0"
     bordercolor="#666666"
     pagecolor="#ffffff"
     id="base"
     showgrid="true"
     showguides="true"
     inkscape:guide-bbox="true"
     inkscape:zoom="0.1767767"
     inkscape:cx="-1283.1183"
     inkscape:cy="-468.83077"
     inkscape:window-x="1600"
     inkscape:window-y="26"
     inkscape:current-layer="layer1"
     inkscape:window-maximized="1">
    <sodipodi:guide
       orientation="horizontal"
       position="1872,600"
       id="guide5596" />
    <inkscape:grid
       type="xygrid"
       id="grid3769"
       empspacing="3"
       visible="true"
       enabled="true"
       snapvisiblegridlinesonly="true"
       spacingx="4px"
       units="px"
       dotted="true"
       spacingy="4px" />
    <sodipodi:guide
       orientation="0,1"
       position="-1040,1600"
       id="guide2985" />
    <sodipodi:guide
       position="2880,1724"
       orientation="0,1"
       id="guide4188"
       inkscape:label=""
       inkscape:color="rgb(0,0,255)" />
    <sodipodi:guide
       position="-1920,1624"
       orientation="0,1"
       id="guide4168"
       inkscape:label=""
       inkscape:color="rgb(0,0,255)" />
  </sodipodi:namedview>
  <metadata
     id="metadata5594">
    <rdf:RDF>
      <cc:Work
         rdf:about="">
        <dc:format>image/svg+xml</dc:format>
        <dc:type
           rdf:resource="http://purl.org/dc/dcmitype/StillImage" />
        <dc:title />
      </cc:Work>
    </rdf:RDF>
  </metadata>
  <g
     inkscape:label="Layer 1"
     inkscape:groupmode="layer"
     id="layer1"
     transform="translate(0,1048)">
    <path
       sodipodi:nodetypes="aaaaacaassaaac"
       inkscape:connector-curvature="0"
       inkscape:original-d="m 959.08585,-558.78927 c 185.76975,-1.06477 365.16705,230.88867 370.20785,416.59302 5.5112,203.033791 -176.3733,480.35658 -379.45014,476.7551 -197.60472,-3.50442 -360.27768,-279.224745 -352.54434,-476.70922 7.19701,-183.79076 177.858,-415.5847 361.78663,-416.6389 z M 622.65807,73.990071 c 0,0 -159.95002,272.619289 -288.85764,259.931919 C 226.55652,323.36691 114.93221,179.7163 140.25724,74.97233 186.909,-117.97864 391.21883,-186.08106 675.33221,-186.47172 l 606.74339,-0.83429 c 178.2652,-0.24512 279.3398,31.88695 344.4146,136.900492 112.0518,180.822078 51.8508,450.815578 -52.8625,635.984048 -69.3378,122.61258 -213.4417,191.40314 -342.8479,247.04137 -82.4225,35.43759 -264.425,50.23 -264.425,50.23"
       inkscape:path-effect="#path-effect4500-0-5-18-3"
       id="path4498-7-1-0-8"
       d="m 959.08585,-558.78927 c 51.29735,-0.667 102.51115,12.16886 148.22725,35.44767 45.7162,23.27882 85.9546,56.85437 118.3918,96.59981 64.8742,79.49087 97.4509,182.12586 103.5888,284.54554 6.8461,114.237278 -19.2402,232.688136 -86.5431,325.24809 -33.6514,46.27997 -77.2588,85.55356 -127.7726,112.43508 -50.5137,26.88151 -107.9515,41.1611 -165.13444,39.07193 C 894.75523,332.54621 840.52644,315.38532 793.30968,286.93621 746.09292,258.4871 705.85707,218.92826 675.01618,173.23785 613.33439,81.857027 590.37127,-32.1181 597.29922,-142.15037 c 6.35938,-101.00194 37.96133,-202.16766 101.03033,-281.31396 31.53449,-39.57315 70.68353,-73.26955 115.33369,-97.07757 44.65016,-23.80802 94.82591,-37.58948 145.42261,-38.24737 z M 622.65807,73.990071 C 627.786,148.38861 596.99682,224.45251 541.56181,274.33635 486.12679,324.2202 407.24766,346.84261 333.80043,333.92199 275.0908,323.59397 220.36137,290.97516 184.34048,243.47795 148.31959,195.98074 131.65537,133.95959 140.25724,74.97233 c 7.83893,-53.755426 35.9229,-103.515727 74.44387,-141.820163 38.52096,-38.304437 87.05598,-65.629057 138.31286,-83.624277 102.51374,-35.99043 213.67039,-35.85022 322.31824,-35.99961 l 606.74339,-0.83429 c 64.3672,-0.0885 129.9172,2.60465 190.4103,24.59859 60.4931,21.99394 114.1039,61.79339 154.0043,112.301902 71.2099,90.142143 98.4382,210.829708 84.7948,324.892478 -13.6433,114.06277 -65.8359,221.43586 -137.6573,311.09157 -89.1442,111.28003 -209.1997,197.36154 -342.8479,247.04137 -84.4935,31.40798 -174.3001,48.46759 -264.425,50.23"
       style="fill:none;fill-rule:evenodd;stroke:#000000;stroke-width:140;stroke-linecap:round;stroke-linejoin:round;stroke-miterlimit:4;stroke-dasharray:none;stroke-opacity:1" />
    <path
       style="fill:none;fill-rule:evenodd;stroke:#000000;stroke-width:140;stroke-linecap:round;stroke-linejoin:round;stroke-miterlimit:4;stroke-dasharray:none;stroke-opacity:1"
       d="m 674,738 c 3.85743,27.08362 16.94009,52.4687 35.269,72.77765 18.32891,20.30895 41.73341,35.68918 66.88747,46.44443 50.30812,21.5105 106.34471,24.63309 161.04823,25.69802 56.49134,1.09974 114.5188,0.0481 167.0791,-20.68585 26.2802,-10.36701 50.8461,-25.69845 70.1198,-46.35385 19.2736,-20.65539 33.0645,-46.79923 37.0662,-74.7654 4.4179,-30.87447 -3.3085,-62.93067 -19.2458,-89.74022 -15.9374,-26.80955 -39.7465,-48.50374 -66.7421,-64.12375 -53.9914,-31.24004 -118.5422,-38.10796 -180.9167,-38.75593 -62.79424,-0.65233 -127.96124,4.96998 -182.78606,35.5932 -27.41241,15.31161 -51.67294,36.86504 -67.96004,63.70933 C 677.532,674.64192 669.57265,706.91489 674,738 Z"
       id="path4181"
       inkscape:path-effect="#path-effect4183"
       inkscape:original-d="m 674,738 c 5.39044,100.0095 163.0586,143.6122 263.2047,144.9201 102.9098,1.344 274.2651,-45.8051 274.2651,-141.8051 C 1215.4493,600.0156 1054.2795,549.2704 944.5652,548.4951 834.4581,547.7171 668.07376,628.0497 674,738 Z"
       inkscape:connector-curvature="0"
       sodipodi:nodetypes="aacaa" />
    <path
       style="color:#000000;font-style:normal;font-variant:normal;font-weight:normal;font-stretch:normal;font-size:medium;line-height:normal;font-family:sans-serif;text-indent:0;text-align:start;text-decoration:none;text-decoration-line:none;text-decoration-style:solid;text-decoration-color:#000000;letter-spacing:normal;word-spacing:normal;text-transform:none;direction:ltr;block-progression:tb;writing-mode:lr-tb;baseline-shift:baseline;text-anchor:start;white-space:normal;clip-rule:nonzero;display:inline;overflow:visible;visibility:visible;opacity:1;isolation:auto;mix-blend-mode:normal;color-interpolation:sRGB;color-interpolation-filters:linearRGB;solid-color:#000000;solid-opacity:1;fill:#000000;fill-opacity:1;fill-rule:evenodd;stroke:none;stroke-width:140;stroke-linecap:round;stroke-linejoin:round;stroke-miterlimit:4;stroke-dasharray:none;stroke-dashoffset:0;stroke-opacity:1;color-rendering:auto;image-rendering:auto;shape-rendering:auto;text-rendering:auto;enable-background:accumulate"
       d="M 1006.1289 2155.1875 C 1004.1459 2155.1811 1002.16 2155.191 1000.1738 2155.2168 C 937.47158 2156.0324 876.6937 2172.9146 822.72852 2201.6895 C 768.8713 2230.4068 722.64799 2270.4024 685.58594 2316.9121 C 635.14022 2380.2173 602.86293 2453.7323 585.14062 2529.7441 C 515.23149 2533.2201 443.19248 2542.4253 371.82617 2567.4805 C 312.70348 2588.2372 254.90852 2620.2183 207.34375 2667.5156 C 159.39171 2715.1982 123.38392 2777.5964 112.99023 2848.8711 C 101.51461 2927.5652 123.09803 3007.1855 170.56641 3069.7773 C 217.89181 3132.1807 287.50399 3173.4641 363.67188 3186.8633 C 459.27313 3203.6811 558.22876 3175.3015 630.38477 3110.3711 C 654.09861 3089.0319 674.10724 3064.3512 690.16016 3037.457 C 720.97723 3073.8496 757.51035 3105.7855 799.18359 3130.8945 C 856.03533 3165.1489 921.36539 3186.0303 989.28711 3188.5117 C 1059.8095 3191.0883 1128.9984 3173.6713 1189.8633 3141.2812 C 1250.5887 3108.9653 1301.8755 3062.5277 1341.3652 3008.2188 C 1412.7181 2910.0887 1442.7615 2790.9522 1442.252 2674.6445 C 1459.2614 2677.6444 1475.4858 2681.5971 1490.5664 2687.0801 C 1538.0552 2704.3459 1581.4806 2736.375 1613.5625 2776.9863 C 1671.3135 2850.0914 1695.4288 2952.7977 1683.7812 3050.1738 C 1672.0231 3148.4769 1626.1132 3244.5278 1560.9961 3325.8145 C 1497.2777 3405.355 1415.6599 3471.1215 1324.4648 3517.5898 C 1326.732 3474.9516 1314.9857 3434.2437 1294.3945 3399.6055 C 1271.2852 3360.7313 1238.4104 3331.4177 1202.5391 3310.6621 C 1131.4631 3269.5368 1054.3033 3263.1942 987.29297 3262.498 C 919.81809 3261.7971 841.90216 3266.6141 769.64453 3306.9746 C 733.16691 3327.3497 699.63102 3356.4947 675.97266 3395.4883 C 652.02564 3434.9576 639.66685 3482.4958 646.69922 3531.8711 C 652.81104 3574.7831 672.63559 3612.1299 699.30273 3641.6777 C 725.71217 3670.9402 757.73387 3691.5174 790.63672 3705.5859 C 855.97041 3733.521 921.40601 3735.8077 977.8418 3736.9062 C 1018.6362 3737.7004 1064.0247 3738.0234 1110.9609 3728.9375 C 1174.4791 3720.249 1237.0165 3704.5947 1297.1699 3682.2344 C 1442.7388 3628.1234 1572.9552 3534.8105 1670.2598 3413.3438 C 1748.7854 3315.3189 1807.2607 3196.6233 1822.7891 3066.8008 C 1838.4284 2936.0513 1808.0868 2797.3825 1723.418 2690.2031 C 1675.6991 2629.7975 1611.9017 2582.2278 1538.4043 2555.5059 C 1500.5547 2541.7446 1462.7273 2534.5482 1425.9043 2530.7656 C 1407.9084 2452.7179 1374.4451 2377.3383 1321.9355 2312.998 C 1283.7784 2266.2437 1236.2429 2226.3714 1181.0742 2198.2793 C 1127.5199 2171.0091 1067.6213 2155.3857 1006.1289 2155.1875 z M 1005.6582 2295.1875 C 1043.534 2295.3261 1082.5282 2305.2045 1117.5488 2323.0371 C 1153.8123 2341.5026 1186.7556 2368.7809 1213.4727 2401.5176 C 1242.8278 2437.4865 1264.778 2480.4089 1279.5449 2526.7539 L 731.01172 2527.5078 C 745.42707 2482.0064 766.67993 2439.7926 795.07422 2404.1602 C 821.08116 2371.5237 853.15456 2344.1252 888.59766 2325.2266 C 923.93223 2306.3857 963.5056 2295.7056 1001.9961 2295.2051 C 1003.2154 2295.1892 1004.4364 2295.183 1005.6582 2295.1875 z M 1302.2109 2666.7227 C 1304.0328 2760.6844 1279.9774 2854.5867 1228.1348 2925.8848 C 1200.3215 2964.1355 1164.3957 2996.2441 1124.0938 3017.6914 C 1083.9309 3039.0645 1038.2421 3050.2073 994.39844 3048.6055 C 952.1435 3047.0617 909.01735 3033.6223 871.43555 3010.9785 C 833.7313 2988.2609 800.5632 2955.8937 775.03516 2918.0742 C 727.67387 2847.9091 706.28939 2757.8673 708.29688 2667.5625 C 711.35307 2667.5525 714.36202 2667.5313 717.42773 2667.5273 L 1302.2109 2666.7227 z M 568.24609 2671.5449 C 567.44077 2735.0354 575.62068 2799.482 594.74219 2861.1113 A 70.007 70.007 0 0 0 594.82422 2862.8027 C 598.40539 2914.7602 575.45236 2971.4654 536.73828 3006.3027 C 498.02425 3041.14 439.22093 3058.0038 387.92773 3048.9805 C 346.67637 3041.7237 306.83159 3017.7707 282.11523 2985.1797 C 257.54183 2952.7772 245.79729 2908.3547 251.52539 2869.0742 C 256.80955 2832.8381 276.96872 2795.7155 306.05859 2766.7891 C 335.53577 2737.4776 374.81013 2714.8098 418.20117 2699.5762 C 464.37575 2683.3653 514.91122 2675.4927 568.24609 2671.5449 z M 975.00977 3402.4629 C 978.59509 3402.4439 982.20579 3402.4545 985.83789 3402.4922 C 1043.5765 3403.092 1095.517 3410.4852 1132.4238 3431.8398 C 1150.5437 3442.3242 1165.2873 3456.3995 1174.0527 3471.1445 C 1182.5438 3485.4281 1186.0103 3502.379 1184.1758 3515.1992 C 1182.5019 3526.8974 1175.761 3540.8332 1165.2246 3552.125 C 1154.4047 3563.7206 1138.8131 3573.9308 1120.5957 3581.1172 C 1109.2161 3585.606 1096.7485 3588.9284 1083.3496 3591.3496 C 1058.0015 3594.5158 1032.498 3596.3644 1006.9863 3596.8633 A 70.007 70.007 0 0 0 1001.6973 3597.1543 C 994.76689 3597.1504 987.72417 3597.0729 980.56641 3596.9336 C 927.59515 3595.9024 880.95833 3591.9453 845.67578 3576.8594 C 828.27051 3569.4173 813.48275 3559.2344 803.23438 3547.8789 C 793.2437 3536.809 786.90382 3523.3841 785.30078 3512.1289 C 783.47845 3499.334 787.03883 3482.3267 795.66602 3468.1074 C 804.58185 3453.4124 819.56687 3439.4493 837.91406 3429.2012 C 872.96907 3409.6206 921.22986 3402.748 975.00977 3402.4629 z "
       id="path4498-7-1-0-8-6"
       transform="translate(0,-1048)" />
    <path
       sodipodi:nodetypes="aaaaacaassaaac"
       inkscape:connector-curvature="0"
       inkscape:original-d="m -1564.6176,-588.78924 c 198.5255,-1.13082 382.7925,254.58975 386.5736,453.08246 4.0597,213.115463 -183.1036,505.68623 -396.2244,501.91469 -207.4362,-3.67094 -374.5693,-294.498022 -368.1293,-501.86677 6.1042,-196.55635 181.1322,-452.01026 377.7801,-453.13038 z m -351.3002,678.863674 c 0,0 -167.021,284.718816 -301.6272,271.468346 -111.9848,-11.02354 -228.5437,-161.04972 -202.0991,-270.442491 48.7141,-201.514619 262.0558,-272.639589 558.729,-273.047589 l 633.5656,-0.87132 c 186.1458,-0.256 291.78684,33.25628 359.6401,142.976476 114.40697,184.998564 52.03143,460.962184 -55.1994,650.210624 -72.51486,127.97927 -222.8727,199.89707 -358.0041,258.00571 -86.0646,37.00915 -276.1144,52.45934 -276.1144,52.45934"
       inkscape:path-effect="#path-effect4500-0-5-18-3-98"
       id="path4498-7-1-0-8-4"
       d="m -1564.6176,-588.78924 c 54.947,-0.72171 109.7685,13.63557 158.3041,39.40362 48.5356,25.76806 90.8202,62.76384 124.4697,106.20809 67.299,86.88849 98.9514,197.67429 103.7998,307.47075 5.2873,119.737808 -21.3123,243.48819 -90.9028,341.07023 -34.7953,48.79102 -80.008,90.42911 -132.6589,119.05018 -52.6508,28.62107 -112.7754,43.98181 -172.6627,41.79428 -57.7189,-2.10833 -114.4835,-20.46825 -163.6935,-50.70546 -49.2101,-30.23722 -90.9148,-72.14524 -122.7932,-120.30832 -63.7569,-96.326176 -87.1365,-215.468906 -81.6426,-330.85299 5.1573,-108.31485 35.8418,-217.52643 101.2411,-304.02287 32.6997,-43.24822 73.8236,-80.35955 121.2199,-106.68957 47.3963,-26.33002 101.105,-41.70585 155.3191,-42.41794 z m -351.3002,678.863674 c 5.3729,77.695676 -26.7699,157.138986 -84.6581,209.239186 -57.8883,52.10021 -140.2665,75.72719 -216.9691,62.22916 -61.3106,-10.78936 -118.462,-44.86001 -156.0741,-94.46572 -37.6122,-49.6057 -55.0091,-114.37574 -46.025,-175.976771 8.1867,-56.133631 37.509,-108.096634 77.7303,-148.099819 40.2213,-40.003185 90.9,-68.54304 144.4227,-87.33998 107.0455,-37.5939 223.1212,-37.45176 336.576,-37.60779 l 633.5656,-0.87132 c 67.2318,-0.0925 135.6978,2.67596 198.9053,25.58734 63.2076,22.91138 119.27776,64.460478 160.7348,117.389136 72.38164,92.410434 99.75646,215.786694 85.57392,332.309844 -14.18255,116.52315 -67.55255,226.1538 -140.77332,317.90078 -92.8866,116.38861 -218.4024,206.18311 -358.0041,258.00571 -88.2413,32.75671 -182.0082,50.57162 -276.1144,52.45934"
       style="fill:none;fill-rule:evenodd;stroke:#000000;stroke-width:70.00000763;stroke-linecap:round;stroke-linejoin:round;stroke-miterlimit:4;stroke-dasharray:none;stroke-opacity:1" />
    <path
       style="fill:none;fill-rule:evenodd;stroke:#000000;stroke-width:70.00000763;stroke-linecap:round;stroke-linejoin:round;stroke-miterlimit:4;stroke-dasharray:none;stroke-opacity:1"
       d="m -1862.3062,769.55483 c 4.0282,28.2819 17.6883,54.79047 36.8265,75.99942 19.1383,21.20895 43.5766,37.27211 69.8424,48.50592 52.5317,22.46764 111.0475,25.73452 168.1713,26.84667 58.9905,1.14849 119.5853,0.044 174.4686,-21.61281 27.4416,-10.82843 53.0926,-26.84064 73.2174,-48.41127 20.1248,-21.57064 34.5244,-48.87135 38.7035,-78.07468 4.6138,-32.24111 -3.4524,-65.71641 -20.0928,-93.71417 -16.6403,-27.99777 -41.5008,-50.655 -69.6896,-66.9696 -56.3777,-32.6292 -123.7857,-39.8085 -188.9213,-40.48509 -65.5736,-0.68114 -133.625,5.19761 -190.8729,37.18265 -28.6239,15.99252 -53.9557,38.50269 -70.9613,66.53661 -17.0056,28.03391 -25.3152,61.73537 -20.6918,94.19635 z"
       id="path4181-0"
       inkscape:path-effect="#path-effect4183-3"
       inkscape:original-d="m -1862.3062,769.55483 c 5.6294,104.43465 170.2629,149.98609 274.8402,151.35201 107.4629,1.4036 286.3895,-47.83804 286.3895,-148.09876 4.1554,-147.36175 -164.1326,-200.35925 -278.7037,-201.16886 -114.981,-0.81251 -288.715,83.09846 -282.526,197.91561 z"
       inkscape:connector-curvature="0"
       sodipodi:nodetypes="aacaa" />
    <path
       style="color:#000000;font-style:normal;font-variant:normal;font-weight:normal;font-stretch:normal;font-size:medium;line-height:normal;font-family:sans-serif;text-indent:0;text-align:start;text-decoration:none;text-decoration-line:none;text-decoration-style:solid;text-decoration-color:#000000;letter-spacing:normal;word-spacing:normal;text-transform:none;direction:ltr;block-progression:tb;writing-mode:lr-tb;baseline-shift:baseline;text-anchor:start;white-space:normal;clip-rule:nonzero;display:inline;overflow:visible;visibility:visible;opacity:1;isolation:auto;mix-blend-mode:normal;color-interpolation:sRGB;color-interpolation-filters:linearRGB;solid-color:#000000;solid-opacity:1;fill:#000000;fill-opacity:1;fill-rule:evenodd;stroke:none;stroke-width:200;stroke-linecap:round;stroke-linejoin:round;stroke-miterlimit:4;stroke-dasharray:none;stroke-dashoffset:0;stroke-opacity:1;color-rendering:auto;image-rendering:auto;shape-rendering:auto;text-rendering:auto;enable-background:accumulate"
       d="M 3228.5215 327.1875 C 3226.2727 327.17856 3224.0216 327.18905 3221.7676 327.21875 C 3150.5968 328.15664 3082.4641 348.37252 3022.8008 382.19141 C 2963.3334 415.89923 2913.6349 462.21739 2874.7227 515.19336 C 2826.1784 581.2825 2795.5997 655.49708 2778.5117 731.39062 C 2715.238 735.95787 2649.7389 746.05521 2583.8887 769.17383 C 2521.3951 791.11403 2459.6302 825.09049 2408.1895 876.24219 C 2356.1954 927.94393 2316.7932 995.75987 2305.3047 1074.543 C 2292.5974 1161.683 2316.2877 1248.8433 2368.6621 1317.9043 C 2420.8323 1386.696 2496.8247 1431.6947 2580.4746 1446.4102 C 2685.5705 1464.8983 2793.131 1434.0489 2872.4531 1362.6699 C 2888.9827 1347.7956 2903.7865 1331.4504 2916.9648 1314.0352 C 2943.3156 1341.0126 2972.92 1365.2505 3005.8633 1385.498 C 3066.4546 1422.7385 3136.4946 1445.7943 3210.1855 1448.4922 C 3286.6849 1451.2929 3360.8799 1431.9268 3425.7891 1396.6367 C 3490.4665 1361.4727 3544.2594 1311.5751 3585.5703 1253.9336 C 3652.8588 1160.0453 3684.5584 1050.3489 3691.877 941.94727 C 3695.3945 943.02176 3698.9602 944.05321 3702.3164 945.27344 C 3744.232 960.51302 3783.2904 989.21426 3812.0215 1025.584 C 3864.0043 1091.3873 3886.7842 1186.3848 3875.9922 1276.6094 A 100.01 100.01 0 0 0 3875.9922 1276.6113 C 3865.0418 1368.1603 3821.8259 1459.3566 3759.582 1537.0566 C 3708.2285 1601.162 3644.5459 1656.0412 3573.4902 1698.3945 C 3568.3359 1668.1803 3557.3393 1639.7735 3542.1816 1614.2754 C 3515.9986 1570.2308 3479.2397 1537.6519 3439.5645 1514.6953 C 3361.1665 1469.3334 3278.6007 1463.2168 3209.6035 1462.5 C 3140.1226 1461.7782 3056.7425 1466.2515 2977.0137 1510.7852 C 2936.6509 1533.3304 2899.1417 1565.7255 2872.3242 1609.9258 C 2845.0944 1654.8057 2830.8511 1708.8854 2839 1766.0996 C 2846.0779 1815.7954 2868.791 1858.27 2899.0312 1891.7773 C 2928.9037 1924.8769 2964.6178 1947.6815 3000.8418 1963.1699 C 3072.615 1993.8584 3142.0797 1995.7873 3199.2578 1996.9004 C 3240.7405 1997.7079 3288.5103 1998.2978 3339.2051 1988.3555 C 3404.1487 1979.3125 3468.0745 1963.2324 3529.623 1940.3535 C 3680.3007 1884.3435 3814.8719 1787.9321 3915.6738 1662.0996 C 3997.0727 1560.4882 4058.2419 1436.9399 4074.5781 1300.3633 C 4091.0729 1162.4624 4059.3959 1016.0865 3968.959 901.60547 C 3917.8893 836.95815 3849.727 786.05884 3770.6562 757.31055 C 3738.8635 745.75139 3707.458 738.64592 3676.8789 734.14453 C 3659.5763 655.51191 3627.8254 578.68118 3576.793 510.86914 C 3536.6875 457.57692 3485.5374 411.35587 3424.5957 378.33008 C 3365.3608 346.22935 3298.2349 327.46476 3228.5215 327.1875 z M 3227.6777 527.1875 C 3261.5652 527.34955 3297.4211 536.89145 3329.3047 554.16992 C 3362.4206 572.11621 3392.7651 598.94302 3416.9883 631.13086 C 3438.0657 659.13865 3454.7106 691.60411 3467.0352 726.80273 L 2987.5996 727.46289 C 2999.5774 693.03862 3015.6213 661.21414 3035.9121 633.58984 C 3059.4987 601.47861 3089.0476 574.53651 3121.4258 556.18359 C 3153.6081 537.94176 3190.0098 527.65442 3224.4043 527.20117 C 3225.4931 527.18682 3226.5846 527.18227 3227.6777 527.1875 z M 3492.3262 926.76758 C 3487.0143 1005.1441 3464.2437 1079.8909 3423.0078 1137.4277 C 3397.9261 1172.4245 3365.7131 1201.6523 3330.2598 1220.9277 C 3295.0382 1240.0771 3254.8992 1249.9941 3217.502 1248.625 C 3181.4397 1247.3047 3143.5636 1235.3749 3110.5879 1215.1074 C 3077.4088 1194.7149 3047.667 1165.2578 3024.6289 1130.625 C 2987.0858 1074.1871 2966.6595 1002.5977 2961.9844 927.49609 L 3492.3262 926.76758 z M 2762.0273 934.41016 C 2764.6689 984.80993 2772.4397 1035.6371 2786.6582 1085.2168 A 100.01 100.01 0 0 0 2786.8945 1094.8652 C 2789.8128 1137.2052 2770.2198 1185.6132 2738.6719 1214.002 C 2707.124 1242.3907 2656.9255 1256.7867 2615.127 1249.4336 C 2581.3577 1243.493 2547.8911 1223.2535 2528.0195 1197.0508 C 2508.3522 1171.1174 2498.7145 1134.2368 2503.2109 1103.4023 C 2507.4002 1074.6745 2524.1649 1042.9696 2549.2129 1018.0625 C 2574.8136 992.60569 2610.1193 971.93302 2650.1387 957.88281 C 2684.3531 945.87084 2721.9763 938.79231 2762.0273 934.41016 z M 3197.1172 1662.4688 C 3200.5505 1662.447 3204.0206 1662.4538 3207.5273 1662.4902 C 3263.2791 1663.0694 3309.8155 1670.6885 3339.4004 1687.8066 C 3353.7164 1696.0901 3364.5739 1706.9001 3370.2656 1716.4746 C 3375.5655 1725.39 3377.2058 1735.8666 3376.4785 1740.9492 A 100.01 100.01 0 0 0 3376.4785 1740.9512 C 3375.8022 1745.6773 3372.0809 1754.3794 3365.2891 1761.6582 C 3358.0922 1769.371 3346.3497 1777.3877 3331.5879 1783.2109 C 3322.2599 1786.8906 3311.5986 1789.7032 3299.7383 1791.8066 C 3276.0479 1794.7015 3252.2232 1796.4033 3228.4004 1796.8691 A 100.01 100.01 0 0 0 3223.5469 1797.1367 C 3216.9129 1797.1422 3210.1162 1797.0751 3203.1504 1796.9395 C 3150.9215 1795.9227 3108.3137 1791.6079 3079.4707 1779.2754 C 3065.3865 1773.2534 3054.2912 1765.2976 3047.5059 1757.7793 C 3041.0886 1750.6687 3037.6369 1742.3719 3037 1737.9004 C 3036.2941 1732.9444 3037.97 1722.4786 3043.3145 1713.6699 C 3049.0712 1704.1817 3060.0829 1693.4706 3074.5449 1685.3926 C 3102.5959 1669.7244 3145.6179 1662.7936 3197.1172 1662.4688 z "
       transform="translate(0,-1048)"
       id="path4498-7-1-0-8-44" />
    <path
       style="color:#000000;font-style:normal;font-variant:normal;font-weight:normal;font-stretch:normal;font-size:medium;line-height:normal;font-family:sans-serif;text-indent:0;text-align:start;text-decoration:none;text-decoration-line:none;text-decoration-style:solid;text-decoration-color:#000000;letter-spacing:normal;word-spacing:normal;text-transform:none;direction:ltr;block-progression:tb;writing-mode:lr-tb;baseline-shift:baseline;text-anchor:start;white-space:normal;clip-rule:nonzero;display:inline;overflow:visible;visibility:visible;opacity:1;isolation:auto;mix-blend-mode:normal;color-interpolation:sRGB;color-interpolation-filters:linearRGB;solid-color:#000000;solid-opacity:1;fill:#000000;fill-opacity:1;fill-rule:evenodd;stroke:none;stroke-width:70.00000763;stroke-linecap:round;stroke-linejoin:round;stroke-miterlimit:4;stroke-dasharray:none;stroke-dashoffset:0;stroke-opacity:1;color-rendering:auto;image-rendering:auto;shape-rendering:auto;text-rendering:auto;enable-background:accumulate"
       d="M -1367.3301 2488.1855 C -1369.2452 2488.1782 -1371.161 2488.1877 -1373.0781 2488.2129 C -1433.6046 2489.0079 -1492.7817 2506.0611 -1544.9336 2535.0332 C -1597.0214 2563.9695 -1641.6698 2604.3834 -1677.0742 2651.209 C -1731.6184 2723.3485 -1763.113 2808.8496 -1777.2031 2896.3535 C -1857.1554 2898.8806 -1938.439 2907.0175 -2017.0879 2934.6387 C -2074.5438 2954.8169 -2129.8534 2985.6839 -2174.5957 3030.1836 C -2219.5315 3074.8757 -2252.8134 3133.1577 -2262.2773 3198.0488 C -2272.6983 3269.5016 -2252.8427 3343.0694 -2209.5078 3400.2227 C -2166.2443 3457.2819 -2101.6521 3495.6879 -2031.6113 3508.0137 C -1943.8299 3523.4613 -1851.4117 3496.9536 -1785.1621 3437.3281 C -1748.3324 3404.1809 -1720.874 3361.9022 -1704.7695 3315.625 C -1702.5036 3319.2591 -1700.3125 3322.9295 -1697.9414 3326.5117 C -1663.4661 3378.5983 -1618.2702 3424.151 -1564.2852 3457.3223 C -1510.2306 3490.5363 -1447.8366 3510.8372 -1383.5469 3513.1855 C -1316.8327 3515.6224 -1250.7479 3498.6154 -1192.8906 3467.1641 C -1135.1122 3435.7558 -1086.1028 3390.4819 -1048.4512 3337.6855 C -973.18667 3232.1473 -945.51568 3100.7179 -951.07812 2974.75 C -951.19102 2972.1934 -951.39269 2969.6309 -951.5332 2967.0723 C -915.34401 2970.0828 -880.56203 2976.0053 -848.37109 2987.6738 C -791.6743 3008.2252 -740.75708 3045.872 -703.26367 3093.7402 C -637.56548 3177.6178 -611.70702 3292.0187 -624.87891 3400.2383 C -638.10717 3508.9212 -688.35187 3612.9339 -758.26562 3700.5371 C -845.02011 3809.2421 -961.98573 3894.0122 -1092.002 3944.1172 C -1083.3335 3927.3489 -1077.1944 3909.085 -1074.4297 3889.7656 C -1068.5243 3848.4987 -1078.7194 3807.4714 -1099.082 3773.2109 C -1119.3075 3739.181 -1148.6997 3712.7149 -1181.3262 3693.832 C -1246.2458 3656.2591 -1319.9598 3649.3413 -1387.416 3648.6406 C -1455.3326 3647.9352 -1529.7607 3653.4129 -1595.7246 3690.2676 C -1628.8807 3708.7924 -1658.8486 3735.0967 -1679.5391 3769.2051 C -1700.3736 3803.5512 -1710.8828 3844.8855 -1704.957 3886.4902 C -1699.8018 3922.6851 -1682.7713 3955.1738 -1659.4648 3981.002 C -1636.287 4006.6875 -1607.5404 4025.3494 -1577.4004 4038.2402 C -1517.3562 4063.921 -1454.1388 4066.7713 -1396.1465 4067.9004 C -1354.2068 4068.7169 -1309.5592 4068.7148 -1265.0371 4060.1543 C -1200.7985 4051.5027 -1137.5298 4035.7546 -1076.7324 4013.1855 C -931.18122 3959.1544 -800.55347 3865.7449 -703.55273 3744.2012 C -627.02495 3648.3104 -570.52939 3533.0607 -555.39258 3408.6973 C -540.19937 3283.8706 -569.09118 3151.5194 -648.15625 3050.5762 C -693.57692 2992.5871 -754.79921 2947.1347 -824.51758 2921.8633 C -868.89891 2905.7761 -914.3636 2898.9511 -959.09766 2896.1133 C -973.33892 2807.0557 -1005.8392 2720.1232 -1062.1738 2647.3906 C -1098.6251 2600.3291 -1144.5463 2560.0274 -1197.9004 2531.7012 C -1249.6518 2504.2258 -1307.9619 2488.4143 -1367.3301 2488.1855 z M -1367.6055 2558.1855 C -1320.5407 2558.3776 -1273.0127 2571.0772 -1230.7266 2593.5273 C -1187.0094 2616.7373 -1148.3614 2650.427 -1117.5137 2690.2539 C -1072.4195 2748.4742 -1044.2353 2819.5466 -1030.4883 2894.2051 C -1032.1169 2894.2042 -1033.7728 2894.1796 -1035.3965 2894.1816 L -1668.9609 2895.0527 C -1681.1959 2895.0697 -1693.5421 2895.0878 -1705.9199 2895.1348 C -1692.3875 2821.5009 -1665.0295 2751.3482 -1621.2363 2693.4277 C -1591.2413 2653.7567 -1553.6422 2619.9483 -1510.9375 2596.2246 C -1468.2976 2572.5368 -1420.0593 2558.8366 -1372.1582 2558.207 C -1370.6411 2558.1871 -1369.1237 2558.1794 -1367.6055 2558.1855 z M -1035.3008 2964.1816 C -1030.7882 2964.1716 -1026.3126 2964.2318 -1021.8203 2964.2598 C -1021.5231 2968.7848 -1021.2097 2973.3095 -1021.0098 2977.8379 C -1015.9975 3091.3456 -1041.5268 3207.4152 -1105.4434 3297.041 C -1137.3823 3341.8268 -1178.7989 3379.8304 -1226.3223 3405.6641 C -1273.7666 3431.4549 -1327.9298 3445.1686 -1380.9902 3443.2305 C -1432.1384 3441.3622 -1483.2732 3424.9422 -1527.6387 3397.6816 C -1572.0736 3370.3785 -1610.2869 3332.1166 -1639.5684 3287.877 C -1698.1674 3199.3435 -1720.6526 3087.5348 -1715.4375 2978.0059 C -1715.2348 2973.7481 -1714.9254 2969.4947 -1714.6387 2965.2402 C -1699.4238 2965.1229 -1684.1653 2965.0738 -1668.8672 2965.0527 L -1035.3008 2964.1816 z M -1784.8691 2966.8242 C -1785.022 2969.441 -1785.2329 2972.0611 -1785.3574 2974.6758 C -1788.8974 3049.0242 -1781.0691 3125.3222 -1758.6445 3197.2461 A 35.003504 35.003504 0 0 0 -1758.834 3204.4883 C -1754.2371 3270.9617 -1782.4633 3340.7239 -1831.9902 3385.2988 C -1881.5172 3429.8737 -1953.8547 3450.6206 -2019.4785 3439.0723 C -2072.059 3429.8192 -2121.7698 3400.0818 -2153.7305 3357.9297 C -2185.6199 3315.8715 -2200.5571 3259.9016 -2193.0098 3208.1523 C -2186.1003 3160.7762 -2160.7392 3115.1307 -2125.2324 3079.8164 C -2089.5322 3044.3097 -2043.484 3018.0992 -1993.8945 3000.6836 C -1928.554 2977.7363 -1857.8273 2969.73 -1784.8691 2966.8242 z M -1399.9785 3718.5977 C -1396.0416 3718.5811 -1392.0965 3718.5957 -1388.1445 3718.6367 C -1325.3295 3719.2892 -1264.2264 3726.7305 -1216.3906 3754.416 C -1192.6393 3768.1623 -1172.311 3787.0109 -1159.2559 3808.9766 C -1146.3377 3830.7117 -1140.4005 3856.6344 -1143.7227 3879.8496 C -1146.738 3900.9203 -1157.6141 3922.1167 -1173.3711 3939.0059 C -1189.2698 3956.0467 -1210.4334 3969.4986 -1233.8438 3978.7363 C -1248.0976 3984.3609 -1263.1534 3988.4332 -1278.8242 3991.3574 C -1307.6543 3995.0794 -1336.6796 3997.2571 -1365.7285 3997.8398 A 35.003504 35.003504 0 0 0 -1370.0664 3998.1699 C -1378.249 3998.1659 -1386.4897 3998.0756 -1394.7852 3997.9141 C -1451.0404 3996.8188 -1504.8538 3993.1335 -1549.873 3973.8789 C -1572.2646 3964.3021 -1592.3953 3950.8399 -1607.4941 3934.1074 C -1622.4641 3917.5178 -1632.7551 3896.9881 -1635.6562 3876.6191 C -1638.9773 3853.3019 -1632.8661 3827.2336 -1619.6895 3805.5117 C -1606.3687 3783.5523 -1585.6737 3764.8373 -1561.582 3751.377 C -1516.0834 3725.9564 -1459.0325 3718.846 -1399.9785 3718.5977 z "
       transform="translate(0,-1048)"
       id="path4498-7-1-0-8-4-3" />
  </g>
</svg>
