<?xml version="1.0" encoding="UTF-8" standalone="no"?>
<!-- Created with Inkscape (http://www.inkscape.org/) -->

<svg
   xmlns:dc="http://purl.org/dc/elements/1.1/"
   xmlns:cc="http://creativecommons.org/ns#"
   xmlns:rdf="http://www.w3.org/1999/02/22-rdf-syntax-ns#"
   xmlns:svg="http://www.w3.org/2000/svg"
   xmlns="http://www.w3.org/2000/svg"
   xmlns:sodipodi="http://sodipodi.sourceforge.net/DTD/sodipodi-0.dtd"
   xmlns:inkscape="http://www.inkscape.org/namespaces/inkscape"
   width="2000"
   height="2048"
   id="svg2992"
   version="1.1"
   inkscape:version="0.91 r13725"
   sodipodi:docname="കൂ.svg">
  <defs
     id="defs5498">
    <inkscape:path-effect
       effect="spiro"
       id="path-effect3846"
       is_visible="true" />
    <inkscape:path-effect
       effect="spiro"
       id="path-effect3801"
       is_visible="true" />
    <inkscape:path-effect
       is_visible="true"
       id="path-effect3846-9"
       effect="spiro" />
    <inkscape:path-effect
       is_visible="true"
       id="path-effect3801-9"
       effect="spiro" />
    <inkscape:path-effect
       is_visible="true"
       id="path-effect4500"
       effect="spiro" />
    <inkscape:path-effect
       is_visible="true"
       id="path-effect4500-8"
       effect="spiro" />
    <inkscape:path-effect
       is_visible="true"
       id="path-effect4500-0"
       effect="spiro" />
    <inkscape:path-effect
       is_visible="true"
       id="path-effect4500-0-5"
       effect="spiro" />
    <inkscape:path-effect
       is_visible="true"
       id="path-effect4500-0-5-7"
       effect="spiro" />
    <inkscape:path-effect
       is_visible="true"
       id="path-effect4500-0-5-1"
       effect="spiro" />
    <inkscape:path-effect
       is_visible="true"
       id="path-effect4500-0-5-18"
       effect="spiro" />
    <inkscape:path-effect
       is_visible="true"
       id="path-effect4500-0-5-18-1"
       effect="spiro" />
    <inkscape:path-effect
       is_visible="true"
       id="path-effect4500-0-5-18-1-7"
       effect="spiro" />
    <inkscape:path-effect
       is_visible="true"
       id="path-effect4500-0-5-18-1-7-2"
       effect="spiro" />
    <inkscape:path-effect
       is_visible="true"
       id="path-effect4500-0-5-18-1-7-1"
       effect="spiro" />
    <inkscape:path-effect
       is_visible="true"
       id="path-effect4500-0-5-18-1-7-1-7"
       effect="spiro" />
    <inkscape:path-effect
       is_visible="true"
       id="path-effect4500-0-5-18-1-7-3"
       effect="spiro" />
    <inkscape:path-effect
       is_visible="true"
       id="path-effect4500-0-5-18-1-7-1-4"
       effect="spiro" />
    <inkscape:path-effect
       is_visible="true"
       id="path-effect4500-0-5-18-1-7-16"
       effect="spiro" />
    <inkscape:path-effect
       is_visible="true"
       id="path-effect4500-0-5-18-1-7-7"
       effect="spiro" />
  </defs>
  <sodipodi:namedview
     inkscape:window-height="871"
     inkscape:window-width="1600"
     inkscape:pageshadow="2"
     inkscape:pageopacity="0.0"
     borderopacity="1.0"
     bordercolor="#666666"
     pagecolor="#ffffff"
     id="base"
     showgrid="true"
     showguides="true"
     inkscape:guide-bbox="true"
     inkscape:zoom="0.32102648"
     inkscape:cx="333.19729"
     inkscape:cy="651.17477"
     inkscape:window-x="1600"
     inkscape:window-y="0"
     inkscape:current-layer="layer1-2"
     inkscape:window-maximized="1">
    <sodipodi:guide
       orientation="horizontal"
       position="0,600"
       id="guide5596" />
    <inkscape:grid
       type="xygrid"
       id="grid3769"
       empspacing="3"
       visible="true"
       enabled="true"
       snapvisiblegridlinesonly="true"
       spacingx="4px"
       units="px"
       dotted="true"
       spacingy="4px" />
    <sodipodi:guide
       orientation="0,1"
       position="-1040,1600"
       id="guide2985" />
    <sodipodi:guide
       position="-2688,1624"
       orientation="0,1"
       id="guide4159"
       inkscape:label=""
       inkscape:color="rgb(0,0,255)" />
  </sodipodi:namedview>
  <metadata
     id="metadata5594">
    <rdf:RDF>
      <cc:Work
         rdf:about="">
        <dc:format>image/svg+xml</dc:format>
        <dc:type
           rdf:resource="http://purl.org/dc/dcmitype/StillImage" />
        <dc:title />
      </cc:Work>
    </rdf:RDF>
  </metadata>
  <g
     inkscape:label="Layer 1"
     inkscape:groupmode="layer"
     id="layer1"
     transform="translate(0,1048)">
    <g
       id="layer1-2"
       inkscape:label="Layer 1"
       transform="translate(-900.90145,-124.23254)">
      <path
         sodipodi:nodetypes="aaaaacaassaacaassasc"
         inkscape:connector-curvature="0"
         inkscape:original-d="m -245.25495,-443.64119 c 181.786489,2.40524 330.342041,250.48291 332.581339,432.271522 2.376834,192.953908 -148.631358,466.835598 -341.599139,467.377528 -192.83454,0.54155 -348.3658,-272.34464 -343.9812,-465.130085 4.24309,-186.563365 166.40373,-436.987835 352.999,-434.518965 z m -328.2561,645.40935 c 0,0 -156.0648,265.9975 -281.8413,253.6183 -104.639,-10.2987 -213.55205,-150.4601 -188.84215,-252.6599 45.51865,-188.264185 244.86945,-253.635185 522.07815,-255.093585 l 525.6575961,-2.7655 c 173.9330039,-0.915 452.5421139,6.380437 500.5644939,176.682885 21.61821,76.66498 -78.90967,150.80565 -150.59079,185.543 -16.27747,7.88822 -54.2594,0.7331 -54.2594,0.7331 0,0 38.45297,-4.50352 55.8768,2.1162 70.00362,26.59599 170.95441,67.86647 173.50779,142.70852 4.08729,119.80248 -199.43509,246.29146 -261.52549,246.83694 l -971.0312,8.5308 c -216.482,1.90186 -349.90065,62.85616 -338.86305,192.25354 10.3481,121.31404 285.42651,124.71564 343.63225,123.83234 l 1237.71169,-18.7833"
         inkscape:path-effect="#path-effect4500-0-5-18-1-7"
         id="path4498-7-1-0-1-5"
         d="m -245.25495,-443.64119 c 50.12089,1.50943 99.44422,17.40349 142.2386,43.53821 42.794381,26.13471 79.12861,62.31258 107.3697785,103.74709 56.4823375,82.86903 79.8360115,184.74806 82.9729605,284.986222 3.369922,107.6826 -16.569885,218.768938 -74.874984,309.363718 -29.152549,45.29739 -67.685204,84.85439 -113.592105,113.03738 -45.9069,28.18299 -99.26491,44.74094 -153.13205,44.97643 -53.89404,0.23561 -107.42414,-15.87313 -153.57732,-43.70308 -46.15319,-27.82995 -85.00203,-67.12943 -114.45216,-112.26602 -58.90028,-90.27319 -79.32436,-201.424657 -75.95172,-309.160985 3.24715,-103.727545 28.65596,-209.257825 89.27126,-293.494005 30.30765,-42.11808 69.19039,-78.35288 114.56335,-103.52788 45.37297,-25.175 97.29872,-39.05905 149.16439,-37.49708 z m -328.2561,645.40935 c 4.93786,72.57528 -25.12251,146.74449 -79.19572,195.40292 -54.0732,48.65843 -130.99152,70.75528 -202.64558,58.21538 -57.31519,-10.03051 -110.77268,-41.82197 -145.94435,-88.17489 -35.1717,-46.35293 -51.4127,-106.92514 -42.8978,-164.48501 7.7496,-52.38642 35.2722,-100.81751 72.91849,-138.061979 37.64627,-37.244465 85.0055,-63.7786483 134.98351,-81.288378 99.95602,-35.019461 208.26459,-35.186024 314.17615,-35.743228 l 525.6575961,-2.7655 c 96.2724329,-0.506492 193.3934039,-6.595268 288.3228439,9.437203 47.46472,8.016236 94.55922,22.962162 134.0288,50.5177741 19.73479,13.7778059 37.39627,30.6864159 51.10967,50.4660199 13.71339,19.779605 23.41638,42.477495 27.10318,66.261888 6.78343,43.76146 -7.6952,89.80592 -36.30165,123.61053 -28.60645,33.80461 -70.48522,55.42883 -114.28914,61.93247 -17.94555,2.66441 -36.24841,2.9117 -54.2594,0.7331 18.62481,-1.43273 37.41371,-0.72115 55.8768,2.1162 39.03494,5.99876 76.71996,21.73666 107.52919,46.44502 30.80923,24.70835 54.53923,58.46334 65.9786,96.2635 10.34205,34.17419 10.46615,71.41787 0.0213,105.56079 -10.44482,34.14291 -31.41677,64.86531 -58.92599,87.62659 -27.50922,22.76128 -61.17811,37.4128 -96.06163,45.02679 -34.88353,7.61398 -70.85576,8.3091 -106.55919,8.62277 l -971.0312,8.5308 c -74.34559,0.65315 -150.74966,-0.60801 -220.46217,25.23498 -34.85625,12.92149 -67.62683,33.37204 -90.59478,62.60214 -11.4839,14.61505 -20.3955,31.33369 -25.4188,49.22916 -5.0233,17.89546 -6.1003,36.97478 -2.3873,55.18726 6.5938,32.34292 28.0496,60.4259 54.88312,79.64839 26.83353,19.22248 58.7794,30.33895 91.1898,36.59255 64.8208,12.5074 131.5505,8.5931 197.55933,7.5914 l 1237.71169,-18.7833"
         style="fill:none;fill-rule:evenodd;stroke:#000000;stroke-width:140;stroke-linecap:round;stroke-linejoin:round;stroke-miterlimit:4;stroke-dasharray:none;stroke-opacity:1" />
      <path
         sodipodi:nodetypes="aaaaacaassaacaassasc"
         inkscape:connector-curvature="0"
         inkscape:original-d="m -2077.8278,-465.35007 c 199.1942,-1.1286 378.8599,260.87858 381.3941,460.0598991 2.6806,210.6881309 -181.7029,500.4968809 -390.9157,496.7444009 -203.5755,-3.65135 -368.27,-291.65246 -363.1968,-496.6965605 4.882,-197.3163395 175.3448,-458.9894595 372.7184,-460.1077395 z m -346.5933,685.31039 c 0,0 -164.783,284.04967 -297.5857,270.83034 -110.4844,-10.99763 -225.4816,-160.67121 -199.3914,-269.8069 48.0615,-201.0409 258.5486,-270.848367 551.2428,-272.405735 l 555.0222,-2.953192 c 183.6493,-0.977095 500.7736,1.818044 528.5273,188.673627 9.798,65.96657 -96.5101,97.78022 -159.0032,119.11297 -18.0957,6.17707 -57.2905,0.78286 -57.2905,0.78286 0,0 41.4232,-6.69678 58.9982,2.25981 87.2547,44.46684 197.351,133.6406 183.2004,231.41565 -16.2074,111.98576 -210.576,192.52709 -276.135,193.10962 l -1025.2754,9.10975 c -228.5752,2.03086 -363.8466,76.76363 -355.4672,214.98365 7.974,131.53153 299.0455,163.15713 360.5028,162.21843 l 1313.1884,-20.0581"
         inkscape:path-effect="#path-effect4500-0-5-18-1-7-1"
         id="path4498-7-1-0-1-5-3"
         d="m -2077.8278,-465.35007 c 55.2299,-0.72971 110.3078,14.11943 158.7862,40.59051 48.4783,26.47108 90.4025,64.36113 123.4483,108.61994 66.0917,88.51763 95.6084,200.43718 99.1596,310.8494491 3.8027,118.2305009 -22.1718,240.1317709 -90.3842,336.7753109 -34.1062,48.32177 -78.4675,89.69818 -130.2856,118.21347 -51.818,28.51528 -111.1395,43.91501 -170.2459,41.75562 -56.9787,-2.08166 -112.9818,-20.43053 -161.4091,-50.52556 -48.4273,-30.09504 -89.3384,-71.72063 -120.5794,-119.41663 -62.4821,-95.39201 -85.3012,-212.79432 -81.2083,-326.7543705 3.9129,-108.9505495 32.51,-219.2888095 96.7167,-307.3968595 32.1034,-44.05403 72.8658,-82.05052 120.2013,-109.08262 47.3355,-27.0321 101.2948,-42.90812 155.8004,-43.62826 z m -346.5933,685.31039 c 6.4354,77.17068 -24.7981,156.60805 -82.0694,208.73024 -57.2713,52.12218 -139.2913,75.75589 -215.5163,62.1001 -60.8915,-10.90879 -117.5036,-45.13367 -154.5674,-94.66208 -37.0637,-49.5284 -53.9434,-113.9597 -44.824,-175.14482 8.2625,-55.43583 37.1134,-106.76957 76.6917,-146.455256 39.5784,-39.685689 89.4615,-68.1860358 142.2264,-87.087229 105.53,-37.802388 220.2299,-38.26681 332.3247,-38.86325 l 555.0222,-2.953192 c 106.1783,-0.564959 212.7679,-12.326814 318.368,-1.247384 52.8001,5.539715 106.2739,19.624397 148.528,51.7667889 21.127,16.0711961 39.0817,36.6427401 50.476,60.6177661 11.3944,23.975025 16.0006,51.437476 11.1553,77.536456 -6.4849,34.93048 -29.6131,65.47186 -59.0227,85.40355 -29.4095,19.93169 -64.6494,29.98053 -99.9805,33.70942 -19.0196,2.00736 -38.2231,2.26977 -57.2905,0.78286 19.6532,-1.80434 39.5406,-1.0426 58.9982,2.25981 53.2891,9.0444 103.1314,37.86905 136.8982,80.07495 33.7668,42.20591 50.9769,97.49201 46.3022,151.3407 -2.7098,31.21453 -12.6207,61.81852 -29.0154,88.51879 -16.3947,26.70026 -39.2389,49.34078 -65.8374,65.90019 -26.5984,16.55941 -56.7611,26.95763 -87.6146,32.41235 -30.8534,5.45471 -62.3369,5.99991 -93.6676,6.27829 l -1025.2754,9.10975 c -78.7639,0.69983 -160.0937,1.31379 -232.3465,32.67924 -36.1263,15.68272 -69.3534,39.34842 -92.5919,71.14515 -23.2386,31.79672 -35.8441,72.13607 -30.5288,111.15926 4.8758,35.79621 24.4799,68.68108 51.0322,93.17836 26.5524,24.49727 59.7215,41.07567 94.3137,51.49307 69.1845,20.8346 142.9118,18.6505 215.1569,17.547 l 1313.1884,-20.0581"
         style="fill:none;fill-rule:evenodd;stroke:#000000;stroke-width:70.00000763;stroke-linecap:round;stroke-linejoin:round;stroke-miterlimit:4;stroke-dasharray:none;stroke-opacity:1" />
      <path
         style="color:#000000;font-style:normal;font-variant:normal;font-weight:normal;font-stretch:normal;font-size:medium;line-height:normal;font-family:sans-serif;text-indent:0;text-align:start;text-decoration:none;text-decoration-line:none;text-decoration-style:solid;text-decoration-color:#000000;letter-spacing:normal;word-spacing:normal;text-transform:none;direction:ltr;block-progression:tb;writing-mode:lr-tb;baseline-shift:baseline;text-anchor:start;white-space:normal;clip-rule:nonzero;display:inline;overflow:visible;visibility:visible;opacity:1;isolation:auto;mix-blend-mode:normal;color-interpolation:sRGB;color-interpolation-filters:linearRGB;solid-color:#000000;solid-opacity:1;fill:#000000;fill-opacity:1;fill-rule:evenodd;stroke:none;stroke-width:200;stroke-linecap:round;stroke-linejoin:round;stroke-miterlimit:4;stroke-dasharray:none;stroke-dashoffset:0;stroke-opacity:1;color-rendering:auto;image-rendering:auto;shape-rendering:auto;text-rendering:auto;enable-background:accumulate"
         d="m 1615.084,1825.3184 c -66.6623,0.8667 -130.7669,18.7444 -187.6406,49.0703 -56.7186,30.243 -105.0224,72.1191 -143.6875,120.6406 a 100.01,100.01 0 0 0 -0,0 c -47.5481,59.669 -79.285,127.4757 -98.3945,197.623 -62.6628,4.4983 -127.6502,14.3763 -193.07815,37.2989 a 100.01,100.01 0 0 0 0,0 c -61.1254,21.4153 -121.67437,54.5403 -172.24805,104.5742 -51.13511,50.5894 -90.05206,117.0512 -101.51172,194.5176 -12.69481,85.816 10.58935,171.6017 62.15821,239.5645 51.35626,67.6827 126.11187,111.8369 208.36914,126.2324 103.27347,18.0735 208.83897,-12.2545 286.77347,-82.3848 15.0452,-13.5386 28.6868,-28.2815 40.914,-43.9726 25.7327,25.5928 54.4973,48.5068 86.2891,67.6621 59.8342,36.0514 128.606,58.1125 200.6894,60.7461 74.8501,2.7346 147.6798,-15.6795 211.754,-49.7774 63.875,-33.9919 117.3938,-82.5475 158.5683,-139.1738 70.4377,-96.871 101.6717,-212.069 104.332,-325.2168 28.6531,0.5319 56.4783,1.9335 83.2012,5.1738 41.6052,5.045 76.9387,16.0411 100.5645,32.1465 11.5283,7.8588 20.4052,17.0512 25.7949,25.5293 5.1949,8.1718 7.6733,16.9584 7.8848,22.6446 0.1828,4.9155 -1.0886,11.8581 -4.1153,18.2968 -3.101,6.5968 -8.517,13.936 -15.6445,20.2246 -14.3181,12.6327 -38.4308,22.8601 -65.9414,25.916 -0.8864,0.099 -1.7854,0.081 -2.6738,0.1661 -16.2326,-1.0438 -32.5234,-1.0454 -48.7676,0.2949 a 100.01,100.01 0 0 0 -0.1289,199.3105 c 15.2344,1.2767 30.5197,1.5206 45.7793,0.9551 0.8982,0.1241 1.8169,0.1232 2.7109,0.2656 22.6235,3.6054 43.9913,13.7903 58.3828,26.9727 13.9831,12.8082 23.6609,31.2961 25.8203,46.7871 1.6919,12.1369 -0.4438,26.5385 -5.8613,38.1836 -5.4396,11.6928 -15.5485,23.6879 -27.9941,32.2363 -12.6313,8.676 -30.2841,15.7611 -50.7657,19.5801 -20.6505,3.8504 -47.0907,4.7571 -78.7402,5.0352 l -971.0312,8.5312 c -70.6896,0.6211 -156.4782,-1.9174 -246.29692,31.4531 -45.90725,17.056 -92.3827,44.2362 -129.55469,87.5254 -38.09145,44.36 -63.63202,102.9405 -59.76172,169.5078 3.7514,64.5224 34.11013,118.2072 74.39648,157.5215 39.34735,38.3978 85.73798,61.147 130.58399,74.8535 87.65606,26.7909 169.55566,22.2396 237.79106,21.209 l 1243.7109,-18.7832 a 100.01,100.01 0 1 0 -3.0195,-199.9765 l -1243.7129,18.7832 c -70.8209,1.0696 -130.9678,1.3603 -176.31058,-12.4981 -21.65339,-6.618 -38.94054,-16.5572 -49.35937,-26.7246 -9.47983,-9.2511 -14.13329,-21.0977 -14.41797,-25.9941 -0.28869,-4.9653 3.24743,-17.6036 11.83594,-27.6055 9.50794,-11.0726 26.2124,-22.441 47.47265,-30.3399 44.51623,-16.5392 105.78853,-18.3015 178.40043,-18.9394 l 971.0312,-8.5313 c 32.7221,-0.2875 71.0077,-0.4668 113.6406,-8.416 a 100.01,100.01 0 0 0 0,0 c 42.8016,-7.9808 86.9085,-23.5633 127.3398,-51.334 40.6172,-27.8983 74.3843,-66.0579 96.0977,-112.7324 21.7357,-46.7219 29.8051,-98.5355 22.6094,-150.1562 -7.4309,-53.3077 -30.399,-100.9941 -63.4668,-139.9864 18.6511,-19.6439 34.709,-42.3968 46.8437,-68.2109 15.8589,-33.7368 24.4438,-71.3676 22.9766,-110.8144 -1.7005,-45.7179 -16.5612,-87.2694 -38.9629,-122.5079 -22.2071,-34.9322 -50.9488,-62.3728 -81.9238,-83.4882 -61.3807,-41.8428 -128.6166,-58.0963 -189.1426,-65.4356 -45.6302,-5.533 -89.9349,-7.2788 -132.8926,-7.4004 -19.8442,-68.0336 -51.8084,-133.5086 -98.7539,-191.0312 -39.8206,-48.7924 -89.5035,-90.5472 -147.6133,-120.1367 -58.2709,-29.6718 -123.7087,-46.3457 -191.3027,-45.4668 z m 2.5996,199.9843 c 32.5088,-0.4227 67.0107,7.9521 97.9512,23.7071 31.1016,15.837 59.94,39.6015 83.4179,68.3691 16.5987,20.3384 30.6171,43.5069 42.0977,68.5645 l -442.2051,2.3281 c 11.2291,-25.0161 24.9522,-48.1854 41.2227,-68.6035 22.8721,-28.7026 50.9643,-52.5825 81.3769,-68.7989 30.2577,-16.1337 64.0656,-25.1493 96.1387,-25.5664 z m 260.4336,360.3575 c -3.3108,75.7654 -25.3101,148.9253 -65.8379,204.6621 -24.4937,33.6855 -56.069,61.771 -90.7676,80.2363 -34.4994,18.3593 -73.7562,27.809 -110.4941,26.4668 -35.417,-1.294 -72.4698,-12.7207 -104.7754,-32.1856 -32.4806,-19.5702 -61.6406,-47.894 -84.1426,-81.2304 -36.5542,-54.1545 -56.2676,-123.325 -59.4043,-195.1446 l 503.0117,-2.6464 c 4.1818,-0.022 8.2561,-0.1154 12.4102,-0.1582 z m -715.3731,10.621 c 2.0664,51.935 10.3042,104.1776 25.6192,154.8379 2.1677,40.1707 -16.5046,85.8362 -46.3223,112.668 -30.2119,27.1866 -78.4809,41.0552 -118.5156,34.0488 -32.37314,-5.6655 -64.53239,-25.0958 -83.51954,-50.1191 -18.77458,-24.7431 -27.9736,-60.1005 -23.63867,-89.4043 4.03944,-27.3064 20.16872,-57.7078 44.32617,-81.6074 24.71888,-24.4551 58.88614,-44.3977 97.71684,-58.002 31.9724,-11.2014 67.0225,-18.0463 104.3339,-22.4219 z"
         id="path4498-7-1-0-1-5-38"
         inkscape:connector-curvature="0" />
      <path
         style="color:#000000;font-style:normal;font-variant:normal;font-weight:normal;font-stretch:normal;font-size:medium;line-height:normal;font-family:sans-serif;text-indent:0;text-align:start;text-decoration:none;text-decoration-line:none;text-decoration-style:solid;text-decoration-color:#000000;letter-spacing:normal;word-spacing:normal;text-transform:none;direction:ltr;block-progression:tb;writing-mode:lr-tb;baseline-shift:baseline;text-anchor:start;white-space:normal;clip-rule:nonzero;display:inline;overflow:visible;visibility:visible;opacity:1;isolation:auto;mix-blend-mode:normal;color-interpolation:sRGB;color-interpolation-filters:linearRGB;solid-color:#000000;solid-opacity:1;fill:#000000;fill-opacity:1;fill-rule:evenodd;stroke:none;stroke-width:70.00000763;stroke-linecap:round;stroke-linejoin:round;stroke-miterlimit:4;stroke-dasharray:none;stroke-dashoffset:0;stroke-opacity:1;color-rendering:auto;image-rendering:auto;shape-rendering:auto;text-rendering:auto;enable-background:accumulate"
         d="m -2055.9824,1304.375 c -60.9952,0.8058 -120.5359,18.4466 -172.6934,48.2324 -52.0863,29.7452 -96.3639,71.1542 -131.1308,118.8633 -53.674,73.6545 -83.6037,160.3454 -96.3711,248.625 -78.6481,2.9145 -158.5665,11.4541 -235.7969,39.1191 -56.6877,20.3064 -111.1598,51.1556 -155.2051,95.3204 -44.2293,44.3492 -76.978,101.942 -86.5273,166.0117 -10.5759,70.9571 8.6843,144.1683 51.4179,201.2734 42.673,57.0239 106.7252,95.659 176.418,108.1445 87.4145,15.6605 179.5675,-10.8925 245.2461,-70.666 36.5888,-33.2992 63.6502,-75.7595 79.1992,-122.1289 1.7168,2.7426 3.34,5.5289 5.1172,8.2422 33.8008,51.6039 78.1744,96.8994 131.3848,129.9668 53.2849,33.1139 114.964,53.4503 178.6054,55.7754 66.0275,2.4123 131.3567,-14.6815 188.3965,-46.0703 56.9551,-31.3422 105.0845,-76.3803 142.0078,-128.6934 73.7942,-104.5518 100.7637,-233.9626 96.7715,-358.084 -0.1881,-5.8498 -0.4963,-11.7102 -0.8242,-17.5722 55.0874,-1.8134 109.1438,-2.3568 161.8574,3.1738 49.1162,5.1532 96.1396,18.3038 130.9903,44.8145 17.2775,13.1429 31.4473,29.6741 40.0546,47.7851 8.5163,17.9192 11.6699,38.2723 8.3555,56.125 -4.4271,23.8465 -21.5273,47.4212 -44.2461,62.8184 -23.1834,15.712 -52.7997,24.5819 -84.0195,27.8769 -3.1185,0.3292 -6.2482,0.548 -9.377,0.7715 -15.7726,-1.4081 -31.6555,-1.4862 -47.4394,-0.037 a 35.003504,35.003504 0 0 0 0.4785,69.748 c 15.2585,1.1899 30.5857,1.333 45.8633,0.5098 3.3433,0.3882 6.6848,0.8006 10,1.3633 44.7438,7.5941 87.2967,32.2768 115.4238,67.4336 28.0765,35.0935 42.6197,82.0288 38.7637,126.4473 -2.2443,25.8526 -10.527,51.3349 -23.9727,73.2324 -13.4252,21.8641 -32.4294,40.7554 -54.5097,54.5019 -22.1008,13.7593 -48.0136,22.8503 -75.209,27.6582 -27.2276,4.8137 -56.7518,5.4695 -87.8848,5.7461 l -1025.2754,9.1094 c -78.7317,0.6995 -165.0726,0.453 -245.9726,35.5723 -40.7334,17.6826 -79.1791,44.6503 -106.9141,82.5996 l 0,0 c -28.0019,38.3141 -43.7006,86.9836 -36.9512,136.5351 6.1821,45.387 30.2632,84.9171 61.9785,114.1778 31.4451,29.0112 69.4588,47.6906 107.9531,59.2832 76.4051,23.009 153.8817,20.1275 225.7852,19.0293 l 1313.1875,-20.0586 a 35.003504,35.003504 0 1 0 -1.0684,-69.9922 l -1313.1894,20.0586 c -72.5867,1.1087 -142.5654,2.5957 -204.5293,-16.0645 -30.6901,-9.2422 -59.0122,-23.7199 -80.6719,-43.7031 -21.3893,-19.7339 -36.5165,-45.9723 -40.0859,-72.1777 -3.8813,-28.4949 5.6301,-60.5059 24.1054,-85.7852 18.7421,-25.6444 46.7523,-46.0087 78.2715,-59.6914 63.6056,-27.6116 139.9246,-29.0851 218.7207,-29.7852 l 1025.2754,-9.1093 c 31.5284,-0.2802 64.97,-0.7168 99.4492,-6.8125 34.5116,-6.1015 68.9235,-17.8066 100.0196,-37.166 31.1166,-19.3723 57.8018,-45.7607 77.166,-77.2969 19.3437,-31.5031 30.8833,-67.2303 34.0586,-103.8067 5.4933,-63.2789 -14.3848,-126.9141 -53.8418,-176.2324 -17.7365,-22.1692 -39.086,-41.0038 -62.8164,-56.0097 5.5928,-3.0761 11.1205,-6.3341 16.498,-9.9786 36.1005,-24.4662 65.2562,-61.9738 73.7988,-107.9882 6.3763,-34.3453 0.3155,-68.9183 -13.957,-98.9493 -14.1812,-29.839 -35.92,-54.4517 -60.8965,-73.4511 -49.6576,-37.7742 -109.5823,-52.7926 -166.0664,-58.7188 -59.7289,-6.2666 -118.584,-5.5492 -176.5098,-3.539 -13.629,-86.663 -44.3516,-171.3568 -97.9257,-243.1094 -35.8069,-47.9568 -81.36,-89.2624 -134.7188,-118.3985 -53.433,-29.1765 -114.2144,-45.6857 -176.0234,-44.8691 z m 0.9258,69.9941 c 48.6508,-0.6427 98.025,12.5469 141.5488,36.3125 43.5978,23.8062 81.893,58.2808 112.1777,98.8418 43.7407,58.5826 70.5393,129.5307 83.3828,203.9141 -25.2414,0.9704 -50.2802,1.7783 -75.0644,1.9102 l -555.0215,2.9531 c -12.2612,0.065 -24.6338,0.1352 -37.041,0.2363 12.3742,-74.8869 38.5737,-146.4695 81.8398,-205.8418 29.4399,-40.3989 66.6868,-74.9817 109.2715,-99.3008 42.5135,-24.2784 90.8902,-38.391 138.9063,-39.0254 z m 345.1386,408.9551 c 0.3351,5.7421 0.6258,11.4863 0.8106,17.2324 3.6132,112.3397 -21.3655,226.7336 -83.9961,315.4688 -31.2891,44.3305 -71.8853,82.044 -118.5664,107.7324 -46.5962,25.6418 -99.9084,39.348 -152.0938,37.4414 -50.3159,-1.8383 -100.6432,-18.1991 -144.2129,-45.2754 -43.6442,-27.1225 -81.0939,-65.079 -109.7754,-108.8672 -57.41,-87.6484 -79.4022,-197.8851 -75.5078,-306.3203 0.1446,-4.0243 0.3893,-8.0459 0.6055,-12.0683 14.9552,-0.179 29.9558,-0.2872 44.9941,-0.3672 l 555.0215,-2.9531 c 27.8066,-0.148 55.3763,-1.0056 82.7207,-2.0235 z m -752.914,7.2539 c -0.1171,2.548 -0.2914,5.1012 -0.3828,7.6465 -2.6158,72.8323 5.2288,147.5286 26.9902,218.1328 a 35.003504,35.003504 0 0 0 -0.7676,11.2344 c 5.4907,65.8424 -21.8839,135.4647 -70.748,179.9355 -48.8642,44.4709 -120.7517,65.1864 -185.7871,53.5352 -52.0902,-9.332 -101.2622,-39.1488 -132.7168,-81.1816 -31.3938,-41.9517 -45.8915,-97.6026 -38.2286,-149.0157 6.9757,-46.8019 31.9302,-91.8764 66.8575,-126.8984 35.1114,-35.2067 80.4037,-61.3575 129.2461,-78.8535 64.1603,-22.9832 133.7239,-31.2985 205.5371,-34.5352 z"
         id="path4498-7-1-0-1-5-3-9"
         inkscape:connector-curvature="0" />
      <path
         style="color:#000000;font-style:normal;font-variant:normal;font-weight:normal;font-stretch:normal;font-size:medium;line-height:normal;font-family:sans-serif;text-indent:0;text-align:start;text-decoration:none;text-decoration-line:none;text-decoration-style:solid;text-decoration-color:#000000;letter-spacing:normal;word-spacing:normal;text-transform:none;direction:ltr;block-progression:tb;writing-mode:lr-tb;baseline-shift:baseline;text-anchor:start;white-space:normal;clip-rule:nonzero;display:inline;overflow:visible;visibility:visible;opacity:1;isolation:auto;mix-blend-mode:normal;color-interpolation:sRGB;color-interpolation-filters:linearRGB;solid-color:#000000;solid-opacity:1;fill:#000000;fill-opacity:1;fill-rule:evenodd;stroke:none;stroke-width:140;stroke-linecap:round;stroke-linejoin:round;stroke-miterlimit:4;stroke-dasharray:none;stroke-dashoffset:0;stroke-opacity:1;color-rendering:auto;image-rendering:auto;shape-rendering:auto;text-rendering:auto;enable-background:accumulate"
         d="m 1580.8516,-657.60938 c -65.7462,-1.97998 -129.595,15.38568 -185.2325,46.25586 -55.4546,30.76876 -101.6509,74.1439 -137.4199,123.85157 -48.9435,68.01603 -77.2353,145.48966 -91.3398,224.10937 -66.3335,3.79152 -134.5776,12.97971 -202.2969,36.70508 -57.78131,20.2436 -114.3749,51.39283 -161.07031,97.58984 -47.0885,46.585902 -82.58697,107.63767 -92.9336,177.580082 -11.44083,77.339138 9.73119,155.561208 56.38086,217.041018 46.50088,61.28369 114.86594,101.72843 189.64063,114.81445 93.78762,16.41339 190.76102,-11.44406 261.53712,-75.13281 22.2753,-20.04474 41.2778,-43.05238 56.6816,-68.1211 29.5066,35.43848 64.6528,66.71333 105.2051,91.16602 56.4208,34.02125 121.9846,54.05529 190.0293,53.75781 68.0093,-0.29731 133.3499,-20.88002 189.4492,-55.32031 55.9117,-34.32508 101.5249,-81.50379 135.8321,-134.81055 63.1999,-98.20038 86.0669,-212.451564 86.3203,-322.11328 42.5143,0.63727 83.5091,2.96715 122.5722,9.56445 40.8742,6.90316 77.8341,19.49522 105.6153,38.89063 13.7667,9.611241 25.3324,20.949966 33.6543,32.953125 8.2355,11.878645 13.5834,25.02725 15.455,37.101563 3.3354,21.5170834 -4.6797,48.901086 -20.5625,67.669921 -16.3533,19.325021 -43.216,33.763057 -71.1347,37.908203 -0.6748,0.10019 -1.3602,0.142684 -2.0371,0.232422 -15.7409,-1.164478 -31.5526,-1.262978 -47.3106,-0.05078 a 70.007,70.007 0 0 0 -3.0371,139.287107 c 16.5297,1.99943 33.1862,2.35962 49.7715,1.32813 1.2918,0.16876 2.5924,0.28471 3.8789,0.48242 27.5528,4.23423 53.9743,15.51055 74.3672,31.86523 20.2208,16.21671 35.7614,38.76122 42.7734,61.93164 6.303,20.8276 6.3159,44.42952 0.082,64.80665 -6.2134,20.31068 -19.4755,39.99357 -36.6114,54.17187 -17.2629,14.28346 -40.5923,24.94294 -66.3652,30.56836 -25.9552,5.66521 -57.0381,6.70631 -92.2461,7.01562 l -971.0312,8.53125 c -73.1328,0.6425 -158.14122,-2.29749 -244.17974,29.59766 -44.01924,16.31828 -88.15125,42.79558 -121.30468,84.98828 -16.63762,21.17385 -29.99223,45.8468 -37.77149,73.56055 -7.81836,27.85301 -9.73587,57.90297 -3.58203,88.08789 10.94686,53.69508 43.99556,94.83896 82.70703,122.57031 37.82894,27.09916 79.53264,40.86377 118.69336,48.41992 76.26346,14.71521 147.92465,9.82219 211.88285,8.85157 L 2363.627,931.3125 a 70.007,70.007 0 1 0 -2.125,-139.98242 l -1237.711,18.7832 c -68.0594,1.03286 -129.85817,3.9674 -183.23631,-6.33203 -25.66008,-4.95117 -47.84939,-13.41982 -63.6875,-24.76563 -14.95561,-10.7136 -24.8179,-25.7358 -27.0586,-36.72656 -1.27216,-6.24004 -1.03482,-14.34724 1.19336,-22.28515 2.26727,-8.07718 6.73417,-16.84221 13.06446,-24.89844 12.78239,-16.2675 34.19344,-30.6921 59.88671,-40.2168 53.38651,-19.79079 121.18568,-20.20924 196.74418,-20.87305 l 971.0312,-8.52929 c 36.1989,-0.31802 77.0613,-0.66772 120.8731,-10.23047 43.9941,-9.60256 88.0023,-28.24528 125.7578,-59.48438 37.8827,-31.34426 66.5639,-73.10687 81.2402,-121.08203 14.6565,-47.90871 14.4201,-98.79367 0.039,-146.31445 -15.5521,-51.38985 -46.5858,-95.53592 -86.791,-128.5332 4.2595,-4.3223 8.4215,-8.77263 12.3906,-13.46289 41.3302,-48.840391 62.2725,-113.544935 52.041,-179.550785 -5.502,-35.494476 -19.5588,-67.743265 -38.75,-95.423825 -19.1049,-27.55606 -42.8616,-50.03416 -68.5645,-67.97852 -51.1578,-35.71583 -108.3879,-53.01521 -162.4433,-62.14453 -54.0176,-9.12295 -106.8901,-11.73187 -158.209,-12.07031 -13.5448,-72.89593 -39.3393,-144.76072 -83.1172,-208.99024 a 70.007,70.007 0 0 0 0,-0.002 c -33.2982,-48.85397 -76.4521,-92.13706 -128.7285,-124.0625 -52.4388,-32.02455 -113.0969,-51.85272 -176.6152,-53.76563 z m -4.2129,139.93555 c 36.7235,1.10596 74.7113,13.06568 107.8613,33.31055 33.3124,20.344 62.8275,49.41659 86.0117,83.43164 26.251,38.51466 44.5278,83.54582 55.9863,131.80469 l -515.7988,2.71289 c 12.2676,-51.33832 32.2138,-99.12262 61.1367,-139.31641 24.8463,-34.52851 56.4157,-63.62383 91.7071,-83.20508 35.1085,-19.47984 75.1104,-29.88223 113.0957,-28.73828 z m 264.9746,388.37305 c -0.5055,89.355744 -19.8161,176.71946 -64.0254,245.41211 -23.9978,37.28803 -55.4494,69.22472 -91.3516,91.26562 -35.7145,21.92571 -77.0895,34.4572 -116.8144,34.63086 -39.7433,0.17375 -81.2395,-12.00976 -117.125,-33.64843 -36.0732,-21.75178 -67.758,-53.45684 -91.9746,-90.57227 -44.48,-68.171885 -64.1687,-155.144291 -64.8438,-244.10156 2.2692,-0.013 4.4988,-0.0408 6.7735,-0.0527 l 525.6582,-2.76562 c 4.6404,-0.0244 9.0892,-0.12522 13.7031,-0.16797 z m -686.1016,7.40625 c 0.6329,59.1861 8.0811,119.5298286 24.9727,177.841796 a 70.007,70.007 0 0 0 0.166,6.572265 c 3.4126,50.157129 -18.8094,104.989089 -56.1797,138.617189 -37.3703,33.6281 -94.2353,49.96326 -143.75586,41.29687 -39.85569,-6.97498 -78.40552,-30.11299 -102.24804,-61.53515 -23.69373,-31.22606 -35.00298,-74.14713 -29.41407,-111.927737 5.15249,-34.830422 24.69828,-70.6399353 52.90235,-98.542969 28.59715,-28.291918 66.72371,-50.212423 108.89842,-64.988281 44.5162,-15.596193 93.2182,-23.332923 144.6582,-27.333983 z"
         id="path4498-7-1-0-1-5-8"
         inkscape:connector-curvature="0" />
    </g>
  </g>
</svg>
