<?xml version="1.0" encoding="UTF-8" standalone="no"?>
<!-- Created with Inkscape (http://www.inkscape.org/) -->

<svg
   xmlns:dc="http://purl.org/dc/elements/1.1/"
   xmlns:cc="http://creativecommons.org/ns#"
   xmlns:rdf="http://www.w3.org/1999/02/22-rdf-syntax-ns#"
   xmlns:svg="http://www.w3.org/2000/svg"
   xmlns="http://www.w3.org/2000/svg"
   xmlns:sodipodi="http://sodipodi.sourceforge.net/DTD/sodipodi-0.dtd"
   xmlns:inkscape="http://www.inkscape.org/namespaces/inkscape"
   width="2000"
   height="2048"
   id="svg2992"
   version="1.1"
   inkscape:version="0.91 r13725"
   sodipodi:docname="ക്കൃ.svg">
  <defs
     id="defs5498">
    <inkscape:path-effect
       effect="spiro"
       id="path-effect3846"
       is_visible="true" />
    <inkscape:path-effect
       effect="spiro"
       id="path-effect3801"
       is_visible="true" />
    <inkscape:path-effect
       is_visible="true"
       id="path-effect4500-0-5-18-7"
       effect="spiro" />
    <inkscape:path-effect
       is_visible="true"
       id="path-effect4500-0-5-18-7-3"
       effect="spiro" />
    <inkscape:path-effect
       is_visible="true"
       id="path-effect4500-0-5-18-7-7"
       effect="spiro" />
    <inkscape:path-effect
       is_visible="true"
       id="path-effect4500-0-5-18-7-7-5"
       effect="spiro" />
    <inkscape:path-effect
       is_visible="true"
       id="path-effect4500-0-5-18-7-7-9"
       effect="spiro" />
    <inkscape:path-effect
       effect="spiro"
       id="path-effect4187"
       is_visible="true" />
    <inkscape:path-effect
       effect="spiro"
       id="path-effect4183"
       is_visible="true" />
    <inkscape:path-effect
       effect="spiro"
       id="path-effect4183-5"
       is_visible="true" />
    <inkscape:path-effect
       effect="spiro"
       id="path-effect4187-7"
       is_visible="true" />
    <inkscape:path-effect
       is_visible="true"
       id="path-effect4500-0-5-18-7-2"
       effect="spiro" />
    <inkscape:path-effect
       effect="spiro"
       id="path-effect4183-3"
       is_visible="true" />
    <inkscape:path-effect
       is_visible="true"
       id="path-effect4500-0-5-18-7-76"
       effect="spiro" />
    <inkscape:path-effect
       effect="spiro"
       id="path-effect4187-8"
       is_visible="true" />
    <inkscape:path-effect
       effect="spiro"
       id="path-effect4187-1"
       is_visible="true" />
    <inkscape:path-effect
       effect="spiro"
       id="path-effect4183-7"
       is_visible="true" />
    <inkscape:path-effect
       is_visible="true"
       id="path-effect4500-0-5-18-7-8"
       effect="spiro" />
    <inkscape:path-effect
       effect="spiro"
       id="path-effect4187-1-6"
       is_visible="true" />
    <inkscape:path-effect
       effect="spiro"
       id="path-effect4183-7-7"
       is_visible="true" />
    <inkscape:path-effect
       is_visible="true"
       id="path-effect4500-0-5-18-7-8-2"
       effect="spiro" />
    <inkscape:path-effect
       effect="spiro"
       id="path-effect4183-0"
       is_visible="true" />
    <inkscape:path-effect
       is_visible="true"
       id="path-effect4500-0-5-18-7-9"
       effect="spiro" />
    <inkscape:path-effect
       effect="spiro"
       id="path-effect4187-2"
       is_visible="true" />
  </defs>
  <sodipodi:namedview
     inkscape:window-height="845"
     inkscape:window-width="1600"
     inkscape:pageshadow="2"
     inkscape:pageopacity="0.0"
     borderopacity="1.0"
     bordercolor="#666666"
     pagecolor="#ffffff"
     id="base"
     showgrid="true"
     showguides="true"
     inkscape:guide-bbox="true"
     inkscape:zoom="0.3535534"
     inkscape:cx="-1346.576"
     inkscape:cy="-1062.8912"
     inkscape:window-x="1600"
     inkscape:window-y="0"
     inkscape:current-layer="layer1"
     inkscape:window-maximized="1">
    <sodipodi:guide
       orientation="horizontal"
       position="0,600"
       id="guide5596" />
    <inkscape:grid
       type="xygrid"
       id="grid3769"
       empspacing="3"
       visible="true"
       enabled="true"
       snapvisiblegridlinesonly="true"
       spacingx="4px"
       units="px"
       dotted="true"
       spacingy="4px" />
    <sodipodi:guide
       orientation="0,1"
       position="-1040,1600"
       id="guide2985" />
  </sodipodi:namedview>
  <metadata
     id="metadata5594">
    <rdf:RDF>
      <cc:Work
         rdf:about="">
        <dc:format>image/svg+xml</dc:format>
        <dc:type
           rdf:resource="http://purl.org/dc/dcmitype/StillImage" />
        <dc:title />
      </cc:Work>
    </rdf:RDF>
  </metadata>
  <g
     inkscape:label="Layer 1"
     inkscape:groupmode="layer"
     id="layer1"
     transform="translate(0,1048)">
    <path
       sodipodi:nodetypes="aaaaa"
       inkscape:connector-curvature="0"
       inkscape:original-d="m -1586.3711,-561.28892 c 185.7327,-4.53837 358.1669,238.71099 361.2157,424.4741 3.252,198.148479 -172.2119,472.97552 -370.2335,465.17493 -188.0177,-7.40651 -321.5953,-279.88748 -315.6968,-467.95856 5.5613,-177.32083 147.3595,-417.3568 324.7146,-421.69047 z"
       inkscape:path-effect="#path-effect4500-0-5-18-7"
       id="path4498-7-1-0-3"
       d="m -1586.3711,-561.28892 c 51.7145,-2.97642 103.9225,9.37322 149.9172,33.20043 45.9948,23.82721 85.824,58.90603 117.1432,100.16562 62.6386,82.51918 90.2168,187.58273 94.1553,291.10805 4.2607,111.992586 -19.1148,227.906718 -83.789,319.43669 -32.3372,45.76499 -74.7073,84.75684 -124.2563,110.92966 -49.549,26.17281 -106.3268,39.23826 -162.1882,34.80858 -51.939,-4.11864 -102.3066,-23.25589 -145.2293,-52.78992 -42.9228,-29.53403 -78.4797,-69.25884 -105.1345,-114.02647 -53.3097,-89.535269 -70.3079,-197.056917 -65.333,-301.14217 4.6453,-97.18966 28.5533,-195.52928 83.5607,-275.78889 27.5036,-40.1298 62.605,-75.28805 103.8591,-101.0747 41.2541,-25.78664 88.7249,-42.03144 137.2948,-44.82688 z"
       style="fill:none;fill-rule:evenodd;stroke:#000000;stroke-width:140;stroke-linecap:round;stroke-linejoin:round;stroke-miterlimit:4;stroke-dasharray:none;stroke-opacity:1" />
    <path
       style="fill:none;fill-rule:evenodd;stroke:#000000;stroke-width:140;stroke-linecap:round;stroke-linejoin:round;stroke-miterlimit:4;stroke-dasharray:none;stroke-opacity:1"
       d="m -1374,762 c 3.8574,27.08362 16.9401,52.4687 35.269,72.77765 18.3289,20.30895 41.7334,35.68918 66.8875,46.44443 50.3081,21.5105 106.3447,24.63309 161.0482,25.69802 56.4913,1.09974 114.51884,0.0481 167.07912,-20.68585 26.28013,-10.36701 50.84605,-25.69845 70.11974,-46.35385 19.27369,-20.65539 33.0645,-46.79923 37.06624,-74.7654 4.4179,-30.87447 -3.30849,-62.93067 -19.24584,-89.74022 -15.93735,-26.80955 -39.74644,-48.50374 -66.74211,-64.12375 -53.99133,-31.24004 -118.54215,-38.10796 -180.91665,-38.75593 -62.7942,-0.65233 -127.9612,4.96998 -182.7861,35.5932 -27.4124,15.31161 -51.6729,36.86504 -67.96,63.70933 C -1370.468,698.64192 -1378.4274,730.91489 -1374,762 Z"
       id="path4181"
       inkscape:path-effect="#path-effect4183"
       inkscape:original-d="m -1374,762 c 5.3904,100.0095 163.0586,143.6122 263.2047,144.9201 102.9098,1.344 274.2651,-45.8051 274.2651,-141.8051 3.9795,-141.0994 -157.1903,-191.8446 -266.9046,-192.6199 C -1213.5419,571.7171 -1379.9262,652.0497 -1374,762 Z"
       inkscape:connector-curvature="0"
       sodipodi:nodetypes="aacaa" />
    <path
       style="fill:none;fill-rule:evenodd;stroke:#000000;stroke-width:140;stroke-linecap:round;stroke-linejoin:miter;stroke-miterlimit:4;stroke-dasharray:none;stroke-opacity:1"
       d="m -1081.6452,906.8499 c 89.9974,-3.3246 179.47733,-20.32215 264.425,-50.23 179.42667,-63.17143 337.89362,-185.51977 442.21663,-344.58349 104.32302,-159.06373 153.44073,-354.08727 134.29254,-543.343465 -13.64332,-134.847325 -62.75628,-268.365365 -152.86898,-369.605885 -45.05635,-50.62026 -99.98264,-92.70871 -161.51446,-121.10448 -61.53182,-28.39578 -129.68442,-42.91812 -197.38664,-39.93575 -105.2344,4.63572 -206.57038,51.92282 -283.76309,123.59607 -77.1927,71.67324 -130.9608,166.56658 -161.2737,267.44718 -30.651,102.005672 -37.4695,214.519338 1.6801,313.5746 19.5749,49.52763 50.5516,94.86785 91.4371,128.99317 40.8855,34.12532 91.8147,56.69612 144.86979,61.31281 65.753,5.72162 134.00093,-17.39736 180.97448,-63.76201 46.97354,-46.36464 71.06225,-115.58406 60.53622,-180.74077 -7.92927,-49.082648 -34.4597,-94.1722046 -70.33153,-128.598819 -35.87182,-34.426613 -80.70415,-58.657459 -127.85167,-74.440101 -94.29499,-31.56528 -195.93449,-30.63116 -295.37159,-30.20918 l -651.6574,2.7654 c -101.8454,0.4322 -205.2392,-1.80521 -303.7784,23.93763 -49.2696,12.87141 -97.117,33.511525 -136.7862,65.441478 -39.6692,31.929953 -70.7962,75.932013 -81.5135,125.714592 -12.3637,57.43017 3.8874,119.59453 40.0179,165.91594 36.1306,46.32141 90.9247,76.80761 148.8242,86.74389 74.2712,12.74586 153.6826,-8.38069 211.8018,-56.3476 58.1192,-47.9669 93.9235,-121.93009 95.4953,-197.27063"
       id="path4185"
       inkscape:path-effect="#path-effect4187"
       inkscape:original-d="m -1081.6452,906.8499 c 0,0 189.94108,-0.21563 264.425,-50.23 292.96926,-196.72264 610.23379,-536.65293 576.50917,-887.926955 -23.48469,-244.615375 -266.23948,-520.500445 -511.77008,-530.646115 -197.30808,-8.15305 -404.96869,197.67442 -445.03679,391.04325 -37.6891,181.888007 54.8814,472.63848 237.98699,503.88058 112.92469,19.2676 261.46022,-131.69657 241.5107,-244.50278 -31.68837,-179.184459 -319.62089,-233.98621 -493.55479,-233.2481 l -651.6574,2.7654 c -277.2101,1.17638 -472.0428,33.64916 -522.0781,215.0937 -27.9514,101.36117 84.4472,240.12699 188.8421,252.65983 131.8662,15.83083 307.2971,-253.61823 307.2971,-253.61823"
       inkscape:connector-curvature="0"
       sodipodi:nodetypes="caaaaaassaac" />
    <path
       sodipodi:nodetypes="aaaaa"
       inkscape:connector-curvature="0"
       inkscape:original-d="m -4656.3961,-561.24905 c 195.0016,-1.11098 375.9347,250.71787 379.1348,445.82464 3.4133,208.115097 -180.6264,492.26342 -388.5999,488.57268 -202.3695,-3.5913 -366.8029,-286.072921 -361.0453,-488.52563 5.4948,-193.21497 177.3474,-444.77118 370.5104,-445.87169 z"
       inkscape:path-effect="#path-effect4500-0-5-18-7-8"
       id="path4498-7-1-0-3-6"
       d="m -4656.3961,-561.24905 c 54.0258,-0.70918 107.9298,13.40989 155.6431,38.7622 47.7132,25.3523 89.269,61.75825 122.3012,104.51527 66.0645,85.51405 96.9375,194.56997 101.1905,302.54717 4.6019,116.8345188 -21.9787,237.40665 -90.2626,332.3213 -34.1419,47.45733 -78.3856,87.91376 -129.8203,115.70491 -51.4346,27.79115 -110.0935,42.68388 -168.517,40.54647 -56.2946,-2.05952 -111.6664,-19.88349 -159.7342,-49.25699 -48.0679,-29.3735 -88.8782,-70.0988 -120.1617,-116.94607 -62.5669,-93.69456 -85.9735,-209.7614025 -81.1494,-322.32257 4.5654,-106.52434 34.4907,-214.0305 98.6896,-299.15854 32.0994,-42.56401 72.5149,-79.0835 119.109,-104.98827 46.5941,-25.90477 99.4053,-41.02514 152.7118,-41.72488 z"
       style="fill:none;fill-rule:evenodd;stroke:#000000;stroke-width:70;stroke-linecap:round;stroke-linejoin:round;stroke-miterlimit:4;stroke-dasharray:none;stroke-opacity:1" />
    <path
       style="fill:none;fill-rule:evenodd;stroke:#000000;stroke-width:70;stroke-linecap:round;stroke-linejoin:round;stroke-miterlimit:4;stroke-dasharray:none;stroke-opacity:1"
       d="m -4433.4897,792.59972 c 4.0498,28.43107 17.7778,55.08054 37.0123,76.40565 19.2345,21.3251 43.7967,37.48018 70.1977,48.78123 52.802,22.60209 111.6264,25.90424 169.0516,27.02258 59.301,1.15487 120.2153,0.0261 175.381,-21.76118 27.5829,-10.89362 53.364,-26.9975 73.5901,-48.68595 20.2262,-21.68846 34.6976,-49.13372 38.8997,-78.49064 4.6395,-32.41305 -3.4634,-66.06726 -20.1854,-94.21876 -16.7219,-28.1515 -41.7073,-50.93765 -70.0413,-67.34855 -56.6679,-32.82181 -124.4351,-40.06108 -189.9184,-40.74114 -65.9229,-0.68463 -134.3366,5.24762 -191.879,37.42172 -28.7712,16.08706 -54.2303,38.72515 -71.3195,66.91263 -17.0893,28.18749 -25.4373,62.06857 -20.7888,94.70241 z"
       id="path4181-7"
       inkscape:path-effect="#path-effect4183-7"
       inkscape:original-d="m -4433.4897,792.59972 c 5.6603,104.98669 171.1314,150.83593 276.2616,152.20946 108.0299,1.41141 287.8708,-48.1091 287.8708,-148.93777 4.1768,-148.19654 -164.9621,-201.49437 -280.1451,-202.30845 -115.5943,-0.81699 -290.2107,83.6072 -283.9873,199.03676 z"
       inkscape:connector-curvature="0"
       sodipodi:nodetypes="aacaa" />
    <path
       style="fill:none;fill-rule:evenodd;stroke:#000000;stroke-width:70;stroke-linecap:butt;stroke-linejoin:miter;stroke-miterlimit:4;stroke-dasharray:none;stroke-opacity:1"
       d="m -4126.6319,944.7354 c 94.711,-0.24832 189.346,-18.23695 277.5426,-52.75651 132.5363,-51.87381 249.4845,-140.8798 339.6654,-250.98955 90.1809,-110.10975 153.9395,-240.881 191.2246,-378.23665 48.1102,-177.234567 50.9199,-372.90494 -28.2809,-538.59716 -39.6005,-82.84612 -99.4126,-156.62849 -175.1945,-208.48195 -75.7818,-51.85345 -167.705,-81.07712 -259.464,-77.6203 -110.2633,4.15393 -216.0115,55.31368 -296.186,131.12453 -80.1746,75.81086 -135.9695,174.93051 -170.9281,279.58774 -36.4396,109.090837 -50.6307,230.478118 -10.3024,338.192 20.1642,53.85694 53.9921,103.0888 99.5572,138.17416 45.5651,35.08536 103.0865,55.40142 160.5382,52.85901 62.5283,-2.76706 123.2668,-33.18394 163.2037,-81.37623 39.9368,-48.19229 58.5397,-113.3664 50.4027,-175.42474 -7.9953,-60.977835 -40.7436,-117.226944 -85.3942,-159.51815 -44.6506,-42.291207 -100.6507,-71.37921 -159.2506,-90.04148 -117.1996,-37.32452 -242.7602,-35.51115 -365.7596,-35.33193 l -551.734,0.80391 c -111.2809,0.16214 -225.1344,0.0416 -330.118,36.94553 -52.4919,18.45196 -102.1902,46.460698 -141.6315,85.706785 -39.4412,39.2460864 -68.1929,90.214963 -76.2277,145.272285 -8.8194,60.4333 8.2308,123.97859 45.1167,172.65507 36.8858,48.67647 92.9459,82.1189 153.0934,92.71323 75.2507,13.25459 156.077,-9.93116 212.8586,-61.06037 56.7816,-51.12922 88.2847,-129.09093 82.9643,-205.31455"
       id="path4185-3"
       inkscape:path-effect="#path-effect4187-1"
       inkscape:original-d="m -4126.6319,944.7354 c 0,0 196.2392,-5.23933 277.5426,-52.75651 236.926,-138.46965 504.9511,-356.03226 530.89,-629.2262 29.7979,-313.838379 -152.3389,-771.65201 -462.9394,-824.69941 -204.3182,-34.89548 -425.0583,207.61722 -467.1141,410.71227 -39.5587,191.036743 56.3833,504.62064 249.793,529.22517 110.4106,14.04583 237.907,-148.11553 213.6064,-256.80097 -49.019,-219.239486 -427.8406,-285.15762 -610.4044,-284.89156 l -551.734,0.80391 c -290.9643,0.42387 -500.2006,70.190819 -547.9772,267.9246 -25.9358,107.34033 88.3801,254.55159 198.2101,265.3683 132.016,13.00188 295.8229,-266.37492 295.8229,-266.37492"
       inkscape:connector-curvature="0"
       sodipodi:nodetypes="caaaaaassaac" />
    <path
       style="color:#000000;font-style:normal;font-variant:normal;font-weight:normal;font-stretch:normal;font-size:medium;line-height:normal;font-family:sans-serif;text-indent:0;text-align:start;text-decoration:none;text-decoration-line:none;text-decoration-style:solid;text-decoration-color:#000000;letter-spacing:normal;word-spacing:normal;text-transform:none;direction:ltr;block-progression:tb;writing-mode:lr-tb;baseline-shift:baseline;text-anchor:start;white-space:normal;clip-rule:nonzero;display:inline;overflow:visible;visibility:visible;opacity:1;isolation:auto;mix-blend-mode:normal;color-interpolation:sRGB;color-interpolation-filters:linearRGB;solid-color:#000000;solid-opacity:1;fill:#000000;fill-opacity:1;fill-rule:evenodd;stroke:none;stroke-width:70;stroke-linecap:round;stroke-linejoin:round;stroke-miterlimit:4;stroke-dasharray:none;stroke-dashoffset:0;stroke-opacity:1;color-rendering:auto;image-rendering:auto;shape-rendering:auto;text-rendering:auto;enable-background:accumulate"
       d="m -3384.3965,2754.7793 c -4.6832,0.022 -9.3706,0.1219 -14.0605,0.2988 -120.2252,4.5292 -233.2877,59.7019 -318.9141,140.668 -67.8218,64.1304 -118.5278,143.1467 -154.7715,227.5703 -16.1274,-75.5663 -46.4957,-148.4045 -94.6113,-210.6855 -35.8382,-46.3891 -81.0386,-86.1097 -133.5762,-114.0254 -52.6041,-27.9511 -112.0977,-43.6448 -172.5254,-42.8516 -59.6199,0.7826 -117.9043,17.5789 -169.2597,46.1309 -51.2915,28.5163 -95.2386,68.3496 -130.0469,114.5058 -53.0659,70.3656 -83.863,153.6183 -97.6328,238.8789 -78.2628,2.5116 -157.883,10.6774 -234.9219,37.7578 -56.4253,19.8347 -110.751,50.1757 -154.7109,93.918 -44.1528,43.9344 -76.8619,101.2184 -86.1739,165.0274 -10.2564,70.2806 9.2476,142.6227 51.8536,198.8476 42.5351,56.1315 106.0371,93.9124 174.9179,106.0449 86.3347,15.207 177.2045,-10.8613 242.3496,-69.5214 36.1109,-32.5162 63.0803,-73.9415 78.9141,-119.3008 2.1864,3.4701 4.4185,6.9186 6.7031,10.3398 33.888,50.7475 78.1887,95.0901 131.0176,127.3731 52.8972,32.3246 113.8754,52.0705 176.7051,54.3691 65.2148,2.3859 129.8084,-14.1347 186.4336,-44.7305 56.5477,-30.5537 104.5876,-74.6199 141.5937,-126.0586 14.7966,-20.5673 27.736,-42.1538 38.9395,-64.5097 2.6285,8.8539 5.5657,17.6594 8.8398,26.4043 22.2154,59.3354 59.5119,114.0002 110.9824,153.6328 51.6721,39.7877 116.73,63.0458 183.4395,60.0937 72.8454,-3.2236 142.1607,-37.9642 188.6055,-94.0097 46.4219,-56.0178 67.5978,-130.3005 58.1562,-202.3086 -9.2362,-70.4418 -46.3326,-133.3083 -96.0293,-180.3789 -49.441,-46.8285 -110.2209,-78.0816 -172.6973,-97.9786 -57.9567,-18.4573 -116.986,-27.7206 -175.916,-32.3984 33.3521,-79.7627 80.148,-153.2459 141.5157,-211.2734 74.7226,-70.6558 173.1556,-117.8015 273.457,-121.5801 83.4648,-3.1443 168.4272,23.6638 238.3808,71.5293 70.0953,47.9625 126.2073,116.9222 163.3809,194.6914 74.4381,155.7283 72.5763,343.0522 26.082,514.334 -36.1137,133.0405 -97.8278,259.3719 -184.5254,365.2285 -84.4923,103.1641 -193.4024,186.8561 -315.9707,236.8223 8.766,-16.9022 14.9726,-35.3194 17.7618,-54.8047 5.9309,-41.4352 -4.2987,-82.6393 -24.7403,-117.0528 -20.3046,-34.1831 -49.8211,-60.779 -82.5918,-79.7597 -65.2085,-37.7685 -139.284,-44.7489 -207.0957,-45.4531 -68.2738,-0.7091 -143.0671,4.8243 -209.3242,41.871 -33.3026,18.6208 -63.3963,45.0553 -84.168,79.3165 -20.9154,34.4987 -31.4602,76.0093 -25.5097,117.7832 5.1764,36.3403 22.2735,68.9684 45.6738,94.9121 23.2718,25.8011 52.1394,44.5564 82.4141,57.5156 60.3135,25.8174 123.8415,28.7045 182.1425,29.8398 34.4284,0.6706 70.6645,0.7847 107.1563,-3.8828 73.3754,-7.1838 145.7267,-24.4608 214.4219,-51.3476 138.6825,-54.2794 260.2652,-146.974 353.9863,-261.4063 93.6642,-114.3628 159.4674,-249.5732 197.9238,-391.2441 49.7261,-183.1875 53.4831,-387.2053 -30.4804,-562.8614 -42.0272,-87.923 -105.5395,-166.5269 -187.0079,-222.2714 -76.5095,-52.3514 -168.2009,-83.4313 -261.8046,-84.0059 -1.5601,-0.01 -3.1206,-0.011 -4.6817,-0 z m -883.0742,70.9492 c 46.1717,0.1891 92.8108,12.6508 134.2949,34.6934 42.8888,22.7888 80.8011,55.879 111.0274,95.0039 43.6934,56.5569 71.156,125.4759 84.5605,197.9238 -24.7754,-0.164 -49.3861,-0.086 -73.7207,-0.051 l -551.7344,0.8028 c -11.7543,0.017 -23.5974,0.031 -35.4882,0.076 13.1954,-71.4145 39.8478,-139.403 82.2578,-195.6386 29.3904,-38.9721 66.2751,-72.1795 108.1718,-95.4727 41.8329,-23.2577 89.171,-36.7015 136.1641,-37.3184 1.4882,-0.019 2.9774,-0.026 4.4668,-0.019 z m 282.2012,397.5449 c 18.8273,-0 37.593,0.05 56.2793,0.2539 0.3023,4.8069 0.5664,9.6154 0.7558,14.4258 4.356,110.5921 -21.1088,223.5005 -83.7011,310.5039 -31.2777,43.476 -71.7252,80.3231 -118.0469,105.3516 -46.2441,24.9866 -98.9675,38.2522 -150.5996,36.3633 -49.7596,-1.8204 -99.5251,-17.7241 -142.7637,-44.1465 -43.3067,-26.4641 -80.6257,-63.5705 -109.3047,-106.5176 -57.3924,-85.9457 -79.8617,-194.6926 -75.2891,-301.3867 0.198,-4.6191 0.464,-9.2363 0.7637,-13.8516 14.7012,-0.1126 29.4514,-0.1464 44.2344,-0.1679 l 551.7344,-0.8028 c 8.6568,-0.012 17.303,-0.024 25.9375,-0.025 z m -692.1367,2.5098 c -0.1745,3.1144 -0.3355,6.2285 -0.4688,9.3398 -3.1994,74.652 5.2987,151.2723 28.9805,223.127 l -2.9571,0.207 c 4.5367,64.9964 -23.0507,133.269 -71.4687,176.8672 -48.4181,43.5982 -119.2005,63.9039 -183.3672,52.6016 -51.4141,-9.056 -100.033,-38.1615 -131.2695,-79.3828 -31.1659,-41.1281 -45.7613,-95.877 -38.3789,-146.4629 6.7576,-46.3057 31.5516,-90.9578 66.2812,-125.5156 34.9227,-34.7499 79.9943,-60.4288 128.5527,-77.4981 63.7858,-22.4217 132.8101,-30.4 204.0958,-33.2832 z m 841.6601,0.791 c 62.085,3.8715 122.4652,12.202 179.627,30.4063 54.7232,17.4277 105.9425,44.3476 145.8027,82.1015 39.6045,37.5118 68.0054,87.1444 74.7598,138.6582 6.8323,52.1085 -9.1966,108.1743 -42.6485,148.541 -33.4288,40.3392 -85.5915,66.4337 -137.8027,68.7442 -48.194,2.1327 -98.1786,-15.2421 -137.6367,-45.625 -39.6597,-30.5382 -70.0198,-74.3365 -88.1328,-122.7149 -34.6535,-92.5568 -25.1008,-199.9474 6.0312,-300.1113 z m 57.9824,753.9453 c 3.9584,-0.017 7.9252,-0 11.8985,0.039 l 0,0 c 63.1549,0.656 124.613,8.1543 172.7402,36.0293 23.8973,13.8413 44.3511,32.8177 57.4902,54.9375 13.0025,21.8896 18.979,47.994 15.6309,71.3848 -3.0386,21.2283 -13.9888,42.5707 -29.8496,59.5781 -16.0022,17.1592 -37.2973,30.7003 -60.8496,40.002 -22.1002,8.7283 -46.1019,13.764 -71.3496,16.539 -20.1798,1.7417 -40.4278,2.6521 -93.7357,2.1671 -53.3079,-0.485 -107.427,-4.2021 -152.7175,-23.5889 -22.5273,-9.6428 -42.7851,-23.1999 -57.9824,-40.0489 -15.0687,-16.7066 -25.4284,-37.3766 -28.3515,-57.8984 -3.3466,-23.4938 2.8054,-49.7448 16.0683,-71.6211 13.407,-22.1138 34.2309,-40.9563 58.4707,-54.5098 45.7761,-25.595 103.1609,-32.76 162.5371,-33.0117 z"
       transform="translate(0,-1048)"
       id="path4498-7-1-0-3-6-4"
       inkscape:connector-curvature="0"
       sodipodi:nodetypes="ccscssssscsssssscssssscssssssscsssssscsssssssssscsssssccssscsscsscssccsssssscscsccccssssssccsssssssccccsssssccsssssc" />
    <path
       style="color:#000000;font-style:normal;font-variant:normal;font-weight:normal;font-stretch:normal;font-size:medium;line-height:normal;font-family:sans-serif;text-indent:0;text-align:start;text-decoration:none;text-decoration-line:none;text-decoration-style:solid;text-decoration-color:#000000;letter-spacing:normal;word-spacing:normal;text-transform:none;direction:ltr;block-progression:tb;writing-mode:lr-tb;baseline-shift:baseline;text-anchor:start;white-space:normal;clip-rule:nonzero;display:inline;overflow:visible;visibility:visible;opacity:1;isolation:auto;mix-blend-mode:normal;color-interpolation:sRGB;color-interpolation-filters:linearRGB;solid-color:#000000;solid-opacity:1;fill:#000000;fill-opacity:1;fill-rule:evenodd;stroke:none;stroke-width:140;stroke-linecap:round;stroke-linejoin:round;stroke-miterlimit:4;stroke-dasharray:none;stroke-dashoffset:0;stroke-opacity:1;color-rendering:auto;image-rendering:auto;shape-rendering:auto;text-rendering:auto;enable-background:accumulate"
       d="M -634.49805 2141.668 C -641.95423 2141.6407 -649.42414 2141.7897 -656.90039 2142.1191 C -781.06977 2147.5889 -896.88302 2202.3373 -985.21094 2284.3496 C -1029.9639 2325.9026 -1067.3006 2373.7542 -1097.5977 2425.3789 C -1114.1336 2382.6071 -1136.2095 2341.5445 -1164.8926 2303.7578 C -1201.9394 2254.9528 -1249.3383 2212.9043 -1305.5938 2183.7617 C -1354.9729 2158.1813 -1410.3008 2143.1428 -1467.2422 2142.3086 C -1475.3767 2142.1894 -1483.5428 2142.3586 -1491.7305 2142.8301 C -1553.2193 2146.369 -1611.5917 2166.6077 -1662.1074 2198.1836 C -1712.4782 2229.6687 -1754.1772 2271.7306 -1786.6035 2319.043 C -1837.5604 2393.3926 -1864.4569 2478.1126 -1876.082 2562.6953 C -1944.1303 2564.2427 -2014.7524 2569.5749 -2086.043 2588.1992 C -2142.2959 2602.895 -2199.419 2626.9079 -2249.0273 2666.8379 C -2299.2337 2707.2493 -2340.2799 2763.6038 -2355.0801 2832.3516 C -2372.2872 2912.2797 -2350.3755 2993.8077 -2301.8262 3056.0508 C -2253.7475 3117.6903 -2183.8147 3156.0062 -2109.6465 3168.7344 C -2014.4683 3185.0682 -1915.9267 3158.8521 -1841.4473 3097.3828 C -1814.7052 3075.312 -1791.8395 3049.3328 -1773.418 3020.6289 C -1747.5752 3053.4579 -1716.9266 3082.96 -1681.6367 3107.2422 C -1629.2801 3143.2674 -1567.6775 3166.9571 -1502.2598 3172.1445 C -1431.8595 3177.7271 -1362.4132 3161.4453 -1301.8438 3129.4512 C -1241.479 3097.5653 -1191.2666 3051.0177 -1153.1133 2997.0215 C -1149.8578 2992.4141 -1146.7034 2987.7607 -1143.6328 2983.0703 C -1120.7008 3026.7647 -1089.6853 3066.7744 -1050.5938 3099.4023 C -999.41098 3142.1223 -935.76805 3170.7215 -866.9375 3176.7109 C -780.79351 3184.2069 -693.53988 3155.038 -630.7207 3093.0332 C -567.47226 3030.6046 -535.80153 2940.7715 -550.25391 2851.3105 C -561.02729 2784.6227 -595.75876 2727.0015 -641.2207 2683.3711 C -686.27572 2640.1313 -740.38805 2611.4433 -795.32031 2593.0547 C -867.30207 2568.9588 -939.47756 2561.8586 -1008.8027 2559.8633 C -980.58035 2493.9205 -940.61149 2433.9835 -889.95312 2386.9473 C -823.89562 2325.613 -737.03773 2285.786 -650.73828 2281.9844 C -595.08058 2279.5326 -537.6847 2291.5863 -485.76367 2315.5469 C -433.73614 2339.5566 -386.2889 2375.7225 -347.20508 2419.6328 C -269.01585 2507.4774 -224.10893 2627.0336 -211.69336 2749.7461 C -194.2368 2922.2829 -239.41626 3102.1041 -334.875 3247.6523 C -415.67967 3370.8571 -532.97012 3470.8719 -667.01367 3533.9121 C -664.18685 3490.4321 -675.97931 3448.8746 -696.94336 3413.6094 C -720.0527 3374.7351 -752.92737 3345.4217 -788.79883 3324.666 C -859.87477 3283.5407 -937.03452 3277.2001 -1004.0449 3276.5039 C -1071.5198 3275.803 -1149.4376 3280.62 -1221.6953 3320.9805 C -1258.1729 3341.3556 -1291.7069 3370.4986 -1315.3652 3409.4922 C -1339.3122 3448.9615 -1351.6711 3496.4995 -1344.6387 3545.875 C -1338.5269 3588.7871 -1318.7022 3626.1338 -1292.0352 3655.6816 C -1265.6257 3684.9441 -1233.6041 3705.5213 -1200.7012 3719.5898 C -1135.3675 3747.5249 -1069.9319 3749.8115 -1013.4961 3750.9102 C -967.98277 3751.7961 -916.75339 3752.1112 -864.0332 3739.4082 C -806.67291 3730.2611 -750.14462 3715.9592 -695.3125 3696.6543 C -501.35852 3628.3683 -330.93222 3496.9138 -217.80859 3324.4316 C -104.62131 3151.8523 -51.56452 2941.628 -72.404297 2735.6523 C -87.27535 2588.6703 -140.59469 2441.189 -242.63086 2326.5527 C -293.65974 2269.2223 -356.06545 2221.2115 -427.10156 2188.4297 C -489.35137 2159.7026 -557.54645 2143.1036 -627.04688 2141.7559 L -627.04688 2141.7539 C -629.52903 2141.7058 -632.01265 2141.6771 -634.49805 2141.668 z M -1472.9668 2282.2832 C -1471.7701 2282.2813 -1470.5708 2282.2906 -1469.3711 2282.3105 L -1469.3711 2282.3125 C -1435.7796 2282.8695 -1401.1019 2291.9532 -1369.9902 2308.0703 C -1334.256 2326.5821 -1301.9958 2354.6903 -1276.4043 2388.4043 C -1240.0475 2436.3002 -1216.8631 2495.8993 -1205.168 2559.6152 L -1734.1641 2561.8594 C -1723.535 2501.5642 -1703.2052 2444.9975 -1671.123 2398.1875 C -1648.5421 2365.2402 -1620.0378 2336.9865 -1587.9004 2316.8984 C -1555.9079 2296.9009 -1519.3385 2284.6496 -1483.6875 2282.5977 C -1480.1318 2282.393 -1476.557 2282.2888 -1472.9668 2282.2832 z M -1048.8672 2699.4238 C -973.15382 2700.3037 -902.05592 2704.9595 -839.76172 2725.8125 C -800.39894 2738.9892 -764.8488 2758.7636 -738.16016 2784.377 C -711.87844 2809.5998 -693.54805 2842.1593 -688.46289 2873.6367 C -681.8632 2914.4891 -698.3697 2963.0938 -729.06836 2993.3945 C -760.19626 3024.1189 -809.43878 3041.1855 -854.80078 3037.2383 C -892.08049 3033.9943 -930.29651 3017.4525 -960.88477 2991.9219 C -991.70653 2966.1963 -1016.4123 2930.5715 -1032.0762 2890.9395 C -1054.8734 2833.2586 -1058.8049 2766.4961 -1048.8672 2699.4238 z M -1197.25 2699.582 C -1202.4932 2779.3117 -1224.8381 2855.9204 -1267.4512 2916.2285 C -1293.9722 2953.7622 -1328.4991 2985.1984 -1367.2324 3005.6582 C -1405.7609 3026.0097 -1449.8708 3035.8588 -1491.1934 3032.582 C -1529.6536 3029.5322 -1568.7886 3014.9471 -1602.2773 2991.9043 C -1635.9244 2968.7527 -1664.9776 2936.6301 -1686.9453 2899.7344 C -1720.9522 2842.6189 -1738.2329 2773.6907 -1742.2812 2701.8945 L -1197.25 2699.582 z M -1882.4785 2703.2656 C -1880.3181 2750.794 -1873.4907 2798.7176 -1860.5215 2845.4297 C -1861.8895 2899.3257 -1889.0002 2955.106 -1930.5625 2989.4082 C -1972.3215 3023.8727 -2032.6025 3039.91 -2085.9668 3030.752 C -2127.5976 3023.6076 -2167.2531 3000.9505 -2191.4355 2969.9473 C -2215.1472 2939.5475 -2225.7371 2896.7467 -2218.2168 2861.8145 C -2211.5824 2830.997 -2190.3762 2799.347 -2161.2441 2775.8984 C -2131.5141 2751.9686 -2092.9425 2734.7013 -2050.6562 2723.6543 C -1998.3682 2709.9944 -1941.8878 2705.1041 -1882.4785 2703.2656 z M -1016.3281 3416.4668 C -1012.7428 3416.4478 -1009.1321 3416.4584 -1005.5 3416.4961 C -947.76132 3417.0959 -895.8208 3424.4891 -858.91406 3445.8438 C -840.7942 3456.3281 -826.05051 3470.4035 -817.28516 3485.1484 C -808.79407 3499.432 -805.32764 3516.3829 -807.16211 3529.2031 C -808.83606 3540.9015 -815.57691 3554.8372 -826.11328 3566.1289 C -836.93314 3577.7244 -852.52486 3587.9347 -870.74219 3595.1211 C -877.97694 3597.9751 -885.65557 3600.3521 -893.72852 3602.332 C -924.1618 3606.8961 -954.84292 3609.7693 -985.56836 3610.9043 A 70.007 70.007 0 0 0 -989.02734 3611.1562 C -996.15627 3611.1569 -1003.401 3611.081 -1010.7715 3610.9375 C -1063.7427 3609.9063 -1110.3796 3605.9492 -1145.6621 3590.8633 C -1163.0674 3583.4212 -1177.8551 3573.2383 -1188.1035 3561.8828 C -1198.0942 3550.8128 -1204.4341 3537.3899 -1206.0371 3526.1348 C -1207.8594 3513.34 -1204.2991 3496.3307 -1195.6719 3482.1113 C -1186.756 3467.4163 -1171.771 3453.4532 -1153.4238 3443.2051 C -1118.3687 3423.6245 -1070.108 3416.7519 -1016.3281 3416.4668 z "
       transform="translate(0,-1048)"
       id="path4498-7-1-0-3-9" />
  </g>
</svg>
