<?xml version="1.0" encoding="UTF-8" standalone="no"?>
<!-- Created with Inkscape (http://www.inkscape.org/) -->

<svg
   xmlns:dc="http://purl.org/dc/elements/1.1/"
   xmlns:cc="http://creativecommons.org/ns#"
   xmlns:rdf="http://www.w3.org/1999/02/22-rdf-syntax-ns#"
   xmlns:svg="http://www.w3.org/2000/svg"
   xmlns="http://www.w3.org/2000/svg"
   xmlns:sodipodi="http://sodipodi.sourceforge.net/DTD/sodipodi-0.dtd"
   xmlns:inkscape="http://www.inkscape.org/namespaces/inkscape"
   width="2000"
   height="2048"
   id="svg2992"
   version="1.1"
   inkscape:version="0.91 r13725"
   sodipodi:docname="ഗ്മ.svg">
  <defs
     id="defs5498">
    <inkscape:path-effect
       effect="spiro"
       id="path-effect4209"
       is_visible="true" />
    <inkscape:path-effect
       effect="spiro"
       id="path-effect4504-9-4-6-7-6-3"
       is_visible="true" />
    <inkscape:path-effect
       effect="spiro"
       id="path-effect4170"
       is_visible="true" />
    <inkscape:path-effect
       effect="spiro"
       id="path-effect4166"
       is_visible="true" />
    <inkscape:path-effect
       effect="spiro"
       id="path-effect4170-7"
       is_visible="true" />
    <inkscape:path-effect
       effect="spiro"
       id="path-effect4166-8"
       is_visible="true" />
    <inkscape:path-effect
       effect="spiro"
       id="path-effect4504-9-4-6-7-6-3-4"
       is_visible="true" />
    <inkscape:path-effect
       effect="spiro"
       id="path-effect4504-9-4-6-7-6-3-4-5"
       is_visible="true" />
    <inkscape:path-effect
       effect="spiro"
       id="path-effect4166-8-0"
       is_visible="true" />
    <inkscape:path-effect
       effect="spiro"
       id="path-effect4170-7-4"
       is_visible="true" />
    <inkscape:path-effect
       effect="spiro"
       id="path-effect4209-1"
       is_visible="true" />
    <inkscape:path-effect
       effect="spiro"
       id="path-effect4170-7-6"
       is_visible="true" />
    <inkscape:path-effect
       effect="spiro"
       id="path-effect4209-4"
       is_visible="true" />
    <inkscape:path-effect
       effect="spiro"
       id="path-effect4170-7-5"
       is_visible="true" />
    <inkscape:path-effect
       effect="spiro"
       id="path-effect4209-9"
       is_visible="true" />
    <inkscape:path-effect
       effect="spiro"
       id="path-effect4170-7-1"
       is_visible="true" />
    <inkscape:path-effect
       effect="spiro"
       id="path-effect4209-9-3"
       is_visible="true" />
    <inkscape:path-effect
       effect="spiro"
       id="path-effect4170-7-1-4"
       is_visible="true" />
    <inkscape:path-effect
       effect="spiro"
       id="path-effect4209-93"
       is_visible="true" />
    <inkscape:path-effect
       effect="spiro"
       id="path-effect4170-7-3"
       is_visible="true" />
  </defs>
  <sodipodi:namedview
     inkscape:window-height="843"
     inkscape:window-width="1600"
     inkscape:pageshadow="2"
     inkscape:pageopacity="0.0"
     borderopacity="1.0"
     bordercolor="#666666"
     pagecolor="#ffffff"
     id="base"
     showgrid="true"
     showguides="true"
     inkscape:guide-bbox="true"
     inkscape:zoom="0.5"
     inkscape:cx="3443.4007"
     inkscape:cy="1118.5769"
     inkscape:window-x="1600"
     inkscape:window-y="0"
     inkscape:current-layer="layer1"
     inkscape:window-maximized="1">
    <sodipodi:guide
       orientation="horizontal"
       position="0,600"
       id="guide5596" />
    <inkscape:grid
       type="xygrid"
       id="grid3769"
       empspacing="3"
       visible="true"
       enabled="true"
       snapvisiblegridlinesonly="true"
       spacingx="4px"
       units="px"
       dotted="true"
       spacingy="4px" />
    <sodipodi:guide
       orientation="0,1"
       position="-1040,1710"
       id="guide2985"
       inkscape:label=""
       inkscape:color="rgb(0,0,255)" />
    <sodipodi:guide
       position="672,1488"
       orientation="0,1"
       id="guide4207" />
  </sodipodi:namedview>
  <metadata
     id="metadata5594">
    <rdf:RDF>
      <cc:Work
         rdf:about="">
        <dc:format>image/svg+xml</dc:format>
        <dc:type
           rdf:resource="http://purl.org/dc/dcmitype/StillImage" />
        <dc:title />
      </cc:Work>
    </rdf:RDF>
  </metadata>
  <g
     inkscape:label="Layer 1"
     inkscape:groupmode="layer"
     id="layer1"
     transform="translate(0,1048)">
    <path
       style="fill:none;fill-rule:evenodd;stroke:#000000;stroke-width:140;stroke-linecap:round;stroke-linejoin:round;stroke-miterlimit:4;stroke-dasharray:none;stroke-opacity:1"
       d="m 1393.8172,-545.20685 c 71.6165,-6.1732 145.4271,21.61658 195.1894,73.48898 51.9232,54.12501 76.1887,130.98664 75.7206,205.98877 -0.4681,75.00213 -23.9122,148.3822 -57.0157,215.685228 -82.7878,168.316692 -228.9763,304.498112 -402.7313,375.163002"
       id="path4168-9"
       inkscape:path-effect="#path-effect4170-7"
       inkscape:original-d="m 1393.8172,-545.20685 c -7.5058,-16.26246 140.5172,-22.42434 195.1894,73.48898 67.6816,118.73619 71.9677,291.4492 18.7049,421.673998 -69.4542,169.811912 -192.8538,269.085602 -402.7313,375.163002"
       inkscape:connector-curvature="0"
       sodipodi:nodetypes="csac" />
    <path
       style="fill:none;fill-rule:evenodd;stroke:#000000;stroke-width:140;stroke-linecap:round;stroke-linejoin:round;stroke-miterlimit:4;stroke-dasharray:none;stroke-opacity:1"
       d="m 1198.4027,331.95773 818,0 0.9013,-409.954863 c 1.7127,-28.053677 0.4313,-56.289187 -3.8152,-84.072437 -16.4557,-107.66287 -78.2917,-206.18055 -163.1017,-274.51322 -84.8099,-68.33267 -191.3014,-107.36049 -299.6314,-118.61595 -60.4326,-6.27893 -122.2218,-4.03983 -180.8264,11.99241 -58.6045,16.03224 -113.563,46.26809 -156.7695,88.98488 -43.2065,42.71678 -73.859,97.35427 -91.1166,155.60975 -17.2576,58.25548 -21.1526,119.50538 -24.024,180.19543 l -2.4656,52.113582 c -2.4178,51.103984 -5.3878,102.502436 -17.3041,152.256473 -11.9164,49.754035 -32.8371,97.672985 -64.0115,138.239225 -31.17437,40.56623 -72.34237,73.40074 -118.8809,94.6523 -46.53852,21.25155 -98.11032,30.96068 -149.2532,29.59362 C 642.78035,345.67706 542.5817,297.17404 471.88563,221.77212 401.18957,146.37019 359.62763,45.56684 350.57096,-57.39607 c -8.81854,-100.25562 12.61637,-202.97581 60.79427,-291.33782 48.1779,-88.36202 122.91135,-162.02207 211.96107,-208.91667"
       id="path4162-4-9"
       inkscape:connector-curvature="0"
       sodipodi:nodetypes="cccaassaac"
       inkscape:path-effect="#path-effect4209"
       inkscape:original-d="m 1198.4027,331.95773 818,0 0.9013,-409.954863 c 0,0 8.5369,-58.885217 -3.8152,-84.072437 -89.117,-181.71892 -260.4395,-399.52518 -462.7331,-393.12917 -209.5906,6.62672 -442.8807,228.46837 -452.7365,436.78247 l -2.4656,52.113582 C 1085.6785,142.41924 926.76339,341.89825 746.1039,348.43893 557.32774,355.27347 376.31015,129.74197 350.57096,-57.39607 324.69183,-245.55158 413.37753,-464.68198 623.3263,-557.65056" />
    <path
       style="color:#000000;font-style:normal;font-variant:normal;font-weight:normal;font-stretch:normal;font-size:medium;line-height:normal;font-family:sans-serif;text-indent:0;text-align:start;text-decoration:none;text-decoration-line:none;text-decoration-style:solid;text-decoration-color:#000000;letter-spacing:normal;word-spacing:normal;text-transform:none;direction:ltr;block-progression:tb;writing-mode:lr-tb;baseline-shift:baseline;text-anchor:start;white-space:normal;clip-rule:nonzero;display:inline;overflow:visible;visibility:visible;opacity:1;isolation:auto;mix-blend-mode:normal;color-interpolation:sRGB;color-interpolation-filters:linearRGB;solid-color:#000000;solid-opacity:1;fill:#000000;fill-opacity:1;fill-rule:evenodd;stroke:none;stroke-width:140;stroke-linecap:round;stroke-linejoin:round;stroke-miterlimit:4;stroke-dasharray:none;stroke-dashoffset:0;stroke-opacity:1;color-rendering:auto;image-rendering:auto;shape-rendering:auto;text-rendering:auto;enable-background:accumulate"
       d="m 1191.459,1545.2754 c -69.4671,19.0039 -134.9465,54.7532 -187.5137,106.7246 -52.65756,52.0607 -88.73579,117.0353 -109.01952,185.5059 -20.23835,68.3173 -23.9206,135.3153 -26.82812,196.7695 l -2.4668,52.1133 c -2.39466,50.6141 -5.47049,97.565 -15.45703,139.2617 -9.96511,41.6071 -27.27415,80.4432 -51.43945,111.8887 -24.15165,31.4277 -56.5099,57.2166 -92.45508,73.6308 -36.09205,16.4812 -77.2683,24.3919 -118.30469,23.2949 -82.64876,-2.2092 -166.65528,-42.3169 -225.02344,-104.5703 -58.76746,-62.6792 -94.8822,-149.1093 -102.65039,-237.4238 -7.58532,-86.2355 11.08293,-175.6902 52.52344,-251.6953 41.4405,-76.0051 106.5225,-140.1516 183.11914,-180.4883 34.76399,-17.7281 48.32204,-60.4577 30.139,-94.9858 -18.18304,-34.5282 -61.08692,-47.5241 -95.37338,-28.8892 -101.50279,53.4525 -185.88743,136.6268 -240.80273,237.3457 -54.91531,100.7189 -79.11817,216.7047 -69.06641,330.9805 10.34515,117.6113 57.35579,232.7876 139.98047,320.9121 83.02396,88.5504 199.41571,145.4491 323.41407,148.7637 61.24936,1.6372 123.2142,-9.8708 180.19921,-35.8926 57.13188,-26.089 107.11142,-65.9691 145.3086,-115.6738 38.1835,-49.6869 62.71448,-106.687 76.58203,-164.5879 13.84618,-57.8115 16.70938,-113.6582 19.15038,-165.252 l 2.4668,-52.1133 c 2.8352,-59.9259 6.9418,-115.4274 21.2188,-163.6211 14.2315,-48.0404 39.4594,-92.342 73.2148,-125.7148 33.5873,-33.2066 77.6068,-57.8001 124.9336,-70.9375 4.1674,0.3453 8.3573,0.3166 12.5195,-0.086 49.6081,-4.2762 104.1942,16.2754 138.6641,52.207 36.5467,38.0965 56.6083,97.4853 56.2363,157.0918 -0.3788,60.7009 -19.8433,124.2603 -49.8301,185.2265 -74.9834,152.4496 -208.9138,277.2135 -366.289,341.2168 -10.1487,3.9823 -19.22701,10.2798 -26.51174,18.3907 -22.45599,19.1313 -30.50928,50.2868 -20.13712,77.9038 10.37215,27.617 36.94376,45.7684 66.44176,45.3872 l 818,0 c 38.5982,-0 69.9111,-31.2476 70,-69.8457 l 0.9024,-409.6328 c 1.6803,-31.7736 0.1888,-63.6687 -4.6192,-95.125 -19.4492,-127.2486 -90.9191,-239.919 -188.3808,-318.4453 -96.9624,-78.1241 -216.1308,-121.2454 -336.3145,-133.7325 -68.1368,-7.4608 -143.5662,-2.7598 -206.5312,14.0977 z m 339.5234,161.5176 c 41.9287,16.9958 81.0814,39.4142 115.4864,67.1347 72.1583,58.1391 124.362,142.503 137.8242,230.5801 3.494,22.8603 4.5498,46.1481 3.1406,69.2305 -0.083,1.3695 -0.1263,2.7412 -0.1289,4.1133 l -0.7481,340.1074 -500.1015,0 c 93.3895,-76.3169 170.5666,-172.3286 224.0703,-281.1074 36.2203,-73.6398 63.6438,-156.8412 64.2012,-246.1446 0.3901,-62.5235 -13.1149,-126.9277 -43.7442,-183.914 z"
       transform="translate(0,-1048)"
       id="path4168-9-1"
       inkscape:connector-curvature="0"
       sodipodi:nodetypes="cssccssssssscscsssssssccssccsssccsccccsscccssccccssc" />
    <path
       style="fill:none;fill-rule:evenodd;stroke:#000000;stroke-width:70;stroke-linecap:round;stroke-linejoin:round;stroke-miterlimit:4;stroke-dasharray:none;stroke-opacity:1"
       d="m -1433.221,-559.03832 c 75.4316,-6.3037 153.079,22.98052 205.5617,77.52628 54.8969,57.05491 80.707,138.13733 80.2762,217.31276 -0.4308,79.17543 -25.2608,156.66307 -60.5773,227.5269 -94.8228,190.26571 -269.3861,339.18463 -472.2156,402.84456"
       id="path4168-9-5"
       inkscape:path-effect="#path-effect4170-7-1"
       inkscape:original-d="m -1433.221,-559.03832 c -7.9046,-17.15587 147.9843,-23.65627 205.5617,77.52628 71.2782,125.25924 78.8799,308.72334 19.6989,444.83966 -82.4967,189.7425 -251.1853,290.93954 -472.2156,402.84456"
       inkscape:connector-curvature="0"
       sodipodi:nodetypes="csac" />
    <path
       style="fill:none;fill-rule:evenodd;stroke:#000000;stroke-width:70;stroke-linecap:round;stroke-linejoin:round;stroke-miterlimit:4;stroke-dasharray:none;stroke-opacity:1"
       d="m -1685.0197,368.3154 907.46823,0 0.94919,-434.476719 c 1.80341,-29.594775 0.45403,-59.380671 -4.01793,-88.691151 -17.3133,-113.47621 -82.33646,-217.37724 -171.63301,-289.50717 -89.29658,-72.12993 -201.51118,-113.39191 -315.68958,-125.21949 -63.689,-6.59745 -128.8081,-4.16795 -190.5473,12.805 -61.7392,16.97295 -119.6114,48.91865 -165.0919,93.98899 -45.4805,45.07033 -77.7291,102.675 -95.8841,164.07705 -18.1549,61.40206 -22.2508,125.94862 -25.2715,189.90711 l -2.5965,54.976563 c -2.544,53.86580421 -5.6675,108.040777 -18.202,160.489647 -12.5344,52.44888 -34.5412,102.97302 -67.3525,145.7681 -32.8112,42.79509 -76.1558,77.46274 -125.181,99.92454 -49.0251,22.46179 -103.3766,32.75792 -157.2839,31.34416 -108.9286,-2.85674 -214.5522,-54.09119 -288.9888,-133.66998 -74.4367,-79.57878 -118.0952,-185.906561 -127.5625,-294.460541 -9.2182,-105.698149 13.3757,-213.965549 64.099,-307.154739 50.7232,-93.1892 129.3804,-170.94116 223.1504,-220.58242"
       id="path4162-4-9-1"
       inkscape:connector-curvature="0"
       sodipodi:nodetypes="cccaassaac"
       inkscape:path-effect="#path-effect4209-9"
       inkscape:original-d="m -1685.0197,368.3154 907.46823,0 0.94919,-434.476719 c 0,0 8.99053,-62.120221 -4.01793,-88.691151 -93.85265,-191.70208 -274.27919,-421.47406 -487.32259,-414.72666 -220.7281,6.99077 -466.4152,241.01983 -476.7948,460.77815 l -2.5965,54.976563 c -10.4,220.188567 -177.7597,430.626437 -368.0194,437.526447 -198.8076,7.21002 -389.4444,-230.7116 -416.5513,-428.130521 -27.2544,-198.492269 66.144,-429.661129 287.2494,-527.737159" />
    <path
       style="color:#000000;font-style:normal;font-variant:normal;font-weight:normal;font-stretch:normal;font-size:medium;line-height:normal;font-family:sans-serif;text-indent:0;text-align:start;text-decoration:none;text-decoration-line:none;text-decoration-style:solid;text-decoration-color:#000000;letter-spacing:normal;word-spacing:normal;text-transform:none;direction:ltr;block-progression:tb;writing-mode:lr-tb;baseline-shift:baseline;text-anchor:start;white-space:normal;clip-rule:nonzero;display:inline;overflow:visible;visibility:visible;opacity:1;isolation:auto;mix-blend-mode:normal;color-interpolation:sRGB;color-interpolation-filters:linearRGB;solid-color:#000000;solid-opacity:1;fill:#000000;fill-opacity:1;fill-rule:evenodd;stroke:none;stroke-width:70;stroke-linecap:round;stroke-linejoin:round;stroke-miterlimit:4;stroke-dasharray:none;stroke-dashoffset:0;stroke-opacity:1;color-rendering:auto;image-rendering:auto;shape-rendering:auto;text-rendering:auto;enable-background:accumulate"
       d="M -1426.9062 2024.0254 C -1430.0974 2024.021 -1433.29 2024.0429 -1436.4844 2024.0898 C -1479.0757 2024.7161 -1521.9042 2029.9697 -1563.7676 2041.4785 C -1630.9398 2059.9451 -1694.0674 2094.6545 -1744.2188 2144.3535 C -1794.4145 2194.0967 -1829.3666 2256.8658 -1849.0293 2323.3672 C -1868.6694 2389.7922 -1872.6605 2457.2095 -1875.6992 2521.5488 L -1878.2949 2576.5254 C -1880.8274 2630.1473 -1884.0046 2682.1013 -1895.5781 2730.5293 C -1907.1409 2778.9126 -1927.3483 2824.9007 -1956.6641 2863.1367 C -1985.9726 2901.3633 -2024.9191 2932.5036 -2068.6484 2952.5391 C -2112.4501 2972.6077 -2161.5966 2981.9957 -2210.4355 2980.7148 C -2308.9934 2978.1301 -2406.5085 2931.1121 -2474.7812 2858.123 C -2543.2571 2784.9169 -2584.2072 2685.7778 -2593.0371 2584.5312 C -2601.6455 2485.8254 -2580.4322 2384.173 -2533.0645 2297.1484 C -2485.6967 2210.124 -2411.8462 2137.125 -2324.2793 2090.7676 A 35.0035 35.0035 0 1 0 -2357.0312 2028.9023 C -2457.0044 2081.8275 -2540.4682 2164.3297 -2594.5469 2263.6836 C -2648.6255 2363.0375 -2672.5995 2477.923 -2662.7715 2590.6133 C -2652.667 2706.4748 -2606.2998 2819.9899 -2525.9023 2905.9414 C -2445.3017 2992.11 -2331.5708 3047.5608 -2212.2715 3050.6895 C -2153.2958 3052.2362 -2093.7388 3041.0327 -2039.4902 3016.1777 C -1985.1692 2991.2896 -1937.4272 2953.0921 -1901.1133 2905.7285 C -1864.8065 2858.3743 -1841.0001 2803.3151 -1827.4941 2746.8008 C -1813.9987 2690.331 -1810.9286 2633.9359 -1808.373 2579.8262 L -1805.7773 2524.8496 C -1802.7746 2461.272 -1798.5721 2399.5958 -1781.9023 2343.2168 C -1765.2551 2286.914 -1735.7105 2234.4737 -1694.9453 2194.0762 C -1654.1356 2153.6346 -1601.519 2124.454 -1545.2129 2108.9746 C -1542.7517 2108.298 -1540.2798 2107.6547 -1537.8027 2107.0273 A 35.0035 35.0035 0 0 0 -1526.3066 2107.8398 C -1461.8258 2102.4513 -1393.7444 2128.1287 -1348.8809 2174.7559 C -1301.6707 2223.8218 -1277.9941 2296.1718 -1278.3828 2367.6113 C -1278.7745 2439.5938 -1301.5908 2512.1078 -1335.2852 2579.7168 C -1425.711 2761.1598 -1593.232 2904.0713 -1786.6562 2964.7793 A 35.0035 35.0035 0 0 0 -1792.3574 2967.0703 A 35.0035 35.0035 0 0 0 -1781.0195 3035.3145 L -873.55078 3035.3145 A 35.0035 35.0035 0 0 0 -838.55078 3000.3926 L -837.60156 2566.0391 C -835.82011 2534.5984 -837.2716 2503.0011 -842.02148 2471.8691 C -860.82512 2348.6253 -930.64312 2237.649 -1026.2598 2160.4141 C -1121.6305 2083.3775 -1240.197 2040.0525 -1360.3359 2027.6074 C -1382.3193 2025.3302 -1404.568 2024.0563 -1426.9062 2024.0254 z M -1323.0938 2103.4668 C -1230.6473 2119.7752 -1142.0238 2156.8881 -1070.2461 2214.8672 C -987.26954 2281.892 -927.0438 2378.7172 -911.2207 2482.4258 C -907.12363 2509.279 -905.88492 2536.5952 -907.53711 2563.709 A 35.0035 35.0035 0 0 0 -907.60156 2565.7617 L -908.47461 2965.3145 L -1612.3223 2965.3145 C -1467.3928 2884.2973 -1346.9213 2759.9985 -1272.6348 2610.9395 C -1235.6962 2536.8208 -1208.8527 2454.3605 -1208.3828 2367.9922 C -1207.9099 2281.0807 -1235.8538 2191.2645 -1298.4375 2126.2207 C -1306.2209 2118.1314 -1314.4617 2110.5413 -1323.0938 2103.4668 z "
       transform="translate(0,-1048)"
       id="path4168-9-5-7" />
    <path
       style="color:#000000;font-style:normal;font-variant:normal;font-weight:normal;font-stretch:normal;font-size:medium;line-height:normal;font-family:sans-serif;text-indent:0;text-align:start;text-decoration:none;text-decoration-line:none;text-decoration-style:solid;text-decoration-color:#000000;letter-spacing:normal;word-spacing:normal;text-transform:none;direction:ltr;block-progression:tb;writing-mode:lr-tb;baseline-shift:baseline;text-anchor:start;white-space:normal;clip-rule:nonzero;display:inline;overflow:visible;visibility:visible;opacity:1;isolation:auto;mix-blend-mode:normal;color-interpolation:sRGB;color-interpolation-filters:linearRGB;solid-color:#000000;solid-opacity:1;fill:#000000;fill-opacity:1;fill-rule:evenodd;stroke:none;stroke-width:200;stroke-linecap:round;stroke-linejoin:round;stroke-miterlimit:4;stroke-dasharray:none;stroke-dashoffset:0;stroke-opacity:1;color-rendering:auto;image-rendering:auto;shape-rendering:auto;text-rendering:auto;enable-background:accumulate"
       d="M 3652.4707 337.33398 C 3648.1544 337.33196 3643.8205 337.36626 3639.4707 337.44141 C 3632.1225 337.56836 3624.725 337.81656 3617.2871 338.1875 C 3612.6388 337.91958 3607.9803 337.72464 3603.3086 337.64258 C 3597.4627 337.53989 3591.6002 337.58368 3585.7266 337.77539 A 100.01 100.01 0 0 0 3549.4766 345.39453 C 3543.7761 346.34586 3538.0605 347.38313 3532.3262 348.5332 C 3458.5638 363.32692 3385.845 395.15419 3325.4785 448.22852 C 3264.8035 501.57415 3223.2287 571.05254 3201.3184 645.59961 C 3179.5001 719.83308 3178.7915 790.25282 3178.5059 851.66211 L 3178.0391 951.77734 C 3177.8011 1002.9569 3176.4169 1048.3471 3168.2344 1086.502 C 3160.0886 1124.4858 3144.5594 1159.4687 3123.3242 1186.5547 C 3102.0872 1213.643 3072.7509 1235.9114 3040.5254 1249.4199 C 3007.9899 1263.0584 2970.0462 1269.1199 2931.8145 1267.1191 C 2843.8018 1262.5132 2753.6492 1212.6105 2697.8945 1139.6973 C 2641.5426 1066.0029 2614.7949 965.27444 2623.4531 869.12305 C 2636.0233 729.52729 2726.8219 592.89872 2850.6543 527.24414 A 100.01 100.01 0 1 0 2756.9688 350.54297 C 2570.2681 449.52961 2443.2098 640.71867 2424.2578 851.18555 C 2411.3054 995.02569 2449.003 1143.4642 2539.0195 1261.1836 C 2629.6335 1379.6841 2768.7427 1458.8587 2921.3633 1466.8457 C 2986.9882 1470.28 3054.4663 1460.4362 3117.8438 1433.8691 C 3181.5309 1407.1722 3237.7903 1364.7074 3280.7188 1309.9512 C 3323.6489 1255.1927 3350.1257 1192.1422 3363.7871 1128.4395 C 3377.4119 1064.9077 3377.7915 1005.525 3378.0371 952.70703 L 3378.5039 852.59375 C 3378.7763 794.02622 3381.1892 742.87186 3393.2031 701.99609 C 3405.1248 661.43395 3428.1054 624.30632 3457.5352 598.43164 C 3487.2735 572.28564 3527.7831 553.42807 3571.6562 544.62891 C 3585.4278 541.8669 3599.8102 539.98498 3614.7207 538.84375 C 3646.2575 543.0402 3678.0028 557.66551 3700.3184 579.04102 C 3735.5033 612.74393 3756.891 671.42714 3756.0371 730.6543 C 3755.1556 791.78685 3733.5855 857.76851 3699.7695 921.80078 C 3623.27 1066.6564 3495.0522 1186.0991 3345.1445 1252.1523 A 100.01 100.01 0 0 0 3312.0078 1275.0332 A 100.01 100.01 0 0 0 3378.8887 1450.502 L 4196.8887 1450.502 A 100.01 100.01 0 0 0 4296.8887 1350.7441 L 4297.9688 904.79102 A 100.01 100.01 0 0 0 4297.8965 900.76367 C 4293.1278 774.84963 4246.9148 652.90236 4167.0352 555.45312 C 4087.1555 458.00401 3976.6475 388.75928 3854.1172 359.375 C 3814.6222 349.90362 3776.412 345.05516 3740.3379 341.75977 C 3712.0604 339.1766 3682.685 337.34816 3652.4707 337.33398 z M 3942.5977 616.71289 C 3968.6053 635.62144 3992.224 657.67805 4012.3594 682.24219 C 4063.6168 744.77367 4094.5998 826.20144 4097.9629 907.00586 L 4097.1309 1250.502 L 3699.7422 1250.502 C 3770.4016 1182.0896 3830.4317 1102.6647 3876.623 1015.1992 C 3920.0957 932.88164 3954.5109 837.89207 3956.0156 733.53711 C 3956.5749 694.7489 3952.32 655.2133 3942.5977 616.71289 z "
       transform="translate(0,-1048)"
       id="path4168-9-7" />
  </g>
</svg>
