<?xml version="1.0" encoding="UTF-8" standalone="no"?>
<!-- Created with Inkscape (http://www.inkscape.org/) -->

<svg
   xmlns:dc="http://purl.org/dc/elements/1.1/"
   xmlns:cc="http://creativecommons.org/ns#"
   xmlns:rdf="http://www.w3.org/1999/02/22-rdf-syntax-ns#"
   xmlns:svg="http://www.w3.org/2000/svg"
   xmlns="http://www.w3.org/2000/svg"
   xmlns:sodipodi="http://sodipodi.sourceforge.net/DTD/sodipodi-0.dtd"
   xmlns:inkscape="http://www.inkscape.org/namespaces/inkscape"
   width="2000"
   height="2048"
   id="svg2992"
   version="1.1"
   inkscape:version="0.91 r13725"
   sodipodi:docname="ങ്ങ.svg">
  <defs
     id="defs5498">
    <inkscape:path-effect
       effect="spiro"
       id="path-effect4372-5-8"
       is_visible="true" />
    <inkscape:path-effect
       effect="spiro"
       id="path-effect4372-5-8-0"
       is_visible="true" />
    <inkscape:path-effect
       effect="spiro"
       id="path-effect4372-5-8-0-8"
       is_visible="true" />
    <inkscape:path-effect
       effect="spiro"
       id="path-effect4372-5-8-0-0"
       is_visible="true" />
    <inkscape:path-effect
       effect="spiro"
       id="path-effect4372-5-8-0-9"
       is_visible="true" />
    <inkscape:path-effect
       effect="spiro"
       id="path-effect4372-5-8-0-99"
       is_visible="true" />
    <inkscape:path-effect
       effect="spiro"
       id="path-effect4372-5-8-0-98"
       is_visible="true" />
    <inkscape:path-effect
       effect="spiro"
       id="path-effect4372-5-8-0-98-8"
       is_visible="true" />
    <inkscape:path-effect
       effect="spiro"
       id="path-effect4372-5-8-0-98-8-7"
       is_visible="true" />
    <inkscape:path-effect
       effect="spiro"
       id="path-effect4372-5-8-0-98-8-7-3"
       is_visible="true" />
    <inkscape:path-effect
       effect="spiro"
       id="path-effect4372-5-8-0-98-8-7-3-1"
       is_visible="true" />
    <inkscape:path-effect
       effect="spiro"
       id="path-effect4372-5-8-0-98-8-7-3-3"
       is_visible="true" />
    <inkscape:path-effect
       effect="spiro"
       id="path-effect4372-5-8-0-98-8-7-3-11"
       is_visible="true" />
    <inkscape:path-effect
       effect="spiro"
       id="path-effect4372-5-8-0-98-8-7-3-9"
       is_visible="true" />
    <inkscape:path-effect
       effect="spiro"
       id="path-effect4372-5-8-0-98-8-7-3-9-0"
       is_visible="true" />
    <inkscape:path-effect
       effect="spiro"
       id="path-effect4372-5-8-0-98-8-7-3-90"
       is_visible="true" />
    <inkscape:path-effect
       effect="spiro"
       id="path-effect4372-5-8-0-98-8-7-3-39"
       is_visible="true" />
    <inkscape:path-effect
       effect="spiro"
       id="path-effect4372-5-8-0-98-8-7-3-9-3"
       is_visible="true" />
  </defs>
  <sodipodi:namedview
     inkscape:window-height="843"
     inkscape:window-width="1600"
     inkscape:pageshadow="2"
     inkscape:pageopacity="0.0"
     borderopacity="1.0"
     bordercolor="#666666"
     pagecolor="#ffffff"
     id="base"
     showgrid="true"
     showguides="true"
     inkscape:guide-bbox="true"
     inkscape:zoom="0.1767767"
     inkscape:cx="-1476.6335"
     inkscape:cy="387.9317"
     inkscape:window-x="1600"
     inkscape:window-y="0"
     inkscape:current-layer="layer1"
     inkscape:window-maximized="1">
    <sodipodi:guide
       orientation="horizontal"
       position="0,600"
       id="guide5596" />
    <inkscape:grid
       type="xygrid"
       id="grid3769"
       empspacing="3"
       visible="true"
       enabled="true"
       snapvisiblegridlinesonly="true"
       spacingx="4px"
       units="px"
       dotted="true"
       spacingy="4px" />
    <sodipodi:guide
       orientation="0,1"
       position="-1040,1600"
       id="guide2985" />
    <sodipodi:guide
       position="-2016,1624"
       orientation="0,1"
       id="guide4158"
       inkscape:label=""
       inkscape:color="rgb(0,0,255)" />
  </sodipodi:namedview>
  <metadata
     id="metadata5594">
    <rdf:RDF>
      <cc:Work
         rdf:about="">
        <dc:format>image/svg+xml</dc:format>
        <dc:type
           rdf:resource="http://purl.org/dc/dcmitype/StillImage" />
        <dc:title />
      </cc:Work>
    </rdf:RDF>
  </metadata>
  <g
     inkscape:label="Layer 1"
     inkscape:groupmode="layer"
     id="layer1"
     transform="translate(0,1048)">
    <path
       style="fill:none;fill-rule:evenodd;stroke:#000000;stroke-width:140;stroke-linecap:round;stroke-linejoin:round;stroke-miterlimit:4;stroke-dasharray:none;stroke-opacity:1"
       d="m 327.72847,233.14687 c -19.08053,-33.30522 -28.83851,-71.88715 -27.88625,-110.25898 0.95226,-38.371828 12.612,-76.422244 33.32107,-108.740018 20.70907,-32.317774 50.40739,-58.809157 84.87151,-75.706754 34.46411,-16.897597 73.59405,-24.152391 111.82505,-20.732663 55.70317,4.982598 108.99118,33.159671 144.3774,76.4665468 35.38621,43.3068762 52.38088,101.1928992 45.90349,156.7420982 -6.47739,55.54919 -36.37054,108.00965 -80.92972,141.80534 -44.55919,33.79569 -103.18934,48.43577 -158.38617,39.43691 -49.67339,-8.09836 -95.39316,-34.54654 -130.82862,-70.28667 -35.43547,-35.74013 -61.02081,-80.40986 -78.74534,-127.51474 -36.16646,-96.116352 -40.07506,-203.693105 -13.22596,-302.81672 26.8491,-99.12362 84.0167,-189.47877 160.54226,-257.96384 67.91343,-60.77781 151.03924,-104.56457 239.75319,-125.44549 94.28899,-22.19313 194.1822,-18.39564 287.37829,8.0134 111.61643,31.62884 213.85303,95.82599 290.52663,182.88795 76.6736,87.06196 127.4663,196.70985 143.8951,311.551984 12.6545,88.458555 4.1869,182.634606 -40.6489,259.931476 -22.4178,38.64843 -53.7498,72.4114 -91.8941,95.67668 -38.1444,23.26527 -83.1702,35.7382 -127.7723,33.10836 -43.0723,-2.53964 -84.8711,-19.07499 -119.5215,-44.78542 C 965.63329,268.80589 938.0161,234.169 918.43912,195.71886 879.28517,118.81856 872.61465,28.982739 881.06954,-56.896257 893.28377,-180.96 936.91567,-303.6619 1016.5484,-399.57658 c 79.6328,-95.91468 196.9602,-162.85779 321.4278,-169.84385 56.8401,-3.19029 114.5672,6.08223 166.778,28.77586 52.2108,22.69363 98.4805,58.88232 133.048,104.11571 34.5675,45.23339 57.0969,99.02662 68.9288,154.71303 11.8319,55.68642 13.056,113.00691 13.6254,169.93358 l 4.4307,442.9275 -5.5787,-437.7136 c -0.7686,-60.30489 -0.6364,-121.1964 12.5995,-180.03586 13.2359,-58.83946 39.6891,-115.10825 79.5525,-160.36504 39.8635,-45.25679 92.483,-78.86818 149.8607,-97.44424 57.3777,-18.57607 118.9778,-22.42371 178.8688,-15.32872 76.8739,9.10686 153.3679,37.15077 209.7028,90.24416 28.1674,26.54669 50.8974,59.1046 64.5299,95.33011 13.6325,36.2255 17.9882,76.12874 10.8335,114.16744 -5.7563,30.60402 -18.9147,59.74296 -37.7549,84.53788 -18.8402,24.79492 -43.2903,45.1728 -70.63,60.08207 -54.6792,29.818547 -118.8812,35.357635 -181.1124,37.856205 l -30.2268,1.2136 35.0755,0.5097 c 73.5395,1.06864 149.8991,4.401731 215.004,38.614999 32.5524,17.106635 61.5426,41.5972226 81.7442,72.324928 20.2017,30.727705 31.3005,67.741448 29.1592,104.452668 -2.5773,44.18565 -24.2105,86.10344 -55.4631,117.44488 -31.2527,31.34144 -71.5847,52.63413 -113.8695,65.71112 -94.073,29.09298 -199.9788,17.52097 -285.5492,-31.20112"
       id="path4370-9-4-7-1-7-7-3"
       inkscape:path-effect="#path-effect4372-5-8-0-98-8-7-3"
       inkscape:original-d="m 327.72847,233.14687 c 40.1983,-21.8266 84.55877,-357.53438 202.13138,-315.438415 130.97199,46.893508 81.72749,366.976325 -49.035,414.450895 -90.29269,32.78162 -183.1477,-105.44851 -209.57396,-197.80141 -53.16902,-185.811861 26.87256,-409.63064 147.3163,-560.78056 56.2095,-70.53966 151.87272,-105.13846 239.75319,-125.44549 93.36964,-21.57544 200.6311,-32.709 287.37829,8.0134 198.59733,93.22909 420.08513,275.51751 434.42173,494.439934 C 1390.3109,106.19513 1275.7038,343.02693 1119.8051,339.30174 965.66036,335.61846 866.76713,96.627715 881.06954,-56.896257 902.29958,-284.78226 1109.1326,-573.07495 1337.9762,-569.42043 c 198.7363,3.17372 379.9905,218.64682 382.3802,457.53818 l 4.4307,442.9275 -5.5787,-437.7136 c -2.2211,-174.26884 214.7277,-451.95348 420.8815,-453.17386 137.8815,-0.81622 302.1249,162.91707 285.0662,299.74171 -14.1124,113.19295 -237.4778,180.387582 -289.4973,182.476155 l -30.2268,1.2136 35.0755,0.5097 c 60.2677,0.875781 310.2804,86.116077 325.9074,215.392595 9.9781,82.54533 -91.4544,154.03079 -169.3326,183.156 -89.6831,33.54003 -285.5492,-31.20112 -285.5492,-31.20112"
       inkscape:connector-curvature="0"
       sodipodi:nodetypes="caaaaaaaaaascsaascsaac" />
    <path
       style="fill:none;fill-rule:evenodd;stroke:#000000;stroke-width:70.00000763;stroke-linecap:round;stroke-linejoin:round;stroke-miterlimit:4;stroke-dasharray:none;stroke-opacity:1"
       d="m -2861.5014,259.33198 c -22.8719,-37.05375 -34.8299,-80.75452 -34.01,-124.29109 1.0209,-54.211847 22.2764,-108.05737 59.6335,-147.356337 37.3572,-39.298968 90.6508,-63.36974 144.8689,-63.972808 55.7511,-0.620119 110.9422,23.574746 149.7741,63.582813 38.832,40.008068 61.2375,95.037502 63.5003,150.746072 2.3579,58.05086 -17.3119,117.25596 -56.2099,160.41159 -38.898,43.15564 -97.0692,69.07568 -155.098,66.22708 -32.4025,-1.59062 -64.1654,-11.81243 -92.2046,-28.12978 -28.0391,-16.31735 -52.4028,-38.62682 -72.3492,-64.21184 -39.8927,-51.17005 -61.6912,-114.37903 -73.8366,-178.11516 -18.0541,-94.74349622 -15.9619,-193.659588 9.4534,-286.69905 25.4153,-93.03946 74.4428,-179.97602 143.3612,-247.44852 91.2827,-89.36762 216.7678,-142.44764 344.4152,-147.47152 146.3737,-5.76089 292.5666,51.12282 402.8493,147.53956 110.2826,96.41674 185.1737,230.41878 218.8045,372.993021 21.1778,89.781092 26.0611,186.633629 -8.3087,272.236529 -17.185,42.80144 -44.1739,82.01289 -79.9507,111.12141 -35.7769,29.10851 -80.5093,47.75011 -126.5869,49.78464 -45.7898,2.02182 -91.6827,-12.39302 -129.8504,-37.77053 -38.1676,-25.37751 -68.761,-61.34828 -90.4564,-101.72276 -43.3908,-80.74895 -50.93,-176.198083 -44.6186,-267.649289 9.5465,-138.327591 50.7844,-277.839681 138.4241,-385.287071 43.8198,-53.7237 98.8681,-98.68665 161.6686,-128.05507 62.8006,-29.36842 133.4072,-42.82079 202.346,-35.48195 61.0189,6.49573 120.1026,29.26058 170.2998,64.5556 50.1973,35.29502 91.3474,82.92691 120.8937,136.70902 29.5463,53.78212 47.4894,113.44364 56.9731,174.07004 9.4836,60.6264 10.5822,122.212276 11.3102,183.57163 l 4.7017,396.27563 -1.553,-392.600183 c -0.2667,-67.413375 0.2718,-135.304517 13.4074,-201.426287 13.1356,-66.12178 38.9467,-130.12878 78.8613,-184.45605 39.9147,-54.32727 93.491,-98.41892 154.1994,-127.72995 60.7083,-29.31102 128.0624,-43.97202 195.45477,-45.67413 91.26798,-2.30513 185.39337,20.1506 257.53843,76.09923 36.07253,27.97432 66.12253,64.03257 85.37395,105.42306 19.25143,41.39049 27.47672,88.12996 21.58691,133.39694 -4.05312,31.15083 -14.78169,61.46735 -31.64343,87.97176 -16.86174,26.50441 -39.83664,49.04432 -66.48107,65.68392 -26.64444,16.6396 -56.77887,27.287758 -87.65446,33.075708 -30.87558,5.78795 -62.42633,6.739951 -93.83238,7.419624 l -59.66542,1.291247 64.81059,0.54231 c 37.25219,0.311712 74.66203,0.835833 111.43729,6.785874 36.77525,5.950041 72.93812,17.408271 104.90406,36.539435 31.96593,19.131164 59.53051,45.994821 77.87319,78.419638 18.34267,32.424817 27.24009,70.313284 24.03359,107.428524 -4.03182,46.66829 -27.01626,90.6691 -59.90347,124.02501 -32.8872,33.35591 -75.19003,56.51372 -119.78459,70.84934 -99.63878,32.03044 -212.67187,19.64676 -303.01196,-33.19738"
       id="path4370-9-4-7-1-7-7-3-4"
       inkscape:path-effect="#path-effect4372-5-8-0-98-8-7-3-9"
       inkscape:original-d="m -2861.5014,259.33198 c -2.7985,-38.74016 -44.6761,-82.68306 -34.01,-124.29109 24.3416,-94.955317 113.5944,-196.988862 204.5024,-211.329145 99.5563,-15.704505 211.6354,113.554846 213.2744,214.328885 1.6797,103.27457 -108.0298,228.0817 -211.3079,226.63867 -120.1626,-1.67895 -211.9411,-153.2292 -238.3904,-270.45678 -40.7592,-180.65132 30.362,-395.21745 152.8146,-534.14757 82.5772,-93.68902 220.8623,-165.67327 344.4152,-147.47152 267.383,39.39072 566.2067,256.01242 621.6538,520.532581 33.0641,157.738288 -53.9528,423.767449 -214.8463,433.142579 -161.6416,9.41872 -278.2231,-245.77375 -264.9254,-407.142579 20.3697,-247.188231 255.3053,-569.848571 502.4387,-548.824091 220.7127,18.77677 356.4611,304.73587 359.4768,558.90629 l 4.7017,396.27563 -1.553,-392.600183 c -0.7335,-185.432207 205.3859,-536.803127 441.92287,-559.286417 159.84584,-15.19365 372.97503,154.57678 364.49929,314.91923 -5.98964,113.3109 -224.45611,190.990268 -279.61134,194.151012 l -59.66542,1.291247 64.81059,0.54231 c 63.95792,0.535182 305.09481,98.884447 318.24813,229.173471 8.88569,88.01616 -97.04724,163.8857 -179.68806,194.87435 -95.16759,35.68592 -303.01196,-33.19738 -303.01196,-33.19738"
       inkscape:connector-curvature="0"
       sodipodi:nodetypes="casaaaaaaaaascsaascsaac" />
    <path
       style="color:#000000;font-style:normal;font-variant:normal;font-weight:normal;font-stretch:normal;font-size:medium;line-height:normal;font-family:sans-serif;text-indent:0;text-align:start;text-decoration:none;text-decoration-line:none;text-decoration-style:solid;text-decoration-color:#000000;letter-spacing:normal;word-spacing:normal;text-transform:none;direction:ltr;block-progression:tb;writing-mode:lr-tb;baseline-shift:baseline;text-anchor:start;white-space:normal;clip-rule:nonzero;display:inline;overflow:visible;visibility:visible;opacity:1;isolation:auto;mix-blend-mode:normal;color-interpolation:sRGB;color-interpolation-filters:linearRGB;solid-color:#000000;solid-opacity:1;fill:#000000;fill-opacity:1;fill-rule:evenodd;stroke:none;stroke-width:140;stroke-linecap:round;stroke-linejoin:round;stroke-miterlimit:4;stroke-dasharray:none;stroke-dashoffset:0;stroke-opacity:1;color-rendering:auto;image-rendering:auto;shape-rendering:auto;text-rendering:auto;enable-background:accumulate"
       d="m 1373.2539,537.96484 c -8.4125,0.0114 -16.8181,0.25409 -25.2012,0.72461 -86.9065,4.87785 -168.9652,33.9843 -240.4082,79.50391 -41.0187,-21.4102 -84.1972,-38.73998 -128.8613,-51.39648 -104.12619,-29.50632 -215.74473,-33.9301 -322.5,-8.80274 -100.46518,23.64685 -193.78124,72.85654 -270.39648,141.42188 -86.41533,77.33573 -150.82958,178.85952 -181.42774,291.82421 -30.63872,113.11447 -26.36663,235.09617 15.27735,345.76957 20.40702,54.2339 50.44436,107.6628 94.55078,152.1484 44.47429,44.8568 102.44403,79.1944 169.27344,90.0898 74.86647,12.2057 151.59155,-6.9724 211.95117,-52.7519 60.3387,-45.7636 99.39841,-114.348 108.1582,-189.4707 8.75677,-75.0969 -13.45041,-150.6725 -61.22656,-209.1426 -47.75989,-58.4501 -117.2648,-95.1804 -192.34766,-101.8965 -51.20298,-4.58 -102.71896,4.9725 -148.87695,27.6035 -28.03231,13.7442 -53.40634,32.0611 -75.26758,53.9786 2.06277,-26.9511 6.59329,-53.7159 13.63867,-79.7266 23.10005,-85.28259 73.02242,-164.46911 139.65821,-224.10352 59.21161,-52.99029 132.14665,-91.35376 209.10937,-109.46875 81.82272,-19.2589 169.98988,-16.08716 252.25586,7.22461 16.75057,4.74662 33.26244,10.40516 49.50195,16.79688 -4.54007,5.08666 -9.0743,10.17913 -13.42382,15.41796 -90.34773,108.8205 -137.91927,244.77564 -151.28516,380.53712 -9.27299,94.1887 -3.0445,197.5554 44.65234,291.2344 23.94216,47.0236 57.99667,90.2205 102.51368,123.2519 44.75013,33.2043 98.87503,55.0135 157.11323,58.4473 60.3479,3.5582 118.7864,-12.9993 168.3418,-43.2246 49.2993,-30.0689 88.2508,-72.4868 115.9942,-120.3164 55.2982,-95.3341 63.6533,-205.2801 49.3926,-304.9668 -18.4086,-128.68103 -74.8504,-250.47082 -160.6563,-347.90237 -19.9731,-22.67928 -41.5009,-43.87303 -64.2656,-63.58984 37.7517,-16.33069 77.5122,-26.47178 117.4062,-28.71094 46.6154,-2.6164 93.647,5.13095 134.9512,23.08398 41.1259,17.87555 78.128,46.82137 105.334,82.42188 27.2197,35.61841 46.094,79.77714 56.0762,126.75781 6.7855,31.93592 9.5334,66.5721 10.8652,103.03708 -0.2968,19.9322 -0.152,39.4838 0.09,58.4551 l 5.5762,437.5215 0,0.1914 a 70.007,70.007 0 0 0 139.9902,-1.5918 l -0,-0.1934 -4.4277,-442.7343 c -0.1682,-16.8196 -0.4093,-34.0731 -0.9473,-51.6192 0.7527,-38.14027 3.2885,-74.21373 10.6954,-107.1406 10.9502,-48.67883 32.7932,-94.27171 63.7871,-129.45898 31.0309,-35.22925 73.1241,-62.29768 118.8925,-77.11524 46.1049,-14.92648 97.6878,-18.4996 149.0743,-12.4121 65.5891,7.77001 127.6558,31.83233 169.9277,71.67187 21.057,19.84539 37.5572,43.8831 47.0254,69.04297 9.3955,24.96648 12.1115,52.34756 7.5547,76.57422 -3.6662,19.49158 -12.3415,38.86589 -24.6973,55.12695 -12.3675,16.27643 -29.2051,30.50441 -48.4082,40.97661 -37.6578,20.5361 -90.3923,26.9575 -150.4082,29.3671 l -30.2266,1.2149 a 70.007,70.007 0 0 0 1.7911,139.9355 l 35.0761,0.5098 c 72.129,1.0481 136.6486,5.9885 183.459,30.5879 23.3482,12.2697 43.1211,29.5072 55.8145,48.8144 12.4916,19.0003 18.9328,41.9781 17.7695,61.9219 -1.4012,24.0231 -14.5267,51.4133 -35.1484,72.0938 -21.1839,21.2439 -51.1869,37.8114 -84.9844,48.2636 -74.9004,23.1637 -162.1018,13.6341 -230.2324,-25.1582 a 70.007,70.007 0 1 0 -69.2715,121.6621 c 103.0101,58.652 227.6215,72.2685 340.8672,37.2461 50.7721,-15.7017 101.4343,-41.7213 142.7558,-83.1601 41.8835,-42.0026 72.024,-98.4466 75.7774,-162.7949 3.1193,-53.4786 -12.639,-104.5293 -40.5508,-146.9844 l 0,0 c -24.3269,-37.0027 -56.7496,-65.9764 -92.5566,-87.3496 14.5646,-12.6364 28.0257,-26.7604 39.9453,-42.4473 25.3246,-33.3288 42.9661,-72.2308 50.8125,-113.94726 9.7526,-51.85074 3.7582,-104.27718 -14.1113,-151.76172 -17.7968,-47.29114 -46.7573,-88.36918 -82.0352,-121.61718 -70.3979,-66.34724 -161.3198,-98.3727 -249.4785,-108.81641 -68.3955,-8.10247 -140.0135,-3.97954 -208.664,18.24609 -68.987,22.33457 -132.1321,62.48715 -180.8282,117.77149 -14.7305,16.72353 -27.6524,34.60697 -39.2129,53.18945 -7.9711,-13.33273 -16.6251,-26.35654 -26.1992,-38.88476 -41.929,-54.86628 -97.466,-98.29688 -160.7617,-125.8086 -55.2277,-24.00492 -114.5167,-35.2732 -173.4043,-35.19336 z m -256.6836,250.77539 c 29.5583,22.05297 56.873,47.02094 81.1231,74.55665 67.5413,76.69237 112.6837,174.19802 127.1328,275.20112 11.0482,77.2305 2.4671,155.6368 -31.9063,214.8965 -17.0924,29.4672 -40.8034,54.5756 -67.7929,71.0371 -26.7332,16.3053 -58.3449,24.6936 -87.2012,22.9922 -27.9064,-1.6454 -57.381,-12.9065 -81.9317,-31.123 -24.7836,-18.3894 -45.964,-44.467 -61.17574,-74.3438 -30.61108,-60.1216 -37.72273,-136.4248 -30.08594,-213.9941 11.06258,-112.366 50.75608,-221.81539 119.67378,-304.82423 10.0199,-12.06849 20.8247,-23.50969 32.1641,-34.39844 z M 528.0918,1164.9199 c 3.1931,0.059 6.37387,0.2274 9.53125,0.5098 36.32348,3.2491 73.39565,22.8736 96.4082,51.0371 22.99629,28.1437 34.77809,68.3403 30.58008,104.3418 -4.19501,35.9757 -24.92151,72.3128 -53.70117,94.1406 -28.75877,21.812 -69.29508,31.9152 -104.82227,26.1231 -32.51737,-5.3014 -65.98618,-23.8608 -92.38281,-50.4844 -2.94358,-2.9689 -5.79094,-6.0875 -8.59766,-9.2656 a 70.007,70.007 0 0 0 -2.64062,-4.9727 c -12.60639,-22.0045 -19.27564,-48.3725 -18.64649,-73.7246 0.62915,-25.352 8.59887,-51.3587 22.28125,-72.7109 13.68233,-21.3522 33.97969,-39.4569 56.75,-50.6211 19.92397,-9.7687 42.88853,-14.785 65.24024,-14.3731 z"
       id="path4370-9-4-7-1-7-7-3-2"
       inkscape:connector-curvature="0" />
    <path
       style="color:#000000;font-style:normal;font-variant:normal;font-weight:normal;font-stretch:normal;font-size:medium;line-height:normal;font-family:sans-serif;text-indent:0;text-align:start;text-decoration:none;text-decoration-line:none;text-decoration-style:solid;text-decoration-color:#000000;letter-spacing:normal;word-spacing:normal;text-transform:none;direction:ltr;block-progression:tb;writing-mode:lr-tb;baseline-shift:baseline;text-anchor:start;white-space:normal;clip-rule:nonzero;display:inline;overflow:visible;visibility:visible;opacity:1;isolation:auto;mix-blend-mode:normal;color-interpolation:sRGB;color-interpolation-filters:linearRGB;solid-color:#000000;solid-opacity:1;fill:#000000;fill-opacity:1;fill-rule:evenodd;stroke:none;stroke-width:200;stroke-linecap:round;stroke-linejoin:round;stroke-miterlimit:4;stroke-dasharray:none;stroke-dashoffset:0;stroke-opacity:1;color-rendering:auto;image-rendering:auto;shape-rendering:auto;text-rendering:auto;enable-background:accumulate"
       d="m 3482.4844,400.1582 c -57.0478,0.48118 -114.1302,7.69284 -169.8692,21.86328 -103.0755,26.20475 -200.4004,75.94415 -281.3144,147.41016 -91.5431,80.85391 -159.3654,187.50417 -191.4903,306.67188 -32.1741,119.35038 -27.313,247.58198 16.8301,364.40628 21.6074,57.1838 53.5383,114.2964 101.3203,162.5058 48.3083,48.7403 111.4765,86.4912 185.6387,98.6348 83.3235,13.6436 167.8518,-7.4487 235.0254,-58.3652 67.1433,-50.8937 110.1553,-126.4161 119.8945,-209.959 9.7349,-83.5053 -14.7281,-166.6876 -67.8496,-231.6641 -53.0977,-64.94748 -129.5929,-105.32795 -213.0097,-112.7539 -56.7507,-5.05208 -113.5572,5.49885 -164.709,30.5918 -7.0571,3.46188 -13.9225,7.23451 -20.6621,11.19531 0.2208,-0.84174 0.4024,-1.69518 0.6289,-2.53515 21.3785,-79.30408 68.2573,-153.60292 130.7812,-208.82618 55.569,-49.08037 124.7865,-84.8164 198.1934,-103.47851 90.7099,-23.06105 189.4158,-20.36244 279.9433,6.85937 2.7871,0.83809 5.5462,1.77682 8.3203,2.66211 -85.5618,111.03955 -130.5968,245.273 -143.6757,378.78325 -9.5751,97.7422 -3.4574,206.859 47.8945,307.666 25.8091,50.6646 62.5959,97.4987 111.2891,133.666 49.0241,36.4131 108.358,60.5193 173.0332,64.4336 67.1118,4.0617 131.3701,-14.1399 185.914,-47.2891 54.1801,-32.928 96.516,-79.0496 126.6192,-130.8711 59.9422,-103.189 68.1919,-220.1976 52.7558,-324.9531 -19.8226,-134.52383 -79.5895,-260.75841 -169.2226,-361.97266 -9.9083,-11.1885 -20.2081,-21.9845 -30.7696,-32.49414 21.341,-6.04344 42.9761,-9.91117 64.5079,-11.11718 42.2378,-2.36579 84.6869,4.72992 121.3183,20.65234 36.3765,15.81161 69.4074,41.65193 93.459,73.12305 24.0711,31.49658 41.3786,71.5255 50.5684,114.77343 6.2026,29.19074 8.8492,61.86643 10.1777,97.05664 -0.2777,20.14758 -0.1149,39.75545 0.125,58.57813 l 5.5781,437.71289 a 100.01,100.01 0 0 0 199.9863,-2.2734 l -0,-0.2754 -0,-0.293 -4.4238,-442.35937 c -0.166,-16.59256 -0.3915,-33.76859 -0.9122,-51.35742 0.7716,-36.76412 3.2144,-70.66497 9.9297,-100.51758 9.9708,-44.32429 29.8386,-85.34313 57.0313,-116.21485 27.2454,-30.93162 64.828,-55.19753 105.6211,-68.40429 41.2737,-13.36238 88.563,-16.81587 136.3047,-11.16016 60.7528,7.19708 116.636,29.55162 152.8808,63.71094 18.0097,16.97338 31.8399,37.3599 39.5235,57.77734 7.5796,20.14119 9.5918,42.15568 6.1484,60.46289 -2.7704,14.72911 -9.5229,29.9179 -19.0996,42.52149 -9.5936,12.62572 -23.1689,24.21865 -38.8848,32.78906 -30.3628,16.55796 -78.1816,23.35896 -137.248,25.73047 l -30.2266,1.21289 a 100.01,100.01 0 0 0 2.5586,199.91019 l 35.0762,0.5097 c 71.5245,1.0394 130.9675,6.6674 169.9375,27.1465 19.4034,10.1967 35.2294,24.3254 44.7051,38.7383 9.1872,13.9742 13.6308,30.9375 12.8867,43.6953 -0.8972,15.3817 -10.3783,36.545 -26.4434,52.6563 -16.8686,16.9165 -42.4434,31.4598 -72.6035,40.7871 -66.6835,20.6225 -145.867,11.9702 -206.5234,-22.5664 a 100.01,100.01 0 1 0 -98.961,173.8007 c 110.4844,62.9077 243.1118,77.3994 364.5742,39.836 54.4096,-16.8267 109.4981,-44.8685 155.1348,-90.6348 a 100.01,100.01 0 0 0 0,-0 c 46.4395,-46.5716 80.225,-109.2411 84.4824,-182.2305 3.5384,-60.6646 -14.2155,-117.7298 -45.4317,-165.2109 -19.6323,-29.8619 -43.8092,-54.77411 -70.5253,-75.15825 5.7943,-6.42171 11.4317,-13.02925 16.7343,-20.00781 28.1037,-36.98623 47.668,-80.07575 56.4102,-126.55469 10.866,-57.77018 4.1659,-115.56321 -15.5195,-167.87304 -19.5815,-52.03356 -51.21,-96.76282 -89.5352,-132.88282 -76.425,-72.02746 -173.5304,-105.75874 -266.5254,-116.77539 -72.0403,-8.53424 -147.9519,-4.29365 -221.4336,19.4961 -73.9623,23.94533 -141.6182,66.90242 -194.0996,126.48437 -5.6793,6.44763 -11.0871,13.05891 -16.3144,19.77149 -0.9481,-1.2689 -1.7901,-2.58849 -2.754,-3.84961 -45.0847,-58.99267 -104.5934,-105.52549 -172.6367,-135.10157 -67.7883,-29.46524 -140.7889,-40.91948 -212.2304,-36.91796 -87.2568,4.88734 -169.4089,32.39809 -241.6661,75.7246 -37.3082,-18.60178 -76.2073,-34.04544 -116.2226,-46.07812 -70.3075,-21.14161 -143.5982,-31.64796 -216.9453,-31.0293 z m 346.2929,322.99414 c 20.1479,16.71089 39.0287,34.82795 56.2579,54.28321 63.8918,72.14707 107.1525,163.96223 121.0878,258.53325 10.6399,72.2064 2.0734,143.8565 -27.832,195.3378 -14.8208,25.5135 -35.3025,46.8986 -57.5508,60.42 -21.8846,13.3004 -47.7997,19.9057 -69.9609,18.5644 -21.4356,-1.2973 -45.6307,-10.327 -65.8613,-25.3535 a 100.01,100.01 0 0 0 0,-0 c -20.5614,-15.2721 -38.9831,-37.6858 -52.3321,-63.8906 -26.9637,-52.9314 -34.3051,-123.4144 -27.0586,-197.3867 10.515,-107.33719 48.5115,-211.11006 112.8418,-288.58008 3.3689,-4.05699 6.8693,-8.00798 10.4082,-11.92578 z m -636.3105,364.57616 c 2.5062,0.042 4.9963,0.1734 7.459,0.3926 28.0347,2.4957 58.1806,18.4517 75.9043,40.1309 17.7001,21.6502 27.2567,54.2817 24.0351,81.916 -3.2171,27.5966 -20.0271,57.0339 -42.0547,73.7304 -21.9973,16.6737 -54.7942,24.8181 -81.8925,20.3809 -25.1554,-4.119 -53.3686,-19.3134 -75.9063,-42.0527 -1.8403,-1.8568 -3.6152,-3.8639 -5.4062,-5.8321 a 100.01,100.01 0 0 0 -1.1524,-2.1152 c -9.8251,-17.1667 -15.1648,-38.3011 -14.6699,-58.0742 0.4949,-19.7731 6.8852,-40.6161 17.5566,-57.2696 10.6716,-16.6536 26.9378,-31.1658 44.6954,-39.8769 15.538,-7.6223 33.8881,-11.624 51.4316,-11.3301 z"
       id="path4370-9-4-7-1-7-7-3-0"
       inkscape:connector-curvature="0" />
    <path
       style="color:#000000;font-style:normal;font-variant:normal;font-weight:normal;font-stretch:normal;font-size:medium;line-height:normal;font-family:sans-serif;text-indent:0;text-align:start;text-decoration:none;text-decoration-line:none;text-decoration-style:solid;text-decoration-color:#000000;letter-spacing:normal;word-spacing:normal;text-transform:none;direction:ltr;block-progression:tb;writing-mode:lr-tb;baseline-shift:baseline;text-anchor:start;white-space:normal;clip-rule:nonzero;display:inline;overflow:visible;visibility:visible;opacity:1;isolation:auto;mix-blend-mode:normal;color-interpolation:sRGB;color-interpolation-filters:linearRGB;solid-color:#000000;solid-opacity:1;fill:#000000;fill-opacity:1;fill-rule:evenodd;stroke:none;stroke-width:70.00000763;stroke-linecap:round;stroke-linejoin:round;stroke-miterlimit:4;stroke-dasharray:none;stroke-dashoffset:0;stroke-opacity:1;color-rendering:auto;image-rendering:auto;shape-rendering:auto;text-rendering:auto;enable-background:accumulate"
       d="m -1718.2598,613.09961 c -61.67,0.23195 -122.7305,14.83888 -178.1464,40.75391 -31.9492,14.94087 -61.8055,33.62751 -89.4336,55.06445 -101.2515,-61.96615 -219.5275,-96.22918 -339.0918,-91.52344 -136.427,5.36942 -269.7336,61.69727 -367.5235,157.43555 -73.7282,72.18145 -125.6707,164.50388 -152.6406,263.23442 -26.9484,98.6515 -29.056,202.8423 -10.0703,302.4746 12.7904,67.1207 35.9306,135.7654 80.6152,193.082 22.3776,28.7034 49.9397,54.0837 82.3477,72.9434 32.4785,18.9009 69.4737,30.9421 108.0918,32.8378 69.5577,3.4146 136.9622,-26.8831 182.8125,-77.7519 45.6277,-50.622 67.901,-118.3639 65.1836,-185.2656 -2.6051,-64.136 -28.0403,-127.0135 -73.3575,-173.7032 -45.4637,-46.8408 -109.145,-74.9387 -175.2773,-74.2031 -64.3202,0.7155 -125.9551,28.6815 -169.8477,74.8555 -16.4187,17.2722 -30.0965,36.7605 -40.8418,57.6914 -5.7306,-68.8443 -0.1751,-138.451 17.8711,-204.5137 23.8607,-87.34837 69.9735,-168.89854 134.0821,-231.66209 84.7755,-82.99694 202.4388,-132.83143 321.3066,-137.50977 97.3912,-3.83306 195.5969,22.44893 281.6543,70.77735 -10.3807,10.75607 -20.4237,21.82154 -29.8457,33.37304 -93.62,114.77932 -136.3069,261.37827 -146.2187,404.99997 -6.5584,95.0299 0.6709,197.2369 48.705,286.627 24.0865,44.8241 58.2231,85.2548 101.9082,114.3008 43.8509,29.1563 96.6282,45.9824 150.7715,43.5918 54.4928,-2.4061 105.952,-24.0963 147.1328,-57.6016 41.0286,-33.3814 71.1899,-77.5298 90.3418,-125.2305 38.1981,-95.1374 32.0876,-199.2272 9.8946,-293.3125 -35.1714,-149.1052 -113.3648,-289.48107 -229.834,-391.30661 -8.8923,-7.77422 -18.072,-15.21928 -27.3848,-22.49804 18.5376,-12.88613 37.9939,-24.30044 58.3008,-33.79688 57.397,-26.84145 121.8539,-38.98074 183.8144,-32.38476 54.8245,5.8363 108.4541,26.44942 153.8731,58.38476 45.4395,31.94972 83.2075,75.52384 110.3496,124.92969 27.1661,49.44948 44.0846,105.19636 53.0684,162.62694 8.988,57.4585 10.1662,117.3586 10.8925,178.5781 l 4.7012,396.2754 a 35.003504,35.003504 0 0 0 69.9981,-0.5547 l -0,-0.2753 -1.5508,-392.3243 c -0.2656,-67.134 0.4573,-132.6585 12.7364,-194.4687 12.2693,-61.76123 36.3273,-120.99434 72.7382,-170.55275 36.4166,-49.56596 85.618,-90.09232 141.211,-116.9336 55.69553,-26.89078 118.21147,-40.61422 181.12107,-42.20312 84.92532,-2.14496 171.12767,19.07393 235.20703,68.76758 32.00145,24.81718 58.42998,56.71512 75.08593,92.52539 16.60996,35.71136 23.56942,76.04526 18.61524,114.12109 -3.40841,26.19565 -12.48405,51.72221 -26.4668,73.70121 -13.95686,21.9383 -33.22335,40.8774 -55.49023,54.7832 -22.27807,13.9127 -48.27406,23.2457 -75.5625,28.3613 -27.31462,5.1204 -56.93637,6.1527 -88.14258,6.8281 l -59.66406,1.293 a 35.003504,35.003504 0 0 0 0.46484,69.9902 l 64.81055,0.541 c 37.11999,0.3106 72.7379,0.9338 106.13867,6.3379 33.35278,5.3963 65.25235,15.7013 92.52148,32.0215 27.18531,16.2701 50.35994,39.0647 65.38282,65.6211 14.97772,26.4765 22.17976,57.633 19.62695,87.1816 -3.21241,37.1835 -22.14975,74.2613 -49.95703,102.4649 -28.03831,28.4379 -65.2933,49.1533 -105.57227,62.1016 -89.79434,28.8658 -193.21453,17.5352 -274.6289,-30.0879 a 35.003504,35.003504 0 1 0 -35.34375,60.4238 c 99.26581,58.0653 221.91324,71.5018 331.39648,36.3066 48.91014,-15.7229 96.26002,-41.3237 133.99609,-79.5976 37.96712,-38.5082 64.99836,-89.4329 69.84961,-145.586 3.86021,-44.6817 -6.73185,-89.3007 -28.43945,-127.6738 -21.66247,-38.2934 -53.61673,-69.2264 -90.36328,-91.2187 -14.77482,-8.8426 -30.17788,-16.1041 -45.91406,-22.127 2.16294,-1.2627 4.34738,-2.4765 6.48047,-3.8086 31.02198,-19.3734 57.70404,-45.5135 77.4707,-76.584 19.74075,-31.0298 32.12244,-66.1362 36.82031,-102.24216 6.82552,-52.45815 -2.66572,-105.60419 -24.55859,-152.67383 -21.84688,-46.97073 -55.51653,-87.18886 -95.66016,-118.32031 -80.2108,-62.20361 -182.26042,-85.89503 -279.87109,-83.42969 -71.87522,1.81534 -144.06799,17.41328 -209.78909,49.14453 -65.8236,31.78078 -123.7746,79.43681 -167.1875,138.52539 -27.9491,38.04118 -49.2425,80.12074 -64.664,124.0586 -10.206,-32.87423 -23.3401,-65.0166 -40.1543,-95.62305 -31.9505,-58.15839 -76.4825,-109.84601 -131.4375,-148.48633 -54.9754,-38.65469 -119.5133,-63.57336 -186.7266,-70.72851 -14.2344,-1.51532 -28.4989,-2.22736 -42.7305,-2.17383 z m -262.1855,183.77344 c 12.6224,9.31531 24.9111,19.0754 36.7031,29.38476 104.096,91.00795 175.6851,218.63429 207.7754,354.67769 20.1625,85.477 23.8191,175.0919 -6.7227,251.1602 -15.2178,37.9021 -39.0354,72.1781 -69.5605,97.0137 -30.3727,24.7117 -68.3786,40.3038 -106.041,41.9668 -37.4361,1.6529 -76.4435,-10.3506 -108.9278,-31.9492 -32.6502,-21.709 -59.7014,-53.2197 -79.0058,-89.1446 -38.7474,-72.1077 -46.5957,-160.7994 -40.5313,-248.6719 9.1812,-133.0335 48.9695,-265.45869 130.6289,-365.57417 11.1323,-13.64829 23.0945,-26.59847 35.6817,-38.86328 z m -603.5274,401.60155 c 45.37,-0.5046 92.0696,19.7856 124.2696,52.9609 32.3468,33.3266 51.724,80.5079 53.6445,127.7891 1.9984,49.1999 -15.068,99.8692 -47.2363,135.5586 -31.9458,35.4424 -80.8849,56.9858 -127.3848,54.7031 -26.187,-1.2855 -52.7147,-9.6899 -76.3144,-23.4238 a 35.003504,35.003504 0 0 0 -0,0 c -23.6704,-13.7749 -44.8344,-33.0139 -62.3496,-55.4805 -0.9265,-1.1884 -1.7305,-2.4814 -2.6367,-3.6875 a 35.003504,35.003504 0 0 0 -3.0879,-6.1816 c -19.2753,-31.2269 -29.4898,-68.5578 -28.7988,-105.2481 0.8569,-45.5042 19.0803,-91.3693 50.0058,-123.9023 30.8219,-32.424 75.7746,-52.5972 119.8906,-53.0879 z"
       id="path4370-9-4-7-1-7-7-3-4-6"
       inkscape:connector-curvature="0" />
  </g>
</svg>
