<?xml version="1.0" encoding="UTF-8" standalone="no"?>
<!-- Created with Inkscape (http://www.inkscape.org/) -->

<svg
   xmlns:dc="http://purl.org/dc/elements/1.1/"
   xmlns:cc="http://creativecommons.org/ns#"
   xmlns:rdf="http://www.w3.org/1999/02/22-rdf-syntax-ns#"
   xmlns:svg="http://www.w3.org/2000/svg"
   xmlns="http://www.w3.org/2000/svg"
   xmlns:sodipodi="http://sodipodi.sourceforge.net/DTD/sodipodi-0.dtd"
   xmlns:inkscape="http://www.inkscape.org/namespaces/inkscape"
   width="2000"
   height="2048"
   id="svg2992"
   version="1.1"
   inkscape:version="0.91 r13725"
   sodipodi:docname="ങ്കൃ.svg">
  <defs
     id="defs5498">
    <inkscape:path-effect
       effect="spiro"
       id="path-effect3846"
       is_visible="true" />
    <inkscape:path-effect
       effect="spiro"
       id="path-effect3801"
       is_visible="true" />
    <inkscape:path-effect
       effect="spiro"
       id="path-effect4530-3-5"
       is_visible="true" />
    <inkscape:path-effect
       is_visible="true"
       id="path-effect4500-0-5-18"
       effect="spiro" />
    <inkscape:path-effect
       effect="spiro"
       id="path-effect4530-3-5-4"
       is_visible="true" />
    <inkscape:path-effect
       is_visible="true"
       id="path-effect4500-0-5-18-6"
       effect="spiro" />
    <inkscape:path-effect
       is_visible="true"
       id="path-effect4500-0-5-18-3"
       effect="spiro" />
    <inkscape:path-effect
       effect="spiro"
       id="path-effect4530-3-5-7"
       is_visible="true" />
    <inkscape:path-effect
       is_visible="true"
       id="path-effect4500-0-5-18-3-7"
       effect="spiro" />
    <inkscape:path-effect
       effect="spiro"
       id="path-effect4530-3-5-7-2"
       is_visible="true" />
    <inkscape:path-effect
       effect="spiro"
       id="path-effect4530-3-5-7-5"
       is_visible="true" />
    <inkscape:path-effect
       is_visible="true"
       id="path-effect4500-0-5-18-3-5"
       effect="spiro" />
    <inkscape:path-effect
       effect="spiro"
       id="path-effect4530-3-5-7-5-5"
       is_visible="true" />
    <inkscape:path-effect
       is_visible="true"
       id="path-effect4500-0-5-18-3-5-3"
       effect="spiro" />
    <inkscape:path-effect
       effect="spiro"
       id="path-effect4183-2-9"
       is_visible="true" />
    <inkscape:path-effect
       effect="spiro"
       id="path-effect4187-0-7"
       is_visible="true" />
    <inkscape:path-effect
       effect="spiro"
       id="path-effect4187-0-7-3"
       is_visible="true" />
    <inkscape:path-effect
       effect="spiro"
       id="path-effect4183-2-9-3"
       is_visible="true" />
    <inkscape:path-effect
       effect="spiro"
       id="path-effect4530-3-5-7-6"
       is_visible="true" />
    <inkscape:path-effect
       is_visible="true"
       id="path-effect4500-0-5-18-3-71"
       effect="spiro" />
    <inkscape:path-effect
       effect="spiro"
       id="path-effect4187-0-7-2"
       is_visible="true" />
    <inkscape:path-effect
       effect="spiro"
       id="path-effect4183-2-9-0"
       is_visible="true" />
    <inkscape:path-effect
       effect="spiro"
       id="path-effect4530-3-5-7-53"
       is_visible="true" />
    <inkscape:path-effect
       is_visible="true"
       id="path-effect4500-0-5-18-3-8"
       effect="spiro" />
    <inkscape:path-effect
       effect="spiro"
       id="path-effect4187-0-7-8"
       is_visible="true" />
    <inkscape:path-effect
       effect="spiro"
       id="path-effect4183-2-9-02"
       is_visible="true" />
    <inkscape:path-effect
       effect="spiro"
       id="path-effect4530-3-5-7-59"
       is_visible="true" />
    <inkscape:path-effect
       is_visible="true"
       id="path-effect4500-0-5-18-3-0"
       effect="spiro" />
    <inkscape:path-effect
       effect="spiro"
       id="path-effect4187-0-7-8-4"
       is_visible="true" />
    <inkscape:path-effect
       effect="spiro"
       id="path-effect4183-2-9-02-2"
       is_visible="true" />
    <inkscape:path-effect
       effect="spiro"
       id="path-effect4530-3-5-7-59-6"
       is_visible="true" />
    <inkscape:path-effect
       is_visible="true"
       id="path-effect4500-0-5-18-3-0-9"
       effect="spiro" />
  </defs>
  <sodipodi:namedview
     inkscape:window-height="845"
     inkscape:window-width="1600"
     inkscape:pageshadow="2"
     inkscape:pageopacity="0.0"
     borderopacity="1.0"
     bordercolor="#666666"
     pagecolor="#ffffff"
     id="base"
     showgrid="true"
     showguides="true"
     inkscape:guide-bbox="true"
     inkscape:zoom="0.32102648"
     inkscape:cx="-1095.2438"
     inkscape:cy="-833.28957"
     inkscape:window-x="1600"
     inkscape:window-y="26"
     inkscape:current-layer="layer1"
     inkscape:window-maximized="1">
    <sodipodi:guide
       orientation="horizontal"
       position="0,600"
       id="guide5596" />
    <inkscape:grid
       type="xygrid"
       id="grid3769"
       empspacing="3"
       visible="true"
       enabled="true"
       snapvisiblegridlinesonly="true"
       spacingx="4px"
       units="px"
       dotted="true"
       spacingy="4px" />
    <sodipodi:guide
       orientation="0,1"
       position="-1040,1600"
       id="guide2985" />
    <sodipodi:guide
       position="3288,1710"
       orientation="0,1"
       id="guide4230"
       inkscape:label=""
       inkscape:color="rgb(0,0,255)" />
    <sodipodi:guide
       position="-1824,1624"
       orientation="0,1"
       id="guide4206"
       inkscape:label=""
       inkscape:color="rgb(0,0,255)" />
  </sodipodi:namedview>
  <metadata
     id="metadata5594">
    <rdf:RDF>
      <cc:Work
         rdf:about="">
        <dc:format>image/svg+xml</dc:format>
        <dc:type
           rdf:resource="http://purl.org/dc/dcmitype/StillImage" />
        <dc:title />
      </cc:Work>
    </rdf:RDF>
  </metadata>
  <g
     inkscape:label="Layer 1"
     inkscape:groupmode="layer"
     id="layer1"
     transform="translate(0,1048)">
    <path
       sodipodi:nodetypes="aaaaa"
       inkscape:connector-curvature="0"
       inkscape:original-d="m 985.71696,-584.29468 c 185.82794,-5.13273 355.46044,239.1003 361.21554,424.91002 6.2229,200.913003 -160.4411,487.4971 -361.39414,482.7391 -193.0152,-4.5701 -330.0018,-286.580497 -324.7853,-479.5794 4.8403,-179.08232 145.8844,-423.12338 324.9639,-428.06972 z"
       inkscape:path-effect="#path-effect4500-0-5-18-3"
       id="path4498-7-1-0-3"
       d="m 985.71696,-584.29468 c 51.61694,-2.81324 103.66484,9.83372 149.41114,33.90655 45.7462,24.07284 85.2503,59.33559 116.3352,100.63872 62.1698,82.60625 89.7222,187.13755 95.4692,290.36475 6.3149,113.42809 -13.5678,231.38102 -75.973,326.30941 -31.2026,47.46419 -72.7824,88.44503 -122.1405,116.55606 -49.3581,28.11102 -106.5671,43.03995 -163.28064,39.87363 -53.5558,-2.99002 -105.78029,-22.0284 -150.18029,-52.12498 -44.4,-30.09657 -81.06812,-71.01168 -108.4011,-117.16438 -54.66597,-92.305409 -71.30158,-203.132817 -66.20391,-310.29004 4.67169,-98.20261 27.6897,-197.72772 82.41305,-279.4035 27.36168,-40.83789 62.48303,-76.73188 103.99048,-103.06676 41.50745,-26.33488 89.47638,-42.92427 138.56037,-45.59946 z"
       style="fill:none;fill-rule:evenodd;stroke:#000000;stroke-width:140;stroke-linecap:round;stroke-linejoin:round;stroke-miterlimit:4;stroke-dasharray:none;stroke-opacity:1" />
    <path
       style="fill:none;fill-rule:evenodd;stroke:#000000;stroke-width:140;stroke-linecap:round;stroke-linejoin:round;stroke-miterlimit:4;stroke-dasharray:none;stroke-opacity:1"
       d="m 601.82006,-191.80516 -158.8071,-5.6545 c -38.17549,-1.35928 -76.6789,-3.17243 -113.59899,-12.97665 -36.92009,-9.80422 -72.08135,-27.77657 -99.2666,-54.61269 -27.18526,-26.83613 -45.89215,-62.32346 -51.71735,-100.07638 -5.8252,-37.75292 1.25863,-77.32837 19.55484,-110.8614 17.43269,-31.95038 44.65994,-58.18028 76.36113,-76.06213 31.70119,-17.88185 67.74394,-27.56366 104.06737,-29.87327 79.09817,-5.02943 159.78574,26.07611 215.03947,82.899 55.25372,56.82289 84.08813,138.34967 76.84623,217.27603"
       id="path4528-8-0-8"
       inkscape:path-effect="#path-effect4530-3-5-7"
       inkscape:original-d="m 601.82006,-191.80516 -158.8071,-5.6545 c -199.4905,-15.4893 -264.63043,-156.43523 -245.0281,-278.52712 11.0559,-68.8611 111.313,-115.27009 180.4285,-105.9354 138.308,18.67978 291.8857,300.17503 291.8857,300.17503"
       inkscape:connector-curvature="0"
       sodipodi:nodetypes="ccaac" />
    <path
       style="fill:none;fill-rule:evenodd;stroke:#000000;stroke-width:140;stroke-linecap:round;stroke-linejoin:round;stroke-miterlimit:4;stroke-dasharray:none;stroke-opacity:1"
       d="m 673.77771,745.90128 c 4.64844,32.46962 20.00777,62.98681 41.6128,87.6669 21.60503,24.68009 49.26806,43.67678 79.15543,57.19081 59.77475,27.02806 126.9367,32.17873 192.52517,33.47849 67.67329,1.34107 137.21829,-1.36645 199.66469,-27.48008 31.2232,-13.05681 60.2589,-31.99508 82.9872,-57.07091 22.7282,-25.07582 38.94,-56.46049 43.8069,-89.95201 5.4002,-37.16096 -3.4088,-75.77352 -22.0293,-108.38299 -18.6204,-32.60946 -46.6769,-59.3475 -78.7536,-78.87146 -64.1533,-39.04793 -141.816,-49.01309 -216.91469,-49.78015 -75.54827,-0.77165 -153.92111,7.73145 -219.04772,46.02848 -32.5633,19.14851 -61.15049,45.6999 -80.19746,78.3227 -19.04697,32.6228 -28.16296,71.45538 -22.80942,108.85022 z"
       id="path4181-82-9"
       inkscape:path-effect="#path-effect4183-2-9"
       inkscape:original-d="m 673.77771,745.90128 c 6.55977,119.98578 193.13907,176.73825 313.2934,178.3362 123.37949,1.64084 326.45879,-56.367 326.45879,-174.503 4.7368,-173.6344 -185.5743,-236.09123 -317.69759,-237.0346 -132.53679,-0.94632 -329.28993,100.85887 -322.0546,233.2014 z"
       inkscape:connector-curvature="0"
       sodipodi:nodetypes="aacaa" />
    <path
       style="fill:none;fill-rule:evenodd;stroke:#000000;stroke-width:140;stroke-linecap:round;stroke-linejoin:round;stroke-miterlimit:4;stroke-dasharray:none;stroke-opacity:1"
       d="m 839.97721,906.25458 c 54.74812,7.86935 110.02977,12.02463 165.33909,12.4278 143.16,1.04355 286.469,-23.26635 421.2764,-71.46229 176.0837,-97.48256 303.9546,-277.74835 337.7596,-476.15583 12.1558,-71.3444 12.6691,-145.0389 -2.5585,-215.79132 -15.2276,-70.752421 -46.5095,-138.491733 -93.6605,-193.396806 -55.6615,-64.815154 -132.4347,-109.820034 -214.4838,-133.635094 -82.0491,-23.81506 -168.5608,-26.28267 -253.994,-26.89883 l -573.02994,-4.13277 c -99.51236,-0.7177 -202.7294,1.85961 -292.09984,45.63346 -44.68522,21.88692 -84.94158,53.53859 -114.34886,93.676075 -29.40728,40.137487 -47.63822,88.792375 -49.39941,138.518668 -2.1531,60.791617 20.82875,121.877217 61.61581,167.006727 40.78707,45.1295 98.76135,74.03688 159.2263,80.68867 80.48156,8.85383 164.39773,-22.65435 219.16349,-82.28977 54.76577,-59.63542 79.02886,-145.925575 63.36781,-225.363627"
       id="path4185-6-6"
       inkscape:path-effect="#path-effect4187-0-7"
       inkscape:original-d="m 839.97721,906.25458 c 0,0 73.7928,20.0413 165.33909,12.4278 105.7998,-8.7987 354.5542,-18.81881 421.2764,-71.46229 170.2255,-100.80726 300.4335,-285.17394 337.7596,-476.15583 26.8763,-137.51445 -2.1749,-305.321539 -96.219,-409.188126 -110.7949,-122.366944 -227.467,-153.752204 -468.4778,-160.533924 l -573.02994,-4.13277 C 349.42018,-204.7898 196.95516,-100.97326 170.77745,75.037643 154.5047,184.45074 281.00596,321.91944 391.61956,322.73304 c 139.2301,1.024 282.5313,-307.653397 282.5313,-307.653397"
       inkscape:connector-curvature="0"
       sodipodi:nodetypes="cscaacsaac" />
    <path
       style="color:#000000;font-style:normal;font-variant:normal;font-weight:normal;font-stretch:normal;font-size:medium;line-height:normal;font-family:sans-serif;text-indent:0;text-align:start;text-decoration:none;text-decoration-line:none;text-decoration-style:solid;text-decoration-color:#000000;letter-spacing:normal;word-spacing:normal;text-transform:none;direction:ltr;block-progression:tb;writing-mode:lr-tb;baseline-shift:baseline;text-anchor:start;white-space:normal;clip-rule:nonzero;display:inline;overflow:visible;visibility:visible;opacity:1;isolation:auto;mix-blend-mode:normal;color-interpolation:sRGB;color-interpolation-filters:linearRGB;solid-color:#000000;solid-opacity:1;fill:#000000;fill-opacity:1;fill-rule:evenodd;stroke:none;stroke-width:140;stroke-linecap:round;stroke-linejoin:round;stroke-miterlimit:4;stroke-dasharray:none;stroke-dashoffset:0;stroke-opacity:1;color-rendering:auto;image-rendering:auto;shape-rendering:auto;text-rendering:auto;enable-background:accumulate"
       d="M 1144.3008 2265.3105 C 1138.1865 2265.3077 1132.0539 2265.4715 1125.9082 2265.8086 C 1063.5965 2269.2047 1004.535 2289.9168 953.65625 2322.1973 C 906.55592 2352.0806 867.2375 2391.2449 836.06055 2435.1953 C 822.49956 2412.5501 806.29672 2391.3657 787.63867 2372.1777 C 721.92215 2304.5949 630.60913 2266.7519 536.76758 2267.543 C 530.51147 2267.596 524.24244 2267.82 517.9707 2268.2188 C 472.21017 2271.1283 426.01436 2283.2578 383.95508 2306.9824 C 341.67918 2330.8291 304.93251 2365.7748 280.53711 2410.4863 C 254.7883 2457.6783 244.99431 2512.0567 253.24805 2565.5488 C 261.50932 2619.0898 287.25451 2667.5356 324.9707 2704.7676 C 340.82372 2720.417 358.21852 2733.5441 376.54297 2744.4355 C 350.88962 2764.5216 327.54462 2788.0778 307.71094 2815.1484 C 270.51606 2865.9151 247.13111 2927.3714 244.82227 2992.5605 C 241.98679 3072.6187 271.37549 3150.2432 324.46094 3208.9805 C 377.4023 3267.5583 450.42257 3303.782 527.96484 3312.3125 C 631.64663 3323.7186 735.78683 3284.6175 806.33984 3207.791 C 820.46109 3192.4141 832.9577 3175.8235 843.75977 3158.3027 C 870.66336 3192.9045 902.83089 3223.9212 940.08203 3249.1719 C 994.23559 3285.8799 1058.0976 3309.4754 1125.6367 3313.2461 C 1197.1932 3317.2411 1267.1515 3298.6548 1327.4609 3264.3066 C 1387.5509 3230.0834 1436.7298 3181.239 1473.4531 3125.377 C 1536.1258 3030.0418 1560.5434 2919.0114 1561.9766 2811.1289 C 1567.4124 2812.4838 1572.8045 2813.9191 1578.1367 2815.4668 C 1648.7394 2835.9595 1713.6585 2874.6506 1759.0273 2927.4805 C 1797.6081 2972.406 1824.3491 3029.5429 1837.3613 3090.002 C 1850.4171 3150.6636 1850.2177 3215.5086 1839.3477 3279.3066 C 1809.5847 3453.9909 1695.7138 3615.8099 1541.5254 3703.2051 C 1534.4207 3705.7043 1527.2866 3708.1233 1520.1328 3710.4824 C 1523.0239 3700.5428 1525.276 3690.3073 1526.8027 3679.8008 C 1534.7533 3625.0899 1521.9944 3571.6576 1496.2891 3526.6406 C 1470.8249 3482.046 1433.9799 3447.5418 1393.1426 3422.6855 C 1312.075 3373.3425 1221.3441 3363.5284 1140.5469 3362.7031 C 1059.2525 3361.8727 967.67877 3369.9483 885.30273 3418.3887 C 843.79781 3442.7952 806.22214 3477.0779 780.13672 3521.7559 C 753.79764 3566.8683 740.58753 3620.6624 748.48438 3675.8223 C 755.32641 3723.6143 777.10873 3765.8491 806.7207 3799.6758 C 836.10545 3833.2429 872.15333 3857.5615 909.70508 3874.541 C 984.37376 3908.3037 1061.379 3912.871 1129.6836 3914.2246 C 1181.2012 3915.2455 1237.6113 3914.5983 1294.6641 3901.4629 C 1396.7173 3890.6282 1497.4509 3867.7092 1594.1582 3833.1348 A 70.007 70.007 0 0 0 1604.4961 3828.4609 C 1800.0084 3720.2224 1939.8225 3523.1215 1977.3574 3302.8223 C 1990.799 3223.9315 1991.6259 3141.3881 1974.2266 3060.5449 C 1956.7836 2979.4992 1920.9595 2901.1562 1865.2383 2836.2715 C 1799.2842 2759.4711 1710.6577 2708.1531 1617.1621 2681.0156 C 1594.839 2674.5363 1572.5369 2669.5073 1550.3398 2665.5781 C 1535.4592 2582.0703 1505.0868 2499.5026 1451.3926 2428.1582 C 1414.6842 2379.3831 1367.7063 2337.1239 1311.7266 2307.666 C 1262.579 2281.8032 1207.3603 2266.4177 1150.4082 2265.3691 C 1148.3742 2265.3317 1146.3389 2265.3115 1144.3008 2265.3105 z M 1144.1777 2405.3242 C 1145.3669 2405.3267 1146.5578 2405.3409 1147.75 2405.3652 L 1147.752 2405.3652 C 1181.134 2406.0471 1215.621 2415.2938 1246.5293 2431.5586 C 1282.0422 2450.2463 1314.0699 2478.5127 1339.5312 2512.3438 C 1369.6671 2552.3857 1390.7944 2600.4234 1404.1289 2652.2695 C 1383.8484 2651.7118 1363.8251 2651.4856 1344.1602 2651.3438 L 891.7168 2648.0801 C 903.2426 2602.5285 920.72743 2560.0365 945.31836 2523.334 C 967.81942 2489.7507 996.3616 2460.9018 1028.6562 2440.4121 C 1060.7924 2420.023 1097.6692 2407.5558 1133.5254 2405.6016 C 1137.058 2405.409 1140.6103 2405.3168 1144.1777 2405.3242 z M 537.74609 2407.5684 C 592.38818 2407.3221 649.38337 2430.8172 687.26758 2469.7773 C 727.67745 2511.3348 749.88816 2574.1345 744.5918 2631.8574 A 70.007 70.007 0 0 0 744.73047 2647.1074 C 740.70305 2647.104 736.68945 2647.0919 732.62695 2647.1094 C 693.98176 2647.2753 653.80535 2648.5364 613.17578 2653.4277 L 589.50391 2652.584 C 551.86785 2651.2439 518.70178 2649.1634 491.38086 2641.9082 C 464.31502 2634.7208 440.15372 2621.7481 423.32422 2605.1348 C 406.66992 2588.6943 395.00045 2566.164 391.61133 2544.1992 C 388.21465 2522.1855 392.58999 2497.415 403.43359 2477.541 C 413.90358 2458.3518 431.60985 2440.8368 452.73633 2428.9199 C 474.07943 2416.8808 499.96914 2409.647 526.85547 2407.9375 C 530.471 2407.7076 534.10329 2407.5848 537.74609 2407.5684 z M 874.00586 2787.9551 L 1343.1504 2791.3398 C 1369.9365 2791.5331 1396.264 2791.9756 1421.9902 2793.1348 C 1422.9763 2886.0539 1403.2031 2977.3762 1356.4648 3048.4727 C 1330.7829 3087.539 1296.8 3120.6554 1258.1738 3142.6543 C 1219.767 3164.5282 1175.308 3175.8005 1133.4375 3173.4629 C 1093.865 3171.2536 1053.2792 3156.7722 1018.6328 3133.2871 C 983.80609 3109.6799 953.77436 3076.5365 931.18555 3038.3945 C 911.62801 3005.3709 897.57351 2968.5072 888.27344 2929.4258 C 887.82183 2926.7945 887.34577 2924.1647 886.82812 2921.5391 A 70.007 70.007 0 0 0 884.71875 2913.2305 C 876.59114 2872.9705 873.26942 2830.6535 874.00586 2787.9551 z M 623.63281 2793.8887 L 733.88867 2797.8145 C 733.70341 2851.3183 738.73937 2905.9034 751.21875 2959.3164 C 751.21933 2959.3189 751.21817 2959.3217 751.21875 2959.3242 C 758.23442 3013.2595 739.76526 3073.306 703.22461 3113.0957 C 664.24608 3155.5402 600.55479 3179.4539 543.27344 3173.1523 C 499.88581 3168.3792 456.95895 3146.7906 428.32617 3115.1094 C 399.8375 3083.5876 383.26365 3039.0407 384.73438 2997.5156 C 385.9479 2963.2522 399.02289 2927.399 420.64258 2897.8906 C 442.41891 2868.1685 473.65812 2843.1726 509.31641 2825.707 C 543.28726 2809.0681 581.90695 2799.3922 623.63281 2793.8887 z M 1132.5879 3502.6562 C 1134.7598 3502.6594 1136.9359 3502.673 1139.1172 3502.6953 C 1208.5174 3503.4042 1273.1126 3513.5227 1320.3516 3542.2754 C 1343.6677 3556.4671 1362.9361 3575.4381 1374.7129 3596.0625 C 1386.2485 3616.2645 1391.1077 3640.0569 1388.2578 3659.668 C 1385.6773 3677.426 1376.191 3696.8617 1361.8574 3712.6758 C 1347.2739 3728.7656 1326.9771 3742.4546 1303.7305 3752.1758 C 1293.008 3756.6597 1281.6283 3760.3055 1269.6895 3763.2598 C 1229.8519 3767.1436 1189.8235 3768.9752 1149.8262 3768.6836 C 1097.7542 3768.304 1045.6935 3764.3952 994.14844 3756.9961 C 984.81431 3754.1308 975.87717 3750.8156 967.38672 3746.9766 C 945.16372 3736.9281 925.88586 3723.254 912.06055 3707.4609 C 898.46246 3691.9274 889.52515 3673.1277 887.07031 3655.9805 C 884.26007 3636.3508 889.28225 3612.4789 901.03711 3592.3457 C 913.04563 3571.7781 932.6459 3552.9588 956.26758 3539.0684 C 1002.6486 3511.7945 1065.2594 3502.5586 1132.5879 3502.6562 z "
       transform="translate(0,-1048)"
       id="path4498-7-1-0-3-1" />
    <path
       style="color:#000000;font-style:normal;font-variant:normal;font-weight:normal;font-stretch:normal;font-size:medium;line-height:normal;font-family:sans-serif;text-indent:0;text-align:start;text-decoration:none;text-decoration-line:none;text-decoration-style:solid;text-decoration-color:#000000;letter-spacing:normal;word-spacing:normal;text-transform:none;direction:ltr;block-progression:tb;writing-mode:lr-tb;baseline-shift:baseline;text-anchor:start;white-space:normal;clip-rule:nonzero;display:inline;overflow:visible;visibility:visible;opacity:1;isolation:auto;mix-blend-mode:normal;color-interpolation:sRGB;color-interpolation-filters:linearRGB;solid-color:#000000;solid-opacity:1;fill:#000000;fill-opacity:1;fill-rule:evenodd;stroke:none;stroke-width:200.19999695;stroke-linecap:round;stroke-linejoin:round;stroke-miterlimit:4;stroke-dasharray:none;stroke-dashoffset:0;stroke-opacity:1;color-rendering:auto;image-rendering:auto;shape-rendering:auto;text-rendering:auto;enable-background:accumulate"
       d="M 3610.9688 341.66797 C 3604.3065 341.66676 3597.6196 341.84537 3590.9121 342.21094 C 3522.9124 345.91706 3459.0823 368.40299 3404.1738 403.24023 C 3365.9133 427.51513 3332.6298 457.31267 3304.332 490.56055 C 3295.5313 479.11283 3286.0377 468.11772 3275.8613 457.65234 A 100.11001 100.11001 0 0 0 3275.8613 457.65039 C 3204.1609 383.91378 3105.4687 342.98822 3003.1992 343.89648 C 2996.3813 343.95708 2989.5479 344.20162 2982.7051 344.63672 C 2932.8866 347.80441 2882.3238 360.98571 2835.8105 387.22266 C 2788.9876 413.63433 2748.1452 452.32861 2720.7559 502.52734 C 2691.8025 555.59272 2680.8466 616.3378 2690.1445 676.59766 C 2699.4533 736.92741 2728.2238 790.94428 2770.4688 832.64648 C 2778.0813 840.16126 2785.9898 847.13186 2794.1348 853.60156 C 2778.2414 868.83948 2763.4475 885.56079 2750.0723 903.81641 C 2709.5287 959.15363 2683.9272 1026.115 2681.3828 1097.9531 C 2678.2539 1186.2959 2710.3996 1271.0325 2768.7734 1335.6211 C 2826.9411 1399.9816 2906.4308 1439.3531 2991.3164 1448.6914 C 3104.9744 1461.195 3217.8128 1418.8279 3295.1543 1334.6094 C 3301.2872 1327.9312 3307.1356 1321.0507 3312.7012 1313.9902 C 3335.5114 1338.6799 3361.2231 1361.1496 3389.8359 1380.5449 C 3448.1835 1420.0959 3517.0496 1445.6514 3590.6016 1449.7578 C 3668.5405 1454.1091 3743.9835 1433.952 3809.002 1396.9219 C 3873.7067 1360.0704 3926.1509 1307.8442 3965.248 1248.3711 C 4024.1802 1158.726 4050.8407 1057.1996 4057.2441 957.28906 C 4114.7408 977.40984 4166.3429 1010.6154 4202.498 1053.1582 C 4236.8886 1093.6246 4261.183 1146.3117 4273.0898 1202.6738 C 4285.0661 1259.3647 4285.21 1320.9189 4275.9883 1382.7598 C 4251.3959 1547.6743 4158.0087 1704.384 4025.8418 1806.875 C 4026.8955 1756.139 4012.9013 1707.9082 3989.0703 1666.1738 C 3960.6634 1616.4257 3920.04 1578.5808 3875.4355 1551.4316 C 3787.0948 1497.6616 3690.7457 1487.9128 3607.498 1487.0625 C 3523.733 1486.2069 3426.4809 1494.0983 3336.6875 1546.9004 C 3291.3377 1573.5679 3249.8971 1611.1755 3220.7852 1661.0371 C 3191.3103 1711.5202 3176.3417 1771.7462 3185.332 1834.5449 C 3193.1173 1888.9258 3217.66 1936.1994 3250.7148 1973.959 C 3283.4449 2011.3476 3323.1001 2037.956 3363.9473 2056.4258 C 3445.0203 2093.0841 3526.2579 2097.3987 3595.7305 2098.7754 C 3647.7682 2099.8066 3706.2813 2099.4117 3766.793 2085.6035 C 3870.422 2074.4196 3972.6841 2051.0607 4070.9316 2015.9355 A 100.11001 100.11001 0 0 0 4091.5859 2005.7363 C 4296.5913 1873.1801 4437.9943 1653.7414 4474 1412.2852 C 4486.0876 1331.225 4486.8558 1245.9652 4468.9688 1161.2949 C 4451.0122 1076.2959 4414.2259 993.13899 4355.0527 923.51172 C 4284.795 840.8415 4190.6836 786.80825 4092.1777 758.35742 C 4075.5947 753.56786 4059.0847 749.55426 4042.6738 746.16406 C 4025.966 665.90604 3994.7914 586.54622 3942.0859 516.51562 C 3902.9594 464.52744 3852.7668 419.25983 3792.3867 387.48633 C 3739.3178 359.56007 3679.6427 342.85591 3617.623 341.72852 C 3615.4081 341.68825 3613.1895 341.66837 3610.9688 341.66797 z M 3610.7969 541.88477 C 3611.8035 541.88754 3612.813 541.90034 3613.8242 541.92188 C 3642.1386 542.52485 3672.1694 550.45309 3699.1562 564.6543 C 3730.2688 581.02648 3759.0837 606.28427 3782.127 636.90234 C 3802.0633 663.39222 3817.8941 694.2275 3829.8691 727.86719 C 3823.5459 727.80257 3817.2537 727.74807 3811.0215 727.70312 L 3398.709 724.72852 C 3408.6187 696.30831 3421.289 669.94915 3436.9688 646.54688 C 3457.3796 616.08317 3483.0927 590.26145 3511.4258 572.28516 L 3511.4258 572.28711 C 3539.5323 554.45461 3571.6403 543.75947 3601.8086 542.11523 C 3604.7793 541.95332 3607.777 541.87644 3610.7969 541.88477 z M 3004.5996 544.13281 C 3050.8138 544.00373 3100.4297 564.41244 3132.3301 597.21875 C 3163.5873 629.36373 3182.4181 678.16572 3181.8223 723.57422 C 3148.2323 723.99151 3113.2711 725.47243 3077.6289 729.6875 L 3057.2188 728.96094 C 3019.8148 727.62913 2988.9415 725.43448 2965.748 719.27539 C 2942.9196 713.21324 2923.49 702.38958 2911.1133 690.17188 C 2898.9875 678.20182 2890.3436 661.24445 2888.002 646.06836 C 2885.6495 630.82237 2888.861 612.4167 2896.5 598.41602 C 2903.9761 584.71399 2917.5886 570.94773 2934.168 561.5957 C 2951.0571 552.06895 2972.5799 545.88513 2995.4082 544.43359 C 2998.4527 544.24001 3001.5187 544.14142 3004.5996 544.13281 z M 3370.9512 924.73438 L 3809.5742 927.89844 C 3826.032 928.01713 3842.2134 928.24087 3858.1074 928.65625 C 3855.0172 1006.6715 3835.8316 1080.7862 3797.959 1138.3965 C 3774.651 1173.8517 3743.9352 1203.5864 3709.9238 1222.957 C 3676.2261 1242.149 3637.2498 1251.8504 3601.7617 1249.8691 C 3568.2021 1247.9955 3532.6184 1235.4723 3502.166 1214.8301 C 3471.4558 1194.0131 3444.2774 1164.2131 3423.7285 1129.5156 C 3405.9395 1099.4782 3392.95 1065.4477 3384.2676 1028.9688 C 3383.866 1026.7033 3383.45 1024.4384 3383.0039 1022.1758 A 100.11001 100.11001 0 0 0 3380.5645 1011.998 C 3375.0103 983.95382 3371.8777 954.64732 3370.9512 924.73438 z M 3092.5488 930.54688 L 3170.8125 933.33398 C 3172.2469 979.06069 3177.5866 1025.4707 3188.1875 1071.2891 C 3193.362 1115.7486 3177.5365 1166.703 3147.6992 1199.1934 C 3115.5091 1234.2457 3060.5142 1254.8955 3013.209 1249.6914 C 2977.1645 1245.7261 2940.7073 1227.2833 2917.3008 1201.3848 C 2894.1004 1175.7144 2880.2797 1138.2795 2881.457 1105.0391 C 2882.4351 1077.4246 2893.2954 1047.0745 2911.5664 1022.1367 C 2930.0615 996.89305 2957.4227 974.76146 2989.1992 959.19727 C 3018.967 944.61692 3053.8514 935.76497 3092.5488 930.54688 z M 3599.1641 1687.2168 C 3601.2525 1687.219 3603.349 1687.2305 3605.4531 1687.252 C 3672.4029 1687.9358 3731.3799 1698.1195 3771.3457 1722.4453 C 3790.8946 1734.3441 3806.3827 1749.9745 3815.2168 1765.4453 C 3823.7059 1780.312 3826.8665 1797.7323 3825.1133 1809.7969 C 3823.5159 1820.7896 3816.9212 1835.0884 3806.1973 1846.9199 C 3795.116 1859.1458 3778.5766 1870.5783 3758.7598 1878.8652 C 3750.1594 1882.4617 3740.88 1885.4756 3730.9941 1887.9863 C 3692.9928 1891.6121 3654.8213 1893.3209 3616.6875 1893.043 C 3566.8299 1892.6795 3516.9773 1888.9855 3467.6074 1882.0137 C 3460.1385 1879.659 3453.0633 1877.0064 3446.4316 1874.0078 C 3427.5042 1865.4495 3411.8315 1854.0653 3401.3516 1842.0938 C 3391.1964 1830.4932 3385.0213 1816.7322 3383.5098 1806.1738 C 3381.7931 1794.1828 3385.0566 1776.743 3393.6758 1761.9805 C 3402.6578 1746.5965 3418.3911 1731.1022 3438.168 1719.4727 C 3477.3634 1696.4242 3534.4218 1687.1488 3599.1641 1687.2168 z "
       transform="translate(0,-1048)"
       id="path4498-7-1-0-3-6" />
    <path
       sodipodi:nodetypes="aaaaa"
       inkscape:connector-curvature="0"
       inkscape:original-d="m -1344.6101,-588.95184 c 195.2498,-0.99794 346.76067,277.66089 345.64055,472.91 -1.15315,201.006026 -160.44115,487.4971 -361.39415,482.7391 -193.0152,-4.5701 -327.2613,-286.525949 -324.7853,-479.5794 2.5022,-195.09336 145.4321,-475.07249 340.5389,-476.0697 z"
       inkscape:path-effect="#path-effect4500-0-5-18-3-0"
       id="path4498-7-1-0-3-60"
       d="m -1344.6101,-588.95184 c 54.3727,-0.5246 108.3734,16.29264 154.4955,45.09214 46.1222,28.7995 84.4832,69.27793 113.3993,115.32714 57.832,92.0984 77.23891,203.74142 77.74575,312.49072 0.52569,112.7928865 -19.33675,228.96063 -80.25505,323.88941 -30.4592,47.46439 -70.9999,88.85548 -119.5608,117.53416 -48.5609,28.67868 -105.2599,44.29262 -161.5783,41.31553 -53.3299,-2.81911 -105.2741,-22.21727 -149.1398,-52.67756 -43.8656,-30.46029 -79.7818,-71.71189 -106.5419,-117.9279 -53.5203,-92.43201 -69.9202,-202.1683875 -69.1036,-308.97394 0.8284,-108.34626 19.4612,-219.49739 76.0285,-311.90805 28.2837,-46.20533 65.9073,-87.05268 111.3893,-116.48536 45.4821,-29.43267 98.9489,-47.15362 153.1211,-47.67629 z"
       style="fill:none;fill-rule:evenodd;stroke:#000000;stroke-width:70;stroke-linecap:round;stroke-linejoin:round;stroke-miterlimit:4;stroke-dasharray:none;stroke-opacity:1" />
    <path
       style="fill:none;fill-rule:evenodd;stroke:#000000;stroke-width:70;stroke-linecap:round;stroke-linejoin:round;stroke-miterlimit:4;stroke-dasharray:none;stroke-opacity:1"
       d="m -1714.082,-154.46234 -158.8071,-5.6545 c -43.8502,-1.56133 -88.0856,-3.64337 -130.4685,-14.99977 -42.3829,-11.3564 -82.7132,-32.20786 -113.6388,-63.33477 -30.9256,-31.12691 -51.8414,-72.2914 -57.5207,-115.80027 -5.6794,-43.50887 3.9283,-88.82537 26.5999,-126.39229 18.701,-30.98757 45.9353,-56.56705 77.3771,-74.49395 31.4417,-17.9269 66.9957,-28.28852 103.0514,-31.44145 88.4117,-7.73126 179.5962,30.06496 236.6124,98.07649 57.0161,68.01154 78.3171,164.39323 55.2733,250.09851"
       id="path4528-8-0-8-1"
       inkscape:path-effect="#path-effect4530-3-5-7-59"
       inkscape:original-d="m -1714.082,-154.46234 -158.8071,-5.6545 c -199.4905,-15.4893 -298.2036,-181.665 -275.0281,-320.5271 11.481,-68.7915 111.704,-117.8107 180.4285,-105.9354 149.2345,25.78706 291.8857,348.175 291.8857,348.175"
       inkscape:connector-curvature="0"
       sodipodi:nodetypes="ccaac" />
    <path
       style="fill:none;fill-rule:evenodd;stroke:#000000;stroke-width:70;stroke-linecap:round;stroke-linejoin:round;stroke-miterlimit:4;stroke-dasharray:none;stroke-opacity:1"
       d="m -1748.1244,789.24406 c 4.6484,32.46962 20.0078,62.98681 41.6128,87.6669 21.605,24.68009 49.2681,43.67678 79.1554,57.19081 59.7748,27.02806 126.9367,32.17873 192.5252,33.47849 67.6733,1.34107 137.2183,-1.36645 199.6647,-27.48008 31.2232,-13.05681 60.2589,-31.99508 82.9871,-57.07091 22.7283,-25.07582 38.9401,-56.46049 43.807,-89.95201 5.4002,-37.16097 -3.4088,-75.77353 -22.0293,-108.38299 -18.6205,-32.60947 -46.6769,-59.3475 -78.7536,-78.87146 -64.1533,-39.04793 -141.816,-49.01309 -216.9147,-49.78015 -75.5483,-0.77165 -153.9211,7.73145 -219.0477,46.02848 -32.5633,19.14851 -61.1505,45.6999 -80.1975,78.3227 -19.047,32.6228 -28.1629,71.45538 -22.8094,108.85022 z"
       id="path4181-82-9-7"
       inkscape:path-effect="#path-effect4183-2-9-02"
       inkscape:original-d="m -1748.1244,789.24406 c 6.5598,119.98578 193.1391,176.73825 313.2934,178.3362 123.3795,1.64085 326.4588,-56.367 326.4588,-174.503 4.7368,-173.6344 -185.5743,-236.09123 -317.6976,-237.0346 -132.5368,-0.94632 -329.2899,100.85887 -322.0546,233.2014 z"
       inkscape:connector-curvature="0"
       sodipodi:nodetypes="aacaa" />
    <path
       style="fill:none;fill-rule:evenodd;stroke:#000000;stroke-width:70;stroke-linecap:round;stroke-linejoin:round;stroke-miterlimit:4;stroke-dasharray:none;stroke-opacity:1"
       d="m -1581.9249,949.59736 c 54.7481,7.86935 110.0298,12.02462 165.3391,12.4278 143.16,1.04356 286.469,-23.26631 421.27642,-71.4622 99.72773,-39.183 189.13149,-104.31481 257.00086,-187.22847 67.86936,-82.91367 114.0526,-183.42384 132.75874,-288.92743 12.63178,-71.24391 12.82353,-144.9887 -2.67148,-215.66515 C -623.71626,128.06545 -655.1389,60.544459 -701.76878,5.2189615 -754.39098,-57.216317 -826.04554,-102.67089 -903.9178,-127.23043 c -77.87226,-24.55953 -160.6776,-27.49563 -242.3288,-28.08451 l -573.0299,-4.1328 c -99.5124,-0.7177 -202.7294,1.8596 -292.0998,45.63345 -44.6853,21.88692 -84.9416,53.538592 -114.3489,93.676081 -29.4073,40.137488 -47.6382,88.792376 -49.3994,138.518669 -2.1531,60.79162 20.8287,121.87722 61.6158,167.00672 40.7871,45.12951 98.7613,74.03689 159.2263,80.68868 80.4816,8.85383 164.3977,-22.65434 219.1635,-82.28977 54.7658,-59.63542 79.0289,-145.92558 63.3678,-225.363629"
       id="path4185-6-6-8"
       inkscape:path-effect="#path-effect4187-0-7-8"
       inkscape:original-d="m -1581.9249,949.59736 c 0,0 73.7928,20.0413 165.3391,12.4278 105.7998,-8.7987 354.5542,-18.8188 421.27642,-71.4622 170.2255,-100.8073 343.49795,-276.32939 389.7596,-476.1559 31.60234,-136.50585 -3.03311,-304.55089 -96.219,-409.1880985 C -806.53364,-112.42012 -905.23578,-148.53324 -1146.2466,-155.31494 l -573.0299,-4.1328 c -277.2054,-1.9992 -429.6704,101.817301 -455.8481,277.8282 -16.2728,109.4131 110.2285,246.8818 220.8421,247.6954 139.2301,1.024 282.5313,-307.653399 282.5313,-307.653399"
       inkscape:connector-curvature="0"
       sodipodi:nodetypes="cscaacsaac" />
    <path
       style="color:#000000;font-style:normal;font-variant:normal;font-weight:normal;font-stretch:normal;font-size:medium;line-height:normal;font-family:sans-serif;text-indent:0;text-align:start;text-decoration:none;text-decoration-line:none;text-decoration-style:solid;text-decoration-color:#000000;letter-spacing:normal;word-spacing:normal;text-transform:none;direction:ltr;block-progression:tb;writing-mode:lr-tb;baseline-shift:baseline;text-anchor:start;white-space:normal;clip-rule:nonzero;display:inline;overflow:visible;visibility:visible;opacity:1;isolation:auto;mix-blend-mode:normal;color-interpolation:sRGB;color-interpolation-filters:linearRGB;solid-color:#000000;solid-opacity:1;fill:#000000;fill-opacity:1;fill-rule:evenodd;stroke:none;stroke-width:70;stroke-linecap:round;stroke-linejoin:round;stroke-miterlimit:4;stroke-dasharray:none;stroke-dashoffset:0;stroke-opacity:1;color-rendering:auto;image-rendering:auto;shape-rendering:auto;text-rendering:auto;enable-background:accumulate"
       d="M -1469.9688 2353.6719 C -1531.5504 2354.2661 -1591.1615 2374.2123 -1641.7676 2406.9609 C -1692.2586 2439.6351 -1733.2882 2484.3995 -1763.9922 2534.5586 C -1768.4526 2541.8454 -1772.6831 2549.2269 -1776.7051 2556.6895 C -1788.9218 2524.1508 -1806.4982 2493.5649 -1829.0762 2466.6328 C -1889.7489 2394.2594 -1982.6727 2352.7911 -2076.7402 2355.1211 C -2083.0114 2355.2764 -2089.2865 2355.6273 -2095.5586 2356.1758 C -2136.2545 2359.7344 -2176.6334 2371.4022 -2212.8965 2392.0781 C -2249.2286 2412.7933 -2280.8388 2442.33 -2302.9043 2478.8926 C -2329.7494 2523.3749 -2340.983 2576.275 -2334.2441 2627.9004 C -2327.504 2679.536 -2303.0842 2727.3634 -2266.8457 2763.8379 C -2234.2863 2796.6091 -2193.8048 2818.8496 -2151.4668 2832.2168 C -2151.5755 2832.2699 -2151.6843 2832.3218 -2151.793 2832.375 C -2200.9918 2856.4727 -2245.7577 2891.4537 -2278.9805 2936.7988 C -2312.2816 2982.2509 -2333.088 3037.306 -2335.123 3094.7637 C -2337.6173 3165.1885 -2311.4324 3234.5432 -2264.4961 3286.4766 C -2217.6319 3338.3302 -2152.1345 3370.8971 -2083.1309 3378.4883 C -1991.0492 3388.6182 -1897.0207 3353.313 -1834.3613 3285.082 C -1807.8116 3256.1716 -1787.6326 3222.1518 -1774.5527 3185.6289 C -1773.4995 3187.5083 -1772.4373 3189.3835 -1771.3555 3191.252 C -1742.316 3241.4045 -1703.1621 3286.5915 -1654.4883 3320.3906 C -1605.7081 3354.2635 -1547.8178 3376.0669 -1487.2324 3379.2695 C -1423.2354 3382.6525 -1360.0506 3365.0568 -1306.0078 3333.1406 C -1252.0945 3301.3009 -1207.8771 3255.932 -1174.7891 3204.3711 C -1110.5762 3104.3084 -1089.6194 2985.2949 -1088.998 2871.248 C -1072.1584 2874.5687 -1055.6244 2878.6737 -1039.4668 2883.7695 C -967.53505 2906.4555 -901.47952 2948.5322 -853.55273 3005.3965 C -810.97291 3055.9167 -781.80357 3118.2967 -767.42969 3183.8594 C -753.03826 3249.5021 -753.11561 3318.7021 -765.0332 3385.918 C -782.67763 3485.4335 -826.3968 3580.5795 -890.41406 3658.7871 C -954.32077 3736.8598 -1038.7722 3798.4298 -1132.6445 3835.4102 C -1167.074 3847.7007 -1202.0867 3858.372 -1237.5156 3867.4316 C -1217.755 3840.901 -1203.6888 3809.6645 -1198.7578 3775.7324 C -1192.0824 3729.7965 -1202.8664 3683.7742 -1225.0293 3644.9609 C -1247.0716 3606.3589 -1279.5215 3575.737 -1315.9785 3553.5469 C -1388.589 3509.3514 -1472.7864 3499.4622 -1550.7344 3498.666 C -1629.1557 3497.865 -1714.1295 3506.1528 -1787.8809 3549.5215 C -1824.915 3571.299 -1857.9963 3601.7168 -1880.5625 3640.3672 C -1903.2556 3679.2348 -1914.4181 3725.5489 -1907.793 3771.8262 C -1902.0478 3811.957 -1883.4756 3848.3326 -1857.8672 3877.5859 C -1832.3723 3906.7096 -1800.5163 3928.3685 -1766.7969 3943.6152 C -1699.5751 3974.0106 -1627.4915 3978.8686 -1560.5449 3980.1953 C -1509.5724 3981.2054 -1455.5992 3980.2562 -1402.6094 3967.9062 C -1302.3991 3957.4783 -1203.4535 3935.0713 -1108.5469 3901.1406 A 35.0035 35.0035 0 0 0 -1107.5312 3900.7598 C -1002.1434 3859.3528 -907.96756 3790.7447 -836.24609 3703.125 C -764.52464 3615.5054 -715.87527 3509.6304 -696.10742 3398.1387 C -682.76145 3322.8667 -682.45609 3244.5773 -699.05469 3168.8672 C -715.67081 3093.0771 -749.34743 3020.416 -800.02734 2960.2852 C -857.34498 2892.2788 -934.59939 2843.4447 -1018.4121 2817.0117 C -1042.5671 2809.3937 -1066.9285 2803.7565 -1091.3398 2799.5664 C -1098.1495 2706.2752 -1120.7566 2612.2348 -1172.0957 2530.4766 C -1203.513 2480.444 -1245.3735 2436.0595 -1296.5977 2404.0742 C -1347.9381 2372.0164 -1408.1565 2353.0755 -1469.9688 2353.6719 z M -1469.293 2423.668 C -1422.3597 2423.2151 -1374.5778 2437.9081 -1333.6738 2463.4492 C -1292.6536 2489.0629 -1257.7916 2525.6354 -1231.377 2567.7012 C -1190.3971 2632.9621 -1169.7879 2710.6622 -1162.3379 2791.0059 C -1198.9716 2788.212 -1235.3747 2787.5637 -1271.0156 2787.3066 L -1770.7012 2783.7031 C -1769.1106 2768.7441 -1767.0779 2753.8897 -1764.5293 2739.2051 C -1762.6963 2731.4284 -1761.1801 2723.5966 -1759.9688 2715.7305 C -1748.8947 2664.0302 -1731.0903 2614.8839 -1704.291 2571.1035 C -1678.4276 2528.852 -1644.2093 2491.9217 -1603.7363 2465.7305 C -1563.3783 2439.6137 -1516.0556 2424.1192 -1469.293 2423.668 z M -2071.4727 2425.0703 C -2000.534 2424.6184 -1928.1806 2457.3743 -1882.7188 2511.6035 C -1839.4833 2563.1768 -1819.6202 2635.3086 -1828.8105 2702.2637 C -1830.53 2710.3799 -1832.11 2718.5221 -1833.5273 2726.6875 C -1833.8166 2727.8375 -1834.1161 2728.9842 -1834.4238 2730.1289 A 35.0035 35.0035 0 0 0 -1835.7363 2740.2812 C -1837.9298 2754.5548 -1839.6942 2768.8738 -1841.0762 2783.1953 L -1844.0449 2783.1738 C -1856.5813 2783.0838 -1869.2541 2783.0316 -1882.0254 2783.1035 C -1901.1278 2783.2106 -1920.4517 2783.5986 -1939.8691 2784.5488 L -1996.6641 2782.5273 C -2040.2449 2780.9756 -2081.7852 2778.7547 -2119.3203 2768.6973 C -2156.7193 2758.6763 -2191.4788 2740.3799 -2217.1895 2714.502 C -2242.8021 2688.7225 -2260.2135 2654.222 -2264.832 2618.8398 C -2269.4519 2583.4475 -2261.4708 2545.7139 -2242.9727 2515.0625 C -2227.6361 2489.6498 -2204.7761 2468.0273 -2178.2246 2452.8887 C -2151.6043 2437.7108 -2120.8764 2428.6553 -2089.4609 2425.9082 C -2083.4868 2425.3858 -2077.4844 2425.1086 -2071.4727 2425.0703 z M -1775.0098 2853.6738 L -1271.5195 2857.3066 C -1233.4256 2857.5814 -1195.7226 2858.4408 -1158.9922 2861.6309 C -1158.992 2861.668 -1158.9904 2861.7051 -1158.9902 2861.7422 C -1158.4842 2970.3143 -1177.9268 3079.6504 -1233.7031 3166.5664 C -1261.5335 3209.9343 -1298.397 3247.3495 -1341.6055 3272.8672 C -1384.6845 3298.3085 -1434.8973 3311.9384 -1483.5371 3309.3672 C -1529.6116 3306.9316 -1575.6113 3289.9403 -1614.5625 3262.8926 C -1653.6199 3235.7711 -1686.2966 3198.4552 -1710.7773 3156.1758 C -1759.8319 3071.4562 -1775.9597 2968.0476 -1775.1719 2865.0078 C -1775.143 2861.2298 -1775.085 2857.4514 -1775.0098 2853.6738 z M -1936.5605 2854.7109 L -1845.0859 2857.9688 C -1845.1162 2860.1375 -1845.1534 2862.3077 -1845.1699 2864.4727 C -1845.5834 2918.5532 -1841.7854 2973.9435 -1831.0332 3028.1465 A 35.0035 35.0035 0 0 0 -1831.1113 3042.8145 C -1817.7075 3110.8028 -1839.0477 3186.6945 -1885.9199 3237.7344 C -1932.7921 3288.7744 -2006.5951 3316.4859 -2075.4766 3308.9082 C -2127.4029 3303.1957 -2177.8545 3277.9464 -2212.5645 3239.541 C -2247.2023 3201.2154 -2266.9799 3148.3986 -2265.168 3097.2402 C -2263.6806 3055.2454 -2248.0272 3012.9909 -2222.5137 2978.168 C -2196.9218 2943.2381 -2161.1738 2914.9165 -2121.002 2895.2402 C -2065.8849 2868.2439 -2002.6997 2858.1545 -1936.5605 2854.7109 z M -1558.2598 3568.6211 C -1555.9909 3568.6254 -1553.7203 3568.6389 -1551.4492 3568.6621 C -1479.1998 3569.4001 -1408.0692 3579.4415 -1352.373 3613.3418 C -1324.6766 3630.1997 -1301.0151 3653.0549 -1285.8164 3679.6719 C -1270.7383 3706.0776 -1263.9043 3737.28 -1268.0293 3765.666 C -1271.753 3791.2908 -1284.6019 3816.7016 -1303.1328 3837.1465 C -1321.7887 3857.7293 -1346.4565 3874.0426 -1373.6914 3885.4316 C -1386.9375 3890.9709 -1400.7613 3895.3484 -1415.041 3898.7969 C -1457.0085 3902.9817 -1499.1918 3904.9558 -1541.3516 3904.6484 C -1595.078 3904.2568 -1648.7855 3900.2183 -1701.9668 3892.5742 A 35.0035 35.0035 0 0 0 -1704.0742 3892.3496 C -1715.7482 3888.8775 -1727.0699 3884.7548 -1737.957 3879.832 C -1764.0122 3868.0508 -1787.4822 3851.7151 -1805.1973 3831.4785 C -1822.7988 3811.3717 -1834.9464 3786.7147 -1838.498 3761.9062 C -1842.5799 3733.394 -1835.5122 3702.0401 -1820.1113 3675.6621 C -1804.5836 3649.0669 -1780.489 3626.3828 -1752.3965 3609.8633 C -1697.6603 3577.6763 -1628.5956 3568.489 -1558.2598 3568.6211 z "
       transform="translate(0,-1048)"
       id="path4498-7-1-0-3-60-1" />
  </g>
</svg>
