<?xml version="1.0" encoding="UTF-8" standalone="no"?>
<!-- Created with Inkscape (http://www.inkscape.org/) -->

<svg
   xmlns:dc="http://purl.org/dc/elements/1.1/"
   xmlns:cc="http://creativecommons.org/ns#"
   xmlns:rdf="http://www.w3.org/1999/02/22-rdf-syntax-ns#"
   xmlns:svg="http://www.w3.org/2000/svg"
   xmlns="http://www.w3.org/2000/svg"
   xmlns:sodipodi="http://sodipodi.sourceforge.net/DTD/sodipodi-0.dtd"
   xmlns:inkscape="http://www.inkscape.org/namespaces/inkscape"
   width="2000"
   height="2048"
   id="svg2992"
   version="1.1"
   inkscape:version="0.92.2 (5c3e80d, 2017-08-06)"
   sodipodi:docname="ച്ച-alt1.svg">
  <defs
     id="defs5498">
    <inkscape:path-effect
       effect="spiro"
       id="path-effect4186"
       is_visible="true" />
    <inkscape:path-effect
       is_visible="true"
       id="path-effect3846"
       effect="spiro" />
    <inkscape:path-effect
       is_visible="true"
       id="path-effect3801"
       effect="spiro" />
    <inkscape:path-effect
       is_visible="true"
       id="path-effect4372-5-0"
       effect="spiro" />
    <inkscape:path-effect
       is_visible="true"
       id="path-effect4372-5-0-5"
       effect="spiro" />
    <inkscape:path-effect
       is_visible="true"
       id="path-effect4372-5-0-53"
       effect="spiro" />
    <inkscape:path-effect
       is_visible="true"
       id="path-effect3846-9"
       effect="spiro" />
    <inkscape:path-effect
       is_visible="true"
       id="path-effect3801-3"
       effect="spiro" />
    <inkscape:path-effect
       is_visible="true"
       id="path-effect4372-5-0-50"
       effect="spiro" />
    <inkscape:path-effect
       is_visible="true"
       id="path-effect4372-5-0-5-8"
       effect="spiro" />
    <inkscape:path-effect
       is_visible="true"
       id="path-effect4372-5-0-53-2"
       effect="spiro" />
    <inkscape:path-effect
       is_visible="true"
       id="path-effect4372-5-0-50-1"
       effect="spiro" />
    <inkscape:path-effect
       is_visible="true"
       id="path-effect4372-5-0-50-1-7"
       effect="spiro" />
    <inkscape:path-effect
       is_visible="true"
       id="path-effect4372-5-0-50-1-7-6"
       effect="spiro" />
    <inkscape:path-effect
       is_visible="true"
       id="path-effect4372-5-0-50-1-7-63"
       effect="spiro" />
    <inkscape:path-effect
       is_visible="true"
       id="path-effect4372-5-0-50-1-7-63-1"
       effect="spiro" />
    <inkscape:path-effect
       is_visible="true"
       id="path-effect4372-5-0-50-1-7-63-1-9"
       effect="spiro" />
    <inkscape:path-effect
       is_visible="true"
       id="path-effect4372-5-0-50-1-7-4"
       effect="spiro" />
    <inkscape:path-effect
       is_visible="true"
       id="path-effect4372-5-0-50-1-7-8"
       effect="spiro" />
    <inkscape:path-effect
       is_visible="true"
       id="path-effect4372-5-0-50-1-7-2"
       effect="spiro" />
    <inkscape:path-effect
       is_visible="true"
       id="path-effect4372-5-0-50-1-7-2-8"
       effect="spiro" />
    <inkscape:path-effect
       is_visible="true"
       id="path-effect4372-5-0-50-1-7-7"
       effect="spiro" />
    <inkscape:path-effect
       is_visible="true"
       id="path-effect4372-5-0-50-1-7-2-6"
       effect="spiro" />
  </defs>
  <sodipodi:namedview
     inkscape:window-height="841"
     inkscape:window-width="1600"
     inkscape:pageshadow="2"
     inkscape:pageopacity="0.0"
     borderopacity="1.0"
     bordercolor="#666666"
     pagecolor="#ffffff"
     id="base"
     showgrid="true"
     showguides="true"
     inkscape:guide-bbox="true"
     inkscape:zoom="0.3535534"
     inkscape:cx="-3043.6253"
     inkscape:cy="124.95332"
     inkscape:window-x="1920"
     inkscape:window-y="0"
     inkscape:current-layer="layer1-2"
     inkscape:window-maximized="1">
    <sodipodi:guide
       orientation="horizontal"
       position="0,600"
       id="guide5596"
       inkscape:locked="false" />
    <inkscape:grid
       type="xygrid"
       id="grid3769"
       empspacing="3"
       visible="true"
       enabled="true"
       snapvisiblegridlinesonly="true"
       spacingx="4"
       units="px"
       dotted="true"
       spacingy="4"
       originx="0"
       originy="0" />
    <sodipodi:guide
       orientation="0,1"
       position="-1040,1600"
       id="guide2985"
       inkscape:locked="false" />
    <sodipodi:guide
       position="-3696,1624"
       orientation="0,1"
       id="guide4179"
       inkscape:label=""
       inkscape:color="rgb(0,0,255)"
       inkscape:locked="false" />
  </sodipodi:namedview>
  <metadata
     id="metadata5594">
    <rdf:RDF>
      <cc:Work
         rdf:about="">
        <dc:format>image/svg+xml</dc:format>
        <dc:type
           rdf:resource="http://purl.org/dc/dcmitype/StillImage" />
        <dc:title></dc:title>
      </cc:Work>
    </rdf:RDF>
  </metadata>
  <g
     inkscape:label="Layer 1"
     inkscape:groupmode="layer"
     id="layer1"
     transform="translate(0,1048)">
    <g
       id="layer1-2"
       inkscape:label="Layer 1"
       transform="translate(253.59372,-238.29924)">
      <path
         sodipodi:nodetypes="caacccasscccc"
         inkscape:connector-curvature="0"
         inkscape:original-d="M 390.40628,230.29924 C 194.33476,326.67338 223.77684,71.744128 236.65004,-27.472756 253.75093,-159.27351 388.87707,-314.69654 521.52567,-306.43651 c 163.13549,10.15845 306.33285,186.1196 305.08071,383.89218 l 1.7999,152.84357 1.41959,-152.02885 c 0,-54.95359 137.87603,-396.04362 304.05073,-395.07948 169.6983,0.98458 350.3279,229.359849 305.7954,407.032456 C 1377.1384,339.71551 1468.9127,294.64617 1134.5295,421.77762 754.40628,566.29924 562.40628,566.29924 562.40628,566.29924 m -336,3.45051 H 1806.4206 l -2.9938,-877.77882"
         inkscape:path-effect="#path-effect4372-5-0-50-1-7"
         id="path4370-9-0-6-0"
         d="M 390.40628,230.29924 C 343.19013,206.62166 302.95599,169.22255 275.89758,123.85919 248.83918,78.495822 235.04903,25.323353 236.65004,-27.472756 c 2.21857,-73.161464 34.47808,-144.767054 87.03507,-195.710994 52.55699,-50.94394 124.6839,-80.88108 197.84056,-83.25276 46.48982,-1.50716 93.41207,7.90901 135.29247,28.14774 41.88041,20.23873 78.41089,51.29584 105.46298,89.13443 27.05208,37.8386 44.4312,82.09956 53.59446,127.70229 9.16327,45.602731 10.18308,92.396705 10.7308,138.90772 l 1.7999,152.84357 1.41959,-152.02885 c 0.4397,-47.088946 1.33517,-94.4505 10.26271,-140.687511 8.92754,-46.237009 25.95675,-91.216149 52.68723,-129.985259 26.73049,-38.7691 62.99048,-70.98275 104.88384,-92.48876 41.89335,-21.50601 89.12735,-32.28171 136.21695,-31.91795 97.4588,0.75286 192.7862,50.81767 250.684,129.21821 57.8977,78.40053 77.8037,183.0310697 55.1114,277.814246 -18.0397,75.349864 -61.2795,143.188044 -115.9622,198.077364 -54.6827,54.88932 -120.5372,97.54423 -189.1803,133.47689 -175.87753,92.06675 -373.62152,142.01802 -572.12322,144.52162 m -336,3.45051 H 1806.4206 l -2.9938,-877.77882"
         style="fill:none;fill-rule:evenodd;stroke:#000000;stroke-width:140;stroke-linecap:round;stroke-linejoin:round;stroke-miterlimit:4;stroke-dasharray:none;stroke-opacity:1" />
      <path
         style="color:#000000;font-style:normal;font-variant:normal;font-weight:normal;font-stretch:normal;font-size:medium;line-height:normal;font-family:sans-serif;text-indent:0;text-align:start;text-decoration:none;text-decoration-line:none;text-decoration-style:solid;text-decoration-color:#000000;letter-spacing:normal;word-spacing:normal;text-transform:none;direction:ltr;block-progression:tb;writing-mode:lr-tb;baseline-shift:baseline;text-anchor:start;white-space:normal;clip-rule:nonzero;display:inline;overflow:visible;visibility:visible;opacity:1;isolation:auto;mix-blend-mode:normal;color-interpolation:sRGB;color-interpolation-filters:linearRGB;solid-color:#000000;solid-opacity:1;fill:#000000;fill-opacity:1;fill-rule:evenodd;stroke:none;stroke-width:200;stroke-linecap:round;stroke-linejoin:round;stroke-miterlimit:4;stroke-dasharray:none;stroke-dashoffset:0;stroke-opacity:1;color-rendering:auto;image-rendering:auto;shape-rendering:auto;text-rendering:auto;enable-background:accumulate"
         d="m 3204.1016,522.13281 c -66.9936,-0.78151 -134.1727,12.55018 -196.3321,40.62891 -71.2056,32.16515 -132.5226,82.36007 -178.498,144.69336 -1.8558,2.51611 -3.5011,5.12863 -5.2988,7.67187 -42.3026,-59.08304 -98.3016,-107.48576 -163.5411,-140.29883 -66.942,-33.66939 -140.4514,-49.69329 -213.5878,-49.38085 -148.7831,0.63557 -289.584,68.77888 -385.0684,180.3457 -95.1297,111.15232 -139.3664,257.37191 -127.0137,401.17583 12.5198,145.7496 82.2924,282.4551 192.9785,378.1015 110.6863,95.6465 256.0655,144.8572 402.0899,136.1094 a 100.01,100.01 0 1 0 -11.961,-199.6426 c -92.2121,5.5241 -189.4665,-27.3956 -259.3632,-87.7949 -69.8967,-60.3992 -116.5725,-151.8521 -124.4786,-243.8906 -7.7707,-90.46291 21.94,-186.52833 79.6973,-254.01371 57.4026,-67.0709 147.6286,-110.02373 233.9727,-110.39258 43.0175,-0.18376 86.0421,9.53206 122.8691,28.05469 36.6306,18.42386 69.3647,46.91892 92.9512,80.85742 23.6155,33.98052 40.0043,76.16025 48.3066,121.38672 8.3284,45.36816 8.9852,97.42216 8.5293,154.79886 l -3.2695,411.5527 a 100.01,100.01 0 0 0 199.9844,2.3731 l 6.4902,-410.7364 c 0.9434,-59.7148 2.8834,-114.07888 12.7578,-161.49021 l 0,-0.002 c 9.8424,-47.25515 28.1252,-91.1113 53.9102,-126.07031 25.7323,-34.88779 60.9886,-63.57391 99.8769,-81.14062 39.0549,-17.64191 84.2392,-25.38172 128.3516,-22.21289 72.707,5.22293 146.4806,41.53162 197.3887,96.35937 51.1856,55.12674 83.0891,131.94136 87.7558,208.97652 5.4006,89.1481 -25.7102,183.1589 -83.2246,251.4864 -57.5144,68.3275 -144.841,115.0215 -233.6035,124.9082 a 100.01,100.01 0 0 0 11.3672,199.3847 l 772.3242,-2.3007 a 100.01,100.01 0 0 0 99.7012,-100.3399 l -2.9942,-877.77928 a 100.01,100.01 0 1 0 -199.998,0.68164 l 2.6523,777.73634 -291.9277,0.8691 c 88.5848,-108.0937 133.7944,-247.1142 125.3359,-386.7402 -7.4257,-122.57846 -55.9404,-241.54712 -140.8262,-332.96876 -85.1633,-91.72061 -202.8625,-150.65403 -329.621,-159.75976 -9.5479,-0.68587 -19.1131,-1.08562 -28.6836,-1.19727 z"
         id="path4370-9-0-6-0-2"
         inkscape:connector-curvature="0" />
      <path
         sodipodi:nodetypes="caacccaaacccc"
         inkscape:connector-curvature="0"
         inkscape:original-d="m -3733.5937,182.29924 c 0,0 -143.7062,-166.777152 -127.9169,-262.965598 20.096,-122.425722 137.2287,-267.864252 261.2617,-265.083882 138.3741,3.10184 279.1772,110.72501 277.9251,308.49759 l -3.2699,219.55189 6.4894,-218.73717 c 0,-54.95359 119.0763,-326.28198 252.6134,-313.34174 207.8004,20.13662 329.1877,348.5385086 292.1629,554.00302 -24.2109,134.35534 -185.4788,207.7103 -305.4865,272.79244 -140.2008,76.03324 -461.7792,125.28345 -461.7792,125.28345 m -336,0 h 1440.0143 l -2.9938,-950.32833"
         inkscape:path-effect="#path-effect4372-5-0-50-1-7-2"
         id="path4370-9-0-6-0-6"
         d="m -3733.5937,182.29924 c -42.895,-27.94632 -77.997,-67.72266 -100.3915,-113.760315 -22.3945,-46.037652 -32.0188,-98.20734 -27.5254,-149.205283 5.8889,-66.835912 36.2745,-131.099762 83.579,-178.681322 47.3045,-47.58155 111.0831,-78.26579 177.6827,-86.40256 40.1388,-4.90394 81.5017,-1.69234 119.7025,11.56954 38.2007,13.26188 72.8792,36.72861 98.9153,67.66879 26.036,30.94018 43.0579,68.93562 51.5053,108.48069 8.4475,39.54507 8.4042,80.345796 7.802,120.77857 l -3.2699,219.55189 6.4894,-218.73717 c 1.12,-37.751536 2.6704,-75.73394 10.9446,-112.58459 8.2743,-36.85064 23.3042,-72.40291 45.9063,-102.66143 22.6021,-30.25852 52.554,-54.94272 86.4704,-71.55943 33.9163,-16.61671 71.5468,-25.22301 109.2921,-26.53629 63.0017,-2.19204 126.3245,15.94115 179.4946,49.8079 53.1702,33.86675 96.1243,83.17158 123.8475,139.78827 27.7232,56.61669 40.3144,120.342303 37.8352,183.333393 -2.4793,62.991091 -19.8815,125.169097 -49.0144,181.073457 -64.1514,123.10267 -181.2872,210.79081 -305.4865,272.79244 -143.6355,71.70439 -301.599,114.56084 -461.7792,125.28345 m -336,0 h 1440.0143 l -2.9938,-950.32833"
         style="fill:none;fill-rule:evenodd;stroke:#000000;stroke-width:70;stroke-linecap:round;stroke-linejoin:round;stroke-miterlimit:4;stroke-dasharray:none;stroke-opacity:1" />
      <path
         style="color:#000000;font-style:normal;font-variant:normal;font-weight:normal;font-stretch:normal;font-size:medium;line-height:normal;font-family:sans-serif;font-variant-ligatures:normal;font-variant-position:normal;font-variant-caps:normal;font-variant-numeric:normal;font-variant-alternates:normal;font-feature-settings:normal;text-indent:0;text-align:start;text-decoration:none;text-decoration-line:none;text-decoration-style:solid;text-decoration-color:#000000;letter-spacing:normal;word-spacing:normal;text-transform:none;writing-mode:lr-tb;direction:ltr;text-orientation:mixed;dominant-baseline:auto;baseline-shift:baseline;text-anchor:start;white-space:normal;shape-padding:0;clip-rule:nonzero;display:inline;overflow:visible;visibility:visible;opacity:1;isolation:auto;mix-blend-mode:normal;color-interpolation:sRGB;color-interpolation-filters:linearRGB;solid-color:#000000;solid-opacity:1;vector-effect:none;fill:#000000;fill-opacity:1;fill-rule:evenodd;stroke:none;stroke-width:140;stroke-linecap:round;stroke-linejoin:round;stroke-miterlimit:4;stroke-dasharray:none;stroke-dashoffset:0;stroke-opacity:1;color-rendering:auto;image-rendering:auto;shape-rendering:auto;text-rendering:auto;enable-background:accumulate"
         d="m 894.41797,1293.1934 c -122.58678,-2.3691 -244.00113,62.9364 -307.83789,167.9218 -95.58535,-153.6721 -313.61789,-201.4335 -469.37237,-114.3469 -158.110737,79.422 -236.32743,285.6939 -163.737886,448.6409 35.971373,82.389 103.877088,160.1623 192.300926,185.1154 64.30175,8.7557 102.80009,-82.4379 51.67678,-122.4102 -80.02485,-38.2994 -139.781748,-122.312 -130.253427,-213.6031 7.712484,-134.4644 155.016267,-231.645 282.416307,-193.3918 112.94492,27.3082 168.47776,149.0336 165.78786,256.971 4.43541,74.3882 -2.23002,149.8438 6.54548,223.6557 16.86724,62.6648 115.85396,62.7832 132.87103,0.1589 8.83916,-73.8693 1.78059,-149.423 6.09258,-223.8862 -2.71815,-110.0478 51.5,-234.4862 165.79661,-265.4317 144.723,-45.6742 305.12373,75.4081 310.81233,225.0299 14.2002,152.013 -105.067,275.8063 -227.94017,345.6803 -181.44199,107.2807 -391.85863,161.0733 -601.96023,164.4098 -91.55885,4.772 -184.27262,0.6771 -276.275312,2.0428 -40.8091394,-2.0136 -94.103142,-2.9023 -110.808323,43.7123 -23.135025,51.4613 28.982017,107.0973 81.9054239,96.2877 523.6541411,-0.2337 1047.3317111,0.4673 1570.9712111,-0.3504 48.8063,-3.2598 69.8587,-55.1495 62.9153,-97.9428 -1.1391,-285.5705 -1.6184,-571.155 -3.1693,-856.7169 -2.08,-64.8618 -98.4131,-87.6283 -129.3091,-30.5598 -19.7022,42.8972 -6.455,92.3274 -10.0764,138.2248 0.8041,235.7817 1.6081,471.5634 2.4122,707.3451 -200.2682,0 -400.5364,0 -600.80465,0 168.73245,-79.0295 334.38865,-212.8957 374.80615,-404.049 43.0691,-185.2529 -63.6293,-393.1444 -244.3806,-457.6607 -41.86996,-15.9494 -86.56694,-24.521 -131.38453,-24.8469 z"
         id="path4370-9-0-6-0-5"
         inkscape:connector-curvature="0" />
      <path
         style="color:#000000;font-style:normal;font-variant:normal;font-weight:normal;font-stretch:normal;font-size:medium;line-height:normal;font-family:sans-serif;font-variant-ligatures:normal;font-variant-position:normal;font-variant-caps:normal;font-variant-numeric:normal;font-variant-alternates:normal;font-feature-settings:normal;text-indent:0;text-align:start;text-decoration:none;text-decoration-line:none;text-decoration-style:solid;text-decoration-color:#000000;letter-spacing:normal;word-spacing:normal;text-transform:none;writing-mode:lr-tb;direction:ltr;text-orientation:mixed;dominant-baseline:auto;baseline-shift:baseline;text-anchor:start;white-space:normal;shape-padding:0;clip-rule:nonzero;display:inline;overflow:visible;visibility:visible;opacity:1;isolation:auto;mix-blend-mode:normal;color-interpolation:sRGB;color-interpolation-filters:linearRGB;solid-color:#000000;solid-opacity:1;vector-effect:none;fill:#000000;fill-opacity:1;fill-rule:evenodd;stroke:none;stroke-width:70;stroke-linecap:round;stroke-linejoin:round;stroke-miterlimit:4;stroke-dasharray:none;stroke-dashoffset:0;stroke-opacity:1;color-rendering:auto;image-rendering:auto;shape-rendering:auto;text-rendering:auto;enable-background:accumulate"
         d="m -3450.3086,838.49219 c -103.6082,0.74103 -204.162,62.66964 -251.0605,155.12304 -54.7294,-127.30718 -212.4131,-180.06108 -339.3843,-139.36202 -156.0045,39.7947 -267.5444,206.58809 -236.6879,366.04539 15.515,90.5404 69.8893,180.7341 154.441,220.777 36.4783,8.3518 56.9639,-47.2408 23.7933,-64.558 -128.7546,-79.3264 -149.714,-280.5857 -40.4365,-385.20657 89.0139,-94.60836 265.3483,-115.32126 351.5632,-6.40455 68.4788,93.00372 42.0417,214.88942 44.962,322.03782 8.8245,40.9675 -22.4786,101.0964 17.3546,130.2103 31.1839,16.8818 60.7289,-19.8509 52.0586,-50.1847 6.172,-111.4301 -2.9892,-225.3975 23.4419,-334.5966 37.3436,-110.28241 167.7671,-168.57637 277.0538,-135.24945 153.7869,39.69339 250.6465,206.88145 226.5333,360.69325 -21.775,163.004 -146.0089,292.412 -286.5174,366.8714 -180.4313,101.5756 -388.8537,154.4884 -595.9948,146.6103 -80.8792,0.9461 -162.1107,-1.8916 -242.7707,1.4169 -38.3691,8.9603 -28.9346,71.362 10.3653,68.5831 482.3081,-0.4646 964.7326,0.9308 1446.9678,-0.6984 39.5155,-9.1276 26.1088,-57.3561 27.8822,-86.382 -1.344,-301.7612 -1.1157,-603.6172 -3.4413,-905.31936 -4.9308,-37.68378 -65.3111,-36.67378 -68.9787,1.15383 -0.032,307.04323 1.7916,614.17043 2.4724,921.24593 -243.3034,0 -486.6068,0 -729.9102,0 178.7983,-66.2462 361.4895,-166.4234 455.3308,-340.0395 90.5794,-157.4205 75.6916,-375.5663 -57.0813,-505.25781 -68.0112,-70.13673 -164.1528,-110.06127 -261.9566,-107.5093 z"
         id="path4370-9-0-6-0-6-6"
         inkscape:connector-curvature="0" />
    </g>
  </g>
</svg>
