<?xml version="1.0" encoding="UTF-8" standalone="no"?>
<!-- Created with Inkscape (http://www.inkscape.org/) -->

<svg
   xmlns:dc="http://purl.org/dc/elements/1.1/"
   xmlns:cc="http://creativecommons.org/ns#"
   xmlns:rdf="http://www.w3.org/1999/02/22-rdf-syntax-ns#"
   xmlns:svg="http://www.w3.org/2000/svg"
   xmlns="http://www.w3.org/2000/svg"
   xmlns:sodipodi="http://sodipodi.sourceforge.net/DTD/sodipodi-0.dtd"
   xmlns:inkscape="http://www.inkscape.org/namespaces/inkscape"
   width="2000"
   height="2048"
   id="svg2992"
   version="1.1"
   inkscape:version="0.91 r13725"
   sodipodi:docname="ഛൂ.svg">
  <defs
     id="defs5498">
    <inkscape:path-effect
       effect="spiro"
       id="path-effect3006"
       is_visible="true" />
    <inkscape:path-effect
       effect="spiro"
       id="path-effect4141-3-4-6-0-4"
       is_visible="true" />
    <inkscape:path-effect
       effect="spiro"
       id="path-effect4141-3-4-6-0-4-9"
       is_visible="true" />
    <inkscape:path-effect
       effect="spiro"
       id="path-effect4146-9-3-6-4-9"
       is_visible="true" />
    <inkscape:path-effect
       effect="spiro"
       id="path-effect4141-3-4-6-0-4-9-6"
       is_visible="true" />
    <inkscape:path-effect
       effect="spiro"
       id="path-effect4146-9-3-6-4-9-0"
       is_visible="true" />
    <inkscape:path-effect
       effect="spiro"
       id="path-effect4146-9-3-6-4-9-3"
       is_visible="true" />
    <inkscape:path-effect
       effect="spiro"
       id="path-effect4141-3-4-6-0-4-9-4"
       is_visible="true" />
    <inkscape:path-effect
       effect="spiro"
       id="path-effect4141-3-4-6-0-4-9-4-2"
       is_visible="true" />
    <inkscape:path-effect
       effect="spiro"
       id="path-effect4146-9-3-6-4-9-3-6"
       is_visible="true" />
    <inkscape:path-effect
       effect="spiro"
       id="path-effect4146-9-3-6-4-9-2"
       is_visible="true" />
    <inkscape:path-effect
       effect="spiro"
       id="path-effect4141-3-4-6-0-4-9-2"
       is_visible="true" />
  </defs>
  <sodipodi:namedview
     inkscape:window-height="843"
     inkscape:window-width="1600"
     inkscape:pageshadow="2"
     inkscape:pageopacity="0.0"
     borderopacity="1.0"
     bordercolor="#666666"
     pagecolor="#ffffff"
     id="base"
     showgrid="true"
     showguides="true"
     inkscape:guide-bbox="true"
     inkscape:zoom="0.32102648"
     inkscape:cx="4598.6516"
     inkscape:cy="840.91868"
     inkscape:window-x="0"
     inkscape:window-y="0"
     inkscape:current-layer="layer1"
     inkscape:window-maximized="1"
     inkscape:snap-grids="false">
    <sodipodi:guide
       orientation="horizontal"
       position="0,600"
       id="guide5596" />
    <inkscape:grid
       type="xygrid"
       id="grid3769"
       empspacing="3"
       visible="true"
       enabled="true"
       snapvisiblegridlinesonly="true"
       spacingx="4px"
       units="px"
       dotted="true"
       spacingy="4px" />
    <sodipodi:guide
       orientation="0,1"
       position="-1040,1600"
       id="guide2985" />
    <sodipodi:guide
       position="4806.4571,1710"
       orientation="0,1"
       id="guide4176"
       inkscape:label=""
       inkscape:color="rgb(0,0,255)" />
  </sodipodi:namedview>
  <metadata
     id="metadata5594">
    <rdf:RDF>
      <cc:Work
         rdf:about="">
        <dc:format>image/svg+xml</dc:format>
        <dc:type
           rdf:resource="http://purl.org/dc/dcmitype/StillImage" />
        <dc:title />
      </cc:Work>
    </rdf:RDF>
  </metadata>
  <g
     inkscape:label="Layer 1"
     inkscape:groupmode="layer"
     id="layer1"
     transform="translate(0,1048)">
    <path
       style="fill:none;fill-rule:evenodd;stroke:#000000;stroke-width:140;stroke-linecap:round;stroke-linejoin:round;stroke-miterlimit:4;stroke-dasharray:none;stroke-opacity:1"
       d="m 411.1664,87.26861 c -33.29976,-74.034379 -29.0422,-163.850738 11.11138,-234.40322 40.15359,-70.55248 115.20101,-120.08015 195.85916,-129.25758 82.33135,-9.36781 167.70294,23.16558 225.24332,82.79203 57.54038,59.62644 86.90996,144.562151 81.71728,227.26187 -4.63012,73.74033 -36.133,145.50077 -87.28181,198.81937 -51.14882,53.3186 -121.53931,87.77395 -195.02379,95.46193"
       id="path4144-8-8-4-6-8"
       inkscape:path-effect="#path-effect4146-9-3-6-4-9"
       inkscape:original-d="m 411.1664,87.26861 c 0,0 68.69694,-345.3742 206.97054,-363.6608 144.1782,-19.0675 305.815,164.6248 306.9606,310.0539 1.0707,135.9279 -282.3056,294.2813 -282.3056,294.2813"
       inkscape:connector-curvature="0"
       sodipodi:nodetypes="caac" />
    <path
       style="fill:none;fill-rule:evenodd;stroke:#000000;stroke-width:140;stroke-linecap:round;stroke-linejoin:round;stroke-miterlimit:4;stroke-dasharray:none;stroke-opacity:1"
       d="M 2516.6795,872.5374 468.32054,887.1293 c -77.53407,0.55233 -155.71324,6.674 -232.29661,-5.44312 C 197.73225,875.62762 159.57758,863.58742 128.52065,840.38341 112.99219,828.7814 99.413178,814.40997 89.606447,797.68969 79.799716,780.9694 73.846039,761.85428 73.503395,742.4733 c -0.347153,-19.63604 5.073766,-39.20041 14.522553,-56.41711 9.448788,-17.21671 22.838712,-32.13082 38.297092,-44.24417 30.91675,-24.2267 69.37904,-37.14263 108.07374,-43.88792 77.38939,-13.49056 156.69559,-8.17673 235.25116,-8.5454 l 1798.74886,-8.44162 c 74.0668,-0.3476 149.4423,-1.57432 219.896,-24.42814 35.2268,-11.42691 68.9155,-28.14906 98.0636,-50.99404 29.1481,-22.84497 53.6712,-51.90443 69.5714,-85.35118 16.8757,-35.49863 23.7755,-75.67547 19.7103,-114.77042 -4.0653,-39.09494 -19.0836,-76.99266 -42.9018,-108.2598 -23.8182,-31.26714 -56.366,-55.81147 -92.9771,-70.1141 -36.6112,-14.30262 -77.1776,-18.32135 -115.8834,-11.48002 60.2969,-19.827831 111.3404,-66.172736 136.8809,-124.2807539 25.5405,-58.1080171 25.1699,-127.0511661 -0.9936,-184.8813161 -29.6825,-65.60822 -89.8783,-114.06703 -156.5585,-141.25611 -66.6801,-27.18908 -139.7131,-34.99137 -211.7158,-36.03863 -125.9458,-1.83184 -255.4797,17.40479 -364.4479,80.58408 -54.4842,31.58965 -103.0776,74.01144 -138.9479,125.77766 -35.8704,51.76622 -58.7034,113.022968 -62.0789,175.912 -4.1959,78.174526 22.6025,157.68734 73.6744,217.02127 51.072,59.33393 125.9302,97.72205 203.9625,104.03203 59.7514,4.83172 120.6378,-8.77815 173.4579,-37.1264 52.82,-28.34825 97.5312,-71.18393 129.5572,-121.85852 64.052,-101.349188 75.0308,-231.562809 40.7844,-346.46058 -32.6609,-109.57837 -104.9228,-206.60934 -199.6217,-270.6896 -94.6988,-64.08025 -211.0452,-95.04493 -325.1823,-88.19752 -120.5022,7.22927 -238.4085,56.79794 -326.3569,139.49092 -87.9483,82.69297 -144.8848,198.15405 -154.7293,318.4708 -12.56,153.505758 54.1244,311.37983 172.9263,409.3996 l -1335.161105,-5.848"
       id="path4139-1-0-5-6-8"
       inkscape:path-effect="#path-effect4141-3-4-6-0-4-9"
       inkscape:original-d="M 2516.6795,872.5374 468.32054,887.1293 C 403.2678,887.5927 74.735495,882.6289 73.503395,742.4733 72.258795,600.9128 420.23524,589.5223 469.64794,589.3787 l 1798.74886,-8.44162 c 138.0896,-3.39747 351.135,-25.73988 387.531,-160.77336 33.2196,-123.24873 -232.052,-304.62434 -232.052,-304.62434 0,0 174.91,-203.572948 135.8873,-309.16207 -47.2294,-127.79491 -232.3931,-187.21659 -368.2743,-177.29474 -226.9175,16.56918 -535.6036,156.72151 -565.4747,382.27374 -18.5752,140.25854 136.3904,329.2335 277.6369,321.0533 203.4219,-11.7809 381.6499,-305.2291 343.7995,-505.4455 -39.367,-208.23903 -313.5627,-375.92605 -524.804,-358.88712 -220.6861,17.80075 -435.9766,241.20302 -481.0862,457.96172 -30.1828,145.0335 172.9263,409.3996 172.9263,409.3996 l -1335.161105,-5.848"
       inkscape:connector-curvature="0"
       sodipodi:nodetypes="csaccacaaaaaaacc" />
    <path
       style="color:#000000;font-style:normal;font-variant:normal;font-weight:normal;font-stretch:normal;font-size:medium;line-height:normal;font-family:sans-serif;text-indent:0;text-align:start;text-decoration:none;text-decoration-line:none;text-decoration-style:solid;text-decoration-color:#000000;letter-spacing:normal;word-spacing:normal;text-transform:none;direction:ltr;block-progression:tb;writing-mode:lr-tb;baseline-shift:baseline;text-anchor:start;white-space:normal;clip-rule:nonzero;display:inline;overflow:visible;visibility:visible;opacity:1;isolation:auto;mix-blend-mode:normal;color-interpolation:sRGB;color-interpolation-filters:linearRGB;solid-color:#000000;solid-opacity:1;fill:#000000;fill-opacity:1;fill-rule:evenodd;stroke:none;stroke-width:140;stroke-linecap:round;stroke-linejoin:round;stroke-miterlimit:4;stroke-dasharray:none;stroke-dashoffset:0;stroke-opacity:1;color-rendering:auto;image-rendering:auto;shape-rendering:auto;text-rendering:auto;enable-background:accumulate"
       d="M 1677.9707 2307.2949 C 1674.1739 2307.295 1670.3738 2307.3318 1666.5762 2307.4043 C 1658.4738 2307.559 1650.3708 2307.8795 1642.2734 2308.3652 C 1505.4028 2316.5765 1372.6825 2372.215 1272.1582 2466.7324 C 1171.5037 2561.3724 1106.9479 2691.9395 1095.6113 2830.4922 C 1085.6739 2951.9451 1117.8559 3073.7758 1183.1602 3174.9199 L 828.11133 3173.3652 C 881.48295 3110.2811 913.58225 3030.9801 918.7793 2948.2109 C 925.19431 2846.0441 889.91143 2742.917 817.57031 2667.9531 C 753.93157 2602.0073 665.60195 2562.8276 573.62305 2562.1289 C 560.4832 2562.0289 547.27048 2562.7137 534.04297 2564.2188 C 430.12303 2576.0429 336.9936 2637.5045 285.25977 2728.4043 C 233.52593 2819.3041 228.24311 2930.7587 271.14648 3026.1445 A 70.007 70.007 0 1 0 398.82422 2968.7168 C 375.12807 2916.0338 378.36025 2847.8576 406.93359 2797.6523 C 435.50692 2747.4471 492.47278 2709.8529 549.86914 2703.3223 C 608.71178 2696.6271 674.47738 2721.2858 716.82812 2765.1719 C 759.56714 2809.461 783.025 2876.2054 779.05469 2939.4375 C 775.49102 2996.1932 750.48685 3053.1478 711.11914 3094.1855 C 671.75142 3135.2233 615.88503 3162.5691 559.32617 3168.4863 A 70.007 70.007 0 0 0 542.81641 3172.1152 L 3.4511719 3169.7539 A 70.007 70.007 0 1 0 2.8378906 3309.752 L 1337.998 3315.5996 A 70.007 70.007 0 0 0 1382.8535 3191.6074 C 1282.5936 3108.8861 1224.5468 2971.4575 1235.1465 2841.9102 C 1243.4989 2739.8295 1292.8165 2639.4746 1368.0586 2568.7285 C 1443.4309 2497.8601 1546.5227 2454.3606 1650.6562 2448.1133 C 1728.985 2443.4141 1809.1779 2459.6384 1879.6074 2494.0078 C 1823.1518 2508.1109 1767.8723 2529.0501 1715.748 2559.2715 C 1653.3626 2595.4422 1596.9049 2644.3614 1554.375 2705.7383 C 1511.7008 2767.3233 1484.0842 2840.4376 1479.9336 2917.7676 C 1474.7466 3014.4073 1507.1078 3110.6123 1570.4531 3184.2051 C 1633.8493 3257.8569 1724.6464 3304.4853 1821.8281 3312.3438 C 1895.9135 3318.3344 1969.6851 3301.6581 2034.0293 3267.125 C 2098.2356 3232.6658 2151.4308 3181.4715 2189.6582 3120.9844 C 2266.2463 2999.7994 2277.9051 2849.8276 2238.3535 2717.1309 C 2227.7236 2681.4671 2213.4193 2647.1673 2196.0801 2614.5645 C 2233.3919 2619.1755 2268.6934 2627.0941 2300.5938 2640.1016 C 2353.9859 2661.8724 2399.4368 2700.3746 2419.8047 2745.3945 C 2437.4583 2784.4147 2437.7253 2834.0462 2420.4922 2873.2539 C 2403.2591 2912.4617 2366.5128 2945.8265 2325.8281 2959.2051 A 70.007 70.007 0 0 0 2359.8789 3094.6328 C 2385.7029 3090.0684 2413.679 3092.8403 2438.1055 3102.3828 C 2462.5317 3111.9253 2484.98 3128.8539 2500.8711 3149.7148 C 2516.7623 3170.5759 2527.1198 3196.7114 2529.832 3222.7949 C 2532.5443 3248.8785 2527.7865 3276.5875 2516.5273 3300.2715 C 2505.8596 3322.7116 2488.4616 3343.7587 2466.9941 3360.584 C 2445.4035 3377.5058 2419.1323 3390.8058 2390.5117 3400.0898 C 2333.2973 3418.6491 2265.4035 3420.7566 2191.8867 3421.1016 L 393.13867 3429.5449 C 317.96088 3429.8977 234.61681 3423.7148 146.19336 3439.1289 C 100.33683 3447.1226 50.561883 3462.7173 6.9667969 3496.8789 C -15.001016 3514.0931 -34.856247 3535.8214 -49.521484 3562.543 C -64.298455 3589.4682 -73.255358 3620.5402 -72.666016 3653.875 C -72.084425 3686.7716 -62.285566 3717.1294 -46.955078 3743.2676 C -31.73774 3769.2129 -11.616185 3790.1448 10.441406 3806.625 C 54.219105 3839.3333 103.56075 3853.8161 148.90234 3860.9902 C 236.34326 3874.8252 318.45372 3867.8215 392.63867 3867.293 L 2440.9961 3852.6973 A 70.007 70.007 0 1 0 2440 3712.7012 L 391.64062 3727.293 C 310.75743 3727.8691 236.50705 3733.1082 170.78125 3722.709 C 139.53947 3717.7658 112.57249 3708.1685 94.236328 3694.4688 C 85.236989 3687.7449 78.202765 3679.9328 73.806641 3672.4375 C 69.523665 3665.1351 67.414244 3657.2639 67.310547 3651.3984 C 67.205582 3645.4613 69.090333 3637.4047 73.210938 3629.8965 C 77.443274 3622.1847 84.369421 3614.0848 93.318359 3607.0723 C 111.55678 3592.7804 138.70345 3582.5437 170.23633 3577.0469 C 236.59166 3565.4797 311.86157 3569.9256 393.79492 3569.541 L 2192.5449 3561.0996 C 2267.1617 3560.7494 2350.0182 3560.4042 2433.7109 3533.2559 C 2475.5439 3519.686 2516.6499 3499.5396 2553.3555 3470.7715 C 2590.184 3441.9068 2621.8342 3404.8342 2642.9668 3360.3809 C 2665.459 3313.0677 2674.5002 3260.4227 2669.082 3208.3164 C 2663.6639 3156.21 2643.9835 3106.5522 2612.2383 3064.8789 C 2586.7043 3031.3594 2554.0362 3004.1363 2516.8691 2984.791 C 2529.3198 2967.7043 2540.0246 2949.2305 2548.6582 2929.5879 C 2582.506 2852.5796 2582.0311 2764.3256 2547.3574 2687.6855 C 2508.3603 2601.4891 2433.4195 2543.0722 2353.4512 2510.4648 C 2274.559 2478.2962 2192.6938 2470.3628 2116.3242 2469.252 C 2106.2932 2469.1061 2096.2022 2469.1288 2086.0859 2469.2402 C 2062.8091 2446.9565 2037.6572 2426.5858 2010.875 2408.4629 C 1912.7253 2342.0476 1795.6918 2307.2928 1677.9707 2307.2949 z M 2027.1855 2611.9473 C 2061.9231 2655.1018 2088.5618 2704.7031 2104.1855 2757.1211 C 2133.1268 2854.22 2122.8284 2964.676 2071.3125 3046.1895 C 2045.4879 3087.0516 2009.2579 3121.5303 1967.8242 3143.7676 C 1926.5282 3165.9309 1878.5287 3176.4734 1833.1113 3172.8008 C 1774.2285 3168.0393 1715.3083 3137.891 1676.5605 3092.875 C 1637.7618 3047.7998 1616.5276 2984.9808 1619.7324 2925.2715 C 1622.3328 2876.8234 1640.3826 2827.4239 1669.4492 2785.4766 C 1698.6601 2743.3211 1739.3877 2707.3953 1785.9707 2680.3867 C 1856.3151 2639.6013 1939.8244 2618.9457 2027.1855 2611.9473 z "
       transform="translate(0,-1048)"
       id="path4144-8-8-4-6-8-3" />
    <path
       style="fill:none;fill-rule:evenodd;stroke:#000000;stroke-width:70;stroke-linecap:round;stroke-linejoin:round;stroke-miterlimit:4;stroke-dasharray:none;stroke-opacity:1"
       d="m -3608.0188,108.1147 c -35.9519,-79.093377 -31.611,-175.294155 11.3182,-250.82814 42.9293,-75.53398 123.3604,-128.48939 209.7112,-138.07275 87.9142,-9.75686 178.9142,25.24613 240.2486,88.98149 61.3343,63.73536 92.6996,154.287231 87.5629,242.591884 -4.6132,79.306136 -38.0235,156.626886 -92.6151,214.337416 -54.5916,57.71052 -129.9388,95.3608 -208.8666,104.36865"
       id="path4144-8-8-4-6-8-9"
       inkscape:path-effect="#path-effect4146-9-3-6-4-9-3"
       inkscape:original-d="m -3608.0188,108.1147 c 0,0 73.3633,-369.3451 221.0294,-388.90089 153.9718,-20.39088 326.0972,176.16179 327.8115,331.573374 1.613,146.227126 -301.4817,318.706066 -301.4817,318.706066"
       inkscape:connector-curvature="0"
       sodipodi:nodetypes="caac" />
    <path
       style="fill:none;fill-rule:evenodd;stroke:#000000;stroke-width:70;stroke-linecap:round;stroke-linejoin:round;stroke-miterlimit:4;stroke-dasharray:none;stroke-opacity:1"
       d="m -1359.4846,919.8855 -2187.4978,15.60466 c -83.2126,0.5936 -167.0716,7.61775 -249.3554,-4.79427 -41.142,-6.20601 -82.2326,-18.91395 -115.4481,-43.97195 -16.6077,-12.529 -31.043,-28.12285 -41.2328,-46.26012 -10.1899,-18.13728 -16.0345,-38.87045 -15.5996,-59.66959 0.4314,-20.63092 7.03,-40.93788 17.7826,-58.55045 10.7526,-17.61257 25.5647,-32.5879 42.3944,-44.52873 33.6593,-23.88166 74.6019,-35.58031 115.4839,-41.23222 81.7641,-11.30383 164.8518,-5.02092 247.3926,-5.40882 l 1920.9325,-9.0275 c 77.7412,-0.36535 156.6394,-1.14263 231.3018,-22.80693 37.3313,-10.83215 73.3458,-26.87043 105.0481,-49.36311 31.7023,-22.49268 59.0202,-51.56721 77.5049,-85.76183 20.4009,-37.73932 29.6682,-81.41093 26.3522,-124.18308 -3.316,-42.77215 -19.2035,-84.49358 -45.1773,-118.63763 -25.9738,-34.14405 -61.9419,-60.58997 -102.2777,-75.20072 -40.3358,-14.61075 -84.8967,-17.33465 -126.7118,-7.74559 64.4338,-21.26515 118.9537,-70.845359 146.2245,-132.9760374 27.2708,-62.1306786 26.8581,-135.8222426 -1.1068,-197.6436126 -31.7024,-70.08374 -95.9582,-121.88471 -167.1632,-150.98128 -71.2051,-29.09657 -149.2146,-37.49091 -226.1269,-38.6187 -134.5537,-1.97301 -272.9345,18.72307 -389.2826,86.33746 -58.174,33.8072 -110.0422,79.17769 -148.327,134.50779 -38.2848,55.33009 -62.6527,120.773994 -66.276,187.960426 -4.5058,83.549574 24.0609,168.545774 78.59,232.007674 54.529,63.46191 134.509,104.56222 217.9059,111.32852 63.8747,5.18239 128.9677,-9.3856 185.4168,-39.7226 56.4491,-30.337 104.2096,-76.17253 138.3967,-130.37656 68.3742,-108.40806 79.9717,-247.604462 43.3392,-370.42709 -34.9144,-117.06225 -112.0169,-220.77047 -213.1244,-289.32591 -101.1076,-68.55545 -225.3879,-101.76472 -347.3279,-94.46998 -128.7812,7.704 -254.7664,60.78986 -348.6708,149.25413 -93.9044,88.46426 -154.6152,211.90752 -165.0941,340.492702 -13.3738,164.107982 57.8068,332.860118 184.6726,437.814218 l -1425.8546,-6.25389"
       id="path4139-1-0-5-6-8-8"
       inkscape:path-effect="#path-effect4141-3-4-6-0-4-9-4"
       inkscape:original-d="m -1359.4846,919.8855 -2187.4978,15.60466 c -69.4715,0.49558 -422.4965,-4.99215 -421.6359,-154.69593 0.8599,-149.586 370.2843,-149.56666 423.0535,-149.72022 l 1920.9325,-9.0275 c 147.4696,-3.63331 373.339,-15.94419 413.8548,-157.93187 37.4377,-131.20044 -247.8146,-325.76702 -247.8146,-325.76702 0,0 186.7911,-217.702042 145.1177,-330.61965 -50.4375,-136.66458 -248.1788,-200.21046 -393.2901,-189.59998 -242.3313,17.71918 -571.9855,167.59887 -603.8856,408.805676 -19.837,149.993264 145.6549,352.084144 296.4959,343.336194 217.2397,-12.59857 407.5742,-326.413707 367.1527,-540.52625 -42.041,-222.69197 -334.862,-402.01741 -560.4523,-383.79589 -235.6767,19.03623 -465.5912,257.94386 -513.7649,489.746832 -32.2331,155.099629 184.6726,437.814218 184.6726,437.814218 l -1425.8546,-6.25389"
       inkscape:connector-curvature="0"
       sodipodi:nodetypes="csaccacaaaaaaacc" />
    <path
       style="color:#000000;font-style:normal;font-variant:normal;font-weight:normal;font-stretch:normal;font-size:medium;line-height:normal;font-family:sans-serif;text-indent:0;text-align:start;text-decoration:none;text-decoration-line:none;text-decoration-style:solid;text-decoration-color:#000000;letter-spacing:normal;word-spacing:normal;text-transform:none;direction:ltr;block-progression:tb;writing-mode:lr-tb;baseline-shift:baseline;text-anchor:start;white-space:normal;clip-rule:nonzero;display:inline;overflow:visible;visibility:visible;opacity:1;isolation:auto;mix-blend-mode:normal;color-interpolation:sRGB;color-interpolation-filters:linearRGB;solid-color:#000000;solid-opacity:1;fill:#000000;fill-opacity:1;fill-rule:evenodd;stroke:none;stroke-width:70;stroke-linecap:round;stroke-linejoin:round;stroke-miterlimit:4;stroke-dasharray:none;stroke-dashoffset:0;stroke-opacity:1;color-rendering:auto;image-rendering:auto;shape-rendering:auto;text-rendering:auto;enable-background:accumulate"
       d="M -1703.3477 2375.3672 C -1707.1507 2375.3651 -1710.9546 2375.3999 -1714.7578 2375.4707 L -1714.7578 2375.4688 C -1722.8713 2375.6199 -1730.9832 2375.937 -1739.0879 2376.4219 C -1876.0779 2384.6169 -2009.4776 2440.7526 -2109.668 2535.1387 C -2209.9205 2629.5833 -2274.426 2760.5781 -2285.6465 2898.2637 C -2297.5747 3044.6328 -2247.3713 3192.9644 -2151.9102 3303.5449 L -2709.2402 3301.0996 C -2690.0871 3287.3444 -2672.1884 3271.7962 -2655.9102 3254.5879 C -2595.4925 3190.7185 -2558.8868 3106.0021 -2553.7812 3018.2324 C -2548.0844 2920.297 -2582.3809 2820.7121 -2651.0664 2749.3379 C -2711.3438 2686.7008 -2796.0318 2649.0325 -2883.0312 2648.0039 C -2895.4599 2647.857 -2907.9362 2648.4572 -2920.3945 2649.8398 C -3018.4262 2660.7196 -3107.9374 2719.6527 -3156.6738 2805.4043 C -3205.4102 2891.1559 -3210.241 2998.2172 -3169.4258 3088.0098 A 35.0035 35.0035 0 1 0 -3105.7012 3059.043 C -3136.7898 2990.6487 -3132.9385 2905.3084 -3095.8164 2839.9922 C -3058.6942 2774.6758 -2987.3438 2727.6991 -2912.6738 2719.4121 C -2836.5125 2710.9596 -2755.2841 2741.9914 -2701.5039 2797.877 C -2647.5206 2853.9734 -2619.0856 2935.4922 -2623.6621 3014.166 C -2627.783 3085.0085 -2657.9981 3154.9328 -2706.7637 3206.4844 C -2755.5291 3258.036 -2823.6673 3292.0844 -2894.1719 3300.1309 A 35.0035 35.0035 0 0 0 -2895.1934 3300.2852 L -3491.791 3297.668 A 35.0035 35.0035 0 1 0 -3492.0977 3367.666 L -2066.2441 3373.9199 A 35.0035 35.0035 0 0 0 -2043.7793 3311.9531 C -2161.4018 3214.6458 -2228.2783 3056.1005 -2215.8789 2903.9492 C -2206.1416 2784.4644 -2149.2262 2668.5737 -2061.6699 2586.0898 C -1974.0515 2503.5473 -1855.4806 2453.5098 -1734.9082 2446.2969 C -1620.7039 2439.4649 -1503.7389 2470.7735 -1409.3125 2534.7988 C -1399.4756 2541.4687 -1389.9397 2548.582 -1380.6016 2555.9531 C -1471.9446 2567.2385 -1561.9976 2592.4403 -1643.1777 2639.6172 C -1705.2994 2675.7185 -1761.0921 2724.339 -1802.6992 2784.4707 C -1844.3778 2844.7056 -1871.1307 2916.0689 -1875.1426 2990.4609 C -1880.1455 3083.2284 -1848.8089 3176.5687 -1788.1504 3247.1641 C -1727.4645 3317.7915 -1639.5151 3363.0221 -1546.5293 3370.5664 C -1475.4747 3376.3313 -1403.9292 3360.2255 -1341.7129 3326.7891 C -1279.5662 3293.39 -1227.5656 3243.3684 -1190.2812 3184.2539 C -1115.6481 3065.922 -1103.7251 2916.8544 -1143.0059 2785.1523 C -1160.8063 2725.4703 -1188.829 2669.3025 -1224.8672 2618.8672 C -1154.2823 2620.6657 -1085.0422 2629.3786 -1023.4219 2654.5586 C -958.85666 2680.9419 -901.96041 2727.7608 -874.9082 2787.5645 C -851.19457 2839.9877 -850.8359 2904.0313 -873.96094 2956.7168 C -897.08597 3009.4023 -944.46702 3052.491 -999.10547 3070.5234 A 35.0035 35.0035 0 0 0 -980.3125 3137.875 C -945.18514 3129.8195 -907.22841 3132.1381 -873.34375 3144.4121 C -839.45907 3156.686 -808.82353 3179.2133 -787.00391 3207.8965 A 35.0035 35.0035 0 0 0 -787.00195 3207.8965 C -765.18235 3236.5796 -751.65087 3272.1175 -748.86523 3308.0488 C -746.0796 3343.9802 -753.97328 3381.1794 -771.11133 3412.8828 C -786.68288 3441.6884 -810.24783 3466.9972 -838.08008 3486.7441 C -865.9836 3506.5416 -898.39156 3521.1046 -932.62891 3531.0391 C -1001.169 3550.9269 -1076.7226 3552.0943 -1154.3418 3552.459 L -3075.2734 3561.4863 C -3155.9278 3561.8654 -3240.6018 3555.2394 -3327.2949 3567.2246 C -3371.5267 3573.3397 -3418.0541 3586.0708 -3458.2383 3614.582 C -3478.427 3628.9061 -3496.6482 3647.1354 -3510.252 3669.418 C -3523.9208 3691.8073 -3532.577 3717.8656 -3533.1543 3745.4746 C -3533.7364 3773.3122 -3526.0458 3799.9345 -3513.0762 3823.0195 C -3500.1686 3845.9944 -3482.378 3865.0107 -3462.4082 3880.0762 C -3422.6555 3910.0659 -3375.8128 3923.9724 -3331.1016 3930.7168 C -3243.4239 3943.9425 -3157.6882 3936.4831 -3076.2773 3935.9023 L -888.7793 3920.2969 A 35.0035 35.0035 0 1 0 -889.2793 3850.2988 L -3076.7754 3865.9023 C -3161.7897 3866.5088 -3243.772 3873.0985 -3320.6621 3861.5 C -3358.2346 3855.8324 -3393.5736 3844.3216 -3420.252 3824.1953 C -3433.4975 3814.2027 -3444.5768 3802.0322 -3452.0488 3788.7324 C -3459.459 3775.5428 -3463.4577 3760.6981 -3463.1699 3746.9375 C -3462.8844 3733.2852 -3458.3436 3718.73 -3450.5078 3705.8945 C -3442.6064 3692.9526 -3431.2026 3681.231 -3417.7324 3671.6738 C -3390.598 3652.4216 -3355.2412 3641.7552 -3317.709 3636.5664 C -3240.8739 3625.944 -3159.3725 3631.8851 -3074.9453 3631.4883 L -1154.0117 3622.4609 C -1076.1485 3622.095 -993.90594 3621.7084 -913.12109 3598.2676 C -872.69598 3586.5377 -833.0753 3569.0238 -797.57422 3543.8359 C -762.00187 3518.5974 -730.93108 3485.7555 -709.5332 3446.1719 C -685.86949 3402.3968 -675.2279 3352.2536 -679.07422 3302.6406 C -682.92054 3253.0277 -701.1631 3205.1225 -731.29102 3165.5176 C -761.41891 3125.9127 -802.71692 3095.547 -849.50391 3078.5996 C -856.45693 3076.081 -863.52904 3073.9672 -870.65234 3072.0605 C -845.16878 3047.2812 -824.2957 3017.7346 -809.86328 2984.8535 C -778.44672 2913.2775 -778.91272 2829.9364 -811.12891 2758.7168 C -847.48148 2678.3531 -919.09836 2621.5715 -996.94336 2589.7617 C -1074.2525 2558.1707 -1156.6837 2549.7049 -1235.7949 2548.5449 C -1251.7233 2548.3113 -1267.7408 2548.4236 -1283.7949 2548.8418 C -1310.1143 2522.16 -1338.9478 2497.9367 -1370.0273 2476.8633 C -1467.9213 2410.4869 -1585.4524 2375.4322 -1703.3477 2375.3672 z M -1313.0332 2620.1348 C -1266.1086 2673.7882 -1230.3482 2737.224 -1210.0859 2805.1602 C -1176.1019 2919.1033 -1187.3731 3048.4278 -1249.4883 3146.9121 C -1280.5783 3196.2056 -1324.0981 3237.8539 -1374.8496 3265.1289 C -1425.5315 3292.3665 -1484.1724 3305.3967 -1540.8672 3300.7969 C -1614.6752 3294.8086 -1686.6865 3257.8394 -1735.0586 3201.543 C -1783.4583 3145.2146 -1809.2528 3068.5622 -1805.2441 2994.2305 C -1802.0094 2934.2497 -1780.0277 2874.7261 -1745.1367 2824.3008 C -1710.1743 2773.7722 -1662.2322 2731.6517 -1608.0059 2700.1387 C -1520.5317 2649.3041 -1417.9016 2626.2092 -1313.0332 2620.1348 z "
       transform="translate(0,-1048)"
       id="path4144-8-8-4-6-8-9-6" />
    <path
       style="color:#000000;font-style:normal;font-variant:normal;font-weight:normal;font-stretch:normal;font-size:medium;line-height:normal;font-family:sans-serif;text-indent:0;text-align:start;text-decoration:none;text-decoration-line:none;text-decoration-style:solid;text-decoration-color:#000000;letter-spacing:normal;word-spacing:normal;text-transform:none;direction:ltr;block-progression:tb;writing-mode:lr-tb;baseline-shift:baseline;text-anchor:start;white-space:normal;clip-rule:nonzero;display:inline;overflow:visible;visibility:visible;opacity:1;isolation:auto;mix-blend-mode:normal;color-interpolation:sRGB;color-interpolation-filters:linearRGB;solid-color:#000000;solid-opacity:1;fill:#000000;fill-opacity:1;fill-rule:evenodd;stroke:none;stroke-width:200;stroke-linecap:round;stroke-linejoin:round;stroke-miterlimit:4;stroke-dasharray:none;stroke-dashoffset:0;stroke-opacity:1;color-rendering:auto;image-rendering:auto;shape-rendering:auto;text-rendering:auto;enable-background:accumulate"
       d="M 4892.5449 339.08008 C 4883.5248 339.11898 4874.4904 339.36551 4865.4512 339.82227 C 4711.3113 347.61103 4565.1769 416.22976 4459.5527 527.47852 C 4354.0745 638.57356 4293.9006 786.54858 4289.4551 938.73633 C 4286.2784 1047.484 4311.9706 1154.8832 4361.5039 1250.1758 L 4110.8066 1249.0781 C 4146.8898 1191.036 4168.4187 1124.5603 4172.752 1055.5469 C 4179.6909 945.03692 4141.8738 834.11312 4063.1895 752.57617 C 3993.8546 680.72771 3898.381 638.22625 3797.9609 637.55664 C 3783.6152 637.46094 3769.1694 638.21896 3754.6836 639.86719 C 3640.7943 652.82571 3539.9154 719.39944 3483.2188 819.01953 C 3426.5219 918.63953 3420.7991 1039.3697 3467.8184 1143.9062 A 100.01 100.01 0 1 0 3650.2168 1061.8672 C 3630.6365 1018.335 3633.4287 959.43222 3657.0391 917.94727 C 3680.6493 876.4624 3729.8658 843.98033 3777.293 838.58398 C 3826.0691 833.03415 3883.4324 854.31863 3919.2734 891.45898 C 3955.6699 929.17494 3976.593 988.12419 3973.1465 1043.0137 C 3970.0399 1092.4903 3947.8226 1143.0966 3913.5039 1178.8711 C 3879.1852 1214.6456 3829.5433 1238.9452 3780.2383 1244.1035 A 100.01 100.01 0 0 0 3761.959 1247.5488 L 3227.6152 1245.209 A 100.01 100.01 0 1 0 3226.7402 1445.207 L 4561.9004 1451.0547 A 100.01 100.01 0 0 0 4629.9355 1277.3633 C 4539.6144 1194.514 4485.7904 1067.0879 4489.3691 944.57617 C 4492.3608 842.16182 4534.6943 738.80715 4604.5938 665.18555 C 4674.3471 591.71766 4775.2986 544.63386 4875.5449 539.56836 C 4943.3098 536.14417 5013.2944 551.67593 5075.3379 582.38867 C 5025.3861 597.00512 4976.1223 616.85637 4928.7871 643.85156 C 4863.6658 680.99019 4803.7549 731.1481 4757.6094 795.24023 C 4711.2371 859.64701 4680.1072 936.7089 4674.125 1019.793 C 4666.5305 1125.2704 4700.6342 1230.1974 4769.9414 1310.7793 C 4839.3379 1391.4649 4938.6852 1441.3668 5045.4473 1447.8438 C 5125.2484 1452.6851 5203.359 1433.0097 5271.0762 1394.9082 C 5338.563 1356.9363 5393.5528 1302.065 5433.2266 1238.2266 C 5512.6069 1110.4971 5525.6614 957.10195 5492.5352 819.2207 C 5486.9023 795.77511 5479.8414 772.73966 5471.623 750.15039 C 5495.7981 753.68667 5518.6048 758.93521 5539.6875 766.38281 C 5567.4145 776.17755 5592.3205 789.76638 5612.1875 806.20898 C 5631.8682 822.49744 5647.2826 842.40736 5656.1855 862.50195 C 5670.013 893.71176 5670.0754 935.0701 5656.3398 966.32031 C 5642.6042 997.57066 5612.0912 1025.4921 5579.748 1036.4082 A 100.01 100.01 0 0 0 5611.1738 1231.1562 C 5629.8177 1231.2594 5649.3956 1236.3881 5665.6953 1245.4395 C 5681.995 1254.4908 5696.6994 1268.3985 5706.6426 1284.1699 C 5716.5857 1299.9413 5722.7945 1319.2051 5723.9336 1337.8145 C 5725.0727 1356.4239 5721.2597 1376.2996 5713.3145 1393.166 C 5705.013 1410.7886 5690.7552 1428.3619 5672.6348 1442.5703 C 5654.3317 1456.922 5631.2545 1468.7312 5605.4531 1477.0762 C 5553.8588 1493.7634 5489.1201 1496.2125 5415.7793 1496.5566 L 3617.0312 1504.998 C 3543.3009 1505.3441 3458.2284 1498.789 3365.0762 1515.0273 C 3316.1502 1523.5562 3261.5247 1540.2975 3212.4961 1578.7168 A 100.01 100.01 0 0 0 3212.4961 1578.7188 C 3187.7387 1598.119 3165.1158 1622.7669 3148.2148 1653.5625 C 3131.1544 1684.6483 3120.6798 1720.6531 3121.373 1759.8594 C 3122.0569 1798.5485 3133.5035 1833.726 3151.2012 1863.9004 C 3168.7373 1893.7989 3191.6639 1917.5405 3216.5195 1936.1113 C 3265.7489 1972.8927 3319.885 1988.4241 3368.248 1996.0762 C 3460.3422 2010.6474 3544.1351 2003.2624 3616.8848 2002.7441 L 5665.2441 1988.1523 A 100.01 100.01 0 1 0 5663.8184 1788.1582 L 3615.459 1802.75 C 3533.1405 1803.3364 3460.5765 1808.1962 3399.5039 1798.5332 C 3371.2836 1794.0682 3349.1112 1785.5192 3336.2266 1775.8926 C 3330.0261 1771.2599 3325.7945 1766.2588 3323.7168 1762.7168 L 3323.7168 1762.7148 C 3321.802 1759.4494 3321.3411 1756.397 3321.3398 1756.3242 C 3321.3398 1756.2584 3321.7057 1753.1348 3323.543 1749.7871 A 100.01 100.01 0 0 0 3323.543 1749.7852 C 3325.5393 1746.1476 3329.695 1740.9687 3335.8535 1736.1426 C 3348.6585 1726.1085 3370.9584 1717.0184 3399.4219 1712.0566 C 3461.0484 1701.3139 3534.5879 1705.3874 3617.9688 1704.9961 L 5416.7188 1696.5547 C 5491.5544 1696.2035 5577.6069 1696.2837 5667 1667.3711 C 5711.6922 1652.9162 5756.0431 1631.3195 5796.043 1599.9551 C 5836.2256 1568.4474 5870.9722 1527.7986 5894.2441 1478.3965 C 5916.7247 1430.6744 5926.7836 1378.247 5923.5605 1325.5938 C 5920.3375 1272.9404 5903.9596 1222.1317 5875.8262 1177.5078 C 5857.6081 1148.6111 5834.8669 1123.1133 5808.6172 1101.7266 C 5820.4984 1084.5676 5830.8896 1066.2356 5839.4336 1046.7969 C 5876.6626 962.09587 5876.5209 866.07926 5839.043 781.48828 C 5815.9925 729.46151 5780.7938 686.13932 5739.7051 652.13281 C 5698.8025 618.28048 5652.9561 594.28266 5606.3047 577.80273 C 5518.0348 546.62086 5429.7578 542.48678 5349.0488 544.46484 C 5324.0734 516.41577 5296.5776 490.4721 5266.6328 467.21484 C 5160.2388 384.58168 5027.8475 338.49618 4892.5449 339.08008 z M 5252.2422 751.1582 C 5272.8049 787.12421 5288.4592 825.94741 5298.0684 865.94336 C 5320.2747 958.37261 5309.0041 1059.2089 5263.3574 1132.6582 C 5240.5178 1169.4092 5208.7307 1200.5024 5173.002 1220.6055 C 5137.5035 1240.5789 5095.9722 1250.5414 5057.5586 1248.2109 C 5007.2173 1245.1568 4954.8075 1219.0051 4921.5723 1180.3633 C 4888.2478 1141.6177 4869.8987 1085.6647 4873.6074 1034.1562 C 4876.5989 992.60925 4893.2778 949.09758 4919.916 912.09961 C 4946.7806 874.787 4984.4455 842.34729 5027.8672 817.58398 C 5092.2403 780.87206 5169.482 760.73479 5252.2422 751.1582 z "
       transform="translate(0,-1048)"
       id="path4144-8-8-4-6-8-2" />
  </g>
</svg>
