<?xml version="1.0" encoding="UTF-8" standalone="no"?>
<!-- Created with Inkscape (http://www.inkscape.org/) -->

<svg
   xmlns:dc="http://purl.org/dc/elements/1.1/"
   xmlns:cc="http://creativecommons.org/ns#"
   xmlns:rdf="http://www.w3.org/1999/02/22-rdf-syntax-ns#"
   xmlns:svg="http://www.w3.org/2000/svg"
   xmlns="http://www.w3.org/2000/svg"
   xmlns:sodipodi="http://sodipodi.sourceforge.net/DTD/sodipodi-0.dtd"
   xmlns:inkscape="http://www.inkscape.org/namespaces/inkscape"
   width="2000"
   height="2048"
   id="svg2992"
   version="1.1"
   inkscape:version="0.91 r13725"
   sodipodi:docname="ഛൃ.svg">
  <defs
     id="defs5498">
    <inkscape:path-effect
       effect="spiro"
       id="path-effect3006"
       is_visible="true" />
    <inkscape:path-effect
       effect="spiro"
       id="path-effect4146-9-3-6-4"
       is_visible="true" />
    <inkscape:path-effect
       effect="spiro"
       id="path-effect4141-3-4-6-0"
       is_visible="true" />
    <inkscape:path-effect
       effect="spiro"
       id="path-effect4146-9-3-6-4-3"
       is_visible="true" />
    <inkscape:path-effect
       effect="spiro"
       id="path-effect4141-3-4-6-0-3"
       is_visible="true" />
    <inkscape:path-effect
       effect="spiro"
       id="path-effect4141-3-4-6-0-5"
       is_visible="true" />
    <inkscape:path-effect
       effect="spiro"
       id="path-effect4146-9-3-6-4-0"
       is_visible="true" />
    <inkscape:path-effect
       effect="spiro"
       id="path-effect4141-3-4-6-0-5-7"
       is_visible="true" />
    <inkscape:path-effect
       effect="spiro"
       id="path-effect4146-9-3-6-4-0-5"
       is_visible="true" />
    <inkscape:path-effect
       effect="spiro"
       id="path-effect4183-2-9"
       is_visible="true" />
    <inkscape:path-effect
       effect="spiro"
       id="path-effect4187-0-7"
       is_visible="true" />
    <inkscape:path-effect
       effect="spiro"
       id="path-effect4183-2-9-9"
       is_visible="true" />
    <inkscape:path-effect
       effect="spiro"
       id="path-effect4146-9-3-6-4-32"
       is_visible="true" />
    <inkscape:path-effect
       effect="spiro"
       id="path-effect4187-0-7-9"
       is_visible="true" />
    <inkscape:path-effect
       effect="spiro"
       id="path-effect4183-2-9-92"
       is_visible="true" />
    <inkscape:path-effect
       effect="spiro"
       id="path-effect4146-9-3-6-4-9"
       is_visible="true" />
    <inkscape:path-effect
       effect="spiro"
       id="path-effect4187-0-7-1"
       is_visible="true" />
    <inkscape:path-effect
       effect="spiro"
       id="path-effect4187-0-7-7"
       is_visible="true" />
    <inkscape:path-effect
       effect="spiro"
       id="path-effect4183-2-9-7"
       is_visible="true" />
    <inkscape:path-effect
       effect="spiro"
       id="path-effect4146-9-3-6-4-39"
       is_visible="true" />
    <inkscape:path-effect
       effect="spiro"
       id="path-effect4187-0-7-7-8"
       is_visible="true" />
    <inkscape:path-effect
       effect="spiro"
       id="path-effect4183-2-9-7-3"
       is_visible="true" />
    <inkscape:path-effect
       effect="spiro"
       id="path-effect4146-9-3-6-4-39-9"
       is_visible="true" />
  </defs>
  <sodipodi:namedview
     inkscape:window-height="845"
     inkscape:window-width="1600"
     inkscape:pageshadow="2"
     inkscape:pageopacity="0.0"
     borderopacity="1.0"
     bordercolor="#666666"
     pagecolor="#ffffff"
     id="base"
     showgrid="true"
     showguides="true"
     inkscape:guide-bbox="true"
     inkscape:zoom="0.25"
     inkscape:cx="4899.0131"
     inkscape:cy="-369.85307"
     inkscape:window-x="1600"
     inkscape:window-y="26"
     inkscape:current-layer="layer1"
     inkscape:window-maximized="1"
     inkscape:snap-grids="false">
    <sodipodi:guide
       orientation="horizontal"
       position="0,600"
       id="guide5596" />
    <inkscape:grid
       type="xygrid"
       id="grid3769"
       empspacing="3"
       visible="true"
       enabled="true"
       snapvisiblegridlinesonly="true"
       spacingx="4px"
       units="px"
       dotted="true"
       spacingy="4px" />
    <sodipodi:guide
       orientation="0,1"
       position="-1040,1600"
       id="guide2985" />
    <sodipodi:guide
       position="7868,1710"
       orientation="0,1"
       id="guide4187"
       inkscape:label=""
       inkscape:color="rgb(0,0,255)" />
    <sodipodi:guide
       position="4764,1624"
       orientation="0,1"
       id="guide4226"
       inkscape:label=""
       inkscape:color="rgb(0,0,255)" />
  </sodipodi:namedview>
  <metadata
     id="metadata5594">
    <rdf:RDF>
      <cc:Work
         rdf:about="">
        <dc:format>image/svg+xml</dc:format>
        <dc:type
           rdf:resource="http://purl.org/dc/dcmitype/StillImage" />
        <dc:title />
      </cc:Work>
    </rdf:RDF>
  </metadata>
  <g
     inkscape:label="Layer 1"
     inkscape:groupmode="layer"
     id="layer1"
     transform="translate(0,1048)">
    <path
       style="fill:none;fill-rule:evenodd;stroke:#000000;stroke-width:140;stroke-linecap:round;stroke-linejoin:round;stroke-miterlimit:4;stroke-dasharray:none;stroke-opacity:1"
       d="m 405.4367,86.086392 c -33.29977,-74.034374 -29.04224,-163.85074 11.11134,-234.403232 40.15358,-70.55248 115.201,-120.08016 195.85916,-129.25759 82.33135,-9.36781 167.70295,23.16559 225.24332,82.79204 57.54037,59.62645 86.90995,144.562163 81.71726,227.261882 -4.63013,73.740328 -36.133,145.500758 -87.28181,198.819358 -51.14881,53.3186 -121.53929,87.77395 -195.02377,95.46194"
       id="path4144-8-8-4-6"
       inkscape:path-effect="#path-effect4146-9-3-6-4"
       inkscape:original-d="m 405.4367,86.086392 c 0,0 68.6969,-345.374222 206.9705,-363.660822 C 756.5854,-296.6419 918.22218,-112.94961 919.36778,32.479492 920.43848,168.40739 637.0622,326.76079 637.0622,326.76079"
       inkscape:connector-curvature="0"
       sodipodi:nodetypes="caac" />
    <path
       style="fill:none;fill-rule:evenodd;stroke:#000000;stroke-width:140;stroke-linecap:round;stroke-linejoin:round;stroke-miterlimit:4;stroke-dasharray:none;stroke-opacity:1"
       d="m 1451.4585,760.7113 c 4.6484,32.46962 20.0078,62.98681 41.6128,87.66689 21.605,24.68009 49.2681,43.67678 79.1554,57.19081 59.7748,27.02807 126.9367,32.17874 192.5252,33.4785 67.6733,1.34107 137.2183,-1.36645 199.6647,-27.48009 31.2232,-13.05681 60.2589,-31.99508 82.9871,-57.0709 22.7283,-25.07582 38.9401,-56.46049 43.807,-89.95201 5.4002,-37.16097 -3.4088,-75.77354 -22.0293,-108.38302 -18.6204,-32.60947 -46.6768,-59.34752 -78.7535,-78.87149 -64.1534,-39.04796 -141.8161,-49.01313 -216.9148,-49.78019 -75.5483,-0.77165 -153.9211,7.73147 -219.0477,46.02852 -32.5633,19.14852 -61.1505,45.69992 -80.1975,78.32273 -19.047,32.62281 -28.163,71.45541 -22.8094,108.85025 z"
       id="path4181-82-9"
       inkscape:path-effect="#path-effect4183-2-9"
       inkscape:original-d="m 1451.4585,760.7113 c 6.5598,119.9858 193.1391,176.7382 313.2934,178.3362 123.3795,1.6408 326.4588,-56.367 326.4588,-174.503 4.7368,-173.6345 -185.5743,-236.0913 -317.6976,-237.0347 -132.5368,-0.9463 -329.2899,100.8589 -322.0546,233.2015 z"
       inkscape:connector-curvature="0"
       sodipodi:nodetypes="aacaa" />
    <path
       style="fill:none;fill-rule:evenodd;stroke:#000000;stroke-width:140;stroke-linecap:round;stroke-linejoin:round;stroke-miterlimit:4;stroke-dasharray:none;stroke-opacity:1"
       d="m 1617.658,925.0646 c 54.7586,7.78182 110.0325,11.93651 165.3391,12.4278 153.0257,1.35933 307.5493,-26.01572 446.0341,-91.1363 155.1639,-72.9637 288.6647,-194.56119 367.3069,-346.92567 78.6422,-152.36448 100.0721,-335.2539 49.6963,-499.14963 -40.6816,-132.3562 -127.8719,-250.43873 -244.098,-325.70258 -116.2262,-75.26385 -260.8317,-106.51145 -397.277,-82.93523 -101.4564,17.53052 -198.4038,65.45483 -269.5511,139.87774 -71.1474,74.42291 -115.1204,175.694049 -114.8238,278.653412 0.2264,78.593768 26.4837,157.463188 76.2525,218.291688 49.7687,60.82849 123.2158,102.59486 201.3844,110.7616 60.3909,6.30939 122.3776,-7.26186 175.7001,-36.30621 53.3226,-29.04436 97.9648,-73.22671 129.4938,-125.11877 63.0581,-103.784121 71.6674,-235.16862 38.6056,-352.02059 -31.8749,-112.65695 -101.3343,-214.5754 -195.4451,-284.22282 -94.1107,-69.64743 -212.4172,-106.34211 -329.3589,-100.66426 -124.5764,6.04854 -246.1037,60.45371 -333.9236,149.01744 -87.8198,88.56372 -141.1632,210.36545 -147.1625,334.944238 -7.3695,153.032327 58.0826,307.988852 172.9262,409.399602 L 73.595809,330.40809"
       id="path4185-6-6"
       inkscape:path-effect="#path-effect4187-0-7"
       inkscape:original-d="m 1617.658,925.0646 c 0,0 73.7928,20.0413 165.3391,12.4278 105.7998,-8.7987 325.8939,1.56942 446.0341,-91.1363 248.9254,-192.08227 501.7165,-543.28312 417.0032,-846.0753 -68.2992,-244.12286 -321.9578,-411.52772 -641.375,-408.63781 -106.3878,5.70203 -380.6419,250.26658 -384.3749,418.531152 -3.1381,141.448388 134.3463,337.001548 277.6369,329.053288 205.657,-11.4077 379.4566,-310.58229 343.7995,-513.44557 -37.5552,-213.66218 -308.5225,-401.74682 -524.804,-384.88708 -226.777,17.67789 -437.819,260.64964 -481.0861,483.961678 C 1207.6523,70.292679 1408.757,334.25606 1408.757,334.25606 L 73.595809,330.40809"
       inkscape:connector-curvature="0"
       sodipodi:nodetypes="csaacsaaaacc" />
    <path
       style="color:#000000;font-style:normal;font-variant:normal;font-weight:normal;font-stretch:normal;font-size:medium;line-height:normal;font-family:sans-serif;text-indent:0;text-align:start;text-decoration:none;text-decoration-line:none;text-decoration-style:solid;text-decoration-color:#000000;letter-spacing:normal;word-spacing:normal;text-transform:none;direction:ltr;block-progression:tb;writing-mode:lr-tb;baseline-shift:baseline;text-anchor:start;white-space:normal;clip-rule:nonzero;display:inline;overflow:visible;visibility:visible;opacity:1;isolation:auto;mix-blend-mode:normal;color-interpolation:sRGB;color-interpolation-filters:linearRGB;solid-color:#000000;solid-opacity:1;fill:#000000;fill-opacity:1;fill-rule:evenodd;stroke:none;stroke-width:140;stroke-linecap:round;stroke-linejoin:round;stroke-miterlimit:4;stroke-dasharray:none;stroke-dashoffset:0;stroke-opacity:1;color-rendering:auto;image-rendering:auto;shape-rendering:auto;text-rendering:auto;enable-background:accumulate"
       d="M 1904.2832 2325.9102 C 1895.9294 2325.9442 1887.5667 2326.1623 1879.2031 2326.5684 C 1736.5208 2333.4959 1599.4309 2394.9018 1498.9688 2496.2148 C 1398.5333 2597.5008 1338.4446 2734.778 1331.5918 2877.0801 C 1325.7692 2997.9907 1358.9956 3118.2942 1423.3457 3219.4121 L 1063.5898 3218.375 C 1117.351 3155.1674 1149.692 3075.562 1154.9102 2992.457 C 1161.3252 2890.2902 1126.0443 2787.165 1053.7031 2712.2012 C 990.06247 2646.2553 901.73477 2607.0737 809.75586 2606.375 C 796.61601 2606.275 783.40134 2606.9617 770.17383 2608.4668 C 666.25389 2620.291 573.12641 2681.7506 521.39258 2772.6504 C 469.65877 2863.5501 464.37397 2975.0067 507.27734 3070.3926 A 70.007 70.007 0 1 0 634.95703 3012.9629 C 611.26088 2960.2799 614.49308 2892.1037 643.06641 2841.8984 C 671.63973 2791.6932 728.60559 2754.099 786.00195 2747.5684 C 844.84461 2740.8731 910.6102 2765.5319 952.96094 2809.418 C 995.7006 2853.7071 1019.1559 2920.4511 1015.1855 2983.6836 C 1011.6219 3040.4393 986.61967 3097.3939 947.25195 3138.4316 C 907.88423 3179.4694 852.01786 3206.8152 795.45898 3212.7324 A 70.007 70.007 0 0 0 775.60547 3217.5449 L 239.47852 3216 A 70.007 70.007 0 1 0 239.07422 3356 L 1574.2363 3359.8477 A 70.007 70.007 0 0 0 1620.7715 3237.377 C 1522.5562 3150.6497 1465.1292 3014.689 1471.4316 2883.8145 C 1476.5774 2776.959 1523.1764 2670.6344 1598.3809 2594.793 C 1673.5585 2518.9786 1779.5217 2471.5737 1885.9922 2466.4043 C 1949.4928 2463.3211 2014.2532 2475.0951 2073.8203 2499.3984 C 1990.1269 2527.031 1912.361 2573.7083 1850.1914 2638.7402 C 1767.081 2725.6769 1715.6104 2842.9445 1715.9648 2965.9668 C 1716.2358 3060.0163 1747.1348 3153.9439 1808.041 3228.3848 C 1869.2388 3303.1822 1958.1348 3354.1807 2056.3281 3364.4395 C 2131.9603 3372.3412 2207.4945 3355.5476 2272.7852 3319.9844 C 2337.8825 3284.5263 2391.0201 3231.6247 2428.6191 3169.7422 C 2503.8222 3045.9694 2512.4285 2895.4578 2474.7578 2762.3164 C 2462.4668 2718.8757 2445.2256 2677.0166 2423.748 2637.4902 C 2460.9708 2650.419 2496.6732 2667.6241 2529.5684 2688.9258 C 2631.1625 2754.7145 2708.9403 2859.7538 2744.8047 2976.4375 C 2789.2459 3121.0252 2770.3646 3286.2332 2699.8164 3422.916 C 2629.021 3560.0778 2506.9776 3671.8027 2364.9238 3738.6016 C 2350.2791 3745.4881 2335.4061 3751.9208 2320.3359 3757.9199 C 2322.8244 3748.9127 2324.7886 3739.6681 2326.1641 3730.2031 C 2334.1146 3675.4922 2321.3558 3622.06 2295.6504 3577.043 C 2270.1863 3532.4482 2233.3412 3497.9442 2192.5039 3473.0879 C 2111.4362 3423.7447 2020.7054 3413.9308 1939.9082 3413.1055 C 1858.6138 3412.2751 1767.0401 3420.3487 1684.6641 3468.7891 C 1643.1591 3493.1956 1605.5835 3527.4801 1579.498 3572.1582 C 1553.1589 3617.2706 1539.9488 3671.0627 1547.8457 3726.2227 C 1554.6877 3774.0148 1576.4702 3816.2496 1606.082 3850.0762 C 1635.4668 3883.6434 1671.5148 3907.9638 1709.0664 3924.9434 C 1720.2584 3930.004 1731.5039 3934.3962 1742.7637 3938.2324 A 70.007 70.007 0 0 0 1773.4902 3949.959 C 1783.1328 3951.3293 1792.7911 3952.5831 1802.4609 3953.7402 C 1846.1596 3961.9304 1889.0911 3963.8332 1929.0449 3964.625 C 1966.5494 3965.3682 2006.6452 3965.2337 2047.6953 3960.0391 C 2176.7443 3950.9558 2305.385 3921.3051 2424.5 3865.293 C 2592.774 3786.1644 2737.7336 3654.6942 2824.2227 3487.127 C 2910.9589 3319.0807 2934.9374 3118.5104 2878.627 2935.3066 C 2833.1282 2787.278 2736.5241 2656.1531 2605.666 2571.4141 C 2511.5555 2510.4716 2401.7998 2475.3864 2290.0586 2470.2656 C 2278.3084 2460.0237 2266.173 2450.1893 2253.5977 2440.8828 C 2153.0893 2366.5008 2029.5904 2325.4032 1904.2832 2325.9102 z M 2233.4805 2610.4766 C 2282.9537 2664.2983 2320.1684 2730.1741 2340.0469 2800.4316 C 2368.4998 2900.9942 2359.8858 3013.2515 2308.9727 3097.0469 C 2283.5137 3138.9486 2247.3662 3174.4102 2205.8184 3197.041 C 2164.4641 3219.5663 2116.0266 3229.9143 2070.877 3225.1973 C 2012.7331 3219.1227 1954.7341 3186.59 1916.3945 3139.7305 C 1877.7631 3092.5144 1856.1467 3028.7025 1855.9648 2965.5645 C 1855.726 2882.6679 1892.2023 2797.3935 1951.3867 2735.4844 C 2010.9578 2673.1706 2094.5229 2631.3728 2182.2598 2616.2129 C 2199.1645 2613.292 2216.2797 2611.4636 2233.4805 2610.4766 z M 1931.9492 3553.0586 C 1934.1211 3553.0617 1936.2972 3553.0754 1938.4785 3553.0977 C 2007.8787 3553.8065 2072.4738 3563.9229 2119.7129 3592.6758 C 2143.029 3606.8675 2162.2975 3625.8386 2174.0742 3646.4629 C 2185.6099 3666.6649 2190.469 3690.4592 2187.6191 3710.0703 C 2185.0386 3727.8284 2175.5523 3747.2641 2161.2188 3763.0781 C 2146.6352 3779.168 2126.3385 3792.8569 2103.0918 3802.5781 C 2080.5898 3811.988 2055.218 3817.736 2027.7656 3821.0371 C 2001.6796 3822.6401 1975.4909 3823.3186 1949.2988 3823.0859 C 1908.9344 3822.7274 1868.5814 3820.2911 1828.4609 3815.8145 C 1806.0826 3811.6883 1785.345 3805.7858 1766.748 3797.377 C 1744.5251 3787.3285 1725.2471 3773.6563 1711.4219 3757.8633 C 1697.8237 3742.3297 1688.8884 3723.5299 1686.4336 3706.3828 C 1683.6233 3686.7532 1688.6455 3662.8812 1700.4004 3642.748 C 1712.4089 3622.1803 1732.0072 3603.3612 1755.6289 3589.4707 C 1802.0099 3562.1968 1864.6208 3552.9609 1931.9492 3553.0586 z "
       transform="translate(0,-1048)"
       id="path4144-8-8-4-6-9" />
    <path
       style="color:#000000;font-style:normal;font-variant:normal;font-weight:normal;font-stretch:normal;font-size:medium;line-height:normal;font-family:sans-serif;text-indent:0;text-align:start;text-decoration:none;text-decoration-line:none;text-decoration-style:solid;text-decoration-color:#000000;letter-spacing:normal;word-spacing:normal;text-transform:none;direction:ltr;block-progression:tb;writing-mode:lr-tb;baseline-shift:baseline;text-anchor:start;white-space:normal;clip-rule:nonzero;display:inline;overflow:visible;visibility:visible;opacity:1;isolation:auto;mix-blend-mode:normal;color-interpolation:sRGB;color-interpolation-filters:linearRGB;solid-color:#000000;solid-opacity:1;fill:#000000;fill-opacity:1;fill-rule:evenodd;stroke:none;stroke-width:200;stroke-linecap:round;stroke-linejoin:round;stroke-miterlimit:4;stroke-dasharray:none;stroke-dashoffset:0;stroke-opacity:1;color-rendering:auto;image-rendering:auto;shape-rendering:auto;text-rendering:auto;enable-background:accumulate"
       d="M 8174.5547 342.58398 C 8165.5491 342.56508 8156.529 342.75326 8147.498 343.1543 C 7992.8237 350.02297 7846.132 418.72781 7740.4023 530.29688 C 7634.8495 641.67937 7575.051 790.01587 7570.8848 942.2832 C 7567.9078 1051.0869 7593.7224 1158.5085 7643.3242 1253.8398 L 7391.8223 1253.1152 C 7428.1594 1194.9139 7449.8374 1128.1893 7454.1875 1058.9082 C 7461.1264 948.39825 7423.3093 837.4764 7344.625 755.93945 C 7275.2902 684.09087 7179.8166 641.58757 7079.3965 640.91797 C 7065.0508 640.82227 7050.605 641.58029 7036.1191 643.22852 C 6922.2299 656.18703 6821.3511 722.76085 6764.6543 822.38086 A 100.01 100.01 0 0 0 6764.6543 822.38281 C 6707.9576 922.00279 6702.2346 1042.733 6749.2539 1147.2695 A 100.01 100.01 0 1 0 6931.6523 1065.2285 C 6912.072 1021.6963 6914.8643 962.79358 6938.4746 921.30859 C 6962.085 879.82362 7011.3014 847.34361 7058.7285 841.94727 C 7107.5046 836.39743 7164.8682 857.68008 7200.709 894.82031 C 7237.1054 932.53627 7258.0266 991.48551 7254.5801 1046.375 C 7251.4735 1095.8516 7229.2581 1146.4598 7194.9395 1182.2344 C 7160.6208 1218.0089 7110.9788 1242.3065 7061.6738 1247.4648 A 100.01 100.01 0 0 0 7039.623 1252.0996 L 6508.9004 1250.5703 A 100.01 100.01 0 1 0 6508.3242 1450.5703 L 7843.4863 1454.418 A 100.01 100.01 0 0 0 7911.5059 1280.8496 C 7821.2627 1197.7641 7767.4555 1070.3743 7770.8105 947.75391 C 7773.6181 845.14224 7815.7393 741.55892 7885.5723 667.86914 C 7955.2284 594.36594 8056.3201 547.40189 8156.3691 542.95898 C 8196.5915 541.17282 8237.5984 546.1676 8277.2695 557.04883 C 8210.6863 586.58642 8149.1894 628.4068 8097.6328 682.44922 C 8009.4452 774.88882 7955.0272 899.05808 7955.3008 1030.5449 C 7955.5102 1131.1678 7988.1322 1231.6985 8053.8301 1312.166 C 8119.9767 1393.1832 8215.8502 1448.2992 8323.0977 1458.9043 C 8405.1877 1467.0217 8486.1799 1448.2464 8556.0684 1409.5273 C 8625.6629 1370.971 8681.7516 1314.247 8721.4785 1248.3672 C 8800.8796 1116.6948 8809.7948 959.87135 8773.502 820.70898 C 8768.6363 802.05183 8762.8821 783.65231 8756.418 765.51562 C 8764.7402 770.21458 8772.964 775.07468 8780.9492 780.2793 C 8876.1604 842.33576 8950.111 941.40157 8985.9727 1051.4316 C 9031.9696 1192.5587 9016.7802 1356.4719 8949.5645 1492.3438 C 8883.0453 1626.8075 8765.5678 1738.3977 8627.6133 1805.0996 C 8629.8845 1752.2932 8615.7525 1702.0195 8591.0371 1658.7363 C 8562.64 1609.0051 8522.0295 1571.1728 8477.4375 1544.0312 C 8389.1209 1490.276 8292.7903 1480.528 8209.5508 1479.6777 C 8125.7939 1478.8222 8028.5617 1486.7124 7938.793 1539.5 C 7893.456 1566.16 7852.0277 1603.7572 7822.9258 1653.6016 C 7793.4615 1704.0667 7778.4974 1764.2713 7787.4844 1827.0449 C 7795.2665 1881.4039 7819.8023 1928.6617 7852.8457 1966.4082 C 7885.5647 2003.7842 7925.2067 2030.3848 7966.043 2048.8496 C 7976.8608 2053.7411 7987.681 2058.0403 7998.4766 2061.8496 A 100.01 100.01 0 0 0 8038.6289 2076.2344 C 8047.7275 2077.5252 8056.8407 2078.7126 8065.9629 2079.8184 C 8112.3395 2088.5558 8157.0828 2090.3828 8197.7871 2091.1895 C 8235.9093 2091.9449 8277.5039 2091.9413 8320.8105 2086.457 C 8452.5125 2077.0695 8584.2204 2046.7304 8706.7051 1988.9629 C 8886.3097 1904.2558 9039.3451 1761.9091 9128.8281 1581.0254 C 9218.6126 1399.5325 9239.8536 1184.9741 9176.1289 989.45508 C 9126.3905 836.84855 9026.3639 701.5035 8890.1562 612.72656 C 8799.494 553.63488 8695.0348 517.18929 8587.4492 507.29688 C 8574.4081 495.1667 8560.8246 483.55856 8546.707 472.52539 C 8441.1315 390.01606 8309.6387 342.868 8174.5547 342.58398 z M 8498.25 705.54297 C 8536.0733 754.3343 8564.3716 811.35108 8579.9746 871.17969 C 8604.7057 966.00943 8595.6821 1069.679 8550.209 1145.0879 C 8527.4987 1182.7487 8495.3147 1214.5443 8459.1465 1234.582 C 8423.2719 1254.457 8381.0116 1263.6556 8342.7793 1259.875 C 8293.4735 1254.9994 8242.098 1226.5223 8208.752 1185.6797 C 8174.9576 1144.2879 8155.4192 1086.8219 8155.3008 1030.1289 L 8155.3008 1030.127 C 8155.1463 955.62476 8188.343 877.10826 8242.3438 820.50391 C 8296.8703 763.34825 8374.6636 724.20215 8456.3301 710.4082 C 8470.1593 708.07236 8484.158 706.46377 8498.25 705.54297 z M 8201.2207 1679.6309 C 8203.3088 1679.6331 8205.4041 1679.6445 8207.5078 1679.666 L 8207.5098 1679.666 C 8274.4669 1680.3501 8333.4614 1690.5327 8373.4512 1714.873 C 8393.0126 1726.7794 8408.5137 1742.4224 8417.3574 1757.9102 C 8425.8566 1772.7946 8429.0244 1790.2366 8427.2676 1802.3262 C 8425.6669 1813.3413 8419.0621 1827.6572 8408.3262 1839.502 C 8397.2333 1851.7406 8380.6817 1863.179 8360.8535 1871.4707 C 8341.3661 1879.6199 8318.4196 1884.7935 8292.7363 1887.8301 C 8268.2167 1889.2704 8243.5845 1889.8832 8218.9258 1889.6582 C 8180.2643 1889.3055 8141.6098 1887.0088 8103.1719 1882.7949 C 8082.7239 1879.0335 8064.336 1873.7994 8048.4434 1866.6133 C 8029.505 1858.05 8013.8211 1846.6561 8003.3301 1834.6719 C 7993.1635 1823.0582 7986.9815 1809.2814 7985.4668 1798.7012 C 7983.7466 1786.6851 7987.0148 1769.2239 7995.6445 1754.4434 C 8004.6366 1739.0422 8020.3842 1723.5375 8040.1738 1711.9004 C 8079.3932 1688.8378 8136.4699 1679.5627 8201.2207 1679.6309 z "
       transform="translate(0,-1048)"
       id="path4144-8-8-4-6-94" />
    <path
       style="fill:none;fill-rule:evenodd;stroke:#000000;stroke-width:70;stroke-linecap:round;stroke-linejoin:round;stroke-miterlimit:4;stroke-dasharray:none;stroke-opacity:1"
       d="m 3444.4532,120.24825 c -33.2998,-74.034375 -29.0422,-163.850737 11.1113,-234.40322 40.1536,-70.55249 115.201,-120.08017 195.8592,-129.2576 82.3314,-9.36781 167.703,23.16559 225.2433,82.79203 57.5404,59.62645 86.91,144.562167 81.7173,227.261889 -4.6301,73.740331 -36.133,145.500771 -87.2818,198.819371 -51.1488,53.3186 -121.5393,87.77394 -195.0238,95.46193"
       id="path4144-8-8-4-6-4"
       inkscape:path-effect="#path-effect4146-9-3-6-4-39"
       inkscape:original-d="m 3444.4532,120.24825 c 0,0 68.6969,-345.37422 206.9705,-363.66082 144.1782,-19.06747 305.815,164.62482 306.9606,310.053919 1.0707,135.927901 -282.3056,294.281301 -282.3056,294.281301"
       inkscape:connector-curvature="0"
       sodipodi:nodetypes="caac" />
    <path
       style="fill:none;fill-rule:evenodd;stroke:#000000;stroke-width:70;stroke-linecap:round;stroke-linejoin:round;stroke-miterlimit:4;stroke-dasharray:none;stroke-opacity:1"
       d="m 4490.4751,794.8732 c 4.6484,32.46962 20.0078,62.98681 41.6128,87.66689 21.605,24.68009 49.2681,43.67678 79.1554,57.19081 59.7748,27.02807 126.9367,32.17874 192.5252,33.4785 67.6733,1.34107 137.2183,-1.36645 199.6647,-27.48009 31.2232,-13.05681 60.2589,-31.99508 82.9871,-57.0709 22.7283,-25.07582 38.9401,-56.46049 43.807,-89.95201 5.4002,-37.16097 -3.4088,-75.77354 -22.0293,-108.38302 -18.6204,-32.60947 -46.6768,-59.34752 -78.7535,-78.87149 -64.1534,-39.04796 -141.8161,-49.01313 -216.9148,-49.78019 -75.5483,-0.77165 -153.9211,7.73147 -219.0477,46.02852 -32.5633,19.14852 -61.1505,45.69992 -80.1975,78.32273 -19.047,32.62281 -28.163,71.45541 -22.8094,108.85025 z"
       id="path4181-82-9-8"
       inkscape:path-effect="#path-effect4183-2-9-7"
       inkscape:original-d="m 4490.4751,794.8732 c 6.5598,119.9858 193.1391,176.7382 313.2934,178.3362 123.3795,1.6408 326.4588,-56.367 326.4588,-174.503 4.7368,-173.6345 -185.5743,-236.0913 -317.6976,-237.0347 -132.5368,-0.9463 -329.2899,100.8589 -322.0546,233.2015 z"
       inkscape:connector-curvature="0"
       sodipodi:nodetypes="aacaa" />
    <path
       style="fill:none;fill-rule:evenodd;stroke:#000000;stroke-width:70;stroke-linecap:round;stroke-linejoin:round;stroke-miterlimit:4;stroke-dasharray:none;stroke-opacity:1"
       d="m 4656.6746,959.2265 c 54.7753,7.64197 110.0369,11.79574 165.3391,12.4278 153.1095,1.74992 308.2676,-24.3085 446.0341,-91.1363 152.7616,-74.1016 281.0615,-198.62153 357.0175,-350.46959 75.956,-151.84806 98.5702,-330.26253 59.9857,-495.60575 -33.2389,-142.43584 -112.606,-275.34655 -228.567,-364.486 -115.961,-89.13945 -268.8189,-131.84102 -412.808,-106.15181 -110.5956,19.73145 -213.9274,79.54148 -284.6089,166.86191 -70.6814,87.32043 -107.7267,201.609655 -99.766,313.66924 5.5016,77.44311 32.506,154.02291 81.1822,214.50709 48.6761,60.48418 119.5497,103.90089 196.4547,114.5462 66.3948,9.19047 135.4034,-6.17994 193.3142,-39.93024 57.9107,-33.7503 104.7502,-85.32016 135.7418,-144.753 30.9915,-59.43285 46.4028,-126.484583 47.8084,-193.4977341 1.4056,-67.0131509 -10.9678,-133.9838259 -33.0649,-197.2645959 -38.3242,-109.75131 -106.9811,-209.62256 -199.523,-279.97938 -92.542,-70.35683 -209.146,-110.08142 -325.281,-104.9077 -134.0766,5.973 -263.2412,72.39688 -350.5185,174.35223 -87.2773,101.95535 -132.7736,237.41796 -130.5676,371.60944 2.4956,151.80941 65.8372,301.76937 172.9262,409.39961 l -1335.1613,-3.84797"
       id="path4185-6-6-0"
       inkscape:path-effect="#path-effect4187-0-7-7"
       inkscape:original-d="m 4656.6746,959.2265 c 0,0 73.7928,20.0413 165.3391,12.4278 105.7998,-8.7987 325.8939,1.5694 446.0341,-91.1363 248.9254,-192.0823 491.7143,-540.66133 417.0032,-846.07534 -63.0099,-257.58053 -321.9578,-473.52772 -641.375,-470.63781 -106.3878,5.70203 -380.6419,312.26658 -384.3749,480.53115 -3.1381,141.44839 134.5984,340.68709 277.6369,329.05329 222.7063,-18.11344 388.1322,-356.446026 343.7995,-575.44557 -43.0422,-212.62476 -309.1268,-408.23786 -524.804,-384.88708 -241.1507,26.10873 -442.1238,306.55142 -481.0861,545.96167 -23.7958,146.21724 172.9262,409.39961 172.9262,409.39961 l -1335.1613,-3.84797"
       inkscape:connector-curvature="0"
       sodipodi:nodetypes="csaacsaaaacc" />
    <path
       style="color:#000000;font-style:normal;font-variant:normal;font-weight:normal;font-stretch:normal;font-size:medium;line-height:normal;font-family:sans-serif;text-indent:0;text-align:start;text-decoration:none;text-decoration-line:none;text-decoration-style:solid;text-decoration-color:#000000;letter-spacing:normal;word-spacing:normal;text-transform:none;direction:ltr;block-progression:tb;writing-mode:lr-tb;baseline-shift:baseline;text-anchor:start;white-space:normal;clip-rule:nonzero;display:inline;overflow:visible;visibility:visible;opacity:1;isolation:auto;mix-blend-mode:normal;color-interpolation:sRGB;color-interpolation-filters:linearRGB;solid-color:#000000;solid-opacity:1;fill:#000000;fill-opacity:1;fill-rule:evenodd;stroke:none;stroke-width:70;stroke-linecap:round;stroke-linejoin:round;stroke-miterlimit:4;stroke-dasharray:none;stroke-dashoffset:0;stroke-opacity:1;color-rendering:auto;image-rendering:auto;shape-rendering:auto;text-rendering:auto;enable-background:accumulate"
       d="M 5105.9668 2304.5527 C 5098.1598 2304.5297 5090.3423 2304.6887 5082.5215 2305.0371 C 4937.9179 2311.4791 4800.46 2382.3839 4706.9727 2491.5938 C 4613.6433 2600.619 4565.6557 2744.0528 4567.998 2886.5391 C 4570.2113 3021.1724 4617.3114 3153.5591 4698.9922 3260.1426 L 4175.9336 3258.6348 C 4193.3304 3246.1844 4209.6253 3232.1485 4224.5059 3216.6367 C 4281.5452 3157.1777 4316.2976 3078.014 4321.4609 2995.7812 C 4327.2648 2903.3481 4294.9388 2809.3166 4229.998 2742.0215 C 4173.0048 2682.962 4093.0118 2647.6565 4010.8809 2646.9238 C 3999.1479 2646.8192 3987.3727 2647.4198 3975.6133 2648.7578 C 3883.3242 2659.2586 3799.2346 2714.7524 3753.291 2795.4785 C 3707.3473 2876.2046 3702.5781 2976.8406 3740.6797 3061.5508 A 35.0035 35.0035 0 1 0 3804.5195 3032.8379 C 3776.0216 2969.4792 3779.7654 2890.4824 3814.1289 2830.1035 C 3848.4923 2769.7247 3914.4981 2726.1626 3983.5254 2718.3086 C 4054.1124 2710.2771 4129.6813 2738.8746 4179.627 2790.6309 C 4229.767 2842.5887 4256.1811 2918.4284 4251.5996 2991.3945 C 4247.5027 3056.6425 4219.2485 3120.9996 4173.9902 3168.1777 C 4128.732 3215.3559 4065.6037 3246.256 4000.582 3253.0586 A 35.0035 35.0035 0 0 0 3985.5371 3258.0859 L 3440.8594 3256.5156 A 35.0035 35.0035 0 1 0 3440.6562 3326.5156 L 4775.8184 3330.3633 A 35.0035 35.0035 0 0 0 4800.7305 3270.6777 C 4700.2392 3169.6786 4640.3301 3027.8451 4637.9883 2885.3887 C 4635.9186 2759.492 4678.9232 2632.0007 4760.1484 2537.1152 C 4841.2157 2442.4144 4962.0871 2380.4728 5085.6367 2374.9688 C 5183.4639 2370.6105 5282.8587 2401.1234 5365.1191 2456.4062 C 5246.4073 2477.7235 5136.1484 2541.5272 5060.0078 2635.5918 C 4983.6927 2729.8723 4943.9114 2852.3686 4952.5352 2973.7617 C 4958.4948 3057.6531 4987.6024 3140.9325 5041.3613 3207.7324 C 5095.3122 3274.7709 5173.47 3322.9888 5260.2852 3335.0059 C 5335.1928 3345.3747 5411.6539 3328.1578 5476.0215 3290.6445 C 5540.2394 3253.2184 5591.3353 3196.7285 5625.1738 3131.8359 C 5658.9559 3067.0516 5675.4316 2994.775 5676.9395 2922.8887 C 5678.4456 2851.0812 5665.216 2780.0492 5641.9258 2713.3516 C 5618.4664 2646.1696 5584.1994 2582.492 5540.3613 2526.1816 C 5620.7506 2540.5761 5698.3534 2574.7287 5763.2988 2624.6523 C 5872.0498 2708.2495 5947.5814 2834.2229 5979.1133 2969.3438 C 6015.7437 3126.3133 5994.2005 3296.8141 5921.9082 3441.3379 C 5849.582 3585.9295 5726.7504 3705.2342 5580.918 3775.9746 C 5539.5966 3796.0188 5496.4923 3812.2766 5452.1953 3825.1016 C 5473.0355 3797.997 5487.9095 3765.7827 5493.0098 3730.6855 C 5499.6851 3684.7496 5488.9012 3638.7273 5466.7383 3599.9141 C 5444.696 3561.3119 5412.2441 3530.6901 5375.7871 3508.5 C 5303.1766 3464.3044 5218.9812 3454.4153 5141.0332 3453.6191 C 5062.6119 3452.8181 4977.638 3461.1079 4903.8867 3504.4766 C 4866.8526 3526.2541 4833.7713 3556.6718 4811.2051 3595.3223 C 4788.512 3634.1899 4777.3493 3680.5019 4783.9746 3726.7793 C 4789.7198 3766.9102 4808.29 3803.2877 4833.8984 3832.541 C 4859.3933 3861.6647 4891.2492 3883.3216 4924.9688 3898.5684 C 4937.0056 3904.011 4949.2009 3908.6214 4961.4922 3912.5527 A 35.0035 35.0035 0 0 0 4979.9844 3920.8379 C 4989.8683 3922.2168 4999.7677 3923.4793 5009.6797 3924.6367 C 5050.6139 3932.3562 5091.8072 3934.3674 5131.2207 3935.1484 C 5165.8935 3935.8356 5201.9563 3935.6202 5238.1523 3931.5273 C 5366.506 3923.9248 5494.5043 3895.6922 5611.4688 3838.9551 C 5771.1595 3761.4923 5904.9279 3631.7569 5984.5137 3472.6523 C 6064.1334 3313.4799 6087.8199 3127.1524 6047.2812 2953.4355 C 6012.3354 2803.6847 5929.1319 2663.8361 5805.9609 2569.1543 C 5709.6928 2495.1528 5589.9744 2451.3449 5468.5195 2448.6426 C 5456.3236 2437.6127 5443.6853 2427.0406 5430.543 2417.0488 C 5337.9506 2346.6538 5223.0716 2304.9033 5105.9668 2304.5527 z M 5440.668 2518.8379 C 5501.1126 2579.3946 5547.3857 2654.942 5575.8398 2736.4277 C 5596.7438 2796.2917 5608.2601 2859.201 5606.9551 2921.4199 C 5605.6517 2983.56 5591.3064 3045.3874 5563.1055 3099.4688 C 5534.9608 3153.4419 5492.3771 3200.0915 5440.7734 3230.166 C 5389.3194 3260.1533 5327.7648 3273.6782 5269.8828 3265.666 C 5202.8879 3256.3925 5139.2979 3217.7756 5095.8965 3163.8457 C 5052.303 3109.6772 5027.4029 3039.7975 5022.3594 2968.8027 C 5015.0617 2866.0766 5049.3703 2759.9953 5114.418 2679.6348 C 5179.5213 2599.2057 5275.7015 2543.4527 5377.9688 2525.207 C 5398.6681 2521.514 5419.6318 2519.5335 5440.668 2518.8379 z M 5133.5078 3523.5762 C 5135.7767 3523.5804 5138.0473 3523.594 5140.3184 3523.6172 C 5212.5678 3524.3552 5283.6963 3534.3945 5339.3926 3568.2949 C 5367.089 3585.1528 5390.7507 3608.0081 5405.9492 3634.625 C 5421.0273 3661.0308 5427.8614 3692.2331 5423.7363 3720.6191 C 5420.0126 3746.2439 5407.1638 3771.6547 5388.6328 3792.0996 C 5369.977 3812.6824 5345.3111 3828.9958 5318.0762 3840.3848 C 5290.5922 3851.8779 5260.6365 3858.406 5229.2285 3861.8926 C 5203.0453 3863.3402 5176.7884 3863.9033 5150.5586 3863.6035 C 5107.7943 3863.1147 5065.0528 3860.4532 5022.5547 3855.6523 C 4998.3395 3851.1084 4975.2421 3844.4766 4953.8086 3834.7852 C 4927.7534 3823.0039 4904.2835 3806.6701 4886.5684 3786.4336 C 4868.9668 3766.3267 4856.8192 3741.6677 4853.2676 3716.8594 C 4849.1856 3688.3472 4856.2554 3656.9952 4871.6562 3630.6172 C 4887.184 3604.0219 4911.2766 3581.3359 4939.3691 3564.8164 C 4994.1054 3532.6294 5063.1719 3523.4439 5133.5078 3523.5762 z "
       transform="translate(0,-1048)"
       id="path4144-8-8-4-6-4-2" />
  </g>
</svg>
