<?xml version="1.0" encoding="UTF-8" standalone="no"?>
<!-- Created with Inkscape (http://www.inkscape.org/) -->

<svg
   xmlns:dc="http://purl.org/dc/elements/1.1/"
   xmlns:cc="http://creativecommons.org/ns#"
   xmlns:rdf="http://www.w3.org/1999/02/22-rdf-syntax-ns#"
   xmlns:svg="http://www.w3.org/2000/svg"
   xmlns="http://www.w3.org/2000/svg"
   xmlns:sodipodi="http://sodipodi.sourceforge.net/DTD/sodipodi-0.dtd"
   xmlns:inkscape="http://www.inkscape.org/namespaces/inkscape"
   width="2000"
   height="2048"
   id="svg2992"
   version="1.1"
   inkscape:version="0.91 r13725"
   sodipodi:docname="ജൃ.svg">
  <defs
     id="defs5498">
    <inkscape:path-effect
       effect="spiro"
       id="path-effect4142-0-1-0"
       is_visible="true" />
    <inkscape:path-effect
       effect="spiro"
       id="path-effect4142-0-1-0-7"
       is_visible="true" />
    <inkscape:path-effect
       effect="spiro"
       id="path-effect4142-0-1-0-74"
       is_visible="true" />
    <inkscape:path-effect
       effect="spiro"
       id="path-effect4142-0-1-0-74-4"
       is_visible="true" />
    <inkscape:path-effect
       effect="spiro"
       id="path-effect4142-0-1-0-74-5"
       is_visible="true" />
    <inkscape:path-effect
       effect="spiro"
       id="path-effect4187"
       is_visible="true" />
    <inkscape:path-effect
       effect="spiro"
       id="path-effect4183"
       is_visible="true" />
    <inkscape:path-effect
       effect="spiro"
       id="path-effect4187-1"
       is_visible="true" />
    <inkscape:path-effect
       effect="spiro"
       id="path-effect4183-0"
       is_visible="true" />
    <inkscape:path-effect
       effect="spiro"
       id="path-effect4187-9"
       is_visible="true" />
    <inkscape:path-effect
       effect="spiro"
       id="path-effect4183-9"
       is_visible="true" />
    <inkscape:path-effect
       effect="spiro"
       id="path-effect4187-95"
       is_visible="true" />
    <inkscape:path-effect
       effect="spiro"
       id="path-effect4183-9-5"
       is_visible="true" />
    <inkscape:path-effect
       effect="spiro"
       id="path-effect4187-95-1"
       is_visible="true" />
    <inkscape:path-effect
       effect="spiro"
       id="path-effect4183-3"
       is_visible="true" />
    <inkscape:path-effect
       effect="spiro"
       id="path-effect4187-3"
       is_visible="true" />
  </defs>
  <sodipodi:namedview
     inkscape:window-height="843"
     inkscape:window-width="1600"
     inkscape:pageshadow="2"
     inkscape:pageopacity="0.0"
     borderopacity="1.0"
     bordercolor="#666666"
     pagecolor="#ffffff"
     id="base"
     showgrid="true"
     showguides="true"
     inkscape:guide-bbox="true"
     inkscape:zoom="0.3535534"
     inkscape:cx="2967.9357"
     inkscape:cy="345.684"
     inkscape:window-x="0"
     inkscape:window-y="0"
     inkscape:current-layer="layer1"
     inkscape:window-maximized="1">
    <sodipodi:guide
       orientation="horizontal"
       position="0,600"
       id="guide5596" />
    <inkscape:grid
       type="xygrid"
       id="grid3769"
       empspacing="3"
       visible="true"
       enabled="true"
       snapvisiblegridlinesonly="true"
       spacingx="4px"
       units="px"
       dotted="true"
       spacingy="4px" />
    <sodipodi:guide
       orientation="0,1"
       position="-1040,1600"
       id="guide2985" />
    <sodipodi:guide
       position="3384,1710"
       orientation="0,1"
       id="guide4180"
       inkscape:label=""
       inkscape:color="rgb(0,0,255)" />
  </sodipodi:namedview>
  <metadata
     id="metadata5594">
    <rdf:RDF>
      <cc:Work
         rdf:about="">
        <dc:format>image/svg+xml</dc:format>
        <dc:type
           rdf:resource="http://purl.org/dc/dcmitype/StillImage" />
        <dc:title />
      </cc:Work>
    </rdf:RDF>
  </metadata>
  <g
     inkscape:label="Layer 1"
     inkscape:groupmode="layer"
     id="layer1"
     transform="translate(0,1048)">
    <path
       style="fill:none;fill-rule:evenodd;stroke:#000000;stroke-width:140;stroke-linecap:round;stroke-linejoin:round;stroke-miterlimit:4;stroke-dasharray:none;stroke-opacity:1"
       d="m 780,756 c 3.85743,27.08362 16.94009,52.4687 35.269,72.77765 18.32891,20.30895 41.73341,35.68918 66.88747,46.44443 50.30812,21.5105 106.34471,24.63309 161.04823,25.69802 56.4913,1.09974 114.5188,0.0481 167.0791,-20.68585 26.2802,-10.36701 50.8461,-25.69845 70.1198,-46.35385 19.2736,-20.65539 33.0645,-46.79923 37.0662,-74.7654 4.4179,-30.87447 -3.3085,-62.93067 -19.2458,-89.74022 -15.9374,-26.80955 -39.7465,-48.50374 -66.7421,-64.12375 -53.9914,-31.24004 -118.5422,-38.10796 -180.9167,-38.75593 -62.79424,-0.65233 -127.96124,4.96998 -182.78606,35.5932 -27.41241,15.31161 -51.67294,36.86504 -67.96004,63.70933 C 783.532,692.64192 775.57265,724.91489 780,756 Z"
       id="path4181"
       inkscape:path-effect="#path-effect4183"
       inkscape:original-d="m 780,756 c 5.3904,100.0095 163.0586,143.6122 263.2047,144.9201 102.9098,1.344 274.2651,-45.8051 274.2651,-141.8051 C 1321.4493,618.0156 1160.2795,567.2704 1050.5652,566.4951 940.4581,565.7171 774.0738,646.0497 780,756 Z"
       inkscape:connector-curvature="0"
       sodipodi:nodetypes="aacaa" />
    <path
       style="fill:none;fill-rule:evenodd;stroke:#000000;stroke-width:140;stroke-linecap:round;stroke-linejoin:round;stroke-miterlimit:4;stroke-dasharray:none;stroke-opacity:1"
       d="m 1072.3548,900.8499 c 90.5096,7.40974 182.937,-10.14769 264.425,-50.23 98.812,-48.60359 181.0693,-130.68164 228.4278,-230.09638 47.3584,-99.41474 59.2042,-215.59224 31.3208,-322.12219 C 1567.4445,187.28477 1493.393,86.631926 1390.995,34.599064 1346.389,11.932824 1296.6694,-1.4910727 1246.6388,-0.86526924 1196.6082,-0.23946581 1146.3458,14.866985 1106.2016,44.731716 c -40.1441,29.86473 -69.5136,74.833564 -77.4668,124.231934 -7.9531,49.39838 6.5657,102.62412 40.904,139.01553 25.9713,27.52415 62.5433,44.77442 100.2988,47.34388 37.7556,2.56947 76.3158,-9.56001 105.8227,-33.25445 29.507,-23.69443 49.6727,-58.71276 55.3892,-96.12143 5.7165,-37.40867 -3.065,-76.83912 -24.0879,-108.30533 -18.0199,-26.971409 -44.5312,-47.81952 -74.1806,-60.975663 -29.6495,-13.156143 -62.3388,-18.813935 -94.7752,-18.590987 -64.873,0.445895 -127.3824,23.786962 -186.1649,51.23341 -90.09969,42.06889 -175.00726,94.37066 -263.23452,140.23674 -88.22726,45.86608 -181.12919,85.68187 -279.51599,100.09659 -55.79953,8.17523 -115.01022,7.54683 -165.78477,-16.99634 -25.38727,-12.27158 -48.14499,-30.50865 -64.01968,-53.81315 -15.87468,-23.3045 -24.58664,-51.78216 -22.49205,-79.90187 1.97711,-26.54249 13.48092,-51.97513 30.61932,-72.33902 17.1384,-20.363895 39.70774,-35.800174 64.15921,-46.313905 48.90294,-21.027463 103.83978,-22.475111 157.02097,-20.148619 183.59505,8.031646 367.09308,57.012185 549.0336,31.141439 90.97021,-12.935374 180.88941,-45.678106 250.70241,-105.419665 34.9065,-29.87078 64.4281,-66.27586 84.8727,-107.41889 20.4445,-41.14303 31.6733,-87.05633 30.7708,-132.99013 -1.1965,-60.9017 -23.9871,-120.82504 -61.8657,-168.52887 -37.8787,-47.70384 -90.4231,-83.19796 -148.1456,-102.6545 -46.0032,-15.5063 -95.8059,-20.92555 -143.56761,-12.23297 -47.76166,8.69259 -92.93191,31.85555 -127.09995,66.34152 -34.16805,34.48596 -56.66542,79.63048 -67.18009,127.02435 -10.51468,47.39387 -9.24068,96.50601 -7.17585,145.00832 l 4.9289,115.7788 -1.8049,-81.46078 c -0.94277,-42.55024 -2.34502,-85.33412 -10.90493,-127.02512 -8.55992,-41.69101 -24.293,-82.12088 -48.21675,-117.32125 -23.92374,-35.20038 -55.81354,-64.89453 -92.43728,-86.57661 -36.62375,-21.68209 -77.73417,-35.40388 -119.80535,-41.84029 -73.20571,-11.19964 -150.51822,0.0292 -215.049,36.36495 -64.53079,36.33573 -115.15986,98.50825 -132.6616,170.46793 -13.99063,57.52349 -6.00336,121.19063 26.69967,170.53838 16.35151,24.67388 38.61261,45.51088 64.68254,59.52983 26.06993,14.01895 55.9317,21.11687 85.49149,19.5706 31.58237,-1.65207 62.51012,-13.21062 87.71468,-32.31312 25.20456,-19.1025 44.6314,-45.62897 55.67012,-75.26547 15.41403,-41.38323 14.10005,-88.73069 -3.58541,-129.19535 -17.68546,-40.46467 -51.5424,-73.58892 -92.38424,-90.385 -40.84184,-16.79608 -88.20671,-17.07404 -129.24287,-0.75846 -41.03616,16.31558 -75.27952,49.04019 -93.43868,89.2945"
       id="path4185"
       inkscape:path-effect="#path-effect4187"
       inkscape:original-d="m 1072.3548,900.8499 c 0,0 193.5171,4.73687 264.425,-50.23 C 1497.551,725.9923 1619.083,500.56635 1596.5284,298.40133 1584.1685,187.6159 1480.2305,86.266999 1390.995,34.599064 1269.288,-35.870051 1028.103,261.82763 1069.6388,307.97918 1137.4933,383.37422 1336.8505,214.60204 1307.0616,117.64185 1272.1872,4.128556 1069.0065,69.379826 951.9409,89.30861 756.8868,122.51387 606.68499,341.66633 409.19039,329.64194 311.41029,323.68863 155.19529,276.87701 156.89389,178.93058 158.55569,83.1043 321.08329,78.98644 408.69339,40.129036 703.63837,-90.68674 1231.6974,34.589127 1324.0729,-274.55821 1356.8059,-384.10379 1228.0518,-536.91408 1114.0616,-545.74158 956.27638,-557.96061 768,-416 769.0381,-219.60036 l 4.9289,115.7788 -1.8049,-81.46078 c -3.69494,-166.76418 -120.81149,-341.85899 -271.36431,-372.76327 -132.10448,-27.11735 -319.74579,74.9052 -347.7106,206.83288 -21.14743,99.76579 76.1193,233.85964 176.8737,249.63881 59.0321,9.24503 176.3487,-51.49075 143.3848,-107.57859 -30.5835,-52.03769 -286.7252,-95.82445 -318.6512,-131.04431"
       inkscape:connector-curvature="0"
       sodipodi:nodetypes="caassaaaaaaaccsaaasc" />
    <path
       style="color:#000000;font-style:normal;font-variant:normal;font-weight:normal;font-stretch:normal;font-size:medium;line-height:normal;font-family:sans-serif;text-indent:0;text-align:start;text-decoration:none;text-decoration-line:none;text-decoration-style:solid;text-decoration-color:#000000;letter-spacing:normal;word-spacing:normal;text-transform:none;direction:ltr;block-progression:tb;writing-mode:lr-tb;baseline-shift:baseline;text-anchor:start;white-space:normal;clip-rule:nonzero;display:inline;overflow:visible;visibility:visible;opacity:1;isolation:auto;mix-blend-mode:normal;color-interpolation:sRGB;color-interpolation-filters:linearRGB;solid-color:#000000;solid-opacity:1;fill:#000000;fill-opacity:1;fill-rule:evenodd;stroke:none;stroke-width:140;stroke-linecap:round;stroke-linejoin:round;stroke-miterlimit:4;stroke-dasharray:none;stroke-dashoffset:0;stroke-opacity:1;color-rendering:auto;image-rendering:auto;shape-rendering:auto;text-rendering:auto;enable-background:accumulate"
       d="M 469.13672 2551.748 C 402.47324 2551.845 335.39434 2567.545 275.4043 2601.3242 C 194.76681 2646.7292 131.71005 2723.1592 109.07031 2816.2441 C 90.830892 2891.2369 100.31853 2973.9111 145.4375 3041.9941 C 167.92517 3075.9273 198.40389 3104.6583 235.31641 3124.5078 C 272.34375 3144.419 314.44145 3154.5886 357.61719 3152.3301 C 403.82794 3149.9128 447.61656 3133.4428 483.95703 3105.9004 C 520.22377 3078.4139 547.29696 3041.2884 562.94336 2999.2812 C 584.90735 2940.3128 583.10301 2875.2786 557.90234 2817.6191 C 533.91063 2762.7256 490.5838 2718.8983 436.26758 2694.1641 C 461.94822 2691.0223 488.34655 2691.1915 514.21094 2695.1484 C 548.31908 2700.3666 580.93728 2711.4502 608.94141 2728.0293 C 636.7847 2744.5132 661.19109 2767.2998 679.14648 2793.7188 C 697.08329 2820.1101 709.73306 2851.8999 716.6875 2885.7715 C 718.85195 2896.3135 720.37017 2907.4441 721.63867 2918.8418 C 721.82758 2935.5441 722.43809 2951.7921 723.10156 2967.377 L 728.03125 3083.1562 A 70.007 70.007 0 0 0 867.94922 3078.627 L 866.14453 2997.168 C 865.54725 2970.2107 864.84771 2941.6821 861.91602 2911.9785 C 861.92772 2883.8556 863.4138 2857.716 868.55273 2834.5527 C 876.53034 2798.5944 893.63768 2765.3367 917.12109 2741.6348 C 940.60936 2717.9279 973.16882 2701.0567 1007.0273 2694.8945 C 1041.3128 2688.6546 1079.5127 2692.3931 1115.7031 2704.5918 C 1161.1917 2719.9246 1202.5968 2748.1838 1231.3867 2784.4414 C 1260.0161 2820.4968 1277.2146 2866.4666 1278.0859 2910.8164 C 1278.7464 2944.4329 1270.3698 2979.5766 1254.6152 3011.2812 C 1238.798 3043.1123 1215.291 3072.3862 1186.918 3096.666 C 1130.065 3145.3172 1052.9085 3174.4441 971.87305 3185.9668 C 808.61869 3209.1805 629.72679 3162.681 435.75195 3154.1953 C 379.20118 3151.7214 313.33051 3151.889 248.02148 3179.9707 C 215.08828 3194.1314 183.36886 3215.3232 157.95703 3245.5176 C 132.26677 3276.0428 114.31309 3314.4325 111.08789 3357.7305 C 107.66516 3403.6801 121.42934 3446.8551 145.5332 3482.2402 C 169.36618 3517.2277 201.84603 3542.7057 236.94141 3559.6699 C 306.49245 3593.2891 380.00166 3592.1817 443.33789 3582.9023 C 553.76433 3566.7237 653.63369 3523.1492 744.99414 3475.6543 C 828.12036 3432.44 905.32091 3385.7932 982.83984 3347.7285 C 973.48998 3416.3246 993.18394 3487.5148 1042.7266 3540.0195 C 1081.1902 3580.7829 1133.3106 3605.3595 1189.1855 3609.1621 C 1245.0509 3612.9639 1299.9619 3595.6822 1343.5898 3560.6484 C 1387.2103 3525.6207 1415.9013 3475.7823 1424.3457 3420.5215 C 1430.942 3377.3552 1424.5905 3333.7527 1406.7734 3294.5684 C 1477.2699 3339.4366 1530.8586 3416.2582 1552.8105 3500.127 C 1576.3075 3589.8982 1566.213 3690.0275 1526.0117 3774.418 C 1499.7648 3829.5154 1460.3314 3878.9736 1412.6191 3918.2656 C 1411.3579 3881.963 1400.1779 3847.5203 1382.3945 3817.6055 C 1359.2852 3778.7313 1326.4104 3749.4177 1290.5391 3728.6621 C 1219.4631 3687.5368 1142.3033 3681.1942 1075.293 3680.498 C 1007.8181 3679.7971 929.90218 3684.6141 857.64453 3724.9746 C 821.16691 3745.3497 787.63102 3774.4947 763.97266 3813.4883 C 740.02564 3852.9576 727.66685 3900.4958 734.69922 3949.8711 C 740.81104 3992.7831 760.63559 4030.1299 787.30273 4059.6777 C 813.71217 4088.9402 845.73387 4109.5174 878.63672 4123.5859 C 943.97041 4151.521 1009.406 4153.8077 1065.8418 4154.9062 C 1076.7795 4155.1192 1088.0466 4155.299 1099.5859 4155.2734 C 1200.0044 4161.9035 1301.3241 4141.8739 1391.6758 4097.4316 C 1504.6887 4041.8429 1597.9428 3948.9504 1652.4023 3834.6289 C 1706.918 3720.1898 1720.5179 3587.9644 1688.248 3464.6758 C 1654.4161 3335.4192 1569.4543 3218.5676 1446.7051 3156.1934 C 1416.8764 3141.0362 1384.7946 3129.298 1351.3242 3121.8789 C 1361.9103 3106.5621 1371.5826 3090.4978 1379.9883 3073.582 C 1405.1228 3023.0008 1419.2031 2966.3175 1418.0586 2908.0664 C 1416.5369 2830.6128 1388.1552 2756.7369 1341.0273 2697.3848 C 1294.0599 2638.2348 1230.3763 2595.5079 1160.4199 2571.9277 C 1104.6039 2553.1138 1043.1968 2546.013 981.95898 2557.1582 C 920.29491 2568.3813 862.51533 2597.8369 817.66797 2643.1016 C 802.55221 2658.358 789.52531 2675.0354 778.18164 2692.582 C 750.88952 2658.5447 717.67372 2629.7081 680.26367 2607.5605 C 635.0203 2580.7754 585.41898 2564.4163 535.38477 2556.7617 A 70.007 70.007 0 0 0 535.38281 2556.7617 C 513.53224 2553.4188 491.35788 2551.7176 469.13672 2551.75 L 469.13672 2551.748 z M 336.41602 2812.6406 C 349.71958 2812.7186 363.00858 2815.1764 374.75195 2820.0059 C 398.23854 2829.6646 419.44884 2850.4157 429.61914 2873.6855 C 439.7894 2896.9552 440.6121 2926.6161 431.74805 2950.4141 C 425.317 2967.68 413.53691 2983.6077 399.39453 2994.3262 C 385.32589 3004.9888 367.25867 3011.6346 350.30469 3012.5215 C 334.36165 3013.3555 316.73506 3009.3309 301.62305 3001.2051 L 301.62109 3001.2051 C 286.39465 2993.0166 272.35154 2980.0721 262.13672 2964.6582 C 246.15089 2940.5362 238.88879 2907.7018 241.22852 2875.2617 A 70.007 70.007 0 0 0 242.50195 2872.5898 C 252.94466 2849.4409 274.39759 2828.9412 297.99609 2819.5586 C 309.7953 2814.8674 323.11246 2812.5645 336.41602 2812.6426 L 336.41602 2812.6406 z M 1163.2207 3292.0996 L 1163.2227 3292.0996 C 1186.9624 3292.0159 1209.646 3296.2887 1228.4902 3304.6504 C 1247.2202 3312.9613 1263.1992 3326.0733 1272.8574 3340.5293 C 1283.8762 3357.0218 1288.943 3379.8072 1285.9531 3399.373 C 1282.9647 3418.9296 1271.325 3439.1272 1255.9316 3451.4883 C 1240.5461 3463.8431 1218.3368 3470.8208 1198.6914 3469.4844 C 1179.0556 3468.1475 1158.0312 3458.2238 1144.5527 3443.9395 C 1126.8367 3425.1643 1117.274 3392.4983 1121.8477 3364.0898 C 1126.0182 3338.1859 1141.521 3311.456 1163.2207 3292.0996 z M 402.26562 3293.3965 C 411.15962 3293.4181 420.29509 3293.6536 429.63477 3294.0625 C 524.84245 3298.2275 624.57339 3315.6059 728.38477 3325.7168 C 712.34837 3334.4957 696.36154 3343.149 680.41797 3351.4375 C 595.3239 3395.6748 509.39013 3431.7301 423.04297 3444.3809 C 374.78014 3451.4519 329.8672 3449.0901 297.86914 3433.623 C 282.18995 3426.0441 269.15467 3415.0453 261.23828 3403.4238 C 253.59277 3392.2 249.9347 3378.4207 250.70117 3368.1309 C 251.43019 3358.3438 256.4838 3345.8685 265.07031 3335.666 C 273.93529 3325.1326 287.35448 3315.4507 303.32422 3308.584 C 327.69685 3298.1042 358.53995 3293.9504 393.45312 3293.4473 C 396.36256 3293.4053 399.30096 3293.3893 402.26562 3293.3965 z M 1063.0098 3820.4629 C 1066.5951 3820.4439 1070.2058 3820.4545 1073.8379 3820.4922 C 1131.5765 3821.092 1183.517 3828.4852 1220.4238 3849.8398 C 1238.5437 3860.3242 1253.2873 3874.3995 1262.0527 3889.1445 C 1270.5438 3903.4281 1274.0103 3920.379 1272.1758 3933.1992 C 1270.5019 3944.8974 1263.761 3958.8332 1253.2246 3970.125 C 1242.4047 3981.7206 1226.8131 3991.9308 1208.5957 3999.1172 C 1179.3112 4010.6689 1142.8249 4014.5002 1101.7305 4015.0684 A 70.007 70.007 0 0 0 1088.0195 4015.1523 C 1081.6305 4015.1373 1075.1468 4015.0617 1068.5664 4014.9336 C 1015.5952 4013.9024 968.95833 4009.9453 933.67578 3994.8594 C 916.27051 3987.4173 901.48275 3977.2344 891.23438 3965.8789 C 881.2437 3954.809 874.90382 3941.3841 873.30078 3930.1289 C 871.47845 3917.334 875.03883 3900.3267 883.66602 3886.1074 C 892.58185 3871.4124 907.56687 3857.4493 925.91406 3847.2012 C 960.96906 3827.6206 1009.2299 3820.748 1063.0098 3820.4629 z "
       transform="translate(0,-1048)"
       id="path4181-4" />
    <path
       style="fill:none;fill-rule:evenodd;stroke:#000000;stroke-width:69.99998474;stroke-linecap:round;stroke-linejoin:round;stroke-miterlimit:4;stroke-dasharray:none;stroke-opacity:1"
       d="m -1034.4751,794.39654 c 4.1103,28.85879 18.0504,55.9077 37.58066,77.54778 19.53025,21.64009 44.46876,38.02841 71.27152,49.48861 53.6055,22.9204 113.31495,26.24767 171.60395,27.3824 60.194,1.17181 122.02483,0.0513 178.0301,-22.04173 28.00263,-11.04651 54.17868,-27.38285 74.71563,-49.39208 20.53695,-22.00923 35.23166,-49.86664 39.49569,-79.66581 4.70746,-32.8981 -3.52533,-67.05539 -20.50727,-95.62214 -16.98193,-28.56676 -42.35155,-51.68288 -71.11661,-68.3267 -57.53012,-33.28766 -126.3118,-40.60575 -192.77461,-41.2962 -66.91002,-0.69509 -136.34833,5.29576 -194.76657,37.92616 -29.20912,16.3152 -55.05977,39.28135 -72.41439,67.88512 -17.3546,28.60377 -25.8356,62.99204 -21.1181,96.11459 z"
       id="path4181-3"
       inkscape:path-effect="#path-effect4183-9"
       inkscape:original-d="m -1034.4751,794.39654 c 5.7438,106.56448 173.74607,153.02515 280.45613,154.41879 109.65485,1.4321 292.24142,-48.80737 292.24142,-151.09962 4.24035,-150.34766 -167.49307,-204.41896 -284.39849,-205.24504 -117.32397,-0.82904 -294.61376,84.76903 -288.29906,201.92587 z"
       inkscape:connector-curvature="0"
       sodipodi:nodetypes="aacaa" />
    <path
       style="fill:none;fill-rule:evenodd;stroke:#000000;stroke-width:69.99998474;stroke-linecap:round;stroke-linejoin:round;stroke-miterlimit:4;stroke-dasharray:none;stroke-opacity:1"
       d="m -722.95827,948.74052 c 96.43806,7.49508 194.78413,-11.18669 281.75638,-53.52228 100.04012,-48.69666 184.88354,-129.19304 235.73884,-228.15328 50.85531,-98.96024 66.82964,-216.02878 41.03463,-324.26005 C -192.86564,223.4874 -273.60166,116.323 -383.43323,61.711917 -430.99526,38.062851 -483.82361,24.115976 -536.93417,24.949073 c -53.11056,0.833096 -106.42564,16.900197 -149.07461,48.562338 -42.64896,31.662139 -73.94334,79.293079 -82.58613,131.702309 -8.6428,52.40923 6.49232,108.97233 42.74263,147.79681 27.57891,29.53732 66.5925,48.09996 106.90488,50.92156 40.31239,2.8216 81.51244,-10.11419 113.01146,-35.42942 31.49903,-25.31524 52.9891,-62.74666 59.02335,-102.7046 6.03426,-39.95795 -3.43474,-82.04637 -25.95534,-115.60039 -19.25481,-28.68823 -47.51614,-50.854608 -79.10671,-64.847385 -31.59057,-13.992777 -66.40682,-20.016592 -100.95693,-19.789224 -69.10022,0.454736 -135.70153,25.251199 -198.33295,54.446279 -96.03243,44.76466 -186.50958,100.48861 -280.51218,149.37215 -94.0027,48.88354 -192.9801,91.34007 -297.8121,106.71367 -59.4574,8.71941 -122.552,8.05134 -176.6555,-18.10236 -27.0518,-13.07685 -51.301,-32.51096 -68.2154,-57.34453 -16.9143,-24.83358 -26.1957,-55.17921 -23.9622,-85.14274 2.1082,-28.28179 14.3667,-55.38056 32.6286,-77.07863 18.262,-21.69808 42.3103,-38.14582 68.3641,-49.348714 52.1076,-22.405778 110.6444,-23.949682 167.3108,-21.47185 195.6282,8.55417 391.1529,60.744544 585.01804,33.178964 96.93257,-13.782789 192.74531,-48.670834 267.13437,-112.32738 37.19453,-31.828273 68.65126,-70.619149 90.43602,-114.45859 21.78477,-43.83943 33.74974,-92.76188 32.78833,-141.70621 -1.27469,-64.89348 -25.55899,-128.74455 -65.9204,-179.5751 -40.36142,-50.83055 -96.34986,-88.65103 -157.85582,-109.38278 -49.01842,-16.52258 -102.08546,-22.29701 -152.9776,-13.03467 -50.89215,9.26235 -99.02302,33.94351 -135.43058,70.68982 -36.40756,36.74631 -60.37946,84.84978 -71.58336,135.35003 -11.2038,50.50025 -9.8463,102.83139 -7.6461,154.51273 l 5.252,123.367447 -1.9233,-86.800087 c -1.0046,-45.33913 -2.4988,-90.92721 -11.6198,-135.35078 -9.121,-44.42357 -25.8853,-87.50336 -51.377,-125.01091 -25.4918,-37.50754 -59.4717,-69.14799 -98.4959,-92.25125 -39.0241,-23.10327 -82.829,-37.72449 -127.6577,-44.58281 -78.0039,-11.93378 -160.3838,0.0311 -229.1441,38.74844 -68.7604,38.71735 -122.7078,104.96493 -141.3567,181.64114 -14.9076,61.29382 -6.3968,129.13396 28.4497,181.71619 17.4232,26.29111 41.1434,48.49385 68.922,63.43167 27.7787,14.937815 59.5977,22.500973 91.095,20.853352 33.6524,-1.760357 66.6073,-14.076505 93.4639,-34.431062 26.8565,-20.35457 47.5567,-48.61969 59.3189,-80.19869 16.4243,-44.09566 15.0242,-94.54645 -3.8204,-137.66332 -18.8447,-43.11688 -54.9207,-78.41222 -98.4395,-96.30918 -43.5188,-17.89696 -93.9881,-18.19315 -137.714,-0.80819 -43.7258,17.38496 -80.2136,52.25446 -99.563,95.14719"
       id="path4185-8"
       inkscape:path-effect="#path-effect4187-95"
       inkscape:original-d="m -722.95827,948.74052 c 0,0 205.48038,4.10588 281.75638,-53.52228 C -276.87295,771.0642 -144.13244,547.7593 -164.42842,342.80491 -176.13349,224.6039 -288.34891,116.76638 -383.43323,61.711917 -513.11735,-13.376049 -770.11049,303.83402 -725.85228,353.01053 c 72.30192,80.33672 284.72572,-99.49748 252.98435,-202.81285 -37.16018,-120.95344 -253.6581,-51.42532 -378.39659,-30.19033 -207.83868,35.38168 -367.88528,268.89833 -578.32428,256.08582 -104.1892,-6.34353 -270.6429,-56.22337 -268.8331,-160.58963 1.7708,-102.10714 174.9511,-106.49492 268.3035,-147.899194 314.2767,-139.390007 876.94662,-5.903019 975.37676,-335.313216 34.87843,-116.72565 -102.31467,-279.5518 -223.77622,-288.95788 -168.12701,-13.01993 -368.74374,138.2454 -367.63764,347.51791 l 5.252,123.367447 -1.9233,-86.800087 c -3.9369,-177.69461 -128.7299,-364.26588 -289.1504,-397.19575 -140.7631,-28.89471 -340.703,79.8148 -370.5008,220.38958 -22.5334,106.30488 81.1084,249.18781 188.4667,266.001212 62.9012,9.850994 187.9071,-54.865672 152.7828,-114.629752 -32.5881,-55.44845 -305.5185,-102.10519 -339.5369,-139.6335"
       inkscape:connector-curvature="0"
       sodipodi:nodetypes="caassaaaaaaaccsaaasc" />
    <path
       style="color:#000000;font-style:normal;font-variant:normal;font-weight:normal;font-stretch:normal;font-size:medium;line-height:normal;font-family:sans-serif;text-indent:0;text-align:start;text-decoration:none;text-decoration-line:none;text-decoration-style:solid;text-decoration-color:#000000;letter-spacing:normal;word-spacing:normal;text-transform:none;direction:ltr;block-progression:tb;writing-mode:lr-tb;baseline-shift:baseline;text-anchor:start;white-space:normal;clip-rule:nonzero;display:inline;overflow:visible;visibility:visible;opacity:1;isolation:auto;mix-blend-mode:normal;color-interpolation:sRGB;color-interpolation-filters:linearRGB;solid-color:#000000;solid-opacity:1;fill:#000000;fill-opacity:1;fill-rule:evenodd;stroke:none;stroke-width:69.99998474;stroke-linecap:round;stroke-linejoin:round;stroke-miterlimit:4;stroke-dasharray:none;stroke-dashoffset:0;stroke-opacity:1;color-rendering:auto;image-rendering:auto;shape-rendering:auto;text-rendering:auto;enable-background:accumulate"
       d="m -2351.1445,2550.7715 c -64.8058,0.1259 -129.7823,15.3995 -187.1485,47.7012 -76.8137,43.252 -136.9754,116.6303 -158.1933,203.8691 -17.032,70.0284 -7.7713,147.3705 33.2832,209.3203 20.491,30.9203 48.3201,57.0707 81.5195,74.9238 33.2575,17.8842 71.1949,26.9842 109.5,24.9805 40.9666,-2.143 80.3529,-16.9158 112.7774,-41.4902 32.3876,-24.5466 56.9105,-58.1107 70.9765,-95.875 19.6993,-52.8883 18.0534,-112.1842 -4.5488,-163.8985 -22.6022,-51.7142 -65.0009,-93.1965 -117.1973,-114.6621 -41.3262,-16.9952 -87.1056,-20.6967 -130.414,-11.1758 11.5276,-9.3193 23.7682,-17.7479 36.6406,-24.996 61.0324,-34.366 135.7742,-45.4963 206.6797,-34.6485 40.8472,6.2492 80.4047,19.5517 115.1191,40.1035 34.6339,20.5042 64.8713,48.6898 87.3789,81.8067 22.4983,33.103 37.7228,71.863 46.041,112.3769 2.7697,13.4898 4.6064,27.4038 6.1114,41.4922 0.1553,17.5296 0.776,34.8265 1.4961,51.7402 l 5.2519,123.3672 c 0.961,19.0618 17.0151,33.84 36.0911,33.2228 19.0759,-0.6172 34.1412,-16.4024 33.8679,-35.4864 l -1.9238,-86.8008 c -0.6453,-29.1224 -1.4767,-59.1186 -4.5586,-89.5781 -0.1068,-32.4279 1.5376,-63.7695 8.0547,-93.1446 9.9353,-44.7825 31.2121,-86.9426 62.2773,-118.2969 31.0676,-31.3566 72.8932,-52.8933 116.834,-60.8906 44.154,-8.036 91.4192,-3.1012 135.5312,11.7676 55.3892,18.67 105.808,52.873 141.625,97.9805 35.7368,45.0064 57.2258,101.8805 58.3379,158.498 0.8405,42.7857 -9.699,86.3231 -29.1386,125.4434 -19.4711,39.1834 -47.9218,74.4085 -81.8497,103.4414 -67.9089,58.1113 -157.3395,91.193 -249.3046,104.2695 -184.5223,26.2371 -377.7441,-24.713 -578.5625,-33.4941 -58.3513,-2.5515 -122.3558,-1.6497 -182.6661,24.2832 -30.2943,13.0263 -58.9159,32.3518 -81.3144,58.9648 -22.5379,26.7784 -38.0213,60.3567 -40.7539,97.0156 -2.8982,38.8783 8.9087,76.573 29.9375,107.4473 20.8933,30.6754 50.0039,53.7288 81.9101,69.1524 63.4928,30.6924 133.7384,30.4931 196.9668,21.2207 110.8558,-16.257 213.3156,-60.5949 308.8809,-110.2911 95.5062,-49.6654 185.5711,-105.079 279.1523,-148.7011 19.3983,-9.0424 38.9126,-17.3489 58.4629,-24.6563 -12.1682,22.393 -20.8801,46.7641 -25.1152,72.4453 -10.368,62.8709 7.1889,129.7101 51.6953,177.377 33.8237,36.2256 80.6339,58.4909 130.043,61.9492 49.402,3.4578 98.8038,-12.0589 137.3808,-43.0625 38.5715,-30.9992 64.3206,-75.8612 71.7051,-124.7598 7.3834,-48.8915 -3.9638,-99.3003 -31.5019,-140.33 -20.4163,-30.4187 -48.4888,-54.0685 -79.8672,-70.5079 42.5025,1.4631 85.3564,13.3234 124.6582,32.8653 99.6096,49.5285 174.4717,148.487 200.541,257.8691 23.7199,99.5246 8.9691,208.517 -38.1192,300.1465 -45.1973,87.9505 -120.0244,160.9263 -208.4121,206.8652 8.8192,-17.0511 15.0651,-35.6202 17.875,-55.2578 5.9993,-41.9252 -4.3633,-83.6351 -25.0683,-118.4648 -20.568,-34.5989 -50.4708,-61.5247 -83.6738,-80.7363 -66.0724,-38.2303 -141.1588,-45.2855 -209.9395,-46 -69.2504,-0.7195 -145.0626,4.8681 -212.1973,42.3671 -33.7416,18.847 -64.2292,45.6087 -85.2695,80.2872 -21.1845,34.9162 -31.8657,76.9374 -25.8457,119.205 5.2375,36.773 22.5486,69.803 46.248,96.0625 23.5705,26.1169 52.8169,45.1039 83.4942,58.2207 61.1183,26.1327 125.5284,29.0418 184.6836,30.1934 11.8881,0.2314 23.9913,0.3917 36.2383,0.3262 100.415,6.5303 202.0795,-13.3952 292.5781,-57.4473 106.6856,-51.9315 196.9869,-137.4519 251.5488,-243.625 54.6226,-106.2908 71.8213,-231.4331 43.9512,-348.3711 -30.8051,-129.2529 -117.4132,-244.6246 -237.4668,-304.3184 -49.3014,-24.5139 -104.2443,-39.59 -160.707,-40.2558 28.9446,-29.3851 53.7695,-63.1113 72.3711,-100.5449 24.1297,-48.5586 37.5198,-102.8658 36.4375,-157.9688 -1.4373,-73.1695 -28.5179,-143.9975 -73.504,-200.6523 -44.9058,-56.5538 -106.463,-97.9916 -174.0859,-120.7852 -53.9248,-18.1764 -112.7936,-24.7913 -170.4238,-14.3027 -57.8436,10.5275 -112.2799,38.3543 -154.0274,80.4902 -29.3211,29.5939 -51.0428,65.1197 -65.7929,103.0879 -5.8294,-10.9745 -12.2461,-21.6872 -19.295,-32.0586 -28.4759,-41.8983 -66.197,-76.9929 -109.6113,-102.6953 -43.334,-25.6548 -91.3851,-41.5951 -140.1953,-49.0625 -21.2756,-3.2549 -42.859,-4.8955 -64.4609,-4.8535 z m -141.3282,198.6894 c 19.1368,0.1123 38.2513,3.7558 55.6719,10.92 34.8413,14.3283 64.5947,43.4376 79.6817,77.957 15.087,34.5195 16.2411,76.1265 3.0918,111.4297 -9.4584,25.3936 -26.3346,48.3588 -47.6602,64.5215 -21.2885,16.1345 -47.8141,25.9952 -74.1523,27.373 -24.6895,1.2915 -50.3898,-4.7369 -72.6895,-16.7285 -22.3573,-12.0225 -41.9691,-30.278 -56.3242,-51.9395 -24.2471,-36.588 -33.359,-83.9982 -27.877,-129.582 1.5314,-2.074 2.829,-4.3109 3.8692,-6.6699 15.4912,-34.34 45.5829,-63.0973 80.5898,-77.0156 17.5036,-6.9593 36.6621,-10.378 55.7988,-10.2657 z m 879.7715,511.0996 c 30.3276,-0.1995 60.2678,5.1484 86.5528,16.7911 26.1435,11.58 49.1463,29.8947 64.2187,52.3515 17.5031,26.0783 25.0953,59.8449 20.4102,90.8692 -4.6842,31.0174 -21.9153,61.0172 -46.3418,80.6484 -24.4212,19.6268 -57.4199,29.9823 -88.6426,27.7969 -31.2155,-2.1849 -62.4316,-17.0436 -83.7656,-39.8926 -27.9942,-29.9821 -40.7086,-76.2692 -33.791,-118.2168 6.9897,-42.3852 33.1746,-82.7624 68.914,-109.2949 0.2204,-0.1637 0.4624,-0.3002 0.6836,-0.4629 3.921,-0.2031 7.8495,-0.5641 11.7617,-0.5899 z m -809.625,1.2207 c 10.1272,0.048 20.3707,0.3384 30.6797,0.7891 148.0506,6.4738 300.5839,40.0521 456.6231,41.1719 -58.4848,31.7021 -115.3839,64.676 -172.9004,94.5859 -92.4402,48.0711 -187.936,88.6446 -286.7442,103.1348 -55.6863,8.1664 -111.6295,6.6305 -156.3437,-14.9844 -22.1974,-10.7302 -41.5843,-26.5436 -54.5195,-45.5351 -12.8001,-18.7929 -19.5574,-41.7892 -17.9883,-62.8379 1.4837,-19.9047 10.5178,-40.525 24.5039,-57.1426 14.1253,-16.7832 33.5989,-30.3529 55.4121,-39.7324 32.9287,-14.1591 71.0122,-18.9291 111.1914,-19.4141 3.3483,-0.04 6.7102,-0.051 10.0859,-0.035 z m 891.3965,562.2792 c 24.3272,14.076 45.1626,33.3835 58.5586,55.918 13.2588,22.3039 19.363,48.9084 15.9473,72.7793 -3.1001,21.6653 -14.2712,43.4188 -30.4395,60.7461 -16.31,17.4793 -37.9976,31.2548 -61.9687,40.7109 -59.6578,18.7589 -107.9356,20.6906 -164.5059,19.6075 -57.4228,-1.1179 -112.4327,-4.8622 -158.5254,-24.5703 -22.9283,-9.8036 -43.5589,-23.5945 -59.0488,-40.7579 -15.3612,-17.0206 -25.929,-38.0885 -28.9121,-59.0332 -3.415,-23.9775 2.8659,-50.7321 16.3906,-73.0234 13.669,-22.5291 34.8821,-41.7009 59.5586,-55.4844 46.5955,-26.0266 104.9358,-33.2721 173.2083,-33.045 68.2725,0.2271 130.7492,7.8075 179.737,36.1524 z"
       transform="translate(0,-1048)"
       id="path4181-3-8"
       inkscape:connector-curvature="0"
       sodipodi:nodetypes="sssssssssscssssscscscscsssssssssssssssssscsssssscssscsssssssssscsssscsssssscssssssssssssccsscsssssssccccscssssssssccsssccssssscss" />
    <path
       style="color:#000000;font-style:normal;font-variant:normal;font-weight:normal;font-stretch:normal;font-size:medium;line-height:normal;font-family:sans-serif;text-indent:0;text-align:start;text-decoration:none;text-decoration-line:none;text-decoration-style:solid;text-decoration-color:#000000;letter-spacing:normal;word-spacing:normal;text-transform:none;direction:ltr;block-progression:tb;writing-mode:lr-tb;baseline-shift:baseline;text-anchor:start;white-space:normal;clip-rule:nonzero;display:inline;overflow:visible;visibility:visible;opacity:1;isolation:auto;mix-blend-mode:normal;color-interpolation:sRGB;color-interpolation-filters:linearRGB;solid-color:#000000;solid-opacity:1;fill:#000000;fill-opacity:1;fill-rule:evenodd;stroke:none;stroke-width:201.30000305;stroke-linecap:round;stroke-linejoin:round;stroke-miterlimit:4;stroke-dasharray:none;stroke-dashoffset:0;stroke-opacity:1;color-rendering:auto;image-rendering:auto;shape-rendering:auto;text-rendering:auto;enable-background:accumulate"
       d="M 2783.9531 338.28906 C 2711.0576 338.85014 2637.9681 357.31939 2572.8398 395.83984 C 2485.2321 447.65592 2418.5281 532.6841 2395.1953 635.67578 C 2376.6612 717.48614 2386.8366 807.47565 2436.8516 883.36719 C 2461.783 921.19741 2495.5418 953.42677 2536.9668 975.99414 C 2578.5687 998.6578 2625.9049 1010.4546 2675.0723 1008.0859 C 2727.9301 1005.5395 2777.5463 986.89647 2818.8613 955.55469 C 2860.0592 924.30166 2890.4364 882.39688 2908.0098 834.90039 C 2932.6618 768.27253 2930.5255 695.60615 2902.0039 630.54102 C 2888.0098 598.61705 2868.3368 570.15159 2844.1953 546.2168 C 2867.7597 551.75587 2890.0027 560.6317 2909.293 572.45898 C 2933.3869 587.2315 2954.5982 607.7383 2970.0254 631.16992 C 2985.4396 654.58177 2996.712 683.4622 3002.957 714.82812 C 3004.7302 723.73433 3006.0618 733.23974 3007.1836 743.08008 C 3007.3969 760.74278 3008.0639 777.73986 3008.748 793.80859 L 3013.6758 909.58594 A 100.66007 100.66007 0 0 0 3214.8594 903.07617 L 3213.0547 821.61523 C 3212.4514 794.38588 3211.7808 765.03114 3208.8164 733.94922 C 3208.9064 707.76643 3210.2953 684.14346 3214.5742 664.16797 C 3221.4062 632.27304 3236.1048 603.34468 3255.0957 583.48828 C 3274.0585 563.66121 3301.2574 548.80429 3329.1523 543.2168 C 3357.5875 537.52107 3390.7323 540.13999 3422.1172 550.74219 C 3461.966 564.20359 3498.6328 590.29254 3523.4336 622.88867 C 3548.1335 655.35212 3562.8747 697.00603 3563.7129 736.69336 C 3564.9732 796.36145 3533.9103 863.10716 3484.502 910.23438 C 3476.7893 917.59104 3468.5462 924.55395 3459.9316 931.20703 C 3433.9062 941.46552 3408.8358 955.08916 3385.4805 972.4375 C 3383.3779 973.99931 3381.344 975.64829 3379.2812 977.26172 C 3353.4588 984.29579 3329.2383 993.50538 3306.2871 1003.582 C 3299.3306 1005.4082 3292.3779 1007.247 3285.3086 1008.8027 C 3129.1767 1043.1634 2948.5177 1012.3225 2750.8438 1008.623 C 2694.2829 1007.5645 2624.9709 1007.7276 2553.3008 1038.3223 C 2517.0753 1053.7863 2481.537 1076.9646 2452.3672 1110.8438 C 2422.7925 1145.1931 2401.5026 1188.6399 2396.9258 1238.9355 C 2392.0088 1292.9705 2407.3962 1343.1902 2434.9199 1384.5117 C 2462.0577 1425.2536 2498.973 1454.4548 2538.7441 1473.7754 C 2617.3634 1511.9682 2698.4516 1509.4799 2766.25 1498.0078 C 2886.3031 1477.6938 2990.6719 1424.8305 3083.1094 1369.2656 C 3149.0473 1329.6298 3209.7598 1288.459 3269.127 1252.0547 C 3277.7501 1301.4585 3300.3434 1348.4484 3337.4199 1386.9355 C 3378.454 1429.5308 3432.4701 1456.1672 3491.6484 1462.3906 C 3550.899 1468.6216 3609.7307 1453.7898 3658.9922 1419.6484 C 3708.3153 1385.4645 3743.1935 1335.27 3757.6816 1276.666 C 3764.4324 1249.3591 3766.3698 1221.5292 3763.6875 1194.168 C 3799.0374 1232.8852 3825.9117 1281.547 3839.4473 1333.0918 C 3861.0807 1415.4734 3851.7697 1508.5816 3814.6953 1586.3809 C 3798.2049 1620.9853 3775.9292 1653.3229 3749.4082 1681.9707 C 3743.4771 1662.5859 3735.1797 1644.1747 3725.0117 1627.0703 C 3698.762 1582.9137 3661.9178 1550.2641 3622.1602 1527.2598 C 3543.6036 1481.806 3460.923 1475.6938 3391.8828 1474.9766 L 3391.8809 1474.9766 C 3322.3565 1474.2543 3238.8575 1478.7197 3158.9668 1523.3438 C 3118.5199 1545.936 3080.9249 1578.4017 3054.0391 1622.7148 C 3026.7382 1667.712 3012.4519 1721.9343 3020.625 1779.3184 C 3027.7239 1829.1611 3050.5024 1871.7467 3080.8203 1905.3398 C 3110.7678 1938.5225 3146.5595 1961.3753 3182.8555 1976.8945 C 3254.7682 2007.6426 3324.3214 2009.5643 3381.5156 2010.6777 C 3392.4023 2010.8897 3403.73 2011.0865 3415.4258 2011.084 C 3520.752 2017.7469 3626.6675 1996.6706 3721.4531 1950.0703 C 3840.6967 1891.4456 3938.8181 1793.8452 3996.416 1672.9785 A 100.66007 100.66007 0 0 0 3996.416 1672.9766 C 4054.0968 1551.9358 4068.4554 1412.6235 4034.1445 1281.9648 C 3998.1279 1144.8109 3908.3308 1021.172 3777.0566 954.09766 C 3758.3431 944.53596 3738.706 936.28273 3718.4375 929.32617 C 3748.9527 869.83164 3766.4571 803.00074 3764.9668 732.44336 C 3763.1855 648.10669 3734.0478 567.25925 3683.6328 500.99805 C 3633.3187 434.8695 3564.2171 386.26986 3486.5391 360.0293 C 3425.0582 339.26034 3357.2903 332.27984 3289.6133 345.83594 C 3221.3958 359.50027 3158.405 393.34225 3109.6172 444.35352 C 3103.6256 450.61816 3097.9338 457.06451 3092.5195 463.66406 C 3069.2891 439.58207 3043.1431 418.40337 3014.5098 400.84766 C 2965.3147 370.6851 2911.247 352.1089 2856.4824 343.61914 C 2832.5301 339.90598 2808.2547 338.10248 2783.957 338.28906 L 2783.9531 338.28906 z M 2652.4023 668.82422 C 2661.8524 668.88482 2671.291 670.55096 2679.2266 673.81445 C 2695.0978 680.34145 2710.7529 695.64038 2717.6426 711.35742 C 2724.5323 727.07461 2725.1735 748.95437 2719.2188 765.04883 C 2714.8299 776.91054 2706.4268 788.18103 2697.2012 795.17969 C 2688.0925 802.08958 2675.7466 806.52045 2665.3867 807.01953 C 2655.6106 807.4905 2643.4868 804.78981 2633.2676 799.22266 C 2622.8716 793.55919 2612.4753 784.03928 2604.9336 772.5957 C 2593.9939 755.99609 2587.9037 731.96041 2588.3594 707.20508 C 2596.0627 692.79869 2610.6954 679.34361 2625.5137 673.4707 C 2633.4904 670.30927 2642.9523 668.76362 2652.4023 668.82422 z M 3484.9199 1164.166 C 3503.0582 1164.3949 3519.5848 1168.2132 3531.8516 1174.2246 C 3544.3968 1180.3725 3554.303 1190.2523 3558.5996 1198.2773 C 3562.8976 1206.3048 3564.5365 1219.1697 3562.2656 1228.3555 C 3559.9761 1237.6163 3552.4626 1248.5615 3544.3281 1254.1992 C 3536.1322 1259.8795 3522.9771 1263.2738 3512.7031 1262.1934 C 3502.357 1261.1053 3489.8616 1255.0285 3482.3945 1247.2773 C 3471.9288 1236.4135 3464.3522 1212.7672 3467.3672 1193.5996 C 3468.8463 1184.1963 3472.8425 1174.0491 3478.5957 1164.3457 C 3479.4727 1164.317 3480.4027 1164.1801 3481.2715 1164.168 C 3482.4942 1164.1509 3483.7107 1164.1508 3484.9199 1164.166 z M 2729.043 1209.7559 C 2734.8992 1209.7268 2740.9142 1209.7733 2747.0801 1209.8887 C 2807.951 1211.0279 2871.6542 1216.3255 2937.4004 1220.8828 C 2868.7633 1258.8804 2800.2751 1288.0896 2732.668 1299.5293 C 2688.5852 1306.9885 2650.1532 1304.099 2626.707 1292.709 C 2615.4454 1287.2381 2606.7718 1279.3957 2602.457 1272.918 C 2598.5283 1267.0198 2597.1759 1259.6471 2597.4004 1257.1797 C 2597.6224 1254.7399 2599.9421 1247.9648 2604.918 1242.1855 C 2610.2988 1235.936 2619.858 1228.7848 2632.334 1223.459 C 2654.8503 1213.8472 2688.0496 1209.9592 2729.043 1209.7559 z M 3379.3867 1676.2461 C 3382.8167 1676.2244 3386.2851 1676.2312 3389.7891 1676.2676 C 3445.4978 1676.8463 3491.9175 1684.4698 3521.3438 1701.4961 C 3535.5772 1709.7318 3546.3514 1720.4711 3551.9766 1729.9336 C 3557.2073 1738.7327 3558.8088 1749.0694 3558.1055 1753.9844 C 3557.4508 1758.5595 3553.7947 1767.1499 3547.084 1774.3418 C 3539.9656 1781.9705 3528.3061 1789.9387 3513.6191 1795.7324 C 3489.7153 1805.1621 3456.934 1808.8917 3417.4863 1809.5098 A 100.66007 100.66007 0 0 0 3403.3906 1809.6074 C 3397.5286 1809.5964 3391.5529 1809.5351 3385.4336 1809.416 C 3333.2208 1808.3996 3290.6995 1804.0776 3261.9961 1791.8047 C 3247.9839 1785.8134 3236.9681 1777.9059 3230.2578 1770.4707 C 3223.9179 1763.4459 3220.53 1755.26 3219.9141 1750.9355 C 3219.2324 1746.1494 3220.8654 1735.8242 3226.1387 1727.1328 C 3231.827 1717.7574 3242.753 1707.1169 3257.1309 1699.0859 C 3285.0299 1683.5025 3327.9369 1676.5718 3379.3867 1676.2461 z "
       transform="translate(0,-1048)"
       id="path4181-6" />
  </g>
</svg>
