<?xml version="1.0" encoding="UTF-8" standalone="no"?>
<!-- Created with Inkscape (http://www.inkscape.org/) -->

<svg
   xmlns:dc="http://purl.org/dc/elements/1.1/"
   xmlns:cc="http://creativecommons.org/ns#"
   xmlns:rdf="http://www.w3.org/1999/02/22-rdf-syntax-ns#"
   xmlns:svg="http://www.w3.org/2000/svg"
   xmlns="http://www.w3.org/2000/svg"
   xmlns:sodipodi="http://sodipodi.sourceforge.net/DTD/sodipodi-0.dtd"
   xmlns:inkscape="http://www.inkscape.org/namespaces/inkscape"
   width="2000"
   height="2048"
   id="svg2992"
   version="1.1"
   inkscape:version="0.91 r13725"
   sodipodi:docname="ജ്ജ.svg">
  <defs
     id="defs5498">
    <inkscape:path-effect
       is_visible="true"
       id="path-effect4142"
       effect="spiro" />
    <inkscape:path-effect
       is_visible="true"
       id="path-effect4142-0"
       effect="spiro" />
    <inkscape:path-effect
       is_visible="true"
       id="path-effect4142-0-1"
       effect="spiro" />
    <inkscape:path-effect
       is_visible="true"
       id="path-effect4142-0-1-0"
       effect="spiro" />
    <inkscape:path-effect
       is_visible="true"
       id="path-effect4142-0-1-0-4"
       effect="spiro" />
    <inkscape:path-effect
       is_visible="true"
       id="path-effect4142-0-1-0-3"
       effect="spiro" />
    <inkscape:path-effect
       is_visible="true"
       id="path-effect4142-0-1-0-4-7"
       effect="spiro" />
    <inkscape:path-effect
       is_visible="true"
       id="path-effect4142-0-1-0-3-2"
       effect="spiro" />
    <inkscape:path-effect
       is_visible="true"
       id="path-effect4142-0-1-0-4-7-1"
       effect="spiro" />
    <inkscape:path-effect
       is_visible="true"
       id="path-effect4142-0-1-0-3-2-9"
       effect="spiro" />
    <inkscape:path-effect
       is_visible="true"
       id="path-effect4142-0-1-0-4-7-1-7"
       effect="spiro" />
    <inkscape:path-effect
       is_visible="true"
       id="path-effect4142-0-1-0-4-7-10"
       effect="spiro" />
    <inkscape:path-effect
       is_visible="true"
       id="path-effect4142-0-1-0-3-21"
       effect="spiro" />
    <inkscape:path-effect
       is_visible="true"
       id="path-effect4142-0-1-0-3-5"
       effect="spiro" />
    <inkscape:path-effect
       is_visible="true"
       id="path-effect4142-0-1-0-4-7-17"
       effect="spiro" />
    <inkscape:path-effect
       is_visible="true"
       id="path-effect4142-0-1-0-3-3"
       effect="spiro" />
    <inkscape:path-effect
       is_visible="true"
       id="path-effect4142-0-1-0-4-7-3"
       effect="spiro" />
  </defs>
  <sodipodi:namedview
     inkscape:window-height="845"
     inkscape:window-width="1600"
     inkscape:pageshadow="2"
     inkscape:pageopacity="0.0"
     borderopacity="1.0"
     bordercolor="#666666"
     pagecolor="#ffffff"
     id="base"
     showgrid="true"
     showguides="true"
     inkscape:guide-bbox="true"
     inkscape:zoom="0.227"
     inkscape:cx="1502.4482"
     inkscape:cy="-88.837279"
     inkscape:window-x="0"
     inkscape:window-y="26"
     inkscape:current-layer="layer1-1"
     inkscape:window-maximized="1">
    <sodipodi:guide
       orientation="horizontal"
       position="0,600"
       id="guide5596" />
    <inkscape:grid
       type="xygrid"
       id="grid3769"
       empspacing="3"
       visible="true"
       enabled="true"
       snapvisiblegridlinesonly="true"
       spacingx="4px"
       units="px"
       dotted="true"
       spacingy="4px" />
    <sodipodi:guide
       orientation="0,1"
       position="-1040,1600"
       id="guide2985" />
    <sodipodi:guide
       position="4608,1710"
       orientation="0,1"
       id="guide4178"
       inkscape:label=""
       inkscape:color="rgb(0,0,255)" />
  </sodipodi:namedview>
  <metadata
     id="metadata5594">
    <rdf:RDF>
      <cc:Work
         rdf:about="">
        <dc:format>image/svg+xml</dc:format>
        <dc:type
           rdf:resource="http://purl.org/dc/dcmitype/StillImage" />
        <dc:title />
      </cc:Work>
    </rdf:RDF>
  </metadata>
  <g
     inkscape:label="Layer 1"
     inkscape:groupmode="layer"
     id="layer1"
     transform="translate(0,1048)">
    <g
       id="layer1-1"
       inkscape:label="Layer 1"
       transform="translate(831.48619,-308.93417)">
      <path
         sodipodi:nodetypes="caaaaasccaaaaaac"
         inkscape:connector-curvature="0"
         inkscape:original-d="m -624.89797,-18.007316 c 18.28906,20.1759626 145.45262,-69.912137 212.60023,-43.087288 69.24963,27.664583 125.0506,108.775203 128.28667,183.275994 2.41192,55.5272 -29.9659,129.11934 -83.4104,144.3762 -99.85781,28.50652 -265.17237,-43.42663 -274.7709,-146.8291 -16.55485,-178.341079 240.58679,-349.52281 419.1942,-336.1438 115.50357,8.65207 232.604692,158.302895 235.678192,255.341295 l 4.0704,191.657305 -5.2728,-189.857905 C 24.130122,-135.72701 210.7671,-230.19562 352.06943,-215.48271 c 117.88203,12.2743 261.67076,152.447813 234.0111,267.694395 -82.07405,341.969255 -661.457173,242.035985 -979.2553,392.646305 -92.65048,43.90875 -265.4119,46.03516 -269.3703,148.4872 -4.15534,107.54918 163.54547,160.72351 269.9019,177.2281 330.573016,51.29895 710.16209,-55.63013 966.3899,-270.7055 C 706.07411,388.79335 797.93269,32.563531 797.93269,32.563531"
         inkscape:path-effect="#path-effect4142-0-1-0-3"
         id="path4140-7-4-0-7"
         d="m -624.89797,-18.007316 c 27.75459,-26.059502 62.86305,-44.200773 100.17565,-51.762847 37.31259,-7.562075 76.71392,-4.52156 112.42458,8.675559 37.32163,13.792465 70.55679,38.744138 93.58523,71.191441 23.02843,32.447304 35.643,72.307051 34.70144,112.084553 -0.68693,29.02035 -8.52826,57.8893 -22.94198,83.08647 -14.41373,25.19717 -35.40251,46.64894 -60.46842,61.28973 -26.29181,15.35683 -56.88258,23.10398 -87.32815,22.70509 -30.44556,-0.39888 -60.6768,-8.87772 -87.18769,-23.85317 -53.02179,-29.95091 -89.57133,-85.72917 -100.25506,-145.68102 -9.08436,-50.976979 -0.34076,-104.548875 22.06107,-151.232232 22.40183,-46.683358 58.08315,-86.518538 100.50135,-116.214908 84.8364,-59.39275 193.41047,-77.06761 296.63178,-68.69666 32.72364,2.65379 65.47781,7.86698 96.28534,19.21491 30.807524,11.34794 59.483646,29.06264 81.966724,52.98732 22.483079,23.92469 38.3106025,53.786743 46.8770045,85.480531 8.5664025,31.693787 9.8520175,64.834862 10.5491235,97.658534 l 4.0704,191.657305 -5.2728,-189.857905 C 18.501292,-39.0494 60.718315,-115.08652 124.71603,-163.2284 c 63.99771,-48.14189 148.75856,-67.6231 227.3534,-52.25431 62.54032,12.22942 120.61171,45.97108 162.46602,94.02383 41.85432,48.052745 67.28471,110.088337 71.54508,173.670565 3.36149,50.167255 -6.22024,100.939405 -25.97702,147.174925 -19.75678,46.23552 -49.54792,87.95726 -85.61211,122.99193 -72.12838,70.06933 -167.94018,112.36368 -266.43812,132.62125 -196.995888,40.51514 -400.24838,-2.65662 -601.22805,-10.1418 -57.0134,-2.12338 -115.87714,-1.01285 -168.40113,21.2642 -26.26199,11.13852 -50.52924,27.61074 -68.85709,49.4705 -18.32784,21.85976 -30.4779,49.27288 -32.11208,77.7525 -1.72378,30.04119 8.33292,60.19213 25.68635,84.77471 17.35343,24.58257 41.68861,43.77919 68.53161,57.37688 53.68602,27.1954 115.5744,32.14044 175.68394,35.07651 172.02608,8.40267 346.096477,4.17631 513.80994,-35.01262 C 288.88024,696.37174 450.76664,620.44754 573.74673,499.86779 699.63337,376.43821 780.44255,207.99558 797.93269,32.563531"
         style="fill:none;fill-rule:evenodd;stroke:#000000;stroke-width:140;stroke-linecap:round;stroke-linejoin:round;stroke-miterlimit:4;stroke-dasharray:none;stroke-opacity:1" />
      <path
         sodipodi:nodetypes="caaaacccaaaaaaaaac"
         inkscape:connector-curvature="0"
         inkscape:original-d="m 817.79802,-21.275989 c 34.1539,37.6775 302.72218,23.4039996 340.88698,140.188599 16.5527,50.6512 -32.1548,121.80289 -83.4105,136.3763 -98.70496,28.06453 -266.36273,-36.55706 -274.77088,-138.8292 -15.54291,-189.055469 271.23768,-361.75344 459.19428,-336.1437 130.9895,17.84777 254.0087,120.757128 245.6782,311.341202 l -3.9296,135.657398 1.9431,-135.857998 c 14.3401,-168.522442 180.26,-317.771462 331.3759,-310.208002 118.3711,5.92456 234.8906,149.178259 234.0111,267.694302 -1.1822,159.301478 -175.693,287.302808 -319.848,355.109118 -199.0715,93.63737 -449.2614,-37.54738 -659.4075,27.53728 -101.1669,31.33255 -270.45432,62.58491 -269.37018,168.4872 1.07277,104.79139 165.12517,159.16696 269.90178,161.2281 220.3927,4.33551 365.5487,-268.23136 580.6242,-316.5457 123.757,-27.80066 341.2937,-99.07064 379.9013,21.7521 33.0284,103.36236 -165.493,266.41153 -253.9903,203.6192 -88.6571,-62.9057 108.5013,-307.5424 108.5013,-307.5424"
         inkscape:path-effect="#path-effect4142-0-1-0-4-7"
         id="path4140-7-4-0-3-9"
         d="m 817.79802,-21.275989 c 25.98815,-31.560676 62.26863,-54.504581 101.92247,-64.456122 39.65384,-9.951541 82.46881,-6.857463 120.27981,8.692166 37.8109,15.54963 70.4156,43.4716 91.5958,78.4409598 21.1803,34.9693592 30.8229,76.7989772 27.0889,117.5115952 -2.526,27.54137 -11.0926,54.57266 -25.366,78.26181 -14.2735,23.68915 -34.2748,43.97558 -58.0445,58.11449 -25.7286,15.30415 -55.6861,23.26332 -85.62229,23.33098 -29.93619,0.0677 -59.78627,-7.69396 -86.18009,-21.82007 C 850.68449,228.54761 813.2224,174.96573 800.50362,116.45971 788.59566,61.683421 797.49996,3.1575494 822.32069,-47.103495 c 24.82073,-50.261045 65.02997,-92.301215 112.47046,-122.161585 94.88095,-59.72073 214.43995,-69.55153 324.90675,-50.41891 36.6246,6.3433 72.9643,15.80925 106.4835,31.87344 33.5193,16.06419 63.9936,38.94155 87.1698,68.00118 23.1762,29.059619 38.606,63.981244 46.088,100.390293 7.4819,36.40905 7.0132,73.92202 5.9369,111.076289 l -3.9296,135.657398 1.9431,-135.857998 c -8.7683,-87.0070221 25.1158,-177.309634 88.9561,-237.071862 63.8403,-59.76224 156.18,-87.62039 242.4198,-73.13614 63.3757,10.64414 122.8808,43.48329 165.2998,91.75751 42.4191,48.27422 67.3646,111.687557 68.7113,175.936792 1.7963,85.696678 -38.0415,169.236368 -98.2415,230.253658 -60.2,61.01729 -139.2904,100.95561 -221.6065,124.85546 -212.1088,61.58416 -438.6397,20.88074 -659.4075,27.53728 -58.4564,1.76256 -118.45238,7.33055 -170.80871,33.38963 -26.17816,13.02955 -50.05977,31.18819 -67.88754,54.36653 -17.82778,23.17835 -29.38746,51.51785 -30.67393,80.73104 -1.32333,30.05039 8.30541,60.17828 25.29007,85.00364 16.98467,24.82535 41.07351,44.43712 68.02786,57.78777 53.90871,26.7013 117.21725,28.16872 176.58385,18.43669 109.609,-17.96832 210.2441,-71.37573 303.2088,-132.15864 92.9647,-60.78291 180.6879,-129.7904 277.4154,-184.38706 61.3318,-34.61799 128.1259,-63.76921 198.5195,-65.9458 35.1967,-1.0883 70.8615,4.7827 102.9102,19.37306 32.0487,14.59036 60.3362,38.14029 78.4716,68.32484 19.9213,33.15701 26.9275,73.78773 19.5942,111.76756 -7.3332,37.97983 -28.8707,72.98716 -59.2559,96.92427 -30.3852,23.9371 -69.3344,36.66751 -108.002,35.63816 -38.6676,-1.02935 -76.7798,-15.74625 -106.3266,-40.71079 -26.828,-22.66739 -46.5487,-53.62793 -55.7491,-87.52348 -9.2004,-33.89554 -7.8403,-70.57811 3.8449,-103.69927 11.6852,-33.12116 33.6444,-62.53632 62.0774,-83.15477 28.433,-20.61846 63.2155,-32.3502 98.3281,-33.16488"
         style="fill:none;fill-rule:evenodd;stroke:#000000;stroke-width:139.69628906;stroke-linecap:round;stroke-linejoin:round;stroke-miterlimit:4;stroke-dasharray:none;stroke-opacity:1" />
      <path
         sodipodi:nodetypes="caascscccaasasc"
         inkscape:connector-curvature="0"
         inkscape:original-d="m -3876.8186,-67.215038 c 35.6041,39.353417 314.0557,24.95362 355.3621,146.423982 18.6858,54.949866 -31.2384,134.862346 -86.9523,150.797726 -104.0981,29.77452 -264.4178,-96.17248 -286.4386,-153.359726 -55.3241,-143.673871 283.8457,-366.001634 478.6931,-351.094744 101.1034,11.00567 242.4819,165.34388 245.6859,266.6983261 l 4.2433,200.1817939 -5.4967,-198.3023609 c 13.1897,-184.3006191 265.1002,-335.9367591 355.0545,-261.3368091 65.3864,60.73523 274.7232,155.06151 243.948,273.3339951 -90.7758,348.8598649 -691.9131,205.4509749 -1020.8379,351.6195849 -97.7034,43.41779 -346.195,63.98878 -280.8086,155.09158 65.3863,91.1028 173.5744,150.57265 281.3628,168.39917 324.8355,53.72292 733.9093,-168.71042 965.7276,-207.54348 148.7353,-24.91539 210.4585,-380.721556 210.4585,-380.721556"
         inkscape:path-effect="#path-effect4142-0-1-0-3-2"
         id="path4140-7-4-0-7-2"
         d="m -3876.8186,-67.215038 c 27.9809,-30.974806 65.6853,-53.035592 106.3966,-62.252642 40.7114,-9.21704 84.2411,-5.5476 122.835,10.35469 38.5938,15.90229 72.073,43.963672 94.4737,79.185529 22.4007,35.2218575 33.6191,77.440836 31.6568,119.136405 -1.4206,30.185356 -9.6851,60.107936 -24.5762,86.402996 -14.891,26.29507 -36.4424,48.88293 -62.3761,64.39473 -27.3346,16.34968 -59.3093,24.67128 -91.1589,24.36605 -31.8496,-0.30523 -63.4982,-9.16397 -91.2041,-24.87633 -55.4116,-31.42472 -93.3441,-90.05777 -104.0756,-152.849446 -9.6719,-56.591697 1.7333,-115.99194 28.6264,-166.715965 26.8931,-50.724029 68.755,-92.869599 117.4959,-123.209119 97.4819,-60.67904 218.3848,-73.26134 332.5708,-61.16966 33.9835,3.59867 67.979,9.35728 100.0093,21.26897 32.0304,11.91168 61.9224,30.22802 85.4347,55.02719 23.5124,24.79917 40.1451,55.8042 49.1541,88.76884 9.0089,32.964643 10.3636,67.467491 11.0878,101.6333261 l 4.2433,200.1817939 -5.4967,-198.3023609 c 9.8298,-81.7377601 54.6958,-158.6667691 120.9986,-207.4687191 66.3028,-48.80195 153.0903,-68.77613 234.0559,-53.86809 64.7016,11.91338 125.239,45.65992 169.1332,94.66524 43.8942,49.00532 70.8205,113.000869 74.8148,178.6687551 3.1437,51.6846089 -7.68,103.9149949 -29.3131,150.9595449 -21.6332,47.04456 -53.9077,88.93296 -92.5738,123.37305 -77.332,68.88018 -178.5579,106.901 -281.0716,121.58647 -205.0275,29.37092 -411.309,-29.21384 -617.8794,-44.29948 -60.1359,-4.39167 -122.6186,-4.70945 -178.1679,18.74031 -27.7747,11.72489 -53.3223,29.4479 -72.1151,53.02197 -18.7927,23.57406 -30.528,53.18127 -30.5256,83.3293 0,30.36907 11.9001,60.15067 30.7646,83.95007 18.8645,23.7994 44.3893,41.83112 72.0917,54.27535 55.4047,24.88847 117.8191,27.69095 178.5065,30.17375 168.8876,6.90941 338.9862,14.29864 506.1688,-10.61615 167.1826,-24.91479 333.286,-84.5621 459.5588,-196.92733 110.4252,-98.26304 185.9824,-234.94685 210.4585,-380.721556"
         style="fill:none;fill-rule:evenodd;stroke:#000000;stroke-width:70;stroke-linecap:round;stroke-linejoin:round;stroke-miterlimit:4;stroke-dasharray:none;stroke-opacity:1" />
      <path
         sodipodi:nodetypes="caascscccsssssssc"
         inkscape:connector-curvature="0"
         inkscape:original-d="m -2397.0074,-67.693513 c 35.6041,39.353312 314.0557,24.953515 355.3621,146.423877 18.6858,54.949866 -31.2384,134.862346 -86.9523,150.797836 -104.0981,29.77441 -264.4178,-96.17249 -286.4386,-153.359836 -55.324,-143.673871 283.8457,-366.001634 478.6931,-351.094634 101.1034,11.00566 242.4819,165.34377 245.6859,266.6982161 l 4.2433,200.1818939 -5.4967,-198.3024599 c 13.1897,-184.3006201 265.1002,-335.9367601 355.0544,-261.3367101 65.3865,60.73514 276.6412,151.86353 243.9481,273.3338951 -32.6932,121.4703649 -824.6788,290.8845549 -1020.8379,351.6196849 -196.1589,60.73524 -346.195,63.98879 -280.8086,155.09159 65.3863,91.1028 150.5902,259.50196 281.3628,168.39917 79.6616,-55.49624 373.461,-220.76741 605.2793,-259.60047 148.7354,-24.91539 344.9221,-48.49354 396.0332,22.71959 130.77261,182.2056 94.8493,303.77831 -264.7756,212.67573 -359.6248,-91.1028 113.1086,-321.22121 113.1086,-321.22121"
         inkscape:path-effect="#path-effect4142-0-1-0-4-7-1"
         id="path4140-7-4-0-3-9-2"
         d="m -2397.0074,-67.693513 c 27.9809,-30.974796 65.6852,-53.035577 106.3966,-62.252617 40.7114,-9.21705 84.241,-5.54762 122.8349,10.35466 38.5939,15.90228 72.073,43.963637 94.4737,79.185476 22.4008,35.2218383 33.6192,77.440799 31.6569,119.136358 -1.4206,30.185376 -9.6851,60.107976 -24.5761,86.403066 -14.8911,26.29508 -36.4425,48.88297 -62.3762,64.39477 -27.3346,16.34968 -59.3094,24.67129 -91.159,24.36605 -31.8496,-0.30524 -63.4982,-9.16399 -91.204,-24.87636 -55.4116,-31.42474 -93.3441,-90.05783 -104.0756,-152.849526 -9.6719,-56.591689 1.7333,-115.99191 28.6265,-166.715913 26.8931,-50.724001 68.755,-92.869551 117.4959,-123.209061 97.4819,-60.679 218.3847,-73.2613 332.5707,-61.16966 33.9835,3.59866 67.979,9.35726 100.0093,21.26893 32.0303,11.91168 61.9224,30.228 85.4347,55.02716 23.5124,24.79916 40.1451,55.80418 49.1541,88.76882 9.0089,32.964634 10.3636,67.467477 11.0878,101.6333061 l 4.2433,200.1818939 -5.4967,-198.3024599 c 9.9963,-81.6676991 54.8993,-158.4736901 121.1622,-207.2463001 66.2629,-48.7726 152.944,-68.81864 233.8922,-54.09041 64.7802,11.78652 125.4627,45.42161 169.4267,94.43754 43.964,49.01593 70.8601,113.154483 74.5214,178.8963551 2.8689,51.5146229 -8.2864,103.4987849 -30.2194,150.1992349 -21.9329,46.70045 -54.4716,88.15049 -93.3095,122.11527 -77.6757,67.92955 -178.8365,104.87782 -281.06,118.96034 -204.4468,28.16502 -410.1069,-29.79364 -616.249,-39.65516 -59.4012,-2.84166 -120.8096,-1.30703 -175.4191,22.23831 -27.3047,11.77267 -52.4867,29.07835 -71.5558,51.89313 -19.0691,22.81478 -31.7944,51.29561 -33.8337,80.96015 -2.1518,31.30175 7.7107,62.92875 25.4817,88.7865 17.7709,25.85774 43.1404,46.06922 71.3967,59.70768 56.5128,27.27691 122.287,28.22417 184.4844,19.90499 218.8181,-29.26791 407.2632,-161.99093 605.2793,-259.60047 65.1778,-32.12857 134.0666,-61.15888 206.6795,-63.94319 36.3065,-1.39215 73.1475,3.99912 106.5512,18.29206 33.4037,14.29294 63.2375,37.75521 82.8025,68.37072 21.9822,34.3981 30.2059,77.24438 22.9385,117.41443 -7.2673,40.17005 -29.8645,77.29822 -61.9439,102.54416 -32.0795,25.24595 -73.3167,38.46666 -114.1128,37.00737 -40.796,-1.45929 -80.8518,-17.50474 -111.6574,-44.29023 -27.4956,-23.90745 -47.5955,-56.20522 -56.9013,-91.43273 -9.3058,-35.2275 -7.7788,-73.23827 4.3227,-107.60582 12.1015,-34.36755 34.7273,-64.94897 64.052,-86.57388 29.3247,-21.62491 65.2264,-34.20338 101.6352,-35.60878"
         style="fill:none;fill-rule:evenodd;stroke:#000000;stroke-width:70;stroke-linecap:round;stroke-linejoin:round;stroke-miterlimit:4;stroke-dasharray:none;stroke-opacity:1" />
      <path
         style="color:#000000;font-style:normal;font-variant:normal;font-weight:normal;font-stretch:normal;font-size:medium;line-height:normal;font-family:sans-serif;text-indent:0;text-align:start;text-decoration:none;text-decoration-line:none;text-decoration-style:solid;text-decoration-color:#000000;letter-spacing:normal;word-spacing:normal;text-transform:none;direction:ltr;block-progression:tb;writing-mode:lr-tb;baseline-shift:baseline;text-anchor:start;white-space:normal;clip-rule:nonzero;display:inline;overflow:visible;visibility:visible;opacity:1;isolation:auto;mix-blend-mode:normal;color-interpolation:sRGB;color-interpolation-filters:linearRGB;solid-color:#000000;solid-opacity:1;fill:#000000;fill-opacity:1;fill-rule:evenodd;stroke:none;stroke-width:70;stroke-linecap:round;stroke-linejoin:round;stroke-miterlimit:4;stroke-dasharray:none;stroke-dashoffset:0;stroke-opacity:1;color-rendering:auto;image-rendering:auto;shape-rendering:auto;text-rendering:auto;enable-background:accumulate"
         d="M -1419.6406 2297.5859 C -1423.4511 2297.5778 -1427.2635 2297.6002 -1431.0781 2297.6543 L -1431.0801 2297.6562 C -1522.6302 2298.9551 -1615.082 2318.4358 -1695.0781 2368.2305 C -1748.5315 2401.5033 -1794.8242 2447.8422 -1825 2504.7578 C -1829.2117 2512.7015 -1833.0028 2520.8713 -1836.5293 2529.1602 A 35.0035 35.0035 0 0 0 -1838.2852 2533.6523 C -1858.5679 2583.4246 -1866.3814 2638.5185 -1857.3965 2692.5645 A 35.0035 35.0035 0 0 0 -1858.998 2698.877 C -1882.118 2836.5751 -1953.8999 2966.4292 -2058.207 3059.248 C -2177.6878 3165.5694 -2337.1858 3223.4925 -2499.6562 3247.7051 C -2662.4176 3271.961 -2830.2894 3264.8786 -2999.2363 3257.9668 C -3059.8281 3255.4879 -3117.4938 3252.1028 -3164.832 3230.8379 C -3188.3368 3220.2793 -3209.1724 3205.2475 -3223.8359 3186.748 C -3238.322 3168.4723 -3247.0293 3145.765 -3247.0293 3124.5391 C -3247.0293 3103.4756 -3238.4526 3080.9877 -3224.1367 3063.0293 C -3209.6517 3044.8591 -3188.9943 3030.2345 -3165.7773 3020.4336 C -3118.9957 3000.6851 -3062.2712 3000.085 -3003.7695 3004.3574 C -2802.0759 3019.0868 -2593.1357 3079.1591 -2378.3789 3048.3945 C -2270.6725 3032.9651 -2162.8732 2993.0139 -2078.9902 2918.2988 C -2037.0221 2880.9175 -2001.7554 2835.2968 -1977.8965 2783.4121 C -1954.0066 2731.4597 -1941.9212 2673.6755 -1945.4473 2615.7051 C -1949.9367 2541.898 -1979.8753 2470.7952 -2029.127 2415.8086 C -2078.3639 2360.8386 -2145.5399 2323.415 -2217.9941 2310.0742 C -2308.8158 2293.3514 -2404.7608 2315.433 -2479.1348 2370.1758 C -2513.7345 2395.6428 -2542.8819 2427.7243 -2565.3691 2463.9258 C -2576.4642 2436.6922 -2592.336 2411.2389 -2612.9746 2389.4707 C -2640.7572 2360.1677 -2675.2602 2339.2365 -2711.6094 2325.7188 C -2747.7689 2312.2714 -2784.6918 2306.2022 -2820.1328 2302.4492 C -2849.9547 2299.2912 -2880.37 2297.7037 -2910.8867 2298.1367 L -2910.8906 2298.1348 C -3002.4406 2299.4335 -3094.8927 2318.9142 -3174.8887 2368.709 C -3228.3422 2401.9818 -3274.6367 2448.3206 -3304.8125 2505.2363 C -3309.0262 2513.1839 -3312.8198 2521.3574 -3316.3477 2529.6504 A 35.0035 35.0035 0 0 0 -3318.0938 2534.123 C -3338.5292 2584.2659 -3346.3185 2639.8111 -3337.0156 2694.2441 C -3324.5863 2766.9694 -3281.4049 2834.3833 -3215.7051 2871.6426 C -3182.9609 2890.2124 -3145.6869 2900.707 -3107.5703 2901.0723 C -3069.4006 2901.4381 -3031.2749 2891.5804 -2998.1113 2871.7441 C -2966.6628 2852.9338 -2941.0354 2825.977 -2923.2441 2794.5605 C -2905.4789 2763.1903 -2895.8313 2728.0224 -2894.1621 2692.5547 C -2891.8532 2643.4937 -2904.8903 2594.4339 -2931.248 2552.9902 C -2957.6057 2511.5467 -2996.5105 2478.9379 -3041.9219 2460.2266 C -3079.5024 2444.7419 -3120.6101 2439.3171 -3160.8242 2443.9961 C -3153.3914 2438.4231 -3145.7958 2433.0537 -3137.8965 2428.1367 C -3049.5942 2373.1715 -2936.5925 2360.5071 -2827.5078 2372.0586 C -2794.9819 2375.5029 -2763.9128 2380.9501 -2736.0117 2391.3262 C -2708.3002 2401.6317 -2683.0193 2417.3357 -2663.7773 2437.6309 C -2644.6161 2457.8407 -2630.5785 2483.7641 -2622.9863 2511.5449 C -2616.005 2537.0901 -2614.1956 2565.8813 -2613.3828 2596.5098 C -2613.6171 2598.2273 -2613.9316 2599.9299 -2614.1387 2601.6523 A 35.0035 35.0035 0 0 0 -2614.377 2606.8008 L -2608.8848 2804.875 L -2608.875 2805.1035 A 35.0035 35.0035 0 0 0 -2538.8965 2803.3906 L -2543.1406 2603.209 C -2543.1596 2602.3026 -2543.2007 2601.3478 -2543.2207 2600.4375 C -2532.3146 2532.1473 -2493.2761 2467.4992 -2437.6406 2426.5488 C -2379.4089 2383.6876 -2301.7794 2365.8228 -2230.6699 2378.916 C -2173.7209 2389.4019 -2119.8211 2419.4711 -2081.2695 2462.5117 C -2042.7327 2505.5357 -2018.8176 2562.4244 -2015.3184 2619.9531 C -2012.5569 2665.3519 -2022.1198 2712.0272 -2041.4961 2754.1641 C -2060.9035 2796.3683 -2090.1848 2834.5264 -2125.5488 2866.0254 C -2196.3299 2929.0706 -2290.9837 2965.1599 -2388.3047 2979.1016 C -2583.6029 3007.0787 -2787.2247 2949.9828 -2998.6719 2934.541 C -3060.442 2930.03 -3128.683 2928.7924 -3193 2955.9434 C -3225.3324 2969.5923 -3255.7723 2990.4146 -3278.873 3019.3926 C -3302.1424 3048.5824 -3317.0325 3085.3085 -3317.0293 3124.541 C -3317.0288 3164.0525 -3301.9358 3200.9079 -3278.6934 3230.2305 C -3255.6279 3259.3298 -3225.4155 3280.3616 -3193.5156 3294.6914 C -3130.0443 3323.2035 -3062.8806 3325.4215 -3002.0977 3327.9082 C -2833.2694 3334.8152 -2660.9435 3342.5132 -2489.3398 3316.9395 C -2317.445 3291.3225 -2144.7366 3229.9501 -2011.6719 3111.541 C -1918.6729 3028.7848 -1849.3713 2920.6803 -1812.0391 2802.2031 C -1792.0638 2830.0345 -1766.4136 2853.8562 -1735.8945 2871.1641 C -1703.1502 2889.7338 -1665.8762 2900.2285 -1627.7598 2900.5938 C -1589.5901 2900.9596 -1551.4624 2891.1018 -1518.2988 2871.2656 C -1486.8503 2852.4553 -1461.225 2825.4985 -1443.4336 2794.082 C -1425.6685 2762.7118 -1416.0208 2727.5439 -1414.3516 2692.0762 C -1412.0427 2643.0152 -1425.0799 2593.9554 -1451.4375 2552.5117 C -1477.7953 2511.0682 -1516.698 2478.4594 -1562.1094 2459.748 C -1599.6901 2444.2633 -1640.7993 2438.8384 -1681.0137 2443.5176 C -1673.5809 2437.9445 -1665.9852 2432.5752 -1658.0859 2427.6582 C -1569.7834 2372.6931 -1456.782 2360.0287 -1347.6973 2371.5801 C -1315.1713 2375.0244 -1284.1023 2380.4717 -1256.2012 2390.8477 C -1228.4896 2401.1534 -1203.2088 2416.8572 -1183.9668 2437.1523 C -1164.8057 2457.362 -1150.766 2483.2857 -1143.1738 2511.0664 C -1136.1889 2536.6247 -1134.3825 2565.432 -1133.5703 2596.0781 C -1133.8021 2597.7555 -1134.1125 2599.4175 -1134.3184 2601.0996 A 35.0035 35.0035 0 0 0 -1134.5645 2606.3223 L -1129.0742 2804.3965 L -1129.0645 2804.625 A 35.0035 35.0035 0 0 0 -1059.0859 2802.9121 L -1063.3281 2602.7305 C -1063.3461 2601.8643 -1063.3873 2600.9517 -1063.4062 2600.082 C -1052.3765 2531.8182 -1013.2951 2467.24 -957.66406 2426.293 C -899.44956 2383.4444 -821.90126 2365.5099 -750.78516 2378.4492 C -693.75516 2388.8256 -639.73754 2418.7989 -601.14844 2461.8223 C -562.57994 2504.8226 -538.71998 2561.7929 -535.51758 2619.2949 C -533.00148 2664.475 -542.845 2710.8823 -562.4707 2752.6699 C -582.1291 2794.5272 -611.63252 2832.2656 -647.14062 2863.3184 C -691.67773 2902.2673 -745.45843 2930.5825 -803.30273 2949.5957 C -810.04653 2951.5263 -816.75215 2953.5486 -823.37695 2955.7441 C -851.62285 2963.872 -880.6591 2969.9177 -909.9375 2973.9512 C -1104.81 3000.7972 -1308.1682 2944.1309 -1519.7383 2934.0098 C -1580.8903 2931.0843 -1647.8238 2931.9651 -1710.6855 2959.0684 C -1742.257 2972.6808 -1772.0327 2992.8882 -1795.2402 3020.6543 C -1818.5876 3048.5876 -1834.5192 3083.586 -1837.1367 3121.6602 C -1839.9009 3161.8712 -1827.4747 3200.8168 -1805.582 3232.6719 C -1783.8263 3264.3272 -1753.6155 3288.1167 -1720.5547 3304.0742 C -1654.7533 3335.8344 -1581.972 3335.9437 -1516.2148 3327.1484 C -1286.2326 3296.3872 -1094.7308 3160.19 -900.10156 3064.25 C -888.82616 3058.692 -877.5274 3053.3909 -866.2207 3048.2539 C -867.4772 3051.3543 -868.79676 3054.4277 -869.91016 3057.5898 C -884.39046 3098.7132 -886.19369 3143.6074 -875.05859 3185.7598 C -863.92349 3227.9122 -840.18566 3266.0571 -807.28516 3294.6641 C -770.36576 3326.7656 -723.05186 3345.7638 -673.91406 3347.5215 C -624.72896 3349.2809 -575.77425 3333.6275 -536.90625 3303.0391 C -497.99875 3272.4196 -471.02342 3228.182 -462.16602 3179.2227 C -453.29902 3130.2109 -463.10203 3078.9035 -490.05273 3036.7305 C -513.94213 2999.3482 -549.36978 2971.8047 -588.58008 2955.0273 C -602.81758 2948.9352 -617.44887 2944.3097 -632.25977 2940.9219 C -621.55977 2933.0927 -611.1337 2924.8153 -601.0625 2916.0078 C -558.8947 2879.1309 -523.32088 2833.9696 -499.11328 2782.4258 C -474.87298 2730.8126 -462.40721 2673.2496 -465.62891 2615.4004 C -469.74911 2541.4187 -499.68132 2470.1136 -549.04102 2415.082 C -598.37992 2360.0736 -665.72741 2322.7747 -738.25781 2309.5781 C -829.03811 2293.061 -924.85081 2315.2194 -999.16211 2369.916 C -1033.7735 2395.3916 -1062.9413 2427.4743 -1085.457 2463.6777 C -1096.5564 2436.355 -1112.4676 2410.8194 -1133.166 2388.9883 C -1160.9486 2359.6851 -1195.4518 2338.754 -1231.8008 2325.2363 C -1267.9602 2311.7891 -1304.8832 2305.7199 -1340.3242 2301.9668 C -1366.4183 2299.2036 -1392.9674 2297.643 -1419.6406 2297.5859 z M -1651.9961 2511.8184 C -1630.3333 2512.0172 -1608.6376 2516.2875 -1588.7773 2524.4707 C -1557.0008 2537.5639 -1528.9478 2561.078 -1510.5039 2590.0781 C -1492.0602 2619.0783 -1482.6598 2654.4549 -1484.2754 2688.7852 C -1485.4474 2713.6882 -1492.3289 2738.3681 -1504.3457 2759.5879 C -1516.3366 2780.7616 -1533.8134 2798.9782 -1554.2324 2811.1914 C -1575.7379 2824.0546 -1601.5603 2830.8424 -1627.0898 2830.5977 C -1652.6725 2830.3525 -1678.696 2823.1284 -1701.3633 2810.2734 C -1746.4868 2784.6833 -1779.1713 2734.8309 -1788.2051 2681.9727 C -1794.8697 2642.977 -1789.5429 2601.4701 -1774.8105 2563.4902 C -1752.1596 2540.088 -1722.2639 2523.0704 -1690.5508 2515.8906 C -1677.9809 2513.0448 -1664.9938 2511.699 -1651.9961 2511.8184 z M -3131.8086 2512.2969 C -3110.1464 2512.4957 -3088.4496 2516.7664 -3068.5898 2524.9492 C -3036.8133 2538.0424 -3008.7583 2561.5566 -2990.3145 2590.5566 C -2971.8707 2619.5568 -2962.4702 2654.9334 -2964.0859 2689.2637 C -2965.2579 2714.1667 -2972.1393 2738.8467 -2984.1562 2760.0664 C -2996.1471 2781.2402 -3013.6241 2799.4567 -3034.043 2811.6699 C -3055.5486 2824.5331 -3081.371 2831.3189 -3106.9004 2831.0742 C -3132.4831 2830.8291 -3158.5064 2823.6071 -3181.1738 2810.752 C -3226.2972 2785.1619 -3258.9818 2735.3093 -3268.0156 2682.4512 C -3274.6802 2643.4554 -3269.3535 2601.9488 -3254.6211 2563.9688 C -3231.9702 2540.5666 -3202.0744 2523.5489 -3170.3613 2516.3691 C -3157.7913 2513.5233 -3144.8063 2512.1776 -3131.8086 2512.2969 z M -1555.2773 3002.9824 C -1544.6434 3003.0674 -1533.8954 3003.4126 -1523.0859 3003.9297 C -1362.2809 3011.6223 -1196.813 3051.0779 -1027.3145 3051.3438 C -1192.7416 3139.8531 -1351.3325 3234.4738 -1525.5 3257.7695 C -1584.1376 3265.6126 -1642.9067 3263.8287 -1690.1309 3241.0352 C -1713.5823 3229.7159 -1734.1104 3213.0831 -1747.8965 3193.0234 C -1761.5458 3173.1631 -1768.8441 3148.8535 -1767.3047 3126.4609 C -1765.8435 3105.2061 -1756.324 3083.2429 -1741.5332 3065.5469 C -1726.6029 3047.6838 -1706.0138 3033.2807 -1682.9766 3023.3477 C -1648.2086 3008.3573 -1608.0821 3003.3773 -1565.8711 3002.9883 C -1562.3535 3002.9559 -1558.822 3002.9541 -1555.2773 3002.9824 z M -695.59961 3003.7168 L -695.59766 3003.7168 C -667.74596 3003.9845 -640.42074 3008.9884 -616.11914 3019.3867 C -588.52194 3031.1951 -564.28162 3050.5771 -549.04102 3074.4258 C -532.02742 3101.049 -525.38298 3135.4336 -531.05078 3166.7617 C -536.72798 3198.1426 -554.94802 3228.1609 -580.19922 3248.0332 C -605.49022 3267.9368 -639.00922 3278.7256 -671.41602 3277.5664 C -703.87042 3276.4055 -736.66757 3263.3113 -761.35938 3241.8418 C -783.45007 3222.6338 -799.91022 3196.1854 -807.38672 3167.8828 C -814.86322 3139.58 -813.61333 3108.4517 -803.89062 3080.8398 C -794.16792 3053.228 -775.63832 3028.1845 -752.07812 3010.8105 C -751.13522 3010.1152 -750.12722 3009.5045 -749.16602 3008.832 C -735.28892 3006.2572 -721.4174 3004.4219 -707.5625 3003.8906 C -703.5695 3003.7375 -699.57841 3003.6785 -695.59961 3003.7168 z "
         transform="translate(-831.48619,-739.06583)"
         id="path4140-7-4-0-7-2-1" />
      <path
         style="color:#000000;font-style:normal;font-variant:normal;font-weight:normal;font-stretch:normal;font-size:medium;line-height:normal;font-family:sans-serif;text-indent:0;text-align:start;text-decoration:none;text-decoration-line:none;text-decoration-style:solid;text-decoration-color:#000000;letter-spacing:normal;word-spacing:normal;text-transform:none;direction:ltr;block-progression:tb;writing-mode:lr-tb;baseline-shift:baseline;text-anchor:start;white-space:normal;clip-rule:nonzero;display:inline;overflow:visible;visibility:visible;opacity:1;isolation:auto;mix-blend-mode:normal;color-interpolation:sRGB;color-interpolation-filters:linearRGB;solid-color:#000000;solid-opacity:1;fill:#000000;fill-opacity:1;fill-rule:evenodd;stroke:none;stroke-width:200;stroke-linecap:round;stroke-linejoin:round;stroke-miterlimit:4;stroke-dasharray:none;stroke-dashoffset:0;stroke-opacity:1;color-rendering:auto;image-rendering:auto;shape-rendering:auto;text-rendering:auto;enable-background:accumulate"
         d="M 5536.4727 326.90625 C 5521.1071 326.86436 5505.6114 327.4168 5490.0059 328.63672 C 5418.3489 334.23831 5345.2897 354.09141 5279.4531 394.01953 C 5213.09 434.26687 5156.534 493.84264 5124.3945 569.93555 C 5103.1358 620.2671 5093.7357 675.63192 5099.0449 730.82617 A 100.01 100.01 0 0 0 5087.1699 762.83203 C 5062.9573 885.50056 4999.6498 1001.887 4909.8262 1088.8672 C 4801.7168 1193.5544 4652.4151 1260.0364 4494.4609 1295.5371 C 4335.8166 1331.1929 4166.2886 1338.0457 3991.8984 1343.459 C 3935.3693 1345.2137 3890.6378 1343.8241 3861.8594 1332.7266 C 3848.004 1327.3836 3837.503 1319.756 3831.9844 1313.291 C 3827.0534 1307.5143 3825.1104 1300.3867 3825.0918 1298.916 C 3825.0728 1297.4429 3826.8815 1290.1816 3831.7305 1284.2734 C 3837.1681 1277.6481 3847.6379 1269.7633 3861.5254 1264.166 C 3890.3887 1252.5328 3935.5117 1250.5813 3992.5488 1251.6777 C 4165.3433 1254.9994 4347.2071 1260.0062 4531.2676 1224.0332 C 4648.3656 1201.1474 4771.7234 1160.059 4874.7969 1075.3027 C 4926.5086 1032.7808 4971.8244 979.88207 5003.7617 917.00391 C 5035.8414 853.84544 5053.504 782.03364 5049.5859 707.7793 C 5044.7127 615.4247 5006.6993 527.96363 4942.8281 461.31445 C 4878.981 394.69027 4793.4172 353.12995 4701.7773 343.86133 C 4599.2529 333.49183 4496.6273 364.30621 4416.7715 429.43555 C 4408.5534 436.13811 4400.7235 443.22322 4393.1328 450.52148 C 4392.4701 449.80752 4391.8744 449.05234 4391.2031 448.34375 C 4356.4425 411.65175 4314.5334 386.56654 4271.3203 370.5918 C 4228.6489 354.81736 4187.4582 348.53734 4150.418 344.90039 C 4127.6015 342.66005 4104.2823 341.31568 4080.6855 341.11133 C 3978.4326 340.22583 3870.9847 360.75415 3776.8203 422.60742 C 3718.511 460.90876 3668.0401 514.00113 3635.7188 580.53906 C 3603.1283 647.63108 3590.8453 725.26388 3607.8008 802.11133 C 3624.2273 876.56184 3667.087 944.1706 3732.8984 988.69531 C 3799.4187 1033.6997 3882.4046 1049.9975 3962.8398 1027.7871 C 4016.3798 1013.0032 4063.0077 982.48768 4098.2305 940.99805 C 4133.3544 899.625 4155.1158 849.76794 4162.6289 797.15625 C 4171.7777 733.09036 4159.403 668.3177 4127.2812 612.13672 C 4112.015 585.43621 4092.7086 561.70944 4070.3359 541.39844 C 4090.2531 541.11904 4110.5108 541.94382 4130.875 543.94336 C 4159.0737 546.71218 4183.1583 551.23039 4201.9727 558.18555 C 4220.2452 564.94039 4235.6891 574.99647 4246.0117 585.89258 C 4256.1082 596.55012 4264.6392 611.77194 4269.2305 628.60156 C 4273.206 643.17386 4275.0413 663.77151 4275.9238 689.16797 C 4275.8428 689.92034 4275.7156 690.66276 4275.6387 691.41602 A 100.01 100.01 0 0 0 4275.1602 704.33984 L 4280.4336 894.19727 A 100.01 100.01 0 0 0 4480.373 889.29688 L 4476.3633 700.5 C 4483.8954 656.26567 4508.7418 612.50927 4543.1777 584.42383 C 4580.5233 553.96527 4633.7055 537.99824 4681.6523 542.84766 C 4724.7934 547.21103 4768.5462 568.51006 4798.4297 599.69336 C 4828.2893 630.85166 4847.6002 675.39249 4849.8652 718.31836 C 4851.7214 753.49584 4842.9914 791.88874 4825.4453 826.43359 C 4807.7568 861.25878 4780.7006 893.74338 4747.7695 920.82227 C 4681.5577 975.26755 4590.9049 1008.5947 4492.9043 1027.748 C 4337.1905 1058.1809 4169.7369 1055.0452 3996.3926 1051.7129 C 3938.3159 1050.5965 3864.6861 1047.2591 3786.7617 1078.666 C 3747.2552 1094.5888 3708.2152 1119.5167 3677.1309 1157.3906 C 3645.4582 1195.9817 3624.3974 1245.3575 3625.1074 1301.4473 A 100.01 100.01 0 0 0 3625.1074 1301.4492 C 3625.8112 1357.0476 3647.744 1405.506 3679.8672 1443.1387 C 3711.403 1480.0831 3750.5042 1504.1402 3789.9004 1519.332 C 3867.6248 1549.3041 3940.5404 1545.1501 3998.1035 1543.3633 C 4173.3085 1537.9247 4355.7119 1531.7113 4538.3184 1490.6699 C 4721.6151 1449.4735 4905.8012 1371.1672 5048.957 1232.543 C 5129.4761 1154.5727 5193.1189 1060.5111 5235.9863 957.5332 C 5253.3379 968.65458 5271.9891 978.05092 5291.7461 985.47852 C 5370.9532 1015.2563 5458.9084 1009.8821 5533.9941 968.5332 C 5594.4293 935.25213 5640.0504 882.07602 5664.5098 818.4375 C 5689.9564 752.23077 5690.6362 679.66984 5666.4336 612.99805 C 5656.3188 585.13445 5642.161 559.30876 5624.6387 536.12305 C 5632.8525 537.69511 5641.0866 539.38596 5649.3535 541.32422 C 5674.7961 547.28951 5696.3466 554.2122 5713.0293 562.57812 C 5729.2907 570.7328 5742.7053 581.29631 5751.707 592.21484 A 100.01 100.01 0 0 0 5751.707 592.2168 C 5760.5288 602.91696 5767.7853 617.39182 5771.7383 633.31836 C 5775.0904 646.82409 5776.668 665.54624 5777.4668 688.49609 C 5777.4418 688.69896 5777.4039 688.89863 5777.3789 689.10156 A 100.01 100.01 0 0 0 5776.6934 703.88086 L 5781.9668 893.73828 A 100.01 100.01 0 0 0 5981.9062 888.83984 L 5977.9297 701.61523 C 5986.2124 657.78203 6010.9877 614.81428 6045.0645 586.66602 C 6082.119 556.05822 6134.3427 539.30875 6182.2871 542.6543 C 6226.5881 545.74561 6271.6566 566.2068 6301.8848 596.91406 C 6331.9048 627.40971 6350.8048 672.21382 6351.2637 713.69727 C 6351.585 742.72869 6343.6428 774.29646 6328.7324 803.02734 C 6313.7018 831.98979 6291.2127 859.35443 6263.8105 882.72266 C 6208.7204 929.70277 6133.0414 961.14703 6049.8145 982.00195 C 5880.2994 1024.4789 5695.9138 1023.8276 5507.5352 1013.3906 C 5453.8337 1010.4153 5385.6598 1003.9443 5310.4141 1027.4551 C 5272.3309 1039.3544 5233.6799 1059.1539 5200.582 1091.2188 C 5166.9182 1123.8321 5141.1725 1167.1766 5133.6504 1219.4922 C 5125.2636 1277.8209 5141.5342 1332.4323 5172.0332 1376.4141 C 5201.9716 1419.5875 5242.9381 1448.8712 5286.3086 1466.8066 C 5371.7092 1502.1227 5456.1314 1491.9664 5524.5859 1476.4902 C 5718.8015 1432.5821 5874.0225 1326.5109 6021.4043 1241.8457 C 6022.9286 1252.5681 6024.9041 1263.2541 6027.707 1273.8262 C 6041.9185 1327.4305 6071.6992 1375.1111 6113.6348 1411.3984 C 6160.6329 1452.0662 6219.6806 1475.6892 6282.4629 1477.8438 C 6345.374 1480.0027 6406.7551 1460.3947 6456.7656 1421.0801 C 6506.8834 1381.6809 6541.0233 1326.0342 6552.7148 1262.6914 C 6564.4325 1199.2066 6552.4304 1134.1695 6517.7305 1078.9512 C 6495.7654 1043.9978 6466.7953 1016.5105 6434.3711 995.85742 C 6462.1548 966.20792 6486.7656 932.70262 6506.252 895.1543 C 6534.9574 839.84191 6551.9784 777.13406 6551.252 711.48438 C 6550.1872 615.24413 6511.0147 524.26783 6444.4121 456.60938 C 6378.0173 389.16239 6289.3066 349.63498 6196.209 343.13867 C 6095.4204 336.10567 5995.5909 368.12525 5917.6953 432.46875 C 5909.9032 438.90517 5902.4674 445.68986 5895.2383 452.66016 C 5867.9451 423.07198 5836.0042 400.50628 5802.6836 383.79688 C 5765.2934 365.04672 5728.4572 354.44653 5695.0059 346.60352 C 5646.566 335.24625 5595.6022 327.68096 5543.0508 326.96094 C 5540.8611 326.93094 5538.6677 326.91223 5536.4727 326.90625 z M 5390.7207 619.87305 C 5406.5288 620.10389 5422.8855 624.15073 5435.9883 631.43555 C 5454.6233 641.79618 5471.1621 661.20232 5478.4375 681.24414 C 5485.7129 701.28591 5485.4736 726.78138 5477.8242 746.68359 C 5470.4776 765.79789 5454.7404 783.85543 5437.5176 793.33984 C 5416.6885 804.81023 5385.4127 807.02569 5362.127 798.27148 C 5338.5393 789.40374 5315.5431 766.91627 5305.6582 742.53516 C 5297.6597 722.80691 5296.0151 697.32544 5300.9727 672.86914 A 100.01 100.01 0 0 0 5316.0156 656.72266 C 5328.8833 639.72179 5350.4143 626.0636 5371.2773 621.66602 C 5376.4931 620.56662 5381.9797 619.9786 5387.5684 619.87891 C 5388.6162 619.86021 5389.6668 619.85766 5390.7207 619.87305 z M 3875.5586 666.23242 C 3887.3886 666.31231 3899.3469 668.53333 3909.6953 672.78906 C 3927.3565 680.05218 3944.1795 694.8282 3953.6582 711.40625 C 3963.1368 727.98427 3967.3384 749.97828 3964.6387 768.88281 C 3962.3984 784.57087 3955.2928 800.33829 3945.7656 811.56055 C 3936.3374 822.66621 3922.5712 831.42227 3909.6074 835.00195 C 3890.9242 840.16091 3863.6156 835.66052 3844.9688 823.04492 C 3825.6127 809.9496 3808.8317 784.98165 3803.1035 759.01953 C 3799.2065 741.35725 3799.6349 721.08577 3804.1016 701.13672 C 3815.545 686.3955 3833.415 674.27302 3851.2852 669.30664 C 3858.1848 667.38914 3865.6399 666.37788 3873.1953 666.24609 C 3873.9823 666.23237 3874.7699 666.2271 3875.5586 666.23242 z M 6259.293 1147.6504 C 6279.9676 1147.4097 6299.0778 1151.0467 6313.9902 1157.5352 C 6329.399 1164.2395 6342.0098 1175.2134 6348.3906 1185.3672 C 6355.2152 1196.2272 6358.4848 1213.1292 6356.0371 1226.3906 C 6353.5631 1239.7941 6344.3981 1255.0147 6333.1621 1263.8477 C 6321.8186 1272.7651 6304.4078 1278.4786 6289.3223 1277.9609 C 6274.108 1277.4388 6256.5214 1270.5571 6244.5039 1260.1582 C 6233.5995 1250.7225 6224.7246 1236.5126 6221.0293 1222.5742 C 6217.3339 1208.6357 6218.0032 1191.8934 6222.8008 1178.2949 C 6226.5799 1167.5832 6233.6297 1157.0619 6242.1113 1148.8633 C 6246.4993 1148.3857 6250.8879 1147.9072 6255.1387 1147.752 C 6256.5301 1147.7011 6257.9147 1147.6664 6259.293 1147.6504 z M 5439.9023 1211.0723 C 5457.0146 1211.1511 5475.9237 1211.9456 5496.4707 1213.084 C 5546.8834 1215.8771 5597.9872 1218.1115 5649.5469 1219.0508 C 5593.2425 1246.3878 5537.3857 1268.5494 5480.4824 1281.4141 C 5431.2644 1292.5412 5388.8234 1292.7734 5362.7383 1281.9863 C 5350.3664 1276.8701 5340.8196 1268.8405 5336.3848 1262.4453 C 5332.5102 1256.8579 5331.417 1249.3355 5331.6152 1247.957 C 5331.8253 1246.4958 5334.387 1240.0552 5339.7441 1234.8652 C 5345.6674 1229.1268 5356.2884 1222.6573 5370.0625 1218.3535 L 5370.0625 1218.3555 C 5384.2971 1213.9078 5402.1998 1211.8312 5423.3945 1211.2461 C 5428.6932 1211.0998 5434.1983 1211.046 5439.9023 1211.0723 z "
         transform="translate(-831.48619,-739.06583)"
         id="path4140-7-4-0-7-1" />
      <path
         style="color:#000000;font-style:normal;font-variant:normal;font-weight:normal;font-stretch:normal;font-size:medium;line-height:normal;font-family:sans-serif;text-indent:0;text-align:start;text-decoration:none;text-decoration-line:none;text-decoration-style:solid;text-decoration-color:#000000;letter-spacing:normal;word-spacing:normal;text-transform:none;direction:ltr;block-progression:tb;writing-mode:lr-tb;baseline-shift:baseline;text-anchor:start;white-space:normal;clip-rule:nonzero;display:inline;overflow:visible;visibility:visible;opacity:1;isolation:auto;mix-blend-mode:normal;color-interpolation:sRGB;color-interpolation-filters:linearRGB;solid-color:#000000;solid-opacity:1;fill:#000000;fill-opacity:1;fill-rule:evenodd;stroke:none;stroke-width:140;stroke-linecap:round;stroke-linejoin:round;stroke-miterlimit:4;stroke-dasharray:none;stroke-dashoffset:0;stroke-opacity:1;color-rendering:auto;image-rendering:auto;shape-rendering:auto;text-rendering:auto;enable-background:accumulate"
         d="M 2238.1895 1989.791 C 2235.6912 1989.7803 2233.1919 1989.7846 2230.6914 1989.8047 L 2230.6875 1989.8008 C 2142.6682 1990.5064 2053.3905 2010.4242 1974.7793 2059.9043 C 1917.384 2096.0305 1868.1235 2147.0027 1836.8887 2210.252 C 1818.1617 2248.1739 1806.4582 2289.7075 1803.3672 2332.3086 C 1783.8659 2484.4169 1711.3739 2630.8656 1601.9355 2738.168 C 1490.3944 2847.5321 1340.361 2918.7778 1182.4355 2955.6797 C 1024.0865 2992.6804 856.55214 2997.1742 687.9668 2988.9395 C 629.3441 2986.0761 577.89153 2980.2753 540.5 2961.334 C 522.13488 2952.0309 506.99733 2939.4538 497.52344 2926.0332 C 488.37372 2913.0718 483.85684 2897.4581 484.53516 2885.6367 C 485.17974 2874.4034 490.80217 2860.3022 500.4043 2848.8496 C 510.31043 2837.0345 525.2575 2826.3522 542.95117 2818.8477 C 578.93752 2803.5849 627.10052 2801.0689 681.41602 2803.0918 C 874.14619 2810.2697 1083.437 2856.2534 1299.3496 2811.8477 C 1407.9051 2789.5217 1516.21 2742.7169 1600.4629 2660.8691 C 1642.6302 2619.9057 1677.8992 2570.7984 1701.668 2515.1738 C 1725.4872 2459.4312 1737.2845 2397.9787 1733.1191 2335.8145 C 1727.8196 2256.7229 1696.7441 2180.811 1644.5156 2120.8477 C 1592.2585 2060.8516 1521.0295 2019.4186 1442.6992 2004.1016 C 1417.9913 1999.2701 1392.9874 1997.1342 1368.123 1997.5938 C 1293.53 1998.9726 1220.189 2023.7101 1159.832 2069.1133 C 1139.3314 2084.5348 1120.7323 2102.0777 1104.2109 2121.2871 C 1097.8731 2112.5547 1090.9789 2104.1349 1083.459 2096.1328 C 1052.4434 2063.1285 1014.4366 2040.0416 974.67773 2025.3965 C 935.29456 2010.8898 896.18982 2005.0423 859.85547 2002.0957 C 744.7797 1992.7634 619.89768 2011.4774 517.41992 2083.2207 C 466.01702 2119.2071 422.18027 2167.6754 393.95508 2226.4941 C 365.58992 2285.6045 354.15833 2353.3372 366.08984 2420.291 C 380.29562 2500.0069 427.39811 2573.1604 500.83008 2614.6406 C 537.33132 2635.2595 578.69783 2646.9779 621.5293 2647.5391 C 664.46082 2648.1015 707.22262 2637.3973 745.08008 2615.2852 C 781.1647 2594.2084 810.54992 2564.0649 831.00391 2528.3086 C 851.42685 2492.6064 862.2049 2452.6423 863.16406 2412.1211 C 864.48182 2356.4507 847.27375 2302.5385 815.56836 2257.8652 C 783.94495 2213.3075 739.55765 2180.1514 689.16211 2161.5273 C 686.04157 2160.3741 682.86178 2159.4417 679.70898 2158.4043 C 731.89522 2141.9972 790.38477 2136.9225 848.53906 2141.6387 C 877.652 2143.9996 904.05522 2148.5785 926.28711 2156.7676 C 948.14332 2164.8183 967.4889 2177.1608 981.43945 2192.0059 C 995.24364 2206.6952 1005.9625 2226.395 1011.752 2247.8145 C 1016.879 2266.7835 1018.6987 2290.4945 1019.5391 2317.6953 C 1019.361 2319.4239 1019.0959 2321.136 1018.9434 2322.8691 A 70.007 70.007 0 0 0 1018.6992 2330.9512 L 1023.9609 2520.3516 L 1023.9727 2520.8086 A 70.007 70.007 0 0 0 1163.9297 2517.3789 L 1163.9199 2516.9219 L 1159.8594 2325.7227 C 1159.8442 2325.0076 1159.8124 2324.216 1159.7969 2323.4961 C 1168.0065 2268.2498 1199.5906 2214.395 1243.9922 2180.9941 C 1291.5116 2145.2479 1357.474 2130.0864 1415.832 2141.498 C 1462.5824 2150.6398 1507.4958 2176.6895 1538.9473 2212.7988 C 1570.4274 2248.9411 1590.2124 2297.101 1593.4336 2345.1738 C 1595.9912 2383.3443 1588.624 2423.4357 1572.9297 2460.1641 C 1557.1849 2497.0105 1532.8732 2531.3454 1502.9121 2560.4512 C 1442.9082 2618.7422 1359.5869 2656.5277 1271.1465 2674.7168 C 1093.0673 2711.3414 895.85611 2670.9819 686.62695 2663.1895 C 626.91568 2660.9657 557.34873 2660.6698 488.28711 2689.9609 C 453.4568 2704.7335 419.87066 2726.9961 393.12109 2758.9004 C 366.06754 2791.1674 347.38943 2831.8912 344.76562 2877.6172 C 341.99637 2925.8782 357.59327 2970.5676 383.15039 3006.7715 C 408.38334 3042.5161 441.91543 3068.3323 477.23633 3086.2246 C 547.21682 3121.6743 619.54032 3125.7628 681.13672 3128.7715 C 856.60356 3137.3422 1037.2112 3133.3848 1214.2891 3092.0078 C 1391.7906 3050.5317 1565.5302 2969.9283 1699.9492 2838.1328 C 1780.2359 2759.4132 1843.5096 2664.5398 1886.1602 2561.084 C 1904.0744 2578.8836 1924.6592 2594.3277 1947.709 2606.6641 C 1984.0345 2626.1057 2024.8907 2636.8457 2067.0059 2636.75 C 2109.2169 2636.654 2151.1198 2625.6447 2188.1777 2603.6016 C 2222.3804 2583.2568 2250.2793 2554.8008 2270.3418 2521.5039 C 2290.3614 2488.278 2301.9793 2451.2793 2305.4375 2413.5742 C 2310.5678 2357.6373 2297.6358 2301.544 2268.5352 2253.498 C 2239.4347 2205.4518 2195.7116 2168.0089 2143.7617 2146.6445 C 2140.1833 2145.1729 2136.522 2143.9839 2132.8945 2142.6758 C 2192.6818 2126.9512 2259.7018 2126.119 2324.9727 2137.4238 C 2357.7392 2143.0989 2387.7695 2151.2783 2413.1895 2163.4609 C 2438.281 2175.486 2460.2313 2192.3314 2475.9395 2212.0273 C 2491.5299 2231.5753 2502.7735 2256.4376 2508.2168 2282.9258 C 2509.9816 2291.514 2511.0388 2300.8669 2511.8301 2310.5566 C 2509.1018 2333.9175 2508.6855 2357.6266 2510.707 2381.3594 L 2508.8008 2514.5996 A 69.855129 69.855129 0 0 0 2648.4609 2517.6211 L 2652.3906 2381.9648 C 2652.9818 2361.5553 2653.5047 2339.6392 2652.4355 2316.5801 C 2660.5809 2270.0807 2683.6121 2225.1731 2717.2754 2193.6602 C 2764.49 2149.4616 2836.6119 2127.7038 2900.3926 2138.416 C 2947.6688 2146.3561 2993.384 2171.6543 3024.791 2207.3965 C 3056.1522 2243.0866 3075.1506 2291.5472 3076.1387 2338.6914 C 3077.4617 2401.8047 3046.6441 2469.1313 2998.0098 2518.4258 C 2948.5889 2568.5177 2880.4617 2603.8272 2806.6504 2625.2578 C 2615.2444 2680.8311 2395.3935 2643.0982 2164.6133 2650.0566 C 2103.1667 2651.9093 2032.6461 2656.9572 1964.7871 2690.7324 C 1930.6041 2707.7462 1898.1141 2731.9464 1872.6562 2765.0449 C 1846.9498 2798.4664 1829.5766 2839.6849 1827.5684 2885.2871 C 1825.4997 2932.2645 1840.0832 2976.3971 1864.9922 3012.8047 C 1889.6755 3048.8829 1923.164 3075.6645 1959.666 3093.7441 C 2032.1528 3129.6472 2110.2552 3129.7134 2178.5508 3118.5176 C 2303.229 3098.079 2412.0818 3039.0548 2508.6855 2975.8926 C 2590.8145 2922.1943 2665.8543 2865.0434 2742.2598 2817.6719 C 2741.5193 2841.652 2744.2655 2865.7462 2750.6289 2889.1895 C 2763.6225 2937.0598 2790.8202 2979.7567 2828.709 3011.7695 C 2870.5369 3047.1105 2923.1049 3067.4829 2978.2559 3068.9512 C 3033.4851 3070.4213 3087.6185 3052.8005 3131.3398 3018.3574 C 3175.1257 2983.8634 3205.3084 2934.9374 3215.9531 2879.8066 C 3226.6143 2824.591 3216.8216 2767.3767 3187.6504 2718.8242 C 3162.9727 2677.7508 3126.9664 2647.1686 3086.6387 2627.0723 C 3090.2797 2623.6118 3093.9091 2620.1351 3097.457 2616.5391 C 3169.2227 2543.7992 3218.0782 2444.0458 3215.8086 2335.7656 C 3214.1033 2254.4115 3183.2114 2176.0458 3129.7344 2115.1875 C 3076.3034 2054.3813 3003.0084 2014.0004 2923.5332 2000.6523 C 2814.8343 1982.3961 2702.2765 2016.3538 2621.8105 2091.6797 C 2609.5292 2103.1765 2598.2789 2115.5658 2587.8691 2128.5566 C 2586.9439 2127.3581 2586.1045 2126.1123 2585.1582 2124.9258 C 2554.514 2086.5024 2515.5156 2057.5915 2473.5684 2037.4883 C 2431.9501 2017.5427 2389.3011 2006.7908 2348.8184 1999.7793 C 2312.8472 1993.5491 2275.6631 1989.952 2238.1895 1989.791 z M 2042.8574 2266.7461 C 2059.2642 2266.6781 2075.8344 2269.7579 2090.6289 2275.8418 C 2114.3008 2285.5768 2135.7871 2303.9766 2149.0469 2325.8691 C 2162.307 2347.7619 2168.6619 2375.3281 2166.3242 2400.8164 C 2164.7304 2418.1941 2159.2147 2435.2559 2150.6875 2449.4082 C 2142.2029 2463.4897 2130.0984 2475.608 2116.7617 2483.541 C 2102.3622 2492.1062 2084.3509 2497.0147 2066.6895 2497.0547 C 2048.9324 2497.0947 2030.0891 2492.3106 2013.627 2483.5 C 1981.1118 2466.0977 1954.5044 2429.2398 1945.9531 2389.9043 C 1942.9216 2375.9594 1941.8956 2361.2419 1942.7109 2346.3613 C 1943.4713 2340.1813 1944.165 2333.9917 1944.7832 2327.791 A 70.007 70.007 0 0 0 1944.8574 2326.6289 C 1945.5981 2322.0622 1946.4971 2317.5049 1947.5684 2312.9746 A 69.855129 69.855129 0 0 0 1948.9141 2311.4062 C 1965.1841 2291.6476 1989.0925 2276.5271 2013.918 2270.2969 C 2023.2275 2267.9605 2033.0129 2266.7869 2042.8574 2266.7461 z M 594.42383 2284.4941 C 610.21489 2284.6489 626.07901 2287.4693 640.63281 2292.8477 C 664.88051 2301.8087 686.96502 2318.5557 701.39844 2338.8926 C 715.74989 2359.1139 723.76848 2384.922 723.20312 2408.8066 C 722.78842 2426.3262 717.88498 2444.1007 709.48047 2458.793 L 709.48242 2458.793 C 701.10896 2473.4309 688.51596 2486.1897 674.46875 2494.3945 C 659.74259 2502.9959 641.32288 2507.7861 623.36328 2507.5508 C 605.30363 2507.3142 586.20804 2502.0763 569.6875 2492.7441 C 537.07593 2474.3225 511.07964 2435.9182 503.91797 2395.7305 C 499.21241 2369.3251 501.52065 2340.4144 509.98828 2313.0957 C 526.47379 2300.4005 546.19494 2291.2074 566.37695 2287.1172 C 575.50087 2285.268 584.94919 2284.4013 594.42383 2284.4941 z M 2953.4121 2736.8203 C 2977.6588 2736.6883 3000.96 2741.2065 3020.3613 2750.0391 C 3040.7204 2759.3076 3058.0185 2774.3182 3067.9004 2790.7656 C 3078.5718 2808.5271 3082.7924 2832.5742 3078.7871 2853.3184 C 3074.7654 2874.1472 3061.8732 2895.237 3044.8887 2908.6172 C 3027.8396 2922.0483 3004.0748 2929.8892 2981.9688 2929.3008 C 2959.7847 2928.7102 2936.1289 2919.6466 2918.8633 2905.0586 C 2903.096 2891.7366 2890.8506 2872.5127 2885.4434 2852.5918 C 2880.0363 2832.671 2880.8805 2809.8934 2887.748 2790.4277 C 2894.6156 2770.9618 2908.2506 2752.6977 2924.9609 2740.5801 C 2925.901 2739.8984 2926.9089 2739.2894 2927.8789 2738.6387 C 2934.8342 2737.7292 2941.7315 2737.121 2948.5508 2736.9102 C 2950.1748 2736.8599 2951.7957 2736.8291 2953.4121 2736.8203 z M 2208.5957 2789.043 C 2309.1251 2788.6987 2414.3476 2797.11 2521.8164 2797.6387 C 2491.737 2818.7382 2461.9294 2839.5514 2432.2344 2858.9668 C 2342.9086 2917.3705 2250.489 2965.1602 2155.9492 2980.6582 C 2105.5116 2988.9265 2056.9966 2986.058 2021.666 2968.5586 C 2004.2593 2959.937 1989.5691 2947.4945 1980.2832 2933.9219 C 1971.2228 2920.6789 1966.5491 2904.555 1967.127 2891.4316 C 1967.6918 2878.6074 1973.4376 2863.148 1983.3867 2850.2129 C 1993.5844 2836.9545 2008.858 2824.8383 2027.0312 2815.793 C 2063.885 2797.4499 2113.3561 2791.3599 2168.8223 2789.6875 C 2181.9946 2789.2903 2195.2536 2789.0887 2208.5957 2789.043 z "
         transform="translate(-831.48619,-739.06583)"
         id="path4140-7-4-0-7-0" />
    </g>
  </g>
</svg>
