<?xml version="1.0" encoding="UTF-8" standalone="no"?>
<!-- Created with Inkscape (http://www.inkscape.org/) -->

<svg
   xmlns:dc="http://purl.org/dc/elements/1.1/"
   xmlns:cc="http://creativecommons.org/ns#"
   xmlns:rdf="http://www.w3.org/1999/02/22-rdf-syntax-ns#"
   xmlns:svg="http://www.w3.org/2000/svg"
   xmlns="http://www.w3.org/2000/svg"
   xmlns:sodipodi="http://sodipodi.sourceforge.net/DTD/sodipodi-0.dtd"
   xmlns:inkscape="http://www.inkscape.org/namespaces/inkscape"
   width="2000"
   height="2048"
   id="svg2992"
   version="1.1"
   inkscape:version="0.91 r13725"
   sodipodi:docname="ജ്ജൂ.svg">
  <defs
     id="defs5498">
    <inkscape:path-effect
       effect="spiro"
       id="path-effect4142-0-1-0"
       is_visible="true" />
    <inkscape:path-effect
       effect="spiro"
       id="path-effect4142-0-1-0-3"
       is_visible="true" />
    <inkscape:path-effect
       effect="spiro"
       id="path-effect4142-0-1-0-5"
       is_visible="true" />
    <inkscape:path-effect
       effect="spiro"
       id="path-effect4142-0-1-0-4"
       is_visible="true" />
    <inkscape:path-effect
       effect="spiro"
       id="path-effect4142-0-1-0-4-7"
       is_visible="true" />
    <inkscape:path-effect
       effect="spiro"
       id="path-effect4142-0-1-0-4-7-6"
       is_visible="true" />
    <inkscape:path-effect
       effect="spiro"
       id="path-effect4142-0-1-0-54-6"
       is_visible="true" />
    <inkscape:path-effect
       effect="spiro"
       id="path-effect4142-0-1-0-6"
       is_visible="true" />
  </defs>
  <sodipodi:namedview
     inkscape:window-height="845"
     inkscape:window-width="1600"
     inkscape:pageshadow="2"
     inkscape:pageopacity="0.0"
     borderopacity="1.0"
     bordercolor="#666666"
     pagecolor="#ffffff"
     id="base"
     showgrid="true"
     showguides="true"
     inkscape:guide-bbox="true"
     inkscape:zoom="0.227"
     inkscape:cx="1255.1449"
     inkscape:cy="-331.92016"
     inkscape:window-x="1600"
     inkscape:window-y="26"
     inkscape:current-layer="layer1"
     inkscape:window-maximized="1">
    <sodipodi:guide
       orientation="horizontal"
       position="0,600"
       id="guide5596" />
    <inkscape:grid
       type="xygrid"
       id="grid3769"
       empspacing="3"
       visible="true"
       enabled="true"
       snapvisiblegridlinesonly="true"
       spacingx="4px"
       units="px"
       dotted="true"
       spacingy="4px" />
    <sodipodi:guide
       orientation="0,1"
       position="-1040,1600"
       id="guide2985" />
    <sodipodi:guide
       position="4512,1710"
       orientation="0,1"
       id="guide4148"
       inkscape:label=""
       inkscape:color="rgb(0,0,255)" />
  </sodipodi:namedview>
  <metadata
     id="metadata5594">
    <rdf:RDF>
      <cc:Work
         rdf:about="">
        <dc:format>image/svg+xml</dc:format>
        <dc:type
           rdf:resource="http://purl.org/dc/dcmitype/StillImage" />
        <dc:title />
      </cc:Work>
    </rdf:RDF>
  </metadata>
  <g
     inkscape:label="Layer 1"
     inkscape:groupmode="layer"
     id="layer1"
     transform="translate(0,1048)">
    <path
       style="fill:none;fill-rule:evenodd;stroke:#000000;stroke-width:140;stroke-linecap:round;stroke-linejoin:round;stroke-miterlimit:4;stroke-dasharray:none;stroke-opacity:1"
       d="m 190.97296,-343.14165 c 18.04011,-40.43004 52.28148,-73.35397 93.38786,-89.79474 41.10638,-16.44077 88.608,-16.2105 129.55305,0.62803 40.94506,16.83852 74.86563,50.09287 92.51292,90.69591 17.64729,40.60303 18.81963,88.09074 3.19737,129.51511 -11.14662,29.55665 -30.64106,55.968 -55.8323,75.02696 -25.19124,19.05896 -56.02069,30.65764 -87.5525,32.55163 -29.72856,1.78568 -59.8396,-5.02728 -86.21221,-18.86424 -26.37261,-13.83696 -48.98069,-34.60377 -65.55088,-59.35058 -33.14036,-49.49364 -40.90335,-113.99148 -25.11061,-171.42399 19.22568,-69.91688 71.66846,-128.48649 136.08169,-161.78712 64.41324,-33.30064 139.73732,-42.5113 211.62891,-33.04576 37.85147,4.98368 75.23557,15.10359 109.31281,32.31733 34.07723,17.21375 64.60822,41.64729 88.00857,71.8134 23.40034,30.16612 39.35713,65.7877 48.2093,102.92542 8.85216,37.13771 10.59757,75.54899 11.83362,113.70712 l 3.8049,117.46078 -4.9289,-115.7788 c -8.91132,-91.69871 28.97227,-186.72931 98.52488,-247.14867 69.55262,-60.41936 168.94736,-84.64049 258.49866,-62.99255 58.3039,14.09426 112.1365,46.94863 150.2591,93.25916 38.1225,46.31052 60.0962,105.94191 59.7522,165.92421 -0.2726,47.52831 -14.2995,94.59227 -37.998,135.79175 -23.6984,41.19948 -56.8703,76.619248 -94.9975,104.997646 -76.2543,56.756797 -170.4585,84.718725 -264.53468,98.346642 -171.06907,24.781129 -345.00562,5.493926 -517.84936,3.551225 -53.06769,-0.596462 -107.68064,0.752161 -156.6121,21.300828 -24.46573,10.274334 -47.14992,25.393879 -64.41797,45.542039 -17.26805,20.14816 -28.90148,45.48897 -30.76943,71.95866 -2.11172,29.92404 8.39865,60.05926 26.45885,84.01206 18.0602,23.9528 43.28422,41.95774 70.74649,54.02968 54.92452,24.14386 116.85574,24.93038 176.8492,25.57376 196.92246,2.11182 395.62863,6.7867 588.8431,-31.30639 100.2656,-19.76781 199.3477,-51.48358 285.9337,-105.76821 86.586,-54.28463 160.2752,-132.572567 197.2026,-227.8633106 25.852,-66.7108914 33.0139,-138.9036494 47.0967,-209.0488294 14.0828,-70.14518 36.9367,-141.74952 86.9517,-192.90779 26.5536,-27.16062 60.1647,-47.49876 96.7594,-57.6784 36.5946,-10.17964 76.0957,-10.08307 112.4237,1.01073 36.328,11.0938 69.3134,33.24492 92.7339,63.14931 23.4206,29.9044 37.0616,67.48605 37.5203,105.46742 0.5799,48.02028 -20.3296,95.7574 -55.5039,128.45378 -35.1742,32.69639 -83.9701,50.03682 -131.9338,47.63583 -53.8992,-2.69811 -105.8842,-30.30704 -138.9606,-72.94922 -33.0764,-42.64219 -46.8956,-99.47564 -37.9131,-152.68955 6.1365,-36.35367 22.4596,-70.74965 45.6293,-99.42741 23.1696,-28.67776 53.0591,-51.68927 86.0811,-68.08406 66.0441,-32.78958 143.1396,-38.6483 216.0003,-27.32143 37.6408,5.8516 74.7938,16.24595 108.7674,33.4756 33.9736,17.22965 64.5369,41.43645 88.0515,71.4053 23.5146,29.96886 39.6453,65.42491 48.5975,102.45095 8.9521,37.02604 10.7146,75.35849 11.9479,113.43142 l 3.8048,117.460799 -4.9288,-115.778799 c -10.0578,-91.96191 27.4982,-187.84741 97.3373,-248.51571 69.8392,-60.66829 170.0346,-84.44545 259.6862,-61.62556 57.8698,14.73016 110.9636,48.08585 148.7565,94.31986 37.7929,46.23401 59.9647,105.16241 61.2548,164.86351 0.9929,45.9464 -10.1728,91.89539 -30.5794,133.07339 -20.4066,41.177994 -49.9145,77.617275 -84.8204,107.510955 -69.8119,59.787359 -159.7759,92.527179 -250.7802,105.42875 -182.0085,25.803145 -365.5443,-23.345924 -549.1995,-31.325797 -53.1697,-2.310237 -108.0908,-0.831615 -156.9785,20.200299 -24.4439,10.515958 -47.0068,25.947353 -64.149,46.300063 -17.1421,20.35271 -28.6611,45.76732 -30.6721,72.30114 -2.1325,28.13702 6.5427,56.64778 22.3977,79.99001 15.8549,23.34223 38.6102,41.61996 64.0088,53.91421 50.7973,24.58852 110.0796,25.18228 165.8901,16.80718 98.3067,-14.75221 190.8781,-55.31733 278.9299,-101.45525 88.0518,-46.13793 173.0718,-98.30129 263.8206,-138.87815 58.6951,-26.244563 121.0804,-47.806634 185.3757,-47.761735 32.1476,0.02245 64.4728,5.570161 94.0705,18.117816 29.5978,12.547655 56.3964,32.251179 75.6745,57.977219 24.0697,32.12031 35.693,73.43306 31.3989,113.34076 -4.2941,39.9077 -24.5771,77.95869 -55.6361,103.38315 -31.059,25.42446 -72.582,37.80229 -112.4361,33.03624 -39.8541,-4.76606 -77.4468,-26.74188 -100.7495,-59.42285 -17.0452,-23.90512 -26.3878,-52.93162 -28.2415,-82.2328 -1.8536,-29.30118 3.6079,-58.84674 14.1663,-86.2423 21.1167,-54.791101 61.6755,-99.954862 105.9576,-138.517502 37.137,-32.340398 77.7034,-61.119474 122.2654,-82.078608 44.562,-20.959135 93.281,-33.95561 142.5253,-34.2056 49.2442,-0.24999 99.003,12.647251 139.9988,39.930929 40.9959,27.283677 72.6587,69.3748093 84.0566,117.282479 10.5038,44.149512 3.3148,92.250962 -19.6383,131.400202 -22.9532,39.14923 -61.4172,68.91417 -105.0733,81.3098 27.4335,-16.86368 59.9711,-25.29757 92.1422,-23.88361 32.1711,1.41396 63.8434,12.66995 89.6916,31.87542 25.8481,19.20547 45.766,46.28149 56.4045,76.67556 10.6386,30.39407 11.9541,63.98126 3.7255,95.11433 -7.9937,30.24404 -24.7708,57.85068 -46.5273,80.32852 -21.7566,22.47784 -48.3843,39.95533 -76.9116,52.79255 -57.0546,25.67444 -120.6825,33.07285 -183.236,34.28176 -125.107,2.41782 -250.1079,-9.13534 -375.2338,-8.07143 l -590.6559,5.0222 c -67.5412,0.57429 -135.6198,-3.59402 -202.3356,6.94862 -33.3579,5.27132 -66.5941,15.39547 -94.1702,34.89157 -13.788,9.74806 -26.0228,21.82707 -35.2137,35.9926 -9.1908,14.16554 -15.2786,30.45796 -16.7237,47.28191 -1.3623,15.85971 1.4188,31.9785 7.3858,46.73592 5.967,14.75742 15.0706,28.1686 26.1059,39.64066 22.0706,22.94412 51.4213,37.90654 81.935,46.98736 61.0273,18.16163 126.0104,15.86403 189.6828,15.97126 l 1252.0078,2.1085"
       id="path4140-7-4-0"
       inkscape:path-effect="#path-effect4142-0-1-0"
       inkscape:original-d="m 190.97296,-343.14165 c 31.926,35.21986 288.0677,79.00662 318.6512,131.04431 32.9639,56.08784 -84.3527,116.823633 -143.3848,107.57859 -100.7544,-15.77917 -199.3102,-150.15501 -176.8737,-249.63881 29.2294,-129.60335 217.2919,-220.17773 347.7106,-194.83288 134.5654,26.15071 252.9851,230.11476 257.3643,320.76327 l 3.8049,117.46078 -4.9289,-115.7788 c 14.3471,-178.20465 199.9836,-323.88376 357.02354,-310.14122 110.7726,9.69371 220.2005,148.45528 210.0113,259.18337 C 1344.391,-104.05728 1126.0435,0.8328187 962.82122,61.632998 801.05899,121.88932 611.99621,21.587127 444.97186,65.184223 352.23827,89.389768 194.8222,108.15931 193.17236,203.98575 c -1.8315,106.3776 168.24768,152.4596 274.05454,163.6155 172.30197,18.16692 410.09122,25.43607 588.8431,-31.30639 210.6846,-66.87906 365.6049,-177.13945 483.1363,-333.6315206 84.8188,-112.9355594 7.8157,-338.6005894 134.0484,-401.9566194 106.4816,-53.44297 313.6921,-4.37661 339.4373,111.94906 18.5246,83.70053 -101.9585,182.58871 -187.4377,176.08961 -95.2918,-7.24516 -195.6361,-131.93183 -176.8737,-225.63877 26.0838,-130.27292 217.292,-220.17777 347.7107,-194.8329 134.5654,26.15073 254.4261,230.05667 257.3643,320.76327 l 3.8048,117.460799 -4.9288,-115.778799 c 14.3471,-178.20467 199.9836,-323.88383 357.0235,-310.14127 110.7726,9.69371 240.6713,152.29794 210.0113,259.18337 -88.9651,310.145963 -620.4345,183.87153 -915.3795,314.687298 -87.6102,38.857377 -250.1378,42.975247 -251.7996,138.801502 -1.6986,97.94643 154.5165,144.7581 252.2966,150.7114 197.4946,12.02437 347.6964,-207.12814 542.7505,-240.3334 117.0655,-19.928789 320.2463,-85.180019 355.1207,28.3333 29.7888,96.96018 -153.3033,247.01672 -237.4228,190.3373 -88.5837,-59.68735 3.6165,-246.836267 91.8824,-306.992602 135.1215,-92.090123 413.5555,-104.225004 488.8461,40.9292 37.8441,72.960382 -124.7116,212.710002 -124.7116,212.710002 0,0 262.3926,81.39928 241.9638,179.7817 -47.4578,228.54996 -597.0413,158.60979 -681.9087,159.3314 l -590.6559,5.0222 c -21.6551,0.18413 -341.6321,1.89456 -348.4432,125.1147 -6.2495,113.05913 282.3602,149.29689 305.1095,149.3352 l 1252.0078,2.1085"
       inkscape:connector-curvature="0"
       sodipodi:nodetypes="csaaasccaaaaassaaaaaasccaaaaaaaaaacassasc" />
    <path
       style="fill:none;fill-rule:evenodd;stroke:#000000;stroke-width:70;stroke-linecap:round;stroke-linejoin:round;stroke-miterlimit:4;stroke-dasharray:none;stroke-opacity:1"
       d="m -4319.8344,-253.54661 c 18.4138,-42.88392 54.1359,-78.03813 97.3094,-95.76235 43.1735,-17.72423 93.2921,-17.81066 136.5265,-0.23545 43.2344,17.57521 79.0775,52.606 97.6391,95.42615 18.5616,42.82016 19.624,92.92764 2.894,136.49605 -11.7238,30.531336 -31.9676,57.795481 -58.0412,77.538349 -26.0735,19.742867 -57.9194,31.8570907 -90.5509,34.0464652 -30.9615,2.0773255 -62.392,-4.7597362 -89.9746,-18.9768812 -27.5827,-14.217145 -51.2841,-35.722094 -68.6154,-61.462211 -34.6628,-51.480232 -42.4575,-119.026522 -24.7073,-178.496262 21.2659,-71.24852 76.932,-129.40817 143.3659,-162.80179 66.4338,-33.39361 142.7471,-43.66485 216.9726,-39.28669 38.0269,2.243 76.1109,8.33706 111.6917,21.94173 35.5807,13.60466 68.4076,34.96885 93.7628,63.39752 25.3552,28.42867 42.7369,63.58111 51.724,100.59879 8.987,37.01768 9.5835,75.48584 9.5325,113.57879 l -0.2021,150.877754 -0.9627,-167.803454 c 5.5116,-86.89488 51.3501,-170.40144 121.6988,-221.70592 70.3488,-51.30449 163.8687,-69.43022 248.2908,-48.12296 60.0726,15.1617 115.2175,49.71814 154.4164,97.69776 39.1989,47.97963 62.1107,109.19114 63.2219,171.1376 0.8526,47.52755 -10.906,95.008872 -32.2118,137.501891 -21.3058,42.4930184 -52.013,80.032937 -88.2646,110.780544 -72.5033,61.495215 -165.6779,94.938405 -259.8376,108.066335 -188.3193,26.25586 -378.2547,-24.22347 -568.3095,-29.94255 -57.8246,-1.74004 -117.7653,1.15462 -169.7351,26.56817 -25.985,12.70677 -49.4988,31.06507 -66.2492,54.64693 -16.7504,23.58186 -26.4453,52.53848 -24.9598,81.42571 1.4346,27.89663 13.2139,54.78004 30.9683,76.34536 17.7543,21.56533 41.2495,37.99436 66.6785,49.55486 50.858,23.121 108.0535,26.94963 163.8124,30.42363 216.7713,13.50571 437.9792,26.46836 647.9481,-29.07641 104.9845,-27.77238 206.1777,-72.92071 292.0546,-139.39038 85.8768,-66.46967 155.9891,-154.90884 193.4561,-256.836626 21.7385,-59.138946 32.3092,-121.724736 49.8375,-182.245264 17.5283,-60.52053 43.3025,-120.85273 89.0792,-164.14791 27.8337,-26.32484 62.4945,-45.45436 99.7173,-54.51945 37.2227,-9.06509 76.9243,-7.99097 113.4656,3.51765 36.5412,11.50862 69.7913,33.47133 94.3644,62.86307 24.573,29.39174 40.3294,66.14386 44.2174,104.25677 5.4488,53.41323 -13.1688,108.844593 -49.832,148.068024 -36.6631,39.2234306 -90.7623,61.541429 -144.4129,59.47293 -60.4704,-2.3314375 -118.4827,-35.605723 -152.849,-85.416014 -34.3662,-49.81029 -44.9954,-114.77846 -30.4483,-173.51931 9.0428,-36.51462 27.3166,-70.55367 51.7914,-99.12073 24.4747,-28.56706 55.0599,-51.70501 88.6422,-68.65543 67.1646,-33.90082 145.1284,-42.60802 219.905,-34.31231 39.9057,4.42713 79.5456,13.67882 115.9226,30.67225 36.377,16.99343 69.2151,41.92178 94.0736,73.45144 24.8584,31.52967 41.314,69.31192 49.4617,108.62703 8.1477,39.3151 8.0027,79.81427 7.2531,119.95777 l -2.2749,121.8350442 1.1101,-190.6227242 c 10.759,-83.54244 58.7442,-161.58886 128.4362,-208.89761 69.692,-47.30875 159.939,-63.09792 241.5535,-42.261 59.9901,15.31602 115.0199,49.92541 154.186,97.87754 39.1661,47.95213 62.1361,109.05742 63.4523,170.95782 1.0124,47.61314 -10.5695,95.224729 -31.7226,137.892996 -21.1532,42.668267 -51.7329,80.426694 -87.9042,111.405381 -72.3424,61.957373 -165.5596,95.900093 -259.8603,109.298053 -188.6016,26.79592 -378.8155,-24.03392 -569.1364,-32.19018 -55.1077,-2.36165 -112.0267,-0.79435 -162.6857,21.02551 -25.3294,10.90993 -48.7081,26.91081 -66.4706,48.00822 -17.7626,21.0974 -29.6995,47.43681 -31.788,74.93674 -2.215,29.16514 6.7675,58.71974 23.1921,82.92187 16.4247,24.20213 40.0021,43.15925 66.3229,55.91579 52.6415,25.51307 114.0924,26.15851 171.9443,17.48623 101.8957,-15.27468 197.834,-57.36156 289.0747,-105.22789 91.2407,-47.86632 179.3336,-101.984 273.387,-144.05553 60.8236,-27.20734 125.4795,-49.54634 192.1109,-49.49036 33.3157,0.028 66.8144,5.78255 97.486,18.78979 30.6717,13.00724 58.4419,33.42852 78.4208,60.08901 24.9459,33.28864 36.9967,76.10165 32.5555,117.46237 -4.4412,41.36072 -25.4485,80.80158 -57.626,107.16516 -32.1776,26.36359 -75.2027,39.21482 -116.5101,34.30268 -41.3074,-4.91215 -80.2839,-27.65632 -104.4648,-61.50475 -17.7035,-24.78138 -27.4164,-54.88566 -29.3556,-85.27926 -1.9391,-30.3936 3.7151,-61.04484 14.661,-89.46521 21.892,-56.84073 63.9693,-103.69045 109.914,-143.68054 38.4883,-33.50002 80.5306,-63.306997 126.7098,-85.011236 46.1793,-21.704239 96.6625,-35.1579731 147.6873,-35.4095923 51.0249,-0.2516192 102.5803,13.1133763 145.0624,41.3776863 42.482,28.26431 75.3015,71.863442 87.1401,121.496552 10.9194,45.77923 3.4878,95.66831 -20.3001,136.27748 -23.7879,40.60917 -63.6694,71.48981 -108.9407,84.35384 28.4482,-17.45501 62.1777,-26.17163 95.5209,-24.6852 33.3432,1.48643 66.1632,13.16981 92.9454,33.08698 26.7822,19.91716 47.4165,47.98637 58.4359,79.49116 11.0193,31.50479 12.3785,66.31585 3.849,98.58389 -8.2851,31.34354 -25.6689,59.95498 -48.2124,83.25423 -22.5434,23.29924 -50.1343,41.4192 -79.695,54.732 -59.1212,26.62559 -125.0595,34.31703 -189.8872,35.58961 -129.6552,2.54515 -259.2035,-9.41452 -388.8791,-8.31094 l -612.1068,5.2092 c -67.2242,0.5721 -134.4924,-5.31321 -201.6337,-1.92709 -33.5706,1.69306 -67.6207,7.13213 -97.5237,22.48366 -14.9514,7.67577 -28.7205,17.85681 -39.6747,30.60319 -10.9542,12.74638 -19.0291,28.12217 -22.2656,44.61424 -3.223,16.4232 -1.58,33.65992 3.8845,49.47917 5.4645,15.81926 14.6727,30.23864 26.1251,42.44324 22.9047,24.40921 54.1752,39.69422 86.4492,48.5726 64.5481,17.75676 132.7856,14.28855 199.7314,14.40139 l 1297.4772,2.187"
       id="path4140-7-4-0-7"
       inkscape:path-effect="#path-effect4142-0-1-0-4-7"
       inkscape:original-d="m -4319.8344,-253.54661 c 33.0855,36.53145 302.6748,81.94882 334.369,135.9244 34.1611,58.176554 -87.4161,121.1741542 -148.5921,111.5848142 -104.4135,-16.3667702 -206.5486,-155.7467842 -183.2973,-258.9353542 30.2909,-134.42978 224.5486,-224.86538 360.3385,-202.08848 131.7809,22.10451 264.2518,205.4151 266.711,299.51683 l -0.2021,150.877754 -0.9627,-167.803454 c 14.8682,-184.84099 218.6823,-289.63793 369.9896,-269.82888 114.2609,14.95895 249.4119,157.96951 217.6383,268.83536 -92.1959,321.69581 -646.6784,182.6350442 -948.6235,326.40622 -92.5308,44.05855 -261.8912,60.08615 -260.9441,162.64081 0.9382,101.60486 160.3504,147.20157 261.4592,156.32385 401.8678,36.25749 844.8765,-143.04116 1133.4588,-425.303416 88.9056,-86.95846 26.1989,-293.932774 138.9167,-346.393174 111.9555,-52.10558 320.0705,62.14246 351.7647,116.11804 34.1611,58.17651 -99.7561,213.998084 -194.2449,207.540954 -105.4407,-7.2055498 -206.5486,-155.746734 -183.2973,-258.935324 30.2909,-134.42984 225.1835,-228.37727 360.3386,-202.08847 139.4524,27.12458 263.6661,238.62398 266.711,332.70849 l -2.2749,121.8350442 1.1101,-190.6227242 c 14.8681,-184.84101 222.5759,-272.99461 369.9897,-251.15861 113.9926,16.88542 249.4118,157.96951 217.6383,268.83536 -92.1961,321.6958 -642.9671,190.718904 -948.6235,326.40625 -90.792,40.30443 -259.2222,44.57565 -260.9443,143.97047 -1.7603,101.59395 160.1281,150.14889 261.4593,156.32389 204.667,12.47216 360.3237,-214.84159 562.4617,-249.28342 121.317,-20.67092 331.8767,-88.35211 368.0177,29.38844 30.8706,100.57097 -158.8709,256.21565 -246.0454,197.42546 -91.8008,-61.91011 3.7479,-256.02844 95.2194,-318.42501 140.0287,-95.519546 428.5746,-108.106336 506.5996,42.45341 39.2185,75.67742 -129.2408,220.63132 -129.2408,220.63132 0,0 271.922,84.43059 250.7512,186.47683 -49.1813,237.0611 -618.7241,164.5163 -706.6737,165.2649 l -612.1068,5.2092 c -22.4416,0.1909 -348.8973,-28.1546 -361.0977,95.774 -11.4985,116.7995 292.6147,154.8567 316.1902,154.8964 l 1297.4772,2.187"
       inkscape:connector-curvature="0"
       sodipodi:nodetypes="csaaasccaaaaaaasaaasccaaaaaaaaaacassasc" />
    <path
       style="color:#000000;font-style:normal;font-variant:normal;font-weight:normal;font-stretch:normal;font-size:medium;line-height:normal;font-family:sans-serif;text-indent:0;text-align:start;text-decoration:none;text-decoration-line:none;text-decoration-style:solid;text-decoration-color:#000000;letter-spacing:normal;word-spacing:normal;text-transform:none;direction:ltr;block-progression:tb;writing-mode:lr-tb;baseline-shift:baseline;text-anchor:start;white-space:normal;clip-rule:nonzero;display:inline;overflow:visible;visibility:visible;opacity:1;isolation:auto;mix-blend-mode:normal;color-interpolation:sRGB;color-interpolation-filters:linearRGB;solid-color:#000000;solid-opacity:1;fill:#000000;fill-opacity:1;fill-rule:evenodd;stroke:none;stroke-width:70;stroke-linecap:round;stroke-linejoin:round;stroke-miterlimit:4;stroke-dasharray:none;stroke-dashoffset:0;stroke-opacity:1;color-rendering:auto;image-rendering:auto;shape-rendering:auto;text-rendering:auto;enable-background:accumulate"
       d="M -3031.1953 2176.9805 C -3098.7095 2177.2113 -3167.4295 2189.6487 -3229.707 2220.9531 C -3303.7011 2258.1469 -3366.3322 2322.7312 -3390.8926 2405.0176 C -3411.5232 2474.1379 -3402.9064 2551.8432 -3361.6797 2613.0723 C -3341.1359 2643.5834 -3313.1692 2669.0343 -3280.0684 2686.0957 C -3246.9229 2703.1802 -3209.3728 2711.4114 -3171.7148 2708.8848 C -3131.9968 2706.2199 -3093.8937 2691.6834 -3062.3789 2667.8203 C -3030.8929 2643.9793 -3006.8485 2611.5327 -2992.791 2574.9238 C -2972.664 2522.5089 -2973.9156 2463.4757 -2996.2461 2411.9609 C -3018.5766 2360.4463 -3060.8053 2319.1752 -3112.8184 2298.0312 C -3139.2794 2287.2746 -3167.559 2282.0828 -3195.7988 2282.3203 C -3136.9263 2253.4128 -3067.7293 2243.8295 -2999.0781 2247.8789 C -2963.3999 2249.9834 -2928.8799 2255.6979 -2897.8242 2267.5723 C -2866.9529 2279.3763 -2838.8463 2297.8442 -2817.6816 2321.5742 C -2796.5772 2345.2369 -2781.5942 2375.2348 -2773.8496 2407.1348 C -2768.066 2430.9574 -2766.1394 2456.8201 -2765.5488 2484.0527 C -2765.8344 2487.14 -2766.2038 2490.2154 -2766.4004 2493.3145 A 35.0035 35.0035 0 0 0 -2766.4688 2495.7305 L -2765.5078 2663.2109 L -2765.5078 2663.2871 L -2765.5078 2663.5332 A 35.0035 35.0035 0 0 0 -2695.5098 2663.3809 L -2695.5098 2663.1328 L -2695.3066 2512.502 C -2695.2946 2503.9003 -2695.3377 2495.113 -2695.4727 2486.252 C -2687.4648 2414.2204 -2647.6317 2344.7532 -2589.1504 2302.1035 C -2527.5622 2257.188 -2443.9559 2240.9828 -2370.0469 2259.6367 C -2317.2815 2272.9542 -2268.4028 2303.6417 -2234.1699 2345.543 C -2199.971 2387.4025 -2179.8018 2441.4302 -2178.8379 2495.1641 C -2178.0963 2536.5037 -2188.4075 2578.5846 -2207.3438 2616.3516 C -2226.3122 2654.1828 -2253.9891 2688.1628 -2286.959 2716.127 C -2352.9554 2772.1032 -2439.7545 2803.7792 -2528.9902 2816.2207 C -2708.0453 2841.1849 -2895.871 2791.8432 -3091.4141 2785.959 C -3151.132 2784.162 -3217.0096 2786.4499 -3277.5781 2816.0684 C -3308.029 2830.9589 -3336.2471 2852.6912 -3356.9863 2881.8887 C -3377.8776 2911.3003 -3390.3134 2947.4956 -3388.3652 2985.3809 C -3386.4851 3021.9392 -3371.4628 3055.4539 -3349.4648 3082.1738 C -3327.6241 3108.7026 -3299.6578 3127.9764 -3270.25 3141.3457 C -3211.7173 3167.9558 -3149.998 3171.359 -3094.1289 3174.8398 C -2877.2699 3188.351 -2652.1986 3202.1093 -2435.0527 3144.666 C -2326.3775 3115.9173 -2220.862 3069.0392 -2130.5273 2999.1191 C -2040.059 2929.0957 -1965.726 2835.7254 -1925.6426 2726.6797 C -1903.7697 2667.175 -1893.04 2607.5059 -1877.8594 2552.3633 C -1870.7363 2578.5374 -1859.3793 2603.626 -1843.7148 2626.3301 C -1803.0306 2685.2977 -1735.8263 2724.0515 -1663.4062 2726.8438 C -1599.1658 2729.3205 -1535.9433 2703.2295 -1492.0742 2656.2969 C -1448.2143 2609.3741 -1426.4784 2544.6304 -1432.9922 2480.7773 C -1437.6186 2435.4268 -1456.1178 2392.3815 -1485.1777 2357.623 C -1514.2128 2322.8943 -1552.9726 2297.34 -1595.8809 2283.8262 C -1608.2394 2279.9339 -1620.8701 2277.1836 -1633.6094 2275.3223 C -1587.6064 2262.8143 -1537.8111 2260.2039 -1488.875 2265.6328 C -1451.756 2269.7508 -1415.8629 2278.3 -1383.9062 2293.2285 C -1352.1031 2308.0852 -1323.6371 2329.8339 -1302.5039 2356.6387 C -1281.4125 2383.3903 -1266.9818 2416.1904 -1259.8301 2450.6992 C -1256.9748 2464.4772 -1255.4502 2478.9045 -1254.4434 2493.6445 A 35.0035 35.0035 0 0 0 -1254.4688 2494.5625 L -1255.5801 2685.1855 A 35.0035 35.0035 0 0 0 -1185.5859 2686.043 L -1183.3105 2564.207 C -1182.8904 2541.7091 -1182.643 2518.377 -1184.0156 2494.541 C -1173.3921 2423.0622 -1131.1338 2355.394 -1071.375 2314.8281 C -1010.306 2273.3729 -929.65498 2259.2608 -858.13867 2277.5195 C -805.42269 2290.9784 -756.6253 2321.7244 -722.40039 2363.627 C -688.2083 2405.4892 -667.97664 2459.4503 -666.83398 2513.1875 C -665.95269 2554.6328 -676.11271 2596.8508 -694.92188 2634.791 C -711.35038 2667.9292 -734.42438 2698.1581 -761.875 2724.0391 C -781.25985 2737.3678 -799.71496 2751.7762 -817.36328 2766.8359 C -875.91745 2803.8895 -945.2745 2826.3044 -1016.252 2836.3887 C -1195.5061 2861.8565 -1383.428 2812.2608 -1578.9668 2803.8809 C -1635.7663 2801.4467 -1698.1484 2802.3835 -1756.9961 2827.7305 C -1786.5585 2840.4635 -1814.5044 2859.3394 -1836.3965 2885.3418 C -1858.4272 2911.5086 -1873.5852 2944.3116 -1876.3086 2980.1699 C -1879.1999 3018.24 -1867.7072 3055.1455 -1847.1777 3085.3965 C -1826.7823 3115.4496 -1798.3454 3138.0401 -1767.1602 3153.1543 C -1705.1073 3183.2287 -1636.4589 3183.0066 -1574.7617 3173.7578 C -1466.7297 3157.5633 -1367.3199 3113.5445 -1274.6152 3064.9102 C -1181.9711 3016.3076 -1094.4744 2962.6402 -1003.1973 2921.8105 C -977.43596 2910.2871 -951.44457 2900.0943 -925.43555 2892.1152 C -931.99047 2903.9978 -937.87726 2916.3804 -942.87305 2929.3516 C -955.39956 2961.8757 -962.11041 2997.4228 -959.80078 3033.623 C -957.48228 3069.9624 -945.97329 3106.2558 -923.99609 3137.0195 C -893.7851 3179.3088 -846.50716 3206.8303 -795.18359 3212.9336 C -743.93835 3219.0275 -692.05485 3203.4724 -652.35938 3170.9492 C -612.72119 3138.473 -587.55506 3091.1086 -582.11523 3040.4473 C -576.68281 2989.8549 -591.12457 2938.7441 -621.46289 2898.2598 C -645.63191 2866.0078 -678.4234 2842.1209 -714.22656 2826.9375 C -729.0399 2820.6555 -744.28142 2815.9574 -759.69922 2812.5156 C -749.06277 2804.9464 -738.71081 2796.8969 -728.70117 2788.3242 C -725.26762 2785.3836 -721.93968 2782.3119 -718.59766 2779.2578 C -699.31051 2766.235 -679.35882 2754.624 -658.69922 2744.9141 C -616.36787 2725.0183 -570.71317 2713.05 -525.72656 2712.8281 C -480.92951 2712.6071 -436.07046 2724.4966 -400.22461 2748.3457 C -364.64103 2772.0204 -337.26701 2808.8917 -327.74219 2848.8242 C -318.98579 2885.5352 -325.12138 2926.7239 -344.19727 2959.2891 C -356.27998 2979.9158 -373.94133 2997.671 -394.47656 3010.5645 C -410.81361 3015.5702 -426.57391 3022.5019 -441.24219 3031.502 A 35.0035 35.0035 0 0 0 -413.37109 3095.002 C -397.10181 3090.379 -381.62052 3083.6743 -366.97852 3075.5273 C -354.52613 3072.4349 -341.65443 3071.0501 -328.97656 3071.6152 C -302.76406 3072.7838 -276.41189 3082.1627 -255.35742 3097.8203 C -234.30288 3113.478 -217.73696 3136.016 -209.07422 3160.7832 C -200.41147 3185.5503 -199.32004 3213.5001 -206.02539 3238.8672 C -212.56413 3263.604 -226.71369 3287.2579 -245.55273 3306.7285 C -264.47833 3326.2887 -288.31333 3342.1064 -314.4668 3353.8848 C -367.00482 3377.5456 -428.14154 3385.1672 -490.66797 3386.3945 C -617.71476 3388.8885 -747.13254 3376.9545 -879.1582 3378.0781 L -1491.2656 3383.2871 C -1556.2485 3383.8401 -1624.01 3377.8543 -1694.3633 3381.4023 C -1730.5109 3383.2254 -1769.591 3388.9573 -1806.1094 3407.7051 C -1824.4806 3417.1364 -1841.9447 3429.8781 -1856.3438 3446.6328 C -1870.8247 3463.483 -1881.8469 3484.0652 -1886.4102 3507.3184 C -1890.9572 3530.4883 -1888.581 3553.7778 -1881.2617 3574.9668 C -1873.9784 3596.0512 -1862.0375 3614.5225 -1847.5781 3629.9316 C -1818.7853 3660.6156 -1781.4952 3678.2311 -1744.8906 3688.3008 C -1673.1363 3708.04 -1601.6306 3703.8444 -1535.9336 3703.9551 L -238.45703 3706.1426 A 35.0035 35.0035 0 1 0 -238.33789 3636.1426 L -1535.8164 3633.9551 C -1604.011 3633.8402 -1668.9804 3636.583 -1726.3223 3620.8086 C -1754.2657 3613.1215 -1779.5166 3600.1656 -1796.5332 3582.0312 C -1804.9786 3573.0312 -1811.4538 3562.6653 -1815.0996 3552.1113 C -1818.7092 3541.6617 -1819.6196 3530.4753 -1817.7207 3520.7988 C -1815.811 3511.0678 -1810.6833 3500.9003 -1803.2559 3492.2578 C -1795.7465 3483.5198 -1785.6722 3475.8986 -1774.1406 3469.9785 C -1750.8529 3458.0231 -1721.8316 3452.8776 -1690.8379 3451.3145 C -1626.9087 3448.0903 -1560.1353 3453.8744 -1490.6699 3453.2832 L -878.5625 3448.0742 C -751.23706 3446.9906 -621.55867 3458.9773 -489.29492 3456.3809 C -422.16608 3455.0632 -351.42711 3447.3013 -285.72266 3417.7109 C -252.7549 3402.8637 -221.40733 3382.4408 -195.24609 3355.4023 C -168.99829 3328.2746 -148.38107 3294.706 -138.34961 3256.7559 C -127.99601 3217.587 -129.62208 3175.9143 -142.99805 3137.6719 C -156.37401 3099.4294 -181.07614 3065.8271 -213.58594 3041.6504 C -236.69998 3024.4611 -263.26941 3012.5401 -291.22656 3006.3691 C -288.64491 3002.5455 -286.13728 2998.6673 -283.79688 2994.6719 C -255.29691 2946.0186 -246.56999 2887.4294 -259.65234 2832.582 C -273.80475 2773.2484 -312.06863 2722.9206 -361.44922 2690.0664 C -410.56752 2657.3869 -468.81962 2642.5477 -526.07227 2642.8301 C -561.29486 2643.0038 -595.83927 2648.7928 -628.89648 2658.7051 C -607.57007 2613.1485 -595.76293 2562.8033 -596.84961 2511.6992 C -598.33943 2441.6356 -624.04735 2373.3876 -668.1875 2319.3457 C -712.29484 2265.3438 -773.55805 2226.8685 -840.82227 2209.6953 C -932.53488 2186.2803 -1032.3764 2203.748 -1110.6914 2256.9102 C -1153.307 2285.8388 -1188.3694 2324.641 -1213.5039 2369.0879 C -1222.6249 2349.4033 -1233.8929 2330.6043 -1247.5352 2313.3008 C -1276.1189 2277.0461 -1313.3284 2248.9367 -1354.2793 2229.8066 C -1395.0766 2210.7482 -1438.464 2200.7948 -1481.1562 2196.0586 C -1561.2504 2187.173 -1645.9524 2196.1882 -1720.6914 2233.9121 C -1758.0804 2252.7839 -1792.3698 2278.6263 -1820.1426 2311.043 C -1828.7269 2321.0626 -1836.56 2331.7447 -1843.7246 2342.8809 C -1896.4636 2392.8126 -1923.9375 2459.305 -1942.2754 2522.6211 C -1960.5514 2585.7232 -1971.0965 2647.4472 -1991.3438 2702.5293 C -2026.1943 2797.3392 -2092.0877 2880.846 -2173.373 2943.7617 C -2254.7921 3006.781 -2351.6613 3050.1981 -2452.9551 3076.9941 C -2655.747 3130.6402 -2873.0918 3118.4748 -3089.7754 3104.9746 C -3145.424 3101.5075 -3198.0961 3097.253 -3241.2793 3077.6211 C -3262.7296 3067.8694 -3281.754 3054.2854 -3295.4219 3037.6836 C -3308.9327 3021.2727 -3317.4678 3001.02 -3318.457 2981.7852 C -3319.4798 2961.896 -3312.5275 2940.1779 -3299.918 2922.4258 C -3287.1564 2904.4595 -3268.3472 2889.476 -3246.8281 2878.9531 C -3203.457 2857.7443 -3149.4508 2854.2447 -3093.5195 2855.9277 C -2908.9529 2861.4817 -2716.9077 2913.0982 -2519.3242 2885.5508 C -2420.2405 2871.7363 -2320.6918 2836.5259 -2241.6816 2769.5117 C -2202.1483 2735.9806 -2168.4109 2694.8833 -2144.7676 2647.7285 C -2121.0922 2600.5095 -2107.8859 2547.6258 -2108.8496 2493.9102 C -2110.1081 2423.7511 -2135.7619 2355.3556 -2179.9609 2301.2559 C -2224.1258 2247.1978 -2285.5383 2208.7736 -2352.918 2191.7676 C -2447.8533 2167.8069 -2551.2872 2187.8535 -2630.3965 2245.5469 C -2667.2559 2272.428 -2697.8438 2306.8955 -2720.7402 2345.8633 C -2731.7018 2320.2614 -2746.551 2296.1669 -2765.4434 2274.9844 C -2794.9892 2241.8573 -2832.5361 2217.5968 -2872.8262 2202.1914 C -2912.9322 2186.8565 -2954.5814 2180.3835 -2994.957 2178.002 C -3004.8126 2177.4207 -3014.7246 2177.0791 -3024.668 2176.998 L -3024.666 2176.9961 C -3026.8411 2176.9784 -3029.0174 2176.973 -3031.1953 2176.9805 z M -1669.9355 2342.6621 C -1667.9323 2342.6554 -1665.9291 2342.6822 -1663.9277 2342.7422 C -1647.917 2343.2218 -1632.0103 2345.8348 -1616.9062 2350.5918 C -1586.732 2360.0951 -1558.99 2378.4668 -1538.8789 2402.5215 C -1518.7926 2426.5467 -1505.7786 2457.0056 -1502.6289 2487.8809 C -1498.2451 2530.8542 -1513.7446 2576.9721 -1543.2109 2608.4961 C -1572.668 2640.0102 -1617.6463 2658.5567 -1660.707 2656.8965 C -1709.2278 2655.0258 -1758.0475 2627.2311 -1786.0957 2586.5781 C -1814.2989 2545.7005 -1823.5221 2490.3817 -1811.3789 2441.3477 C -1806.8178 2422.9299 -1799.3296 2405.0522 -1789.5586 2388.3535 C -1767.1664 2368.923 -1740.0965 2354.6429 -1711.5762 2347.6973 C -1697.9935 2344.3893 -1683.9581 2342.7091 -1669.9355 2342.6621 z M -3194.2246 2352.4238 C -3175.319 2352.3908 -3156.4076 2355.8756 -3139.1797 2362.8789 C -3104.724 2376.8855 -3075.2654 2405.6772 -3060.4727 2439.8027 C -3045.6799 2473.9284 -3044.8057 2515.1101 -3058.1387 2549.832 C -3067.5287 2574.2858 -3083.9735 2596.3691 -3104.6348 2612.0137 C -3125.267 2627.6364 -3150.8555 2637.3271 -3176.4004 2639.041 C -3200.6654 2640.669 -3225.9762 2635.2249 -3247.9961 2623.875 C -3270.0605 2612.5022 -3289.4963 2594.9437 -3303.6152 2573.9746 C -3328.9568 2536.3378 -3337.0531 2485.9827 -3327.502 2439.9141 C -3312.7764 2405.8934 -3283.5199 2377.1446 -3249.2324 2363.0684 C -3232.0288 2356.0057 -3213.1302 2352.4564 -3194.2246 2352.4238 z M -1611.7559 2873.0801 C -1601.9241 2873.1176 -1591.9764 2873.3891 -1581.9609 2873.8184 C -1440.0149 2879.9015 -1293.7026 2911.8151 -1143.9336 2913.7402 C -1199.2619 2943.4493 -1253.0026 2974.5243 -1307.1328 3002.9219 C -1396.9095 3050.0201 -1489.3773 3090.1764 -1585.1367 3104.5312 C -1639.1433 3112.6271 -1693.3968 3111.1139 -1736.627 3090.1621 C -1758.0833 3079.7631 -1776.8001 3064.439 -1789.2539 3046.0879 C -1801.5736 3027.9345 -1808.0465 3005.7308 -1806.5078 2985.4707 C -1805.054 2966.3292 -1796.3402 2946.4538 -1782.8457 2930.4258 C -1769.2129 2914.2334 -1750.3994 2901.1063 -1729.3027 2892.0195 C -1697.4502 2878.2999 -1660.5443 2873.6332 -1621.5469 2873.123 C -1618.2971 2873.0805 -1615.0331 2873.0676 -1611.7559 2873.0801 z M -825.4043 2875.3711 C -796.09919 2875.3961 -767.20944 2880.5032 -741.55469 2891.3828 C -716.01454 2902.2138 -693.26536 2919.1692 -677.47656 2940.2383 C -657.923 2966.3311 -648.26299 3000.8456 -651.71289 3032.9746 C -655.15538 3065.0347 -672.00378 3096.5517 -696.7207 3116.8027 C -721.38032 3137.0068 -755.54637 3147.1542 -786.91602 3143.4238 C -818.20733 3139.7027 -848.8843 3121.7376 -867.03516 3096.3301 C -880.465 3077.531 -888.3816 3053.6138 -889.94141 3029.166 C -891.5101 3004.579 -886.91228 2978.8264 -877.54688 2954.5098 C -866.66389 2926.2529 -849.3214 2900.0093 -828.27344 2875.4883 C -827.31886 2875.4783 -826.3582 2875.3703 -825.4043 2875.3711 z "
       transform="translate(0,-1048)"
       id="path4140-7-4-0-7-5" />
    <path
       style="color:#000000;font-style:normal;font-variant:normal;font-weight:normal;font-stretch:normal;font-size:medium;line-height:normal;font-family:sans-serif;text-indent:0;text-align:start;text-decoration:none;text-decoration-line:none;text-decoration-style:solid;text-decoration-color:#000000;letter-spacing:normal;word-spacing:normal;text-transform:none;direction:ltr;block-progression:tb;writing-mode:lr-tb;baseline-shift:baseline;text-anchor:start;white-space:normal;clip-rule:nonzero;display:inline;overflow:visible;visibility:visible;opacity:1;isolation:auto;mix-blend-mode:normal;color-interpolation:sRGB;color-interpolation-filters:linearRGB;solid-color:#000000;solid-opacity:1;fill:#000000;fill-opacity:1;fill-rule:evenodd;stroke:none;stroke-width:200;stroke-linecap:round;stroke-linejoin:round;stroke-miterlimit:4;stroke-dasharray:none;stroke-dashoffset:0;stroke-opacity:1;color-rendering:auto;image-rendering:auto;shape-rendering:auto;text-rendering:auto;enable-background:accumulate"
       d="m 5440.6133,-710.30469 c -68.4765,0.20954 -138.2121,14.63622 -202.5977,47.97461 -87.0673,45.08289 -158.4992,122.88026 -186.582,223.48242 -0.8658,3.10158 -1.5919,6.24001 -2.3672,9.36524 -6.7635,15.44585 -12.4785,30.82469 -17.332,45.85742 -22.8073,70.6404 -29.8661,132.88889 -43.8438,180.57031 -25.2152,86.0156 -78.6799,166.523331 -148.2754,230.162112 -69.9109,63.927325 -156.7745,112.570138 -250.5019,145.972658 -187.9937,66.99705 -401.6192,73.03081 -620.3262,69.80078 -53.9473,-0.79674 -96.1183,-4.44404 -122.2598,-16.13086 -12.5537,-5.61226 -21.7598,-13.13509 -26.3261,-19.07617 l 0,-0.002 c -4.0265,-5.24 -5.2678,-11.47058 -5.2481,-12.03907 0.02,-0.56865 1.5392,-6.32835 5.584,-11.07031 4.5594,-5.34522 13.5173,-12.0035 25.4981,-16.7207 24.9499,-9.82352 64.699,-11.56618 114.996,-8.65235 179.9512,10.42502 381.5942,48.20245 591.1915,-1.99218 105.576,-25.28347 210.7556,-74.234303 293.6562,-156.95312938 84.036,-83.85176662 140.2302,-199.97305062 136.2656,-326.70117062 -2.5782,-82.41338 -30.8435,-162.29558 -81.4492,-227.92969 -50.6476,-65.68859 -121.1277,-113.73952 -201.3672,-136.37109 -62.5024,-17.62882 -128.4447,-19.12467 -191.6816,-4.34571 -63.2369,14.77897 -121.6873,45.34536 -169.9024,88.84961 -9.331,8.41936 -18.0751,17.39261 -26.4961,26.63672 -28.6128,-29.76657 -61.9039,-53.9426 -97.9296,-72.14062 -46.2702,-23.37288 -94.5726,-36.04478 -141.3457,-42.20313 -89.1782,-11.74156 -184.6251,-1.09417 -270.6075,43.35742 -87.2351,45.09924 -158.8116,123.129 -186.5781,224.10547 -23.0886,83.96523 -13.0324,176.70798 38.4375,253.57617 25.5766,38.19741 60.1802,70.2257 102.1836,92.263677 42.1446,22.112073 89.7114,33.073555 138.6699,30.132812 52.0283,-3.125132 100.9608,-21.658632 141.8907,-52.624999 40.8443,-30.90169 71.2744,-72.31378 89.0644,-119.48633 25.1092,-66.57994 23.3111,-139.4044 -5.0527,-204.66406 -9.5707,-22.02033 -21.8907,-42.36668 -36.4688,-60.76758 14.3131,3.91022 27.6984,8.79861 39.6309,14.82617 21.5408,10.88114 40.4744,26.30317 54.084,43.84766 l -0,0 c 13.5267,17.43767 24.0375,40.0188 29.9492,64.82031 1.8453,7.74139 3.215,16.34828 4.3965,25.35352 -1.1906,25.16165 0.08,50.43432 3.8672,75.5039 l 4.7402,111.37696 a 100.01,100.01 0 0 0 199.8575,-7.49219 l -3.8047,-117.45899 c -0.6661,-20.56153 -1.4372,-42.88651 -3.6934,-66.59179 1.5738,-12.73966 4.363,-25.29802 8.4824,-37.23828 9.984,-28.93862 27.9769,-56.13501 50.7051,-76.64258 22.7283,-20.50765 51.6263,-35.62123 81.4356,-42.58789 29.8092,-6.96666 62.4139,-6.22606 91.8769,2.08398 37.4885,10.57363 73.2294,34.81998 97.2715,66.00196 24.0841,31.23644 38.687,72.21448 39.9336,112.0625 1.92,61.37486 -28.4451,129.79505 -77.6289,178.87109 -50.3194,50.208983 -121.5268,85.482924 -198.9707,104.029296 -156.4425,37.46505254 -337.2361,8.171814 -533.0449,-3.171875 -55.8378,-3.234821 -125.8606,-6.904082 -199.8321,22.220703 -37.4798,14.7569438 -74.4552,37.926401 -104.3926,73.023437 -30.4517,35.700324 -51.4721,81.360359 -53.2988,133.916019 -1.887,54.29444 17.1246,102.57307 46.5488,140.85937 a 100.01,100.01 0 0 0 0,0.002 c 28.8858,37.58531 65.7158,62.99481 103.2774,79.7871 74.0904,33.12298 145.1007,32.70081 200.9336,33.5254 223.5068,3.30091 461.8145,0.0848 690.418,-81.38477 114.5711,-40.83078 225.0482,-101.47533 318.3281,-186.77149 83.5988,-76.443636 151.9949,-172.1885277 192.0293,-281.67773 8.1375,5.42162 16.5318,10.537853 25.3359,15.115235 42.5104,22.101725 90.5135,32.819649 139.8359,29.28125 52.0148,-3.731539 100.2662,-22.920414 140.4219,-53.568355 39.9938,-30.5242 69.7826,-70.71283 88.291,-115.71875 a 100.01,100.01 0 0 0 0,-0.002 c 20.9289,-50.89169 26.9604,-106.712 16.4629,-161.46484 -7.0234,-36.63357 -21.3264,-71.22248 -41.9433,-102.05859 8.6748,2.99606 17.0521,6.26861 24.6992,10.13085 21.5287,10.87333 40.4558,26.29519 54.0625,43.84375 13.5246,17.44272 24.0324,40.02963 29.9434,64.8418 2.9814,12.51523 4.9708,26.7316 6.3691,42.49805 -0.7332,18.35231 -0.1778,36.83809 1.7637,55.35742 l 4.8691,114.40234 a 100.01,100.01 0 0 0 199.8574,-7.49023 l -3.8047,-117.46094 c -0.4454,-13.75073 -1.0936,-28.51799 -2.0312,-43.71875 4.6478,-47.39637 27.9003,-95.63551 62.6367,-125.81055 a 100.01,100.01 0 0 0 0,0 c 43.782,-38.03289 113.4475,-54.10525 169.4668,-39.09765 36.6548,9.81986 71.623,32.47439 95.4453,61.83203 23.8079,29.34006 38.6926,68.14302 40.5683,105.74023 2.9581,59.29117 -27.1329,126.84996 -76.1445,174.1875 -50.3561,48.63617 -121.9264,81.880267 -199.5547,98.41602 -156.8778,33.416891 -338.3118,-0.287589 -537.5039,-4.873047 -56.7834,-1.30717 -126.2305,-1.239149 -197.9004,29.388672 -36.225,15.480654 -71.7185,38.7002872 -100.791,72.603516 -29.4745,34.371783 -50.6137,77.819199 -55.0254,128.031249 -4.7284,53.82154 10.7325,103.78852 38.2207,144.86914 27.1041,40.50655 63.897,69.52437 103.4922,88.73633 78.2728,37.97862 158.949,35.62768 226.4238,24.5332 117.7749,-19.365 220.4723,-69.5076 312.1797,-121.15429 72.5883,-40.87939 139.378,-82.90478 205.0059,-117.52149 -0.3102,8.36371 -0.3785,16.79463 0.066,25.35156 2.3934,46.03701 16.1625,92.76518 44.8554,134.05274 40.1329,57.74897 101.6448,94.06996 170.5196,102.55273 68.6165,8.45098 135.8081,-11.74653 188.5234,-55.01367 52.5274,-43.11276 84.6209,-104.088 91.6309,-170.73047 l 0,-0.002 C 6439.845,156.68682 6421.23,91.642322 6381.7656,38.949219 a 100.01,100.01 0 0 0 0,-0.002 c -17.0465,-22.76062 -37.1039,-41.8296077 -58.9492,-57.644532 7.9143,-4.578292 15.8643,-8.943632 23.8809,-12.857422 42.0834,-20.545652 86.6232,-31.64897 127.3613,-30.611328 39.9318,1.017114 78.9214,14.743893 105.1074,36.53125 25.1299,20.908681 41.6663,54.269172 42.1934,81.333985 0.3761,19.31469 -6.7735,40.989308 -18.5684,56.289061 -11.7948,15.2997 -30.9362,27.7283 -49.7109,32.2793 a 100.01,100.01 0 0 0 18.1699,197.04101 c 15.343,0.82775 34.9155,11.67212 43.752,24.24219 8.8365,12.57023 12.4151,34.6577 8,49.375 -2.9855,9.95149 -9.9755,21.82067 -20.2266,32.10352 a 100.01,100.01 0 0 0 0,0.002 c -10.4758,10.50819 -24.989,20.32051 -42.1992,28.01953 -35.028,15.66978 -80.9206,22.64657 -132.7657,24.05469 -109.0788,2.96261 -225.1328,-7.12117 -348.2558,-6.11133 l -612.3223,5.02344 c -59.9011,0.4913 -130.6409,-3.98237 -209.0937,11 -41.1521,7.85893 -87.1177,22.50244 -129.4317,54.5039 -21.342,16.14069 -41.2293,36.49463 -57.0351,61.9668 a 100.01,100.01 0 0 0 0,0.002 c -15.9318,25.67543 -27.1126,55.57967 -30.0196,88.96289 -3.0636,35.18165 3.5619,68.28699 16.3301,97.69922 12.6618,29.16689 30.8126,53.43407 51.4531,73.23633 40.946,39.28306 88.9951,59.3745 133.1465,70.61524 84.491,21.51095 161.4779,16.3444 225.291,16.45898 l 1174.2696,2.10938 a 100.01,100.01 0 1 0 0.3594,-200 l -1174.2696,-2.10938 c -70.6864,-0.12692 -130.4558,1.39604 -176.3066,-10.27734 -21.0194,-5.35143 -36.4492,-13.84502 -44.0313,-21.11914 -3.6235,-3.47634 -5.7251,-6.87957 -6.4531,-8.55664 -0.1528,-0.35195 -0.1521,-0.48553 -0.2207,-0.74805 0.1213,-0.27859 0.1547,-0.43883 0.3926,-0.82227 1.0336,-1.66567 3.6032,-4.77603 7.7344,-7.90039 8.6324,-6.52863 24.7188,-13.44921 46.3085,-17.57226 47.0309,-8.98162 105.3709,-6.90057 173.2168,-7.45703 l 612.3223,-5.02149 c 110.376,-0.90529 227.7031,9.42209 352.0449,6.04492 64.8654,-1.76175 137.4584,-9.41117 209.0059,-41.41797 a 100.01,100.01 0 0 0 0,0 c 36.077,-16.13909 71.4274,-38.54928 102.1661,-69.38281 30.9636,-31.05941 56.3653,-69.87267 70.1543,-115.83594 22.822,-76.07339 9.7265,-156.89051 -35.9493,-221.86523 -4.7715,-6.78761 -9.8882,-13.23107 -15.205,-19.45508 38.8379,-51.74034 59.1676,-114.49541 57.9062,-179.269529 -1.8121,-93.055433 -47.0104,-175.249961 -114.2363,-231.183591 -66.17,-55.05497 -147.7595,-80.68253 -227.9317,-82.72461 -22.1412,-0.56396 -43.891,0.7992 -65.2441,3.52539 4.2945,-26.57957 6.0943,-53.86711 4.7051,-81.71289 -4.0487,-81.15177 -33.9087,-158.81017 -85.0176,-221.79492 a 100.01,100.01 0 0 0 -0,0 c -51.0948,-62.96719 -120.7984,-108.05039 -198.9903,-128.99805 -123.4739,-33.07876 -255.883,-2.53099 -352.3847,81.29883 -9.5206,8.27042 -18.4363,17.07039 -27.0118,26.13672 -30.1955,-33.45582 -66.1354,-60.34107 -105.33,-80.13672 -46.2912,-23.37983 -94.6302,-36.04452 -141.4512,-42.16602 -22.3005,-2.91562 -44.987,-4.42531 -67.8125,-4.35547 z m -130.5156,293.85352 c 3.5455,-0.0602 7.0499,0.15983 10.4043,0.67969 13.5334,2.09741 28.4217,9.56842 38.6777,19.69336 10.3338,10.20176 18.4857,25.43619 21.3555,40.40429 2.8889,15.06808 1.1005,32.88213 -5.0098,47.74024 -5.4259,13.19385 -14.6338,25.1474 -24.6641,32.80273 -9.868,7.53158 -22.6395,12.29499 -33.3925,13.06641 -10.2476,0.73516 -22.7849,-1.79605 -33.2637,-7.24414 -10.6326,-5.52799 -21.2083,-14.9712 -28.7207,-26.22657 -11.8412,-17.7407 -17.478,-44.72148 -14.7832,-70.77734 2.4625,-4.43494 5.004,-8.61093 7.6347,-12.4375 9.8617,-14.34458 21.5213,-24.81422 31.6192,-30.25586 8.4934,-4.577 19.506,-7.26471 30.1426,-7.44531 z m -1439.543,25.76758 c 9.5678,0.0464 19.1277,1.72666 27.168,5.0332 16.0806,6.61311 31.9031,22.12583 38.8339,38.07227 6.9308,15.94639 7.4773,38.09838 1.3418,54.36718 -4.5031,11.94075 -13.0615,23.35018 -22.5996,30.56641 -9.4525,7.15155 -22.1775,11.81567 -33.2129,12.47851 -10.4987,0.63062 -23.1552,-2.03385 -33.7558,-7.5957 -10.7419,-5.63594 -21.3561,-15.14129 -28.9199,-26.4375 l 0,0 c -10.7845,-16.10628 -16.5322,-39.71034 -15.625,-63.28125 a 100.01,100.01 0 0 0 0.3496,-0.74023 c 7.085,-15.87835 23.0571,-31.23644 39.2012,-37.69336 8.0719,-3.22842 17.649,-4.81591 27.2168,-4.76953 z m 2291.9375,515.98632 c 8.7643,1.75823 16.9625,4.19174 24.2402,7.30665 14.9908,6.41614 27.5252,16.31261 34.9531,26.23046 8.8425,11.80655 13.713,29.62263 12.2696,43.34571 -1.4199,13.4992 -9.8512,29.04419 -19.6133,37.05664 -9.5745,7.85846 -25.826,12.50892 -37.1895,11.10937 -11.1053,-1.36776 -24.8774,-9.76253 -30.7324,-18.1875 -4.6559,-6.69956 -8.7188,-17.97943 -9.3594,-30.30078 -0.6619,-12.73205 1.9154,-28.33762 8.0997,-44.18555 a 100.01,100.01 0 0 0 0,-0.002 c 4.1162,-10.5485 10.0662,-21.37743 17.332,-32.37305 z m -761.4356,12.05274 c 62.641,1.44201 128.2602,7.58972 196.1407,12.90039 -70.867,37.46974 -140.8258,66.65996 -209.5684,77.96289 -44.3569,7.29334 -82.9742,4.37632 -106.666,-7.11914 -11.387,-5.52506 -20.1709,-13.43207 -24.5801,-20.02149 -4.0247,-6.01485 -5.4398,-13.5156 -5.209,-16.14257 0.2274,-2.58739 2.5891,-9.48024 7.6172,-15.34375 5.4299,-6.33207 15.0468,-13.53706 27.5606,-18.88477 25.8079,-11.0289 65.5109,-14.48403 114.705,-13.35156 z"
       id="path4140-7-4-0-31-2"
       inkscape:connector-curvature="0" />
    <path
       style="color:#000000;font-style:normal;font-variant:normal;font-weight:normal;font-stretch:normal;font-size:medium;line-height:normal;font-family:sans-serif;text-indent:0;text-align:start;text-decoration:none;text-decoration-line:none;text-decoration-style:solid;text-decoration-color:#000000;letter-spacing:normal;word-spacing:normal;text-transform:none;direction:ltr;block-progression:tb;writing-mode:lr-tb;baseline-shift:baseline;text-anchor:start;white-space:normal;clip-rule:nonzero;display:inline;overflow:visible;visibility:visible;opacity:1;isolation:auto;mix-blend-mode:normal;color-interpolation:sRGB;color-interpolation-filters:linearRGB;solid-color:#000000;solid-opacity:1;fill:#000000;fill-opacity:1;fill-rule:evenodd;stroke:none;stroke-width:140;stroke-linecap:round;stroke-linejoin:round;stroke-miterlimit:4;stroke-dasharray:none;stroke-dashoffset:0;stroke-opacity:1;color-rendering:auto;image-rendering:auto;shape-rendering:auto;text-rendering:auto;enable-background:accumulate"
       d="m 579.07812,1129.418 c -64.30776,0.1351 -129.50879,13.5901 -189.14257,44.4199 -80.38863,41.5596 -146.22551,113.7515 -171.42969,205.4101 -20.89989,76.0055 -11.53165,160.2739 34.43945,228.9297 22.87465,34.1623 53.8793,62.813 91.19336,82.3907 37.41291,19.6294 79.74205,29.3462 122.93164,26.7519 45.87936,-2.7558 89.38168,-19.2076 125.58985,-46.6015 36.14848,-27.349 63.29872,-64.2628 79.0957,-106.1504 22.26302,-59.0332 20.65278,-124.2565 -4.49609,-182.1192 -20.61573,-47.4328 -55.65505,-86.6503 -99.75391,-112.4746 18.89235,-0.7906 38.03618,-0.1052 57.06641,2.4004 31.60569,4.1614 61.34682,12.4966 86.88867,25.3984 25.30186,12.781 47.715,30.9055 64.26172,52.2364 16.48881,21.2563 28.63194,47.7496 35.42578,76.2519 4.14664,17.3965 6.38101,36.8707 7.85156,57.7637 -0.62121,15.989 -0.28464,32.0709 1.2793,48.1641 l -0.26563,-3.793 4.92969,115.7793 a 70.007,70.007 0 0 0 139.90039,-5.2442 l -3.80469,-117.4609 c -0.39057,-12.0574 -0.93215,-24.6718 -1.65234,-37.5273 4.32825,-57.6011 32.05184,-115.5229 74.99418,-152.8262 51.6191,-44.8409 129.685,-63.8651 196.1464,-47.7988 43.7201,10.5688 84.7656,35.8188 112.6622,69.707 27.7716,33.7364 44.0413,78.4138 43.7968,121.0351 -0.1951,34.0214 -10.5131,69.7155 -28.6758,101.2911 -18.2674,31.7577 -44.7673,60.4135 -76.1152,83.7461 -62.937,46.8445 -145.5826,72.5919 -232.7754,85.2226 -159.30635,23.0772 -329.50487,4.8293 -507.02732,2.834 -54.79321,-0.6159 -119.43511,-0.5687 -184.50196,26.7559 -32.82793,13.7859 -64.74534,34.5201 -90.46484,64.5293 -26.0315,30.3733 -44.36157,68.8859 -47.44531,112.5839 -3.49214,49.4852 13.20064,95.0181 40.39258,131.0821 26.77061,35.5052 61.9894,59.9328 98.46875,75.9687 72.15794,31.7194 144.18093,30.8439 204.26953,31.4883 196.31971,2.1053 399.91597,7.4401 603.13277,-32.625 105.62,-20.8234 213.0242,-54.6059 309.5762,-115.1387 97.1047,-60.8792 181.6939,-149.3752 225.291,-261.8769 20.7623,-53.5769 30.3948,-105.9281 38.7032,-154.7891 45.5292,50.6444 109.49,82.032 178.5742,85.4902 67.1397,3.361 133.3117,-20.006 183.0918,-66.2792 49.9274,-46.4103 78.6739,-111.6723 77.8418,-180.5684 -0.6544,-54.1805 -19.5673,-105.853 -52.4063,-147.7832 -5.9991,-7.6599 -12.5263,-14.7746 -19.289,-21.6172 22.426,5.1346 43.466,12.2661 62.205,21.7695 25.4895,12.927 48.0095,30.9896 64.6407,52.1856 16.56,21.1054 28.7937,47.4132 35.6308,75.6914 3.9207,16.216 6.147,34.2821 7.6406,53.6406 -0.6478,16.0319 -0.2652,32.1558 1.2969,48.291 l 4.918,115.4864 a 70.007,70.007 0 0 0 139.8984,-5.2422 l -3.8047,-117.461 c -0.431,-13.3071 -1.0601,-27.3109 -1.9375,-41.5976 4.5753,-56.6494 31.9202,-113.4894 74.0938,-150.125 51.6517,-44.8692 130.2091,-63.512 196.5137,-46.6348 43.3076,11.0235 83.9237,36.6507 111.8261,70.7852 27.8374,34.0548 44.5314,78.6973 45.4688,122.0742 0.7262,33.6058 -7.5984,68.7614 -23.3164,100.4785 -13.2198,26.6758 -31.9014,51.5158 -54.2735,73.1699 -18.9379,13.1174 -36.8885,27.1371 -53.9765,41.6797 -50.6365,31.2284 -111.3465,50.9184 -174.4551,59.8652 -163.3022,23.1512 -342.2479,-23.5199 -536.3359,-31.9531 -56.5524,-2.4572 -122.4036,-2.2503 -187.6797,25.832 a 70.007,70.007 0 0 0 -0,0 c -32.9154,14.1605 -64.6174,35.3413 -90.0254,65.5078 -25.685,30.4957 -43.6529,68.8426 -46.9316,112.1035 -3.483,45.9554 10.2203,89.1728 34.293,124.6133 23.8033,35.0443 56.2858,60.5831 91.416,77.5879 69.6237,33.7014 143.2904,32.5521 206.7754,23.0254 110.5528,-16.5899 210.0545,-61.0052 301.0312,-108.6758 89.9538,-47.1345 173.0281,-97.816 257.3691,-135.7969 -5.5755,24.2477 -8.0918,49.6825 -6.4414,75.7715 2.6055,41.1847 15.5311,82.5835 41.1075,118.4531 35.3514,49.5789 89.5406,81.127 149.4316,88.2891 59.7342,7.1435 118.9831,-10.6342 165.0879,-48.375 45.99,-37.6468 74.5984,-91.5464 80.8945,-150.0605 6.2813,-58.3761 -10.123,-116.2905 -44.9804,-162.8067 -23.7276,-31.6636 -54.2362,-55.7107 -87.5879,-72.5918 12.5011,-7.7393 25.1923,-14.7561 38.0898,-20.8222 36.866,-17.3394 75.925,-27.3602 113.0879,-27.5489 36.7832,-0.1867 73.1422,9.7586 100.8594,28.2051 27.1917,18.0967 47.9617,46.7195 54.7402,75.2109 6.1894,26.0154 1.5995,56.7241 -11.9258,79.793 l 0,0 c -7.8815,13.4427 -19.567,25.4168 -32.9883,34.5879 -16.8281,5.5995 -33.065,13.0917 -48.3574,22.4922 a 70.007,70.007 0 0 0 55.7773,126.9726 c 16.7521,-4.7565 32.7895,-11.2734 47.961,-19.2714 7.3243,-1.4785 14.7497,-2.3358 21.9882,-2.0176 17.904,0.7869 36.6324,7.4425 51.0176,18.1308 14.3852,10.6885 26.1615,26.6984 32.0821,43.6133 5.9205,16.9148 6.6986,36.7751 2.1191,54.1016 -4.4998,17.0247 -14.8049,34.7122 -29.1484,49.5312 -14.5171,14.9984 -33.6294,27.8729 -55.3399,37.6426 -43.8835,19.7475 -97.9092,27.0089 -155.8633,28.1289 -119.8992,2.3173 -244.6459,-9.1859 -374.4765,-8.082 l -590.6563,5.0215 c -64.2615,0.5464 -135.8887,-4.3279 -212.666,7.8047 -39.9263,6.3092 -83.757,18.6698 -123.6543,46.8769 l 0,-0 c -20.1068,14.2153 -38.7852,32.3323 -53.5254,55.0507 -14.8478,22.8845 -25.1942,49.7066 -27.7441,79.3926 -2.4036,27.9826 2.4587,54.7929 12.2324,78.9649 9.7172,24.0323 23.9559,44.6759 40.5527,61.9297 33.0253,34.3323 73.5182,53.9743 112.418,65.5507 75.5949,22.4971 147.623,18.7747 209.5312,18.8789 l 1252.0079,2.1094 a 70.007,70.007 0 1 0 0.2363,-140 l -1252.0078,-2.1074 c -65.4366,-0.1102 -123.3743,0.7619 -169.834,-13.0645 -22.1276,-6.5851 -40.3372,-16.8679 -51.4531,-28.4238 -5.4738,-5.6904 -9.4434,-11.8691 -11.6602,-17.3516 -2.1603,-5.3427 -2.8581,-10.769 -2.5371,-14.5058 0.3403,-3.962 2.1694,-9.7254 5.7031,-15.1719 3.6416,-5.6126 9.4312,-11.6548 16.9004,-16.9355 15.2549,-10.7851 37.8961,-18.6729 64.6856,-22.9063 56.6543,-8.9526 121.185,-5.4915 192.0058,-6.0937 l 590.6563,-5.0235 c 120.4211,-1.0239 245.6755,10.5811 375.9902,8.0625 67.153,-1.2978 140.3837,-8.8342 210.6094,-40.4355 35.3441,-15.9049 69.4882,-37.9859 98.4844,-67.9434 29.1694,-30.1365 52.4166,-67.6617 63.9043,-111.125 11.8777,-44.9397 10.0245,-92.2537 -5.3321,-136.1269 l 0,0 c -15.3565,-43.8733 -43.4156,-82.0157 -80.7266,-109.7383 -13.779,-10.238 -28.565,-18.8313 -44.0605,-25.7344 20.808,-48.6677 25.6718,-102.9331 13.289,-154.9805 -16.0173,-67.324 -58.5729,-122.8847 -113.373,-159.3554 -54.2744,-36.1209 -117.4315,-51.9676 -179.1367,-51.6543 -14.5277,0.074 -28.8746,1.0885 -43.0293,2.8262 7.7851,-30.2523 11.8189,-61.673 11.1289,-93.6016 -1.6429,-76.0254 -29.2926,-149.2392 -77.041,-207.6524 -47.6834,-58.3335 -113.2556,-99.4186 -185.6875,-117.8554 -112.9986,-28.7627 -234.8328,0.1497 -322.8594,76.6172 -17.82,15.4799 -33.8061,32.6713 -48.0215,51.1015 -2.5385,-3.5307 -5.0581,-7.0724 -7.7598,-10.5156 -30.398,-38.7416 -69.0032,-69.0926 -111.4609,-90.625 -42.2054,-21.4043 -86.5103,-33.5044 -129.6758,-40.2148 l 0,0 c -83.8875,-13.0411 -175.3772,-7.1703 -257.8808,33.791 -41.3204,20.5148 -79.2421,49.4606 -109.4024,86.791 -12.5857,15.5778 -23.5656,32.5257 -32.8262,50.4805 -53.1992,63.7627 -75.2655,140.9463 -89.0625,209.668 -15.0057,74.7423 -22.4586,142.6263 -43.7363,197.5332 -30.2577,78.0796 -93.0479,146.1596 -169.1152,193.8496 -76.62,48.0364 -167.3798,77.6863 -262.291,96.3984 -183.21218,36.1211 -377.02753,32.1066 -574.55277,29.9883 -59.89834,-0.6424 -111.73858,-3.0918 -149.42969,-19.6601 -18.4446,-8.1079 -33.67404,-19.69 -43.02344,-32.0899 -8.92846,-11.8416 -13.25669,-26.5786 -12.52539,-36.9414 0.65216,-9.2413 5.58915,-21.4109 14.09375,-31.334 8.81661,-10.2871 22.26757,-19.792 38.3711,-26.5547 32.79607,-13.7726 77.38048,-16.4228 128.72265,-15.8457 168.16506,1.8901 345.83814,22.2155 528.66989,-4.2695 100.9597,-14.625 206.7233,-44.8017 296.295,-111.4707 44.9063,-33.4243 84.7513,-75.6069 113.8808,-126.2481 29.2342,-50.8233 46.9683,-109.2577 47.3184,-170.2929 0.4435,-77.3432 -27.2335,-151.9298 -75.7071,-210.8145 -48.3484,-58.7328 -114.9677,-99.1907 -187.8554,-116.8105 -112.6412,-27.2296 -233.3655,2.1895 -320.85159,78.1875 -17.64445,15.3275 -33.51097,32.3224 -47.65234,50.5332 -2.78453,-3.9575 -5.58841,-7.9062 -8.57617,-11.7578 -30.25397,-39.0013 -68.90327,-69.7441 -111.75586,-91.3907 a 70.007,70.007 0 0 0 -0.002,0 c -42.61226,-21.525 -87.63972,-33.4303 -131.73632,-39.2363 -20.99802,-2.7647 -42.33361,-4.2013 -63.76954,-4.1562 z m 1343.34178,228.1543 c 12.4505,0.089 24.7668,1.8853 36.2071,5.3789 22.7548,6.9488 43.9735,21.3664 58.0683,39.3633 14.0022,17.8786 22.3737,41.37 22.6367,63.1523 0.3279,27.1445 -12.7467,57.3553 -33.1679,76.3379 -20.5686,19.1196 -51.9878,30.4332 -80.7754,28.9922 -32.3293,-1.6184 -66.876,-19.8016 -87.1504,-45.9395 -20.402,-26.3023 -29.8589,-64.6056 -24.1992,-98.1347 1.5019,-8.8979 4.0374,-17.846 7.4726,-26.6172 17.8939,-17.7693 40.5037,-31.1666 63.8965,-37.6739 11.9773,-3.3317 24.5612,-4.9487 37.0117,-4.8593 z m -1476.92771,19.4629 c 13.33698,0.065 26.66162,2.5209 38.43164,7.3613 23.5399,9.6807 44.79373,30.516 54.93945,53.8594 10.14571,23.3433 10.87994,53.0945 1.89844,76.9101 -6.49626,17.2256 -18.33632,33.1353 -32.57031,43.9043 -14.17432,10.7239 -32.33137,17.4698 -49.51563,18.502 -16.26753,0.9771 -34.15988,-2.9322 -49.49219,-10.9766 -15.43113,-8.0963 -29.64249,-20.9792 -39.9082,-36.3105 -15.86638,-23.6958 -22.95297,-56.1616 -20.26172,-87.7676 a 70.007,70.007 0 0 0 2.51953,-5.1699 c 10.37157,-23.2439 31.82446,-43.8723 55.45703,-53.3243 11.81635,-4.726 25.16497,-7.0529 38.50196,-6.9882 z M 1961.418,1875.7441 c 11.6332,-0.172 23.7173,0.063 36.164,0.6036 94.2502,4.0952 192.9467,21.1909 295.6485,31.3945 -15.2592,8.3636 -30.5244,16.7875 -45.6719,24.7246 -85.1269,44.6054 -170.7675,81.3199 -256.8281,94.2344 -48.1361,7.2234 -93.033,4.8857 -125.0039,-10.5899 -15.667,-7.5836 -28.6952,-18.5981 -36.6016,-30.2383 -7.6373,-11.2439 -11.286,-25.0505 -10.5039,-35.3691 0.7432,-9.8066 5.813,-22.2864 14.4121,-32.4961 8.8765,-10.5389 22.3011,-20.2203 38.2734,-27.0918 24.3745,-10.4861 55.2118,-14.6556 90.1114,-15.1719 z m 781.9941,2.7266 c 18.9218,1.358 36.9098,5.2825 52.5801,11.9258 a 70.007,70.007 0 0 0 0,0 c 19.3323,8.1956 36.0832,20.9663 46.9786,35.5058 13.2819,17.7244 20.1252,42.4357 17.8183,63.875 -2.292,21.3013 -14.2509,43.5049 -30.3789,56.7071 -16.0132,13.1082 -39.8092,20.0859 -59.7832,17.6972 -19.8172,-2.3698 -40.8125,-14.7754 -52.0664,-30.5586 -8.5141,-11.9406 -14.275,-28.594 -15.377,-46.0117 -1.1194,-17.6959 2.2251,-37.4551 9.6231,-56.6504 6.8722,-17.8311 17.4501,-35.3595 30.6035,-52.4902 z"
       id="path4140-7-4-0-0"
       inkscape:connector-curvature="0" />
  </g>
</svg>
