<?xml version="1.0" encoding="UTF-8" standalone="no"?>
<!-- Created with Inkscape (http://www.inkscape.org/) -->

<svg
   xmlns:dc="http://purl.org/dc/elements/1.1/"
   xmlns:cc="http://creativecommons.org/ns#"
   xmlns:rdf="http://www.w3.org/1999/02/22-rdf-syntax-ns#"
   xmlns:svg="http://www.w3.org/2000/svg"
   xmlns="http://www.w3.org/2000/svg"
   xmlns:sodipodi="http://sodipodi.sourceforge.net/DTD/sodipodi-0.dtd"
   xmlns:inkscape="http://www.inkscape.org/namespaces/inkscape"
   width="2000"
   height="2048"
   id="svg2992"
   version="1.1"
   inkscape:version="0.91 r13725"
   sodipodi:docname="ജൂ.svg">
  <defs
     id="defs5498">
    <inkscape:path-effect
       effect="spiro"
       id="path-effect4142-0-1-0-3"
       is_visible="true" />
    <inkscape:path-effect
       effect="spiro"
       id="path-effect4142-0-1-0-3-9"
       is_visible="true" />
    <inkscape:path-effect
       effect="spiro"
       id="path-effect4142-0-1-0-3-2"
       is_visible="true" />
    <inkscape:path-effect
       effect="spiro"
       id="path-effect4142-0-1-0-3-2-0"
       is_visible="true" />
    <inkscape:path-effect
       effect="spiro"
       id="path-effect4142-0-1-0-3-1"
       is_visible="true" />
  </defs>
  <sodipodi:namedview
     inkscape:window-height="843"
     inkscape:window-width="1600"
     inkscape:pageshadow="2"
     inkscape:pageopacity="0.0"
     borderopacity="1.0"
     bordercolor="#666666"
     pagecolor="#ffffff"
     id="base"
     showgrid="true"
     showguides="true"
     inkscape:guide-bbox="true"
     inkscape:zoom="0.42426407"
     inkscape:cx="4833.0366"
     inkscape:cy="1018.2874"
     inkscape:window-x="0"
     inkscape:window-y="0"
     inkscape:current-layer="layer1"
     inkscape:window-maximized="1">
    <sodipodi:guide
       orientation="horizontal"
       position="0,600"
       id="guide5596" />
    <inkscape:grid
       type="xygrid"
       id="grid3769"
       empspacing="3"
       visible="true"
       enabled="true"
       snapvisiblegridlinesonly="true"
       spacingx="4px"
       units="px"
       dotted="true"
       spacingy="4px" />
    <sodipodi:guide
       orientation="0,1"
       position="-1040,1600"
       id="guide2985" />
    <sodipodi:guide
       position="4752,1710"
       orientation="0,1"
       id="guide4172"
       inkscape:label=""
       inkscape:color="rgb(0,0,255)" />
  </sodipodi:namedview>
  <metadata
     id="metadata5594">
    <rdf:RDF>
      <cc:Work
         rdf:about="">
        <dc:format>image/svg+xml</dc:format>
        <dc:type
           rdf:resource="http://purl.org/dc/dcmitype/StillImage" />
        <dc:title />
      </cc:Work>
    </rdf:RDF>
  </metadata>
  <g
     inkscape:label="Layer 1"
     inkscape:groupmode="layer"
     id="layer1"
     transform="translate(0,1048)">
    <path
       style="fill:none;fill-rule:evenodd;stroke:#000000;stroke-width:140;stroke-linecap:round;stroke-linejoin:round;stroke-miterlimit:4;stroke-dasharray:none;stroke-opacity:1"
       d="m 171.03639,-335.53385 c 18.04011,-40.43003 52.28149,-73.35396 93.38786,-89.79473 41.10638,-16.44077 88.608,-16.2105 129.55305,0.62803 40.94505,16.83852 74.86562,50.09287 92.51291,90.6959 17.64729,40.60304 18.81964,88.09074 3.19738,129.51511 -11.14662,29.55665 -30.64106,55.96801 -55.8323,75.02697 -25.19124,19.05896 -56.02069,30.657637 -87.5525,32.551629 -29.72856,1.785677 -59.8396,-5.027279 -86.21221,-18.864239 -26.3726,-13.83697 -48.98069,-34.60377 -65.55087,-59.35059 -33.14037,-49.49363 -40.90335,-113.99147 -25.11062,-171.42398 19.22567,-69.91689 71.66845,-128.4865 136.08169,-161.78714 64.41323,-33.30064 139.73732,-42.51131 211.62891,-33.04576 37.85147,4.98368 75.23557,15.1036 109.3128,32.31734 34.07724,17.21375 64.60823,41.6473 88.00857,71.81342 23.40034,30.16612 39.35713,65.78771 48.20929,102.92542 8.85216,37.13772 10.59756,75.549 11.83361,113.70713 l 3.80489,117.4608 -4.92886,-115.7788 c -10.05777,-91.96192 27.49816,-187.84743 97.33733,-248.51574 69.83917,-60.6683 170.03458,-84.44547 259.68618,-61.62557 57.8698,14.73016 110.9636,48.08586 148.7565,94.31988 37.7929,46.23402 59.9647,105.16243 61.2548,164.86353 0.9929,45.94639 -10.1728,91.89538 -30.5794,133.07338 -20.4066,41.17799 -49.9145,77.617267 -84.8204,107.510942 C 1155.2031,30.476431 1065.2391,63.216242 974.23482,76.11781 792.22627,101.92095 608.69049,52.771892 425.03529,44.792059 371.86565,42.481834 316.94454,43.960469 268.05685,64.992386 243.613,75.508344 221.0501,90.939738 203.90792,111.29245 c -17.14218,20.3527 -28.66116,45.7673 -30.67213,72.30111 -2.13248,28.13701 6.54274,56.64776 22.39768,79.98999 15.85495,23.34222 38.61017,41.61994 64.00879,53.9142 50.79723,24.58852 110.07952,25.1823 165.89003,16.80721 98.30667,-14.75219 190.87815,-55.31731 278.92994,-101.45524 88.0518,-46.13793 173.07179,-98.30129 263.82059,-138.878161 58.69508,-26.244562 121.08038,-47.806631 185.37568,-47.76173 32.1477,0.02245 64.4728,5.570161 94.0706,18.117816 29.5977,12.547654 56.3963,32.25118 75.6744,57.977215 24.0697,32.12031 35.693,73.43307 31.3989,113.34076 -4.2941,39.9077 -24.5771,77.95869 -55.6361,103.38315 -31.059,25.42446 -72.582,37.8023 -112.4361,33.03624 -39.8541,-4.76605 -77.4468,-26.74188 -100.7495,-59.42285 -17.0452,-23.90512 -26.3878,-52.93162 -28.2415,-82.2328 -1.8536,-29.30117 3.6079,-58.84674 14.1663,-86.24229 21.1167,-54.791109 61.6755,-99.954869 105.9576,-138.5175111 37.137,-32.3403989 77.7034,-61.1194769 122.2654,-82.0786159 44.562,-20.959138 93.281,-33.955623 142.5253,-34.205613 49.2442,-0.25 99.003,12.647241 139.9988,39.930913 40.9959,27.283673 72.6587,69.3748019 84.0566,117.28247 10.5038,44.149517 3.3148,92.250967 -19.6383,131.400207 -22.9532,39.14923 -61.4172,68.91418 -105.0733,81.3098 27.4335,-16.86368 59.9711,-25.29757 92.1422,-23.88361 32.1711,1.41396 63.8434,12.66996 89.6916,31.87543 25.8482,19.20548 45.766,46.28149 56.4045,76.67557 10.6386,30.39407 11.9541,63.98127 3.7255,95.11434 -7.9937,30.24404 -24.7708,57.85067 -46.5273,80.32851 -21.7566,22.47784 -48.3843,39.95533 -76.9116,52.79254 -57.0546,25.67444 -120.6825,33.07284 -183.236,34.28175 -125.107,2.41782 -250.108,-9.13534 -375.2338,-8.07143 l -590.65592,5.0222 c -67.54118,0.57429 -135.61983,-3.59401 -202.33559,6.94862 -33.35788,5.27132 -66.59413,15.39548 -94.17016,34.89158 -13.78801,9.74805 -26.02288,21.82706 -35.21371,35.9926 -9.19082,14.16553 -15.27857,30.45795 -16.72372,47.2819 -1.36232,15.85971 1.41884,31.9785 7.38582,46.73591 5.96698,14.75742 15.07058,28.1686 26.1059,39.64066 22.07062,22.94412 51.4213,37.90655 81.93497,46.98736 61.02733,18.16164 126.01043,15.86404 189.68279,15.97127 l 1252.00782,2.1085"
       id="path4140-7-4-0"
       inkscape:path-effect="#path-effect4142-0-1-0-3"
       inkscape:original-d="m 171.03639,-335.53385 c 31.926,35.21991 288.0677,79.00661 318.6512,131.04431 32.9639,56.0878 -84.3527,116.823599 -143.3848,107.578599 -100.7544,-15.779199 -199.3102,-150.154999 -176.8737,-249.638809 29.2294,-129.6034 217.2919,-220.1777 347.7106,-194.8329 134.5654,26.1507 252.98511,230.11481 257.36427,320.76331 l 3.80489,117.4608 -4.92886,-115.7788 c 14.34709,-178.20471 199.98363,-323.88381 357.02351,-310.14131 110.7726,9.6937 240.6714,152.298 210.0113,259.18341 -88.965,310.145999 -620.43453,183.871499 -915.37951,314.687299 -87.6101,38.8574 -250.1377,42.9752 -251.7995,138.801501 -1.6986,97.9464 154.5164,144.7581 252.2965,150.7114 197.4946,12.0244 347.69642,-207.1281 542.75053,-240.333401 117.06558,-19.9288 320.24628,-85.1800001 355.12068,28.333301 29.7889,96.9602 -153.3032,247.0167 -237.4228,190.3373 -88.58366,-59.6873 3.6165,-246.836262 91.8824,-306.9926011 135.1215,-92.0901239 413.5555,-104.2250359 488.8461,40.9291541 37.8441,72.960377 -124.7116,212.710007 -124.7116,212.710007 0,0 262.3927,81.39931 241.9638,179.78173 -47.4579,228.54995 -597.0413,158.60976 -681.9087,159.33137 l -590.65592,5.0222 c -21.65504,0.1842 -341.63201,1.8946 -348.44318,125.1147 -6.2495,113.0591 282.36021,149.29689 305.10948,149.3352 l 1252.00782,2.1085"
       inkscape:connector-curvature="0"
       sodipodi:nodetypes="csaaasccaaaaaaaaaacassasc" />
    <path
       style="color:#000000;font-style:normal;font-variant:normal;font-weight:normal;font-stretch:normal;font-size:medium;line-height:normal;font-family:sans-serif;text-indent:0;text-align:start;text-decoration:none;text-decoration-line:none;text-decoration-style:solid;text-decoration-color:#000000;letter-spacing:normal;word-spacing:normal;text-transform:none;direction:ltr;block-progression:tb;writing-mode:lr-tb;baseline-shift:baseline;text-anchor:start;white-space:normal;clip-rule:nonzero;display:inline;overflow:visible;visibility:visible;opacity:1;isolation:auto;mix-blend-mode:normal;color-interpolation:sRGB;color-interpolation-filters:linearRGB;solid-color:#000000;solid-opacity:1;fill:#000000;fill-opacity:1;fill-rule:evenodd;stroke:none;stroke-width:140;stroke-linecap:round;stroke-linejoin:round;stroke-miterlimit:4;stroke-dasharray:none;stroke-dashoffset:0;stroke-opacity:1;color-rendering:auto;image-rendering:auto;shape-rendering:auto;text-rendering:auto;enable-background:accumulate"
       d="m 2489.5469,-584.49805 c -64.3078,0.13514 -129.5089,13.5902 -189.1426,44.41993 -80.3886,41.55964 -146.2255,113.7496 -171.4297,205.4082 a 70.007,70.007 0 0 0 0,0.002 c -20.8998,76.00534 -11.5298,160.27379 34.4414,228.92969 22.8747,34.162227 53.8792,62.812952 91.1934,82.390624 37.413,19.6295405 79.7421,29.3461737 122.9316,26.7519529 45.8793,-2.7557935 89.3816,-19.2093719 125.5899,-46.6035159 36.1484,-27.348867 63.2967,-64.260661 79.0937,-106.148441 22.2631,-59.03327 20.6528,-124.25647 -4.4961,-182.11914 -20.6157,-47.43275 -55.6531,-86.65026 -99.7519,-112.47461 18.892,-0.79059 38.0365,-0.10515 57.0664,2.40039 31.6063,4.16141 61.3464,12.49412 86.8886,25.39649 25.3018,12.78089 47.713,30.9073 64.2598,52.23828 16.4888,21.2562 28.6339,47.7476 35.4277,76.25 3.8949,16.34017 6.1043,34.5047 7.5879,53.94336 -0.6592,16.09533 -0.2791,32.28247 1.2891,48.48242 l 4.916,115.490236 a 70.007,70.007 0 0 0 139.9004,-5.244141 l -3.8047,-117.460935 c -0.4325,-13.35284 -1.059,-27.39463 -1.9316,-41.71875 4.6049,-56.60866 31.9448,-113.39478 74.0879,-150.00391 51.6517,-44.86913 130.209,-63.50997 196.5136,-46.63281 43.3076,11.0235 83.9238,36.65068 111.8262,70.78516 27.8374,34.0549 44.5314,78.69541 45.4688,122.07226 0.7262,33.60578 -7.5984,68.76144 -23.3165,100.47852 -13.2194,26.67531 -31.8999,51.516009 -54.2714,73.169918 -18.9389,13.117915 -36.8917,27.136443 -53.9805,41.679688 C 3115.268,8.6127989 3054.5574,28.30518 2991.4492,37.251953 2828.1471,60.403114 2649.2033,13.731966 2455.1152,5.2988281 2398.563,2.8416254 2332.7097,3.0484326 2267.4336,31.130859 c -32.9155,14.160505 -64.6175,35.341313 -90.0254,65.507813 -25.6853,30.495848 -43.6529,68.844668 -46.9316,112.105468 -3.483,45.95537 10.2203,89.17087 34.2929,124.61133 23.803,35.04371 56.2845,60.58503 91.4141,77.58984 69.6237,33.70153 143.2925,32.55212 206.7773,23.02539 110.5528,-16.58987 210.0546,-61.00722 301.0313,-108.67773 89.9538,-47.13458 173.0281,-97.81606 257.3691,-135.79688 -5.5756,24.24765 -8.0918,49.68441 -6.4414,75.77344 2.6055,41.18468 15.5311,82.58352 41.1074,118.45313 35.3515,49.57882 89.5407,81.12488 149.4317,88.28711 59.7342,7.14346 118.9831,-10.63431 165.0879,-48.375 45.9901,-37.64684 74.5983,-91.54644 80.8945,-150.06055 6.2813,-58.37607 -10.1231,-116.29047 -44.9805,-162.80664 -23.7276,-31.663867 -54.236,-55.710745 -87.5879,-72.591799 12.5009,-7.739137 25.1926,-14.754254 38.0899,-20.820312 36.8659,-17.33938355 75.9251,-27.362119 113.0879,-27.550781 36.7832,-0.186736 73.1421,9.76054411 100.8594,28.207031 27.1916,18.096686 47.9617,46.717709 54.7402,75.208984 6.1894,26.015397 1.5995,56.725897 -11.9258,79.794917 -7.8822,13.44406 -19.5671,25.41841 -32.9902,34.58985 -16.8267,5.59937 -33.0623,13.09055 -48.3535,22.49023 a 70.007,70.007 0 0 0 55.7773,126.97071 c 16.7526,-4.75671 32.7909,-11.27307 47.9629,-19.27149 7.3234,-1.47805 14.7488,-2.33568 21.9863,-2.01758 17.9041,0.78691 36.6305,7.44253 51.0156,18.13086 14.3852,10.68836 26.1635,26.6984 32.084,43.61328 5.9206,16.91495 6.6986,36.77511 2.1192,54.10157 -4.4998,17.02474 -14.8049,34.71403 -29.1485,49.5332 -14.5171,14.99838 -33.6295,27.87104 -55.3398,37.64063 -43.8835,19.74748 -97.9093,27.00888 -155.8633,28.1289 -119.8993,2.31718 -244.6459,-9.18399 -374.4766,-8.08008 l -590.6562,5.02149 c -64.2616,0.5464 -135.8887,-4.32791 -212.666,7.80469 -39.9262,6.30926 -83.7569,18.66785 -123.6543,46.875 -20.1065,14.21518 -38.7851,32.33221 -53.5254,55.05078 -14.8478,22.8845 -25.1943,49.70461 -27.7441,79.39062 -2.4037,27.98259 2.4587,54.79481 12.2324,78.9668 9.7172,24.03235 23.9558,44.67397 40.5527,61.92773 33.0253,34.33237 73.5182,53.97624 112.418,65.55274 75.5949,22.49692 147.623,18.77464 209.5312,18.8789 l 1252.0078,2.10743 a 70.007,70.007 0 1 0 0.2364,-139.99805 l -1252.0078,-2.10938 c -65.4366,-0.1102 -123.3763,0.76384 -169.836,-13.0625 -22.1276,-6.58514 -40.3352,-16.86795 -51.4512,-28.42383 -5.4737,-5.69035 -9.4433,-11.87102 -11.6601,-17.35351 -2.1603,-5.34285 -2.8581,-10.76708 -2.5371,-14.50391 0.3403,-3.96188 2.1693,-9.72725 5.7031,-15.17382 3.6415,-5.6125 9.4309,-11.65266 16.9004,-16.9336 15.2548,-10.78505 37.8959,-18.67483 64.6855,-22.9082 56.6543,-8.95269 121.1851,-5.49158 192.0059,-6.09375 l 590.6563,-5.02149 c 120.4211,-1.0239 245.6755,10.57901 375.9902,8.06055 67.153,-1.2978 140.3837,-8.8322 210.6094,-40.43359 35.3443,-15.90486 69.4883,-37.98606 98.4843,-67.94336 29.1694,-30.13651 52.4167,-67.66167 63.9043,-111.125 11.8778,-44.93968 10.0246,-92.25376 -5.332,-136.12696 -15.3565,-43.87325 -43.4136,-82.0157 -80.7246,-109.73828 -13.7778,-10.23707 -28.5645,-18.83158 -44.0586,-25.73437 20.8077,-48.66749 25.6699,-102.93531 13.2871,-154.982424 -16.0173,-67.3240584 -58.5731,-122.882858 -113.373,-159.353515 -54.2744,-36.120851 -117.4314,-51.969511 -179.1368,-51.656251 -14.5276,0.0738 -28.8745,1.08857 -43.0293,2.82617 7.785,-30.25203 11.8189,-61.67126 11.129,-93.59961 -1.6429,-76.02535 -29.2926,-149.24116 -77.0411,-207.65429 -47.6833,-58.33357 -113.2555,-99.4167 -185.6875,-117.85352 -112.9986,-28.76264 -234.8327,0.1497 -322.8593,76.61719 -17.6092,15.29686 -33.4364,32.25779 -47.5274,50.43945 -2.461,-3.45547 -4.8945,-6.92496 -7.5117,-10.29883 -30.254,-39.00127 -68.9051,-69.7421 -111.7578,-91.38867 -42.6123,-21.52509 -87.6397,-33.43235 -131.7363,-39.23828 -20.9981,-2.76468 -42.3356,-4.19934 -63.7715,-4.1543 z m -133.584,247.61524 c 13.337,0.0647 26.6617,2.52097 38.4316,7.36133 23.54,9.68074 44.7918,30.51595 54.9375,53.85937 10.1458,23.34339 10.88,53.09664 1.8985,76.91211 -6.4962,17.22552 -18.3344,33.13525 -32.5684,43.9043 -14.1742,10.72377 -32.3313,17.46976 -49.5156,18.50195 -16.2677,0.97714 -34.16,-2.93218 -49.4922,-10.97656 -15.4311,-8.09625 -29.6425,-20.98111 -39.9082,-36.3125 -15.8673,-23.69713 -22.9525,-56.16357 -20.2598,-87.77149 a 70.007,70.007 0 0 0 2.5157,-5.16601 c 10.3715,-23.24386 31.8262,-43.87215 55.4589,-53.32422 11.8163,-4.72601 25.165,-7.05293 38.502,-6.98828 z m 56.9101,481.44726 c 11.6332,-0.17207 23.7174,0.0608 36.1641,0.60157 94.2502,4.09517 192.9467,21.19286 295.6484,31.39648 -15.2591,8.36361 -30.5243,16.78752 -45.6718,24.72461 -85.127,44.60535 -170.7676,81.31792 -256.8282,94.23242 -48.1361,7.22345 -93.0331,4.88762 -125.0039,-10.58789 -15.6671,-7.58371 -28.6951,-18.59807 -36.6015,-30.23828 a 70.007,70.007 0 0 0 0,-0.002 c -7.6374,-11.24401 -11.286,-25.04854 -10.5039,-35.36719 0.7432,-9.80682 5.813,-22.28848 14.4121,-32.49805 8.8764,-10.5389 22.3011,-20.22039 38.2734,-27.09179 24.3743,-10.48606 55.2118,-14.6537 90.1113,-15.16993 z m 781.9922,2.72657 c 18.9231,1.35804 36.9117,5.28051 52.5821,11.92382 19.3324,8.19577 36.0851,20.96834 46.9804,35.50782 13.282,17.72444 20.1233,42.43569 17.8164,63.875 -2.292,21.30129 -14.249,43.50299 -30.3769,56.70507 -16.0133,13.10823 -39.8112,20.08591 -59.7852,17.69727 -19.8172,-2.3699 -40.8124,-14.77352 -52.0664,-30.55664 -8.5141,-11.94064 -14.2731,-28.59599 -15.375,-46.01367 -1.1194,-17.69585 2.2252,-37.45331 9.6231,-56.64844 6.8719,-17.83044 17.4488,-35.36017 30.6015,-52.49023 z"
       id="path4140-7-4-0-6"
       inkscape:connector-curvature="0" />
    <path
       style="fill:none;fill-rule:evenodd;stroke:#000000;stroke-width:70;stroke-linecap:round;stroke-linejoin:round;stroke-miterlimit:4;stroke-dasharray:none;stroke-opacity:1"
       d="m -2021.034,-354.12114 c 18.8926,-42.29763 54.7314,-76.73639 97.748,-93.92941 43.0165,-17.19301 92.7195,-16.94395 135.5615,0.67932 42.8421,17.62326 78.3339,52.41947 96.8017,94.90432 18.4678,42.48484 19.7005,92.17316 3.3623,135.52155 -11.6604,30.93719 -32.0592,58.58397 -58.4225,78.5352 -26.3633,19.95123 -58.6297,32.09386 -91.6319,34.07691 -31.1172,1.86978 -62.6349,-5.26352 -90.2378,-19.74989 -27.6029,-14.48638 -51.2637,-36.22712 -68.6036,-62.1328 -34.6797,-51.81137 -42.7931,-119.32207 -26.2597,-179.43653 20.1248,-73.17242 74.9977,-134.47626 142.4048,-169.34009 67.4072,-34.86383 146.2401,-44.51793 221.4798,-34.6089 39.6176,5.21761 78.7449,15.81611 114.4088,33.83991 35.664,18.0238 67.614,43.60447 92.1006,75.18267 24.4865,31.57819 41.1826,68.86395 50.4447,107.73536 9.2622,38.87141 11.0883,79.07493 12.3817,119.01365 l 3.9818,122.95671 -5.1581,-121.19601 c -10.5569,-96.25303 28.7324,-196.62828 101.8246,-260.13906 73.0923,-63.51078 177.9693,-88.40347 271.8062,-64.51353 60.5713,15.42085 116.14152,50.34031 155.69259,98.73862 39.55108,48.39832 62.74807,110.08267 64.08749,172.57179 1.03062,48.08248 -10.66018,96.16551 -32.01924,139.25585 -21.35905,43.09034 -52.24028,81.221801 -88.76932,112.504642 -73.05809,62.565681 -167.20092,96.831924 -262.43432,110.342731 -190.4669,27.021617 -382.5419,-24.376075 -574.7362,-32.691933 -55.6449,-2.407643 -113.1216,-0.84979 -164.282,21.167503 -25.5803,11.008647 -49.1916,27.160445 -67.1306,48.461437 -17.9389,21.30099 -29.9937,47.89824 -32.0996,75.66698 -2.2333,29.44769 6.8431,59.28719 23.4338,83.71884 16.5906,24.43165 40.4031,43.56422 66.9831,56.43503 53.16,25.74163 115.2045,26.37187 173.6154,17.60921 102.885,-15.43456 199.764,-57.90099 291.9089,-106.20069 92.145,-48.2997 181.1154,-102.90719 276.0881,-145.377734 61.4244,-27.468197 126.713,-50.031418 193.99943,-49.981632 33.6432,0.02489 67.4718,5.832251 98.44604,18.964719 30.97424,13.132469 59.01892,33.753163 79.19393,60.675907 25.18992,33.61494 37.35545,76.84936 32.86426,118.61448 -4.49118,41.76512 -25.71402,81.58844 -58.21494,108.20022 -32.50092,26.61177 -75.95371,39.57245 -117.6634,34.5927 -41.70969,-4.97975 -81.05652,-27.96898 -105.45262,-62.16437 -17.8497,-25.01949 -27.6361,-55.40318 -29.5813,-86.07571 -1.9453,-30.67253 3.7686,-61.60211 14.8193,-90.28084 22.1014,-57.357461 64.5604,-104.6356 110.91844,-144.9999987 38.8652,-33.8403103 81.31939,-63.9529383 127.95388,-85.8822333 46.6345,-21.929298 97.61815,-35.525948 149.15069,-35.785358 51.53254,-0.25941 103.60279,13.23755 146.5048,41.787301 42.902,28.549749 76.03965,72.5926474 87.97568,122.724486 11.0025,46.210967 3.48462,96.561963 -20.53656,137.543563 -24.02118,40.9816 -64.28047,72.14137 -109.97609,85.11899 26.89297,-16.96959 58.85719,-25.78597 90.64689,-25.00224 31.78969,0.78374 63.28063,11.16452 89.30471,29.43871 26.02408,18.2742 46.47961,44.3704 58.00953,74.00584 11.52993,29.63545 14.0892,62.69434 7.25781,93.75124 -6.9898,31.77707 -23.59738,61.08291 -45.71103,84.94975 -22.11366,23.86683 -49.60102,42.43863 -79.16972,56.0155 -59.13741,27.15375 -125.44488,34.6474 -190.51197,35.56034 -130.13416,1.82586 -260.09319,-10.84604 -390.23546,-9.73918 l -618.1308,5.25718 c -69.292,0.58933 -138.8848,-4.51922 -207.777,2.93584 -34.4462,3.72752 -69.0844,11.93059 -98.612,30.05653 -14.7638,9.06298 -28.1029,20.61253 -38.4099,34.53642 -10.3069,13.9239 -17.5179,30.27433 -19.8524,47.43994 -2.2594,16.61368 0.088,33.73472 6.0063,49.42207 5.9184,15.68734 15.3446,29.95808 26.9024,42.10456 23.1156,24.29295 54.2235,39.83905 86.4555,49.08981 64.464,18.50153 132.8714,15.59307 199.9378,15.70605 l 1310.24586,2.20715"
       id="path4140-7-4-0-4"
       inkscape:path-effect="#path-effect4142-0-1-0-3-2"
       inkscape:original-d="m -2021.034,-354.12114 c 33.4111,36.86782 301.4675,82.70327 333.4735,137.17578 34.4973,58.7121 -88.2764,122.289691 -150.0544,112.61211 -105.4411,-16.51748 -208.5813,-157.18064 -185.1011,-261.31922 30.5889,-135.66745 227.3994,-230.47966 363.8846,-203.94899 140.8248,27.37428 264.7529,240.88171 269.3358,335.77159 l 3.9818,122.95671 -5.1581,-121.19601 c 15.0145,-186.54277 209.286,-339.03809 373.6308,-324.65259 115.92526,10.14726 251.86636,159.42391 219.78008,271.31041 -93.10326,324.657506 -649.29448,192.474716 -957.95908,329.41129 -91.6853,40.675512 -261.7731,44.985981 -263.5122,145.29592 -1.7776,102.52924 161.7039,151.53123 264.0323,157.76308 206.6813,12.58701 363.8698,-216.81947 567.997,-251.578424 122.511,-20.861254 335.14278,-89.1655131 371.6394,29.658994 31.17455,101.49689 -160.4342,258.57443 -248.4667,199.24303 -92.7043,-62.48001 3.7847,-258.385548 96.15644,-321.3565487 141.40671,-96.3989563 432.79225,-109.1016513 511.58505,42.8441957 39.60445,76.374143 -130.51265,222.662553 -130.51265,222.662553 0,0 264.08681,74.11253 245.21894,172.19355 -45.65694,237.33891 -616.81312,166.03104 -705.62818,166.78641 l -618.1308,5.25718 c -22.6624,0.19274 -355.1109,-12.12231 -364.6513,114.96873 -8.8709,118.17231 295.4945,156.28239 319.302,156.32249 l 1310.24586,2.20715"
       inkscape:connector-curvature="0"
       sodipodi:nodetypes="csaaasccaaaaaaaaaacassasc" />
    <path
       style="color:#000000;font-style:normal;font-variant:normal;font-weight:normal;font-stretch:normal;font-size:medium;line-height:normal;font-family:sans-serif;text-indent:0;text-align:start;text-decoration:none;text-decoration-line:none;text-decoration-style:solid;text-decoration-color:#000000;letter-spacing:normal;word-spacing:normal;text-transform:none;direction:ltr;block-progression:tb;writing-mode:lr-tb;baseline-shift:baseline;text-anchor:start;white-space:normal;clip-rule:nonzero;display:inline;overflow:visible;visibility:visible;opacity:1;isolation:auto;mix-blend-mode:normal;color-interpolation:sRGB;color-interpolation-filters:linearRGB;solid-color:#000000;solid-opacity:1;fill:#000000;fill-opacity:1;fill-rule:evenodd;stroke:none;stroke-width:70;stroke-linecap:round;stroke-linejoin:round;stroke-miterlimit:4;stroke-dasharray:none;stroke-dashoffset:0;stroke-opacity:1;color-rendering:auto;image-rendering:auto;shape-rendering:auto;text-rendering:auto;enable-background:accumulate"
       d="m -1079.1836,978.36914 c -61.9631,0.15786 -124.3221,13.14073 -180.5391,42.21676 -75.3933,38.9944 -136.961,107.1086 -160.0742,191.1465 -19.0865,69.3977 -10.1716,146.794 30.9219,208.1875 20.4915,30.6141 48.3495,56.2964 81.4238,73.6543 33.1239,17.3839 70.7518,25.9697 108.6016,23.6953 40.1777,-2.4141 78.7822,-16.9834 110.6543,-41.1035 31.8422,-24.0975 56.0682,-56.9979 70.0527,-94.1015 19.6562,-52.1517 18.20268,-110.7056 -4.0156,-161.8184 -22.2183,-51.1127 -64.0416,-92.1161 -115.584,-113.3184 -33.8574,-13.9273 -70.7283,-18.648 -106.7266,-14.5117 5.5294,-3.4102 11.1458,-6.6759 16.9043,-9.6543 59.8585,-30.9595 131.6459,-40.1076 200.8301,-30.9961 36.49207,4.806 71.79531,14.51 103.19143,30.377 31.27603,15.8062 59.16739,38.2319 80.22852,65.3926 21.03222,27.1234 35.82295,59.8453 44.05664,94.4003 4.90148,20.5706 7.44428,42.3864 9.07031,64.9434 -0.79666,16.4122 -0.47161,32.9069 1.2207,49.3633 l 5.15235,121.039 a 35.0035,35.0035 0 0 0 69.94922,-2.621 l -3.98243,-122.9571 c -0.47651,-14.7144 -1.17035,-29.821 -2.1582,-45.0761 4.72102,-70.3088 37.8825,-139.7837 90.78125,-185.7481 63.99765,-55.6083 158.05369,-77.933 240.21484,-57.0156 53.2889,13.5668 102.62046,44.6196 137.22657,86.9668 34.57364,42.3074 55.0328,96.8491 56.19726,151.1758 0.89839,41.9133 -9.37193,84.6 -28.38672,122.9609 -16.45053,33.1878 -39.50761,63.4694 -66.91015,89.4648 -20.19717,13.8422 -39.39202,28.857 -57.72852,44.5567 -59.00045,37.1191 -128.75585,59.5919 -200.12305,69.7168 -181.1158,25.6949 -370.89603,-24.4644 -568.30662,-33.0059 -57.3362,-2.4808 -120.2778,-1.5567 -179.6309,23.9863 -29.815,12.8312 -57.9935,31.8571 -80.0644,58.0645 -22.2094,26.3718 -37.4885,59.4354 -40.2285,95.5664 -2.9089,38.3558 8.6806,75.5468 29.3789,106.0274 20.5638,30.2826 49.2381,53.0466 80.6836,68.2734 62.5726,30.2995 131.8119,30.0594 194.0625,20.7207 109.0119,-16.3538 209.35694,-60.748 302.9648,-109.8145 93.54754,-49.0348 181.9244,-103.194 274.12695,-144.4257 26.32392,-11.7718 52.88871,-22.1741 79.47461,-30.2754 -6.77952,12.2091 -12.86749,24.9348 -18.01172,38.2851 -12.63104,32.7799 -19.4032,68.6057 -17.08984,105.0821 2.32219,36.6154 13.90184,73.1857 36.01953,104.1875 30.42218,42.6419 78.06751,70.414 129.79492,76.5898 51.64916,6.1665 103.96398,-9.4953 143.98633,-42.2656 39.965,-32.7234 65.35027,-80.4715 70.8418,-131.5391 5.4841,-50.9985 -9.0729,-102.5315 -39.65625,-143.3437 -24.36603,-32.5155 -57.43447,-56.6036 -93.54102,-71.9122 -15.0931,-6.3991 -30.62694,-11.165 -46.34179,-14.6425 10.86391,-7.7137 21.43764,-15.9147 31.65429,-24.6641 3.78098,-3.238 7.45633,-6.6082 11.12696,-9.9824 19.21173,-12.9196 39.06931,-24.464 59.63085,-34.1328 42.78648,-20.1198 88.940971,-32.2299 134.433599,-32.459 45.3028072,-0.2281 90.673855,11.7937 126.9375,35.9258 36.000971,23.9574 63.693241,61.2655 73.318361,101.6914 8.84363,37.1436 2.62422,78.7979 -16.6836,111.7383 -12.02058,20.5078 -29.47487,38.2304 -49.794918,51.2109 -17.067002,5.1167 -33.485295,12.4299 -48.664062,22.0078 a 35.0035,35.0035 0 0 0 28.240234,63.2676 c 16.974103,-4.8207 33.226331,-11.6726 48.433596,-20.291 10.45482,-2.43 21.17619,-3.6504 31.78906,-3.3887 24.74653,0.6101 49.79439,8.8663 70.05273,23.0918 20.25835,14.2255 36.53043,34.9831 45.50586,58.0527 8.97542,23.0696 11.00929,49.3649 5.69141,73.541 -5.46089,24.8264 -18.85785,48.8841 -37.20117,68.6817 -18.43834,19.9002 -42.05532,36.0376 -68.09961,47.9961 -52.34041,24.0328 -113.684249,31.4911 -176.398438,32.3711 -127.535912,1.7893 -257.430832,-10.8682 -390.042972,-9.7403 l -618.1309,5.2559 c -67.3726,0.573 -138.1451,-4.7715 -211.2441,3.1387 -37.4115,4.0485 -77.2424,12.9779 -113.1582,35.0254 -18.052,11.0814 -34.8385,25.4476 -48.2305,43.539 a 35.0035,35.0035 0 0 0 0,0 c -13.4578,18.1806 -23.1708,39.7857 -26.4023,63.5469 -3.1283,23.0026 0.1333,45.7956 7.9414,66.4921 7.7762,20.612 19.849,38.6974 34.293,53.877 28.7849,30.2511 65.6697,48.1336 102.1562,58.6055 71.7098,20.581 143.5188,16.9532 209.5332,17.0644 l 1310.24611,2.207 a 35.0035,35.0035 0 1 0 0.11914,-70 l -1310.24605,-2.207 c -68.1184,-0.1148 -133.1236,2.0743 -190.3418,-14.3476 -27.9776,-8.0298 -53.3096,-21.2413 -70.7559,-39.5762 -8.6716,-9.1132 -15.4494,-19.5694 -19.5098,-30.332 -4.0285,-10.6783 -5.4628,-22.1268 -4.0722,-32.3516 1.4375,-10.5701 6.1468,-21.6649 13.3027,-31.332 7.222,-9.7564 17.1123,-18.4869 28.5879,-25.5313 23.1394,-14.2045 52.5874,-21.6812 84.0684,-25.0879 64.6855,-6.9998 133.0972,-2.1287 204.3085,-2.7344 l 618.13091,-5.2578 c 127.6724,-1.0859 257.6953,11.6006 390.427731,9.7383 67.419978,-0.946 138.692539,-8.4752 204.626949,-38.75 33.09311,-15.1951 64.44931,-36.2015 90.23829,-64.0351 25.88399,-27.9361 45.70197,-62.4909 54.2207,-101.2188 8.34492,-37.9377 5.26216,-77.7597 -8.82227,-113.9609 -14.08442,-36.2014 -38.72581,-67.6361 -70.51562,-89.959 -20.57742,-14.4496 -43.74556,-24.7099 -68.04883,-30.4629 2.84295,-4.1601 5.59837,-8.3861 8.15625,-12.75 28.73452,-49.0229 37.55004,-108.0713 24.38867,-163.3496 C 200.67884,1564.592 162.096,1513.816 112.29297,1480.6738 62.752616,1447.7065 3.9829645,1432.7346 -53.779297,1433.0254 c -35.739192,0.18 -70.793253,6.0783 -104.322263,16.1914 21.63288,-46.069 33.6082,-97.0089 32.5,-148.7109 -1.51438,-70.6515 -27.45002,-139.4816 -71.97852,-193.9707 -44.49565,-54.449 -106.30521,-93.2328 -174.1582,-110.50786 l -0.002,0 c -105.51215,-26.86163 -221.21018,0.59906 -303.39649,72.01176 -31.58402,27.4437 -57.36501,60.7284 -76.54687,97.4121 -9.65988,-21.4296 -21.67239,-41.9305 -36.3125,-60.8106 -27.91202,-35.9957 -63.92079,-64.7313 -103.97266,-84.9726 -39.93176,-20.1807 -82.88193,-31.67354 -125.62505,-37.30277 -20.3237,-2.67662 -40.9354,-4.04871 -61.5898,-3.99609 z m -139.7656,182.61716 c 18.7614,0.094 37.5053,3.6556 54.5762,10.6778 34.1415,14.0443 63.3002,42.6314 78.0175,76.4882 14.7173,33.857 15.7312,74.6795 2.711,109.2247 -9.3363,24.7707 -25.9086,47.1658 -46.793,62.9707 -20.8545,15.7822 -46.7827,25.4969 -72.6094,27.0488 -24.3846,1.4652 -49.7931,-4.2158 -71.875,-15.8047 -22.1314,-11.6149 -41.5929,-29.4121 -55.7812,-50.6094 -23.7814,-35.5293 -32.6689,-81.9478 -26.584,-126.0586 a 35.0035,35.0035 0 0 0 4.8769,-8.1035 c 15.0559,-33.7077 44.5007,-62.0016 78.7813,-75.7031 17.1403,-6.8507 35.9182,-10.2249 54.6797,-10.1309 z m 58.8926,503.9297 c 13.1347,-0.1662 26.5018,0.1352 39.9902,0.7188 143.69026,6.2171 291.75995,38.612 443.29882,40.4726 -56.14527,30.1057 -110.67239,61.6237 -165.60547,90.418 -90.68207,47.5329 -184.09545,88.0724 -280.85355,102.5879 -54.5712,8.1867 -109.4206,6.6857 -153.1679,-14.4981 -21.7146,-10.5148 -40.6658,-26.0151 -53.2832,-44.5957 -12.483,-18.3826 -19.046,-40.8705 -17.4883,-61.4101 1.4717,-19.4066 10.3022,-39.5374 23.9707,-55.7676 13.8069,-16.3946 32.8499,-29.6732 54.1953,-38.8594 32.2259,-13.8686 69.5392,-18.5678 108.9434,-19.0664 z m 803.9941,2.25 c 29.63302,0.022 58.85218,5.1825 84.80859,16.1875 25.84192,10.9565 48.86367,28.1115 64.84766,49.4414 19.79648,26.4176 29.5725,61.3512 26.07422,93.8828 -3.49085,32.4627 -20.55299,64.3631 -45.58985,84.8633 -24.97949,20.4533 -59.5696,30.713 -91.33984,26.9199 -31.69197,-3.7837 -62.73929,-21.9894 -81.10937,-47.7382 -13.58177,-19.0373 -21.57616,-43.2353 -23.14453,-67.9649 -1.57719,-24.8686 3.07842,-50.903 12.54882,-75.4805 11.02607,-28.6147 28.59641,-55.1777 49.91211,-79.9882 0.99563,-0.011 1.99727,-0.1238 2.99219,-0.1231 z"
       id="path4140-7-4-0-4-7"
       inkscape:connector-curvature="0" />
    <path
       style="color:#000000;font-style:normal;font-variant:normal;font-weight:normal;font-stretch:normal;font-size:medium;line-height:normal;font-family:sans-serif;text-indent:0;text-align:start;text-decoration:none;text-decoration-line:none;text-decoration-style:solid;text-decoration-color:#000000;letter-spacing:normal;word-spacing:normal;text-transform:none;direction:ltr;block-progression:tb;writing-mode:lr-tb;baseline-shift:baseline;text-anchor:start;white-space:normal;clip-rule:nonzero;display:inline;overflow:visible;visibility:visible;opacity:1;isolation:auto;mix-blend-mode:normal;color-interpolation:sRGB;color-interpolation-filters:linearRGB;solid-color:#000000;solid-opacity:1;fill:#000000;fill-opacity:1;fill-rule:evenodd;stroke:none;stroke-width:200;stroke-linecap:round;stroke-linejoin:round;stroke-miterlimit:4;stroke-dasharray:none;stroke-dashoffset:0;stroke-opacity:1;color-rendering:auto;image-rendering:auto;shape-rendering:auto;text-rendering:auto;enable-background:accumulate"
       d="M 4428.2148 340.3457 C 4355.7963 339.84623 4282.8895 357.12884 4217.6133 394.57227 C 4129.7718 444.95957 4062.3479 528.86831 4038.3535 631.29688 C 4019.1354 713.33634 4029.2831 803.61665 4079.4336 879.51758 C 4104.4209 917.33503 4138.252 949.47154 4179.6855 971.9082 C 4221.2895 994.43726 4268.5672 1006.075 4317.5938 1003.6191 C 4370.2028 1000.9838 4419.6079 982.39658 4460.7734 951.18164 C 4501.8277 920.05107 4532.1538 878.30882 4549.7266 830.96094 C 4574.4012 764.4777 4572.3244 691.92179 4543.8867 626.95898 C 4531.3532 598.32765 4514.2504 572.46947 4493.4395 550.17969 C 4511.8684 555.5315 4529.2336 562.82798 4544.4824 572.14258 C 4566.7376 585.73692 4586.3282 604.43847 4600.6191 625.71094 C 4614.8864 646.94823 4625.5258 673.29517 4631.5723 702.0332 C 4631.811 703.16778 4631.9477 704.45651 4632.1738 705.60938 C 4629.4686 742.54674 4632.1858 779.76197 4640.1074 816.17578 L 4644.6875 923.75 A 100.01 100.01 0 0 0 4844.5449 916.25977 L 4840.7402 798.79883 C 4839.7729 768.93463 4838.6518 736.17089 4834.0723 701.19336 C 4835.1679 694.89496 4836.4873 688.65402 4838.2207 682.57227 C 4847.0649 651.54157 4864.7871 621.92869 4887.9531 599.46875 C 4911.1192 577.00878 4941.2652 560.21366 4972.5547 552.33398 C 5003.8442 544.45429 5038.3499 544.96832 5069.3906 553.77734 C 5109.4879 565.15655 5147.5116 592.07266 5171.7715 626.25781 C 5196.0567 660.47878 5209.0443 705.39214 5206.8398 747.53516 C 5203.7315 806.95846 5169.5598 870.76347 5118.6465 915.57422 C 5086.8656 943.54578 5047.9909 965.84289 5005.1445 982.5625 C 4987.5683 987.36974 4970.6084 993.01366 4954.2148 999.24805 C 4942.6263 1002.4009 4930.9209 1005.3165 4919.0098 1007.7324 C 4764.4715 1039.0776 4587.0876 1008.8701 4393.0801 1005.4629 C 4336.5404 1004.4699 4267.3981 1004.7736 4196 1035.2949 C 4159.9179 1050.7194 4124.532 1073.8 4095.459 1107.4844 C 4065.9887 1141.6292 4044.7145 1184.8064 4039.9707 1234.8027 C 4034.8592 1288.6753 4049.9855 1338.8854 4077.3262 1380.2793 C 4104.2904 1421.1033 4141.1252 1450.4535 4180.9375 1469.8711 C 4259.6604 1508.2665 4341.1916 1505.6534 4409.498 1493.3848 C 4530.2055 1471.7043 4633.4088 1416.1045 4724.5195 1359.8516 C 4794.9744 1316.3518 4859.4911 1272.1315 4923.0605 1235.9219 C 4922.9291 1243.8561 4923.0075 1251.842 4923.5625 1259.9297 C 4926.7518 1306.4416 4941.6497 1353.2692 4971.4336 1394.166 C 5012.2571 1450.2214 5073.4324 1485.0841 5141.4688 1492.7832 C 5209.2688 1500.4555 5275.48 1480.2516 5327.5605 1437.5449 C 5379.4691 1394.9793 5411.4779 1334.9261 5418.9883 1269.1113 C 5426.4752 1203.5027 5408.8859 1138.9711 5370.6367 1086.2422 C 5356.0475 1066.13 5339.1044 1048.7911 5320.6367 1033.9512 C 5350.0089 1022.2419 5379.9716 1015.8892 5407.8047 1015.875 C 5439.2594 1015.8589 5469.8708 1024.4152 5492.334 1038.957 C 5514.1297 1053.0668 5530.9288 1075.5961 5536.7031 1096.209 C 5541.615 1113.7431 5540.1174 1135.4462 5532.8418 1152.1387 C 5525.5661 1168.8314 5510.6863 1184.7035 5494.498 1193.041 A 100.01 100.01 0 0 0 5576.8633 1375.0137 C 5585.9514 1371.4419 5597.277 1370.2614 5606.9062 1371.8828 C 5616.5356 1373.5043 5626.8503 1378.3286 5634.2676 1384.6797 C 5641.6849 1391.0308 5648.0403 1400.481 5651.125 1409.7461 C 5654.2091 1419.0108 5654.7881 1430.3828 5652.6582 1439.9121 C 5650.2493 1450.6899 5643.3472 1463.9443 5632.7344 1475.3047 C 5621.8472 1486.9587 5606.3214 1497.8646 5587.8047 1506.2715 C 5550.0467 1523.4143 5500.1551 1530.3472 5443.9922 1530.957 C 5325.6114 1532.2424 5200.2425 1519.9318 5067.4902 1521.0605 L 4476.834 1526.082 C 4413.9778 1526.6165 4340.8292 1521.439 4259.7402 1534.2539 C 4216.9995 1541.0084 4168.6303 1554.326 4123.4531 1586.2656 C 4100.6396 1602.3946 4079.1972 1623.0987 4062.0781 1649.4824 C 4044.8057 1676.1025 4032.6345 1707.4342 4029.6094 1742.6309 C 4026.7576 1775.8093 4032.5108 1807.2029 4043.9141 1835.4102 C 4055.2369 1863.4187 4071.6765 1887.1613 4090.6562 1906.8945 C 4128.3754 1946.1108 4173.6422 1967.7627 4216.1387 1980.4102 C 4297.9826 2004.768 4373.0364 2000.4313 4434.1914 2000.5293 L 5750.1992 2002.6367 A 100.01 100.01 0 1 0 5750.5195 1802.6367 L 4434.5117 1800.5293 C 4368.3192 1800.4232 4313.4024 1800.6886 4273.1895 1788.7207 C 4254.6573 1783.2053 4241.2233 1774.9274 4234.8027 1768.252 C 4231.7127 1765.0393 4229.9455 1761.9589 4229.3359 1760.4512 C 4229.2061 1760.13 4229.2067 1760.0095 4229.1484 1759.7715 C 4229.3055 1759.3828 4229.445 1758.9763 4229.8555 1758.3438 C 4231.1186 1756.397 4234.1479 1752.9411 4238.9102 1749.5742 C 4248.885 1742.5221 4266.9865 1735.5915 4290.9609 1731.8027 C 4343.3023 1723.531 4406.3097 1726.6903 4478.5352 1726.0762 L 5069.1914 1721.0527 C 5187.7315 1720.0448 5313.2583 1732.3884 5446.1641 1730.9453 C 5515.6444 1730.1909 5593.8335 1723.1826 5670.4863 1688.3809 C 5709.175 1670.8155 5746.8818 1646.0909 5778.8828 1611.8359 C 5811.158 1577.2873 5836.5467 1534.0738 5847.8418 1483.5391 C 5858.0298 1437.9574 5855.6387 1390.8832 5840.8848 1346.5684 A 100.01 100.01 0 0 0 5840.8848 1346.5664 C 5826.1307 1302.2516 5799.8255 1263.1397 5764.3477 1232.7617 C 5752.3828 1222.5168 5739.5389 1213.5637 5726.0801 1205.7559 C 5743.1702 1152.8891 5744.4232 1096.2782 5729.291 1042.2598 C 5708.7487 968.92868 5661.1212 909.974 5601.0195 871.06641 C 5541.5851 832.59085 5473.809 815.84126 5407.7031 815.875 C 5404.8074 815.876 5401.9593 816.08017 5399.0781 816.14453 C 5402.8896 797.17753 5405.5298 777.80043 5406.5664 757.98242 C 5411.173 669.91786 5386.0468 582.62191 5334.873 510.51172 C 5283.6738 438.36569 5209.3273 385.59221 5123.9922 361.375 C 5058.6505 342.83172 4989.5784 341.80165 4923.7129 358.38867 C 4857.8474 374.97569 4797.5019 408.5978 4748.7363 455.87695 C 4743.4308 461.02077 4738.3554 466.36694 4733.3691 471.78711 C 4708.6664 444.41008 4680.2032 420.6856 4648.7402 401.4668 C 4602.198 373.03696 4551.4009 355.38379 4500.1699 346.68359 C 4476.4399 342.65368 4452.3544 340.51219 4428.2148 340.3457 z M 4294.8145 664.20898 C 4304.3517 664.26778 4313.8785 665.95182 4321.8984 669.25 C 4337.9382 675.84633 4353.7169 691.27436 4360.6719 707.16211 C 4367.6268 723.04975 4368.2592 745.11151 4362.2246 761.37109 C 4357.7817 773.34191 4349.2923 784.71695 4339.9297 791.81641 C 4330.6784 798.83147 4318.1719 803.33896 4307.5879 803.86914 C 4297.5896 804.36998 4285.2843 801.64955 4274.9199 796.03711 C 4264.3849 790.3323 4253.8909 780.75396 4246.2988 769.26367 C 4235.2908 752.60336 4229.2211 728.46764 4229.7871 703.75195 C 4237.4369 688.90552 4252.439 674.96139 4267.6699 668.91602 C 4275.7298 665.71692 4285.2772 664.15023 4294.8145 664.20898 z M 5148.623 1169.332 C 5157.958 1171.1433 5166.6273 1173.7787 5174.2891 1177.1426 C 5189.1165 1183.6524 5201.4993 1193.6875 5208.7461 1203.6777 C 5217.2499 1215.4007 5221.818 1232.9342 5220.2773 1246.4355 C 5218.7602 1259.7307 5210.4054 1274.9702 5200.7441 1282.8926 C 5191.2549 1290.6739 5175.2754 1295.3316 5163.957 1294.0508 C 5152.875 1292.7967 5139.1542 1284.7361 5133.1035 1276.4277 C 5128.2297 1269.7354 5123.9318 1258.4701 5123.0938 1246.248 C 5122.228 1233.6225 5124.6055 1218.1194 5130.6074 1202.5312 C 5134.7864 1191.6778 5140.9559 1180.5558 5148.623 1169.332 z M 4371.543 1205.3203 C 4377.3967 1205.2844 4383.4068 1205.3235 4389.5664 1205.4316 C 4448.9582 1206.4747 4511.001 1211.5131 4574.9902 1215.9863 C 4507.2726 1254.6116 4440.2464 1284.6622 4374.1426 1296.5352 C 4330.5245 1304.3695 4292.0956 1301.5673 4268.6113 1290.1133 C 4257.32 1284.6062 4248.581 1276.6719 4244.209 1270.0527 C 4240.2135 1264.0035 4238.8171 1256.4243 4239.0762 1253.6934 C 4239.3308 1251.0099 4241.7588 1244.0763 4246.8633 1238.1621 C 4252.3652 1231.7875 4262.0404 1224.5709 4274.6152 1219.1953 C 4297.2918 1209.5015 4330.567 1205.5716 4371.543 1205.3203 z "
       transform="translate(0,-1048)"
       id="path4140-7-4-0-63" />
  </g>
</svg>
