<?xml version="1.0" encoding="UTF-8" standalone="no"?>
<!-- Created with Inkscape (http://www.inkscape.org/) -->

<svg
   xmlns:dc="http://purl.org/dc/elements/1.1/"
   xmlns:cc="http://creativecommons.org/ns#"
   xmlns:rdf="http://www.w3.org/1999/02/22-rdf-syntax-ns#"
   xmlns:svg="http://www.w3.org/2000/svg"
   xmlns="http://www.w3.org/2000/svg"
   xmlns:sodipodi="http://sodipodi.sourceforge.net/DTD/sodipodi-0.dtd"
   xmlns:inkscape="http://www.inkscape.org/namespaces/inkscape"
   width="2000"
   height="2048"
   id="svg2992"
   version="1.1"
   inkscape:version="0.91 r13725"
   sodipodi:docname="ഞ്ജൂ.svg">
  <defs
     id="defs5498">
    <inkscape:path-effect
       effect="spiro"
       id="path-effect4142-0-1-0-3"
       is_visible="true" />
    <inkscape:path-effect
       is_visible="true"
       id="path-effect4141-3-4-6-8-9-5-4-6-5-4"
       effect="spiro" />
    <inkscape:path-effect
       is_visible="true"
       id="path-effect4141-3-4-6-8-9-5-4-6-5-4-1"
       effect="spiro" />
    <inkscape:path-effect
       is_visible="true"
       id="path-effect4141-3-4-6-8-9-5-4-6-5-4-18"
       effect="spiro" />
    <inkscape:path-effect
       is_visible="true"
       id="path-effect4141-3-4-6-8-9-5-4-6-5-4-18-4"
       effect="spiro" />
    <inkscape:path-effect
       is_visible="true"
       id="path-effect4141-3-4-6-8-9-5-4-6-5-4-18-8"
       effect="spiro" />
    <inkscape:path-effect
       is_visible="true"
       id="path-effect4141-3-4-6-8-9-5-4-6-5-4-18-80"
       effect="spiro" />
    <inkscape:path-effect
       is_visible="true"
       id="path-effect4141-3-4-6-8-9-5-4-6-5-4-18-80-8"
       effect="spiro" />
    <inkscape:path-effect
       is_visible="true"
       id="path-effect4141-3-4-6-8-9-5-4-6-5-4-18-42"
       effect="spiro" />
  </defs>
  <sodipodi:namedview
     inkscape:window-height="843"
     inkscape:window-width="1600"
     inkscape:pageshadow="2"
     inkscape:pageopacity="0.0"
     borderopacity="1.0"
     bordercolor="#666666"
     pagecolor="#ffffff"
     id="base"
     showgrid="true"
     showguides="true"
     inkscape:guide-bbox="true"
     inkscape:zoom="0.454"
     inkscape:cx="5175.0576"
     inkscape:cy="658.92458"
     inkscape:window-x="1600"
     inkscape:window-y="0"
     inkscape:current-layer="layer1"
     inkscape:window-maximized="1">
    <sodipodi:guide
       orientation="horizontal"
       position="0,600"
       id="guide5596" />
    <inkscape:grid
       type="xygrid"
       id="grid3769"
       empspacing="3"
       visible="true"
       enabled="true"
       snapvisiblegridlinesonly="true"
       spacingx="4px"
       units="px"
       dotted="true"
       spacingy="4px" />
    <sodipodi:guide
       orientation="0,1"
       position="-1040,1600"
       id="guide2985" />
    <sodipodi:guide
       position="4056,1710"
       orientation="0,1"
       id="guide4166"
       inkscape:label=""
       inkscape:color="rgb(0,0,255)" />
  </sodipodi:namedview>
  <metadata
     id="metadata5594">
    <rdf:RDF>
      <cc:Work
         rdf:about="">
        <dc:format>image/svg+xml</dc:format>
        <dc:type
           rdf:resource="http://purl.org/dc/dcmitype/StillImage" />
        <dc:title />
      </cc:Work>
    </rdf:RDF>
  </metadata>
  <g
     inkscape:label="Layer 1"
     inkscape:groupmode="layer"
     id="layer1"
     transform="translate(0,1048)">
    <path
       sodipodi:nodetypes="csassacaaaaaaaaaaccsaaaaacccaaaaac"
       inkscape:connector-curvature="0"
       inkscape:original-d="m 2934.3465,873.31922 -1195.9377,-2.1085 c -22.7493,-0.04 -311.359,-36.2761 -305.1095,-149.3352 6.8112,-123.2201 326.7881,-124.9305 348.4432,-125.1147 l 590.6559,-5.0222 c 92.0189,-0.78241 538.9566,56.08197 602.3497,-140.06884 25.3885,-78.55709 -162.7788,-186.66871 -162.7788,-186.66871 0,0 138.3248,-113.95256 109.0261,-176.633816 -62.4972,-133.705565 -307.5352,-131.792697 -438.2346,-63.23071 -91.6526,48.078932 -215.7267,220.560056 -138.1957,278.043266 81.4806,60.41161 267.2117,-93.37714 237.4228,-190.33733 C 2547.1135,-0.67079612 2343.649,62.979494 2226.8673,84.509244 2029.8232,120.8361 1883.9539,357.37332 1684.1168,342.84262 c -100.9029,-7.33702 -256.6261,-67.6348 -252.2965,-168.71141 4.1016,-95.752836 164.1894,-99.944156 251.7995,-138.801536 294.9449,-130.81579 822.2636,-5.76212 915.3794,-314.687254 36.9953,-122.73743 -105.9725,-298.9233 -234.0113,-305.1834 -162.3351,-7.9369 -332.0811,151.12718 -333.0234,356.14125 l -1.0712,103.7788 2.1951,-123.46078 c 1.6133,-90.73988 -117.1279,-316.35957 -257.3642,-340.76327 -145.0116,-25.2347 -347.4156,96.2307 -369.5157,241.75294 -15.6212,102.86052 94.6709,243.30248 198.6788,240.71875 90.3885,-2.24541 177.6409,-128.44868 162.0626,-217.51293 -26.9235,-153.92586 -238.6152,-292.86896 -391.0577,-258.52736 -199.6677,44.9802 -317.7115,295.25589 -317.5312,525.535494 l 0.2704,379.342396 -1.6867,-375.734496 C 1055.6078,-324.12539 892.49747,-569.58258 674.67057,-585.39108 c -256.7998,-18.6369 -533.685,298.2226 -536.5245,555.682124 -1.7995,163.160286 182.5081,424.589376 332.1631,359.566896 157.5106,-68.43559 124.233,-457.6467 -38.0632,-513.7981 -113.2712,-39.18966 -239.3404,145.687964 -242.4921,265.505504 -2.7073,102.923516 196.023,238.705296 196.023,238.705296"
       inkscape:path-effect="#path-effect4141-3-4-6-8-9-5-4-6-5-4-18"
       id="path4139-1-0-4-2-2-4-1-2-0-8"
       d="m 2934.3465,873.31922 -1195.9377,-2.1085 c -63.671,-0.11226 -128.6523,2.18152 -189.6785,-15.97893 -30.5132,-9.08023 -59.8637,-24.04102 -81.9351,-46.98346 -11.0357,-11.47122 -20.1399,-24.88156 -26.1076,-39.63832 -5.9678,-14.75675 -8.7498,-30.87505 -7.3883,-46.73449 1.4443,-16.82412 7.5315,-33.1169 16.7221,-47.28273 9.1905,-14.16584 21.4254,-26.24509 35.2134,-35.99326 27.5761,-19.49635 60.8127,-29.62028 94.1709,-34.89127 66.7162,-10.54198 134.7952,-6.37315 202.3368,-6.94744 l 590.6559,-5.0222 c 110.1876,-0.9369 220.2987,8.8451 330.4593,6.23288 55.0803,-1.30611 111.0344,-7.99774 161.3652,-30.41093 25.1654,-11.20659 48.7115,-26.40268 68.134,-45.93852 19.4226,-19.53585 34.6366,-43.51833 42.3912,-69.95227 6.9106,-23.55701 7.7895,-48.85684 2.5305,-72.83665 -5.2591,-23.9798 -16.6453,-46.58973 -32.7801,-65.09259 -16.1349,-18.50285 -36.9849,-32.86016 -60.0258,-41.3338 -23.041,-8.47364 -48.2251,-11.04601 -72.5034,-7.40567 36.4926,-10.44384 68.7828,-34.90288 88.7199,-67.20297 19.937,-32.30009 27.3276,-72.12829 20.3062,-109.430846 -8.1043,-43.055649 -34.9688,-81.5801854 -70.5737,-107.10983 -35.6048,-25.529645 -79.3952,-38.50642 -123.1718,-40.262256 -87.5531,-3.511674 -171.2789,35.994249 -244.4891,84.141376 -47.3314,31.127802 -93.0468,67.361882 -122.4694,115.771696 -14.7113,24.2049 -25.0772,51.26518 -28.4322,79.3907 -3.3549,28.12552 0.4886,57.32627 12.7059,82.88087 18.7245,39.16558 57.2589,67.93311 99.9327,75.902 42.6737,7.96889 88.4846,-4.6453 121.8345,-32.43623 33.3499,-27.79092 53.911,-70.03082 56.4105,-113.37023 2.4994,-43.3394 -12.7893,-87.22931 -40.7549,-120.43287 -20.5616,-24.412772 -47.587,-43.07689 -77.1192,-55.185136 -29.5323,-12.108245 -61.5207,-17.772066 -93.436,-18.193054 -63.8305,-0.841978 -126.3082,18.946163 -184.5654,45.044954 -91.9815,41.207026 -175.8577,98.162786 -263.0129,148.784726 -87.1553,50.62193 -179.9041,95.6961 -279.7376,109.54865 -58.1746,8.07211 -120.1416,4.62157 -171.4369,-23.98328 -25.6477,-14.30243 -48.0798,-34.8214 -62.9607,-60.13781 -14.8809,-25.31641 -21.9263,-55.5018 -17.8989,-84.59032 3.6039,-26.02947 15.9163,-50.511 33.3079,-70.21006 17.3916,-19.699066 39.7048,-34.74035 63.7895,-45.249754 48.1694,-21.018806 102.1503,-23.967274 154.7021,-23.341722 180.1547,2.144477 361.0524,42.515914 539.1651,15.383426 89.0563,-13.566244 176.9277,-44.8526432 247.3026,-101.088305 70.3749,-56.235665 121.7771,-139.181625 128.9117,-228.982375 5.5494,-69.8487 -16.2093,-141.36899 -59.0651,-196.80378 -42.8558,-55.43479 -106.2866,-94.3978 -174.9462,-108.37962 -46.7998,-9.53029 -96.0924,-7.59324 -141.519,7.15365 -45.4266,14.74689 -86.5624,42.39006 -117.4513,78.81704 -30.8889,36.42698 -51.202,81.1517 -61.8402,127.71217 -10.6381,46.56047 -11.7199,94.70062 -12.2129,142.45839 l -1.0712,103.7788 2.1951,-123.46078 c 0.7107,-39.97057 0.8926,-80.24782 -6.6182,-119.51279 -7.5109,-39.26498 -22.7365,-77.25389 -46.2126,-109.61166 -23.4761,-32.35777 -54.8758,-58.75926 -90.2926,-77.30125 -35.4167,-18.54198 -74.576,-29.35212 -114.2408,-34.33757 -80.8158,-10.15771 -165.687,4.22534 -235.1188,46.81176 -69.4318,42.58641 -121.8773,114.45741 -134.3969,194.94118 -9.2433,59.42144 4.0298,123.11416 40.8829,170.63465 18.4265,23.76024 42.4652,43.25013 69.842,55.68386 27.3768,12.43373 58.0691,17.71423 87.9539,14.40024 49.5803,-5.49805 95.1941,-34.92836 123.9232,-75.70916 28.729,-40.78081 41.0829,-92.00649 38.1394,-141.80377 -2.6207,-44.3365 -16.9999,-87.80973 -40.5303,-125.4782 -23.5305,-37.66847 -56.1014,-69.52058 -93.7868,-93.02384 -75.3708,-47.00653 -170.0219,-59.26683 -256.7406,-40.02532 -109.4231,24.27926 -205.7358,99.41038 -258.4434,198.32858 -26.3538,49.4591 -42.4003,104.02013 -50.5844,159.46152 -8.184,55.44138 -8.5433,111.70323 -8.5034,167.745394 l 0.2704,379.342396 -1.6867,-375.734496 c -0.2738,-60.994714 -1.1523,-122.328964 -12.2073,-182.314114 -11.0549,-59.98515 -32.3411,-118.42764 -65.76418,-169.45044 -33.42311,-51.02279 -78.72868,-94.21548 -131.36369,-125.03733 -52.635,-30.82185 -112.24263,-49.28691 -172.93896,-55.31901 -145.83796,-14.49361 -295.94174,45.24394 -396.31309,152.03517 -100.37135,106.79124 -150.53753,257.45479 -140.21141,403.646954 6.37865,90.305824 35.89378,180.715196 94.25538,249.923236 29.1808,34.60402 65.31913,63.53599 106.19833,82.97431 40.8792,19.43831 86.51676,29.23509 131.70939,26.66935 67.52391,-3.83356 132.93536,-36.09714 177.25861,-87.18163 44.32325,-51.08448 67.03156,-120.28751 61.8349,-187.720213 -5.19666,-67.432705 -38.17248,-132.26024 -89.45395,-176.355427 -51.28147,-44.09519 -120.21569,-66.97598 -187.70276,-62.54083 -66.13899,4.34655 -130.27311,34.86305 -175.07043,83.71444 -44.79731,48.851402 -69.67817,115.547825 -67.42167,181.791064 1.88382,55.302556 22.44749,109.803916 57.56453,152.567396 35.11705,42.76347 84.5783,73.53435 138.45847,86.1379"
       style="fill:none;fill-rule:evenodd;stroke:#000000;stroke-width:140;stroke-linecap:round;stroke-linejoin:round;stroke-miterlimit:4;stroke-dasharray:none;stroke-opacity:1" />
    <path
       style="color:#000000;font-style:normal;font-variant:normal;font-weight:normal;font-stretch:normal;font-size:medium;line-height:normal;font-family:sans-serif;text-indent:0;text-align:start;text-decoration:none;text-decoration-line:none;text-decoration-style:solid;text-decoration-color:#000000;letter-spacing:normal;word-spacing:normal;text-transform:none;direction:ltr;block-progression:tb;writing-mode:lr-tb;baseline-shift:baseline;text-anchor:start;white-space:normal;clip-rule:nonzero;display:inline;overflow:visible;visibility:visible;opacity:1;isolation:auto;mix-blend-mode:normal;color-interpolation:sRGB;color-interpolation-filters:linearRGB;solid-color:#000000;solid-opacity:1;fill:#000000;fill-opacity:1;fill-rule:evenodd;stroke:none;stroke-width:140;stroke-linecap:round;stroke-linejoin:round;stroke-miterlimit:4;stroke-dasharray:none;stroke-dashoffset:0;stroke-opacity:1;color-rendering:auto;image-rendering:auto;shape-rendering:auto;text-rendering:auto;enable-background:accumulate"
       d="m 1649.3438,1288.8809 c -48.2412,-0.536 -96.8726,6.3917 -143.2891,21.7285 -73.1766,-24.3312 -152.2313,-26.9994 -226.5918,-10.5 -130.7563,29.0128 -242.6264,116.5812 -305.0586,233.75 -0.36759,0.6898 -0.68292,1.3968 -1.04688,2.0879 -5.38401,-9.63 -10.99497,-19.1653 -17.0957,-28.4785 -39.389,-60.1302 -92.41868,-110.7051 -154.54688,-147.086 -62.00114,-36.3064 -131.1911,-57.5939 -201.38867,-64.5703 -169.37723,-16.833 -338.9405,51.0755 -454.24219,173.752 -114.901618,122.2509 -170.718224,291.0608 -159.031246,456.5195 7.2166062,102.1692 40.336757,206.833 110.56836,290.1172 13.412056,15.9046 28.096926,30.8545 43.925786,44.6269 38.23852,35.592 84.70432,61.6132 135.33203,75.4727 37.17353,11.2658 76.39105,16.5628 116.13086,14.3066 87.16013,-4.9484 169.06056,-45.3811 226.16406,-111.1953 57.07525,-65.7817 85.4348,-152.3056 78.75586,-238.9726 -6.6757,-86.625 -47.85927,-167.5184 -113.60938,-224.0547 -65.71859,-56.5091 -151.61226,-84.9853 -237.93164,-79.3125 -79.70215,5.2378 -155.33715,39.3208 -211.89258,95.6816 16.49793,-84.9525 55.56006,-165.5546 113.60157,-227.3086 85.44104,-90.9059 216.0841,-142.4726 338.38281,-130.3183 51.19507,5.0878 101.22138,20.7311 144.49023,46.0683 43.1418,25.2629 80.72247,61.0729 108.17969,102.9883 27.46228,41.9231 45.85954,91.5771 55.48047,143.7812 9.63328,52.2711 10.77709,109.4082 11.04883,169.9414 l 1.68554,375.7344 a 70.007,70.007 0 0 0 139.99997,-0.3652 l -0.2714,-379.3418 c -0.04,-55.7096 0.5257,-108.5067 7.7539,-157.4727 7.2225,-48.928 21.259,-95.7566 43.1113,-136.7675 42.9829,-80.6676 123.7401,-143.3624 211.8301,-162.9082 5.6859,-1.2617 11.4267,-2.2862 17.1875,-3.2032 -36.3743,45.4447 -61.9203,99.7514 -71.2032,159.4278 -11.9754,76.9852 4.3087,159.2686 54.7364,224.2929 25.1337,32.4089 57.8048,59.0766 96.2109,76.5196 38.5178,17.4936 81.4162,25.0306 124.6152,20.2402 72.1034,-7.9957 133.7458,-48.6321 173.4336,-104.9687 39.1823,-55.6192 54.5822,-122.1132 50.791,-186.25 -3.3516,-56.7019 -21.4762,-111.1081 -51.039,-158.4336 -7.2627,-11.6265 -15.1851,-22.748 -23.6738,-33.3614 1.624,0.1792 3.2597,0.2181 4.8808,0.4219 32.8983,4.135 63.9646,13.0051 90.502,26.8984 26.2889,13.7633 49.4197,33.3996 66.1015,56.3926 16.6314,22.9235 28.3208,51.3539 34.1172,81.6563 4.1511,21.7012 5.4172,46.0531 5.5801,72.4785 -0.743,18.0903 -1.1528,35.8591 -1.3281,52.8418 l -1.0645,103.2578 -0.01,0.5215 a 70.007,70.007 0 0 0 139.9843,1.9668 l 2.1953,-123.461 c 0.1882,-10.5842 0.3444,-21.5095 0.3477,-32.6875 1.3022,-27.1091 3.7131,-52.6261 8.9941,-75.7402 8.4965,-37.1867 24.5881,-71.6168 46.9883,-98.0332 22.3599,-26.3689 52.88,-46.8632 85.6758,-57.5098 32.9941,-10.7109 70.3726,-12.383 105.9375,-5.1406 52.0034,10.5899 101.4121,41.0522 133.5332,82.6016 32.0491,41.4561 48.7725,96.7579 44.666,148.4453 -5.3018,66.732 -45.693,134.1843 -102.8301,179.8418 -58.0667,46.4004 -134.153,74.3866 -214.1464,86.5722 -160.9171,24.5131 -337.7386,-13.9154 -527.7911,-16.1777 -55.74,-0.6635 -119.9892,1.4539 -183.5293,29.1797 -31.9988,13.9627 -62.9182,34.3634 -88.2695,63.0781 -25.5871,28.982 -44.4153,65.362 -50.1719,106.9395 -6.4506,46.5906 4.5832,91.7112 26.8907,129.6621 22.0808,37.5654 53.8578,66.0859 89.2148,85.8027 70.1481,39.1182 147.583,41.5571 215.1504,32.1817 114.4628,-15.8826 215.0746,-65.9626 305.2754,-118.3536 90.0074,-52.2785 171.9644,-107.5745 256.4727,-145.4335 9.4018,-4.212 18.785,-8.0597 28.1484,-11.7188 -10.468,23.2812 -18.0781,48.4828 -21.2813,75.3359 -4.7745,40.0272 0.355,82.2434 19.0586,121.3653 29.091,60.8486 85.1549,102.3662 150.2364,114.5195 64.6632,12.0752 129.9297,-6.1663 179.4961,-47.4707 49.2774,-41.0635 77.8625,-100.3569 81.4824,-163.1152 l 0,-0 c 3.6,-62.4314 -17.6507,-122.7211 -57.0977,-169.5566 -9.3486,-11.0996 -19.5791,-21.1082 -30.3808,-30.252 40.5946,-17.7189 81.0428,-28.0909 119.2968,-26.5566 31.8442,1.2773 62.5424,10.9679 85.1875,27.2051 22.0544,15.8135 38.2658,40.2925 42.5723,63.1718 3.6941,19.6258 -0.5928,42.7211 -11.082,59.7149 -10.4893,16.9937 -29.2127,31.1772 -48.4121,36.6719 a 70.007,70.007 0 0 0 29.6386,136.5234 c 12.4759,-1.8707 26.1231,-0.4754 37.9629,3.8789 11.8399,4.3543 23.1366,12.1326 31.4278,21.6406 8.2911,9.508 14.4615,21.7596 17.164,34.0821 2.7025,12.3222 2.2269,26.0315 -1.3242,38.1367 -4.0123,13.6771 -12.7497,28.1205 -24.8633,40.3047 -12.2754,12.347 -28.4626,23.1046 -46.9687,31.3457 -37.4482,16.6763 -84.01,23.1766 -134.5489,24.375 -104.915,2.4878 -214.668,-7.2255 -329.3945,-6.25 l -590.6562,5.0234 c -64.2617,0.5464 -135.8905,-4.329 -212.668,7.8027 -39.9267,6.3089 -83.7564,18.6672 -123.6543,46.875 a 70.007,70.007 0 0 0 -0,0 c -20.1063,14.2154 -38.785,32.3325 -53.5254,55.0528 -14.8479,22.8857 -25.1936,49.7079 -27.7421,79.3945 -2.4023,27.9829 2.4632,54.7937 12.2382,78.9648 9.7185,24.0315 23.9572,44.6733 40.5547,61.9258 33.0262,34.3295 73.5182,53.9695 112.416,65.5449 75.5907,22.4946 147.6157,18.7776 209.5215,18.8868 l 1195.9375,2.1074 a 70.007,70.007 0 1 0 0.2461,-140 l -1195.9375,-2.1074 c -65.4362,-0.1154 -123.3742,0.754 -169.8359,-13.0723 -22.1285,-6.5851 -40.3385,-16.8666 -51.4551,-28.4219 -5.4738,-5.6898 -9.4432,-11.8677 -11.6601,-17.3496 a 70.007,70.007 0 0 0 0,-0 c -2.1606,-5.3424 -2.8598,-10.7661 -2.5391,-14.502 0.3401,-3.9616 2.1699,-9.726 5.7031,-15.1719 3.6406,-5.6115 9.4308,-11.6525 16.9004,-16.9336 15.2543,-10.7848 37.8958,-18.6751 64.6856,-22.9082 56.6548,-8.9521 121.1843,-5.4896 192.0058,-6.0918 l 590.6563,-5.0214 c 105.6487,-0.8984 216.1172,8.9514 331.5234,6.2148 59.6218,-1.4138 124.9682,-8.2952 188.1816,-36.4453 31.8247,-14.1721 62.7293,-33.8067 89.2989,-60.5313 26.7316,-26.8876 48.423,-60.4089 59.9199,-99.5996 10.2701,-35.0088 11.5521,-71.8998 3.7363,-107.5371 -7.8157,-35.6373 -24.418,-68.6058 -48.3965,-96.1035 -10.9968,-12.6108 -23.3999,-23.7648 -36.8496,-33.4434 29.259,-47.5506 39.7102,-103.9966 29.3809,-158.873 -11.9021,-63.2319 -49.4207,-115.8031 -98.5762,-151.0488 -48.5645,-34.8221 -105.4474,-51.0839 -161.1562,-53.3184 -39.0386,-1.5658 -76.2939,3.5336 -111.6914,12.957 27.6683,-47.4496 45.8823,-100.7832 50.414,-157.8222 6.9923,-88.0101 -19.8024,-175.7468 -73.4648,-245.1602 -53.5905,-69.3203 -131.0416,-116.7845 -216.3574,-134.1582 -58.0348,-11.8182 -119.2425,-9.6169 -177.1016,9.166 -58.0574,18.8473 -109.8088,53.6399 -149.2266,100.125 -6.3074,7.4383 -12.0978,15.1646 -17.6562,23.0117 -30.0236,-40.5146 -68.9139,-72.8539 -112.5391,-95.6933 -44.296,-23.1907 -91.5471,-35.9394 -137.9785,-41.7754 -17.8022,-2.2375 -35.7955,-3.4811 -53.8437,-3.6816 z m -143.6309,173.955 c 2.9015,1.6342 5.7958,3.2785 8.6094,5.0332 28.9567,18.0595 53.9161,42.6234 71.4629,70.7129 17.4979,28.0115 28.1297,60.5523 30.0195,92.5235 2.0959,35.4577 -7.2106,71.4169 -25.4863,97.3593 -17.7704,25.225 -47.3549,43.4488 -74.4122,46.4493 -16.5705,1.8375 -35.0571,-1.1868 -51.2929,-8.5606 -16.3476,-7.4246 -31.7534,-19.7361 -43.4727,-34.8476 -23.2785,-30.0167 -33.5424,-75.1188 -27.0312,-116.9766 8.9287,-57.3997 48.9254,-113.5831 101.8281,-146.0313 3.2017,-1.9638 6.4668,-3.844 9.7754,-5.6621 z M 373.93555,1836.5195 c 43.04689,1.5994 86.86863,18.2986 119.10742,46.0196 36.81283,31.6541 61.58316,80.4157 65.30078,128.6562 3.71437,48.1983 -13.34478,100.0796 -44.91602,136.4668 -31.54298,36.3546 -80.46582,60.4512 -128.35351,63.1699 -18.60055,1.056 -37.80675,-0.9384 -56.63672,-5.5156 a 70.007,70.007 0 0 0 -7.98438,-2.3437 c -3.33604,-0.7804 -6.63172,-1.7979 -9.93359,-2.7813 -7.86234,-2.6637 -15.60054,-5.7805 -23.12695,-9.3594 -17.99265,-8.5556 -35.10727,-19.8285 -50.87891,-33.1093 -5.82341,-5.4135 -11.37772,-11.0789 -16.36523,-17.1524 -25.11049,-30.5781 -40.35415,-70.9832 -41.70117,-110.5273 -1.60605,-47.148 16.9796,-97.122 49.05273,-132.0977 32.11889,-35.0256 80.36986,-58.041 128.07031,-61.1758 6.08185,-0.3997 12.21568,-0.4785 18.36524,-0.25 z m 1209.34765,219.6621 c 5.9835,-0.075 12.0659,-0.07 18.2363,0 101.8295,1.2122 208.9599,16.7602 320.3809,22.7579 -25.1012,15.3091 -49.9229,30.4236 -74.4707,44.6816 -84.1098,48.8531 -168.997,88.9215 -254.2012,100.7441 -48.7818,6.7688 -95.2801,2.3065 -127.7226,-15.7851 -15.9384,-8.888 -29.0261,-21.4053 -36.7071,-34.4727 -7.4543,-12.6819 -10.5104,-27.9331 -8.9062,-39.5195 1.4512,-10.4815 7.2472,-23.0642 16.4433,-33.4805 9.432,-10.6833 23.14,-20.3638 39.3106,-27.4199 28.6989,-12.5228 65.752,-16.9841 107.6367,-17.5098 z m 807.1582,14.8028 c 2.1911,0.7841 4.4812,1.4318 6.6055,2.3027 20.04,8.2165 37.7177,20.767 50.1347,35.5098 16.4838,19.5712 25.8086,47.0619 24.4102,71.3086 a 70.007,70.007 0 0 0 0,0 c -1.3795,23.9195 -13.916,49.1052 -31.3379,63.6231 -17.1335,14.2776 -43.4895,21.2649 -64.1738,17.4023 -20.2659,-3.7845 -41.2707,-19.8026 -49.6289,-37.2851 -5.731,-11.9874 -8.2868,-28.1727 -6.3516,-44.3965 1.9718,-16.5302 8.4774,-34.4354 18.7422,-51.3242 a 70.007,70.007 0 0 0 0,-0 c 12.2494,-20.1543 30.1052,-39.0774 51.5976,-57.1406 z"
       id="path4139-1-0-4-2-2-4-1-2-0-8-6"
       inkscape:connector-curvature="0" />
    <path
       sodipodi:nodetypes="csassacaaaaaaaaaaccsaaaaacccaaaaac"
       inkscape:connector-curvature="0"
       inkscape:original-d="M -99.042892,899.06986 -1329.0398,896.89995 c -23.3971,-0.0413 -317.7126,-23.52616 -313.7987,-137.68429 4.3493,-126.85732 336.0947,-128.56892 358.3665,-128.75841 l 607.47724,-5.16846 c 94.63952,-0.8052 551.90518,73.45494 619.504069,-126.14803 27.245996,-80.45075 -167.414579,-192.1051 -167.414579,-192.1051 0,0 142.264151,-117.2712 112.13105,-181.77792 -64.27705,-137.599473 -316.29351,-135.630894 -450.71512,-65.072172 -94.26278,49.479132 -221.8704,226.983422 -142.13139,286.140712 83.8011,62.17098 274.82165,-96.09656 244.18439,-195.88053 -35.86759,-116.81912 -245.12657,-51.315135 -365.23411,-29.15837 -202.65575,37.38479 -352.67925,280.81069 -558.20745,265.85681 -103.7766,-7.5507 -263.9346,-69.60453 -259.4817,-173.62479 4.2184,-98.54144 168.8653,-102.85483 258.9705,-142.843848 303.3446,-134.625539 845.68087,-5.92993 941.44853,-323.851902 38.04889,-126.31191 -108.9905,-307.62884 -240.67573,-314.07125 -166.95826,-8.16805 -341.5385,155.52845 -342.5077,366.51315 l -1.1017,106.80115 2.2576,-127.05633 c 1.6593,-93.3825 -120.4634,-325.57291 -264.6936,-350.68732 -149.1414,-25.96961 -357.3096,99.03323 -380.0391,248.79351 -16.0661,105.85613 97.367,250.388182 204.337,247.729206 92.9627,-2.310803 182.6999,-132.189496 166.678,-223.847566 -27.6903,-158.40864 -245.4108,-301.39818 -402.1947,-266.05645 -205.3541,46.29016 -326.7596,303.85463 -326.5742,540.840674 l 0.2781,390.389976 -1.7347,-386.677003 c -1.375,-278.743327 -169.1306,-531.348967 -393.161,-547.617857 -264.1132,-19.17966 -548.8838,306.90774 -551.8042,571.8652613 -1.8507,167.9119987 187.7058,436.9546887 341.6228,370.0385587 161.9964,-70.42864 127.771,-470.974747 -39.1472,-528.76145 -116.4971,-40.33098 -246.1566,149.9308466 -249.3981,273.23783 -2.7844,105.92095 201.6056,245.6571 201.6056,245.6571"
       inkscape:path-effect="#path-effect4141-3-4-6-8-9-5-4-6-5-4-18-80"
       id="path4139-1-0-4-2-2-4-1-2-0-8-8"
       d="M -99.042892,899.06986 -1329.0398,896.89995 c -63.6135,-0.11222 -128.2086,2.9807 -190.0196,-12.05572 -30.9055,-7.51821 -61.0899,-20.47992 -84.6744,-41.82104 -11.7923,-10.67057 -21.8127,-23.39523 -28.7632,-37.69936 -6.9506,-14.30412 -10.7781,-30.21076 -10.3415,-46.10817 0.4801,-17.48186 6.1165,-34.66206 15.2306,-49.58783 9.1142,-14.92577 21.6293,-27.64399 35.8492,-37.82442 28.4397,-20.36086 63.0485,-30.52659 97.6594,-35.57339 69.2218,-10.09362 139.676,-5.17762 209.6273,-5.77277 l 607.47724,-5.16846 c 112.18948,-0.95452 224.12539,9.82094 336.31409,10.86324 56.09434,0.52114 113.24913,-3.82299 165.48984,-24.26207 26.12035,-10.21954 50.79902,-24.54197 71.46885,-43.50166 20.669842,-18.95968 37.24647,-42.67716 46.231289,-69.24754 8.211949,-24.28481 9.942586,-50.72836 4.965837,-75.87632 -4.97675,-25.14797 -16.648779,-48.93915 -33.491361,-68.2657 -16.842585,-19.32655 -38.814735,-34.14144 -63.046235,-42.50939 -24.23149,-8.36795 -50.66337,-10.26861 -75.84282,-5.45369 37.54726,-10.75423 70.76699,-35.93013 91.27217,-69.17148 20.50517,-33.24136 28.09705,-74.22599 20.85888,-112.60644 -8.34991,-44.275507 -35.9822,-83.887479 -72.59899,-110.141094 -36.61679,-26.253615 -81.64842,-39.602823 -126.66792,-41.415555 -90.03901,-3.625466 -176.15283,36.979204 -251.44821,86.484477 -48.7128,32.027736 -95.75898,69.319722 -126.02589,119.145682 -15.13346,24.91299 -25.79161,52.76512 -29.23079,81.71076 -3.43918,28.94564 0.53374,58.9949 13.12529,85.28427 19.286,40.26645 58.93328,69.82739 102.82555,78.00082 43.89228,8.17343 90.99978,-4.81851 125.28973,-33.4111 34.28995,-28.5926 55.42584,-72.03783 57.9904,-116.61092 2.56455,-44.57308 -13.16099,-89.70992 -41.92129,-123.85933 -21.14671,-25.10919 -48.94055,-44.30731 -79.31317,-56.763578 -30.37262,-12.456264 -63.27199,-18.28518 -96.09674,-18.721232 -65.64952,-0.872104 -129.90999,19.47674 -189.8242,46.32644 -94.60816,42.3973 -180.86165,101.01926 -270.49185,153.12173 -89.6301,52.10246 -185.0243,98.49669 -287.7156,112.73508 -59.8438,8.29749 -123.5886,4.72565 -176.3444,-24.71852 -26.3779,-14.72208 -49.4455,-35.83772 -64.7452,-61.88489 -15.2996,-26.04717 -22.5391,-57.09921 -18.3921,-87.02138 3.7104,-26.77208 16.3738,-51.95171 34.2596,-72.21527 17.8857,-20.26355 40.8319,-35.73912 65.601,-46.556033 49.5381,-21.63382 105.0575,-24.691133 159.1099,-24.072545 185.2715,2.120287 371.321,43.541818 554.48415,15.590206 91.58156,-13.975807 181.93997,-46.161314 254.31717,-103.989023 72.37721,-57.82771 125.25857,-143.106385 132.64721,-235.453085 5.75031,-71.87017 -16.59885,-145.47836 -60.67604,-202.53612 -44.0772,-57.05775 -109.34649,-97.16458 -179.99969,-111.53513 -48.14738,-9.79296 -98.85752,-7.77745 -145.58261,7.41592 -46.7251,15.19336 -89.02854,43.6524 -120.79007,81.13944 -31.76153,37.48704 -52.64412,83.50244 -63.58032,131.4031 -10.9362,47.90065 -12.0479,97.42409 -12.5547,146.55469 l -1.1017,106.80115 2.2576,-127.05633 c 0.7307,-41.12303 0.9183,-82.56109 -6.8024,-122.95946 -7.7208,-40.39836 -23.3725,-79.48656 -47.5112,-112.78764 -24.1387,-33.30109 -56.4292,-60.48082 -92.8581,-79.57457 -36.4289,-19.09374 -76.714,-30.23211 -117.5219,-35.36565 -83.1316,-10.45777 -170.4363,4.37748 -241.8386,48.21749 -71.4022,43.84001 -125.3138,117.78618 -138.2005,200.57602 -9.5163,61.1367 4.1116,126.67134 42.0089,175.57997 18.9486,24.45431 43.6739,44.51724 71.8376,57.318457 28.1636,12.801219 59.7425,18.240484 90.4905,14.830779 51.0142,-5.657071 97.941,-35.955976 127.4847,-77.927706 29.5436,-41.97173 42.2318,-94.68295 39.1933,-145.91986 -2.7045,-45.6056 -17.4905,-90.32271 -41.6849,-129.07604 -24.1943,-38.75333 -57.6837,-71.53068 -96.4376,-95.72414 -77.5077,-48.38692 -174.8696,-61.04592 -264.0722,-41.25627 -112.589,24.97792 -211.6504,102.34858 -265.8392,204.15105 -27.0944,50.90124 -43.5861,107.04477 -51.9968,164.09126 -8.4107,57.0465 -8.7793,114.935197 -8.7382,172.598364 l 0.2781,390.389976 -1.7347,-386.677003 c -0.2815,-62.754154 -1.1842,-125.857067 -12.5483,-187.574327 -11.3641,-61.71726 -33.2461,-121.85065 -67.6125,-174.35889 -34.3664,-52.50823 -80.9565,-96.96963 -135.0951,-128.70566 -54.1386,-31.73604 -115.4592,-50.76025 -177.9051,-56.97898 -150.0459,-14.94246 -304.4841,46.57804 -407.7043,156.49911 -103.2202,109.92106 -154.7513,264.95471 -144.0999,415.3661513 6.5784,92.8958647 36.9296,185.8954187 96.9427,257.1088687 30.0065,35.60673 67.1676,65.38473 109.2086,85.40428 42.041,20.01954 88.9801,30.12867 135.4715,27.52541 69.5246,-3.89299 136.8952,-37.07373 182.5509,-89.6511 45.6558,-52.57737 69.0531,-123.8271 63.7058,-193.254999 -5.3474,-69.427897 -39.3097,-136.172889 -92.122,-181.556624 -52.8123,-45.383737 -123.8012,-68.909277 -193.2819,-64.298727 -68.0368,4.51474 -133.9952,35.93842 -180.0639,86.208291 -46.0688,50.26987 -71.653,118.882532 -69.3342,187.029539 1.936,56.89543 23.0814,112.96787 59.1963,156.97409 36.115,44.00621 86.9848,75.68452 142.4093,88.68301"
       style="fill:none;fill-rule:evenodd;stroke:#000000;stroke-width:70;stroke-linecap:round;stroke-linejoin:round;stroke-miterlimit:4;stroke-dasharray:none;stroke-opacity:1" />
    <path
       style="color:#000000;font-style:normal;font-variant:normal;font-weight:normal;font-stretch:normal;font-size:medium;line-height:normal;font-family:sans-serif;text-indent:0;text-align:start;text-decoration:none;text-decoration-line:none;text-decoration-style:solid;text-decoration-color:#000000;letter-spacing:normal;word-spacing:normal;text-transform:none;direction:ltr;block-progression:tb;writing-mode:lr-tb;baseline-shift:baseline;text-anchor:start;white-space:normal;clip-rule:nonzero;display:inline;overflow:visible;visibility:visible;opacity:1;isolation:auto;mix-blend-mode:normal;color-interpolation:sRGB;color-interpolation-filters:linearRGB;solid-color:#000000;solid-opacity:1;fill:#000000;fill-opacity:1;fill-rule:evenodd;stroke:none;stroke-width:70;stroke-linecap:round;stroke-linejoin:round;stroke-miterlimit:4;stroke-dasharray:none;stroke-dashoffset:0;stroke-opacity:1;color-rendering:auto;image-rendering:auto;shape-rendering:auto;text-rendering:auto;enable-background:accumulate"
       d="M -1250.7539 1974.1152 C -1297.4736 1974.6183 -1344.2471 1982.6132 -1388.3457 1998.7383 C -1460.0373 1972.2299 -1539.2703 1968.3142 -1613.4609 1984.7734 C -1736.7317 2012.1211 -1843.5694 2095.7194 -1902.6152 2206.6465 C -1915.7913 2231.4 -1926.4607 2257.1713 -1935.1523 2283.4785 C -1947.7266 2248.2215 -1964.0164 2214.1299 -1984.7871 2182.3945 C -2022.1334 2125.3334 -2072.5823 2077.1803 -2131.4668 2042.6621 C -2190.2881 2008.1811 -2256.4018 1987.7431 -2323.6035 1981.0508 C -2485.4323 1964.9349 -2649.6063 2030.5477 -2760.291 2148.418 C -2870.7737 2266.073 -2925.122 2430.1788 -2913.7891 2590.2148 C -2906.7911 2689.0355 -2874.6391 2789.1575 -2808.6973 2867.4062 C -2795.5284 2883.0329 -2781.0358 2897.6112 -2765.4492 2910.9824 C -2730.3386 2943.3245 -2687.7139 2967.1435 -2641.4863 2979.6035 C -2607.3208 2989.9172 -2571.3953 2994.7479 -2535.2969 2992.7266 C -2455.9487 2988.2835 -2380.3274 2951.0216 -2328.2754 2891.0781 C -2276.2374 2831.151 -2250.0111 2751.2373 -2256.0996 2672.1875 C -2262.1864 2593.1588 -2300.2567 2518.3785 -2360.3086 2466.7734 C -2420.3448 2415.182 -2499.8179 2388.8621 -2578.7188 2394.0977 C -2655.9704 2399.2238 -2729.8648 2434.4004 -2782.2676 2491.582 C -2809.2557 2521.0312 -2829.9059 2555.7382 -2843.2871 2593.0645 C -2843.5114 2590.4661 -2843.7807 2587.8704 -2843.9648 2585.2695 C -2853.9347 2444.4828 -2805.2194 2298.5229 -2709.2617 2196.3359 C -2613.5061 2094.364 -2468.804 2036.936 -2330.541 2050.7051 C -2272.8509 2056.4502 -2216.3231 2074.0598 -2166.8672 2103.0508 C -2117.4745 2132.0048 -2074.744 2172.7732 -2043.3574 2220.7285 C -2011.9683 2268.6878 -1991.5292 2324.4298 -1980.8809 2382.2598 C -1970.2264 2440.123 -1969.1906 2501.1285 -1968.9102 2563.6523 L -1967.1758 2950.1973 L -1967.1758 2950.3301 A 35.0035 35.0035 0 0 0 -1897.1758 2950.1484 L -1897.4551 2559.7578 C -1897.4961 2502.2605 -1897.0237 2446.1014 -1889.0898 2392.2891 C -1881.1588 2338.4957 -1865.6708 2286.2174 -1840.8242 2239.5391 C -1791.4924 2146.8613 -1700.208 2075.7195 -1598.3008 2053.1113 C -1559.6655 2044.5401 -1519.317 2042.8508 -1480.209 2048.0137 C -1547.0563 2097.7641 -1596.2123 2171.7484 -1609.2852 2255.7344 C -1620.1671 2325.6447 -1605.0382 2400.4716 -1560.3574 2458.1348 C -1538.0567 2486.9151 -1509.0178 2510.5705 -1475.3379 2525.8789 C -1441.602 2541.2129 -1403.9156 2547.7813 -1366.5059 2543.6328 C -1304.222 2536.726 -1249.2792 2500.8181 -1214.2578 2451.0645 C -1179.4901 2401.6709 -1165.2847 2341.3266 -1168.748 2282.9258 C -1171.8189 2231.1446 -1188.4745 2180.9658 -1215.6816 2137.3867 C -1237.4083 2102.5859 -1265.6678 2072.4341 -1298.123 2047.9473 C -1265.4889 2043.1752 -1231.9343 2042.9094 -1199.0293 2047.0488 C -1161.6117 2051.7559 -1125.3775 2061.9229 -1093.3887 2078.6895 C -1061.5238 2095.3911 -1033.3641 2119.1855 -1012.6191 2147.8047 C -991.89926 2176.3894 -978.01338 2210.7007 -971.14844 2246.6211 C -966.19192 2272.5559 -964.84508 2300.1102 -964.7207 2328.7441 C -965.5026 2347.0423 -965.94027 2365.1855 -966.12305 2382.9043 L -967.22461 2489.7051 A 35.0035 35.0035 0 0 0 -897.23047 2490.6895 L -894.97266 2363.6328 C -894.77635 2352.585 -894.6425 2341.3401 -894.65625 2329.9727 C -893.29184 2300.373 -890.64635 2271.6541 -884.44727 2244.502 C -874.58046 2201.2852 -855.80613 2160.4157 -828.28516 2127.9336 C -800.78442 2095.4755 -763.78513 2070.5931 -723.375 2057.4531 C -682.86617 2044.2811 -638.11642 2042.4015 -595.5918 2051.0508 C -533.27693 2063.7253 -475.02345 2099.5749 -436.31445 2149.6836 C -397.64093 2199.7463 -377.80435 2265.2436 -382.82812 2328.0332 C -389.29451 2408.8532 -436.673 2486.3909 -502.43555 2538.9336 C -568.6622 2591.8471 -653.13193 2622.3811 -740.18555 2635.666 C -914.75691 2662.3065 -1098.7692 2621.8547 -1288.9883 2619.6777 C -1344.6344 2619.0409 -1405.2866 2621.6856 -1462.5059 2646.6738 C -1491.2298 2659.2179 -1518.4766 2677.3727 -1540.3398 2702.1426 C -1562.3209 2727.0459 -1578.24 2758.1723 -1583.0273 2792.7148 C -1588.3868 2831.3851 -1579.1566 2869.9034 -1560.1465 2902.2676 C -1541.2494 2934.4393 -1513.5108 2959.5573 -1482.2793 2976.9883 C -1420.0985 3011.6928 -1348.6167 3014.762 -1284.0703 3005.8125 C -1174.055 2990.5586 -1074.7264 2941.6563 -983.57227 2888.668 C -892.5152 2835.7361 -807.22295 2777.9466 -716.35742 2737.2266 C -673.8815 2718.1916 -630.25552 2703.2714 -586.89648 2697.0801 C -600.29721 2711.7458 -612.74042 2727.5665 -623.42773 2745.1602 C -640.78491 2773.7339 -653.37355 2806.1658 -657.50195 2840.9121 C -661.64857 2875.8119 -657.02839 2912.3717 -641.1875 2945.4453 C -616.71182 2996.547 -568.29767 3032.4769 -513.20312 3042.7363 C -458.31763 3052.957 -401.48584 3037.1471 -359.0918 3001.7969 C -316.84184 2966.5668 -291.69536 2914.597 -288.57227 2860.3164 C -285.45857 2806.1992 -304.16644 2752.8645 -338.66602 2711.9004 C -359.86544 2686.7286 -386.22017 2667.063 -414.93359 2652.8555 C -351.74452 2615.8829 -284.21556 2589.9835 -217.44922 2592.6719 C -178.3942 2594.2445 -139.90687 2605.9512 -109.76758 2627.5605 C -79.923278 2648.9584 -57.616383 2681.5513 -51.167969 2715.7441 C -45.596714 2745.2858 -51.638945 2777.9023 -67.421875 2803.4883 C -83.204839 2829.0744 -109.64264 2849.1111 -138.54297 2857.3887 A 35.0035 35.0035 0 0 0 -122.33203 2925.4121 C -103.25973 2921.765 -82.840678 2923.2339 -64.486328 2929.5723 C -46.13201 2935.9107 -29.159862 2947.3552 -16.402344 2961.9941 C -3.6447692 2976.6333 5.3709596 2995.0101 9.140625 3014.0586 C 12.910299 3033.1071 11.573709 3053.535 5.3535156 3071.9297 C -1.4712864 3092.1124 -14.556799 3111.1637 -31.380859 3126.5957 C -48.294393 3142.1099 -69.189948 3154.3946 -91.943359 3163.2969 C -137.68457 3181.1931 -190.28872 3185.6585 -244.35547 3185.1562 C -354.51959 3184.1328 -466.66459 3173.3178 -581.29297 3174.293 L -1188.7695 3179.4609 C -1256.8813 3180.0403 -1328.9676 3174.7806 -1403.1504 3185.5977 C -1441.1051 3191.1321 -1481.2486 3202.373 -1516.1328 3227.3477 C -1533.6678 3239.9015 -1549.5462 3255.8476 -1561.4785 3275.3887 C -1573.4734 3295.0321 -1581.157 3317.8886 -1581.8262 3342.2559 C -1582.4345 3364.4054 -1577.1772 3385.6879 -1567.9766 3404.623 C -1558.8128 3423.4816 -1545.9595 3439.6363 -1531.2168 3452.9766 C -1501.8438 3479.5556 -1466.1292 3494.3885 -1431.332 3502.8535 C -1363.0082 3519.4742 -1295.5388 3515.7922 -1233.1016 3515.9023 L -3.1054688 3518.0723 A 35.0035 35.0035 0 1 0 -2.9804688 3448.0723 L -1232.9785 3445.9004 C -1297.7683 3445.7861 -1359.4889 3448.288 -1414.7871 3434.8359 C -1441.8009 3428.2645 -1466.454 3417.1735 -1484.25 3401.0703 C -1493.0919 3393.0694 -1500.2801 3383.7769 -1505.0176 3374.0273 C -1509.718 3364.354 -1512.1184 3353.8211 -1511.8535 3344.1758 C -1511.5625 3333.5793 -1507.9717 3322.0771 -1501.7383 3311.8691 C -1495.4425 3301.5586 -1486.2913 3292.0707 -1475.3867 3284.2637 C -1453.3913 3268.5166 -1424.3177 3259.4244 -1393.0508 3254.8652 C -1328.79 3245.4949 -1259.9667 3250.0677 -1188.1758 3249.457 L -580.69922 3244.2891 C -470.94866 3243.3554 -359.22107 3254.0912 -245.00781 3255.1523 C -186.88588 3255.6922 -125.17963 3251.4683 -66.439453 3228.4863 C -36.952162 3216.9494 -8.49059 3200.5889 15.935547 3178.1836 C 40.451157 3155.6965 60.517277 3127.3116 71.662109 3094.3535 C 81.86581 3064.1785 83.990459 3031.7202 77.806641 3000.4727 C 71.622816 2969.2252 57.294756 2940.02 36.367188 2916.0059 C 18.41657 2895.4079 -4.0001812 2879.1385 -29.009766 2868.3535 C -21.155079 2859.6793 -14.043924 2850.2903 -7.8457031 2840.2422 C 17.381699 2799.3456 26.522255 2749.9926 17.617188 2702.7734 C 7.3657795 2648.4152 -25.591195 2601.7831 -68.980469 2570.6738 C -112.07475 2539.7759 -163.65079 2524.7835 -214.63477 2522.7305 C -316.06717 2518.6464 -408.52832 2563.5347 -486.71875 2614.9434 C -492.44935 2618.7112 -498.19255 2622.5972 -503.92578 2626.5566 C -504.42374 2626.4936 -504.92183 2626.4377 -505.41992 2626.377 C -489.30283 2616.4577 -473.69731 2605.5718 -458.74219 2593.623 C -379.75032 2530.5103 -321.36557 2437.4907 -313.05469 2333.6172 C -306.57785 2252.6665 -331.43903 2170.9454 -380.91992 2106.8926 C -430.36532 2042.8857 -502.65103 1998.5236 -581.64258 1982.457 C -635.41274 1971.5204 -692.08209 1973.672 -745.02344 1990.8867 C -798.06351 2008.1335 -845.67299 2040.1678 -881.69531 2082.6836 C -900.45803 2104.8287 -915.60817 2129.3609 -927.58984 2155.1895 C -935.48103 2138.3073 -944.85293 2122.0273 -955.94531 2106.7246 C -983.47776 2068.7416 -1019.8997 2038.1774 -1060.8926 2016.6914 C -1101.7616 1995.2705 -1146.0967 1983.1596 -1190.2949 1977.5996 C -1207.2092 1975.4718 -1224.2946 1974.2979 -1241.4141 1974.1172 L -1241.4121 1974.1152 C -1244.5255 1974.0824 -1247.6393 1974.0817 -1250.7539 1974.1152 z M -1388.5273 2074.5645 C -1378.836 2079.1454 -1369.4091 2084.2274 -1360.3438 2089.8867 C -1325.9523 2111.3568 -1296.2662 2140.4907 -1275.0605 2174.457 C -1253.8791 2208.3845 -1240.9634 2247.6403 -1238.625 2287.0703 C -1236.0113 2331.1433 -1247.1805 2376.2215 -1271.5 2410.7715 C -1295.566 2444.9613 -1334.4762 2469.6512 -1374.2207 2474.0586 C -1398.3069 2476.7296 -1423.7797 2472.4208 -1446.3711 2462.1523 C -1469.0186 2451.8584 -1489.4289 2435.388 -1505.0254 2415.2598 C -1536.1392 2375.1055 -1548.2678 2318.863 -1540.1172 2266.5 C -1529.025 2195.2389 -1481.3291 2129.1353 -1418.1875 2090.3672 C -1408.6508 2084.5118 -1398.7178 2079.2927 -1388.5273 2074.5645 z M -2557.498 2463.4668 C -2502.6915 2463.9202 -2447.3334 2484.2835 -2405.9297 2519.8633 C -2360.357 2559.0258 -2330.5024 2617.7354 -2325.8945 2677.5625 C -2321.2882 2737.3685 -2341.8553 2799.954 -2381.1289 2845.1816 C -2420.3883 2890.393 -2479.5099 2919.493 -2539.2109 2922.8359 C -2562.9686 2924.1663 -2587.1189 2921.5403 -2610.5703 2915.5879 A 35.0035 35.0035 0 0 0 -2616.2012 2913.8398 C -2620.3342 2912.8705 -2624.4031 2911.6167 -2628.4805 2910.4043 C -2638.4291 2907.0856 -2648.1961 2903.1714 -2657.6777 2898.6562 C -2679.6667 2888.1854 -2700.2936 2874.5091 -2719.1133 2858.4805 C -2726.3676 2851.7346 -2733.2908 2844.6503 -2739.5469 2837.0273 C -2770.6626 2799.1127 -2789.1504 2750.0879 -2790.8184 2701.0684 C -2792.8125 2642.4641 -2770.374 2582.2083 -2730.6621 2538.875 C -2690.9275 2495.5168 -2632.9059 2467.8466 -2574.084 2463.9434 C -2570.3302 2463.6943 -2566.567 2463.5419 -2562.7988 2463.4844 C -2561.0325 2463.4574 -2559.266 2463.4522 -2557.498 2463.4668 z M -1299.5996 2689.6113 C -1296.3386 2689.6146 -1293.0677 2689.6363 -1289.7891 2689.6738 C -1139.7508 2691.3909 -984.32823 2720.8913 -825.90039 2713.9414 C -892.63737 2750.4472 -955.47408 2791.3667 -1018.752 2828.1504 C -1106.8583 2879.367 -1198.3183 2923.2537 -1293.6855 2936.4766 C -1348.8269 2944.122 -1404.8332 2940.0472 -1448.1641 2915.8633 C -1469.6883 2903.8501 -1488.0868 2886.7372 -1499.7891 2866.8145 C -1511.3782 2847.0842 -1516.626 2823.4984 -1513.6914 2802.3242 C -1511.0579 2783.3226 -1501.6499 2764.0887 -1487.8594 2748.4648 C -1473.9512 2732.7077 -1455.3064 2719.912 -1434.4922 2710.8223 C -1397.8674 2694.8278 -1354.7113 2690.1722 -1309.3516 2689.6602 C -1306.1116 2689.6237 -1302.8606 2689.6081 -1299.5996 2689.6113 z M -486.81836 2700.7598 C -476.93036 2703.1918 -467.28786 2706.2674 -458.0293 2710.0645 C -432.40219 2720.5745 -409.28238 2736.7172 -392.20703 2756.9922 C -369.18603 2784.3269 -356.4416 2821.266 -358.45703 2856.2949 C -360.46306 2891.1605 -377.58998 2926.08 -403.91992 2948.0352 C -430.10576 2969.8702 -467.48962 2980.0443 -500.38867 2973.918 C -533.07867 2967.8306 -563.95836 2944.6381 -578.05469 2915.207 C -587.39688 2895.7018 -590.72198 2872.1635 -587.99023 2849.1719 C -585.24027 2826.027 -576.51131 2802.7542 -563.60156 2781.502 C -545.03235 2750.9329 -517.91087 2724.6037 -486.81836 2700.7598 z "
       transform="translate(0,-1048)"
       id="path4139-1-0-4-2-2-4-1-2-0-8-8-0" />
    <path
       style="color:#000000;font-style:normal;font-variant:normal;font-weight:normal;font-stretch:normal;font-size:medium;line-height:normal;font-family:sans-serif;text-indent:0;text-align:start;text-decoration:none;text-decoration-line:none;text-decoration-style:solid;text-decoration-color:#000000;letter-spacing:normal;word-spacing:normal;text-transform:none;direction:ltr;block-progression:tb;writing-mode:lr-tb;baseline-shift:baseline;text-anchor:start;white-space:normal;clip-rule:nonzero;display:inline;overflow:visible;visibility:visible;opacity:1;isolation:auto;mix-blend-mode:normal;color-interpolation:sRGB;color-interpolation-filters:linearRGB;solid-color:#000000;solid-opacity:1;fill:#000000;fill-opacity:1;fill-rule:evenodd;stroke:none;stroke-width:200;stroke-linecap:round;stroke-linejoin:round;stroke-miterlimit:4;stroke-dasharray:none;stroke-dashoffset:0;stroke-opacity:1;color-rendering:auto;image-rendering:auto;shape-rendering:auto;text-rendering:auto;enable-background:accumulate"
       d="m 4590.6328,-711.92188 c -43.5955,-0.57438 -86.9702,4.94977 -128.4316,15.54297 -120.7273,30.84528 -226.692,105.60115 -295.9922,208.74414 -41.0882,-59.26142 -94.581,-109.25322 -157.0039,-145.80664 -66.0153,-38.65704 -139.3126,-61.15608 -213.5821,-68.53711 -179.4655,-17.83557 -357.3679,53.57414 -479.0683,183.0586 -121.1289,128.87646 -179.3659,305.46399 -167.0957,479.179686 7.5757,107.253622 42.2398,218.027094 117.5586,307.343754 14.3247,16.98689 30.0083,32.98341 46.9472,47.74414 41.632,38.63202 92.0221,66.79901 147.1426,81.90429 40.1895,12.11731 82.6555,17.82619 125.9336,15.36914 95.5757,-5.42615 184.5423,-49.35917 247.1231,-121.48632 62.5405,-72.0806 93.3201,-166.02902 86.0058,-260.939458 -7.3095,-94.850215 -52.008,-182.625982 -123.959,-244.494142 -71.9059,-61.82945 -165.0685,-92.70515 -259.4589,-86.50195 -55.0608,3.6185 -108.0694,19.78856 -155.2676,46.6875 19.3291,-47.56048 46.57,-91.40976 80.8027,-127.83203 79.0424,-84.09803 201.3462,-132.16534 313.5567,-121.01367 47.1231,4.68317 93.0441,19.11686 132.2988,42.10351 39.0732,22.88038 73.3437,55.52869 98.2441,93.54102 24.9076,38.0233 42.064,83.90799 51.0703,132.77734 9.0241,48.96499 10.2819,104.3032 10.5528,164.638672 l 1.6855,375.734378 a 100.01,100.01 0 0 0 200,-0.51953 l -0.2715,-379.341801 c -0.039,-55.350189 0.666,-106.356879 7.625,-152.107419 6.9521,-45.70432 20.3775,-88.86713 40.5117,-125.97852 27.3543,-50.41926 71.5286,-93.45244 122.9844,-121.95312 -13.1568,32.96608 -21.3151,68.23941 -23.1484,104.90039 -4.0092,80.17187 22.2739,160.70516 79.6269,221.96875 58.1033,62.064972 141.3355,96.464858 229.3965,87.19531 71.4482,-7.520819 134.1735,-42.78832 179.1621,-94.79102 44.5791,-51.52929 68.2637,-115.18135 72.2442,-180.04687 3.1625,-51.5359 -6.2665,-101.82168 -25.5137,-147.79492 0.5225,0.26832 1.0763,0.51313 1.5937,0.78515 22.6793,11.9222 42.4018,28.66046 56.2481,47.52539 13.7551,18.74076 23.9923,42.87439 29.0879,69.05469 3.6207,18.60238 4.8674,40.77111 5.0781,65.84766 -0.7215,18.29242 -1.114,36.13869 -1.2871,52.91211 l -1.0703,103.77734 a 100.01,100.01 0 0 0 199.9785,2.81055 l 2.1953,-123.46094 c 0.1861,-10.46408 0.3608,-21.38247 0.3731,-32.66992 1.2727,-25.75234 3.5355,-49.3437 8.1992,-69.84375 7.5687,-33.26955 21.8316,-63.36281 40.584,-85.54688 18.6868,-22.10664 44.6339,-39.55184 71.9316,-48.39257 27.5659,-8.92757 59.7152,-10.3747 90.1563,-3.94336 44.2459,9.34791 87.2045,36.43334 114.7285,72.33398 27.5258,35.90306 42.5393,84.42774 40.0996,129.61719 -2.458,45.52796 -22.3901,93.84671 -54.2324,132.78125 -32.223,39.39999 -77.6325,71.716333 -128.8789,93.601561 -83.8108,35.792107 -184.908,45.134141 -290.7891,42.123047 -106.2795,-3.022421 -219.7011,-17.950823 -341.2344,-18.425782 -56.7424,-0.221752 -124.9486,1.853034 -194.6972,32.296875 -35.1927,15.3608675 -69.6581,37.866219 -98.418,70.144531 -29.0913,32.650293 -50.8826,73.757028 -57.9922,121.685548 -8.0308,54.13888 4.217,105.98065 29.4707,149.78125 24.9411,43.25867 60.7533,75.69232 100.5645,98.04297 78.8465,44.26583 164.1716,45.96003 236.9863,34.30273 124.875,-19.99191 229.36,-80.04094 319.8555,-139.51562 77.3085,-50.80803 146.6124,-101.85139 215.6289,-139.54688 -0.9353,5.12777 -1.7596,10.30968 -2.4122,15.56836 -5.5897,45.04685 -0.1567,92.87561 21.2129,137.9375 33.3664,70.35937 97.0014,117.40654 171.7246,131.3086 74.09,13.78424 147.5967,-6.99379 203.9786,-54.08594 55.9486,-46.73031 87.8369,-113.17657 92.0468,-184.01563 4.181,-70.35166 -19.2593,-137.446507 -62.9746,-190.199216 -0.8917,-1.076136 -1.8551,-2.057667 -2.7597,-3.117187 29.2634,-10.424859 57.523,-16.054801 83.8808,-15.458985 29.5013,0.666874 57.4413,9.412933 76.6699,22.990235 18.3056,12.925514 31.4777,33.692632 34.379,50.113281 2.2947,12.98777 -0.6088,29.386402 -7.2227,40.796872 -6.6141,11.41074 -19.4002,22.07896 -31.8106,26.54297 A 100.01,100.01 0 0 0 5962.9492,347.75 c 13.4465,-0.7969 33.1259,8.09686 41.4121,18.7168 8.2863,10.61988 12.1286,31.87355 8.086,44.72265 -2.7208,8.64747 -9.272,19.40976 -18.9668,28.6543 -9.9468,9.4847 -23.8855,18.37045 -40.4942,25.19141 -33.8819,13.91484 -78.4644,19.27249 -129.1836,19.31054 -107.191,0.0804 -220.7831,-10.70348 -341.1914,-9.67968 l -590.6562,5.02148 c -62.8559,0.53445 -136.0042,-4.64323 -217.0938,8.16992 -42.7416,6.75369 -91.1142,20.07027 -136.2929,52.01172 -22.8145,16.12991 -44.2562,36.83452 -61.375,63.2207 -17.2721,26.62249 -29.4432,57.95771 -32.4649,93.15625 -2.8483,33.17864 2.9096,64.57331 14.3164,92.7793 11.326,28.00584 27.7674,51.7449 46.7481,71.47461 37.7211,39.20977 82.987,60.85719 125.4785,73.50195 81.8326,24.35211 156.876,20.02305 218.0254,20.13086 l 1195.9375,2.10938 a 100.01,100.01 0 1 0 0.3515,-200 l -1195.9375,-2.10742 c -66.1926,-0.11671 -121.1122,0.14262 -161.332,-11.82618 -18.535,-5.5157 -31.9709,-13.79168 -38.3926,-20.46679 -3.0903,-3.21234 -4.8574,-6.29188 -5.4668,-7.79883 a 100.01,100.01 0 0 0 0,-0.002 c -0.1294,-0.32008 -0.1293,-0.43844 -0.1875,-0.67579 0.1569,-0.38808 0.2977,-0.79093 0.7071,-1.42187 1.2622,-1.9455 4.2892,-5.40115 9.0507,-8.76758 9.9735,-7.05125 28.0741,-13.98123 52.0489,-17.76953 52.3428,-8.2708 115.3528,-5.11243 187.58,-5.72656 l 590.6563,-5.02149 c 106.6715,-0.907 219.7436,9.77745 339.6406,9.6875 62.8249,-0.0471 133.8643,-5.08461 205.0137,-34.30468 35.9071,-14.74651 71.3931,-35.76151 102.5332,-65.45508 31.3919,-29.93374 57.4106,-67.86565 71.7285,-113.37305 24.7709,-78.73106 9.587,-162.70567 -41.1855,-227.77734 -8.2452,-10.56724 -17.2689,-20.25552 -26.8418,-29.20117 25.3629,-50.19085 33.8168,-106.7956 23.9668,-162.544927 -13.3885,-75.775989 -57.7918,-137.616187 -115.9668,-178.693363 -57.252,-40.42538 -123.4123,-58.11353 -187.5117,-59.5625 -22.9598,-0.519 -45.2298,0.98429 -66.8477,4.05469 11.666,-34.55838 19.0457,-70.92225 21.0762,-108.53125 5.0845,-94.17913 -23.6918,-187.22631 -81.086,-262.08789 -57.396,-74.864 -139.7981,-126.82536 -232.1093,-146.32812 -63.105,-13.33229 -129.7255,-11.17738 -193.1192,9.35351 -61.7659,20.00377 -116.5416,56.50149 -159.0605,105.14844 -28.4347,-30.32432 -61.6604,-55.04045 -97.5742,-73.91992 -47.5505,-24.99666 -97.3107,-38.75 -145.3829,-45.94336 -64.3897,-9.63508 -132.548,-8.18913 -198.3886,8.85547 -36.9601,-10.30348 -74.8367,-15.45996 -112.5645,-15.95704 z m 110.0195,230.59376 c 24.8239,15.11159 45.7946,36.20742 59.1036,59.33593 13.3373,23.17785 19.9373,50.59089 18.4453,74.9043 -1.4214,23.1622 -10.7506,46.27695 -23.8731,61.44531 -12.7129,14.69497 -32.585,25.03055 -48.8457,26.74219 -19.3644,2.03835 -46.7357,-8.18926 -62.4551,-24.98047 -16.4696,-17.59259 -27.2666,-47.58078 -25.8808,-75.29297 1.1055,-22.10804 9.125,-46.1789 22.6269,-66.70898 13.6346,-20.73172 33.6836,-39.51884 57.17,-53.39258 1.2088,-0.71408 2.4774,-1.3629 3.7089,-2.05273 z m -1135.4082,379.90624 c 36.1642,1.422895 73.7454,15.703723 100.5704,38.769536 30.612,26.322216 51.8635,68.1996399 54.9472,108.214844 3.0791,39.954989 -11.556,84.41359 -37.6621,114.50195 -26.0656,30.04183 -67.9224,50.63599 -107.3945,52.87696 -15.0076,0.85203 -30.7825,-0.71455 -46.4043,-4.3711 a 100.01,100.01 0 0 0 -9.6836,-2.74804 c -2.4507,-0.57326 -4.881,-1.34571 -7.3184,-2.05665 -6.6821,-2.26786 -13.2764,-4.91357 -19.6933,-7.96484 -15.3569,-7.30228 -30.1824,-17.02983 -43.9649,-28.56836 -4.6204,-4.33347 -9.034,-8.83765 -12.9765,-13.63867 -20.822,-25.35574 -33.7874,-59.719339 -34.9043,-92.509766 -1.3273,-38.964332 14.5617,-81.77178 41.1816,-110.800781 26.6853,-29.100245 68.1275,-48.900145 107.9258,-51.515623 5.073,-0.33339 10.2106,-0.39273 15.3769,-0.18946 z m 2024.4727,239.4668 c 10.6477,6.09903 19.7717,13.60603 26.3359,21.52735 11.5891,13.98495 18.2853,34.55034 17.3243,50.7207 -0.9321,15.68297 -10.035,33.54872 -20.6094,42.38086 -10.1412,8.47029 -28.067,13.03025 -39.1895,10.96094 -10.4893,-1.95152 -23.823,-12.42555 -27.5957,-20.38086 -2.8593,-6.02941 -4.8167,-16.54334 -3.4433,-27.61133 1.4291,-11.51747 6.3381,-25.49195 14.7773,-39.29883 a 100.01,100.01 0 0 0 0,-0.002 c 7.757,-12.69077 18.8384,-25.4648 32.4004,-38.29688 z m -795.4238,10.20703 c 66.4191,0.25957 136.0525,6.12208 208.4316,11.30274 -75.6456,48.17881 -150.4205,85.79251 -223.3535,97.46875 -43.7352,7.0018 -83.3824,2.30218 -107.459,-11.21485 -11.6505,-6.54076 -20.674,-15.67391 -25.2109,-23.54297 -4.224,-7.32623 -5.5287,-16.29712 -4.9004,-20.5371 l 0,-0.002 c 0.5855,-3.94382 3.6914,-11.4827 9.4844,-17.98437 6.1251,-6.87447 16.2295,-14.27591 29.0976,-19.89258 26.373,-11.51124 65.7744,-15.78577 113.9102,-15.59766 z"
       id="path4139-1-0-4-2-2-4-1-2-0-8-5"
       inkscape:connector-curvature="0" />
  </g>
</svg>
