<?xml version="1.0" encoding="UTF-8" standalone="no"?>
<!-- Created with Inkscape (http://www.inkscape.org/) -->

<svg
   xmlns:dc="http://purl.org/dc/elements/1.1/"
   xmlns:cc="http://creativecommons.org/ns#"
   xmlns:rdf="http://www.w3.org/1999/02/22-rdf-syntax-ns#"
   xmlns:svg="http://www.w3.org/2000/svg"
   xmlns="http://www.w3.org/2000/svg"
   xmlns:sodipodi="http://sodipodi.sourceforge.net/DTD/sodipodi-0.dtd"
   xmlns:inkscape="http://www.inkscape.org/namespaces/inkscape"
   width="2000"
   height="2048"
   id="svg2992"
   version="1.1"
   inkscape:version="0.91 r13725"
   sodipodi:docname="ഞ്ജു.svg">
  <defs
     id="defs5498">
    <inkscape:path-effect
       is_visible="true"
       id="path-effect4141-3-4-6-8-9-5-4-6-5-4"
       effect="spiro" />
    <inkscape:path-effect
       effect="spiro"
       id="path-effect4142-0-1-0-3"
       is_visible="true" />
    <inkscape:path-effect
       is_visible="true"
       id="path-effect4141-3-4-6-8-9-5-4-6-5-4-6"
       effect="spiro" />
    <inkscape:path-effect
       is_visible="true"
       id="path-effect4141-3-4-6-8-9-5-4-6-5-5"
       effect="spiro" />
    <inkscape:path-effect
       is_visible="true"
       id="path-effect4141-3-4-6-8-9-5-4-6-5-4-7"
       effect="spiro" />
    <inkscape:path-effect
       is_visible="true"
       id="path-effect4141-3-4-6-8-9-5-4-6-5-4-79"
       effect="spiro" />
    <inkscape:path-effect
       is_visible="true"
       id="path-effect4141-3-4-6-8-9-5-4-6-5-4-79-9"
       effect="spiro" />
    <inkscape:path-effect
       is_visible="true"
       id="path-effect4141-3-4-6-8-9-5-4-6-5-4-5"
       effect="spiro" />
  </defs>
  <sodipodi:namedview
     inkscape:window-height="843"
     inkscape:window-width="1600"
     inkscape:pageshadow="2"
     inkscape:pageopacity="0.0"
     borderopacity="1.0"
     bordercolor="#666666"
     pagecolor="#ffffff"
     id="base"
     showgrid="true"
     showguides="true"
     inkscape:guide-bbox="true"
     inkscape:zoom="0.32102648"
     inkscape:cx="4746.6947"
     inkscape:cy="972.09689"
     inkscape:window-x="1600"
     inkscape:window-y="0"
     inkscape:current-layer="layer1"
     inkscape:window-maximized="1">
    <sodipodi:guide
       orientation="horizontal"
       position="0,600"
       id="guide5596" />
    <inkscape:grid
       type="xygrid"
       id="grid3769"
       empspacing="3"
       visible="true"
       enabled="true"
       snapvisiblegridlinesonly="true"
       spacingx="4px"
       units="px"
       dotted="true"
       spacingy="4px" />
    <sodipodi:guide
       orientation="0,1"
       position="-1040,1600"
       id="guide2985" />
    <sodipodi:guide
       position="4272,1710"
       orientation="0,1"
       id="guide4165"
       inkscape:label=""
       inkscape:color="rgb(0,0,255)" />
  </sodipodi:namedview>
  <metadata
     id="metadata5594">
    <rdf:RDF>
      <cc:Work
         rdf:about="">
        <dc:format>image/svg+xml</dc:format>
        <dc:type
           rdf:resource="http://purl.org/dc/dcmitype/StillImage" />
        <dc:title />
      </cc:Work>
    </rdf:RDF>
  </metadata>
  <g
     inkscape:label="Layer 1"
     inkscape:groupmode="layer"
     id="layer1"
     transform="translate(0,1048)">
    <path
       sodipodi:nodetypes="csasssaaaaaaaaaccsaaaaacccaaaaac"
       inkscape:connector-curvature="0"
       inkscape:original-d="m 2927.5759,874.88289 -1195.9377,-2.1085 c -22.7493,-0.0401 -311.359,-36.2761 -305.1095,-149.3352 6.8112,-123.2201 326.7881,-124.9305 348.4432,-125.1147 l 590.6559,-5.0222 c 115.4155,-0.98135 519.3033,-95.54449 561.0562,-289.35748 2.3847,-11.06942 -281.1352,-325.822363 -450.6938,-277.244624 -99.4951,28.504843 -215.7267,220.560064 -138.1957,278.043274 81.4806,60.41161 267.2117,-93.37714 237.4228,-190.33733 C 2540.3429,0.89284634 2336.8784,64.543137 2220.0967,86.072887 2023.0526,122.39975 1877.1833,358.93697 1677.3462,344.40627 c -100.9029,-7.33702 -256.6261,-67.6348 -252.2965,-168.71141 4.1016,-95.752843 164.1894,-99.944163 251.7995,-138.801543 294.9449,-130.815791 822.2636,-5.76212 915.3794,-314.687247 36.9953,-122.73743 -105.9725,-298.9233 -234.0113,-305.18337 -162.3351,-7.93689 -332.0811,151.12715 -333.0234,356.14122 l -1.0712,103.7788 2.1951,-123.46078 c 1.6133,-90.73988 -117.1279,-316.35954 -257.3642,-340.76327 -145.0116,-25.2347 -347.4156,96.23067 -369.5157,241.75294 -15.6212,102.86052 94.6709,243.30248 198.6788,240.71875 90.3885,-2.24541 177.6409,-128.44868 162.0626,-217.51293 -26.9235,-153.92591 -238.6152,-292.86896 -391.0577,-258.52737 -199.6677,44.98023 -317.7115,295.2559 -317.5312,525.535496 l 0.2704,379.342404 -1.6867,-375.734504 C 1048.8372,-322.56174 885.72691,-568.01894 667.90004,-583.82742 411.10025,-602.46431 134.21501,-285.60483 131.37547,-28.145314 129.57597,135.01498 313.88362,396.44407 463.53857,331.42159 621.04922,262.986 587.77156,-126.22511 425.47537,-182.37651 312.20425,-221.56617 186.13503,-36.688554 182.9833,83.128987 180.27596,186.05251 379.00627,321.83429 379.00627,321.83429"
       inkscape:path-effect="#path-effect4141-3-4-6-8-9-5-4-6-5-4"
       id="path4139-1-0-4-2-2-4-1-2-0-8"
       d="m 2927.5759,874.88289 -1195.9377,-2.1085 c -63.671,-0.11226 -128.6523,2.18152 -189.6785,-15.97893 -30.5132,-9.08023 -59.8637,-24.04102 -81.9351,-46.98346 -11.0357,-11.47122 -20.1399,-24.88156 -26.1076,-39.63832 -5.9678,-14.75675 -8.7498,-30.87505 -7.3883,-46.73449 1.4443,-16.82412 7.5315,-33.1169 16.7221,-47.28273 9.1905,-14.16584 21.4254,-26.24509 35.2134,-35.99326 27.5761,-19.49635 60.8127,-29.62028 94.1709,-34.89127 66.7162,-10.54198 134.7952,-6.37315 202.3368,-6.94744 l 590.6559,-5.0222 c 115.344,-0.98074 233.5755,-2.476 341.298,-43.72003 53.8612,-20.62201 104.4125,-51.30954 144.0818,-93.17413 39.6693,-41.8646 68.03,-95.29836 75.6764,-152.46332 7.0923,-53.02244 -3.9263,-108.04484 -29.3911,-155.08973 C 2871.828,101.81019 2832.2303,62.801873 2785.6384,36.517452 2739.0465,10.233031 2685.6573,-3.4413237 2632.1741,-4.5472019 2578.6909,-5.65308 2525.1738,5.6608088 2475.9902,26.700186 c -54.003,23.100998 -104.1989,59.326827 -133.6241,110.161254 -14.7126,25.41721 -23.9355,54.19108 -25.2348,83.5306 -1.2994,29.33951 5.4996,59.20068 20.6632,84.35142 21.4057,35.50405 59.4354,60.29299 100.4478,66.35322 41.0123,6.06024 84.2549,-6.47121 116.2021,-32.89314 31.9472,-26.42193 52.2877,-66.18724 55.8432,-107.49221 3.5555,-41.30497 -9.5136,-83.66171 -35.0703,-116.3052 -19.7867,-25.273422 -46.6368,-44.675605 -76.2001,-57.176479 -29.5632,-12.500873 -61.7763,-18.232052 -93.8728,-18.490896 -64.1932,-0.517687 -126.7584,20.438299 -185.0477,47.334132 -91.5344,42.235763 -175.3069,99.276973 -262.5892,149.717133 -87.2823,50.44015 -180.2758,95.00376 -280.1613,108.61625 -58.1638,7.92662 -120.0739,4.45223 -171.3533,-24.11857 -25.6396,-14.2854 -48.0747,-34.7746 -62.9714,-60.06401 -14.8966,-25.28941 -21.9703,-55.45175 -17.9718,-84.52883 3.5805,-26.03714 15.8821,-50.53187 33.2706,-70.23956 17.3885,-19.707678 39.7056,-34.753312 63.7955,-45.261841 48.1798,-21.017056 102.173,-23.94379 154.7334,-23.300142 180.1617,2.206238 361.0657,42.584915 539.1842,15.438452 89.0592,-13.573232 176.931,-44.8719816 247.3019,-101.118799 70.371,-56.24682 121.7649,-139.20174 128.8933,-229.0069 5.5443,-69.84827 -16.2148,-141.36642 -59.0695,-196.80104 -42.8546,-55.43462 -106.2833,-94.39924 -174.9418,-108.38233 -46.7997,-9.5313 -96.0926,-7.59463 -141.5193,7.1522 -45.4268,14.74684 -86.5627,42.39026 -117.4515,78.81747 -30.8888,36.42721 -51.2017,81.15214 -61.8398,127.71276 -10.6381,46.56062 -11.7198,94.70089 -12.2128,142.45879 l -1.0712,103.7788 2.1951,-123.46078 c 0.7107,-39.97057 0.8926,-80.24782 -6.6182,-119.51279 -7.5109,-39.26498 -22.7365,-77.25389 -46.2126,-109.61166 -23.4761,-32.35777 -54.8758,-58.75926 -90.2926,-77.30125 -35.4167,-18.54198 -74.576,-29.35212 -114.2408,-34.33757 -80.8158,-10.15771 -165.687,4.22534 -235.1188,46.81176 -69.4318,42.58641 -121.8773,114.45741 -134.3969,194.94118 -9.2433,59.42144 4.0298,123.11416 40.8829,170.63465 18.4265,23.76024 42.4652,43.25013 69.842,55.68386 27.3768,12.43373 58.0691,17.71423 87.9539,14.40024 49.5803,-5.49805 95.1941,-34.92836 123.9232,-75.70916 28.729,-40.78081 41.0829,-92.00649 38.1394,-141.80377 -2.6207,-44.3365 -16.9999,-87.80973 -40.5303,-125.4782 -23.5304,-37.66847 -56.1014,-69.52058 -93.7868,-93.02385 -75.3708,-47.00653 -170.0219,-59.26683 -256.7406,-40.02532 -109.4231,24.27926 -205.7358,99.41038 -258.4434,198.32858 -26.3538,49.4591 -42.4003,104.02014 -50.5844,159.46152 -8.184,55.44138 -8.5433,111.70323 -8.5034,167.745396 l 0.2704,379.342404 -1.6867,-375.734504 c -0.2738,-60.994706 -1.1523,-122.328946 -12.2073,-182.314096 -11.0549,-59.98514 -32.3411,-118.42763 -65.76416,-169.45042 -33.4231,-51.02279 -78.72867,-94.21548 -131.36366,-125.03733 -52.635,-30.82185 -112.24262,-49.28692 -172.93894,-55.31903 -145.83797,-14.49364 -295.94177,45.2439 -396.31314,152.03514 -100.37136,106.79123 -150.53755,257.4548 -140.21143,403.646966 6.37865,90.305825 35.89378,180.715204 94.25538,249.923244 29.1808,34.60402 65.31913,63.53599 106.19833,82.9743 40.8792,19.43832 86.51675,29.2351 131.70939,26.66936 67.52392,-3.83356 132.93537,-36.09714 177.25862,-87.18162 44.32325,-51.08449 67.03157,-120.28752 61.83491,-187.720227 -5.19666,-67.432708 -38.17248,-132.260246 -89.45396,-176.355433 -51.28147,-44.09519 -120.2157,-66.97597 -187.70277,-62.54082 -66.13898,4.34656 -130.2731,34.86305 -175.07041,83.714451 -44.7973,48.851396 -69.67816,115.547813 -67.42166,181.791046 1.88382,55.302553 22.44748,109.803913 57.56452,152.567393 35.11704,42.76347 84.57829,73.53436 138.45845,86.13791"
       style="fill:none;fill-rule:evenodd;stroke:#000000;stroke-width:140;stroke-linecap:round;stroke-linejoin:round;stroke-miterlimit:4;stroke-dasharray:none;stroke-opacity:1" />
    <path
       style="color:#000000;font-style:normal;font-variant:normal;font-weight:normal;font-stretch:normal;font-size:medium;line-height:normal;font-family:sans-serif;text-indent:0;text-align:start;text-decoration:none;text-decoration-line:none;text-decoration-style:solid;text-decoration-color:#000000;letter-spacing:normal;word-spacing:normal;text-transform:none;direction:ltr;block-progression:tb;writing-mode:lr-tb;baseline-shift:baseline;text-anchor:start;white-space:normal;clip-rule:nonzero;display:inline;overflow:visible;visibility:visible;opacity:1;isolation:auto;mix-blend-mode:normal;color-interpolation:sRGB;color-interpolation-filters:linearRGB;solid-color:#000000;solid-opacity:1;fill:#000000;fill-opacity:1;fill-rule:evenodd;stroke:none;stroke-width:140;stroke-linecap:round;stroke-linejoin:round;stroke-miterlimit:4;stroke-dasharray:none;stroke-dashoffset:0;stroke-opacity:1;color-rendering:auto;image-rendering:auto;shape-rendering:auto;text-rendering:auto;enable-background:accumulate"
       d="m 1802.8457,1200.5293 c -48.2403,-0.5359 -96.8712,6.3922 -143.2871,21.7285 -73.177,-24.3316 -152.2328,-26.9976 -226.5938,-10.498 -130.7562,29.0128 -242.6263,116.5792 -305.0586,233.748 -0.3675,0.6898 -0.6829,1.3969 -1.0468,2.0879 -5.384,-9.6298 -10.9951,-19.1635 -17.0957,-28.4766 -39.389,-60.1301 -92.4187,-110.705 -154.5469,-147.0859 -62.00114,-36.3064 -131.1911,-57.594 -201.38868,-64.5703 -169.37723,-16.833 -338.9405,51.0755 -454.24218,173.7519 -114.90164,122.251 -170.71824,291.0609 -159.03125,456.5196 7.21661,102.1692 40.33672,206.8331 110.56836,290.1172 13.41944,15.9134 28.11231,30.8697 43.95117,44.6484 38.23239,35.5788 84.68635,61.5923 135.30078,75.4492 37.17505,11.2669 76.39514,16.5629 116.13672,14.3067 87.16007,-4.9485 169.06053,-45.3791 226.16406,-111.1934 57.07526,-65.7818 85.43481,-152.3075 78.75586,-238.9746 -6.67569,-86.625 -47.85929,-167.5165 -113.60937,-224.0527 -65.71862,-56.5093 -151.61219,-84.9873 -237.93165,-79.3145 -79.70299,5.238 -155.3389,39.3236 -211.89453,95.6855 16.49746,-84.9539 55.56106,-165.5555 113.60352,-227.3105 85.44104,-90.9059 216.0841,-142.4745 338.38281,-130.3203 51.19507,5.0878 101.2214,20.7311 144.49024,46.0684 43.14179,25.2628 80.72246,61.0747 108.17968,102.9902 27.46226,41.9231 45.85766,91.5752 55.47856,143.7793 9.6333,52.2709 10.7771,109.4082 11.0488,169.9414 l 1.6875,375.7344 a 70.007,70.007 0 0 0 140,-0.3633 l -0.2715,-379.3438 c -0.04,-55.7096 0.5258,-108.5066 7.7539,-157.4726 7.2226,-48.9281 21.259,-95.7546 43.1113,-136.7656 42.983,-80.6677 123.7402,-143.3625 211.8301,-162.9083 5.686,-1.2616 11.4267,-2.2881 17.1875,-3.205 -36.3747,45.4449 -61.9201,99.7528 -71.2031,159.4297 -11.9753,76.985 4.3086,159.2666 54.7363,224.291 25.1338,32.4091 57.805,59.0785 96.211,76.5215 38.5178,17.4936 81.4161,25.0287 124.6152,20.2382 72.1036,-7.9956 133.7458,-48.6321 173.4336,-104.9687 39.1822,-55.6192 54.5821,-122.1112 50.791,-186.2481 -3.3516,-56.7018 -21.4762,-111.108 -51.0391,-158.4336 -7.2627,-11.6264 -15.185,-22.7498 -23.6738,-33.3632 1.624,0.1791 3.2598,0.2181 4.8809,0.4218 32.8982,4.135 63.9645,13.0051 90.5019,26.8985 26.2889,13.7632 49.4197,33.4015 66.1016,56.3945 16.6314,22.9235 28.3207,51.3539 34.1172,81.6563 4.151,21.7007 5.4171,46.052 5.58,72.4765 -0.743,18.0907 -1.1528,35.8608 -1.3281,52.8438 l -1.0644,103.2558 -0.01,0.5235 a 70.007,70.007 0 0 0 139.9844,1.9668 l 2.1953,-123.461 c 0.1882,-10.5836 0.3443,-21.5102 0.3477,-32.6875 1.3022,-27.1096 3.713,-52.6278 8.9941,-75.7422 8.4964,-37.1869 24.5882,-71.6167 46.9883,-98.0332 22.3596,-26.3686 52.8787,-46.8631 85.6738,-57.5097 32.9938,-10.7108 70.3733,-12.3818 105.9375,-5.1387 52.0018,10.5908 101.4086,41.0518 133.5293,82.6016 32.0491,41.4571 48.7729,96.7594 44.6699,148.4492 -5.2974,66.7387 -45.6817,134.2 -102.8164,179.8672 -58.0638,46.4099 -134.1506,74.406 -214.1445,86.5976 -160.9186,24.5251 -337.7345,-13.9051 -527.7793,-16.2324 -55.7454,-0.6827 -120.0159,1.4048 -183.5801,29.1328 -32.0118,13.9642 -62.9434,34.3764 -88.2969,63.1113 -25.5902,29.0033 -44.4057,65.4111 -50.1269,107.0157 -6.4064,46.5875 4.6719,91.6818 27.0039,129.5937 22.1042,37.5253 53.8818,65.9993 89.2148,85.6856 70.0976,39.0555 147.4164,41.5217 214.877,32.3281 114.3791,-15.5877 215.2654,-65.0885 305.7324,-117.3691 90.277,-52.1707 172.3758,-107.766 256.8926,-146.7637 4.209,-1.9422 8.4068,-3.7388 12.6074,-5.5762 -8.4159,23.0728 -13.6989,47.6521 -14.832,73.2383 -1.8699,42.2194 7.6121,85.3833 30.6484,123.5918 32.8955,54.5613 88.0328,90.2764 150.1621,99.457 61.8558,9.1401 123.5705,-8.9339 171.0469,-48.1992 47.2827,-39.1053 75.79,-95.2217 80.9727,-155.4297 5.1631,-59.9819 -13.1608,-118.7955 -49.6954,-165.4609 -1.5594,-1.9919 -3.2402,-3.8401 -4.8515,-5.7715 1.7464,0 3.5015,-0.081 5.2441,-0.045 42.522,0.8792 84.8081,11.9016 120.5176,32.0468 35.5607,20.0613 65.7734,50.1167 84.4883,84.6914 18.6121,34.3849 26.5558,75.2167 21.5703,112.4883 -5.3908,40.302 -26.4353,81.2262 -57.1074,113.5957 -30.9946,32.7098 -72.4352,58.3893 -118.2989,75.9492 -92.2775,35.3306 -201.7175,38.1167 -316.8632,39.0958 l -590.6563,5.0214 c -64.2616,0.5464 -135.8904,-4.3289 -212.668,7.8028 -39.9266,6.3089 -83.7583,18.6691 -123.6562,46.8769 -20.1064,14.2153 -38.785,32.3305 -53.5254,55.0508 -14.848,22.8857 -25.1937,49.7079 -27.7422,79.3945 -2.4023,27.9829 2.4632,54.7956 12.2383,78.9668 9.7185,24.0308 23.9575,44.6717 40.5547,61.9239 33.0262,34.3295 73.5181,53.9694 112.416,65.5449 75.5907,22.4945 147.6137,18.7775 209.5195,18.8867 l 1195.9395,2.1094 a 70.007,70.007 0 1 0 0.2461,-140 l -1195.9375,-2.1094 c -65.4362,-0.1154 -123.3742,0.7559 -169.836,-13.0703 -22.1285,-6.5851 -40.3384,-16.8666 -51.455,-28.4219 -5.4739,-5.6898 -9.4433,-11.8696 -11.6602,-17.3515 -2.1605,-5.3425 -2.8598,-10.768 -2.5391,-14.504 0.3401,-3.9615 2.17,-9.724 5.7032,-15.1699 a 70.007,70.007 0 0 0 0,-0 c 3.6406,-5.6116 9.4307,-11.6525 16.9004,-16.9336 15.2543,-10.7848 37.8958,-18.6732 64.6855,-22.9063 56.6549,-8.9521 121.1843,-5.4896 192.0059,-6.0918 l 590.6562,-5.0234 c 115.5423,-0.9824 242.565,-1.1863 365.7324,-48.3438 61.8588,-23.684 121.5193,-59.3809 169.8633,-110.4003 48.6665,-51.3597 84.3461,-117.3021 94.2481,-191.3301 9.1991,-68.7732 -4.8953,-137.9865 -37.2129,-197.6914 -32.2148,-59.5151 -81.1972,-107.4769 -138.8203,-139.9844 -57.4744,-32.4238 -121.9677,-48.7495 -186.4121,-50.082 -16.8025,-0.3475 -33.515,0.371 -50.0801,1.9843 43.2402,-57.0029 72.5526,-125.1742 78.4687,-199.707 6.9857,-88.0068 -19.8104,-175.74 -73.4707,-245.1523 -53.5885,-69.3195 -131.0364,-116.7867 -216.3515,-134.1621 -58.0352,-11.8196 -119.244,-9.6169 -177.1036,9.166 -58.0578,18.8473 -109.8089,53.6397 -149.2265,100.125 -6.3075,7.4384 -12.0997,15.1644 -17.6582,23.0117 -30.0235,-40.5142 -68.9123,-72.8522 -112.5371,-95.6914 -44.296,-23.1907 -91.5472,-35.9394 -137.9785,-41.7754 -17.8022,-2.2376 -35.7955,-3.4831 -53.8438,-3.6836 z m -143.6309,173.957 c 2.9014,1.6341 5.7959,3.2766 8.6094,5.0313 28.9568,18.0595 53.9142,42.6253 71.461,70.7148 17.4979,28.0115 28.1316,60.5503 30.0214,92.5215 2.0959,35.4577 -7.2105,71.417 -25.4863,97.3594 -17.7704,25.225 -47.3551,43.4508 -74.4121,46.4512 a 70.007,70.007 0 0 0 -0,0 c -16.5705,1.8375 -35.0552,-1.1888 -51.291,-8.5625 -16.3476,-7.4247 -31.7534,-19.7343 -43.4726,-34.8458 a 70.007,70.007 0 0 0 0,-0 c -23.2785,-30.0166 -33.5424,-75.1188 -27.0313,-116.9766 8.9288,-57.3997 48.9255,-113.583 101.8282,-146.0312 3.2017,-1.9638 6.4667,-3.8421 9.7753,-5.6602 z M 527.4375,1748.168 c 43.04684,1.5993 86.86863,18.2985 119.10742,46.0195 36.81288,31.6541 61.5812,80.4176 65.29883,128.6582 3.71437,48.1983 -13.34282,100.0796 -44.91406,136.4668 -31.54297,36.3547 -80.46575,60.4492 -128.35352,63.168 -18.60121,1.056 -37.80808,-0.9381 -56.63867,-5.5157 a 70.007,70.007 0 0 0 -7.98242,-2.3437 c -3.3308,-0.7791 -6.62124,-1.7939 -9.91797,-2.7754 -7.86776,-2.6649 -15.61114,-5.782 -23.14258,-9.3633 -17.99485,-8.5566 -35.11152,-19.8322 -50.88476,-33.1152 -5.82157,-5.4121 -11.37327,-11.0767 -16.35938,-17.1484 -25.11048,-30.5781 -40.35414,-70.9813 -41.70117,-110.5254 -1.60604,-47.148 16.97968,-97.1221 49.05273,-132.0977 32.11888,-35.0256 80.36981,-58.0409 128.07032,-61.1758 6.08183,-0.3997 12.21568,-0.4804 18.36523,-0.2519 z m 1209.3203,219.6562 c 5.9848,-0.073 12.0683,-0.064 18.2402,0.012 102.4044,1.2541 210.1632,16.9873 322.2559,22.9161 -25.5146,15.5723 -50.7666,30.9301 -75.7656,45.3769 -84.0976,48.5998 -169.196,88.2279 -254.5879,99.8652 -48.867,6.6597 -95.3708,2.1779 -127.832,-15.9082 -15.9462,-8.8845 -29.0375,-21.3898 -36.7266,-34.4433 -7.4614,-12.6669 -10.53,-27.8982 -8.9395,-39.4649 1.4398,-10.4696 7.2254,-23.0509 16.4122,-33.4629 a 70.007,70.007 0 0 0 0,0 c 9.4235,-10.6804 23.125,-20.3612 39.293,-27.414 28.6959,-12.5178 65.7547,-16.9654 107.6484,-17.4766 z m 799.2559,9.5469 c 5.0769,1.5417 10.0191,3.2805 14.7461,5.2793 19.6364,8.3033 36.7877,21.0906 48.3457,35.8535 14.5788,18.6215 22.3931,44.5223 20.4453,67.1504 -1.9284,22.4018 -14.1012,45.816 -30.7129,59.5547 -16.418,13.5784 -41.1884,20.5662 -61.3574,17.5859 -19.8953,-2.9398 -40.8166,-16.8013 -50.7325,-33.248 -7.2909,-12.0929 -11.4086,-28.6518 -10.6796,-45.1114 0.741,-16.7336 6.2949,-34.9879 15.8867,-51.5585 12.0233,-20.7713 30.9147,-39.6532 54.0586,-55.5059 z"
       id="path4139-1-0-4-2-2-4-1-2-0-8-2"
       inkscape:connector-curvature="0" />
    <path
       sodipodi:nodetypes="csasssaaaaaaaaaccsaaaaacccaaaaac"
       inkscape:connector-curvature="0"
       inkscape:original-d="m -1296.4459,888.49319 -1217.235,-2.14688 c -23.1544,-0.0408 -312.1906,-10.84339 -310.5428,-122.05364 1.861,-125.59766 332.6075,-127.20469 354.6482,-127.39224 l 601.1743,-5.11362 c 117.4709,-0.99917 528.5511,-97.28376 571.0475,-294.62481 2.4272,-11.27092 -286.1416,-331.7534986 -458.7197,-282.291469 -101.2669,29.023731 -219.5684,224.575049 -140.6567,283.104659 82.9316,61.51132 271.9702,-95.07694 241.6508,-193.80216 -35.4954,-115.579625 -242.5832,-50.770672 -361.4446,-28.849 -200.553,36.98814 -349.02,277.83119 -552.4158,263.03597 -102.6998,-7.47058 -261.1961,-68.86599 -256.7894,-171.78256 4.1747,-97.49589 167.1133,-101.7635 256.2836,-141.328227 300.1972,-133.197109 836.9064,-5.867012 931.6804,-320.415693 37.6542,-124.97169 -107.8596,-304.36478 -238.1785,-310.73881 -165.226,-8.08137 -337.9948,153.87821 -338.9539,362.62428 l -1.0903,105.667945 2.2342,-125.708215 c 1.642,-92.39167 -119.2137,-322.11842 -261.9473,-346.96638 -147.594,-25.69407 -353.6024,97.98241 -376.0961,246.15371 -15.8994,104.73295 96.3568,247.731461 202.2169,245.100698 91.9981,-2.286285 180.8043,-130.786908 164.9486,-221.472448 -27.4029,-156.72792 -242.8645,-298.20023 -398.0217,-263.2335 -203.2233,45.79903 -323.3693,300.63062 -323.1857,535.10214 l 0.2752,404.2478 -1.7168,-400.574224 c -1.3607,-275.785736 -167.3756,-525.711146 -389.0816,-541.807396 -261.3729,-18.97615 -540.0609,303.75362 -546.0789,565.7975256 -3.9162,170.5224344 180.7506,450.0006444 338.0782,384.1123144 166.8077,-69.85859 132.0968,-481.825775 -38.741,-541.15108 -115.267,-40.02775 -241.4823,148.4357549 -246.8104,270.33866 -4.7824,109.41629 199.5138,261.05059 199.5138,261.05059"
       inkscape:path-effect="#path-effect4141-3-4-6-8-9-5-4-6-5-4-79"
       id="path4139-1-0-4-2-2-4-1-2-0-8-1"
       d="m -1296.4459,888.49319 -1217.235,-2.14688 c -61.4229,-0.10833 -123.5233,3.58284 -183.8258,-8.09616 -30.1512,-5.8395 -59.9589,-16.51964 -84.0178,-35.60795 -12.0295,-9.54416 -22.4969,-21.16596 -30.0738,-34.52224 -7.5769,-13.35627 -12.2089,-28.47718 -12.6254,-43.82729 -0.4726,-17.41686 4.5065,-34.79871 13.2035,-49.89613 8.6971,-15.09742 21.0187,-27.96142 35.1299,-38.18119 28.2225,-20.43954 62.8776,-30.26489 97.414,-34.90362 69.0728,-9.27745 139.2103,-3.81851 208.9008,-4.4113 l 601.1743,-5.11362 c 117.4102,-0.9987 237.762,-2.52904 347.4051,-44.53554 54.8215,-21.00325 106.27,-52.25437 146.6394,-94.87891 40.3694,-42.62454 69.2254,-97.02062 77.003,-155.21036 7.2137,-53.97048 -3.9997,-109.97453 -29.914,-157.86294 -25.9143,-47.88841 -66.211,-87.600967 -113.6293,-114.365821 -47.4183,-26.764853 -101.7576,-40.697527 -156.1961,-41.836173 -54.4385,-1.138646 -108.9148,10.36559 -158.9803,31.773465 -54.9904,23.513764 -106.1028,60.401829 -136.0558,112.167239 -14.9766,25.88271 -24.3607,55.18359 -25.6743,85.05809 -1.3136,29.87449 5.6214,60.27765 21.0734,85.87933 21.8036,36.12539 60.5187,61.33933 102.2627,67.49389 41.7441,6.15456 85.7517,-6.61066 118.2621,-33.50883 32.5105,-26.89818 53.2072,-67.37275 56.823,-109.41284 3.6157,-42.04008 -9.6866,-85.1494 -35.697,-118.37438 -20.1385,-25.7244 -47.466,-45.473776 -77.5553,-58.199326 -30.0893,-12.72555 -62.876,-18.561162 -95.5446,-18.826479 -65.3371,-0.530636 -129.0187,20.797075 -188.3447,48.176805 -93.1686,42.99852 -178.4258,101.08264 -267.2581,152.44487 -88.8322,51.36224 -183.4845,96.74163 -285.1577,110.5911 -59.2072,8.06494 -122.2278,4.51452 -174.4201,-24.5802 -26.0961,-14.54737 -48.9287,-35.40899 -64.0876,-61.15474 -15.1588,-25.74576 -22.3544,-56.44952 -18.2817,-86.04762 3.6467,-26.50162 16.1675,-51.43311 33.8649,-71.49389 17.6975,-20.06078 40.4105,-35.37799 64.9285,-46.078696 49.0358,-21.401412 103.9914,-24.395536 157.4902,-23.755641 183.3616,2.193171 367.4871,43.229667 548.7639,15.571241 90.6384,-13.829211 180.0655,-45.69031 251.6885,-102.932933 71.6229,-57.242623 123.9414,-141.656671 131.228,-233.054001 5.6693,-71.11194 -16.4593,-143.93505 -60.0776,-200.38404 -43.6184,-56.44898 -108.1962,-96.12849 -178.1009,-110.35477 -47.6422,-9.69565 -97.8213,-7.71018 -144.0599,7.31556 -46.2387,15.02574 -88.1047,43.17902 -119.5392,80.26885 -31.4346,37.08982 -52.1037,82.62163 -62.9282,130.02011 -10.8245,47.39848 -11.925,96.40357 -12.4266,145.01976 l -1.0903,105.667945 2.2342,-125.708215 c 0.7232,-40.69105 0.9087,-81.69401 -6.7334,-121.66753 -7.6422,-39.97352 -23.1343,-78.64963 -47.0248,-111.59702 -23.8905,-32.94739 -55.8473,-59.83522 -91.8969,-78.72196 -36.0496,-18.88674 -75.9128,-29.90189 -116.2922,-34.97987 -82.2637,-10.34521 -168.6564,4.32014 -239.3204,47.68998 -70.664,43.36985 -124.0266,116.53812 -136.7757,198.46373 -9.4139,60.49376 4.0812,125.33798 41.5873,173.72611 18.7531,24.19407 43.2211,44.04209 71.0898,56.705452 27.8688,12.663363 59.1154,18.043014 89.5398,14.669136 50.4766,-5.597541 96.9112,-35.570718 126.1496,-77.095868 29.2384,-41.52516 41.8016,-93.67936 38.799,-144.37658 -2.6728,-45.13016 -17.3062,-89.38136 -41.2517,-127.72833 -23.9455,-38.34697 -57.0908,-70.77775 -95.4444,-94.71255 -76.7073,-47.86962 -173.0539,-60.37851 -261.3256,-40.79262 -111.4008,24.71782 -209.4291,101.25019 -263.0622,201.97063 -26.8166,50.36022 -43.1418,105.90981 -51.4686,162.35397 -8.3269,56.44416 -8.6937,113.722496 -8.6549,170.77754 l 0.2752,404.2478 -1.7168,-400.574224 c -0.2662,-62.122402 -1.1429,-124.588996 -12.358,-185.691236 -11.2152,-61.10225 -32.8266,-120.64816 -66.8116,-172.65089 -33.985,-52.00272 -80.0913,-96.04504 -133.7032,-127.4301 -53.612,-31.38505 -114.368,-50.12115 -176.2088,-56.03517 -148.0759,-14.16094 -299.958,47.59762 -401.5093,156.29138 -101.5513,108.69376 -152.648,260.97418 -144.5696,409.5061456 5.126,94.2483054 34.0904,188.9664944 93.2299,262.5297044 29.5697,36.78161 66.4339,67.89356 108.4521,89.38133 42.0182,21.48777 89.2131,33.20449 136.3962,32.20128 72.8135,-1.54816 144.3926,-34.41347 193.1953,-88.47361 48.8028,-54.06015 74.1904,-128.51598 68.8091,-201.14689 -5.3813,-72.630907 -41.3983,-142.456643 -97.3137,-189.122268 -55.9153,-46.665622 -130.9582,-69.605232 -203.4317,-62.408312 -66.5404,6.60775 -130.3213,38.38746 -175.4717,87.710196 -45.1505,49.322732 -71.1999,115.760875 -71.3387,182.628464 -0.1223,58.87647 19.6867,117.61774 55.4385,164.3966 35.7518,46.77887 87.232,81.31473 144.0753,96.65399"
       style="fill:none;fill-rule:evenodd;stroke:#000000;stroke-width:70;stroke-linecap:round;stroke-linejoin:round;stroke-miterlimit:4;stroke-dasharray:none;stroke-opacity:1" />
    <path
       style="color:#000000;font-style:normal;font-variant:normal;font-weight:normal;font-stretch:normal;font-size:medium;line-height:normal;font-family:sans-serif;text-indent:0;text-align:start;text-decoration:none;text-decoration-line:none;text-decoration-style:solid;text-decoration-color:#000000;letter-spacing:normal;word-spacing:normal;text-transform:none;direction:ltr;block-progression:tb;writing-mode:lr-tb;baseline-shift:baseline;text-anchor:start;white-space:normal;clip-rule:nonzero;display:inline;overflow:visible;visibility:visible;opacity:1;isolation:auto;mix-blend-mode:normal;color-interpolation:sRGB;color-interpolation-filters:linearRGB;solid-color:#000000;solid-opacity:1;fill:#000000;fill-opacity:1;fill-rule:evenodd;stroke:none;stroke-width:70;stroke-linecap:round;stroke-linejoin:round;stroke-miterlimit:4;stroke-dasharray:none;stroke-dashoffset:0;stroke-opacity:1;color-rendering:auto;image-rendering:auto;shape-rendering:auto;text-rendering:auto;enable-background:accumulate"
       d="M -1955.2031 2743.5391 C -2001.429 2744.0336 -2047.7102 2751.9294 -2091.3555 2767.8633 C -2162.3483 2741.6478 -2240.787 2737.7952 -2314.2344 2754.0918 C -2436.3114 2781.1785 -2542.1176 2863.9364 -2600.6094 2973.7812 C -2613.4586 2997.9116 -2623.8942 3023.0188 -2632.4336 3048.6445 C -2644.8141 3014.0944 -2660.806 2980.6801 -2681.1523 2949.5469 C -2718.117 2892.9848 -2768.089 2845.2359 -2826.4707 2811.0586 C -2884.7909 2776.9172 -2950.3776 2756.7628 -3017.0293 2750.3887 C -3176.9627 2735.0938 -3338.5242 2801.0451 -3447.4453 2917.627 C -3556.1312 3033.957 -3609.9722 3195.109 -3601.3887 3352.9277 C -3595.9434 3453.0454 -3565.3253 3554.8382 -3500.4902 3635.4863 C -3491.7412 3646.3692 -3482.3544 3656.7696 -3472.4609 3666.6914 C -3433.0942 3711.1498 -3380.9965 3743.6577 -3323.5195 3759.168 A 35.0035 35.0035 0 0 0 -3310.998 3760.3457 C -3283.905 3767.228 -3255.8815 3770.7318 -3227.6191 3770.1309 C -3144.7684 3768.3692 -3064.6688 3731.5773 -3009.1875 3670.1191 C -2953.7193 3608.6755 -2925.3422 3525.4096 -2931.4531 3442.9316 C -2937.5626 3360.473 -2977.8209 3282.4585 -3041.2461 3229.5254 C -3104.6566 3176.6045 -3188.4472 3151.0058 -3270.5625 3159.1602 C -3345.8956 3166.641 -3417.2133 3202.1558 -3468.3926 3258.0645 C -3495.8623 3288.0726 -3516.9169 3323.4151 -3530.625 3361.4297 C -3530.9457 3357.3302 -3531.2689 3353.2297 -3531.4922 3349.125 C -3539.0655 3209.8798 -3490.7136 3066.4714 -3396.2969 2965.4141 C -3302.1152 2864.6083 -3159.9118 2807.0434 -3023.6934 2820.0703 C -2966.6635 2825.5242 -2910.7397 2842.8398 -2861.8359 2871.4688 C -2812.9938 2900.0615 -2770.7534 2940.3985 -2739.748 2987.8418 C -2708.7392 3035.2904 -2688.5653 3090.4431 -2678.0625 3147.6641 C -2667.5536 3204.9187 -2666.5445 3265.2919 -2666.2793 3327.1855 L -2664.5645 3727.2422 L -2664.5645 3727.6348 L -2664.5645 3727.7598 A 35.0035 35.0035 0 0 0 -2594.5664 3727.5859 L -2594.5664 3727.4609 L -2594.5664 3727.4375 L -2594.8418 3323.3398 C -2594.8808 3266.4508 -2594.4101 3210.9022 -2586.5605 3157.6934 C -2578.7138 3104.5033 -2563.3919 3052.8187 -2538.8242 3006.6816 C -2490.0498 2915.0857 -2399.7988 2844.7786 -2299.0742 2822.4297 C -2261.186 2814.023 -2221.6333 2812.3146 -2183.2637 2817.2637 C -2249.1048 2866.5319 -2297.4819 2939.5838 -2310.3828 3022.4844 C -2321.1625 3091.7549 -2306.1661 3165.8916 -2261.875 3223.0332 C -2239.7694 3251.5527 -2210.986 3274.9925 -2177.6016 3290.1621 C -2144.1613 3305.3571 -2106.809 3311.8664 -2069.7246 3307.7539 C -2007.9813 3300.907 -1953.5312 3265.3271 -1918.8145 3216.0215 C -1884.351 3167.0756 -1870.2684 3107.289 -1873.6953 3049.4258 C -1876.734 2998.1173 -1893.2377 2948.4023 -1920.1973 2905.2285 C -1941.5555 2871.0248 -1969.2811 2841.3552 -2001.1152 2817.2051 C -1969.1425 2812.6195 -1936.2942 2812.3871 -1904.0703 2816.4395 C -1867.0791 2821.0914 -1831.2638 2831.1352 -1799.6543 2847.6953 C -1768.1687 2864.191 -1740.345 2887.6956 -1719.8496 2915.9609 C -1699.3792 2944.1916 -1685.6531 2978.0896 -1678.8672 3013.584 C -1673.9676 3039.2125 -1672.6331 3066.4564 -1672.5098 3094.7793 C -1673.283 3112.8831 -1673.7176 3130.8325 -1673.8984 3148.3574 L -1674.9883 3254.0254 A 35.0035 35.0035 0 0 0 -1604.9961 3255.0098 L -1604.9961 3254.748 L -1602.7656 3129.3008 C -1602.5714 3118.3756 -1602.4359 3107.2541 -1602.4492 3096.0098 C -1601.0992 3066.7306 -1598.4847 3038.3308 -1592.3555 3011.4922 C -1582.6009 2968.7787 -1564.0403 2928.3932 -1536.8477 2896.3086 C -1509.6754 2864.2477 -1473.1168 2839.6707 -1433.1934 2826.6973 C -1393.1713 2813.6916 -1348.9509 2811.8408 -1306.9297 2820.3926 C -1245.3597 2832.9227 -1187.794 2868.3469 -1149.543 2917.8496 C -1111.3277 2967.3062 -1091.7147 3032.02 -1096.6602 3094.0527 C -1103.0277 3173.9215 -1149.8422 3250.5915 -1214.8496 3302.5469 C -1280.3212 3354.8732 -1363.8589 3385.0827 -1449.9668 3398.2207 C -1622.6474 3424.5676 -1804.7309 3384.5042 -1993.0332 3382.252 C -2048.1243 3381.593 -2108.2159 3384.1702 -2164.9414 3408.9277 C -2193.419 3421.3565 -2220.4387 3439.3562 -2242.1172 3463.9297 C -2263.9139 3488.6372 -2279.6908 3519.5237 -2284.4082 3553.8066 C -2289.6854 3592.1581 -2280.488 3630.326 -2261.6133 3662.3828 C -2242.8522 3694.2466 -2215.3505 3719.1027 -2184.4082 3736.3516 C -2122.8077 3770.6909 -2052.0801 3773.7377 -1988.2207 3765.0391 C -1879.2949 3750.2016 -1780.6948 3702.3517 -1690.2695 3650.0684 C -1599.9394 3597.84 -1515.5194 3540.481 -1425.8633 3499.1035 C -1390.2208 3482.6541 -1353.8131 3469.0073 -1317.4551 3461.209 C -1328.23 3473.5489 -1338.0009 3486.9409 -1346.4297 3501.5078 C -1363.9669 3531.8159 -1375.1846 3566.3793 -1376.7754 3602.5586 C -1378.3723 3638.8751 -1370.0936 3675.9302 -1350.7012 3708.0605 C -1323.1493 3753.7101 -1275.879 3784.3846 -1223.5781 3792.0957 C -1171.4136 3799.7865 -1118.1729 3784.2481 -1077.9004 3750.9277 C -1037.7245 3717.6875 -1012.9462 3669.037 -1008.5176 3617.5469 C -1004.0989 3566.1696 -1020.0271 3514.8328 -1051.5254 3474.5977 C -1068.6783 3452.6871 -1089.842 3434.8259 -1113.1367 3420.9512 C -1083.1789 3413.2575 -1052.3796 3409.4509 -1021.8301 3410.0898 C -972.8726 3411.1139 -924.08588 3423.7178 -882.10742 3447.4121 C -840.20327 3471.0646 -804.59566 3506.3024 -782.05469 3547.957 C -759.56496 3589.5171 -749.8893 3638.4272 -756.05078 3684.5254 C -762.70185 3734.2865 -787.90099 3782.4283 -823.77344 3820.3047 A 35.0035 35.0035 0 0 0 -823.77539 3820.3047 C -859.80884 3858.3511 -906.7015 3887.0975 -957.52344 3906.5684 C -1059.4414 3945.6152 -1175.3956 3947.7893 -1292.7051 3948.7871 L -1893.8789 3953.9023 C -1961.5422 3954.4779 -2033.1744 3948.6884 -2107.1406 3958.623 C -2145.078 3963.7185 -2185.4951 3974.5714 -2220.4258 3999.8691 C -2237.9984 4012.5958 -2253.8116 4028.8902 -2265.3535 4048.9258 C -2276.9663 4069.0849 -2283.8874 4092.531 -2283.2168 4117.2422 C -2282.6264 4139.0025 -2276.1971 4159.4982 -2266.0469 4177.3906 C -2255.9433 4195.2009 -2242.406 4210.0623 -2227.2832 4222.0605 C -2197.1773 4245.9465 -2161.9127 4258.0759 -2128.168 4264.6113 C -2062.1104 4277.4048 -1997.7271 4273.2399 -1937.748 4273.3457 L -720.51367 4275.4922 A 35.0035 35.0035 0 1 0 -720.39062 4205.4941 L -1937.625 4203.3457 C -2000.4917 4203.2349 -2060.31 4206.453 -2114.8574 4195.8887 C -2141.415 4190.7451 -2165.7654 4181.5152 -2183.7773 4167.2246 C -2192.7136 4160.1346 -2200.1119 4151.754 -2205.1621 4142.8516 C -2210.1658 4134.0314 -2212.9997 4124.2855 -2213.2422 4115.3457 C -2213.5169 4105.223 -2210.4785 4093.9048 -2204.6973 4083.8691 C -2198.8449 4073.7099 -2190.0151 4064.2775 -2179.3652 4056.5645 C -2157.851 4040.9833 -2128.9557 4032.1839 -2097.8203 4028.002 C -2033.6408 4019.3818 -1964.9991 4024.5105 -1893.2812 4023.9004 L -1292.1074 4018.7871 C -1174.5965 4017.7875 -1049.8466 4016.9037 -932.47852 3971.9375 C -873.65737 3949.402 -817.65454 3915.6441 -772.94922 3868.4414 C -728.08293 3821.0687 -695.57023 3760.4191 -686.66602 3693.8008 C -678.40012 3631.9581 -691.15139 3568.8614 -720.49023 3514.6445 C -749.77782 3460.5224 -794.76488 3416.3324 -847.69727 3386.4551 C -900.55537 3356.6199 -960.4457 3341.3607 -1020.3652 3340.1074 C -1080.2194 3338.8555 -1139.5011 3351.4571 -1193.8379 3374.6914 C -1194.6472 3375.0374 -1195.4416 3375.455 -1196.25 3375.8066 C -1187.7157 3369.8994 -1179.3143 3363.7584 -1171.1465 3357.2305 C -1092.9081 3294.7007 -1035.0846 3202.543 -1026.8789 3099.6172 C -1020.4858 3019.4262 -1045.1291 2938.4922 -1094.1504 2875.0508 C -1143.1362 2811.6555 -1214.7274 2767.7213 -1292.9668 2751.7988 C -1346.2301 2740.9591 -1402.3692 2743.0791 -1454.8242 2760.125 C -1507.3782 2777.203 -1554.5514 2808.9339 -1590.248 2851.0527 C -1608.6672 2872.7859 -1623.5861 2896.8331 -1635.4062 2922.1543 C -1643.1573 2905.6894 -1652.3472 2889.8129 -1663.1816 2874.8711 C -1690.4672 2837.2416 -1726.5564 2806.9692 -1767.1699 2785.6914 C -1807.6595 2764.4786 -1851.5709 2752.4923 -1895.3379 2746.9883 C -1912.0885 2744.8818 -1929.0085 2743.7205 -1945.9629 2743.541 L -1945.959 2743.5391 C -1949.0394 2743.5064 -1952.1214 2743.5061 -1955.2031 2743.5391 z M -2091.541 2843.6855 C -2082.0227 2848.1905 -2072.7635 2853.1882 -2063.8574 2858.7461 C -2029.867 2879.958 -2000.5259 2908.7457 -1979.5703 2942.3047 C -1958.6389 2975.8247 -1945.8772 3014.6125 -1943.5703 3053.5645 C -1940.9922 3097.0956 -1952.0355 3141.6164 -1976.0488 3175.7207 C -1999.8089 3209.4655 -2038.2276 3233.8316 -2077.4375 3238.1797 C -2101.2018 3240.815 -2126.3434 3236.5652 -2148.6406 3226.4336 C -2170.9938 3216.2764 -2191.1465 3200.0191 -2206.5469 3180.1504 C -2237.268 3140.5158 -2249.261 3084.9651 -2241.2129 3033.248 C -2230.2587 2962.8563 -2183.1148 2897.5315 -2120.7129 2859.2324 C -2111.3318 2853.4748 -2101.563 2848.34 -2091.541 2843.6855 z M -3239.9629 3227.707 C -3184.5193 3227.9613 -3128.4652 3247.9086 -3086.0977 3283.2676 C -3037.6921 3323.6657 -3005.9168 3385.3023 -3001.2637 3448.1055 C -2996.6119 3510.8893 -3019.0091 3576.5362 -3061.1465 3623.2129 C -3103.2706 3669.8749 -3166.3312 3698.8117 -3229.1074 3700.1465 C -3270.0043 3701.016 -3311.6711 3690.7742 -3348.8223 3671.7754 C -3375.1594 3658.3068 -3399.4208 3640.3315 -3420.8555 3619.2363 C -3424.2283 3615.394 -3427.5704 3611.5237 -3430.668 3607.4707 C -3461.6234 3566.9676 -3479.02 3515.3761 -3478.9141 3464.3984 C -3478.7939 3406.5725 -3455.8676 3348.0518 -3416.7598 3305.3301 C -3377.6382 3262.5933 -3321.3923 3234.551 -3263.6445 3228.8164 C -3255.7906 3228.0365 -3247.8834 3227.6707 -3239.9629 3227.707 z M -2003.5703 3452.1797 C -2000.3438 3452.1844 -1997.1074 3452.2076 -1993.8633 3452.2461 C -1845.4851 3454.0209 -1691.7397 3483.2416 -1534.9707 3476.4141 C -1600.66 3512.8668 -1662.694 3553.2698 -1725.3008 3589.4688 C -1812.5399 3639.9097 -1903.2435 3682.8181 -1997.6641 3695.6797 C -2052.2191 3703.1109 -2107.5343 3699.059 -2150.3184 3675.209 C -2171.5683 3663.3631 -2189.7304 3646.495 -2201.2871 3626.8672 C -2212.73 3607.4326 -2217.9249 3584.1924 -2215.0566 3563.3477 C -2212.4807 3544.6274 -2203.2153 3525.6524 -2189.6172 3510.2383 C -2175.9007 3494.6902 -2157.494 3482.0546 -2136.9355 3473.082 C -2100.7577 3457.2924 -2058.093 3452.7065 -2013.2188 3452.2227 C -2010.0134 3452.1882 -2006.7968 3452.1749 -2003.5703 3452.1797 z M -1205.6953 3459.2148 L -1205.6934 3459.2148 C -1193.4394 3461.8345 -1181.5371 3465.4427 -1170.2676 3470.209 C -1145.1414 3480.8354 -1122.6635 3497.2784 -1106.6387 3517.748 C -1086.1162 3543.9629 -1075.4413 3578.8459 -1078.2539 3611.5488 C -1081.0569 3644.1389 -1097.6725 3676.4381 -1122.5176 3696.9941 C -1147.2654 3717.4698 -1182.038 3727.4613 -1213.3613 3722.8438 C -1244.5476 3718.245 -1274.7088 3698.4894 -1290.7637 3671.8887 C -1302.2753 3652.8157 -1307.8662 3629.0653 -1306.8359 3605.6328 C -1305.7995 3582.0631 -1298.2499 3558.0237 -1285.834 3536.5664 C -1267.7154 3505.2535 -1239.1389 3479.3091 -1205.6953 3459.2148 z "
       transform="translate(0,-1048)"
       id="path4139-1-0-4-2-2-4-1-2-0-8-1-8" />
    <path
       style="color:#000000;font-style:normal;font-variant:normal;font-weight:normal;font-stretch:normal;font-size:medium;line-height:normal;font-family:sans-serif;text-indent:0;text-align:start;text-decoration:none;text-decoration-line:none;text-decoration-style:solid;text-decoration-color:#000000;letter-spacing:normal;word-spacing:normal;text-transform:none;direction:ltr;block-progression:tb;writing-mode:lr-tb;baseline-shift:baseline;text-anchor:start;white-space:normal;clip-rule:nonzero;display:inline;overflow:visible;visibility:visible;opacity:1;isolation:auto;mix-blend-mode:normal;color-interpolation:sRGB;color-interpolation-filters:linearRGB;solid-color:#000000;solid-opacity:1;fill:#000000;fill-opacity:1;fill-rule:evenodd;stroke:none;stroke-width:200;stroke-linecap:round;stroke-linejoin:round;stroke-miterlimit:4;stroke-dasharray:none;stroke-dashoffset:0;stroke-opacity:1;color-rendering:auto;image-rendering:auto;shape-rendering:auto;text-rendering:auto;enable-background:accumulate"
       d="m 4746.5918,-716.88672 c -43.473,-0.78459 -86.7754,4.51558 -128.2305,14.9375 -121.1307,30.45258 -227.2346,105.37998 -296.5136,208.625 -41.0691,-59.16808 -94.5073,-109.08602 -156.8555,-145.5957 -66.0153,-38.65705 -139.3126,-61.15413 -213.582,-68.53516 -179.4656,-17.83558 -357.3681,53.57406 -479.0684,183.0586 -121.129,128.87649 -179.3659,305.46403 -167.0957,479.179683 7.5758,107.253468 42.2398,218.027067 117.5586,307.343747 14.3264,16.98898 30.0118,32.98778 46.9531,47.75 41.6302,38.62852 92.0179,66.79379 147.1348,81.89844 40.19,12.11768 82.6567,17.82427 125.9355,15.36719 95.5757,-5.42616 184.5423,-49.35722 247.1231,-121.48438 62.5405,-72.0806 93.3201,-166.02901 86.0058,-260.93945 -7.3095,-94.850216 -52.008,-182.62793 -123.959,-244.49609 -71.9059,-61.82945 -165.0685,-92.70515 -259.4589,-86.50196 -55.0609,3.61852 -108.0693,19.78845 -155.2676,46.6875 19.3291,-47.5599 46.5723,-91.41014 80.8047,-127.83203 79.0422,-84.09796 201.3461,-132.16338 313.5566,-121.01172 47.1231,4.68318 93.0422,19.11686 132.2969,42.10352 39.0732,22.88037 73.3437,55.52673 98.2441,93.53906 24.9076,38.02328 42.064,83.90995 51.0703,132.7793 9.0241,48.96499 10.2819,104.3032 10.5528,164.63867 l 1.6855,375.73438 a 100.01,100.01 0 0 0 200,-0.51954 l -0.2715,-379.343746 c -0.039,-55.376204 0.6594,-106.417214 7.6016,-152.220704 6.9351,-45.75651 20.3309,-88.96243 40.4395,-126.10742 27.5508,-50.8925 72.2587,-94.22887 124.2246,-122.59375 -13.4268,32.81621 -21.9227,67.95435 -24.2207,104.50586 -5.0724,80.67987 20.2355,162.35511 77.4941,224.9043 28.4243,31.05079 63.5259,55.826383 103.6309,71.76562 40.1917,15.973668 83.8544,22.439916 127.9121,17.763672 72.6048,-7.706206 135.989,-44.099072 180.9355,-97.343752 44.5003,-52.71584 67.4174,-117.46186 70.4649,-182.96289 2.3945,-51.46856 -7.6117,-101.5657 -27.2715,-147.32422 1.1136,0.55683 2.2699,1.08083 3.3613,1.6543 22.6425,11.89702 42.3485,28.63677 56.1856,47.51562 13.7482,18.75769 23.9787,42.91285 29.0703,69.12696 3.619,18.63296 4.8637,40.83009 5.0722,65.93164 -0.7229,18.29098 -1.1179,36.1327 -1.291,52.90234 l -1.0703,103.7793 a 100.01,100.01 0 0 0 199.9785,2.81055 l 2.1953,-123.46094 c 0.1859,-10.45354 0.3599,-21.35902 0.3731,-32.63281 1.2742,-25.73571 3.5424,-49.30631 8.209,-69.78125 7.5728,-33.22654 21.843,-63.28793 40.5996,-85.44727 18.6946,-22.08618 44.6524,-39.52529 71.9863,-48.38672 27.6085,-8.95046 59.8098,-10.44539 90.3828,-4.08594 44.5092,9.25828 87.6555,36.22941 115.1777,72 27.4806,35.71642 42.3028,84.16732 39.4082,128.81055 -3.7906,58.4638 -38.6328,121.08096 -89.8339,164.55859 -52.4163,44.509449 -123.4235,73.851556 -199.9395,88.269536 -154.3233,29.079283 -331.5107,-2.373373 -526.1777,-1.669922 -57.4314,0.207534 -126.8188,2.644852 -197.4004,34.714844 -35.6375,16.1925082 -70.3732,39.840192 -98.836,73.599609 -28.8161,34.178396 -49.6499,76.992673 -54.6855,126.332033 -5.462,53.51632 8.726,103.80893 35.1152,145.75 26.0594,41.41678 62.1667,71.89158 101.6719,92.55664 78.2188,40.91598 161.047,40.86323 231.3438,29.21289 123.2718,-20.42996 227.4252,-78.50484 318.2968,-136.70703 73.5069,-47.08023 140.0397,-94.63621 205.8711,-131.94141 -0.5255,5.25367 -0.95,10.53876 -1.166,15.88477 -1.9371,47.93848 9.0111,96.93114 35.834,140.69922 38.0978,62.16606 100.4904,101.98232 171.3555,112.14257 70.4693,10.10357 139.6512,-10.41601 193.457,-54.96093 53.5265,-44.31387 85.4325,-106.99651 91.5586,-174.85743 4.2107,-46.64304 -4.0401,-92.33288 -22.8652,-133.505854 17.0692,4.81849 33.3733,11.470701 48.2031,19.900394 30.7508,17.47967 56.946,43.60273 73.0918,72.8457 16.0167,29.00927 23.2436,63.71469 19.9199,94.72852 -3.6627,34.17729 -20.8814,70.93153 -47.2363,100.32421 -26.7667,29.85177 -64.0695,54.4635 -106.3321,71.36914 -85.1035,34.04276 -191.549,36.90515 -307.5527,36.32032 l -590.6562,-2.97657 c -63.2897,-0.31907 -137.209,-6.38552 -219.2813,6.78125 -43.1674,6.92531 -91.7666,20.70696 -136.8379,53.19922 a 100.01,100.01 0 0 0 -0,0 c -22.7511,16.40155 -44.0272,37.37219 -60.9043,63.95117 -17.0248,26.81147 -28.8841,58.25222 -31.6211,93.42188 -2.5695,33.01633 3.327,64.22008 14.7851,92.25 11.3791,27.83709 27.7966,51.44918 46.7266,71.09375 37.6274,39.04791 82.7381,60.71623 125.1562,73.41406 81.7604,24.47488 156.8007,20.22811 217.9649,20.33594 l 1195.9375,2.10937 a 100.01,100.01 0 1 0 0.3515,-200 l -1195.9375,-2.10937 c -66.0487,-0.11645 -120.8512,0.0712 -160.9609,-11.93555 -18.5168,-5.54298 -31.9877,-13.83771 -38.4961,-20.59179 -3.138,-3.25645 -4.9586,-6.39256 -5.6133,-7.99414 -0.1952,-0.47756 -0.2301,-0.74621 -0.2949,-1.04883 0.1595,-0.4236 0.3626,-0.98468 0.8399,-1.73633 1.2794,-2.01491 4.3006,-5.51771 9.0253,-8.92383 9.8807,-7.12306 27.8425,-14.15556 51.5625,-17.96094 51.7028,-8.29461 114.3977,-4.62373 186.5918,-4.25976 l 590.6563,2.97851 c 117.4929,0.59235 251.1477,2.05666 382.8418,-50.62304 66.1365,-26.4556 129.7831,-66.47458 180.957,-123.54688 51.5855,-57.53137 88.4135,-130.62346 97.1914,-212.53125 8.0031,-74.67832 -8.3336,-148.66241 -43.6953,-212.708982 -35.2326,-63.812884 -87.6834,-114.999296 -149.3437,-150.048829 -59.0095,-33.542759 -124.5581,-51.178499 -190.4785,-54.328129 27.6095,-50.98657 45.4718,-107.91633 49.4218,-168.83789 6.1515,-94.87467 -22.7005,-188.61749 -80.4765,-263.70898 C 5827.4297,-634.1877 5744.575,-685.78588 5652.2031,-705 c -62.9963,-13.10379 -129.4855,-10.88058 -192.791,9.64258 -61.6465,19.98527 -116.3646,56.38402 -158.8848,104.93359 -28.4485,-30.39467 -61.7219,-55.17515 -97.7168,-74.08789 -47.6167,-25.01924 -97.4932,-38.75205 -145.7187,-45.82812 -64.6295,-9.48301 -132.891,-7.6487 -198.707,9.76953 -36.6802,-10.3515 -74.2924,-15.63961 -111.793,-16.31641 z m 109.4414,231.45117 c 24.5023,15.14169 45.2495,36.03628 58.6035,59.00391 13.526,23.26349 20.4168,50.72796 19.2715,75.34375 -1.1089,23.83551 -10.3191,47.62443 -23.5078,63.24805 -12.7423,15.09478 -32.8881,25.73759 -49.2168,27.4707 -10.3076,1.09404 -22.3221,-0.52206 -32.9356,-4.74024 -10.7,-4.2526 -21.4841,-11.67618 -29.9746,-20.95117 -16.5712,-18.10233 -27.1985,-48.86466 -25.4101,-77.31054 1.4066,-22.37331 9.6708,-46.51752 23.3437,-67.14258 13.7966,-20.81155 33.9014,-39.62682 57.3985,-53.57031 0.7915,-0.46974 1.6265,-0.89215 2.4277,-1.35157 z m -1135.002,378.53711 c 36.1642,1.42289 73.7455,15.70372 100.5704,38.769534 30.612,26.322216 51.8635,68.19963941 54.9472,108.214844 3.0792,39.954982 -11.556,84.413592 -37.6621,114.501952 -26.0656,30.04182 -67.9224,50.63599 -107.3945,52.87695 -15.0076,0.85203 -30.7825,-0.71454 -46.4043,-4.37109 a 100.01,100.01 0 0 0 -9.6836,-2.74805 c -2.4505,-0.57321 -4.8812,-1.3438 -7.3184,-2.05468 -6.6823,-2.26792 -13.2743,-4.91543 -19.6914,-7.9668 -15.3537,-7.30079 -30.1788,-17.02514 -43.959,-28.56055 -4.6236,-4.33583 -9.0393,-8.84445 -12.9843,-13.64844 -20.8219,-25.35574 -33.7874,-59.717389 -34.9043,-92.507808 -1.3273,-38.964338 14.5617,-81.77176 41.1816,-110.800781 26.6853,-29.100246 68.1275,-48.900141 107.9258,-51.515621 5.073,-0.33339 10.2106,-0.39273 15.3769,-0.18946 z M 5735.6934,125.2832 c 14.2127,6.60137 26.2711,16.05727 33.8144,25.88672 9.7434,12.69639 15.1421,31.47375 13.8262,46.05078 -1.2866,14.25179 -9.9278,30.52053 -19.9082,38.78321 -9.7014,8.03159 -26.3886,12.63859 -37.5313,11.04101 -10.7471,-1.54087 -24.2344,-10.54188 -29.2168,-18.67187 -3.9367,-6.42369 -6.9592,-17.23636 -6.5195,-28.11719 0.4557,-11.27634 4.3931,-24.99834 11.7539,-37.72266 7.4724,-12.91715 19.0802,-25.6554 33.7813,-37.25 z m -784.8614,17.49219 c 65.789,-0.23774 134.8836,5.18779 206.6172,9.70703 -75.3208,46.59876 -149.8564,83.05803 -222.832,95.15235 -43.3221,7.1798 -82.1104,3.34287 -105.9414,-9.12305 -11.5196,-6.02588 -20.4865,-14.52524 -25.0938,-21.84766 -4.2773,-6.79813 -5.8125,-15.16324 -5.4277,-18.93359 0.3704,-3.62931 3.121,-11.19443 8.625,-17.72266 a 100.01,100.01 0 0 0 0,0 c 5.8573,-6.94722 15.825,-14.5969 28.6622,-20.42969 26.3676,-11.9806 66.333,-16.62546 115.3886,-16.80273 z"
       id="path4139-1-0-4-2-2-4-1-2-0-8-4"
       inkscape:connector-curvature="0" />
  </g>
</svg>
