<?xml version="1.0" encoding="UTF-8" standalone="no"?>
<!-- Created with Inkscape (http://www.inkscape.org/) -->

<svg
   xmlns:dc="http://purl.org/dc/elements/1.1/"
   xmlns:cc="http://creativecommons.org/ns#"
   xmlns:rdf="http://www.w3.org/1999/02/22-rdf-syntax-ns#"
   xmlns:svg="http://www.w3.org/2000/svg"
   xmlns="http://www.w3.org/2000/svg"
   xmlns:sodipodi="http://sodipodi.sourceforge.net/DTD/sodipodi-0.dtd"
   xmlns:inkscape="http://www.inkscape.org/namespaces/inkscape"
   width="2000"
   height="2048"
   id="svg2992"
   version="1.1"
   inkscape:version="0.91 r13725"
   sodipodi:docname="ട.svg">
  <defs
     id="defs5498">
    <inkscape:path-effect
       effect="spiro"
       id="path-effect4146"
       is_visible="true" />
    <inkscape:path-effect
       effect="spiro"
       id="path-effect4199"
       is_visible="true" />
    <inkscape:path-effect
       effect="spiro"
       id="path-effect4195"
       is_visible="true" />
    <inkscape:path-effect
       effect="spiro"
       id="path-effect4191"
       is_visible="true" />
    <inkscape:path-effect
       effect="spiro"
       id="path-effect3782"
       is_visible="true" />
    <inkscape:path-effect
       effect="spiro"
       id="path-effect3846"
       is_visible="true" />
    <inkscape:path-effect
       effect="spiro"
       id="path-effect3801"
       is_visible="true" />
    <inkscape:path-effect
       effect="spiro"
       id="path-effect4146-2"
       is_visible="true" />
    <inkscape:path-effect
       effect="spiro"
       id="path-effect4146-2-6"
       is_visible="true" />
    <inkscape:path-effect
       effect="spiro"
       id="path-effect4146-2-4"
       is_visible="true" />
    <inkscape:path-effect
       effect="spiro"
       id="path-effect4146-2-7"
       is_visible="true" />
    <inkscape:path-effect
       effect="spiro"
       id="path-effect4146-2-2"
       is_visible="true" />
    <inkscape:path-effect
       effect="spiro"
       id="path-effect4146-2-1"
       is_visible="true" />
    <inkscape:path-effect
       effect="spiro"
       id="path-effect4146-2-1-7"
       is_visible="true" />
    <inkscape:path-effect
       effect="spiro"
       id="path-effect4146-2-1-7-4"
       is_visible="true" />
    <inkscape:path-effect
       effect="spiro"
       id="path-effect4146-2-1-6"
       is_visible="true" />
    <inkscape:path-effect
       effect="spiro"
       id="path-effect4146-2-1-6-9"
       is_visible="true" />
    <inkscape:path-effect
       effect="spiro"
       id="path-effect4146-2-1-5"
       is_visible="true" />
    <inkscape:path-effect
       effect="spiro"
       id="path-effect4146-2-1-1"
       is_visible="true" />
    <inkscape:path-effect
       effect="spiro"
       id="path-effect4146-2-1-63"
       is_visible="true" />
    <inkscape:path-effect
       effect="spiro"
       id="path-effect4146-2-1-63-6"
       is_visible="true" />
    <inkscape:path-effect
       effect="spiro"
       id="path-effect4146-2-1-54"
       is_visible="true" />
    <inkscape:path-effect
       effect="spiro"
       id="path-effect4146-2-1-54-7"
       is_visible="true" />
  </defs>
  <sodipodi:namedview
     inkscape:window-height="843"
     inkscape:window-width="1600"
     inkscape:pageshadow="2"
     inkscape:pageopacity="0.0"
     borderopacity="1.0"
     bordercolor="#666666"
     pagecolor="#ffffff"
     id="base"
     showgrid="true"
     showguides="true"
     inkscape:guide-bbox="true"
     inkscape:zoom="0.35355339"
     inkscape:cx="-1781.6835"
     inkscape:cy="-193.92458"
     inkscape:window-x="1600"
     inkscape:window-y="0"
     inkscape:current-layer="layer1"
     inkscape:window-maximized="1">
    <sodipodi:guide
       orientation="horizontal"
       position="0,600"
       id="guide5596" />
    <inkscape:grid
       type="xygrid"
       id="grid3769"
       empspacing="3"
       visible="true"
       enabled="true"
       snapvisiblegridlinesonly="true"
       spacingx="4px"
       units="px"
       dotted="true"
       spacingy="4px" />
    <sodipodi:guide
       orientation="0,1"
       position="-1040,1600"
       id="guide2985" />
    <sodipodi:guide
       position="-1728,1624"
       orientation="0,1"
       id="guide4181"
       inkscape:label=""
       inkscape:color="rgb(0,0,255)" />
  </sodipodi:namedview>
  <metadata
     id="metadata5594">
    <rdf:RDF>
      <cc:Work
         rdf:about="">
        <dc:format>image/svg+xml</dc:format>
        <dc:type
           rdf:resource="http://purl.org/dc/dcmitype/StillImage" />
        <dc:title />
      </cc:Work>
    </rdf:RDF>
  </metadata>
  <g
     inkscape:label="Layer 1"
     inkscape:groupmode="layer"
     id="layer1"
     transform="translate(0,1048)">
    <path
       style="fill:none;fill-rule:evenodd;stroke:#000000;stroke-width:140;stroke-linecap:round;stroke-linejoin:round;stroke-miterlimit:4;stroke-dasharray:none;stroke-opacity:1"
       d="m -1317.1927,202.55797 c 42.6473,45.2314 93.8041,82.41219 149.9915,109.01389 89.9176,42.57115 191.13256,57.46568 290.58627,54.92757 74.14336,-1.89217 149.49078,-13.66725 215.35058,-47.7745 40.43764,-20.94171 76.97607,-50.47603 102.42761,-88.23814 25.45155,-37.76211 39.26054,-84.05783 34.43723,-129.34021 -3.83584,-36.011749 -19.26871,-70.370157 -41.82518,-98.7032723 -22.55647,-28.3331147 -52.03737,-50.7792427 -84.32223,-67.1880187 -64.5697,-32.817554 -138.6566,-41.402399 -211.05919,-43.428329 -91.33768,-2.55576 -184.89559,4.1863 -272.09759,-23.1069 -43.601,-13.6466 -85.0849,-36.07517 -116.7599,-68.99888 -31.675,-32.92371 -52.922,-76.89914 -53.9359,-122.5746 -0.88,-39.64434 13.4466,-78.86301 36.7605,-110.93967 23.3138,-32.07666 55.2376,-57.29285 90.1886,-76.02456 66.7571,-35.77798 143.8113,-48.28532 219.54069,-49.5668 85.03318,-1.43892 171.6986,11.10206 248.0123,48.6378 55.52289,27.30955 104.61665,67.58665 142.2491,116.70285"
       id="path4144-0-0"
       inkscape:path-effect="#path-effect4146-2-1"
       inkscape:original-d="m -1317.1927,202.55797 c 0,0 93.2489,84.50995 149.9915,109.01389 90.4993,39.08158 192.02115,56.47963 290.58627,54.92757 73.51963,-1.15769 155.24359,-5.4233 215.35058,-47.7745 70.04166,-49.35114 156.13818,-134.09238 136.86484,-217.57835 -29.75906,-128.906761 -221.32674,-145.48849 -337.2066,-209.31962 -143.67509,-79.14183 -400.39749,-56.2236 -442.79339,-214.68038 -19.4701,-72.77052 64.699,-144.54302 126.9491,-186.96423 61.9956,-42.24779 144.526,-48.50155 219.54069,-49.5668 84.23701,-1.19621 171.80391,12.72701 248.0123,48.6378 55.48073,26.14354 142.2491,116.70285 142.2491,116.70285"
       inkscape:connector-curvature="0"
       sodipodi:nodetypes="caaaaaaaaac" />
    <path
       style="color:#000000;font-style:normal;font-variant:normal;font-weight:normal;font-stretch:normal;font-size:medium;line-height:normal;font-family:sans-serif;text-indent:0;text-align:start;text-decoration:none;text-decoration-line:none;text-decoration-style:solid;text-decoration-color:#000000;letter-spacing:normal;word-spacing:normal;text-transform:none;direction:ltr;block-progression:tb;writing-mode:lr-tb;baseline-shift:baseline;text-anchor:start;white-space:normal;clip-rule:nonzero;display:inline;overflow:visible;visibility:visible;opacity:1;isolation:auto;mix-blend-mode:normal;color-interpolation:sRGB;color-interpolation-filters:linearRGB;solid-color:#000000;solid-opacity:1;fill:#000000;fill-opacity:1;fill-rule:evenodd;stroke:none;stroke-width:140;stroke-linecap:round;stroke-linejoin:round;stroke-miterlimit:4;stroke-dasharray:none;stroke-dashoffset:0;stroke-opacity:1;color-rendering:auto;image-rendering:auto;shape-rendering:auto;text-rendering:auto;enable-background:accumulate"
       d="m 528.90625,-653.375 c -82.6303,1.39826 -170.88656,14.69604 -251.42383,57.85938 -42.36262,22.70392 -82.82258,54.01991 -113.74609,96.5664 -31.24921,42.9946 -51.39598,96.12818 -50.11914,153.64844 1.47331,66.37088 31.05151,125.45719 73.47461,169.55273 41.83389,43.48311 93.9075,70.87484 146.29492,87.271488 103.95908,32.537975 204.48776,23.853287 291.04883,26.27539 68.21038,1.908626 131.6156,10.606877 181.30078,35.859375 24.6429,12.524755 46.00956,29.2094039 61.27539,48.384766 15.07163,18.931434 24.74438,41.506315 26.98242,62.517578 2.80067,26.293333 -5.68662,57.297683 -22.87695,82.802733 -17.55213,26.04186 -44.70965,48.70222 -76.57227,65.20313 -52.3421,27.10674 -116.99697,38.221 -184.94531,39.95507 C 518.3389,274.8505 428.01477,260.88446 350.75195,224.30469 302.51237,201.46585 258.35306,169.37045 221.73828,130.53711 a 70.007,70.007 0 1 0 -101.86133,96.04297 c 48.67985,51.62946 106.83356,93.89521 170.96875,124.25976 102.57245,48.56253 214.67946,64.38392 322.32618,61.63672 80.33838,-2.05027 166.3764,-14.48404 245.7539,-55.59179 49.01266,-25.38252 94.93225,-61.79303 128.2832,-111.27539 33.71282,-50.01917 52.84402,-111.60553 45.99802,-175.876958 -5.4336,-51.012235 -26.6266,-97.153876 -56.66794,-134.888672 -29.84711,-37.49087 -67.44232,-65.69743 -107.36914,-85.99023 -79.45422,-40.38262 -164.22356,-48.85677 -240.81836,-51 -96.11429,-2.68942 -182.7016,2.11092 -253.14648,-19.9375 -34.81456,-10.89655 -65.70852,-28.36225 -87.22461,-50.72657 -20.92688,-21.75188 -33.84198,-50.61566 -34.39649,-75.5957 -0.48321,-21.76843 8.02188,-47.07371 23.4004,-68.23242 15.7042,-21.60683 39.09151,-40.72097 66.63085,-55.48047 52.97702,-28.39263 118.83172,-40.11069 187.66016,-41.27539 77.34908,-1.30889 152.91115,10.46361 215.93164,41.46094 45.72756,22.4916 86.58674,56.01176 117.58008,96.46289 a 70.007,70.007 0 1 0 111.12891,-85.14649 C 931.64446,-518.39846 874.31627,-565.43305 808.99805,-597.56055 719.39114,-641.6347 621.62353,-654.94395 528.90625,-653.375 Z"
       id="path4144-0-0-1"
       inkscape:connector-curvature="0" />
    <path
       style="fill:none;fill-rule:evenodd;stroke:#000000;stroke-width:120;stroke-linecap:round;stroke-linejoin:round;stroke-miterlimit:4;stroke-dasharray:none;stroke-opacity:1"
       d="m 1485.8263,941.3077 c 27.9408,29.6337 61.4566,53.99298 98.2682,71.4213 58.9102,27.8908 125.222,37.6492 190.3799,35.9863 48.5756,-1.2397 97.94,-8.9543 141.0886,-31.2999 26.493,-13.7201 50.4315,-33.06976 67.1062,-57.80989 16.6748,-24.74014 25.7219,-55.07113 22.5619,-84.73823 -2.5131,-23.59339 -12.624,-46.10359 -27.4021,-64.66627 -14.778,-18.56267 -34.0927,-33.26844 -55.2444,-44.01879 -42.3033,-21.5007 -90.842,-27.12513 -138.2771,-28.45243 -59.8406,-1.67442 -121.1358,2.74269 -178.2669,-15.13865 -28.5655,-8.94067 -55.744,-23.63492 -76.4962,-45.20515 -20.7521,-21.57022 -34.6722,-50.38106 -35.3365,-80.3057 -0.5766,-25.97331 8.8096,-51.66774 24.0839,-72.68302 15.2742,-21.01529 36.1894,-37.53588 59.0878,-49.80811 43.7365,-23.44022 94.2191,-31.6345 143.8338,-32.47408 55.7102,-0.94273 112.4898,7.27359 162.4873,31.86544 36.3763,17.89207 68.5404,44.27994 93.1956,76.45882"
       id="path4144-0-0-8"
       inkscape:path-effect="#path-effect4146-2-1-63"
       inkscape:original-d="m 1485.8263,941.3077 c 0,0 61.0928,55.3674 98.2682,71.4213 59.2913,25.6046 125.8042,37.0031 190.3799,35.9863 48.1669,-0.7585 101.7091,-3.5531 141.0886,-31.2999 45.8883,-32.33273 102.2952,-87.85167 89.6681,-142.54812 -19.4969,-84.45434 -145.004,-95.31797 -220.9236,-137.13749 -94.1299,-51.85037 -262.3236,-36.83533 -290.0996,-140.6495 -12.756,-47.67624 42.3881,-94.69853 83.1717,-122.49113 40.6169,-27.67897 94.6874,-31.77617 143.8338,-32.47408 55.1886,-0.7837 112.5587,8.3382 162.4873,31.86544 36.3487,17.12815 93.1956,76.45882 93.1956,76.45882"
       inkscape:connector-curvature="0"
       sodipodi:nodetypes="caaaaaaaaac" />
    <path
       style="color:#000000;font-style:normal;font-variant:normal;font-weight:normal;font-stretch:normal;font-size:medium;line-height:normal;font-family:sans-serif;text-indent:0;text-align:start;text-decoration:none;text-decoration-line:none;text-decoration-style:solid;text-decoration-color:#000000;letter-spacing:normal;word-spacing:normal;text-transform:none;direction:ltr;block-progression:tb;writing-mode:lr-tb;baseline-shift:baseline;text-anchor:start;white-space:normal;clip-rule:nonzero;display:inline;overflow:visible;visibility:visible;opacity:1;isolation:auto;mix-blend-mode:normal;color-interpolation:sRGB;color-interpolation-filters:linearRGB;solid-color:#000000;solid-opacity:1;fill:#000000;fill-opacity:1;fill-rule:evenodd;stroke:none;stroke-width:120;stroke-linecap:round;stroke-linejoin:round;stroke-miterlimit:4;stroke-dasharray:none;stroke-dashoffset:0;stroke-opacity:1;color-rendering:auto;image-rendering:auto;shape-rendering:auto;text-rendering:auto;enable-background:accumulate"
       d="m 2567.2285,400.7168 c -55.5298,0.93967 -115.6141,9.81153 -171.1621,39.58203 -29.2512,15.67696 -57.4824,37.42643 -79.2793,67.41601 -22.0761,30.37355 -36.4519,67.99348 -35.5351,109.28907 1.058,47.66348 22.1192,89.42812 52.0839,120.57421 29.4598,30.62103 65.7158,49.56933 101.8125,60.86719 71.4943,22.37685 138.7634,16.29366 194.5098,17.85352 43.8418,1.22675 83.2263,6.94848 112.7715,21.96484 14.6014,7.4212 26.9595,17.18734 35.4883,27.90039 8.3624,10.504 13.5361,22.91441 14.6797,33.65039 1.4263,13.39077 -3.0586,30.61551 -12.6524,44.84961 -9.9037,14.69406 -25.8024,28.15078 -44.9453,38.06446 -31.5621,16.34523 -71.7618,23.49538 -115.0273,24.59958 -58.1353,1.4837 -115.1105,-7.48091 -163.1739,-30.2363 -29.9992,-14.203 -57.5189,-34.20187 -80.289,-58.35157 a 60.006,60.006 0 1 0 -87.3086,82.32227 c 33.1115,35.1177 72.624,63.8347 116.248,84.4883 69.7572,33.0262 145.4054,43.5804 217.586,41.7383 53.8856,-1.3753 112.4133,-9.656 167.1484,-38.002 33.8431,-17.5265 65.8239,-42.7686 89.2695,-77.5547 23.7559,-35.24613 37.3644,-78.6835 32.4707,-124.62693 -3.8826,-36.4508 -18.9312,-69.06028 -40.125,-95.68164 -21.0272,-26.41231 -47.2982,-46.05724 -75,-60.13672 -55.0615,-27.98504 -112.7547,-33.51356 -163.7832,-34.94141 -63.9348,-1.78898 -119.2555,0.96396 -162.0234,-12.42187 -21.0343,-6.58348 -39.1351,-17.02355 -51.1797,-29.54297 -11.5394,-11.99436 -18.3193,-27.85327 -18.5898,-40.03906 -0.2365,-10.65104 4.1602,-24.41916 12.6328,-36.07618 8.7515,-12.04099 22.3508,-23.33171 38.8965,-32.19921 31.925,-17.10995 72.8062,-24.62771 116.5058,-25.36719 49.1238,-0.83128 96.387,6.72737 134.9902,25.71484 27.9803,13.76239 53.0863,34.35766 72.0508,59.10938 a 60.006,60.006 0 1 0 95.2539,-72.98242 c -30.3458,-39.60605 -69.5694,-71.78489 -114.3418,-93.80664 -61.3917,-30.19623 -127.6858,-39.07177 -189.9824,-38.01758 z"
       id="path4144-0-0-8-5"
       inkscape:connector-curvature="0" />
    <path
       style="fill:none;fill-rule:evenodd;stroke:#000000;stroke-width:70;stroke-linecap:round;stroke-linejoin:round;stroke-miterlimit:4;stroke-dasharray:none;stroke-opacity:1"
       d="m -2852.2672,197.34128 c 43.7641,46.41583 96.2605,84.57023 153.9192,111.86852 92.2722,43.6859 196.1375,58.97045 298.1955,56.3659 76.0849,-1.94171 153.4054,-14.02512 220.9898,-49.02552 41.4965,-21.49009 78.9917,-51.7978 105.1097,-90.54875 26.118,-38.75094 40.2886,-86.25896 35.339,-132.727091 -3.9363,-36.954743 -19.7733,-72.212851 -42.9204,-101.2878906 -23.1471,-29.0750404 -53.4,-52.1089384 -86.5303,-68.9473964 -66.2605,-33.676912 -142.2874,-42.486582 -216.5859,-44.565562 -93.7295,-2.62269 -189.7373,4.29592 -279.2228,-23.71197 -44.7427,-14.00395 -87.3129,-37.01982 -119.8173,-70.80568 -32.5045,-33.78585 -54.3078,-78.91282 -55.3483,-125.78434 -0.9031,-40.68247 13.7987,-80.92812 37.7231,-113.84473 23.9243,-32.91662 56.6841,-58.79311 92.5503,-78.01533 68.5052,-36.71486 147.5772,-49.54972 225.2896,-50.86476 87.2598,-1.4766 176.1947,11.39278 254.5067,49.91143 56.9768,28.02468 107.3561,69.35647 145.974,119.75882"
       id="path4144-0-0-11"
       inkscape:path-effect="#path-effect4146-2-1-54"
       inkscape:original-d="m -2852.2672,197.34128 c 0,0 95.6907,86.72292 153.9192,111.86852 92.8691,40.10497 197.0494,57.95861 298.1955,56.3659 75.4448,-1.188 159.3088,-5.56531 220.9898,-49.02552 71.8757,-50.64344 160.2268,-137.60371 140.4487,-223.275841 -30.5382,-132.282306 -227.1223,-149.298244 -346.0366,-214.800849 -147.4374,-81.21424 -410.8823,-57.69587 -454.3884,-220.30199 -19.9799,-74.67608 66.3932,-148.32801 130.2734,-191.86006 63.619,-43.35409 148.3105,-49.77161 225.2896,-50.86476 86.4428,-1.22753 176.3027,13.06028 254.5067,49.91143 56.9336,26.82813 145.974,119.75882 145.974,119.75882"
       inkscape:connector-curvature="0"
       sodipodi:nodetypes="caaaaaaaaac" />
    <path
       style="color:#000000;font-style:normal;font-variant:normal;font-weight:normal;font-stretch:normal;font-size:medium;line-height:normal;font-family:sans-serif;text-indent:0;text-align:start;text-decoration:none;text-decoration-line:none;text-decoration-style:solid;text-decoration-color:#000000;letter-spacing:normal;word-spacing:normal;text-transform:none;direction:ltr;block-progression:tb;writing-mode:lr-tb;baseline-shift:baseline;text-anchor:start;white-space:normal;clip-rule:nonzero;display:inline;overflow:visible;visibility:visible;opacity:1;isolation:auto;mix-blend-mode:normal;color-interpolation:sRGB;color-interpolation-filters:linearRGB;solid-color:#000000;solid-opacity:1;fill:#000000;fill-opacity:1;fill-rule:evenodd;stroke:none;stroke-width:70;stroke-linecap:round;stroke-linejoin:round;stroke-miterlimit:4;stroke-dasharray:none;stroke-dashoffset:0;stroke-opacity:1;color-rendering:auto;image-rendering:auto;shape-rendering:auto;text-rendering:auto;enable-background:accumulate"
       d="m -2282.2266,886.75391 c -81.1628,1.37342 -165.8351,14.60417 -241.2304,55.01171 -39.572,21.20832 -76.601,50.13556 -104.3301,88.28708 -27.8921,38.3756 -45.5039,85.5768 -44.4024,135.1973 1.2701,57.2193 27.2388,109.9016 65.1172,149.2734 a 35.0035,35.0035 0 0 0 0,0 c 37.584,39.0654 85.45,64.5625 134.586,79.9414 97.864,30.6303 197.356,22.739 288.6972,25.2949 72.2024,2.0204 142.8888,10.8869 201.7071,40.7813 29.3093,14.8963 55.5041,35.0487 75.0058,59.5449 19.4047,24.3741 32.3626,53.7428 35.5,83.1973 3.9383,36.9735 -7.5711,76.8345 -29.5586,109.457 -22.1683,32.8908 -54.9726,59.7615 -92.1816,79.0312 -60.8255,31.5002 -132.7997,43.2546 -205.7871,45.1172 -97.9615,2.5 -196.3814,-12.3215 -282.3262,-53.0117 -53.6848,-25.4169 -102.6838,-61.0293 -143.4316,-104.2461 a 35.0035,35.0035 0 1 0 -50.9297,48.0215 c 46.7803,49.6148 102.7756,90.3125 164.4082,119.4922 98.5996,46.6816 207.91,62.4297 314.0644,59.7207 79.1824,-2.0208 161.8482,-14.4349 236.1914,-52.9356 45.784,-23.7105 87.9714,-57.4553 118.0391,-102.0664 30.2486,-44.8795 47.0781,-100.0334 41.1172,-155.9961 -4.7352,-44.4549 -23.4503,-85.603 -50.3398,-119.3789 -26.7925,-33.654 -61.1034,-59.5692 -98.0547,-78.3496 -73.7028,-37.4594 -155.0703,-46.2139 -231.4649,-48.3515 -96.1178,-2.6896 -188.6411,3.2585 -269.748,-22.127 -40.3495,-12.6289 -77.6238,-33.1638 -105.0489,-61.6699 -27.1303,-28.2 -44.7693,-65.7712 -45.58,-102.2949 -0.7047,-31.7446 11.0882,-65.0326 31.0449,-92.4903 20.1194,-27.6816 48.6111,-50.508 80.7715,-67.7441 61.6151,-33.02218 135.0857,-45.46211 209.3476,-46.71876 83.4178,-1.41158 166.8014,11.07283 238.4668,46.32226 52.0792,25.6157 98.3404,63.5708 133.6387,109.6406 a 35.0035,35.0035 0 1 0 55.5664,-42.5742 c -41.9374,-54.7349 -96.4341,-99.44524 -158.3086,-129.87889 -84.9586,-41.78787 -179.445,-55.04162 -270.5469,-53.5 z"
       id="path4144-0-0-11-6"
       inkscape:connector-curvature="0" />
  </g>
</svg>
