<?xml version="1.0" encoding="UTF-8" standalone="no"?>
<!-- Created with Inkscape (http://www.inkscape.org/) -->

<svg
   xmlns:dc="http://purl.org/dc/elements/1.1/"
   xmlns:cc="http://creativecommons.org/ns#"
   xmlns:rdf="http://www.w3.org/1999/02/22-rdf-syntax-ns#"
   xmlns:svg="http://www.w3.org/2000/svg"
   xmlns="http://www.w3.org/2000/svg"
   xmlns:sodipodi="http://sodipodi.sourceforge.net/DTD/sodipodi-0.dtd"
   xmlns:inkscape="http://www.inkscape.org/namespaces/inkscape"
   width="2000"
   height="2048"
   id="svg2992"
   version="1.1"
   inkscape:version="0.91 r13725"
   sodipodi:docname="ഢ്ര.svg">
  <defs
     id="defs5498">
    <inkscape:path-effect
       effect="spiro"
       id="path-effect4148"
       is_visible="true" />
    <inkscape:path-effect
       effect="spiro"
       id="path-effect3846"
       is_visible="true" />
    <inkscape:path-effect
       effect="spiro"
       id="path-effect3801"
       is_visible="true" />
    <inkscape:path-effect
       effect="spiro"
       id="path-effect4372-52-4-6-8"
       is_visible="true" />
    <inkscape:path-effect
       effect="spiro"
       id="path-effect4148-4"
       is_visible="true" />
    <inkscape:path-effect
       effect="spiro"
       id="path-effect4372-52-4-6-8-4"
       is_visible="true" />
    <inkscape:path-effect
       effect="spiro"
       id="path-effect4372-52-4-6-8-7"
       is_visible="true" />
    <inkscape:path-effect
       effect="spiro"
       id="path-effect4148-4-2"
       is_visible="true" />
    <inkscape:path-effect
       effect="spiro"
       id="path-effect4372-52-4-6-8-7-2"
       is_visible="true" />
    <inkscape:path-effect
       effect="spiro"
       id="path-effect4148-4-0"
       is_visible="true" />
    <inkscape:path-effect
       effect="spiro"
       id="path-effect4372-52-4-9"
       is_visible="true" />
    <inkscape:path-effect
       effect="spiro"
       id="path-effect4148-4-27"
       is_visible="true" />
    <inkscape:path-effect
       effect="spiro"
       id="path-effect4372-52-4-9-1"
       is_visible="true" />
    <inkscape:path-effect
       effect="spiro"
       id="path-effect4148-4-27-3"
       is_visible="true" />
    <inkscape:path-effect
       effect="spiro"
       id="path-effect4148-4-27-3-0"
       is_visible="true" />
    <inkscape:path-effect
       effect="spiro"
       id="path-effect4372-52-4-9-1-4"
       is_visible="true" />
    <inkscape:path-effect
       effect="spiro"
       id="path-effect4148-4-27-3-3"
       is_visible="true" />
    <inkscape:path-effect
       effect="spiro"
       id="path-effect4372-52-4-9-1-2"
       is_visible="true" />
  </defs>
  <sodipodi:namedview
     inkscape:window-height="845"
     inkscape:window-width="1600"
     inkscape:pageshadow="2"
     inkscape:pageopacity="0.0"
     borderopacity="1.0"
     bordercolor="#666666"
     pagecolor="#ffffff"
     id="base"
     showgrid="true"
     showguides="true"
     inkscape:guide-bbox="true"
     inkscape:zoom="0.08"
     inkscape:cx="-5290.695"
     inkscape:cy="559.2797"
     inkscape:window-x="1600"
     inkscape:window-y="26"
     inkscape:current-layer="layer1"
     inkscape:window-maximized="1"
     inkscape:snap-grids="false">
    <inkscape:grid
       type="xygrid"
       id="grid3769"
       empspacing="3"
       visible="true"
       enabled="true"
       snapvisiblegridlinesonly="true"
       spacingx="4px"
       units="px"
       dotted="true"
       spacingy="4px" />
    <sodipodi:guide
       orientation="0,1"
       position="-1040,1600"
       id="guide2985" />
    <sodipodi:guide
       position="-7793.75,1624"
       orientation="0,1"
       id="guide4156"
       inkscape:label=""
       inkscape:color="rgb(0,0,255)" />
    <sodipodi:guide
       position="-8575,600"
       orientation="0,1"
       id="guide4158"
       inkscape:label=""
       inkscape:color="rgb(0,0,255)" />
  </sodipodi:namedview>
  <metadata
     id="metadata5594">
    <rdf:RDF>
      <cc:Work
         rdf:about="">
        <dc:format>image/svg+xml</dc:format>
        <dc:type
           rdf:resource="http://purl.org/dc/dcmitype/StillImage" />
        <dc:title />
      </cc:Work>
    </rdf:RDF>
  </metadata>
  <g
     inkscape:label="Layer 1"
     inkscape:groupmode="layer"
     id="layer1"
     transform="translate(0,1048)">
    <path
       style="fill:none;fill-rule:evenodd;stroke:#000000;stroke-width:140;stroke-linecap:round;stroke-linejoin:round;stroke-miterlimit:4;stroke-dasharray:none;stroke-opacity:1"
       d="m -3057.2941,-523.7222 c 74.3698,-6.98314 151.2251,18.65277 206.5104,68.88383 55.2854,50.23106 88.15,124.2841 88.3072,198.98087 0.1573,74.69677 -32.3952,148.88753 -87.4685,199.350931 -55.0734,50.4633998 -131.8201,76.422702 -206.2186,69.752766 -70.0318,-6.2784531 -137.0566,-41.220363 -182.3446,-95.005757 -45.2881,-53.78539 -68.3048,-125.7588 -62.6824,-195.84636 5.6223,-70.08755 39.8035,-137.45428 93.0103,-183.42071 53.2068,-45.96642 124.8013,-69.99874 194.9698,-65.49822 54.1672,3.47421 106.9131,23.48833 150.8596,55.34508 43.9466,31.85674 79.1223,75.31901 102.813,124.15448 47.3814,97.67094 47.5316,214.27268 13.568,317.37979 -33.1225,100.553561 -97.7011,190.29858 -181.7361,254.68987 -84.035,64.39129 -187.0962,103.32703 -292.6177,111.89024 -66.3942,5.38797 -134.1966,-1.25026 -196.905,-23.71962 -62.7084,-22.46936 -119.749,-61.07183 -162.7324,-111.96037 -42.9835,-50.88853 -71.2366,-113.38652 -85.2111,-178.516634 -13.9745,-65.130113 -13.7861,-132.356286 -12.6345,-198.958786 l 6.0868,-352.03138 -5.8814,352.56821 c -1.8041,108.148298 -3.7074,219.315858 -44.7865,319.37493 -20.5396,50.02954 -51.14,96.56171 -92.5842,131.30658 -41.4442,34.74488 -94.2091,57.10809 -148.2897,57.44541 -64.6193,0.40305 -127.3652,-30.99536 -171.1532,-78.51835 -43.7879,-47.52299 -69.5067,-109.93725 -79.1846,-173.829046 -9.7773,-64.548502 -3.9543,-130.277888 -1.0183,-195.496634 2.936,-65.21875 2.7359,-132.01936 -18.3493,-193.80545 -20.5197,-60.12913 -60.5252,-112.97348 -111.0191,-151.53421 -50.494,-38.56073 -111.1572,-63.05323 -173.833,-73.461 -119.5425,-19.85091 -246.8683,12.90487 -341.9901,87.98018 -95.1218,75.07531 -156.5646,191.30608 -165.032,312.18933 -8.4673,120.883253 36.1721,244.54464 119.8989,332.14754 83.7269,87.60291 205.243,137.78902 326.3855,134.79708"
       id="path4370-92-1-3"
       inkscape:path-effect="#path-effect4372-52-4-9"
       inkscape:original-d="m -3057.2941,-523.7222 c 0,0 -177.7626,530.0532199 1.1305,536.968397 180.3945,6.973211 -133.7226,-502.677247 42.9531,-539.771047 184.0772,-38.64777 306.3942,312.94523 267.2406,496.87935 -41.6005,195.42861 -275.3595,385.012 -474.3538,366.58011 -228.2067,-21.13769 -461.9067,-313.836791 -457.483,-513.15541 l 6.0868,-352.03138 -5.8814,352.56821 c 8.7132,233.023412 -93.0819,482.04993 -285.6604,508.12692 -117.4252,15.9005 -202.507,-143.9547 -250.3378,-252.347396 -52.4556,-118.872934 40.1732,-273.813654 -19.3676,-389.302084 -55.4414,-107.53699 -174.1714,-273.89837 -284.8521,-224.99521 -265.0743,117.12056 -440.2654,604.113738 -60.7377,867.11413"
       inkscape:connector-curvature="0"
       sodipodi:nodetypes="caaaasccaaaac" />
    <path
       style="fill:none;fill-rule:evenodd;stroke:#000000;stroke-width:130;stroke-linecap:round;stroke-linejoin:round;stroke-miterlimit:4;stroke-dasharray:none;stroke-opacity:1"
       d="m -2716.234,-146.12997 c 26.0984,236.78646 -44.9029,482.82847 -193.1438,669.30522 -81.2721,102.23467 -186.9343,186.27175 -308.4794,234.06158 -121.5452,47.78984 -254.6479,55.20874 -385.2481,56.02466 l -629.2235,3.93103 c -179.8008,1.12329 -361.4904,-0.3698 -536.2743,-42.56191 -174.7839,-42.1921 -342.1077,-125.63992 -467.4485,-254.55562 -131.6754,-135.43088 -213.1004,-318.65168 -225.3793,-507.143462 -12.2788,-188.491788 44.6879,-380.727808 157.6803,-532.097018"
       id="path4159-0-70"
       inkscape:connector-curvature="0"
       sodipodi:nodetypes="cassac"
       inkscape:path-effect="#path-effect4148-4-27"
       inkscape:original-d="m -2716.234,-146.12997 c 6.4486,153.2471694 -38.6492,495.93037 -193.1438,669.30522 -166.7369,187.11321 -446.0821,288.53905 -693.7275,290.08624 l -629.2235,3.93103 c -432.9914,2.70507 -785.952,-24.5408 -1003.7228,-297.11753 -216.7023,-271.23934 -67.699,-1039.24048 -67.699,-1039.24048" />
    <path
       style="fill:none;fill-rule:evenodd;stroke:#000000;stroke-width:70;stroke-linecap:round;stroke-linejoin:round;stroke-miterlimit:4;stroke-dasharray:none;stroke-opacity:1"
       d="m -6354.2283,-584.42891 c 70.8253,-1.00091 141.6167,27.40337 192.1077,77.08118 50.4911,49.67781 80.0409,119.99868 80.1901,190.83092 0.1491,70.83225 -29.1044,141.27691 -79.3858,191.16689 -50.2814,49.889972 -120.9526,78.59208 -191.7815,77.889396 -73.842,-0.732576 -146.7888,-33.515552 -196.4674,-88.152636 -49.6786,-54.63708 -75.3895,-130.30161 -69.4242,-203.90588 5.9654,-73.60428 43.4832,-144.09431 101.1183,-190.26109 57.6351,-46.16679 134.5527,-67.39019 207.7264,-57.45143 52.4068,7.1181 102.3529,29.63703 143.7264,62.58199 41.3734,32.94495 74.246,76.10472 96.9477,123.87257 45.4034,95.53571 49.3713,207.13644 26.5665,310.424786 -25.0826,113.605489 -82.2033,220.535964 -165.6089,301.646074 -83.4056,81.11012 -193.1715,135.58724 -308.7449,148.93404 -66.3857,7.66644 -134.7071,1.73981 -197.6412,-20.73541 -62.934,-22.47523 -119.893,-61.73338 -162.5892,-113.1422 -42.6962,-51.40881 -70.5425,-114.28746 -84.3818,-179.665618 -13.8394,-65.378159 -13.8079,-132.791882 -12.8708,-199.612182 l 6.0868,-434.03138 -5.8814,434.56821 c -1.4917,110.220302 -1.5386,223.411847 -40.9704,326.34811 -19.7159,51.46813 -49.9662,99.72254 -92.2736,135.04642 -42.3073,35.32387 -97.4548,56.84463 -152.4164,52.73239 -30.5276,-2.28408 -60.3055,-12.33097 -86.62,-27.97387 -26.3145,-15.64289 -49.1986,-36.79969 -67.845,-61.07862 -37.2927,-48.55786 -57.195,-108.68708 -65.8728,-169.29491 -18.4575,-128.911889 11.0102,-262.66818 -19.3676,-389.30208 -17.8689,-74.48881 -56.6968,-144.0896 -111.9945,-197.09943 -55.2978,-53.00984 -127.0305,-89.02731 -202.8576,-99.89578 -63.4825,-9.09909 -129.2222,-0.62601 -188.8363,23.01692 -59.614,23.64293 -113.0414,62.2852 -155.1989,110.6129 -84.315,96.65541 -121.0199,230.60608 -107.904,358.196303 10.8877,105.914195 54.8699,208.187797 124.2587,288.943887 69.3889,80.7561 163.875,139.6347 266.9428,166.34412"
       id="path4370-92-1-3-9"
       inkscape:path-effect="#path-effect4372-52-4-9-1"
       inkscape:original-d="m -6354.2283,-584.42891 c 0,0 -177.7257,530.051806 1.1305,536.968386 180.3576,6.974644 -133.6853,-502.671046 42.9531,-539.771036 184.0465,-38.65595 296.983,311.18392 267.2406,496.879346 -34.49,215.336414 -256.4605,459.626914 -474.3538,450.580114 -228.9604,-9.5063 -461.9067,-313.836794 -457.483,-513.15541 l 6.0868,-434.03138 -5.8814,434.56821 c 8.7132,233.023406 -90.5779,494.65085 -285.6604,514.12692 -112.6224,11.24367 -178.5734,-153.1525 -220.3378,-258.3474 -47.9436,-120.758688 35.0484,-271.31839 -19.3676,-389.30208 -60.4249,-131.0121 -170.6689,-302.14585 -314.8521,-296.99521 -222.5043,7.94849 -448.2294,269.21083 -451.9392,491.826123 -3.3339,200.062697 227.9866,342.185357 391.2015,455.288007"
       inkscape:connector-curvature="0"
       sodipodi:nodetypes="caaaasccaaaaac" />
    <path
       style="fill:none;fill-rule:evenodd;stroke:#000000;stroke-width:70;stroke-linecap:round;stroke-linejoin:round;stroke-miterlimit:4;stroke-dasharray:none;stroke-opacity:1"
       d="m -6033.1682,-164.83668 c 16.73,183.863119 -13.5132,371.80872 -87.0778,541.14209 -64.6149,148.73266 -168.1258,284.21535 -308.9839,364.56141 -70.429,40.17302 -148.4666,66.29644 -228.3707,80.06099 -79.9041,13.76455 -161.3595,15.12049 -242.4389,15.62702 l -629.2235,3.931 c -112.0835,0.70023 -224.5616,0.62704 -335.6604,-14.21393 -111.0987,-14.84096 -220.6949,-44.4805 -321.4541,-93.58013 -201.5184,-98.19927 -361.8989,-277.92524 -434.9966,-489.84384 -47.8694,-138.77896 -59.9842,-289.725718 -34.8613,-434.36293 25.1229,-144.63721 87.43,-282.65719 179.2943,-397.16497"
       id="path4159-0-70-5"
       inkscape:connector-curvature="0"
       sodipodi:nodetypes="cassac"
       inkscape:path-effect="#path-effect4148-4-27-3"
       inkscape:original-d="m -6033.1682,-164.83668 c 6.4486,153.247166 15.8678,390.20531 -87.0778,541.14209 -170.0699,249.35324 -532.1481,458.70222 -779.7935,460.24942 l -629.2235,3.931 c -432.9914,2.7051 -911.9639,-223.79886 -1092.1111,-597.6379 -122.1266,-253.435387 144.433,-831.5279 144.433,-831.5279" />
    <path
       style="color:#000000;font-style:normal;font-variant:normal;font-weight:normal;font-stretch:normal;font-size:medium;line-height:normal;font-family:sans-serif;text-indent:0;text-align:start;text-decoration:none;text-decoration-line:none;text-decoration-style:solid;text-decoration-color:#000000;letter-spacing:normal;word-spacing:normal;text-transform:none;direction:ltr;block-progression:tb;writing-mode:lr-tb;baseline-shift:baseline;text-anchor:start;white-space:normal;clip-rule:nonzero;display:inline;overflow:visible;visibility:visible;opacity:1;isolation:auto;mix-blend-mode:normal;color-interpolation:sRGB;color-interpolation-filters:linearRGB;solid-color:#000000;solid-opacity:1;fill:#000000;fill-opacity:1;fill-rule:evenodd;stroke:none;stroke-width:70;stroke-linecap:round;stroke-linejoin:round;stroke-miterlimit:4;stroke-dasharray:none;stroke-dashoffset:0;stroke-opacity:1;color-rendering:auto;image-rendering:auto;shape-rendering:auto;text-rendering:auto;enable-background:accumulate"
       d="M -6572.5664 2172.8105 C -6574.5193 2172.8113 -6576.4722 2172.8312 -6578.4238 2172.8691 L -6578.4277 2172.8691 C -6646.0829 2174.185 -6712.7614 2197.8089 -6765.9062 2240.3789 C -6831.3246 2292.7803 -6873.2547 2371.5426 -6880.0293 2455.1309 C -6886.8047 2538.7311 -6858.0703 2623.3183 -6801.6152 2685.4082 C -6745.1519 2747.5072 -6663.5705 2784.1806 -6579.5996 2785.0137 C -6499.0857 2785.8125 -6419.9751 2753.6824 -6362.8184 2696.9707 C -6330.3314 2664.7366 -6305.7606 2625.3395 -6290.6074 2582.5586 C -6290.5298 2594.5897 -6290.8948 2606.6605 -6291.6816 2618.7305 A 35.0035 35.0035 0 0 0 -6294.1777 2635.8105 C -6294.0026 2637.7349 -6293.8402 2639.6606 -6293.6758 2641.5859 C -6295.8026 2661.0506 -6299.0093 2680.4418 -6303.2344 2699.5781 C -6326.902 2806.7749 -6380.9591 2907.7182 -6459.0684 2983.6777 C -6537.0863 3059.5485 -6640.1276 3110.5442 -6747.4277 3122.9355 C -6809.0527 3130.0522 -6872.0676 3124.4402 -6929.2812 3104.0078 C -6986.3574 3083.6246 -7038.2001 3047.8413 -7076.7168 3001.4648 C -7115.2298 2955.0929 -7140.9722 2897.4324 -7153.7832 2836.9121 C -7165.3227 2782.3987 -7166.5482 2724.4165 -7166.0215 2664.9277 C -7165.9415 2658.5165 -7165.7795 2651.9213 -7165.6934 2645.5586 L -7159.8184 2211.4941 L -7159.8086 2211.0078 L -7159.8086 2210.9902 A 35.0035 35.0035 0 0 0 -7229.8008 2210.0273 L -7229.8008 2210.043 L -7235.8887 2644.0586 C -7236.0208 2653.4788 -7236.0217 2663.0743 -7236.0879 2672.6016 C -7237.5861 2773.4384 -7241.0482 2872.0068 -7274.3398 2958.9141 C -7292.3917 3006.0386 -7319.7908 3049.0793 -7356.3613 3079.6133 C -7392.551 3109.8293 -7439.5701 3127.6149 -7483.7344 3124.3105 C -7508.3356 3122.4699 -7533.0786 3114.2325 -7555.082 3101.1523 C -7577.1427 3088.0382 -7596.8495 3069.9395 -7613.0527 3048.8418 C -7645.5078 3006.583 -7663.9632 2952.2948 -7672.0371 2895.9043 C -7689.2724 2775.5287 -7659.1381 2640.4611 -7692.0176 2503.3984 C -7711.4157 2422.5351 -7753.3888 2347.1342 -7813.8262 2289.1973 C -7874.322 2231.2044 -7952.4289 2191.8914 -8035.9375 2179.9219 C -8105.8001 2169.9083 -8177.4955 2179.2135 -8242.6426 2205.0508 C -8307.7436 2230.8699 -8365.603 2272.7876 -8411.3145 2325.1895 C -8502.8519 2430.1243 -8541.7102 2573.2962 -8527.6602 2709.9727 C -8516.0264 2823.1448 -8469.2748 2931.8584 -8395.1309 3018.1484 C -8320.9871 3104.4385 -8220.5526 3167.0228 -8110.4219 3195.5625 A 35.0035 35.0035 0 1 0 -8092.8613 3127.8008 C -8188.8662 3102.9217 -8277.4033 3047.7495 -8342.0371 2972.5273 C -8406.671 2897.3052 -8447.8857 2801.4707 -8458.0273 2702.8145 C -8470.2093 2584.3105 -8435.6572 2459.5812 -8358.5645 2371.2051 C -8319.961 2326.9515 -8270.9631 2291.586 -8216.8359 2270.1191 C -8162.7548 2248.6706 -8102.9716 2241.0283 -8045.8691 2249.2129 C -7977.7234 2258.9804 -7912.3672 2291.7037 -7862.2676 2339.7305 C -7812.1101 2387.8132 -7776.4256 2451.6128 -7760.0859 2519.7266 C -7732.2099 2635.9317 -7761.0098 2768.378 -7741.3301 2905.8262 C -7732.0484 2970.6513 -7710.7007 3036.6217 -7668.5703 3091.4785 C -7647.4807 3118.9386 -7621.4199 3143.1526 -7590.8516 3161.3242 C -7560.226 3179.5299 -7525.4111 3191.3877 -7488.957 3194.1152 C -7423.1982 3199.0353 -7359.9229 3173.7774 -7311.498 3133.3457 C -7263.4537 3093.2319 -7230.3525 3039.7648 -7208.9727 2983.9531 C -7203.3941 2969.3905 -7198.5987 2954.7099 -7194.4062 2939.9512 C -7178.3408 2977.9525 -7157.297 3013.9999 -7130.5645 3046.1875 C -7083.6888 3102.6287 -7021.6122 3145.3625 -6952.8203 3169.9297 C -6884.1659 3194.4477 -6810.539 3200.6888 -6739.3926 3192.4727 C -6615.546 3178.1704 -6499.055 3120.2108 -6410.2617 3033.8613 C -6367.1772 2991.9626 -6330.8214 2943.7742 -6301.7852 2891.5391 C -6315.6158 2983.8238 -6341.3551 3074.33 -6378.502 3159.8359 C -6440.7688 3303.1637 -6540.1672 3432.3289 -6672.7266 3507.9414 C -6739.1626 3545.8368 -6813.3371 3570.758 -6889.6973 3583.9121 C -6966.0587 3597.0663 -7045.5765 3598.5264 -7126.4121 3599.0312 L -7755.6367 3602.9629 C -7867.5587 3603.6621 -7978.4026 3603.489 -8086.4434 3589.0566 C -8194.4744 3574.6254 -8300.4382 3545.8565 -8397.1992 3498.7051 C -8590.1739 3404.6692 -8744.5005 3231.6788 -8814.4414 3028.9121 C -8860.3534 2895.808 -8872.0019 2750.6739 -8847.9062 2611.9512 C -8823.8108 2473.2284 -8763.9028 2340.5227 -8675.7949 2230.6973 A 35.0035 35.0035 0 0 0 -8704.1484 2173.4336 A 35.0035 35.0035 0 0 0 -8730.3965 2186.8945 C -8826.0172 2306.0847 -8890.7228 2449.4191 -8916.873 2599.9707 C -8943.0233 2750.5223 -8930.4421 2907.2825 -8880.6152 3051.7363 C -8804.3607 3272.8069 -8637.9254 3459.2684 -8427.8633 3561.6309 C -8323.1059 3612.6789 -8209.8793 3643.1887 -8095.7129 3658.4395 C -7981.5561 3673.6889 -7867.4442 3673.6621 -7755.1992 3672.9609 L -7125.9746 3669.0312 C -7044.6514 3668.5233 -6961.2593 3667.2713 -6877.8125 3652.8965 C -6794.3644 3638.5214 -6712.4649 3611.1947 -6638.043 3568.7441 C -6488.8861 3483.6644 -6381.2618 3341.8661 -6314.2988 3187.7285 C -6240.1447 3017.0382 -6208.6951 2828.361 -6223.3379 2642.8594 C -6214.4651 2554.6313 -6225.0982 2463.5515 -6264.0098 2381.6758 C -6288.8257 2329.4592 -6324.8068 2282.0436 -6370.7656 2245.4473 C -6416.7971 2208.7932 -6472.3609 2183.6064 -6531.584 2175.5625 C -6545.2011 2173.7129 -6558.896 2172.8051 -6572.5664 2172.8105 z M -6596.666 2244.2559 A 35.0035 35.0035 0 0 0 -6579.8887 2248.043 C -6518.7478 2247.1789 -6456.4093 2272.1931 -6412.8223 2315.0781 C -6369.2353 2357.9631 -6343.2127 2419.8864 -6343.084 2481.0332 C -6342.9553 2542.18 -6368.717 2604.2131 -6412.123 2647.2812 C -6455.5291 2690.3495 -6517.7604 2715.6242 -6578.9043 2715.0176 C -6642.6174 2714.3855 -6706.9303 2685.4936 -6749.8242 2638.3184 C -6792.7263 2591.1341 -6815.413 2524.3935 -6810.2578 2460.7852 C -6805.1016 2397.1648 -6771.9964 2334.9459 -6722.1445 2295.0137 C -6686.729 2266.6452 -6642.195 2249.0352 -6596.666 2244.2559 z "
       transform="translate(0,-1048)"
       id="path4370-92-1-3-9-6" />
  </g>
</svg>
