<?xml version="1.0" encoding="UTF-8" standalone="no"?>
<!-- Created with Inkscape (http://www.inkscape.org/) -->

<svg
   xmlns:dc="http://purl.org/dc/elements/1.1/"
   xmlns:cc="http://creativecommons.org/ns#"
   xmlns:rdf="http://www.w3.org/1999/02/22-rdf-syntax-ns#"
   xmlns:svg="http://www.w3.org/2000/svg"
   xmlns="http://www.w3.org/2000/svg"
   xmlns:sodipodi="http://sodipodi.sourceforge.net/DTD/sodipodi-0.dtd"
   xmlns:inkscape="http://www.inkscape.org/namespaces/inkscape"
   version="1.1"
   width="2000"
   height="2000"
   id="svg2992"
   inkscape:version="0.91 r13725"
   sodipodi:docname="ണു.svg">
  <sodipodi:namedview
     pagecolor="#ffffff"
     bordercolor="#666666"
     borderopacity="1"
     objecttolerance="10"
     gridtolerance="10"
     guidetolerance="10"
     inkscape:pageopacity="0"
     inkscape:pageshadow="2"
     inkscape:window-width="1600"
     inkscape:window-height="845"
     id="namedview7"
     showgrid="true"
     inkscape:zoom="0.088388351"
     inkscape:cx="-5312.3431"
     inkscape:cy="-477.55988"
     inkscape:window-x="1600"
     inkscape:window-y="26"
     inkscape:window-maximized="1"
     inkscape:current-layer="layer1"
     showguides="true"
     inkscape:guide-bbox="true">
    <inkscape:grid
       type="xygrid"
       id="grid2984" />
    <sodipodi:guide
       orientation="0,1"
       position="-2000,1600"
       id="guide2984" />
    <sodipodi:guide
       orientation="0,1"
       position="-2640,600"
       id="guide2986"
       inkscape:label=""
       inkscape:color="rgb(0,0,255)" />
    <sodipodi:guide
       position="-6480,1624"
       orientation="0,1"
       id="guide4169"
       inkscape:label=""
       inkscape:color="rgb(0,0,255)" />
  </sodipodi:namedview>
  <defs
     id="defs5498">
    <inkscape:path-effect
       effect="spiro"
       id="path-effect4143"
       is_visible="true" />
    <inkscape:path-effect
       effect="spiro"
       id="path-effect4372-5-9-5"
       is_visible="true" />
    <inkscape:path-effect
       effect="spiro"
       id="path-effect4372-5-9-5-9"
       is_visible="true" />
    <inkscape:path-effect
       effect="spiro"
       id="path-effect4143-4"
       is_visible="true" />
    <inkscape:path-effect
       effect="spiro"
       id="path-effect4372-5-9-5-9-8"
       is_visible="true" />
    <inkscape:path-effect
       effect="spiro"
       id="path-effect4372-5-9-5-9-0"
       is_visible="true" />
    <inkscape:path-effect
       effect="spiro"
       id="path-effect4372-5-9-5-9-4"
       is_visible="true" />
    <inkscape:path-effect
       effect="spiro"
       id="path-effect4372-5-9-5-9-2"
       is_visible="true" />
    <inkscape:path-effect
       effect="spiro"
       id="path-effect4372-5-9-5-9-29"
       is_visible="true" />
    <inkscape:path-effect
       effect="spiro"
       id="path-effect4372-5-9-5-9-87"
       is_visible="true" />
    <inkscape:path-effect
       effect="spiro"
       id="path-effect4372-5-9-5-9-7"
       is_visible="true" />
    <inkscape:path-effect
       effect="spiro"
       id="path-effect4372-5-9-5-9-5"
       is_visible="true" />
    <inkscape:path-effect
       effect="spiro"
       id="path-effect4372-5-9-5-9-9"
       is_visible="true" />
    <inkscape:path-effect
       effect="spiro"
       id="path-effect4372-5-9-5-9-80"
       is_visible="true" />
    <inkscape:path-effect
       effect="spiro"
       id="path-effect4372-5-9-5-9-80-9"
       is_visible="true" />
    <inkscape:path-effect
       effect="spiro"
       id="path-effect4372-5-9-5-9-83"
       is_visible="true" />
    <inkscape:path-effect
       effect="spiro"
       id="path-effect4372-5-9-5-9-83-3"
       is_visible="true" />
    <inkscape:path-effect
       effect="spiro"
       id="path-effect4372-5-9-5-9-80-7"
       is_visible="true" />
    <inkscape:path-effect
       effect="spiro"
       id="path-effect4372-5-9-5-9-80-7-4"
       is_visible="true" />
    <inkscape:path-effect
       effect="spiro"
       id="path-effect4372-5-9-5-9-807"
       is_visible="true" />
    <inkscape:path-effect
       effect="spiro"
       id="path-effect4372-5-9-5-9-1"
       is_visible="true" />
    <inkscape:path-effect
       effect="spiro"
       id="path-effect4372-5-9-5-9-21"
       is_visible="true" />
    <inkscape:path-effect
       effect="spiro"
       id="path-effect4372-5-9-5-9-875"
       is_visible="true" />
    <inkscape:path-effect
       effect="spiro"
       id="path-effect4372-5-9-5-9-83-0"
       is_visible="true" />
    <inkscape:path-effect
       effect="spiro"
       id="path-effect4372-5-9-5-9-6"
       is_visible="true" />
    <inkscape:path-effect
       effect="spiro"
       id="path-effect4372-5-9-5-9-6-3"
       is_visible="true" />
  </defs>
  <metadata
     id="metadata5594">
    <rdf:RDF>
      <cc:Work
         rdf:about="">
        <dc:format>image/svg+xml</dc:format>
        <dc:type
           rdf:resource="http://purl.org/dc/dcmitype/StillImage" />
        <dc:title />
      </cc:Work>
    </rdf:RDF>
  </metadata>
  <g
     transform="translate(0,1000)"
     id="layer1">
    <path
       style="fill:none;fill-rule:evenodd;stroke:#000000;stroke-width:140;stroke-linecap:round;stroke-linejoin:round;stroke-miterlimit:4;stroke-dasharray:none;stroke-opacity:1"
       d="m 269.21908,134.71066 c -12.49462,-47.991982 -12.4157,-99.199283 0.22678,-147.152526 12.64247,-47.953244 37.81981,-92.543554 72.35118,-128.137514 34.53137,-35.59397 78.33837,-62.11078 125.88654,-76.20037 47.54818,-14.0896 98.72958,-15.71999 147.0781,-4.6852 60.10413,13.71782 115.57642,47.20327 155.46349,94.2108 39.88707,47.007519 63.91606,107.3023 66.96526,168.876547 3.0492,61.574243 -14.95818,124.050283 -50.58112,174.366203 -35.62295,50.31592 -88.67476,88.10428 -147.96093,105.01094 -53.68199,15.30851 -111.80993,13.54403 -165.09641,-3.08898 C 420.26549,301.27754 371.87662,270.04496 333.28346,229.71292 256.09712,149.04884 220.26644,34.298282 222.48738,-77.323814 224.81865,-194.49113 267.6339,-310.87696 343.73546,-399.99581 c 76.10155,-89.11885 185.26293,-149.91111 301.45272,-165.19339 140.00801,-18.41506 287.39452,31.24124 387.71442,130.62571 100.3199,99.38446 151.3548,246.2993 134.2522,386.473692 l 0.9133,380.226388 0.7848,-369.59761 c 0.25,-117.71326 4.1666,-239.90849 57.3461,-344.92476 26.5897,-52.50813 64.938,-99.54071 113.381,-132.96815 48.443,-33.42743 107.051,-52.78589 165.8931,-51.47353 58.8297,1.31208 116.4664,23.22827 163.5557,58.51636 47.0893,35.28809 83.768,83.49504 109.0329,136.63958 50.5296,106.28908 53.7761,228.07394 54.0315,345.762295 l 0.7848,361.597605 0.9133,-372.226405 c -20.5414,-141.873275 28.8414,-292.192685 129.5168,-394.243845 100.6755,-102.05116 250.3108,-153.4696 392.4498,-134.85553 115.9243,15.18108 224.9441,75.53005 301.1029,164.23598 76.1589,88.70592 119.192,204.74003 121.5979,321.629395 2.2961,111.553529 -33.7129,226.201145 -110.9288,306.744065 -38.608,40.27146 -86.9734,71.45476 -140.2156,88.1171 -53.2422,16.66233 -111.3048,18.54245 -165.0166,3.46224 -59.601,-16.73369 -113.0517,-54.4263 -149.029,-104.80419 -35.9772,-50.3779 -54.2782,-113.07838 -51.2997,-174.912217 2.9785,-61.833832 27.1729,-122.411227 67.421,-169.447193 40.2481,-47.03596 96.2747,-80.27577 156.7944,-93.3009 50.5039,-10.86951 103.9395,-7.77476 152.8509,8.85241 48.9114,16.62718 93.1622,46.74043 126.5781,86.13801 33.4158,39.397583 55.9035,87.969639 64.3254,138.938859 8.4218,50.96922 2.7543,104.193471 -16.2118,152.246321"
       id="path4370-9-3-9-2"
       inkscape:path-effect="#path-effect4372-5-9-5-9"
       inkscape:original-d="m 269.21908,134.71066 c 0,0 190.9133,-414.93007 345.5426,-356.17561 169.19445,64.28878 188.73316,467.72858 23.8867,542.46449 C 463.76057,400.28787 231.4458,114.48894 222.48738,-77.323814 212.44896,-292.26093 430.17263,-557.00097 645.18818,-565.1892 c 244.7355,-9.32003 521.96662,517.099402 521.96662,517.099402 l 0.9133,380.226388 0.7848,-369.59761 c 6.8627,-408.53141 127.5245,-531.78855 336.6202,-529.36644 210.6128,2.43968 319.7574,132.38683 326.6201,540.918235 l 0.7848,361.597605 0.9133,-372.226405 c 0,0 274.3437,-536.855395 521.9666,-529.099375 214.5628,6.72052 432.4977,271.42105 422.7008,485.865375 -8.7634,191.821775 -241.2732,477.611735 -416.161,398.323405 -164.8465,-74.73591 -147.3607,-483.86296 23.8867,-542.4645 159.6998,-54.6499 327.5426,386.1756 327.5426,386.1756"
       inkscape:connector-curvature="0"
       sodipodi:nodetypes="caaaacccacccaaaac" />
    <path
       style="fill:none;fill-rule:evenodd;stroke:#000000;stroke-width:120;stroke-linecap:round;stroke-linejoin:round;stroke-miterlimit:4;stroke-dasharray:none;stroke-opacity:1"
       d="m 1023.9239,947.40388 c -15.9369,-34.23632 -22.027,-72.98916 -17.3599,-110.46351 4.6672,-37.47434 20.0768,-73.54953 43.9243,-102.83096 23.8476,-29.28143 56.0565,-51.67482 91.8101,-63.83151 35.7537,-12.15669 74.937,-14.03754 111.6907,-5.36129 41.8786,9.88607 80.41,33.54888 108.0448,66.53179 27.6348,32.9829 44.1955,75.1163 46.2543,118.09669 2.0588,42.9804 -10.4242,86.55328 -35.0613,121.83166 -24.6372,35.27835 -61.2979,62.02565 -102.4598,74.56575 -37.8747,11.5386 -79.1307,11.0661 -117.1076,-0.1313 -37.9769,-11.1974 -72.6187,-32.9421 -100.1434,-61.40293 -55.04945,-56.92167 -79.88397,-139.20768 -75.0596,-218.24718 4.77203,-78.18201 37.4771,-154.43869 91.1377,-211.49778 53.6606,-57.05909 127.9194,-94.41923 205.7664,-103.08195 94.7898,-10.54808 193.5535,22.40688 263.0163,87.7619 69.4628,65.35502 108.3695,161.92919 103.612,257.1853 l 0.6415,267.07024 0.5512,-259.6046 c 0.088,-41.57807 0.5514,-83.38994 7.9693,-124.30104 7.4178,-40.91111 21.8597,-80.82868 44.9328,-115.4174 23.073,-34.58872 54.6624,-63.54958 91.4716,-82.88424 36.8091,-19.33467 78.5939,-28.98774 120.1636,-28.15128 41.5729,0.83652 82.916,12.15142 119.0208,32.77768 36.1049,20.62626 66.756,50.49238 89.0418,85.59711 22.2859,35.10474 36.1176,75.17647 43.2219,116.14636 7.1042,40.96989 7.5431,82.76559 7.6334,124.34677 l 0.5513,253.98534 0.6415,-261.45098 c -4.7575,-95.25609 34.1492,-191.83024 103.612,-257.18526 69.4628,-65.35502 168.2265,-98.31 263.0162,-87.76194 77.847,8.6627 152.1058,46.02284 205.7664,103.08193 53.6606,57.05909 86.3658,133.31578 91.1378,211.4978 4.8244,79.03951 -20.0101,161.32552 -75.0596,218.24721 -27.5247,28.46084 -62.1664,50.20554 -100.1434,61.40294 -37.9769,11.1974 -79.2329,11.6699 -117.1076,0.1313 -41.1619,-12.5401 -77.8226,-39.2873 -102.4597,-74.56572 -24.6372,-35.27838 -37.1202,-78.85124 -35.0614,-121.83163 2.0588,-42.98039 18.6195,-85.11378 46.2542,-118.09669 27.6348,-32.98291 66.1662,-56.64573 108.0448,-66.53182 36.7537,-8.67627 75.937,-6.79544 111.6907,5.36124 35.7537,12.15668 67.9625,34.55007 91.8101,63.8315 23.8476,29.28143 39.2572,65.35663 43.9244,102.83099 4.6672,37.47435 -1.423,76.22721 -17.3599,110.46354"
       id="path4370-9-3-9-2-1"
       inkscape:path-effect="#path-effect4372-5-9-5-9-80"
       inkscape:original-d="m 1023.9239,947.40388 c 0,0 114.78,-320.65768 230.0652,-282.48727 120.6885,39.95949 132.5658,328.53156 16.778,381.02589 -122.8408,55.692 -288.8855,-144.94921 -292.3106,-279.78141 -3.66167,-144.14189 152.7793,-310.30102 296.9041,-314.57973 167.7239,-4.97931 366.6283,344.9472 366.6283,344.9472 l 0.6415,267.07024 0.5512,-259.6046 c 4.8204,-286.95163 118.1031,-352.30479 264.5373,-350.75396 147.4986,1.5621 254.0976,71.91629 258.9179,358.86792 l 0.5513,253.98534 0.6415,-261.45098 c 0,0 198.9044,-349.92651 366.6282,-344.9472 144.1248,4.27871 300.5658,170.43785 296.9042,314.57973 -3.4251,134.8322 -169.4698,335.47345 -292.3106,279.78145 -115.7879,-52.4943 -103.9106,-341.06644 16.7779,-381.02586 115.2853,-38.17048 230.0653,282.48727 230.0653,282.48727"
       inkscape:connector-curvature="0"
       sodipodi:nodetypes="caaaacccacccaaaac" />
    <path
       style="color:#000000;font-style:normal;font-variant:normal;font-weight:normal;font-stretch:normal;font-size:medium;line-height:normal;font-family:sans-serif;text-indent:0;text-align:start;text-decoration:none;text-decoration-line:none;text-decoration-style:solid;text-decoration-color:#000000;letter-spacing:normal;word-spacing:normal;text-transform:none;direction:ltr;block-progression:tb;writing-mode:lr-tb;baseline-shift:baseline;text-anchor:start;white-space:normal;clip-rule:nonzero;display:inline;overflow:visible;visibility:visible;opacity:1;isolation:auto;mix-blend-mode:normal;color-interpolation:sRGB;color-interpolation-filters:linearRGB;solid-color:#000000;solid-opacity:1;fill:#000000;fill-opacity:1;fill-rule:evenodd;stroke:none;stroke-width:120;stroke-linecap:round;stroke-linejoin:round;stroke-miterlimit:4;stroke-dasharray:none;stroke-dashoffset:0;stroke-opacity:1;color-rendering:auto;image-rendering:auto;shape-rendering:auto;text-rendering:auto;enable-background:accumulate"
       d="m -1737.8652,402.93555 c -14.1194,0.002 -28.2741,0.77982 -42.3985,2.35156 -92.5242,10.29599 -179.2082,53.94583 -242.8398,121.60742 -63.6025,67.63065 -101.6733,156.49364 -107.3164,248.94727 -4.4978,73.68896 12.2478,149.94177 52.7734,213.77929 a 60.006,60.006 0 0 0 5.5371,8.56836 c 9.8832,14.51595 21.0147,28.34955 33.5078,41.26755 34.397,35.5669 77.6104,62.8848 126.3047,77.2422 48.844,14.4016 101.6297,15.1881 151.5606,-0.023 54.4136,-16.5773 101.6823,-51.0936 134.166,-97.6074 a 60.006,60.006 0 0 0 0,-0 c 32.4685,-46.4923 48.5069,-102.56097 45.8008,-159.05468 -2.7049,-56.46801 -23.9826,-110.54106 -60.1934,-153.75977 -36.1947,-43.19945 -85.5469,-73.47863 -140.2519,-86.39257 -47.9212,-11.31249 -98.1738,-8.90121 -144.7911,6.94921 -12.4674,4.23908 -24.5168,9.46573 -36.1308,15.48047 7.984,-11.76463 16.7917,-22.91234 26.4512,-33.18359 43.6895,-46.45659 105.5236,-77.52524 168.6933,-84.55469 76.5847,-8.52225 159.1437,19.02504 215.2656,71.82813 56.122,52.80309 88.6447,133.53275 84.8008,210.49414 a 60.006,60.006 0 0 0 -0.074,3.13672 l 0.6426,266.79883 0,0.2715 a 60.006,60.006 0 0 0 119.998,-0.018 l 0,-0.2715 0.5528,-259.33202 c 0.087,-41.21739 0.79,-79.44319 7.0058,-113.7246 6.2012,-34.20091 18.1476,-66.35061 35.8086,-92.82618 17.6234,-26.41917 41.9754,-48.62625 69.459,-63.0625 a 60.006,60.006 0 0 0 0,0 c 27.5384,-14.46507 59.5764,-21.91465 91.0546,-21.28125 31.4927,0.63369 63.2836,9.36035 90.4649,24.88867 27.1438,15.50693 50.9532,38.5673 68.15037,65.65626 17.23347,27.14617 28.76817,59.69843 34.75781,94.24023 6.00171,34.61143 6.66242,72.98031 6.75196,114.22656 l 0.55078,253.70703 0,0.2773 a 60.006,60.006 0 0 0 120,0.018 l 0,-0.2773 0.64062,-261.17385 a 60.006,60.006 0 0 0 -0.0742,-3.14062 c -3.84381,-76.9614 28.68083,-157.69108 84.80274,-210.49414 56.12191,-52.80307 138.681,-80.35035 215.26562,-71.82813 63.16978,7.02944 125.00375,38.09808 168.69336,84.55469 9.65991,10.2717 18.46883,21.42034 26.45313,33.18555 -11.6152,-6.01558 -23.66599,-11.24289 -36.13477,-15.48242 -46.61725,-15.85043 -96.8699,-18.26174 -144.79101,-6.94922 -54.70509,12.91397 -104.05531,43.19316 -140.25,86.39257 -36.2109,43.21877 -57.48848,97.29185 -60.19336,153.75977 -2.70613,56.49374 13.33223,112.56434 45.80078,159.0566 32.48372,46.5141 79.75058,81.0302 134.16406,97.6075 49.93089,15.2115 102.71847,14.4249 151.5625,0.023 48.69433,-14.3574 91.90775,-41.6753 126.30469,-77.2422 12.44521,-12.8685 23.53361,-26.6486 33.38867,-41.1035 a 60.006,60.006 0 0 0 5.95117,-9.20118 c 40.31025,-63.74229 56.96532,-139.79959 52.47852,-213.30859 -5.64313,-92.45363 -43.71585,-181.31661 -107.31836,-248.94726 -63.63162,-67.6616 -150.3136,-111.31342 -242.83789,-121.60938 -112.99486,-12.5739 -227.96393,25.78836 -310.76758,103.69531 -18.96546,17.84392 -35.85663,37.56895 -50.72461,58.63282 -4.09956,-7.75185 -8.40347,-15.43163 -13.16601,-22.9336 -27.37462,-43.12053 -64.86776,-79.79152 -109.9336,-105.53711 -45.02847,-25.72419 -95.92307,-39.62861 -147.57617,-40.66797 -51.6612,-1.03952 -103.1917,10.81725 -149.2715,35.02149 l 0,-0.002 c -46.1347,24.23306 -84.9617,59.94876 -113.4844,102.70703 -5.3997,8.09476 -10.2576,16.41541 -14.8496,24.83398 -15.1247,-21.64923 -32.4009,-41.88972 -51.83,-60.16992 -72.4533,-68.1686 -169.5318,-106.06062 -268.3672,-106.04492 z m -100.4668,330.02148 c 10.0025,0.20126 19.952,1.4264 29.5468,3.69141 29.0522,6.85819 56.765,23.90355 75.8399,46.66992 19.0586,22.74711 30.9017,52.94078 32.3144,82.43359 1.4115,29.46712 -7.5165,60.54295 -24.3222,84.60743 -16.7907,24.04283 -42.8437,43.02245 -70.7539,51.52542 -25.8185,7.8656 -55.5445,7.7061 -82.6543,-0.2871 -27.2595,-8.03745 -53.33,-24.20961 -73.9825,-45.5645 -7.4343,-7.6872 -14.1851,-16.16383 -20.2753,-25.23437 -9.5895,-22.77318 -13.3088,-48.67095 -10.2657,-73.10547 3.2491,-26.0879 14.3066,-51.97295 30.9082,-72.35742 16.6016,-20.38439 39.7116,-36.45113 64.6016,-44.91406 15.5564,-5.28935 32.372,-7.80028 49.043,-7.46485 z m 1388.50583,8.11328 c 16.67094,-0.33543 33.48666,2.17551 49.04297,7.46485 24.89008,8.46292 47.99993,24.52964 64.60156,44.91406 16.60161,20.3844 27.65912,46.26948 30.9082,72.35742 3.04311,24.43408 -0.67837,50.3324 -10.26758,73.10547 -6.09027,9.07055 -12.84101,17.54911 -20.27539,25.23633 -20.6525,21.35494 -46.72288,37.52506 -73.98242,45.56246 -27.10983,7.9933 -56.83391,8.1528 -82.65234,0.2871 -27.91028,-8.5029 -53.96331,-27.4806 -70.75391,-51.52339 -16.80575,-24.06446 -25.73378,-55.14036 -24.32226,-84.60742 1.41274,-29.49286 13.25579,-59.68652 32.31445,-82.4336 19.07487,-22.7664 46.78574,-39.81367 75.83789,-46.67187 9.59484,-2.26501 19.54627,-3.49015 29.54883,-3.69141 z"
       id="path4370-9-3-9-2-1-7"
       inkscape:connector-curvature="0" />
    <path
       style="color:#000000;font-style:normal;font-variant:normal;font-weight:normal;font-stretch:normal;font-size:medium;line-height:normal;font-family:sans-serif;text-indent:0;text-align:start;text-decoration:none;text-decoration-line:none;text-decoration-style:solid;text-decoration-color:#000000;letter-spacing:normal;word-spacing:normal;text-transform:none;direction:ltr;block-progression:tb;writing-mode:lr-tb;baseline-shift:baseline;text-anchor:start;white-space:normal;clip-rule:nonzero;display:inline;overflow:visible;visibility:visible;opacity:1;isolation:auto;mix-blend-mode:normal;color-interpolation:sRGB;color-interpolation-filters:linearRGB;solid-color:#000000;solid-opacity:1;fill:#000000;fill-opacity:1;fill-rule:evenodd;stroke:none;stroke-width:120;stroke-linecap:round;stroke-linejoin:round;stroke-miterlimit:4;stroke-dasharray:none;stroke-dashoffset:0;stroke-opacity:1;color-rendering:auto;image-rendering:auto;shape-rendering:auto;text-rendering:auto;enable-background:accumulate"
       d="m -5597.1872,1409.3762 c -14.1194,0 -28.2741,0.7798 -42.3985,2.3516 -92.5242,10.296 -179.2082,53.9458 -242.8398,121.6074 -63.6025,67.6307 -101.6733,156.4937 -107.3164,248.9473 -4.4978,73.689 12.2478,149.9418 52.7734,213.7793 a 60.006,60.006 0 0 0 5.5371,8.5684 c 9.8832,14.5159 21.0147,28.3495 33.5078,41.2675 34.397,35.5669 77.6104,62.8848 126.3047,77.2422 48.844,14.4016 101.6297,15.1881 151.5606,-0.023 54.4136,-16.5773 101.6823,-51.0936 134.166,-97.6074 32.4685,-46.4923 48.5069,-102.561 45.8008,-159.0547 -2.7049,-56.468 -23.9826,-110.541 -60.1934,-153.7597 -36.1947,-43.1995 -85.5469,-73.4787 -140.2519,-86.3926 -47.9212,-11.3125 -98.1738,-8.9013 -144.7911,6.9492 -12.4674,4.239 -24.5168,9.4657 -36.1308,15.4804 7.984,-11.7646 16.7917,-22.9123 26.4512,-33.1836 43.6895,-46.4565 105.5236,-77.5252 168.6933,-84.5546 76.5847,-8.5223 159.1437,19.025 215.2656,71.8281 56.122,52.8031 88.6447,133.5328 84.8008,210.4942 a 60.006,60.006 0 0 0 -0.074,3.1367 l 0.6426,266.7988 0,0.2715 a 60.006,60.006 0 0 0 119.998,-0.018 l 0,-0.2715 0.5528,-259.332 c 0.087,-41.2174 0.79,-79.4432 7.0058,-113.7246 6.2012,-34.201 18.1476,-66.3507 35.8086,-92.8262 17.6234,-26.4192 41.9754,-48.6263 69.459,-63.0625 27.5384,-14.4651 59.5764,-21.9147 91.0546,-21.2813 31.4927,0.6337 63.2836,9.3604 90.4649,24.8887 27.1438,15.5069 50.9532,38.5673 68.1504,65.6563 17.2335,27.1461 28.7682,59.6984 34.7578,94.2402 6.0017,34.6114 6.6624,72.9803 6.752,114.2266 l 0.5508,253.707 0,0.2773 a 60.006,60.006 0 0 0 120,0.018 l 0,-0.2773 0.6406,-261.1738 a 60.006,60.006 0 0 0 -0.074,-3.1407 c -3.8438,-76.9614 28.6808,-157.6911 84.8027,-210.4941 56.1219,-52.8031 138.681,-80.3504 215.2656,-71.8282 63.1698,7.0295 125.0038,38.0981 168.6934,84.5547 9.6599,10.2717 18.4688,21.4204 26.4531,33.1856 -11.6152,-6.0156 -23.666,-11.2429 -36.1347,-15.4824 -46.6173,-15.8505 -96.8699,-18.2618 -144.791,-6.9493 -54.7051,12.914 -104.0554,43.1932 -140.25,86.3926 -36.2109,43.2188 -57.4885,97.2919 -60.1934,153.7598 -2.7061,56.4937 13.3322,112.5643 45.8008,159.0566 32.4837,46.5141 79.7506,81.0302 134.164,97.6075 49.9309,15.2115 102.7185,14.4249 151.5625,0.023 48.6944,-14.3574 91.9078,-41.6753 126.3047,-77.2422 12.4452,-12.8685 23.5336,-26.6486 33.3887,-41.1035 a 60.006,60.006 0 0 0 5.9512,-9.2012 c 40.3102,-63.7423 56.9653,-139.7996 52.4785,-213.3086 -5.6433,-92.4536 -43.7161,-181.3166 -107.3186,-248.9473 -63.6316,-67.6616 -150.3136,-111.3134 -242.8379,-121.6093 -112.9948,-12.574 -227.9639,25.7883 -310.7675,103.6953 -18.9655,17.8439 -35.8567,37.5689 -50.7247,58.6328 -4.0995,-7.7519 -8.4034,-15.4316 -13.166,-22.9336 -27.3746,-43.1205 -64.8677,-79.7915 -109.9336,-105.5371 -45.0285,-25.7242 -95.9231,-39.6286 -147.5762,-40.668 -51.6612,-1.0395 -103.1917,10.8173 -149.2715,35.0215 l 0,-0 c -46.1347,24.2331 -84.9617,59.9488 -113.4844,102.707 -5.3997,8.0948 -10.2576,16.4154 -14.8496,24.834 -15.1247,-21.6492 -32.4009,-41.8897 -51.83,-60.1699 -72.4533,-68.1686 -169.5318,-106.0606 -268.3672,-106.0449 z m -100.4668,330.0215 c 10.0025,0.2013 19.952,1.4264 29.5468,3.6914 29.0522,6.8582 56.765,23.9036 75.8399,46.67 19.0586,22.7471 30.9017,52.9407 32.3144,82.4336 1.4115,29.4671 -7.5165,60.5429 -24.3222,84.6074 -16.7907,24.0428 -42.8437,43.0224 -70.7539,51.5254 -25.8185,7.8656 -55.5445,7.7061 -82.6543,-0.2871 -27.2595,-8.0374 -53.33,-24.2096 -73.9825,-45.5645 -7.4343,-7.6872 -14.1851,-16.1638 -20.2753,-25.2344 -9.5895,-22.7731 -13.3088,-48.6709 -10.2657,-73.1054 3.2491,-26.0879 14.3066,-51.973 30.9082,-72.3575 16.6016,-20.3843 39.7116,-36.4511 64.6016,-44.914 15.5564,-5.2894 32.372,-7.8003 49.043,-7.4649 z m 1388.5059,8.1133 c 16.6709,-0.3354 33.4866,2.1755 49.0429,7.4649 24.8901,8.4629 48,24.5296 64.6016,44.914 16.6016,20.3844 27.6591,46.2695 30.9082,72.3574 3.0431,24.4341 -0.6784,50.3324 -10.2676,73.1055 -6.0902,9.0706 -12.841,17.5491 -20.2754,25.2363 -20.6525,21.355 -46.7228,37.5251 -73.9824,45.5625 -27.1098,7.9933 -56.8339,8.1528 -82.6523,0.2871 -27.9103,-8.5029 -53.9633,-27.4806 -70.7539,-51.5234 -16.8058,-24.0644 -25.7338,-55.1403 -24.3223,-84.6074 1.4127,-29.4929 13.2558,-59.6865 32.3145,-82.4336 19.0748,-22.7664 46.7857,-39.8137 75.8378,-46.6719 9.5949,-2.265 19.5463,-3.4901 29.5489,-3.6914 z"
       id="path4370-9-3-9-2-1-7-6"
       inkscape:connector-curvature="0" />
    <path
       style="fill:none;fill-rule:evenodd;stroke:#000000;stroke-width:60;stroke-linecap:round;stroke-linejoin:round;stroke-miterlimit:4;stroke-dasharray:none;stroke-opacity:1"
       d="m -6387.6311,979.58164 c -15.5822,-37.42855 -20.8442,-79.09325 -15.0569,-119.22066 5.7874,-40.1274 22.6082,-78.60721 48.1316,-110.10733 25.5234,-31.50011 59.6793,-55.93394 97.7347,-69.91572 38.0554,-13.98177 79.9057,-17.47306 119.7517,-9.99007 49.1871,9.2372 95.0643,35.36047 127.9985,73.04373 32.9342,37.68326 52.689,86.69631 54.9451,136.69233 2.2561,49.99602 -13.0288,100.6353 -42.6874,140.94738 -29.6585,40.3121 -73.5031,69.9956 -121.9835,82.4189 -42.7104,10.9447 -88.5386,8.5708 -130.3526,-5.4132 -41.814,-13.984 -79.5637,-39.3869 -109.3206,-71.9214 -59.5138,-65.0689 -85.2394,-157.00082 -78.6786,-244.93722 6.3489,-85.09582 41.8767,-167.92676 100.0076,-230.39596 58.1309,-62.46921 138.6026,-103.96928 223.347,-113.96886 95.5552,-11.27522 195.2461,18.20803 269.2972,79.64377 74.0512,61.43574 121.4328,153.96958 127.9931,249.96379 l 2.6987,340.35698 0.6003,-284.18448 c 0.096,-45.5209 0.5747,-91.28739 8.5115,-136.11113 7.9369,-44.82373 23.4153,-88.62919 48.3718,-126.69929 24.9566,-38.07011 59.3041,-70.08616 99.5612,-91.33535 40.257,-21.24919 86.175,-31.63185 131.6599,-29.81834 46.9816,1.87319 93.2955,16.71806 132.9676,41.95502 39.672,25.23696 72.5404,60.70905 96.0984,101.40056 23.558,40.6915 37.7945,86.35255 45.0889,132.80219 7.2944,46.44965 7.7182,93.66978 7.8293,140.68855 l 0.6004,254.03317 0.6987,-340.20568 c 9.0615,-94.95311 57.6496,-185.51649 131.7529,-245.57402 74.1033,-60.05752 172.7664,-88.83492 267.5373,-78.03353 84.9694,9.68427 165.9143,50.74459 224.3206,113.21289 58.4062,62.46829 93.9005,145.78671 99.0342,231.15193 5.184,86.20209 -21.7811,175.91174 -81.6474,238.15081 -29.9332,31.1195 -67.6213,54.9619 -108.9854,67.3488 -41.364,12.3868 -86.3449,13.125 -127.7191,0.7722 -45.2493,-13.5098 -85.6217,-42.7088 -112.768,-81.3493 -27.1463,-38.64062 -40.9205,-86.45912 -38.6688,-133.62845 2.2517,-47.16933 20.4844,-93.40583 50.896,-129.53269 30.4117,-36.12686 72.8038,-61.95586 118.8135,-72.59182 40.1603,-9.28376 82.9142,-7.05538 121.8917,6.35314 38.9776,13.40851 74.0542,37.95432 100.0036,69.98025 25.9495,32.02594 42.689,71.42967 47.7243,112.34032 5.0354,40.91065 -1.6494,83.19749 -19.0584,120.56008"
       id="path4370-9-3-9-2-1-6"
       inkscape:path-effect="#path-effect4372-5-9-5-9-80-7"
       inkscape:original-d="m -6387.6311,979.58164 c 0,0 124.6033,-350.89122 250.5611,-309.23378 137.1878,45.37148 150.7512,375.40924 18.2727,433.10234 -138.4411,60.2897 -316.439,-171.28467 -318.3518,-322.27182 -1.9947,-157.44823 166.1977,-334.58498 323.3546,-344.36482 171.7404,-10.68737 397.2903,329.60756 397.2903,329.60756 l 2.6987,340.35698 0.6003,-284.18448 c 5.2498,-314.12084 128.141,-387.88086 288.1044,-383.96411 167.7048,4.1063 276.7345,102.72547 281.9842,416.84632 l 0.6004,254.03317 0.6987,-340.20568 c 0,0 228.3649,-335.22853 399.2902,-323.60755 157.0982,10.6809 327.3426,186.57527 323.3548,344.36482 -3.7303,147.59842 -184.5675,367.23681 -318.3519,306.27181 -126.1032,-57.4646 -113.1677,-373.35939 18.2727,-417.10226 125.5557,-41.78454 250.5612,309.23379 250.5612,309.23379"
       inkscape:connector-curvature="0"
       sodipodi:nodetypes="caaaacccacccaaaac" />
    <path
       style="color:#000000;font-style:normal;font-variant:normal;font-weight:normal;font-stretch:normal;font-size:medium;line-height:normal;font-family:sans-serif;text-indent:0;text-align:start;text-decoration:none;text-decoration-line:none;text-decoration-style:solid;text-decoration-color:#000000;letter-spacing:normal;word-spacing:normal;text-transform:none;direction:ltr;block-progression:tb;writing-mode:lr-tb;baseline-shift:baseline;text-anchor:start;white-space:normal;clip-rule:nonzero;display:inline;overflow:visible;visibility:visible;opacity:1;isolation:auto;mix-blend-mode:normal;color-interpolation:sRGB;color-interpolation-filters:linearRGB;solid-color:#000000;solid-opacity:1;fill:#000000;fill-opacity:1;fill-rule:evenodd;stroke:none;stroke-width:60;stroke-linecap:round;stroke-linejoin:round;stroke-miterlimit:4;stroke-dasharray:none;stroke-dashoffset:0;stroke-opacity:1;color-rendering:auto;image-rendering:auto;shape-rendering:auto;text-rendering:auto;enable-background:accumulate"
       d="m -10447.943,2330.457 c -13.047,0.1759 -26.101,1.0225 -39.102,2.5567 -92.142,10.8726 -178.772,55.5978 -241.795,123.3242 -62.986,67.6883 -101.101,156.6654 -107.961,248.6016 -7.109,95.286 20.354,195.1401 86.459,267.416 33.036,36.1195 74.914,64.3974 121.942,80.125 47.098,15.7512 98.596,18.5082 147.316,6.0234 55.398,-14.1962 104.843,-47.6831 138.699,-93.7012 33.851,-46.0089 51.067,-103.0749 48.494,-160.0781 -2.571,-56.9925 -24.821,-112.1693 -62.326,-155.082 a 30.003,30.003 0 0 0 0,-0 c -37.498,-42.9043 -89.105,-72.2788 -145.051,-82.7851 -45.254,-8.4988 -92.413,-4.5651 -135.634,11.3144 -43.221,15.8797 -81.71,43.4134 -110.698,79.1895 -11.028,13.6103 -20.583,28.3278 -28.578,43.8379 7.457,-75.3889 39.855,-148.7402 91.264,-203.9864 53.239,-57.2119 127.554,-95.4846 204.9,-104.6113 87.099,-10.2776 179.128,16.9401 246.627,72.9395 l 0,-0 c 67.339,55.8669 111.015,141.0199 117.158,228.3027 l 2.69,339.168 a 30.003,30.003 0 0 0 59.998,-0.1738 l 0,-0.3008 0.602,-283.8809 0,-0 c 0.1,-45.355 0.69,-89.3704 8.05,-130.9433 7.355,-41.534 21.633,-81.4801 43.922,-115.4824 22.2661,-33.965 52.9894,-62.5215 88.4748,-81.252 35.4964,-18.7363 76.3337,-27.9729 116.461,-26.373 41.4614,1.6531 82.8147,14.8698 118.0605,37.291 35.262,22.4316 64.9548,54.3564 86.2383,91.1191 21.3081,36.8053 34.5803,78.9093 41.414,122.4258 6.8387,43.5472 7.3561,89.2195 7.4668,136.1055 l 0.5996,253.9004 0,0.1328 a 30.003,30.003 0 0 0 60,-0.01 l 0,-0.1328 0.6954,-338.3613 c 8.5379,-86.2675 53.302,-169.4593 120.6464,-224.0391 67.6258,-54.8077 158.7633,-81.3904 245.25,-71.5332 77.6199,8.8466 152.3632,46.7363 205.8047,103.8945 48.5487,51.9252 80.0085,120.2284 88.918,190.9532 -6.7174,-11.7816 -14.2754,-23.0967 -22.8457,-33.6739 -29.5541,-36.4745 -69.1609,-64.1917 -113.5527,-79.4629 -44.3918,-15.271 -92.6693,-17.7863 -138.4082,-7.2129 -52.4541,12.1258 -100.2876,41.2548 -135.0079,82.5 -34.7285,41.2552 -55.3351,93.4809 -57.9101,147.4219 -2.5756,53.9544 12.9912,108.0438 44.0859,152.3047 a 30.003,30.003 0 0 0 0,0 c 31.1025,44.2719 76.816,77.3493 128.7324,92.8496 47.3995,14.1517 98.1323,13.2283 144.9082,-0.7793 46.7015,-13.9851 88.6523,-40.6217 122,-75.291 11.7012,-12.165 22.1693,-25.242 31.5606,-38.9746 a 30.003,30.003 0 0 0 6.1406,-8.8984 c 0.243,-0.5217 0.4325,-1.0648 0.6719,-1.5879 39.2545,-62.6441 55.997,-138.164 51.5996,-211.2871 -5.5609,-92.4686 -43.7128,-182.08 -107.0664,-249.8399 -63.3711,-67.7784 -150.519,-112.0093 -242.8379,-122.5312 -103.0551,-11.7456 -209.2434,19.2259 -289.8243,84.5332 -46.6298,37.7915 -83.7036,86.3913 -108.6464,140.6113 -8.187,-25.5451 -18.8037,-50.4712 -32.4707,-74.0781 -25.8326,-44.6203 -61.877,-83.6413 -105.959,-111.6836 -44.0985,-28.0527 -95.3732,-44.5239 -147.875,-46.6172 -50.8424,-2.0271 -101.8416,9.5016 -146.8594,33.2637 -45.0288,23.7678 -82.998,59.2427 -110.646,101.4179 -17.562,26.7894 -30.666,55.8214 -40.096,85.7735 -24.059,-52.0714 -59.424,-98.8955 -103.834,-135.7403 -70.529,-58.5132 -161.538,-90.1351 -252.867,-88.9043 z m -103.725,292.0821 c 13.202,-0.2258 26.412,0.8599 39.326,3.2851 42.429,7.9681 82.576,30.8407 110.947,63.3028 28.364,32.4537 45.625,75.3018 47.565,118.3007 1.94,42.9889 -11.415,87.2012 -36.883,121.8164 a 30.003,30.003 0 0 0 0,0 c -25.46,34.6061 -63.704,60.4842 -105.266,71.1348 -36.7,9.4048 -76.861,7.4138 -113.39,-4.8028 -36.601,-12.2405 -70.221,-34.7673 -96.699,-63.7168 -7.69,-8.4071 -14.692,-17.4233 -21.157,-26.8437 a 30.003,30.003 0 0 0 -2.445,-10.9746 c -13.467,-32.3475 -18.062,-68.7261 -13.06,-103.4063 l 0,-0 c 5.002,-34.6807 19.689,-68.2785 41.748,-95.502 22.058,-27.2241 51.882,-48.5586 84.771,-60.6426 20.557,-7.5525 42.539,-11.5749 64.543,-11.9511 z m 1509.127,7.0937 c 22.3002,-0.3684 44.7105,3.0943 65.6875,10.3106 33.5633,11.546 64.1082,32.9207 86.4531,60.498 22.3449,27.5772 36.922,61.8914 41.2578,97.1191 4.1282,33.5401 -1.0544,68.4796 -14.4883,99.5215 -8.3913,13.0122 -17.8723,25.2286 -28.5449,36.3242 -26.5187,27.5697 -59.9439,48.6178 -95.9707,59.4063 -35.9521,10.7662 -75.1823,11.3195 -110.5312,0.7656 -38.5822,-11.5192 -73.6127,-36.8385 -96.8028,-69.8476 -23.1979,-33.0204 -35.1778,-74.5687 -33.25,-114.9532 1.9285,-40.3975 17.7863,-80.6439 43.8809,-111.6425 26.1029,-31.0084 63.0538,-53.5374 102.6191,-62.6836 12.9682,-2.9979 26.3094,-4.5973 39.6895,-4.8184 z"
       id="path4370-9-3-9-2-1-6-6"
       inkscape:connector-curvature="0" />
    <path
       style="color:#000000;font-style:normal;font-variant:normal;font-weight:normal;font-stretch:normal;font-size:medium;line-height:normal;font-family:sans-serif;text-indent:0;text-align:start;text-decoration:none;text-decoration-line:none;text-decoration-style:solid;text-decoration-color:#000000;letter-spacing:normal;word-spacing:normal;text-transform:none;direction:ltr;block-progression:tb;writing-mode:lr-tb;baseline-shift:baseline;text-anchor:start;white-space:normal;clip-rule:nonzero;display:inline;overflow:visible;visibility:visible;opacity:1;isolation:auto;mix-blend-mode:normal;color-interpolation:sRGB;color-interpolation-filters:linearRGB;solid-color:#000000;solid-opacity:1;fill:#000000;fill-opacity:1;fill-rule:evenodd;stroke:none;stroke-width:200;stroke-linecap:round;stroke-linejoin:round;stroke-miterlimit:4;stroke-dasharray:none;stroke-dashoffset:0;stroke-opacity:1;color-rendering:auto;image-rendering:auto;shape-rendering:auto;text-rendering:auto;enable-background:accumulate"
       d="m 3985.3535,-624.82227 c -21.5795,0.21997 -43.215,1.68561 -64.7969,4.4336 -140.3703,17.87319 -269.5292,88.3249 -361.9296,193.99414 -92.248,105.49498 -143.9657,241.16474 -148.0958,380.099608 -2.8187,94.823503 17.1018,192.444872 63.6231,278.195312 3.0897,8.19843 6.4359,16.31645 10.0879,24.32031 a 100.01,100.01 0 0 0 31.4609,39.64649 c 10.0912,13.07971 20.8748,25.76712 32.5235,37.90625 49.8686,51.96842 112.4309,92.4263 183.5058,114.32812 71.3416,21.98402 148.7439,24.34064 222.6875,2.96485 81.6959,-23.61682 152.6302,-74.41657 201.5254,-143.60938 48.8622,-69.14597 72.8703,-152.57884 68.7481,-236.830077 -4.1194,-84.195518 -36.0666,-164.458399 -90.3477,-228.537113 -54.2461,-64.03752 -127.8347,-108.4635 -209.3496,-127.05273 -70.769,-16.13865 -144.6564,-12.16863 -213.2891,11.45898 -9.2936,3.19945 -18.4098,6.80539 -27.3945,10.67969 7.7692,-11.096 16.0247,-21.799 24.873,-31.91797 59.978,-68.5909 147.3712,-115.88247 236.6329,-127.24804 108.5616,-13.82302 227.9183,26.92013 305.3671,104.24023 63.8925,63.78631 102.8441,156.13227 106.8965,247.470703 -0.5149,15.472476 -0.8845,30.702011 -1.0136,45.652344 -0.3554,4.028024 -0.6301,8.068727 -1.1329,12.070312 a 100.01,100.01 0 0 0 -0.7812,12.70703162 l 0.9141,380.22655938 a 100.01,100.01 0 0 0 200,-0.0273 l 0,-0.45313 0.7851,-369.144527 c 0.019,-8.9389265 0.1299,-17.560251 0.2031,-26.294922 1.4062,-18.829744 1.7402,-37.644631 1.2481,-56.408203 1.2261,-29.683138 3.4704,-58.017298 7.832,-84.636718 8.2336,-50.2503 24.1028,-97.27069 47.8653,-136.28516 23.6652,-38.85491 56.6519,-71.88087 94.0058,-93.55273 37.2939,-21.63707 81.3273,-33.22537 123.5586,-32.41992 42.2885,0.80653 86.0107,14.0777 122.8535,37.15234 36.9261,23.12682 69.1928,57.35621 92.2949,97.21094 23.1947,40.0142 38.5041,87.68632 46.4473,138.51367 4.1552,26.58878 6.3192,54.753122 7.5059,84.193359 -0.5518,19.245632 -0.213,38.550155 1.2324,57.8671879 0.07,8.7112254 0.174,17.3119071 0.1934,26.2167971 l 0.7851,361.597656 a 100.01,100.01 0 0 0 199.9981,0.0273 l 0.914,-372.226559 a 100.01,100.01 0 0 0 -0.7793,-12.7109372 c -0.4995,-3.9759614 -0.7729,-7.9920613 -1.1269,-11.9941408 -0.1272,-15.284456 -0.4826,-30.841789 -0.9961,-46.650391 4.2731,-91.037862 43.1934,-182.976902 106.8711,-246.548832 77.4488,-77.32009 196.8055,-118.06325 305.3672,-104.24023 89.2616,11.36557 176.6569,58.6572 236.6347,127.24805 8.8488,10.11946 17.1036,20.82333 24.8731,31.91992 -8.9855,-3.87469 -18.1001,-7.48192 -27.3946,-10.68164 -68.6326,-23.62761 -142.52,-27.59763 -213.289,-11.45899 -81.515,18.58924 -155.1035,63.01531 -209.3496,127.05274 -54.281,64.078681 -86.2303,144.3396357 -90.3496,228.535154 -4.1223,84.251246 19.8858,167.684116 68.748,236.830076 48.8953,69.19281 119.8314,119.99256 201.5273,143.60938 73.9437,21.3758 151.344,19.01922 222.6856,-2.96485 71.0749,-21.90182 133.6372,-62.35758 183.5059,-114.32617 11.7127,-12.20595 22.5571,-24.96455 32.6953,-38.12109 a 100.01,100.01 0 0 0 31.291,-39.43164 c 3.6508,-8.00144 6.995,-16.11662 10.084,-24.3125 46.5243,-85.75233 66.4439,-183.378608 63.625,-278.205081 -4.1301,-138.934869 -55.8477,-274.602669 -148.0957,-380.097659 -92.4004,-105.66929 -221.5593,-176.12095 -361.9297,-193.99414 -172.6546,-21.98389 -348.7585,38.13115 -471.9317,161.09961 -18.1069,18.07683 -34.6828,37.41932 -50.0156,57.60938 -38.1702,-64.01063 -90.6753,-120.23918 -155.8633,-161.06641 -67.1023,-42.02614 -144.8593,-66.08301 -225.1972,-67.61523 -80.2903,-1.53132 -159.038,19.53115 -227.7403,59.39062 -67.9137,39.40197 -123.1308,95.53331 -163.1133,160.45117 -15.8834,-21.17853 -33.124,-41.43866 -52.0371,-60.32031 -107.7765,-107.59741 -256.08,-167.0749 -407.1367,-165.53516 z m -143.8437,530.265629 c 13.2165,0.181356 26.3635,1.702186 39.0175,4.587891 38.5945,8.801346 75.8299,31.369621 101.211,61.332031 25.3463,29.921218 41.2925,70.186868 43.1933,109.03711 1.8982,38.794509 -10.0874,80.172549 -32.3203,111.634769 -22.1997,31.41537 -57.0831,56.30321 -93.7343,66.89843 -33.543,9.69667 -72.6635,9.00256 -108.2481,-1.96289 -35.8513,-11.04761 -70.4955,-32.91145 -98.0957,-61.67382 -13.431,-13.99662 -25.3123,-29.92366 -35.6113,-47.24805 -7.2755,-25.0847 -9.5437,-52.020232 -6.2657,-77.54883 4.4081,-34.328438 19.1264,-68.6052488 40.9825,-95.441406 21.8562,-26.836261 52.4446,-48.189011 85.1699,-59.455078 20.4533,-7.041305 42.6736,-10.462417 64.7012,-10.160157 z m 1975.9257,11.550782 c 22.0276,-0.30226 44.2479,3.120804 64.7012,10.162109 32.7253,11.266067 63.3137,32.618817 85.1699,59.455078 21.8562,26.836157 36.5744,61.11297 40.9825,95.441406 3.278,25.527826 1.0132,52.460866 -6.2618,77.544926 -10.2996,17.3262 -22.1829,33.25407 -35.6152,47.25195 -27.6,28.76223 -62.2444,50.62424 -98.0957,61.67187 -35.5844,10.96541 -74.7051,11.65955 -108.248,1.9629 -36.6513,-10.59523 -71.5347,-35.48112 -93.7344,-66.89649 -22.2329,-31.46222 -34.2185,-72.84024 -32.3203,-111.634765 1.9008,-38.850243 17.8471,-79.117819 43.1933,-109.039063 25.3813,-29.962508 62.6165,-52.528732 101.211,-61.330078 12.654,-2.885705 25.801,-4.408488 39.0175,-4.589843 z"
       id="path4370-9-3-9-2-6"
       inkscape:connector-curvature="0" />
    <path
       style="color:#000000;font-style:normal;font-variant:normal;font-weight:normal;font-stretch:normal;font-size:medium;line-height:normal;font-family:sans-serif;text-indent:0;text-align:start;text-decoration:none;text-decoration-line:none;text-decoration-style:solid;text-decoration-color:#000000;letter-spacing:normal;word-spacing:normal;text-transform:none;direction:ltr;block-progression:tb;writing-mode:lr-tb;baseline-shift:baseline;text-anchor:start;white-space:normal;clip-rule:nonzero;display:inline;overflow:visible;visibility:visible;opacity:1;isolation:auto;mix-blend-mode:normal;color-interpolation:sRGB;color-interpolation-filters:linearRGB;solid-color:#000000;solid-opacity:1;fill:#000000;fill-opacity:1;fill-rule:evenodd;stroke:none;stroke-width:140;stroke-linecap:round;stroke-linejoin:round;stroke-miterlimit:4;stroke-dasharray:none;stroke-dashoffset:0;stroke-opacity:1;color-rendering:auto;image-rendering:auto;shape-rendering:auto;text-rendering:auto;enable-background:accumulate"
       d="m -1137.0938,-643.43359 c -144.532,-1.68205 -287.2529,55.9192 -389.4296,159.49218 -26.0082,26.36359 -48.8166,55.42582 -68.586,86.32032 -1.2256,-2.69862 -2.3303,-5.41498 -3.6094,-8.10547 -29.4966,-62.04606 -72.6631,-119.42773 -130.2753,-162.60156 -57.8944,-43.38527 -128.7899,-70.80562 -203.9727,-72.48243 -75.2194,-1.67762 -147.4415,22.60009 -207.209,63.8418 -59.4922,41.05181 -104.8408,97.28067 -136.0742,158.95898 -3.2672,6.45199 -6.2769,12.94855 -9.2227,19.45508 -20.7243,-32.27204 -44.8459,-62.48139 -72.3593,-89.73828 -116.3904,-115.30503 -283.6713,-171.66383 -446.1075,-150.29883 -134.366,17.67299 -258.1971,86.83616 -345.5566,189.13868 -87.2262,102.14628 -135.3499,233.44802 -138.0019,366.736323 -2.5378,127.547131 37.5735,260.019167 130.205,356.824217 46.3198,48.40682 104.4158,86.15503 169.9883,106.62305 65.7641,20.52779 137.2888,22.93805 205.1504,3.58594 75.1487,-21.43018 140.8836,-68.30275 185.8945,-131.87891 44.9849,-63.53911 67.2035,-140.76926 63.3653,-218.277344 -3.8362,-77.464063 -33.4865,-151.754556 -83.5059,-210.703126 -49.9918,-58.91612 -118.1745,-100.03048 -193.2617,-117.16797 -60.2549,-13.75223 -123.2855,-11.74291 -182.543,5.81641 -48.1393,14.26476 -92.658,38.6362 -130.7851,71.00781 17.802,-51.90812 44.8228,-100.50616 79.959,-141.65234 64.8435,-75.93519 159.3341,-128.35647 257.3476,-141.24805 117.5799,-15.46512 245.0708,27.48924 329.3203,110.95313 70.4945,69.83706 112.7571,170.20923 116.3145,270.08593 -0.4229,14.35289 -0.7381,28.568447 -0.8711,42.630862 -0.4063,5.192107 -0.7805,10.388249 -1.4102,15.548829 a 70.007,70.007 0 0 0 -0.5156,8.646484 l 0.9141,379.910155 0,0.31641 a 70.007,70.007 0 0 0 140,-0.0195 l 0,-0.31641 0.7851,-369.28125 c 0.021,-9.84358 0.1593,-19.572788 0.2774,-29.322266 1.0388,-14.981545 1.3195,-29.958074 1.0761,-44.914064 3.2196,-88.53696 14.0068,-171.21304 48.4414,-239.21289 21.946,-43.33795 53.2938,-81.17545 90.6875,-106.97851 37.1186,-25.61317 82.1114,-40.05257 124.5762,-39.10547 42.4766,0.94735 86.8545,17.35986 123.1387,44.55078 36.5664,27.40234 66.7579,66.43471 87.791,110.67773 29.9154,62.9272 40.8954,137.12154 44.9238,216.50586 -1.1058,25.16702 -0.3935,50.445531 2.1231,75.667971 0.071,7.891419 0.1878,15.735231 0.2051,23.685547 l 0.7851,361.275392 0,0.32226 a 70.007,70.007 0 0 0 139.9981,0.0195 l 0,-0.32227 0.914,-371.904298 a 70.007,70.007 0 0 0 -0.7226,-10.201171 c -0.4929,-3.404355 -0.7648,-6.844703 -1.1602,-10.265625 -0.1674,-22.628567 -0.6177,-45.599046 -1.5781,-68.917966 6.3441,-94.79447 46.7294,-188.88503 112.8105,-255.86914 84.5774,-85.7332 214.1164,-130.24705 333.5274,-114.60938 97.84452,12.8134 192.20881,64.86677 257.082,140.42774 36.6761,42.71842 64.636,93.5264 82.41992,147.77734 -36.00064,-32.54252 -78.42123,-57.61047 -124.60547,-73.31055 -61.1148,-20.77565 -127.00275,-24.59122 -190.10745,-11.00976 -75.7803,16.30956 -144.734,57.18254 -195.2539,116.22265 -50.5412,59.06503 -80.403,133.754195 -84.1523,211.589847 -3.7509,77.869363 18.8353,155.365313 64.2519,218.960933 a 70.007,70.007 0 0 0 0,0.002 c 45.4368,63.62367 111.6215,110.33136 187.0743,131.51562 67.8095,19.03832 139.18998,16.49578 204.8437,-4.05078 65.46815,-20.48848 123.51368,-58.15826 169.83985,-106.48047 C -629.28247,174.7648 -588.9304,42.381416 -591.55664,-85.212891 -594.29632,-218.31891 -642.7048,-349.29121 -730.02734,-451 c -87.44453,-101.8509 -211.12091,-170.49618 -345.12496,-188.04492 -20.6084,-2.69881 -41.294,-4.14838 -61.9415,-4.38867 z m 141.55864,479.19726 c 24.48632,-0.19948 49.09851,3.65199 72.04102,11.45117 36.708,12.47869 70.64405,35.57274 95.72266,65.140629 25.07859,29.567889 42.32589,66.819875 48.64648,105.072265 6.32059,38.252395 1.97428,79.071115 -12.25977,115.134766 a 70.007,70.007 0 0 0 -1.71289,4.84375 c -9.02786,13.25198 -18.96838,25.71798 -29.90234,37.12305 -30.88978,32.22071 -69.57552,56.91967 -110.5918,69.75586 -40.83068,12.7781 -85.5754,13.99517 -125.1894,2.87304 -43.7493,-12.28312 -84.4666,-40.95967 -110.9844,-78.09179 -26.5378,-37.16018 -40.5518,-85.06499 -38.3457,-130.863285 2.2077,-45.8320065 20.7325,-92.297788 50.6875,-127.304687 29.9763,-35.031808 73.0769,-60.638188 118.3359,-70.378908 14.2137,-3.05909 28.861,-4.63617 43.55274,-4.75586 z m -1887.16014,1.68555 c 14.1422,0.43808 28.215,2.21107 41.8808,5.33008 45.121,10.29815 87.8837,36.15692 117.6661,71.255856 29.7548,35.066466 48.1614,81.3643972 50.4238,127.048828 2.2601,45.640408 -11.5357,93.364296 -37.7969,130.457036 -26.2348,37.05567 -66.6036,65.75943 -110.0273,78.14257 -39.5024,11.26491 -84.2321,10.14448 -125.041,-2.59375 -41.0005,-12.79802 -79.6844,-37.51422 -110.5508,-69.77148 -18.5382,-19.37339 -34.2968,-41.72064 -47.3028,-66.03906 -8.9581,-35.681867 -8.7969,-74.322665 0.5762,-109.8750031 9.5292,-36.1442899 28.8786,-70.4136599 54.9063,-97.2421879 26.0275,-26.828519 59.6942,-47.206299 95.5332,-57.826169 22.3993,-6.63743 46.162,-9.61686 69.7324,-8.88672 z"
       id="path4370-9-3-9-2-16"
       inkscape:connector-curvature="0" />
    <path
       style="fill:none;fill-rule:evenodd;stroke:#000000;stroke-width:70;stroke-linecap:round;stroke-linejoin:round;stroke-miterlimit:4;stroke-dasharray:none;stroke-opacity:1"
       d="m -6678.7809,166.71068 c -11.9806,-47.93976 -11.5271,-98.93122 1.3041,-146.65034 12.8312,-47.719121 38.0121,-92.061614 72.4197,-127.52805 34.4077,-35.46643 77.9669,-61.9793 125.2753,-76.25043 47.3084,-14.27113 98.2628,-16.26933 146.5435,-5.74679 60.6877,13.22657 116.9086,46.4554 157.4376,93.522781 40.529,47.067379 65.0709,107.7431 68.2348,169.77477 3.1638,62.031669 -15.1472,125.022869 -51.4181,175.444669 -36.2709,50.42181 -90.3115,87.87296 -150.3676,103.72227 -53.4353,14.10201 -110.9148,11.17826 -163.3813,-6.18428 -52.4666,-17.36255 -99.8892,-48.88138 -137.8739,-89.02309 -75.9694,-80.28341 -112.3052,-192.617041 -114.9058,-303.115977 -3.3191,-141.026153 47.1696,-283.863343 143.4811,-386.933663 96.3115,-103.07032 238.4204,-163.58862 379.2197,-154.93177 123.2717,7.57919 242.3971,68.09956 321.2108,163.18772 78.8138,95.08817 116.1804,223.3742 100.7558,345.911723 l 0.9133,442.226387 4.7848,-445.597604 c 1.1754,-109.466836 5.1096,-222.742406 53.0165,-321.176646 23.9534,-49.21712 58.5305,-93.73129 102.726,-126.02442 44.1956,-32.29313 98.1416,-51.92775 152.8777,-52.16536 53.7384,-0.23328 106.9308,18.2455 150.7768,49.31651 43.8459,31.07101 78.4195,74.32298 102.3616,122.43379 47.8843,96.22162 51.299,207.69018 51.4817,315.167923 l 0.7848,461.597597 0.9133,-472.2264 c -6.6741,-134.23076 49.4621,-270.27649 148.8521,-360.74232 99.39,-90.46582 240.1016,-133.59299 373.1145,-114.3571 122.545,17.72206 235.9153,86.94375 311.6443,184.90529 75.729,97.96154 114.0157,223.17569 111.0565,346.960133 -2.6393,110.403333 -39.1725,222.568957 -115.1456,302.718487 -37.9866,40.07476 -85.3631,71.54957 -137.7641,88.95963 -52.4009,17.41006 -109.7952,20.4806 -163.2513,6.64528 -60.4074,-15.63445 -114.8964,-52.97283 -151.5601,-103.46313 -36.6636,-50.49029 -55.2939,-113.73534 -52.2008,-176.056472 3.0931,-62.3211323 27.8262,-123.308096 68.7553,-170.406922 40.9291,-47.098826 97.7552,-80.058336 158.8923,-92.537976 50.4077,-10.2895 103.5606,-6.78581 152.1816,10.03139 48.6209,16.8172 92.5795,46.90281 125.8575,86.13786 33.278,39.235047 55.7862,87.5143296 64.4429,138.227986 8.6567,50.713657 3.4388,103.725724 -14.9394,151.778364"
       id="path4370-9-3-9-2-69"
       inkscape:path-effect="#path-effect4372-5-9-5-9-6"
       inkscape:original-d="m -6678.7809,166.71068 c 0,0 190.9133,-414.93007 345.5426,-356.17561 169.1945,64.28878 188.7332,467.72858 23.8867,542.46449 -174.8878,79.28833 -412.3307,-206.33972 -416.161,-398.323347 -5.006,-250.911393 271.9174,-551.313383 522.7008,-541.865433 220.257,8.2979 421.9666,509.099443 421.9666,509.099443 l 0.9133,442.226387 4.7848,-445.597604 c 6.8627,-408.531416 112.9417,-498.831256 308.6202,-499.366426 191.4507,-0.52361 297.7574,78.38681 304.6201,486.918223 l 0.7848,461.597597 0.9133,-472.2264 c 0,0 287.4567,-493.99903 521.9666,-475.09942 225.728,18.19186 438.0614,305.92707 422.7008,531.865423 -13.0247,191.579607 -241.2732,477.611727 -416.161,398.323397 -164.8465,-74.73591 -147.3607,-483.86296 23.8867,-542.4645 159.6998,-54.6499 327.5426,386.1756 327.5426,386.1756"
       inkscape:connector-curvature="0"
       sodipodi:nodetypes="caaaacccacccaaaac" />
    <path
       style="color:#000000;font-style:normal;font-variant:normal;font-weight:normal;font-stretch:normal;font-size:medium;line-height:normal;font-family:sans-serif;text-indent:0;text-align:start;text-decoration:none;text-decoration-line:none;text-decoration-style:solid;text-decoration-color:#000000;letter-spacing:normal;word-spacing:normal;text-transform:none;direction:ltr;block-progression:tb;writing-mode:lr-tb;baseline-shift:baseline;text-anchor:start;white-space:normal;clip-rule:nonzero;display:inline;overflow:visible;visibility:visible;opacity:1;isolation:auto;mix-blend-mode:normal;color-interpolation:sRGB;color-interpolation-filters:linearRGB;solid-color:#000000;solid-opacity:1;fill:#000000;fill-opacity:1;fill-rule:evenodd;stroke:none;stroke-width:70;stroke-linecap:round;stroke-linejoin:round;stroke-miterlimit:4;stroke-dasharray:none;stroke-dashoffset:0;stroke-opacity:1;color-rendering:auto;image-rendering:auto;shape-rendering:auto;text-rendering:auto;enable-background:accumulate"
       d="M -9269.1816 1976.9824 C -9411.6073 1976.7849 -9550.6948 2040.1342 -9647.6055 2143.8457 C -9750.7642 2254.2437 -9804.0306 2405.5714 -9800.502 2555.5 C -9798.8595 2625.2888 -9784.5642 2696.102 -9755.8926 2760.5957 C -9754.9094 2765.4762 -9753.9448 2770.3616 -9752.7363 2775.1973 A 35.0035 35.0035 0 0 0 -9738.2461 2796.1504 C -9721.2366 2826.9298 -9700.6438 2855.8354 -9676.0293 2881.8477 C -9634.3354 2925.9092 -9582.2172 2960.6876 -9523.7285 2980.043 C -9465.1361 2999.4328 -9400.9969 3002.8285 -9340.4199 2986.8418 C -9272.2196 2968.8432 -9211.6692 2926.8456 -9170.5723 2869.7148 C -9129.4929 2812.6085 -9109.0361 2742.1472 -9112.6113 2672.0508 C -9116.1851 2601.9831 -9143.6041 2534.2645 -9189.2793 2481.2207 C -9234.9365 2428.1978 -9297.575 2391.204 -9365.7852 2376.3379 C -9419.9727 2364.528 -9476.7943 2366.7563 -9529.8906 2382.7734 C -9582.987 2398.7905 -9631.5605 2428.3566 -9670.1777 2468.1621 C -9694.8836 2493.6283 -9715.2151 2523.0699 -9730.4727 2554.9805 C -9730.4827 2554.6048 -9730.5125 2554.2292 -9730.5215 2553.8535 C -9733.6311 2421.7297 -9685.9233 2287.3813 -9596.459 2191.6387 C -9507.2073 2096.1236 -9374.346 2039.789 -9244.959 2047.7441 C -9131.6996 2054.7077 -9020.9611 2110.969 -8948.5488 2198.334 C -8876.1364 2285.699 -8841.3985 2404.9543 -8855.5703 2517.5391 A 35.0035 35.0035 0 0 0 -8855.8457 2521.9824 L -8854.9316 2964.209 A 35.0035 35.0035 0 0 0 -8784.9336 2964.5117 L -8780.1484 2518.9141 C -8778.9793 2410.0265 -8774.2733 2302.2916 -8730.6602 2212.6797 C -8708.8727 2167.9128 -8677.6019 2127.982 -8638.7559 2099.5977 C -8600.0581 2071.3217 -8552.8412 2054.3736 -8506.375 2054.1719 C -8460.7602 2053.9738 -8414.2782 2069.9098 -8375.9863 2097.0449 C -8337.5606 2124.275 -8306.4048 2162.9462 -8284.7227 2206.5156 C -8241.3462 2293.679 -8237.0879 2399.3729 -8236.9062 2506.1504 L -8236.1211 2967.6211 L -8236.1211 2967.748 A 35.0035 35.0035 0 0 0 -8166.1211 2967.7578 L -8166.1211 2967.6309 L -8165.209 2495.5312 A 35.0035 35.0035 0 0 0 -8165.252 2493.7266 C -8171.3844 2370.3894 -8119.1208 2243.7295 -8027.7969 2160.6055 C -7936.4729 2077.4815 -7805.4701 2037.3291 -7683.252 2055.0039 C -7570.4579 2071.3158 -7464.5598 2135.7749 -7394.2891 2226.6758 C -7323.8953 2317.7358 -7287.7579 2435.3828 -7290.5312 2551.3926 C -7290.6547 2556.5563 -7290.9174 2561.7202 -7291.2012 2566.8828 C -7304.0205 2536.0636 -7321.414 2507.1682 -7343.084 2481.6191 C -7380.4877 2437.5198 -7429.5445 2403.9452 -7484.1934 2385.043 C -7538.8423 2366.1408 -7598.1592 2362.2317 -7654.8164 2373.7969 C -7723.6214 2387.8417 -7786.9797 2424.5662 -7833.127 2477.6699 C -7879.2891 2530.7906 -7906.925 2598.8807 -7910.4199 2669.2988 C -7913.9161 2739.7404 -7893.1004 2810.483 -7851.584 2867.6562 C -7810.0531 2924.8492 -7749.0235 2966.6955 -7680.4727 2984.4375 C -7619.9175 3000.1102 -7555.9054 2996.556 -7497.416 2977.123 C -7439.0272 2957.7236 -7386.9728 2923.0066 -7345.2852 2879.0273 C -7329.0818 2861.9332 -7314.6203 2843.5773 -7301.7344 2824.2812 A 35.0035 35.0035 0 0 0 -7287.582 2806.7676 C -7285.8943 2802.3548 -7284.4639 2797.8585 -7282.9746 2793.3809 C -7242.3585 2720.0745 -7222.5302 2635.8669 -7220.5508 2553.0664 C -7217.4057 2421.5073 -7257.842 2288.7264 -7338.9062 2183.8633 C -7420.0935 2078.8411 -7540.9365 2004.8568 -7673.2324 1985.7246 C -7817.0401 1964.9276 -7967.46 2011.0303 -8074.916 2108.8379 C -8123.1713 2152.7604 -8161.7584 2206.3313 -8189.0859 2265.1211 C -8196.9608 2234.5771 -8207.5455 2204.4876 -8222.0547 2175.332 C -8248.2568 2122.6798 -8286.2476 2074.8456 -8335.5137 2039.9336 C -8384.9138 2004.9267 -8444.8177 1983.9072 -8506.6797 1984.1758 C -8569.6857 1984.4493 -8630.3593 2006.7697 -8680.0527 2043.0801 C -8729.5977 2079.282 -8767.4822 2128.3813 -8793.6016 2182.0488 C -8807.0451 2209.6711 -8817.1913 2238.0668 -8824.9336 2266.875 C -8842.883 2226.2826 -8866.1796 2188.0205 -8894.6543 2153.666 C -8979.8694 2050.8545 -9107.38 1986.0737 -9240.6641 1977.8789 C -9250.1773 1977.294 -9259.6866 1976.9975 -9269.1816 1976.9844 L -9269.1816 1976.9824 z M -7590.3242 2437.3242 C -7562.0334 2437.3242 -7533.6949 2441.9877 -7507.0742 2451.1953 C -7464.4813 2465.9275 -7425.621 2492.5238 -7396.4688 2526.8945 C -7367.3165 2561.2653 -7347.4174 2603.9469 -7339.834 2648.373 C -7333.2886 2686.7182 -7335.8766 2726.8655 -7347.0469 2764.209 C -7360.8455 2788.3614 -7377.1128 2810.8509 -7396.0879 2830.8691 C -7430.3735 2867.0395 -7473.0732 2895.2708 -7519.4863 2910.6914 C -7565.7988 2926.0786 -7616.5766 2928.6659 -7662.9336 2916.668 C -7715.1976 2903.1412 -7763.1449 2870.3111 -7794.9414 2826.5234 C -7826.7521 2782.7161 -7843.1959 2726.9682 -7840.5059 2672.7676 C -7837.8146 2618.5435 -7815.9851 2564.6589 -7780.2891 2523.582 C -7744.5781 2482.4879 -7694.2856 2453.2933 -7640.8164 2442.3789 C -7624.2571 2438.9987 -7607.2987 2437.3232 -7590.3242 2437.3242 z M -9434.2773 2438.9043 C -9432.5764 2438.9108 -9430.876 2438.9329 -9429.1758 2438.9727 C -9412.8535 2439.3541 -9396.5816 2441.2692 -9380.6914 2444.7324 C -9327.5262 2456.3195 -9277.7231 2485.7846 -9242.3223 2526.8965 C -9206.9395 2567.9875 -9185.2736 2621.6195 -9182.5195 2675.6152 C -9179.767 2729.582 -9195.9341 2785.1006 -9227.3965 2828.8379 C -9258.8413 2872.5508 -9306.3713 2905.4582 -9358.2832 2919.1582 C -9404.5769 2931.3755 -9455.3955 2928.9233 -9501.7363 2913.5879 C -9548.1806 2898.2183 -9590.9081 2869.9582 -9625.1836 2833.7363 C -9651.3239 2806.1116 -9672.4522 2773.8916 -9688.7676 2738.8926 C -9694.8828 2702.5335 -9693.2325 2664.6825 -9683.6777 2629.1484 C -9672.4164 2587.2674 -9650.1336 2548.0298 -9619.9355 2516.9023 C -9589.7374 2485.775 -9551.1943 2462.3161 -9509.6738 2449.791 C -9485.3454 2442.4521 -9459.7917 2438.8074 -9434.2773 2438.9043 z "
       transform="translate(0,-1000)"
       id="path4370-9-3-9-2-69-8" />
  </g>
</svg>
