<?xml version="1.0" encoding="UTF-8" standalone="no"?>
<!-- Created with Inkscape (http://www.inkscape.org/) -->

<svg
   xmlns:dc="http://purl.org/dc/elements/1.1/"
   xmlns:cc="http://creativecommons.org/ns#"
   xmlns:rdf="http://www.w3.org/1999/02/22-rdf-syntax-ns#"
   xmlns:svg="http://www.w3.org/2000/svg"
   xmlns="http://www.w3.org/2000/svg"
   xmlns:sodipodi="http://sodipodi.sourceforge.net/DTD/sodipodi-0.dtd"
   xmlns:inkscape="http://www.inkscape.org/namespaces/inkscape"
   width="2000"
   height="2048"
   id="svg2992"
   version="1.1"
   inkscape:version="0.91 r13725"
   sodipodi:docname="ത്തൃ.svg">
  <defs
     id="defs5498">
    <inkscape:path-effect
       effect="spiro"
       id="path-effect3891"
       is_visible="true" />
    <inkscape:path-effect
       is_visible="true"
       id="path-effect4141-3-4-6-8-9-5-4-1"
       effect="spiro" />
    <inkscape:path-effect
       is_visible="true"
       id="path-effect4141-3-4-6-8-9-5-4-1-3"
       effect="spiro" />
    <inkscape:path-effect
       effect="spiro"
       id="path-effect4141-3-4-6-8-9-5-5-5"
       is_visible="true" />
    <inkscape:path-effect
       effect="spiro"
       id="path-effect4141-3-4-6-8-9-5-5-5-5"
       is_visible="true" />
    <inkscape:path-effect
       effect="spiro"
       id="path-effect4141-3-4-6-8-9-5-5-5-6"
       is_visible="true" />
    <inkscape:path-effect
       effect="spiro"
       id="path-effect4183-2-9"
       is_visible="true" />
    <inkscape:path-effect
       effect="spiro"
       id="path-effect4187-0-7"
       is_visible="true" />
    <inkscape:path-effect
       effect="spiro"
       id="path-effect4187-0-7-5"
       is_visible="true" />
    <inkscape:path-effect
       effect="spiro"
       id="path-effect4183-2-9-5"
       is_visible="true" />
    <inkscape:path-effect
       effect="spiro"
       id="path-effect4183-2-9-59"
       is_visible="true" />
    <inkscape:path-effect
       effect="spiro"
       id="path-effect4187-0-7-2"
       is_visible="true" />
    <inkscape:path-effect
       effect="spiro"
       id="path-effect4183-2-9-3"
       is_visible="true" />
    <inkscape:path-effect
       effect="spiro"
       id="path-effect4187-0-7-6"
       is_visible="true" />
  </defs>
  <sodipodi:namedview
     inkscape:window-height="845"
     inkscape:window-width="1600"
     inkscape:pageshadow="2"
     inkscape:pageopacity="0.0"
     borderopacity="1.0"
     bordercolor="#666666"
     pagecolor="#ffffff"
     id="base"
     showgrid="true"
     showguides="true"
     inkscape:guide-bbox="true"
     inkscape:zoom="0.32102648"
     inkscape:cx="8202.9031"
     inkscape:cy="955.93064"
     inkscape:window-x="1600"
     inkscape:window-y="26"
     inkscape:current-layer="layer1"
     inkscape:window-maximized="1">
    <inkscape:grid
       type="xygrid"
       id="grid3769"
       empspacing="3"
       visible="true"
       enabled="true"
       snapvisiblegridlinesonly="true"
       spacingx="4px"
       units="px"
       dotted="true"
       spacingy="4px" />
    <sodipodi:guide
       orientation="0,1"
       position="-1040,1600"
       id="guide2985" />
    <sodipodi:guide
       orientation="0,1"
       position="4512,600"
       id="guide3939"
       inkscape:label=""
       inkscape:color="rgb(0,0,255)" />
    <sodipodi:guide
       position="5472,1710"
       orientation="0,1"
       id="guide4174"
       inkscape:label=""
       inkscape:color="rgb(0,0,255)" />
    <sodipodi:guide
       position="8400,1624"
       orientation="0,1"
       id="guide4178"
       inkscape:label=""
       inkscape:color="rgb(0,0,255)" />
  </sodipodi:namedview>
  <metadata
     id="metadata5594">
    <rdf:RDF>
      <cc:Work
         rdf:about="">
        <dc:format>image/svg+xml</dc:format>
        <dc:type
           rdf:resource="http://purl.org/dc/dcmitype/StillImage" />
        <dc:title />
      </cc:Work>
    </rdf:RDF>
  </metadata>
  <g
     inkscape:label="Layer 1"
     inkscape:groupmode="layer"
     id="layer1"
     transform="translate(0,1048)">
    <path
       style="fill:none;fill-rule:evenodd;stroke:#000000;stroke-width:133.17449951;stroke-linecap:round;stroke-linejoin:round;stroke-miterlimit:4;stroke-dasharray:none;stroke-opacity:1"
       d="m -4508.9056,768.1565 c -107.2802,-48.95157 -212.9207,-101.49658 -316.6848,-157.5173 -40.0911,-21.64458 -80.0169,-43.8628 -122.2355,-60.99089 -42.2186,-17.12808 -87.0841,-29.12827 -132.6443,-29.34518 -45.5603,-0.21691 -91.9837,12.00424 -128.339,39.46456 -18.1777,13.73017 -33.6573,31.14458 -44.5073,51.17512 -10.85,20.03053 -17.002,42.68564 -17.0296,65.46599 -0.03,24.84516 7.2199,49.48256 19.5245,71.0668 12.3046,21.58425 29.5551,40.16687 49.3524,55.17855 39.5945,30.02337 88.4024,45.46343 137.2239,54.71505 187.5238,35.53554 382.0731,-13.73416 555.8768,-92.6026 165.5808,-75.13707 320.8288,-179.18754 435.5785,-320.23752 114.7497,-141.04998 186.4471,-321.51318 176.729,-503.084499 -6.137,-114.662321 -45.3372,-228.564651 -117.6325,-317.775131 -72.2952,-89.21047 -178.4864,-152.12731 -292.6125,-164.79014 -130.4124,-14.46988 -264.3898,38.0027 -357.996,129.95187 -93.6062,91.94916 -147.7533,220.35395 -159.2382,351.063041 -8.1483,92.736027 5.1978,189.752459 53.4393,269.371079 24.1208,39.8093 56.779,74.7007 96.1259,99.56849 39.347,24.86779 85.4482,39.48039 131.9945,39.65384 47.322,0.17634 94.2891,-14.58551 134.2306,-39.9643 39.9414,-25.37878 72.9228,-61.12653 96.9688,-101.8843 48.0918,-81.51554 59.6679,-180.656996 48.6778,-274.661409 -16.2834,-139.281451 -82.127,-273.864031 -188.4407,-365.307321 -106.3136,-91.44329 -253.3279,-136.64326 -391.3301,-111.74593 -111.5468,20.12445 -214.2965,88.05759 -272.8964,185.08204 -29.2999,48.51222 -47.8193,103.1078 -57.5088,158.94718 -9.6894,55.83939 -10.5825,112.7834 -10.9659,169.455921 l -2.5683,379.600519 2.4985,-381.908519 c 0.377,-57.621989 0.1803,-115.566191 -9.5729,-172.358021 -9.7532,-56.79183 -29.1054,-112.24162 -59.8452,-160.98075 -30.7398,-48.73912 -72.6204,-90.38805 -121.5073,-120.89223 -48.8869,-30.50418 -104.4497,-49.88565 -161.4683,-58.21137 -135.6422,-19.80616 -278.0146,24.61771 -382.6808,113.13937 -104.6662,88.52167 -171.4473,218.76152 -188.9209,354.723911 -12.2787,95.540868 -0.1186,196.635989 49.3141,279.311489 24.7163,41.33775 58.5316,77.48211 99.3102,103.11044 40.7787,25.62833 88.5746,40.50417 136.7379,40.43808 48.2959,-0.0663 96.1814,-15.15815 136.9542,-41.04384 40.7729,-25.88568 74.4873,-62.32648 98.9927,-103.94358 49.0107,-83.23421 60.3052,-184.792579 46.85,-280.442689 -19.8767,-141.298591 -93.6488,-275.391921 -206.1002,-363.227221 -112.4515,-87.8353 -263.0161,-126.97016 -402.9956,-99.29151 -96.4121,19.06391 -186.4718,69.01095 -253.6977,140.7006 -67.226,71.68965 -111.2882,164.77009 -124.1233,262.20721 -12.835,97.437126 5.6202,198.752754 51.9883,285.40572 46.368,86.65296 120.4213,158.21799 208.6079,201.59841"
       id="path4139-1-0-4-2-2-4-3-2-2"
       inkscape:path-effect="#path-effect4141-3-4-6-8-9-5-5-5-6"
       inkscape:original-d="m -4508.9056,768.1565 c -100.6832,-56.8583 -168.2823,-120.5035 -316.6848,-157.5173 -198.6084,-49.5359 -402.3526,-77.9705 -444.7557,65.7696 -25.8677,87.6876 118.1807,155.8943 206.1008,180.9604 180.6474,51.5027 395.5577,5.2943 555.8768,-92.6026 291.8982,-178.2441 623.4403,-481.48643 612.3075,-823.322019 -6.8723,-211.014781 -199.4801,-470.211561 -410.245,-482.565271 -235.041,-13.77663 -491.587,246.97158 -517.2342,481.014911 -18.0176,164.419089 116.1592,409.562089 281.5597,408.593409 167.2666,-0.97961 304.0986,-251.003499 279.8772,-416.510009 -36.2404,-247.631811 -332.2292,-513.904921 -579.7708,-477.053251 -203.2945,30.26459 -339.8131,283.2107 -341.3711,513.485141 l -2.5683,379.600519 2.4985,-381.908519 c 1.7537,-268.058731 -147.1527,-483.261631 -352.3937,-512.442371 -243.7698,-34.65864 -535.8748,224.2477 -571.6017,467.863281 -24.6739,168.24684 115.3168,423.453209 285.3622,422.860009 170.2813,-0.59402 311.1587,-257.526249 282.7969,-425.430109 -42.4611,-251.372871 -373.8107,-560.662121 -609.0958,-462.518731 -276.1395,115.18482 -502.7326,591.922591 -117.2248,889.91194"
       inkscape:connector-curvature="0"
       sodipodi:nodetypes="csaaaaaaaaascsaaaaac" />
    <path
       style="fill:none;fill-rule:evenodd;stroke:#000000;stroke-width:140;stroke-linecap:round;stroke-linejoin:round;stroke-miterlimit:4;stroke-dasharray:none;stroke-opacity:1"
       d="m 1568.1918,766.29774 c 4.6484,32.46962 20.0078,62.98681 41.6128,87.6669 21.605,24.68009 49.2681,43.67678 79.1554,57.19081 59.7748,27.02806 126.9367,32.17873 192.5252,33.47849 67.6733,1.34107 137.2183,-1.36645 199.6647,-27.48008 31.2232,-13.05681 60.2589,-31.99508 82.9871,-57.07091 22.7283,-25.07582 38.9401,-56.46049 43.807,-89.95201 5.4002,-37.16097 -3.4088,-75.77353 -22.0293,-108.38299 -18.6205,-32.60947 -46.6769,-59.3475 -78.7536,-78.87146 -64.1533,-39.04793 -141.816,-49.01309 -216.9147,-49.78015 -75.5483,-0.77165 -153.9211,7.73145 -219.0477,46.02848 -32.5633,19.14851 -61.1505,45.6999 -80.1975,78.3227 -19.047,32.6228 -28.1629,71.45538 -22.8094,108.85022 z"
       id="path4181-82-9"
       inkscape:path-effect="#path-effect4183-2-9"
       inkscape:original-d="m 1568.1918,766.29774 c 6.4163,123.0699 194.0891,176.7267 313.2934,178.3362 122.4939,1.6538 326.4588,-56.367 326.4588,-174.503 4.7368,-173.6344 -187.1042,-236.0805 -317.6976,-237.0346 -131.0608,-0.9573 -329.1087,97.8985 -322.0546,233.2014 z"
       inkscape:connector-curvature="0"
       sodipodi:nodetypes="aacaa" />
    <path
       style="fill:none;fill-rule:evenodd;stroke:#000000;stroke-width:140;stroke-linecap:round;stroke-linejoin:round;stroke-miterlimit:4;stroke-dasharray:none;stroke-opacity:1"
       d="m 1734.3913,930.65104 c 54.8095,7.34689 110.0472,11.49885 165.3391,12.4278 162.6238,2.73221 326.957,-23.03179 476.3693,-87.29617 153.5119,-66.02768 289.3371,-172.48436 390.6294,-305.3957 73.8003,-96.83748 129.5593,-207.94788 158.6082,-326.18552 29.0489,-118.23764 30.9983,-243.595145 1.1662,-361.63762 -26.8267,-106.15045 -79.9393,-206.60256 -158.2668,-283.10347 -78.3275,-76.50091 -182.472,-127.91182 -291.665,-135.94155 -131.1525,-9.64457 -263.7716,44.63593 -357.1804,137.20365 -93.4089,92.56772 -148.2451,220.83588 -160.0538,351.81126 -8.363,92.757396 4.9527,189.85613 53.2427,269.49254 24.1449,39.81821 56.8446,74.70272 96.2299,99.54752 39.3853,24.84481 85.5205,39.41876 132.0871,39.55335 47.3141,0.13675 94.2621,-14.64529 134.1899,-40.03045 39.9279,-25.38515 72.901,-61.12643 96.9472,-101.8747 48.0924,-81.49655 59.7026,-180.613445 48.7401,-274.60486 -16.2461,-139.29239 -82.0909,-273.89095 -188.4139,-365.33347 -106.3229,-91.44252 -253.3498,-136.62662 -391.3569,-111.71978 -111.5449,20.13108 -214.2934,88.06174 -272.8943,185.08479 -29.3004,48.51152 -47.8205,103.10652 -57.5104,158.94549 -9.6898,55.83897 -10.583,112.782675 -10.9664,169.45486 l -2.5683,379.60052 2.4985,-381.90852 c 0.377,-57.621989 0.1803,-115.56619 -9.5729,-172.35802 -9.7532,-56.79183 -29.1054,-112.24162 -59.8452,-160.98075 -30.7398,-48.73912 -72.6204,-90.38805 -121.5073,-120.89223 -48.8869,-30.50418 -104.4497,-49.88565 -161.4683,-58.21137 -135.6422,-19.80617 -278.01462,24.6177 -382.68083,113.13936 -104.66621,88.52166 -171.44733,218.76152 -188.92091,354.72392 -12.2787,95.5408746 -0.11857,196.636 49.31408,279.3115 24.71633,41.33775 58.53169,77.48212 99.3103,103.11044 40.77862,25.62832 88.57459,40.50416 136.73787,40.43807 48.29589,-0.0663 96.18139,-15.15816 136.95419,-41.04385 40.7729,-25.88568 74.4873,-62.32648 98.9927,-103.94358 49.0107,-83.23421 60.3052,-184.792572 46.85,-280.44268 -19.8767,-141.2986 -93.6488,-275.39194 -206.1002,-363.22724 -112.45153,-87.8353 -263.01611,-126.97015 -402.99564,-99.29149 -96.41212,19.06392 -186.47179,69.01096 -253.69771,140.70061 -67.22593,71.68965 -111.28819,164.77008 -124.12322,262.2072 -12.83503,97.437126 5.62016,198.752751 51.9882,285.40571 46.36804,86.65296 120.42137,158.218 208.60793,201.59842"
       id="path4185-6-6"
       inkscape:path-effect="#path-effect4187-0-7"
       inkscape:original-d="m 1734.3913,930.65104 c 0,0 73.7928,20.0413 165.3391,12.4278 105.7998,-8.7987 409.647,-34.65277 476.3693,-87.29617 297.4936,-234.7208 356.0241,-68.81622 390.6294,-305.3957 51.1352,-349.58571 228.5107,-462.704284 159.7744,-687.82314 -59.8501,-196.01561 -244.9841,-419.81278 -449.9318,-419.04502 -237.2668,0.88883 -492.3591,253.05403 -517.2342,489.01491 -17.3408,164.491845 116.1592,409.56209 281.5597,408.59341 167.2666,-0.97961 304.0986,-251.0035 279.8772,-416.51001 -36.2404,-247.63181 -332.2292,-513.90492 -579.7708,-477.05325 -203.2945,30.26459 -339.8131,283.2107 -341.3711,513.48514 l -2.5683,379.60052 2.4985,-381.90852 C 1601.3164,-309.31772 1452.41,-524.52062 1247.169,-553.70136 1003.3992,-588.36 711.29416,-329.45366 675.56726,-85.83808 650.89336,82.40876 790.88406,337.61513 960.92951,337.02193 1131.2108,336.42791 1272.0882,79.49568 1243.7264,-88.40818 1201.2653,-339.78105 869.91571,-649.0703 634.63056,-550.92691 358.49106,-435.74209 131.89796,40.99568 517.40576,338.98503"
       inkscape:connector-curvature="0"
       sodipodi:nodetypes="csssaaaaaascsaaaaac" />
    <path
       style="color:#000000;font-style:normal;font-variant:normal;font-weight:normal;font-stretch:normal;font-size:medium;line-height:normal;font-family:sans-serif;text-indent:0;text-align:start;text-decoration:none;text-decoration-line:none;text-decoration-style:solid;text-decoration-color:#000000;letter-spacing:normal;word-spacing:normal;text-transform:none;direction:ltr;block-progression:tb;writing-mode:lr-tb;baseline-shift:baseline;text-anchor:start;white-space:normal;clip-rule:nonzero;display:inline;overflow:visible;visibility:visible;opacity:1;isolation:auto;mix-blend-mode:normal;color-interpolation:sRGB;color-interpolation-filters:linearRGB;solid-color:#000000;solid-opacity:1;fill:#000000;fill-opacity:1;fill-rule:evenodd;stroke:none;stroke-width:140;stroke-linecap:round;stroke-linejoin:round;stroke-miterlimit:4;stroke-dasharray:none;stroke-dashoffset:0;stroke-opacity:1;color-rendering:auto;image-rendering:auto;shape-rendering:auto;text-rendering:auto;enable-background:accumulate"
       d="M 750.70703 2444.1211 C 745.44119 2444.0991 740.173 2444.153 734.90234 2444.2832 L 734.89844 2444.2832 C 704.35164 2445.038 673.75991 2448.3441 643.44727 2454.3379 C 532.34838 2476.3059 429.73224 2533.2159 352.26562 2615.8262 C 274.79903 2698.4365 224.59491 2804.4935 209.80469 2916.7734 C 195.01446 3029.0534 216.04126 3144.4946 269.47266 3244.3477 C 322.90405 3344.2006 407.28206 3425.7437 508.90234 3475.7324 A 70.007 70.007 0 1 0 570.69922 3350.1074 C 495.94643 3313.3353 432.21676 3251.7477 392.91211 3178.2949 C 353.60744 3104.842 337.72564 3017.6528 348.60547 2935.0586 C 359.4853 2852.4644 397.40345 2772.3608 454.38867 2711.5918 C 511.37388 2650.8229 588.87818 2607.8376 670.60352 2591.6777 C 721.84146 2581.5463 775.5574 2582.1817 827.83984 2592.2402 C 716.70434 2692.492 647.38331 2832.5006 628.5332 2979.1738 C 614.71391 3086.7022 627.46128 3203.4224 687.19727 3303.3301 C 717.12194 3353.3788 758.21544 3397.656 809.33789 3429.7852 C 860.64829 3462.0325 920.77956 3481.043 983.41992 3480.957 C 1046.2356 3480.871 1106.481 3461.5888 1157.7969 3429.0098 C 1208.925 3396.5498 1249.908 3351.8997 1279.5918 3301.4883 C 1338.849 3200.8527 1350.5995 3083.5446 1335.4395 2975.7754 C 1314.8901 2829.6945 1243.8294 2691.4518 1133.084 2592.4062 C 1175.1048 2584.7386 1217.934 2583.438 1259.4492 2589.5 C 1307.5325 2596.521 1354.0013 2612.8885 1393.9766 2637.832 C 1433.8188 2662.6926 1468.2974 2696.9863 1493.332 2736.6797 C 1518.364 2776.3689 1534.9693 2823.1066 1543.3945 2872.166 C 1551.8299 2921.2844 1552.3329 2975.0631 1551.959 3032.2188 L 1549.4648 3413.6562 L 1549.4648 3414.1113 L 1549.4648 3414.127 A 70.007 70.007 0 0 0 1689.4609 3415.0586 L 1689.4609 3415.043 L 1692.0293 3035.457 C 1692.4099 2979.2031 1693.5238 2926.152 1701.9668 2877.498 C 1710.4019 2828.8901 1726.3947 2782.564 1750.4277 2742.7734 C 1797.7832 2664.3689 1883.9811 2606.9639 1975.834 2590.3867 C 2018.7617 2582.6393 2063.464 2583.1838 2107.3574 2590.9609 C 2102.358 2595.564 2097.3448 2600.1538 2092.5176 2604.9375 C 1985.8733 2710.6214 1925.2015 2853.9766 1912.0195 3000.1836 C 1902.6675 3103.9105 1916.711 3215.9269 1975.123 3312.2559 C 2004.3981 3360.5345 2044.2555 3403.4207 2093.8613 3434.7129 C 2143.662 3466.1279 2202.0557 3484.8861 2263.0938 3485.0625 C 2325.1215 3485.2418 2384.5326 3466.2167 2435.043 3434.1035 C 2485.3507 3402.1191 2525.5433 3358.1727 2554.7188 3308.7324 C 2612.9304 3210.088 2624.9785 3095.7081 2612.7012 2990.4434 C 2595.1507 2839.9671 2526.3785 2694.74 2412.4238 2591.0371 C 2439.5162 2586.6584 2466.8629 2585.2821 2493.8359 2587.2656 C 2584.4808 2593.9314 2674.3707 2637.6894 2741.7246 2703.4727 C 2809.4552 2769.6238 2857.0177 2858.608 2881.0371 2953.6504 C 2907.8072 3059.5767 2906.2448 3173.6258 2879.7578 3281.4355 C 2853.2364 3389.3853 2801.9097 3492.0668 2733.4531 3581.8926 C 2639.5243 3705.1418 2513.0314 3804.2554 2370.8398 3865.4141 C 2344.2469 3876.8521 2317.0618 3886.9962 2289.4023 3895.9121 C 2294.0364 3882.5454 2297.5096 3868.5956 2299.6113 3854.1328 C 2307.5619 3799.4219 2294.803 3745.9897 2269.0977 3700.9727 C 2243.6335 3656.378 2206.7885 3621.8739 2165.9512 3597.0176 C 2084.8835 3547.6745 1994.1527 3537.8605 1913.3555 3537.0352 C 1832.0611 3536.2048 1740.4874 3544.2783 1658.1113 3592.7188 C 1616.6064 3617.1253 1579.0308 3651.41 1552.9453 3696.0879 C 1526.6061 3741.2004 1513.3962 3794.9926 1521.293 3850.1523 C 1528.135 3897.9445 1549.9174 3940.1812 1579.5293 3974.0078 C 1608.9141 4007.575 1644.964 4031.8935 1682.5156 4048.873 C 1693.7051 4053.9325 1704.9478 4058.3245 1716.2051 4062.1602 A 70.007 70.007 0 0 0 1747.4902 4073.9648 C 1756.1082 4075.12 1764.7366 4076.1908 1773.373 4077.1953 C 1817.9469 4085.7946 1861.7672 4087.7476 1902.4941 4088.5547 C 1933.8613 4089.1763 1967.0436 4089.1776 2001.0781 4086.125 C 2145.7526 4080.4525 2290.8766 4052.2073 2426.1562 3994.0215 C 2590.9884 3923.1248 2736.147 3809.3253 2844.8027 3666.752 C 2923.9467 3562.9027 2984.1384 3443.3633 3015.7148 3314.8379 C 3047.3257 3186.1723 3049.6637 3049.5063 3016.7695 2919.3477 C 2987.1355 2802.0891 2928.4693 2690.1671 2839.5449 2603.3164 C 2750.2438 2516.0978 2631.8447 2457.0363 2504.1035 2447.6426 C 2419.1999 2441.399 2335.2948 2457.7068 2259.084 2491.373 C 2163.3168 2449.2647 2056.051 2433.647 1950.9707 2452.6113 C 1819.7338 2476.2963 1700.4362 2554.7509 1630.5898 2670.3926 C 1628.2119 2674.3296 1626.0519 2678.355 1623.8008 2682.3438 C 1619.9586 2675.4878 1615.9741 2668.6883 1611.752 2661.9941 C 1575.3071 2604.2093 1526.0233 2555.2064 1468.0918 2519.0586 C 1410.2932 2482.9937 1345.6355 2460.5991 1279.6816 2450.9688 C 1177.1255 2435.9936 1073.1601 2452.4561 979.98438 2493.6523 C 907.95784 2461.8283 829.69463 2444.4517 750.70703 2444.1211 z M 2259.5391 2649.9316 C 2276.9512 2660.8652 2293.6022 2672.9525 2309.1113 2686.291 C 2400.5202 2764.9067 2459.3147 2883.8329 2473.6406 3006.6621 C 2483.2883 3089.3802 2472.1158 3173.2332 2434.1426 3237.582 C 2415.2257 3269.6382 2389.4738 3297.173 2359.9258 3315.959 C 2330.5805 3334.616 2296.0947 3345.1568 2263.4941 3345.0625 C 2231.3989 3344.9695 2197.5226 3334.5793 2168.5527 3316.3047 C 2139.3879 3297.9071 2113.8448 3271.0238 2094.8301 3239.666 C 2056.6621 3176.7222 2044.0752 3094.5418 2051.4492 3012.7539 C 2061.8846 2897.0101 2110.885 2783.8306 2191.0586 2704.3789 C 2211.7468 2683.877 2234.8401 2665.6421 2259.5391 2649.9316 z M 980.22461 2651.8555 C 992.91401 2659.7666 1005.1915 2668.2947 1016.9316 2677.4648 C 1113.8503 2753.1675 1179.4052 2871.5883 1196.8047 2995.2773 C 1208.5551 3078.8083 1197.7154 3164.6184 1158.9512 3230.4512 C 1139.6241 3263.274 1113.1774 3291.505 1082.7598 3310.8164 C 1052.5299 3330.0085 1017.0046 3340.9109 983.22852 3340.957 C 949.54229 3341.003 914.08083 3330.2614 883.83398 3311.252 C 853.39922 3292.1245 826.86345 3264.1132 807.35547 3231.4863 C 768.22614 3166.043 756.65255 3080.5729 767.39062 2997.0195 C 782.71032 2877.8166 842.05866 2762.9611 932.08594 2686.8203 C 947.20404 2674.0342 963.36621 2662.4183 980.22461 2651.8555 z M 1905.3965 3676.9883 C 1907.5684 3676.9914 1909.7445 3677.0051 1911.9258 3677.0273 C 1981.326 3677.7362 2045.9212 3687.8527 2093.1602 3716.6055 C 2116.4763 3730.7972 2135.7447 3749.7702 2147.5215 3770.3945 C 2159.0571 3790.5965 2163.9163 3814.3889 2161.0664 3834 C 2158.4859 3851.758 2148.9996 3871.1938 2134.666 3887.0078 C 2120.0825 3903.0976 2099.7857 3916.7866 2076.5391 3926.5078 C 2049.919 3937.6397 2019.2885 3943.6546 1985.9395 3946.5449 C 1965.0851 3947.2089 1944.1948 3947.3744 1923.3047 3947.0234 C 1881.7959 3946.326 1840.3147 3943.7101 1799.043 3939.2051 C 1777.7587 3935.1085 1757.9959 3929.3574 1740.1953 3921.3086 C 1717.9723 3911.2601 1698.6944 3897.586 1684.8691 3881.793 C 1671.271 3866.2594 1662.3357 3847.4595 1659.8809 3830.3125 C 1657.0706 3810.6827 1662.0928 3786.8108 1673.8477 3766.6777 C 1685.8562 3746.1101 1705.4545 3727.2909 1729.0762 3713.4004 C 1775.4571 3686.1265 1838.068 3676.8906 1905.3965 3676.9883 z "
       transform="translate(0,-1048)"
       id="path4181-82-9-7" />
    <path
       style="color:#000000;font-style:normal;font-variant:normal;font-weight:normal;font-stretch:normal;font-size:medium;line-height:normal;font-family:sans-serif;text-indent:0;text-align:start;text-decoration:none;text-decoration-line:none;text-decoration-style:solid;text-decoration-color:#000000;letter-spacing:normal;word-spacing:normal;text-transform:none;direction:ltr;block-progression:tb;writing-mode:lr-tb;baseline-shift:baseline;text-anchor:start;white-space:normal;clip-rule:nonzero;display:inline;overflow:visible;visibility:visible;opacity:1;isolation:auto;mix-blend-mode:normal;color-interpolation:sRGB;color-interpolation-filters:linearRGB;solid-color:#000000;solid-opacity:1;fill:#000000;fill-opacity:1;fill-rule:evenodd;stroke:none;stroke-width:200;stroke-linecap:round;stroke-linejoin:round;stroke-miterlimit:4;stroke-dasharray:none;stroke-dashoffset:0;stroke-opacity:1;color-rendering:auto;image-rendering:auto;shape-rendering:auto;text-rendering:auto;enable-background:accumulate"
       d="M 5351.7832 340.96875 C 5318.9823 341.01275 5286.0678 344.05662 5253.4707 350.26367 C 5123.5175 375.00898 5007.5515 450.5917 4932.6016 559.19141 C 4896.4345 506.52065 4850.2862 461.00835 4796.498 425.74609 C 4734.7385 385.25788 4665.216 359.56755 4593.7441 348.42578 C 4486.639 331.72915 4378.8724 348.2198 4282.2754 390.39258 C 4178.0441 346.80727 4062.2094 331.4923 3948.4609 351.52148 C 3827.3992 372.83839 3715.3981 432.7587 3630.4824 521.63867 C 3545.5667 610.51864 3490.8157 725.13519 3475.041 847.04297 C 3459.2662 968.95066 3483.0396 1093.7281 3542.5352 1201.2949 C 3602.0307 1308.8617 3695.0901 1395.3166 3806.7383 1446.7461 A 100.01 100.01 0 1 0 3890.416 1265.0918 C 3818.386 1231.912 3755.9324 1173.8909 3717.5488 1104.4941 C 3679.1652 1035.0973 3663.2096 951.35789 3673.3867 872.70898 C 3683.5638 794.06016 3720.3083 717.13986 3775.0918 659.79883 C 3829.8753 602.45782 3905.0414 562.24482 3983.1445 548.49219 C 4012.0793 543.39726 4041.9227 542.0605 4071.8262 544.03711 C 3978.6581 649.05274 3922.862 782.49372 3907.3691 919.89062 C 3894.7796 1031.539 3907.8079 1153.849 3971.332 1260.7949 C 4003.1894 1314.4284 4047.0002 1362.2722 4102.2617 1397.4062 C 4157.8043 1432.7189 4223.0713 1453.8471 4291.9453 1453.9551 C 4361.1653 1454.0635 4426.8411 1432.929 4482.6953 1397.3691 C 4538.2684 1361.9883 4582.243 1313.6928 4614.0098 1259.4883 C 4677.3644 1151.3845 4689.0815 1027.7332 4674.0117 915.24805 C 4655.5164 777.19363 4595.3354 645.34101 4499.9766 542.58398 C 4521.2144 541.76764 4542.324 542.82562 4562.9375 546.03906 C 4607.4534 552.97866 4650.4325 569.13613 4686.8457 593.00781 C 4723.1116 616.78288 4754.515 649.48718 4777.1348 686.92578 C 4799.7637 724.37957 4815.0265 768.93994 4822.7852 816.25 C 4830.5563 863.63791 4831.1163 916.94108 4830.7363 975.02148 L 4828.2422 1356.2246 L 4828.2422 1356.9062 L 4828.2422 1356.9297 A 100.01 100.01 0 0 0 5028.2383 1358.2598 L 5028.2383 1358.2383 L 5030.8066 978.66016 C 5031.1937 921.44723 5032.3477 868.73976 5040.168 821.59961 L 5040.168 821.59766 C 5047.9785 774.51906 5062.7263 730.17652 5084.5312 692.48047 C 5127.0988 618.89044 5206.7639 562.75048 5290.8848 546.73242 C 5311.4751 542.81167 5332.6804 540.99098 5354.0234 541.10352 C 5255.5268 653.54824 5202.0254 797.12965 5190.8125 941.73633 C 5182.4754 1049.2537 5196.6837 1166.851 5258.9238 1270.1758 C 5290.1557 1322.0238 5332.7948 1368.4672 5386.6406 1402.7051 C 5440.7794 1437.1293 5504.4449 1457.8967 5571.8301 1458.0605 C 5640.2833 1458.227 5705.006 1437.1178 5759.873 1401.9062 C 5814.4351 1366.8905 5857.3835 1319.3075 5888.4844 1266.2305 C 5950.4591 1160.4639 5962.6007 1040.4903 5951.4297 931.36719 C 5937.0074 790.48462 5881.8001 652.25 5786.4336 543.58008 C 5791.0338 543.70676 5795.6369 543.8224 5800.2051 544.16797 C 5883.889 550.49835 5968.7687 593.28393 6031.2559 657.1543 C 6094.3752 721.67082 6138.4535 808.94299 6160.3125 902.29688 C 6207.8953 1105.5112 6148.1278 1335.0331 6018.1289 1507.0215 C 5928.0821 1626.1533 5805.3876 1721.8297 5667.8594 1780.8125 C 5658.3871 1784.875 5648.8309 1788.7654 5639.2012 1792.498 C 5645.6819 1733.4942 5631.2871 1677.0127 5603.9258 1629.0957 C 5575.5286 1579.3644 5534.918 1541.5302 5490.3262 1514.3887 C 5402.0096 1460.6334 5305.679 1450.8854 5222.4395 1450.0352 C 5138.6826 1449.1797 5041.4504 1457.0699 4951.6816 1509.8574 C 4906.3447 1536.5174 4864.9164 1574.1165 4835.8145 1623.9609 C 4806.3501 1674.4261 4791.3863 1734.629 4800.373 1797.4023 C 4808.1552 1851.7613 4832.691 1899.0191 4865.7344 1936.7656 C 4898.4534 1974.1416 4938.0954 2000.7423 4978.9316 2019.207 C 4989.7384 2024.0935 5000.5475 2028.3888 5011.332 2032.1953 A 100.01 100.01 0 0 0 5052.2598 2046.6953 C 5060.3651 2047.7835 5068.4801 2048.7988 5076.6016 2049.7559 C 5123.7815 2058.8643 5169.313 2060.7292 5210.6758 2061.5488 C 5242.9836 2062.1891 5277.7896 2062.2716 5314.0137 2058.9473 C 5460.8468 2052.844 5608.4415 2023.9134 5746.6914 1964.6211 C 5916.3911 1891.8407 6066.1533 1775.1684 6177.6797 1627.6191 C 6340.8628 1411.728 6418.3119 1126.8965 6355.0449 856.69922 C 6325.9974 732.64481 6267.2484 612.38237 6174.2168 517.29102 C 6080.5525 421.55335 5954.2601 355.25078 5815.291 344.73828 C 5729.7776 338.26951 5645.9503 353.59279 5569.3223 385.59766 C 5550.9165 377.79682 5532.0997 370.82918 5512.832 364.9707 C 5460.8055 349.15175 5406.4553 340.89534 5351.7871 340.96875 L 5351.7832 340.96875 z M 5569.2578 614.08398 C 5580.3649 622.18789 5591.0994 630.83929 5601.3398 640.04883 C 5686.2876 716.44478 5740.2563 832.45728 5752.4668 951.73438 C 5760.5314 1030.5122 5749.4388 1107.9169 5715.9219 1165.1172 C 5699.277 1193.5235 5676.7674 1217.5934 5651.8477 1233.5859 C 5627.2331 1249.3827 5598.3004 1258.1237 5572.3125 1258.0605 C 5546.712 1257.9982 5518.2792 1249.4026 5493.9512 1233.9336 C 5469.33 1218.2782 5446.9862 1194.7798 5430.2383 1166.9766 C 5396.5188 1110.9988 5384.1706 1035.0972 5390.2109 957.19922 C 5398.9299 844.75535 5443.9474 734.64499 5518.3945 657.73828 C 5533.9012 641.71928 5551.0394 627.16321 5569.2578 614.08398 z M 4284.7363 618.76172 C 4292.7581 624.33447 4300.6437 630.08284 4308.2051 636.20703 C 4398.6296 709.44497 4459.9337 823.4996 4475.7832 941.80469 C 4486.354 1020.7083 4475.7372 1099.8702 4441.457 1158.3633 C 4424.4064 1187.4572 4401.1562 1212.1873 4375.2852 1228.6582 C 4349.6952 1244.9502 4319.587 1253.9979 4292.2578 1253.9551 C 4265.0547 1253.9125 4235.1022 1244.864 4209.5664 1228.6289 L 4209.5664 1228.6309 C 4183.7497 1212.2172 4160.4932 1187.6288 4143.2852 1158.6582 C 4108.6783 1100.396 4097.1679 1021.5971 4106.1094 942.30078 C 4119.1297 826.83164 4173.5598 714.77036 4257.2539 640.71484 C 4266.0167 632.96122 4275.2464 625.6981 4284.7363 618.76172 z M 5214.1074 1649.9902 C 5216.1962 1649.9924 5218.2921 1650.0039 5220.3965 1650.0254 C 5287.3544 1650.7093 5346.3498 1660.8899 5386.3398 1685.2305 C 5405.9014 1697.1369 5421.4025 1712.78 5430.2461 1728.2676 A 100.01 100.01 0 0 0 5430.2461 1728.2695 C 5438.7453 1743.1539 5441.9112 1760.594 5440.1543 1772.6836 C 5438.5536 1783.6988 5431.9508 1798.0146 5421.2148 1809.8594 C 5410.122 1822.098 5393.5704 1833.5384 5373.7422 1841.8301 C 5350.8033 1851.4226 5323.0793 1856.8987 5291.7285 1859.6094 C 5272.0396 1860.2118 5252.3069 1860.3548 5232.5645 1860.0273 C 5192.7072 1859.3662 5152.8737 1856.8872 5113.2363 1852.6211 C 5093.9183 1848.9019 5076.4889 1843.8241 5061.332 1836.9707 C 5042.3937 1828.4074 5026.7097 1817.0155 5016.2188 1805.0312 C 5006.0521 1793.4176 4999.8682 1779.6408 4998.3535 1769.0605 C 4996.6332 1757.0442 4999.9016 1739.5831 5008.5312 1724.8027 C 5017.5234 1709.4015 5033.2709 1693.8968 5053.0605 1682.2598 C 5092.2799 1659.1972 5149.3566 1649.9221 5214.1074 1649.9902 z "
       transform="translate(0,-1048)"
       id="path4181-82-9-2" />
    <path
       style="color:#000000;font-style:normal;font-variant:normal;font-weight:normal;font-stretch:normal;font-size:medium;line-height:normal;font-family:sans-serif;text-indent:0;text-align:start;text-decoration:none;text-decoration-line:none;text-decoration-style:solid;text-decoration-color:#000000;letter-spacing:normal;word-spacing:normal;text-transform:none;direction:ltr;block-progression:tb;writing-mode:lr-tb;baseline-shift:baseline;text-anchor:start;white-space:normal;clip-rule:nonzero;display:inline;overflow:visible;visibility:visible;opacity:1;isolation:auto;mix-blend-mode:normal;color-interpolation:sRGB;color-interpolation-filters:linearRGB;solid-color:#000000;solid-opacity:1;fill:#000000;fill-opacity:1;fill-rule:evenodd;stroke:none;stroke-width:65.30000305;stroke-linecap:round;stroke-linejoin:round;stroke-miterlimit:4;stroke-dasharray:none;stroke-dashoffset:0;stroke-opacity:1;color-rendering:auto;image-rendering:auto;shape-rendering:auto;text-rendering:auto;enable-background:accumulate"
       d="M 8556.4805 429.05664 C 8526.5364 429.10444 8496.5585 432.14165 8467.0781 438.35742 C 8338.7234 465.4203 8228.3658 553.54683 8167.7793 668.66797 C 8154.0597 694.73675 8142.9688 721.8727 8133.9473 749.57031 C 8124.1643 719.11972 8111.7078 689.39794 8096.1094 661.04102 C 8032.3088 545.05626 7916.5211 459.93653 7785.6426 436.88477 C 7708.4483 423.28847 7628.5845 430.60495 7554.9395 455.63672 C 7527.3823 465.00332 7500.7763 476.80087 7475.3711 490.71875 C 7379.0556 443.64523 7269.6237 423.74139 7162.6777 439.51367 C 7045.2231 456.83576 6935.4721 516.20005 6856.0723 604.24023 C 6776.6939 692.25657 6729.1163 807.08084 6722.0117 925.2207 C 6715.5441 1032.7687 6742.5021 1141.5381 6798.4473 1233.6172 C 6854.3924 1325.6962 6938.5079 1399.741 7036.9395 1443.5547 A 32.653267 32.653267 0 1 0 7063.4941 1383.8965 C 6977.4695 1345.6053 6903.1474 1280.1838 6854.2539 1199.7109 C 6805.3604 1119.2381 6781.541 1023.1327 6787.1934 929.14062 C 6793.396 825.99936 6835.477 724.57814 6904.5645 647.97266 C 6973.6302 571.39104 7070.3509 519.13658 7172.2051 504.11523 C 7251.6803 492.39431 7334.1437 503.81281 7409.8145 533.48633 C 7392.1236 546.9283 7375.176 561.32922 7359.2871 576.81055 C 7248.7775 684.48522 7188.0655 834.77834 7175.834 986.27539 C 7167.7666 1086.1976 7180.3722 1192.4484 7233.2305 1282.7285 C 7259.6994 1327.9366 7295.9413 1368.1265 7340.7949 1397.2988 C 7385.7495 1426.5368 7438.8193 1444.0861 7493.5449 1444.4121 C 7548.7144 1444.7407 7602.438 1427.5385 7647.9492 1398.2793 C 7693.3591 1369.0852 7730.0228 1328.5291 7756.541 1282.7539 C 7809.5034 1191.3316 7820.5864 1083.3715 7808.9727 982.59375 C 7791.1205 827.68239 7718.9522 678.12457 7600.8848 574.2207 C 7582.7698 558.27888 7563.5105 543.67478 7543.4961 530.18945 C 7554.1721 525.55828 7564.9577 521.20087 7575.9551 517.46289 C 7639.611 495.82639 7708.6935 489.63513 7774.3164 501.19336 C 7884.3808 520.57911 7984.7801 594.13766 8038.8945 692.51367 C 8066.1385 742.0412 8083.0164 797.81551 8091.4844 855.16016 C 8099.9555 912.52702 8100.1236 972.2684 8099.7246 1033.2676 L 8097.2285 1415 L 8097.2285 1415.1699 L 8097.2285 1415.1758 A 32.653267 32.653267 0 0 0 8162.5254 1415.6113 L 8162.5254 1415.6035 L 8165.0938 1036.0098 C 8165.5004 975.89441 8166.38 916.97762 8174.8711 860.30273 C 8183.3596 803.6457 8199.5558 748.50671 8225.5684 699.08008 C 8277.2367 600.90448 8373.0602 524.91616 8480.5527 502.25195 C 8546.9896 488.2441 8617.8024 493.27125 8682.9258 514.83594 C 8690.0811 517.20532 8697.1458 519.8543 8704.1699 522.61328 C 8671.3743 546.0258 8641.2723 573.10236 8614.6484 603.17188 C 8516.4971 714.02554 8467.0067 860.2923 8459.543 1005.5996 C 8454.5703 1102.4101 8467.9978 1204.9535 8519.8574 1292.2539 C 8545.8315 1335.9787 8581.1543 1374.9024 8624.8516 1403.1504 C 8668.6548 1431.4668 8720.3489 1448.4382 8773.6621 1448.5176 C 8827.7714 1448.5981 8880.2556 1431.27 8924.5547 1402.2832 C 8968.7437 1373.3685 9004.2435 1333.5018 9030.0508 1288.7988 C 9081.5747 1199.5496 9093.3025 1095.1151 9086.1504 996.98438 C 9074.8826 842.38269 9015.5489 687.77789 8903.4141 576.86133 C 8883.7125 557.37383 8862.416 539.45766 8839.9004 523.19922 C 8893.1867 503.191 8950.6437 494.32688 9006.7871 498.80664 C 9113.2304 507.29993 9215.1175 564.56344 9287.543 646.15039 C 9360.2408 728.04419 9405.7634 833.736 9427.2754 943.58008 C 9471.9503 1171.6972 9412.3298 1418.5506 9273.332 1605.6562 C 9177.2647 1734.9728 9044.7447 1837.1265 8896.1094 1900.4883 C 8839.8054 1924.4901 8781.2242 1943.0245 8721.3066 1956.5625 C 8747.8633 1927.197 8767.1436 1890.3101 8773.0645 1849.5664 C 8779.6542 1804.2196 8769.0032 1758.6955 8747.0781 1720.2988 C 8725.2655 1682.0992 8693.1102 1651.7377 8656.9473 1629.7266 C 8584.9047 1585.8767 8501.1473 1575.9837 8423.3906 1575.1895 C 8345.1622 1574.3904 8260.6312 1582.6925 8187.459 1625.7207 C 8150.7251 1647.3217 8117.9452 1677.4809 8095.6152 1715.7266 C 8073.167 1754.1749 8062.1419 1799.9851 8068.6816 1845.666 C 8074.3532 1885.2825 8092.7092 1921.2646 8118.0488 1950.2109 C 8143.2825 1979.0362 8174.8562 2000.516 8208.3184 2015.6465 C 8220.4354 2021.1254 8232.7199 2025.7604 8245.1094 2029.7012 A 32.653267 32.653267 0 0 0 8262.8457 2037.75 C 8272.1943 2039.0094 8281.5565 2040.1687 8290.9277 2041.2441 C 8332.1726 2049.1704 8373.7812 2051.2275 8413.6484 2052.0176 C 8444.5306 2052.6296 8476.4686 2052.5112 8508.5781 2049.5898 C 8649.7989 2044.0483 8790.8208 2016.3583 8921.7168 1960.5586 C 9080.739 1892.769 9222.3767 1783.7516 9325.752 1644.5977 C 9475.7558 1442.6769 9539.8235 1178.5047 9491.3574 931.0293 C 9468.0336 811.9344 9418.5522 695.36891 9336.377 602.79883 C 9253.9293 509.92192 9138.0861 443.77506 9011.9805 433.71289 C 8936.8048 427.7145 8861.053 441.79913 8792.6387 471.92383 C 8785.6481 475.002 8778.7941 478.34953 8771.9707 481.74805 C 8749.9038 470.50003 8727.081 460.66978 8703.4531 452.8457 C 8656.2016 437.19906 8606.3891 428.97692 8556.4824 429.05664 L 8556.4805 429.05664 z M 8771.7422 556.27539 C 8802.72 575.1404 8831.6097 597.68578 8857.4902 623.28516 C 8956.1408 720.86394 9010.7381 860.63579 9021.0215 1001.7305 C 9027.5444 1091.2287 9016.0298 1182.4739 8973.4961 1256.1504 C 8952.2744 1292.9102 8923.32 1325.0519 8888.7988 1347.6406 C 8854.3878 1370.1572 8813.7097 1383.2763 8773.7559 1383.2168 C 8734.3832 1383.1581 8694.3356 1370.3123 8660.3008 1348.3105 C 8626.1601 1326.2404 8597.3605 1294.8639 8575.998 1258.9023 C 8533.1845 1186.83 8520.2194 1097.2664 8524.7559 1008.9492 C 8531.5726 876.2376 8577.1442 744.03455 8663.5371 646.46094 A 32.653267 32.653267 0 0 0 8663.5371 646.45898 C 8694.8625 611.07954 8731.4929 580.41899 8771.7422 556.27539 z M 7477.2656 565.82617 C 7505.9259 582.29486 7533.0116 601.47293 7557.7461 623.24023 C 7662.2995 715.25122 7728.0035 850.38016 7744.1016 990.07031 C 7754.5541 1080.7719 7743.6938 1174.6624 7700.0371 1250.0215 C 7678.2459 1287.637 7648.2923 1320.4285 7612.6367 1343.3516 C 7577.0823 1366.2095 7535.1376 1379.3587 7493.9355 1379.1133 C 7453.0566 1378.8698 7411.59 1365.4449 7376.3984 1342.5566 C 7341.1058 1319.6027 7311.4191 1287.0333 7289.582 1249.7363 C 7245.8281 1175.0063 7233.6015 1082.1995 7240.9219 991.5293 C 7252.0308 853.93612 7307.637 718.3065 7404.8574 623.58008 C 7427.0233 601.98279 7451.3789 582.65874 7477.2656 565.82617 z M 8415.8945 1640.4434 C 8418.1699 1640.4477 8420.4455 1640.4611 8422.7227 1640.4844 C 8495.1634 1641.2243 8566.7321 1651.2618 8622.9961 1685.5078 C 8650.9866 1702.5446 8674.9446 1725.6585 8690.373 1752.6777 C 8705.6889 1779.5 8712.654 1811.2006 8708.4434 1840.1758 C 8704.6429 1866.3288 8691.5686 1892.1406 8672.7559 1912.8965 C 8653.8266 1933.781 8628.866 1950.2705 8601.3633 1961.7715 C 8570.5853 1974.6421 8536.8228 1981.3231 8501.4766 1984.4922 C 8478.6871 1985.309 8455.8695 1985.5419 8433.0703 1985.1738 C 8389.5969 1984.472 8346.1546 1981.7017 8302.9414 1976.8887 C 8279.1468 1972.3252 8256.4005 1965.7224 8235.2227 1956.1465 C 8208.9102 1944.2489 8185.1579 1927.7341 8167.1816 1907.1992 C 8149.3113 1886.7853 8136.9475 1861.7348 8133.3223 1836.4121 C 8129.155 1807.3033 8136.3621 1775.4476 8152.0078 1748.6504 C 8167.7719 1721.6505 8192.1659 1698.7058 8220.5586 1682.0098 C 8275.8557 1649.4928 8345.3567 1640.309 8415.8945 1640.4434 z "
       transform="translate(0,-1048)"
       id="path4181-82-9-0" />
  </g>
</svg>
