<?xml version="1.0" encoding="UTF-8" standalone="no"?>
<!-- Created with Inkscape (http://www.inkscape.org/) -->

<svg
   xmlns:dc="http://purl.org/dc/elements/1.1/"
   xmlns:cc="http://creativecommons.org/ns#"
   xmlns:rdf="http://www.w3.org/1999/02/22-rdf-syntax-ns#"
   xmlns:svg="http://www.w3.org/2000/svg"
   xmlns="http://www.w3.org/2000/svg"
   xmlns:sodipodi="http://sodipodi.sourceforge.net/DTD/sodipodi-0.dtd"
   xmlns:inkscape="http://www.inkscape.org/namespaces/inkscape"
   width="2000"
   height="2000"
   id="svg2992"
   version="1.1"
   inkscape:version="0.91 r13725"
   sodipodi:docname="തൃ.svg">
  <defs
     id="defs5498">
    <inkscape:path-effect
       effect="spiro"
       id="path-effect2987"
       is_visible="true" />
    <inkscape:path-effect
       is_visible="true"
       id="path-effect2987-6"
       effect="spiro" />
    <inkscape:path-effect
       is_visible="true"
       id="path-effect2987-5"
       effect="spiro" />
    <inkscape:path-effect
       is_visible="true"
       id="path-effect4141-3-4-6"
       effect="spiro" />
    <inkscape:path-effect
       is_visible="true"
       id="path-effect4141-3-4-6-8"
       effect="spiro" />
    <inkscape:path-effect
       is_visible="true"
       id="path-effect4141-3-4-6-8-8"
       effect="spiro" />
    <inkscape:path-effect
       is_visible="true"
       id="path-effect4141-3-4-6-8-0"
       effect="spiro" />
    <inkscape:path-effect
       is_visible="true"
       id="path-effect4141-3-4-6-8-0-4"
       effect="spiro" />
    <inkscape:path-effect
       effect="spiro"
       id="path-effect4141-3-4-6-8-86"
       is_visible="true" />
    <inkscape:path-effect
       effect="spiro"
       id="path-effect4141-3-4-6-8-86-4"
       is_visible="true" />
    <inkscape:path-effect
       effect="spiro"
       id="path-effect4141-3-4-6-8-86-3"
       is_visible="true" />
    <inkscape:path-effect
       effect="spiro"
       id="path-effect4141-3-4-6-8-86-5"
       is_visible="true" />
    <inkscape:path-effect
       effect="spiro"
       id="path-effect4141-3-4-6-8-86-5-8"
       is_visible="true" />
    <inkscape:path-effect
       effect="spiro"
       id="path-effect4141-3-4-6-8-86-0"
       is_visible="true" />
    <inkscape:path-effect
       effect="spiro"
       id="path-effect4141-3-4-6-8-86-0-6"
       is_visible="true" />
    <inkscape:path-effect
       effect="spiro"
       id="path-effect4141-3-4-6-8-86-5-7"
       is_visible="true" />
    <inkscape:path-effect
       effect="spiro"
       id="path-effect4141-3-4-6-8-86-5-7-5"
       is_visible="true" />
    <inkscape:path-effect
       effect="spiro"
       id="path-effect4187"
       is_visible="true" />
    <inkscape:path-effect
       effect="spiro"
       id="path-effect4183"
       is_visible="true" />
    <inkscape:path-effect
       effect="spiro"
       id="path-effect4183-3"
       is_visible="true" />
    <inkscape:path-effect
       effect="spiro"
       id="path-effect4187-9"
       is_visible="true" />
    <inkscape:path-effect
       effect="spiro"
       id="path-effect4183-1"
       is_visible="true" />
    <inkscape:path-effect
       effect="spiro"
       id="path-effect4187-2"
       is_visible="true" />
    <inkscape:path-effect
       effect="spiro"
       id="path-effect4183-8"
       is_visible="true" />
    <inkscape:path-effect
       effect="spiro"
       id="path-effect4187-8"
       is_visible="true" />
    <inkscape:path-effect
       effect="spiro"
       id="path-effect4187-8-1"
       is_visible="true" />
    <inkscape:path-effect
       effect="spiro"
       id="path-effect4183-8-4"
       is_visible="true" />
    <inkscape:path-effect
       effect="spiro"
       id="path-effect4183-6"
       is_visible="true" />
    <inkscape:path-effect
       effect="spiro"
       id="path-effect4187-4"
       is_visible="true" />
    <inkscape:path-effect
       effect="spiro"
       id="path-effect4187-4-5"
       is_visible="true" />
    <inkscape:path-effect
       effect="spiro"
       id="path-effect4183-6-2"
       is_visible="true" />
    <inkscape:path-effect
       effect="spiro"
       id="path-effect4183-6-2-2"
       is_visible="true" />
    <inkscape:path-effect
       effect="spiro"
       id="path-effect4187-4-5-6"
       is_visible="true" />
    <inkscape:path-effect
       effect="spiro"
       id="path-effect4183-6-3"
       is_visible="true" />
    <inkscape:path-effect
       effect="spiro"
       id="path-effect4187-4-0"
       is_visible="true" />
    <inkscape:path-effect
       effect="spiro"
       id="path-effect4183-16"
       is_visible="true" />
    <inkscape:path-effect
       effect="spiro"
       id="path-effect4187-0"
       is_visible="true" />
  </defs>
  <sodipodi:namedview
     inkscape:window-height="871"
     inkscape:window-width="1600"
     inkscape:pageshadow="2"
     inkscape:pageopacity="0.0"
     borderopacity="1.0"
     bordercolor="#666666"
     pagecolor="#ffffff"
     id="base"
     showgrid="true"
     showguides="true"
     inkscape:guide-bbox="true"
     inkscape:zoom="0.35355339"
     inkscape:cx="8366.1326"
     inkscape:cy="769.75016"
     inkscape:window-x="1600"
     inkscape:window-y="0"
     inkscape:current-layer="layer1-5"
     inkscape:window-maximized="1">
    <inkscape:grid
       type="xygrid"
       id="grid3769"
       empspacing="5"
       visible="true"
       enabled="true"
       snapvisiblegridlinesonly="true" />
    <sodipodi:guide
       orientation="0,1"
       position="-3440,1600"
       id="guide4151"
       inkscape:label=""
       inkscape:color="rgb(0,0,255)" />
    <sodipodi:guide
       position="6400,0"
       orientation="0,1"
       id="guide4200" />
    <sodipodi:guide
       position="1320,600"
       orientation="0,1"
       id="guide4176"
       inkscape:label=""
       inkscape:color="rgb(0,0,255)" />
    <sodipodi:guide
       position="9280,1710"
       orientation="0,1"
       id="guide4211"
       inkscape:label=""
       inkscape:color="rgb(0,0,255)" />
  </sodipodi:namedview>
  <metadata
     id="metadata5594">
    <rdf:RDF>
      <cc:Work
         rdf:about="">
        <dc:format>image/svg+xml</dc:format>
        <dc:type
           rdf:resource="http://purl.org/dc/dcmitype/StillImage" />
        <dc:title />
      </cc:Work>
    </rdf:RDF>
  </metadata>
  <g
     inkscape:label="Layer 1"
     inkscape:groupmode="layer"
     id="layer1"
     transform="translate(0,1000)">
    <g
       id="layer1-3"
       inkscape:label="Layer 1"
       transform="translate(-0.95658678,1.469116)">
      <g
         transform="translate(515.97655,-246.37705)"
         id="layer1-5"
         inkscape:label="Layer 1">
        <path
           style="fill:none;fill-rule:evenodd;stroke:#000000;stroke-width:60;stroke-linecap:round;stroke-linejoin:round;stroke-miterlimit:4;stroke-dasharray:none;stroke-opacity:1"
           d="m 3548.6603,1521.6921 c -74.9335,-59.5298 -165.3927,-99.3403 -259.9049,-114.3826 -38.5168,-6.1302 -78.9463,-8.0436 -115.6176,5.2358 -18.3356,6.6396 -35.4428,17.1038 -48.7173,31.389 -13.2745,14.2853 -22.5759,32.4889 -25.0287,51.8348 -2.7425,21.6312 3.2081,43.9588 14.9248,62.3476 11.7167,18.3889 28.9485,32.9394 48.2779,43.0293 38.6587,20.1797 84.0874,22.5359 127.64,20.3253 115.4589,-5.8605 229.9697,-41.7046 325.2113,-107.2343 75.0368,-51.628 137.6818,-121.4619 179.4765,-202.3889 41.7948,-80.927 62.5031,-172.8525 57.8611,-263.8164 -4.3369,-84.98474 -31.2391,-169.57967 -81.9794,-237.89249 -50.7402,-68.31282 -125.9781,-119.3531 -209.5695,-135.28065 -96.3588,-18.36026 -199.6078,11.5481 -274.8637,74.46609 -75.2559,62.91799 -122.4534,156.79852 -133.6753,254.24695 -7.6416,66.3577 1.3998,136.3083 36.0172,193.4343 17.3087,28.563 40.8613,53.5151 69.1964,71.1944 28.3351,17.6792 61.4912,27.9226 94.8892,27.8354 33.6196,-0.088 66.9402,-10.6464 95.2886,-28.7199 28.3484,-18.0736 51.7625,-43.4955 68.7453,-72.5104 33.9657,-58.03 41.5945,-128.7693 31.9505,-195.31359 -9.2526,-63.84361 -33.8636,-125.5202 -71.8818,-177.63775 -38.0181,-52.11755 -89.4451,-94.51445 -148.2543,-121.03039 -58.8092,-26.51595 -124.8943,-36.98409 -188.9091,-29.0011 -64.0148,7.98299 -125.7378,34.51123 -174.9788,76.18784 -42.9595,36.36005 -76.2473,84.04409 -95.5713,136.90384 -19.3241,52.85976 -24.6386,110.77004 -15.2583,166.26405 9.3802,55.494 33.433,108.4402 69.0571,152.012 35.624,43.5718 82.7349,77.6659 135.2583,97.8863"
           id="path4139-1-0-4-2-1-7-0-4"
           inkscape:path-effect="#path-effect4141-3-4-6-8-86-5-7"
           inkscape:original-d="m 3548.6603,1521.6921 c 0,0 -165.2571,-115.4442 -259.9049,-114.3826 -69.6644,0.7814 -184.3022,18.9749 -189.3636,88.4596 -5.534,75.9725 115.3313,115.6789 190.8427,125.7022 113.1524,15.0197 238.5893,-32.8992 325.2113,-107.2343 132.3332,-113.5624 254.0808,-292.6306 237.3376,-466.2053 -15.1563,-157.12399 -134.749,-355.0563 -291.5489,-373.17314 -173.6255,-20.06088 -383.0066,155.78934 -408.539,328.71304 -17.2545,116.8593 81.9926,293.4118 200.1028,292.4641 118.4724,-0.9504 229.8734,-183.0058 195.9844,-296.54389 -60.627,-203.11781 -417.3462,-382.42364 -584.024,-251.4814 -147.0172,115.49692 93.4858,553.06619 93.4858,553.06619"
           inkscape:connector-curvature="0"
           sodipodi:nodetypes="caaaaaaaaaac" />
        <path
           style="fill:none;fill-rule:evenodd;stroke:#000000;stroke-width:140;stroke-linecap:round;stroke-linejoin:round;stroke-miterlimit:4;stroke-dasharray:none;stroke-opacity:1"
           d="m -19.834818,979.3875 c 3.85743,27.0836 16.9400902,52.4687 35.268996,72.7777 18.328907,20.3089 41.733408,35.6891 66.887472,46.4444 50.30813,21.5105 106.34472,24.6331 161.04824,25.698 56.49134,1.0997 114.51884,0.048 167.07912,-20.6858 26.28014,-10.3671 50.84606,-25.6985 70.11974,-46.3539 19.27369,-20.6554 33.0645,-46.7992 37.06624,-74.7654 4.41789,-30.87447 -3.3085,-62.93066 -19.24585,-89.74021 C 482.45179,865.95275 458.64269,844.25857 431.64703,828.63856 377.6557,797.39853 313.10493,790.53063 250.73039,789.88265 187.93616,789.23031 122.76916,794.85262 67.94434,825.47583 40.531931,840.78743 16.271395,862.34086 -0.01570739,889.18514 -16.30281,916.02943 -24.262166,948.30239 -19.834818,979.3875 Z"
           id="path4181"
           inkscape:path-effect="#path-effect4183"
           inkscape:original-d="m -19.834818,979.3875 c 5.390433,100.0095 163.058618,143.6122 263.204708,144.9201 102.90976,1.344 274.2651,-45.8051 274.2651,-141.8051 C 521.61449,841.40312 360.4447,790.65791 250.73039,789.88265 140.62328,789.10461 -25.761052,869.43724 -19.834818,979.3875 Z"
           inkscape:connector-curvature="0"
           sodipodi:nodetypes="aacaa" />
        <path
           style="fill:none;fill-rule:evenodd;stroke:#000000;stroke-width:140;stroke-linecap:round;stroke-linejoin:round;stroke-miterlimit:4;stroke-dasharray:none;stroke-opacity:1"
           d="m 284.51999,1124.2374 c 90.29789,0.8551 180.73042,-16.3234 264.425,-50.23 C 690.11237,1016.8172 809.96849,912.63978 896.24638,787.12058 1034.8743,585.4412 1086.7268,321.94652 1017.0816,87.33656 988.66843,-8.3773213 940.51443,-98.977278 871.92828,-171.53344 803.34214,-244.08959 713.82033,-297.96383 616.02181,-318.06122 477.90904,-346.4431 328.9171,-304.38022 220.34096,-214.42529 111.76481,-124.47036 43.574112,10.244081 26.517473,150.20743 c -11.747393,96.39675 0.726338,198.20913 50.64903,281.50414 24.961347,41.64751 59.069067,78.06739 100.198407,103.87361 41.12934,25.80622 89.33769,40.75693 137.89236,40.59095 48.84754,-0.16698 97.24007,-15.63597 138.33415,-42.04404 C 494.6855,507.72402 528.539,470.62382 553.00236,428.34316 601.92908,343.78186 612.4281,240.9536 598.05437,144.32113 577.82676,8.3338555 508.61961,-120.81957 402.82766,-208.6248 297.03571,-296.43004 154.95783,-340.82872 18.600292,-323.26979 c -117.192389,15.09101 -227.970892,75.65297 -303.773832,166.29352 -75.80294,90.640539 -115.82318,210.468505 -109.49379,328.4589 4.67983,87.23976 34.21123,173.00908 84.23165,244.63753 50.02041,71.62846 120.3728,128.89119 200.66425,163.32897"
           id="path4185"
           inkscape:path-effect="#path-effect4187"
           inkscape:original-d="m 284.51999,1124.2374 c 0,0 183.21721,-12.0909 264.425,-50.23 C 684.85845,1010.176 820.89753,917.00311 896.24638,787.12058 1015.0298,582.36778 1088.0555,313.15929 1017.0816,87.33656 960.0878,-94.004641 805.76925,-306.71076 616.02181,-318.06122 365.51788,-333.04606 64.492385,-97.854401 26.517473,150.20743 0.56010029,319.76762 143.72716,577.54222 315.25727,576.17613 487.32187,574.80578 624.7936,314.30089 598.05437,144.32113 559.48547,-100.85913 265.60556,-347.54569 18.600292,-323.26979 -195.2518,-302.25222 -385.39872,-43.199803 -394.66733,171.48263 c -7.15434,165.71115 284.8959,407.9665 284.8959,407.9665"
           inkscape:connector-curvature="0"
           sodipodi:nodetypes="caaaaaaaaac" />
        <path
           style="color:#000000;font-style:normal;font-variant:normal;font-weight:normal;font-stretch:normal;font-size:medium;line-height:normal;font-family:sans-serif;text-indent:0;text-align:start;text-decoration:none;text-decoration-line:none;text-decoration-style:solid;text-decoration-color:#000000;letter-spacing:normal;word-spacing:normal;text-transform:none;direction:ltr;block-progression:tb;writing-mode:lr-tb;baseline-shift:baseline;text-anchor:start;white-space:normal;clip-rule:nonzero;display:inline;overflow:visible;visibility:visible;opacity:1;isolation:auto;mix-blend-mode:normal;color-interpolation:sRGB;color-interpolation-filters:linearRGB;solid-color:#000000;solid-opacity:1;fill:#000000;fill-opacity:1;fill-rule:evenodd;stroke:none;stroke-width:140;stroke-linecap:round;stroke-linejoin:round;stroke-miterlimit:4;stroke-dasharray:none;stroke-dashoffset:0;stroke-opacity:1;color-rendering:auto;image-rendering:auto;shape-rendering:auto;text-rendering:auto;enable-background:accumulate"
           d="M 708.95508 2163.2227 C 706.39908 2163.234 703.84085 2163.2631 701.2832 2163.3105 C 681.6191 2163.6755 661.91528 2165.1049 642.25391 2167.6367 C 507.07505 2185.0439 381.21245 2253.8343 293.72266 2358.4492 C 206.22087 2463.0786 160.71477 2599.2822 168.02539 2735.5645 C 173.41751 2836.0828 207.13172 2934.0003 264.76562 3016.5312 C 322.39954 3099.0622 402.71613 3164.4338 495.22852 3204.1133 A 70.007 70.007 0 1 0 550.41406 3075.4492 C 482.34355 3046.2531 421.95575 2997.1011 379.54883 2936.375 C 337.14191 2875.649 311.79369 2802.0257 307.82617 2728.0645 C 302.47801 2628.3659 337.01308 2524.9155 401.11719 2448.2637 C 465.23329 2371.5976 560.9269 2319.2631 660.13281 2306.4883 C 701.93077 2301.1059 744.86169 2302.8009 786.95898 2310.623 C 675.68751 2412.4233 607.61592 2554.4423 589.625 2702.0723 C 576.44182 2810.2508 589.50883 2927.5703 649.71875 3028.0293 C 679.88418 3078.3597 721.26692 3122.9079 772.75391 3155.2129 C 824.43251 3187.6383 885.00766 3206.7235 948.08984 3206.5078 C 1011.5574 3206.2908 1072.3659 3186.5523 1124.0273 3153.3535 C 1175.4967 3120.278 1216.5922 3074.8794 1246.1855 3023.7324 C 1305.2576 2921.6367 1316.0535 2803.0406 1299.8867 2694.3535 C 1278.0737 2547.7079 1206.1177 2408.9745 1093.8574 2309.8223 C 1140.8728 2301.5907 1188.8171 2301.4449 1234.5254 2310.8379 C 1316.4134 2327.6657 1394.0718 2373.8554 1453.6523 2436.8848 C 1513.4912 2500.1873 1556.866 2581.0077 1582.5684 2667.5898 C 1645.447 2879.4054 1598.2738 3122.8614 1471.1523 3307.8008 C 1405.879 3402.7621 1319.8999 3483.8143 1221.0508 3538.125 C 1224.0007 3494.4643 1212.1965 3452.7243 1191.1523 3417.3242 C 1168.043 3378.4502 1135.1684 3349.1385 1099.2969 3328.3828 C 1028.2209 3287.2575 951.06118 3280.9149 884.05078 3280.2188 C 816.57591 3279.5177 738.65997 3284.3348 666.40234 3324.6953 C 629.92474 3345.0704 596.38884 3374.2134 572.73047 3413.207 C 548.78336 3452.6763 536.42467 3500.2145 543.45703 3549.5898 C 549.56884 3592.5018 569.39354 3629.8486 596.06055 3659.3965 C 622.46995 3688.6588 654.49166 3709.2362 687.39453 3723.3047 C 752.72822 3751.2398 818.16577 3753.5283 874.60156 3754.627 C 893.68417 3754.9984 913.77618 3755.2641 934.55664 3754.5176 C 1028.0912 3753.1506 1121.085 3734.3561 1207.8223 3699.2168 C 1363.6286 3636.096 1493.3468 3522.664 1586.5254 3387.1055 C 1736.6599 3168.6861 1793.1931 2885.1523 1716.7812 2627.748 C 1685.6573 2522.9024 1632.724 2422.5227 1555.3906 2340.7129 C 1477.7989 2258.6298 1376.4141 2197.0701 1262.7051 2173.7031 C 1152.7339 2151.1043 1039.2982 2166.4328 938.74609 2211.1855 C 866.54799 2179.8428 788.19109 2162.8713 708.95508 2163.2227 z M 939.8418 2369.3457 C 957.65541 2380.2396 974.72025 2392.2971 990.71484 2405.5723 C 1082.0937 2481.4149 1143.6522 2595.5689 1161.4102 2714.9531 C 1173.9908 2799.5311 1163.7872 2886.5923 1125.0059 2953.6191 C 1105.6724 2987.0336 1079.0606 3015.8355 1048.3418 3035.5762 C 1017.815 3055.1934 981.83882 3066.3928 947.61133 3066.5098 C 913.58417 3066.6261 877.74216 3055.8103 847.16211 3036.623 C 816.39041 3017.3157 789.55803 2989.0232 769.80078 2956.0586 C 730.16532 2889.9276 718.2841 2803.6227 728.5957 2719.0078 C 743.59466 2595.9293 804.36872 2477.047 897.59375 2399.8105 C 910.94141 2388.752 925.1223 2378.6515 939.8418 2369.3457 z M 871.76953 3420.1816 C 875.35484 3420.1626 878.9636 3420.1732 882.5957 3420.2109 C 940.33436 3420.8108 992.27687 3428.2039 1029.1836 3449.5586 C 1047.3035 3460.043 1062.0452 3474.1184 1070.8105 3488.8633 C 1079.3016 3503.1468 1082.7681 3520.0997 1080.9336 3532.9199 C 1079.2597 3544.6183 1072.5188 3558.5519 1061.9824 3569.8438 C 1051.1625 3581.4394 1035.5726 3591.6516 1017.3555 3598.8379 C 990.43625 3609.4569 957.4281 3613.5454 920.35547 3614.5801 C 919.49557 3614.5756 918.63519 3614.5804 917.77539 3614.5723 A 70.007 70.007 0 0 0 910.55859 3614.7871 C 899.77799 3614.937 888.69796 3614.8737 877.32617 3614.6523 C 824.35492 3613.6212 777.7181 3609.6641 742.43555 3594.5781 C 725.03079 3587.1363 710.24252 3576.9528 699.99414 3565.5977 C 690.00334 3554.5275 683.66163 3541.1048 682.05859 3529.8496 C 680.23627 3517.0548 683.79671 3500.0472 692.42383 3485.8281 C 701.33965 3471.1331 716.32663 3457.168 734.67383 3446.9199 C 769.72884 3427.3395 817.98985 3420.4668 871.76953 3420.1816 z "
           transform="translate(-515.01996,-755.09207)"
           id="path4181-2" />
        <path
           style="fill:none;fill-rule:evenodd;stroke:#000000;stroke-width:70;stroke-linecap:round;stroke-linejoin:round;stroke-miterlimit:4;stroke-dasharray:none;stroke-opacity:1"
           d="m -1948.3548,1018.02 c 4.1657,29.2484 18.2942,56.6624 38.0883,78.5944 19.7941,21.932 45.0694,38.5413 72.2342,50.1558 54.3294,23.2292 114.8449,26.6006 173.9207,27.7506 61.0066,1.1876 123.672,0.053 180.4336,-22.3378 28.3808,-11.1953 54.9104,-27.7518 75.7248,-50.058 20.8143,-22.3061 35.7076,-50.5396 40.0291,-80.741 4.7709,-33.3421 -3.5732,-67.96035 -20.7847,-96.91244 -17.2114,-28.9521 -42.9238,-52.37984 -72.0773,-69.24789 -58.307,-33.73609 -128.0169,-41.15201 -195.3767,-41.85179 -67.8131,-0.70449 -138.1885,5.36624 -197.3957,38.4362 -29.6035,16.53498 -55.8034,39.81072 -73.3925,68.80034 -17.5892,28.98963 -26.185,63.842 -21.4038,97.41158 z"
           id="path4181-0"
           inkscape:path-effect="#path-effect4183-8"
           inkscape:original-d="m -1948.3548,1018.02 c 5.8212,108.0029 176.0927,155.0884 284.2432,156.5008 111.135,1.4514 296.1875,-49.4655 296.1875,-153.1368 4.2976,-152.37475 -169.7556,-207.17488 -288.2387,-208.01212 -118.9074,-0.84024 -298.5918,85.91013 -292.192,204.64812 z"
           inkscape:connector-curvature="0"
           sodipodi:nodetypes="aacaa" />
        <path
           style="fill:none;fill-rule:evenodd;stroke:#000000;stroke-width:70;stroke-linecap:round;stroke-linejoin:round;stroke-miterlimit:4;stroke-dasharray:none;stroke-opacity:1"
           d="m -1619.6724,1174.4449 c 97.33,-1.8864 194.3187,-20.3099 285.561,-54.2439 147.3855,-54.8142 279.5772,-150.87286 375.06179,-275.81195 161.27349,-211.02215 209.41147,-502.10686 130.49381,-755.70396 -31.98763,-102.790305 -84.05928,-200.19482 -157.85047,-278.57795 -73.79123,-78.38314 -169.91813,-137.06296 -275.26673,-159.21528 -149.1351,-31.35957 -310.3804,14.00483 -427.6655,111.31313 -117.285,97.3083 -190.699,243.0764099 -208.959,394.375 -12.5627,104.09151 0.9276,213.99175 54.8132,303.93175 26.9429,44.97001 63.7529,84.30359 108.1472,112.18474 44.3943,27.88114 96.4357,44.04842 148.8589,43.89149 52.7559,-0.15793 105.0268,-16.85146 149.4129,-45.36602 44.3862,-28.51456 80.9504,-68.58296 107.3691,-114.24763 52.8376,-91.32932 64.1575,-202.38901 48.6195,-306.751 -21.8638,-146.8493939 -96.6039,-286.31581 -210.8477,-381.13739 -114.2437,-94.82157 -267.6701,-142.77492 -414.9231,-123.81886 -126.5597,16.29219 -246.1942,81.69265 -328.0564,179.57712 -81.8623,97.884467 -125.0807,227.290301 -118.2444,354.71111 5.0546,94.21171 36.9469,186.83522 90.9655,264.18754 54.0187,77.35232 129.9941,139.19061 216.7026,176.37968"
           id="path4185-0"
           inkscape:path-effect="#path-effect4187-8"
           inkscape:original-d="m -1619.6724,1174.4449 c 0,0 196.7367,-15.5432 285.561,-54.2439 142.2685,-61.9863 293.4386,-143.82603 375.06179,-275.81195 134.4535,-217.41343 207.14075,-511.83566 130.49381,-755.70396 -61.54946,-195.83224 -228.203,-425.53575 -433.1172,-437.79323 -270.5272,-16.18229 -595.6141,237.8036 -636.6245,505.68813 -28.0322,183.1098 126.5785,461.48324 311.8193,460.00798 185.818,-1.47985 334.2781,-282.80176 305.4015,-466.36465 -41.6517,-264.77269 -359.0219,-531.17204 -625.7708,-504.95625 -230.9457,22.69709 -436.2913,302.450463 -446.3008,534.28823 -7.7263,178.95318 307.6681,440.56722 307.6681,440.56722"
           inkscape:connector-curvature="0"
           sodipodi:nodetypes="caaaaaaaaac" />
        <path
           style="color:#000000;font-style:normal;font-variant:normal;font-weight:normal;font-stretch:normal;font-size:medium;line-height:normal;font-family:sans-serif;text-indent:0;text-align:start;text-decoration:none;text-decoration-line:none;text-decoration-style:solid;text-decoration-color:#000000;letter-spacing:normal;word-spacing:normal;text-transform:none;direction:ltr;block-progression:tb;writing-mode:lr-tb;baseline-shift:baseline;text-anchor:start;white-space:normal;clip-rule:nonzero;display:inline;overflow:visible;visibility:visible;opacity:1;isolation:auto;mix-blend-mode:normal;color-interpolation:sRGB;color-interpolation-filters:linearRGB;solid-color:#000000;solid-opacity:1;fill:#000000;fill-opacity:1;fill-rule:evenodd;stroke:none;stroke-width:70;stroke-linecap:round;stroke-linejoin:round;stroke-miterlimit:4;stroke-dasharray:none;stroke-dashoffset:0;stroke-opacity:1;color-rendering:auto;image-rendering:auto;shape-rendering:auto;text-rendering:auto;enable-background:accumulate"
           d="m -1086.832,2121.0879 c -81.1192,0.6275 -161.6678,20.4056 -234.8047,55.7031 -97.4703,-45.656 -207.1387,-64.9878 -314.6602,-51.1465 -135.5535,17.45 -262.7295,86.966 -350.4355,191.8379 -87.7118,104.8791 -133.6728,242.4722 -126.3457,379.0391 5.4109,100.851 39.3932,199.5481 97.2187,282.3515 57.8254,82.8035 138.7845,148.698 231.6035,188.5079 17.8364,7.9616 38.7378,-0.2152 46.437,-18.1664 7.6993,-17.9512 -0.783,-38.7305 -18.8452,-46.1657 -80.598,-34.5683 -151.5909,-92.3528 -201.8027,-164.2539 -50.2119,-71.9011 -80.0125,-158.451 -84.7109,-246.0234 -6.3457,-118.2748 34.132,-239.4929 110.1445,-330.3828 76.0186,-90.8971 188.1118,-152.182 305.6777,-167.3164 76.7408,-9.8789 155.8909,-0.05 229.4668,26.1308 -13.3024,9.2088 -26.3234,18.8272 -38.7754,29.1582 -124.9805,103.6929 -202.0807,257.3945 -221.3574,417.1172 -13.271,109.9601 0.5148,227.5996 59.5371,326.1133 29.5417,49.3078 69.9863,92.7042 119.5567,123.8359 49.6663,31.1923 107.8897,49.4306 167.5781,49.252 60.0699,-0.1798 118.5517,-19.0072 168.2246,-50.918 49.5766,-31.849 89.7635,-76.0686 118.748,-126.1679 57.91145,-100.0995 69.37675,-219.0453 52.94145,-329.4336 -23.0994,-155.1483 -101.66215,-302.112 -223.11135,-402.9141 -15.8964,-13.1939 -32.5215,-25.4836 -49.709,-36.9219 80.4096,-28.9995 167.8697,-37.4449 250.40434,-20.0898 97.3641,20.4733 187.61587,75.2698 256.98437,148.9551 69.5045,73.8297 119.26652,166.496 149.91602,264.9863 75.4599,242.4859 29.00189,522.6987 -124.88281,724.0527 -110.09002,119.1523 -238.97294,221.2324 -369.34372,267.8574 11.4851,-19.5784 19.5893,-41.3763 22.9199,-64.6523 6.0626,-42.3693 -4.411,-84.5407 -25.3457,-119.7559 -20.7975,-34.9844 -51.0434,-62.2204 -84.6348,-81.6562 -66.8494,-38.6787 -142.8636,-45.8328 -212.541,-46.5567 -70.153,-0.7288 -146.9026,4.9404 -214.8262,42.879 -34.1362,19.0666 -64.9732,46.1368 -86.248,81.2011 -21.4193,35.3022 -32.2165,77.7871 -26.1328,120.502 5.2929,37.1627 22.7925,70.5578 46.7558,97.1093 23.834,26.4082 53.4183,45.6157 84.4571,58.8868 61.8423,26.4414 127.0584,29.3956 187,30.5625 31.9701,0.6223 65.4294,0.7783 99.205,-2.7149 83.1969,-6.5766 165.4335,-24.6917 243.6817,-53.7929 153.49848,-57.0877 290.9773,-156.9182 390.6699,-287.3633 168.6623,-220.6902 218.4789,-522.6491 136.10352,-787.3574 -33.3258,-107.0904 -87.70726,-209.2335 -165.78516,-292.17 -78.2139,-83.0812 -180.21573,-145.6433 -293.54883,-169.4746 -30.14223,-6.3382 -60.65003,-9.7838 -91.15233,-10.5136 l 0,0 c -5.411,-0.1295 -10.8206,-0.1727 -16.2285,-0.1309 z m -234.3985,134.5566 c 29.0244,15.8813 56.586,34.3941 81.9727,55.4649 107.0381,88.841 177.9538,220.8087 198.582,359.3594 14.6407,98.3355 3.4667,201.5112 -44.2969,284.0703 -23.8531,41.2299 -56.7945,77.148 -95.9902,102.3281 -39.0995,25.1182 -85.1578,39.6765 -130.5996,39.8125 -45.1581,0.1351 -91.0183,-13.9611 -130.1406,-38.5313 -39.2184,-24.6304 -72.3944,-59.901 -96.7383,-100.5332 -48.7489,-81.3663 -61.9424,-183.527 -50.0879,-281.75 17.2433,-142.8745 86.9689,-280.7093 196.5586,-371.6328 22.0055,-18.2574 45.7787,-34.4424 70.7402,-48.5879 z m -72.5332,1107.7774 c 4.0776,-0.017 8.1638,0 12.2559,0.039 65.0421,0.6758 128.4483,8.3549 178.2129,37.1485 24.7157,14.3003 45.8942,33.9201 59.5195,56.8398 13.4882,22.6891 19.7019,49.7535 16.2227,74.0684 -3.1576,22.0672 -14.5252,44.1961 -30.9707,61.8203 -16.5874,17.7762 -38.6292,31.7739 -62.9786,41.3789 -26.1826,10.3283 -54.9088,15.6337 -85.1621,18.1582 -27.6128,1.8664 -55.184,2.2485 -81.7461,1.7441 -58.21,-1.1331 -114.0272,-4.9224 -160.8437,-24.9394 -23.2902,-9.9579 -44.256,-23.9685 -60.0098,-41.4238 -15.6249,-17.3125 -26.3833,-38.7461 -29.4218,-60.0801 -3.4786,-24.4243 2.9185,-51.6431 16.6777,-74.3203 13.9033,-22.9149 35.4661,-42.3951 60.5371,-56.3985 47.3349,-26.4388 106.5429,-33.7809 167.707,-34.0351 z"
           transform="translate(-515.01996,-755.09207)"
           id="path4181-0-3"
           inkscape:connector-curvature="0"
           sodipodi:nodetypes="ccsssscscsssscssssssssscsssccsssssssssscsssssccsccsssssssscccssssscccsssscc" />
        <path
           style="fill:none;fill-rule:evenodd;stroke:#000000;stroke-width:120;stroke-linecap:round;stroke-linejoin:round;stroke-miterlimit:4;stroke-dasharray:none;stroke-opacity:1"
           d="m 5559.3277,1552.1387 c 2.489,17.475 10.9287,33.8545 22.7532,46.9599 11.8245,13.1054 26.9238,23.0318 43.1526,29.9743 32.4575,13.885 68.6136,15.9065 103.9097,16.5937 36.4493,0.7097 73.89,0.024 107.8005,-13.3597 16.9552,-6.6921 32.8038,-16.5869 45.2379,-29.9158 12.434,-13.3288 21.3306,-30.1976 23.913,-48.2419 2.851,-19.9216 -2.1321,-40.6059 -12.4129,-57.9063 -10.2809,-17.3004 -25.6408,-31.3014 -43.0577,-41.3836 -34.8339,-20.1644 -76.4849,-24.6039 -116.7319,-25.022 -40.5176,-0.4209 -82.5661,3.2151 -117.9376,22.9814 -17.6857,9.8831 -33.3369,23.7933 -43.8435,41.1159 -10.5066,17.3227 -15.6401,38.1467 -12.7833,58.2041 z"
           id="path4181-4"
           inkscape:path-effect="#path-effect4183-6"
           inkscape:original-d="m 5559.3277,1552.1387 c 3.4779,64.5436 105.2029,92.6837 169.8155,93.5279 66.3957,0.8673 176.9514,-29.5615 176.9514,-91.5174 2.5676,-91.062 -101.4166,-123.8116 -172.2025,-124.3119 -71.0394,-0.5022 -178.3879,51.3424 -174.5644,122.3014 z"
           inkscape:connector-curvature="0"
           sodipodi:nodetypes="aacaa" />
        <path
           style="fill:none;fill-rule:evenodd;stroke:#000000;stroke-width:120;stroke-linecap:round;stroke-linejoin:round;stroke-miterlimit:4;stroke-dasharray:none;stroke-opacity:1"
           d="m 5755.6926,1645.6213 c 58.2595,0.5509 116.6058,-10.5358 170.6028,-32.4172 91.0866,-36.9113 168.4129,-104.1486 224.0732,-185.1494 89.4458,-130.1679 122.8903,-300.2106 77.961,-451.6226 -18.3279,-61.76504 -49.3879,-120.2345 -93.6367,-167.06265 -44.2487,-46.82814 -102.0124,-81.60269 -165.1207,-94.57064 -89.1179,-18.31257 -185.2535,8.85039 -255.3002,66.90907 -70.0466,58.05868 -114.0283,144.98828 -125.0385,235.29952 -7.5838,62.2064 0.453,127.9083 32.6593,181.6661 16.1031,26.8789 38.1094,50.3854 64.6488,67.0423 26.5393,16.6568 57.6488,26.3076 88.9821,26.2007 31.5225,-0.1076 62.7511,-10.0928 89.268,-27.1379 26.5168,-17.0452 48.3593,-40.9908 64.1411,-68.2783 31.5637,-54.5752 38.3261,-120.933 29.0472,-183.2918 -13.0564,-87.74543 -57.6954,-171.0866 -125.9459,-227.75755 -68.2505,-56.67095 -159.9233,-85.3406 -247.9087,-74.01371 -75.6253,9.73571 -147.108,48.82972 -196.0125,107.33032 -48.9046,58.50059 -74.7123,135.83063 -70.6212,211.97024 3.0248,56.2942 22.079,111.6386 54.35,157.8637 32.271,46.2252 77.6576,83.1863 129.4603,105.4273"
           id="path4185-5"
           inkscape:path-effect="#path-effect4187-4"
           inkscape:original-d="m 5755.6926,1645.6213 c 0,0 118.2088,-7.8033 170.6028,-32.4172 87.689,-41.1952 175.4593,-101.3265 224.0732,-185.1494 76.6372,-132.1422 123.7522,-305.8824 77.961,-451.6226 -36.7716,-117.03305 -136.3354,-254.30801 -258.7574,-261.63329 -161.621,-9.67084 -355.8378,142.11579 -380.3387,302.20859 -16.7474,109.4298 75.6218,275.7909 186.2902,274.9091 111.0134,-0.8843 199.708,-169.0075 182.4563,-278.708 -24.8841,-158.23302 -214.4907,-317.43829 -373.8546,-301.77126 -137.9739,13.56428 -260.6537,180.75004 -266.6337,319.30056 -4.6158,106.9458 183.8103,263.291 183.8103,263.291"
           inkscape:connector-curvature="0"
           sodipodi:nodetypes="caaaaaaaaac" />
        <path
           style="fill:none;fill-rule:evenodd;stroke:#000000;stroke-width:60;stroke-linecap:round;stroke-linejoin:round;stroke-miterlimit:4;stroke-dasharray:none;stroke-opacity:1"
           d="m 4407.6508,1547.9883 c 2.6374,18.5166 11.5802,35.8724 24.1097,49.7588 12.5294,13.8865 28.5289,24.4043 45.725,31.7604 34.3924,14.7122 72.7036,16.8536 110.1035,17.5818 38.6219,0.752 78.2943,0.026 114.2263,-14.1551 17.966,-7.0907 34.7593,-17.5752 47.9347,-31.6984 13.1753,-14.1232 22.6024,-31.9975 25.3386,-51.1173 3.0209,-21.109 -2.2594,-43.0261 -13.1532,-61.3576 -10.8938,-18.3314 -27.1695,-33.1667 -45.6246,-43.8496 -36.9104,-21.3657 -81.0439,-26.0692 -123.6898,-26.5122 -42.9326,-0.446 -87.4873,3.4061 -124.9674,24.35 -18.74,10.472 -35.3242,25.2111 -46.4572,43.5661 -11.133,18.355 -16.5727,40.4202 -13.5456,61.6731 z"
           id="path4181-4-0"
           inkscape:path-effect="#path-effect4183-6-2"
           inkscape:original-d="m 4407.6508,1547.9883 c 3.6858,68.3752 111.4696,98.2066 179.9382,99.101 70.3577,0.919 187.4996,-31.323 187.4996,-96.9708 2.7206,-96.4882 -107.4551,-131.1893 -182.4676,-131.7194 -75.2808,-0.532 -189.0224,54.4157 -184.9702,129.5892 z"
           inkscape:connector-curvature="0"
           sodipodi:nodetypes="aacaa" />
        <path
           style="fill:none;fill-rule:evenodd;stroke:#000000;stroke-width:60;stroke-linecap:round;stroke-linejoin:round;stroke-miterlimit:4;stroke-dasharray:none;stroke-opacity:1"
           d="m 4615.721,1647.0413 c 61.7309,0.5591 123.5488,-11.1871 180.7725,-34.3489 96.5399,-39.0755 178.5704,-110.2615 237.4303,-196.1822 90.2663,-131.7662 126.1461,-302.863 82.6083,-456.53403 -18.6369,-65.78069 -51.5095,-128.00075 -98.5632,-177.60298 -47.0537,-49.60223 -108.5895,-86.14829 -175.6188,-99.62063 -94.4376,-18.98118 -196.0984,9.83325 -270.3035,71.25265 -74.2051,61.4194 -120.9462,153.35858 -132.7074,248.96409 -8.1092,65.9188 0.3966,135.5653 34.5395,192.533 17.0715,28.4838 40.4039,53.3887 68.5383,71.0301 28.1343,17.6415 61.1096,27.8541 94.3172,27.7274 33.3982,-0.1274 66.4814,-10.7142 94.574,-28.777 28.0926,-18.0629 51.2342,-43.4329 67.957,-72.3433 33.4456,-57.8206 40.6237,-128.1246 30.8016,-194.19547 -13.8223,-92.97927 -61.1233,-181.29278 -133.4455,-241.34027 -72.3221,-60.04749 -169.4634,-90.41926 -262.6946,-78.41312 -80.1314,10.31917 -155.8729,51.74209 -207.6929,113.72765 -51.82,61.98557 -79.1683,143.92273 -74.835,224.59951 3.2039,59.6494 23.3935,118.2928 57.5884,167.2727 34.1949,48.9799 82.2878,88.1429 137.1789,111.7074"
           id="path4185-5-4"
           inkscape:path-effect="#path-effect4187-4-5"
           inkscape:original-d="m 4615.721,1647.0413 c 0,0 125.2572,-8.27 180.7725,-34.3489 92.9227,-43.6514 185.5631,-107.5828 237.4303,-196.1822 78.1302,-133.4618 128.3747,-308.8119 82.6083,-456.53403 -38.4628,-124.14787 -144.4624,-269.46181 -274.182,-277.22361 -171.2553,-10.24707 -377.0495,150.58425 -403.0109,320.21674 -17.7457,115.9506 80.1297,292.2248 197.395,291.2905 117.631,-0.937 211.6128,-179.0784 193.3326,-295.31577 -26.3674,-167.66186 -227.2765,-336.35396 -396.1401,-319.75339 -146.1986,14.37258 -276.1914,191.52072 -282.5279,338.32716 -4.891,113.3186 194.7673,278.9801 194.7673,278.9801"
           inkscape:connector-curvature="0"
           sodipodi:nodetypes="caaaaaaaaac" />
        <path
           style="color:#000000;font-style:normal;font-variant:normal;font-weight:normal;font-stretch:normal;font-size:medium;line-height:normal;font-family:sans-serif;text-indent:0;text-align:start;text-decoration:none;text-decoration-line:none;text-decoration-style:solid;text-decoration-color:#000000;letter-spacing:normal;word-spacing:normal;text-transform:none;direction:ltr;block-progression:tb;writing-mode:lr-tb;baseline-shift:baseline;text-anchor:start;white-space:normal;clip-rule:nonzero;display:inline;overflow:visible;visibility:visible;opacity:1;isolation:auto;mix-blend-mode:normal;color-interpolation:sRGB;color-interpolation-filters:linearRGB;solid-color:#000000;solid-opacity:1;fill:#000000;fill-opacity:1;fill-rule:evenodd;stroke:none;stroke-width:60;stroke-linecap:round;stroke-linejoin:round;stroke-miterlimit:4;stroke-dasharray:none;stroke-dashoffset:0;stroke-opacity:1;color-rendering:auto;image-rendering:auto;shape-rendering:auto;text-rendering:auto;enable-background:accumulate"
           d="m 6160.7695,2497.6719 c -1.7536,0.01 -3.5073,0.023 -5.2617,0.055 -12.8015,0.2313 -25.6169,1.1555 -38.3926,2.8007 -87.843,11.3123 -170.0509,56.2643 -226.8789,124.2403 -56.8328,67.9816 -86.5296,156.9375 -81.7754,245.4512 3.5095,65.338 25.4912,129.1848 62.9473,182.8359 37.456,53.651 89.8174,96.2896 149.9434,122.1015 15.2914,6.8567 33.235,-0.1419 39.8457,-15.5412 6.6108,-15.3994 -0.6745,-33.2285 -16.1778,-39.5916 -49.6562,-21.3171 -93.4802,-57.0056 -124.414,-101.3144 -30.9337,-44.3087 -49.3322,-97.7483 -52.2305,-151.709 -3.9124,-72.84 21.0873,-147.7587 67.8945,-203.748 46.812,-55.9952 116.0881,-93.8888 188.5078,-103.2149 42.6414,-5.4912 86.605,-1.0502 128.1934,11.7461 -4.4065,3.3205 -8.7816,6.6841 -13.0332,10.2031 -80.7665,66.8503 -130.7009,165.5599 -143.3535,268.4121 -8.7323,70.9836 0.026,147.2861 38.582,211.6172 19.3038,32.2085 45.7579,60.5989 78.334,81.0254 32.658,20.4781 70.9351,32.461 110.3691,32.3106 39.6622,-0.1513 78.0641,-12.5694 110.6836,-33.543 32.5372,-20.9206 58.7809,-49.8474 77.7012,-82.5566 37.7914,-65.3338 45.0958,-142.3917 34.5059,-213.627 -14.8797,-100.0927 -65.4566,-194.8362 -143.9551,-260.0117 -5.9609,-4.9492 -12.1183,-9.6454 -18.3672,-14.2168 45.2548,-13.8237 93.3842,-17.3134 139.0215,-8.1406 60.2312,12.1059 116.6343,45.39 159.7637,90.8554 43.2342,45.5759 73.9974,103.4822 91.4648,165.1348 40.7675,143.893 7.024,306.5655 -78.4941,431.4004 -53.164,77.6062 -126.1596,142.1977 -210.8653,179.7617 3.011,-7.9405 5.2334,-16.274 6.4746,-24.9473 4.1279,-28.8448 -2.9768,-57.2343 -17.0605,-80.9336 -13.9664,-23.5017 -34.1263,-41.6037 -56.3848,-54.4882 -44.231,-25.6034 -93.7684,-30.0831 -138.4043,-30.5469 l -0,0 c -44.9419,-0.4668 -94.9621,3.0421 -139.9121,28.1601 -22.6247,12.6428 -43.1837,30.6359 -57.4746,54.1973 -14.4145,23.7653 -21.7372,52.3711 -17.5938,81.4609 3.6033,25.2983 15.4333,47.7792 31.5352,65.625 15.9915,17.7235 35.6826,30.4696 56.1992,39.2461 40.8315,17.4667 83.1745,19.2515 121.3203,19.9942 12.4978,0.2433 25.4422,0.3852 38.6484,-0.064 62.2981,-0.7169 124.3304,-13.1385 182.0957,-36.5195 102.8072,-41.6123 189.0857,-116.7668 250.9239,-207.0352 95.0146,-138.6974 133.0307,-318.217 86.7226,-481.666 -19.8065,-69.9087 -54.7889,-136.4435 -105.6621,-190.0722 -50.978,-53.739 -117.6453,-93.5481 -191.4727,-108.3868 -73.5456,-14.782 -149.9258,-3.3923 -217.0117,28.0801 -49.2216,-22.6672 -103.1387,-35.0125 -157.5,-34.8398 z m 157.6875,102.4629 c 16.2323,9.2268 31.7034,19.7561 46.0196,31.6425 66.1459,54.9195 110.1707,136.8041 122.9355,222.67 9.0543,60.9065 2.004,124.4561 -27.0957,174.7636 -14.5254,25.1114 -34.565,46.9239 -58.2129,62.1289 -23.5657,15.1522 -51.3306,23.9083 -78.4648,24.0118 -26.9812,0.1029 -54.6551,-8.3396 -78.2657,-23.1446 -23.6927,-14.8563 -43.9029,-36.276 -58.7421,-61.0351 -29.7297,-49.6043 -37.9822,-112.5933 -30.4961,-173.4473 10.8698,-88.3587 54.4168,-173.529 122.0605,-229.5176 12.5916,-10.422 26.0883,-19.8055 40.2617,-28.0722 z m -41.6872,699.6409 c 43.2137,0.1369 81.942,5.0634 111.531,22.1911 14.6518,8.4813 27.044,20.0519 34.8652,33.2129 7.7033,12.9634 11.158,28.4086 9.2442,41.7812 -1.7387,12.1497 -8.1462,24.7918 -17.5782,34.9024 -9.5534,10.2403 -22.4994,18.531 -37.0097,24.2578 -21.0706,8.3158 -45.4194,11.2834 -65.8725,11.7821 -20.453,0.4987 -28.5461,0.4442 -36.7564,0.2843 -36.6541,-0.7137 -70.9354,-3.2122 -98.8887,-15.1699 -13.8755,-5.9356 -26.1847,-14.226 -35.252,-24.2754 -8.957,-9.9271 -15.0102,-22.1577 -16.6816,-33.8926 -1.9109,-13.416 1.6446,-28.9401 9.4961,-41.8848 7.975,-13.1485 20.5841,-24.6343 35.4394,-32.9355 28.134,-15.7213 64.2494,-20.3905 107.4632,-20.2536 z"
           transform="translate(-515.01996,-755.09207)"
           id="path4181-4-0-4"
           inkscape:connector-curvature="0"
           sodipodi:nodetypes="cssssscscsssscssssssssscsssscsssccsssssscssssscccsssssssssccscscscssssssc" />
        <path
           style="color:#000000;font-style:normal;font-variant:normal;font-weight:normal;font-stretch:normal;font-size:medium;line-height:normal;font-family:sans-serif;text-indent:0;text-align:start;text-decoration:none;text-decoration-line:none;text-decoration-style:solid;text-decoration-color:#000000;letter-spacing:normal;word-spacing:normal;text-transform:none;direction:ltr;block-progression:tb;writing-mode:lr-tb;baseline-shift:baseline;text-anchor:start;white-space:normal;clip-rule:nonzero;display:inline;overflow:visible;visibility:visible;opacity:1;isolation:auto;mix-blend-mode:normal;color-interpolation:sRGB;color-interpolation-filters:linearRGB;solid-color:#000000;solid-opacity:1;fill:#000000;fill-opacity:1;fill-rule:evenodd;stroke:none;stroke-width:120;stroke-linecap:round;stroke-linejoin:round;stroke-miterlimit:4;stroke-dasharray:none;stroke-dashoffset:0;stroke-opacity:1;color-rendering:auto;image-rendering:auto;shape-rendering:auto;text-rendering:auto;enable-background:accumulate"
           d="M 7720.166 1668.043 C 7718.5135 1668.0519 7716.8588 1668.0723 7715.2051 1668.1035 C 7701.9828 1668.353 7688.7252 1669.315 7675.4844 1671.0195 C 7584.4338 1682.741 7500.0204 1728.8946 7441.0996 1799.377 C 7382.1693 1869.8704 7351.6645 1961.2362 7356.5977 2053.0488 C 7360.2338 2120.7197 7382.8713 2186.4721 7421.6641 2242.0391 C 7460.4569 2297.6061 7514.3786 2341.5181 7576.6504 2368.2539 A 60.006 60.006 0 1 0 7623.9922 2257.9863 C 7582.6585 2240.2401 7545.8078 2210.2311 7520.0586 2173.3477 C 7494.3094 2136.4644 7478.8373 2091.5269 7476.4238 2046.6094 C 7473.1749 1986.1428 7494.2852 1922.8494 7533.1641 1876.3418 C 7572.0523 1829.8229 7630.6048 1797.787 7690.8047 1790.0371 C 7706.6016 1788.0035 7722.7172 1787.7111 7738.8418 1788.875 C 7677.2147 1854.8618 7639.4876 1940.2824 7628.6914 2028.8379 C 7619.8772 2101.1368 7628.4182 2180.1301 7669.4395 2248.6016 C 7690.002 2282.924 7718.246 2313.3975 7753.6641 2335.627 C 7789.2467 2357.9596 7830.9574 2371.1572 7874.7461 2371.0078 C 7918.8037 2370.8574 7960.6764 2357.2098 7996.252 2334.3418 C 8031.6627 2311.5796 8059.709 2280.5192 8079.8867 2245.6309 C 8120.1438 2176.0244 8127.1572 2096.154 8116.3418 2023.4688 C 8103.3245 1935.9865 8063.7258 1852.8127 8001.8574 1788.666 C 8020.358 1787.768 8038.7613 1789.0146 8056.5117 1792.6621 C 8105.9755 1802.8263 8153.5678 1831.0104 8190.0977 1869.6699 C 8226.8496 1908.5641 8253.8177 1958.6499 8269.8242 2012.5918 C 8308.9583 2144.474 8279.5201 2297.346 8199.9336 2413.166 C 8163.8127 2465.7316 8117.6035 2511.3797 8064.9395 2544.6328 C 8062.3661 2523.0198 8054.9848 2502.6974 8044.2812 2484.6855 C 8027.8555 2457.0446 8004.7268 2436.511 7979.7031 2422.0254 C 7930.2265 2393.3848 7877.7638 2389.3931 7833.5352 2388.9336 L 7833.5352 2388.9316 C 7788.9975 2388.469 7736.0177 2391.4176 7685.7051 2419.5332 C 7660.2501 2433.758 7636.6525 2454.1746 7619.8301 2481.9102 C 7602.7607 2510.0534 7593.8582 2543.9607 7598.9473 2579.6914 C 7603.3682 2610.7298 7617.5837 2637.3609 7636.5527 2658.3848 C 7655.301 2679.164 7677.7841 2693.5445 7700.6543 2703.3281 C 7745.9898 2722.7222 7790.2057 2724.0298 7826.9941 2724.7461 C 7839.6824 2724.9931 7853.2453 2725.184 7867.4238 2724.6562 C 7929.2009 2723.6002 7990.5486 2711.123 8047.8457 2687.9043 C 8151.4832 2645.9069 8237.2611 2570.7321 8298.834 2481.127 C 8398.139 2336.6112 8435.5917 2149.3969 8384.8672 1978.4551 C 8364.218 1908.8674 8329.0636 1842.0157 8277.3184 1787.2539 C 8225.351 1732.257 8157.417 1690.8909 8080.6641 1675.1191 C 8008.6123 1660.3134 7934.8123 1669.6331 7868.832 1697.6504 C 7821.9818 1678.1711 7771.3944 1667.7668 7720.166 1668.043 z M 7869.5371 1833.5742 C 7877.5821 1838.8801 7885.3463 1844.5767 7892.7246 1850.7031 C 7948.6246 1897.119 7986.712 1967.6067 7997.6523 2041.1309 C 8005.3946 2093.1631 7998.8841 2146.0088 7976.0137 2185.5527 C 7964.6279 2205.2394 7948.9901 2222.0703 7931.3672 2233.3984 C 7913.9089 2244.6206 7893.3253 2250.943 7874.3379 2251.0078 C 7855.46 2251.0718 7834.953 2244.9693 7817.457 2233.9883 C 7799.7963 2222.9039 7784.0265 2206.365 7772.3828 2186.9297 C 7748.9914 2147.8856 7741.4591 2095.4732 7747.8125 2043.3594 C 7757.0595 1967.5107 7794.688 1894.1496 7851.5801 1846.9941 C 7857.3217 1842.2353 7863.3551 1837.8054 7869.5371 1833.5742 z M 7825.5078 2508.9102 C 7827.7456 2508.8965 7830.006 2508.9021 7832.2871 2508.9258 L 7832.2891 2508.9258 C 7868.5546 2509.3025 7899.3927 2514.1907 7919.584 2525.8789 C 7929.394 2531.5577 7936.9851 2539.0265 7941.1211 2545.9863 C 7945.0222 2552.5512 7946.3556 2560.2899 7945.7188 2564.7402 C 7945.1313 2568.8449 7942.2755 2575.2512 7937.3281 2580.5547 C 7932.1378 2586.1184 7923.9807 2591.6231 7913.9355 2595.5879 C 7898.8447 2601.5439 7879.0724 2604.065 7855.8047 2604.7168 C 7855.6283 2604.7154 7855.4517 2604.7165 7855.2754 2604.7148 A 60.006 60.006 0 0 0 7852.0391 2604.8027 C 7844.7777 2604.9427 7837.2084 2604.9229 7829.3301 2604.7695 C 7795.5263 2604.1114 7767.4311 2601.3759 7747.8516 2593 C 7738.2642 2588.8986 7730.5491 2583.4276 7725.6484 2577.9961 C 7720.9684 2572.8091 7718.3052 2566.6811 7717.748 2562.7695 C 7717.1236 2558.3854 7718.4879 2550.6447 7722.4316 2544.1426 C 7726.6225 2537.2329 7734.3258 2529.8285 7744.2422 2524.2871 C 7763.3958 2513.5837 7791.9414 2509.1145 7825.5078 2508.9102 z "
           transform="translate(-515.01996,-755.09207)"
           id="path4181-4-6" />
        <path
           style="color:#000000;font-style:normal;font-variant:normal;font-weight:normal;font-stretch:normal;font-size:medium;line-height:normal;font-family:sans-serif;text-indent:0;text-align:start;text-decoration:none;text-decoration-line:none;text-decoration-style:solid;text-decoration-color:#000000;letter-spacing:normal;word-spacing:normal;text-transform:none;direction:ltr;block-progression:tb;writing-mode:lr-tb;baseline-shift:baseline;text-anchor:start;white-space:normal;clip-rule:nonzero;display:inline;overflow:visible;visibility:visible;opacity:1;isolation:auto;mix-blend-mode:normal;color-interpolation:sRGB;color-interpolation-filters:linearRGB;solid-color:#000000;solid-opacity:1;fill:#000000;fill-opacity:1;fill-rule:evenodd;stroke:none;stroke-width:200;stroke-linecap:round;stroke-linejoin:round;stroke-miterlimit:4;stroke-dasharray:none;stroke-dashoffset:0;stroke-opacity:1;color-rendering:auto;image-rendering:auto;shape-rendering:auto;text-rendering:auto;enable-background:accumulate"
           d="M 9203.3828 289.31641 C 9125.5302 288.91925 9048.8117 305.53049 8977.9238 335.88867 C 8884.5208 296.96419 8781.5728 280.96098 8678.7695 293.91992 C 8532.5692 312.3493 8398.0349 387.91109 8305.6328 502.15625 C 8213.2929 616.32446 8167.8193 762.98059 8178.2637 909.02148 C 8185.7851 1014.19 8221.8454 1115.9669 8282.2129 1202.4121 C 8342.5802 1288.8573 8425.7125 1357.7611 8521.8574 1401.041 A 100.01 100.01 0 1 0 8603.9531 1218.668 C 8541.2938 1190.4617 8485.5299 1144.2421 8446.1875 1087.9043 A 100.01 100.01 0 0 0 8446.1875 1087.9023 C 8406.845 1031.5645 8382.6557 963.29412 8377.7539 894.75391 C 8371.0119 800.48341 8401.9663 701.08313 8461.1348 627.92773 C 8520.2411 554.84929 8610.9498 504.05178 8703.7832 492.34961 C 8723.9258 489.81052 8744.4336 489.09081 8765.0176 490.07422 C 8670.9615 596.07124 8615.0834 731.07593 8599.7969 869.64844 C 8587.3922 982.09755 8600.6308 1105.2804 8664.7754 1212.9102 C 8696.9463 1266.8904 8741.1705 1315.0206 8796.9355 1350.2773 C 8852.9866 1385.715 8918.8349 1406.7922 8988.2363 1406.582 C 9058.0821 1406.3705 9124.2208 1384.6203 9180.2988 1348.3516 C 9236.0901 1312.2683 9280.0413 1263.2086 9311.6289 1208.3145 C 9374.6165 1098.852 9385.4388 974.2037 9369.7891 861.0293 C 9350.8614 724.14906 9291.7229 592.85526 9197.1719 489.97266 C 9221.2992 489.51028 9245.204 491.42989 9268.3008 496.24219 C 9344.2146 512.05905 9417.5413 556.94428 9473.1094 618.19531 C 9529.1056 679.91811 9569.5901 759.28767 9593.4473 844.65625 C 9650.5737 1049.0721 9607.5002 1283.553 9486.3184 1461.166 C 9433.2997 1538.8742 9365.5647 1606.6073 9288.457 1656.9551 C 9283.359 1626.4548 9272.3074 1597.7819 9257.0215 1572.0684 C 9230.8388 1528.0241 9194.0791 1495.4448 9154.4043 1472.4883 C 9076.0068 1427.1271 8993.442 1421.0097 8924.4453 1420.293 C 8854.9644 1419.5712 8771.5844 1424.0444 8691.8555 1468.5781 C 8651.4929 1491.1233 8613.9835 1523.5183 8587.166 1567.7188 C 8559.9361 1612.5989 8545.6911 1666.6788 8553.8398 1723.8926 C 8560.9178 1773.5884 8583.6327 1816.063 8613.873 1849.5703 C 8643.7454 1882.6697 8679.4593 1905.4744 8715.6836 1920.9629 C 8787.4568 1951.6513 8856.9214 1953.5803 8914.0996 1954.6934 C 8934.8036 1955.0964 8957.0774 1955.4432 8980.4941 1954.459 C 9075.8928 1952.3404 9170.5421 1932.9008 9259.0801 1897.1309 C 9421.1812 1831.641 9555.6331 1714.4364 9651.5273 1573.8867 C 9805.7987 1347.7751 9860.4863 1057.1163 9786.0684 790.82617 C 9755.1637 680.23927 9701.9483 572.78086 9621.2344 483.8125 C 9540.0926 394.37236 9432.368 326.13145 9309.0957 300.44727 C 9276.4491 293.64524 9243.6051 290.03649 9210.9199 289.4082 C 9208.4063 289.35989 9205.8942 289.32922 9203.3828 289.31641 z M 8979.5977 563.64844 C 8991.3365 571.74919 9002.6397 580.43253 9013.3965 589.69141 C 9098.6193 663.04683 9155.7934 773.58119 9171.6738 888.42383 C 9182.7517 968.53609 9172.6124 1048.9042 9138.2812 1108.5664 C 9121.2095 1138.2346 9097.8147 1163.5136 9071.6836 1180.4141 C 9045.8394 1197.129 9015.3475 1206.4981 8987.6309 1206.582 C 8960.0799 1206.6654 8929.7116 1197.6017 8903.8145 1181.2285 C 8877.6313 1164.6745 8854.0444 1139.8232 8836.5801 1110.5195 C 8801.4545 1051.5814 8789.7349 971.86563 8798.5918 891.57812 C 8811.6803 772.93062 8867.8901 657.75109 8954.5352 583.19727 C 8962.5498 576.30108 8970.9807 569.85752 8979.5977 563.64844 z M 8911.957 1620.2617 C 8915.3903 1620.2401 8918.8605 1620.2468 8922.3672 1620.2832 C 8978.119 1620.8624 9024.6575 1628.4816 9054.2422 1645.5996 C 9068.5582 1653.883 9079.4158 1664.6933 9085.1074 1674.2676 C 9090.4073 1683.1829 9092.0476 1693.6596 9091.3203 1698.7422 C 9090.644 1703.4683 9086.9226 1712.1726 9080.1309 1719.4512 C 9072.9341 1727.1639 9061.1913 1735.1807 9046.4297 1741.0039 C 9024.1322 1749.7997 8994.2176 1753.6473 8958.459 1754.6484 C 8958.3216 1754.6474 8958.1842 1754.6477 8958.0469 1754.6465 A 100.01 100.01 0 0 0 8954.0801 1754.7539 C 8942.6057 1754.9988 8930.5738 1754.9773 8917.9922 1754.7324 C 8865.7633 1753.7157 8823.1555 1749.399 8794.3125 1737.0664 C 8780.2285 1731.0445 8769.1332 1723.0907 8762.3477 1715.5723 C 8755.9303 1708.4615 8752.4786 1700.1648 8751.8418 1695.6934 C 8751.1359 1690.737 8752.812 1680.2713 8758.1562 1671.4629 C 8763.9127 1661.9751 8774.9234 1651.2635 8789.3848 1643.1855 C 8817.4355 1627.5174 8860.4577 1620.5867 8911.957 1620.2617 z "
           transform="translate(-515.01996,-755.09207)"
           id="path4181-3" />
      </g>
    </g>
  </g>
</svg>
