<?xml version="1.0" encoding="UTF-8" standalone="no"?>
<!-- Created with Inkscape (http://www.inkscape.org/) -->

<svg
   xmlns:dc="http://purl.org/dc/elements/1.1/"
   xmlns:cc="http://creativecommons.org/ns#"
   xmlns:rdf="http://www.w3.org/1999/02/22-rdf-syntax-ns#"
   xmlns:svg="http://www.w3.org/2000/svg"
   xmlns="http://www.w3.org/2000/svg"
   xmlns:sodipodi="http://sodipodi.sourceforge.net/DTD/sodipodi-0.dtd"
   xmlns:inkscape="http://www.inkscape.org/namespaces/inkscape"
   width="2000"
   height="2000"
   id="svg2992"
   version="1.1"
   inkscape:version="0.91 r13725"
   sodipodi:docname="ത്ഥ.svg">
  <defs
     id="defs5498">
    <inkscape:path-effect
       effect="spiro"
       id="path-effect2987"
       is_visible="true" />
    <inkscape:path-effect
       effect="spiro"
       id="path-effect4141-3-4-6-8-86"
       is_visible="true" />
    <inkscape:path-effect
       effect="spiro"
       id="path-effect4141-37-3-0-3-4"
       is_visible="true" />
    <inkscape:path-effect
       effect="spiro"
       id="path-effect4141-37-3-0-3-4-3"
       is_visible="true" />
    <inkscape:path-effect
       effect="spiro"
       id="path-effect4141-37-3-0-3-4-39"
       is_visible="true" />
    <inkscape:path-effect
       effect="spiro"
       id="path-effect4141-37-3-0-3-4-39-4"
       is_visible="true" />
    <inkscape:path-effect
       effect="spiro"
       id="path-effect4141-37-3-0-3-4-8"
       is_visible="true" />
  </defs>
  <sodipodi:namedview
     inkscape:window-height="844"
     inkscape:window-width="1600"
     inkscape:pageshadow="2"
     inkscape:pageopacity="0.0"
     borderopacity="1.0"
     bordercolor="#666666"
     pagecolor="#ffffff"
     id="base"
     showgrid="true"
     showguides="true"
     inkscape:guide-bbox="true"
     inkscape:zoom="0.1135"
     inkscape:cx="848.44716"
     inkscape:cy="-536.67669"
     inkscape:window-x="1600"
     inkscape:window-y="0"
     inkscape:current-layer="layer1"
     inkscape:window-maximized="1"
     inkscape:snap-nodes="false"
     inkscape:snap-grids="false">
    <sodipodi:guide
       orientation="horizontal"
       position="0,600"
       id="guide5596" />
    <inkscape:grid
       type="xygrid"
       id="grid3769"
       empspacing="5"
       visible="true"
       enabled="true"
       snapvisiblegridlinesonly="true" />
    <sodipodi:guide
       orientation="0,1"
       position="-2720,1600"
       id="guide4772" />
  </sodipodi:namedview>
  <metadata
     id="metadata5594">
    <rdf:RDF>
      <cc:Work
         rdf:about="">
        <dc:format>image/svg+xml</dc:format>
        <dc:type
           rdf:resource="http://purl.org/dc/dcmitype/StillImage" />
        <dc:title />
      </cc:Work>
    </rdf:RDF>
  </metadata>
  <g
     inkscape:label="Layer 1"
     inkscape:groupmode="layer"
     id="layer1"
     transform="translate(0,1000)">
    <path
       style="fill:none;fill-rule:evenodd;stroke:#000000;stroke-width:140;stroke-linecap:round;stroke-linejoin:round;stroke-miterlimit:4;stroke-dasharray:none;stroke-opacity:1"
       d="m 1806.3722,294.33493 -2.7198,-318.042599 c -0.5586,-65.317364 -0.4262,-131.081831 11.6665,-195.272461 12.0927,-64.19063 36.2736,-126.56653 74.5645,-179.4861 38.2908,-52.91957 90.3908,-95.82144 149.896,-122.76208 59.5053,-26.94065 125.9367,-37.92619 191.08,-33.12778 57.8756,4.26308 114.9574,20.95439 165.3069,49.8107 50.3496,28.85631 93.6197,69.87707 125.3702,118.4535 31.7504,48.57644 51.7504,104.30443 61.912,161.44025 10.1617,57.13582 10.5493,115.50104 10.3677,173.533171 l -1.188,379.677099 -1277.1183,5.24087 c 139.9096,-67.79906 242.0706,-208.23423 263.5019,-362.221555 21.4313,-153.987325 -38.4998,-316.981765 -154.5789,-420.408215 -70.881,-63.15495 -160.8898,-104.27929 -254.8597,-117.78202 -93.9699,-13.50274 -191.55494,0.49642 -278.46109,38.7062 -86.90614,38.20978 -162.95201,100.38424 -218.71258,177.21799 -55.76058,76.83375 -91.22175,168.07363 -103.26182,262.24211 -12.25323,95.835669 0.61387,197.25466 50.84431,279.7866 25.11521,41.26597 59.33931,77.22993 100.44566,102.60556 41.10634,25.37562 89.14322,39.93049 137.44983,39.57654 48.45747,-0.35505 96.42021,-15.70743 137.24021,-41.82217 40.81998,-26.11474 74.55098,-62.75674 99.05438,-104.56388 49.0067,-83.61429 60.2201,-185.5271512 46.5025,-281.46899 -13.1825,-92.19879 -48.6126,-181.29912 -103.4511,-256.57947 -54.83857,-75.28034 -129.08627,-136.50646 -214.00059,-174.7681 -84.91432,-38.26163 -180.33983,-53.31855 -272.7512,-41.71967 -92.41136,11.59887 -181.48807,49.9873 -252.51879,110.22874 -61.9069,52.50349 -109.86219,121.30931 -137.69391,197.56202 -27.83173,76.25272 -35.47423,159.772426 -21.94392,239.80999 13.53032,80.037564 48.20153,156.40416 99.5514,219.27126 51.34987,62.8671 119.25725,112.08639 194.98232,141.32325"
       id="path4139-9-6-5-4-9"
       inkscape:path-effect="#path-effect4141-37-3-0-3-4"
       inkscape:original-d="m 1806.3722,294.33493 -2.7198,-318.042599 c -1.5358,-179.597101 200.2053,-536.663201 427.207,-530.648421 206.7515,5.47822 365.305,-247.22212 362.9568,503.237621 l -1.188,379.677099 -1277.1183,5.24087 c 0,0 317.9677,-617.06641 108.923,-782.62977 -242.5235,-192.0786 -768.02668,63.57447 -855.29519,360.38428 -48.07615,163.512284 118.3118,423.33597 288.7398,421.9687 C 1028.8282,332.15125 1189.575,69.480864 1140.6746,-94.33233 1053.1925,-387.39158 538.46183,-646.0949 297.95292,-457.17083 85.813291,-290.53133 432.84881,340.79569 432.84881,340.79569"
       inkscape:connector-curvature="0"
       sodipodi:nodetypes="csasccaaaaac" />
    <path
       style="color:#000000;font-style:normal;font-variant:normal;font-weight:normal;font-stretch:normal;font-size:medium;line-height:normal;font-family:sans-serif;text-indent:0;text-align:start;text-decoration:none;text-decoration-line:none;text-decoration-style:solid;text-decoration-color:#000000;letter-spacing:normal;word-spacing:normal;text-transform:none;direction:ltr;block-progression:tb;writing-mode:lr-tb;baseline-shift:baseline;text-anchor:start;white-space:normal;clip-rule:nonzero;display:inline;overflow:visible;visibility:visible;opacity:1;isolation:auto;mix-blend-mode:normal;color-interpolation:sRGB;color-interpolation-filters:linearRGB;solid-color:#000000;solid-opacity:1;fill:#000000;fill-opacity:1;fill-rule:evenodd;stroke:none;stroke-width:140;stroke-linecap:round;stroke-linejoin:round;stroke-miterlimit:4;stroke-dasharray:none;stroke-dashoffset:0;stroke-opacity:1;color-rendering:auto;image-rendering:auto;shape-rendering:auto;text-rendering:auto;enable-background:accumulate"
       d="m 1517.5938,445.55469 c -80.9943,-0.003 -161.5716,17.09199 -235.6817,49.67578 -2.761,1.21391 -5.4729,2.52406 -8.2129,3.7793 -0.9208,-0.42064 -1.8229,-0.87699 -2.7461,-1.29297 -96.5516,-43.50531 -204.4777,-60.62815 -310.22458,-47.35547 -105.83276,13.28343 -207.21834,56.87321 -289.07813,126.29883 -71.31476,60.48233 -126.11258,139.10659 -158.17383,226.94726 -32.06126,87.84068 -40.79546,183.27781 -25.20898,275.47848 15.58649,92.2007 55.20599,179.4639 114.35937,251.8848 59.1534,72.4209 136.7496,128.6638 223.98243,162.3438 a 70.007,70.007 0 1 0 50.42578,-130.6036 c -64.21731,-24.7938 -122.43413,-66.9894 -165.98047,-120.3027 -43.54634,-53.3133 -73.27,-118.7838 -84.74414,-186.6582 -11.47414,-67.87445 -4.92251,-139.47589 18.67968,-204.14062 23.6022,-64.66475 64.71386,-123.65309 117.21289,-168.17774 60.20165,-51.05726 136.97096,-84.24585 215.96094,-94.16016 48.46744,-6.08332 98.37164,-3.51861 146.62304,6.95118 -33.4809,29.67449 -63.7575,62.93983 -90.0664,99.1914 -62.94702,86.73609 -102.53145,188.8011 -116.04297,294.47852 -13.82298,108.11322 -0.22873,225.30622 60.48243,325.05862 30.40754,49.9617 71.98644,93.9952 123.47074,125.7773 51.6677,31.8954 112.0282,50.4692 174.7343,50.0098 62.9028,-0.461 123.1523,-20.038 174.4493,-52.8555 51.1128,-32.6995 92.0708,-77.5413 121.7226,-128.1328 59.1984,-101.0029 70.8635,-218.6647 55.4063,-326.77344 -14.7755,-103.34032 -54.2988,-202.95753 -116.1661,-287.88672 -26.3587,-36.1843 -56.6532,-69.4204 -90.1621,-99.05468 51.3061,-11.21577 104.5326,-13.53468 155.9766,-6.14258 80.3927,11.5518 158.0741,47.14281 218.248,100.75781 97.7409,87.08712 149.8601,228.83385 131.8145,358.49411 -18.0456,129.6605 -106.8907,251.7907 -224.6973,308.8789 a 70.007,70.007 0 0 0 30.8145,132.9922 l 1277.1172,-5.2402 a 70.007,70.007 0 0 0 69.7129,-69.7813 l 1.1875,-379.6777 c 0.183,-58.49068 0.1,-121.08272 -11.4473,-186.00781 -11.5602,-64.99995 -34.4371,-129.65163 -72.2363,-187.48242 a 70.007,70.007 0 0 0 -0,0 c -37.8116,-57.84955 -88.9872,-106.40272 -149.1562,-140.88672 -60.0488,-34.41518 -127.1082,-53.88995 -194.9707,-58.88867 -76.4265,-5.62952 -154.2695,7.10272 -225.0938,39.16797 -70.9564,32.12513 -132.3006,82.70394 -177.7363,145.49805 -45.4,62.74466 -72.9362,134.79381 -86.6445,207.56054 -13.6859,72.64718 -13.4359,143.01635 -12.8731,208.83006 l 2.4395,285.1817 -216.7598,0.8906 c 68.3029,-78.9791 114.4186,-176.8965 129.0098,-281.7363 24.817,-178.31431 -42.9265,-362.55458 -177.3438,-482.32035 -81.588,-72.69492 -183.9236,-119.35296 -291.4707,-134.80664 -26.8664,-3.86049 -53.9121,-5.76073 -80.9101,-5.76172 z m 1106.8613,156.24609 c 6.7531,0.0845 13.5038,0.37518 20.2363,0.8711 47.8886,3.52744 94.9924,17.43498 135.6426,40.73242 40.5302,23.2286 75.8926,56.71622 101.582,96.01953 25.7016,39.32207 42.8249,86.12675 51.5879,135.39844 8.7764,49.34655 9.4673,103.48306 9.2871,161.05663 l -0.9707,310.1816 -646.7519,2.6543 -2.4454,-285.8046 c -0.5543,-64.82103 -0.041,-125.98082 10.459,-181.71489 10.4771,-55.61452 31.3046,-108.31568 62.4864,-151.41015 31.1459,-43.04504 74.0027,-78.2712 122.0566,-100.02735 42.163,-19.08903 89.5579,-28.54852 136.8301,-27.95703 z M 1273.6074,658.4375 c 48.6316,31.50908 91.8045,72.12825 126.0098,119.08398 47.8097,65.63151 79.1468,144.21421 90.7363,225.27152 11.978,83.775 1.2156,169.9385 -37.5996,236.164 -19.3548,33.023 -45.8576,61.4643 -76.3848,80.9942 -30.343,19.4121 -66.019,30.5417 -100.0312,30.791 -33.9071,0.2484 -69.6212,-10.2887 -100.166,-29.1445 -30.7286,-18.9693 -57.5971,-46.8634 -77.4199,-79.4336 -39.7498,-65.3115 -51.8886,-150.9575 -41.2051,-234.5157 10.5685,-82.65952 41.9063,-163.07441 90.4804,-230.00582 34.0554,-46.92564 77.0425,-87.65466 125.5801,-119.20508 z"
       id="path4139-9-6-5-4-9-5"
       inkscape:connector-curvature="0" />
    <path
       style="fill:none;fill-rule:evenodd;stroke:#000000;stroke-width:69.99999237;stroke-linecap:round;stroke-linejoin:round;stroke-miterlimit:4;stroke-dasharray:none;stroke-opacity:1"
       d="m -1032.608,335.57283 -2.8051,-328.4813571 c -0.5885,-68.9159009 -0.5498,-138.2493329 11.3681,-206.1294629 11.9179,-67.88013 35.85792,-134.1515 74.57239,-191.1685 38.71447,-57.01699 92.02256,-104.23844 153.93768,-134.50833 61.91511,-30.26989 132.00098,-43.46942 200.72215,-38.25902 61.25002,4.64394 121.40525,23.85325 173.73325,56.02328 52.32801,32.17003 96.52119,77.21784 128.58362,129.61183 32.06244,52.394 51.85041,111.75267 61.86861,172.35602 10.01821,60.60335 10.34223,122.338192 10.15031,183.763709 l -1.22524,392.138821 -1317.15707,5.41289 c 144.6576,-69.87796 250.3297,-214.97956 272.444,-374.1011958 22.1144,-159.1216342 -39.9855,-327.5397942 -160.106,-434.2159742 -73.189,-64.99741 -166.0475,-107.26494 -262.9524,-121.07545 -96.9049,-13.8105 -197.5008,0.7117 -287.084,40.15979 -89.5831,39.44809 -167.9679,103.56873 -225.4689,182.78316 -57.501,79.21442 -94.1045,173.26261 -106.6043,270.345274 -12.7387,98.93829 0.4473,203.668016 52.2463,288.920156 25.8995,42.62607 61.2131,79.78222 103.6432,106.00162 42.43,26.21941 92.0265,41.2614 141.9027,40.89674 50.0332,-0.3658 99.5547,-16.23055 141.6903,-43.21296 42.1356,-26.98241 76.941,-64.839 102.2093,-108.02433 50.5365,-86.37067 62.0147,-191.611621 47.7634,-290.660761 -13.6761,-95.051379 -50.2476,-186.894409 -106.7987,-264.507419 -56.551,-77.61301 -133.0832,-140.75547 -220.6131,-180.25624 -87.5299,-39.50077 -185.8988,-55.1125 -281.1954,-43.26526 -95.2966,11.84724 -187.192,51.29208 -260.5345,113.28137 -64.0626,54.14584 -113.7155,125.18636 -142.5509,203.95375 -28.8355,78.7674 -36.7852,165.074797 -22.8231,247.784214 13.962,82.709416 49.8027,161.624626 102.8967,226.561616 53.0941,64.93698 123.3155,115.74167 201.6022,145.85772"
       id="path4139-9-6-5-4-9-8"
       inkscape:path-effect="#path-effect4141-37-3-0-3-4-39"
       inkscape:original-d="m -1032.608,335.57283 -2.8051,-328.4813571 c -1.5839,-185.4918129 200.52307,-576.4713929 440.60032,-570.0653129 219.42274,5.85495 376.7576,-233.33639 374.33579,541.754839 l -1.22524,392.138821 -1317.15707,5.41289 c 0,0 327.9364,-637.31971 112.338,-808.31717 -250.1269,-198.38298 -792.105,65.66111 -882.1096,372.212774 -49.5833,168.879086 122.0211,437.230656 297.7922,435.818516 176.3101,-1.41647 342.0964,-272.70818 291.663,-441.898051 -90.2248,-302.678009 -621.0925,-569.872459 -869.1417,-374.747549 -218.7905,172.10892 139.1249,824.1573 139.1249,824.1573"
       inkscape:connector-curvature="0"
       sodipodi:nodetypes="csasccaaaaac" />
    <path
       style="color:#000000;font-style:normal;font-variant:normal;font-weight:normal;font-stretch:normal;font-size:medium;line-height:normal;font-family:sans-serif;text-indent:0;text-align:start;text-decoration:none;text-decoration-line:none;text-decoration-style:solid;text-decoration-color:#000000;letter-spacing:normal;word-spacing:normal;text-transform:none;direction:ltr;block-progression:tb;writing-mode:lr-tb;baseline-shift:baseline;text-anchor:start;white-space:normal;clip-rule:nonzero;display:inline;overflow:visible;visibility:visible;opacity:1;isolation:auto;mix-blend-mode:normal;color-interpolation:sRGB;color-interpolation-filters:linearRGB;solid-color:#000000;solid-opacity:1;fill:#000000;fill-opacity:1;fill-rule:evenodd;stroke:none;stroke-width:69.99999237;stroke-linecap:round;stroke-linejoin:round;stroke-miterlimit:4;stroke-dasharray:none;stroke-dashoffset:0;stroke-opacity:1;color-rendering:auto;image-rendering:auto;shape-rendering:auto;text-rendering:auto;enable-background:accumulate"
       d="m -1103.4512,1557.1836 c -65.7072,-0.6149 -131.3854,13.9636 -190.5976,42.9121 -67.6971,33.0966 -125.4643,84.351 -167.5215,146.291 -42.0279,61.8967 -67.4624,132.856 -80.0899,204.7774 -12.6176,71.8656 -12.4848,143.351 -11.8945,212.4804 l 2.8067,328.4805 a 35.003496,35.003496 0 0 0 0.1582,3.5234 l -352.3438,1.4473 c 100.5945,-83.2945 169.9446,-203.5679 188.043,-333.793 23.8077,-171.3054 -42.2133,-350.3588 -171.5313,-465.2031 -78.5461,-69.755 -177.5677,-114.7794 -281.2558,-129.5566 -103.6473,-14.7714 -210.5989,0.7133 -306.127,42.7793 -7.8892,3.474 -15.6605,7.1887 -23.375,11.0117 -5.9992,-2.966 -12.0463,-5.8421 -18.1523,-8.5977 -93.3398,-42.1227 -197.9517,-58.7712 -299.9102,-46.0957 -102.0014,12.6808 -200.0503,54.7149 -278.8105,121.2832 -68.7802,58.1332 -121.8653,134.0846 -152.8243,218.6524 -30.9589,84.5677 -39.4589,176.8424 -24.4687,265.6426 14.9903,88.8001 53.3087,173.1716 110.3125,242.8906 57.0038,69.7188 132.0811,124.0353 216.1328,156.3691 a 35.003496,35.003496 0 1 0 25.1328,-65.332 c -72.5217,-27.8984 -137.8881,-75.1908 -187.0722,-135.3457 -49.1842,-60.1551 -82.5485,-133.6157 -95.4825,-210.2344 -12.9338,-76.6188 -5.5323,-156.9589 21.1797,-229.9258 26.7121,-72.967 72.9304,-139.0953 132.2754,-189.2539 67.9248,-57.4102 153.668,-94.2676 242.2598,-105.2812 78.9113,-9.8103 160.5702,0.7152 235.209,29.1562 -54.7011,38.0936 -102.928,85.3589 -142.0938,139.3145 -61.0894,84.1578 -99.7548,183.6091 -112.9941,286.4355 -13.5288,105.075 0.013,217.694 57.0488,311.5645 28.5439,46.9782 67.535,88.1742 115.1563,117.6015 47.7132,29.4843 103.4744,46.5384 160.5566,46.1211 57.2624,-0.4186 112.9319,-18.3976 160.3086,-48.7363 47.2843,-30.2796 85.7023,-72.2423 113.543,-119.8242 55.6285,-95.0732 67.3254,-208.1899 52.1992,-313.3203 -14.4761,-100.6116 -53.0936,-197.7051 -113.1543,-280.1348 -39.2421,-53.8576 -87.5034,-101.0496 -142.2285,-139.084 77.8241,-29.7747 163.3419,-40.0646 245.5019,-28.3554 90.1217,12.8437 176.8186,52.3558 244.6504,112.5957 110.923,98.5081 169.1008,256.2907 148.6797,403.2285 -20.421,146.9378 -119.4187,282.8748 -253,347.4023 a 35.003496,35.003496 0 0 0 15.3672,66.5156 l 1317.15623,-5.4121 a 35.003496,35.003496 0 0 0 34.85742,-34.8906 l 1.22461,-392.1387 c 0.19254,-61.6218 0.003,-125.325 -10.61914,-189.582 -10.62794,-64.2919 -31.68776,-127.9519 -66.54688,-184.916 -34.87431,-56.989 -82.84874,-105.9601 -140.10546,-141.1602 -57.22746,-35.1821 -122.63538,-56.0421 -189.41798,-61.1054 -9.3692,-0.7104 -18.7558,-1.1095 -28.1426,-1.1973 z m -0.6386,70.0059 c 7.8416,0.069 15.6771,0.398 23.4882,0.9902 55.7175,4.2244 110.62032,21.7814 158.04887,50.9394 47.39929,29.14 87.80998,70.2654 117.06054,118.0645 29.26575,47.8239 47.78295,102.88 57.19141,159.7949 9.41422,56.9496 9.87296,116.7181 9.68164,177.9473 l -1.11719,357.3906 -741.17967,3.0449 a 35.003496,35.003496 0 0 0 0.164,-3.834 l -2.8046,-328.4804 c -0.5867,-68.7024 -0.3764,-135.8845 10.8418,-199.7793 11.2083,-63.8388 33.6555,-125.4215 69.0566,-177.5586 35.3718,-52.094 84.2202,-95.2834 140.3535,-122.7266 49.1392,-24.0238 104.3237,-36.2785 159.2149,-35.7929 z m -1393.0762,74.6503 c 62.315,36.444 117.1567,86.1931 159.7617,144.6661 53.0415,72.7962 87.5673,159.3896 100.4434,248.8808 13.3763,92.968 2.1165,190.3318 -43.3282,268 a 35.003496,35.003496 0 0 0 -0,0 c -22.6958,38.7889 -53.8881,72.5412 -90.875,96.2266 -36.8942,23.6256 -80.2669,37.3745 -123.0703,37.6875 -42.6702,0.3119 -86.1013,-12.7172 -123.2481,-35.6719 -37.2387,-23.0115 -68.8757,-56.1265 -92.1308,-94.4004 -46.5626,-76.6338 -59.392,-173.4757 -47.4434,-266.2773 11.7603,-91.339 46.3023,-179.983 100.2148,-254.2539 42.5065,-58.5577 97.3573,-108.335 159.6778,-144.8575 z"
       id="path4139-9-6-5-4-9-8-7"
       inkscape:connector-curvature="0" />
    <path
       style="color:#000000;font-style:normal;font-variant:normal;font-weight:normal;font-stretch:normal;font-size:medium;line-height:normal;font-family:sans-serif;text-indent:0;text-align:start;text-decoration:none;text-decoration-line:none;text-decoration-style:solid;text-decoration-color:#000000;letter-spacing:normal;word-spacing:normal;text-transform:none;direction:ltr;block-progression:tb;writing-mode:lr-tb;baseline-shift:baseline;text-anchor:start;white-space:normal;clip-rule:nonzero;display:inline;overflow:visible;visibility:visible;opacity:1;isolation:auto;mix-blend-mode:normal;color-interpolation:sRGB;color-interpolation-filters:linearRGB;solid-color:#000000;solid-opacity:1;fill:#000000;fill-opacity:1;fill-rule:evenodd;stroke:none;stroke-width:200;stroke-linecap:round;stroke-linejoin:round;stroke-miterlimit:4;stroke-dasharray:none;stroke-dashoffset:0;stroke-opacity:1;color-rendering:auto;image-rendering:auto;shape-rendering:auto;text-rendering:auto;enable-background:accumulate"
       d="m 4246.8145,-648.93359 c -83.8489,-0.0176 -167.0918,17.44377 -243.9942,50.65234 -99.0378,-42.60665 -208.6573,-59.14782 -316.5996,-45.59961 -111.5848,14.00539 -218.2453,59.82384 -304.7461,133.18555 -75.3467,63.90183 -133.0773,146.73404 -166.9512,239.54101 -33.8738,92.80694 -43.0751,193.352171 -26.6074,290.765628 16.4677,97.413472 58.2073,189.345952 120.7051,265.861332 62.4977,76.5154 144.2473,135.76747 236.4121,171.35156 a 100.01,100.01 0 1 0 72.0371,-186.57617 c -59.2854,-22.88963 -113.3509,-62.07615 -153.5527,-111.29493 -40.202,-49.21882 -67.8055,-110.01803 -78.3985,-172.679682 -10.5929,-62.661669 -4.5082,-129.156978 17.2813,-188.855468 21.7895,-59.69845 59.9684,-114.47688 108.4355,-155.58203 55.5606,-47.12117 127.055,-78.08109 200.293,-87.27344 25.8168,-3.24036 52.153,-3.69703 78.4238,-1.77344 -17.803,19.1469 -34.5017,39.33345 -49.8828,60.52735 -66.0269,90.97998 -107.3792,197.68718 -121.5215,308.296871 -14.4957,113.37499 -0.5895,237.326399 64.6133,344.458989 32.6757,53.68835 77.4078,101.17928 133.3399,135.70703 56.194,34.68955 121.8334,54.98708 190.7109,54.48242 69.0938,-0.50625 134.6114,-21.89406 190.3984,-57.58399 55.524,-35.52164 99.5792,-83.87841 131.4375,-138.23437 63.5661,-108.45515 75.4256,-232.866254 59.2227,-346.189454 -15.4582,-108.115256 -56.7375,-212.240256 -121.6172,-301.304686 -15.4385,-21.19347 -32.1829,-41.39447 -50.0449,-60.54492 29.2738,-2.22542 58.6547,-1.41535 87.3437,2.70703 74.5739,10.71568 146.9734,43.93449 202.5586,93.46094 89.8817,80.08452 138.6531,212.72637 122.0586,331.960933 -16.5945,119.234493 -99.7325,233.519827 -208.0664,286.017577 a 100.01,100.01 0 0 0 44.0195,189.98828 l 1277.1192,-5.24023 a 100.01,100.01 0 0 0 99.5879,-99.68555 l 1.1875,-379.677733 c 0.1836,-58.687207 0.2286,-123.094077 -11.9121,-191.357427 -12.1597,-68.37029 -36.2686,-136.84367 -76.6602,-198.64062 -40.4092,-61.82376 -94.9742,-113.60804 -159.3515,-150.50391 -64.2057,-36.79755 -135.5429,-57.46531 -207.6856,-62.77929 -81.2621,-5.98571 -163.9946,7.49825 -239.6699,41.75976 -75.8642,34.34706 -141.1702,88.21419 -189.668,155.24024 -48.4468,66.95542 -77.4196,143.15154 -91.8203,219.59375 -14.3686,76.27141 -13.9553,148.61416 -13.3906,214.64062188 l 2.1797,255.04882812 -124.6993,0.51172 c 50.5205,-73.07777 84.4436,-157.701192 96.92,-247.3457044 C 4852.5277,-180.63654 4781.4367,-373.9836 4639.1602,-500.75195 4552.9834,-577.53541 4445.366,-626.56567 4332,-642.85547 a 100.01,100.01 0 0 0 -0,0 c -28.3123,-4.06826 -56.781,-6.07216 -85.1835,-6.07812 z m 1106.4804,216.25976 c 6.1472,0.0752 12.2938,0.33768 18.4219,0.78906 43.6085,3.21218 86.4344,15.92673 122.9277,36.8418 36.3219,20.81675 68.2969,51.07519 91.3887,86.4043 23.1092,35.35591 38.9986,78.33693 47.1621,124.23828 8.1827,46.00829 9.0038,98.331934 8.8242,155.708984 l -0.8769,280.398436 -587.1035,2.41016 -2.1875,-255.9394556 c -0.5526,-64.6082634 0.1245,-123.7944644 9.9414,-175.9042944 9.7846,-51.93905 29.1736,-100.49519 57.3086,-139.37891 28.0838,-38.81309 66.9787,-70.74898 110.125,-90.2832 37.9183,-17.1673 81.0381,-25.81149 124.0683,-25.28516 z m -1350.2793,62.85352 c 38.8236,27.73166 73.4491,61.9094 101.5821,100.52929 44.7974,61.49626 74.3803,135.57119 85.2871,211.85352 11.2325,78.560501 0.6641,157.97655 -33.7832,216.75 -17.1485,29.25833 -40.5558,54.18473 -66.6719,70.89258 -25.853,16.53955 -56.2608,25.8567 -84.082,26.06054 -27.7358,0.20322 -58.169,-8.61016 -84.1875,-24.67187 -26.2808,-16.22351 -49.9981,-40.65839 -67.5528,-69.50195 -35.258,-57.93129 -47.0849,-136.818891 -37.0742,-215.115238 9.938,-77.727272 39.5077,-153.499992 85.002,-216.187502 28.0448,-38.64358 62.6574,-72.82929 101.4804,-100.60937 z"
       id="path4139-9-6-5-4-9-3"
       inkscape:connector-curvature="0" />
  </g>
</svg>
