<?xml version="1.0" encoding="UTF-8" standalone="no"?>
<!-- Created with Inkscape (http://www.inkscape.org/) -->

<svg
   xmlns:dc="http://purl.org/dc/elements/1.1/"
   xmlns:cc="http://creativecommons.org/ns#"
   xmlns:rdf="http://www.w3.org/1999/02/22-rdf-syntax-ns#"
   xmlns:svg="http://www.w3.org/2000/svg"
   xmlns="http://www.w3.org/2000/svg"
   xmlns:sodipodi="http://sodipodi.sourceforge.net/DTD/sodipodi-0.dtd"
   xmlns:inkscape="http://www.inkscape.org/namespaces/inkscape"
   width="2000"
   height="2048"
   id="svg2992"
   version="1.1"
   inkscape:version="0.91 r13725"
   sodipodi:docname="ത്തൂ.svg">
  <defs
     id="defs5498">
    <inkscape:path-effect
       effect="spiro"
       id="path-effect3891"
       is_visible="true" />
    <inkscape:path-effect
       is_visible="true"
       id="path-effect4141-3-4-6-8-9-5-4-1"
       effect="spiro" />
    <inkscape:path-effect
       is_visible="true"
       id="path-effect4141-3-4-6-8-9-5-4-1-8"
       effect="spiro" />
    <inkscape:path-effect
       effect="spiro"
       id="path-effect4141-3-4-6-8-9-5-5-5"
       is_visible="true" />
    <inkscape:path-effect
       effect="spiro"
       id="path-effect4141-3-4-6-8-9-5-5-5-0"
       is_visible="true" />
    <inkscape:path-effect
       effect="spiro"
       id="path-effect4141-3-4-6-8-9-5-5-5-9"
       is_visible="true" />
    <inkscape:path-effect
       effect="spiro"
       id="path-effect4141-3-4-6-8-9-5-5-5-09"
       is_visible="true" />
    <inkscape:path-effect
       effect="spiro"
       id="path-effect4141-3-4-6-8-9-5-5-5-06"
       is_visible="true" />
    <inkscape:path-effect
       effect="spiro"
       id="path-effect4141-3-4-6-8-9-5-5-5-06-6"
       is_visible="true" />
    <inkscape:path-effect
       effect="spiro"
       id="path-effect4141-3-4-6-8-9-5-5-5-065"
       is_visible="true" />
    <inkscape:path-effect
       effect="spiro"
       id="path-effect4141-3-4-6-8-9-5-5-5-065-9"
       is_visible="true" />
    <inkscape:path-effect
       effect="spiro"
       id="path-effect4141-3-4-6-8-9-5-5-5-06-9"
       is_visible="true" />
    <inkscape:path-effect
       effect="spiro"
       id="path-effect4141-3-4-6-8-9-5-5-5-06-9-2"
       is_visible="true" />
    <inkscape:path-effect
       effect="spiro"
       id="path-effect4141-3-4-6-8-9-5-5-5-5"
       is_visible="true" />
  </defs>
  <sodipodi:namedview
     inkscape:window-height="843"
     inkscape:window-width="1600"
     inkscape:pageshadow="2"
     inkscape:pageopacity="0.0"
     borderopacity="1.0"
     bordercolor="#666666"
     pagecolor="#ffffff"
     id="base"
     showgrid="true"
     showguides="true"
     inkscape:guide-bbox="true"
     inkscape:zoom="0.32102648"
     inkscape:cx="9465.2003"
     inkscape:cy="1047.1733"
     inkscape:window-x="1600"
     inkscape:window-y="0"
     inkscape:current-layer="layer1"
     inkscape:window-maximized="1">
    <inkscape:grid
       type="xygrid"
       id="grid3769"
       empspacing="3"
       visible="true"
       enabled="true"
       snapvisiblegridlinesonly="true"
       spacingx="4px"
       units="px"
       dotted="true"
       spacingy="4px" />
    <sodipodi:guide
       orientation="0,1"
       position="-1040,1600"
       id="guide2985" />
    <sodipodi:guide
       orientation="0,1"
       position="960,576"
       id="guide3939" />
    <sodipodi:guide
       position="3360,1710"
       orientation="0,1"
       id="guide4157"
       inkscape:label=""
       inkscape:color="rgb(0,0,255)" />
  </sodipodi:namedview>
  <metadata
     id="metadata5594">
    <rdf:RDF>
      <cc:Work
         rdf:about="">
        <dc:format>image/svg+xml</dc:format>
        <dc:type
           rdf:resource="http://purl.org/dc/dcmitype/StillImage" />
        <dc:title />
      </cc:Work>
    </rdf:RDF>
  </metadata>
  <g
     inkscape:label="Layer 1"
     inkscape:groupmode="layer"
     id="layer1"
     transform="translate(0,1048)">
    <path
       style="fill:none;fill-rule:evenodd;stroke:#000000;stroke-width:140;stroke-linecap:round;stroke-linejoin:round;stroke-miterlimit:4;stroke-dasharray:none;stroke-opacity:1"
       d="m 2735.1544,875.17125 -2321.57863,-6.5186 c -76.89945,-0.21592 -154.37284,5.4538 -230.43163,-5.88778 -38.0294,-5.6708 -76.01817,-17.06666 -107.151219,-39.63048 C 60.426396,811.85247 46.750811,797.79354 36.812582,781.33663 26.874354,764.87972 20.756389,745.97519 20.272381,726.75635 19.759476,706.39006 25.593363,686.07487 35.762502,668.42161 45.93164,650.76836 60.328495,635.7186 76.820483,623.7577 109.80446,599.83591 150.32557,588.31983 190.71494,582.94457 c 80.77875,-10.7505 162.78107,-3.86786 244.27203,-3.92902 l 1509.14643,-1.1326 c 135.4904,-0.10168 272.0096,4.97395 405.6506,-17.33652 66.8204,-11.15523 132.9754,-30.3809 191.7312,-64.10273 58.7559,-33.72183 110.0072,-82.97887 138.0784,-144.63456 31.6996,-69.62526 31.3049,-153.10957 -1.0518,-222.43193 -32.3567,-69.322368 -96.0954,-123.2404898 -169.8226,-143.657086 51.4559,-8.58193 99.7604,-35.011235 134.7338,-73.718071 34.9733,-38.706833 56.3845,-89.435563 59.7211,-141.495343 2.9678,-46.30497 -8.1609,-93.14251 -29.8028,-134.18625 -21.6418,-41.04374 -53.5768,-76.33891 -91.0402,-103.71503 -74.9268,-54.75224 -169.8752,-76.91258 -262.6733,-77.49856 -140.9596,-0.8901 -282.3872,46.80023 -391.6365,135.87894 -109.2492,89.07871 -184.8851,219.4103 -204.2718,359.033264 -12.9294,93.117607 -0.2743,192.025786 49.0507,272.057676 24.6625,40.01594 58.2475,74.75814 98.4495,99.11617 40.202,24.35803 87.0591,38.11071 134.0595,37.41958 47.1413,-0.6932 93.6881,-15.89718 133.3314,-41.41577 39.6432,-25.51859 72.4442,-61.12481 96.4966,-101.67441 48.1047,-81.09921 60.4329,-179.700462 50.0491,-273.419846 -15.4585,-139.521284 -81.3282,-274.458604 -187.8474,-365.885174 -106.5192,-91.42657 -253.8119,-136.2757 -391.9233,-111.16811 -111.5053,20.2708 -214.227,88.14941 -272.8497,185.14279 -29.3113,48.49669 -47.8466,103.07954 -57.545,158.90985 -9.6984,55.83032 -10.5931,112.76742 -10.9765,169.432544 l -2.5683,379.600526 2.4985,-381.908526 c 0.377,-57.621991 0.1803,-115.566194 -9.5729,-172.358024 -9.7532,-56.79183 -29.1054,-112.24163 -59.8452,-160.98076 -30.7398,-48.73913 -72.6204,-90.38806 -121.5073,-120.89224 -48.8869,-30.50419 -104.4497,-49.88566 -161.4683,-58.21139 -135.64225,-19.80619 -278.01467,24.61767 -382.6809,113.13935 -104.66623,88.52167 -171.44735,218.76154 -188.92093,354.723964 -12.27869,95.540882 -0.11856,196.636016 49.31411,279.311516 24.71633,41.33775 58.53169,77.48212 99.31031,103.11044 40.77862,25.62833 88.57459,40.50416 136.73788,40.43807 48.29588,-0.0663 96.18136,-15.15816 136.95424,-41.04385 40.77288,-25.88569 74.48729,-62.32648 98.99267,-103.94358 C 1010.299,126.28566 1021.5935,24.727288 1008.1383,-70.922826 988.26165,-212.22145 914.48953,-346.31481 802.03803,-434.15012 689.58653,-521.98543 539.02191,-561.12027 399.04237,-533.44159 302.63025,-514.37766 212.57059,-464.43061 145.34467,-392.74096 78.118746,-321.0513 34.056486,-227.97087 21.221456,-130.53375 8.3864258,-33.096624 26.841615,68.219002 73.209651,154.87197 119.57769,241.52493 193.63101,313.08997 281.81757,356.4704"
       id="path4139-1-0-4-2-2-4-3-2"
       inkscape:path-effect="#path-effect4141-3-4-6-8-9-5-5-5"
       inkscape:original-d="m 2735.1544,875.17125 -2321.57863,-6.5186 c -112.2565,-0.3152 -393.583349,-2.5241 -393.303389,-141.8963 0.29478,-146.748 268.582389,-147.6312 414.714589,-147.7408 l 1509.14643,-1.1326 c 138.3597,-0.10384 631.3638,8.32529 735.4602,-226.07381 54.6584,-123.07693 -170.8744,-366.089016 -170.8744,-366.089016 0,0 201.5924,-118.793604 194.4549,-215.213414 -12.219,-165.06499 -218.0001,-315.7995 -383.5163,-315.39984 -258.2078,0.62346 -560.5992,239.12926 -595.9083,494.912204 -22.6183,163.849576 116.1592,409.562026 281.5597,408.593426 167.2666,-0.9796 304.0985,-251.0035 279.8771,-416.510026 -36.2403,-247.631904 -332.2291,-513.905024 -579.7707,-477.053284 -203.2945,30.26459 -339.8132,283.21068 -341.3712,513.485184 l -2.5683,379.600526 2.4985,-381.908526 C 1365.7283,-291.83243 1216.8219,-507.0353 1011.5809,-536.21604 767.81107,-570.87475 475.70597,-311.96833 439.97907,-68.352726 415.30517,99.894102 555.29587,355.1005 725.34137,354.5073 895.62267,353.9132 1036.5001,96.981002 1008.1383,-70.922826 965.67721,-322.29573 634.32757,-631.58505 399.04237,-533.44159 122.90284,-418.25683 -103.69026,58.481004 281.81757,356.4704"
       inkscape:connector-curvature="0"
       sodipodi:nodetypes="csassacaaaaaascsaaaaac" />
    <path
       style="color:#000000;font-style:normal;font-variant:normal;font-weight:normal;font-stretch:normal;font-size:medium;line-height:normal;font-family:sans-serif;text-indent:0;text-align:start;text-decoration:none;text-decoration-line:none;text-decoration-style:solid;text-decoration-color:#000000;letter-spacing:normal;word-spacing:normal;text-transform:none;direction:ltr;block-progression:tb;writing-mode:lr-tb;baseline-shift:baseline;text-anchor:start;white-space:normal;clip-rule:nonzero;display:inline;overflow:visible;visibility:visible;opacity:1;isolation:auto;mix-blend-mode:normal;color-interpolation:sRGB;color-interpolation-filters:linearRGB;solid-color:#000000;solid-opacity:1;fill:#000000;fill-opacity:1;fill-rule:evenodd;stroke:none;stroke-width:140;stroke-linecap:round;stroke-linejoin:round;stroke-miterlimit:4;stroke-dasharray:none;stroke-dashoffset:0;stroke-opacity:1;color-rendering:auto;image-rendering:auto;shape-rendering:auto;text-rendering:auto;enable-background:accumulate"
       d="m -718.20117,-613.76172 c -100.276,-0.6332 -200.31548,20.672 -291.51173,62.13086 -102.5619,-51.54608 -220.507,-72.00019 -335.6914,-51.06055 -131.1179,23.83623 -250.3694,102.20414 -320.2383,217.80469 -2.3845,3.94521 -4.5495,7.97952 -6.8066,11.97656 -3.8534,-6.87864 -7.8502,-13.69811 -12.086,-20.41406 -36.4449,-57.78487 -85.7285,-106.78966 -143.6601,-142.9375 -57.7986,-36.06483 -122.4563,-58.45941 -188.4102,-68.08984 -102.556,-14.97502 -206.5214,1.48931 -299.6972,42.68554 -104.6576,-46.24183 -222.5366,-61.85739 -336.5332,-39.3164 -111.0989,21.96799 -213.715,78.87986 -291.1817,161.49023 -77.4666,82.61033 -127.6707,188.66724 -142.4609,300.94727 -14.7903,112.280032 6.2365,227.721147 59.668,327.57422 53.4313,99.85306 137.8093,181.39411 239.4296,231.38281 a 70.007,70.007 0 1 0 61.7969,-125.62305 c -74.7529,-36.77216 -138.4825,-98.35964 -177.7871,-171.8125 -39.3047,-73.452858 -55.1865,-160.644061 -44.3066,-243.23828 10.8798,-82.59421 48.798,-162.69782 105.7832,-223.4668 56.9851,-60.76895 134.4894,-103.75224 216.2148,-119.9121 51.2379,-10.13147 104.9539,-9.49602 157.2363,0.5625 -111.1352,100.25175 -180.4565,240.2605 -199.3066,386.933589 -13.8193,107.528392 -1.072,224.248531 58.6641,324.156251 29.9246,50.04866 71.0181,94.3259 122.1406,126.45508 51.3103,32.24725 111.4416,51.25784 174.082,51.17187 62.8151,-0.0862 123.0608,-19.36979 174.377,-51.94922 51.1281,-32.45998 92.1111,-77.11007 121.7949,-127.52148 59.2572,-100.63562 71.0077,-217.941717 55.8476,-325.710939 -20.5495,-146.081591 -91.6109,-284.325541 -202.3574,-383.371091 42.0215,-7.66801 84.8514,-8.96831 126.3672,-2.90625 48.0834,7.02103 94.5521,23.39045 134.5274,48.33398 39.8422,24.86054 74.3208,59.15427 99.3554,98.84766 25.032,39.68906 41.6373,86.42693 50.0625,135.48633 8.4354,49.11845 8.9384,102.89509 8.5645,160.050778 l -2.4942,381.437502 -0,0.45508 0,0.0156 a 70.007,70.007 0 0 0 139.9961,0.93164 l 0,-0.0156 2.5684,-379.583988 c 0.3805,-56.245586 1.4961,-109.286932 9.9453,-157.925782 8.4412,-48.59277 24.4446,-94.90374 48.4863,-134.68164 47.3766,-78.38623 133.5683,-135.77509 225.461,-152.48047 52.6653,-9.57416 107.9845,-6.61282 161.2382,6.75781 -120.3616,100.05921 -203.0567,243.4222 -224.7578,399.712894 -14.7138,105.969 -1.2418,221.003106 58.793,318.412106 30.0604,48.77422 71.1131,91.56674 121.7676,122.25782 50.8318,30.79855 110.0283,48.44683 171.3633,47.54492 61.50997,-0.90449 120.2176,-20.38169 170.18942,-52.54883 49.78541,-32.04713 89.68894,-75.72186 118.81445,-124.82422 58.1283,-97.99779 71.06138,-211.751864 59.41797,-316.839842 -16.10788,-145.382168 -80.48222,-285.950318 -187.25,-388.830078 49.36023,-13.69409 100.63371,-20.77953 151.70508,-20.45703 81.9562,0.51752 162.36822,20.57766 221.81445,64.01758 29.62263,21.64653 54.30892,49.28751 70.42187,79.8457 16.01177,30.36629 23.92589,64.9093 21.86524,97.06055 -2.29971,35.88103 -17.70011,72.36517 -41.80469,99.04296 -24.10458,26.67781 -58.84382,45.686669 -94.30859,51.601568 A 70.007,70.007 0 0 0 -548.26172,54.3125 c 53.1795,14.726506 101.73339,55.80047 125.07227,105.80273 23.33888,50.00227 23.64034,113.59763 0.77539,163.81836 -20.58299,45.20862 -60.74068,85.10885 -109.21485,112.92969 -49.04394,28.14785 -107.07668,45.52966 -168.41406,55.76953 -124.30315,20.75159 -256.90191,16.27784 -394.17583,16.38086 l -1509.1464,1.13281 c -77.5144,0.0582 -162.6627,-7.54216 -253.4551,4.54102 -47.2805,6.29236 -99.3582,19.88502 -145.7559,53.53516 -23.4096,16.97792 -44.7735,38.8849 -60.6172,66.38867 -15.9834,27.74679 -25.6912,60.14473 -24.8125,95.03711 0.8287,32.90536 10.9683,63.12276 26.5977,89.0039 15.5083,25.68053 35.8545,46.22534 58.0215,62.29102 43.9735,31.86994 93.0723,45.50204 137.9062,52.1875 86.2828,12.86614 167.2319,6.44645 240.5586,6.65234 l 2321.5801,6.51758 a 70.007,70.007 0 1 0 0.39258,-139.99805 L -2624.5273,799.7832 c -80.4721,-0.22595 -154.4699,4.69398 -220.3047,-5.12304 -31.2249,-4.65612 -58.1038,-13.81653 -76.3965,-27.07422 -8.966,-6.49814 -15.9698,-14.0714 -20.3379,-21.30469 -4.247,-7.03268 -6.3451,-14.62393 -6.4844,-20.15625 -0.1471,-5.84021 1.8152,-14.07308 6.1699,-21.63281 l -0,0 c 4.4948,-7.80273 11.9256,-15.99363 21.5,-22.9375 19.5703,-14.19346 48.5329,-23.63365 82.0312,-28.0918 70.765,-9.41782 149.6242,-3.25226 235.0918,-3.31641 l 1509.1446,-1.13281 c 133.70689,-0.10034 274.14623,5.57639 417.12497,-18.29297 72.30356,-12.0706 146.58102,-33.13973 215.04882,-72.43554 69.0376,-39.62284 131.38403,-98.23709 166.94336,-176.33985 40.53429,-89.02978 40.04437,-192.40245 -1.33007,-281.04492 -19.43566,-41.639828 -47.2354,-78.361189 -80.94141,-108.3984369 12.21683,-9.8739951 23.73624,-20.6801111 34.36133,-32.4394531 45.84212,-50.735868 73.26509,-115.70874 77.63867,-183.94727 3.87495,-60.45868 -10.4683,-119.59326 -37.74024,-171.31445 -27.17075,-51.52929 -66.35403,-94.47632 -111.6582,-127.58203 -90.40737,-66.06456 -199.89316,-90.32603 -303.5332,-90.98047 z m -1597.85743,210.29688 c 12.6897,7.9113 24.9667,16.44097 36.707,25.61132 96.9187,75.70268 162.4735,194.12339 179.8731,317.812504 11.7504,83.531003 0.9107,169.341056 -37.8535,235.173826 -19.3271,32.82281 -45.7738,61.05384 -76.1914,80.36524 -30.2295,19.19195 -65.7546,30.09425 -99.5313,30.14062 -33.6862,0.0462 -69.1477,-10.69764 -99.3945,-29.70703 -30.4348,-19.12748 -56.9706,-47.13878 -76.4785,-79.76562 -39.1294,-65.44329 -50.703,-150.911472 -39.9649,-234.464848 15.3197,-119.203002 74.6681,-234.058472 164.6953,-310.199222 15.1182,-12.78623 31.2802,-24.4039 48.1387,-34.96679 z m 1302.2207,12.66992 c 9.376,6.74836 18.5476,13.76021 27.28517,21.25976 91.51155,78.54536 150.25951,197.67767 163.86523,320.476566 9.12421,82.3508 -2.60046,165.799394 -40.68164,230.000004 -18.97923,31.99686 -44.67856,59.53536 -74.17969,78.52539 -29.3147,18.87004 -63.69807,29.80129 -96.47067,30.2832 -32.6659,0.48034 -67.1857,-9.37742 -96.7578,-27.29492 -29.7496,-18.02496 -55.8663,-44.71693 -75.1309,-75.97461 -38.6152,-62.65477 -50.4536,-145.436912 -39.3086,-225.703126 16.7918,-120.934454 83.578,-236.463984 179.1738,-314.410154 16.5311,-13.47892 34.0228,-25.82833 52.2051,-37.16211 z"
       id="path4139-1-0-4-2-2-4-3-2-1"
       inkscape:connector-curvature="0" />
    <path
       style="fill:none;fill-rule:evenodd;stroke:#000000;stroke-width:120;stroke-linecap:round;stroke-linejoin:round;stroke-miterlimit:4;stroke-dasharray:none;stroke-opacity:1"
       d="m 4952.1539,1418.126 -1513.9229,-4.2508 c -50.1468,-0.1408 -100.668,3.5565 -150.2666,-3.8395 -24.7993,-3.698 -49.5722,-11.1293 -69.8743,-25.8434 -10.1511,-7.357 -19.0691,-16.525 -25.5499,-27.2567 -6.4808,-10.7317 -10.4704,-23.0595 -10.786,-35.5923 -0.3345,-13.281 3.4699,-26.5288 10.1012,-38.0406 6.6314,-11.5119 16.0197,-21.326 26.7743,-29.1258 21.5092,-15.5996 47.9334,-23.1094 74.2716,-26.6146 52.6766,-7.0106 106.1511,-2.5223 159.2921,-2.5622 l 984.1284,-0.7385 c 88.3545,-0.066 177.38,3.2436 264.5285,-11.3053 43.5743,-7.2744 86.7145,-19.8117 125.0297,-41.802 38.3153,-21.9904 71.7367,-54.1113 90.0422,-94.3176 20.6716,-45.4033 20.4142,-99.84416 -0.6859,-145.04991 -21.1001,-45.20575 -62.6647,-80.36625 -110.7429,-93.68011 33.5548,-5.59634 65.0547,-22.83113 87.8612,-48.07222 22.8064,-25.24109 36.7688,-58.32176 38.9447,-92.27044 1.9353,-30.19591 -5.3218,-60.7391 -19.4347,-87.50411 -14.1128,-26.76501 -34.9379,-49.78132 -59.3682,-67.63354 -48.8604,-35.70444 -110.7772,-50.15539 -171.2917,-50.53751 -91.9211,-0.58043 -184.1473,30.51888 -255.3898,88.60793 -71.2424,58.08905 -120.5653,143.07949 -133.2075,234.12892 -8.4314,60.72284 -0.1788,125.22177 31.9865,177.41129 16.0826,26.0948 37.9837,48.7505 64.1998,64.6345 26.2161,15.8841 56.772,24.8524 87.4214,24.4017 30.7413,-0.452 61.0949,-10.3667 86.9466,-27.0076 25.8518,-16.6409 47.2416,-39.86 62.9263,-66.30279 31.3696,-52.88553 39.409,-117.18432 32.6376,-178.29959 -10.0806,-90.98314 -53.0349,-178.97703 -122.497,-238.59715 -69.4622,-59.62012 -165.5132,-88.86664 -255.5769,-72.49373 -72.7136,13.21879 -139.6994,57.48307 -177.9278,120.73336 -19.1142,31.62514 -31.2012,67.21912 -37.5256,103.62659 -6.3245,36.40746 -6.9079,73.53668 -7.1579,110.48853 l -1.6748,247.54098 1.6293,-249.04605 c 0.2458,-37.57584 0.1175,-75.36179 -6.2426,-112.39627 -6.3601,-37.03449 -18.9799,-73.19381 -39.0256,-104.97705 -20.0457,-31.78324 -47.3564,-58.9429 -79.236,-78.83496 -31.8796,-19.89207 -68.1127,-32.53091 -105.295,-37.9602 -88.4536,-12.91581 -181.296,16.0534 -249.5498,73.77921 -68.2538,57.7258 -111.8024,142.65644 -123.1971,231.31881 -8.007,62.30309 -0.077,128.22816 32.1582,182.14161 16.1177,26.9567 38.1691,50.5268 64.7612,67.2393 26.5921,16.7124 57.7603,26.4131 89.168,26.37 31.4942,-0.043 62.7207,-9.8848 89.3091,-26.7651 26.5884,-16.8803 48.5739,-40.6436 64.5541,-67.78254 31.9603,-54.27779 39.3256,-120.50494 30.5513,-182.87926 -12.9617,-92.14215 -61.0692,-179.58568 -134.3999,-236.8639 -73.3307,-57.27822 -171.5152,-82.79842 -262.7972,-64.74889 -62.8712,12.43177 -121.6,45.0027 -165.4386,91.75218 -43.8386,46.74948 -72.572,107.44808 -80.9419,170.98772 -8.3698,63.53964 3.665,129.60849 33.902,186.11568 30.237,56.50721 78.5278,103.17541 136.0351,131.46421"
       id="path4139-1-0-4-2-2-4-3-2-5"
       inkscape:path-effect="#path-effect4141-3-4-6-8-9-5-5-5-06"
       inkscape:original-d="m 4952.1539,1418.126 -1513.9229,-4.2508 c -73.2035,-0.2056 -256.6594,-1.646 -256.4768,-92.5319 0.1922,-95.6958 175.1451,-96.2717 270.4392,-96.3432 l 984.1284,-0.7385 c 90.2256,-0.068 411.7182,5.4289 479.6004,-147.4249 35.6433,-80.25957 -111.4288,-238.73002 -111.4288,-238.73002 0,0 131.4603,-77.46643 126.8059,-140.34266 -7.9681,-107.64041 -142.1599,-205.93578 -250.0946,-205.67516 -168.3797,0.40656 -365.5719,155.93841 -388.5973,322.73685 -14.7496,106.84786 75.7485,267.07919 183.6077,266.44749 109.0761,-0.6388 198.3055,-163.68164 182.5105,-271.60998 C 4635.0929,648.18015 4442.0759,474.541 4280.6517,498.57234 4148.0815,518.30816 4059.0564,683.25665 4058.0404,833.42082 l -1.6748,247.54098 1.6293,-249.04605 c 1.1436,-174.80366 -95.9597,-315.13945 -229.7992,-334.16848 -158.9646,-22.60124 -349.449,146.23401 -372.7469,305.09802 -16.0901,109.71532 75.1992,276.13771 186.0874,275.75091 111.042,-0.3874 202.9095,-167.93525 184.4145,-277.4269 -27.6893,-163.92261 -243.7654,-365.61302 -397.1971,-301.61279 -180.0731,75.11305 -327.8366,385.99823 -76.4434,580.31979"
       inkscape:connector-curvature="0"
       sodipodi:nodetypes="csassacaaaaaascsaaaaac" />
    <path
       style="color:#000000;font-style:normal;font-variant:normal;font-weight:normal;font-stretch:normal;font-size:medium;line-height:normal;font-family:sans-serif;text-indent:0;text-align:start;text-decoration:none;text-decoration-line:none;text-decoration-style:solid;text-decoration-color:#000000;letter-spacing:normal;word-spacing:normal;text-transform:none;direction:ltr;block-progression:tb;writing-mode:lr-tb;baseline-shift:baseline;text-anchor:start;white-space:normal;clip-rule:nonzero;display:inline;overflow:visible;visibility:visible;opacity:1;isolation:auto;mix-blend-mode:normal;color-interpolation:sRGB;color-interpolation-filters:linearRGB;solid-color:#000000;solid-opacity:1;fill:#000000;fill-opacity:1;fill-rule:evenodd;stroke:none;stroke-width:120;stroke-linecap:round;stroke-linejoin:round;stroke-miterlimit:4;stroke-dasharray:none;stroke-dashoffset:0;stroke-opacity:1;color-rendering:auto;image-rendering:auto;shape-rendering:auto;text-rendering:auto;enable-background:accumulate"
       d="m 4684.1328,1565.9785 c -65.1755,-0.4115 -130.1429,12.8908 -189.7969,38.9356 -68.0557,-32.7473 -145.6466,-45.3423 -221.8652,-31.4864 -84.8564,15.4263 -162.1403,64.1209 -210.7383,136.5977 -24.4628,-36.7229 -56.4778,-67.9649 -93.9297,-91.334 -39.5182,-24.6584 -83.5476,-39.8801 -128.3886,-46.4277 -67.6403,-9.8767 -135.9041,0.2204 -197.4903,26.2695 -69.3512,-29.3566 -146.8939,-38.8516 -222.2597,-23.9492 -75.4598,14.921 -144.95,53.4601 -197.5664,109.5703 -52.6164,56.1101 -86.6144,127.9313 -96.6602,204.1934 -10.0457,76.262 4.1931,154.4382 40.4844,222.2597 36.2913,67.8216 93.4312,123.0411 162.4531,156.9942 a 60.006,60.006 0 1 0 52.9688,-107.6758 c -45.9928,-22.6246 -85.4346,-60.7408 -109.6172,-105.9336 -24.1827,-45.1928 -34.0123,-99.1555 -27.3184,-149.9727 6.694,-50.8171 30.1637,-100.3923 65.2246,-137.7812 35.0608,-37.3889 83.026,-63.991 133.3086,-73.9336 22.31,-4.4114 45.4843,-5.4663 68.6152,-3.5039 -62.6368,65.6865 -101.61,151.1259 -113.0683,240.2832 -9.3275,72.5782 -0.8946,151.8964 40.1719,220.5801 20.582,34.4232 48.8718,64.9653 84.33,87.25 a 60.006,60.006 0 0 0 0,0 c 35.6192,22.3857 77.3591,35.6304 121.1758,35.5703 43.9398,-0.06 85.7614,-13.4938 121.3867,-36.1114 35.4642,-22.5153 63.6788,-53.3152 84.0976,-87.9921 40.743,-69.1933 48.4993,-148.9195 38.2637,-221.6817 -12.4534,-88.5284 -52.2769,-172.6682 -114.5195,-237.4277 16.3707,-1.0781 32.7136,-0.597 48.6797,1.7344 29.5236,4.3109 57.9602,14.3664 82.2011,29.4921 24.1271,15.0548 45.0945,35.9097 60.25,59.9395 15.1533,24.026 25.4188,52.7184 30.6407,83.125 5.2306,30.4574 5.6221,64.6715 5.3789,101.8477 l -1.6289,248.6289 -0,0.4043 0,0.014 a 60.006,60.006 0 0 0 119.9981,0.7989 l 0,-0.014 1.6738,-247.5274 c 0.2476,-36.5923 1.0217,-70.3818 6.2754,-100.625 a 60.006,60.006 0 0 0 0,-0 c 5.2467,-30.2039 15.1624,-58.7076 29.7597,-82.8594 28.5889,-47.3013 81.4078,-82.5736 137.3106,-92.7363 23.1964,-4.2169 47.3754,-4.3932 71.3848,-1.1094 -69.2107,65.9785 -116.2834,154.2302 -129.5918,250.0781 -9.961,71.7384 -1.0053,150.0604 40.3398,217.1446 l -0,0 c 20.7093,33.6019 49.0121,63.1563 84.1875,84.4687 35.3272,21.4044 76.4583,33.7115 119.3945,33.0801 43.0574,-0.6331 83.8363,-14.2111 118.541,-36.5508 34.5451,-22.2368 62.0215,-52.3688 82.0547,-86.1426 39.9611,-67.37 48.519,-144.6577 40.668,-215.5175 -9.9317,-89.6384 -47.0433,-176.4678 -108.6055,-243.9239 23.4074,-4.7698 47.2862,-7.1951 71.0703,-7.0449 51.2214,0.3234 100.68,12.9743 136.2715,38.9824 a 60.006,60.006 0 0 0 0,0 c 17.7096,12.9411 32.3196,29.3965 41.6933,47.1738 9.2871,17.6128 13.7906,37.6174 12.6329,55.6817 -1.2871,20.0811 -10.0976,40.9523 -23.5879,55.8828 -13.4905,14.9306 -33.3647,25.8049 -53.2129,29.1152 a 60.006,60.006 0 0 0 -6.1407,117.0059 c 30.4659,8.4366 59.0162,32.5868 72.3868,61.2324 13.3705,28.6455 13.5463,66.0416 0.4472,94.8125 -11.8871,26.1088 -35.8002,50.2082 -65.3027,67.1406 -29.9907,17.2126 -66.1686,28.1684 -105.043,34.6582 -79.1447,13.2127 -164.8104,10.4192 -254.6933,10.4863 l -984.1289,0.7383 c -49.7324,0.037 -105.9023,-5.065 -167.1621,3.0879 -32.2451,4.2913 -68.5755,13.5815 -101.5821,37.5195 -16.684,12.1002 -32.0438,27.7908 -43.539,47.7461 -11.615,20.1634 -18.7399,43.7697 -18.0918,69.502 0.611,24.2641 8.0472,46.288 19.4062,65.0976 11.2551,18.6377 25.8923,33.3648 41.7012,44.8223 31.3083,22.691 65.6027,32.0378 96.2344,36.6055 58.3621,8.7028 111.8647,4.3619 158.9492,4.4941 l 1513.9219,4.252 a 60.006,60.006 0 1 0 0.3378,-120 l -1513.9238,-4.25 c -53.2091,-0.1494 -100.7508,2.9056 -141.5859,-3.1836 -18.967,-2.8283 -34.2178,-8.3448 -43.5137,-15.0821 -4.4933,-3.2565 -7.692,-6.8656 -9.3984,-9.6914 -1.6026,-2.6537 -2.1459,-5.2844 -2.166,-6.0859 -0.021,-0.8297 0.4637,-3.7218 2.1113,-6.582 1.7676,-3.0685 5.1846,-7.0045 10.0097,-10.5039 10.0119,-7.2611 26.5296,-12.9899 46.961,-15.709 44.0933,-5.8683 94.8722,-1.9966 151.4219,-2.0391 l 984.1269,-0.7383 c 86.8261,-0.065 179.2111,3.7621 274.3633,-12.123 48.2742,-8.059 98.3779,-22.1773 145.0176,-48.9453 47.1281,-27.0484 90.0573,-67.1904 114.7812,-121.4942 28.2442,-62.0357 27.9059,-133.5232 -0.9238,-195.289 -11.2085,-24.0135 -26.348,-45.6282 -44.4805,-64.1992 4.0502,-3.8275 7.9903,-7.7902 11.75,-11.9512 32.1226,-35.5517 51.2382,-80.842 54.3028,-128.6582 2.7128,-42.3276 -7.2996,-83.409 -26.2383,-119.3262 -18.8516,-35.7522 -45.8905,-65.3286 -77.041,-88.0918 l -0,0 c -62.1292,-45.3999 -136.5054,-61.651 -206.3125,-62.0918 z m -1042.1601,168.5996 c 5.1869,3.4787 10.2889,7.0696 15.1933,10.9004 60.0168,46.8788 101.0815,120.8874 111.9199,197.9356 7.3131,51.9864 0.3378,104.7158 -22.8398,144.0781 -11.5416,19.6008 -27.2972,36.327 -45.0098,47.5723 -17.5515,11.143 -38.1838,17.3939 -57.2324,17.4199 -18.9982,0.026 -39.5935,-6.1334 -57.1582,-17.1719 l -0,0 c -17.7255,-11.1404 -33.5364,-27.7389 -45.1895,-47.2285 -23.4039,-39.1431 -30.831,-91.6752 -24.1445,-143.7031 9.5485,-74.2972 46.7255,-146.0407 102.4316,-193.1543 7.0132,-5.9315 14.3807,-11.4833 22.0313,-16.6485 z m 848.6816,8.5742 c 3.0647,2.388 6.1057,4.8057 9.0469,7.3301 56.5984,48.5792 93.4469,123.0262 101.9394,199.6758 5.6918,51.3708 -1.8295,102.681 -24.6074,141.082 -11.3364,19.1119 -26.6383,35.416 -43.7969,46.461 -16.9986,10.9421 -36.9283,17.1959 -55.3535,17.4668 -18.3626,0.27 -38.3423,-5.361 -55.4473,-15.7246 -17.2568,-10.4558 -32.757,-26.2112 -44.2128,-44.7989 -22.9855,-37.2948 -30.5367,-87.9724 -23.6348,-137.6797 10.418,-75.0306 52.1538,-147.3319 111.6933,-195.8789 7.8015,-6.361 15.9511,-12.3284 24.3731,-17.9336 z"
       id="path4139-1-0-4-2-2-4-3-2-5-2"
       inkscape:connector-curvature="0" />
    <path
       style="fill:none;fill-rule:evenodd;stroke:#000000;stroke-width:70;stroke-linecap:round;stroke-linejoin:round;stroke-miterlimit:4;stroke-dasharray:none;stroke-opacity:1"
       d="m -5261.0981,866.74927 -2543.4339,-7.15588 c -85.6186,-0.24089 -171.7209,7.60957 -256.6848,-2.96145 -42.4819,-5.2855 -85.2539,-17.2095 -119.5538,-42.8253 -17.1499,-12.8079 -31.9282,-29.02561 -41.8754,-47.97861 -9.9471,-18.953 -14.9206,-40.70648 -12.7743,-62.00333 2.1379,-21.21336 11.2778,-41.44846 24.617,-58.08112 13.3391,-16.63267 30.7543,-29.76624 49.7835,-39.38223 38.0584,-19.23197 81.6576,-24.60514 124.2956,-25.16324 85.2759,-1.11619 170.3662,8.50616 255.6495,8.44203 l 1653.3638,-1.24332 c 143.9592,-0.10826 288.2464,8.07508 431.7579,-3.27024 71.7558,-5.67266 143.7237,-17.99318 210.0336,-45.99431 66.3099,-28.00112 127.1481,-73.05154 163.9509,-134.91123 44.4663,-74.74087 49.3495,-171.58858 12.6268,-250.42315 -36.7228,-78.834563 -114.0044,-137.4082 -199.8304,-151.4562748 56.3983,-9.535649 109.3056,-38.5943822 147.6102,-81.0732902 38.3046,-42.478905 61.7554,-98.099475 65.4273,-155.180275 3.2659,-50.76999 -8.8947,-102.12856 -32.576,-147.15583 -23.6813,-45.02727 -58.6437,-83.7717 -99.6803,-113.84246 -82.0734,-60.14151 -186.162,-84.57706 -287.9097,-85.23637 -154.5533,-1.00148 -309.5814,51.53654 -429.2164,149.38942 -119.6351,97.85288 -202.3352,240.82606 -223.6382,393.907471 -14.2164,102.157293 -0.4774,210.676299 53.5269,298.549839 27.0021,43.93677 63.8039,82.09997 107.8862,108.86391 44.0822,26.76394 95.4878,41.88413 147.0531,41.12549 51.7204,-0.76092 102.7848,-17.47452 146.2529,-45.5122 43.468,-28.03767 79.4082,-67.14863 105.7403,-111.67058 52.6642,-89.04392 66.0464,-197.226834 54.6296,-300.04702 -16.9864,-152.97962 -88.9649,-301.00474 -205.6068,-401.43369 -116.6419,-100.42895 -278.1415,-149.84969 -429.5681,-122.25832 -122.3051,22.28515 -234.8608,96.96984 -299.0282,203.44849 -32.0837,53.23933 -52.3558,113.12897 -62.9622,174.37679 -10.6063,61.24782 -11.5833,123.702402 -12.003,185.8603659 l -2.8138,416.7118741 2.7373,-419.2455136 c 0.4127,-63.2045904 0.1998,-126.7606264 -10.4663,-189.0601164 -10.666,-62.29949 -31.8322,-123.13772 -65.48,-176.64297 -33.6479,-53.50525 -79.511,-99.26313 -133.0852,-132.80115 -53.5742,-33.53802 -114.4989,-54.87726 -177.0377,-64.03669 -148.7228,-21.78196 -304.8276,27.15846 -419.4457,124.39839 -114.6182,97.23992 -187.6031,240.12408 -206.7797,389.205196 -13.4823,104.813009 -0.2752,215.720144 53.8427,306.487904 27.059,45.38388 64.1076,85.08437 108.8155,113.24617 44.7079,28.16181 97.1357,44.52397 149.974,44.46653 52.9954,-0.0576 105.5424,-16.63463 150.2644,-45.06808 44.722,-28.43345 81.6791,-68.45967 108.5159,-114.15763 53.6735,-91.39591 65.9055,-202.852854 51.0413,-307.796258 -21.9293,-154.823582 -102.7033,-301.743182 -225.8288,-398.134922 -123.1254,-96.39173 -288.0057,-139.58195 -441.4737,-109.60161 -106.0078,20.70889 -205.0954,75.44862 -279.0589,154.16274 -73.9635,78.71412 -122.4371,181.01317 -136.5154,288.1034 -14.0783,107.090229 6.3083,218.441785 57.4145,313.59783 51.1062,95.15605 132.6791,173.64578 229.7327,221.04955"
       id="path4139-1-0-4-2-2-4-3-2-6"
       inkscape:path-effect="#path-effect4141-3-4-6-8-9-5-5-5-065"
       inkscape:original-d="m -5261.0981,866.74927 -2543.4339,-7.15588 c -122.984,-0.34601 -438.5726,-3.23557 -430.8883,-155.76869 7.857,-155.96027 294.2487,-114.06417 454.3456,-114.18456 l 1653.3638,-1.24332 c 151.5817,-0.11399 684.649,63.29341 805.7424,-184.17578 64.9537,-132.74092 -187.2036,-401.8794248 -187.2036,-401.8794248 0,0 220.8571,-130.4073552 213.0375,-236.2535652 -13.3866,-181.20244 -238.8326,-346.67339 -420.166,-346.23466 -282.8827,0.68441 -614.1713,262.50754 -652.8546,543.296891 -24.7797,179.868209 127.2597,449.602529 308.4662,448.539239 183.2509,-1.07536 333.1588,-275.54265 306.6228,-457.2298 -39.7035,-271.84143 -363.9777,-564.14649 -635.1749,-523.69201 -222.7218,33.22339 -372.2865,310.89854 -373.9934,563.6856459 l -2.8138,416.7118741 2.7373,-419.2455136 c 1.9213,-294.2653464 -161.2149,-530.5073564 -386.0692,-562.5409264 -267.065,-38.04705 -587.0843,246.1711 -626.2254,513.603586 -27.0317,184.695344 126.3367,464.851804 312.6322,464.200604 186.5537,-0.65218 340.8937,-282.70315 309.8216,-467.021968 -46.5188,-275.948172 -409.5329,-615.474862 -667.3025,-507.736532 -302.528,126.4457 -550.7748,649.791424 -128.4271,976.91352"
       inkscape:connector-curvature="0"
       sodipodi:nodetypes="csassacaaaaaascsaaaaac" />
    <path
       style="color:#000000;font-style:normal;font-variant:normal;font-weight:normal;font-stretch:normal;font-size:medium;line-height:normal;font-family:sans-serif;text-indent:0;text-align:start;text-decoration:none;text-decoration-line:none;text-decoration-style:solid;text-decoration-color:#000000;letter-spacing:normal;word-spacing:normal;text-transform:none;direction:ltr;block-progression:tb;writing-mode:lr-tb;baseline-shift:baseline;text-anchor:start;white-space:normal;clip-rule:nonzero;display:inline;overflow:visible;visibility:visible;opacity:1;isolation:auto;mix-blend-mode:normal;color-interpolation:sRGB;color-interpolation-filters:linearRGB;solid-color:#000000;solid-opacity:1;fill:#000000;fill-opacity:1;fill-rule:evenodd;stroke:none;stroke-width:70;stroke-linecap:round;stroke-linejoin:round;stroke-miterlimit:4;stroke-dasharray:none;stroke-dashoffset:0;stroke-opacity:1;color-rendering:auto;image-rendering:auto;shape-rendering:auto;text-rendering:auto;enable-background:accumulate"
       d="m -5140.0742,1304.8535 c -110.4705,-0.7158 -220.8975,24.5016 -319.9903,73.0957 -108.7478,-59.4463 -236.4333,-84.0303 -359.4511,-61.6152 -132.1467,24.0783 -252.9583,104.0372 -322.7305,219.8164 -17.826,29.5804 -32.1245,60.8718 -43.3887,93.084 -12.0999,-35.3569 -27.8486,-69.6159 -47.9941,-101.6504 -36.4906,-58.0256 -86.0471,-107.4656 -144.1426,-143.834 -58.0299,-36.3274 -123.5109,-59.1853 -190.5371,-69.002 -110.3062,-16.1554 -223.3319,3.7589 -322.9648,51.7774 -111.0491,-53.1328 -238.2108,-72.2217 -359.8907,-48.4512 -113.3704,22.1472 -218.7548,80.3657 -297.8554,164.5469 -79.1006,84.1811 -130.6549,192.9798 -145.711,307.5078 -15.0561,114.5281 6.6257,232.9558 61.2813,334.7207 54.6557,101.765 141.4127,185.2414 245.207,235.9375 a 35.0035,35.0035 0 1 0 30.7207,-62.8984 c -90.3129,-44.1115 -166.7011,-117.613 -214.2578,-206.1602 -47.5566,-88.5471 -66.6493,-192.824 -53.5488,-292.4765 13.1005,-99.6525 58.4938,-195.4502 127.3203,-268.6973 68.8266,-73.2472 161.6185,-124.5087 260.2637,-143.7793 89.4698,-17.4782 183.9475,-8.0329 270.3808,23.6758 -16.6529,11.3663 -32.725,23.5882 -48.1055,36.6367 -121.9266,103.4402 -198.6023,254.0098 -218.8515,411.4297 -14.2499,110.7803 -0.7614,229.4892 58.4961,328.8769 29.6576,49.7423 70.3413,93.515 120.2226,124.9356 49.9759,31.4801 108.5772,49.9188 168.6661,49.8535 60.268,-0.066 119.0046,-18.7448 169.0039,-50.5332 49.9048,-31.7285 90.495,-75.8671 119.9179,-125.9688 58.7899,-100.1079 71.2363,-219.4394 55.5157,-330.4296 -23.1717,-163.595 -108.0393,-318.3324 -238.9063,-420.7852 l -0,0 c -10.8211,-8.4715 -22.0366,-16.4076 -33.418,-24.0938 75.6578,-27.7649 157.4781,-37.9179 236.3711,-26.3632 58.0514,8.5021 114.4208,28.3237 163.539,59.0722 49.0529,30.7076 91.2241,72.7826 122.0293,121.7676 30.8042,48.9833 50.6034,105.4721 60.6094,163.916 10.0109,58.4734 10.376,119.953 9.9649,182.9258 l -2.7344,419.0098 -0,0.2285 0,0.01 a 35.0035,35.0035 0 0 0 69.9981,0.4648 l 0,-0.01 2.8144,-416.705 c 0.4183,-61.9496 1.5049,-122.4627 11.4903,-180.125 9.9815,-57.6394 28.9946,-113.4001 58.4531,-162.2833 58.5626,-97.1781 162.8606,-166.5881 275.3242,-187.08 91.0547,-16.5911 187.0859,-2.6711 273.1016,34.8125 -19.9452,13.0368 -39.3069,27.002 -57.8106,42.1367 -126.449,103.4262 -213.5471,253.793 -236.1445,416.1758 -15.107,108.5578 -0.9751,225.1304 58.373,321.6992 29.6962,48.3204 70.2289,90.5179 119.5411,120.457 49.4014,29.9934 106.9853,47.0674 165.7324,46.2031 58.9193,-0.8668 116.0726,-19.7243 164.709,-51.0957 48.5422,-31.3106 88.0307,-74.4631 116.8945,-123.2656 57.665,-97.4992 71.336,-213.2485 59.291,-321.7265 -17.9099,-161.297 -93.4234,-317.2167 -217.5566,-424.0957 -9.3918,-8.0864 -19.1321,-15.7528 -29.0332,-23.2071 78.8132,-32.1999 164.2172,-48.993 249.3418,-48.4414 96.299,0.624 193.1102,23.9949 267.4492,78.4688 37.1201,27.2008 68.4652,62.1151 89.3906,101.9023 20.8753,39.6919 31.4365,84.9106 28.625,128.6172 -3.1526,49.0074 -23.6053,97.5175 -56.4922,133.9883 -32.8868,36.4707 -79.0317,61.8149 -127.4531,70.0019 a 35.0035,35.0035 0 0 0 0.1816,69.0508 c 73.8262,12.084 142.1695,63.8811 173.7578,131.6934 31.5883,67.8121 27.2707,153.459 -10.9785,217.75 -31.9546,53.7107 -86.5044,94.8104 -147.4883,120.5625 -61.3387,25.9019 -129.5561,37.8438 -199.1757,43.3476 -140.3559,11.0959 -283.7222,3.0509 -429.0254,3.1602 l -1653.3653,1.2441 c -82.6331,0.062 -167.8672,-9.5941 -256.08,-8.4394 -45.2656,0.5924 -94.3033,6.0205 -139.6231,28.9218 -22.8067,11.5249 -44.2875,27.5062 -61.3027,48.7227 -17.1252,21.3535 -29.2236,47.5626 -32.1367,76.4688 -2.9257,29.0298 3.77,57.3192 16.6074,81.7793 12.7582,24.3089 31.1483,44.2402 51.9238,59.7558 41.3046,30.8471 90.1483,43.7872 136.1738,49.5137 89.9457,11.1908 177.4951,2.9958 260.9082,3.2305 l 2543.4336,7.1562 a 35.0035,35.0035 0 1 0 0.1973,-70 l -2543.4336,-7.1562 c -87.8241,-0.2472 -172.4808,7.2578 -252.4629,-2.6934 -38.9382,-4.8447 -75.6364,-15.752 -102.9316,-36.1367 -13.5243,-10.1002 -24.69,-22.6042 -31.8262,-36.2012 -7.0569,-13.446 -10.3103,-28.6645 -8.9434,-42.2285 1.3627,-13.5206 7.5447,-27.7817 17.0977,-39.6934 9.663,-12.0488 23.0139,-22.3339 38.2656,-30.041 30.7971,-15.5626 68.9583,-20.8807 108.9688,-21.4043 82.3391,-1.0777 167.2833,8.5114 255.2168,8.4453 l 1653.3633,-1.2441 a 35.0035,35.0035 0 0 0 0,0 c 142.6152,-0.1073 287.8214,8.2158 434.4883,-3.3789 73.892,-5.8416 149.6095,-18.5422 220.8906,-48.6426 71.636,-30.2502 138.7651,-79.2492 180.416,-149.2578 50.6834,-85.1909 56.1306,-193.2408 14.2735,-283.0977 -27.1923,-58.3749 -73.1714,-106.2929 -128.8282,-137.1738 26.3468,-15.1872 50.3792,-34.4093 70.875,-57.1387 43.7224,-48.487 70.1701,-111.2188 74.3614,-176.373 3.7202,-57.8334 -10.0401,-115.3309 -36.5274,-165.6934 -26.4372,-50.2673 -65.0156,-92.8425 -109.9687,-125.7832 -89.8079,-65.8091 -201.1747,-91.3093 -308.3711,-92.0039 z m -1750.875,140.7149 c 23.2333,12.9804 45.4905,27.6539 66.3926,44.0175 115.3833,90.3306 192.0631,229.4327 212.75,375.4844 14.0077,98.8965 1.9909,202.4783 -46.5664,285.1621 -24.2507,41.2944 -57.5761,77.2075 -97.1153,102.3457 -39.4442,25.0781 -85.8012,39.5555 -131.5234,39.6055 -45.5876,0.05 -91.8413,-14.2385 -131.2813,-39.082 -39.5346,-24.9031 -72.9478,-60.5292 -97.4082,-101.5547 -48.9785,-82.1476 -61.9061,-185.254 -49.1914,-284.0996 18.104,-140.7425 87.3992,-275.9409 194.709,-366.9805 24.4994,-20.7848 51.1569,-39.0807 79.2344,-54.8984 z m 1428.7558,12.7265 c 19.486,12.5046 38.1881,26.1903 55.6836,41.2539 109.1506,93.979 177.5954,234.1112 193.6582,378.7735 10.7886,97.1623 -2.3054,197.7786 -49.9687,278.3672 -23.8005,40.2415 -56.1942,75.3114 -94.5879,100.0761 -38.2999,24.7041 -83.2735,39.2728 -127.7949,39.9278 -44.3836,0.6529 -89.612,-12.5125 -128.375,-36.0469 -38.8525,-23.5887 -71.9224,-57.7183 -96.2305,-97.2715 -48.6604,-79.1782 -62.0053,-179.6436 -48.6797,-275.4004 l -0,0 c 20.0086,-143.7801 98.3118,-279.3611 211.1328,-371.6406 26.6074,-21.763 55.1871,-41.0862 85.164,-58.0391 z"
       id="path4139-1-0-4-2-2-4-3-2-6-7"
       inkscape:connector-curvature="0" />
    <path
       style="fill:none;fill-rule:evenodd;stroke:#000000;stroke-width:60;stroke-linecap:round;stroke-linejoin:round;stroke-miterlimit:4;stroke-dasharray:none;stroke-opacity:1"
       d="m 7187.5946,1469.609 -1652.2658,-4.6509 c -54.7468,-0.1541 -109.9075,3.8609 -164.0461,-4.2783 -27.0694,-4.0695 -54.1025,-12.2217 -76.2472,-28.3127 -11.0724,-8.0455 -20.797,-18.0647 -27.8628,-29.7866 -7.0657,-11.7219 -11.4139,-25.1816 -11.7576,-38.864 -0.3642,-14.499 3.7824,-28.9618 11.0125,-41.5348 7.2301,-12.573 17.4675,-23.2974 29.1981,-31.8266 23.4611,-17.0584 52.2961,-25.2988 81.0451,-29.1603 57.4979,-7.7229 115.882,-2.8464 173.8963,-2.89 l 1074.0585,-0.808 c 96.4501,-0.073 193.6397,3.5038 288.7554,-12.4846 47.5579,-7.9941 94.6319,-21.7434 136.4318,-45.7939 41.7999,-24.0506 78.2497,-59.1359 98.2393,-103.023 22.6095,-49.639 22.3614,-109.15405 -0.6612,-158.6028 -23.0226,-49.44875 -68.4087,-87.94826 -120.9501,-102.59805 36.6416,-6.2164 71.0091,-25.11052 95.8907,-52.71766 24.8817,-27.60714 40.1148,-63.74662 42.5028,-100.83502 2.124,-32.98776 -5.7707,-66.3587 -21.1498,-95.61934 -15.3792,-29.26065 -38.0874,-54.4423 -64.7446,-73.9897 -53.3142,-39.09482 -120.9432,-54.99442 -187.0539,-55.42556 -100.4212,-0.6549 -201.1445,33.52235 -278.8529,97.13234 -77.7085,63.61 -131.4053,156.51884 -145.2546,255.98258 -9.2436,66.38653 -0.339,136.90864 34.7376,194.02471 17.5383,28.5581 41.4466,53.3662 70.0896,70.7654 28.6431,17.3992 62.0487,27.2303 95.5586,26.7372 33.6108,-0.4945 66.7946,-11.3613 95.0383,-29.5883 28.2437,-18.227 51.5919,-43.651 68.6947,-72.58928 34.2055,-57.87656 42.8786,-128.18039 35.4554,-194.99816 -11.0429,-99.39919 -57.7712,-195.59088 -133.5349,-260.87498 -75.7636,-65.2841 -180.6986,-97.43558 -279.0875,-79.49785 -79.4754,14.48952 -152.5968,63.0585 -194.2718,132.26459 -20.8375,34.60304 -34.0011,73.52342 -40.8881,113.3247 -6.8869,39.80128 -7.5211,80.38555 -7.7937,120.77736 l -1.8279,270.84122 1.7782,-272.48788 c 0.268,-41.07144 0.1301,-82.37093 -6.7956,-122.85512 -6.9257,-40.48419 -20.6699,-80.02058 -42.5234,-114.79643 -21.8535,-34.77584 -51.6439,-64.52217 -86.4493,-86.32859 -34.8054,-21.80642 -74.3919,-35.68611 -115.03,-41.6425 -96.6327,-14.1636 -198.0623,17.67347 -272.5124,80.88484 -74.45,63.21138 -121.8334,156.06426 -134.2963,252.93099 -8.7633,68.11189 -0.2026,140.18411 34.9472,199.18002 17.5749,29.49797 41.6427,55.30487 70.6912,73.61317 29.0485,18.3083 63.1172,28.9481 97.4538,28.9132 34.4407,-0.035 68.5903,-10.8108 97.6512,-29.2938 29.0609,-18.4831 53.0724,-44.5018 70.5044,-74.20511 34.864,-59.40659 42.787,-131.84289 33.1107,-200.04123 -14.2707,-100.58018 -66.7353,-196.02413 -146.7083,-258.66877 -79.973,-62.64464 -187.0707,-90.75348 -286.7848,-71.33382 -68.9274,13.42385 -133.3658,48.98703 -181.4654,100.14973 -48.0995,51.1627 -79.6218,117.67127 -88.7701,187.29525 -9.1483,69.62398 4.1228,142.0182 37.3727,203.86988 33.25,61.85167 86.314,112.85417 149.434,143.62847"
       id="path4139-1-0-4-2-2-4-3-2-5-1"
       inkscape:path-effect="#path-effect4141-3-4-6-8-9-5-5-5-06-9"
       inkscape:original-d="m 7187.5946,1469.609 -1652.2658,-4.6509 c -79.8928,-0.225 -280.113,-1.8009 -279.9137,-101.2416 0.2098,-104.7033 191.1499,-105.3334 295.152,-105.4117 l 1074.0585,-0.808 c 98.4704,-0.074 449.3412,5.9399 523.4265,-161.3015 38.9004,-87.8142 -121.6113,-261.20085 -121.6113,-261.20085 0,0 143.4732,-84.75805 138.3935,-153.55268 -8.6962,-117.77223 -155.1505,-225.31984 -272.9483,-225.0346 -183.7663,0.44476 -398.978,170.61635 -424.1075,353.11492 -16.0974,116.90513 82.6704,292.21851 200.3858,291.52731 119.0436,-0.6989 216.4268,-179.08841 199.1884,-297.17574 -25.7922,-176.68285 -236.4472,-366.66612 -412.6224,-340.37283 -144.6845,21.59357 -241.8448,202.06811 -242.9536,366.36665 l -1.8279,270.84122 1.7782,-272.48788 c 1.2481,-191.25738 -104.7285,-344.80251 -250.7983,-365.62264 -173.4909,-24.72858 -381.3818,159.9985 -406.8087,333.81583 -17.5604,120.04243 82.0709,302.12959 203.0922,301.70639 121.189,-0.4238 221.4514,-183.74236 201.2663,-303.54014 -30.2195,-179.35208 -266.0408,-400.02691 -433.4931,-330.00259 -196.5283,82.18324 -357.7944,422.3309 -83.4288,634.94333"
       inkscape:connector-curvature="0"
       sodipodi:nodetypes="csassacaaaaaascsaaaaac" />
    <path
       style="color:#000000;font-style:normal;font-variant:normal;font-weight:normal;font-stretch:normal;font-size:medium;line-height:normal;font-family:sans-serif;text-indent:0;text-align:start;text-decoration:none;text-decoration-line:none;text-decoration-style:solid;text-decoration-color:#000000;letter-spacing:normal;word-spacing:normal;text-transform:none;direction:ltr;block-progression:tb;writing-mode:lr-tb;baseline-shift:baseline;text-anchor:start;white-space:normal;clip-rule:nonzero;display:inline;overflow:visible;visibility:visible;opacity:1;isolation:auto;mix-blend-mode:normal;color-interpolation:sRGB;color-interpolation-filters:linearRGB;solid-color:#000000;solid-opacity:1;fill:#000000;fill-opacity:1;fill-rule:evenodd;stroke:none;stroke-width:60;stroke-linecap:round;stroke-linejoin:round;stroke-miterlimit:4;stroke-dasharray:none;stroke-dashoffset:0;stroke-opacity:1;color-rendering:auto;image-rendering:auto;shape-rendering:auto;text-rendering:auto;enable-background:accumulate"
       d="m 6794.373,1825.3477 c -71.6459,-0.4673 -143.1934,15.6281 -207.6992,46.6367 -71.2967,-38.1291 -154.5269,-53.7341 -235.0332,-39.0567 -87.9186,16.0288 -168.1147,69.1235 -214.5898,146.3008 -8.4535,14.038 -15.6958,28.6393 -21.877,43.6016 -6.915,-17.0002 -15.1773,-33.5373 -25.0722,-49.2832 -24.288,-38.65 -57.2433,-71.5548 -95.9239,-95.7891 -38.6247,-24.1993 -82.1187,-39.3815 -126.6074,-45.9023 -72.1191,-10.5706 -145.7807,2.0864 -210.998,32.8652 -72.6947,-34.0276 -155.4977,-46.1395 -235.0293,-30.6504 -75.2424,14.6538 -145.0815,53.1987 -197.5879,109.0488 -52.5063,55.8501 -86.6718,127.9328 -96.6582,203.9356 -9.9865,76.0027 4.3972,154.4641 40.6933,221.9824 36.2963,67.5184 93.8081,122.7949 162.711,156.3887 a 30.003,30.003 0 1 0 26.2949,-53.9317 c -57.3371,-27.9548 -105.9545,-74.6821 -136.1582,-130.8671 -30.2036,-56.1849 -42.3629,-122.5108 -34.0527,-185.7559 8.3101,-63.2452 37.192,-124.179 80.8847,-170.6543 43.6928,-46.4753 102.7293,-79.0579 165.3418,-91.252 52.2026,-10.1666 107.2242,-5.7884 158.5098,10.6914 -6.8975,5.0996 -13.6884,10.3439 -20.2305,15.8985 -80.7119,68.5281 -131.2534,167.9653 -144.6348,271.9707 -9.4206,73.221 -0.6227,151.9779 38.9297,218.3633 19.8011,33.2344 46.9857,62.5354 80.4688,83.6386 33.5643,21.1545 72.9263,33.5745 113.4805,33.5332 40.6781,-0.041 80.135,-12.6196 113.7207,-33.9804 33.5043,-21.3092 60.6293,-50.8547 80.2773,-84.334 39.2479,-66.8766 47.3507,-146.0609 36.9395,-219.4395 -15.3365,-108.0918 -71.3063,-210.2334 -157.9102,-278.0722 -3.4077,-2.6693 -6.9344,-5.1779 -10.4277,-7.7305 44.2937,-14.1568 91.3411,-18.9365 136.7343,-12.2832 36.7876,5.392 72.4671,17.9693 103.4532,37.3828 30.9302,19.3785 57.5575,45.9653 76.9765,76.8672 19.4183,30.9006 31.9928,66.7109 38.3535,103.8926 6.3651,37.2069 6.6339,76.7285 6.3672,117.6015 l -1.7754,272.2481 -0,0.2324 0,0.01 a 30.003,30.003 0 0 0 59.998,0.3985 l 0,-0.01 1.8282,-270.834 c 0.2714,-40.2134 0.9999,-79.1351 7.3554,-115.8653 6.3522,-36.7105 18.438,-72.093 37.0274,-102.9629 36.8748,-61.2348 102.9189,-105.2763 173.9511,-118.2265 53.271,-9.7121 109.4517,-2.8466 160.8321,17.0722 -9.1928,6.4219 -18.2093,13.1144 -26.9121,20.2383 -83.5464,68.3887 -141.0068,167.6316 -155.9649,275.0586 -10.0067,71.8673 -0.7679,149.2907 38.8867,213.8613 19.8464,32.3165 46.9516,60.5844 80.0782,80.7071 33.2032,20.1693 71.9073,31.6775 111.5761,31.0937 39.7846,-0.5853 78.1889,-13.2925 110.8633,-34.3789 32.5938,-21.0343 58.9822,-49.9231 78.2539,-82.5312 38.4896,-65.1253 47.4067,-141.9145 39.4453,-213.5762 -11.8338,-106.5189 -61.5854,-209.4743 -143.7675,-280.2891 -2.9874,-2.5741 -6.0995,-4.996 -9.1661,-7.4746 47.0089,-17.5648 97.3213,-26.7175 147.4551,-26.3906 61.4344,0.4006 122.8239,15.3847 169.5098,49.6191 23.301,17.0864 42.9108,38.9841 55.9297,63.754 12.9759,24.6882 19.5,52.798 17.7656,79.7343 -1.9427,30.1718 -14.6081,60.2191 -34.8496,82.6778 a 30.003,30.003 0 0 0 0,0 c -20.2414,22.4587 -48.8148,38.1675 -78.6231,43.2246 a 30.003,30.003 0 0 0 -3.039,58.4746 c 43.7486,12.1982 82.6408,45.1899 101.8105,86.3633 19.1698,41.1736 19.3825,92.172 0.5567,133.5039 -16.7874,36.8566 -48.4978,67.9346 -85.9004,89.4551 -37.6448,21.6598 -81.2395,34.6145 -126.4434,42.2129 -91.0998,15.3133 -186.5976,11.9948 -283.8047,12.0683 l -1074.0586,0.8086 c -56.318,0.042 -116.0624,-5.1431 -177.8671,3.1582 -31.7069,4.2588 -65.4927,13.3973 -94.6934,34.6289 -14.6902,10.6812 -27.9068,24.3438 -37.5625,41.1348 -9.7152,16.8946 -15.5164,36.5301 -14.9961,57.2442 0.4908,19.5385 6.5565,37.8403 16.0547,53.5976 9.4467,15.6717 22.0254,28.4708 35.9219,38.5684 27.6392,20.0835 59.4315,29.2003 89.4218,33.709 58.5355,8.8002 115.1986,4.4634 168.4219,4.6132 l 1652.2656,4.6504 a 30.003,30.003 0 1 0 0.168,-60 l -1652.2656,-4.6504 c -56.2703,-0.1584 -109.9282,3.5329 -159.6699,-3.9453 -24.1485,-3.6304 -46.4222,-10.8175 -63.0723,-22.916 -8.2483,-5.9934 -15.1198,-13.2318 -19.8047,-21.0039 -4.6332,-7.6865 -7.2643,-16.3046 -7.4609,-24.1309 -0.2081,-8.2839 2.2843,-17.5747 7.0293,-25.8261 4.8045,-8.355 12.063,-16.1403 20.8339,-22.5176 17.7215,-12.8852 41.6054,-20.2272 67.3965,-23.6914 53.191,-7.1444 110.2133,-2.5782 169.9239,-2.6231 l 1074.0586,-0.8086 c 95.6931,-0.072 194.5754,3.7651 293.707,-12.8984 49.9119,-8.3898 100.4649,-22.9357 146.4199,-49.3769 46.1971,-26.5807 87.3863,-65.6723 110.5781,-116.5899 26.3932,-57.9461 26.1098,-125.9771 -0.7656,-183.7012 -16.3057,-35.0218 -41.8526,-64.9416 -73.0937,-86.9199 15.904,-9.7767 30.5247,-21.67 43.123,-35.6484 29.5219,-32.7556 47.3229,-74.9872 50.1563,-118.9922 2.5136,-39.0393 -6.751,-77.671 -24.5333,-111.5039 -17.7395,-33.7516 -43.5451,-62.2161 -73.5585,-84.2246 -59.9425,-43.9554 -133.8127,-60.7709 -204.5997,-61.2324 z m -1137.5664,107.1562 c 13.5152,7.7653 26.5223,16.382 38.7559,25.9649 73.3421,57.4505 122.3009,146.197 135.5059,239.2656 8.9412,63.018 1.1988,128.7059 -29.2813,180.6426 -15.216,25.9273 -36.115,48.4191 -60.7324,64.0761 -24.5361,15.6052 -53.3788,24.5788 -81.582,24.6074 -28.1191,0.029 -56.8931,-8.8308 -81.4258,-24.2929 -24.6139,-15.5134 -45.5673,-37.8283 -60.916,-63.5899 -30.7472,-51.6064 -39.0708,-116.9933 -30.9649,-179.9961 11.5445,-89.728 55.771,-175.9959 123.959,-233.8906 14.4876,-12.3006 30.1858,-23.2119 46.6816,-32.7871 z m 928.0606,8.3496 c 11.0382,7.3013 21.6657,15.2005 31.6601,23.8125 69.3453,59.7534 113.0489,149.1795 123.3008,241.459 6.8851,61.9739 -1.5434,125.7941 -31.4648,176.4219 -14.9339,25.2684 -35.2431,47.2268 -59.1367,62.6465 -23.813,15.3676 -51.7739,24.3951 -79.211,24.7988 -27.3509,0.4025 -55.4602,-7.7518 -79.5429,-22.3809 -24.1597,-14.6757 -44.8695,-36.0244 -60.0997,-60.8242 -30.4985,-49.6616 -39.0703,-113.2818 -30.5898,-174.1875 12.7405,-91.5004 62.6743,-178.0749 134.5449,-236.9062 15.8332,-12.9606 32.7946,-24.5406 50.5391,-34.8399 z"
       id="path4139-1-0-4-2-2-4-3-2-5-1-0"
       inkscape:connector-curvature="0" />
    <path
       style="color:#000000;font-style:normal;font-variant:normal;font-weight:normal;font-stretch:normal;font-size:medium;line-height:normal;font-family:sans-serif;text-indent:0;text-align:start;text-decoration:none;text-decoration-line:none;text-decoration-style:solid;text-decoration-color:#000000;letter-spacing:normal;word-spacing:normal;text-transform:none;direction:ltr;block-progression:tb;writing-mode:lr-tb;baseline-shift:baseline;text-anchor:start;white-space:normal;clip-rule:nonzero;display:inline;overflow:visible;visibility:visible;opacity:1;isolation:auto;mix-blend-mode:normal;color-interpolation:sRGB;color-interpolation-filters:linearRGB;solid-color:#000000;solid-opacity:1;fill:#000000;fill-opacity:1;fill-rule:evenodd;stroke:none;stroke-width:200;stroke-linecap:round;stroke-linejoin:round;stroke-miterlimit:4;stroke-dasharray:none;stroke-dashoffset:0;stroke-opacity:1;color-rendering:auto;image-rendering:auto;shape-rendering:auto;text-rendering:auto;enable-background:accumulate"
       d="m 10208.572,-708.61328 c -100.41,-1.91334 -199.697,19.03059 -290.4743,59.39648 -25.6786,-12.67139 -52.2921,-23.67163 -79.8965,-32.38281 -84.9592,-26.81071 -176.5435,-33.12095 -265.6035,-15.10547 -131.3954,26.57924 -246.082,105.69109 -319.8594,215.38867 -77.4755,-115.12499 -200.3784,-194.42985 -337.7363,-217.2832 -86.9814,-14.4718 -175.6722,-6.59711 -258.0684,20.2832 -20.9717,6.84167 -41.423,14.9064 -61.3106,24.03907 -101.2863,-42.55074 -213.5471,-58.69077 -324.6367,-41.76172 -125.1996,19.07929 -241.777,78.9679 -330.2011,169.63281 -88.4241,90.66493 -145.3777,208.70589 -161.3184,334.34375 -15.9408,125.637811 9.7291,254.160254 72.709,364.03516 62.9799,109.87483 160.9072,196.98091 277.375,246.72265 a 100.01,100.01 0 1 0 78.5527,-183.92773 C 8132.6081,202.52452 8066.5157,143.73568 8025.6914,72.513672 7984.8673,1.291738 7967.542,-85.449091 7977.875,-166.88867 c 10.3329,-81.43952 48.7725,-161.10707 106.0898,-219.87695 57.3175,-58.7699 135.9968,-99.18927 217.1524,-111.55665 29.6884,-4.52424 60.2168,-5.15781 90.7266,-2.40039 -96.0282,110.40473 -150.7237,250.65961 -164.3965,393.07422 -10.612,110.5328516 2.4462,231.67735 65.3066,338.26172 l -0,0 c 31.5392,53.47728 74.9189,101.40973 129.8691,136.77734 55.2447,35.5571 120.3542,57.05576 189.2637,57.37696 69.4144,0.32355 135.2317,-20.87857 191.1035,-56.56055 55.5771,-35.49376 99.4148,-83.92377 131.0332,-138.15234 63.0355,-108.11186 74.5161,-231.3243999 60.334,-343.28321 -18.405,-145.29628 -81.6353,-284.56191 -183.3887,-391.8496 24.0069,-1.2202 47.9662,-0.0998 71.2109,3.76757 87.6581,14.58438 171.5465,72.51259 215.7266,149.18164 22.6471,39.30114 37.7042,85.60695 45.3418,134.67383 7.6488,49.13951 8.1286,103.92515 7.7402,163.289064 l -2.4941,381.203126 -0,0.68164 0,0.0234 a 100.01,100.01 0 0 0 199.9961,1.33008 l 0,-0.0215 2.5683,-379.578124 c 0.3958,-58.501506 1.4927,-112.690966 9.209,-161.572266 7.7074,-48.82419 22.265,-94.90624 44.0821,-134.4375 42.5698,-77.13406 122.8343,-136.92956 207.9082,-154.13867 31.2649,-6.32443 64.1075,-7.57298 96.7402,-4.26758 -110.108,111.32577 -180.3068,258.44235 -197.6211,414.173829 -12.1878,109.621296 1.3474,229.722381 64.8418,334.189451 31.8424,52.39029 75.4652,98.90256 130.2754,132.70313 55.0956,33.97651 119.592,53.77069 187.3535,52.73828 67.9364,-1.03507 131.8152,-22.88128 185.8612,-58.33789 53.748,-35.26077 96.011,-82.64733 126.752,-135.2461 l 0,-0.002 c 61.251,-104.80059 74.208,-223.121691 65.41,-331.037109 -11.875,-145.660461 -65.365,-290.521511 -162.986,-404.539061 31.741,-6.01499 63.927,-8.95857 95.885,-8.34961 79.521,1.51529 156.761,25.20164 210.211,69.25977 26.645,21.96376 48.098,49.42082 61.166,78.48632 12.957,28.82082 18.186,61.04459 14.75,89.81055 -3.604,30.17011 -17.538,60.80458 -37.909,83.34961 a 100.01,100.01 0 0 0 0,0.002 c -20.37,22.54482 -49.44,39.50141 -79.091,46.13672 a 100.01,100.01 0 0 0 -8.596,192.843751 c 44.458,14.203675 85.603,50.409339 105.344,92.701169 19.74,42.29168 21.069,97.08091 3.404,140.28125 -16.409,40.12846 -50.916,78.34273 -94.463,105.99219 -44.283,28.11654 -98.643,47.15004 -157.51,58.93555 -119.735,23.97226 -251.6647,20.89152 -391.0016,20.99609 l -1509.1465,1.13281 c -81.111,0.0609 -175.4104,-6.90394 -277.125,16.41993 -53.0631,12.1677 -110.7051,34.6492 -159.377,80.12695 -24.5458,22.935 -46.0068,51.27656 -60.5937,85.39062 -14.7151,34.41406 -21.7709,73.20663 -16.8086,113.90625 4.4188,36.23985 17.7431,68.59073 36.1426,96.18946 18.2671,27.39989 40.9172,49.20959 65.0996,66.40039 47.9785,34.10701 99.9376,49.37143 146.8652,57.34765 89.9182,15.28331 172.2898,9.65362 244.1797,9.85547 l 2321.5783,6.51754 a 100.01,100.01 0 1 0 0.562,-199.99801 l -2321.5778,-6.51953 c -80.1828,-0.22514 -151.2257,3.17162 -211.2305,-7.02734 -28.034,-4.7649 -50.5034,-13.23702 -64.498,-23.18555 -6.8042,-4.83696 -11.7463,-10.09902 -14.5684,-14.33203 -2.6892,-4.0337 -3.8408,-7.95687 -4.0234,-9.45508 -0.1966,-1.61195 0.1307,-6.29005 2.1738,-11.06836 l -0,0 c 2.1714,-5.07829 6.6469,-11.72062 13.246,-17.88672 13.6182,-12.72446 37.5031,-24.43615 67.5332,-31.32226 64.4718,-14.78381 143.1856,-11.29229 232.5743,-11.35938 l 1509.1465,-1.13281 c 135.2402,-0.10149 280.6172,5.04432 430.1152,-24.88672 75.752,-15.16615 153.832,-40.73151 225.449,-86.20312 72.353,-45.9387 136.828,-112.18976 172.381,-199.13672 39.579,-96.79324 36.933,-205.80917 -7.297,-300.568361 -16.82,-36.035664 -39.109,-68.7592958 -65.721,-97.261718 5.215,-5.094279 10.324,-10.313162 15.235,-15.748047 l -0,0 c 48.735,-53.936894 79.477,-121.531244 88.1,-193.710934 8.129,-68.06144 -3.898,-135.42313 -30.926,-195.54297 -26.919,-59.87516 -67.765,-110.74239 -116.367,-150.80469 -97.045,-79.99399 -218.139,-112.69414 -333.614,-114.89453 z m -1608.2439,284.44531 c 10.0615,7.03889 19.8744,14.40433 29.2246,22.28125 90.5965,76.3215 151.0919,193.03225 166.3887,313.791017 10.0723,79.5145117 -0.5162,158.791738 -34.6953,217.412113 -16.9889,29.13754 -40.1506,53.88467 -65.9043,70.33203 -25.459,16.25912 -55.4392,25.24734 -82.5254,25.12109 -26.9066,-0.12542 -56.6249,-9.25398 -81.9512,-25.55469 -25.6206,-16.49018 -48.7058,-41.14589 -65.8418,-70.20117 -34.4902,-58.480744 -46.1942,-137.3247461 -38.4922,-217.548826 11.4588,-119.352704 63.8732,-235.658064 147.4883,-313.357424 8.4264,-7.83023 17.2636,-15.1944 26.3086,-22.27539 z m 1311.043,8.31445 c 4.8857,4.18022 9.7133,8.43154 14.3965,12.84375 84.9314,80.0166 136.7254,200.42661 146.7594,323.500004 6.466,79.30994257 -5.208,156.4886 -38.744,213.867186 a 100.01,100.01 0 0 0 0,0.002 c -16.651,28.49066 -39.0029,52.67806 -63.7869,68.9375 -24.4861,16.0639 -53.2245,25.19211 -79.2012,25.58789 -25.8909,0.39447 -54.7008,-7.80885 -79.3281,-22.9961 -24.9126,-15.36319 -47.541,-38.69689 -64.3457,-66.3457 -33.8,-55.611092 -45.4864,-131.6548386 -36.9746,-208.212892 13.3194,-119.799968 73.1864,-236.601518 162.7871,-316.513668 12.2071,-10.8872 25.0839,-21.08099 38.4375,-30.66993 z"
       id="path4139-1-0-4-2-2-4-3-2-9"
       inkscape:connector-curvature="0" />
  </g>
</svg>
