<?xml version="1.0" encoding="UTF-8" standalone="no"?>
<!-- Created with Inkscape (http://www.inkscape.org/) -->

<svg
   xmlns:dc="http://purl.org/dc/elements/1.1/"
   xmlns:cc="http://creativecommons.org/ns#"
   xmlns:rdf="http://www.w3.org/1999/02/22-rdf-syntax-ns#"
   xmlns:svg="http://www.w3.org/2000/svg"
   xmlns="http://www.w3.org/2000/svg"
   xmlns:sodipodi="http://sodipodi.sourceforge.net/DTD/sodipodi-0.dtd"
   xmlns:inkscape="http://www.inkscape.org/namespaces/inkscape"
   width="2000"
   height="2048"
   id="svg2992"
   version="1.1"
   inkscape:version="0.91 r13725"
   sodipodi:docname="ദ്ദ.svg">
  <defs
     id="defs5498">
    <inkscape:path-effect
       effect="spiro"
       id="path-effect4140-6-7"
       is_visible="true" />
    <inkscape:path-effect
       effect="spiro"
       id="path-effect4140-6-7-4"
       is_visible="true" />
    <inkscape:path-effect
       effect="spiro"
       id="path-effect4140-6-7-4-1"
       is_visible="true" />
    <inkscape:path-effect
       effect="spiro"
       id="path-effect4140-6-7-4-2"
       is_visible="true" />
    <inkscape:path-effect
       effect="spiro"
       id="path-effect4140-6-7-4-2-9"
       is_visible="true" />
    <inkscape:path-effect
       effect="spiro"
       id="path-effect4140-6-7-4-2-2"
       is_visible="true" />
  </defs>
  <sodipodi:namedview
     inkscape:window-height="845"
     inkscape:window-width="1600"
     inkscape:pageshadow="2"
     inkscape:pageopacity="0.0"
     borderopacity="1.0"
     bordercolor="#666666"
     pagecolor="#ffffff"
     id="base"
     showgrid="true"
     showguides="true"
     inkscape:guide-bbox="true"
     inkscape:zoom="0.08025662"
     inkscape:cx="661.04754"
     inkscape:cy="494.82875"
     inkscape:window-x="1600"
     inkscape:window-y="26"
     inkscape:current-layer="layer1"
     inkscape:window-maximized="1">
    <sodipodi:guide
       orientation="horizontal"
       position="0,600"
       id="guide5596" />
    <inkscape:grid
       type="xygrid"
       id="grid3769"
       empspacing="3"
       visible="true"
       enabled="true"
       snapvisiblegridlinesonly="true"
       spacingx="4px"
       units="px"
       dotted="true"
       spacingy="4px" />
    <sodipodi:guide
       orientation="0,1"
       position="-1040,1600"
       id="guide2985" />
  </sodipodi:namedview>
  <metadata
     id="metadata5594">
    <rdf:RDF>
      <cc:Work
         rdf:about="">
        <dc:format>image/svg+xml</dc:format>
        <dc:type
           rdf:resource="http://purl.org/dc/dcmitype/StillImage" />
        <dc:title />
      </cc:Work>
    </rdf:RDF>
  </metadata>
  <g
     inkscape:label="Layer 1"
     inkscape:groupmode="layer"
     id="layer1"
     transform="translate(0,1048)">
    <path
       style="fill:none;fill-rule:evenodd;stroke:#000000;stroke-width:140;stroke-linecap:round;stroke-linejoin:round;stroke-miterlimit:4;stroke-dasharray:none;stroke-opacity:1"
       d="m 2512.698,340.84219 c -92.5417,-36.72158 -171.1613,-107.4169 -217.4715,-195.5521 -46.3102,-88.135191 -59.9298,-192.984483 -37.6733,-290.02622 27.0702,-118.03049 106.0178,-221.25107 207.5211,-287.28955 101.5032,-66.03848 224.0462,-96.26757 345.1404,-95.8382 73.8021,0.26168 148.9694,11.99635 214.346,46.24131 32.6883,17.12248 62.624,39.80374 86.7287,67.74415 24.1048,27.9404 42.2813,61.20819 51.1987,97.01579 8.2072,32.95603 8.4264,67.96756 -0.1467,100.83031 -8.5731,32.86275 -25.983,63.33179 -49.7399,87.60258 -23.7568,24.27079 -53.5993,42.140532 -85.4326,53.976669 -31.8334,11.836138 -65.5235,17.683342 -99.0453,23.137639 l -27.5016,4.47476 33.11,0.55499 c 29.5479,0.495282 59.2121,1.182814 88.36,6.053112 29.148,4.870298 57.7693,13.961699 83.367,28.729173 25.5978,14.767473 48.0281,35.201009 64.3038,59.867324 16.2756,24.666315 26.3078,53.471963 28.4871,82.943533 3.4151,46.18357 -12.6802,92.88648 -41.0711,129.47258 -28.3908,36.58611 -68.4726,63.30047 -112.0538,78.96124 -45.8277,16.46801 -95.8655,21.06333 -143.9261,13.2177 33.7689,0.69695 67.4546,5.34396 100.1509,13.81602 57.1486,14.808 112.3454,42.25377 151.9022,86.07722 19.7785,21.91173 35.3979,47.73562 44.4265,75.8389 9.0286,28.10328 11.3526,58.49404 5.4731,87.42054 -7.1491,35.17282 -26.2892,67.38619 -51.8771,92.55556 -25.5878,25.16936 -57.4095,43.50609 -91.1352,55.7868 -67.4513,24.56141 -140.9273,25.06002 -212.7113,25.13849 l -124.1601,0.13573"
       id="path4138-1-7-1"
       inkscape:path-effect="#path-effect4140-6-7-4"
       inkscape:original-d="M 2512.698,340.84219 C 2232.2464,167.60467 2214.0176,32.848608 2257.5532,-144.73613 c 53.3727,-217.71126 328.6274,-375.67434 552.6615,-383.12775 136.8014,-4.55126 331.2754,75.74436 352.2734,211.00125 18.1112,116.66186 -133.1859,249.084498 -234.3645,265.547198 l -27.5016,4.47476 33.11,0.55499 c 65.996,1.1062 246.24,72.97622 264.5179,177.593142 14.8375,84.92516 -77.1352,167.71533 -153.1249,208.43382 -34.8573,18.678 -143.9261,13.2177 -143.9261,13.2177 0,0 70.8012,-2.7451 100.1509,13.81602 93.121,52.54527 224.9597,144.95162 201.8018,249.33666 -28.5727,128.79237 -223.7999,173.33663 -355.7236,173.48085 l -124.1601,0.13573"
       inkscape:connector-curvature="0"
       sodipodi:nodetypes="caaascsascaasc" />
    <path
       style="color:#000000;font-style:normal;font-variant:normal;font-weight:normal;font-stretch:normal;font-size:medium;line-height:normal;font-family:sans-serif;text-indent:0;text-align:start;text-decoration:none;text-decoration-line:none;text-decoration-style:solid;text-decoration-color:#000000;letter-spacing:normal;word-spacing:normal;text-transform:none;direction:ltr;block-progression:tb;writing-mode:lr-tb;baseline-shift:baseline;text-anchor:start;white-space:normal;clip-rule:nonzero;display:inline;overflow:visible;visibility:visible;opacity:1;isolation:auto;mix-blend-mode:normal;color-interpolation:sRGB;color-interpolation-filters:linearRGB;solid-color:#000000;solid-opacity:1;fill:#000000;fill-opacity:1;fill-rule:evenodd;stroke:none;stroke-width:140;stroke-linecap:round;stroke-linejoin:round;stroke-miterlimit:4;stroke-dasharray:none;stroke-dashoffset:0;stroke-opacity:1;color-rendering:auto;image-rendering:auto;shape-rendering:auto;text-rendering:auto;enable-background:accumulate"
       d="m 846.7207,-607.37305 c -132.91097,-0.47128 -268.65707,32.40607 -383.5625,107.16407 -115.54416,75.17355 -205.86471,192.04928 -237.57617,330.3164 C 199.47872,-56.0779 215.203,64.973096 269.51758,168.3418 323.83217,271.71049 414.59983,353.32981 523.13672,396.39844 A 70.007,70.007 0 1 0 574.77344,266.26758 C 498.22685,235.89305 431.75702,176.12239 393.45117,103.2207 355.14533,30.319018 343.62947,-58.328861 362.03906,-138.59766 c 22.42895,-97.79385 90.00444,-187.35831 177.4668,-244.26172 88.10107,-57.31896 197.4413,-84.90115 306.71875,-84.51367 66.55065,0.23598 130.45041,11.18844 182.11329,38.25 25.7412,13.48352 48.5875,31.03764 66.207,51.46094 17.522,20.3101 30.2914,44.1782 36.2754,68.20703 5.4685,21.95871 5.479,45.41389 0.045,66.24414 -5.3977,20.69079 -16.7992,40.7471 -32.0293,56.30664 -15.2733,15.60371 -36.1485,28.53437 -59.8047,37.33008 -23.7703,8.83818 -52.86005,14.28352 -85.89253,19.6582 l -27.5,4.47461 a 70.007,70.007 0 0 0 10.06836,139.082035 l 33.10938,0.554687 c 29.24746,0.490247 55.40829,1.330978 77.99809,5.105469 22.528,3.764197 43.1159,10.62486 59.9218,20.320313 16.7196,9.64558 31.0769,22.962454 40.8575,37.785156 9.7607,14.792809 15.8438,32.49381 17.1054,49.55469 1.9663,26.59119 -8.0064,57.47965 -26.5644,81.39453 a 70.007,70.007 0 0 0 0,0.002 c -18.9459,24.41474 -47.8299,44.28746 -80.4239,56 -22.2091,7.98078 -46.0349,12.2241 -69.84371,12.69531 -16.25579,-1.92581 -32.58593,-3.2498 -48.9668,-3.58789 a 70.007,70.007 0 0 0 -12.7207,139.07032 c 17.74974,2.89754 35.64909,4.27396 53.54101,4.47851 13.58351,1.92574 27.0645,4.57687 40.3281,8.01367 47.4126,12.28526 89.9028,34.64706 117.4981,65.21875 13.7311,15.21219 24.087,32.73874 29.7441,50.34766 5.6036,17.44211 6.7776,36.0466 3.5215,52.06641 -3.9533,19.44961 -15.6252,40.12564 -32.3672,56.59375 -17.0207,16.74231 -40.0224,30.45666 -66,39.91601 -52.3803,19.07351 -117.32389,20.83585 -188.83592,20.91406 l -124.16016,0.13477 a 70.007,70.007 0 1 0 0.15234,140 l 124.16016,-0.13477 c 72.05588,-0.0788 154.06358,0.68601 236.58598,-29.36328 41.4736,-15.10204 82.1164,-38.06181 116.2714,-71.6582 34.4339,-33.87059 61.0418,-77.62158 71.3868,-128.51758 8.5028,-41.83319 5.0298,-84.00898 -7.4239,-122.77344 -12.4,-38.59763 -33.2837,-72.72077 -59.1093,-101.33203 -15.7222,-17.4179 -32.9843,-32.52309 -51.2637,-45.63476 21.588,-15.91544 41.4744,-34.64117 58.5293,-56.61914 38.2238,-49.25732 60.442,-111.77289 55.5781,-177.54883 -3.097,-41.882263 -17.0787,-81.794164 -39.8691,-116.33398562 -20.8042,-31.52939938 -48.1052,-57.17316038 -78.9512,-76.54882838 4.5665,-4.07327 9.0454,-8.293288 13.3867,-12.728515 32.2836,-32.982041 55.7008,-73.861771 67.4492,-118.896481 11.7121,-44.89527 11.2858,-91.46266 0.3399,-135.41602 -11.8508,-47.58637 -35.4354,-90.25547 -66.1231,-125.82617 -30.5898,-35.45752 -67.6146,-63.2659 -107.25,-84.02734 -79.0903,-41.42836 -165.52459,-53.94502 -246.5781,-54.23243 z"
       id="path4138-1-7-1-5"
       inkscape:connector-curvature="0" />
    <path
       style="fill:none;fill-rule:evenodd;stroke:#000000;stroke-width:70;stroke-linecap:round;stroke-linejoin:round;stroke-miterlimit:4;stroke-dasharray:none;stroke-opacity:1"
       d="m 3977.0945,371.64103 c -82.3527,-58.23327 -146.6214,-141.67474 -181.9004,-236.16535 -35.279,-94.490607 -41.4205,-199.634445 -17.3824,-297.5898 28.4099,-115.77007 98.7487,-220.15892 193.1321,-292.9711 94.3833,-72.81218 211.9442,-114.16882 330.992,-120.28769 81.0551,-4.1661 164.4063,8.15 235.9659,46.44511 35.7797,19.14755 68.2902,44.6814 94.2199,75.89792 25.9297,31.21652 45.1794,68.16852 54.4411,107.67853 8.4414,36.01072 8.4501,74.08909 -0.9659,109.85736 -9.416,35.76827 -28.3192,68.96005 -54.14,95.44246 -25.8208,26.48242 -58.2767,46.02049 -92.9291,58.952552 -34.6525,12.932061 -71.3457,19.301099 -107.854,25.232083 l -30.0274,4.878129 36.1508,0.605019 c 32.2431,0.53962 64.6124,1.287538 96.4214,6.588291 31.809,5.300752 63.0472,15.196278 90.9964,31.281965 27.9492,16.0856868 52.4534,38.352165 70.2431,65.248927 17.7896,26.896761 28.7666,58.323424 31.151,90.482754 3.7352,50.37807 -13.8647,101.32049 -44.8742,141.19919 -31.0096,39.87871 -74.7642,68.96722 -122.314,86.02351 -50.0444,17.9511 -104.6703,22.95995 -157.1447,14.40918 36.7914,1.87507 73.4207,6.92029 109.349,15.06144 55.3307,12.53762 110.2222,33.15929 153.0919,70.31927 21.4349,18.57999 39.5782,41.18117 51.6865,66.83382 12.1083,25.65265 18.0479,54.4024 15.5574,82.65956 -3.4812,39.49788 -23.382,76.55885 -51.4168,104.59903 -28.0348,28.04019 -63.8014,47.55086 -101.4014,60.13808 -75.2001,25.17443 -156.274,24.29521 -235.5759,24.3818 l -135.5632,0.14803"
       id="path4138-1-7-1-2"
       inkscape:path-effect="#path-effect4140-6-7-4-2"
       inkscape:original-d="m 3977.0945,371.64103 c -306.209,-188.85368 -250.4688,-350.868347 -199.2828,-533.75515 59.9638,-214.25012 302.1014,-398.95208 524.1241,-413.25879 149.0776,-9.60627 361.7004,82.57219 384.6269,230.02156 19.7746,127.17812 -145.4179,271.537756 -255.889,289.484455 l -30.0274,4.878129 36.1508,0.605019 c 72.0573,1.205916 268.8553,79.554523 288.8119,193.601937 16.2002,92.58058 -84.2195,182.83371 -167.1882,227.2227 -38.0587,20.36169 -157.1447,14.40918 -157.1447,14.40918 0,0 76.3887,-1.29099 109.349,15.06144 92.9351,46.10743 237.4311,117.48679 220.3358,219.81265 -23.7283,142.02843 -244.3543,188.96162 -388.3941,189.11891 l -135.5632,0.14803"
       inkscape:connector-curvature="0"
       sodipodi:nodetypes="caaascsascaasc" />
    <path
       style="color:#000000;font-style:normal;font-variant:normal;font-weight:normal;font-stretch:normal;font-size:medium;line-height:normal;font-family:sans-serif;text-indent:0;text-align:start;text-decoration:none;text-decoration-line:none;text-decoration-style:solid;text-decoration-color:#000000;letter-spacing:normal;word-spacing:normal;text-transform:none;direction:ltr;block-progression:tb;writing-mode:lr-tb;baseline-shift:baseline;text-anchor:start;white-space:normal;clip-rule:nonzero;display:inline;overflow:visible;visibility:visible;opacity:1;isolation:auto;mix-blend-mode:normal;color-interpolation:sRGB;color-interpolation-filters:linearRGB;solid-color:#000000;solid-opacity:1;fill:#000000;fill-opacity:1;fill-rule:evenodd;stroke:none;stroke-width:70;stroke-linecap:round;stroke-linejoin:round;stroke-miterlimit:4;stroke-dasharray:none;stroke-dashoffset:0;stroke-opacity:1;color-rendering:auto;image-rendering:auto;shape-rendering:auto;text-rendering:auto;enable-background:accumulate"
       d="m -1043.5273,-1379.1504 c -10.819,-0.01 -21.6072,0.2729 -32.334,0.8242 -125.9421,6.4733 -250.1369,50.0467 -350.5742,127.5293 -100.5345,77.5574 -175.3082,188.315 -205.7442,312.34182 -25.7485,104.92546 -19.2053,216.95965 18.584,318.17383 37.7893,101.21417 106.2698,190.12309 194.4824,252.5 a 35.0035,35.0035 0 1 0 40.416,-57.1543 c -76.4928,-54.08962 -136.5516,-132.06305 -169.3203,-219.83007 -32.7687,-87.76705 -38.5073,-186.02255 -16.1797,-277.00782 26.3836,-107.51336 92.2872,-205.53256 180.5196,-273.59956 88.3292,-68.1418 199.2564,-107.2824 311.4101,-113.0469 76.29527,-3.9215 153.31104,7.9182 217.65432,42.3515 32.14328,17.2016 61.07465,40.0308 83.81055,67.4024 22.69545,27.3228 39.38004,59.5633 47.28906,93.3027 7.1914,30.6781 7.12147,63.1097 -0.73633,92.959 -7.83717,29.77088 -23.7768,57.7903 -45.35352,79.91992 -21.59348,22.14683 -49.5649,39.19622 -80.10546,50.59376 -30.59654,11.41842 -64.97297,17.58631 -101.23047,23.47656 l -30.02735,4.8789 a 35.0035,35.0035 0 0 0 5.02735,69.54102 l 36.15039,0.60547 c 32.09393,0.53712 62.71596,1.36153 91.2539,6.11719 28.5072,4.75054 55.73521,13.5366 79.29102,27.09375 23.51212,13.53199 43.9752,32.24539 58.50976,54.2207 14.52403,21.95935 23.51642,47.82676 25.43946,73.76367 3.0071,40.55813 -11.51718,83.58457 -37.59961,117.12695 -26.27877,33.7949 -64.43333,59.47234 -106.50195,74.5625 -31.69187,11.36799 -65.63925,16.78507 -99.40625,16.25586 -14.67265,-1.71448 -29.38466,-3.10342 -44.14063,-3.85547 a 35.0035,35.0035 0 0 0 -7.41016,69.49805 c 15.71569,2.56089 31.57898,3.94302 47.45704,4.33594 20.08212,2.48251 40.05648,5.84555 59.7871,10.31641 52.12932,11.81221 101.3635,30.95857 137.90235,62.63085 18.20617,15.78132 33.2242,34.70209 42.95898,55.32618 9.68547,20.51961 14.22464,43.30749 12.34375,64.64843 -2.62506,29.78449 -18.31493,59.931601 -41.30273,82.923832 -23.25066,23.255136 -54.15013,40.443297 -87.76172,51.695312 C -876.75523,5.9640914 -953.88402,5.7568621 -1033.4707,5.84375 l -135.5645,0.1464844 a 35.0035,35.0035 0 1 0 0.076,69.9999996 l 135.5645,-0.146484 c 79.01716,-0.08627 164.03471,1.462894 246.64841,-26.193359 41.5885,-13.922414 82.22209,-35.754839 115.04101,-68.580079 33.08178,-33.088145 57.194,-77.062145 61.53125,-126.273432 3.10001,-35.17336 -4.24033,-69.88621 -18.77148,-100.67188 -14.48184,-30.68119 -35.74857,-56.96316 -60.41211,-78.3418 -26.4517,-22.92862 -56.22301,-39.77749 -87.1582,-52.64648 41.70936,-19.56227 79.82673,-47.87033 108.88085,-85.23438 35.93663,-46.21502 56.6117,-105.07347 52.14844,-165.27148 -2.84574,-38.38175 -15.80799,-75.36895 -36.86328,-107.20313 -21.04473,-31.81823 -49.59026,-57.636 -81.97656,-76.27539 -16.70865,-9.61637 -34.19898,-17.16901 -52.03906,-23.0625 24.30588,-13.01821 47.10378,-29.42116 66.88281,-49.70703 30.06478,-30.83521 51.93099,-69.20119 62.92578,-110.96679 10.97416,-41.68732 10.88679,-85.41252 1.19531,-126.75582 -10.61444,-45.2806 -32.4298,-86.9426 -61.59375,-122.0528 -29.12351,-35.0616 -65.21267,-63.3008 -104.6289,-84.3945 -68.92882,-36.8873 -146.21061,-51.293 -221.94332,-51.3633 z"
       id="path4138-1-7-1-2-6"
       inkscape:connector-curvature="0" />
  </g>
</svg>
