<?xml version="1.0" encoding="UTF-8" standalone="no"?>
<!-- Created with Inkscape (http://www.inkscape.org/) -->

<svg
   xmlns:dc="http://purl.org/dc/elements/1.1/"
   xmlns:cc="http://creativecommons.org/ns#"
   xmlns:rdf="http://www.w3.org/1999/02/22-rdf-syntax-ns#"
   xmlns:svg="http://www.w3.org/2000/svg"
   xmlns="http://www.w3.org/2000/svg"
   xmlns:sodipodi="http://sodipodi.sourceforge.net/DTD/sodipodi-0.dtd"
   xmlns:inkscape="http://www.inkscape.org/namespaces/inkscape"
   width="2000"
   height="2048"
   id="svg2992"
   version="1.1"
   inkscape:version="0.91 r13725"
   sodipodi:docname="เดงเต.svg">
  <defs
     id="defs5498">
    <inkscape:path-effect
       effect="spiro"
       id="path-effect4150"
       is_visible="true" />
    <inkscape:path-effect
       effect="spiro"
       id="path-effect3846"
       is_visible="true" />
    <inkscape:path-effect
       effect="spiro"
       id="path-effect3801"
       is_visible="true" />
    <inkscape:path-effect
       effect="spiro"
       id="path-effect4372-5-0-6"
       is_visible="true" />
    <inkscape:path-effect
       effect="spiro"
       id="path-effect4372-5-0-6-4"
       is_visible="true" />
    <inkscape:path-effect
       effect="spiro"
       id="path-effect4150-1"
       is_visible="true" />
    <inkscape:path-effect
       effect="spiro"
       id="path-effect4150-1-3"
       is_visible="true" />
    <inkscape:path-effect
       effect="spiro"
       id="path-effect4372-5-0-6-4-5"
       is_visible="true" />
    <inkscape:path-effect
       effect="spiro"
       id="path-effect4150-1-3-9"
       is_visible="true" />
    <inkscape:path-effect
       effect="spiro"
       id="path-effect4372-5-0-6-4-5-5"
       is_visible="true" />
    <inkscape:path-effect
       effect="spiro"
       id="path-effect4372-5-0-6-94"
       is_visible="true" />
    <inkscape:path-effect
       effect="spiro"
       id="path-effect4372-5-0-6-94-7"
       is_visible="true" />
    <inkscape:path-effect
       effect="spiro"
       id="path-effect4150-1-9"
       is_visible="true" />
    <inkscape:path-effect
       effect="spiro"
       id="path-effect4139-6"
       is_visible="true" />
    <inkscape:path-effect
       effect="spiro"
       id="path-effect4187-0-7"
       is_visible="true" />
    <inkscape:path-effect
       effect="spiro"
       id="path-effect4183-2-9"
       is_visible="true" />
    <inkscape:path-effect
       effect="spiro"
       id="path-effect4372-5-0-6-94-2"
       is_visible="true" />
    <inkscape:path-effect
       effect="spiro"
       id="path-effect4183-2-9-5"
       is_visible="true" />
    <inkscape:path-effect
       effect="spiro"
       id="path-effect4187-0-7-6"
       is_visible="true" />
    <inkscape:path-effect
       effect="spiro"
       id="path-effect4183-2-9-7"
       is_visible="true" />
    <inkscape:path-effect
       effect="spiro"
       id="path-effect4187-0-7-9"
       is_visible="true" />
    <inkscape:path-effect
       effect="spiro"
       id="path-effect4372-5-0-6-94-78"
       is_visible="true" />
  </defs>
  <sodipodi:namedview
     inkscape:window-height="843"
     inkscape:window-width="1600"
     inkscape:pageshadow="2"
     inkscape:pageopacity="0.0"
     borderopacity="1.0"
     bordercolor="#666666"
     pagecolor="#ffffff"
     id="base"
     showgrid="true"
     showguides="true"
     inkscape:guide-bbox="true"
     inkscape:zoom="0.454"
     inkscape:cx="2999.1488"
     inkscape:cy="1005.672"
     inkscape:window-x="1600"
     inkscape:window-y="0"
     inkscape:current-layer="layer1"
     inkscape:window-maximized="1">
    <sodipodi:guide
       orientation="horizontal"
       position="0,600"
       id="guide5596" />
    <inkscape:grid
       type="xygrid"
       id="grid3769"
       empspacing="3"
       visible="true"
       enabled="true"
       snapvisiblegridlinesonly="true"
       spacingx="4px"
       units="px"
       dotted="true"
       spacingy="4px" />
    <sodipodi:guide
       orientation="0,1"
       position="-1040,1600"
       id="guide2985" />
    <sodipodi:guide
       position="2184,1710"
       orientation="0,1"
       id="guide4159"
       inkscape:label=""
       inkscape:color="rgb(0,0,255)" />
  </sodipodi:namedview>
  <metadata
     id="metadata5594">
    <rdf:RDF>
      <cc:Work
         rdf:about="">
        <dc:format>image/svg+xml</dc:format>
        <dc:type
           rdf:resource="http://purl.org/dc/dcmitype/StillImage" />
        <dc:title />
      </cc:Work>
    </rdf:RDF>
  </metadata>
  <g
     inkscape:label="Layer 1"
     inkscape:groupmode="layer"
     id="layer1"
     transform="translate(0,1048)">
    <path
       style="fill:none;fill-rule:evenodd;stroke:#000000;stroke-width:140;stroke-linecap:round;stroke-linejoin:round;stroke-miterlimit:4;stroke-dasharray:none;stroke-opacity:1"
       d="m 1536.2826,-567.58886 c 82.1037,26.22135 156.8641,75.04319 213.8838,139.67543 57.0196,64.63224 96.1406,144.89587 111.9219,229.62791 24.2571,130.239726 -8.9799,271.017463 -92.5015,373.85196 -83.5216,102.8345 -216.722,164.60289 -349.0089,157.46412 -56.994,-3.07564 -113.4465,-18.49425 -163.3959,-46.11368 -49.9493,-27.61944 -93.0436,-67.44499 -124.7383,-114.91309 -31.6947,-47.46811 -51.7526,-102.169869 -62.004,-158.318621 -10.2515,-56.148751 -10.7639,-113.560957 -10.7061,-170.637849 l 0.4191,-413.78239 0.2261,415.45248 c 0.032,58.274694 -0.5337,116.914616 -11.3679,174.173333 -10.8342,57.258717 -32.0267,112.938707 -65.41547,160.699897 -33.38876,47.76119 -78.72166,87.1495 -130.85981,113.17937 -52.13815,26.02988 -110.6923,38.70458 -168.96243,37.97426 C 561.40139,329.21055 442.31951,267.09441 366.74945,170.83241 291.17938,74.570404 259.08127,-53.345442 274.82839,-174.70951 c 11.28524,-86.97605 46.32736,-170.75113 100.33014,-239.85893 54.00279,-69.10781 126.82154,-123.36317 208.48954,-155.34014"
       id="path4370-9-0-9-6"
       inkscape:path-effect="#path-effect4372-5-0-6-94"
       inkscape:original-d="m 1536.2826,-567.58886 c 0,0 323.3797,205.16203 325.8057,369.30334 3.4031,230.247206 -211.3368,538.0595 -441.5104,531.31608 -202.7518,-5.94004 -349.7918,-278.082151 -360.8443,-489.98324 l 0.4191,-413.78239 0.2261,415.45248 c -12.48,258.231 -171.6633,483.87309 -376.60561,486.02686 -216.71094,2.27745 -407.11024,-288.738636 -408.9448,-505.45378 -1.4152,-167.17718 114.81518,-490.55719 308.81968,-395.19907"
       inkscape:connector-curvature="0"
       sodipodi:nodetypes="caacccaac" />
    <path
       style="fill:none;fill-rule:evenodd;stroke:#000000;stroke-width:140;stroke-linecap:round;stroke-linejoin:round;stroke-miterlimit:4;stroke-dasharray:none;stroke-opacity:1"
       d="m 910.4121,748.5885 c 4.64844,32.46962 20.00777,62.98681 41.6128,87.6669 21.60503,24.68009 49.2681,43.67678 79.1554,57.19081 59.7748,27.02806 126.9367,32.17873 192.5252,33.47849 67.6733,1.34107 137.2183,-1.36645 199.6647,-27.48008 31.2232,-13.05681 60.2589,-31.99508 82.9871,-57.07091 22.7283,-25.07582 38.9401,-56.46049 43.807,-89.95201 5.4002,-37.16097 -3.4088,-75.77353 -22.0293,-108.38299 -18.6205,-32.60947 -46.6769,-59.3475 -78.7536,-78.87146 -64.1533,-39.04793 -141.816,-49.01309 -216.9147,-49.78015 -75.5483,-0.77165 -153.9211,7.73145 -219.0477,46.02848 -32.56332,19.14851 -61.15051,45.6999 -80.19748,78.3227 -19.04697,32.6228 -28.16296,71.45538 -22.80942,108.85022 z"
       id="path4181-82-9"
       inkscape:path-effect="#path-effect4183-2-9"
       inkscape:original-d="m 910.4121,748.5885 c 6.55977,119.98578 193.1391,176.73825 313.2934,178.3362 123.3795,1.64085 326.4588,-56.367 326.4588,-174.503 C 1554.9011,578.7873 1364.59,516.33047 1232.4667,515.3871 1099.9299,514.44078 903.17677,616.24597 910.4121,748.5885 Z"
       inkscape:connector-curvature="0"
       sodipodi:nodetypes="aacaa" />
    <path
       style="fill:none;fill-rule:evenodd;stroke:#000000;stroke-width:140;stroke-linecap:round;stroke-linejoin:round;stroke-miterlimit:4;stroke-dasharray:none;stroke-opacity:1"
       d="m 1076.6116,912.9418 c 54.4008,10.41433 109.9928,14.59293 165.3391,12.4278 138.6699,-5.42473 276.4054,-52.04619 386.0341,-137.1363 123.6005,-95.93453 207.7373,-237.48501 248.5602,-388.52805 40.8228,-151.04305 40.239,-311.225856 14.443,-465.547178 -11.5848,-69.304412 -28.1734,-137.771882 -49.5941,-204.693212"
       id="path4185-6-6"
       inkscape:path-effect="#path-effect4187-0-7"
       inkscape:original-d="m 1076.6116,912.9418 c 0,0 73.7928,20.0413 165.3391,12.4278 105.7998,-8.7987 319.3118,-84.4929 386.0341,-137.1363 297.4936,-234.7208 253.9161,-556.32963 263.0032,-854.075228 2.1416,-70.172482 -49.5941,-204.693212 -49.5941,-204.693212"
       inkscape:connector-curvature="0"
       sodipodi:nodetypes="cssac" />
    <path
       style="color:#000000;font-style:normal;font-variant:normal;font-weight:normal;font-stretch:normal;font-size:medium;line-height:normal;font-family:sans-serif;text-indent:0;text-align:start;text-decoration:none;text-decoration-line:none;text-decoration-style:solid;text-decoration-color:#000000;letter-spacing:normal;word-spacing:normal;text-transform:none;direction:ltr;block-progression:tb;writing-mode:lr-tb;baseline-shift:baseline;text-anchor:start;white-space:normal;clip-rule:nonzero;display:inline;overflow:visible;visibility:visible;opacity:1;isolation:auto;mix-blend-mode:normal;color-interpolation:sRGB;color-interpolation-filters:linearRGB;solid-color:#000000;solid-opacity:1;fill:#000000;fill-opacity:1;fill-rule:evenodd;stroke:none;stroke-width:140;stroke-linecap:round;stroke-linejoin:round;stroke-miterlimit:4;stroke-dasharray:none;stroke-dashoffset:0;stroke-opacity:1;color-rendering:auto;image-rendering:auto;shape-rendering:auto;text-rendering:auto;enable-background:accumulate"
       d="M 776.45703 2123.752 A 70.007 70.007 0 0 0 751.23633 2128.9277 C 657.69156 2165.5551 574.96764 2227.1896 513.11133 2306.3477 C 451.25502 2385.5057 411.44597 2480.676 398.51953 2580.3008 C 380.40299 2719.926 416.57488 2865.6936 504.79883 2978.0742 C 593.3925 3090.9259 730.52059 3162.9325 876.00586 3164.7559 C 945.01193 3165.6207 1014.3607 3150.7451 1077.1133 3119.416 C 1139.9924 3088.0237 1193.9948 3041.0497 1234.0762 2983.7148 C 1241.1018 2973.6649 1247.4759 2963.3068 1253.5566 2952.8223 C 1257.9177 2960.2811 1262.4995 2967.6462 1267.3379 2974.8926 C 1305.2636 3031.6927 1356.454 3079.0353 1416.4199 3112.1934 C 1476.2605 3145.2821 1542.8357 3163.3274 1609.916 3166.9473 C 1766.4227 3175.3931 1919.1981 3104.1726 2017.0332 2983.7148 C 2021.6163 2978.072 2026.0654 2972.3389 2030.3828 2966.5234 C 2026.864 3027.4262 2017.7627 3087.4338 2002.0801 3145.459 C 1968.8417 3268.4392 1904.1695 3383.5042 1813.3125 3467.1973 C 1809.3907 3433.7477 1798.3137 3401.8591 1782.0332 3373.3477 C 1756.569 3328.7531 1719.724 3294.2489 1678.8867 3269.3926 C 1597.8191 3220.0496 1507.0882 3210.2355 1426.291 3209.4102 L 1426.291 3209.4082 C 1344.9966 3208.5778 1253.4229 3216.6515 1171.0469 3265.0918 C 1129.542 3289.4983 1091.9663 3323.783 1065.8809 3368.4609 C 1039.5417 3413.5734 1026.3318 3467.3656 1034.2285 3522.5254 C 1041.0705 3570.3175 1062.853 3612.5542 1092.4648 3646.3809 C 1121.8496 3679.9481 1157.8976 3704.2666 1195.4492 3721.2461 C 1206.792 3726.3749 1218.1897 3730.821 1229.6016 3734.6934 A 70.007 70.007 0 0 0 1256.5605 3745.7109 C 1284.7446 3751.1064 1313.2063 3754.954 1341.791 3757.2832 C 1367.0744 3759.6017 1391.7729 3760.459 1415.4277 3760.9277 C 1485.9168 3762.3246 1565.5624 3760.629 1643.4863 3728.043 C 1655.5366 3723.0038 1667.4522 3717.2251 1679.0742 3710.6523 C 1745.0817 3685.6935 1807.6469 3651.3004 1864.0156 3607.5488 C 2001.8079 3500.5992 2092.9609 3345.7818 2137.2305 3181.9863 C 2181.3495 3018.7474 2180.207 2848.5558 2153.1406 2686.6348 C 2145.1499 2638.8313 2134.8744 2591.4185 2122.3926 2544.5918 C 2103.3112 2450.3278 2059.4306 2361.9553 1995.7695 2289.7949 C 1930.2378 2215.5143 1845.0497 2159.8818 1750.6895 2129.7461 A 70.007 70.007 0 1 0 1708.0957 2263.1113 C 1777.9427 2285.4182 1842.2774 2327.4302 1890.7852 2382.4141 C 1922.5569 2418.4276 1947.9571 2460.485 1965.4766 2505.4727 A 70.007 70.007 0 0 0 1967.8359 2514.8223 C 1974.3241 2535.0922 1980.3423 2555.514 1985.8945 2576.0625 C 1986.0545 2576.8917 1986.2263 2577.7188 1986.3809 2578.5488 C 2006.8679 2688.5467 1977.9022 2809.8322 1908.3613 2895.4531 C 1839.1533 2980.6643 1725.528 3032.9822 1617.4609 3027.1504 C 1570.5533 3024.6191 1524.2223 3011.8259 1484.1641 2989.6758 C 1444.2312 2967.595 1409.2332 2935.2864 1383.7695 2897.1504 C 1358.2924 2858.9942 1341.2087 2813.3113 1332.4121 2765.1309 C 1326.1083 2730.6043 1323.9727 2693.4989 1323.2461 2654.498 C 1323.471 2638.9765 1323.4965 2623.6894 1323.4883 2608.6973 L 1323.2637 2193.3535 L 1323.2637 2193.2441 A 70.007 70.007 0 0 0 1183.2637 2193.2109 L 1183.2637 2193.3203 L 1182.8438 2606.9941 C 1182.8277 2622.4978 1182.8858 2638.3503 1183.1289 2654.4219 C 1182.3978 2695.2287 1180.1429 2733.9505 1173.3418 2769.8945 C 1164.0666 2818.914 1146.0547 2865.2792 1119.334 2903.502 C 1092.638 2941.6895 1055.9752 2973.4907 1014.5781 2994.1582 C 973.05435 3014.8889 925.29393 3025.3633 877.75977 3024.7676 C 778.50143 3023.5236 677.46639 2971.2975 614.91992 2891.625 C 552.00373 2811.4816 523.97969 2701.4174 537.35742 2598.3145 C 547.00148 2523.9872 577.27651 2451.6084 623.42578 2392.5508 C 669.57505 2333.4932 732.48807 2286.6177 802.2793 2259.291 A 70.007 70.007 0 0 0 776.45703 2123.752 z M 1418.332 3349.3633 C 1420.5039 3349.3664 1422.68 3349.3801 1424.8613 3349.4023 L 1424.8613 3349.4004 C 1494.2615 3350.1093 1558.8567 3360.2277 1606.0957 3388.9805 C 1629.4118 3403.1722 1648.6802 3422.1451 1660.457 3442.7695 C 1671.9927 3462.9715 1676.8518 3486.764 1674.002 3506.375 C 1671.4214 3524.1331 1661.9352 3543.5687 1647.6016 3559.3828 C 1639.5827 3568.23 1629.8287 3576.3456 1618.8145 3583.4805 C 1559.1614 3604.7669 1495.8451 3616.9565 1432.3242 3619.4414 C 1412.2604 3620.2263 1392.1506 3620.0713 1372.0859 3619.0156 C 1327.3811 3615.922 1286.7633 3608.8911 1253.1309 3593.6836 C 1230.9079 3583.6352 1211.6299 3569.961 1197.8047 3554.168 C 1184.2066 3538.6344 1175.2712 3519.8346 1172.8164 3502.6875 C 1170.0062 3483.0577 1175.0284 3459.1858 1186.7832 3439.0527 C 1198.7918 3418.485 1218.39 3399.6659 1242.0117 3385.7754 C 1288.3928 3358.5016 1351.0036 3349.2656 1418.332 3349.3633 z "
       transform="translate(0,-1048)"
       id="path4370-9-0-9-6-2" />
    <path
       style="color:#000000;font-style:normal;font-variant:normal;font-weight:normal;font-stretch:normal;font-size:medium;line-height:normal;font-family:sans-serif;text-indent:0;text-align:start;text-decoration:none;text-decoration-line:none;text-decoration-style:solid;text-decoration-color:#000000;letter-spacing:normal;word-spacing:normal;text-transform:none;direction:ltr;block-progression:tb;writing-mode:lr-tb;baseline-shift:baseline;text-anchor:start;white-space:normal;clip-rule:nonzero;display:inline;overflow:visible;visibility:visible;opacity:1;isolation:auto;mix-blend-mode:normal;color-interpolation:sRGB;color-interpolation-filters:linearRGB;solid-color:#000000;solid-opacity:1;fill:#000000;fill-opacity:1;fill-rule:evenodd;stroke:none;stroke-width:200;stroke-linecap:round;stroke-linejoin:round;stroke-miterlimit:4;stroke-dasharray:none;stroke-dashoffset:0;stroke-opacity:1;color-rendering:auto;image-rendering:auto;shape-rendering:auto;text-rendering:auto;enable-background:accumulate"
       d="M 2621.1094 338.69922 A 100.01 100.01 0 0 0 2585.1465 346.41211 C 2486.1658 386.18612 2399.1177 452.14692 2334.0508 536.67773 C 2268.9839 621.20853 2227.4933 722.23666 2214.3711 828.09961 C 2196.1391 975.18565 2234.0465 1128.087 2327.4062 1247.2402 C 2421.3227 1367.1037 2565.8284 1443.6776 2721.1621 1445.8438 C 2794.8384 1446.8712 2868.8801 1431.077 2936.2207 1397.4668 C 3001.2304 1365.02 3057.017 1317.1068 3099.4102 1258.7383 C 3138.6153 1312.3862 3189.0193 1357.3083 3247.5352 1389.6562 C 3311.6541 1425.1016 3382.6392 1444.2524 3454.1211 1448.0039 C 3604.8041 1455.912 3750.5306 1394.9314 3853.709 1288.8027 C 3850.8277 1329.5734 3845.3655 1369.7341 3836.9297 1409.0117 C 3814.4278 1513.7808 3768.7556 1613.5776 3703.043 1691.9062 C 3697.3164 1675.7704 3690.153 1660.2612 3681.7598 1645.5625 C 3653.3626 1595.8315 3612.7501 1557.997 3568.1582 1530.8555 C 3479.8416 1477.1002 3383.511 1467.3522 3300.2715 1466.502 C 3216.5146 1465.6465 3119.2824 1473.5366 3029.5137 1526.3242 C 2984.1767 1552.9842 2942.7484 1590.5833 2913.6465 1640.4277 C 2884.1821 1690.893 2869.2184 1751.0978 2878.2051 1813.8711 C 2885.9872 1868.2301 2910.523 1915.4859 2943.5664 1953.2324 C 2976.2854 1990.6084 3015.9274 2017.2091 3056.7637 2035.6738 C 3067.5887 2040.5685 3078.416 2044.8704 3089.2188 2048.6816 A 100.01 100.01 0 0 0 3124.8809 2062.3223 C 3148.8925 2066.846 3173.0885 2070.3118 3197.3848 2072.7422 C 3229.1998 2076.3725 3259.8553 2077.4478 3288.5078 2078.0156 C 3360.2036 2079.4364 3444.1773 2078.1723 3528.7344 2042.8125 C 3539.1652 2038.4506 3549.528 2033.5669 3559.7383 2028.1309 C 3630.2138 2002.0713 3697.1059 1965.3743 3757.1094 1917.5332 C 3905.3025 1799.3781 3994.5683 1627.4825 4032.4707 1451.0078 C 4070.1363 1275.636 4059.0812 1098.0724 4028.0957 931.0293 C 4020.0553 887.68355 4010.5977 844.60562 3999.7676 801.875 C 3999.6082 800.96236 3999.4588 800.04876 3999.2949 799.13672 C 3980.6742 695.52224 3934.1382 598.28497 3865.125 518.78711 C 3796.1119 439.28924 3706.3789 379.55224 3606.4082 346.55859 A 100.01 100.01 0 1 0 3543.7266 536.48242 C 3608.9003 557.99193 3669.1042 598.07157 3714.0957 649.89844 C 3742.5418 682.66612 3765.4736 720.79833 3781.5684 761.48242 A 100.01 100.01 0 0 0 3784.4102 773.36133 C 3791.3547 796.46423 3797.8379 819.70663 3803.8691 843.06641 C 3819.1604 942.4566 3791.6811 1051.127 3729.9766 1127.2598 C 3667.0109 1204.9486 3562.0534 1253.3917 3464.6035 1248.2773 C 3422.0706 1246.0451 3380.0984 1234.4124 3344.2969 1214.6211 C 3308.6718 1194.9273 3277.1501 1165.8348 3254.3652 1131.6855 C 3231.5599 1097.5056 3215.7601 1055.6679 3207.5918 1010.8809 C 3201.7643 978.92834 3199.6846 943.60013 3198.9453 905.62695 C 3199.1616 889.98485 3199.17 874.68108 3199.1621 859.77344 L 3198.9375 438.47461 L 3198.9375 438.32227 A 100.01 100.01 0 0 0 2998.9375 438.27539 L 2998.9375 438.42969 L 2998.5176 858.05859 C 2998.5026 873.44071 2998.5446 889.29145 2998.7773 905.45898 C 2998.0331 945.28292 2995.8343 982.18435 2989.5449 1015.457 C 2980.9424 1060.9664 2964.304 1103.3567 2940.4473 1137.5059 C 2916.6266 1171.6032 2883.6861 1200.1605 2846.9062 1218.5176 C 2809.9482 1236.9636 2766.8315 1246.4613 2723.9512 1245.8633 C 2634.7993 1244.6201 2541.7243 1196.4936 2484.8379 1123.8906 C 2427.395 1050.5774 2401.0077 948.2674 2412.8535 852.70117 C 2421.5068 782.8912 2449.6276 714.41267 2492.5352 658.66992 C 2535.4427 602.9272 2594.4471 558.2187 2659.7188 531.99023 A 100.01 100.01 0 0 0 2621.1094 338.69922 z M 3291.9395 1666.457 C 3294.0282 1666.4592 3296.1242 1666.4707 3298.2285 1666.4922 C 3365.1864 1667.1761 3424.1819 1677.3587 3464.1719 1701.6992 C 3483.7333 1713.6056 3499.2363 1729.2484 3508.0801 1744.7363 C 3516.5793 1759.6207 3519.7451 1777.0608 3517.9883 1789.1504 C 3516.3876 1800.1656 3509.7828 1814.4814 3499.0469 1826.3262 C 3493.0126 1832.9838 3485.3531 1839.4003 3476.4395 1845.207 C 3421.7483 1863.8373 3363.5533 1874.4306 3305.1191 1876.5449 C 3285.0114 1877.2725 3264.8545 1877.0442 3244.748 1875.8926 C 3203.3139 1872.775 3167.3209 1866.169 3139.1641 1853.4375 C 3120.2257 1844.8742 3104.5418 1833.4823 3094.0508 1821.498 C 3083.8842 1809.8844 3077.7022 1796.1076 3076.1875 1785.5273 C 3074.4672 1773.511 3077.7337 1756.0499 3086.3633 1741.2695 C 3095.3554 1725.8683 3111.103 1710.3636 3130.8926 1698.7266 C 3170.1119 1675.664 3227.1887 1666.3889 3291.9395 1666.457 z "
       transform="translate(0,-1048)"
       id="path4370-9-0-9-6-5" />
  </g>
</svg>
