<?xml version="1.0" encoding="UTF-8" standalone="no"?>
<!-- Created with Inkscape (http://www.inkscape.org/) -->

<svg
   xmlns:dc="http://purl.org/dc/elements/1.1/"
   xmlns:cc="http://creativecommons.org/ns#"
   xmlns:rdf="http://www.w3.org/1999/02/22-rdf-syntax-ns#"
   xmlns:svg="http://www.w3.org/2000/svg"
   xmlns="http://www.w3.org/2000/svg"
   xmlns:sodipodi="http://sodipodi.sourceforge.net/DTD/sodipodi-0.dtd"
   xmlns:inkscape="http://www.inkscape.org/namespaces/inkscape"
   width="2000"
   height="2048"
   id="svg2992"
   version="1.1"
   inkscape:version="0.91 r13725"
   sodipodi:docname="ന്ത്ര.svg">
  <defs
     id="defs5498">
    <inkscape:path-effect
       effect="spiro"
       id="path-effect4338"
       is_visible="true" />
    <inkscape:path-effect
       effect="spiro"
       id="path-effect4222"
       is_visible="true" />
    <inkscape:path-effect
       effect="spiro"
       id="path-effect4199"
       is_visible="true" />
    <inkscape:path-effect
       effect="spiro"
       id="path-effect4195"
       is_visible="true" />
    <inkscape:path-effect
       effect="spiro"
       id="path-effect4191"
       is_visible="true" />
    <inkscape:path-effect
       effect="spiro"
       id="path-effect3782"
       is_visible="true" />
    <inkscape:path-effect
       effect="spiro"
       id="path-effect3846"
       is_visible="true" />
    <inkscape:path-effect
       effect="spiro"
       id="path-effect3801"
       is_visible="true" />
    <inkscape:path-effect
       is_visible="true"
       id="path-effect4372-5-0-8"
       effect="spiro" />
    <inkscape:path-effect
       is_visible="true"
       id="path-effect4372-5-0-8-8"
       effect="spiro" />
    <inkscape:path-effect
       is_visible="true"
       id="path-effect4372-5-0-8-9"
       effect="spiro" />
    <inkscape:path-effect
       is_visible="true"
       id="path-effect4372-5-0-8-9-5"
       effect="spiro" />
    <inkscape:path-effect
       is_visible="true"
       id="path-effect4372-5-0-8-9-5-8"
       effect="spiro" />
    <inkscape:path-effect
       is_visible="true"
       id="path-effect4372-5-0-8-9-5-7"
       effect="spiro" />
    <inkscape:path-effect
       is_visible="true"
       id="path-effect4372-5-0-8-9-8-9"
       effect="spiro" />
    <inkscape:path-effect
       is_visible="true"
       id="path-effect4372-5-0-8-9-8-9-3"
       effect="spiro" />
    <inkscape:path-effect
       is_visible="true"
       id="path-effect4372-5-0-8-9-8-9-9"
       effect="spiro" />
    <inkscape:path-effect
       is_visible="true"
       id="path-effect4372-5-0-8-9-8-9-9-5"
       effect="spiro" />
    <inkscape:path-effect
       is_visible="true"
       id="path-effect4372-5-0-8-9-8-9-4"
       effect="spiro" />
    <inkscape:path-effect
       is_visible="true"
       id="path-effect4372-5-0-8-9-8-9-90"
       effect="spiro" />
  </defs>
  <sodipodi:namedview
     inkscape:window-height="843"
     inkscape:window-width="1600"
     inkscape:pageshadow="2"
     inkscape:pageopacity="0.0"
     borderopacity="1.0"
     bordercolor="#666666"
     pagecolor="#ffffff"
     id="base"
     showgrid="true"
     showguides="true"
     inkscape:guide-bbox="true"
     inkscape:zoom="0.35355339"
     inkscape:cx="4140.9655"
     inkscape:cy="1054.0523"
     inkscape:window-x="1600"
     inkscape:window-y="0"
     inkscape:current-layer="layer1"
     inkscape:window-maximized="1">
    <sodipodi:guide
       orientation="horizontal"
       position="0,600"
       id="guide5596" />
    <inkscape:grid
       type="xygrid"
       id="grid3769"
       empspacing="3"
       visible="true"
       enabled="true"
       snapvisiblegridlinesonly="true"
       spacingx="4px"
       units="px"
       dotted="true"
       spacingy="4px" />
    <sodipodi:guide
       orientation="0,1"
       position="1056,1584"
       id="guide2985" />
    <sodipodi:guide
       position="912,1710"
       orientation="0,1"
       id="guide4158"
       inkscape:label=""
       inkscape:color="rgb(0,0,255)" />
  </sodipodi:namedview>
  <metadata
     id="metadata5594">
    <rdf:RDF>
      <cc:Work
         rdf:about="">
        <dc:format>image/svg+xml</dc:format>
        <dc:type
           rdf:resource="http://purl.org/dc/dcmitype/StillImage" />
        <dc:title />
      </cc:Work>
    </rdf:RDF>
  </metadata>
  <g
     inkscape:label="Layer 1"
     inkscape:groupmode="layer"
     id="layer1"
     transform="translate(0,1048)">
    <path
       sodipodi:nodetypes="caaccsaaaasaassac"
       inkscape:connector-curvature="0"
       inkscape:original-d="m 928.34979,331.50169 c 0,0 -479.5052,-211.0357 -484.8891,-426.1477 -5.6759,-226.78125 261.8785,-491.46563 488.0785,-474.27522 209.03991,15.8863 380.84281,310.84482 379.63621,501.42492 l 6.1364,401.8753 -7.1576,-405.1114 c -4.068,-230.24367 171.6472,-485.82232 380.7709,-500.56322 233.8142,-16.48131 472.8032,261.59958 500.0275,494.40752 18.6943,159.864 -94.8877,404.5686 -255.7636,409.5592 -165.3742,5.1301 -303.4357,-239.12649 -288.505,-403.9052 21.7513,-240.0517 284.4552,-557.91573 519.2174,-503.28396 205.7828,47.88793 464.2441,306.93673 516.2408,553.91773 32.7416,155.52061 -49.435,333.11431 -156.8473,450.25213 -160.116,174.6135 -466.4493,290.16206 -648.4478,290.96145 l -639.5792,2.80922 C 813.3612,725.28438 498.6741,707.14593 285.46546,455.83625 65.033452,196.01236 172.8611,-560.14053 172.8611,-560.14053"
       inkscape:path-effect="#path-effect4372-5-0-8-9-8-9"
       id="path4370-9-0-3-5-2-9"
       d="M 928.34979,331.50169 C 808.74423,340.94395 685.96524,300.10444 595.84526,220.90195 505.72527,141.69945 449.4565,25.18177 443.46069,-94.64601 c -6.4076,-128.05768 44.99887,-257.82479 137.05608,-347.0733 92.05722,-89.24851 223.14882,-136.59176 351.02242,-127.20192 58.58747,4.30212 116.51021,20.15634 168.17211,48.12155 51.6618,27.96522 96.695,68.09373 130.2839,116.289 33.589,48.19527 55.4371,104.04085 67.0981,161.61706 11.661,57.57621 13.1852,116.65895 14.0821,175.39731 l 6.1364,401.8753 -7.1576,-405.1114 c -1.0531,-59.60166 -1.4544,-119.61125 8.9904,-178.30002 10.4448,-58.68877 31.8236,-115.80897 65.8371,-164.76351 34.0135,-48.95455 80.3497,-89.25679 133.5359,-116.17702 53.1862,-26.92024 112.8021,-40.50804 172.4075,-41.32267 128.5385,-1.75673 254.872,56.60369 343.9802,149.25884 89.1081,92.65515 141.8355,217.38615 156.0473,345.14868 9.9727,89.653285 0.9172,183.79308 -42.0437,263.11224 -21.4804,39.65957 -51.3025,75.0537 -88.0839,101.15761 -36.7815,26.10392 -80.6077,42.69305 -125.636,45.28935 -46.994,2.70964 -94.4271,-9.90272 -135.0774,-33.63726 -40.6503,-23.73453 -74.5782,-58.31575 -99.5452,-98.22094 -49.934,-79.81038 -63.1836,-178.363579 -53.8824,-272.047 13.0598,-131.54182 69.8762,-259.37132 163.3338,-352.85647 93.4577,-93.48515 223.6956,-150.81547 355.8836,-150.42749 139.9674,0.41081 277.1084,65.78714 370.8185,169.75566 93.7101,103.96852 144.2208,244.19925 145.4223,384.16207 1.3882,161.70881 -60.9064,320.07144 -156.8473,450.25213 -73.5711,99.82746 -169.7645,184.76526 -283.7261,233.66305 -113.9615,48.89778 -240.7139,56.75372 -364.7217,57.2984 l -639.5792,2.80922 C 1067.9601,724.16611 897.0628,722.64063 732.03275,684.81497 567.0027,646.98932 408.20138,572.46211 285.46546,455.83625 151.2521,328.30432 63.97383,152.43224 43.578744,-31.583138 23.183657,-215.59852 69.831691,-406.31413 172.8611,-560.14053"
       style="fill:none;fill-rule:evenodd;stroke:#000000;stroke-width:140;stroke-linecap:round;stroke-linejoin:round;stroke-miterlimit:4;stroke-dasharray:none;stroke-opacity:1" />
    <path
       sodipodi:nodetypes="caaccsaaaaaassac"
       inkscape:connector-curvature="0"
       inkscape:original-d="m -2145.6949,365.77732 c 0,0 -493.4635,-217.34309 -499.0041,-438.88431 -5.8412,-233.55922 269.5018,-506.15442 502.2864,-488.45023 215.1249,16.36111 391.929,320.13528 390.6873,516.411375 l 6.315,413.886465 -7.366,-417.219286 c -4.1863,-237.125134 176.6439,-500.342454 391.8552,-515.523914 240.6204,-16.9739 486.56633,269.4182 514.58313,509.184234 19.23849,164.641986 -97.64987,416.660256 -263.20873,421.800016 -170.1883,5.28343 -312.6068,-246.30446 -296.9034,-415.97703 22.789,-246.23143 287.6214,-528.06359 534.33169,-514.20643 263.0908,14.77722 524.55107,345.74141 504.9176,608.712382 C -393.91537,403.3271 -709.59665,757.49799 -1169.587,762.39902 l -658.1972,7.01271 c -436.2261,4.64778 -872.6029,-74.63813 -1095.9397,-392.10227 -177.5006,-252.30968 0.5482,-925.70399 0.5482,-925.70399"
       inkscape:path-effect="#path-effect4372-5-0-8-9-8-9-9"
       id="path4370-9-0-3-5-2-9-6"
       d="m -2145.6949,365.77732 c -123.1121,9.57576 -249.4294,-32.54817 -342.1526,-114.10007 -92.7231,-81.55191 -150.6302,-201.457073 -156.8515,-324.78424 -6.6509,-131.84416 46.1884,-265.48303 140.9229,-357.42045 94.7345,-91.93741 229.7087,-140.73167 361.3635,-131.02978 60.3165,4.44484 119.9432,20.79875 173.1144,49.61984 53.1713,28.82109 99.5092,70.1621 134.0662,119.79732 34.5569,49.63522 57.0291,107.13648 69.0229,166.41538 11.9938,59.27889 13.5611,120.10581 14.4838,180.578835 l 6.315,413.886465 -7.366,-417.219286 c -1.0834,-61.363904 -1.4976,-123.146774 9.2417,-183.573334 10.7394,-60.42655 32.7229,-119.24356 67.7129,-169.66578 34.99,-50.42222 82.6677,-91.94938 137.4113,-119.69536 54.7436,-27.74597 116.1214,-41.75982 177.4893,-42.58944 132.3062,-1.78862 262.2928,58.43567 353.9348,153.88138 91.64203,95.4457 145.84434,223.81529 160.64833,355.302854 10.40022,92.37368 1.28907,189.416126 -42.89963,271.198886 -22.09435,40.89139 -52.82099,77.38267 -90.74926,104.24737 -37.92824,26.8647 -83.14774,43.86642 -129.55984,46.35376 -48.2914,2.58806 -96.9618,-10.61334 -138.6133,-35.18772 -41.6516,-24.57438 -76.3541,-60.23481 -101.9143,-101.28879 -51.1205,-82.10795 -64.8628,-183.152259 -56.3758,-279.50052 12.0051,-136.28749 68.0586,-269.96978 164.3104,-367.20146 96.2517,-97.23167 233.4601,-155.33802 370.02129,-147.00497 144.1226,8.79445 278.71934,90.55554 366.51263,205.18976 87.79328,114.63422 131.25076,259.309299 138.40497,403.522622 5.1093,102.992348 -7.84732,207.501898 -44.30101,303.962538 -36.4537,96.46065 -96.82221,184.05096 -175.50443,250.70407 -78.68222,66.6531 -174.72797,111.40003 -275.11317,134.98688 -100.3852,23.58686 -204.35448,26.13633 -307.46758,27.23494 l -658.1972,7.01271 c -202.4902,2.15742 -408.1106,0.0875 -602.335,-57.21717 -194.2244,-57.30469 -375.0733,-170.69846 -493.6047,-334.8851 -96.4851,-133.64858 -149.5911,-298.103494 -149.4935,-462.940687 0.098,-164.837193 53.3984,-329.229093 150.0417,-462.763303"
       style="fill:none;fill-rule:evenodd;stroke:#000000;stroke-width:70;stroke-linecap:round;stroke-linejoin:round;stroke-miterlimit:4;stroke-dasharray:none;stroke-opacity:1" />
    <path
       style="color:#000000;font-style:normal;font-variant:normal;font-weight:normal;font-stretch:normal;font-size:medium;line-height:normal;font-family:sans-serif;text-indent:0;text-align:start;text-decoration:none;text-decoration-line:none;text-decoration-style:solid;text-decoration-color:#000000;letter-spacing:normal;word-spacing:normal;text-transform:none;direction:ltr;block-progression:tb;writing-mode:lr-tb;baseline-shift:baseline;text-anchor:start;white-space:normal;clip-rule:nonzero;display:inline;overflow:visible;visibility:visible;opacity:1;isolation:auto;mix-blend-mode:normal;color-interpolation:sRGB;color-interpolation-filters:linearRGB;solid-color:#000000;solid-opacity:1;fill:#000000;fill-opacity:1;fill-rule:evenodd;stroke:none;stroke-width:70;stroke-linecap:round;stroke-linejoin:round;stroke-miterlimit:4;stroke-dasharray:none;stroke-dashoffset:0;stroke-opacity:1;color-rendering:auto;image-rendering:auto;shape-rendering:auto;text-rendering:auto;enable-background:accumulate"
       d="m -901.09375,1447.8574 c -80.04232,-0.1242 -158.74565,20.339 -229.63475,56.4141 -72.0427,-36.8733 -152.2584,-57.5182 -234.0801,-56.4121 -66.3794,0.8973 -132.9235,16.0005 -192.8379,46.3672 -59.9954,30.4078 -111.9952,75.6969 -150.3437,130.9589 -22.3243,32.1704 -39.5038,67.2026 -52.3477,103.586 -12.8072,-32.9368 -29.1211,-64.6593 -49.584,-94.0508 -37.733,-54.1971 -88.1022,-99.1269 -146.1113,-130.5703 -57.9322,-31.4017 -122.3149,-48.9729 -187.2207,-53.7559 -141.9813,-10.4628 -286.0944,41.6202 -388.3106,140.8184 -102.2311,99.2127 -158.6846,241.9523 -151.5039,384.3008 6.7144,133.1014 68.6197,261.2875 168.6914,349.3027 100.0719,88.0152 235.1132,133.0476 367.9825,122.7129 a 35.0035,35.0035 0 1 0 -5.4278,-69.7891 c -113.3549,8.8169 -230.9497,-30.3977 -316.3242,-105.4863 -85.3744,-75.0886 -139.2815,-186.7126 -145.0097,-300.2656 -6.1211,-121.3399 43.1039,-245.879 130.3417,-330.541 87.2529,-84.6767 213.0877,-130.1812 334.4161,-121.2403 55.7272,4.1066 110.5975,19.244 159.0078,45.4844 48.3335,26.1988 90.6404,63.9519 122.0215,109.0254 31.3798,45.0719 52.2603,98.0954 63.4414,153.3574 7.6743,37.9303 10.7412,77.5152 12.2929,118.0254 -0.031,17.787 0.1433,35.4606 0.4512,52.8984 l 7.3594,416.9375 0,0.1973 0,0.084 a 35.0035,35.0035 0 0 0 69.9903,-1.1523 l -0,-0.084 -6.3125,-413.8028 c -0.2824,-18.5096 -0.7531,-37.2811 -1.4394,-56.1582 0.1522,-42.5952 2.0032,-84.1941 9.0937,-124.0898 9.9842,-56.1772 30.3713,-110.2463 62.0078,-155.8359 31.6315,-45.5824 74.9868,-83.3456 124.4785,-108.4297 49.5729,-25.1252 105.7843,-38.0507 162.1407,-38.8125 54.6704,-0.7391 109.3447,10.2923 160.7558,30.6601 -23.9428,17.3457 -46.5434,36.537 -67.3222,57.5274 -102.7563,103.8022 -161.6357,244.9711 -174.3008,388.7519 -8.9645,101.7687 5.0869,210.4144 61.5293,301.0703 28.2664,45.4004 66.7532,85.1545 113.8398,112.9356 47.2041,27.8504 102.374,42.9879 158.2715,39.9922 53.7097,-2.8784 104.966,-22.3192 147.91798,-52.7422 42.8517,-30.352 76.90462,-71.0004 101.31054,-116.1699 48.73662,-90.2 57.84806,-194.4137 46.88868,-291.754 -15.5833,-138.4093 -72.4563,-273.8454 -170.18164,-375.6269 -22.46816,-23.4008 -47.14706,-44.7124 -73.43556,-63.8164 57.7826,-22.7563 119.70004,-33.8238 180.92384,-30.0879 132.28147,8.0719 258.67906,84.2324 340.85742,191.5352 82.54006,107.7749 124.37031,245.6117 131.23437,383.9765 4.90616,98.8975 -7.61607,198.6495 -42.08398,289.8555 -34.41342,91.0619 -91.50652,173.7859 -165.38672,236.3711 -73.85858,62.5669 -164.86702,105.1497 -260.49609,127.6191 -95.69344,22.4844 -197.04704,25.2154 -299.83394,26.3106 l -658.1973,7.0117 c -201.9994,2.1522 -404.0455,-0.3165 -592.0586,-55.7891 -187.8607,-55.427 -362.0125,-165.1121 -475.1309,-321.8008 -92.0768,-127.5424 -142.9642,-285.1275 -142.8711,-442.4336 0.094,-157.3061 51.1668,-314.8304 143.3946,-442.2636 a 35.0035,35.0035 0 1 0 -56.7071,-41.041 c -101.0588,139.6352 -156.585,310.8934 -156.6875,483.2617 a 35.0035,35.0035 0 0 0 0,0 c -0.102,172.3684 55.2219,343.6925 156.1153,483.4473 123.9444,171.6845 311.49,288.7846 512.0781,347.9668 200.4357,59.1378 409.6323,60.8091 612.6133,58.6465 l 658.1972,-7.0117 c 103.4393,-1.1021 210.02269,-3.473 315.09966,-28.1621 105.14133,-24.7045 206.22461,-71.6143 289.73046,-142.3536 83.48425,-70.7209 147.12712,-163.1776 185.6211,-265.0371 38.43951,-101.7152 51.83001,-210.9812 46.51758,-318.0683 -7.44434,-150.0618 -52.5277,-301.5769 -145.57422,-423.0703 -93.40822,-121.9659 -236.20424,-209.3267 -392.16797,-218.8438 -9.24105,-0.5639 -18.47594,-0.849 -27.69336,-0.8633 z m -229.80855,136.7754 c 34.8206,21.2894 67.0505,46.9678 95.2558,76.3438 85.55871,89.1098 137.09057,210.4126 151.11525,334.9785 9.84103,87.4071 0.72866,177.2808 -38.91211,250.6465 -19.78277,36.6132 -47.18268,68.9448 -80.18754,92.3222 -32.9045,23.3064 -72.0888,37.8706 -111.2031,39.9668 -40.6852,2.1805 -82.8561,-9.0844 -118.9551,-30.3828 -36.2165,-21.3677 -67.1321,-52.935 -89.9863,-89.6426 -45.7984,-73.56 -59.2322,-167.0037 -51.2226,-257.9316 11.345,-128.7942 64.571,-254.9875 154.3183,-345.6484 26.7983,-27.0711 57.1342,-50.7919 89.7774,-70.6524 z"
       id="path4370-9-0-3-5-2-9-6-2"
       inkscape:connector-curvature="0" />
    <path
       style="color:#000000;font-style:normal;font-variant:normal;font-weight:normal;font-stretch:normal;font-size:medium;line-height:normal;font-family:sans-serif;text-indent:0;text-align:start;text-decoration:none;text-decoration-line:none;text-decoration-style:solid;text-decoration-color:#000000;letter-spacing:normal;word-spacing:normal;text-transform:none;direction:ltr;block-progression:tb;writing-mode:lr-tb;baseline-shift:baseline;text-anchor:start;white-space:normal;clip-rule:nonzero;display:inline;overflow:visible;visibility:visible;opacity:1;isolation:auto;mix-blend-mode:normal;color-interpolation:sRGB;color-interpolation-filters:linearRGB;solid-color:#000000;solid-opacity:1;fill:#000000;fill-opacity:1;fill-rule:evenodd;stroke:none;stroke-width:140;stroke-linecap:round;stroke-linejoin:round;stroke-miterlimit:4;stroke-dasharray:none;stroke-dashoffset:0;stroke-opacity:1;color-rendering:auto;image-rendering:auto;shape-rendering:auto;text-rendering:auto;enable-background:accumulate"
       d="m 2069.9395,1113.7227 c -84.9559,-0.2494 -168.0698,19.8532 -243.4317,56.041 -71.8559,-34.6419 -151.1973,-53.9265 -232.7051,-52.8125 -69.6029,0.9512 -139.5413,16.707 -203.0644,48.8593 -63.6866,32.235 -118.671,80.0569 -159.4102,138.6915 -8.24,11.8596 -15.6485,24.1191 -22.5957,36.5722 -5.5125,-9.2695 -11.2499,-18.4376 -17.4746,-27.3691 -39.9485,-57.3204 -93.0516,-104.6206 -154.3906,-137.8242 -61.18472,-33.1202 -128.61545,-51.3999 -196.36915,-56.375 -148.49717,-10.9042 -297.85346,43.0013 -404.87305,146.7558 -107.05342,103.7872 -165.70357,251.7517 -158.24414,400.8301 6.97503,139.3975 71.25,272.4915 176.08789,364.6289 104.83792,92.1375 245.08376,138.787 384.22266,127.8027 A 70.007,70.007 0 1 0 826.67383,2019.959 c -100.07222,7.9001 -205.38312,-27.129 -280.78516,-93.3965 -75.40207,-66.2676 -123.66503,-166.2087 -128.68164,-266.4668 -5.35581,-107.037 38.80619,-218.6066 115.86719,-293.3164 77.09484,-74.7427 189.92182,-115.5238 297.17187,-107.6484 49.42124,3.629 97.8375,17.0586 139.97657,39.8691 41.98464,22.7268 78.94844,55.6837 106.17774,94.7539 27.227,39.0668 45.8875,85.9513 55.9199,135.4863 6.7785,33.4689 9.6462,69.426 11.1582,107.0606 -0.026,17.8011 0.217,35.322 0.5195,52.4433 l 7.1582,405.1114 a 70.007,70.007 0 0 0 139.9805,-2.3047 l -0,-0.168 -0,-0.2558 L 1285,1689.6738 c -0.2714,-17.7727 -0.7114,-36.0275 -1.3652,-54.5019 0.185,-40.0754 1.9467,-78.2265 8.2597,-113.6992 8.9305,-50.1801 27.1089,-97.7996 54.4063,-137.0879 27.2878,-39.2745 64.9763,-72.0567 107.6621,-93.6621 42.8491,-21.6883 92.1441,-33.1072 141.7519,-33.7852 29.1349,-0.3982 58.4538,3.1488 87.2676,9.9531 -6.3272,5.7983 -12.5662,11.6954 -18.6367,17.7676 -105.9859,106.0172 -168.895,248.4643 -183.4863,395.4316 -10.4238,104.99 3.4731,219.0334 64.1972,316.0899 30.4464,48.663 72.0221,91.4337 123.5938,121.5449 51.8015,30.2455 112.2437,46.6543 174.4023,43.0703 59.5297,-3.4324 115.3504,-24.896 162.1192,-58.0879 46.5723,-33.0526 83.0272,-76.7252 109.123,-124.9062 52.0454,-96.0919 61.1452,-204.5556 50.0625,-304.1875 -15.7615,-141.6946 -73.8625,-280.5997 -175.164,-385.9336 -6.8756,-7.1492 -13.9729,-14.0847 -21.2149,-20.8692 33.3766,-8.6072 67.5483,-13.1896 101.5508,-13.0898 118.3047,0.3472 238.2861,57.043 319.0273,146.6231 81.1279,90.0089 126.3615,214.3718 127.4219,337.8964 1.2305,143.3413 -54.7598,288.1184 -143.2012,408.1231 -67.5331,91.6347 -154.8917,167.9196 -254.9765,210.8633 -99.1739,42.5528 -216.1667,51.0943 -337.4278,51.6269 l -639.58,2.8086 c -168.67988,0.7408 -334.11587,-1.2719 -489.28714,-36.8379 C 496.4608,2339.2872 349.19182,2269.4469 237.51758,2163.332 115.61481,2047.4979 35.510695,1886.0821 16.986328,1718.9453 -1.5380393,1551.8085 41.274371,1376.7696 134.85352,1237.0527 A 70.007,70.007 0 1 0 18.535156,1159.1445 c -112.479693,167.936 -162.963076,374.3287 -140.697266,575.2227 22.265807,200.894 116.7182112,391.2235 263.24219,530.4531 133.79762,127.1369 304.13145,206.3507 479.14648,246.4649 174.88826,40.0852 351.24649,41.1233 521.18164,40.3769 l 639.5801,-2.8105 c 126.7545,-0.5568 263.2665,-7.726 392.0156,-62.9688 127.8381,-54.8519 232.8655,-148.4425 312.4746,-256.4629 103.4404,-140.3567 172.04,-312.3045 170.4942,-492.3808 -1.3427,-156.401 -57.1316,-312.4997 -163.4239,-430.4278 -106.6789,-118.3571 -260.9793,-192.4143 -422.6093,-192.8886 z m -243.7852,217.9121 c 22.365,15.6798 43.2643,33.4723 62.1309,53.0898 76.9146,79.9763 124.2676,190.5348 136.9296,304.3652 8.8628,79.6747 -0.147,159.4908 -34.0234,222.0372 -16.865,31.1381 -40.0564,58.2548 -67.0469,77.4101 -26.7942,19.0159 -58.6254,30.7301 -89.1523,32.4902 -31.8294,1.8353 -66.2528,-6.9813 -95.752,-24.205 -29.7289,-17.3579 -56.0104,-43.7511 -75.498,-74.8985 -39.1439,-62.5643 -51.7451,-145.625 -43.5664,-228.0019 11.5283,-116.1163 62.2503,-229.33 143.1797,-310.2832 19.1932,-19.1988 40.3152,-36.5755 62.7988,-52.0039 z"
       id="path4370-9-0-3-5-2-9-4"
       inkscape:connector-curvature="0" />
    <path
       style="color:#000000;font-style:normal;font-variant:normal;font-weight:normal;font-stretch:normal;font-size:medium;line-height:normal;font-family:sans-serif;text-indent:0;text-align:start;text-decoration:none;text-decoration-line:none;text-decoration-style:solid;text-decoration-color:#000000;letter-spacing:normal;word-spacing:normal;text-transform:none;direction:ltr;block-progression:tb;writing-mode:lr-tb;baseline-shift:baseline;text-anchor:start;white-space:normal;clip-rule:nonzero;display:inline;overflow:visible;visibility:visible;opacity:1;isolation:auto;mix-blend-mode:normal;color-interpolation:sRGB;color-interpolation-filters:linearRGB;solid-color:#000000;solid-opacity:1;fill:#000000;fill-opacity:1;fill-rule:evenodd;stroke:none;stroke-width:200;stroke-linecap:round;stroke-linejoin:round;stroke-miterlimit:4;stroke-dasharray:none;stroke-dashoffset:0;stroke-opacity:1;color-rendering:auto;image-rendering:auto;shape-rendering:auto;text-rendering:auto;enable-background:accumulate"
       d="m 3092.6816,-712.42578 a 100.01,100.01 0 0 0 -81.6855,44.95898 c -119.7348,176.20765 -173.7382,392.95367 -150.6738,604.740238 23.0645,211.786572 122.4588,411.825502 277.3164,558.128902 138.7194,131.05678 313.7055,212.32898 492.9316,253.54883 179.0745,41.18499 357.7751,42.09526 527.9844,41.34766 l 639.5781,-2.8086 c 127.9318,-0.5619 268.6263,-7.43839 403.7129,-65.40039 133.7853,-57.40364 242.6001,-154.70291 324.7969,-266.23437 106.6545,-144.71783 177.9572,-322.48932 176.3437,-510.437501 -1.4031,-163.445939 -59.4539,-326.343119 -171.1386,-450.253909 -112.237,-124.52353 -273.8926,-202.30305 -444.8067,-202.80468 -84.8811,-0.24914 -167.5997,18.71187 -243.2969,52.88867 -72.3415,-32.73688 -151.6016,-50.77334 -233.3379,-49.65625 -73.8876,1.00982 -148.248,17.69529 -216.2011,52.08984 -67.5921,34.2118 -125.8092,84.70384 -169.3106,146.73633 -41.6634,-56.31944 -95.1747,-102.96118 -156.7324,-136.2832 -65.2658,-35.32919 -136.771,-54.64649 -208.4531,-59.91016 -157.3359,-11.55329 -314.5211,45.16556 -427.9531,155.13672 -113.4804,110.01802 -175.2344,265.77988 -167.3243,423.86719 7.3947,147.78445 75.1005,287.98307 186.2461,385.66406 111.1456,97.68096 258.8783,146.82098 406.3887,135.17578 a 100.01,100.01 0 1 0 -15.7402,-199.37891 c -91.7008,7.23932 -189.5248,-25.29941 -258.6192,-86.02343 -69.0944,-60.724019 -113.9265,-153.56054 -118.5234,-245.43164 -4.905,-98.02806 36.153,-201.8003 106.7871,-270.2793 70.6824,-68.52586 175.6805,-106.49399 274.0918,-99.26758 45.4929,3.34057 89.8326,15.73078 127.8906,36.33203 37.8373,20.4818 71.3438,50.36393 95.8477,85.52344 24.5004,35.15465 41.7944,78.20215 51.1289,124.29101 6.2725,30.97056 9.0411,65.16543 10.541,101.67579 -0.012,17.91181 0.247,35.42771 0.5469,52.40234 l 7.1523,404.87109 0,0.24024 a 100.01,100.01 0 0 0 199.9727,-3.29492 l -0,-0.23829 -6.1328,-401.63671 c -0.269,-17.6178 -0.6926,-35.89484 -1.336,-54.48633 0.2153,-38.96662 1.9416,-75.24213 7.7715,-108 8.2815,-46.53339 25.0868,-90.08101 49.5059,-125.22657 24.4053,-35.12586 58.3865,-64.68594 96.5722,-84.01367 38.4193,-19.44593 83.2921,-29.93525 128.6153,-30.55468 8.0156,-0.10955 16.0677,0.21913 24.1289,0.74218 -97.434,108.26508 -155.0788,246.73293 -169.2481,389.44922 -10.9048,109.8355922 3.2707,230.51913 68.6192,334.9668 32.7947,52.41634 77.6462,98.69502 133.8984,131.53906 56.5804,33.03567 122.598,51.07205 191.2559,47.11328 65.7446,-3.79079 126.7068,-27.34463 177.7558,-63.57422 50.7686,-36.03065 90.0649,-83.24896 118.1387,-135.08203 55.9387,-103.28024 65.0564,-217.8845 53.498,-321.79297 -15.4954,-139.3026 -70.1736,-276.17977 -165.746,-384.23437 13.6815,-1.55093 27.3796,-2.37987 41.0156,-2.33984 109.0207,0.31998 221.6488,53.29352 296.832,136.70703 75.7355,84.02624 118.7052,201.58865 119.7051,318.068356 1.1629,135.46946 -52.1223,274.422834 -137.3496,390.066404 -64.9455,88.12344 -148.5205,160.70183 -242.6582,201.09375 -92.8364,39.83355 -205.6466,48.66983 -325.7305,49.19727 l -639.5781,2.80859 c -168.3534,0.73946 -331.4018,-1.5617 -482.2793,-36.26172 C 3524.6706,519.37393 3382.3697,451.47516 3274.9863,350.02344 3155.6559,237.28468 3076.9215,78.820068 3059.1484,-84.378906 c -17.773,-163.198964 25.0061,-334.899234 117.2715,-470.681644 a 100.01,100.01 0 0 0 -83.7383,-157.36523 z m 1750.252,289.93555 c 14.4265,11.27973 28.1011,23.50417 40.7422,36.64843 71.6889,74.54256 116.7384,179.0271 128.7363,286.886722 8.387,75.398104 -0.6048,149.073557 -30.5879,204.431638 -14.887,27.48609 -35.235,51.05526 -58.0293,67.23242 -22.514,15.97826 -49.2036,25.60405 -73.5156,27.00586 -25.3301,1.46052 -54.1783,-5.72872 -78.8984,-20.16211 -25.0484,-14.62501 -48.0541,-37.5083 -65.1934,-64.90234 -34.5195,-55.173084 -46.844,-131.595701 -39.1465,-209.126952 10.872,-109.505378 58.9849,-216.454768 134.5449,-292.037108 12.8898,-12.89358 26.7703,-24.86889 41.3477,-35.97656 z"
       id="path4370-9-0-3-5-2-9-9"
       inkscape:connector-curvature="0" />
  </g>
</svg>
