<?xml version="1.0" encoding="UTF-8" standalone="no"?>
<!-- Created with Inkscape (http://www.inkscape.org/) -->

<svg
   xmlns:dc="http://purl.org/dc/elements/1.1/"
   xmlns:cc="http://creativecommons.org/ns#"
   xmlns:rdf="http://www.w3.org/1999/02/22-rdf-syntax-ns#"
   xmlns:svg="http://www.w3.org/2000/svg"
   xmlns="http://www.w3.org/2000/svg"
   xmlns:sodipodi="http://sodipodi.sourceforge.net/DTD/sodipodi-0.dtd"
   xmlns:inkscape="http://www.inkscape.org/namespaces/inkscape"
   width="2000"
   height="2048"
   id="svg2992"
   version="1.1"
   inkscape:version="0.91 r13725"
   sodipodi:docname="ന്ദ്ര.svg">
  <defs
     id="defs5498">
    <inkscape:path-effect
       effect="spiro"
       id="path-effect3846"
       is_visible="true" />
    <inkscape:path-effect
       effect="spiro"
       id="path-effect3801"
       is_visible="true" />
    <inkscape:path-effect
       effect="spiro"
       id="path-effect4372-5-0-6-9"
       is_visible="true" />
    <inkscape:path-effect
       effect="spiro"
       id="path-effect4372-5-0-6-9-1"
       is_visible="true" />
    <inkscape:path-effect
       effect="spiro"
       id="path-effect4372-5-0-6-9-1-6"
       is_visible="true" />
    <inkscape:path-effect
       effect="spiro"
       id="path-effect4372-5-0-6-9-1-0"
       is_visible="true" />
    <inkscape:path-effect
       effect="spiro"
       id="path-effect4372-5-0-6-9-1-0-3"
       is_visible="true" />
    <inkscape:path-effect
       effect="spiro"
       id="path-effect4372-5-0-6-9-1-8"
       is_visible="true" />
    <inkscape:path-effect
       effect="spiro"
       id="path-effect4372-5-0-6-9-1-4"
       is_visible="true" />
  </defs>
  <sodipodi:namedview
     inkscape:window-height="844"
     inkscape:window-width="1600"
     inkscape:pageshadow="2"
     inkscape:pageopacity="0.0"
     borderopacity="1.0"
     bordercolor="#666666"
     pagecolor="#ffffff"
     id="base"
     showgrid="true"
     showguides="true"
     inkscape:guide-bbox="true"
     inkscape:zoom="0.32102648"
     inkscape:cx="2452.7674"
     inkscape:cy="993.49242"
     inkscape:window-x="1600"
     inkscape:window-y="0"
     inkscape:current-layer="layer1"
     inkscape:window-maximized="1">
    <sodipodi:guide
       orientation="horizontal"
       position="0,600"
       id="guide5596" />
    <inkscape:grid
       type="xygrid"
       id="grid3769"
       empspacing="3"
       visible="true"
       enabled="true"
       snapvisiblegridlinesonly="true"
       spacingx="4px"
       units="px"
       dotted="true"
       spacingy="4px" />
    <sodipodi:guide
       orientation="0,1"
       position="-1040,1600"
       id="guide2985" />
  </sodipodi:namedview>
  <metadata
     id="metadata5594">
    <rdf:RDF>
      <cc:Work
         rdf:about="">
        <dc:format>image/svg+xml</dc:format>
        <dc:type
           rdf:resource="http://purl.org/dc/dcmitype/StillImage" />
        <dc:title />
      </cc:Work>
    </rdf:RDF>
  </metadata>
  <g
     inkscape:label="Layer 1"
     inkscape:groupmode="layer"
     id="layer1"
     transform="translate(0,1048)">
    <path
       style="fill:none;fill-rule:evenodd;stroke:#000000;stroke-width:140;stroke-linecap:round;stroke-linejoin:round;stroke-miterlimit:4;stroke-dasharray:none;stroke-opacity:1"
       d="M -32.590986,-551.65725 C -139.30719,-417.96613 -202.23119,-249.88581 -209.54583,-78.981853 -216.86047,91.9221 -168.52785,264.76417 -73.624862,407.08454 21.82229,550.22096 164.60426,660.41177 326.03788,719.88764 c 161.43361,59.47587 336.9015,65.57779 508.94176,64.99404 l 418.79936,-1.42104 c 67.1635,-0.22789 134.7024,-1.01261 200.7874,-13.00203 66.0851,-11.98941 130.6189,-35.33372 186.2276,-72.99876 55.6087,-37.66503 101.7886,-89.55211 130.9687,-150.04596 29.18,-60.49386 41.161,-129.21089 33.8597,-195.97671 -8.4568,-77.33271 -42.8893,-151.596 -96.4479,-208.0171 -53.5586,-56.421104 -125.9302,-94.670087 -202.7183,-107.138298 75.8223,-2.980341 149.7874,-38.8313963 199.1001,-96.504271 49.3127,-57.672871 73.2391,-136.309171 64.4052,-211.674061 -8.2863,-70.69369 -44.5983,-137.01168 -96.9334,-185.25371 -52.3352,-48.24203 -119.9678,-78.72001 -190.2067,-90.24189 -124.7028,-20.45604 -257.9976,20.43971 -349.7713,107.31216 -91.7736,86.87245 -139.91631,217.72451 -126.3284,343.36127 l 4.8791,431.7823 -4.1414,-429.4524 c -0.5619,-58.26633 -1.8635,-116.97534 -14.5345,-173.84999 -12.67102,-56.87466 -36.79693,-111.57656 -73.31811,-156.98013 -36.52119,-45.40357 -84.99989,-80.98598 -139.04023,-102.7787 -54.04034,-21.79272 -113.18314,-29.94727 -171.34521,-26.41821 -108.89675,6.60745 -214.78489,54.76671 -291.23005,132.60177 -76.44516,77.83506 -122.69942,184.6291 -127.03497,293.63994 -4.81907,121.1682981 42.70189,243.53107 128.03757,329.68675 85.33568,86.15568 207.23842,134.84463 328.44726,131.1845"
       id="path4370-9-0-9-3-7"
       inkscape:path-effect="#path-effect4372-5-0-6-9-1"
       inkscape:original-d="m -32.590986,-551.65725 c 61.0741,38.4535 -212.835074,688.92112 -41.033876,958.74179 C 102.54454,683.76564 598.6942,785.68343 834.97964,784.88168 l 418.79936,-1.42104 c 261.3887,-0.88693 534.6639,-199.04297 551.8434,-432.02346 10.6517,-144.45384 -123.0565,-325.184811 -299.1662,-315.155398 140.2512,0.68134 270.1711,-173.184902 263.5053,-308.178332 -6.5418,-132.48149 -154.4979,-275.04892 -287.1401,-275.4956 -218.5235,-0.73588 -476.0997,450.67343 -476.0997,450.67343 l 4.8791,431.7823 -4.1414,-429.4524 c -6.23,-140.17535 -195.51825,-453.69771 -398.23805,-460.02703 -198.96407,-6.21206 -418.72918,227.18123 -418.26502,426.24171 0.50419,216.224786 456.48483,460.87125 456.48483,460.87125"
       inkscape:connector-curvature="0"
       sodipodi:nodetypes="cassacaacccaac" />
    <path
       style="fill:none;fill-rule:evenodd;stroke:#000000;stroke-width:70;stroke-linecap:round;stroke-linejoin:round;stroke-miterlimit:4;stroke-dasharray:none;stroke-opacity:1"
       d="m -2327.5308,-563.34612 c -129.6676,148.30216 -198.22,348.495 -186.6774,545.151998 11.5426,196.657002 103.0438,387.455672 249.1701,519.570412 114.3529,103.38794 259.2038,169.73465 409.6781,203.24764 150.4743,33.51299 306.0595,34.25368 460.2131,32.73567 l 564.32188,-5.55708 c 51.53843,-0.50752 103.31682,-1.42791 154.09793,-10.24531 50.7811,-8.8174 100.48693,-25.59181 144.46361,-52.47151 43.97669,-26.8797 81.92461,-63.76317 109.17887,-107.50871 27.25426,-43.74554 43.73234,-94.11609 47.83678,-145.49333 7.06498,-88.43568 -23.60954,-179.26499 -82.84511,-245.30991 C -517.3285,104.72883 -604.29806,64.390435 -692.9785,61.828647 c 80.61,-3.129368 159.2575,-41.255274 211.64657,-102.599798 52.38907,-61.344519 77.73594,-144.989909 68.2104,-225.096269 -8.92451,-75.05196 -47.58993,-145.38969 -103.16126,-196.61733 -55.57132,-51.22764 -127.27928,-83.69625 -201.79726,-96.32614 -106.71629,-18.08712 -219.83788,4.64602 -311.28165,62.55579 -91.4438,57.90977 -160.3548,150.45469 -189.6255,254.65997 l 0.4451,621.12823 -2.2743,-612.65077 c -22.2772,-94.64024 -77.5704,-181.17103 -154.0938,-241.1479 -76.5233,-59.97688 -173.7591,-92.99409 -270.9809,-92.01386 -117.0231,1.17987 -232.3411,52.03509 -313.7295,136.12868 -81.3883,84.0936 -128.3074,200.09939 -130.4907,317.10805 -2.3895,128.057871 48.9231,256.27511 139.0006,347.32766 90.0775,91.05255 217.7349,143.7425 345.8111,142.73179"
       id="path4370-9-0-9-3-7-3"
       inkscape:path-effect="#path-effect4372-5-0-6-9-1-0"
       inkscape:original-d="m -2327.5308,-563.34612 c 64.864,40.88887 -161.6788,788.78695 62.4927,1064.72241 189.4444,233.1895 618.9539,238.45438 869.8912,235.98331 l 564.32188,-5.55708 c 277.59715,-2.7336 434.03888,-132.21776 455.57719,-315.71886 18.49124,-157.54084 -130.69263,-364.919611 -317.73067,-354.255013 148.95434,0.724491 286.9363,-184.153157 279.85697,-327.696067 -6.94781,-140.8719 -164.71285,-278.81726 -304.95852,-292.94347 -196.63931,-19.80645 -500.90715,317.21576 -500.90715,317.21576 l 0.4451,621.12823 -2.2743,-612.65077 c 0,0 -245.4325,-344.91606 -425.0747,-333.16176 -211.0919,13.81211 -444.7132,241.56922 -444.2202,453.23673 0.5355,229.91888 484.8117,490.05945 484.8117,490.05945"
       inkscape:connector-curvature="0"
       sodipodi:nodetypes="cassacaacccaac" />
    <path
       style="color:#000000;font-style:normal;font-variant:normal;font-weight:normal;font-stretch:normal;font-size:medium;line-height:normal;font-family:sans-serif;text-indent:0;text-align:start;text-decoration:none;text-decoration-line:none;text-decoration-style:solid;text-decoration-color:#000000;letter-spacing:normal;word-spacing:normal;text-transform:none;direction:ltr;block-progression:tb;writing-mode:lr-tb;baseline-shift:baseline;text-anchor:start;white-space:normal;clip-rule:nonzero;display:inline;overflow:visible;visibility:visible;opacity:1;isolation:auto;mix-blend-mode:normal;color-interpolation:sRGB;color-interpolation-filters:linearRGB;solid-color:#000000;solid-opacity:1;fill:#000000;fill-opacity:1;fill-rule:evenodd;stroke:none;stroke-width:70;stroke-linecap:round;stroke-linejoin:round;stroke-miterlimit:4;stroke-dasharray:none;stroke-dashoffset:0;stroke-opacity:1;color-rendering:auto;image-rendering:auto;shape-rendering:auto;text-rendering:auto;enable-background:accumulate"
       d="m -2894.2441,1126.7227 c -126.9299,1.2797 -250.5512,55.8867 -338.5254,146.7851 -87.9002,90.8218 -137.9862,214.8681 -140.336,340.7969 -2.572,137.8383 52.1561,274.5889 149.1133,372.5957 96.9572,98.0068 233.1107,154.2031 370.9688,153.1152 a 35.0035,35.0035 0 1 0 -0.5528,-69.998 c -118.2943,0.9335 -237.4545,-48.2492 -320.6523,-132.3477 -83.1978,-84.0984 -131.0957,-203.7831 -128.8887,-322.0605 2.0169,-108.0886 45.7699,-216.0545 120.6465,-293.4199 74.8024,-77.2888 181.8153,-124.3907 288.9316,-125.4707 89.0636,-0.898 178.9371,29.6185 249.0391,84.5624 69.1432,54.1927 119.7444,132.7539 140.6992,218.0821 l 2.2578,607.6719 0,0.5234 0,0 0,0.1035 a 35.0035,35.0035 0 0 0 69.998,-0.1543 l 0,-0.1055 0,-0.025 -0.4394,-615.7696 c 27.547,-93.9047 90.6818,-177.9434 173.3457,-230.2929 83.919,-53.1445 188.7723,-74.216 286.707,-57.6172 68.4215,11.5966 133.9659,41.4996 183.9238,87.5527 49.781,45.8898 84.3013,109.1879 92.1289,175.0156 8.3286,70.0405 -14.2642,144.5982 -60.0703,198.2344 -45.8059,53.6361 -115.9079,87.6193 -186.3886,90.3555 a 35.0035,35.0035 0 0 0 0.3476,69.959 c 78.7402,2.2746 157.2441,38.6862 209.8399,97.3281 52.5958,58.6419 80.2848,140.6314 74.0117,219.1543 -3.657,45.7749 -18.4282,90.8885 -42.6543,129.7734 -24.2129,38.8638 -58.2615,72.0303 -97.7266,96.1524 -39.492,24.1385 -84.995,39.6536 -132.1972,47.8496 -47.2346,8.2016 -97.1026,9.2267 -148.4551,9.7324 l -564.3223,5.5566 c -153.8096,1.5146 -306.6755,0.5235 -452.2598,-31.9004 -145.5589,-32.4181 -284.8407,-96.5241 -393.8125,-195.0468 -139.083,-125.7468 -226.7168,-308.4801 -237.7031,-495.6582 -10.9862,-187.1782 54.6683,-378.9104 178.086,-520.0645 a 35.0035,35.0035 0 1 0 -52.6973,-46.0762 c -135.9176,155.4504 -207.3685,364.1064 -195.2695,570.2422 12.0989,206.1359 107.4671,404.9979 260.6367,543.4805 119.7341,108.2531 270.1533,176.8416 425.5429,211.4492 155.3644,34.6021 313.6685,35.0917 468.1661,33.5703 l 564.3222,-5.5566 c 51.7243,-0.5093 105.4126,-1.3266 159.7403,-10.7598 54.3599,-9.4388 108.2691,-27.4709 156.7304,-57.0918 48.4883,-29.6373 90.3352,-70.238 120.6309,-118.8652 30.2825,-48.6061 48.4675,-104.2334 53.0195,-161.2129 7.8569,-98.3485 -25.8024,-198.0189 -91.6777,-271.4668 -33.6189,-37.4835 -74.962,-67.3087 -120.4727,-87.9648 37.0077,-19.3073 70.4559,-45.4704 97.793,-77.4805 58.9722,-69.053 87.0721,-161.7867 76.3496,-251.959 -10.0214,-84.2763 -52.8317,-161.6534 -114.1933,-218.2188 -61.1849,-56.4023 -139.0554,-91.4364 -219.67,-105.0996 -115.4978,-19.5754 -236.8888,4.819 -335.8574,67.4942 -73.4492,46.5141 -133.0693,113.2301 -171.9062,190.6308 -30.9782,-64.6889 -76.6655,-122.21 -133.3262,-166.6191 -82.9447,-65.0097 -187.5438,-100.5273 -292.9238,-99.4648 z"
       id="path4370-9-0-9-3-7-3-2"
       inkscape:connector-curvature="0" />
    <path
       style="color:#000000;font-style:normal;font-variant:normal;font-weight:normal;font-stretch:normal;font-size:medium;line-height:normal;font-family:sans-serif;text-indent:0;text-align:start;text-decoration:none;text-decoration-line:none;text-decoration-style:solid;text-decoration-color:#000000;letter-spacing:normal;word-spacing:normal;text-transform:none;direction:ltr;block-progression:tb;writing-mode:lr-tb;baseline-shift:baseline;text-anchor:start;white-space:normal;clip-rule:nonzero;display:inline;overflow:visible;visibility:visible;opacity:1;isolation:auto;mix-blend-mode:normal;color-interpolation:sRGB;color-interpolation-filters:linearRGB;solid-color:#000000;solid-opacity:1;fill:#000000;fill-opacity:1;fill-rule:evenodd;stroke:none;stroke-width:140;stroke-linecap:round;stroke-linejoin:round;stroke-miterlimit:4;stroke-dasharray:none;stroke-dashoffset:0;stroke-opacity:1;color-rendering:auto;image-rendering:auto;shape-rendering:auto;text-rendering:auto;enable-background:accumulate"
       d="m 839.93945,1136.2227 c -8.48684,0.086 -16.95687,0.3881 -25.39843,0.9003 -126.68323,7.6868 -247.95771,62.8323 -336.93164,153.4239 -88.9833,90.6012 -141.98997,212.9572 -147.03907,339.9082 -5.61967,141.297 48.73817,281.2604 148.25,381.7285 99.51183,100.4681 238.94868,156.1607 380.29297,151.8926 a 70.007,70.007 0 1 0 -4.22461,-139.9356 c -101.07343,3.0521 -205.44203,-38.6332 -276.60156,-110.4765 -71.15955,-71.8434 -111.84472,-176.605 -107.82617,-277.6446 3.62206,-91.0705 43.12422,-182.304 107.03125,-247.373 63.91638,-65.0785 154.41713,-106.251 245.52734,-111.7793 48.79165,-2.9605 97.69756,4.0343 140.92578,21.4668 42.99619,17.339 81.92159,45.9848 110.67579,81.7324 28.7475,35.7392 48.8976,80.563 59.5391,128.3281 5.9987,26.9257 8.9937,55.8654 10.6953,86.1504 -1.369,24.1706 -0.9195,48.5005 1.4511,72.7949 l 4.8575,429.9258 a 70.007,70.007 0 0 0 139.9921,-1.4668 l -0,-0.1152 0,0 -0.01,-0.6699 -4.1328,-428.666 c -0.2219,-23.0108 -0.5348,-46.7796 -1.6738,-71.1075 7.0711,-83.4978 45.1632,-166.0632 105.3887,-223.0722 75.1637,-71.1497 188.1852,-105.826 290.3183,-89.0723 57.8634,9.4918 113.0554,34.8042 154.0957,72.6348 40.6928,37.5102 68.7306,89.6971 74.8535,141.9336 6.4771,55.2578 -11.9296,115.7472 -48.0859,158.0332 -36.1564,42.286 -93.0533,69.8636 -148.6465,72.0488 a 70.007,70.007 0 0 0 -8.4687,139.041 c 61.3009,9.9535 120.4114,41.1946 163.1679,86.2363 42.7566,45.0417 70.8817,105.698 77.6329,167.4336 5.8374,53.38 -3.8989,109.3916 -27.3243,157.9551 -23.429,48.5714 -61.383,91.4855 -107.1757,122.502 -45.9084,31.0947 -101.2092,51.5106 -159.4668,62.08 -58.3706,10.5898 -121.7518,11.6504 -188.5293,11.877 l -418.8008,1.4219 c -170.22365,0.5776 -337.05275,-6.3533 -484.50392,-60.6778 C 412.11692,2361.2065 280.94378,2259.7839 194.17383,2129.6602 107.69802,1999.9774 63.2841,1841.1499 69.949219,1685.4219 76.614338,1529.6937 134.43575,1375.2435 231.67578,1253.4238 A 70.007,70.007 0 1 0 122.25977,1166.084 c -116.1923109,145.5625 -184.217482,327.2717 -192.181645,513.3515 -7.964163,186.0798 44.287096,372.9365 147.617187,527.8946 104.124328,156.149 258.515798,275.1092 433.703128,339.6523 175.41608,64.6274 359.52198,69.9005 533.37886,69.3106 l 418.7989,-1.4219 c 67.5495,-0.2292 139.2452,-0.736 213.0449,-14.125 73.9125,-13.4096 147.6792,-39.6827 212.9883,-83.918 65.4246,-44.3135 119.8308,-105.1756 154.7617,-177.5918 34.9349,-72.4242 49.1616,-153.8463 40.3965,-233.998 -10.1625,-92.9298 -50.905,-180.7991 -115.2656,-248.5996 -19.0325,-20.0497 -39.9636,-38.0715 -62.3379,-53.9785 22.391,-16.0603 43.007,-34.7567 61.1543,-55.9805 62.4691,-73.0598 91.9173,-169.8425 80.7265,-265.3145 -10.4499,-89.1509 -55.036,-169.6002 -119.0137,-228.5742 -63.6299,-58.6534 -143.7039,-94.2976 -226.3183,-107.8496 -147.2723,-24.1583 -300.8411,22.9574 -409.2246,125.5527 -26.5786,25.1591 -49.9275,53.2452 -69.8672,83.4512 -11.7314,-21.4759 -25.2585,-42.1686 -40.9102,-61.6269 -44.2881,-55.0596 -102.3199,-97.5778 -167.4043,-123.8243 -56.74589,-22.8837 -116.95924,-32.8761 -176.36715,-32.2714 z"
       id="path4370-9-0-9-3-7-33"
       inkscape:connector-curvature="0" />
    <path
       style="color:#000000;font-style:normal;font-variant:normal;font-weight:normal;font-stretch:normal;font-size:medium;line-height:normal;font-family:sans-serif;text-indent:0;text-align:start;text-decoration:none;text-decoration-line:none;text-decoration-style:solid;text-decoration-color:#000000;letter-spacing:normal;word-spacing:normal;text-transform:none;direction:ltr;block-progression:tb;writing-mode:lr-tb;baseline-shift:baseline;text-anchor:start;white-space:normal;clip-rule:nonzero;display:inline;overflow:visible;visibility:visible;opacity:1;isolation:auto;mix-blend-mode:normal;color-interpolation:sRGB;color-interpolation-filters:linearRGB;solid-color:#000000;solid-opacity:1;fill:#000000;fill-opacity:1;fill-rule:evenodd;stroke:none;stroke-width:200;stroke-linecap:round;stroke-linejoin:round;stroke-miterlimit:4;stroke-dasharray:none;stroke-dashoffset:0;stroke-opacity:1;color-rendering:auto;image-rendering:auto;shape-rendering:auto;text-rendering:auto;enable-background:accumulate"
       d="m 2978.582,-657.65625 c -9.0159,0.11535 -18.0096,0.46331 -26.9687,1.0332 -134.2242,8.53805 -261.5374,67.26045 -355.4258,163.19336 -93.8484,95.89212 -149.5936,224.05191 -156.3633,357.79102 -7.6704,151.533187 48.1573,301.44232 153.0762,411.04687 104.9189,109.60457 252.2471,171.92355 403.9707,170.87696 a 100.01,100.01 0 1 0 -1.3789,-199.9961 c -94.6462,0.65287 -192.6681,-40.80764 -258.1172,-109.17968 -65.4491,-68.372095 -102.5915,-168.109301 -97.8066,-262.63672 4.2417,-83.7973 41.0544,-168.2356 99.5566,-228.01172 58.4622,-59.73535 142.0341,-98.19899 225.1855,-103.48828 44.6801,-2.84212 89.1675,3.58957 127.7364,19.12304 38.2408,15.40136 73.0663,41.08344 98.4804,72.71485 25.407,31.62251 43.8334,72.24913 53.5879,116.15039 5.3798,24.21228 8.2187,50.89864 9.8789,79.38476 -1.3102,24.66076 -0.8344,49.49367 1.5039,74.332034 l 4.8458,444.775386 0,0.13086 0,0.16016 a 100.01,100.01 0 0 0 199.9902,-2.01953 l -0,-0.16016 -4.1406,-445.292966 c -0.2088,-22.466904 -0.4641,-45.910394 -1.5371,-70.158204 6.9668,-75.51221 41.7709,-150.76199 95.877,-201.97851 68.0453,-64.41132 172.3793,-96.42293 264.8398,-81.25586 52.5595,8.62177 102.4174,31.71926 138.6172,65.08789 35.7031,32.91076 60.195,79.04309 65.3906,123.36914 5.467,46.64042 -10.572,99.35331 -41.0898,135.04492 -30.5178,35.691582 -80.0999,59.723938 -127.0235,61.568359 a 100.01,100.01 0 0 0 -12.0996,198.630861 c 54.6636,8.87581 108.0917,37.11255 146.2188,77.27734 38.1271,40.16483 63.5462,94.98982 69.5664,150.04102 5.2101,47.64313 -3.5625,98.20972 -24.5215,141.66015 -20.9644,43.46184 -55.3925,82.52817 -96.9785,110.69532 -41.751,28.27889 -93.0971,47.43967 -148,57.40039 -55.0643,9.98998 -116.6633,11.17045 -183.2754,11.39648 l -418.7988,1.42188 c -169.4451,0.57497 -332.5726,-6.71148 -474.0313,-58.82813 -141.7855,-52.23707 -267.984,-149.90233 -351.0351,-274.44922 -82.8642,-124.26649 -125.5977,-277.086336 -119.211,-426.310544 6.3867,-149.224126 62.0223,-297.834476 155.2012,-414.566406 a 100.01,100.01 0 1 0 -156.3086,-124.76953 c -120.2535,150.65033 -190.4665,338.19946 -198.709,530.783201 -8.2425,192.583669 45.6871,385.447999 152.6289,545.822269 107.8431,161.72599 267.2093,284.44349 448.291,351.1582 181.4086,66.83511 369.2161,71.75079 543.8516,71.1582 l 418.8008,-1.41992 c 67.7149,-0.22977 141.1929,-0.61857 218.2988,-14.60742 77.2672,-14.01813 154.9887,-41.54651 224.4551,-88.59766 69.6314,-47.16291 127.5633,-111.86866 164.959,-189.39453 37.4012,-77.53725 52.5897,-164.40643 43.1972,-250.29492 -10.8934,-99.61422 -54.338,-193.31482 -123.3281,-265.992188 -11.3059,-11.91014 -23.2669,-23.093772 -35.707,-33.658203 12.5612,-11.204356 24.4996,-23.207443 35.5664,-36.1503902 68.1076,-79.6541358 99.9215,-184.2133788 87.7207,-288.3027388 -11.377,-97.06133 -59.5094,-183.56733 -128.4766,-247.14062 -68.4705,-63.11544 -153.8766,-100.97254 -241.7949,-115.39453 -156.9451,-25.74502 -319.203,24.03555 -434.7051,133.36914 -16.95,16.0448 -32.5152,33.27784 -46.9551,51.3125 -6.2137,-9.05492 -12.6838,-17.98538 -19.6503,-26.65625 -47.6087,-59.25567 -109.77,-104.81245 -179.6758,-132.9668 -60.8806,-24.51943 -125.0702,-35.0399 -188.1817,-34.23242 z"
       id="path4370-9-0-9-3-7-0"
       inkscape:connector-curvature="0" />
  </g>
</svg>
