<?xml version="1.0" encoding="UTF-8" standalone="no"?>
<!-- Created with Inkscape (http://www.inkscape.org/) -->

<svg
   xmlns:dc="http://purl.org/dc/elements/1.1/"
   xmlns:cc="http://creativecommons.org/ns#"
   xmlns:rdf="http://www.w3.org/1999/02/22-rdf-syntax-ns#"
   xmlns:svg="http://www.w3.org/2000/svg"
   xmlns="http://www.w3.org/2000/svg"
   xmlns:sodipodi="http://sodipodi.sourceforge.net/DTD/sodipodi-0.dtd"
   xmlns:inkscape="http://www.inkscape.org/namespaces/inkscape"
   version="1.1"
   width="2000"
   height="2000"
   id="svg2992"
   inkscape:version="0.91 r13725"
   sodipodi:docname="ന്നൂ.svg">
  <sodipodi:namedview
     pagecolor="#ffffff"
     bordercolor="#666666"
     borderopacity="1"
     objecttolerance="10"
     gridtolerance="10"
     guidetolerance="10"
     inkscape:pageopacity="0"
     inkscape:pageshadow="2"
     inkscape:window-width="1600"
     inkscape:window-height="844"
     id="namedview7"
     showgrid="true"
     inkscape:zoom="0.1767767"
     inkscape:cx="3661.2575"
     inkscape:cy="-17.957033"
     inkscape:window-x="1600"
     inkscape:window-y="0"
     inkscape:window-maximized="1"
     inkscape:current-layer="layer1-3"
     showguides="true"
     inkscape:guide-bbox="true">
    <inkscape:grid
       type="xygrid"
       id="grid2984" />
    <sodipodi:guide
       orientation="0,1"
       position="-2000,1600"
       id="guide2984" />
    <sodipodi:guide
       orientation="0,1"
       position="1480,560"
       id="guide2986" />
  </sodipodi:namedview>
  <defs
     id="defs5498">
    <inkscape:path-effect
       is_visible="true"
       id="path-effect4143"
       effect="spiro" />
    <inkscape:path-effect
       is_visible="true"
       id="path-effect4372-5-9-5"
       effect="spiro" />
    <inkscape:path-effect
       is_visible="true"
       id="path-effect4372-5-9-5-9"
       effect="spiro" />
    <inkscape:path-effect
       is_visible="true"
       id="path-effect4143-4"
       effect="spiro" />
    <inkscape:path-effect
       is_visible="true"
       id="path-effect4372-5-9-5-9-8"
       effect="spiro" />
    <inkscape:path-effect
       is_visible="true"
       id="path-effect4372-5-9-5-9-82"
       effect="spiro" />
    <inkscape:path-effect
       is_visible="true"
       id="path-effect4372-5-9-5-9-82-4"
       effect="spiro" />
    <inkscape:path-effect
       is_visible="true"
       id="path-effect4372-5-9-5-9-82-6"
       effect="spiro" />
    <inkscape:path-effect
       is_visible="true"
       id="path-effect4372-5-9-5-9-82-6-3"
       effect="spiro" />
    <inkscape:path-effect
       is_visible="true"
       id="path-effect4372-5-9-5-9-82-1"
       effect="spiro" />
  </defs>
  <metadata
     id="metadata5594">
    <rdf:RDF>
      <cc:Work
         rdf:about="">
        <dc:format>image/svg+xml</dc:format>
        <dc:type
           rdf:resource="http://purl.org/dc/dcmitype/StillImage" />
        <dc:title />
      </cc:Work>
    </rdf:RDF>
  </metadata>
  <g
     transform="translate(0,1000)"
     id="layer1">
    <g
       id="layer1-3"
       transform="translate(1166.9174,811.53512)">
      <path
         sodipodi:nodetypes="caaaacccasccac"
         inkscape:connector-curvature="0"
         inkscape:original-d="m 1311.2281,-63.540697 c -34.1934,-16.4115 522.3158,-799.020063 230.8373,-928.235303 -170.6809,-75.6645 -454.4741,344.5038 -311.997,465.1578 164.5066,139.30931 482.392,-228.55972 470.3965,-443.7936 -11.6395,-208.8458 -293.4471,-399.2122 -501.4594,-377.2361 -227.79254,24.0659 -450.6959,518.7395 -450.6959,518.7395 l -5.39721,387.2548 3.68181,-360.2059 c 6.4884,-489.6756 -137.51821,-535.3779 -353.36091,-543.1082 -197.92959,-7.0888 -357.960609,386.54926 -358.833021,473.5781 l -2.3161,430.5594 1.2482,-434.3671 c -178.431019,-743.5731 -320.813619,-575.9682 -533.264939,-470.708 -270.70731,134.1235 65.5471,903.9622 65.5471,903.9622"
         inkscape:path-effect="#path-effect4372-5-9-5-9-82"
         id="path4370-9-3-9-2-9"
         d="m 1311.2281,-63.540697 c 131.6889,69.8609437 295.6432,75.445325 431.7804,14.706696 136.1372,-60.738629 241.4993,-186.480579 277.4754,-331.146519 35.9762,-144.66594 1.7846,-305.11266 -90.0448,-422.54295 -91.8295,-117.43028 -239.3015,-189.29268 -388.3737,-189.25253 -58.5106,0.0158 -117.2952,10.65167 -170.9764,33.92871 -53.6812,23.27703 -102.1268,59.41878 -137.4122,106.09253 -35.2853,46.67374 -57.0154,103.99244 -58.628,162.48082 -1.6126,58.48839 17.4315,117.81575 55.0196,162.65574 24.4371,29.15177 56.2903,51.9216 91.5107,66.29255 35.2204,14.37095 73.7337,20.38232 111.7085,18.16584 75.9496,-4.43297 148.3638,-42.19799 199.7284,-98.31997 51.3645,-56.12198 82.201,-129.53449 92.0604,-204.9718 9.8594,-75.43731 -0.5985,-152.77038 -24.6115,-224.96022 -35.343,-106.2512 -100.8506,-202.9812 -189.3794,-271.5458 -88.5287,-68.5645 -200.1293,-108.0295 -312.08,-105.6903 -128.9633,2.6947 -255.73266,62.094 -340.33328,159.4672 -84.60063,97.3731 -125.70914,231.197 -110.36262,359.2723 l -5.39721,387.2548 3.68181,-360.2059 c 0.61883,-60.54264 0.87029,-121.33651 -7.51716,-181.29854 -8.38745,-59.96206 -25.51022,-119.09466 -54.67968,-172.15066 -29.16945,-53.056 -70.41299,-99.7332 -120.83338,-133.253 -50.42039,-33.5198 -109.84807,-53.6406 -170.33069,-56.406 -56.31243,-2.5747 -113.25181,9.9463 -163.25214,35.9787 -50.00033,26.0324 -92.75034,65.4555 -123.88262,112.4502 -31.132271,46.9947 -50.535047,101.1639 -60.574897,156.6339 -10.039851,55.47001 -10.820132,112.14486 -11.123364,168.5153 l -2.3161,430.5594 1.2482,-434.3671 c 6.579893,-135.8751 -51.534701,-273.475 -153.521289,-363.4976 -101.98659,-90.0226 -245.73635,-130.6065 -379.74365,-107.2104 -109.95099,19.1962 -212.02322,80.4409 -280.70084,168.4244 -68.67763,87.9835 -103.30895,201.87087 -95.23691,313.19272 8.07205,111.32185 58.77087,219.02184 139.42287,296.17732 80.652,77.15548 190.49185,123.0343 302.06198,126.16776"
         style="fill:none;fill-rule:evenodd;stroke:#000000;stroke-width:140;stroke-linecap:round;stroke-linejoin:round;stroke-miterlimit:4;stroke-dasharray:none;stroke-opacity:1" />
      <path
         style="color:#000000;font-style:normal;font-variant:normal;font-weight:normal;font-stretch:normal;font-size:medium;line-height:normal;font-family:sans-serif;text-indent:0;text-align:start;text-decoration:none;text-decoration-line:none;text-decoration-style:solid;text-decoration-color:#000000;letter-spacing:normal;word-spacing:normal;text-transform:none;direction:ltr;block-progression:tb;writing-mode:lr-tb;baseline-shift:baseline;text-anchor:start;white-space:normal;clip-rule:nonzero;display:inline;overflow:visible;visibility:visible;opacity:1;isolation:auto;mix-blend-mode:normal;color-interpolation:sRGB;color-interpolation-filters:linearRGB;solid-color:#000000;solid-opacity:1;fill:#000000;fill-opacity:1;fill-rule:evenodd;stroke:none;stroke-width:140;stroke-linecap:round;stroke-linejoin:round;stroke-miterlimit:4;stroke-dasharray:none;stroke-dashoffset:0;stroke-opacity:1;color-rendering:auto;image-rendering:auto;shape-rendering:auto;text-rendering:auto;enable-background:accumulate"
         d="m -342.80859,212.55859 c -29.42243,0.0395 -58.92036,2.56153 -88.14649,7.66407 -127.5699,22.2722 -244.15905,92.22631 -323.8418,194.30859 -79.68275,102.08226 -119.23857,232.16769 -109.87304,361.32813 9.36551,129.15996 67.27424,252.17632 160.84961,341.69532 93.57594,89.5191 219.03786,141.923 348.48633,145.5586 a 70.007,70.007 0 1 0 3.93164,-139.9434 c -93.6918,-2.6314 -187.91062,-41.9855 -255.63868,-106.7773 -67.72804,-64.79181 -111.21753,-157.17495 -117.99609,-250.65822 -6.77855,-93.48329 22.92711,-191.17386 80.59961,-265.0586 57.67249,-73.88474 145.22845,-126.41896 237.56055,-142.53906 112.1419,-19.57866 236.03498,15.39841 321.380856,90.73242 85.34588016,75.33402 135.434012,193.92787 129.927735,307.63281 a 70.007,70.007 0 0 0 -0.08203,3.1836 l -1.246093,433.99415 -0.002,0.1992 0,0.1738 a 70.007,70.007 0 0 0 139.998048,0.5782 l 0,-0.1758 0.002,0 0.002,-0.4024 2.3125,-429.98043 c 0.30111,-55.97689 1.34106,-108.55294 10.00586,-156.42579 8.64728,-47.7761 25.20073,-92.92985 50.05078,-130.4414 24.79241,-37.42456 59.03111,-68.80983 97.85156,-89.02149 38.8474,-20.22568 83.9106,-30.1421 127.72851,-28.13867 47.09644,2.15333 94.71592,18.14097 134.77344,44.77149 40.12642,26.67631 74.14867,64.8495 98.24805,108.68359 24.16234,43.9486 39.24385,94.8524 46.69531,148.12305 3.07443,21.97912 4.83762,44.66237 5.85742,67.91211 -0.89955,21.08922 -0.44709,42.26187 1.19922,63.4082 -0.001,13.05518 -0.0744,26.20852 -0.21094,39.56641 l -3.67773,359.75583 -0.002,0.1895 -0.002,0.2597 a 70.007,70.007 0 0 0 139.98829,1.6914 l 0.004,-0.2597 0,-0.076 5.39453,-386.91796 a 70.007,70.007 0 0 0 -0.49023,-9.30468 c -0.40373,-3.36934 -0.62027,-6.76517 -0.92969,-10.14844 -0.0127,-18.25885 -0.29958,-36.81859 -0.98828,-55.58984 4.85644,-87.14221 38.82234,-173.92325 95.61914,-239.29493 71.13795,-81.87795 180.51205,-133.12666 288.95315,-135.39257 94.539,-1.97543 191.4625,31.9604 267.7558,91.04882 44.5207,34.48075 82.7401,77.78905 113.1114,126.4043 -13.0555,-0.93559 -26.1464,-1.56995 -39.2891,-1.56641 -66.9809,0.0181 -135.1512,12.10586 -198.8047,39.70703 -63.842,27.68292 -122.0127,70.70585 -165.4023,128.09961 -43.5739,57.63747 -70.7083,128.21849 -72.7637,202.76563 -2.067,74.96954 21.7094,150.33964 71.3477,209.55464 32.1474,38.3497 73.2124,67.5721 118.7109,86.1368 45.4252,18.5349 94.1595,26.0402 142.2324,23.2343 96.4521,-5.6296 184.3592,-52.185 247.2871,-120.9414 62.4703,-68.2564 98.3003,-154.91199 109.834,-243.16012 4.2957,-32.86775 5.26,-65.71102 3.3887,-98.16992 29.0454,21.72909 55.3232,46.88705 77.4219,75.14648 77.9638,99.6992 107.7998,239.70676 77.2558,362.52926 -30.5441,122.8225 -122.4849,232.5458 -238.0664,284.1133 -115.5815,51.5676 -258.6502,46.6953 -370.4551,-12.6172 a 70.007,70.007 0 1 0 -65.6093,123.6739 c 151.5729,80.4093 336.4145,86.7065 493.1074,16.7968 156.6929,-69.9096 275.4764,-211.6703 316.8847,-378.1797 41.4083,-166.5094 2.861,-347.39524 -102.8339,-482.55659 -59.8774,-76.57028 -139.2105,-135.71609 -227.918,-172.63868 -41.1124,-108.57562 -110.5312,-206.84787 -203.7149,-279.01757 -100.764,-78.04077 -227.0419,-123.03511 -356.4043,-120.33204 -149.4855,3.12357 -293.64949,70.67265 -391.71284,183.54102 -18.15174,20.89219 -34.52269,43.14554 -49.07422,66.45898 -3.50321,-7.18874 -7.13433,-14.33718 -11.01758,-21.40039 C 792.51634,383.77486 744.04835,328.59379 683.33398,288.23047 622.55072,247.82134 551.31607,223.56686 477.44727,220.18945 408.64032,217.04348 339.82513,232.1687 278.67188,264.00781 217.49166,295.86096 166.23191,343.32192 128.75977,399.88672 117.69342,416.59155 108.10394,433.9345 99.578125,451.63867 73.914588,411.94327 42.974858,375.53036 7.1523438,343.91016 -89.232337,258.8323 -215.31143,212.38758 -342.80859,212.55859 Z m 1965.91019,500.75 c 34.6858,-0.009 69.4952,4.84892 103.4121,13.73438 12.49,51.28149 16.6898,103.63335 10.1699,153.51953 -8.1851,62.62649 -34.0303,122.7937 -74.2891,166.7813 -39.8012,43.4876 -96.7209,72.4629 -152.1679,75.6992 -27.8767,1.6271 -56.17,-2.8886 -81.1856,-13.0957 -24.9423,-10.1772 -47.5837,-26.4953 -64.3105,-46.4493 -25.538,-30.4649 -39.8496,-73.75065 -38.6914,-115.75777 1.1698,-42.42964 17.4974,-86.48527 44.4941,-122.19531 27.181,-35.95374 65.8995,-65.21479 109.4199,-84.08594 43.709,-18.95291 93.1081,-28.13687 143.1485,-28.15039 z"
         id="path4370-9-3-9-2-9-1"
         inkscape:connector-curvature="0" />
      <path
         sodipodi:nodetypes="caaaacccasccac"
         inkscape:connector-curvature="0"
         inkscape:original-d="m -2229.3722,-3.768266 c -36.4959,-17.546867 557.4868,-854.297274 246.381,-992.451904 -182.1739,-80.89923 -485.0769,368.33705 -333.0058,497.33809 175.584,148.94693 514.8747,-244.3718 502.0715,-474.49587 -12.4232,-223.29425 -312.6876,-422.86915 -535.2261,-403.33375 -235.34,20.6592 -483.0443,518.62657 -483.0443,518.62657 l -3.7606,450.0456 3.9297,-349.12543 c 6.9252,-523.55204 -136.4916,-604.79634 -377.1551,-616.68114 -211.3676,-10.4381 -382.0645,413.29127 -382.9957,506.34085 l -2.4721,460.34609 1.3323,-464.41721 c -190.446,-795.01453 -342.4161,-615.81453 -569.1733,-503.27233 -288.9359,143.4023 69.9609,966.49964 69.9609,966.49964"
         inkscape:path-effect="#path-effect4372-5-9-5-9-82-6"
         id="path4370-9-3-9-2-9-8"
         d="m -2229.3722,-3.768266 c 140.8112,74.607586 316.0761,80.491833 461.5742,15.496637 145.4981,-64.995195 258.0689,-199.457991 296.4641,-354.118531 38.3953,-154.66055 1.7809,-326.15927 -96.4267,-451.65561 -98.2077,-125.49634 -255.8754,-202.26423 -415.2306,-202.1744 -62.5475,0.0353 -125.3852,11.42318 -182.7605,36.32847 -57.3752,24.90528 -109.1462,63.5677 -146.8309,113.48819 -37.6846,49.92049 -60.8593,111.22003 -62.5056,173.74586 -1.6463,62.52583 18.814,125.92232 59.0912,173.77557 26.1479,31.06628 60.196,55.30645 97.8203,70.57854 37.6244,15.27209 78.746,21.61824 119.2789,19.18757 81.0659,-4.86135 158.3034,-45.27456 213.0722,-105.23864 54.7688,-59.96407 87.628,-138.34376 98.1308,-218.87328 10.5028,-80.52952 -0.6478,-163.0733 -26.2307,-240.15006 -37.6756,-113.50975 -107.514,-216.90505 -201.9922,-290.23845 -94.4782,-73.3334 -213.6611,-115.5962 -333.2339,-113.0953 -131.7019,2.7546 -261.3749,60.8045 -351.1571,157.2002 -89.7822,96.3958 -138.4846,229.86096 -131.8872,361.42637 l -3.7606,450.0456 3.9297,-349.12543 c 0.7568,-67.24017 1.2111,-134.71095 -7.0602,-201.44474 -8.2714,-66.7338 -25.3765,-132.8028 -55.513,-192.9161 -30.1365,-60.1133 -73.4398,-114.0216 -127.7837,-153.6265 -54.344,-39.6049 -119.6818,-64.5464 -186.7982,-68.6938 -60.2263,-3.7217 -121.3674,9.3908 -174.8934,37.248 -53.526,27.8572 -99.1218,70.2913 -132.2076,120.753 -33.0858,50.4618 -53.5776,108.5332 -64.1693,167.9375 -10.5917,59.40432 -11.4014,120.06204 -11.7254,180.40235 l -2.4721,460.34609 1.3323,-464.41721 c 7.0075,-145.09003 -54.9827,-292.01543 -163.8028,-388.23603 -108.8202,-96.2206 -262.23,-139.7553 -405.3705,-115.0363 -117.7113,20.3276 -227.061,85.729 -300.6549,179.8199 -73.5939,94.0909 -110.7304,215.97436 -102.1062,335.11622 8.6241,119.14186 62.9269,234.40638 149.3043,316.91762 86.3774,82.51124 204.006,131.48263 323.4177,134.6459"
         style="fill:none;fill-rule:evenodd;stroke:#000000;stroke-width:70.00001526;stroke-linecap:round;stroke-linejoin:round;stroke-miterlimit:4;stroke-dasharray:none;stroke-opacity:1" />
      <path
         style="color:#000000;font-style:normal;font-variant:normal;font-weight:normal;font-stretch:normal;font-size:medium;line-height:normal;font-family:sans-serif;text-indent:0;text-align:start;text-decoration:none;text-decoration-line:none;text-decoration-style:solid;text-decoration-color:#000000;letter-spacing:normal;word-spacing:normal;text-transform:none;direction:ltr;block-progression:tb;writing-mode:lr-tb;baseline-shift:baseline;text-anchor:start;white-space:normal;clip-rule:nonzero;display:inline;overflow:visible;visibility:visible;opacity:1;isolation:auto;mix-blend-mode:normal;color-interpolation:sRGB;color-interpolation-filters:linearRGB;solid-color:#000000;solid-opacity:1;fill:#000000;fill-opacity:1;fill-rule:evenodd;stroke:none;stroke-width:70.00001526;stroke-linecap:round;stroke-linejoin:round;stroke-miterlimit:4;stroke-dasharray:none;stroke-dashoffset:0;stroke-opacity:1;color-rendering:auto;image-rendering:auto;shape-rendering:auto;text-rendering:auto;enable-background:accumulate"
         d="m -4201.1758,103.28711 c -29.1724,-0.0373 -58.3846,2.38652 -87.2715,7.375 -126.5346,21.85131 -243.1572,91.60235 -322.2675,192.74609 -79.1105,101.14375 -118.716,231.13454 -109.4454,359.20703 9.2707,128.07249 67.1851,251.00314 160.0372,339.69927 92.852,88.6961 218.3034,140.9239 346.666,144.3242 a 35.003508,35.003508 0 1 0 1.8535,-69.9746 c -110.4609,-2.9261 -220.2652,-48.6404 -300.168,-124.96683 -79.9027,-76.3264 -130.5945,-183.92545 -138.5723,-294.13672 -7.9777,-110.21129 26.6901,-223.98732 94.7676,-311.02539 68.0775,-87.03806 170.1531,-148.09065 279.041,-166.89454 132.2177,-22.83269 275.7142,17.88949 376.2305,106.76758 100.5162,88.87809 158.5,226.3078 152.0274,360.32618 a 35.003508,35.003508 0 0 0 -0.039,1.58789 l -1.334,464.41793 a 35.003508,35.003508 0 0 0 70,0.2891 l 0,-0.088 2.4727,-460.25781 c 0.323,-60.15316 1.2585,-118.79274 11.1816,-174.44726 9.9143,-55.60494 29.0144,-109.184 58.9824,-154.89063 29.9344,-45.65521 71.2609,-84.00122 119.0957,-108.89648 47.8337,-24.89466 102.8585,-36.68092 156.5782,-33.36133 59.8904,3.70091 119.1366,26.18512 168.3418,62.04492 49.2789,35.91365 89.2358,85.42787 117.1093,141.02735 27.9098,55.67172 44.1747,117.84837 52.0684,181.53515 3.9227,31.64861 5.8057,63.83565 6.6211,96.44141 l -3.752,449.13668 -0,0.293 0,0.1016 a 35.003508,35.003508 0 0 0 69.9961,0.6855 l 0,-0.1 0,-0.2871 3.9258,-348.73828 c 0.3991,-35.45881 0.7042,-71.39947 -0.3203,-107.65625 -4.752,-120.31904 40.5921,-243.12357 122.6523,-331.22852 83.1031,-89.22465 204.3731,-143.51282 326.2774,-146.0625 110.8449,-2.31836 222.6801,37.1648 311.041,105.75 72.6046,56.35523 130.1257,132.23642 168.1172,216.90625 -37.3114,-7.87786 -75.4185,-12.17981 -113.75,-12.1582 -66.7825,0.0377 -134.3131,12.15244 -196.6758,39.22265 -62.4572,27.11129 -119.0939,69.22042 -160.8301,124.50782 -41.8285,55.4098 -67.7006,123.34867 -69.5586,193.91211 -1.8635,70.77552 20.9771,142.19726 67.3008,197.23432 30.011,35.6561 68.6708,63.1121 111.4356,80.4708 42.7282,17.3438 88.9585,24.4285 134.5371,21.6953 91.3096,-5.4756 176.2821,-50.2917 236.8203,-116.5723 60.3098,-66.03077 95.6573,-151.02653 106.9941,-237.95117 7.7841,-59.68416 4.2964,-119.78447 -7.3008,-177.98438 63.9089,32.4392 121.0665,78.11269 164.9649,134.20899 91.2723,116.6338 125.7052,277.91586 90.0215,421.65426 -35.6838,143.7384 -141.5465,270.1885 -276.7696,330.5938 -135.223,60.4052 -300.0469,54.872 -430.914,-14.4668 a 35.003508,35.003508 0 1 0 -32.7715,61.8535 c 150.7552,79.8764 336.4612,86.1125 492.2344,16.5273 155.7731,-69.5851 275.0515,-212.0599 316.1582,-377.6425 41.1066,-165.5826 2.311,-347.29936 -102.8321,-481.65823 -63.1472,-80.69384 -148.7045,-142.06908 -243.875,-178.35938 -40.4398,-115.97453 -112.6103,-221.39909 -210.3847,-297.29101 -100.5955,-78.08165 -227.1252,-123.12096 -355.4258,-120.4375 -141.4995,2.95952 -279.5758,64.771 -376.0371,168.33789 -44.2379,47.49655 -78.9602,103.15264 -103.0528,163.07226 -9.0449,-29.6783 -20.2569,-58.82676 -34.3398,-86.91797 -32.3993,-64.62708 -79.0481,-122.93035 -138.457,-166.22656 -59.4829,-43.35004 -130.9116,-70.74784 -205.2539,-75.3418 -66.733,-4.12373 -133.9926,10.31503 -193.211,41.13477 -59.2172,30.81912 -109.0811,77.34111 -145.3183,132.60937 -26.2697,40.06595 -44.9134,84.01958 -57.5196,129.25977 -30.1844,-68.34961 -74.5344,-130.45094 -130.8632,-180.25781 -95.1634,-84.14497 -220.8266,-130.51807 -347.2403,-130.67969 z m 2098.2051,455.49219 c 48.3003,-0.0272 96.5799,7.76051 142.9336,22.14258 18.936,65.94783 26.3072,134.84351 17.6367,201.32421 -9.6687,74.1344 -40.0398,145.89748 -89.2676,199.79493 -48.9994,53.64738 -118.5021,89.65928 -189.3242,93.90628 -35.4873,2.1281 -71.501,-3.4813 -104.0215,-16.6817 -32.4838,-13.1855 -61.9202,-34.209 -84.2051,-60.68552 -34.2306,-40.66939 -52.3099,-96.04028 -50.8808,-150.31641 1.4347,-54.48823 21.9103,-109.1489 55.4512,-153.58008 33.6332,-44.55358 80.5408,-79.76945 132.8339,-102.46875 52.3879,-22.74034 110.5313,-33.40263 168.8438,-33.43554 z"
         id="path4370-9-3-9-2-9-8-7"
         inkscape:connector-curvature="0" />
      <path
         style="color:#000000;font-style:normal;font-variant:normal;font-weight:normal;font-stretch:normal;font-size:medium;line-height:normal;font-family:sans-serif;text-indent:0;text-align:start;text-decoration:none;text-decoration-line:none;text-decoration-style:solid;text-decoration-color:#000000;letter-spacing:normal;word-spacing:normal;text-transform:none;direction:ltr;block-progression:tb;writing-mode:lr-tb;baseline-shift:baseline;text-anchor:start;white-space:normal;clip-rule:nonzero;display:inline;overflow:visible;visibility:visible;opacity:1;isolation:auto;mix-blend-mode:normal;color-interpolation:sRGB;color-interpolation-filters:linearRGB;solid-color:#000000;solid-opacity:1;fill:#000000;fill-opacity:1;fill-rule:evenodd;stroke:none;stroke-width:200;stroke-linecap:round;stroke-linejoin:round;stroke-miterlimit:4;stroke-dasharray:none;stroke-dashoffset:0;stroke-opacity:1;color-rendering:auto;image-rendering:auto;shape-rendering:auto;text-rendering:auto;enable-background:accumulate"
         d="m 2652.4629,-1452.0664 c -31.1155,0.063 -62.3391,2.7509 -93.3223,8.1602 -135.1209,23.5904 -257.9328,97.2777 -342.332,205.4023 -84.3992,108.1246 -126.0665,245.15142 -116.1465,381.95702 9.9198,136.80562 70.9204,266.38727 170.0352,361.20508 99.1147,94.81786 231.2702,150.01645 368.3808,153.86719 a 100.01,100.01 0 1 0 5.6153,-199.91992 c -86.0296,-2.41614 -173.553,-38.97367 -235.7422,-98.4668 -62.1893,-59.49315 -102.5884,-145.31227 -108.8125,-231.15039 -6.2243,-85.83811 21.3721,-176.58728 74.3281,-244.42968 52.956,-67.8424 134.2892,-116.6436 219.0703,-131.4453 102.771,-17.9426 218.155,14.6329 296.3691,83.6719 78.2142,69.0388 124.8607,179.48596 119.8145,283.68941 a 100.01,100.01 0 0 0 -0.1172,4.54883 l -1.248,434.36718 a 100.01,100.01 0 0 0 199.998,0.82618 l 0,-0.25196 0,-0.23828 2.3144,-430.07031 c 0.3002,-55.80816 1.4499,-106.62525 9.5254,-151.24215 8.0504,-44.4786 23.3833,-85.7694 45.541,-119.2168 22.0752,-33.323 52.6682,-61.2615 86.6973,-78.9785 a 100.01,100.01 0 0 0 0,-0 c 34.0675,-17.7371 74.0408,-26.5399 112.5039,-24.7813 41.3595,1.8911 83.9189,16.1092 119.5352,39.7872 35.7146,23.7433 66.6398,58.2723 88.5664,98.1543 22.0164,40.0455 36.2231,87.4233 43.2734,137.82612 2.9237,20.90155 4.4626,42.91556 5.4453,65.5586 -0.762,20.87357 -0.2829,41.83454 1.3106,62.78711 -0,12.51891 -0.065,25.14743 -0.1973,38.07812 l -3.6777,359.83399 -0,0.37109 a 100.01,100.01 0 0 0 199.9843,2.41602 l 5.3965,-387.25391 a 100.01,100.01 0 0 0 -0.6992,-13.29102 c -0.3159,-2.63671 -0.4722,-5.30102 -0.7246,-7.94921 -0.017,-17.52891 -0.2752,-35.42219 -0.918,-53.61914 4.785,-80.12602 36.2298,-160.40077 88.2031,-220.22067 65.3682,-75.2372 167.2879,-122.9941 266.9336,-125.0762 87.0769,-1.8195 177.71,29.7462 248.7598,84.7734 26.6707,20.6562 51.0346,44.813 72.6328,71.5703 -64.3287,2.1704 -129.5072,14.9922 -191.1797,41.7344 -68.1966,29.5712 -130.5375,75.54322 -177.4004,137.53127 -47.1261,62.3362 -76.5752,138.60178 -78.8203,220.03125 -2.2617,82.03297 23.5431,164.27859 78.3457,229.65429 35.4518,42.29156 80.4639,74.27666 130.3672,94.63867 49.7988,20.31934 102.9138,28.46669 155.3145,25.40821 105.239,-6.14252 199.7863,-56.46577 267.6699,-130.63672 67.2301,-73.45694 105.1979,-165.78894 117.4492,-259.52735 1.5641,-11.96712 2.6975,-23.91438 3.4512,-35.83203 8.4373,8.79 16.5265,17.87037 23.9804,27.40235 72.0216,92.10018 99.9914,223.34762 71.7754,336.80859 -28.2159,113.46103 -114.4038,216.31993 -221.1757,263.95703 -106.772,47.637103 -240.8888,43.069046 -344.1719,-11.72265 a 100.01,100.01 0 1 0 -93.7285,176.677731 c 160.0946,84.930209 353.8862,91.531579 519.3886,17.691406 165.5025,-73.840179 290.0392,-222.465027 333.7754,-398.335937 43.7364,-175.87095 3.323,-365.51693 -108.3144,-508.27734 -60.5599,-77.44321 -139.6462,-137.68747 -228.1914,-176.76367 -43.4514,-108.7224 -114.2204,-206.9535 -208.7051,-280.1309 -106.0078,-82.1017 -238.5758,-129.4664 -375.4004,-126.6074 -158.2808,3.3073 -309.8994,74.3501 -413.7324,193.8594 -8.2255,9.4673 -15.979,19.2719 -23.5117,29.2266 -35.3883,-57.6033 -82.6231,-108.6583 -140.7461,-147.2989 -65.2245,-43.3616 -141.5194,-69.3856 -221.125,-73.0254 -74.1617,-3.3908 -148.0669,12.8481 -214,47.1758 -65.9717,34.3478 -120.8792,85.2555 -161.0684,145.9219 -2.6129,3.9441 -4.9644,7.9869 -7.4375,11.9844 -20.7133,-26.5266 -43.7889,-51.3588 -69.3086,-73.8848 -102.1792,-90.1926 -234.961,-139.1822 -369.7949,-138.9082 z m 1965.9004,560.79882 c 26.0834,-0.007 52.3288,3.0664 78.2012,8.63086 8.5172,42.2936 10.8616,84.68223 5.6269,124.73438 -7.4675,57.13624 -31.1728,111.62899 -66.6719,150.41601 -34.8456,38.07303 -85.1267,63.28242 -131.7871,66.00586 -23.549,1.37449 -47.4614,-2.50322 -68.1035,-10.92578 -20.5375,-8.37988 -39.2319,-21.93333 -52.6543,-37.94531 -20.3736,-24.30428 -32.6568,-60.7144 -31.6934,-95.65821 0.9801,-35.54731 14.9911,-73.92034 38.4356,-104.93164 23.7077,-31.35945 58.26,-57.66746 97.4258,-74.65039 39.4351,-17.09971 84.8105,-25.66325 131.2207,-25.67578 z"
         id="path4370-9-3-9-2-9-6"
         inkscape:connector-curvature="0" />
    </g>
  </g>
</svg>
