<?xml version="1.0" encoding="UTF-8" standalone="no"?>
<!-- Created with Inkscape (http://www.inkscape.org/) -->

<svg
   xmlns:dc="http://purl.org/dc/elements/1.1/"
   xmlns:cc="http://creativecommons.org/ns#"
   xmlns:rdf="http://www.w3.org/1999/02/22-rdf-syntax-ns#"
   xmlns:svg="http://www.w3.org/2000/svg"
   xmlns="http://www.w3.org/2000/svg"
   xmlns:sodipodi="http://sodipodi.sourceforge.net/DTD/sodipodi-0.dtd"
   xmlns:inkscape="http://www.inkscape.org/namespaces/inkscape"
   width="2000"
   height="2048"
   id="svg2992"
   version="1.1"
   inkscape:version="0.91 r13725"
   sodipodi:docname="നൂ.svg">
  <defs
     id="defs5498">
    <inkscape:path-effect
       effect="spiro"
       id="path-effect3846"
       is_visible="true" />
    <inkscape:path-effect
       effect="spiro"
       id="path-effect3801"
       is_visible="true" />
    <inkscape:path-effect
       effect="spiro"
       id="path-effect4372-5-0-7-0-2"
       is_visible="true" />
    <inkscape:path-effect
       effect="spiro"
       id="path-effect4372-5-0-7-0-2-2"
       is_visible="true" />
    <inkscape:path-effect
       effect="spiro"
       id="path-effect4372-5-0-7-0-2-2-1"
       is_visible="true" />
    <inkscape:path-effect
       effect="spiro"
       id="path-effect4372-5-0-7-0-2-2-1-8"
       is_visible="true" />
    <inkscape:path-effect
       effect="spiro"
       id="path-effect4372-5-0-7-0-2-2-1-9"
       is_visible="true" />
    <inkscape:path-effect
       effect="spiro"
       id="path-effect4372-5-0-7-0-2-2-1-9-7"
       is_visible="true" />
    <inkscape:path-effect
       effect="spiro"
       id="path-effect4372-5-0-7-0-2-2-9"
       is_visible="true" />
    <inkscape:path-effect
       effect="spiro"
       id="path-effect4372-5-0-7-0-2-2-9-7"
       is_visible="true" />
    <inkscape:path-effect
       effect="spiro"
       id="path-effect4372-5-0-7-0-2-2-11"
       is_visible="true" />
  </defs>
  <sodipodi:namedview
     inkscape:window-height="844"
     inkscape:window-width="1600"
     inkscape:pageshadow="2"
     inkscape:pageopacity="0.0"
     borderopacity="1.0"
     bordercolor="#666666"
     pagecolor="#ffffff"
     id="base"
     showgrid="true"
     showguides="true"
     inkscape:guide-bbox="true"
     inkscape:zoom="0.125"
     inkscape:cx="657.18735"
     inkscape:cy="134.12835"
     inkscape:window-x="0"
     inkscape:window-y="0"
     inkscape:current-layer="layer1"
     inkscape:window-maximized="1">
    <sodipodi:guide
       orientation="horizontal"
       position="0,600"
       id="guide5596" />
    <inkscape:grid
       type="xygrid"
       id="grid3769"
       empspacing="3"
       visible="true"
       enabled="true"
       snapvisiblegridlinesonly="true"
       spacingx="4px"
       units="px"
       dotted="true"
       spacingy="4px" />
    <sodipodi:guide
       orientation="0,1"
       position="-1040,1600"
       id="guide2985" />
    <sodipodi:guide
       position="2208,0"
       orientation="0,1"
       id="guide4152" />
  </sodipodi:namedview>
  <metadata
     id="metadata5594">
    <rdf:RDF>
      <cc:Work
         rdf:about="">
        <dc:format>image/svg+xml</dc:format>
        <dc:type
           rdf:resource="http://purl.org/dc/dcmitype/StillImage" />
        <dc:title />
      </cc:Work>
    </rdf:RDF>
  </metadata>
  <g
     inkscape:label="Layer 1"
     inkscape:groupmode="layer"
     id="layer1"
     transform="translate(0,1048)">
    <path
       style="fill:none;fill-rule:evenodd;stroke:#000000;stroke-width:140;stroke-linecap:round;stroke-linejoin:round;stroke-miterlimit:4;stroke-dasharray:none;stroke-opacity:1"
       d="m 1306.9629,610.34022 c 81.6797,56.00488 180.562,86.54139 279.5978,86.34443 99.0357,-0.19695 197.7958,-31.12652 279.2521,-87.45583 81.4563,-56.32931 145.2558,-137.81434 180.3984,-230.40546 35.1426,-92.59113 41.4759,-195.88723 17.908,-292.07803 -20.4271,-83.3718204 -63.4283,-161.595746 -125.4263,-220.96217 -61.998,-59.36642 -143.1208,-99.24747 -228.4524,-108.55545 -85.3316,-9.30799 -174.3282,12.72012 -243.4498,63.61542 -69.1216,50.89529 -117.0219,130.750429 -125.9763,216.1199 -7.8001,74.36532 14.5351,152.17362 63.5852,208.61058 49.0501,56.43696 124.8189,89.67848 199.3592,83.78052 45.4953,-3.59979 89.4872,-21.18989 126.296,-48.16938 36.8088,-26.97949 66.5264,-63.12914 87.9179,-103.44274 42.7829,-80.627211 51.7691,-175.6941625 42.3195,-266.478682 -13.2371,-127.172378 -62.7168,-252.250398 -149.6932,-345.968838 -86.9763,-93.71844 -212.8667,-153.45347 -340.6652,-149.50716 -63.6818,1.96644 -126.8839,19.50146 -182.2224,51.07508 -55.3385,31.57363 -102.4778,77.09793 -136.9332,130.6896 -34.4554,53.59167 -56.0705,114.83677 -67.36872,177.53918 -11.29822,62.7024 -12.36708,126.739389 -12.88825,190.449437 l -3.0322,370.667303 2.2485,-369.452403 c 0.378,-62.108925 0.24695,-124.528617 -9.63463,-185.847587 -9.88158,-61.31897 -29.59442,-121.43365 -61.76507,-174.56284 -32.17066,-53.12919 -76.67044,-98.88949 -129.52055,-131.51659 -52.85012,-32.62709 -113.7472,-52.02093 -175.70763,-56.32988 -121.45987,-8.44676 -244.77163,42.92691 -327.64219,132.1251 -82.87055,89.1982 -124.90697,213.84508 -117.52909,335.37456 7.85912,129.456545 71.38428,254.59357 171.25052,337.34318 99.86623,82.74961 234.62841,121.91436 363.29056,105.57996"
       id="path4370-9-0-9-5-7-5"
       inkscape:path-effect="#path-effect4372-5-0-7-0-2-2"
       inkscape:original-d="m 1306.9629,610.34022 c 343.5291,102.31549 838.4567,-227.70651 757.1563,-523.59489 -64.0305,-233.03529 -617.4149,-267.02105 -723.3048,-49.7823 -57.4324,117.82565 132.4095,304.30765 262.9444,292.3911 162.8294,-14.86471 275.2838,-255.66301 256.5334,-418.090802 -26.6471,-230.833558 -258.6617,-513.106858 -490.3584,-495.475998 -225.8566,17.18646 -399.78047,469.1033 -399.41257,549.753297 l -3.0322,370.667303 2.2485,-369.452403 C 984.15333,-245.10937 814.12826,-563.89095 593.10965,-581.50137 378.6065,-598.59265 135.25883,-328.81079 147.93837,-114.00171 161.5735,116.99656 490.2733,423.39565 682.47945,328.92143"
       inkscape:connector-curvature="0"
       sodipodi:nodetypes="caaaaacccaac" />
    <path
       style="fill:none;fill-rule:evenodd;stroke:#000000;stroke-width:120;stroke-linecap:round;stroke-linejoin:round;stroke-miterlimit:4;stroke-dasharray:none;stroke-opacity:1"
       d="m 3601.4162,1249.3701 c 50.4153,31.9781 109.4474,50.2259 169.114,52.276 59.6665,2.05 119.8118,-12.103 172.3031,-40.5454 52.4913,-28.4423 97.1915,-71.0997 128.0564,-122.2042 30.8648,-51.1044 47.8137,-110.5224 48.5549,-170.21961 0.6751,-54.373 -12.126,-109.05797 -38.2754,-156.73488 -26.1494,-47.67691 -65.7462,-88.13051 -113.6223,-113.91331 -47.8762,-25.7828 -103.9447,-36.58293 -157.7732,-28.87728 -53.8284,7.70566 -105.044,34.14657 -141.3624,74.61698 -41.9935,46.7943 -62.9102,112.94736 -51.1436,174.71065 5.8833,30.88165 19.664,60.29974 40.0769,84.20795 20.4129,23.9083 47.4565,42.1991 77.4277,51.6868 36.456,11.5405 76.6689,9.8154 112.6547,-3.1169 35.9859,-12.9324 67.7084,-36.7749 91.6009,-66.63074 23.8926,-29.85587 40.0725,-65.57087 48.5922,-102.84873 8.5198,-37.27787 9.4986,-76.0935 4.7372,-114.03497 -11.7942,-93.98372 -60.3857,-183.52567 -135.0915,-241.75875 -74.7058,-58.23308 -175.0571,-83.49927 -267.752,-64.01343 -72.4456,15.22914 -139.2133,59.24414 -177.7715,122.43875 -19.2791,31.59731 -31.5814,67.18417 -38.0525,103.62863 -6.4712,36.44446 -7.1254,73.63898 -7.4282,110.65225 l -2.1193,259.07649 1.5716,-258.22734 c 0.2477,-40.70194 0.063,-81.66069 -7.2919,-121.69341 -7.3546,-40.03273 -21.9266,-78.98321 -44.8893,-112.59007 -22.9628,-33.60687 -54.1158,-61.56261 -89.9963,-80.77966 -35.8806,-19.21706 -76.2215,-29.72359 -116.8715,-31.79373 -86.7365,-4.41714 -174.7145,30.80148 -234.4435,93.85045 -59.729,63.04898 -90.1418,152.80167 -81.0437,239.17271 9.098,86.37103 57.5442,167.81701 129.0992,217.03695 71.555,49.22 164.9403,65.3345 248.8527,42.9418"
       id="path4370-9-0-9-5-7-5-3"
       inkscape:path-effect="#path-effect4372-5-0-7-0-2-2-1"
       inkscape:original-d="m 3601.4162,1249.3701 c -3.8484,-22.232 521.3665,-84.3257 518.0284,-280.69321 -2.8555,-167.97534 -318.2487,-327.8265 -451.0333,-224.90849 -83.6796,64.85801 -35.9308,283.3066 66.361,310.6054 124.1119,33.1221 269.7356,-158.75167 257.585,-286.63134 -15.9461,-167.82627 -236.6357,-333.96619 -402.8435,-305.77218 -132.7723,22.52235 -223.5093,280.34962 -223.2522,336.71963 l -2.1193,259.07649 1.5716,-258.22734 c 10.0759,-148.08216 -124.6777,-399.47213 -259.049,-346.85687 -185.0782,72.47038 -173.8788,709.17071 62.4647,593.00191"
       inkscape:connector-curvature="0"
       sodipodi:nodetypes="caaaaacccac" />
    <path
       style="color:#000000;font-style:normal;font-variant:normal;font-weight:normal;font-stretch:normal;font-size:medium;line-height:normal;font-family:sans-serif;text-indent:0;text-align:start;text-decoration:none;text-decoration-line:none;text-decoration-style:solid;text-decoration-color:#000000;letter-spacing:normal;word-spacing:normal;text-transform:none;direction:ltr;block-progression:tb;writing-mode:lr-tb;baseline-shift:baseline;text-anchor:start;white-space:normal;clip-rule:nonzero;display:inline;overflow:visible;visibility:visible;opacity:1;isolation:auto;mix-blend-mode:normal;color-interpolation:sRGB;color-interpolation-filters:linearRGB;solid-color:#000000;solid-opacity:1;fill:#000000;fill-opacity:1;fill-rule:evenodd;stroke:none;stroke-width:120;stroke-linecap:round;stroke-linejoin:round;stroke-miterlimit:4;stroke-dasharray:none;stroke-dashoffset:0;stroke-opacity:1;color-rendering:auto;image-rendering:auto;shape-rendering:auto;text-rendering:auto;enable-background:accumulate"
       d="m 3030.8705,1400.1593 c -98.1631,0.4393 -193.6232,41.4286 -261.3926,112.9648 -72.2875,76.3055 -108.1672,182.1916 -97.1563,286.7227 11.0111,104.531 68.1657,200.6167 154.7657,260.1855 86.5998,59.5687 196.7725,78.5795 298.3281,51.4786 a 60.006,60.006 0 1 0 -30.9414,-115.9434 c -66.2693,17.6845 -142.8688,4.4668 -199.3789,-34.4043 -56.5102,-38.8712 -96.2484,-105.6757 -103.4336,-173.8867 -7.1851,-68.2111 17.7609,-141.8324 64.9316,-191.625 47.1706,-49.7925 119.3363,-78.6798 187.836,-75.1914 32.3651,1.6482 64.1893,10.0864 91.5937,24.7637 27.2734,14.6072 51.3391,36.2034 68.7852,61.7363 17.4503,25.5392 29.3566,56.5995 35.416,89.582 6.0728,33.0546 6.5517,70.2108 6.3066,110.4863 l -1.5683,257.7383 0,0.3633 0,0.125 a 60.006,60.006 0 0 0 119.996,0.8554 l 0,-0.125 0,-0.4433 2.1152,-258.5078 c 0.2997,-36.6352 1.1435,-70.4416 6.5078,-100.6524 5.3581,-30.1761 15.4381,-58.6791 30.1953,-82.8653 28.9696,-47.4795 81.9622,-83.0066 138.8945,-94.9746 73.9453,-15.5443 157.7269,5.2298 218.5215,52.6192 12.864,10.0274 24.7977,21.3621 35.8086,33.6445 -18.2405,-0.6803 -36.6124,0.1864 -54.916,2.8066 -67.6029,9.6776 -131.1443,42.2671 -177.5137,93.9375 -54.1528,60.3437 -81.1166,143.6724 -65.4297,226.0137 7.7959,40.9205 25.8508,79.6885 53.3868,111.9395 27.5926,32.317 63.7279,56.878 104.9511,69.9277 50.1994,15.8911 103.2792,13.3157 151.0547,-3.8535 47.5123,-17.0748 87.8104,-47.688 118.1543,-85.6055 30.2212,-37.7641 49.8969,-81.7228 60.2383,-126.9707 0.6427,-2.8121 1.142,-5.6326 1.7129,-8.4492 7.9989,26.0687 11.9669,53.6995 11.625,81.2363 -0.6064,48.8375 -14.6699,98.1376 -39.9199,139.9453 -25.2502,41.8079 -62.3389,77.2006 -105.2813,100.4688 -42.9423,23.2683 -92.8457,35.011 -141.6582,33.334 -48.8123,-1.6772 -97.7931,-16.8178 -139.0371,-42.9786 a 60.006,60.006 0 1 0 -64.2754,101.336 c 59.5866,37.7954 128.6707,59.1492 199.1914,61.5722 70.5208,2.423 140.907,-14.1393 202.9473,-47.7558 62.0402,-33.6164 114.3524,-83.5383 150.832,-143.9395 36.4796,-60.401 56.3154,-129.9372 57.1914,-200.4941 0.7982,-64.2875 -14.1824,-128.9332 -45.664,-186.332 -25.3922,-46.2964 -61.2246,-86.7042 -104.836,-117.2872 -26.5667,-72.9085 -72.5335,-138.6139 -134.7871,-187.1406 -88.6167,-69.0766 -205.5379,-98.8354 -316.9824,-75.4082 -83.1084,17.4706 -159.5558,65.3403 -208.3516,137.125 -1.9021,-2.9969 -3.7325,-6.0256 -5.7461,-8.9726 -28.4795,-41.6809 -66.7214,-75.9934 -111.2089,-99.8204 -44.3569,-23.7567 -93.2136,-36.3322 -142.1485,-38.8242 -6.5608,-0.3341 -13.1159,-0.4863 -19.6601,-0.457 z m 758.9062,334.5078 c 26.7552,0.705 53.8383,7.1006 78.5117,18.3692 2.2817,9.9326 4.0874,19.9591 5.3516,30.0332 4.0053,31.9173 3.0293,63.7635 -3.6973,93.1953 -6.6982,29.3077 -19.3813,56.7807 -36.9453,78.7285 -17.441,21.7941 -40.5876,38.8642 -65.0469,47.6543 -24.196,8.6954 -51.5432,9.5688 -74.2558,2.3789 -18.7187,-5.9256 -36.6712,-17.9443 -49.9043,-33.4434 -13.2898,-15.5654 -22.7968,-35.6339 -26.7676,-56.4765 -7.8463,-41.1853 7.0252,-90.1633 36.8594,-123.4082 26.2674,-29.2704 65.1551,-49.5631 105.209,-55.2969 10.0644,-1.4408 20.3477,-2.0068 30.6855,-1.7344 z"
       id="path4370-9-0-9-5-7-5-3-9"
       inkscape:connector-curvature="0" />
    <path
       style="fill:none;fill-rule:evenodd;stroke:#000000;stroke-width:60;stroke-linecap:round;stroke-linejoin:round;stroke-miterlimit:4;stroke-dasharray:none;stroke-opacity:1"
       d="m -3188.3249,1149.2074 c 46.0243,29.2995 99.949,46.056 154.4735,48.0006 54.5244,1.9447 109.5059,-10.9274 157.5006,-36.8736 47.9947,-25.9462 88.877,-64.8986 117.112,-111.5835 28.235,-46.685 43.7488,-100.98023 44.441,-155.53498 0.6307,-49.70903 -11.0723,-99.70699 -34.9907,-143.2879 -23.9184,-43.5809 -60.1429,-80.54715 -103.9337,-104.07905 -43.7908,-23.53191 -95.0676,-33.34336 -144.2676,-26.2197 -49.2,7.12367 -95.9805,31.39236 -129.0952,68.47067 -38.1711,42.7399 -57.135,103.03894 -46.3817,159.32481 5.3766,28.14293 17.9344,54.95122 36.526,76.7523 18.5915,21.80108 43.2157,38.49772 70.5159,47.19423 33.2758,10.60004 70.005,9.09268 102.8911,-2.66085 32.8862,-11.75353 61.895,-33.48246 83.7528,-60.71997 21.8577,-27.23751 36.6708,-59.84231 44.4733,-93.88293 7.8025,-34.04061 8.7031,-69.49356 4.3399,-104.14331 -10.8067,-85.81973 -55.3377,-167.52337 -123.6441,-220.58984 -68.3063,-53.06647 -159.9342,-76.01347 -244.593,-58.27362 -33.0686,6.92938 -64.9682,19.86572 -92.9446,38.80967 -27.9764,18.94395 -51.8558,43.90628 -69.4953,72.72296 -17.6394,28.81667 -28.9046,61.29075 -34.8307,94.55383 -5.9261,33.26308 -6.5261,67.21528 -6.8031,101.001 l -1.9373,236.2771 1.4366,-235.50268 c 0.2267,-37.16658 0.057,-74.56849 -6.67,-111.12183 -6.7275,-36.55334 -20.0574,-72.11476 -41.058,-102.78039 -21.0006,-30.66562 -49.488,-56.15357 -82.2849,-73.63981 -32.7969,-17.48625 -69.6584,-26.99698 -106.7824,-28.79057 -78.9781,-3.81571 -158.9937,28.4026 -213.2913,85.88188 -54.2976,57.47927 -81.9123,139.19792 -73.6103,217.8311 8.3019,78.63319 52.373,152.78335 117.4769,197.65639 65.1038,44.87303 150.0833,59.67141 226.5233,39.44688"
       id="path4370-9-0-9-5-7-5-3-3"
       inkscape:path-effect="#path-effect4372-5-0-7-0-2-2-1-9"
       inkscape:original-d="m -3188.3249,1149.2074 c -3.5178,-20.2755 476.5784,-76.9048 473.5271,-255.99148 -2.6102,-153.19309 -290.9095,-298.97695 -412.2872,-205.11598 -76.4911,59.15034 -32.8442,258.37491 60.6602,283.27134 113.4501,30.20722 246.5639,-144.78112 235.4571,-261.40706 -14.5762,-153.05714 -216.3074,-304.57629 -368.2371,-278.86346 -121.3665,20.54032 -204.3088,255.67815 -204.0737,307.08746 l -1.9373,236.2771 1.4366,-235.50268 c 9.2103,-135.05056 -113.9672,-364.3176 -236.7953,-316.3326 -169.1791,66.09281 -158.9418,646.76186 57.0986,540.81625"
       inkscape:connector-curvature="0"
       sodipodi:nodetypes="caaaaacccac" />
    <path
       style="color:#000000;font-style:normal;font-variant:normal;font-weight:normal;font-stretch:normal;font-size:medium;line-height:normal;font-family:sans-serif;text-indent:0;text-align:start;text-decoration:none;text-decoration-line:none;text-decoration-style:solid;text-decoration-color:#000000;letter-spacing:normal;word-spacing:normal;text-transform:none;direction:ltr;block-progression:tb;writing-mode:lr-tb;baseline-shift:baseline;text-anchor:start;white-space:normal;clip-rule:nonzero;display:inline;overflow:visible;visibility:visible;opacity:1;isolation:auto;mix-blend-mode:normal;color-interpolation:sRGB;color-interpolation-filters:linearRGB;solid-color:#000000;solid-opacity:1;fill:#000000;fill-opacity:1;fill-rule:evenodd;stroke:none;stroke-width:60;stroke-linecap:round;stroke-linejoin:round;stroke-miterlimit:4;stroke-dasharray:none;stroke-dashoffset:0;stroke-opacity:1;color-rendering:auto;image-rendering:auto;shape-rendering:auto;text-rendering:auto;enable-background:accumulate"
       d="m -3463.6328,2504.3281 c -82.4583,0.6169 -163.2679,35.4823 -220.041,95.5821 -60.5579,64.1063 -90.8958,153.8827 -81.6367,241.582 9.2591,87.6993 57.675,169.1623 130.2851,219.209 72.6101,50.0467 165.9694,66.3044 251.2227,43.748 a 30.003,30.003 0 1 0 -15.3457,-58.0058 c -67.6268,17.8927 -144.2285,4.5549 -201.8262,-35.1446 -57.5977,-39.6993 -97.3232,-106.5383 -104.668,-176.1054 -7.3447,-69.5672 17.5467,-143.2281 65.584,-194.0801 48.0374,-50.8522 120.1649,-79.8934 190.0371,-76.5176 32.9742,1.5931 65.5681,10.0764 94.1153,25.2969 28.4815,15.1854 53.4135,37.4949 71.6464,64.1191 18.2353,26.6277 30.2291,58.2379 36.3067,91.2598 6.0846,33.0582 6.3992,68.5547 6.1738,105.5078 l -1.4336,235.2519 -0,0.1876 0,0.064 a 30.003,30.003 0 0 0 59.998,0.4277 l 0,-0.062 1.9375,-236.2148 c 0.2754,-33.5953 0.9707,-65.8475 6.3398,-95.9844 5.366,-30.1192 15.5117,-59.0463 30.8809,-84.1543 15.3729,-25.1138 36.3227,-47.0155 60.7305,-63.5429 24.46,-16.5629 52.7519,-28.1026 82.2754,-34.2891 75.3234,-15.7836 158.6842,4.9388 220.0351,52.6016 28.7927,22.3687 53.0051,50.7097 71.7031,82.4824 -32.7896,-8.2883 -67.1344,-10.5072 -100.9746,-5.6074 -56.094,8.1218 -109.039,35.4807 -147.1718,78.1777 -44.2209,49.5138 -66.1869,118.3869 -53.4727,184.9375 6.3334,33.1508 21.0233,64.6227 43.166,90.5879 22.1708,25.9981 51.326,45.8289 84.2364,56.3125 40.1426,12.7874 83.3069,10.8682 122.0937,-2.9942 38.6555,-13.8155 71.9621,-38.9249 97.0547,-70.1933 25.031,-31.192 41.5985,-67.9229 50.3164,-105.9571 6.8611,-29.9329 8.8157,-60.4641 7.0371,-90.5078 8.5787,10.6938 16.3503,22.0492 22.9414,34.0586 21.248,38.7153 31.8607,83.7283 31.293,128.4746 -0.6233,49.1213 -14.6905,98.3534 -40.1133,140.3887 -25.423,42.0352 -62.4944,77.3568 -105.709,100.7188 -43.2145,23.362 -93.0701,35.0342 -142.164,33.2832 -49.094,-1.751 -97.9933,-16.9448 -139.4336,-43.3262 a 30.003,30.003 0 1 0 -32.2207,50.6133 c 50.6082,32.2178 109.5606,50.5374 169.5156,52.6758 59.955,2.1383 120.0611,-11.9345 172.8359,-40.4649 52.775,-28.5304 97.4684,-71.1146 128.5156,-122.4492 31.0472,-51.3347 48.0065,-110.6914 48.7676,-170.6797 0.6937,-54.6716 -12.0987,-109.655 -38.6875,-158.1016 -22.7329,-41.4209 -55.3987,-77.3498 -95.1055,-103.4687 -22.428,-65.0147 -62.7885,-123.749 -117.6132,-166.3418 -75.2619,-58.4701 -175.1562,-83.6413 -269.1504,-63.9453 -36.6137,7.6722 -72.1205,22.0069 -103.6133,43.332 -31.545,21.3603 -58.3556,49.381 -78.2617,81.9004 -5.3553,8.7487 -10.122,17.7668 -14.4199,26.9609 -6.8918,-15.8986 -15.1568,-31.2977 -25.1036,-45.8222 -23.7682,-34.707 -55.8095,-63.375 -92.9218,-83.1621 -37.0467,-19.7522 -78.1755,-30.2891 -119.4493,-32.2832 -5.5052,-0.266 -11.0086,-0.3771 -16.5058,-0.336 z m 694.1055,255.0977 c 31.9267,0.7644 64.0012,9.2395 92.4003,24.2617 3.7712,13.8102 6.6111,27.8621 8.3946,42.0254 3.9823,31.6254 3.085,63.5823 -3.8164,93.6914 -6.8872,30.0471 -19.9445,58.5273 -38.6289,81.8105 -18.623,23.2066 -43.3363,41.5545 -70.4532,51.2461 -26.9854,9.6446 -57.2785,10.7388 -83.6875,2.3262 -21.69,-6.9094 -41.7826,-20.4723 -56.7949,-38.0762 -15.0405,-17.6369 -25.4668,-39.781 -29.8867,-62.916 -8.7922,-46.0212 7.1697,-97.7449 39.291,-133.7109 28.0966,-31.4596 68.7116,-52.6382 111.0176,-58.7637 10.6021,-1.5351 21.3739,-2.1529 32.1641,-1.8945 z"
       id="path4370-9-0-9-5-7-5-3-3-1"
       inkscape:connector-curvature="0" />
    <path
       style="fill:none;fill-rule:evenodd;stroke:#000000;stroke-width:70;stroke-linecap:round;stroke-linejoin:round;stroke-miterlimit:4;stroke-dasharray:none;stroke-opacity:1"
       d="m -1026.3946,581.13746 c 74.00576,51.71238 162.13619,82.99441 252.18357,89.51294 90.04738,6.51853 181.76437,-11.74435 262.44643,-52.25889 80.68206,-40.51453 150.10757,-103.16943 198.65979,-179.28582 48.55222,-76.11638 76.09779,-165.48517 78.82112,-255.7271 2.52107,-83.539732 -16.28144,-167.920611 -56.04946,-241.430792 -39.76803,-73.510178 -100.63557,-135.806288 -174.29605,-175.295238 -73.66047,-39.48895 -159.95512,-55.70104 -242.62634,-43.42455 -82.67122,12.27648 -161.14176,53.36142 -216.69775,115.80159 -63.92309,71.844075 -95.83281,172.937178 -77.92951,267.42106 8.95164,47.24194 29.95169,92.26752 61.10845,128.88977 31.15675,36.62226 72.47112,64.67497 118.29286,79.24555 55.78044,17.73729 117.34956,15.119 172.42871,-4.68897 55.07915,-19.80796 103.6131,-56.34625 140.13843,-102.0843 36.52532,-45.73805 61.2241,-100.43854 74.20172,-157.514358 12.97762,-57.0758238 14.4176,-116.489396 7.10124,-174.562962 -18.11194,-143.76338 -92.30018,-280.7731 -206.48921,-369.97409 -114.18903,-89.201 -267.69946,-128.01992 -409.4939,-98.18223 -110.8609,23.32837 -212.9651,90.81954 -271.8901,187.57797 -29.4626,48.37921 -48.2533,102.84854 -58.137,158.624 -9.8836,55.77547 -10.8821,112.69432 -11.3449,169.336826 l -3.2408,396.662314 2.4031,-395.362212 c 0.3785,-62.273468 0.096,-124.939078 -11.1457,-186.190678 -11.2414,-61.2516 -33.5141,-120.85086 -68.6163,-172.28977 -35.1022,-51.43891 -82.728,-94.24804 -137.5938,-123.70784 -54.8657,-29.4598 -116.5635,-45.61293 -178.7528,-48.87125 -132.9172,-6.96401 -267.825,46.86416 -359.4394,143.41612 -91.6143,96.55196 -138.2931,234.09719 -124.3678,366.466205 13.9252,132.369018 88.2051,257.189335 197.9061,332.562805 109.701,75.37348 252.857,99.94917 381.4151,65.47781"
       id="path4370-9-0-9-5-7-5-1"
       inkscape:path-effect="#path-effect4372-5-0-7-0-2-2-9"
       inkscape:original-d="m -1026.3946,581.13746 c -5.8846,-34.03859 792.44811,-102.30239 792.11091,-397.75887 -0.29326,-256.952138 -486.6303,-501.92289 -689.6696,-344.34899 -127.95341,99.301666 -54.9413,433.76008 101.4718,475.55638 189.7781,50.71198 412.4494,-243.058804 393.8701,-438.85059 -24.3829,-256.95252 -361.8368,-511.32312 -615.98311,-468.15632 -203.0205,34.48313 -341.7653,429.23279 -341.372,515.538796 l -3.2408,396.662314 2.4031,-395.362212 c 15.4069,-226.723038 -190.6431,-611.616788 -396.1086,-531.059538 -283.0008,110.95667 -265.8759,1085.78471 95.514,907.92294"
       inkscape:connector-curvature="0"
       sodipodi:nodetypes="caaaaacccac" />
    <path
       style="color:#000000;font-style:normal;font-variant:normal;font-weight:normal;font-stretch:normal;font-size:medium;line-height:normal;font-family:sans-serif;text-indent:0;text-align:start;text-decoration:none;text-decoration-line:none;text-decoration-style:solid;text-decoration-color:#000000;letter-spacing:normal;word-spacing:normal;text-transform:none;direction:ltr;block-progression:tb;writing-mode:lr-tb;baseline-shift:baseline;text-anchor:start;white-space:normal;clip-rule:nonzero;display:inline;overflow:visible;visibility:visible;opacity:1;isolation:auto;mix-blend-mode:normal;color-interpolation:sRGB;color-interpolation-filters:linearRGB;solid-color:#000000;solid-opacity:1;fill:#000000;fill-opacity:1;fill-rule:evenodd;stroke:none;stroke-width:70;stroke-linecap:round;stroke-linejoin:round;stroke-miterlimit:4;stroke-dasharray:none;stroke-dashoffset:0;stroke-opacity:1;color-rendering:auto;image-rendering:auto;shape-rendering:auto;text-rendering:auto;enable-background:accumulate"
       d="m -1807.9961,1373.7539 c -134.4912,0.5028 -266.9782,57.162 -359.7461,154.9297 -98.9525,104.2856 -148.8258,251.2473 -133.7851,394.2187 15.0406,142.9715 94.4047,276.3373 212.8925,357.7481 118.4878,81.4106 271.4455,107.6699 410.3008,70.4375 a 35.0035,35.0035 0 1 0 -18.1289,-67.6133 c -118.2609,31.7102 -251.6171,8.8186 -352.5312,-60.5176 -100.9142,-69.3362 -170.1081,-185.6123 -182.918,-307.3789 -12.8099,-121.7665 30.6729,-249.8945 114.9492,-338.7129 84.2762,-88.8183 209.9479,-138.9609 332.2188,-132.5547 57.3614,3.0054 114.0986,17.947 164.0273,44.7559 49.8527,26.7681 93.3501,65.8677 125.2402,112.5996 31.8927,46.7356 52.6142,101.7358 63.1016,158.8789 10.4954,57.1851 10.9493,117.6352 10.5723,179.6602 l -2.4024,395.0781 -0,0.2109 0,0.072 a 35.0035,35.0035 0 0 0 69.998,0.5 l 0,-0.074 0,0 0,-0.6426 3.2363,-395.9453 c 0.461,-56.4228 1.5682,-111.3697 10.8086,-163.5156 9.2369,-52.1258 26.7354,-102.4694 53.5664,-146.5274 53.3435,-87.5932 147.4178,-150.1141 249.2051,-171.5332 130.82723,-27.5299 274.66148,8.6501 380.74022,91.5157 58.75571,45.8981 106.36865,105.8837 140.13281,173.0859 -62.68383,-20.8651 -130.04394,-27.5992 -195.88281,-17.8223 -90.71086,13.4704 -176.33781,58.1847 -237.70508,127.1563 -70.91634,79.7039 -106.33964,190.7583 -86.16994,297.2031 10.0584,53.0829 33.5383,103.5586 68.83986,145.0527 35.33566,41.5342 81.94861,73.2591 134.34375,89.92 63.8162,20.2925 132.90819,17.1789 194.87891,-5.1075 61.81561,-22.2305 115.35689,-62.7304 155.64453,-113.1797 40.21537,-50.3589 66.94611,-109.8703 80.98047,-171.5937 14.0178,-61.6505 15.45485,-125.1214 7.69726,-186.6973 -0.45872,-3.641 -1.11306,-7.2531 -1.63867,-10.8847 29.53581,28.6488 54.80943,61.8971 74.4082,98.125 36.63133,67.7121 54.19099,146.1358 51.84961,223.7207 -2.52971,83.8257 -28.24553,167.2564 -73.3457,237.9609 -45.10017,70.7045 -109.91182,129.196 -184.85742,166.8301 -74.94559,37.6339 -160.56789,54.684 -244.21289,48.6289 -83.64502,-6.055 -165.92012,-35.2593 -234.66411,-83.2949 a 35.0035,35.0035 0 1 0 -40.0937,57.3808 c 79.26755,55.3892 173.25339,88.7485 269.70312,95.7305 96.44976,6.9821 194.26115,-12.4936 280.67969,-55.8887 86.41849,-43.3951 160.45664,-110.2139 212.46093,-191.7422 52.00428,-81.5282 81.38186,-176.836 84.29883,-273.4941 2.70079,-89.4945 -17.34528,-179.8304 -60.25,-259.1387 -38.15918,-70.5363 -94.16774,-131.3908 -162.36523,-174.2109 -36.46126,-106.6056 -102.25628,-203.08 -191.64063,-272.9043 -122.29932,-95.5366 -285.48444,-136.9971 -438.24611,-104.8516 -119.9345,25.2378 -230.0696,97.7013 -294.5762,203.625 -15.0772,24.7578 -27.4109,50.8469 -37.4414,77.6817 -13.1346,-38.0427 -30.8248,-74.7024 -53.8378,-108.4258 -38.3143,-56.1459 -90.0684,-102.6629 -149.9473,-134.8145 -59.8027,-32.1106 -126.4614,-49.477 -193.4785,-52.9883 -8.9728,-0.4701 -17.948,-0.6858 -26.9141,-0.6523 z m 1162.49415,396.5449 c 56.91554,1.1547 113.97798,16.2046 164.33593,43.2012 0.19005,0.1019 0.37459,0.2142 0.56446,0.3164 7.87558,26.963 13.7626,54.4877 17.26562,82.293 6.87512,54.5713 5.43159,109.9286 -6.50586,162.4297 -11.92088,52.4283 -34.58661,102.3163 -67.42187,143.4336 -32.76302,41.0267 -76.29013,73.6049 -124.63281,90.9902 -48.18757,17.3296 -102.23386,19.4516 -149.97852,4.2695 -39.24832,-12.4803 -75.26434,-36.862 -102.24219,-68.5722 -27.01196,-31.7505 -45.53204,-71.3255 -53.37695,-112.7266 -15.63687,-82.5228 12.75967,-173.6544 69.68945,-237.6387 49.74469,-55.9088 121.05785,-93.3646 195.68946,-104.4472 18.68559,-2.7748 37.64143,-3.9337 56.61328,-3.5489 z"
       id="path4370-9-0-9-5-7-5-1-3"
       inkscape:connector-curvature="0" />
    <path
       style="color:#000000;font-style:normal;font-variant:normal;font-weight:normal;font-stretch:normal;font-size:medium;line-height:normal;font-family:sans-serif;text-indent:0;text-align:start;text-decoration:none;text-decoration-line:none;text-decoration-style:solid;text-decoration-color:#000000;letter-spacing:normal;word-spacing:normal;text-transform:none;direction:ltr;block-progression:tb;writing-mode:lr-tb;baseline-shift:baseline;text-anchor:start;white-space:normal;clip-rule:nonzero;display:inline;overflow:visible;visibility:visible;opacity:1;isolation:auto;mix-blend-mode:normal;color-interpolation:sRGB;color-interpolation-filters:linearRGB;solid-color:#000000;solid-opacity:1;fill:#000000;fill-opacity:1;fill-rule:evenodd;stroke:none;stroke-width:140;stroke-linecap:round;stroke-linejoin:round;stroke-miterlimit:4;stroke-dasharray:none;stroke-dashoffset:0;stroke-opacity:1;color-rendering:auto;image-rendering:auto;shape-rendering:auto;text-rendering:auto;enable-background:accumulate"
       d="m 1203.9863,1265.8008 c -9.3687,-0.2754 -18.7755,-0.2719 -28.2129,0.02 -75.0852,2.3185 -149.1768,22.8281 -214.75192,60.2422 -65.63235,37.4468 -120.71331,90.7798 -161.12304,153.6328 -7.23981,11.2608 -13.7909,22.8214 -20.02539,34.5039 -4.3107,-8.1306 -8.85097,-16.1755 -13.65625,-24.1113 -37.76042,-62.3606 -89.82771,-116.0531 -152.62696,-154.8223 -62.75182,-38.7399 -134.32784,-61.5004 -207.62304,-66.5976 -144.32717,-10.0371 -286.46681,49.5635 -383.783206,154.3105 -96.969605,104.3738 -144.645034,246.7896 -136.117184,387.2617 9.07631,149.5068 81.127469,291.4362 196.460934,387.002 115.333446,95.5658 268.178286,139.9853 416.767576,121.1211 A 70.007,70.007 0 1 0 481.66406,2179.4785 C 372.92904,2193.2831 256.25058,2159.3748 171.85156,2089.4414 87.452545,2019.508 32.452438,1911.1623 25.810547,1801.7559 19.582663,1699.169 55.978499,1592.2921 124.75,1518.2695 c 68.42472,-73.6493 172.91135,-116.7959 271.50391,-109.9394 50.62566,3.5207 100.8426,19.5482 143.79101,46.0625 42.90097,26.485 79.83316,64.3111 106.41406,108.209 26.61536,43.9547 43.83673,95.4662 52.53516,149.4433 8.70993,54.0485 9.1198,112.5602 8.74414,174.2852 l -2.24805,369.4511 a 70.007,70.007 0 0 0 139.9961,1 l 0.002,-0.1464 0.002,-0.3594 3.0293,-370.1621 c 0.51791,-63.3108 1.82139,-123.3346 11.78125,-178.6094 9.94584,-55.1971 28.81976,-107.7084 57.35742,-152.0957 28.50107,-44.3304 67.69758,-82.0457 112.7422,-107.7461 45.102,-25.7331 97.415,-40.2939 149.6934,-41.9082 104.5994,-3.2299 213.0422,47.2549 287.1972,127.1582 20.9967,22.6242 39.5256,47.6967 55.7129,74.4844 -101.4997,-10.3917 -206.0378,15.4625 -289.7187,77.0781 -84.8394,62.4685 -142.9042,158.5621 -154.0879,265.1856 -9.7748,93.1912 17.3224,189.2927 80.3672,261.832 63.5354,73.1037 158.8395,115.4674 257.7148,107.6445 59.833,-4.7342 115.6015,-27.3698 162.1582,-61.4941 46.366,-33.9846 82.517,-78.37 108.3691,-127.0899 40.938,-77.1502 54.9805,-161.7715 53.8262,-243.5898 28.9705,40.5762 50.4703,87.3507 62.4981,136.4414 20.1216,82.1251 14.6385,171.5283 -15.3653,250.5801 -30.0038,79.0519 -85.2224,149.5775 -154.7676,197.6699 -69.5452,48.0924 -155.0222,74.8631 -239.5761,75.0312 -84.5541,0.1682 -170.1371,-26.2626 -239.8731,-74.0781 a 70.007,70.007 0 1 0 -79.1718,115.4649 c 93.6234,64.1943 205.8047,98.8371 319.3222,98.6113 113.5175,-0.2257 225.5604,-35.3147 318.9278,-99.8809 93.3674,-64.5661 165.7479,-157.0101 206.0292,-263.1406 40.2815,-106.1304 47.4654,-223.3177 20.4512,-333.5742 -23.4222,-95.5963 -72.4967,-185.4355 -145.0019,-254.8633 -27.5295,-26.3609 -58.1975,-49.4363 -91.2051,-68.5605 -28.2116,-83.8364 -72.4493,-162.673 -133.9922,-228.9864 -93.5603,-100.8128 -225.3905,-167.7461 -365.9219,-171.8769 z m 280.9141,479.416 c 8.6164,0.1367 17.2149,0.6666 25.75,1.5977 25.6261,2.7953 51.1161,9.1423 75.6699,18.5449 5.5973,24.066 9.7843,48.5231 12.3477,73.1504 8.4555,81.2343 -0.5229,162.3345 -34.5293,226.4218 -16.9309,31.9073 -40.2133,59.8206 -67.4649,79.795 -27.0609,19.8346 -59.2779,32.3803 -90.4355,34.8457 -50.2046,3.9724 -106.4396,-20.1484 -141.0039,-59.918 -35.0554,-40.3347 -52.6282,-99.8494 -46.8028,-155.3887 6.7251,-64.1155 44.4595,-127.7326 97.8633,-167.0547 47.0627,-34.6529 108.291,-52.9509 168.6055,-51.9941 z"
       id="path4370-9-0-9-5-7-5-2"
       inkscape:connector-curvature="0" />
  </g>
</svg>
