<?xml version="1.0" encoding="UTF-8" standalone="no"?>
<!-- Created with Inkscape (http://www.inkscape.org/) -->

<svg
   xmlns:dc="http://purl.org/dc/elements/1.1/"
   xmlns:cc="http://creativecommons.org/ns#"
   xmlns:rdf="http://www.w3.org/1999/02/22-rdf-syntax-ns#"
   xmlns:svg="http://www.w3.org/2000/svg"
   xmlns="http://www.w3.org/2000/svg"
   xmlns:sodipodi="http://sodipodi.sourceforge.net/DTD/sodipodi-0.dtd"
   xmlns:inkscape="http://www.inkscape.org/namespaces/inkscape"
   width="2000"
   height="2048"
   id="svg2992"
   version="1.1"
   inkscape:version="0.91 r13725"
   sodipodi:docname="ഫ്ര.svg">
  <defs
     id="defs5498">
    <inkscape:path-effect
       effect="spiro"
       id="path-effect5508"
       is_visible="true" />
    <inkscape:path-effect
       effect="spiro"
       id="path-effect4141-5-7-0-7"
       is_visible="true" />
    <inkscape:path-effect
       effect="spiro"
       id="path-effect4149-1"
       is_visible="true" />
    <inkscape:path-effect
       effect="spiro"
       id="path-effect4141-5-7-0-7-1"
       is_visible="true" />
    <inkscape:path-effect
       effect="spiro"
       id="path-effect4149-1-8"
       is_visible="true" />
    <inkscape:path-effect
       effect="spiro"
       id="path-effect4149-1-8-2"
       is_visible="true" />
    <inkscape:path-effect
       effect="spiro"
       id="path-effect4141-5-7-0-7-1-9"
       is_visible="true" />
    <inkscape:path-effect
       effect="spiro"
       id="path-effect4141-5-7-0-7-1-9-9"
       is_visible="true" />
    <inkscape:path-effect
       effect="spiro"
       id="path-effect4149-1-8-2-3"
       is_visible="true" />
    <inkscape:path-effect
       effect="spiro"
       id="path-effect4141-5-7-0-7-1-9-3"
       is_visible="true" />
    <inkscape:path-effect
       effect="spiro"
       id="path-effect4149-1-8-2-34"
       is_visible="true" />
    <inkscape:path-effect
       effect="spiro"
       id="path-effect4149-1-8-5"
       is_visible="true" />
    <inkscape:path-effect
       effect="spiro"
       id="path-effect4141-5-7-0-7-1-7"
       is_visible="true" />
  </defs>
  <sodipodi:namedview
     inkscape:window-height="871"
     inkscape:window-width="1600"
     inkscape:pageshadow="2"
     inkscape:pageopacity="0.0"
     borderopacity="1.0"
     bordercolor="#666666"
     pagecolor="#ffffff"
     id="base"
     showgrid="true"
     showguides="true"
     inkscape:guide-bbox="true"
     inkscape:zoom="0.32102648"
     inkscape:cx="3476.2411"
     inkscape:cy="899.59525"
     inkscape:window-x="1600"
     inkscape:window-y="0"
     inkscape:current-layer="layer1"
     inkscape:window-maximized="1">
    <sodipodi:guide
       orientation="horizontal"
       position="0,600"
       id="guide5596" />
    <inkscape:grid
       type="xygrid"
       id="grid3769"
       empspacing="3"
       visible="true"
       enabled="true"
       snapvisiblegridlinesonly="true"
       spacingx="4px"
       units="px"
       dotted="true"
       spacingy="4px" />
    <sodipodi:guide
       orientation="0,1"
       position="-1040,1600"
       id="guide2985" />
    <sodipodi:guide
       position="4032,1710"
       orientation="0,1"
       id="guide4171"
       inkscape:label=""
       inkscape:color="rgb(0,0,255)" />
  </sodipodi:namedview>
  <metadata
     id="metadata5594">
    <rdf:RDF>
      <cc:Work
         rdf:about="">
        <dc:format>image/svg+xml</dc:format>
        <dc:type
           rdf:resource="http://purl.org/dc/dcmitype/StillImage" />
        <dc:title />
      </cc:Work>
    </rdf:RDF>
  </metadata>
  <g
     inkscape:label="Layer 1"
     inkscape:groupmode="layer"
     id="layer1"
     transform="translate(0,1048)">
    <path
       style="color:#000000;font-style:normal;font-variant:normal;font-weight:normal;font-stretch:normal;font-size:medium;line-height:normal;font-family:sans-serif;text-indent:0;text-align:start;text-decoration:none;text-decoration-line:none;text-decoration-style:solid;text-decoration-color:#000000;letter-spacing:normal;word-spacing:normal;text-transform:none;direction:ltr;block-progression:tb;writing-mode:lr-tb;baseline-shift:baseline;text-anchor:start;white-space:normal;clip-rule:nonzero;display:inline;overflow:visible;visibility:visible;opacity:1;isolation:auto;mix-blend-mode:normal;color-interpolation:sRGB;color-interpolation-filters:linearRGB;solid-color:#000000;solid-opacity:1;fill:#000000;fill-opacity:1;fill-rule:evenodd;stroke:none;stroke-width:140;stroke-linecap:round;stroke-linejoin:round;stroke-miterlimit:4;stroke-dasharray:none;stroke-dashoffset:0;stroke-opacity:1;color-rendering:auto;image-rendering:auto;shape-rendering:auto;text-rendering:auto;enable-background:accumulate"
       d="m 22.25,441.64258 c -20.6021176,-0.97114 -40.584145,7.19189 -54.613281,22.31054 -138.989319,145.59929 -224.472139,338.89767 -238.664059,539.68558 -10.32792,146.1197 16.98654,294.4707 80.54687,427.039 63.59603,132.6428 162.339368,246.5601 282.41797,330.1368 120.0054,83.5257 258.10137,134.8225 398.40234,160.875 140.19101,26.032 279.7828,26.8758 414.63672,26.7597 l 656.71294,-0.5664 c 94.1014,-0.081 197.1546,-2.8254 297.6933,-41.0742 100.4386,-38.2107 188.4115,-108.4732 244.961,-201.875 54.5687,-90.1304 77.3096,-196.9138 73.354,-261.1239 2.8237,-7.8181 -3.4556,-212.7589 -3.4556,-212.7589 0.2781,-82.6048 0.2774,-168.9843 -13.4063,-257.27346 -13.6979,-88.38117 -41.1513,-176.9952 -88.8769,-257.13086 -47.8081,-80.27434 -114.9764,-149.84993 -197.4844,-197.70117 -77.4378,-44.91079 -166.4106,-69.38639 -256.668,-68.58789 -6.0171,0.0532 -12.0408,0.21872 -18.0664,0.49805 -92.9622,4.30949 -182.8743,35.51916 -258.9453,87.52539 -76.0013,51.95856 -136.1918,123.17785 -177.5664,203.36328 -41.3095,80.0593 -63.0266,166.92043 -71.7383,252.85156 -8.7031,85.8477 -4.5344,169.1029 -0.2832,248.6641 l 3.7618,70.4121 -346.35357,-1.5371 c 7.09424,-10.8697 13.68403,-22.1007 19.58789,-33.7481 37.66836,-74.3133 48.40122,-160.0535 30.21485,-241.3594 C 780.2316,955.72153 733.99123,882.72626 668.25195,831.54297 602.51269,780.35968 520.40809,753.42872 437.125,755.73242 c -83.65731,2.31406 -164.48682,34.0178 -227.41016,89.19531 -62.92332,55.17751 -104.91394,131.17406 -118.134762,213.81247 -13.220823,82.6385 2.962987,167.9436 45.531252,239.9981 42.56826,72.0545 109.47453,127.3912 188.23437,155.6894 36.57212,13.768 77.33501,-5.0703 90.54849,-41.8464 13.21349,-36.7761 -6.23893,-77.2495 -43.2106,-89.9055 -47.20089,-16.9592 -89.52394,-51.9661 -115.03515,-95.1485 -25.51122,-43.1823 -35.74943,-97.1446 -27.82617,-146.6699 7.92325,-49.5253 34.48527,-97.59999 72.19531,-130.66795 37.71003,-33.06795 88.84256,-53.12294 138.97851,-54.50976 49.91987,-1.38084 101.8459,15.65082 141.25,46.33008 39.40411,30.67924 68.64792,76.84343 79.54883,125.57813 10.90091,48.7347 4.11161,102.9585 -18.4668,147.5019 -22.57839,44.5435 -62.2998,82.0751 -108.05078,102.0938 -30.28855,13.2701 -47.16107,45.9239 -40.4615,78.3062 6.69957,32.3822 35.14391,55.6604 68.2115,55.8227 L 1168.5156,1454 c 9.4395,0.037 18.789,-1.8349 27.4864,-5.5039 l 836.3378,0 c 1.6777,64.1845 -14.8552,129.5862 -47.7558,183.9277 -39.0862,64.5581 -102.8336,116.087 -174.9824,143.5352 -72.0487,27.4101 -157.4777,31.8459 -248.0313,31.9238 l -656.71483,0.5664 c -133.9683,0.1153 -264.84185,-1.3597 -388.95508,-24.4062 C 391.89712,1761.0168 272.54864,1715.9496 171.91406,1645.9062 71.352702,1575.9139 -11.616217,1479.9107 -64.240234,1370.1523 -116.89996,1260.3195 -140.00048,1135.5434 -131.375,1013.5098 -119.54508,846.1396 -46.954586,681.98981 68.902344,560.62305 88.241099,540.93008 94.204052,511.7124 84.128615,486.01637 74.053178,460.32033 49.820106,442.94255 22.25,441.64258 Z m 1596.752,148.7168 c 63.981,-0.51348 129.1793,17.18064 185.2363,49.6914 59.8866,34.73178 111.0172,87.07933 147.4375,148.23242 36.5029,61.29179 59.2992,132.64972 70.8125,206.93555 11.5275,74.37785 12.03,153.35605 11.7539,235.35935 l -0.2637,77.918 -799.0859,0 -3.8848,-72.707 c -4.2193,-78.9632 -7.5413,-154.9811 -0.2324,-227.0743 7.3004,-72.01034 25.3825,-141.75699 56.8672,-202.77535 31.4196,-60.89225 77.1129,-114.35043 132.164,-151.98633 54.9814,-37.58821 120.7994,-60.20613 186.418,-63.24804 4.2515,-0.19709 8.5119,-0.31147 12.7774,-0.3457 z"
       transform="translate(0,-1048)"
       id="path4139-0-3-5-0"
       inkscape:connector-curvature="0"
       sodipodi:nodetypes="ccsssssssscssssssssssccssssssscscssssssscsccccsssssssscscsssscccssssss" />
    <path
       style="fill:none;fill-rule:evenodd;stroke:#000000;stroke-width:140;stroke-linecap:round;stroke-linejoin:round;stroke-miterlimit:4;stroke-dasharray:none;stroke-opacity:1"
       d="M 487.50637,1928.3641 C 424.526,1905.7354 369.9116,1860.5629 335.87186,1802.9445 c -34.03974,-57.6184 -47.25015,-127.2516 -36.67811,-193.3335 10.57203,-66.0818 44.84741,-128.118 95.16409,-172.2408 50.31667,-44.1227 116.2982,-70.0019 183.19483,-71.8523 66.60148,-1.8423 133.61693,20.1389 186.18862,61.0702 52.5717,40.9312 90.31311,100.5117 104.85676,165.5319 14.54364,65.0203 5.78259,135.0023 -24.34079,194.4307 -30.12338,59.4284 -81.3876,107.8662 -142.42709,134.5745 l 605.48863,2.6887 -7.7199,-144.477 c -4.2353,-79.2625 -7.9801,-158.8987 0.026,-237.8694 8.006,-78.9708 27.905,-157.2747 64.3021,-227.8135 36.3971,-70.5389 89.3395,-132.8777 154.8657,-177.6749 65.5262,-44.7972 143.3911,-71.7113 222.6815,-75.387 82.2163,-3.8113 165.1772,17.4268 236.3744,58.7183 71.1973,41.2915 130.3462,102.2534 172.4604,172.9672 42.1143,70.7137 67.2393,150.6991 79.8449,232.0326 12.6056,81.3335 12.8576,164.0125 12.5805,246.3166 l -0.5002,148.5502"
       id="path4139-0-3-5-0-8"
       inkscape:path-effect="#path-effect4141-5-7-0-7-1"
       inkscape:original-d="m 487.50637,1928.3641 c 0,0 -99.8653,-557.0125 90.0463,-562.8462 189.6894,-5.8269 124.2775,555.6073 124.2775,555.6073 l 605.48863,2.6887 -7.7199,-144.477 c -16.1981,-303.1463 160.78,-709.8175 441.8752,-718.7448 289.5685,-9.1965 480.1846,214.6759 501.2602,710.0347 l -0.5002,148.5502"
       inkscape:connector-curvature="0"
       sodipodi:nodetypes="cacccacc" />
    <path
       style="fill:none;fill-rule:evenodd;stroke:#000000;stroke-width:140;stroke-linecap:round;stroke-linejoin:round;stroke-miterlimit:4;stroke-dasharray:none;stroke-opacity:1"
       d="m 1300.2116,1922.3075 912,0"
       id="path4171-7-0-6"
       inkscape:connector-curvature="0"
       sodipodi:nodetypes="cc" />
    <path
       style="fill:none;fill-rule:evenodd;stroke:#000000;stroke-width:140;stroke-linecap:round;stroke-linejoin:round;stroke-miterlimit:4;stroke-dasharray:none;stroke-opacity:1"
       d="m 2229.9114,1903.606 c 24.9546,102.5087 7.6861,214.6348 -46.9552,304.885 -47.8178,78.98 -123.6785,139.8755 -209.9722,172.7049 -86.2937,32.8295 -180.5347,36.4203 -272.8622,36.4998 l -656.7139,0.5653 c -134.41111,0.1157 -269.64359,-1.0433 -401.7957,-25.5826 C 509.46008,2368.1391 380.73804,2319.9568 270.41805,2243.1723 160.09807,2166.3878 69.242311,2061.4274 11.132286,1940.2268 -46.977739,1819.0262 -72.185328,1682.4625 -62.708632,1548.3858 -49.69771,1364.3068 29.338054,1185.584 156.76117,1052.101"
       id="path4147-7-9"
       inkscape:path-effect="#path-effect4149-1-8"
       inkscape:original-d="m 2229.9114,1903.606 c 0,0 15.8756,223.4873 -46.9552,304.885 -107.1776,138.8494 -176.3236,208.9409 -482.8344,209.2047 l -656.7139,0.5653 C 680.43207,2418.5734 50.614668,2003.5533 -62.708632,1548.3858 -106.40893,1372.8618 156.76117,1052.101 156.76117,1052.101"
       inkscape:connector-curvature="0"
       sodipodi:nodetypes="cassac" />
    <path
       style="fill:none;fill-rule:evenodd;stroke:#000000;stroke-width:69.99999237;stroke-linecap:round;stroke-linejoin:round;stroke-miterlimit:4;stroke-dasharray:none;stroke-opacity:1"
       d="m -4761.7643,380.81979 c -68.5292,-24.57231 -127.9704,-73.68234 -165.0287,-136.34599 -37.0583,-62.66365 -51.4562,-138.41155 -39.9734,-210.301724 11.4828,-71.890174 48.7603,-139.384136 103.4948,-187.385996 54.7346,-48.00186 126.5163,-76.15207 199.2902,-78.15448 72.4424,-1.99329 145.3313,21.9301 202.5024,66.46479 57.1711,44.5347 98.2039,109.353083 113.9988,180.08072 15.7949,70.727636 6.2356,146.84423 -26.5579,211.46978 -32.7935,64.62556 -88.58,117.28467 -154.988,146.2994 l 657.5112,2.92441 -8.3832,-157.1426 c -4.5967,-86.16475 -8.6648,-172.733339 0,-258.584032 8.6691,-85.850688 30.23,-170.985518 69.7127,-247.709778 39.4827,-76.72426 96.9436,-144.56878 168.1202,-193.34763 71.1767,-48.77885 155.8085,-78.11582 242.0032,-82.11222 89.3682,-4.14354 179.5396,19.02502 256.8789,63.99693 77.3393,44.97191 141.5427,111.32508 187.2336,188.24182 45.6908,76.91674 72.9241,163.87868 86.5852,252.293661 13.6612,88.41498 13.9309,178.283909 13.6301,267.747569 l -0.5432,161.57288"
       id="path4139-0-3-5-0-8-5"
       inkscape:path-effect="#path-effect4141-5-7-0-7-1-9"
       inkscape:original-d="m -4761.7643,380.81979 c 0,0 -108.4456,-605.84308 97.7829,-612.18819 205.9872,-6.33771 134.9553,604.31469 134.9553,604.31469 l 657.5112,2.92441 -8.3832,-157.1426 c -17.5898,-329.72166 174.594,-772.04375 479.8404,-781.75366 314.4479,-10.00271 521.4414,233.4955 544.3278,772.27998 l -0.5432,161.57288"
       inkscape:connector-curvature="0"
       sodipodi:nodetypes="cacccacc" />
    <path
       style="fill:none;fill-rule:evenodd;stroke:#000000;stroke-width:69.99999237;stroke-linecap:round;stroke-linejoin:round;stroke-miterlimit:4;stroke-dasharray:none;stroke-opacity:1"
       d="m -3879.2327,375.88158 1012.3577,-6"
       id="path4171-7-0-6-4"
       inkscape:connector-curvature="0"
       sodipodi:nodetypes="cc" />
    <path
       style="fill:none;fill-rule:evenodd;stroke:#000000;stroke-width:69.99999237;stroke-linecap:round;stroke-linejoin:round;stroke-miterlimit:4;stroke-dasharray:none;stroke-opacity:1"
       d="m -2857.6545,359.89126 c 9.4828,97.58151 -13.7041,198.05519 -64.9896,281.61281 -52.2763,85.17188 -133.8679,151.44356 -227.109,187.40402 -93.2411,35.96045 -195.2746,40.05448 -295.2098,40.14064 l -713.1377,0.61485 c -142.6545,0.12299 -286.091,-0.95824 -426.6095,-25.55241 -140.5185,-24.59416 -277.8777,-72.96911 -397.1616,-151.21014 -119.284,-78.24104 -219.4784,-186.07288 -285.699,-312.42616 -66.2206,-126.35328 -98.1519,-270.43647 -91.6822,-412.944229 9.1275,-201.051331 95.9033,-397.592331 238.3263,-539.791671"
       id="path4147-7-9-4"
       inkscape:path-effect="#path-effect4149-1-8-2"
       inkscape:original-d="m -2857.6545,359.89126 c 0,0 -3.4163,207.51979 -64.9896,281.61281 -121.3787,146.05872 -189.473,227.25769 -522.3188,227.54466 l -713.1377,0.61485 c -394.1621,0.33984 -1074.64,-417.64438 -1201.1523,-902.132939 -49.6939,-190.306521 238.3263,-539.791671 238.3263,-539.791671"
       inkscape:connector-curvature="0"
       sodipodi:nodetypes="cassac" />
    <path
       style="fill:none;fill-rule:evenodd;stroke:#000000;stroke-width:69.99999237;stroke-linecap:round;stroke-linejoin:round;stroke-miterlimit:4;stroke-dasharray:none;stroke-opacity:1"
       d="m -8505.7643,764.81978 c -68.5292,-24.57231 -127.9704,-73.68234 -165.0287,-136.34599 -37.0583,-62.66365 -51.4562,-138.41155 -39.9734,-210.30172 11.4828,-71.89018 48.7603,-139.38414 103.4948,-187.386 54.7346,-48.00186 126.5163,-76.15207 199.2902,-78.15448 72.4424,-1.99329 145.3313,21.9301 202.5024,66.46479 57.1711,44.5347 98.2039,109.35308 113.9988,180.08072 15.7949,70.72764 6.2356,146.84423 -26.5579,211.46978 -32.7935,64.62556 -88.58,117.28467 -154.988,146.2994 l 657.5112,2.92441 -8.3832,-157.1426 c -4.5967,-86.16475 -8.6648,-172.73334 0,-258.58403 8.6691,-85.85069 30.23,-170.98552 69.7127,-247.709782 39.4827,-76.724259 96.9436,-144.568774 168.1202,-193.347624 71.1767,-48.778854 155.8085,-78.115824 242.0032,-82.112224 89.3682,-4.14354 179.5396,19.02502 256.8789,63.99693 77.3393,44.971908 141.5427,111.3250768 187.2336,188.241817 45.6908,76.916743 72.9241,163.878683 86.5852,252.293663 13.6612,88.41498 13.9309,178.28391 13.6301,267.74757 l -0.5432,161.57288"
       id="path4139-0-3-5-0-8-5-5"
       inkscape:path-effect="#path-effect4141-5-7-0-7-1-9-9"
       inkscape:original-d="m -8505.7643,764.81978 c 0,0 -108.4456,-605.84308 97.7829,-612.18819 205.9872,-6.33771 134.9553,604.31469 134.9553,604.31469 l 657.5112,2.92441 -8.3832,-157.1426 c -17.5898,-329.72166 174.594,-772.04375 479.8404,-781.75366 314.4479,-10.0027 521.4414,233.4955 544.3278,772.27998 l -0.5432,161.57288"
       inkscape:connector-curvature="0"
       sodipodi:nodetypes="cacccacc" />
    <path
       style="fill:none;fill-rule:evenodd;stroke:#000000;stroke-width:69.99999237;stroke-linecap:round;stroke-linejoin:round;stroke-miterlimit:4;stroke-dasharray:none;stroke-opacity:1"
       d="m -7623.2327,759.88157 1012.3577,-6"
       id="path4171-7-0-6-4-8"
       inkscape:connector-curvature="0"
       sodipodi:nodetypes="cc" />
    <path
       style="fill:none;fill-rule:evenodd;stroke:#000000;stroke-width:69.99999237;stroke-linecap:round;stroke-linejoin:round;stroke-miterlimit:4;stroke-dasharray:none;stroke-opacity:1"
       d="m -6601.6545,743.89125 c 9.4828,97.58149 -13.7042,198.05514 -64.9896,281.61275 -52.2762,85.1719 -133.8679,151.4436 -227.109,187.4041 -93.2411,35.9604 -195.2746,40.0544 -295.2098,40.1406 l -713.1377,0.6148 c -142.6545,0.123 -286.091,-0.9583 -426.6095,-25.5524 -140.5184,-24.5942 -277.8776,-72.9691 -397.1616,-151.2102 -119.2839,-78.24098 -219.4783,-186.07281 -285.6989,-312.42607 -66.2206,-126.35327 -98.152,-270.43645 -91.6823,-412.9442 9.1275,-201.05135 95.9033,-397.592364 238.3263,-539.7917"
       id="path4147-7-9-4-3"
       inkscape:path-effect="#path-effect4149-1-8-2-3"
       inkscape:original-d="m -6601.6545,743.89125 c 0,0 -3.4163,207.51978 -64.9896,281.61275 -121.3787,146.0587 -189.473,227.2577 -522.3188,227.5447 l -713.1377,0.6148 c -394.1621,0.3399 -1074.64,-417.64427 -1201.1523,-902.13287 -49.6939,-190.30652 238.3263,-539.7917 238.3263,-539.7917"
       inkscape:connector-curvature="0"
       sodipodi:nodetypes="cassac" />
    <path
       style="color:#000000;font-style:normal;font-variant:normal;font-weight:normal;font-stretch:normal;font-size:medium;line-height:normal;font-family:sans-serif;text-indent:0;text-align:start;text-decoration:none;text-decoration-line:none;text-decoration-style:solid;text-decoration-color:#000000;letter-spacing:normal;word-spacing:normal;text-transform:none;direction:ltr;block-progression:tb;writing-mode:lr-tb;baseline-shift:baseline;text-anchor:start;white-space:normal;clip-rule:nonzero;display:inline;overflow:visible;visibility:visible;opacity:1;isolation:auto;mix-blend-mode:normal;color-interpolation:sRGB;color-interpolation-filters:linearRGB;solid-color:#000000;solid-opacity:1;fill:#000000;fill-opacity:1;fill-rule:evenodd;stroke:none;stroke-width:69.99999237;stroke-linecap:round;stroke-linejoin:round;stroke-miterlimit:4;stroke-dasharray:none;stroke-dashoffset:0;stroke-opacity:1;color-rendering:auto;image-rendering:auto;shape-rendering:auto;text-rendering:auto;enable-background:accumulate"
       d="m -8865.5879,824.40039 c -9.0914,0.26273 -17.7235,4.05378 -24.0683,10.57031 -148.804,148.57017 -239.0242,352.9138 -248.5606,562.9727 -6.7548,148.7875 26.495,298.8336 95.6465,430.7793 69.1582,131.9583 173.402,244.0434 297.5019,325.4433 124.0555,81.3708 265.944,131.1518 410.3243,156.4219 144.3311,25.2614 289.8222,26.1993 432.6738,26.0762 l 713.1367,-0.6153 c 100.8705,-0.087 207.3682,-3.7602 307.7754,-42.4843 100.3151,-38.6888 187.8085,-109.641 244.3437,-201.752 83.3443,-155.3475 71.5086,-280.366 72.0801,-450.4395 0.3013,-89.6128 0.1561,-181.3275 -14.041,-273.2109 -14.2041,-91.9294 -42.5941,-183.1988 -91.082,-264.8242 -48.5296,-81.6954 -116.737,-152.36215 -199.7324,-200.62306 -77.8531,-45.27067 -167.5889,-69.97423 -258.004,-69.19922 -6.0276,0.0517 -12.0594,0.2165 -18.0898,0.4961 -93.052,4.31434 -183.7174,35.81191 -260.168,88.20508 -76.4141,52.36825 -137.4916,124.6582 -179.455,206.2031 -41.9307,81.4812 -64.3946,170.8861 -73.4141,260.2071 l 0,0 c -9.0108,89.2785 -4.7316,177.6498 -0.127,263.9629 l 6.4082,120.1152 -506.2324,-2.2519 c 29.1324,-27.5411 53.6017,-60.0175 71.8457,-95.9707 36.5699,-72.0675 47.1177,-156.0633 29.5039,-234.9356 -17.6137,-78.8722 -62.8938,-150.4013 -126.6484,-200.0644 -63.7547,-49.6631 -144.1881,-76.0627 -224.9727,-73.8399 -81.1568,2.2331 -160.3667,33.2969 -221.4062,86.8282 -61.0395,53.5312 -102.173,128.0083 -114.9785,208.1796 -12.8055,80.1714 3.0811,163.7548 44.4082,233.6368 41.3271,69.882 106.9186,124.0737 183.3418,151.4765 18.2817,6.8384 38.6246,-2.597 45.2127,-20.9704 6.5881,-18.3734 -3.1241,-38.5856 -21.5858,-44.9222 -60.6352,-21.7417 -113.9253,-65.7695 -146.7148,-121.2148 -32.7895,-55.4453 -45.6992,-123.3558 -35.5391,-186.9648 10.1601,-63.6091 43.5822,-124.1213 92.0117,-166.5938 48.4297,-42.4725 112.7829,-67.7087 177.1739,-69.4805 64.1003,-1.7637 129.4437,19.6816 180.0312,59.0879 50.5876,39.4063 87.3736,97.5147 101.3496,160.0977 13.9761,62.583 5.4059,130.8203 -23.6113,188.0039 -29.0172,57.1836 -79.0283,104.3909 -137.7891,130.0644 -15.1514,6.6281 -23.5967,22.9559 -20.2506,39.1516 3.3461,16.1957 17.5705,27.8397 34.1081,27.9207 l 647.4921,2.8809 c 0.887,0.052 1.7757,0.07 2.6641,0.055 l 4.0957,-0.024 3.2598,0.014 c 0.2827,-0.01 0.5652,-0.023 0.8476,-0.039 l 980.2246,-5.8086 c -0.4186,76.4419 -21.956,153.1335 -61.875,218.1719 -48.0171,78.2328 -123.7079,139.8244 -209.875,173.0567 -86.0749,33.1966 -183.6446,37.7114 -282.6445,37.7968 l -713.1387,0.6153 c -142.4574,0.1228 -283.839,-1.1025 -420.5449,-25.0293 -136.6565,-23.9183 -269.4874,-70.8886 -384,-146 -114.4678,-75.0821 -210.6115,-178.6581 -273.8945,-299.4063 -63.2897,-120.7609 -93.9034,-258.8834 -87.7188,-395.1113 8.7186,-192.0439 92.0497,-380.7809 228.0918,-516.60939 10.3604,-10.05512 13.4844,-25.43968 7.8663,-38.73937 -5.618,-13.29968 -18.8253,-21.78558 -33.2569,-21.36805 z m 1738.584,79.11719 c 77.2388,-0.6332 155.0685,20.65927 222.2266,59.71094 71.6831,41.68288 131.884,103.72128 174.7363,175.85938 42.8937,72.208 68.9698,154.8631 82.0879,239.7637 13.1253,84.9465 13.519,172.9706 13.2187,262.2851 l -0.4218,125.8887 -947.1876,5.6133 -6.6035,-123.7754 c -4.5887,-86.0157 -8.4455,-170.7809 -0.1269,-253.2031 l 0,-0 c 8.3188,-82.3797 28.9753,-163.2423 66.0097,-235.209 37.002,-71.9036 90.8462,-135.3027 156.7852,-180.49217 65.9028,-45.16454 144.5005,-72.34107 223.8379,-76.01953 5.1406,-0.23835 10.2882,-0.37771 15.4375,-0.41992 z"
       transform="translate(0,-1048)"
       id="path4139-0-3-5-0-8-5-9"
       inkscape:connector-curvature="0"
       sodipodi:nodetypes="ccsssssssccsssssssccsccssssssscscssssssscscccccccsssssssscscsssscccsccssss" />
    <path
       style="color:#000000;font-style:normal;font-variant:normal;font-weight:normal;font-stretch:normal;font-size:medium;line-height:normal;font-family:sans-serif;text-indent:0;text-align:start;text-decoration:none;text-decoration-line:none;text-decoration-style:solid;text-decoration-color:#000000;letter-spacing:normal;word-spacing:normal;text-transform:none;direction:ltr;block-progression:tb;writing-mode:lr-tb;baseline-shift:baseline;text-anchor:start;white-space:normal;clip-rule:nonzero;display:inline;overflow:visible;visibility:visible;opacity:1;isolation:auto;mix-blend-mode:normal;color-interpolation:sRGB;color-interpolation-filters:linearRGB;solid-color:#000000;solid-opacity:1;fill:#000000;fill-opacity:1;fill-rule:evenodd;stroke:none;stroke-width:200;stroke-linecap:round;stroke-linejoin:round;stroke-miterlimit:4;stroke-dasharray:none;stroke-dashoffset:0;stroke-opacity:1;color-rendering:auto;image-rendering:auto;shape-rendering:auto;text-rendering:auto;enable-background:accumulate"
       d="M 2784.1406 334.94531 A 100.01 100.01 0 0 0 2707.0605 369.02539 C 2559.121 533.11191 2471.4941 747.2282 2461.9531 967.95312 C 2455.4733 1117.8591 2484.905 1269.3292 2550.6836 1405.6914 C 2616.5402 1542.2154 2717.43 1659.8872 2840.7598 1746.832 C 2964.0194 1833.7276 3105.4669 1887.1731 3248.9277 1914.3457 C 3392.2377 1941.4897 3533.4115 1942.2643 3668.0625 1942.1484 L 4324.7773 1941.582 C 4419.6391 1941.5003 4526.4676 1939.1183 4633.1113 1898.5469 C 4739.6119 1858.0299 4832.7768 1783.7526 4893.0684 1684.1699 C 4950.058 1590.0409 4974.3812 1479.5023 4963.2051 1370.9648 A 100.01 100.01 0 0 0 4966.8027 1343.4004 L 4967.3027 1194.8496 C 4967.5906 1109.3708 4967.7848 1019.1271 4954.7891 925.72266 C 4941.776 832.19331 4915.4653 737.15148 4867.4688 649.16406 C 4819.3315 560.91893 4750.3111 482.20411 4662.1621 426.41211 C 4579.2492 373.93416 4481.9703 343.7015 4381.666 344.08984 C 4374.9791 344.11574 4368.2788 344.27758 4361.5684 344.57812 C 4257.7059 349.23001 4159.1241 386.73734 4077.5781 446.89844 C 3996.2743 506.88096 3934.4672 587.14876 3892.9434 675.26562 C 3851.5324 763.14323 3831.0772 856.45048 3823.2051 947.625 A 100.01 100.01 0 0 0 3823.2051 947.62695 C 3815.3429 1038.6875 3819.8969 1125.9578 3824.3105 1208.5586 L 3826.377 1247.2305 L 3559.5742 1246.0469 C 3596.2019 1167.7965 3605.9973 1079.4738 3587.1016 994.99609 C 3567.5379 907.5329 3518.4612 829.37518 3448.1797 773.75977 C 3377.8981 718.14434 3290.5518 688.34701 3200.9336 689.41211 C 3109.951 690.49343 3022.1064 723.31996 2952.7129 782.17188 C 2883.3194 841.02378 2836.5878 922.3293 2820.6641 1011.9141 C 2804.7403 1101.4989 2820.5891 1193.929 2865.4512 1273.0898 C 2910.3128 1352.2506 2981.4651 1413.3401 3066.502 1445.709 A 100.01 100.01 0 1 0 3137.6504 1258.793 C 3097.3337 1243.4466 3060.7225 1212.0114 3039.4531 1174.4805 C 3018.1838 1136.9496 3010.0266 1089.389 3017.5762 1046.916 C 3025.1258 1004.443 3049.1722 962.60727 3082.0723 934.70508 C 3114.9723 906.8029 3160.1749 889.90915 3203.3105 889.39648 C 3245.8347 888.89109 3290.7234 904.20599 3324.0723 930.5957 C 3357.4211 956.98541 3382.6427 997.15056 3391.9258 1038.6523 C 3401.2088 1080.1541 3395.5019 1127.2375 3376.5742 1165.3203 C 3357.6465 1203.4032 3323.5602 1236.3812 3284.873 1254.041 A 100.01 100.01 0 0 0 3325.9551 1445.0117 L 3931.4434 1447.6992 A 100.01 100.01 0 0 0 3948.5879 1446.1934 L 4764.4551 1446.1934 C 4760.6268 1493.7198 4746.1399 1540.6854 4721.9824 1580.5859 C 4686.6384 1638.9632 4628.0829 1686.4752 4561.9961 1711.6172 C 4496.0525 1736.7047 4414.3987 1741.5047 4324.6055 1741.582 L 3667.8906 1742.1484 C 3534.5862 1742.2632 3406.1131 1740.5621 3286.1484 1717.8398 C 3166.3349 1695.1462 3051.7424 1650.867 2955.998 1583.3691 C 2860.3236 1515.9207 2781.3831 1423.6162 2730.8203 1318.7969 C 2680.1793 1213.8157 2656.6756 1094.3912 2661.7676 976.5918 C 2669.2454 803.59848 2739.6538 631.5522 2855.6016 502.94922 A 100.01 100.01 0 0 0 2784.1406 334.94531 z M 4382.3301 544.10352 C 4441.5712 543.97119 4503.1804 562.48084 4555.2012 595.40625 C 4610.9814 630.71115 4658.4597 683.65015 4691.8926 744.93945 C 4725.4661 806.48648 4746.2371 878.10203 4756.6973 953.2832 C 4767.1749 1028.5893 4767.5904 1109.3199 4767.3047 1194.1758 L 4767.1289 1246.1934 L 4026.6074 1246.1934 L 4024.0254 1197.8887 C 4019.6452 1115.9135 4016.148 1037.9695 4022.4629 964.83008 C 4028.768 891.80468 4045.0194 821.72868 4073.8633 760.51953 C 4102.5945 699.54967 4144.9945 645.70157 4196.3145 607.83984 C 4247.3925 570.1567 4309.7342 547.10132 4370.5176 544.37891 C 4374.4424 544.20312 4378.3807 544.11234 4382.3301 544.10352 z "
       transform="translate(0,-1048)"
       id="path4139-0-3-5-0-8-6" />
  </g>
</svg>
