<?xml version="1.0" encoding="UTF-8" standalone="no"?>
<!-- Created with Inkscape (http://www.inkscape.org/) -->

<svg
   xmlns:dc="http://purl.org/dc/elements/1.1/"
   xmlns:cc="http://creativecommons.org/ns#"
   xmlns:rdf="http://www.w3.org/1999/02/22-rdf-syntax-ns#"
   xmlns:svg="http://www.w3.org/2000/svg"
   xmlns="http://www.w3.org/2000/svg"
   xmlns:sodipodi="http://sodipodi.sourceforge.net/DTD/sodipodi-0.dtd"
   xmlns:inkscape="http://www.inkscape.org/namespaces/inkscape"
   width="2000"
   height="2048"
   id="svg2992"
   version="1.1"
   inkscape:version="0.91 r13725"
   sodipodi:docname="ബ.svg">
  <defs
     id="defs5498">
    <inkscape:path-effect
       effect="spiro"
       id="path-effect4186"
       is_visible="true" />
    <inkscape:path-effect
       is_visible="true"
       id="path-effect3846"
       effect="spiro" />
    <inkscape:path-effect
       is_visible="true"
       id="path-effect3801"
       effect="spiro" />
    <inkscape:path-effect
       is_visible="true"
       id="path-effect4372-5-0"
       effect="spiro" />
    <inkscape:path-effect
       is_visible="true"
       id="path-effect4372-5-0-5"
       effect="spiro" />
    <inkscape:path-effect
       is_visible="true"
       id="path-effect4372-5-0-53"
       effect="spiro" />
    <inkscape:path-effect
       is_visible="true"
       id="path-effect3846-9"
       effect="spiro" />
    <inkscape:path-effect
       is_visible="true"
       id="path-effect3801-3"
       effect="spiro" />
    <inkscape:path-effect
       is_visible="true"
       id="path-effect4372-5-0-50"
       effect="spiro" />
    <inkscape:path-effect
       is_visible="true"
       id="path-effect4372-5-0-5-8"
       effect="spiro" />
    <inkscape:path-effect
       is_visible="true"
       id="path-effect4372-5-0-53-2"
       effect="spiro" />
    <inkscape:path-effect
       is_visible="true"
       id="path-effect4372-5-0-50-1"
       effect="spiro" />
    <inkscape:path-effect
       is_visible="true"
       id="path-effect4372-5-0-50-1-0"
       effect="spiro" />
    <inkscape:path-effect
       is_visible="true"
       id="path-effect4372-5-0-50-1-0-3"
       effect="spiro" />
    <inkscape:path-effect
       is_visible="true"
       id="path-effect4372-5-0-50-1-0-3-4"
       effect="spiro" />
    <inkscape:path-effect
       is_visible="true"
       id="path-effect4372-5-0-50-1-0-3-4-0"
       effect="spiro" />
    <inkscape:path-effect
       is_visible="true"
       id="path-effect4372-5-0-50-1-0-3-4-2"
       effect="spiro" />
    <inkscape:path-effect
       is_visible="true"
       id="path-effect4372-5-0-50-1-0-3-4-4"
       effect="spiro" />
    <inkscape:path-effect
       is_visible="true"
       id="path-effect4372-5-0-50-1-0-3-4-4-4"
       effect="spiro" />
    <inkscape:path-effect
       is_visible="true"
       id="path-effect4372-5-0-50-1-0-3-4-4-4-6"
       effect="spiro" />
    <inkscape:path-effect
       is_visible="true"
       id="path-effect4372-5-0-50-1-0-3-4-4-4-8"
       effect="spiro" />
    <inkscape:path-effect
       is_visible="true"
       id="path-effect4372-5-0-50-1-0-3-4-20"
       effect="spiro" />
    <inkscape:path-effect
       is_visible="true"
       id="path-effect4372-5-0-50-1-0-3-4-8"
       effect="spiro" />
  </defs>
  <sodipodi:namedview
     inkscape:window-height="871"
     inkscape:window-width="1600"
     inkscape:pageshadow="2"
     inkscape:pageopacity="0.0"
     borderopacity="1.0"
     bordercolor="#666666"
     pagecolor="#ffffff"
     id="base"
     showgrid="true"
     showguides="true"
     inkscape:guide-bbox="true"
     inkscape:zoom="0.227"
     inkscape:cx="3194.7465"
     inkscape:cy="898.31419"
     inkscape:window-x="1600"
     inkscape:window-y="0"
     inkscape:current-layer="layer1-2"
     inkscape:window-maximized="1">
    <sodipodi:guide
       orientation="horizontal"
       position="0,600"
       id="guide5596" />
    <inkscape:grid
       type="xygrid"
       id="grid3769"
       empspacing="3"
       visible="true"
       enabled="true"
       snapvisiblegridlinesonly="true"
       spacingx="4px"
       units="px"
       dotted="true"
       spacingy="4px" />
    <sodipodi:guide
       orientation="0,1"
       position="-1040,1600"
       id="guide2985" />
    <sodipodi:guide
       position="4176,1710"
       orientation="0,1"
       id="guide4182"
       inkscape:label=""
       inkscape:color="rgb(0,0,255)" />
  </sodipodi:namedview>
  <metadata
     id="metadata5594">
    <rdf:RDF>
      <cc:Work
         rdf:about="">
        <dc:format>image/svg+xml</dc:format>
        <dc:type
           rdf:resource="http://purl.org/dc/dcmitype/StillImage" />
        <dc:title />
      </cc:Work>
    </rdf:RDF>
  </metadata>
  <g
     inkscape:label="Layer 1"
     inkscape:groupmode="layer"
     id="layer1"
     transform="translate(0,1048)">
    <g
       id="layer1-2"
       inkscape:label="Layer 1"
       transform="translate(438.61575,-225.08338)">
      <path
         sodipodi:nodetypes="caaaacccaaccc"
         inkscape:connector-curvature="0"
         inkscape:original-d="m -129.51916,414.0844 c 0,0 324.58863,-356.676518 460.65684,-247.68125 102.98326,82.49308 22.02062,352.74645 -106.8334,381.1595 C 24.269846,591.67139 -196.07781,284.22449 -175.01855,80.470068 -152.44932,-137.89371 128.6269,-350.68262 346.27247,-322.0031 565.89144,-293.06354 761.82144,-144.236 749.1304,206.5188 l 1.32654,371.4525 0.21836,-370.6674 c 11.14614,-279.539901 149.155,-502.97493 359.6418,-522.24829 217.1297,-19.88161 458.7125,244.393885 462.6606,462.39609 3.5251,194.645 -397.8703,427.5408 -397.8703,427.5408 l 843.1237,3.0447 0.8149,-867.30986"
         inkscape:path-effect="#path-effect4372-5-0-50-1-0-3-4"
         id="path4370-9-0-6-5-7-0"
         d="M -129.51916,414.0844 C -153.36453,354.6928 -154.52224,286.50985 -132.70693,226.34295 -110.89162,166.17606 -66.304198,114.57937 -9.9356817,84.271725 46.432835,53.964078 114.06328,45.224609 176.28444,60.207638 238.50559,75.190667 294.74438,113.7582 331.13768,166.40315 374.07365,228.51244 388.34806,309.82822 368.25789,382.61178 348.16771,455.39534 293.83354,518.12215 224.30428,547.56265 165.83332,572.32077 98.337575,573.5362 37.95594,553.89248 -22.425694,534.24876 -75.541365,494.39329 -113.912,443.80167 c -38.37063,-50.59162 -62.23594,-111.56452 -71.67228,-174.35603 -9.43634,-62.79151 -4.70498,-127.3426 10.56573,-188.975572 28.61401,-115.486888 95.296455,-221.704988 188.835415,-295.233518 93.538955,-73.52854 213.634715,-113.3698 332.455605,-107.23965 62.32971,3.21568 124.22053,18.93977 179.504,47.90649 55.28347,28.96672 103.5474,71.24028 139.38567,122.33775 35.83826,51.09747 58.91902,110.548815 70.87943,171.804685 11.96041,61.25587 12.86594,124.060775 13.08883,186.472975 l 1.32654,371.4525 0.21836,-370.6674 c 0.0347,-58.92459 0.58289,-118.145767 10.45453,-176.237579 9.87165,-58.091811 29.1281,-114.928244 60.01824,-165.107001 30.89013,-50.17875 73.24917,-93.33677 123.23975,-124.53051 49.99058,-31.19375 107.31108,-50.37185 165.92928,-56.3732 123.3331,-12.62687 250.7981,35.16017 337.7347,123.54864 86.9366,88.38846 132.4795,215.099992 124.9259,338.84745 -6.4264,105.28048 -50.4369,207.87988 -122.2926,285.0941 -71.8557,77.21421 -171.0304,128.4778 -275.5777,142.4467 l 843.1237,3.0447 0.8149,-867.30986"
         style="fill:none;fill-rule:evenodd;stroke:#000000;stroke-width:140;stroke-linecap:round;stroke-linejoin:round;stroke-miterlimit:4;stroke-dasharray:none;stroke-opacity:1" />
      <path
         style="color:#000000;font-style:normal;font-variant:normal;font-weight:normal;font-stretch:normal;font-size:medium;line-height:normal;font-family:sans-serif;text-indent:0;text-align:start;text-decoration:none;text-decoration-line:none;text-decoration-style:solid;text-decoration-color:#000000;letter-spacing:normal;word-spacing:normal;text-transform:none;direction:ltr;block-progression:tb;writing-mode:lr-tb;baseline-shift:baseline;text-anchor:start;white-space:normal;clip-rule:nonzero;display:inline;overflow:visible;visibility:visible;opacity:1;isolation:auto;mix-blend-mode:normal;color-interpolation:sRGB;color-interpolation-filters:linearRGB;solid-color:#000000;solid-opacity:1;fill:#000000;fill-opacity:1;fill-rule:evenodd;stroke:none;stroke-width:140;stroke-linecap:round;stroke-linejoin:round;stroke-miterlimit:4;stroke-dasharray:none;stroke-dashoffset:0;stroke-opacity:1;color-rendering:auto;image-rendering:auto;shape-rendering:auto;text-rendering:auto;enable-background:accumulate"
         d="M 278.22852,845.17773 C 150.18186,844.63938 24.634612,889.32296 -75.458984,968.00391 -182.0407,1051.7851 -256.67065,1171.0322 -288.98047,1301.4355 c -17.2029,69.4315 -22.83696,143.0509 -11.8418,216.2149 11.02433,73.3582 38.83144,145.2191 85.1211,206.2519 46.46974,61.2704 110.60085,109.8326 185.986326,134.3575 75.782916,24.6541 159.772324,23.5415 235.296874,-8.4375 90.3464,-38.2551 158.17806,-116.741 184.13672,-210.7852 25.91107,-93.8717 8.04498,-194.9904 -47.01563,-274.6387 -46.48136,-67.2379 -118.2061,-119.6233 -196.04687,-134.4453 -208.24997,-39.6539 -299.04079,121.367 -299.04079,121.367 0,0 18.79082,-161.0209 163.445087,-273.2498 80.711004,-62.619 184.778013,-97.56627 285.589843,-92.36522 52.98495,2.73358 105.1394,16.17192 150.62305,40.00392 45.31926,23.7458 85.26935,58.7589 114.56445,100.5273 29.29429,41.7672 49.13933,92.0328 59.48633,145.0254 10.36321,53.0758 11.56993,111.4058 11.79101,173.3086 l 1.32618,371.4512 c 0.59495,38.2753 31.82224,68.9754 70.10205,68.9188 38.27982,-0.057 69.41619,-30.849 69.89795,-69.1258 l 0,-0.293 0.21875,-370.375 c 0.0345,-58.5181 0.83785,-113.7854 9.46484,-164.5527 8.61616,-50.7037 25.28921,-98.9933 50.61719,-140.1368 25.30719,-41.1097 60.23131,-76.5955 100.6875,-101.8398 40.5342,-25.293 87.81531,-41.19165 136.00191,-46.12501 100.671,-10.3067 208.9042,30.00391 280.6993,102.99801 72.0539,73.2572 111.2949,181.7284 104.9609,285.4961 -5.4107,88.6415 -43.1668,176.661 -103.666,241.6719 -60.4993,65.0108 -145.5794,108.9888 -233.6035,120.75 -36.4411,4.9233 -62.862,37.201 -60.4879,73.8964 2.374,36.6954 32.7337,65.2997 69.5054,65.4864 l 843.1231,3.0449 c 38.7307,0.1355 70.2115,-31.2026 70.2519,-69.9336 l 0.8164,-867.31055 c 0.5875,-39.04575 -30.8835,-71.02367 -69.9336,-71.06017 -39.0502,-0.0365 -70.5809,31.88253 -70.0664,70.92931 l -0.75,797.12111 -472.3398,-1.7051 c 8.918,-8.3274 17.6356,-16.885 25.9727,-25.8437 83.2121,-89.4176 133.4759,-206.5981 140.9179,-328.5176 8.7732,-143.7273 -43.0713,-288.6777 -144.8906,-392.19729 -102.0781,-103.78289 -248.7742,-159.04662 -394.7695,-144.09961 -69.04974,7.06932 -136.41047,29.5286 -195.85745,66.62305 -59.52438,37.14304 -109.32016,87.97325 -145.79297,147.22075 -4.38194,7.1181 -8.52775,14.3352 -12.49414,21.621 -8.07173,-14.6378 -16.84976,-28.9757 -26.57226,-42.8378 C 634.07366,985.42105 577.49766,935.88881 512.25,901.70117 447.16671,867.59966 375.53773,849.58843 303.86328,845.89062 c -8.55187,-0.4412 -17.09832,-0.677 -25.63476,-0.71289 z M 61.613281,1361.1172 c 17.695412,-0.7265 35.402403,0.8841 52.267579,4.9453 44.97374,10.8298 87.35492,39.8952 113.66016,77.9473 30.81133,44.5703 41.49388,106.082 27.2246,157.7773 -14.2217,51.523 -55.05935,98.4912 -103.77148,119.1172 -41.41735,17.5372 -92.4181,18.8559 -137.398437,4.2227 -45.377773,-14.7626 -87.478482,-45.9113 -117.750003,-85.8243 -1.2624,-1.6644 -2.39694,-3.4445 -3.62304,-5.1425 -0.75592,-2.8411 -1.69007,-5.6318 -2.79688,-8.3555 -17.23555,-42.9285 -18.10804,-94.3119 -2.33984,-137.8008 15.768204,-43.4889 49.367951,-82.3709 90.111326,-104.2773 25.4646018,-13.6916 54.923662,-21.3985 84.416015,-22.6094 z"
         id="path4370-9-0-6-5-7-0-4"
         inkscape:connector-curvature="0"
         sodipodi:nodetypes="sssssssssscsssssscsccsssssssscsccccscccssssssccssssssssscccsss" />
      <path
         sodipodi:nodetypes="caaaacccaaccc"
         inkscape:connector-curvature="0"
         inkscape:original-d="m -3129.9825,441.60057 c 0,0 342.4548,-407.646329 495.3256,-292.0302 119.6845,90.51738 32.2887,403.81588 -114.4097,435.39692 -221.3361,47.64895 -453.7164,-302.79565 -427.642,-527.696118 27.1049,-233.789142 325.1793,-463.093702 558.2599,-432.289522 235.1937,31.08348 445.0187,190.93662 431.4277,567.67632 l 1.4206,398.97072 0.2338,-398.12752 c 11.9366,-300.249 159.7327,-540.2367 385.1467,-560.93789 232.528,-21.35449 491.2433,262.49929 495.4715,496.65169 3.7751,209.0648 -426.0865,459.21422 -426.0865,459.21422 l 902.9161,3.2703 0.8727,-931.56264"
         inkscape:path-effect="#path-effect4372-5-0-50-1-0-3-4-4-4"
         id="path4370-9-0-6-5-7-0-2-9"
         d="m -3129.9825,441.60057 c -27.288,-64.056 -30.4366,-138.06398 -8.6879,-204.20625 21.7487,-66.14226 68.2042,-123.83952 128.1824,-159.200953 59.9781,-35.361431 132.9534,-48.077326 201.3569,-35.086288 68.4035,12.991038 131.6361,51.575229 174.4742,106.463291 53.5579,68.62323 73.7052,162.43126 51.9434,246.71665 -21.7617,84.28539 -85.299,156.93397 -166.3531,188.68027 -65.2241,25.54618 -139.7148,24.74269 -205.6696,1.14708 -65.9549,-23.59561 -123.2349,-69.24881 -163.9867,-126.22322 -40.7518,-56.9744 -65.2615,-124.88743 -74.0018,-194.3885 -8.7403,-69.50108 -2.0028,-140.54019 16.0161,-208.231478 32.7317,-122.962514 103.8582,-236.151532 203.4894,-315.301832 99.6312,-79.15029 227.6707,-123.05307 354.7705,-116.98769 66.9034,3.19273 133.358,20.09281 192.6294,51.28843 59.2714,31.19561 110.9213,76.74237 149.2171,131.6941 38.2958,54.95173 62.8976,118.807366 75.641,184.5635025 12.7434,65.7561365 13.7017,133.1511375 13.9402,200.1302875 l 1.4206,398.97072 0.2338,-398.12752 c 0.037,-63.21406 0.6201,-126.743706 11.1645,-189.0721417 10.5444,-62.3284353 31.1163,-123.3246383 64.1546,-177.2179583 33.0383,-53.89331 78.3717,-100.29733 131.929,-133.87754 53.5573,-33.58022 115.0189,-54.27724 177.8986,-60.77025 132.307,-13.66212 269.0662,37.82221 362.146,132.83757 93.0799,95.01537 141.5997,231.0612604 133.3255,363.81412 -7.0332,112.84296 -54.178,222.77762 -131.0794,305.65806 -76.9015,82.88045 -183.0053,138.1093 -295.0071,153.55616 l 902.9161,3.2703 0.8727,-931.56264"
         style="fill:none;fill-rule:evenodd;stroke:#000000;stroke-width:70;stroke-linecap:round;stroke-linejoin:round;stroke-miterlimit:4;stroke-dasharray:none;stroke-opacity:1" />
      <path
         style="color:#000000;font-style:normal;font-variant:normal;font-weight:normal;font-stretch:normal;font-size:medium;line-height:normal;font-family:sans-serif;text-indent:0;text-align:start;text-decoration:none;text-decoration-line:none;text-decoration-style:solid;text-decoration-color:#000000;letter-spacing:normal;word-spacing:normal;text-transform:none;direction:ltr;block-progression:tb;writing-mode:lr-tb;baseline-shift:baseline;text-anchor:start;white-space:normal;clip-rule:nonzero;display:inline;overflow:visible;visibility:visible;opacity:1;isolation:auto;mix-blend-mode:normal;color-interpolation:sRGB;color-interpolation-filters:linearRGB;solid-color:#000000;solid-opacity:1;fill:#000000;fill-opacity:1;fill-rule:evenodd;stroke:none;stroke-width:70;stroke-linecap:round;stroke-linejoin:round;stroke-miterlimit:4;stroke-dasharray:none;stroke-dashoffset:0;stroke-opacity:1;color-rendering:auto;image-rendering:auto;shape-rendering:auto;text-rendering:auto;enable-background:accumulate"
         d="m -3618.3848,1065.9336 c -127.5778,0.085 -253.1779,46.0982 -352.6757,125.1426 -106.0038,84.2128 -180.9406,203.7204 -215.5411,333.7031 -19.0268,71.4777 -26.3064,146.9616 -16.9199,221.6016 9.3989,74.7375 35.7147,148.1051 80.2598,210.3828 44.6333,62.401 107.281,112.5626 180.666,138.8164 73.5873,26.3261 156.3406,27.4255 230.2227,-1.5117 92.154,-36.0938 162.8113,-116.9831 187.4785,-212.5215 24.6405,-95.4347 2.2148,-199.537 -58.2422,-277 -48.2214,-61.7857 -118.5357,-104.691 -195.5352,-119.3145 -76.9994,-14.6235 -158.1468,-0.4828 -225.6621,39.3223 -58.9749,34.7699 -105.8437,88.1252 -133.0762,150.6894 0.48,-44.3679 6.8928,-89.0304 18.4532,-132.4589 30.8629,-115.9423 98.1788,-222.8127 191.4375,-296.9004 93.1314,-73.9867 213.3825,-115.0604 331.332,-109.4317 62.1316,2.965 123.6558,18.7005 177.9961,47.3008 54.2622,28.5593 101.7622,70.4488 136.8047,120.7324 35.0441,50.2857 58.0463,109.56 69.9941,171.211 11.9559,61.6925 13.0632,126.8667 13.3008,193.5957 l 1.4219,398.8261 0,0.1446 a 35.0035,35.0035 0 0 0 69.998,-0.1035 l 0,-0.1446 0.2344,-397.9824 c 0.037,-63.0126 0.7465,-124.575 10.6738,-183.2559 9.922,-58.6493 29.2126,-115.3832 59.4844,-164.7636 30.261,-49.3629 71.8902,-91.9224 120.6836,-122.5157 48.8307,-30.6167 105.2618,-49.6575 162.9004,-55.6093 120.9195,-12.4862 248.039,35.2277 333.5488,122.5156 85.6473,87.4283 131.0479,214.352 123.3945,337.1445 -6.5169,104.5597 -50.5463,207.2327 -121.8027,284.0293 -71.2565,76.7966 -170.3525,128.3765 -274.1328,142.6895 a 35.0035,35.0035 0 0 0 4.6563,69.6719 l 902.916,3.2714 a 35.0035,35.0035 0 0 0 35.125,-34.9668 l 0.873,-931.5644 a 35.0035,35.0035 0 1 0 -70,-0.064 l -0.8398,896.4688 -666.2696,-2.4141 c 43.9068,-25.8957 84.1849,-57.9754 118.9844,-95.4804 82.5464,-88.9644 132.806,-206.1608 140.3555,-327.2872 8.895,-142.7132 -42.7436,-287.88 -143.2559,-390.4824 -100.6499,-102.7428 -247.0476,-157.9981 -390.7422,-143.1601 -68.1208,7.0342 -134.6125,29.3877 -192.8964,65.9316 -58.3214,36.5672 -107.3603,86.8146 -143.1758,145.2383 -19.6591,32.0685 -34.9761,66.2418 -46.7637,101.4316 -14.6947,-43.0892 -34.846,-84.5303 -61.2363,-122.3984 -41.5491,-59.62 -97.3503,-108.8222 -161.6309,-142.6543 -64.2025,-33.7909 -135.5885,-51.855 -207.2637,-55.2754 -8.5156,-0.4064 -17.028,-0.6053 -25.5332,-0.5996 z m -218.8691,483.75 c 15.305,0.056 30.5696,1.4807 45.5215,4.3203 59.8075,11.3585 115.9592,45.6208 153.414,93.6113 46.6588,59.7834 64.5296,143.2977 45.6465,216.4336 -18.8563,73.0324 -75.2744,137.4411 -145.2285,164.8399 -56.5661,22.1551 -122.7948,21.6463 -181.1172,0.7812 -58.5246,-20.9374 -110.4383,-62.0811 -147.3086,-113.6289 -2.5263,-3.5321 -4.8198,-7.2333 -7.2129,-10.8633 a 35.0035,35.0035 0 0 0 -0.3144,-0.7832 c -23.8589,-56.0064 -26.6543,-121.726 -7.6387,-179.5566 19.0157,-57.8305 60.268,-109.0667 112.709,-139.9844 39.3307,-23.1883 85.6141,-35.3367 131.5293,-35.1699 z"
         id="path4370-9-0-6-5-7-0-2-9-6"
         inkscape:connector-curvature="0" />
      <path
         style="color:#000000;font-style:normal;font-variant:normal;font-weight:normal;font-stretch:normal;font-size:medium;line-height:normal;font-family:sans-serif;text-indent:0;text-align:start;text-decoration:none;text-decoration-line:none;text-decoration-style:solid;text-decoration-color:#000000;letter-spacing:normal;word-spacing:normal;text-transform:none;direction:ltr;block-progression:tb;writing-mode:lr-tb;baseline-shift:baseline;text-anchor:start;white-space:normal;clip-rule:nonzero;display:inline;overflow:visible;visibility:visible;opacity:1;isolation:auto;mix-blend-mode:normal;color-interpolation:sRGB;color-interpolation-filters:linearRGB;solid-color:#000000;solid-opacity:1;fill:#000000;fill-opacity:1;fill-rule:evenodd;stroke:none;stroke-width:200;stroke-linecap:round;stroke-linejoin:round;stroke-miterlimit:4;stroke-dasharray:none;stroke-dashoffset:0;stroke-opacity:1;color-rendering:auto;image-rendering:auto;shape-rendering:auto;text-rendering:auto;enable-background:accumulate"
         d="m 267.61328,2238.377 c -135.16295,-0.5957 -266.92770289,46.3874 -372.33594,129.246 -112.1715,88.1752 -190.2078,213.0066 -224.10156,349.8028 -18.03101,72.7737 -24.05383,150.2752 -12.39062,227.8847 11.7049,77.8869 41.20318,154.4182 90.88672,219.9258 49.94078,65.8468 118.79182,118.1371 200.607417,144.7539 82.383569,26.8015 173.442243,25.7358 256.275393,-9.3379 99.26802,-42.0326 172.88371,-127.2718 201.35742,-230.4277 28.40576,-102.9095 9.001,-212.5167 -51.25586,-299.6816 -50.80482,-73.4921 -126.84083,-125.6366 -213.70117,-146.5528 -75.941773,-18.287 -155.379342,-11.5483 -226.740236,18.709 27.143021,-45.372 61.982481,-85.8626 102.662109,-117.8398 74.642507,-58.6745 172.410277,-90.7931 265.503907,-85.9903 48.98007,2.527 96.9604,14.984 138.24414,36.6153 41.04903,21.5084 77.43491,53.4134 103.92578,91.1836 26.48983,37.7687 44.948,84.0936 54.60352,133.5449 9.67868,49.5698 11.01602,105.9834 11.23632,167.668 l 1.32618,371.4511 a 100.01,100.01 0 0 0 200,-0.2968 l 0,-0.4161 0.21875,-370.2519 c 0.0344,-58.3439 0.94745,-111.9146 9.04101,-159.543 8.07811,-47.5373 23.64573,-92.1665 46.58985,-129.4375 22.91451,-37.2229 54.64954,-69.4207 91.01953,-92.1152 36.48141,-22.7642 79.45976,-37.2568 123.17576,-41.7324 90.9586,-9.3123 190.95,27.7948 256.2559,94.1914 65.6755,66.7724 102.2176,167.428 96.4062,262.6328 -4.9754,81.5105 -40.0514,163.2816 -95.6836,223.0625 -55.6322,59.7809 -134.6744,100.6361 -215.6172,111.4512 a 100.01,100.01 0 0 0 12.8829,199.1191 l 843.123,3.0449 a 100.01,100.01 0 0 0 100.3613,-99.9062 l 0.8164,-867.3086 a 100.01,100.01 0 1 0 -200,-0.1875 l -0.7226,767.0429 -373.2266,-1.3496 c 75.2959,-91.0056 120.4732,-204.4977 127.6934,-322.7832 9.2958,-152.29 -45.2479,-305.0581 -153.4453,-415.0625 -108.5674,-110.3805 -263.5053,-168.8475 -419.2129,-152.9062 -73.52042,7.527 -145.18385,31.3922 -208.68362,71.0156 -56.84097,35.4683 -105.11126,82.5109 -142.49023,137.1563 -0.66646,-0.965 -1.25155,-1.9665 -1.92578,-2.9278 -45.18565,-64.4248 -105.32781,-117.0689 -174.8457,-153.4941 -69.28319,-36.3021 -145.08239,-55.2909 -220.76172,-59.1953 -9.03426,-0.4661 -18.06141,-0.7181 -27.07227,-0.7578 z M 52.064453,2814.3496 c 15.004084,-0.6352 29.975144,0.6903 44.068359,4.084 37.581998,9.0498 74.024078,34.04 96.005858,65.8379 25.61506,37.0536 34.75898,90.0788 22.98438,132.7363 -11.70664,42.4114 -46.76029,82.6263 -86.55078,99.4746 -34.108753,14.4425 -78.040226,15.8062 -116.419926,3.3203 -38.947675,-12.6707 -76.328415,-40.0894 -103.128906,-75.4257 -0.009,-0.012 -0.0164,-0.025 -0.02539,-0.037 a 100.01,100.01 0 0 0 -2.457031,-6.5097 c -14.402756,-35.8729 -15.153146,-80.0553 -1.976563,-116.3965 13.176587,-36.3412 42.068222,-69.776 76.115235,-88.082 21.2793791,-11.4413 46.377958,-17.9434 71.384765,-19.002 z"
         id="path4370-9-0-6-5-7-0-5"
         inkscape:connector-curvature="0" />
      <path
         style="color:#000000;font-style:normal;font-variant:normal;font-weight:normal;font-stretch:normal;font-size:medium;line-height:normal;font-family:sans-serif;text-indent:0;text-align:start;text-decoration:none;text-decoration-line:none;text-decoration-style:solid;text-decoration-color:#000000;letter-spacing:normal;word-spacing:normal;text-transform:none;direction:ltr;block-progression:tb;writing-mode:lr-tb;baseline-shift:baseline;text-anchor:start;white-space:normal;clip-rule:nonzero;display:inline;overflow:visible;visibility:visible;opacity:1;isolation:auto;mix-blend-mode:normal;color-interpolation:sRGB;color-interpolation-filters:linearRGB;solid-color:#000000;solid-opacity:1;fill:#000000;fill-opacity:1;fill-rule:evenodd;stroke:none;stroke-width:200;stroke-linecap:round;stroke-linejoin:round;stroke-miterlimit:4;stroke-dasharray:none;stroke-dashoffset:0;stroke-opacity:1;color-rendering:auto;image-rendering:auto;shape-rendering:auto;text-rendering:auto;enable-background:accumulate"
         d="m 3396.3809,-480.70117 c -136.9192,-0.92552 -270.0225,47.8558 -375.4707,132.84179 -112.1305,90.37141 -188.7126,217.41591 -221.2579,355.3671925 -17.1006,72.4855465 -22.5771,149.5381575 -10.7089,226.7031275 11.9105,77.4412 41.2769,153.5986 90.6582,218.93164 49.641,65.67651 118.0659,118.04163 199.5527,144.91992 82.066,27.06937 172.9432,26.43572 255.7852,-8.26562 99.6792,-41.75433 173.5773,-127.13016 202.0683,-230.49024 28.4167,-103.08993 8.7706,-212.82336 -51.7344,-299.945312 -50.895,-73.284539 -126.9069,-125.230531 -213.6738,-146.02539 -77.3624,-18.540938 -158.3022,-11.062095 -230.6465,20.710937 27.2637,-48.622845 63.1197,-92.060675 105.461,-126.185545 74.5204,-60.05976 172.9957,-93.19171 266.3222,-88.01758 49.0656,2.72025 97.2524,15.71202 138.6582,38.00391 41.1966,22.17918 77.6254,54.88364 104.1231,93.47265 26.5052,38.5999 44.8627,85.702692 54.4648,135.931643 9.6241,50.343542 10.9263,107.394349 11.1485,169.623047 l 1.3261,371.45312 a 100.01,100.01 0 0 0 200,-0.29882 l 0,-0.41602 0.2188,-370.25 c 0.035,-58.89781 0.9174,-113.113692 8.9609,-161.5058581 l 0,-0.00195 c 8.0294,-48.3040158 23.5097,-93.6981978 46.4688,-131.7831988 22.9246,-38.02804 54.707,-71.00811 91.2402,-94.37696 36.6229,-23.42624 79.8342,-38.47124 123.7246,-43.21875 91.5136,-9.89878 192.7219,28.18823 258.0176,95.99024 65.7561,68.2801 101.3622,170.9081294 94.166,267.560544 -6.0754,81.599166 -41.6376,162.998246 -97.3809,222.898436 -55.7432,59.90016 -134.3797,101.21423 -215.332,113.13281 a 100.01,100.01 0 0 0 14.2051,198.9336 l 843.123,3.04492 a 100.01,100.01 0 0 0 100.3614,-99.91016 l 0.8144,-907.31054 a 100.01,100.01 0 1 0 -199.998,-0.17969 l -0.7266,807.03906 -376.0215,-1.35937 c 75.5803,-90.57739 121.6172,-203.44557 130.4024,-321.43946 11.4288,-153.500084 -41.3076,-308.74242 -149.5547,-421.14453 -108.7075,-112.88021 -265.7074,-173.17476 -423.584,-156.09765 -74.328,8.03987 -146.443,32.93262 -209.9883,73.58007 -56.2149,35.95841 -103.8191,83.16909 -140.6836,137.67188 -0.1747,-0.25554 -0.3247,-0.52205 -0.5,-0.77734 -44.7439,-65.16126 -104.5683,-118.88209 -174.1875,-156.36329 -69.4097,-37.36851 -145.798,-57.34911 -222.3945,-61.5957 -9.1548,-0.50755 -18.2998,-0.78986 -27.4277,-0.85156 z m -215.418,584.48633 c 14.987,-0.64422 29.9426,0.66783 44.0254,4.04296 37.5541,9.00036 73.9855,33.89851 96.0137,65.61719 25.7156,37.02831 34.9478,90.08432 23.1972,132.71289 -11.676,42.35842 -46.7947,82.52483 -86.5312,99.16992 -33.9475,14.22012 -77.6823,15.39344 -115.8653,2.79883 -38.7622,-12.78567 -75.9412,-40.24307 -102.6504,-75.58007 -1.2839,-1.69873 -2.4492,-3.52191 -3.6933,-5.26368 a 100.01,100.01 0 0 0 -0.098,-0.25781 c -14.3111,-35.868 -14.9896,-79.99067 -1.7871,-116.28125 13.2025,-36.29056 42.073,-69.66149 76.086,-87.94922 21.258,-11.42981 46.3243,-17.93606 71.3027,-19.00976 z"
         id="path4370-9-0-6-5-7-0-8"
         inkscape:connector-curvature="0" />
    </g>
  </g>
</svg>
