<?xml version="1.0" encoding="UTF-8" standalone="no"?>
<!-- Created with Inkscape (http://www.inkscape.org/) -->

<svg
   xmlns:dc="http://purl.org/dc/elements/1.1/"
   xmlns:cc="http://creativecommons.org/ns#"
   xmlns:rdf="http://www.w3.org/1999/02/22-rdf-syntax-ns#"
   xmlns:svg="http://www.w3.org/2000/svg"
   xmlns="http://www.w3.org/2000/svg"
   xmlns:sodipodi="http://sodipodi.sourceforge.net/DTD/sodipodi-0.dtd"
   xmlns:inkscape="http://www.inkscape.org/namespaces/inkscape"
   width="2000"
   height="2048"
   id="svg2992"
   version="1.1"
   inkscape:version="0.91 r13725"
   sodipodi:docname="ഭൂ.svg">
  <defs
     id="defs5498">
    <inkscape:path-effect
       effect="spiro"
       id="path-effect4147"
       is_visible="true" />
    <inkscape:path-effect
       effect="spiro"
       id="path-effect4147-4"
       is_visible="true" />
    <inkscape:path-effect
       effect="spiro"
       id="path-effect4142-8"
       is_visible="true" />
    <inkscape:path-effect
       effect="spiro"
       id="path-effect4142-8-1"
       is_visible="true" />
    <inkscape:path-effect
       effect="spiro"
       id="path-effect4147-4-2"
       is_visible="true" />
    <inkscape:path-effect
       effect="spiro"
       id="path-effect4147-4-2-7"
       is_visible="true" />
    <inkscape:path-effect
       effect="spiro"
       id="path-effect4142-8-1-9"
       is_visible="true" />
    <inkscape:path-effect
       effect="spiro"
       id="path-effect4142-8-1-9-9"
       is_visible="true" />
    <inkscape:path-effect
       effect="spiro"
       id="path-effect4147-4-2-7-8"
       is_visible="true" />
    <inkscape:path-effect
       effect="spiro"
       id="path-effect4147-4-2-7-1"
       is_visible="true" />
    <inkscape:path-effect
       effect="spiro"
       id="path-effect4142-8-1-9-2"
       is_visible="true" />
    <inkscape:path-effect
       effect="spiro"
       id="path-effect4147-4-2-5"
       is_visible="true" />
    <inkscape:path-effect
       effect="spiro"
       id="path-effect4142-8-1-6"
       is_visible="true" />
    <inkscape:path-effect
       effect="spiro"
       id="path-effect4147-4-2-57"
       is_visible="true" />
    <inkscape:path-effect
       effect="spiro"
       id="path-effect4142-8-1-4"
       is_visible="true" />
    <inkscape:path-effect
       effect="spiro"
       id="path-effect4147-4-2-0"
       is_visible="true" />
    <inkscape:path-effect
       effect="spiro"
       id="path-effect4142-8-1-0"
       is_visible="true" />
  </defs>
  <sodipodi:namedview
     inkscape:window-height="844"
     inkscape:window-width="1600"
     inkscape:pageshadow="2"
     inkscape:pageopacity="0.0"
     borderopacity="1.0"
     bordercolor="#666666"
     pagecolor="#ffffff"
     id="base"
     showgrid="true"
     showguides="true"
     inkscape:guide-bbox="true"
     inkscape:zoom="0.32102648"
     inkscape:cx="2444.0536"
     inkscape:cy="-498.34096"
     inkscape:window-x="1600"
     inkscape:window-y="0"
     inkscape:current-layer="layer1-6"
     inkscape:window-maximized="1">
    <sodipodi:guide
       orientation="horizontal"
       position="-720,600"
       id="guide5596" />
    <inkscape:grid
       type="xygrid"
       id="grid3769"
       empspacing="3"
       visible="true"
       enabled="true"
       snapvisiblegridlinesonly="true"
       spacingx="4px"
       units="px"
       dotted="true"
       spacingy="4px" />
    <sodipodi:guide
       orientation="0,1"
       position="-1040,1600"
       id="guide2985" />
  </sodipodi:namedview>
  <metadata
     id="metadata5594">
    <rdf:RDF>
      <cc:Work
         rdf:about="">
        <dc:format>image/svg+xml</dc:format>
        <dc:type
           rdf:resource="http://purl.org/dc/dcmitype/StillImage" />
        <dc:title />
      </cc:Work>
    </rdf:RDF>
  </metadata>
  <g
     inkscape:label="Layer 1"
     inkscape:groupmode="layer"
     id="layer1"
     transform="translate(0,1048)">
    <g
       id="layer1-6"
       inkscape:label="Layer 1"
       transform="translate(-101.7566,-5.4279365)">
      <path
         style="fill:none;fill-rule:evenodd;stroke:#000000;stroke-width:140;stroke-linecap:round;stroke-linejoin:round;stroke-miterlimit:4;stroke-dasharray:none;stroke-opacity:1"
         d="m 1374.5432,367.69876 c 31.5806,-1.09472 63.423,6.76385 90.8681,22.42591 27.4451,15.66205 50.4086,39.0794 65.5305,66.82579 15.1219,27.74638 22.3558,59.73642 20.6433,91.28959 -1.7126,31.55316 -12.3663,62.57234 -30.4025,88.51905 -18.1022,26.04178 -43.2983,46.72424 -71.2116,61.78117 -27.9134,15.05693 -58.5298,24.6757 -89.6592,30.74408 -62.2588,12.13675 -126.2449,10.94675 -189.6748,10.60925 l -120.1681,-0.6394 C 945.79417,738.69724 840.27475,736.70498 738.15202,713.72544 636.0293,690.74591 538.03188,646.66512 456.95514,580.45581 375.8784,514.24651 312.65974,426.83929 273.05198,329.94587 233.44422,233.05245 217.06197,127.48318 218.80036,22.821398 222.28525,-186.98964 299.13698,-394.87158 432.96754,-556.49521"
         id="path4145-5-0"
         inkscape:path-effect="#path-effect4147-4-2"
         inkscape:original-d="m 1374.5432,367.69876 c 0,0 185.7396,174.69867 146.6394,269.06034 -46.6258,112.52322 -236.9146,103.73912 -350.5456,103.1345 l -120.1681,-0.6394 C 533.7566,717.42794 256.32178,422.44854 218.80036,22.821398 203.58442,-182.49451 432.96754,-556.49521 432.96754,-556.49521"
         inkscape:connector-curvature="0"
         sodipodi:nodetypes="casccc" />
      <path
         style="fill:none;fill-rule:evenodd;stroke:#000000;stroke-width:140;stroke-linecap:round;stroke-linejoin:round;stroke-miterlimit:4;stroke-dasharray:none;stroke-opacity:1"
         d="M 840.44545,356.85546 C 746.58111,314.28147 668.29779,238.27511 622.97249,145.70797 577.6472,53.140824 565.61404,-55.304779 589.54408,-155.55652 c 29.4386,-123.3291 112.29029,-231.15533 218.97771,-299.67168 106.68743,-68.51635 235.64811,-98.93143 362.38831,-95.24077 76.7577,2.23517 155.3743,17.47494 219.2644,60.07532 31.945,21.30018 59.6924,49.31634 78.7345,82.65672 19.0422,33.34038 29.1347,72.08778 26.5364,110.39486 -1.9427,28.64102 -11.0011,56.86742 -26.7424,80.87352 -15.7414,24.00609 -38.2016,43.68042 -64.3955,55.42621 -27.509,12.33551 -58.1925,15.75307 -88.3374,16.19618 -30.1449,0.44311 -60.3135,-1.92796 -90.4267,-0.47899 -30.1133,1.44897 -60.7094,6.97217 -86.8473,21.99618 -13.0689,7.51201 -24.8742,17.37032 -33.9636,29.395763 -9.0893,12.025445 -15.4047,26.254153 -17.4379,41.190472 -2.3377,17.173828 1.0624,34.936385 8.6867,50.5016149 7.6242,15.5652301 19.3581,28.9624251 33.1892,39.4078271 27.6622,20.890804 62.7791,29.685684 97.3417,32.340273 34.5626,2.654589 69.2823,-0.329849 103.9464,-0.483569 34.664,-0.153721 70.0791,2.704698 101.9589,16.317254 37.5307,16.025475 68.5818,47.492845 82.2908,85.930205 13.709,38.43736 9.2721,82.84801 -11.5657,117.93575 -20.8379,35.08775 -56.8867,59.74293 -96.111,71.00445 -39.2243,11.26152 -80.8276,9.73219 -121.5692,7.38979 l -187.6128,-10.7866"
         id="path4138-3-8-6-2"
         inkscape:connector-curvature="0"
         sodipodi:nodetypes="caaaazasc"
         inkscape:path-effect="#path-effect4142-8-1"
         inkscape:original-d="M 840.44545,356.85546 C 621.84935,321.53966 540.76468,28.261829 589.54408,-155.55652 c 60.08796,-226.43302 347.22239,-402.60909 581.36602,-394.91245 137.1186,4.50729 302.745,117.6758 324.5353,253.1269 8.6807,53.96041 -47.8047,102.99338 -91.1379,136.29973 -88.5366,68.050142 -311.6497,-7.6012 -317.0129,108.299605 -5.3632,115.9008 302.0433,21.906253 345.1229,138.0834 36.8797,99.457205 -57.2935,287.415195 -146.9551,282.260195 l -187.6128,-10.7866" />
      <path
         style="fill:none;fill-rule:evenodd;stroke:#000000;stroke-width:70.00000763;stroke-linecap:round;stroke-linejoin:round;stroke-miterlimit:4;stroke-dasharray:none;stroke-opacity:1"
         d="m -809.77083,389.1448 121.70654,0.89844 c 59.59569,21.39398 107.89573,72.02473 126.45951,132.56178 18.56377,60.53705 6.94973,129.54055 -30.40795,180.66541 -36.91533,50.51949 -95.69256,81.71323 -156.47577,96.55784 -60.7832,14.84461 -124.08077,14.7657 -186.64953,14.43267 l -129.27967,-0.68811 c -119.5961,-0.63657 -240.1002,-3.68634 -356.7329,-30.15224 -116.6327,-26.4659 -228.5025,-75.42072 -324.7268,-146.44551 -185.98,-137.27498 -309.0986,-356.4962 -329.528,-586.747393 -20.4293,-230.251197 62.1683,-467.724897 221.0734,-635.600307"
         id="path4145-5-0-0"
         inkscape:path-effect="#path-effect4147-4-2-7"
         inkscape:original-d="m -809.77083,389.1448 121.70654,0.89844 c 82.32305,66.77261 128.0531,224.378 96.05156,313.22719 -44.40511,123.28651 -220.8784,111.64119 -343.1253,110.99051 l -129.27967,-0.68811 c -212.914,-1.13327 -529.7767,2.44433 -681.4597,-176.59775 -264.4113,-312.1033 -108.4546,-1222.3477 -108.4546,-1222.3477"
         inkscape:connector-curvature="0"
         sodipodi:nodetypes="ccsssac" />
      <path
         style="fill:none;fill-rule:evenodd;stroke:#000000;stroke-width:70.00000763;stroke-linecap:round;stroke-linejoin:round;stroke-miterlimit:4;stroke-dasharray:none;stroke-opacity:1"
         d="m -1284.3659,377.47555 c -114.5398,-26.68265 -217.1278,-101.24992 -277.8571,-201.96373 -60.7294,-100.713809 -78.7987,-226.244962 -48.9403,-339.99822 19.0834,-72.70299 56.8968,-140.06823 106.9423,-196.15168 50.0454,-56.08345 112.1304,-100.99318 179.8676,-133.57484 135.4745,-65.16333 291.0374,-80.28747 440.53267,-64.45189 45.31463,4.80004 90.57239,12.39429 133.68428,27.15303 43.11189,14.75875 84.16445,36.93334 117.14697,68.37549 32.98252,31.44216 57.55264,72.55974 65.27435,117.46888 7.72171,44.90914 -2.42848,93.45342 -30.9436,128.99697 -20.0366,24.97523 -48.37125,42.836 -79.091,51.86506 -31.0828,9.13577 -64.06306,9.45338 -96.40522,7.55928 -32.34216,-1.8941 -64.62364,-5.92742 -97.01373,-5.23124 -32.3901,0.69619 -65.41931,6.42155 -93.4402,22.68293 -14.01044,8.13069 -26.60307,18.85885 -36.19442,31.91288 -9.5913,13.05402 -16.1172,28.469355 -17.9964,44.558769 -2.1193,18.144616 1.7365,36.790802 9.9545,53.105901 8.218,16.3150985 20.68316,30.331165 35.31237,41.272129 29.25841,21.881927 66.21831,31.170559 102.63568,34.111429 36.41738,2.94087 73.02617,0.04383 109.56198,0.13039 36.53582,0.08656 73.82789,3.349123 107.37184,17.829356 39.57997,17.085856 72.29136,50.316106 86.9549,90.855976 14.66353,40.53988 10.4818,87.38024 -10.85303,124.84123 -21.33483,37.46099 -58.64168,64.41656 -99.66939,77.65391 -41.02771,13.23736 -84.97184,13.33244 -128.07528,12.56188 l -201.83817,-3.60824"
         id="path4138-3-8-6-2-9"
         inkscape:connector-curvature="0"
         sodipodi:nodetypes="caaaazasc"
         inkscape:path-effect="#path-effect4142-8-1-9"
         inkscape:original-d="m -1284.3659,377.47555 c -235.1708,-38.00589 -382.1918,-338.395553 -326.7974,-541.96195 72.424,-266.14725 456.5395,-446.15111 727.34257,-394.17841 145.7413,27.97081 306.9969,195.16236 285.162,341.99437 -4.6382,31.1906 -50.4993,38.58509 -79.091,51.86506 -107.5757,49.96571 -335.28007,-23.24662 -341.04997,101.482619 -5.7699,124.729248 318.12956,24.01137 364.83637,146.449205 40.5649,106.337356 -55.03874,307.639976 -151.6428,305.912996 l -201.83817,-3.60824" />
      <path
         style="color:#000000;font-style:normal;font-variant:normal;font-weight:normal;font-stretch:normal;font-size:medium;line-height:normal;font-family:sans-serif;text-indent:0;text-align:start;text-decoration:none;text-decoration-line:none;text-decoration-style:solid;text-decoration-color:#000000;letter-spacing:normal;word-spacing:normal;text-transform:none;direction:ltr;block-progression:tb;writing-mode:lr-tb;baseline-shift:baseline;text-anchor:start;white-space:normal;clip-rule:nonzero;display:inline;overflow:visible;visibility:visible;opacity:1;isolation:auto;mix-blend-mode:normal;color-interpolation:sRGB;color-interpolation-filters:linearRGB;solid-color:#000000;solid-opacity:1;fill:#000000;fill-opacity:1;fill-rule:evenodd;stroke:none;stroke-width:70.00000763;stroke-linecap:round;stroke-linejoin:round;stroke-miterlimit:4;stroke-dasharray:none;stroke-dashoffset:0;stroke-opacity:1;color-rendering:auto;image-rendering:auto;shape-rendering:auto;text-rendering:auto;enable-background:accumulate"
         d="M -3010.2461 2101.8691 A 35.003504 35.003504 0 0 0 -3037.5059 2113.1387 C -3203.5765 2288.5841 -3289.374 2535.2586 -3268.0234 2775.8926 C -3246.6728 3016.5265 -3118.7844 3244.2418 -2924.418 3387.707 C -2823.948 3461.8656 -2707.6582 3512.6668 -2586.6523 3540.125 C -2465.5118 3567.6138 -2342.4254 3570.5054 -2222.3594 3571.1445 L -2093.0801 3571.832 C -2030.4151 3572.1655 -1964.1927 3572.5805 -1897.9414 3556.4004 C -1831.2321 3540.1085 -1764.8174 3505.7597 -1721.5098 3446.4922 C -1677.3398 3386.0445 -1663.9495 3306.4922 -1685.8984 3234.916 C -1701.3669 3184.4731 -1733.6059 3140.6089 -1775.9492 3110.2383 C -1747.326 3092.9009 -1722.4239 3068.9543 -1705.2031 3038.7168 C -1678.6323 2992.0625 -1673.5311 2935.3009 -1691.8516 2884.6504 C -1710.0973 2834.2068 -1749.5495 2794.4139 -1797.8477 2773.5645 C -1838.3016 2756.1014 -1880.4453 2752.9609 -1919.0078 2752.8691 C -1957.4489 2752.7781 -1993.1324 2755.493 -2025.8359 2752.8516 C -2058.2532 2750.2338 -2088.5844 2741.86 -2110.3262 2725.5996 C -2121.1107 2717.5341 -2129.8976 2707.4197 -2135.3418 2696.6113 C -2140.7187 2685.9366 -2143.0222 2673.8521 -2141.791 2663.3105 C -2140.6961 2653.9362 -2136.6455 2643.9778 -2130.3535 2635.4141 C -2123.9994 2626.7661 -2115.1219 2619.0407 -2104.7969 2613.0488 C -2084.0184 2600.9903 -2056.9514 2595.7064 -2028.1719 2595.0879 C -1999.1848 2594.4649 -1967.8372 2598.2814 -1933.957 2600.2656 C -1900.0005 2602.2542 -1862.9352 2602.3085 -1825.6367 2591.3457 C -1788.5225 2580.4372 -1754.1335 2558.9896 -1729.1152 2527.8047 C -1693.4032 2483.2904 -1681.6732 2425.0833 -1690.9766 2370.9746 C -1700.195 2317.3618 -1728.8664 2270.0709 -1766.5957 2234.1035 C -1804.1282 2198.324 -1849.7227 2173.9803 -1896.5566 2157.9473 C -1943.2889 2141.9492 -1991.158 2134.0518 -2037.8906 2129.1016 C -2076.4771 2125.0142 -2115.5448 2122.905 -2154.6758 2123.1133 C -2272.0688 2123.7383 -2390.0314 2145.2311 -2497.2812 2196.8184 C -2568.8119 2231.2247 -2634.6522 2278.7438 -2688.0918 2338.6309 C -2741.5761 2398.5681 -2782.1535 2470.6498 -2802.7715 2549.1992 C -2835.1156 2672.4223 -2815.7363 2807.0601 -2749.9512 2916.1582 C -2684.1663 3025.2564 -2574.1377 3105.2309 -2450.0625 3134.1348 A 35.003504 35.003504 0 1 0 -2434.1816 3065.9609 C -2539.1861 3041.4996 -2634.3323 2972.3411 -2690.0059 2880.0117 C -2745.6796 2787.6822 -2762.4392 2671.2562 -2735.0664 2566.9727 C -2717.5176 2500.1161 -2682.47 2437.4661 -2635.8633 2385.2363 C -2589.2121 2332.9566 -2530.8816 2290.6576 -2466.9375 2259.9004 C -2338.9884 2198.3568 -2189.9083 2183.3911 -2045.2637 2198.7129 C -2001.3671 2203.3627 -1958.7199 2210.6545 -1919.2285 2224.1738 C -1879.8387 2237.6584 -1843.3291 2257.6648 -1814.8965 2284.7695 C -1786.6609 2311.6865 -1766.19 2346.6305 -1759.9648 2382.8359 C -1753.8248 2418.5456 -1762.3965 2457.4272 -1783.7148 2484 C -1798.7696 2502.7656 -1821.0496 2517.0379 -1845.375 2524.1875 C -1870.2421 2531.4964 -1899.1373 2532.1862 -1929.8652 2530.3867 C -1960.6694 2528.5826 -1993.8827 2524.3342 -2029.6758 2525.1035 C -2065.6766 2525.8772 -2104.6683 2532.0415 -2139.9316 2552.5059 C -2157.6274 2562.7754 -2173.935 2576.5068 -2186.7637 2593.9668 C -2199.6542 2611.5113 -2208.6549 2632.385 -2211.3184 2655.1895 C -2214.3257 2680.9371 -2208.9185 2706.1441 -2197.8594 2728.0996 C -2186.8677 2749.9215 -2170.724 2767.84 -2152.25 2781.6562 C -2115.4749 2809.1598 -2071.888 2819.3612 -2031.4707 2822.625 C -1991.3394 2825.8659 -1953.8042 2822.7872 -1919.1738 2822.8691 C -1884.6646 2822.9511 -1852.2237 2826.3347 -1825.5898 2837.832 C -1794.728 2851.1544 -1768.759 2877.8228 -1757.6777 2908.459 C -1746.6712 2938.8883 -1749.9322 2975.8065 -1766.0312 3004.0742 C -1782.2559 3032.5624 -1812.3189 3054.8624 -1846.0332 3065.7402 C -1880.157 3076.7501 -1920.1093 3077.3792 -1962.7363 3076.6172 L -2164.5742 3073.0098 A 35.003504 35.003504 0 1 0 -2165.8262 3142.998 L -1971.834 3146.4648 A 35.003504 35.003504 0 0 0 -1967.7852 3146.7168 L -1852.5605 3147.5684 C -1806.0971 3166.1469 -1767.4672 3207.6821 -1752.8223 3255.4395 C -1737.6438 3304.9374 -1747.4819 3363.3914 -1778.0273 3405.1934 C -1808.5503 3446.9649 -1859.6917 3475.0031 -1914.5488 3488.4004 C -1969.8639 3501.9096 -2030.2344 3502.1665 -2092.707 3501.834 L -2221.9863 3501.1465 C -2341.1125 3500.5124 -2459.0372 3497.3043 -2571.1621 3471.8613 C -2683.4216 3446.3877 -2790.8691 3399.2776 -2882.8477 3331.3867 C -3060.4413 3200.3018 -3178.7906 2989.5755 -3198.2988 2769.707 C -3217.8069 2549.8384 -3138.4095 2321.5652 -2986.6699 2161.2598 A 35.003504 35.003504 0 0 0 -3010.2461 2101.8691 z "
         transform="translate(101.7566,-1042.5721)"
         id="path4145-5-0-0-7" />
      <path
         style="color:#000000;font-style:normal;font-variant:normal;font-weight:normal;font-stretch:normal;font-size:medium;line-height:normal;font-family:sans-serif;text-indent:0;text-align:start;text-decoration:none;text-decoration-line:none;text-decoration-style:solid;text-decoration-color:#000000;letter-spacing:normal;word-spacing:normal;text-transform:none;direction:ltr;block-progression:tb;writing-mode:lr-tb;baseline-shift:baseline;text-anchor:start;white-space:normal;clip-rule:nonzero;display:inline;overflow:visible;visibility:visible;opacity:1;isolation:auto;mix-blend-mode:normal;color-interpolation:sRGB;color-interpolation-filters:linearRGB;solid-color:#000000;solid-opacity:1;fill:#000000;fill-opacity:1;fill-rule:evenodd;stroke:none;stroke-width:140;stroke-linecap:round;stroke-linejoin:round;stroke-miterlimit:4;stroke-dasharray:none;stroke-dashoffset:0;stroke-opacity:1;color-rendering:auto;image-rendering:auto;shape-rendering:auto;text-rendering:auto;enable-background:accumulate"
         d="M 423.23047 2076.7812 A 70.007 70.007 0 0 0 370.32617 2102.8867 C 226.08645 2277.0811 143.83991 2499.5557 140.08398 2725.6855 C 138.21134 2838.4303 155.74115 2953.3389 199.5293 3060.459 C 243.42936 3167.8528 313.30642 3264.6768 403.95312 3338.7012 C 494.644 3412.7616 602.58798 3460.9619 714.05859 3486.0449 C 825.41131 3511.1014 936.05664 3512.7189 1041.3691 3513.2793 L 1161.5371 3513.9199 C 1224.342 3514.254 1293.0353 3516.0423 1364.9785 3502.0176 C 1401.2827 3494.9406 1438.7031 3483.4726 1474.4766 3464.1758 C 1510.4722 3444.7591 1544.3703 3417.5154 1569.9336 3380.7402 C 1595.5199 3343.9319 1610.3264 3300.8218 1612.7559 3256.0605 C 1615.1853 3211.299 1605.1317 3166.8397 1583.6797 3127.4785 C 1570.0253 3102.4247 1552.125 3080.1372 1530.8809 3061.5117 C 1539.6272 3051.6117 1547.5968 3040.7747 1554.6035 3028.9766 C 1586.4551 2975.3432 1592.9596 2910.7908 1571.9141 2851.7832 C 1551.0308 2793.2305 1506.3217 2748.5356 1451.1797 2724.9902 C 1405.336 2705.415 1360.1454 2702.8791 1321.4219 2703.0508 C 1282.9476 2703.2215 1250.1461 2705.812 1223.1465 2703.7383 C 1196.7448 2701.7105 1175.097 2694.7485 1162.6309 2685.334 C 1156.5765 2680.7617 1152.2425 2675.3291 1150.1191 2670.9941 C 1148.1327 2666.9389 1147.6835 2662.5207 1147.9277 2660.7266 C 1148.1492 2659.0991 1149.3717 2655.5835 1151.8496 2652.3047 C 1154.4553 2648.8577 1158.9351 2644.7924 1164.8535 2641.3906 C 1176.9556 2634.4343 1196.3244 2629.773 1220.1816 2628.625 C 1244.3911 2627.4601 1273.7709 2629.6848 1308.2715 2629.1777 C 1343.0075 2628.6671 1383.386 2625.1731 1424.2227 2606.8613 C 1463.4137 2589.2873 1495.6464 2560.8206 1518.5137 2525.9473 C 1541.2996 2491.1979 1553.8317 2451.6287 1556.5586 2411.4277 C 1560.2007 2357.7303 1546.31 2305.9509 1520.9668 2261.5781 C 1495.7763 2217.4728 1460.2319 2182.0366 1420.2812 2155.3984 C 1340.7502 2102.3689 1248.8418 2086.0579 1164.2207 2083.5938 C 1155.514 2083.3403 1146.7946 2083.2312 1138.0684 2083.2695 L 1138.0684 2083.2637 C 1007.1762 2083.8387 874.79044 2117.4424 761.96875 2189.8984 C 641.04916 2267.5548 546.91624 2389.0001 512.73047 2532.2168 C 484.92315 2648.7118 498.70785 2772.9522 551.37695 2880.5176 C 604.04606 2988.0829 693.73197 3075.1588 802.80469 3124.6309 A 70.007 70.007 0 1 0 860.63281 2997.1328 C 781.97685 2961.4569 715.09473 2896.5201 677.11328 2818.9512 C 639.13182 2741.3822 628.85152 2648.7311 648.9043 2564.7227 C 673.59574 2461.2812 745.16582 2367.0735 837.62109 2307.6973 C 930.65274 2247.9508 1045.9722 2220.2025 1160.1465 2223.5273 C 1229.0408 2225.5335 1294.3661 2239.7016 1342.6152 2271.873 C 1366.5547 2287.8352 1386.5046 2308.4305 1399.3984 2331.0059 C 1412.1395 2353.3139 1418.4333 2379.0305 1416.8789 2401.9473 C 1415.7203 2419.0283 1410.1362 2435.911 1401.4395 2449.1738 C 1392.824 2462.3127 1380.1363 2473.1936 1366.9395 2479.1113 C 1352.7582 2485.4704 1331.7687 2488.8119 1306.2148 2489.1875 C 1280.4256 2489.5666 1249.4699 2487.0502 1213.4531 2488.7832 C 1177.0837 2490.5333 1135.2595 2496.9181 1095.0859 2520.0098 C 1074.867 2531.6316 1055.7373 2547.2813 1040.1641 2567.8848 C 1024.4641 2588.6565 1013.0538 2613.597 1009.209 2641.8418 C 1004.7778 2674.3954 1011.1303 2705.5028 1024.3926 2732.5781 C 1037.5176 2759.3734 1056.652 2780.7342 1078.2598 2797.0527 C 1121.1181 2829.4198 1169.7043 2840.0467 1212.4277 2843.3281 C 1254.5534 2846.5635 1291.1911 2843.1857 1322.0449 2843.0488 C 1352.6495 2842.9131 1378.2892 2846.0941 1396.2051 2853.7441 C 1416.1245 2862.2496 1433.5161 2880.4905 1440.0508 2898.8125 C 1446.4233 2916.6798 1444.0564 2940.948 1434.2324 2957.4902 C 1424.1418 2974.4812 1403.1015 2990.0326 1378.9902 2996.9551 C 1354.0005 3004.1298 1320.5142 3004.0281 1280.7559 3001.7422 L 1093.1426 2990.957 A 70.007 70.007 0 1 0 1085.1074 3130.7246 L 1272.7207 3141.5117 C 1299.8099 3143.0692 1330.2709 3144.8567 1362.9355 3141.7227 A 70.007 70.007 0 0 0 1368.2422 3141.6836 C 1386.6031 3141.0472 1406.034 3145.8415 1421.9902 3154.9473 C 1437.9468 3164.0532 1451.9603 3178.3432 1460.752 3194.4746 C 1469.5438 3210.6063 1473.9565 3230.1277 1472.9609 3248.4727 C 1471.9652 3266.8176 1465.4645 3285.7468 1454.9785 3300.832 C 1444.3373 3316.1403 1427.8427 3330.2618 1408.0117 3340.959 C 1387.9584 3351.7761 1364.146 3359.544 1338.1914 3364.6035 C 1285.6169 3374.8525 1226.3381 3374.2627 1162.2832 3373.9219 L 1042.1152 3373.2812 C 938.07833 3372.7276 837.68571 3370.3617 744.79297 3349.459 C 652.01814 3328.583 563.96651 3288.6219 492.50391 3230.2637 C 420.99714 3171.8695 364.43655 3093.8793 329.12109 3007.4863 C 293.69372 2920.8194 278.46032 2824.5886 280.06445 2728.0098 C 283.27828 2534.5176 354.73485 2341.2286 478.15625 2192.1758 A 70.007 70.007 0 0 0 423.23047 2076.7812 z "
         transform="translate(101.7566,-1042.5721)"
         id="path4145-5-0-04" />
      <path
         style="color:#000000;font-style:normal;font-variant:normal;font-weight:normal;font-stretch:normal;font-size:medium;line-height:normal;font-family:sans-serif;text-indent:0;text-align:start;text-decoration:none;text-decoration-line:none;text-decoration-style:solid;text-decoration-color:#000000;letter-spacing:normal;word-spacing:normal;text-transform:none;direction:ltr;block-progression:tb;writing-mode:lr-tb;baseline-shift:baseline;text-anchor:start;white-space:normal;clip-rule:nonzero;display:inline;overflow:visible;visibility:visible;opacity:1;isolation:auto;mix-blend-mode:normal;color-interpolation:sRGB;color-interpolation-filters:linearRGB;solid-color:#000000;solid-opacity:1;fill:#000000;fill-opacity:1;fill-rule:evenodd;stroke:none;stroke-width:200;stroke-linecap:round;stroke-linejoin:round;stroke-miterlimit:4;stroke-dasharray:none;stroke-dashoffset:0;stroke-opacity:1;color-rendering:auto;image-rendering:auto;shape-rendering:auto;text-rendering:auto;enable-background:accumulate"
         d="M 2284.4668 421.82031 A 100.01 100.01 0 0 0 2208.8867 459.11523 C 2060.186 638.69724 1975.628 867.42329 1971.7559 1100.5469 C 1969.8257 1216.7559 1987.8501 1335.6691 2033.4297 1447.1719 C 2079.1694 1559.0658 2151.8983 1659.9231 2246.6465 1737.2969 C 2341.4577 1814.7221 2453.6638 1864.6894 2569.1406 1890.6738 C 2684.449 1916.6204 2797.2929 1918.0788 2902.8789 1918.6406 L 3023.0469 1919.2793 C 3085.584 1919.612 3156.2952 1921.6579 3232.3887 1906.8242 C 3270.9104 1899.3148 3311.2466 1887.0534 3350.3887 1865.9395 C 3389.8484 1844.6542 3427.4755 1814.5979 3456.2363 1773.2227 C 3485.0584 1731.7595 3501.6442 1683.4689 3504.3809 1633.0469 C 3507.1175 1582.6248 3495.8544 1532.8213 3471.6895 1488.4824 C 3460.9081 1468.7003 3447.8148 1450.4913 3432.7305 1434.1621 C 3435.9743 1429.4768 3439.099 1424.6529 3442.0664 1419.6562 C 3478.6384 1358.0747 3486.0296 1284.8878 3461.8398 1217.0645 C 3437.8818 1149.8909 3387.3186 1099.53 3324.6289 1072.7617 C 3272.8006 1050.6312 3223.4202 1048.2327 3182.957 1048.4121 C 3142.8494 1048.59 3110.8715 1051.0122 3087.1133 1049.1875 C 3069.2939 1047.8189 3055.9036 1043.7885 3047.9551 1039.9434 C 3055.6257 1037.2516 3067.6185 1034.7015 3083.293 1033.9473 C 3104.9726 1032.9041 3134.0154 1035.0639 3170.3828 1034.5293 C 3207.0862 1033.9898 3251.6173 1030.465 3298.166 1009.5918 C 3342.9272 989.5201 3379.3483 957.28451 3405.2695 917.75391 C 3431.0746 878.40024 3445.0934 833.96784 3448.1562 788.8125 C 3452.2458 728.51927 3436.7274 671.15564 3408.6836 622.05469 C 3380.8582 573.33573 3341.9735 534.71876 3298.5918 505.79297 C 3212.3574 448.29397 3114.7531 431.52323 3026.7617 428.96094 C 3017.7192 428.69762 3008.6613 428.58407 2999.5957 428.62305 L 2999.5938 428.62305 C 2863.6011 429.20846 2725.7336 464.03645 2607.4258 540.01562 C 2480.4068 621.58928 2381.4391 748.87333 2345.2188 900.61328 C 2315.7499 1024.0697 2330.287 1155.0771 2386.1035 1269.0703 C 2441.92 1383.0634 2536.4915 1474.8841 2652.082 1527.3125 A 100.01 100.01 0 1 0 2734.6953 1345.1719 C 2662.5572 1312.4522 2600.5607 1252.2603 2565.7266 1181.1191 C 2530.8925 1109.978 2521.3628 1024.0959 2539.7539 947.04883 C 2562.4108 852.1306 2629.1462 763.75983 2715.502 708.30078 C 2802.6812 652.3129 2912.1523 625.70708 3020.9414 628.875 C 3086.4654 630.78305 3146.0948 644.49355 3187.6406 672.19531 C 3208.1491 685.86988 3224.7568 703.28429 3235.0156 721.24609 C 3245.0562 738.8259 3249.7243 758.95642 3248.6172 775.27734 C 3247.7947 787.40404 3243.6971 799.42545 3238.0195 808.08398 C 3232.458 816.56556 3223.9586 823.67973 3216.332 827.09961 C 3207.8627 830.89742 3191.0278 834.20602 3167.4414 834.55273 C 3143.5189 834.90437 3112.2246 832.32295 3073.6777 834.17773 C 3034.6271 836.05674 2987.9917 842.81008 2941.8027 869.35938 C 2918.5196 882.74254 2896.2485 900.87625 2877.8965 925.15625 C 2859.3632 949.67646 2845.7697 979.20774 2841.1484 1013.1562 C 2835.8201 1052.3011 2843.4388 1089.1268 2859.1172 1121.1348 C 2874.5997 1152.7431 2896.9051 1177.5181 2921.8457 1196.3535 C 2971.2167 1233.639 3025.574 1245.0496 3071.7949 1248.5996 C 3117.162 1252.084 3154.6212 1248.5397 3183.8418 1248.4102 C 3212.7066 1248.2822 3234.1565 1251.6007 3246.0879 1256.6953 C 3258.4595 1261.978 3270.0009 1274.5508 3273.4609 1284.252 C 3276.6891 1293.3033 3275.2053 1308.9374 3270.1016 1317.5312 C 3264.6171 1326.7664 3250.0113 1338.4176 3232.377 1343.4805 C 3213.4878 1348.9037 3183.4796 1349.414 3144.1426 1347.1523 L 2956.5293 1336.3672 A 100.01 100.01 0 1 0 2945.0508 1536.0371 L 3132.6641 1546.8223 C 3159.8345 1548.3844 3191.6042 1550.4141 3226.7051 1547.084 A 100.01 100.01 0 0 0 3230.9492 1547.0254 C 3243.6443 1546.5853 3257.7565 1550.0693 3268.7891 1556.3652 C 3279.8218 1562.6613 3289.9993 1573.0377 3296.0781 1584.1914 C 3302.157 1595.3453 3305.3622 1609.5228 3304.6738 1622.207 C 3303.9853 1634.8913 3299.2641 1648.6381 3292.0137 1659.0684 C 3284.5701 1669.7767 3271.8044 1681.0874 3255.4375 1689.916 C 3238.7528 1698.916 3217.8581 1705.8922 3194.1211 1710.5195 C 3145.697 1719.9593 3088.434 1719.6235 3024.1113 1719.2812 L 2903.9434 1718.6426 C 2800.18 1718.0905 2701.9841 1715.5653 2613.0469 1695.5527 C 2524.2783 1675.5781 2440.4906 1637.382 2373.1484 1582.3887 C 2305.743 1527.3438 2252.0345 1453.3871 2218.5586 1371.4941 C 2184.9228 1289.2101 2170.1819 1196.9837 2171.7285 1103.8691 C 2174.8262 917.37067 2243.9713 730.3352 2362.9316 586.66992 A 100.01 100.01 0 0 0 2284.4668 421.82031 z "
         transform="translate(101.7566,-1042.5721)"
         id="path4145-5-0-4" />
    </g>
  </g>
</svg>
