<?xml version="1.0" encoding="UTF-8" standalone="no"?>
<!-- Created with Inkscape (http://www.inkscape.org/) -->

<svg
   xmlns:dc="http://purl.org/dc/elements/1.1/"
   xmlns:cc="http://creativecommons.org/ns#"
   xmlns:rdf="http://www.w3.org/1999/02/22-rdf-syntax-ns#"
   xmlns:svg="http://www.w3.org/2000/svg"
   xmlns="http://www.w3.org/2000/svg"
   xmlns:sodipodi="http://sodipodi.sourceforge.net/DTD/sodipodi-0.dtd"
   xmlns:inkscape="http://www.inkscape.org/namespaces/inkscape"
   width="2000"
   height="2048"
   id="svg2992"
   version="1.1"
   inkscape:version="0.91 r13725"
   sodipodi:docname="ഭ്ര.svg">
  <defs
     id="defs5498">
    <inkscape:path-effect
       effect="spiro"
       id="path-effect4142-8"
       is_visible="true" />
    <inkscape:path-effect
       effect="spiro"
       id="path-effect4142-8-4"
       is_visible="true" />
    <inkscape:path-effect
       effect="spiro"
       id="path-effect4142-8-4-2"
       is_visible="true" />
    <inkscape:path-effect
       effect="spiro"
       id="path-effect4142-8-4-2-5"
       is_visible="true" />
    <inkscape:path-effect
       effect="spiro"
       id="path-effect4142-8-7"
       is_visible="true" />
    <inkscape:path-effect
       effect="spiro"
       id="path-effect4142-8-7-6"
       is_visible="true" />
    <inkscape:path-effect
       effect="spiro"
       id="path-effect4142-8-7-3"
       is_visible="true" />
    <inkscape:path-effect
       effect="spiro"
       id="path-effect4142-8-7-0"
       is_visible="true" />
  </defs>
  <sodipodi:namedview
     inkscape:window-height="871"
     inkscape:window-width="1600"
     inkscape:pageshadow="2"
     inkscape:pageopacity="0.0"
     borderopacity="1.0"
     bordercolor="#666666"
     pagecolor="#ffffff"
     id="base"
     showgrid="true"
     showguides="true"
     inkscape:guide-bbox="true"
     inkscape:zoom="0.25"
     inkscape:cx="2283.0007"
     inkscape:cy="737.76825"
     inkscape:window-x="1600"
     inkscape:window-y="0"
     inkscape:current-layer="layer1"
     inkscape:window-maximized="1">
    <sodipodi:guide
       orientation="horizontal"
       position="0,600"
       id="guide5596" />
    <inkscape:grid
       type="xygrid"
       id="grid3769"
       empspacing="3"
       visible="true"
       enabled="true"
       snapvisiblegridlinesonly="true"
       spacingx="4px"
       units="px"
       dotted="true"
       spacingy="4px" />
    <sodipodi:guide
       orientation="0,1"
       position="-1040,1600"
       id="guide2985" />
    <sodipodi:guide
       position="2784,1710"
       orientation="0,1"
       id="guide4187"
       inkscape:label=""
       inkscape:color="rgb(0,0,255)" />
  </sodipodi:namedview>
  <metadata
     id="metadata5594">
    <rdf:RDF>
      <cc:Work
         rdf:about="">
        <dc:format>image/svg+xml</dc:format>
        <dc:type
           rdf:resource="http://purl.org/dc/dcmitype/StillImage" />
        <dc:title />
      </cc:Work>
    </rdf:RDF>
  </metadata>
  <g
     inkscape:label="Layer 1"
     inkscape:groupmode="layer"
     id="layer1"
     transform="translate(0,1048)">
    <path
       style="fill:none;fill-rule:evenodd;stroke:#000000;stroke-width:69.99999237;stroke-linecap:round;stroke-linejoin:round;stroke-miterlimit:4;stroke-dasharray:none;stroke-opacity:1"
       d="m -3062.9142,380.16793 c -116.0602,-27.07548 -219.9963,-102.66206 -281.5179,-204.73133 -61.5216,-102.069273 -79.8173,-229.275052 -49.5552,-344.54538 19.3375,-73.65776 57.644,-141.90911 108.3408,-198.73549 50.6968,-56.82637 113.5893,-102.33705 182.21,-135.36128 137.2415,-66.04844 294.8446,-81.41372 446.3082,-65.40174 45.9303,4.85552 91.8036,12.54527 135.5013,27.50113 43.6977,14.95587 85.3075,37.43298 118.7319,69.30739 33.4244,31.87441 58.3155,73.55996 66.1184,119.0823 7.8028,45.52234 -2.5217,94.72174 -31.4585,130.71936 -20.3222,25.28099 -49.0289,43.34036 -80.1259,52.5651 -31.3439,9.29797 -64.6047,9.85059 -97.2562,8.18675 -32.6516,-1.66384 -65.254,-5.47041 -97.9368,-4.62008 -32.6829,0.85033 -65.9622,6.64339 -94.3484,22.86424 -14.193,8.11042 -27.0032,18.79301 -36.883,31.81647 -9.8799,13.023469 -16.7698,28.423206 -19.088,44.604942 -2.6449,18.46195 0.7387,37.594437 8.6315,54.49246 7.8928,16.8980224 20.1803,31.587699 34.7877,43.183513 29.2148,23.191627 66.755,33.663915 103.8896,37.181909 37.1347,3.517995 74.5327,0.635111 111.8285,0.02143 37.2958,-0.613685 75.2855,1.168835 110.4728,13.546507 31.6956,11.149385 60.2424,30.776622 82.7157,55.754012 22.4732,24.9774 38.9063,55.21489 48.5608,87.39732 19.3088,64.36488 11.0217,135.27325 -16.0752,196.76658 -41.4079,93.97055 -124.3151,165.53102 -217.5737,208.5184 -93.2585,42.98739 -196.5959,59.68159 -299.0929,65.96103 -144.01,8.82271 -290.1969,-2.30852 -428.3086,-44.0441 -138.1118,-41.73559 -268.0449,-114.97669 -367.3436,-219.64997 -126.7972,-133.6602 -199.3144,-317.39445 -197.9838,-501.624797 1.3307,-184.230343 76.4942,-366.897953 205.2089,-498.712673"
       id="path4138-3-8-6-1-8"
       inkscape:connector-curvature="0"
       sodipodi:nodetypes="caaaaaaaaac"
       inkscape:path-effect="#path-effect4142-8-4-2"
       inkscape:original-d="m -3062.9142,380.16793 c -238.2478,-38.51884 -387.1924,-342.962767 -331.0731,-549.27671 73.3715,-269.73933 462.5126,-452.17267 736.859,-399.49851 147.6482,28.3483 311.0136,197.79642 288.8931,346.61018 -4.6989,31.61159 -51.16,39.10582 -80.1259,52.5651 -108.9831,50.64002 -339.9582,-17.26531 -345.5124,102.852322 -6.1365,132.707908 278.352,51.995376 369.6101,148.425816 82.2331,86.893912 159.338,228.720822 115.2013,339.917912 -71.9463,181.26008 -322.3401,258.08737 -516.6666,274.47943 -278.4148,23.48517 -632.9058,-36.58186 -795.6522,-263.69407 -194.2299,-271.04738 7.2251,-1000.33747 7.2251,-1000.33747" />
    <path
       style="color:#000000;font-style:normal;font-variant:normal;font-weight:normal;font-stretch:normal;font-size:medium;line-height:normal;font-family:sans-serif;text-indent:0;text-align:start;text-decoration:none;text-decoration-line:none;text-decoration-style:solid;text-decoration-color:#000000;letter-spacing:normal;word-spacing:normal;text-transform:none;direction:ltr;block-progression:tb;writing-mode:lr-tb;baseline-shift:baseline;text-anchor:start;white-space:normal;clip-rule:nonzero;display:inline;overflow:visible;visibility:visible;opacity:1;isolation:auto;mix-blend-mode:normal;color-interpolation:sRGB;color-interpolation-filters:linearRGB;solid-color:#000000;solid-opacity:1;fill:#000000;fill-opacity:1;fill-rule:evenodd;stroke:none;stroke-width:69.99999237;stroke-linecap:round;stroke-linejoin:round;stroke-miterlimit:4;stroke-dasharray:none;stroke-dashoffset:0;stroke-opacity:1;color-rendering:auto;image-rendering:auto;shape-rendering:auto;text-rendering:auto;enable-background:accumulate"
       d="m -1715.7188,-1761.4531 c -118.8804,0.6609 -238.3228,22.4572 -346.8964,74.709 -72.413,34.8492 -139.0588,82.9703 -193.1485,143.5996 -54.134,60.6792 -95.2044,133.6465 -116.0761,213.1484 -32.7479,124.7383 -13.1432,261.047 53.4316,371.50001 66.5748,110.45296 177.9499,191.44868 303.543,220.74804 a 35.003496,35.003496 0 1 0 15.9023,-68.16797 c -106.5273,-24.85155 -203.0257,-95.02924 -259.4941,-188.71484 -56.4684,-93.68564 -73.4543,-211.78754 -45.6778,-317.58984 17.8033,-67.8137 53.346,-131.3507 100.6055,-184.3242 47.3041,-53.0234 106.4429,-95.9239 171.2715,-127.1231 129.7182,-62.4277 280.8378,-77.6318 427.4492,-62.1328 44.5112,4.7055 87.7726,12.0927 127.8477,25.8086 39.9732,13.6812 77.0394,33.9897 105.9121,61.5234 28.6754,27.3457 49.4654,62.8531 55.7754,99.6661 6.2248,36.3164 -2.5131,75.8482 -24.2403,102.8769 -15.3378,19.0804 -38.0139,33.5866 -62.8008,40.9395 -25.2342,7.4856 -54.4698,8.3695 -85.5214,6.7871 -31.1245,-1.586 -64.6262,-5.5911 -100.6289,-4.6543 -36.197,0.9417 -75.302,7.1784 -110.8028,27.4648 -17.811,10.1779 -34.2879,23.7635 -47.4023,41.0508 -13.174,17.3656 -22.5929,38.0622 -25.8496,60.7949 -3.7206,25.9702 1.0099,51.6666 11.5664,74.2676 10.4957,22.4708 26.3431,41.1825 44.7383,55.7852 36.6316,29.0793 80.9273,40.689 122.3496,44.6132 41.1185,3.8955 79.827,0.7627 115.705,0.1719 35.7902,-0.5889 69.5427,1.4584 98.2832,11.5684 25.772,9.0656 49.5967,25.3473 68.3106,46.14647 18.7534,20.8431 32.8074,46.55313 41.0547,74.04492 16.484,54.9486 9.5771,117.77802 -14.5781,172.5957 -37.1005,84.19522 -113.1876,150.73875 -200.1973,190.8457 -87.4604,40.31474 -186.431,56.67679 -286.582,62.8125 -140.7736,8.62445 -282.8281,-2.35746 -416.043,-42.61328 -133.0767,-40.21406 -257.659,-110.70679 -352.0762,-210.23437 -120.3607,-126.87537 -189.6401,-302.40474 -188.3769,-477.28324 1.263,-174.8784 73.0691,-349.3901 195.25,-474.5136 a 35.003496,35.003496 0 1 0 -50.0821,-48.9043 c -135.2485,138.5058 -213.7678,329.3299 -215.166,522.9121 -1.3982,193.5822 74.3562,385.5198 207.5899,525.96482 104.1802,109.819 239.4644,185.80928 382.6113,229.0664 143.0087,43.21537 293.3278,54.49561 440.5742,45.47461 104.843,-6.42316 212.5469,-23.44937 311.6035,-69.10937 99.5075,-45.8678 189.2358,-122.44554 234.9512,-226.19141 30.0385,-68.16897 39.7039,-147.15632 17.5703,-220.9375 -11.0615,-36.87309 -29.8734,-71.63825 -56.0664,-100.74995 -26.2327,-29.1557 -59.4999,-52.1282 -97.1191,-65.3614 -41.634,-14.6454 -83.8626,-16.1619 -122.6641,-15.5234 -38.7136,0.6374 -74.8005,3.2695 -107.9512,0.1289 -32.8469,-3.1118 -63.6317,-12.4461 -85.4297,-29.75 -10.8196,-8.5889 -19.548,-19.2568 -24.8378,-30.582 -5.2291,-11.1952 -7.2646,-23.7632 -5.6954,-34.7168 a 35.003496,35.003496 0 0 0 0,-0 c 1.3797,-9.6307 5.7385,-19.7328 12.3243,-28.414 a 35.003496,35.003496 0 0 0 0,0 c 6.6452,-8.7597 15.7883,-16.5391 26.3633,-22.5821 21.2716,-12.1553 48.7238,-17.5048 77.8926,-18.2637 29.3628,-0.764 61.0673,2.8444 95.2461,4.586 34.2514,1.7454 71.5366,1.5245 108.9902,-9.586 37.4071,-11.0965 72.1446,-32.7097 97.4512,-64.1914 36.1464,-44.9664 48.0584,-103.8324 38.6777,-158.5605 -9.2956,-54.2318 -38.2876,-102.0949 -76.4609,-138.4981 -37.9761,-36.215 -84.1306,-60.8631 -131.5528,-77.0937 -47.3203,-16.1957 -95.8068,-24.1878 -143.1562,-29.1934 -39.079,-4.1312 -78.6427,-6.2593 -118.2696,-6.039 z"
       id="path4138-3-8-6-1-8-8"
       inkscape:connector-curvature="0" />
    <path
       style="fill:none;fill-rule:evenodd;stroke:#000000;stroke-width:140;stroke-linecap:round;stroke-linejoin:round;stroke-miterlimit:4;stroke-dasharray:none;stroke-opacity:1"
       d="M 686.97235,352.27846 C 596.23316,274.91816 534.33785,164.47713 515.71482,46.700225 c -18.62303,-117.776904 6.17851,-241.926555 68.62313,-343.508465 66.80459,-108.6745 174.85663,-189.66772 295.44592,-231.27569 120.58933,-41.60796 252.89053,-44.9295 377.51883,-17.71201 36.4468,7.95959 72.504,18.52982 106.1764,34.58884 33.6724,16.05902 64.9892,37.77791 89.4446,65.94981 24.4555,28.1719 41.8126,63.03286 46.3941,100.05627 4.5816,37.0234 -4.2279,76.10376 -26.7912,105.81268 -21.8933,28.82678 -55.3898,47.46006 -90.5542,56.04885 -35.1644,8.58878 -72.0345,7.78616 -107.9244,3.07261 -71.7798,-9.42712 -142.3251,-34.26811 -214.574,-29.65256 -39.228,2.50604 -78.44843,14.1495 -110.1975,37.32522 -31.74907,23.17573 -55.40434,58.51655 -60.41025,97.504479 -3.75879,29.274869 3.04802,59.500186 17.31425,85.338552 14.26623,25.838366 35.74506,47.367551 60.52096,63.408168 49.55174,32.081231 110.42684,41.889791 169.45274,42.618291 46.1397,0.56946 92.2545,-3.93486 138.381,-2.69261 46.1265,1.24225 93.2112,8.63226 133.4697,31.181 43.4706,24.34781 76.46,65.53077 94.5243,111.96552 18.0644,46.43474 21.7278,97.80491 14.4928,147.10158 -14.6371,99.73168 -76.564,191.26194 -163.5478,242.19791 -43.4919,25.46798 -92.267,41.2317 -142.0146,49.31471 -49.7477,8.08302 -100.3801,8.52978 -150.7801,8.56548 l -124.67007,0.0883 c -77.59167,0.055 -155.58949,-1.25862 -231.92721,-15.15191 C 627.7445,674.95196 553.50035,649.09026 485.7047,611.35141 289.30499,502.02433 153.80074,294.00962 122.89926,71.365611 91.458137,-155.16651 167.04562,-394.24641 322.99635,-561.53274"
       id="path4138-3-8-6-7"
       inkscape:connector-curvature="0"
       sodipodi:nodetypes="caaaassaassaac"
       inkscape:path-effect="#path-effect4142-8-7"
       inkscape:original-d="m 686.97235,352.27846 c 0,0 -213.3344,-460.0667 -102.6344,-649.0867 120.8743,-206.3926 444.60945,-320.1379 672.96475,-248.9877 119.1638,37.1286 268.7951,193.67482 215.2239,306.4076 -59.2453,124.67325 -284.36,-20.44741 -413.0526,29.4689 -67.57909,26.21206 -187.24174,59.8564 -170.60775,134.829699 21.48743,96.848912 127.28645,188.969111 247.28795,191.365011 103.3503,2.06346 198.6849,-25.810463 271.8507,28.48839 75.2352,55.8346 136.2925,169.43517 109.0171,259.0671 -53.0005,174.16909 -337.9623,299.99425 -456.3425,300.0781 l -124.67007,0.0883 C 785.03041,704.10409 612.95291,696.74502 485.7047,611.35141 305.64273,490.5156 153.73736,286.01094 122.89926,71.365611 91.434078,-147.64445 322.99635,-561.53274 322.99635,-561.53274" />
    <path
       style="color:#000000;font-style:normal;font-variant:normal;font-weight:normal;font-stretch:normal;font-size:medium;line-height:normal;font-family:sans-serif;text-indent:0;text-align:start;text-decoration:none;text-decoration-line:none;text-decoration-style:solid;text-decoration-color:#000000;letter-spacing:normal;word-spacing:normal;text-transform:none;direction:ltr;block-progression:tb;writing-mode:lr-tb;baseline-shift:baseline;text-anchor:start;white-space:normal;clip-rule:nonzero;display:inline;overflow:visible;visibility:visible;opacity:1;isolation:auto;mix-blend-mode:normal;color-interpolation:sRGB;color-interpolation-filters:linearRGB;solid-color:#000000;solid-opacity:1;fill:#000000;fill-opacity:1;fill-rule:evenodd;stroke:none;stroke-width:140;stroke-linecap:round;stroke-linejoin:round;stroke-miterlimit:4;stroke-dasharray:none;stroke-dashoffset:0;stroke-opacity:1;color-rendering:auto;image-rendering:auto;shape-rendering:auto;text-rendering:auto;enable-background:accumulate"
       d="m 1230.3164,1030.6172 c -78.7955,0.604 -157.7504,13.0369 -233.36523,39.1269 -134.87869,46.5384 -255.93244,136.6457 -332.24609,260.7891 -71.43946,116.2143 -99.43644,256.3576 -78.13086,391.0996 21.30558,134.7421 91.17469,259.4104 194.98437,347.9141 a 70.007,70.007 0 1 0 90.82813,-106.5371 c -77.6687,-66.217 -131.59077,-162.4305 -147.53125,-263.2422 -15.94048,-100.8118 5.66543,-208.9684 59.11523,-295.918 57.29553,-93.2056 152.34463,-165.0841 258.6445,-201.7617 106.7523,-36.8336 226.3722,-40.2571 339.752,-15.4961 33.2282,7.2567 64.059,16.5444 90.9785,29.3828 26.7596,12.7622 49.9791,29.375 66.7168,48.6563 16.464,18.966 27.1922,41.8121 29.7852,62.7656 2.5011,20.2112 -3.0784,41.7257 -13.0665,54.8769 -9.881,13.0103 -28.9697,24.9039 -51.4179,30.3868 -23.2318,5.6742 -51.431,5.7111 -82.2012,1.6699 a 70.007,70.007 0 0 0 0,-0 c -61.9097,-8.1308 -137.0608,-35.9247 -228.1504,-30.1054 -50.0326,3.1962 -102.1009,17.8655 -147.0058,50.6445 a 70.007,70.007 0 0 0 -0,0 c -45.7468,33.3937 -80.69555,83.8125 -88.56835,145.1289 -5.8933,45.8991 4.58755,90.2759 25.46484,128.0879 20.68341,37.4608 50.48881,66.7947 83.75781,88.334 66.0427,42.7578 140.4477,53.0347 206.6328,53.8515 51.2701,0.6329 97.0402,-3.7988 137.3594,-2.7129 39.9395,1.0756 75.5031,7.9154 101.1484,22.2793 27.2825,15.2809 50.7977,43.6402 63.4922,76.2715 12.8992,33.1578 16.2001,72.5332 10.4727,111.5586 -11.4116,77.7546 -61.7316,152.1783 -129.6621,191.957 -34.6677,20.3008 -75.193,33.6931 -117.8692,40.627 -42.7291,6.9426 -89.5819,7.6229 -139.6015,7.6582 l -124.67,0.088 a 70.007,70.007 0 0 0 -0,0 c -76.76818,0.054 -150.50316,-1.4911 -219.34181,-14.0195 a 70.007,70.007 0 0 0 -0.002,0 C 787.4667,2271.3918 720.44391,2247.9749 659.75,2214.1895 484.36478,2116.5607 360.12111,1926.6663 332.23438,1725.7422 303.81564,1520.985 373.23711,1301.4056 514.19727,1150.1992 a 70.007,70.007 0 1 0 -102.40235,-95.4648 c -170.94098,183.3664 -252.69359,441.9469 -218.23047,690.2539 33.91586,244.364 180.67897,470.5007 398.09375,591.5254 74.89751,41.6919 156.36375,69.9976 239.89063,85.1992 83.83677,15.2581 166.09463,16.3388 244.50977,16.2832 l 124.6699,-0.088 c 50.7804,-0.036 105.1908,-0.2473 161.957,-9.4707 56.8191,-9.2319 113.844,-27.3685 166.1602,-58.0039 106.037,-62.0932 179.5711,-170.7284 197.4336,-292.4375 8.7423,-59.568 4.7157,-122.9347 -18.5137,-182.6465 -23.4343,-60.2381 -65.8959,-114.2434 -125.5547,-147.6582 -54.8716,-30.7336 -113.4775,-38.6752 -165.791,-40.084 -51.9338,-1.3987 -98.393,3.18 -139.4023,2.6738 -51.8668,-0.6401 -99.2125,-9.9801 -132.2735,-31.3847 -16.2827,-10.5419 -29.434,-24.2665 -37.2832,-38.4824 -7.6551,-13.8646 -10.7883,-29.9392 -9.164,-42.5899 2.139,-16.6594 14.5007,-36.921 32.2519,-49.8789 18.5933,-13.5724 44.9653,-22.192 73.3887,-24.0078 53.4082,-3.412 119.3462,18.4758 200.9961,29.1992 41.0096,5.386 86.5514,7.0287 133.6484,-4.4746 47.8806,-11.6945 95.7839,-37.0696 129.6895,-81.7129 35.1385,-46.2666 47.1777,-102.9105 40.5156,-156.7461 -6.5701,-53.0933 -30.5551,-99.9698 -63.0019,-137.3476 -32.1734,-37.0626 -71.5887,-63.8882 -112.1739,-83.2442 -40.4252,-19.2795 -81.7076,-31.1324 -121.373,-39.7949 -59.4461,-12.9824 -120.6365,-19.669 -181.9219,-19.1992 z"
       id="path4138-3-8-6-7-3"
       inkscape:connector-curvature="0" />
    <path
       style="color:#000000;font-style:normal;font-variant:normal;font-weight:normal;font-stretch:normal;font-size:medium;line-height:normal;font-family:sans-serif;text-indent:0;text-align:start;text-decoration:none;text-decoration-line:none;text-decoration-style:solid;text-decoration-color:#000000;letter-spacing:normal;word-spacing:normal;text-transform:none;direction:ltr;block-progression:tb;writing-mode:lr-tb;baseline-shift:baseline;text-anchor:start;white-space:normal;clip-rule:nonzero;display:inline;overflow:visible;visibility:visible;opacity:1;isolation:auto;mix-blend-mode:normal;color-interpolation:sRGB;color-interpolation-filters:linearRGB;solid-color:#000000;solid-opacity:1;fill:#000000;fill-opacity:1;fill-rule:evenodd;stroke:none;stroke-width:200;stroke-linecap:round;stroke-linejoin:round;stroke-miterlimit:4;stroke-dasharray:none;stroke-dashoffset:0;stroke-opacity:1;color-rendering:auto;image-rendering:auto;shape-rendering:auto;text-rendering:auto;enable-background:accumulate"
       d="m 2447.377,-718.45312 a 100.01,100.01 0 0 0 -68.2403,31.37695 c -171.3006,177.0054 -260.0617,425.12873 -239.9023,670.624998 a 100.01,100.01 0 0 0 0,0.002 c 11.9438,145.447789 61.009,286.163139 140.209,407.869139 79.1624,121.64819 187.231,222.66928 312.4277,294.63086 82.6643,47.51447 173.5991,82.24116 269.2441,99.38672 96.4025,17.28136 189.3559,14.65938 275.7715,10.43945 l 124.6699,-6.08789 c 52.9133,-2.5839 111.1097,-5.53862 172.5821,-19.03906 61.5459,-13.51675 122.9818,-37.18821 178.6601,-74.73633 55.6907,-37.55639 102.719,-87.07688 137.1504,-145.1875 34.3429,-57.9614 54.9724,-122.22455 62.4297,-187.67578 7.0811,-62.14986 2.7691,-129.00275 -21.9648,-193.63477 C 3765.3557,104.03577 3720.0879,43.977113 3653.6738,5.9707031 3592.3776,-29.106979 3528.3669,-37.386521 3473.1406,-38.785156 c -54.6472,-1.38397 -101.2997,3.445155 -140.0039,3.064453 -48.637,-0.478402 -90.1283,-9.603791 -116.0879,-26.433594 -12.6294,-8.18773 -22.2116,-18.57865 -27.3144,-27.835937 -4.8287,-8.759816 -6.3953,-18.802256 -5.6797,-24.384766 0.9177,-7.15932 8.4525,-20.97742 20.1797,-29.54688 12.9178,-9.43953 33.7245,-16.73098 57.3769,-18.18554 45.1627,-2.77739 109.1309,18.31154 195.3965,29.8789 43.4091,5.82073 92.9808,7.879 145.4942,-5.16796 53.6847,-13.33805 107.9841,-42.28496 146.5703,-94.72657 39.3384,-53.46409 51.6788,-117.14513 43.4023,-177.41601 -8.131,-59.21253 -35.2603,-110.26802 -71.084,-150.6875 -70.5994,-79.65633 -165.1135,-111.4897 -246.8105,-129.2793 a 100.01,100.01 0 0 0 -0,0 c -139.7154,-30.42313 -289.1478,-28.34594 -429.3047,18.52734 -140.8424,47.1026 -268.1996,139.2723 -349.6328,269.00586 -76.7691,122.30296 -106.9803,269.93594 -84.4277,412.564457 22.5525,142.628563 96.8398,273.737713 207.5976,366.388673 a 100.01,100.01 0 1 0 128.3243,-153.4043 c -72.5828,-60.71676 -123.5977,-150.752331 -138.377,-244.220701 -14.7794,-93.468409 5.9684,-194.851459 56.2774,-274.999999 53.6779,-85.5159 143.4953,-152.15765 243.6718,-185.66016 100.8623,-33.73182 214.7122,-36.43032 323.3184,-12.78125 61.8409,13.46592 112.8538,36.23516 139.6914,66.51563 12.8947,14.54892 20.7558,31.6829 22.6172,45.23828 a 100.01,100.01 0 0 0 0,0.002 c 1.7161,12.497 -2.1613,25.97826 -6.3535,31.67578 -4.3956,5.97396 -17.0033,15.00912 -33.7032,19.15821 -17.8714,4.44018 -42.2173,4.85883 -70.6894,1.04101 -57.4968,-7.70975 -134.639,-37.40132 -234.252,-31.27539 -54.8381,3.3724 -112.5261,19.3707 -163.1015,56.32813 -51.7663,37.82751 -91.4763,94.75818 -100.5567,165.59961 -6.7916,52.985947 5.2282,103.409432 28.9043,146.3613238 23.402,42.4544232 56.753,75.1719212 93.67,99.1054662 73.1331,47.41275 153.4653,57.92232 222.9179,58.60547 53.6328,0.52754 99.2415,-4.07302 136.9063,-3.11914 37.0857,0.93922 67.41,7.61922 86.2597,18.40625 19.7246,11.28765 38.8759,34.22877 49.2891,61.43945 10.7377,28.05853 14.193,63.05552 10.0391,99.51368 -4.4001,38.61896 -16.7291,76.21359 -35.7793,108.36523 l 0,0 c -18.9619,32.0024 -45.761,60.31476 -76.9121,81.32227 -31.1633,21.01577 -68.9768,36.25735 -109.7363,45.20898 -40.8321,8.9676 -87.7305,12.09619 -139.4356,14.62109 l -124.6699,6.08789 c -82.7296,4.03993 -160.4414,5.0608 -230.7285,-7.53906 -71.0446,-12.73563 -140.7103,-39.0472 -204.8672,-75.92383 -98.0427,-56.35376 -183.1831,-136.15023 -244.4629,-230.31836 -61.2421,-94.11029 -99.3801,-203.97475 -108.5097,-315.152339 -15.2562,-185.786271 54.6544,-381.218001 184.291,-515.171871 a 100.01,100.01 0 0 0 -75.4785,-170.46289 z"
       id="path4138-3-8-6-7-1"
       inkscape:connector-curvature="0" />
  </g>
</svg>
