<?xml version="1.0" encoding="UTF-8" standalone="no"?>
<!-- Created with Inkscape (http://www.inkscape.org/) -->

<svg
   xmlns:dc="http://purl.org/dc/elements/1.1/"
   xmlns:cc="http://creativecommons.org/ns#"
   xmlns:rdf="http://www.w3.org/1999/02/22-rdf-syntax-ns#"
   xmlns:svg="http://www.w3.org/2000/svg"
   xmlns="http://www.w3.org/2000/svg"
   xmlns:sodipodi="http://sodipodi.sourceforge.net/DTD/sodipodi-0.dtd"
   xmlns:inkscape="http://www.inkscape.org/namespaces/inkscape"
   width="2000"
   height="2048"
   id="svg2992"
   version="1.1"
   inkscape:version="0.91 r13725"
   sodipodi:docname="മ്ര.svg">
  <defs
     id="defs5498">
    <inkscape:path-effect
       effect="spiro"
       id="path-effect4155"
       is_visible="true" />
    <inkscape:path-effect
       effect="spiro"
       id="path-effect3006"
       is_visible="true" />
    <inkscape:path-effect
       effect="spiro"
       id="path-effect4170"
       is_visible="true" />
    <inkscape:path-effect
       effect="spiro"
       id="path-effect4166"
       is_visible="true" />
    <inkscape:path-effect
       effect="spiro"
       id="path-effect4155-8"
       is_visible="true" />
    <inkscape:path-effect
       effect="spiro"
       id="path-effect4170-3"
       is_visible="true" />
    <inkscape:path-effect
       effect="spiro"
       id="path-effect4166-2"
       is_visible="true" />
    <inkscape:path-effect
       effect="spiro"
       id="path-effect4166-2-4"
       is_visible="true" />
    <inkscape:path-effect
       effect="spiro"
       id="path-effect4170-3-6"
       is_visible="true" />
    <inkscape:path-effect
       effect="spiro"
       id="path-effect4155-8-6"
       is_visible="true" />
    <inkscape:path-effect
       effect="spiro"
       id="path-effect4155-8-4"
       is_visible="true" />
    <inkscape:path-effect
       effect="spiro"
       id="path-effect4170-3-7"
       is_visible="true" />
    <inkscape:path-effect
       effect="spiro"
       id="path-effect4166-2-9"
       is_visible="true" />
    <inkscape:path-effect
       effect="spiro"
       id="path-effect4155-8-4-6"
       is_visible="true" />
    <inkscape:path-effect
       effect="spiro"
       id="path-effect4170-3-7-0"
       is_visible="true" />
    <inkscape:path-effect
       effect="spiro"
       id="path-effect4166-2-9-9"
       is_visible="true" />
    <inkscape:path-effect
       effect="spiro"
       id="path-effect4155-8-2"
       is_visible="true" />
    <inkscape:path-effect
       effect="spiro"
       id="path-effect4166-2-3"
       is_visible="true" />
    <inkscape:path-effect
       effect="spiro"
       id="path-effect4170-3-4"
       is_visible="true" />
  </defs>
  <sodipodi:namedview
     inkscape:window-height="871"
     inkscape:window-width="1600"
     inkscape:pageshadow="2"
     inkscape:pageopacity="0.0"
     borderopacity="1.0"
     bordercolor="#666666"
     pagecolor="#ffffff"
     id="base"
     showgrid="true"
     showguides="true"
     inkscape:guide-bbox="true"
     inkscape:zoom="0.50000001"
     inkscape:cx="3085.803"
     inkscape:cy="1002.4379"
     inkscape:window-x="1600"
     inkscape:window-y="0"
     inkscape:current-layer="layer1"
     inkscape:window-maximized="1">
    <sodipodi:guide
       orientation="horizontal"
       position="0,600"
       id="guide5596" />
    <inkscape:grid
       type="xygrid"
       id="grid3769"
       empspacing="3"
       visible="true"
       enabled="true"
       snapvisiblegridlinesonly="true"
       spacingx="4px"
       units="px"
       dotted="true"
       spacingy="4px" />
    <sodipodi:guide
       orientation="0,1"
       position="-1040,1600"
       id="guide2985" />
    <sodipodi:guide
       position="3072,1710"
       orientation="0,1"
       id="guide4195"
       inkscape:label=""
       inkscape:color="rgb(0,0,255)" />
  </sodipodi:namedview>
  <metadata
     id="metadata5594">
    <rdf:RDF>
      <cc:Work
         rdf:about="">
        <dc:format>image/svg+xml</dc:format>
        <dc:type
           rdf:resource="http://purl.org/dc/dcmitype/StillImage" />
        <dc:title />
      </cc:Work>
    </rdf:RDF>
  </metadata>
  <g
     inkscape:label="Layer 1"
     inkscape:groupmode="layer"
     id="layer1"
     transform="translate(0,1048)">
    <path
       style="fill:none;fill-rule:evenodd;stroke:#000000;stroke-width:140;stroke-linecap:butt;stroke-linejoin:round;stroke-miterlimit:4;stroke-dasharray:none;stroke-opacity:1"
       d="m 638.65094,-51.666551 0,383.999981 1055.99996,0 0,-383.999981"
       id="path4162-6"
       inkscape:connector-curvature="0" />
    <path
       style="fill:none;fill-rule:evenodd;stroke:#000000;stroke-width:140;stroke-linecap:round;stroke-linejoin:round;stroke-miterlimit:4;stroke-dasharray:none;stroke-opacity:1"
       d="m 638.65094,-51.666551 c 8.30332,-148.005419 82.13152,-291.141859 197.9138,-383.710819 115.78229,-92.56895 271.65806,-133.08288 417.86166,-108.60708 123.0645,20.60211 238.0528,86.36838 318.2077,181.99533 80.155,95.62695 124.8235,220.33556 123.6115,345.106769"
       id="path4164-4"
       inkscape:path-effect="#path-effect4166-2"
       inkscape:original-d="m 638.65094,-51.666551 c 11.1629,-137.066099 354.27584,-518.390169 615.77546,-492.317899 228.1288,22.7451 424.7249,256.0748 441.8192,527.102099"
       inkscape:connector-curvature="0"
       sodipodi:nodetypes="cac" />
    <path
       style="fill:none;fill-rule:evenodd;stroke:#000000;stroke-width:140;stroke-linecap:round;stroke-linejoin:round;stroke-miterlimit:4;stroke-dasharray:none;stroke-opacity:1"
       d="m 1039.488,-535.99255 c 41.992,-14.47424 88.1442,-16.64295 131.3085,-6.17023 43.1642,10.47271 83.191,33.55058 113.8808,65.65923 50.1201,52.43718 73.4557,126.82733 72.7875,199.36168 -0.6683,72.53436 -23.6428,143.43288 -56.0826,208.312319 C 1193.5931,146.74834 973.79965,302.33004 734.65094,332.33343"
       id="path4168-1"
       inkscape:path-effect="#path-effect4170-3"
       inkscape:original-d="m 1039.488,-535.99255 c 0,0 191.8597,-5.54119 245.1893,59.489 86.2429,105.16474 76.7101,285.62142 16.7049,407.673999 C 1199.2676,138.87473 944.52844,226.25603 734.65094,332.33343"
       inkscape:connector-curvature="0"
       sodipodi:nodetypes="caac" />
    <path
       style="fill:none;fill-rule:evenodd;stroke:#000000;stroke-width:140;stroke-linecap:round;stroke-linejoin:round;stroke-miterlimit:4;stroke-dasharray:none;stroke-opacity:1"
       d="m 1693.2676,276.89733 c 5.2247,70.99013 -5.2309,143.09211 -30.4053,209.674 -11.4179,30.19837 -25.9381,59.37534 -45.0147,85.42135 -19.0765,26.04601 -42.7815,48.80292 -70.1498,65.92842 -27.3684,17.1255 -58.211,28.41297 -89.947,34.34068 -31.7359,5.9277 -64.1988,6.47413 -96.4832,6.63555 l -400,2 c -64.61732,0.32309 -129.48685,0.0751 -193.44365,-9.14609 C 703.86715,662.53006 640.99435,644.36535 583.20816,615.4472 467.63579,557.6109 376.81397,456.61437 319.26764,340.89735 246.94925,195.47593 222.45179,26.754015 250.42714,-133.22948 c 27.97534,-159.9835 108.27514,-310.38015 225.6511,-422.63087"
       id="path4153-7"
       inkscape:path-effect="#path-effect4155-8"
       inkscape:original-d="m 1693.2676,276.89733 c 0,0 7.9164,150.35315 -30.4053,209.674 -64.6993,100.15249 -189.6791,191.76642 -301.5947,192.326 l -400,2 C 717.04125,682.11846 425.75654,558.38425 319.26764,340.89735 185.82338,68.358339 476.07824,-555.86035 476.07824,-555.86035"
       inkscape:connector-curvature="0"
       sodipodi:nodetypes="cassac" />
    <path
       style="color:#000000;font-style:normal;font-variant:normal;font-weight:normal;font-stretch:normal;font-size:medium;line-height:normal;font-family:sans-serif;text-indent:0;text-align:start;text-decoration:none;text-decoration-line:none;text-decoration-style:solid;text-decoration-color:#000000;letter-spacing:normal;word-spacing:normal;text-transform:none;direction:ltr;block-progression:tb;writing-mode:lr-tb;baseline-shift:baseline;text-anchor:start;white-space:normal;clip-rule:nonzero;display:inline;overflow:visible;visibility:visible;opacity:1;isolation:auto;mix-blend-mode:normal;color-interpolation:sRGB;color-interpolation-filters:linearRGB;solid-color:#000000;solid-opacity:1;fill:#000000;fill-opacity:1;fill-rule:evenodd;stroke:none;stroke-width:140;stroke-linecap:butt;stroke-linejoin:round;stroke-miterlimit:4;stroke-dasharray:none;stroke-dashoffset:0;stroke-opacity:1;color-rendering:auto;image-rendering:auto;shape-rendering:auto;text-rendering:auto;enable-background:accumulate"
       d="M 397.33008 2197.7832 A 70.007 70.007 0 0 0 348.74805 2217.8828 C 220.32582 2340.6974 133.1335 2504.0073 102.52539 2679.0469 C 71.91728 2854.0864 98.516352 3037.2934 177.64062 3196.4004 C 241.03151 3323.8699 341.32075 3436.5154 472.93359 3502.3789 C 538.40061 3535.1407 608.49196 3555.2178 678.88672 3565.3672 C 749.28489 3575.517 817.63919 3575.5537 882.66992 3575.2285 L 1282.6699 3573.2285 C 1315.5095 3573.0643 1352.2123 3572.7715 1391.6543 3565.4043 C 1431.1095 3558.0348 1470.19 3543.927 1505.8809 3521.5938 C 1541.4798 3499.318 1571.4454 3470.3543 1595.3711 3437.6875 C 1619.1673 3405.1975 1636.3046 3370.2704 1649.3906 3335.6602 C 1669.748 3281.8185 1681.6527 3225.0533 1684.7871 3167.7168 A 70.007 70.007 0 0 0 1685.7031 3156.666 L 1685.7031 2822.916 A 70.007 70.007 0 0 0 1687.293 2808.1309 C 1688.6716 2666.2022 1638.5093 2526.1538 1547.332 2417.377 C 1456.1549 2308.6003 1327.0225 2234.7437 1187.0352 2211.3086 C 1155.7975 2206.0791 1124.2784 2203.4262 1092.8125 2203.2617 C 1074.1199 2203.164 1055.4466 2203.9509 1036.8613 2205.5918 C 1003.2806 2205.5792 969.75476 2211.1231 937.72852 2222.1621 A 70.007 70.007 0 0 0 933.13086 2223.9316 C 853.76814 2245.1843 778.69186 2282.483 713.9043 2334.2812 C 581.96873 2439.7649 499.27426 2600.0919 489.8125 2768.7461 A 70.007 70.007 0 0 0 489.73242 2772.666 L 489.70312 2772.666 L 489.70312 2774.041 A 70.007 70.007 0 0 0 489.70312 2776.1836 L 489.70312 3156.666 A 70.007 70.007 0 0 0 559.70312 3226.666 L 651.27344 3226.666 A 70.007 70.007 0 0 0 657.82227 3226.666 L 1535.9824 3226.666 C 1531.598 3246.9178 1525.741 3266.832 1518.4375 3286.1484 C 1508.6877 3311.935 1496.7828 3335.3626 1482.4258 3354.9648 C 1468.1985 3374.39 1450.7548 3390.9389 1431.6172 3402.9141 C 1412.5713 3414.8319 1389.966 3423.2993 1365.9492 3427.7852 C 1341.9194 3432.2736 1313.6979 3433.0718 1281.9688 3433.2305 L 881.96875 3435.2305 C 817.76485 3435.5515 756.38068 3435.0932 698.86523 3426.8008 C 641.3464 3418.5078 585.6913 3402.256 535.58594 3377.1816 C 436.05402 3327.3725 354.69786 3238.025 302.99609 3134.0605 C 237.48359 3002.3248 215.08905 2848.0876 240.43164 2703.1602 C 265.77423 2558.2327 339.18007 2420.7493 445.50977 2319.0625 A 70.007 70.007 0 0 0 397.33008 2197.7832 z M 1044.3047 2345.8535 C 1054.8234 2346.3101 1065.2593 2347.7509 1075.3418 2350.1973 C 1105.2433 2357.4521 1133.8631 2373.9525 1155.123 2396.1953 C 1189.8933 2432.5731 1209.0435 2489.4649 1208.5176 2546.5469 C 1207.9816 2604.7221 1189.0518 2665.7404 1159.8223 2724.1992 C 1063.6425 2916.5586 864.27177 3058.4459 651.05273 3086.666 L 629.70312 3086.666 L 629.70312 2774.8242 C 637.34596 2648.0695 702.15908 2522.9153 801.32812 2443.6289 C 869.8651 2388.833 956.16115 2354.863 1044.3047 2345.8535 z M 1324.6992 2409.2695 C 1368.2962 2435.4701 1407.6482 2468.6674 1440.0391 2507.3105 C 1501.8737 2581.081 1539.735 2676.3665 1546.293 2772.666 L 1545.7031 2772.666 L 1545.7031 3086.3145 A 70.007 70.007 0 0 0 1545.6191 3086.666 L 1023.9746 3086.666 C 1133.5791 3010.2951 1224.7233 2907.4438 1285.041 2786.8086 C 1320.691 2715.5087 1347.7111 2634.7293 1348.5117 2547.8359 C 1348.9395 2501.3963 1341.4708 2453.8703 1324.6992 2409.2695 z "
       transform="translate(0,-1048)"
       id="path4162-6-9" />
    <path
       style="fill:none;fill-rule:evenodd;stroke:#000000;stroke-width:69.99999237;stroke-linecap:butt;stroke-linejoin:round;stroke-miterlimit:4;stroke-dasharray:none;stroke-opacity:1"
       d="m -1233.1252,-38.792229 0,408.808699 1123.67094,0 0,-408.808699"
       id="path4162-6-1"
       inkscape:connector-curvature="0" />
    <path
       style="fill:none;fill-rule:evenodd;stroke:#000000;stroke-width:69.99999237;stroke-linecap:round;stroke-linejoin:round;stroke-miterlimit:4;stroke-dasharray:none;stroke-opacity:1"
       d="m -1233.1252,-38.792229 c 8.7643,-157.534771 87.2934,-309.917231 210.5035,-408.473261 123.21005,-98.55603 289.11909,-141.7002 444.73232,-115.65137 130.99715,21.92823 253.39428,91.95044 338.69104,193.76184 85.29677,101.8114 132.79728,234.58139 131.44097,367.3942617"
       id="path4164-4-9"
       inkscape:path-effect="#path-effect4166-2-9"
       inkscape:original-d="m -1233.1252,-38.792229 c 11.8783,-145.921401 376.97873,-551.881331 655.23582,-524.124631 242.74784,24.21457 451.94227,272.61879 470.13201,561.1561017"
       inkscape:connector-curvature="0"
       sodipodi:nodetypes="cac" />
    <path
       style="fill:none;fill-rule:evenodd;stroke:#000000;stroke-width:69.99999237;stroke-linecap:round;stroke-linejoin:round;stroke-miterlimit:4;stroke-dasharray:none;stroke-opacity:1"
       d="m -806.6015,-554.40864 c 44.68716,-15.38812 93.79568,-17.68552 139.72429,-6.53661 45.92862,11.14891 88.51847,35.70556 121.17728,69.86897 53.36308,55.82153 78.20693,135.02042 77.49261,212.24186 -0.71431,77.22144 -25.1784,152.69988 -59.71722,221.770354 -114.7195,229.415186 -348.56075,395.022096 -603.04876,427.080536"
       id="path4168-1-3"
       inkscape:path-effect="#path-effect4170-3-7"
       inkscape:original-d="m -806.6015,-554.40864 c 0,0 204.15449,-5.89918 260.90157,63.33236 91.76955,111.95901 81.62587,304.0743 17.77539,434.012214 C -636.58287,164.05918 -907.64629,257.08584 -1130.9733,370.01647"
       inkscape:connector-curvature="0"
       sodipodi:nodetypes="caac" />
    <path
       style="fill:none;fill-rule:evenodd;stroke:#000000;stroke-width:69.99999237;stroke-linecap:round;stroke-linejoin:round;stroke-miterlimit:4;stroke-dasharray:none;stroke-opacity:1"
       d="m -110.92621,310.99887 c 1.72865,65.68454 -9.32223,131.68164 -32.35374,193.22021 -12.04686,32.18835 -27.4618,63.27677 -47.75475,91.01506 -20.29295,27.73829 -45.53906,51.95737 -74.68301,70.17403 -29.14395,18.21665 -61.98433,30.2129 -95.77101,36.51185 -33.78668,6.29894 -68.34442,6.87856 -102.71282,7.05049 l -425.6329,2.12922 c -134.11926,0.67093 -271.84056,-6.59252 -394.03016,-61.89267 -122.1897,-55.30016 -222.7565,-153.51645 -289.1108,-270.07338 -86.6369,-152.18491 -118.4164,-334.852876 -88.2667,-507.35562 30.1497,-172.50273 122.0052,-333.56203 255.1262,-447.33808"
       id="path4153-7-9"
       inkscape:path-effect="#path-effect4155-8-4"
       inkscape:original-d="m -110.92621,310.99887 c 0,0 3.67413,138.75437 -32.35374,193.22021 -70.00617,105.83322 -201.83418,204.1557 -320.92159,204.75143 l -425.6329,2.12922 c -259.87696,1.30003 -567.86866,-106.55438 -683.14096,-331.96605 -147.0886,-287.627595 166.8595,-954.6937 166.8595,-954.6937"
       inkscape:connector-curvature="0"
       sodipodi:nodetypes="cassac" />
    <path
       style="color:#000000;font-style:normal;font-variant:normal;font-weight:normal;font-stretch:normal;font-size:medium;line-height:normal;font-family:sans-serif;text-indent:0;text-align:start;text-decoration:none;text-decoration-line:none;text-decoration-style:solid;text-decoration-color:#000000;letter-spacing:normal;word-spacing:normal;text-transform:none;direction:ltr;block-progression:tb;writing-mode:lr-tb;baseline-shift:baseline;text-anchor:start;white-space:normal;clip-rule:nonzero;display:inline;overflow:visible;visibility:visible;opacity:1;isolation:auto;mix-blend-mode:normal;color-interpolation:sRGB;color-interpolation-filters:linearRGB;solid-color:#000000;solid-opacity:1;fill:#000000;fill-opacity:1;fill-rule:evenodd;stroke:none;stroke-width:69.99999237;stroke-linecap:butt;stroke-linejoin:round;stroke-miterlimit:4;stroke-dasharray:none;stroke-dashoffset:0;stroke-opacity:1;color-rendering:auto;image-rendering:auto;shape-rendering:auto;text-rendering:auto;enable-background:accumulate"
       d="M -1447.0508 2026.6465 A 35.003496 35.003496 0 0 0 -1471.8652 2035.3242 C -1611.3426 2154.5329 -1707.1392 2322.5026 -1738.7285 2503.2422 C -1770.3178 2683.9817 -1737.1741 2874.4879 -1646.4004 3033.9395 C -1576.706 3156.3634 -1471.1044 3259.8398 -1341.3047 3318.584 C -1211.1637 3377.4828 -1068.1706 3384.2677 -932.66797 3383.5898 L -507.03516 3381.4609 C -472.39061 3381.2877 -435.7175 3380.8345 -398.08398 3373.8184 C -360.44346 3366.801 -323.48429 3353.3978 -290.17578 3332.5781 C -256.91219 3311.7864 -228.52523 3284.4577 -205.79688 3253.3906 C -183.13284 3222.4113 -166.39902 3188.4157 -153.50977 3153.9766 C -138.01347 3112.5715 -127.60589 3069.3426 -122.47656 3025.4805 A 35.003496 35.003496 0 0 0 -117.46289 3007.5059 L -117.46289 2646.7832 A 35.003496 35.003496 0 0 0 -115.76758 2636.0879 C -114.32363 2494.693 -164.57049 2354.2476 -255.37891 2245.8574 C -346.18733 2137.4672 -475.6573 2063.3998 -615.11914 2040.0547 C -646.20944 2034.8503 -677.63224 2032.2236 -709.03516 2032.084 C -728.187 2031.9989 -747.33143 2032.8382 -766.38867 2034.582 C -798.46025 2034.3454 -830.53883 2039.4969 -861.00586 2049.9883 A 35.003496 35.003496 0 0 0 -866.10938 2052.1719 C -946.3807 2073.3146 -1022.3522 2110.7853 -1087.4941 2162.8926 C -1218.7817 2267.9097 -1301.7412 2428.8914 -1311.0801 2596.7539 A 35.003496 35.003496 0 0 0 -1311.1172 2598.6973 L -1311.1348 2598.6973 L -1311.1348 2599.6348 A 35.003496 35.003496 0 0 0 -1311.1348 2600.3965 L -1311.1348 3007.5059 A 35.003496 35.003496 0 0 0 -1276.1348 3042.5059 L -1176.1309 3042.5059 A 35.003496 35.003496 0 0 0 -1173.0234 3042.5059 L -195.63477 3042.5059 C -200.70282 3072.1474 -208.54153 3101.3145 -219.06836 3129.4414 C -230.27283 3159.3789 -244.36917 3187.5613 -262.29102 3212.0586 C -280.14856 3236.4679 -302.25302 3257.577 -327.27734 3273.2188 C -352.25673 3288.8322 -380.97928 3299.4235 -410.91211 3305.0039 C -440.85194 3310.5857 -473.29251 3311.2904 -507.38477 3311.4609 A 35.003496 35.003496 0 0 0 -507.38672 3311.4609 L -933.01953 3313.5898 C -1065.7553 3314.2538 -1198.2051 3306.5122 -1312.4434 3254.8105 C -1427.023 3202.9546 -1522.554 3109.9985 -1585.5684 2999.3086 C -1668.0685 2854.3903 -1698.4835 2679.5608 -1669.7734 2515.2949 C -1641.0633 2351.0289 -1553.1494 2196.8804 -1426.3848 2088.5371 A 35.003496 35.003496 0 0 0 -1447.0508 2026.6465 z M -762.40039 2104.6992 C -747.46019 2105.1087 -732.58287 2107.0514 -718.14258 2110.5566 C -678.84283 2120.0964 -641.95295 2141.367 -614.00781 2170.5996 C -568.32164 2218.3905 -545.572 2288.8379 -546.21484 2358.332 C -546.86274 2428.3733 -569.30445 2498.9106 -602.23828 2564.7715 C -711.15366 2782.5796 -934.79658 2941.3465 -1176.3086 2972.5059 L -1241.1348 2972.5059 L -1241.1348 2599.7988 C -1232.7094 2452.8863 -1158.6801 2309.4755 -1043.7676 2217.5566 C -964.02527 2153.7706 -864.41635 2114.6444 -762.40039 2104.6992 z M -561.22266 2124.5508 C -463.68777 2154.3749 -374.426 2212.7634 -309.03711 2290.8125 C -237.10443 2376.6723 -193.65246 2486.8079 -186.72461 2598.6973 L -187.46289 2598.6973 L -187.46289 2938.0723 A 35.003496 35.003496 0 0 0 -188.92383 2949.4102 C -188.72132 2957.1049 -188.70734 2964.8064 -188.88086 2972.5059 L -930.00586 2972.5059 C -763.2636 2894.6236 -622.35425 2761.5136 -539.62891 2596.0801 C -503.48509 2523.7999 -476.99948 2443.3822 -476.21875 2358.9805 C -475.44242 2275.0558 -501.72978 2188.2033 -561.22266 2124.5508 z "
       transform="translate(0,-1048)"
       id="path4162-6-1-5" />
    <path
       style="color:#000000;font-style:normal;font-variant:normal;font-weight:normal;font-stretch:normal;font-size:medium;line-height:normal;font-family:sans-serif;text-indent:0;text-align:start;text-decoration:none;text-decoration-line:none;text-decoration-style:solid;text-decoration-color:#000000;letter-spacing:normal;word-spacing:normal;text-transform:none;direction:ltr;block-progression:tb;writing-mode:lr-tb;baseline-shift:baseline;text-anchor:start;white-space:normal;clip-rule:nonzero;display:inline;overflow:visible;visibility:visible;opacity:1;isolation:auto;mix-blend-mode:normal;color-interpolation:sRGB;color-interpolation-filters:linearRGB;solid-color:#000000;solid-opacity:1;fill:#000000;fill-opacity:1;fill-rule:evenodd;stroke:none;stroke-width:201.69999695;stroke-linecap:butt;stroke-linejoin:round;stroke-miterlimit:4;stroke-dasharray:none;stroke-dashoffset:0;stroke-opacity:1;color-rendering:auto;image-rendering:auto;shape-rendering:auto;text-rendering:auto;enable-background:accumulate"
       d="M 2633.332 335.20703 A 100.86008 100.86008 0 0 0 2563.4453 364.42188 C 2427.8141 495.08227 2336.3181 668.05242 2304.6328 853.69727 C 2272.9476 1039.3421 2301.892 1232.868 2386.5059 1401.1191 C 2452.871 1533.0834 2556.9562 1650.7656 2695.5 1720.291 C 2764.2918 1754.8128 2837.5351 1775.8203 2910.7734 1786.4277 C 2984.018 1797.036 3053.9095 1796.9842 3119.1074 1796.6582 L 3519.1074 1794.6582 C 3552.1917 1794.4928 3590.7656 1794.31 3633.6035 1786.3086 C 3676.4608 1778.3036 3719.1707 1762.9525 3758.5293 1738.3242 C 3797.7557 1713.7786 3830.4821 1682.0789 3856.5449 1646.4941 C 3882.4213 1611.1641 3900.7102 1573.7049 3914.5312 1537.1504 C 3935.981 1480.4196 3948.528 1420.7026 3951.8594 1360.3438 A 100.86008 100.86008 0 0 0 3952.8359 1347.2441 L 3952.8359 1016.1816 A 100.86008 100.86008 0 0 0 3954.2578 1003.9297 C 3963.3212 849.28961 3914.229 694.8283 3817.5488 573.79688 C 3720.8686 452.7654 3581.071 370.76006 3428.25 345.43359 C 3394.3759 339.81976 3360.2443 337.07197 3326.2168 337.08984 C 3178.7643 337.16724 3033.293 389.18203 2919.4609 484.99805 C 2779.36 602.9255 2696.4598 779.39631 2695.1387 962.51758 A 100.86008 100.86008 0 0 0 2695.1602 963.24414 L 2695.1367 963.24414 L 2695.1367 1347.2441 A 100.86008 100.86008 0 0 0 2795.9863 1448.0957 L 2886.0742 1448.0957 A 100.86008 100.86008 0 0 0 2894.832 1448.0957 L 3732.0605 1448.0957 C 3730.1356 1454.0577 3728.076 1459.9694 3725.8652 1465.8164 C 3716.8506 1489.6586 3706.0991 1510.5524 3693.8223 1527.3145 C 3681.7321 1543.8217 3667.0473 1557.6345 3651.5371 1567.3398 C 3636.1589 1576.9626 3617.1851 1584.1866 3596.5703 1588.0371 C 3575.9364 1591.8911 3549.5841 1592.8035 3518.0996 1592.9609 L 3118.0996 1594.9609 C 3054.1068 1595.2809 2994.2994 1594.7205 2939.6855 1586.8105 C 2885.0655 1578.8997 2832.6436 1563.4414 2785.9668 1540.0176 C 2693.5734 1493.6518 2616.425 1409.3717 2566.7012 1310.498 C 2501.8881 1181.62 2479.1866 1029.8323 2503.457 887.63086 C 2527.7275 745.42946 2599.4912 609.7657 2703.3828 509.68164 A 100.86008 100.86008 0 0 0 2633.332 335.20703 z M 3272.7285 544.07812 C 3284.0557 544.01858 3295.356 545.27893 3306.0801 547.88086 C 3330.5922 553.82811 3354.5658 567.38265 3372.3008 585.31836 C 3403.2031 616.57123 3422.0197 669.90399 3421.0469 723.92773 C 3420.0428 779.6921 3400.518 840.20636 3369.5 899.0625 C 3276.3101 1075.8888 3093.7218 1208.6742 2896.8359 1244.2637 L 2896.8359 963.83984 C 2897.7554 842.19124 2956.2814 717.64713 3049.3496 639.30859 C 3095.7962 600.21306 3152.1141 571.56043 3211.8008 555.12891 A 100.86008 100.86008 0 0 0 3230.0664 550.80859 C 3231.3182 550.40073 3232.5853 550.02142 3233.8555 549.65039 C 3242.2209 547.79315 3250.6352 546.17812 3259.082 544.80273 C 3263.6122 544.35288 3268.1716 544.10208 3272.7285 544.07812 z M 3618.0723 654.70508 C 3633.1752 668.69941 3647.2131 683.73226 3659.9551 699.68359 C 3718.5947 773.09308 3752.3212 868.90064 3753.5527 963.24414 L 3751.1367 963.24414 L 3751.1367 1246.3945 L 3344.6719 1246.3945 C 3427.1552 1175.9146 3496.7728 1090.1821 3547.9355 993.10156 C 3588.8187 915.52656 3620.9425 825.98737 3622.7148 727.55859 C 3623.1493 703.43156 3621.6591 678.9962 3618.0723 654.70508 z "
       transform="translate(0,-1048)"
       id="path4162-6-5" />
  </g>
</svg>
