<?xml version="1.0" encoding="UTF-8" standalone="no"?>
<!-- Created with Inkscape (http://www.inkscape.org/) -->

<svg
   xmlns:dc="http://purl.org/dc/elements/1.1/"
   xmlns:cc="http://creativecommons.org/ns#"
   xmlns:rdf="http://www.w3.org/1999/02/22-rdf-syntax-ns#"
   xmlns:svg="http://www.w3.org/2000/svg"
   xmlns="http://www.w3.org/2000/svg"
   xmlns:sodipodi="http://sodipodi.sourceforge.net/DTD/sodipodi-0.dtd"
   xmlns:inkscape="http://www.inkscape.org/namespaces/inkscape"
   width="2000"
   height="2048"
   id="svg2992"
   version="1.1"
   inkscape:version="0.91 r13725"
   sodipodi:docname="യ.svg">
  <defs
     id="defs5498">
    <inkscape:path-effect
       effect="spiro"
       id="path-effect4143"
       is_visible="true" />
    <inkscape:path-effect
       effect="spiro"
       id="path-effect6255"
       is_visible="true" />
    <inkscape:path-effect
       effect="spiro"
       id="path-effect6255-3"
       is_visible="true" />
    <inkscape:path-effect
       effect="spiro"
       id="path-effect4143-0"
       is_visible="true" />
    <inkscape:path-effect
       effect="spiro"
       id="path-effect4143-0-3"
       is_visible="true" />
    <inkscape:path-effect
       effect="spiro"
       id="path-effect4143-0-7"
       is_visible="true" />
    <inkscape:path-effect
       effect="spiro"
       id="path-effect4143-0-7-2"
       is_visible="true" />
    <inkscape:path-effect
       effect="spiro"
       id="path-effect4143-0-2"
       is_visible="true" />
    <inkscape:path-effect
       effect="spiro"
       id="path-effect4143-0-2-3"
       is_visible="true" />
    <inkscape:path-effect
       effect="spiro"
       id="path-effect4143-0-2-7"
       is_visible="true" />
    <inkscape:path-effect
       effect="spiro"
       id="path-effect4143-0-2-0"
       is_visible="true" />
    <inkscape:path-effect
       effect="spiro"
       id="path-effect4143-0-2-0-6"
       is_visible="true" />
    <inkscape:path-effect
       effect="spiro"
       id="path-effect4143-0-2-0-9"
       is_visible="true" />
    <inkscape:path-effect
       effect="spiro"
       id="path-effect4143-0-2-0-8"
       is_visible="true" />
  </defs>
  <sodipodi:namedview
     inkscape:window-height="704"
     inkscape:window-width="1366"
     inkscape:pageshadow="2"
     inkscape:pageopacity="0.0"
     borderopacity="1.0"
     bordercolor="#666666"
     pagecolor="#ffffff"
     id="base"
     showgrid="true"
     showguides="true"
     inkscape:guide-bbox="true"
     inkscape:zoom="0.25"
     inkscape:cx="-1628.8235"
     inkscape:cy="-370.60972"
     inkscape:window-x="-4"
     inkscape:window-y="0"
     inkscape:current-layer="layer1"
     inkscape:window-maximized="1">
    <sodipodi:guide
       orientation="horizontal"
       position="0,600"
       id="guide5596" />
    <inkscape:grid
       type="xygrid"
       id="grid3769"
       empspacing="3"
       visible="true"
       enabled="true"
       snapvisiblegridlinesonly="true"
       spacingx="4px"
       units="px"
       dotted="true"
       spacingy="4px" />
    <sodipodi:guide
       orientation="0,1"
       position="-1080,1656"
       id="guide2985" />
  </sodipodi:namedview>
  <metadata
     id="metadata5594">
    <rdf:RDF>
      <cc:Work
         rdf:about="">
        <dc:format>image/svg+xml</dc:format>
        <dc:type
           rdf:resource="http://purl.org/dc/dcmitype/StillImage" />
        <dc:title />
      </cc:Work>
    </rdf:RDF>
  </metadata>
  <g
     inkscape:label="Layer 1"
     inkscape:groupmode="layer"
     id="layer1"
     transform="translate(0,1048)">
    <path
       style="fill:none;fill-rule:evenodd;stroke:#000000;stroke-width:140;stroke-linecap:round;stroke-linejoin:round;stroke-miterlimit:4;stroke-dasharray:none;stroke-opacity:1"
       d="m 1663.1756,-557.00535 c 113.6429,100.19587 180.1835,251.71693 177.0615,403.19026 -2.2939,111.291866 -41.2898,221.576274 -109.7374,309.36047 -68.4476,87.78421 -166.0061,152.53625 -273.5724,181.18278 -152.3091,40.56221 -322.3743,6.03197 -447.9009,-89.29085 -125.52664,-95.32283 -204.27039,-248.9916394 -210.142,-406.50003 -3.93677,-105.60555 25.34268,-215.00352 94.72245,-294.71849 34.68989,-39.85748 78.95454,-71.66842 128.57435,-89.83097 49.6199,-18.16255 104.5669,-22.39163 155.9231,-9.96008 41.2394,9.98261 79.7074,30.50868 111.9346,58.10846 32.2271,27.59978 58.2627,62.16737 77.2287,100.12299 37.9319,75.91124 47.0805,163.9964 36.8849,248.24244 -17.843,147.4362165 -95.292,287.02449 -211.7541,379.17873 C 1075.9364,324.23459 921.72653,367.53532 774.4795,348.19304 652.64877,332.18943 537.17389,274.29138 449.35656,188.34397 361.53922,102.39656 301.45837,-10.8752 276.60167,-131.21217 c -19.67859,-95.26859 -16.75586,-198.40292 27.87365,-284.84109 22.31476,-43.21909 54.90253,-81.46258 95.58085,-108.12928 40.67831,-26.6667 89.54169,-41.39317 138.12203,-38.98727 63.00812,3.12043 122.77572,35.0362 165.77174,81.20006 42.99602,46.16386 70.05257,105.64947 83.78246,167.2226 9.01005,40.40653 12.55072,82.02896 10.4952,123.3768"
       id="path4141-0-4"
       inkscape:path-effect="#path-effect4143-0-2"
       inkscape:original-d="m 1663.1756,-557.00535 c 0,0 195.3255,257.54571 177.0615,403.19026 -25.8203,205.901516 -177.5711,463.45645 -383.3098,490.54325 -272.2872,35.84834 -636.16897,-222.02642 -658.0429,-495.79088 -14.52799,-181.82591 198.33141,-417.98459 379.2199,-394.50954 153.7444,19.95238 256.6024,254.48091 226.0482,406.47389 -52.6289,261.80432 -362.9649,508.63677 -629.673,495.29141 -230.1011,-11.51362 -468.03442,-250.9573 -497.87783,-479.40521 -21.80438,-166.91009 90.1083,-421.90964 261.57653,-431.95764 96.6983,-5.6665 205.3762,145.99884 249.5542,248.42266 20.6885,47.96507 10.4952,123.3768 10.4952,123.3768"
       inkscape:connector-curvature="0"
       sodipodi:nodetypes="caaaaaaassc" />
    <path
       style="color:#000000;font-style:normal;font-variant:normal;font-weight:normal;font-stretch:normal;font-size:medium;line-height:normal;font-family:sans-serif;text-indent:0;text-align:start;text-decoration:none;text-decoration-line:none;text-decoration-style:solid;text-decoration-color:#000000;letter-spacing:normal;word-spacing:normal;text-transform:none;direction:ltr;block-progression:tb;writing-mode:lr-tb;baseline-shift:baseline;text-anchor:start;white-space:normal;clip-rule:nonzero;display:inline;overflow:visible;visibility:visible;opacity:1;isolation:auto;mix-blend-mode:normal;color-interpolation:sRGB;color-interpolation-filters:linearRGB;solid-color:#000000;solid-opacity:1;fill:#000000;fill-opacity:1;fill-rule:evenodd;stroke:none;stroke-width:140;stroke-linecap:round;stroke-linejoin:round;stroke-miterlimit:4;stroke-dasharray:none;stroke-dashoffset:0;stroke-opacity:1;color-rendering:auto;image-rendering:auto;shape-rendering:auto;text-rendering:auto;enable-background:accumulate"
       d="M -1290.5156 390.57422 C -1351.1441 390.16787 -1409.297 409.13812 -1458.3203 441.27539 C -1510.3263 475.36796 -1550.3852 522.8852 -1577.7227 575.83203 C -1632.1939 681.33159 -1633.9321 800.53262 -1611.9512 906.94727 C -1584.3345 1040.6459 -1517.9889 1166.0826 -1419.6055 1262.3711 C -1321.0965 1358.7825 -1192.42 1423.4985 -1054.6367 1441.5977 C -945.05626 1455.9921 -833.37588 1439.9071 -732.27148 1397.7871 C -611.39311 1450.3371 -473.83455 1462.6661 -345.05859 1428.3711 C -222.31487 1395.6826 -112.31323 1322.644 -34.296875 1222.5879 C 43.704442 1122.551 87.611627 998.30758 90.222656 871.62695 C 93.786772 698.70495 19.20349 528.87192 -110.53125 414.48828 A 70.007 70.007 0 1 0 -203.11719 519.50195 C -105.56618 605.51006 -47.068093 738.71753 -49.748047 868.74219 C -51.724717 964.6453 -85.809227 1060.9704 -144.70312 1136.502 C -203.58201 1212.0142 -288.69699 1268.4814 -381.08594 1293.0859 C -442.31345 1309.3917 -507.78263 1311.1746 -571.19727 1300.166 C -446.99806 1196.255 -365.7927 1045.9213 -346.35547 885.3125 C -334.86053 790.33039 -344.51669 688.62322 -390.11523 597.36914 C -412.93473 551.70161 -444.41528 509.63638 -484.42773 475.36914 C -524.53423 441.02137 -572.53716 415.19554 -625.42773 402.39258 C -691.40898 386.42083 -759.89056 391.9618 -821.88086 414.65234 C -883.65713 437.26456 -937.25475 476.07543 -979.19531 524.26367 C -991.14348 537.99171 -1001.9339 552.39629 -1011.8398 567.25391 C -1026.4261 541.40272 -1043.8932 516.79746 -1064.8262 494.32227 C -1118.9058 436.25821 -1193.9839 395.09463 -1278.3594 390.91602 C -1282.4213 390.71485 -1286.4737 390.60131 -1290.5156 390.57422 z M -1291.3477 530.58203 C -1289.3171 530.59062 -1287.2958 530.64458 -1285.2852 530.74414 C -1243.6444 532.80636 -1199.1859 555.47462 -1167.2734 589.73828 C -1134.7357 624.6733 -1112.1525 672.63442 -1100.5898 724.48828 C -1092.9544 758.73024 -1089.9436 794.11443 -1091.6855 829.1543 A 70.007 70.007 0 0 0 -1091.3828 840.7832 C -1091.4618 849.72672 -1091.3978 858.65611 -1091.0664 867.54492 C -1084.9491 1031.6455 -1010.4665 1189.4977 -887.93945 1298.4316 C -937.07546 1307.4793 -987.38953 1309.2276 -1036.4043 1302.7891 C -1142.2824 1288.881 -1244.556 1237.7998 -1321.6816 1162.3164 C -1398.933 1086.71 -1452.749 985.60227 -1474.8457 878.62695 C -1492.222 794.50442 -1488.114 707.43735 -1453.3262 640.06055 C -1436.034 606.56921 -1410.917 577.60019 -1381.5664 558.35938 C -1356.1344 541.6874 -1326.1217 531.82825 -1297.4648 530.69141 C -1295.4179 530.6102 -1293.3782 530.57344 -1291.3477 530.58203 z M -701.19531 533.38477 C -686.57092 533.45547 -672.13945 535.12863 -658.36523 538.46289 C -628.77711 545.62515 -599.84193 560.85135 -575.49414 581.70312 C -551.05232 602.63545 -530.46201 629.70551 -515.34961 659.94922 C -485.08433 720.5176 -476.44351 794.98222 -485.33984 868.49219 C -500.91329 997.17476 -569.70639 1121.0064 -671.03711 1201.1875 C -689.78203 1216.02 -709.74755 1229.3983 -730.62891 1241.2773 C -743.7498 1233.3834 -756.49225 1224.9133 -768.63867 1215.6895 C -876.53742 1133.7529 -946.09722 998.25047 -951.16406 862.33008 C -954.5525 771.43446 -928.55276 679.32402 -873.5918 616.17578 C -846.15257 584.64907 -811.22122 559.83593 -773.75781 546.12305 C -750.47694 537.60146 -725.5693 533.26683 -701.19531 533.38477 z "
       transform="translate(0,-1048)"
       id="path4141-0-4-8" />
    <path
       style="color:#000000;font-style:normal;font-variant:normal;font-weight:normal;font-stretch:normal;font-size:medium;line-height:normal;font-family:sans-serif;text-indent:0;text-align:start;text-decoration:none;text-decoration-line:none;text-decoration-style:solid;text-decoration-color:#000000;letter-spacing:normal;word-spacing:normal;text-transform:none;direction:ltr;block-progression:tb;writing-mode:lr-tb;baseline-shift:baseline;text-anchor:start;white-space:normal;clip-rule:nonzero;display:inline;overflow:visible;visibility:visible;opacity:1;isolation:auto;mix-blend-mode:normal;color-interpolation:sRGB;color-interpolation-filters:linearRGB;solid-color:#000000;solid-opacity:1;fill:#000000;fill-opacity:1;fill-rule:evenodd;stroke:none;stroke-width:200;stroke-linecap:round;stroke-linejoin:round;stroke-miterlimit:4;stroke-dasharray:none;stroke-dashoffset:0;stroke-opacity:1;color-rendering:auto;image-rendering:auto;shape-rendering:auto;text-rendering:auto;enable-background:accumulate"
       d="m 2333.6621,-677.42773 c -67.0923,-0.46613 -130.7423,20.4172 -184.4316,55.61328 -56.8607,37.27509 -100.1214,88.76695 -129.6114,145.88281 -58.689,113.66871 -59.9168,239.75769 -36.9492,350.94922 28.7995,139.425033 97.8285,270.07265 200.7403,370.79297 103.0911,100.896 237.4248,168.53403 382.0449,187.53125 110.9314,14.57188 223.5171,-0.39112 326.2851,-40.9961 123.9958,50.97668 263.3917,62.04216 394.9219,27.01368 129.2483,-34.42077 244.582,-111.00865 326.6992,-216.32422 82.0958,-105.288012 128.1085,-235.513338 130.8555,-368.78907 3.7535,-182.11424 -74.2769,-359.79564 -210.9082,-480.25976 a 100.01,100.01 0 1 0 -132.2656,150.01758 c 90.6545,79.92762 145.7053,205.28867 143.2148,326.12109 -1.8408,89.308004 -33.8197,179.6493038 -88.6191,249.929688 -54.778,70.252842 -134.561,123.168722 -220.4453,146.041012 -36.5049,9.72179 -74.8387,13.81871 -113.3204,12.83008 101.9576,-104.96438 167.9053,-242.172865 185.5547,-388.00976 12.0518,-99.58323 2.1772,-207.12547 -46.707,-304.95508 -24.471,-48.97256 -58.2858,-94.25225 -101.6348,-131.37696 -43.4833,-37.23964 -95.571,-65.33791 -153.455,-79.3496 -72.2491,-17.489 -146.5304,-11.38503 -213.8223,13.24609 -66.9861,24.51921 -124.5848,66.32723 -169.6328,118.08594 -2.7952,3.21157 -5.373,6.54083 -8.0606,9.81054 -10.0031,-14.0011 -20.9365,-27.56228 -32.9882,-40.50195 -58.8297,-63.16414 -140.4691,-108.28974 -234.002,-112.92188 -4.5015,-0.22293 -8.9901,-0.34978 -13.4629,-0.38085 z m -6.0254,200.10742 c 3.2491,-0.13579 6.4536,-0.12827 9.5957,0.0273 32.4833,1.60871 70.3787,20.31494 97.541,49.47852 28.0557,30.12265 48.7217,73.14357 59.3555,120.83203 7.0464,31.6 9.8302,64.31003 8.2227,96.64648 a 100.01,100.01 0 0 0 0.2343,14.31055 c -0.055,8.92233 0.037,17.8253 0.3672,26.6875 5.633,151.108367 65.979,296.51404 167.4063,407.23828 -26.4435,1.36876 -52.8803,0.55662 -78.8555,-2.85547 -99.0413,-13.01 -195.6577,-61.16915 -268.2012,-132.16797 -72.723,-71.174492 -123.8537,-167.069461 -144.7675,-268.31836 -16.3896,-79.34565 -11.775,-159.52673 18.7949,-218.73437 15.1396,-29.3223 37.0549,-54.31669 61.5508,-70.375 21.077,-13.81707 46.012,-21.81899 68.7558,-22.76953 z m 594.9629,2.72851 c 12.4071,0.0497 24.5548,1.4476 35.9785,4.21289 24.5948,5.95353 49.443,18.90728 70.4141,36.86719 21.1052,18.07486 39.3613,41.93046 52.8223,68.86914 26.9795,53.99287 35.4019,122.62045 27.0625,191.5293 -14.6008,120.645267 -79.6834,237.723667 -174.5293,312.77344 a 100.01,100.01 0 0 0 -0,0 c -12.9355,10.23566 -26.5558,19.67653 -40.6543,28.42968 -6.8857,-4.56579 -13.6328,-9.31544 -20.1875,-14.29296 -100.344,-76.199569 -165.9675,-203.915605 -170.6894,-330.58399 -3.1535,-84.59134 21.4431,-169.29357 70.2246,-225.3418 24.3316,-27.95625 55.2621,-49.77028 87.5156,-61.57617 19.9674,-7.30874 41.3665,-10.96958 62.0449,-10.88672 z"
       id="path4141-0-4-84"
       inkscape:connector-curvature="0" />
    <path
       style="fill:none;fill-rule:evenodd;stroke:#000000;stroke-width:70.00001526;stroke-linecap:round;stroke-linejoin:round;stroke-miterlimit:4;stroke-dasharray:none;stroke-opacity:1"
       d="m -1872.5179,-610.52437 c 121.9614,109.06167 192.8466,273.01863 188.7512,436.57978 -2.9718,118.687779 -44.481,236.216816 -117.2993,329.98839 -72.8184,93.77157 -176.641,163.19016 -291.317,193.93171 -162.4492,43.54827 -343.9943,6.48784 -477.7718,-95.44231 -133.7776,-101.93015 -217.4608,-266.013848 -223.7157,-434.08247 -4.1938,-112.68687 26.8982,-229.43446 100.8178,-314.59203 36.9598,-42.57879 84.1485,-76.58708 137.075,-96.02328 52.9265,-19.43621 111.5618,-23.99354 166.3636,-10.73687 44.0295,10.65082 85.093,32.58621 119.4757,62.0797 34.3827,29.49349 62.1382,66.43106 82.3394,106.97669 40.4023,81.09125 50.0538,175.13312 39.1569,265.0742 -19.0593,157.3116462 -101.3852,306.36371 -225.4848,404.90055 -124.0995,98.53684 -288.6789,144.9661 -445.7599,124.09077 -129.8835,-17.26092 -252.8092,-79.43969 -346.2562,-171.28376 -93.447,-91.844078 -157.3928,-212.547932 -184.4918,-340.74045 -21.266,-100.59934 -19.3569,-209.48069 26.4955,-301.51342 22.9262,-46.01636 56.6965,-86.97786 99.192,-115.91307 42.4956,-28.93521 93.827,-45.46376 145.2151,-43.92179 41.8778,1.2566 83.0976,14.40326 118.99,36.01502 35.8923,21.61176 66.5158,51.52827 90.5659,85.8346 48.1001,68.61265 69.2868,153.14985 74.3466,236.79028 0.7746,12.8041 1.1945,25.62966 1.259,38.457"
       id="path4141-0-4-7"
       inkscape:path-effect="#path-effect4143-0-2-0"
       inkscape:original-d="m -1872.5179,-610.52437 c 0,0 208.8579,279.31941 188.7512,436.57978 -28.0861,219.670225 -189.2944,494.99029 -408.6163,523.9201 -290.2639,38.28749 -678.1695,-237.13323 -701.4875,-529.52478 -15.4872,-194.19744 211.4254,-446.4245 404.2564,-421.35218 163.8948,21.30994 273.5435,271.79593 240.972,434.13059 -56.1033,279.61764 -386.9281,543.2447 -671.2447,528.99132 -245.2925,-12.29702 -497.3687,-268.502758 -530.748,-512.02421 -24.2167,-176.67447 88.114,-450.6166 270.9026,-461.34828 103.0825,-6.05204 236.8078,249.24711 283.9025,358.6399 22.0543,51.22864 1.259,38.457 1.259,38.457"
       inkscape:connector-curvature="0"
       sodipodi:nodetypes="caaaaaaassc" />
    <path
       style="color:#000000;font-style:normal;font-variant:normal;font-weight:normal;font-stretch:normal;font-size:medium;line-height:normal;font-family:sans-serif;text-indent:0;text-align:start;text-decoration:none;text-decoration-line:none;text-decoration-style:solid;text-decoration-color:#000000;letter-spacing:normal;word-spacing:normal;text-transform:none;direction:ltr;block-progression:tb;writing-mode:lr-tb;baseline-shift:baseline;text-anchor:start;white-space:normal;clip-rule:nonzero;display:inline;overflow:visible;visibility:visible;opacity:1;isolation:auto;mix-blend-mode:normal;color-interpolation:sRGB;color-interpolation-filters:linearRGB;solid-color:#000000;solid-opacity:1;fill:#000000;fill-opacity:1;fill-rule:evenodd;stroke:none;stroke-width:70.00001526;stroke-linecap:round;stroke-linejoin:round;stroke-miterlimit:4;stroke-dasharray:none;stroke-dashoffset:0;stroke-opacity:1;color-rendering:auto;image-rendering:auto;shape-rendering:auto;text-rendering:auto;enable-background:accumulate"
       d="m -2426.6816,825.86328 c -59.5814,-1.78782 -117.7566,17.15151 -165.9649,49.97656 -48.0671,32.72884 -85.4734,78.35939 -110.8203,129.23436 -50.593,101.5478 -51.8227,218.3476 -29.4121,324.3613 28.4838,134.7435 95.5155,261.4681 194.2031,358.4629 98.7586,97.0646 228.2721,162.6906 366.1778,181.0176 115.2521,15.3165 233.5876,-3.3109 339.1621,-50.6972 124.4019,58.2269 268.5731,73.3348 402.0156,37.5624 122.3011,-32.7856 232.3278,-106.3801 309.8984,-206.2714 77.5556,-99.872 121.48309,-224.3155 124.64456,-350.5782 4.36301,-174.2491 -70.47916,-347.35847 -200.41016,-463.54683 -14.3719,-13.20287 -36.7652,-12.10276 -49.7738,2.44518 -13.0086,14.54795 -11.6078,36.92446 3.1136,49.73646 113.9918,101.93499 180.9196,256.73999 177.0918,409.61329 -2.7821,111.113 -41.872,221.7252 -109.9531,309.3965 -68.0661,87.6519 -165.6854,152.8962 -272.7363,181.5937 -98.9292,26.5203 -206.2935,20.6068 -303.7227,-13.1113 18.2162,-11.5769 35.867,-24.0707 52.8047,-37.5195 131.6571,-104.5378 218.2776,-261.4616 238.4668,-428.0996 11.5441,-95.2828 1.6506,-196.1253 -42.5762,-284.8926 -22.1239,-44.40473 -52.6003,-85.09823 -90.8789,-117.93362 -38.326,-32.87612 -84.1633,-57.46958 -134.0332,-69.5332 -62.1289,-15.02913 -127.5414,-9.80906 -186.6582,11.90039 -59.0087,21.66979 -110.8619,59.18684 -151.4414,105.93555 -29.4003,33.87008 -52.3567,71.97118 -69.5742,112.45508 -12.5235,-36.7772 -29.6193,-72.18386 -52.459,-104.76368 l 0,-0.002 c -26.5764,-37.91006 -60.5864,-71.29012 -101.1699,-95.72656 -40.6635,-24.48458 -87.4894,-39.56018 -135.9941,-41.01563 z m -2.0996,69.96875 c 35.2508,1.05775 70.863,12.27668 101.9843,31.01563 31.2012,18.78709 58.4372,45.2388 79.961,75.94144 43.1162,61.5035 63.2802,139.6314 68.0703,218.8125 0.7355,12.1589 1.134,24.3387 1.3333,38.3358 0.1993,13.9971 0.2186,23.9262 0.5866,33.8146 6.6549,178.8163 94.8949,351.9812 237.4785,460.621 8.8721,6.76 17.9377,13.2482 27.1738,19.4668 -80.576,27.3131 -167.1967,36.8335 -251.082,25.6856 -121.8615,-16.1948 -238.1985,-74.9271 -326.334,-161.5508 -88.2064,-86.6934 -149.067,-201.376 -174.7812,-323.0176 -20.1215,-95.1848 -17.5337,-196.1483 23.5781,-278.666 20.5055,-41.15768 50.6404,-77.4502 87.5645,-102.59178 36.7826,-25.04535 81.2719,-39.16331 124.4668,-37.86719 z m 628.1816,2.74219 c 18.5346,0.0927 36.9529,2.23639 54.7558,6.54297 38.1892,9.23802 74.4787,28.51609 104.918,54.62695 30.4868,26.15159 55.5204,59.33306 73.7988,96.01956 36.5779,73.4152 45.988,160.6564 35.7383,245.2558 -17.9293,147.9854 -95.96,289.1632 -212.5019,381.6993 -27.603,21.9171 -57.4632,41.0036 -88.834,57.2636 -22.403,-12.1946 -43.9709,-25.8614 -64.2188,-41.289 -124.9716,-95.2206 -204.0962,-250.2242 -209.9511,-407.545 -3.9213,-105.3644 25.5496,-213.4778 92.2734,-290.3457 33.3402,-38.40882 75.8648,-68.91064 122.709,-86.11325 29.2101,-10.72684 60.4215,-16.26971 91.3125,-16.11523 z"
       id="path4141-0-4-7-3"
       inkscape:connector-curvature="0"
       sodipodi:nodetypes="cssssscssscscssscssssssscccsccsssscsscsssssssssssscsssss" />
  </g>
</svg>
