<?xml version="1.0" encoding="UTF-8" standalone="no"?>
<!-- Created with Inkscape (http://www.inkscape.org/) -->

<svg
   xmlns:dc="http://purl.org/dc/elements/1.1/"
   xmlns:cc="http://creativecommons.org/ns#"
   xmlns:rdf="http://www.w3.org/1999/02/22-rdf-syntax-ns#"
   xmlns:svg="http://www.w3.org/2000/svg"
   xmlns="http://www.w3.org/2000/svg"
   xmlns:sodipodi="http://sodipodi.sourceforge.net/DTD/sodipodi-0.dtd"
   xmlns:inkscape="http://www.inkscape.org/namespaces/inkscape"
   width="2000"
   height="2048"
   id="svg2992"
   version="1.1"
   inkscape:version="0.91 r13725"
   sodipodi:docname="യ്യ.svg">
  <defs
     id="defs5498">
    <inkscape:path-effect
       effect="spiro"
       id="path-effect4151"
       is_visible="true" />
    <inkscape:path-effect
       effect="spiro"
       id="path-effect6255"
       is_visible="true" />
    <inkscape:path-effect
       effect="spiro"
       id="path-effect4143-0"
       is_visible="true" />
    <inkscape:path-effect
       effect="spiro"
       id="path-effect4151-1"
       is_visible="true" />
    <inkscape:path-effect
       effect="spiro"
       id="path-effect4143-0-2"
       is_visible="true" />
    <inkscape:path-effect
       effect="spiro"
       id="path-effect4151-1-6"
       is_visible="true" />
    <inkscape:path-effect
       effect="spiro"
       id="path-effect4143-0-2-5"
       is_visible="true" />
    <inkscape:path-effect
       effect="spiro"
       id="path-effect4143-0-2-55"
       is_visible="true" />
    <inkscape:path-effect
       effect="spiro"
       id="path-effect4151-1-7"
       is_visible="true" />
    <inkscape:path-effect
       effect="spiro"
       id="path-effect4151-1-7-0"
       is_visible="true" />
    <inkscape:path-effect
       effect="spiro"
       id="path-effect4143-0-2-55-3"
       is_visible="true" />
    <inkscape:path-effect
       effect="spiro"
       id="path-effect4143-0-2-55-0"
       is_visible="true" />
    <inkscape:path-effect
       effect="spiro"
       id="path-effect4151-1-7-1"
       is_visible="true" />
    <inkscape:path-effect
       effect="spiro"
       id="path-effect4151-1-8"
       is_visible="true" />
    <inkscape:path-effect
       effect="spiro"
       id="path-effect4143-0-2-2"
       is_visible="true" />
  </defs>
  <sodipodi:namedview
     inkscape:window-height="844"
     inkscape:window-width="1600"
     inkscape:pageshadow="2"
     inkscape:pageopacity="0.0"
     borderopacity="1.0"
     bordercolor="#666666"
     pagecolor="#ffffff"
     id="base"
     showgrid="true"
     showguides="true"
     inkscape:guide-bbox="true"
     inkscape:zoom="0.16051324"
     inkscape:cx="856.9571"
     inkscape:cy="-285.93711"
     inkscape:window-x="1600"
     inkscape:window-y="0"
     inkscape:current-layer="layer1"
     inkscape:window-maximized="1">
    <sodipodi:guide
       orientation="horizontal"
       position="0,600"
       id="guide5596" />
    <inkscape:grid
       type="xygrid"
       id="grid3769"
       empspacing="3"
       visible="true"
       enabled="true"
       snapvisiblegridlinesonly="true"
       spacingx="4px"
       units="px"
       dotted="true"
       spacingy="4px" />
    <sodipodi:guide
       orientation="0,1"
       position="-1040,1600"
       id="guide2985" />
  </sodipodi:namedview>
  <metadata
     id="metadata5594">
    <rdf:RDF>
      <cc:Work
         rdf:about="">
        <dc:format>image/svg+xml</dc:format>
        <dc:type
           rdf:resource="http://purl.org/dc/dcmitype/StillImage" />
        <dc:title />
      </cc:Work>
    </rdf:RDF>
  </metadata>
  <g
     inkscape:label="Layer 1"
     inkscape:groupmode="layer"
     id="layer1"
     transform="translate(0,1048)">
    <path
       style="fill:none;fill-rule:evenodd;stroke:#000000;stroke-width:140;stroke-linecap:round;stroke-linejoin:round;stroke-miterlimit:4;stroke-dasharray:none;stroke-opacity:1"
       d="m -394.15325,-554.9883 c 75.52325,50.20545 136.32945,122.27258 173.10905,205.16775 36.77961,82.89518 49.40825,176.33811 35.95246,266.022502 -15.56172,103.720693 -66.0408,201.631228 -140.31737,275.679458 -74.27656,74.04823 -171.80871,124.06832 -274.99243,142.86379 -122.99323,22.40388 -253.19385,0.23574 -363.13737,-59.27635 -109.94349,-59.51209 -199.21139,-155.61541 -252.90549,-268.5145262 -30.155,-63.4050568 -49.4327,-132.3726638 -52.6504,-202.5094938 -3.2176,-70.13683 9.9486,-141.4357 41.4691,-204.17316 31.5204,-62.73747 81.762,-116.53888 144.0237,-148.98896 62.2617,-32.45008 136.48429,-42.72782 204.37744,-24.83792 84.97711,22.39154 155.31795,87.71288 193.4687,166.87734 38.15075,79.16445 46.02774,170.75395 32.57952,257.59654 -21.96552,141.8434912 -100.91793,273.89042 -214.97531,361.02808 -114.05739,87.13767 -261.87975,128.58371 -404.69775,114.26333 -117.455,-11.77722 -230.927,-60.65904 -320.112,-137.99206 -89.1851,-77.33301 -153.656,-182.7649483 -181.7658,-297.41315 -23.694,-96.63812 -20.9791,-202.29226 23.0147,-291.53846 21.9968,-44.62311 54.1097,-84.49872 94.3177,-113.79716 40.208,-29.29844 88.5757,-47.76987 138.2441,-50.62202 72.6089,-4.16948 146.4451,26.4933 194.7401,80.87188 48.295,54.37859 70.0239,131.31911 57.3093,202.92758"
       id="path4141-0-8"
       inkscape:path-effect="#path-effect4143-0-2"
       inkscape:original-d="m -394.15325,-554.9883 c 0,0 240.15591,302.19807 209.06151,471.190252 C -220.65834,109.4996 -406.07015,305.34643 -600.40154,334.7452 -830.39194,369.5385 -1152.6599,230.64548 -1216.4444,6.9543238 -1277.8092,-208.25049 -1102.9691,-577.68623 -879.22456,-573.55521 c 160.27652,2.9592 260.02652,267.81247 226.04822,424.47388 -55.1778,254.40459 -359.47166,483.13902 -619.67306,475.29141 -221.3739,-6.67658 -463.8287,-217.22345 -501.8778,-435.40521 -29.9332,-171.64329 82.3515,-437.23531 255.5765,-455.95764 125.7897,-13.59548 252.0494,283.79946 252.0494,283.79946"
       inkscape:connector-curvature="0"
       sodipodi:nodetypes="caaaaaaaac" />
    <path
       style="fill:none;fill-rule:evenodd;stroke:#000000;stroke-width:140;stroke-linecap:round;stroke-linejoin:round;stroke-miterlimit:4;stroke-dasharray:none;stroke-opacity:1"
       d="m -708.01854,397.687 c -39.50133,82.82564 -97.03406,156.99458 -167.43539,215.85113 -84.59302,70.72101 -187.72877,119.06146 -296.20257,138.83217 l 813.99995,-2 -0.4601,-401.1738"
       id="path4149-0"
       inkscape:path-effect="#path-effect4151-1"
       inkscape:original-d="m -708.01854,397.687 c 0,0 -96.32624,158.97142 -167.43539,215.85113 -85.15152,68.11209 -296.20257,138.83217 -296.20257,138.83217 l 813.99995,-2 -0.4601,-401.1738"
       inkscape:connector-curvature="0"
       sodipodi:nodetypes="caccc" />
    <path
       style="color:#000000;font-style:normal;font-variant:normal;font-weight:normal;font-stretch:normal;font-size:medium;line-height:normal;font-family:sans-serif;text-indent:0;text-align:start;text-decoration:none;text-decoration-line:none;text-decoration-style:solid;text-decoration-color:#000000;letter-spacing:normal;word-spacing:normal;text-transform:none;direction:ltr;block-progression:tb;writing-mode:lr-tb;baseline-shift:baseline;text-anchor:start;white-space:normal;clip-rule:nonzero;display:inline;overflow:visible;visibility:visible;opacity:1;isolation:auto;mix-blend-mode:normal;color-interpolation:sRGB;color-interpolation-filters:linearRGB;solid-color:#000000;solid-opacity:1;fill:#000000;fill-opacity:1;fill-rule:evenodd;stroke:none;stroke-width:140;stroke-linecap:round;stroke-linejoin:round;stroke-miterlimit:4;stroke-dasharray:none;stroke-dashoffset:0;stroke-opacity:1;color-rendering:auto;image-rendering:auto;shape-rendering:auto;text-rendering:auto;enable-background:accumulate"
       d="M 989.27539 417.70508 C 931.04198 417.8257 873.51417 432.54833 822.1582 459.31445 C 769.87379 486.56448 725.45454 525.27707 690.51562 570.92969 C 683.05646 559.95686 674.94616 549.3687 666.04102 539.3418 C 602.89885 468.24575 509.88005 429.61707 414.94922 435.06836 C 350.60796 438.76308 289.97879 462.21521 239.49414 499.00195 C 189.19137 535.65615 150.24388 584.39871 123.61328 638.42188 C 70.437309 746.29532 68.599959 868.28025 95.398438 977.58008 C 127.03943 1106.6306 198.9311 1224.1864 299.29297 1311.2109 C 399.65073 1398.2319 526.14536 1452.7177 658.2793 1465.9668 C 763.4865 1476.5159 870.16139 1460.3159 967.43359 1420.4648 C 1024.0671 1447.7888 1084.6348 1466.5982 1146.6758 1476.1582 C 1113.1599 1534.4078 1069.2406 1586.9007 1017.7598 1629.9395 C 942.60411 1692.7707 850.27648 1736.0463 753.9043 1753.6113 A 70.007 70.007 0 0 0 766.62695 1892.4766 L 1580.627 1890.4766 A 70.007 70.007 0 0 0 1650.4551 1820.3965 L 1649.9961 1419.2227 A 70.007 70.007 0 0 0 1611.9375 1356.0527 C 1629.4706 1342.2433 1646.2392 1327.3975 1662.125 1311.5605 C 1747.0209 1226.9256 1804.3478 1115.9877 1822.2461 996.69336 C 1837.714 893.59802 1823.3321 787.18731 1781.0527 691.89648 C 1738.7733 596.60562 1669.5275 514.53712 1582.7109 456.82422 A 70.007 70.007 0 1 0 1505.207 573.41211 C 1569.4369 616.11011 1621.8042 678.17631 1653.084 748.67578 C 1684.3638 819.17527 1695.2386 899.64844 1683.7949 975.92188 C 1670.5698 1064.0689 1626.9385 1148.9525 1563.2812 1212.4141 C 1499.5406 1275.9589 1414.4593 1319.7191 1325.166 1335.9844 C 1259.0677 1348.0245 1189.7184 1345.0803 1123.6484 1328.6875 C 1246.2681 1230.4413 1330.0035 1087.4138 1354.1113 931.73633 C 1369.3312 833.45316 1361.0977 727.8306 1315.416 633.03906 C 1269.1944 537.12709 1184.9342 457.37464 1076.7246 428.86133 C 1049.7133 421.74382 1022.2544 418.12498 994.91211 417.73828 C 993.03233 417.7117 991.15389 417.70119 989.27539 417.70508 z M 990.50391 557.94922 C 1007.7965 557.91513 1024.8578 559.97338 1041.0508 564.24023 C 1102.7954 580.51 1159.2171 631.40141 1189.2969 693.81836 C 1219.9166 757.35575 1227.4363 834.91047 1215.7598 910.3125 C 1196.6708 1033.5803 1126.7964 1150.5404 1027.4648 1226.4277 C 1009.9946 1239.7747 991.49856 1251.8405 972.27344 1262.7148 C 892.17436 1210.1611 826.28042 1134.0402 784.88281 1046.9961 C 758.21396 990.92123 741.67069 930.79284 738.94336 871.34375 C 736.22587 812.10928 747.55549 752.51875 773.03516 701.80469 C 798.36678 651.38528 839.0361 608.38986 886.86328 583.46289 C 916.49714 568.01807 950.04096 559.29076 983.08008 558.0918 C 985.55801 558.00187 988.03354 557.95409 990.50391 557.94922 z M 432.44922 574.59375 C 480.01132 574.84584 530.00598 597.00128 561.36328 632.30859 C 594.81108 669.96973 610.89566 726.92153 602.08984 776.51562 A 70.007 70.007 0 0 0 601.62695 799.72461 C 598.85856 825.71928 597.90238 851.83346 599.0918 877.75977 C 602.79977 958.58433 624.8119 1036.3898 658.45312 1107.125 C 696.73118 1187.6098 750.96192 1260.181 817.29883 1319.6152 C 769.44927 1328.8954 720.37622 1331.492 672.24609 1326.666 C 569.47011 1316.3607 469.02213 1273.0826 391.00977 1205.4375 C 313.0015 1137.796 255.9497 1044.4881 231.37109 944.24219 C 210.78149 860.26578 214.37408 770.94125 249.18555 700.32227 C 266.54867 665.09923 291.82814 634.09112 321.94141 612.14844 C 351.87279 590.33828 387.97909 576.84747 422.97461 574.83789 C 426.11754 574.65741 429.27841 574.57694 432.44922 574.59375 z M 1509.998 1420.5547 L 1510.375 1750.6484 L 1089.8301 1751.6816 C 1095.8126 1747.001 1101.7241 1742.2257 1107.5566 1737.3496 C 1185.7619 1671.9688 1249.3953 1589.9327 1293.2754 1497.9258 A 70.007 70.007 0 0 0 1299.0645 1480.7695 C 1316.183 1479.1541 1333.2638 1476.8139 1350.2559 1473.7188 C 1405.738 1463.6124 1459.6254 1445.6506 1509.998 1420.5547 z "
       transform="translate(0,-1048)"
       id="path4141-0-8-4" />
    <path
       style="fill:none;fill-rule:evenodd;stroke:#000000;stroke-width:70;stroke-linecap:round;stroke-linejoin:round;stroke-miterlimit:4;stroke-dasharray:none;stroke-opacity:1"
       d="m -2141.1112,-580.95304 c 79.0188,52.57461 142.6338,128.01188 181.1137,214.77225 38.4799,86.76036 51.6949,184.55098 37.6235,278.412905 -16.2726,108.545185 -69.069,211.020825 -146.7794,288.531735 -77.7105,77.51091 -179.7699,129.88081 -287.7515,149.54889 -128.696,23.44106 -264.9326,0.21179 -379.9589,-62.08658 -115.0264,-62.29837 -208.4076,-162.87378 -264.5954,-281.005401 -31.5627,-66.358731 -51.7487,-138.536449 -55.1302,-211.941139 -3.3815,-73.40469 10.3807,-148.02917 43.3551,-213.69779 32.9745,-65.66862 85.546,-121.98919 150.7042,-155.96105 65.1583,-33.97186 142.8416,-44.73465 213.8977,-26.00743 88.9352,23.43936 162.5423,91.82086 202.4536,174.68204 39.9112,82.86118 48.1356,178.71789 34.0565,269.60606 -22.9923,148.4274459 -105.5695,286.61824 -224.8965,377.83461 -119.3269,91.21637 -274.0078,134.63119 -423.4558,119.64315 -122.9105,-12.32661 -241.6437,-63.51298 -334.9495,-144.46346 -93.3057,-80.95049 -160.74,-191.2927827 -190.1561,-311.26624 -24.7981,-101.13915 -21.9787,-211.71169 24.0439,-305.12472 23.0113,-46.70651 56.6107,-88.44708 98.6858,-119.11799 42.0752,-30.67091 92.6937,-50.01043 144.6753,-52.99878 75.9913,-4.36864 153.2693,27.72906 203.8035,84.6506 50.5343,56.92154 73.2513,137.45775 59.9112,212.39647"
       id="path4141-0-8-1"
       inkscape:path-effect="#path-effect4143-0-2-55"
       inkscape:original-d="m -2141.1112,-580.95304 c 0,0 251.2708,316.30451 218.7372,493.185155 -37.2126,202.320675 -231.2056,407.309535 -434.5309,438.080625 -240.6347,36.41745 -577.8178,-108.95903 -644.5543,-343.091981 -64.2048,-225.250449 118.7272,-611.931259 352.8268,-607.607409 167.6944,3.09734 272.061,280.31381 236.5101,444.2881 -57.7315,266.28006 -376.1085,505.69169 -648.3523,497.47776 -231.6195,-6.98824 -485.2955,-227.36333 -525.1056,-455.7297 -31.3185,-179.6555 86.1628,-457.64522 267.405,-477.24149 131.6114,-14.23011 263.7147,297.04707 263.7147,297.04707"
       inkscape:connector-curvature="0"
       sodipodi:nodetypes="caaaaaaaac" />
    <path
       style="fill:none;fill-rule:evenodd;stroke:#000000;stroke-width:70;stroke-linecap:round;stroke-linejoin:round;stroke-miterlimit:4;stroke-dasharray:none;stroke-opacity:1"
       d="m -2469.5027,399.67705 c -38.2445,93.08437 -98.8136,176.9076 -175.1845,242.44251 -87.6534,75.21656 -196.03,126.03277 -309.9112,145.31281 l 851.673,-2.09336 -0.4813,-522.09164"
       id="path4149-0-2"
       inkscape:path-effect="#path-effect4151-1-7"
       inkscape:original-d="m -2469.5027,399.67705 c 0,0 -98.4061,178.8448 -175.1845,242.44251 -87.872,72.78688 -309.9112,145.31281 -309.9112,145.31281 l 851.673,-2.09336 -0.4813,-522.09164"
       inkscape:connector-curvature="0"
       sodipodi:nodetypes="caccc" />
    <path
       style="color:#000000;font-style:normal;font-variant:normal;font-weight:normal;font-stretch:normal;font-size:medium;line-height:normal;font-family:sans-serif;text-indent:0;text-align:start;text-decoration:none;text-decoration-line:none;text-decoration-style:solid;text-decoration-color:#000000;letter-spacing:normal;word-spacing:normal;text-transform:none;direction:ltr;block-progression:tb;writing-mode:lr-tb;baseline-shift:baseline;text-anchor:start;white-space:normal;clip-rule:nonzero;display:inline;overflow:visible;visibility:visible;opacity:1;isolation:auto;mix-blend-mode:normal;color-interpolation:sRGB;color-interpolation-filters:linearRGB;solid-color:#000000;solid-opacity:1;fill:#000000;fill-opacity:1;fill-rule:evenodd;stroke:none;stroke-width:70;stroke-linecap:round;stroke-linejoin:round;stroke-miterlimit:4;stroke-dasharray:none;stroke-dashoffset:0;stroke-opacity:1;color-rendering:auto;image-rendering:auto;shape-rendering:auto;text-rendering:auto;enable-background:accumulate"
       d="M -321.4082 3475.4219 C -376.03893 3475.5771 -430.3694 3489.382 -478.71094 3514.5859 C -546.40374 3549.8793 -600.95015 3606.1631 -637.23633 3672.0664 C -649.40159 3642.163 -666.53091 3614.2272 -688.19727 3589.8223 C -746.15583 3524.538 -833.02785 3488.4544 -920.18359 3493.4648 C -979.50361 3496.8751 -1036.2532 3518.7065 -1083.4668 3553.123 C -1130.5893 3587.4733 -1167.6065 3633.6498 -1192.9336 3685.0566 C -1243.5451 3787.7836 -1245.9234 3906.519 -1219.5742 4013.9844 C -1188.394 4141.1528 -1117.2537 4257.5562 -1018.3613 4343.3535 C -919.4704 4429.1497 -794.22287 4483.1418 -663.9668 4496.2051 C -554.5885 4507.1745 -443.07037 4488.7722 -342.82227 4444.5137 C -268.85321 4482.7265 -187.31452 4505.9597 -104.41211 4512.418 C -140.64813 4597.9117 -197.02012 4675.0957 -267.48047 4735.5586 C -350.22602 4806.5637 -452.93657 4854.7233 -560.44141 4872.9238 A 35.0035 35.0035 0 0 0 -554.51172 4942.4316 L 297.16016 4940.3398 A 35.0035 35.0035 0 0 0 332.07422 4905.3066 L 331.59375 4383.2148 A 35.0035 35.0035 0 0 0 329.22461 4370.1582 C 338.25552 4362.2448 347.04475 4354.0408 355.5625 4345.5449 C 438.5816 4262.739 494.79884 4153.7501 512.23828 4037.4219 C 527.31447 3936.8576 513.22374 3832.5845 471.99609 3739.6289 C 430.76846 3646.6732 362.93866 3566.237 278.27734 3509.9082 A 35.0035 35.0035 0 1 0 239.50195 3568.1855 C 312.8783 3617.006 372.27563 3687.4446 408.00781 3768.0098 C 443.73999 3848.5748 456.08027 3939.8835 443.01367 4027.043 C 427.90783 4127.8051 378.53071 4223.7665 306.12891 4295.9824 C 233.68582 4368.2395 137.85505 4417.4768 36.824219 4435.8789 C -63.611728 4454.1726 -169.68573 4441.9105 -264.83789 4403.4043 C -247.96569 4392.9269 -231.58129 4381.6343 -215.76367 4369.543 C -89.076111 4272.7001 -1.9649754 4126.9675 22.464844 3969.2598 C 37.429454 3872.6551 29.028505 3769.7827 -14.646484 3679.1074 C -58.591661 3587.8712 -139.15809 3512.2713 -239.71289 3485.7695 C -264.81622 3479.1534 -290.48158 3475.7907 -316.12109 3475.4492 C -317.88381 3475.4257 -319.64592 3475.4169 -321.4082 3475.4219 z M -321.25391 3545.5469 C -319.86458 3545.5403 -318.47598 3545.5449 -317.08789 3545.5605 C -296.89755 3545.7874 -276.85948 3548.3686 -257.55273 3553.457 C -180.23707 3573.834 -113.58822 3634.9982 -77.710938 3709.4844 C -41.563468 3784.5315 -33.515406 3873.3713 -46.708984 3958.543 C -68.263685 4097.6902 -146.30901 4228.34 -258.27539 4313.9297 C -284.07175 4333.649 -311.75285 4350.8884 -340.70117 4365.7539 C -439.4996 4306.6279 -520.20847 4216.5593 -569.85156 4112.1875 C -599.67208 4049.4915 -618.49155 3981.732 -621.62695 3913.6699 C -624.7574 3845.7152 -611.91042 3776.9431 -581.95508 3717.2871 C -552.07381 3657.7786 -504.28968 3606.8648 -446.34961 3576.6562 C -407.89834 3556.6088 -364.32307 3545.7521 -321.25391 3545.5469 z M -903.98438 3563.0215 C -842.97469 3563.2171 -780.96047 3590.7711 -740.54492 3636.2949 C -697.435 3684.8538 -677.53774 3755.3914 -688.91797 3819.3203 A 35.0035 35.0035 0 0 0 -688.42773 3834.5684 C -691.71182 3861.9183 -692.81473 3889.4957 -691.55273 3916.8906 C -687.9251 3995.638 -666.37119 4072.2325 -633.06641 4142.2539 C -584.63666 4244.0747 -510.25461 4333.3508 -418.26562 4398.6426 C -494.78702 4424.5826 -576.84231 4434.5919 -656.98242 4426.5547 C -772.54735 4414.9648 -884.76782 4366.5833 -972.48828 4290.4785 C -1060.2074 4214.3749 -1123.9359 4110.0931 -1151.5879 3997.3145 C -1174.8349 3902.5014 -1171.5745 3800.0912 -1130.1406 3715.9922 C -1109.4451 3673.9861 -1079.2601 3636.681 -1042.2324 3609.6895 C -1005.2956 3582.7642 -960.80924 3565.9161 -916.16602 3563.3496 C -912.11433 3563.1167 -908.05169 3563.0084 -903.98438 3563.0215 z M 261.62891 4421.0312 L 262.04297 4870.4258 L -344.06836 4871.9141 C -300.50695 4848.7241 -259.41371 4820.8774 -221.89453 4788.6816 C -141.27086 4719.4974 -77.503051 4631.2464 -37.128906 4532.9785 A 35.0035 35.0035 0 0 0 -34.773438 4513.8633 C -6.6042784 4512.8279 21.523382 4509.8176 49.367188 4504.7461 C 124.73303 4491.0187 197.24111 4462.427 261.62891 4421.0312 z "
       transform="translate(0,-1048)"
       id="path4141-0-8-1-8" />
    <path
       style="color:#000000;font-style:normal;font-variant:normal;font-weight:normal;font-stretch:normal;font-size:medium;line-height:normal;font-family:sans-serif;text-indent:0;text-align:start;text-decoration:none;text-decoration-line:none;text-decoration-style:solid;text-decoration-color:#000000;letter-spacing:normal;word-spacing:normal;text-transform:none;direction:ltr;block-progression:tb;writing-mode:lr-tb;baseline-shift:baseline;text-anchor:start;white-space:normal;clip-rule:nonzero;display:inline;overflow:visible;visibility:visible;opacity:1;isolation:auto;mix-blend-mode:normal;color-interpolation:sRGB;color-interpolation-filters:linearRGB;solid-color:#000000;solid-opacity:1;fill:#000000;fill-opacity:1;fill-rule:evenodd;stroke:none;stroke-width:200;stroke-linecap:round;stroke-linejoin:round;stroke-miterlimit:4;stroke-dasharray:none;stroke-dashoffset:0;stroke-opacity:1;color-rendering:auto;image-rendering:auto;shape-rendering:auto;text-rendering:auto;enable-background:accumulate"
       d="M 2891.0977 1901.543 C 2827.9106 1901.6421 2765.7736 1917.6286 2710.1797 1946.6035 C 2665.4748 1969.9032 2626.3462 2000.83 2593.3965 2036.9375 C 2592.3645 2035.7427 2591.4095 2034.4969 2590.3594 2033.3145 C 2520.8541 1955.0538 2419.6146 1913.0111 2315.1172 1919.0117 C 2244.4875 1923.0675 2178.6037 1948.6525 2123.7148 1988.6484 A 100.01 100.01 0 0 0 2123.7148 1988.6504 C 2069.0859 2028.4571 2027.2103 2080.9991 1998.5938 2139.0508 C 1941.4824 2254.9074 1940.0215 2383.889 1968.1504 2498.6152 C 2001.3048 2633.8381 2076.3754 2756.5897 2181.5273 2847.7676 C 2286.6734 2938.9407 2418.7489 2995.8292 2557.1738 3009.709 C 2663.1123 3020.3315 2770.2111 3005.2976 2868.6836 2967.1172 C 2910.7478 2986.3642 2954.7239 3001.1876 2999.7578 3011.3184 C 2971.7783 3052.1252 2938.2225 3089.2015 2900.4062 3120.8164 C 2829.2953 3180.2663 2741.5978 3221.3705 2650.4121 3237.9902 A 100.01 100.01 0 0 0 2668.5898 3436.3691 L 3482.5898 3434.3691 A 100.01 100.01 0 0 0 3582.3438 3334.2559 L 3581.8828 2933.082 A 100.01 100.01 0 0 0 3560.4355 2870.0195 C 3568.889 2862.492 3577.1482 2854.7196 3585.1934 2846.6992 C 3674.6403 2757.5271 3734.9011 2641.0059 3753.8008 2515.0371 C 3770.131 2406.1942 3754.9997 2294.2244 3710.3633 2193.6211 C 3665.7268 2093.0179 3592.8636 2006.6628 3501.207 1945.7324 A 100.01 100.01 0 1 0 3390.4863 2112.2871 C 3449.8761 2151.7675 3498.6261 2209.5474 3527.5488 2274.7344 C 3556.4716 2339.9216 3566.597 2414.8374 3556.0156 2485.3633 C 3543.7919 2566.8359 3503.0944 2646.136 3443.9883 2705.0605 C 3384.7628 2764.1039 3305.018 2805.1804 3221.6777 2820.3613 C 3179.2915 2828.0822 3135.2741 2829.1366 3091.7363 2824.084 C 3194.2898 2724.36 3263.5912 2592.6438 3285.6465 2450.2207 C 3301.6256 2347.0344 3293.2373 2235.3951 3244.3281 2133.9062 C 3194.6476 2030.8169 3104.4222 1944.8811 2986.2559 1913.7441 C 2956.7611 1905.9722 2926.8919 1902.0179 2897.2148 1901.582 L 2897.2148 1901.584 C 2895.1746 1901.554 2893.1359 1901.5398 2891.0977 1901.543 z M 2892.3242 2101.8965 C 2907.1735 2101.8407 2921.7096 2103.5648 2935.2949 2107.1445 C 2987.0828 2120.7907 3037.5393 2165.4969 3064.1602 2220.7363 C 3091.5524 2277.5765 3098.9192 2349.1163 3088.002 2419.6152 C 3070.1459 2534.922 3004.1591 2645.4166 2911.1387 2716.4824 C 2899.6694 2725.2446 2887.7227 2733.4446 2875.3867 2741.0859 C 2806.8963 2692.1981 2750.2391 2624.4903 2713.8633 2548.0059 C 2688.689 2495.0729 2673.318 2438.7314 2670.8008 2383.8633 C 2668.2977 2329.3012 2678.8397 2274.729 2701.7305 2229.168 C 2724.4097 2184.0278 2760.9762 2145.6657 2802.6172 2123.9629 C 2828.274 2110.5909 2857.5129 2103.1031 2885.9434 2102.0312 L 2885.9434 2102.0293 C 2888.0756 2101.9489 2890.2029 2101.9045 2892.3242 2101.8965 z M 2334.2773 2118.4961 C 2373.0304 2118.7994 2415.4284 2137.5326 2440.8203 2166.123 C 2467.905 2196.6195 2481.5701 2245.0046 2474.4395 2285.1641 A 100.01 100.01 0 0 0 2473.2363 2314.8223 C 2470.681 2340.9132 2469.819 2367.0712 2471.0098 2393.0273 C 2474.9279 2478.4323 2498.1128 2560.0276 2533.248 2633.9043 C 2564.2027 2698.9906 2605.0774 2759.0814 2654.0938 2811.7246 C 2628.3648 2813.4778 2602.5805 2813.2612 2577.127 2810.709 C 2480.6419 2801.0344 2385.7748 2760.1592 2312.5508 2696.666 C 2239.3325 2633.178 2185.4617 2545.0657 2162.3965 2450.9922 C 2143.1374 2372.4422 2147.1062 2290.1163 2177.9824 2227.4805 C 2193.3597 2196.286 2215.7091 2169.0794 2241.4961 2150.2891 C 2267.0232 2131.6882 2297.8749 2120.3321 2326.582 2118.6836 C 2329.1271 2118.5374 2331.6938 2118.4759 2334.2773 2118.4961 z M 3381.9375 2980.9004 L 3382.2285 3234.6152 L 3071.6133 3235.3789 C 3133.6391 3174.6547 3184.8068 3103.2282 3222.2422 3024.7344 A 100.01 100.01 0 0 0 3223.2598 3022.3887 C 3234.7033 3020.9489 3246.1279 3019.2 3257.5195 3017.125 C 3300.1734 3009.3554 3341.8987 2997.1882 3381.9375 2980.9004 z "
       transform="translate(0,-1048)"
       id="path4141-0-8-0" />
  </g>
</svg>
