<?xml version="1.0" encoding="UTF-8" standalone="no"?>
<!-- Created with Inkscape (http://www.inkscape.org/) -->

<svg
   xmlns:dc="http://purl.org/dc/elements/1.1/"
   xmlns:cc="http://creativecommons.org/ns#"
   xmlns:rdf="http://www.w3.org/1999/02/22-rdf-syntax-ns#"
   xmlns:svg="http://www.w3.org/2000/svg"
   xmlns="http://www.w3.org/2000/svg"
   xmlns:sodipodi="http://sodipodi.sourceforge.net/DTD/sodipodi-0.dtd"
   xmlns:inkscape="http://www.inkscape.org/namespaces/inkscape"
   sodipodi:docname="ര.svg"
   inkscape:version="0.91 r13725"
   version="1.1"
   id="svg2992"
   height="2000"
   width="2048">
  <defs
     id="defs5498">
    <inkscape:path-effect
       effect="spiro"
       id="path-effect4574"
       is_visible="true" />
    <filter
       inkscape:label="Black Hole"
       inkscape:menu="Morphology"
       inkscape:menu-tooltip="Creates a black light inside and outside"
       height="1.5"
       width="1.5"
       y="-0.25"
       x="-0.25"
       style="color-interpolation-filters:sRGB;"
       id="filter5478">
      <feGaussianBlur
         stdDeviation="5"
         in="SourceAlpha"
         result="result1"
         id="feGaussianBlur5480" />
      <feComposite
         operator="arithmetic"
         k2="3.2"
         k1="-1"
         k4="-2"
         result="result3"
         in2="result1"
         id="feComposite5482" />
      <feColorMatrix
         values="1 0 0 0 0 0 1 0 0 0 0 0 1 0 0 0 0 0 10 0 "
         result="result2"
         id="feColorMatrix5484" />
      <feComposite
         result="fbSourceGraphic"
         in="SourceGraphic"
         operator="out"
         in2="result2"
         id="feComposite5486" />
      <feBlend
         mode="multiply"
         in="result1"
         in2="fbSourceGraphic"
         result="result91"
         id="feBlend5488" />
      <feBlend
         mode="screen"
         in="fbSourceGraphic"
         in2="result91"
         id="feBlend5490" />
    </filter>
    <inkscape:path-effect
       effect="spiro"
       id="path-effect4141-3-4"
       is_visible="true" />
    <inkscape:path-effect
       effect="spiro"
       id="path-effect4141-3-4-6"
       is_visible="true" />
    <inkscape:path-effect
       effect="spiro"
       id="path-effect4141-3-4-6-5"
       is_visible="true" />
    <inkscape:path-effect
       effect="spiro"
       id="path-effect4141-3-4-6-8"
       is_visible="true" />
    <inkscape:path-effect
       effect="spiro"
       id="path-effect4141-3-4-6-0"
       is_visible="true" />
    <inkscape:path-effect
       effect="spiro"
       id="path-effect4141-3-4-6-0-1"
       is_visible="true" />
    <inkscape:path-effect
       effect="spiro"
       id="path-effect4141-3-4-6-0-1-5"
       is_visible="true" />
    <inkscape:path-effect
       effect="spiro"
       id="path-effect4141-3-4-6-0-3"
       is_visible="true" />
    <inkscape:path-effect
       effect="spiro"
       id="path-effect4141-3-4-6-0-9"
       is_visible="true" />
    <inkscape:path-effect
       effect="spiro"
       id="path-effect4141-3-4-6-0-1-8"
       is_visible="true" />
  </defs>
  <sodipodi:namedview
     inkscape:window-height="843"
     inkscape:window-width="1600"
     inkscape:pageshadow="2"
     inkscape:pageopacity="0.0"
     borderopacity="1.0"
     bordercolor="#666666"
     pagecolor="#ffffff"
     id="base"
     showgrid="true"
     showguides="true"
     inkscape:guide-bbox="true"
     inkscape:zoom="0.35355339"
     inkscape:cx="-650.90172"
     inkscape:cy="-374.81444"
     inkscape:window-x="1600"
     inkscape:window-y="0"
     inkscape:current-layer="layer1"
     inkscape:window-maximized="1"
     inkscape:snap-text-baseline="false">
    <sodipodi:guide
       orientation="horizontal"
       position="0,600"
       id="guide5596" />
    <inkscape:grid
       type="xygrid"
       id="grid3769"
       empspacing="5"
       visible="true"
       enabled="true"
       snapvisiblegridlinesonly="true" />
    <sodipodi:guide
       orientation="0,1"
       position="-1280,1600"
       id="guide4138" />
    <sodipodi:guide
       position="-940,1624"
       orientation="0,1"
       id="guide4159"
       inkscape:label=""
       inkscape:color="rgb(0,0,255)" />
  </sodipodi:namedview>
  <metadata
     id="metadata5594">
    <rdf:RDF>
      <cc:Work
         rdf:about="">
        <dc:format>image/svg+xml</dc:format>
        <dc:type
           rdf:resource="http://purl.org/dc/dcmitype/StillImage" />
        <dc:title />
      </cc:Work>
    </rdf:RDF>
  </metadata>
  <g
     inkscape:label="Layer 1"
     inkscape:groupmode="layer"
     id="layer1"
     transform="translate(0,1000)">
    <path
       style="fill:none;fill-rule:evenodd;stroke:#000000;stroke-width:140;stroke-linecap:round;stroke-linejoin:round;stroke-miterlimit:4;stroke-dasharray:none;stroke-opacity:1"
       d="m 1217.6514,113.3607 c 21.6631,-85.660104 7.868,-179.722712 -37.4795,-255.55512 -45.3474,-75.83241 -121.6851,-132.49483 -207.39905,-153.94397 -85.71393,-21.44914 -179.7418,-7.41918 -255.46074,38.11745 -75.71894,45.53664 -132.19057,122.01562 -153.42562,207.78284 -22.9022,92.500738 -4.11776,194.63259 50.76137,272.53752 54.87913,77.90493 145.03833,130.06501 239.99053,138.12588 57.46082,4.87808 116.0281,-5.85834 168.51461,-29.7479 52.4864,-23.88956 98.8463,-60.78696 134.8265,-105.85319 71.9605,-90.13245 100.2325,-211.642808 84.1035,-325.84448 -17.9392,-127.01889 -89.0999,-244.5764 -189.6417,-324.24417 C 951.89945,-504.9322 823.51214,-547.0987 695.24389,-548.79234 569.11848,-550.45769 441.80161,-513.03618 340.24686,-438.22292 238.69211,-363.40966 164.36127,-250.7352 141.59259,-126.67079 124.76576,-34.983 136.11533,61.678841 173.72278,146.97522 211.33022,232.2716 275.03924,305.848 354.08059,355.2672"
       id="path4139-1-0-5-6"
       inkscape:path-effect="#path-effect4141-3-4-6-0"
       inkscape:original-d="M 1217.6514,113.3607 C 1000.029,-258.90339 690.72136,-235.64737 563.88649,-50.2381 c -94.6986,138.431959 123.17043,403.75801 290.7519,410.6634 200.67381,8.26899 406.11921,-261.471497 387.44461,-461.44557 -21.9055,-234.57152 -311.28247,-443.6834 -546.83911,-447.77207 -232.03696,-4.02758 -495.7724,197.38302 -553.6513,422.12155 -43.786644,170.019588 212.488,481.93799 212.488,481.93799"
       inkscape:connector-curvature="0"
       sodipodi:nodetypes="caaaaac" />
    <path
       style="fill:none;fill-rule:evenodd;stroke:#000000;stroke-width:70;stroke-linecap:round;stroke-linejoin:round;stroke-miterlimit:4;stroke-dasharray:none;stroke-opacity:1"
       d="m -245.79406,-79.260107 c -20.0858,-85.455153 -71.38788,-163.211023 -142.04953,-215.297043 -70.66166,-52.08601 -160.11549,-78.08392 -247.68733,-71.98522 -87.57184,6.09871 -172.55852,44.24506 -235.31829,105.62285 -62.75978,61.37779 -102.7887,145.49417 -110.83547,232.908531 -7.97903,86.678461 15.64238,176.132519 66.41737,246.834149 50.775,70.70163 128.4608,121.84086 213.73969,139.28598 67.63516,13.83582 139.18932,6.67045 203.34902,-18.81441 64.1597,-25.48486 120.81069,-69.02749 163.23361,-123.49069 42.42293,-54.4632 70.66695,-119.636298 83.01035,-187.559677 12.3434,-67.923379 8.90674,-138.488003 -8.39299,-205.321113 -32.3441,-124.95323 -113.66374,-235.62864 -220.4161,-308.17782 -106.75236,-72.54917 -237.71345,-107.31544 -366.69612,-102.52781 -131.61433,4.88531 -262.37175,51.14731 -363.78775,135.17699 -101.416,84.02967 -171.9143,206.1998 -187.675,336.95835 -11.6329,96.511708 6.4754,196.402265 51.2463,282.68903 44.7708,86.28676 116.0158,158.60675 201.6225,204.66467"
       id="path4139-1-0-5-6-1"
       inkscape:path-effect="#path-effect4141-3-4-6-0-1"
       inkscape:original-d="m -245.79406,-79.260107 c -231.11389,-394.168033 -631.87007,-171.555983 -735.89062,51.249118 -67.26962,144.087119 121.21618,381.210999 280.15706,386.120129 231.0899,7.13756 472.42582,-306.104174 441.19999,-535.18589 -32.25701,-236.64677 -348.56168,-422.36096 -587.11222,-410.70563 -241.69945,11.80918 -505.27175,234.59692 -551.46275,472.13534 -34.9345,179.651666 252.8688,487.3537 252.8688,487.3537"
       inkscape:connector-curvature="0"
       sodipodi:nodetypes="caaaaac" />
    <path
       style="color:#000000;font-style:normal;font-variant:normal;font-weight:normal;font-stretch:normal;font-size:medium;line-height:normal;font-family:sans-serif;text-indent:0;text-align:start;text-decoration:none;text-decoration-line:none;text-decoration-style:solid;text-decoration-color:#000000;letter-spacing:normal;word-spacing:normal;text-transform:none;direction:ltr;block-progression:tb;writing-mode:lr-tb;baseline-shift:baseline;text-anchor:start;white-space:normal;clip-rule:nonzero;display:inline;overflow:visible;visibility:visible;opacity:1;isolation:auto;mix-blend-mode:normal;color-interpolation:sRGB;color-interpolation-filters:linearRGB;solid-color:#000000;solid-opacity:1;fill:#000000;fill-opacity:1;fill-rule:evenodd;stroke:none;stroke-width:140;stroke-linecap:round;stroke-linejoin:round;stroke-miterlimit:4;stroke-dasharray:none;stroke-dashoffset:0;stroke-opacity:1;color-rendering:auto;image-rendering:auto;shape-rendering:auto;text-rendering:auto;enable-background:accumulate"
       d="M 716.16797,627.21289 C 575.5783,625.35657 433.80198,666.64574 318.72852,751.41797 203.28422,836.46338 119.03505,963.42591 92.742188,1106.6934 c -19.412272,105.7757 -6.456193,216.1191 36.929692,314.5214 43.38588,98.4022 116.11266,182.3938 207.29882,239.4063 32.81529,21.1633 76.60097,11.3897 97.30201,-21.7191 20.70104,-33.1088 10.31454,-76.7531 -23.0813,-96.9879 -66.89652,-41.8259 -121.58896,-104.9893 -153.41797,-177.1797 -31.82902,-72.1905 -41.57143,-155.1697 -27.33008,-232.7696 19.24447,-104.8613 83.65707,-203.24891 171.32226,-267.83003 88.03604,-64.85432 200.89354,-98.40795 312.55469,-96.9336 113.5478,1.49927 227.41803,39.27844 314.64849,108.39844 7.7711,6.15771 15.2616,12.67742 22.6152,19.35742 -13.6614,-5.0504 -27.5998,-9.44388 -41.8184,-13.00195 -104.38238,-26.12076 -216.31877,-9.41739 -308.52927,46.03711 -92.21051,55.45451 -159.43879,146.50001 -185.29883,250.94731 -27.93711,112.8364 -5.65163,234.3674 61.48438,329.6718 67.19472,95.3879 174.70347,157.6646 291.29492,167.5625 70.08169,5.9496 140.2763,-7.0378 203.4355,-35.7851 63.0757,-28.7093 117.8822,-72.4713 160.5313,-125.8907 85.5219,-107.1185 117.3853,-247.0813 98.7109,-379.3066 C 1310.707,988.71314 1230.126,856.3709 1115.9141,765.87109 1002.0608,675.65556 859.15667,629.1009 716.16797,627.21289 Z"
       id="path4139-1-0-5-6-12"
       inkscape:connector-curvature="0"
       sodipodi:nodetypes="sssscscssssscssssssssss" />
    <path
       style="opacity:1;fill:#008080;fill-opacity:1;fill-rule:evenodd;stroke:none;stroke-width:0;stroke-linecap:round;stroke-linejoin:round;stroke-miterlimit:4;stroke-dasharray:none;stroke-opacity:1"
       d="m 1178,1273 a 267,267 0 0 1 -267,267 267,267 0 0 1 -267,-267 267,267 0 0 1 267,-267 267,267 0 0 1 267,267 z"
       id="path4176" />
    <path
       style="color:#000000;font-style:normal;font-variant:normal;font-weight:normal;font-stretch:normal;font-size:medium;line-height:normal;font-family:sans-serif;text-indent:0;text-align:start;text-decoration:none;text-decoration-line:none;text-decoration-style:solid;text-decoration-color:#000000;letter-spacing:normal;word-spacing:normal;text-transform:none;direction:ltr;block-progression:tb;writing-mode:lr-tb;baseline-shift:baseline;text-anchor:start;white-space:normal;clip-rule:nonzero;display:inline;overflow:visible;visibility:visible;opacity:1;isolation:auto;mix-blend-mode:normal;color-interpolation:sRGB;color-interpolation-filters:linearRGB;solid-color:#000000;solid-opacity:1;fill:#000000;fill-opacity:1;fill-rule:evenodd;stroke:none;stroke-width:200;stroke-linecap:round;stroke-linejoin:round;stroke-miterlimit:4;stroke-dasharray:none;stroke-dashoffset:0;stroke-opacity:1;color-rendering:auto;image-rendering:auto;shape-rendering:auto;text-rendering:auto;enable-background:accumulate"
       d="m 2026.5645,-664.7832 c -146.7887,-1.93819 -294.7618,41.00847 -415.629,130.04882 -121.397,89.43062 -209.8979,222.5164 -237.7011,374.01368 -20.5203,111.813382 -6.8742,228.01989 38.9883,332.03906 45.8623,104.01919 122.4527,192.47343 218.8437,252.74023 a 100.01,100.01 0 1 0 106.0274,-169.58203 c -61.6917,-38.57161 -112.5167,-97.27018 -141.8692,-163.843748 -29.3525,-66.57359 -38.4087,-143.689758 -25.2754,-215.251952 17.7342,-96.63154 77.8968,-188.89589 159.6094,-249.0918 82.2422,-60.58616 188.9031,-92.48236 294.3652,-91.08984 67.8302,0.89562 135.8024,15.62472 197.2461,42.64844 -78.7757,0.006 -156.9212,21.25637 -225.3945,62.43554 -99.2783,59.70503 -171.1148,156.99233 -198.957,269.445316 -30.0949,121.551698 -6.311,251.398754 66.0781,354.160154 l -0,0 c 72.4728,102.88047 187.4197,169.49251 313.2852,180.17774 75.4906,6.4087 150.6672,-7.54385 218.4004,-38.37305 67.6139,-30.77495 126.0396,-77.47746 171.5469,-134.47656 91.3341,-114.39844 124.7381,-262.2710267 104.9726,-402.22071 -21.8653,-154.81799 -106.4821,-293.49462 -226.5527,-388.63671 -119.5582,-94.73605 -268.685,-143.17128 -417.9824,-145.14258 z m 194.6093,443.00586 c 19.5035,-0.14619 38.8727,2.03112 57.3242,6.64843 59.0447,14.7754 114.6118,56.0201 145.8497,108.25782 31.2379,52.237673 41.2782,120.707222 26.3554,179.71484 a 100.01,100.01 0 0 0 -1.4472,6.728516 c -10.3481,24.292584 -23.5135,46.931154 -39.4239,66.859374 -26.4531,33.13336 -60.7465,60.2263 -98.1054,77.23047 -37.2398,16.94992 -79.198,24.46855 -118.6289,21.12109 -64.039,-5.43651 -129.4119,-43.14287 -166.6973,-96.07226 -37.3694,-53.048462 -51.1548,-127.466241 -35.4453,-190.916018 14.628,-59.081452 55.735,-114.750902 107.8945,-146.119142 35.8598,-21.5657 79.4167,-33.1315 122.3242,-33.45312 z"
       id="path4139-1-0-5-6-8"
       inkscape:connector-curvature="0" />
    <path
       style="color:#000000;font-style:normal;font-variant:normal;font-weight:normal;font-stretch:normal;font-size:medium;line-height:normal;font-family:sans-serif;text-indent:0;text-align:start;text-decoration:none;text-decoration-line:none;text-decoration-style:solid;text-decoration-color:#000000;letter-spacing:normal;word-spacing:normal;text-transform:none;direction:ltr;block-progression:tb;writing-mode:lr-tb;baseline-shift:baseline;text-anchor:start;white-space:normal;clip-rule:nonzero;display:inline;overflow:visible;visibility:visible;opacity:1;isolation:auto;mix-blend-mode:normal;color-interpolation:sRGB;color-interpolation-filters:linearRGB;solid-color:#000000;solid-opacity:1;fill:#000000;fill-opacity:1;fill-rule:evenodd;stroke:none;stroke-width:70;stroke-linecap:round;stroke-linejoin:round;stroke-miterlimit:4;stroke-dasharray:none;stroke-dashoffset:0;stroke-opacity:1;color-rendering:auto;image-rendering:auto;shape-rendering:auto;text-rendering:auto;enable-background:accumulate"
       d="M -1103.1953 1456.7812 C -1111.7125 1456.7722 -1120.2297 1456.9264 -1128.7383 1457.2422 C -1267.6786 1462.3994 -1405.6213 1511.0105 -1513.5586 1600.4434 C -1621.6722 1690.0224 -1696.7158 1819.6661 -1713.6504 1960.1641 C -1726.143 2063.8086 -1706.8025 2170.4982 -1658.7227 2263.1621 C -1610.643 2355.8261 -1534.5508 2433.0674 -1442.6172 2482.5293 A 35.0035 35.0035 0 1 0 -1409.4512 2420.8848 C -1488.7309 2378.2309 -1555.1279 2310.8315 -1596.5898 2230.9219 C -1638.0518 2151.0124 -1654.9274 2057.9198 -1644.1543 1968.541 C -1629.5675 1847.5219 -1563.6149 1732.826 -1468.8965 1654.3457 C -1374.0016 1575.7193 -1250.4289 1531.8067 -1126.1406 1527.1934 C -1004.3119 1522.6713 -880.46146 1555.7022 -780.41602 1623.6934 C -727.24762 1659.8267 -680.87628 1706.2781 -644.50195 1759.2578 C -645.36988 1758.607 -646.2027 1757.9134 -647.07617 1757.2695 C -724.61656 1700.1131 -821.86614 1671.8506 -917.96289 1678.543 C -1014.0597 1685.2354 -1106.4511 1726.7058 -1175.3203 1794.0586 C -1244.1896 1861.4114 -1287.707 1952.8574 -1296.5371 2048.7812 C -1305.2956 2143.9273 -1279.6294 2241.3548 -1223.6953 2319.2402 C -1167.7182 2397.185 -1082.8903 2453.0983 -988.54297 2472.3984 C -913.8347 2487.6811 -835.62298 2479.772 -765.25781 2451.8223 C -694.95585 2423.8976 -633.48204 2376.5581 -587.33398 2317.3125 C -541.22089 2258.1118 -510.81658 2187.7913 -497.49805 2114.502 C -484.18788 2041.2585 -487.92969 1965.6827 -506.44531 1894.1523 C -541.09936 1760.2752 -627.46572 1643.0028 -741.07031 1565.7969 C -847.43837 1493.5089 -975.43776 1456.9102 -1103.1953 1456.7812 z M -890.81641 1747.5918 C -888.33655 1747.5895 -885.85562 1747.6145 -883.375 1747.668 C -813.91768 1749.1654 -744.42138 1772.4766 -688.61133 1813.6152 C -624.93502 1860.5522 -578.16078 1931.3765 -559.96484 2008.3633 C -558.73698 2039.7794 -560.78354 2071.239 -566.37109 2101.9863 C -577.73936 2164.5438 -603.8239 2224.5712 -642.55664 2274.2969 C -681.25444 2323.9777 -733.08217 2363.7224 -791.09961 2386.7676 C -849.05384 2409.7876 -913.95162 2416.2072 -974.51367 2403.8184 C -1050.7237 2388.2284 -1121.2651 2341.8642 -1166.8379 2278.4062 C -1212.4538 2214.8884 -1234.0316 2133.4082 -1226.832 2055.1973 C -1219.5686 1976.2924 -1183.0272 1899.5063 -1126.377 1844.1035 C -1069.7268 1788.7007 -992.14657 1753.878 -913.09961 1748.373 C -905.68896 1747.8569 -898.25597 1747.5987 -890.81641 1747.5918 z "
       transform="translate(0,-1000)"
       id="path4139-1-0-5-6-1-0" />
  </g>
</svg>
