<?xml version="1.0" encoding="UTF-8" standalone="no"?>
<!-- Created with Inkscape (http://www.inkscape.org/) -->

<svg
   xmlns:dc="http://purl.org/dc/elements/1.1/"
   xmlns:cc="http://creativecommons.org/ns#"
   xmlns:rdf="http://www.w3.org/1999/02/22-rdf-syntax-ns#"
   xmlns:svg="http://www.w3.org/2000/svg"
   xmlns="http://www.w3.org/2000/svg"
   xmlns:sodipodi="http://sodipodi.sourceforge.net/DTD/sodipodi-0.dtd"
   xmlns:inkscape="http://www.inkscape.org/namespaces/inkscape"
   width="2048"
   height="2000"
   id="svg2992"
   version="1.1"
   inkscape:version="0.91 r13725"
   sodipodi:docname="റ.svg">
  <defs
     id="defs5498">
    <inkscape:path-effect
       effect="spiro"
       id="path-effect4141-3"
       is_visible="true" />
    <inkscape:path-effect
       effect="spiro"
       id="path-effect4141-3-4"
       is_visible="true" />
    <inkscape:path-effect
       effect="spiro"
       id="path-effect4141-3-4-8"
       is_visible="true" />
    <inkscape:path-effect
       effect="spiro"
       id="path-effect4141-3-4-8-5"
       is_visible="true" />
    <inkscape:path-effect
       effect="spiro"
       id="path-effect4141-3-4-8-2"
       is_visible="true" />
    <inkscape:path-effect
       effect="spiro"
       id="path-effect4141-3-4-8-3"
       is_visible="true" />
    <inkscape:path-effect
       effect="spiro"
       id="path-effect4141-3-4-8-3-7"
       is_visible="true" />
    <inkscape:path-effect
       effect="spiro"
       id="path-effect4141-3-4-8-0"
       is_visible="true" />
    <inkscape:path-effect
       effect="spiro"
       id="path-effect4141-3-4-8-0-4"
       is_visible="true" />
    <inkscape:path-effect
       effect="spiro"
       id="path-effect4141-3-4-8-3-2"
       is_visible="true" />
    <inkscape:path-effect
       effect="spiro"
       id="path-effect4141-3-4-8-3-2-2"
       is_visible="true" />
    <inkscape:path-effect
       effect="spiro"
       id="path-effect4141-3-4-8-29"
       is_visible="true" />
  </defs>
  <sodipodi:namedview
     inkscape:window-height="871"
     inkscape:window-width="1600"
     inkscape:pageshadow="2"
     inkscape:pageopacity="0.0"
     borderopacity="1.0"
     bordercolor="#666666"
     pagecolor="#ffffff"
     id="base"
     showgrid="true"
     showguides="true"
     inkscape:guide-bbox="true"
     inkscape:zoom="0.16051324"
     inkscape:cx="612.67112"
     inkscape:cy="811.51959"
     inkscape:window-x="0"
     inkscape:window-y="0"
     inkscape:current-layer="layer1"
     inkscape:window-maximized="1">
    <sodipodi:guide
       orientation="horizontal"
       position="0,600"
       id="guide5596" />
    <inkscape:grid
       type="xygrid"
       id="grid3769"
       empspacing="5"
       visible="true"
       enabled="true"
       snapvisiblegridlinesonly="true" />
    <sodipodi:guide
       orientation="0,1"
       position="-760,1600"
       id="guide6577" />
    <sodipodi:guide
       orientation="0,1"
       position="240,0"
       id="guide4141" />
  </sodipodi:namedview>
  <metadata
     id="metadata5594">
    <rdf:RDF>
      <cc:Work
         rdf:about="">
        <dc:format>image/svg+xml</dc:format>
        <dc:type
           rdf:resource="http://purl.org/dc/dcmitype/StillImage" />
        <dc:title />
      </cc:Work>
    </rdf:RDF>
  </metadata>
  <g
     inkscape:label="Layer 1"
     inkscape:groupmode="layer"
     id="layer1"
     transform="translate(0,1000)">
    <path
       style="fill:none;fill-rule:evenodd;stroke:#000000;stroke-width:140;stroke-linecap:round;stroke-linejoin:round;stroke-miterlimit:4;stroke-dasharray:none;stroke-opacity:1"
       d="m -646.56556,367.80924 c 100.70355,-27.08363 191.11396,-90.84333 250.43206,-176.61098 59.3181,-85.76766 87.07223,-192.8613078 76.87747,-296.64375 -11.78511,-119.97212 -74.21605,-233.48134 -166.9038,-310.56038 -92.68775,-77.07904 -214.1907,-117.6221 -334.71971,-115.39633 -115.65963,2.13585 -230.78416,43.52553 -319.16006,118.16748 -88.3758,74.64195 -148.8232,182.45979 -163.0535,297.26053 -12.937,104.367431 12.5368,213.065117 70.498,300.81722 57.9611,87.7521 147.9381,153.84478 249.0083,182.90929"
       id="path4139-1-5-4"
       inkscape:path-effect="#path-effect4141-3-4-8"
       inkscape:original-d="m -646.56556,367.80924 c 0,0 352.33723,-283.089861 327.30953,-473.25473 -28.62312,-217.48352 -282.26592,-426.73871 -501.62351,-425.95671 -212.15956,0.75634 -453.03516,205.28311 -482.21356,415.42801 -26.5763,191.403857 319.5063,483.72651 319.5063,483.72651"
       inkscape:connector-curvature="0"
       sodipodi:nodetypes="caaac" />
    <path
       style="color:#000000;font-style:normal;font-variant:normal;font-weight:normal;font-stretch:normal;font-size:medium;line-height:normal;font-family:sans-serif;text-indent:0;text-align:start;text-decoration:none;text-decoration-line:none;text-decoration-style:solid;text-decoration-color:#000000;letter-spacing:normal;word-spacing:normal;text-transform:none;direction:ltr;block-progression:tb;writing-mode:lr-tb;baseline-shift:baseline;text-anchor:start;white-space:normal;clip-rule:nonzero;display:inline;overflow:visible;visibility:visible;opacity:1;isolation:auto;mix-blend-mode:normal;color-interpolation:sRGB;color-interpolation-filters:linearRGB;solid-color:#000000;solid-opacity:1;fill:#000000;fill-opacity:1;fill-rule:evenodd;stroke:none;stroke-width:140;stroke-linecap:round;stroke-linejoin:round;stroke-miterlimit:4;stroke-dasharray:none;stroke-dashoffset:0;stroke-opacity:1;color-rendering:auto;image-rendering:auto;shape-rendering:auto;text-rendering:auto;enable-background:accumulate"
       d="M 631.42188,-598.56445 C 499.92811,-596.1362 369.9113,-549.63405 268.38672,-463.88672 166.6455,-377.95642 97.58228,-255.26688 81.033203,-121.75977 65.9863,-0.37117278 95.175866,124.18456 162.58984,226.24805 230.00382,328.31154 333.10851,404.04696 450.66211,437.85156 A 70.007,70.007 0 1 0 489.35352,303.30469 C 404.76675,278.98027 327.91655,222.53057 279.4082,149.08984 230.89986,75.649136 209.14357,-17.190842 219.9707,-104.53711 c 11.91153,-96.09437 63.74148,-189.03898 138.75196,-252.39258 75.2271,-63.53656 175.45966,-99.81475 275.28515,-101.6582 103.97121,-1.92 209.82741,33.66511 288.66992,99.23047 78.59237,65.35734 132.14237,163.27175 141.99607,263.582029 8.5284,86.818229 -15.1631,178.234229 -64.78513,249.982421 -49.622,71.74815 -126.79641,126.17351 -211.03906,148.83008 a 70.007,70.007 0 1 0 36.35937,135.19727 C 942.37343,406.72368 1046.019,333.62894 1115.0332,233.8418 c 69.0142,-99.78713 100.8319,-222.558033 88.9707,-343.30469 -13.7165,-139.63396 -85.0273,-268.7383 -191.8105,-357.53906 -106.53303,-88.59273 -243.68469,-134.09404 -380.77152,-131.5625 z"
       id="path4139-1-5-4-7"
       inkscape:connector-curvature="0" />
    <path
       style="fill:none;fill-rule:evenodd;stroke:#000000;stroke-width:120;stroke-linecap:round;stroke-linejoin:round;stroke-miterlimit:4;stroke-dasharray:none;stroke-opacity:1"
       d="m 2146.4156,1031.8034 c 65.3984,-17.5885 124.1122,-58.99499 162.6343,-114.69377 38.522,-55.69878 56.5459,-125.24697 49.9253,-192.64481 -7.6534,-77.91162 -48.197,-151.62614 -108.3897,-201.68239 -60.1928,-50.05624 -139.0985,-76.38551 -217.3718,-74.94009 -75.1111,1.38703 -149.8747,28.26608 -207.2672,76.73965 -57.3926,48.47357 -96.648,118.49205 -105.8894,193.04534 -8.4015,67.77773 8.1416,138.36759 45.7824,195.35508 37.6408,56.9875 96.0732,99.90909 161.7096,118.78399"
       id="path4139-1-5-4-6"
       inkscape:path-effect="#path-effect4141-3-4-8-3"
       inkscape:original-d="m 2146.4156,1031.8034 c 0,0 228.813,-183.84275 212.5596,-307.33858 -18.5883,-141.23697 -183.3077,-277.13033 -325.7615,-276.62248 -137.7796,0.49117 -294.2078,133.31383 -313.1566,269.78499 -17.2591,124.30046 207.492,314.13907 207.492,314.13907"
       inkscape:connector-curvature="0"
       sodipodi:nodetypes="caaac" />
    <g
       id="g4252">
      <path
         inkscape:connector-curvature="0"
         id="path4139-1-5-4-6-4"
         d="m 2855.3965,398.68359 c -88.6832,1.63766 -176.2121,32.89812 -244.875,90.89063 -68.8487,58.1493 -115.4898,140.91465 -126.7188,231.50195 -10.2099,82.36731 9.5186,166.55031 55.2618,235.80469 45.7432,69.25444 115.4282,120.44104 195.1933,143.37894 a 60.006,60.006 0 1 0 33.1641,-115.32621 c -51.5078,-14.81195 -98.6882,-49.46888 -128.2266,-94.18945 -29.5384,-44.7206 -42.8957,-101.71812 -36.3027,-154.90625 7.2539,-58.51928 39.122,-115.79005 85.0586,-154.58789 46.1221,-38.95463 108.1211,-61.45149 169.6601,-62.58789 64.0809,-1.18334 129.5749,20.89658 177.9004,61.08398 48.111,40.00909 81.0431,100.3555 87.041,161.41407 5.1923,52.85716 -9.3494,108.96833 -39.5605,152.65039 -30.2112,43.68212 -77.5801,77.08893 -128.8692,90.88281 a 60.006,60.006 0 1 0 31.1661,115.88084 c 79.5077,-21.3831 149.5654,-70.7885 196.3984,-138.50389 46.8329,-67.71548 68.34,-150.70211 60.291,-232.64062 -9.3089,-94.76467 -57.4638,-181.84581 -129.7383,-241.94922 -72.0601,-59.92508 -164.378,-90.50438 -256.8437,-88.79688 z"
         style="color:#000000;font-style:normal;font-variant:normal;font-weight:normal;font-stretch:normal;font-size:medium;line-height:normal;font-family:sans-serif;text-indent:0;text-align:start;text-decoration:none;text-decoration-line:none;text-decoration-style:solid;text-decoration-color:#000000;letter-spacing:normal;word-spacing:normal;text-transform:none;direction:ltr;block-progression:tb;writing-mode:lr-tb;baseline-shift:baseline;text-anchor:start;white-space:normal;clip-rule:nonzero;display:inline;overflow:visible;visibility:visible;opacity:1;isolation:auto;mix-blend-mode:normal;color-interpolation:sRGB;color-interpolation-filters:linearRGB;solid-color:#000000;solid-opacity:1;fill:#000000;fill-opacity:1;fill-rule:evenodd;stroke:none;stroke-width:120;stroke-linecap:round;stroke-linejoin:round;stroke-miterlimit:4;stroke-dasharray:none;stroke-dashoffset:0;stroke-opacity:1;color-rendering:auto;image-rendering:auto;shape-rendering:auto;text-rendering:auto;enable-background:accumulate" />
    </g>
    <path
       style="fill:none;fill-rule:evenodd;stroke:#000000;stroke-width:70;stroke-linecap:round;stroke-linejoin:round;stroke-miterlimit:4;stroke-dasharray:none;stroke-opacity:1"
       d="m -1943.4136,415.04746 c 109.3993,-29.49703 207.5968,-98.81324 272.0252,-192.01876 64.4284,-93.20553 94.5766,-209.560873 83.5161,-322.325917 -12.7857,-130.353183 -80.5698,-253.703113 -181.2476,-337.485043 -100.6778,-83.78194 -232.6866,-127.8741 -363.643,-125.45503 -125.666,2.32134 -250.7438,47.33135 -346.7379,128.46373 -95.9941,81.13237 -161.6261,198.29833 -177.0688,323.03348 -14.0396,113.4022853 13.6318,231.50127 76.5863,326.86328 62.9546,95.362 160.6813,167.21299 270.4789,198.8624"
       id="path4139-1-5-4-2"
       inkscape:path-effect="#path-effect4141-3-4-8-0"
       inkscape:original-d="m -1943.4136,415.04746 c 0,0 382.7278,-307.6689 355.5413,-514.344677 -31.092,-236.366363 -306.6127,-463.789953 -544.8906,-462.940073 -230.4594,0.82202 -492.1115,223.10665 -523.8067,451.49721 -28.8686,208.022354 347.0652,525.72568 347.0652,525.72568"
       inkscape:connector-curvature="0"
       sodipodi:nodetypes="caaac" />
    <path
       style="color:#000000;font-style:normal;font-variant:normal;font-weight:normal;font-stretch:normal;font-size:medium;line-height:normal;font-family:sans-serif;text-indent:0;text-align:start;text-decoration:none;text-decoration-line:none;text-decoration-style:solid;text-decoration-color:#000000;letter-spacing:normal;word-spacing:normal;text-transform:none;direction:ltr;block-progression:tb;writing-mode:lr-tb;baseline-shift:baseline;text-anchor:start;white-space:normal;clip-rule:nonzero;display:inline;overflow:visible;visibility:visible;opacity:1;isolation:auto;mix-blend-mode:normal;color-interpolation:sRGB;color-interpolation-filters:linearRGB;solid-color:#000000;solid-opacity:1;fill:#000000;fill-opacity:1;fill-rule:evenodd;stroke:none;stroke-width:70;stroke-linecap:round;stroke-linejoin:round;stroke-miterlimit:4;stroke-dasharray:none;stroke-dashoffset:0;stroke-opacity:1;color-rendering:auto;image-rendering:auto;shape-rendering:auto;text-rendering:auto;enable-background:accumulate"
       d="m -2013.4102,882.76953 c -133.5902,2.46773 -266.1159,50.03638 -368.6836,136.72457 -102.675,86.7791 -172.6109,211.3816 -189.2109,345.4649 -15.0926,121.908 14.435,247.9327 82.1113,350.4472 67.6765,102.5146 171.9613,179.1877 289.9942,213.211 a 35.0035,35.0035 0 1 0 19.3887,-67.2617 c -101.5623,-29.2756 -192.7302,-96.3062 -250.9629,-184.5157 -58.2327,-88.2094 -84.0472,-198.3826 -71.0606,-303.2793 14.2854,-115.387 75.6127,-225.1177 164.9258,-300.6035 89.4205,-75.57644 207.0493,-118.02617 324.791,-120.20114 122.67,-2.266 246.8534,39.34353 340.6094,117.36524 93.6319,77.9186 156.9809,193.4705 168.8027,313.998 10.229,104.2879 -17.8896,212.8091 -77.4746,299.0079 -59.585,86.1987 -151.1705,150.8474 -252.3457,178.1269 a 35.0035,35.0035 0 1 0 18.2227,67.5859 c 117.6234,-31.7144 222.4332,-105.6979 291.705,-205.9101 69.2719,-100.2123 101.4506,-224.4004 89.5586,-345.6426 -13.7493,-140.1788 -85.9696,-271.3272 -193.6933,-360.9726 -107.5997,-89.54217 -247.4349,-136.11711 -386.6778,-133.54497 z"
       id="path4139-1-5-4-2-5"
       inkscape:connector-curvature="0" />
    <path
       style="fill:none;fill-rule:evenodd;stroke:#000000;stroke-width:60;stroke-linecap:round;stroke-linejoin:round;stroke-miterlimit:4;stroke-dasharray:none;stroke-opacity:1"
       d="m 3878.344,1051.4799 c 68.5743,-18.4779 130.1301,-61.91919 170.5173,-120.33787 40.3872,-58.41867 59.2853,-131.351 52.35,-202.03177 -8.017,-81.70535 -50.5117,-159.01814 -113.6212,-211.52749 -63.1095,-52.50934 -145.8538,-80.13996 -227.9375,-78.6238 -78.7677,1.45491 -157.1677,29.66115 -217.3413,80.50999 -60.1736,50.84885 -101.3188,124.28556 -111.0012,202.46941 -8.8027,71.07991 8.5428,145.10498 48.0061,204.87528 39.4633,59.7703 100.7239,104.80045 169.5478,124.62745"
       id="path4139-1-5-4-6-6"
       inkscape:path-effect="#path-effect4141-3-4-8-3-2"
       inkscape:original-d="m 3878.344,1051.4799 c 0,0 239.9089,-192.83399 222.8673,-322.36964 -19.4897,-148.14446 -192.1969,-290.68397 -341.5587,-290.15129 -144.461,0.5152 -308.4749,139.83383 -328.3425,282.9794 -18.0961,130.37963 217.5539,329.50273 217.5539,329.50273"
       inkscape:connector-curvature="0"
       sodipodi:nodetypes="caaac" />
    <path
       style="color:#000000;font-style:normal;font-variant:normal;font-weight:normal;font-stretch:normal;font-size:medium;line-height:normal;font-family:sans-serif;text-indent:0;text-align:start;text-decoration:none;text-decoration-line:none;text-decoration-style:solid;text-decoration-color:#000000;letter-spacing:normal;word-spacing:normal;text-transform:none;direction:ltr;block-progression:tb;writing-mode:lr-tb;baseline-shift:baseline;text-anchor:start;white-space:normal;clip-rule:nonzero;display:inline;overflow:visible;visibility:visible;opacity:1;isolation:auto;mix-blend-mode:normal;color-interpolation:sRGB;color-interpolation-filters:linearRGB;solid-color:#000000;solid-opacity:1;fill:#000000;fill-opacity:1;fill-rule:evenodd;stroke:none;stroke-width:60;stroke-linecap:round;stroke-linejoin:round;stroke-miterlimit:4;stroke-dasharray:none;stroke-dashoffset:0;stroke-opacity:1;color-rendering:auto;image-rendering:auto;shape-rendering:auto;text-rendering:auto;enable-background:accumulate"
       d="m 2565.1641,-519.30859 c -85.5584,1.58034 -170.3422,31.98146 -236.1504,87.59179 -65.9006,55.68831 -110.7373,135.49773 -121.4121,221.69532 l 0,0 c -9.7057,78.37155 9.2306,159.190058 52.7422,225.091792 43.5116,65.901733 110.3952,115.064818 186.2793,136.925778 a 30.003,30.003 0 1 0 16.6094,-57.654293 C 2401.4707,76.548684 2345.831,35.650583 2310.416,-17.988281 c -35.415,-53.638863 -51.1672,-120.869939 -43.2676,-184.658199 8.69,-70.17011 46.1452,-137.2328 100.5918,-183.24219 54.539,-46.08735 126.5543,-72.10021 198.5313,-73.42969 74.9826,-1.385 151.019,24.11672 208.1953,71.68945 57.0698,47.4841 95.7626,118.11423 102.9531,191.39649 6.2223,63.41358 -10.9352,129.628746 -47.1699,182.041014 -36.2347,52.412247 -92.1228,91.85358 -153.6465,108.43164 a 30.003,30.003 0 1 0 15.6113,57.933596 c 75.6249,-20.37774 142.849,-67.819032 187.3887,-132.244142 44.5397,-64.425091 65.1777,-144.073528 57.5293,-222.021488 -8.8435,-90.12843 -55.1398,-174.12359 -124.289,-231.6582 -69.0427,-57.44595 -158.495,-87.20592 -247.6797,-85.55859 z"
       id="path4139-1-5-4-6-6-7"
       inkscape:connector-curvature="0" />
    <path
       style="color:#000000;font-style:normal;font-variant:normal;font-weight:normal;font-stretch:normal;font-size:medium;line-height:normal;font-family:sans-serif;text-indent:0;text-align:start;text-decoration:none;text-decoration-line:none;text-decoration-style:solid;text-decoration-color:#000000;letter-spacing:normal;word-spacing:normal;text-transform:none;direction:ltr;block-progression:tb;writing-mode:lr-tb;baseline-shift:baseline;text-anchor:start;white-space:normal;clip-rule:nonzero;display:inline;overflow:visible;visibility:visible;opacity:1;isolation:auto;mix-blend-mode:normal;color-interpolation:sRGB;color-interpolation-filters:linearRGB;solid-color:#000000;solid-opacity:1;fill:#000000;fill-opacity:1;fill-rule:evenodd;stroke:none;stroke-width:200;stroke-linecap:round;stroke-linejoin:round;stroke-miterlimit:4;stroke-dasharray:none;stroke-dashoffset:0;stroke-opacity:1;color-rendering:auto;image-rendering:auto;shape-rendering:auto;text-rendering:auto;enable-background:accumulate"
       d="m 1177.2734,968.61523 c -138.2798,2.55352 -274.67807,51.24507 -381.83785,141.75197 -107.46928,90.7681 -180.22669,219.8333 -197.76953,361.3574 -15.95115,128.6834 14.83167,260.0355 86.29687,368.2324 71.46518,108.197 180.19652,188.0644 304.81445,223.9004 a 100.01,100.01 0 1 0 55.27346,-192.2109 c -77.52244,-22.2929 -148.74796,-74.6107 -193.2051,-141.918 -44.45713,-67.3072 -64.62211,-153.3489 -54.69922,-233.4004 10.91776,-88.0773 59.05547,-174.6503 128.3379,-233.166 69.59193,-58.7771 163.44302,-92.8639 256.48242,-94.582 96.8749,-1.789 196.0247,31.6698 268.9336,92.3008 72.5515,60.3338 122.2963,151.5655 131.3223,243.4492 7.8141,79.5479 -14.135,164.2464 -59.6016,229.9863 -45.4666,65.7399 -116.9702,116.1646 -194.1582,136.9238 a 100.01,100.01 0 1 0 51.9433,193.1368 c 124.2192,-33.408 233.5375,-110.5014 306.7071,-216.2969 73.1692,-105.795 106.7272,-235.2844 94.1523,-363.3008 l 0,-0 c -14.5447,-148.0597 -89.6629,-283.8459 -202.4863,-377.6699 a 100.01,100.01 0 0 0 0,-0 C 1465.3126,1013.5784 1321.4565,965.95262 1177.2734,968.61523 Z"
       id="path4139-1-5-4-28"
       inkscape:connector-curvature="0" />
  </g>
</svg>
