<?xml version="1.0" encoding="UTF-8" standalone="no"?>
<!-- Created with Inkscape (http://www.inkscape.org/) -->

<svg
   xmlns:dc="http://purl.org/dc/elements/1.1/"
   xmlns:cc="http://creativecommons.org/ns#"
   xmlns:rdf="http://www.w3.org/1999/02/22-rdf-syntax-ns#"
   xmlns:svg="http://www.w3.org/2000/svg"
   xmlns="http://www.w3.org/2000/svg"
   xmlns:sodipodi="http://sodipodi.sourceforge.net/DTD/sodipodi-0.dtd"
   xmlns:inkscape="http://www.inkscape.org/namespaces/inkscape"
   width="2000"
   height="2048"
   id="svg2992"
   version="1.1"
   inkscape:version="0.91 r13725"
   sodipodi:docname="ള്‍.svg">
  <defs
     id="defs5498">
    <inkscape:path-effect
       effect="spiro"
       id="path-effect4372-5-9-5"
       is_visible="true" />
    <inkscape:path-effect
       effect="spiro"
       id="path-effect4918"
       is_visible="true" />
    <inkscape:path-effect
       effect="spiro"
       id="path-effect4918-0"
       is_visible="true" />
    <inkscape:path-effect
       effect="spiro"
       id="path-effect4918-0-4"
       is_visible="true" />
    <inkscape:path-effect
       effect="spiro"
       id="path-effect4918-0-2"
       is_visible="true" />
    <inkscape:path-effect
       effect="spiro"
       id="path-effect4918-0-2-2"
       is_visible="true" />
    <inkscape:path-effect
       effect="spiro"
       id="path-effect4918-0-2-2-9"
       is_visible="true" />
    <inkscape:path-effect
       effect="spiro"
       id="path-effect4918-0-2-2-9-4"
       is_visible="true" />
    <inkscape:path-effect
       effect="spiro"
       id="path-effect4918-0-2-2-6"
       is_visible="true" />
    <inkscape:path-effect
       effect="spiro"
       id="path-effect4918-0-2-2-8"
       is_visible="true" />
    <inkscape:path-effect
       effect="spiro"
       id="path-effect4918-0-2-2-62"
       is_visible="true" />
    <inkscape:path-effect
       effect="spiro"
       id="path-effect4918-0-2-2-9-3"
       is_visible="true" />
  </defs>
  <sodipodi:namedview
     inkscape:window-height="843"
     inkscape:window-width="1600"
     inkscape:pageshadow="2"
     inkscape:pageopacity="0.0"
     borderopacity="1.0"
     bordercolor="#666666"
     pagecolor="#ffffff"
     id="base"
     showgrid="true"
     showguides="true"
     inkscape:guide-bbox="true"
     inkscape:zoom="0.1767767"
     inkscape:cx="2894.1785"
     inkscape:cy="193.47649"
     inkscape:window-x="1600"
     inkscape:window-y="0"
     inkscape:current-layer="layer1-2"
     inkscape:window-maximized="1">
    <sodipodi:guide
       orientation="horizontal"
       position="0,600"
       id="guide5596" />
    <inkscape:grid
       type="xygrid"
       id="grid3769"
       empspacing="3"
       visible="true"
       enabled="true"
       snapvisiblegridlinesonly="true"
       spacingx="4px"
       units="px"
       dotted="true"
       spacingy="4px" />
    <sodipodi:guide
       orientation="0,1"
       position="-1040,1600"
       id="guide2985" />
    <sodipodi:guide
       position="3072,1624"
       orientation="0,1"
       id="guide4153"
       inkscape:label=""
       inkscape:color="rgb(0,0,255)" />
  </sodipodi:namedview>
  <metadata
     id="metadata5594">
    <rdf:RDF>
      <cc:Work
         rdf:about="">
        <dc:format>image/svg+xml</dc:format>
        <dc:type
           rdf:resource="http://purl.org/dc/dcmitype/StillImage" />
        <dc:title />
      </cc:Work>
    </rdf:RDF>
  </metadata>
  <g
     inkscape:label="Layer 1"
     inkscape:groupmode="layer"
     id="layer1"
     transform="translate(0,1048)">
    <g
       id="layer1-2"
       inkscape:label="Layer 1"
       transform="translate(33.173191,-57.329207)">
      <path
         style="fill:none;fill-rule:evenodd;stroke:#000000;stroke-width:140;stroke-linecap:round;stroke-linejoin:round;stroke-miterlimit:4;stroke-dasharray:none;stroke-opacity:1"
         d="m 474.42071,-525.6442 c -87.03643,42.4863 -162.17718,109.03012 -214.87519,190.29109 -52.698,81.26098 -82.80447,177.00968 -86.09353,273.80641 -3.90321,114.87099 31.3787,232.57062 106.44085,319.6123 37.53108,43.52083 84.5563,79.0176 137.28493,101.87227 52.72864,22.85468 111.1353,32.91363 168.35694,27.59113 45.09454,-4.19449 89.39468,-17.99715 128.30517,-41.17225 38.91048,-23.17511 72.15957,-55.72082 96.33235,-94.01949 24.17278,-38.29866 39.09097,-82.03162 46.30313,-126.74287 7.21216,-44.711253 6.76979,-90.25987 5.88497,-135.5404216 L 861.7561,-40.8674 c -1.32592,-67.85359 -1.6021,-136.43792 13.56837,-202.58718 15.17047,-66.14925 45.97374,-129.2246 92.36877,-178.75609 46.39506,-49.53149 107.57366,-84.71853 173.36196,-101.38492 65.7883,-16.66639 135.5109,-15.21279 201.73,-0.35011 109.1846,24.50617 209.5916,85.44186 283.0842,169.82588 73.4926,84.38402 119.9354,191.64421 132.9632,302.78422 11.734,100.10288 -4.3256,205.61964 -58.3137,290.72871 -26.9941,42.55453 -63.2031,79.48023 -106.2476,105.68606 -43.0444,26.20583 -92.9582,41.48919 -143.3499,41.98313 -50.9786,0.49969 -101.8073,-14.17162 -145.497,-40.44473 -43.6897,-26.27311 -80.2375,-63.94839 -106.5239,-107.63011 -52.5728,-87.36343 -62.5747,-196.679675 -38.0491,-295.64816 21.3892,-86.31209 66.8593,-164.37192 110.7502,-241.70794 43.891,-77.33602 87.3614,-156.92736 104.0854,-244.2634 24.6681,-128.82175 -14.4312,-268.28972 -102.4706,-365.51433"
         id="path4916-4-0-4"
         inkscape:path-effect="#path-effect4918-0-2-2"
         inkscape:original-d="m 474.42071,-525.6442 c 0,0 -316.36001,280.35957 -300.96872,464.0975 16.95919,202.45511 209.3752,462.68977 412.08272,449.0757 C 746.63002,376.70965 865.60511,156.10504 862.36033,-9.9460316 L 861.7561,-40.8674 c -4.37529,-223.90485 253.8935,-490.05792 481.0291,-483.0783 209.7834,6.4464 404.559,263.04232 416.0474,472.6101 9.7747,178.30751 -129.3607,441.37284 -307.9112,438.3979 -176.6832,-2.94383 -275.707,-267.59992 -290.07,-443.723 -14.3959,-176.5274 202.1904,-309.3099 214.8356,-485.97134 9.0341,-126.21252 -102.4706,-365.51433 -102.4706,-365.51433"
         inkscape:connector-curvature="0"
         sodipodi:nodetypes="caassaaaaac" />
      <path
         style="fill:none;fill-rule:evenodd;stroke:#000000;stroke-width:70;stroke-linecap:round;stroke-linejoin:round;stroke-miterlimit:4;stroke-dasharray:none;stroke-opacity:1"
         d="m 2895.0081,-529.16877 c -88.3794,40.1879 -166.2851,103.15606 -224.1136,181.14235 -57.8285,77.98628 -95.4549,170.82238 -108.241,267.064296 -16.061,120.892427 8.5659,248.950594 78.8536,348.612894 35.1439,49.83115 81.2622,92.09873 134.7656,121.34972 53.5034,29.25098 114.3828,45.30485 175.3562,44.61592 53.9284,-0.60933 107.7504,-14.41265 154.9389,-40.52563 47.1885,-26.11298 87.4112,-64.48052 116.363,-109.98258 28.9518,-45.50206 46.4663,-97.73325 54.6615,-151.0388 8.1953,-53.305564 7.1632,-107.546176 5.6309,-161.456257 l -1.2241,-43.067003 c -1.6715,-58.8071 -2.4852,-118.18506 9.347,-175.81378 11.8321,-57.62872 36.419,-113.01943 74.1587,-158.15015 37.7397,-45.13073 88.0241,-79.39046 143.3529,-99.38517 55.3288,-19.9947 115.1885,-26.00048 173.846,-21.48724 123.1154,9.47279 241.4161,65.37075 329.9055,151.49139 88.4894,86.12063 147.1788,201.43341 168.9552,322.977355 20.3307,113.474789 7.5105,236.398095 -55.0764,333.211015 -31.2935,48.40646 -74.6631,89.36562 -126.1175,115.34472 -51.4544,25.97909 -111.0161,36.55964 -167.8807,27.13188 -44.178,-7.32441 -86.1516,-26.52607 -121.4933,-54.02713 -35.3417,-27.50106 -64.0892,-63.1704 -84.7685,-102.8908 -41.3586,-79.44078 -49.6922,-173.50961 -33.9544,-261.678155 21.1497,-118.488035 82.6961,-225.167755 139.9185,-331.055985 57.2225,-105.88823 112.2104,-217.67082 118.1789,-337.88356 5.3796,-108.35043 -31.4812,-218.25083 -101.1051,-301.44497"
         id="path4916-4-0-4-4"
         inkscape:path-effect="#path-effect4918-0-2-2-9"
         inkscape:original-d="m 2895.0081,-529.16877 c 0,0 -333.2121,262.21317 -332.3546,448.206646 0.9913,215.015264 173.9757,517.348924 388.9754,514.578534 189.8166,-2.44589 337.711,-247.80093 331.5943,-463.003267 l -1.2241,-43.067003 c -5.5315,-194.61121 198.8451,-445.92423 400.7046,-454.83634 229.2646,-10.12205 478.534,245.88275 498.8607,474.468745 C 4198.9848,143.08118 4028.8566,433.88352 3832.4898,422.86616 3671.8675,413.85429 3604.5482,164.67599 3592.2736,4.270075 3574.0381,-234.03449 3845.0392,-425.7277 3850.371,-664.66947 c 2.3644,-105.95649 -101.1051,-301.44497 -101.1051,-301.44497"
         inkscape:connector-curvature="0"
         sodipodi:nodetypes="caassaaaaac" />
      <path
         style="color:#000000;font-style:normal;font-variant:normal;font-weight:normal;font-stretch:normal;font-size:medium;line-height:normal;font-family:sans-serif;text-indent:0;text-align:start;text-decoration:none;text-decoration-line:none;text-decoration-style:solid;text-decoration-color:#000000;letter-spacing:normal;word-spacing:normal;text-transform:none;direction:ltr;block-progression:tb;writing-mode:lr-tb;baseline-shift:baseline;text-anchor:start;white-space:normal;clip-rule:nonzero;display:inline;overflow:visible;visibility:visible;opacity:1;isolation:auto;mix-blend-mode:normal;color-interpolation:sRGB;color-interpolation-filters:linearRGB;solid-color:#000000;solid-opacity:1;fill:#000000;fill-opacity:1;fill-rule:evenodd;stroke:none;stroke-width:140;stroke-linecap:round;stroke-linejoin:round;stroke-miterlimit:4;stroke-dasharray:none;stroke-dashoffset:0;stroke-opacity:1;color-rendering:auto;image-rendering:auto;shape-rendering:auto;text-rendering:auto;enable-background:accumulate"
         d="m 1365.75,469.1875 a 70.007,70.007 0 0 0 -54.2637,117.82422 c 63.0718,69.18562 94.5424,165.29963 90.3946,259.30078 -167.1912,-22.83998 -347.5937,38.86579 -442.34184,192.2754 -110.34689,165.8938 -71.15259,355.0674 -78.875,497.5449 a 70.007,70.007 0 0 0 -0.0664,1.5547 c -3.45982,108.3928 -89.78202,214.3227 -196.01368,226.2559 a 70.007,70.007 0 0 0 -3.00195,0.4043 c -143.91421,22.5089 -292.63985,-94.3585 -330.05469,-235.8379 a 70.007,70.007 0 0 0 -0.80468,-2.8047 C 287.64213,1321.9473 400.9405,1075.9434 594.03516,985.7832 A 70.007,70.007 0 1 0 534.80469,858.92969 c -259.7123,121.26544 -403.07826,431.09011 -318.06446,707.30861 55.89153,207.5534 260.40959,370.9736 485.13672,336.6015 182.79564,-21.4375 313.01035,-184.5728 318.64645,-360.6523 8.8724,-167.5012 -16.8046,-318.4571 56.3379,-427.2617 a 70.007,70.007 0 0 0 1.5293,-2.377 c 57.6434,-93.7132 176.5884,-138.11906 289.4649,-128.64646 -64.5239,148.72836 -212.1896,310.14886 -199.1836,533.90036 3.1673,190.096 145.5878,375.452 348.875,386.5996 201.7624,13.6368 361.2288,-151.425 393.6328,-334.1367 58.3692,-282.2386 -104.5605,-581.2882 -371.25,-686.24607 15.6442,-140.02252 -27.7454,-284.66148 -124.9824,-391.32422 A 70.007,70.007 0 0 0 1365.75,469.1875 Z m 138.5508,551.9023 c 190.0844,85.7208 312.3801,316.7017 269.6562,521.5332 a 70.007,70.007 0 0 0 -0.4414,2.3067 c -20.4786,117.8322 -129.7931,227.8836 -246.8574,219.7832 a 70.007,70.007 0 0 0 -1.1133,-0.068 c -118.4468,-6.304 -215.6027,-130.5285 -216.9531,-250.5175 a 70.007,70.007 0 0 0 -0.127,-3.4766 c -9.5864,-157.0656 116.6158,-296.9254 192.9571,-482.7051 0.9989,-2.2728 1.9163,-4.5711 2.8789,-6.8555 z"
         id="path4916-4-0-4-0"
         inkscape:connector-curvature="0" />
      <path
         style="color:#000000;font-style:normal;font-variant:normal;font-weight:normal;font-stretch:normal;font-size:medium;line-height:normal;font-family:sans-serif;text-indent:0;text-align:start;text-decoration:none;text-decoration-line:none;text-decoration-style:solid;text-decoration-color:#000000;letter-spacing:normal;word-spacing:normal;text-transform:none;direction:ltr;block-progression:tb;writing-mode:lr-tb;baseline-shift:baseline;text-anchor:start;white-space:normal;clip-rule:nonzero;display:inline;overflow:visible;visibility:visible;opacity:1;isolation:auto;mix-blend-mode:normal;color-interpolation:sRGB;color-interpolation-filters:linearRGB;solid-color:#000000;solid-opacity:1;fill:#000000;fill-opacity:1;fill-rule:evenodd;stroke:none;stroke-width:200;stroke-linecap:round;stroke-linejoin:round;stroke-miterlimit:4;stroke-dasharray:none;stroke-dashoffset:0;stroke-opacity:1;color-rendering:auto;image-rendering:auto;shape-rendering:auto;text-rendering:auto;enable-background:accumulate"
         d="m 2493.1738,1946.916 a 100.01,100.01 0 0 0 -78.082,168.0606 c 49.8886,55.0935 79.6626,131.4921 83.2559,207.2168 -54.6261,-4.2601 -110.6212,-0.7179 -165.8497,13.2734 -83.9621,21.2706 -161.5632,65.6636 -221.789,129.9609 -60.2543,64.3278 -98.1863,143.3675 -116.8535,224.7637 -18.5961,81.0858 -17.4263,157.9963 -16.0801,226.8945 l 0.6035,30.9219 c 0.8719,44.6217 0.7826,84.1264 -4.6269,117.6621 -5.3924,33.4291 -16.3995,64.3468 -32.1446,89.293 -15.7299,24.922 -37.8745,46.5497 -62.9394,61.4785 -25.2388,15.0322 -55.4301,24.6374 -86.3946,27.5176 -39.4046,3.6652 -81.497,-3.3768 -119.3261,-19.7735 -37.9683,-16.4568 -73.2102,-42.8268 -101.3243,-75.4277 -56.0664,-65.0143 -85.3584,-158.795 -82.2285,-250.9082 2.6618,-78.3342 27.4061,-157.0312 70.0528,-222.793 42.6467,-65.7617 104.4042,-120.4532 174.8398,-154.8359 a 100.01,100.01 0 1 0 -87.7324,-179.7305 c -103.6372,50.5899 -192.1609,128.9859 -254.9102,225.7461 -62.7493,96.7603 -98.2183,209.5612 -102.1347,324.8203 -4.6765,137.6289 36.5963,279.2474 130.6543,388.3164 46.9481,54.4407 105.7551,99.0641 173.2441,128.3165 67.6283,29.3127 142.3501,42.3899 217.3887,35.4101 59.2245,-5.5088 117.6326,-23.5101 170.2148,-54.8281 52.7559,-31.4216 97.1089,-74.8853 129.7246,-126.5606 32.6003,-51.6511 51.4308,-108.198 60.4629,-164.1914 9.0149,-55.8869 8.0403,-107.4806 7.1426,-153.4199 l -0.6055,-30.9199 c -1.3054,-66.8089 -0.6864,-127.0687 11.0586,-178.2813 11.6738,-50.9022 35.3471,-98.0108 67.8828,-132.7461 32.5642,-34.7656 77.3211,-60.7481 124.9356,-72.8105 21.0341,-5.3287 43.2561,-8.0727 65.9902,-8.6426 -13.9513,28.378 -29.9025,57.5001 -46.9707,87.5742 a 100.01,100.01 0 0 0 -0,0 c -43.5149,76.6735 -94.8815,162.246 -120.8438,267.0118 -30.1878,121.8173 -19.254,257.1244 49.4317,371.2636 34.3027,57.0029 81.9051,106.429 140.6699,141.7676 58.9547,35.4529 127.2001,55.4344 198.0136,54.7402 69.9612,-0.6857 136.7483,-21.4812 194.3711,-56.5625 57.4075,-34.9501 104.0448,-82.9197 138.6895,-137.5351 69.2094,-109.1044 87.0978,-237.2856 73.1894,-355.9375 -15.3609,-131.0451 -69.5205,-256.5203 -156.873,-356.8184 -60.4919,-69.4567 -135.688,-125.2438 -219.6348,-162.7871 10.6726,-142.5115 -37.5434,-285.8313 -134.3027,-392.6855 a 100.01,100.01 0 0 0 -70.168,-33.8145 z m 152.209,623.8574 c 45.6069,24.8059 87.1122,57.7858 121.0762,96.7832 59.6327,68.4702 98.3583,157.5151 109.0527,248.75 9.5597,81.5539 -4.6685,164.4077 -43.4355,225.5215 -19.3433,30.4936 -45.1251,56.3744 -73.8067,73.836 -28.4659,17.3303 -61.5058,27.1002 -92.3281,27.4023 -31.1437,0.3053 -64.5578,-9.0531 -92.9824,-26.1465 -28.6147,-17.2076 -54.1069,-43.1336 -72.377,-73.4941 -36.4599,-60.5878 -45.5294,-143.9136 -26.666,-220.0332 16.8162,-67.8584 56.3893,-138.4038 100.6563,-216.4024 23.7923,-41.922 49.1212,-86.988 70.8105,-136.2168 z"
         id="path4916-4-0-4-6"
         inkscape:connector-curvature="0" />
      <path
         style="color:#000000;font-style:normal;font-variant:normal;font-weight:normal;font-stretch:normal;font-size:medium;line-height:normal;font-family:sans-serif;text-indent:0;text-align:start;text-decoration:none;text-decoration-line:none;text-decoration-style:solid;text-decoration-color:#000000;letter-spacing:normal;word-spacing:normal;text-transform:none;direction:ltr;block-progression:tb;writing-mode:lr-tb;baseline-shift:baseline;text-anchor:start;white-space:normal;clip-rule:nonzero;display:inline;overflow:visible;visibility:visible;opacity:1;isolation:auto;mix-blend-mode:normal;color-interpolation:sRGB;color-interpolation-filters:linearRGB;solid-color:#000000;solid-opacity:1;fill:#000000;fill-opacity:1;fill-rule:evenodd;stroke:none;stroke-width:70;stroke-linecap:round;stroke-linejoin:round;stroke-miterlimit:4;stroke-dasharray:none;stroke-dashoffset:0;stroke-opacity:1;color-rendering:auto;image-rendering:auto;shape-rendering:auto;text-rendering:auto;enable-background:accumulate"
         d="M 4284.334 1522.4297 A 35.0035 35.0035 0 0 0 4258.2266 1580.2734 C 4322.0162 1656.4961 4356.1436 1758.2486 4351.2148 1857.5195 C 4349.1493 1899.1214 4340.5431 1940.2416 4327.5938 1980.9473 C 4292.9352 1971.1197 4257.3218 1964.5184 4221.1895 1961.7383 C 4158.3481 1956.9032 4093.5743 1963.2294 4032.7637 1985.2051 C 3971.7912 2007.2393 3916.4195 2044.8742 3874.457 2095.0547 C 3832.4756 2145.2578 3805.7279 2205.9594 3792.8633 2268.6172 C 3780.0149 2331.1953 3781.1332 2393.3113 3782.8145 2452.4648 L 3784.0391 2495.5332 C 3785.5652 2549.223 3786.3871 2601.331 3778.8008 2650.6758 C 3771.2218 2699.9727 3755.0748 2747.583 3729.2031 2788.2441 C 3703.3494 2828.8771 3667.2748 2863.2322 3625.4219 2886.3926 C 3583.5265 2909.5765 3535.2555 2921.9982 3487.0352 2922.543 C 3432.4673 2923.1596 3377.2907 2908.6908 3328.8633 2882.2148 C 3280.384 2855.7106 3238.1149 2817.0677 3205.9102 2771.4043 C 3141.5419 2680.1351 3118.1294 2560.636 3133.1504 2447.5723 C 3145.1429 2357.3037 3180.5711 2269.8921 3234.8105 2196.7461 C 3289.0499 2123.6 3362.4028 2064.3108 3445.2969 2026.6172 A 35.0035 35.0035 0 1 0 3416.3223 1962.8945 C 3322.4577 2005.5767 3239.9996 2072.2242 3178.582 2155.0508 C 3117.1644 2237.8773 3077.3395 2336.1383 3063.7598 2438.3535 C 3046.6588 2567.0746 3072.5 2703.6926 3148.707 2811.748 C 3186.7902 2865.7468 3236.7577 2911.6371 3295.2852 2943.6348 C 3353.8645 2975.6609 3420.4474 2993.3004 3487.8262 2992.5391 C 3547.4628 2991.8653 3606.8348 2976.6807 3659.3164 2947.6387 C 3711.8405 2918.573 3756.2118 2876.1935 3788.2617 2825.8223 C 3820.2936 2775.4794 3839.1748 2718.6267 3847.9863 2661.3125 C 3856.7905 2604.0462 3855.5484 2547.6734 3854.0098 2493.543 L 3852.7871 2450.4766 C 3851.1254 2392.0159 3850.6156 2335.3767 3861.4316 2282.6973 C 3872.2312 2230.0977 3894.6583 2180.0172 3928.1562 2139.959 C 3961.6732 2099.878 4006.8696 2068.9943 4056.5547 2051.0391 C 4106.4017 2033.0255 4161.3467 2027.34 4215.8203 2031.5312 C 4245.2445 2033.7952 4274.4438 2038.9913 4303.0137 2046.7637 C 4283.9898 2091.7852 4261.0664 2136.3364 4237.2012 2180.498 C 4180.2948 2285.8017 4116.1942 2395.5713 4093.6191 2522.0449 C 4076.749 2616.5569 4085.289 2718.2643 4130.9844 2806.0352 C 4153.8358 2849.9277 4185.6448 2889.5269 4225.3027 2920.3867 C 4265.0127 2951.2869 4312.1799 2972.9666 4362.5664 2981.3203 C 4427.49 2992.0842 4494.2054 2980.056 4551.9473 2950.9023 C 4609.5507 2921.8187 4657.2707 2876.545 4691.6816 2823.3164 C 4760.4187 2716.99 4773.3713 2585.2395 4751.8164 2464.9316 C 4728.7925 2336.425 4666.9572 2214.66 4572.8203 2123.043 C 4521.1995 2072.8041 4460.1653 2032.3358 4393.873 2004.2617 C 4408.5739 1958.327 4418.6632 1910.6515 4421.1289 1860.9902 C 4426.9593 1743.5603 4387.3664 1625.5132 4311.9082 1535.3477 A 35.0035 35.0035 0 0 0 4284.334 1522.4297 z M 4369.4648 2070.0996 C 4426.5743 2094.7231 4479.4255 2129.8277 4524 2173.209 C 4606.8418 2253.8332 4662.3852 2362.6942 4682.9141 2477.2754 C 4702.0206 2583.917 4689.3332 2698.0131 4632.8965 2785.3125 C 4604.7203 2828.8969 4565.7019 2865.5415 4520.3965 2888.416 C 4475.2296 2911.2205 4422.8212 2920.3534 4374.0156 2912.2617 C 4336.0461 2905.9666 4299.2665 2889.2424 4268.293 2865.1406 C 4237.2675 2840.9982 4211.5814 2809.2592 4193.0742 2773.7109 C 4156.0524 2702.6003 4147.9257 2616.1707 4162.5312 2534.3457 C 4182.2555 2423.8432 4241.2469 2320.2522 4298.7852 2213.7793 C 4323.644 2167.779 4348.5879 2119.981 4369.4648 2070.0996 z "
         transform="translate(-33.173191,-990.67079)"
         id="path4916-4-0-4-4-6" />
    </g>
  </g>
</svg>
