<?xml version="1.0" encoding="UTF-8" standalone="no"?>
<!-- Created with Inkscape (http://www.inkscape.org/) -->

<svg
   xmlns:dc="http://purl.org/dc/elements/1.1/"
   xmlns:cc="http://creativecommons.org/ns#"
   xmlns:rdf="http://www.w3.org/1999/02/22-rdf-syntax-ns#"
   xmlns:svg="http://www.w3.org/2000/svg"
   xmlns="http://www.w3.org/2000/svg"
   xmlns:sodipodi="http://sodipodi.sourceforge.net/DTD/sodipodi-0.dtd"
   xmlns:inkscape="http://www.inkscape.org/namespaces/inkscape"
   width="2000"
   height="2048"
   id="svg2992"
   version="1.1"
   inkscape:version="0.91 r13725"
   sodipodi:docname="ശ്ച.svg">
  <defs
     id="defs5498">
    <inkscape:path-effect
       effect="spiro"
       id="path-effect4153"
       is_visible="true" />
    <inkscape:path-effect
       effect="spiro"
       id="path-effect4504-9-5-0-9"
       is_visible="true" />
    <inkscape:path-effect
       effect="spiro"
       id="path-effect4141-37-35-0-6-4-5"
       is_visible="true" />
    <inkscape:path-effect
       effect="spiro"
       id="path-effect4146-9-3-6"
       is_visible="true" />
    <inkscape:path-effect
       effect="spiro"
       id="path-effect4141-37-35-0-6-4-5-2"
       is_visible="true" />
    <inkscape:path-effect
       effect="spiro"
       id="path-effect4141-37-35-0-6-4-5-2-0"
       is_visible="true" />
    <inkscape:path-effect
       effect="spiro"
       id="path-effect4504-9-5-0-9-4"
       is_visible="true" />
    <inkscape:path-effect
       effect="spiro"
       id="path-effect4504-9-5-0-9-4-2"
       is_visible="true" />
    <inkscape:path-effect
       effect="spiro"
       id="path-effect4153-3"
       is_visible="true" />
    <inkscape:path-effect
       effect="spiro"
       id="path-effect4153-5"
       is_visible="true" />
    <inkscape:path-effect
       effect="spiro"
       id="path-effect4504-9-5-0-9-4-6"
       is_visible="true" />
    <inkscape:path-effect
       effect="spiro"
       id="path-effect4153-57"
       is_visible="true" />
    <inkscape:path-effect
       effect="spiro"
       id="path-effect4504-9-5-0-9-4-0"
       is_visible="true" />
    <inkscape:path-effect
       effect="spiro"
       id="path-effect4504-9-5-0-9-4-0-8"
       is_visible="true" />
    <inkscape:path-effect
       effect="spiro"
       id="path-effect4153-57-1"
       is_visible="true" />
  </defs>
  <sodipodi:namedview
     inkscape:window-height="704"
     inkscape:window-width="1366"
     inkscape:pageshadow="2"
     inkscape:pageopacity="0.0"
     borderopacity="1.0"
     bordercolor="#666666"
     pagecolor="#ffffff"
     id="base"
     showgrid="true"
     showguides="true"
     inkscape:guide-bbox="true"
     inkscape:zoom="0.16051324"
     inkscape:cx="-1095.1477"
     inkscape:cy="-625.27151"
     inkscape:window-x="-4"
     inkscape:window-y="0"
     inkscape:current-layer="layer1"
     inkscape:window-maximized="1">
    <sodipodi:guide
       orientation="horizontal"
       position="0,600"
       id="guide5596" />
    <inkscape:grid
       type="xygrid"
       id="grid3769"
       empspacing="3"
       visible="true"
       enabled="true"
       snapvisiblegridlinesonly="true"
       spacingx="4px"
       units="px"
       dotted="true"
       spacingy="4px" />
    <sodipodi:guide
       orientation="0,1"
       position="-1040,1600"
       id="guide2985" />
  </sodipodi:namedview>
  <metadata
     id="metadata5594">
    <rdf:RDF>
      <cc:Work
         rdf:about="">
        <dc:format>image/svg+xml</dc:format>
        <dc:type
           rdf:resource="http://purl.org/dc/dcmitype/StillImage" />
        <dc:title />
      </cc:Work>
    </rdf:RDF>
  </metadata>
  <g
     inkscape:label="Layer 1"
     inkscape:groupmode="layer"
     id="layer1"
     transform="translate(0,1048)">
    <path
       style="fill:none;fill-rule:evenodd;stroke:#000000;stroke-width:140;stroke-linecap:round;stroke-linejoin:round;stroke-miterlimit:4;stroke-dasharray:none;stroke-opacity:1"
       d="m 508.3582,-567.09705 c -83.42161,35.86471 -157.35737,93.53205 -212.45675,165.70892 -55.09938,72.17688 -91.23701,158.69907 -103.84263,248.62427 -14.14068,100.875893 1.92117,206.82828 51.44821,295.83939 49.52703,89.0111 133.40199,159.73345 231.51,187.13276 70.04938,19.56318 146.72226,16.71224 213.88143,-11.20333 67.15917,-27.91556 124.00044,-81.32979 152.97498,-148.03893 27.10104,-62.3957 29.38982,-132.535657 27.23907,-200.528777 -2.15076,-67.99312 -8.27521,-136.629833 3.47267,-203.634883 15.54989,-88.69016 63.06579,-171.16391 130.93472,-230.33779 67.869,-59.17387 155.4859,-94.90314 245.2721,-101.69924 108.8008,-8.23536 221.0747,26.90587 302.9475,99.03281 81.8727,72.12694 131.2322,181.03625 127.2249,290.07471 -2.4565,66.84264 -25.0742,133.917287 -69.1383,184.2394971 -22.0321,25.1611049 -49.2086,45.9236349 -79.6675,59.7349079 -30.4588,13.811273 -64.197,20.586372 -97.5873,18.693649 -62.61,-3.54904 -121.5303,-38.071366 -160.2308,-87.41593358 C 1233.6401,-50.219587 1214.3181,-113.18146 1212.2788,-175.85884 c -3.5568,-109.31936 45.5576,-218.4708 127.4095,-291.02177 81.8519,-72.55098 194.4531,-108.12341 303.4797,-99.37276 97.9041,7.85793 192.4944,50.66921 263.6514,118.37177 71.1569,67.70256 118.5296,159.73027 133.2026,256.84697 19.3211,127.881605 -19.3793,263.39792 -103.3191,361.79053 -83.9399,98.3926 -211.6671,157.95916 -340.9956,159.02598"
       id="path4502-2-0-5-0"
       inkscape:path-effect="#path-effect4504-9-5-0-9-4"
       inkscape:original-d="m 508.3582,-567.09705 c 0,0 -305.70219,240.90162 -316.29938,414.33319 -11.3797,186.23819 105.59105,425.04936 282.95821,482.97215 126.72284,41.38387 289.55608,-50.63305 366.85641,-159.24226 78.34441,-110.076168 -29.48322,-283.20426 30.71174,-404.16366 74.51837,-149.74172 208.95092,-333.05757 376.20682,-332.03703 193.3449,1.17973 422.2434,195.92162 430.1724,389.10752 4.923,119.947182 -126.3904,265.972217 -246.3931,262.668054 -114.1605,-3.143303 -228.0684,-148.461056 -220.2925,-262.399754 13.1963,-193.36382 237.0865,-392.45392 430.8892,-390.39453 182.0404,1.9344 387.1085,193.42905 396.854,375.21874 12.2159,227.86993 -444.3147,520.81651 -444.3147,520.81651"
       inkscape:connector-curvature="0"
       sodipodi:nodetypes="caaaaaaaaaac" />
    <path
       style="fill:none;fill-rule:evenodd;stroke:#000000;stroke-width:140;stroke-linecap:round;stroke-linejoin:round;stroke-miterlimit:4;stroke-dasharray:none;stroke-opacity:1"
       d="m 1152,328 1226,0 0,-892"
       id="path4151"
       inkscape:path-effect="#path-effect4153"
       inkscape:original-d="m 1152,328 1226,0 0,-892"
       inkscape:connector-curvature="0"
       sodipodi:nodetypes="ccc" />
    <path
       style="color:#000000;font-style:normal;font-variant:normal;font-weight:normal;font-stretch:normal;font-size:medium;line-height:normal;font-family:sans-serif;text-indent:0;text-align:start;text-decoration:none;text-decoration-line:none;text-decoration-style:solid;text-decoration-color:#000000;letter-spacing:normal;word-spacing:normal;text-transform:none;direction:ltr;block-progression:tb;writing-mode:lr-tb;baseline-shift:baseline;text-anchor:start;white-space:normal;clip-rule:nonzero;display:inline;overflow:visible;visibility:visible;opacity:1;isolation:auto;mix-blend-mode:normal;color-interpolation:sRGB;color-interpolation-filters:linearRGB;solid-color:#000000;solid-opacity:1;fill:#000000;fill-opacity:1;fill-rule:evenodd;stroke:none;stroke-width:140;stroke-linecap:round;stroke-linejoin:round;stroke-miterlimit:4;stroke-dasharray:none;stroke-dashoffset:0;stroke-opacity:1;color-rendering:auto;image-rendering:auto;shape-rendering:auto;text-rendering:auto;enable-background:accumulate"
       d="m 1634.9883,1651.7754 c -4.0026,-0.023 -8.0042,0 -12.0039,0.08 -53.4428,1.0131 -106.4911,10.9368 -156.6387,29.1015 -64.043,-22.581 -132.6621,-31.7849 -200.5996,-26.6425 -104.7806,7.931 -206.1485,49.1255 -285.99024,118.7382 -79.95441,69.7111 -135.41683,165.6987 -153.88086,271.0098 -13.86676,79.0903 -6.55332,152.6537 -4.48828,217.9375 2.05304,64.9041 -1.44226,124.293 -21.48047,170.4277 -21.08699,48.5493 -64.77468,90.1457 -115.63672,111.2871 -51.28241,21.3162 -112.57857,23.9517 -168.18555,8.4219 -78.00688,-21.7855 -148.30949,-80.3128 -189.16992,-153.748 -41.17818,-74.0064 -55.48852,-165.1 -43.29492,-252.086 10.9093,-77.8241 42.47539,-153.403 90.16016,-215.8672 47.68476,-62.4641 112.26911,-112.8365 184.46484,-143.875 36.09872,-14.9097 53.01619,-56.4744 37.59022,-92.3555 -15.42596,-35.8811 -57.22896,-52.2007 -92.88514,-36.2616 -94.64751,40.6909 -177.93523,105.6533 -240.44922,187.5429 -62.51399,81.8896 -103.22347,179.3546 -117.52539,281.3809 -16.08774,114.7658 1.7257,235.576 59.60156,339.5918 58.19363,104.5868 155.64049,187.5045 273.84961,220.5176 84.49177,23.5966 176.5422,20.5304 259.57813,-13.9844 83.45629,-34.6897 153.45038,-99.9202 190.3125,-184.7891 34.16388,-78.6567 35.24846,-159.5467 33,-230.6289 -2.23644,-70.7024 -7.17394,-134.414 2.45507,-189.334 12.63577,-72.0691 52.20482,-141.0273 107.98832,-189.664 55.8962,-48.7351 129.7629,-79.001 204.5547,-84.6621 5.0706,-0.3838 10.1574,-0.6109 15.25,-0.7637 -82.8667,85.2334 -130.9317,202.0761 -127.0098,322.6172 2.4571,75.518 25.381,152.7124 74.9433,215.9062 50.208,64.017 125.6092,109.2434 211.3497,114.1035 45.4737,2.5777 90.1334,-6.5437 130.457,-24.8281 40.227,-18.2405 75.1703,-45.107 103.4238,-77.373 56.5525,-64.5842 83.4552,-146.8993 86.4277,-227.7832 4.4604,-121.367 -44.5461,-238.8338 -128.5156,-323.8399 5.7347,0.1596 11.4607,0.4601 17.166,0.918 81.2775,6.5235 161.6104,42.8021 221,99.3086 59.4476,56.5615 99.9143,135.022 112.2383,216.5918 16.1672,107.0062 -17.1198,223.5713 -87.3574,305.9023 -63.1795,74.0578 -158.4221,122.9468 -255.6875,132.6758 l -475.7617,0 c -39.0471,-0.5522 -70.9969,30.949 -70.9969,70 0,39.051 31.9498,70.5522 70.9969,70 410.8361,1.7932 814.1381,0 1226,0 38.6583,-0 69.9961,-31.3417 70,-70 l 0,-892 c 0.5587,-39.4613 -31.594,-71.5848 -71.0547,-70.9902 -38.6346,0.5821 -69.4923,32.3551 -68.9453,70.9902 l 0,822 -358.0215,0 c 14.0567,-13.1404 27.4171,-27.0883 39.9785,-41.8125 97.6422,-114.4542 141.7544,-268.9227 119.2793,-417.6797 -17.0219,-112.6636 -71.2995,-218.2599 -154.166,-297.1035 -82.9244,-78.8986 -191.772,-128.2412 -306.3027,-137.4336 -11.9943,-0.9627 -24.0099,-1.4764 -36.0176,-1.5449 z m -167.9629,182.2754 0,0 c 21.8861,11.6216 42.3726,25.4949 60.6778,41.6211 66.1179,58.2475 106.7146,148.7319 103.5449,234.9785 -1.9405,52.8013 -20.2739,104.6371 -51.8496,140.6973 -15.8107,18.0561 -35.2195,32.7137 -55.9102,42.0957 -20.5942,9.3382 -43.41,13.7663 -64.7168,12.5586 -39.4795,-2.2379 -81.9201,-26.0544 -109.1132,-60.7266 -27.8385,-35.4951 -43.5563,-84.2238 -45.1778,-134.0606 -2.8265,-86.8728 37.7037,-177.7073 103.877,-236.3613 17.735,-15.7197 37.529,-29.3295 58.666,-40.8027 z"
       transform="translate(0,-1048)"
       id="path4502-2-0-5-0-9"
       inkscape:connector-curvature="0"
       sodipodi:nodetypes="sccsssssssssscscsssssssssscsssssscssssccsccccscccsssssccssssssssc" />
    <path
       style="fill:none;fill-rule:evenodd;stroke:#000000;stroke-width:70;stroke-linecap:round;stroke-linejoin:round;stroke-miterlimit:4;stroke-dasharray:none;stroke-opacity:1"
       d="m -2015.3169,-574.66131 c -88.1272,38.21458 -166.1902,99.36824 -224.3902,175.78496 -58.2001,76.41672 -96.407,167.9253 -109.825,263.03957 -15.064,106.782201 1.7447,218.973707 54.0457,313.2815 52.3011,94.30779 141.0576,169.2933 244.9397,198.23927 74.0511,20.63379 155.0931,17.5212 226.0448,-12.06233 70.9516,-29.58353 130.9669,-86.08405 161.5911,-156.59279 28.7023,-66.08365 31.1336,-140.368387 28.8501,-212.3798784 -2.2834,-72.0114916 -8.7891,-144.6996916 3.6012,-215.6739916 16.3804,-93.83098 66.486,-181.14963 138.1823,-243.857 71.6963,-62.70738 164.3542,-100.6327 259.3337,-107.80683 115.0738,-8.69192 233.78364,28.70123 320.24359,105.1355 86.45994,76.43427 138.47417,191.64643 134.29452,306.97227 -2.56317,70.723457 -26.37361,141.719934 -72.91254,195.03509 -23.26946,26.657578 -51.99191,48.668892 -84.20235,63.317507 -32.21044,14.648613 -67.90612,21.843553 -103.23442,19.841843 -66.2534,-3.75393 -128.5741,-40.376256 -169.447,-92.654481 -40.8729,-52.278225 -61.2064,-118.929919 -63.3232,-185.255799 -3.69,-115.61891 48.0704,-231.07697 134.5051,-307.95607 86.4347,-76.8791 205.48057,-114.73332 320.79044,-105.51479 103.58045,8.28081 203.62647,53.70967 278.79472,125.45376 75.16826,71.7441 125.10334,169.18601 140.53784,271.94426 21.11691,140.590059 -24.09549,289.71488 -119.73006,394.90765 -95.63456,105.19277 -239.79135,164.36365 -381.75146,156.69447"
       id="path4502-2-0-5-0-3"
       inkscape:path-effect="#path-effect4504-9-5-0-9-4-0"
       inkscape:original-d="m -2015.3169,-574.66131 c 0,0 -323.0178,255.14138 -334.2152,438.82453 -12.0243,197.246786 111.5719,450.17415 298.9854,511.52077 133.9008,43.83007 305.9572,-53.62599 387.6359,-168.65512 82.7821,-116.582795 -31.1532,-299.944532 32.4513,-428.05387 78.7393,-158.593 220.7863,-352.74469 397.516,-351.66383 204.2963,1.24946 446.16,207.5026 454.53811,412.10777 5.20185,127.037287 -138.40712,313.21186 -260.34931,278.19444 -787.5507,-226.15642 -275.35,-168.717879 -232.7702,-277.91028 74.5528,-191.18481 250.5155,-415.65198 455.29554,-413.47086 192.35151,2.04875 412.16964,204.95662 419.33256,397.39802 9.24292,248.323206 -501.48152,551.60212 -501.48152,551.60212"
       inkscape:connector-curvature="0"
       sodipodi:nodetypes="caaaaaassaac" />
    <path
       style="fill:none;fill-rule:evenodd;stroke:#000000;stroke-width:70;stroke-linecap:round;stroke-linejoin:round;stroke-miterlimit:4;stroke-dasharray:none;stroke-opacity:1"
       d="m -1330.8128,376.24384 445.52205,0 831.920942,0 18,-944.72635"
       id="path4151-5"
       inkscape:path-effect="#path-effect4153-57"
       inkscape:original-d="m -1330.8128,376.24384 445.52205,0 831.920942,0 18,-944.72635"
       inkscape:connector-curvature="0"
       sodipodi:nodetypes="cccc" />
    <path
       style="color:#000000;font-style:normal;font-variant:normal;font-weight:normal;font-stretch:normal;font-size:medium;line-height:normal;font-family:sans-serif;text-indent:0;text-align:start;text-decoration:none;text-decoration-line:none;text-decoration-style:solid;text-decoration-color:#000000;letter-spacing:normal;word-spacing:normal;text-transform:none;direction:ltr;block-progression:tb;writing-mode:lr-tb;baseline-shift:baseline;text-anchor:start;white-space:normal;clip-rule:nonzero;display:inline;overflow:visible;visibility:visible;opacity:1;isolation:auto;mix-blend-mode:normal;color-interpolation:sRGB;color-interpolation-filters:linearRGB;solid-color:#000000;solid-opacity:1;fill:#000000;fill-opacity:1;fill-rule:evenodd;stroke:none;stroke-width:70;stroke-linecap:round;stroke-linejoin:round;stroke-miterlimit:4;stroke-dasharray:none;stroke-dashoffset:0;stroke-opacity:1;color-rendering:auto;image-rendering:auto;shape-rendering:auto;text-rendering:auto;enable-background:accumulate"
       d="m -1520.5938,1685.8633 c -3.9084,-0.018 -7.816,0.013 -11.7226,0.092 -56.7922,1.152 -113.2361,12.6447 -165.9473,33.5781 -66.2697,-25.6885 -138.2933,-36.4877 -209.3164,-31.123 -102.5126,7.7431 -202.0577,48.4219 -279.7383,116.3632 -77.7332,67.9874 -131.7919,162.0631 -149.6191,264.1817 -13.4434,77.0069 -6.3459,152.1503 -4.1055,222.8027 2.2344,70.4627 -0.7988,139.3729 -25.9707,197.3281 -26.6896,61.4497 -80.1447,112.0407 -142.957,138.2305 -63.019,26.276 -136.3676,29.2696 -203.1816,10.6524 -93.792,-26.1345 -175.7544,-94.996 -223.7266,-181.4981 -48.1338,-86.7934 -64.0834,-191.5594 -49.9961,-291.418 12.568,-89.0891 48.4984,-175.1467 103.0117,-246.7226 54.5133,-71.576 127.9261,-129.0871 210.4707,-164.8809 18.0513,-7.4951 26.4673,-28.3209 18.6915,-46.2531 -7.7759,-17.9322 -28.7304,-26.0223 -46.5391,-17.9676 -93.7098,40.6354 -176.4237,105.432 -238.3106,186.6895 -61.8869,81.2575 -102.3707,178.2159 -116.6387,279.3554 -16.0407,113.7059 1.6274,233.3243 58.0957,335.1465 56.6301,102.1136 152.1802,183.223 266.1524,214.9805 81.2884,22.6504 170.0237,19.4166 248.9082,-13.4746 79.0911,-32.9772 145.6658,-95.3854 180.2246,-174.9531 32.2327,-74.212 34.0631,-153.8735 31.7305,-227.4336 -2.3266,-73.3706 -8.2395,-143.6033 3.0976,-208.545 14.9336,-85.5433 61.0867,-166.1039 126.7461,-223.5312 65.7121,-57.4734 151.4813,-92.6468 238.9278,-99.252 38.6012,-2.9156 77.7383,-0.067 115.7265,8.0313 -15.9151,10.7917 -31.2489,22.499 -45.7011,35.3535 -94.2527,83.8327 -150.2732,208.4333 -146.2266,335.2246 2.3209,72.7211 24.4378,146.4825 70.7324,205.6953 46.6206,59.6299 117.1893,101.63 195.041,106.041 41.387,2.345 82.5538,-6.0309 119.7032,-22.9257 37.1002,-16.8724 69.7042,-41.944 96.08,-72.1602 52.7725,-60.4563 78.7068,-139.0668 81.5235,-216.7832 4.5908,-126.6721 -51.7729,-251.0826 -146.0899,-334.4629 -15.1868,-13.4258 -31.3228,-25.602 -48.0957,-36.7519 38.8946,-8.5715 79.0462,-11.5133 118.5938,-8.3516 95.2287,7.6131 188.1341,49.7531 257.4199,115.8828 69.3186,66.1609 115.8216,156.8176 130.0918,251.8242 19.4869,129.7382 -22.7629,269.0929 -111.0156,366.166 -88.2527,97.0732 -222.9644,152.3663 -293.8533,149.3081 -3.6199,-0.24 -494.4358,-3.0581 -494.4358,-3.0581 -19.5236,-0.2761 -35.4985,15.4745 -35.4985,35 0,19.5255 15.9749,35.2761 35.4985,35 l 445.5215,0 831.92186,0 c 19.069,-0 34.62741,-15.2684 34.99219,-34.3339 l 18,-944.7266 c 0.6544,-19.7208 -15.11223,-36.0849 -34.84375,-36.1641 -19.3194,-0.077 -35.04813,15.5128 -35.14258,34.8321 l -17.3457,910.3925 -526.83012,0 c 45.9563,-26.3748 87.9509,-59.7184 123.8106,-99.1621 103.0165,-113.3125 151.1902,-272.2083 128.4433,-423.6504 -16.5988,-110.5097 -69.9664,-214.7372 -150.9843,-292.0644 -81.0506,-77.3585 -188.2378,-126.075 -300.17,-135.0234 -11.7003,-0.9355 -23.429,-1.4268 -35.1543,-1.4805 z m -177.416,110.123 c 32.7092,15.3317 63.255,34.9259 90.1289,58.6836 78.6028,69.4883 126.2665,175.5009 122.4981,279.4805 -2.3098,63.7306 -23.9974,127.1132 -64.3027,173.2871 -20.1632,23.099 -45.0035,42.0498 -72.3243,54.4746 -27.2715,12.4026 -57.4959,18.4162 -86.7656,16.7578 -54.6551,-3.0967 -108.7285,-34.341 -143.8535,-79.2676 -35.4512,-45.3436 -54.0014,-104.8836 -55.9141,-164.8144 -3.3334,-104.4464 44.1664,-210.762 122.7832,-280.6875 26.2004,-23.3038 55.9213,-42.6497 87.75,-57.9121 z"
       transform="translate(0,-1048)"
       id="path4502-2-0-5-0-3-8"
       inkscape:connector-curvature="0"
       sodipodi:nodetypes="sccsssssssssscscsssssssssscsssssssscssssccscccccccccssscscsssssssscc" />
  </g>
</svg>
