<?xml version="1.0" encoding="UTF-8" standalone="no"?>
<!-- Created with Inkscape (http://www.inkscape.org/) -->

<svg
   xmlns:dc="http://purl.org/dc/elements/1.1/"
   xmlns:cc="http://creativecommons.org/ns#"
   xmlns:rdf="http://www.w3.org/1999/02/22-rdf-syntax-ns#"
   xmlns:svg="http://www.w3.org/2000/svg"
   xmlns="http://www.w3.org/2000/svg"
   xmlns:sodipodi="http://sodipodi.sourceforge.net/DTD/sodipodi-0.dtd"
   xmlns:inkscape="http://www.inkscape.org/namespaces/inkscape"
   width="2000"
   height="2048"
   id="svg2992"
   version="1.1"
   inkscape:version="0.91 r13725"
   sodipodi:docname="ശൃ.svg">
  <defs
     id="defs5498">
    <inkscape:path-effect
       effect="spiro"
       id="path-effect4504-9-5-0-9"
       is_visible="true" />
    <inkscape:path-effect
       effect="spiro"
       id="path-effect4504-9-5-0-9-1"
       is_visible="true" />
    <inkscape:path-effect
       effect="spiro"
       id="path-effect4504-9-5-0-9-2"
       is_visible="true" />
    <inkscape:path-effect
       effect="spiro"
       id="path-effect4504-9-5-0-9-2-1"
       is_visible="true" />
    <inkscape:path-effect
       effect="spiro"
       id="path-effect4187"
       is_visible="true" />
    <inkscape:path-effect
       effect="spiro"
       id="path-effect4183"
       is_visible="true" />
    <inkscape:path-effect
       effect="spiro"
       id="path-effect4183-3"
       is_visible="true" />
    <inkscape:path-effect
       effect="spiro"
       id="path-effect4504-9-5-0-9-2-8"
       is_visible="true" />
    <inkscape:path-effect
       effect="spiro"
       id="path-effect4504-9-5-0-9-2-82"
       is_visible="true" />
    <inkscape:path-effect
       effect="spiro"
       id="path-effect4183-5"
       is_visible="true" />
    <inkscape:path-effect
       effect="spiro"
       id="path-effect4183-5-5"
       is_visible="true" />
    <inkscape:path-effect
       effect="spiro"
       id="path-effect4504-9-5-0-9-2-82-7"
       is_visible="true" />
  </defs>
  <sodipodi:namedview
     inkscape:window-height="704"
     inkscape:window-width="1366"
     inkscape:pageshadow="2"
     inkscape:pageopacity="0.0"
     borderopacity="1.0"
     bordercolor="#666666"
     pagecolor="#ffffff"
     id="base"
     showgrid="true"
     showguides="true"
     inkscape:guide-bbox="true"
     inkscape:zoom="0.1135"
     inkscape:cx="-1082.63"
     inkscape:cy="-363.98413"
     inkscape:window-x="-4"
     inkscape:window-y="0"
     inkscape:current-layer="layer1"
     inkscape:window-maximized="1">
    <sodipodi:guide
       orientation="horizontal"
       position="0,600"
       id="guide5596" />
    <inkscape:grid
       type="xygrid"
       id="grid3769"
       empspacing="3"
       visible="true"
       enabled="true"
       snapvisiblegridlinesonly="true"
       spacingx="4px"
       units="px"
       dotted="true"
       spacingy="4px" />
    <sodipodi:guide
       orientation="0,1"
       position="-1040,1600"
       id="guide2985" />
  </sodipodi:namedview>
  <metadata
     id="metadata5594">
    <rdf:RDF>
      <cc:Work
         rdf:about="">
        <dc:format>image/svg+xml</dc:format>
        <dc:type
           rdf:resource="http://purl.org/dc/dcmitype/StillImage" />
        <dc:title />
      </cc:Work>
    </rdf:RDF>
  </metadata>
  <g
     inkscape:label="Layer 1"
     inkscape:groupmode="layer"
     id="layer1"
     transform="translate(0,1048)">
    <path
       style="fill:none;fill-rule:evenodd;stroke:#000000;stroke-width:140;stroke-linecap:round;stroke-linejoin:round;stroke-miterlimit:4;stroke-dasharray:none;stroke-opacity:1"
       d="m 340.08487,-573.56717 c -106.23324,54.95189 -192.24874,148.00194 -238.69743,258.21868 -59.986916,142.34119 -51.423693,312.1904381 24.10865,446.92837 34.06998,60.77553 81.3571,114.67854 139.71955,152.73447 58.36244,38.05593 127.99992,59.75602 197.62838,57.24492 62.02253,-2.23679 123.16935,-23.77598 173.08374,-60.65892 49.91438,-36.88295 88.41761,-88.92305 109.37823,-147.33923 25.03887,-69.782074 24.97955,-145.734721 23.67174,-219.861455 -1.3078,-74.126735 -3.38254,-149.737015 18.02108,-220.718475 22.30058,-73.95608 70.10516,-139.65146 132.50133,-185.18755 62.39617,-45.53609 138.91546,-70.94391 216.11096,-73.7135 119.3985,-4.28374 238.0781,45.88685 324.5421,128.33887 86.464,82.45201 141.4184,195.25986 162.1073,312.93029 19.5725,111.321043 7.9133,231.80346 -52.9558,327.04221 -30.4345,47.61937 -72.8374,87.97087 -123.3079,113.39906 -50.4705,25.4282 -109.0402,35.48518 -164.6609,25.47506 -41.7275,-7.50974 -81.2596,-26.11648 -114.3988,-52.56209 -33.1393,-26.44561 -59.9092,-60.61426 -78.7447,-98.59851 -37.671,-75.96849 -42.7695,-165.790002 -22.7879,-248.197819 19.0044,-78.377671 60.0967,-151.155911 116.7665,-208.538541 56.6697,-57.38262 128.7011,-99.29384 206.3568,-121.06117 116.7841,-32.73522 245.1491,-19.02222 354.3925,33.66535 109.2435,52.68758 199.0059,143.23348 254.799,250.92397 50.7454,97.947491 73.8372,209.47114 70.2614,319.72547 -3.5758,110.25433 -33.4443,219.12709 -82.9547,317.70458 -66.3432,132.09236 -170.7324,247.88506 -304.0513,311.7278 -101.9305,48.81171 -218.795,65.86967 -330.425,48.22999"
       id="path4502-2-0-5-0"
       inkscape:path-effect="#path-effect4504-9-5-0-9-2"
       inkscape:original-d="m 340.08487,-573.56717 c 0,0 -198.93217,147.95543 -238.69743,258.21868 -50.613898,140.34493 -51.823018,318.5038913 24.10865,446.92837 67.41215,114.0153 204.99523,215.14157 337.34793,209.97939 116.83849,-4.55708 224.84969,-106.24932 282.46197,-207.99815 72.68394,-128.3668187 -30.73015,-312.06569 41.69282,-440.57993 71.06255,-126.10019 212.6102,-231.51965 348.61229,-258.90105 207.09,-29.74279 464.5097,223.41735 486.6494,441.26916 19.4573,191.456531 -148.927,478.99554 -340.9246,465.91633 -150.9825,-10.28519 -237.0342,-249.504571 -215.9314,-399.358419 21.4546,-152.352631 171.7297,-302.184501 323.1233,-329.599711 220.5424,-39.93707 490.7212,94.3297 609.1915,284.58932 112.3333,180.403682 69.3644,441.39238 -12.6933,637.43005 -56.046,133.89508 -188.4174,237.92908 -304.0513,311.7278 -93.8284,59.88222 -330.425,48.22999 -330.425,48.22999"
       inkscape:connector-curvature="0"
       sodipodi:nodetypes="caaaaacaaaaaasc" />
    <path
       style="fill:none;fill-rule:evenodd;stroke:#000000;stroke-width:140;stroke-linecap:round;stroke-linejoin:round;stroke-miterlimit:4;stroke-dasharray:none;stroke-opacity:1"
       d="m 1132.9551,748.97474 c 3.8574,27.08362 16.9401,52.4687 35.269,72.77764 18.3289,20.30895 41.7334,35.68918 66.8875,46.44443 50.3081,21.5105 106.3447,24.63309 161.0482,25.69802 56.4913,1.09974 114.5188,0.0482 167.0791,-20.68585 26.2802,-10.367 50.8461,-25.69845 70.1198,-46.35384 19.2736,-20.65539 33.0645,-46.79924 37.0662,-74.7654 4.4179,-30.87447 -3.3085,-62.93067 -19.2458,-89.74022 -15.9374,-26.80955 -39.7465,-48.50374 -66.7421,-64.12376 -53.9914,-31.24003 -118.5422,-38.10795 -180.9167,-38.75592 -62.7942,-0.65233 -127.9612,4.96998 -182.7861,35.5932 -27.4124,15.3116 -51.6729,36.86504 -67.96,63.70933 -16.2871,26.84429 -24.2465,59.11726 -19.8191,90.20237 z"
       id="path4181"
       inkscape:path-effect="#path-effect4183"
       inkscape:original-d="m 1132.9551,748.97474 c 5.3904,100.0095 163.0586,143.61219 263.2047,144.92009 102.9098,1.344 274.2651,-45.80509 274.2651,-141.80509 3.9795,-141.0994 -157.1903,-191.8446 -266.9046,-192.6199 -110.1071,-0.778 -276.4914,79.5546 -270.5652,189.5049 z"
       inkscape:connector-curvature="0"
       sodipodi:nodetypes="aacaa" />
    <path
       style="color:#000000;font-style:normal;font-variant:normal;font-weight:normal;font-stretch:normal;font-size:medium;line-height:normal;font-family:sans-serif;text-indent:0;text-align:start;text-decoration:none;text-decoration-line:none;text-decoration-style:solid;text-decoration-color:#000000;letter-spacing:normal;word-spacing:normal;text-transform:none;direction:ltr;block-progression:tb;writing-mode:lr-tb;baseline-shift:baseline;text-anchor:start;white-space:normal;clip-rule:nonzero;display:inline;overflow:visible;visibility:visible;opacity:1;isolation:auto;mix-blend-mode:normal;color-interpolation:sRGB;color-interpolation-filters:linearRGB;solid-color:#000000;solid-opacity:1;fill:#000000;fill-opacity:1;fill-rule:evenodd;stroke:none;stroke-width:140;stroke-linecap:round;stroke-linejoin:round;stroke-miterlimit:4;stroke-dasharray:none;stroke-dashoffset:0;stroke-opacity:1;color-rendering:auto;image-rendering:auto;shape-rendering:auto;text-rendering:auto;enable-background:accumulate"
       d="M 619.52344 2099.9824 A 70.007 70.007 0 0 0 587.99805 2108.2539 C 466.81856 2170.9371 369.93876 2275.7395 316.95508 2401.4629 C 248.30316 2564.365 257.81088 2755.1474 344.50977 2909.8047 C 383.45647 2979.2795 437.85266 3041.8199 507.05664 3086.9453 C 576.56096 3132.2664 659.61741 3158.6049 745.44141 3155.5098 C 821.98279 3152.7494 896.1877 3126.5735 957.60156 3081.1934 C 1018.9884 3035.8331 1065.5668 2972.825 1091.2676 2901.1992 C 1121.7709 2816.1867 1120.363 2731.395 1119.041 2656.4629 C 1117.725 2581.87 1117.0159 2513.8169 1134.0918 2457.1875 C 1151.7176 2398.7346 1190.588 2345.0092 1240.8398 2308.3359 C 1291.2387 2271.5553 1354.6734 2250.3123 1418.1953 2248.0332 C 1485.5728 2245.6159 1554.7448 2264.8399 1615.2988 2299.8184 C 1539.2878 2326.7008 1469.4647 2370.4371 1412.4395 2428.1797 C 1346.8645 2494.5795 1299.5605 2578.2192 1277.4492 2669.4102 C 1254.0801 2765.7886 1259.2423 2871.8103 1305.5527 2965.2012 C 1328.693 3011.8667 1361.599 3054.0984 1403.3496 3087.416 C 1445.1906 3120.8057 1495.0318 3144.4414 1549.0117 3154.1562 C 1621.1075 3167.1314 1694.2854 3154.1852 1757.5664 3122.3027 C 1820.5419 3090.5742 1871.7018 3041.4453 1908.3613 2984.0859 C 1981.4724 2869.6926 1993.1625 2731.7009 1971.2773 2607.2266 C 1960.1195 2543.7654 1939.99 2481.4496 1911.0469 2423.3105 C 1939.1371 2430.587 1966.5485 2440.4638 1992.5859 2453.0215 C 2087.0787 2498.595 2166.5821 2578.4041 2215.6406 2673.0957 C 2260.3923 2759.4743 2281.3015 2859.3844 2278.0918 2958.3516 C 2274.877 3057.4758 2247.8473 3156.7131 2202.5469 3246.9082 C 2158.6805 3334.2482 2096.7538 3412.8435 2021.6328 3470.7109 C 2020.2825 3434.6012 2009.1214 3400.3468 1991.4238 3370.5762 C 1968.3145 3331.702 1935.4397 3302.3884 1899.5684 3281.6328 C 1828.4924 3240.5075 1751.3326 3234.1648 1684.3223 3233.4688 C 1616.8474 3232.7677 1538.9315 3237.5847 1466.6738 3277.9453 C 1430.1962 3298.3204 1396.6603 3327.4654 1373.002 3366.459 C 1349.055 3405.9283 1336.696 3453.4663 1343.7285 3502.8418 C 1349.8403 3545.7539 1369.6649 3583.1006 1396.332 3612.6484 C 1422.7415 3641.9109 1454.7629 3662.4882 1487.666 3676.5566 C 1528.7235 3694.1118 1569.8201 3701.5348 1608.6992 3704.9023 A 70.007 70.007 0 0 0 1619.6973 3707.4238 C 1745.639 3727.325 1876.2846 3708.2572 1991.2832 3653.1875 C 2141.5014 3581.2523 2255.457 3453.4903 2327.6543 3309.7422 C 2381.3747 3202.7824 2414.0808 3084.2732 2418.0176 2962.8887 C 2421.9594 2841.3474 2396.6864 2718.2098 2339.9473 2608.6934 C 2277.4196 2488.004 2177.3983 2386.7216 2053.4043 2326.9199 C 1975.0104 2289.1109 1888.4198 2268.9217 1801.4062 2268.5918 C 1797.1616 2264.2768 1792.9318 2259.9485 1788.5371 2255.7578 C 1689.1847 2161.0154 1553.8084 2103.0775 1413.1777 2108.123 C 1322.3086 2111.3832 1232.704 2140.9564 1158.3105 2195.248 C 1083.7701 2249.6469 1027.0301 2327.3102 1000.0547 2416.7695 C 974.32343 2502.1031 977.76487 2585.2709 979.06445 2658.9316 C 980.35803 2732.2524 979.06945 2799.3668 959.49609 2853.918 C 943.27553 2899.124 912.8458 2940.1942 874.4043 2968.5996 C 835.98936 2996.9852 787.9002 3013.8903 740.39648 3015.6035 C 686.96356 3017.5305 630.74595 3000.4665 583.52539 2969.6758 C 536.00449 2938.6892 495.82606 2893.4239 466.63281 2841.3477 C 402.267 2726.5292 394.64682 2577.6143 445.96875 2455.834 C 485.88245 2361.124 561.03528 2279.8261 652.32227 2232.6055 A 70.007 70.007 0 0 0 619.52539 2099.9844 L 619.52344 2099.9824 z M 1740.9082 2412.7344 C 1787.7861 2475.8504 1819.4554 2552.1978 1833.3926 2631.4668 C 1850.6525 2729.6345 1839.0235 2832.6071 1790.3965 2908.6914 C 1766.187 2946.5708 1732.5397 2978.1436 1694.5742 2997.2715 C 1656.9142 3016.2455 1612.9543 3023.4142 1573.8086 3016.3691 C 1544.3335 3011.0645 1515.1112 2997.4878 1490.6738 2977.9863 C 1466.1458 2958.4127 1445.5112 2932.307 1430.9805 2903.0039 C 1401.9489 2844.4579 1396.9137 2770.8357 1413.5078 2702.3984 C 1429.4054 2636.834 1464.2861 2574.9182 1512.0508 2526.5527 C 1559.8561 2478.1459 1621.4931 2442.208 1687.4961 2423.707 C 1704.9545 2418.8133 1722.8223 2415.2103 1740.9082 2412.7344 z M 1672.041 3373.4336 C 1675.6257 3373.4146 1679.2358 3373.4252 1682.8672 3373.4629 L 1682.8691 3373.4629 C 1740.607 3374.0628 1792.5467 3381.4562 1829.4531 3402.8105 C 1847.573 3413.2949 1862.3166 3427.3702 1871.082 3442.1152 C 1879.5731 3456.3988 1883.0395 3473.3497 1881.2051 3486.1699 C 1879.5312 3497.8681 1872.7904 3511.8039 1862.2539 3523.0957 C 1851.434 3534.6913 1835.8423 3544.9015 1817.625 3552.0879 C 1780.6734 3566.6639 1732.2853 3568.9689 1677.5957 3567.9043 C 1624.6245 3566.8731 1577.9896 3562.916 1542.707 3547.8301 C 1525.3019 3540.3881 1510.5139 3530.2051 1500.2656 3518.8496 C 1490.2749 3507.7796 1483.935 3494.3547 1482.332 3483.0996 C 1480.5096 3470.3049 1484.0701 3453.2975 1492.6973 3439.0781 C 1501.6132 3424.3831 1516.5981 3410.42 1534.9453 3400.1719 C 1570.0002 3380.5914 1618.2611 3373.7187 1672.041 3373.4336 z "
       transform="translate(0,-1048)"
       id="path4502-2-0-5-0-2" />
    <path
       style="fill:none;fill-rule:evenodd;stroke:#000000;stroke-width:70;stroke-linecap:round;stroke-linejoin:round;stroke-miterlimit:4;stroke-dasharray:none;stroke-opacity:1"
       d="m -2960.4818,-565.66983 c -108.7444,56.2816 -196.7876,151.55195 -244.3333,264.3897 -61.4114,145.74444 -52.6436,319.644796 24.6779,457.60924 34.8708,62.21991 83.2679,117.40972 143.0073,156.37753 59.7395,38.96781 131.0267,61.19202 202.3056,58.62003 63.4936,-2.29106 126.0886,-24.35131 177.1803,-62.11792 51.0917,-37.76661 90.4978,-91.04764 111.9508,-150.85105 25.6315,-71.451466 25.5698,-149.2181609 24.2304,-225.116053 -1.3394,-75.897887 -3.4638,-153.314207 18.4467,-225.993037 22.8248,-75.71148 71.7501,-142.97258 135.6179,-189.59987 63.8678,-46.6273 142.1992,-72.65109 221.2254,-75.4885 122.2336,-4.38875 243.7267,46.99855 332.2262,131.42689 88.4995,84.42834 144.7329,199.92337 165.9132,320.3879 20.0385,113.9707395 8.125,237.31991 -54.1744,334.83734 -31.1497,48.75872 -74.5544,90.07907 -126.2226,116.11974 -51.6682,26.04066 -111.6324,36.34259 -168.577,26.0939 -42.722,-7.68896 -83.1953,-26.7429 -117.121,-53.82311 -33.9257,-27.08022 -61.328,-62.06797 -80.606,-100.96077 -38.5559,-77.78559 -43.7609,-169.746658 -23.3027,-254.118558 19.4561,-80.239082 61.5107,-154.751042 119.5152,-213.507612 58.0044,-58.75656 131.7387,-101.67907 211.2372,-123.96901 119.5473,-33.51891 250.9557,-19.46661 362.778,34.48576 111.8223,53.95236 203.6922,146.659 260.7969,256.904793 51.9485,100.29125 75.5862,214.478187 71.9253,327.365647 -3.6608,112.88747 -34.2365,224.3607 -84.9183,325.29798 -67.9047,135.23817 -174.7499,253.80517 -311.2301,319.1776 -104.3336,49.97457 -223.9598,67.44055 -338.2265,49.38262"
       id="path4502-2-0-5-0-20"
       inkscape:path-effect="#path-effect4504-9-5-0-9-2-82"
       inkscape:original-d="m -2960.4818,-565.66983 c 0,0 -203.6291,151.49133 -244.3333,264.3897 -51.8089,143.69895 -53.0466,326.115626 24.6779,457.60924 69.0038,116.74008 209.8353,220.28311 345.3129,214.99756 119.5971,-4.66598 230.1585,-108.78851 289.1311,-212.96897 74.4,-131.434578 -31.4558,-319.52356 42.6771,-451.10909 72.7405,-129.11378 217.6301,-237.0526 356.8433,-265.08837 211.9795,-30.45359 475.477,228.75667 498.1394,451.81479 19.9167,196.032039 -152.4433,490.44277 -348.974,477.05098 -154.5473,-10.53098 -242.6307,-255.46732 -221.0297,-408.902438 21.9612,-155.993622 175.7844,-309.406232 330.7524,-337.476622 225.7496,-40.8915 502.3074,96.58403 623.5749,291.390553 114.9855,184.715037 71.0021,451.940947 -12.993,652.663627 -57.3693,137.09498 -192.8661,243.61522 -311.2301,319.1776 -96.0438,61.31328 -338.2265,49.38262 -338.2265,49.38262"
       inkscape:connector-curvature="0"
       sodipodi:nodetypes="caaaaacaaaaaasc" />
    <path
       style="fill:none;fill-rule:evenodd;stroke:#000000;stroke-width:70;stroke-linecap:round;stroke-linejoin:round;stroke-miterlimit:4;stroke-dasharray:none;stroke-opacity:1"
       d="m -2148.8916,788.47877 c 3.9489,27.7247 17.339,53.71124 36.0991,74.5033 18.7602,20.79205 42.7159,36.54035 68.4635,47.55463 51.4952,22.02855 108.8581,25.23512 164.8565,26.32543 57.8282,1.12594 117.2291,0.0391 171.0296,-21.19468 26.9002,-10.6169 52.0447,-26.31526 71.7719,-47.46182 19.7272,-21.14657 33.8422,-47.90954 37.9392,-76.53742 4.5232,-31.60634 -3.3828,-64.42265 -19.6939,-91.87019 -16.3111,-27.44753 -40.6804,-49.6605 -68.3131,-65.65598 -55.2653,-31.99096 -121.3461,-39.03378 -185.1994,-39.69703 -64.2825,-0.66771 -130.9939,5.10026 -187.1123,36.45973 -28.0592,15.67973 -52.8905,37.74849 -69.5597,65.23139 -16.6692,27.48289 -24.8139,60.52081 -20.2814,92.34264 z"
       id="path4181-9"
       inkscape:path-effect="#path-effect4183-5"
       inkscape:original-d="m -2148.8916,788.47877 c 5.5177,102.39957 166.9085,147.0442 269.4191,148.38336 105.3396,1.37612 280.7407,-46.89967 280.7407,-145.19392 4.0734,-144.47145 -160.9017,-196.42937 -273.2064,-197.2232 -112.7068,-0.7966 -283.0195,81.45583 -276.9534,194.03376 z"
       inkscape:connector-curvature="0"
       sodipodi:nodetypes="aacaa" />
    <path
       style="color:#000000;font-style:normal;font-variant:normal;font-weight:normal;font-stretch:normal;font-size:medium;line-height:normal;font-family:sans-serif;text-indent:0;text-align:start;text-decoration:none;text-decoration-line:none;text-decoration-style:solid;text-decoration-color:#000000;letter-spacing:normal;word-spacing:normal;text-transform:none;direction:ltr;block-progression:tb;writing-mode:lr-tb;baseline-shift:baseline;text-anchor:start;white-space:normal;clip-rule:nonzero;display:inline;overflow:visible;visibility:visible;opacity:1;isolation:auto;mix-blend-mode:normal;color-interpolation:sRGB;color-interpolation-filters:linearRGB;solid-color:#000000;solid-opacity:1;fill:#000000;fill-opacity:1;fill-rule:evenodd;stroke:none;stroke-width:70;stroke-linecap:round;stroke-linejoin:round;stroke-miterlimit:4;stroke-dasharray:none;stroke-dashoffset:0;stroke-opacity:1;color-rendering:auto;image-rendering:auto;shape-rendering:auto;text-rendering:auto;enable-background:accumulate"
       d="M -4016.5742 2655.1055 A 35.0035 35.0035 0 0 0 -4032.3633 2659.1406 C -4149.2095 2718.6417 -4243.0407 2820.1738 -4293.1582 2941.3418 C -4357.7676 3097.5465 -4346.3091 3280.1967 -4267.0176 3428.8047 C -4230.9249 3496.4496 -4180.4946 3558.4263 -4114.8438 3602.3164 C -4048.9217 3646.3877 -3968.1535 3670.7938 -3887.1035 3662.1289 C -3812.1814 3654.1192 -3744.7276 3619.0849 -3688.7031 3574.7832 C -3640.1651 3536.4013 -3596.3069 3488.1552 -3569.7324 3428.625 C -3534.8247 3350.4272 -3534.6753 3266.1215 -3537.0645 3189.0371 C -3539.4457 3112.2066 -3543.5893 3038.3445 -3525.2988 2972.6348 C -3506.3106 2904.4184 -3461.9818 2842.6824 -3404.0195 2800.6445 C -3345.9515 2758.5298 -3273.6864 2735.204 -3201.1797 2733.1465 C -3098.2946 2730.2269 -2994.4742 2770.4781 -2914.5586 2837.9512 C -2927.3636 2840.5098 -2940.1128 2843.4085 -2952.7305 2846.9453 C -3038.0614 2870.8642 -3117.0014 2916.7699 -3179.4414 2980.0156 C -3241.9017 3043.2819 -3287.0602 3123.2312 -3308.0527 3209.8828 C -3330.1833 3301.232 -3324.9166 3401.2739 -3282.041 3487.752 C -3260.6107 3530.9758 -3230.1484 3569.987 -3191.9316 3600.5059 C -3153.6696 3631.0609 -3108.0616 3652.6447 -3059.2305 3661.4688 C -2994.0314 3673.2505 -2926.7249 3661.5568 -2868.6016 3632.3203 C -2810.6306 3603.1604 -2762.7892 3557.4585 -2728.4902 3503.8105 C -2659.9951 3396.6752 -2648.1037 3264.4354 -2669.5762 3143.8398 C -2684.9955 3057.2406 -2717.6408 2973.0422 -2766.8555 2899.6621 C -2707.6703 2904.9362 -2649.2144 2920.8541 -2595.7188 2946.6641 C -2491.2721 2997.0564 -2404.5275 3084.3909 -2350.7871 3188.1367 C -2301.8328 3282.6431 -2279.2854 3391.0224 -2282.7637 3498.2676 C -2286.2445 3605.5913 -2315.4021 3712.2489 -2363.9805 3808.9961 C -2424.6906 3929.9043 -2517.7736 4036.1152 -2634.1562 4099.5645 C -2627.3235 4084.8955 -2622.4495 4069.1564 -2620.084 4052.627 C -2614.2692 4011.9956 -2624.3052 3971.628 -2644.3379 3937.918 C -2664.2336 3904.4384 -2693.135 3878.4157 -2725.2051 3859.8516 C -2789.012 3822.9163 -2861.3985 3816.1346 -2927.5742 3815.4473 C -2994.2015 3814.7552 -3067.289 3820.1218 -3132.123 3856.3516 C -3164.7144 3874.5639 -3194.1817 3900.4292 -3214.5352 3933.9863 C -3235.0327 3967.7812 -3245.3758 4008.4493 -3239.541 4049.4141 C -3234.4652 4085.0509 -3217.707 4117.0166 -3194.7793 4142.4277 C -3171.9801 4167.6962 -3143.7154 4186.0452 -3114.0938 4198.7168 C -3075.5128 4215.2209 -3035.626 4222.1236 -2996.7383 4225.2363 A 35.0035 35.0035 0 0 0 -2987.623 4227.832 C -2866.1992 4247.0212 -2739.681 4228.5502 -2628.8125 4175.4453 C -2483.8807 4106.0244 -2372.2544 3981.47 -2301.4238 3840.4062 C -2248.6376 3735.2791 -2216.6425 3618.9888 -2212.8008 3500.5371 C -2208.9565 3382.007 -2233.6842 3262.014 -2288.6309 3155.9395 C -2349.1029 3039.1981 -2446.104 2941.126 -2565.3008 2883.6172 C -2645.5168 2844.9155 -2734.9143 2825.5159 -2823.9062 2827.8164 C -2831.1847 2820.0287 -2838.6114 2812.3665 -2846.3613 2804.9902 C -2941.2462 2714.6806 -3070.5818 2659.4115 -3203.166 2663.1738 C -3289.2455 2665.6165 -3374.7567 2692.9485 -3445.1172 2743.9785 C -3515.5835 2795.0852 -3569.1792 2869.2402 -3592.7344 2953.8633 C -3615.2405 3034.7179 -3609.3631 3115.9724 -3607.0312 3191.2051 C -3604.7074 3266.1841 -3606.5464 3339.3648 -3633.6543 3400.0898 C -3654.2136 3446.1453 -3689.9631 3486.5367 -3732.123 3519.875 C -3780.6824 3558.2737 -3836.8916 3586.3619 -3894.5449 3592.5254 C -3956.6371 3599.1635 -4022.1847 3580.0601 -4075.9395 3544.123 C -4129.9653 3508.0048 -4173.5831 3455.2182 -4205.2578 3395.8535 C -4274.5601 3265.9671 -4284.5121 3103.583 -4228.4727 2968.0977 C -4184.9161 2862.792 -4102.1492 2773.2312 -4000.5996 2721.5195 A 35.0035 35.0035 0 0 0 -4016.5742 2655.1055 z M -2853.9199 2899.7539 C -2794.5199 2972.4251 -2755.1609 3062.4949 -2738.4922 3156.1113 C -2719.3753 3263.4776 -2731.238 3378.1562 -2787.4668 3466.1055 C -2815.5298 3509.9997 -2854.6015 3546.9228 -2900.0566 3569.7871 C -2945.3597 3592.5748 -2998.0539 3601.3896 -3046.7832 3592.584 C -3083.3738 3585.9719 -3118.6812 3569.4194 -3148.25 3545.8066 C -3177.864 3522.1577 -3202.1977 3491.2056 -3219.3262 3456.6582 C -3253.5682 3387.5935 -3258.7679 3303.7458 -3240.0215 3226.3652 C -3222.1332 3152.5271 -3183.184 3083.4414 -3129.6289 3029.1953 C -3076.0535 2974.9286 -3007.511 2934.9988 -2933.8379 2914.3477 C -2907.7574 2907.0371 -2880.9743 2902.2616 -2853.9199 2899.7539 z M -2939.8926 3885.4062 C -2936.0368 3885.3899 -2932.1719 3885.4031 -2928.3008 3885.4434 C -2866.7699 3886.0824 -2806.9971 3893.3871 -2760.2734 3920.4336 C -2737.0781 3933.8605 -2717.2401 3952.2623 -2704.5137 3973.6777 C -2691.9242 3994.8627 -2686.1473 4020.1277 -2689.3789 4042.709 C -2692.3122 4063.2052 -2702.9037 4083.865 -2718.2637 4100.3301 C -2733.7652 4116.947 -2754.4238 4130.0854 -2777.293 4139.1113 C -2823.2894 4157.2645 -2877.8682 4158.9774 -2934.791 4157.8691 C -2989.9192 4156.7958 -3042.5796 4153.1723 -3086.5625 4134.3574 C -3108.436 4125.0004 -3128.0854 4111.8508 -3142.8066 4095.5352 C -3157.3992 4079.362 -3167.4202 4059.3555 -3170.2422 4039.543 C -3173.4724 4016.8641 -3167.5244 3991.4581 -3154.6836 3970.2871 C -3141.6986 3948.8785 -3121.5036 3930.6061 -3097.9766 3917.459 C -3053.5364 3892.6255 -2997.7299 3885.651 -2939.8926 3885.4062 z "
       transform="translate(0,-1048)"
       id="path4502-2-0-5-0-20-9" />
  </g>
</svg>
