<?xml version="1.0" encoding="UTF-8" standalone="no"?>
<!-- Created with Inkscape (http://www.inkscape.org/) -->

<svg
   xmlns:dc="http://purl.org/dc/elements/1.1/"
   xmlns:cc="http://creativecommons.org/ns#"
   xmlns:rdf="http://www.w3.org/1999/02/22-rdf-syntax-ns#"
   xmlns:svg="http://www.w3.org/2000/svg"
   xmlns="http://www.w3.org/2000/svg"
   xmlns:sodipodi="http://sodipodi.sourceforge.net/DTD/sodipodi-0.dtd"
   xmlns:inkscape="http://www.inkscape.org/namespaces/inkscape"
   width="2000"
   height="2048"
   id="svg2992"
   version="1.1"
   inkscape:version="0.91 r13725"
   sodipodi:docname="ശ്ര.svg">
  <defs
     id="defs5498">
    <inkscape:path-effect
       is_visible="true"
       id="path-effect4504"
       effect="spiro" />
    <inkscape:path-effect
       is_visible="true"
       id="path-effect4504-9"
       effect="spiro" />
    <inkscape:path-effect
       is_visible="true"
       id="path-effect4504-9-7"
       effect="spiro" />
    <inkscape:path-effect
       effect="spiro"
       id="path-effect4504-9-5-0-9"
       is_visible="true" />
    <inkscape:path-effect
       effect="spiro"
       id="path-effect4504-9-5-0-9-9"
       is_visible="true" />
    <inkscape:path-effect
       effect="spiro"
       id="path-effect4504-9-5-0-9-9-3"
       is_visible="true" />
    <inkscape:path-effect
       effect="spiro"
       id="path-effect4504-9-5-0-9-5"
       is_visible="true" />
    <inkscape:path-effect
       effect="spiro"
       id="path-effect4504-9-5-0-9-5-5"
       is_visible="true" />
    <inkscape:path-effect
       effect="spiro"
       id="path-effect4504-9-5-0-9-5-3"
       is_visible="true" />
    <inkscape:path-effect
       effect="spiro"
       id="path-effect4504-9-5-0-9-5-4"
       is_visible="true" />
    <inkscape:path-effect
       effect="spiro"
       id="path-effect4504-9-5-0-9-5-4-1"
       is_visible="true" />
    <inkscape:path-effect
       effect="spiro"
       id="path-effect4504-9-5-0-9-5-9"
       is_visible="true" />
  </defs>
  <sodipodi:namedview
     inkscape:window-height="844"
     inkscape:window-width="1600"
     inkscape:pageshadow="2"
     inkscape:pageopacity="0.0"
     borderopacity="1.0"
     bordercolor="#666666"
     pagecolor="#ffffff"
     id="base"
     showgrid="true"
     showguides="true"
     inkscape:guide-bbox="true"
     inkscape:zoom="0.227"
     inkscape:cx="1777.533"
     inkscape:cy="699.40648"
     inkscape:window-x="1600"
     inkscape:window-y="0"
     inkscape:current-layer="layer1-9"
     inkscape:window-maximized="1">
    <sodipodi:guide
       orientation="horizontal"
       position="0,600"
       id="guide5596" />
    <inkscape:grid
       type="xygrid"
       id="grid3769"
       empspacing="3"
       visible="true"
       enabled="true"
       snapvisiblegridlinesonly="true"
       spacingx="4px"
       units="px"
       dotted="true"
       spacingy="4px" />
    <sodipodi:guide
       orientation="0,1"
       position="-1040,1600"
       id="guide2985" />
  </sodipodi:namedview>
  <metadata
     id="metadata5594">
    <rdf:RDF>
      <cc:Work
         rdf:about="">
        <dc:format>image/svg+xml</dc:format>
        <dc:type
           rdf:resource="http://purl.org/dc/dcmitype/StillImage" />
        <dc:title />
      </cc:Work>
    </rdf:RDF>
  </metadata>
  <g
     inkscape:label="Layer 1"
     inkscape:groupmode="layer"
     id="layer1"
     transform="translate(0,1048)">
    <g
       id="layer1-9"
       inkscape:label="Layer 1"
       transform="translate(-1168.8033,138.69548)">
      <path
         style="fill:none;fill-rule:evenodd;stroke:#000000;stroke-width:140;stroke-linecap:round;stroke-linejoin:round;stroke-miterlimit:4;stroke-dasharray:none;stroke-opacity:1"
         d="m 1633.3632,-697.07913 c -131.5147,90.27804 -222.5083,237.42099 -244.5245,395.41317 -15.2442,109.39528 2.6052,225.089279 60.6339,319.070085 29.0143,46.990404 67.7675,88.129005 113.8239,118.604185 46.0564,30.47517 99.4339,50.13801 154.42,55.28138 66.8464,6.25277 135.7667,-9.42531 192.6376,-45.10783 56.8709,-35.68252 101.1861,-91.338572 121.9775,-155.1763211 19.1618,-58.8340689 18.4037,-122.1315189 15.0749,-183.9177689 -3.3288,-61.78626 -9.0075,-124.14899 0.9095,-185.22497 13.7368,-84.60124 58.0052,-163.57001 121.5984,-221.03284 63.5932,-57.46283 145.9121,-93.37007 231.0749,-103.03245 73.8838,-8.38268 149.7712,2.69681 218.5481,30.96015 68.777,28.26333 130.3532,73.57228 178.542,130.20194 96.3777,113.25932 135.8725,270.91033 111.3623,417.59223 -14.7766,88.43108 -53.1866,175.071129 -119.5486,235.35794 -33.1809,30.14341 -72.9992,53.25827 -116.18,65.3008 -43.1807,12.04253 -89.7088,12.80247 -132.776,0.35977 -41.9883,-12.13099 -80.1193,-36.65788 -109.6237,-68.90169 -29.5045,-32.243805 -50.4367,-72.039706 -61.6691,-114.2772422 -22.4648,-84.4750718 -5.4868,-176.6469078 36.4496,-253.3413878 39.6301,-72.47673 101.3657,-132.86915 175.2388,-169.83114 73.8731,-36.962 159.6107,-50.14887 240.9804,-35.92216 87.7298,15.33872 168.8449,62.10114 229.8617,126.97599 61.0168,64.87485 102.2849,147.20731 122.8012,233.87264 20.8797,88.200416 20.4377,181.802262 -4.683,268.88971 -25.1207,87.08746 -75.1523,166.82539 -142.6985,227.26356 -67.5463,60.43817 -151.6584,100.87062 -239.6683,122.5391 -88.0099,21.66847 -179.3755,24.80085 -269.9925,26.75884 l -564.394,12.19504 c -184.5757,3.98819 -373.7485,0.70063 -546.0534,-65.59518 -172.3048,-66.2958 -321.9337,-193.82051 -406.2165,-358.07794 -67.61102,-131.7660199 -93.20944,-284.69582 -72.19337,-431.29684 21.01607,-146.60102 88.54727,-286.18016 190.45337,-393.64496"
         id="path4502-2-0-5-0"
         inkscape:path-effect="#path-effect4504-9-5-0-9-5"
         inkscape:original-d="m 1633.3632,-697.07913 c 0,0 -247.1976,240.46532 -244.5245,395.41317 3.4072,197.50144 135.5955,452.20757 328.8778,492.95565 121.6449,25.64537 252.4571,-92.620158 314.6151,-200.2841511 61.5802,-106.6629489 -35.9692,-257.4739089 15.9844,-369.1427389 67.3453,-144.75198 193.2496,-332.5883 352.6733,-324.06529 256.426,13.70891 529.6177,322.83578 508.4524,578.75432 -13.0728,158.068094 -216.6622,346.84748 -368.5046,301.01851 -145.795,-44.00375 -194.9943,-296.61192 -134.8432,-436.52032 61.1288,-142.18231 263.6549,-231.76626 416.2192,-205.7533 165.7946,28.2688 354.3759,192.67001 352.6629,360.84863 -3.127,306.9969 -272.1458,637.13463 -657.0423,645.45121 l -564.394,12.19504 c -28.9156,0.62479 -784.2152,-119.60157 -952.2699,-423.67312 -134.37328,-243.12977 118.26,-824.9418 118.26,-824.9418"
         inkscape:connector-curvature="0"
         sodipodi:nodetypes="caaaaaaaaaassac" />
      <path
         style="color:#000000;font-style:normal;font-variant:normal;font-weight:normal;font-stretch:normal;font-size:medium;line-height:normal;font-family:sans-serif;text-indent:0;text-align:start;text-decoration:none;text-decoration-line:none;text-decoration-style:solid;text-decoration-color:#000000;letter-spacing:normal;word-spacing:normal;text-transform:none;direction:ltr;block-progression:tb;writing-mode:lr-tb;baseline-shift:baseline;text-anchor:start;white-space:normal;clip-rule:nonzero;display:inline;overflow:visible;visibility:visible;opacity:1;isolation:auto;mix-blend-mode:normal;color-interpolation:sRGB;color-interpolation-filters:linearRGB;solid-color:#000000;solid-opacity:1;fill:#000000;fill-opacity:1;fill-rule:evenodd;stroke:none;stroke-width:140;stroke-linecap:round;stroke-linejoin:round;stroke-miterlimit:4;stroke-dasharray:none;stroke-dashoffset:0;stroke-opacity:1;color-rendering:auto;image-rendering:auto;shape-rendering:auto;text-rendering:auto;enable-background:accumulate"
         d="m 2369.6568,1142.541 c -21.5417,-0.3407 -43.1431,0.6892 -64.664,3.1309 -99.4443,11.2827 -194.9892,52.7644 -270.1152,120.6484 -75.2735,68.0171 -127.3163,160.4668 -143.7618,261.75 -11.8027,72.6896 -4.9477,140.1686 -1.7129,200.211 3.2214,59.7918 2.6789,114.2144 -11.7363,158.4746 -15.4314,47.3803 -49.6409,90.5915 -92.6211,117.5586 -43.1234,27.0568 -97.3148,39.5338 -148.916,34.707 -42.6974,-3.9939 -85.4557,-19.5762 -122.3105,-43.9629 -36.9496,-24.4493 -68.92,-58.1821 -92.8907,-97.0039 -47.9078,-77.5896 -64.1474,-177.3172 -50.8652,-272.6328 19.1974,-137.7636 100.1344,-268.6441 214.8105,-347.3633 a 70.007,70.007 0 1 0 -79.2324,-115.4219 c -148.3532,101.8368 -249.4032,265.2421 -274.2383,443.4629 -17.2062,123.475 2.253,255.1358 70.4024,365.5078 34.058,55.1588 79.5946,103.704 134.7578,140.2051 55.2577,36.5637 119.2545,60.3067 186.5293,66.5996 82.0916,7.6789 165.7408,-11.1997 236.3594,-55.5078 70.7616,-44.398 125.1805,-112.4979 151.332,-192.793 23.9084,-73.408 21.8523,-145.5806 18.416,-209.3613 -3.4227,-63.53 -7.9258,-120.7779 0.1055,-170.2402 11.0281,-67.9194 47.5206,-133.406 99.4336,-180.3145 52.0603,-47.0418 121.1558,-77.374 192.0371,-85.416 61.6838,-6.9985 126.0671,2.3253 184.0488,26.1523 40.1879,16.515 77.7251,40.29 110.7149,69.293 -53.318,6.2315 -105.4517,21.7122 -153.6348,45.8203 -87.2037,43.6318 -158.8757,113.8853 -205.334,198.8496 -49.4472,90.4305 -70.6479,199.7517 -42.6816,304.9141 13.9769,52.5579 39.9378,102.3013 77.6758,143.543 37.8468,41.3608 86.5352,72.9188 141.8378,88.8965 56.713,16.3851 116.0297,15.1497 171.0098,-0.1836 54.7812,-15.2777 103.815,-44.007 144.4434,-80.9161 81.118,-73.6919 124.7217,-175.0832 141.5234,-275.6328 11.0987,-66.4202 10.6192,-134.4623 -0.7598,-200.584 8.1396,7.2391 16,14.796 23.459,22.7266 51.5588,54.8187 87.7156,126.1794 105.6739,202.0391 18.2712,77.1817 17.6571,158.9012 -3.8223,233.3652 -21.4146,74.2393 -64.5707,143.0074 -122.1172,194.4981 -57.5875,51.5274 -131.2913,87.4232 -209.7266,106.7343 -78.6106,19.3543 -164.7505,22.801 -254.7714,24.7461 l -564.3926,12.1934 c -182.7124,3.9479 -362.4014,-0.5332 -519.4043,-60.9414 -156.9025,-60.3697 -293.4356,-177.2923 -369.07425,-324.7031 -60.8441,-118.5781 -84.0943,-257.48 -65.1817,-389.4083 18.9127,-131.9283 80.2484,-258.703 171.95515,-355.4121 a 70.007,70.007 0 1 0 -101.58795,-96.332 c -112.1055,118.2205 -185.83169,270.6051 -208.95117,431.8789 -23.11948,161.2737 4.82715,328.2316 79.20508,473.1856 92.92699,181.1039 255.65434,319.2311 443.36134,391.4531 187.6069,72.1834 386.2621,74.2765 572.7012,70.248 l 564.3945,-12.1953 c 91.2131,-1.9709 187.8058,-4.7889 285.2149,-28.7715 97.5847,-24.0258 192.1043,-68.9947 269.6094,-138.3437 77.5461,-69.3856 134.4544,-160.0936 163.2812,-260.0293 28.762,-99.7109 29.0292,-205.1969 5.541,-304.416 -23.0743,-97.4709 -69.4528,-190.7742 -139.9277,-265.7051 -55.0933,-58.5768 -124.2086,-104.5204 -201.3496,-130.6309 -14.9259,-24.4864 -31.632,-48.004 -50.4258,-70.0898 -55.3196,-65.0095 -125.7263,-116.9047 -205.2441,-149.582 -59.6792,-24.5247 -123.7577,-37.8762 -188.3829,-38.8985 z m 302.3086,374.6406 c 15.7152,0.122 31.349,1.4674 46.7227,3.9668 35.9498,80.8048 48.2277,173.7857 33.6055,261.293 -12.7517,76.3126 -45.9683,148.2024 -97.5742,195.084 -25.7335,23.3777 -56.3336,40.8782 -87.9141,49.6855 -31.3812,8.7519 -65.1215,9.0374 -94.5429,0.5372 -28.674,-8.2844 -56.2483,-25.7796 -77.4102,-48.9063 -21.2711,-23.246 -37.1743,-53.0947 -45.6621,-85.0118 -16.9634,-63.7878 -4.2069,-138.809 30.2187,-201.7675 32.8019,-59.9891 84.6001,-110.5205 145.1426,-140.8125 45.3364,-22.6839 96.7376,-34.4596 147.416,-34.0665 z"
         id="path4502-2-0-5-0-7"
         inkscape:connector-curvature="0" />
      <path
         style="fill:none;fill-rule:evenodd;stroke:#000000;stroke-width:70;stroke-linecap:round;stroke-linejoin:round;stroke-miterlimit:4;stroke-dasharray:none;stroke-opacity:1"
         d="m -907.78052,-699.87461 c -138.21558,95.16686 -233.82648,249.9569 -257.04948,416.15248 -16.083,115.09815 2.5851,236.84086 63.5668,335.772558 30.4908,49.465852 71.2392,92.780202 119.68641,124.864862 48.44725,32.08466 104.61282,52.78181 162.47031,58.17366 70.29457,6.55089 142.75938,-9.98708 202.53711,-47.54854 59.77774,-37.56146 106.33867,-96.109101 128.19318,-163.240476 20.15866,-61.922163 19.3625,-128.537874 15.85975,-193.564464 -3.50274,-65.02658 -9.48009,-130.65851 0.9434,-194.93974 14.42922,-88.98441 60.92795,-172.0672 127.7693,-232.55406 66.84136,-60.48687 153.39957,-98.3196 242.96862,-108.5084 77.725542,-8.84156 157.566709,2.82879 229.90905,32.59485 72.34234,29.76606 137.09112,77.48067 187.7397,137.0974 101.29716,119.23346 142.6899,285.11305 116.84755,439.41763 C 418.09041,-3.1838203 377.72442,87.904332 307.98761,151.33312 273.1192,183.04751 231.27554,207.3846 185.8875,220.09419 140.49945,232.80378 91.582436,233.66518 46.281067,220.65002 2.0452846,207.94101 -38.14486,182.15995 -69.243736,148.23086 -100.34261,114.30177 -122.40659,72.398697 -134.22981,27.917973 c -23.64644,-88.96145 -5.64033,-186.049703 38.760749,-266.683673 41.841295,-75.9853 106.881232,-139.14645 184.484999,-177.90359 77.603762,-38.75714 167.473522,-52.80075 253.053742,-38.64142 92.79528,15.35307 179.2007,63.55494 243.94175,131.78452 64.74105,68.22958 108.00251,155.82823 126.78522,247.990537 18.33891,89.984713 13.47163,184.879153 -16.11919,271.815613 -29.59082,86.93646 -83.96637,165.14433 -154.6258,223.80274 -70.65944,58.6584 -156.71665,97.2535 -246.18669,117.958 -89.47004,20.7045 -181.95262,23.74254 -273.765583,25.72868 L -571.20396,576.604 c -190.0784,4.11187 -384.14296,2.56169 -564.10064,-58.77293 -179.9577,-61.33462 -341.8772,-182.47496 -436.9463,-347.12174 -78.7892,-136.452164 -110.2911,-299.62498 -87.9573,-455.59977 22.3338,-155.9748 98.3599,-303.75087 212.2748,-412.61005"
         id="path4502-2-0-5-0-2"
         inkscape:path-effect="#path-effect4504-9-5-0-9-5-4"
         inkscape:original-d="m -907.78052,-699.87461 c 0,0 -259.85958,253.07767 -257.04948,416.15248 3.5817,207.860355 142.5409,475.92577 345.72352,518.81108 127.87578,26.99046 265.38843,-97.47806 330.73029,-210.789016 64.73445,-112.257399 -37.81161,-270.978364 16.80315,-388.504204 70.79485,-152.34418 203.14822,-350.03249 370.73792,-341.06246 269.56062,14.42792 556.74571,339.76846 534.4963,609.10988 C 419.91875,70.20189 205.90111,268.88271 46.281067,220.65002 -106.98185,174.33829 -158.70123,-91.519135 -95.469061,-238.7657 -31.209128,-388.40545 181.69075,-482.68804 342.06968,-455.31071 516.35659,-425.55921 717.27875,-252.38674 712.79665,-75.535653 704.84835,238.08214 426.71102,555.01663 22.099387,563.76938 L -571.20396,576.604 c -30.39671,0.65756 -821.61094,-93.72127 -1001.04694,-405.89467 -145.6916,-253.466774 124.3175,-868.20982 124.3175,-868.20982"
         inkscape:connector-curvature="0"
         sodipodi:nodetypes="caaaaaaaaaassac" />
      <path
         style="color:#000000;font-style:normal;font-variant:normal;font-weight:normal;font-stretch:normal;font-size:medium;line-height:normal;font-family:sans-serif;text-indent:0;text-align:start;text-decoration:none;text-decoration-line:none;text-decoration-style:solid;text-decoration-color:#000000;letter-spacing:normal;word-spacing:normal;text-transform:none;direction:ltr;block-progression:tb;writing-mode:lr-tb;baseline-shift:baseline;text-anchor:start;white-space:normal;clip-rule:nonzero;display:inline;overflow:visible;visibility:visible;opacity:1;isolation:auto;mix-blend-mode:normal;color-interpolation:sRGB;color-interpolation-filters:linearRGB;solid-color:#000000;solid-opacity:1;fill:#000000;fill-opacity:1;fill-rule:evenodd;stroke:none;stroke-width:70;stroke-linecap:round;stroke-linejoin:round;stroke-miterlimit:4;stroke-dasharray:none;stroke-dashoffset:0;stroke-opacity:1;color-rendering:auto;image-rendering:auto;shape-rendering:auto;text-rendering:auto;enable-background:accumulate"
         d="m -267.30859,1075.584 c -15.77999,0.2526 -31.55995,1.2646 -47.2793,3.0527 -96.72043,11.0023 -189.89386,51.6302 -262.49805,117.3321 -72.67648,65.7672 -123.05409,155.5884 -138.83398,252.9023 -11.3644,70.0837 -4.7995,138.2717 -1.34375,202.4258 3.44899,64.029 3.59603,126.2092 -14.19141,180.8476 -19.1791,58.9133 -60.69594,111.2391 -113.5332,144.4395 -52.90728,33.2443 -118.00495,48.1737 -180.66792,42.334 -51.7019,-4.8183 -102.5508,-23.4712 -146.3926,-52.5059 -43.8896,-29.0662 -81.246,-68.6712 -109.2168,-114.0488 -55.9259,-90.7296 -73.8004,-204.4927 -58.6992,-312.5645 21.8131,-156.1057 112.4118,-302.7788 242.2363,-392.1679 a 35.0035,35.0035 0 1 0 -39.6973,-57.6543 c -146.6067,100.9444 -247.2323,263.8512 -271.8652,440.1367 -17.0648,122.1245 2.398,251.8466 68.4355,358.9805 33.0108,53.5539 77.1512,100.5786 130.1563,135.6816 53.0526,35.1347 114.5337,57.8762 178.5469,63.8418 77.92608,7.2621 157.75801,-10.8852 224.40621,-52.7637 66.71823,-41.9226 118.32358,-106.6914 142.85351,-182.041 22.5299,-69.206 21.08381,-140.2571 17.52735,-206.2813 -3.54974,-65.8989 -8.93964,-128.9763 0.54296,-187.455 13.07857,-80.655 55.69889,-156.9987 116.70508,-212.2051 61.07852,-55.2719 141.02376,-90.3083 223.44141,-99.6836 71.61454,-8.1465 145.69554,2.6427 212.634764,30.1855 66.966819,27.5543 127.297708,71.9704 174.382813,127.3926 5.031685,5.9227 9.828668,12.0363 14.544922,18.211 -79.527645,-5.1684 -159.990829,11.1039 -231.306639,46.7207 -84.20867,42.0558 -154.22527,110.1008 -199.50586,192.332 -48.19853,87.5303 -68.33137,193.2242 -41.92774,292.5586 13.1984,49.6542 37.78563,96.5388 73.01172,134.9707 35.28059,38.4913 80.75822,67.784 131.66016,82.4082 52.12212,14.9748 107.428418,13.8694 158.708984,-0.4902 51.181235,-14.3319 97.62704,-41.4767 136.212886,-76.5723 77.10222,-70.128 120.05927,-168.5827 136.64258,-267.6016 16.5842,-99.0242 7.16509,-202.0953 -26.56054,-296.4062 44.31906,21.6388 84.95929,51.4706 119.00195,87.3476 59.8039,63.0264 100.33155,144.7784 117.88086,230.8887 17.13542,84.0795 12.50577,172.8568 -14.95899,253.5469 -27.43967,80.6164 -78.16219,153.6231 -143.84765,208.1523 -65.71883,54.5569 -146.75769,91.1271 -231.722659,110.7891 -85.0413568,19.6796 -175.081341,22.8535 -266.630861,24.834 l -593.30273,12.8359 c -189.37324,4.0967 -379.19729,2.0038 -552.05269,-56.9101 -172.7058,-58.863 -327.7465,-175.3125 -417.9278,-331.4942 -74.7674,-129.487 -104.8148,-285.1256 -83.6211,-433.1387 21.1938,-148.0129 93.7085,-288.9631 201.8086,-392.2656 a 35.0035,35.0035 0 1 0 -48.3613,-50.6094 c -119.7297,114.416 -199.2664,269.0168 -222.7402,432.9532 -23.4738,163.9365 9.4839,334.6451 92.2949,478.0625 99.9569,173.1119 268.7552,298.9437 455.9648,362.75 187.06,63.7552 385.36492,64.7619 576.14846,60.6347 l 593.30273,-12.8339 c 92.076398,-1.9919 187.00168146,-4.8918 280.900394,-26.6211 93.975096,-21.7471 185.050336,-62.3671 260.650396,-125.127 75.63341,-62.7876 133.66231,-146.1987 165.40429,-239.4551 31.71693,-93.1827 36.82363,-194.1921 17.28125,-290.082 -20.01609,-98.2143 -66.01316,-191.6609 -135.6914,-265.0938 -57.61504,-60.7195 -130.98494,-106.6751 -211.6504,-130.2793 -16.25387,-28.3044 -34.96228,-55.2647 -56.26367,-80.3378 -54.212054,-63.8112 -123.377842,-114.8268 -201.0957,-146.8047 -63.16817,-25.9912 -131.5224,-39.1492 -199.90234,-38.0547 z m 334.732418,317.4199 c 19.83477,0.053 39.632212,1.6678 59.134762,4.8945 5.36255,0.8873 10.70617,1.9026 16.02735,3.0313 47.79522,96.3527 64.59928,209.2792 46.75781,315.8105 -14.55822,86.9271 -52.33173,170.6493 -114.703125,227.3789 -31.150956,28.3333 -68.393427,49.8619 -107.988281,60.9493 -39.495522,11.0595 -82.023294,11.6766 -120.503904,0.6211 -37.56963,-10.7939 -72.47151,-33.063 -99.38867,-62.4297 -26.97167,-29.4263 -46.51287,-66.3472 -56.96094,-105.6543 -20.88927,-78.5886 -5.00986,-167.0729 35.59375,-240.8106 38.40198,-69.7394 98.46595,-128.016 169.46484,-163.4746 53.223206,-26.5809 113.0620986,-40.4752 172.566408,-40.3164 z"
         id="path4502-2-0-5-0-2-8"
         inkscape:connector-curvature="0" />
      <path
         style="color:#000000;font-style:normal;font-variant:normal;font-weight:normal;font-stretch:normal;font-size:medium;line-height:normal;font-family:sans-serif;text-indent:0;text-align:start;text-decoration:none;text-decoration-line:none;text-decoration-style:solid;text-decoration-color:#000000;letter-spacing:normal;word-spacing:normal;text-transform:none;direction:ltr;block-progression:tb;writing-mode:lr-tb;baseline-shift:baseline;text-anchor:start;white-space:normal;clip-rule:nonzero;display:inline;overflow:visible;visibility:visible;opacity:1;isolation:auto;mix-blend-mode:normal;color-interpolation:sRGB;color-interpolation-filters:linearRGB;solid-color:#000000;solid-opacity:1;fill:#000000;fill-opacity:1;fill-rule:evenodd;stroke:none;stroke-width:200;stroke-linecap:round;stroke-linejoin:round;stroke-miterlimit:4;stroke-dasharray:none;stroke-dashoffset:0;stroke-opacity:1;color-rendering:auto;image-rendering:auto;shape-rendering:auto;text-rendering:auto;enable-background:accumulate"
         d="m 5242.2461,-84.890625 c -22.8114,-0.357564 -45.7012,0.736148 -68.5293,3.326172 -105.565,11.977174 -206.777,55.847151 -286.8457,128.197265 -80.2793,72.540358 -135.6554,170.770618 -153.2617,279.203128 -12.6109,77.66689 -5.2532,147.33576 -2.0586,206.63086 3.1753,58.93706 2.0781,109.55621 -10.3028,147.57031 -13.1341,40.32707 -43.0139,78.2056 -80.041,101.4375 -37.2313,23.36009 -85.1102,34.46559 -130.1777,30.25 -37.4308,-3.50126 -75.6392,-17.33396 -108.5508,-39.11133 -33.0466,-21.86669 -62.1088,-52.42493 -83.918,-87.74609 -43.5703,-70.5647 -59.121,-163.45094 -46.6796,-252.73242 17.9892,-129.09421 94.6164,-253.00403 202.0761,-326.76954 A 100.01,100.01 0 1 0 4360.7695,-59.523438 C 4205.1998,47.26712 4099.8381,217.64307 4073.7949,404.5332 c -18.047,129.50908 2.1028,268.01128 74.5899,385.40821 36.2195,58.65963 84.6623,110.37921 143.7285,149.46289 59.2012,39.17299 127.7476,64.6657 200.289,71.4512 88.6253,8.2899 178.5892,-11.96188 255.0997,-59.96683 76.7147,-48.13314 135.4654,-121.56563 163.914,-208.91406 25.9427,-79.65404 23.328,-155.63018 19.8457,-220.26563 -3.463,-64.27739 -7.4614,-119.33329 -0.2383,-163.81836 9.8673,-60.76997 43.0284,-120.47797 89.9356,-162.86328 47.1177,-42.57556 110.5441,-70.51959 175.3047,-77.86718 56.4552,-6.40528 115.9085,2.16593 169.2636,24.09179 16.8923,6.94176 33.2615,15.42172 49.0547,24.98633 -32.3599,8.62086 -63.8875,20.48614 -93.9961,35.55078 -92.9167,46.49037 -168.8477,120.96888 -218.2324,211.28516 -52.6661,96.3173 -75.6736,212.98925 -45.3496,327.01758 15.1532,56.98097 43.2686,110.98612 84.5352,156.08398 41.4222,45.26819 94.6338,79.83859 155.6425,97.46484 62.5613,18.07478 127.3577,16.63808 187.3946,-0.10546 59.7526,-16.66419 112.7385,-47.79875 156.5586,-87.60743 87.442,-79.43706 133.27,-187.15113 150.9394,-292.89453 6.3799,-38.18079 8.9824,-76.8391 8.2793,-115.39062 28.2803,42.04939 49.2454,90.56486 61.3125,141.53906 17.1533,72.45941 16.4638,149.08467 -3.4551,218.13867 -19.8262,68.73285 -60.0359,132.79897 -113.2968,180.45509 -53.3195,47.7084 -122.5627,81.662 -196.8946,99.9629 -74.5824,18.3625 -158.4806,21.9412 -248.2461,23.8808 l -564.3945,12.1954 c -181.9137,3.9306 -357.5375,-1.0623 -507.9824,-58.9473 -150.3016,-57.8299 -281.2223,-170.20946 -353.1563,-310.4004 -57.9439,-112.92612 -80.1869,-245.81504 -62.1757,-371.45508 18.0112,-125.64002 76.6917,-246.92592 164.0273,-339.025392 a 100.01,100.01 0 1 0 -145.125,-137.61914 C 3714.4902,79.197302 3638.1089,237.06884 3614.0879,404.63086 c -24.0209,167.562 4.9329,340.5347 82.2109,491.14062 96.6317,188.32402 264.9693,330.99412 459.2774,405.75582 194.1649,74.7067 396.8854,76.286 584.123,72.2403 l 564.3946,-12.1934 c 91.4685,-1.9764 190.3009,-4.6624 291.7382,-29.6367 101.6882,-25.0361 200.6703,-71.9475 282.4434,-145.1152 81.8317,-73.2203 141.6844,-168.6302 172.0996,-274.0723 30.3225,-105.12092 30.5182,-215.69919 5.9121,-319.64062 -24.1706,-102.10189 -72.7412,-200.10701 -147.2695,-279.34766 -55.9243,-59.46029 -125.4138,-106.76874 -203.4063,-135.03711 -14.2692,-22.41654 -29.9315,-44.07567 -47.373,-64.57227 C 5599.8627,45.55152 5525.6681,-9.1673745 5441.5469,-43.736328 5378.3977,-69.686942 5310.6804,-83.817934 5242.2461,-84.890625 Z M 5543.793,349.77539 c 8.6702,0.0608 17.2817,0.62253 25.8379,1.47656 28.4786,71.71728 37.9003,152.67935 25.1777,228.81836 -11.8838,71.11877 -42.8743,136.68571 -88.1563,177.82227 -22.5416,20.47814 -49.1937,35.57326 -75.8027,42.99414 -26.3245,7.34156 -54.5831,7.42388 -78.1562,0.61328 -22.9679,-6.63573 -46.0189,-21.11846 -63.6055,-40.33789 -17.7425,-19.38974 -31.4911,-44.97661 -38.8027,-72.4707 -14.6056,-54.92182 -3.6579,-122.59436 27.5488,-179.66602 29.8755,-54.63718 77.4146,-100.94332 132.2441,-128.37695 41.0214,-20.52482 87.8475,-31.19447 133.7149,-30.87305 z"
         id="path4502-2-0-5-0-5"
         inkscape:connector-curvature="0" />
    </g>
  </g>
</svg>
