<?xml version="1.0" encoding="UTF-8" standalone="no"?>
<!-- Created with Inkscape (http://www.inkscape.org/) -->

<svg
   xmlns:dc="http://purl.org/dc/elements/1.1/"
   xmlns:cc="http://creativecommons.org/ns#"
   xmlns:rdf="http://www.w3.org/1999/02/22-rdf-syntax-ns#"
   xmlns:svg="http://www.w3.org/2000/svg"
   xmlns="http://www.w3.org/2000/svg"
   xmlns:sodipodi="http://sodipodi.sourceforge.net/DTD/sodipodi-0.dtd"
   xmlns:inkscape="http://www.inkscape.org/namespaces/inkscape"
   width="2000"
   height="2048"
   id="svg2992"
   version="1.1"
   inkscape:version="0.91 r13725"
   sodipodi:docname="ഹൃ.svg">
  <defs
     id="defs5498">
    <inkscape:path-effect
       is_visible="true"
       id="path-effect4148"
       effect="spiro" />
    <inkscape:path-effect
       is_visible="true"
       id="path-effect4141-5"
       effect="spiro" />
    <inkscape:path-effect
       is_visible="true"
       id="path-effect4141-5-7"
       effect="spiro" />
    <inkscape:path-effect
       is_visible="true"
       id="path-effect4141-5-7-6"
       effect="spiro" />
    <inkscape:path-effect
       effect="spiro"
       id="path-effect4141-5-7-6-3"
       is_visible="true" />
    <inkscape:path-effect
       effect="spiro"
       id="path-effect4141-5-7-6-3-6"
       is_visible="true" />
    <inkscape:path-effect
       effect="spiro"
       id="path-effect4187"
       is_visible="true" />
    <inkscape:path-effect
       effect="spiro"
       id="path-effect4183"
       is_visible="true" />
    <inkscape:path-effect
       effect="spiro"
       id="path-effect4183-4"
       is_visible="true" />
    <inkscape:path-effect
       effect="spiro"
       id="path-effect4141-5-7-6-3-0"
       is_visible="true" />
    <inkscape:path-effect
       effect="spiro"
       id="path-effect4183-8"
       is_visible="true" />
    <inkscape:path-effect
       effect="spiro"
       id="path-effect4141-5-7-6-3-2"
       is_visible="true" />
    <inkscape:path-effect
       effect="spiro"
       id="path-effect4141-5-7-6-3-2-7"
       is_visible="true" />
    <inkscape:path-effect
       effect="spiro"
       id="path-effect4183-8-6"
       is_visible="true" />
    <inkscape:path-effect
       effect="spiro"
       id="path-effect4183-2"
       is_visible="true" />
    <inkscape:path-effect
       effect="spiro"
       id="path-effect4141-5-7-6-3-3"
       is_visible="true" />
  </defs>
  <sodipodi:namedview
     inkscape:window-height="843"
     inkscape:window-width="1600"
     inkscape:pageshadow="2"
     inkscape:pageopacity="0.0"
     borderopacity="1.0"
     bordercolor="#666666"
     pagecolor="#ffffff"
     id="base"
     showgrid="true"
     showguides="true"
     inkscape:guide-bbox="true"
     inkscape:zoom="0.35355339"
     inkscape:cx="6740.8381"
     inkscape:cy="900.12921"
     inkscape:window-x="1600"
     inkscape:window-y="0"
     inkscape:current-layer="layer1-4"
     inkscape:window-maximized="1">
    <sodipodi:guide
       orientation="horizontal"
       position="0,600"
       id="guide5596" />
    <inkscape:grid
       type="xygrid"
       id="grid3769"
       empspacing="3"
       visible="true"
       enabled="true"
       snapvisiblegridlinesonly="true"
       spacingx="4px"
       units="px"
       dotted="true"
       spacingy="4px" />
    <sodipodi:guide
       orientation="0,1"
       position="-1040,1600"
       id="guide2985" />
    <sodipodi:guide
       position="6936,1710"
       orientation="0,1"
       id="guide4221"
       inkscape:label=""
       inkscape:color="rgb(0,0,255)" />
  </sodipodi:namedview>
  <metadata
     id="metadata5594">
    <rdf:RDF>
      <cc:Work
         rdf:about="">
        <dc:format>image/svg+xml</dc:format>
        <dc:type
           rdf:resource="http://purl.org/dc/dcmitype/StillImage" />
        <dc:title />
      </cc:Work>
    </rdf:RDF>
  </metadata>
  <g
     inkscape:label="Layer 1"
     inkscape:groupmode="layer"
     id="layer1"
     transform="translate(0,1048)">
    <g
       id="layer1-4"
       inkscape:label="Layer 1"
       transform="translate(47.944243,-457.96695)">
      <path
         style="fill:none;fill-rule:evenodd;stroke:#000000;stroke-width:140;stroke-linecap:round;stroke-linejoin:round;stroke-miterlimit:4;stroke-dasharray:none;stroke-opacity:1"
         d="M 294.7659,794.77148 C 225.81511,769.83174 167.18504,717.53974 134.55358,651.87857 101.92212,586.2174 95.646943,507.90672 117.40605,437.88713 c 21.7591,-70.01958 71.314,-130.98065 135.41352,-166.58196 64.09952,-35.6013 142.0411,-45.45265 212.98286,-26.91975 57.48435,15.01727 110.05022,48.30126 148.20709,93.8427 38.15686,45.54145 61.72271,103.12309 66.44283,162.34884 4.72012,59.22575 -9.428,119.81309 -39.88999,170.82325 -30.46198,51.01016 -77.09251,92.19982 -131.47268,116.13237 l 965.48852,2.6887 c -119.815,-6.13487 -236.0758,-64.21262 -312.9395,-156.32809 -76.8636,-92.11548 -113.1853,-216.89658 -97.7671,-335.87373 15.3428,-118.39549 81.4151,-229.04486 177.3896,-300.0503268 95.9746,-71.0054662 220.3982,-101.8163932 338.6574,-85.4564462 117.8041,16.296979 227.6969,78.306896 307.0725,166.867079 79.3756,88.560184 128.6026,202.546244 144.6737,320.381364 21.7965,159.81372 -16.4813,324.43445 -91.0297,467.46606 -98.2828,188.56921 -262.6967,344.68751 -461.7995,419.35971 -84.4154,31.6595 -174.2804,48.7302 -264.425,50.23"
         id="path4139-0-3-5"
         inkscape:path-effect="#path-effect4141-5-7-6-3"
         inkscape:original-d="m 294.7659,794.77148 c 0,0 -19.90001,-571.64502 171.03653,-550.38606 180.50773,20.09781 43.28725,543.14716 43.28725,543.14716 l 965.48852,2.6887 c 0,0 -435.6303,-279.97767 -410.7066,-492.20182 25.044,-213.248718 302.2171,-404.97457 516.047,-385.506773 220.569,20.081351 391.0407,274.248903 451.7462,487.248443 43.5113,152.66952 5.5709,294.29345 -91.0297,467.46606 -93.8192,161.32991 -275.7126,326.58371 -461.7995,419.35971 -80.2922,40.0307 -264.425,50.23 -264.425,50.23"
         inkscape:connector-curvature="0"
         sodipodi:nodetypes="caccaaacac" />
      <path
         style="fill:none;fill-rule:evenodd;stroke:#000000;stroke-width:140;stroke-linecap:round;stroke-linejoin:round;stroke-miterlimit:4;stroke-dasharray:none;stroke-opacity:1"
         d="m 922.0558,1191.967 c 3.85743,27.0836 16.94009,52.4687 35.269,72.7776 18.32891,20.309 41.73341,35.6892 66.8875,46.4445 50.3081,21.5105 106.3447,24.6331 161.0482,25.698 56.4913,1.0997 114.5188,0.048 167.0791,-20.6859 26.2802,-10.367 50.8461,-25.6984 70.1198,-46.3538 19.2736,-20.6554 33.0645,-46.7992 37.0662,-74.7654 4.4179,-30.8745 -3.3085,-62.9307 -19.2458,-89.7402 -15.9374,-26.8096 -39.7465,-48.5038 -66.7421,-64.1238 -53.9914,-31.24 -118.5422,-38.1079 -180.9167,-38.7559 -62.7942,-0.6523 -127.9612,4.97 -182.7861,35.5932 -27.41237,15.3116 -51.6729,36.865 -67.96,63.7093 -16.2871,26.8443 -24.24645,59.1173 -19.8191,90.2024 z"
         id="path4181"
         inkscape:path-effect="#path-effect4183"
         inkscape:original-d="m 922.0558,1191.967 c 5.3904,100.0095 163.0586,143.6122 263.2047,144.9201 102.9098,1.344 274.2651,-45.8051 274.2651,-141.8051 3.9795,-141.0994 -157.1903,-191.8446 -266.9046,-192.6199 -110.1071,-0.778 -276.4915,79.5546 -270.5652,189.5049 z"
         inkscape:connector-curvature="0"
         sodipodi:nodetypes="aacaa" />
      <path
         style="color:#000000;font-style:normal;font-variant:normal;font-weight:normal;font-stretch:normal;font-size:medium;line-height:normal;font-family:sans-serif;text-indent:0;text-align:start;text-decoration:none;text-decoration-line:none;text-decoration-style:solid;text-decoration-color:#000000;letter-spacing:normal;word-spacing:normal;text-transform:none;direction:ltr;block-progression:tb;writing-mode:lr-tb;baseline-shift:baseline;text-anchor:start;white-space:normal;clip-rule:nonzero;display:inline;overflow:visible;visibility:visible;opacity:1;isolation:auto;mix-blend-mode:normal;color-interpolation:sRGB;color-interpolation-filters:linearRGB;solid-color:#000000;solid-opacity:1;fill:#000000;fill-opacity:1;fill-rule:evenodd;stroke:none;stroke-width:140;stroke-linecap:round;stroke-linejoin:round;stroke-miterlimit:4;stroke-dasharray:none;stroke-dashoffset:0;stroke-opacity:1;color-rendering:auto;image-rendering:auto;shape-rendering:auto;text-rendering:auto;enable-background:accumulate"
         d="M 1492.2695 2092.2109 C 1380.6812 2093.0837 1270.1217 2128.7368 1179.5723 2195.7285 C 1067.9943 2278.278 992.31466 2404.7731 974.39453 2543.0566 C 956.37407 2682.1149 997.9992 2825.1107 1087.8359 2932.7734 C 1099.7485 2947.0498 1112.4708 2960.5497 1125.8242 2973.3379 L 673.89258 2972.0801 C 676.18557 2968.5335 678.43578 2964.9555 680.60547 2961.3223 C 718.68547 2897.5554 736.07436 2823.0859 730.17383 2749.0488 C 724.27329 2675.0118 695.30862 2604.2352 647.60938 2547.3047 C 599.91017 2490.3742 535.29961 2449.4643 463.43945 2430.6914 C 374.49702 2407.456 279.13949 2419.5078 198.77539 2464.1426 C 118.41129 2508.7773 57.782193 2583.3602 30.501953 2671.1465 C 3.2217161 2758.9328 10.899234 2854.7426 51.810547 2937.0645 C 92.721875 3019.3866 164.45406 3083.363 250.90039 3114.6309 A 70.007 70.007 0 1 0 298.51953 2982.9785 C 247.06431 2964.367 201.53517 2923.7601 177.18359 2874.7598 C 152.83201 2825.7594 147.95734 2764.9463 164.19531 2712.6934 C 180.43328 2660.4405 218.91703 2613.101 266.75195 2586.5332 C 314.58689 2559.9654 375.11166 2552.3161 428.05273 2566.1465 C 471.16127 2577.4082 511.68235 2603.0645 540.29688 2637.2168 C 568.91134 2671.369 587.07749 2715.7575 590.61719 2760.1719 C 594.15689 2804.5864 583.25021 2851.2896 560.40625 2889.543 C 537.56228 2927.7964 501.61666 2959.5486 460.83594 2977.4961 A 70.007 70.007 0 0 0 488.83789 3111.5664 L 1454.3262 3114.2539 A 70.007 70.007 0 0 0 1458.1016 2974.3457 C 1358.5091 2969.2463 1259.2186 2919.6463 1195.3281 2843.0781 C 1131.4376 2766.5101 1100.4185 2659.9449 1113.2344 2561.0488 C 1126 2462.5413 1182.4667 2367.7369 1262.8379 2308.2754 C 1343.3417 2248.7159 1450.4298 2222.0729 1550.2695 2235.8848 C 1650.0512 2249.6886 1746.0259 2303.3912 1814.8086 2380.1328 C 1883.8598 2457.1739 1927.9486 2558.3938 1942.25 2663.2539 C 1961.6939 2805.8176 1927.4169 2956.6871 1858.5039 3088.9062 C 1780.768 3238.0533 1657.7821 3365.0921 1510.4922 3441.1504 C 1512.6558 3398.6717 1500.9151 3358.1249 1480.3945 3323.6055 C 1457.2851 3284.7313 1424.4105 3255.4177 1388.5391 3234.6621 C 1317.4631 3193.5368 1240.3013 3187.1962 1173.291 3186.5 C 1105.8161 3185.7991 1027.9002 3190.616 955.64258 3230.9766 C 919.16496 3251.3517 885.63102 3280.4947 861.97266 3319.4883 C 838.02564 3358.9576 825.66685 3406.4957 832.69922 3455.8711 C 838.81104 3498.7831 858.63558 3536.1299 885.30273 3565.6777 C 911.71216 3594.9402 943.73191 3615.5174 976.63477 3629.5859 C 1041.9685 3657.521 1107.4061 3659.8077 1163.8418 3660.9062 C 1203.7776 3661.6837 1248.115 3662.018 1293.998 3653.5078 C 1358.6264 3644.951 1422.2541 3629.0793 1483.3594 3606.1621 C 1700.6352 3524.6743 1876.8998 3356.5141 1982.6523 3153.6133 C 2062.8362 2999.7692 2105.116 2821.3977 2080.9668 2644.334 C 2063.1261 2513.5238 2008.7605 2386.7726 1919.0605 2286.6934 C 1829.092 2186.3146 1705.2816 2115.9972 1569.4551 2097.207 C 1543.8279 2093.6617 1518.0206 2092.0095 1492.2695 2092.2109 z M 1161.0117 3326.4629 C 1164.597 3326.4439 1168.2058 3326.4545 1171.8379 3326.4922 C 1229.5766 3327.092 1281.517 3334.4852 1318.4238 3355.8398 C 1336.5436 3366.3242 1351.2872 3380.3995 1360.0527 3395.1445 C 1368.5438 3409.4281 1372.0082 3426.379 1370.1738 3439.1992 C 1368.4999 3450.8974 1361.7591 3464.8332 1351.2227 3476.125 C 1340.4028 3487.7206 1324.8131 3497.9308 1306.5957 3505.1172 C 1294.3424 3509.9508 1280.8251 3513.4274 1266.2441 3515.8867 C 1241.9854 3518.78 1217.5888 3520.4534 1193.1895 3520.8594 A 70.007 70.007 0 0 0 1187.5312 3521.1543 C 1180.6553 3521.1491 1173.6661 3521.0718 1166.5664 3520.9336 C 1113.5952 3519.9024 1066.9584 3515.9453 1031.6758 3500.8594 C 1014.2705 3493.4173 999.48275 3483.2344 989.23438 3471.8789 C 979.2437 3460.809 972.90187 3447.3861 971.29883 3436.1309 C 969.4765 3423.336 973.03688 3406.3267 981.66406 3392.1074 C 990.5799 3377.4124 1005.5669 3363.4493 1023.9141 3353.2012 C 1058.9691 3333.6206 1107.2319 3326.748 1161.0117 3326.4629 z "
         transform="translate(-47.944243,-590.03305)"
         id="path4139-0-3-5-5" />
      <path
         style="fill:none;fill-rule:evenodd;stroke:#000000;stroke-width:69.99999237;stroke-linecap:round;stroke-linejoin:round;stroke-miterlimit:4;stroke-dasharray:none;stroke-opacity:1"
         d="m 3147.3572,846.41379 c -73.5796,-26.58876 -136.155,-82.36791 -170.9915,-152.42034 -34.8365,-70.05242 -41.5522,-153.61014 -18.3512,-228.32716 23.2011,-74.71703 76.0646,-139.77425 144.4532,-177.77329 68.3886,-37.99905 151.5525,-48.52335 227.251,-28.75836 61.3448,16.01721 117.4426,51.53106 158.1623,100.12782 40.7197,48.59677 65.8669,110.04447 70.9,173.24577 5.0331,63.20131 -10.0719,127.85454 -42.587,182.28345 -32.5151,54.42891 -82.2851,98.37368 -140.3217,123.89798 l 1029.4173,2.86893 C 4277.5823,834.68726 4153.7888,772.61651 4071.888,674.38911 3989.9872,576.16172 3951.1861,443.22537 3967.3885,316.36384 3983.5319,189.96417 4053.7879,71.679644 4156.1517,-4.2094621 4258.5154,-80.098568 4391.4504,-112.94205 4517.605,-94.98396 c 125.3682,17.846135 241.9437,84.593181 326.2293,179.100338 84.2856,94.507152 136.7976,215.555112 155.4289,340.809012 25.3866,170.66873 -11.7462,348.81986 -97.0572,498.80093 -106.9962,188.10458 -287.9526,330.46188 -492.3771,401.46998 -90.6885,31.5012 -186.0121,49.6227 -281.9336,53.597"
         id="path4139-0-3-5-0"
         inkscape:path-effect="#path-effect4141-5-7-6-3-2"
         inkscape:original-d="m 3147.3572,846.41379 c 0,0 -21.2176,-609.96312 182.3615,-587.27915 192.46,21.44499 46.1536,579.55502 46.1536,579.55502 l 1029.4173,2.86893 c 0,0 -464.4751,-298.74494 -437.9011,-525.19475 26.7023,-227.543062 322.2281,-432.12054 550.2165,-411.3478 235.1738,21.42742 416.9331,292.63217 481.6582,519.90935 46.3923,162.90315 5.9397,314.02032 -97.0572,498.80093 -100.0313,172.14408 -300.4157,312.04548 -492.3771,401.46998 -86.7136,40.3952 -225.7731,22.7707 -281.9336,53.597"
         inkscape:connector-curvature="0"
         sodipodi:nodetypes="caccaaacac" />
      <path
         style="fill:none;fill-rule:evenodd;stroke:#000000;stroke-width:69.99999237;stroke-linecap:round;stroke-linejoin:round;stroke-miterlimit:4;stroke-dasharray:none;stroke-opacity:1"
         d="m 3816.1825,1224.2339 c 4.114,28.8815 18.0586,55.9535 37.5969,77.6174 19.5382,21.664 44.4884,38.0766 71.307,49.5585 53.6371,22.9638 113.3935,26.3223 171.7286,27.4584 60.2404,1.1732 122.1198,0.022 178.158,-22.1137 28.0191,-11.068 54.2075,-27.4286 74.7531,-49.4616 20.5455,-22.033 35.2453,-49.9132 39.5142,-79.7352 4.7134,-32.927 -3.5167,-67.115 -20.5022,-95.7139 -16.9855,-28.5989 -42.3654,-51.7482 -71.1475,-68.4214 -57.5642,-33.3465 -126.406,-40.7054 -192.9277,-41.3962 -66.9682,-0.6954 -136.4666,5.3358 -194.919,38.0243 -29.2263,16.3442 -55.0874,39.3431 -72.446,67.9784 -17.3586,28.6354 -25.8377,63.0537 -21.1154,96.205 z"
         id="path4181-6"
         inkscape:path-effect="#path-effect4183-8"
         inkscape:original-d="m 3816.1825,1224.2339 c 5.7503,106.6504 173.8363,153.2389 280.6325,154.6343 109.7416,1.4339 292.4253,-48.8755 292.4253,-151.3105 4.243,-150.5575 -167.5677,-204.7045 -284.5774,-205.5315 -117.4274,-0.83 -294.8028,84.9477 -288.4804,202.2077 z"
         inkscape:connector-curvature="0"
         sodipodi:nodetypes="aacaa" />
      <path
         style="color:#000000;font-style:normal;font-variant:normal;font-weight:normal;font-stretch:normal;font-size:medium;line-height:normal;font-family:sans-serif;text-indent:0;text-align:start;text-decoration:none;text-decoration-line:none;text-decoration-style:solid;text-decoration-color:#000000;letter-spacing:normal;word-spacing:normal;text-transform:none;direction:ltr;block-progression:tb;writing-mode:lr-tb;baseline-shift:baseline;text-anchor:start;white-space:normal;clip-rule:nonzero;display:inline;overflow:visible;visibility:visible;opacity:1;isolation:auto;mix-blend-mode:normal;color-interpolation:sRGB;color-interpolation-filters:linearRGB;solid-color:#000000;solid-opacity:1;fill:#000000;fill-opacity:1;fill-rule:evenodd;stroke:none;stroke-width:69.99999237;stroke-linecap:round;stroke-linejoin:round;stroke-miterlimit:4;stroke-dasharray:none;stroke-dashoffset:0;stroke-opacity:1;color-rendering:auto;image-rendering:auto;shape-rendering:auto;text-rendering:auto;enable-background:accumulate"
         d="M 4781.8867 2087.2227 C 4671.0228 2087.8639 4560.7293 2123.37 4471.25 2189.707 C 4361.0638 2271.3954 4286.0258 2397.6268 4268.6133 2533.9629 C 4251.132 2670.8378 4292.5838 2812.8554 4380.9492 2918.8359 C 4417.2714 2962.3988 4461.0898 2999.1229 4509.5781 3027.9453 L 3825.3867 3026.0391 C 3847.3258 3004.968 3866.5112 2981.0084 3882.1836 2954.7734 C 3918.5094 2893.9657 3935.2363 2822.3718 3929.6133 2751.7637 C 3923.9904 2681.1554 3896.1441 2613.1085 3850.6523 2558.8164 C 3805.1604 2504.5244 3743.0381 2465.1971 3674.5039 2447.3027 C 3589.8042 2425.1875 3497.9326 2436.8145 3421.4121 2479.332 C 3344.8915 2521.8494 3286.4932 2593.7188 3260.5332 2677.3203 C 3234.5733 2760.9218 3241.9919 2853.2291 3280.9707 2931.6113 C 3319.9496 3009.9936 3389.0775 3071.6128 3471.4062 3101.3633 A 35.003496 35.003496 0 1 0 3495.1953 3035.5293 C 3430.3649 3012.1021 3374.3425 2962.164 3343.6484 2900.4414 C 3312.9542 2838.7189 3306.9405 2763.9106 3327.3828 2698.0781 C 3347.825 2632.2456 3395.1537 2574.0021 3455.4102 2540.5215 C 3515.6668 2507.0408 3590.123 2497.6184 3656.8203 2515.0332 C 3710.9757 2529.1733 3761.0504 2560.874 3796.998 2603.7754 C 3832.9455 2646.6769 3855.3908 2701.5259 3859.834 2757.3203 C 3864.2773 2813.1147 3850.7943 2870.8249 3822.0898 2918.875 C 3793.3853 2966.9251 3748.9596 3006.1506 3697.7246 3028.6836 A 35.003496 35.003496 0 0 0 3711.7188 3095.7227 L 4741.1348 3098.5918 A 35.003496 35.003496 0 0 0 4743.1133 3028.6426 C 4625.4862 3022.3136 4510.1493 2964.482 4434.7129 2874.0078 C 4359.2767 2783.5338 4323.1273 2659.6802 4338.0508 2542.832 C 4352.9252 2426.3687 4418.3981 2316.0294 4512.9395 2245.9395 C 4607.5385 2175.8069 4731.7514 2145.0637 4848.6152 2161.6992 C 4964.9257 2178.256 5074.5922 2240.793 5153.6562 2329.4453 C 5232.867 2418.2623 5282.8819 2533.0741 5300.5879 2652.1074 C 5324.7224 2814.3574 5289.3065 2985.0336 5207.7266 3128.4551 C 5106.5136 3306.3924 4934.9687 3442.7139 4740.9102 3511.8281 C 4750.2829 3494.2251 4756.9081 3474.9635 4759.8301 3454.5508 C 4765.8349 3412.6023 4755.4778 3370.8644 4734.7734 3336.0039 C 4714.2057 3301.3735 4684.2968 3274.4132 4651.0781 3255.1699 C 4584.9735 3216.876 4509.8225 3209.7755 4440.9707 3209.0605 C 4371.65 3208.3406 4295.7703 3213.9733 4228.6035 3251.5352 C 4194.8459 3270.4134 4164.3509 3297.209 4143.3105 3331.918 C 4122.1262 3366.8643 4111.4525 3408.9126 4117.4766 3451.2031 C 4122.7172 3487.993 4140.0288 3521.0437 4163.7324 3547.3262 C 4187.3073 3573.466 4216.5617 3592.4789 4247.2539 3605.6191 C 4308.4024 3631.7988 4372.8638 3634.7413 4432.0762 3635.8945 C 4481.0158 3636.8477 4533.5119 3636.6866 4585.25 3623.6641 C 4643.694 3614.2337 4701.3136 3599.7229 4757.2559 3580.291 C 4969.3295 3506.626 5156.9432 3359.3141 5268.5723 3163.0645 C 5357.6146 3006.5238 5396.4652 2820.896 5369.8262 2641.8086 C 5350.2696 2510.3342 5295.2588 2383.0509 5205.8984 2282.8535 C 5116.3912 2182.4916 4992.9063 2111.5339 4858.4805 2092.3984 C 4833.0845 2088.7833 4807.4706 2087.0747 4781.8867 2087.2227 z M 4428.1465 3279.0195 C 4432.1704 3279.0025 4436.2018 3279.0167 4440.2402 3279.0586 L 4440.2422 3279.0566 C 4504.4338 3279.7232 4566.9664 3287.3411 4615.9902 3315.7402 C 4640.3357 3329.8433 4661.1865 3349.1826 4674.5898 3371.75 C 4687.8564 3394.0873 4693.9591 3420.7253 4690.5371 3444.6309 C 4687.4316 3466.325 4676.2531 3488.1048 4660.0723 3505.457 C 4643.75 3522.9609 4622.0473 3536.7604 4598.0586 3546.2363 C 4589.1135 3549.7698 4579.8635 3552.706 4570.3535 3555.1426 C 4534.6035 3560.7657 4498.5362 3564.3598 4462.3906 3565.8574 A 35.003496 35.003496 0 0 0 4458.6406 3566.1719 C 4450.2966 3566.1678 4441.8948 3566.0748 4433.4395 3565.9102 C 4375.9818 3564.7912 4320.9305 3561.0174 4274.8047 3541.2695 C 4251.8597 3531.4461 4231.2143 3517.6332 4215.7129 3500.4453 C 4200.3399 3483.3997 4189.763 3462.3073 4186.7754 3441.334 C 4183.355 3417.3219 4189.639 3390.5314 4203.1719 3368.207 C 4216.8489 3345.6451 4238.0744 3326.4429 4262.7695 3312.6328 C 4309.3991 3286.5561 4367.7885 3279.2749 4428.1465 3279.0195 z "
         transform="translate(-47.944243,-590.03305)"
         id="path4139-0-3-5-0-9" />
      <path
         style="color:#000000;font-style:normal;font-variant:normal;font-weight:normal;font-stretch:normal;font-size:medium;line-height:normal;font-family:sans-serif;text-indent:0;text-align:start;text-decoration:none;text-decoration-line:none;text-decoration-style:solid;text-decoration-color:#000000;letter-spacing:normal;word-spacing:normal;text-transform:none;direction:ltr;block-progression:tb;writing-mode:lr-tb;baseline-shift:baseline;text-anchor:start;white-space:normal;clip-rule:nonzero;display:inline;overflow:visible;visibility:visible;opacity:1;isolation:auto;mix-blend-mode:normal;color-interpolation:sRGB;color-interpolation-filters:linearRGB;solid-color:#000000;solid-opacity:1;fill:#000000;fill-opacity:1;fill-rule:evenodd;stroke:none;stroke-width:200;stroke-linecap:round;stroke-linejoin:round;stroke-miterlimit:4;stroke-dasharray:none;stroke-dashoffset:0;stroke-opacity:1;color-rendering:auto;image-rendering:auto;shape-rendering:auto;text-rendering:auto;enable-background:accumulate"
         d="M 7022.9414 336.63867 C 7019.5407 336.61487 7016.1402 336.62175 7012.7422 336.66016 C 6894.9444 337.99172 6779.0308 376.63867 6683.8906 447.7168 C 6566.7963 535.19663 6487.8911 666.7765 6465.8594 811.26367 C 6442.7816 962.61118 6483.6167 1118.8068 6577.8145 1239.4941 C 6580.9991 1243.5743 6584.3725 1247.4782 6587.6641 1251.459 L 6245.4941 1250.5059 C 6273.9646 1189.6911 6286.3498 1122.3204 6280.9805 1054.9492 C 6274.574 974.56459 6243.2948 898.1339 6191.5059 836.32227 C 6139.7171 774.51075 6069.9451 730.33156 5991.9238 709.94922 C 5895.2667 684.69845 5792.444 697.69494 5705.1094 746.20117 C 5617.7747 794.70742 5552.4023 875.12876 5522.7559 970.5293 C 5493.1095 1065.9298 5501.3877 1169.2368 5545.8477 1258.6992 C 5590.3075 1348.1616 5667.6533 1417.1469 5761.5977 1451.127 A 100.01 100.01 0 1 0 5829.625 1263.0508 C 5785.6678 1247.1513 5745.7521 1211.5513 5724.9492 1169.6914 C 5704.1461 1127.8315 5699.8744 1074.5195 5713.7461 1029.8809 C 5727.6179 985.24222 5761.3543 943.74129 5802.2188 921.04492 C 5843.0832 898.34853 5896.1446 891.64006 5941.3711 903.45508 C 5978.3186 913.10727 6013.6781 935.49622 6038.2031 964.76758 C 6062.728 994.03882 6078.5795 1032.773 6081.6133 1070.8398 C 6084.6471 1108.9066 6075.1299 1149.661 6055.5508 1182.4473 C 6035.9717 1215.2336 6004.6066 1242.9399 5969.6543 1258.3223 A 100.01 100.01 0 0 0 6009.6562 1449.8496 L 6975.1445 1452.5391 A 100.01 100.01 0 0 0 6984.8086 1252.9805 C 6889.2086 1243.9683 6794.5584 1192.1357 6735.4766 1116.4395 C 6676.3948 1040.7432 6649.0995 936.33679 6663.5742 841.41016 C 6677.4193 750.61164 6730.0159 662.90921 6803.5918 607.94141 C 6877.1666 552.97456 6976.1837 527.41112 7067.1641 539.90039 C 7158.3742 552.42119 7247.7693 603.03111 7311.6953 675.00977 C 7376.0932 747.51995 7418.1417 843.33951 7433.6953 943.43359 C 7456.3966 1089.5267 7423.9164 1246.6949 7352.7754 1383.375 C 7285.1721 1513.2583 7181.714 1625.686 7058.2871 1700.043 C 7053.088 1670.066 7042.1354 1641.8798 7027.084 1616.5605 C 7000.9009 1572.5159 6964.14 1539.9371 6924.4648 1516.9805 C 6846.0669 1471.6185 6763.5013 1465.5019 6694.5039 1464.7852 C 6625.023 1464.0634 6541.6429 1468.5347 6461.9141 1513.0684 C 6421.5516 1535.6136 6384.0421 1568.0106 6357.2246 1612.2109 C 6329.9949 1657.0909 6315.7515 1711.1705 6323.9004 1768.3848 C 6330.9784 1818.0805 6353.693 1860.5532 6383.9336 1894.0605 C 6413.8062 1927.1602 6449.5184 1949.9666 6485.7422 1965.4551 C 6557.5154 1996.1435 6626.9801 1998.0725 6684.1582 1999.1855 C 6724.809 1999.9769 6771.4933 2000.5726 6821.0547 1991.2402 C 6887.1631 1982.3177 6952.2288 1965.9923 7014.7832 1942.541 C 7239.8544 1858.1633 7421.3123 1684.8846 7530.1836 1475.7148 C 7618.5786 1305.8854 7661.6798 1108.0766 7631.3242 912.72461 C 7610.4244 778.22547 7554.4841 647.19988 7461.2324 542.20117 C 7367.5085 436.67094 7238.3561 361.52627 7094.3633 341.75977 C 7070.6048 338.49833 7046.7463 336.80525 7022.9414 336.63867 z M 6682.0195 1664.75 C 6685.4522 1664.7283 6688.9217 1664.737 6692.4277 1664.7734 L 6692.4297 1664.7734 C 6748.1806 1665.3528 6794.7162 1672.9719 6824.3008 1690.0898 C 6838.6168 1698.3732 6849.4742 1709.1833 6855.166 1718.7578 C 6860.4658 1727.6731 6862.1062 1738.1517 6861.3789 1743.2344 C 6860.7027 1747.9606 6856.9834 1756.6626 6850.1914 1763.9414 C 6842.9949 1771.6539 6831.2521 1779.6728 6816.4902 1785.4961 C 6806.3569 1789.4935 6794.6476 1792.4661 6781.5391 1794.6191 C 6758.9615 1797.246 6736.2666 1798.768 6713.5781 1799.1484 A 100.01 100.01 0 0 0 6708.3711 1799.4238 C 6701.7634 1799.4287 6694.9915 1799.3616 6688.0547 1799.2266 C 6635.8258 1798.2099 6593.216 1793.893 6564.373 1781.5605 C 6550.2887 1775.5383 6539.1935 1767.5828 6532.4082 1760.0645 C 6525.991 1752.9541 6522.5411 1744.6569 6521.9043 1740.1855 C 6521.1984 1735.2295 6522.8724 1724.7638 6528.2168 1715.9551 C 6533.9735 1706.4669 6544.985 1695.7559 6559.4473 1687.6777 C 6587.4979 1672.0096 6630.5202 1665.0752 6682.0195 1664.75 z "
         transform="translate(-47.944243,-590.03305)"
         id="path4139-0-3-5-8" />
    </g>
  </g>
</svg>
