<?xml version="1.0" encoding="UTF-8" standalone="no"?>
<!-- Created with Inkscape (http://www.inkscape.org/) -->

<svg
   xmlns:dc="http://purl.org/dc/elements/1.1/"
   xmlns:cc="http://creativecommons.org/ns#"
   xmlns:rdf="http://www.w3.org/1999/02/22-rdf-syntax-ns#"
   xmlns:svg="http://www.w3.org/2000/svg"
   xmlns="http://www.w3.org/2000/svg"
   xmlns:sodipodi="http://sodipodi.sourceforge.net/DTD/sodipodi-0.dtd"
   xmlns:inkscape="http://www.inkscape.org/namespaces/inkscape"
   width="2000"
   height="2048"
   id="svg2992"
   version="1.1"
   inkscape:version="0.91 r13725"
   sodipodi:docname="ഹ്ന.svg">
  <defs
     id="defs5498">
    <inkscape:path-effect
       is_visible="true"
       id="path-effect4222"
       effect="spiro" />
    <inkscape:path-effect
       is_visible="true"
       id="path-effect4199"
       effect="spiro" />
    <inkscape:path-effect
       is_visible="true"
       id="path-effect4195"
       effect="spiro" />
    <inkscape:path-effect
       is_visible="true"
       id="path-effect4191"
       effect="spiro" />
    <inkscape:path-effect
       is_visible="true"
       id="path-effect3782"
       effect="spiro" />
    <inkscape:path-effect
       is_visible="true"
       id="path-effect3846"
       effect="spiro" />
    <inkscape:path-effect
       is_visible="true"
       id="path-effect3801"
       effect="spiro" />
    <inkscape:path-effect
       is_visible="true"
       id="path-effect3846-8"
       effect="spiro" />
    <inkscape:path-effect
       is_visible="true"
       id="path-effect3801-4"
       effect="spiro" />
    <inkscape:path-effect
       is_visible="true"
       id="path-effect3846-4"
       effect="spiro" />
    <inkscape:path-effect
       is_visible="true"
       id="path-effect3801-2"
       effect="spiro" />
    <inkscape:path-effect
       effect="spiro"
       id="path-effect4141-5-7-6"
       is_visible="true" />
    <inkscape:path-effect
       effect="spiro"
       id="path-effect4372-5-0-6"
       is_visible="true" />
    <inkscape:path-effect
       effect="spiro"
       id="path-effect4141-5-7-6-5"
       is_visible="true" />
    <inkscape:path-effect
       effect="spiro"
       id="path-effect4141-5-7-6-5-2"
       is_visible="true" />
    <inkscape:path-effect
       effect="spiro"
       id="path-effect4141-5-7-6-5-5"
       is_visible="true" />
  </defs>
  <sodipodi:namedview
     inkscape:window-height="843"
     inkscape:window-width="1600"
     inkscape:pageshadow="2"
     inkscape:pageopacity="0.0"
     borderopacity="1.0"
     bordercolor="#666666"
     pagecolor="#ffffff"
     id="base"
     showgrid="true"
     showguides="true"
     inkscape:guide-bbox="true"
     inkscape:zoom="0.227"
     inkscape:cx="3966.332"
     inkscape:cy="623.70939"
     inkscape:window-x="1600"
     inkscape:window-y="0"
     inkscape:current-layer="layer1-4"
     inkscape:window-maximized="1"
     inkscape:snap-grids="false">
    <sodipodi:guide
       orientation="horizontal"
       position="0,600"
       id="guide5596" />
    <inkscape:grid
       type="xygrid"
       id="grid3769"
       empspacing="3"
       visible="true"
       enabled="true"
       snapvisiblegridlinesonly="true"
       spacingx="4px"
       units="px"
       dotted="true"
       spacingy="4px" />
    <sodipodi:guide
       orientation="0,1"
       position="-1040,1600"
       id="guide2985" />
    <sodipodi:guide
       position="3607.9295,1710"
       orientation="0,1"
       id="guide4176"
       inkscape:label=""
       inkscape:color="rgb(0,0,255)" />
  </sodipodi:namedview>
  <metadata
     id="metadata5594">
    <rdf:RDF>
      <cc:Work
         rdf:about="">
        <dc:format>image/svg+xml</dc:format>
        <dc:type
           rdf:resource="http://purl.org/dc/dcmitype/StillImage" />
        <dc:title />
      </cc:Work>
    </rdf:RDF>
  </metadata>
  <g
     inkscape:label="Layer 1"
     inkscape:groupmode="layer"
     id="layer1"
     transform="translate(0,1048)">
    <g
       id="layer1-5"
       inkscape:label="Layer 1"
       transform="translate(24.987319,25.339789)">
      <g
         transform="translate(9.8717383,-66.184927)"
         id="layer1-4"
         inkscape:label="Layer 1">
        <g
           transform="translate(1138.3105,47.019258)"
           id="layer1-9"
           inkscape:label="Layer 1" />
        <g
           transform="translate(1669.1096,32.086007)"
           id="layer1-6"
           inkscape:label="Layer 1" />
        <path
           style="color:#000000;font-style:normal;font-variant:normal;font-weight:normal;font-stretch:normal;font-size:medium;line-height:normal;font-family:sans-serif;text-indent:0;text-align:start;text-decoration:none;text-decoration-line:none;text-decoration-style:solid;text-decoration-color:#000000;letter-spacing:normal;word-spacing:normal;text-transform:none;direction:ltr;block-progression:tb;writing-mode:lr-tb;baseline-shift:baseline;text-anchor:start;white-space:normal;clip-rule:nonzero;display:inline;overflow:visible;visibility:visible;opacity:1;isolation:auto;mix-blend-mode:normal;color-interpolation:sRGB;color-interpolation-filters:linearRGB;solid-color:#000000;solid-opacity:1;fill:#000000;fill-opacity:1;fill-rule:evenodd;stroke:none;stroke-width:140;stroke-linecap:round;stroke-linejoin:round;stroke-miterlimit:4;stroke-dasharray:none;stroke-dashoffset:0;stroke-opacity:1;color-rendering:auto;image-rendering:auto;shape-rendering:auto;text-rendering:auto;enable-background:accumulate"
           d="m 2203.666,-557.0332 c -134.8114,-3.46588 -267.2991,50.95889 -360.7441,148.1914 -23.5834,24.53927 -44.3229,51.46718 -62.041,80.16016 -15.5196,-25.68438 -33.4165,-50.02554 -53.793,-72.42774 -89.1197,-97.97951 -218.024,-154.49506 -350.4688,-153.6582 -136.668,0.86355 -267.8695,62.56486 -357.3105,164.76172 C 930.02669,-287.99068 886.88949,-151.55438 898.37109,-17.349609 908.75413,104.0144 963.44128,218.6629 1049.5684,303.73828 l -343.13481,-0.20312 c 2.20194,-3.41576 4.37127,-6.85558 6.45899,-10.35157 38.08,-63.7669 55.4689,-138.23832 49.56836,-212.275387 C 756.5604,6.8711341 727.59569,-63.903441 679.89648,-120.83398 632.19726,-177.76454 567.58478,-218.67639 495.72461,-237.44922 406.78214,-260.68464 311.42658,-248.63084 231.0625,-203.99609 150.69841,-159.36133 90.069302,-84.778501 62.789062,3.0078125 35.508811,90.794125 43.186311,186.60184 84.097656,268.92383 125.009,351.24581 196.73923,415.2223 283.18555,446.49023 A 70.007,70.007 0 1 0 330.80469,314.83789 C 279.34942,296.22634 233.82033,255.6195 209.46875,206.61914 185.11718,157.61879 180.24445,96.8056 196.48242,44.552734 c 16.23796,-52.2528666 54.71973,-99.592296 102.55469,-126.160156 47.83496,-26.567858 108.36168,-34.217098 161.30273,-20.386718 43.10853,11.261715 83.62963,36.917974 112.24414,71.070312 28.61451,34.1523389 46.78062,78.540641 50.32032,122.955078 3.5397,44.41444 -7.36696,91.11963 -30.21094,129.37305 -22.84398,38.25342 -58.78966,70.00373 -99.57031,87.95117 a 70.007,70.007 0 0 0 28.15429,134.07031 l 805.77146,0.47852 c 56.4015,9.14881 114.3602,9.14912 171.211,-0.99414 a 70.007,70.007 0 0 0 -12.2539,-138.91211 l -145.086,-0.0859 c -57.6527,-10.81479 -113.0303,-34.66909 -158.914,-69.87305 -80.8955,-62.06634 -135.4532,-161.731143 -144.1446,-263.322263 -8.1951,-95.789817 24.0571,-196.829607 86.7989,-268.519527 62.5828,-71.50826 158.6816,-116.37378 252.8437,-116.96875 91.152,-0.57596 184.6831,40.43125 246.0176,107.86328 a 70.007,70.007 0 0 0 0,0.002 c 51.3133,56.41456 81.975,133.5134 85.2812,210.306641 -0.5558,11.456744 -0.6669,22.944138 -0.3925,34.451171 -0.2306,3.453338 -0.4058,6.914368 -0.754,10.351563 a 70.007,70.007 0 0 0 -0.3554,7.402344 l 2.1406,429.453121 a 70.007,70.007 0 0 0 140,-0.41601 l -0.4199,-431.783205 a 70.007,70.007 0 0 0 -0.1485,-4.507813 c -0.1745,-2.664601 -0.1939,-5.344065 -0.3007,-8.015624 0.6155,-11.587259 0.723,-23.163879 0.4707,-34.722657 5.3466,-80.163291 39.5323,-159.916291 94.8203,-217.445311 65.133,-67.77301 162.2369,-107.66383 256.2031,-105.24805 97.9493,2.51819 196.8958,51.22015 259.6152,127.13281 62.8103,76.0227 92.276,182.26929 78.3868,280.3964888 -13.9508,98.5614652 -72.011,192.8657212 -153.7344,249.7011712 -81.7234,56.83546 -190.3384,78.4465 -287.5938,57.22461 a 70.007,70.007 0 1 0 -29.8457,136.78125 c 136.731,29.83577 282.4785,0.83445 397.3731,-79.07031 114.8946,-79.90475 192.8047,-206.44848 212.4179,-345.015628 19.5478,-138.103962 -19.9228,-281.282252 -109.0761,-389.189452 -89.2444,-108.01723 -223.3857,-174.30045 -363.9434,-177.91406 z"
           id="path4139-0-3-5"
           inkscape:connector-curvature="0" />
        <path
           style="fill:none;fill-rule:evenodd;stroke:#000000;stroke-width:140;stroke-linecap:round;stroke-linejoin:round;stroke-miterlimit:4;stroke-dasharray:none;stroke-opacity:1"
           d="m 335.29783,1521.6338 c -68.95078,-24.9397 -127.58085,-77.2317 -160.2123,-142.8929 -32.63145,-65.6612 -38.90663,-143.9718 -17.14753,-213.9914 21.7591,-70.0196 71.31399,-130.9807 135.4135,-166.58196 64.09951,-35.60131 142.04108,-45.45267 212.98283,-26.91978 57.48435,15.01727 110.05023,48.30124 148.2071,93.84264 38.15687,45.5415 61.72272,103.1231 66.44285,162.3489 4.72012,59.2257 -9.42799,119.8131 -39.88997,170.8232 -30.46199,51.0102 -77.09252,92.1998 -131.47268,116.1324 l 964.64497,0.573 c -120.49,21.4977 -249.4649,-9.92 -346.5696,-84.4228 -97.1046,-74.5028 -160.8454,-190.9447 -171.27837,-312.892 -9.83833,-114.9973 27.85547,-233.73569 103.86727,-320.58823 76.0119,-86.85253 189.6625,-140.13619 305.0775,-140.86547 111.7984,-0.70642 223.0163,48.05589 298.2435,130.76164 75.2272,82.70575 113.262,198.0338 101.9945,309.26516 l 2.1414,429.4525 -0.4191,-431.7824 c -7.4811,-114.18177 35.0809,-230.7606 114.3699,-313.26335 79.2889,-82.50274 194.0856,-129.66067 308.4744,-126.71985 119.2535,3.06589 235.798,60.55763 311.7799,152.52258 75.9818,91.96494 110.449,216.67792 93.7305,334.79352 -16.782,118.5643 -84.7671,228.9879 -183.0761,297.358 -98.309,68.3701 -225.4897,93.6767 -342.4829,68.1479"
           id="path4139-0-3-5-1"
           inkscape:path-effect="#path-effect4141-5-7-6-5"
           inkscape:original-d="m 335.29783,1521.6338 c 0,0 -19.9,-571.645 171.0365,-550.38604 180.5077,20.09778 43.2873,543.14714 43.2873,543.14714 l 964.64497,0.573 c 0,0 -497.0792,-180.7395 -517.84797,-397.3148 -19.6193,-204.58926 203.42117,-460.12424 408.94477,-461.4537 198.2701,-1.28254 400.238,440.0268 400.238,440.0268 l 2.1414,429.4525 -0.4191,-431.7824 c 0,0 219.5638,-447.25453 422.8443,-439.9832 211.1877,7.55417 433.8577,277.90328 405.5104,487.3161 -28.6242,211.4586 -525.559,365.5059 -525.559,365.5059"
           inkscape:connector-curvature="0"
           sodipodi:nodetypes="caccaacccaac" />
        <path
           style="color:#000000;font-style:normal;font-variant:normal;font-weight:normal;font-stretch:normal;font-size:medium;line-height:normal;font-family:sans-serif;text-indent:0;text-align:start;text-decoration:none;text-decoration-line:none;text-decoration-style:solid;text-decoration-color:#000000;letter-spacing:normal;word-spacing:normal;text-transform:none;direction:ltr;block-progression:tb;writing-mode:lr-tb;baseline-shift:baseline;text-anchor:start;white-space:normal;clip-rule:nonzero;display:inline;overflow:visible;visibility:visible;opacity:1;isolation:auto;mix-blend-mode:normal;color-interpolation:sRGB;color-interpolation-filters:linearRGB;solid-color:#000000;solid-opacity:1;fill:#000000;fill-opacity:1;fill-rule:evenodd;stroke:none;stroke-width:70;stroke-linecap:round;stroke-linejoin:round;stroke-miterlimit:4;stroke-dasharray:none;stroke-dashoffset:0;stroke-opacity:1;color-rendering:auto;image-rendering:auto;shape-rendering:auto;text-rendering:auto;enable-background:accumulate"
           d="m -1998.3867,-576.9043 c -118.4645,2.87925 -234.5934,50.0651 -321.211,131.21875 -50.5747,47.38449 -90.1532,105.6019 -116.5195,169.3086 -20.6574,-52.28643 -50.3906,-101.0108 -88.3613,-142.9375 -89.3168,-98.62216 -220.3057,-156.10561 -353.3574,-155.07032 -137.1642,1.0673 -270.3764,64.07443 -360.1368,167.18165 -89.675,103.00924 -133.3573,242.04454 -121.6718,377.646479 11.4162,132.478211 75.0506,258.616431 174.8144,346.525391 24.7365,21.79703 51.5338,41.07712 79.8613,57.69336 l -594.6738,-5.4375 c 23.6012,-22.18622 44.1983,-47.58356 60.9063,-75.50586 a 35.0035,35.0035 0 0 0 0,-0.002 c 37.3402,-62.4032 54.5553,-135.92017 48.8027,-208.414066 -5.7526,-72.493869 -34.3458,-142.376166 -81.0605,-198.109374 -46.7148,-55.73317 -110.5284,-96.09657 -180.9024,-114.42578 -86.9305,-22.64145 -181.2324,-10.63905 -259.7207,33.05469 -78.4884,43.69371 -138.3689,117.523191 -164.9219,203.3398394 -26.5528,85.8166236 -18.8327,180.5656106 21.2637,260.9511706 40.0963,80.38558 111.1412,143.54706 195.668,173.95703 a 35.0035,35.0035 0 1 0 23.6972,-65.86523 c -67.0144,-24.10959 -124.9355,-75.60484 -156.7246,-139.33594 -31.7891,-63.73113 -38.0847,-140.978578 -17.0332,-209.015624 21.0517,-68.037024 69.8726,-128.229909 132.0996,-162.871096 62.227,-34.64118 139.1093,-44.42516 208.0293,-26.47461 55.9822,14.58079 107.7351,47.31684 144.8965,91.652346 37.1613,44.335464 60.3516,101.011151 64.9278,158.679688 4.5761,57.668506 -9.3859,117.294126 -39.0899,166.935546 -29.7041,49.64145 -75.647,90.13001 -128.6289,113.35742 a 35.0035,35.0035 0 0 0 13.7344,67.05274 l 936.0781,8.55859 a 35.0035,35.0035 0 0 0 0.2773,0.002 l 21.2344,0.0254 c 11.7221,0.38339 23.4578,0.47428 35.2012,0.0449 l 0.3945,0 0,-0.006 c 0.4839,-0.0181 0.9674,-0.004 1.4512,-0.0234 a 35.0035,35.0035 0 0 0 -1.3633,-69.9707 l -34.4687,-0.043 c -103.404,-3.74446 -206.1096,-43.99068 -283.6582,-112.32422 -85.805,-75.60882 -141.5327,-186.075615 -151.3516,-300.017579 -10.0379,-116.482701 28.2706,-237.846981 104.7285,-325.673831 76.3727,-87.72888 192.0378,-142.24311 307.8848,-143.14453 112.3079,-0.87388 225.5361,48.81628 300.9277,132.0625 63.678,70.31221 100.7268,165.11968 103.5371,260.17188 -0.031,0.70971 -0.1088,1.41503 -0.1367,2.125 a 35.0035,35.0035 0 0 0 -0.027,1.40234 l 0.023,25.78125 c -0.3524,7.691407 -0.8876,15.370643 -1.707,23.019531 a 35.0035,35.0035 0 0 0 -0.1992,3.902344 l 2.3418,471.533205 0,0.14258 a 35.0035,35.0035 0 0 0 70,-0.20508 l 0,-0.14258 0,-0.0312 -0.4356,-497.697266 c 0.3999,-9.74588 0.4435,-19.488274 0.2285,-29.224614 5.317,-106.03119 53.5373,-210.48032 131,-283.05664 78.5018,-73.54984 187.7163,-115.09074 295.2539,-112.30468 120.0836,3.11108 239.0127,62.01459 315.461,155.02734 76.4991,93.07475 111.4256,220.70846 94.2578,340.236329 -17.1938,119.708711 -86.5685,232.384991 -185.7149,301.636721 -99.1463,69.25171 -228.8147,95.6016 -347.1269,70.54101 a 35.0035,35.0035 0 1 0 -14.5059,68.48047 c 137.969,29.22422 286.098,-0.87737 401.7168,-81.63476 115.6188,-80.7574 194.8676,-209.47282 214.918,-349.0703162 20.0317,-139.4669338 -19.8266,-285.5734638 -109.4668,-394.6367138 -89.6913,-109.12526 -226.2453,-176.89119 -367.7266,-180.55665 -7.9103,-0.20493 -15.8172,-0.21148 -23.7148,-0.0195 z"
           id="path4139-0-3-5-1-9"
           inkscape:connector-curvature="0" />
        <path
           style="color:#000000;font-style:normal;font-variant:normal;font-weight:normal;font-stretch:normal;font-size:medium;line-height:normal;font-family:sans-serif;text-indent:0;text-align:start;text-decoration:none;text-decoration-line:none;text-decoration-style:solid;text-decoration-color:#000000;letter-spacing:normal;word-spacing:normal;text-transform:none;direction:ltr;block-progression:tb;writing-mode:lr-tb;baseline-shift:baseline;text-anchor:start;white-space:normal;clip-rule:nonzero;display:inline;overflow:visible;visibility:visible;opacity:1;isolation:auto;mix-blend-mode:normal;color-interpolation:sRGB;color-interpolation-filters:linearRGB;solid-color:#000000;solid-opacity:1;fill:#000000;fill-opacity:1;fill-rule:evenodd;stroke:none;stroke-width:200;stroke-linecap:round;stroke-linejoin:round;stroke-miterlimit:4;stroke-dasharray:none;stroke-dashoffset:0;stroke-opacity:1;color-rendering:auto;image-rendering:auto;shape-rendering:auto;text-rendering:auto;enable-background:accumulate"
           d="m 5100.6484,-670.09375 c -101.1446,2.37515 -200.0719,38.65736 -279.0527,104.40234 -24.3051,20.23199 -46.0876,42.91575 -65.3691,67.39063 -15.659,-19.28981 -32.9554,-37.38462 -51.8418,-53.9961 -98.744,-86.84968 -231.7061,-126.32801 -361.8457,-107.43554 -137.2041,19.91802 -255.869,101.82145 -329.4473,214.59765 -73.0242,111.92696 -98.1665,246.71742 -80.4961,375.029301 15.8066,114.778497 65.3423,222.902309 141.209,309.871089 l -336.8399,-0.19921 c 28.2993,-60.6801 40.6004,-127.85988 35.2461,-195.041019 -6.4064,-80.384744 -37.6876,-156.815321 -89.4765,-218.626951 -51.7888,-61.81151 -121.5608,-105.99071 -199.5821,-126.37305 -96.657,-25.25076 -199.4779,-12.25427 -286.8125,36.25195 -87.3345,48.50624 -152.709,128.92556 -182.3554,224.326176 -29.6464,95.400543 -21.3682,198.709464 23.0918,288.171874 44.4598,89.46223 121.8055,158.44771 215.75,192.42773 a 100.01,100.01 0 1 0 68.0273,-188.07617 c -43.9572,-15.89946 -83.8726,-51.49928 -104.6758,-93.35937 -20.803,-41.85993 -25.0749,-95.171926 -11.2031,-139.810549 13.8718,-44.638547 47.6082,-86.141507 88.4727,-108.83789 40.8644,-22.696391 93.9258,-29.402911 139.1523,-17.587891 36.9475,9.652196 72.307,32.041145 96.832,61.3125 24.525,29.271252 40.3764,68.003551 43.4102,106.070312 3.0339,38.06667 -6.4834,78.821198 -26.0625,111.607418 -19.5792,32.78631 -50.9442,60.49457 -85.8965,75.87696 a 100.01,100.01 0 0 0 40.2207,191.52734 l 964.6445,0.57227 a 100.01,100.01 0 0 0 11.2969,-199.36524 c -85.5254,-9.67168 -169.5188,-49.51793 -231.1133,-109.63672 -61.5944,-60.118806 -103.4627,-143.120905 -115.205,-228.386715 -11.4684,-83.276155 6.185,-171.507595 49.8672,-238.460935 43.1281,-66.1041 116.5124,-115.18845 190.6777,-125.95508 69.7301,-10.12278 148.1174,13.15065 201.0254,59.68555 52.908,46.53492 85.9982,121.30993 84.8593,191.76171 a 100.01,100.01 0 0 0 -0.012,2 l 2.1407,559.45118 a 100.01,100.01 0 0 0 200,-0.45703 l -0.42,-561.78125 a 100.01,100.01 0 0 0 -0.021,-1.99219 c -1.5178,-73.48839 34.2122,-151.81419 90.705,-198.83985 56.4929,-47.02565 140.0022,-67.95551 211.9961,-53.13281 75.1296,15.46829 147.0442,70.64599 186.7207,141.33399 40.2221,71.65988 52.2849,163.3025 35.1914,248.292965 -16.3131,81.1105138 -58.6532,158.502329 -118.1601,215.982425 -59.5069,57.48006 -138.3184,97.11378 -219.9453,110.60742 a 100.01,100.01 0 1 0 32.6191,197.32226 c 122.5363,-20.2563 236.947,-77.79242 326.2773,-164.08007 89.3303,-86.28765 150.7924,-198.635408 175.2813,-320.396488 25.9053,-128.803712 9.6597,-267.113692 -56.8574,-385.621092 -67.0627,-119.47929 -182.3313,-210.82361 -320.7969,-239.33203 -33.5508,-6.90772 -67.5117,-9.88352 -101.2266,-9.0918 z"
           id="path4139-0-3-5-1-7"
           inkscape:connector-curvature="0" />
      </g>
    </g>
  </g>
</svg>
