<?xml version="1.0" encoding="UTF-8" standalone="no"?>
<!-- Created with Inkscape (http://www.inkscape.org/) -->

<svg
   xmlns:dc="http://purl.org/dc/elements/1.1/"
   xmlns:cc="http://creativecommons.org/ns#"
   xmlns:rdf="http://www.w3.org/1999/02/22-rdf-syntax-ns#"
   xmlns:svg="http://www.w3.org/2000/svg"
   xmlns="http://www.w3.org/2000/svg"
   xmlns:sodipodi="http://sodipodi.sourceforge.net/DTD/sodipodi-0.dtd"
   xmlns:inkscape="http://www.inkscape.org/namespaces/inkscape"
   width="2000"
   height="2048"
   id="svg2992"
   version="1.1"
   inkscape:version="0.91 r13725"
   sodipodi:docname="ി.svg">
  <defs
     id="defs5498">
    <inkscape:path-effect
       effect="spiro"
       id="path-effect3801"
       is_visible="true" />
    <inkscape:path-effect
       effect="spiro"
       id="path-effect4976"
       is_visible="true" />
    <inkscape:path-effect
       effect="spiro"
       id="path-effect4976-5"
       is_visible="true" />
    <inkscape:path-effect
       effect="spiro"
       id="path-effect4976-5-6"
       is_visible="true" />
    <inkscape:path-effect
       effect="spiro"
       id="path-effect4976-5-65"
       is_visible="true" />
    <inkscape:path-effect
       effect="spiro"
       id="path-effect4976-5-65-3"
       is_visible="true" />
    <inkscape:path-effect
       effect="spiro"
       id="path-effect4976-5-65-3-8"
       is_visible="true" />
    <inkscape:path-effect
       effect="spiro"
       id="path-effect4976-5-65-3-8-5"
       is_visible="true" />
    <inkscape:path-effect
       effect="spiro"
       id="path-effect4976-5-65-3-2"
       is_visible="true" />
    <inkscape:path-effect
       effect="spiro"
       id="path-effect4976-5-65-3-4"
       is_visible="true" />
    <inkscape:path-effect
       effect="spiro"
       id="path-effect4976-5-65-3-4-5"
       is_visible="true" />
  </defs>
  <sodipodi:namedview
     inkscape:window-height="871"
     inkscape:window-width="1600"
     inkscape:pageshadow="2"
     inkscape:pageopacity="0.0"
     borderopacity="1.0"
     bordercolor="#666666"
     pagecolor="#ffffff"
     id="base"
     showgrid="true"
     showguides="true"
     inkscape:guide-bbox="true"
     inkscape:zoom="0.32102648"
     inkscape:cx="1641.5819"
     inkscape:cy="286.11349"
     inkscape:window-x="1600"
     inkscape:window-y="0"
     inkscape:current-layer="layer1"
     inkscape:window-maximized="1">
    <sodipodi:guide
       orientation="horizontal"
       position="0,600"
       id="guide5596" />
    <inkscape:grid
       type="xygrid"
       id="grid3769"
       empspacing="3"
       visible="true"
       enabled="true"
       snapvisiblegridlinesonly="true"
       spacingx="4px"
       units="px"
       dotted="true"
       spacingy="4px" />
    <sodipodi:guide
       orientation="0,1"
       position="-1040,1600"
       id="guide2985" />
  </sodipodi:namedview>
  <metadata
     id="metadata5594">
    <rdf:RDF>
      <cc:Work
         rdf:about="">
        <dc:format>image/svg+xml</dc:format>
        <dc:type
           rdf:resource="http://purl.org/dc/dcmitype/StillImage" />
        <dc:title />
      </cc:Work>
    </rdf:RDF>
  </metadata>
  <g
     inkscape:label="Layer 1"
     inkscape:groupmode="layer"
     id="layer1"
     transform="translate(0,1048)">
    <path
       style="color:#000000;font-style:normal;font-variant:normal;font-weight:normal;font-stretch:normal;font-size:medium;line-height:normal;font-family:sans-serif;text-indent:0;text-align:start;text-decoration:none;text-decoration-line:none;text-decoration-style:solid;text-decoration-color:#000000;letter-spacing:normal;word-spacing:normal;text-transform:none;direction:ltr;block-progression:tb;writing-mode:lr-tb;baseline-shift:baseline;text-anchor:start;white-space:normal;clip-rule:nonzero;display:inline;overflow:visible;visibility:visible;opacity:1;isolation:auto;mix-blend-mode:normal;color-interpolation:sRGB;color-interpolation-filters:linearRGB;solid-color:#000000;solid-opacity:1;fill:#000000;fill-opacity:1;fill-rule:evenodd;stroke:none;stroke-width:140;stroke-linecap:round;stroke-linejoin:round;stroke-miterlimit:4;stroke-dasharray:none;stroke-dashoffset:0;stroke-opacity:1;color-rendering:auto;image-rendering:auto;shape-rendering:auto;text-rendering:auto;enable-background:accumulate"
       d="m 359.71094,-1048.6719 c -97.65084,1.0418 -192.14192,41.595 -260.091799,112.2969 -72.47988,75.41541 -109.4867047,179.64459 -100.791016,283.88086 a 70.007,70.007 0 1 0 139.515625,-11.63867 c -5.21901,-62.56087 18.71363,-129.9674 62.21484,-175.23047 43.50121,-45.26307 109.90631,-71.85347 172.625,-69.1211 41.90248,1.82551 84.46421,15.99402 120.31446,39.65626 35.92362,23.71066 66.59389,57.77004 88.49218,96.98632 21.96174,39.32991 35.98141,85.10094 43.22852,133.23242 7.25766,48.20158 7.91473,100.29949 8.03906,155.36329 l 1.83594,813.01562 a 70.007,70.007 0 1 0 140,-0.31641 l -1.83594,-813.01562 c -0.12558,-55.61903 -0.37759,-114.6428 -9.59961,-175.89062 -9.23257,-61.31792 -27.43504,-123.33682 -59.43554,-180.64454 -32.06395,-57.42131 -77.15126,-108.31404 -133.60352,-145.57422 -56.52565,-37.30862 -122.66605,-59.68782 -191.3418,-62.67972 -6.5312,-0.2845 -13.05635,-0.3897 -19.5664,-0.3203 z"
       id="path4974-2-2"
       inkscape:connector-curvature="0" />
    <path
       style="fill:none;fill-rule:evenodd;stroke:#000000;stroke-width:140;stroke-linecap:round;stroke-linejoin:round;stroke-miterlimit:4;stroke-dasharray:none;stroke-opacity:1"
       d="m -1040.4888,-740.97189 c 24.7012,-67.45986 73.09667,-125.97707 134.7225,-162.8991 61.62584,-36.92204 136.05232,-51.99147 207.18704,-41.95 48.1129,6.79168 94.60545,24.87991 134.5912,52.48639 39.98576,27.60649 73.26918,64.64887 97.33557,106.86009 24.0664,42.21122 38.83768,89.33776 46.43447,137.33012 7.59679,47.99237 8.066,96.79166 8.17106,145.38145 l 1.8357,849.01511"
       id="path4974-2-2-0"
       inkscape:path-effect="#path-effect4976-5-65-3"
       inkscape:original-d="m -1040.4888,-740.97189 c 0,0 212.48702,-234.87427 341.90954,-204.8491 171.05643,39.68396 285.58831,5.46197 286.5323,442.05805 l 1.8357,849.01511"
       inkscape:connector-curvature="0"
       sodipodi:nodetypes="casc" />
    <path
       style="fill:none;fill-rule:evenodd;stroke:#000000;stroke-width:70;stroke-linecap:round;stroke-linejoin:round;stroke-miterlimit:4;stroke-dasharray:none;stroke-opacity:1"
       d="m -1953.0211,-681.15352 c -6.9816,-87.58641 25.2165,-177.56741 86.1805,-240.8407 60.964,-63.27329 149.6863,-98.79308 237.4717,-95.07118 58.0816,2.4625 115.2038,21.55293 163.7815,53.48649 48.5776,31.93356 88.4532,76.48029 116.8705,127.1951 28.4173,50.7148 45.4026,107.31501 54.0907,164.79591 8.6881,57.4809 9.1693,115.84691 9.3009,173.98054 0.1545,68.2384 0.3089,136.47679 0.4634,204.71519 0.4893,216.149457 0.9785,432.29891 1.4678,648.44837"
       id="path4974-2-2-0-1"
       inkscape:path-effect="#path-effect4976-5-65-3-8"
       inkscape:original-d="m -1953.0211,-681.15352 c 0,0 168.603,-350.00378 323.6522,-335.91188 207.1928,18.8311 343.0065,61.30201 344.0436,519.45804 l 0.4634,204.71519 1.4678,648.44837"
       inkscape:connector-curvature="0"
       sodipodi:nodetypes="cascc" />
    <path
       style="color:#000000;font-style:normal;font-variant:normal;font-weight:normal;font-stretch:normal;font-size:medium;line-height:normal;font-family:sans-serif;text-indent:0;text-align:start;text-decoration:none;text-decoration-line:none;text-decoration-style:solid;text-decoration-color:#000000;letter-spacing:normal;word-spacing:normal;text-transform:none;direction:ltr;block-progression:tb;writing-mode:lr-tb;baseline-shift:baseline;text-anchor:start;white-space:normal;clip-rule:nonzero;display:inline;overflow:visible;visibility:visible;opacity:1;isolation:auto;mix-blend-mode:normal;color-interpolation:sRGB;color-interpolation-filters:linearRGB;solid-color:#000000;solid-opacity:1;fill:#000000;fill-opacity:1;fill-rule:evenodd;stroke:none;stroke-width:70;stroke-linecap:round;stroke-linejoin:round;stroke-miterlimit:4;stroke-dasharray:none;stroke-dashoffset:0;stroke-opacity:1;color-rendering:auto;image-rendering:auto;shape-rendering:auto;text-rendering:auto;enable-background:accumulate"
       d="m -2199.8725,-352.31049 c -108.7349,0.2671 -216.1971,54.38118 -279.7853,142.82639 -49.2544,67.72228 -73.6662,153.548133 -65.6795,237.034943 3.0347,21.70185 27.7372,36.51231 48.2807,28.81556 17.7615,-5.46891 28.1053,-25.14416 24.72,-43.0463 -5.8495,-95.79001 41.5395,-194.398643 123.172,-246.167393 62.1964,-40.5278 140.8122,-55.79904 213.2425,-38.22217 64.9516,14.84377 123.3553,53.2381 165.0087,104.78911 55.0244,66.786453 80.4591,152.917813 88.1536,237.868093 6.6108,73.982687 3.9151,148.605467 4.7608,222.910137 0.6636,255.57537 0.9846,511.15772 1.8629,766.72872 1.2148,21.956 24.7596,38.7814 45.9098,32.6813 18.2781,-4.1028 30.1511,-23.1808 27.9421,-41.4156 -0.7653,-296.04848 -1.1473,-592.09893 -2.1544,-888.14611 -0.5621,-84.625747 -7.7153,-170.6739473 -37.5034,-250.567241 -32.4934,-89.841739 -94.6606,-170.190189 -178.1304,-217.896749 -54.3993,-31.27573 -116.9676,-48.55217 -179.8001,-48.19269 z"
       id="path4974-2-2-0-1-6"
       inkscape:connector-curvature="0" />
    <path
       style="color:#000000;font-style:normal;font-variant:normal;font-weight:normal;font-stretch:normal;font-size:medium;line-height:normal;font-family:sans-serif;text-indent:0;text-align:start;text-decoration:none;text-decoration-line:none;text-decoration-style:solid;text-decoration-color:#000000;letter-spacing:normal;word-spacing:normal;text-transform:none;direction:ltr;block-progression:tb;writing-mode:lr-tb;baseline-shift:baseline;text-anchor:start;white-space:normal;clip-rule:nonzero;display:inline;overflow:visible;visibility:visible;opacity:1;isolation:auto;mix-blend-mode:normal;color-interpolation:sRGB;color-interpolation-filters:linearRGB;solid-color:#000000;solid-opacity:1;fill:#000000;fill-opacity:1;fill-rule:evenodd;stroke:none;stroke-width:140;stroke-linecap:round;stroke-linejoin:round;stroke-miterlimit:4;stroke-dasharray:none;stroke-dashoffset:0;stroke-opacity:1;color-rendering:auto;image-rendering:auto;shape-rendering:auto;text-rendering:auto;enable-background:accumulate"
       d="m 1226.7734,-1051.5918 c -71.2829,-0.8227 -142.0941,18.0904 -203.6308,54.95899 -75.7375,45.37677 -134.12104,115.97149 -164.47854,198.8789 a 70.007,70.007 0 1 0 131.46485,48.13672 c 19.04489,-52.01224 57.45259,-98.45265 104.96679,-126.91992 47.5141,-28.46724 106.5802,-40.42762 161.4258,-32.68555 37.26,5.25968 73.7321,19.4641 104.6055,40.7793 30.839,21.29151 57.2552,50.53114 76.2949,83.92578 19.0671,33.44281 31.5931,72.46176 38.1054,113.60352 6.5208,41.19454 7.2062,86.34736 7.3106,134.58789 l 1.8359,849.01562 a 70.007,70.007 0 1 0 140,-0.30273 l -1.8359,-849.01563 c -0.1059,-48.93903 -0.3584,-101.38363 -9.0313,-156.17382 -8.681,-54.84297 -25.698,-110.07701 -54.7636,-161.05665 -29.0931,-51.0278 -69.2425,-95.87152 -118.375,-129.79296 -49.0983,-33.89776 -105.6124,-55.87166 -164.5782,-64.19536 -16.3919,-2.3139 -32.8665,-3.5542 -49.3164,-3.7441 z"
       id="path4974-2-2-0-17"
       inkscape:connector-curvature="0" />
    <path
       style="fill:none;fill-rule:evenodd;stroke:#000000;stroke-width:200;stroke-linecap:round;stroke-linejoin:round;stroke-miterlimit:4;stroke-dasharray:none;stroke-opacity:1"
       d="m 2345.1409,-791.23283 c 24.7012,-67.45985 73.0967,-125.97705 134.7225,-162.89909 61.6258,-36.92203 136.0523,-51.99148 207.187,-41.95 48.1129,6.79168 94.6055,24.87991 134.5912,52.48639 39.9858,27.60648 73.2692,64.64886 97.3356,106.86008 24.0664,42.21122 38.8377,89.33776 46.4344,137.33012 7.5968,47.99237 8.066,96.79166 8.1711,145.38145 l 1.8357,849.0151"
       id="path4974-2-2-0-2"
       inkscape:path-effect="#path-effect4976-5-65-3-4"
       inkscape:original-d="m 2345.1409,-791.23283 c 0,0 212.487,-234.87427 341.9095,-204.84909 171.0565,39.68395 285.5883,5.46196 286.5323,442.05804 l 1.8357,849.0151"
       inkscape:connector-curvature="0"
       sodipodi:nodetypes="casc" />
    <path
       style="color:#000000;font-style:normal;font-variant:normal;font-weight:normal;font-stretch:normal;font-size:medium;line-height:normal;font-family:sans-serif;text-indent:0;text-align:start;text-decoration:none;text-decoration-line:none;text-decoration-style:solid;text-decoration-color:#000000;letter-spacing:normal;word-spacing:normal;text-transform:none;direction:ltr;block-progression:tb;writing-mode:lr-tb;baseline-shift:baseline;text-anchor:start;white-space:normal;clip-rule:nonzero;display:inline;overflow:visible;visibility:visible;opacity:1;isolation:auto;mix-blend-mode:normal;color-interpolation:sRGB;color-interpolation-filters:linearRGB;solid-color:#000000;solid-opacity:1;fill:#000000;fill-opacity:1;fill-rule:evenodd;stroke:none;stroke-width:200;stroke-linecap:round;stroke-linejoin:round;stroke-miterlimit:4;stroke-dasharray:none;stroke-dashoffset:0;stroke-opacity:1;color-rendering:auto;image-rendering:auto;shape-rendering:auto;text-rendering:auto;enable-background:accumulate"
       d="m 2628.5723,511.31641 c -76.8298,-0.91784 -152.9088,19.4275 -219.3594,59.24023 -81.7853,49.00026 -144.4488,124.77103 -177.2305,214.29883 a 100.01,100.01 0 1 0 187.8067,68.76758 c 16.6207,-45.3919 50.7485,-86.65815 92.2148,-111.50196 41.4663,-24.84379 93.9499,-35.46951 141.8145,-28.71289 32.6088,4.60311 64.7841,17.14095 91.7519,35.75977 26.919,18.58509 50.3939,44.48154 67.2793,74.09765 16.9246,29.68491 28.4895,65.22976 34.5371,103.43555 6.0596,38.28119 6.8374,81.87203 6.9414,129.96293 l 1.836,849.0156 a 100.01,100.01 0 1 0 199.998,-0.4336 l -1.834,-849.0156 c -0.1062,-49.0888 -0.2683,-103.09531 -9.4023,-160.79886 -9.1458,-57.77895 -27.1239,-116.48708 -58.332,-171.22461 -31.2475,-54.80634 -74.3401,-102.99518 -127.3926,-139.62305 -53.0036,-36.59415 -113.8108,-60.23263 -177.4278,-69.21289 -17.7009,-2.49868 -35.4712,-3.84288 -53.2011,-4.05468 z"
       id="path4974-2-2-0-2-6"
       inkscape:connector-curvature="0" />
  </g>
</svg>
