<?xml version="1.0" encoding="UTF-8" standalone="no"?>
<!-- Created with Inkscape (http://www.inkscape.org/) -->

<svg
   xmlns:dc="http://purl.org/dc/elements/1.1/"
   xmlns:cc="http://creativecommons.org/ns#"
   xmlns:rdf="http://www.w3.org/1999/02/22-rdf-syntax-ns#"
   xmlns:svg="http://www.w3.org/2000/svg"
   xmlns="http://www.w3.org/2000/svg"
   xmlns:sodipodi="http://sodipodi.sourceforge.net/DTD/sodipodi-0.dtd"
   xmlns:inkscape="http://www.inkscape.org/namespaces/inkscape"
   width="2000"
   height="2048"
   id="svg2992"
   version="1.1"
   inkscape:version="0.91 r13725"
   sodipodi:docname="ീ.svg">
  <defs
     id="defs5498">
    <inkscape:path-effect
       effect="spiro"
       id="path-effect3801"
       is_visible="true" />
    <inkscape:path-effect
       effect="spiro"
       id="path-effect4892"
       is_visible="true" />
    <inkscape:path-effect
       effect="spiro"
       id="path-effect4892-5"
       is_visible="true" />
    <inkscape:path-effect
       effect="spiro"
       id="path-effect4892-5-1"
       is_visible="true" />
    <inkscape:path-effect
       effect="spiro"
       id="path-effect4892-5-6"
       is_visible="true" />
    <inkscape:path-effect
       effect="spiro"
       id="path-effect4892-5-6-1"
       is_visible="true" />
    <inkscape:path-effect
       effect="spiro"
       id="path-effect4892-5-2"
       is_visible="true" />
    <inkscape:path-effect
       effect="spiro"
       id="path-effect4892-5-4"
       is_visible="true" />
  </defs>
  <sodipodi:namedview
     inkscape:window-height="851"
     inkscape:window-width="1600"
     inkscape:pageshadow="2"
     inkscape:pageopacity="0.0"
     borderopacity="1.0"
     bordercolor="#666666"
     pagecolor="#ffffff"
     id="base"
     showgrid="true"
     showguides="true"
     inkscape:guide-bbox="true"
     inkscape:zoom="0.32102648"
     inkscape:cx="541.75084"
     inkscape:cy="1117.0605"
     inkscape:window-x="1599"
     inkscape:window-y="-1"
     inkscape:current-layer="layer1"
     inkscape:window-maximized="1">
    <sodipodi:guide
       orientation="horizontal"
       position="0,600"
       id="guide5596" />
    <inkscape:grid
       type="xygrid"
       id="grid3769"
       empspacing="3"
       visible="true"
       enabled="true"
       snapvisiblegridlinesonly="true"
       spacingx="4px"
       units="px"
       dotted="true"
       spacingy="4px" />
    <sodipodi:guide
       orientation="0,1"
       position="-1040,1600"
       id="guide2985" />
  </sodipodi:namedview>
  <metadata
     id="metadata5594">
    <rdf:RDF>
      <cc:Work
         rdf:about="">
        <dc:format>image/svg+xml</dc:format>
        <dc:type
           rdf:resource="http://purl.org/dc/dcmitype/StillImage" />
        <dc:title />
      </cc:Work>
    </rdf:RDF>
  </metadata>
  <g
     inkscape:label="Layer 1"
     inkscape:groupmode="layer"
     id="layer1"
     transform="translate(0,1048)">
    <path
       style="fill:none;fill-rule:evenodd;stroke:#000000;stroke-width:140;stroke-linecap:round;stroke-linejoin:round;stroke-miterlimit:4;stroke-dasharray:none;stroke-opacity:1"
       d="m 262.01084,-943.38119 c 26.16732,6.96996 50.09127,22.12567 67.57256,42.80691 17.48129,20.68123 28.44132,46.795 30.9563,73.75764 3.08333,33.05574 -6.77379,67.23371 -27.37319,93.26933 -20.59941,26.03562 -51.79164,43.54637 -84.80113,47.09072 -33.00949,3.54434 -67.3917,-7.05564 -92.35903,-28.93763 -24.96732,-21.88199 -40.02385,-54.7962 -39.77284,-87.99448 0.19399,-25.65717 9.24016,-50.92462 24.05051,-71.8765 14.81036,-20.95189 35.20377,-37.67555 57.91079,-49.62207 45.41404,-23.89305 98.59445,-28.55276 149.85082,-26.08353 43.89651,2.11467 87.87143,9.28475 128.79077,25.31544 40.91934,16.0307 78.47763,41.18578 107.33628,74.33023 28.85865,33.14444 48.47671,73.88174 58.56867,116.65472 10.09195,42.77299 10.67288,87.1389 10.53671,131.08611 l -2.95448,953.48774"
       id="path4890-1"
       inkscape:path-effect="#path-effect4892-5"
       inkscape:original-d="m 262.01084,-943.38119 c 0,0 117.71707,69.44585 98.52886,116.56455 -30.85484,75.76733 -217.69856,100.78906 -244.30619,23.42794 -29.792528,-86.62113 141.12604,-160.49917 231.81212,-147.5821 152.60404,21.7365 306.08949,70.79017 305.23243,347.3865 l -2.95448,953.48774"
       inkscape:connector-curvature="0"
       sodipodi:nodetypes="caaasc" />
    <path
       style="color:#000000;font-style:normal;font-variant:normal;font-weight:normal;font-stretch:normal;font-size:medium;line-height:normal;font-family:sans-serif;text-indent:0;text-align:start;text-decoration:none;text-decoration-line:none;text-decoration-style:solid;text-decoration-color:#000000;letter-spacing:normal;word-spacing:normal;text-transform:none;direction:ltr;block-progression:tb;writing-mode:lr-tb;baseline-shift:baseline;text-anchor:start;white-space:normal;clip-rule:nonzero;display:inline;overflow:visible;visibility:visible;opacity:1;isolation:auto;mix-blend-mode:normal;color-interpolation:sRGB;color-interpolation-filters:linearRGB;solid-color:#000000;solid-opacity:1;fill:#000000;fill-opacity:1;fill-rule:evenodd;stroke:none;stroke-width:140;stroke-linecap:round;stroke-linejoin:round;stroke-miterlimit:4;stroke-dasharray:none;stroke-dashoffset:0;stroke-opacity:1;color-rendering:auto;image-rendering:auto;shape-rendering:auto;text-rendering:auto;enable-background:accumulate"
       d="m 1936.6597,-1050.3694 c -52.7009,-0.6335 -109.4308,6.1027 -163.8379,26.4668 -32.6586,12.2238 -64.8677,30.28607 -92.9101,54.74222 a 70.007,70.007 0 0 0 -11.209,10.35937 c -20.2175,19.76846 -37.7666,43.22095 -50.9844,70.73047 -61.1617,118.14636 10.4555,268.71705 144.2754,289.32032 140.1663,28.52225 266.5568,-102.42468 235.0664,-241.38282 -4.3545,-25.2848 -13.2892,-48.33701 -25.7441,-68.6914 66.0563,6.52226 129.854,49.82041 146.9453,108.89453 18.7734,66.02386 8.8598,148.21368 11.6855,242.85937 l -2.582,892.74805 a 70.007,70.007 0 1 0 140,0.4043 l 2.582,-893.06641 a 70.007,70.007 0 0 0 -0.035,-2.42969 c -2.5189,-79.0716 12.5292,-175.26273 -17.0488,-279.03125 a 70.007,70.007 0 0 0 -0.062,-0.21875 c -38.7375,-134.25333 -168.9934,-210.42801 -297.0098,-211.08981 l 3.1895,0.088 c -7.3457,-0.3732 -14.7916,-0.6127 -22.3203,-0.7032 z m -146.8242,186.10941 c 30.1007,-0.22467 65.0965,21.00592 69.4668,48.70312 a 70.007,70.007 0 0 0 1.1035,5.53126 c 8.5633,35.43723 -35.8838,81.80906 -71.4414,73.97265 a 70.007,70.007 0 0 0 -5.1035,-0.92773 c -33.4632,-4.81156 -57.5876,-56.83865 -41.6621,-87.09766 a 70.007,70.007 0 0 0 1.3555,-2.71875 c 5.5288,-11.71208 12.4999,-21.78557 20.9355,-30.57812 7.3109,-4.59172 16.0611,-6.81547 25.3457,-6.88477 z"
       id="path4890-1-0"
       inkscape:connector-curvature="0" />
    <path
       style="fill:none;fill-rule:evenodd;stroke:#000000;stroke-width:70;stroke-linecap:round;stroke-linejoin:round;stroke-miterlimit:4;stroke-dasharray:none;stroke-opacity:1"
       d="m -1964.0975,-879.91138 c 24.5682,-15.95477 54.4264,-23.6065 83.64,-21.4343 29.2135,2.1722 57.6118,14.15567 79.5502,33.56848 21.9384,19.41282 37.2888,46.14165 43.0001,74.8737 5.7113,28.73205 1.7501,59.29959 -11.0962,85.62682 -11.8927,24.37303 -31.3214,45.01955 -54.9759,58.28395 -23.6546,13.26439 -51.4354,19.07374 -78.413,16.30076 -26.9776,-2.77297 -53.0224,-14.13024 -73.346,-32.08658 -20.3237,-17.95634 -34.8146,-42.43384 -40.6863,-68.91032 -6.6103,-29.80672 -2.2607,-61.61082 10.3241,-89.42732 12.5849,-27.8165 33.1335,-51.69864 57.5977,-69.9645 48.9283,-36.53171 111.5181,-50.09006 172.5103,-53.00513 39.9777,-1.9107 80.5025,0.47546 118.9684,11.5316 38.4659,11.05613 74.5899,31.11064 102.7232,59.57784 28.1334,28.46721 47.6485,64.953 57.7045,103.69243 10.0559,38.73944 10.6772,79.21647 10.5614,119.23961 l -2.9545,1021.48774"
       id="path4890-1-03"
       inkscape:path-effect="#path-effect4892-5-6"
       inkscape:original-d="m -1964.0975,-879.91138 c 0,0 230.1351,93.18268 195.0941,172.6347 -33.4698,75.8894 -222.2288,52.61167 -247.4212,-26.41219 -32.4805,-101.88512 133.5582,-216.07619 240.4321,-212.39695 137.5717,4.73606 290.7575,17.44498 289.9575,294.04148 l -2.9545,1021.48774"
       inkscape:connector-curvature="0"
       sodipodi:nodetypes="caaasc" />
    <path
       style="color:#000000;font-style:normal;font-variant:normal;font-weight:normal;font-stretch:normal;font-size:medium;line-height:normal;font-family:sans-serif;text-indent:0;text-align:start;text-decoration:none;text-decoration-line:none;text-decoration-style:solid;text-decoration-color:#000000;letter-spacing:normal;word-spacing:normal;text-transform:none;direction:ltr;block-progression:tb;writing-mode:lr-tb;baseline-shift:baseline;text-anchor:start;white-space:normal;clip-rule:nonzero;display:inline;overflow:visible;visibility:visible;opacity:1;isolation:auto;mix-blend-mode:normal;color-interpolation:sRGB;color-interpolation-filters:linearRGB;solid-color:#000000;solid-opacity:1;fill:#000000;fill-opacity:1;fill-rule:evenodd;stroke:none;stroke-width:70;stroke-linecap:round;stroke-linejoin:round;stroke-miterlimit:4;stroke-dasharray:none;stroke-dashoffset:0;stroke-opacity:1;color-rendering:auto;image-rendering:auto;shape-rendering:auto;text-rendering:auto;enable-background:accumulate"
       d="m -1559.2969,452.81641 c -10.8134,-0.13408 -21.5527,0.0977 -32.1758,0.60547 -65.0209,3.10761 -134.7118,17.3112 -191.7793,59.91992 -28.6547,21.39464 -53.1634,49.58413 -68.5449,83.58203 a 35.0035,35.0035 0 0 0 -0,0 c -15.4663,34.18543 -21.0579,73.31877 -12.6055,111.43164 7.5199,33.90802 25.7188,64.62212 51.6836,87.5625 25.9547,22.93152 58.5736,37.14123 92.9414,40.67383 34.3548,3.53125 69.0605,-3.73985 99.1094,-20.58985 30.0376,-16.84375 54.2479,-42.5893 69.3125,-73.46289 16.285,-33.37449 21.2088,-71.37574 13.9687,-107.79883 -7.2401,-36.42304 -26.3219,-69.65247 -54.1328,-94.26171 -6.3879,-5.6525 -13.2116,-10.72787 -20.3203,-15.32618 7.8571,-0.797 15.7604,-1.43055 23.7109,-1.81054 37.4632,-1.79052 74.1506,0.58639 107.6289,10.20898 33.2578,9.55916 64.1172,26.88461 87.4981,50.54297 23.3115,23.58815 40.0888,54.62936 48.7207,87.88281 8.6543,33.34 9.554,70.75304 9.4394,110.34571 l -2.955,1021.48633 a 35.0035,35.0035 0 1 0 70,0.2031 l 2.955,-1021.48826 c 0.1171,-40.45364 -0.2261,-83.99588 -11.6835,-128.13477 -11.4801,-44.22543 -33.7323,-86.15373 -66.6875,-119.5 -32.8858,-33.27606 -74.2752,-56.06018 -117.9493,-68.61328 -32.59,-9.36726 -65.6926,-13.05676 -98.1328,-13.45898 z m -145.6328,114.95507 c 2.7005,-0.0289 5.3942,0.0551 8.0684,0.25391 21.3936,1.59075 42.8852,10.66056 58.9511,24.87695 16.066,14.21638 27.6828,34.44331 31.8653,55.48438 4.1825,21.04101 1.1849,44.17511 -8.2227,63.45508 -8.7208,17.87245 -23.3673,33.42044 -40.6386,43.10547 -17.2604,9.67878 -38.1164,14.0264 -57.7168,12.01171 -19.5874,-2.01334 -39.0575,-10.51885 -53.75,-23.5 -14.6826,-12.9723 -25.4678,-31.21287 -29.6915,-50.25781 -4.7682,-21.50057 -1.6603,-45.97624 8.043,-67.42383 7.0911,-15.67342 17.786,-30.23504 30.8301,-42.84179 15.4353,-9.57935 34.0002,-14.96847 52.2617,-15.16407 z"
       id="path4890-1-03-3"
       inkscape:connector-curvature="0" />
    <path
       style="opacity:1;fill:#ffffff;fill-opacity:1;fill-rule:evenodd;stroke:none;stroke-width:120;stroke-linecap:round;stroke-linejoin:round;stroke-miterlimit:4;stroke-dasharray:none;stroke-opacity:1"
       d="m 1248.4209,-826.81384 a 86.017532,89.769981 0 0 1 -86.0176,89.76998 86.017532,89.769981 0 0 1 -86.0175,-89.76998 86.017532,89.769981 0 0 1 86.0175,-89.76998 86.017532,89.769981 0 0 1 86.0176,89.76998 z"
       id="path4164" />
    <path
       style="color:#000000;font-style:normal;font-variant:normal;font-weight:normal;font-stretch:normal;font-size:medium;line-height:normal;font-family:sans-serif;text-indent:0;text-align:start;text-decoration:none;text-decoration-line:none;text-decoration-style:solid;text-decoration-color:#000000;letter-spacing:normal;word-spacing:normal;text-transform:none;direction:ltr;block-progression:tb;writing-mode:lr-tb;baseline-shift:baseline;text-anchor:start;white-space:normal;clip-rule:nonzero;display:inline;overflow:visible;visibility:visible;opacity:1;isolation:auto;mix-blend-mode:normal;color-interpolation:sRGB;color-interpolation-filters:linearRGB;solid-color:#000000;solid-opacity:1;fill:#000000;fill-opacity:1;fill-rule:evenodd;stroke:none;stroke-width:140;stroke-linecap:round;stroke-linejoin:round;stroke-miterlimit:4;stroke-dasharray:none;stroke-dashoffset:0;stroke-opacity:1;color-rendering:auto;image-rendering:auto;shape-rendering:auto;text-rendering:auto;enable-background:accumulate"
       d="m 1084.4961,-1020.1445 c -52.2041,-0.6144 -109.50505,6.174 -163.7754,34.72653 -31.24602,16.43902 -60.31951,39.81818 -82.47851,71.16602 -22.36721,31.6424 -36.57097,69.99192 -36.88672,111.7539 -0.41367,54.71116 22.98947,105.54516 63.63281,141.16602 40.49641,35.49207 93.09898,51.57135 145.96872,45.89453 52.6889,-5.65739 99.7666,-32.23398 132.2246,-73.25781 32.3534,-40.89143 46.9528,-91.96867 42.1739,-143.20313 -1.1508,-12.33674 -3.5367,-24.41333 -6.8457,-36.1914 9.6314,2.5666 18.9793,5.53171 27.9121,9.03125 31.3073,12.26508 59.4507,31.43064 80.0761,55.11914 20.5225,23.57019 35.5153,54.0558 43.2325,86.76367 7.7455,32.82812 8.8018,71.60869 8.6679,114.79297 l -2.955,953.48828 c -0.6991,39.06275 30.7102,71.1383 69.779,71.2593 39.0688,0.121 70.6761,-31.75938 70.219,-70.82571 l 2.9551,-953.48633 c 0.1385,-44.71016 0.032,-94.66104 -12.4063,-147.3789 -12.4668,-52.83812 -36.7113,-103.82819 -73.9062,-146.54688 -37.092,-42.6004 -84.0625,-73.74276 -134.5938,-93.53906 -50.1783,-19.65799 -101.7087,-27.68609 -150.957,-30.05859 -7.2261,-0.3481 -14.5794,-0.5861 -22.0371,-0.6738 z"
       id="path4890-1-2"
       inkscape:connector-curvature="0"
       sodipodi:nodetypes="sssssssscsssscscssssss" />
    <ellipse
       style="opacity:1;fill:#800000;fill-opacity:1;fill-rule:evenodd;stroke:none;stroke-width:120;stroke-linecap:round;stroke-linejoin:round;stroke-miterlimit:4;stroke-dasharray:none;stroke-opacity:1"
       id="path4208"
       cx="1007.8557"
       cy="-805.00891"
       rx="83.539963"
       ry="86.654968" />
  </g>
</svg>
