<?xml version="1.0" encoding="UTF-8" standalone="no"?>
<!-- Created with Inkscape (http://www.inkscape.org/) -->

<svg
   xmlns:dc="http://purl.org/dc/elements/1.1/"
   xmlns:cc="http://creativecommons.org/ns#"
   xmlns:rdf="http://www.w3.org/1999/02/22-rdf-syntax-ns#"
   xmlns:svg="http://www.w3.org/2000/svg"
   xmlns="http://www.w3.org/2000/svg"
   xmlns:sodipodi="http://sodipodi.sourceforge.net/DTD/sodipodi-0.dtd"
   xmlns:inkscape="http://www.inkscape.org/namespaces/inkscape"
   version="1.1"
   width="2000"
   height="2000"
   id="svg2992"
   inkscape:version="0.91 r13725"
   sodipodi:docname="àµ.svg">
  <sodipodi:namedview
     pagecolor="#ffffff"
     bordercolor="#666666"
     borderopacity="1"
     objecttolerance="10"
     gridtolerance="10"
     guidetolerance="10"
     inkscape:pageopacity="0"
     inkscape:pageshadow="2"
     inkscape:window-width="1366"
     inkscape:window-height="704"
     id="namedview7"
     showgrid="true"
     inkscape:zoom="0.1668772"
     inkscape:cx="-1320.9319"
     inkscape:cy="1060.4658"
     inkscape:window-x="-4"
     inkscape:window-y="0"
     inkscape:window-maximized="1"
     inkscape:current-layer="layer1"
     showguides="true"
     inkscape:guide-bbox="true">
    <inkscape:grid
       type="xygrid"
       id="grid2984" />
    <sodipodi:guide
       orientation="0,1"
       position="-2000,1600"
       id="guide2984" />
    <sodipodi:guide
       orientation="0,1"
       position="-2640,560"
       id="guide2986" />
  </sodipodi:namedview>
  <defs
     id="defs5498">
    <inkscape:path-effect
       effect="spiro"
       id="path-effect4140"
       is_visible="true" />
    <inkscape:path-effect
       effect="spiro"
       id="path-effect4140-8"
       is_visible="true" />
    <inkscape:path-effect
       effect="spiro"
       id="path-effect4140-8-7"
       is_visible="true" />
    <inkscape:path-effect
       effect="spiro"
       id="path-effect4140-8-7-8"
       is_visible="true" />
    <inkscape:path-effect
       effect="spiro"
       id="path-effect4140-8-7-7"
       is_visible="true" />
    <inkscape:path-effect
       effect="spiro"
       id="path-effect4140-8-7-7-6"
       is_visible="true" />
  </defs>
  <metadata
     id="metadata5594">
    <rdf:RDF>
      <cc:Work
         rdf:about="">
        <dc:format>image/svg+xml</dc:format>
        <dc:type
           rdf:resource="http://purl.org/dc/dcmitype/StillImage" />
        <dc:title />
      </cc:Work>
    </rdf:RDF>
  </metadata>
  <g
     transform="translate(0,1000)"
     id="layer1">
    <path
       style="fill:none;fill-rule:evenodd;stroke:#000000;stroke-width:140;stroke-linecap:round;stroke-linejoin:round;stroke-miterlimit:4;stroke-dasharray:none;stroke-opacity:1"
       d="m 401.36253,-545.32169 c 48.47387,9.62471 94.55926,31.05915 133.15183,61.92928 47.16256,37.72525 82.66946,89.0832 104.85741,145.25433 22.18795,56.17113 31.35531,117.03975 30.53172,177.42868 -1.64717,120.777859 -42.32499,237.550132 -89.69868,348.66151 -21.66646,50.81704 -44.83398,100.99209 -69.34903,150.49785 -20.20756,40.8072 -41.33112,81.16079 -63.34941,121.02014 m -77.9546,362.84493 c 26.92542,28.37896 61.32941,49.5985 98.77444,60.92163 37.44503,11.32314 77.84236,12.72305 115.98139,4.01916 38.13904,-8.70389 73.9294,-27.49095 102.75473,-53.93795 28.82533,-26.44701 50.61731,-60.49129 62.56514,-97.7417 13.26548,-41.35853 14.29628,-86.55936 2.92995,-128.47962 -11.36633,-41.92025 -35.08897,-80.40939 -67.42964,-109.40219 -32.34066,-28.9928 -73.18323,-48.38515 -116.09159,-55.12113 -42.90836,-6.73599 -87.72845,-0.79143 -127.39737,16.89691 -65.88391,29.37758 -115.88901,92.01264 -129.94585,162.7667 -14.05684,70.75406 8.20809,147.74714 57.8588,200.07819 z"
       id="path4138-4-1"
       inkscape:path-effect="#path-effect4140-8-7"
       inkscape:original-d="m 401.36253,-545.32169 c 73.15952,21.11811 105.44397,21.57651 133.15183,61.92928 126.96406,184.90605 86.27063,450.746768 45.69045,671.34452 -9.99325,54.32424 -44.9749,100.93083 -69.34903,150.49785 -20.09242,40.85976 -42.91836,88.89348 -63.34941,121.02014 m -77.9546,362.84493 c 93.17686,90.58074 347.517,39.06546 380.0757,-86.73886 C 784.17257,602.09655 572.43404,415.84924 441.63882,459.47014 324.66069,498.48297 281.13386,736.36064 369.55177,822.31503 Z"
       inkscape:connector-curvature="0"
       sodipodi:nodetypes="caaacaaaa" />
    <path
       style="color:#000000;font-style:normal;font-variant:normal;font-weight:normal;font-stretch:normal;font-size:medium;line-height:normal;font-family:sans-serif;text-indent:0;text-align:start;text-decoration:none;text-decoration-line:none;text-decoration-style:solid;text-decoration-color:#000000;letter-spacing:normal;word-spacing:normal;text-transform:none;direction:ltr;block-progression:tb;writing-mode:lr-tb;baseline-shift:baseline;text-anchor:start;white-space:normal;clip-rule:nonzero;display:inline;overflow:visible;visibility:visible;opacity:1;isolation:auto;mix-blend-mode:normal;color-interpolation:sRGB;color-interpolation-filters:linearRGB;solid-color:#000000;solid-opacity:1;fill:#000000;fill-opacity:1;fill-rule:evenodd;stroke:none;stroke-width:140;stroke-linecap:round;stroke-linejoin:round;stroke-miterlimit:4;stroke-dasharray:none;stroke-dashoffset:0;stroke-opacity:1;color-rendering:auto;image-rendering:auto;shape-rendering:auto;text-rendering:auto;enable-background:accumulate"
       d="M -660.61719 396.91016 A 70.007 70.007 0 0 0 -673.99023 535.76562 C -636.67597 543.17454 -600.63947 559.93598 -570.93164 583.69922 C -534.58604 612.772 -505.6226 654.00994 -487.45312 700.00781 C -469.19284 746.23565 -461.09229 798.09833 -461.81055 850.76367 C -463.25181 956.44381 -499.80229 1064.7925 -545.90625 1172.9258 C -567.03181 1222.4742 -589.64273 1271.4477 -613.59375 1319.8145 C -629.45779 1351.8504 -646.05742 1383.5159 -663.06641 1414.959 C -743.21487 1456.0861 -801.03232 1532.1692 -818.68555 1621.0254 C -837.38662 1715.1559 -809.004 1813.3031 -742.94922 1882.9238 C -707.52327 1920.2622 -662.92095 1947.77 -613.6543 1962.668 C -564.38764 1977.5659 -512.01768 1979.3815 -461.83789 1967.9297 C -411.6581 1956.4779 -365.25966 1932.1227 -327.33398 1897.3262 C -289.4083 1862.5297 -261.15735 1818.3954 -245.4375 1769.3848 C -227.96392 1714.9065 -226.62963 1656.4252 -241.60156 1601.207 C -256.5735 1545.9888 -287.26546 1496.1918 -329.86523 1458.002 C -372.465 1419.8121 -425.30841 1394.7204 -481.82812 1385.8477 C -484.4275 1385.4396 -487.0416 1385.2463 -489.64648 1384.9082 C -489.15286 1383.9141 -488.62732 1382.9361 -488.13477 1381.9414 C -463.05569 1331.2966 -439.3304 1279.9197 -417.12305 1227.834 C -368.47962 1113.7446 -323.67534 988.54941 -321.82227 852.67383 C -320.89334 784.56131 -331.12851 714.68865 -357.24414 648.57422 C -383.45059 582.22983 -425.50095 520.75077 -483.48047 474.37305 C -530.95778 436.39603 -587.09113 410.28777 -646.72461 398.44727 A 70.007 70.007 0 0 0 -660.61719 396.91016 z M -525.8457 1522.3398 C -518.33525 1522.4043 -510.86331 1523.0045 -503.53906 1524.1543 C -474.24207 1528.7535 -445.39994 1542.4484 -423.31836 1562.2441 C -401.23679 1582.0399 -384.48336 1609.2214 -376.72266 1637.8438 C -368.96195 1666.466 -369.69063 1698.3862 -378.74805 1726.625 C -386.92388 1752.1152 -402.25549 1776.0685 -421.98047 1794.166 C -441.70545 1812.2635 -466.88803 1825.4835 -492.98633 1831.4395 C -519.0846 1837.3955 -547.50941 1836.4105 -573.13281 1828.6621 C -598.7562 1820.9138 -622.96183 1805.984 -641.38672 1786.5645 C -674.63336 1751.523 -690.78175 1695.6843 -681.36914 1648.3066 C -672.79005 1605.1244 -641.87515 1563.6297 -603.06836 1541.7129 A 70.007 70.007 0 0 0 -573.31055 1529.1543 C -557.9997 1524.5683 -541.84832 1522.2024 -525.8457 1522.3398 z "
       transform="translate(0,-1000)"
       id="path4138-4-1-2" />
    <path
       style="fill:none;fill-rule:evenodd;stroke:#000000;stroke-width:70;stroke-linecap:round;stroke-linejoin:round;stroke-miterlimit:4;stroke-dasharray:none;stroke-opacity:1"
       d="m -1764.6965,-577.07745 c 50.908,9.97869 99.3306,32.40077 139.8718,64.76763 49.3734,39.41821 86.5715,93.10584 109.8363,151.84483 23.2649,58.73899 32.9077,122.40765 32.0806,185.58074 -1.654,126.346183 -44.2125,248.519228 -93.9206,364.68808 -22.7461,53.15813 -47.0943,105.62802 -72.8489,157.39548 -21.233,42.67894 -43.4226,84.88198 -66.5465,126.56676 m -81.8888,349.47484 c 25.0179,32.44272 58.8374,58.02984 96.8607,73.28279 38.0233,15.25296 80.15,20.13145 120.653,13.97225 40.5029,-6.1592 79.2752,-23.33982 111.0456,-49.20616 31.7703,-25.86634 56.455,-60.35005 70.698,-98.7631 15.8472,-42.73948 18.6463,-90.2189 7.9307,-134.52434 -10.7156,-44.30544 -34.9026,-85.25808 -68.5295,-116.03189 -33.627,-30.7738 -76.558,-51.24455 -121.6375,-58.00017 -45.0795,-6.75562 -92.1254,0.23116 -133.296,19.79578 -61.9978,29.46185 -109.4215,87.96765 -125.4138,154.72072 -15.9923,66.75307 -0.2282,140.39703 41.6888,194.75412 z"
       id="path4138-4-1-9"
       inkscape:path-effect="#path-effect4140-8-7-7"
       inkscape:original-d="m -1764.6965,-577.07745 c 76.8517,22.08599 110.7655,22.5654 139.8718,64.76763 133.3716,193.38068 90.6245,471.405439 47.9963,702.11365 -10.4975,56.81403 -47.2447,105.5567 -72.8489,157.39548 -21.1064,42.73245 -45.0844,92.96762 -66.5465,126.56676 m -81.8888,349.47484 c 91.0957,99.11096 360.1054,68.08225 399.2573,-60.71422 41.4661,-136.40966 -179.2125,-330.52111 -315.5323,-288.76062 -114.5343,35.08665 -164.7866,261.2808 -83.725,349.47484 z"
       inkscape:connector-curvature="0"
       sodipodi:nodetypes="caaacaaaa" />
    <path
       style="color:#000000;font-style:normal;font-variant:normal;font-weight:normal;font-stretch:normal;font-size:medium;line-height:normal;font-family:sans-serif;text-indent:0;text-align:start;text-decoration:none;text-decoration-line:none;text-decoration-style:solid;text-decoration-color:#000000;letter-spacing:normal;word-spacing:normal;text-transform:none;direction:ltr;block-progression:tb;writing-mode:lr-tb;baseline-shift:baseline;text-anchor:start;white-space:normal;clip-rule:nonzero;display:inline;overflow:visible;visibility:visible;opacity:1;isolation:auto;mix-blend-mode:normal;color-interpolation:sRGB;color-interpolation-filters:linearRGB;solid-color:#000000;solid-opacity:1;fill:#000000;fill-opacity:1;fill-rule:evenodd;stroke:none;stroke-width:70;stroke-linecap:round;stroke-linejoin:round;stroke-miterlimit:4;stroke-dasharray:none;stroke-dashoffset:0;stroke-opacity:1;color-rendering:auto;image-rendering:auto;shape-rendering:auto;text-rendering:auto;enable-background:accumulate"
       d="m -3052.5273,-593.89453 a 35.0035,35.0035 0 0 0 -6.5176,69.44336 c 45.3072,8.88086 88.6866,28.9675 124.7676,57.77344 43.9623,35.09818 77.8826,83.72866 99.1328,137.38085 21.2956,53.76691 30.4014,112.9298 29.625,172.23438 -1.555,118.78389 -42.0426,236.725061 -91.1016,351.37695 -22.4693,52.51121 -46.5357,104.37479 -72.0078,155.57422 -19.664,39.52493 -40.2343,78.59663 -61.5391,117.26172 -65.36,35.75657 -113.8683,98.76354 -131.2851,171.46289 -18.5653,77.49273 -0.6531,161.17883 48.0078,224.28125 28.898,37.47443 67.6264,66.77396 111.5469,84.39258 43.9206,17.6186 92.1606,23.20626 138.9453,16.0918 46.7848,-7.11445 91.185,-26.7899 127.8828,-56.66797 36.6978,-29.87807 64.964,-69.36558 81.416,-113.73633 18.3177,-49.40229 21.5189,-103.70752 9.1328,-154.91992 -12.3861,-51.21238 -40.0507,-98.05374 -78.9199,-133.625 -38.8691,-35.57127 -87.971,-58.98419 -140.0781,-66.79297 -23.5504,-3.52926 -47.429,-3.66077 -70.9434,-0.84375 9.6542,-18.4963 19.2123,-37.04446 28.5059,-55.72461 26.0373,-52.33549 50.6685,-105.40979 73.6914,-159.21484 50.3572,-117.68579 94.9872,-244.09152 96.7402,-378 0.8778,-67.04162 -9.3029,-135.21666 -34.5371,-198.92774 -25.2796,-63.82577 -65.7566,-122.57038 -120.541,-166.30859 -45.0014,-35.92776 -98.4678,-60.6852 -154.9766,-71.76172 a 35.0035,35.0035 0 0 0 -6.9472,-0.75 z m 149.7968,1098.6543 c 9.6705,-0.017 19.323,0.6779 28.836,2.10351 38.0519,5.70246 74.8106,23.23066 103.1953,49.20703 28.3847,25.97636 49.0955,61.04092 58.1406,98.43946 9.0451,37.39851 6.6482,78.05221 -6.7285,114.1289 -12.034,32.45535 -33.1375,61.93443 -59.9805,83.78906 -26.843,21.85462 -59.9878,36.54217 -94.209,41.7461 -34.2211,5.20394 -70.2331,1.0338 -102.3593,-11.85352 -32.1261,-12.88732 -61.0381,-34.76084 -82.1758,-62.17187 -35.1731,-45.61178 -48.7885,-109.21314 -35.3692,-165.22656 13.4194,-56.01345 54.3772,-106.54183 106.4004,-131.26368 26.0644,-12.38598 55.2385,-18.84751 84.25,-18.89843 z"
       id="path4138-4-1-9-1"
       inkscape:connector-curvature="0" />
  </g>
</svg>
