<?xml version="1.0" encoding="UTF-8" standalone="no"?>
<!-- Created with Inkscape (http://www.inkscape.org/) -->

<svg
   xmlns:dc="http://purl.org/dc/elements/1.1/"
   xmlns:cc="http://creativecommons.org/ns#"
   xmlns:rdf="http://www.w3.org/1999/02/22-rdf-syntax-ns#"
   xmlns:svg="http://www.w3.org/2000/svg"
   xmlns="http://www.w3.org/2000/svg"
   xmlns:sodipodi="http://sodipodi.sourceforge.net/DTD/sodipodi-0.dtd"
   xmlns:inkscape="http://www.inkscape.org/namespaces/inkscape"
   width="4000"
   height="2048"
   id="svg2992"
   version="1.1"
   inkscape:version="0.91 r13725"
   sodipodi:docname="ൃ.svg">
  <defs
     id="defs5498">
    <inkscape:path-effect
       effect="spiro"
       id="path-effect4139"
       is_visible="true" />
    <inkscape:path-effect
       effect="spiro"
       id="path-effect4159"
       is_visible="true" />
    <inkscape:path-effect
       effect="spiro"
       id="path-effect4139-6"
       is_visible="true" />
    <inkscape:path-effect
       effect="spiro"
       id="path-effect4139-6-7"
       is_visible="true" />
    <inkscape:path-effect
       effect="spiro"
       id="path-effect4187-0"
       is_visible="true" />
    <inkscape:path-effect
       effect="spiro"
       id="path-effect4183-2"
       is_visible="true" />
    <inkscape:path-effect
       effect="spiro"
       id="path-effect4187-0-7"
       is_visible="true" />
    <inkscape:path-effect
       effect="spiro"
       id="path-effect4183-2-9"
       is_visible="true" />
    <inkscape:path-effect
       effect="spiro"
       id="path-effect4187-0-1"
       is_visible="true" />
    <inkscape:path-effect
       effect="spiro"
       id="path-effect4183-2-8"
       is_visible="true" />
  </defs>
  <sodipodi:namedview
     inkscape:window-height="704"
     inkscape:window-width="1366"
     inkscape:pageshadow="2"
     inkscape:pageopacity="0.0"
     borderopacity="1.0"
     bordercolor="#666666"
     pagecolor="#ffffff"
     id="base"
     showgrid="true"
     showguides="true"
     inkscape:guide-bbox="true"
     inkscape:zoom="0.05675"
     inkscape:cx="-3863.5532"
     inkscape:cy="1163.9621"
     inkscape:window-x="-4"
     inkscape:window-y="0"
     inkscape:current-layer="layer1"
     inkscape:window-maximized="1">
    <sodipodi:guide
       orientation="horizontal"
       position="0,600"
       id="guide5596" />
    <inkscape:grid
       type="xygrid"
       id="grid3769"
       empspacing="3"
       visible="true"
       enabled="true"
       snapvisiblegridlinesonly="true"
       spacingx="4px"
       units="px"
       dotted="true"
       spacingy="4px" />
    <sodipodi:guide
       orientation="0,1"
       position="-1040,1600"
       id="guide2985" />
    <sodipodi:guide
       orientation="1,0"
       position="100,2496"
       id="guide7215"
       inkscape:label=""
       inkscape:color="rgb(0,0,255)" />
  </sodipodi:namedview>
  <metadata
     id="metadata5594">
    <rdf:RDF>
      <cc:Work
         rdf:about="">
        <dc:format>image/svg+xml</dc:format>
        <dc:type
           rdf:resource="http://purl.org/dc/dcmitype/StillImage" />
        <dc:title />
      </cc:Work>
    </rdf:RDF>
  </metadata>
  <g
     inkscape:label="Layer 1"
     inkscape:groupmode="layer"
     id="layer1"
     transform="translate(0,1048)">
    <path
       style="color:#000000;font-style:normal;font-variant:normal;font-weight:normal;font-stretch:normal;font-size:medium;line-height:normal;font-family:sans-serif;text-indent:0;text-align:start;text-decoration:none;text-decoration-line:none;text-decoration-style:solid;text-decoration-color:#000000;letter-spacing:normal;word-spacing:normal;text-transform:none;direction:ltr;block-progression:tb;writing-mode:lr-tb;baseline-shift:baseline;text-anchor:start;white-space:normal;clip-rule:nonzero;display:inline;overflow:visible;visibility:visible;opacity:1;isolation:auto;mix-blend-mode:normal;color-interpolation:sRGB;color-interpolation-filters:linearRGB;solid-color:#000000;solid-opacity:1;fill:#000000;fill-opacity:1;fill-rule:evenodd;stroke:none;stroke-width:130;stroke-linecap:round;stroke-linejoin:round;stroke-miterlimit:4;stroke-dasharray:none;stroke-dashoffset:0;stroke-opacity:1;color-rendering:auto;image-rendering:auto;shape-rendering:auto;text-rendering:auto;enable-background:accumulate"
       d="m 824.79102,-596.4668 a 65.0065,65.0065 0 0 0 -59.00196,94.95118 c 129.69332,258.64161 184.61293,559.723123 131.99219,842.42773 a 65.0065,65.0065 0 0 0 -0.01,0.0488 C 879.36101,440.30127 838.59783,537.34169 779.25586,618.5625 696.40365,563.8097 603.78272,524.41745 506.96875,502.59961 a 65.0065,65.0065 0 0 0 -0.0586,-0.0137 c -56.78072,-12.74076 -123.00019,-23.09183 -190.90821,-16.44532 -67.67872,6.62407 -139.69875,32.6123 -192.07226,92.50391 -91.975649,101.7583 -53.230174,257.5048 53.54101,325.89649 135.66749,89.37159 302.04611,64.54459 429.85547,13.2832 a 65.0065,65.0065 0 0 0 0.56836,-0.23047 c 231.07244,-95.22479 374.71544,-321.00901 417.69927,-552.94336 58.5839,-314.809766 -2.44,-642.93682 -143.59575,-924.4375 A 65.0065,65.0065 0 0 0 824.79102,-596.4668 Z M 364.41797,614.23633 c 36.9263,0.67086 76.78128,6.83903 114.00195,15.18945 0.009,0.002 0.0183,0.004 0.0274,0.006 74.55644,16.80881 146.34331,46.3426 211.36328,86.47266 -39.27585,33.7384 -83.15288,61.55108 -131.19336,81.38281 -104.29686,41.75681 -226.59157,53.62888 -309.97266,-1.51563 a 65.0065,65.0065 0 0 0 -0.9082,-0.58984 C 206.73999,769.04038 188.96271,700.30846 220.53125,665.60938 a 65.0065,65.0065 0 0 0 0.98633,-1.10743 c 26.71763,-30.7486 61.33158,-44.49613 107.14844,-48.98047 11.45421,-1.12108 23.4402,-1.50883 35.75195,-1.28515 z"
       id="path4161"
       inkscape:connector-curvature="0" />
    <path
       style="fill:none;fill-rule:evenodd;stroke:#000000;stroke-width:130;stroke-linecap:round;stroke-linejoin:round;stroke-miterlimit:4;stroke-dasharray:none;stroke-opacity:1"
       d="m -7054.0482,-543.85214 c 97.8156,192.67187 152.3213,407.17874 158.3472,623.174191 5.0035,179.348579 -24.9483,364.222049 -118.2415,517.477829 -50.2535,82.55308 -118.5044,154.61301 -200.4267,205.88832 -81.9223,51.2753 -177.6091,81.32968 -274.2518,82.11168 -62.0142,0.5018 -126.1667,-11.82885 -176.5324,-48.0132 -25.1829,-18.09218 -46.4313,-42.00487 -59.7791,-69.99308 -13.3478,-27.9882 -18.5505,-60.09505 -12.9186,-90.58742 5.2394,-28.36728 19.696,-54.70086 39.5429,-75.63544 19.8468,-20.93457 44.9276,-36.58607 71.8462,-46.95659 53.837,-20.74104 113.5533,-20.39708 170.7926,-13.16677 126.1391,15.93354 248.0219,64.46364 350.5903,139.5947"
       id="path4161-7"
       inkscape:connector-curvature="0"
       sodipodi:nodetypes="casaaac"
       inkscape:path-effect="#path-effect4139-6"
       inkscape:original-d="m -7054.0482,-543.85214 c 58.2473,214.84664 155.7547,408.86407 158.3472,623.174191 2.1402,176.925309 -31.5719,356.984929 -118.2415,517.477829 -87.9393,162.844 -290.1377,302.0075 -474.6785,288 -108.0236,-8.1996 -262.6535,-101.0942 -249.2301,-208.5937 12.9335,-103.5758 177.8645,-132.1329 282.1817,-135.7588 125.7106,-4.3695 350.5903,139.5947 350.5903,139.5947" />
    <path
       style="fill:none;fill-rule:evenodd;stroke:#000000;stroke-width:70;stroke-linecap:round;stroke-linejoin:round;stroke-miterlimit:4;stroke-dasharray:none;stroke-opacity:1"
       d="m -2953.2819,-556.89951 c 100.3067,197.39919 156.2033,417.20815 162.3794,638.544404 5.1282,183.782526 -25.5945,373.231866 -121.2523,530.241106 -51.5513,84.61436 -121.5659,158.44982 -205.5768,210.97877 -84.0109,52.52894 -182.1107,83.30712 -281.1887,84.12458 -63.5733,0.52452 -129.3424,-12.08426 -180.9922,-49.15362 -25.8249,-18.53468 -47.6195,-43.03847 -61.3142,-71.72493 -13.6948,-28.68646 -19.0387,-61.6001 -13.27,-92.85999 5.3679,-29.08801 20.1941,-56.09021 40.5492,-77.55173 20.3551,-21.46152 46.0786,-37.50156 73.6845,-48.12407 55.212,-21.24503 116.4434,-20.86129 175.1333,-13.43141 129.3269,16.37221 254.2911,66.09048 359.5176,143.03772"
       id="path4161-7-9"
       inkscape:connector-curvature="0"
       sodipodi:nodetypes="casaaac"
       inkscape:path-effect="#path-effect4139-6-7"
       inkscape:original-d="m -2953.2819,-556.89951 c 59.7306,220.1457 159.7209,418.94845 162.3794,638.544404 2.1947,181.289066 -32.3759,365.789746 -121.2523,530.241106 -90.1786,166.86045 -297.5257,309.45634 -486.7655,295.10335 -110.7743,-8.40184 -269.3416,-103.58763 -255.5764,-213.73854 13.2628,-106.13043 182.3936,-135.39188 289.367,-139.10721 128.9117,-4.47727 359.5176,143.03772 359.5176,143.03772" />
    <path
       style="color:#000000;font-style:normal;font-variant:normal;font-weight:normal;font-stretch:normal;font-size:medium;line-height:normal;font-family:sans-serif;text-indent:0;text-align:start;text-decoration:none;text-decoration-line:none;text-decoration-style:solid;text-decoration-color:#000000;letter-spacing:normal;word-spacing:normal;text-transform:none;direction:ltr;block-progression:tb;writing-mode:lr-tb;baseline-shift:baseline;text-anchor:start;white-space:normal;clip-rule:nonzero;display:inline;overflow:visible;visibility:visible;opacity:1;isolation:auto;mix-blend-mode:normal;color-interpolation:sRGB;color-interpolation-filters:linearRGB;solid-color:#000000;solid-opacity:1;fill:#000000;fill-opacity:1;fill-rule:evenodd;stroke:none;stroke-width:70;stroke-linecap:round;stroke-linejoin:round;stroke-miterlimit:4;stroke-dasharray:none;stroke-dashoffset:0;stroke-opacity:1;color-rendering:auto;image-rendering:auto;shape-rendering:auto;text-rendering:auto;enable-background:accumulate"
       d="m -1704.9883,-976.33988 a 35.0035,35.0035 0 0 0 -31.4961,51.29494 c 97.9321,192.72596 152.5658,407.56968 158.5957,623.66601 5.0008,179.2161 -25.2746,361.884947 -116.1562,511.05465 -14.9719,24.5743 -31.762,48.0107 -49.8613,70.3379 -108.6153,-77.655 -236.3461,-127.8221 -368.8282,-144.5937 -61.5501,-7.792 -128.6592,-8.9202 -192.0976,15.4902 -31.8261,12.2464 -62.015,30.8769 -86.5098,56.7031 -24.6026,25.9399 -42.8206,58.6881 -49.5742,95.2852 -7.2644,39.3649 -0.5504,79.4061 16.1035,114.291 16.5761,34.7222 42.374,63.4641 72.4922,85.0801 60.0299,43.0838 133.2897,56.2831 201.6894,55.7187 106.1351,-0.8756 210.2702,-33.6832 299.4551,-89.4472 89.0999,-55.7109 162.7398,-133.5321 216.9102,-222.4453 100.434,-164.848803 131.6052,-361.07881 126.3496,-549.42777 -6.3223,-226.57618 -63.4827,-451.34946 -166.1641,-653.42193 a 35.0035,35.0035 0 0 0 -30.9082,-19.5859 z m -478.7285,1176.9317 c 20.386,0.018 41.2553,1.6249 62.1914,4.2753 118.1383,14.9558 232.7221,59.2741 330.3711,127.461 -29.6329,29.0618 -62.1444,54.9824 -97.1328,76.8594 -78.8369,49.2938 -170.901,78.0435 -262.9219,78.8027 -58.7468,0.4847 -117.0252,-11.5349 -160.2949,-42.5899 -21.5316,-15.4533 -39.3235,-35.7184 -50.1367,-58.3691 -10.7357,-22.488 -14.7105,-48.2748 -10.4375,-71.4297 3.9822,-21.579 15.4177,-42.8332 31.5254,-59.8164 16.2153,-17.0968 37.4736,-30.5463 60.8593,-39.5449 29.3661,-11.2998 62,-15.6789 95.9766,-15.6484 z"
       id="path4161-7-9-4"
       inkscape:connector-curvature="0" />
    <path
       style="fill:none;fill-rule:evenodd;stroke:#000000;stroke-width:70;stroke-linecap:round;stroke-linejoin:round;stroke-miterlimit:4;stroke-dasharray:none;stroke-opacity:1"
       d="m -5260.2488,791.53118 c 4.6484,32.46963 20.0078,62.98682 41.6128,87.66691 21.6051,24.68009 49.2681,43.67678 79.1555,57.1908 59.7748,27.02805 126.9367,32.1787 192.5252,33.47845 67.6733,1.34107 137.2183,-1.36645 199.6647,-27.48007 31.2232,-13.05681 60.2589,-31.99507 82.9871,-57.07089 22.7283,-25.07582 38.9401,-56.46049 43.807,-89.95201 5.4002,-37.16096 -3.4088,-75.77352 -22.0293,-108.38298 -18.6205,-32.60946 -46.6769,-59.34749 -78.7536,-78.87145 -64.1533,-39.04791 -141.816,-49.01306 -216.9147,-49.78013 -75.5483,-0.77166 -153.9211,7.73142 -219.0478,46.02843 -32.5633,19.14851 -61.1505,45.6999 -80.1975,78.3227 -19.047,32.6228 -28.1629,71.4554 -22.8094,108.85024 z"
       id="path4181-82"
       inkscape:path-effect="#path-effect4183-2"
       inkscape:original-d="m -5260.2488,791.53118 c 6.4163,123.06992 194.0892,176.72666 313.2935,178.33616 122.4939,1.65384 326.4588,-56.36699 326.4588,-174.50297 4.7368,-173.63437 -187.1042,-236.08048 -317.6976,-237.03456 -131.0608,-0.95739 -329.1088,97.89844 -322.0547,233.20137 z"
       inkscape:connector-curvature="0"
       sodipodi:nodetypes="aacaa" />
    <path
       style="fill:none;fill-rule:evenodd;stroke:#000000;stroke-width:70;stroke-linecap:round;stroke-linejoin:round;stroke-miterlimit:4;stroke-dasharray:none;stroke-opacity:1"
       d="m -5094.0492,955.88447 c 54.4712,9.94278 109.9936,14.11616 165.3391,12.42781 139.0705,-4.24244 279.4737,-47.67421 386.0341,-137.13633 98.5679,-82.75207 163.6216,-200.87443 196.4783,-325.30902 32.8568,-124.4346 35.1711,-255.26571 23.0359,-383.39172 -23.5042,-248.16271 -101.0941,-491.06203 -225.8055,-706.89586"
       id="path4185-6"
       inkscape:path-effect="#path-effect4187-0"
       inkscape:original-d="m -5094.0492,955.88447 c 0,0 73.7928,20.04134 165.3391,12.42781 105.7998,-8.79872 319.3118,-84.49287 386.0341,-137.13633 297.4935,-234.7208 220.6046,-461.39694 219.5142,-708.70074 -1.0906,-247.3592 -225.8055,-706.89586 -225.8055,-706.89586"
       inkscape:connector-curvature="0"
       sodipodi:nodetypes="cssac" />
    <path
       style="fill:none;fill-rule:evenodd;stroke:#000000;stroke-width:140;stroke-linecap:round;stroke-linejoin:round;stroke-miterlimit:4;stroke-dasharray:none;stroke-opacity:1"
       d="m -6583.3148,817.50476 c 4.6484,32.46962 20.0078,62.98681 41.6128,87.6669 21.605,24.68009 49.2681,43.67679 79.1554,57.19082 59.7748,27.02806 126.9367,32.17873 192.5252,33.47849 67.6733,1.34107 137.2183,-1.36645 199.6647,-27.48008 31.2232,-13.05682 60.2589,-31.99509 82.9872,-57.07091 22.7282,-25.07583 38.94,-56.4605 43.8069,-89.95202 5.4002,-37.16097 -3.4088,-75.77353 -22.0293,-108.38299 -18.6205,-32.60946 -46.6769,-59.3475 -78.7536,-78.87146 -64.1533,-39.04793 -141.816,-49.01309 -216.9147,-49.78015 -75.5483,-0.77165 -153.9211,7.73145 -219.0477,46.02848 -32.5633,19.14851 -61.1505,45.6999 -80.1975,78.3227 -19.047,32.6228 -28.1629,71.45538 -22.8094,108.85022 z"
       id="path4181-82-9"
       inkscape:path-effect="#path-effect4183-2-9"
       inkscape:original-d="m -6583.3148,817.50476 c 6.4163,123.0699 194.0891,176.72671 313.2934,178.33621 122.4939,1.6538 326.4588,-56.36701 326.4588,-174.50301 4.7368,-173.6344 -187.1042,-236.0805 -317.6976,-237.0346 -131.0608,-0.9573 -329.1087,97.8985 -322.0546,233.2014 z"
       inkscape:connector-curvature="0"
       sodipodi:nodetypes="aacaa" />
    <path
       style="fill:none;fill-rule:evenodd;stroke:#000000;stroke-width:140;stroke-linecap:round;stroke-linejoin:round;stroke-miterlimit:4;stroke-dasharray:none;stroke-opacity:1"
       d="m -6417.1153,981.85807 c 54.4712,9.94278 109.9936,14.11615 165.3391,12.4278 139.0704,-4.24244 279.4737,-47.6742 386.0341,-137.13631 98.5679,-82.75206 163.6216,-200.87443 196.4783,-325.30902 32.8568,-124.4346 35.1711,-255.26572 23.0359,-383.39173 -23.5042,-248.162706 -101.0941,-491.06202 -225.8055,-706.89585"
       id="path4185-6-6"
       inkscape:path-effect="#path-effect4187-0-7"
       inkscape:original-d="m -6417.1153,981.85807 c 0,0 73.7928,20.04133 165.3391,12.4278 105.7998,-8.7987 319.3118,-84.49291 386.0341,-137.13631 297.4936,-234.7208 220.6046,-461.39695 219.5142,-708.70075 -1.0906,-247.359206 -225.8055,-706.89585 -225.8055,-706.89585"
       inkscape:connector-curvature="0"
       sodipodi:nodetypes="cssac" />
    <path
       style="color:#000000;font-style:normal;font-variant:normal;font-weight:normal;font-stretch:normal;font-size:medium;line-height:normal;font-family:sans-serif;text-indent:0;text-align:start;text-decoration:none;text-decoration-line:none;text-decoration-style:solid;text-decoration-color:#000000;letter-spacing:normal;word-spacing:normal;text-transform:none;direction:ltr;block-progression:tb;writing-mode:lr-tb;baseline-shift:baseline;text-anchor:start;white-space:normal;clip-rule:nonzero;display:inline;overflow:visible;visibility:visible;opacity:1;isolation:auto;mix-blend-mode:normal;color-interpolation:sRGB;color-interpolation-filters:linearRGB;solid-color:#000000;solid-opacity:1;fill:#000000;fill-opacity:1;fill-rule:evenodd;stroke:none;stroke-width:70;stroke-linecap:round;stroke-linejoin:round;stroke-miterlimit:4;stroke-dasharray:none;stroke-dashoffset:0;stroke-opacity:1;color-rendering:auto;image-rendering:auto;shape-rendering:auto;text-rendering:auto;enable-background:accumulate"
       d="m -4358.5801,2540.1738 c -26.5451,1.0365 -42.306,30.1046 -28.6914,52.916 122.1666,211.4296 198.2411,449.5868 221.2656,692.6856 11.885,125.4835 9.3831,252.1842 -22.0312,371.1562 -31.3413,118.6953 -93.3283,230.3574 -185.1426,307.4395 -8.3774,7.0332 -16.9999,13.762 -25.8359,20.2031 2.2203,-7.8821 3.9606,-15.9483 5.1562,-24.1758 6.6754,-45.9359 -4.1105,-91.9582 -26.2734,-130.7714 -22.0424,-38.6021 -54.4922,-69.224 -90.9492,-91.4141 -72.6105,-44.1955 -156.806,-54.0847 -234.7539,-54.8809 -78.4214,-0.801 -163.3952,7.4868 -237.1465,50.8555 -37.0341,21.7775 -70.1154,52.1953 -92.6817,90.8457 -22.6931,38.8677 -33.8556,85.1817 -27.2304,131.459 5.7452,40.1309 24.3154,76.5064 49.9238,105.7598 25.4949,29.1236 57.3509,50.7805 91.0703,66.0273 12.0459,5.4467 24.2502,10.0607 49.6065,18.0017 25.3562,7.941 46.9042,10.9939 68.538,13.1897 29.7875,3.5974 59.4198,4.8221 88.1075,5.3906 69.0812,1.369 143.6761,-0.8337 223.8478,-32.0647 80.1717,-31.231 146.2293,-66.6248 203.6287,-114.8142 105.3216,-88.4221 173.4422,-213.0057 207.8145,-343.1797 34.2991,-129.8974 36.4245,-264.8585 24.039,-395.6269 -23.9838,-253.2267 -103.0875,-500.8694 -230.3437,-721.1074 -6.4264,-11.4938 -18.7597,-18.4084 -31.918,-17.8946 z m -394.7812,1213.1133 c 2.2689,0 4.5394,0.018 6.8105,0.041 72.2495,0.738 143.3781,10.7794 199.0742,44.6797 27.6964,16.8579 51.358,39.7112 66.5567,66.3281 15.078,26.4058 21.9121,57.6101 17.7871,85.9961 -3.7237,25.6248 -16.5726,51.0336 -35.1035,71.4785 -13.9067,15.3432 -31.1559,28.3111 -50.3164,38.6387 -60.57,20.1157 -124.9371,30.9178 -189.2246,32.8789 -29.968,0.9143 -59.9989,0.023 -89.8692,-2.6445 -37.6392,-4.0534 -73.3855,-11.7033 -105.414,-26.1856 -26.0552,-11.7812 -49.5252,-28.1169 -67.2403,-48.3535 -17.6015,-20.1068 -29.7492,-44.7659 -33.3008,-69.5742 -4.0818,-28.5123 2.9858,-59.8642 18.3868,-86.2422 15.5277,-26.5952 39.6223,-49.2793 67.7148,-65.7988 54.7362,-32.187 123.8028,-41.3743 194.1387,-41.2422 z"
       transform="translate(0,-1048)"
       id="path4181-82-0"
       inkscape:connector-curvature="0"
       sodipodi:nodetypes="scssscsssssssssccscssscscssssscscsssssc" />
  </g>
</svg>
