<?xml version="1.0" encoding="UTF-8" standalone="no"?>
<!-- Created with Inkscape (http://www.inkscape.org/) -->

<svg
   xmlns:dc="http://purl.org/dc/elements/1.1/"
   xmlns:cc="http://creativecommons.org/ns#"
   xmlns:rdf="http://www.w3.org/1999/02/22-rdf-syntax-ns#"
   xmlns:svg="http://www.w3.org/2000/svg"
   xmlns="http://www.w3.org/2000/svg"
   xmlns:sodipodi="http://sodipodi.sourceforge.net/DTD/sodipodi-0.dtd"
   xmlns:inkscape="http://www.inkscape.org/namespaces/inkscape"
   width="2000"
   height="2048"
   id="svg2992"
   version="1.1"
   inkscape:version="0.91 r13725"
   sodipodi:docname="ൗ.svg">
  <defs
     id="defs5498">
    <inkscape:path-effect
       effect="spiro"
       id="path-effect4151"
       is_visible="true" />
    <inkscape:path-effect
       is_visible="true"
       id="path-effect4147"
       effect="spiro" />
    <inkscape:path-effect
       effect="spiro"
       id="path-effect4143"
       is_visible="true" />
    <inkscape:path-effect
       effect="spiro"
       id="path-effect3782"
       is_visible="true" />
    <inkscape:path-effect
       effect="spiro"
       id="path-effect3846"
       is_visible="true" />
    <inkscape:path-effect
       effect="spiro"
       id="path-effect3801"
       is_visible="true" />
    <inkscape:path-effect
       effect="spiro"
       id="path-effect4143-9"
       is_visible="true" />
    <inkscape:path-effect
       effect="spiro"
       id="path-effect4143-9-9"
       is_visible="true" />
    <inkscape:path-effect
       effect="spiro"
       id="path-effect4143-9-0"
       is_visible="true" />
    <inkscape:path-effect
       effect="spiro"
       id="path-effect4151-0"
       is_visible="true" />
    <inkscape:path-effect
       effect="spiro"
       id="path-effect4151-0-6"
       is_visible="true" />
    <inkscape:path-effect
       effect="spiro"
       id="path-effect4151-0-0"
       is_visible="true" />
    <inkscape:path-effect
       effect="spiro"
       id="path-effect4151-1"
       is_visible="true" />
  </defs>
  <sodipodi:namedview
     inkscape:window-height="851"
     inkscape:window-width="1600"
     inkscape:pageshadow="2"
     inkscape:pageopacity="0.0"
     borderopacity="1.0"
     bordercolor="#666666"
     pagecolor="#ffffff"
     id="base"
     showgrid="true"
     showguides="true"
     inkscape:guide-bbox="true"
     inkscape:zoom="0.5"
     inkscape:cx="1067.9789"
     inkscape:cy="1181.0977"
     inkscape:window-x="1599"
     inkscape:window-y="-1"
     inkscape:current-layer="layer1"
     inkscape:window-maximized="1">
    <inkscape:grid
       type="xygrid"
       id="grid3769"
       empspacing="3"
       visible="true"
       enabled="true"
       snapvisiblegridlinesonly="true"
       spacingx="4px"
       units="px"
       dotted="true"
       spacingy="4px" />
    <sodipodi:guide
       orientation="0,1"
       position="-1040,1600"
       id="guide2985" />
    <sodipodi:guide
       position="552,600"
       orientation="0,1"
       id="guide4153"
       inkscape:label=""
       inkscape:color="rgb(0,0,255)" />
  </sodipodi:namedview>
  <metadata
     id="metadata5594">
    <rdf:RDF>
      <cc:Work
         rdf:about="">
        <dc:format>image/svg+xml</dc:format>
        <dc:type
           rdf:resource="http://purl.org/dc/dcmitype/StillImage" />
        <dc:title />
      </cc:Work>
    </rdf:RDF>
  </metadata>
  <g
     inkscape:label="Layer 1"
     inkscape:groupmode="layer"
     id="layer1"
     transform="translate(0,1048)">
    <path
       style="fill:none;fill-rule:evenodd;stroke:#000000;stroke-width:140;stroke-linecap:round;stroke-linejoin:round;stroke-miterlimit:4;stroke-dasharray:none;stroke-opacity:1"
       d="m -1906,-120.00004 c -34.7988,-72.07147 -37.1307,-159.0857 -6.2418,-232.9175 30.8888,-73.8318 94.4884,-133.26247 170.2418,-159.0825 45.9499,-15.66172 95.9521,-19.26283 143.6721,-10.34712 47.72,8.9157 93.0488,30.32787 130.2441,61.52394 37.1953,31.19607 66.1722,72.10482 83.2597,117.54381 17.0876,45.439 22.2468,95.30448 14.8241,143.27937 -8.7854,-94.23367 29.935,-191.69947 100.992,-254.21407 71.057,-62.51459 172.6612,-88.50375 265.008,-67.78593 86.2788,19.35647 161.98721,77.86895 206.90758,154.03236 44.92037,76.16341 59.64853,168.64972 45.7207,255.96936 -13.92782,87.31964 -55.62494,169.262417 -114.13219,235.56178 -58.50725,66.29937 -133.36774,117.26698 -214.49609,152.4365 -185.5174,80.42265 -405.9183,75.92467 -588,-12"
       id="path4141-8"
       inkscape:path-effect="#path-effect4143-9"
       inkscape:original-d="m -1906,-120.00004 c 0,0 26.3624,-358.56173 164,-392 157.2649,-38.20662 372,312 372,312 0,0 221.2806,-395.89677 366,-322 237.97463,121.51482 123.51912,620.264527 -76,798 -146.3823,130.4002 -588,-12 -588,-12"
       inkscape:connector-curvature="0"
       sodipodi:nodetypes="cacaac" />
    <path
       sodipodi:nodetypes="cacaac"
       inkscape:connector-curvature="0"
       inkscape:original-d="m -1906,-120.00004 c 0,0 26.3624,-358.56173 164,-392 157.2649,-38.20662 372,312 372,312 0,0 221.2806,-395.89677 366,-322 237.97463,121.51482 123.51912,620.264527 -76,798 -146.3823,130.4002 -588,-12 -588,-12"
       inkscape:path-effect="#path-effect4147"
       id="path4145"
       d="m -1906,-120.00004 c -34.7988,-72.07147 -37.1307,-159.0857 -6.2418,-232.9175 30.8888,-73.8318 94.4884,-133.26247 170.2418,-159.0825 45.9499,-15.66172 95.9521,-19.26283 143.6721,-10.34712 47.72,8.9157 93.0488,30.32787 130.2441,61.52394 37.1953,31.19607 66.1722,72.10482 83.2597,117.54381 17.0876,45.439 22.2468,95.30448 14.8241,143.27937 -8.7854,-94.23367 29.935,-191.69947 100.992,-254.21407 71.057,-62.51459 172.6612,-88.50375 265.008,-67.78593 86.2788,19.35647 161.98721,77.86895 206.90758,154.03236 44.92037,76.16341 59.64853,168.64972 45.7207,255.96936 -13.92782,87.31964 -55.62494,169.262417 -114.13219,235.56178 -58.50725,66.29937 -133.36774,117.26698 -214.49609,152.4365 -185.5174,80.42265 -405.9183,75.92467 -588,-12"
       style="fill:none;fill-rule:evenodd;stroke:#000000;stroke-width:140;stroke-linecap:round;stroke-linejoin:round;stroke-miterlimit:4;stroke-dasharray:none;stroke-opacity:1" />
    <path
       style="fill:none;fill-rule:evenodd;stroke:#000000;stroke-width:140;stroke-linecap:round;stroke-linejoin:round;stroke-miterlimit:4;stroke-dasharray:none;stroke-opacity:1"
       d="m -1906,-120.00004 c -39.7149,-73.8708 -44.8834,-165.42263 -13.7348,-243.29393 31.1485,-77.87131 98.0303,-140.60302 177.7348,-166.70607 47.5294,-15.56578 99.1458,-18.45711 148.1163,-8.29682 48.9704,10.16029 95.1761,33.34754 132.5899,66.53714 37.4137,33.1896 65.9447,76.30105 81.8713,123.71075 15.9267,47.4097 19.2103,99.00266 9.4225,148.04893 -9.4535,-98.84893 31.7361,-201.21278 107.02,-265.96473 75.2839,-64.75195 182.657,-90.16744 278.98,-66.03527 88.72493,22.2286 165.50463,84.67156 210.05986,164.55307 44.55522,79.88151 57.54978,175.8464 41.17736,265.83622 -16.37242,89.989821 -61.18938,173.819614 -122.92848,241.3067 -61.73911,67.48709 -139.94293,118.96799 -224.30874,154.30401 -185.8781,77.85373 -403.7492,75.63056 -588,-6"
       id="path4149"
       inkscape:path-effect="#path-effect4151"
       inkscape:original-d="m -1906,-120.00004 c 0,0 20.7601,-376.10986 164,-410 161.3055,-38.1644 372,330 372,330 0,0 236.1047,-411.584 386,-332 244.8203,129.98255 111.94311,642.71851 -96,826 -147.0452,129.60596 -588,-6 -588,-6"
       inkscape:connector-curvature="0"
       sodipodi:nodetypes="cacaac" />
    <path
       style="fill:none;fill-rule:evenodd;stroke:#000000;stroke-width:69.99999237;stroke-linecap:round;stroke-linejoin:round;stroke-miterlimit:4;stroke-dasharray:none;stroke-opacity:1"
       d="m -3665.1444,-122.89759 c -41.2711,-92.31051 -35.3669,-204.29476 15.3823,-291.75365 50.7491,-87.45888 145.0439,-148.15333 245.6672,-158.12783 48.9472,-4.85199 99.1757,1.87128 144.572,20.80641 45.3963,18.93513 85.575,50.12426 115.326,89.29369 29.751,39.16944 48.8016,85.8732 58.4484,134.10499 9.6467,48.2318 9.9891,97.77603 9.776,146.96262 l -0.066,15.23044 c -0.1817,-4.4892 -0.293,-8.98124 -0.334,-13.47393 -0.9488,-104.07554 38.197,-209.13694 111.5949,-282.92969 73.3979,-73.79274 181.1469,-113.791 284.2708,-99.71675 98.4239,13.4328 187.8016,75.13403 240.8125,159.14316 53.011,84.00914 70.4602,188.40351 54.1742,286.39567 -16.286,97.992171 -65.0718,189.329682 -132.6129,262.1713 -67.5411,72.84163 -153.2648,127.64688 -245.3366,164.93601 -203.8866,82.57415 -441.5291,77.71575 -641.8704,-13.12249"
       id="path4149-7"
       inkscape:path-effect="#path-effect4151-0"
       inkscape:original-d="m -3665.1444,-122.89759 c 0,0 88.3134,-434.97276 261.0495,-449.88148 169.5579,-14.63443 328.7204,253.16376 328.1224,391.16771 l -0.066,15.23044 c 0,0 -2.0371,-9.31655 -0.334,-13.47393 69.5692,-169.82641 230.4994,-462.23829 395.8657,-382.64644 263.285,126.72071 134.8355,678.28502 -82.9628,872.64614 -159.7933,142.59798 -641.8704,-13.12249 -641.8704,-13.12249"
       inkscape:connector-curvature="0"
       sodipodi:nodetypes="cascaaac" />
    <path
       style="color:#000000;font-style:normal;font-variant:normal;font-weight:normal;font-stretch:normal;font-size:medium;line-height:normal;font-family:sans-serif;text-indent:0;text-align:start;text-decoration:none;text-decoration-line:none;text-decoration-style:solid;text-decoration-color:#000000;letter-spacing:normal;word-spacing:normal;text-transform:none;direction:ltr;block-progression:tb;writing-mode:lr-tb;baseline-shift:baseline;text-anchor:start;white-space:normal;clip-rule:nonzero;display:inline;overflow:visible;visibility:visible;opacity:1;isolation:auto;mix-blend-mode:normal;color-interpolation:sRGB;color-interpolation-filters:linearRGB;solid-color:#000000;solid-opacity:1;fill:#000000;fill-opacity:1;fill-rule:evenodd;stroke:none;stroke-width:69.99999237;stroke-linecap:round;stroke-linejoin:round;stroke-miterlimit:4;stroke-dasharray:none;stroke-dashoffset:0;stroke-opacity:1;color-rendering:auto;image-rendering:auto;shape-rendering:auto;text-rendering:auto;enable-background:accumulate"
       d="m -3654.5371,734.75977 c -13.6968,-0.26785 -27.3987,0.28162 -41.0098,1.63085 -112.3567,11.13761 -215.8213,77.73532 -272.4883,175.39258 -56.6668,97.6573 -63.1441,220.5308 -17.0605,323.6055 a 35.003496,35.003496 0 1 0 63.9023,-28.5723 c -36.4585,-81.5464 -31.1282,-182.6419 13.7032,-259.90234 44.8314,-77.26054 129.9578,-132.05188 218.8476,-140.86328 43.4499,-4.30706 87.9992,1.74212 127.6465,18.2793 39.5653,16.50298 74.9444,43.95111 100.9277,78.16015 25.9985,34.22892 43.239,75.99776 52,119.80077 7.5943,37.9702 8.9355,78.4943 9.043,120.4043 -0.2879,7.2535 -0.4119,14.5126 -0.3457,21.7695 0.044,4.8578 0.1648,9.7156 0.3613,14.5704 a 35.003496,35.003496 0 0 0 69.9707,-1.2637 l 0.066,-15.2305 c 0.026,-5.9713 -0.029,-12.0846 -0.031,-18.125 3.8614,-88.6513 39.463,-176.60827 101.041,-238.51756 65.7796,-66.13347 163.6384,-102.15181 254.7227,-89.72071 87.0086,11.87487 168.2817,67.60784 215.9453,143.14258 47.8774,75.87379 64.212,171.94079 49.248,261.97849 -15.0094,90.3107 -60.4158,175.8066 -123.7519,244.1133 -63.4532,68.4328 -144.7903,120.6455 -232.8086,156.293 -194.6734,78.8428 -422.991,74.1749 -614.2793,-12.5586 a 35.003496,35.003496 0 1 0 -28.9063,63.7519 c 209.3944,94.9431 456.3611,99.9931 669.461,13.6875 96.1252,-38.9307 186.2342,-96.3297 257.8632,-173.58 71.746,-77.3766 123.9119,-174.5568 141.4747,-280.2305 17.608,-105.9465 -0.9551,-218.666 -59.0997,-310.81056 -58.3584,-92.48353 -155.8405,-160.15377 -265.6796,-175.14453 -115.1635,-15.71741 -232.8022,28.26088 -313.8184,109.71289 -30.4756,30.63957 -55.4259,65.92639 -74.6465,104.0586 -11.8451,-35.641 -28.864,-69.86794 -52.0859,-100.44141 -33.5187,-44.12982 -78.4973,-79.05851 -129.7246,-100.42578 -38.359,-15.99981 -79.3979,-24.1613 -120.4883,-24.96484 z"
       id="path4149-7-8"
       inkscape:connector-curvature="0" />
    <path
       style="color:#000000;font-style:normal;font-variant:normal;font-weight:normal;font-stretch:normal;font-size:medium;line-height:normal;font-family:sans-serif;text-indent:0;text-align:start;text-decoration:none;text-decoration-line:none;text-decoration-style:solid;text-decoration-color:#000000;letter-spacing:normal;word-spacing:normal;text-transform:none;direction:ltr;block-progression:tb;writing-mode:lr-tb;baseline-shift:baseline;text-anchor:start;white-space:normal;clip-rule:nonzero;display:inline;overflow:visible;visibility:visible;opacity:1;isolation:auto;mix-blend-mode:normal;color-interpolation:sRGB;color-interpolation-filters:linearRGB;solid-color:#000000;solid-opacity:1;fill:#000000;fill-opacity:1;fill-rule:evenodd;stroke:none;stroke-width:140;stroke-linecap:round;stroke-linejoin:round;stroke-miterlimit:4;stroke-dasharray:none;stroke-dashoffset:0;stroke-opacity:1;color-rendering:auto;image-rendering:auto;shape-rendering:auto;text-rendering:auto;enable-background:accumulate"
       d="m 524.85742,-616.27148 c -38.78816,-0.34433 -77.55821,5.60235 -114.64453,17.74804 -100.22134,32.82229 -181.77489,109.31611 -220.94141,207.23242 -39.16653,97.91631 -32.86379,209.55148 17.07422,302.437504 17.99427,34.670912 60.8814,47.908646 95.28673,29.411709 34.40533,-18.496936 47.01759,-61.572153 28.02187,-95.704673 -29.49183,-54.85558 -33.52701,-126.3241 -10.39649,-184.1504 23.13052,-57.8263 75.34172,-106.79587 134.5293,-126.17968 35.72069,-11.69846 75.30567,-13.91526 112.10937,-6.2793 36.80372,7.63596 72.23917,25.41771 100.35743,50.36133 28.11825,24.94361 49.99911,58.00599 61.96875,93.63672 13.86287,43.00477 6.11843,90.63695 10.0957,132.42187 3.32819,34.54731 31.46608,61.44055 66.12853,63.20343 34.66244,1.76288 65.38359,-22.13688 72.19959,-56.16827 1.61956,-86.51511 16.95612,-170.82045 80.01954,-226.59375 57.20268,-49.20026 143.13348,-69.53939 216.32228,-51.20313 67.9825,17.03193 130.4876,67.19133 165.9375,130.74805 35.7579,64.10912 47.0775,144.25901 33.4414,219.20899 -13.716,75.388832 -52.0666,147.953488 -105.707,206.587886 C 1212.8253,149.29422 1143.1948,195.5039 1066.957,227.43555 899.49459,297.57599 700.35175,295.54309 534.35547,222 c -35.47436,-16.31081 -77.43552,-0.45015 -93.25152,35.24753 -15.81601,35.69768 0.62643,77.4343 36.54058,92.75247 202.50522,89.71803 439.1046,92.13147 643.39847,6.56445 92.4938,-38.74039 179.2707,-95.49191 248.914,-171.61914 69.8378,-76.33977 121.1216,-171.434583 140.1504,-276.025388 19.1087,-105.029672 4.4385,-216.810942 -48.914,-312.464842 -53.6608,-96.2063 -144.7144,-170.93215 -254.1817,-198.35742 -119.4572,-29.92808 -248.27161,0.56354 -341.6367,80.86718 -19.41032,16.69489 -36.79913,35.31186 -52.25586,55.29688 -15.64845,-21.99993 -33.63483,-42.35723 -53.95898,-60.38672 -46.70921,-41.43558 -103.68702,-70.02827 -164.82422,-82.71289 -22.92646,-4.75673 -46.20562,-7.227 -69.47852,-7.43359 z"
       id="path4149-2"
       inkscape:connector-curvature="0"
       sodipodi:nodetypes="ssscscssssccsccssssscscsssssscsss" />
  </g>
</svg>
