<?xml version="1.0" encoding="UTF-8" standalone="no"?>
<!-- Created with Inkscape (http://www.inkscape.org/) -->

<svg
   xmlns:dc="http://purl.org/dc/elements/1.1/"
   xmlns:cc="http://creativecommons.org/ns#"
   xmlns:rdf="http://www.w3.org/1999/02/22-rdf-syntax-ns#"
   xmlns:svg="http://www.w3.org/2000/svg"
   xmlns="http://www.w3.org/2000/svg"
   xmlns:sodipodi="http://sodipodi.sourceforge.net/DTD/sodipodi-0.dtd"
   xmlns:inkscape="http://www.inkscape.org/namespaces/inkscape"
   width="2000"
   height="2048"
   id="svg2992"
   version="1.1"
   inkscape:version="0.91 r13725"
   sodipodi:docname="൨.svg">
  <defs
     id="defs5498">
    <inkscape:path-effect
       effect="spiro"
       id="path-effect3006"
       is_visible="true" />
    <inkscape:path-effect
       effect="spiro"
       id="path-effect4141-37"
       is_visible="true" />
    <inkscape:path-effect
       effect="spiro"
       id="path-effect4141-37-3"
       is_visible="true" />
    <inkscape:path-effect
       effect="spiro"
       id="path-effect4141-37-3-0"
       is_visible="true" />
    <inkscape:path-effect
       effect="spiro"
       id="path-effect4141-37-3-0-9"
       is_visible="true" />
    <inkscape:path-effect
       effect="spiro"
       id="path-effect4141-37-3-0-9-1"
       is_visible="true" />
    <inkscape:path-effect
       effect="spiro"
       id="path-effect4141-37-3-0-9-8"
       is_visible="true" />
    <inkscape:path-effect
       effect="spiro"
       id="path-effect4141-37-3-0-9-8-9"
       is_visible="true" />
    <inkscape:path-effect
       effect="spiro"
       id="path-effect4141-37-3-0-9-5"
       is_visible="true" />
    <inkscape:path-effect
       effect="spiro"
       id="path-effect4141-37-3-0-9-84"
       is_visible="true" />
    <inkscape:path-effect
       effect="spiro"
       id="path-effect4141-37-3-0-9-84-7"
       is_visible="true" />
    <inkscape:path-effect
       effect="spiro"
       id="path-effect4141-37-3-0-9-4"
       is_visible="true" />
  </defs>
  <sodipodi:namedview
     inkscape:window-height="704"
     inkscape:window-width="1366"
     inkscape:pageshadow="2"
     inkscape:pageopacity="0.0"
     borderopacity="1.0"
     bordercolor="#666666"
     pagecolor="#ffffff"
     id="base"
     showgrid="true"
     showguides="true"
     inkscape:guide-bbox="true"
     inkscape:zoom="0.125"
     inkscape:cx="-959.79303"
     inkscape:cy="568.61417"
     inkscape:window-x="-4"
     inkscape:window-y="0"
     inkscape:current-layer="layer1"
     inkscape:window-maximized="1">
    <sodipodi:guide
       orientation="horizontal"
       position="0,600"
       id="guide5596" />
    <inkscape:grid
       type="xygrid"
       id="grid3769"
       empspacing="3"
       visible="true"
       enabled="true"
       snapvisiblegridlinesonly="true"
       spacingx="4px"
       units="px"
       dotted="true"
       spacingy="4px" />
    <sodipodi:guide
       orientation="0,1"
       position="-1040,1600"
       id="guide2985" />
  </sodipodi:namedview>
  <metadata
     id="metadata5594">
    <rdf:RDF>
      <cc:Work
         rdf:about="">
        <dc:format>image/svg+xml</dc:format>
        <dc:type
           rdf:resource="http://purl.org/dc/dcmitype/StillImage" />
        <dc:title />
      </cc:Work>
    </rdf:RDF>
  </metadata>
  <g
     inkscape:label="Layer 1"
     inkscape:groupmode="layer"
     id="layer1"
     transform="translate(0,1048)">
    <path
       style="fill:none;fill-rule:evenodd;stroke:#000000;stroke-width:140;stroke-linecap:round;stroke-linejoin:round;stroke-miterlimit:4;stroke-dasharray:none;stroke-opacity:1"
       d="M 1364.234,334.4283 822.97711,332.2224 C 946.90305,227.2511 1019.6662,64.46861 1015.231,-97.8796 c -3.2177,-117.78338 -46.8122,-235.44591 -127.26619,-321.52978 -80.45399,-86.08388 -198.33535,-138.13863 -315.98729,-131.71219 -110.00143,6.00855 -214.83354,62.54526 -286.17728,146.48863 -71.34374,83.94337 -109.90338,193.51673 -114.60559,303.58174 -7.45008,174.384845 71.58653,350.37824 206.87708,460.6599"
       id="path4139-9-6-5-3"
       inkscape:path-effect="#path-effect4141-37-3-0-9"
       inkscape:original-d="m 1364.234,334.4283 -541.25689,-2.2059 c 0,0 219.89729,-275.515869 192.25389,-430.102 -37.19849,-208.01933 -231.99202,-458.17807 -443.25348,-453.24197 -200.82941,4.69235 -370.22295,251.52425 -400.78287,450.07037 -25.60708,166.367788 206.87708,460.6599 206.87708,460.6599"
       inkscape:connector-curvature="0"
       sodipodi:nodetypes="ccaaac" />
    <path
       style="fill:none;fill-rule:evenodd;stroke:#000000;stroke-width:70.00001526;stroke-linecap:round;stroke-linejoin:round;stroke-miterlimit:4;stroke-dasharray:none;stroke-opacity:1"
       d="m -619.15857,366.1992 -573.93163,-2.34137 c 134.1607,-113.19741 211.72625,-290.418626 203.85992,-465.77791 -5.5323,-123.32814 -52.90402,-245.78253 -138.06692,-335.15658 -85.1628,-89.37406 -208.6671,-143.21093 -331.9451,-136.6562 -115.8217,6.15827 -226.3916,65.059 -302.083,152.94187 -75.6914,87.88287 -117.1819,202.92309 -122.8943,318.76761 -9.1318,185.189316 74.9678,372.64075 219.3658,488.94933"
       id="path4139-9-6-5-3-1"
       inkscape:path-effect="#path-effect4141-37-3-0-9-84"
       inkscape:original-d="m -619.15857,366.1992 -573.93163,-2.34137 c 0,0 235.11226,-299.20542 203.85992,-465.77791 -40.93562,-218.18368 -248.09122,-477.37943 -470.01202,-471.81278 -211.5714,5.30705 -392.1373,262.63497 -424.9773,471.70948 -27.7188,176.470895 219.3658,488.94933 219.3658,488.94933"
       inkscape:connector-curvature="0"
       sodipodi:nodetypes="ccaaac" />
    <path
       style="color:#000000;font-style:normal;font-variant:normal;font-weight:normal;font-stretch:normal;font-size:medium;line-height:normal;font-family:sans-serif;text-indent:0;text-align:start;text-decoration:none;text-decoration-line:none;text-decoration-style:solid;text-decoration-color:#000000;letter-spacing:normal;word-spacing:normal;text-transform:none;direction:ltr;block-progression:tb;writing-mode:lr-tb;baseline-shift:baseline;text-anchor:start;white-space:normal;clip-rule:nonzero;display:inline;overflow:visible;visibility:visible;opacity:1;isolation:auto;mix-blend-mode:normal;color-interpolation:sRGB;color-interpolation-filters:linearRGB;solid-color:#000000;solid-opacity:1;fill:#000000;fill-opacity:1;fill-rule:evenodd;stroke:none;stroke-width:70.00001526;stroke-linecap:round;stroke-linejoin:round;stroke-miterlimit:4;stroke-dasharray:none;stroke-dashoffset:0;stroke-opacity:1;color-rendering:auto;image-rendering:auto;shape-rendering:auto;text-rendering:auto;enable-background:accumulate"
       d="m -1307.8867,706.73242 c -8.3902,-0.0558 -16.7965,0.13649 -25.2129,0.58399 -126.4583,6.72379 -245.102,70.25646 -326.7461,165.05078 -81.4203,94.53451 -125.2652,216.85211 -131.332,339.88481 -9.7097,196.9074 78.8339,394.2635 232.3691,517.9316 a 35.003508,35.003508 0 1 0 43.9102,-54.5156 c -135.2611,-108.9489 -214.9173,-286.4957 -206.3633,-459.9668 5.3579,-108.6563 44.4945,-216.41922 114.457,-297.65042 69.7387,-80.97142 172.2348,-135.23933 277.4199,-140.83203 111.8935,-5.94938 226.4028,43.62819 304.75,125.84961 78.62021,82.50783 123.26154,197.15144 128.43949,312.58004 7.35744,164.0149 -65.98332,331.5846 -191.46489,437.459 a 35.003508,35.003508 0 0 0 22.4278,61.75 l 573.93162,2.3418 a 35.003508,35.003508 0 1 0 0.28516,-70 l -488.8711,-1.9941 c 103.65721,-117.7816 160.68171,-275.2955 153.6211,-432.6934 -5.88667,-131.2275 -55.98782,-261.49215 -147.69336,-357.7324 -86.22982,-90.49375 -208.07542,-147.21048 -333.92772,-148.04688 z"
       id="path4139-9-6-5-3-1-4"
       inkscape:connector-curvature="0" />
    <path
       style="color:#000000;font-style:normal;font-variant:normal;font-weight:normal;font-stretch:normal;font-size:medium;line-height:normal;font-family:sans-serif;text-indent:0;text-align:start;text-decoration:none;text-decoration-line:none;text-decoration-style:solid;text-decoration-color:#000000;letter-spacing:normal;word-spacing:normal;text-transform:none;direction:ltr;block-progression:tb;writing-mode:lr-tb;baseline-shift:baseline;text-anchor:start;white-space:normal;clip-rule:nonzero;display:inline;overflow:visible;visibility:visible;opacity:1;isolation:auto;mix-blend-mode:normal;color-interpolation:sRGB;color-interpolation-filters:linearRGB;solid-color:#000000;solid-opacity:1;fill:#000000;fill-opacity:1;fill-rule:evenodd;stroke:none;stroke-width:140;stroke-linecap:round;stroke-linejoin:round;stroke-miterlimit:4;stroke-dasharray:none;stroke-dashoffset:0;stroke-opacity:1;color-rendering:auto;image-rendering:auto;shape-rendering:auto;text-rendering:auto;enable-background:accumulate"
       d="m 210.48633,818.33594 c -8.75118,-0.0474 -17.5293,0.16597 -26.32617,0.64648 -131.461029,7.18073 -252.484395,73.14403 -335.69727,171.05274 -82.75005,97.36404 -125.89089,221.53584 -131.20508,345.92574 -8.43694,197.4844 79.37436,393.0163 232.58594,517.9063 a 70.007,70.007 0 1 0 88.455078,-108.5156 c -117.369523,-95.6735 -187.631188,-252.1289 -181.167968,-403.4141 4.09021,-95.74 38.07039,-190.7157 98.007812,-261.2383 59.474598,-69.9781 148.114408,-117.08939 236.656248,-121.92576 94.55385,-5.16477 194.25382,38.16508 261.0293,109.61326 67.34019,72.0525 105.65247,173.8421 108.43359,275.6445 3.82954,140.1792 -60.52188,284.1402 -167.52539,374.7774 a 70.007,70.007 0 0 0 44.95899,123.4141 l 541.25781,2.205 a 70.007,70.007 0 1 0 0.57031,-139.998 l -386.41601,-1.5762 C 665.91667,1596.9363 704.73246,1469.3279 701.20508,1340.209 697.55079,1206.4446 648.67326,1072.9083 555.10547,972.79297 466.85625,878.36838 341.75397,819.04743 210.48633,818.33594 Z"
       id="path4139-9-6-5-3-0"
       inkscape:connector-curvature="0" />
  </g>
</svg>
