<?xml version="1.0" encoding="UTF-8" standalone="no"?>
<!-- Created with Inkscape (http://www.inkscape.org/) -->

<svg
   xmlns:dc="http://purl.org/dc/elements/1.1/"
   xmlns:cc="http://creativecommons.org/ns#"
   xmlns:rdf="http://www.w3.org/1999/02/22-rdf-syntax-ns#"
   xmlns:svg="http://www.w3.org/2000/svg"
   xmlns="http://www.w3.org/2000/svg"
   xmlns:sodipodi="http://sodipodi.sourceforge.net/DTD/sodipodi-0.dtd"
   xmlns:inkscape="http://www.inkscape.org/namespaces/inkscape"
   width="2000"
   height="2048"
   id="svg2992"
   version="1.1"
   inkscape:version="0.91 r13725"
   sodipodi:docname="൭.svg">
  <defs
     id="defs5498">
    <inkscape:path-effect
       effect="spiro"
       id="path-effect3782"
       is_visible="true" />
    <inkscape:path-effect
       effect="spiro"
       id="path-effect3846"
       is_visible="true" />
    <inkscape:path-effect
       effect="spiro"
       id="path-effect3801"
       is_visible="true" />
    <inkscape:path-effect
       effect="spiro"
       id="path-effect4918"
       is_visible="true" />
    <inkscape:path-effect
       effect="spiro"
       id="path-effect4372-5-8-0"
       is_visible="true" />
    <inkscape:path-effect
       effect="spiro"
       id="path-effect4372-5-8-0-0"
       is_visible="true" />
    <inkscape:path-effect
       effect="spiro"
       id="path-effect4372-5-8-0-0-9"
       is_visible="true" />
    <inkscape:path-effect
       effect="spiro"
       id="path-effect4372-5-8-0-0-8"
       is_visible="true" />
    <inkscape:path-effect
       effect="spiro"
       id="path-effect4372-5-8-0-0-8-3"
       is_visible="true" />
    <inkscape:path-effect
       effect="spiro"
       id="path-effect4372-5-8-0-0-8-3-5"
       is_visible="true" />
    <inkscape:path-effect
       effect="spiro"
       id="path-effect4372-5-8-0-0-8-0"
       is_visible="true" />
    <inkscape:path-effect
       effect="spiro"
       id="path-effect4372-5-8-0-0-8-9"
       is_visible="true" />
    <inkscape:path-effect
       effect="spiro"
       id="path-effect4372-5-8-0-0-8-7"
       is_visible="true" />
    <inkscape:path-effect
       effect="spiro"
       id="path-effect4372-5-8-0-0-8-9-5"
       is_visible="true" />
  </defs>
  <sodipodi:namedview
     inkscape:window-height="704"
     inkscape:window-width="1366"
     inkscape:pageshadow="2"
     inkscape:pageopacity="0.0"
     borderopacity="1.0"
     bordercolor="#666666"
     pagecolor="#ffffff"
     id="base"
     showgrid="true"
     showguides="true"
     inkscape:guide-bbox="true"
     inkscape:zoom="0.1767767"
     inkscape:cx="-922.98313"
     inkscape:cy="-199.37103"
     inkscape:window-x="-4"
     inkscape:window-y="0"
     inkscape:current-layer="layer1"
     inkscape:window-maximized="1">
    <sodipodi:guide
       orientation="horizontal"
       position="0,600"
       id="guide5596" />
    <inkscape:grid
       type="xygrid"
       id="grid3769"
       empspacing="3"
       visible="true"
       enabled="true"
       snapvisiblegridlinesonly="true"
       spacingx="4px"
       units="px"
       dotted="true"
       spacingy="4px" />
    <sodipodi:guide
       orientation="0,1"
       position="-1040,1600"
       id="guide2985" />
  </sodipodi:namedview>
  <metadata
     id="metadata5594">
    <rdf:RDF>
      <cc:Work
         rdf:about="">
        <dc:format>image/svg+xml</dc:format>
        <dc:type
           rdf:resource="http://purl.org/dc/dcmitype/StillImage" />
        <dc:title></dc:title>
      </cc:Work>
    </rdf:RDF>
  </metadata>
  <g
     inkscape:label="Layer 1"
     inkscape:groupmode="layer"
     id="layer1"
     transform="translate(0,1048)">
    <path
       style="fill:none;fill-rule:evenodd;stroke:#000000;stroke-width:140;stroke-linecap:round;stroke-linejoin:round;stroke-miterlimit:4;stroke-dasharray:none;stroke-opacity:1"
       d="m -1112.0777,837.06133 c 223.92424,25.7348 457.69324,-53.25309 620.11756,-209.53067 162.42433,-156.27757 250.36744,-386.827 233.28615,-611.577026 -11.49491,-151.246294 -70.25078,-300.516494 -174.32959,-410.857674 -104.0788,-110.34118 -254.63794,-178.69574 -406.19097,-172.43054 -116.58107,4.81946 -230.46865,53.45011 -316.10555,132.70095 -85.6369,79.25085 -142.708,188.25056 -161.281,303.44353 -17.4093,107.975937 -0.2136,223.744745 60.4531,314.74713 30.3334,45.50119 71.154,84.23018 119.1312,110.47243 47.9773,26.24225 103.1164,39.76574 157.72185,36.81329 73.91645,-3.99658 145.60156,-38.93729 194.5833,-94.43867 48.98174,-55.50138 74.7244,-130.80597 70.36337,-204.701815 -4.36102,-73.895843 -38.67784,-145.520495 -93.26791,-195.515875 -54.59008,-49.99538 -128.78573,-77.87765 -202.79921,-76.60535 -86.1837,1.48151 -170.8618,42.96243 -224.8582,110.15038 -53.9963,67.187939 -76.2862,158.807858 -59.1896,243.29177"
       id="path4370-9-4-0-9-4"
       inkscape:path-effect="#path-effect4372-5-8-0-0-8"
       inkscape:original-d="m -1112.0777,837.06133 c 138.71968,-287.05268 849.12805,-426.37132 853.40371,-821.107696 2.97111,-274.297044 -400.78214,-491.245014 -580.52056,-583.288214 -191.84825,-98.2446 -455.87865,221.67961 -477.38655,436.14448 -19.0277,189.734112 157.6968,526.07617 337.30615,462.03285 179.6255,-64.0491 150.41812,-512.85494 -31.12045,-571.26171 -143.8821,-46.29147 -284.0478,353.44215 -284.0478,353.44215"
       inkscape:connector-curvature="0"
       sodipodi:nodetypes="casaaac" />
    <path
       style="fill:none;fill-rule:evenodd;stroke:#000000;stroke-width:70;stroke-linecap:round;stroke-linejoin:round;stroke-miterlimit:4;stroke-dasharray:none;stroke-opacity:1"
       d="M 179.78928,877.18175 C 413.54316,913.54028 662.15492,838.58218 836.85325,679.07259 1011.5516,519.563 1108.7514,278.7753 1093.7458,42.687076 1083.4257,-119.68268 1020.4606,-280.24399 908.49486,-398.28684 796.52912,-516.3297 634.57011,-588.62415 472.03465,-581.36698 c -124.71674,5.56858 -246.4853,57.54729 -338.21831,142.22509 -91.733002,84.6778 -153.05909,201.16988 -173.040838,324.40139 -18.738316,115.56300572 -0.258351,239.50769 64.762008,336.86418 32.510179,48.67825 76.24489,90.09227 127.62305,118.14165 51.37816,28.04938 110.40408,42.48761 168.85439,39.31837 79.14361,-4.29126 155.90336,-41.67168 208.37797,-101.07321 52.4746,-59.40152 80.08493,-140.01921 75.43738,-219.142697 -4.64756,-79.123482 -41.40201,-155.825807 -99.89394,-209.312443 -58.49192,-53.48663 -138.00571,-83.23044 -217.24998,-81.65867 -92.00333,1.82484 -182.28599,46.35262 -239.735016,118.23831 -57.4490279,71.885681 -80.973766,169.764529 -62.467182,259.9058"
       id="path4370-9-4-0-9-4-3"
       inkscape:path-effect="#path-effect4372-5-8-0-0-8-9"
       inkscape:original-d="M 179.78928,877.18175 C 328.35171,570.06703 1083.9909,455.111 1093.7458,42.687076 1100.689,-250.86102 664.52628,-482.8909 472.03465,-581.36698 266.57395,-686.47785 -16.190519,-344.19424 -39.224498,-114.7405 -59.602294,88.254075 129.66155,448.10295 322.01495,379.5837 514.38565,311.05822 483.00011,-169.38511 288.68638,-231.60332 135.0166,-280.80756 -13.515818,146.54079 -13.515818,146.54079"
       inkscape:connector-curvature="0"
       sodipodi:nodetypes="casaaac" />
    <path
       style="color:#000000;font-style:normal;font-variant:normal;font-weight:normal;font-stretch:normal;font-size:medium;line-height:normal;font-family:sans-serif;text-indent:0;text-align:start;text-decoration:none;text-decoration-line:none;text-decoration-style:solid;text-decoration-color:#000000;letter-spacing:normal;word-spacing:normal;text-transform:none;direction:ltr;block-progression:tb;writing-mode:lr-tb;baseline-shift:baseline;text-anchor:start;white-space:normal;clip-rule:nonzero;display:inline;overflow:visible;visibility:visible;opacity:1;isolation:auto;mix-blend-mode:normal;color-interpolation:sRGB;color-interpolation-filters:linearRGB;solid-color:#000000;solid-opacity:1;fill:#000000;fill-opacity:1;fill-rule:evenodd;stroke:none;stroke-width:140;stroke-linecap:round;stroke-linejoin:round;stroke-miterlimit:4;stroke-dasharray:none;stroke-dashoffset:0;stroke-opacity:1;color-rendering:auto;image-rendering:auto;shape-rendering:auto;text-rendering:auto;enable-background:accumulate"
       d="m -2201.459,994.35352 c -10.8442,-0.19959 -21.7233,-0.0797 -32.6269,0.37109 -134.118,5.54449 -262.8934,60.69719 -360.7598,151.26559 -97.7414,90.4527 -161.7884,213.0882 -182.8438,343.6778 -14.1446,87.728 -8.5441,180.6207 22.1055,266.1738 0.1973,1.0201 0.325,2.0473 0.5313,3.0664 a 70.007,70.007 0 0 0 11.414,27.0645 c 10.3565,23.5936 22.6694,46.5143 37.2676,68.4121 36.242,54.3643 85.0326,100.9237 143.7832,133.0586 58.9047,32.2193 126.4427,49.0087 195.0918,45.2968 93.4433,-5.0524 181.5312,-48.0395 243.2891,-118.0175 61.7163,-69.9311 93.238,-162.2844 87.7578,-255.1446 -5.4766,-92.7993 -47.4976,-180.3968 -115.8692,-243.0136 -68.3277,-62.5767 -158.8895,-96.5609 -251.2793,-94.9727 -69.6136,1.1967 -137.0625,22.7026 -194.3535,60.3418 24.5007,-50.1066 57.7792,-95.7892 98.1953,-133.1914 73.4075,-67.9334 172.409,-110.0422 271.4532,-114.1367 128.6472,-5.3183 261.5179,54.1955 352.3769,150.5215 91.4797,96.984 145.0605,231.3873 155.4531,368.1308 15.4313,203.0398 -65.2868,414.6485 -212.0214,555.8301 -146.7346,141.1816 -361.298,213.6805 -563.5918,190.4316 a 70.007,70.007 0 1 0 -15.9844,139.084 c 245.5547,28.2207 498.5305,-57.2573 676.6445,-228.6308 178.1142,-171.3736 273.2821,-420.864 254.5508,-667.3243 -12.5971,-165.749 -76.5291,-329.8856 -193.207,-453.5839 -109.9674,-116.584 -264.7137,-191.71726 -427.377,-194.71098 z m -199.7324,467.21678 c 55.6372,-0.9564 113.4659,20.8243 154.3184,58.2383 40.8086,37.3739 67.4206,93.0253 70.666,148.0176 3.2418,54.9314 -16.7217,113.188 -52.9688,154.2597 -36.2057,41.0248 -91.4893,67.9186 -145.8789,70.8594 -40.5617,2.1932 -83.2999,-8.0648 -120.3496,-28.3301 a 70.007,70.007 0 0 0 -0,0 c -37.2041,-20.3495 -70.0538,-51.2486 -94.4786,-87.8867 -12.0278,-18.0422 -22.0273,-37.6206 -30.0761,-58.2558 -8.2353,-60.0207 9.5229,-125.92 47.2714,-172.8907 40.4239,-50.2995 106.9776,-82.9026 171.4981,-84.0117 z"
       id="path4370-9-4-0-9-4-1"
       inkscape:connector-curvature="0" />
    <path
       style="color:#000000;font-style:normal;font-variant:normal;font-weight:normal;font-stretch:normal;font-size:medium;line-height:normal;font-family:sans-serif;text-indent:0;text-align:start;text-decoration:none;text-decoration-line:none;text-decoration-style:solid;text-decoration-color:#000000;letter-spacing:normal;word-spacing:normal;text-transform:none;direction:ltr;block-progression:tb;writing-mode:lr-tb;baseline-shift:baseline;text-anchor:start;white-space:normal;clip-rule:nonzero;display:inline;overflow:visible;visibility:visible;opacity:1;isolation:auto;mix-blend-mode:normal;color-interpolation:sRGB;color-interpolation-filters:linearRGB;solid-color:#000000;solid-opacity:1;fill:#000000;fill-opacity:1;fill-rule:evenodd;stroke:none;stroke-width:70;stroke-linecap:round;stroke-linejoin:round;stroke-miterlimit:4;stroke-dasharray:none;stroke-dashoffset:0;stroke-opacity:1;color-rendering:auto;image-rendering:auto;shape-rendering:auto;text-rendering:auto;enable-background:accumulate"
       d="m -24.964844,1063.1914 c -10.83387,-0.1652 -21.692624,-0.01 -32.5625,0.4766 -133.398296,5.9562 -262.565716,61.166 -360.396486,151.4726 -97.77606,90.2561 -162.61471,213.5576 -183.84961,344.5176 -19.95308,123.0548 -0.73393,255.6857 70.20508,361.9043 35.4698,53.1097 83.19335,98.4343 139.95703,129.4238 56.84012,31.0313 122.06079,47.0962 187.52149,43.5469 88.89417,-4.8199 173.849377,-46.2178 232.712887,-112.8516 58.844266,-66.6119 89.351433,-155.7523 84.146483,-244.3652 C 107.56624,1648.7317 66.955658,1564.031 1.5546875,1504.2266 -63.825867,1444.4407 -151.54657,1411.6497 -240.00781,1413.4043 c -102.83561,2.0398 -202.16982,51.0314 -266.38281,131.3809 -10.60112,13.2651 -20.04881,27.3342 -28.52344,41.9355 0.68576,-5.2968 1.38432,-10.5928 2.23828,-15.8594 18.72858,-115.503 76.54248,-225.1856 162.23242,-304.2851 85.63525,-79.049 200.00387,-127.7976 316.039063,-132.9785 151.15288,-6.749 304.227307,61.2085 409.505857,172.2011 105.56901,111.299 165.87371,264.2739 175.71485,419.1074 14.30317,225.0362 -79.0424,456.278 -245.5625,608.3204 -166.52012,152.0424 -405.27488,224.0275 -628.08594,189.3711 a 35.0035,35.0035 0 1 0 -10.75781,69.1679 c 244.69669,38.0606 503.1664,-39.8689 686.04296,-206.8457 C 515.32968,2217.9431 616.38389,1967.6071 600.67578,1720.4668 589.87666,1550.5609 524.25112,1382.4138 405.88867,1257.627 294.65155,1140.3523 137.54321,1065.67 -24.964844,1063.1914 Z m -213.654296,420.1992 c 70.02734,-1.389 141.334174,25.3066 192.937499,72.4942 51.5829077,47.1688 84.48044,115.8728 88.572266,185.5351 4.090161,69.6339 -20.623539,141.727 -66.728516,193.918 -46.085733,52.1692 -114.649899,85.5343 -184.042969,89.2969 -51.43992,2.7891 -104.27132,-10.0224 -150.1875,-35.0899 -45.99264,-25.1092 -85.7385,-62.6127 -115.28906,-106.8594 -13.58794,-20.3455 -24.88623,-42.1556 -34.17578,-64.9179 -15.67229,-79.0745 5.50725,-166.3174 55.82617,-229.2813 50.68506,-63.422 131.91686,-103.4856 213.08789,-105.0957 z"
       id="path4370-9-4-0-9-4-3-4"
       inkscape:connector-curvature="0" />
  </g>
</svg>
