<?xml version="1.0" encoding="UTF-8" standalone="no"?>
<!-- Created with Inkscape (http://www.inkscape.org/) -->

<svg
   xmlns:dc="http://purl.org/dc/elements/1.1/"
   xmlns:cc="http://creativecommons.org/ns#"
   xmlns:rdf="http://www.w3.org/1999/02/22-rdf-syntax-ns#"
   xmlns:svg="http://www.w3.org/2000/svg"
   xmlns="http://www.w3.org/2000/svg"
   xmlns:sodipodi="http://sodipodi.sourceforge.net/DTD/sodipodi-0.dtd"
   xmlns:inkscape="http://www.inkscape.org/namespaces/inkscape"
   width="2000"
   height="2048"
   id="svg2992"
   version="1.1"
   inkscape:version="0.91 r13725"
   sodipodi:docname="൱.svg">
  <defs
     id="defs5498">
    <inkscape:path-effect
       effect="spiro"
       id="path-effect3846"
       is_visible="true" />
    <inkscape:path-effect
       effect="spiro"
       id="path-effect3801"
       is_visible="true" />
    <inkscape:path-effect
       effect="spiro"
       id="path-effect4372-5-0"
       is_visible="true" />
    <inkscape:path-effect
       effect="spiro"
       id="path-effect4372-5-0-5"
       is_visible="true" />
    <inkscape:path-effect
       effect="spiro"
       id="path-effect4372-5-0-53"
       is_visible="true" />
    <inkscape:path-effect
       effect="spiro"
       id="path-effect4372-5-0-6"
       is_visible="true" />
    <inkscape:path-effect
       effect="spiro"
       id="path-effect4372-5-0-6-1"
       is_visible="true" />
    <inkscape:path-effect
       effect="spiro"
       id="path-effect4372-5-0-6-1-2"
       is_visible="true" />
    <inkscape:path-effect
       effect="spiro"
       id="path-effect4372-5-0-6-9"
       is_visible="true" />
    <inkscape:path-effect
       effect="spiro"
       id="path-effect4372-5-0-6-9-1"
       is_visible="true" />
    <inkscape:path-effect
       effect="spiro"
       id="path-effect4372-5-0-6-1-2-2"
       is_visible="true" />
    <inkscape:path-effect
       effect="spiro"
       id="path-effect4372-5-0-6-1-2-2-6"
       is_visible="true" />
    <inkscape:path-effect
       effect="spiro"
       id="path-effect4372-5-0-6-10"
       is_visible="true" />
    <inkscape:path-effect
       effect="spiro"
       id="path-effect4372-5-0-6-94"
       is_visible="true" />
    <inkscape:path-effect
       effect="spiro"
       id="path-effect4372-5-0-6-94-2"
       is_visible="true" />
    <inkscape:path-effect
       effect="spiro"
       id="path-effect4372-5-0-6-94-5"
       is_visible="true" />
    <inkscape:path-effect
       effect="spiro"
       id="path-effect4372-5-0-6-94-3"
       is_visible="true" />
    <inkscape:path-effect
       effect="spiro"
       id="path-effect4372-5-0-6-94-7"
       is_visible="true" />
    <inkscape:path-effect
       effect="spiro"
       id="path-effect4372-5-0-6-94-35"
       is_visible="true" />
    <inkscape:path-effect
       effect="spiro"
       id="path-effect4372-5-0-6-94-29"
       is_visible="true" />
    <inkscape:path-effect
       effect="spiro"
       id="path-effect4372-5-0-6-94-29-2"
       is_visible="true" />
    <inkscape:path-effect
       effect="spiro"
       id="path-effect4372-5-0-6-94-0"
       is_visible="true" />
  </defs>
  <sodipodi:namedview
     inkscape:window-height="843"
     inkscape:window-width="1600"
     inkscape:pageshadow="2"
     inkscape:pageopacity="0.0"
     borderopacity="1.0"
     bordercolor="#666666"
     pagecolor="#ffffff"
     id="base"
     showgrid="true"
     showguides="true"
     inkscape:guide-bbox="true"
     inkscape:zoom="0.25000001"
     inkscape:cx="2749.0244"
     inkscape:cy="826.0301"
     inkscape:window-x="1600"
     inkscape:window-y="0"
     inkscape:current-layer="layer1"
     inkscape:window-maximized="1">
    <sodipodi:guide
       orientation="horizontal"
       position="0,600"
       id="guide5596" />
    <inkscape:grid
       type="xygrid"
       id="grid3769"
       empspacing="3"
       visible="true"
       enabled="true"
       snapvisiblegridlinesonly="true"
       spacingx="4px"
       units="px"
       dotted="true"
       spacingy="4px" />
    <sodipodi:guide
       position="-2568,1624"
       orientation="0,1"
       id="guide4282"
       inkscape:label=""
       inkscape:color="rgb(0,0,255)" />
  </sodipodi:namedview>
  <metadata
     id="metadata5594">
    <rdf:RDF>
      <cc:Work
         rdf:about="">
        <dc:format>image/svg+xml</dc:format>
        <dc:type
           rdf:resource="http://purl.org/dc/dcmitype/StillImage" />
        <dc:title />
      </cc:Work>
    </rdf:RDF>
  </metadata>
  <g
     inkscape:label="Layer 1"
     inkscape:groupmode="layer"
     id="layer1"
     transform="translate(0,1048)">
    <path
       style="fill:none;fill-rule:evenodd;stroke:#000000;stroke-width:140;stroke-linecap:round;stroke-linejoin:round;stroke-miterlimit:4;stroke-dasharray:none;stroke-opacity:1"
       d="m 1079.041,633.42617 c 71.7489,44.13369 155.9137,67.83413 240.1494,67.62505 84.2357,-0.20908 168.2817,-24.32703 239.8107,-68.81635 108.0791,-67.22262 184.3442,-178.494 225.1084,-299.06865 40.7643,-120.57466 48.2799,-250.260543 40.0052,-377.27039 -8.1939,-125.76847 -32.7652,-253.75545 -99.0859,-360.93014 -33.1603,-53.58735 -76.6231,-101.23438 -129.1488,-136.05194 -52.5257,-34.81756 -114.2857,-56.47084 -177.2757,-58.33401 -59.2754,-1.7533 -118.8012,14.17368 -169.8949,44.27476 -51.0938,30.10109 -93.5488,74.11992 -123.8474,125.0968 -30.2986,50.97687 -48.4612,108.57159 -57.6488,167.15687 -9.1875,58.58528 -9.5133,118.15354 -9.4532,177.454828 l 0.4191,413.782372 4.2261,-415.452462 c 0.6125,-60.211108 0.6418,-120.788268 -9.7127,-180.105528 -10.3546,-59.31725 -31.1881,-117.19975 -64.63577,-167.26975 -33.44769,-50.07 -79.2911,-91.87327 -132.53535,-119.99449 -53.24425,-28.12122 -113.50767,-42.5287 -173.72176,-42.65711 -127.36357,-0.2716 -251.98074,65.2553 -328.38285,167.15854 -76.40211,101.90324 -104.5408,237.20901 -80.56195,362.29525 20.63179,107.626201 78.82544,207.67443 162.17693,278.81935 83.35149,71.14492 191.29696,112.90523 300.82777,116.37971"
       id="path4370-9-0-9-6"
       inkscape:path-effect="#path-effect4372-5-0-6-94"
       inkscape:original-d="m 1079.041,633.42617 c 0,0 347.9035,89.12459 479.9601,-1.1913 199.8735,-136.69712 296.1625,-436.19015 265.1136,-676.33904 -29.3893,-227.31306 -176.3153,-557.4507 -405.5104,-555.31609 -209.3252,1.94955 -349.7918,302.08215 -360.8443,513.983258 l 0.4191,413.782372 4.2261,-415.452462 c -12.48,-258.231018 -168.48397,-508.268018 -380.60558,-510.026878 -222.99138,-1.84898 -431.93586,307.64309 -408.9448,529.45379 20.91999,201.82964 269.0002,490.55718 463.0047,395.19906"
       inkscape:connector-curvature="0"
       sodipodi:nodetypes="caaacccaac" />
    <path
       style="color:#000000;font-style:normal;font-variant:normal;font-weight:normal;font-stretch:normal;font-size:medium;line-height:normal;font-family:sans-serif;text-indent:0;text-align:start;text-decoration:none;text-decoration-line:none;text-decoration-style:solid;text-decoration-color:#000000;letter-spacing:normal;word-spacing:normal;text-transform:none;direction:ltr;block-progression:tb;writing-mode:lr-tb;baseline-shift:baseline;text-anchor:start;white-space:normal;clip-rule:nonzero;display:inline;overflow:visible;visibility:visible;opacity:1;isolation:auto;mix-blend-mode:normal;color-interpolation:sRGB;color-interpolation-filters:linearRGB;solid-color:#000000;solid-opacity:1;fill:#000000;fill-opacity:1;fill-rule:evenodd;stroke:none;stroke-width:140;stroke-linecap:round;stroke-linejoin:round;stroke-miterlimit:4;stroke-dasharray:none;stroke-dashoffset:0;stroke-opacity:1;color-rendering:auto;image-rendering:auto;shape-rendering:auto;text-rendering:auto;enable-background:accumulate"
       d="m 1422.3984,1122.8027 c -68.4428,0.483 -135.4053,19.6921 -193.789,54.0879 -62.1975,36.6427 -112.5607,89.1918 -148.4903,149.6426 -2.2705,3.8202 -4.3025,7.7284 -6.4511,11.5938 -3.848,-6.4451 -7.7727,-12.8593 -11.9727,-19.1465 -39.8619,-59.6719 -94.14692,-109.2567 -158.05077,-143.0078 -63.80089,-33.6968 -134.98326,-50.6078 -206.26367,-50.7598 -151.47015,-0.323 -294.86176,75.5586 -384.53906,195.168 -89.29373,119.0977 -120.94718,273.267 -93.30469,417.4648 23.70379,123.6515 89.71813,237.1446 185.48047,318.8828 95.76232,81.7382 218.21503,129.1097 344.05469,133.1016 a 70.007,70.007 0 1 0 4.4375,-139.9278 c -93.22198,-2.9571 -186.66089,-39.1066 -257.60157,-99.6582 -70.94064,-60.5515 -121.31329,-147.1549 -138.87304,-238.7558 -20.31517,-105.9746 4.30982,-222.4163 67.82031,-307.125 63.12691,-84.1971 168.96961,-139.3706 272.22656,-139.1504 49.14777,0.1048 98.49208,12.009 141.17969,34.5547 42.58467,22.4913 79.98608,56.5123 107.01953,96.9804 27.06389,40.5137 44.9389,89.1761 53.88477,140.4239 3.10898,17.8103 5.12758,36.2493 6.47848,55.1836 -2.4604,39.386 -2.4905,77.7079 -2.4531,114.625 l 0.4199,413.7832 a 70.007,70.007 0 0 0 139.9961,0.6406 l 4.2266,-415.4512 c 0.3701,-36.3886 0.6013,-74.3244 -1.7656,-113.3613 1.28,-17.8458 3.0686,-35.3172 5.7304,-52.291 8.0879,-51.5727 23.9234,-100.6059 48.668,-142.2383 24.6676,-41.5028 59.215,-76.9893 99.2051,-100.5488 39.9114,-23.5132 86.9265,-35.9592 132.2949,-34.6172 48.3206,1.4293 98.0661,18.4703 140.6699,46.7109 42.8345,28.3937 79.7703,68.4388 108.2988,114.541 57.2699,92.5485 80.9539,208.8631 88.7579,328.6465 7.895,121.1812 0.2581,241.6779 -36.4649,350.2989 -36.4651,107.8585 -104.5632,205.3231 -195.7656,262.0488 -60.2814,37.4936 -132.0257,58.0797 -203.0156,58.2558 -70.9901,0.1763 -142.8322,-20.0542 -203.2989,-57.248 a 70.007,70.007 0 1 0 -73.3515,119.2461 c 83.0311,51.0735 179.5167,78.2439 276.998,78.0019 97.4815,-0.2418 193.8309,-27.89 276.6074,-79.375 124.9558,-77.7194 209.3879,-202.799 254.4512,-336.0898 44.8057,-132.5283 52.1995,-271.4036 43.5449,-404.2422 -8.5838,-131.7536 -34.0425,-271.4119 -109.414,-393.2129 -37.7923,-61.0724 -87.7812,-116.3209 -149.9981,-157.5625 -62.4475,-41.3943 -136.2215,-67.6619 -213.8808,-69.959 -4.5739,-0.1353 -9.1442,-0.1865 -13.7071,-0.1543 z"
       id="path4370-9-0-9-6-6"
       inkscape:connector-curvature="0" />
    <path
       style="fill:none;fill-rule:evenodd;stroke:#000000;stroke-width:70;stroke-linecap:round;stroke-linejoin:round;stroke-miterlimit:4;stroke-dasharray:none;stroke-opacity:1"
       d="m -2292.959,639.4262 c 71.7488,44.13403 155.9136,67.83469 240.1494,67.62561 84.2357,-0.20908 168.2819,-24.32725 239.8107,-68.81691 108.0786,-67.22299 184.3429,-178.49466 225.1068,-299.06923 40.7639,-120.57457 48.2799,-250.260067 40.0068,-377.269834 -8.1923,-125.769656 -32.761,-253.758466 -99.0815,-360.934556 -33.1602,-53.58804 -76.6235,-101.23556 -129.1502,-136.05263 -52.5266,-34.81708 -114.2881,-56.46884 -177.2787,-58.3289 -59.2741,-1.75032 -118.7976,14.17981 -169.8888,44.28266 -51.0911,30.10284 -93.5434,74.12198 -123.8409,125.09797 -30.2974,50.97599 -48.4606,108.56879 -57.6505,167.15234 -9.1899,58.58355 -9.5199,118.15034 -9.4641,177.450286 l 0.4191,445.782374 4.2261,-447.452464 c 0.569,-60.240936 0.5642,-120.843666 -9.772,-180.193966 -10.3361,-59.3503 -31.1013,-117.28288 -64.4906,-167.42719 -33.3892,-50.14431 -79.1971,-92.04879 -132.469,-120.18073 -53.2718,-28.13194 -113.6308,-42.4472 -173.874,-42.22499 -126.7694,0.4676 -250.0442,67.04324 -325.6679,168.78673 -75.6238,101.74348 -104.0236,235.60602 -83.2769,360.667056 18.5023,111.531665 75.1047,216.385254 158.1956,293.050444 83.0909,76.6652 192.1517,124.66364 304.8091,134.14862"
       id="path4370-9-0-9-6-1"
       inkscape:path-effect="#path-effect4372-5-0-6-94-29"
       inkscape:original-d="m -2292.959,639.4262 c 0,0 347.9035,89.1246 479.9601,-1.1913 199.8735,-136.6971 296.1625,-436.19018 265.1136,-676.339064 -29.3893,-227.313056 -176.3153,-557.450696 -405.5104,-555.316086 -209.3252,1.94955 -349.7918,302.08215 -360.8443,513.983256 l 0.4191,445.782374 4.2261,-447.452464 c -12.48,-258.231016 -168.484,-508.268016 -380.6056,-510.026876 -222.9914,-1.84898 -427.6459,307.24028 -408.9448,529.453786 17.6104,209.252974 269.0002,522.557174 463.0047,427.199064"
       inkscape:connector-curvature="0"
       sodipodi:nodetypes="caaacccaac" />
    <path
       style="color:#000000;font-style:normal;font-variant:normal;font-weight:normal;font-stretch:normal;font-size:medium;line-height:normal;font-family:sans-serif;text-indent:0;text-align:start;text-decoration:none;text-decoration-line:none;text-decoration-style:solid;text-decoration-color:#000000;letter-spacing:normal;word-spacing:normal;text-transform:none;direction:ltr;block-progression:tb;writing-mode:lr-tb;baseline-shift:baseline;text-anchor:start;white-space:normal;clip-rule:nonzero;display:inline;overflow:visible;visibility:visible;opacity:1;isolation:auto;mix-blend-mode:normal;color-interpolation:sRGB;color-interpolation-filters:linearRGB;solid-color:#000000;solid-opacity:1;fill:#000000;fill-opacity:1;fill-rule:evenodd;stroke:none;stroke-width:70;stroke-linecap:round;stroke-linejoin:round;stroke-miterlimit:4;stroke-dasharray:none;stroke-dashoffset:0;stroke-opacity:1;color-rendering:auto;image-rendering:auto;shape-rendering:auto;text-rendering:auto;enable-background:accumulate"
       d="m -1736.3633,1091.5957 c -66.2278,-1.9556 -132.0055,15.7145 -188.6875,49.1113 a 35.0035,35.0035 0 0 0 -0,0 c -56.6425,33.3738 -103.0476,81.6587 -136.1602,137.3711 -14.301,24.0618 -25.8918,49.3305 -35.3887,75.2344 -11.155,-28.3355 -25.0116,-55.7414 -42.123,-81.4395 -36.5885,-54.949 -86.6212,-100.7674 -145.2578,-131.7324 -58.5898,-30.9403 -124.4738,-46.5164 -190.3477,-46.2734 -138.9393,0.5125 -271.5025,72.4141 -353.6289,182.9062 -81.889,110.1728 -111.9654,253.1473 -89.7148,387.2735 19.8087,119.407 80.0322,230.9683 168.9902,313.0469 88.958,82.0785 204.9952,133.146 325.6074,143.3007 a 35.0035,35.0035 0 1 0 5.8711,-69.7519 c -104.7026,-8.8153 -206.7859,-53.7443 -284.0097,-124.9961 -77.2238,-71.2518 -130.2065,-169.3983 -147.4024,-273.0547 -19.2428,-115.9958 7.4815,-240.7463 76.8399,-334.0606 69.121,-92.9948 183.1058,-154.2433 297.705,-154.666 54.6126,-0.2014 109.4486,12.8522 157.4024,38.1758 47.9069,25.2988 89.4898,63.2894 119.6797,108.6289 30.207,45.3652 49.5054,98.6963 59.1425,154.0332 3.5007,20.1005 5.7272,40.6176 7.1504,61.4551 -2.495,38.7026 -2.5782,76.9599 -2.5429,114.4375 l 0.4199,445.4199 0,0.3633 a 35.0035,35.0035 0 0 0 69.998,0.2969 l 4.2266,-447.4531 c 0.3484,-36.8813 0.5125,-74.6191 -1.8887,-112.8106 1.3477,-19.5622 3.3058,-38.8823 6.2852,-57.875 8.6399,-55.0778 25.6394,-108.391 53.1601,-154.6953 27.4824,-46.2395 65.9818,-85.9922 111.5215,-112.8242 45.5005,-26.8088 98.7675,-40.9981 151.0879,-39.4531 55.6554,1.6434 111.4092,20.989 158.9746,52.5175 47.6808,31.605 87.8824,75.4517 118.7266,125.2969 61.7949,99.8626 85.9206,222.0138 93.918,344.791 8.0832,124.0957 0.505,249.1892 -38.2383,363.7871 -38.6144,114.2166 -110.7952,218.5841 -210.4356,280.5586 -65.9049,40.9918 -143.7993,63.3445 -221.4121,63.5371 -77.6129,0.1927 -155.6169,-21.7734 -221.7246,-62.4375 a 35.0035,35.0035 0 1 0 -36.6758,59.6231 c 77.3899,47.6039 167.7155,73.038 258.5742,72.8125 90.8586,-0.2256 181.0564,-26.1081 258.209,-74.0957 116.5171,-72.4715 196.864,-190.6477 239.7774,-317.5801 42.7845,-126.5513 50.2402,-260.83 41.7773,-390.7539 -8.3872,-128.7619 -33.4,-262.5866 -104.2461,-377.0762 -35.4762,-57.3308 -82.2016,-108.7794 -139.5742,-146.8086 -57.488,-38.1057 -125.2582,-62.0639 -195.584,-64.1406 z"
       id="path4370-9-0-9-6-1-7"
       inkscape:connector-curvature="0" />
    <path
       style="color:#000000;font-style:normal;font-variant:normal;font-weight:normal;font-stretch:normal;font-size:medium;line-height:normal;font-family:sans-serif;text-indent:0;text-align:start;text-decoration:none;text-decoration-line:none;text-decoration-style:solid;text-decoration-color:#000000;letter-spacing:normal;word-spacing:normal;text-transform:none;direction:ltr;block-progression:tb;writing-mode:lr-tb;baseline-shift:baseline;text-anchor:start;white-space:normal;clip-rule:nonzero;display:inline;overflow:visible;visibility:visible;opacity:1;isolation:auto;mix-blend-mode:normal;color-interpolation:sRGB;color-interpolation-filters:linearRGB;solid-color:#000000;solid-opacity:1;fill:#000000;fill-opacity:1;fill-rule:evenodd;stroke:none;stroke-width:200;stroke-linecap:round;stroke-linejoin:round;stroke-miterlimit:4;stroke-dasharray:none;stroke-dashoffset:0;stroke-opacity:1;color-rendering:auto;image-rendering:auto;shape-rendering:auto;text-rendering:auto;enable-background:accumulate"
       d="m 3702.7734,-670.32031 c -63.8372,-0.71053 -127.4859,12.926 -185.7832,40.74219 -61.5609,29.37348 -114.1704,73.4242 -154.625,126.92773 -45.4249,-56.95659 -104.4787,-101.21191 -171.1445,-129.10938 -67.9135,-28.41956 -140.2632,-38.86011 -210.5605,-35.24218 -144.6217,7.4431 -281.3643,74.56912 -375.8711,184.125 -94.4849,109.53038 -140.7347,254.42454 -127.5157,398.343747 12.7377,138.677681 79.8624,268.268973 185.7852,358.679683 105.9227,90.41076 244.4489,136.35225 383.4062,127.1543 a 100.01,100.01 0 1 0 -13.2109,-199.56445 c -85.1529,5.63649 -175.4423,-24.30741 -240.3516,-79.71094 -64.9093,-55.403547 -108.6612,-139.870157 -116.4668,-224.85156 -8.0851,-88.02501 22.1374,-182.57752 79.793,-249.41406 57.6336,-66.81107 146.7198,-110.49684 234.711,-115.02539 43.2303,-2.2249 86.1234,4.5404 123.0761,20.0039 36.6216,15.32493 69.8256,40.56846 93.7871,71.375 23.9546,30.79755 41.0841,70.29359 49.7305,112.86133 3.1322,15.42035 5.2075,31.83842 6.5879,49.11328 -2.3226,35.88253 -2.3941,70.23444 -2.3613,102.57617 l 0.4199,413.78321 a 100.01,100.01 0 0 0 199.9941,0.91601 l 4.2266,-415.45312 c 0.3245,-31.90217 0.5261,-65.92421 -1.6348,-101.52344 1.3279,-16.08897 3.1794,-31.5397 5.8965,-46.1836 8.0065,-43.15152 23.5303,-83.12145 45.7324,-114.99609 22.1268,-31.76641 52.8495,-58.11687 86.7227,-74.2793 33.9752,-16.21104 73.7112,-23.51721 111.9629,-20.63085 40.121,3.02739 81.5838,17.27002 118.2695,40.15429 36.8827,23.00711 70.1712,55.20671 97.3457,92.95313 54.5326,75.74772 84.9999,174.54799 98.209,279.0332 14.5959,115.455575 8.1527,231.64236 -27.707,334.31055 -35.5188,101.69165 -103.0425,192.20706 -189.3301,243.54883 -56.4694,33.59972 -123.2224,52.04588 -188.9317,52.20898 -65.7093,0.1631 -132.5519,-17.95051 -189.1875,-51.26953 a 100.01,100.01 0 1 0 -101.414,172.38086 c 88.0438,51.79664 188.948,79.14221 291.0976,78.88867 102.1496,-0.25354 202.9176,-28.09893 290.7032,-80.33203 134.079,-79.778 226.8411,-209.08686 275.8769,-349.47852 48.6947,-139.41511 54.878,-286.397181 37.3125,-425.341794 -15.9491,-126.159116 -53.0192,-257.876076 -134.3164,-370.800786 -40.7403,-56.58978 -92.0643,-107.27868 -153.8066,-145.79296 -61.9391,-38.63714 -133.2827,-64.17765 -209.0723,-69.89649 -9.1122,-0.68758 -18.2359,-1.08209 -27.3555,-1.18359 z"
       id="path4370-9-0-9-6-9"
       inkscape:connector-curvature="0" />
  </g>
</svg>
