<?xml version="1.0" encoding="UTF-8" standalone="no"?>
<!-- Created with Inkscape (http://www.inkscape.org/) -->

<svg
   xmlns:dc="http://purl.org/dc/elements/1.1/"
   xmlns:cc="http://creativecommons.org/ns#"
   xmlns:rdf="http://www.w3.org/1999/02/22-rdf-syntax-ns#"
   xmlns:svg="http://www.w3.org/2000/svg"
   xmlns="http://www.w3.org/2000/svg"
   xmlns:sodipodi="http://sodipodi.sourceforge.net/DTD/sodipodi-0.dtd"
   xmlns:inkscape="http://www.inkscape.org/namespaces/inkscape"
   width="2000"
   height="2048"
   id="svg2992"
   version="1.1"
   inkscape:version="0.92.2 (5c3e80d, 2017-08-06)"
   sodipodi:docname="€.svg">
  <defs
     id="defs5498">
    <inkscape:path-effect
       effect="spiro"
       id="path-effect844"
       is_visible="true" />
    <inkscape:path-effect
       effect="spiro"
       id="path-effect4161"
       is_visible="true" />
    <inkscape:path-effect
       effect="spiro"
       id="path-effect844-7"
       is_visible="true" />
  </defs>
  <sodipodi:namedview
     inkscape:window-height="1685"
     inkscape:window-width="3200"
     inkscape:pageshadow="2"
     inkscape:pageopacity="0.0"
     borderopacity="1.0"
     bordercolor="#666666"
     pagecolor="#ffffff"
     id="base"
     showgrid="true"
     showguides="true"
     inkscape:guide-bbox="true"
     inkscape:zoom="0.45254834"
     inkscape:cx="3830.5748"
     inkscape:cy="953.51795"
     inkscape:window-x="0"
     inkscape:window-y="0"
     inkscape:current-layer="layer1"
     inkscape:window-maximized="1"
     inkscape:snap-grids="false"
     inkscape:snap-to-guides="false"
     inkscape:measure-start="4045.98,1144.63"
     inkscape:measure-end="3396.32,1579.94">
    <inkscape:grid
       type="xygrid"
       id="grid3769"
       empspacing="3"
       visible="true"
       enabled="true"
       snapvisiblegridlinesonly="true"
       spacingx="4"
       units="px"
       dotted="true"
       spacingy="4"
       originx="0"
       originy="0" />
    <sodipodi:guide
       orientation="0,1"
       position="-199.3605,1601.114"
       id="guide2985"
       inkscape:locked="false" />
    <sodipodi:guide
       orientation="0,1"
       position="-192,576"
       id="guide4311"
       inkscape:locked="false" />
  </sodipodi:namedview>
  <metadata
     id="metadata5594">
    <rdf:RDF>
      <cc:Work
         rdf:about="">
        <dc:format>image/svg+xml</dc:format>
        <dc:type
           rdf:resource="http://purl.org/dc/dcmitype/StillImage" />
        <dc:title />
      </cc:Work>
    </rdf:RDF>
  </metadata>
  <g
     inkscape:label="Layer 1"
     inkscape:groupmode="layer"
     id="layer1"
     transform="translate(0,1048)">
    <path
       style="fill:none;stroke:#000000;stroke-width:116.85787201;stroke-linecap:round;stroke-linejoin:miter;stroke-miterlimit:4;stroke-dasharray:none;stroke-opacity:1"
       d="m 1141.2184,-646.87954 c -157.41762,-52.11832 -340.08932,-19.96562 -470.25046,82.77048 -130.16114,102.73609 -203.86732,272.94227 -189.74131,438.16056 12.83993,150.176173 97.14634,292.66466 222.59489,376.2135 125.44855,83.54883 289.42309,106.41565 432.94328,60.37544"
       id="path842"
       inkscape:connector-curvature="0"
       inkscape:path-effect="#path-effect844"
       inkscape:original-d="M 1141.2184,-646.87954 C 888.01178,-1195.3609 469.92918,-405.99009 481.22663,-125.9485 491.80939,136.37703 928.63312,449.46348 1136.7648,310.64044"
       sodipodi:nodetypes="cac" />
    <path
       style="fill:none;fill-rule:evenodd;stroke:#000000;stroke-width:116.85787201;stroke-linecap:round;stroke-linejoin:round;stroke-miterlimit:4;stroke-dasharray:none;stroke-opacity:1"
       d="m 276.16578,-265.20646 726.58432,3.28643"
       id="path4157-2-8"
       inkscape:connector-curvature="0"
       sodipodi:nodetypes="cc" />
    <path
       style="fill:none;fill-rule:evenodd;stroke:#000000;stroke-width:116.85787201;stroke-linecap:round;stroke-linejoin:round;stroke-miterlimit:4;stroke-dasharray:none;stroke-opacity:1"
       d="m 328.1382,-69.927447 605.74431,3.257209"
       id="path4157-2-89"
       inkscape:connector-curvature="0"
       sodipodi:nodetypes="cc" />
    <path
       style="color:#000000;font-style:normal;font-variant:normal;font-weight:normal;font-stretch:normal;font-size:medium;line-height:normal;font-family:sans-serif;font-variant-ligatures:normal;font-variant-position:normal;font-variant-caps:normal;font-variant-numeric:normal;font-variant-alternates:normal;font-feature-settings:normal;text-indent:0;text-align:start;text-decoration:none;text-decoration-line:none;text-decoration-style:solid;text-decoration-color:#000000;letter-spacing:normal;word-spacing:normal;text-transform:none;writing-mode:lr-tb;direction:ltr;text-orientation:mixed;dominant-baseline:auto;baseline-shift:baseline;text-anchor:start;white-space:normal;shape-padding:0;clip-rule:nonzero;display:inline;overflow:visible;visibility:visible;opacity:1;isolation:auto;mix-blend-mode:normal;color-interpolation:sRGB;color-interpolation-filters:linearRGB;solid-color:#000000;solid-opacity:1;vector-effect:none;fill:#000000;fill-opacity:1;fill-rule:nonzero;stroke:none;stroke-width:100;stroke-linecap:round;stroke-linejoin:miter;stroke-miterlimit:4;stroke-dasharray:none;stroke-dashoffset:0;stroke-opacity:1;color-rendering:auto;image-rendering:auto;shape-rendering:auto;text-rendering:auto;enable-background:accumulate"
       d="M 3201.6426 380.51562 C 3078.628 381.03407 2956.1089 421.92389 2858.6309 498.86328 C 2765.8491 572.09584 2699.5768 674.98175 2668.3301 787.79688 L 2495.0332 787.01367 A 50.005 50.005 0 1 0 2494.582 887.01172 L 2650.2129 887.71484 C 2647.5125 918.48017 2647.401 949.5377 2650.0508 980.5293 C 2650.1169 981.30289 2650.1961 982.07454 2650.2656 982.84766 L 2547.0488 982.29297 A 50.005 50.005 0 1 0 2546.5117 1082.291 L 2668.9199 1082.9492 C 2704.7841 1208.7999 2785.1213 1321.0881 2894.748 1394.0996 C 3033.4241 1486.4579 3212.0265 1511.3654 3370.6797 1460.4707 A 50.005 50.005 0 1 0 3340.1328 1365.25 C 3211.7456 1406.4357 3062.4009 1385.6085 2950.1797 1310.8691 C 2869.6263 1257.2205 2807.3354 1175.2129 2774.3438 1083.5156 L 3152.2559 1085.5488 A 50.005 50.005 0 1 0 3152.793 985.54883 L 2750.8242 983.38867 C 2750.396 979.60064 2750.0121 975.80818 2749.6875 972.01172 C 2747.3078 944.1785 2747.7707 916.07283 2750.8633 888.17188 L 3221.166 890.29883 A 50.005 50.005 0 1 0 3221.6172 790.29883 L 2773.4199 788.27148 C 2801.7843 705.80476 2852.8626 630.81293 2920.5879 577.35742 C 3036.8732 485.57346 3203.5083 456.24244 3344.1445 502.80469 A 50.005 50.005 0 1 0 3375.5762 407.87305 C 3321.139 389.84982 3264.3077 380.8744 3207.5 380.52148 C 3205.5472 380.50935 3203.5952 380.5074 3201.6426 380.51562 z "
       transform="translate(0,-1048)"
       id="path842-7" />
  </g>
</svg>
