<?xml version="1.0" encoding="UTF-8" standalone="no"?>
<!-- Created with Inkscape (http://www.inkscape.org/) -->

<svg
   xmlns:dc="http://purl.org/dc/elements/1.1/"
   xmlns:cc="http://creativecommons.org/ns#"
   xmlns:rdf="http://www.w3.org/1999/02/22-rdf-syntax-ns#"
   xmlns:svg="http://www.w3.org/2000/svg"
   xmlns="http://www.w3.org/2000/svg"
   xmlns:sodipodi="http://sodipodi.sourceforge.net/DTD/sodipodi-0.dtd"
   xmlns:inkscape="http://www.inkscape.org/namespaces/inkscape"
   width="2000"
   height="2048"
   id="svg2992"
   version="1.1"
   inkscape:version="0.91pre3 r13670"
   sodipodi:docname="&amp;.svg">
  <defs
     id="defs5498">
    <inkscape:path-effect
       effect="spiro"
       id="path-effect4183"
       is_visible="true" />
    <inkscape:path-effect
       effect="spiro"
       id="path-effect4179"
       is_visible="true" />
    <inkscape:path-effect
       effect="spiro"
       id="path-effect4183-3"
       is_visible="true" />
  </defs>
  <sodipodi:namedview
     inkscape:window-height="851"
     inkscape:window-width="1600"
     inkscape:pageshadow="2"
     inkscape:pageopacity="0.0"
     borderopacity="1.0"
     bordercolor="#666666"
     pagecolor="#ffffff"
     id="base"
     showgrid="true"
     showguides="true"
     inkscape:guide-bbox="true"
     inkscape:zoom="0.227"
     inkscape:cx="-778.33518"
     inkscape:cy="527.9074"
     inkscape:window-x="-1"
     inkscape:window-y="-1"
     inkscape:current-layer="layer1"
     inkscape:window-maximized="1">
    <sodipodi:guide
       orientation="horizontal"
       position="0,600"
       id="guide5596" />
    <inkscape:grid
       type="xygrid"
       id="grid3769"
       empspacing="3"
       visible="true"
       enabled="true"
       snapvisiblegridlinesonly="true"
       spacingx="4px"
       units="px"
       dotted="true"
       spacingy="4px" />
    <sodipodi:guide
       orientation="0,1"
       position="-1040,1600"
       id="guide2985" />
  </sodipodi:namedview>
  <metadata
     id="metadata5594">
    <rdf:RDF>
      <cc:Work
         rdf:about="">
        <dc:format>image/svg+xml</dc:format>
        <dc:type
           rdf:resource="http://purl.org/dc/dcmitype/StillImage" />
        <dc:title />
      </cc:Work>
    </rdf:RDF>
  </metadata>
  <g
     inkscape:label="Layer 1"
     inkscape:groupmode="layer"
     id="layer1"
     transform="translate(0,1048)">
    <g
       id="g4139"
       transform="matrix(1,0,0,-1,0,386)">
      <g
         id="g4141" />
    </g>
    <g
       id="g4153"
       transform="matrix(1,0,0,-1,0,386)">
      <g
         id="g4155" />
    </g>
    <g
       id="g4167"
       transform="matrix(1,0,0,-1,-1104,327)" />
    <path
       style="fill:none;fill-rule:evenodd;stroke:#000000;stroke-width:140;stroke-linecap:round;stroke-linejoin:round;stroke-miterlimit:4;stroke-dasharray:none;stroke-opacity:1"
       d="m 876.05286,-248 c -2.03006,56.63839 -10.09011,113.05873 -24,167.999999 C 825.90846,23.265158 777.94191,122.58784 703.47897,198.76194 629.01603,274.93604 526.56257,326.29603 420.05286,328 319.21283,329.61326 217.52444,284.55323 154.94505,205.46383 123.65535,165.91913 102.19635,118.54941 93.792275,68.82819 85.388202,19.106966 90.132196,-32.865318 108.05286,-80.000001 c 26.1273,-68.719669 78.76021,-124.611899 138.07302,-168.051729 59.31281,-43.43984 125.75123,-75.92126 190.41837,-110.89539 64.66713,-34.97414 128.70348,-73.27567 180.00829,-125.93348 51.30481,-52.65781 89.23897,-121.63529 91.50032,-195.1194 1.78545,-58.01953 -19.43775,-116.41731 -57.97988,-159.8219 -38.54213,-43.40458 -93.97903,-71.37469 -151.78224,-76.68911 -72.93152,-6.70532 -148.33348,23.60193 -196.28079,78.96459 -47.94731,55.36266 -67.17315,134.35952 -49.95709,205.54642 15.28215,63.19036 56.15985,116.6256 96,168 206.26247,265.97813 412.13648,532.257512 617.62115,798.837"
       id="path4181"
       inkscape:path-effect="#path-effect4183"
       inkscape:original-d="m 876.05286,-248 c 0,0 -6.17204,114.31421 -24,167.999999 C 786.72149,121.68489 617.48121,343.93885 420.05286,328 249.40061,314.22285 96.714258,90.831601 108.05286,-80.000001 126.78476,-362.22175 699.58768,-397.28399 708.05286,-680 711.20666,-785.32916 603.66517,-917.1496 498.29074,-916.51101 372.86949,-915.75094 264.21642,-756.83235 252.05286,-632 c -6.25501,64.19404 60.18819,114.35753 96,168 186.88418,279.93356 617.62115,798.837 617.62115,798.837"
       inkscape:connector-curvature="0"
       sodipodi:nodetypes="ccaaaaaac" />
    <path
       style="color:#000000;font-style:normal;font-variant:normal;font-weight:normal;font-stretch:normal;font-size:medium;line-height:normal;font-family:sans-serif;text-indent:0;text-align:start;text-decoration:none;text-decoration-line:none;text-decoration-style:solid;text-decoration-color:#000000;letter-spacing:normal;word-spacing:normal;text-transform:none;direction:ltr;block-progression:tb;writing-mode:lr-tb;baseline-shift:baseline;text-anchor:start;white-space:normal;clip-rule:nonzero;display:inline;overflow:visible;visibility:visible;opacity:1;isolation:auto;mix-blend-mode:normal;color-interpolation:sRGB;color-interpolation-filters:linearRGB;solid-color:#000000;solid-opacity:1;fill:#000000;fill-opacity:1;fill-rule:evenodd;stroke:none;stroke-width:140;stroke-linecap:round;stroke-linejoin:round;stroke-miterlimit:4;stroke-dasharray:none;stroke-dashoffset:0;stroke-opacity:1;color-rendering:auto;image-rendering:auto;shape-rendering:auto;text-rendering:auto;enable-background:accumulate"
       d="m -490.07227,126.83594 c -83.8056,2.42048 -164.01136,39.87469 -219.52734,103.97656 -63.45818,73.27238 -87.8784,173.5652 -65.08203,267.82617 19.86691,82.14794 68.68763,142.81767 108.72266,194.44336 10.91271,14.07209 21.79649,28.16646 32.70703,42.24024 -40.07856,21.73006 -80.95522,45.24427 -120.67969,74.33789 -66.47874,48.68806 -129.39807,113.52428 -162.14258,199.64844 -22.53678,59.276 -28.31107,123.4778 -17.84961,185.3711 10.44987,61.8248 36.77448,119.7409 75.2793,168.4043 77.44773,97.8804 198.6836,151.0506 321.12109,149.0918 128.28631,-2.0524 246.45884,-62.4184 332.36328,-150.2969 10.63926,-10.8837 20.77024,-22.1347 30.41016,-33.709 42.08841,54.5347 84.231319,109.0281 126.287109,163.5879 a 70.007,70.007 0 1 0 110.882813,-85.4707 c -52.183645,-67.6989 -104.465381,-135.3222 -156.699219,-202.9824 24.113228,-48.846 42.386602,-100.1673 55.494141,-151.9395 15.129302,-59.75768 23.889627,-121.07019 26.097656,-182.67379 a 70.007,70.007 0 1 0 -139.91016,-5.01368 c -1.85209,51.67318 -9.21382,103.20135 -21.90429,153.32617 -5.07378,20.0404 -11.09407,39.7848 -17.95703,59.1231 -76.59024,-99.11463 -153.26499,-198.16408 -229.9629,-297.19536 45.32946,-27.56386 90.30913,-59.61276 130.41602,-100.77734 60.59166,-62.18957 108.36986,-145.62219 111.33008,-241.81641 2.35443,-76.5091 -24.83631,-151.27894 -75.60547,-208.45312 -50.75627,-57.15965 -121.67691,-92.9251 -197.71484,-99.91602 -12.05764,-1.10858 -24.10395,-1.4786 -36.07618,-1.13281 z m 13.93555,140.00195 c 3.12528,0.078 6.23465,0.25909 9.32227,0.54297 39.56848,3.63792 79.52161,23.81142 105.84961,53.46094 26.31509,29.635 41.57193,71.65949 40.35546,111.18945 -1.56248,50.774 -29.65391,105.29777 -71.67187,148.42383 -31.95566,32.79839 -72.07758,60.74719 -116.49805,86.94922 -15.52638,-20.03056 -31.01804,-40.08809 -46.54882,-60.11524 -39.64528,-51.12311 -72.57996,-97.3258 -83.27735,-141.55859 -11.63575,-48.11283 2.39754,-105.81269 34.83399,-143.26563 30.41979,-35.1244 80.75563,-56.79753 127.63476,-55.62695 z m -70.17187,580.76758 c 94.46122,121.95131 188.84863,243.95943 283.14648,366.03713 -12.89387,17.9259 -26.90371,34.816 -42.11133,50.373 -63.02145,64.4697 -149.7571,106.8222 -234.49023,108.1778 -79.24257,1.2677 -161.38271,-35.6821 -209.09375,-95.9805 -24.07458,-30.4261 -40.66712,-67.2476 -47.02539,-104.8652 -6.3467,-37.5491 -2.63462,-77.2918 10.66992,-112.2852 19.5101,-51.3152 61.85702,-98.26346 114.00391,-136.45508 37.14147,-27.20187 79.78479,-50.83854 124.90039,-75.00195 z"
       id="path4181-2"
       inkscape:connector-curvature="0" />
  </g>
</svg>
