<?xml version="1.0" encoding="UTF-8" standalone="no"?>
<!-- Created with Inkscape (http://www.inkscape.org/) -->

<svg
   xmlns:dc="http://purl.org/dc/elements/1.1/"
   xmlns:cc="http://creativecommons.org/ns#"
   xmlns:rdf="http://www.w3.org/1999/02/22-rdf-syntax-ns#"
   xmlns:svg="http://www.w3.org/2000/svg"
   xmlns="http://www.w3.org/2000/svg"
   xmlns:sodipodi="http://sodipodi.sourceforge.net/DTD/sodipodi-0.dtd"
   xmlns:inkscape="http://www.inkscape.org/namespaces/inkscape"
   width="2000"
   height="2048"
   id="svg2992"
   version="1.1"
   inkscape:version="0.91 r13725"
   sodipodi:docname="0.svg">
  <defs
     id="defs5498">
    <inkscape:path-effect
       effect="spiro"
       id="path-effect4137"
       is_visible="true" />
    <inkscape:path-effect
       effect="spiro"
       id="path-effect4137-1"
       is_visible="true" />
    <inkscape:path-effect
       effect="spiro"
       id="path-effect4137-5"
       is_visible="true" />
    <inkscape:path-effect
       effect="spiro"
       id="path-effect4137-0"
       is_visible="true" />
    <inkscape:path-effect
       effect="spiro"
       id="path-effect4137-3"
       is_visible="true" />
    <inkscape:path-effect
       effect="spiro"
       id="path-effect4137-52"
       is_visible="true" />
    <inkscape:path-effect
       effect="spiro"
       id="path-effect4137-9"
       is_visible="true" />
    <inkscape:path-effect
       effect="spiro"
       id="path-effect4137-2"
       is_visible="true" />
    <inkscape:path-effect
       effect="spiro"
       id="path-effect4137-2-9"
       is_visible="true" />
    <inkscape:path-effect
       effect="spiro"
       id="path-effect4137-36"
       is_visible="true" />
    <inkscape:path-effect
       effect="spiro"
       id="path-effect4137-2-3"
       is_visible="true" />
    <inkscape:path-effect
       effect="spiro"
       id="path-effect4137-36-6"
       is_visible="true" />
  </defs>
  <sodipodi:namedview
     inkscape:window-height="843"
     inkscape:window-width="1600"
     inkscape:pageshadow="2"
     inkscape:pageopacity="0.0"
     borderopacity="1.0"
     bordercolor="#666666"
     pagecolor="#ffffff"
     id="base"
     showgrid="true"
     showguides="true"
     inkscape:guide-bbox="true"
     inkscape:zoom="0.25"
     inkscape:cx="-365.70768"
     inkscape:cy="687.26898"
     inkscape:window-x="1600"
     inkscape:window-y="0"
     inkscape:current-layer="layer1"
     inkscape:window-maximized="1">
    <sodipodi:guide
       orientation="horizontal"
       position="0,600"
       id="guide5596" />
    <inkscape:grid
       type="xygrid"
       id="grid3769"
       empspacing="3"
       visible="true"
       enabled="true"
       snapvisiblegridlinesonly="true"
       spacingx="4px"
       units="px"
       dotted="true"
       spacingy="4px" />
    <sodipodi:guide
       orientation="0,1"
       position="-1040,1600"
       id="guide2985" />
    <sodipodi:guide
       position="-1344,1780"
       orientation="0,1"
       id="guide4142"
       inkscape:label=""
       inkscape:color="rgb(0,0,255)" />
    <sodipodi:guide
       position="-1296,2000"
       orientation="0,1"
       id="guide4145"
       inkscape:label=""
       inkscape:color="rgb(0,0,255)" />
  </sodipodi:namedview>
  <metadata
     id="metadata5594">
    <rdf:RDF>
      <cc:Work
         rdf:about="">
        <dc:format>image/svg+xml</dc:format>
        <dc:type
           rdf:resource="http://purl.org/dc/dcmitype/StillImage" />
        <dc:title />
      </cc:Work>
    </rdf:RDF>
  </metadata>
  <g
     inkscape:label="Layer 1"
     inkscape:groupmode="layer"
     id="layer1"
     transform="translate(0,1048)">
    <path
       style="fill:none;fill-rule:evenodd;stroke:#000000;stroke-width:150;stroke-linecap:round;stroke-linejoin:round;stroke-miterlimit:4;stroke-dasharray:none;stroke-opacity:1"
       d="m 697.17169,-922.84759 c 71.14941,1.92627 140.8439,27.44732 199.05935,68.39741 58.21546,40.95008 105.17316,96.8855 139.42936,159.27506 68.5126,124.77911 85.7695,271.57042 83.1716,413.89767 -2.5497,139.68806 -24.352,282.9911591 -95.3094,403.34191 C 988.04389,182.23983 940.41316,235.76445 882.21941,274.40771 824.02566,313.05096 755.06464,336.38191 685.2097,336.6991 614.9182,337.01827 545.32179,314.02008 486.57527,275.42159 427.82875,236.8231 379.73054,183.06791 344.00832,122.52933 272.56388,1.4521678 251.1985,-143.00907 249.98824,-283.58831 c -1.25303,-145.54652 19.09328,-295.66961 92.73733,-421.21608 36.82202,-62.77324 86.81877,-118.37584 147.98475,-157.81012 61.16599,-39.43428 133.71207,-62.20267 206.46137,-60.23308 z"
       id="path10891"
       inkscape:connector-curvature="0"
       sodipodi:nodetypes="aaaaa"
       inkscape:path-effect="#path-effect4137"
       inkscape:original-d="m 697.17169,-922.84759 c 314.84141,3.03256 425.85561,402.60216 421.66031,641.57014 C 1114.735,-47.912609 992.69369,336.70158 685.2097,336.6991 376.57936,336.6971 250.18099,-49.33273 249.98824,-283.58831 249.78971,-524.84843 379.3385,-925.90899 697.17169,-922.84759 Z" />
    <path
       style="color:#000000;font-style:normal;font-variant:normal;font-weight:normal;font-stretch:normal;font-size:medium;line-height:normal;font-family:sans-serif;text-indent:0;text-align:start;text-decoration:none;text-decoration-line:none;text-decoration-style:solid;text-decoration-color:#000000;letter-spacing:normal;word-spacing:normal;text-transform:none;direction:ltr;block-progression:tb;writing-mode:lr-tb;baseline-shift:baseline;text-anchor:start;white-space:normal;clip-rule:nonzero;display:inline;overflow:visible;visibility:visible;opacity:1;isolation:auto;mix-blend-mode:normal;color-interpolation:sRGB;color-interpolation-filters:linearRGB;solid-color:#000000;solid-opacity:1;fill:#000000;fill-opacity:1;fill-rule:evenodd;stroke:none;stroke-width:150;stroke-linecap:round;stroke-linejoin:round;stroke-miterlimit:4;stroke-dasharray:none;stroke-dashoffset:0;stroke-opacity:1;color-rendering:auto;image-rendering:auto;shape-rendering:auto;text-rendering:auto;enable-background:accumulate"
       d="m 720.41602,538.07422 c -83.71381,1.20853 -164.0817,28.26495 -232.34571,72.27539 -72.50747,46.74626 -130.0036,111.24079 -172.03711,182.89844 -83.79571,142.85278 -104.35999,306.82935 -103.04297,459.80855 1.27188,147.7352 23.0379,305.6596 104.42579,443.5879 40.82136,69.1802 96.22365,131.6289 165.97656,177.459 70.0391,46.0181 153.28324,73.9902 240.1582,73.5957 86.32984,-0.392 168.80681,-28.76 238.1582,-74.8125 69.06992,-45.8655 123.90792,-108.018 164.41992,-176.7305 80.7727,-136.9983 103.0164,-293.5121 105.6914,-440.0644 2.7257,-149.3274 -14.5191,-309.48937 -92.418,-451.36328 -39.0707,-71.15817 -93.042,-135.99979 -162.02144,-184.52149 -69.26109,-48.71985 -152.43969,-79.65191 -240.17969,-82.02734 -5.60806,-0.15183 -11.20423,-0.18604 -16.78515,-0.10547 z M 733.14258,688.125 c 54.55882,1.4771 110.76769,21.58725 157.9375,54.76758 47.45148,33.37846 87.39626,80.40834 116.83792,134.0293 59.1263,107.68431 76.3959,241.10462 73.9258,376.43162 -2.4245,132.8239 -23.7857,262.9162 -84.92778,366.6192 -30.44538,51.6383 -70.86794,96.534 -118.18555,127.955 -47.0361,31.2341 -102.48127,49.5291 -155.86133,49.7715 -53.70804,0.2439 -109.65546,-17.7801 -157.10937,-48.959 -47.74013,-31.3669 -88.53515,-76.4291 -119.15821,-128.3261 -61.50099,-104.226 -82.46657,-235.2252 -83.61523,-368.6485 -1.18904,-138.1137 18.93927,-274.38285 82.43164,-382.62302 31.61053,-53.88883 74.10715,-100.60034 123.93164,-132.72266 49.51703,-31.92409 108.02341,-49.80481 163.79297,-48.29492 z"
       id="path10891-6"
       inkscape:connector-curvature="0" />
    <path
       style="fill:none;fill-rule:evenodd;stroke:#000000;stroke-width:74.99999237;stroke-linecap:round;stroke-linejoin:round;stroke-miterlimit:4;stroke-dasharray:none;stroke-opacity:1"
       d="m 2895.6144,-960.49633 c 74.657,2.02234 147.7913,28.7719 208.9017,71.70523 61.1105,42.93333 110.4276,101.58662 146.4238,167.02382 71.9925,130.8744 90.2215,284.89892 87.494,434.24278 -2.677,146.57951 -25.6752,296.9444547 -100.2333,423.17365 -37.2791,63.1146 -87.3027,119.23914 -148.3916,159.75249 -61.0889,40.51335 -133.4557,64.96501 -206.7569,65.29736 -73.7591,0.33442 -146.7919,-23.76844 -208.4603,-64.23475 -61.6684,-40.46631 -112.1824,-96.83234 -149.7171,-160.32768 -75.0695,-126.9906831 -97.6109,-278.57083 -98.8839,-426.08503 -1.318,-152.72752 20.157,-310.2525 97.5391,-441.93179 38.6911,-65.83964 91.1998,-124.14251 155.4086,-165.48364 64.2088,-41.34112 140.3373,-65.20033 216.6759,-63.13244 z"
       id="path10891-7"
       inkscape:connector-curvature="0"
       sodipodi:nodetypes="aaaaa"
       inkscape:path-effect="#path-effect4137-2"
       inkscape:original-d="m 2895.6144,-960.49633 c 330.6404,3.18099 447.2254,422.30755 442.8195,672.97183 -4.3025,244.786904 -132.468,648.22602 -455.3818,648.2235 -324.1177,-0.002 -456.8588,-404.926224 -457.0613,-650.64746 -0.2085,-253.06861 135.8412,-673.75911 469.6236,-670.54787 z" />
    <path
       style="color:#000000;font-style:normal;font-variant:normal;font-weight:normal;font-stretch:normal;font-size:medium;line-height:normal;font-family:sans-serif;text-indent:0;text-align:start;text-decoration:none;text-decoration-line:none;text-decoration-style:solid;text-decoration-color:#000000;letter-spacing:normal;word-spacing:normal;text-transform:none;direction:ltr;block-progression:tb;writing-mode:lr-tb;baseline-shift:baseline;text-anchor:start;white-space:normal;clip-rule:nonzero;display:inline;overflow:visible;visibility:visible;opacity:1;isolation:auto;mix-blend-mode:normal;color-interpolation:sRGB;color-interpolation-filters:linearRGB;solid-color:#000000;solid-opacity:1;fill:#000000;fill-opacity:1;fill-rule:evenodd;stroke:none;stroke-width:74.99999237;stroke-linecap:round;stroke-linejoin:round;stroke-miterlimit:4;stroke-dasharray:none;stroke-dashoffset:0;stroke-opacity:1;color-rendering:auto;image-rendering:auto;shape-rendering:auto;text-rendering:auto;enable-background:accumulate"
       d="m 2991.9746,634.00586 c -182.6927,-1.75762 -313.4501,114.77106 -393.207,258.46875 -79.757,143.69769 -114.3872,316.33599 -114.2774,449.60739 0.1068,129.5963 34.0405,296.5169 111.8262,435.7305 77.7857,139.2136 205.061,252.3867 382.7363,252.3867 177.0741,0 303.008,-112.9408 379.959,-251.6211 76.951,-138.6802 110.6562,-304.8701 112.916,-433.4433 2.3116,-131.5105 -26.1413,-303.0811 -99.8847,-447.04691 -73.7435,-143.96582 -198.9475,-262.33952 -380.0684,-264.08203 z m -0.7207,74.99609 c 149.5195,1.43849 247.9295,94.21856 314.0371,223.27735 66.1077,129.0588 93.7428,292.3833 91.6485,411.5371 -2.0427,116.2137 -34.572,274.1376 -103.5079,398.3731 -68.9358,124.2354 -168.5391,213.0108 -314.3789,213.0097 -146.4423,0 -247.5987,-89.2909 -317.2636,-213.9707 -69.6649,-124.6798 -102.2032,-283.0821 -102.2989,-399.207 -0.099,-119.7972 33.1922,-284.0385 104.8536,-413.15041 71.6613,-129.11193 175.8204,-221.32272 326.9101,-219.86914 z"
       id="path10891-7-7"
       inkscape:connector-curvature="0" />
    <path
       style="fill:none;fill-rule:evenodd;stroke:#000000;stroke-width:140;stroke-linecap:round;stroke-linejoin:round;stroke-miterlimit:4;stroke-dasharray:none;stroke-opacity:1"
       d="m -609.31841,-541.41907 c 52.30604,1.48715 103.83474,17.9059 148.51798,45.13715 44.68325,27.23126 82.57627,65.07624 111.70036,108.54947 58.24817,86.94645 80.51814,194.32875 78.51847,298.964001 -1.97029,103.097622 -27.56785,207.973859 -87.63987,291.785279 -30.03601,41.90571 -68.4574,78.04792 -113.22316,103.62678 -44.76575,25.57885 -95.92546,40.40082 -147.48333,40.59247 -51.8584,0.19277 -103.42378,-14.42227 -148.55349,-39.9691 -45.12971,-25.54684 -83.87133,-61.82734 -114.0941,-103.96895 -60.44552,-84.28324 -85.85,-189.985543 -86.98343,-293.696873 -1.17431,-107.452087 23.73528,-217.632067 86.16275,-305.097147 31.21373,-43.73254 71.54169,-81.22711 118.56921,-107.21259 47.02752,-25.98548 100.80106,-40.23749 154.50861,-38.71049 z"
       id="path10891-75"
       inkscape:connector-curvature="0"
       sodipodi:nodetypes="aaaaa"
       inkscape:path-effect="#path-effect4137-36"
       inkscape:original-d="m -609.31841,-541.41907 c 252.92486,2.13958 342.10706,284.05019 338.73681,452.650621 -3.29129,164.647217 -101.33202,436.006219 -348.34636,436.004529 -247.93525,-0.001 -349.47618,-272.359257 -349.63102,-437.634923 -0.15949,-170.217617 103.9123,-453.180157 359.24057,-451.020227 z" />
    <path
       style="fill:none;fill-rule:evenodd;stroke:#000000;stroke-width:70;stroke-linecap:round;stroke-linejoin:round;stroke-miterlimit:4;stroke-dasharray:none;stroke-opacity:1"
       d="m 4245.1547,-570.9514 c 53.934,1.46098 106.7758,20.74012 150.9553,51.7109 44.1794,30.97079 79.8595,73.30082 105.9017,120.5535 52.0844,94.50537 65.2548,205.82491 62.9151,313.707152 -2.2811,105.182152 -19.4128,212.998938 -73.3704,303.315398 -26.9789,45.15823 -63.0538,85.2629 -106.9897,114.18968 -43.9359,28.92677 -95.8807,46.35871 -148.4836,46.595 -52.9313,0.23777 -105.3515,-16.94652 -149.7015,-45.84048 -44.35,-28.89396 -80.7757,-69.17139 -107.9383,-114.60237 -54.3252,-90.86195 -71.135,-199.551688 -72.4168,-305.407636 -1.336,-110.332394 14.1805,-224.187004 70.1611,-319.272214 27.9902,-47.5426 65.9772,-89.61701 112.3951,-119.43525 46.418,-29.81824 101.422,-47.0076 156.572,-45.51368 z"
       id="path10891-7-5"
       inkscape:connector-curvature="0"
       sodipodi:nodetypes="aaaaa"
       inkscape:path-effect="#path-effect4137-2-3"
       inkscape:original-d="m 4245.1547,-570.9514 c 238.7645,2.29709 323.1137,292.08669 319.7721,485.971552 -3.2672,189.569978 -139.2456,464.103788 -328.8437,464.100078 -190.3079,-0.004 -329.5386,-275.54324 -330.0566,-465.850486 -0.5364,-197.054834 98.0947,-486.540034 339.1282,-484.221144 z" />
    <path
       style="fill:none;fill-rule:evenodd;stroke:#000000;stroke-width:200;stroke-linecap:round;stroke-linejoin:round;stroke-miterlimit:4;stroke-dasharray:none;stroke-opacity:1"
       d="m -1617.3184,-585.41912 c 52.306,1.48715 103.8347,17.9059 148.518,45.13716 44.6832,27.23126 82.5762,65.07624 111.7003,108.54947 58.2482,86.94646 80.5182,194.32875 78.5185,298.96401 -1.9703,103.097609 -27.5678,207.973834 -87.6399,291.78524 -30.036,41.90571 -68.4573,78.04792 -113.2231,103.62678 -44.7657,25.57886 -95.9254,40.40083 -147.4833,40.59249 -51.8584,0.19278 -103.4238,-14.42225 -148.5535,-39.96908 -45.1297,-25.54683 -83.8714,-61.82732 -114.0941,-103.96894 -60.4456,-84.283236 -85.8501,-189.985551 -86.9835,-293.69689 -1.1743,-107.45209 23.7353,-217.63208 86.1628,-305.09716 31.2137,-43.73255 71.5417,-81.22712 118.5692,-107.2126 47.0275,-25.98548 100.801,-40.23748 154.5086,-38.71048 z"
       id="path10891-75-2"
       inkscape:connector-curvature="0"
       sodipodi:nodetypes="aaaaa"
       inkscape:path-effect="#path-effect4137-36-6"
       inkscape:original-d="m -1617.3184,-585.41912 c 252.9249,2.13958 342.1071,284.05019 338.7368,452.65064 -3.2913,164.647205 -101.332,436.0062 -348.3463,436.00451 -247.9353,-0.001 -349.4762,-272.359245 -349.6311,-437.63491 -0.1594,-170.21763 103.9123,-453.18016 359.2406,-451.02024 z" />
  </g>
</svg>
