<?xml version="1.0" encoding="UTF-8" standalone="no"?>
<!-- Created with Inkscape (http://www.inkscape.org/) -->

<svg
   xmlns:dc="http://purl.org/dc/elements/1.1/"
   xmlns:cc="http://creativecommons.org/ns#"
   xmlns:rdf="http://www.w3.org/1999/02/22-rdf-syntax-ns#"
   xmlns:svg="http://www.w3.org/2000/svg"
   xmlns="http://www.w3.org/2000/svg"
   xmlns:sodipodi="http://sodipodi.sourceforge.net/DTD/sodipodi-0.dtd"
   xmlns:inkscape="http://www.inkscape.org/namespaces/inkscape"
   width="2000"
   height="2048"
   id="svg2992"
   version="1.1"
   inkscape:version="0.91 r13725"
   sodipodi:docname="8.svg">
  <defs
     id="defs5498">
    <inkscape:path-effect
       effect="spiro"
       id="path-effect4137"
       is_visible="true" />
    <inkscape:path-effect
       effect="spiro"
       id="path-effect4137-9"
       is_visible="true" />
    <inkscape:path-effect
       effect="spiro"
       id="path-effect4137-9-0"
       is_visible="true" />
    <inkscape:path-effect
       effect="spiro"
       id="path-effect4137-8"
       is_visible="true" />
    <inkscape:path-effect
       effect="spiro"
       id="path-effect4137-9-3"
       is_visible="true" />
    <inkscape:path-effect
       effect="spiro"
       id="path-effect4137-91"
       is_visible="true" />
    <inkscape:path-effect
       effect="spiro"
       id="path-effect4137-9-8"
       is_visible="true" />
    <inkscape:path-effect
       effect="spiro"
       id="path-effect4137-7"
       is_visible="true" />
    <inkscape:path-effect
       effect="spiro"
       id="path-effect4137-9-4"
       is_visible="true" />
    <inkscape:path-effect
       effect="spiro"
       id="path-effect4137-94"
       is_visible="true" />
  </defs>
  <sodipodi:namedview
     inkscape:window-height="851"
     inkscape:window-width="1600"
     inkscape:pageshadow="2"
     inkscape:pageopacity="0.0"
     borderopacity="1.0"
     bordercolor="#666666"
     pagecolor="#ffffff"
     id="base"
     showgrid="true"
     showguides="true"
     inkscape:guide-bbox="true"
     inkscape:zoom="0.5"
     inkscape:cx="-218.25352"
     inkscape:cy="1139.1507"
     inkscape:window-x="1599"
     inkscape:window-y="-1"
     inkscape:current-layer="layer1"
     inkscape:window-maximized="1">
    <sodipodi:guide
       orientation="horizontal"
       position="288,576"
       id="guide5596" />
    <inkscape:grid
       type="xygrid"
       id="grid3769"
       empspacing="3"
       visible="true"
       enabled="true"
       snapvisiblegridlinesonly="true"
       spacingx="4px"
       units="px"
       dotted="true"
       spacingy="4px" />
    <sodipodi:guide
       orientation="0,1"
       position="-1040,1600"
       id="guide2985" />
    <sodipodi:guide
       position="-336,1780"
       orientation="0,1"
       id="guide4147"
       inkscape:label=""
       inkscape:color="rgb(0,0,255)" />
  </sodipodi:namedview>
  <metadata
     id="metadata5594">
    <rdf:RDF>
      <cc:Work
         rdf:about="">
        <dc:format>image/svg+xml</dc:format>
        <dc:type
           rdf:resource="http://purl.org/dc/dcmitype/StillImage" />
        <dc:title />
      </cc:Work>
    </rdf:RDF>
  </metadata>
  <g
     inkscape:label="Layer 1"
     inkscape:groupmode="layer"
     id="layer1"
     transform="translate(0,1048)">
    <path
       style="fill:none;fill-rule:evenodd;stroke:#000000;stroke-width:138.27450562;stroke-linecap:round;stroke-linejoin:round;stroke-miterlimit:4;stroke-dasharray:none;stroke-opacity:1"
       d="m 508.81216,-730.88667 c 70.3847,2.05808 140.14152,30.11057 190.6477,79.17551 50.50618,49.06493 80.74759,119.0098 79.44066,189.41246 -1.30075,70.06964 -33.79808,138.5308 -85.6393,185.68941 -51.84122,47.15862 -122.02948,72.92775 -192.11113,73.02126 -70.38936,0.0939 -140.94798,-25.72023 -193.01122,-73.09206 -52.06324,-47.37182 -84.62224,-116.20588 -85.76346,-186.58605 -1.18405,-73.0219 31.59745,-145.4027 85.55069,-194.6231 53.95324,-49.2204 127.88576,-75.13199 200.88606,-72.99743 z"
       id="path10891"
       inkscape:connector-curvature="0"
       sodipodi:nodetypes="acaca"
       inkscape:path-effect="#path-effect4137"
       inkscape:original-d="m 508.81216,-730.88667 c 201.66698,1.26954 272.77553,168.546 270.08836,268.58797 -2.62442,97.69621 -80.79608,258.71169 -277.75043,258.71067 -197.68859,-8e-4 -278.65123,-161.60898 -278.77468,-259.67811 -0.12717,-101.00152 82.8534,-268.90215 286.43675,-267.62053 z" />
    <path
       style="fill:none;fill-rule:evenodd;stroke:#000000;stroke-width:138.27450562;stroke-linecap:round;stroke-linejoin:round;stroke-miterlimit:4;stroke-dasharray:none;stroke-opacity:1"
       d="m 509.28126,-190.52738 c 77.69493,2.24849 155.46362,29.4385 213.72511,80.88902 58.2615,51.450516 95.4205,127.763661 94.02804,205.478646 C 815.64523,173.37209 775.97742,248.13121 716.20111,297.52658 656.42479,346.92195 578.0949,371.61986 500.55068,371.67682 422.6977,371.73401 344.02831,346.95306 284.02604,297.34643 224.02378,247.7398 184.24998,172.65011 182.89985,94.808823 181.49868,14.024555 221.69007,-65.112118 283.9072,-116.65908 c 62.21714,-51.54696 144.61145,-76.20557 225.37406,-73.8683 z"
       id="path10891-7"
       inkscape:connector-curvature="0"
       sodipodi:nodetypes="acaca"
       inkscape:path-effect="#path-effect4137-9"
       inkscape:original-d="M 509.28126,-190.52738 C 739.07151,-189.17379 820.09639,-10.824127 817.03441,95.840286 814.04409,200.00372 724.971,371.67784 500.55068,371.67682 275.2937,371.67682 183.04054,199.36981 182.89985,94.808823 182.75496,-12.878698 277.30749,-191.89384 509.28126,-190.52738 Z" />
    <path
       style="color:#000000;font-style:normal;font-variant:normal;font-weight:normal;font-stretch:normal;font-size:medium;line-height:normal;font-family:sans-serif;text-indent:0;text-align:start;text-decoration:none;text-decoration-line:none;text-decoration-style:solid;text-decoration-color:#000000;letter-spacing:normal;word-spacing:normal;text-transform:none;direction:ltr;block-progression:tb;writing-mode:lr-tb;baseline-shift:baseline;text-anchor:start;white-space:normal;clip-rule:nonzero;display:inline;overflow:visible;visibility:visible;opacity:1;isolation:auto;mix-blend-mode:normal;color-interpolation:sRGB;color-interpolation-filters:linearRGB;solid-color:#000000;solid-opacity:1;fill:#000000;fill-opacity:1;fill-rule:evenodd;stroke:none;stroke-width:138.27450562;stroke-linecap:round;stroke-linejoin:round;stroke-miterlimit:4;stroke-dasharray:none;stroke-dashoffset:0;stroke-opacity:1;color-rendering:auto;image-rendering:auto;shape-rendering:auto;text-rendering:auto;enable-background:accumulate"
       d="M -511.66992 255.85742 C -514.50304 255.8408 -517.33489 255.85647 -520.16602 255.90625 C -605.09979 257.39963 -688.67607 288.65492 -752.66992 347.03516 C -821.25362 409.60261 -862.28339 499.40949 -860.75195 593.85547 C -859.27697 684.81923 -818.49967 770.30508 -752.39062 830.45703 C -743.89809 838.18431 -735.05572 845.4253 -725.91797 852.19531 C -742.73217 862.13547 -758.89264 873.41843 -774.20117 886.10156 C -851.92398 950.495 -902.03886 1047.5199 -900.22656 1152.0078 C -898.48152 1252.6186 -848.87231 1344.7531 -774.02734 1406.6309 C -699.86749 1467.9422 -605.95677 1496.8825 -513.39844 1496.8145 C -421.20823 1496.7468 -327.67267 1467.9008 -253.75781 1406.8223 C -179.15378 1345.1742 -129.63709 1253.3846 -127.83984 1153.0781 C -126.03818 1052.5248 -172.4749 958.78752 -245.22852 894.53906 C -262.99652 878.8482 -282.03303 865.09489 -302.01562 853.23047 C -292.40764 846.18589 -283.11619 838.63053 -274.21484 830.5332 C -208.3746 770.64005 -167.65647 685.58401 -165.97461 594.98438 C -164.28456 503.94375 -202.19797 417.0354 -266.36523 354.69922 C -330.24535 292.64198 -415.7706 258.5614 -503.16797 256.00586 C -506.00243 255.92298 -508.83681 255.87405 -511.66992 255.85742 z M -512.39844 394.13281 C -510.66716 394.14059 -508.93704 394.17015 -507.20898 394.2207 C -453.83695 395.78133 -399.84709 417.80626 -362.71484 453.87891 C -325.86975 489.67259 -303.3008 542.65327 -304.22461 592.41797 C -305.14425 641.95761 -329.41952 693.82398 -367.26172 728.24805 C -405.39898 762.94052 -459.74603 783.20441 -512.94141 783.27539 C -566.36588 783.34669 -621.01994 763.04339 -659.33203 728.18359 C -697.34948 693.5919 -721.68864 641.40986 -722.49609 591.61328 C -723.33275 540.01546 -698.8013 485.06084 -659.47852 449.1875 C -622.31004 415.27949 -569.60282 395.21676 -517.5957 394.17383 C -515.86213 394.13908 -514.12971 394.12504 -512.39844 394.13281 z M -512.84766 934.46875 C -510.80376 934.48396 -508.76089 934.52098 -506.71875 934.58008 C -443.80022 936.40094 -381.19716 958.93936 -336.75781 998.18359 C -292.98842 1036.8362 -265.10854 1095.7249 -266.0918 1150.6016 C -267.07291 1205.3587 -296.89125 1263.0878 -341.83984 1300.2305 C -387.47761 1337.9426 -450.60175 1358.4929 -513.5 1358.5391 C -576.64763 1358.5855 -640.07524 1337.9624 -685.91992 1300.0605 C -731.07947 1262.7251 -761.01746 1204.6812 -761.97266 1149.6094 C -762.9627 1092.5288 -732.69583 1031.2806 -685.98438 992.58008 C -641.48425 955.71169 -580.30015 935.33323 -518.98047 934.48828 C -516.93648 934.46013 -514.89156 934.45354 -512.84766 934.46875 z "
       transform="translate(0,-1048)"
       id="path10891-6" />
  </g>
</svg>
