<?xml version="1.0" encoding="UTF-8" standalone="no"?>
<!-- Created with Inkscape (http://www.inkscape.org/) -->

<svg
   xmlns:dc="http://purl.org/dc/elements/1.1/"
   xmlns:cc="http://creativecommons.org/ns#"
   xmlns:rdf="http://www.w3.org/1999/02/22-rdf-syntax-ns#"
   xmlns:svg="http://www.w3.org/2000/svg"
   xmlns="http://www.w3.org/2000/svg"
   xmlns:sodipodi="http://sodipodi.sourceforge.net/DTD/sodipodi-0.dtd"
   xmlns:inkscape="http://www.inkscape.org/namespaces/inkscape"
   width="2000"
   height="2048"
   id="svg2992"
   version="1.1"
   inkscape:version="0.91 r13725"
   sodipodi:docname="8.svg">
  <defs
     id="defs5498">
    <inkscape:path-effect
       effect="spiro"
       id="path-effect4137"
       is_visible="true" />
    <inkscape:path-effect
       effect="spiro"
       id="path-effect4137-9"
       is_visible="true" />
    <inkscape:path-effect
       effect="spiro"
       id="path-effect4137-9-0"
       is_visible="true" />
    <inkscape:path-effect
       effect="spiro"
       id="path-effect4137-8"
       is_visible="true" />
    <inkscape:path-effect
       effect="spiro"
       id="path-effect4137-9-3"
       is_visible="true" />
    <inkscape:path-effect
       effect="spiro"
       id="path-effect4137-91"
       is_visible="true" />
    <inkscape:path-effect
       effect="spiro"
       id="path-effect4137-9-8"
       is_visible="true" />
    <inkscape:path-effect
       effect="spiro"
       id="path-effect4137-7"
       is_visible="true" />
    <inkscape:path-effect
       effect="spiro"
       id="path-effect4137-9-4"
       is_visible="true" />
    <inkscape:path-effect
       effect="spiro"
       id="path-effect4137-94"
       is_visible="true" />
    <inkscape:path-effect
       effect="spiro"
       id="path-effect4137-4"
       is_visible="true" />
    <inkscape:path-effect
       effect="spiro"
       id="path-effect4137-9-00"
       is_visible="true" />
    <inkscape:path-effect
       effect="spiro"
       id="path-effect4137-9-05"
       is_visible="true" />
    <inkscape:path-effect
       effect="spiro"
       id="path-effect4137-72"
       is_visible="true" />
    <inkscape:path-effect
       effect="spiro"
       id="path-effect4137-72-9"
       is_visible="true" />
    <inkscape:path-effect
       effect="spiro"
       id="path-effect4137-9-05-8"
       is_visible="true" />
  </defs>
  <sodipodi:namedview
     inkscape:window-height="704"
     inkscape:window-width="1366"
     inkscape:pageshadow="2"
     inkscape:pageopacity="0.0"
     borderopacity="1.0"
     bordercolor="#666666"
     pagecolor="#ffffff"
     id="base"
     showgrid="true"
     showguides="true"
     inkscape:guide-bbox="true"
     inkscape:zoom="0.25"
     inkscape:cx="-348"
     inkscape:cy="52.584214"
     inkscape:window-x="-4"
     inkscape:window-y="0"
     inkscape:current-layer="layer1"
     inkscape:window-maximized="1">
    <sodipodi:guide
       orientation="horizontal"
       position="288,576"
       id="guide5596" />
    <inkscape:grid
       type="xygrid"
       id="grid3769"
       empspacing="3"
       visible="true"
       enabled="true"
       snapvisiblegridlinesonly="true"
       spacingx="4px"
       units="px"
       dotted="true"
       spacingy="4px" />
    <sodipodi:guide
       orientation="0,1"
       position="-1040,1600"
       id="guide2985" />
    <sodipodi:guide
       position="-336,1980"
       orientation="0,1"
       id="guide4147"
       inkscape:label=""
       inkscape:color="rgb(0,0,255)" />
  </sodipodi:namedview>
  <metadata
     id="metadata5594">
    <rdf:RDF>
      <cc:Work
         rdf:about="">
        <dc:format>image/svg+xml</dc:format>
        <dc:type
           rdf:resource="http://purl.org/dc/dcmitype/StillImage" />
        <dc:title />
      </cc:Work>
    </rdf:RDF>
  </metadata>
  <g
     inkscape:label="Layer 1"
     inkscape:groupmode="layer"
     id="layer1"
     transform="translate(0,1048)">
    <path
       style="fill:none;fill-rule:evenodd;stroke:#000000;stroke-width:150;stroke-linecap:round;stroke-linejoin:round;stroke-miterlimit:4;stroke-dasharray:none;stroke-opacity:1"
       d="m 561.66174,-903.62159 c 79.79985,2.33338 158.88783,34.13837 216.15007,89.76658 57.26224,55.6282 91.54896,134.92939 90.0672,214.7496 -1.47475,79.44265 -38.31915,157.06165 -97.09502,210.52853 -58.77586,53.46688 -138.35299,82.68307 -217.80926,82.78909 -79.80513,0.10649 -159.80217,-29.16075 -218.82976,-82.86937 -59.02758,-53.70861 -95.94191,-131.7504 -97.23578,-211.54511 -1.34244,-82.78982 35.82415,-164.85278 96.99456,-220.65725 61.1704,-55.80447 144.99266,-85.18216 227.75799,-82.76207 z"
       id="path10891"
       inkscape:connector-curvature="0"
       sodipodi:nodetypes="acaca"
       inkscape:path-effect="#path-effect4137"
       inkscape:original-d="m 561.66174,-903.62159 c 228.64336,1.43935 309.26389,191.09189 306.21727,304.51618 -2.97548,110.76474 -91.60394,293.31878 -314.90428,293.31762 -224.13281,-9.1e-4 -315.92557,-183.22693 -316.06554,-294.41448 -0.14418,-114.51218 93.93646,-304.87239 324.75255,-303.41932 z" />
    <path
       style="fill:none;fill-rule:evenodd;stroke:#000000;stroke-width:150;stroke-linecap:round;stroke-linejoin:round;stroke-miterlimit:4;stroke-dasharray:none;stroke-opacity:1"
       d="m 562.19358,-290.98005 c 88.08795,2.54927 176.25952,33.3764 242.31448,91.7093 66.05497,58.3329 108.18462,144.854222 106.60589,232.964908 -1.575,87.903002 -46.54906,172.662422 -114.32147,228.665262 -67.77241,56.00284 -156.58026,84.00452 -244.49734,84.0691 C 464.028,346.49336 374.83524,318.39753 306.80665,262.15517 238.77806,205.91282 193.68384,120.77861 192.15311,32.52472 c -1.5886,-91.590537 43.97907,-181.31308 114.5188,-239.75533 70.53973,-58.44225 163.95569,-86.39936 255.52167,-83.74944 z"
       id="path10891-7"
       inkscape:connector-curvature="0"
       sodipodi:nodetypes="acaca"
       inkscape:path-effect="#path-effect4137-9"
       inkscape:original-d="M 562.19358,-290.98005 C 822.72219,-289.44541 914.58552,-87.238434 911.11395,33.694158 907.72363,151.79123 806.73549,346.42968 552.29514,346.42852 296.9062,346.42852 192.31262,151.07251 192.15311,32.52472 191.98884,-89.567839 299.18937,-292.52931 562.19358,-290.98005 Z" />
    <path
       style="color:#000000;font-style:normal;font-variant:normal;font-weight:normal;font-stretch:normal;font-size:medium;line-height:normal;font-family:sans-serif;text-indent:0;text-align:start;text-decoration:none;text-decoration-line:none;text-decoration-style:solid;text-decoration-color:#000000;letter-spacing:normal;word-spacing:normal;text-transform:none;direction:ltr;block-progression:tb;writing-mode:lr-tb;baseline-shift:baseline;text-anchor:start;white-space:normal;clip-rule:nonzero;display:inline;overflow:visible;visibility:visible;opacity:1;isolation:auto;mix-blend-mode:normal;color-interpolation:sRGB;color-interpolation-filters:linearRGB;solid-color:#000000;solid-opacity:1;fill:#000000;fill-opacity:1;fill-rule:evenodd;stroke:none;stroke-width:150;stroke-linecap:round;stroke-linejoin:round;stroke-miterlimit:4;stroke-dasharray:none;stroke-dashoffset:0;stroke-opacity:1;color-rendering:auto;image-rendering:auto;shape-rendering:auto;text-rendering:auto;enable-background:accumulate"
       d="M -362.48242 189.24219 C -364.07462 189.25157 -365.66633 189.27079 -367.25781 189.29883 C -462.74673 190.98095 -556.74525 226.142 -628.64258 291.73242 C -705.68409 362.01576 -751.79937 462.98303 -750.08008 569.01367 C -748.42414 671.13745 -702.59451 767.24393 -628.33008 834.81641 C -617.50802 844.66329 -606.18399 853.81916 -594.43359 862.2832 C -614.95041 874.08048 -634.62139 887.64168 -653.17773 903.01562 C -740.538 975.39372 -796.87053 1084.5219 -794.83594 1201.8262 C -792.87679 1314.7804 -737.11236 1418.4049 -652.98242 1487.959 C -569.59569 1556.8986 -463.86981 1589.5043 -359.65039 1589.4277 C -255.84538 1589.3514 -150.54348 1556.8506 -67.433594 1488.1738 C 16.423901 1418.8793 72.083898 1315.646 74.101562 1203.0371 C 76.124188 1090.1514 23.928326 984.72779 -57.847656 912.51172 C -79.137926 893.71036 -102.057 877.37714 -126.16406 863.45117 C -113.8693 854.68884 -102.03602 845.17072 -90.748047 834.90234 C -16.786068 767.62105 28.977056 672.00068 30.865234 570.28711 C 32.762596 468.07886 -9.8459703 370.37444 -81.927734 300.34961 C -153.698 230.62737 -249.89131 192.28318 -348.14648 189.41016 C -352.92628 189.27039 -357.70584 189.21405 -362.48242 189.24219 z M -358.49609 339.24609 C -356.50638 339.25471 -354.51755 339.28765 -352.53125 339.3457 C -291.18672 341.13944 -229.20148 366.40527 -186.44727 407.93945 C -144.00455 449.17102 -118.04127 510.06978 -119.10742 567.50195 C -120.16874 624.67368 -148.09384 684.29089 -191.68359 723.94336 C -235.59341 763.88699 -297.98694 787.13131 -359.125 787.21289 C -420.52661 787.29479 -483.27049 764.00473 -527.38086 723.86914 C -571.17158 684.02439 -599.16976 624.04767 -600.10156 566.58203 C -601.06715 507.03303 -572.84814 443.87443 -527.54883 402.54883 C -484.75165 363.50586 -424.2389 340.48645 -364.46875 339.29297 C -362.47641 339.25317 -360.48581 339.23748 -358.49609 339.24609 z M -358.99609 951.86133 C -356.65535 951.87881 -354.31546 951.92059 -351.97656 951.98828 C -279.91802 954.07366 -208.19744 979.85573 -157.13672 1024.9473 C -106.80278 1069.397 -74.738233 1137.0159 -75.873047 1200.3516 C -77.005378 1263.5487 -111.2951 1329.8338 -162.98242 1372.5449 C -215.41735 1415.8738 -287.7306 1439.3748 -359.75977 1439.4277 C -432.07462 1439.4808 -504.73385 1415.8966 -557.4043 1372.3516 C -609.33154 1329.4209 -643.75511 1262.7782 -644.85742 1199.2246 C -646.00003 1133.3478 -611.19771 1063.0299 -557.47852 1018.5234 C -506.3486 976.16225 -436.25213 952.84701 -366.01953 951.88281 C -363.67845 951.85067 -361.33684 951.84385 -358.99609 951.86133 z "
       transform="translate(0,-1048)"
       id="path10891-8" />
    <path
       style="fill:none;fill-rule:evenodd;stroke:#000000;stroke-width:75;stroke-linecap:round;stroke-linejoin:round;stroke-miterlimit:4;stroke-dasharray:none;stroke-opacity:1"
       d="m -1337.9821,-943.61122 c 85.8016,2.50806 170.8768,36.52564 232.5681,96.21129 61.6914,59.68565 98.7372,144.91108 97.146,230.73455 -1.5838,85.42624 -41.3803,168.84664 -104.701,226.21078 -63.3207,57.36415 -148.9258,88.59984 -234.3667,88.71164 -85.8145,0.11229 -171.8678,-31.17968 -235.4583,-88.80256 -63.5904,-57.62287 -103.4641,-141.49427 -104.8596,-227.29751 -1.4479,-89.02493 38.7048,-177.22628 104.6055,-237.09809 65.9007,-59.87181 156.0673,-91.27162 245.066,-88.6701 z"
       id="path10891-5"
       inkscape:connector-curvature="0"
       sodipodi:nodetypes="acaca"
       inkscape:path-effect="#path-effect4137-72"
       inkscape:original-d="m -1337.9821,-943.61122 c 246.1877,1.54537 332.9945,205.16709 329.7141,326.94584 -3.2037,118.9233 -98.6329,314.92367 -339.0677,314.92242 -241.331,-9.7e-4 -340.1672,-196.72282 -340.3179,-316.10007 -0.1553,-122.94677 101.1444,-327.32829 349.6715,-325.76819 z" />
    <path
       style="fill:none;fill-rule:evenodd;stroke:#000000;stroke-width:75;stroke-linecap:round;stroke-linejoin:round;stroke-miterlimit:4;stroke-dasharray:none;stroke-opacity:1"
       d="m -1337.4094,-299.92936 c 94.7227,2.73969 189.5725,35.69064 260.7305,98.27208 71.158,62.58143 116.65792,155.569358 114.96333,250.316541 -1.69077,94.533579 -50.25053,185.631709 -123.25763,245.710119 -73.0071,60.07842 -168.5455,89.99227 -263.0942,90.05926 -94.9234,0.0673 -190.8722,-29.94984 -264.1536,-90.28458 -73.2815,-60.33475 -121.9723,-151.83126 -123.623,-246.740333 -1.7131,-98.498411 47.4961,-194.935687 123.4844,-257.630507 75.9884,-62.69482 176.4781,-92.55071 274.9502,-89.70258 z"
       id="path10891-7-1"
       inkscape:connector-curvature="0"
       sodipodi:nodetypes="acaca"
       inkscape:path-effect="#path-effect4137-9-05"
       inkscape:original-d="m -1337.4094,-299.92936 c 280.5195,1.64767 379.43179,218.748547 375.69383,348.588621 -3.65044,126.795739 -112.38763,335.770569 -386.35183,335.769379 -274.9856,0 -387.6048,-209.74528 -387.7766,-337.024913 -0.1769,-131.085526 115.2494,-348.996457 398.4346,-347.333087 z" />
    <path
       style="color:#000000;font-style:normal;font-variant:normal;font-weight:normal;font-stretch:normal;font-size:medium;line-height:normal;font-family:sans-serif;text-indent:0;text-align:start;text-decoration:none;text-decoration-line:none;text-decoration-style:solid;text-decoration-color:#000000;letter-spacing:normal;word-spacing:normal;text-transform:none;direction:ltr;block-progression:tb;writing-mode:lr-tb;baseline-shift:baseline;text-anchor:start;white-space:normal;clip-rule:nonzero;display:inline;overflow:visible;visibility:visible;opacity:1;isolation:auto;mix-blend-mode:normal;color-interpolation:sRGB;color-interpolation-filters:linearRGB;solid-color:#000000;solid-opacity:1;fill:#000000;fill-opacity:1;fill-rule:evenodd;stroke:none;stroke-width:75;stroke-linecap:round;stroke-linejoin:round;stroke-miterlimit:4;stroke-dasharray:none;stroke-dashoffset:0;stroke-opacity:1;color-rendering:auto;image-rendering:auto;shape-rendering:auto;text-rendering:auto;enable-background:accumulate"
       d="M -866.12695 1890.7422 C -869.20698 1890.7246 -872.28643 1890.744 -875.36523 1890.7988 C -967.72937 1892.4439 -1059.1968 1926.5544 -1128.2637 1989.3027 C -1202.1202 2056.4026 -1246.7863 2154.0687 -1245.1484 2254.7676 C -1243.5704 2351.7866 -1199.2021 2444.699 -1127.9746 2509.2422 C -1102.4618 2532.3607 -1073.9068 2551.5942 -1043.3867 2566.7461 C -1083.9121 2582.7406 -1122.1378 2604.724 -1156.2246 2632.8477 C -1240.6438 2702.4984 -1295.2755 2808.6485 -1293.3379 2920.0566 C -1291.4715 3027.3666 -1237.4075 3128.1152 -1156.0566 3195.0938 C -1075.0868 3261.7586 -970.88779 3294.0003 -868.04102 3293.9277 C -765.60059 3293.8547 -661.8303 3261.7234 -581.14453 3195.3262 C -500.07536 3128.6134 -446.13333 3028.2688 -444.2207 2921.3301 C -442.30366 2814.1444 -492.87601 2711.6952 -571.91406 2642.1836 C -608.29228 2610.19 -649.88968 2585.4165 -694.25195 2567.7285 C -663.02821 2552.4489 -633.82354 2532.9196 -607.79102 2509.3359 C -536.85811 2445.0756 -492.56466 2352.6436 -490.77344 2256.0293 C -488.97378 2158.9601 -530.21944 2064.5216 -599.33984 1997.6484 C -668.29592 1930.9343 -761.9098 1893.6806 -856.88672 1890.9043 C -859.96631 1890.8143 -863.04692 1890.7598 -866.12695 1890.7422 z M -866.53125 1965.7461 C -864.04605 1965.7587 -861.56095 1965.8004 -859.07812 1965.873 C -782.45191 1968.1129 -705.91492 1998.8936 -651.48828 2051.5508 C -597.22597 2104.0489 -564.37905 2180.0609 -565.76172 2254.6387 C -567.13809 2328.8768 -602.43807 2403.2859 -658.14648 2453.7539 C -714.02377 2504.3748 -791.05069 2532.6579 -867.38477 2532.7578 C -944.05031 2532.8581 -1021.4912 2504.5213 -1077.6133 2453.666 C -1133.5668 2402.9634 -1168.945 2328.1343 -1170.1582 2253.5469 C -1171.4163 2176.1959 -1135.7769 2097.4583 -1077.832 2044.8145 C -1023.3351 1995.3032 -948.58417 1967.2025 -873.98828 1965.7969 C -871.50175 1965.75 -869.01645 1965.7335 -866.53125 1965.7461 z M -866.95117 2609.3984 C -864.13138 2609.4209 -861.3118 2609.4733 -858.49414 2609.5547 C -771.73405 2612.0641 -685.09405 2642.5229 -621.44336 2698.502 C -558.16536 2754.1531 -517.73687 2837.6796 -519.20898 2919.9883 C -520.67788 3002.1168 -563.85571 3083.97 -628.80078 3137.4141 C -694.12927 3191.1736 -781.43682 3218.8663 -868.09375 3218.9277 C -955.0938 3218.9887 -1042.7916 3191.1981 -1108.3848 3137.1934 C -1173.5969 3083.5024 -1216.9146 3001.2602 -1218.3496 2918.752 C -1219.8382 2833.1632 -1176.0517 2746.4381 -1108.4941 2690.6992 C -1044.7651 2638.119 -960.04646 2610.516 -875.41211 2609.4199 C -872.59096 2609.3834 -869.77096 2609.376 -866.95117 2609.3984 z "
       transform="translate(0,-1048)"
       id="path10891-5-8" />
  </g>
</svg>
