<?xml version="1.0" encoding="UTF-8" standalone="no"?>
<!-- Created with Inkscape (http://www.inkscape.org/) -->

<svg
   xmlns:dc="http://purl.org/dc/elements/1.1/"
   xmlns:cc="http://creativecommons.org/ns#"
   xmlns:rdf="http://www.w3.org/1999/02/22-rdf-syntax-ns#"
   xmlns:svg="http://www.w3.org/2000/svg"
   xmlns="http://www.w3.org/2000/svg"
   xmlns:sodipodi="http://sodipodi.sourceforge.net/DTD/sodipodi-0.dtd"
   xmlns:inkscape="http://www.inkscape.org/namespaces/inkscape"
   width="2000"
   height="2048"
   id="svg2992"
   version="1.1"
   inkscape:version="0.91pre3 r13670"
   sodipodi:docname="8.svg">
  <defs
     id="defs5498">
    <inkscape:path-effect
       effect="spiro"
       id="path-effect4137"
       is_visible="true" />
    <inkscape:path-effect
       effect="spiro"
       id="path-effect4137-9"
       is_visible="true" />
    <inkscape:path-effect
       effect="spiro"
       id="path-effect4137-9-0"
       is_visible="true" />
    <inkscape:path-effect
       effect="spiro"
       id="path-effect4137-8"
       is_visible="true" />
    <inkscape:path-effect
       effect="spiro"
       id="path-effect4137-9-3"
       is_visible="true" />
    <inkscape:path-effect
       effect="spiro"
       id="path-effect4137-91"
       is_visible="true" />
    <inkscape:path-effect
       effect="spiro"
       id="path-effect4137-9-8"
       is_visible="true" />
    <inkscape:path-effect
       effect="spiro"
       id="path-effect4137-7"
       is_visible="true" />
  </defs>
  <sodipodi:namedview
     inkscape:window-height="851"
     inkscape:window-width="1600"
     inkscape:pageshadow="2"
     inkscape:pageopacity="0.0"
     borderopacity="1.0"
     bordercolor="#666666"
     pagecolor="#ffffff"
     id="base"
     showgrid="true"
     showguides="true"
     inkscape:guide-bbox="true"
     inkscape:zoom="0.32102648"
     inkscape:cx="-132.79649"
     inkscape:cy="1139.1507"
     inkscape:window-x="1599"
     inkscape:window-y="-1"
     inkscape:current-layer="layer1"
     inkscape:window-maximized="1">
    <sodipodi:guide
       orientation="horizontal"
       position="288,576"
       id="guide5596" />
    <inkscape:grid
       type="xygrid"
       id="grid3769"
       empspacing="3"
       visible="true"
       enabled="true"
       snapvisiblegridlinesonly="true"
       spacingx="4px"
       units="px"
       dotted="true"
       spacingy="4px" />
    <sodipodi:guide
       orientation="0,1"
       position="-1040,1600"
       id="guide2985" />
  </sodipodi:namedview>
  <metadata
     id="metadata5594">
    <rdf:RDF>
      <cc:Work
         rdf:about="">
        <dc:format>image/svg+xml</dc:format>
        <dc:type
           rdf:resource="http://purl.org/dc/dcmitype/StillImage" />
        <dc:title />
      </cc:Work>
    </rdf:RDF>
  </metadata>
  <g
     inkscape:label="Layer 1"
     inkscape:groupmode="layer"
     id="layer1"
     transform="translate(0,1048)">
    <path
       style="fill:none;fill-rule:evenodd;stroke:#000000;stroke-width:150;stroke-linecap:round;stroke-linejoin:round;stroke-miterlimit:4;stroke-dasharray:none;stroke-opacity:1"
       d="m 548.67243,-809.1202 c 76.39161,2.2231 152.5202,30.67839 208.67738,82.51459 56.15717,51.83619 90.97584,127.29188 89.58203,203.70312 -1.38899,76.14687 -38.66507,150.03469 -96.29232,199.82801 -57.62725,49.79333 -134.26884,75.78683 -210.42834,75.86408 -76.47744,0.0776 -153.48418,-25.98126 -211.34281,-75.99309 -57.85864,-50.01183 -95.22236,-124.26328 -96.50894,-200.72994 -1.33506,-79.34824 36.35946,-157.51908 96.3379,-209.48553 59.97845,-51.96645 140.64921,-78.00973 219.9751,-75.70124 z"
       id="path10891"
       inkscape:connector-curvature="0"
       sodipodi:nodetypes="acaca"
       inkscape:path-effect="#path-effect4137"
       inkscape:original-d="m 548.67243,-809.1202 c 222.70147,1.35287 301.22686,179.60913 298.25941,286.21771 -2.89815,104.10886 -89.22336,275.69318 -306.72066,275.69209 -218.30813,-8.5e-4 -307.71542,-172.21677 -307.85175,-276.72303 -0.14043,-107.63112 91.49527,-286.55252 316.313,-285.18677 z" />
    <path
       style="fill:none;fill-rule:evenodd;stroke:#000000;stroke-width:150;stroke-linecap:round;stroke-linejoin:round;stroke-miterlimit:4;stroke-dasharray:none;stroke-opacity:1"
       d="m 549.19046,-233.29247 c 84.43353,2.42381 169.34234,29.77433 234.05485,84.06234 32.35625,27.144 59.40515,60.766281 77.97534,98.698747 18.57019,37.932466 28.56126,80.175672 27.82256,122.403368 -1.4758,84.364265 -46.779,165.089405 -113.16375,217.171775 -66.38475,52.08236 -151.95304,76.73582 -236.33021,76.77029 C 454.85556,365.84865 368.9575,341.08141 302.34017,288.78271 235.72284,236.484 190.28515,155.4529 188.76645,70.772818 c -0.78816,-43.946562 9.99445,-87.907027 29.96278,-127.06296 19.96834,-39.155933 49.00576,-73.506738 83.554,-100.679158 69.09649,-54.34484 159.03617,-78.84567 246.90723,-76.32317 z"
       id="path10891-7"
       inkscape:connector-curvature="0"
       sodipodi:nodetypes="acaca"
       inkscape:path-effect="#path-effect4137-9"
       inkscape:original-d="m 549.19046,-233.29247 c 253.75808,1.44244 343.23411,191.498735 339.85275,305.164455 -3.30222,111.000575 -101.6659,293.943155 -349.49396,293.942065 -248.75199,0 -350.62744,-183.617 -350.7828,-295.041232 -0.16,-114.755984 104.25465,-305.521438 360.42401,-304.065288 z" />
    <path
       style="color:#000000;font-style:normal;font-variant:normal;font-weight:normal;font-stretch:normal;font-size:medium;line-height:normal;font-family:sans-serif;text-indent:0;text-align:start;text-decoration:none;text-decoration-line:none;text-decoration-style:solid;text-decoration-color:#000000;letter-spacing:normal;word-spacing:normal;text-transform:none;direction:ltr;block-progression:tb;writing-mode:lr-tb;baseline-shift:baseline;text-anchor:start;white-space:normal;clip-rule:nonzero;display:inline;overflow:visible;visibility:visible;opacity:1;isolation:auto;mix-blend-mode:normal;color-interpolation:sRGB;color-interpolation-filters:linearRGB;solid-color:#000000;solid-opacity:1;fill:#000000;fill-opacity:1;fill-rule:evenodd;stroke:none;stroke-width:150;stroke-linecap:round;stroke-linejoin:round;stroke-miterlimit:4;stroke-dasharray:none;stroke-dashoffset:0;stroke-opacity:1;color-rendering:auto;image-rendering:auto;shape-rendering:auto;text-rendering:auto;enable-background:accumulate"
       d="M -703.14648 144.3457 C -706.1855 144.32396 -709.22477 144.33637 -712.26367 144.38086 C -803.43073 145.71549 -894.2739 176.96072 -965.29883 238.49805 C -1041.6562 304.65552 -1089.2642 402.0085 -1087.5156 505.92773 C -1085.8319 605.99883 -1038.6208 698.55444 -965.0625 762.13672 C -957.52082 768.65559 -949.75268 774.82866 -941.78906 780.66797 C -958.09413 790.14894 -973.86741 800.80392 -988.9668 812.67969 C -1031.6063 846.2159 -1067.6969 888.68267 -1092.9688 938.23828 C -1118.2939 987.89874 -1132.1316 1043.6135 -1131.1074 1100.7188 C -1129.1232 1211.3573 -1072.0424 1311.0696 -988.85742 1376.375 C -906.65555 1440.9085 -804.64076 1469.4546 -705.30469 1469.4141 C -606.33916 1469.3737 -504.67723 1440.9573 -422.71094 1376.6504 C -339.7532 1311.5656 -282.78415 1212.1484 -280.85352 1101.7832 C -279.89267 1046.8564 -292.73493 993.23265 -316.30273 945.0918 C -339.82347 897.04708 -373.486 855.42784 -413.4375 821.91211 C -431.37866 806.86108 -450.38165 793.5995 -470.18164 782.04102 C -461.62183 775.8421 -453.2887 769.25505 -445.21094 762.27539 C -371.91723 698.94532 -324.78395 606.79296 -322.96484 507.06641 C -321.13922 406.98261 -365.20511 312.84534 -436.66406 246.88477 C -507.59295 181.41345 -600.48688 147.23399 -694.03125 144.51172 C -697.06869 144.42332 -700.10747 144.36744 -703.14648 144.3457 z M -704.16016 294.34766 C -702.23749 294.35979 -700.31495 294.39332 -698.39453 294.44922 C -639.15569 296.17315 -579.79171 318.90438 -538.40625 357.10547 C -497.55085 394.81727 -471.97941 451.5914 -472.94141 504.33008 C -473.90028 556.89726 -501.32048 612.51882 -543.28125 648.77539 C -585.78697 685.50282 -645.60463 706.33064 -704.75 706.39062 C -764.13944 706.45092 -824.26879 685.56691 -866.9707 648.65625 C -909.12971 612.21487 -936.64767 556.26654 -937.53711 503.4043 C -938.45878 448.62704 -910.67568 389.64066 -867.07617 351.86523 C -825.64151 315.96547 -767.65248 295.34106 -709.92969 294.37695 C -708.00559 294.3448 -706.08282 294.33552 -704.16016 294.34766 z M -704.64258 870.14844 C -702.37706 870.16898 -700.11069 870.21232 -697.8457 870.27734 C -628.14701 872.27817 -559.30903 895.32954 -509.8418 936.82812 C -485.08079 957.6004 -464.64504 983.22665 -451.02539 1011.0469 C -437.45281 1038.7709 -430.31353 1069.6316 -430.83008 1099.1602 C -431.85104 1157.5236 -465.48706 1219.5567 -515.29883 1258.6367 C -566.10204 1298.4945 -635.57838 1319.3855 -705.36719 1319.4141 C -775.41854 1319.4427 -845.19962 1298.4545 -896.23242 1258.3906 C -946.28209 1219.0986 -980.07771 1156.749 -981.13086 1098.0273 C -981.68305 1067.2394 -973.95312 1035.0342 -959.3418 1006.3828 C -944.677 977.62655 -922.69337 951.39066 -896.23633 930.58203 C -846.69088 891.61422 -779.37919 870.87948 -711.4375 870.1543 C -709.17278 870.13015 -706.9081 870.12789 -704.64258 870.14844 z "
       transform="translate(0,-1048)"
       id="path10891-4" />
  </g>
</svg>
