<?xml version="1.0" encoding="UTF-8" standalone="no"?>
<svg
   xmlns:dc="http://purl.org/dc/elements/1.1/"
   xmlns:cc="http://creativecommons.org/ns#"
   xmlns:rdf="http://www.w3.org/1999/02/22-rdf-syntax-ns#"
   xmlns:svg="http://www.w3.org/2000/svg"
   xmlns="http://www.w3.org/2000/svg"
   xmlns:sodipodi="http://sodipodi.sourceforge.net/DTD/sodipodi-0.dtd"
   xmlns:inkscape="http://www.inkscape.org/namespaces/inkscape"
   version="1.1"
   id="svg2992"
   height="2048"
   width="4000"
   inkscape:version="0.91 r13725"
   sodipodi:docname="a.svg">
  <sodipodi:namedview
     pagecolor="#ffffff"
     bordercolor="#666666"
     borderopacity="1"
     objecttolerance="10"
     gridtolerance="10"
     guidetolerance="10"
     inkscape:pageopacity="0"
     inkscape:pageshadow="2"
     inkscape:window-width="1600"
     inkscape:window-height="851"
     id="namedview33"
     showgrid="true"
     inkscape:zoom="0.46244784"
     inkscape:cx="1131.6421"
     inkscape:cy="-78.733945"
     inkscape:window-x="1599"
     inkscape:window-y="-1"
     inkscape:window-maximized="1"
     inkscape:current-layer="svg2992"
     showguides="true"
     inkscape:guide-bbox="true">
    <inkscape:grid
       type="xygrid"
       id="grid4162" />
    <sodipodi:guide
       orientation="0,1"
       position="640,1600"
       id="guide4164"
       inkscape:label=""
       inkscape:color="rgb(0,0,255)" />
    <sodipodi:guide
       orientation="0,1"
       position="-1360,600"
       id="guide4166"
       inkscape:label=""
       inkscape:color="rgb(0,0,255)" />
  </sodipodi:namedview>
  <defs
     id="defs5498">
    <inkscape:path-effect
       effect="spiro"
       id="path-effect4277-7-2"
       is_visible="true" />
    <inkscape:path-effect
       effect="spiro"
       id="path-effect4277-7-2-2"
       is_visible="true" />
    <inkscape:path-effect
       effect="spiro"
       id="path-effect4273-29-3"
       is_visible="true" />
    <inkscape:path-effect
       effect="spiro"
       id="path-effect4277-7-2-2-2"
       is_visible="true" />
    <inkscape:path-effect
       effect="spiro"
       id="path-effect4273-29-3-9"
       is_visible="true" />
    <inkscape:path-effect
       effect="spiro"
       id="path-effect4277-7-2-2-5"
       is_visible="true" />
    <inkscape:path-effect
       effect="spiro"
       id="path-effect4273-29-3-4"
       is_visible="true" />
    <inkscape:path-effect
       effect="spiro"
       id="path-effect4273-29-3-2"
       is_visible="true" />
    <inkscape:path-effect
       effect="spiro"
       id="path-effect4277-7-2-2-4"
       is_visible="true" />
    <inkscape:path-effect
       effect="spiro"
       id="path-effect4277-7-2-2-9"
       is_visible="true" />
    <inkscape:path-effect
       effect="spiro"
       id="path-effect4273-29-3-1"
       is_visible="true" />
    <inkscape:path-effect
       effect="spiro"
       id="path-effect4273-29-3-6"
       is_visible="true" />
    <inkscape:path-effect
       effect="spiro"
       id="path-effect4277-7-2-2-40"
       is_visible="true" />
    <inkscape:path-effect
       effect="spiro"
       id="path-effect4273-29-3-62"
       is_visible="true" />
    <inkscape:path-effect
       effect="spiro"
       id="path-effect4277-7-2-2-93"
       is_visible="true" />
  </defs>
  <metadata
     id="metadata5594">
    <rdf:RDF>
      <cc:Work
         rdf:about="">
        <dc:format>image/svg+xml</dc:format>
        <dc:type
           rdf:resource="http://purl.org/dc/dcmitype/StillImage" />
        <dc:title />
      </cc:Work>
    </rdf:RDF>
  </metadata>
  <path
     style="fill:none;fill-rule:evenodd;stroke:#000000;stroke-width:150;stroke-linecap:round;stroke-linejoin:round;stroke-miterlimit:4;stroke-dasharray:none;stroke-opacity:1"
     d="M 1360,1410 1909.4567,148 2459.6024,1408"
     id="path4138"
     inkscape:connector-curvature="0"
     sodipodi:nodetypes="ccc" />
  <path
     style="fill:none;fill-rule:evenodd;stroke:#000000;stroke-width:150;stroke-linecap:square;stroke-linejoin:miter;stroke-miterlimit:4;stroke-dasharray:none;stroke-opacity:1"
     d="m 1677.6269,894.34862 c 193.6005,2.03874 382.6644,4.07747 484.7462,6.11621"
     id="path4140"
     inkscape:connector-curvature="0"
     sodipodi:nodetypes="cc" />
  <path
     style="fill:none;fill-rule:evenodd;stroke:#000000;stroke-width:150;stroke-linecap:round;stroke-linejoin:round;stroke-miterlimit:4;stroke-dasharray:none;stroke-opacity:1"
     d="m 1018.2805,504.45835 0.23,890.42915"
     id="path4271-4-5"
     inkscape:path-effect="#path-effect4273-29-3"
     inkscape:original-d="m 1018.2805,504.45835 0.23,890.42915"
     inkscape:connector-curvature="0"
     sodipodi:nodetypes="cc" />
  <path
     style="fill:none;fill-rule:evenodd;stroke:#000000;stroke-width:150;stroke-linecap:round;stroke-linejoin:round;stroke-miterlimit:4;stroke-dasharray:none;stroke-opacity:1"
     d="m 144.6155,947.68675 c -0.28931,111.00065 41.22721,221.89595 115.57685,304.31785 74.34963,82.4219 181.04408,135.2638 291.78815,142.8127 123.09027,8.3904 248.53428,-39.871 335.66003,-127.225 C 974.76629,1180.2384 1022.597,1055.5648 1018.2292,932.26622 1014.2918,821.11725 968.35029,711.67686 890.57753,632.17218 812.80477,552.66749 703.74299,504.19896 592.55957,501.39844 475.17597,498.44175 357.73251,546.6715 274.98549,629.98166 192.23848,713.29182 144.92154,830.26632 144.6155,947.68675 Z"
     id="path4275-3-0"
     inkscape:path-effect="#path-effect4277-7-2-2"
     inkscape:original-d="m 144.6155,947.68675 c -4.87429,201.56555 205.80473,442.04165 407.365,447.13055 218.8522,5.5255 465.1486,-243.6319 466.2487,-462.55108 C 1019.2437,730.37725 794.44951,502.19796 592.55957,501.39844 381.78827,500.56375 149.71096,736.9754 144.6155,947.68675 Z"
     inkscape:connector-curvature="0"
     sodipodi:nodetypes="aaaaa" />
  <path
     style="color:#000000;font-style:normal;font-variant:normal;font-weight:normal;font-stretch:normal;font-size:medium;line-height:normal;font-family:sans-serif;text-indent:0;text-align:start;text-decoration:none;text-decoration-line:none;text-decoration-style:solid;text-decoration-color:#000000;letter-spacing:normal;word-spacing:normal;text-transform:none;direction:ltr;block-progression:tb;writing-mode:lr-tb;baseline-shift:baseline;text-anchor:start;white-space:normal;clip-rule:nonzero;display:inline;overflow:visible;visibility:visible;opacity:1;isolation:auto;mix-blend-mode:normal;color-interpolation:sRGB;color-interpolation-filters:linearRGB;solid-color:#000000;solid-opacity:1;fill:#000000;fill-opacity:1;fill-rule:evenodd;stroke:none;stroke-width:150;stroke-linecap:round;stroke-linejoin:round;stroke-miterlimit:4;stroke-dasharray:none;stroke-dashoffset:0;stroke-opacity:1;color-rendering:auto;image-rendering:auto;shape-rendering:auto;text-rendering:auto;enable-background:accumulate"
     d="M 1492.6191 3146.4082 A 75.0075 75.0075 0 0 0 1419.2832 3222.9824 L 1419.8027 3297.2559 C 1323.6944 3201.6033 1190.9962 3146.7208 1054.7793 3148.4785 C 916.95352 3150.257 784.25858 3209.9102 690.43359 3310.0312 C 596.71812 3410.0354 546.30962 3545.1344 549.63867 3681.5176 C 552.74647 3808.8359 602.44632 3932.9832 689.73633 4026.5391 C 777.11685 4120.1919 898.51665 4178.9329 1026.9023 4187.6445 C 1170.055 4197.3583 1312.5424 4143.9828 1415.0703 4044.5098 C 1418.4168 4041.263 1421.7117 4037.97 1424.9609 4034.6387 L 1425.5117 4113.4121 A 75.0075 75.0075 0 1 0 1575.5078 4112.3633 L 1572.5859 3694.5586 C 1573.1038 3684.2472 1573.3245 3673.9089 1573.2266 3663.5566 C 1573.1366 3654.0536 1572.7775 3644.5669 1572.1699 3635.1055 L 1569.2793 3221.9336 A 75.0075 75.0075 0 0 0 1492.6191 3146.4082 z M 1061.1387 3298.4395 C 1154.0938 3298.5102 1249.1648 3338.4542 1315.125 3404.6973 C 1376.7016 3466.5379 1415.5207 3553.4226 1422.209 3641.2676 L 1422.5527 3690.3438 C 1416.8495 3782.1392 1375.9909 3873.4295 1310.6211 3936.8516 C 1239.3536 4005.9955 1135.5001 4044.6701 1037.0586 4037.9902 C 948.46449 4031.9787 860.39523 3989.5696 799.41211 3924.209 C 738.3385 3858.7514 701.79295 3767.9531 699.59375 3677.8574 C 697.24273 3581.5418 734.43532 3482.4429 799.88477 3412.6016 C 865.2247 3342.877 961.79198 3299.6917 1056.7148 3298.4668 C 1058.1891 3298.4478 1059.6632 3298.4383 1061.1387 3298.4395 z "
     id="path4271-4-5-2" />
  <path
     style="color:#000000;font-style:normal;font-variant:normal;font-weight:normal;font-stretch:normal;font-size:medium;line-height:normal;font-family:sans-serif;text-indent:0;text-align:start;text-decoration:none;text-decoration-line:none;text-decoration-style:solid;text-decoration-color:#000000;letter-spacing:normal;word-spacing:normal;text-transform:none;direction:ltr;block-progression:tb;writing-mode:lr-tb;baseline-shift:baseline;text-anchor:start;white-space:normal;clip-rule:nonzero;display:inline;overflow:visible;visibility:visible;opacity:1;isolation:auto;mix-blend-mode:normal;color-interpolation:sRGB;color-interpolation-filters:linearRGB;solid-color:#000000;solid-opacity:1;fill:#000000;fill-opacity:1;fill-rule:evenodd;stroke:none;stroke-width:150;stroke-linecap:round;stroke-linejoin:round;stroke-miterlimit:4;stroke-dasharray:none;stroke-dashoffset:0;stroke-opacity:1;color-rendering:auto;image-rendering:auto;shape-rendering:auto;text-rendering:auto;enable-background:accumulate"
     d="M 2042.5254 1395.209 A 75.0075 75.0075 0 0 0 1976.8418 1440.1953 L 1427.3848 2702.1953 A 75.0075 75.0075 0 1 0 1564.916 2762.0742 L 1770.0039 2291.0273 L 1812.9883 2291.4805 C 2006.5764 2293.519 2195.794 2295.5641 2297.0254 2297.5859 L 2325.3008 2298.1504 L 2527.0195 2760.1465 A 75.0075 75.0075 0 1 0 2664.4863 2700.125 L 2114.3418 1440.125 A 75.0075 75.0075 0 0 0 2042.5254 1395.209 z M 2045.7051 1657.793 L 2259.25 2146.877 C 2155.9149 2145.1457 1998.1048 2143.428 1835.0156 2141.707 L 2045.7051 1657.793 z "
     id="path4138-1" />
  <path
     style="color:#000000;font-style:normal;font-variant:normal;font-weight:normal;font-stretch:normal;font-size:medium;line-height:normal;font-family:sans-serif;text-indent:0;text-align:start;text-decoration:none;text-decoration-line:none;text-decoration-style:solid;text-decoration-color:#000000;letter-spacing:normal;word-spacing:normal;text-transform:none;direction:ltr;block-progression:tb;writing-mode:lr-tb;baseline-shift:baseline;text-anchor:start;white-space:normal;clip-rule:nonzero;display:inline;overflow:visible;visibility:visible;opacity:1;isolation:auto;mix-blend-mode:normal;color-interpolation:sRGB;color-interpolation-filters:linearRGB;solid-color:#000000;solid-opacity:1;fill:#000000;fill-opacity:1;fill-rule:evenodd;stroke:none;stroke-width:150;stroke-linecap:round;stroke-linejoin:round;stroke-miterlimit:4;stroke-dasharray:none;stroke-dashoffset:0;stroke-opacity:1;color-rendering:auto;image-rendering:auto;shape-rendering:auto;text-rendering:auto;enable-background:accumulate"
     d="m 586.24609,1811.1133 c -134.58934,0.1909 -265.13334,55.7148 -359.63671,150.8613 -97.40914,98.072 -151.800016,232.9224 -152.158208,370.3613 -0.338368,129.8318 47.427178,257.795 134.886718,354.75 87.57374,97.0818 211.20338,158.4608 342.37891,167.4024 146.0079,9.9527 291.07037,-46.0277 393.86132,-149.0879 0.92281,-0.9252 1.83297,-1.8612 2.74805,-2.793 l 0.0195,77.1446 c -0.58066,41.8363 33.17956,76.0593 75.0198,76.0484 41.8403,-0.011 75.5827,-34.2515 74.9802,-76.0875 l -0.1113,-436.2813 c 0.1406,-7.0769 0.1404,-14.1627 -0.01,-21.2519 l -0.1113,-432.8965 c 0.5865,-42.2795 -33.8718,-76.6874 -76.1504,-76.0391 -41.39306,0.6348 -74.44541,34.6846 -73.84961,76.0782 l 0.0195,74.3496 c -91.55431,-93.125 -217.55159,-149.0966 -348.85156,-152.4043 l -0.002,0 c -4.34893,-0.1095 -8.69551,-0.1605 -13.03711,-0.1543 z m 3.70604,151.3216 c 91.21376,0.5953 187.93014,41.6861 251.84865,107.028 64.03856,65.4646 103.69158,168.3344 103.63993,262.3658 -0.0527,95.9654 -39.31911,200.7244 -106.06571,267.6459 -71.46055,71.6478 -177.2844,112.1896 -277.45703,105.3613 -90.31259,-6.1561 -180.0737,-50.4606 -241.19922,-118.2226 -61.23972,-67.8886 -96.50779,-161.7171 -96.26758,-253.8867 0.25385,-97.4019 40.49713,-196.4987 108.58203,-265.0469 65.81852,-66.2665 164.37432,-105.8489 256.91893,-105.2448 z"
     id="path4271-4-5-3"
     inkscape:connector-curvature="0"
     sodipodi:nodetypes="ssssscccsccccsccccsasasssssa" />
</svg>
