<?xml version="1.0" encoding="UTF-8" standalone="no"?>
<svg
   xmlns:dc="http://purl.org/dc/elements/1.1/"
   xmlns:cc="http://creativecommons.org/ns#"
   xmlns:rdf="http://www.w3.org/1999/02/22-rdf-syntax-ns#"
   xmlns:svg="http://www.w3.org/2000/svg"
   xmlns="http://www.w3.org/2000/svg"
   xmlns:sodipodi="http://sodipodi.sourceforge.net/DTD/sodipodi-0.dtd"
   xmlns:inkscape="http://www.inkscape.org/namespaces/inkscape"
   version="1.1"
   id="svg2992"
   height="2048"
   width="4000"
   inkscape:version="0.91 r13725"
   sodipodi:docname="a.svg">
  <sodipodi:namedview
     pagecolor="#ffffff"
     bordercolor="#666666"
     borderopacity="1"
     objecttolerance="10"
     gridtolerance="10"
     guidetolerance="10"
     inkscape:pageopacity="0"
     inkscape:pageshadow="2"
     inkscape:window-width="1600"
     inkscape:window-height="844"
     id="namedview33"
     showgrid="true"
     inkscape:zoom="0.23122392"
     inkscape:cx="629.45164"
     inkscape:cy="463.09126"
     inkscape:window-x="0"
     inkscape:window-y="0"
     inkscape:window-maximized="1"
     inkscape:current-layer="svg2992"
     showguides="true"
     inkscape:guide-bbox="true">
    <inkscape:grid
       type="xygrid"
       id="grid4162" />
    <sodipodi:guide
       orientation="0,1"
       position="640,2000"
       id="guide4164"
       inkscape:label=""
       inkscape:color="rgb(0,0,255)" />
    <sodipodi:guide
       orientation="0,1"
       position="-1360,600"
       id="guide4166"
       inkscape:label=""
       inkscape:color="rgb(0,0,255)" />
  </sodipodi:namedview>
  <defs
     id="defs5498">
    <inkscape:path-effect
       effect="spiro"
       id="path-effect4277-7-2"
       is_visible="true" />
    <inkscape:path-effect
       effect="spiro"
       id="path-effect4277-7-2-2"
       is_visible="true" />
    <inkscape:path-effect
       effect="spiro"
       id="path-effect4273-29-3"
       is_visible="true" />
    <inkscape:path-effect
       effect="spiro"
       id="path-effect4277-7-2-2-2"
       is_visible="true" />
    <inkscape:path-effect
       effect="spiro"
       id="path-effect4273-29-3-9"
       is_visible="true" />
    <inkscape:path-effect
       effect="spiro"
       id="path-effect4277-7-2-2-5"
       is_visible="true" />
    <inkscape:path-effect
       effect="spiro"
       id="path-effect4273-29-3-4"
       is_visible="true" />
    <inkscape:path-effect
       effect="spiro"
       id="path-effect4273-29-3-2"
       is_visible="true" />
    <inkscape:path-effect
       effect="spiro"
       id="path-effect4277-7-2-2-4"
       is_visible="true" />
    <inkscape:path-effect
       effect="spiro"
       id="path-effect4277-7-2-2-9"
       is_visible="true" />
    <inkscape:path-effect
       effect="spiro"
       id="path-effect4273-29-3-1"
       is_visible="true" />
    <inkscape:path-effect
       effect="spiro"
       id="path-effect4273-29-3-6"
       is_visible="true" />
    <inkscape:path-effect
       effect="spiro"
       id="path-effect4277-7-2-2-40"
       is_visible="true" />
    <inkscape:path-effect
       effect="spiro"
       id="path-effect4273-29-3-62"
       is_visible="true" />
    <inkscape:path-effect
       effect="spiro"
       id="path-effect4277-7-2-2-93"
       is_visible="true" />
    <inkscape:path-effect
       effect="spiro"
       id="path-effect4277-7-2-2-51"
       is_visible="true" />
    <inkscape:path-effect
       effect="spiro"
       id="path-effect4273-29-3-18"
       is_visible="true" />
    <inkscape:path-effect
       effect="spiro"
       id="path-effect4277-7-2-2-51-8"
       is_visible="true" />
    <inkscape:path-effect
       effect="spiro"
       id="path-effect4273-29-3-18-3"
       is_visible="true" />
    <inkscape:path-effect
       effect="spiro"
       id="path-effect4273-29-3-13"
       is_visible="true" />
    <inkscape:path-effect
       effect="spiro"
       id="path-effect4277-7-2-2-28"
       is_visible="true" />
  </defs>
  <metadata
     id="metadata5594">
    <rdf:RDF>
      <cc:Work
         rdf:about="">
        <dc:format>image/svg+xml</dc:format>
        <dc:type
           rdf:resource="http://purl.org/dc/dcmitype/StillImage" />
        <dc:title />
      </cc:Work>
    </rdf:RDF>
  </metadata>
  <path
     style="fill:none;fill-rule:evenodd;stroke:#000000;stroke-width:150;stroke-linecap:round;stroke-linejoin:round;stroke-miterlimit:4;stroke-dasharray:none;stroke-opacity:1"
     d="M 1351.3504,1388.3759 1900.8071,126.37594 2450.9528,1386.3759"
     id="path4138"
     inkscape:connector-curvature="0"
     sodipodi:nodetypes="ccc" />
  <path
     style="fill:none;fill-rule:evenodd;stroke:#000000;stroke-width:150;stroke-linecap:square;stroke-linejoin:miter;stroke-miterlimit:4;stroke-dasharray:none;stroke-opacity:1"
     d="m 1677.6269,894.34862 c 193.6005,2.03874 382.6644,4.07747 484.7462,6.11621"
     id="path4140"
     inkscape:connector-curvature="0"
     sodipodi:nodetypes="cc" />
  <path
     style="fill:none;fill-rule:evenodd;stroke:#000000;stroke-width:140;stroke-linecap:round;stroke-linejoin:round;stroke-miterlimit:4;stroke-dasharray:none;stroke-opacity:1"
     d="m 1020.2805,504.45835 0.23,890.42915"
     id="path4271-4-5"
     inkscape:path-effect="#path-effect4273-29-3"
     inkscape:original-d="m 1020.2805,504.45835 0.23,890.42915"
     inkscape:connector-curvature="0"
     sodipodi:nodetypes="cc" />
  <path
     style="fill:none;fill-rule:evenodd;stroke:#000000;stroke-width:150;stroke-linecap:round;stroke-linejoin:round;stroke-miterlimit:4;stroke-dasharray:none;stroke-opacity:1"
     d="m 194.6155,947.68675 c -0.20763,111.94065 38.45597,224.64455 112.27602,308.79525 73.82006,84.1508 183.14966,137.7534 295.08898,138.3353 114.57404,0.5956 226.858,-54.4547 301.76111,-141.1559 74.9031,-86.7011 112.85099,-202.844 110.48759,-317.39518 C 1012.0772,831.95805 976.75007,727.67863 910.44166,647.13039 844.13325,566.58215 746.42685,511.21747 642.55957,501.39844 524.47476,490.23537 403.65583,539.05679 321.30717,624.42267 238.95851,709.78855 194.8355,829.07567 194.6155,947.68675 Z"
     id="path4275-3-0"
     inkscape:path-effect="#path-effect4277-7-2-2"
     inkscape:original-d="m 194.6155,947.68675 c -4.87429,201.56555 205.7416,447.79785 407.365,447.13055 205.5383,-0.6802 409.6718,-253.0278 412.2487,-458.55108 C 1016.6199,745.59581 833.09226,509.02851 642.55957,501.39844 431.95542,492.96459 199.71096,736.9754 194.6155,947.68675 Z"
     inkscape:connector-curvature="0"
     sodipodi:nodetypes="aaaaa" />
  <path
     style="color:#000000;font-style:normal;font-variant:normal;font-weight:normal;font-stretch:normal;font-size:medium;line-height:normal;font-family:sans-serif;text-indent:0;text-align:start;text-decoration:none;text-decoration-line:none;text-decoration-style:solid;text-decoration-color:#000000;letter-spacing:normal;word-spacing:normal;text-transform:none;direction:ltr;block-progression:tb;writing-mode:lr-tb;baseline-shift:baseline;text-anchor:start;white-space:normal;clip-rule:nonzero;display:inline;overflow:visible;visibility:visible;opacity:1;isolation:auto;mix-blend-mode:normal;color-interpolation:sRGB;color-interpolation-filters:linearRGB;solid-color:#000000;solid-opacity:1;fill:#000000;fill-opacity:1;fill-rule:evenodd;stroke:none;stroke-width:150;stroke-linecap:round;stroke-linejoin:round;stroke-miterlimit:4;stroke-dasharray:none;stroke-dashoffset:0;stroke-opacity:1;color-rendering:auto;image-rendering:auto;shape-rendering:auto;text-rendering:auto;enable-background:accumulate"
     d="M 1492.6191 3146.4082 A 75.0075 75.0075 0 0 0 1419.2832 3222.9824 L 1419.8027 3297.2559 C 1323.6944 3201.6033 1190.9962 3146.7208 1054.7793 3148.4785 C 916.95352 3150.257 784.25858 3209.9102 690.43359 3310.0312 C 596.71812 3410.0354 546.30962 3545.1344 549.63867 3681.5176 C 552.74647 3808.8359 602.44632 3932.9832 689.73633 4026.5391 C 777.11685 4120.1919 898.51665 4178.9329 1026.9023 4187.6445 C 1170.055 4197.3583 1312.5424 4143.9828 1415.0703 4044.5098 C 1418.4168 4041.263 1421.7117 4037.97 1424.9609 4034.6387 L 1425.5117 4113.4121 A 75.0075 75.0075 0 1 0 1575.5078 4112.3633 L 1572.5859 3694.5586 C 1573.1038 3684.2472 1573.3245 3673.9089 1573.2266 3663.5566 C 1573.1366 3654.0536 1572.7775 3644.5669 1572.1699 3635.1055 L 1569.2793 3221.9336 A 75.0075 75.0075 0 0 0 1492.6191 3146.4082 z M 1061.1387 3298.4395 C 1154.0938 3298.5102 1249.1648 3338.4542 1315.125 3404.6973 C 1376.7016 3466.5379 1415.5207 3553.4226 1422.209 3641.2676 L 1422.5527 3690.3438 C 1416.8495 3782.1392 1375.9909 3873.4295 1310.6211 3936.8516 C 1239.3536 4005.9955 1135.5001 4044.6701 1037.0586 4037.9902 C 948.46449 4031.9787 860.39523 3989.5696 799.41211 3924.209 C 738.3385 3858.7514 701.79295 3767.9531 699.59375 3677.8574 C 697.24273 3581.5418 734.43532 3482.4429 799.88477 3412.6016 C 865.2247 3342.877 961.79198 3299.6917 1056.7148 3298.4668 C 1058.1891 3298.4478 1059.6632 3298.4383 1061.1387 3298.4395 z "
     id="path4271-4-5-2" />
  <path
     style="color:#000000;font-style:normal;font-variant:normal;font-weight:normal;font-stretch:normal;font-size:medium;line-height:normal;font-family:sans-serif;text-indent:0;text-align:start;text-decoration:none;text-decoration-line:none;text-decoration-style:solid;text-decoration-color:#000000;letter-spacing:normal;word-spacing:normal;text-transform:none;direction:ltr;block-progression:tb;writing-mode:lr-tb;baseline-shift:baseline;text-anchor:start;white-space:normal;clip-rule:nonzero;display:inline;overflow:visible;visibility:visible;opacity:1;isolation:auto;mix-blend-mode:normal;color-interpolation:sRGB;color-interpolation-filters:linearRGB;solid-color:#000000;solid-opacity:1;fill:#000000;fill-opacity:1;fill-rule:evenodd;stroke:none;stroke-width:150;stroke-linecap:round;stroke-linejoin:round;stroke-miterlimit:4;stroke-dasharray:none;stroke-dashoffset:0;stroke-opacity:1;color-rendering:auto;image-rendering:auto;shape-rendering:auto;text-rendering:auto;enable-background:accumulate"
     d="M 2042.5254 1395.209 A 75.0075 75.0075 0 0 0 1976.8418 1440.1953 L 1427.3848 2702.1953 A 75.0075 75.0075 0 1 0 1564.916 2762.0742 L 1770.0039 2291.0273 L 1812.9883 2291.4805 C 2006.5764 2293.519 2195.794 2295.5641 2297.0254 2297.5859 L 2325.3008 2298.1504 L 2527.0195 2760.1465 A 75.0075 75.0075 0 1 0 2664.4863 2700.125 L 2114.3418 1440.125 A 75.0075 75.0075 0 0 0 2042.5254 1395.209 z M 2045.7051 1657.793 L 2259.25 2146.877 C 2155.9149 2145.1457 1998.1048 2143.428 1835.0156 2141.707 L 2045.7051 1657.793 z "
     id="path4138-1" />
  <path
     style="fill:none;fill-rule:evenodd;stroke:#000000;stroke-width:75;stroke-linecap:round;stroke-linejoin:round;stroke-miterlimit:4;stroke-dasharray:none;stroke-opacity:1"
     d="M -1365.4023,1426.1328 -783.20537,89.556122 -200.27842,1424.0146"
     id="path4138-13"
     inkscape:connector-curvature="0"
     sodipodi:nodetypes="ccc" />
  <path
     style="fill:none;fill-rule:evenodd;stroke:#000000;stroke-width:75;stroke-linecap:square;stroke-linejoin:miter;stroke-miterlimit:4;stroke-dasharray:none;stroke-opacity:1"
     d="m -1097.7968,923.59011 c 189.86119,1.99973 526.64654,-6.5e-4 626.75665,1.99898"
     id="path4140-6"
     inkscape:connector-curvature="0"
     sodipodi:nodetypes="cc" />
  <path
     style="color:#000000;font-style:normal;font-variant:normal;font-weight:normal;font-stretch:normal;font-size:medium;line-height:normal;font-family:sans-serif;text-indent:0;text-align:start;text-decoration:none;text-decoration-line:none;text-decoration-style:solid;text-decoration-color:#000000;letter-spacing:normal;word-spacing:normal;text-transform:none;direction:ltr;block-progression:tb;writing-mode:lr-tb;baseline-shift:baseline;text-anchor:start;white-space:normal;clip-rule:nonzero;display:inline;overflow:visible;visibility:visible;opacity:1;isolation:auto;mix-blend-mode:normal;color-interpolation:sRGB;color-interpolation-filters:linearRGB;solid-color:#000000;solid-opacity:1;fill:#000000;fill-opacity:1;fill-rule:evenodd;stroke:none;stroke-width:75;stroke-linecap:round;stroke-linejoin:round;stroke-miterlimit:4;stroke-dasharray:none;stroke-dashoffset:0;stroke-opacity:1;color-rendering:auto;image-rendering:auto;shape-rendering:auto;text-rendering:auto;enable-background:accumulate"
     d="M -1064.7539 1772.0938 A 37.50375 37.50375 0 0 0 -1097.5859 1794.5801 L -1679.7832 3131.1582 A 37.50375 37.50375 0 1 0 -1611.0215 3161.1074 L -1401.8223 2680.8398 L -1378.1914 2681.0879 C -1187.5999 2683.0953 -849.72104 2681.1259 -751.78906 2683.082 L -722.28906 2683.6699 L -514.64258 3159.0254 A 37.50375 37.50375 0 1 0 -445.91406 3129.0039 L -1028.8418 1794.5449 A 37.50375 37.50375 0 0 0 -1064.7539 1772.0938 z M -1063.1562 1903.3457 L -755.33789 2608.0176 C -861.23061 2606.1448 -1181.6586 2607.9946 -1369.2949 2606.1641 L -1063.1562 1903.3457 z "
     id="path4138-13-5" />
  <path
     style="fill:none;fill-rule:evenodd;stroke:#000000;stroke-width:75;stroke-linecap:round;stroke-linejoin:round;stroke-miterlimit:4;stroke-dasharray:none;stroke-opacity:1"
     d="m -1871.9736,476.07415 0.2473,957.40185"
     id="path4271-4-5-0"
     inkscape:path-effect="#path-effect4273-29-3-18"
     inkscape:original-d="m -1871.9736,476.07415 0.2473,957.40185"
     inkscape:connector-curvature="0"
     sodipodi:nodetypes="cc" />
  <path
     style="fill:none;fill-rule:evenodd;stroke:#000000;stroke-width:75;stroke-linecap:round;stroke-linejoin:round;stroke-miterlimit:4;stroke-dasharray:none;stroke-opacity:1"
     d="m -2811.4703,952.63962 c 0.6266,119.06768 45.7325,237.64548 125.5489,326.00188 79.8164,88.3564 193.8114,145.3888 312.5115,154.759 133.0606,10.5039 269.6472,-39.8774 364.3112,-133.9741 94.664,-94.0967 145.8453,-230.1814 137.0699,-363.36723 -3.3903,-51.45491 -15.287,-102.26614 -34.2107,-150.23482 -34.0674,-86.35564 -91.473,-163.69981 -165.6695,-219.49204 -74.1964,-55.79223 -165.1157,-89.59642 -257.8641,-93.54822 -126.5945,-5.39391 -254.0241,46.23522 -343.1415,136.30936 -89.1174,90.07414 -139.2225,216.83854 -138.5557,343.54617 z"
     id="path4275-3-0-1"
     inkscape:path-effect="#path-effect4277-7-2-2-51"
     inkscape:original-d="m -2811.4703,952.63962 c -5.2416,216.72588 221.3123,475.28918 438.0604,480.76088 235.343,5.9411 500.1981,-261.9565 501.3811,-497.34133 0.2497,-49.68756 -12.223,-100.85617 -34.2107,-150.23482 -74.0717,-166.34558 -256.1252,-312.37737 -423.5336,-313.04026 -226.6531,-0.89748 -476.2178,253.29566 -481.6972,479.85553 z"
     inkscape:connector-curvature="0"
     sodipodi:nodetypes="aasssa" />
  <path
     style="color:#000000;font-style:normal;font-variant:normal;font-weight:normal;font-stretch:normal;font-size:medium;line-height:normal;font-family:sans-serif;text-indent:0;text-align:start;text-decoration:none;text-decoration-line:none;text-decoration-style:solid;text-decoration-color:#000000;letter-spacing:normal;word-spacing:normal;text-transform:none;direction:ltr;block-progression:tb;writing-mode:lr-tb;baseline-shift:baseline;text-anchor:start;white-space:normal;clip-rule:nonzero;display:inline;overflow:visible;visibility:visible;opacity:1;isolation:auto;mix-blend-mode:normal;color-interpolation:sRGB;color-interpolation-filters:linearRGB;solid-color:#000000;solid-opacity:1;fill:#000000;fill-opacity:1;fill-rule:evenodd;stroke:none;stroke-width:75;stroke-linecap:round;stroke-linejoin:round;stroke-miterlimit:4;stroke-dasharray:none;stroke-dashoffset:0;stroke-opacity:1;color-rendering:auto;image-rendering:auto;shape-rendering:auto;text-rendering:auto;enable-background:accumulate"
     d="M -2227.5488 1554.8945 C -2229.6997 1554.892 -2231.8506 1554.9046 -2234 1554.9316 C -2362.9658 1556.5574 -2488.9639 1611.1377 -2579.5723 1702.7188 C -2676.1189 1800.302 -2729.6902 1936.1131 -2728.9707 2072.8379 C -2728.295 2201.2448 -2680.0409 2328.2535 -2593.748 2423.7793 C -2507.4067 2519.3587 -2385.0842 2580.6238 -2256.3613 2590.7852 C -2111.9156 2602.1878 -1965.3707 2548.1165 -1862.6621 2446.0234 C -1834.4825 2418.0127 -1809.9133 2386.6933 -1789.2773 2353.0137 L -1789.2266 2553.4863 A 37.50375 37.50375 0 1 0 -1714.2266 2553.4668 L -1714.3398 2113.8945 C -1713.2929 2095.2877 -1713.2902 2076.602 -1714.3535 2057.9336 L -1714.4727 1596.0645 A 37.50375 37.50375 0 0 0 -1752.5488 1558.0449 A 37.50375 37.50375 0 0 0 -1789.4727 1596.084 L -1789.416 1814.0332 C -1825.2114 1753.1536 -1872.5891 1699.0588 -1929.3711 1656.3613 C -2009.5134 1596.0981 -2107.3836 1559.613 -2208.1777 1555.3184 C -2214.6386 1555.043 -2221.0963 1554.9021 -2227.5488 1554.8945 z M -2227.6035 1629.9023 C -2222.1888 1629.903 -2216.7766 1630.0171 -2211.3691 1630.25 C -2126.6664 1633.859 -2042.6979 1664.9835 -1974.4473 1716.3047 C -1906.1305 1767.6758 -1852.7181 1839.4974 -1821.123 1919.5859 C -1803.5479 1964.1362 -1792.5657 2011.1971 -1789.4473 2058.5254 C -1789.4122 2059.0583 -1789.3865 2059.592 -1789.3535 2060.125 L -1789.3398 2110.6484 C -1795.699 2215.554 -1841.2096 2318.9499 -1915.5352 2392.8301 C -2002.1546 2478.9304 -2128.7835 2525.6227 -2250.459 2516.0176 C -2359.1363 2507.4386 -2464.8022 2454.6371 -2538.0938 2373.5039 C -2611.4336 2292.3169 -2653.3933 2182.1699 -2653.9707 2072.4414 C -2654.5848 1955.751 -2607.946 1838.0339 -2526.2578 1755.4688 C -2449.7709 1678.1608 -2341.3274 1631.4288 -2233.0195 1629.9395 C -2231.2144 1629.9147 -2229.4084 1629.9021 -2227.6035 1629.9023 z "
     id="path4271-4-5-0-5" />
  <path
     style="color:#000000;font-style:normal;font-variant:normal;font-weight:normal;font-stretch:normal;font-size:medium;line-height:normal;font-family:sans-serif;text-indent:0;text-align:start;text-decoration:none;text-decoration-line:none;text-decoration-style:solid;text-decoration-color:#000000;letter-spacing:normal;word-spacing:normal;text-transform:none;direction:ltr;block-progression:tb;writing-mode:lr-tb;baseline-shift:baseline;text-anchor:start;white-space:normal;clip-rule:nonzero;display:inline;overflow:visible;visibility:visible;opacity:1;isolation:auto;mix-blend-mode:normal;color-interpolation:sRGB;color-interpolation-filters:linearRGB;solid-color:#000000;solid-opacity:1;fill:#000000;fill-opacity:1;fill-rule:evenodd;stroke:none;stroke-width:140;stroke-linecap:round;stroke-linejoin:round;stroke-miterlimit:4;stroke-dasharray:none;stroke-dashoffset:0;stroke-opacity:1;color-rendering:auto;image-rendering:auto;shape-rendering:auto;text-rendering:auto;enable-background:accumulate"
     d="M 591.04102 1636.6934 C 586.58798 1636.68 582.14139 1636.7336 577.70117 1636.8535 C 453.37502 1640.2124 334.59587 1695.4869 248.95312 1784.2676 C 151.66028 1885.1252 101.49457 2022.3453 101.24023 2159.4629 C 101.00039 2288.7665 144.98369 2418.51 232.13477 2517.8574 C 319.75158 2617.7358 447.58764 2681.0274 583.21484 2681.7324 C 716.94819 2682.4276 843.55506 2622.1775 932.11328 2525.8223 L 932.13477 2606.8223 A 70.007 70.007 0 1 0 1072.1348 2606.7852 L 1071.9043 1716.3555 A 70.007 70.007 0 0 0 1000.832 1645.3848 A 70.007 70.007 0 0 0 931.9043 1716.3926 L 931.92383 1790.6777 C 854.38786 1706.548 747.70289 1649.656 631.24219 1638.6465 C 617.81203 1637.3769 604.40013 1636.7334 591.04102 1636.6934 z M 591.37695 1786.7793 C 594.12958 1786.7793 596.8799 1786.8193 599.625 1786.9004 C 605.48121 1787.0734 611.31784 1787.4315 617.125 1787.9805 C 699.08134 1795.7281 780.11243 1841.0559 834.16211 1906.7129 C 888.59092 1972.8303 919.04498 2061.3129 920.86914 2149.7285 C 922.86944 2246.6813 890.04533 2345.4364 828.61133 2416.5469 C 767.6812 2487.0742 674.29054 2532.2038 583.99414 2531.7344 C 495.74271 2531.2756 404.91977 2487.3627 344.89648 2418.9395 C 284.40746 2349.9853 251.0648 2254.3198 251.24023 2159.7422 C 251.42592 2059.6376 289.50569 1958.2824 356.91016 1888.4082 C 417.5962 1825.4986 506.04555 1786.7781 591.37695 1786.7793 z "
     id="path4271-4-5-5" />
</svg>
