<?xml version="1.0" encoding="UTF-8" standalone="no"?>
<svg
   xmlns:dc="http://purl.org/dc/elements/1.1/"
   xmlns:cc="http://creativecommons.org/ns#"
   xmlns:rdf="http://www.w3.org/1999/02/22-rdf-syntax-ns#"
   xmlns:svg="http://www.w3.org/2000/svg"
   xmlns="http://www.w3.org/2000/svg"
   xmlns:sodipodi="http://sodipodi.sourceforge.net/DTD/sodipodi-0.dtd"
   xmlns:inkscape="http://www.inkscape.org/namespaces/inkscape"
   version="1.1"
   id="svg2992"
   height="2048"
   width="4000"
   inkscape:version="0.91 r13725"
   sodipodi:docname="AE.svg">
  <sodipodi:namedview
     pagecolor="#ffffff"
     bordercolor="#666666"
     borderopacity="1"
     objecttolerance="10"
     gridtolerance="10"
     guidetolerance="10"
     inkscape:pageopacity="0"
     inkscape:pageshadow="2"
     inkscape:window-width="1600"
     inkscape:window-height="837"
     id="namedview33"
     showgrid="true"
     inkscape:zoom="0.34149333"
     inkscape:cx="-2744.8496"
     inkscape:cy="-21.376434"
     inkscape:window-x="1600"
     inkscape:window-y="0"
     inkscape:window-maximized="1"
     inkscape:current-layer="svg2992"
     showguides="true"
     inkscape:guide-bbox="true">
    <inkscape:grid
       type="xygrid"
       id="grid4162" />
    <sodipodi:guide
       orientation="0,1"
       position="-1718.2695,2010.3046"
       id="guide4164"
       inkscape:label=""
       inkscape:color="rgb(0,0,255)" />
    <sodipodi:guide
       orientation="0,1"
       position="-1360,600"
       id="guide4166"
       inkscape:label=""
       inkscape:color="rgb(0,0,255)" />
    <sodipodi:guide
       position="-3480,1640"
       orientation="0,1"
       id="guide4196" />
  </sodipodi:namedview>
  <defs
     id="defs5498">
    <inkscape:path-effect
       effect="spiro"
       id="path-effect4277-7-2"
       is_visible="true" />
    <inkscape:path-effect
       effect="spiro"
       id="path-effect4277-7-2-2"
       is_visible="true" />
    <inkscape:path-effect
       effect="spiro"
       id="path-effect4273-29-3"
       is_visible="true" />
    <inkscape:path-effect
       effect="spiro"
       id="path-effect4277-7-2-2-2"
       is_visible="true" />
    <inkscape:path-effect
       effect="spiro"
       id="path-effect4273-29-3-9"
       is_visible="true" />
    <inkscape:path-effect
       effect="spiro"
       id="path-effect4277-7-2-2-5"
       is_visible="true" />
    <inkscape:path-effect
       effect="spiro"
       id="path-effect4273-29-3-4"
       is_visible="true" />
    <inkscape:path-effect
       effect="spiro"
       id="path-effect4273-29-3-2"
       is_visible="true" />
    <inkscape:path-effect
       effect="spiro"
       id="path-effect4277-7-2-2-4"
       is_visible="true" />
    <inkscape:path-effect
       effect="spiro"
       id="path-effect4277-7-2-2-9"
       is_visible="true" />
    <inkscape:path-effect
       effect="spiro"
       id="path-effect4273-29-3-1"
       is_visible="true" />
    <inkscape:path-effect
       effect="spiro"
       id="path-effect4273-29-3-6"
       is_visible="true" />
    <inkscape:path-effect
       effect="spiro"
       id="path-effect4277-7-2-2-40"
       is_visible="true" />
    <inkscape:path-effect
       effect="spiro"
       id="path-effect4273-29-3-62"
       is_visible="true" />
    <inkscape:path-effect
       effect="spiro"
       id="path-effect4277-7-2-2-93"
       is_visible="true" />
    <inkscape:path-effect
       effect="spiro"
       id="path-effect4277-7-2-2-51"
       is_visible="true" />
    <inkscape:path-effect
       effect="spiro"
       id="path-effect4273-29-3-18"
       is_visible="true" />
    <inkscape:path-effect
       effect="spiro"
       id="path-effect4277-7-2-2-51-8"
       is_visible="true" />
    <inkscape:path-effect
       effect="spiro"
       id="path-effect4273-29-3-18-3"
       is_visible="true" />
    <inkscape:path-effect
       effect="spiro"
       id="path-effect4273-29-3-13"
       is_visible="true" />
    <inkscape:path-effect
       effect="spiro"
       id="path-effect4277-7-2-2-28"
       is_visible="true" />
    <inkscape:path-effect
       effect="spiro"
       id="path-effect4273-29-3-620"
       is_visible="true" />
    <inkscape:path-effect
       effect="spiro"
       id="path-effect4277-7-2-2-58"
       is_visible="true" />
    <inkscape:path-effect
       effect="spiro"
       id="path-effect4277-7-2-4-0-79"
       is_visible="true" />
    <inkscape:path-effect
       effect="spiro"
       id="path-effect4273-29-3-24"
       is_visible="true" />
    <inkscape:path-effect
       effect="spiro"
       id="path-effect4277-7-2-2-6"
       is_visible="true" />
    <inkscape:path-effect
       effect="spiro"
       id="path-effect4273-29-3-24-0"
       is_visible="true" />
    <inkscape:path-effect
       effect="spiro"
       id="path-effect4277-7-2-2-6-4"
       is_visible="true" />
    <inkscape:path-effect
       effect="spiro"
       id="path-effect4277-7-2-4-0-79-9"
       is_visible="true" />
    <inkscape:path-effect
       effect="spiro"
       id="path-effect4277-7-2-2-6-4-3"
       is_visible="true" />
    <inkscape:path-effect
       effect="spiro"
       id="path-effect4273-29-3-24-0-1"
       is_visible="true" />
    <inkscape:path-effect
       effect="spiro"
       id="path-effect4277-7-2-4-0-79-94"
       is_visible="true" />
    <inkscape:path-effect
       effect="spiro"
       id="path-effect4277-7-2-2-6-4-2"
       is_visible="true" />
    <inkscape:path-effect
       effect="spiro"
       id="path-effect4273-29-3-24-0-3"
       is_visible="true" />
    <inkscape:path-effect
       effect="spiro"
       id="path-effect4277-7-2-2-6-4-2-6"
       is_visible="true" />
    <inkscape:path-effect
       effect="spiro"
       id="path-effect4273-29-3-24-0-3-2"
       is_visible="true" />
    <inkscape:path-effect
       effect="spiro"
       id="path-effect4277-7-2-4-0-79-94-2"
       is_visible="true" />
  </defs>
  <metadata
     id="metadata5594">
    <rdf:RDF>
      <cc:Work
         rdf:about="">
        <dc:format>image/svg+xml</dc:format>
        <dc:type
           rdf:resource="http://purl.org/dc/dcmitype/StillImage" />
        <dc:title />
      </cc:Work>
    </rdf:RDF>
  </metadata>
  <path
     style="fill:none;fill-rule:evenodd;stroke:#000000;stroke-width:150;stroke-linecap:round;stroke-linejoin:round;stroke-miterlimit:4;stroke-dasharray:none;stroke-opacity:1"
     d="m 1285.3504,1388.3759 549.4567,-1261.99996 1014.1457,-4e-5"
     id="path4138"
     inkscape:connector-curvature="0"
     sodipodi:nodetypes="ccc" />
  <path
     style="fill:none;fill-rule:evenodd;stroke:#000000;stroke-width:150;stroke-linecap:square;stroke-linejoin:miter;stroke-miterlimit:4;stroke-dasharray:none;stroke-opacity:1"
     d="m 1611.6269,894.34862 c 193.6005,2.03874 278.6644,4.07747 380.7462,6.11621"
     id="path4140"
     inkscape:connector-curvature="0"
     sodipodi:nodetypes="cc" />
  <path
     style="fill:none;fill-rule:evenodd;stroke:#000000;stroke-width:150;stroke-linecap:round;stroke-linejoin:round;stroke-miterlimit:4;stroke-dasharray:none;stroke-opacity:1"
     d="m 3012.0589,128.3248 -937.186,-1.3504 3.025,1248.0512 934.159,-0.7007"
     id="path4139"
     inkscape:connector-curvature="0"
     sodipodi:nodetypes="cccc" />
  <path
     style="fill:none;fill-rule:evenodd;stroke:#000000;stroke-width:150;stroke-linecap:round;stroke-linejoin:round;stroke-miterlimit:4;stroke-dasharray:none;stroke-opacity:1"
     d="m 2160.0109,760.2214 769.095,4.8564"
     id="path4141"
     inkscape:connector-curvature="0"
     sodipodi:nodetypes="cc" />
  <path
     style="color:#000000;font-style:normal;font-variant:normal;font-weight:normal;font-stretch:normal;font-size:medium;line-height:normal;font-family:sans-serif;text-indent:0;text-align:start;text-decoration:none;text-decoration-line:none;text-decoration-style:solid;text-decoration-color:#000000;letter-spacing:normal;word-spacing:normal;text-transform:none;direction:ltr;block-progression:tb;writing-mode:lr-tb;baseline-shift:baseline;text-anchor:start;white-space:normal;clip-rule:nonzero;display:inline;overflow:visible;visibility:visible;opacity:1;isolation:auto;mix-blend-mode:normal;color-interpolation:sRGB;color-interpolation-filters:linearRGB;solid-color:#000000;solid-opacity:1;fill:#000000;fill-opacity:1;fill-rule:evenodd;stroke:none;stroke-width:150;stroke-linecap:round;stroke-linejoin:round;stroke-miterlimit:4;stroke-dasharray:none;stroke-dashoffset:0;stroke-opacity:1;color-rendering:auto;image-rendering:auto;shape-rendering:auto;text-rendering:auto;enable-background:accumulate"
     d="m 2027.7207,1754.4648 c -29.8446,0 -56.8482,17.6979 -68.7637,45.0606 l -549.457,1262 c -17.2596,38.1251 0.018,82.9999 38.3889,99.7061 38.3708,16.7062 82.991,-1.2188 99.1404,-39.8272 l 195.7559,-449.6133 60.9668,0.6426 c 193.3053,2.0357 277.7889,4.0615 380.0371,6.1035 l 11.0547,0.2207 0.9687,399.5371 c 0.1043,41.3708 33.6857,74.8456 75.0566,74.8184 l 934.1582,-0.7012 c 41.8624,0.5979 76.1102,-33.1898 76.0786,-75.0565 -0.032,-41.8666 -34.3304,-75.6026 -76.1918,-74.9415 l -859.2832,0.6445 -1.1289,-465.2031 c 2.6398,0.2917 5.2933,0.4429 7.9492,0.4531 l 769.0957,4.8555 c 41.8437,0.8738 76.3076,-32.6656 76.5719,-74.5175 0.2643,-41.8519 -33.7733,-75.8238 -75.6247,-75.4786 l -769.0957,-4.8575 c -3.0924,-0.039 -6.1842,0.1127 -9.2578,0.4551 l -1.1718,-483.5937 861.8964,1.2402 c 41.8332,0.649 76.1104,-33.0519 76.1709,-74.8901 0.061,-41.8381 -34.1192,-75.638 -75.9541,-75.1099 -392.0217,-3.4319 -784.3597,-1.9473 -1177.3613,-1.9473 z m 49.1465,150 116.0996,0 1.5137,624.2579 -7.6953,-0.1543 c -101.4526,-2.0262 -186.95,-4.067 -378.9883,-6.0996 z"
     id="path4138-2"
     inkscape:connector-curvature="0"
     sodipodi:nodetypes="cccsccssccccscccccscccccscccccccc" />
  <path
     style="fill:none;fill-rule:evenodd;stroke:#000000;stroke-width:150;stroke-linecap:round;stroke-linejoin:round;stroke-miterlimit:4;stroke-dasharray:none;stroke-opacity:1"
     d="m -976.0273,919.483 794.16,-1.0684 c 10.35405,-106.43225 -24.94216,-216.54246 -95.24301,-297.1205 -70.30085,-80.57805 -174.60778,-130.4794 -281.46099,-134.6534 -117.01011,-4.57076 -234.30107,45.72577 -314.39824,131.14649 -80.09717,85.42073 -122.59344,204.03225 -118.73176,321.06791 3.58174,108.5515 46.5625,215.6101 120.07238,295.5636 73.50989,79.9535 177.11296,131.89 285.29162,141.5669 140.07832,12.5304 284.68895,-48.2105 373.805,-157.0098"
     id="path4275-3-0-8-3-0"
     inkscape:path-effect="#path-effect4277-7-2-4-0-79"
     inkscape:original-d="m -976.0273,919.483 794.16,-1.0684 c 0,0 -185.754,-427.3375 -376.704,-431.7739 -208.67,-4.8482 -431.447,243.4949 -433.13,452.2144 -1.603,198.7127 211.124,395.178 405.364,437.1305 132.101,28.5315 373.805,-157.0098 373.805,-157.0098"
     inkscape:connector-curvature="0"
     sodipodi:nodetypes="ccaaac" />
  <path
     style="fill:none;fill-rule:evenodd;stroke:#000000;stroke-width:150;stroke-linecap:round;stroke-linejoin:round;stroke-miterlimit:4;stroke-dasharray:none;stroke-opacity:1"
     d="m -977.917,483.8736 -2.2333,906.2528"
     id="path4271-4-5-1-4"
     inkscape:path-effect="#path-effect4273-29-3-24-0"
     inkscape:original-d="m -977.917,483.8736 -2.2333,906.2528"
     inkscape:connector-curvature="0"
     sodipodi:nodetypes="cc" />
  <path
     style="fill:none;fill-rule:evenodd;stroke:#000000;stroke-width:150;stroke-linecap:round;stroke-linejoin:round;stroke-miterlimit:4;stroke-dasharray:none;stroke-opacity:1"
     d="m -1862.0921,922.82105 c -1.8844,115.20405 42.2709,230.71685 121.3191,314.54345 79.0482,83.8266 192.2277,134.7644 307.4201,137.258 112.9704,2.4455 226.0605,-41.6631 308.2821,-119.1738 82.2216,-77.5107 132.82948,-187.3684 139.3836,-300.175 6.60318,-113.65103 -31.5824,-229.49416 -105.2973,-316.24828 -73.7149,-86.75411 -182.3079,-143.25149 -295.7533,-152.75432 -120.1837,-10.06727 -243.6428,33.06092 -332.2095,114.92317 -88.5667,81.86226 -141.1723,201.03826 -143.1448,321.62678 z"
     id="path4275-3-0-4-7"
     inkscape:path-effect="#path-effect4277-7-2-2-6-4"
     inkscape:original-d="m -1862.0921,922.82105 c -7.1315,207.49405 221.2124,445.69495 428.7392,451.80145 204.3778,6.0139 436.36536,-215.1951 447.6657,-419.3488 11.36842,-205.38361 -195.7256,-456.61985 -401.0506,-469.0026 -214.7422,-12.95069 -467.9646,221.5445 -475.3543,436.54995 z"
     inkscape:connector-curvature="0"
     sodipodi:nodetypes="aaaaa" />
  <path
     style="color:#000000;font-style:normal;font-variant:normal;font-weight:normal;font-stretch:normal;font-size:medium;line-height:normal;font-family:sans-serif;text-indent:0;text-align:start;text-decoration:none;text-decoration-line:none;text-decoration-style:solid;text-decoration-color:#000000;letter-spacing:normal;word-spacing:normal;text-transform:none;direction:ltr;block-progression:tb;writing-mode:lr-tb;baseline-shift:baseline;text-anchor:start;white-space:normal;clip-rule:nonzero;display:inline;overflow:visible;visibility:visible;opacity:1;isolation:auto;mix-blend-mode:normal;color-interpolation:sRGB;color-interpolation-filters:linearRGB;solid-color:#000000;solid-opacity:1;fill:#000000;fill-opacity:1;fill-rule:evenodd;stroke:none;stroke-width:150;stroke-linecap:round;stroke-linejoin:round;stroke-miterlimit:4;stroke-dasharray:none;stroke-dashoffset:0;stroke-opacity:1;color-rendering:auto;image-rendering:auto;shape-rendering:auto;text-rendering:auto;enable-background:accumulate"
     d="M -777.78711 1718.8105 A 75.0075 75.0075 0 0 0 -851.84375 1794.6895 L -852.05664 1881.2129 C -937.68305 1791.3089 -1054.6158 1734.0626 -1178.7637 1722.5898 C -1196.8572 1720.9178 -1214.9736 1720.2333 -1233.0312 1720.5078 C -1359.4359 1722.4292 -1483.0097 1771.3416 -1576.3945 1857.4512 C -1683.0801 1955.8251 -1744.3924 2097.0887 -1744.0195 2242.0137 C -1743.6717 2377.1903 -1689.8372 2509.1918 -1595.0117 2605.791 C -1500.154 2702.4229 -1368.8341 2758.8635 -1233.25 2760.6172 C -1100.2427 2762.3375 -969.91016 2711.3823 -873.08398 2620.4512 C -866.48681 2614.2557 -860.07252 2607.8884 -853.83203 2601.3711 L -854.07812 2700.9414 A 75.0075 75.0075 0 1 0 -704.07812 2701.3105 L -703.875 2618.5762 C -619.74468 2699.6043 -509.14809 2751.2035 -391.94727 2761.6875 C -225.883 2776.5425 -59.08741 2706.4827 46.560547 2577.5 A 75.0075 75.0075 0 1 0 -69.480469 2482.4512 C -142.06459 2571.0671 -264.48966 2622.4892 -378.58203 2612.2832 C -467.27355 2604.3495 -554.64666 2560.676 -615.3457 2494.6562 C -657.08154 2449.262 -687.3176 2392.2502 -703.16602 2331.7168 L -703.10156 2305.3867 L 19.306641 2304.4141 A 75.0075 75.0075 0 0 0 93.853516 2236.6758 C 106.28072 2108.933 64.853512 1979.7001 -19.523438 1882.9883 C -103.90038 1786.2763 -226.3223 1727.707 -354.57031 1722.6973 C -363.34574 1722.3545 -372.10735 1722.263 -380.84375 1722.418 C -500.23563 1724.536 -615.11758 1772.6434 -701.98633 1853.0391 L -701.84375 1795.0586 A 75.0075 75.0075 0 0 0 -777.78711 1718.8105 z M -1225.7637 1870.5254 C -1214.6547 1870.4657 -1203.5713 1870.9362 -1192.5664 1871.9531 C -1099.5576 1880.5482 -1008.1972 1928.1006 -947.46094 1999.3066 C -903.42585 2050.9325 -874.15914 2116.4597 -863.45117 2184.2734 C -865.60926 2206.8524 -866.3381 2229.5916 -865.58789 2252.3281 C -865.13944 2265.9194 -864.16666 2279.4726 -862.6875 2292.9551 C -874.81769 2375.176 -915.56902 2454.574 -975.76953 2511.1094 C -1043.489 2574.7059 -1138.6066 2611.828 -1231.3105 2610.6289 C -1325.7546 2609.4074 -1421.6705 2568.2492 -1487.9668 2500.7129 C -1554.2951 2433.1439 -1593.7754 2336.4988 -1594.0195 2241.6289 C -1594.2806 2140.1453 -1549.1787 2036.389 -1474.7129 1967.7246 C -1409.5905 1907.6756 -1319.4482 1872.2686 -1230.5254 1870.584 C -1228.9375 1870.5539 -1227.3507 1870.5339 -1225.7637 1870.5254 z M -373.61523 1872.3672 C -369.21143 1872.3411 -364.81391 1872.4128 -360.42578 1872.584 C -274.96738 1875.9222 -188.77749 1917.1554 -132.55273 1981.5996 C -91.083377 2029.1313 -64.396443 2091.1088 -56.535156 2154.5156 L -702.73242 2155.3848 L -702.68555 2136.7285 C -686.98498 2078.143 -657.69022 2023.2847 -617.18555 1980.0879 C -556.10178 1914.9443 -466.16076 1874.2456 -378.02148 1872.4258 C -376.5525 1872.3955 -375.08317 1872.3759 -373.61523 1872.3672 z "
     id="path4275-3-0-8-3-0-6" />
  <path
     style="fill:none;fill-rule:evenodd;stroke:#000000;stroke-width:70;stroke-linecap:round;stroke-linejoin:round;stroke-miterlimit:4;stroke-dasharray:none;stroke-opacity:1"
     d="m -2850.21,910.03491 794.16,-1.0684 c 24.6838,-112.12985 -4.1288,-234.82793 -76.1422,-324.25088 -72.0134,-89.42295 -185.7474,-143.73274 -300.5618,-143.52302 -115.0513,0.21016 -227.5243,54.10057 -305.3071,138.87485 -77.7827,84.77428 -121.4127,198.46681 -127.8229,313.33955 -6.7509,120.97889 27.6275,244.82109 100.5009,341.62459 72.8734,96.8036 184.5882,164.8288 304.8631,179.5059 78.8169,9.618 160.2706,-3.436 232.1345,-37.2025 71.864,-33.7665 133.905,-88.1359 176.8103,-154.9471"
     id="path4275-3-0-8-3-0-8"
     inkscape:path-effect="#path-effect4277-7-2-4-0-79-94"
     inkscape:original-d="m -2850.21,910.03491 794.16,-1.0684 c 0,0 -176.6891,-459.18059 -376.704,-467.7739 -208.5338,-8.95931 -422.411,243.76366 -433.13,452.2144 -11.3018,219.78459 191.3495,469.83909 405.364,521.13049 146.4649,35.1023 408.9448,-192.1496 408.9448,-192.1496"
     inkscape:connector-curvature="0"
     sodipodi:nodetypes="ccaaac" />
  <path
     style="fill:none;fill-rule:evenodd;stroke:#000000;stroke-width:70;stroke-linecap:round;stroke-linejoin:round;stroke-miterlimit:4;stroke-dasharray:none;stroke-opacity:1"
     d="m -2858.0997,442.42551 -2.2333,986.25279"
     id="path4271-4-5-1-4-4"
     inkscape:path-effect="#path-effect4273-29-3-24-0-3"
     inkscape:original-d="m -2858.0997,442.42551 -2.2333,986.25279"
     inkscape:connector-curvature="0"
     sodipodi:nodetypes="cc" />
  <path
     style="fill:none;fill-rule:evenodd;stroke:#000000;stroke-width:70;stroke-linecap:round;stroke-linejoin:round;stroke-miterlimit:4;stroke-dasharray:none;stroke-opacity:1"
     d="m -3692.4934,955.51633 c 5.3065,108.13077 38.5425,216.43517 104.5692,302.23087 66.0267,85.7956 166.4478,147.1085 274.3886,155.4272 58.3896,4.4999 117.6903,-6.3193 171.4341,-29.5831 53.7437,-23.2638 101.9284,-58.8145 141.3116,-102.1568 78.7664,-86.6846 120.8321,-202.9845 129.0634,-319.82035 8.7917,-124.79049 -20.9194,-254.33423 -95.2026,-354.99188 -37.1416,-50.32883 -85.0208,-92.9425 -140.2216,-122.35944 -55.2008,-29.41695 -117.7275,-45.44639 -180.268,-44.36095 -60.9871,1.05848 -121.4007,18.36612 -174.6106,48.18656 -53.2099,29.82045 -99.2303,71.98077 -135.0877,121.32443 -71.7149,98.68732 -101.3559,224.25743 -95.3764,346.10346 z"
     id="path4275-3-0-4-7-8"
     inkscape:path-effect="#path-effect4277-7-2-2-6-4-2"
     inkscape:original-d="m -3692.4934,955.51633 c 2.5446,198.04647 181.065,449.45277 378.9578,457.65807 210.4009,8.7239 431.1049,-241.2508 441.8091,-451.56025 11.3027,-222.06954 -193.3365,-522.47595 -415.6922,-521.71227 -218.5657,0.75065 -407.8828,297.06549 -405.0747,515.61445 z"
     inkscape:connector-curvature="0"
     sodipodi:nodetypes="aaaaa" />
  <path
     style="color:#000000;font-style:normal;font-variant:normal;font-weight:normal;font-stretch:normal;font-size:medium;line-height:normal;font-family:sans-serif;text-indent:0;text-align:start;text-decoration:none;text-decoration-line:none;text-decoration-style:solid;text-decoration-color:#000000;letter-spacing:normal;word-spacing:normal;text-transform:none;direction:ltr;block-progression:tb;writing-mode:lr-tb;baseline-shift:baseline;text-anchor:start;white-space:normal;clip-rule:nonzero;display:inline;overflow:visible;visibility:visible;opacity:1;isolation:auto;mix-blend-mode:normal;color-interpolation:sRGB;color-interpolation-filters:linearRGB;solid-color:#000000;solid-opacity:1;fill:#000000;fill-opacity:1;fill-rule:evenodd;stroke:none;stroke-width:70;stroke-linecap:round;stroke-linejoin:round;stroke-miterlimit:4;stroke-dasharray:none;stroke-dashoffset:0;stroke-opacity:1;color-rendering:auto;image-rendering:auto;shape-rendering:auto;text-rendering:auto;enable-background:accumulate"
     d="M -3200.7539 1636.8789 C -3202.9061 1636.8798 -3205.059 1636.8982 -3207.2129 1636.9355 C -3274.4178 1638.102 -3340.2985 1657.0654 -3398.3262 1689.5859 C -3456.3012 1722.0769 -3505.9613 1767.6726 -3544.6172 1820.8672 C -3621.936 1927.2661 -3652.9515 2060.5822 -3646.6367 2189.2598 C -3641.0356 2303.3938 -3606.0947 2418.5421 -3534.8477 2511.1211 C -3463.2753 2604.1227 -3354.8314 2670.8963 -3235.4121 2680.0996 C -3170.9271 2685.0693 -3106.1115 2673.161 -3047.3848 2647.7402 C -2988.7106 2622.3422 -2936.6048 2583.8083 -2894.0723 2537 C -2861.4817 2501.1332 -2834.8819 2460.8464 -2813.9688 2417.8477 L -2814.5195 2660.627 A 35.0035 35.0035 0 1 0 -2744.5195 2660.7871 L -2744.0215 2441.0645 C -2734.4128 2457.2671 -2723.919 2472.9821 -2712.5312 2488.1094 C -2634.0593 2592.35 -2514.541 2665.3721 -2383.9453 2681.3086 C -2298.4705 2691.7391 -2210.622 2677.6599 -2132.6875 2641.041 C -2054.7529 2604.4222 -1987.8402 2545.785 -1941.3105 2473.3301 A 35.0035 35.0035 0 1 0 -2000.2109 2435.5039 C -2039.4919 2496.6713 -2096.6617 2546.7714 -2162.4551 2577.6855 C -2228.2484 2608.5997 -2303.3078 2620.6298 -2375.4668 2611.8242 C -2485.4209 2598.4066 -2589.3326 2535.3763 -2656.6074 2446.0098 C -2701.5469 2386.313 -2730.8626 2314.8719 -2743.5664 2240.3906 L -2743.4238 2177.0293 L -1975.1895 2175.9961 A 35.0035 35.0035 0 0 0 -1941.0547 2148.5195 C -1913.9889 2025.5694 -1945.1566 1892.8431 -2024.1191 1794.791 C -2103.0817 1696.739 -2226.1102 1637.9908 -2352.0039 1638.2207 C -2477.9429 1638.4508 -2598.8867 1696.7195 -2683.0371 1788.4336 C -2705.6925 1813.1254 -2725.5962 1839.9883 -2742.7246 1868.4531 L -2742.2852 1674.5332 A 35.0035 35.0035 0 0 0 -2777.7324 1638.959 A 35.0035 35.0035 0 0 0 -2812.2852 1674.375 L -2812.7773 1892 C -2825.6043 1866.1689 -2840.6316 1841.3406 -2857.9531 1817.8691 C -2898.0232 1763.572 -2949.7086 1717.4686 -3009.877 1685.4043 C -3068.2194 1654.3132 -3134.0362 1636.8525 -3200.7539 1636.8789 z M -3200.7305 1706.8789 C -3146.2915 1706.8679 -3091.406 1721.2755 -3042.7969 1747.1797 C -2992.5636 1773.9494 -2948.4905 1813.073 -2914.2773 1859.4336 C -2845.8657 1952.1348 -2817.5423 2073.6012 -2825.8262 2191.1836 C -2833.5843 2301.3048 -2873.4197 2410.1824 -2945.8789 2489.9258 C -2982.1127 2529.8021 -3026.3781 2562.3704 -3075.1914 2583.5 C -3123.952 2604.6068 -3177.739 2614.3368 -3230.0332 2610.3066 C -3326.4955 2602.8726 -3418.892 2547.0192 -3479.373 2468.4297 C -3540.1794 2389.4173 -3571.7108 2287.9575 -3576.7227 2185.8301 C -3582.3669 2070.8157 -3554.1012 1952.9933 -3487.9902 1862.0176 C -3454.9312 1816.5248 -3412.5502 1777.7983 -3364.1055 1750.6484 C -3315.7134 1723.528 -3260.7693 1707.8764 -3206 1706.9258 L -3205.998 1706.9258 C -3204.2431 1706.8953 -3202.4866 1706.8793 -3200.7305 1706.8789 z M -2351.877 1708.2207 C -2248.1419 1708.0312 -2143.7029 1757.9035 -2078.6387 1838.6973 C -2019.3913 1912.268 -1992.2935 2012.2479 -2004.7363 2106.0352 L -2743.2656 2107.0293 L -2743.1758 2067.9082 C -2727.8305 1981.597 -2689.8103 1899.3541 -2631.459 1835.7578 C -2560.0438 1757.9235 -2456.0406 1708.411 -2351.877 1708.2207 z "
     id="path4275-3-0-8-3-0-8-7" />
</svg>
