<?xml version="1.0" encoding="UTF-8" standalone="no"?>
<svg
   xmlns:dc="http://purl.org/dc/elements/1.1/"
   xmlns:cc="http://creativecommons.org/ns#"
   xmlns:rdf="http://www.w3.org/1999/02/22-rdf-syntax-ns#"
   xmlns:svg="http://www.w3.org/2000/svg"
   xmlns="http://www.w3.org/2000/svg"
   xmlns:sodipodi="http://sodipodi.sourceforge.net/DTD/sodipodi-0.dtd"
   xmlns:inkscape="http://www.inkscape.org/namespaces/inkscape"
   version="1.1"
   id="svg2992"
   height="2048"
   width="4000"
   inkscape:version="0.91 r13725"
   sodipodi:docname="AE.svg">
  <sodipodi:namedview
     pagecolor="#ffffff"
     bordercolor="#666666"
     borderopacity="1"
     objecttolerance="10"
     gridtolerance="10"
     guidetolerance="10"
     inkscape:pageopacity="0"
     inkscape:pageshadow="2"
     inkscape:window-width="1600"
     inkscape:window-height="844"
     id="namedview33"
     showgrid="false"
     inkscape:zoom="0.125"
     inkscape:cx="-413.35325"
     inkscape:cy="-290.26928"
     inkscape:window-x="1600"
     inkscape:window-y="0"
     inkscape:window-maximized="1"
     inkscape:current-layer="svg2992"
     showguides="true"
     inkscape:guide-bbox="true">
    <inkscape:grid
       type="xygrid"
       id="grid4162" />
    <sodipodi:guide
       orientation="0,1"
       position="-1718.2695,2010.3046"
       id="guide4164"
       inkscape:label=""
       inkscape:color="rgb(0,0,255)" />
    <sodipodi:guide
       orientation="0,1"
       position="-1360,600"
       id="guide4166"
       inkscape:label=""
       inkscape:color="rgb(0,0,255)" />
    <sodipodi:guide
       position="-3480,1640"
       orientation="0,1"
       id="guide4196" />
  </sodipodi:namedview>
  <defs
     id="defs5498">
    <inkscape:path-effect
       effect="spiro"
       id="path-effect4277-7-2"
       is_visible="true" />
    <inkscape:path-effect
       effect="spiro"
       id="path-effect4277-7-2-2"
       is_visible="true" />
    <inkscape:path-effect
       effect="spiro"
       id="path-effect4273-29-3"
       is_visible="true" />
    <inkscape:path-effect
       effect="spiro"
       id="path-effect4277-7-2-2-2"
       is_visible="true" />
    <inkscape:path-effect
       effect="spiro"
       id="path-effect4273-29-3-9"
       is_visible="true" />
    <inkscape:path-effect
       effect="spiro"
       id="path-effect4277-7-2-2-5"
       is_visible="true" />
    <inkscape:path-effect
       effect="spiro"
       id="path-effect4273-29-3-4"
       is_visible="true" />
    <inkscape:path-effect
       effect="spiro"
       id="path-effect4273-29-3-2"
       is_visible="true" />
    <inkscape:path-effect
       effect="spiro"
       id="path-effect4277-7-2-2-4"
       is_visible="true" />
    <inkscape:path-effect
       effect="spiro"
       id="path-effect4277-7-2-2-9"
       is_visible="true" />
    <inkscape:path-effect
       effect="spiro"
       id="path-effect4273-29-3-1"
       is_visible="true" />
    <inkscape:path-effect
       effect="spiro"
       id="path-effect4273-29-3-6"
       is_visible="true" />
    <inkscape:path-effect
       effect="spiro"
       id="path-effect4277-7-2-2-40"
       is_visible="true" />
    <inkscape:path-effect
       effect="spiro"
       id="path-effect4273-29-3-62"
       is_visible="true" />
    <inkscape:path-effect
       effect="spiro"
       id="path-effect4277-7-2-2-93"
       is_visible="true" />
    <inkscape:path-effect
       effect="spiro"
       id="path-effect4277-7-2-2-51"
       is_visible="true" />
    <inkscape:path-effect
       effect="spiro"
       id="path-effect4273-29-3-18"
       is_visible="true" />
    <inkscape:path-effect
       effect="spiro"
       id="path-effect4277-7-2-2-51-8"
       is_visible="true" />
    <inkscape:path-effect
       effect="spiro"
       id="path-effect4273-29-3-18-3"
       is_visible="true" />
    <inkscape:path-effect
       effect="spiro"
       id="path-effect4273-29-3-13"
       is_visible="true" />
    <inkscape:path-effect
       effect="spiro"
       id="path-effect4277-7-2-2-28"
       is_visible="true" />
    <inkscape:path-effect
       effect="spiro"
       id="path-effect4273-29-3-620"
       is_visible="true" />
    <inkscape:path-effect
       effect="spiro"
       id="path-effect4277-7-2-2-58"
       is_visible="true" />
    <inkscape:path-effect
       effect="spiro"
       id="path-effect4277-7-2-4-0-79"
       is_visible="true" />
    <inkscape:path-effect
       effect="spiro"
       id="path-effect4273-29-3-24"
       is_visible="true" />
    <inkscape:path-effect
       effect="spiro"
       id="path-effect4277-7-2-2-6"
       is_visible="true" />
    <inkscape:path-effect
       effect="spiro"
       id="path-effect4273-29-3-24-0"
       is_visible="true" />
    <inkscape:path-effect
       effect="spiro"
       id="path-effect4277-7-2-2-6-4"
       is_visible="true" />
    <inkscape:path-effect
       effect="spiro"
       id="path-effect4277-7-2-4-0-79-9"
       is_visible="true" />
    <inkscape:path-effect
       effect="spiro"
       id="path-effect4277-7-2-2-6-4-3"
       is_visible="true" />
    <inkscape:path-effect
       effect="spiro"
       id="path-effect4273-29-3-24-0-1"
       is_visible="true" />
  </defs>
  <metadata
     id="metadata5594">
    <rdf:RDF>
      <cc:Work
         rdf:about="">
        <dc:format>image/svg+xml</dc:format>
        <dc:type
           rdf:resource="http://purl.org/dc/dcmitype/StillImage" />
        <dc:title />
      </cc:Work>
    </rdf:RDF>
  </metadata>
  <path
     style="fill:none;fill-rule:evenodd;stroke:#000000;stroke-width:150;stroke-linecap:round;stroke-linejoin:round;stroke-miterlimit:4;stroke-dasharray:none;stroke-opacity:1"
     d="m 1285.3504,1388.3759 549.4567,-1261.99996 1014.1457,-4e-5"
     id="path4138"
     inkscape:connector-curvature="0"
     sodipodi:nodetypes="ccc" />
  <path
     style="fill:none;fill-rule:evenodd;stroke:#000000;stroke-width:150;stroke-linecap:square;stroke-linejoin:miter;stroke-miterlimit:4;stroke-dasharray:none;stroke-opacity:1"
     d="m 1611.6269,894.34862 c 193.6005,2.03874 278.6644,4.07747 380.7462,6.11621"
     id="path4140"
     inkscape:connector-curvature="0"
     sodipodi:nodetypes="cc" />
  <path
     style="fill:none;fill-rule:evenodd;stroke:#000000;stroke-width:150;stroke-linecap:round;stroke-linejoin:round;stroke-miterlimit:4;stroke-dasharray:none;stroke-opacity:1"
     d="m 3012.0589,128.3248 -937.186,-1.3504 3.025,1248.0512 934.159,-0.7007"
     id="path4139"
     inkscape:connector-curvature="0"
     sodipodi:nodetypes="cccc" />
  <path
     style="fill:none;fill-rule:evenodd;stroke:#000000;stroke-width:150;stroke-linecap:round;stroke-linejoin:round;stroke-miterlimit:4;stroke-dasharray:none;stroke-opacity:1"
     d="m 2160.0109,760.2214 769.095,4.8564"
     id="path4141"
     inkscape:connector-curvature="0"
     sodipodi:nodetypes="cc" />
  <path
     style="color:#000000;font-style:normal;font-variant:normal;font-weight:normal;font-stretch:normal;font-size:medium;line-height:normal;font-family:sans-serif;text-indent:0;text-align:start;text-decoration:none;text-decoration-line:none;text-decoration-style:solid;text-decoration-color:#000000;letter-spacing:normal;word-spacing:normal;text-transform:none;direction:ltr;block-progression:tb;writing-mode:lr-tb;baseline-shift:baseline;text-anchor:start;white-space:normal;clip-rule:nonzero;display:inline;overflow:visible;visibility:visible;opacity:1;isolation:auto;mix-blend-mode:normal;color-interpolation:sRGB;color-interpolation-filters:linearRGB;solid-color:#000000;solid-opacity:1;fill:#000000;fill-opacity:1;fill-rule:evenodd;stroke:none;stroke-width:150;stroke-linecap:round;stroke-linejoin:round;stroke-miterlimit:4;stroke-dasharray:none;stroke-dashoffset:0;stroke-opacity:1;color-rendering:auto;image-rendering:auto;shape-rendering:auto;text-rendering:auto;enable-background:accumulate"
     d="m 2027.7207,1754.4648 c -29.8446,0 -56.8482,17.6979 -68.7637,45.0606 l -549.457,1262 c -17.2596,38.1251 0.018,82.9999 38.3889,99.7061 38.3708,16.7062 82.991,-1.2188 99.1404,-39.8272 l 195.7559,-449.6133 60.9668,0.6426 c 193.3053,2.0357 277.7889,4.0615 380.0371,6.1035 l 11.0547,0.2207 0.9687,399.5371 c 0.1043,41.3708 33.6857,74.8456 75.0566,74.8184 l 934.1582,-0.7012 c 41.8624,0.5979 76.1102,-33.1898 76.0786,-75.0565 -0.032,-41.8666 -34.3304,-75.6026 -76.1918,-74.9415 l -859.2832,0.6445 -1.1289,-465.2031 c 2.6398,0.2917 5.2933,0.4429 7.9492,0.4531 l 769.0957,4.8555 c 41.8437,0.8738 76.3076,-32.6656 76.5719,-74.5175 0.2643,-41.8519 -33.7733,-75.8238 -75.6247,-75.4786 l -769.0957,-4.8575 c -3.0924,-0.039 -6.1842,0.1127 -9.2578,0.4551 l -1.1718,-483.5937 861.8964,1.2402 c 41.8332,0.649 76.1104,-33.0519 76.1709,-74.8901 0.061,-41.8381 -34.1192,-75.638 -75.9541,-75.1099 -392.0217,-3.4319 -784.3597,-1.9473 -1177.3613,-1.9473 z m 49.1465,150 116.0996,0 1.5137,624.2579 -7.6953,-0.1543 c -101.4526,-2.0262 -186.95,-4.067 -378.9883,-6.0996 z"
     id="path4138-2"
     inkscape:connector-curvature="0"
     sodipodi:nodetypes="cccsccssccccscccccscccccscccccccc" />
  <path
     style="fill:none;fill-rule:evenodd;stroke:#000000;stroke-width:150;stroke-linecap:round;stroke-linejoin:round;stroke-miterlimit:4;stroke-dasharray:none;stroke-opacity:1"
     d="m -976.0273,919.483 794.16,-1.0684 c 10.35405,-106.43225 -24.94216,-216.54246 -95.24301,-297.1205 -70.30085,-80.57805 -174.60778,-130.4794 -281.46099,-134.6534 -117.01011,-4.57076 -234.30107,45.72577 -314.39824,131.14649 -80.09717,85.42073 -122.59344,204.03225 -118.73176,321.06791 3.58174,108.5515 46.5625,215.6101 120.07238,295.5636 73.50989,79.9535 177.11296,131.89 285.29162,141.5669 140.07832,12.5304 284.68895,-48.2105 373.805,-157.0098"
     id="path4275-3-0-8-3-0"
     inkscape:path-effect="#path-effect4277-7-2-4-0-79"
     inkscape:original-d="m -976.0273,919.483 794.16,-1.0684 c 0,0 -185.754,-427.3375 -376.704,-431.7739 -208.67,-4.8482 -431.447,243.4949 -433.13,452.2144 -1.603,198.7127 211.124,395.178 405.364,437.1305 132.101,28.5315 373.805,-157.0098 373.805,-157.0098"
     inkscape:connector-curvature="0"
     sodipodi:nodetypes="ccaaac" />
  <path
     style="fill:none;fill-rule:evenodd;stroke:#000000;stroke-width:150;stroke-linecap:round;stroke-linejoin:round;stroke-miterlimit:4;stroke-dasharray:none;stroke-opacity:1"
     d="m -977.917,483.8736 -2.2333,906.2528"
     id="path4271-4-5-1-4"
     inkscape:path-effect="#path-effect4273-29-3-24-0"
     inkscape:original-d="m -977.917,483.8736 -2.2333,906.2528"
     inkscape:connector-curvature="0"
     sodipodi:nodetypes="cc" />
  <path
     style="fill:none;fill-rule:evenodd;stroke:#000000;stroke-width:150;stroke-linecap:round;stroke-linejoin:round;stroke-miterlimit:4;stroke-dasharray:none;stroke-opacity:1"
     d="m -1862.0921,922.82105 c -1.8844,115.20405 42.2709,230.71685 121.3191,314.54345 79.0482,83.8266 192.2277,134.7644 307.4201,137.258 112.9704,2.4455 226.0605,-41.6631 308.2821,-119.1738 82.2216,-77.5107 132.82948,-187.3684 139.3836,-300.175 6.60318,-113.65103 -31.5824,-229.49416 -105.2973,-316.24828 -73.7149,-86.75411 -182.3079,-143.25149 -295.7533,-152.75432 -120.1837,-10.06727 -243.6428,33.06092 -332.2095,114.92317 -88.5667,81.86226 -141.1723,201.03826 -143.1448,321.62678 z"
     id="path4275-3-0-4-7"
     inkscape:path-effect="#path-effect4277-7-2-2-6-4"
     inkscape:original-d="m -1862.0921,922.82105 c -7.1315,207.49405 221.2124,445.69495 428.7392,451.80145 204.3778,6.0139 436.36536,-215.1951 447.6657,-419.3488 11.36842,-205.38361 -195.7256,-456.61985 -401.0506,-469.0026 -214.7422,-12.95069 -467.9646,221.5445 -475.3543,436.54995 z"
     inkscape:connector-curvature="0"
     sodipodi:nodetypes="aaaaa" />
  <path
     style="color:#000000;font-style:normal;font-variant:normal;font-weight:normal;font-stretch:normal;font-size:medium;line-height:normal;font-family:sans-serif;text-indent:0;text-align:start;text-decoration:none;text-decoration-line:none;text-decoration-style:solid;text-decoration-color:#000000;letter-spacing:normal;word-spacing:normal;text-transform:none;direction:ltr;block-progression:tb;writing-mode:lr-tb;baseline-shift:baseline;text-anchor:start;white-space:normal;clip-rule:nonzero;display:inline;overflow:visible;visibility:visible;opacity:1;isolation:auto;mix-blend-mode:normal;color-interpolation:sRGB;color-interpolation-filters:linearRGB;solid-color:#000000;solid-opacity:1;fill:#000000;fill-opacity:1;fill-rule:evenodd;stroke:none;stroke-width:150;stroke-linecap:round;stroke-linejoin:round;stroke-miterlimit:4;stroke-dasharray:none;stroke-dashoffset:0;stroke-opacity:1;color-rendering:auto;image-rendering:auto;shape-rendering:auto;text-rendering:auto;enable-background:accumulate"
     d="M -777.78711 1718.8105 A 75.0075 75.0075 0 0 0 -851.84375 1794.6895 L -852.05664 1881.2129 C -937.68305 1791.3089 -1054.6158 1734.0626 -1178.7637 1722.5898 C -1196.8572 1720.9178 -1214.9736 1720.2333 -1233.0312 1720.5078 C -1359.4359 1722.4292 -1483.0097 1771.3416 -1576.3945 1857.4512 C -1683.0801 1955.8251 -1744.3924 2097.0887 -1744.0195 2242.0137 C -1743.6717 2377.1903 -1689.8372 2509.1918 -1595.0117 2605.791 C -1500.154 2702.4229 -1368.8341 2758.8635 -1233.25 2760.6172 C -1100.2427 2762.3375 -969.91016 2711.3823 -873.08398 2620.4512 C -866.48681 2614.2557 -860.07252 2607.8884 -853.83203 2601.3711 L -854.07812 2700.9414 A 75.0075 75.0075 0 1 0 -704.07812 2701.3105 L -703.875 2618.5762 C -619.74468 2699.6043 -509.14809 2751.2035 -391.94727 2761.6875 C -225.883 2776.5425 -59.08741 2706.4827 46.560547 2577.5 A 75.0075 75.0075 0 1 0 -69.480469 2482.4512 C -142.06459 2571.0671 -264.48966 2622.4892 -378.58203 2612.2832 C -467.27355 2604.3495 -554.64666 2560.676 -615.3457 2494.6562 C -657.08154 2449.262 -687.3176 2392.2502 -703.16602 2331.7168 L -703.10156 2305.3867 L 19.306641 2304.4141 A 75.0075 75.0075 0 0 0 93.853516 2236.6758 C 106.28072 2108.933 64.853512 1979.7001 -19.523438 1882.9883 C -103.90038 1786.2763 -226.3223 1727.707 -354.57031 1722.6973 C -363.34574 1722.3545 -372.10735 1722.263 -380.84375 1722.418 C -500.23563 1724.536 -615.11758 1772.6434 -701.98633 1853.0391 L -701.84375 1795.0586 A 75.0075 75.0075 0 0 0 -777.78711 1718.8105 z M -1225.7637 1870.5254 C -1214.6547 1870.4657 -1203.5713 1870.9362 -1192.5664 1871.9531 C -1099.5576 1880.5482 -1008.1972 1928.1006 -947.46094 1999.3066 C -903.42585 2050.9325 -874.15914 2116.4597 -863.45117 2184.2734 C -865.60926 2206.8524 -866.3381 2229.5916 -865.58789 2252.3281 C -865.13944 2265.9194 -864.16666 2279.4726 -862.6875 2292.9551 C -874.81769 2375.176 -915.56902 2454.574 -975.76953 2511.1094 C -1043.489 2574.7059 -1138.6066 2611.828 -1231.3105 2610.6289 C -1325.7546 2609.4074 -1421.6705 2568.2492 -1487.9668 2500.7129 C -1554.2951 2433.1439 -1593.7754 2336.4988 -1594.0195 2241.6289 C -1594.2806 2140.1453 -1549.1787 2036.389 -1474.7129 1967.7246 C -1409.5905 1907.6756 -1319.4482 1872.2686 -1230.5254 1870.584 C -1228.9375 1870.5539 -1227.3507 1870.5339 -1225.7637 1870.5254 z M -373.61523 1872.3672 C -369.21143 1872.3411 -364.81391 1872.4128 -360.42578 1872.584 C -274.96738 1875.9222 -188.77749 1917.1554 -132.55273 1981.5996 C -91.083377 2029.1313 -64.396443 2091.1088 -56.535156 2154.5156 L -702.73242 2155.3848 L -702.68555 2136.7285 C -686.98498 2078.143 -657.69022 2023.2847 -617.18555 1980.0879 C -556.10178 1914.9443 -466.16076 1874.2456 -378.02148 1872.4258 C -376.5525 1872.3955 -375.08317 1872.3759 -373.61523 1872.3672 z "
     id="path4275-3-0-8-3-0-6" />
</svg>
