<?xml version="1.0" encoding="UTF-8" standalone="no"?>
<!-- Created with Inkscape (http://www.inkscape.org/) -->

<svg
   xmlns:dc="http://purl.org/dc/elements/1.1/"
   xmlns:cc="http://creativecommons.org/ns#"
   xmlns:rdf="http://www.w3.org/1999/02/22-rdf-syntax-ns#"
   xmlns:svg="http://www.w3.org/2000/svg"
   xmlns="http://www.w3.org/2000/svg"
   xmlns:sodipodi="http://sodipodi.sourceforge.net/DTD/sodipodi-0.dtd"
   xmlns:inkscape="http://www.inkscape.org/namespaces/inkscape"
   width="2000"
   height="2048"
   id="svg2992"
   version="1.1"
   inkscape:version="0.91 r13725"
   sodipodi:docname="arakkaal.svg">
  <defs
     id="defs5498">
    <inkscape:path-effect
       is_visible="true"
       id="path-effect4222"
       effect="spiro" />
    <inkscape:path-effect
       is_visible="true"
       id="path-effect4199"
       effect="spiro" />
    <inkscape:path-effect
       is_visible="true"
       id="path-effect4195"
       effect="spiro" />
    <inkscape:path-effect
       is_visible="true"
       id="path-effect4191"
       effect="spiro" />
    <inkscape:path-effect
       is_visible="true"
       id="path-effect3782"
       effect="spiro" />
    <inkscape:path-effect
       is_visible="true"
       id="path-effect3846"
       effect="spiro" />
    <inkscape:path-effect
       is_visible="true"
       id="path-effect3801"
       effect="spiro" />
    <inkscape:path-effect
       is_visible="true"
       id="path-effect3846-8"
       effect="spiro" />
    <inkscape:path-effect
       is_visible="true"
       id="path-effect3801-4"
       effect="spiro" />
    <inkscape:path-effect
       is_visible="true"
       id="path-effect3846-4"
       effect="spiro" />
    <inkscape:path-effect
       is_visible="true"
       id="path-effect3801-2"
       effect="spiro" />
    <inkscape:path-effect
       effect="spiro"
       id="path-effect4141-5-7-6-5"
       is_visible="true" />
    <inkscape:path-effect
       effect="spiro"
       id="path-effect4372-5-0-7-0-2-2"
       is_visible="true" />
    <inkscape:path-effect
       effect="spiro"
       id="path-effect4372-5-0-7-0-2-2-0"
       is_visible="true" />
    <inkscape:path-effect
       effect="spiro"
       id="path-effect4372-5-0-7-0-2-2-0-1"
       is_visible="true" />
    <inkscape:path-effect
       effect="spiro"
       id="path-effect4372-5-0-7-0-2-2-0-7"
       is_visible="true" />
    <inkscape:path-effect
       effect="spiro"
       id="path-effect4372-5-0-7-0-2-2-0-1-0"
       is_visible="true" />
    <inkscape:path-effect
       effect="spiro"
       id="path-effect4372-5-0-7-0-2-2-0-7-6"
       is_visible="true" />
    <inkscape:path-effect
       effect="spiro"
       id="path-effect4372-5-0-7-0-2-2-0-7-3"
       is_visible="true" />
    <inkscape:path-effect
       effect="spiro"
       id="path-effect4372-5-0-7-0-2-2-0-7-7"
       is_visible="true" />
    <inkscape:path-effect
       effect="spiro"
       id="path-effect4372-5-0-7-0-2-2-0-7-7-3"
       is_visible="true" />
    <inkscape:path-effect
       effect="spiro"
       id="path-effect4372-5-0-7-0-2-2-0-7-62"
       is_visible="true" />
  </defs>
  <sodipodi:namedview
     inkscape:window-height="843"
     inkscape:window-width="1600"
     inkscape:pageshadow="2"
     inkscape:pageopacity="0.0"
     borderopacity="1.0"
     bordercolor="#666666"
     pagecolor="#ffffff"
     id="base"
     showgrid="true"
     showguides="true"
     inkscape:guide-bbox="true"
     inkscape:zoom="0.227"
     inkscape:cx="4094.3761"
     inkscape:cy="1486.3058"
     inkscape:window-x="1600"
     inkscape:window-y="0"
     inkscape:current-layer="layer1-4"
     inkscape:window-maximized="1"
     inkscape:snap-grids="false">
    <sodipodi:guide
       orientation="horizontal"
       position="0,600"
       id="guide5596" />
    <inkscape:grid
       type="xygrid"
       id="grid3769"
       empspacing="3"
       visible="true"
       enabled="true"
       snapvisiblegridlinesonly="true"
       spacingx="4px"
       units="px"
       dotted="true"
       spacingy="4px" />
    <sodipodi:guide
       orientation="0,1"
       position="-1040,1600"
       id="guide2985" />
    <sodipodi:guide
       position="4176.2115,1710"
       orientation="0,1"
       id="guide4161"
       inkscape:label=""
       inkscape:color="rgb(0,0,255)" />
  </sodipodi:namedview>
  <metadata
     id="metadata5594">
    <rdf:RDF>
      <cc:Work
         rdf:about="">
        <dc:format>image/svg+xml</dc:format>
        <dc:type
           rdf:resource="http://purl.org/dc/dcmitype/StillImage" />
        <dc:title />
      </cc:Work>
    </rdf:RDF>
  </metadata>
  <g
     inkscape:label="Layer 1"
     inkscape:groupmode="layer"
     id="layer1"
     transform="translate(0,1048)">
    <g
       id="layer1-5"
       inkscape:label="Layer 1"
       transform="translate(24.987319,25.339789)">
      <g
         transform="translate(9.8717383,-66.184927)"
         id="layer1-4"
         inkscape:label="Layer 1">
        <g
           transform="translate(1138.3105,47.019258)"
           id="layer1-9"
           inkscape:label="Layer 1" />
        <g
           transform="translate(1669.1096,32.086007)"
           id="layer1-6"
           inkscape:label="Layer 1" />
        <path
           style="fill:none;fill-rule:evenodd;stroke:#000000;stroke-width:140;stroke-linecap:round;stroke-linejoin:round;stroke-miterlimit:4;stroke-dasharray:none;stroke-opacity:1"
           d="m 3204.4026,-237.46224 c 27.2677,60.87036 25.5748,133.98265 -4.4813,193.52561 -30.056,59.542964 -87.8735,104.324784 -153.0408,118.535874 -63.5849,13.86601 -130.464,-0.514602 -190.3746,-25.931654 -59.9105,-25.417053 -114.5792,-61.476803 -171.2178,-93.529373 -56.6386,-32.052569 -116.7993,-60.612757 -181.3583,-68.824707 -32.2795,-4.10598 -65.4018,-2.97782 -96.8807,5.26266 -31.4789,8.24049 -61.2757,23.748182 -84.7686,46.262802 -28.9136,27.709531 -47.5485,65.6771413 -52.8435,105.373162 -5.2951,39.69602 2.5986,80.880496 21.2459,116.321896 18.6472,35.4414 47.8447,65.08001 82.4666,85.20799 34.6219,20.12797 74.5238,30.80587 114.56,31.76118 78.3677,1.86994 155.6593,-34.16124 209.0644,-91.54488 53.4051,-57.38364 83.4657,-134.623578 88.9844,-212.819048 4.9564,-70.229019 -9.2774,-141.589452 -39.8743,-204.996952 -30.5969,-63.40749 -77.3983,-118.77736 -134.2191,-160.34753 -113.6416,-83.14033 -266.0532,-107.81173 -402.265,-72.13152 -101.7166,26.64431 -195.4414,88.86245 -250.9316,178.1766 -27.7451,44.65707 -45.8862,94.93608 -55.7871,146.56958 -9.9008,51.633509 -11.5609,104.445142 -12.6939,157.007122 l -3.0322,140.667298 2.2485,-139.452398 c 0.9446,-58.582058 1.2845,-117.542552 -8.7455,-175.267312 -10.0301,-57.72476 -30.5172,-114.00604 -63.3365,-162.541 -32.8194,-48.53496 -77.7097,-88.86518 -129.5942,-116.08181 -51.8846,-27.21662 -110.3712,-41.33155 -168.9517,-42.36678 -101.9603,-1.80183 -203.8611,36.61463 -280.1681,104.26374 -76.3069,67.64911 -126.5207,163.69497 -139.8874,264.79136 -17.848,134.990354 31.7584,277.22803 129.6827,371.84191 97.9243,94.61388 241.7832,139.30139 376.0802,116.82339 l -968.30738,-3.2753 C 690.35588,351.88712 736.9864,310.69746 767.44838,259.6873 797.91036,208.67714 812.05847,148.08981 807.33835,88.864061 802.61822,29.638314 779.05237,-27.943319 740.8955,-73.484751 702.73864,-119.02618 650.17277,-152.31016 592.68842,-167.32743 c -70.94175,-18.53289 -148.88331,-8.68154 -212.98282,26.91977 -64.09951,35.60131 -113.65439,96.56236 -135.41349,166.581938 -21.7591,70.019577 -15.48392,148.330232 17.14753,213.991392 32.63144,65.66117 91.26151,117.95316 160.21228,142.8929"
           id="path4370-9-0-9-5-7-5-5-4"
           inkscape:path-effect="#path-effect4372-5-0-7-0-2-2-0-7"
           inkscape:original-d="m 3204.4026,-237.46224 c -5.506,-31.8079 -53.0297,260.499673 -157.5221,312.061484 -220.4226,108.767576 -575.5576,-332.215764 -724.6,-136.760272 -76.1811,99.904503 41.4028,318.615188 165.429,338.664228 140.1781,22.66002 308.4495,-162.7475 298.0488,-304.363928 -17.6665,-240.546902 -338.5607,-477.813902 -576.3584,-437.476002 -189.9607,32.2233 -319.7805,401.103302 -319.4126,481.753302 l -3.0322,140.667298 2.2485,-139.452398 c 14.4158,-211.864902 -165.2872,-474.776502 -370.6279,-496.256902 -185.3717,-19.3914 -415.6434,182.7241 -420.0555,369.0551 -5.5493,234.3579 505.7629,488.6653 505.7629,488.6653 l -968.30738,-3.2753 c 0,0 137.2204,-523.0493 -43.2873,-543.1471 -190.9365,-21.259 -171.0365,550.386 -171.0365,550.386"
           inkscape:connector-curvature="0"
           sodipodi:nodetypes="caaaaacccaaccac" />
        <path
           style="color:#000000;font-style:normal;font-variant:normal;font-weight:normal;font-stretch:normal;font-size:medium;line-height:normal;font-family:sans-serif;text-indent:0;text-align:start;text-decoration:none;text-decoration-line:none;text-decoration-style:solid;text-decoration-color:#000000;letter-spacing:normal;word-spacing:normal;text-transform:none;direction:ltr;block-progression:tb;writing-mode:lr-tb;baseline-shift:baseline;text-anchor:start;white-space:normal;clip-rule:nonzero;display:inline;overflow:visible;visibility:visible;opacity:1;isolation:auto;mix-blend-mode:normal;color-interpolation:sRGB;color-interpolation-filters:linearRGB;solid-color:#000000;solid-opacity:1;fill:#000000;fill-opacity:1;fill-rule:evenodd;stroke:none;stroke-width:140;stroke-linecap:round;stroke-linejoin:round;stroke-miterlimit:4;stroke-dasharray:none;stroke-dashoffset:0;stroke-opacity:1;color-rendering:auto;image-rendering:auto;shape-rendering:auto;text-rendering:auto;enable-background:accumulate"
           d="m 3265.9023,1674.2793 c -50.3083,-0.5931 -100.7416,5.5206 -149.5683,18.3105 -117.3606,30.7422 -226.2064,102.0032 -292.6524,208.9512 -0.472,0.7597 -0.8845,1.5448 -1.3515,2.3067 -6.8953,-12.7961 -14.2978,-25.3897 -22.5489,-37.5918 -39.3313,-58.1652 -92.6971,-106.1459 -155.0644,-138.8614 -62.2314,-32.6441 -131.2358,-49.1459 -200.2324,-50.3652 -120.3589,-2.1269 -238.2304,42.4271 -327.8418,121.8711 a 70.007,70.007 0 0 0 0,0 c -89.5105,79.3547 -147.2482,190.0251 -162.8457,307.9942 -20.5909,155.7354 34.2877,315.7616 145.5957,426.3887 l -353.9551,-1.1973 c 2.3179,-3.5821 4.5892,-7.1965 6.7813,-10.8672 38.0798,-63.7668 55.4709,-138.2382 49.5703,-212.2754 -5.9005,-74.0371 -34.8671,-144.8116 -82.5664,-201.7422 -47.6993,-56.9306 -112.3099,-97.8424 -184.17,-116.6152 -88.9424,-23.2355 -184.3,-11.1816 -264.664,33.4531 -80.3641,44.6348 -140.9913,119.2176 -168.2715,207.0039 -27.2802,87.7863 -19.6027,183.5941 21.3086,265.916 40.9113,82.322 112.6415,146.2985 199.0879,177.5664 a 70.007,70.007 0 1 0 47.6191,-131.6523 c -51.4552,-18.6115 -96.9843,-59.2183 -121.3359,-108.2188 -24.3516,-49.0004 -29.2243,-109.8135 -12.9864,-162.0664 16.238,-52.2528 54.7198,-99.5922 102.5547,-126.1601 47.835,-26.5679 108.3618,-34.2171 161.3028,-20.3867 43.1085,11.2617 83.6296,36.9179 112.2441,71.0703 28.6145,34.1522 46.7787,78.5405 50.3184,122.9551 3.5397,44.4142 -7.3651,91.1177 -30.209,129.3711 -22.844,38.2534 -58.7896,70.0056 -99.5703,87.9531 a 70.007,70.007 0 0 0 27.959,134.0703 l 819.2832,2.7715 c 52.9519,8.2854 107.2829,8.5031 160.8164,-0.4571 a 70.007,70.007 0 0 0 -11.3184,-139.039 l -134.6797,-0.4551 c -72.1145,-12.9835 -141.1447,-46.6086 -192.998,-96.709 -81.2081,-78.4627 -123.7271,-200.3794 -108.9258,-312.3262 11.1358,-84.2236 53.8244,-165.6441 116.9277,-221.5878 63.0026,-55.8543 148.9324,-88.131 232.4942,-86.6543 48.1643,0.8511 96.134,12.578 137.6718,34.3671 41.4018,21.7178 77.8176,54.3999 104.125,93.3047 26.3254,38.9314 43.7659,85.8666 52.3575,135.3125 8.608,49.5411 8.6574,104.0606 7.7207,162.1563 l -2.2403,139.0273 -0,0.045 -0.01,0.3789 a 70.007,70.007 0 0 0 139.9746,2.6367 l 3.0313,-140.666 c 1.123,-52.0992 2.9462,-100.9492 11.457,-145.334 8.5055,-44.3563 23.966,-86.541 46.5,-122.8106 44.5344,-71.6802 123.1364,-124.8559 209.209,-147.4023 116.1777,-30.4323 248.299,-8.5154 343.1953,60.9101 47.6979,34.8959 87.1213,81.6656 112.5078,134.2754 14.0527,29.1221 23.7699,60.4271 29.1016,92.3223 -57.7565,-32.2297 -123.2748,-63.3585 -199.1797,-73.0137 -39.8176,-5.0647 -81.8371,-3.9062 -123.4395,6.9844 -41.8237,10.9486 -82.2293,31.5806 -115.4765,63.4434 -41.1279,39.4151 -66.4274,91.4234 -73.7949,146.6562 -7.3397,55.0234 3.4219,110.1589 28.6835,158.1719 25.1793,47.8564 63.5811,86.5887 109.2325,113.1289 45.5255,26.467 96.7092,40.001 148.0722,41.2266 100.9026,2.4075 195.58,-42.4929 261.9766,-113.836 33.4069,-35.8956 58.8891,-77.3059 76.7773,-121.5019 1.4764,0.6393 2.8863,1.3301 4.3731,1.9609 68.414,29.0247 149.2168,48.0745 232.6289,29.8848 86.656,-18.8972 160.6503,-76.2076 200.6172,-155.3848 39.967,-79.1771 42.1323,-172.7453 5.873,-253.6875 a 70.007,70.007 0 1 0 -127.7656,57.2363 c 18.2763,40.7986 17.0573,93.4546 -3.0879,133.3633 -20.1451,39.9089 -61.7862,72.1625 -105.4648,81.6875 -43.7578,9.5423 -96.7139,-0.1709 -148.1211,-21.9805 a 70.007,70.007 0 0 0 -0,0 c -9.2821,-3.9379 -18.5968,-8.3747 -27.9453,-13.0136 4.6824,-80.9916 -11.9762,-161.9714 -46.9707,-234.4922 -35.8072,-74.2052 -89.9879,-138.1754 -155.9316,-186.4199 -91.016,-66.5874 -201.0872,-100.3592 -311.7657,-101.6641 z m 135.4434,505.5566 c 6.0839,0.2524 12.2385,0.7738 18.4238,1.5606 49.8054,6.3353 102.0556,29.9402 155.7149,60.3066 15.9573,9.0305 32.3318,18.7523 49.0097,28.6465 -12.1089,34.8065 -30.3669,66.8562 -54.291,92.5625 -40.4136,43.4243 -100.3195,70.5861 -156.1523,69.2539 -28.7094,-0.685 -57.3287,-8.5079 -81.0469,-22.2969 -23.5924,-13.7158 -43.586,-34.2607 -55.7012,-57.2871 -12.0327,-22.8697 -17.0591,-50.1021 -13.8086,-74.4707 3.2227,-24.1594 15.1933,-48.0879 31.8926,-64.0918 13.7386,-13.1664 32.9265,-23.5496 54.0606,-29.082 16.0165,-4.1928 33.6466,-5.8586 51.8984,-5.1016 z"
           id="path4370-9-0-9-5-7-5-5-4-6"
           inkscape:connector-curvature="0" />
        <path
           style="fill:none;fill-rule:evenodd;stroke:#000000;stroke-width:70;stroke-linecap:round;stroke-linejoin:round;stroke-miterlimit:4;stroke-dasharray:none;stroke-opacity:1"
           d="m -331.40136,-208.08369 c 27.02804,60.89844 25.2119,133.880099 -4.81171,193.358819 -30.02361,59.478721 -87.66286,104.282039 -152.71039,118.702661 -63.43476,14.06308 -130.26097,0.0618 -190.20503,-25.007045 -59.94406,-25.06889 -114.70067,-60.802692 -171.32906,-92.661206 -56.62839,-31.858513 -116.65031,-60.351586 -181.06935,-68.832749 -32.2095,-4.240581 -65.2699,-3.335176 -96.7746,4.594958 -31.5048,7.930134 -61.4194,23.035301 -85.222,45.145768 -29.6488,27.5411043 -49.0765,65.629842 -54.9259,105.671678 -5.8494,40.041836 1.7472,81.784276 20.4666,117.661156 18.7193,35.87689 48.3584,65.8088 83.5736,85.74498 35.2153,19.93618 75.8493,29.92621 116.3147,29.58641 77.22747,-0.6485 151.61001,-39.16026 203.47745,-96.38151 51.86743,-57.22125 82.35771,-131.724114 94.5714,-207.982414 22.73364,-141.941396 -19.16738,-294.929946 -118.28071,-399.048756 -49.55667,-52.0594 -112.43963,-91.55383 -181.24454,-112.33678 -68.8049,-20.78296 -143.3971,-22.65584 -212.8332,-4.09046 -112.4416,30.06391 -206.8669,114.57824 -258.0991,219.08761 -51.2322,104.50938 -58.8051,224.301376 -61.3134,340.665686 l -3.0322,140.667294 2.2485,-139.452394 c 1.0368,-64.301982 1.7566,-128.853474 -6.3746,-192.647696 -8.1312,-63.79423 -25.2375,-126.89451 -55.3474,-183.72068 -30.1099,-56.82617 -73.3581,-107.088 -127.0021,-142.55829 -53.644,-35.47029 -117.5949,-55.76308 -181.9038,-55.33023 -52.5024,0.35338 -104.691,14.40327 -150.9458,39.24525 -46.2548,24.84198 -86.5757,60.34216 -118.2,102.25322 -63.2486,83.8221 -90.3746,191.88527 -84.8304,296.746057 6.305,119.249612 54.0308,235.913803 133.1134,325.391023 79.0825,89.47721 188.9988,151.17572 306.5702,172.08484 l -968.3074,-3.2753 c 54.3802,-23.93255 101.0107,-65.12221 131.4727,-116.13237 30.4619,-51.01016 44.61,-111.59749 39.8899,-170.82323 -4.7201,-59.22575 -28.286,-116.8073811 -66.4428,-162.348813 -38.1569,-45.541432 -90.7228,-78.825407 -148.2071,-93.842677 -70.9417,-18.53289 -148.8833,-8.68154 -212.9828,26.91977 -64.0995,35.601304 -113.6544,96.562357 -135.4135,166.581933 -21.7591,70.019577 -15.4839,148.330227 17.1475,213.991397 32.6315,65.66116 91.2615,117.95315 160.2123,142.89289"
           id="path4370-9-0-9-5-7-5-5-4-5"
           inkscape:path-effect="#path-effect4372-5-0-7-0-2-2-0-7-7"
           inkscape:original-d="m -331.40136,-208.08369 c -5.506,-31.8079 -53.02968,260.499668 -157.5221,312.06148 -220.4226,108.76759 -575.55764,-332.2158 -724.60004,-136.760274 -76.1811,99.904518 41.4028,318.615204 165.429,338.664224 140.17819,22.66 298.57776,-162.36707 298.04885,-304.363924 -0.90238,-242.262336 -272.19915,-547.340506 -512.35845,-515.475996 -212.9587,28.25551 -319.7804,479.103296 -319.4125,559.753296 l -3.0322,140.667294 2.2485,-139.452394 c 14.4158,-211.864896 -143.1251,-562.154956 -370.6279,-574.256896 -187.5165,-9.97488 -358.1429,250.50914 -353.9762,438.244527 4.9107,221.255733 439.6836,497.475863 439.6836,497.475863 l -968.3074,-3.2753 c 0,0 137.2204,-523.04929 -43.2873,-543.14709 -190.9365,-21.259 -171.0365,550.38599 -171.0365,550.38599"
           inkscape:connector-curvature="0"
           sodipodi:nodetypes="caaaaacccaaccac" />
        <path
           style="color:#000000;font-style:normal;font-variant:normal;font-weight:normal;font-stretch:normal;font-size:medium;line-height:normal;font-family:sans-serif;text-indent:0;text-align:start;text-decoration:none;text-decoration-line:none;text-decoration-style:solid;text-decoration-color:#000000;letter-spacing:normal;word-spacing:normal;text-transform:none;direction:ltr;block-progression:tb;writing-mode:lr-tb;baseline-shift:baseline;text-anchor:start;white-space:normal;clip-rule:nonzero;display:inline;overflow:visible;visibility:visible;opacity:1;isolation:auto;mix-blend-mode:normal;color-interpolation:sRGB;color-interpolation-filters:linearRGB;solid-color:#000000;solid-opacity:1;fill:#000000;fill-opacity:1;fill-rule:evenodd;stroke:none;stroke-width:70;stroke-linecap:round;stroke-linejoin:round;stroke-miterlimit:4;stroke-dasharray:none;stroke-dashoffset:0;stroke-opacity:1;color-rendering:auto;image-rendering:auto;shape-rendering:auto;text-rendering:auto;enable-background:accumulate"
           d="m -1480.7695,1011.6934 c -58.59,0.3943 -116.195,15.9766 -167.2715,43.4082 -51.0304,27.4066 -95.0619,66.2641 -129.5781,112.0078 -69.062,91.5266 -97.7708,207.5362 -91.8418,319.6738 6.7331,127.3471 57.3852,251.1696 141.8379,346.7227 39.653,44.865 86.4695,82.9936 137.9101,113.2461 l -661.9219,-2.2383 c 19.17,-19.0063 36.1161,-40.2758 50.0235,-63.5645 34.271,-57.3885 50.0388,-124.9174 44.7285,-191.5488 -5.3103,-66.6314 -31.576,-130.811 -74.5039,-182.0469 -42.9281,-51.2361 -101.5173,-88.3315 -166.1895,-105.2265 -79.9421,-20.8842 -166.5905,-9.9325 -238.8222,30.1855 -72.2318,40.118 -127.3241,107.89 -151.8438,186.793 -24.5197,78.9029 -17.5429,165.9616 19.2285,239.9531 36.7714,73.9916 101.9518,132.1267 179.6504,160.2305 a 35.0035,35.0035 0 1 0 23.8106,-65.8262 c -60.2031,-21.7756 -112.284,-68.2259 -140.7754,-125.5567 -28.4916,-57.3306 -34.065,-126.8931 -15.0664,-188.0292 18.9985,-61.1363 63.0171,-115.2846 118.9843,-146.3692 55.9673,-31.0846 125.2013,-39.8359 187.1426,-23.6543 50.2965,13.1395 96.8389,42.6101 130.2246,82.457 33.3857,39.8469 54.251,90.8304 58.3809,142.6504 4.1299,51.8202 -8.3959,105.466 -35.0488,150.0977 -26.6529,44.6318 -67.9411,81.1029 -115.5215,102.043 a 35.0035,35.0035 0 0 0 13.9804,67.0351 l 968.3067,3.2754 a 35.0035,35.0035 0 0 0 6.2461,-69.459 c -109.5879,-19.4893 -212.7602,-77.4033 -286.4727,-160.8047 -73.7125,-83.4013 -118.5098,-192.9084 -124.3867,-304.0605 -5.1595,-97.584 20.3814,-197.6988 77.8164,-273.8164 28.7324,-38.0785 65.343,-70.2229 106.8223,-92.5 41.4331,-22.2525 88.2063,-34.7677 134.6211,-35.0801 56.7903,-0.3823 114.2713,17.7262 162.3633,49.5254 48.1745,31.8538 87.7651,77.6311 115.3808,129.75 27.659,52.2006 43.8359,111.2015 51.5547,171.7598 7.724,60.5997 7.1326,123.4726 6.0977,187.6582 l -2.2442,139.2617 -0,0.1894 a 35.0035,35.0035 0 0 0 69.9863,1.3184 l 0,-0.1895 3.0293,-140.4765 c 2.4868,-115.3643 10.5688,-229.7719 57.7481,-326.0137 47.03315,-95.9437 134.36012,-173.5826 235.71288,-200.6816 62.82607,-16.7981 131.01264,-15.1434 193.67187,3.7832 62.70623,18.9408 120.55857,55.2101 166.01563,102.9629 88.13263,92.5835 127.66969,229.8698 110.54101,358.1484 -16.47942,-9.6313 -33.10834,-19.3491 -50.16211,-28.9434 -58.06718,-32.6679 -121.97465,-63.5911 -193.6621,-73.0293 -35.92155,-4.7292 -73.37085,-3.8374 -109.88477,5.3536 a 35.0035,35.0035 0 0 0 -0.002,0 c -36.6212,9.2181 -71.8056,26.7905 -100.49805,53.4433 -35.85231,33.3036 -58.74552,78.3872 -65.73828,126.2559 -6.97881,47.7731 1.99703,96.6071 24.07031,138.9121 22.03509,42.2318 56.40103,76.8242 97.35938,100.0117 40.89784,23.1533 87.42956,34.5168 133.85156,34.127 88.67338,-0.7447 171.31334,-44.1048 229.11523,-107.8731 37.54419,-41.4195 64.44619,-90.3361 82.27539,-142.0625 14.22436,7.1757 28.76237,14.0371 43.77735,20.3164 64.20674,26.8517 137.986936,43.1365 211.2851531,26.8867 75.7376109,-16.7905 141.4230869,-67.8478 176.3808569,-137.1015 34.95778,-69.2536 37.02655,-152.4215 5.55664,-223.3282 a 35.0035,35.0035 0 1 0 -63.98242,28.3965 c 22.58618,50.8902 21.02499,113.6849 -4.06445,163.3887 -25.08947,49.7039 -74.683566,88.254 -129.041018,100.3047 -53.571319,11.8764 -113.445562,0.1594 -169.126952,-23.127 -17.69912,-7.4018 -35.16091,-16.0245 -52.60156,-25.2734 0.90411,-4.7869 1.97206,-9.5573 2.74023,-14.3535 24.41679,-152.4504 -19.96627,-315.7647 -127.48828,-428.7168 -53.65628,-56.3661 -121.57299,-99.0838 -196.47656,-121.709 -74.95057,-22.6392 -155.94801,-24.7312 -231.99414,-4.3984 -123.53038,33.0287 -225.05315,124.4191 -280.48435,237.4941 -9.2384,18.8455 -17.0243,38.0603 -23.7735,57.5039 -9.5393,-31.8903 -21.8723,-63.1174 -37.6914,-92.9726 -32.6041,-61.5335 -79.5115,-116.2804 -138.625,-155.3672 -59.196,-39.1414 -129.6159,-61.6164 -201.4433,-61.1328 z m 874.78512,512.4316 c 14.04158,-0.5942 28.3333,0.1143 42.58204,1.9902 57.15058,7.5243 113.28694,33.5877 168.47656,64.6368 22.56545,12.695 45.37301,26.2937 68.63086,39.7812 -15.10082,48.2664 -38.71471,93.1642 -71.56055,129.4004 -45.93299,50.6743 -112.05828,84.3363 -177.83984,84.8887 -34.5088,0.2897 -69.24473,-8.3278 -98.77735,-25.0469 -29.47209,-16.6849 -54.38354,-41.9546 -69.78711,-71.4766 -15.3654,-29.4488 -21.58327,-64.1016 -16.86328,-96.4121 4.70606,-32.2151 20.66799,-63.3093 44.11328,-85.0879 18.91267,-17.5682 43.55707,-30.2053 69.94532,-36.8476 13.24777,-3.3346 27.0385,-5.232 41.08007,-5.8262 z"
           id="path4370-9-0-9-5-7-5-5-4-5-5"
           inkscape:connector-curvature="0" />
        <path
           style="color:#000000;font-style:normal;font-variant:normal;font-weight:normal;font-stretch:normal;font-size:medium;line-height:normal;font-family:sans-serif;text-indent:0;text-align:start;text-decoration:none;text-decoration-line:none;text-decoration-style:solid;text-decoration-color:#000000;letter-spacing:normal;word-spacing:normal;text-transform:none;direction:ltr;block-progression:tb;writing-mode:lr-tb;baseline-shift:baseline;text-anchor:start;white-space:normal;clip-rule:nonzero;display:inline;overflow:visible;visibility:visible;opacity:1;isolation:auto;mix-blend-mode:normal;color-interpolation:sRGB;color-interpolation-filters:linearRGB;solid-color:#000000;solid-opacity:1;fill:#000000;fill-opacity:1;fill-rule:evenodd;stroke:none;stroke-width:200;stroke-linecap:round;stroke-linejoin:round;stroke-miterlimit:4;stroke-dasharray:none;stroke-dashoffset:0;stroke-opacity:1;color-rendering:auto;image-rendering:auto;shape-rendering:auto;text-rendering:auto;enable-background:accumulate"
           d="m 5883.0996,-598.09766 c -52.9894,-0.59878 -106.1172,5.88415 -157.6269,19.37696 -109.2554,28.61905 -211.6955,90.34079 -283.1895,182.85937 -41.6399,-62.34196 -98.3292,-114.19005 -165.7734,-149.25195 -67.8895,-35.29334 -143.5079,-52.10752 -219.1426,-50.125 -122.7005,3.2162 -238.2679,55.4747 -323.7383,140.32422 -85.1239,84.50556 -136.2524,196.50656 -149.0508,313.4082 -15.8014,144.3329494 27.7393,290.16682 118.584,402.45508 l -290.2812,-0.98242 c 28.5171,-60.85123 40.9262,-128.2722 35.5527,-195.695316 -6.4064,-80.384739 -37.6857,-156.815328 -89.4746,-218.626954 -51.7889,-61.81157 -121.5609,-105.9907 -199.582,-126.37305 -96.6571,-25.25079 -199.4799,-12.2543 -286.8145,36.25196 -87.3346,48.50623 -152.7071,128.92555 -182.3535,224.326169 -29.6465,95.400623 -21.368,198.709581 23.0918,288.171871 44.4599,89.46225 121.8056,158.44772 215.75,192.42774 a 100.01,100.01 0 1 0 68.0273,-188.07617 c -43.9572,-15.89947 -83.8726,-51.49928 -104.6758,-93.35938 -20.803,-41.86003 -25.0748,-95.172013 -11.2031,-139.810545 13.8718,-44.6385404 47.6083,-86.141506 88.4727,-108.837891 40.8644,-22.696366 93.9259,-29.402878 139.1523,-17.58789 36.9474,9.652192 72.3071,32.041212 96.832,61.3125 24.525,29.2712392 40.3764,68.003558 43.4102,106.070312 3.0339,38.066564 -6.4834,78.821064 -26.0625,111.607424 -19.5792,32.7863 -50.9461,60.49261 -85.8984,75.875 a 100.01,100.01 0 0 0 39.9433,191.5293 l 930.5938,3.14843 c 12.1941,0.43356 24.4159,0.52374 36.6699,0.12305 l 1.0449,0.004 0,-0.0195 c 1.5596,-0.054 3.1137,-0.007 4.6738,-0.0742 a 100.01,100.01 0 0 0 -3.998,-199.90625 l -33.5898,-0.11329 c -88.3759,-4.25113 -177.8715,-44.55089 -237.9161,-108.67382 -66.6103,-71.134651 -101.7424,-176.526248 -91.1367,-273.40039 7.9391,-72.51644 41.0371,-143.49681 91.1426,-193.23829 49.759,-49.3975 120.2903,-80.55334 188.0742,-82.33007 42.0955,-1.1034 85.0459,8.61907 121.6504,27.64843 36.4912,18.97051 69.0559,48.56088 92.3379,83.72657 23.3434,35.25827 39.1948,78.7314 47.0039,125.27539 7.8335,46.69 7.9685,99.780684 7.0293,158.02929375 l -2.248,139.45312625 a 100.01,100.01 0 0 0 199.9629,3.76758 L 5531.375,1.9238281 c 1.1187,-51.9007211 3.0145,-99.0519081 10.9297,-140.3300781 7.9074,-41.23744 22.215,-79.9541 42.5156,-112.62891 39.8391,-64.12288 111.9639,-113.42269 191.332,-134.21289 107.5924,-28.18345 231.0162,-7.44731 317.8789,56.10157 43.7881,32.03539 80.0475,75.11719 103.2012,123.0996 3.3685,6.98075 6.3936,14.13632 9.2305,21.3711 -44.3026,-20.57584 -93.4373,-37.85512 -148.502,-44.85938 -43.0485,-5.47579 -88.8833,-4.30367 -134.8242,7.72266 -46.2573,12.10914 -91.209,34.93555 -128.6367,70.80469 -46.3619,44.43162 -74.5179,102.458419 -82.7734,164.349607 -8.2159,61.592131 3.7743,122.706283 31.8711,176.107423 l -0,0 c 27.9787,53.17708 70.3267,95.80943 120.7051,125.09766 50.1985,29.18368 106.2181,43.93788 162.4355,45.27929 110.5605,2.6381 212.688,-46.06314 284.6524,-123.38867 29.0635,-31.22869 52.4015,-66.16663 70.4297,-103.27734 67.2321,25.33029 145.3956,40.46002 227.7812,22.49414 95.8655,-20.90547 176.7914,-83.584035 221.0059,-171.175784 44.2143,-87.591666 46.5833,-189.926346 6.4707,-279.470706 a 100.01,100.01 0 1 0 -182.5235,81.76367 c 14.4228,32.19637 13.4074,76.08777 -2.4902,107.58204 -15.8976,31.494172 -50.607,58.377809 -85.0762,65.894527 -35.2603,7.689254 -82.2507,-0.02372 -130.0136,-20.287109 -2.9623,-1.256748 -5.9738,-2.701859 -8.959,-4.050782 1.3139,-79.387796 -16.3966,-157.880936 -50.6543,-228.874996 -38.0403,-78.83257 -95.3828,-146.49076 -165.2364,-197.59571 -96.539,-70.6281 -212.4467,-106.21979 -329.0234,-107.53711 z m 133.7324,565.621098 c 5.2043,0.21357 10.513,0.659712 15.8907,1.34375 43.4823,5.530979 92.3442,27.0104156 144.7265,56.654296 8.5297,4.827038 17.4534,10.157873 26.2813,15.373047 -10.1728,22.201522 -23.1289,42.506294 -38.7481,59.289059 -34.8458,37.44175 -87.3016,60.80101 -133.4765,59.69922 -23.8551,-0.56921 -47.6384,-7.16798 -66.6836,-18.24023 -18.8655,-10.96773 -34.9128,-27.61264 -44.2285,-45.318361 -9.1979,-17.481663 -12.9974,-38.737201 -10.6231,-56.53711 a 100.01,100.01 0 0 0 0,-0.002 c 2.3344,-17.500409 11.4493,-35.4091652 22.9141,-46.3964841 9.5581,-9.1600929 24.1999,-17.3488799 40.9004,-21.7207029 12.7626,-3.34099 27.434,-4.785242 43.0468,-4.144531 z"
           id="path4370-9-0-9-5-7-5-5-4-9"
           inkscape:connector-curvature="0" />
      </g>
    </g>
  </g>
</svg>
