<?xml version="1.0" encoding="UTF-8" standalone="no"?>
<!-- Created with Inkscape (http://www.inkscape.org/) -->

<svg
   xmlns:dc="http://purl.org/dc/elements/1.1/"
   xmlns:cc="http://creativecommons.org/ns#"
   xmlns:rdf="http://www.w3.org/1999/02/22-rdf-syntax-ns#"
   xmlns:svg="http://www.w3.org/2000/svg"
   xmlns="http://www.w3.org/2000/svg"
   xmlns:sodipodi="http://sodipodi.sourceforge.net/DTD/sodipodi-0.dtd"
   xmlns:inkscape="http://www.inkscape.org/namespaces/inkscape"
   sodipodi:docname="aramaa.svg"
   inkscape:version="0.91 r13725"
   version="1.1"
   id="svg2992"
   height="2000"
   width="2048">
  <defs
     id="defs5498">
    <inkscape:path-effect
       effect="spiro"
       id="path-effect4574"
       is_visible="true" />
    <filter
       inkscape:label="Black Hole"
       inkscape:menu="Morphology"
       inkscape:menu-tooltip="Creates a black light inside and outside"
       height="1.5"
       width="1.5"
       y="-0.25"
       x="-0.25"
       style="color-interpolation-filters:sRGB;"
       id="filter5478">
      <feGaussianBlur
         stdDeviation="5"
         in="SourceAlpha"
         result="result1"
         id="feGaussianBlur5480" />
      <feComposite
         operator="arithmetic"
         k2="3.2"
         k1="-1"
         k4="-2"
         result="result3"
         in2="result1"
         id="feComposite5482" />
      <feColorMatrix
         values="1 0 0 0 0 0 1 0 0 0 0 0 1 0 0 0 0 0 10 0 "
         result="result2"
         id="feColorMatrix5484" />
      <feComposite
         result="fbSourceGraphic"
         in="SourceGraphic"
         operator="out"
         in2="result2"
         id="feComposite5486" />
      <feBlend
         mode="multiply"
         in="result1"
         in2="fbSourceGraphic"
         result="result91"
         id="feBlend5488" />
      <feBlend
         mode="screen"
         in="fbSourceGraphic"
         in2="result91"
         id="feBlend5490" />
    </filter>
    <inkscape:path-effect
       effect="spiro"
       id="path-effect4141-3-4"
       is_visible="true" />
    <inkscape:path-effect
       effect="spiro"
       id="path-effect4141-3-4-6"
       is_visible="true" />
    <inkscape:path-effect
       effect="spiro"
       id="path-effect4141-3-4-6-5"
       is_visible="true" />
    <inkscape:path-effect
       effect="spiro"
       id="path-effect4141-3-4-6-8"
       is_visible="true" />
    <inkscape:path-effect
       effect="spiro"
       id="path-effect4141-3-4-6-0"
       is_visible="true" />
    <inkscape:path-effect
       effect="spiro"
       id="path-effect4141-3-4-6-0-1"
       is_visible="true" />
    <inkscape:path-effect
       effect="spiro"
       id="path-effect4141-3-4-6-0-1-5"
       is_visible="true" />
    <inkscape:path-effect
       effect="spiro"
       id="path-effect4141-3-4-6-0-3"
       is_visible="true" />
    <inkscape:path-effect
       effect="spiro"
       id="path-effect4141-3-4-6-0-9"
       is_visible="true" />
    <inkscape:path-effect
       effect="spiro"
       id="path-effect4141-3-4-6-0-1-8"
       is_visible="true" />
    <inkscape:path-effect
       effect="spiro"
       id="path-effect4141-3-4-6-0-36"
       is_visible="true" />
    <inkscape:path-effect
       effect="spiro"
       id="path-effect4141-3-4-6-0-5"
       is_visible="true" />
    <inkscape:path-effect
       effect="spiro"
       id="path-effect4141-3-4-6-0-5-5"
       is_visible="true" />
    <inkscape:path-effect
       effect="spiro"
       id="path-effect4141-3-4-6-0-367"
       is_visible="true" />
  </defs>
  <sodipodi:namedview
     inkscape:window-height="843"
     inkscape:window-width="1600"
     inkscape:pageshadow="2"
     inkscape:pageopacity="0.0"
     borderopacity="1.0"
     bordercolor="#666666"
     pagecolor="#ffffff"
     id="base"
     showgrid="true"
     showguides="true"
     inkscape:guide-bbox="true"
     inkscape:zoom="0.25"
     inkscape:cx="1349.5359"
     inkscape:cy="658.96985"
     inkscape:window-x="1600"
     inkscape:window-y="0"
     inkscape:current-layer="layer1"
     inkscape:window-maximized="1"
     inkscape:snap-text-baseline="false">
    <sodipodi:guide
       orientation="horizontal"
       position="0,600"
       id="guide5596" />
    <inkscape:grid
       type="xygrid"
       id="grid3769"
       empspacing="5"
       visible="true"
       enabled="true"
       snapvisiblegridlinesonly="true" />
    <sodipodi:guide
       orientation="0,1"
       position="-1280,1600"
       id="guide4138" />
    <sodipodi:guide
       position="-940,1624"
       orientation="0,1"
       id="guide4159"
       inkscape:label=""
       inkscape:color="rgb(0,0,255)" />
  </sodipodi:namedview>
  <metadata
     id="metadata5594">
    <rdf:RDF>
      <cc:Work
         rdf:about="">
        <dc:format>image/svg+xml</dc:format>
        <dc:type
           rdf:resource="http://purl.org/dc/dcmitype/StillImage" />
        <dc:title />
      </cc:Work>
    </rdf:RDF>
  </metadata>
  <g
     inkscape:label="Layer 1"
     inkscape:groupmode="layer"
     id="layer1"
     transform="translate(0,1000)">
    <path
       style="fill:none;fill-rule:evenodd;stroke:#000000;stroke-width:140;stroke-linecap:round;stroke-linejoin:round;stroke-miterlimit:4;stroke-dasharray:none;stroke-opacity:1"
       d="m 1783.6514,-18.6393 c -47.7948,3.262057 -96.5893,-19.062875 -125.3694,-57.360249 -28.7801,-38.297371 -36.6508,-91.376131 -20.2224,-136.377161 11.5696,-31.69166 34.6456,-59.06742 63.9968,-75.70244 29.3512,-16.63501 64.7502,-22.36524 97.8212,-15.69258 25.4824,5.14153 49.4603,17.5109 68.4467,35.26781 18.9863,17.7569 32.9268,40.84401 39.8377,65.90454 6.9109,25.06052 6.7761,52.01885 -0.348,77.01957 -7.1242,25.00073 -21.2126,47.972583 -40.2406,65.684903 -19.483,18.135918 -43.8707,30.625893 -69.552,37.623752 -25.6813,6.997859 -52.6442,8.633251 -79.1877,6.647557 -53.087,-3.971387 -103.9375,-22.080721 -154.3443,-39.202519 -129.3663,-43.942155 -260.6375,-82.418643 -393.7044,-113.398393 -89.2264,-20.77311 -180.79376,-38.26079 -271.99055,-29.54177 -45.59839,4.35951 -90.78782,15.37014 -132.15934,35.03269 -41.37152,19.66256 -78.86109,48.15674 -106.74862,84.49549 -29.38589,38.291177 -47.64561,84.9397249 -52.55058,132.957284 -4.90496,48.017556 3.50062,97.263596 23.6092,141.142856 20.10858,43.87926 51.82317,82.30954 90.80066,110.77882 38.9775,28.46927 85.11003,46.96033 132.89262,53.78444 57.80201,8.25504 117.73716,-0.61139 171.30771,-23.8366 53.5706,-23.22522 100.7262,-60.60018 136.8105,-106.50377 72.1686,-91.80719 97.7609,-215.792399 79.3264,-331.1052 -20.1916,-126.30424 -91.3025,-242.84702 -191.3283,-322.56707 -100.02589,-79.72006 -227.62495,-122.82438 -355.51081,-125.205 -126.22451,-2.3497 -253.80943,35.00428 -355.39171,109.96552 -101.58229,74.96125 -175.70362,187.94099 -198.25959,312.15603 -16.64876,91.684198 -5.21605,188.273271 32.37707,273.53716 37.59312,85.26389 101.19234,158.85258 180.11093,208.40083"
       id="path4139-1-0-5-6"
       inkscape:path-effect="#path-effect4141-3-4-6-0"
       inkscape:original-d="m 1783.6514,-18.6393 c 16.4916,18.82322108 -162.0254,-109.08753 -145.5918,-193.73741 13.8082,-71.12646 135.1115,-105.71466 161.818,-91.39502 58.9511,31.60877 90.1746,252.096953 67.6958,243.876823 -60.3371,-22.064219 -215.1603,20.293608 -303.084,5.06879 C 1365.632,-89.26013 1307.1629,-160.98333 1170.785,-168.22451 998.1073,-177.39308 741.1627,-230.86781 659.88649,-78.2381 584.6909,62.972732 696.2266,338.05161 854.63839,360.4253 1053.5088,388.51327 1260.7576,98.953803 1242.083,-101.02027 c -21.9055,-234.57152 -311.28247,-443.6834 -546.83911,-447.77207 -232.03696,-4.02758 -495.7724,197.38302 -553.6513,422.12155 -43.786644,170.019588 212.488,481.93799 212.488,481.93799"
       inkscape:connector-curvature="0"
       sodipodi:nodetypes="cssssaaaaaac" />
    <path
       style="color:#000000;font-style:normal;font-variant:normal;font-weight:normal;font-stretch:normal;font-size:medium;line-height:normal;font-family:sans-serif;text-indent:0;text-align:start;text-decoration:none;text-decoration-line:none;text-decoration-style:solid;text-decoration-color:#000000;letter-spacing:normal;word-spacing:normal;text-transform:none;direction:ltr;block-progression:tb;writing-mode:lr-tb;baseline-shift:baseline;text-anchor:start;white-space:normal;clip-rule:nonzero;display:inline;overflow:visible;visibility:visible;opacity:1;isolation:auto;mix-blend-mode:normal;color-interpolation:sRGB;color-interpolation-filters:linearRGB;solid-color:#000000;solid-opacity:1;fill:#000000;fill-opacity:1;fill-rule:evenodd;stroke:none;stroke-width:140;stroke-linecap:round;stroke-linejoin:round;stroke-miterlimit:4;stroke-dasharray:none;stroke-dashoffset:0;stroke-opacity:1;color-rendering:auto;image-rendering:auto;shape-rendering:auto;text-rendering:auto;enable-background:accumulate"
       d="m 896.54688,981.2207 c -140.90516,-2.62298 -283.08301,38.6373 -398.25782,123.6289 -115.5308,85.2543 -199.53099,212.575 -225.57031,355.9727 -19.19939,105.7304 -6.15324,215.9586 37.19922,314.2851 43.35246,98.3265 115.9323,182.3043 206.94141,239.4434 a 70.007,70.007 0 1 0 74.4414,-118.5684 c -66.8281,-41.9573 -121.44747,-105.1541 -153.28125,-177.3554 -31.83378,-72.2014 -41.65088,-155.1531 -27.55273,-232.7911 19.07264,-105.0323 83.31546,-203.6698 170.94922,-268.3379 87.98977,-64.9308 200.98153,-98.3791 312.52539,-96.3027 113.03119,2.1041 226.23259,40.6579 313.18559,109.959 40.5979,32.3563 75.673,72.0323 103.3671,116.0723 -69.2843,-13.3507 -142.358,-21.9422 -218.3613,-14.6758 -52.3526,5.0052 -105.47519,17.6957 -155.54491,41.4922 -50.2444,23.8796 -96.65797,58.7464 -132.23242,105.1015 -37.57633,48.9638 -60.4323,107.5311 -66.65625,168.461 -6.21823,60.8738 4.31487,122.2244 29.60937,177.4199 25.27275,55.1481 64.54807,102.6433 113.15039,138.1426 48.56345,35.4708 105.22272,58.1199 164.28322,66.5547 71.4507,10.2042 143.9599,-0.6924 209.0469,-28.9102 64.9615,-28.1637 121.0131,-72.7823 164,-127.4668 74.6218,-94.928 105.9543,-214.8426 99.1797,-331.6992 75.5154,21.1611 150.5379,44.5132 225.0078,69.8086 49.7491,16.8984 106.0774,37.8222 171.6347,42.7265 24.7524,1.8517 50.6288,1.2642 76.8282,-3.1953 a 70.007,70.007 0 0 0 16.2226,-3.3222 c 3.2528,-0.7568 6.5056,-1.5112 9.7617,-2.3985 35.2199,-9.5971 69.769,-26.8593 98.8438,-53.9238 28.5089,-26.5376 49.1745,-60.2148 59.8672,-97.7383 10.6948,-37.5314 10.9009,-77.1247 0.5078,-114.8125 -10.3953,-37.6957 -30.8947,-71.6632 -59.5039,-98.4199 -28.6156,-26.7625 -63.9424,-44.9971 -102.416,-52.7598 -50.1804,-10.1248 -101.8254,-1.7291 -146.1817,23.4102 -44.3195,25.1184 -77.8375,64.9385 -95.2363,112.5976 -12.7117,34.8202 -15.9954,71.5376 -10.4356,106.8868 -91.0788,-30.3842 -183.2077,-58.1456 -276.4003,-82.4786 -37.2726,-104.5647 -104.4604,-197.3153 -191.086,-266.3554 C 1181.284,1031.5327 1039.2874,983.87782 896.54688,981.2207 Z m 1077.04102,382.3691 c 4.2644,0.039 8.4549,0.4508 12.4453,1.2559 12.4912,2.5203 25.1193,9.0241 34.4766,17.7754 9.3633,8.7571 16.7453,20.9634 20.1718,33.3887 3.4288,12.4333 3.3659,26.7566 -0.1875,39.2265 -3.5557,12.478 -11.0681,24.7439 -20.6152,33.6309 -9.8912,9.2073 -24.119,16.9255 -40.2617,21.3242 -1.9015,0.5181 -3.9547,0.8546 -5.9258,1.291 -21.8144,-0.4685 -46.6674,-12.5265 -59.4492,-29.5351 -13.801,-18.3649 -18.3057,-48.739 -10.4277,-70.3184 5.7404,-15.7243 18.3749,-30.657 32.7578,-38.8086 10.7596,-6.0981 24.2224,-9.3461 37.0156,-9.2305 z m -838.6152,106.5567 c 69.5182,-1.8154 143.4858,12.0072 219.9394,29.8066 5.6511,1.3157 11.284,2.7231 16.9297,4.0664 0.3525,2.0064 0.7977,3.9994 1.1191,6.0098 15.6056,97.6169 -7.0222,202.7395 -65.2363,276.7949 -29.1817,37.1227 -67.4434,67.2543 -109.623,85.541 -42.0536,18.2321 -89.4137,25.0694 -133.5664,18.7637 -36.5048,-5.2134 -72.11044,-19.548 -101.502,-41.0156 -29.35267,-21.4393 -53.50675,-50.8036 -68.45117,-83.4141 -14.92266,-32.5629 -21.20107,-69.706 -17.60937,-104.8672 3.58598,-35.1053 17.24985,-69.8344 38.44531,-97.4531 20.20061,-26.3223 48.76699,-48.445 81.26562,-63.8906 l 0,0 c 32.67331,-15.5285 69.92921,-24.8604 108.77341,-28.5742 9.7438,-0.9316 19.5845,-1.5102 29.5157,-1.7695 z"
       id="path4139-1-0-5-6-7"
       inkscape:connector-curvature="0" />
    <path
       style="fill:none;fill-rule:evenodd;stroke:#000000;stroke-width:70;stroke-linecap:round;stroke-linejoin:round;stroke-miterlimit:4;stroke-dasharray:none;stroke-opacity:1"
       d="m -404.34862,-46.6393 c -47.7948,3.262058 -96.58926,-19.062875 -125.36937,-57.36025 -28.78011,-38.29737 -36.65079,-91.37613 -20.22243,-136.37716 11.56956,-31.69166 34.64563,-59.06742 63.99682,-75.70244 29.35119,-16.63501 64.75017,-22.36524 97.82118,-15.69258 25.48244,5.14153 49.46029,17.5109 68.44667,35.26781 18.98637,17.7569 32.92687,40.84402 39.83775,65.90454 6.91087,25.06052 6.7761,52.01885 -0.34805,77.01958 -7.12416,25.00073 -21.2126,47.97258 -40.24057,65.6849 -19.48303,18.135918 -43.8707,30.625892 -69.55202,37.623752 -25.68132,6.997859 -52.6442,8.633251 -79.1877,6.647557 -53.08699,-3.971387 -103.93749,-22.080721 -154.34428,-39.202519 -129.36626,-43.94215 -260.63749,-82.41864 -393.70438,-113.3984 -89.2264,-20.77311 -180.7938,-38.26079 -271.9905,-29.54177 -45.5984,4.35951 -90.7879,15.37014 -132.1594,35.03269 -41.3715,19.66256 -78.8611,48.15674 -106.7486,84.49549 -29.3859,38.291177 -47.6456,84.939725 -52.5506,132.957284 -4.9049,48.017559 3.5006,97.263596 23.6092,141.142856 20.1086,43.87927 51.8232,82.30955 90.8007,110.77882 38.9775,28.46927 85.11,46.96033 132.8926,53.78444 57.802,8.25504 117.7372,-0.6114 171.3077,-23.83661 53.5706,-23.22521 100.7261,-60.60018 136.8105,-106.50377 72.16859,-91.80719 97.76084,-215.792394 79.32638,-331.10519 -20.1916,-126.30423 -91.30248,-242.84701 -191.32828,-322.56707 -100.0259,-79.72005 -227.6249,-122.82437 -355.5108,-125.205 -126.2245,-2.3497 -253.8094,35.00427 -355.3917,109.96552 -101.5823,74.96124 -175.7036,187.94099 -198.2596,312.15603 -16.6488,91.684198 -5.216,188.27327 32.3771,273.53716 37.5931,85.26389 101.1923,158.85258 180.1109,208.40083"
       id="path4139-1-0-5-6-3"
       inkscape:path-effect="#path-effect4141-3-4-6-0-5"
       inkscape:original-d="m -404.34862,-46.6393 c 16.4916,18.82322 -162.0254,-109.08753 -145.5918,-193.73741 13.8082,-71.12646 135.1115,-105.71466 161.818,-91.39502 58.9511,31.60877 90.1746,252.09696 67.6958,243.87683 -60.3371,-22.06422 -215.1603,20.2936 -303.084,5.06879 -198.8574,-34.43402 -257.3265,-106.15722 -393.70438,-113.3984 -172.6777,-9.16857 -429.6223,-62.6433 -510.8985,89.98641 -75.1956,141.21084 36.3401,416.28971 194.7519,438.6634 198.8704,28.088 406.11918,-261.47149 387.44458,-461.44557 -21.9055,-234.57152 -311.28248,-443.6834 -546.83908,-447.77207 -232.037,-4.02758 -495.7724,197.38302 -553.6513,422.12155 -43.7867,170.01959 212.488,481.93799 212.488,481.93799"
       inkscape:connector-curvature="0"
       sodipodi:nodetypes="cssssaaaaaac" />
    <path
       style="color:#000000;font-style:normal;font-variant:normal;font-weight:normal;font-stretch:normal;font-size:medium;line-height:normal;font-family:sans-serif;text-indent:0;text-align:start;text-decoration:none;text-decoration-line:none;text-decoration-style:solid;text-decoration-color:#000000;letter-spacing:normal;word-spacing:normal;text-transform:none;direction:ltr;block-progression:tb;writing-mode:lr-tb;baseline-shift:baseline;text-anchor:start;white-space:normal;clip-rule:nonzero;display:inline;overflow:visible;visibility:visible;opacity:1;isolation:auto;mix-blend-mode:normal;color-interpolation:sRGB;color-interpolation-filters:linearRGB;solid-color:#000000;solid-opacity:1;fill:#000000;fill-opacity:1;fill-rule:evenodd;stroke:none;stroke-width:70;stroke-linecap:round;stroke-linejoin:round;stroke-miterlimit:4;stroke-dasharray:none;stroke-dashoffset:0;stroke-opacity:1;color-rendering:auto;image-rendering:auto;shape-rendering:auto;text-rendering:auto;enable-background:accumulate"
       d="m -1252.1055,468.21289 c -133.5648,-2.48635 -268.4456,36.82237 -376.8242,116.79883 -108.5565,80.10779 -187.6164,200.2581 -211.9141,334.06445 -17.9241,98.70733 -5.6836,202.11503 34.7891,293.91013 40.4728,91.7952 108.5616,170.5802 193.5254,223.9239 a 35.0035,35.0035 0 1 0 37.2207,-59.2852 c -72.8733,-45.7528 -131.9838,-114.1463 -166.6973,-192.8789 -34.7134,-78.7326 -45.3383,-168.5031 -29.9648,-253.16407 20.8143,-114.62375 89.9974,-220.4314 184.6055,-290.24609 94.786,-69.94605 215.0728,-105.34784 333.957,-103.13477 120.4585,2.24238 240.8602,43.0715 334.34961,117.58203 63.95202,50.96941 115.30164,118.35491 147.32421,193.34766 -89.43064,-20.75564 -183.86461,-39.00623 -280.80272,-29.73828 -48.9755,4.68238 -98.1309,16.53214 -143.8516,38.26172 -45.8079,21.77106 -87.7592,53.45183 -119.4902,94.79882 -33.4812,43.62747 -54.039,96.23538 -59.6035,150.70898 -5.5615,54.4457 3.9078,109.7438 26.6094,159.2813 22.6906,49.5135 58.1847,92.4766 101.9746,124.4609 43.7704,31.97 95.1663,52.5405 148.5879,60.1699 64.6266,9.2297 130.84869,-0.6513 190.17769,-26.373 59.26605,-25.6945 110.87066,-66.6923 150.40625,-116.9864 78.94998,-100.4339 106.06416,-233.4351 86.49609,-357.33394 92.99766,24.75817 185.17779,52.92655 276.46289,83.93364 50.07791,17.01 103.66805,36.5269 162.99024,40.9648 22.65534,1.6947 46.00944,1.0633 69.26953,-2.9805 0.18123,-0.012 0.36172,-0.01 0.54297,-0.02 a 35.0035,35.0035 0 0 0 9.89062,-2.0078 c 3.77239,-0.8285 7.53914,-1.7495 11.29688,-2.7735 30.45055,-8.2974 59.918311,-23.1731 84.197262,-45.7734 23.768341,-22.12492 41.146279,-50.45069 50.0546874,-81.71288 8.9095394,-31.26617 9.0796991,-64.54188 0.4277344,-95.91602 -8.6530738,-31.37815 -25.8739938,-59.90527 -49.6718748,-82.16211 -23.800957,-22.25971 -53.451659,-37.56154 -85.429689,-44.01367 -41.62562,-8.3987 -85.14818,-1.33639 -122.00195,19.55078 -36.83534,20.87672 -65.13303,54.47498 -79.61719,94.15039 -18.09439,49.56466 -13.07112,105.02256 12.69336,150.4336 -13.87084,-4.47718 -27.87396,-9.17948 -42.12891,-14.02149 -104.44435,-35.47687 -210.24214,-67.36841 -317.29882,-94.76953 -33.54991,-105.27341 -99.54671,-199.41442 -185.87891,-268.2207 -106.5623,-84.92957 -241.36066,-130.31118 -376.67386,-132.83008 z m 1078.28323,312.3457 c 6.34616,0.0899 12.64825,0.74187 18.77735,1.97852 18.98685,3.83093 37.28914,13.26739 51.46094,26.52148 14.174863,13.25697 24.837177,30.9036 30.005855,49.64649 5.169787,18.74691 5.07119,39.38775 -0.267578,58.12304 -5.339902,18.73927 -16.140131,36.35849 -30.427737,49.65821 -14.68711,13.67164 -33.99416,23.77628 -54.90625,29.47461 -3.69427,1.00665 -7.51865,1.72405 -11.32617,2.47656 -34.28891,0.9791 -70.69357,-16.13209 -91.23242,-43.46289 -21.29055,-28.33109 -27.47736,-70.05938 -15.32422,-103.34961 8.65496,-23.70791 26.50991,-44.86059 48.37695,-57.25391 16.38646,-9.28715 35.82483,-14.08216 54.86328,-13.8125 z m -840.18943,106.58789 c 74.67967,-2.01259 151.59794,12.72885 228.86131,30.7168 12.96302,3.01797 25.89649,6.16566 38.82812,9.32617 2.23767,9.71611 4.27066,19.4743 5.84375,29.31446 17.01998,106.46479 -7.08989,221.01989 -72.28125,303.95119 -32.63302,41.5131 -75.3417,75.2655 -123.21679,96.0215 -47.81215,20.7286 -101.46014,28.5811 -152.43754,21.3007 -42.1436,-6.0187 -83.0127,-22.4319 -117.1972,-47.4003 -34.1651,-24.9543 -62.0985,-58.8509 -79.625,-97.0958 -17.5157,-38.2211 -24.8577,-81.4163 -20.6094,-123.0058 4.2455,-41.5614 20.2074,-82.2502 45.498,-115.20509 24.0441,-31.33051 57.0708,-56.6393 94.0059,-74.19336 37.0223,-17.59554 78.2455,-27.76609 120.4668,-31.80273 10.5717,-1.01073 21.1948,-1.64022 31.8633,-1.92774 z"
       id="path4139-1-0-5-6-3-6"
       inkscape:connector-curvature="0" />
    <path
       style="color:#000000;font-style:normal;font-variant:normal;font-weight:normal;font-stretch:normal;font-size:medium;line-height:normal;font-family:sans-serif;text-indent:0;text-align:start;text-decoration:none;text-decoration-line:none;text-decoration-style:solid;text-decoration-color:#000000;letter-spacing:normal;word-spacing:normal;text-transform:none;direction:ltr;block-progression:tb;writing-mode:lr-tb;baseline-shift:baseline;text-anchor:start;white-space:normal;clip-rule:nonzero;display:inline;overflow:visible;visibility:visible;opacity:1;isolation:auto;mix-blend-mode:normal;color-interpolation:sRGB;color-interpolation-filters:linearRGB;solid-color:#000000;solid-opacity:1;fill:#000000;fill-opacity:1;fill-rule:evenodd;stroke:none;stroke-width:200;stroke-linecap:round;stroke-linejoin:round;stroke-miterlimit:4;stroke-dasharray:none;stroke-dashoffset:0;stroke-opacity:1;color-rendering:auto;image-rendering:auto;shape-rendering:auto;text-rendering:auto;enable-background:accumulate"
       d="m 2893.1055,-720.77539 c -147.1969,-2.74011 -295.6307,40.19398 -416.6309,129.48437 -121.5087,89.66568 -209.7412,223.13515 -237.2734,374.75391 -20.2926,111.75027 -6.5531,227.821428 39.2676,331.74609 45.8207,103.92475 122.2487,192.35763 218.4394,252.75 a 100.01,100.01 0 1 0 106.3457,-169.38281 c -61.6465,-38.70413 -112.4177,-97.44969 -141.7832,-164.052732 -29.3655,-66.60311 -38.4914,-143.709998 -25.4863,-215.328128 17.5798,-96.81131 77.5883,-189.30179 159.2441,-249.55859 82.1644,-60.63208 188.9022,-92.40656 294.1543,-90.44727 106.665,1.98559 213.6946,38.58808 295.0449,103.42383 19.3448,15.41763 37.3349,32.67746 53.8008,51.3125 -48.9939,-6.00714 -100.0295,-8.29795 -152.9512,-3.23828 -55.2471,5.282 -111.7707,18.69146 -165.5683,44.25977 -54.0471,25.68685 -104.2854,63.28558 -143.1543,113.93359 -41.0866,53.53771 -65.9119,117.212122 -72.7012,183.675781 -6.7809,66.383488 4.6665,132.921419 32.1836,192.966799 27.486,59.97754 69.9993,111.35895 122.7266,149.87109 52.6717,38.4716 113.8425,62.90035 177.7363,72.02539 77.301,11.03981 155.1995,-0.72383 225.2227,-31.08203 69.8433,-30.28015 129.7071,-78.0053 175.6523,-136.45312 70.8545,-90.13549 104.7168,-200.252547 106.4004,-310.273442 61.8367,18.001751 123.3642,37.466607 184.5508,58.25 49.4672,16.802662 108.1451,38.9322344 179.0468,44.236328 26.5974,1.989722 54.6777,1.410907 83.4219,-3.4218748 a 100.01,100.01 0 0 0 21.0508,-4.3828124 c 2.8213,-0.6809476 5.6374,-1.3110627 8.4668,-2.0820313 39.3079,-10.7109623 78.2109,-30.0190635 111.3965,-60.9101565 32.572,-30.319825 56.0553,-68.584211 68.2773,-111.474611 a 100.01,100.01 0 0 0 0,-0.002 c 12.2251,-42.9018 12.4636,-87.90828 0.5782,-131.00781 -11.8887,-43.11085 -35.2003,-81.74165 -67.9336,-112.35547 -32.7424,-30.62212 -72.9335,-51.37172 -116.9747,-60.25782 -57.5127,-11.60422 -116.1191,-2.06523 -166.9062,26.71876 -50.7345,28.75419 -88.73,73.90602 -108.627,128.4082 -8.9568,24.53481 -13.8709,49.75933 -14.8632,74.88476 -72.9802,-23.594 -146.6704,-45.43961 -221.0684,-65.17773 -40.0934,-103.88441 -108.2461,-195.59511 -195.1113,-264.82617 -118.7015,-94.60436 -266.8678,-144.21068 -415.9746,-146.98633 z m 1075.9765,442.39258 c 2.4801,-0.005 4.8603,0.19949 7.0176,0.63476 6.9236,1.39697 14.6876,5.3876 19.918,10.2793 5.2392,4.89998 9.809,12.44293 11.7422,19.45313 1.9363,7.0215 1.9059,15.93158 -0.1172,23.03124 -2.0264,7.11106 -6.7191,14.78777 -12.2031,19.89258 a 100.01,100.01 0 0 0 -0,0.002 c -5.7804,5.38074 -15.6524,11.05117 -27.707,14.33593 -0.1531,0.0417 -0.3343,0.0644 -0.4883,0.10547 -11.8373,-1.45827 -26.6852,-9.00135 -33.0176,-17.42773 -7.3814,-9.82232 -10.442,-30.46623 -6.2285,-42.00781 3.2422,-8.88115 11.3993,-18.48026 19.3672,-22.9961 5.9364,-3.36452 14.2785,-5.28645 21.7187,-5.30273 z m -837.2675,106.52929 c 64.2496,-1.62496 134.7053,11.07582 209.371,28.36524 10.2363,86.05324 -11.46,176.692938 -61.0468,239.773436 -26.2235,33.359384 -60.6709,60.384414 -97.9688,76.554684 -37.1178,16.09224 -79.0896,22.06012 -117.3926,16.58985 -31.6714,-4.52318 -62.7656,-17.07603 -88.0488,-35.54297 -25.2277,-18.42642 -46.1438,-43.90457 -58.875,-71.685548 -12.7001,-27.713145 -18.064,-59.668683 -15.0351,-89.3203126 3.0207,-29.5714594 14.7151,-59.1936294 32.4004,-82.2382814 16.9061,-22.029488 41.6458,-41.420328 70.3417,-55.058598 28.9454,-13.75679 62.8024,-22.36766 98.752,-25.80468 9.0342,-0.86373 18.2028,-1.39763 27.502,-1.63282 z"
       id="path4139-1-0-5-6-5"
       inkscape:connector-curvature="0" />
  </g>
</svg>
