<?xml version="1.0" encoding="UTF-8" standalone="no"?>
<!-- Created with Inkscape (http://www.inkscape.org/) -->

<svg
   xmlns:dc="http://purl.org/dc/elements/1.1/"
   xmlns:cc="http://creativecommons.org/ns#"
   xmlns:rdf="http://www.w3.org/1999/02/22-rdf-syntax-ns#"
   xmlns:svg="http://www.w3.org/2000/svg"
   xmlns="http://www.w3.org/2000/svg"
   xmlns:sodipodi="http://sodipodi.sourceforge.net/DTD/sodipodi-0.dtd"
   xmlns:inkscape="http://www.inkscape.org/namespaces/inkscape"
   width="2000"
   height="2000"
   id="svg2992"
   version="1.1"
   inkscape:version="0.91 r13725"
   sodipodi:docname="b.svg">
  <defs
     id="defs5498">
    <inkscape:path-effect
       effect="spiro"
       id="path-effect4211"
       is_visible="true" />
    <inkscape:path-effect
       effect="spiro"
       id="path-effect4473"
       is_visible="true" />
    <inkscape:path-effect
       effect="spiro"
       id="path-effect4277"
       is_visible="true" />
    <inkscape:path-effect
       effect="spiro"
       id="path-effect4273"
       is_visible="true" />
    <inkscape:path-effect
       effect="powerstroke"
       id="path-effect4176"
       is_visible="true"
       offset_points="0,89.748228 | 5.6321604,136.95347 | 12,55.592499"
       sort_points="true"
       interpolator_type="CubicBezierJohan"
       interpolator_beta="0.2"
       start_linecap_type="round"
       linejoin_type="round"
       miter_limit="4"
       end_linecap_type="round" />
    <inkscape:path-effect
       effect="spiro"
       id="path-effect4174"
       is_visible="true" />
    <inkscape:path-effect
       effect="powerstroke"
       id="path-effect4165"
       is_visible="true"
       offset_points="0.08006682,-138.82044 | 8.7788483,-102.82691 | 18,-106.24007"
       sort_points="true"
       interpolator_type="SpiroInterpolator"
       interpolator_beta="0.2"
       start_linecap_type="round"
       linejoin_type="round"
       miter_limit="4"
       end_linecap_type="round" />
    <inkscape:path-effect
       effect="interpolate"
       id="path-effect4163"
       is_visible="true"
       trajectory="M 0,0 0,0"
       equidistant_spacing="true"
       steps="5" />
    <inkscape:path-effect
       effect="powerstroke"
       id="path-effect4161"
       is_visible="true"
       offset_points="0,1 | 9,1 | 18,1"
       sort_points="true"
       interpolator_type="CubicBezierJohan"
       interpolator_beta="0.2"
       start_linecap_type="round"
       linejoin_type="round"
       miter_limit="4"
       end_linecap_type="round" />
    <inkscape:path-effect
       effect="spiro"
       id="path-effect2987"
       is_visible="true" />
    <inkscape:path-effect
       effect="spiro"
       id="path-effect4141-3-4-6"
       is_visible="true" />
    <inkscape:path-effect
       effect="spiro"
       id="path-effect4141-3-4-6-8"
       is_visible="true" />
    <inkscape:path-effect
       effect="spiro"
       id="path-effect4141-3-4-6-8-8"
       is_visible="true" />
    <inkscape:path-effect
       effect="spiro"
       id="path-effect4141-3-4-6-8-86"
       is_visible="true" />
    <inkscape:path-effect
       effect="spiro"
       id="path-effect4141-3-4-6-8-86-6"
       is_visible="true" />
    <inkscape:path-effect
       effect="spiro"
       id="path-effect4141-3-4-6-8-86-2"
       is_visible="true" />
    <inkscape:path-effect
       effect="spiro"
       id="path-effect4141-3-4-6-8-86-2-4"
       is_visible="true" />
    <inkscape:path-effect
       effect="spiro"
       id="path-effect4277-0"
       is_visible="true" />
    <inkscape:path-effect
       effect="spiro"
       id="path-effect4273-2"
       is_visible="true" />
    <inkscape:path-effect
       effect="spiro"
       id="path-effect4273-29"
       is_visible="true" />
    <inkscape:path-effect
       effect="spiro"
       id="path-effect4277-7"
       is_visible="true" />
    <inkscape:path-effect
       effect="spiro"
       id="path-effect4277-7-5"
       is_visible="true" />
    <inkscape:path-effect
       effect="spiro"
       id="path-effect4273-29-6"
       is_visible="true" />
    <inkscape:path-effect
       effect="spiro"
       id="path-effect4273-29-6-8"
       is_visible="true" />
    <inkscape:path-effect
       effect="spiro"
       id="path-effect4277-7-5-3"
       is_visible="true" />
    <inkscape:path-effect
       effect="spiro"
       id="path-effect4273-29-3"
       is_visible="true" />
    <inkscape:path-effect
       effect="spiro"
       id="path-effect4277-7-2"
       is_visible="true" />
    <inkscape:path-effect
       effect="spiro"
       id="path-effect4277-7-2-4"
       is_visible="true" />
    <inkscape:path-effect
       effect="spiro"
       id="path-effect4277-7-2-4-0"
       is_visible="true" />
    <inkscape:path-effect
       effect="spiro"
       id="path-effect4277-7-8"
       is_visible="true" />
    <inkscape:path-effect
       effect="spiro"
       id="path-effect4277-7-5-6"
       is_visible="true" />
    <inkscape:path-effect
       effect="spiro"
       id="path-effect4277-7-8-5"
       is_visible="true" />
    <inkscape:path-effect
       effect="spiro"
       id="path-effect4277-9"
       is_visible="true" />
    <inkscape:path-effect
       effect="spiro"
       id="path-effect4273-6"
       is_visible="true" />
    <inkscape:path-effect
       effect="spiro"
       id="path-effect4273-2-1"
       is_visible="true" />
    <inkscape:path-effect
       effect="spiro"
       id="path-effect4273-2-1-9"
       is_visible="true" />
    <inkscape:path-effect
       effect="spiro"
       id="path-effect4277-7-8-5-6"
       is_visible="true" />
    <inkscape:path-effect
       effect="spiro"
       id="path-effect4273-2-1-9-4"
       is_visible="true" />
    <inkscape:path-effect
       effect="spiro"
       id="path-effect4273-2-4"
       is_visible="true" />
    <inkscape:path-effect
       effect="spiro"
       id="path-effect4273-2-1-2"
       is_visible="true" />
    <inkscape:path-effect
       effect="spiro"
       id="path-effect4273-2-1-2-6"
       is_visible="true" />
    <inkscape:path-effect
       effect="spiro"
       id="path-effect4273-6-1"
       is_visible="true" />
    <inkscape:path-effect
       effect="spiro"
       id="path-effect4277-9-3"
       is_visible="true" />
    <inkscape:path-effect
       effect="spiro"
       id="path-effect4277-9-3-1"
       is_visible="true" />
    <inkscape:path-effect
       effect="spiro"
       id="path-effect4273-6-1-1"
       is_visible="true" />
    <inkscape:path-effect
       effect="spiro"
       id="path-effect4277-9-3-10"
       is_visible="true" />
    <inkscape:path-effect
       effect="spiro"
       id="path-effect4273-6-1-5"
       is_visible="true" />
    <inkscape:path-effect
       effect="spiro"
       id="path-effect4277-9-3-9"
       is_visible="true" />
    <inkscape:path-effect
       effect="spiro"
       id="path-effect4273-63"
       is_visible="true" />
    <inkscape:path-effect
       effect="spiro"
       id="path-effect4277-6"
       is_visible="true" />
    <inkscape:path-effect
       effect="spiro"
       id="path-effect4273-4"
       is_visible="true" />
    <inkscape:path-effect
       effect="spiro"
       id="path-effect4277-5"
       is_visible="true" />
    <inkscape:path-effect
       effect="spiro"
       id="path-effect4277-5-8"
       is_visible="true" />
    <inkscape:path-effect
       effect="spiro"
       id="path-effect4277-5-7"
       is_visible="true" />
    <inkscape:path-effect
       effect="spiro"
       id="path-effect4277-5-9"
       is_visible="true" />
    <inkscape:path-effect
       effect="spiro"
       id="path-effect4277-5-6"
       is_visible="true" />
    <inkscape:path-effect
       effect="spiro"
       id="path-effect4277-5-4"
       is_visible="true" />
    <inkscape:path-effect
       effect="spiro"
       id="path-effect4277-5-3"
       is_visible="true" />
    <inkscape:path-effect
       effect="spiro"
       id="path-effect4277-7-2-2"
       is_visible="true" />
    <inkscape:path-effect
       effect="spiro"
       id="path-effect4273-27"
       is_visible="true" />
    <inkscape:path-effect
       effect="spiro"
       id="path-effect4277-7-2-2-9"
       is_visible="true" />
    <inkscape:path-effect
       effect="spiro"
       id="path-effect4277-5-86"
       is_visible="true" />
    <inkscape:path-effect
       effect="spiro"
       id="path-effect4273-0"
       is_visible="true" />
    <inkscape:path-effect
       effect="spiro"
       id="path-effect4277-7-2-2-1"
       is_visible="true" />
    <inkscape:path-effect
       effect="spiro"
       id="path-effect4277-7-2-2-3"
       is_visible="true" />
    <inkscape:path-effect
       effect="spiro"
       id="path-effect4273-03"
       is_visible="true" />
    <inkscape:path-effect
       effect="spiro"
       id="path-effect4277-5-863"
       is_visible="true" />
    <inkscape:path-effect
       effect="spiro"
       id="path-effect4211-6"
       is_visible="true" />
    <inkscape:path-effect
       effect="spiro"
       id="path-effect4277-5-5"
       is_visible="true" />
    <inkscape:path-effect
       effect="spiro"
       id="path-effect4277-5-5-5"
       is_visible="true" />
    <inkscape:path-effect
       effect="spiro"
       id="path-effect4211-4"
       is_visible="true" />
    <inkscape:path-effect
       effect="spiro"
       id="path-effect4211-4-7"
       is_visible="true" />
    <inkscape:path-effect
       effect="spiro"
       id="path-effect4277-5-59"
       is_visible="true" />
    <inkscape:path-effect
       effect="spiro"
       id="path-effect4277-5-59-3"
       is_visible="true" />
    <inkscape:path-effect
       effect="spiro"
       id="path-effect4211-4-3"
       is_visible="true" />
    <inkscape:path-effect
       effect="spiro"
       id="path-effect4277-5-59-6"
       is_visible="true" />
    <inkscape:path-effect
       effect="spiro"
       id="path-effect4211-43"
       is_visible="true" />
    <inkscape:path-effect
       effect="spiro"
       id="path-effect4211-43-4"
       is_visible="true" />
    <inkscape:path-effect
       effect="spiro"
       id="path-effect4211-43-5"
       is_visible="true" />
  </defs>
  <sodipodi:namedview
     inkscape:window-height="843"
     inkscape:window-width="1600"
     inkscape:pageshadow="2"
     inkscape:pageopacity="0.0"
     borderopacity="1.0"
     bordercolor="#666666"
     pagecolor="#ffffff"
     id="base"
     showgrid="false"
     showguides="true"
     inkscape:guide-bbox="true"
     inkscape:zoom="0.25"
     inkscape:cx="2108"
     inkscape:cy="-758.99466"
     inkscape:window-x="1600"
     inkscape:window-y="0"
     inkscape:current-layer="layer1"
     inkscape:window-maximized="1">
    <sodipodi:guide
       orientation="0,1"
       position="800,1024"
       id="guide5596"
       inkscape:label=""
       inkscape:color="rgb(0,0,255)" />
    <inkscape:grid
       type="xygrid"
       id="grid3769"
       empspacing="5"
       visible="true"
       enabled="true"
       snapvisiblegridlinesonly="true" />
    <sodipodi:guide
       orientation="0,1"
       position="-3303.6029,1384"
       id="guide4772"
       inkscape:label=""
       inkscape:color="rgb(0,0,255)" />
    <sodipodi:guide
       orientation="0,1"
       position="2480,0"
       id="guide4210"
       inkscape:label=""
       inkscape:color="rgb(0,0,255)" />
    <sodipodi:guide
       orientation="0.0059515376,-0.99998229"
       position="-3552.5045,1686"
       id="guide4365"
       inkscape:label=""
       inkscape:color="rgb(0,0,255)" />
    <sodipodi:guide
       orientation="0,1"
       position="1440,0"
       id="guide4367" />
    <sodipodi:guide
       position="-3054.7013,614"
       orientation="0,1"
       id="guide4271"
       inkscape:label=""
       inkscape:color="rgb(0,0,255)" />
    <sodipodi:guide
       position="-3054.7013,3133.8973"
       orientation="0,1"
       id="guide4273"
       inkscape:label=""
       inkscape:color="rgb(0,0,255)" />
    <sodipodi:guide
       position="1792,2048"
       orientation="0,1"
       id="guide4238"
       inkscape:label=""
       inkscape:color="rgb(0,0,255)" />
  </sodipodi:namedview>
  <metadata
     id="metadata5594">
    <rdf:RDF>
      <cc:Work
         rdf:about="">
        <dc:format>image/svg+xml</dc:format>
        <dc:type
           rdf:resource="http://purl.org/dc/dcmitype/StillImage" />
        <dc:title />
      </cc:Work>
    </rdf:RDF>
  </metadata>
  <g
     inkscape:label="Layer 1"
     inkscape:groupmode="layer"
     id="layer1"
     transform="translate(0,1000)">
    <path
       style="fill:none;fill-rule:evenodd;stroke:#000000;stroke-width:150;stroke-linecap:round;stroke-linejoin:round;stroke-miterlimit:4;stroke-dasharray:none;stroke-opacity:1"
       d="m 351.36018,-946 0,1257.23981"
       id="path4271"
       inkscape:connector-curvature="0"
       sodipodi:nodetypes="cc" />
    <path
       style="fill:none;fill-rule:evenodd;stroke:#000000;stroke-width:150;stroke-linecap:round;stroke-linejoin:round;stroke-miterlimit:4;stroke-dasharray:none;stroke-opacity:1"
       d="m -6388.2633,281.32525 488.0435,-7.57459 c 49.7655,-0.77238 100.0669,-0.7172 148.5137,10.68906 48.4469,11.40626 94.5033,34.23824 130.9889,68.09082 36.4856,33.85259 62.8763,78.06138 77.2955,125.69839 14.4191,47.63701 17.2067,98.28346 12.6149,147.84265 -3.9621,42.76288 -13.442,85.283 -31.234,124.37017 -17.792,39.08716 -44.0819,74.45498 -77.3804,101.57643 -33.2985,27.12146 -73.2608,45.57787 -115.0441,55.50332 -41.7834,9.92546 -85.0552,11.3245 -127.9942,12.09929 l -505.9314,9.129 -1.8028,-1220.59347 278.9802,-12.61543 c 103.3233,-4.67226 209.6199,-6.98438 306.7631,28.52253 48.5715,17.75346 94.1177,44.60919 131.1311,80.72554 37.0134,36.11635 65.2727,81.58784 78.8495,131.488286 22.1284,81.331324 2.7308,172.829294 -50.4954,238.185424 -53.2262,65.35613 -138.9019,102.87706 -223.029,97.67363"
       id="path4275-7"
       inkscape:path-effect="#path-effect4277-5"
       inkscape:original-d="m -6388.2633,281.32525 488.0435,-7.57459 c 181.4268,-2.8158 375.0378,182.22332 369.413,352.32092 -5.0473,152.6364 -183.7807,290.52014 -351.6527,293.54921 l -505.9314,9.129 -1.8028,-1220.59347 278.9802,-12.61543 c 183.859,-8.31407 474.228,55.4825 516.7437,240.736356 32.2998,140.739908 -104.3442,308.140664 -273.5244,335.859054"
       inkscape:connector-curvature="0"
       sodipodi:nodetypes="csasccsac" />
    <path
       style="fill:none;fill-rule:evenodd;stroke:#000000;stroke-width:150;stroke-linecap:round;stroke-linejoin:round;stroke-miterlimit:4;stroke-dasharray:none;stroke-opacity:1"
       inkscape:path-effect="#path-effect4211"
       inkscape:original-d="M 726.56497,-579.42408 C 553.35303,-579.93437 363.8842,-384.78763 359.47921,-211.63096 353.57456,20.47625 594.12489,320.57058 825.83417,305.75735 1012.3361,293.83423 1161.2295,31.09105 1145.1157,-155.09561 1127.9853,-353.02891 925.2373,-578.83878 726.56497,-579.42408 Z"
       id="path4275-3-0"
       d="m 726.56497,-579.42408 c -93.40097,5.63854 -182.6511,50.88351 -247.19828,118.62711 -64.54718,67.7436 -104.92495,156.79904 -119.88748,249.16601 -21.79717,134.558674 11.82562,279.598524 100.16997,383.4081 44.17218,51.90479 101.24682,93.00504 165.06586,116.9303 63.81904,23.92527 134.29196,30.44461 201.11913,17.04991 99.90385,-20.02452 188.66003,-84.59226 244.65343,-169.71861 55.9935,-85.126347 80.1135,-189.391188 74.6281,-291.13435 -5.9473,-110.31072 -47.1528,-219.96576 -122.5049,-300.74872 C 947.2587,-536.6273 836.83514,-586.081 726.56497,-579.42408 Z"
       inkscape:connector-curvature="0"
       sodipodi:nodetypes="aaaaa" />
    <path
       style="color:#000000;font-style:normal;font-variant:normal;font-weight:normal;font-stretch:normal;font-size:medium;line-height:normal;font-family:sans-serif;text-indent:0;text-align:start;text-decoration:none;text-decoration-line:none;text-decoration-style:solid;text-decoration-color:#000000;letter-spacing:normal;word-spacing:normal;text-transform:none;direction:ltr;block-progression:tb;writing-mode:lr-tb;baseline-shift:baseline;text-anchor:start;white-space:normal;clip-rule:nonzero;display:inline;overflow:visible;visibility:visible;opacity:1;isolation:auto;mix-blend-mode:normal;color-interpolation:sRGB;color-interpolation-filters:linearRGB;solid-color:#000000;solid-opacity:1;fill:#000000;fill-opacity:1;fill-rule:evenodd;stroke:none;stroke-width:150;stroke-linecap:round;stroke-linejoin:round;stroke-miterlimit:4;stroke-dasharray:none;stroke-dashoffset:0;stroke-opacity:1;color-rendering:auto;image-rendering:auto;shape-rendering:auto;text-rendering:auto;enable-background:accumulate"
       d="m 2418.9551,1059.9355 c -27.6133,0.4054 -54.6893,1.5605 -81.0039,2.75 l -280.9844,12.7032 a 75.0075,75.0075 0 0 0 -71.6133,75.0332 l 1.8164,1228.9746 a 75.0075,75.0075 0 0 0 76.3516,74.8769 l 509.5683,-9.1914 c 43.9601,-0.7929 93.0083,-1.8832 144.8692,-14.1972 51.9528,-12.3358 102.4862,-35.3473 145.8887,-70.6817 43.3061,-35.256 76.448,-80.1586 98.8515,-129.3457 a 75.0075,75.0075 0 0 0 0,-0 c 22.2648,-48.8827 33.3144,-99.9385 37.8985,-149.4063 5.316,-57.3671 2.4042,-118.029 -15.625,-177.541 -18.1593,-59.941 -51.2512,-115.851 -98.6485,-159.8066 -16.3575,-15.1697 -34.0363,-28.3458 -52.5547,-39.8536 12.5778,-11.406 24.4579,-23.6828 35.3164,-37.0117 69.6315,-85.4726 94.0328,-200.5602 65.0782,-306.9355 -17.5727,-64.5596 -53.2812,-121.387 -99.4317,-166.4004 -45.9962,-44.8631 -101.0864,-76.9796 -158.7109,-98.0313 -86.542,-31.6159 -174.2266,-37.1497 -257.0664,-35.9336 z m 1.5957,150.2969 c 74.347,-0.714 143.7827,4.5304 204,26.5293 40.215,14.6916 76.8757,36.6518 105.4472,64.5195 28.4176,27.7174 49.647,62.4684 59.4317,98.4161 15.6334,57.4348 0.959,126.65 -36.6367,172.7988 -37.5959,46.1489 -102.4149,74.5123 -161.8242,70.8125 a 75.0075,75.0075 0 0 0 -20.6016,1.3418 c -5.8796,0.063 -11.9495,0.06 -17.6817,0.1484 l -416.5917,6.4649 -0.6348,-429.2696 209.2676,-9.4609 c 25.7142,-1.1624 51.0418,-2.0628 75.8242,-2.3008 z m 170.4687,584.3535 c 35.0267,0.2878 67.0264,2.3373 95.2051,8.9688 37.3807,8.7971 72.0955,26.4137 98.1016,50.5312 26.1017,24.2064 46.1854,57.3187 57.0898,93.3125 11.0343,36.4228 13.7556,77.7651 9.8223,120.211 -3.3972,36.6594 -11.4567,71.2391 -25.0449,101.0722 -13.4495,29.5286 -33.277,55.8424 -57.0489,75.1954 -23.6755,19.2744 -53.6343,33.4199 -85.8379,41.0664 -32.2955,7.6683 -70.3997,9.395 -112.9218,10.1621 l -433.3282,7.8164 -0.7402,-501.6465 418.6973,-6.4942 c 12.3189,-0.1911 24.3303,-0.2912 36.0058,-0.1953 z"
       id="path4275-7-5"
       inkscape:connector-curvature="0" />
    <path
       style="color:#000000;font-style:normal;font-variant:normal;font-weight:normal;font-stretch:normal;font-size:medium;line-height:normal;font-family:sans-serif;text-indent:0;text-align:start;text-decoration:none;text-decoration-line:none;text-decoration-style:solid;text-decoration-color:#000000;letter-spacing:normal;word-spacing:normal;text-transform:none;direction:ltr;block-progression:tb;writing-mode:lr-tb;baseline-shift:baseline;text-anchor:start;white-space:normal;clip-rule:nonzero;display:inline;overflow:visible;visibility:visible;opacity:1;isolation:auto;mix-blend-mode:normal;color-interpolation:sRGB;color-interpolation-filters:linearRGB;solid-color:#000000;solid-opacity:1;fill:#000000;fill-opacity:1;fill-rule:evenodd;stroke:none;stroke-width:150;stroke-linecap:round;stroke-linejoin:round;stroke-miterlimit:4;stroke-dasharray:none;stroke-dashoffset:0;stroke-opacity:1;color-rendering:auto;image-rendering:auto;shape-rendering:auto;text-rendering:auto;enable-background:accumulate"
       d="M 802.23047 1839.9395 A 75.0075 75.0075 0 0 0 728.35938 1916 L 728.35938 3173.2402 A 75.0075 75.0075 0 1 0 878.35938 3173.2402 L 878.35938 3106.416 C 926.55099 3155.4536 985.0728 3194.45 1050.3867 3218.9355 C 1127.0059 3247.6595 1211.1869 3255.61 1292.5742 3239.2969 C 1414.5462 3214.8491 1518.7268 3138.2361 1585.1484 3037.2559 C 1651.1592 2936.9003 1678.2778 2817.1647 1672.0078 2700.8691 C 1665.2018 2574.6305 1618.5959 2448.5655 1529.4551 2353 C 1445.2047 2262.6775 1325.713 2205.0656 1199.3926 2204.9609 L 1199.3926 2204.959 C 1190.9712 2204.949 1182.5186 2205.2013 1174.0449 2205.7129 C 1060.0616 2212.5939 955.10827 2266.2035 878.35938 2346.127 L 878.35938 1916 A 75.0075 75.0075 0 0 0 802.23047 1839.9395 z M 1199.0762 2355 C 1279.2903 2355.3831 1362.7308 2394.1669 1419.7656 2455.3125 C 1481.329 2521.3129 1517.136 2614.5585 1522.2246 2708.9414 C 1526.9254 2796.132 1505.8041 2884.9253 1459.8281 2954.8223 C 1414.2629 3024.0946 1340.9293 3076.6195 1263.0938 3092.2207 C 1210.8266 3102.697 1154.0618 3097.6071 1103.043 3078.4805 C 1051.8974 3059.3064 1004.9368 3025.673 968.76562 2983.1699 C 896.68045 2898.4658 867.02358 2774.5047 885.51367 2660.3613 C 898.28728 2581.5071 932.98782 2506.2263 985.66602 2450.9395 C 1037.9001 2396.1187 1110.9034 2359.7969 1183.084 2355.4395 C 1188.3941 2355.1189 1193.7286 2354.9745 1199.0762 2355 z "
       transform="translate(0,-1000)"
       id="path4271-8" />
    <path
       style="fill:none;fill-rule:evenodd;stroke:#000000;stroke-width:75;stroke-linecap:round;stroke-linejoin:round;stroke-miterlimit:4;stroke-dasharray:none;stroke-opacity:1"
       d="m -3324.523,-346.9937 0,1309.48389"
       id="path4271-7"
       inkscape:connector-curvature="0"
       sodipodi:nodetypes="cc" />
    <path
       style="fill:none;fill-rule:evenodd;stroke:#000000;stroke-width:75;stroke-linecap:round;stroke-linejoin:round;stroke-miterlimit:4;stroke-dasharray:none;stroke-opacity:1"
       inkscape:original-d="m -2926.9715,15.530923 c -184.4035,-0.542408 -386.1142,206.883907 -390.8038,390.936427 -6.2862,246.71248 249.8066,565.69024 496.487,549.94484 198.5522,-12.67336 357.0658,-291.94964 339.9108,-489.85202 -18.2371,-210.38821 -234.0851,-450.407131 -445.594,-451.029247 z"
       id="path4275-3-0-3"
       d="m -2926.9715,15.530923 c -99.3544,5.994271 -194.3237,54.018715 -263.0638,126.004987 -68.7401,71.98628 -111.8024,166.68062 -127.74,264.93144 -23.2168,143.12557 12.7207,297.40502 106.821,407.71862 47.0501,55.15681 107.8099,98.80238 175.7169,124.19176 67.9071,25.38939 142.8643,32.27999 213.9491,18.03446 106.245,-21.29169 200.6852,-89.84905 260.3281,-180.31479 59.6429,-90.46575 85.4123,-201.33674 79.5827,-309.53723 -6.3222,-117.34296 -50.2933,-233.95946 -130.5481,-319.79951 -80.2547,-85.840041 -197.746,-138.306696 -315.0459,-131.229737 z"
       inkscape:connector-curvature="0"
       sodipodi:nodetypes="aaaaa"
       inkscape:path-effect="#path-effect4211-4" />
    <path
       style="fill:none;fill-rule:evenodd;stroke:#000000;stroke-width:74.99999237;stroke-linecap:round;stroke-linejoin:round;stroke-miterlimit:4;stroke-dasharray:none;stroke-opacity:1"
       d="m -4706.7067,285.22069 512.1256,-7.93924 c 52.8338,-0.81906 106.2615,-0.72342 157.6256,11.679 51.364,12.40242 100.0476,37.18636 138.2728,73.66813 38.2252,36.48178 65.4324,83.90079 79.9709,134.70156 14.5384,50.80077 16.8053,104.5485 11.7719,157.1484 -4.3048,44.98563 -13.9838,89.75807 -32.3903,131.03082 -18.4064,41.27275 -45.7627,78.74247 -80.6949,107.41268 -34.9322,28.67022 -77.0607,48.0588 -121.1075,58.16387 -44.0469,10.10506 -89.621,10.93348 -134.8119,11.0743 l -530.896,1.65428 -1.8917,-1291.31495 292.7461,-3.2867 c 107.8109,-1.21041 218.2167,-0.7024 319.5053,36.24756 50.6442,18.47498 98.3776,45.84694 137.6398,82.78797 39.2623,36.94104 69.8344,83.60926 85.0967,135.312544 25.2115,85.4080373 5.638,182.720756 -50.635,251.738946 -56.2729,69.01818 -147.6508,107.78629 -236.3861,100.28949"
       id="path4275-7-2"
       inkscape:path-effect="#path-effect4277-5-59"
       inkscape:original-d="m -4706.7067,285.22069 512.1256,-7.93924 c 190.379,-2.95137 394.5545,197.01541 387.6412,377.19709 -6.1411,160.05608 -192.8214,307.13267 -369.0046,307.68167 l -530.896,1.65428 -1.8917,-1291.31495 292.7461,-3.2867 c 193.1159,-2.16814 497.8727,59.73774 542.2418,254.348074 33.6517,147.601534 -109.4929,322.975606 -287.0211,352.028436"
       inkscape:connector-curvature="0"
       sodipodi:nodetypes="csasccsac" />
    <path
       style="color:#000000;font-style:normal;font-variant:normal;font-weight:normal;font-stretch:normal;font-size:medium;line-height:normal;font-family:sans-serif;text-indent:0;text-align:start;text-decoration:none;text-decoration-line:none;text-decoration-style:solid;text-decoration-color:#000000;letter-spacing:normal;word-spacing:normal;text-transform:none;direction:ltr;block-progression:tb;writing-mode:lr-tb;baseline-shift:baseline;text-anchor:start;white-space:normal;clip-rule:nonzero;display:inline;overflow:visible;visibility:visible;opacity:1;isolation:auto;mix-blend-mode:normal;color-interpolation:sRGB;color-interpolation-filters:linearRGB;solid-color:#000000;solid-opacity:1;fill:#000000;fill-opacity:1;fill-rule:evenodd;stroke:none;stroke-width:75;stroke-linecap:round;stroke-linejoin:round;stroke-miterlimit:4;stroke-dasharray:none;stroke-dashoffset:0;stroke-opacity:1;color-rendering:auto;image-rendering:auto;shape-rendering:auto;text-rendering:auto;enable-background:accumulate"
       d="M -3146.4688 2174.8711 A 37.50375 37.50375 0 0 0 -3183.4043 2212.9004 L -3183.4043 3039.3789 C -3183.591 3047.7936 -3183.5866 3056.2143 -3183.4043 3064.6309 L -3183.4043 3522.3848 A 37.50375 37.50375 0 1 0 -3108.4043 3522.3848 L -3108.4043 3332.0508 C -3094.4985 3355.3352 -3078.6578 3377.5578 -3060.8652 3398.416 C -3009.8089 3458.2691 -2943.9908 3505.6398 -2869.752 3533.3965 C -2795.4507 3561.1766 -2713.6499 3568.7755 -2635.3008 3553.0742 C -2518.0471 3529.5764 -2415.8969 3455.0175 -2351.0332 3356.6328 C -2286.3725 3258.5562 -2259.0895 3139.9405 -2265.3125 3024.4375 C -2272.0654 2899.0999 -2318.7546 2774.2701 -2405.9141 2681.0449 C -2487.9623 2593.2865 -2604.9359 2537.4563 -2726.291 2537.2793 C -2734.3814 2537.2673 -2742.4911 2537.5023 -2750.6113 2537.9922 C -2860.5503 2544.6251 -2963.636 2597.0932 -3038.5371 2675.5312 C -3065.617 2703.8899 -3088.8942 2735.3346 -3108.4043 2768.8906 L -3108.4043 2212.9004 A 37.50375 37.50375 0 0 0 -3146.4688 2174.8711 z M -2726.4414 2612.2988 C -2628.0885 2612.6163 -2529.1285 2659.0739 -2460.6992 2732.2656 C -2387.349 2810.7205 -2346.0965 2919.1223 -2340.2051 3028.4707 C -2334.7689 3129.3687 -2359.0253 3232.4948 -2413.6504 3315.3496 C -2468.0725 3397.8966 -2554.8028 3460.4516 -2650.0391 3479.5371 C -2713.8595 3492.3268 -2781.9734 3486.1452 -2843.4863 3463.1465 C -2905.0615 3440.1245 -2960.7606 3400.2027 -3003.8047 3349.7422 C -3071.7636 3270.0739 -3107.1952 3163.5518 -3108.4043 3056.7656 L -3108.4043 3045.4297 C -3108.1254 3020.9319 -3106.0508 2996.4706 -3102.1406 2972.3652 C -3087.3027 2880.8938 -3047.0935 2793.0923 -2984.2949 2727.3281 C -2921.7156 2661.7937 -2834.8635 2618.2131 -2746.0938 2612.8574 C -2739.5514 2612.4627 -2732.9983 2612.2777 -2726.4414 2612.2988 z "
       transform="translate(0,-1000)"
       id="path4271-7-2" />
    <path
       style="color:#000000;font-style:normal;font-variant:normal;font-weight:normal;font-stretch:normal;font-size:medium;line-height:normal;font-family:sans-serif;text-indent:0;text-align:start;text-decoration:none;text-decoration-line:none;text-decoration-style:solid;text-decoration-color:#000000;letter-spacing:normal;word-spacing:normal;text-transform:none;direction:ltr;block-progression:tb;writing-mode:lr-tb;baseline-shift:baseline;text-anchor:start;white-space:normal;clip-rule:nonzero;display:inline;overflow:visible;visibility:visible;opacity:1;isolation:auto;mix-blend-mode:normal;color-interpolation:sRGB;color-interpolation-filters:linearRGB;solid-color:#000000;solid-opacity:1;fill:#000000;fill-opacity:1;fill-rule:evenodd;stroke:none;stroke-width:74.99999237;stroke-linecap:round;stroke-linejoin:round;stroke-miterlimit:4;stroke-dasharray:none;stroke-dashoffset:0;stroke-opacity:1;color-rendering:auto;image-rendering:auto;shape-rendering:auto;text-rendering:auto;enable-background:accumulate"
       d="m -4510.9102,1211.043 c -13.7185,0.043 -27.3538,0.1782 -40.8808,0.33 l -292.7461,3.2872 a 37.503746,37.503746 0 0 0 -37.0781,37.5527 l 1.8906,1291.3144 a 37.503746,37.503746 0 0 0 37.6172,37.4454 l 530.8965,-1.6543 c 45.5706,-0.142 93.9737,-0.7577 143.08,-12.0235 49.157,-11.2774 96.5612,-32.9379 136.5137,-65.7285 39.8961,-32.7443 70.5552,-74.9398 91.1524,-121.125 20.5236,-46.02 30.8829,-94.7896 35.4707,-142.7324 5.3658,-56.074 3.1309,-114.503 -13.0489,-171.0391 -16.2451,-56.7641 -46.596,-109.9605 -90.1328,-151.5117 -30.3294,-28.9461 -66.037,-50.9427 -104.1816,-66.3965 30.8466,-18.3877 58.6885,-41.9354 81.6582,-70.1074 64.4907,-79.0973 86.4305,-188.1722 57.5371,-286.0527 -17.3773,-58.8681 -51.6989,-110.9232 -95.3652,-152.0078 -43.5767,-41.0004 -95.7661,-70.7432 -150.4864,-90.7051 -95.7482,-34.9289 -195.8665,-39.1498 -291.8965,-38.8457 z m 0.1368,75.0449 c 93.4541,-0.1129 184.55,4.5263 266.0566,34.2598 46.5683,16.988 89.847,41.9894 124.7949,74.8711 34.8583,32.7973 61.6808,74.0786 74.8281,118.6171 21.5299,72.9355 4.3227,158.4867 -43.7324,217.4258 -48.0552,58.9392 -128.3891,93.0212 -204.166,86.6192 a 37.503746,37.503746 0 0 0 -14.3633,1.3906 c -7.7479,0.055 -15.573,0.054 -23.1914,0.1719 l -475.2285,7.3671 -0.7871,-537.5722 255.6133,-2.8692 c 13.4257,-0.1507 26.8252,-0.2651 40.1758,-0.2812 z m 220.2402,608.1172 c 38.3647,0.2943 75.163,2.6001 109.3926,10.8652 45.5394,10.996 88.3261,32.9849 121.1836,64.3438 32.9135,31.4124 56.9767,73.0551 69.8086,117.8925 12.897,45.0656 15.197,94.1321 10.4961,143.2579 -4.0219,42.0283 -13.0213,82.8027 -29.3106,119.3281 -16.2156,36.3604 -40.268,69.105 -70.2363,93.7012 -29.9119,24.5498 -66.7665,41.6668 -105.7031,50.5996 -38.9875,8.9443 -81.7318,9.9853 -126.543,10.125 l -493.334,1.5371 -0.8848,-604.0371 476.2813,-7.3829 c 13.0992,-0.203 26.0614,-0.3285 38.8496,-0.2304 z"
       id="path4275-7-2-0"
       inkscape:connector-curvature="0" />
    <path
       style="fill:none;fill-rule:evenodd;stroke:#000000;stroke-width:200;stroke-linecap:round;stroke-linejoin:round;stroke-miterlimit:4;stroke-dasharray:none;stroke-opacity:1"
       d="m 2310.7411,-964.79514 0,1257.23981"
       id="path4271-6"
       inkscape:connector-curvature="0"
       sodipodi:nodetypes="cc" />
    <path
       style="fill:none;fill-rule:evenodd;stroke:#000000;stroke-width:200;stroke-linecap:round;stroke-linejoin:round;stroke-miterlimit:4;stroke-dasharray:none;stroke-opacity:1"
       inkscape:path-effect="#path-effect4211-43"
       inkscape:original-d="m 2685.9459,-624.21922 c -184.7142,7.90148 -370.0398,230.9336 -367.0858,415.79312 3.6235,226.759382 239.6146,500.05037 466.355,495.38827 197.0665,-4.05196 396.6073,-249.965543 387.2815,-446.85292 -10.607,-223.9345 -262.57,-473.90965 -486.5507,-464.32847 z"
       id="path4275-3-0-0"
       d="m 2685.9459,-624.21922 c -98.9012,14.02767 -191.0552,66.98474 -256.1287,142.77166 -65.0735,75.78692 -103.2377,173.42913 -110.9571,273.02146 -9.9811,128.771472 32.019,262.035525 118.9811,357.53058 86.9621,95.49506 218.8035,150.16076 347.3739,137.85769 107.391,-10.27639 208.8389,-66.24656 278.3344,-148.76207 69.4956,-82.515501 107.1933,-190.223496 108.9471,-298.09085 2.0706,-127.35505 -46.7588,-256.00723 -137.4402,-345.45262 -90.6815,-89.44538 -223.0008,-136.76265 -349.1105,-118.87585 z"
       inkscape:connector-curvature="0"
       sodipodi:nodetypes="aaaaa" />
    <path
       style="color:#000000;font-style:normal;font-variant:normal;font-weight:normal;font-stretch:normal;font-size:medium;line-height:normal;font-family:sans-serif;text-indent:0;text-align:start;text-decoration:none;text-decoration-line:none;text-decoration-style:solid;text-decoration-color:#000000;letter-spacing:normal;word-spacing:normal;text-transform:none;direction:ltr;block-progression:tb;writing-mode:lr-tb;baseline-shift:baseline;text-anchor:start;white-space:normal;clip-rule:nonzero;display:inline;overflow:visible;visibility:visible;opacity:1;isolation:auto;mix-blend-mode:normal;color-interpolation:sRGB;color-interpolation-filters:linearRGB;solid-color:#000000;solid-opacity:1;fill:#000000;fill-opacity:1;fill-rule:evenodd;stroke:none;stroke-width:200;stroke-linecap:round;stroke-linejoin:round;stroke-miterlimit:4;stroke-dasharray:none;stroke-dashoffset:0;stroke-opacity:1;color-rendering:auto;image-rendering:auto;shape-rendering:auto;text-rendering:auto;enable-background:accumulate"
       d="M 3463.5879 1801.9668 A 100.01 100.01 0 0 0 3365.0957 1903.3809 L 3365.0957 3160.6191 A 100.01 100.01 0 1 0 3565.0957 3160.6191 L 3565.0957 3130.0664 C 3669.8362 3219.9523 3808.275 3268.1588 3949.0938 3254.6836 C 4084.8137 3241.6963 4208.359 3172.9425 4294.3906 3070.793 C 4380.0283 2969.1112 4424.723 2839.9852 4426.8379 2709.9102 C 4429.3417 2555.9099 4371.6691 2402.144 4259.6348 2291.6367 C 4160.9756 2194.3223 4025.6767 2137.622 3886.1953 2140.1719 C 3866.2694 2140.5361 3846.2579 2142.1103 3826.2559 2144.9473 C 3728.4207 2158.8237 3638.2508 2201.776 3565.0957 2264.7266 L 3565.0957 1903.3809 A 100.01 100.01 0 0 0 3463.5879 1801.9668 z M 3893.2578 2340.334 C 3974.7177 2340.6009 4060.0904 2375.7356 4119.1855 2434.0254 C 4188.514 2502.4089 4228.5007 2605.9482 4226.8633 2706.6582 C 4225.4706 2792.3179 4194.7695 2878.6078 4141.416 2941.957 C 4088.4564 3004.8385 4009.1049 3048.0262 3930.043 3055.5918 C 3835.886 3064.6018 3732.0071 3022.2894 3666.1309 2949.9492 C 3599.5598 2876.846 3565.0141 2769.3988 3572.9141 2667.4766 C 3579.0602 2588.1819 3610.0338 2510.1132 3660.041 2451.873 C 3709.7157 2394.0201 3781.5355 2353.2914 3854.3418 2342.9648 C 3865.8672 2341.3301 3877.5781 2340.47 3889.3809 2340.3477 C 3890.6718 2340.3343 3891.9648 2340.3297 3893.2578 2340.334 z "
       transform="translate(0,-1000)"
       id="path4271-6-9" />
  </g>
</svg>
