<?xml version="1.0" encoding="UTF-8" standalone="no"?>
<!-- Created with Inkscape (http://www.inkscape.org/) -->

<svg
   xmlns:dc="http://purl.org/dc/elements/1.1/"
   xmlns:cc="http://creativecommons.org/ns#"
   xmlns:rdf="http://www.w3.org/1999/02/22-rdf-syntax-ns#"
   xmlns:svg="http://www.w3.org/2000/svg"
   xmlns="http://www.w3.org/2000/svg"
   xmlns:sodipodi="http://sodipodi.sourceforge.net/DTD/sodipodi-0.dtd"
   xmlns:inkscape="http://www.inkscape.org/namespaces/inkscape"
   width="2000"
   height="2000"
   id="svg2992"
   version="1.1"
   inkscape:version="0.91 r13725"
   sodipodi:docname="b.svg">
  <defs
     id="defs5498">
    <inkscape:path-effect
       effect="spiro"
       id="path-effect4211"
       is_visible="true" />
    <inkscape:path-effect
       effect="spiro"
       id="path-effect4473"
       is_visible="true" />
    <inkscape:path-effect
       effect="spiro"
       id="path-effect4277"
       is_visible="true" />
    <inkscape:path-effect
       effect="spiro"
       id="path-effect4273"
       is_visible="true" />
    <inkscape:path-effect
       effect="powerstroke"
       id="path-effect4176"
       is_visible="true"
       offset_points="0,89.748228 | 5.6321604,136.95347 | 12,55.592499"
       sort_points="true"
       interpolator_type="CubicBezierJohan"
       interpolator_beta="0.2"
       start_linecap_type="round"
       linejoin_type="round"
       miter_limit="4"
       end_linecap_type="round" />
    <inkscape:path-effect
       effect="spiro"
       id="path-effect4174"
       is_visible="true" />
    <inkscape:path-effect
       effect="powerstroke"
       id="path-effect4165"
       is_visible="true"
       offset_points="0.08006682,-138.82044 | 8.7788483,-102.82691 | 18,-106.24007"
       sort_points="true"
       interpolator_type="SpiroInterpolator"
       interpolator_beta="0.2"
       start_linecap_type="round"
       linejoin_type="round"
       miter_limit="4"
       end_linecap_type="round" />
    <inkscape:path-effect
       effect="interpolate"
       id="path-effect4163"
       is_visible="true"
       trajectory="M 0,0 0,0"
       equidistant_spacing="true"
       steps="5" />
    <inkscape:path-effect
       effect="powerstroke"
       id="path-effect4161"
       is_visible="true"
       offset_points="0,1 | 9,1 | 18,1"
       sort_points="true"
       interpolator_type="CubicBezierJohan"
       interpolator_beta="0.2"
       start_linecap_type="round"
       linejoin_type="round"
       miter_limit="4"
       end_linecap_type="round" />
    <inkscape:path-effect
       effect="spiro"
       id="path-effect2987"
       is_visible="true" />
    <inkscape:path-effect
       effect="spiro"
       id="path-effect4141-3-4-6"
       is_visible="true" />
    <inkscape:path-effect
       effect="spiro"
       id="path-effect4141-3-4-6-8"
       is_visible="true" />
    <inkscape:path-effect
       effect="spiro"
       id="path-effect4141-3-4-6-8-8"
       is_visible="true" />
    <inkscape:path-effect
       effect="spiro"
       id="path-effect4141-3-4-6-8-86"
       is_visible="true" />
    <inkscape:path-effect
       effect="spiro"
       id="path-effect4141-3-4-6-8-86-6"
       is_visible="true" />
    <inkscape:path-effect
       effect="spiro"
       id="path-effect4141-3-4-6-8-86-2"
       is_visible="true" />
    <inkscape:path-effect
       effect="spiro"
       id="path-effect4141-3-4-6-8-86-2-4"
       is_visible="true" />
    <inkscape:path-effect
       effect="spiro"
       id="path-effect4277-0"
       is_visible="true" />
    <inkscape:path-effect
       effect="spiro"
       id="path-effect4273-2"
       is_visible="true" />
    <inkscape:path-effect
       effect="spiro"
       id="path-effect4273-29"
       is_visible="true" />
    <inkscape:path-effect
       effect="spiro"
       id="path-effect4277-7"
       is_visible="true" />
    <inkscape:path-effect
       effect="spiro"
       id="path-effect4277-7-5"
       is_visible="true" />
    <inkscape:path-effect
       effect="spiro"
       id="path-effect4273-29-6"
       is_visible="true" />
    <inkscape:path-effect
       effect="spiro"
       id="path-effect4273-29-6-8"
       is_visible="true" />
    <inkscape:path-effect
       effect="spiro"
       id="path-effect4277-7-5-3"
       is_visible="true" />
    <inkscape:path-effect
       effect="spiro"
       id="path-effect4273-29-3"
       is_visible="true" />
    <inkscape:path-effect
       effect="spiro"
       id="path-effect4277-7-2"
       is_visible="true" />
    <inkscape:path-effect
       effect="spiro"
       id="path-effect4277-7-2-4"
       is_visible="true" />
    <inkscape:path-effect
       effect="spiro"
       id="path-effect4277-7-2-4-0"
       is_visible="true" />
    <inkscape:path-effect
       effect="spiro"
       id="path-effect4277-7-8"
       is_visible="true" />
    <inkscape:path-effect
       effect="spiro"
       id="path-effect4277-7-5-6"
       is_visible="true" />
    <inkscape:path-effect
       effect="spiro"
       id="path-effect4277-7-8-5"
       is_visible="true" />
    <inkscape:path-effect
       effect="spiro"
       id="path-effect4277-9"
       is_visible="true" />
    <inkscape:path-effect
       effect="spiro"
       id="path-effect4273-6"
       is_visible="true" />
    <inkscape:path-effect
       effect="spiro"
       id="path-effect4273-2-1"
       is_visible="true" />
    <inkscape:path-effect
       effect="spiro"
       id="path-effect4273-2-1-9"
       is_visible="true" />
    <inkscape:path-effect
       effect="spiro"
       id="path-effect4277-7-8-5-6"
       is_visible="true" />
    <inkscape:path-effect
       effect="spiro"
       id="path-effect4273-2-1-9-4"
       is_visible="true" />
    <inkscape:path-effect
       effect="spiro"
       id="path-effect4273-2-4"
       is_visible="true" />
    <inkscape:path-effect
       effect="spiro"
       id="path-effect4273-2-1-2"
       is_visible="true" />
    <inkscape:path-effect
       effect="spiro"
       id="path-effect4273-2-1-2-6"
       is_visible="true" />
    <inkscape:path-effect
       effect="spiro"
       id="path-effect4273-6-1"
       is_visible="true" />
    <inkscape:path-effect
       effect="spiro"
       id="path-effect4277-9-3"
       is_visible="true" />
    <inkscape:path-effect
       effect="spiro"
       id="path-effect4277-9-3-1"
       is_visible="true" />
    <inkscape:path-effect
       effect="spiro"
       id="path-effect4273-6-1-1"
       is_visible="true" />
    <inkscape:path-effect
       effect="spiro"
       id="path-effect4277-9-3-10"
       is_visible="true" />
    <inkscape:path-effect
       effect="spiro"
       id="path-effect4273-6-1-5"
       is_visible="true" />
    <inkscape:path-effect
       effect="spiro"
       id="path-effect4277-9-3-9"
       is_visible="true" />
    <inkscape:path-effect
       effect="spiro"
       id="path-effect4273-63"
       is_visible="true" />
    <inkscape:path-effect
       effect="spiro"
       id="path-effect4277-6"
       is_visible="true" />
    <inkscape:path-effect
       effect="spiro"
       id="path-effect4273-4"
       is_visible="true" />
    <inkscape:path-effect
       effect="spiro"
       id="path-effect4277-5"
       is_visible="true" />
    <inkscape:path-effect
       effect="spiro"
       id="path-effect4277-5-8"
       is_visible="true" />
    <inkscape:path-effect
       effect="spiro"
       id="path-effect4277-5-7"
       is_visible="true" />
    <inkscape:path-effect
       effect="spiro"
       id="path-effect4277-5-9"
       is_visible="true" />
    <inkscape:path-effect
       effect="spiro"
       id="path-effect4277-5-6"
       is_visible="true" />
    <inkscape:path-effect
       effect="spiro"
       id="path-effect4277-5-4"
       is_visible="true" />
    <inkscape:path-effect
       effect="spiro"
       id="path-effect4277-5-3"
       is_visible="true" />
    <inkscape:path-effect
       effect="spiro"
       id="path-effect4277-7-2-2"
       is_visible="true" />
    <inkscape:path-effect
       effect="spiro"
       id="path-effect4273-27"
       is_visible="true" />
    <inkscape:path-effect
       effect="spiro"
       id="path-effect4277-7-2-2-9"
       is_visible="true" />
    <inkscape:path-effect
       effect="spiro"
       id="path-effect4277-5-86"
       is_visible="true" />
    <inkscape:path-effect
       effect="spiro"
       id="path-effect4273-0"
       is_visible="true" />
    <inkscape:path-effect
       effect="spiro"
       id="path-effect4277-7-2-2-1"
       is_visible="true" />
    <inkscape:path-effect
       effect="spiro"
       id="path-effect4277-7-2-2-3"
       is_visible="true" />
    <inkscape:path-effect
       effect="spiro"
       id="path-effect4273-03"
       is_visible="true" />
    <inkscape:path-effect
       effect="spiro"
       id="path-effect4277-5-863"
       is_visible="true" />
    <inkscape:path-effect
       effect="spiro"
       id="path-effect4211-6"
       is_visible="true" />
  </defs>
  <sodipodi:namedview
     inkscape:window-height="844"
     inkscape:window-width="1600"
     inkscape:pageshadow="2"
     inkscape:pageopacity="0.0"
     borderopacity="1.0"
     bordercolor="#666666"
     pagecolor="#ffffff"
     id="base"
     showgrid="true"
     showguides="true"
     inkscape:guide-bbox="true"
     inkscape:zoom="0.5"
     inkscape:cx="1228.979"
     inkscape:cy="-291.04264"
     inkscape:window-x="0"
     inkscape:window-y="0"
     inkscape:current-layer="layer1"
     inkscape:window-maximized="1">
    <sodipodi:guide
       orientation="horizontal"
       position="800,600"
       id="guide5596" />
    <inkscape:grid
       type="xygrid"
       id="grid3769"
       empspacing="5"
       visible="true"
       enabled="true"
       snapvisiblegridlinesonly="true" />
    <sodipodi:guide
       orientation="0,1"
       position="720,1600"
       id="guide4772" />
    <sodipodi:guide
       orientation="0,1"
       position="2480,0"
       id="guide4210" />
    <sodipodi:guide
       orientation="0.0059522755,-0.99998229"
       position="1920,2000"
       id="guide4365" />
    <sodipodi:guide
       orientation="0,1"
       position="1440,0"
       id="guide4367" />
  </sodipodi:namedview>
  <metadata
     id="metadata5594">
    <rdf:RDF>
      <cc:Work
         rdf:about="">
        <dc:format>image/svg+xml</dc:format>
        <dc:type
           rdf:resource="http://purl.org/dc/dcmitype/StillImage" />
        <dc:title />
      </cc:Work>
    </rdf:RDF>
  </metadata>
  <g
     inkscape:label="Layer 1"
     inkscape:groupmode="layer"
     id="layer1"
     transform="translate(0,1000)">
    <path
       style="fill:none;fill-rule:evenodd;stroke:#000000;stroke-width:150;stroke-linecap:round;stroke-linejoin:round;stroke-miterlimit:4;stroke-dasharray:none;stroke-opacity:1"
       d="m 479.36018,-910 0,1257.23981"
       id="path4271"
       inkscape:connector-curvature="0"
       sodipodi:nodetypes="cc" />
    <path
       style="fill:none;fill-rule:evenodd;stroke:#000000;stroke-width:150;stroke-linecap:round;stroke-linejoin:round;stroke-miterlimit:4;stroke-dasharray:none;stroke-opacity:1"
       d="m 1972.3131,-316.54489 491.5521,-7.6266 c 50.1143,-0.77754 100.7679,-0.72236 149.5554,10.75912 48.7875,11.48148 95.1701,34.46453 131.9197,68.54554 36.7495,34.081 63.3381,78.59188 77.8699,126.55927 14.5318,47.96739 17.3484,98.969427 12.7237,148.8759 -3.9906,43.063609 -13.5454,85.88171 -31.4719,125.23956 -17.9265,39.35784 -44.4113,74.96698 -77.9503,102.27144 -33.539,27.30446 -73.7852,45.88323 -115.8634,55.87436 -42.0782,9.99112 -85.6541,11.39926 -128.8952,12.17925 l -509.5685,9.19167 -1.8157,-1228.9736 280.9857,-12.70205 c 104.0578,-4.70396 211.1078,-7.03654 308.9473,28.70661 48.9198,17.87158 94.7952,44.90835 132.0792,81.27376 37.2839,36.3654 65.7534,82.15516 79.4321,132.4088 22.2941,81.90513 2.7557,174.05584 -50.8579,239.86658 -53.6136,65.81074 -139.912,103.57449 -224.6329,98.29835"
       id="path4275-7"
       inkscape:path-effect="#path-effect4277-5"
       inkscape:original-d="m 1972.3131,-316.54489 491.5521,-7.6266 c 182.731,-2.83513 377.7339,183.4744 372.0687,354.73983 -5.0836,153.68434 -185.1019,292.51474 -354.1808,295.56461 l -509.5685,9.19167 -1.8157,-1228.9736 280.9857,-12.70205 c 185.1808,-8.37115 477.6373,55.86343 520.4586,242.38917 32.532,141.70617 -105.0943,310.25624 -275.4908,338.16493"
       inkscape:connector-curvature="0"
       sodipodi:nodetypes="csasccsac" />
    <path
       style="fill:none;fill-rule:evenodd;stroke:#000000;stroke-width:150;stroke-linecap:round;stroke-linejoin:round;stroke-miterlimit:4;stroke-dasharray:none;stroke-opacity:1"
       inkscape:path-effect="#path-effect4211"
       inkscape:original-d="M 854.56497,-545.42408 C 681.35303,-545.93437 491.8842,-350.78763 487.47921,-177.63096 481.57456,54.476252 722.12489,354.57058 953.83417,339.75735 1140.3361,327.83423 1289.2295,65.091055 1273.1157,-121.09561 1255.9853,-319.02891 1053.2373,-544.83878 854.56497,-545.42408 Z"
       id="path4275-3-0"
       d="m 854.56497,-545.42408 c -93.40097,5.63854 -182.6511,50.88351 -247.19828,118.62711 -64.54718,67.7436 -104.92495,156.79904 -119.88748,249.16601 -21.79717,134.558674 11.82562,279.59852 100.16997,383.4081 44.17218,51.90479 101.24682,93.00504 165.06586,116.9303 63.81904,23.92527 134.29196,30.44461 201.11913,17.04991 99.90383,-20.02452 188.66003,-84.59226 244.65343,-169.71861 55.9935,-85.126347 80.1135,-189.391188 74.6281,-291.13435 -5.9473,-110.31072 -47.1528,-219.96576 -122.5049,-300.74872 C 1075.2587,-502.6273 964.83514,-552.081 854.56497,-545.42408 Z"
       inkscape:connector-curvature="0"
       sodipodi:nodetypes="aaaaa" />
    <path
       style="color:#000000;font-style:normal;font-variant:normal;font-weight:normal;font-stretch:normal;font-size:medium;line-height:normal;font-family:sans-serif;text-indent:0;text-align:start;text-decoration:none;text-decoration-line:none;text-decoration-style:solid;text-decoration-color:#000000;letter-spacing:normal;word-spacing:normal;text-transform:none;direction:ltr;block-progression:tb;writing-mode:lr-tb;baseline-shift:baseline;text-anchor:start;white-space:normal;clip-rule:nonzero;display:inline;overflow:visible;visibility:visible;opacity:1;isolation:auto;mix-blend-mode:normal;color-interpolation:sRGB;color-interpolation-filters:linearRGB;solid-color:#000000;solid-opacity:1;fill:#000000;fill-opacity:1;fill-rule:evenodd;stroke:none;stroke-width:150;stroke-linecap:round;stroke-linejoin:round;stroke-miterlimit:4;stroke-dasharray:none;stroke-dashoffset:0;stroke-opacity:1;color-rendering:auto;image-rendering:auto;shape-rendering:auto;text-rendering:auto;enable-background:accumulate"
       d="m 2418.9551,1059.9355 c -27.6133,0.4054 -54.6893,1.5605 -81.0039,2.75 l -280.9844,12.7032 a 75.0075,75.0075 0 0 0 -71.6133,75.0332 l 1.8164,1228.9746 a 75.0075,75.0075 0 0 0 76.3516,74.8769 l 509.5683,-9.1914 c 43.9601,-0.7929 93.0083,-1.8832 144.8692,-14.1972 51.9528,-12.3358 102.4862,-35.3473 145.8887,-70.6817 43.3061,-35.256 76.448,-80.1586 98.8515,-129.3457 a 75.0075,75.0075 0 0 0 0,-0 c 22.2648,-48.8827 33.3144,-99.9385 37.8985,-149.4063 5.316,-57.3671 2.4042,-118.029 -15.625,-177.541 -18.1593,-59.941 -51.2512,-115.851 -98.6485,-159.8066 -16.3575,-15.1697 -34.0363,-28.3458 -52.5547,-39.8536 12.5778,-11.406 24.4579,-23.6828 35.3164,-37.0117 69.6315,-85.4726 94.0328,-200.5602 65.0782,-306.9355 -17.5727,-64.5596 -53.2812,-121.387 -99.4317,-166.4004 -45.9962,-44.8631 -101.0864,-76.9796 -158.7109,-98.0313 -86.542,-31.6159 -174.2266,-37.1497 -257.0664,-35.9336 z m 1.5957,150.2969 c 74.347,-0.714 143.7827,4.5304 204,26.5293 40.215,14.6916 76.8757,36.6518 105.4472,64.5195 28.4176,27.7174 49.647,62.4684 59.4317,98.4161 15.6334,57.4348 0.959,126.65 -36.6367,172.7988 -37.5959,46.1489 -102.4149,74.5123 -161.8242,70.8125 a 75.0075,75.0075 0 0 0 -20.6016,1.3418 c -5.8796,0.063 -11.9495,0.06 -17.6817,0.1484 l -416.5917,6.4649 -0.6348,-429.2696 209.2676,-9.4609 c 25.7142,-1.1624 51.0418,-2.0628 75.8242,-2.3008 z m 170.4687,584.3535 c 35.0267,0.2878 67.0264,2.3373 95.2051,8.9688 37.3807,8.7971 72.0955,26.4137 98.1016,50.5312 26.1017,24.2064 46.1854,57.3187 57.0898,93.3125 11.0343,36.4228 13.7556,77.7651 9.8223,120.211 -3.3972,36.6594 -11.4567,71.2391 -25.0449,101.0722 -13.4495,29.5286 -33.277,55.8424 -57.0489,75.1954 -23.6755,19.2744 -53.6343,33.4199 -85.8379,41.0664 -32.2955,7.6683 -70.3997,9.395 -112.9218,10.1621 l -433.3282,7.8164 -0.7402,-501.6465 418.6973,-6.4942 c 12.3189,-0.1911 24.3303,-0.2912 36.0058,-0.1953 z"
       id="path4275-7-5"
       inkscape:connector-curvature="0" />
    <path
       style="fill:none;fill-rule:evenodd;stroke:#000000;stroke-width:75;stroke-linecap:round;stroke-linejoin:round;stroke-miterlimit:4;stroke-dasharray:none;stroke-opacity:1"
       d="m -1334.4867,-316.05965 491.55204,-7.6266 c 50.11426,-0.77754 100.76787,-0.72236 149.55536,10.75912 48.7875,11.48148 95.17016,34.46453 131.91971,68.54554 36.74954,34.081 63.33818,78.59188 77.86998,126.55927 14.5318,47.96739 17.34836,98.969428 12.72365,148.875901 -3.9906,43.063607 -13.54545,85.881699 -31.47194,125.239549 -17.92649,39.35785 -44.41127,74.96698 -77.95029,102.27144 -33.53901,27.30446 -73.78518,45.88322 -115.8634,55.87435 -42.07822,9.99113 -85.65409,11.39927 -128.89517,12.17926 l -509.56844,9.1917 -1.8157,-1228.97362 280.9857,-12.70205 c 104.05775,-4.70396 211.10777,-7.03653 308.94728,28.70662 48.91976,17.87157 94.79521,44.90835 132.07916,81.27375 37.28395,36.36541 65.75338,82.15516 79.4321,132.4088 22.29406,81.90513 2.75573,174.05584 -50.85791,239.86658 -53.61364,65.81073 -139.91195,103.57449 -224.63289,98.29835"
       id="path4275-7-6"
       inkscape:path-effect="#path-effect4277-5-863"
       inkscape:original-d="m -1334.4867,-316.05965 491.55204,-7.6266 c 182.731,-2.83513 377.7339,183.4744 372.0687,354.739831 -5.0836,153.684299 -185.1019,292.514699 -354.1808,295.564599 l -509.56844,9.1917 -1.8157,-1228.97362 280.9857,-12.70205 c 185.18074,-8.37115 477.63724,55.86343 520.45854,242.38917 32.532,141.70617 -105.0943,310.25624 -275.4908,338.16493"
       inkscape:connector-curvature="0"
       sodipodi:nodetypes="csasccsac" />
    <path
       style="color:#000000;font-style:normal;font-variant:normal;font-weight:normal;font-stretch:normal;font-size:medium;line-height:normal;font-family:sans-serif;text-indent:0;text-align:start;text-decoration:none;text-decoration-line:none;text-decoration-style:solid;text-decoration-color:#000000;letter-spacing:normal;word-spacing:normal;text-transform:none;direction:ltr;block-progression:tb;writing-mode:lr-tb;baseline-shift:baseline;text-anchor:start;white-space:normal;clip-rule:nonzero;display:inline;overflow:visible;visibility:visible;opacity:1;isolation:auto;mix-blend-mode:normal;color-interpolation:sRGB;color-interpolation-filters:linearRGB;solid-color:#000000;solid-opacity:1;fill:#000000;fill-opacity:1;fill-rule:evenodd;stroke:none;stroke-width:150;stroke-linecap:round;stroke-linejoin:round;stroke-miterlimit:4;stroke-dasharray:none;stroke-dashoffset:0;stroke-opacity:1;color-rendering:auto;image-rendering:auto;shape-rendering:auto;text-rendering:auto;enable-background:accumulate"
       d="M 802.23047 1839.9395 A 75.0075 75.0075 0 0 0 728.35938 1916 L 728.35938 3173.2402 A 75.0075 75.0075 0 1 0 878.35938 3173.2402 L 878.35938 3106.416 C 926.55099 3155.4536 985.0728 3194.45 1050.3867 3218.9355 C 1127.0059 3247.6595 1211.1869 3255.61 1292.5742 3239.2969 C 1414.5462 3214.8491 1518.7268 3138.2361 1585.1484 3037.2559 C 1651.1592 2936.9003 1678.2778 2817.1647 1672.0078 2700.8691 C 1665.2018 2574.6305 1618.5959 2448.5655 1529.4551 2353 C 1445.2047 2262.6775 1325.713 2205.0656 1199.3926 2204.9609 L 1199.3926 2204.959 C 1190.9712 2204.949 1182.5186 2205.2013 1174.0449 2205.7129 C 1060.0616 2212.5939 955.10827 2266.2035 878.35938 2346.127 L 878.35938 1916 A 75.0075 75.0075 0 0 0 802.23047 1839.9395 z M 1199.0762 2355 C 1279.2903 2355.3831 1362.7308 2394.1669 1419.7656 2455.3125 C 1481.329 2521.3129 1517.136 2614.5585 1522.2246 2708.9414 C 1526.9254 2796.132 1505.8041 2884.9253 1459.8281 2954.8223 C 1414.2629 3024.0946 1340.9293 3076.6195 1263.0938 3092.2207 C 1210.8266 3102.697 1154.0618 3097.6071 1103.043 3078.4805 C 1051.8974 3059.3064 1004.9368 3025.673 968.76562 2983.1699 C 896.68045 2898.4658 867.02358 2774.5047 885.51367 2660.3613 C 898.28728 2581.5071 932.98782 2506.2263 985.66602 2450.9395 C 1037.9001 2396.1187 1110.9034 2359.7969 1183.084 2355.4395 C 1188.3941 2355.1189 1193.7286 2354.9745 1199.0762 2355 z "
       transform="translate(0,-1000)"
       id="path4271-8" />
  </g>
</svg>
