<?xml version="1.0" encoding="UTF-8" standalone="no"?>
<svg
   xmlns:dc="http://purl.org/dc/elements/1.1/"
   xmlns:cc="http://creativecommons.org/ns#"
   xmlns:rdf="http://www.w3.org/1999/02/22-rdf-syntax-ns#"
   xmlns:svg="http://www.w3.org/2000/svg"
   xmlns="http://www.w3.org/2000/svg"
   xmlns:sodipodi="http://sodipodi.sourceforge.net/DTD/sodipodi-0.dtd"
   xmlns:inkscape="http://www.inkscape.org/namespaces/inkscape"
   version="1.1"
   id="svg2992"
   height="2048"
   width="4000"
   inkscape:version="0.91 r13725"
   sodipodi:docname="e.svg">
  <sodipodi:namedview
     pagecolor="#ffffff"
     bordercolor="#666666"
     borderopacity="1"
     objecttolerance="10"
     gridtolerance="10"
     guidetolerance="10"
     inkscape:pageopacity="0"
     inkscape:pageshadow="2"
     inkscape:window-width="1600"
     inkscape:window-height="844"
     id="namedview33"
     showgrid="true"
     showguides="true"
     inkscape:guide-bbox="true"
     inkscape:snap-grids="false"
     inkscape:zoom="0.25"
     inkscape:cx="1273.46"
     inkscape:cy="979.07284"
     inkscape:window-x="0"
     inkscape:window-y="0"
     inkscape:window-maximized="1"
     inkscape:current-layer="layer1-6">
    <inkscape:grid
       type="xygrid"
       id="grid4162" />
    <sodipodi:guide
       orientation="0,1"
       position="400,600"
       id="guide4164"
       inkscape:label=""
       inkscape:color="rgb(0,0,255)" />
    <sodipodi:guide
       orientation="0,1"
       position="-880,1600"
       id="guide4166" />
  </sodipodi:namedview>
  <defs
     id="defs5498">
    <inkscape:path-effect
       effect="spiro"
       id="path-effect4277-7-2-4-0"
       is_visible="true" />
    <inkscape:path-effect
       effect="spiro"
       id="path-effect4277-7-2-4-0-7"
       is_visible="true" />
    <inkscape:path-effect
       effect="spiro"
       id="path-effect4277-7-2-4-0-8"
       is_visible="true" />
    <inkscape:path-effect
       effect="spiro"
       id="path-effect4277-7-2-4-0-2"
       is_visible="true" />
    <inkscape:path-effect
       effect="spiro"
       id="path-effect4277-7-2-4-0-5"
       is_visible="true" />
    <inkscape:path-effect
       effect="spiro"
       id="path-effect4277-7-2-4-0-76"
       is_visible="true" />
    <inkscape:path-effect
       effect="spiro"
       id="path-effect4277-7-2-4-0-24"
       is_visible="true" />
  </defs>
  <metadata
     id="metadata5594">
    <rdf:RDF>
      <cc:Work
         rdf:about="">
        <dc:format>image/svg+xml</dc:format>
        <dc:type
           rdf:resource="http://purl.org/dc/dcmitype/StillImage" />
        <dc:title />
      </cc:Work>
    </rdf:RDF>
  </metadata>
  <g
     transform="translate(5944.9542,1347.6942)"
     id="layer1">
    <g
       id="layer1-6"
       transform="translate(-14814.53,16.043327)">
      <path
         style="fill:none;fill-rule:evenodd;stroke:#000000;stroke-width:150;stroke-linecap:round;stroke-linejoin:round;stroke-miterlimit:4;stroke-dasharray:none;stroke-opacity:1"
         d="m 10993.06,-1210.0623 -937.186,-1.3504 3.025,1226.051113 934.159,-0.700751"
         id="path4139"
         inkscape:connector-curvature="0"
         sodipodi:nodetypes="cccc" />
      <path
         style="fill:none;fill-rule:evenodd;stroke:#000000;stroke-width:150;stroke-linecap:round;stroke-linejoin:round;stroke-miterlimit:4;stroke-dasharray:none;stroke-opacity:1"
         d="m 10141.012,-600.16571 769.095,4.85636"
         id="path4141"
         inkscape:connector-curvature="0"
         sodipodi:nodetypes="cc" />
      <path
         style="fill:none;fill-rule:evenodd;stroke:#000000;stroke-width:150;stroke-linecap:round;stroke-linejoin:round;stroke-miterlimit:4;stroke-dasharray:none;stroke-opacity:1"
         d="m 9020.6627,-429.45707 794.1597,-1.06839 c 10.354,-106.43221 -24.9421,-216.54237 -95.2429,-297.12042 -70.3008,-80.57805 -174.6076,-130.47946 -281.4608,-134.65358 -117.0102,-4.5709 -234.3013,45.72557 -314.3986,131.14633 -80.0973,85.42075 -122.5936,204.03238 -118.7319,321.06814 3.5818,108.55162 46.5627,215.6102 120.0727,295.56369 73.51,79.953502 177.1132,131.889963 285.2919,141.566823 140.0783,12.530359 284.689,-48.210615 373.8051,-157.009813"
         id="path4275-3-0-8-3"
         inkscape:path-effect="#path-effect4277-7-2-4-0"
         inkscape:original-d="m 9020.6627,-429.45707 794.1597,-1.06839 c 0,0 -185.7536,-427.33754 -376.7037,-431.774 -208.67,-4.84816 -431.4467,243.49498 -433.1305,452.21447 -1.6031,198.71264 211.1244,395.177998 405.3646,437.130513 132.1009,28.531506 373.8051,-157.009813 373.8051,-157.009813"
         inkscape:connector-curvature="0"
         sodipodi:nodetypes="ccaaac" />
      <path
         style="color:#000000;font-style:normal;font-variant:normal;font-weight:normal;font-stretch:normal;font-size:medium;line-height:normal;font-family:sans-serif;text-indent:0;text-align:start;text-decoration:none;text-decoration-line:none;text-decoration-style:solid;text-decoration-color:#000000;letter-spacing:normal;word-spacing:normal;text-transform:none;direction:ltr;block-progression:tb;writing-mode:lr-tb;baseline-shift:baseline;text-anchor:start;white-space:normal;clip-rule:nonzero;display:inline;overflow:visible;visibility:visible;opacity:1;isolation:auto;mix-blend-mode:normal;color-interpolation:sRGB;color-interpolation-filters:linearRGB;solid-color:#000000;solid-opacity:1;fill:#000000;fill-opacity:1;fill-rule:evenodd;stroke:none;stroke-width:150;stroke-linecap:round;stroke-linejoin:round;stroke-miterlimit:4;stroke-dasharray:none;stroke-dashoffset:0;stroke-opacity:1;color-rendering:auto;image-rendering:auto;shape-rendering:auto;text-rendering:auto;enable-background:accumulate"
         d="M 1200.9805 1621.9746 A 75.0075 75.0075 0 0 0 1125.873 1697.1602 L 1128.8984 2923.2109 A 75.0075 75.0075 0 0 0 1203.9531 2998.0254 L 2138.1133 2997.3262 A 75.0075 75.0075 0 1 0 2138 2847.3262 L 1278.7129 2847.9707 L 1277.5645 2382.7754 A 75.0075 75.0075 0 0 0 1285.5371 2383.2207 L 2054.6328 2388.0762 A 75.0075 75.0075 0 1 0 2055.5801 2238.0801 L 1286.4844 2233.2246 A 75.0075 75.0075 0 0 0 1277.1973 2233.6738 L 1276.0586 1772.084 L 2137.9512 1773.3262 A 75.0075 75.0075 0 1 0 2138.166 1623.3262 L 1200.9805 1621.9746 z "
         transform="translate(8869.5758,-1363.7375)"
         id="path4139-7" />
      <path
         style="color:#000000;font-style:normal;font-variant:normal;font-weight:normal;font-stretch:normal;font-size:medium;line-height:normal;font-family:sans-serif;text-indent:0;text-align:start;text-decoration:none;text-decoration-line:none;text-decoration-style:solid;text-decoration-color:#000000;letter-spacing:normal;word-spacing:normal;text-transform:none;direction:ltr;block-progression:tb;writing-mode:lr-tb;baseline-shift:baseline;text-anchor:start;white-space:normal;clip-rule:nonzero;display:inline;overflow:visible;visibility:visible;opacity:1;isolation:auto;mix-blend-mode:normal;color-interpolation:sRGB;color-interpolation-filters:linearRGB;solid-color:#000000;solid-opacity:1;fill:#000000;fill-opacity:1;fill-rule:evenodd;stroke:none;stroke-width:150;stroke-linecap:round;stroke-linejoin:round;stroke-miterlimit:4;stroke-dasharray:none;stroke-dashoffset:0;stroke-opacity:1;color-rendering:auto;image-rendering:auto;shape-rendering:auto;text-rendering:auto;enable-background:accumulate"
         d="m 7913.6602,-896.31836 c -131.0461,2.32471 -256.6651,60.04617 -345.7637,155.06641 -94.739,101.03556 -143.4953,238.01304 -138.9805,374.84375 4.1804,126.69232 53.5918,250.06472 139.8203,343.851559 86.3209,93.887266 206.1544,154.085851 333.8203,165.505861 166.0642,14.85484 332.8598,-55.205044 438.5079,-184.187501 a 75.0075,75.0075 0 1 0 -116.0411,-95.046879 c -72.5843,88.615908 -195.0091,140.0378741 -309.1015,129.832035 -88.6917,-7.933679 -176.0645,-51.607225 -236.7637,-117.626955 -47.7405,-51.92519 -80.4401,-119.05149 -93.7637,-189.26172 l 728.4141,-0.98047 a 75.0075,75.0075 0 0 0 74.5469,-67.73828 c 12.4271,-127.74272 -28.9982,-256.97759 -113.375,-353.68945 -84.3768,-96.7119 -206.8009,-155.27915 -335.0489,-160.28906 -8.7754,-0.34281 -17.535,-0.43428 -26.2714,-0.2793 z m 2.8222,150.00586 c 5.876,-0.12132 11.7449,-0.0704 17.5957,0.1582 85.4584,3.33837 171.6484,44.57341 227.8731,109.01758 41.4697,47.53211 68.1545,109.50865 76.0156,172.91602 l -650.666,0.875 c 14.1549,-65.54054 45.2361,-127.54908 90.0156,-175.30469 61.084,-65.14367 151.0266,-105.84236 239.166,-107.66211 z"
         id="path4275-3-0-8-3-4"
         inkscape:connector-curvature="0" />
    </g>
  </g>
</svg>
