<?xml version="1.0" encoding="UTF-8" standalone="no"?>
<svg
   xmlns:dc="http://purl.org/dc/elements/1.1/"
   xmlns:cc="http://creativecommons.org/ns#"
   xmlns:rdf="http://www.w3.org/1999/02/22-rdf-syntax-ns#"
   xmlns:svg="http://www.w3.org/2000/svg"
   xmlns="http://www.w3.org/2000/svg"
   xmlns:sodipodi="http://sodipodi.sourceforge.net/DTD/sodipodi-0.dtd"
   xmlns:inkscape="http://www.inkscape.org/namespaces/inkscape"
   version="1.1"
   id="svg2992"
   height="2048"
   width="4000"
   inkscape:version="0.91pre3 r13670"
   sodipodi:docname="g.svg">
  <sodipodi:namedview
     pagecolor="#ffffff"
     bordercolor="#666666"
     borderopacity="1"
     objecttolerance="10"
     gridtolerance="10"
     guidetolerance="10"
     inkscape:pageopacity="0"
     inkscape:pageshadow="2"
     inkscape:window-width="1600"
     inkscape:window-height="851"
     id="namedview33"
     showgrid="true"
     showguides="true"
     inkscape:guide-bbox="true"
     inkscape:snap-grids="false"
     inkscape:zoom="0.23122392"
     inkscape:cx="753.71755"
     inkscape:cy="713.64353"
     inkscape:window-x="-1"
     inkscape:window-y="-1"
     inkscape:window-maximized="1"
     inkscape:current-layer="layer1-6">
    <inkscape:grid
       type="xygrid"
       id="grid4162" />
    <sodipodi:guide
       orientation="0,1"
       position="400,600"
       id="guide4164"
       inkscape:label=""
       inkscape:color="rgb(0,0,255)" />
    <sodipodi:guide
       orientation="0,1"
       position="2581.9128,1600.1805"
       id="guide4166" />
  </sodipodi:namedview>
  <defs
     id="defs5498">
    <inkscape:path-effect
       effect="spiro"
       id="path-effect4155"
       is_visible="true" />
    <inkscape:path-effect
       effect="spiro"
       id="path-effect4277-7-8-5"
       is_visible="true" />
    <inkscape:path-effect
       effect="spiro"
       id="path-effect4277-7-5-6"
       is_visible="true" />
    <inkscape:path-effect
       effect="spiro"
       id="path-effect4277-7-8-5-5"
       is_visible="true" />
    <inkscape:path-effect
       effect="spiro"
       id="path-effect4277-7-5-6-9"
       is_visible="true" />
    <inkscape:path-effect
       effect="spiro"
       id="path-effect4277-7-2-4-6"
       is_visible="true" />
    <inkscape:path-effect
       effect="spiro"
       id="path-effect4155-2"
       is_visible="true" />
    <inkscape:path-effect
       effect="spiro"
       id="path-effect4155-8"
       is_visible="true" />
    <inkscape:path-effect
       effect="spiro"
       id="path-effect4277-7-2-2"
       is_visible="true" />
    <inkscape:path-effect
       effect="spiro"
       id="path-effect4277-7-8-5-3"
       is_visible="true" />
    <inkscape:path-effect
       effect="spiro"
       id="path-effect4277-7-2-2-2"
       is_visible="true" />
  </defs>
  <metadata
     id="metadata5594">
    <rdf:RDF>
      <cc:Work
         rdf:about="">
        <dc:format>image/svg+xml</dc:format>
        <dc:type
           rdf:resource="http://purl.org/dc/dcmitype/StillImage" />
        <dc:title />
      </cc:Work>
    </rdf:RDF>
  </metadata>
  <g
     transform="translate(5944.9542,1347.6942)"
     id="layer1">
    <g
       id="layer1-6"
       transform="translate(-14814.53,16.043327)">
      <path
         style="fill:none;fill-rule:evenodd;stroke:#000000;stroke-width:140;stroke-linecap:round;stroke-linejoin:round;stroke-miterlimit:4;stroke-dasharray:none;stroke-opacity:1"
         d="m 8903.5819,258.68576 c 38.4127,82.89889 102.1939,153.83344 180.5586,200.80926 78.3648,46.97581 170.9872,69.79751 262.2057,64.60614 115.3094,-6.56241 227.4261,-58.53883 306.9476,-142.29839 79.5214,-83.75957 125.6115,-198.42174 126.1831,-313.916305 l 7.103,-944.473075"
         id="path4275-3-1-9"
         inkscape:path-effect="#path-effect4277-7-8-5"
         inkscape:original-d="m 8903.5819,258.68576 c 0,0 272.2713,288.6885 442.7643,265.4154 207.7645,-28.3609 433.1307,-456.214695 433.1307,-456.214695 l 7.103,-944.473075"
         inkscape:connector-curvature="0"
         sodipodi:nodetypes="cacc" />
      <path
         style="fill:none;fill-rule:evenodd;stroke:#000000;stroke-width:150;stroke-linecap:round;stroke-linejoin:round;stroke-miterlimit:4;stroke-dasharray:none;stroke-opacity:1"
         d="m 10685.997,-591.50594 616.624,-7.86082 -4.027,158.65419 c -1.613,63.55174 -4.12,127.7517 -21.033,189.03282 -16.913,61.28112 -48.567,118.95949 -94.28,163.137544 -45.714,44.178052 -104.407,73.846402 -166.175,88.88724706 -61.767,15.04084494 -125.988,15.84290494 -189.56,15.82683094 l -195.696,-0.04948 c -102.818,-0.026 -208.147,-6.3407711 -302.091,-48.12568 -93.944,-41.784908 -172.017,-114.699222 -229.216,-200.137702 -75.464,-112.72085 -118.3289,-247.507 -118.7361,-383.15602 -0.4072,-135.64902 42.1111,-271.5666 122.2511,-381.01241 75.596,-103.24018 183.046,-181.47588 301.798,-229.13408 118.752,-47.6582 248.448,-65.4408 376.269,-59.5229 172.145,7.9701 342.139,58.868 490.339,146.8121"
         id="path4153"
         inkscape:connector-curvature="0"
         sodipodi:nodetypes="ccsssaaac"
         inkscape:path-effect="#path-effect4155"
         inkscape:original-d="m 10685.997,-591.50594 616.624,-7.86082 -4.027,158.65419 c -5.546,218.48534 -252.307,456.939749 -471.048,456.884442 l -195.696,-0.04948 c -163.359,-0.0413 -426.719,-83.112414 -531.307,-248.263382 -136.2845,-215.20133 -137.455,-552.00684 3.515,-764.16843 135.948,-204.60308 432.798,-274.96248 678.067,-288.65698 170.35,-9.5114 282.867,27.1693 490.339,146.8121" />
      <path
         style="color:#000000;font-style:normal;font-variant:normal;font-weight:normal;font-stretch:normal;font-size:medium;line-height:normal;font-family:sans-serif;text-indent:0;text-align:start;text-decoration:none;text-decoration-line:none;text-decoration-style:solid;text-decoration-color:#000000;letter-spacing:normal;word-spacing:normal;text-transform:none;direction:ltr;block-progression:tb;writing-mode:lr-tb;baseline-shift:baseline;text-anchor:start;white-space:normal;clip-rule:nonzero;display:inline;overflow:visible;visibility:visible;opacity:1;isolation:auto;mix-blend-mode:normal;color-interpolation:sRGB;color-interpolation-filters:linearRGB;solid-color:#000000;solid-opacity:1;fill:#000000;fill-opacity:1;fill-rule:evenodd;stroke:none;stroke-width:150;stroke-linecap:round;stroke-linejoin:round;stroke-miterlimit:4;stroke-dasharray:none;stroke-dashoffset:0;stroke-opacity:1;color-rendering:auto;image-rendering:auto;shape-rendering:auto;text-rendering:auto;enable-background:accumulate"
         d="m 10769.193,239.25586 c -120.477,0.0801 -242.137,20.26879 -356.136,66.01953 -130.57,52.40077 -249.436,138.42961 -334.375,254.42969 -90.156,123.12397 -137.1951,274.07378 -136.7406,425.54492 0.454,151.2997 47.8782,299.8766 131.4136,424.6543 63.777,95.2634 151.611,178.2607 261.059,226.9414 110.4,49.1042 226.677,54.5728 332.553,54.5996 l 195.695,0.049 c 64.216,0.016 134.541,-0.2319 207.324,-17.955 73.184,-17.8209 143.833,-53.0158 200.549,-107.8262 a 75.0075,75.0075 0 0 0 0,-0 c 56.729,-54.8241 94.37,-124.334 114.457,-197.1152 19.981,-72.3983 22.083,-142.8405 23.713,-207.082 l 4.027,-158.6543 a 75.0075,75.0075 0 0 0 -75.931,-76.89651 l -616.625,7.85938 a 75.0075,75.0075 0 1 0 1.912,149.98823 l 538.715,-6.8671 -2.049,80.7636 c -1.596,62.8621 -4.511,120.8186 -18.356,170.9825 -13.739,49.7812 -39.404,95.6281 -74.101,129.1601 -34.712,33.5458 -81.448,57.6865 -131.799,69.9473 -50.752,12.3584 -108.87,13.7133 -171.799,13.6972 l -195.695,-0.049 c -99.76,-0.025 -194.143,-7.1887 -271.631,-41.6543 -78.44,-34.8891 -146.752,-97.7205 -197.373,-173.334 -67.392,-100.6637 -105.699,-221.658 -106.059,-341.65622 -0.359,-119.8268 37.64,-240.71102 107.764,-336.47851 66.253,-90.48023 162.286,-160.92422 269.221,-203.83985 107.219,-43.02984 226.319,-59.69553 344.865,-54.20703 159.688,7.39328 318.058,54.81057 455.533,136.39063 a 75.0075,75.0075 0 1 0 76.549,-128.9961 c -158.924,-94.30822 -340.542,-148.68562 -525.144,-157.23242 -17.137,-0.79342 -34.325,-1.19309 -51.536,-1.18164 z"
         id="path4153-6"
         inkscape:connector-curvature="0" />
      <path
         style="fill:none;fill-rule:evenodd;stroke:#000000;stroke-width:150;stroke-linecap:round;stroke-linejoin:round;stroke-miterlimit:4;stroke-dasharray:none;stroke-opacity:1"
         d="m 9335.3609,-872.07445 c -116.3743,1.50168 -231.0045,52.92134 -310.5869,137.84409 -79.5825,84.92276 -123.3841,202.02104 -120.5441,318.37041 2.6535,108.70701 45.7767,216.18035 119.9585,295.68704 74.1818,79.506693 178.9166,130.0818665 287.4065,137.443517 120.7971,8.196763 243.9677,-37.828486 330.8653,-122.136977 86.8977,-84.30848 136.5293,-205.34464 135.3834,-326.41411 -1.0948,-115.67092 -48.337,-230.51879 -129.9572,-312.48894 -81.6202,-81.97014 -196.859,-129.79758 -312.5255,-128.30503 z"
         id="path4275-3-0"
         inkscape:path-effect="#path-effect4277-7-2-2"
         inkscape:original-d="m 9335.3609,-872.07445 c -209.2091,3.1564 -430.8815,246.9818 -431.131,456.2145 -0.2364,198.19965 209.2271,428.177157 407.365,433.130557 215.5933,5.3898 464.3691,-232.898507 466.2487,-448.551087 1.8145,-208.18277 -234.3157,-443.93467 -442.4827,-440.79397 z"
         inkscape:connector-curvature="0"
         sodipodi:nodetypes="aaaaa" />
      <path
         style="color:#000000;font-style:normal;font-variant:normal;font-weight:normal;font-stretch:normal;font-size:medium;line-height:normal;font-family:sans-serif;text-indent:0;text-align:start;text-decoration:none;text-decoration-line:none;text-decoration-style:solid;text-decoration-color:#000000;letter-spacing:normal;word-spacing:normal;text-transform:none;direction:ltr;block-progression:tb;writing-mode:lr-tb;baseline-shift:baseline;text-anchor:start;white-space:normal;clip-rule:nonzero;display:inline;overflow:visible;visibility:visible;opacity:1;isolation:auto;mix-blend-mode:normal;color-interpolation:sRGB;color-interpolation-filters:linearRGB;solid-color:#000000;solid-opacity:1;fill:#000000;fill-opacity:1;fill-rule:evenodd;stroke:none;stroke-width:140;stroke-linecap:round;stroke-linejoin:round;stroke-miterlimit:4;stroke-dasharray:none;stroke-dashoffset:0;stroke-opacity:1;color-rendering:auto;image-rendering:auto;shape-rendering:auto;text-rendering:auto;enable-background:accumulate"
         d="M -434.72461 411.13086 A 70.007 70.007 0 0 0 -504.20117 481.59961 L -504.92383 577.57031 C -509.75152 572.29317 -514.68934 567.1058 -519.75 562.02344 C -615.9832 465.37767 -749.41193 409.87697 -886.39062 411.64453 C -1024.2163 413.42302 -1156.9095 473.07624 -1250.7344 573.19727 C -1344.4499 673.20142 -1394.8602 808.3005 -1391.5312 944.68359 C -1388.4235 1072.0019 -1338.7216 1196.1492 -1251.4316 1289.7051 C -1164.051 1383.3579 -1042.6512 1442.0989 -914.26562 1450.8105 C -771.11293 1460.5243 -628.62556 1407.1488 -526.09766 1307.6758 C -520.70066 1302.4396 -515.43635 1297.0849 -510.29297 1291.6309 L -511.30469 1426.0723 A 70.007 70.007 0 0 0 -511.30469 1426.252 C -511.78529 1523.3534 -551.39681 1621.898 -618.25391 1692.3184 C -685.11121 1762.7388 -781.46836 1807.4104 -878.41406 1812.9277 C -955.32996 1817.3051 -1034.5746 1797.7782 -1100.6523 1758.168 C -1166.7298 1718.5577 -1221.2978 1657.8695 -1253.6875 1587.9688 A 70.007 70.007 0 1 0 -1380.7148 1646.8281 C -1336.2791 1742.7252 -1263.2847 1823.9047 -1172.6328 1878.2461 C -1081.9809 1932.5875 -975.98008 1958.7065 -870.45898 1952.7012 C -736.78588 1945.0937 -608.91031 1885.8116 -516.72461 1788.7129 C -424.54531 1691.6208 -371.97624 1560.8508 -371.30664 1426.9727 L -364.20508 482.65234 A 70.007 70.007 0 0 0 -434.72461 411.13086 z M -880.0293 561.60547 C -787.07421 561.67618 -692.00318 601.62026 -626.04297 667.86328 C -558.92767 735.26634 -518.84155 832.42007 -517.93555 928.14258 C -516.98805 1028.2446 -559.15543 1130.7514 -630.54883 1200.0176 C -701.81623 1269.1616 -805.66973 1307.8361 -904.11133 1301.1562 C -992.70543 1295.1446 -1080.7748 1252.7355 -1141.7578 1187.375 C -1202.8314 1121.9174 -1239.377 1031.1191 -1241.5762 941.02344 C -1243.9272 844.70778 -1206.7327 745.60895 -1141.2832 675.76758 C -1075.9434 606.04311 -979.37788 562.85768 -884.45508 561.63281 C -882.98079 561.61379 -881.50477 561.60435 -880.0293 561.60547 z "
         transform="translate(8869.5758,-1363.7375)"
         id="path4275-3-1-9-0" />
    </g>
  </g>
</svg>
