<?xml version="1.0" encoding="UTF-8" standalone="no"?>
<svg
   xmlns:dc="http://purl.org/dc/elements/1.1/"
   xmlns:cc="http://creativecommons.org/ns#"
   xmlns:rdf="http://www.w3.org/1999/02/22-rdf-syntax-ns#"
   xmlns:svg="http://www.w3.org/2000/svg"
   xmlns="http://www.w3.org/2000/svg"
   xmlns:sodipodi="http://sodipodi.sourceforge.net/DTD/sodipodi-0.dtd"
   xmlns:inkscape="http://www.inkscape.org/namespaces/inkscape"
   version="1.1"
   id="svg2992"
   height="2048"
   width="4000"
   inkscape:version="0.91 r13725"
   sodipodi:docname="g.svg">
  <sodipodi:namedview
     pagecolor="#ffffff"
     bordercolor="#666666"
     borderopacity="1"
     objecttolerance="10"
     gridtolerance="10"
     guidetolerance="10"
     inkscape:pageopacity="0"
     inkscape:pageshadow="2"
     inkscape:window-width="1366"
     inkscape:window-height="704"
     id="namedview33"
     showgrid="true"
     showguides="true"
     inkscape:guide-bbox="true"
     inkscape:snap-grids="false"
     inkscape:zoom="0.25000001"
     inkscape:cx="357.53961"
     inkscape:cy="-587.66716"
     inkscape:window-x="-4"
     inkscape:window-y="0"
     inkscape:window-maximized="1"
     inkscape:current-layer="layer1-6">
    <inkscape:grid
       type="xygrid"
       id="grid4162" />
    <sodipodi:guide
       orientation="0,1"
       position="-307.99999,563.99998"
       id="guide4164"
       inkscape:label=""
       inkscape:color="rgb(0,0,255)" />
    <sodipodi:guide
       orientation="0,1"
       position="2581.9128,1600.1805"
       id="guide4166" />
    <sodipodi:guide
       position="4183.2436,1999.6979"
       orientation="0,1"
       id="guide4176" />
  </sodipodi:namedview>
  <defs
     id="defs5498">
    <inkscape:path-effect
       effect="spiro"
       id="path-effect4174"
       is_visible="true" />
    <inkscape:path-effect
       effect="spiro"
       id="path-effect4155"
       is_visible="true" />
    <inkscape:path-effect
       effect="spiro"
       id="path-effect4277-7-8-5"
       is_visible="true" />
    <inkscape:path-effect
       effect="spiro"
       id="path-effect4277-7-5-6"
       is_visible="true" />
    <inkscape:path-effect
       effect="spiro"
       id="path-effect4277-7-8-5-5"
       is_visible="true" />
    <inkscape:path-effect
       effect="spiro"
       id="path-effect4277-7-5-6-9"
       is_visible="true" />
    <inkscape:path-effect
       effect="spiro"
       id="path-effect4277-7-2-4-6"
       is_visible="true" />
    <inkscape:path-effect
       effect="spiro"
       id="path-effect4155-2"
       is_visible="true" />
    <inkscape:path-effect
       effect="spiro"
       id="path-effect4155-8"
       is_visible="true" />
    <inkscape:path-effect
       effect="spiro"
       id="path-effect4277-7-2-2"
       is_visible="true" />
    <inkscape:path-effect
       effect="spiro"
       id="path-effect4277-7-8-5-3"
       is_visible="true" />
    <inkscape:path-effect
       effect="spiro"
       id="path-effect4277-7-2-2-2"
       is_visible="true" />
    <inkscape:path-effect
       effect="spiro"
       id="path-effect4155-0"
       is_visible="true" />
    <inkscape:path-effect
       effect="spiro"
       id="path-effect4277-7-8-5-2"
       is_visible="true" />
    <inkscape:path-effect
       effect="spiro"
       id="path-effect4277-7-2-2-3"
       is_visible="true" />
    <inkscape:path-effect
       effect="spiro"
       id="path-effect4277-7-8-5-6"
       is_visible="true" />
    <inkscape:path-effect
       effect="spiro"
       id="path-effect4277-7-2-2-4"
       is_visible="true" />
    <inkscape:path-effect
       effect="spiro"
       id="path-effect4174-5"
       is_visible="true" />
    <inkscape:path-effect
       effect="spiro"
       id="path-effect4174-8"
       is_visible="true" />
    <inkscape:path-effect
       effect="spiro"
       id="path-effect4174-8-9"
       is_visible="true" />
    <inkscape:path-effect
       effect="spiro"
       id="path-effect4174-8-95"
       is_visible="true" />
    <inkscape:path-effect
       effect="spiro"
       id="path-effect4277-7-8-5-31"
       is_visible="true" />
    <inkscape:path-effect
       effect="spiro"
       id="path-effect4277-7-2-2-0"
       is_visible="true" />
    <inkscape:path-effect
       effect="spiro"
       id="path-effect4277-7-8-5-31-4"
       is_visible="true" />
    <inkscape:path-effect
       effect="spiro"
       id="path-effect4277-7-2-2-0-6"
       is_visible="true" />
  </defs>
  <metadata
     id="metadata5594">
    <rdf:RDF>
      <cc:Work
         rdf:about="">
        <dc:format>image/svg+xml</dc:format>
        <dc:type
           rdf:resource="http://purl.org/dc/dcmitype/StillImage" />
        <dc:title />
      </cc:Work>
    </rdf:RDF>
  </metadata>
  <g
     transform="translate(5944.9542,1347.6942)"
     id="layer1">
    <g
       id="layer1-6"
       transform="translate(-14814.53,16.043327)">
      <path
         style="fill:none;fill-rule:evenodd;stroke:#000000;stroke-width:150;stroke-linecap:round;stroke-linejoin:round;stroke-miterlimit:4;stroke-dasharray:none;stroke-opacity:1"
         d="m 8960.1504,359.53857 c 86.558,109.14679 224.9524,175.23526 364.2493,173.94255 117.9283,-1.09441 234.7437,-49.70142 318.639,-132.586 83.8953,-82.88457 133.9146,-199.10231 136.4382,-317.008655 l 7.103,-944.473075"
         id="path4275-3-1-9"
         inkscape:path-effect="#path-effect4277-7-8-5"
         inkscape:original-d="m 8960.1504,359.53857 c 0,0 231.5691,196.29628 364.2493,173.94255 210.2737,-35.42655 408.1621,-208.32957 455.0772,-449.594655 l 7.103,-944.473075"
         inkscape:connector-curvature="0"
         sodipodi:nodetypes="cacc" />
      <path
         style="fill:none;fill-rule:evenodd;stroke:#000000;stroke-width:150;stroke-linecap:round;stroke-linejoin:round;stroke-miterlimit:4;stroke-dasharray:none;stroke-opacity:1"
         d="m 9387.3609,-858.07445 c -117.3,-5.96925 -234.933,46.11749 -314.0688,132.90722 -79.1357,86.78974 -119.9485,205.89094 -117.0622,323.30728 2.6932,109.56187 43.2148,218.76826 116.931,299.86681 73.7162,81.098555 180.843,132.326355 290.434,133.263747 113.2788,0.968936 224.7021,-51.96006 300.0733,-136.530777 75.3711,-84.57073 114.938,-198.73998 114.1754,-312.02031 -0.7284,-108.18707 -38.0899,-216.70207 -108.4463,-298.8906 -70.3563,-82.18853 -173.9867,-136.40486 -282.0364,-141.90337 z"
         id="path4275-3-0"
         inkscape:path-effect="#path-effect4277-7-2-2"
         inkscape:original-d="m 9387.3609,-858.07445 c -209.2058,-3.36732 -430.8815,246.98176 -431.131,456.2145 -0.2364,198.19962 209.1673,434.031425 407.365,433.130557 203.5224,-0.92507 412.1409,-245.037487 414.2487,-448.551087 2.0329,-196.28179 -194.2158,-437.63491 -390.4827,-440.79397 z"
         inkscape:connector-curvature="0"
         sodipodi:nodetypes="aaaaa" />
      <path
         style="color:#000000;font-style:normal;font-variant:normal;font-weight:normal;font-stretch:normal;font-size:medium;line-height:normal;font-family:sans-serif;text-indent:0;text-align:start;text-decoration:none;text-decoration-line:none;text-decoration-style:solid;text-decoration-color:#000000;letter-spacing:normal;word-spacing:normal;text-transform:none;direction:ltr;block-progression:tb;writing-mode:lr-tb;baseline-shift:baseline;text-anchor:start;white-space:normal;clip-rule:nonzero;display:inline;overflow:visible;visibility:visible;opacity:1;isolation:auto;mix-blend-mode:normal;color-interpolation:sRGB;color-interpolation-filters:linearRGB;solid-color:#000000;solid-opacity:1;fill:#000000;fill-opacity:1;fill-rule:evenodd;stroke:none;stroke-width:150;stroke-linecap:round;stroke-linejoin:round;stroke-miterlimit:4;stroke-dasharray:none;stroke-dashoffset:0;stroke-opacity:1;color-rendering:auto;image-rendering:auto;shape-rendering:auto;text-rendering:auto;enable-background:accumulate"
         d="M 862.68164 2187.4258 A 75.0075 75.0075 0 0 0 788.24219 2262.9277 L 787.64648 2342 C 705.06644 2254.2373 590.62269 2197.3483 467.83203 2191.0996 C 458.95963 2190.6481 450.1061 2190.4649 441.2793 2190.543 C 308.8764 2191.7145 182.65805 2251.7267 94.53125 2348.377 C 1.02865 2450.9233 -45.431691 2588.0348 -42.087891 2724.0605 C -38.970591 2850.8742 7.2667656 2976.7573 94.322266 3072.5312 C 181.79087 3168.7593 307.07068 3229.212 439.61328 3230.3457 C 569.56187 3231.4572 693.32963 3175.3932 782.06641 3084.0234 L 781.14453 3206.5566 C 778.99913 3304.2558 736.50438 3402.9404 666.98828 3471.6191 C 597.42538 3540.3439 498.14508 3581.6551 400.36328 3582.5625 C 285.24638 3583.6308 167.10682 3527.2141 95.574219 3437.0137 A 75.0075 75.0075 0 1 0 -21.953125 3530.2188 C 79.630075 3658.312 238.27896 3734.0737 401.75586 3732.5566 C 539.83066 3731.2752 674.18246 3675.3705 772.41016 3578.3262 C 870.63786 3481.2819 928.16444 3347.6195 931.11914 3209.5703 A 75.0075 75.0075 0 0 0 931.13477 3208.5293 L 938.23828 2264.0547 A 75.0075 75.0075 0 0 0 862.68164 2187.4258 z M 447.15234 2340.5547 C 451.51388 2340.569 455.86633 2340.6853 460.20898 2340.9062 C 545.69808 2345.2567 631.78963 2389.752 689.08203 2456.6797 C 746.75993 2524.0576 778.89156 2616.0439 779.50586 2707.3027 C 780.14866 2802.7808 746.07659 2899.6436 684.33789 2968.918 C 623.05279 3037.6833 530.39488 3081.1171 440.89648 3080.3516 C 354.25728 3079.6105 265.28431 3037.6077 205.32031 2971.6387 C 144.94351 2905.2153 110.13629 2812.6851 107.86719 2720.375 C 105.43829 2621.5681 140.60425 2520.4767 205.37305 2449.4434 C 265.62595 2383.3629 355.45881 2341.6461 442.78711 2340.5742 C 444.24258 2340.5563 445.6985 2340.5499 447.15234 2340.5547 z "
         transform="translate(8869.5758,-1363.7375)"
         id="path4275-3-1-9-8" />
      <path
         style="fill:none;fill-rule:evenodd;stroke:#000000;stroke-width:75;stroke-linecap:round;stroke-linejoin:round;stroke-miterlimit:4;stroke-dasharray:none;stroke-opacity:1"
         d="m 7926.7277,380.72091 c 94.2516,118.33579 244.5607,189.92137 395.8378,188.51999 125.0134,-1.15808 248.9319,-51.26077 339.6201,-137.31513 90.6882,-86.05436 147.2153,-207.17719 154.9225,-331.9582 l 7.7189,-981.6254"
         id="path4275-3-1-9-0"
         inkscape:path-effect="#path-effect4277-7-8-5-31"
         inkscape:original-d="m 7926.7277,380.72091 c 0,0 251.4976,211.42226 395.8378,188.51999 224.4439,-35.61223 443.5588,-207.78882 494.5426,-469.27333 l 7.7189,-981.6254"
         inkscape:connector-curvature="0"
         sodipodi:nodetypes="cacc" />
      <path
         style="fill:none;fill-rule:evenodd;stroke:#000000;stroke-width:75;stroke-linecap:round;stroke-linejoin:round;stroke-miterlimit:4;stroke-dasharray:none;stroke-opacity:1"
         d="m 8390.9868,-878.93509 c -127.2915,-6.47308 -254.9973,49.79411 -341.0563,143.80941 -86.059,94.0153 -130.6039,223.22124 -127.4633,350.63853 2.9304,118.89183 47.1369,237.34987 127.299,325.201446 80.1621,87.851572 196.47,143.212306 315.3936,144.227941 122.9237,1.049797 243.8937,-56.142139 325.8597,-147.755007 81.966,-91.61287 125.1465,-215.46184 124.3136,-338.38724 -0.7954,-117.39149 -41.5654,-235.09727 -118.0774,-324.13267 -76.5121,-89.03539 -189.0262,-147.64034 -306.2689,-153.60241 z"
         id="path4275-3-0-1"
         inkscape:path-effect="#path-effect4277-7-2-2-0"
         inkscape:original-d="m 8390.9868,-878.93509 c -227.3486,-3.64949 -468.2485,267.68034 -468.5196,494.44794 -0.2569,214.80989 227.3068,470.405755 442.6926,469.429387 221.1723,-1.002596 447.8827,-265.573037 450.1733,-486.142247 2.2093,-212.73131 -211.0587,-474.31123 -424.3463,-477.73508 z"
         inkscape:connector-curvature="0"
         sodipodi:nodetypes="aaaaa" />
      <path
         style="color:#000000;font-style:normal;font-variant:normal;font-weight:normal;font-stretch:normal;font-size:medium;line-height:normal;font-family:sans-serif;text-indent:0;text-align:start;text-decoration:none;text-decoration-line:none;text-decoration-style:solid;text-decoration-color:#000000;letter-spacing:normal;word-spacing:normal;text-transform:none;direction:ltr;block-progression:tb;writing-mode:lr-tb;baseline-shift:baseline;text-anchor:start;white-space:normal;clip-rule:nonzero;display:inline;overflow:visible;visibility:visible;opacity:1;isolation:auto;mix-blend-mode:normal;color-interpolation:sRGB;color-interpolation-filters:linearRGB;solid-color:#000000;solid-opacity:1;fill:#000000;fill-opacity:1;fill-rule:evenodd;stroke:none;stroke-width:75;stroke-linecap:round;stroke-linejoin:round;stroke-miterlimit:4;stroke-dasharray:none;stroke-dashoffset:0;stroke-opacity:1;color-rendering:auto;image-rendering:auto;shape-rendering:auto;text-rendering:auto;enable-background:accumulate"
         d="M -581.01172 2136.7754 A 37.50375 37.50375 0 0 0 -618.24414 2174.5137 L -619.96484 2393.3672 C -636.84112 2362.6157 -656.83128 2333.5111 -679.87695 2306.6934 C -762.93165 2210.0445 -884.20604 2146.6134 -1012.6816 2140.0801 C -1021.4047 2139.6365 -1030.1194 2139.458 -1038.8164 2139.5391 C -1169.2727 2140.7546 -1295.6435 2200.2562 -1383.3027 2296.0195 C -1476.5641 2397.9032 -1523.9649 2536.1287 -1520.5938 2672.9023 C -1517.4496 2800.4678 -1470.3562 2927.2776 -1383.5078 3022.457 C -1296.4595 3117.8553 -1171.0858 3177.793 -1040.7344 3178.9062 C -905.97027 3180.0572 -775.62742 3118.1553 -686.60742 3018.6582 C -662.6611 2991.8936 -641.83626 2962.7055 -624.19922 2931.7676 L -625.95312 3154.7891 C -633.21912 3269.5677 -685.77422 3382.027 -769.19922 3461.1895 C -852.78652 3540.5057 -968.13067 3587.1416 -1083.3555 3588.209 C -1222.5738 3589.4987 -1362.7732 3522.7271 -1449.5117 3413.8242 A 37.50375 37.50375 0 1 0 -1508.1777 3460.5508 C -1406.413 3588.3195 -1245.9961 3664.7182 -1082.6602 3663.2051 C -947.85806 3661.9563 -815.36342 3608.3862 -717.57422 3515.5938 C -619.78522 3422.8013 -559.34781 3293.2976 -551.03711 3158.7461 A 37.50375 37.50375 0 0 0 -550.9668 3156.7285 L -543.24805 2175.1035 A 37.50375 37.50375 0 0 0 -581.01172 2136.7754 z M -1032.6777 2214.5371 C -1027.2784 2214.5608 -1021.8815 2214.7083 -1016.4902 2214.9824 C -910.48033 2220.3733 -806.72741 2274.1523 -736.75781 2355.5742 C -666.60191 2437.2132 -628.47598 2546.6401 -627.73828 2655.5195 C -626.96608 2769.4931 -667.3684 2884.6743 -742.5 2968.6484 C -817.4121 3052.3771 -929.01045 3104.8589 -1040.0938 3103.9102 C -1147.5895 3102.9922 -1254.8297 3052.209 -1328.1055 2971.9043 C -1401.5811 2891.3805 -1442.9006 2781.2728 -1445.6172 2671.0547 C -1448.5272 2552.9937 -1406.839 2432.8072 -1327.9824 2346.6602 C -1254.281 2266.1448 -1146.0824 2215.7238 -1038.0781 2214.5547 C -1036.278 2214.5352 -1034.4775 2214.5292 -1032.6777 2214.5371 z "
         transform="translate(8869.5758,-1363.7375)"
         id="path4275-3-1-9-0-6" />
    </g>
    <path
       style="fill:none;fill-rule:evenodd;stroke:#000000;stroke-width:150;stroke-linecap:round;stroke-linejoin:round;stroke-miterlimit:4;stroke-dasharray:none;stroke-opacity:1"
       d="m -3709.5319,-1075.1517 c -105.5278,-74.1348 -230.3117,-120.606 -358.6252,-133.557 -146.0665,-14.7429 -298.1929,15.0665 -421.8186,94.2464 -162.6452,104.1711 -266.0223,290.10046 -283.6521,482.43939 -9.7572,106.44932 5.264,215.54274 46.9883,313.9589 41.7243,98.41617 110.4608,185.77543 198.5067,246.393732 83.3684,57.397921 182.3969,90.039995 282.9567,101.552618 100.5598,11.512623 202.7427,2.463005 301.7582,-18.530761 72.5362,-15.3794862 143.7164,-37.148905 212.4464,-64.973629 l -3.898,-501.74075 -403.4534,0"
       id="path4172"
       inkscape:path-effect="#path-effect4174"
       inkscape:original-d="m -3709.5319,-1075.1517 c 0,0 -230.1195,-124.8774 -358.6252,-133.557 -144.2579,-9.7434 -307.0665,12.7107 -421.8186,94.2464 -156.8742,111.465 -272.4694,299.62979 -283.6521,482.43939 -12.3105,201.24719 74.7088,435.37474 245.495,560.352632 154.7065,113.211004 388.2178,98.236666 584.7149,83.021857 74.3185,-5.7544965 212.4464,-64.973629 212.4464,-64.973629 l -3.898,-501.74075 -403.4534,0"
       inkscape:connector-curvature="0"
       sodipodi:nodetypes="caaaaaccc" />
    <path
       style="color:#000000;font-style:normal;font-variant:normal;font-weight:normal;font-stretch:normal;font-size:medium;line-height:normal;font-family:sans-serif;text-indent:0;text-align:start;text-decoration:none;text-decoration-line:none;text-decoration-style:solid;text-decoration-color:#000000;letter-spacing:normal;word-spacing:normal;text-transform:none;direction:ltr;block-progression:tb;writing-mode:lr-tb;baseline-shift:baseline;text-anchor:start;white-space:normal;clip-rule:nonzero;display:inline;overflow:visible;visibility:visible;opacity:1;isolation:auto;mix-blend-mode:normal;color-interpolation:sRGB;color-interpolation-filters:linearRGB;solid-color:#000000;solid-opacity:1;fill:#000000;fill-opacity:1;fill-rule:evenodd;stroke:none;stroke-width:150;stroke-linecap:round;stroke-linejoin:round;stroke-miterlimit:4;stroke-dasharray:none;stroke-dashoffset:0;stroke-opacity:1;color-rendering:auto;image-rendering:auto;shape-rendering:auto;text-rendering:auto;enable-background:accumulate"
       d="m -4122.2539,489.72266 c -132.2378,1.83703 -264.8293,36.85093 -378.5449,109.68359 -184.6219,118.24672 -298.2274,324.24756 -317.8887,538.74995 -10.821,118.0552 5.6512,239.2799 52.625,350.0782 47.0528,110.9846 124.2771,209.5295 225.0273,278.8945 95.2782,65.5976 206.0091,101.5891 316.9571,114.291 110.6765,12.6708 220.8643,2.5826 325.8437,-19.6758 76.8452,-16.2931 152.2223,-39.3446 225.0352,-68.8222 a 75.0075,75.0075 0 0 0 46.8535,-70.1016 l -3.8984,-501.7422 a 75.0075,75.0075 0 0 0 -74.9981,-74.416 l -403.4531,0 a 75.0075,75.0075 0 1 0 0,150 l 329.0332,0 2.916,375.1738 c -49.8358,17.7501 -100.8567,32.1992 -152.5996,43.17 -93.0515,19.7292 -187.2288,27.7411 -277.6719,17.3867 -90.1716,-10.3233 -177.4984,-39.6143 -248.957,-88.8125 -75.3416,-51.8716 -135.5905,-128.0468 -171.9863,-213.8946 -36.4749,-86.0341 -50.045,-182.9944 -41.3516,-277.8378 15.5983,-170.17547 108.7474,-336.03345 249.416,-426.12895 107.2938,-68.71959 242.9962,-95.98919 373.836,-82.7832 115.312,11.63873 228.2078,53.68367 323.0429,120.30664 a 75.0075,75.0075 0 1 0 86.2266,-122.74024 c -116.2205,-81.64655 -252.8921,-132.54335 -394.207,-146.80664 -30.2425,-3.05245 -60.7395,-4.39658 -91.2559,-3.97265 z"
       id="path4172-1"
       inkscape:connector-curvature="0" />
    <path
       style="fill:none;fill-rule:evenodd;stroke:#000000;stroke-width:75;stroke-linecap:round;stroke-linejoin:round;stroke-miterlimit:4;stroke-dasharray:none;stroke-opacity:1"
       d="m -942.44454,-1116.9228 c -112.34256,-79.1013 -245.27276,-128.6914 -381.97416,-142.497 -155.5946,-15.7136 -317.6481,16.1207 -449.2819,100.555 -173.373,111.2072 -283.3341,309.61751 -302.1198,514.73293 -10.3985,113.53834 5.5438,229.89479 49.9601,334.90088 44.4163,105.00609 117.6437,198.25661 211.5184,262.960691 88.7717,61.18674 194.2427,96.007944 301.3552,108.301785 107.1126,12.293841 215.9627,2.664418 321.4285,-19.722665 77.2669,-16.40134 153.0836,-39.6286223 226.27815,-69.322808 l -4.15175,-535.326293 -429.721,0"
       id="path4172-6"
       inkscape:path-effect="#path-effect4174-8"
       inkscape:original-d="m -942.44454,-1116.9228 c 0,0 -245.10186,-133.2363 -381.97416,-142.497 -153.6501,-10.3957 -327.0586,13.5615 -449.2819,100.555 -167.0878,118.9263 -290.2089,319.6864 -302.1198,514.73293 -13.1119,214.71829 79.5729,464.51788 261.4785,597.861571 164.7789,120.789128 413.4934,104.812478 622.7837,88.57912 79.1572,-6.139588 226.27815,-69.322808 226.27815,-69.322808 l -4.15175,-535.326293 -429.721,0"
       inkscape:connector-curvature="0"
       sodipodi:nodetypes="caaaaaccc" />
    <path
       style="color:#000000;font-style:normal;font-variant:normal;font-weight:normal;font-stretch:normal;font-size:medium;line-height:normal;font-family:sans-serif;text-indent:0;text-align:start;text-decoration:none;text-decoration-line:none;text-decoration-style:solid;text-decoration-color:#000000;letter-spacing:normal;word-spacing:normal;text-transform:none;direction:ltr;block-progression:tb;writing-mode:lr-tb;baseline-shift:baseline;text-anchor:start;white-space:normal;clip-rule:nonzero;display:inline;overflow:visible;visibility:visible;opacity:1;isolation:auto;mix-blend-mode:normal;color-interpolation:sRGB;color-interpolation-filters:linearRGB;solid-color:#000000;solid-opacity:1;fill:#000000;fill-opacity:1;fill-rule:evenodd;stroke:none;stroke-width:75;stroke-linecap:round;stroke-linejoin:round;stroke-miterlimit:4;stroke-dasharray:none;stroke-dashoffset:0;stroke-opacity:1;color-rendering:auto;image-rendering:auto;shape-rendering:auto;text-rendering:auto;enable-background:accumulate"
       d="m -1345.4648,87.517578 c -133.6945,1.916861 -267.3998,37.437382 -380.9883,110.296872 -184.3697,118.26086 -299.4193,326.71328 -319.2168,542.87696 -10.9282,119.32223 5.7314,241.73468 52.7656,352.92969 47.0742,111.2896 124.5417,210.1414 224.7754,279.2285 94.7256,65.2906 206.0481,101.7911 318.3594,114.6816 112.1755,12.875 225.0363,2.725 333.4922,-20.2968 79.4273,-16.86 157.34673,-40.7314 232.58785,-71.2559 a 37.50375,37.50375 0 0 0 23.40234,-35.039 l -4.15234,-535.32622 a 37.50375,37.50375 0 0 0 -37.49805,-37.21094 l -429.7207,0 a 37.50375,37.50375 0 1 0 0,75 l 392.50976,0 3.66406,472.35156 c -63.80534,24.4518 -129.52902,43.9275 -196.36722,58.1152 -102.4757,21.7524 -207.3157,30.8631 -309.3652,19.1504 -101.9137,-11.6972 -201.5318,-44.8389 -284.3496,-101.9218 -87.5157,-60.3212 -156.5033,-147.9708 -198.2617,-246.6934 -41.7985,-98.81708 -57.0231,-209.11863 -47.1543,-316.87305 17.7738,-194.06719 122.6451,-382.43429 285.0215,-486.58789 123.4663,-79.1954 277.3005,-109.75189 425.2675,-94.80859 130.1874,13.1477 257.1651,60.51568 364.15434,135.84765 a 37.50375,37.50375 0 1 0 43.17773,-61.32422 C -971.05717,157.78763 -1109.9408,105.97709 -1253.1562,91.513672 c -30.6042,-3.090733 -61.4561,-4.438446 -92.3086,-3.996094 z"
       id="path4172-6-7"
       inkscape:connector-curvature="0" />
  </g>
</svg>
