<?xml version="1.0" encoding="UTF-8" standalone="no"?>
<svg
   xmlns:dc="http://purl.org/dc/elements/1.1/"
   xmlns:cc="http://creativecommons.org/ns#"
   xmlns:rdf="http://www.w3.org/1999/02/22-rdf-syntax-ns#"
   xmlns:svg="http://www.w3.org/2000/svg"
   xmlns="http://www.w3.org/2000/svg"
   xmlns:sodipodi="http://sodipodi.sourceforge.net/DTD/sodipodi-0.dtd"
   xmlns:inkscape="http://www.inkscape.org/namespaces/inkscape"
   version="1.1"
   id="svg2992"
   height="2048"
   width="4000"
   inkscape:version="0.91pre3 r13670"
   sodipodi:docname="h.svg">
  <sodipodi:namedview
     pagecolor="#ffffff"
     bordercolor="#666666"
     borderopacity="1"
     objecttolerance="10"
     gridtolerance="10"
     guidetolerance="10"
     inkscape:pageopacity="0"
     inkscape:pageshadow="2"
     inkscape:window-width="1600"
     inkscape:window-height="851"
     id="namedview33"
     showgrid="true"
     showguides="true"
     inkscape:guide-bbox="true"
     inkscape:snap-grids="false"
     inkscape:zoom="0.327"
     inkscape:cx="709.10198"
     inkscape:cy="-461.63377"
     inkscape:window-x="-1"
     inkscape:window-y="-1"
     inkscape:window-maximized="1"
     inkscape:current-layer="layer1-6"
     inkscape:object-nodes="false"
     inkscape:snap-page="true"
     inkscape:snap-to-guides="false">
    <inkscape:grid
       type="xygrid"
       id="grid4162" />
    <sodipodi:guide
       orientation="0,1"
       position="400,600"
       id="guide4164"
       inkscape:label=""
       inkscape:color="rgb(0,0,255)" />
    <sodipodi:guide
       orientation="0,1"
       position="-880,1600"
       id="guide4166" />
  </sodipodi:namedview>
  <defs
     id="defs5498">
    <inkscape:path-effect
       effect="spiro"
       id="path-effect4273-6"
       is_visible="true" />
    <inkscape:path-effect
       effect="spiro"
       id="path-effect4277-9"
       is_visible="true" />
    <inkscape:path-effect
       effect="spiro"
       id="path-effect4273-6-1"
       is_visible="true" />
    <inkscape:path-effect
       effect="spiro"
       id="path-effect4277-9-4"
       is_visible="true" />
    <inkscape:path-effect
       effect="spiro"
       id="path-effect4273-6-2"
       is_visible="true" />
    <inkscape:path-effect
       effect="spiro"
       id="path-effect4277-9-7"
       is_visible="true" />
    <inkscape:path-effect
       effect="spiro"
       id="path-effect4273-6-4"
       is_visible="true" />
    <inkscape:path-effect
       effect="spiro"
       id="path-effect4277-9-3"
       is_visible="true" />
  </defs>
  <metadata
     id="metadata5594">
    <rdf:RDF>
      <cc:Work
         rdf:about="">
        <dc:format>image/svg+xml</dc:format>
        <dc:type
           rdf:resource="http://purl.org/dc/dcmitype/StillImage" />
        <dc:title />
      </cc:Work>
    </rdf:RDF>
  </metadata>
  <g
     transform="translate(5944.9542,1347.6942)"
     id="layer1">
    <g
       id="layer1-6"
       transform="translate(-14814.53,16.043327)">
      <path
         style="fill:none;fill-rule:evenodd;stroke:#000000;stroke-width:150;stroke-linecap:round;stroke-linejoin:round;stroke-miterlimit:4;stroke-dasharray:none;stroke-opacity:1"
         d="M 10136.746,-1287.3736 10149.72,22.262473"
         id="path4139"
         inkscape:connector-curvature="0"
         sodipodi:nodetypes="cc" />
      <path
         style="fill:none;fill-rule:evenodd;stroke:#000000;stroke-width:150;stroke-linecap:round;stroke-linejoin:round;stroke-miterlimit:4;stroke-dasharray:none;stroke-opacity:1"
         d="m 10904.4,-1287.9481 12.974,1307.636116"
         id="path4139-6"
         inkscape:connector-curvature="0"
         sodipodi:nodetypes="cc" />
      <path
         style="fill:none;fill-rule:evenodd;stroke:#000000;stroke-width:150;stroke-linecap:round;stroke-linejoin:round;stroke-miterlimit:4;stroke-dasharray:none;stroke-opacity:1"
         d="m 10184.319,-634.80521 670.346,-1.35038"
         id="path4156"
         inkscape:connector-curvature="0"
         sodipodi:nodetypes="cc" />
      <path
         style="fill:none;fill-rule:evenodd;stroke:#000000;stroke-width:150;stroke-linecap:round;stroke-linejoin:round;stroke-miterlimit:4;stroke-dasharray:none;stroke-opacity:1"
         d="m 9061.88,-1245.606 0,1260.0001"
         id="path4271-1"
         inkscape:path-effect="#path-effect4273-6"
         inkscape:original-d="m 9061.88,-1245.606 0,1260.0001"
         inkscape:connector-curvature="0"
         sodipodi:nodetypes="cc" />
      <path
         style="fill:none;fill-rule:evenodd;stroke:#000000;stroke-width:150;stroke-linecap:round;stroke-linejoin:round;stroke-miterlimit:4;stroke-dasharray:none;stroke-opacity:1"
         d="m 9059.88,-427.19003 c -8.8768,-111.03438 29.992,-225.08413 104.8281,-307.58863 74.8361,-82.50449 184.5655,-132.27982 295.9369,-134.2425 59.8761,-1.05519 120.1537,11.38427 173.9429,37.70881 53.7893,26.32455 100.6573,66.5681 134.9461,115.66539 34.2888,49.09728 55.6981,106.54319 66.0253,165.53144 10.3273,58.98825 9.6751,119.27778 8.3756,179.14912 l -8.643,398.2103"
         id="path4275-2"
         inkscape:path-effect="#path-effect4277-9"
         inkscape:original-d="m 9059.88,-427.19003 c 0,0 202.0896,-449.86079 400.765,-441.83113 209.3178,8.45978 387.8401,288.413 383.2899,498.05476 l -8.643,398.2103"
         inkscape:connector-curvature="0"
         sodipodi:nodetypes="casc" />
      <path
         style="color:#000000;font-style:normal;font-variant:normal;font-weight:normal;font-stretch:normal;font-size:medium;line-height:normal;font-family:sans-serif;text-indent:0;text-align:start;text-decoration:none;text-decoration-line:none;text-decoration-style:solid;text-decoration-color:#000000;letter-spacing:normal;word-spacing:normal;text-transform:none;direction:ltr;block-progression:tb;writing-mode:lr-tb;baseline-shift:baseline;text-anchor:start;white-space:normal;clip-rule:nonzero;display:inline;overflow:visible;visibility:visible;opacity:1;isolation:auto;mix-blend-mode:normal;color-interpolation:sRGB;color-interpolation-filters:linearRGB;solid-color:#000000;solid-opacity:1;fill:#000000;fill-opacity:1;fill-rule:evenodd;stroke:none;stroke-width:140;stroke-linecap:round;stroke-linejoin:round;stroke-miterlimit:4;stroke-dasharray:none;stroke-dashoffset:0;stroke-opacity:1;color-rendering:auto;image-rendering:auto;shape-rendering:auto;text-rendering:auto;enable-background:accumulate"
         d="M -1456.5039 24.818359 A 70.007 70.007 0 0 0 -1525.4492 95.806641 L -1525.4492 741.70898 A 70.007 70.007 0 0 0 -1525.4492 755.66406 L -1525.4492 1373.8086 A 70.007 70.007 0 1 0 -1385.4492 1373.8086 L -1385.4492 764.51758 C -1351.5622 700.8276 -1299.5807 645.91326 -1237.7969 608.87695 C -1171.6292 569.21277 -1092.6763 549.12152 -1015.5977 552.33203 C -964.80286 554.44776 -914.84673 566.63371 -871.36523 588.82422 C -828.07643 610.9163 -789.8812 643.9289 -762.1875 683.4375 C -734.5002 722.93701 -716.01792 770.81963 -707.01172 821.23633 C -697.98842 871.74997 -698.12001 927.50727 -699.37891 986.96484 L -708.02148 1395.1758 A 70.007 70.007 0 1 0 -568.05273 1398.1387 L -559.41016 989.92969 C -558.12806 929.37908 -557.10876 864.27008 -569.19336 796.61914 A 70.007 70.007 0 0 0 -569.19336 796.61719 C -581.29546 728.86932 -606.33568 661.87112 -647.54688 603.07812 C -688.75158 544.29423 -744.09846 496.5971 -807.72656 464.125 C -871.16166 431.7513 -940.63528 415.33282 -1009.7715 412.45312 C -1016.3301 412.17994 -1022.8881 412.02733 -1029.4434 411.99609 C -1127.7731 411.52758 -1225.3245 438.17366 -1309.7773 488.79883 C -1336.6096 504.88341 -1361.9152 523.28996 -1385.4492 543.6875 L -1385.4492 95.806641 A 70.007 70.007 0 0 0 -1456.5039 24.818359 z "
         transform="translate(8869.5758,-1363.7375)"
         id="path4271-1-6" />
      <path
         style="color:#000000;font-style:normal;font-variant:normal;font-weight:normal;font-stretch:normal;font-size:medium;line-height:normal;font-family:sans-serif;text-indent:0;text-align:start;text-decoration:none;text-decoration-line:none;text-decoration-style:solid;text-decoration-color:#000000;letter-spacing:normal;word-spacing:normal;text-transform:none;direction:ltr;block-progression:tb;writing-mode:lr-tb;baseline-shift:baseline;text-anchor:start;white-space:normal;clip-rule:nonzero;display:inline;overflow:visible;visibility:visible;opacity:1;isolation:auto;mix-blend-mode:normal;color-interpolation:sRGB;color-interpolation-filters:linearRGB;solid-color:#000000;solid-opacity:1;fill:#000000;fill-opacity:1;fill-rule:evenodd;stroke:none;stroke-width:150;stroke-linecap:round;stroke-linejoin:round;stroke-miterlimit:4;stroke-dasharray:none;stroke-dashoffset:0;stroke-opacity:1;color-rendering:auto;image-rendering:auto;shape-rendering:auto;text-rendering:auto;enable-background:accumulate"
         d="M 2045.1797 1604.3125 A 75.0075 75.0075 0 0 0 1972.0684 1681.1016 L 1977.7832 2257.1895 L 1360.1348 2258.4336 L 1354.4062 1680.1895 A 75.0075 75.0075 0 0 0 1277.5273 1604.8867 A 75.0075 75.0075 0 0 0 1204.4141 1681.6738 L 1217.3867 2991.3105 A 75.0075 75.0075 0 1 0 1367.3809 2989.8242 L 1361.6211 2408.4297 L 1979.2715 2407.1875 L 1985.041 2988.7383 A 75.0075 75.0075 0 1 0 2135.0332 2987.25 L 2122.0605 1679.6133 A 75.0075 75.0075 0 0 0 2045.1797 1604.3125 z "
         transform="translate(8869.5758,-1363.7375)"
         id="path4139-4" />
      <path
         style="color:#000000;font-style:normal;font-variant:normal;font-weight:normal;font-stretch:normal;font-size:medium;line-height:normal;font-family:sans-serif;text-indent:0;text-align:start;text-decoration:none;text-decoration-line:none;text-decoration-style:solid;text-decoration-color:#000000;letter-spacing:normal;word-spacing:normal;text-transform:none;direction:ltr;block-progression:tb;writing-mode:lr-tb;baseline-shift:baseline;text-anchor:start;white-space:normal;clip-rule:nonzero;display:inline;overflow:visible;visibility:visible;opacity:1;isolation:auto;mix-blend-mode:normal;color-interpolation:sRGB;color-interpolation-filters:linearRGB;solid-color:#000000;solid-opacity:1;fill:#000000;fill-opacity:1;fill-rule:evenodd;stroke:none;stroke-width:150;stroke-linecap:round;stroke-linejoin:round;stroke-miterlimit:4;stroke-dasharray:none;stroke-dashoffset:0;stroke-opacity:1;color-rendering:auto;image-rendering:auto;shape-rendering:auto;text-rendering:auto;enable-background:accumulate"
         d="m 153.43945,1564.875 c -41.39373,0.6231 -74.455907,34.6643 -73.871091,76.0586 -3.324626,426.821 0,836.9754 0,1260 -0.591648,41.8362 33.159671,76.0681 75.000001,76.0681 41.84033,0 75.59165,-34.2319 75,-76.0681 l 0,-518.0039 c 9.34267,-66.6881 38.68547,-131.504 83.38086,-180.7793 60.4104,-66.6006 151.80403,-108.0582 241.70703,-109.6426 48.6067,-0.8566 97.35494,9.3836 139.65234,30.084 42.1319,20.6194 79.49079,52.6765 106.42579,91.2441 26.9557,38.5972 44.92147,85.7296 53.63867,135.5215 8.7378,49.9092 8.59734,105.2653 7.26953,164.5879 l -8.64453,386.2109 c -1.49607,41.8115 31.50394,76.7644 73.33237,77.672 41.82843,0.9076 76.31348,-32.5809 76.63248,-74.418 l 8.6445,-386.209 c 1.3523,-60.4182 2.4344,-125.6437 -9.4824,-193.711 -11.9372,-68.1845 -36.79021,-135.9435 -78.41211,-195.541 -41.6426,-59.6269 -98.0201,-108.0582 -163.4668,-140.0879 -65.2811,-31.9486 -137.08682,-46.5858 -208.23242,-45.332 -119.64374,2.1085 -235.40939,49.4508 -322.44531,130.7324 l 0,-432.3281 c 0.59731,-42.2786 -33.85091,-76.695 -76.12891,-76.0586 z"
         transform="translate(8869.5758,-1363.7375)"
         id="path4271-1-7"
         inkscape:connector-curvature="0"
         sodipodi:nodetypes="sccsccsssssscscsssssccs" />
    </g>
  </g>
</svg>
