<?xml version="1.0" encoding="UTF-8" standalone="no"?>
<svg
   xmlns:dc="http://purl.org/dc/elements/1.1/"
   xmlns:cc="http://creativecommons.org/ns#"
   xmlns:rdf="http://www.w3.org/1999/02/22-rdf-syntax-ns#"
   xmlns:svg="http://www.w3.org/2000/svg"
   xmlns="http://www.w3.org/2000/svg"
   xmlns:sodipodi="http://sodipodi.sourceforge.net/DTD/sodipodi-0.dtd"
   xmlns:inkscape="http://www.inkscape.org/namespaces/inkscape"
   version="1.1"
   id="svg2992"
   height="2048"
   width="4000"
   inkscape:version="0.91 r13725"
   sodipodi:docname="h.svg">
  <sodipodi:namedview
     pagecolor="#ffffff"
     bordercolor="#666666"
     borderopacity="1"
     objecttolerance="10"
     gridtolerance="10"
     guidetolerance="10"
     inkscape:pageopacity="0"
     inkscape:pageshadow="2"
     inkscape:window-width="1600"
     inkscape:window-height="844"
     id="namedview33"
     showgrid="true"
     showguides="true"
     inkscape:guide-bbox="true"
     inkscape:snap-grids="false"
     inkscape:zoom="0.327"
     inkscape:cx="1099.0107"
     inkscape:cy="-562.5512"
     inkscape:window-x="0"
     inkscape:window-y="0"
     inkscape:window-maximized="1"
     inkscape:current-layer="layer1-6"
     inkscape:object-nodes="false"
     inkscape:snap-page="true"
     inkscape:snap-to-guides="false">
    <inkscape:grid
       type="xygrid"
       id="grid4162" />
    <sodipodi:guide
       orientation="0,1"
       position="400,600"
       id="guide4164"
       inkscape:label=""
       inkscape:color="rgb(0,0,255)" />
    <sodipodi:guide
       orientation="0,1"
       position="-880,1600"
       id="guide4166" />
  </sodipodi:namedview>
  <defs
     id="defs5498">
    <inkscape:path-effect
       effect="spiro"
       id="path-effect4273-6"
       is_visible="true" />
    <inkscape:path-effect
       effect="spiro"
       id="path-effect4277-9"
       is_visible="true" />
    <inkscape:path-effect
       effect="spiro"
       id="path-effect4273-6-1"
       is_visible="true" />
    <inkscape:path-effect
       effect="spiro"
       id="path-effect4277-9-4"
       is_visible="true" />
    <inkscape:path-effect
       effect="spiro"
       id="path-effect4273-6-2"
       is_visible="true" />
    <inkscape:path-effect
       effect="spiro"
       id="path-effect4277-9-7"
       is_visible="true" />
    <inkscape:path-effect
       effect="spiro"
       id="path-effect4273-6-4"
       is_visible="true" />
    <inkscape:path-effect
       effect="spiro"
       id="path-effect4277-9-3"
       is_visible="true" />
    <inkscape:path-effect
       effect="spiro"
       id="path-effect4277-9-34"
       is_visible="true" />
    <inkscape:path-effect
       effect="spiro"
       id="path-effect4273-6-0"
       is_visible="true" />
    <inkscape:path-effect
       effect="spiro"
       id="path-effect4277-9-1"
       is_visible="true" />
    <inkscape:path-effect
       effect="spiro"
       id="path-effect4273-6-6"
       is_visible="true" />
  </defs>
  <metadata
     id="metadata5594">
    <rdf:RDF>
      <cc:Work
         rdf:about="">
        <dc:format>image/svg+xml</dc:format>
        <dc:type
           rdf:resource="http://purl.org/dc/dcmitype/StillImage" />
        <dc:title />
      </cc:Work>
    </rdf:RDF>
  </metadata>
  <g
     transform="translate(5944.9542,1347.6942)"
     id="layer1">
    <g
       id="layer1-6"
       transform="translate(-14814.53,16.043327)">
      <path
         style="fill:none;fill-rule:evenodd;stroke:#000000;stroke-width:150;stroke-linecap:round;stroke-linejoin:round;stroke-miterlimit:4;stroke-dasharray:none;stroke-opacity:1"
         d="m 10146.746,-1215.7375 2.974,1237.999973"
         id="path4139"
         inkscape:connector-curvature="0"
         sodipodi:nodetypes="cc" />
      <path
         style="fill:none;fill-rule:evenodd;stroke:#000000;stroke-width:150;stroke-linecap:round;stroke-linejoin:round;stroke-miterlimit:4;stroke-dasharray:none;stroke-opacity:1"
         d="m 10918.4,-1215.7375 -1.026,1235.425516"
         id="path4139-6"
         inkscape:connector-curvature="0"
         sodipodi:nodetypes="cc" />
      <path
         style="fill:none;fill-rule:evenodd;stroke:#000000;stroke-width:150;stroke-linecap:round;stroke-linejoin:round;stroke-miterlimit:4;stroke-dasharray:none;stroke-opacity:1"
         d="m 10184.319,-615.06234 670.346,-1.35038"
         id="path4156"
         inkscape:connector-curvature="0"
         sodipodi:nodetypes="cc" />
      <path
         style="fill:none;fill-rule:evenodd;stroke:#000000;stroke-width:150;stroke-linecap:round;stroke-linejoin:round;stroke-miterlimit:4;stroke-dasharray:none;stroke-opacity:1"
         d="m 9079.88,-1216.6055 0,1250.9996"
         id="path4271-1"
         inkscape:path-effect="#path-effect4273-6"
         inkscape:original-d="m 9079.88,-1216.6055 0,1250.9996"
         inkscape:connector-curvature="0"
         sodipodi:nodetypes="cc" />
      <path
         style="fill:none;fill-rule:evenodd;stroke:#000000;stroke-width:150;stroke-linecap:round;stroke-linejoin:round;stroke-miterlimit:4;stroke-dasharray:none;stroke-opacity:1"
         d="m 9081.88,34.736576 -0.7702,-488.165786 c -0.093,-58.66642 0.7314,-117.94796 14.8662,-174.88621 14.1348,-56.93825 41.7337,-110.98071 82.6114,-153.06121 40.8778,-42.0805 94.3264,-71.5173 151.4656,-84.81642 57.1392,-13.29912 117.389,-10.81513 174.3351,3.2881 44.9722,11.13777 88.3129,29.52895 126.4861,55.78443 38.1733,26.25549 70.9306,60.41921 95.1524,99.91411 24.2219,39.4949 39.6858,84.04014 47.6211,129.68633 7.9353,45.64619 8.3503,92.22291 8.2872,138.55368 l -0.643,472.2103"
         id="path4275-2"
         inkscape:path-effect="#path-effect4277-9"
         inkscape:original-d="m 9081.88,34.736576 -0.7702,-488.165786 c -0.2392,-151.62954 228.1808,-431.25142 423.2783,-409.47574 167.8613,18.73573 277.8323,214.24761 277.5468,423.93855 l -0.643,472.2103"
         inkscape:connector-curvature="0"
         sodipodi:nodetypes="csasc" />
      <path
         style="color:#000000;font-style:normal;font-variant:normal;font-weight:normal;font-stretch:normal;font-size:medium;line-height:normal;font-family:sans-serif;text-indent:0;text-align:start;text-decoration:none;text-decoration-line:none;text-decoration-style:solid;text-decoration-color:#000000;letter-spacing:normal;word-spacing:normal;text-transform:none;direction:ltr;block-progression:tb;writing-mode:lr-tb;baseline-shift:baseline;text-anchor:start;white-space:normal;clip-rule:nonzero;display:inline;overflow:visible;visibility:visible;opacity:1;isolation:auto;mix-blend-mode:normal;color-interpolation:sRGB;color-interpolation-filters:linearRGB;solid-color:#000000;solid-opacity:1;fill:#000000;fill-opacity:1;fill-rule:evenodd;stroke:none;stroke-width:140;stroke-linecap:round;stroke-linejoin:round;stroke-miterlimit:4;stroke-dasharray:none;stroke-dashoffset:0;stroke-opacity:1;color-rendering:auto;image-rendering:auto;shape-rendering:auto;text-rendering:auto;enable-background:accumulate"
         d="M -1456.5039 24.818359 A 70.007 70.007 0 0 0 -1525.4492 95.806641 L -1525.4492 741.70898 A 70.007 70.007 0 0 0 -1525.4492 755.66406 L -1525.4492 1373.8086 A 70.007 70.007 0 1 0 -1385.4492 1373.8086 L -1385.4492 764.51758 C -1351.5622 700.8276 -1299.5807 645.91326 -1237.7969 608.87695 C -1171.6292 569.21277 -1092.6763 549.12152 -1015.5977 552.33203 C -964.80286 554.44776 -914.84673 566.63371 -871.36523 588.82422 C -828.07643 610.9163 -789.8812 643.9289 -762.1875 683.4375 C -734.5002 722.93701 -716.01792 770.81963 -707.01172 821.23633 C -697.98842 871.74997 -698.12001 927.50727 -699.37891 986.96484 L -708.02148 1395.1758 A 70.007 70.007 0 1 0 -568.05273 1398.1387 L -559.41016 989.92969 C -558.12806 929.37908 -557.10876 864.27008 -569.19336 796.61914 A 70.007 70.007 0 0 0 -569.19336 796.61719 C -581.29546 728.86932 -606.33568 661.87112 -647.54688 603.07812 C -688.75158 544.29423 -744.09846 496.5971 -807.72656 464.125 C -871.16166 431.7513 -940.63528 415.33282 -1009.7715 412.45312 C -1016.3301 412.17994 -1022.8881 412.02733 -1029.4434 411.99609 C -1127.7731 411.52758 -1225.3245 438.17366 -1309.7773 488.79883 C -1336.6096 504.88341 -1361.9152 523.28996 -1385.4492 543.6875 L -1385.4492 95.806641 A 70.007 70.007 0 0 0 -1456.5039 24.818359 z "
         transform="translate(8869.5758,-1363.7375)"
         id="path4271-1-6" />
      <path
         style="color:#000000;font-style:normal;font-variant:normal;font-weight:normal;font-stretch:normal;font-size:medium;line-height:normal;font-family:sans-serif;text-indent:0;text-align:start;text-decoration:none;text-decoration-line:none;text-decoration-style:solid;text-decoration-color:#000000;letter-spacing:normal;word-spacing:normal;text-transform:none;direction:ltr;block-progression:tb;writing-mode:lr-tb;baseline-shift:baseline;text-anchor:start;white-space:normal;clip-rule:nonzero;display:inline;overflow:visible;visibility:visible;opacity:1;isolation:auto;mix-blend-mode:normal;color-interpolation:sRGB;color-interpolation-filters:linearRGB;solid-color:#000000;solid-opacity:1;fill:#000000;fill-opacity:1;fill-rule:evenodd;stroke:none;stroke-width:150;stroke-linecap:round;stroke-linejoin:round;stroke-miterlimit:4;stroke-dasharray:none;stroke-dashoffset:0;stroke-opacity:1;color-rendering:auto;image-rendering:auto;shape-rendering:auto;text-rendering:auto;enable-background:accumulate"
         d="M 2179.8691 1551.7168 A 75.0075 75.0075 0 0 0 2105.9355 1627.7148 L 2105.5 2152.125 L 1485.543 2153.375 L 1484.2812 1627.5977 A 75.0075 75.0075 0 0 0 1407.9688 1551.7207 A 75.0075 75.0075 0 0 0 1334.2812 1627.957 L 1337.2559 2865.957 A 75.0075 75.0075 0 1 0 1487.2539 2865.5977 L 1485.9043 2303.375 L 2105.375 2302.125 L 2104.9082 2863.1406 A 75.0075 75.0075 0 1 0 2254.9082 2863.2656 L 2255.9355 1627.8398 A 75.0075 75.0075 0 0 0 2179.8691 1551.7168 z "
         transform="translate(8869.5758,-1363.7375)"
         id="path4139-1" />
      <path
         style="color:#000000;font-style:normal;font-variant:normal;font-weight:normal;font-stretch:normal;font-size:medium;line-height:normal;font-family:sans-serif;text-indent:0;text-align:start;text-decoration:none;text-decoration-line:none;text-decoration-style:solid;text-decoration-color:#000000;letter-spacing:normal;word-spacing:normal;text-transform:none;direction:ltr;block-progression:tb;writing-mode:lr-tb;baseline-shift:baseline;text-anchor:start;white-space:normal;clip-rule:nonzero;display:inline;overflow:visible;visibility:visible;opacity:1;isolation:auto;mix-blend-mode:normal;color-interpolation:sRGB;color-interpolation-filters:linearRGB;solid-color:#000000;solid-opacity:1;fill:#000000;fill-opacity:1;fill-rule:evenodd;stroke:none;stroke-width:150;stroke-linecap:round;stroke-linejoin:round;stroke-miterlimit:4;stroke-dasharray:none;stroke-dashoffset:0;stroke-opacity:1;color-rendering:auto;image-rendering:auto;shape-rendering:auto;text-rendering:auto;enable-background:accumulate"
         d="M 69.861328 1734.6484 A 75.0075 75.0075 0 0 0 -4.0097656 1810.709 L -4.0097656 3061.709 A 75.0075 75.0075 0 0 0 58.642578 3136.6934 A 75.0075 75.0075 0 0 0 147.99023 3061.9336 L 147.2207 2573.7676 C 147.1287 2515.884 148.51075 2462.8558 159.87695 2417.0703 C 171.18515 2371.5181 193.22234 2329.3618 223.49414 2298.1992 C 253.78554 2267.0166 294.76822 2244.2707 338.16602 2234.1699 C 381.95962 2223.977 430.51015 2225.5832 477.46875 2237.2129 C 514.65465 2246.4223 549.67472 2261.4885 579.48242 2281.9902 C 609.13292 2302.3838 634.65903 2329.0833 653.20312 2359.3203 C 671.72302 2389.518 684.33759 2425.0833 690.86719 2462.6426 C 697.40349 2500.2416 698.10732 2542.4335 698.04492 2588.248 L 697.40234 3060.459 A 75.0075 75.0075 0 1 0 847.40234 3060.6621 L 848.04492 2588.4512 C 848.10892 2541.6041 847.98489 2490.6447 838.65039 2436.9512 C 829.30909 2383.2182 810.99597 2329.6925 781.07227 2280.9004 C 751.17267 2232.1476 711.18223 2190.5178 664.48633 2158.4004 C 617.94763 2126.3912 566.2877 2104.6774 513.5293 2091.6113 C 480.0625 2083.323 445.34008 2078.3369 410.17578 2077.4746 L 410.17578 2077.4727 C 375.01138 2076.6103 339.40451 2079.8716 304.16211 2088.0742 C 246.43618 2101.5099 192.00552 2127.9685 145.99023 2165.9434 L 145.99023 1810.709 A 75.0075 75.0075 0 0 0 69.861328 1734.6484 z "
         transform="translate(8869.5758,-1363.7375)"
         id="path4271-1-2" />
    </g>
  </g>
</svg>
