<?xml version="1.0" encoding="UTF-8" standalone="no"?>
<!-- Created with Inkscape (http://www.inkscape.org/) -->

<svg
   xmlns:dc="http://purl.org/dc/elements/1.1/"
   xmlns:cc="http://creativecommons.org/ns#"
   xmlns:rdf="http://www.w3.org/1999/02/22-rdf-syntax-ns#"
   xmlns:svg="http://www.w3.org/2000/svg"
   xmlns="http://www.w3.org/2000/svg"
   xmlns:sodipodi="http://sodipodi.sourceforge.net/DTD/sodipodi-0.dtd"
   xmlns:inkscape="http://www.inkscape.org/namespaces/inkscape"
   width="2000"
   height="2048"
   id="svg2992"
   version="1.1"
   inkscape:version="0.91 r13725"
   sodipodi:docname="munnumaa.svg">
  <defs
     id="defs5498">
    <inkscape:path-effect
       effect="spiro"
       id="path-effect4162"
       is_visible="true" />
    <inkscape:path-effect
       effect="spiro"
       id="path-effect3006"
       is_visible="true" />
    <inkscape:path-effect
       effect="spiro"
       id="path-effect4141-37"
       is_visible="true" />
    <inkscape:path-effect
       effect="spiro"
       id="path-effect4141-37-3"
       is_visible="true" />
    <inkscape:path-effect
       effect="spiro"
       id="path-effect4141-37-3-0"
       is_visible="true" />
    <inkscape:path-effect
       effect="spiro"
       id="path-effect4141-37-3-0-9"
       is_visible="true" />
    <inkscape:path-effect
       effect="spiro"
       id="path-effect4141-37-3-0-9-1"
       is_visible="true" />
    <inkscape:path-effect
       effect="spiro"
       id="path-effect4141-37-3-0-9-8"
       is_visible="true" />
    <inkscape:path-effect
       effect="spiro"
       id="path-effect4141-37-3-0-9-8-9"
       is_visible="true" />
    <inkscape:path-effect
       effect="spiro"
       id="path-effect4141-37-3-0-9-5"
       is_visible="true" />
    <inkscape:path-effect
       effect="spiro"
       id="path-effect4141-37-3-0-9-84"
       is_visible="true" />
    <inkscape:path-effect
       effect="spiro"
       id="path-effect4141-37-3-0-9-84-7"
       is_visible="true" />
    <inkscape:path-effect
       effect="spiro"
       id="path-effect4141-37-3-0-9-4"
       is_visible="true" />
    <inkscape:path-effect
       effect="spiro"
       id="path-effect4141-37-3-0-9-3"
       is_visible="true" />
    <inkscape:path-effect
       effect="spiro"
       id="path-effect4141-37-3-0-9-3-7"
       is_visible="true" />
    <inkscape:path-effect
       effect="spiro"
       id="path-effect4141-37-3-0-9-3-3"
       is_visible="true" />
    <inkscape:path-effect
       effect="spiro"
       id="path-effect4141-37-3-0-9-3-3-2"
       is_visible="true" />
    <inkscape:path-effect
       effect="spiro"
       id="path-effect4141-37-3-0-9-3-1"
       is_visible="true" />
    <inkscape:path-effect
       effect="spiro"
       id="path-effect4141-37-3-0-9-3-1-7"
       is_visible="true" />
    <inkscape:path-effect
       effect="spiro"
       id="path-effect4141-37-3-0-9-3-36"
       is_visible="true" />
    <inkscape:path-effect
       effect="spiro"
       id="path-effect4141-37-3-0-9-3-5"
       is_visible="true" />
  </defs>
  <sodipodi:namedview
     inkscape:window-height="843"
     inkscape:window-width="1600"
     inkscape:pageshadow="2"
     inkscape:pageopacity="0.0"
     borderopacity="1.0"
     bordercolor="#666666"
     pagecolor="#ffffff"
     id="base"
     showgrid="true"
     showguides="true"
     inkscape:guide-bbox="true"
     inkscape:zoom="0.125"
     inkscape:cx="6125.5339"
     inkscape:cy="792.96682"
     inkscape:window-x="1600"
     inkscape:window-y="0"
     inkscape:current-layer="layer1"
     inkscape:window-maximized="1">
    <sodipodi:guide
       orientation="horizontal"
       position="0,600"
       id="guide5596" />
    <inkscape:grid
       type="xygrid"
       id="grid3769"
       empspacing="3"
       visible="true"
       enabled="true"
       snapvisiblegridlinesonly="true"
       spacingx="4px"
       units="px"
       dotted="true"
       spacingy="4px" />
    <sodipodi:guide
       orientation="0,1"
       position="-1040,1600"
       id="guide2985" />
  </sodipodi:namedview>
  <metadata
     id="metadata5594">
    <rdf:RDF>
      <cc:Work
         rdf:about="">
        <dc:format>image/svg+xml</dc:format>
        <dc:type
           rdf:resource="http://purl.org/dc/dcmitype/StillImage" />
        <dc:title />
      </cc:Work>
    </rdf:RDF>
  </metadata>
  <g
     inkscape:label="Layer 1"
     inkscape:groupmode="layer"
     id="layer1"
     transform="translate(0,1048)">
    <path
       style="fill:none;fill-rule:evenodd;stroke:#000000;stroke-width:140;stroke-linecap:round;stroke-linejoin:round;stroke-miterlimit:4;stroke-dasharray:none;stroke-opacity:1"
       d="m 3747.3069,-566.49349 c 107.6495,22.19337 207.3348,81.29309 278.4621,165.0897 71.1272,83.79661 113.2458,191.75944 117.6545,301.584379 4.3518,108.4075293 -29.2203,219.995221 -101.7113,300.718141 -36.2455,40.36145 -81.7425,72.59948 -132.4046,91.99383 -50.662,19.39436 -106.4523,25.76453 -159.952,16.78876 -52.1449,-8.74847 -101.4131,-31.85511 -143.544,-63.80211 -42.1309,-31.94701 -77.285,-72.56084 -105.7267,-117.13316 -56.8835,-89.144649 -86.6745,-192.565633 -112.3627,-295.14542 -21.4732,-85.74835 -41.2158,-173.65671 -86.3731,-249.64811 -22.5787,-37.9957 -51.5201,-72.61331 -87.2333,-98.65249 -35.7132,-26.03919 -78.4319,-43.22177 -122.5689,-45.54442 -49.3289,-2.59586 -98.7827,13.55735 -139.5343,41.47487 -40.7516,27.91753 -73.072,67.12674 -96.5105,110.60911 -46.8771,86.96475 -58.3288,188.15694 -65.7432,286.6727 -7.0808,94.083189 -11.8408,190.831228 -50.2794,276.99538 -19.2192,43.08208 -46.9837,82.89778 -83.83,112.35625 -36.8462,29.45847 -83.1445,48.05834 -130.3185,47.80757 -47.1344,-0.25056 -93.1529,-19.28271 -129.8781,-48.82894 -36.7251,-29.54623 -64.5674,-69.12215 -84.5572,-111.80848 -39.9797,-85.372658 -49.0994,-181.301218 -65.7724,-274.08524 -18.2877,-101.76997 -47.3674,-204.10761 -107.5099,-288.21739 -30.0712,-42.05488 -67.7799,-79.01404 -112.1478,-105.55435 -44.3678,-26.54031 -95.5283,-42.40609 -147.2282,-42.49967 -50.6996,-0.0918 -100.9907,14.99693 -144.6644,40.74713 -43.6736,25.7502 -80.8224,61.92829 -109.9512,103.42491 -58.2577,82.99324 -83.7572,185.07128 -92.4271,286.09934 -7.278,84.808903 -3.6189,171.069322 -22.6739,254.02973 -9.5275,41.4802 -24.8597,81.99225 -48.7415,117.22061 C 1435.8974,281.42751 1403.115,311.22505 1364,328 c -56.7444,24.33556 -123.7544,19.32798 -179.6278,-6.94584 -55.8734,-26.27382 -101.0163,-72.307 -132.7997,-125.24057 C 988.0056,89.946454 976.9491,-38.007188 961.87961,-160.56945 945.63272,-292.70771 922.97068,-424.05701 894,-554 890.82653,-362.4273 849.46995,-171.56323 773.06159,4.1408707 744.43772,69.962606 710.6931,134.0706 666.12561,190.33396 621.55812,246.59731 565.63586,294.95245 500,324 397.44753,369.38522 273.58192,363.2684 176,308"
       id="path4139-9-6-5-3-6"
       inkscape:path-effect="#path-effect4141-37-3-0-9-3"
       inkscape:original-d="m 3747.3069,-566.49349 c -15.5207,188.15091 402.481,262.73278 396.1166,466.674079 -5.9089,189.345681 -204.9517,420.536321 -394.0679,409.500731 -198.9468,-11.60925 -296.2274,-209.31653 -361.6334,-476.08069 -43.6319,-157.31584 -131.9515,-397.31706 -296.1753,-393.84502 -177.4689,3.75206 -205.513,289.62453 -301.788,438.75668 -92.3673,143.079145 -94.1415,434.7284 -264.4279,437.1592 -172.3838,2.46073 -177.8205,-296.017603 -280.2077,-434.72266 -112.8455,-152.87291 -176.8847,-438.21792 -366.8859,-436.27141 -184.2523,1.88762 -256.1054,270.01264 -347.0427,430.27138 C 1451.7512,14.952001 1522.7183,301.15458 1364,328 1156.0297,363.17585 1049.7591,31.175635 961.87961,-160.56945 906.43263,-281.54967 894,-554 894,-554 894,-554 857.57489,-166.4349 773.06159,4.1408707 710.82464,129.7556 628.71307,268.45322 500,324 400.71894,366.84524 176,308 176,308"
       inkscape:connector-curvature="0"
       sodipodi:nodetypes="caacaaaaaaaacaac" />
    <path
       style="fill:none;fill-rule:evenodd;stroke:#000000;stroke-width:70;stroke-linecap:round;stroke-linejoin:round;stroke-miterlimit:4;stroke-dasharray:none;stroke-opacity:1"
       d="m -1124.6931,-558.4935 c 104.3721,28.98637 199.64203,89.90965 269.73969,172.49332 70.09766,82.58367 114.73299,186.48599 126.37691,294.18076 12.47374,115.369791 -14.49121,237.31592 -86.88769,328.00512 -36.19824,45.34461 -83.24936,82.27025 -136.70647,104.82647 -53.45714,22.55622 -113.28844,30.48172 -170.47374,20.66913 -55.4398,-9.51308 -107.4691,-35.40683 -151.0546,-70.96498 -43.5854,-35.55815 -78.9483,-80.55658 -106.7155,-129.47545 -55.5345,-97.837755 -80.5932,-209.572995 -103.8633,-319.64025 -18.6515,-88.22109 -37.2768,-178.37042 -82.6924,-256.26947 -22.7078,-38.94952 -52.1144,-74.39548 -88.4958,-101.02449 -36.3814,-26.629 -79.9651,-44.1568 -124.9871,-46.55106 -50.3199,-2.676 -100.7958,13.7434 -142.351,42.2464 -41.5553,28.503 -74.4512,68.60888 -98.0564,113.12912 -47.2105,89.04047 -57.3308,192.68046 -61.3806,293.38116 -4.0722,101.258983 -3.4084,205.388215 -40.3425,299.75897 -18.467,47.18538 -46.5393,91.24745 -85.158,124.05121 -38.6187,32.80375 -88.2584,53.73091 -138.9274,53.34904 -50.4918,-0.38053 -99.6011,-21.86947 -137.9017,-54.7728 -38.3006,-32.90334 -66.3102,-76.63326 -85.5164,-123.3311 -38.4123,-93.395674 -42.4439,-196.656477 -56.7896,-296.61878 -15.0599,-104.93892 -43.0799,-210.5454 -103.4387,-297.6992 -30.1794,-43.5769 -68.3071,-81.99567 -113.3459,-109.94653 -45.0388,-27.95087 -97.1137,-45.19185 -150.1013,-46.62568 -52.9291,-1.43225 -105.8887,12.9704 -151.9726,39.04381 -46.0838,26.07341 -85.3437,63.58274 -115.4274,107.15463 -60.1675,87.14376 -82.6183,196.21779 -79.6427,302.07294 5.0036,177.998785 80.6605,353.04938 206.877,478.65991"
       id="path4139-9-6-5-3-6-56"
       inkscape:path-effect="#path-effect4141-37-3-0-9-3-3"
       inkscape:original-d="m -1124.6931,-558.4935 c -15.5207,188.15091 397.29898,262.63692 396.1166,466.67408 -1.16049,200.26102 -194.09434,464.28964 -394.0679,453.50072 -210.8443,-11.37542 -296.2274,-253.3165 -361.6334,-520.08068 -43.6319,-157.31584 -129.2733,-407.24661 -296.1753,-403.84502 -180.2274,3.67317 -207.7143,294.98562 -301.788,448.75668 -94.8975,155.117616 -82.6013,474.68772 -264.4279,477.15922 -183.7335,2.49742 -234.9758,-179.8872 -280.2077,-474.72268 -39.5244,-193.49865 -172.2547,-456.27445 -366.8859,-454.27141 -188.9597,1.94467 -323.4038,260.78606 -347.0427,448.27138 -21.7434,172.452378 206.877,478.65991 206.877,478.65991"
       inkscape:connector-curvature="0"
       sodipodi:nodetypes="caacaaacaac" />
    <path
       style="color:#000000;font-style:normal;font-variant:normal;font-weight:normal;font-stretch:normal;font-size:medium;line-height:normal;font-family:sans-serif;text-indent:0;text-align:start;text-decoration:none;text-decoration-line:none;text-decoration-style:solid;text-decoration-color:#000000;letter-spacing:normal;word-spacing:normal;text-transform:none;direction:ltr;block-progression:tb;writing-mode:lr-tb;baseline-shift:baseline;text-anchor:start;white-space:normal;clip-rule:nonzero;display:inline;overflow:visible;visibility:visible;opacity:1;isolation:auto;mix-blend-mode:normal;color-interpolation:sRGB;color-interpolation-filters:linearRGB;solid-color:#000000;solid-opacity:1;fill:#000000;fill-opacity:1;fill-rule:evenodd;stroke:none;stroke-width:70;stroke-linecap:round;stroke-linejoin:round;stroke-miterlimit:4;stroke-dasharray:none;stroke-dashoffset:0;stroke-opacity:1;color-rendering:auto;image-rendering:auto;shape-rendering:auto;text-rendering:auto;enable-background:accumulate"
       d="m -2992.8164,791.68945 c -59.9025,-1.62095 -118.8759,14.55793 -170.1543,43.57032 -51.1902,28.96251 -94.1573,70.17106 -126.9941,117.73046 -65.6132,95.03077 -88.9597,211.46827 -85.8262,322.94137 5.2639,187.2605 84.39,370.3382 217.1738,502.4844 a 35.0035,35.0035 0 1 0 49.3789,-49.6152 c -119.6492,-119.0748 -191.8368,-286.0988 -196.5801,-454.836 -2.8176,-100.2372 18.735,-201.9463 73.4571,-281.20308 27.3305,-39.58438 62.8839,-73.39382 103.8613,-96.57813 40.8894,-23.13443 87.8353,-35.76308 133.791,-34.51953 46.0236,1.24539 92.3443,16.39952 132.5918,41.37696 40.3491,25.04045 75.2236,59.98721 103.0293,100.13668 55.7108,80.4424 82.9047,180.5776 97.5664,282.7422 13.9952,97.5201 17.5279,203.9689 59.0645,304.961 20.8357,50.6597 51.5483,99.1707 95.0781,136.5664 43.8043,37.6314 100.1948,62.7686 160.4453,63.2226 60.4775,0.4559 117.5519,-24.0425 161.8516,-61.6719 44.0265,-37.3972 74.9326,-86.4615 95.0918,-137.9707 40.1705,-102.6402 38.6933,-210.9655 42.7207,-311.1093 3.9944,-99.3248 14.4173,-197.452 57.332,-278.3907 21.3762,-40.31623 50.8984,-75.94803 86.9297,-100.66207 a 35.0035,35.0035 0 0 0 0,0 c 35.8234,-24.57147 79.1944,-38.3651 120.6934,-36.1582 37.1725,1.97683 74.636,16.758 106.1738,39.8418 31.6898,23.19499 58.1923,54.837 78.9317,90.41015 41.595,71.34592 60.0113,157.55232 78.6855,245.88082 23.3304,110.3524 48.7175,225.8219 107.668,329.6778 29.5161,51.9999 67.4221,100.4791 115.0293,139.3183 47.7081,38.9216 104.9836,67.6557 167.2597,78.3418 64.2921,11.0321 130.6302,2.1331 190.00005,-22.9179 59.28515,-25.0155 110.80904,-65.5772 150.45312,-115.2383 79.2969,-99.3332 107.66858,-230.2539 94.33203,-353.6035 -12.41286,-114.8066 -59.76358,-225.0313 -134.49023,-313.06839 -74.72664,-88.03718 -175.79417,-152.66589 -287.05857,-183.56641 a 35.0035,35.0035 0 1 0 -18.7305,67.44727 c 97.4798,27.07222 186.9532,84.2878 252.42188,161.41793 65.46867,77.1301 107.38865,174.7119 118.26367,275.295 11.61098,107.3899 -13.94728,220.361 -79.44336,302.4062 -32.75239,41.0281 -75.33185,74.3189 -122.96093,94.416 -47.54446,20.0614 -100.86876,27.0131 -150.94726,18.4199 -48.6034,-8.34 -95.3867,-31.3949 -134.8496,-63.5898 -39.5636,-32.277 -72.3841,-73.7952 -98.4024,-119.6328 -52.1185,-91.8198 -76.8487,-199.8194 -100.0586,-309.6016 -18.6287,-88.1136 -37.463,-182.206 -86.6992,-266.65818 -24.6762,-42.32588 -56.9855,-81.57564 -98.0586,-111.63867 -41.2249,-30.1742 -90.9292,-50.44807 -143.8008,-53.25976 -59.1408,-3.1451 -116.7207,15.89945 -164.0078,48.33398 -47.0793,32.29197 -83.3474,76.87347 -109.1816,125.59766 -51.5061,97.14217 -61.3246,206.29257 -65.4297,308.36917 -4.117,102.3742 -4.2652,202.3088 -37.9629,288.4101 -16.7748,42.8616 -42.0137,81.9207 -75.2246,110.1309 -32.9377,27.9782 -75.1434,45.3333 -116.0039,45.0254 -40.7331,-0.307 -82.5625,-18.1471 -115.3594,-46.3223 -33.0713,-28.411 -58.3784,-67.3599 -75.9551,-110.0957 -35.288,-85.7994 -39.8174,-185.8728 -54.5136,-288.2773 -15.4581,-107.7132 -44.3038,-218.7891 -109.3106,-312.65433 -32.553,-47.0043 -73.9336,-88.89655 -123.6621,-119.75782 -49.83,-30.9243 -107.6597,-50.25272 -167.6113,-51.875 z"
       id="path4139-9-6-5-3-6-56-9"
       inkscape:connector-curvature="0" />
    <path
       style="color:#000000;font-style:normal;font-variant:normal;font-weight:normal;font-stretch:normal;font-size:medium;line-height:normal;font-family:sans-serif;text-indent:0;text-align:start;text-decoration:none;text-decoration-line:none;text-decoration-style:solid;text-decoration-color:#000000;letter-spacing:normal;word-spacing:normal;text-transform:none;direction:ltr;block-progression:tb;writing-mode:lr-tb;baseline-shift:baseline;text-anchor:start;white-space:normal;clip-rule:nonzero;display:inline;overflow:visible;visibility:visible;opacity:1;isolation:auto;mix-blend-mode:normal;color-interpolation:sRGB;color-interpolation-filters:linearRGB;solid-color:#000000;solid-opacity:1;fill:#000000;fill-opacity:1;fill-rule:evenodd;stroke:none;stroke-width:140;stroke-linecap:round;stroke-linejoin:round;stroke-miterlimit:4;stroke-dasharray:none;stroke-dashoffset:0;stroke-opacity:1;color-rendering:auto;image-rendering:auto;shape-rendering:auto;text-rendering:auto;enable-background:accumulate"
       d="m 3459.5586,707.31055 a 70.007,70.007 0 0 0 -14.3867,138.7539 c 91.9501,18.95673 178.4763,70.25423 239.2304,141.83008 60.7542,71.57587 97.3124,165.28557 101.0782,259.09377 3.6958,92.0668 -25.6072,186.2843 -83.8496,251.1406 -29.1694,32.4818 -65.8077,58.2533 -105.3497,73.3906 -39.4169,15.0896 -83.0056,19.8946 -123.3437,13.127 -39.405,-6.6111 -78.6861,-24.6543 -112.8301,-50.5449 -34.3094,-26.0161 -64.2694,-60.2319 -89.0136,-99.0098 -49.6389,-77.7912 -78.1853,-173.5326 -103.4688,-274.4961 -21.1906,-84.62 -41.4082,-179.73241 -94.0996,-268.40234 -26.4599,-44.52695 -61.1393,-86.62235 -106.1699,-119.45508 -45.3399,-33.05819 -100.2687,-55.73655 -160.1309,-58.88672 -66.9989,-3.52571 -130.6246,17.9055 -182.7734,53.63086 -51.7256,35.4354 -90.7144,83.47229 -118.5664,135.14258 -55.3794,102.7379 -66.3778,214.3173 -73.9278,314.6348 -7.1741,95.3232 -13.0324,183.4051 -44.4043,253.7285 a 70.007,70.007 0 0 0 0,0 c -15.5377,34.8297 -37.4012,65.2413 -63.6152,86.1993 -25.7327,20.5732 -57.7029,32.6341 -86.2344,32.4824 -28.5342,-0.1517 -60.459,-12.5224 -86.3711,-33.3692 -26.4017,-21.2408 -48.5929,-51.8277 -65.0429,-86.955 -33.1726,-70.8368 -42.897,-160.1022 -60.2696,-256.7793 -19.1275,-106.4438 -49.9061,-219.27432 -119.4648,-316.55278 -34.8891,-48.79276 -79.2122,-92.64268 -133.1543,-124.91015 -54.1651,-32.40092 -117.0997,-52.30838 -183.0371,-52.42774 -64.6719,-0.11709 -126.7233,18.83238 -180.3438,50.44727 -53.4236,31.49885 -97.4753,74.76384 -131.6914,123.50781 -68.2465,97.22321 -95.5507,211.65439 -104.8769,320.33009 -7.7947,90.829 -4.9069,173.6088 -21.1543,244.3457 -8.0857,35.2028 -20.7555,67.4967 -38.459,93.6113 -17.4741,25.7763 -40.8889,46.2224 -65.4277,56.7461 -35.2009,15.0964 -82.78099,12.6028 -122.25004,-5.957 -40.52001,-19.0541 -76.62913,-54.7196 -102.57422,-97.9297 -52.59718,-87.5978 -64.94695,-204.5876 -80.23047,-328.8906 -16.52338,-134.387 -39.56951,-267.96682 -69.0332,-400.12112 a 70.007,70.007 0 0 0 -138.3125,14.07226 c -3.01939,182.27237 -42.44168,364.21066 -115.14063,531.38476 -27.22909,62.6144 -58.43906,121.1873 -97.61523,170.6445 -38.99192,49.2246 -86.78069,89.7517 -139.58203,113.1192 -81.34915,36.0015 -183.76756143,30.9448 -261.173833,-12.8965 a 70.007,70.007 0 1 0 -68.996097,121.8164 c 117.757577,66.6955 263.07038,73.8724 386.82617,19.1035 78.47038,-34.7275 142.52491,-90.9108 192.66797,-154.2129 49.95881,-63.0695 86.23917,-132.7131 116.25782,-201.7422 22.37463,-51.4513 41.76824,-104.1502 58.33007,-157.7128 13.46352,114.5219 26.69589,242.1206 95.97657,357.5039 37.62176,62.6569 91.79666,119.059 163.02343,152.5527 72.27773,33.9877 158.71792,41.5084 237.00582,7.9336 53.6912,-23.0261 95.8412,-62.1749 126.1309,-106.8555 30.0601,-44.342 48.0541,-93.0725 59.0234,-140.8301 21.8626,-95.1839 17.432,-184.926 24.1934,-263.7148 8.0136,-93.3805 31.7096,-183.1039 79.9785,-251.86719 24.0415,-34.24927 54.2854,-63.34025 88.209,-83.3418 33.7269,-19.88553 72.259,-31.11338 108.9863,-31.04688 37.4624,0.0678 76.8494,11.89257 111.4199,32.57227 34.7938,20.81315 65.8874,50.88025 91.1407,86.19727 50.7262,70.94113 78.1068,162.78653 95.5547,259.88283 15.9734,88.8908 24.4885,191.4819 71.2754,291.3906 23.5296,50.2452 57.0237,98.8104 104.0722,136.6621 47.5383,38.2456 107.6502,63.9376 173.3848,64.2871 65.8166,0.3499 126.4426,-24.7891 174.4023,-63.1328 l 0,0 c 47.4787,-37.9589 81.1443,-87.1792 104.0449,-138.5137 45.5054,-102.005 49.1669,-207.4167 56.1543,-300.2598 7.2788,-96.7141 19.1858,-187.5193 57.5606,-258.71091 19.0249,-35.29445 44.6755,-65.67653 74.4531,-86.07617 29.3544,-20.10971 64.636,-30.98632 96.2949,-29.32032 28.4119,1.49514 58.9194,13.18296 85.0059,32.20313 26.3957,19.24565 49.5993,46.38711 68.2969,77.85156 37.6232,63.31291 56.8907,144.01581 78.6465,230.89261 26.0929,104.196 57.1277,215.2969 121.2558,315.7949 32.1392,50.3667 72.491,97.378 122.4434,135.2558 50.1178,38.0034 109.371,66.1747 174.2558,77.0606 66.6614,11.184 134.6535,3.248 196.5606,-20.4512 61.7823,-23.6513 116.1393,-62.3544 159.4609,-110.5957 86.7396,-96.5895 124.5801,-225.5486 119.5723,-350.2969 -5.0517,-125.8415 -52.7302,-248.05875 -134.2305,-344.07612 -81.5003,-96.01739 -194.3464,-162.91765 -317.6953,-188.34766 a 70.007,70.007 0 0 0 -13.8828,-1.63867 z"
       id="path4139-9-6-5-3-6-7"
       inkscape:connector-curvature="0" />
    <path
       style="color:#000000;font-style:normal;font-variant:normal;font-weight:normal;font-stretch:normal;font-size:medium;line-height:normal;font-family:sans-serif;text-indent:0;text-align:start;text-decoration:none;text-decoration-line:none;text-decoration-style:solid;text-decoration-color:#000000;letter-spacing:normal;word-spacing:normal;text-transform:none;direction:ltr;block-progression:tb;writing-mode:lr-tb;baseline-shift:baseline;text-anchor:start;white-space:normal;clip-rule:nonzero;display:inline;overflow:visible;visibility:visible;opacity:1;isolation:auto;mix-blend-mode:normal;color-interpolation:sRGB;color-interpolation-filters:linearRGB;solid-color:#000000;solid-opacity:1;fill:#000000;fill-opacity:1;fill-rule:evenodd;stroke:none;stroke-width:200;stroke-linecap:round;stroke-linejoin:round;stroke-miterlimit:4;stroke-dasharray:none;stroke-dashoffset:0;stroke-opacity:1;color-rendering:auto;image-rendering:auto;shape-rendering:auto;text-rendering:auto;enable-background:accumulate"
       d="m 8643.668,-762.77344 a 100.01,100.01 0 0 0 -20.5528,198.22071 c 85.2218,17.56959 166.1054,65.52286 222.4141,131.86132 56.3085,66.33839 90.4844,153.93885 93.9746,240.88282 3.4147,85.06366 -24.0574,171.836186 -76.1934,229.892574 -26.1367,29.10474 -58.9777,52.105041 -93.7539,65.417966 -34.5976,13.24463 -72.9568,17.37987 -107.6543,11.5586 -33.9449,-5.69502 -68.9489,-21.568163 -99.6699,-44.863284 -30.9574,-23.474358 -58.688,-54.94766 -81.8476,-91.242188 -46.5341,-72.925545 -74.5482,-165.375638 -99.6582,-265.646488 -21.0695,-84.13631 -41.4899,-182.3378 -97.4102,-276.4414 -28.1232,-47.32606 -65.2613,-92.6249 -114.2852,-128.36914 -49.4656,-36.06636 -109.627,-61.0987 -176.2285,-64.60352 -74.5717,-3.92422 -144.2733,19.76634 -201.3066,58.83789 -56.4287,38.65734 -98.2759,90.47879 -128.0195,145.6582 -59.0233,109.49782 -69.8275,225.52756 -77.4356,326.61719 -7.2141,95.85474 -13.5434,180.225334 -41.8867,243.759768 -13.96,31.292891 -33.2938,57.675284 -54.9512,74.990234 -20.9697,16.765278 -46.798,26.025218 -67.3398,25.916018 -20.5626,-0.10931 -46.4487,-9.62755 -67.7266,-26.746096 C 7332.1594,75.246483 7312.39,48.512888 7297.457,16.625 c -30.2552,-64.606972 -40.2377,-151.01765 -57.9101,-249.36328 -19.4875,-108.44669 -50.9956,-225.77314 -124.5899,-328.69531 -36.9539,-51.68041 -84.1109,-98.48506 -142.1562,-133.20703 -58.3639,-34.91262 -126.3436,-56.55125 -198.3828,-56.68165 -70.66,-0.12794 -137.7514,20.47716 -195.6348,54.60547 -57.6021,33.96256 -104.6134,80.2633 -141.0098,132.11328 -72.5274,103.32178 -100.6054,223.04871 -110.2129,335.00196 -8.016,93.40908 -5.4577,174.69509 -20.5019,240.193357 -7.4677,32.512475 -18.997,61.285276 -34.0527,83.494141 -14.728,21.725282 -34.1279,38.164972 -52.42,46.009762 -25.9679,11.13669 -65.2215,9.71874 -97.6601,-5.53515 -33.9399,-15.95986 -66.1782,-47.181719 -89.6211,-86.224612 -47.8959,-79.767935 -60.7966,-192.060308 -76.1719,-317.109378 -16.6419,-135.35064 -39.8543,-269.88427 -69.5293,-402.98633 a 100.01,100.01 0 0 0 -197.5898,20.10352 c -2.9534,178.28653 -41.5471,356.39957 -112.6563,519.91797 -26.6314,61.239851 -56.7535,117.44025 -93.6191,163.980468 -36.6024,46.207965 -80.9061,83.379192 -128.2071,104.312502 -72.262,31.97999 -165.4885,27.37564 -234.248,-11.56836 a 100.01,100.01 0 1 0 -98.5664,174.02734 c 126.4043,71.5928 280.909,79.22209 413.752,20.43164 83.9708,-37.16179 151.5123,-96.70079 204.0449,-163.01953 52.2694,-65.986495 89.6355,-138.002629 120.2519,-208.406249 6.0194,-13.841823 11.7688,-27.794057 17.3789,-41.800781 13.4021,80.750499 35.6418,165.041736 83.6953,245.07227 40.124,66.82425 98.1717,127.67003 175.9786,164.25781 79.3081,37.29376 174.0748,45.8899 261.5957,8.35547 59.9379,-25.70511 106.1028,-68.86034 139.1386,-117.5918 32.7079,-48.24786 51.8424,-100.49934 63.4297,-150.947266 23.0657,-100.421709 18.306,-191.656904 24.8457,-267.865234 l 0,-0.002 c 7.7325,-90.10214 30.653,-174.53106 74.6407,-237.19532 21.8611,-31.14325 49.1494,-57.19848 78.8945,-74.73632 29.464,-17.37209 62.9541,-26.94433 93.6933,-26.88868 31.3606,0.0568 65.7026,10.14841 96.0743,28.31641 30.6904,18.35865 58.9501,45.47299 82.1386,77.90234 46.6908,65.29739 73.3418,152.64504 90.4297,247.73829 15.6736,87.2224 23.9306,192.670247 73.6348,298.80859 25.0466,53.48477 60.9626,105.90324 112.4355,147.31445 52.1725,41.97391 118.3231,70.5203 192.0293,70.91211 73.8062,0.39234 140.5742,-27.54755 193.2969,-69.69922 52.0353,-41.60199 88.2306,-94.85139 112.709,-149.72265 48.5339,-108.7938832 51.7244,-217.91883 58.6719,-310.23047 7.2207,-95.94189 19.3198,-182.29683 54.0507,-246.72852 17.1334,-31.78533 39.9274,-58.38282 65.002,-75.56054 24.4699,-16.76349 53.6756,-25.37883 77.7617,-24.11133 21.6725,1.14048 46.9494,10.4743 68.9102,26.48633 22.4025,16.33411 43.1474,40.26825 60.1816,68.93359 34.3943,57.87919 53.4571,135.49508 75.334,222.85547 26.2664,104.88873 57.8354,219.280782 125.0684,324.644529 33.7237,52.850121 76.301,102.603771 129.6054,143.023441 53.5408,40.59888 117.0751,70.94026 187.4199,82.74218 72.302,12.13027 145.5217,3.52457 212.2481,-22.01953 66.548,-25.47577 124.7024,-66.95215 171.0566,-118.57031 92.8461,-103.389441 132.5174,-239.791569 127.2286,-371.54297 -5.3273,-132.70589 -55.3901,-261.03032 -141.336,-362.28515 -85.9459,-101.25476 -204.4325,-171.50122 -334.5098,-198.31836 a 100.01,100.01 0 0 0 -19.83,-2.33985 z"
       id="path4139-9-6-5-3-6-6"
       inkscape:connector-curvature="0" />
  </g>
</svg>
