<?xml version="1.0" encoding="UTF-8" standalone="no"?>
<svg
   xmlns:dc="http://purl.org/dc/elements/1.1/"
   xmlns:cc="http://creativecommons.org/ns#"
   xmlns:rdf="http://www.w3.org/1999/02/22-rdf-syntax-ns#"
   xmlns:svg="http://www.w3.org/2000/svg"
   xmlns="http://www.w3.org/2000/svg"
   xmlns:sodipodi="http://sodipodi.sourceforge.net/DTD/sodipodi-0.dtd"
   xmlns:inkscape="http://www.inkscape.org/namespaces/inkscape"
   version="1.1"
   id="svg2992"
   height="2048"
   width="4000"
   inkscape:version="0.91 r13725"
   sodipodi:docname="n.svg">
  <sodipodi:namedview
     pagecolor="#ffffff"
     bordercolor="#666666"
     borderopacity="1"
     objecttolerance="10"
     gridtolerance="10"
     guidetolerance="10"
     inkscape:pageopacity="0"
     inkscape:pageshadow="2"
     inkscape:window-width="1600"
     inkscape:window-height="851"
     id="namedview33"
     showgrid="true"
     showguides="true"
     inkscape:guide-bbox="true"
     inkscape:snap-grids="false"
     inkscape:zoom="0.327"
     inkscape:cx="219.38774"
     inkscape:cy="1149.5402"
     inkscape:window-x="1599"
     inkscape:window-y="-1"
     inkscape:window-maximized="1"
     inkscape:current-layer="layer1-6">
    <inkscape:grid
       type="xygrid"
       id="grid4162" />
    <sodipodi:guide
       orientation="0,1"
       position="400,600"
       id="guide4164"
       inkscape:label=""
       inkscape:color="rgb(0,0,255)" />
    <sodipodi:guide
       orientation="0,1"
       position="-880,1600"
       id="guide4166" />
  </sodipodi:namedview>
  <defs
     id="defs5498">
    <inkscape:path-effect
       effect="spiro"
       id="path-effect4273-6-1-1"
       is_visible="true" />
    <inkscape:path-effect
       effect="spiro"
       id="path-effect4277-9-3-10"
       is_visible="true" />
    <inkscape:path-effect
       effect="spiro"
       id="path-effect4273-6-1-1-9"
       is_visible="true" />
    <inkscape:path-effect
       effect="spiro"
       id="path-effect4277-9-3-10-7"
       is_visible="true" />
    <inkscape:path-effect
       effect="spiro"
       id="path-effect4273-6-1-1-97"
       is_visible="true" />
    <inkscape:path-effect
       effect="spiro"
       id="path-effect4277-9-3-10-6"
       is_visible="true" />
    <inkscape:path-effect
       effect="spiro"
       id="path-effect4277-9-3-10-1"
       is_visible="true" />
    <inkscape:path-effect
       effect="spiro"
       id="path-effect4273-6-1-1-0"
       is_visible="true" />
    <inkscape:path-effect
       effect="spiro"
       id="path-effect4273-6-1-1-2"
       is_visible="true" />
    <inkscape:path-effect
       effect="spiro"
       id="path-effect4277-9-3-10-8"
       is_visible="true" />
    <inkscape:path-effect
       effect="spiro"
       id="path-effect4277-9-3-10-84"
       is_visible="true" />
    <inkscape:path-effect
       effect="spiro"
       id="path-effect4273-6-1-1-6"
       is_visible="true" />
    <inkscape:path-effect
       effect="spiro"
       id="path-effect4277-9-3-10-11"
       is_visible="true" />
    <inkscape:path-effect
       effect="spiro"
       id="path-effect4273-6-1-1-7"
       is_visible="true" />
  </defs>
  <metadata
     id="metadata5594">
    <rdf:RDF>
      <cc:Work
         rdf:about="">
        <dc:format>image/svg+xml</dc:format>
        <dc:type
           rdf:resource="http://purl.org/dc/dcmitype/StillImage" />
        <dc:title />
      </cc:Work>
    </rdf:RDF>
  </metadata>
  <g
     transform="translate(5944.9542,1347.6942)"
     id="layer1">
    <g
       id="layer1-6"
       transform="translate(-14814.53,16.043327)">
      <path
         style="fill:none;fill-rule:evenodd;stroke:#000000;stroke-width:150;stroke-linecap:round;stroke-linejoin:round;stroke-miterlimit:4;stroke-dasharray:none;stroke-opacity:1"
         d="m 10266.165,28.262473 0.325,-1245.649673 934.159,1247.649673 0.65,-1244.350373"
         id="path4139"
         inkscape:connector-curvature="0"
         sodipodi:nodetypes="cccc" />
      <path
         style="fill:none;fill-rule:evenodd;stroke:#000000;stroke-width:150;stroke-linecap:round;stroke-linejoin:round;stroke-miterlimit:4;stroke-dasharray:none;stroke-opacity:1"
         d="m 9045.1351,-853.42893 c 15.4339,45.79905 19.0028,94.64772 19.3945,142.97581 l 6,740.198416"
         id="path4271-1-7-9"
         inkscape:path-effect="#path-effect4273-6-1-1"
         inkscape:original-d="m 9045.1351,-853.42893 c 0,0 19.1032,107.03889 19.3945,142.97581 l 6,740.198416"
         inkscape:connector-curvature="0"
         sodipodi:nodetypes="csc" />
      <path
         style="fill:none;fill-rule:evenodd;stroke:#000000;stroke-width:150;stroke-linecap:round;stroke-linejoin:round;stroke-miterlimit:4;stroke-dasharray:none;stroke-opacity:1"
         d="m 9067.1792,-339.53585 -0.3847,-87.88466 c -0.2435,-55.63748 0.3343,-111.77118 12.5558,-166.05031 12.2215,-54.27913 36.1457,-106.24429 71.983,-148.80337 35.8373,-42.55908 83.0109,-75.19071 134.8889,-95.29706 51.878,-20.10635 108.0228,-27.95077 163.6534,-27.04047 49.2419,0.80576 98.7122,8.48577 144.5263,26.55457 45.8142,18.0688 87.6056,46.78016 119.546,84.26651 31.9404,37.48636 53.4889,83.30072 64.644,131.26928 11.155,47.96855 11.9502,97.65766 11.9926,146.90616 l 0.4337,503.23586"
         id="path4275-2-8-1"
         inkscape:path-effect="#path-effect4277-9-3-10"
         inkscape:original-d="m 9067.1792,-339.53585 -0.3847,-87.88466 c -0.4769,-108.95531 189.3209,-437.21128 383.0811,-437.19121 172.3694,0.0179 340.5282,179.30552 340.7089,388.99652 l 0.4337,503.23586"
         inkscape:connector-curvature="0"
         sodipodi:nodetypes="csasc" />
      <path
         style="color:#000000;font-style:normal;font-variant:normal;font-weight:normal;font-stretch:normal;font-size:medium;line-height:normal;font-family:sans-serif;text-indent:0;text-align:start;text-decoration:none;text-decoration-line:none;text-decoration-style:solid;text-decoration-color:#000000;letter-spacing:normal;word-spacing:normal;text-transform:none;direction:ltr;block-progression:tb;writing-mode:lr-tb;baseline-shift:baseline;text-anchor:start;white-space:normal;clip-rule:nonzero;display:inline;overflow:visible;visibility:visible;opacity:1;isolation:auto;mix-blend-mode:normal;color-interpolation:sRGB;color-interpolation-filters:linearRGB;solid-color:#000000;solid-opacity:1;fill:#000000;fill-opacity:1;fill-rule:evenodd;stroke:none;stroke-width:150;stroke-linecap:round;stroke-linejoin:round;stroke-miterlimit:4;stroke-dasharray:none;stroke-dashoffset:0;stroke-opacity:1;color-rendering:auto;image-rendering:auto;shape-rendering:auto;text-rendering:auto;enable-background:accumulate"
         d="m 10269.869,260.71094 a 75.0075,75.0075 0 0 0 -77.092,74.93554 l -0.326,1245.65042 a 75.0075,75.0075 0 1 0 150,0.039 l 0.268,-1020.44137 799.181,1067.37307 a 75.0075,75.0075 0 0 0 135.036,-44.9121 l 0.65,-1244.34964 a 75.0075,75.0075 0 1 0 -150,-0.0781 l -0.533,1019.24027 -799.241,-1067.45316 a 75.0075,75.0075 0 0 0 -57.943,-30.0039 z"
         id="path4139-9"
         inkscape:connector-curvature="0" />
      <path
         style="color:#000000;font-style:normal;font-variant:normal;font-weight:normal;font-stretch:normal;font-size:medium;line-height:normal;font-family:sans-serif;text-indent:0;text-align:start;text-decoration:none;text-decoration-line:none;text-decoration-style:solid;text-decoration-color:#000000;letter-spacing:normal;word-spacing:normal;text-transform:none;direction:ltr;block-progression:tb;writing-mode:lr-tb;baseline-shift:baseline;text-anchor:start;white-space:normal;clip-rule:nonzero;display:inline;overflow:visible;visibility:visible;opacity:1;isolation:auto;mix-blend-mode:normal;color-interpolation:sRGB;color-interpolation-filters:linearRGB;solid-color:#000000;solid-opacity:1;fill:#000000;fill-opacity:1;fill-rule:evenodd;stroke:none;stroke-width:150;stroke-linecap:round;stroke-linejoin:round;stroke-miterlimit:4;stroke-dasharray:none;stroke-dashoffset:0;stroke-opacity:1;color-rendering:auto;image-rendering:auto;shape-rendering:auto;text-rendering:auto;enable-background:accumulate"
         d="m -816.62042,468.30559 c -48.93235,26.33225 -89.96009,74.10145 -120.38686,115.31202 -3.26564,-16.49405 -8.31068,-92.46623 -13.95366,-109.21136 -10.30844,-32.08258 -36.74702,-53.35252 -70.41796,-52.00195 -50.4434,2.024 -84.5241,52.29669 -67.7266,99.90429 11.3974,33.82102 15.1037,74.58717 15.4688,119.63282 l 2.2519,277.89257 c 0.01,1.60945 0,3.25874 0.012,4.85938 l 0.3847,87.88474 c -0.015,2.7935 0.1269,5.5856 0.4238,8.3633 l 2.9278,361.1973 c -0.2327,41.8256 33.789,75.761 75.61385,75.4222 41.82488,-0.3387 75.29236,-34.8207 74.38223,-76.6371 l -3.73633,-461.04099 c -0.16451,-53.27293 1.08007,-102.25125 10.72656,-145.09375 9.8674,-43.82412 29.13005,-84.83863 56.18555,-116.96875 27.1165,-32.20251 63.95564,-57.91236 104.62304,-73.67383 41.0056,-15.89255 87.56477,-22.76389 135.32227,-21.98242 42.2685,0.69165 82.81663,7.36471 118.23633,21.33399 35.0697,13.83126 66.72076,35.8448 89.97656,63.13867 23.1757,27.19972 39.96479,62.13981 48.67969,99.61523 8.745,37.6049 10.00117,81.49784 10.04297,129.98243 l 0.43359,503.23632 c -0.55461,41.8359 33.22581,76.0377 75.06537,76.0017 41.83956,-0.036 75.56114,-34.2957 74.93463,-76.1306 l -0.43359,-503.23633 c -0.043,-50.0124 -0.37641,-105.49593 -13.94141,-163.82813 l 0,-0.002 c -13.5953,-58.46167 -39.90232,-115.14889 -80.60742,-162.92187 -40.625,-47.67883 -92.55859,-83.0882 -149.11719,-105.39454 -56.2086,-22.16832 -96.09568,-28.75037 -145.45987,-27.91317 -78.58051,1.33269 -160.70354,15.01695 -229.91075,52.25983 z"
         transform="translate(8869.5758,-1363.7375)"
         id="path4271-1-7-9-1"
         inkscape:connector-curvature="0"
         sodipodi:nodetypes="accccscccccsccsssssssscscsccssaa" />
    </g>
  </g>
</svg>
