<?xml version="1.0" encoding="UTF-8" standalone="no"?>
<svg
   xmlns:dc="http://purl.org/dc/elements/1.1/"
   xmlns:cc="http://creativecommons.org/ns#"
   xmlns:rdf="http://www.w3.org/1999/02/22-rdf-syntax-ns#"
   xmlns:svg="http://www.w3.org/2000/svg"
   xmlns="http://www.w3.org/2000/svg"
   xmlns:sodipodi="http://sodipodi.sourceforge.net/DTD/sodipodi-0.dtd"
   xmlns:inkscape="http://www.inkscape.org/namespaces/inkscape"
   version="1.1"
   id="svg2992"
   height="2048"
   width="4000"
   inkscape:version="0.91 r13725"
   sodipodi:docname="o.svg">
  <sodipodi:namedview
     pagecolor="#ffffff"
     bordercolor="#666666"
     borderopacity="1"
     objecttolerance="10"
     gridtolerance="10"
     guidetolerance="10"
     inkscape:pageopacity="0"
     inkscape:pageshadow="2"
     inkscape:window-width="1366"
     inkscape:window-height="704"
     id="namedview33"
     showgrid="false"
     showguides="true"
     inkscape:guide-bbox="true"
     inkscape:snap-grids="false"
     inkscape:zoom="0.125"
     inkscape:cx="4130.5119"
     inkscape:cy="599.07077"
     inkscape:window-x="-4"
     inkscape:window-y="0"
     inkscape:window-maximized="1"
     inkscape:current-layer="layer1-6">
    <inkscape:grid
       type="xygrid"
       id="grid4162" />
    <sodipodi:guide
       orientation="0,1"
       position="400,0"
       id="guide4164"
       inkscape:label=""
       inkscape:color="rgb(0,0,255)" />
    <sodipodi:guide
       orientation="0,1"
       position="-72,1024"
       id="guide4166"
       inkscape:label=""
       inkscape:color="rgb(0,0,255)" />
    <sodipodi:guide
       position="-440,1384"
       orientation="0,1"
       id="guide4150"
       inkscape:label=""
       inkscape:color="rgb(0,0,255)" />
  </sodipodi:namedview>
  <defs
     id="defs5498">
    <inkscape:path-effect
       effect="spiro"
       id="path-effect4277-0"
       is_visible="true" />
    <inkscape:path-effect
       effect="spiro"
       id="path-effect4277-0-0"
       is_visible="true" />
    <inkscape:path-effect
       effect="spiro"
       id="path-effect4161"
       is_visible="true" />
    <inkscape:path-effect
       effect="spiro"
       id="path-effect4161-2"
       is_visible="true" />
    <inkscape:path-effect
       effect="spiro"
       id="path-effect4161-5"
       is_visible="true" />
    <inkscape:path-effect
       effect="spiro"
       id="path-effect4161-5-6"
       is_visible="true" />
    <inkscape:path-effect
       effect="spiro"
       id="path-effect4161-5-1"
       is_visible="true" />
    <inkscape:path-effect
       effect="spiro"
       id="path-effect4161-52"
       is_visible="true" />
    <inkscape:path-effect
       effect="spiro"
       id="path-effect4161-3"
       is_visible="true" />
    <inkscape:path-effect
       effect="spiro"
       id="path-effect4161-5-2"
       is_visible="true" />
    <inkscape:path-effect
       effect="spiro"
       id="path-effect4161-5-0"
       is_visible="true" />
    <inkscape:path-effect
       effect="spiro"
       id="path-effect4161-8"
       is_visible="true" />
    <inkscape:path-effect
       effect="spiro"
       id="path-effect4161-7"
       is_visible="true" />
    <inkscape:path-effect
       effect="spiro"
       id="path-effect4161-32"
       is_visible="true" />
    <inkscape:path-effect
       effect="spiro"
       id="path-effect4161-5-28"
       is_visible="true" />
  </defs>
  <metadata
     id="metadata5594">
    <rdf:RDF>
      <cc:Work
         rdf:about="">
        <dc:format>image/svg+xml</dc:format>
        <dc:type
           rdf:resource="http://purl.org/dc/dcmitype/StillImage" />
        <dc:title />
      </cc:Work>
    </rdf:RDF>
  </metadata>
  <g
     transform="translate(5944.9542,1347.6942)"
     id="layer1">
    <g
       id="layer1-6"
       transform="translate(-14814.53,16.043327)">
      <path
         style="fill:none;fill-rule:evenodd;stroke:#000000;stroke-width:74.99998474;stroke-linecap:butt;stroke-linejoin:miter;stroke-miterlimit:4;stroke-dasharray:none;stroke-opacity:1"
         d="m 14189.425,136.38572 c 8.698,-113.716367 56.41,-224.866616 136.356,-306.20419 79.945,-81.33757 192.128,-131.3342 306.176,-131.68728 120.448,-0.3729 238.964,54.87241 320.052,143.93766 81.089,89.065239 124.764,209.99598 124.614,330.44476 -0.15,120.33349 -44.02,241.01394 -125.068,329.96023 -81.048,88.94629 -199.265,144.256 -319.598,144.42221 -126.505,0.17473 -250.62,-60.85604 -332.036,-157.68068 -81.415,-96.82465 -120.144,-227.05621 -110.496,-353.19271 z"
         id="path4159"
         inkscape:path-effect="#path-effect4161"
         inkscape:original-d="m 14189.425,136.38572 c 7.971,-207.333024 235.015,-441.79124 442.532,-437.89147 216.735,4.07301 444.666,257.680851 444.666,474.38242 0,216.70158 -227.934,478.63331 -444.666,474.38244 -225.295,-4.41884 -451.186,-285.77505 -442.532,-510.87339 z"
         inkscape:connector-curvature="0"
         sodipodi:nodetypes="aaaaa" />
      <path
         style="fill:none;fill-rule:evenodd;stroke:#000000;stroke-width:75;stroke-linecap:butt;stroke-linejoin:miter;stroke-miterlimit:4;stroke-dasharray:none;stroke-opacity:1"
         d="m 12606.37,-60.513105 c 13.068,-157.416175 84.264,-309.612495 197.827,-419.403935 113.562,-109.79144 268.683,-175.92157 426.581,-180.26205 171.997,-4.72803 344.458,64.45155 466.787,185.45102 122.328,120.99946 193.268,291.92115 194.388,463.978979 1.13,173.515521 -68.804,346.766051 -191.342,469.621241 -122.537,122.85519 -296.374,193.34846 -469.833,188.76315 -176.093,-4.65496 -348.417,-86.69606 -464.454,-219.23219 -116.038,-132.53614 -174.528,-313.36531 -159.954,-488.916215 z"
         id="path4159-53"
         inkscape:path-effect="#path-effect4161-5"
         inkscape:original-d="m 12606.37,-60.513105 c 11.969,-288.322275 335.832,-601.288995 624.408,-599.665985 308.926,1.73734 660.118,340.51238 661.175,649.429999 1.065,311.016511 -350.31,668.471181 -661.175,658.384391 -314.547,-10.20623 -637.46,-393.71796 -624.408,-708.148405 z"
         inkscape:connector-curvature="0"
         sodipodi:nodetypes="aaaaa" />
      <path
         style="color:#000000;font-style:normal;font-variant:normal;font-weight:normal;font-stretch:normal;font-size:medium;line-height:normal;font-family:sans-serif;text-indent:0;text-align:start;text-decoration:none;text-decoration-line:none;text-decoration-style:solid;text-decoration-color:#000000;letter-spacing:normal;word-spacing:normal;text-transform:none;direction:ltr;block-progression:tb;writing-mode:lr-tb;baseline-shift:baseline;text-anchor:start;white-space:normal;clip-rule:nonzero;display:inline;overflow:visible;visibility:visible;opacity:1;isolation:auto;mix-blend-mode:normal;color-interpolation:sRGB;color-interpolation-filters:linearRGB;solid-color:#000000;solid-opacity:1;fill:#000000;fill-opacity:1;fill-rule:evenodd;stroke:none;stroke-width:150;stroke-linecap:butt;stroke-linejoin:miter;stroke-miterlimit:4;stroke-dasharray:none;stroke-dashoffset:0;stroke-opacity:1;color-rendering:auto;image-rendering:auto;shape-rendering:auto;text-rendering:auto;enable-background:accumulate"
         d="m 10685.002,461.10742 c -11.637,-0.29182 -23.296,-0.27977 -34.965,0.041 -171.258,4.70804 -337.062,75.49335 -459.873,194.23242 -122.733,118.66362 -198.5701,280.99573 -212.6523,450.63084 -15.7205,189.3665 46.4563,381.9352 171.9703,525.3028 125.608,143.4757 309.487,231.1366 500.635,236.1894 188.261,4.9765 373.808,-70.3777 506.44,-203.3594 132.536,-132.8868 206.923,-317.4426 205.705,-504.6093 -1.208,-185.58137 -76.677,-367.68742 -208.991,-498.57036 -124.135,-122.79208 -293.721,-195.48015 -468.269,-199.85742 z m -3.857,149.97461 c 135.011,3.59227 270.431,61.35709 366.638,156.52344 102.717,101.60604 163.539,247.90323 164.483,392.90623 0.951,146.2183 -59.019,294.5395 -161.914,397.7071 -102.802,103.0727 -251.257,163.1712 -396.272,159.3378 -147.189,-3.8908 -294.404,-73.8691 -391.738,-185.0488 -97.429,-111.2871 -147.625,-266.1586 -135.344,-414.0879 11.026,-132.81695 71.975,-262.91109 167.43,-355.20115 95.377,-92.21461 227.613,-148.49488 359.732,-152.12695 8.986,-0.24702 17.984,-0.24925 26.985,-0.01 z"
         id="path4159-53-4"
         inkscape:connector-curvature="0" />
      <path
         style="color:#000000;font-style:normal;font-variant:normal;font-weight:normal;font-stretch:normal;font-size:medium;line-height:normal;font-family:sans-serif;text-indent:0;text-align:start;text-decoration:none;text-decoration-line:none;text-decoration-style:solid;text-decoration-color:#000000;letter-spacing:normal;word-spacing:normal;text-transform:none;direction:ltr;block-progression:tb;writing-mode:lr-tb;baseline-shift:baseline;text-anchor:start;white-space:normal;clip-rule:nonzero;display:inline;overflow:visible;visibility:visible;opacity:1;isolation:auto;mix-blend-mode:normal;color-interpolation:sRGB;color-interpolation-filters:linearRGB;solid-color:#000000;solid-opacity:1;fill:#000000;fill-opacity:1;fill-rule:evenodd;stroke:none;stroke-width:150;stroke-linecap:butt;stroke-linejoin:miter;stroke-miterlimit:4;stroke-dasharray:none;stroke-dashoffset:0;stroke-opacity:1;color-rendering:auto;image-rendering:auto;shape-rendering:auto;text-rendering:auto;enable-background:accumulate"
         d="m 8144.9569,-949.91964 c -128.692,0.3999 -251.5282,55.60449 -340.2695,145.9336 -88.4095,89.99128 -139.6033,210.23379 -149.0625,333.91601 -10.5061,137.36912 30.8241,277.92497 120.9023,385.103514 90.4733,107.648775 225.9686,174.810291 368.7656,174.611331 135.7331,-0.18912 264.9424,-61.131919 354.9278,-159.933596 89.6266,-98.407919 136.5881,-228.792209 136.7519,-359.753899 0.164,-131.09667 -46.5831,-261.78229 -136.3027,-360.375 -90.0921,-99.00198 -219.6995,-159.9246 -355.7129,-159.50196 z m 0.4648,150 c 89.8181,-0.27909 182.4059,42.43228 244.3086,110.45704 62.2752,68.43405 97.3607,164.49668 97.2422,259.23242 -0.1184,94.6534 -35.3588,190.5429 -97.6504,258.9375 -61.933,68.00084 -154.3563,110.812259 -244.2383,110.937493 -94.3925,0.131518 -191.5934,-47.192663 -253.7265,-121.121093 -62.5284,-74.39865 -93.7515,-178.02612 -86.1699,-277.15625 6.8468,-89.52409 45.058,-177.68914 106.5019,-240.23242 61.1121,-62.20547 148.5964,-100.79014 233.7324,-101.05469 z"
         id="path4159-0"
         inkscape:connector-curvature="0" />
      <path
         style="fill:none;fill-rule:evenodd;stroke:#000000;stroke-width:150;stroke-linecap:butt;stroke-linejoin:miter;stroke-miterlimit:4;stroke-dasharray:none;stroke-opacity:1"
         d="m 11618.962,1288.3566 c 12.554,-151.2261 80.947,-297.4386 190.041,-402.91546 109.094,-105.47685 258.114,-169.01048 409.803,-173.18054 165.233,-4.54241 330.913,61.92114 448.428,178.16564 117.515,116.24446 185.661,280.44616 186.737,445.73836 1.085,166.6925 -66.094,333.1312 -183.81,451.1584 -117.717,118.0272 -284.717,185.7529 -451.355,181.348 -169.169,-4.4718 -334.716,-83.2915 -446.187,-210.6191 -111.472,-127.3276 -167.658,-301.0471 -153.657,-469.6953 z"
         id="path4159-53-3"
         inkscape:path-effect="#path-effect4161-5-2"
         inkscape:original-d="m 11618.962,1288.3566 c 11.497,-276.9897 322.62,-577.6552 599.844,-576.096 296.773,1.6691 634.149,327.1284 635.165,623.904 1.023,298.7919 -336.529,642.1968 -635.165,632.5064 -302.173,-9.805 -612.383,-378.2427 -599.844,-680.3144 z"
         inkscape:connector-curvature="0"
         sodipodi:nodetypes="aaaaa" />
      <path
         style="color:#000000;font-style:normal;font-variant:normal;font-weight:normal;font-stretch:normal;font-size:medium;line-height:normal;font-family:sans-serif;text-indent:0;text-align:start;text-decoration:none;text-decoration-line:none;text-decoration-style:solid;text-decoration-color:#000000;letter-spacing:normal;word-spacing:normal;text-transform:none;direction:ltr;block-progression:tb;writing-mode:lr-tb;baseline-shift:baseline;text-anchor:start;white-space:normal;clip-rule:nonzero;display:inline;overflow:visible;visibility:visible;opacity:1;isolation:auto;mix-blend-mode:normal;color-interpolation:sRGB;color-interpolation-filters:linearRGB;solid-color:#000000;solid-opacity:1;fill:#000000;fill-opacity:1;fill-rule:evenodd;stroke:none;stroke-width:75;stroke-linecap:butt;stroke-linejoin:miter;stroke-miterlimit:4;stroke-dasharray:none;stroke-dashoffset:0;stroke-opacity:1;color-rendering:auto;image-rendering:auto;shape-rendering:auto;text-rendering:auto;enable-background:accumulate"
         d="m 12465.124,-4509.9362 c -11.632,-0.2956 -23.281,-0.2852 -34.934,0.035 -171.097,4.7033 -337.967,75.8861 -460.845,194.6817 -122.84,118.7579 -199.299,282.3056 -213.415,452.332 -15.749,189.7082 47.005,383.8719 172.575,527.293 125.617,143.4746 310.833,231.7095 501.724,236.7558 188.021,4.9704 374.891,-70.8598 507.539,-203.8476 132.601,-132.9406 207.655,-318.9973 206.434,-506.5039 -1.211,-185.9247 -77.351,-369.4937 -209.727,-500.4278 -124.147,-122.7952 -294.867,-195.885 -469.351,-200.3183 z m -1.928,74.9883 c 154.718,4.0409 308.354,69.6694 418.537,178.6523 117.577,116.2959 186.39,281.9618 187.469,447.5957 1.087,167.0299 -66.756,334.968 -184.535,453.0488 -117.732,118.0338 -286.056,186.2367 -452.455,181.8379 -168.914,-4.4653 -335.799,-83.8579 -447.28,-211.1855 -111.526,-127.3811 -168.288,-302.6964 -154.259,-471.6836 12.586,-151.6157 81.602,-299.0438 190.802,-404.6153 109.162,-105.5338 259.247,-169.4674 410.776,-173.6328 10.311,-0.2834 20.631,-0.2869 30.945,-0.017 z"
         id="path4159-53-1"
         inkscape:connector-curvature="0" />
      <path
         style="fill:none;fill-rule:evenodd;stroke:#000000;stroke-width:150;stroke-linecap:butt;stroke-linejoin:miter;stroke-miterlimit:4;stroke-dasharray:none;stroke-opacity:1"
         d="m 7798.2885,715.10295 c 8.153,-106.60315 52.8562,-210.80706 127.7828,-287.07434 74.9267,-76.26728 180.086,-123.16212 287,-123.49434 112.9157,-0.35087 224.0137,51.46647 300.0111,134.97984 75.9974,83.51336 116.9131,196.88671 116.7719,309.8029 -0.1411,112.80755 -41.2412,225.94511 -117.2003,309.34639 -75.9592,83.4013 -186.7752,135.2792 -299.5827,135.4364 -118.5948,0.1652 -234.943,-57.078 -311.2463,-147.8666 -76.3032,-90.78864 -112.5803,-212.88062 -103.5365,-331.13025 z"
         id="path4159-3"
         inkscape:path-effect="#path-effect4161-8"
         inkscape:original-d="m 7798.2885,715.10295 c 7.4712,-194.39618 220.2774,-414.22518 414.7828,-410.56868 203.1443,3.8189 416.783,241.6025 416.783,444.78274 0,203.18021 -213.6419,448.76839 -416.783,444.78279 -211.1682,-4.1431 -422.8942,-267.94378 -414.7828,-478.99685 z"
         inkscape:connector-curvature="0"
         sodipodi:nodetypes="aaaaa" />
      <path
         style="color:#000000;font-style:normal;font-variant:normal;font-weight:normal;font-stretch:normal;font-size:medium;line-height:normal;font-family:sans-serif;text-indent:0;text-align:start;text-decoration:none;text-decoration-line:none;text-decoration-style:solid;text-decoration-color:#000000;letter-spacing:normal;word-spacing:normal;text-transform:none;direction:ltr;block-progression:tb;writing-mode:lr-tb;baseline-shift:baseline;text-anchor:start;white-space:normal;clip-rule:nonzero;display:inline;overflow:visible;visibility:visible;opacity:1;isolation:auto;mix-blend-mode:normal;color-interpolation:sRGB;color-interpolation-filters:linearRGB;solid-color:#000000;solid-opacity:1;fill:#000000;fill-opacity:1;fill-rule:evenodd;stroke:none;stroke-width:74.99998474;stroke-linecap:butt;stroke-linejoin:miter;stroke-miterlimit:4;stroke-dasharray:none;stroke-dashoffset:0;stroke-opacity:1;color-rendering:auto;image-rendering:auto;shape-rendering:auto;text-rendering:auto;enable-background:accumulate"
         d="m 9262.2695,484.55664 c -126.7222,0.39197 -249.506,55.31721 -337.6211,144.95703 -87.9501,89.47199 -139.6701,210.38926 -149.1582,334.43945 -10.5309,137.68538 31.3453,279.19578 120.9356,385.73048 89.7866,106.7683 225.4243,173.7055 366.0097,173.5117 133.68,-0.1843 262.9521,-60.8847 352.293,-158.9219 89.1627,-97.8414 136.665,-229.0426 136.8281,-360.3515 0.1633,-131.43895 -47.1264,-262.92566 -136.3574,-360.92385 -89.4162,-98.20149 -219.0477,-158.85552 -352.9297,-158.44141 z m 0.2305,75 c 110.7997,-0.34271 221.9256,51.21681 297.2441,133.93555 75.5036,82.92201 116.9532,197.09234 116.8125,310.33591 -0.1406,113.1397 -41.7741,227.0903 -117.2636,309.9278 -75.3113,82.6418 -186.1923,134.2867 -296.961,134.4394 -116.3987,0.1604 -232.8928,-56.8691 -308.5058,-146.7832 -75.8096,-90.1475 -112.6221,-213.1896 -103.5547,-331.74022 8.1807,-106.95679 53.3989,-211.83114 127.8613,-287.58204 74.2974,-75.58305 179.4089,-122.20855 284.3672,-122.5332 z"
         id="path4159-1"
         inkscape:connector-curvature="0" />
      <path
         style="fill:none;fill-rule:evenodd;stroke:#000000;stroke-width:75;stroke-linecap:round;stroke-linejoin:round;stroke-miterlimit:4;stroke-dasharray:none;stroke-opacity:1"
         d="m 12424.455,-3089.0975 c 0,0 68.307,231.2769 539.744,180.2266"
         id="path4229"
         inkscape:connector-curvature="0"
         sodipodi:nodetypes="cc" />
      <path
         style="color:#000000;font-style:normal;font-variant:normal;font-weight:normal;font-stretch:normal;font-size:medium;line-height:normal;font-family:sans-serif;text-indent:0;text-align:start;text-decoration:none;text-decoration-line:none;text-decoration-style:solid;text-decoration-color:#000000;letter-spacing:normal;word-spacing:normal;text-transform:none;direction:ltr;block-progression:tb;writing-mode:lr-tb;baseline-shift:baseline;text-anchor:start;white-space:normal;clip-rule:nonzero;display:inline;overflow:visible;visibility:visible;opacity:1;isolation:auto;mix-blend-mode:normal;color-interpolation:sRGB;color-interpolation-filters:linearRGB;solid-color:#000000;solid-opacity:1;fill:#000000;fill-opacity:1;fill-rule:evenodd;stroke:none;stroke-width:74.99998474;stroke-linecap:butt;stroke-linejoin:miter;stroke-miterlimit:4;stroke-dasharray:none;stroke-dashoffset:0;stroke-opacity:1;color-rendering:auto;image-rendering:auto;shape-rendering:auto;text-rendering:auto;enable-background:accumulate"
         d="m 14797.123,796.38086 c -124.931,0.38677 -245.951,54.5339 -332.805,142.90039 -86.689,88.19855 -137.65,207.36935 -147.002,329.63085 -10.378,135.7024 30.881,275.169 119.186,380.1875 88.502,105.2521 222.189,171.2383 360.789,171.0469 131.79,-0.182 259.201,-60.0217 347.264,-156.666 87.884,-96.4487 134.688,-225.7535 134.849,-355.17 0.162,-129.545 -46.432,-259.1346 -134.384,-355.73823 -88.137,-96.80727 -215.906,-156.60005 -347.897,-156.19141 z m 0.232,75 c 108.906,-0.33717 218.168,50.36038 292.207,131.68364 74.226,81.5268 114.981,193.7998 114.842,305.1523 -0.138,111.2505 -41.073,223.306 -115.285,304.75 -74.033,81.2482 -183.056,132.0293 -291.931,132.1797 -114.411,0.158 -228.954,-55.9193 -303.284,-144.3164 -74.525,-88.6309 -110.722,-209.6266 -101.806,-326.1973 8.044,-105.1713 52.506,-208.3006 125.709,-282.77733 73.036,-74.30865 176.384,-120.15522 279.548,-120.47461 z"
         id="path4159-8"
         inkscape:connector-curvature="0" />
      <path
         style="color:#000000;font-style:normal;font-variant:normal;font-weight:normal;font-stretch:normal;font-size:medium;line-height:normal;font-family:sans-serif;text-indent:0;text-align:start;text-decoration:none;text-decoration-line:none;text-decoration-style:solid;text-decoration-color:#000000;letter-spacing:normal;word-spacing:normal;text-transform:none;direction:ltr;block-progression:tb;writing-mode:lr-tb;baseline-shift:baseline;text-anchor:start;white-space:normal;clip-rule:nonzero;display:inline;overflow:visible;visibility:visible;opacity:1;isolation:auto;mix-blend-mode:normal;color-interpolation:sRGB;color-interpolation-filters:linearRGB;solid-color:#000000;solid-opacity:1;fill:#000000;fill-opacity:1;fill-rule:evenodd;stroke:none;stroke-width:75;stroke-linecap:butt;stroke-linejoin:miter;stroke-miterlimit:4;stroke-dasharray:none;stroke-dashoffset:0;stroke-opacity:1;color-rendering:auto;image-rendering:auto;shape-rendering:auto;text-rendering:auto;enable-background:accumulate"
         d="m 13621.496,992.84375 c -11.4,-0.28958 -22.816,-0.2788 -34.236,0.0352 -167.682,4.60956 -331.195,74.36479 -451.615,190.78709 -120.383,116.3847 -195.303,276.6405 -209.135,443.2617 -15.434,185.9111 46.052,376.1646 169.111,516.7207 123.106,140.6099 304.596,227.072 491.678,232.0176 184.27,4.8712 367.379,-69.4353 497.375,-199.7676 129.948,-130.2848 203.488,-312.5959 202.291,-496.3496 -1.186,-182.2032 -75.789,-362.076 -205.518,-490.3945 -121.665,-120.3432 -288.951,-191.96684 -459.951,-196.31055 z m -1.928,74.98825 c 151.233,3.9513 301.436,68.1137 409.137,174.6446 114.93,113.6803 182.208,275.6478 183.262,437.5605 1.063,163.2778 -65.267,327.471 -180.395,442.8965 -115.08,115.3781 -279.643,182.0574 -442.291,177.7578 -165.104,-4.3646 -328.262,-81.9849 -437.23,-206.4473 -109.016,-124.516 -164.511,-295.9206 -150.797,-461.1113 12.304,-148.2111 79.776,-292.3488 186.519,-395.5469 106.704,-103.1604 253.433,-165.6647 401.547,-169.7363 10.079,-0.2771 20.166,-0.281 30.248,-0.018 z"
         id="path4159-53-8"
         inkscape:connector-curvature="0" />
    </g>
  </g>
</svg>
