<?xml version="1.0" encoding="UTF-8" standalone="no"?>
<svg
   xmlns:dc="http://purl.org/dc/elements/1.1/"
   xmlns:cc="http://creativecommons.org/ns#"
   xmlns:rdf="http://www.w3.org/1999/02/22-rdf-syntax-ns#"
   xmlns:svg="http://www.w3.org/2000/svg"
   xmlns="http://www.w3.org/2000/svg"
   xmlns:sodipodi="http://sodipodi.sourceforge.net/DTD/sodipodi-0.dtd"
   xmlns:inkscape="http://www.inkscape.org/namespaces/inkscape"
   version="1.1"
   id="svg2992"
   height="2048"
   width="4000"
   inkscape:version="0.91pre3 r13670"
   sodipodi:docname="o.svg">
  <sodipodi:namedview
     pagecolor="#ffffff"
     bordercolor="#666666"
     borderopacity="1"
     objecttolerance="10"
     gridtolerance="10"
     guidetolerance="10"
     inkscape:pageopacity="0"
     inkscape:pageshadow="2"
     inkscape:window-width="1600"
     inkscape:window-height="851"
     id="namedview33"
     showgrid="true"
     showguides="true"
     inkscape:guide-bbox="true"
     inkscape:snap-grids="false"
     inkscape:zoom="0.11561196"
     inkscape:cx="552.42098"
     inkscape:cy="1200.7772"
     inkscape:window-x="1599"
     inkscape:window-y="-1"
     inkscape:window-maximized="1"
     inkscape:current-layer="layer1-6">
    <inkscape:grid
       type="xygrid"
       id="grid4162" />
    <sodipodi:guide
       orientation="0,1"
       position="400,600"
       id="guide4164"
       inkscape:label=""
       inkscape:color="rgb(0,0,255)" />
    <sodipodi:guide
       orientation="0,1"
       position="-880,1600"
       id="guide4166" />
  </sodipodi:namedview>
  <defs
     id="defs5498">
    <inkscape:path-effect
       effect="spiro"
       id="path-effect4277-0"
       is_visible="true" />
    <inkscape:path-effect
       effect="spiro"
       id="path-effect4277-0-0"
       is_visible="true" />
    <inkscape:path-effect
       effect="spiro"
       id="path-effect4161"
       is_visible="true" />
    <inkscape:path-effect
       effect="spiro"
       id="path-effect4161-2"
       is_visible="true" />
    <inkscape:path-effect
       effect="spiro"
       id="path-effect4161-5"
       is_visible="true" />
    <inkscape:path-effect
       effect="spiro"
       id="path-effect4161-5-6"
       is_visible="true" />
  </defs>
  <metadata
     id="metadata5594">
    <rdf:RDF>
      <cc:Work
         rdf:about="">
        <dc:format>image/svg+xml</dc:format>
        <dc:type
           rdf:resource="http://purl.org/dc/dcmitype/StillImage" />
        <dc:title />
      </cc:Work>
    </rdf:RDF>
  </metadata>
  <g
     transform="translate(5944.9542,1347.6942)"
     id="layer1">
    <g
       id="layer1-6"
       transform="translate(-14814.53,16.043327)">
      <path
         style="fill:none;fill-rule:evenodd;stroke:#000000;stroke-width:150;stroke-linecap:butt;stroke-linejoin:miter;stroke-miterlimit:4;stroke-dasharray:none;stroke-opacity:1"
         d="m 9035.09,-452.12338 c 8.3711,-108.4879 59.1529,-213.12673 139.1304,-286.90546 79.9775,-73.77873 188.3237,-115.96629 297.134,-115.80016 114.1894,0.17434 227.6339,47.17861 308.4046,127.89631 80.7707,80.7177 127.857,194.17855 127.8601,308.36811 0,114.19192 -47.0793,227.65818 -127.851,308.37828 -80.7716,80.720102 -194.2219,127.722809 -308.4137,127.886157 -120.0017,0.171658 -239.213,-51.61709 -320.8975,-139.526567 -81.6844,-87.90948 -124.599,-210.65054 -115.3669,-330.29667 z"
         id="path4159"
         inkscape:path-effect="#path-effect4161"
         inkscape:original-d="m 9035.09,-452.12338 c 7.6174,-197.75862 238.3987,-406.66142 436.2644,-402.70562 205.616,4.1107 436.2647,230.6074 436.2647,436.26442 0,205.65707 -230.6428,440.070927 -436.2647,436.264437 C 9257.6777,13.744197 9026.8642,-238.56842 9035.09,-452.12338 Z"
         inkscape:connector-curvature="0"
         sodipodi:nodetypes="aaaaa" />
      <path
         style="color:#000000;font-style:normal;font-variant:normal;font-weight:normal;font-stretch:normal;font-size:medium;line-height:normal;font-family:sans-serif;text-indent:0;text-align:start;text-decoration:none;text-decoration-line:none;text-decoration-style:solid;text-decoration-color:#000000;letter-spacing:normal;word-spacing:normal;text-transform:none;direction:ltr;block-progression:tb;writing-mode:lr-tb;baseline-shift:baseline;text-anchor:start;white-space:normal;clip-rule:nonzero;display:inline;overflow:visible;visibility:visible;opacity:1;isolation:auto;mix-blend-mode:normal;color-interpolation:sRGB;color-interpolation-filters:linearRGB;solid-color:#000000;solid-opacity:1;fill:#000000;fill-opacity:1;fill-rule:evenodd;stroke:none;stroke-width:150;stroke-linecap:butt;stroke-linejoin:miter;stroke-miterlimit:4;stroke-dasharray:none;stroke-dashoffset:0;stroke-opacity:1;color-rendering:auto;image-rendering:auto;shape-rendering:auto;text-rendering:auto;enable-background:accumulate"
         d="m 7953.4609,-929.82812 c -196.2311,-2.20773 -387.1195,119.37566 -466.3738,299.21834 -86.4742,182.44655 -48.2457,413.54169 90.4188,559.834389 136.3008,149.583176 365.0353,204.550191 553.9337,131.06894 182.2369,-65.1270046 316.2592,-242.086879 331.2332,-434.791139 19.9323,-203.18496 -95.7989,-411.28795 -279.7,-500.44586 -70.9102,-35.6561 -150.1109,-54.80466 -229.5119,-54.88467 z m -0.2285,150 c 154.8138,-1.02221 303.1569,107.01742 345.3388,256.80921 55.3793,167.50197 -35.9882,366.69534 -199.098,434.013164 -159.639,75.834417 -368.3753,9.711432 -456.2976,-143.206034 -75.3958,-121.98367 -67.9732,-287.45072 19.1675,-401.54448 66.276,-91.43931 178.4601,-145.95488 290.8893,-146.07186 z"
         id="path4159-5"
         inkscape:connector-curvature="0" />
      <path
         style="fill:none;fill-rule:evenodd;stroke:#000000;stroke-width:150;stroke-linecap:butt;stroke-linejoin:miter;stroke-miterlimit:4;stroke-dasharray:none;stroke-opacity:1"
         d="m 10445.732,-656.63945 c 11.925,-154.55216 84.269,-303.62095 198.205,-408.72645 113.936,-105.1055 268.287,-165.2062 423.298,-164.9699 162.675,0.248 324.289,67.2104 439.355,182.2012 115.067,114.9909 182.147,276.62797 182.151,439.30317 0,162.67856 -67.07,324.32331 -182.138,439.31757 -115.067,114.994268 -276.69,181.954394 -439.368,182.186764 -170.955,0.244192 -340.783,-73.534457 -457.151,-198.770674 -116.368,-125.23621 -177.504,-300.09346 -164.352,-470.54168 z"
         id="path4159-53"
         inkscape:path-effect="#path-effect4161-5"
         inkscape:original-d="m 10445.732,-656.63945 c 10.852,-281.72786 339.623,-579.33185 621.503,-573.69635 292.922,5.8561 621.506,328.52442 621.506,621.50437 0,292.98001 -328.575,626.927077 -621.506,621.504334 -304.404,-5.6352516 -633.222,-365.080974 -621.503,-669.312354 z"
         inkscape:connector-curvature="0"
         sodipodi:nodetypes="aaaaa" />
      <path
         style="color:#000000;font-style:normal;font-variant:normal;font-weight:normal;font-stretch:normal;font-size:medium;line-height:normal;font-family:sans-serif;text-indent:0;text-align:start;text-decoration:none;text-decoration-line:none;text-decoration-style:solid;text-decoration-color:#000000;letter-spacing:normal;word-spacing:normal;text-transform:none;direction:ltr;block-progression:tb;writing-mode:lr-tb;baseline-shift:baseline;text-anchor:start;white-space:normal;clip-rule:nonzero;display:inline;overflow:visible;visibility:visible;opacity:1;isolation:auto;mix-blend-mode:normal;color-interpolation:sRGB;color-interpolation-filters:linearRGB;solid-color:#000000;solid-opacity:1;fill:#000000;fill-opacity:1;fill-rule:evenodd;stroke:none;stroke-width:150;stroke-linecap:butt;stroke-linejoin:miter;stroke-miterlimit:4;stroke-dasharray:none;stroke-dashoffset:0;stroke-opacity:1;color-rendering:auto;image-rendering:auto;shape-rendering:auto;text-rendering:auto;enable-background:accumulate"
         d="m 10695.652,809.47266 c -267.285,-2.8458 -527.463,162.56823 -635.321,407.68954 -117.974,248.5043 -65.5318,563.2295 123.114,762.5995 185.795,203.5465 497.315,278.7891 754.642,178.4871 245.631,-87.683 426.926,-324.4908 450.503,-583.8037 30.894,-279.2436 -127.019,-567.5688 -380.233,-690.09044 -96.626,-48.55093 -204.516,-74.75509 -312.705,-74.882 z m -0.228,150 c 229.476,-1.51697 450.238,155.26404 518.345,375.55344 88.293,246.9712 -35.893,545.9014 -272.796,658.1717 -206.248,109.1322 -476.757,61.671 -637.974,-105.4175 -167.623,-168.3139 -205.79,-449.2713 -82.551,-653.6975 93.808,-168.9088 282.694,-275.03582 474.976,-274.61014 z"
         id="path4159-53-6"
         inkscape:connector-curvature="0" />
    </g>
  </g>
</svg>
