<?xml version="1.0" encoding="UTF-8" standalone="no"?>
<svg
   xmlns:dc="http://purl.org/dc/elements/1.1/"
   xmlns:cc="http://creativecommons.org/ns#"
   xmlns:rdf="http://www.w3.org/1999/02/22-rdf-syntax-ns#"
   xmlns:svg="http://www.w3.org/2000/svg"
   xmlns="http://www.w3.org/2000/svg"
   xmlns:sodipodi="http://sodipodi.sourceforge.net/DTD/sodipodi-0.dtd"
   xmlns:inkscape="http://www.inkscape.org/namespaces/inkscape"
   version="1.1"
   id="svg2992"
   height="2048"
   width="4000"
   inkscape:version="0.91 r13725"
   sodipodi:docname="oe.svg">
  <sodipodi:namedview
     pagecolor="#ffffff"
     bordercolor="#666666"
     borderopacity="1"
     objecttolerance="10"
     gridtolerance="10"
     guidetolerance="10"
     inkscape:pageopacity="0"
     inkscape:pageshadow="2"
     inkscape:window-width="1600"
     inkscape:window-height="844"
     id="namedview33"
     showgrid="true"
     showguides="true"
     inkscape:guide-bbox="true"
     inkscape:snap-grids="false"
     inkscape:zoom="0.25"
     inkscape:cx="2206.3322"
     inkscape:cy="400.17578"
     inkscape:window-x="1600"
     inkscape:window-y="0"
     inkscape:window-maximized="1"
     inkscape:current-layer="layer1-6">
    <inkscape:grid
       type="xygrid"
       id="grid4162" />
    <sodipodi:guide
       orientation="0,1"
       position="400,600"
       id="guide4164"
       inkscape:label=""
       inkscape:color="rgb(0,0,255)" />
    <sodipodi:guide
       orientation="0,1"
       position="850.64944,1638.3664"
       id="guide4166" />
    <sodipodi:guide
       position="3280.9754,2019.4969"
       orientation="0,1"
       id="guide4150" />
  </sodipodi:namedview>
  <defs
     id="defs5498">
    <inkscape:path-effect
       effect="spiro"
       id="path-effect4277-0"
       is_visible="true" />
    <inkscape:path-effect
       effect="spiro"
       id="path-effect4277-0-0"
       is_visible="true" />
    <inkscape:path-effect
       effect="spiro"
       id="path-effect4161"
       is_visible="true" />
    <inkscape:path-effect
       effect="spiro"
       id="path-effect4161-2"
       is_visible="true" />
    <inkscape:path-effect
       effect="spiro"
       id="path-effect4161-5"
       is_visible="true" />
    <inkscape:path-effect
       effect="spiro"
       id="path-effect4161-5-6"
       is_visible="true" />
    <inkscape:path-effect
       effect="spiro"
       id="path-effect4161-5-1"
       is_visible="true" />
    <inkscape:path-effect
       effect="spiro"
       id="path-effect4161-52"
       is_visible="true" />
    <inkscape:path-effect
       effect="spiro"
       id="path-effect4161-3"
       is_visible="true" />
    <inkscape:path-effect
       effect="spiro"
       id="path-effect4161-5-2"
       is_visible="true" />
    <inkscape:path-effect
       effect="spiro"
       id="path-effect4161-5-0"
       is_visible="true" />
    <inkscape:path-effect
       effect="spiro"
       id="path-effect4161-8"
       is_visible="true" />
    <inkscape:path-effect
       effect="spiro"
       id="path-effect4161-7"
       is_visible="true" />
    <inkscape:path-effect
       effect="spiro"
       id="path-effect4277-7-2-4-0"
       is_visible="true" />
    <inkscape:path-effect
       effect="spiro"
       id="path-effect4277-7-2-4-0-1"
       is_visible="true" />
    <inkscape:path-effect
       effect="spiro"
       id="path-effect4161-5-2-5"
       is_visible="true" />
    <inkscape:path-effect
       effect="spiro"
       id="path-effect4161-8-1"
       is_visible="true" />
    <inkscape:path-effect
       effect="spiro"
       id="path-effect4277-7-2-4-0-1-4"
       is_visible="true" />
  </defs>
  <metadata
     id="metadata5594">
    <rdf:RDF>
      <cc:Work
         rdf:about="">
        <dc:format>image/svg+xml</dc:format>
        <dc:type
           rdf:resource="http://purl.org/dc/dcmitype/StillImage" />
        <dc:title />
      </cc:Work>
    </rdf:RDF>
  </metadata>
  <g
     transform="translate(5944.9542,1347.6942)"
     id="layer1">
    <g
       id="layer1-6"
       transform="translate(-14814.53,16.043327)">
      <path
         style="fill:none;fill-rule:evenodd;stroke:#000000;stroke-width:150;stroke-linecap:butt;stroke-linejoin:miter;stroke-miterlimit:4;stroke-dasharray:none;stroke-opacity:1"
         d="m 11758.806,-23.329 c -175.555,41.076545 -368.537,0.12154 -512.278,-108.71651 -143.74,-108.83806 -235.495,-283.48175 -243.566,-463.59789 -8.148,-181.83677 69.237,-365.70151 204.962,-486.9845 135.726,-121.2829 327.103,-177.5811 506.882,-149.1115"
         id="path4159-53-3"
         inkscape:path-effect="#path-effect4161-5-2"
         inkscape:original-d="m 11758.806,-23.329 c -302.173,-9.805 90.126,365.83187 -755.844,-572.3144 -205.012,-227.3504 434.62,-637.6552 711.844,-636.096"
         inkscape:connector-curvature="0"
         sodipodi:nodetypes="csc" />
      <path
         style="fill:none;fill-rule:evenodd;stroke:#000000;stroke-width:150;stroke-linecap:butt;stroke-linejoin:miter;stroke-miterlimit:4;stroke-dasharray:none;stroke-opacity:1"
         d="m 9022.2885,-476.89705 c 8.153,-106.60315 52.8562,-210.80706 127.7828,-287.07434 74.9267,-76.26728 180.086,-123.16212 287,-123.49434 112.9157,-0.35087 224.0137,51.46647 300.0111,134.97984 75.9974,83.51336 116.9131,196.88671 116.7719,309.8029 -0.1411,112.80755 -41.2412,225.94511 -117.2003,309.34638 -75.9592,83.40126 -186.7752,135.2792333 -299.5827,135.43641 -118.5948,0.1652402 -234.943,-57.078021 -311.2463,-147.86663 -76.3032,-90.78861 -112.5803,-212.88059 -103.5365,-331.13022 z"
         id="path4159-3"
         inkscape:path-effect="#path-effect4161-8"
         inkscape:original-d="m 9022.2885,-476.89705 c 7.4712,-194.39618 220.2774,-414.22518 414.7828,-410.56868 203.1443,3.8189 416.783,241.6025 416.783,444.78274 0,203.18021 -213.6419,448.76839 -416.783,444.78279 -211.1682,-4.1431 -422.8942,-267.94378 -414.7828,-478.99685 z"
         inkscape:connector-curvature="0"
         sodipodi:nodetypes="aaaaa" />
      <path
         style="fill:none;fill-rule:evenodd;stroke:#000000;stroke-width:150;stroke-linecap:round;stroke-linejoin:round;stroke-miterlimit:4;stroke-dasharray:none;stroke-opacity:1"
         d="m 9871.549,-452.25442 794.16,-1.0684 c 10.354,-106.43223 -24.942,-216.54234 -95.243,-297.12036 -70.301,-80.57802 -174.608,-130.47943 -281.461,-134.65361 -117.01,-4.57097 -234.301,45.72544 -314.3989,131.14619 -80.0974,85.42075 -122.5938,204.03245 -118.7321,321.06828 3.5818,108.55167 46.5627,215.6103 120.0728,295.5638 73.5102,79.953491 177.1132,131.8899 285.2922,141.566696 140.078,12.530265 284.689,-48.210682 373.805,-157.009796"
         id="path4275-3-0-8-3-3"
         inkscape:path-effect="#path-effect4277-7-2-4-0-1"
         inkscape:original-d="m 9871.549,-452.25442 794.16,-1.0684 c 0,0 -185.754,-427.33747 -376.704,-431.77397 -208.67,-4.8481 -431.447,243.495 -433.131,452.21447 -1.603,198.7126 211.125,395.177996 405.365,437.130496 132.101,28.5315 373.805,-157.009796 373.805,-157.009796"
         inkscape:connector-curvature="0"
         sodipodi:nodetypes="ccaaac" />
      <path
         style="fill:none;fill-rule:evenodd;stroke:#000000;stroke-width:150;stroke-linecap:round;stroke-linejoin:round;stroke-miterlimit:4;stroke-dasharray:none;stroke-opacity:1"
         d="m 12539.635,-1235.4127 -827.186,-1.3504 3.025,1226.051106 824.159,-0.7007"
         id="path4139-7"
         inkscape:connector-curvature="0"
         sodipodi:nodetypes="cccc" />
      <path
         style="fill:none;fill-rule:evenodd;stroke:#000000;stroke-width:150;stroke-linecap:round;stroke-linejoin:round;stroke-miterlimit:4;stroke-dasharray:none;stroke-opacity:1"
         d="m 11797.587,-625.51611 659.095,4.8563"
         id="path4141-9"
         inkscape:connector-curvature="0"
         sodipodi:nodetypes="cc" />
      <path
         style="color:#000000;font-style:normal;font-variant:normal;font-weight:normal;font-stretch:normal;font-size:medium;line-height:normal;font-family:sans-serif;text-indent:0;text-align:start;text-decoration:none;text-decoration-line:none;text-decoration-style:solid;text-decoration-color:#000000;letter-spacing:normal;word-spacing:normal;text-transform:none;direction:ltr;block-progression:tb;writing-mode:lr-tb;baseline-shift:baseline;text-anchor:start;white-space:normal;clip-rule:nonzero;display:inline;overflow:visible;visibility:visible;opacity:1;isolation:auto;mix-blend-mode:normal;color-interpolation:sRGB;color-interpolation-filters:linearRGB;solid-color:#000000;solid-opacity:1;fill:#000000;fill-opacity:1;fill-rule:evenodd;stroke:none;stroke-width:150;stroke-linecap:butt;stroke-linejoin:miter;stroke-miterlimit:4;stroke-dasharray:none;stroke-dashoffset:0;stroke-opacity:1;color-rendering:auto;image-rendering:auto;shape-rendering:auto;text-rendering:auto;enable-background:accumulate"
         d="M 3099.4609 2001.1973 C 3097.0684 2001.2031 3094.6769 2001.2212 3092.2852 2001.252 C 2926.4612 2003.3865 2762.9271 2065.4867 2638.4141 2176.75 L 2638.4141 2176.752 C 2485.1681 2313.6915 2399.302 2517.7074 2408.502 2723.0176 C 2417.614 2926.3624 2519.4417 3120.1766 2681.7188 3243.0508 C 2823.7273 3350.5772 3005.4699 3398.8118 3181.4746 3378.1074 A 75.0075 75.0075 0 0 0 3196.002 3379.5918 L 4020.1621 3378.8906 A 75.0075 75.0075 0 1 0 4020.0332 3228.8906 L 3270.7539 3229.5273 L 3269.6055 2764.334 A 75.0075 75.0075 0 0 0 3277.5 2764.7852 L 3936.5938 2769.6426 A 75.0075 75.0075 0 1 0 3937.6992 2619.6465 L 3278.6035 2614.7891 A 75.0075 75.0075 0 0 0 3269.2383 2615.2441 L 3268.0996 2153.6641 L 4019.9766 2154.8906 A 75.0075 75.0075 0 1 0 4020.2227 2004.8906 L 3193.0371 2003.541 A 75.0075 75.0075 0 0 0 3176.625 2005.3945 C 3150.9528 2002.5247 3125.1858 2001.1349 3099.4609 2001.1973 z M 3101.918 2151.3965 C 3107.3133 2151.3834 3112.7067 2151.4596 3118.0938 2151.6113 L 3120.7598 3232.166 C 2996.9862 3236.1744 2870.3345 3197.7193 2772.2676 3123.4648 C 2647.0646 3028.6629 2565.3816 2873.1902 2558.3516 2716.3027 C 2551.2556 2557.9393 2620.1593 2394.2279 2738.3633 2288.6016 C 2836.2518 2201.1297 2969.9357 2151.7166 3101.918 2151.3965 z "
         transform="translate(8869.5758,-1363.7375)"
         id="path4159-53-3-3" />
      <path
         style="color:#000000;font-style:normal;font-variant:normal;font-weight:normal;font-stretch:normal;font-size:medium;line-height:normal;font-family:sans-serif;text-indent:0;text-align:start;text-decoration:none;text-decoration-line:none;text-decoration-style:solid;text-decoration-color:#000000;letter-spacing:normal;word-spacing:normal;text-transform:none;direction:ltr;block-progression:tb;writing-mode:lr-tb;baseline-shift:baseline;text-anchor:start;white-space:normal;clip-rule:nonzero;display:inline;overflow:visible;visibility:visible;opacity:1;isolation:auto;mix-blend-mode:normal;color-interpolation:sRGB;color-interpolation-filters:linearRGB;solid-color:#000000;solid-opacity:1;fill:#000000;fill-opacity:1;fill-rule:evenodd;stroke:none;stroke-width:150;stroke-linecap:butt;stroke-linejoin:miter;stroke-miterlimit:4;stroke-dasharray:none;stroke-dashoffset:0;stroke-opacity:1;color-rendering:auto;image-rendering:auto;shape-rendering:auto;text-rendering:auto;enable-background:accumulate"
         d="M 972.62305 1698.3105 C 843.93125 1698.7105 721.09482 1753.915 632.35352 1844.2441 C 543.94402 1934.2354 492.75022 2054.4779 483.29102 2178.1602 C 472.78492 2315.5293 514.11516 2456.0852 604.19336 2563.2637 C 694.66676 2670.9124 830.16188 2738.0739 972.95898 2737.875 C 1108.6921 2737.686 1237.9027 2676.7428 1327.8887 2577.9414 C 1352.8776 2550.504 1374.5465 2520.578 1392.8125 2488.8496 C 1411.0259 2519.2482 1432.3213 2547.8996 1456.5195 2574.2188 C 1542.8405 2668.106 1662.6738 2728.3066 1790.3398 2739.7266 C 1956.4038 2754.5814 2123.2016 2684.5216 2228.8496 2555.5391 A 75.0075 75.0075 0 1 0 2112.8066 2460.4902 C 2040.2226 2549.1058 1917.7971 2600.5281 1803.7051 2590.3223 C 1715.0131 2582.3886 1627.6404 2538.7151 1566.9414 2472.6953 C 1519.2004 2420.7701 1486.5017 2353.6439 1473.1777 2283.4336 L 2201.5938 2282.4531 A 75.0075 75.0075 0 0 0 2276.1406 2214.7148 C 2288.5676 2086.9722 2247.1407 1957.7393 2162.7637 1861.0273 C 2078.3867 1764.3155 1955.9648 1705.7463 1827.7168 1700.7363 C 1818.9418 1700.3935 1810.1794 1700.3021 1801.4434 1700.457 C 1670.3964 1702.7817 1544.7777 1760.5048 1455.6797 1855.5254 C 1430.7042 1882.1608 1408.9291 1911.2959 1390.4785 1942.2656 C 1372.8245 1912.2574 1352.0873 1883.9108 1328.3379 1857.8125 C 1238.2459 1758.8109 1108.6365 1697.8878 972.62305 1698.3105 z M 973.08789 1848.3105 L 973.08984 1848.3105 C 1062.9073 1848.032 1155.4929 1890.7449 1217.3965 1958.7695 C 1279.6705 2027.2036 1314.7567 2123.2647 1314.6387 2218 C 1314.5207 2312.6535 1279.2822 2408.5429 1216.9902 2476.9375 C 1155.0562 2544.9388 1062.6341 2587.7518 972.75195 2587.877 C 878.35935 2588.0085 781.15859 2540.6824 719.02539 2466.7539 C 656.49709 2392.3554 625.27397 2288.7278 632.85547 2189.5977 C 639.70227 2100.0736 677.91538 2011.9085 739.35938 1949.3652 C 800.47081 1887.1603 887.95251 1848.5757 973.08789 1848.3105 z M 1808.6719 1850.4043 C 1813.0757 1850.3787 1817.4731 1850.4516 1821.8613 1850.623 C 1907.3193 1853.9614 1993.5123 1895.1944 2049.7363 1959.6387 C 2091.2063 2007.1704 2117.891 2069.1478 2125.752 2132.5547 L 1475.084 2133.4297 C 1489.239 2067.8892 1520.3196 2005.8827 1565.0996 1958.127 C 1626.1826 1892.9836 1716.1256 1852.2826 1804.2656 1850.4629 C 1805.7346 1850.4326 1807.2039 1850.4128 1808.6719 1850.4043 z "
         transform="translate(8869.5758,-1363.7375)"
         id="path4159-3-5" />
    </g>
  </g>
</svg>
