<?xml version="1.0" encoding="UTF-8" standalone="no"?>
<!-- Created with Inkscape (http://www.inkscape.org/) -->

<svg
   xmlns:dc="http://purl.org/dc/elements/1.1/"
   xmlns:cc="http://creativecommons.org/ns#"
   xmlns:rdf="http://www.w3.org/1999/02/22-rdf-syntax-ns#"
   xmlns:svg="http://www.w3.org/2000/svg"
   xmlns="http://www.w3.org/2000/svg"
   xmlns:sodipodi="http://sodipodi.sourceforge.net/DTD/sodipodi-0.dtd"
   xmlns:inkscape="http://www.inkscape.org/namespaces/inkscape"
   width="2000"
   height="2000"
   id="svg2992"
   version="1.1"
   inkscape:version="0.91 r13725"
   sodipodi:docname="p.svg">
  <defs
     id="defs5498">
    <inkscape:path-effect
       effect="spiro"
       id="path-effect4231"
       is_visible="true" />
    <inkscape:path-effect
       effect="spiro"
       id="path-effect4473"
       is_visible="true" />
    <inkscape:path-effect
       effect="spiro"
       id="path-effect4277"
       is_visible="true" />
    <inkscape:path-effect
       effect="spiro"
       id="path-effect4273"
       is_visible="true" />
    <inkscape:path-effect
       effect="powerstroke"
       id="path-effect4176"
       is_visible="true"
       offset_points="0,89.748228 | 5.6321604,136.95347 | 12,55.592499"
       sort_points="true"
       interpolator_type="CubicBezierJohan"
       interpolator_beta="0.2"
       start_linecap_type="round"
       linejoin_type="round"
       miter_limit="4"
       end_linecap_type="round" />
    <inkscape:path-effect
       effect="spiro"
       id="path-effect4174"
       is_visible="true" />
    <inkscape:path-effect
       effect="powerstroke"
       id="path-effect4165"
       is_visible="true"
       offset_points="0.08006682,-138.82044 | 8.7788483,-102.82691 | 18,-106.24007"
       sort_points="true"
       interpolator_type="SpiroInterpolator"
       interpolator_beta="0.2"
       start_linecap_type="round"
       linejoin_type="round"
       miter_limit="4"
       end_linecap_type="round" />
    <inkscape:path-effect
       effect="interpolate"
       id="path-effect4163"
       is_visible="true"
       trajectory="M 0,0 0,0"
       equidistant_spacing="true"
       steps="5" />
    <inkscape:path-effect
       effect="powerstroke"
       id="path-effect4161"
       is_visible="true"
       offset_points="0,1 | 9,1 | 18,1"
       sort_points="true"
       interpolator_type="CubicBezierJohan"
       interpolator_beta="0.2"
       start_linecap_type="round"
       linejoin_type="round"
       miter_limit="4"
       end_linecap_type="round" />
    <inkscape:path-effect
       effect="spiro"
       id="path-effect2987"
       is_visible="true" />
    <inkscape:path-effect
       effect="spiro"
       id="path-effect4141-3-4-6"
       is_visible="true" />
    <inkscape:path-effect
       effect="spiro"
       id="path-effect4141-3-4-6-8"
       is_visible="true" />
    <inkscape:path-effect
       effect="spiro"
       id="path-effect4141-3-4-6-8-8"
       is_visible="true" />
    <inkscape:path-effect
       effect="spiro"
       id="path-effect4141-3-4-6-8-86"
       is_visible="true" />
    <inkscape:path-effect
       effect="spiro"
       id="path-effect4141-3-4-6-8-86-6"
       is_visible="true" />
    <inkscape:path-effect
       effect="spiro"
       id="path-effect4141-3-4-6-8-86-2"
       is_visible="true" />
    <inkscape:path-effect
       effect="spiro"
       id="path-effect4141-3-4-6-8-86-2-4"
       is_visible="true" />
    <inkscape:path-effect
       effect="spiro"
       id="path-effect4277-0"
       is_visible="true" />
    <inkscape:path-effect
       effect="spiro"
       id="path-effect4273-2"
       is_visible="true" />
    <inkscape:path-effect
       effect="spiro"
       id="path-effect4273-29"
       is_visible="true" />
    <inkscape:path-effect
       effect="spiro"
       id="path-effect4277-7"
       is_visible="true" />
    <inkscape:path-effect
       effect="spiro"
       id="path-effect4277-7-5"
       is_visible="true" />
    <inkscape:path-effect
       effect="spiro"
       id="path-effect4273-29-6"
       is_visible="true" />
    <inkscape:path-effect
       effect="spiro"
       id="path-effect4273-29-6-8"
       is_visible="true" />
    <inkscape:path-effect
       effect="spiro"
       id="path-effect4277-7-5-3"
       is_visible="true" />
    <inkscape:path-effect
       effect="spiro"
       id="path-effect4273-29-3"
       is_visible="true" />
    <inkscape:path-effect
       effect="spiro"
       id="path-effect4277-7-2"
       is_visible="true" />
    <inkscape:path-effect
       effect="spiro"
       id="path-effect4277-7-2-4"
       is_visible="true" />
    <inkscape:path-effect
       effect="spiro"
       id="path-effect4277-7-2-4-0"
       is_visible="true" />
    <inkscape:path-effect
       effect="spiro"
       id="path-effect4277-7-8"
       is_visible="true" />
    <inkscape:path-effect
       effect="spiro"
       id="path-effect4277-7-5-6"
       is_visible="true" />
    <inkscape:path-effect
       effect="spiro"
       id="path-effect4277-7-8-5"
       is_visible="true" />
    <inkscape:path-effect
       effect="spiro"
       id="path-effect4277-9"
       is_visible="true" />
    <inkscape:path-effect
       effect="spiro"
       id="path-effect4273-6"
       is_visible="true" />
    <inkscape:path-effect
       effect="spiro"
       id="path-effect4273-2-1"
       is_visible="true" />
    <inkscape:path-effect
       effect="spiro"
       id="path-effect4273-2-1-9"
       is_visible="true" />
    <inkscape:path-effect
       effect="spiro"
       id="path-effect4277-7-8-5-6"
       is_visible="true" />
    <inkscape:path-effect
       effect="spiro"
       id="path-effect4273-2-1-9-4"
       is_visible="true" />
    <inkscape:path-effect
       effect="spiro"
       id="path-effect4273-2-4"
       is_visible="true" />
    <inkscape:path-effect
       effect="spiro"
       id="path-effect4273-2-1-2"
       is_visible="true" />
    <inkscape:path-effect
       effect="spiro"
       id="path-effect4273-2-1-2-6"
       is_visible="true" />
    <inkscape:path-effect
       effect="spiro"
       id="path-effect4273-6-1"
       is_visible="true" />
    <inkscape:path-effect
       effect="spiro"
       id="path-effect4277-9-3"
       is_visible="true" />
    <inkscape:path-effect
       effect="spiro"
       id="path-effect4277-9-3-1"
       is_visible="true" />
    <inkscape:path-effect
       effect="spiro"
       id="path-effect4273-6-1-1"
       is_visible="true" />
    <inkscape:path-effect
       effect="spiro"
       id="path-effect4277-9-3-10"
       is_visible="true" />
    <inkscape:path-effect
       effect="spiro"
       id="path-effect4273-6-1-5"
       is_visible="true" />
    <inkscape:path-effect
       effect="spiro"
       id="path-effect4277-9-3-9"
       is_visible="true" />
    <inkscape:path-effect
       effect="spiro"
       id="path-effect4273-63"
       is_visible="true" />
    <inkscape:path-effect
       effect="spiro"
       id="path-effect4277-6"
       is_visible="true" />
    <inkscape:path-effect
       effect="spiro"
       id="path-effect4273-4"
       is_visible="true" />
    <inkscape:path-effect
       effect="spiro"
       id="path-effect4277-5"
       is_visible="true" />
    <inkscape:path-effect
       effect="spiro"
       id="path-effect4277-5-8"
       is_visible="true" />
    <inkscape:path-effect
       effect="spiro"
       id="path-effect4277-5-7"
       is_visible="true" />
    <inkscape:path-effect
       effect="spiro"
       id="path-effect4277-5-9"
       is_visible="true" />
    <inkscape:path-effect
       effect="spiro"
       id="path-effect4277-5-6"
       is_visible="true" />
    <inkscape:path-effect
       effect="spiro"
       id="path-effect4277-5-1"
       is_visible="true" />
    <inkscape:path-effect
       effect="spiro"
       id="path-effect4277-5-93"
       is_visible="true" />
    <inkscape:path-effect
       effect="spiro"
       id="path-effect4277-5-11"
       is_visible="true" />
    <inkscape:path-effect
       effect="spiro"
       id="path-effect4277-5-2"
       is_visible="true" />
  </defs>
  <sodipodi:namedview
     inkscape:window-height="704"
     inkscape:window-width="1366"
     inkscape:pageshadow="2"
     inkscape:pageopacity="0.0"
     borderopacity="1.0"
     bordercolor="#666666"
     pagecolor="#ffffff"
     id="base"
     showgrid="true"
     showguides="true"
     inkscape:guide-bbox="true"
     inkscape:zoom="0.1135"
     inkscape:cx="153.64529"
     inkscape:cy="-1758.0027"
     inkscape:window-x="-4"
     inkscape:window-y="0"
     inkscape:current-layer="layer1"
     inkscape:window-maximized="1">
    <sodipodi:guide
       orientation="horizontal"
       position="800,600"
       id="guide5596" />
    <inkscape:grid
       type="xygrid"
       id="grid3769"
       empspacing="5"
       visible="true"
       enabled="true"
       snapvisiblegridlinesonly="true" />
    <sodipodi:guide
       orientation="0,1"
       position="2480,0"
       id="guide4210" />
    <sodipodi:guide
       orientation="0.0059522755,-0.99998229"
       position="1920,2000"
       id="guide4365" />
    <sodipodi:guide
       orientation="0,1"
       position="1440,0"
       id="guide4367" />
    <sodipodi:guide
       position="3460,1420"
       orientation="0,1"
       id="guide4910" />
  </sodipodi:namedview>
  <metadata
     id="metadata5594">
    <rdf:RDF>
      <cc:Work
         rdf:about="">
        <dc:format>image/svg+xml</dc:format>
        <dc:type
           rdf:resource="http://purl.org/dc/dcmitype/StillImage" />
        <dc:title />
      </cc:Work>
    </rdf:RDF>
  </metadata>
  <g
     inkscape:label="Layer 1"
     inkscape:groupmode="layer"
     id="layer1"
     transform="translate(0,1000)">
    <path
       style="fill:none;fill-rule:evenodd;stroke:#000000;stroke-width:150;stroke-linecap:round;stroke-linejoin:round;stroke-miterlimit:4;stroke-dasharray:none;stroke-opacity:1"
       d="m 177.20442,934.43632 0,-1278"
       id="path4271"
       inkscape:path-effect="#path-effect4273"
       inkscape:original-d="m 177.20442,934.43632 0,-1278"
       inkscape:connector-curvature="0"
       sodipodi:nodetypes="cc" />
    <path
       style="fill:none;fill-rule:evenodd;stroke:#000000;stroke-width:150;stroke-linecap:round;stroke-linejoin:round;stroke-miterlimit:4;stroke-dasharray:none;stroke-opacity:1"
       d="m 177.20442,282.43632 c 39.21449,82.3039 103.14113,152.63802 181.33652,199.51219 78.1954,46.87418 170.35689,70.10698 261.42848,65.90297 116.00731,-5.35508 229.59051,-56.08004 309.91414,-139.95189 80.32364,-83.87186 126.18534,-200.16977 123.21584,-316.262648 -2.7662,-108.146526 -47.6136,-214.421872 -122.09052,-292.885282 -74.47695,-78.4634 -177.7145,-128.65239 -285.27346,-140.2452 -91.28361,-9.83864 -185.34885,7.77571 -266.88773,49.97653 -81.53887,42.20082 -150.2383,108.82606 -194.91827,189.03327"
       id="path4275"
       inkscape:path-effect="#path-effect4277"
       inkscape:original-d="m 177.20442,282.43632 c 0,0 272.272,288.68835 442.765,265.41516 C 827.73344,519.49055 1052.6074,301.3276 1053.0994,91.636942 1053.5644,-106.56216 841.10344,-308.11297 645.73542,-341.49354 c -170.855,-29.19205 -461.806,239.0098 -461.806,239.0098"
       inkscape:connector-curvature="0"
       sodipodi:nodetypes="caaac" />
    <path
       style="fill:none;fill-rule:evenodd;stroke:#000000;stroke-width:75;stroke-linecap:round;stroke-linejoin:round;stroke-miterlimit:4;stroke-dasharray:none;stroke-opacity:1"
       d="m 1972.2569,363.30829 -1.8939,-1324.2837 293.0875,-4.89669 c 59.4151,-0.99266 119.2862,-1.28228 177.651,9.8842 58.3648,11.16649 114.9237,33.90075 162.4183,69.61347 47.4946,35.71271 85.3787,84.0272 108.8903,138.60135 23.5116,54.57416 32.7449,114.93511 28.9312,174.23596 -3.7913,58.95277 -20.4332,117.1775 -49.463,168.62725 -29.0297,51.44975 -70.435,95.78917 -119.526,128.65066 -49.091,32.86149 -105.4786,54.0278 -163.4408,65.43776 -57.9622,11.40996 -117.3368,13.12356 -176.4001,14.27471 l -230.8069,4.49843"
       id="path4275-7"
       inkscape:path-effect="#path-effect4277-5"
       inkscape:original-d="m 1972.2569,363.30829 -1.8939,-1324.2837 293.0875,-4.89669 c 193.3266,-3.22996 483.0223,186.49316 477.8908,392.33498 -5.2553,210.80573 -298.3039,372.88722 -508.8299,376.99038 l -230.8069,4.49843"
       inkscape:connector-curvature="0"
       sodipodi:nodetypes="ccsasc" />
    <path
       style="color:#000000;font-style:normal;font-variant:normal;font-weight:normal;font-stretch:normal;font-size:medium;line-height:normal;font-family:sans-serif;text-indent:0;text-align:start;text-decoration:none;text-decoration-line:none;text-decoration-style:solid;text-decoration-color:#000000;letter-spacing:normal;word-spacing:normal;text-transform:none;direction:ltr;block-progression:tb;writing-mode:lr-tb;baseline-shift:baseline;text-anchor:start;white-space:normal;clip-rule:nonzero;display:inline;overflow:visible;visibility:visible;opacity:1;isolation:auto;mix-blend-mode:normal;color-interpolation:sRGB;color-interpolation-filters:linearRGB;solid-color:#000000;solid-opacity:1;fill:#000000;fill-opacity:1;fill-rule:evenodd;stroke:none;stroke-width:150;stroke-linecap:round;stroke-linejoin:round;stroke-miterlimit:4;stroke-dasharray:none;stroke-dashoffset:0;stroke-opacity:1;color-rendering:auto;image-rendering:auto;shape-rendering:auto;text-rendering:auto;enable-background:accumulate"
       d="m 2734.2207,623.50781 c -15.0007,0.011 -29.7195,0.23947 -44.1211,0.48047 l -280.9863,4.70313 a 75.0075,75.0075 0 0 0 -73.7442,75.0957 l 1.8164,1271.64449 a 75.0075,75.0075 0 1 0 149.9981,-0.2148 l -0.6543,-459.0586 176.6269,-3.4492 c 57.1349,-1.1154 118.535,-2.5512 182.2813,-15.1328 63.8215,-12.5964 127.2558,-36.1283 184.0078,-74.2129 56.7762,-38.1009 104.3712,-89.1507 138.082,-149.0567 33.6457,-59.7898 52.4934,-126.3926 56.8301,-193.7714 4.3664,-67.8392 -5.961,-137.32318 -33.5644,-201.60747 -27.6954,-64.49854 -71.8904,-121.06045 -128.0782,-163.41211 -56.1708,-42.33899 -121.1049,-68.08736 -186.789,-80.68554 -49.1598,-9.42884 -96.7029,-11.35518 -141.7051,-11.32227 z m -0.1172,150.08789 c 40.6588,0.0795 78.7385,1.86848 113.5684,8.54883 46.3023,8.88076 89.8691,26.85829 124.7558,53.1543 34.8701,26.28336 63.24,62.53454 80.5352,102.8125 17.3872,40.49221 24.6627,86.83627 21.7051,132.78907 -2.9435,45.7314 -15.9234,90.8574 -37.8633,129.8457 -21.8747,38.8725 -53.6051,73.0046 -90.9453,98.0625 -37.3644,25.0741 -82.0891,42.2546 -129.4668,51.6055 -47.4529,9.3657 -99.9763,11.2273 -156.1641,12.3242 l -173.914,3.3945 -0.8399,-588.69921 207.1348,-3.46484 c 14.1013,-0.23597 27.9412,-0.39955 41.4941,-0.37305 z"
       id="path4275-7-3"
       inkscape:connector-curvature="0" />
    <path
       style="fill:none;fill-rule:evenodd;stroke:#000000;stroke-width:75;stroke-linecap:round;stroke-linejoin:round;stroke-miterlimit:4;stroke-dasharray:none;stroke-opacity:1"
       d="m 799.97169,1120.057 c 0,0 96.72229,349.6839 764.27571,272.4973"
       id="path4229"
       inkscape:connector-curvature="0"
       sodipodi:nodetypes="cc" />
    <path
       style="color:#000000;font-style:normal;font-variant:normal;font-weight:normal;font-stretch:normal;font-size:medium;line-height:normal;font-family:sans-serif;text-indent:0;text-align:start;text-decoration:none;text-decoration-line:none;text-decoration-style:solid;text-decoration-color:#000000;letter-spacing:normal;word-spacing:normal;text-transform:none;direction:ltr;block-progression:tb;writing-mode:lr-tb;baseline-shift:baseline;text-anchor:start;white-space:normal;clip-rule:nonzero;display:inline;overflow:visible;visibility:visible;opacity:1;isolation:auto;mix-blend-mode:normal;color-interpolation:sRGB;color-interpolation-filters:linearRGB;solid-color:#000000;solid-opacity:1;fill:#000000;fill-opacity:1;fill-rule:evenodd;stroke:none;stroke-width:150;stroke-linecap:round;stroke-linejoin:round;stroke-miterlimit:4;stroke-dasharray:none;stroke-dashoffset:0;stroke-opacity:1;color-rendering:auto;image-rendering:auto;shape-rendering:auto;text-rendering:auto;enable-background:accumulate"
       d="m 1240.207,1603.9746 a 75.0075,75.0075 0 0 0 -72.3222,96.6289 c 0,0 9.2246,29.9247 30.0097,62.5117 20.7851,32.587 54.9685,73.4223 108.1309,110.6133 106.3248,74.3821 285.5475,131.34 574.459,99 a 75.0075,75.0075 0 1 0 -16.6875,-149.0683 c -263.2289,29.4651 -400.0769,-22.6733 -471.7871,-72.8399 -35.8551,-25.0833 -56.1812,-50.3856 -67.6504,-68.3672 -11.4693,-17.9816 -12.2442,-23.0566 -12.2442,-23.0566 a 75.0075,75.0075 0 0 0 -71.9082,-55.4219 z"
       id="path4229-9"
       inkscape:connector-curvature="0" />
    <path
       style="fill:none;fill-rule:evenodd;stroke:#000000;stroke-width:150;stroke-linecap:round;stroke-linejoin:round;stroke-miterlimit:4;stroke-dasharray:none;stroke-opacity:1"
       d="m 3540.084,926.29615 -1.8157,-1271.64403 280.9857,-4.70205 c 57.0058,-0.95394 114.4511,-1.23008 170.4442,9.50938 55.9931,10.73947 110.2433,32.60144 155.7721,66.91894 45.5288,34.31751 81.811,80.72458 104.3063,133.11282 22.4953,52.388245 31.2978,110.302678 27.6358,167.198688 -3.6401,56.555136 -19.5546,112.418782 -47.3474,161.808002 -27.7927,49.38922 -67.455,91.98045 -114.5131,123.55991 -47.0582,31.57946 -101.1376,51.93502 -156.7372,62.90867 -55.5995,10.97364 -112.5609,12.62249 -169.2223,13.7286 l -221.2767,4.31962"
       id="path4275-7-5"
       inkscape:path-effect="#path-effect4277-5-93"
       inkscape:original-d="m 3540.084,926.29615 -1.8157,-1271.64403 280.9857,-4.70205 c 185.344,-3.10157 463.078,179.08014 458.1584,376.739828 -5.0383,202.426302 -285.9867,358.065122 -487.82,362.005182 l -221.2767,4.31962"
       inkscape:connector-curvature="0"
       sodipodi:nodetypes="ccsasc" />
    <path
       style="fill:none;fill-rule:evenodd;stroke:#000000;stroke-width:150;stroke-linecap:round;stroke-linejoin:round;stroke-miterlimit:4;stroke-dasharray:none;stroke-opacity:1"
       d="m 5012.1846,2415.3246 -1.8157,-1271.644 280.9857,-4.7021 c 57.0058,-0.954 114.4511,-1.2301 170.4443,9.5094 55.9931,10.7394 110.2432,32.6014 155.7721,66.9189 45.5288,34.3175 81.811,80.7246 104.3063,133.1129 22.4953,52.3882 31.2977,110.3027 27.6357,167.1987 -3.6401,56.5551 -19.5546,112.4187 -47.3474,161.8079 -27.7928,49.3892 -67.455,91.9804 -114.5132,123.5599 -47.0582,31.5794 -101.1376,51.935 -156.7371,62.9086 -55.5996,10.9737 -112.561,12.6226 -169.2223,13.7287 l -221.2767,4.3197"
       id="path4275-7-8"
       inkscape:path-effect="#path-effect4277-5-11"
       inkscape:original-d="m 5012.1846,2415.3246 -1.8157,-1271.644 280.9857,-4.7021 c 185.344,-3.1015 463.078,179.0802 458.1584,376.7399 -5.0383,202.4263 -285.9867,358.0651 -487.82,362.0051 l -221.2767,4.3197"
       inkscape:connector-curvature="0"
       sodipodi:nodetypes="ccsasc" />
    <path
       style="color:#000000;font-style:normal;font-variant:normal;font-weight:normal;font-stretch:normal;font-size:medium;line-height:normal;font-family:sans-serif;text-indent:0;text-align:start;text-decoration:none;text-decoration-line:none;text-decoration-style:solid;text-decoration-color:#000000;letter-spacing:normal;word-spacing:normal;text-transform:none;direction:ltr;block-progression:tb;writing-mode:lr-tb;baseline-shift:baseline;text-anchor:start;white-space:normal;clip-rule:nonzero;display:inline;overflow:visible;visibility:visible;opacity:1;isolation:auto;mix-blend-mode:normal;color-interpolation:sRGB;color-interpolation-filters:linearRGB;solid-color:#000000;solid-opacity:1;fill:#000000;fill-opacity:1;fill-rule:evenodd;stroke:none;stroke-width:75;stroke-linecap:round;stroke-linejoin:round;stroke-miterlimit:4;stroke-dasharray:none;stroke-dashoffset:0;stroke-opacity:1;color-rendering:auto;image-rendering:auto;shape-rendering:auto;text-rendering:auto;enable-background:accumulate"
       d="m 1308.0957,2436.1621 c -15.2411,0 -30.343,0.2213 -45.2715,0.4707 l -293.08787,4.8965 a 37.50375,37.50375 0 0 0 -36.87305,37.5488 l 1.89453,1324.2832 a 37.50375,37.50375 0 1 0 74.99999,-0.1074 l -0.7402,-517.9375 224.2246,-4.3711 c 59.2987,-1.1557 120.8862,-2.7627 182.9121,-14.9726 62.0633,-12.2173 123.1224,-34.9654 177.0586,-71.0704 l 0,0 c 53.9488,-36.1133 99.3284,-84.6766 131.3262,-141.3867 31.9658,-56.6534 50.0837,-120.26 54.2246,-184.6485 4.1671,-64.7958 -5.8386,-130.955 -31.9141,-191.4804 -26.1211,-60.6311 -67.9694,-114.0147 -120.793,-153.7344 -52.8143,-39.7128 -114.7083,-64.3831 -177.9082,-76.4746 -47.3484,-9.0588 -94.3294,-11.0224 -140.0527,-11.0176 z m -0.057,75.043 c 43.5573,0.051 85.8168,1.9477 126.0156,9.6387 53.5297,10.2414 104.7529,31.0413 146.9277,62.7539 42.1657,31.7057 76.0862,74.9497 96.9883,123.4668 20.9477,48.6229 29.4076,103.1862 25.9473,156.9921 -3.4418,53.5172 -18.6055,106.3593 -44.6992,152.6055 -26.0617,46.1893 -63.4935,86.3064 -107.7266,115.916 -44.2457,29.6181 -95.9632,49.2041 -149.8242,59.8067 -53.8986,10.61 -111.0588,12.4296 -169.8868,13.5761 l -222.871,4.3438 -0.9942,-694.4024 256.1602,-4.2793 c 14.779,-0.2469 29.4437,-0.435 43.9629,-0.4179 z"
       id="path4275-7-51"
       inkscape:connector-curvature="0" />
  </g>
</svg>
