<?xml version="1.0" encoding="UTF-8" standalone="no"?>
<svg
   xmlns:dc="http://purl.org/dc/elements/1.1/"
   xmlns:cc="http://creativecommons.org/ns#"
   xmlns:rdf="http://www.w3.org/1999/02/22-rdf-syntax-ns#"
   xmlns:svg="http://www.w3.org/2000/svg"
   xmlns="http://www.w3.org/2000/svg"
   xmlns:sodipodi="http://sodipodi.sourceforge.net/DTD/sodipodi-0.dtd"
   xmlns:inkscape="http://www.inkscape.org/namespaces/inkscape"
   version="1.1"
   id="svg2992"
   height="2048"
   width="4000"
   inkscape:version="0.91 r13725"
   sodipodi:docname="r.svg">
  <sodipodi:namedview
     pagecolor="#ffffff"
     bordercolor="#666666"
     borderopacity="1"
     objecttolerance="10"
     gridtolerance="10"
     guidetolerance="10"
     inkscape:pageopacity="0"
     inkscape:pageshadow="2"
     inkscape:window-width="1600"
     inkscape:window-height="851"
     id="namedview33"
     showgrid="true"
     showguides="true"
     inkscape:guide-bbox="true"
     inkscape:snap-grids="false"
     inkscape:zoom="0.46244784"
     inkscape:cx="1616.0776"
     inkscape:cy="-327.80227"
     inkscape:window-x="1599"
     inkscape:window-y="-1"
     inkscape:window-maximized="1"
     inkscape:current-layer="layer1-6">
    <inkscape:grid
       type="xygrid"
       id="grid4162" />
    <sodipodi:guide
       orientation="0,1"
       position="400,600"
       id="guide4164"
       inkscape:label=""
       inkscape:color="rgb(0,0,255)" />
    <sodipodi:guide
       orientation="0,1"
       position="-880,1600"
       id="guide4166" />
  </sodipodi:namedview>
  <defs
     id="defs5498">
    <inkscape:path-effect
       effect="spiro"
       id="path-effect4149"
       is_visible="true" />
    <inkscape:path-effect
       effect="spiro"
       id="path-effect4145"
       is_visible="true" />
    <inkscape:path-effect
       effect="spiro"
       id="path-effect4277-9-3-9"
       is_visible="true" />
    <inkscape:path-effect
       effect="spiro"
       id="path-effect4273-6-1-5"
       is_visible="true" />
    <inkscape:path-effect
       effect="spiro"
       id="path-effect4277-9-3-9-9"
       is_visible="true" />
    <inkscape:path-effect
       effect="spiro"
       id="path-effect4273-6-1-5-3"
       is_visible="true" />
    <inkscape:path-effect
       effect="spiro"
       id="path-effect4149-4"
       is_visible="true" />
    <inkscape:path-effect
       effect="spiro"
       id="path-effect4145-2"
       is_visible="true" />
    <inkscape:path-effect
       effect="spiro"
       id="path-effect4273-6-1-5-9"
       is_visible="true" />
    <inkscape:path-effect
       effect="spiro"
       id="path-effect4277-9-3-9-4"
       is_visible="true" />
    <inkscape:path-effect
       effect="spiro"
       id="path-effect4277-9-3-9-1"
       is_visible="true" />
    <inkscape:path-effect
       effect="spiro"
       id="path-effect4273-6-1-5-6"
       is_visible="true" />
    <inkscape:path-effect
       effect="spiro"
       id="path-effect4273-6-1-5-8"
       is_visible="true" />
    <inkscape:path-effect
       effect="spiro"
       id="path-effect4277-9-3-9-2"
       is_visible="true" />
    <inkscape:path-effect
       effect="spiro"
       id="path-effect4145-1"
       is_visible="true" />
    <inkscape:path-effect
       effect="spiro"
       id="path-effect4149-9"
       is_visible="true" />
  </defs>
  <metadata
     id="metadata5594">
    <rdf:RDF>
      <cc:Work
         rdf:about="">
        <dc:format>image/svg+xml</dc:format>
        <dc:type
           rdf:resource="http://purl.org/dc/dcmitype/StillImage" />
        <dc:title />
      </cc:Work>
    </rdf:RDF>
  </metadata>
  <g
     transform="translate(5944.9542,1347.6942)"
     id="layer1">
    <g
       id="layer1-6"
       transform="translate(-14814.53,16.043327)">
      <path
         inkscape:connector-curvature="0"
         id="path4165-7-7-2-5"
         d="m 9915.4939,36.480232 -3.4191,-1249.437032 311.0822,-5.5615 c 55.893,-0.9993 111.984,-1.7258 167.496,4.8627 55.513,6.5885 110.489,20.5715 160.628,45.2941 50.138,24.7226 95.226,60.2625 128.936,104.857 33.711,44.5946 55.792,98.17535 61.571,153.77823 6.044,58.15372 -5.903,117.88969 -32.834,169.78479 -26.931,51.89511 -68.577,95.70148 -117.804,127.24637 -49.227,31.54489 -105.654,50.83943 -163.251,60.88815 -57.597,10.04872 -116.344,10.9827 -174.809,11.5106 l -250.414,2.26107"
         style="fill:none;fill-rule:evenodd;stroke:#000000;stroke-width:150;stroke-linecap:round;stroke-linejoin:round;stroke-miterlimit:4;stroke-dasharray:none;stroke-opacity:1"
         sodipodi:nodetypes="ccsasc"
         inkscape:path-effect="#path-effect4145"
         inkscape:original-d="m 9915.4939,36.480232 -3.4191,-1249.437032 311.0822,-5.5615 c 450.494,-8.0539 507.544,107.8983 518.631,308.79203 11.253,203.8967 -158.525,366.44867 -488.698,369.42991 l -250.414,2.26107" />
      <path
         style="fill:none;fill-rule:evenodd;stroke:#000000;stroke-width:150;stroke-linecap:round;stroke-linejoin:round;stroke-miterlimit:4;stroke-dasharray:none;stroke-opacity:1"
         d="m 9127.044,-860.91498 0,896.000021"
         id="path4271-1-7-2"
         inkscape:path-effect="#path-effect4273-6-1-5"
         inkscape:original-d="m 9127.044,-860.91498 0,896.000021"
         inkscape:connector-curvature="0"
         sodipodi:nodetypes="cc" />
      <path
         style="fill:none;fill-rule:evenodd;stroke:#000000;stroke-width:150;stroke-linecap:round;stroke-linejoin:round;stroke-miterlimit:4;stroke-dasharray:none;stroke-opacity:1"
         d="m 9127.2064,-376.30748 -0.3154,-49.02162 c -0.3186,-49.52479 -0.2268,-99.2865 7.4663,-148.21117 7.693,-48.92467 23.0332,-96.92047 48.0079,-139.68806 49.9496,-85.53517 140.139,-146.17724 238.1845,-160.2595 70.5936,-10.13935 144.2859,2.56038 207.4134,35.74451"
         id="path4275-2-8-3"
         inkscape:path-effect="#path-effect4277-9-3-9"
         inkscape:original-d="m 9127.2064,-376.30748 -0.3154,-49.02162 c -0.6801,-105.6954 129.8636,-376.96082 293.6587,-448.15873 64.3413,-27.96768 207.4134,35.74451 207.4134,35.74451"
         inkscape:connector-curvature="0"
         sodipodi:nodetypes="csac" />
      <path
         style="fill:none;fill-rule:evenodd;stroke:#000000;stroke-width:150;stroke-linecap:round;stroke-linejoin:round;stroke-miterlimit:4;stroke-dasharray:none;stroke-opacity:1"
         d="m 10255.79,-538.84728 c 83.078,5.28847 163.596,43.64197 220.053,104.81902 59.894,64.90201 90.87,150.52998 134.583,227.26815 53.184,93.36409 126.71,175.071035 213.966,237.77449"
         id="path4147"
         inkscape:path-effect="#path-effect4149"
         inkscape:original-d="m 10255.79,-538.84728 c 0,0 160.073,50.01426 220.053,104.81902 64.996,59.38832 82.45,156.31954 134.583,227.26815 63.135,85.9225 213.966,237.77449 213.966,237.77449"
         inkscape:connector-curvature="0"
         sodipodi:nodetypes="caac" />
      <path
         style="color:#000000;font-style:normal;font-variant:normal;font-weight:normal;font-stretch:normal;font-size:medium;line-height:normal;font-family:sans-serif;text-indent:0;text-align:start;text-decoration:none;text-decoration-line:none;text-decoration-style:solid;text-decoration-color:#000000;letter-spacing:normal;word-spacing:normal;text-transform:none;direction:ltr;block-progression:tb;writing-mode:lr-tb;baseline-shift:baseline;text-anchor:start;white-space:normal;clip-rule:nonzero;display:inline;overflow:visible;visibility:visible;opacity:1;isolation:auto;mix-blend-mode:normal;color-interpolation:sRGB;color-interpolation-filters:linearRGB;solid-color:#000000;solid-opacity:1;fill:#000000;fill-opacity:1;fill-rule:evenodd;stroke:none;stroke-width:150;stroke-linecap:round;stroke-linejoin:round;stroke-miterlimit:4;stroke-dasharray:none;stroke-dashoffset:0;stroke-opacity:1;color-rendering:auto;image-rendering:auto;shape-rendering:auto;text-rendering:auto;enable-background:accumulate"
         d="m -1122.6855,412.64844 c -77.4375,11.12234 -167.9948,70.5619 -207.8418,137.16015 l 0,-50.34961 c 0.5973,-42.27936 -33.8521,-76.6961 -76.1309,-76.05859 -41.3929,0.62417 -74.4539,34.66507 -73.8691,76.05859 0.06,298.66704 -0.2331,597.33302 0,896.00002 -0.5917,41.8362 33.1597,76.0682 75,76.0682 41.8403,0 75.5917,-34.232 75,-76.0682 l 0,-421.29103 c 0.137,-2.04188 0,-89.37695 0,-89.37695 0.5332,-30.45631 2.1579,-59.31661 6.4023,-86.30664 6.4857,-41.24663 19.2868,-80.30178 38.6836,-113.51758 37.9087,-64.91613 109.6223,-113.14716 184.082,-123.8418 54.5994,-7.84211 113.02864,2.22688 161.85354,27.89258 36.75509,19.98061 82.75147,6.03151 102.21718,-30.99881 19.4657,-37.03033 4.87614,-82.82759 -32.42226,-101.77463 -58.0726,-30.52693 -110.7584,-40.55271 -168.80426,-47.24491 -27.8983,-3.21643 -65.2292,0.92869 -84.1703,3.64921 z"
         transform="translate(8869.5758,-1363.7375)"
         id="path4271-1-7-2-7"
         inkscape:connector-curvature="0"
         sodipodi:nodetypes="sccsccsccccsscscas" />
      <path
         style="color:#000000;font-style:normal;font-variant:normal;font-weight:normal;font-stretch:normal;font-size:medium;line-height:normal;font-family:sans-serif;text-indent:0;text-align:start;text-decoration:none;text-decoration-line:none;text-decoration-style:solid;text-decoration-color:#000000;letter-spacing:normal;word-spacing:normal;text-transform:none;direction:ltr;block-progression:tb;writing-mode:lr-tb;baseline-shift:baseline;text-anchor:start;white-space:normal;clip-rule:nonzero;display:inline;overflow:visible;visibility:visible;opacity:1;isolation:auto;mix-blend-mode:normal;color-interpolation:sRGB;color-interpolation-filters:linearRGB;solid-color:#000000;solid-opacity:1;fill:#000000;fill-opacity:1;fill-rule:evenodd;stroke:none;stroke-width:150;stroke-linecap:round;stroke-linejoin:round;stroke-miterlimit:4;stroke-dasharray:none;stroke-dashoffset:0;stroke-opacity:1;color-rendering:auto;image-rendering:auto;shape-rendering:auto;text-rendering:auto;enable-background:accumulate"
         d="m 1404.2637,1636.5527 c -5.471,6e-4 -10.9159,0.028 -16.3321,0.072 -14.443,0.1184 -28.6876,0.3682 -42.7226,0.6191 l -311.082,5.5606 c -40.9708,0.7359 -73.76831,34.216 -73.6602,75.1933 l 3.41992,1249.4375 c -0.46644,41.8302 33.37527,75.9579 75.20788,75.8435 41.8327,-0.1143 75.4873,-34.4266 74.7921,-76.2536 l -1.3691,-500.4043 c 4.6974,0.8146 9.4618,1.1795 14.2285,1.0898 0,0 185.9318,-22.5757 274.4785,0.456 52.739,13.7178 103.9646,41.2871 142.8945,79.419 58.8626,57.656 76.4833,129.1782 124.5313,213.5254 58.584,102.8439 139.2502,192.4868 235.3652,261.5567 33.6278,24.915 81.14,17.4904 105.5636,-16.4959 24.4236,-33.9863 16.3093,-81.3857 -18.0284,-105.3127 -78.397,-56.3371 -144.7805,-130.1079 -192.5645,-213.9922 -59.3083,-96.41 -89.4073,-186.4635 -156.4238,-253.2402 38.81,-12.4898 76.7938,-29.5803 112.4453,-52.4258 59.606,-38.1955 110.3652,-91.2104 143.9082,-155.8477 33.593,-64.7319 48.5013,-138.5699 40.8613,-212.084 -7.298,-70.2132 -34.7028,-136.1699 -76.3398,-191.25 l 0,-0 c -41.551,-54.966 -95.8837,-97.453 -155.5957,-126.8965 -59.582,-29.3787 -122.866,-45.1347 -184.957,-52.5039 -40.7033,-4.8309 -80.3245,-6.0688 -118.6211,-6.0645 z m -0.072,150.0606 c 35.1213,0.031 68.8583,1.1406 101.0137,4.957 48.935,5.8078 95.6028,18.0175 136.2988,38.084 40.564,20.0015 76.4064,48.5938 102.2754,82.8164 l 0,0 c 25.785,34.1088 42.5427,75.3127 46.8027,116.3046 4.447,42.7929 -4.5376,88.4267 -24.8066,127.4844 -20.319,39.1529 -52.8502,73.7503 -91.6992,98.6445 -39.003,24.9935 -85.9218,41.472 -135.6758,50.1524 -49.866,8.6999 -104.4757,9.8737 -162.5957,10.3984 l -250.4141,2.2598 c -4.4521,-0 -8.8954,0.3945 -13.2773,1.1816 l -1.4434,-527.4375 237.2188,-4.2421 c 13.911,-0.2488 27.637,-0.4637 41.166,-0.5567 5.0732,-0.035 10.1194,-0.053 15.1367,-0.049 z"
         transform="translate(8869.5758,-1363.7375)"
         id="path4165-7-7-2-5-5"
         inkscape:connector-curvature="0"
         sodipodi:nodetypes="ssscccscccaascscccsscccssssssccscssscccsss" />
    </g>
  </g>
</svg>
