<?xml version="1.0" encoding="UTF-8" standalone="no"?>
<!-- Created with Inkscape (http://www.inkscape.org/) -->

<svg
   xmlns:dc="http://purl.org/dc/elements/1.1/"
   xmlns:cc="http://creativecommons.org/ns#"
   xmlns:rdf="http://www.w3.org/1999/02/22-rdf-syntax-ns#"
   xmlns:svg="http://www.w3.org/2000/svg"
   xmlns="http://www.w3.org/2000/svg"
   xmlns:sodipodi="http://sodipodi.sourceforge.net/DTD/sodipodi-0.dtd"
   xmlns:inkscape="http://www.inkscape.org/namespaces/inkscape"
   width="2000"
   height="2048"
   id="svg2992"
   version="1.1"
   inkscape:version="0.91 r13725"
   sodipodi:docname="randumaa.svg">
  <defs
     id="defs5498">
    <inkscape:path-effect
       effect="spiro"
       id="path-effect3006"
       is_visible="true" />
    <inkscape:path-effect
       effect="spiro"
       id="path-effect4141-37"
       is_visible="true" />
    <inkscape:path-effect
       effect="spiro"
       id="path-effect4141-37-3"
       is_visible="true" />
    <inkscape:path-effect
       effect="spiro"
       id="path-effect4141-37-3-0"
       is_visible="true" />
    <inkscape:path-effect
       effect="spiro"
       id="path-effect4141-37-3-0-9"
       is_visible="true" />
    <inkscape:path-effect
       effect="spiro"
       id="path-effect4141-37-3-0-9-1"
       is_visible="true" />
    <inkscape:path-effect
       effect="spiro"
       id="path-effect4141-37-3-0-9-8"
       is_visible="true" />
    <inkscape:path-effect
       effect="spiro"
       id="path-effect4141-37-3-0-9-8-9"
       is_visible="true" />
    <inkscape:path-effect
       effect="spiro"
       id="path-effect4141-37-3-0-9-5"
       is_visible="true" />
    <inkscape:path-effect
       effect="spiro"
       id="path-effect4141-37-3-0-9-84"
       is_visible="true" />
    <inkscape:path-effect
       effect="spiro"
       id="path-effect4141-37-3-0-9-84-7"
       is_visible="true" />
    <inkscape:path-effect
       effect="spiro"
       id="path-effect4141-37-3-0-9-4"
       is_visible="true" />
    <inkscape:path-effect
       effect="spiro"
       id="path-effect4141-37-3-0-9-3"
       is_visible="true" />
    <inkscape:path-effect
       effect="spiro"
       id="path-effect4141-37-3-0-9-3-7"
       is_visible="true" />
    <inkscape:path-effect
       effect="spiro"
       id="path-effect4141-37-3-0-9-3-3"
       is_visible="true" />
    <inkscape:path-effect
       effect="spiro"
       id="path-effect4141-37-3-0-9-3-3-2"
       is_visible="true" />
    <inkscape:path-effect
       effect="spiro"
       id="path-effect4141-37-3-0-9-3-1"
       is_visible="true" />
    <inkscape:path-effect
       effect="spiro"
       id="path-effect4141-37-3-0-9-3-1-7"
       is_visible="true" />
  </defs>
  <sodipodi:namedview
     inkscape:window-height="843"
     inkscape:window-width="1600"
     inkscape:pageshadow="2"
     inkscape:pageopacity="0.0"
     borderopacity="1.0"
     bordercolor="#666666"
     pagecolor="#ffffff"
     id="base"
     showgrid="true"
     showguides="true"
     inkscape:guide-bbox="true"
     inkscape:zoom="0.125"
     inkscape:cx="2358.1275"
     inkscape:cy="492.27073"
     inkscape:window-x="1600"
     inkscape:window-y="0"
     inkscape:current-layer="layer1"
     inkscape:window-maximized="1">
    <sodipodi:guide
       orientation="horizontal"
       position="0,600"
       id="guide5596" />
    <inkscape:grid
       type="xygrid"
       id="grid3769"
       empspacing="3"
       visible="true"
       enabled="true"
       snapvisiblegridlinesonly="true"
       spacingx="4px"
       units="px"
       dotted="true"
       spacingy="4px" />
    <sodipodi:guide
       orientation="0,1"
       position="-1040,1600"
       id="guide2985" />
  </sodipodi:namedview>
  <metadata
     id="metadata5594">
    <rdf:RDF>
      <cc:Work
         rdf:about="">
        <dc:format>image/svg+xml</dc:format>
        <dc:type
           rdf:resource="http://purl.org/dc/dcmitype/StillImage" />
        <dc:title />
      </cc:Work>
    </rdf:RDF>
  </metadata>
  <g
     inkscape:label="Layer 1"
     inkscape:groupmode="layer"
     id="layer1"
     transform="translate(0,1048)">
    <path
       style="fill:none;fill-rule:evenodd;stroke:#000000;stroke-width:140;stroke-linecap:round;stroke-linejoin:round;stroke-miterlimit:4;stroke-dasharray:none;stroke-opacity:1"
       d="m 2387.3069,-542.49349 c 107.649,22.19442 207.3337,81.29442 278.4607,165.09084 71.1271,83.79641 113.2461,191.75861 117.6559,301.583239 4.3529,108.408132 -29.2181,219.997051 -101.7092,300.720681 -36.2456,40.36182 -81.743,72.60002 -132.4055,91.99403 -50.6626,19.39401 -106.4534,25.7633 -159.9532,16.78602 -52.1441,-8.74981 -101.4111,-31.85786 -143.5407,-63.80581 -42.1295,-31.94795 -77.2822,-72.56226 -105.7231,-117.13452 -56.8817,-89.144532 -86.6736,-192.563561 -112.3696,-295.14036 -21.479,-85.74291 -41.232,-173.64396 -86.3905,-249.63012 -22.5793,-37.99309 -51.5189,-72.60886 -87.2283,-98.64997 -35.7094,-26.04111 -78.4221,-43.22973 -122.5565,-45.56493 -49.3349,-2.61037 -98.8009,13.5277 -139.5669,41.43619 -40.766,27.90848 -73.1023,67.11481 -96.5501,110.59987 -46.8957,86.97012 -58.337,188.18527 -65.671,286.720622 -7.0072,94.1451058 -11.6294,190.96996 -50.0513,277.203128 -19.2109,43.11658 -46.9999,82.96077 -83.8978,112.39964 -36.8978,29.43888 -83.2778,47.96447 -130.4788,47.55643 -47.0724,-0.40693 -92.9584,-19.59557 -129.5323,-49.23221 C 999.2249,260.80264 971.5451,221.20101 951.64609,178.53949 911.84808,93.216457 902.60455,-2.5400384 885.12335,-95.051173 866.0321,-196.0827 835.49461,-297.2613 775.23112,-380.5689 c -30.13174,-41.65381 -67.56211,-78.35424 -111.40496,-105.20133 -43.84284,-26.8471 -94.21507,-43.62753 -145.58876,-45.55235 -51.59108,-1.93297 -103.39473,11.19201 -148.85221,35.66636 -45.45747,24.47435 -84.6037,60.08915 -114.96123,101.84794 -60.71507,83.51758 -85.17803,189.52091 -83.22931,292.75708 3.26458,172.945489 79.78049,343.32595 206.87708,460.6599"
       id="path4139-9-6-5-3-6"
       inkscape:path-effect="#path-effect4141-37-3-0-9-3"
       inkscape:original-d="m 2387.3069,-542.49349 c -15.5207,188.15091 402.481,262.73278 396.1166,466.674079 -5.9089,189.345681 -204.9517,420.536321 -394.0679,409.500731 -198.9468,-11.60925 -296.2274,-209.31653 -361.6334,-476.08069 -43.6319,-157.31584 -131.9515,-397.31706 -296.1753,-393.84502 -177.4689,3.75206 -205.513,289.62453 -301.788,438.756682 C 1337.3916,45.591435 1335.6174,337.24069 1165.331,339.67149 992.94719,342.13222 930.35522,199.78427 885.12335,-95.051173 845.59889,-288.54982 708.23856,-533.26909 518.2374,-531.32258 333.98514,-529.43496 194.77401,-283.79822 171.19465,-101.0512 149.65443,65.891851 378.07173,359.6087 378.07173,359.6087"
       inkscape:connector-curvature="0"
       sodipodi:nodetypes="caacaaacaac" />
    <path
       style="color:#000000;font-style:normal;font-variant:normal;font-weight:normal;font-stretch:normal;font-size:medium;line-height:normal;font-family:sans-serif;text-indent:0;text-align:start;text-decoration:none;text-decoration-line:none;text-decoration-style:solid;text-decoration-color:#000000;letter-spacing:normal;word-spacing:normal;text-transform:none;direction:ltr;block-progression:tb;writing-mode:lr-tb;baseline-shift:baseline;text-anchor:start;white-space:normal;clip-rule:nonzero;display:inline;overflow:visible;visibility:visible;opacity:1;isolation:auto;mix-blend-mode:normal;color-interpolation:sRGB;color-interpolation-filters:linearRGB;solid-color:#000000;solid-opacity:1;fill:#000000;fill-opacity:1;fill-rule:evenodd;stroke:none;stroke-width:140;stroke-linecap:round;stroke-linejoin:round;stroke-miterlimit:4;stroke-dasharray:none;stroke-dashoffset:0;stroke-opacity:1;color-rendering:auto;image-rendering:auto;shape-rendering:auto;text-rendering:auto;enable-background:accumulate"
       d="m 2483.5605,1019.3105 a 70.007,70.007 0 0 0 -14.3886,138.754 c 91.9498,18.9576 178.4744,70.2562 239.2285,141.832 60.7542,71.5759 97.3134,165.2836 101.0801,259.0918 3.6967,92.0675 -25.6053,186.2858 -83.8477,251.1426 -29.1693,32.4819 -65.8075,58.2536 -105.3496,73.3906 -39.4171,15.0892 -83.006,19.8937 -123.3437,13.125 -39.4039,-6.612 -78.6851,-24.6554 -112.8282,-50.5469 -34.3084,-26.017 -64.2659,-60.2335 -89.0097,-99.0117 -49.638,-77.7922 -78.1847,-173.5325 -103.4766,-274.4961 -21.1969,-84.6169 -41.426,-179.722 -94.1172,-268.3828 -26.4595,-44.5224 -61.1372,-86.6142 -106.1601,-119.4473 -45.3321,-33.0584 -100.2481,-55.7413 -160.1016,-58.9082 -67.0017,-3.5452 -130.6417,17.8646 -182.8086,53.5781 -51.7439,35.4241 -90.7554,83.4585 -118.6211,135.1368 -55.4065,102.7537 -66.3946,214.3771 -73.8652,314.748 -7.1018,95.4156 -12.8403,183.5639 -44.1836,253.9102 -15.5223,34.8379 -37.3935,65.2489 -63.6153,86.1699 -25.7349,20.5325 -57.7259,32.5236 -86.2168,32.2773 -28.4444,-0.2458 -60.2601,-12.7097 -86.0664,-33.6211 -26.2979,-21.3099 -48.3831,-51.9392 -64.7851,-87.1035 -33.072,-70.9032 -42.8961,-160.251 -61.1778,-256.998 -20.0367,-106.0354 -52.50206,-217.5305 -121.95893,-313.5469 -34.82257,-48.1384 -78.62612,-91.4532 -131.56641,-123.8711 -53.12825,-32.5329 -114.64953,-53.376 -179.52344,-55.8066 -65.19034,-2.4426 -128.85098,13.9367 -184.65625,43.9824 -55.64572,29.9596 -102.34032,72.7246 -138.39648,122.3222 -72.02156,99.0705 -98.77207,220.0458 -96.59766,335.2383 3.63773,192.7138 87.75869,380.0278 229.38281,510.7735 a 70.007,70.007 0 1 0 94.96485,-102.8672 C 408.98563,1836.2534 340.07307,1682.8042 337.18164,1529.627 c -1.72303,-91.28 20.45274,-182.3087 69.86133,-250.2735 24.6589,-33.9199 56.25615,-62.386 91.52539,-81.375 35.10969,-18.9031 75.05701,-28.7731 113.04883,-27.3496 37.87347,1.419 77.09687,14.1358 111.65429,35.2969 34.74541,21.2763 65.80323,51.3639 91.24414,86.5332 51.07011,70.5988 79.67852,161.4586 97.82422,257.4863 16.68077,88.2752 25.34319,190.4406 71.86719,290.1836 23.39597,50.1587 56.67177,98.7318 103.52147,136.6953 a 70.007,70.007 0 0 0 0,0 c 47.3416,38.3618 107.2977,64.2738 172.9981,64.8418 65.9111,0.5697 126.6795,-24.4889 174.7402,-62.834 47.574,-37.9568 81.2821,-87.2337 104.1816,-138.6289 45.5005,-102.12 49.0054,-207.6215 55.918,-300.4961 7.1974,-96.6999 19.0917,-187.5069 57.4766,-258.6934 19.0299,-35.2919 44.6924,-65.6695 74.4804,-86.0625 29.3651,-20.1034 64.6562,-30.9705 96.3243,-29.2949 28.4152,1.5035 58.9229,13.1969 85.0097,32.2207 26.3957,19.2491 49.6,46.3897 68.2988,77.8535 37.6261,63.3114 56.903,144.0081 78.6641,230.877 a 70.007,70.007 0 0 0 0,0 c 26.1001,104.19 57.1363,215.2863 121.2617,315.7832 32.138,50.3662 72.485,97.3789 122.4356,135.2578 50.1161,38.0043 109.3695,66.1769 174.2539,77.0645 66.6618,11.1859 134.6546,3.2516 196.5625,-20.4473 61.7831,-23.651 116.141,-62.3559 159.4629,-110.5976 86.7398,-96.5906 124.5793,-225.5501 119.5703,-350.2989 -5.0529,-125.841 -52.7324,-248.0571 -134.2324,-344.0742 -81.4999,-96.0169 -194.3453,-162.9184 -317.6934,-188.3496 a 70.007,70.007 0 0 0 -13.8809,-1.6387 z"
       id="path4139-9-6-5-3-6-5"
       inkscape:connector-curvature="0" />
    <path
       style="fill:none;fill-rule:evenodd;stroke:#000000;stroke-width:70;stroke-linecap:round;stroke-linejoin:round;stroke-miterlimit:4;stroke-dasharray:none;stroke-opacity:1"
       d="m -1124.6931,-558.4935 c 104.3721,28.98637 199.64203,89.90965 269.73969,172.49332 70.09766,82.58367 114.73299,186.48599 126.37691,294.18076 12.47374,115.369791 -14.49121,237.31592 -86.88769,328.00512 -36.19824,45.34461 -83.24936,82.27025 -136.70647,104.82647 -53.45714,22.55622 -113.28844,30.48172 -170.47374,20.66913 -55.4398,-9.51308 -107.4691,-35.40683 -151.0546,-70.96498 -43.5854,-35.55815 -78.9483,-80.55658 -106.7155,-129.47545 -55.5345,-97.837755 -80.5932,-209.572995 -103.8633,-319.64025 -18.6515,-88.22109 -37.2768,-178.37042 -82.6924,-256.26947 -22.7078,-38.94952 -52.1144,-74.39548 -88.4958,-101.02449 -36.3814,-26.629 -79.9651,-44.1568 -124.9871,-46.55106 -50.3199,-2.676 -100.7958,13.7434 -142.351,42.2464 -41.5553,28.503 -74.4512,68.60888 -98.0564,113.12912 -47.2105,89.04047 -57.3308,192.68046 -61.3806,293.38116 -4.0722,101.258983 -3.4084,205.388215 -40.3425,299.75897 -18.467,47.18538 -46.5393,91.24745 -85.158,124.05121 -38.6187,32.80375 -88.2584,53.73091 -138.9274,53.34904 -50.4918,-0.38053 -99.6011,-21.86947 -137.9017,-54.7728 -38.3006,-32.90334 -66.3102,-76.63326 -85.5164,-123.3311 -38.4123,-93.395674 -42.4439,-196.656477 -56.7896,-296.61878 -15.0599,-104.93892 -43.0799,-210.5454 -103.4387,-297.6992 -30.1794,-43.5769 -68.3071,-81.99567 -113.3459,-109.94653 -45.0388,-27.95087 -97.1137,-45.19185 -150.1013,-46.62568 -52.9291,-1.43225 -105.8887,12.9704 -151.9726,39.04381 -46.0838,26.07341 -85.3437,63.58274 -115.4274,107.15463 -60.1675,87.14376 -82.6183,196.21779 -79.6427,302.07294 5.0036,177.998785 80.6605,353.04938 206.877,478.65991"
       id="path4139-9-6-5-3-6-56"
       inkscape:path-effect="#path-effect4141-37-3-0-9-3-3"
       inkscape:original-d="m -1124.6931,-558.4935 c -15.5207,188.15091 397.29898,262.63692 396.1166,466.67408 -1.16049,200.26102 -194.09434,464.28964 -394.0679,453.50072 -210.8443,-11.37542 -296.2274,-253.3165 -361.6334,-520.08068 -43.6319,-157.31584 -129.2733,-407.24661 -296.1753,-403.84502 -180.2274,3.67317 -207.7143,294.98562 -301.788,448.75668 -94.8975,155.117616 -82.6013,474.68772 -264.4279,477.15922 -183.7335,2.49742 -234.9758,-179.8872 -280.2077,-474.72268 -39.5244,-193.49865 -172.2547,-456.27445 -366.8859,-454.27141 -188.9597,1.94467 -323.4038,260.78606 -347.0427,448.27138 -21.7434,172.452378 206.877,478.65991 206.877,478.65991"
       inkscape:connector-curvature="0"
       sodipodi:nodetypes="caacaaacaac" />
    <path
       style="color:#000000;font-style:normal;font-variant:normal;font-weight:normal;font-stretch:normal;font-size:medium;line-height:normal;font-family:sans-serif;text-indent:0;text-align:start;text-decoration:none;text-decoration-line:none;text-decoration-style:solid;text-decoration-color:#000000;letter-spacing:normal;word-spacing:normal;text-transform:none;direction:ltr;block-progression:tb;writing-mode:lr-tb;baseline-shift:baseline;text-anchor:start;white-space:normal;clip-rule:nonzero;display:inline;overflow:visible;visibility:visible;opacity:1;isolation:auto;mix-blend-mode:normal;color-interpolation:sRGB;color-interpolation-filters:linearRGB;solid-color:#000000;solid-opacity:1;fill:#000000;fill-opacity:1;fill-rule:evenodd;stroke:none;stroke-width:70;stroke-linecap:round;stroke-linejoin:round;stroke-miterlimit:4;stroke-dasharray:none;stroke-dashoffset:0;stroke-opacity:1;color-rendering:auto;image-rendering:auto;shape-rendering:auto;text-rendering:auto;enable-background:accumulate"
       d="m -2992.8164,791.68945 c -59.9025,-1.62095 -118.8759,14.55793 -170.1543,43.57032 -51.1902,28.96251 -94.1573,70.17106 -126.9941,117.73046 -65.6132,95.03077 -88.9597,211.46827 -85.8262,322.94137 5.2639,187.2605 84.39,370.3382 217.1738,502.4844 a 35.0035,35.0035 0 1 0 49.3789,-49.6152 c -119.6492,-119.0748 -191.8368,-286.0988 -196.5801,-454.836 -2.8176,-100.2372 18.735,-201.9463 73.4571,-281.20308 27.3305,-39.58438 62.8839,-73.39382 103.8613,-96.57813 40.8894,-23.13443 87.8353,-35.76308 133.791,-34.51953 46.0236,1.24539 92.3443,16.39952 132.5918,41.37696 40.3491,25.04045 75.2236,59.98721 103.0293,100.13668 55.7108,80.4424 82.9047,180.5776 97.5664,282.7422 13.9952,97.5201 17.5279,203.9689 59.0645,304.961 20.8357,50.6597 51.5483,99.1707 95.0781,136.5664 43.8043,37.6314 100.1948,62.7686 160.4453,63.2226 60.4775,0.4559 117.5519,-24.0425 161.8516,-61.6719 44.0265,-37.3972 74.9326,-86.4615 95.0918,-137.9707 40.1705,-102.6402 38.6933,-210.9655 42.7207,-311.1093 3.9944,-99.3248 14.4173,-197.452 57.332,-278.3907 21.3762,-40.31623 50.8984,-75.94803 86.9297,-100.66207 a 35.0035,35.0035 0 0 0 0,0 c 35.8234,-24.57147 79.1944,-38.3651 120.6934,-36.1582 37.1725,1.97683 74.636,16.758 106.1738,39.8418 31.6898,23.19499 58.1923,54.837 78.9317,90.41015 41.595,71.34592 60.0113,157.55232 78.6855,245.88082 23.3304,110.3524 48.7175,225.8219 107.668,329.6778 29.5161,51.9999 67.4221,100.4791 115.0293,139.3183 47.7081,38.9216 104.9836,67.6557 167.2597,78.3418 64.2921,11.0321 130.6302,2.1331 190.00005,-22.9179 59.28515,-25.0155 110.80904,-65.5772 150.45312,-115.2383 79.2969,-99.3332 107.66858,-230.2539 94.33203,-353.6035 -12.41286,-114.8066 -59.76358,-225.0313 -134.49023,-313.06839 -74.72664,-88.03718 -175.79417,-152.66589 -287.05857,-183.56641 a 35.0035,35.0035 0 1 0 -18.7305,67.44727 c 97.4798,27.07222 186.9532,84.2878 252.42188,161.41793 65.46867,77.1301 107.38865,174.7119 118.26367,275.295 11.61098,107.3899 -13.94728,220.361 -79.44336,302.4062 -32.75239,41.0281 -75.33185,74.3189 -122.96093,94.416 -47.54446,20.0614 -100.86876,27.0131 -150.94726,18.4199 -48.6034,-8.34 -95.3867,-31.3949 -134.8496,-63.5898 -39.5636,-32.277 -72.3841,-73.7952 -98.4024,-119.6328 -52.1185,-91.8198 -76.8487,-199.8194 -100.0586,-309.6016 -18.6287,-88.1136 -37.463,-182.206 -86.6992,-266.65818 -24.6762,-42.32588 -56.9855,-81.57564 -98.0586,-111.63867 -41.2249,-30.1742 -90.9292,-50.44807 -143.8008,-53.25976 -59.1408,-3.1451 -116.7207,15.89945 -164.0078,48.33398 -47.0793,32.29197 -83.3474,76.87347 -109.1816,125.59766 -51.5061,97.14217 -61.3246,206.29257 -65.4297,308.36917 -4.117,102.3742 -4.2652,202.3088 -37.9629,288.4101 -16.7748,42.8616 -42.0137,81.9207 -75.2246,110.1309 -32.9377,27.9782 -75.1434,45.3333 -116.0039,45.0254 -40.7331,-0.307 -82.5625,-18.1471 -115.3594,-46.3223 -33.0713,-28.411 -58.3784,-67.3599 -75.9551,-110.0957 -35.288,-85.7994 -39.8174,-185.8728 -54.5136,-288.2773 -15.4581,-107.7132 -44.3038,-218.7891 -109.3106,-312.65433 -32.553,-47.0043 -73.9336,-88.89655 -123.6621,-119.75782 -49.83,-30.9243 -107.6597,-50.25272 -167.6113,-51.875 z"
       id="path4139-9-6-5-3-6-56-9"
       inkscape:connector-curvature="0" />
    <path
       style="fill:none;fill-rule:evenodd;stroke:#000000;stroke-width:200;stroke-linecap:round;stroke-linejoin:round;stroke-miterlimit:4;stroke-dasharray:none;stroke-opacity:1"
       d="m 5619.3069,-558.4935 c 107.649,22.19442 207.3337,81.29442 278.4607,165.09084 71.1271,83.79641 113.2461,191.75861 117.6559,301.58324 4.3529,108.408132 -29.2181,219.99705 -101.7092,300.72068 -36.2456,40.36182 -81.743,72.60002 -132.4055,91.99403 -50.6626,19.39401 -106.4534,25.7633 -159.9532,16.78602 -52.1441,-8.74981 -101.4111,-31.85786 -143.5407,-63.80581 -42.1295,-31.94795 -77.2822,-72.56226 -105.7231,-117.13452 -56.8817,-89.144532 -86.6736,-192.563561 -112.3696,-295.14036 -21.479,-85.74291 -41.232,-173.64396 -86.3905,-249.63013 -22.5793,-37.99308 -51.5189,-72.60885 -87.2283,-98.64996 -35.7094,-26.04111 -78.4221,-43.22973 -122.5565,-45.56493 -49.3349,-2.61037 -98.8009,13.5277 -139.5669,41.43619 -40.766,27.90849 -73.1023,67.11481 -96.5501,110.59987 -46.8957,86.97012 -58.337,188.18526 -65.671,286.72062 -7.0072,94.145104 -11.6294,190.969956 -50.0513,277.20312 -19.2109,43.11658 -46.9999,82.96077 -83.8978,112.39965 -36.8978,29.43887 -83.2778,47.96447 -130.4788,47.55643 -47.0724,-0.40692 -92.9584,-19.59556 -129.5323,-49.2322 -36.5738,-29.63664 -64.2536,-69.23826 -84.1526,-111.89978 -39.7981,-85.323039 -49.0416,-181.07954 -66.5228,-273.59068 -19.0912,-101.03152 -49.6287,-202.21012 -109.8922,-285.51772 -30.1317,-41.65381 -67.5621,-78.35425 -111.4049,-105.20134 -43.8429,-26.8471 -94.2151,-43.62753 -145.5888,-45.55235 -51.5911,-1.93297 -103.3947,11.19201 -148.8522,35.66636 -45.4575,24.47436 -84.6037,60.08916 -114.9612,101.84795 -60.7151,83.51758 -85.178,189.5209 -83.2293,292.75707 3.2646,172.945474 79.7805,343.32592 206.877,460.6599"
       id="path4139-9-6-5-3-6-2"
       inkscape:path-effect="#path-effect4141-37-3-0-9-3-1"
       inkscape:original-d="m 5619.3069,-558.4935 c -15.5207,188.15091 402.481,262.73278 396.1166,466.67408 -5.9089,189.345682 -204.9517,420.53632 -394.0679,409.50073 -198.9468,-11.60925 -296.2274,-209.31653 -361.6334,-476.08069 -43.6319,-157.31584 -131.9515,-397.31706 -296.1753,-393.84502 -177.4689,3.75206 -205.513,289.62453 -301.788,438.75668 -92.3673,143.079152 -94.1415,434.7284 -264.4279,437.1592 -172.3838,2.46073 -234.9758,-139.88722 -280.2077,-434.72266 -39.5244,-193.49865 -176.8847,-438.21792 -366.8859,-436.27141 -184.2523,1.88762 -323.4634,247.52436 -347.0427,430.27138 -21.5403,166.943052 206.877,460.6599 206.877,460.6599"
       inkscape:connector-curvature="0"
       sodipodi:nodetypes="caacaaacaac" />
    <path
       style="color:#000000;font-style:normal;font-variant:normal;font-weight:normal;font-stretch:normal;font-size:medium;line-height:normal;font-family:sans-serif;text-indent:0;text-align:start;text-decoration:none;text-decoration-line:none;text-decoration-style:solid;text-decoration-color:#000000;letter-spacing:normal;word-spacing:normal;text-transform:none;direction:ltr;block-progression:tb;writing-mode:lr-tb;baseline-shift:baseline;text-anchor:start;white-space:normal;clip-rule:nonzero;display:inline;overflow:visible;visibility:visible;opacity:1;isolation:auto;mix-blend-mode:normal;color-interpolation:sRGB;color-interpolation-filters:linearRGB;solid-color:#000000;solid-opacity:1;fill:#000000;fill-opacity:1;fill-rule:evenodd;stroke:none;stroke-width:200;stroke-linecap:round;stroke-linejoin:round;stroke-miterlimit:4;stroke-dasharray:none;stroke-dashoffset:0;stroke-opacity:1;color-rendering:auto;image-rendering:auto;shape-rendering:auto;text-rendering:auto;enable-background:accumulate"
       d="m 6075.668,893.22656 a 100.01,100.01 0 0 0 -20.5547,198.22074 c 85.2217,17.5705 166.1074,65.5229 222.416,131.8613 56.3087,66.3386 90.4835,153.9408 93.9746,240.8848 3.4156,85.0643 -24.0576,171.8359 -76.1934,229.8925 l 0,0 c -26.1366,29.1049 -58.9778,52.1055 -93.7539,65.418 -34.5977,13.2443 -72.9574,17.3788 -107.6543,11.5566 -33.9437,-5.6957 -68.9458,-21.5693 -99.666,-44.8652 -30.9562,-23.4749 -58.6865,-54.9496 -81.8457,-91.2441 l 0,-0 c -46.533,-72.9267 -74.5495,-165.3769 -99.668,-265.6484 -21.076,-84.1343 -41.5084,-182.3271 -97.4277,-276.4199 -28.1225,-47.3205 -65.2568,-92.6134 -114.2715,-128.35746 -49.456,-36.06582 -109.6051,-61.1055 -176.1953,-64.62891 -74.5732,-3.94575 -144.2869,19.72267 -201.3399,58.78125 -56.4487,38.64496 -98.321,90.46462 -128.08,145.65432 -59.054,109.5181 -69.8459,225.6022 -77.375,326.7597 -7.1423,95.9602 -13.3622,180.3882 -41.6719,243.9258 a 100.01,100.01 0 0 0 0,0 c -13.9415,31.2899 -33.2736,57.6572 -54.9199,74.9277 -20.9509,16.7156 -46.7759,25.9074 -67.2481,25.7305 -20.461,-0.1769 -46.2479,-9.7597 -67.4394,-26.9317 l 0,0 c -21.8938,-17.741 -41.5811,-44.5273 -56.4844,-76.4785 -30.1894,-64.723 -40.2621,-151.3243 -58.8867,-249.8867 -20.442,-108.1799 -53.734,-224.0975 -127.1309,-325.5606 -36.8329,-50.9175 -83.366,-97.0657 -140.2051,-131.87108 a 100.01,100.01 0 0 0 -0,0 c -57.1072,-34.96933 -123.4055,-57.55345 -194.0645,-60.20117 l -0,0 c -71.0179,-2.66051 -139.7625,15.11384 -200.002,47.54687 -60.0121,32.31052 -109.941,78.13858 -148.4394,131.09568 -76.8673,105.736 -104.5973,233.1288 -102.3262,353.4453 3.7977,201.1859 91.1772,395.7565 239.0273,532.25 a 100.01,100.01 0 1 0 135.6641,-146.9531 c -106.3429,-98.1745 -171.995,-244.3671 -174.7266,-389.0723 -1.6263,-86.1558 19.5679,-170.7691 64.1309,-232.0683 22.2166,-30.5605 50.5796,-55.9615 81.4824,-72.5996 30.675,-16.5155 65.5395,-24.9903 97.7031,-23.7852 32.0872,1.2022 66.5317,12.1805 97.1094,30.9043 30.8465,18.8888 59.1731,46.1412 82.6035,78.5313 47.1301,65.1521 74.9139,151.5895 92.6543,245.4726 16.3377,86.4598 24.7515,191.3719 74.1582,297.2949 24.8947,53.3718 60.5685,105.7902 111.8223,147.3223 51.9563,42.1013 117.9412,70.8982 191.625,71.5352 73.9298,0.639 140.8642,-27.2228 193.709,-69.3848 52.1495,-41.6073 88.3946,-94.9259 112.875,-149.8691 48.5341,-108.9287 51.5595,-218.1485 58.4316,-310.4786 7.1389,-95.9132 19.2294,-182.2595 53.9668,-246.6816 17.1366,-31.7805 39.9383,-58.3748 65.0215,-75.5469 24.4791,-16.7584 53.6962,-25.3668 77.793,-24.0918 21.6785,1.1471 46.9551,10.4856 68.9179,26.502 22.4041,16.3381 43.1495,40.2756 60.1856,68.9414 34.3977,57.8794 53.4696,135.4903 75.3516,222.8418 26.2733,104.8814 57.8423,219.2686 125.0722,324.6308 33.7224,52.8493 76.2972,102.6047 129.5996,143.0254 53.539,40.5999 117.0716,70.9423 187.416,82.7461 72.3027,12.1325 145.5246,3.5282 212.252,-22.0156 66.5491,-25.4755 124.704,-66.9515 171.0586,-118.5703 92.8464,-103.3907 132.5168,-239.797 127.2266,-371.5488 -5.3286,-132.7052 -55.3924,-261.0288 -141.3379,-362.2832 C 6344.0604,992.63041 6225.5763,922.38477 6095.5,895.56641 a 100.01,100.01 0 0 0 -19.832,-2.33985 z"
       id="path4139-9-6-5-3-6-2-0"
       inkscape:connector-curvature="0" />
  </g>
</svg>
