<?xml version="1.0" encoding="UTF-8" standalone="no"?>
<svg
   xmlns:dc="http://purl.org/dc/elements/1.1/"
   xmlns:cc="http://creativecommons.org/ns#"
   xmlns:rdf="http://www.w3.org/1999/02/22-rdf-syntax-ns#"
   xmlns:svg="http://www.w3.org/2000/svg"
   xmlns="http://www.w3.org/2000/svg"
   xmlns:sodipodi="http://sodipodi.sourceforge.net/DTD/sodipodi-0.dtd"
   xmlns:inkscape="http://www.inkscape.org/namespaces/inkscape"
   version="1.1"
   id="svg2992"
   height="2048"
   width="4000"
   inkscape:version="0.91pre3 r13670"
   sodipodi:docname="s.svg">
  <sodipodi:namedview
     pagecolor="#ffffff"
     bordercolor="#666666"
     borderopacity="1"
     objecttolerance="10"
     gridtolerance="10"
     guidetolerance="10"
     inkscape:pageopacity="0"
     inkscape:pageshadow="2"
     inkscape:window-width="1600"
     inkscape:window-height="851"
     id="namedview33"
     showgrid="true"
     showguides="true"
     inkscape:guide-bbox="true"
     inkscape:snap-grids="false"
     inkscape:zoom="0.327"
     inkscape:cx="1169.1271"
     inkscape:cy="-187.05819"
     inkscape:window-x="1599"
     inkscape:window-y="-1"
     inkscape:window-maximized="1"
     inkscape:current-layer="layer1-6">
    <inkscape:grid
       type="xygrid"
       id="grid4162" />
    <sodipodi:guide
       orientation="0,1"
       position="400,600"
       id="guide4164"
       inkscape:label=""
       inkscape:color="rgb(0,0,255)" />
    <sodipodi:guide
       orientation="0,1"
       position="-880,1600"
       id="guide4166" />
  </sodipodi:namedview>
  <defs
     id="defs5498">
    <inkscape:path-effect
       effect="spiro"
       id="path-effect4145"
       is_visible="true" />
    <inkscape:path-effect
       effect="spiro"
       id="path-effect4148"
       is_visible="true" />
    <inkscape:path-effect
       effect="spiro"
       id="path-effect4148-0"
       is_visible="true" />
    <inkscape:path-effect
       effect="spiro"
       id="path-effect4148-7"
       is_visible="true" />
    <inkscape:path-effect
       effect="spiro"
       id="path-effect4148-6"
       is_visible="true" />
    <inkscape:path-effect
       effect="spiro"
       id="path-effect4148-77"
       is_visible="true" />
    <inkscape:path-effect
       effect="spiro"
       id="path-effect4145-7"
       is_visible="true" />
  </defs>
  <metadata
     id="metadata5594">
    <rdf:RDF>
      <cc:Work
         rdf:about="">
        <dc:format>image/svg+xml</dc:format>
        <dc:type
           rdf:resource="http://purl.org/dc/dcmitype/StillImage" />
        <dc:title />
      </cc:Work>
    </rdf:RDF>
  </metadata>
  <g
     transform="translate(5944.9542,1347.6942)"
     id="layer1">
    <g
       id="layer1-6"
       transform="translate(-14814.53,16.043327)">
      <path
         style="fill:none;fill-rule:evenodd;stroke:#000000;stroke-width:150;stroke-linecap:round;stroke-linejoin:round;stroke-miterlimit:4;stroke-dasharray:none;stroke-opacity:1"
         inkscape:path-effect="#path-effect4148"
         inkscape:original-d="m 9663.9101,-741.66733 c 0,0 -217.1043,-133.93385 -334.3792,-118.64162 -136.1685,17.75589 -348.3075,95.64277 -339.9422,232.709 9.697,158.8867 296.03,125.0793 423.9398,219.83215 102.1397,75.66289 283.6891,146.74195 266.5601,272.69425 -14.958,109.988577 -178.0385,151.559384 -287.9149,167.320242 -129.9682,18.642865 -382.4648,-94.203894 -382.4648,-94.203894"
         id="path5400"
         d="m 9663.9101,-741.66733 c -99.49,-66.13568 -215.4543,-107.28116 -334.3792,-118.64162 -78.7224,-7.52007 -161.6574,-1.2562 -230.4378,37.76986 -34.3901,19.51303 -64.5287,47.13467 -84.6708,81.16025 -20.1421,34.02557 -29.9093,74.56562 -24.8336,113.77889 5.5203,42.64784 28.2923,82.02273 59.3532,111.7638 31.0609,29.74106 70.0154,50.34736 110.7442,64.14853 81.4577,27.60233 169.178,28.78118 253.8424,43.91982 70.0545,12.52627 140.3601,35.86874 194.0117,82.62381 26.8259,23.37753 49.0073,52.44296 62.3968,85.41046 13.3894,32.9675 17.7279,69.89313 10.1516,104.65998 -6.3958,29.34991 -21.1172,56.632278 -40.9439,79.19825 -19.8268,22.565972 -44.6526,40.498364 -71.6195,53.7313183 C 9513.5914,24.321927 9452.2499,31.859244 9392.1737,32.246692 9259.5229,33.102194 9126.7878,0.40857841 9009.7089,-61.957202"
         inkscape:connector-curvature="0"
         sodipodi:nodetypes="caaaaac" />
      <path
         inkscape:connector-curvature="0"
         id="path5400-0"
         d="m 10923.907,-1112.9964 c -128.41,-100.2219 -286.648,-161.7222 -449.036,-174.5214 -123.341,-9.7216 -253.617,10.2845 -353.991,82.6218 -50.187,36.1686 -91.734,85.0688 -115.831,142.0441 -24.0984,56.9752 -30.1374,122.06085 -13.2913,181.58477 15.1723,53.61135 48.3093,101.29443 90.3813,137.8225 42.072,36.52807 92.801,62.27314 145.873,79.23703 106.144,33.92778 219.716,33.23935 331.125,35.62766 81.998,1.75783 165.137,5.55383 243.243,30.58043 39.052,12.51331 76.594,30.35688 109.554,54.75751 32.959,24.40063 61.265,55.49261 80.362,91.78328 32.784,62.30103 36.586,138.07282 15.185,205.14143 -21.401,67.06861 -66.809,125.33297 -123.554,167.00121 -56.745,41.668237 -124.383,67.251251 -193.773,79.13359869 C 10620.763,11.699866 10549.558,10.235791 10479.747,1.1478352 10305.309,-21.560375 10137.41,-92.577341 9999.6208,-201.9331"
         style="fill:none;fill-rule:evenodd;stroke:#000000;stroke-width:150;stroke-linecap:round;stroke-linejoin:round;stroke-miterlimit:4;stroke-dasharray:none;stroke-opacity:1"
         sodipodi:nodetypes="caccacc"
         inkscape:path-effect="#path-effect4145"
         inkscape:original-d="m 10923.907,-1112.9964 c -152.636,-146.019 -290.611,-200.7789 -449.036,-174.5214 -207.574,34.4037 -553.9005,156.5782 -483.1133,406.25067 84.6523,250.6297 353.3143,259.8756 567.3793,252.68719 172.561,-0.97595 407.136,23.31615 433.159,177.12122 38.023,224.73372 -251.14,475.627818 -512.549,452.6065552 C 10300.866,-15.99243 10129.03,-88.674675 9999.6208,-201.9331" />
      <path
         style="color:#000000;font-style:normal;font-variant:normal;font-weight:normal;font-stretch:normal;font-size:medium;line-height:normal;font-family:sans-serif;text-indent:0;text-align:start;text-decoration:none;text-decoration-line:none;text-decoration-style:solid;text-decoration-color:#000000;letter-spacing:normal;word-spacing:normal;text-transform:none;direction:ltr;block-progression:tb;writing-mode:lr-tb;baseline-shift:baseline;text-anchor:start;white-space:normal;clip-rule:nonzero;display:inline;overflow:visible;visibility:visible;opacity:1;isolation:auto;mix-blend-mode:normal;color-interpolation:sRGB;color-interpolation-filters:linearRGB;solid-color:#000000;solid-opacity:1;fill:#000000;fill-opacity:1;fill-rule:evenodd;stroke:none;stroke-width:150;stroke-linecap:round;stroke-linejoin:round;stroke-miterlimit:4;stroke-dasharray:none;stroke-dashoffset:0;stroke-opacity:1;color-rendering:auto;image-rendering:auto;shape-rendering:auto;text-rendering:auto;enable-background:accumulate"
         d="m 8184.5605,-938.42383 c -22.2827,0.23888 -44.6391,1.56002 -67.0058,4.02344 -0.01,5.8e-4 -0.01,0.001 -0.016,0.002 -128.9025,14.09792 -265.856,100.89276 -286.6914,250.86524 -10.4328,70.27884 13.1891,136.34035 50.6992,185.89258 37.5327,49.5822 88.459,85.77715 144.3574,106.58984 82.706,32.89599 164.4159,38.98857 236.2187,48.40039 72.2695,9.47298 133.1749,21.59424 183.0411,52.87305 a 75.0075,75.0075 0 0 0 2.4004,1.44531 c 52.8453,30.45872 89.2457,98.65474 71.0976,148.18164 a 75.0075,75.0075 0 0 0 -0.059,0.16406 c -20.0946,55.236581 -91.842,90.720031 -164.457,94.750002 a 75.0075,75.0075 0 0 0 -0.9434,0.05859 c -135.3398,9.222705 -275.2395,-28.225653 -389.7246,-102.316406 a 75.0075,75.0075 0 1 0 -81.4961,125.929687 c 141.4553,91.544901 311.6262,137.468073 480.8379,126.068363 114.4425,-6.44983 248.6799,-61.250128 296.707,-193.111332 49.1868,-134.347648 -29.3222,-267.388778 -136.7265,-329.476558 -80.0463,-49.53634 -165.1386,-63.32705 -241.1836,-73.29493 -76.6989,-10.05357 -145.5161,-17.01226 -201.3848,-39.46679 a 75.0075,75.0075 0 0 0 -1.8574,-0.7168 c -29.0876,-10.80354 -58.8831,-32.37377 -77.2305,-56.61133 -18.3473,-24.23755 -25.7501,-47.98336 -21.914,-73.48242 a 75.0075,75.0075 0 0 0 0.1425,-0.98828 c 8.6753,-63.38179 81.5126,-114.67972 154.5157,-122.64844 a 75.0075,75.0075 0 0 0 0.074,-0.008 c 138.2822,-15.2334 284.439,27.0214 404.0117,105.4082 a 75.0075,75.0075 0 1 0 82.2383,-125.44531 c -127.223,-83.40195 -279.637,-134.75849 -435.6524,-133.08594 z"
         id="path5400-7"
         inkscape:connector-curvature="0" />
      <path
         style="color:#000000;font-style:normal;font-variant:normal;font-weight:normal;font-stretch:normal;font-size:medium;line-height:normal;font-family:sans-serif;text-indent:0;text-align:start;text-decoration:none;text-decoration-line:none;text-decoration-style:solid;text-decoration-color:#000000;letter-spacing:normal;word-spacing:normal;text-transform:none;direction:ltr;block-progression:tb;writing-mode:lr-tb;baseline-shift:baseline;text-anchor:start;white-space:normal;clip-rule:nonzero;display:inline;overflow:visible;visibility:visible;opacity:1;isolation:auto;mix-blend-mode:normal;color-interpolation:sRGB;color-interpolation-filters:linearRGB;solid-color:#000000;solid-opacity:1;fill:#000000;fill-opacity:1;fill-rule:evenodd;stroke:none;stroke-width:150;stroke-linecap:round;stroke-linejoin:round;stroke-miterlimit:4;stroke-dasharray:none;stroke-dashoffset:0;stroke-opacity:1;color-rendering:auto;image-rendering:auto;shape-rendering:auto;text-rendering:auto;enable-background:accumulate"
         d="m 9979.4414,345.57617 c -112.7981,1.87297 -228.9253,28.73289 -326.4453,99.01367 -60.2719,43.43678 -110.9085,102.3941 -141.0566,173.67383 -30.3294,71.70835 -38.4071,153.39756 -16.3809,231.22461 19.7912,69.92992 61.6266,129.10067 113.3769,174.03122 51.4356,44.6574 111.3778,74.5989 172.209,94.043 121.2028,38.7413 242.3445,36.8136 352.3515,39.1719 80.771,1.7315 156.488,6.0395 221.965,27.0195 32.623,10.4533 62.69,25.0136 87.814,43.6133 24.976,18.4906 45.52,41.5463 58.616,66.4316 22.226,42.2383 25.753,98.3832 10.107,147.416 -15.885,49.7831 -51.248,96.1232 -96.494,129.3477 -45.632,33.508 -102.311,55.434 -162.041,65.6621 -59.968,10.2687 -123.707,9.2592 -188.067,0.8809 -160.6976,-20.9195 -316.2478,-86.7132 -443.1831,-187.4551 a 75.0075,75.0075 0 1 0 -93.25,117.4941 c 148.6415,117.9691 328.8905,194.2099 517.0681,218.7071 75.263,9.7976 153.934,11.7165 232.748,-1.7793 79.051,-13.5367 157.648,-42.7771 225.506,-92.6055 68.244,-50.1121 123.697,-120.3 150.613,-204.6543 27.156,-85.1044 23.078,-180.5035 -20.263,-262.8672 -25.099,-47.6961 -61.166,-86.824 -102.108,-117.1348 a 75.0075,75.0075 0 0 0 -0,0 c -40.795,-30.2015 -85.812,-51.329 -131.293,-65.9023 -90.735,-29.0732 -181.296,-32.3565 -264.521,-34.1406 -112.809,-2.4183 -218.8121,-2.9697 -309.8965,-32.08401 -45.3124,-14.48368 -86.8298,-36.03083 -119.5391,-64.42968 -32.3946,-28.12557 -56.8304,-64.32052 -67.3848,-101.61329 -11.666,-41.22076 -7.6653,-89.70319 10.2012,-131.94531 18.0478,-42.67074 50.5038,-81.51354 90.6055,-110.41406 80.7225,-58.17518 193.0659,-77.46246 304.2477,-68.69922 147.432,11.62039 292.201,67.88595 408.784,158.87695 a 75.0075,75.0075 0 1 0 92.291,-118.24804 c -140.238,-109.45276 -311.945,-176.18794 -489.29,-190.16602 -25.406,-2.00249 -51.258,-2.90097 -77.2886,-2.46875 z"
         id="path5400-0-2"
         inkscape:connector-curvature="0" />
    </g>
  </g>
</svg>
