<?xml version="1.0" encoding="UTF-8" standalone="no"?>
<svg
   xmlns:dc="http://purl.org/dc/elements/1.1/"
   xmlns:cc="http://creativecommons.org/ns#"
   xmlns:rdf="http://www.w3.org/1999/02/22-rdf-syntax-ns#"
   xmlns:svg="http://www.w3.org/2000/svg"
   xmlns="http://www.w3.org/2000/svg"
   xmlns:sodipodi="http://sodipodi.sourceforge.net/DTD/sodipodi-0.dtd"
   xmlns:inkscape="http://www.inkscape.org/namespaces/inkscape"
   version="1.1"
   id="svg2992"
   height="2048"
   width="4000"
   inkscape:version="0.91 r13725"
   sodipodi:docname="x.svg">
  <sodipodi:namedview
     pagecolor="#ffffff"
     bordercolor="#666666"
     borderopacity="1"
     objecttolerance="10"
     gridtolerance="10"
     guidetolerance="10"
     inkscape:pageopacity="0"
     inkscape:pageshadow="2"
     inkscape:window-width="1600"
     inkscape:window-height="871"
     id="namedview33"
     showgrid="true"
     showguides="true"
     inkscape:guide-bbox="true"
     inkscape:snap-grids="false"
     inkscape:zoom="0.3535534"
     inkscape:cx="-606.24241"
     inkscape:cy="-16.541272"
     inkscape:window-x="1600"
     inkscape:window-y="0"
     inkscape:window-maximized="1"
     inkscape:current-layer="layer1-6">
    <inkscape:grid
       type="xygrid"
       id="grid4162" />
    <sodipodi:guide
       orientation="0,1"
       position="400,600"
       id="guide4164"
       inkscape:label=""
       inkscape:color="rgb(0,0,255)" />
    <sodipodi:guide
       orientation="0,1"
       position="1008,1648"
       id="guide4166"
       inkscape:label=""
       inkscape:color="rgb(0,0,255)" />
    <sodipodi:guide
       position="2633.8106,1988"
       orientation="0,1"
       id="guide4175"
       inkscape:label=""
       inkscape:color="rgb(0,0,255)" />
  </sodipodi:namedview>
  <defs
     id="defs5498" />
  <metadata
     id="metadata5594">
    <rdf:RDF>
      <cc:Work
         rdf:about="">
        <dc:format>image/svg+xml</dc:format>
        <dc:type
           rdf:resource="http://purl.org/dc/dcmitype/StillImage" />
        <dc:title />
      </cc:Work>
    </rdf:RDF>
  </metadata>
  <g
     transform="translate(5944.9542,1347.6942)"
     id="layer1">
    <g
       id="layer1-6"
       transform="translate(-14814.53,16.043327)">
      <path
         inkscape:connector-curvature="0"
         id="path5706-0"
         d="m 9049.5758,54.262473 800,-1010.000003"
         style="fill:none;fill-rule:evenodd;stroke:#000000;stroke-width:75;stroke-linecap:round;stroke-linejoin:round;stroke-miterlimit:4;stroke-dasharray:none;stroke-opacity:1"
         sodipodi:nodetypes="cc" />
      <path
         inkscape:connector-curvature="0"
         id="path5706-0-7"
         d="m 9929.5758,54.262473 -800,-1010.542553"
         style="fill:none;fill-rule:evenodd;stroke:#000000;stroke-width:75;stroke-linecap:round;stroke-linejoin:round;stroke-miterlimit:4;stroke-dasharray:none;stroke-opacity:1"
         sodipodi:nodetypes="cc" />
      <path
         style="color:#000000;font-style:normal;font-variant:normal;font-weight:normal;font-stretch:normal;font-size:medium;line-height:normal;font-family:sans-serif;text-indent:0;text-align:start;text-decoration:none;text-decoration-line:none;text-decoration-style:solid;text-decoration-color:#000000;letter-spacing:normal;word-spacing:normal;text-transform:none;direction:ltr;block-progression:tb;writing-mode:lr-tb;baseline-shift:baseline;text-anchor:start;white-space:normal;clip-rule:nonzero;display:inline;overflow:visible;visibility:visible;opacity:1;isolation:auto;mix-blend-mode:normal;color-interpolation:sRGB;color-interpolation-filters:linearRGB;solid-color:#000000;solid-opacity:1;fill:#000000;fill-opacity:1;fill-rule:evenodd;stroke:none;stroke-width:150;stroke-linecap:round;stroke-linejoin:round;stroke-miterlimit:4;stroke-dasharray:none;stroke-dashoffset:0;stroke-opacity:1;color-rendering:auto;image-rendering:auto;shape-rendering:auto;text-rendering:auto;enable-background:accumulate"
         d="M 1291.4727 1645.5898 A 75.0075 75.0075 0 0 0 1234.8789 1673.7441 L 742.99609 2271.7266 L 260.20508 1679.9297 A 75.0075 75.0075 0 0 0 201.4668 1651.5098 A 75.0075 75.0075 0 0 0 143.97461 1774.75 L 645.80273 2389.8828 L 128.36133 3018.9375 A 75.0075 75.0075 0 1 0 244.20508 3114.2266 L 742.51562 2508.4316 L 1220.2188 3093.9941 A 75.0075 75.0075 0 1 0 1336.4492 2999.1738 L 839.70703 2390.2754 L 1350.7246 1769.0332 A 75.0075 75.0075 0 0 0 1291.4727 1645.5898 z "
         transform="translate(8869.5758,-1363.7375)"
         id="path5706-0-4-8" />
      <path
         inkscape:connector-curvature="0"
         id="path5706-0-7-9-9"
         d="M 11512.679,14.642145 10565.949,-1239.1578"
         style="fill:none;fill-rule:evenodd;stroke:#000000;stroke-width:150;stroke-linecap:round;stroke-linejoin:round;stroke-miterlimit:4;stroke-dasharray:none;stroke-opacity:1"
         sodipodi:nodetypes="cc" />
      <path
         inkscape:connector-curvature="0"
         id="path5706-0-4-2"
         d="M 10529.67,13.113407 11469.168,-1236.6504"
         style="fill:none;fill-rule:evenodd;stroke:#000000;stroke-width:150;stroke-linecap:round;stroke-linejoin:round;stroke-miterlimit:4;stroke-dasharray:none;stroke-opacity:1"
         sodipodi:nodetypes="cc" />
      <path
         inkscape:connector-curvature="0"
         id="path5706-0-7-9-9-1"
         d="M 13750.563,54.638611 12729.135,-1296.5583"
         style="fill:none;fill-rule:evenodd;stroke:#000000;stroke-width:75.00001526;stroke-linecap:round;stroke-linejoin:round;stroke-miterlimit:4;stroke-dasharray:none;stroke-opacity:1"
         sodipodi:nodetypes="cc" />
      <path
         inkscape:connector-curvature="0"
         id="path5706-0-4-2-0"
         d="M 12689.993,52.991051 13703.62,-1293.8562"
         style="fill:none;fill-rule:evenodd;stroke:#000000;stroke-width:75.00001526;stroke-linecap:round;stroke-linejoin:round;stroke-miterlimit:4;stroke-dasharray:none;stroke-opacity:1"
         sodipodi:nodetypes="cc" />
      <path
         style="color:#000000;font-style:normal;font-variant:normal;font-weight:normal;font-stretch:normal;font-size:medium;line-height:normal;font-family:sans-serif;text-indent:0;text-align:start;text-decoration:none;text-decoration-line:none;text-decoration-style:solid;text-decoration-color:#000000;letter-spacing:normal;word-spacing:normal;text-transform:none;direction:ltr;block-progression:tb;writing-mode:lr-tb;baseline-shift:baseline;text-anchor:start;white-space:normal;clip-rule:nonzero;display:inline;overflow:visible;visibility:visible;opacity:1;isolation:auto;mix-blend-mode:normal;color-interpolation:sRGB;color-interpolation-filters:linearRGB;solid-color:#000000;solid-opacity:1;fill:#000000;fill-opacity:1;fill-rule:evenodd;stroke:none;stroke-width:75.00001526;stroke-linecap:round;stroke-linejoin:round;stroke-miterlimit:4;stroke-dasharray:none;stroke-dashoffset:0;stroke-opacity:1;color-rendering:auto;image-rendering:auto;shape-rendering:auto;text-rendering:auto;enable-background:accumulate"
         d="M 4597.7422 1206.0215 A 37.503758 37.503758 0 0 0 4566.7363 1266.5371 L 5039.0234 1891.3027 L 4527.5469 2570.9219 A 37.503758 37.503758 0 1 0 4587.4707 2616.0215 L 5086.0605 1953.5254 L 5588.1641 2617.7324 A 37.503758 37.503758 0 1 0 5647.9941 2572.5059 L 5132.9648 1891.2012 L 5601.0977 1269.1738 A 37.503758 37.503758 0 0 0 5572.584 1208.7148 A 37.503758 37.503758 0 0 0 5541.1738 1224.0742 L 5085.9277 1828.9785 L 4626.5645 1221.3086 A 37.503758 37.503758 0 0 0 4597.7422 1206.0215 z "
         transform="translate(8869.5758,-1363.7375)"
         id="path5706-0-7-9-9-1-8" />
      <path
         inkscape:connector-curvature="0"
         id="path5706-0-0"
         d="M 7228.693,14.16126 8055.2746,-878.2078"
         style="fill:none;fill-rule:evenodd;stroke:#000000;stroke-width:150;stroke-linecap:round;stroke-linejoin:round;stroke-miterlimit:4;stroke-dasharray:none;stroke-opacity:1"
         sodipodi:nodetypes="cc" />
      <path
         inkscape:connector-curvature="0"
         id="path5706-0-7-1"
         d="M 8060.3339,15.192427 7233.7521,-879.18749"
         style="fill:none;fill-rule:evenodd;stroke:#000000;stroke-width:150;stroke-linecap:round;stroke-linejoin:round;stroke-miterlimit:4;stroke-dasharray:none;stroke-opacity:1"
         sodipodi:nodetypes="cc" />
      <path
         style="color:#000000;font-style:normal;font-variant:normal;font-weight:normal;font-stretch:normal;font-size:medium;line-height:normal;font-family:sans-serif;text-indent:0;text-align:start;text-decoration:none;text-decoration-line:none;text-decoration-style:solid;text-decoration-color:#000000;letter-spacing:normal;word-spacing:normal;text-transform:none;direction:ltr;block-progression:tb;writing-mode:lr-tb;baseline-shift:baseline;text-anchor:start;white-space:normal;clip-rule:nonzero;display:inline;overflow:visible;visibility:visible;opacity:1;isolation:auto;mix-blend-mode:normal;color-interpolation:sRGB;color-interpolation-filters:linearRGB;solid-color:#000000;solid-opacity:1;fill:#000000;fill-opacity:1;fill-rule:evenodd;stroke:none;stroke-width:75;stroke-linecap:round;stroke-linejoin:round;stroke-miterlimit:4;stroke-dasharray:none;stroke-dashoffset:0;stroke-opacity:1;color-rendering:auto;image-rendering:auto;shape-rendering:auto;text-rendering:auto;enable-background:accumulate"
         d="m 9060.5031,2675.348 a 36.332082,36.332082 0 0 0 -28.722,59.2797 l 331.0127,418.1273 -408.506,515.739 a 36.332082,36.332082 0 1 0 56.9544,45.1117 l 397.8816,-502.3259 397.6641,502.3183 a 36.332082,36.332082 0 1 0 56.9675,-45.0965 l -408.2844,-515.7352 330.7781,-417.607 a 36.332082,36.332082 0 0 0 -29.7988,-59.2532 36.332082,36.332082 0 0 0 -27.1555,14.1416 l -320.1539,404.1938 -320.3924,-404.7122 a 36.332082,36.332082 0 0 0 -28.2454,-14.1814 z"
         id="path5706-0-8"
         inkscape:connector-curvature="0" />
      <path
         style="color:#000000;font-style:normal;font-variant:normal;font-weight:normal;font-stretch:normal;font-size:medium;line-height:normal;font-family:sans-serif;text-indent:0;text-align:start;text-decoration:none;text-decoration-line:none;text-decoration-style:solid;text-decoration-color:#000000;letter-spacing:normal;word-spacing:normal;text-transform:none;direction:ltr;block-progression:tb;writing-mode:lr-tb;baseline-shift:baseline;text-anchor:start;white-space:normal;clip-rule:nonzero;display:inline;overflow:visible;visibility:visible;opacity:1;isolation:auto;mix-blend-mode:normal;color-interpolation:sRGB;color-interpolation-filters:linearRGB;solid-color:#000000;solid-opacity:1;fill:#000000;fill-opacity:1;fill-rule:evenodd;stroke:none;stroke-width:150;stroke-linecap:round;stroke-linejoin:round;stroke-miterlimit:4;stroke-dasharray:none;stroke-dashoffset:0;stroke-opacity:1;color-rendering:auto;image-rendering:auto;shape-rendering:auto;text-rendering:auto;enable-background:accumulate"
         d="M 1730.543 1803.5059 A 75.0075 75.0075 0 0 0 1668.4648 1924.5 L 2087.9727 2480.0742 L 1632.0898 3086.5098 A 75.0075 75.0075 0 1 0 1751.9902 3176.6445 L 2182.0098 2604.6133 L 2615.1953 3178.3008 A 75.0075 75.0075 0 1 0 2734.9023 3087.9121 L 2275.7812 2479.875 L 2691.4883 1926.8809 A 75.0075 75.0075 0 0 0 2634.3906 1805.9902 A 75.0075 75.0075 0 0 0 2571.5879 1836.7461 L 2181.7422 2355.3359 L 1788.1719 1834.1113 A 75.0075 75.0075 0 0 0 1730.543 1803.5059 z "
         transform="translate(8869.5758,-1363.7375)"
         id="path5706-0-7-9-9-6" />
      <path
         style="color:#000000;font-style:normal;font-variant:normal;font-weight:normal;font-stretch:normal;font-size:medium;line-height:normal;font-family:sans-serif;text-indent:0;text-align:start;text-decoration:none;text-decoration-line:none;text-decoration-style:solid;text-decoration-color:#000000;letter-spacing:normal;word-spacing:normal;text-transform:none;direction:ltr;block-progression:tb;writing-mode:lr-tb;baseline-shift:baseline;text-anchor:start;white-space:normal;clip-rule:nonzero;display:inline;overflow:visible;visibility:visible;opacity:1;isolation:auto;mix-blend-mode:normal;color-interpolation:sRGB;color-interpolation-filters:linearRGB;solid-color:#000000;solid-opacity:1;fill:#000000;fill-opacity:1;fill-rule:evenodd;stroke:none;stroke-width:150;stroke-linecap:round;stroke-linejoin:round;stroke-miterlimit:4;stroke-dasharray:none;stroke-dashoffset:0;stroke-opacity:1;color-rendering:auto;image-rendering:auto;shape-rendering:auto;text-rendering:auto;enable-background:accumulate"
         d="M -1203.3516 2014.3984 A 75.0075 75.0075 0 0 0 -1260.6289 2141.0332 L -896.97461 2534.5137 L -1265.6309 2932.5117 A 75.0075 75.0075 0 1 0 -1155.5859 3034.4434 L -794.85938 2645.0059 L -434.04688 3035.4121 A 75.0075 75.0075 0 1 0 -323.88867 2933.6035 L -692.61914 2534.6289 L -329.00391 2142.0742 A 75.0075 75.0075 0 0 0 -380.90039 2015.3613 A 75.0075 75.0075 0 0 0 -439.04883 2040.1426 L -794.73438 2424.1387 L -1150.4707 2039.2246 A 75.0075 75.0075 0 0 0 -1203.3516 2014.3984 z "
         transform="translate(8869.5758,-1363.7375)"
         id="path5706-0-0-3" />
    </g>
  </g>
</svg>
