<?xml version="1.0" encoding="UTF-8" standalone="no"?>
<svg
   xmlns:dc="http://purl.org/dc/elements/1.1/"
   xmlns:cc="http://creativecommons.org/ns#"
   xmlns:rdf="http://www.w3.org/1999/02/22-rdf-syntax-ns#"
   xmlns:svg="http://www.w3.org/2000/svg"
   xmlns="http://www.w3.org/2000/svg"
   xmlns:sodipodi="http://sodipodi.sourceforge.net/DTD/sodipodi-0.dtd"
   xmlns:inkscape="http://www.inkscape.org/namespaces/inkscape"
   version="1.1"
   id="svg2992"
   height="2048"
   width="4000"
   inkscape:version="0.91pre3 r13670"
   sodipodi:docname="y.svg">
  <sodipodi:namedview
     pagecolor="#ffffff"
     bordercolor="#666666"
     borderopacity="1"
     objecttolerance="10"
     gridtolerance="10"
     guidetolerance="10"
     inkscape:pageopacity="0"
     inkscape:pageshadow="2"
     inkscape:window-width="1600"
     inkscape:window-height="851"
     id="namedview33"
     showgrid="true"
     showguides="true"
     inkscape:guide-bbox="true"
     inkscape:snap-grids="false"
     inkscape:zoom="0.23122392"
     inkscape:cx="-359.73252"
     inkscape:cy="955.5878"
     inkscape:window-x="-1"
     inkscape:window-y="-1"
     inkscape:window-maximized="1"
     inkscape:current-layer="layer1-6">
    <inkscape:grid
       type="xygrid"
       id="grid4162" />
    <sodipodi:guide
       orientation="0,1"
       position="400,600"
       id="guide4164"
       inkscape:label=""
       inkscape:color="rgb(0,0,255)" />
    <sodipodi:guide
       orientation="0,1"
       position="-880,1600"
       id="guide4166" />
  </sodipodi:namedview>
  <defs
     id="defs5498">
    <inkscape:path-effect
       effect="spiro"
       id="path-effect4273-6"
       is_visible="true" />
    <inkscape:path-effect
       effect="spiro"
       id="path-effect4277-9"
       is_visible="true" />
    <inkscape:path-effect
       effect="spiro"
       id="path-effect4277-7-8-5"
       is_visible="true" />
    <inkscape:path-effect
       effect="spiro"
       id="path-effect4277-9-9"
       is_visible="true" />
    <inkscape:path-effect
       effect="spiro"
       id="path-effect4277-7-8-5-5"
       is_visible="true" />
    <inkscape:path-effect
       effect="spiro"
       id="path-effect4277-9-1"
       is_visible="true" />
    <inkscape:path-effect
       effect="spiro"
       id="path-effect4277-7-8-5-0"
       is_visible="true" />
  </defs>
  <metadata
     id="metadata5594">
    <rdf:RDF>
      <cc:Work
         rdf:about="">
        <dc:format>image/svg+xml</dc:format>
        <dc:type
           rdf:resource="http://purl.org/dc/dcmitype/StillImage" />
        <dc:title />
      </cc:Work>
    </rdf:RDF>
  </metadata>
  <g
     transform="translate(5944.9542,1347.6942)"
     id="layer1">
    <g
       id="layer1-6"
       transform="translate(-14814.53,16.043327)">
      <path
         style="fill:none;fill-rule:evenodd;stroke:#000000;stroke-width:150;stroke-linecap:round;stroke-linejoin:round;stroke-miterlimit:4;stroke-dasharray:none;stroke-opacity:1"
         d="m 11390.942,-1292.1766 -428.158,688.79395"
         id="path4154"
         inkscape:connector-curvature="0"
         sodipodi:nodetypes="cc" />
      <path
         style="fill:none;fill-rule:evenodd;stroke:#000000;stroke-width:150;stroke-linecap:round;stroke-linejoin:round;stroke-miterlimit:4;stroke-dasharray:none;stroke-opacity:1"
         d="m 10513.526,-1300.3013 438.672,701.69231 -7.234,616.325462"
         id="path4156"
         inkscape:connector-curvature="0"
         sodipodi:nodetypes="ccc" />
      <path
         style="fill:none;fill-rule:evenodd;stroke:#000000;stroke-width:150;stroke-linecap:round;stroke-linejoin:round;stroke-miterlimit:4;stroke-dasharray:none;stroke-opacity:1"
         d="m 9563.858,-415.815 c 6.9236,110.48224 -31.036,223.12836 -103.415,306.88721 -72.3789,83.75885 -178.3306,137.650542 -288.6492,146.819718 -62.7987,5.219545 -127.0042,-3.802933 -185.0627,-28.3007242 -58.0584,-24.4977918 -109.4567,-64.5622558 -147.3247,-114.9303238 -37.868,-50.36806 -61.8124,-110.44463 -73.3891,-172.3874 -11.5766,-61.94277 -10.916,-125.43661 -9.5134,-188.43628 l 8.643,-388.21031"
         id="path4275-2"
         inkscape:path-effect="#path-effect4277-9"
         inkscape:original-d="m 9563.858,-415.815 c 0,0 -192.1991,456.055362 -392.0642,453.706928 C 8954.1095,35.334117 8751.8366,-256.52361 8756.5039,-466.1628 l 8.643,-388.21031"
         inkscape:connector-curvature="0"
         sodipodi:nodetypes="casc" />
      <path
         style="fill:none;fill-rule:evenodd;stroke:#000000;stroke-width:150;stroke-linecap:round;stroke-linejoin:round;stroke-miterlimit:4;stroke-dasharray:none;stroke-opacity:1"
         d="m 8751.445,280.63464 c 33.7814,86.86379 97.4568,161.77853 177.7421,209.11531 80.2853,47.33677 176.6614,66.78955 269.0222,54.30005 105.86,-14.31494 205.4089,-70.88285 271.8891,-154.49884 66.4802,-83.61599 99.1548,-193.35337 89.2413,-299.715824 l 7.103,-944.473066"
         id="path4275-3-1-9"
         inkscape:path-effect="#path-effect4277-7-8-5"
         inkscape:original-d="m 8751.445,280.63464 c 0,0 247.7932,268.80307 446.7643,263.41536 198.9711,-5.38771 361.1304,-454.214664 361.1304,-454.214664 l 7.103,-944.473066"
         inkscape:connector-curvature="0"
         sodipodi:nodetypes="czcc" />
      <path
         style="color:#000000;font-style:normal;font-variant:normal;font-weight:normal;font-stretch:normal;font-size:medium;line-height:normal;font-family:sans-serif;text-indent:0;text-align:start;text-decoration:none;text-decoration-line:none;text-decoration-style:solid;text-decoration-color:#000000;letter-spacing:normal;word-spacing:normal;text-transform:none;direction:ltr;block-progression:tb;writing-mode:lr-tb;baseline-shift:baseline;text-anchor:start;white-space:normal;clip-rule:nonzero;display:inline;overflow:visible;visibility:visible;opacity:1;isolation:auto;mix-blend-mode:normal;color-interpolation:sRGB;color-interpolation-filters:linearRGB;solid-color:#000000;solid-opacity:1;fill:#000000;fill-opacity:1;fill-rule:evenodd;stroke:none;stroke-width:150;stroke-linecap:round;stroke-linejoin:round;stroke-miterlimit:4;stroke-dasharray:none;stroke-dashoffset:0;stroke-opacity:1;color-rendering:auto;image-rendering:auto;shape-rendering:auto;text-rendering:auto;enable-background:accumulate"
         d="M 1668.8809 1442.7754 A 75.0075 75.0075 0 0 0 1603.8809 1558.4121 L 2030.8965 2241.457 L 2023.9199 2835.793 A 75.0075 75.0075 0 1 0 2173.9102 2837.5527 L 2180.752 2254.6523 L 2608.5898 1566.375 A 75.0075 75.0075 0 0 0 2548.5332 1450.9355 A 75.0075 75.0075 0 0 0 2481.1953 1487.1855 L 2109.7871 2084.6836 L 1731.0723 1478.8984 A 75.0075 75.0075 0 0 0 1668.8809 1442.7754 z "
         transform="translate(8869.5758,-1363.7375)"
         id="path4154-0" />
      <path
         style="color:#000000;font-style:normal;font-variant:normal;font-weight:normal;font-stretch:normal;font-size:medium;line-height:normal;font-family:sans-serif;text-indent:0;text-align:start;text-decoration:none;text-decoration-line:none;text-decoration-style:solid;text-decoration-color:#000000;letter-spacing:normal;word-spacing:normal;text-transform:none;direction:ltr;block-progression:tb;writing-mode:lr-tb;baseline-shift:baseline;text-anchor:start;white-space:normal;clip-rule:nonzero;display:inline;overflow:visible;visibility:visible;opacity:1;isolation:auto;mix-blend-mode:normal;color-interpolation:sRGB;color-interpolation-filters:linearRGB;solid-color:#000000;solid-opacity:1;fill:#000000;fill-opacity:1;fill-rule:evenodd;stroke:none;stroke-width:150;stroke-linecap:round;stroke-linejoin:round;stroke-miterlimit:4;stroke-dasharray:none;stroke-dashoffset:0;stroke-opacity:1;color-rendering:auto;image-rendering:auto;shape-rendering:auto;text-rendering:auto;enable-background:accumulate"
         d="M -626.50195 424.29492 A 75.0075 75.0075 0 0 0 -700.94141 499.79688 L -704.71289 1001.1895 C -712.36596 1072.772 -742.03508 1143.0413 -788.69141 1197.0332 C -847.80141 1265.4368 -936.71039 1310.6602 -1026.8047 1318.1484 C -1078.2883 1322.4275 -1130.6097 1314.8508 -1176.498 1295.4883 C -1222.1788 1276.2132 -1263.2742 1244.1702 -1293.0332 1204.5879 C -1322.8129 1164.9781 -1342.8899 1115.6855 -1352.6445 1063.4922 C -1362.4261 1011.1537 -1362.2897 952.90641 -1360.9004 890.50391 L -1352.2578 502.29492 A 75.0075 75.0075 0 0 0 -1426.6758 424.55859 A 75.0075 75.0075 0 0 0 -1502.2207 498.95508 L -1510.8633 887.16602 C -1512.2792 950.76287 -1513.4634 1019.5018 -1500.0918 1091.0488 C -1486.693 1162.741 -1458.884 1233.6022 -1412.9277 1294.7285 C -1366.9507 1355.8823 -1305.2485 1403.9689 -1234.8125 1433.6895 C -1164.5838 1463.3225 -1088.4947 1473.7928 -1014.3809 1467.6328 C -899.30885 1458.0686 -790.10748 1408.3165 -707.17578 1328.7734 L -708.04492 1444.2695 A 75.0075 75.0075 0 0 0 -707.72266 1451.793 C -699.66466 1538.2473 -726.95724 1629.9077 -780.99414 1697.873 C -835.03104 1765.8384 -918.18066 1813.089 -1004.2266 1824.7246 C -1079.4729 1834.8998 -1159.6991 1818.7059 -1225.1074 1780.1406 C -1290.5158 1741.5754 -1343.5193 1679.2171 -1371.041 1608.4492 A 75.0075 75.0075 0 1 0 -1510.8418 1662.8164 C -1470.8007 1765.7761 -1396.4533 1853.2452 -1301.291 1909.3535 C -1206.1288 1965.4618 -1093.6023 1988.1749 -984.12695 1973.3711 C -858.45275 1956.3768 -742.50543 1890.4912 -663.58203 1791.2246 C -585.68963 1693.2548 -547.6975 1567.4799 -558.0293 1442.8242 L -554.7793 1010.8047 C -552.47657 985.52232 -552.07682 960.00791 -553.67578 934.49219 A 75.0075 75.0075 0 0 0 -554.16797 929.47266 L -550.94531 500.92383 A 75.0075 75.0075 0 0 0 -626.50195 424.29492 z "
         transform="translate(8869.5758,-1363.7375)"
         id="path4275-2-1" />
    </g>
  </g>
</svg>
