<?xml version="1.0" encoding="UTF-8" standalone="no"?>
<!-- Created with Inkscape (http://www.inkscape.org/) -->

<svg
   xmlns:dc="http://purl.org/dc/elements/1.1/"
   xmlns:cc="http://creativecommons.org/ns#"
   xmlns:rdf="http://www.w3.org/1999/02/22-rdf-syntax-ns#"
   xmlns:svg="http://www.w3.org/2000/svg"
   xmlns="http://www.w3.org/2000/svg"
   xmlns:sodipodi="http://sodipodi.sourceforge.net/DTD/sodipodi-0.dtd"
   xmlns:inkscape="http://www.inkscape.org/namespaces/inkscape"
   width="2000"
   height="2048"
   id="svg2992"
   version="1.1"
   inkscape:version="0.91 r13725"
   sodipodi:docname="{.svg">
  <defs
     id="defs5498">
    <inkscape:path-effect
       effect="spiro"
       id="path-effect4215"
       is_visible="true" />
    <inkscape:path-effect
       effect="spiro"
       id="path-effect4215-6"
       is_visible="true" />
    <inkscape:path-effect
       effect="spiro"
       id="path-effect4215-9"
       is_visible="true" />
    <inkscape:path-effect
       effect="spiro"
       id="path-effect4215-97"
       is_visible="true" />
    <inkscape:path-effect
       effect="spiro"
       id="path-effect4215-7"
       is_visible="true" />
    <inkscape:path-effect
       effect="spiro"
       id="path-effect4215-7-6"
       is_visible="true" />
  </defs>
  <sodipodi:namedview
     inkscape:window-height="704"
     inkscape:window-width="1366"
     inkscape:pageshadow="2"
     inkscape:pageopacity="0.0"
     borderopacity="1.0"
     bordercolor="#666666"
     pagecolor="#ffffff"
     id="base"
     showgrid="true"
     showguides="true"
     inkscape:guide-bbox="true"
     inkscape:zoom="0.15942383"
     inkscape:cx="-2376.0275"
     inkscape:cy="820.01048"
     inkscape:window-x="-4"
     inkscape:window-y="0"
     inkscape:current-layer="layer1"
     inkscape:window-maximized="1"
     inkscape:snap-grids="false">
    <sodipodi:guide
       orientation="horizontal"
       position="0,600"
       id="guide5596" />
    <inkscape:grid
       type="xygrid"
       id="grid3769"
       empspacing="3"
       visible="true"
       enabled="true"
       snapvisiblegridlinesonly="true"
       spacingx="4px"
       units="px"
       dotted="true"
       spacingy="4px" />
    <sodipodi:guide
       orientation="0,1"
       position="-1040,1600"
       id="guide2985" />
    <sodipodi:guide
       position="-3061.0229,0"
       orientation="0,1"
       id="guide4161"
       inkscape:label=""
       inkscape:color="rgb(0,0,255)" />
    <sodipodi:guide
       position="-3061.0229,-460"
       orientation="0,1"
       id="guide4163"
       inkscape:label=""
       inkscape:color="rgb(0,0,255)" />
    <sodipodi:guide
       position="-3261.7457,1372"
       orientation="0,1"
       id="guide4165"
       inkscape:label=""
       inkscape:color="rgb(255,19,0)" />
  </sodipodi:namedview>
  <metadata
     id="metadata5594">
    <rdf:RDF>
      <cc:Work
         rdf:about="">
        <dc:format>image/svg+xml</dc:format>
        <dc:type
           rdf:resource="http://purl.org/dc/dcmitype/StillImage" />
        <dc:title />
      </cc:Work>
    </rdf:RDF>
  </metadata>
  <g
     inkscape:label="Layer 1"
     inkscape:groupmode="layer"
     id="layer1"
     transform="translate(0,1048)">
    <path
       style="fill:none;fill-rule:evenodd;stroke:#000000;stroke-width:150;stroke-linecap:round;stroke-linejoin:round;stroke-miterlimit:4;stroke-dasharray:none;stroke-opacity:1"
       d="m 1064.1306,-793.28664 c -43.714,-12.0332 -93.06042,-1.20107 -127.71532,28.03507 -23.93943,20.19617 -40.52526,48.32006 -49.3693,78.36611 -8.84404,30.04604 -9.92864,61.74932 -10.36921,93.06685 l -6.52465,463.80311 c -0.3488,24.79446 -1.30034,49.791225 -7.35187,73.83839 -6.05152,24.047165 -16.93102,46.8926295 -32.03015,66.56249 -31.68688,41.278974 -81.83234,67.814457 -133.78546,70.795277 48.20431,-4.217656 97.92069,15.06845 130.67046,50.690023 20.63917,22.449 34.39583,50.75819 41.51532,80.41027 7.1195,29.65207 7.5136,60.44955 7.34617,90.94389 l -2.26118,411.83413 c -0.22554,41.07783 0.8248,83.02848 14.96858,121.59521 14.14378,38.56673 41.36929,72.84423 77.63172,92.14384 29.30831,15.59848 63.83889,21.16793 96.56519,15.575"
       id="path4213"
       inkscape:path-effect="#path-effect4215"
       inkscape:original-d="m 1064.1306,-793.28664 c -114.21912,-78.70803 -69.0919,-66.96773 -127.71532,28.03507 -24.99952,43.18716 -59.03912,121.71721 -59.73851,171.43296 l -6.52465,463.80311 c -0.69009,49.05465 -20.00586,96.39469 -39.38202,140.40088 -28.03507,62.300165 -133.78546,70.795277 -133.78546,70.795277 0,0 24.76019,-83.2552674 130.67046,50.690023 25.31856,32.02053 49.10322,127.32718 48.86149,171.35416 l -2.26118,411.83413 c -0.49972,91.01475 31.30585,166.07575 92.6003,213.73905 25.73843,20.01451 96.56519,15.575 96.56519,15.575"
       inkscape:connector-curvature="0"
       sodipodi:nodetypes="ccssccsssac" />
    <path
       style="color:#000000;font-style:normal;font-variant:normal;font-weight:normal;font-stretch:normal;font-size:medium;line-height:normal;font-family:sans-serif;text-indent:0;text-align:start;text-decoration:none;text-decoration-line:none;text-decoration-style:solid;text-decoration-color:#000000;letter-spacing:normal;word-spacing:normal;text-transform:none;direction:ltr;block-progression:tb;writing-mode:lr-tb;baseline-shift:baseline;text-anchor:start;white-space:normal;clip-rule:nonzero;display:inline;overflow:visible;visibility:visible;opacity:1;isolation:auto;mix-blend-mode:normal;color-interpolation:sRGB;color-interpolation-filters:linearRGB;solid-color:#000000;solid-opacity:1;fill:#000000;fill-opacity:1;fill-rule:evenodd;stroke:none;stroke-width:150;stroke-linecap:round;stroke-linejoin:round;stroke-miterlimit:4;stroke-dasharray:none;stroke-dashoffset:0;stroke-opacity:1;color-rendering:auto;image-rendering:auto;shape-rendering:auto;text-rendering:auto;enable-background:accumulate"
       d="m 423.6543,-860.06445 c -52.01414,-1.33702 -103.14894,16.26647 -144.02149,50.74804 -37.11874,31.31473 -60.52053,72.2629 -72.95703,114.51368 -12.41041,42.16211 -12.95915,80.85267 -13.41406,113.18945 l -6.52344,463.80273 c -0.33179,23.585091 -1.58805,42.666893 -5.0918,56.589847 -3.60327,14.318457 -10.17567,27.973935 -18.79101,39.197265 C 144.98738,1.2535859 113.5637,17.883581 84.267578,19.564453 l 0.002,0.03125 c -0.748991,0.05834 -1.494768,0.06529 -2.24414,0.130859 A 75.0075,75.0075 0 0 0 92.859375,169.31641 c 0.749933,-0.043 1.489527,-0.13994 2.238281,-0.18946 l 0.002,0.0274 c 23.966621,-2.09698 52.639081,9.0257 68.921871,26.73632 10.61532,11.54617 19.27178,28.29722 23.80079,47.16016 4.51382,18.79967 5.43579,43.45053 5.27343,73.02149 l -2.26172,411.83398 c -0.23409,42.63659 -0.2292,93.88412 19.55469,147.83008 19.90991,54.2896 57.7775,103.24061 112.8086,132.52927 44.3399,23.5986 94.92465,31.7564 144.43554,23.2949 A 75.0075,75.0075 0 1 0 442.36523,883.70508 c -15.94167,2.72444 -34.41857,-0.25514 -48.69531,-7.85352 -17.49378,-9.31055 -34.07547,-28.91784 -42.45312,-51.76172 -8.50368,-23.18749 -10.60175,-55.84028 -10.38477,-95.35937 l 2.26172,-411.83399 c 0.1725,-31.41774 0.30721,-68.36074 -9.41797,-108.86523 -9.70997,-40.44124 -28.56744,-80.31026 -59.23047,-113.662109 -2.40096,-2.611502 -4.89528,-5.107289 -7.39648,-7.59375 5.14512,-5.594448 10.12121,-11.374973 14.79297,-17.460938 21.58292,-28.116391 36.76976,-60.1518609 45.26953,-93.927734 8.59931,-34.171376 9.24551,-65.084053 9.61133,-91.087889 l 6.52539,-463.80274 c 0.42623,-30.29826 2.04654,-55.01341 7.32422,-72.94336 5.25158,-17.8413 15.0231,-33.14113 25.7832,-42.21875 14.81307,-12.49684 40.76385,-18.19431 59.44922,-13.05078 a 75.0075,75.0075 0 1 0 39.80859,-144.62109 c -17.18567,-4.73071 -34.62094,-7.28089 -51.95898,-7.72656 z"
       id="path4213-0"
       inkscape:connector-curvature="0" />
    <path
       style="color:#000000;font-style:normal;font-variant:normal;font-weight:normal;font-stretch:normal;font-size:medium;line-height:normal;font-family:sans-serif;text-indent:0;text-align:start;text-decoration:none;text-decoration-line:none;text-decoration-style:solid;text-decoration-color:#000000;letter-spacing:normal;word-spacing:normal;text-transform:none;direction:ltr;block-progression:tb;writing-mode:lr-tb;baseline-shift:baseline;text-anchor:start;white-space:normal;clip-rule:nonzero;display:inline;overflow:visible;visibility:visible;opacity:1;isolation:auto;mix-blend-mode:normal;color-interpolation:sRGB;color-interpolation-filters:linearRGB;solid-color:#000000;solid-opacity:1;fill:#000000;fill-opacity:1;fill-rule:evenodd;stroke:none;stroke-width:200;stroke-linecap:round;stroke-linejoin:round;stroke-miterlimit:4;stroke-dasharray:none;stroke-dashoffset:0;stroke-opacity:1;color-rendering:auto;image-rendering:auto;shape-rendering:auto;text-rendering:auto;enable-background:accumulate"
       d="m 1731.9785,-900.82227 c -58.0372,-1.56286 -114.7998,18.04845 -160.6328,56.71485 -41.5118,35.02095 -67.1824,80.2437 -80.8164,126.5625 -13.5991,46.20075 -13.97,87.22197 -14.4297,119.89844 l -6.5254,463.80273 c -0.3261,23.18207 -1.6834,40.291887 -4.3379,50.839844 -2.7871,11.075498 -7.9228,21.668313 -14.3769,30.076172 -13.2619,17.276382 -38.4458,30.604022 -60.1895,31.851562 l 0,0.03906 c -0.9983,0.07598 -1.9911,0.08835 -2.9903,0.175781 A 100.01,100.01 0 0 0 1402.125,178.5957 c 1.0011,-0.0574 1.9874,-0.18413 2.9863,-0.25195 l 0,0.0352 c 15.8873,-1.39008 37.546,7.01161 48.3398,18.75195 7.274,7.91177 14.229,20.80751 17.8946,36.07422 3.6452,15.18221 4.7446,37.78561 4.5839,67.04883 l -2.2617,411.83398 c -0.2369,43.15606 -0.5819,97.50373 21.0821,156.57617 21.8319,59.53082 63.2479,113.36993 124.5351,145.98824 49.3504,26.2654 105.2869,35.2868 160.3926,25.8692 a 100.01,100.01 0 1 0 -33.6914,-197.14064 c -10.3469,1.76828 -23.4702,-0.3496 -32.7363,-5.28125 -11.2376,-5.98089 -24.2731,-20.69618 -30.7286,-38.29883 -6.6236,-18.06104 -9.0715,-47.61562 -8.8574,-86.61523 l 2.2617,-411.83399 c 0.1742,-31.72548 0.4863,-70.71788 -10.1074,-114.83984 -9.7582,-40.64197 -28.1664,-80.94426 -57.6543,-116.001954 0.4377,-0.561512 0.9078,-1.088949 1.3418,-1.654297 23.7437,-30.931359 40.3657,-66.0306701 49.6817,-103.048828 l 0,-0.002 c 9.4482,-37.545585 9.9937,-70.429528 10.3652,-96.835938 l 6.5254,-463.80273 c 0.4215,-29.95858 2.2197,-52.34501 6.3086,-66.23633 4.0542,-13.77329 11.5549,-24.79852 17.9218,-30.16992 8.1992,-6.91709 26.351,-10.90165 36.6934,-8.05469 a 100.01,100.01 0 1 0 53.0801,-192.82813 c -19.2714,-5.30485 -38.7598,-8.17826 -58.1055,-8.69922 z"
       id="path4213-7"
       inkscape:connector-curvature="0" />
    <path
       style="fill:none;fill-rule:evenodd;stroke:#000000;stroke-width:75.00000763;stroke-linecap:round;stroke-linejoin:round;stroke-miterlimit:4;stroke-dasharray:none;stroke-opacity:1"
       d="m -1896.2204,-331.97592 c -44.1175,-12.15037 -93.9212,-1.23143 -128.9088,28.26188 -24.1454,20.35373 -40.8897,48.69671 -49.8217,78.98684 -8.9321,30.29013 -10.0303,62.25656 -10.4751,93.83307 l -6.5856,467.55545 c -0.3521,24.99819 -1.3139,50.20084 -7.4242,74.44333 -6.1103,24.24248 -17.0933,47.26919 -32.3259,67.09344 -31.9942,41.63839 -82.6092,68.38909 -135.0355,71.36804 48.6451,-4.27687 98.8261,15.16528 131.8915,51.1001 20.8183,22.62494 34.7068,51.15771 41.8968,81.05076 7.1901,29.89306 7.5903,60.94463 7.4213,91.68976 l -2.2824,415.16605 c -0.2277,41.421 0.8386,83.7243 15.1239,122.6047 14.2853,38.8803 41.7689,73.417 78.3418,92.8636 29.5867,15.7319 64.4372,21.346 97.4675,15.701"
       id="path4213-76"
       inkscape:path-effect="#path-effect4215-7"
       inkscape:original-d="m -1896.2204,-331.97592 c -115.2865,-79.34478 -69.7376,-67.5095 -128.9088,28.26188 -25.2331,43.53656 -59.5908,122.70194 -60.2968,172.81991 l -6.5856,467.55545 c -0.6964,49.45151 -20.1928,97.17456 -39.7501,141.53677 -28.2969,62.8042 -135.0355,71.36804 -135.0355,71.36804 0,0 24.9916,-83.92883 131.8915,51.1001 25.5551,32.27966 49.5621,128.35732 49.3181,172.74052 l -2.2824,415.16605 c -0.5043,91.7511 31.5985,167.4194 93.4657,215.4683 25.979,20.1764 97.4675,15.701 97.4675,15.701"
       inkscape:connector-curvature="0"
       sodipodi:nodetypes="ccssccsssac" />
    <path
       style="color:#000000;font-style:normal;font-variant:normal;font-weight:normal;font-stretch:normal;font-size:medium;line-height:normal;font-family:sans-serif;text-indent:0;text-align:start;text-decoration:none;text-decoration-line:none;text-decoration-style:solid;text-decoration-color:#000000;letter-spacing:normal;word-spacing:normal;text-transform:none;direction:ltr;block-progression:tb;writing-mode:lr-tb;baseline-shift:baseline;text-anchor:start;white-space:normal;clip-rule:nonzero;display:inline;overflow:visible;visibility:visible;opacity:1;isolation:auto;mix-blend-mode:normal;color-interpolation:sRGB;color-interpolation-filters:linearRGB;solid-color:#000000;solid-opacity:1;fill:#000000;fill-opacity:1;fill-rule:evenodd;stroke:none;stroke-width:75.00000763;stroke-linecap:round;stroke-linejoin:round;stroke-miterlimit:4;stroke-dasharray:none;stroke-dashoffset:0;stroke-opacity:1;color-rendering:auto;image-rendering:auto;shape-rendering:auto;text-rendering:auto;enable-background:accumulate"
       d="m -3586.624,-368.53119 c -43.2915,-1.01285 -86.3047,13.66819 -119.9863,42.06055 -30.7301,25.90438 -50.888,60.65457 -61.6211,97.05273 -10.7208,36.35571 -11.5499,71.82279 -12.002,103.91211 l -6.5859,467.55469 c -0.3436,24.39151 -1.4582,46.63254 -6.291,65.80664 -4.8829,19.37285 -13.7085,37.80503 -25.6992,53.41016 -25.0799,32.6398 -66.3314,54.44218 -107.4278,56.77734 l 0,0.0156 c -0.3862,0.0316 -0.772,0.0344 -1.1582,0.0684 a 37.503754,37.503754 0 0 0 5.4121,74.79492 c 0.3863,-0.022 0.7682,-0.0736 1.1543,-0.0976 l 0,0.0137 c 36.5267,-3.21142 76.1836,12.154 101.0118,39.13672 15.8081,17.18001 27.1421,39.93502 33.0332,64.42773 5.8832,24.45992 6.5473,52.43399 6.3808,82.71485 l -2.2812,415.16595 c -0.232,42.2049 0.3101,89.1637 17.4238,135.7422 17.1758,46.7474 49.9884,88.6099 95.9355,113.041 37.0994,19.7265 79.9733,26.6331 121.3907,19.5547 a 37.503754,37.503754 0 1 0 -12.6348,-73.9277 c -24.6432,4.2116 -51.4709,-0.1104 -73.5449,-11.8477 -27.1987,-14.4621 -49.3532,-41.6722 -60.7481,-72.6855 -11.4568,-31.1822 -13.0476,-68.8278 -12.8242,-109.4649 l 2.2832,-415.16594 c 0.1716,-31.20939 0.036,-65.33983 -8.4609,-100.66602 -8.4889,-35.29339 -24.9333,-69.60396 -50.7617,-97.67383 -11.3003,-12.28094 -24.0915,-22.89764 -37.9004,-31.82617 16.1628,-12.01175 30.7563,-26.22706 43.1836,-42.40039 18.4745,-24.04337 31.6154,-51.66522 38.9531,-80.77734 7.3878,-29.31086 8.1979,-57.4752 8.5586,-83.08008 l 6.5859,-467.55469 c 0.4376,-31.0637 1.8038,-59.53131 8.9473,-83.75586 7.1308,-24.1821 20.4607,-46.11879 38.0215,-60.92187 25.0664,-21.13012 63.1758,-29.48429 94.7832,-20.7793 a 37.503754,37.503754 0 1 0 19.914,-72.30859 c -14.1569,-3.89895 -28.6183,-5.97879 -43.0488,-6.31641 z"
       id="path4213-76-4"
       inkscape:connector-curvature="0" />
  </g>
</svg>
