<?xml version="1.0" encoding="UTF-8" standalone="no"?>
<!-- Created with Inkscape (http://www.inkscape.org/) -->

<svg
   xmlns:dc="http://purl.org/dc/elements/1.1/"
   xmlns:cc="http://creativecommons.org/ns#"
   xmlns:rdf="http://www.w3.org/1999/02/22-rdf-syntax-ns#"
   xmlns:svg="http://www.w3.org/2000/svg"
   xmlns="http://www.w3.org/2000/svg"
   xmlns:sodipodi="http://sodipodi.sourceforge.net/DTD/sodipodi-0.dtd"
   xmlns:inkscape="http://www.inkscape.org/namespaces/inkscape"
   width="2000"
   height="2048"
   id="svg2992"
   version="1.1"
   inkscape:version="0.91pre3 r13670"
   sodipodi:docname="{.svg">
  <defs
     id="defs5498">
    <inkscape:path-effect
       effect="spiro"
       id="path-effect4215"
       is_visible="true" />
    <inkscape:path-effect
       effect="spiro"
       id="path-effect4215-6"
       is_visible="true" />
  </defs>
  <sodipodi:namedview
     inkscape:window-height="851"
     inkscape:window-width="1600"
     inkscape:pageshadow="2"
     inkscape:pageopacity="0.0"
     borderopacity="1.0"
     bordercolor="#666666"
     pagecolor="#ffffff"
     id="base"
     showgrid="true"
     showguides="true"
     inkscape:guide-bbox="true"
     inkscape:zoom="0.32102648"
     inkscape:cx="543.59074"
     inkscape:cy="1205.2727"
     inkscape:window-x="1599"
     inkscape:window-y="-1"
     inkscape:current-layer="layer1"
     inkscape:window-maximized="1"
     inkscape:snap-grids="false">
    <sodipodi:guide
       orientation="horizontal"
       position="0,600"
       id="guide5596" />
    <inkscape:grid
       type="xygrid"
       id="grid3769"
       empspacing="3"
       visible="true"
       enabled="true"
       snapvisiblegridlinesonly="true"
       spacingx="4px"
       units="px"
       dotted="true"
       spacingy="4px" />
    <sodipodi:guide
       orientation="0,1"
       position="-1040,1600"
       id="guide2985" />
  </sodipodi:namedview>
  <metadata
     id="metadata5594">
    <rdf:RDF>
      <cc:Work
         rdf:about="">
        <dc:format>image/svg+xml</dc:format>
        <dc:type
           rdf:resource="http://purl.org/dc/dcmitype/StillImage" />
        <dc:title />
      </cc:Work>
    </rdf:RDF>
  </metadata>
  <g
     inkscape:label="Layer 1"
     inkscape:groupmode="layer"
     id="layer1"
     transform="translate(0,1048)">
    <path
       style="fill:none;fill-rule:evenodd;stroke:#000000;stroke-width:140;stroke-linecap:round;stroke-linejoin:round;stroke-miterlimit:4;stroke-dasharray:none;stroke-opacity:1"
       d="m 809.63695,-881.46473 c -40.46533,-48.02192 -99.61422,-79.87132 -161.98041,-87.22022 -54.60152,-6.43395 -111.25135,5.79114 -158.27033,34.28566 -47.01898,28.49452 -84.09503,73.09757 -103.39033,124.57974 -18.9385,50.53017 -20.76704,106.0929 -14.59049,159.70087 6.17655,53.60798 20.04784,105.97538 31.79352,158.6442 11.74568,52.66881 21.43685,106.36733 19.03813,160.27662 -2.39871,53.90928 -17.74808,108.5466 -51.55111,150.60989 -38.52224,47.9357 -100.36623,76.18247 -161.82053,73.91028 59.6405,-14.82025 126.27666,2.48839 171.16556,44.46001 36.96273,34.560564 58.45407,83.457101 66.45097,133.424347 7.9969,49.967243 3.35803,101.189403 -5.84439,150.948743 -18.40484,99.51867 -55.11303,198.01951 -46.00627,298.8152 4.25744,47.12231 18.75167,93.43237 43.21911,133.92907 24.46744,40.4967 58.97266,75.05765 100.07124,98.50003 42.27347,24.11253 91.30218,36.2321 139.94139,34.59257 48.63921,-1.63954 96.7405,-17.03316 137.29429,-43.93764"
       id="path4213"
       inkscape:path-effect="#path-effect4215"
       inkscape:original-d="m 809.63695,-881.46473 c 0,0 -100.67752,-88.80567 -161.98041,-87.22022 -102.0032,2.63807 -210.54173,70.55646 -261.66066,158.8654 -105.10914,181.57808 69.21753,437.25681 -15.30995,629.23158 -28.03507,62.30016 -161.82053,73.91028 -161.82053,73.91028 0,0 65.2553,-89.48529 171.16556,44.46001 105.91027,133.9453 -40.77091,396.78133 14.60031,583.18829 25.91665,87.24828 63.08352,189.40819 143.29035,232.4291 81.48309,43.70546 277.23568,-9.34507 277.23568,-9.34507"
       inkscape:connector-curvature="0"
       sodipodi:nodetypes="caaccsaac" />
    <path
       style="color:#000000;font-style:normal;font-variant:normal;font-weight:normal;font-stretch:normal;font-size:medium;line-height:normal;font-family:sans-serif;text-indent:0;text-align:start;text-decoration:none;text-decoration-line:none;text-decoration-style:solid;text-decoration-color:#000000;letter-spacing:normal;word-spacing:normal;text-transform:none;direction:ltr;block-progression:tb;writing-mode:lr-tb;baseline-shift:baseline;text-anchor:start;white-space:normal;clip-rule:nonzero;display:inline;overflow:visible;visibility:visible;opacity:1;isolation:auto;mix-blend-mode:normal;color-interpolation:sRGB;color-interpolation-filters:linearRGB;solid-color:#000000;solid-opacity:1;fill:#000000;fill-opacity:1;fill-rule:evenodd;stroke:none;stroke-width:140;stroke-linecap:round;stroke-linejoin:round;stroke-miterlimit:4;stroke-dasharray:none;stroke-dashoffset:0;stroke-opacity:1;color-rendering:auto;image-rendering:auto;shape-rendering:auto;text-rendering:auto;enable-background:accumulate"
       d="m 1465.002,-1051.9727 c -57.2281,0.4195 -113.7327,16.212 -163.086,46.1211 -60.76,36.82192 -107.6839,93.24448 -132.6582,159.87894 -24.3372,64.93458 -25.5678,131.64711 -18.582,192.2793 6.9472,60.29723 21.6689,115.00683 33.0117,165.86914 11.326,50.787 19.3625,98.4449 17.4277,141.92774 -1.9026,42.75965 -14.4398,82.81587 -36.1836,109.87304 -15.9504,19.84819 -40.0123,34.86635 -65.5781,42.41992 -19.5355,0.22301 -39.1784,2.58848 -58.5586,7.4043 a 70.007,70.007 0 0 0 14.293,137.88672 c 19.2721,0.712555 38.3531,-0.767849 56.9922,-4.101562 25.5922,2.672555 51.2036,13.144271 68.9531,29.740234 22.791,21.3098256 39.1084,55.676262 45.1387,93.355469 6.1496,38.424909 2.8486,81.707639 -5.5567,127.156249 -16.88,91.27408 -57.882,196.18843 -46.8906,317.84375 5.1687,57.20915 22.667,113.58942 53.0215,163.83008 30.415,50.34082 73.131,93.34705 125.3027,123.10547 53.7383,30.65197 115.152,45.83224 176.9824,43.74804 61.8305,-2.08419 122.0826,-21.36526 173.6348,-55.5664 a 70.007,70.007 0 1 0 -77.3965,-116.66211 c -29.5554,19.60785 -65.5071,31.1137 -100.955,32.30859 -35.448,1.19489 -72.0917,-7.86244 -102.9004,-25.43554 -30.0255,-17.12634 -56.3201,-43.24393 -74.8399,-73.89649 -18.5802,-30.75274 -30.0719,-66.99187 -33.418,-104.02734 -7.2221,-79.93608 25.1936,-172.02384 45.1231,-279.78711 9.9997,-54.07008 15.977,-113.23066 6.1328,-174.740236 -9.9635,-62.255286 -36.6292,-125.682849 -87.7637,-173.494144 -4.1983,-3.92546 -8.5262,-7.66631 -12.9433,-11.27148 3.5585,-3.92465 7.0154,-7.96288 10.3554,-12.11914 45.8623,-57.06939 64.0232,-126.28875 66.918,-191.34766 2.8626,-64.33575 -8.4831,-124.07243 -20.6484,-178.62305 -12.1486,-54.4753 -25.1684,-104.50118 -30.5742,-151.41992 -5.3672,-46.58375 -2.9422,-90.99728 10.5976,-127.12304 13.6163,-36.32986 40.8432,-69.1141 74.1211,-89.28125 33.2955,-20.17781 75.0223,-29.2003 113.8008,-24.63086 44.1307,5.20011 88.0091,28.82609 116.6426,62.80664 a 70.007,70.007 0 1 0 107.0586,-90.21289 c -52.2972,-62.0633 -126.7167,-102.1352 -207.3184,-111.6328 -13.2046,-1.556 -26.4498,-2.2785 -39.6562,-2.1817 z"
       id="path4213-5"
       inkscape:connector-curvature="0" />
  </g>
</svg>
