<?xml version="1.0" encoding="UTF-8" standalone="no"?>
<!-- Created with Inkscape (http://www.inkscape.org/) -->

<svg
   xmlns:dc="http://purl.org/dc/elements/1.1/"
   xmlns:cc="http://creativecommons.org/ns#"
   xmlns:rdf="http://www.w3.org/1999/02/22-rdf-syntax-ns#"
   xmlns:svg="http://www.w3.org/2000/svg"
   xmlns="http://www.w3.org/2000/svg"
   xmlns:sodipodi="http://sodipodi.sourceforge.net/DTD/sodipodi-0.dtd"
   xmlns:inkscape="http://www.inkscape.org/namespaces/inkscape"
   width="2000"
   height="2048"
   id="svg2992"
   version="1.1"
   inkscape:version="0.91pre2 r13516"
   sodipodi:docname="അ.svg">
  <defs
     id="defs5498">
    <inkscape:path-effect
       effect="spiro"
       id="path-effect4372-5-8"
       is_visible="true" />
    <inkscape:path-effect
       effect="spiro"
       id="path-effect4372-5-8-0"
       is_visible="true" />
    <inkscape:path-effect
       effect="spiro"
       id="path-effect4372-5-8-0-8"
       is_visible="true" />
    <inkscape:path-effect
       effect="spiro"
       id="path-effect4372-5-8-0-5"
       is_visible="true" />
  </defs>
  <sodipodi:namedview
     inkscape:window-height="853"
     inkscape:window-width="1600"
     inkscape:pageshadow="2"
     inkscape:pageopacity="0.0"
     borderopacity="1.0"
     bordercolor="#666666"
     pagecolor="#ffffff"
     id="base"
     showgrid="true"
     showguides="true"
     inkscape:guide-bbox="true"
     inkscape:zoom="0.16051324"
     inkscape:cx="-208.3756"
     inkscape:cy="1327.3426"
     inkscape:window-x="-2"
     inkscape:window-y="-3"
     inkscape:current-layer="layer1"
     inkscape:window-maximized="1">
    <sodipodi:guide
       orientation="horizontal"
       position="0,600"
       id="guide5596" />
    <inkscape:grid
       type="xygrid"
       id="grid3769"
       empspacing="3"
       visible="true"
       enabled="true"
       snapvisiblegridlinesonly="true"
       spacingx="4px"
       units="px"
       dotted="true"
       spacingy="4px" />
    <sodipodi:guide
       orientation="0,1"
       position="-1040,1600"
       id="guide2985" />
  </sodipodi:namedview>
  <metadata
     id="metadata5594">
    <rdf:RDF>
      <cc:Work
         rdf:about="">
        <dc:format>image/svg+xml</dc:format>
        <dc:type
           rdf:resource="http://purl.org/dc/dcmitype/StillImage" />
        <dc:title />
      </cc:Work>
    </rdf:RDF>
  </metadata>
  <g
     inkscape:label="Layer 1"
     inkscape:groupmode="layer"
     id="layer1"
     transform="translate(0,1048)">
    <path
       style="fill:none;fill-rule:evenodd;stroke:#000000;stroke-width:140;stroke-linecap:round;stroke-linejoin:round;stroke-miterlimit:4;stroke-dasharray:none;stroke-opacity:1"
       d="m -2163.8308,359.3519 c -91.8331,-26.45758 -173.929,-85.4703 -228.2694,-164.08608 -54.3403,-78.61579 -80.5341,-176.268866 -72.8323,-271.526413 10.5656,-130.677767 84.8261,-252.728367 190.2974,-330.600827 105.4713,-77.87246 239.6719,-112.83555 370.6395,-106.8513 82.8239,3.78444 167.0267,24.31675 233.9784,73.22065 33.4759,24.45194 62.1566,55.81837 81.6971,92.37928 19.5405,36.56091 29.7309,78.37297 27.1379,119.74697 -3.3388,53.27316 -28.4174,104.86371 -68.2484,140.397658 -39.8311,35.533953 -93.9379,54.585935 -147.2453,51.84775 31.2812,-9.448365 65.0481,-10.528602 96.8693,-3.098947 31.8212,7.429655 61.6185,23.350953 85.4816,45.6744932 23.8631,22.3235408 41.7333,50.9944938 51.2655,82.2502818 9.5322,31.255794 10.703,65.019644 3.3587,96.860634 -7.8629,34.08927 -25.424,65.78057 -49.5944,91.07283 -24.1703,25.29226 -54.8385,44.19074 -88.0555,55.16963 -66.4339,21.95778 -141.6725,11.23438 -202.4968,-23.34915 -60.8243,-34.58352 -107.4477,-91.57519 -135.0977,-155.84874 -27.65,-64.273554 -37.043,-135.499804 -33.3641,-205.371673 6.4076,-121.697297 53.4339,-242.113787 136.798,-331.005367 83.3641,-88.89158 203.5046,-144.15213 325.357,-142.34037 68.6341,1.02049 136.9313,19.82494 196.3894,54.1239 59.458,34.29897 109.7387,83.94752 146.1824,142.11568 36.4437,58.16816 58.9317,124.41743 70.4513,192.08555 11.5196,67.66813 12.1772,136.6551098 12.2817,205.296683 l 0.4307,282.927487 -3.5787,-275.713593 c -0.8691,-66.961665 -1.2004,-134.263286 9.0077,-200.447987 10.2081,-66.1847 31.0515,-131.1509 65.4837,-188.58818 34.4323,-57.43727 82.333,-106.9265 139.39371,-141.97929 57.06069,-35.05278 122.95715,-55.53995 189.82333,-59.21872 122.6963,-6.75037 245.98462,44.29402 333.2331,130.82524 87.24849,86.53121 138.79238,206.38649 148.9999,328.843657 7.66436,91.947462 -8.01369,187.738983 -56.66664,266.135213 -24.32648,39.19811 -56.69065,73.60108 -95.32137,98.81887 -38.63072,25.21779 -83.57011,41.08643 -129.61229,43.98244 -67.98735,4.27634 -137.16233,-20.67271 -187.36889,-66.71474 -50.20656,-46.04203 -80.96363,-112.43125 -84.50991,-180.46059 -3.84893,-73.835192 24.5031,-148.789229 76.25439,-201.593146 51.75129,-52.803914 126.11932,-82.659264 200.01703,-80.297664 73.89772,2.36161 146.20772,36.90446 194.48187,92.904962 48.27415,56.000505 71.78248,132.611883 63.22701,206.050658"
       id="path4370-9-4-7"
       inkscape:path-effect="#path-effect4372-5-8-0"
       inkscape:original-d="m -2163.8308,359.3519 c -295.8873,-18.13604 -327.7985,-261.127221 -301.1017,-435.612493 35.8622,-234.388027 323.8513,-441.225567 560.9369,-437.452127 148.6583,2.36604 340.2656,136.69165 342.8134,285.3469 1.6495,96.24699 -215.4937,192.245408 -215.4937,192.245408 0,0 297.6165,132.116104 236.9751,221.686462 -104.9635,155.0363 -475.1671,-54.11181 -508.6085,-238.327103 -39.3874,-216.969317 242.274,-490.061337 462.155,-473.345737 242.7177,18.45167 435.0657,354.91792 425.3048,593.621813 l 0.4307,282.927487 -3.5787,-275.713593 c -1.4789,-113.93599 166.65034,-565.316357 403.70844,-590.234177 220.8554,-23.21471 459.3664,238.77721 482.233,459.668897 17.042,164.625483 -117.1874,389.952693 -281.6003,408.936523 -121.6723,14.04882 -317.8655,-133.65551 -271.8788,-247.17533 66.86367,-165.055351 533.9803,17.06481 533.9803,17.06481"
       inkscape:connector-curvature="0"
       sodipodi:nodetypes="caaacaaascsaaaac" />
    <path
       style="color:#000000;font-style:normal;font-variant:normal;font-weight:normal;font-stretch:normal;font-size:medium;line-height:normal;font-family:sans-serif;text-indent:0;text-align:start;text-decoration:none;text-decoration-line:none;text-decoration-style:solid;text-decoration-color:#000000;letter-spacing:normal;word-spacing:normal;text-transform:none;direction:ltr;block-progression:tb;writing-mode:lr-tb;baseline-shift:baseline;text-anchor:start;clip-rule:nonzero;display:inline;overflow:visible;visibility:visible;opacity:1;isolation:auto;mix-blend-mode:normal;color-interpolation:sRGB;color-interpolation-filters:linearRGB;solid-color:#000000;solid-opacity:1;fill:#000000;fill-opacity:1;fill-rule:evenodd;stroke:none;stroke-width:140;stroke-linecap:round;stroke-linejoin:round;stroke-miterlimit:4;stroke-dasharray:none;stroke-dashoffset:0;stroke-opacity:1;color-rendering:auto;image-rendering:auto;shape-rendering:auto;text-rendering:auto;enable-background:accumulate"
       d="m 1141.6855,-616.20898 c -63.0696,-0.93776 -124.911,10.83618 -182.61128,33.02148 -44.10181,-12.33706 -89.22651,-18.5589 -133.07617,-20.5625 -145.5649,-6.65123 -295.16927,31.68611 -415.41211,120.46484 -120.95719,89.30615 -206.08541,227.82401 -218.49219,381.27344 -9.03894,111.7954469 21.24888,224.70623 85.02344,316.9707 63.77454,92.26449 158.6962,160.49593 266.47265,191.54688 A 70.007,70.007 0 1 0 582.34766,271.97852 C 506.45795,250.1143 437.18745,200.32061 392.28125,135.35352 347.37504,70.386418 325.27399,-12.008867 331.63867,-90.728516 c 8.72448,-107.906104 72.11815,-213.488964 162.10352,-279.927734 79.50463,-58.70054 180.59869,-90.20883 282.72265,-93.51367 -4.11201,4.10427 -8.26104,8.17128 -12.23632,12.41015 -95.95634,102.31872 -148.4169,237.97465 -155.64258,375.208989 -4.13918,78.6136969 6.1723,160.482715 38.96679,236.714841 33.00224,76.715 88.61264,145.71798 164.80079,189.03711 76.98114,43.77001 171.22824,57.99196 259.06248,28.96094 43.7539,-14.46153 84.1245,-39.18684 116.6953,-73.26953 32.6485,-34.16384 56.3396,-76.6301 67.1973,-123.70313 10.1462,-43.98868 8.5555,-89.833516 -4.6133,-133.013669 -13.1688,-43.1801681 -37.4332,-82.108993 -70.4004,-112.949219 -4.7484,-4.442084 -9.6929,-8.634442 -14.7402,-12.6875 41.1596,-45.886102 66.0352,-104.557772 69.9258,-166.634762 3.4933,-55.73894 -10.0361,-109.91585 -35.2657,-157.1211 -14.877,-27.83536 -33.6078,-52.74666 -54.8964,-74.73632 54.6558,1.77634 109.434,17.20822 156.7382,44.49609 48.9275,28.22431 91.2633,69.83782 121.8418,118.64453 30.6263,48.88287 50.503,106.40833 60.7618,166.66992 4.7181,27.71543 7.4062,56.463461 9.0039,86.019533 -1.6757,39.551413 -1.3414,78.215979 -0.8555,115.650391 l 3.5781,275.714846 a 70.007,70.007 0 0 0 139.9942,-1.01563 l -0.4317,-282.927732 c -0.054,-35.231726 -0.2096,-71.493358 -2.0234,-108.517578 1.2384,-25.318765 3.3767,-50.01743 7.0664,-73.93945 9.0718,-58.8177 27.4706,-115.1101 56.3398,-163.26758 28.8291,-48.09043 69.0862,-89.50907 115.9961,-118.32617 46.9454,-28.83887 101.876,-45.93449 157.0274,-48.96875 100.8015,-5.54579 206.4843,37.62665 280.0957,110.63281 39.9843,39.65561 71.5665,88.44332 93.6504,141.70312 -50.6531,-32.10749 -109.4803,-50.70966 -170.3301,-52.65429 -94.2212,-3.01109 -186.2621,33.93951 -252.2461,101.26562 -65.984,67.326148 -101.0735,160.0909953 -96.166,254.232424 4.5184,86.677946 42.6886,169.336326 107.1035,228.408206 64.5283,59.17581 151.094,90.5202 239.0742,84.98633 59.183,-3.72256 115.2992,-23.77494 163.4824,-55.22852 48.0474,-31.3649 87.2171,-73.28217 116.5352,-120.52344 58.5717,-94.37883 75.6024,-205.028164 66.9473,-308.861326 -11.5139,-138.128904 -69.0569,-273.147974 -169.4649,-372.730464 -100.8857,-100.05629 -241.782,-158.97449 -386.373,-151.01954 -78.581,4.32329 -155.4412,28.20206 -222.6172,69.46875 -67.2115,41.28848 -122.7555,98.84869 -162.791,165.63282 -4.4474,7.41884 -8.6136,14.95278 -12.6543,22.5332 -6.8213,-13.30244 -14.0383,-26.45492 -22.0645,-39.26562 -42.3089,-67.52962 -100.5368,-125.21233 -170.5254,-165.58594 -69.963,-40.35883 -149.6007,-62.28215 -230.3262,-63.48242 z m -175.47847,184.08203 c 17.71533,7.8192 34.29697,17.10343 49.28707,28.05273 25.8292,18.86648 47.2862,42.72077 61.25,68.84766 13.8515,25.91657 20.7025,55.36398 19.0098,82.37304 -2.1465,34.24917 -19.3771,69.69634 -44.9844,92.54102 -12.7347,11.3609 -28.3366,20.29777 -45.0136,26.20703 -25.58817,-0.13997 -51.16171,3.40127 -75.87309,10.86524 A 70.007,70.007 0 0 0 946.5332,13.677734 c 25.43473,1.306482 50.68865,-1.012221 75.1191,-6.568359 3.1762,0.4615117 6.3318,1.0061234 9.4258,1.7285156 19.6811,4.5951644 38.8171,14.8200374 53.5762,28.6269534 14.7591,13.806857 26.2353,32.219369 32.1309,51.550781 5.8955,19.331425 6.6458,41.015685 2.1035,60.708985 -4.8681,21.10551 -16.2999,42.02268 -31.9922,58.44336 -15.7698,16.50183 -36.7359,29.57211 -59.416,37.06836 -45.03367,14.88454 -101.2623,7.65875 -145.92972,-17.73828 C 836.09037,201.65012 798.45404,156.67194 776.15625,104.83984 753.65073,52.524854 745.17395,-8.0594054 748.39258,-69.189453 753.98214,-175.3497 795.57575,-280.52775 866.34766,-355.99219 c 28.65286,-30.55269 62.77654,-56.31109 99.85937,-76.13476 z m 1193.01567,305.98047 c 3.3673,-0.082 6.7277,-0.0718 10.0761,0.0352 53.5743,1.71212 108.7015,28.047299 143.6992,68.646486 34.9977,40.599178 52.9194,99.002672 46.7168,152.244141 a 70.007,70.007 0 0 0 -0.1269,1.576172 c -7.1229,20.147831 -16.0473,39.292271 -26.9883,56.921871 -19.3349,31.15498 -44.8953,58.04454 -74.1094,77.11524 -29.0782,18.982 -62.8408,30.66686 -95.7422,32.73633 -47.9944,3.0188 -99.7772,-15.53512 -135.6621,-48.44336 -35.9981,-33.01219 -59.3418,-83.13295 -61.916,-132.513675 -2.7903,-53.528951 18.8233,-110.67143 56.3418,-148.953125 35.1737,-35.8891 87.2011,-58.13524 137.711,-59.36523 z"
       id="path4370-9-4-7-9"
       inkscape:connector-curvature="0" />
  </g>
</svg>
