<?xml version="1.0" encoding="UTF-8" standalone="no"?>
<!-- Created with Inkscape (http://www.inkscape.org/) -->

<svg
   xmlns:dc="http://purl.org/dc/elements/1.1/"
   xmlns:cc="http://creativecommons.org/ns#"
   xmlns:rdf="http://www.w3.org/1999/02/22-rdf-syntax-ns#"
   xmlns:svg="http://www.w3.org/2000/svg"
   xmlns="http://www.w3.org/2000/svg"
   xmlns:sodipodi="http://sodipodi.sourceforge.net/DTD/sodipodi-0.dtd"
   xmlns:inkscape="http://www.inkscape.org/namespaces/inkscape"
   width="2000"
   height="2048"
   id="svg2992"
   version="1.1"
   inkscape:version="0.91pre3 r13670"
   sodipodi:docname="ആ.svg">
  <defs
     id="defs5498">
    <inkscape:path-effect
       effect="spiro"
       id="path-effect4372-5-8"
       is_visible="true" />
    <inkscape:path-effect
       effect="spiro"
       id="path-effect4372-5-8-0"
       is_visible="true" />
    <inkscape:path-effect
       effect="spiro"
       id="path-effect4372-5-8-0-8"
       is_visible="true" />
    <inkscape:path-effect
       effect="spiro"
       id="path-effect4372-5-8-0-5"
       is_visible="true" />
    <inkscape:path-effect
       effect="spiro"
       id="path-effect4372-5-8-0-0"
       is_visible="true" />
    <inkscape:path-effect
       effect="spiro"
       id="path-effect4372-5-8-0-7"
       is_visible="true" />
    <inkscape:path-effect
       effect="spiro"
       id="path-effect4372-5-8-0-7-3"
       is_visible="true" />
    <inkscape:path-effect
       effect="spiro"
       id="path-effect4372-5-8-0-4"
       is_visible="true" />
    <inkscape:path-effect
       effect="spiro"
       id="path-effect4372-5-8-0-58"
       is_visible="true" />
    <inkscape:path-effect
       effect="spiro"
       id="path-effect4372-5-8-0-58-4"
       is_visible="true" />
  </defs>
  <sodipodi:namedview
     inkscape:window-height="853"
     inkscape:window-width="1600"
     inkscape:pageshadow="2"
     inkscape:pageopacity="0.0"
     borderopacity="1.0"
     bordercolor="#666666"
     pagecolor="#ffffff"
     id="base"
     showgrid="true"
     showguides="true"
     inkscape:guide-bbox="true"
     inkscape:zoom="0.227"
     inkscape:cx="500.6144"
     inkscape:cy="883.75129"
     inkscape:window-x="1598"
     inkscape:window-y="-3"
     inkscape:current-layer="layer1"
     inkscape:window-maximized="1">
    <sodipodi:guide
       orientation="horizontal"
       position="0,600"
       id="guide5596" />
    <inkscape:grid
       type="xygrid"
       id="grid3769"
       empspacing="3"
       visible="true"
       enabled="true"
       snapvisiblegridlinesonly="true"
       spacingx="4px"
       units="px"
       dotted="true"
       spacingy="4px" />
    <sodipodi:guide
       orientation="0,1"
       position="-1040,1600"
       id="guide2985" />
  </sodipodi:namedview>
  <metadata
     id="metadata5594">
    <rdf:RDF>
      <cc:Work
         rdf:about="">
        <dc:format>image/svg+xml</dc:format>
        <dc:type
           rdf:resource="http://purl.org/dc/dcmitype/StillImage" />
        <dc:title />
      </cc:Work>
    </rdf:RDF>
  </metadata>
  <g
     inkscape:label="Layer 1"
     inkscape:groupmode="layer"
     id="layer1"
     transform="translate(0,1048)">
    <path
       style="fill:none;fill-rule:evenodd;stroke:#000000;stroke-width:140;stroke-linecap:round;stroke-linejoin:round;stroke-miterlimit:4;stroke-dasharray:none;stroke-opacity:1"
       d="m -2171.6781,349.66754 c -88.5348,-45.3813 -161.2253,-120.98662 -203.0925,-211.23636 -41.8672,-90.249752 -52.6474,-194.575475 -30.1192,-291.47934 24.7406,-106.42039 89.0378,-202.30351 174.9601,-269.79245 85.9223,-67.48894 192.5882,-106.95768 301.3858,-116.98143 95.7205,-8.81892 196.4784,5.90325 276.7013,58.86049 40.1115,26.47862 74.385,62.27641 96.921,104.7284 22.536,42.45199 33.0149,91.61024 27.3072,139.33305 -6.2464,52.22635 -32.1341,101.86784 -71.3838,136.88312 -39.2497,35.015284 -91.512,55.092753 -144.1099,55.362293 31.7172,-10.869905 66.3551,-13.0808 99.1969,-6.331633 32.8419,6.749167 63.8007,22.440504 88.6609,44.9373614 24.8602,22.4968576 43.5559,51.7395956 53.5413,83.7463076 9.9854,32.006711 11.2341,66.692541 3.576,99.334421 -12.3739,52.74283 -48.1491,98.99334 -94.6908,126.72039 -46.5417,27.72706 -103.0889,37.23749 -156.6558,29.14407 -42.9255,-6.4856 -83.984,-23.92025 -119.3206,-49.13901 -35.3366,-25.21876 -64.9885,-58.11159 -87.6763,-95.12411 -45.3756,-74.02504 -62.2286,-163.193558 -58.2649,-249.928437 3.803,-83.218793 26.2673,-165.758413 66.9472,-238.456273 40.6799,-72.69787 99.6775,-135.33607 170.8798,-178.58041 71.2022,-43.24434 154.5471,-66.78067 237.8371,-65.16812 83.2901,1.61255 166.2042,28.64829 233.2786,78.05337 62.2079,45.82056 109.7389,110.90687 135.5979,183.71247 25.859,72.8056 28.8323,151.45356 28.9192,228.715033 l 0.4307,382.927487 -3.5787,-375.713587 c -0.8259,-86.705853 3.313,-175.880223 39.2278,-254.802433 35.9147,-78.92222 100.6511,-143.58277 177.99549,-182.78013 68.45334,-34.69147 146.16257,-50.63692 222.80044,-46.63757 76.63787,3.99936 152.04472,27.83765 217.548,67.82113 131.00656,79.96694 218.34401,224.89565 234.71816,377.504033 10.09957,94.1287613 -6.24691,192.778057 -56.62471,272.929807 -25.1889,40.07587 -58.64411,75.12155 -98.36925,100.86004 -39.72514,25.73849 -85.74636,42.02449 -132.95484,45.47636 -67.00474,4.89936 -135.85134,-17.0036 -186.78762,-60.81151 -50.93629,-43.80792 -83.02704,-109.21192 -85.09118,-176.363817 -1.73185,-56.341508 17.29209,-112.690173 50.79748,-158.019567 33.50538,-45.329396 81.0326,-79.691236 133.70982,-99.753026 52.67722,-20.06179 110.31298,-26.05985 166.34263,-19.8919 56.02965,6.16794 110.45985,24.30724 160.29296,50.65161 112.40477,59.422986 201.676684,162.663058 240.651652,283.68733 38.974969,121.02428 26.185635,258.52 -37.708192,368.44499 -70.50699,121.30248 -202.4066,204.71541 -342.22262,216.42058 -139.81601,11.70517 -283.74877,-48.61553 -373.44343,-156.50619"
       id="path4370-9-4-7"
       inkscape:original-d="m -2171.6781,349.66754 c 0,0 -274.8255,-322.738737 -233.2117,-502.7157 46.0758,-199.27442 271.8453,-383.20004 476.3459,-386.77388 167.4743,-2.92677 394.1142,135.56065 400.9295,302.92194 3.9167,96.18141 -215.4937,192.245413 -215.4937,192.245413 0,0 254.8983,112.00437 244.9751,221.686457 -8.8829,98.18276 -154.9636,176.57871 -251.3466,155.86446 -154.8418,-33.278 -301.395,-239.990977 -265.2618,-394.191557 62.0596,-264.842853 452.1867,-493.981903 708.9427,-404.151433 139.7061,48.87859 163.0006,173.52894 164.5171,412.427503 l 0.4307,382.927487 -3.5787,-375.713587 c -0.6214,-65.236803 61.0986,-391.286283 217.22329,-437.582563 250.5518,-74.29713 618.6071,143.52366 675.0666,398.687593 36.6281,165.53754 -119.7478,397.989167 -287.9488,419.266207 -119.3129,15.0928 -306.2294,-121.92172 -271.8788,-237.175327 44.75122,-150.149938 341.34256,-303.977913 511.14289,-227.012883 207.353919,93.98687 330.131356,463.31384 202.94346,652.13232 -133.74095,198.54691 -715.66605,59.91439 -715.66605,59.91439"
       inkscape:connector-curvature="0"
       sodipodi:nodetypes="caaacaaaascsaaasaac"
       inkscape:path-effect="#path-effect4372-5-8-0-58" />
    <path
       style="color:#000000;font-style:normal;font-variant:normal;font-weight:normal;font-stretch:normal;font-size:medium;line-height:normal;font-family:sans-serif;text-indent:0;text-align:start;text-decoration:none;text-decoration-line:none;text-decoration-style:solid;text-decoration-color:#000000;letter-spacing:normal;word-spacing:normal;text-transform:none;direction:ltr;block-progression:tb;writing-mode:lr-tb;baseline-shift:baseline;text-anchor:start;white-space:normal;clip-rule:nonzero;display:inline;overflow:visible;visibility:visible;opacity:1;isolation:auto;mix-blend-mode:normal;color-interpolation:sRGB;color-interpolation-filters:linearRGB;solid-color:#000000;solid-opacity:1;fill:#000000;fill-opacity:1;fill-rule:evenodd;stroke:none;stroke-width:140;stroke-linecap:round;stroke-linejoin:round;stroke-miterlimit:4;stroke-dasharray:none;stroke-dashoffset:0;stroke-opacity:1;color-rendering:auto;image-rendering:auto;shape-rendering:auto;text-rendering:auto;enable-background:accumulate"
       d="m 1038.0488,-614.24023 c -52.6368,0.93737 -104.58812,10.37293 -153.97653,27.16211 -73.32845,-24.78315 -151.39266,-29.97375 -225.0293,-23.18946 -121.35156,11.18037 -240.57532,54.95548 -338.20313,131.63867 -97.9095,76.90447 -171.20449,185.548 -199.90234,308.99024 -26.152718,112.494488 -13.80233,232.017293 34.80078,336.78711 48.6031,104.76982 131.88313,191.38968 234.66211,244.07226 A 70.007,70.007 0 1 0 454.26172,286.63477 C 379.97104,248.55475 317.86956,183.9621 282.73828,108.23242 247.60699,32.502732 238.39708,-56.62426 257.30078,-137.9375 c 20.78337,-89.39855 76.08248,-172.52033 150.01758,-230.59375 74.21679,-58.29467 168.32467,-93.45904 264.56836,-102.32617 7.02436,-0.64717 14.0498,-1.08604 21.07031,-1.42774 -42.89368,39.97273 -79.28406,86.60102 -107.82812,137.61133 -46.34292,82.81813 -71.50851,175.77523 -75.78907,269.443361 -4.47667,97.959749 14.08262,200.910249 68.51172,289.705079 27.23278,44.42714 63.00173,84.33804 106.69336,115.51953 43.78884,31.25087 94.79834,53.10795 149.52735,61.37695 68.7718,10.39072 141.02661,-1.3383 202.93943,-38.22265 62.3962,-37.17228 109.8655,-97.77628 127.0137,-170.86914 10.5632,-45.0248 8.8711,-92.02132 -4.9024,-136.169925 -13.7734,-44.148419 -39.1053,-83.769561 -73.3964,-114.800781 -6.0504,-5.475183 -12.4165,-10.531849 -18.92,-15.386719 37.8977,-43.432045 62.1868,-97.516585 69.0918,-155.249995 7.5806,-63.38189 -6.1665,-126.18506 -34.9824,-180.4668 -12.4256,-23.40659 -27.5699,-44.79743 -44.5898,-64.29883 68.1378,1.88076 136.3821,24.5023 190.3691,64.26758 50.431,37.14598 89.9422,91.0699 111.1504,150.78125 14.1515,39.84325 20.3873,84.71189 23.043,132.67187 -1.3141,27.452157 -1.5548,54.449685 -1.3067,80.494144 l 3.5782,375.712886 a 70.007,70.007 0 0 0 139.998,-0.74414 l -0.4316,-382.927731 c -0.026,-23.156319 -0.3448,-47.043469 -1.4024,-71.335939 3.255,-54.20907 11.7353,-104.41658 31.1953,-147.17969 28.7502,-63.17815 82.2212,-117.05109 145.9258,-149.33593 57.1138,-28.94472 123.0013,-42.53826 187.5098,-39.17188 64.5677,3.36947 129.0524,23.68343 184.7246,57.66602 65.2237,39.81282 118.538,100.19062 154.332,169.81445 -27.3905,-8.06744 -55.5837,-14.03399 -84.4609,-17.21289 -66.1258,-7.27938 -134.7051,-0.39966 -198.916,24.05469 -64.4346,24.53951 -122.8256,66.38584 -165.0879,123.5625 -42.4594,57.443235 -66.7322,128.26841 -64.4727,201.777341 2.7058,88.026459 43.3835,170.495389 109.4141,227.285159 65.8327,56.61962 151.9211,83.81294 237.5371,77.55273 59.8794,-4.37836 116.7906,-24.71642 165.9121,-56.54297 49.0089,-31.75354 89.3072,-74.20339 119.5723,-122.35547 32.3999,-51.54866 52.4966,-108.21987 62.5058,-166.199214 26.169,35.56578 46.8604,74.853094 60.1895,116.242184 32.8632,102.04628 21.5933,220.30239 -31.5957,311.81055 -58.4529,100.56414 -171.6324,172.13585 -287.5449,181.83984 -115.9125,9.70399 -239.4154,-42.05475 -313.7754,-131.5 a 70.007,70.007 0 1 0 -107.6563,89.5 c 105.0292,126.33616 269.3918,195.21999 433.1113,181.51368 163.7196,-13.70631 314.3412,-108.95916 396.9024,-251 74.5985,-128.34182 88.907,-285.0778 43.8203,-425.08008 -35.4169,-109.975853 -105.7396,-205.495076 -196.7324,-274.34766 -30.3833,-155.14022 -123.2813,-296.69011 -260.1133,-380.21289 -75.3342,-45.98435 -161.663,-73.34733 -250.3711,-77.97656 -88.7672,-4.63234 -178.299,13.66336 -258.0918,54.10156 -73.252,37.12338 -136.7562,93.2916 -181.2227,163.16797 -31.2824,-54.02961 -73.3977,-101.72087 -124.2109,-139.14844 -79.435,-58.50954 -175.9069,-89.78949 -273.4375,-91.67773 -6.0858,-0.11783 -12.1671,-0.12179 -18.2383,-0.0137 z m -154.88864,178.92578 c 7.022,3.73757 13.87805,7.6986 20.4414,12.03125 31.20314,20.598 57.26252,48.24758 73.65821,79.13281 16.25607,30.62224 23.46573,66.13353 19.63085,98.19727 -4.15923,34.77547 -22.34573,69.64574 -48.48046,92.96093 -13.26072,11.8301 -29.25294,21.25719 -46.35743,27.72852 -25.0406,0.97314 -49.92135,5.4512 -73.8457,13.65039 a 70.007,70.007 0 0 0 23.05274,136.216796 c 24.44313,-0.125256 48.57917,-3.434792 71.89648,-9.582032 4.33607,0.388709 8.64009,0.953283 12.84961,1.81836 20.3831,4.188828 40.35366,14.310762 55.7832,28.273437 15.42924,13.962498 27.48994,32.826393 33.68754,52.691407 6.1974,19.864822 7.0029,42.239092 2.25,62.498042 -7.5997,32.39282 -31.67997,64.29045 -62.36722,82.57227 -31.1706,18.56977 -72.01095,25.86253 -110.37305,20.06641 -31.12201,-4.70222 -62.22886,-17.71569 -89.11328,-36.90235 -26.98161,-19.25601 -50.51736,-45.13062 -68.66016,-74.72851 -36.32205,-59.255257 -51.46832,-134.640387 -48.01758,-210.150394 3.32551,-72.769446 23.08865,-144.891166 58.10547,-207.468746 34.96331,-62.48197 85.89864,-116.35184 146.13086,-152.9336 9.62552,-5.84601 19.60495,-11.09965 29.72852,-16.07226 z m 1207.57814,322 c 11.4797,-0.0134 23.0108,0.61673 34.4941,1.88086 46.0934,5.07411 92.2849,20.248712 135.2364,42.955074 4.4709,2.363556 8.8571,4.896767 13.2441,7.425782 5.0459,75.559315 -10.2942,151.723209 -47.7344,211.291014 -20.1128,31.99969 -46.7245,59.63984 -77.166,79.36328 -30.3287,19.65044 -65.4585,31.88478 -99.9961,34.41016 -48.3934,3.53851 -99.9992,-13.07216 -136.0391,-44.06836 -35.842,-30.82607 -59.347,-79.16602 -60.7695,-125.44336 -1.2041,-39.174085 12.5717,-81.046168 37.1231,-114.261719 24.7484,-33.482132 61.4121,-60.359287 102.332,-75.943359 30.8576,-11.751912 64.8363,-17.569212 99.2754,-17.609372 z"
       id="path4370-9-4-7-0"
       inkscape:connector-curvature="0" />
  </g>
</svg>
