<?xml version="1.0" encoding="UTF-8" standalone="no"?>
<!-- Created with Inkscape (http://www.inkscape.org/) -->

<svg
   xmlns:dc="http://purl.org/dc/elements/1.1/"
   xmlns:cc="http://creativecommons.org/ns#"
   xmlns:rdf="http://www.w3.org/1999/02/22-rdf-syntax-ns#"
   xmlns:svg="http://www.w3.org/2000/svg"
   xmlns="http://www.w3.org/2000/svg"
   xmlns:sodipodi="http://sodipodi.sourceforge.net/DTD/sodipodi-0.dtd"
   xmlns:inkscape="http://www.inkscape.org/namespaces/inkscape"
   width="2000"
   height="2048"
   id="svg2992"
   version="1.1"
   inkscape:version="0.91pre3 r13670"
   sodipodi:docname="ഇ.svg">
  <defs
     id="defs5498">
    <inkscape:path-effect
       effect="spiro"
       id="path-effect4142"
       is_visible="true" />
    <inkscape:path-effect
       effect="spiro"
       id="path-effect4142-0"
       is_visible="true" />
    <inkscape:path-effect
       effect="spiro"
       id="path-effect4142-0-3"
       is_visible="true" />
    <inkscape:path-effect
       effect="spiro"
       id="path-effect4142-0-3-5"
       is_visible="true" />
  </defs>
  <sodipodi:namedview
     inkscape:window-height="853"
     inkscape:window-width="1600"
     inkscape:pageshadow="2"
     inkscape:pageopacity="0.0"
     borderopacity="1.0"
     bordercolor="#666666"
     pagecolor="#ffffff"
     id="base"
     showgrid="true"
     showguides="true"
     inkscape:guide-bbox="true"
     inkscape:zoom="0.32102648"
     inkscape:cx="589.94902"
     inkscape:cy="1093.774"
     inkscape:window-x="1598"
     inkscape:window-y="-3"
     inkscape:current-layer="layer1"
     inkscape:window-maximized="1"
     inkscape:snap-grids="false">
    <sodipodi:guide
       orientation="horizontal"
       position="0,600"
       id="guide5596" />
    <inkscape:grid
       type="xygrid"
       id="grid3769"
       empspacing="3"
       visible="true"
       enabled="true"
       snapvisiblegridlinesonly="true"
       spacingx="4px"
       units="px"
       dotted="true"
       spacingy="4px" />
    <sodipodi:guide
       orientation="0,1"
       position="-1040,1600"
       id="guide2985" />
  </sodipodi:namedview>
  <metadata
     id="metadata5594">
    <rdf:RDF>
      <cc:Work
         rdf:about="">
        <dc:format>image/svg+xml</dc:format>
        <dc:type
           rdf:resource="http://purl.org/dc/dcmitype/StillImage" />
        <dc:title />
      </cc:Work>
    </rdf:RDF>
  </metadata>
  <g
     inkscape:label="Layer 1"
     inkscape:groupmode="layer"
     id="layer1"
     transform="translate(0,1048)">
    <path
       style="color:#000000;font-style:normal;font-variant:normal;font-weight:normal;font-stretch:normal;font-size:medium;line-height:normal;font-family:sans-serif;text-indent:0;text-align:start;text-decoration:none;text-decoration-line:none;text-decoration-style:solid;text-decoration-color:#000000;letter-spacing:normal;word-spacing:normal;text-transform:none;direction:ltr;block-progression:tb;writing-mode:lr-tb;baseline-shift:baseline;text-anchor:start;white-space:normal;clip-rule:nonzero;display:inline;overflow:visible;visibility:visible;opacity:1;isolation:auto;mix-blend-mode:normal;color-interpolation:sRGB;color-interpolation-filters:linearRGB;solid-color:#000000;solid-opacity:1;fill:#000000;fill-opacity:1;fill-rule:evenodd;stroke:none;stroke-width:140;stroke-linecap:round;stroke-linejoin:round;stroke-miterlimit:4;stroke-dasharray:none;stroke-dashoffset:0;stroke-opacity:1;color-rendering:auto;image-rendering:auto;shape-rendering:auto;text-rendering:auto;enable-background:accumulate"
       d="m 1365.8672,-605.2832 c -22.6574,0.54669 -45.4589,2.79308 -68.2617,6.79492 -115.7174,16.52888 -212.5062,86.13505 -271.5371,180.42383 -31.95798,-47.70116 -74.5555,-88.8776 -128.77348,-118.51172 C 647.78738,-676.82194 302.29499,-586.34494 170.25,-325.02344 l 1.5625,-2.91992 c -49.64723,87.68603 -66.20778,192.29119 -48.30078,291.294922 C 141.33396,61.886684 196.27607,157.16249 291.78516,212.45508 450.26957,311.96996 669.61357,235.77733 732.4043,59.796875 806.26782,-118.1645 687.40584,-326.24278 498.5625,-357.20508 c -44.7031,-9.52819 -89.23225,-8.26982 -131.20117,1.69141 120.49619,-109.27863 319.71382,-138.78149 461.57812,-58.89649 a 70.007,70.007 0 0 0 0.87891,0.48633 c 83.23052,45.30616 128.75236,145.91678 131.35937,247.38477 -3.92595,95.978019 -0.55869,189.772776 0.13868,280.88672 -0.003,19.1926 -0.0349,38.33731 -0.01,57.55273 a 70.007,70.007 0 0 0 139.99606,0.65234 c 0,-0.27992 -9e-4,-0.55605 0,-0.83593 l 0,0 c -3e-4,-0.24829 4e-4,-0.4978 0,-0.7461 0.2134,-21.17978 0.1622,-42.20422 0.012,-63.14843 0.024,-83.126606 0.1705,-166.407789 -0.2598,-249.96485 l -0.047,2.91016 c 0.2874,-7.88448 0.2819,-15.82858 0.1992,-23.78125 0.896,-22.14957 2.0716,-44.18678 3.9766,-65.98242 11.0046,-111.9812 103.1085,-215.86675 213.2598,-231.08203 a 70.007,70.007 0 0 0 2.6718,-0.42188 c 168.5266,-29.95571 353.6105,93.07284 397.7247,258.48047 a 70.007,70.007 0 0 0 0.9296,3.18164 c 47.3198,148.749696 -21.7586,332.7325 -159.7246,405.23828 a 70.007,70.007 0 0 0 -1.4804,0.80078 c -136.1683,75.79168 -310.2896,54.29934 -496.1875,59.90039 -212.3433,1.8591 -426.06065,-0.35303 -640.82817,4.94532 a 70.007,70.007 0 0 0 -1.65039,0.0605 c -57.22744,2.76286 -121.98308,14.24589 -181.58984,44.94727 -59.60676,30.70138 -115.8296,86.6188 -131.63867,165.76953 a 70.007,70.007 0 0 0 -0.59766,3.43164 c -11.519224,77.59337 25.16875,147.62516 74.76367,190.96875 49.59493,43.34359 111.55359,67.48687 174.16797,71.81836 a 70.007,70.007 0 0 0 0.52735,0.0332 c 161.25516,9.93503 319.48782,3.22252 473.65429,5.24024 a 70.007,70.007 0 0 0 0.88477,0.006 l 975.73238,0.4375 a 70.007,70.007 0 1 0 0.062,-140 l -975.65621,-0.4375 -0.0762,0 c -158.86121,-2.04785 -314.39363,4.3277 -465.60156,-4.96094 -30.3657,-2.13647 -68.31844,-17.23512 -91.56641,-37.55274 -22.75895,-19.89023 -31.84931,-37.67558 -28.56641,-63.27343 6.75655,-31.21975 24.69082,-49.85508 58.01563,-67.01954 33.8157,-17.41729 81.64836,-27.43928 123.70703,-29.5332 211.20246,-5.1842 423.87209,-3.01408 637.6855,-4.88867 a 70.007,70.007 0 0 0 1.543,-0.0293 c 168.9644,-5.20875 373.2111,26.65389 560.3731,-77.04101 203.5273,-107.32604 295.8559,-356.296671 227.4589,-571.30274 l 0.9297,3.18164 c -57.8407,-216.87566 -266.068,-372.5465 -488.248,-367.18554 z m -922.81837,382.04297 c 9.20682,0.12381 18.39273,1.14291 27.45312,3.14257 a 70.007,70.007 0 0 0 4.2793,0.80664 c 95.5242,14.92502 165.7503,137.678895 127.85156,226.7109419 A 70.007,70.007 0 0 0 600.94727,11.78125 C 570.56342,98.88244 443.58913,143.15753 365.47266,93.464844 A 70.007,70.007 0 0 0 362.68555,91.78125 C 310.24952,61.755577 277.95793,11.990824 264.09766,-47.978516 a 70.007,70.007 0 0 0 0.0391,-4.263672 c -1.06498,-89.704062 89.91282,-172.194962 178.91211,-170.998042 z"
       id="path4140-7-5"
       inkscape:connector-curvature="0" />
    <path
       style="fill:none;fill-rule:evenodd;stroke:#000000;stroke-width:140;stroke-linecap:round;stroke-linejoin:round;stroke-miterlimit:4;stroke-dasharray:none;stroke-opacity:1"
       d="m -1786.6769,-51.542384 c 1.202,-69.368306 33.4194,-137.622996 86.2095,-182.640866 52.7902,-45.01787 125.2764,-66.05131 193.964,-56.28281 60.3632,8.58464 117.1345,40.62533 155.4454,88.05628 38.3109,47.43095 57.7018,109.795495 52.7375,170.563678 -4.9644,60.768183 -34.3007,119.255144 -80.2392,159.343412 -45.9386,40.08828 -107.9856,61.24845 -168.8269,57.28008 -42.3335,-2.7612 -83.6871,-17.33058 -119.0682,-40.73845 -35.3811,-23.40786 -64.7957,-55.520184 -86.0562,-92.231801 -42.5209,-73.423234 -51.3152,-163.767819 -32.4702,-246.495509 25.1295,-110.31609 98.351,-207.85577 194.786,-267.02856 96.435,-59.1728 214.5621,-80.37203 326.4187,-63.36536 48.1772,7.32485 95.547,21.64571 138.2894,45.05039 42.7424,23.40468 80.5435,56.02897 108.9667,95.61201 28.42316,39.58304 47.10165,85.75926 56.74473,133.52646 9.64308,47.7672 10.26426,96.83472 10.26426,145.56555 l 0,277.0058 -1.8401,-274.0352 c -0.368,-54.80354 -0.0217,-110.05546 11.29805,-163.67845 11.3198,-53.62299 33.70463,-105.27224 67.99344,-148.02549 34.28881,-42.75326 80.04273,-76.0925 130.99417,-96.27946 50.95145,-20.18696 106.65028,-27.38334 161.32854,-23.66171 104.31353,7.10001 205.20059,54.38039 278.18215,129.24971 72.98156,74.86932 117.58877,176.52034 124.36355,280.8555 4.5159,69.547177 -7.54682,140.306952 -36.38012,203.756495 -28.83329,63.449545 -74.4482,119.092355 -130.69138,160.249465 -56.24319,41.15711 -122.53675,67.50743 -190.88441,81.13827 -68.34767,13.63084 -138.4975,14.66656 -208.19049,14.9672 l -663.74839,2.86322 c -80.1018,0.34554 -161.4206,-2.86461 -239.1907,16.32455 -38.8851,9.59458 -76.8182,25.79155 -107.0181,52.09878 -30.1999,26.30723 -52.0876,63.75515 -53.7561,103.77165 -1.3331,31.9734 10.3504,63.83432 29.8493,89.20889 19.4989,25.37457 46.4415,44.48172 75.7683,57.28865 58.6534,25.61387 124.743,26.22973 188.7454,26.25846 l 1337.70719,0.6004"
       id="path4140-7-5-5"
       inkscape:path-effect="#path-effect4142-0-3-5"
       inkscape:original-d="m -1786.6769,-51.542384 c 0,0 171.0378,-295.084396 280.1735,-238.923676 141.3786,72.75272 113.6794,437.94352 -40.8832,475.24345 -145.0725,35.00973 -270.629,-233.930754 -237.5946,-379.46576 45.533,-200.59778 318.8859,-367.54002 521.2047,-330.39392 171.9141,31.56368 314.26509,259.46981 314.26509,419.75441 l 0,277.0058 -1.8401,-274.0352 c 13.1351,-294.42661 181.8574,-425.44791 371.6142,-431.64511 191.4499,-6.2524 413.2918,218.85494 402.5457,410.10521 -13.6423,242.79605 -258.4203,458.78398 -566.1464,460.11143 l -663.74839,2.86322 c -303.5758,1.30954 -390.9585,27.3222 -399.9649,172.19498 -7.0593,113.5516 54.3631,172.6482 294.363,172.756 l 1337.70719,0.6004"
       inkscape:connector-curvature="0"
       sodipodi:nodetypes="caaaasccaassasc" />
  </g>
</svg>
