<?xml version="1.0" encoding="UTF-8" standalone="no"?>
<!-- Created with Inkscape (http://www.inkscape.org/) -->

<svg
   xmlns:dc="http://purl.org/dc/elements/1.1/"
   xmlns:cc="http://creativecommons.org/ns#"
   xmlns:rdf="http://www.w3.org/1999/02/22-rdf-syntax-ns#"
   xmlns:svg="http://www.w3.org/2000/svg"
   xmlns="http://www.w3.org/2000/svg"
   xmlns:sodipodi="http://sodipodi.sourceforge.net/DTD/sodipodi-0.dtd"
   xmlns:inkscape="http://www.inkscape.org/namespaces/inkscape"
   width="2000"
   height="2048"
   id="svg2992"
   version="1.1"
   inkscape:version="0.91 r13725"
   sodipodi:docname="ഇ.svg">
  <defs
     id="defs5498">
    <inkscape:path-effect
       effect="spiro"
       id="path-effect4142"
       is_visible="true" />
    <inkscape:path-effect
       effect="spiro"
       id="path-effect4142-0"
       is_visible="true" />
    <inkscape:path-effect
       effect="spiro"
       id="path-effect4142-0-3"
       is_visible="true" />
    <inkscape:path-effect
       effect="spiro"
       id="path-effect4142-0-3-5"
       is_visible="true" />
    <inkscape:path-effect
       effect="spiro"
       id="path-effect4142-0-3-5-2"
       is_visible="true" />
    <inkscape:path-effect
       effect="spiro"
       id="path-effect4142-0-3-5-2-3"
       is_visible="true" />
    <inkscape:path-effect
       effect="spiro"
       id="path-effect4142-0-3-5-3"
       is_visible="true" />
  </defs>
  <sodipodi:namedview
     inkscape:window-height="851"
     inkscape:window-width="1600"
     inkscape:pageshadow="2"
     inkscape:pageopacity="0.0"
     borderopacity="1.0"
     bordercolor="#666666"
     pagecolor="#ffffff"
     id="base"
     showgrid="true"
     showguides="true"
     inkscape:guide-bbox="true"
     inkscape:zoom="0.32102648"
     inkscape:cx="852.42088"
     inkscape:cy="-774.18181"
     inkscape:window-x="1599"
     inkscape:window-y="-1"
     inkscape:current-layer="layer1"
     inkscape:window-maximized="1"
     inkscape:snap-grids="false">
    <sodipodi:guide
       orientation="horizontal"
       position="0,600"
       id="guide5596" />
    <inkscape:grid
       type="xygrid"
       id="grid3769"
       empspacing="3"
       visible="true"
       enabled="true"
       snapvisiblegridlinesonly="true"
       spacingx="4px"
       units="px"
       dotted="true"
       spacingy="4px" />
    <sodipodi:guide
       orientation="0,1"
       position="-1040,1600"
       id="guide2985" />
  </sodipodi:namedview>
  <metadata
     id="metadata5594">
    <rdf:RDF>
      <cc:Work
         rdf:about="">
        <dc:format>image/svg+xml</dc:format>
        <dc:type
           rdf:resource="http://purl.org/dc/dcmitype/StillImage" />
        <dc:title />
      </cc:Work>
    </rdf:RDF>
  </metadata>
  <g
     inkscape:label="Layer 1"
     inkscape:groupmode="layer"
     id="layer1"
     transform="translate(0,1048)">
    <path
       style="fill:none;fill-rule:evenodd;stroke:#000000;stroke-width:140;stroke-linecap:round;stroke-linejoin:round;stroke-miterlimit:4;stroke-dasharray:none;stroke-opacity:1"
       d="m -1786.6769,-51.542384 c 1.7501,-69.193636 34.1145,-137.058986 86.7807,-181.971116 52.6661,-44.91212 124.7912,-66.15234 193.3928,-56.95256 60.9051,8.16764 118.3872,40.03417 157.2835,87.60744 38.8964,47.57326 58.7187,110.399298 53.7805,171.65088 -4.9381,61.251582 -34.6732,120.214457 -81.2434,160.30637 -46.5701,40.09191 -109.4626,60.74355 -170.7038,55.67876 -41.9554,-3.46981 -82.7204,-18.62731 -117.502,-42.34514 -34.7817,-23.71783 -63.5989,-55.859215 -84.5454,-92.376858 -41.8931,-73.035286 -51.3656,-162.045722 -35.5472,-244.743762 21.859,-114.27811 91.5143,-218.3597 188.0051,-283.3737 96.4908,-65.014 218.4924,-90.50265 333.1996,-71.02022 49.5678,8.41884 97.9442,25.06394 141.0049,51.01816 43.0607,25.95422 80.5019,61.29375 108.3537,103.1521 27.85177,41.85835 45.82609,89.8904 55.08462,139.30824 9.25854,49.41785 9.82187,99.99824 9.82187,150.27591 l 0,277.0058 -1.8401,-274.0352 c -0.37765,-56.24094 -0.10925,-112.88758 10.7407,-168.07331 10.84995,-55.18573 32.37764,-108.65032 65.98652,-153.7461 33.60887,-45.09578 78.96806,-81.33068 130.35148,-104.19833 51.38343,-22.86765 108.3636,-32.43873 164.5355,-29.62737 108.27785,5.41923 212.69521,57.40994 285.38886,137.84062 72.69364,80.43068 113.66492,187.90746 117.15684,296.26459 2.23628,69.393673 -10.60742,139.495154 -39.50652,202.624585 -28.8991,63.129425 -73.93152,118.781935 -129.66367,160.187375 -55.73214,41.40544 -121.58595,68.17213 -189.61562,82.04463 -68.02968,13.87249 -137.93154,14.95534 -207.36059,15.25484 l -663.74839,2.86322 c -80.1018,0.34554 -161.4206,-2.86461 -239.1907,16.32455 -38.8851,9.59458 -76.8182,25.79155 -107.0181,52.09878 -30.1999,26.30723 -52.0876,63.75515 -53.7561,103.77165 -1.3331,31.9734 10.3504,63.83432 29.8493,89.20889 19.4989,25.37457 46.4415,44.48172 75.7683,57.28865 58.6534,25.61387 124.743,26.22973 188.7454,26.25846 l 1337.70719,0.6004"
       id="path4140-7-5-5"
       inkscape:path-effect="#path-effect4142-0-3-5"
       inkscape:original-d="m -1786.6769,-51.542384 c 0,0 171.0378,-295.084396 280.1735,-238.923676 141.3786,72.75272 113.6794,437.94352 -40.8832,475.24345 -145.0725,35.00973 -268.2842,-233.418283 -237.5946,-379.46576 43.2041,-205.60211 314.4588,-391.74283 521.2047,-354.39392 178.3679,32.22239 314.26509,283.46981 314.26509,443.75441 l 0,277.0058 -1.8401,-274.0352 c 13.1351,-294.42661 175.72282,-449.42083 371.6142,-455.64511 197.24122,-6.26717 416.41324,237.2523 402.5457,434.10521 -17.08868,242.57784 -258.4203,458.78398 -566.1464,460.11143 l -663.74839,2.86322 c -303.5758,1.30954 -390.9585,27.3222 -399.9649,172.19498 -7.0593,113.5516 54.3631,172.6482 294.363,172.756 l 1337.70719,0.6004"
       inkscape:connector-curvature="0"
       sodipodi:nodetypes="caaaasccaassasc" />
    <path
       id="path4142"
       style="opacity:1;fill:#000000;fill-opacity:1;fill-rule:evenodd;stroke:none;stroke-width:50;stroke-linecap:round;stroke-linejoin:round;stroke-miterlimit:4;stroke-dasharray:none;stroke-opacity:1"
       d="m 616.52089,-65.038391 c 0,89.188729 -77.16353,161.490478 -172.34956,161.490478 -95.18604,5e-6 -172.34957,-72.301746 -172.34957,-161.490478 0,-89.188729 77.16353,-161.490489 172.34957,-161.490479 95.18603,0 172.34956,72.30175 172.34956,161.490479 z M 1365.8672,-605.2832 c -22.6574,0.54669 -45.4589,2.79308 -68.2617,6.79492 -115.7174,16.52888 -212.5062,86.13505 -271.5371,180.42383 -31.95798,-47.70116 -74.5555,-88.8776 -128.77348,-118.51172 C 647.78738,-676.82194 302.29499,-586.34494 170.25,-325.02344 l 1.5625,-2.91992 c -49.64723,87.68603 -66.20778,192.29119 -48.30078,291.294922 C 141.33396,61.886684 196.27607,157.16249 291.78516,212.45508 450.26957,311.96996 669.61357,235.77733 732.4043,59.796875 806.26782,-118.1645 687.40584,-326.24278 498.5625,-357.20508 c -44.7031,-9.52819 -89.23225,-8.26982 -131.20117,1.69141 120.49619,-109.27863 319.71382,-138.78149 461.57812,-58.89649 0.2918,0.16421 0.58478,0.32632 0.87891,0.48633 83.23052,45.30616 128.75236,145.91678 131.35937,247.38477 -3.92595,95.978019 -0.55869,189.772776 0.13868,280.88672 -0.003,19.1926 -0.0349,38.33731 -0.01,57.55273 0.40752,38.2436 31.43148,69.08205 69.67679,69.26027 38.2454,0.17821 69.5554,-30.36979 70.3193,-68.60793 0,-0.27992 -9e-4,-0.55605 0,-0.83593 l 0,0 c -3e-4,-0.24829 4e-4,-0.4978 0,-0.7461 0.2134,-21.17978 0.1622,-42.20422 0.012,-63.14843 0.024,-83.126606 0.1705,-166.407789 -0.2598,-249.96485 l -0.047,2.91016 c 0.2874,-7.88448 0.2819,-15.82858 0.1992,-23.78125 0.896,-22.14957 2.0716,-44.18678 3.9766,-65.98242 11.0046,-111.9812 103.1085,-215.86675 213.2598,-231.08203 0.8932,-0.12341 1.784,-0.26406 2.6718,-0.42188 168.5266,-29.95571 353.6105,93.07284 397.7247,258.48047 0.2847,1.06773 0.5946,2.12858 0.9296,3.18164 47.3198,148.749696 -21.7586,332.7325 -159.7246,405.23828 -0.4967,0.26098 -0.9902,0.52793 -1.4804,0.80078 -136.1683,75.79168 -310.2896,54.29934 -496.1875,59.90039 -212.34333,1.8591 -426.06068,-0.35303 -640.8282,4.94532 -0.55035,0.0137 -1.10052,0.0338 -1.65039,0.0605 -57.22744,2.76286 -121.98308,14.24589 -181.58984,44.94727 -59.60676,30.70138 -115.8296,86.6188 -131.63867,165.76953 -0.22765,1.13875 -0.42693,2.28298 -0.59766,3.43164 -11.519224,77.59337 25.16875,147.62516 74.76367,190.96875 49.59493,43.34359 111.55359,67.48687 174.16797,71.81836 0.17574,0.0117 0.35153,0.0228 0.52735,0.0332 161.25516,9.93503 319.48782,3.22252 473.65429,5.24024 0.29491,0.004 0.58984,0.006 0.88477,0.006 l 975.73241,0.4375 c 39.0466,0.56924 71.0101,-30.91777 71.0274,-69.96856 0.017,-39.05079 -31.9183,-70.5661 -70.9654,-70.03144 l -975.65624,-0.4375 -0.0762,0 c -158.86121,-2.04785 -314.39363,4.3277 -465.60156,-4.96094 -30.3657,-2.13647 -68.31844,-17.23512 -91.56641,-37.55274 -22.75895,-19.89023 -31.84931,-37.67558 -28.56641,-63.27343 6.75655,-31.21975 24.69082,-49.85508 58.01563,-67.01954 33.8157,-17.41729 81.64836,-27.43928 123.70703,-29.5332 211.20246,-5.1842 423.87209,-3.01408 637.68546,-4.88867 0.5145,-0.004 1.0288,-0.0139 1.543,-0.0293 168.9644,-5.20875 373.2111,26.65389 560.3731,-77.04101 203.5273,-107.32604 295.8559,-356.296671 227.4589,-571.30274 l 0.9297,3.18164 c -57.8407,-216.87566 -266.068,-372.5465 -488.248,-367.18554 z"
       inkscape:connector-curvature="0"
       sodipodi:nodetypes="sssssccccccscccccccccsccccccccccccscscccsccscccccsccccscscccccccc" />
    <path
       style="fill:none;fill-rule:evenodd;stroke:#000000;stroke-width:70.00000763;stroke-linecap:round;stroke-linejoin:round;stroke-miterlimit:4;stroke-dasharray:none;stroke-opacity:1"
       d="m 2616.3478,-53.413209 c 1.3063,-74.823731 36.0397,-148.444191 92.9573,-197.031121 56.9175,-48.58692 135.0768,-71.3358 209.1783,-60.88302 65.2142,9.19913 126.5737,43.75827 167.9883,94.96711 41.4146,51.20884 62.3863,118.573029 57.0296,184.214627 -5.3568,65.641599 -37.06,128.818775 -86.7022,172.098963 -49.6421,43.28019 -116.6879,66.09017 -182.4037,61.73672 -45.6737,-3.02574 -90.2776,-18.78568 -128.4334,-44.07171 -38.1558,-25.28603 -69.8701,-59.953688 -92.7903,-99.575795 -45.8403,-79.244214 -55.3098,-176.714155 -34.9952,-265.979485 27.0841,-119.01126 105.9846,-224.28599 209.9721,-288.19086 103.9875,-63.90487 231.4265,-86.84581 352.0886,-68.46388 51.9803,7.9188 103.0831,23.40655 149.1825,48.69504 46.0994,25.28849 86.8568,60.52295 117.4969,103.2529 30.64,42.72994 50.7687,92.56149 61.16,144.10449 10.3914,51.54301 11.0601,104.48543 11.0601,157.06548 l 0,299.02316 -1.9844,-295.81645 c -0.3966,-59.12817 -0.025,-118.73891 12.1724,-176.59676 12.197,-57.85786 36.3178,-113.59299 73.28,-159.74593 36.9622,-46.15295 86.295,-82.16552 141.2502,-103.98794 54.9553,-21.82242 115.0478,-29.62701 174.0416,-25.62308 112.5527,7.63899 221.3886,58.73805 300.0704,139.58136 78.6817,80.84331 126.7181,190.54598 134.0298,303.12039 4.8734,75.034125 -8.0953,151.377747 -39.1523,219.856426 -31.0571,68.478674 -80.2175,128.555254 -140.8655,173.003984 -60.648,44.44874 -132.1589,72.91966 -205.8945,87.64838 -73.7356,14.72871 -149.4214,15.84917 -224.6129,16.17385 l -715.7781,3.0908 c -86.3938,0.37306 -174.1045,-3.06991 -257.971,17.67701 -41.9332,10.37345 -82.8329,27.87155 -115.3897,56.26276 -32.5568,28.39122 -56.1473,68.78243 -57.9564,111.94181 -1.4457,34.49064 11.1363,68.86506 32.1516,96.25216 21.0152,27.38709 50.0637,48.02101 81.6911,61.85584 63.2548,27.66965 134.5528,28.34822 203.5947,28.37924 l 1442.5669,0.64812"
       id="path4140-7-5-5-1"
       inkscape:path-effect="#path-effect4142-0-3-5-2"
       inkscape:original-d="m 2616.3478,-53.413209 c 0,0 184.445,-318.538701 302.1356,-257.914141 152.4609,78.53536 122.5905,472.75276 -44.088,513.01742 -156.4443,37.79242 -291.8429,-252.524372 -256.2189,-409.62699 49.1021,-216.54197 343.8825,-396.75332 562.0607,-356.65474 185.3899,34.07246 338.8995,280.09334 338.8995,453.11791 l 0,299.02316 -1.9844,-295.81645 c 14.1647,-317.82863 196.1127,-459.26395 400.7442,-465.95371 206.4571,-6.74937 445.6887,236.25026 434.1002,442.70175 -14.7116,262.0943 -278.6773,495.24968 -610.5252,496.68264 l -715.7781,3.0908 c -327.3723,1.41362 -421.6047,29.49385 -431.3171,185.88158 -7.6126,122.57708 58.6245,186.37087 317.4374,186.48724 l 1442.5669,0.64812"
       inkscape:connector-curvature="0"
       sodipodi:nodetypes="caaaasccaassasc" />
    <path
       style="color:#000000;font-style:normal;font-variant:normal;font-weight:normal;font-stretch:normal;font-size:medium;line-height:normal;font-family:sans-serif;text-indent:0;text-align:start;text-decoration:none;text-decoration-line:none;text-decoration-style:solid;text-decoration-color:#000000;letter-spacing:normal;word-spacing:normal;text-transform:none;direction:ltr;block-progression:tb;writing-mode:lr-tb;baseline-shift:baseline;text-anchor:start;white-space:normal;clip-rule:nonzero;display:inline;overflow:visible;visibility:visible;opacity:1;isolation:auto;mix-blend-mode:normal;color-interpolation:sRGB;color-interpolation-filters:linearRGB;solid-color:#000000;solid-opacity:1;fill:#000000;fill-opacity:1;fill-rule:evenodd;stroke:none;stroke-width:70.00000763;stroke-linecap:round;stroke-linejoin:round;stroke-miterlimit:4;stroke-dasharray:none;stroke-dashoffset:0;stroke-opacity:1;color-rendering:auto;image-rendering:auto;shape-rendering:auto;text-rendering:auto;enable-background:accumulate"
       d="m 3025.2871,1143.8223 c -55.9614,-0.9705 -112.5193,8.0368 -165.3945,29.0332 -60.5532,24.0453 -114.7447,63.5592 -155.6524,114.6386 -25.5212,31.8673 -45.277,67.5135 -59.7343,105 -10.8155,-25.0361 -24.1026,-49.1135 -40.1914,-71.5507 -33.8958,-47.2702 -78.6157,-85.845 -129.1075,-113.543 -50.3789,-27.6361 -105.4232,-44.1817 -160.7441,-52.6094 -128.5756,-19.5874 -264.0138,4.6169 -375.6856,73.2442 -111.8675,68.7474 -196.4167,181.2465 -225.7734,310.2441 -22.0601,96.9352 -12.1968,203.068 38.8262,291.2715 25.4964,44.0756 60.7612,82.7344 103.7519,111.2246 43.0434,28.5251 93.2825,46.3641 145.4551,49.8203 75.3285,4.9902 150.9001,-20.742 207.7168,-70.2773 56.7952,-49.5166 92.4667,-120.6499 98.5859,-195.6348 6.1169,-74.9572 -17.48,-150.6843 -64.6992,-209.0703 -47.2021,-58.365 -116.1019,-97.1468 -190.3144,-107.6153 -84.4267,-11.9092 -171.9427,13.563 -236.791,68.92 -4.5811,3.9106 -8.9965,7.9898 -13.3145,12.1621 34.6057,-82.4369 96.5983,-154.3269 173.207,-201.4063 96.3033,-59.1826 215.7436,-80.858 328.4922,-63.6816 48.6397,7.4099 95.8012,21.8384 137.6211,44.7793 41.707,22.879 78.5023,54.7733 105.8867,92.9629 27.3609,38.157 45.7685,83.3834 55.293,130.6269 5.243,26.0059 7.7358,53.0832 9.0254,80.8242 -0.825,24.5854 -0.7987,48.9017 -0.6387,72.7657 l 1.9844,295.8164 a 35.003504,35.003504 0 0 0 70,-0.2344 l 0,-299.0234 c 0,-21.765 -0.276,-44.0129 -1.1602,-66.4649 1.1607,-34.2756 3.8541,-67.7354 10.5938,-99.7051 a 35.003504,35.003504 0 0 0 0,-0 c 11.2117,-53.1836 33.3394,-103.8652 66.3516,-145.0859 33.0167,-41.2264 77.4904,-73.7385 126.8477,-93.3379 49.4817,-19.6489 104.4278,-26.9196 158.7539,-23.2325 103.5529,7.0282 204.7876,54.5069 277.3593,129.0723 72.61,74.6047 117.4212,176.8304 124.1856,280.9785 4.5136,69.4944 -7.5723,140.2258 -36.1016,203.1309 -28.499,62.8385 -73.8863,118.3397 -129.6797,159.2305 -55.8152,40.9067 -122.5583,67.6735 -192.0605,81.5566 -69.5585,13.8944 -142.963,15.1724 -217.9082,15.4961 l -715.7793,3.0918 c -85.3616,0.3686 -175.9597,-3.6305 -266.2246,18.6992 a 35.003504,35.003504 0 0 0 0,0 c -45.6898,11.3028 -91.8569,30.6068 -129.9883,63.8593 -38.6378,33.6942 -67.6178,81.8868 -69.9219,136.8535 -1.8423,43.9523 13.8351,85.7696 39.3535,119.0254 25.3294,33.0092 59.3067,56.8131 95.4317,72.6153 71.9097,31.4556 148.345,31.2814 217.6055,31.3125 l 1442.5664,0.6484 a 35.003504,35.003504 0 1 0 0.033,-70 l -1442.5684,-0.6484 c -68.8234,-0.031 -134.9821,-1.5616 -189.582,-25.4453 -27.1299,-11.8675 -51.2499,-29.3307 -67.9512,-51.0957 -16.5119,-21.5184 -25.9983,-48.4516 -24.9492,-73.4805 1.3142,-31.3521 19.5144,-63.9391 45.9902,-87.0274 26.9823,-23.5299 62.6144,-39.2218 100.791,-48.666 77.4681,-19.164 162.2909,-16.2767 249.7168,-16.6543 l 715.7774,-3.0898 c 75.4377,-0.3258 153.4056,-1.2884 231.3183,-16.8516 77.969,-15.5743 154.2477,-45.7496 219.7285,-93.7402 65.5026,-48.0066 118.4359,-112.6585 152.0508,-186.7774 33.5849,-74.0522 47.4364,-156.0082 42.2032,-236.582 -7.859,-121.0007 -59.1196,-238.1818 -143.8731,-325.2637 -84.7918,-87.1211 -201.2307,-141.84 -322.7832,-150.0898 -7.9577,-0.5401 -15.9391,-0.8809 -23.9336,-1.0195 z m -1018.9785,331.4433 c 12.1477,-0.3061 24.2822,0.3601 36.2402,2.0469 56.2159,7.9298 110.037,38.2658 145.6641,82.3184 35.61,44.0315 53.9559,103.0333 49.3594,159.3593 -4.5944,56.2984 -32.3294,111.5207 -74.8184,148.5645 -42.4675,37.0251 -100.9867,56.9119 -157.0898,53.1953 -39.1748,-2.5952 -78.1461,-16.2773 -111.4141,-38.3242 -33.3208,-22.0819 -61.4841,-52.7572 -81.8281,-87.9258 -15.4265,-26.6678 -26.2818,-56.0084 -32.8301,-86.6035 a 35.003504,35.003504 0 0 0 0.7051,-6.7168 c 1.1243,-64.3979 31.6987,-129.2046 80.6855,-171.0215 39.8017,-33.9762 92.6861,-53.566 145.3262,-54.8926 z"
       id="path4140-7-5-5-1-8"
       inkscape:connector-curvature="0" />
    <path
       style="color:#000000;font-style:normal;font-variant:normal;font-weight:normal;font-stretch:normal;font-size:medium;line-height:normal;font-family:sans-serif;text-indent:0;text-align:start;text-decoration:none;text-decoration-line:none;text-decoration-style:solid;text-decoration-color:#000000;letter-spacing:normal;word-spacing:normal;text-transform:none;direction:ltr;block-progression:tb;writing-mode:lr-tb;baseline-shift:baseline;text-anchor:start;white-space:normal;clip-rule:nonzero;display:inline;overflow:visible;visibility:visible;opacity:1;isolation:auto;mix-blend-mode:normal;color-interpolation:sRGB;color-interpolation-filters:linearRGB;solid-color:#000000;solid-opacity:1;fill:#000000;fill-opacity:1;fill-rule:evenodd;stroke:none;stroke-width:140;stroke-linecap:round;stroke-linejoin:round;stroke-miterlimit:4;stroke-dasharray:none;stroke-dashoffset:0;stroke-opacity:1;color-rendering:auto;image-rendering:auto;shape-rendering:auto;text-rendering:auto;enable-background:accumulate"
       d="m 492.16211,1183.7637 c -58.33394,0.2908 -117.00163,11.8833 -171.5293,36.1504 -62.49807,27.814 -117.10977,71.4335 -158.01562,126.3203 -8.53873,11.4571 -16.23236,23.3485 -23.42188,35.4648 -0.67748,-1.039 -1.27872,-2.1124 -1.96679,-3.1465 C 103.4153,1327.7349 58.488403,1285.4201 6.7324219,1254.2246 l -0.00195,0 C -44.849254,1223.1358 -101.5163,1203.8567 -158.6875,1194.1465 c -132.72178,-22.5421 -271.89946,6.4252 -384.03516,81.9805 -112.25563,75.636 -192.10371,194.7486 -217.64453,328.2753 -9.94712,52.0033 -11.49221,106.4766 -2.86328,159.7754 0.24979,6.96 1.53675,13.8438 3.81836,20.4239 8.29694,38.8822 22.18215,76.8839 42.625,112.5234 25.91307,45.1761 61.59531,85.2181 105.82813,115.3809 l 0.002,0 c 44.34614,30.2399 96.23627,49.7285 151.16797,54.2715 80.74121,6.6775 160.96639,-19.7228 222.14453,-72.3906 61.12237,-52.6198 98.88795,-127.63 105.3457,-207.7305 6.45203,-80.0295 -18.72592,-159.6529 -69.36133,-221.584 -50.59181,-61.8776 -123.24476,-102.0933 -202.17187,-112.6777 -47.59493,-6.3827 -95.60926,-1.6325 -140.46875,12.9785 23.02646,-28.1479 49.9501,-53.0277 79.80664,-73.1445 80.84594,-54.4728 185.67074,-76.4833 282.36328,-60.0606 41.96386,7.1273 82.05055,21.1397 116.591798,41.959 34.364781,20.7129 64.3208904,49.0781 86.210937,81.9766 21.865018,32.8608 36.80988,72.0523 44.560547,113.4218 4.234513,22.6019 6.32368,46.7405 7.43164,71.9883 -0.674904,23.5096 -0.795708,46.615 -0.646484,68.8379 l 1.839844,274.0352 c 0.691676,38.2558 31.969078,68.8697 70.230938,68.741 38.26186,-0.1286 69.33269,-30.9521 69.76711,-69.2117 l 0,-0.4688 0,-276.5351 c 0,-21.1168 -0.22121,-43.0988 -1.04688,-65.5293 1.05153,-30.233 3.33904,-59.1448 8.63282,-86.0703 9.11972,-46.3854 27.10354,-90.096 53.42968,-125.42 26.31189,-35.3048 62.41678,-64.155 102.68555,-82.0761 40.44951,-18.0017 86.68445,-25.9648 132.57422,-23.668 88.19817,4.4142 176.56037,48.0404 236.95703,114.8652 60.66668,67.1237 96.15283,159.3534 99.125,251.5821 1.9095,59.253 -9.18843,118.8004 -33.19141,171.2343 -23.92438,52.2623 -61.64273,98.8714 -107.76171,133.1348 -46.13542,34.2757 -102.43287,57.5272 -161.85547,69.6445 -59.53001,12.1393 -124.77184,13.5465 -193.67578,13.8438 l -663.75,2.8633 c -78.02733,0.3365 -165.10468,-3.9796 -255.65625,18.3632 -46.39452,11.4475 -94.86819,31.2483 -136.22852,67.2774 -42.37714,36.9148 -75.06254,89.9795 -77.7168,153.6387 -2.1229,50.9155 15.76619,97.6671 44.28321,134.7773 28.13671,36.6153 64.94191,62.0519 103.25976,78.7852 75.94979,33.1671 152.29869,32.0804 216.72852,32.1093 l 1337.70703,0.5996 c 39.04667,0.5694 71.01026,-30.9175 71.02769,-69.9683 0.0174,-39.0508 -31.91802,-70.5662 -70.96519,-70.0317 l -1337.70703,-0.5996 c -63.57489,-0.028 -119.40646,-2.3475 -160.76367,-20.4082 -20.33565,-8.8805 -37.41628,-21.6571 -48.27735,-35.791 -10.48076,-13.639 -15.95739,-30.6094 -15.41406,-43.6406 0.6827,-16.3739 11.77225,-38.2067 29.79492,-53.9063 19.03947,-16.5853 46.43297,-29.1762 77.8086,-36.9179 64.98869,-16.0354 140.54835,-13.9327 222.7246,-14.2871 l 663.74805,-2.8633 c 69.95416,-0.3018 144.51557,-1.0603 221.04492,-16.666 76.63674,-15.6277 152.04612,-45.9081 217.375,-94.4434 65.34529,-48.5474 117.69261,-113.2437 151.56641,-187.2402 33.79521,-73.8249 48.38535,-154.4813 45.82226,-234.0157 -4.01168,-124.4855 -50.46887,-247.2095 -135.18945,-340.9472 -84.99062,-94.0364 -205.46475,-154.3923 -333.82226,-160.8164 -8.30676,-0.4158 -16.63338,-0.6041 -24.9668,-0.5625 z"
       id="path4140-7-5-5-5"
       inkscape:connector-curvature="0"
       sodipodi:nodetypes="csscsccsssccsccssssscssssscscsccscssssssssssssssssscscsssssssssssssscc" />
    <path
       style="opacity:1;fill:#ffffff;fill-opacity:1;fill-rule:evenodd;stroke:none;stroke-width:0;stroke-linecap:round;stroke-linejoin:round;stroke-miterlimit:4;stroke-dasharray:none;stroke-opacity:1"
       d="m -267.89066,1750.7168 a 174.44046,174.44046 0 0 1 -174.44046,174.4405 174.44046,174.44046 0 0 1 -174.44046,-174.4405 174.44046,174.44046 0 0 1 174.44046,-174.4405 174.44046,174.44046 0 0 1 174.44046,174.4405 z"
       id="path4182" />
  </g>
</svg>
