<?xml version="1.0" encoding="UTF-8" standalone="no"?>
<!-- Created with Inkscape (http://www.inkscape.org/) -->

<svg
   xmlns:dc="http://purl.org/dc/elements/1.1/"
   xmlns:cc="http://creativecommons.org/ns#"
   xmlns:rdf="http://www.w3.org/1999/02/22-rdf-syntax-ns#"
   xmlns:svg="http://www.w3.org/2000/svg"
   xmlns="http://www.w3.org/2000/svg"
   xmlns:sodipodi="http://sodipodi.sourceforge.net/DTD/sodipodi-0.dtd"
   xmlns:inkscape="http://www.inkscape.org/namespaces/inkscape"
   width="2000"
   height="2048"
   id="svg2992"
   version="1.1"
   inkscape:version="0.91pre2 r13516"
   sodipodi:docname="ഋ.svg">
  <defs
     id="defs5498">
    <inkscape:path-effect
       effect="spiro"
       id="path-effect4145"
       is_visible="true" />
    <inkscape:path-effect
       effect="spiro"
       id="path-effect4161"
       is_visible="true" />
    <inkscape:path-effect
       effect="spiro"
       id="path-effect4145-2"
       is_visible="true" />
  </defs>
  <sodipodi:namedview
     inkscape:window-height="853"
     inkscape:window-width="1600"
     inkscape:pageshadow="2"
     inkscape:pageopacity="0.0"
     borderopacity="1.0"
     bordercolor="#666666"
     pagecolor="#ffffff"
     id="base"
     showgrid="true"
     showguides="true"
     inkscape:guide-bbox="true"
     inkscape:zoom="0.16051324"
     inkscape:cx="-679.36849"
     inkscape:cy="153.99335"
     inkscape:window-x="1598"
     inkscape:window-y="-3"
     inkscape:current-layer="layer1"
     inkscape:window-maximized="1">
    <sodipodi:guide
       orientation="horizontal"
       position="0,600"
       id="guide5596" />
    <inkscape:grid
       type="xygrid"
       id="grid3769"
       empspacing="3"
       visible="true"
       enabled="true"
       snapvisiblegridlinesonly="true"
       spacingx="4px"
       units="px"
       dotted="true"
       spacingy="4px" />
    <sodipodi:guide
       orientation="0,1"
       position="-1040,1600"
       id="guide2985" />
  </sodipodi:namedview>
  <metadata
     id="metadata5594">
    <rdf:RDF>
      <cc:Work
         rdf:about="">
        <dc:format>image/svg+xml</dc:format>
        <dc:type
           rdf:resource="http://purl.org/dc/dcmitype/StillImage" />
        <dc:title />
      </cc:Work>
    </rdf:RDF>
  </metadata>
  <g
     inkscape:label="Layer 1"
     inkscape:groupmode="layer"
     id="layer1"
     transform="translate(0,1048)">
    <path
       style="color:#000000;font-style:normal;font-variant:normal;font-weight:normal;font-stretch:normal;font-size:medium;line-height:normal;font-family:sans-serif;text-indent:0;text-align:start;text-decoration:none;text-decoration-line:none;text-decoration-style:solid;text-decoration-color:#000000;letter-spacing:normal;word-spacing:normal;text-transform:none;direction:ltr;block-progression:tb;writing-mode:lr-tb;baseline-shift:baseline;text-anchor:start;clip-rule:nonzero;display:inline;overflow:visible;visibility:visible;opacity:1;isolation:auto;mix-blend-mode:normal;color-interpolation:sRGB;color-interpolation-filters:linearRGB;solid-color:#000000;solid-opacity:1;fill:#000000;fill-opacity:1;fill-rule:evenodd;stroke:none;stroke-width:140;stroke-linecap:round;stroke-linejoin:round;stroke-miterlimit:4;stroke-dasharray:none;stroke-dashoffset:0;stroke-opacity:1;color-rendering:auto;image-rendering:auto;shape-rendering:auto;text-rendering:auto;enable-background:accumulate"
       d="m 566.17578,-643.79883 c -86.90729,-0.32396 -172.13775,28.73918 -240.73437,82.125 -68.59871,53.38745 -117.71632,128.88693 -138.69532,213.25781 -5.79354,23.29979 -9.2967,46.84248 -10.79101,70.375 a 70.007,70.007 0 0 0 -1.90039,15.15625 c -0.7468,31.30201 2.47967,62.35626 9.12695,92.5586 7.33364,37.42669 19.44631,73.800485 35.76758,107.984373 41.45838,86.832043 107.77803,157.561185 184.44726,209.572267 62.77878,42.58803 130.81546,72.01954 200.96875,92.30273 -66.43943,37.9575 -126.32976,89.0942 -170.85156,155.25782 -34.6572,51.50388 -58.94793,110.88746 -67.61523,174.3164 -8.69363,63.62158 -1.30976,129.88418 24.83594,190.62305 32.49113,75.47992 90.19017,134.27055 156.31445,174.44531 65.67828,39.90377 138.19941,61.24131 209.3164,71.68752 141.81005,20.8301 276.01827,0.8214 399.07417,0.8574 126.3431,0.037 264.7812,21.3406 410.6329,-2.8555 73.1883,-12.14155 147.5807,-36.45306 213.4062,-80.93356 66.3498,-44.8348 122.1444,-109.80489 148.5215,-190.75 17.6217,-54.07668 20.5558,-110.85301 11.7891,-165.01758 -8.7426,-54.01498 -28.8678,-104.54177 -56.2715,-149.54297 -50.6838,-83.2308 -125.3907,-146.60482 -207.7891,-190.14843 0.3567,-0.12974 0.7156,-0.24665 1.0723,-0.37696 101.9958,-37.26642 199.0777,-98.25827 270.0605,-187.341794 41.5343,-52.125585 73.2384,-113.011426 89.7637,-179.408206 16.5629,-66.54824 17.4386,-137.4941 -0.8496,-205.40625 -31.784,-118.02758 -119.6388,-215.59671 -234.0781,-259.07226 -114.5042,-43.50019 -245.4019,-28.83958 -347.2813,39.49609 -52.7642,35.39163 -95.9599,83.70197 -125.2539,140.08008 -29.2939,56.37806 -43.9932,119.49191 -42.623,183.01172 1.3701,63.51962 18.7768,125.9432 50.4746,181.005858 31.6976,55.0626346 76.9364,101.463229 131.1777,134.546874 29.9508,18.268056 62.3041,32.066398 95.916,41.416018 -62.6514,15.90433 -128.916,23.82859 -196.4375,26.91601 -158.0536,-15.2165 -310.8417,0.58092 -455.29685,-1.89843 C 836.15457,139.13323 760.32263,132.18705 688.9082,116.2793 766.98045,89.840538 835.93619,39.019873 883.86133,-29.238281 948.14532,-120.7958 970.13685,-237.28586 943.6582,-345.97852 c -20.56184,-84.40471 -69.17698,-160.14646 -137.38281,-213.9746 -68.2079,-53.82979 -153.19496,-83.52176 -240.09961,-83.84571 z m -0.52148,140 c 54.79425,0.20425 110.86406,19.78905 153.88867,53.74414 43.02669,33.95673 75.11691,83.94403 88.09375,137.21289 16.55061,67.93891 1.82753,145.92775 -38.35352,203.15625 C 729.10216,-52.457046 660.74833,-12.123303 591.22656,-4.6171875 521.7048,2.8889277 446.31799,-21.926669 394.84766,-69.259766 357.78212,-103.34594 331.40287,-150.78116 320.11523,-200.76172 c -6.9753,-38.439 -6.51419,-77.64241 2.49415,-113.87109 13.21379,-53.1417 45.58999,-102.91732 88.8164,-136.5586 43.2285,-33.64289 99.43691,-52.81166 154.22852,-52.60742 z m 1102.4043,15.69531 c 28.8872,-0.0229 57.5988,4.84435 83.9199,14.84375 70.2546,26.68975 129.0225,91.85468 148.6133,164.60352 5.6068,20.82045 8.3842,42.72534 8.541,64.875 a 70.007,70.007 0 0 0 -5.8828,21.60547 c -4.5706,39.42516 -19.4611,78.30162 -42.3984,110.6914 -22.9373,32.389838 -54.6646,59.343512 -90.336,76.744146 -35.6713,17.400618 -76.4425,25.8128856 -116.0879,23.951172 -39.6454,-1.861714 -79.4503,-14.057734 -113.334,-34.72461 -33.8837,-20.666862 -62.9451,-50.474307 -82.7461,-84.871098 -19.8011,-34.39676 -30.984,-74.4978 -31.8398,-114.17773 -0.8559,-39.67977 8.5872,-80.22664 26.8867,-115.44531 18.2996,-35.21864 46.0487,-66.25268 79.0097,-88.36133 38.8758,-26.07592 87.5109,-39.69628 135.6563,-39.73438 z m -304.0977,770.76758 c 11.0435,1.13639 22.0462,2.4012 32.9746,3.91797 75.9389,10.53965 149.0519,30.74165 212.9922,64.45508 63.6317,33.55063 118.8232,81.60874 154.0157,139.40039 18.9637,31.14141 32.1432,65.10647 37.6445,99.0957 5.4771,33.83964 3.3003,68.58557 -6.6992,99.27149 -14.9181,45.78007 -49.7103,88.33743 -93.7949,118.12695 -44.6091,30.14381 -99.6352,49.15083 -157.9336,58.82227 -117.1218,19.42994 -247.4553,1.00778 -387.6797,0.96679 -136.5919,-0.04 -263.68825,17.53291 -378.76956,0.62891 C 719.38225,858.92874 665.01506,842.03352 619.74219,814.52734 574.91533,787.29214 538.16545,748.1404 519.32617,704.375 504.18055,669.19031 499.16402,627.91262 504.60938,588.0625 c 5.47167,-40.04276 21.4091,-79.97175 45.05468,-115.11133 47.38842,-70.42368 126.61636,-122.63425 214.22461,-151.94336 176.20522,-58.94899 383.13823,-29.77811 600.07223,-38.34375 z"
       id="path4143"
       inkscape:connector-curvature="0" />
    <path
       style="fill:none;fill-rule:evenodd;stroke:#000000;stroke-width:140;stroke-linecap:round;stroke-linejoin:round;stroke-miterlimit:4;stroke-dasharray:none;stroke-opacity:1"
       d="m 285.70044,1602.9603 c -2.16804,90.8727 36.52201,181.9521 103.42981,243.4818 66.90779,61.5297 160.90285,92.4701 251.27624,82.7127 90.37339,-9.7574 175.59815,-60.0478 227.83067,-134.4408 52.23252,-74.393 70.59027,-171.6317 49.07564,-259.9475 -16.76935,-68.8368 -57.12192,-131.7015 -112.73817,-175.5939 -55.61626,-43.8924 -126.1457,-68.5309 -196.99514,-68.795 -70.84945,-0.2641 -141.56743,23.8519 -197.47999,67.3662 -55.91256,43.5144 -96.65949,106.1519 -113.75588,174.9082 -19.74055,79.3903 -7.80822,165.1964 27.43974,239.0211 35.24795,73.8246 92.87587,135.878 160.5757,181.8044 135.39968,91.8528 304.88661,118.3226 468.47794,121.1304 165.2878,2.8369 331.6443,-15.9117 495.3869,6.8144 81.8712,11.363 162.902,33.3193 236.0173,71.8703 73.1153,38.551 138.1642,94.3161 181.1543,164.9127 23.1837,38.0713 39.836,80.3177 46.9579,124.3198 7.1219,44.0021 4.5673,89.7632 -9.2433,132.1445 -20.6476,63.3626 -65.9421,117.1265 -121.1594,154.4387 -55.2172,37.3121 -119.9251,58.9711 -185.6685,69.8776 -131.4867,21.813 -265.8733,1.9506 -399.1571,1.9116 -129.824,-0.038 -260.4767,18.7518 -388.92238,-0.1152 -64.22285,-9.4336 -127.66598,-28.549 -183.14155,-62.254 -55.47558,-33.705 -102.69996,-82.6765 -128.36517,-142.2992 -20.64566,-47.9618 -26.8458,-101.7318 -19.77631,-153.4677 7.06949,-51.7358 27.18288,-101.3924 56.33428,-144.7141 58.30278,-86.6435 151.05369,-146.1138 250.09164,-179.2467 198.07591,-66.2658 413.60659,-33.4282 622.29749,-41.9904 98.0848,-4.0242 196.5938,-17.5979 288.7993,-51.2873 92.2055,-33.6893 178.1621,-88.4395 239.3374,-165.2145 35.7573,-44.8755 62.7255,-97.0113 76.5836,-152.692 13.8581,-55.6807 14.4053,-114.8934 -0.515,-170.299 -25.6874,-95.3882 -98.9986,-176.7549 -191.3455,-211.8376 -92.3469,-35.0826 -201.3877,-22.8344 -283.428,32.1942 -42.8626,28.7501 -78.3356,68.4213 -102.1324,114.2197 -23.7967,45.7984 -35.868,97.6291 -34.755,149.2289 1.1129,51.5997 15.4078,102.8617 41.1571,147.5915 25.7494,44.7297 62.8999,82.8344 106.9623,109.7097 44.0625,26.8753 94.9455,42.4653 146.5005,44.8863 51.555,2.421 103.6751,-8.3321 150.0621,-30.96 46.3871,-22.6278 86.945,-57.0834 116.7727,-99.2033 29.8277,-42.1199 48.8635,-91.8167 54.8071,-143.0851"
       id="path4143-3"
       inkscape:path-effect="#path-effect4145-2"
       inkscape:original-d="m 285.70044,1602.9603 c 0,0 679.61236,123.8062 631.61236,-68.1938 -48,-192 -284.9692,-482.1145 -620.96918,-2.1145 -336,480 -207.5066,205.9559 656.49338,541.9559 294.7917,114.6412 633.8264,149.996 912.5585,243.5974 538.1992,180.7334 517.8619,233.6001 37.7146,256.4643 -480.1473,22.8642 -243.7232,242.9755 -705.985,226.2279 -462.2617,-16.7477 -903.79532,235.9585 -700.4291,-204.6684 164.2986,-355.9803 478.4386,-440.4737 908.9471,-519.4189 324.1324,-59.4384 471.5688,-61.6178 528.1367,-216.5018 46.6614,-127.7603 61.9435,-226.4252 76.0686,-322.991 83.8102,-572.96809 -338.3901,-567.11189 -474.7735,-179.6434 -368.2114,1046.0969 479.3744,292.3877 479.3744,292.3877"
       inkscape:connector-curvature="0"
       sodipodi:nodetypes="csssszzsssssc" />
  </g>
</svg>
