<?xml version="1.0" encoding="UTF-8" standalone="no"?>
<!-- Created with Inkscape (http://www.inkscape.org/) -->

<svg
   xmlns:dc="http://purl.org/dc/elements/1.1/"
   xmlns:cc="http://creativecommons.org/ns#"
   xmlns:rdf="http://www.w3.org/1999/02/22-rdf-syntax-ns#"
   xmlns:svg="http://www.w3.org/2000/svg"
   xmlns="http://www.w3.org/2000/svg"
   xmlns:sodipodi="http://sodipodi.sourceforge.net/DTD/sodipodi-0.dtd"
   xmlns:inkscape="http://www.inkscape.org/namespaces/inkscape"
   width="2000"
   height="2048"
   id="svg2992"
   version="1.1"
   inkscape:version="0.91 r13725"
   sodipodi:docname="ഌ.svg">
  <defs
     id="defs5498">
    <inkscape:path-effect
       effect="spiro"
       id="path-effect4159"
       is_visible="true" />
    <inkscape:path-effect
       effect="spiro"
       id="path-effect4372-5-0-7-0-2"
       is_visible="true" />
    <inkscape:path-effect
       effect="spiro"
       id="path-effect4372-5-0-7-0-2-5"
       is_visible="true" />
    <inkscape:path-effect
       effect="spiro"
       id="path-effect4372-5-0-7-0-2-5-8"
       is_visible="true" />
    <inkscape:path-effect
       effect="spiro"
       id="path-effect4372-5-0-7-0-2-5-5"
       is_visible="true" />
    <inkscape:path-effect
       effect="spiro"
       id="path-effect4372-5-0-7-0-2-5-5-9"
       is_visible="true" />
    <inkscape:path-effect
       effect="spiro"
       id="path-effect4372-5-0-7-0-2-5-5-9-6"
       is_visible="true" />
    <inkscape:path-effect
       effect="spiro"
       id="path-effect4372-5-0-7-0-2-5-5-9-7"
       is_visible="true" />
    <inkscape:path-effect
       effect="spiro"
       id="path-effect4372-5-0-7-0-2-5-5-4"
       is_visible="true" />
  </defs>
  <sodipodi:namedview
     inkscape:window-height="851"
     inkscape:window-width="1600"
     inkscape:pageshadow="2"
     inkscape:pageopacity="0.0"
     borderopacity="1.0"
     bordercolor="#666666"
     pagecolor="#ffffff"
     id="base"
     showgrid="true"
     showguides="true"
     inkscape:guide-bbox="true"
     inkscape:zoom="0.5"
     inkscape:cx="2699"
     inkscape:cy="1247.3019"
     inkscape:window-x="1599"
     inkscape:window-y="-1"
     inkscape:current-layer="layer1"
     inkscape:window-maximized="1">
    <sodipodi:guide
       orientation="horizontal"
       position="0,600"
       id="guide5596" />
    <inkscape:grid
       type="xygrid"
       id="grid3769"
       empspacing="3"
       visible="true"
       enabled="true"
       snapvisiblegridlinesonly="true"
       spacingx="4px"
       units="px"
       dotted="true"
       spacingy="4px" />
    <sodipodi:guide
       orientation="0,1"
       position="-1040,1600"
       id="guide2985" />
  </sodipodi:namedview>
  <metadata
     id="metadata5594">
    <rdf:RDF>
      <cc:Work
         rdf:about="">
        <dc:format>image/svg+xml</dc:format>
        <dc:type
           rdf:resource="http://purl.org/dc/dcmitype/StillImage" />
        <dc:title />
      </cc:Work>
    </rdf:RDF>
  </metadata>
  <g
     inkscape:label="Layer 1"
     inkscape:groupmode="layer"
     id="layer1"
     transform="translate(0,1048)">
    <path
       style="fill:none;fill-rule:evenodd;stroke:#000000;stroke-width:140;stroke-linecap:round;stroke-linejoin:round;stroke-miterlimit:4;stroke-dasharray:none;stroke-opacity:1"
       d="M 248.50748,191.92043 C 222.79825,131.75722 219.50758,62.313099 239.4126,-0.01158013 259.31763,-62.336259 302.25101,-117.01752 358.07332,-151.14148 c 55.82231,-34.12397 124.06426,-47.40375 188.60937,-36.70312 64.54512,10.70064 124.85077,45.29173 166.67479,95.60402 29.56893,35.570005 49.96299,78.729655 58.5013,124.190012 8.53831,45.460357 5.18404,93.122348 -9.79774,136.884118 -14.98179,43.76178 -41.57274,83.51283 -76.41374,113.93736 -34.841,30.42452 -77.85632,51.43122 -123.30442,60.03451 -51.55998,9.76027 -105.76499,3.48703 -154.50874,-15.94853 C 359.09038,307.42133 315.82253,275.07197 281.82495,235.09873 213.8298,155.15226 184.56716,46.967744 187.57948,-57.940334 c 3.61104,-125.759296 52.6525,-250.619956 139.48474,-341.661706 86.83225,-91.04176 211.39572,-146.3396 337.19346,-144.50431 59.6206,0.86982 119.24343,14.33879 172.56453,41.02647 53.3211,26.68768 99.92856,66.64841 134.40404,115.29831 34.47545,48.64991 56.50385,105.51578 67.70515,164.08114 11.2014,58.56537 11.6549,118.5846 11.4549,178.211206 l -1.3112,390.919454 2.8618,-391.483154 c 0.4382,-59.941746 1.5437,-120.270506 13.4298,-179.023586 11.8862,-58.75308 34.6236,-115.67602 69.7226,-164.26885 35.099,-48.59284 82.2287,-88.38822 135.9436,-114.99483 53.715,-26.60661 113.6049,-40.09276 173.5367,-41.27102 127.8442,-2.51342 254.9537,52.06464 344.3243,143.51603 89.3706,91.45138 140.7348,217.96117 144.8139,345.764986 3.3503,104.969351 -25.8784,213.309484 -93.9563,293.279364 -34.039,39.98494 -77.3726,72.31549 -126.173,91.70541 -48.8004,19.38993 -103.0511,25.59182 -154.6341,15.76099 -45.4208,-8.65642 -88.399,-29.68854 -123.2126,-60.11865 -34.8136,-30.43011 -61.387,-70.16768 -76.3676,-113.91194 -14.9806,-43.74426 -18.3498,-91.385297 -9.8373,-136.833246 8.5125,-45.44795 28.8704,-88.603917 58.4029,-124.182164 41.8045,-50.36255 102.1191,-85.00209 166.6862,-95.73026 64.5671,-10.72816 132.8427,2.54542 188.6874,36.68304 55.8447,34.13762 98.7879,88.851707 118.6784,151.2084946 19.8906,62.3567874 16.5609,131.8309854 -9.202,191.9997354"
       id="path4370-9-0-9-5-7-0-7"
       inkscape:path-effect="#path-effect4372-5-0-7-0-2-5-5"
       inkscape:original-d="m 248.50748,191.92043 c 30.8036,-177.950814 323.4212,-398.08787 464.85,-284.16101 119.5424,96.296396 -0.8481,403.212 -151.0146,435.046 -178.9157,37.92858 -376.9249,-217.86671 -374.7634,-400.745754 2.68226,-226.939726 250.10828,-499.391166 476.6782,-486.166016 209.85812,12.24967 398.74062,289.75858 386.12862,498.617126 l -1.3112,390.919454 2.8618,-391.483154 c 6,-119.999996 181.2121,-486.949976 392.6327,-499.558286 230.2066,-13.72864 485.2934,258.69744 489.1382,489.281016 3.0491,182.866404 -195.8477,438.674354 -374.7634,400.745764 -150.1665,-31.834 -270.557,-338.749604 -151.0146,-435.046 141.4288,-113.92685 434.0464,106.210196 464.85,284.16101"
       inkscape:connector-curvature="0"
       sodipodi:nodetypes="caaaacccaaaac" />
    <path
       style="fill:none;fill-rule:evenodd;stroke:#000000;stroke-width:70;stroke-linecap:round;stroke-linejoin:round;stroke-miterlimit:4;stroke-dasharray:none;stroke-opacity:1"
       d="m -4005.4325,211.57329 c -28.6624,-66.17045 -32.5358,-142.741784 -10.6971,-211.46684104 21.8387,-68.72505696 69.2023,-129.01488896 130.8039,-166.50224896 61.6016,-37.48737 136.9133,-51.85103 207.9882,-39.66807 71.0749,12.18295 137.3038,50.80812 182.9042,106.67101 31.86,39.030181 53.7254,86.175919 62.7851,135.737373 9.0597,49.561455 5.278,101.433867 -11.0225,149.106787 -16.3006,47.67291 -45.0986,91.032 -82.8234,124.42744 -37.7248,33.39543 -84.2971,56.73422 -133.6615,66.81265 -56.6488,11.56566 -116.4824,5.57245 -170.4563,-15.15613 -53.9738,-20.72858 -102.0503,-55.93323 -139.6556,-99.85012 -75.2106,-87.83378 -106.4766,-208.17122 -98.6692,-323.542178 8.9179,-131.780712 67.4684,-259.878742 162.3837,-351.730712 94.9152,-91.85196 225.4863,-146.27744 357.5631,-147.46583 63.0224,-0.56706 126.46,10.80828 184.1075,36.28191 57.6475,25.47363 109.0235,65.21062 147.4997,115.12774 38.4762,49.91713 63.5804,109.46232 76.3863,171.17252 12.8058,61.71019 13.3941,125.21545 13.1844,188.240005 l -1.4302,429.795205 3.1216,-430.412079 c -13.2606,-123.465341 25.6858,-251.695681 105.3707,-346.931471 79.6848,-95.23579 199.0335,-156.19258 322.9018,-164.92065 135.778,-9.56726 273.7264,43.64211 371.5983,138.23757 97.8719,94.59547 155.3748,228.41152 161.9395,364.367817 5.5522,114.986684 -26.0133,234.214203 -100.6757,321.840113 -37.3311,43.81296 -84.956,79.12411 -138.5319,100.16728 -53.5759,21.04317 -113.0765,27.55354 -169.5735,16.54105 -49.6119,-9.67042 -96.5147,-32.78915 -134.507,-66.12737 -37.9923,-33.33823 -66.9914,-76.79976 -83.3421,-124.62769 -16.3506,-47.82793 -20.0304,-99.903631 -10.7255,-149.585342 9.3049,-49.681712 31.5571,-96.860975 63.8522,-135.743856 45.6853,-55.004502 111.6039,-92.811082 182.1498,-104.469282 70.546,-11.6582 145.1232,2.93049 206.076,40.3123 60.9528,37.38181 107.7661,97.24084 129.3572,165.4058622 21.5911,68.1650218 17.7775,144.0599878 -10.538,209.7172778"
       id="path4370-9-0-9-5-7-0-7-1"
       inkscape:path-effect="#path-effect4372-5-0-7-0-2-5-5-9"
       inkscape:original-d="m -4005.4325,211.57329 c 33.5997,-194.737053 355.7455,-436.06639 510.9992,-310.96615 130.7848,105.3837045 -0.925,441.24732 -164.7223,476.08425 -195.156,41.50642 -414.3139,-238.48126 -408.7811,-438.548428 6.6533,-240.579922 280.0884,-513.153742 519.9468,-499.196542 220.3157,12.82002 434.9348,282.26182 421.1779,510.822175 l -1.4302,429.795205 3.1216,-430.412079 c 0,0 206.1995,-498.677301 428.2725,-511.852121 243.9013,-14.46981 525.6153,257.9816 533.5378,502.605387 6.4785,200.038593 -213.625,480.054863 -408.7811,438.548443 -163.7972,-34.83693 -295.6892,-370.9266336 -164.7224,-476.084258 154.593,-124.127832 473.4453,116.229103 507.045,310.966158"
       inkscape:connector-curvature="0"
       sodipodi:nodetypes="caaaacccaaaac" />
    <path
       style="color:#000000;font-style:normal;font-variant:normal;font-weight:normal;font-stretch:normal;font-size:medium;line-height:normal;font-family:sans-serif;text-indent:0;text-align:start;text-decoration:none;text-decoration-line:none;text-decoration-style:solid;text-decoration-color:#000000;letter-spacing:normal;word-spacing:normal;text-transform:none;direction:ltr;block-progression:tb;writing-mode:lr-tb;baseline-shift:baseline;text-anchor:start;white-space:normal;clip-rule:nonzero;display:inline;overflow:visible;visibility:visible;opacity:1;isolation:auto;mix-blend-mode:normal;color-interpolation:sRGB;color-interpolation-filters:linearRGB;solid-color:#000000;solid-opacity:1;fill:#000000;fill-opacity:1;fill-rule:evenodd;stroke:none;stroke-width:70;stroke-linecap:round;stroke-linejoin:round;stroke-miterlimit:4;stroke-dasharray:none;stroke-dashoffset:0;stroke-opacity:1;color-rendering:auto;image-rendering:auto;shape-rendering:auto;text-rendering:auto;enable-background:accumulate"
       d="m -4687.8438,-406.76758 c -9.1497,0.12595 -18.3078,0.50907 -27.4648,1.1543 -133.6935,9.42037 -261.2797,74.58321 -347.2852,177.37305 -30.3485,36.27126 -55.0418,76.86969 -73.832,120.00585 -15.3507,-46.65152 -37.7755,-91.25901 -68.2363,-130.77734 -42.1901,-54.73536 -98.1504,-97.96825 -161.0742,-125.77344 -62.8069,-27.75347 -131.1236,-39.87442 -198.5684,-39.26757 -141.4832,1.27301 -280.1107,59.11224 -381.5879,157.31445 -101.4322,98.15854 -163.4533,233.965015 -172.9648,374.51758 -6.8299,100.92597 14.0854,205.78301 67.0644,293.27929 a 35.0035,35.0035 0 0 0 2.0586,3.24024 c 11.2438,18.2005 23.7845,35.68813 37.8809,52.15039 41.1804,48.09207 93.8318,86.77001 153.6933,109.75976 59.9478,23.02283 126.3025,29.78133 190.0059,16.7754 55.5133,-11.33381 107.4898,-37.39125 149.8594,-74.89844 42.3637,-37.50196 74.4606,-85.84406 92.7422,-139.31055 18.2791,-53.45925 22.4802,-111.21904 12.3339,-166.72461 -10.1449,-55.49818 -34.4711,-107.92701 -70.1015,-151.576171 -51.1006,-62.600944 -124.4557,-105.382722 -204.1035,-119.035156 -79.6478,-13.652433 -163.0658,2.25662 -232.0977,44.2656251 -56.4689,34.3639109 -101.8244,85.3136979 -129.8672,144.8710919 0.1357,-2.68955 0.1914,-5.38523 0.3731,-8.07031 8.3243,-123.008884 63.4043,-243.39601 151.8027,-328.94141 88.3532,-85.50175 210.8667,-136.51539 333.5371,-137.61914 58.6,-0.52726 117.1583,10.10309 169.6465,33.29688 52.3712,23.14209 99.1635,59.38157 133.9258,104.48047 34.7539,45.08806 57.9709,99.732377 69.8379,156.917965 8.0877,38.97390632 10.8596,79.800527 11.8496,121.630859 -0.2764,12.747348 -0.201,25.506656 0.5195,38.259766 0.016,7.04682 0.1076,14.02809 0.084,21.12109 l -1.4297,429.54297 0,0.11524 0,0.13672 a 35.0035,35.0035 0 0 0 70,0.37109 l 3.1211,-430.41211 a 35.0035,35.0035 0 0 0 -0.1992,-3.99219 c -0.6943,-6.46429 -1.1855,-12.95098 -1.5684,-19.44531 -0.028,-12.86319 -0.094,-25.732567 -0.4023,-38.765625 3.256,-95.085959 38.4768,-189.728935 99.3848,-262.523435 73.3643,-87.68175 184.4744,-144.43103 298.5175,-152.4668 125.0438,-8.81089 254.0436,40.7581 344.8145,128.49023 90.9377,87.89341 145.1615,213.6637204 151.3047,340.89063 0.3205,6.63826 0.5026,13.289 0.5547,19.94336 -27.2971,-63.023677 -73.825,-117.129752 -132.5743,-153.16015688 -68.3392,-41.91187812 -150.987,-58.07879612 -230.082,-45.00781212 -79.0949,13.070987 -152.1455,54.966548 -203.3672,116.636718 -36.1372,43.508781 -60.9045,95.999021 -71.3301,151.664061 -10.427,55.67276 -6.3364,113.68436 12.0098,167.34961 18.3489,53.67279 50.6843,102.15221 93.375,139.61328 42.6969,37.46647 95.0689,63.29183 150.8965,74.17383 63.5689,12.39096 129.5675,5.0524 189.0644,-18.31641 59.4076,-23.3337 111.5363,-62.11299 152.377,-110.04492 81.6688,-95.8488 114.9108,-223.69469 108.9941,-346.22851 -6.9862,-144.685704 -67.7681,-286.54817 -172.5742,-387.84571 -98.4121,-95.11764 -233.6724,-151.02786 -370.918,-149.13867 z M -5746.7324,16.757812 c 15.9364,-0.210182 31.8569,0.997412 47.4824,3.675782 62.502,10.713477 121.6029,45.181805 161.7031,94.306636 28.0896,34.41121 47.4943,76.27373 55.4688,119.89844 7.9731,43.61736 4.6111,89.60169 -9.711,131.48828 -14.3196,41.87933 -39.8183,80.25601 -72.9043,109.54493 -33.08,29.28367 -74.2473,49.9035 -117.4628,58.72656 -49.5943,10.12536 -102.9082,4.89723 -150.9083,-13.53711 -48.086,-18.4674 -91.587,-50.19972 -125.6171,-89.94141 -11.7166,-13.68307 -22.2098,-28.37112 -31.6524,-43.76758 -24.2364,-57.64214 -27.3708,-124.86953 -8.4394,-184.44531 19.2045,-60.43561 61.4712,-114.237389 115.6425,-147.203124 40.6286,-24.724299 88.5892,-38.115547 136.3985,-38.746094 z m 1228.8457,4.296876 c 47.3713,0.87676 94.8252,14.355329 135,38.99414 53.5663,32.851748 95.3144,86.234122 114.289,146.138672 18.9747,59.90453 15.5736,127.58642 -9.3105,185.28711 a 35.0035,35.0035 0 0 0 -0.3281,0.84375 c -8.616,13.53646 -18.0042,26.5367 -28.3907,38.72656 -33.8215,39.69399 -76.9413,71.53838 -124.6855,90.29102 -47.6548,18.71753 -100.6569,24.39769 -150.082,14.76367 -43.3962,-8.45884 -84.8314,-28.87206 -118.1192,-58.08203 -33.2939,-29.21539 -58.956,-67.65756 -73.3086,-109.64063 -14.355,-41.99061 -17.6243,-88.12963 -9.4414,-131.82031 8.1843,-43.69837 27.9221,-85.56723 56.375,-119.82422 40.149,-48.338827 98.9348,-82.05536 160.9317,-92.300779 15.4992,-2.561356 31.2799,-3.669207 47.0703,-3.376953 z"
       id="path4370-9-0-9-5-7-0-7-1-7"
       inkscape:connector-curvature="0" />
    <path
       style="color:#000000;font-style:normal;font-variant:normal;font-weight:normal;font-stretch:normal;font-size:medium;line-height:normal;font-family:sans-serif;text-indent:0;text-align:start;text-decoration:none;text-decoration-line:none;text-decoration-style:solid;text-decoration-color:#000000;letter-spacing:normal;word-spacing:normal;text-transform:none;direction:ltr;block-progression:tb;writing-mode:lr-tb;baseline-shift:baseline;text-anchor:start;white-space:normal;clip-rule:nonzero;display:inline;overflow:visible;visibility:visible;opacity:1;isolation:auto;mix-blend-mode:normal;color-interpolation:sRGB;color-interpolation-filters:linearRGB;solid-color:#000000;solid-opacity:1;fill:#000000;fill-opacity:1;fill-rule:evenodd;stroke:none;stroke-width:140;stroke-linecap:round;stroke-linejoin:round;stroke-miterlimit:4;stroke-dasharray:none;stroke-dashoffset:0;stroke-opacity:1;color-rendering:auto;image-rendering:auto;shape-rendering:auto;text-rendering:auto;enable-background:accumulate"
       d="m 3503.1934,-615.59766 c -69.5106,1.36658 -139.4014,16.91485 -203.2305,48.53125 -63.9988,31.70052 -119.7263,78.73574 -161.6191,136.73438 -9.4506,13.08381 -17.9854,26.63619 -25.8672,40.47461 -7.3901,-13.09913 -15.3266,-25.96403 -24.1368,-38.39649 -41.2281,-58.17887 -96.4563,-105.5258 -160.1875,-137.42382 -63.5681,-31.81643 -133.3939,-47.40823 -202.873,-48.42188 -146.9787,-2.1443 -288.7313,61.19327 -388.8691,166.18555 -99.8086,104.64724 -154.708,245.35849 -158.8028,387.964841 -2.6673,92.894159 16.6193,189.174009 63.8379,272.660159 0.9009,2.23808 1.7439,4.49496 2.6934,6.71679 a 70.007,70.007 0 0 0 15.8183,23.43165 c 8.7559,12.93998 18.2574,25.4941 28.545,37.58984 40.9119,48.10289 93.0781,87.37515 153.4062,111.42969 60.5142,24.12879 127.6999,32.15249 193.4551,19.70507 57.9775,-10.97509 112.0084,-37.38595 156.3262,-76.08593 44.3033,-38.6874 77.6022,-88.50673 96.5976,-143.99219 18.9892,-55.46776 23.1599,-115.025638 12.3691,-172.478516 -10.7873,-57.43515 -36.2204,-111.207684 -73.4687,-156.015624 -52.8867,-63.62018 -127.439,-106.38306 -209.0566,-119.91406 -81.6176,-13.53102 -165.9788,2.88529 -236.5664,46.03515 -15.2819,9.34174 -29.686,19.89336 -43.2207,31.39258 20.0184,-64.3186 53.843,-124.07519 99.375,-171.81445 73.5267,-77.09123 180.9008,-124.3505 285.5175,-122.82422 49.7621,0.72599 99.1818,12.07192 142.2559,33.63086 42.911,21.47733 80.8982,54.05288 108.6211,93.17383 27.7302,39.13151 46.4736,86.61258 56.0644,136.75781 9.6092,50.24049 10.4073,105.71205 10.209,164.826171 l -1.3086,390.408199 -0,0.23438 0,0.27734 a 70.007,70.007 0 0 0 139.9961,0.7461 l 0,-0.27735 2.8613,-391.205076 c 0.4345,-59.424484 1.8344,-115.202464 12.0411,-165.654294 10.1883,-50.36054 29.5498,-97.97166 57.8574,-137.16211 28.3051,-39.18703 66.8385,-71.74316 110.2695,-93.25586 43.6009,-21.5968 93.4888,-33.02178 143.8418,-34.01172 107.0216,-2.10405 216.9726,44.77551 292.8848,122.45508 47.1102,48.20708 82.3295,108.8931 103.2168,174.32031 -13.2498,-11.17207 -27.3236,-21.43784 -42.2344,-30.55273 -70.6179,-43.16844 -155.0221,-59.57795 -236.6699,-46.01172 -81.6479,13.56621 -156.2107,56.38865 -209.0742,120.07422 -37.2031,44.819063 -62.5915,98.58742 -73.3457,156.003902 -10.7575,57.433815 -6.5675,116.961798 12.4179,172.400388 18.9913,55.4558 52.2638,105.25074 96.5235,143.9375 44.2736,38.699 98.249,65.13595 156.1757,76.17578 65.7679,12.53422 133.0013,4.6015 193.586,-19.4707 60.3998,-23.99873 112.6525,-63.251 153.6269,-111.38281 10.7104,-12.58123 20.5311,-25.68197 29.5821,-39.17774 a 70.007,70.007 0 0 0 14.4941,-22.0625 c 0.5845,-1.36508 1.092,-2.75565 1.6582,-4.12695 48.2753,-84.14459 67.8833,-181.572078 64.8848,-275.51953 -4.6298,-145.05835 -62.1606,-287.51498 -164.7149,-392.45703 -102.829,-105.22321 -247.0968,-167.50092 -395.7636,-164.57813 z m -944.1895,494.23828 c 12.2037,-0.23628 24.3623,0.6047 36.2305,2.57227 47.4726,7.87026 93.5316,34.290509 124.2929,71.294922 21.8896,26.332069 37.246,58.87772 43.5352,92.363282 6.2859,33.467833 3.7457,69.233256 -7.2285,101.289066 -10.9682,32.03808 -30.8499,61.72312 -56.2285,83.88476 -25.3643,22.14906 -57.3645,37.75094 -90.2832,43.98242 -37.3648,7.07313 -78.5893,2.55092 -115.5625,-12.1914 -37.1596,-14.81658 -71.5301,-40.24432 -98.6133,-72.08789 -9.8634,-11.59699 -18.7641,-24.13042 -26.7559,-37.38477 -14.5739,-41.62991 -15.6377,-89.306412 -2.2968,-131.078124 14.6401,-45.839608 47.4312,-87.603185 88.4882,-112.701172 30.7929,-18.823544 67.8107,-29.234514 104.4219,-29.943364 z m 1123.3281,1.4668 c 36.6248,0.69952 73.6574,11.10935 104.461,29.939455 41.0714,25.10677 73.8714,66.895098 88.5,112.755859 13.5189,42.381693 12.1883,90.828316 -3.0176,132.873046 -7.7568,12.69795 -16.3313,24.74493 -25.8262,35.89844 -27.1036,31.83807 -61.5178,57.24623 -98.7187,72.02734 -37.0162,14.70767 -78.2835,19.17823 -115.6817,12.05078 -32.9148,-6.273 -64.8944,-21.89932 -90.248,-44.06054 -25.3676,-22.17346 -45.243,-51.854 -56.2129,-83.88672 -10.9758,-32.04993 -13.5253,-67.803546 -7.2578,-101.265627 6.2707,-33.479415 21.599,-66.023901 43.4609,-92.361328 30.7455,-37.039529 76.8125,-63.494655 124.2988,-71.384765 11.8716,-1.97253 24.034,-2.81911 36.2422,-2.58594 z"
       id="path4370-9-0-9-5-7-0-7-4"
       inkscape:connector-curvature="0" />
  </g>
</svg>
