<?xml version="1.0" encoding="UTF-8" standalone="no"?>
<!-- Created with Inkscape (http://www.inkscape.org/) -->

<svg
   xmlns:dc="http://purl.org/dc/elements/1.1/"
   xmlns:cc="http://creativecommons.org/ns#"
   xmlns:rdf="http://www.w3.org/1999/02/22-rdf-syntax-ns#"
   xmlns:svg="http://www.w3.org/2000/svg"
   xmlns="http://www.w3.org/2000/svg"
   xmlns:sodipodi="http://sodipodi.sourceforge.net/DTD/sodipodi-0.dtd"
   xmlns:inkscape="http://www.inkscape.org/namespaces/inkscape"
   width="2000"
   height="2048"
   id="svg2992"
   version="1.1"
   inkscape:version="0.91 r13725"
   sodipodi:docname="എ.svg">
  <defs
     id="defs5498">
    <inkscape:path-effect
       effect="spiro"
       id="path-effect4162"
       is_visible="true" />
    <inkscape:path-effect
       is_visible="true"
       id="path-effect4148"
       effect="spiro" />
    <inkscape:path-effect
       is_visible="true"
       id="path-effect4141-5"
       effect="spiro" />
    <inkscape:path-effect
       is_visible="true"
       id="path-effect4141-5-7"
       effect="spiro" />
    <inkscape:path-effect
       is_visible="true"
       id="path-effect4141-5-7-7"
       effect="spiro" />
    <inkscape:path-effect
       is_visible="true"
       id="path-effect4141-5-7-7-8"
       effect="spiro" />
    <inkscape:path-effect
       effect="spiro"
       id="path-effect4162-3"
       is_visible="true" />
    <inkscape:path-effect
       is_visible="true"
       id="path-effect4141-5-7-7-8-7"
       effect="spiro" />
    <inkscape:path-effect
       effect="spiro"
       id="path-effect4162-3-9"
       is_visible="true" />
    <inkscape:path-effect
       effect="spiro"
       id="path-effect4162-3-9-2"
       is_visible="true" />
    <inkscape:path-effect
       is_visible="true"
       id="path-effect4141-5-7-7-8-7-2"
       effect="spiro" />
    <inkscape:path-effect
       effect="spiro"
       id="path-effect4162-3-9-2-5"
       is_visible="true" />
    <inkscape:path-effect
       is_visible="true"
       id="path-effect4141-5-7-7-8-7-2-6"
       effect="spiro" />
    <inkscape:path-effect
       effect="spiro"
       id="path-effect4162-3-9-2-5-8"
       is_visible="true" />
    <inkscape:path-effect
       is_visible="true"
       id="path-effect4141-5-7-7-8-7-2-6-9"
       effect="spiro" />
  </defs>
  <sodipodi:namedview
     inkscape:window-height="704"
     inkscape:window-width="1366"
     inkscape:pageshadow="2"
     inkscape:pageopacity="0.0"
     borderopacity="1.0"
     bordercolor="#666666"
     pagecolor="#ffffff"
     id="base"
     showgrid="true"
     showguides="true"
     inkscape:guide-bbox="true"
     inkscape:zoom="0.16051324"
     inkscape:cx="-1297.8508"
     inkscape:cy="30.521667"
     inkscape:window-x="-6"
     inkscape:window-y="0"
     inkscape:current-layer="layer1"
     inkscape:window-maximized="1"
     inkscape:snap-bbox="true">
    <sodipodi:guide
       orientation="horizontal"
       position="0,600"
       id="guide5596" />
    <inkscape:grid
       type="xygrid"
       id="grid3769"
       empspacing="3"
       visible="true"
       enabled="true"
       snapvisiblegridlinesonly="true"
       spacingx="4px"
       units="px"
       dotted="true"
       spacingy="4px" />
    <sodipodi:guide
       orientation="0,1"
       position="-1040,1600"
       id="guide2985" />
  </sodipodi:namedview>
  <metadata
     id="metadata5594">
    <rdf:RDF>
      <cc:Work
         rdf:about="">
        <dc:format>image/svg+xml</dc:format>
        <dc:type
           rdf:resource="http://purl.org/dc/dcmitype/StillImage" />
        <dc:title />
      </cc:Work>
    </rdf:RDF>
  </metadata>
  <g
     inkscape:label="Layer 1"
     inkscape:groupmode="layer"
     id="layer1"
     transform="translate(0,1048)">
    <g
       id="layer1-3"
       inkscape:label="Layer 1"
       transform="translate(64.124561,-4741.6711)" />
    <g
       id="layer1-3-6"
       inkscape:label="Layer 1"
       transform="translate(-10.780009,-1488.4724)" />
    <g
       id="layer1-3-4"
       inkscape:label="Layer 1"
       transform="translate(-114.83782,-2966.3931)" />
    <g
       id="layer1-3-6-6"
       inkscape:label="Layer 1"
       transform="translate(-5.9569262,-1485.6338)">
      <path
         style="color:#000000;font-style:normal;font-variant:normal;font-weight:normal;font-stretch:normal;font-size:medium;line-height:normal;font-family:sans-serif;text-indent:0;text-align:start;text-decoration:none;text-decoration-line:none;text-decoration-style:solid;text-decoration-color:#000000;letter-spacing:normal;word-spacing:normal;text-transform:none;direction:ltr;block-progression:tb;writing-mode:lr-tb;baseline-shift:baseline;text-anchor:start;white-space:normal;clip-rule:nonzero;display:inline;overflow:visible;visibility:visible;opacity:1;isolation:auto;mix-blend-mode:normal;color-interpolation:sRGB;color-interpolation-filters:linearRGB;solid-color:#000000;solid-opacity:1;fill:#000000;fill-opacity:1;fill-rule:evenodd;stroke:none;stroke-width:140;stroke-linecap:round;stroke-linejoin:round;stroke-miterlimit:4;stroke-dasharray:none;stroke-dashoffset:0;stroke-opacity:1;color-rendering:auto;image-rendering:auto;shape-rendering:auto;text-rendering:auto;enable-background:accumulate"
         d="M 1607.2441 446.02148 C 1605.4441 446.02186 1603.6447 446.02988 1601.8457 446.04688 C 1501.1007 446.99844 1402.0437 473.94691 1314.1875 521.01953 C 1213.9529 574.72437 1129.631 653.49309 1066.1973 745.66602 C 951.75838 911.95211 909.01377 1114.8281 918.75195 1311.1777 L 699.81445 1309.1523 C 707.80588 1297.0656 715.14058 1284.5033 721.6543 1271.4531 C 759.50338 1195.6228 769.51962 1108.2082 749.80664 1025.7812 C 730.09365 943.35445 681.61101 869.93254 613.54883 819.43164 C 545.4867 768.93074 461.16073 743.80904 376.55859 748.83594 C 293.52895 753.76934 214.16225 787.49454 152.97852 843.83984 C 91.794797 900.18524 51.661368 976.51227 39.919922 1058.8555 C 28.178478 1141.1986 45.380211 1225.6977 88.376953 1296.8984 C 131.3737 1368.0989 198.15058 1422.6619 276.49219 1450.6055 A 70.007 70.007 0 1 0 323.52734 1318.7441 C 276.41266 1301.9388 234.07898 1267.3474 208.2207 1224.5273 C 182.36243 1181.7072 171.45626 1128.1403 178.51758 1078.6191 C 185.57889 1029.0978 211.02236 980.70857 247.81836 946.82227 C 284.61435 912.93617 334.92927 891.55684 384.86328 888.58984 C 435.70833 885.56874 489.22232 901.50887 530.12695 931.85938 C 571.03155 962.20988 601.79916 1008.8061 613.64648 1058.3438 C 625.49378 1107.8815 619.13756 1163.3583 596.39062 1208.9316 C 573.64368 1254.5048 533.13208 1292.9342 486.42188 1313.2441 A 70.007 70.007 0 0 0 513.68555 1447.4355 L 934.85742 1451.332 C 949.26447 1528.2196 974.58812 1605.5141 1020.0059 1675.3965 C 1050.3935 1722.1526 1089.469 1764.6705 1137.4668 1797.5527 C 1185.6249 1830.5447 1242.0046 1853.1346 1302.4551 1859.2441 C 1395.6103 1868.6591 1486.4236 1837.7921 1557.4668 1782.9941 C 1627.937 1728.6381 1676.7544 1653.5461 1704.9961 1573.4395 C 1723.0846 1522.1321 1733.041 1468.2267 1734.5957 1413.9785 A 70.007 70.007 0 0 0 1739.5508 1388.7012 L 1744.2559 816.95312 A 70.007 70.007 0 0 0 1673.7871 745.38086 A 70.007 70.007 0 0 0 1604.2598 815.80078 L 1600.1309 1317.4805 L 1059.0449 1312.4746 C 1049.1085 1139.0647 1086.7866 962.69599 1181.5254 825.03516 C 1233.164 750.00126 1301.6266 686.57798 1380.3066 644.42188 C 1458.8142 602.35817 1548.8984 581.2663 1635.9785 586.95117 C 1759.8362 595.03701 1881.6111 659.0391 1966.1562 754.11914 C 2051.1289 849.67967 2102.0132 977.1922 2114.3652 1107.6973 C 2125.4837 1225.1697 2106.3725 1346.0744 2059.5645 1454.3906 C 2012.7564 1562.7068 1937.8011 1659.4769 1844.6289 1731.8809 A 70.007 70.007 0 1 0 1930.5332 1842.4258 C 2042.5928 1755.3445 2131.7814 1640.1993 2188.0781 1509.9258 C 2244.3749 1379.6523 2267.1145 1235.7917 2253.7422 1094.5059 C 2238.8236 936.88329 2178.1196 781.80753 2070.7773 661.08984 C 1963.0078 539.89164 1810.0406 458.01607 1645.0977 447.24805 C 1632.4685 446.42358 1619.8444 446.01888 1607.2441 446.02148 z M 1078.2949 1452.6582 L 1590.3223 1457.3965 C 1586.6979 1481.0683 1580.8918 1504.3933 1572.9609 1526.8887 C 1552.523 1584.8602 1517.4193 1637.0771 1471.9609 1672.1406 C 1427.0755 1706.7622 1369.044 1725.2602 1316.5332 1719.9531 C 1282.1331 1716.4764 1247.0796 1702.9445 1216.5898 1682.0566 C 1185.9398 1661.059 1158.9562 1632.2844 1137.3926 1599.1055 C 1109.6444 1556.4104 1090.7741 1506.382 1078.2949 1452.6582 z "
         transform="translate(5.9569262,437.6338)"
         id="path4139-0-3-8-3-8" />
    </g>
    <path
       sodipodi:nodetypes="caccc"
       inkscape:connector-curvature="0"
       inkscape:original-d="m 224.684,2299.2873 c 0,0 -109.6541,-557.0926 80.70137,-565.9611 191.28534,-8.9119 133.62243,558.7222 133.62243,558.7222 l 1155.2194,10.6887 4.7051,-571.7478"
       inkscape:path-effect="#path-effect4141-5-7-7-8-7-2"
       id="path4139-0-3-8-3-8-9"
       d="M 224.684,2299.2873 C 161.95586,2276.9128 107.40056,2232.3362 72.973051,2175.3259 38.545539,2118.3155 24.492749,2049.2802 33.894131,1983.348 c 9.401383,-65.9322 42.189503,-128.2883 91.179359,-173.4041 48.98986,-45.1157 113.83005,-72.6675 180.31188,-76.6177 67.72359,-4.024 136.64383,16.5052 191.12721,56.9309 54.48339,40.4257 94.10943,100.436 109.88958,166.4183 15.78014,65.9823 7.59259,137.4274 -22.70542,198.1292 -30.29802,60.7018 -82.47267,110.1918 -144.68894,137.2438 l 1155.2194,10.6887 4.7051,-571.7478"
       style="fill:none;fill-rule:evenodd;stroke:#000000;stroke-width:140;stroke-linecap:round;stroke-linejoin:round;stroke-miterlimit:4;stroke-dasharray:none;stroke-opacity:1" />
    <path
       style="fill:none;fill-rule:evenodd;stroke:#000000;stroke-width:140;stroke-linecap:round;stroke-linejoin:round;stroke-miterlimit:4;stroke-dasharray:none;stroke-opacity:1"
       d="m 1587.6534,2272.7757 c 5.857,64.7313 -2.3893,130.7021 -24,192 -24.3398,69.0391 -66.3004,132.6937 -124.2647,177.4035 -57.9643,44.7097 -132.3877,69.3923 -205.2206,62.0313 -47.4253,-4.7931 -93.1416,-22.8538 -132.4655,-49.7937 -39.3239,-26.9399 -72.3539,-62.586 -98.3295,-102.5535 -51.95112,-79.935 -75.21628,-175.3859 -85.38453,-270.1758 -21.64946,-201.8195 15.47423,-414.5175 130.54673,-581.7243 57.5362,-83.6034 133.9285,-154.7001 223.3859,-202.6306 89.4573,-47.9305 192.0186,-72.2328 293.2917,-65.6214 144.4003,9.4269 281.7713,82.3668 377.9287,190.5059 96.1574,108.1391 151.9512,249.4329 165.5865,393.4967 12.2454,129.3791 -8.6797,261.761 -60.2321,381.0558 -51.5524,119.2949 -133.6241,225.2527 -236.24,304.9953"
       id="path4160-0-5-3"
       inkscape:path-effect="#path-effect4162-3-9-2"
       inkscape:original-d="m 1587.6534,2272.7757 c 0,0 8.7931,136.4607 -24,192 -69.0278,116.9074 -195.2442,259.7205 -329.4853,239.4348 -173.9341,-26.2838 -316.91623,-246.6157 -316.17953,-422.523 1.4913,-356.1116 291.54333,-832.4076 647.22433,-849.9763 265.606,-13.1195 498.3149,321.9424 543.5152,584.0026 42.3437,245.4984 -262.8088,480.8939 -296.4721,686.0511"
       inkscape:connector-curvature="0"
       sodipodi:nodetypes="caaaaac" />
    <path
       sodipodi:nodetypes="caccc"
       inkscape:connector-curvature="0"
       inkscape:original-d="m -3124.3012,371.70659 c 0,0 -115.8911,-589.43172 85.2916,-598.81503 202.1654,-9.42923 141.2227,591.15591 141.2227,591.15591 l 1220.9269,11.30918 4.9727,-604.93765"
       inkscape:path-effect="#path-effect4141-5-7-7-8-7-2-6"
       id="path4139-0-3-8-3-8-9-7"
       d="m -3124.3012,371.70659 c -66.3886,-23.64702 -124.137,-70.79704 -160.5858,-131.11379 -36.4487,-60.31676 -51.3361,-133.36726 -41.3985,-203.137354 9.9377,-69.770092 44.629,-135.758911 96.4689,-183.500366 51.8399,-47.74145 120.4563,-76.89282 190.807,-81.06352 71.6557,-4.24807 144.5742,17.485 202.2123,60.26861 57.6381,42.78362 99.551,106.28749 116.2297,176.1044647 16.6788,69.8169743 7.9947,145.4080653 -24.0821,209.6238953 -32.0767,64.21582 -87.2986,116.56063 -153.1372,145.15894 l 1220.9269,11.30918 4.9727,-604.93765"
       style="fill:none;fill-rule:evenodd;stroke:#000000;stroke-width:70;stroke-linecap:round;stroke-linejoin:round;stroke-miterlimit:4;stroke-dasharray:none;stroke-opacity:1" />
    <path
       style="fill:none;fill-rule:evenodd;stroke:#000000;stroke-width:70;stroke-linecap:round;stroke-linejoin:round;stroke-miterlimit:4;stroke-dasharray:none;stroke-opacity:1"
       d="m -1683.8077,343.65599 c 6.1938,68.48718 -2.5212,138.28409 -25.3651,203.14557 -25.7114,73.00337 -70.0292,140.3329 -131.2842,187.64455 -61.255,47.31164 -139.934,73.45784 -216.9419,65.68939 -50.1631,-5.06039 -98.5175,-24.17424 -140.0986,-52.6867 -41.581,-28.51246 -76.4935,-66.23964 -103.9374,-108.53358 -54.8878,-84.5879 -79.4086,-185.56601 -90.1274,-285.8301 -22.8188,-213.44718 16.2727,-438.380456 137.8225,-615.31564 60.7748,-88.46759 141.5008,-163.72996 236.0742,-214.48403 94.5734,-50.75408 203.0372,-76.50821 310.141,-69.51758 152.7116,9.96744 297.9621,87.20353 399.5712,201.64034 101.6091,114.4368 160.4916,263.902791 174.8585,416.263496 12.9045,136.852734 -9.2228,276.864964 -63.7005,403.068684 -54.4777,126.20373 -141.1922,238.33599 -249.6346,322.80754"
       id="path4160-0-5-3-4"
       inkscape:path-effect="#path-effect4162-3-9-2-5"
       inkscape:original-d="m -1683.8077,343.65599 c 0,0 9.2932,144.38222 -25.3651,203.14557 -72.9541,123.69385 -206.3495,274.79722 -348.2261,253.33394 -183.8272,-27.80957 -334.942,-260.93169 -334.1634,-447.05038 1.5761,-376.7838 308.126,-880.72869 684.0377,-899.31725 280.7133,-13.88109 526.6584,340.63109 574.4297,617.903836 44.7521,259.749534 -277.7571,508.809694 -313.3351,725.876224"
       inkscape:connector-curvature="0"
       sodipodi:nodetypes="caaaaac" />
    <path
       style="color:#000000;font-style:normal;font-variant:normal;font-weight:normal;font-stretch:normal;font-size:medium;line-height:normal;font-family:sans-serif;text-indent:0;text-align:start;text-decoration:none;text-decoration-line:none;text-decoration-style:solid;text-decoration-color:#000000;letter-spacing:normal;word-spacing:normal;text-transform:none;direction:ltr;block-progression:tb;writing-mode:lr-tb;baseline-shift:baseline;text-anchor:start;white-space:normal;clip-rule:nonzero;display:inline;overflow:visible;visibility:visible;opacity:1;isolation:auto;mix-blend-mode:normal;color-interpolation:sRGB;color-interpolation-filters:linearRGB;solid-color:#000000;solid-opacity:1;fill:#000000;fill-opacity:1;fill-rule:evenodd;stroke:none;stroke-width:70;stroke-linecap:round;stroke-linejoin:round;stroke-miterlimit:4;stroke-dasharray:none;stroke-dashoffset:0;stroke-opacity:1;color-rendering:auto;image-rendering:auto;shape-rendering:auto;text-rendering:auto;enable-background:accumulate"
       d="M -2025.3672 2001.6562 C -2028.9352 2001.625 -2032.5028 2001.6272 -2036.0684 2001.6621 C -2135.9049 2002.64 -2234.672 2029.4632 -2322.2168 2076.4453 C -2422.1811 2130.0924 -2506.8684 2209.1971 -2570.5879 2301.9512 C -2693.4881 2480.8522 -2734.9665 2704.1391 -2716.6133 2917.3926 L -3072.2656 2914.0977 C -3043.3991 2886.6965 -3019.2287 2854.3458 -3001.3379 2818.5293 C -2965.4829 2746.7496 -2955.882 2663.1733 -2974.5254 2585.1328 C -2993.1686 2507.0923 -3039.5084 2436.8796 -3103.9355 2389.0566 C -3168.3627 2341.2337 -3248.9842 2317.2047 -3329.0801 2321.9531 C -3407.7066 2326.6145 -3483.5892 2358.8515 -3541.5273 2412.209 C -3599.4655 2465.5666 -3637.8289 2538.5419 -3648.9355 2616.5195 C -3660.0422 2694.4971 -3643.5783 2775.2831 -3602.8418 2842.6953 C -3562.1054 2910.1076 -3498.2431 2962.249 -3424.0449 2988.6777 A 35.0035 35.0035 0 1 0 -3400.5566 2922.7363 C -3459.1354 2901.8711 -3510.7706 2859.7116 -3542.9316 2806.4902 C -3575.0927 2753.269 -3588.4033 2687.9533 -3579.6348 2626.3906 C -3570.8662 2564.828 -3539.8491 2505.8266 -3494.1074 2463.7012 C -3448.3658 2421.5759 -3387.0124 2395.5102 -3324.9375 2391.8301 C -3261.7219 2388.0824 -3196.5073 2407.5194 -3145.6582 2445.2637 C -3094.8091 2483.0079 -3057.3235 2539.803 -3042.6094 2601.3965 C -3027.8951 2662.9898 -3035.6624 2730.5959 -3063.9609 2787.248 C -3092.2594 2843.9 -3141.6467 2890.7155 -3199.7305 2915.9453 A 35.0035 35.0035 0 0 0 -3186.1113 2983.0469 L -2708.3555 2987.4727 C -2694.9521 3075.8072 -2669.1341 3164.3888 -2618.7949 3241.9668 C -2589.1465 3287.6582 -2551.2122 3328.8259 -2505.291 3360.3145 C -2459.2893 3391.8582 -2405.5972 3413.2407 -2348.9121 3418.959 C -2261.7327 3427.7536 -2174.8552 3398.5077 -2107.0625 3346.1465 C -2039.5574 3294.0075 -1991.8179 3220.9573 -1964.1602 3142.4277 C -1945.4976 3089.4388 -1935.6433 3033.5115 -1934.9199 2977.4023 A 35.0035 35.0035 0 0 0 -1929.8613 2959.6445 L -1924.8887 2354.707 A 35.0035 35.0035 0 0 0 -1960.123 2318.9219 A 35.0035 35.0035 0 0 0 -1994.8867 2354.1309 L -1999.4219 2905.6504 A 35.0035 35.0035 0 0 0 -2006.6641 2923.9668 L -2646.2754 2918.043 C -2664.9071 2716.0332 -2625.7289 2505.8421 -2512.8906 2341.5879 C -2455.0605 2257.4068 -2378.2977 2185.9859 -2289.1152 2138.125 C -2200.0196 2090.3106 -2097.8009 2066.1666 -1997.8047 2072.6934 C -1855.3799 2081.9894 -1717.9301 2154.7464 -1622.125 2262.6465 C -1526.1047 2370.7889 -1469.6681 2513.365 -1455.9395 2658.957 C -1443.5955 2789.8655 -1464.8183 2924.1472 -1516.9297 3044.8691 C -1569.0411 3165.5911 -1652.2054 3273.1331 -1755.9375 3353.9355 A 35.0035 35.0035 0 1 0 -1712.9219 3409.1602 C -1599.7692 3321.0196 -1509.5061 3204.2967 -1452.6621 3072.6113 C -1395.8181 2940.9259 -1372.785 2795.1837 -1386.25 2652.3867 C -1401.2552 2493.2573 -1462.5835 2336.9011 -1569.7812 2216.1699 C -1677.1943 2095.1964 -1830.2457 2013.4806 -1993.2441 2002.8418 C -2003.9515 2002.1429 -2014.6633 2001.75 -2025.3672 2001.6562 z M -2637.3516 2988.1289 L -2005.4961 2993.9824 C -2007.7244 3036.615 -2016.0252 3078.9679 -2030.1855 3119.1738 C -2053.9508 3186.6511 -2094.8466 3248.2619 -2149.8516 3290.7461 C -2204.5688 3333.0082 -2275.0504 3356.0549 -2341.8867 3349.3125 C -2385.5278 3344.91 -2428.5446 3328.0652 -2465.7051 3302.584 C -2502.9461 3277.0475 -2534.8348 3242.7599 -2560.0742 3203.8633 C -2601.078 3140.6722 -2624.4452 3065.9337 -2637.3516 2988.1289 z "
       transform="translate(0,-1048)"
       id="path4139-0-3-8-3-8-9-7-5" />
  </g>
</svg>
