<?xml version="1.0" encoding="UTF-8" standalone="no"?>
<!-- Created with Inkscape (http://www.inkscape.org/) -->

<svg
   xmlns:dc="http://purl.org/dc/elements/1.1/"
   xmlns:cc="http://creativecommons.org/ns#"
   xmlns:rdf="http://www.w3.org/1999/02/22-rdf-syntax-ns#"
   xmlns:svg="http://www.w3.org/2000/svg"
   xmlns="http://www.w3.org/2000/svg"
   xmlns:sodipodi="http://sodipodi.sourceforge.net/DTD/sodipodi-0.dtd"
   xmlns:inkscape="http://www.inkscape.org/namespaces/inkscape"
   width="2000"
   height="2048"
   id="svg2992"
   version="1.1"
   inkscape:version="0.91 r13725"
   sodipodi:docname="à´.svg">
  <defs
     id="defs5498">
    <inkscape:path-effect
       effect="spiro"
       id="path-effect4162"
       is_visible="true" />
    <inkscape:path-effect
       is_visible="true"
       id="path-effect4148"
       effect="spiro" />
    <inkscape:path-effect
       is_visible="true"
       id="path-effect4141-5"
       effect="spiro" />
    <inkscape:path-effect
       is_visible="true"
       id="path-effect4141-5-7"
       effect="spiro" />
    <inkscape:path-effect
       is_visible="true"
       id="path-effect4141-5-7-7"
       effect="spiro" />
    <inkscape:path-effect
       is_visible="true"
       id="path-effect4141-5-7-7-8"
       effect="spiro" />
    <inkscape:path-effect
       effect="spiro"
       id="path-effect4162-3"
       is_visible="true" />
    <inkscape:path-effect
       is_visible="true"
       id="path-effect4141-5-7-7-8-7"
       effect="spiro" />
    <inkscape:path-effect
       effect="spiro"
       id="path-effect4162-3-9"
       is_visible="true" />
    <inkscape:path-effect
       effect="spiro"
       id="path-effect4162-3-9-2"
       is_visible="true" />
    <inkscape:path-effect
       is_visible="true"
       id="path-effect4141-5-7-7-8-7-2"
       effect="spiro" />
    <inkscape:path-effect
       is_visible="true"
       id="path-effect4141-5-7-7-8-7-2-1"
       effect="spiro" />
    <inkscape:path-effect
       effect="spiro"
       id="path-effect4162-3-9-2-7"
       is_visible="true" />
    <inkscape:path-effect
       is_visible="true"
       id="path-effect4141-5-7-7-8-7-2-1-1"
       effect="spiro" />
    <inkscape:path-effect
       effect="spiro"
       id="path-effect4162-3-9-2-7-6"
       is_visible="true" />
    <inkscape:path-effect
       is_visible="true"
       id="path-effect4141-5-7-7-8-7-2-1-1-9"
       effect="spiro" />
    <inkscape:path-effect
       effect="spiro"
       id="path-effect4162-3-9-2-7-6-6"
       is_visible="true" />
    <inkscape:path-effect
       effect="spiro"
       id="path-effect4162-3-9-2-7-6-68"
       is_visible="true" />
    <inkscape:path-effect
       is_visible="true"
       id="path-effect4141-5-7-7-8-7-2-1-1-6"
       effect="spiro" />
    <inkscape:path-effect
       is_visible="true"
       id="path-effect4141-5-7-7-8-7-2-1-2"
       effect="spiro" />
    <inkscape:path-effect
       effect="spiro"
       id="path-effect4162-3-9-2-7-7"
       is_visible="true" />
    <inkscape:path-effect
       is_visible="true"
       id="path-effect4141-5-7-7-8-7-2-1-9"
       effect="spiro" />
    <inkscape:path-effect
       effect="spiro"
       id="path-effect4162-3-9-2-7-9"
       is_visible="true" />
  </defs>
  <sodipodi:namedview
     inkscape:window-height="851"
     inkscape:window-width="1600"
     inkscape:pageshadow="2"
     inkscape:pageopacity="0.0"
     borderopacity="1.0"
     bordercolor="#666666"
     pagecolor="#ffffff"
     id="base"
     showgrid="true"
     showguides="true"
     inkscape:guide-bbox="true"
     inkscape:zoom="0.5"
     inkscape:cx="1315.7083"
     inkscape:cy="-739.79781"
     inkscape:window-x="1599"
     inkscape:window-y="-1"
     inkscape:current-layer="layer1"
     inkscape:window-maximized="1"
     inkscape:snap-bbox="true">
    <sodipodi:guide
       orientation="horizontal"
       position="0,600"
       id="guide5596" />
    <inkscape:grid
       type="xygrid"
       id="grid3769"
       empspacing="3"
       visible="true"
       enabled="true"
       snapvisiblegridlinesonly="true"
       spacingx="4px"
       units="px"
       dotted="true"
       spacingy="4px" />
    <sodipodi:guide
       orientation="0,1"
       position="-1040,1600"
       id="guide2985" />
  </sodipodi:namedview>
  <metadata
     id="metadata5594">
    <rdf:RDF>
      <cc:Work
         rdf:about="">
        <dc:format>image/svg+xml</dc:format>
        <dc:type
           rdf:resource="http://purl.org/dc/dcmitype/StillImage" />
        <dc:title />
      </cc:Work>
    </rdf:RDF>
  </metadata>
  <g
     inkscape:label="Layer 1"
     inkscape:groupmode="layer"
     id="layer1"
     transform="translate(0,1048)">
    <g
       id="layer1-3"
       inkscape:label="Layer 1"
       transform="translate(176.26484,-6713.471)"
       style="stroke-width:70;stroke-miterlimit:4;stroke-dasharray:none" />
    <g
       id="layer1-3-6"
       inkscape:label="Layer 1"
       transform="translate(101.36027,-3460.2723)"
       style="stroke-width:70;stroke-miterlimit:4;stroke-dasharray:none" />
    <g
       id="layer1-3-4"
       inkscape:label="Layer 1"
       transform="translate(-2.6975378,-4938.193)"
       style="stroke-width:70;stroke-miterlimit:4;stroke-dasharray:none" />
    <g
       id="layer1-3-6-6"
       inkscape:label="Layer 1"
       transform="translate(106.18336,-3457.4337)"
       style="stroke-width:70;stroke-miterlimit:4;stroke-dasharray:none" />
    <g
       id="layer1-3-1"
       inkscape:label="Layer 1"
       transform="translate(154.60418,-4979.241)"
       style="stroke-width:70;stroke-miterlimit:4;stroke-dasharray:none" />
    <g
       id="layer1-3-6-4"
       inkscape:label="Layer 1"
       transform="translate(79.699612,-1726.0423)"
       style="stroke-width:70;stroke-miterlimit:4;stroke-dasharray:none" />
    <g
       id="layer1-3-4-9"
       inkscape:label="Layer 1"
       transform="translate(-24.358198,-3203.963)"
       style="stroke-width:70;stroke-miterlimit:4;stroke-dasharray:none" />
    <g
       id="layer1-3-6-6-6"
       inkscape:label="Layer 1"
       transform="translate(84.522702,-1723.2037)"
       style="stroke-width:70;stroke-miterlimit:4;stroke-dasharray:none" />
    <path
       sodipodi:nodetypes="caccc"
       inkscape:connector-curvature="0"
       inkscape:original-d="m 328.10635,330.84515 c 0,0 -109.66803,-557.3968 80.70137,-565.9611 193.89122,-8.7228 133.62243,566.7222 133.62243,566.7222 l 1027.21935,2.6887 4.7051,-571.7478"
       inkscape:path-effect="#path-effect4141-5-7-7-8-7-2-1"
       id="path4139-0-3-8-3-8-9-0"
       d="M 328.10635,330.84515 C 267.26214,306.77288 214.93933,261.73953 182.07494,205.1584 149.21055,148.57727 136.01792,80.815675 145.25471,16.037796 c 9.23679,-64.77788 40.84304,-126.151526 88.21209,-171.292036 47.36905,-45.1405 110.19341,-73.75482 175.34092,-79.86171 69.87947,-6.55046 141.90115,12.97264 198.90582,53.91792 57.00468,40.94528 98.50406,102.962011 114.6109,171.2746643 C 738.43128,58.389288 729.0076,132.41272 696.29861,194.51079 663.58962,256.60887 607.87549,306.24967 542.43015,331.60625 l 1027.21935,2.6887 4.7051,-571.7478"
       style="fill:none;fill-rule:evenodd;stroke:#000000;stroke-width:140;stroke-linecap:round;stroke-linejoin:round;stroke-miterlimit:4;stroke-dasharray:none;stroke-opacity:1" />
    <path
       style="fill:none;fill-rule:evenodd;stroke:#000000;stroke-width:140;stroke-linecap:round;stroke-linejoin:round;stroke-miterlimit:4;stroke-dasharray:none;stroke-opacity:1"
       d="m 1569.0757,304.33355 4,102 c 1.3903,35.45262 2.2896,71.25153 -4.4158,106.09201 -6.7054,34.84048 -21.1037,68.45578 -43.641,95.85814 -22.5374,27.40237 -52.8828,48.20238 -86.3952,59.85314 -33.5124,11.65076 -69.8606,14.29023 -105.0333,9.63151 -79.0907,-10.47578 -150.5928,-57.24399 -201.2607,-118.87067 -50.6678,-61.62667 -82.0098,-137.21 -101.7449,-214.51202 -49.66044,-194.51883 -26.2652,-409.707456 77.9676,-581.28615 52.1165,-85.78935 123.6317,-159.99354 208.5842,-213.46311 84.9526,-53.46957 183.3075,-85.94664 283.5337,-91.48235 108.7585,-6.00697 221.2334,21.03967 308.0742,86.7906 43.4203,32.87546 79.9806,75.07091 104.8235,123.53692 24.8429,48.466 37.7909,103.20675 35.5922,157.62448 -2.7248,67.43781 -29.1114,133.687809 -73.4972,184.532498 -44.3858,50.844688 -106.4662,85.935136 -172.9185,97.740802 67.9432,9.84663 131.8245,45.50639 175.8657,98.17145 44.0411,52.66505 67.8346,121.84828 65.5036,190.46165 -2.8909,85.09335 -46.716,167.87672 -115.4641,218.10556 -68.7481,50.22885 -160.9354,66.81912 -242.8816,43.70964"
       id="path4160-0-5-3-6"
       inkscape:path-effect="#path-effect4162-3-9-2-7"
       inkscape:original-d="m 1569.0757,304.33355 4,102 c 4.8172,122.83987 -118.8283,270.54466 -239.4853,271.4348 -150.1649,1.10783 -290.5505,-183.73115 -303.0056,-333.38269 -29.133,-350.0421137 223.1011,-831.64156 570.0855,-886.23161 191.0216,-30.05288 432.454,175.24684 448.4899,367.952 10.3577,124.469265 -98.4228,236.035083 -246.4157,282.2733 0,0 256.5924,164.1419 241.3693,288.6331 -17.9559,146.83972 -111.018,260.33266 -358.3457,261.8152"
       inkscape:connector-curvature="0"
       sodipodi:nodetypes="csaaaacac" />
    <path
       sodipodi:nodetypes="caccc"
       inkscape:connector-curvature="0"
       inkscape:original-d="m -2440.0812,367.57711 c 0,0 -115.6097,-588.22643 85.0735,-597.26442 204.3959,-9.20525 140.8618,598.06762 140.8618,598.06762 l 1217.80731,2.83741 4.95996,-603.37118"
       inkscape:path-effect="#path-effect4141-5-7-7-8-7-2-1-1"
       id="path4139-0-3-8-3-8-9-0-1"
       d="m -2440.0812,367.57711 c -64.2256,-25.38143 -119.4644,-72.89308 -154.166,-132.6003 -34.7015,-59.70723 -48.6404,-131.22217 -38.902,-199.591121 9.7384,-68.368954 43.0907,-133.147793 93.0832,-180.791329 49.9924,-47.64353 116.3001,-77.84226 185.0583,-84.28167 73.7473,-6.90665 149.7531,13.70658 209.9055,56.92761 60.1523,43.22103 103.9357,108.67948 120.9167,180.776712 16.9809,72.097232 7.0138,150.215428 -27.5261,215.739148 -34.5398,65.52373 -93.3566,117.89149 -162.4343,144.62415 l 1217.80731,2.83741 4.95996,-603.37118"
       style="fill:none;fill-rule:evenodd;stroke:#000000;stroke-width:69.99999237;stroke-linecap:round;stroke-linejoin:round;stroke-miterlimit:4;stroke-dasharray:none;stroke-opacity:1" />
    <path
       style="fill:none;fill-rule:evenodd;stroke:#000000;stroke-width:69.99999237;stroke-linecap:round;stroke-linejoin:round;stroke-miterlimit:4;stroke-dasharray:none;stroke-opacity:1"
       d="m -997.2685,339.59916 c 6.2471,68.30858 -2.44806,137.94448 -25.3003,202.61954 -25.7039,72.74576 -70.0083,139.7713 -131.1026,186.88951 -61.0943,47.11821 -139.4386,73.21493 -216.2337,65.78844 -50.1585,-4.8506 -98.5888,-23.67746 -140.3004,-51.95381 -41.7116,-28.27636 -76.8007,-65.82157 -104.3405,-108.02313 -55.0794,-84.40311 -79.4266,-185.55542 -88.6687,-285.91584 -19.8315,-215.35043 29.2317,-440.514853 157.1453,-614.89147 63.9568,-87.18831 146.883,-160.81507 242.5478,-211.21872 95.6647,-50.40364 204.0639,-77.24609 312.15081,-74.16561 109.47373,3.12001 219.28597,37.87452 304.99758,106.04895 85.71161,68.17443 145.39822,170.89207 153.03224,280.14386 5.89163,84.316123 -20.24887,171.8241408 -77.09817,234.370741 -47.27781,52.015879 -114.71989,85.213169 -184.77627,90.953169 72.5349,-13.8769 149.74133,-1.92309 214.68352,33.23927 64.9422,35.16236 117.15335,93.28052 145.18059,161.60588 38.64151,94.20105 29.12421,207.06497 -25.98455,292.68055 -42.07043,65.35956 -109.3875,114.00307 -184.64998,133.42863 -75.26248,19.42555 -157.71258,9.43755 -226.15972,-27.39698"
       id="path4160-0-5-3-6-9"
       inkscape:path-effect="#path-effect4162-3-9-2-7-6"
       inkscape:original-d="m -997.2685,339.59916 c 0,0 9.26945,144.00836 -25.3003,202.61954 -72.7677,123.37356 -205.8222,274.08565 -347.3363,252.67795 -183.3575,-27.73756 -335.8263,-260.27152 -333.3096,-445.89278 5.1884,-382.68993 331.4631,-861.82885 711.84391,-900.2758 198.60561,-20.07411 403.56675,193.94488 458.02982,386.19281 22.4172,79.129993 -23.17115,172.3158714 -77.09817,234.370741 -45.04842,51.837989 -184.77627,90.953169 -184.77627,90.953169 0,0 295.30011,74.59184 359.86411,194.84515 46.31985,86.273 37.31105,217.993 -25.98455,292.68055 -91.4858,107.95126 -410.8097,106.03165 -410.8097,106.03165"
       inkscape:connector-curvature="0"
       sodipodi:nodetypes="caaaaaacaac" />
    <path
       style="color:#000000;font-style:normal;font-variant:normal;font-weight:normal;font-stretch:normal;font-size:medium;line-height:normal;font-family:sans-serif;text-indent:0;text-align:start;text-decoration:none;text-decoration-line:none;text-decoration-style:solid;text-decoration-color:#000000;letter-spacing:normal;word-spacing:normal;text-transform:none;direction:ltr;block-progression:tb;writing-mode:lr-tb;baseline-shift:baseline;text-anchor:start;white-space:normal;clip-rule:nonzero;display:inline;overflow:visible;visibility:visible;opacity:1;isolation:auto;mix-blend-mode:normal;color-interpolation:sRGB;color-interpolation-filters:linearRGB;solid-color:#000000;solid-opacity:1;fill:#000000;fill-opacity:1;fill-rule:evenodd;stroke:none;stroke-width:69.99999237;stroke-linecap:round;stroke-linejoin:round;stroke-miterlimit:4;stroke-dasharray:none;stroke-dashoffset:0;stroke-opacity:1;color-rendering:auto;image-rendering:auto;shape-rendering:auto;text-rendering:auto;enable-background:accumulate"
       d="M -1875.8418 1949.498 C -1983.1297 1950.1177 -2089.3571 1978.1489 -2183.8359 2027.9277 C -2284.5567 2080.9953 -2371.3582 2158.1649 -2438.291 2249.4102 C -2568.6329 2427.0971 -2619.8448 2653.063 -2603.5352 2870.4863 L -2957.2832 2869.6621 C -2928.0633 2842.9469 -2903.3265 2811.3185 -2884.75 2776.0781 C -2846.1542 2702.8601 -2835.1421 2616.5556 -2854.1172 2535.9922 C -2873.0921 2455.4288 -2921.4639 2383.1127 -2988.6797 2334.8164 C -3055.8956 2286.5201 -3139.8642 2263.7471 -3222.2715 2271.4648 C -3299.0644 2278.6567 -3372.3786 2312.0468 -3428.2129 2365.2578 C -3484.0473 2418.4687 -3520.9225 2490.091 -3531.7988 2566.4492 C -3542.6752 2642.8074 -3527.2644 2721.8801 -3488.5078 2788.5645 C -3449.7512 2855.2487 -3388.676 2907.7796 -3316.9453 2936.127 A 35.003496 35.003496 0 1 0 -3291.2168 2871.0273 C -3347.9373 2848.6119 -3397.3398 2806.1188 -3427.9863 2753.3887 C -3458.6328 2700.6586 -3471.0985 2636.6999 -3462.498 2576.3203 C -3453.8976 2515.9405 -3424.0705 2458.0077 -3379.9199 2415.9316 C -3335.7694 2373.8555 -3276.4676 2346.8471 -3215.7441 2341.1602 C -3150.6568 2335.0645 -3082.6143 2353.5183 -3029.5254 2391.6641 C -2976.4366 2429.8097 -2937.2408 2488.41 -2922.2539 2552.041 C -2907.2669 2615.672 -2916.1898 2685.606 -2946.6738 2743.4355 C -2977.1578 2801.265 -3029.8112 2848.1467 -3090.7773 2871.7402 A 35.003496 35.003496 0 0 0 -3078.2266 2939.3809 L -2595.8555 2940.5039 C -2583.1119 3027.3522 -2557.3941 3114.1373 -2507.8574 3190.0469 C -2478.0739 3235.6867 -2439.9199 3276.6788 -2393.8438 3307.9141 C -2347.6894 3339.2021 -2293.9201 3360.2563 -2237.2734 3365.7344 C -2150.389 3374.1366 -2063.9004 3344.9606 -1996.2969 3292.8223 C -1928.9719 3240.8988 -1881.2313 3168.1691 -1853.5684 3089.8789 C -1830.8553 3025.5978 -1821.1955 2956.9499 -1825.1875 2888.9238 L -1820.3789 2304.1348 A 35.003496 35.003496 0 0 0 -1855.6133 2268.3496 A 35.003496 35.003496 0 0 0 -1890.377 2303.5586 L -1894.998 2865.6328 A 35.003496 35.003496 0 0 0 -1896.1641 2872.1348 L -2533.3164 2870.6504 C -2549.7708 2666.1832 -2501.6093 2454.0782 -2381.8477 2290.8145 C -2320.8669 2207.6832 -2241.8158 2137.5992 -2151.207 2089.8594 C -2060.6551 2042.1495 -1958.0004 2016.8163 -1856.3672 2019.7129 C -1753.6258 2022.641 -1651.009 2055.4521 -1572.1602 2118.168 C -1493.6576 2180.6083 -1439.1119 2275.2425 -1432.2559 2373.3613 C -1426.9834 2448.8162 -1450.8275 2527.2756 -1500.3398 2581.75 C -1535.18 2620.0818 -1583.3558 2646.9597 -1634.3164 2657.332 C -1644.8555 2658.3773 -1655.3616 2659.8735 -1665.793 2661.8691 A 35.003496 35.003496 0 0 0 -1656.3574 2731.127 C -1645.6044 2730.2459 -1634.9348 2728.7547 -1624.373 2726.7695 C -1568.3737 2721.906 -1510.4917 2733.5717 -1461.1973 2760.2617 C -1403.548 2791.4753 -1356.6122 2843.7205 -1331.7324 2904.373 C -1297.582 2987.6255 -1306.2411 3089.4398 -1354.7656 3164.8262 C -1391.9168 3222.5434 -1452.2702 3266.1564 -1518.7324 3283.3105 C -1585.1947 3300.4648 -1659.1148 3291.51 -1719.5586 3258.9824 A 35.003496 35.003496 0 1 0 -1752.7305 3320.623 C -1676.28 3361.7645 -1585.301 3372.7849 -1501.2383 3351.0879 C -1417.1755 3329.391 -1342.8959 3275.7168 -1295.9062 3202.7148 C -1234.2132 3106.87 -1223.836 2982.9561 -1266.9688 2877.8066 C -1298.1434 2801.8084 -1355.6321 2737.8161 -1427.8672 2698.7051 C -1449.3744 2687.0602 -1472.031 2677.7731 -1495.3516 2670.7988 C -1478.4496 2658.4331 -1462.7108 2644.4241 -1448.5391 2628.832 C -1384.3528 2558.2132 -1355.915 2461.6578 -1362.4258 2368.4805 C -1370.8377 2248.0957 -1435.6653 2137.2932 -1528.5859 2063.3848 C -1621.1603 1989.7517 -1738.167 1953.0541 -1854.373 1949.7422 C -1861.5318 1949.5382 -1868.6893 1949.4567 -1875.8418 1949.498 z M -2524.9727 2940.6699 L -1894.9336 2942.1367 C -1897.1699 2984.5132 -1905.4526 3026.6089 -1919.5684 3066.5586 C -1943.3132 3133.76 -1984.1832 3195.0797 -2039.0469 3237.3926 C -2093.632 3279.4906 -2163.8294 3302.5094 -2230.5352 3296.0586 C -2274.2055 3291.8354 -2317.2975 3275.2373 -2354.5664 3249.9727 C -2391.9133 3224.6551 -2423.9383 3190.5562 -2449.2344 3151.793 C -2489.5829 3089.9631 -2512.713 3016.8336 -2524.9727 2940.6699 z "
       transform="translate(0,-1048)"
       id="path4139-0-3-8-3-8-9-0-1-5" />
    <path
       style="color:#000000;font-style:normal;font-variant:normal;font-weight:normal;font-stretch:normal;font-size:medium;line-height:normal;font-family:sans-serif;text-indent:0;text-align:start;text-decoration:none;text-decoration-line:none;text-decoration-style:solid;text-decoration-color:#000000;letter-spacing:normal;word-spacing:normal;text-transform:none;direction:ltr;block-progression:tb;writing-mode:lr-tb;baseline-shift:baseline;text-anchor:start;white-space:normal;clip-rule:nonzero;display:inline;overflow:visible;visibility:visible;opacity:1;isolation:auto;mix-blend-mode:normal;color-interpolation:sRGB;color-interpolation-filters:linearRGB;solid-color:#000000;solid-opacity:1;fill:#000000;fill-opacity:1;fill-rule:evenodd;stroke:none;stroke-width:140;stroke-linecap:round;stroke-linejoin:round;stroke-miterlimit:4;stroke-dasharray:none;stroke-dashoffset:0;stroke-opacity:1;color-rendering:auto;image-rendering:auto;shape-rendering:auto;text-rendering:auto;enable-background:accumulate"
       d="M 1642.791 2143.3262 C 1639.1662 2143.3249 1635.5432 2143.3567 1631.9238 2143.4199 C 1624.2025 2143.5548 1616.4958 2143.8353 1608.8105 2144.2598 C 1496.0493 2150.4878 1386.6014 2186.7574 1291.8496 2246.3945 C 1197.1764 2305.9824 1118.2968 2387.989 1060.7266 2482.7559 C 963.17233 2643.3407 930.49041 2835.2252 955.45703 3018.6562 L 749.08789 3018.1152 C 756.74137 3006.879 763.85584 2995.2388 770.23242 2983.1328 C 811.04746 2905.6455 822.5555 2815.2538 802.45703 2730.0117 C 782.35857 2644.7696 731.68247 2569.0397 660.55078 2517.9473 C 589.41913 2466.855 501.47265 2443.0156 414.27539 2451.1895 C 333.06155 2458.8024 256.22676 2493.7975 197.17578 2550.0703 C 138.12478 2606.3432 99.469804 2681.4033 87.955078 2762.1562 C 76.440345 2842.9095 92.575672 2925.7815 133.54492 2996.3164 C 174.51417 3066.8514 238.50427 3121.9267 314.35352 3151.9355 A 70.007 70.007 0 1 0 365.85938 3021.7539 C 320.02021 3003.6182 279.365 2968.6274 254.60547 2926 C 229.84594 2883.3727 219.59387 2830.7226 226.55273 2781.9199 C 233.51159 2733.1173 258.07069 2685.4281 293.75781 2651.4199 C 329.44493 2617.4118 378.26062 2595.179 427.3418 2590.5781 C 479.90348 2585.651 535.99927 2600.8583 578.87695 2631.6562 C 621.75461 2662.4544 654.07816 2710.7573 666.19336 2762.1406 C 678.30857 2813.5239 670.96818 2871.18 646.36523 2917.8887 C 621.76227 2964.5975 578.36716 3003.2613 529.14062 3022.334 A 70.007 70.007 0 0 0 554.24609 3157.6055 L 986.32617 3158.7363 C 1008.1069 3229.0652 1040.4389 3298.7595 1090.2578 3359.3535 C 1150.4095 3432.5152 1235.8674 3489.8465 1336.3984 3503.1621 C 1381.2062 3509.097 1428.3657 3505.985 1473.6094 3490.2559 C 1519.1501 3474.4233 1560.0022 3446.5367 1591.082 3408.748 C 1622.1686 3370.9509 1640.7576 3326.5509 1649.3984 3281.6543 C 1658.0052 3236.9347 1656.4378 3195.7051 1655.0215 3159.5898 L 1651.7637 3076.5352 L 1656.3516 2519.123 A 70.007 70.007 0 0 0 1585.8848 2447.5527 A 70.007 70.007 0 0 0 1516.3574 2517.9707 L 1512.2246 3020.1133 L 1097.123 3019.0273 C 1071.3896 2859.4232 1098.2999 2690.5543 1180.3789 2555.4434 C 1227.0417 2478.6314 1291.192 2412.2302 1366.4238 2364.8789 C 1441.5772 2317.5771 1528.84 2288.8902 1616.5312 2284.0469 C 1711.0839 2278.8245 1807.4747 2302.9831 1878.4902 2356.752 C 1914.0057 2383.6423 1943.6261 2418.0783 1963.2754 2456.4121 C 1982.8622 2494.624 1992.8915 2537.8303 1991.2168 2579.2793 C 1989.1533 2630.3501 1968.5431 2682.0987 1934.9297 2720.6035 C 1901.3163 2759.1083 1852.8245 2786.5185 1802.5 2795.459 A 70.007 70.007 0 0 0 1804.7051 2933.6562 C 1855.0709 2940.9555 1904.2646 2968.4148 1936.9121 3007.4551 C 1969.5595 3046.4954 1987.8823 3099.7721 1986.1543 3150.6348 C 1984.0262 3213.2749 1949.9614 3277.6205 1899.3535 3314.5957 C 1848.7457 3351.5709 1777.0909 3364.4668 1716.7676 3347.4551 A 70.007 70.007 0 1 0 1678.7695 3482.1992 C 1782.3386 3511.4065 1895.057 3491.1211 1981.9453 3427.6387 C 2068.8337 3364.1561 2122.4205 3262.9352 2126.0742 3155.3887 C 2129.0083 3069.0245 2099.7434 2983.9344 2044.3086 2917.6445 C 2027.1679 2897.1474 2007.8046 2878.81 1986.7188 2862.8691 C 2006.141 2848.0143 2024.1759 2831.2548 2040.3965 2812.6738 C 2095.5546 2749.4892 2127.7174 2668.7364 2131.1035 2584.9316 C 2133.8262 2517.5452 2117.9603 2451.2709 2087.8613 2392.5508 C 2057.8248 2333.9526 2014.3252 2283.9973 1963 2245.1367 C 1869.7583 2174.5394 1755.1595 2143.3666 1642.791 2143.3262 z M 1134.8086 3159.125 L 1514.9355 3160.1211 L 1515.1289 3165.0762 C 1516.4932 3199.8661 1516.7259 3230.2339 1511.9219 3255.1953 C 1507.1519 3279.9797 1496.9431 3302.8108 1482.9551 3319.8184 C 1468.9601 3336.8343 1449.1208 3350.5485 1427.6367 3358.0176 C 1405.8556 3365.5899 1380.319 3367.7575 1354.7812 3364.375 C 1297.1309 3356.739 1239.5845 3320.5332 1198.4004 3270.4414 C 1172.0708 3238.4171 1151.1796 3200.4738 1134.8086 3159.125 z "
       transform="translate(0,-1048)"
       id="path4139-0-3-8-3-8-9-0-2" />
  </g>
</svg>
