<?xml version="1.0" encoding="UTF-8" standalone="no"?>
<!-- Created with Inkscape (http://www.inkscape.org/) -->

<svg
   xmlns:dc="http://purl.org/dc/elements/1.1/"
   xmlns:cc="http://creativecommons.org/ns#"
   xmlns:rdf="http://www.w3.org/1999/02/22-rdf-syntax-ns#"
   xmlns:svg="http://www.w3.org/2000/svg"
   xmlns="http://www.w3.org/2000/svg"
   xmlns:sodipodi="http://sodipodi.sourceforge.net/DTD/sodipodi-0.dtd"
   xmlns:inkscape="http://www.inkscape.org/namespaces/inkscape"
   width="2000"
   height="2048"
   id="svg2992"
   version="1.1"
   inkscape:version="0.91 r13725"
   sodipodi:docname="à´.svg">
  <defs
     id="defs5498">
    <inkscape:path-effect
       effect="spiro"
       id="path-effect4162"
       is_visible="true" />
    <inkscape:path-effect
       is_visible="true"
       id="path-effect4148"
       effect="spiro" />
    <inkscape:path-effect
       is_visible="true"
       id="path-effect4141-5"
       effect="spiro" />
    <inkscape:path-effect
       is_visible="true"
       id="path-effect4141-5-7"
       effect="spiro" />
    <inkscape:path-effect
       is_visible="true"
       id="path-effect4141-5-7-7"
       effect="spiro" />
    <inkscape:path-effect
       is_visible="true"
       id="path-effect4141-5-7-7-8"
       effect="spiro" />
    <inkscape:path-effect
       effect="spiro"
       id="path-effect4162-3"
       is_visible="true" />
    <inkscape:path-effect
       is_visible="true"
       id="path-effect4141-5-7-7-8-7"
       effect="spiro" />
    <inkscape:path-effect
       effect="spiro"
       id="path-effect4162-3-9"
       is_visible="true" />
    <inkscape:path-effect
       effect="spiro"
       id="path-effect4162-3-9-2"
       is_visible="true" />
    <inkscape:path-effect
       is_visible="true"
       id="path-effect4141-5-7-7-8-7-2"
       effect="spiro" />
    <inkscape:path-effect
       is_visible="true"
       id="path-effect4141-5-7-7-8-7-2-1"
       effect="spiro" />
    <inkscape:path-effect
       effect="spiro"
       id="path-effect4162-3-9-2-7"
       is_visible="true" />
    <inkscape:path-effect
       is_visible="true"
       id="path-effect4141-5-7-7-8-7-2-1-1"
       effect="spiro" />
    <inkscape:path-effect
       effect="spiro"
       id="path-effect4162-3-9-2-7-6"
       is_visible="true" />
    <inkscape:path-effect
       is_visible="true"
       id="path-effect4141-5-7-7-8-7-2-1-1-9"
       effect="spiro" />
    <inkscape:path-effect
       effect="spiro"
       id="path-effect4162-3-9-2-7-6-6"
       is_visible="true" />
    <inkscape:path-effect
       effect="spiro"
       id="path-effect4162-3-9-2-7-6-68"
       is_visible="true" />
    <inkscape:path-effect
       is_visible="true"
       id="path-effect4141-5-7-7-8-7-2-1-1-6"
       effect="spiro" />
    <inkscape:path-effect
       is_visible="true"
       id="path-effect4141-5-7-7-8-7-2-1-2"
       effect="spiro" />
    <inkscape:path-effect
       effect="spiro"
       id="path-effect4162-3-9-2-7-7"
       is_visible="true" />
    <inkscape:path-effect
       is_visible="true"
       id="path-effect4141-5-7-7-8-7-2-1-9"
       effect="spiro" />
    <inkscape:path-effect
       effect="spiro"
       id="path-effect4162-3-9-2-7-9"
       is_visible="true" />
    <inkscape:path-effect
       effect="spiro"
       id="path-effect4162-3-9-2-7-67"
       is_visible="true" />
    <inkscape:path-effect
       is_visible="true"
       id="path-effect4141-5-7-7-8-7-2-1-8"
       effect="spiro" />
  </defs>
  <sodipodi:namedview
     inkscape:window-height="842"
     inkscape:window-width="1600"
     inkscape:pageshadow="2"
     inkscape:pageopacity="0.0"
     borderopacity="1.0"
     bordercolor="#666666"
     pagecolor="#ffffff"
     id="base"
     showgrid="true"
     showguides="true"
     inkscape:guide-bbox="true"
     inkscape:zoom="0.5"
     inkscape:cx="1280.7083"
     inkscape:cy="-579.79781"
     inkscape:window-x="1600"
     inkscape:window-y="0"
     inkscape:current-layer="layer1"
     inkscape:window-maximized="1"
     inkscape:snap-bbox="true">
    <sodipodi:guide
       orientation="horizontal"
       position="0,600"
       id="guide5596" />
    <inkscape:grid
       type="xygrid"
       id="grid3769"
       empspacing="3"
       visible="true"
       enabled="true"
       snapvisiblegridlinesonly="true"
       spacingx="4px"
       units="px"
       dotted="true"
       spacingy="4px" />
    <sodipodi:guide
       orientation="0,1"
       position="-1040,1600"
       id="guide2985" />
  </sodipodi:namedview>
  <metadata
     id="metadata5594">
    <rdf:RDF>
      <cc:Work
         rdf:about="">
        <dc:format>image/svg+xml</dc:format>
        <dc:type
           rdf:resource="http://purl.org/dc/dcmitype/StillImage" />
        <dc:title />
      </cc:Work>
    </rdf:RDF>
  </metadata>
  <g
     inkscape:label="Layer 1"
     inkscape:groupmode="layer"
     id="layer1"
     transform="translate(0,1048)">
    <g
       id="layer1-3"
       inkscape:label="Layer 1"
       transform="translate(176.26484,-6713.471)"
       style="stroke-width:70;stroke-miterlimit:4;stroke-dasharray:none" />
    <g
       id="layer1-3-6"
       inkscape:label="Layer 1"
       transform="translate(101.36027,-3460.2723)"
       style="stroke-width:70;stroke-miterlimit:4;stroke-dasharray:none" />
    <g
       id="layer1-3-4"
       inkscape:label="Layer 1"
       transform="translate(-2.6975378,-4938.193)"
       style="stroke-width:70;stroke-miterlimit:4;stroke-dasharray:none" />
    <g
       id="layer1-3-6-6"
       inkscape:label="Layer 1"
       transform="translate(106.18336,-3457.4337)"
       style="stroke-width:70;stroke-miterlimit:4;stroke-dasharray:none" />
    <g
       id="layer1-3-1"
       inkscape:label="Layer 1"
       transform="translate(154.60418,-4979.241)"
       style="stroke-width:70;stroke-miterlimit:4;stroke-dasharray:none" />
    <g
       id="layer1-3-6-4"
       inkscape:label="Layer 1"
       transform="translate(79.699612,-1726.0423)"
       style="stroke-width:70;stroke-miterlimit:4;stroke-dasharray:none" />
    <g
       id="layer1-3-4-9"
       inkscape:label="Layer 1"
       transform="translate(-24.358198,-3203.963)"
       style="stroke-width:70;stroke-miterlimit:4;stroke-dasharray:none" />
    <g
       id="layer1-3-6-6-6"
       inkscape:label="Layer 1"
       transform="translate(84.522702,-1723.2037)"
       style="stroke-width:70;stroke-miterlimit:4;stroke-dasharray:none" />
    <path
       sodipodi:nodetypes="caccc"
       inkscape:connector-curvature="0"
       inkscape:original-d="m 328.10635,330.84515 c 0,0 -109.66803,-557.3968 80.70137,-565.9611 193.89122,-8.7228 133.62243,566.7222 133.62243,566.7222 l 1027.21935,2.6887 4.7051,-571.7478"
       inkscape:path-effect="#path-effect4141-5-7-7-8-7-2-1"
       id="path4139-0-3-8-3-8-9-0"
       d="M 328.10635,330.84515 C 267.26214,306.77288 214.93933,261.73953 182.07494,205.1584 149.21055,148.57727 136.01792,80.815675 145.25471,16.037796 c 9.23679,-64.77788 40.84304,-126.151526 88.21209,-171.292036 47.36905,-45.1405 110.19341,-73.75482 175.34092,-79.86171 69.87947,-6.55046 141.90115,12.97264 198.90582,53.91792 57.00468,40.94528 98.50406,102.962011 114.6109,171.2746643 C 738.43128,58.389288 729.0076,132.41272 696.29861,194.51079 663.58962,256.60887 607.87549,306.24967 542.43015,331.60625 l 1027.21935,2.6887 4.7051,-571.7478"
       style="fill:none;fill-rule:evenodd;stroke:#000000;stroke-width:140;stroke-linecap:round;stroke-linejoin:round;stroke-miterlimit:4;stroke-dasharray:none;stroke-opacity:1" />
    <path
       style="fill:none;fill-rule:evenodd;stroke:#000000;stroke-width:140;stroke-linecap:round;stroke-linejoin:round;stroke-miterlimit:4;stroke-dasharray:none;stroke-opacity:1"
       d="m 1569.0757,304.33355 4,102 c 1.3667,34.85165 2.3238,69.97329 -3.3715,104.3836 -5.6952,34.41031 -18.0994,67.93067 -38.0959,96.50766 -19.9965,28.57699 -47.3654,51.90114 -78.6395,67.3426 -31.274,15.44147 -66.1876,23.05781 -101.0622,23.57664 -42.2239,0.62817 -84.6292,-9.12553 -122.0765,-28.64356 -37.4473,-19.51804 -69.6794,-48.76003 -93.2629,-83.78963 -23.5835,-35.0296 -38.3849,-75.5369 -45.9611,-117.08031 -7.5762,-41.54342 -7.9957,-84.0163 -8.0213,-126.24489 l -0.17,-280.90607 c -0.046,-76.328321 0.889,-153.260424 16.9146,-227.88745 16.0257,-74.62702 47.2614,-146.4869 94.9223,-206.10615 47.6609,-59.61926 111.1553,-106.29456 181.9511,-134.82477 70.7958,-28.5302 148.2791,-39.12659 224.4675,-34.50717 99.7107,6.04562 199.3274,38.87907 276.3462,102.4942 77.0188,63.61513 129.2874,159.56761 130.1437,259.4578 0.5394,62.91864 -19.2131,125.853794 -55.6089,177.1801749 -36.3957,51.3263811 -89.2525,90.7871301 -148.8068,111.0931251 71.0501,9.97212 138.0523,46.52864 184.8908,100.87671 46.8385,54.34807 73.1038,126.01264 72.4785,197.75639 -0.7037,80.72845 -35.7796,160.59535 -94.7468,215.73563 -58.9672,55.14027 -141.0047,84.78631 -221.5989,80.07957"
       id="path4160-0-5-3-6"
       inkscape:path-effect="#path-effect4162-3-9-2-7"
       inkscape:original-d="m 1569.0757,304.33355 4,102 c 3.1032,79.13169 -99.1176,291.84481 -221.1691,291.8105 -148.7348,-0.0418 -264.8759,-197.13446 -269.3218,-355.75839 l -0.17,-280.90607 c -0.1681,-277.64662 253.7282,-585.62915 518.2555,-603.32554 181.0228,-12.1101 385.9887,181.68658 406.4899,361.952 13.3111,117.043491 -204.4157,288.2733 -204.4157,288.2733 0,0 264.4361,167.41182 257.3693,298.6331 -7.7636,144.15993 -69.018,294.33266 -316.3457,295.8152"
       inkscape:connector-curvature="0"
       sodipodi:nodetypes="csacsaacac" />
    <path
       sodipodi:nodetypes="caccc"
       inkscape:connector-curvature="0"
       inkscape:original-d="m -2440.0812,367.57711 c 0,0 -115.6097,-588.22643 85.0735,-597.26442 204.3959,-9.20525 140.8618,598.06762 140.8618,598.06762 l 1217.80731,2.83741 4.95996,-603.37118"
       inkscape:path-effect="#path-effect4141-5-7-7-8-7-2-1-1"
       id="path4139-0-3-8-3-8-9-0-1"
       d="m -2440.0812,367.57711 c -64.2256,-25.38143 -119.4644,-72.89308 -154.166,-132.6003 -34.7015,-59.70723 -48.6404,-131.22217 -38.902,-199.591121 9.7384,-68.368954 43.0907,-133.147793 93.0832,-180.791329 49.9924,-47.64353 116.3001,-77.84226 185.0583,-84.28167 73.7473,-6.90665 149.7531,13.70658 209.9055,56.92761 60.1523,43.22103 103.9357,108.67948 120.9167,180.776712 16.9809,72.097232 7.0138,150.215428 -27.5261,215.739148 -34.5398,65.52373 -93.3566,117.89149 -162.4343,144.62415 l 1217.80731,2.83741 4.95996,-603.37118"
       style="fill:none;fill-rule:evenodd;stroke:#000000;stroke-width:69.99999237;stroke-linecap:round;stroke-linejoin:round;stroke-miterlimit:4;stroke-dasharray:none;stroke-opacity:1" />
    <path
       style="fill:none;fill-rule:evenodd;stroke:#000000;stroke-width:69.99999237;stroke-linecap:round;stroke-linejoin:round;stroke-miterlimit:4;stroke-dasharray:none;stroke-opacity:1"
       d="m -997.2685,339.59916 c 6.2471,68.30858 -2.44806,137.94448 -25.3003,202.61954 -25.7039,72.74576 -70.0083,139.7713 -131.1026,186.88951 -61.0943,47.11821 -139.4386,73.21493 -216.2337,65.78844 -50.1585,-4.8506 -98.5888,-23.67746 -140.3004,-51.95381 -41.7116,-28.27636 -76.8007,-65.82157 -104.3405,-108.02313 -55.0794,-84.40311 -79.4266,-185.55542 -88.6687,-285.91584 -19.8315,-215.35043 29.2317,-440.514853 157.1453,-614.89147 63.9568,-87.18831 146.883,-160.81507 242.5478,-211.21872 95.6647,-50.40364 204.0639,-77.24609 312.15081,-74.16561 109.47373,3.12001 219.28597,37.87452 304.99758,106.04895 85.71161,68.17443 145.39822,170.89207 153.03224,280.14386 5.89163,84.316123 -20.24887,171.8241408 -77.09817,234.370741 -47.27781,52.015879 -114.71989,85.213169 -184.77627,90.953169 72.5349,-13.8769 149.74133,-1.92309 214.68352,33.23927 64.9422,35.16236 117.15335,93.28052 145.18059,161.60588 38.64151,94.20105 29.12421,207.06497 -25.98455,292.68055 -42.07043,65.35956 -109.3875,114.00307 -184.64998,133.42863 -75.26248,19.42555 -157.71258,9.43755 -226.15972,-27.39698"
       id="path4160-0-5-3-6-9"
       inkscape:path-effect="#path-effect4162-3-9-2-7-6"
       inkscape:original-d="m -997.2685,339.59916 c 0,0 9.26945,144.00836 -25.3003,202.61954 -72.7677,123.37356 -205.8222,274.08565 -347.3363,252.67795 -183.3575,-27.73756 -335.8263,-260.27152 -333.3096,-445.89278 5.1884,-382.68993 331.4631,-861.82885 711.84391,-900.2758 198.60561,-20.07411 403.56675,193.94488 458.02982,386.19281 22.4172,79.129993 -23.17115,172.3158714 -77.09817,234.370741 -45.04842,51.837989 -184.77627,90.953169 -184.77627,90.953169 0,0 295.30011,74.59184 359.86411,194.84515 46.31985,86.273 37.31105,217.993 -25.98455,292.68055 -91.4858,107.95126 -410.8097,106.03165 -410.8097,106.03165"
       inkscape:connector-curvature="0"
       sodipodi:nodetypes="caaaaaacaac" />
    <path
       style="color:#000000;font-style:normal;font-variant:normal;font-weight:normal;font-stretch:normal;font-size:medium;line-height:normal;font-family:sans-serif;text-indent:0;text-align:start;text-decoration:none;text-decoration-line:none;text-decoration-style:solid;text-decoration-color:#000000;letter-spacing:normal;word-spacing:normal;text-transform:none;direction:ltr;block-progression:tb;writing-mode:lr-tb;baseline-shift:baseline;text-anchor:start;white-space:normal;clip-rule:nonzero;display:inline;overflow:visible;visibility:visible;opacity:1;isolation:auto;mix-blend-mode:normal;color-interpolation:sRGB;color-interpolation-filters:linearRGB;solid-color:#000000;solid-opacity:1;fill:#000000;fill-opacity:1;fill-rule:evenodd;stroke:none;stroke-width:69.99999237;stroke-linecap:round;stroke-linejoin:round;stroke-miterlimit:4;stroke-dasharray:none;stroke-dashoffset:0;stroke-opacity:1;color-rendering:auto;image-rendering:auto;shape-rendering:auto;text-rendering:auto;enable-background:accumulate"
       d="M -1875.8418 1949.498 C -1983.1297 1950.1177 -2089.3571 1978.1489 -2183.8359 2027.9277 C -2284.5567 2080.9953 -2371.3582 2158.1649 -2438.291 2249.4102 C -2568.6329 2427.0971 -2619.8448 2653.063 -2603.5352 2870.4863 L -2957.2832 2869.6621 C -2928.0633 2842.9469 -2903.3265 2811.3185 -2884.75 2776.0781 C -2846.1542 2702.8601 -2835.1421 2616.5556 -2854.1172 2535.9922 C -2873.0921 2455.4288 -2921.4639 2383.1127 -2988.6797 2334.8164 C -3055.8956 2286.5201 -3139.8642 2263.7471 -3222.2715 2271.4648 C -3299.0644 2278.6567 -3372.3786 2312.0468 -3428.2129 2365.2578 C -3484.0473 2418.4687 -3520.9225 2490.091 -3531.7988 2566.4492 C -3542.6752 2642.8074 -3527.2644 2721.8801 -3488.5078 2788.5645 C -3449.7512 2855.2487 -3388.676 2907.7796 -3316.9453 2936.127 A 35.003496 35.003496 0 1 0 -3291.2168 2871.0273 C -3347.9373 2848.6119 -3397.3398 2806.1188 -3427.9863 2753.3887 C -3458.6328 2700.6586 -3471.0985 2636.6999 -3462.498 2576.3203 C -3453.8976 2515.9405 -3424.0705 2458.0077 -3379.9199 2415.9316 C -3335.7694 2373.8555 -3276.4676 2346.8471 -3215.7441 2341.1602 C -3150.6568 2335.0645 -3082.6143 2353.5183 -3029.5254 2391.6641 C -2976.4366 2429.8097 -2937.2408 2488.41 -2922.2539 2552.041 C -2907.2669 2615.672 -2916.1898 2685.606 -2946.6738 2743.4355 C -2977.1578 2801.265 -3029.8112 2848.1467 -3090.7773 2871.7402 A 35.003496 35.003496 0 0 0 -3078.2266 2939.3809 L -2595.8555 2940.5039 C -2583.1119 3027.3522 -2557.3941 3114.1373 -2507.8574 3190.0469 C -2478.0739 3235.6867 -2439.9199 3276.6788 -2393.8438 3307.9141 C -2347.6894 3339.2021 -2293.9201 3360.2563 -2237.2734 3365.7344 C -2150.389 3374.1366 -2063.9004 3344.9606 -1996.2969 3292.8223 C -1928.9719 3240.8988 -1881.2313 3168.1691 -1853.5684 3089.8789 C -1830.8553 3025.5978 -1821.1955 2956.9499 -1825.1875 2888.9238 L -1820.3789 2304.1348 A 35.003496 35.003496 0 0 0 -1855.6133 2268.3496 A 35.003496 35.003496 0 0 0 -1890.377 2303.5586 L -1894.998 2865.6328 A 35.003496 35.003496 0 0 0 -1896.1641 2872.1348 L -2533.3164 2870.6504 C -2549.7708 2666.1832 -2501.6093 2454.0782 -2381.8477 2290.8145 C -2320.8669 2207.6832 -2241.8158 2137.5992 -2151.207 2089.8594 C -2060.6551 2042.1495 -1958.0004 2016.8163 -1856.3672 2019.7129 C -1753.6258 2022.641 -1651.009 2055.4521 -1572.1602 2118.168 C -1493.6576 2180.6083 -1439.1119 2275.2425 -1432.2559 2373.3613 C -1426.9834 2448.8162 -1450.8275 2527.2756 -1500.3398 2581.75 C -1535.18 2620.0818 -1583.3558 2646.9597 -1634.3164 2657.332 C -1644.8555 2658.3773 -1655.3616 2659.8735 -1665.793 2661.8691 A 35.003496 35.003496 0 0 0 -1656.3574 2731.127 C -1645.6044 2730.2459 -1634.9348 2728.7547 -1624.373 2726.7695 C -1568.3737 2721.906 -1510.4917 2733.5717 -1461.1973 2760.2617 C -1403.548 2791.4753 -1356.6122 2843.7205 -1331.7324 2904.373 C -1297.582 2987.6255 -1306.2411 3089.4398 -1354.7656 3164.8262 C -1391.9168 3222.5434 -1452.2702 3266.1564 -1518.7324 3283.3105 C -1585.1947 3300.4648 -1659.1148 3291.51 -1719.5586 3258.9824 A 35.003496 35.003496 0 1 0 -1752.7305 3320.623 C -1676.28 3361.7645 -1585.301 3372.7849 -1501.2383 3351.0879 C -1417.1755 3329.391 -1342.8959 3275.7168 -1295.9062 3202.7148 C -1234.2132 3106.87 -1223.836 2982.9561 -1266.9688 2877.8066 C -1298.1434 2801.8084 -1355.6321 2737.8161 -1427.8672 2698.7051 C -1449.3744 2687.0602 -1472.031 2677.7731 -1495.3516 2670.7988 C -1478.4496 2658.4331 -1462.7108 2644.4241 -1448.5391 2628.832 C -1384.3528 2558.2132 -1355.915 2461.6578 -1362.4258 2368.4805 C -1370.8377 2248.0957 -1435.6653 2137.2932 -1528.5859 2063.3848 C -1621.1603 1989.7517 -1738.167 1953.0541 -1854.373 1949.7422 C -1861.5318 1949.5382 -1868.6893 1949.4567 -1875.8418 1949.498 z M -2524.9727 2940.6699 L -1894.9336 2942.1367 C -1897.1699 2984.5132 -1905.4526 3026.6089 -1919.5684 3066.5586 C -1943.3132 3133.76 -1984.1832 3195.0797 -2039.0469 3237.3926 C -2093.632 3279.4906 -2163.8294 3302.5094 -2230.5352 3296.0586 C -2274.2055 3291.8354 -2317.2975 3275.2373 -2354.5664 3249.9727 C -2391.9133 3224.6551 -2423.9383 3190.5562 -2449.2344 3151.793 C -2489.5829 3089.9631 -2512.713 3016.8336 -2524.9727 2940.6699 z "
       transform="translate(0,-1048)"
       id="path4139-0-3-8-3-8-9-0-1-5" />
    <path
       style="color:#000000;font-style:normal;font-variant:normal;font-weight:normal;font-stretch:normal;font-size:medium;line-height:normal;font-family:sans-serif;text-indent:0;text-align:start;text-decoration:none;text-decoration-line:none;text-decoration-style:solid;text-decoration-color:#000000;letter-spacing:normal;word-spacing:normal;text-transform:none;direction:ltr;block-progression:tb;writing-mode:lr-tb;baseline-shift:baseline;text-anchor:start;white-space:normal;clip-rule:nonzero;display:inline;overflow:visible;visibility:visible;opacity:1;isolation:auto;mix-blend-mode:normal;color-interpolation:sRGB;color-interpolation-filters:linearRGB;solid-color:#000000;solid-opacity:1;fill:#000000;fill-opacity:1;fill-rule:evenodd;stroke:none;stroke-width:140;stroke-linecap:round;stroke-linejoin:round;stroke-miterlimit:4;stroke-dasharray:none;stroke-dashoffset:0;stroke-opacity:1;color-rendering:auto;image-rendering:auto;shape-rendering:auto;text-rendering:auto;enable-background:accumulate"
       d="m 1617.7031,1893.1055 c -72.8873,0.059 -146.4582,12.7386 -215.666,40.6289 -81.8872,32.9999 -154.993,86.6578 -210.4609,156.0429 -55.4767,69.3962 -90.6764,151.2535 -108.6856,235.1172 -17.9817,83.7359 -18.521,165.6987 -18.4746,242.627 l 0.1211,201.3164 -275.45116,-0.7207 c 7.65407,-11.237 14.76947,-22.8776 21.14648,-34.9844 40.81505,-77.4873 52.3231,-167.879 32.22461,-253.1211 -20.09847,-85.2421 -70.77455,-160.97 -141.90625,-212.0625 -71.13172,-51.0925 -159.07819,-74.9336 -246.27539,-66.7597 -81.21385,7.6129 -158.04863,42.608 -217.09961,98.8808 -59.05099,56.2729 -97.70598,131.333 -109.2207,212.0859 -11.51472,80.7531 4.62063,163.6253 45.58984,234.1602 40.96925,70.5349 104.95935,125.6103 180.8086,155.6191 36.10347,14.8702 77.39355,-2.6685 91.75846,-38.976 14.3649,-36.3074 -3.74821,-77.3487 -40.2526,-91.2056 C 360.02021,2753.6182 319.365,2718.6273 294.60547,2676 c -24.75957,-42.6275 -35.00964,-95.2774 -28.05078,-144.0801 6.95885,-48.8026 31.51601,-96.4899 67.20312,-130.498 35.68712,-34.0082 84.50281,-56.2429 133.58399,-60.8438 52.56174,-4.9271 108.65753,10.28 151.53515,41.0781 42.87767,30.7982 75.2012,79.1011 87.31641,130.4844 12.11519,51.3832 4.77481,109.0394 -19.82813,155.7481 -24.60296,46.7088 -67.99808,85.3726 -117.22461,104.4453 -31.37379,12.1753 -49.64512,44.9512 -43.50414,78.0395 6.14097,33.0884 34.95637,57.1253 68.60961,57.232 l 471.26371,1.2343 c 1.0505,25.1724 3.3123,51.3601 8.2343,78.3497 9.0223,49.473 26.7904,99.1031 56.7579,143.6152 30.0059,44.5691 70.7165,81.6159 118.9765,106.7695 48.1784,25.1113 101.7733,37.3614 155.4707,36.5625 44.3681,-0.66 89.3869,-10.2507 131.0117,-30.8027 41.8278,-20.6524 78.0618,-51.4763 105.002,-89.9766 26.942,-38.5027 42.6316,-81.8703 49.8047,-125.209 7.1542,-43.2263 5.6445,-83.1441 4.2558,-118.5566 -7.0984,-213.1345 -0.4269,-427.158 1.3282,-640.4688 0.8822,-39.454 -31.0039,-71.8394 -70.4668,-71.5703 -38.6372,0.264 -69.7551,31.7805 -69.5274,70.418 l -4.1328,502.1426 -347.6875,-0.9102 -0.1211,-201.7636 c -0.046,-75.7283 1.286,-147.6304 15.3555,-213.1485 14.0422,-65.3905 41.3131,-127.2512 81.1582,-177.0937 39.8539,-49.8534 93.735,-89.5471 153.4394,-113.6075 59.9456,-24.1576 127.1946,-33.617 194.0664,-29.5625 87.2396,5.2895 172.7187,34.3206 236.0059,86.5938 62.3614,51.5086 104.0724,130.2296 104.7227,206.0879 0.4104,47.8697 -15.0204,97.0378 -42.711,136.0879 -27.6906,39.0501 -68.9867,69.8809 -114.2969,85.3301 -30.6603,10.4695 -50.1313,40.609 -47.0715,72.8627 3.0597,32.2536 27.8509,58.1941 59.9329,62.7115 53.7303,7.5412 106.173,36.1561 141.5937,77.2558 35.4207,41.0997 55.9807,97.1924 55.5078,151.4473 -0.5305,60.8568 -28.1084,123.6497 -72.5605,165.2168 -44.4521,41.5673 -108.9514,64.8762 -169.707,61.3281 -38.9506,-2.8312 -72.6863,26.7544 -74.9632,65.7413 -2.2768,38.9869 27.7857,72.2984 66.8011,74.0204 100.4328,5.8653 200.008,-30.1187 273.4902,-98.832 73.4824,-68.7133 116.0567,-165.6538 116.9336,-266.2539 0.7778,-89.2326 -31.195,-176.468 -89.4512,-244.0645 -23.4961,-27.2632 -50.8306,-50.6931 -80.8262,-69.8515 18.0211,-16.9072 34.4143,-35.6165 48.8184,-55.9297 45.101,-63.6026 69.1743,-140.304 68.5059,-218.2715 -1.0623,-123.9221 -63.8884,-237.1064 -155.5645,-312.8281 -90.7505,-74.9571 -204.5057,-111.5928 -316.6875,-118.3945 -10.6881,-0.6481 -21.4112,-1.0335 -32.1523,-1.1446 l -0,-0 c -2.3496,-0.024 -4.6996,-0.035 -7.0508,-0.033 z m -411.916,1016.1015 349.1484,0.9141 0.1954,4.957 c 1.3447,34.2903 1.7517,64.6175 -2.4844,90.211 -4.2173,25.4813 -13.3381,49.1539 -26.3887,67.8047 -13.0528,18.6537 -31.5569,34.4783 -52.2773,44.7089 -20.9232,10.3307 -45.7322,15.9741 -71.1133,16.3516 -30.7504,0.4575 -61.9655,-6.8017 -88.6817,-20.7266 -26.6348,-13.8824 -50.3878,-35.3185 -67.5488,-60.8086 -17.1995,-25.5471 -29.0339,-56.9312 -35.164,-90.5449 -3.0212,-16.5666 -4.7259,-34.2304 -5.6856,-52.8672 z"
       transform="translate(0,-1048)"
       id="path4139-0-3-8-3-8-9-0-4"
       inkscape:connector-curvature="0"
       sodipodi:nodetypes="sssssccssssssscscssssssscsccsssssssccccccsssssssscscssscscssscssssccscccsssssssc" />
  </g>
</svg>
