<?xml version="1.0" encoding="UTF-8" standalone="no"?>
<!-- Created with Inkscape (http://www.inkscape.org/) -->

<svg
   xmlns:dc="http://purl.org/dc/elements/1.1/"
   xmlns:cc="http://creativecommons.org/ns#"
   xmlns:rdf="http://www.w3.org/1999/02/22-rdf-syntax-ns#"
   xmlns:svg="http://www.w3.org/2000/svg"
   xmlns="http://www.w3.org/2000/svg"
   xmlns:sodipodi="http://sodipodi.sourceforge.net/DTD/sodipodi-0.dtd"
   xmlns:inkscape="http://www.inkscape.org/namespaces/inkscape"
   width="2000"
   height="2048"
   id="svg2992"
   version="1.1"
   inkscape:version="0.91 r13725"
   sodipodi:docname="ഒ.svg">
  <defs
     id="defs5498">
    <inkscape:path-effect
       effect="spiro"
       id="path-effect4142"
       is_visible="true" />
    <inkscape:path-effect
       effect="spiro"
       id="path-effect4142-8"
       is_visible="true" />
    <inkscape:path-effect
       effect="spiro"
       id="path-effect4142-8-0"
       is_visible="true" />
    <inkscape:path-effect
       effect="spiro"
       id="path-effect4142-8-0-1"
       is_visible="true" />
    <inkscape:path-effect
       effect="spiro"
       id="path-effect4142-8-0-1-7"
       is_visible="true" />
    <inkscape:path-effect
       effect="spiro"
       id="path-effect4142-8-0-1-7-8"
       is_visible="true" />
    <inkscape:path-effect
       effect="spiro"
       id="path-effect4142-8-0-1-7-9"
       is_visible="true" />
    <inkscape:path-effect
       effect="spiro"
       id="path-effect4142-8-0-1-7-9-1"
       is_visible="true" />
    <inkscape:path-effect
       effect="spiro"
       id="path-effect4142-8-0-1-7-9-2"
       is_visible="true" />
    <inkscape:path-effect
       effect="spiro"
       id="path-effect4142-8-0-1-7-9-2-9"
       is_visible="true" />
    <inkscape:path-effect
       effect="spiro"
       id="path-effect4142-8-0-1-7-1"
       is_visible="true" />
    <inkscape:path-effect
       effect="spiro"
       id="path-effect4372-5-0-7-0-2-7-35"
       is_visible="true" />
    <inkscape:path-effect
       effect="spiro"
       id="path-effect4372-5-0-7-0-2-7-35-9"
       is_visible="true" />
  </defs>
  <sodipodi:namedview
     inkscape:window-height="851"
     inkscape:window-width="1600"
     inkscape:pageshadow="2"
     inkscape:pageopacity="0.0"
     borderopacity="1.0"
     bordercolor="#666666"
     pagecolor="#ffffff"
     id="base"
     showgrid="true"
     showguides="true"
     inkscape:guide-bbox="true"
     inkscape:zoom="0.70710678"
     inkscape:cx="236.93959"
     inkscape:cy="-445.63823"
     inkscape:window-x="1599"
     inkscape:window-y="-1"
     inkscape:current-layer="layer1"
     inkscape:window-maximized="1">
    <sodipodi:guide
       orientation="horizontal"
       position="0,600"
       id="guide5596" />
    <inkscape:grid
       type="xygrid"
       id="grid3769"
       empspacing="3"
       visible="true"
       enabled="true"
       snapvisiblegridlinesonly="true"
       spacingx="4px"
       units="px"
       dotted="true"
       spacingy="4px" />
    <sodipodi:guide
       orientation="0,1"
       position="-1040,1600"
       id="guide2985" />
  </sodipodi:namedview>
  <metadata
     id="metadata5594">
    <rdf:RDF>
      <cc:Work
         rdf:about="">
        <dc:format>image/svg+xml</dc:format>
        <dc:type
           rdf:resource="http://purl.org/dc/dcmitype/StillImage" />
        <dc:title />
      </cc:Work>
    </rdf:RDF>
  </metadata>
  <g
     inkscape:label="Layer 1"
     inkscape:groupmode="layer"
     id="layer1"
     transform="translate(0,1048)">
    <path
       style="fill:none;fill-rule:evenodd;stroke:#000000;stroke-width:140;stroke-linecap:round;stroke-linejoin:round;stroke-miterlimit:4;stroke-dasharray:none;stroke-opacity:1"
       d="m -1059.2166,210.47622 c -17.5394,-48.30627 -17.3459,-102.83298 0.536,-151.013517 17.882,-48.18054 53.3095,-89.630344 98.11787,-114.796607 44.80833,-25.166263 98.63978,-33.84811 149.08797,-24.044664 50.44819,9.803447 97.11046,38.013936 129.2327,78.129887 27.79178,34.707846 44.6459,78.072901 47.4376,122.448841 2.7917,44.37594 -8.51502,89.55532 -32.00673,127.30657 -23.49171,37.75125 -59.07257,67.87604 -100.23807,84.68136 -41.16551,16.80532 -87.71258,20.18243 -130.8367,9.35062 -45.62896,-11.46097 -86.60056,-38.35483 -118.62434,-72.81981 -32.0237,-34.46498 -55.4546,-76.269 -72.4297,-120.14611 -45.8886,-118.612497 -44.3809,-254.80172 4.018,-372.41224 38.0983,-92.57964 104.41931,-173.15351 187.32413,-229.27177 82.90481,-56.11825 182.01886,-87.70761 282.07571,-91.03825 50.79369,-1.6908 102.05981,3.80695 150.53336,19.07696 48.47354,15.27002 94.11815,40.49876 130.88116,75.5892 36.76301,35.09045 64.38473,80.22681 76.1306,129.67266 11.74586,49.44586 7.11419,103.09624 -15.48054,148.61916 -28.51612,57.4531 -85.84269,99.673223 -149.16916,109.860764 61.88928,-7.198546 126.58512,15.723226 170.13753,60.27982443 43.5524,44.55659757 64.99372,109.75805157 56.3865,171.46719157 -8.09291,58.02184 -42.42558,111.86778 -91.61542,143.68584 -49.18984,31.81806 -112.37869,41.05314 -168.61704,24.64347"
       id="path4140-6-2-2-7"
       inkscape:path-effect="#path-effect4142-8-0-1-7"
       inkscape:original-d="m -1059.2166,210.47622 c 0,0 277.56596,-316.07402 376.97454,-211.724901 93.30659,97.943854 -81.18872,328.923961 -215.6439,343.787391 -89.96745,9.94551 -157.07564,-109.07003 -191.05404,-192.96592 -46.6024,-115.065661 -54.5599,-262.9567 4.018,-372.41224 89.38045,-167.0113 281.2241,-342.02456 469.39984,-320.31002 167.57762,19.33762 358.38357,205.05951 342.06458,372.95798 -5.97397,61.46329 -56.8812,96.463729 -149.16916,109.860764 103.36922,14.554022 238.52443,124.393121 226.52403,231.747016 -11.47682,102.67004 -126.88758,180.40123 -260.23246,168.32931"
       inkscape:connector-curvature="0"
       sodipodi:nodetypes="caaaaaacac" />
    <path
       style="fill:none;fill-rule:evenodd;stroke:#000000;stroke-width:70;stroke-linecap:round;stroke-linejoin:round;stroke-miterlimit:4;stroke-dasharray:none;stroke-opacity:1"
       d="m -2257.5298,1214.6754 c -14.427,-51.0165 -10.3301,-107.0595 11.3629,-155.4355 21.693,-48.3761 60.8151,-88.71292 108.5054,-111.87451 47.6903,-23.1616 103.5819,-28.96974 155.0156,-16.10891 51.4337,12.86082 98.0138,44.29168 129.1901,87.17362 26.3771,36.2807 41.7066,80.5112 43.2748,125.3395 1.5681,44.8284 -10.6553,90.0683 -34.7247,127.9194 -24.0694,37.851 -59.8994,68.1341 -101.2953,85.409 -41.3958,17.2749 -88.1759,21.4391 -131.9366,11.5883 -48.9556,-11.0202 -93.2169,-39.1485 -127.4129,-75.8736 -34.1961,-36.725 -58.7033,-81.7514 -75.4106,-129.0691 -32.3299,-91.5634 -35.8562,-192.54451 -13.5068,-287.04098 22.3494,-94.49648 70.1193,-182.40141 134.5487,-255.05083 81.7832,-92.21728 191.5832,-160.40486 311.8931,-187.20106 120.3099,-26.7962 250.6239,-10.99861 358.4027,48.80313 38.9975,21.63799 75.1507,48.98567 104.0769,82.93092 28.9262,33.94525 50.4518,74.68883 58.9378,118.47229 10.9177,56.32951 -0.6613,116.70001 -31.6452,164.99288 -30.984,48.29287 -81.0346,83.98053 -136.7885,97.53455 61.1335,-11.21862 126.7743,4.97463 175.6761,43.33842 48.9018,38.36378 80.2549,98.26298 83.9113,160.30968 2.2973,38.9847 -6.016,78.5432 -23.8115,113.3053 -17.7955,34.7622 -45.0262,64.6364 -77.9956,85.5673 -32.9695,20.9309 -71.5907,32.8634 -110.6209,34.1775 -39.0303,1.3141 -78.3667,-7.9935 -112.6693,-26.6594"
       id="path4140-6-2-2-7-8-9"
       inkscape:path-effect="#path-effect4142-8-0-1-7-9-2"
       inkscape:original-d="m -2257.5298,1214.6754 c 0,0 304.6359,-308.19595 404.074,-196.2453 92.1151,103.7061 -86.7785,335.7263 -224.6818,350.2562 -95.5629,10.0688 -176.2383,-112.5616 -202.8235,-204.9427 -51.2023,-177.92371 -10.8813,-412.23849 121.0419,-542.09181 162.6253,-160.07368 455.4678,-215.2243 670.2958,-138.39793 81.308,29.07723 158.2671,115.14954 163.0147,201.40321 5.7149,103.82742 -81.6721,223.53663 -168.4337,262.52743 23.5546,30.34555 265.0584,93.7758 259.5874,203.6481 -6.3858,128.2404 -183.538,219.2119 -325.0973,206.3907"
       inkscape:connector-curvature="0"
       sodipodi:nodetypes="caaaaaacac" />
    <path
       style="color:#000000;font-style:normal;font-variant:normal;font-weight:normal;font-stretch:normal;font-size:medium;line-height:normal;font-family:sans-serif;text-indent:0;text-align:start;text-decoration:none;text-decoration-line:none;text-decoration-style:solid;text-decoration-color:#000000;letter-spacing:normal;word-spacing:normal;text-transform:none;direction:ltr;block-progression:tb;writing-mode:lr-tb;baseline-shift:baseline;text-anchor:start;white-space:normal;clip-rule:nonzero;display:inline;overflow:visible;visibility:visible;opacity:1;isolation:auto;mix-blend-mode:normal;color-interpolation:sRGB;color-interpolation-filters:linearRGB;solid-color:#000000;solid-opacity:1;fill:#000000;fill-opacity:1;fill-rule:evenodd;stroke:none;stroke-width:70;stroke-linecap:round;stroke-linejoin:round;stroke-miterlimit:4;stroke-dasharray:none;stroke-dashoffset:0;stroke-opacity:1;color-rendering:auto;image-rendering:auto;shape-rendering:auto;text-rendering:auto;enable-background:accumulate"
       d="m -2213.2695,-669.19922 c -41.1196,0.0289 -82.2422,4.54985 -122.3653,13.48633 -128.1973,28.55294 -244.0519,100.69836 -330.4707,198.14258 -68.0305,76.70996 -118.6204,169.58075 -142.4218,270.21679 -23.8247,100.733874 -20.1912,208.322062 14.5625,306.75 17.964,50.87702 44.5633,100.20438 82.7988,141.26758 38.3865,41.22549 88.3472,73.33813 145.3418,86.16797 51.036,11.48852 104.9018,6.68069 153.1015,-13.43359 48.188,-20.10931 89.3786,-54.93789 117.3516,-98.92774 27.9663,-43.97927 41.987,-95.92263 40.168,-147.923825 -1.8187,-51.988343 -19.4036,-102.690331 -49.9434,-144.697266 l 0,-0.002 c -36.1434,-49.713406 -89.382,-85.635186 -149.0097,-100.544926 -59.6283,-14.90985 -123.5065,-8.2717 -178.795,18.58008 -51.3482,24.93813 -93.5488,66.495373 -119.4531,117.216799 -3.5552,-49.549279 0.531,-99.865739 11.9961,-148.341799 20.8973,-88.35691 65.8455,-171.29393 126.6738,-239.88281 77.1477,-86.99035 180.894,-151.22226 293.3164,-176.26172 112.2259,-24.99568 234.2129,-10.01739 333.8125,45.2461 36.0821,20.02037 68.8124,44.97464 94.42,75.02539 25.5185,29.94627 44.0627,65.52045 51.2167,102.43164 9.1493,47.20522 -0.7789,98.96315 -26.7441,139.43359 -25.9652,40.4704 -68.8748,71.06724 -115.5976,82.42578 a 35.0035,35.0035 0 0 0 14.5859,68.433595 c 50.8777,-9.336573 107.0579,4.523326 147.7558,36.451172 40.698,31.9278372 67.5313,83.192315 70.5743,134.830078 1.9238,32.646805 -5.125,66.188185 -20.0274,95.298825 -14.9024,29.11071 -37.9902,54.43875 -65.5996,71.9668 -27.6095,17.52809 -60.3542,27.64561 -93.039,28.74609 -32.685,1.1005 -66.0379,-6.7906 -94.7637,-22.42187 a 35.0035,35.0035 0 1 0 -33.457,61.48633 c 39.8793,21.70051 85.2005,32.42427 130.5761,30.89648 45.3756,-1.52777 89.8717,-15.27565 128.2012,-39.60937 38.3294,-24.33377 69.704,-58.7544 90.3926,-99.16797 20.6886,-40.41364 30.2665,-85.98988 27.5957,-131.312502 -4.2698,-72.455691 -40.1425,-140.987369 -97.2481,-185.78711 -23.1017,-18.123498 -49.1755,-31.865558 -76.7304,-41.035158 17.4758,-15.60291 32.9403,-33.51394 45.6992,-53.40039 36.0026,-56.1153 49.233,-125.09894 36.5469,-190.55273 -9.818,-50.65574 -34.3243,-96.56945 -66.6582,-134.51367 -32.2449,-37.83976 -71.8235,-67.58033 -113.7364,-90.83594 -79.7211,-44.23375 -170.164,-65.91132 -260.6269,-65.84766 z m -307.8203,572.839845 c 16.8686,-0.318103 33.7384,1.515892 49.9531,5.570313 43.2391,10.811796 83.1619,37.750964 109.3711,73.800781 22.2138,30.55422 35.2877,68.314639 36.6054,105.982422 1.3172,37.655479 -9.1068,76.191199 -29.2793,107.914059 -20.1657,31.7123 -50.6363,57.44815 -85.2402,71.88868 -34.5918,14.43555 -74.2861,17.95722 -110.7715,9.74414 -40.9165,-9.21058 -79.4788,-33.35543 -109.4843,-65.58008 -16.7913,-18.03302 -31.0975,-38.71247 -43.2227,-61 a 35.0035,35.0035 0 0 0 -0.6914,-2.81055 c -12.1285,-42.88841 -8.6177,-90.921296 9.6191,-131.589843 18.2368,-40.668591 51.7673,-75.239534 91.8594,-94.710938 25.0576,-12.169624 53.1668,-18.678812 81.2813,-19.208984 z"
       id="path4140-6-2-2-7-8-9-2"
       inkscape:connector-curvature="0" />
    <path
       style="color:#000000;font-style:normal;font-variant:normal;font-weight:normal;font-stretch:normal;font-size:medium;line-height:normal;font-family:sans-serif;text-indent:0;text-align:start;text-decoration:none;text-decoration-line:none;text-decoration-style:solid;text-decoration-color:#000000;letter-spacing:normal;word-spacing:normal;text-transform:none;direction:ltr;block-progression:tb;writing-mode:lr-tb;baseline-shift:baseline;text-anchor:start;white-space:normal;clip-rule:nonzero;display:inline;overflow:visible;visibility:visible;opacity:1;isolation:auto;mix-blend-mode:normal;color-interpolation:sRGB;color-interpolation-filters:linearRGB;solid-color:#000000;solid-opacity:1;fill:#000000;fill-opacity:1;fill-rule:evenodd;stroke:none;stroke-width:140;stroke-linecap:round;stroke-linejoin:round;stroke-miterlimit:4;stroke-dasharray:none;stroke-dashoffset:0;stroke-opacity:1;color-rendering:auto;image-rendering:auto;shape-rendering:auto;text-rendering:auto;enable-background:accumulate"
       d="m -504.25195,634.5566 c -7.22217,-0.019 -14.42441,0.093 -21.59961,0.3321 -113.22949,3.7691 -224.73092,39.2311 -318.98438,103.0312 -94.31108,63.8392 -169.27976,154.8019 -212.81836,260.6016 -55.4414,134.7238 -57.151,288.3985 -4.5703,424.3086 19.3977,50.139 46.7866,99.8677 86.43358,142.5371 39.92927,42.9731 91.73123,77.7104 152.85157,93.0625 58.00083,14.5685 119.12547,10.1102 174.34765,-12.4336 55.19895,-22.5343 101.79529,-62.0177 133.21289,-112.5059 31.40462,-50.4673 46.15778,-109.5181 42.43555,-168.6855 -3.72072,-59.1434 -25.71573,-115.6709 -62.6582,-161.8067 -42.78767,-53.4355 -103.32121,-90.0333 -170.51953,-103.0917 -67.19833,-13.0585 -137.03482,-1.7956 -196.72071,31.7265 -20.0138,11.2406 -38.43892,24.8052 -55.04882,40.2285 4.15058,-41.342 14.04138,-82.0088 29.70117,-120.0625 32.65794,-79.3595 90.33152,-149.544 161.83007,-197.9414 71.55617,-48.4363 158.28181,-76.1527 245.16602,-79.0449 44.18575,-1.4708 87.59639,3.4139 127.17188,15.8809 39.41015,12.4149 75.6307,32.7793 103.58203,59.4589 27.74371,26.4815 48.10092,60.458 56.35742,95.2149 8.15806,34.3425 4.47484,72.0035 -10.07617,101.3203 -17.97791,36.2212 -57.66193,65.4484 -97.58594,71.8711 a 70.007,70.007 0 0 0 19.20508,138.6426 c 39.38951,-4.5816 84.27319,11.3196 111.99218,39.6777 27.71898,28.3581 42.59328,73.5923 37.11528,112.8672 -5.1697,37.0634 -28.88302,74.2552 -60.30473,94.5801 -31.42171,20.3249 -75.06801,26.7029 -110.99219,16.2207 a 70.007,70.007 0 1 0 -39.21484,134.3965 c 76.55253,22.3371 159.28615,10.2448 226.24416,-33.0665 66.958,-43.3112 111.9096,-113.8107 122.9258,-192.791 11.7363,-84.1434 -16.2724,-169.3113 -75.6582,-230.0664 -13.3624,-13.6705 -28.0512,-25.6902 -43.67,-36.1386 13.7429,-16.3613 25.6558,-34.4284 35.3457,-53.9512 30.6385,-61.7291 36.2165,-131.3687 20.8829,-195.918 -15.2353,-64.1348 -50.1201,-120.4314 -95.9024,-164.1308 -45.57468,-43.5013 -100.64469,-73.5936 -158.18163,-91.7188 -50.20016,-15.8139 -101.73976,-22.4689 -152.29492,-22.6055 z m -254.43555,600.209 c 8.75279,0.086 17.43486,0.9332 25.85938,2.5703 33.69805,6.5485 66.4885,26.3716 87.94531,53.168 18.64108,23.28 30.35412,53.4833 32.21679,83.0918 1.86117,29.5845 -5.99932,60.8925 -21.57812,85.9277 -15.56582,25.0144 -40.12964,45.7811 -67.26172,56.8575 -27.10882,11.0668 -59.08071,13.3627 -87.32812,6.2675 -30.13758,-7.5698 -60.27824,-26.6213 -84.39649,-52.5781 -10.68717,-11.5019 -20.37085,-24.534 -29.16797,-38.6328 -10.61202,-31.6008 -10.22052,-68.4587 1.34375,-99.6172 11.94465,-32.1833 36.8407,-61.3107 66.77149,-78.1211 22.44809,-12.6078 49.33734,-19.1924 75.5957,-18.9336 z"
       id="path4140-6-2-2-7-5"
       inkscape:connector-curvature="0" />
    <path
       style="fill:none;fill-rule:evenodd;stroke:#000000;stroke-width:140;stroke-linecap:round;stroke-linejoin:round;stroke-miterlimit:4;stroke-dasharray:none;stroke-opacity:1"
       d="m 150.06509,97.44072 c -1.67714,-26.084093 1.2027,-52.454968 8.47021,-77.562258 13.33774,-46.078325 41.65665,-87.579428 79.25453,-117.370475 37.59789,-29.791047 84.24852,-47.828867 132.05318,-51.806587 69.85755,-5.8127 141.75593,19.16588 192.85331,67.154659 51.09738,47.988781 80.54427,118.252656 78.76897,188.329141 -1.57217,62.05835 -27.3819,123.20738 -70.83699,167.53982 -43.45508,44.33245 -104.124,71.36856 -166.14984,73.91919 -38.05358,1.56484 -76.51764,-5.92031 -110.95094,-22.19519 -34.4333,-16.27488 -64.60544,-41.32385 -87.32405,-71.89161 C 183.48485,222.98964 168.36068,187.17004 159.66081,150.09126 150.96094,113.01248 148.63446,74.777386 146.67699,36.741982 L 145.15049,7.0807522 C 141.11597,-71.31351 138.69346,-150.85179 156.63684,-227.2715 c 17.94339,-76.41972 56.35314,-148.39207 112.55005,-203.19942 56.19691,-54.80735 128.63116,-91.59324 204.84052,-110.41004 76.20935,-18.8168 155.68831,-20.49471 234.04868,-15.8482 78.68239,4.66561 158.84544,16.00566 228.72997,52.4589 34.94226,18.22662 66.89514,42.70219 91.65434,73.36412 24.7592,30.66193 42.1365,67.65106 47.4523,106.70121 5.4766,40.23117 -2.0244,81.88513 -19.6527,118.46082 -17.6284,36.57568 -45.1618,68.08327 -78.04952,91.89366 -42.77253,30.966849 -94.78153,49.002205 -147.5429,51.164002 52.33565,-0.783097 104.8168,11.115488 151.6974,34.393 39.78342,19.7535884 75.89002,48.050488 101.03862,84.663027 25.1486,36.612539 38.7507,81.870351 33.6659,125.996001 -5.6814,49.303 -34.6068,94.5593 -74.4073,124.20704 -39.8005,29.64774 -89.66397,44.29526 -139.27502,45.64011 -46.82832,1.26941 -93.92704,-8.98807 -135.9864,-29.61604"
       id="path4370-9-0-9-5-7-8-8"
       inkscape:path-effect="#path-effect4372-5-0-7-0-2-7-35"
       inkscape:original-d="m 150.06509,97.44072 c 0,0 -11.7247,-44.582068 8.47021,-77.562258 41.946,-68.50177 140.0586,-173.234452 211.30771,-169.177062 109.35891,6.22762 269.1393,131.210292 271.62228,255.4838 2.2528,112.75319 -124.31001,246.18037 -236.98683,241.45901 C 269.9687,342.00801 153.87369,176.57925 146.67699,36.741982 L 145.15049,7.0807522 C 133.03839,-228.26813 444.14315,-527.24947 708.07609,-556.72916 c 144.15959,-16.10176 326.89561,93.36573 367.83661,232.52423 21.8208,74.16902 -40.3438,158.51625 -97.70222,210.35448 -38.61923,34.902498 -147.5429,51.164002 -147.5429,51.164002 0,0 109.27123,4.587779 151.6974,34.393 68.20082,47.912408 148.40622,128.444598 134.70452,210.659028 -14.9575,89.74944 -125.06169,149.22993 -213.68232,169.84715 -45.18467,10.51202 -91.5739,-7.42883 -135.9864,-29.61604"
       inkscape:connector-curvature="0"
       sodipodi:nodetypes="cssaassaaacaaac" />
    <path
       style="color:#000000;font-style:normal;font-variant:normal;font-weight:normal;font-stretch:normal;font-size:medium;line-height:normal;font-family:sans-serif;text-indent:0;text-align:start;text-decoration:none;text-decoration-line:none;text-decoration-style:solid;text-decoration-color:#000000;letter-spacing:normal;word-spacing:normal;text-transform:none;direction:ltr;block-progression:tb;writing-mode:lr-tb;baseline-shift:baseline;text-anchor:start;white-space:normal;clip-rule:nonzero;display:inline;overflow:visible;visibility:visible;opacity:1;isolation:auto;mix-blend-mode:normal;color-interpolation:sRGB;color-interpolation-filters:linearRGB;solid-color:#000000;solid-opacity:1;fill:#000000;fill-opacity:1;fill-rule:evenodd;stroke:none;stroke-width:140;stroke-linecap:round;stroke-linejoin:round;stroke-miterlimit:4;stroke-dasharray:none;stroke-dashoffset:0;stroke-opacity:1;color-rendering:auto;image-rendering:auto;shape-rendering:auto;text-rendering:auto;enable-background:accumulate"
       d="m 601.85547,643.11914 c -63.04427,-0.68032 -127.9085,4.06625 -192.60742,20.04102 -187.40023,51.33602 -325.66168,190.01365 -368.757816,365.56644 -20.734521,88.3071 -17.333558,174.5642 -13.248046,253.9492 2.6794,53.139 6.006371,110.1053 16.269531,155.4043 10.530965,44.883 29.046198,89.5875 58.509761,129.2305 29.49726,39.6884 68.35551,72.042 113.59375,93.4238 45.14492,21.3378 94.59584,30.8705 143.74024,28.8496 180.22222,-15.916 284.54086,-150.9223 289.94575,-312.4573 -1.36387,-176.5439 -127.28703,-330.5461 -295.26216,-324.1852 -79.14036,4.2708 -153.55378,41.6443 -200.35217,112.2513 C 168,952 265.39602,843.65203 442.80664,799.07622 c 66.15349,-16.33391 138.55059,-18.35171 213.125,-13.92968 74.79635,4.43518 144.79913,15.58979 200.5,44.64453 50.94211,28.78271 105.07627,75.44539 113.4348,131.686 5.21887,59.48023 -16.48481,162.50623 -113.23319,171.08293 l -76.83052,6.8111 c -38.09843,1.7965 -67.74804,33.7599 -66.68216,71.8857 1.06588,38.1259 43.76869,58.4833 81.90798,58.1484 C 936,1264 1023.2777,1322.0138 1027.8135,1416.6512 1032,1504 972,1552 853.49019,1554.2364 c -35.34656,0.9581 -71.51873,-6.92 -103.26562,-22.4903 -34.81024,-17.6602 -77.33963,-3.4405 -94.52782,31.6051 -17.1882,35.0457 -2.39533,77.3791 32.87938,94.0922 52.37181,25.6858 110.39696,38.3228 168.70703,36.7422 62.10414,-1.6834 125.7905,-19.6968 179.19534,-59.4785 54.1385,-40.3284 93.914,-101.0243 102.1309,-172.3301 6.8713,-118.4857 -67.6786,-238.1463 -165.95545,-259.9545 97.81355,-41.0167 135.22645,-178.5479 124.61945,-264.07088 C 1078.4553,832.42871 1008.1711,751.78628 921.17965,705.66412 814.10243,657.52911 707.24139,644.36882 601.85543,643.11724 Z M 336.95312,1191.9551 C 576,1192 552,1552 353.60156,1549.7031 108,1552 141.73965,1197.4485 336.95307,1191.9551 Z"
       id="path4370-9-0-9-5-7-8-8-3"
       inkscape:connector-curvature="0"
       sodipodi:nodetypes="cccccsscccccsccscscsccscsscccccccccc" />
  </g>
</svg>
