<?xml version="1.0" encoding="UTF-8" standalone="no"?>
<!-- Created with Inkscape (http://www.inkscape.org/) -->

<svg
   xmlns:dc="http://purl.org/dc/elements/1.1/"
   xmlns:cc="http://creativecommons.org/ns#"
   xmlns:rdf="http://www.w3.org/1999/02/22-rdf-syntax-ns#"
   xmlns:svg="http://www.w3.org/2000/svg"
   xmlns="http://www.w3.org/2000/svg"
   xmlns:sodipodi="http://sodipodi.sourceforge.net/DTD/sodipodi-0.dtd"
   xmlns:inkscape="http://www.inkscape.org/namespaces/inkscape"
   width="2000"
   height="2048"
   id="svg2992"
   version="1.1"
   inkscape:version="0.91pre3 r13670"
   sodipodi:docname="ഒ.svg">
  <defs
     id="defs5498">
    <inkscape:path-effect
       effect="spiro"
       id="path-effect4142"
       is_visible="true" />
    <inkscape:path-effect
       effect="spiro"
       id="path-effect4142-8"
       is_visible="true" />
    <inkscape:path-effect
       effect="spiro"
       id="path-effect4142-8-0"
       is_visible="true" />
    <inkscape:path-effect
       effect="spiro"
       id="path-effect4142-8-0-1"
       is_visible="true" />
    <inkscape:path-effect
       effect="spiro"
       id="path-effect4142-8-0-1-7"
       is_visible="true" />
    <inkscape:path-effect
       effect="spiro"
       id="path-effect4142-8-0-1-7-8"
       is_visible="true" />
  </defs>
  <sodipodi:namedview
     inkscape:window-height="851"
     inkscape:window-width="1600"
     inkscape:pageshadow="2"
     inkscape:pageopacity="0.0"
     borderopacity="1.0"
     bordercolor="#666666"
     pagecolor="#ffffff"
     id="base"
     showgrid="true"
     showguides="true"
     inkscape:guide-bbox="true"
     inkscape:zoom="0.32102648"
     inkscape:cx="-379.89729"
     inkscape:cy="360.7192"
     inkscape:window-x="1599"
     inkscape:window-y="-1"
     inkscape:current-layer="layer1"
     inkscape:window-maximized="1">
    <sodipodi:guide
       orientation="horizontal"
       position="0,600"
       id="guide5596" />
    <inkscape:grid
       type="xygrid"
       id="grid3769"
       empspacing="3"
       visible="true"
       enabled="true"
       snapvisiblegridlinesonly="true"
       spacingx="4px"
       units="px"
       dotted="true"
       spacingy="4px" />
    <sodipodi:guide
       orientation="0,1"
       position="-1040,1600"
       id="guide2985" />
  </sodipodi:namedview>
  <metadata
     id="metadata5594">
    <rdf:RDF>
      <cc:Work
         rdf:about="">
        <dc:format>image/svg+xml</dc:format>
        <dc:type
           rdf:resource="http://purl.org/dc/dcmitype/StillImage" />
        <dc:title />
      </cc:Work>
    </rdf:RDF>
  </metadata>
  <g
     inkscape:label="Layer 1"
     inkscape:groupmode="layer"
     id="layer1"
     transform="translate(0,1048)">
    <path
       style="color:#000000;font-style:normal;font-variant:normal;font-weight:normal;font-stretch:normal;font-size:medium;line-height:normal;font-family:sans-serif;text-indent:0;text-align:start;text-decoration:none;text-decoration-line:none;text-decoration-style:solid;text-decoration-color:#000000;letter-spacing:normal;word-spacing:normal;text-transform:none;direction:ltr;block-progression:tb;writing-mode:lr-tb;baseline-shift:baseline;text-anchor:start;white-space:normal;clip-rule:nonzero;display:inline;overflow:visible;visibility:visible;opacity:1;isolation:auto;mix-blend-mode:normal;color-interpolation:sRGB;color-interpolation-filters:linearRGB;solid-color:#000000;solid-opacity:1;fill:#000000;fill-opacity:1;fill-rule:evenodd;stroke:none;stroke-width:140;stroke-linecap:round;stroke-linejoin:round;stroke-miterlimit:4;stroke-dasharray:none;stroke-dashoffset:0;stroke-opacity:1;color-rendering:auto;image-rendering:auto;shape-rendering:auto;text-rendering:auto;enable-background:accumulate"
       d="m 820.54102,-611.73633 c -177.82543,0.59961 -355.1033,68.60563 -479.22461,203.6836 C 186.50867,-245.77534 135.63232,7.3727239 238.34961,213.58984 294.13846,334.87442 425.84765,433.86234 574.18164,402.41992 729.95175,374.70824 830.26703,213.69781 788.5332,61.90625 l -0.76562,-2.9375 c -0.0851,-0.296373 -0.14619,-0.594331 -0.23242,-0.890625 -38.2624,-155.346062 -208.21854,-247.147035 -359.24219,-193.052735 -36.88397,11.48047 -69.5389,30.38571 -97.02344,54.515626 13.27789,-86.065786 52.13874,-169.102946 111.75977,-231.412106 a 70.007,70.007 0 0 0 1.01953,-1.08789 c 131.26654,-143.17571 354.5039,-192.01818 541.48242,-134.59766 A 70.007,70.007 0 0 0 987,-447.12305 c 96.4779,27.33323 186.5495,81.22364 210.3906,161.41797 a 70.007,70.007 0 0 0 0.6836,2.17188 c 15.8077,47.46151 -12.9472,109.53788 -59.6914,131.73828 a 70.007,70.007 0 0 0 -2.7617,1.38672 c -30.0308,15.9232 -67.1434,23.15226 -107.0234,23.83203 -16.3242,-1.04001 -32.20291,-1.57581 -47.19926,-1.79297 A 70.007,70.007 0 0 0 974.2832,11.357422 c 14.53425,1.271964 29.5054,1.907271 44.6504,2.064453 67.0244,4.839864 125.0716,20.656632 156.4453,60.361328 a 70.007,70.007 0 0 0 1.9902,2.40625 c 32.3986,37.438717 27.2373,108.284897 -9.8808,141.859377 a 70.007,70.007 0 0 0 -1.8106,1.69726 c -54.6024,53.02771 -156.0149,59.40948 -223.17184,18.65625 A 70.007,70.007 0 1 0 869.875,358.08789 c 121.15453,73.52088 285.4629,65.81891 392.2734,-36.91797 95.5273,-87.15109 106.6186,-237.752911 21.086,-336.591795 -11.899,-14.708007 -24.8522,-27.323317 -38.4649,-38.451172 80.7733,-62.558493 119.9885,-170.803083 86.416,-272.966793 -44.8412,-148.57191 -185.932,-220.80102 -305.2128,-254.73828 -66.47082,-20.33917 -135.9913,-30.39235 -205.43168,-30.15821 z m 380.66408,585.015627 -2.7617,1.386719 c 0.7042,-0.334445 1.3818,-0.708306 2.082,-1.048828 0.2253,-0.118774 0.4545,-0.218486 0.6797,-0.337891 z M 514.67969,-9.3164062 C 574.76736,-8.1974145 638.88841,36.0306 652.11523,93.373047 a 70.007,70.007 0 0 0 0.99805,3.826172 C 672.80276,164.85448 618.50259,252.67372 549.13867,264.70703 a 70.007,70.007 0 0 0 -3.03515,0.5957 c -55.0302,12.07311 -115.97616,-20.05028 -155.04883,-69.17187 a 70.007,70.007 0 0 0 -4.72266,-15.10547 C 357.75365,114.85655 401.71696,19.435994 470.60742,-1.5605469 a 70.007,70.007 0 0 0 3.79297,-1.2753906 c 12.76176,-4.701825 26.41291,-6.7386976 40.2793,-6.4804687 z"
       id="path4140-6-2-2"
       inkscape:connector-curvature="0" />
    <path
       style="fill:none;fill-rule:evenodd;stroke:#000000;stroke-width:140;stroke-linecap:round;stroke-linejoin:round;stroke-miterlimit:4;stroke-dasharray:none;stroke-opacity:1"
       d="m -1061.2166,214.47622 c -18.0655,-48.14747 -18.0604,-102.83769 0.014,-150.981824 18.0743,-48.144133 54.0617,-89.325816 99.34926,-113.689169 45.2876,-24.363352 99.4838,-31.697675 149.61799,-20.247667 50.13419,11.450008 95.7728,41.585324 125.99329,83.193759 24.81883,34.171272 39.23401,75.82149 40.69488,118.029501 1.46087,42.208 -10.06075,84.79858 -32.73082,120.43168 -22.67008,35.6331 -56.40829,64.1403 -95.38439,80.40419 -38.97609,16.26389 -83.01933,20.1881 -124.22357,10.92202 -46.10727,-10.36869 -87.79824,-36.84766 -120.01164,-71.42635 -32.2134,-34.5787 -55.3032,-76.97873 -71.0424,-121.53957 -30.451,-86.213086 -33.766,-181.300336 -12.7106,-270.2758 21.0554,-88.97546 66.0514,-171.7388 126.72864,-240.13644 77.04649,-86.8497 180.48169,-151.05625 293.80731,-176.28195 113.32562,-25.2257 236.06475,-10.34103 337.59249,45.97193 36.72804,20.37142 70.78083,46.11658 98.02932,78.07692 27.2485,31.96034 47.52924,70.32538 55.52598,111.55638 10.28858,53.04767 -0.61865,109.90509 -29.80722,155.37966 -29.18858,45.47457 -76.33908,79.068676 -128.85266,91.805784 57.57508,-10.585952 119.40465,4.648932 165.47053,40.772153 46.06588,36.123221 75.60494,92.536348 79.0535,150.974863 2.16701,36.72167 -5.66346,73.98472 -22.42789,106.72813 -16.76444,32.74341 -42.41862,60.88083 -73.47823,80.59067 -31.05961,19.70984 -67.44274,30.94012 -104.20788,32.16556 -36.76513,1.22544 -73.81533,-7.55719 -106.11846,-25.15505"
       id="path4140-6-2-2-7"
       inkscape:path-effect="#path-effect4142-8-0-1-7"
       inkscape:original-d="m -1061.2166,214.47622 c 0,0 278.55167,-305.873576 374.97454,-201.724901 88.73838,95.848471 -81.74291,316.106641 -211.6439,329.787391 -90.01765,9.48036 -166.01154,-105.98357 -191.05404,-192.96592 -48.2312,-167.525964 -10.2499,-388.14749 114.01804,-510.41224 153.18846,-150.71904 429.03791,-202.64673 631.3998,-130.31002 76.58985,27.37797 149.0832,108.42026 153.5553,189.6333 5.38326,97.75979 -76.93279,210.473244 -158.65988,247.185444 22.18783,28.572169 249.677621,88.295534 244.52403,191.747016 -6.01515,120.74609 -172.88758,206.40123 -306.23246,194.32931"
       inkscape:connector-curvature="0"
       sodipodi:nodetypes="caaaaaacac" />
  </g>
</svg>
