<?xml version="1.0" encoding="UTF-8" standalone="no"?>
<!-- Created with Inkscape (http://www.inkscape.org/) -->

<svg
   xmlns:dc="http://purl.org/dc/elements/1.1/"
   xmlns:cc="http://creativecommons.org/ns#"
   xmlns:rdf="http://www.w3.org/1999/02/22-rdf-syntax-ns#"
   xmlns:svg="http://www.w3.org/2000/svg"
   xmlns="http://www.w3.org/2000/svg"
   xmlns:sodipodi="http://sodipodi.sourceforge.net/DTD/sodipodi-0.dtd"
   xmlns:inkscape="http://www.inkscape.org/namespaces/inkscape"
   width="2000"
   height="2048"
   id="svg2992"
   version="1.1"
   inkscape:version="0.91pre3 r13670"
   sodipodi:docname="ഒ.svg">
  <defs
     id="defs5498">
    <inkscape:path-effect
       effect="spiro"
       id="path-effect4142"
       is_visible="true" />
    <inkscape:path-effect
       effect="spiro"
       id="path-effect4142-8"
       is_visible="true" />
    <inkscape:path-effect
       effect="spiro"
       id="path-effect4142-8-0"
       is_visible="true" />
    <inkscape:path-effect
       effect="spiro"
       id="path-effect4142-8-0-1"
       is_visible="true" />
    <inkscape:path-effect
       effect="spiro"
       id="path-effect4142-8-0-1-7"
       is_visible="true" />
  </defs>
  <sodipodi:namedview
     inkscape:window-height="853"
     inkscape:window-width="1600"
     inkscape:pageshadow="2"
     inkscape:pageopacity="0.0"
     borderopacity="1.0"
     bordercolor="#666666"
     pagecolor="#ffffff"
     id="base"
     showgrid="true"
     showguides="true"
     inkscape:guide-bbox="true"
     inkscape:zoom="0.32102648"
     inkscape:cx="536.79298"
     inkscape:cy="1095.6"
     inkscape:window-x="1598"
     inkscape:window-y="-3"
     inkscape:current-layer="layer1"
     inkscape:window-maximized="1">
    <sodipodi:guide
       orientation="horizontal"
       position="0,600"
       id="guide5596" />
    <inkscape:grid
       type="xygrid"
       id="grid3769"
       empspacing="3"
       visible="true"
       enabled="true"
       snapvisiblegridlinesonly="true"
       spacingx="4px"
       units="px"
       dotted="true"
       spacingy="4px" />
    <sodipodi:guide
       orientation="0,1"
       position="-1040,1600"
       id="guide2985" />
  </sodipodi:namedview>
  <metadata
     id="metadata5594">
    <rdf:RDF>
      <cc:Work
         rdf:about="">
        <dc:format>image/svg+xml</dc:format>
        <dc:type
           rdf:resource="http://purl.org/dc/dcmitype/StillImage" />
        <dc:title />
      </cc:Work>
    </rdf:RDF>
  </metadata>
  <g
     inkscape:label="Layer 1"
     inkscape:groupmode="layer"
     id="layer1"
     transform="translate(0,1048)">
    <path
       style="color:#000000;font-style:normal;font-variant:normal;font-weight:normal;font-stretch:normal;font-size:medium;line-height:normal;font-family:sans-serif;text-indent:0;text-align:start;text-decoration:none;text-decoration-line:none;text-decoration-style:solid;text-decoration-color:#000000;letter-spacing:normal;word-spacing:normal;text-transform:none;direction:ltr;block-progression:tb;writing-mode:lr-tb;baseline-shift:baseline;text-anchor:start;white-space:normal;clip-rule:nonzero;display:inline;overflow:visible;visibility:visible;opacity:1;isolation:auto;mix-blend-mode:normal;color-interpolation:sRGB;color-interpolation-filters:linearRGB;solid-color:#000000;solid-opacity:1;fill:#000000;fill-opacity:1;fill-rule:evenodd;stroke:none;stroke-width:140;stroke-linecap:round;stroke-linejoin:round;stroke-miterlimit:4;stroke-dasharray:none;stroke-dashoffset:0;stroke-opacity:1;color-rendering:auto;image-rendering:auto;shape-rendering:auto;text-rendering:auto;enable-background:accumulate"
       d="m 820.54102,-611.73633 c -177.82543,0.59961 -355.1033,68.60563 -479.22461,203.6836 C 186.50867,-245.77534 135.63232,7.3727239 238.34961,213.58984 294.13846,334.87442 425.84765,433.86234 574.18164,402.41992 729.95175,374.70824 830.26703,213.69781 788.5332,61.90625 l -0.76562,-2.9375 c -0.0851,-0.296373 -0.14619,-0.594331 -0.23242,-0.890625 -38.2624,-155.346062 -208.21854,-247.147035 -359.24219,-193.052735 -36.88397,11.48047 -69.5389,30.38571 -97.02344,54.515626 13.27789,-86.065786 52.13874,-169.102946 111.75977,-231.412106 a 70.007,70.007 0 0 0 1.01953,-1.08789 c 131.26654,-143.17571 354.5039,-192.01818 541.48242,-134.59766 A 70.007,70.007 0 0 0 987,-447.12305 c 96.4779,27.33323 186.5495,81.22364 210.3906,161.41797 a 70.007,70.007 0 0 0 0.6836,2.17188 c 15.8077,47.46151 -12.9472,109.53788 -59.6914,131.73828 a 70.007,70.007 0 0 0 -2.7617,1.38672 c -30.0308,15.9232 -67.1434,23.15226 -107.0234,23.83203 -16.3242,-1.04001 -32.20291,-1.57581 -47.19926,-1.79297 A 70.007,70.007 0 0 0 974.2832,11.357422 c 14.53425,1.271964 29.5054,1.907271 44.6504,2.064453 67.0244,4.839864 125.0716,20.656632 156.4453,60.361328 a 70.007,70.007 0 0 0 1.9902,2.40625 c 32.3986,37.438717 27.2373,108.284897 -9.8808,141.859377 a 70.007,70.007 0 0 0 -1.8106,1.69726 c -54.6024,53.02771 -156.0149,59.40948 -223.17184,18.65625 A 70.007,70.007 0 1 0 869.875,358.08789 c 121.15453,73.52088 285.4629,65.81891 392.2734,-36.91797 95.5273,-87.15109 106.6186,-237.752911 21.086,-336.591795 -11.899,-14.708007 -24.8522,-27.323317 -38.4649,-38.451172 80.7733,-62.558493 119.9885,-170.803083 86.416,-272.966793 -44.8412,-148.57191 -185.932,-220.80102 -305.2128,-254.73828 -66.47082,-20.33917 -135.9913,-30.39235 -205.43168,-30.15821 z m 380.66408,585.015627 -2.7617,1.386719 c 0.7042,-0.334445 1.3818,-0.708306 2.082,-1.048828 0.2253,-0.118774 0.4545,-0.218486 0.6797,-0.337891 z M 514.67969,-9.3164062 C 574.76736,-8.1974145 638.88841,36.0306 652.11523,93.373047 a 70.007,70.007 0 0 0 0.99805,3.826172 C 672.80276,164.85448 618.50259,252.67372 549.13867,264.70703 a 70.007,70.007 0 0 0 -3.03515,0.5957 c -55.0302,12.07311 -115.97616,-20.05028 -155.04883,-69.17187 a 70.007,70.007 0 0 0 -4.72266,-15.10547 C 357.75365,114.85655 401.71696,19.435994 470.60742,-1.5605469 a 70.007,70.007 0 0 0 3.79297,-1.2753906 c 12.76176,-4.701825 26.41291,-6.7386976 40.2793,-6.4804687 z"
       id="path4140-6-2-2"
       inkscape:connector-curvature="0" />
    <path
       style="fill:none;fill-rule:evenodd;stroke:#000000;stroke-width:140;stroke-linecap:round;stroke-linejoin:round;stroke-miterlimit:4;stroke-dasharray:none;stroke-opacity:1"
       d="m -1051.2166,210.47622 c -18.865,-47.03887 -19.9218,-100.97633 -2.9138,-148.718053 17.008,-47.74172 51.9291,-88.862073 96.28555,-113.378318 44.35647,-24.516245 97.75287,-32.209815 147.22622,-21.212953 49.47335,10.996863 94.58257,40.58612 124.37657,81.5844225 24.61226,33.8679275 38.76096,75.2437875 39.96896,117.0928115 1.208,41.84902 -10.5402,83.99223 -33.28341,119.14257 -22.74321,35.15033 -56.39048,63.14796 -95.11622,79.0576 -38.72575,15.90964 -82.36016,19.65008 -123.21323,10.49441 -45.56614,-10.21193 -86.86771,-36.07619 -119.06734,-69.89547 -32.1995,-33.81928 -55.6314,-75.33192 -71.9867,-119.07045 -32.1924,-86.091033 -37.3182,-181.768695 -16.5821,-271.31216 20.7362,-89.54346 67.0052,-172.73966 130.60014,-239.10008 80.89862,-84.41661 189.3497,-141.14321 304.11911,-163.47555 114.76941,-22.33233 235.38059,-10.74334 345.28069,29.16553 66.02244,23.97524 130.02828,59.36597 173.9266,114.19948 21.94916,27.41675 38.46772,59.45097 46.05462,93.74212 7.586908,34.29114 6.013412,70.84803 -6.42592,103.6917 -18.89987,49.90148 -61.91904,88.348478 -110.98636,109.318931 -49.06732,20.970454 -103.76319,25.83744 -157.01854,22.486418 -4.31292,-0.271385 -8.62257,-0.594756 -12.9277,-0.97002 l 12.7124,0.57282 c 34.0126,1.532606 68.18161,3.303118 101.4912,10.351305 33.3096,7.048188 65.75052,19.453349 93.71781,38.8707805 27.96729,19.4174315 51.23729,45.8542255 65.64551,76.7023885 14.40823,30.848167 19.789931,65.959947 14.53978,99.599837 -6.0474,38.7482 -26.03443,74.79527 -54.04613,102.24229 -28.0117,27.44703 -63.75412,46.46853 -101.58797,56.79299 -68.94439,18.8142 -145.39344,8.26764 -206.6685,-28.51102"
       id="path4140-6-2-2-7"
       inkscape:path-effect="#path-effect4142-8-0-1-7"
       inkscape:original-d="m -1051.2166,210.47622 c 0,0 270.24444,-303.451751 364.97454,-201.7249015 88.2526,94.7709715 -82.8906,311.9076815 -211.6439,325.7873915 -89.0569,9.60041 -165.82194,-103.02031 -191.05404,-188.96592 -49.1078,-167.271091 -10.2242,-388.12133 114.01804,-510.41224 157.5366,-155.06241 444.3704,-216.92413 649.3998,-134.31002 116.8026,47.06426 245.499896,189.82422 213.5553,311.6333 -25.2542,96.297729 -170.2628,112.897419 -268.0049,131.805349 -4.2427,0.82074 -12.9277,-0.97002 -12.9277,-0.97002 l 12.7124,0.57282 c 91.0599,4.10316 268.8695,107.05252 275.3943,225.524311 4.0789,74.06038 -85.453,135.03116 -155.6341,159.03528 -65.7996,22.50553 -206.6685,-28.51102 -206.6685,-28.51102"
       inkscape:connector-curvature="0"
       sodipodi:nodetypes="caaaaaaacsaac" />
  </g>
</svg>
