<?xml version="1.0" encoding="UTF-8" standalone="no"?>
<!-- Created with Inkscape (http://www.inkscape.org/) -->

<svg
   xmlns:dc="http://purl.org/dc/elements/1.1/"
   xmlns:cc="http://creativecommons.org/ns#"
   xmlns:rdf="http://www.w3.org/1999/02/22-rdf-syntax-ns#"
   xmlns:svg="http://www.w3.org/2000/svg"
   xmlns="http://www.w3.org/2000/svg"
   xmlns:sodipodi="http://sodipodi.sourceforge.net/DTD/sodipodi-0.dtd"
   xmlns:inkscape="http://www.inkscape.org/namespaces/inkscape"
   width="2000"
   height="2048"
   id="svg2992"
   version="1.1"
   inkscape:version="0.91 r13725"
   sodipodi:docname="ഒ.svg">
  <defs
     id="defs5498">
    <inkscape:path-effect
       effect="spiro"
       id="path-effect4142"
       is_visible="true" />
    <inkscape:path-effect
       effect="spiro"
       id="path-effect4142-8"
       is_visible="true" />
    <inkscape:path-effect
       effect="spiro"
       id="path-effect4142-8-0"
       is_visible="true" />
    <inkscape:path-effect
       effect="spiro"
       id="path-effect4142-8-0-1"
       is_visible="true" />
    <inkscape:path-effect
       effect="spiro"
       id="path-effect4142-8-0-1-7"
       is_visible="true" />
    <inkscape:path-effect
       effect="spiro"
       id="path-effect4142-8-0-1-7-8"
       is_visible="true" />
    <inkscape:path-effect
       effect="spiro"
       id="path-effect4142-8-0-1-7-9"
       is_visible="true" />
    <inkscape:path-effect
       effect="spiro"
       id="path-effect4142-8-0-1-7-9-1"
       is_visible="true" />
    <inkscape:path-effect
       effect="spiro"
       id="path-effect4142-8-0-1-7-9-2"
       is_visible="true" />
    <inkscape:path-effect
       effect="spiro"
       id="path-effect4142-8-0-1-7-9-2-9"
       is_visible="true" />
  </defs>
  <sodipodi:namedview
     inkscape:window-height="704"
     inkscape:window-width="1366"
     inkscape:pageshadow="2"
     inkscape:pageopacity="0.0"
     borderopacity="1.0"
     bordercolor="#666666"
     pagecolor="#ffffff"
     id="base"
     showgrid="true"
     showguides="true"
     inkscape:guide-bbox="true"
     inkscape:zoom="0.227"
     inkscape:cx="-1471.9465"
     inkscape:cy="1154.7154"
     inkscape:window-x="-6"
     inkscape:window-y="0"
     inkscape:current-layer="layer1"
     inkscape:window-maximized="1">
    <sodipodi:guide
       orientation="horizontal"
       position="0,600"
       id="guide5596" />
    <inkscape:grid
       type="xygrid"
       id="grid3769"
       empspacing="3"
       visible="true"
       enabled="true"
       snapvisiblegridlinesonly="true"
       spacingx="4px"
       units="px"
       dotted="true"
       spacingy="4px" />
    <sodipodi:guide
       orientation="0,1"
       position="-1040,1600"
       id="guide2985" />
  </sodipodi:namedview>
  <metadata
     id="metadata5594">
    <rdf:RDF>
      <cc:Work
         rdf:about="">
        <dc:format>image/svg+xml</dc:format>
        <dc:type
           rdf:resource="http://purl.org/dc/dcmitype/StillImage" />
        <dc:title />
      </cc:Work>
    </rdf:RDF>
  </metadata>
  <g
     inkscape:label="Layer 1"
     inkscape:groupmode="layer"
     id="layer1"
     transform="translate(0,1048)">
    <path
       style="color:#000000;font-style:normal;font-variant:normal;font-weight:normal;font-stretch:normal;font-size:medium;line-height:normal;font-family:sans-serif;text-indent:0;text-align:start;text-decoration:none;text-decoration-line:none;text-decoration-style:solid;text-decoration-color:#000000;letter-spacing:normal;word-spacing:normal;text-transform:none;direction:ltr;block-progression:tb;writing-mode:lr-tb;baseline-shift:baseline;text-anchor:start;white-space:normal;clip-rule:nonzero;display:inline;overflow:visible;visibility:visible;opacity:1;isolation:auto;mix-blend-mode:normal;color-interpolation:sRGB;color-interpolation-filters:linearRGB;solid-color:#000000;solid-opacity:1;fill:#000000;fill-opacity:1;fill-rule:evenodd;stroke:none;stroke-width:140;stroke-linecap:round;stroke-linejoin:round;stroke-miterlimit:4;stroke-dasharray:none;stroke-dashoffset:0;stroke-opacity:1;color-rendering:auto;image-rendering:auto;shape-rendering:auto;text-rendering:auto;enable-background:accumulate"
       d="m 820.54102,-611.73633 c -177.82543,0.59961 -355.1033,68.60563 -479.22461,203.6836 C 186.50867,-245.77534 135.63232,7.3727239 238.34961,213.58984 294.13846,334.87442 425.84765,433.86234 574.18164,402.41992 729.95175,374.70824 830.26703,213.69781 788.5332,61.90625 l -0.76562,-2.9375 c -0.0851,-0.296373 -0.14619,-0.594331 -0.23242,-0.890625 -38.2624,-155.346062 -208.21854,-247.147035 -359.24219,-193.052735 -36.88397,11.48047 -69.5389,30.38571 -97.02344,54.515626 13.27789,-86.065786 52.13874,-169.102946 111.75977,-231.412106 a 70.007,70.007 0 0 0 1.01953,-1.08789 c 131.26654,-143.17571 354.5039,-192.01818 541.48242,-134.59766 A 70.007,70.007 0 0 0 987,-447.12305 c 96.4779,27.33323 186.5495,81.22364 210.3906,161.41797 a 70.007,70.007 0 0 0 0.6836,2.17188 c 15.8077,47.46151 -12.9472,109.53788 -59.6914,131.73828 a 70.007,70.007 0 0 0 -2.7617,1.38672 c -30.0308,15.9232 -67.1434,23.15226 -107.0234,23.83203 -16.3242,-1.04001 -32.20291,-1.57581 -47.19926,-1.79297 A 70.007,70.007 0 0 0 974.2832,11.357422 c 14.53425,1.271964 29.5054,1.907271 44.6504,2.064453 67.0244,4.839864 125.0716,20.656632 156.4453,60.361328 a 70.007,70.007 0 0 0 1.9902,2.40625 c 32.3986,37.438717 27.2373,108.284897 -9.8808,141.859377 a 70.007,70.007 0 0 0 -1.8106,1.69726 c -54.6024,53.02771 -156.0149,59.40948 -223.17184,18.65625 A 70.007,70.007 0 1 0 869.875,358.08789 c 121.15453,73.52088 285.4629,65.81891 392.2734,-36.91797 95.5273,-87.15109 106.6186,-237.752911 21.086,-336.591795 -11.899,-14.708007 -24.8522,-27.323317 -38.4649,-38.451172 80.7733,-62.558493 119.9885,-170.803083 86.416,-272.966793 -44.8412,-148.57191 -185.932,-220.80102 -305.2128,-254.73828 -66.47082,-20.33917 -135.9913,-30.39235 -205.43168,-30.15821 z m 380.66408,585.015627 -2.7617,1.386719 c 0.7042,-0.334445 1.3818,-0.708306 2.082,-1.048828 0.2253,-0.118774 0.4545,-0.218486 0.6797,-0.337891 z M 514.67969,-9.3164062 C 574.76736,-8.1974145 638.88841,36.0306 652.11523,93.373047 a 70.007,70.007 0 0 0 0.99805,3.826172 C 672.80276,164.85448 618.50259,252.67372 549.13867,264.70703 a 70.007,70.007 0 0 0 -3.03515,0.5957 c -55.0302,12.07311 -115.97616,-20.05028 -155.04883,-69.17187 a 70.007,70.007 0 0 0 -4.72266,-15.10547 C 357.75365,114.85655 401.71696,19.435994 470.60742,-1.5605469 a 70.007,70.007 0 0 0 3.79297,-1.2753906 c 12.76176,-4.701825 26.41291,-6.7386976 40.2793,-6.4804687 z"
       id="path4140-6-2-2"
       inkscape:connector-curvature="0" />
    <path
       style="fill:none;fill-rule:evenodd;stroke:#000000;stroke-width:140;stroke-linecap:round;stroke-linejoin:round;stroke-miterlimit:4;stroke-dasharray:none;stroke-opacity:1"
       d="m -1061.2166,214.47622 c -18.0655,-48.14747 -18.0604,-102.83769 0.014,-150.981824 18.0743,-48.144133 54.0617,-89.325816 99.34926,-113.689169 45.2876,-24.363352 99.4838,-31.697675 149.61799,-20.247667 50.13419,11.450008 95.7728,41.585324 125.99329,83.193759 24.81883,34.171272 39.23401,75.82149 40.69488,118.029501 1.46087,42.208 -10.06075,84.79858 -32.73082,120.43168 -22.67008,35.6331 -56.40829,64.1403 -95.38439,80.40419 -38.97609,16.26389 -83.01933,20.1881 -124.22357,10.92202 -46.10727,-10.36869 -87.79824,-36.84766 -120.01164,-71.42635 -32.2134,-34.5787 -55.3032,-76.97873 -71.0424,-121.53957 -30.451,-86.213086 -33.766,-181.300336 -12.7106,-270.2758 21.0554,-88.97546 66.0514,-171.7388 126.72864,-240.13644 77.04649,-86.8497 180.48169,-151.05625 293.80731,-176.28195 113.32562,-25.2257 236.06475,-10.34103 337.59249,45.97193 36.72804,20.37142 70.78083,46.11658 98.02932,78.07692 27.2485,31.96034 47.52924,70.32538 55.52598,111.55638 10.28858,53.04767 -0.61865,109.90509 -29.80722,155.37966 -29.18858,45.47457 -76.33908,79.068676 -128.85266,91.805784 57.57508,-10.585952 119.40465,4.648932 165.47053,40.772153 46.06588,36.123221 75.60494,92.536348 79.0535,150.974863 2.16701,36.72167 -5.66346,73.98472 -22.42789,106.72813 -16.76444,32.74341 -42.41862,60.88083 -73.47823,80.59067 -31.05961,19.70984 -67.44274,30.94012 -104.20788,32.16556 -36.76513,1.22544 -73.81533,-7.55719 -106.11846,-25.15505"
       id="path4140-6-2-2-7"
       inkscape:path-effect="#path-effect4142-8-0-1-7"
       inkscape:original-d="m -1061.2166,214.47622 c 0,0 278.55167,-305.873576 374.97454,-201.724901 88.73838,95.848471 -81.74291,316.106641 -211.6439,329.787391 -90.01765,9.48036 -166.01154,-105.98357 -191.05404,-192.96592 -48.2312,-167.525964 -10.2499,-388.14749 114.01804,-510.41224 153.18846,-150.71904 429.03791,-202.64673 631.3998,-130.31002 76.58985,27.37797 149.0832,108.42026 153.5553,189.6333 5.38326,97.75979 -76.93279,210.473244 -158.65988,247.185444 22.18783,28.572169 249.677621,88.295534 244.52403,191.747016 -6.01515,120.74609 -172.88758,206.40123 -306.23246,194.32931"
       inkscape:connector-curvature="0"
       sodipodi:nodetypes="caaaaaacac" />
    <path
       style="fill:none;fill-rule:evenodd;stroke:#000000;stroke-width:70;stroke-linecap:round;stroke-linejoin:round;stroke-miterlimit:4;stroke-dasharray:none;stroke-opacity:1"
       d="m -2257.5298,1214.6754 c -14.427,-51.0165 -10.3301,-107.0595 11.3629,-155.4355 21.693,-48.3761 60.8151,-88.71292 108.5054,-111.87451 47.6903,-23.1616 103.5819,-28.96974 155.0156,-16.10891 51.4337,12.86082 98.0138,44.29168 129.1901,87.17362 26.3771,36.2807 41.7066,80.5112 43.2748,125.3395 1.5681,44.8284 -10.6553,90.0683 -34.7247,127.9194 -24.0694,37.851 -59.8994,68.1341 -101.2953,85.409 -41.3958,17.2749 -88.1759,21.4391 -131.9366,11.5883 -48.9556,-11.0202 -93.2169,-39.1485 -127.4129,-75.8736 -34.1961,-36.725 -58.7033,-81.7514 -75.4106,-129.0691 -32.3299,-91.5634 -35.8562,-192.54451 -13.5068,-287.04098 22.3494,-94.49648 70.1193,-182.40141 134.5487,-255.05083 81.7832,-92.21728 191.5832,-160.40486 311.8931,-187.20106 120.3099,-26.7962 250.6239,-10.99861 358.4027,48.80313 38.9975,21.63799 75.1507,48.98567 104.0769,82.93092 28.9262,33.94525 50.4518,74.68883 58.9378,118.47229 10.9177,56.32951 -0.6613,116.70001 -31.6452,164.99288 -30.984,48.29287 -81.0346,83.98053 -136.7885,97.53455 61.1335,-11.21862 126.7743,4.97463 175.6761,43.33842 48.9018,38.36378 80.2549,98.26298 83.9113,160.30968 2.2973,38.9847 -6.016,78.5432 -23.8115,113.3053 -17.7955,34.7622 -45.0262,64.6364 -77.9956,85.5673 -32.9695,20.9309 -71.5907,32.8634 -110.6209,34.1775 -39.0303,1.3141 -78.3667,-7.9935 -112.6693,-26.6594"
       id="path4140-6-2-2-7-8-9"
       inkscape:path-effect="#path-effect4142-8-0-1-7-9-2"
       inkscape:original-d="m -2257.5298,1214.6754 c 0,0 304.6359,-308.19595 404.074,-196.2453 92.1151,103.7061 -86.7785,335.7263 -224.6818,350.2562 -95.5629,10.0688 -176.2383,-112.5616 -202.8235,-204.9427 -51.2023,-177.92371 -10.8813,-412.23849 121.0419,-542.09181 162.6253,-160.07368 455.4678,-215.2243 670.2958,-138.39793 81.308,29.07723 158.2671,115.14954 163.0147,201.40321 5.7149,103.82742 -81.6721,223.53663 -168.4337,262.52743 23.5546,30.34555 265.0584,93.7758 259.5874,203.6481 -6.3858,128.2404 -183.538,219.2119 -325.0973,206.3907"
       inkscape:connector-curvature="0"
       sodipodi:nodetypes="caaaaaacac" />
    <path
       style="color:#000000;font-style:normal;font-variant:normal;font-weight:normal;font-stretch:normal;font-size:medium;line-height:normal;font-family:sans-serif;text-indent:0;text-align:start;text-decoration:none;text-decoration-line:none;text-decoration-style:solid;text-decoration-color:#000000;letter-spacing:normal;word-spacing:normal;text-transform:none;direction:ltr;block-progression:tb;writing-mode:lr-tb;baseline-shift:baseline;text-anchor:start;white-space:normal;clip-rule:nonzero;display:inline;overflow:visible;visibility:visible;opacity:1;isolation:auto;mix-blend-mode:normal;color-interpolation:sRGB;color-interpolation-filters:linearRGB;solid-color:#000000;solid-opacity:1;fill:#000000;fill-opacity:1;fill-rule:evenodd;stroke:none;stroke-width:70;stroke-linecap:round;stroke-linejoin:round;stroke-miterlimit:4;stroke-dasharray:none;stroke-dashoffset:0;stroke-opacity:1;color-rendering:auto;image-rendering:auto;shape-rendering:auto;text-rendering:auto;enable-background:accumulate"
       d="m -2213.2695,-669.19922 c -41.1196,0.0289 -82.2422,4.54985 -122.3653,13.48633 -128.1973,28.55294 -244.0519,100.69836 -330.4707,198.14258 -68.0305,76.70996 -118.6204,169.58075 -142.4218,270.21679 -23.8247,100.733874 -20.1912,208.322062 14.5625,306.75 17.964,50.87702 44.5633,100.20438 82.7988,141.26758 38.3865,41.22549 88.3472,73.33813 145.3418,86.16797 51.036,11.48852 104.9018,6.68069 153.1015,-13.43359 48.188,-20.10931 89.3786,-54.93789 117.3516,-98.92774 27.9663,-43.97927 41.987,-95.92263 40.168,-147.923825 -1.8187,-51.988343 -19.4036,-102.690331 -49.9434,-144.697266 l 0,-0.002 c -36.1434,-49.713406 -89.382,-85.635186 -149.0097,-100.544926 -59.6283,-14.90985 -123.5065,-8.2717 -178.795,18.58008 -51.3482,24.93813 -93.5488,66.495373 -119.4531,117.216799 -3.5552,-49.549279 0.531,-99.865739 11.9961,-148.341799 20.8973,-88.35691 65.8455,-171.29393 126.6738,-239.88281 77.1477,-86.99035 180.894,-151.22226 293.3164,-176.26172 112.2259,-24.99568 234.2129,-10.01739 333.8125,45.2461 36.0821,20.02037 68.8124,44.97464 94.42,75.02539 25.5185,29.94627 44.0627,65.52045 51.2167,102.43164 9.1493,47.20522 -0.7789,98.96315 -26.7441,139.43359 -25.9652,40.4704 -68.8748,71.06724 -115.5976,82.42578 a 35.0035,35.0035 0 0 0 14.5859,68.433595 c 50.8777,-9.336573 107.0579,4.523326 147.7558,36.451172 40.698,31.9278372 67.5313,83.192315 70.5743,134.830078 1.9238,32.646805 -5.125,66.188185 -20.0274,95.298825 -14.9024,29.11071 -37.9902,54.43875 -65.5996,71.9668 -27.6095,17.52809 -60.3542,27.64561 -93.039,28.74609 -32.685,1.1005 -66.0379,-6.7906 -94.7637,-22.42187 a 35.0035,35.0035 0 1 0 -33.457,61.48633 c 39.8793,21.70051 85.2005,32.42427 130.5761,30.89648 45.3756,-1.52777 89.8717,-15.27565 128.2012,-39.60937 38.3294,-24.33377 69.704,-58.7544 90.3926,-99.16797 20.6886,-40.41364 30.2665,-85.98988 27.5957,-131.312502 -4.2698,-72.455691 -40.1425,-140.987369 -97.2481,-185.78711 -23.1017,-18.123498 -49.1755,-31.865558 -76.7304,-41.035158 17.4758,-15.60291 32.9403,-33.51394 45.6992,-53.40039 36.0026,-56.1153 49.233,-125.09894 36.5469,-190.55273 -9.818,-50.65574 -34.3243,-96.56945 -66.6582,-134.51367 -32.2449,-37.83976 -71.8235,-67.58033 -113.7364,-90.83594 -79.7211,-44.23375 -170.164,-65.91132 -260.6269,-65.84766 z m -307.8203,572.839845 c 16.8686,-0.318103 33.7384,1.515892 49.9531,5.570313 43.2391,10.811796 83.1619,37.750964 109.3711,73.800781 22.2138,30.55422 35.2877,68.314639 36.6054,105.982422 1.3172,37.655479 -9.1068,76.191199 -29.2793,107.914059 -20.1657,31.7123 -50.6363,57.44815 -85.2402,71.88868 -34.5918,14.43555 -74.2861,17.95722 -110.7715,9.74414 -40.9165,-9.21058 -79.4788,-33.35543 -109.4843,-65.58008 -16.7913,-18.03302 -31.0975,-38.71247 -43.2227,-61 a 35.0035,35.0035 0 0 0 -0.6914,-2.81055 c -12.1285,-42.88841 -8.6177,-90.921296 9.6191,-131.589843 18.2368,-40.668591 51.7673,-75.239534 91.8594,-94.710938 25.0576,-12.169624 53.1668,-18.678812 81.2813,-19.208984 z"
       id="path4140-6-2-2-7-8-9-2"
       inkscape:connector-curvature="0" />
  </g>
</svg>
