<?xml version="1.0" encoding="UTF-8" standalone="no"?>
<!-- Created with Inkscape (http://www.inkscape.org/) -->

<svg
   xmlns:dc="http://purl.org/dc/elements/1.1/"
   xmlns:cc="http://creativecommons.org/ns#"
   xmlns:rdf="http://www.w3.org/1999/02/22-rdf-syntax-ns#"
   xmlns:svg="http://www.w3.org/2000/svg"
   xmlns="http://www.w3.org/2000/svg"
   xmlns:sodipodi="http://sodipodi.sourceforge.net/DTD/sodipodi-0.dtd"
   xmlns:inkscape="http://www.inkscape.org/namespaces/inkscape"
   width="2000"
   height="2048"
   id="svg2992"
   version="1.1"
   inkscape:version="0.91 r13725"
   sodipodi:docname="ക.svg">
  <defs
     id="defs5498">
    <inkscape:path-effect
       effect="spiro"
       id="path-effect3846"
       is_visible="true" />
    <inkscape:path-effect
       effect="spiro"
       id="path-effect3801"
       is_visible="true" />
    <inkscape:path-effect
       is_visible="true"
       id="path-effect3846-9"
       effect="spiro" />
    <inkscape:path-effect
       is_visible="true"
       id="path-effect3801-9"
       effect="spiro" />
    <inkscape:path-effect
       is_visible="true"
       id="path-effect4500"
       effect="spiro" />
    <inkscape:path-effect
       is_visible="true"
       id="path-effect4500-8"
       effect="spiro" />
    <inkscape:path-effect
       is_visible="true"
       id="path-effect4500-0"
       effect="spiro" />
    <inkscape:path-effect
       is_visible="true"
       id="path-effect4500-0-5"
       effect="spiro" />
    <inkscape:path-effect
       is_visible="true"
       id="path-effect4500-0-5-7"
       effect="spiro" />
    <inkscape:path-effect
       is_visible="true"
       id="path-effect4500-0-5-1"
       effect="spiro" />
    <inkscape:path-effect
       is_visible="true"
       id="path-effect4500-0-5-18"
       effect="spiro" />
    <inkscape:path-effect
       effect="spiro"
       id="path-effect4372-52-4-6-8"
       is_visible="true" />
    <inkscape:path-effect
       effect="spiro"
       id="path-effect4372-52-4-6-8-4"
       is_visible="true" />
    <inkscape:path-effect
       effect="spiro"
       id="path-effect4372-52-4-6-8-7"
       is_visible="true" />
    <inkscape:path-effect
       is_visible="true"
       id="path-effect4500-0-5-18-9"
       effect="spiro" />
    <inkscape:path-effect
       is_visible="true"
       id="path-effect4500-0-5-18-2"
       effect="spiro" />
    <inkscape:path-effect
       is_visible="true"
       id="path-effect4500-0-5-18-3"
       effect="spiro" />
    <inkscape:path-effect
       is_visible="true"
       id="path-effect4500-0-5-18-6"
       effect="spiro" />
    <inkscape:path-effect
       is_visible="true"
       id="path-effect4500-0-5-18-7"
       effect="spiro" />
    <inkscape:path-effect
       is_visible="true"
       id="path-effect4500-0-5-18-70"
       effect="spiro" />
    <inkscape:path-effect
       is_visible="true"
       id="path-effect4500-0-5-18-68"
       effect="spiro" />
    <inkscape:path-effect
       is_visible="true"
       id="path-effect4500-0-5-18-68-2"
       effect="spiro" />
    <inkscape:path-effect
       is_visible="true"
       id="path-effect4500-0-5-18-8"
       effect="spiro" />
    <inkscape:path-effect
       is_visible="true"
       id="path-effect4500-0-5-18-8-6"
       effect="spiro" />
  </defs>
  <sodipodi:namedview
     inkscape:window-height="851"
     inkscape:window-width="1600"
     inkscape:pageshadow="2"
     inkscape:pageopacity="0.0"
     borderopacity="1.0"
     bordercolor="#666666"
     pagecolor="#ffffff"
     id="base"
     showgrid="true"
     showguides="true"
     inkscape:guide-bbox="true"
     inkscape:zoom="0.32102648"
     inkscape:cx="2434.7086"
     inkscape:cy="140.7783"
     inkscape:window-x="1599"
     inkscape:window-y="-1"
     inkscape:current-layer="layer1-2"
     inkscape:window-maximized="1">
    <sodipodi:guide
       orientation="horizontal"
       position="0,600"
       id="guide5596" />
    <inkscape:grid
       type="xygrid"
       id="grid3769"
       empspacing="3"
       visible="true"
       enabled="true"
       snapvisiblegridlinesonly="true"
       spacingx="4px"
       units="px"
       dotted="true"
       spacingy="4px" />
    <sodipodi:guide
       orientation="0,1"
       position="-1040,1600"
       id="guide2985" />
  </sodipodi:namedview>
  <metadata
     id="metadata5594">
    <rdf:RDF>
      <cc:Work
         rdf:about="">
        <dc:format>image/svg+xml</dc:format>
        <dc:type
           rdf:resource="http://purl.org/dc/dcmitype/StillImage" />
        <dc:title />
      </cc:Work>
    </rdf:RDF>
  </metadata>
  <g
     inkscape:label="Layer 1"
     inkscape:groupmode="layer"
     id="layer1"
     transform="translate(0,1048)">
    <g
       id="layer1-2"
       inkscape:label="Layer 1"
       transform="translate(-900.90145,-124.23254)">
      <path
         sodipodi:nodetypes="aaaaacaassac"
         inkscape:connector-curvature="0"
         inkscape:original-d="m 1754.08,-423.09982 c 185.8958,-1.05819 355.4605,239.1003 361.2156,424.909975 C 2121.5185,202.72315 1954.9075,485.69852 1753.9014,484.54926 1554.607,483.40979 1394.9061,201.05691 1401.081,1.854925 1406.7865,-182.2048 1569.9348,-422.0516 1754.08,-423.09982 Z m -330.2561,627.4094 c 0,0 -137.1513,275.32013 -263.8413,273.61828 C 1050.8606,476.462 923.95166,344.30225 939.1405,236.23254 964.30435,57.189941 1124.0082,-46.745426 1401.2186,-47.825682 l 709.6575,-2.76545 c 173.9341,-0.6778 377.1,127.406274 383.1239,286.823672 4.7112,124.68002 -281.8572,246.29705 -281.8572,246.29705"
         inkscape:path-effect="#path-effect4500-0-5-18"
         id="path4498-7-1-0"
         d="m 1754.08,-423.09982 c 51.3681,-0.61789 102.5836,13.05505 147.8162,37.40818 45.2326,24.35312 84.5241,59.20508 115.7712,99.98103 62.4942,81.55189 91.8369,184.94057 97.6282,287.520765 6.3608,112.668935 -15.6134,229.526195 -78.4504,323.261265 -31.4185,46.86753 -72.7766,87.3463 -121.5403,115.7326 -48.7638,28.38631 -104.9836,44.43885 -161.4035,43.74524 -55.7421,-0.68528 -110.8914,-17.69923 -158.563,-46.59676 -47.6716,-28.89752 -87.9206,-69.45002 -118.433,-116.10452 -61.0247,-93.309 -82.0796,-208.67613 -75.8244,-319.993055 5.6922,-101.297723 34.0644,-203.392335 94.8659,-284.613015 30.4008,-40.61033 68.6822,-75.55342 112.9227,-100.37659 44.2404,-24.82317 94.4853,-39.35499 145.2104,-39.96514 z m -330.2561,627.4094 c 8.3519,71.9116 -17.0253,147.02962 -67.2767,199.14319 -50.2515,52.11358 -124.3968,80.20603 -196.5646,74.47509 -60.0117,-4.76561 -118.0304,-32.56416 -158.8158,-76.84348 C 960.38135,356.80505 937.39429,296.40779 939.1405,236.23254 940.60513,185.7607 959.08353,136.32288 988.93953,95.602221 1018.7955,54.881567 1059.68,22.816043 1104.9982,0.54933903 1195.6348,-43.984069 1300.2332,-47.432154 1401.2186,-47.825682 l 709.6575,-2.76545 c 45.4772,-0.177219 91.2061,0.02979 136.023,7.753238 44.8169,7.72345 88.6445,23.049889 126.7125,47.9303201 38.068,24.8804309 70.0507,59.2274429 91.18,99.4985039 21.1294,40.27107 31.3038,86.21236 29.2084,131.64161 -3.2114,69.62499 -35.9032,137.41319 -88.3873,183.27571 -52.4841,45.86251 -124.0428,69.17222 -193.4699,63.02134"
         style="fill:none;fill-rule:evenodd;stroke:#000000;stroke-width:140;stroke-linecap:round;stroke-linejoin:round;stroke-miterlimit:4;stroke-dasharray:none;stroke-opacity:1" />
      <path
         style="color:#000000;font-style:normal;font-variant:normal;font-weight:normal;font-stretch:normal;font-size:medium;line-height:normal;font-family:sans-serif;text-indent:0;text-align:start;text-decoration:none;text-decoration-line:none;text-decoration-style:solid;text-decoration-color:#000000;letter-spacing:normal;word-spacing:normal;text-transform:none;direction:ltr;block-progression:tb;writing-mode:lr-tb;baseline-shift:baseline;text-anchor:start;white-space:normal;clip-rule:nonzero;display:inline;overflow:visible;visibility:visible;opacity:1;isolation:auto;mix-blend-mode:normal;color-interpolation:sRGB;color-interpolation-filters:linearRGB;solid-color:#000000;solid-opacity:1;fill:#000000;fill-opacity:1;fill-rule:evenodd;stroke:none;stroke-width:120;stroke-linecap:round;stroke-linejoin:round;stroke-miterlimit:4;stroke-dasharray:none;stroke-dashoffset:0;stroke-opacity:1;color-rendering:auto;image-rendering:auto;shape-rendering:auto;text-rendering:auto;enable-background:accumulate"
         d="m -1762.8379,529.99023 c -4.2242,0.001 -8.4526,0.092 -12.6816,0.27344 -48.0121,2.05953 -95.1706,15.68926 -136.9278,40.15625 -41.8074,24.49651 -76.5612,58.96136 -101.9043,99.42774 -1.706,2.72414 -3.2439,5.51159 -4.8554,8.27148 -8.9606,-11.97248 -18.6095,-23.47839 -29.1055,-34.29492 -72.3398,-74.54878 -175.4032,-114.31284 -279.0684,-107.67188 -92.9605,5.95522 -181.022,48.73508 -243.1621,118.13282 -62.1404,69.39807 -94.9749,161.63466 -90.6582,254.68945 4.3461,93.68499 46.1163,183.04009 115.211,246.45699 69.0945,63.4172 161.6948,97.3904 255.4082,93.7071 a 60.006,60.006 0 1 0 -4.7129,-119.9063 c -60.9666,2.3963 -124.6023,-20.9521 -169.5528,-62.209 -44.9505,-41.2568 -73.655,-102.6611 -76.4824,-163.60934 -2.809,-60.55375 19.747,-123.91849 60.1856,-169.08008 40.4389,-45.16192 100.9369,-74.55208 161.4355,-78.42773 67.168,-4.3029 138.4062,23.18385 185.2774,71.48633 37.5525,38.69915 61.2283,92.63187 65.9277,147.00781 -0.4645,16.9176 -0.5286,33.47673 -0.4512,49.35352 l 1.3008,266.79689 0,0.035 a 60.006,60.006 0 0 0 119.9981,-0.5507 l 0,-0.035 -0,-0.2578 -1.1484,-267.85353 c 1.4202,-17.23114 1.592,-34.4681 0.4941,-51.58008 0.7078,-18.07041 2.0938,-35.30519 4.8047,-51.51953 5.2347,-31.30834 15.5166,-60.75263 30.8574,-85.24804 15.3104,-24.44673 36.5926,-45.36139 60.8692,-59.58594 24.327,-14.25407 52.8941,-22.57781 81.4042,-23.80078 39.8587,-1.70978 81.4072,10.8816 112.9981,34.41211 31.5115,23.47135 55.1435,59.554 63.6269,97.40625 7.3579,32.83009 4.7734,73.53903 1.7618,120.21679 -3.0304,46.96713 -6.2247,101.93345 12.4297,159.03325 13.2133,40.445 36.2553,76.4773 65.9707,105.6562 29.6613,29.1259 65.2684,50.79 103.5449,64.5137 76.7038,27.5014 159.7533,21.8285 232.2324,-7.0918 65.3965,-26.0942 122.48,-70.8709 163.1016,-128.7168 40.6434,-57.8772 63.55867,-127.13632 64.90035,-198.11916 1.75053,-92.61457 -33.60273,-183.35511 -97.54885,-250.37304 -63.9461,-67.01795 -152.9286,-106.58797 -245.5234,-109.18164 a 60.006,60.006 0 1 0 -3.3613,119.95312 c 59.8818,1.67735 120.7119,28.72728 162.0664,72.06836 41.3545,43.34108 65.5207,105.3711 64.3886,165.26563 -0.8753,46.30912 -16.3498,93.29539 -43.125,131.42383 -26.797,38.1595 -65.8084,68.8424 -109.3711,86.2246 -47.6852,19.0271 -102.1758,21.7516 -147.2578,5.5879 -22.6165,-8.1089 -43.4756,-20.9805 -59.9707,-37.1777 -16.441,-16.1443 -29.103,-36.2537 -35.9785,-57.2989 -9.8628,-30.18933 -9.6283,-69.36933 -6.7461,-114.04098 2.9009,-44.96104 8.3066,-97.41112 -4.4179,-154.1875 -15.053,-67.1651 -54.2398,-126.58111 -109.0391,-167.39844 -51.2999,-38.21077 -113.779,-58.36196 -177.1426,-58.33985 z"
         id="path4370-92-6-1-7-8"
         inkscape:connector-curvature="0" />
      <path
         style="color:#000000;font-style:normal;font-variant:normal;font-weight:normal;font-stretch:normal;font-size:medium;line-height:normal;font-family:sans-serif;text-indent:0;text-align:start;text-decoration:none;text-decoration-line:none;text-decoration-style:solid;text-decoration-color:#000000;letter-spacing:normal;word-spacing:normal;text-transform:none;direction:ltr;block-progression:tb;writing-mode:lr-tb;baseline-shift:baseline;text-anchor:start;white-space:normal;clip-rule:nonzero;display:inline;overflow:visible;visibility:visible;opacity:1;isolation:auto;mix-blend-mode:normal;color-interpolation:sRGB;color-interpolation-filters:linearRGB;solid-color:#000000;solid-opacity:1;fill:#000000;fill-opacity:1;fill-rule:evenodd;stroke:none;stroke-width:140;stroke-linecap:round;stroke-linejoin:round;stroke-miterlimit:4;stroke-dasharray:none;stroke-dashoffset:0;stroke-opacity:1;color-rendering:auto;image-rendering:auto;shape-rendering:auto;text-rendering:auto;enable-background:accumulate"
         d="m -1774.7188,-514.07227 c -63.5354,0.76423 -124.8231,18.7262 -178.621,48.91211 -53.6604,30.1086 -98.956,71.71717 -134.7071,119.47461 -46.9679,62.74135 -76.3811,134.22866 -92.8593,207.58399 -88.1639,1.96154 -183.0479,10.68991 -272.92,54.847654 -54.2351,26.647968 -104.1294,65.324053 -141.6426,116.488281 -37.687,51.401412 -61.395,113.779435 -63.3164,179.990235 -2.3022,79.33702 27.1143,156.33691 80.5098,214.30664 53.3064,57.87293 126.8832,93.01494 204.7598,99.19922 93.9347,7.45948 187.088,-27.83422 252.4961,-95.66602 15.4193,-15.9907 28.9024,-33.49904 40.4746,-52.08203 31.101,38.17891 68.5155,71.71199 111.6406,97.85352 57.7214,34.98948 124.5749,55.8771 193.9902,56.73047 70.266,0.86381 138.4146,-18.86183 197.4786,-53.24414 58.8968,-34.28496 107.6097,-82.26672 144.4687,-137.25 69.0722,-103.03641 94.1108,-225.53295 91.1367,-343.056645 16.9632,0.9981171 33.394,2.4827651 48.8848,5.1523438 37.0702,6.3884402 71.8127,18.9192752 100.3047,37.5410152 28.4017,18.562783 52.2552,44.388808 67.4902,73.425786 a 70.007,70.007 0 0 0 0,0.002 c 15.2485,29.0624 22.7843,63.0514 21.2695,95.89258 -2.3003,49.87179 -26.9295,100.94009 -64.5234,133.79101 -37.5938,32.85088 -91.5004,50.40972 -141.2305,46.00391 a 70.007,70.007 0 1 0 -12.3554,139.45508 c 89.1241,7.89591 178.3328,-21.16493 245.707,-80.03907 67.3743,-58.8741 108.12945,-143.38161 112.25195,-232.75976 2.67602,-58.01733 -10.13613,-115.9109 -37.14645,-167.390626 -27.0236,-51.50515677 -67.1369,-94.372235 -114.8711,-125.570313 -47.6441,-31.139121 -100.5556,-49.259901 -153.1192,-58.318361 -31.1396,-5.3664 -61.2068,-7.35712 -90.2187,-8.17969 -17.0472,-73.83326 -47.315,-145.61688 -95.3399,-208.2871 -36.7662,-47.97813 -83.2693,-89.49222 -138.1484,-119.03907 -55.0229,-29.6242 -117.4973,-46.54157 -181.8438,-45.76758 z m 1.6856,139.99024 c 38.3896,-0.46177 78.3467,9.9648 113.7891,29.04687 35.5859,19.15942 67.6665,47.35007 93.3945,80.92383 27.3242,35.65683 47.5582,77.64042 61.3789,122.88281 l -531.3926,2.07032 c 13.4294,-45.04207 33.1545,-86.91126 59.8926,-122.62891 25.0505,-33.46323 56.316,-61.74155 91.1367,-81.2793 34.6828,-19.46043 73.8861,-30.55957 111.8008,-31.01562 z m 291.0449,372.7656238 c 3.1405,96.2855412 -17.6002,192.3447262 -67.2656,266.4316362 -25.978,38.75178 -59.9826,71.72718 -98.6133,94.21485 -38.4634,22.39033 -82.7523,34.76947 -125.3262,34.24609 -42.0689,-0.51718 -85.5168,-13.65733 -123.1386,-36.46289 -37.7823,-22.90279 -70.8864,-55.95097 -96.1348,-94.55664 -18.2065,-27.83834 -32.3278,-58.71377 -42.7656,-91.44531 a 70.007,70.007 0 0 0 -5.0957,-17.19922 c -13.3155,-48.55833 -18.8185,-100.680941 -17.3067,-152.98437562 l 575.6465,-2.24414058 z m -715.7461,4.0195312 c -1.4367,65.767771 5.9187,133.029935 24.8282,197.597655 2.7903,47.81788 -15.8561,99.32518 -48.8926,133.58594 -35.0949,36.39536 -90.232,57.2856 -140.6328,53.2832 -42.1469,-3.34694 -84.6067,-23.80257 -112.8711,-54.48828 -28.1753,-30.58893 -44.7332,-74.38301 -43.543,-115.39648 1.0079,-34.73289 14.2563,-71.2316 36.2812,-101.27149 22.1989,-30.277078 54.0754,-55.731746 90.4766,-73.617186 55.0958,-27.070763 121.9391,-36.5191615 194.3535,-39.693359 z"
         id="path4498-7-1-0-1"
         inkscape:connector-curvature="0" />
      <path
         sodipodi:nodetypes="aaaaacaassac"
         inkscape:connector-curvature="0"
         inkscape:original-d="M 35.257243,-434.93252 C 225.24875,-436.01474 398.54925,-190.40242 404.43115,-0.37313188 410.79126,205.10245 240.50933,494.50399 35.074708,493.32863 -168.61061,492.16328 -331.83008,203.39837 -325.51914,-0.32734518 -319.68793,-188.56695 -152.9451,-433.8605 35.257243,-434.93252 Z M -302.27516,206.7249 c 0,0 -140.17306,281.57246 -269.65433,279.83196 -111.52621,-1.49914 -241.23124,-136.66015 -225.70776,-247.18405 25.71827,-183.10852 188.94076,-289.404185 472.25874,-290.508977 l 725.29279,-2.828251 c 177.76627,-0.693193 385.40838,130.299583 391.565,293.337228 4.8151,127.51142 -288.06706,251.89029 -288.06706,251.89029"
         inkscape:path-effect="#path-effect4500-0-5-18-68"
         id="path4498-7-1-0-4"
         d="m 35.257243,-434.93252 c 52.520508,-0.63175 104.884187,13.36036 151.122947,38.27582 46.23876,24.91546 86.396,60.56824 118.32475,102.27385 63.85751,83.41121 93.80781,189.12796 99.72621,294.00971812 C 410.93184,114.82753 388.51858,234.31302 324.31387,330.1838 292.21152,378.11919 249.94271,419.52754 200.09341,448.56906 150.24411,477.61058 92.762313,494.03779 35.074708,493.32863 -21.920242,492.62798 -78.307695,475.21795 -127.04052,445.65399 -175.77334,416.09004 -216.90849,374.60663 -248.0848,326.8892 -310.43742,231.45435 -331.91184,113.49178 -325.51914,-0.32734518 -319.70201,-103.89864 -290.74298,-208.29277 -228.6153,-291.36506 c 31.06383,-41.53614 70.18851,-77.28182 115.41311,-102.67765 45.224603,-25.39583 96.595921,-40.26597 148.459433,-40.88981 z M -302.27516,206.7249 c 8.61235,73.52759 -17.29107,150.3689 -68.65998,203.67663 -51.36891,53.30774 -127.19826,82.03894 -200.99435,76.15533 -61.35165,-4.89144 -120.65441,-33.34085 -162.3329,-78.6272 -41.67849,-45.28636 -65.15818,-107.03636 -63.37486,-168.55685 1.49561,-51.59489 20.36611,-102.13631 50.86768,-143.776716 30.50158,-41.640407 72.27832,-74.441503 118.59502,-97.223805 92.63339,-45.564605 199.5637,-49.105906 302.79604,-49.508456 l 725.29279,-2.828251 c 46.49401,-0.181302 93.24573,0.03092 139.06352,7.933838 45.81778,7.902918 90.62196,23.585061 129.53099,49.0372334 38.90903,25.4521716 71.58943,60.5841856 93.17017,101.7666766 21.58074,41.18249 31.95869,88.15524 29.80032,134.59948 -3.30719,71.16471 -36.71912,140.44439 -90.34936,187.3395 -53.63023,46.89511 -126.74786,70.76652 -197.7177,64.55079"
         style="fill:none;fill-rule:evenodd;stroke:#000000;stroke-width:70;stroke-linecap:round;stroke-linejoin:round;stroke-miterlimit:4;stroke-dasharray:none;stroke-opacity:1" />
      <path
         style="color:#000000;font-style:normal;font-variant:normal;font-weight:normal;font-stretch:normal;font-size:medium;line-height:normal;font-family:sans-serif;text-indent:0;text-align:start;text-decoration:none;text-decoration-line:none;text-decoration-style:solid;text-decoration-color:#000000;letter-spacing:normal;word-spacing:normal;text-transform:none;direction:ltr;block-progression:tb;writing-mode:lr-tb;baseline-shift:baseline;text-anchor:start;white-space:normal;clip-rule:nonzero;display:inline;overflow:visible;visibility:visible;opacity:1;isolation:auto;mix-blend-mode:normal;color-interpolation:sRGB;color-interpolation-filters:linearRGB;solid-color:#000000;solid-opacity:1;fill:#000000;fill-opacity:1;fill-rule:evenodd;stroke:none;stroke-width:70;stroke-linecap:round;stroke-linejoin:round;stroke-miterlimit:4;stroke-dasharray:none;stroke-dashoffset:0;stroke-opacity:1;color-rendering:auto;image-rendering:auto;shape-rendering:auto;text-rendering:auto;enable-background:accumulate"
         d="m 84.964844,614.66992 c -58.274185,0.70094 -115.170691,17.29079 -165.175782,45.3711 -49.935972,28.04148 -92.567242,67.12133 -126.304682,112.23242 -50.15923,67.069 -79.73473,145.74813 -94.12305,226.41601 -96.76239,0.98318 -199.44242,6.92895 -292.85547,52.87695 -50.77622,24.9759 -97.05417,61.0849 -131.38086,107.9473 -34.41313,46.9804 -55.89563,103.9888 -57.61914,163.4453 -2.06082,71.0926 24.62873,141.1414 72.60742,193.2734 47.93508,52.0845 115.01669,84.2105 185.30469,89.8145 84.68808,6.752 170.02777,-25.5841 228.97851,-86.7598 27.42513,-28.4603 48.302,-62.432 61.89844,-99.0859 2.14372,3.4805 4.20617,6.9985 6.44922,10.4316 33.8065,51.7431 78.51266,96.9805 132.191407,129.5449 53.759237,32.6132 116.000677,51.9634 179.837891,52.7481 64.616252,0.7942 128.067372,-17.4709 183.068362,-49.5137 54.91714,-31.9939 100.86089,-77.1578 135.68164,-129.1523 69.59064,-103.9132 92.81281,-230.9261 85.98047,-352.0039 -0.30926,-5.4804 -0.72896,-10.9699 -1.16407,-16.459 32.72683,0.4409 64.49491,2.0334 94.81836,7.2636 41.94132,7.2343 82.20039,21.5166 116.32032,43.836 34.07491,22.2899 62.69172,53.1588 81.32812,88.7226 18.64325,35.577 27.7059,76.5745 25.83984,116.7286 -2.84862,61.2972 -32.23169,122.2243 -78.42578,162.6171 -46.19408,40.3929 -110.49553,61.3852 -171.625,56.0313 a 35.0035,35.0035 0 1 0 -6.10742,69.7344 c 80.81024,7.0775 162.74415,-19.673 223.81055,-73.0703 61.06641,-53.3974 98.50573,-131.0304 102.27148,-212.0625 2.45069,-52.7344 -9.24351,-105.6807 -33.76172,-152.4688 -24.52507,-46.8012 -61.26857,-86.1982 -105.01171,-114.8125 -43.69814,-28.585 -93.04597,-45.6667 -142.74024,-54.2383 -39.38219,-6.79274 -78.19078,-8.19461 -115.88281,-8.41013 C 464.22334,914.63894 433.7998,835.78638 382.625,768.94141 347.93826,723.63328 304.17487,684.6481 253.11133,657.13281 201.97568,629.57869 143.98006,613.96006 84.964844,614.66992 Z m 0.841797,69.9961 c 46.025799,-0.55362 92.757759,11.81304 134.099609,34.08984 41.41394,22.31565 77.96597,54.63519 107.13672,92.73828 40.55846,52.97781 66.69626,116.86309 80.7793,184.30664 l -637.05665,2.48438 c 13.60823,-67.18427 39.03091,-130.94205 78.77735,-184.08789 28.39023,-37.96122 64.008232,-70.37288 104.521483,-93.12305 40.4441232,-22.71136 86.289343,-35.86148 131.742188,-36.4082 z M 418.11133,1065.7598 c 0.60229,6.8059 1.11908,13.6198 1.5039,20.4394 6.16904,109.3234 -15.43518,221.2809 -74.2539,309.1094 -29.38391,43.8762 -67.97638,81.5301 -112.75781,107.6191 -44.69759,26.0402 -96.2098,40.6279 -146.968754,40.0039 -50.152699,-0.6165 -100.686157,-16.0869 -144.392578,-42.6015 -43.786908,-26.5636 -81.352298,-64.2927 -109.898438,-107.9844 -21.00066,-32.1429 -37.04011,-67.4246 -48.67969,-104.5391 -0.0212,-0.184 -0.0273,-0.3686 -0.0488,-0.5527 a 35.0035,35.0035 0 0 0 -3.81054,-12.5957 c -17.00674,-60.1889 -22.82801,-124.7172 -19.25,-188.4219 0.33558,-5.9749 0.75956,-11.9473 1.25976,-17.9121 l 657.29688,-2.5644 z m -727.50195,3.0605 c -0.33572,4.4985 -0.69302,8.9983 -0.94532,13.4902 -4.10661,73.1165 2.69128,148.3829 23.98633,219.4942 5.13457,60.8154 -17.35941,125.0128 -59.66016,168.9101 -43.78709,45.4398 -110.10562,70.568 -173.00976,65.5528 -52.4153,-4.179 -103.93945,-28.9514 -139.36133,-67.4395 -35.37827,-38.4408 -55.64844,-91.8934 -54.14258,-143.8418 1.26773,-43.7333 17.52911,-87.807 44.11914,-124.1074 26.67647,-36.4184 63.94948,-65.9112 105.80664,-86.5 74.3549,-36.5737 162.56715,-44.0565 253.20704,-45.5586 z"
         id="path4498-7-1-0-4-3"
         inkscape:connector-curvature="0" />
      <path
         sodipodi:nodetypes="aaaaacaassac"
         inkscape:connector-curvature="0"
         inkscape:original-d="m 3379.0591,572.91301 c 123.9926,-0.70582 237.0922,159.47996 240.9309,283.41506 4.1507,134.00904 -106.9789,322.75373 -241.05,321.98713 -132.9294,-0.76 -239.45,-189.08945 -235.3313,-321.95725 3.8056,-122.76791 112.6255,-282.74578 235.4504,-283.44494 z m -220.2809,418.48223 c 0,0 -91.4799,183.63866 -175.9822,182.50346 -72.7844,-0.9777 -157.4327,-89.1283 -147.3018,-161.2108 16.7843,-119.42149 123.3068,-188.7464 308.2063,-189.46689 l 473.3417,-1.84459 c 116.0141,-0.45209 251.5258,84.98001 255.5438,191.31148 3.1424,83.1616 -187.9988,164.2802 -187.9988,164.2802"
         inkscape:path-effect="#path-effect4500-0-5-18-8"
         id="path4498-7-1-0-5"
         d="m 3379.0591,572.91301 c 34.2625,-0.41213 68.4233,8.70772 98.5934,24.95126 30.1702,16.24354 56.3777,39.48981 77.2195,66.68737 41.6836,54.39514 61.2552,123.35541 65.118,191.77643 4.2427,75.15021 -10.4141,153.09403 -52.3264,215.61533 -20.9561,31.2607 -48.542,58.26 -81.0675,77.1937 -32.5254,18.9337 -70.024,29.6407 -107.6561,29.1781 -37.18,-0.4571 -73.9646,-11.8054 -105.7616,-31.08 -31.7969,-19.2747 -58.643,-46.3232 -78.9948,-77.4418 -40.7035,-62.2371 -54.7471,-139.18703 -50.5749,-213.43545 3.7967,-67.56561 22.7209,-135.66274 63.2756,-189.83695 20.2773,-27.08711 45.811,-50.39416 75.3194,-66.95122 29.5084,-16.55707 63.0217,-26.2498 96.8554,-26.65677 z m -220.2809,418.48223 c 5.5707,47.96506 -11.3559,98.06876 -44.8736,132.82856 -33.5177,34.7597 -82.9727,53.4974 -131.1086,49.6749 -40.0278,-3.1786 -78.7263,-21.7203 -105.9302,-51.2546 -27.2039,-29.5343 -42.5363,-69.8193 -41.3716,-109.9562 0.9769,-33.66474 13.302,-66.63978 33.216,-93.80047 19.914,-27.16068 47.1839,-48.54839 77.4112,-63.40028 60.4546,-29.70378 130.2218,-32.00365 197.5791,-32.26614 l 473.3417,-1.84459 c 30.3333,-0.11821 60.8345,0.0199 90.7274,5.17141 29.8929,5.15154 59.1259,15.37428 84.5173,31.96953 25.3913,16.59526 46.7238,39.50472 60.8171,66.36554 14.0933,26.86081 20.8796,57.50367 19.482,87.805 -2.142,46.4399 -23.9474,91.6546 -58.9543,122.2449 -35.0069,30.5903 -82.7366,46.1379 -129.0445,42.0353"
         style="fill:none;fill-rule:evenodd;stroke:#000000;stroke-width:120;stroke-linecap:round;stroke-linejoin:round;stroke-miterlimit:4;stroke-dasharray:none;stroke-opacity:1" />
      <path
         style="color:#000000;font-style:normal;font-variant:normal;font-weight:normal;font-stretch:normal;font-size:medium;line-height:normal;font-family:sans-serif;text-indent:0;text-align:start;text-decoration:none;text-decoration-line:none;text-decoration-style:solid;text-decoration-color:#000000;letter-spacing:normal;word-spacing:normal;text-transform:none;direction:ltr;block-progression:tb;writing-mode:lr-tb;baseline-shift:baseline;text-anchor:start;white-space:normal;clip-rule:nonzero;display:inline;overflow:visible;visibility:visible;opacity:1;isolation:auto;mix-blend-mode:normal;color-interpolation:sRGB;color-interpolation-filters:linearRGB;solid-color:#000000;solid-opacity:1;fill:#000000;fill-opacity:1;fill-rule:evenodd;stroke:none;stroke-width:120;stroke-linecap:round;stroke-linejoin:round;stroke-miterlimit:4;stroke-dasharray:none;stroke-dashoffset:0;stroke-opacity:1;color-rendering:auto;image-rendering:auto;shape-rendering:auto;text-rendering:auto;enable-background:accumulate"
         d="m 4581.4531,520.27734 c -44.814,0.53905 -87.7935,13.17251 -125.4941,34.32618 -37.5825,21.08742 -69.1289,50.10707 -93.9922,83.32031 -30.4711,40.70427 -50.1923,86.43865 -61.9023,133.36914 -56.7405,1.76838 -118.1186,8.63124 -177.2872,37.70312 -37.8704,18.60728 -72.8626,45.66318 -99.3398,81.77539 -26.6263,36.31564 -43.4344,80.38186 -44.8027,127.53712 -1.6413,56.5613 19.2022,111.0767 57.2148,152.3457 37.9362,41.1859 89.9719,66.0214 145.3125,70.416 66.7933,5.3041 132.5397,-19.6054 179.0488,-67.8379 6.7551,-7.0053 12.939,-14.4379 18.6621,-22.1621 19.1715,21.0435 41.3331,39.6884 66.3184,54.834 40.4111,24.4962 87.2271,39.1664 136.127,39.7676 49.5,0.6085 97.2238,-13.2472 138.5781,-37.3203 41.2109,-23.9897 75.1012,-57.4215 100.7207,-95.6387 45.0907,-67.2627 62.8825,-145.82658 63.1758,-221.89259 5.8108,0.58214 11.4766,1.28177 16.9023,2.2168 23.2529,4.00724 44.6975,11.83376 61.8809,23.06445 17.106,11.18016 31.4706,26.78595 40.5117,44.01758 9.0525,17.25337 13.5777,37.65243 12.6777,57.16406 -1.361,29.5086 -16.2561,60.3926 -38.5,79.8301 -22.2439,19.4375 -54.8428,30.0561 -84.2676,27.4492 a 60.006,60.006 0 1 0 -10.5898,119.5313 c 63.1911,5.5983 126.0484,-14.8761 173.8184,-56.6192 47.7699,-41.7431 76.4872,-101.2909 79.4101,-164.6621 1.8953,-41.09103 -7.153,-81.97706 -26.2871,-118.44531 -19.1455,-36.49001 -47.4465,-66.70253 -81.123,-88.71289 -33.5994,-21.95981 -70.6195,-34.57917 -107.1524,-40.875 -17.9177,-3.08779 -35.2333,-4.60473 -51.8711,-5.35938 -12.0969,-47.2994 -32.389,-93.28576 -63.5918,-134.0039 -25.5725,-33.37088 -57.9616,-62.32619 -96.4004,-83.02149 -38.5617,-20.76161 -82.3709,-32.66313 -127.7578,-32.11719 z m 1.4434,119.99219 c 23.1381,-0.27832 47.6493,6.05969 69.4277,17.78516 21.9017,11.79177 41.928,29.32926 58.0391,50.35351 13.6514,17.81444 24.4392,38.41879 32.7871,60.62891 l -317.0957,1.23633 c 8.1232,-22.08957 18.6383,-42.61788 31.9765,-60.43555 15.6914,-20.96098 35.2123,-38.55533 56.6465,-50.58203 21.3163,-11.96047 45.3654,-18.71144 68.2188,-18.98633 z m 180.8242,248.6875 c -0.1433,57.56289 -13.7762,113.67307 -42.7793,156.93747 -16.2927,24.3043 -37.5759,44.8703 -61.416,58.7481 -23.6966,13.7942 -50.9683,21.3538 -76.7324,21.0371 -25.4602,-0.313 -52.2136,-8.3396 -75.3965,-22.3926 -23.3204,-14.1364 -44.043,-34.755 -59.8828,-58.9746 -11.3443,-17.3457 -20.1591,-36.7522 -26.7715,-57.39258 a 60.006,60.006 0 0 0 -3.166,-10.96484 c -7.4825,-27.1315 -11.3416,-56.10898 -11.5098,-85.60547 l 357.6543,-1.39258 z m -477.6973,3.49609 c 0.2675,39.72964 5.3683,80.11615 16.5918,119.24218 1.3531,27.8582 -9.6415,58.3872 -28.7871,78.2422 -20.5263,21.2869 -53.6894,33.8507 -83.1679,31.5098 -24.715,-1.9626 -50.0753,-14.2091 -66.5469,-32.0918 -16.3952,-17.7997 -26.2174,-43.8539 -25.5293,-67.5664 0.5854,-20.1743 8.4272,-42.05875 21.6289,-60.06449 13.3508,-18.20915 32.8983,-33.92889 55.4824,-45.02539 30.7591,-15.11316 68.5287,-21.54172 110.3281,-24.2461 z"
         id="path4498-7-1-0-5-2"
         inkscape:connector-curvature="0" />
    </g>
  </g>
</svg>
