<?xml version="1.0" encoding="UTF-8" standalone="no"?>
<!-- Created with Inkscape (http://www.inkscape.org/) -->

<svg
   xmlns:dc="http://purl.org/dc/elements/1.1/"
   xmlns:cc="http://creativecommons.org/ns#"
   xmlns:rdf="http://www.w3.org/1999/02/22-rdf-syntax-ns#"
   xmlns:svg="http://www.w3.org/2000/svg"
   xmlns="http://www.w3.org/2000/svg"
   xmlns:sodipodi="http://sodipodi.sourceforge.net/DTD/sodipodi-0.dtd"
   xmlns:inkscape="http://www.inkscape.org/namespaces/inkscape"
   width="2000"
   height="2048"
   id="svg2992"
   version="1.1"
   inkscape:version="0.91pre3 r13670"
   sodipodi:docname="ക്‍.svg">
  <defs
     id="defs5498">
    <inkscape:path-effect
       effect="spiro"
       id="path-effect3846"
       is_visible="true" />
    <inkscape:path-effect
       effect="spiro"
       id="path-effect3801"
       is_visible="true" />
    <inkscape:path-effect
       is_visible="true"
       id="path-effect4500-0-5-18"
       effect="spiro" />
    <inkscape:path-effect
       is_visible="true"
       id="path-effect4500-0-5-18-9"
       effect="spiro" />
  </defs>
  <sodipodi:namedview
     inkscape:window-height="853"
     inkscape:window-width="1600"
     inkscape:pageshadow="2"
     inkscape:pageopacity="0.0"
     borderopacity="1.0"
     bordercolor="#666666"
     pagecolor="#ffffff"
     id="base"
     showgrid="true"
     showguides="true"
     inkscape:guide-bbox="true"
     inkscape:zoom="0.32102648"
     inkscape:cx="1492.6461"
     inkscape:cy="179.61871"
     inkscape:window-x="1598"
     inkscape:window-y="-3"
     inkscape:current-layer="layer1"
     inkscape:window-maximized="1"
     inkscape:snap-grids="false">
    <sodipodi:guide
       orientation="horizontal"
       position="0,600"
       id="guide5596" />
    <inkscape:grid
       type="xygrid"
       id="grid3769"
       empspacing="3"
       visible="true"
       enabled="true"
       snapvisiblegridlinesonly="true"
       spacingx="4px"
       units="px"
       dotted="true"
       spacingy="4px" />
    <sodipodi:guide
       orientation="0,1"
       position="-1040,1600"
       id="guide2985" />
  </sodipodi:namedview>
  <metadata
     id="metadata5594">
    <rdf:RDF>
      <cc:Work
         rdf:about="">
        <dc:format>image/svg+xml</dc:format>
        <dc:type
           rdf:resource="http://purl.org/dc/dcmitype/StillImage" />
        <dc:title />
      </cc:Work>
    </rdf:RDF>
  </metadata>
  <g
     inkscape:label="Layer 1"
     inkscape:groupmode="layer"
     id="layer1"
     transform="translate(0,1048)">
    <path
       style="color:#000000;font-style:normal;font-variant:normal;font-weight:normal;font-stretch:normal;font-size:medium;line-height:normal;font-family:sans-serif;text-indent:0;text-align:start;text-decoration:none;text-decoration-line:none;text-decoration-style:solid;text-decoration-color:#000000;letter-spacing:normal;word-spacing:normal;text-transform:none;direction:ltr;block-progression:tb;writing-mode:lr-tb;baseline-shift:baseline;text-anchor:start;white-space:normal;clip-rule:nonzero;display:inline;overflow:visible;visibility:visible;opacity:1;isolation:auto;mix-blend-mode:normal;color-interpolation:sRGB;color-interpolation-filters:linearRGB;solid-color:#000000;solid-opacity:1;fill:#000000;fill-opacity:1;fill-rule:evenodd;stroke:none;stroke-width:140;stroke-linecap:round;stroke-linejoin:round;stroke-miterlimit:4;stroke-dasharray:none;stroke-dashoffset:0;stroke-opacity:1;color-rendering:auto;image-rendering:auto;shape-rendering:auto;text-rendering:auto;enable-background:accumulate"
       d="m 1438.7422,-1046.1875 a 70.007,70.007 0 0 0 -49.5664,119.87695 c 49.7752,50.44248 82.5734,119.49846 90.2168,189.95117 10.2014,94.03128 -22.3601,196.13095 -68.2207,296.31055 -16.8136,36.72819 -35.5611,73.94377 -54.2207,112.31055 -18.6418,-48.07833 -44.2068,-93.86005 -77.8028,-135.02539 -37.3692,-45.78881 -83.9259,-84.84631 -137.9843,-112.37305 -54.1714,-27.58425 -114.9696,-43.01359 -177.30082,-42.20312 -61.47393,0.79932 -121.0328,17.34799 -173.91406,45.54492 -52.77268,28.13904 -98.04569,67.3147 -134.3418,112.86328 -49.22564,61.77405 -80.75467,133.44204 -98.13476,207.53516 -67.76402,3.62217 -137.60556,12.73533 -206.88086,37.00586 -57.78131,20.24361 -114.37492,51.3928 -161.07032,97.58984 C 142.43302,-70.214872 106.93451,-9.1631165 96.587891,60.779297 85.147075,138.11842 106.3191,216.34052 152.96875,277.82031 199.4696,339.104 267.83471,379.54873 342.60938,392.63477 c 93.78762,16.41342 190.76097,-11.44405 261.5371,-75.13282 22.67807,-20.40713 41.93327,-43.90215 57.48243,-69.5 29.86718,34.91228 65.11047,65.59627 105.26953,89.79297 a 70.007,70.007 0 0 0 0,0.002 c 55.70486,33.56336 119.71913,54.02832 186.30273,56.46093 69.13333,2.52577 136.92453,-14.54418 196.56253,-46.28125 56.1984,-29.90667 103.995,-72.23798 141.7265,-121.64844 15.6366,30.25898 35.7702,58.63859 60.8457,83.41993 38.7506,38.29575 88.0674,66.8136 143.8399,78.33984 86.5636,17.88969 176.062,-7.99802 240.5195,-67.09961 a 70.007,70.007 0 0 0 0,0 c 64.2125,-58.87707 96.9691,-144.23455 90.873,-230.183592 -5.301,-74.739705 -38.8469,-142.082346 -86.4453,-194.156248 -47.1974,-51.63533 -106.4635,-87.1505 -167.7617,-110.22461 -33.7809,-12.71593 -67.8122,-21.65414 -101.7754,-28.06055 21.5111,-45.3676 44.6539,-91.5894 66.8789,-140.13867 49.9891,-109.19806 94.7446,-234.78405 80.1094,-369.68359 -11.14,-102.68281 -57.2023,-199.66521 -129.7481,-273.18362 a 70.007,70.007 0 0 0 -50.0859,-21.5449 z m -473.05861,568.83594 c 37.77161,-0.49113 76.91311,9.13014 111.95311,26.97265 35.153,17.90005 67.1196,44.36154 93.0488,76.13282 27.5737,33.7862 48.4079,73.94011 62.7344,117.31836 -6.7357,0.0348 -13.5627,0.0568 -20.2187,0.0918 l -509.57425,2.68164 c 13.99512,-43.34726 34.38599,-83.5427 61.46875,-117.52929 25.24098,-31.67531 56.36408,-58.25576 90.72266,-76.57618 34.25002,-18.26252 72.6037,-28.60729 109.86523,-29.09179 z m 290.35551,360.42968 c 0.2837,7.7e-4 0.5601,0.009 0.8437,0.01 1.8441,91.49718 -21.5578,182.920643 -71.9492,252.22266 -26.9957,37.12656 -61.8645,68.28194 -100.9395,89.07617 -38.9356,20.72009 -83.2269,31.51591 -125.6816,29.96484 -40.91689,-1.49488 -82.7272,-14.51789 -119.16211,-36.4707 -36.55742,-22.02664 -68.74844,-53.43293 -93.52734,-90.14258 -45.67809,-67.671531 -66.4919,-154.501377 -64.84375,-241.75195 2.51256,-0.0146 4.9826,-0.0453 7.50195,-0.0586 l 525.65625,-2.76562 c 14.1336,-0.0744 28.1754,-0.12161 42.1016,-0.084 z m -715.3184,7.37891 c -0.56092,61.289171 7.45556,123.454026 25.89258,182.957032 a 70.007,70.007 0 0 0 0.0664,1.402344 c 3.41259,50.157154 -18.81137,104.989104 -56.18164,138.617184 -37.37027,33.6281 -94.23341,49.96328 -143.75391,41.29688 -39.8557,-6.975 -78.40552,-30.11298 -102.24805,-61.53516 -23.69371,-31.22605 -35.00492,-74.14908 -29.41601,-111.929685 5.15248,-34.830425 24.70024,-70.639922 52.9043,-98.542969 28.59712,-28.291923 66.72177,-50.212417 108.89648,-64.988281 44.2819,-15.514115 92.69998,-23.257135 143.83984,-27.277345 z m 875.1777,1.08008 c 38.0835,5.10622 74.3359,13.185708 108.1446,25.912109 44.5722,16.778045 84.6224,41.792207 113.7461,73.6542966 28.7228,31.4235114 47.4286,71.5060364 50.1308,109.6054644 3.0094,42.42896 -15.1898,88.98836 -45.8379,117.08985 -30.4032,27.87697 -78.0969,41.34526 -117.5703,33.1875 -26.3445,-5.4445 -52.8765,-20.17052 -73.7676,-40.81641 -21.0853,-20.83798 -37.7174,-48.5149 -48.0449,-78.9707 -20.7749,-61.265398 -16.5838,-134.9419442 3.1406,-206.820314 3.0083,-10.962457 6.4116,-21.903392 10.0586,-32.841796 z"
       id="path4498-7-1-0"
       inkscape:connector-curvature="0" />
    <path
       sodipodi:nodetypes="aaaaacaassaaaac"
       inkscape:connector-curvature="0"
       inkscape:original-d="m 1131.4926,1247.4884 c 181.2574,-1.0389 356.2972,225.2805 361.2156,406.4742 5.3773,198.1021 -172.0893,468.6889 -370.2334,465.1749 -192.80499,-3.4193 -351.52661,-272.4425 -343.98121,-465.1301 7.0222,-179.3266 173.53792,-405.4904 352.99901,-406.519 z m -328.25611,617.4094 c 0,0 -156.06479,265.9975 -281.84129,253.6183 C 416.75619,2108.2174 307.84319,1968.056 332.55309,1865.8562 378.07169,1677.592 577.4225,1612.2209 854.63121,1610.7626 l 525.65749,-2.7655 c 173.933,-0.915 518.0498,79.8776 544.1746,282.5931 14.213,110.2858 -138.9007,248.1245 -247.401,223.7799 -145.7165,-32.6949 -165.9959,-264.4643 -172.0087,-413.6826 -9.1673,-227.5006 225.4275,-422.5577 210.6497,-649.7628 -5.5463,-85.27272 -109.9821,-231.56801 -109.9821,-231.56801"
       inkscape:path-effect="#path-effect4500-0-5-18-9"
       id="path4498-7-1-0-9"
       d="m 1131.4926,1247.4884 c 50.0514,-0.6508 100.0212,11.8733 144.6269,34.5867 44.6057,22.7134 83.8668,55.4734 115.516,94.2534 63.2985,77.5601 95.0839,177.7021 101.0727,277.6341 6.6798,111.4625 -18.7728,227.0362 -84.441,317.3479 -32.834,45.1559 -75.3822,83.4755 -124.669,109.7041 -49.2868,26.2286 -105.3294,40.1613 -161.1234,38.1229 -53.7502,-1.9637 -106.6619,-18.7078 -152.73174,-46.4659 -46.06988,-27.7581 -85.32842,-66.356 -115.4202,-110.9367 -60.18356,-89.1612 -82.58893,-200.3679 -75.82927,-307.7275 6.2049,-98.5487 37.03925,-197.2571 98.57632,-274.481 30.76854,-38.612 68.96667,-71.4899 112.53231,-94.7196 43.56568,-23.2298 92.52268,-36.6765 141.89038,-37.3184 z m -328.25611,617.4094 c 4.93787,72.5753 -25.1225,146.7445 -79.1957,195.4029 -54.0732,48.6585 -130.99153,70.7553 -202.64559,58.2154 -57.31518,-10.0305 -110.77266,-41.822 -145.94435,-88.1749 -35.17169,-46.3529 -51.41263,-106.9251 -42.89776,-164.485 7.74956,-52.3864 35.27221,-100.8175 72.91848,-138.062 37.64627,-37.2444 85.00549,-63.7786 134.9835,-81.2884 99.95601,-35.0194 208.26459,-35.186 314.17614,-35.7432 l 525.65749,-2.7655 c 113.121,-0.5951 229.2624,-1.0794 335.1327,38.7727 52.9352,19.9261 102.5934,50.1911 140.7539,91.9398 38.1606,41.7487 64.2864,95.461 68.288,151.8806 4.5527,64.189 -20.9257,130.1476 -68.356,173.6369 -47.4304,43.4893 -116.0265,63.1667 -179.045,50.143 -41.0585,-8.4854 -78.9833,-30.107 -108.804,-59.5778 -29.8208,-29.4708 -51.6683,-66.5749 -65.1323,-106.2803 -26.928,-79.411 -20.2624,-166.9615 1.9276,-247.8245 30.469,-111.0324 88.56,-212.0778 136.4848,-316.7666 47.9249,-104.6888 86.5832,-218.5308 74.1649,-332.9962 -9.3917,-86.56775 -48.8216,-169.58759 -109.9821,-231.56801"
       style="fill:none;fill-rule:evenodd;stroke:#000000;stroke-width:140;stroke-linecap:round;stroke-linejoin:round;stroke-miterlimit:4;stroke-dasharray:none;stroke-opacity:1" />
  </g>
</svg>
