<?xml version="1.0" encoding="UTF-8" standalone="no"?>
<!-- Created with Inkscape (http://www.inkscape.org/) -->

<svg
   xmlns:dc="http://purl.org/dc/elements/1.1/"
   xmlns:cc="http://creativecommons.org/ns#"
   xmlns:rdf="http://www.w3.org/1999/02/22-rdf-syntax-ns#"
   xmlns:svg="http://www.w3.org/2000/svg"
   xmlns="http://www.w3.org/2000/svg"
   xmlns:sodipodi="http://sodipodi.sourceforge.net/DTD/sodipodi-0.dtd"
   xmlns:inkscape="http://www.inkscape.org/namespaces/inkscape"
   width="2000"
   height="2048"
   id="svg2992"
   version="1.1"
   inkscape:version="0.91 r13725"
   sodipodi:docname="ക്തൃ.svg">
  <defs
     id="defs5498">
    <inkscape:path-effect
       effect="spiro"
       id="path-effect3846"
       is_visible="true" />
    <inkscape:path-effect
       effect="spiro"
       id="path-effect3801"
       is_visible="true" />
    <inkscape:path-effect
       is_visible="true"
       id="path-effect4500-0-5-18-2-1"
       effect="spiro" />
    <inkscape:path-effect
       is_visible="true"
       id="path-effect4141-3-4-6-8-0"
       effect="spiro" />
    <inkscape:path-effect
       is_visible="true"
       id="path-effect4500-0-5-18-2-1-8"
       effect="spiro" />
    <inkscape:path-effect
       is_visible="true"
       id="path-effect4141-3-4-6-8-0-3"
       effect="spiro" />
    <inkscape:path-effect
       is_visible="true"
       id="path-effect4141-3-4-6-8-0-3-9"
       effect="spiro" />
    <inkscape:path-effect
       is_visible="true"
       id="path-effect4500-0-5-18-2-1-8-4"
       effect="spiro" />
  </defs>
  <sodipodi:namedview
     inkscape:window-height="704"
     inkscape:window-width="1366"
     inkscape:pageshadow="2"
     inkscape:pageopacity="0.0"
     borderopacity="1.0"
     bordercolor="#666666"
     pagecolor="#ffffff"
     id="base"
     showgrid="true"
     showguides="true"
     inkscape:guide-bbox="true"
     inkscape:zoom="0.16051324"
     inkscape:cx="-6108.2129"
     inkscape:cy="565.68636"
     inkscape:window-x="-4"
     inkscape:window-y="0"
     inkscape:current-layer="layer1"
     inkscape:window-maximized="1">
    <sodipodi:guide
       orientation="horizontal"
       position="0,600"
       id="guide5596" />
    <inkscape:grid
       type="xygrid"
       id="grid3769"
       empspacing="3"
       visible="true"
       enabled="true"
       snapvisiblegridlinesonly="true"
       spacingx="4px"
       units="px"
       dotted="true"
       spacingy="4px" />
    <sodipodi:guide
       orientation="0,1"
       position="-1040,1600"
       id="guide2985" />
  </sodipodi:namedview>
  <metadata
     id="metadata5594">
    <rdf:RDF>
      <cc:Work
         rdf:about="">
        <dc:format>image/svg+xml</dc:format>
        <dc:type
           rdf:resource="http://purl.org/dc/dcmitype/StillImage" />
        <dc:title />
      </cc:Work>
    </rdf:RDF>
  </metadata>
  <g
     inkscape:label="Layer 1"
     inkscape:groupmode="layer"
     id="layer1"
     transform="translate(0,1048)">
    <path
       style="color:#000000;font-style:normal;font-variant:normal;font-weight:normal;font-stretch:normal;font-size:medium;line-height:normal;font-family:sans-serif;text-indent:0;text-align:start;text-decoration:none;text-decoration-line:none;text-decoration-style:solid;text-decoration-color:#000000;letter-spacing:normal;word-spacing:normal;text-transform:none;direction:ltr;block-progression:tb;writing-mode:lr-tb;baseline-shift:baseline;text-anchor:start;white-space:normal;clip-rule:nonzero;display:inline;overflow:visible;visibility:visible;opacity:1;isolation:auto;mix-blend-mode:normal;color-interpolation:sRGB;color-interpolation-filters:linearRGB;solid-color:#000000;solid-opacity:1;fill:#000000;fill-opacity:1;fill-rule:evenodd;stroke:none;stroke-width:140;stroke-linecap:round;stroke-linejoin:round;stroke-miterlimit:4;stroke-dasharray:none;stroke-dashoffset:0;stroke-opacity:1;color-rendering:auto;image-rendering:auto;shape-rendering:auto;text-rendering:auto;enable-background:accumulate"
       d="M 978.72656 430.05664 C 976.78186 430.05038 974.83457 430.06061 972.88672 430.08594 C 911.41279 430.88525 851.85196 447.43197 798.9707 475.62891 C 746.19803 503.76794 700.92697 542.94362 664.63086 588.49219 C 615.40523 650.26624 583.8762 721.93423 566.49609 796.02734 C 498.73207 799.64952 428.89055 808.76266 359.61523 833.0332 C 301.83392 853.27682 245.24031 884.426 198.54492 930.62305 C 151.45646 977.20896 115.95793 1038.2607 105.61133 1108.2031 C 94.170526 1185.5422 115.34253 1263.7644 161.99219 1325.2441 C 208.49303 1386.5278 276.85814 1426.9726 351.63281 1440.0586 C 445.42044 1456.472 542.39378 1428.6145 613.16992 1364.9258 C 635.84799 1344.5187 655.10319 1321.0236 670.65234 1295.4258 C 700.51954 1330.3381 735.76279 1361.024 775.92188 1385.2207 C 831.62672 1418.7841 895.64098 1439.249 962.22461 1441.6816 C 1031.358 1444.2074 1099.1492 1427.1374 1158.7871 1395.4004 C 1218.2857 1363.7375 1268.5151 1318.2534 1307.1875 1265.0684 C 1376.0587 1170.3515 1405.6156 1055.7238 1405.9746 943.49609 C 1412.6923 944.88692 1419.3686 946.34792 1425.918 948.04102 C 1487.4628 963.95118 1545.4064 993.9244 1592.1113 1035.207 C 1602.5627 1113.9143 1631.6137 1190.0123 1677.6973 1255.7168 C 1756.3517 1367.8599 1880.3571 1443.6907 2016.0215 1462.6055 A 70.007 70.007 0 1 0 2035.3535 1323.9473 C 1939.6057 1310.5978 1847.8264 1254.4734 1792.3145 1175.3262 C 1736.8026 1096.179 1715.2885 990.77194 1735.3438 896.20117 C 1756.0627 798.50053 1821.1046 708.13079 1906.7949 651.40234 C 1992.9879 594.34114 2101.5207 568.19487 2207.7031 574.17383 C 2236.3085 575.78455 2264.8242 579.67786 2292.8652 585.73633 C 2274.6043 599.37842 2257.0416 614.05945 2240.332 629.82227 C 2148.7165 716.24695 2085.1339 832.75904 2068.5586 959.91797 C 2052.2789 1084.8092 2083.1965 1217.5625 2167.5312 1317.3203 C 2209.6188 1367.1046 2263.6864 1406.9443 2325.6445 1430.9453 C 2387.7334 1454.997 2456.1585 1462.3989 2522.8203 1449.8809 C 2594.3473 1436.4491 2659.1289 1400.9896 2710.043 1351.4785 C 2760.8038 1302.1165 2796.5365 1240.2759 2816.4707 1174.1953 C 2856.3221 1042.0906 2831.4088 901.85784 2770.6348 785.55469 C 2733.9459 715.34334 2684.2702 652.726 2625.248 600.68359 C 2729.8942 588.29508 2838.847 606.1764 2932.7402 652.5957 C 3035.9534 703.62267 3122.7717 790.22323 3172.7949 893.33984 C 3244.1745 1040.4798 3240.8003 1224.341 3174.7109 1378.6309 C 3108.8133 1532.4734 2983.4806 1661.3288 2834.4785 1746.9785 C 2743.235 1677.6073 2645.2422 1617.1824 2542.1445 1567.0781 C 2500.3684 1546.7754 2455.301 1526.8105 2405.418 1513.5039 C 2355.3405 1500.1454 2300.493 1493.6955 2244.2656 1502.4355 C 2187.4759 1511.263 2130.9131 1535.7394 2087.1191 1580.1426 C 2042.5508 1625.3308 2015.1119 1688.1584 2020.7461 1756.0391 C 2024.0601 1795.9661 2038.5762 1832.4614 2059.7129 1863.3359 C 2080.7212 1894.0227 2107.5971 1918.2983 2136.6191 1936.9473 C 2194.3842 1974.0658 2257.7408 1988.0101 2315.2363 1995.3496 C 2518.7804 2021.3328 2724.7884 1970.3772 2899.6016 1871.0957 C 3073.6834 1772.2296 3222.7966 1621.938 3303.4043 1433.7539 C 3384.4172 1244.6242 3390.4415 1021.2288 3298.7578 832.23438 C 3234.5942 699.9694 3126.0971 592.0123 2994.7891 527.0957 C 2863.5619 462.21905 2712.9374 441.75894 2569.3496 467.39062 C 2533.2882 473.8279 2497.689 483.24709 2463.0312 495.4707 C 2385.2031 459.85146 2300.9126 439.20164 2215.5762 434.39648 C 2198.8203 433.45298 2182.0094 433.12747 2165.1953 433.42969 L 2165.1934 433.42969 C 2047.4946 435.54519 1929.6457 468.37695 1829.5137 534.66602 C 1714.5744 610.75771 1627.5869 729.48277 1598.3906 867.1582 C 1598.3132 867.52309 1598.2425 867.8889 1598.166 868.25391 C 1555.1022 843.54444 1508.8027 824.86436 1460.959 812.49609 C 1437.2157 806.35813 1413.6003 802.05152 1390.1699 798.83203 C 1372.6178 722.10396 1339.8219 647.94734 1288.1719 584.66016 C 1250.8027 538.87136 1204.2459 499.81384 1150.1875 472.28711 C 1097.709 445.56487 1039.0123 430.2508 978.72656 430.05664 z M 978.25195 570.05664 C 1014.9209 570.19134 1052.7151 579.75999 1086.6602 597.04492 C 1121.8132 614.94495 1153.7798 641.40842 1179.709 673.17969 C 1207.3217 707.01372 1228.1738 747.23277 1242.502 790.68164 C 1235.775 790.68159 1228.8654 790.5529 1222.2246 790.58789 L 712.64844 793.26953 C 726.64355 749.92256 747.03653 709.72664 774.11914 675.74023 C 799.36011 644.06494 830.48321 617.48644 864.8418 599.16602 C 899.0918 580.90349 937.4455 570.55676 974.70703 570.07227 C 975.88739 570.05692 977.06908 570.0523 978.25195 570.05664 z M 2456.123 649.8457 C 2458.9603 651.54296 2461.8171 653.21017 2464.6191 654.96094 C 2541.0243 702.70044 2605.1237 771.11005 2646.5527 850.39258 C 2692.9513 939.18535 2709.4195 1044.3182 2682.4375 1133.7617 C 2668.9551 1178.4552 2644.6311 1219.8087 2612.4414 1251.1113 C 2580.405 1282.2649 2539.1725 1304.3644 2496.9824 1312.2871 C 2457.639 1319.6752 2414.7035 1315.3072 2376.2168 1300.3984 C 2337.5994 1285.439 2301.9916 1259.5194 2274.4453 1226.9355 C 2219.5129 1161.9571 2195.7815 1067.0289 2207.3848 978.01367 C 2219.3794 885.99578 2267.233 796.90677 2336.3984 731.66016 C 2371.3834 698.65745 2412.0635 671.19114 2456.123 649.8457 z M 1233.8105 930.56836 C 1244.6103 930.58617 1255.2732 930.70451 1265.9082 930.85742 C 1267.6864 1022.2391 1244.2849 1113.5196 1193.957 1182.7344 C 1166.9612 1219.861 1132.0926 1251.0163 1093.0176 1271.8105 C 1054.0819 1292.5307 1009.7907 1303.3265 967.33594 1301.7754 C 926.41905 1300.2805 884.60875 1287.2575 848.17383 1265.3047 C 811.6164 1243.278 779.42539 1211.8718 754.64648 1175.1621 C 708.9684 1107.4906 688.15458 1020.6607 689.80273 933.41016 C 692.31529 933.39556 694.78534 933.36486 697.30469 933.35156 L 1222.9609 930.58594 C 1226.5951 930.56681 1230.2106 930.56242 1233.8105 930.56836 z M 549.74414 937.88086 C 549.18321 999.17003 557.1997 1061.3349 575.63672 1120.8379 A 70.007 70.007 0 0 0 575.70312 1122.2402 C 579.11572 1172.3974 556.89176 1227.2293 519.52148 1260.8574 C 482.1512 1294.4855 425.28809 1310.8207 375.76758 1302.1543 C 335.91189 1295.1793 297.36205 1272.0413 273.51953 1240.6191 C 249.82582 1209.3931 238.51462 1166.472 244.10352 1128.6914 C 249.25599 1093.861 268.80375 1058.0495 297.00781 1030.1465 C 325.60495 1001.8545 363.72959 979.93602 405.9043 965.16016 C 450.18628 949.646 498.60417 941.90105 549.74414 937.88086 z M 2295.0469 1638.5059 C 2318.8271 1638.3611 2344.0071 1642.0173 2369.334 1648.7734 C 2405.5487 1658.434 2442.5821 1674.3472 2480.9512 1692.9941 C 2553.1014 1728.0583 2622.5475 1768.6996 2688.6406 1814.1914 C 2573.7444 1855.0264 2451.2278 1871.5735 2332.9629 1856.4766 C 2285.6886 1850.4418 2243.3903 1839.1447 2212.2988 1819.166 L 2212.2988 1819.168 C 2196.8926 1809.2683 2184.0587 1797.1398 2175.2344 1784.25 C 2166.5386 1771.548 2161.3199 1757.161 2160.2656 1744.459 A 70.007 70.007 0 0 0 2160.2656 1744.457 C 2158.529 1723.5347 2168.7908 1696.7058 2186.7949 1678.4512 C 2205.5735 1659.412 2234.5068 1645.6346 2265.7676 1640.7754 C 2273.7235 1639.5387 2281.9237 1638.8187 2290.3105 1638.5859 C 2291.8831 1638.5423 2293.4615 1638.5155 2295.0469 1638.5059 z "
       transform="translate(0,-1048)"
       id="path4498-7-1-0-9-8" />
    <path
       sodipodi:nodetypes="aaaaacaassc"
       inkscape:connector-curvature="0"
       inkscape:original-d="m 840.5461,1339.1277 c 181.2573,-1.0389 356.2971,225.2805 361.2155,406.4741 5.3773,198.1022 -172.0893,468.689 -370.2333,465.175 -192.805,-3.4193 -351.5266,-272.4426 -343.9812,-465.1302 7.0222,-179.3266 173.5379,-405.4903 352.999,-406.5189 z M 512.29,1956.5371 c 0,0 -156.0648,265.9975 -281.84127,253.6183 C 125.80973,2199.8567 16.896729,2059.6953 41.606629,1957.4955 87.125229,1769.2312 286.47603,1703.8602 563.6847,1702.4018 l 525.6574,-2.7654 c 173.933,-0.9151 415.8868,122.178 415.8868,122.178"
       inkscape:path-effect="#path-effect4500-0-5-18-2-1-8"
       id="path4498-7-1-0-9-8-4"
       d="m 840.5461,1339.1277 c 50.05137,-0.6508 100.0212,11.8733 144.62687,34.5867 44.60563,22.7134 83.86673,55.4734 115.51593,94.2534 63.2985,77.5601 95.0839,177.7021 101.0727,277.634 6.6798,111.4625 -18.7728,227.0362 -84.4409,317.348 -32.834,45.1558 -75.3822,83.4755 -124.66901,109.7041 -49.28679,26.2286 -105.32938,40.1613 -161.12339,38.1229 -53.75026,-1.9637 -106.66187,-18.7078 -152.73176,-46.4659 -46.0699,-27.7581 -85.32844,-66.3561 -115.42022,-110.9367 -60.18356,-89.1612 -82.5889,-200.368 -75.82922,-307.7276 6.20492,-98.5487 37.03927,-197.2571 98.57634,-274.481 30.76854,-38.6119 68.96667,-71.4898 112.5323,-94.7196 43.56563,-23.2297 92.52263,-36.6764 141.89036,-37.3183 z M 512.29,1956.5371 c 4.93788,72.5753 -25.12247,146.7445 -79.19568,195.4029 -54.0732,48.6585 -130.99153,70.7553 -202.64559,58.2154 -57.31518,-10.0305 -110.77265,-41.822 -145.94433,-88.1749 -35.171682,-46.3529 -51.412623,-106.9251 -42.897771,-164.485 7.749542,-52.3864 35.272174,-100.8175 72.918431,-138.062 37.64626,-37.2445 85.00547,-63.7787 134.98348,-81.2885 99.95601,-35.0195 208.2646,-35.186 314.17616,-35.7432 l 525.6574,-2.7654 c 74.1355,-0.39 149.0687,1.1252 220.8456,19.6805 71.7769,18.5553 139.4948,53.3973 195.0412,102.4975"
       style="fill:none;fill-rule:evenodd;stroke:#000000;stroke-width:140;stroke-linecap:round;stroke-linejoin:round;stroke-miterlimit:4;stroke-dasharray:none;stroke-opacity:1" />
    <path
       sodipodi:nodetypes="caaaassssaasc"
       inkscape:connector-curvature="0"
       inkscape:original-d="m 2681.0344,2658.7176 c -100.7349,-65.2726 -184.8399,-172.9291 -302.738,-189.6331 -144.5126,-20.4747 -394.4328,-23.2974 -421.0425,120.2122 -17.7619,95.792 138.4544,154.6855 233.5934,175.6657 180.0618,39.7075 400.4095,3.6962 540.9314,-115.6877 258.4519,-219.5742 419.9194,-782.3809 370.7454,-947.4385 -73.8955,-248.0382 -432.5212,-460.1822 -654.1263,-326.486 -119.4211,72.0477 -429.2981,247.5197 -443.6769,432.6636 -15.1216,194.7091 227.7758,385.0316 371.93,412.1187 195.6219,36.758 263.9935,-375.0817 198.6919,-563.1103 -64.2673,-185.0504 -301.108,-317.8793 -496.9558,-313.6884 -220.8573,4.726 -440.1541,172.2513 -544.7709,377.3952 -104.6169,205.1439 358.821,511.5965 358.821,511.5965"
       inkscape:path-effect="#path-effect4141-3-4-6-8-0-3"
       id="path4139-1-0-4-2-1-7"
       d="m 2681.0344,2658.7176 c -93.7478,-73.789 -195.4346,-137.4849 -302.738,-189.6331 -40.0726,-19.4748 -81.1236,-37.4145 -124.1725,-48.8981 -43.0489,-11.4836 -88.3332,-16.3756 -132.3587,-9.5322 -44.0255,6.8433 -86.7743,25.9691 -118.0606,57.6905 -31.2862,31.7214 -50.1361,76.5505 -46.4507,120.952 2.1841,26.3145 12.0511,51.7567 26.9674,73.5449 14.9163,21.7883 34.7717,39.9895 56.9858,54.2639 44.4283,28.5486 97.2553,41.1698 149.6402,47.8569 186.1024,23.7567 377.7927,-23.0365 540.9314,-115.6877 162.4316,-92.2496 300.4754,-232.3241 374.0264,-404.0339 73.5511,-171.7098 78.2507,-375.3374 -3.281,-543.4046 -57.0934,-117.6908 -154.7508,-214.9703 -272.0114,-272.9421 -117.2606,-57.9718 -253.3423,-76.5309 -382.1149,-53.5439 -108.7957,19.421 -212.8935,68.6044 -293.284,144.44 -80.3905,75.8357 -136.1079,178.6352 -150.3929,288.2236 -13.9415,106.9532 13.3826,220.7945 83.0162,303.1626 34.8169,41.1841 79.6546,74.0634 129.9424,93.5436 50.2878,19.4802 105.9688,25.3656 158.9714,15.4125 56.8585,-10.6772 109.8651,-39.4567 151.3403,-79.789 41.4753,-40.3323 71.5035,-91.9299 88.2119,-147.3169 33.4166,-110.7741 12.726,-233.4564 -40.8603,-336.0044 -47.4439,-90.7932 -120.0051,-168.0942 -206.8826,-222.377 -86.8775,-54.2828 -187.7934,-85.5522 -290.0732,-91.3114 -120.115,-6.7635 -243.1685,22.3391 -343.4833,88.7492 -100.3148,66.41 -176.33,170.958 -201.2876,288.646 -24.2357,114.2838 1.0555,238.1964 68.1386,333.8416 67.0832,95.6451 174.9763,161.6228 290.6824,177.7549"
       style="fill:none;fill-rule:evenodd;stroke:#000000;stroke-width:140;stroke-linecap:round;stroke-linejoin:round;stroke-miterlimit:4;stroke-dasharray:none;stroke-opacity:1" />
    <path
       sodipodi:nodetypes="aaaaacaassc"
       inkscape:connector-curvature="0"
       inkscape:original-d="m -7223.4539,-580.8723 c 181.2573,-1.0389 356.2971,225.2805 361.2155,406.4741 5.3773,198.102203 -172.0893,468.689 -370.2333,465.175 -192.805,-3.4193 -351.5266,-272.442597 -343.9812,-465.1302 7.0222,-179.3266 173.5379,-405.4903 352.999,-406.5189 z M -7551.71,36.537103 c 0,0 -156.0648,265.997497 -281.8413,253.618297 -104.639,-10.2987 -213.552,-150.4601 -188.8421,-252.659897 45.5186,-188.264303 244.8694,-253.635303 522.0781,-255.093703 l 525.6574,-2.7654 c 173.933,-0.9151 415.8868,122.178003 415.8868,122.178003"
       inkscape:path-effect="#path-effect4500-0-5-18-2-1-8-4"
       id="path4498-7-1-0-9-8-4-5"
       d="m -7223.4539,-580.8723 c 50.0514,-0.65079 100.0212,11.87331 144.6269,34.58669 44.6056,22.71339 83.8667,55.4734 115.5159,94.25343 63.2985,77.56007 95.0839,177.70206 101.0727,277.63398 6.6798,111.462494 -18.7728,227.036227 -84.4409,317.34795 -32.834,45.15586 -75.3822,83.47553 -124.669,109.70412 -49.2868,26.22858 -105.3294,40.16134 -161.1234,38.12293 -53.7503,-1.96374 -106.6619,-18.7078 -152.7318,-46.4659 -46.0699,-27.75809 -85.3284,-66.35607 -115.4202,-110.93669 -60.1835,-89.16123 -82.5889,-200.367965 -75.8292,-307.72761 6.2049,-98.54865 37.0393,-197.2571 98.5763,-274.48097 30.7686,-38.61194 68.9667,-71.48986 112.5323,-94.71959 43.5657,-23.22973 92.5227,-36.67644 141.8904,-37.31834 z M -7551.71,36.537103 c 4.9379,72.575287 -25.1225,146.744517 -79.1957,195.402947 -54.0732,48.65843 -130.9915,70.75527 -202.6456,58.21535 -57.3152,-10.03052 -110.7726,-41.82199 -145.9443,-88.17492 -35.1717,-46.35292 -51.4127,-106.925111 -42.8978,-164.484977 7.7495,-52.386423 35.2722,-100.817536 72.9184,-138.062023 37.6463,-37.24449 85.0055,-63.7787 134.9835,-81.28844 99.956,-35.0195 208.2646,-35.18606 314.1762,-35.74324 l 525.6574,-2.7654 c 74.1355,-0.39002 149.0687,1.12516 220.8456,19.68047 71.7769,18.55531 139.4948,53.39735 195.0412,102.497533"
       style="fill:none;fill-rule:evenodd;stroke:#000000;stroke-width:140;stroke-linecap:round;stroke-linejoin:round;stroke-miterlimit:4;stroke-dasharray:none;stroke-opacity:1" />
    <path
       sodipodi:nodetypes="cassaaassaasc"
       inkscape:connector-curvature="0"
       inkscape:original-d="m -8141.1527,-547.03758 c 10.5325,2.32264 -281.851,686.68211 -115.7939,964.77618 181.1081,303.29995 953.4271,388.15751 986.2279,387.90918 l 1079.7279,-8.17439 c 127.2452,-0.96335 487.6347,60.38149 672.7695,-68.19867 289.1578,-200.82636 551.402,-605.71245 466.7454,-947.43852 -48.1304,-194.28396 -286.1897,-361.87406 -486.1263,-352.486 -231.2905,10.86028 -507.2981,273.5197 -521.6769,458.6636 -15.1216,194.709103 227.7758,385.0316 371.93,412.1187 195.6219,36.758 263.9935,-375.081697 198.6919,-563.1103 -64.2673,-185.0504 -301.108,-317.8793 -496.9558,-313.6884 -220.8573,4.726 -440.1541,172.2513 -544.7709,377.3952 -104.6169,205.1439032 358.821,511.5965 358.821,511.5965"
       inkscape:path-effect="#path-effect4141-3-4-6-8-0-3-9"
       id="path4139-1-0-4-2-1-7-3"
       d="m -8141.1527,-547.03758 c -128.7089,120.04891 -213.2127,286.47879 -234.1866,461.229543 -20.9738,174.750754 21.7469,356.450317 118.3927,503.546637 101.7118,154.80688 261.0765,267.83162 436.7391,326.59447 175.6627,58.76286 364.2633,62.71701 549.4888,61.31471 l 1079.7279,-8.17439 c 226.4272,-1.71423 458.875,6.10719 672.7695,-68.19867 186.4624,-64.77606 349.7883,-199.1445 440.0908,-374.67115 90.3025,-175.52665 103.8233,-391.083193 26.6546,-572.76737 -41.2756,-97.17836 -107.6094,-184.03262 -192.4529,-246.87285 -84.8434,-62.84023 -188.187,-101.14836 -293.6734,-105.61315 -127.7929,-5.40893 -257.1054,39.98436 -353.243,124.3517 -96.1376,84.36734 -157.974,206.83296 -168.4339,334.3119 -8.7275,106.3661881 19.1772,217.67847 87.5328,299.63854 34.1778,40.98003 78.0005,74.12509 127.4099,94.27957 49.4093,20.15448 104.3733,27.10298 156.9873,18.20059 57.2661,-9.68954 110.8824,-38.05756 152.7451,-78.31678 41.8628,-40.25922 72.0655,-92.09526 88.7051,-147.740715 33.2794,-111.290913 11.5434,-234.366355 -42.7583,-337.052805 -47.8616,-90.50792 -120.3976,-167.64549 -207.183,-221.96592 -86.7854,-54.32044 -187.5602,-85.80695 -289.7728,-91.72248 -120.136,-6.95284 -243.2638,22.12307 -343.5907,88.57244 -100.3269,66.44937 -176.29,171.08797 -201.1802,288.82276 -24.1595,114.278394 1.1631,238.146593 68.2342,333.77455 67.071,95.62796 174.9117,161.62006 290.5868,177.82195"
       style="fill:none;fill-rule:evenodd;stroke:#000000;stroke-width:140;stroke-linecap:round;stroke-linejoin:round;stroke-miterlimit:4;stroke-dasharray:none;stroke-opacity:1" />
  </g>
</svg>
