<?xml version="1.0" encoding="UTF-8" standalone="no"?>
<!-- Created with Inkscape (http://www.inkscape.org/) -->

<svg
   xmlns:dc="http://purl.org/dc/elements/1.1/"
   xmlns:cc="http://creativecommons.org/ns#"
   xmlns:rdf="http://www.w3.org/1999/02/22-rdf-syntax-ns#"
   xmlns:svg="http://www.w3.org/2000/svg"
   xmlns="http://www.w3.org/2000/svg"
   xmlns:sodipodi="http://sodipodi.sourceforge.net/DTD/sodipodi-0.dtd"
   xmlns:inkscape="http://www.inkscape.org/namespaces/inkscape"
   width="2000"
   height="2048"
   id="svg2992"
   version="1.1"
   inkscape:version="0.91 r13725"
   sodipodi:docname="ക്ഷ.svg">
  <defs
     id="defs5498">
    <inkscape:path-effect
       effect="spiro"
       id="path-effect3846"
       is_visible="true" />
    <inkscape:path-effect
       effect="spiro"
       id="path-effect3801"
       is_visible="true" />
    <inkscape:path-effect
       is_visible="true"
       id="path-effect3846-4"
       effect="spiro" />
    <inkscape:path-effect
       is_visible="true"
       id="path-effect3801-1"
       effect="spiro" />
    <inkscape:path-effect
       effect="spiro"
       id="path-effect3846-9"
       is_visible="true" />
    <inkscape:path-effect
       effect="spiro"
       id="path-effect3801-9"
       is_visible="true" />
    <inkscape:path-effect
       effect="spiro"
       id="path-effect4500"
       is_visible="true" />
    <inkscape:path-effect
       effect="spiro"
       id="path-effect4500-8"
       is_visible="true" />
    <inkscape:path-effect
       effect="spiro"
       id="path-effect4500-0"
       is_visible="true" />
    <inkscape:path-effect
       effect="spiro"
       id="path-effect4500-0-5"
       is_visible="true" />
    <inkscape:path-effect
       effect="spiro"
       id="path-effect4500-0-5-7"
       is_visible="true" />
    <inkscape:path-effect
       effect="spiro"
       id="path-effect4500-0-5-1"
       is_visible="true" />
    <inkscape:path-effect
       effect="spiro"
       id="path-effect4141-3"
       is_visible="true" />
    <inkscape:path-effect
       effect="spiro"
       id="path-effect4500-0-5-11"
       is_visible="true" />
    <inkscape:path-effect
       effect="spiro"
       id="path-effect4500-0-5-11-9"
       is_visible="true" />
    <inkscape:path-effect
       is_visible="true"
       id="path-effect4500-0-5-18"
       effect="spiro" />
    <inkscape:path-effect
       effect="spiro"
       id="path-effect4141-3-4"
       is_visible="true" />
    <inkscape:path-effect
       is_visible="true"
       id="path-effect4500-0-5-18-7"
       effect="spiro" />
    <inkscape:path-effect
       is_visible="true"
       id="path-effect4500-0-5-18-7-3"
       effect="spiro" />
    <inkscape:path-effect
       is_visible="true"
       id="path-effect4500-0-5-18-7-3-1"
       effect="spiro" />
  </defs>
  <sodipodi:namedview
     inkscape:window-height="704"
     inkscape:window-width="1366"
     inkscape:pageshadow="2"
     inkscape:pageopacity="0.0"
     borderopacity="1.0"
     bordercolor="#666666"
     pagecolor="#ffffff"
     id="base"
     showgrid="true"
     showguides="true"
     inkscape:guide-bbox="true"
     inkscape:zoom="0.1135"
     inkscape:cx="-3380.1507"
     inkscape:cy="257.50816"
     inkscape:window-x="-4"
     inkscape:window-y="0"
     inkscape:current-layer="layer1-2"
     inkscape:window-maximized="1">
    <sodipodi:guide
       orientation="horizontal"
       position="-96,600"
       id="guide5596" />
    <inkscape:grid
       type="xygrid"
       id="grid3769"
       empspacing="3"
       visible="true"
       enabled="true"
       snapvisiblegridlinesonly="true"
       spacingx="4px"
       units="px"
       dotted="true"
       spacingy="4px" />
    <sodipodi:guide
       orientation="0,1"
       position="-1040,1600"
       id="guide2985" />
  </sodipodi:namedview>
  <metadata
     id="metadata5594">
    <rdf:RDF>
      <cc:Work
         rdf:about="">
        <dc:format>image/svg+xml</dc:format>
        <dc:type
           rdf:resource="http://purl.org/dc/dcmitype/StillImage" />
        <dc:title />
      </cc:Work>
    </rdf:RDF>
  </metadata>
  <g
     inkscape:label="Layer 1"
     inkscape:groupmode="layer"
     id="layer1"
     transform="translate(0,1048)">
    <g
       id="layer1-7"
       inkscape:label="Layer 1"
       transform="translate(771.66165,-191.16211)">
      <g
         transform="translate(-900.90145,-124.23254)"
         inkscape:label="Layer 1"
         id="layer1-2">
        <path
           style="color:#000000;font-style:normal;font-variant:normal;font-weight:normal;font-stretch:normal;font-size:medium;line-height:normal;font-family:sans-serif;text-indent:0;text-align:start;text-decoration:none;text-decoration-line:none;text-decoration-style:solid;text-decoration-color:#000000;letter-spacing:normal;word-spacing:normal;text-transform:none;direction:ltr;block-progression:tb;writing-mode:lr-tb;baseline-shift:baseline;text-anchor:start;white-space:normal;clip-rule:nonzero;display:inline;overflow:visible;visibility:visible;opacity:1;isolation:auto;mix-blend-mode:normal;color-interpolation:sRGB;color-interpolation-filters:linearRGB;solid-color:#000000;solid-opacity:1;fill:#000000;fill-opacity:1;fill-rule:evenodd;stroke:none;stroke-width:140;stroke-linecap:round;stroke-linejoin:round;stroke-miterlimit:4;stroke-dasharray:none;stroke-dashoffset:0;stroke-opacity:1;color-rendering:auto;image-rendering:auto;shape-rendering:auto;text-rendering:auto;enable-background:accumulate"
           d="m 2302.1934,-295.74023 c -66.98,0.35422 -133.5106,20.52037 -189.336,60.30078 -69.0438,49.19952 -116.6648,125.31049 -127.4199,211.023434 -8.8775,70.749597 8.1369,140.998576 43.2305,200.179686 34.9031,58.86016 86.1196,104.73273 144.2441,135.73633 88.3421,47.12172 186.9999,58.06453 280.9746,46.92188 l -1.7715,218.58203 -641.5996,-0.043 c 13.6883,-26.7076 23.7017,-55.41735 29.3262,-85.39649 17.0784,-91.03031 -7.1148,-184.2811 -61.3887,-256.86133 -53.8611,-72.02829 -131.838,-117.70387 -212.9883,-140.414058 -21.3031,-5.961758 -42.4797,-10.264255 -63.4609,-13.472656 -17.5323,-76.8527919 -50.3435,-151.139817 -102.0723,-214.523436 -37.3692,-45.7888 -83.9259,-84.84631 -137.9843,-112.37305 -54.1714,-27.58425 -114.9696,-43.01358 -177.3008,-42.20312 -61.4739,0.79931 -121.03476,17.34798 -173.91603,45.54492 -52.77269,28.13904 -98.04374,67.31471 -134.33985,112.86328 C 727.16498,-68.100947 695.63596,3.5670339 678.25586,77.660156 610.49185,81.282332 540.65031,90.395489 471.375,114.66602 c -57.78131,20.24361 -114.37492,51.3928 -161.07031,97.58984 -47.08847,46.58591 -82.58698,107.63766 -92.9336,177.58008 -11.44081,77.33912 9.73121,155.56123 56.38086,217.04101 46.50085,61.2837 114.86597,101.72842 189.64063,114.81446 93.78762,16.41342 190.75902,-11.44406 261.53515,-75.13282 22.67807,-20.40713 41.93523,-43.90215 57.48438,-69.5 29.86719,34.91228 65.11046,65.59823 105.26953,89.79493 55.70485,33.56335 119.71716,54.02832 186.30076,56.46093 69.1333,2.52576 136.9265,-14.54418 196.5645,-46.28125 59.4986,-31.6629 109.7281,-77.14689 148.4004,-130.33203 68.5561,-94.28346 98.1726,-208.29755 98.7968,-320.0332 3.3257,0.82073 6.7226,1.52693 9.9903,2.44141 56.1667,15.71845 107.0675,47.26589 138.5996,89.43359 31.1193,41.61578 45.1232,98.08765 35.9082,147.20508 -9.1809,48.93532 -42.8323,95.93409 -86.0684,120.10351 a 70.007,70.007 0 0 0 34.1524,131.09961 l 1329.4629,0.0879 a 70.007,70.007 0 0 0 70.0039,-70 l 0,-870 a 70.007,70.007 0 0 0 -138.9317,-12.17968 c -20.2138,114.40308 -78.0724,223.173599 -161.6406,303.876948 -44.7474,43.213372 -97.1804,78.816832 -153.834,105.009762 l 1.1445,-141.167965 c 0.2437,-30.0598598 0.4978,-64.347237 -6.5312,-101.707031 -7.0423,-37.430124 -21.0943,-74.753264 -44.2656,-108.265624 -23.1421,-33.47001 -53.6172,-60.62177 -88.4571,-80.125 -34.6377,-19.39004 -71.8839,-30.42796 -108.7675,-35.29883 -15.3788,-2.03092 -30.8595,-3.00362 -46.3164,-2.92187 z m 10.0761,140.22265 c 6.0057,0.21662 11.9868,0.7119 17.9102,1.49414 21.6147,2.85445 41.8608,9.23145 58.7109,18.66406 16.6479,9.31945 31.2716,22.5195 41.6875,37.583989 10.3867,15.022136 17.9679,33.974485 21.836,54.533203 3.8812,20.629044 4.3576,45.7410672 4.123,74.685547 l -1.5019,185.425781 c -76.7493,11.78328 -154.3794,4.09599 -216.2325,-28.89648 -37.3783,-19.93761 -69.4083,-49.37393 -89.7129,-83.61524 -20.1142,-33.920373 -29.3406,-74.696069 -24.7421,-111.3437481 5.4961,-43.8017439 32.4952,-87.8875809 69.7539,-114.4375019 32.8947,-23.44032 76.1281,-35.61007 118.1679,-34.09375 z m -1225.8027,7.22266 c 37.7716,-0.49112 76.9131,9.13014 111.9531,26.97265 35.153,17.90005 67.1197,44.361548 93.0489,76.132817 a 70.007,70.007 0 0 0 0,0.002 c 27.6021,33.821151 48.4496,74.021319 62.7773,117.451172 -6.7173,0.01272 -13.6582,-0.07771 -20.2617,-0.04297 l -509.5762,2.681641 c 13.99512,-43.347263 34.38794,-83.5426942 61.47071,-117.529297 25.24097,-31.675305 56.36406,-58.253797 90.72265,-76.574217 34.25004,-18.26252 72.60374,-28.60926 109.86524,-29.09375 z m 1823.3262,247.363279 0,477.966801 -317.6739,-0.0215 2.0411,-251.75976 c 93.9787,-33.2131 180.4928,-86.45107 252.3144,-155.81055 22.7636,-21.98325 43.8404,-45.57171 63.3184,-70.375001 z M 1334.7207,212.21875 c 14.5908,-0.0768 28.8179,0.0202 42.9473,0.20508 1.7908,91.40387 -21.611,182.71189 -71.9512,251.94336 -26.9957,37.12656 -61.8645,68.28194 -100.9395,89.07617 -38.9356,20.72009 -83.2269,31.51591 -125.6816,29.96484 -40.9169,-1.49488 -82.72717,-14.51788 -119.16211,-36.4707 -36.55742,-22.02663 -68.74844,-53.43293 -93.52734,-90.14258 -45.67809,-67.67153 -66.4919,-154.50137 -64.84375,-241.75195 2.51243,-0.0146 4.98273,-0.0453 7.50195,-0.0586 l 525.65625,-2.76563 z m -673.21679,7.29492 c -0.56093,61.28917 7.45555,123.45402 25.89257,182.95703 a 70.007,70.007 0 0 0 0.0664,1.40235 c 3.41259,50.15715 -18.81135,104.98908 -56.18164,138.61718 -37.37027,33.62809 -94.23341,49.96328 -143.75391,41.29688 -39.85569,-6.975 -78.40553,-30.11299 -102.24804,-61.53516 -23.69371,-31.22605 -35.00492,-74.14909 -29.41602,-111.92968 5.15248,-34.83043 24.70025,-70.63994 52.9043,-98.54297 28.59712,-28.29193 66.72177,-50.21047 108.89648,-64.98633 44.28199,-15.51415 92.69987,-23.2591 143.83985,-27.2793 z"
           id="path4498-7-1-0"
           inkscape:connector-curvature="0" />
        <path
           sodipodi:nodetypes="aaaaacaasscccaaaasc"
           inkscape:connector-curvature="0"
           inkscape:original-d="m -2653.4133,839.95693 c 181.2574,-1.0389 356.2972,225.28047 361.2156,406.47417 5.3773,198.1021 -172.0893,468.6889 -370.2334,465.1749 -192.805,-3.4193 -351.5266,-272.4425 -343.9812,-465.1302 7.0222,-179.3265 173.5379,-405.49027 352.999,-406.51887 z m -328.2561,617.40937 c 0,0 -156.0648,265.9975 -281.8413,253.6183 -104.639,-10.2987 -213.552,-150.4601 -188.8421,-252.6599 45.5186,-188.2643 244.8694,-253.6353 522.0781,-255.0937 l 525.6575,-2.7654 c 173.933,-0.9151 391.0285,314.201 315.9774,504.7316 l 1329.46326,0.088 0,-870.00007 c 0,0 -91.7259,249.64627 -181.94527,342.05047 -73.69959,75.4844 -170.31079,157.5324 -275.78309,155.2722 -183.2569,-3.9272 -460.2912,-106.8936 -467.1722,-290.0634 -4.4075,-117.32447 168.4308,-225.70737 284.452,-207.71937 104.3129,16.1728 188.9288,40.7752 187.1892,255.43067 l -4.9355,608.9944"
           inkscape:path-effect="#path-effect4500-0-5-18-7"
           id="path4498-7-1-0-6"
           d="m -2653.4133,839.95693 c 50.0514,-0.65079 100.0212,11.87329 144.6269,34.58668 44.6057,22.71338 83.8668,55.4734 115.516,94.25344 63.2985,77.56005 95.0839,177.70215 101.0727,277.63405 6.6798,111.4625 -18.7728,227.0362 -84.441,317.3479 -32.834,45.1559 -75.3822,83.4755 -124.669,109.7041 -49.2868,26.2286 -105.3294,40.1613 -161.1234,38.1229 -53.7503,-1.9637 -106.6619,-18.7078 -152.7318,-46.4659 -46.0699,-27.7581 -85.3284,-66.3561 -115.4202,-110.9367 -60.1835,-89.1612 -82.5889,-200.368 -75.8292,-307.7276 6.2049,-98.5486 37.0393,-197.2571 98.5764,-274.48094 30.7685,-38.61193 68.9666,-71.48986 112.5322,-94.71958 43.5657,-23.22973 92.5227,-36.67645 141.8904,-37.31835 z m -328.2561,617.40937 c 4.9379,72.5753 -25.1225,146.7445 -79.1957,195.4029 -54.0732,48.6585 -130.9915,70.7553 -202.6456,58.2154 -57.3152,-10.0305 -110.7726,-41.822 -145.9443,-88.1749 -35.1717,-46.3529 -51.4127,-106.9251 -42.8978,-164.485 7.7495,-52.3864 35.2722,-100.8175 72.9184,-138.062 37.6463,-37.2445 85.0055,-63.7787 134.9835,-81.2885 99.956,-35.0195 208.2646,-35.186 314.1762,-35.7432 l 525.6575,-2.7654 c 71.2954,-0.3751 143.5882,0.2638 212.2467,19.4782 68.6585,19.2143 133.0973,57.8271 175.7939,114.9251 42.6966,57.0979 61.7956,131.9583 48.6489,202.0321 -13.1467,70.0739 -58.4793,133.5074 -120.7121,168.2962 l 1329.46326,0.088 0,-870.00007 c -22.84374,129.28748 -87.50446,250.84727 -181.94527,342.05047 -76.71699,74.087 -172.64839,128.1131 -275.78309,155.2722 -104.671,27.5637 -220.7052,26.3151 -316.2079,-24.6261 -47.7514,-25.4706 -89.3747,-63.1249 -116.9785,-109.6756 -27.6039,-46.5507 -40.7238,-102.0631 -33.9858,-155.7617 8.1256,-64.75734 45.4353,-124.85608 98.5865,-162.73079 53.1511,-37.87471 121.1621,-53.53333 185.8655,-44.98858 29.2492,3.86266 57.9948,12.56956 83.7387,26.9809 25.7439,14.41133 48.2935,34.58715 65.0725,58.85439 16.779,24.26725 27.5949,52.40475 33.0501,81.39918 5.4551,28.9944 5.567,58.694 5.3279,88.1962 l -4.9355,608.9944"
           style="fill:none;fill-rule:evenodd;stroke:#000000;stroke-width:140;stroke-linecap:round;stroke-linejoin:round;stroke-miterlimit:4;stroke-dasharray:none;stroke-opacity:1" />
        <path
           sodipodi:nodetypes="aaaaacaasscccaaaasc"
           inkscape:connector-curvature="0"
           inkscape:original-d="m -2708.5048,-257.04937 c 195.0829,-1.12227 383.474,243.359064 388.7676,439.09341 5.7875,213.99963 -185.2157,506.30081 -398.4733,502.5048 -207.5111,-3.69369 -378.3395,-294.30578 -370.2183,-502.45651 7.5577,-193.717308 186.7745,-438.03056 379.924,-439.1417 z m -353.294,666.95599 c 0,0 -167.9688,287.34358 -303.3389,273.97097 -112.6204,-11.12516 -229.8408,-162.53441 -203.246,-272.93566 48.9905,-203.37236 263.5467,-273.98933 561.8997,-275.56477 l 565.7524,-2.98731 c 187.1998,-0.98854 420.8543,339.41537 340.0787,545.2359 l 1430.86896,0.0951 0,-939.81689 c 0,0 -98.72236,269.6802063 -195.82334,369.49978 -79.32105,81.54196 -183.30132,170.17424 -296.81852,167.73266 -197.235,-4.24235 -495.4002,-115.47173 -502.806,-313.340749 -4.7438,-126.739701 181.2779,-243.820241 306.1486,-224.388701 112.2695,17.47066 203.3395,44.04736 201.4672,275.928787 l -5.312,657.865713"
           inkscape:path-effect="#path-effect4500-0-5-18-7-3"
           id="path4498-7-1-0-6-0"
           d="m -2708.5048,-257.04937 c 53.9832,-0.703 107.8739,12.87544 155.9365,37.4655 48.0626,24.59005 90.3201,60.0347 124.3467,101.94978 68.0532,83.830168 102.0437,191.894774 108.4844,299.67813 7.1849,120.23743 -19.9495,244.92834 -90.5333,342.53261 -35.2919,48.80213 -81.0844,90.26073 -134.1947,118.65897 -53.1103,28.39824 -113.5595,43.51089 -173.7453,41.31322 -57.9892,-2.11747 -115.0643,-20.25859 -164.7096,-50.30153 -49.6453,-30.04295 -91.896,-71.79616 -124.2378,-119.97548 -64.6834,-96.35863 -88.5491,-216.3522 -81.2709,-332.1795 6.6792,-106.294309 39.6514,-212.813187 105.8079,-296.2782 33.0783,-41.73251 74.1897,-77.30274 121.1303,-102.44923 46.9407,-25.14648 99.7383,-39.72086 152.9858,-40.41427 z m -353.294,666.95599 c 5.718,78.29149 -26.4686,158.48989 -84.7249,211.10605 -58.2563,52.61616 -141.3069,76.49831 -218.614,62.86492 -61.811,-10.90059 -119.402,-45.33457 -157.2325,-95.41726 -37.8304,-50.08269 -55.221,-115.43265 -46.0135,-177.5184 8.3676,-56.42262 37.9204,-108.61276 78.3816,-148.81747 40.4612,-40.20472 91.3925,-68.92322 145.181,-87.9055 107.577,-37.96457 224.2593,-38.23944 338.3371,-38.8418 l 565.7524,-2.98731 c 77.047,-0.40683 155.1755,0.28464 229.3627,21.08512 74.1872,20.80047 143.7959,62.60444 189.8332,124.38602 46.0373,61.78159 66.4885,142.75259 52.0402,218.43379 -14.4484,75.68119 -63.7253,144.05748 -131.1574,181.33097 l 1430.86896,0.0951 0,-939.81689 c -24.50511,139.56957 -94.08554,270.8611267 -195.82334,369.49978 -82.49169,79.97882 -185.70712,138.47967 -296.81852,167.73266 -112.7387,29.68142 -237.7517,27.98357 -340.4738,-27.14522 -51.361,-27.56439 -96.0894,-68.21944 -125.75,-118.39909 -29.6607,-50.179655 -43.7621,-109.950086 -36.5822,-167.796439 8.6661,-69.820911 48.6848,-134.713321 105.8811,-175.684631 57.1963,-40.97131 130.5267,-57.99271 200.2675,-48.70407 31.5403,4.20079 62.5229,13.67013 90.2444,29.28925 27.7215,15.61912 51.975,37.44993 70.0086,63.6649 18.0337,26.21497 29.6436,56.57702 35.4982,87.852566 5.8547,31.275547 5.9729,63.304303 5.716,95.122071 l -5.312,657.865713"
           style="fill:none;fill-rule:evenodd;stroke:#000000;stroke-width:70;stroke-linecap:round;stroke-linejoin:round;stroke-miterlimit:4;stroke-dasharray:none;stroke-opacity:1" />
      </g>
    </g>
  </g>
</svg>
