<?xml version="1.0" encoding="UTF-8" standalone="no"?>
<!-- Created with Inkscape (http://www.inkscape.org/) -->

<svg
   xmlns:dc="http://purl.org/dc/elements/1.1/"
   xmlns:cc="http://creativecommons.org/ns#"
   xmlns:rdf="http://www.w3.org/1999/02/22-rdf-syntax-ns#"
   xmlns:svg="http://www.w3.org/2000/svg"
   xmlns="http://www.w3.org/2000/svg"
   xmlns:sodipodi="http://sodipodi.sourceforge.net/DTD/sodipodi-0.dtd"
   xmlns:inkscape="http://www.inkscape.org/namespaces/inkscape"
   width="2000"
   height="2048"
   id="svg2992"
   version="1.1"
   inkscape:version="0.91 r13725"
   sodipodi:docname="ക്‍.svg">
  <defs
     id="defs5498">
    <inkscape:path-effect
       effect="spiro"
       id="path-effect3846"
       is_visible="true" />
    <inkscape:path-effect
       effect="spiro"
       id="path-effect3801"
       is_visible="true" />
    <inkscape:path-effect
       is_visible="true"
       id="path-effect4500-0-5-18"
       effect="spiro" />
    <inkscape:path-effect
       is_visible="true"
       id="path-effect4500-0-5-18-9"
       effect="spiro" />
    <inkscape:path-effect
       is_visible="true"
       id="path-effect4500-0-5-18-9-6"
       effect="spiro" />
    <inkscape:path-effect
       is_visible="true"
       id="path-effect4500-0-5-18-9-6-2"
       effect="spiro" />
    <inkscape:path-effect
       is_visible="true"
       id="path-effect4500-0-5-18-9-6-2-3"
       effect="spiro" />
    <inkscape:path-effect
       is_visible="true"
       id="path-effect4500-0-5-18-9-6-2-5"
       effect="spiro" />
    <inkscape:path-effect
       is_visible="true"
       id="path-effect4500-0-5-18-9-8"
       effect="spiro" />
  </defs>
  <sodipodi:namedview
     inkscape:window-height="871"
     inkscape:window-width="1600"
     inkscape:pageshadow="2"
     inkscape:pageopacity="0.0"
     borderopacity="1.0"
     bordercolor="#666666"
     pagecolor="#ffffff"
     id="base"
     showgrid="true"
     showguides="true"
     inkscape:guide-bbox="true"
     inkscape:zoom="0.32102648"
     inkscape:cx="3394.9341"
     inkscape:cy="1237.5822"
     inkscape:window-x="1600"
     inkscape:window-y="0"
     inkscape:current-layer="layer1"
     inkscape:window-maximized="1"
     inkscape:snap-grids="false">
    <sodipodi:guide
       orientation="horizontal"
       position="0,600"
       id="guide5596" />
    <inkscape:grid
       type="xygrid"
       id="grid3769"
       empspacing="3"
       visible="true"
       enabled="true"
       snapvisiblegridlinesonly="true"
       spacingx="4px"
       units="px"
       dotted="true"
       spacingy="4px" />
    <sodipodi:guide
       orientation="0,1"
       position="-1040,1600"
       id="guide2985" />
    <sodipodi:guide
       position="4422.9075,1724"
       orientation="0,1"
       id="guide4166"
       inkscape:label=""
       inkscape:color="rgb(0,0,255)" />
  </sodipodi:namedview>
  <metadata
     id="metadata5594">
    <rdf:RDF>
      <cc:Work
         rdf:about="">
        <dc:format>image/svg+xml</dc:format>
        <dc:type
           rdf:resource="http://purl.org/dc/dcmitype/StillImage" />
        <dc:title />
      </cc:Work>
    </rdf:RDF>
  </metadata>
  <g
     inkscape:label="Layer 1"
     inkscape:groupmode="layer"
     id="layer1"
     transform="translate(0,1048)">
    <path
       style="color:#000000;font-style:normal;font-variant:normal;font-weight:normal;font-stretch:normal;font-size:medium;line-height:normal;font-family:sans-serif;text-indent:0;text-align:start;text-decoration:none;text-decoration-line:none;text-decoration-style:solid;text-decoration-color:#000000;letter-spacing:normal;word-spacing:normal;text-transform:none;direction:ltr;block-progression:tb;writing-mode:lr-tb;baseline-shift:baseline;text-anchor:start;white-space:normal;clip-rule:nonzero;display:inline;overflow:visible;visibility:visible;opacity:1;isolation:auto;mix-blend-mode:normal;color-interpolation:sRGB;color-interpolation-filters:linearRGB;solid-color:#000000;solid-opacity:1;fill:#000000;fill-opacity:1;fill-rule:evenodd;stroke:none;stroke-width:140;stroke-linecap:round;stroke-linejoin:round;stroke-miterlimit:4;stroke-dasharray:none;stroke-dashoffset:0;stroke-opacity:1;color-rendering:auto;image-rendering:auto;shape-rendering:auto;text-rendering:auto;enable-background:accumulate"
       d="m 1438.7422,-1046.1875 a 70.007,70.007 0 0 0 -49.5664,119.87695 c 49.7752,50.44248 82.5734,119.49846 90.2168,189.95117 10.2014,94.03128 -22.3601,196.13095 -68.2207,296.31055 -16.8136,36.72819 -35.5611,73.94377 -54.2207,112.31055 -18.6418,-48.07833 -44.2068,-93.86005 -77.8028,-135.02539 -37.3692,-45.78881 -83.9259,-84.84631 -137.9843,-112.37305 -54.1714,-27.58425 -114.9696,-43.01359 -177.30082,-42.20312 -61.47393,0.79932 -121.0328,17.34799 -173.91406,45.54492 -52.77268,28.13904 -98.04569,67.3147 -134.3418,112.86328 -49.22564,61.77405 -80.75467,133.44204 -98.13476,207.53516 -67.76402,3.62217 -137.60556,12.73533 -206.88086,37.00586 -57.78131,20.24361 -114.37492,51.3928 -161.07032,97.58984 C 142.43302,-70.214872 106.93451,-9.1631165 96.587891,60.779297 85.147075,138.11842 106.3191,216.34052 152.96875,277.82031 199.4696,339.104 267.83471,379.54873 342.60938,392.63477 c 93.78762,16.41342 190.76097,-11.44405 261.5371,-75.13282 22.67807,-20.40713 41.93327,-43.90215 57.48243,-69.5 29.86718,34.91228 65.11047,65.59627 105.26953,89.79297 a 70.007,70.007 0 0 0 0,0.002 c 55.70486,33.56336 119.71913,54.02832 186.30273,56.46093 69.13333,2.52577 136.92453,-14.54418 196.56253,-46.28125 56.1984,-29.90667 103.995,-72.23798 141.7265,-121.64844 15.6366,30.25898 35.7702,58.63859 60.8457,83.41993 38.7506,38.29575 88.0674,66.8136 143.8399,78.33984 86.5636,17.88969 176.062,-7.99802 240.5195,-67.09961 a 70.007,70.007 0 0 0 0,0 c 64.2125,-58.87707 96.9691,-144.23455 90.873,-230.183592 -5.301,-74.739705 -38.8469,-142.082346 -86.4453,-194.156248 -47.1974,-51.63533 -106.4635,-87.1505 -167.7617,-110.22461 -33.7809,-12.71593 -67.8122,-21.65414 -101.7754,-28.06055 21.5111,-45.3676 44.6539,-91.5894 66.8789,-140.13867 49.9891,-109.19806 94.7446,-234.78405 80.1094,-369.68359 -11.14,-102.68281 -57.2023,-199.66521 -129.7481,-273.18362 a 70.007,70.007 0 0 0 -50.0859,-21.5449 z m -473.05861,568.83594 c 37.77161,-0.49113 76.91311,9.13014 111.95311,26.97265 35.153,17.90005 67.1196,44.36154 93.0488,76.13282 27.5737,33.7862 48.4079,73.94011 62.7344,117.31836 -6.7357,0.0348 -13.5627,0.0568 -20.2187,0.0918 l -509.57425,2.68164 c 13.99512,-43.34726 34.38599,-83.5427 61.46875,-117.52929 25.24098,-31.67531 56.36408,-58.25576 90.72266,-76.57618 34.25002,-18.26252 72.6037,-28.60729 109.86523,-29.09179 z m 290.35551,360.42968 c 0.2837,7.7e-4 0.5601,0.009 0.8437,0.01 1.8441,91.49718 -21.5578,182.920643 -71.9492,252.22266 -26.9957,37.12656 -61.8645,68.28194 -100.9395,89.07617 -38.9356,20.72009 -83.2269,31.51591 -125.6816,29.96484 -40.91689,-1.49488 -82.7272,-14.51789 -119.16211,-36.4707 -36.55742,-22.02664 -68.74844,-53.43293 -93.52734,-90.14258 -45.67809,-67.671531 -66.4919,-154.501377 -64.84375,-241.75195 2.51256,-0.0146 4.9826,-0.0453 7.50195,-0.0586 l 525.65625,-2.76562 c 14.1336,-0.0744 28.1754,-0.12161 42.1016,-0.084 z m -715.3184,7.37891 c -0.56092,61.289171 7.45556,123.454026 25.89258,182.957032 a 70.007,70.007 0 0 0 0.0664,1.402344 c 3.41259,50.157154 -18.81137,104.989104 -56.18164,138.617184 -37.37027,33.6281 -94.23341,49.96328 -143.75391,41.29688 -39.8557,-6.975 -78.40552,-30.11298 -102.24805,-61.53516 -23.69371,-31.22605 -35.00492,-74.14908 -29.41601,-111.929685 5.15248,-34.830425 24.70024,-70.639922 52.9043,-98.542969 28.59712,-28.291923 66.72177,-50.212417 108.89648,-64.988281 44.2819,-15.514115 92.69998,-23.257135 143.83984,-27.277345 z m 875.1777,1.08008 c 38.0835,5.10622 74.3359,13.185708 108.1446,25.912109 44.5722,16.778045 84.6224,41.792207 113.7461,73.6542966 28.7228,31.4235114 47.4286,71.5060364 50.1308,109.6054644 3.0094,42.42896 -15.1898,88.98836 -45.8379,117.08985 -30.4032,27.87697 -78.0969,41.34526 -117.5703,33.1875 -26.3445,-5.4445 -52.8765,-20.17052 -73.7676,-40.81641 -21.0853,-20.83798 -37.7174,-48.5149 -48.0449,-78.9707 -20.7749,-61.265398 -16.5838,-134.9419442 3.1406,-206.820314 3.0083,-10.962457 6.4116,-21.903392 10.0586,-32.841796 z"
       id="path4498-7-1-0"
       inkscape:connector-curvature="0" />
    <path
       sodipodi:nodetypes="aaaaacaassaaaac"
       inkscape:connector-curvature="0"
       inkscape:original-d="m 1131.4926,1247.4884 c 181.2574,-1.0389 356.2972,225.2805 361.2156,406.4742 5.3773,198.1021 -172.0893,468.6889 -370.2334,465.1749 -192.80499,-3.4193 -351.52661,-272.4425 -343.98121,-465.1301 7.0222,-179.3266 173.53792,-405.4904 352.99901,-406.519 z m -328.25611,617.4094 c 0,0 -156.06479,265.9975 -281.84129,253.6183 C 416.75619,2108.2174 307.84319,1968.056 332.55309,1865.8562 378.07169,1677.592 577.4225,1612.2209 854.63121,1610.7626 l 525.65749,-2.7655 c 173.933,-0.915 518.0498,79.8776 544.1746,282.5931 14.213,110.2858 -138.9007,248.1245 -247.401,223.7799 -145.7165,-32.6949 -165.9959,-264.4643 -172.0087,-413.6826 -9.1673,-227.5006 225.4275,-422.5577 210.6497,-649.7628 -5.5463,-85.27272 -109.9821,-231.56801 -109.9821,-231.56801"
       inkscape:path-effect="#path-effect4500-0-5-18-9"
       id="path4498-7-1-0-9"
       d="m 1131.4926,1247.4884 c 50.0514,-0.6508 100.0212,11.8733 144.6269,34.5867 44.6057,22.7134 83.8668,55.4734 115.516,94.2534 63.2985,77.5601 95.0839,177.7021 101.0727,277.6341 6.6798,111.4625 -18.7728,227.0362 -84.441,317.3479 -32.834,45.1559 -75.3822,83.4755 -124.669,109.7041 -49.2868,26.2286 -105.3294,40.1613 -161.1234,38.1229 -53.7502,-1.9637 -106.6619,-18.7078 -152.73174,-46.4659 -46.06988,-27.7581 -85.32842,-66.356 -115.4202,-110.9367 -60.18356,-89.1612 -82.58893,-200.3679 -75.82927,-307.7275 6.2049,-98.5487 37.03925,-197.2571 98.57632,-274.481 30.76854,-38.612 68.96667,-71.4899 112.53231,-94.7196 43.56568,-23.2298 92.52268,-36.6765 141.89038,-37.3184 z m -328.25611,617.4094 c 4.93787,72.5753 -25.1225,146.7445 -79.1957,195.4029 -54.0732,48.6585 -130.99153,70.7553 -202.64559,58.2154 -57.31518,-10.0305 -110.77266,-41.822 -145.94435,-88.1749 -35.17169,-46.3529 -51.41263,-106.9251 -42.89776,-164.485 7.74956,-52.3864 35.27221,-100.8175 72.91848,-138.062 37.64627,-37.2444 85.00549,-63.7786 134.9835,-81.2884 99.95601,-35.0194 208.26459,-35.186 314.17614,-35.7432 l 525.65749,-2.7655 c 113.121,-0.5951 229.2624,-1.0794 335.1327,38.7727 52.9352,19.9261 102.5934,50.1911 140.7539,91.9398 38.1606,41.7487 64.2864,95.461 68.288,151.8806 4.5527,64.189 -20.9257,130.1476 -68.356,173.6369 -47.4304,43.4893 -116.0265,63.1667 -179.045,50.143 -41.0585,-8.4854 -78.9833,-30.107 -108.804,-59.5778 -29.8208,-29.4708 -51.6683,-66.5749 -65.1323,-106.2803 -26.928,-79.411 -20.2624,-166.9615 1.9276,-247.8245 30.469,-111.0324 88.56,-212.0778 136.4848,-316.7666 47.9249,-104.6888 86.5832,-218.5308 74.1649,-332.9962 -9.3917,-86.56775 -48.8216,-169.58759 -109.9821,-231.56801"
       style="fill:none;fill-rule:evenodd;stroke:#000000;stroke-width:140;stroke-linecap:round;stroke-linejoin:round;stroke-miterlimit:4;stroke-dasharray:none;stroke-opacity:1" />
    <path
       sodipodi:nodetypes="aaaaacaassaasssc"
       inkscape:connector-curvature="0"
       inkscape:original-d="m -4648.3168,-567.0508 c 196.0927,-1.12481 385.4589,243.89289 390.7799,440.05664 5.8174,214.469001 -186.1742,507.41138 -400.5358,503.60711 -208.5853,-3.7018 -380.2979,-294.951457 -372.1349,-503.55868 7.5969,-194.14234 187.7415,-438.99149 381.8908,-440.10507 z m -355.1228,668.419 c 0,0 -168.8381,287.9739 -304.9089,274.57195 -113.2035,-11.14952 -231.0305,-162.89095 -204.2982,-273.53438 49.2441,-203.81831 264.9111,-274.59029 564.8083,-276.16911 l 568.6807,-2.99401 c 188.1689,-0.99056 537.7337,90.73858 588.7135,305.94064 24.3077,102.61102 -80.0497,260.05035 -185.4318,256.3059 -177.1412,-6.2942 -277.2206,-279.54084 -280.337,-451.871343 -0.7721,-42.690477 14.6357,-130.310217 27.1525,-171.044857 56.2665,-183.11325 224.2264,-350.83281 212.7701,-542.4274 -5.5213,-92.33625 -118.9837,-250.69989 -118.9837,-250.69989"
       inkscape:path-effect="#path-effect4500-0-5-18-9-6-2"
       id="path4498-7-1-0-9-3-2"
       d="m -4648.3168,-567.0508 c 54.1701,-0.70455 108.251,12.86384 156.5182,37.46426 48.2671,24.60043 90.7419,60.07787 124.9744,102.06635 68.465,83.97695 102.8093,192.37051 109.2873,300.52603 7.2257,120.6383547 -20.2597,245.73004 -91.2845,343.51198 -35.5123,48.89097 -81.5428,90.38896 -134.876,118.79711 -53.3332,28.40815 -113.9883,43.50401 -174.3753,41.29802 -58.1766,-2.12524 -115.4436,-20.26304 -165.2961,-50.3256 -49.8525,-30.06256 -92.3238,-71.86069 -124.8697,-120.12862 -65.0918,-96.53586 -89.2826,-216.903657 -81.9691,-333.10446 6.713,-106.65897 40.0294,-213.50107 106.5887,-297.11367 33.2796,-41.80629 74.6041,-77.41104 121.7455,-102.5702 47.1415,-25.15916 100.1261,-39.72627 153.5566,-40.4212 z m -355.1228,668.419 c 5.4204,78.55048 -27.068,158.86241 -85.5783,211.55119 -58.5102,52.68877 -141.7755,76.61357 -219.3306,63.02076 -62.0304,-10.87184 -119.8741,-45.30761 -157.9198,-95.49212 -38.0458,-50.18451 -55.5986,-115.74499 -46.3784,-178.04226 8.3891,-56.68188 38.151,-109.0894751 78.8675,-149.405469 40.7165,-40.315994 91.9441,-69.053091 146.0123,-88.022561 108.1364,-37.93895 225.3314,-38.13775 339.9285,-38.74108 l 568.6807,-2.99401 c 121.643,-0.64043 246.6111,-0.0683 359.8956,44.24923 56.6423,22.15878 109.5533,55.242779 150.7823,99.958871 41.2289,44.716093 70.3353,101.399612 78.0356,161.732539 7.4351,58.25463 -5.7975,119.48603 -39.3492,167.68527 -33.5516,48.19925 -87.6954,82.31092 -146.0826,88.62063 -50.4673,5.45383 -102.1711,-9.68019 -144.2142,-38.12427 -42.0431,-28.44407 -74.6928,-69.5913 -96.7923,-115.28926 -44.1989,-91.39593 -46.4221,-197.183596 -39.3305,-298.457813 4.0405,-57.701417 10.885,-115.536767 27.1525,-171.044857 27.575,-94.09167 81.0546,-178.01947 127.4942,-264.3733 46.4396,-86.35384 87.1281,-180.02251 85.2759,-278.0541 -1.8009,-95.3178 -46.279,-189.03346 -118.9837,-250.69989"
       style="fill:none;fill-rule:evenodd;stroke:#000000;stroke-width:70;stroke-linecap:round;stroke-linejoin:round;stroke-miterlimit:4;stroke-dasharray:none;stroke-opacity:1" />
    <path
       style="color:#000000;font-style:normal;font-variant:normal;font-weight:normal;font-stretch:normal;font-size:medium;line-height:normal;font-family:sans-serif;text-indent:0;text-align:start;text-decoration:none;text-decoration-line:none;text-decoration-style:solid;text-decoration-color:#000000;letter-spacing:normal;word-spacing:normal;text-transform:none;direction:ltr;block-progression:tb;writing-mode:lr-tb;baseline-shift:baseline;text-anchor:start;white-space:normal;clip-rule:nonzero;display:inline;overflow:visible;visibility:visible;opacity:1;isolation:auto;mix-blend-mode:normal;color-interpolation:sRGB;color-interpolation-filters:linearRGB;solid-color:#000000;solid-opacity:1;fill:#000000;fill-opacity:1;fill-rule:evenodd;stroke:none;stroke-width:70;stroke-linecap:round;stroke-linejoin:round;stroke-miterlimit:4;stroke-dasharray:none;stroke-dashoffset:0;stroke-opacity:1;color-rendering:auto;image-rendering:auto;shape-rendering:auto;text-rendering:auto;enable-background:accumulate"
       d="m -4254.207,745.25 a 35.0035,35.0035 0 0 0 -22.877,62.00977 c 64.7347,54.9064 105.0254,139.79912 106.6289,224.66793 1.6614,87.9312 -35.6292,176.2504 -81.1074,260.8164 -40.1124,74.5884 -87.6359,150.0062 -118.5332,235.4082 -19.2307,-60.0445 -48.2936,-117.0146 -88.7734,-166.666 -37.0909,-45.4945 -83.2118,-84.1246 -136.2071,-111.1347 -53.0519,-27.0393 -112.5511,-42.0619 -172.8672,-41.2774 -59.4895,0.7737 -117.7788,16.895 -169.58,44.541 -51.7466,27.617 -96.6087,66.3723 -132.6504,111.6485 -55.3811,69.5703 -88.7976,152.8644 -104.5469,238.7304 -81.2617,2.7388 -163.8826,11.0399 -243.8047,39.0801 -57.9712,20.3388 -113.8133,51.3853 -159.0508,96.1778 -45.4331,44.9862 -79.1783,103.7015 -88.8652,169.1523 -10.6828,72.1795 9.3309,146.5617 53.1113,204.3105 43.7068,57.6519 109.0029,96.4197 179.7676,108.8223 88.6296,15.5338 181.9297,-11.2739 248.7949,-71.4863 37.4379,-33.713 65.3087,-76.7678 81.5176,-123.8848 2.2663,3.5643 4.4522,7.1696 6.8203,10.6817 35.2004,52.2047 81.2063,97.6015 135.8164,130.5332 54.6717,32.9687 117.4925,52.9702 182.0918,55.33 67.0628,2.4499 133.5968,-14.2169 192.1074,-45.3828 58.4406,-31.1287 108.3108,-76.2121 146.7403,-129.1191 16.4948,-22.709 30.6381,-46.7305 42.8125,-71.6231 6.9626,27.8431 16.44,55.2598 29.2988,81.8496 24.3967,50.4483 60.6366,96.5311 108.6895,129.0411 48.3012,32.678 107.7035,50.4029 167.5859,43.9316 69.486,-7.5091 131.834,-47.087 171.0488,-103.4219 39.0272,-56.0652 53.8271,-125.6281 45.3418,-192.1113 -8.754,-68.5891 -41.3673,-131.5096 -87.0234,-181.0273 -45.5129,-49.3623 -102.9988,-85.0575 -163.7617,-108.8282 -63.3196,-24.7708 -128.9023,-36.5077 -194.4649,-42.0351 1.7037,-6.8708 3.5224,-13.6907 5.502,-20.4453 25.7199,-87.7619 77.4644,-169.7465 124.7324,-257.6407 47.401,-88.1415 91.4883,-187.1609 89.4453,-295.2929 -1.9984,-105.76675 -50.6651,-208.30406 -131.3398,-276.7305 a 35.0035,35.0035 0 0 0 -22.4004,-8.625 z m -512.8262,533.8184 c 48.0242,-0.6247 96.6877,11.4886 140.1699,33.6504 43.5391,22.1906 82.3661,54.5174 113.7403,93 44.8577,55.021 74.2245,122.4993 89.6093,193.8124 -25.2122,-0.3019 -50.2911,-0.296 -75,-0.166 l -568.6797,2.9942 c -11.869,0.062 -23.8493,0.1278 -35.8496,0.2148 14.9885,-71.0694 43.6346,-138.4369 87.6368,-193.7129 30.5174,-38.3364 68.3055,-70.7907 110.8417,-93.4922 42.4818,-22.6723 90.1598,-35.6846 137.5313,-36.3007 z m 314.3379,390.2207 c 13.3129,0.049 26.5716,0.225 39.7969,0.4863 0.4818,5.4778 0.9253,10.9589 1.2539,16.4453 6.8226,113.9094 -19.4593,231.0776 -84.666,320.8496 -32.5952,44.8748 -74.786,82.7869 -123.0118,108.4746 -48.1558,25.6504 -102.9333,39.175 -156.6445,37.2129 -51.7538,-1.8906 -103.4647,-18.1638 -148.498,-45.3203 -45.0949,-27.1936 -84.0344,-65.3935 -113.9258,-109.7246 -59.7996,-88.6872 -82.9711,-201.4782 -76.0567,-311.3379 0.2867,-4.554 0.6842,-9.1023 1.0743,-13.6504 15.4735,-0.1757 30.9889,-0.2853 46.5468,-0.3672 l 568.6817,-2.9941 c 15.1758,-0.08 30.335,-0.1293 45.4492,-0.074 z m 119.5762,4.2851 c 63.5548,4.9427 124.9875,15.3565 181.9355,37.6348 52.5217,20.5467 100.8557,51.018 137.8008,91.0879 36.8017,39.9144 62.4023,90.3628 69.0488,142.4394 6.3849,50.0261 -5.2793,102.9245 -33.3555,143.2578 -27.8883,40.0636 -73.8287,68.7101 -121.1171,73.8204 -41.0523,4.4363 -85.0569,-8.1063 -120.8418,-32.3165 -36.0334,-24.3782 -65.0943,-60.5913 -84.8965,-101.539 -39.7908,-82.2806 -42.8612,-181.702 -35.9239,-280.7735 1.7405,-24.8549 4.0676,-49.4396 7.3497,-73.6113 z m -850.6075,0.9649 c -0.1832,2.4795 -0.428,4.9609 -0.5839,7.4394 -4.7953,76.1895 3.1593,154.46 26.7617,227.8653 a 35.0035,35.0035 0 0 0 0.021,5.0566 c 4.6463,67.3338 -23.9268,137.9677 -74.0821,183.1328 -50.1552,45.165 -123.3866,66.2065 -189.8672,54.5547 -53.296,-9.341 -103.6876,-39.4449 -136.0722,-82.1621 -32.3112,-42.6202 -47.4041,-99.3583 -39.6465,-151.7735 7.0913,-47.9129 32.8712,-94.0144 68.8711,-129.6601 36.1956,-35.8396 82.8074,-62.2652 132.9726,-79.8652 66.1939,-23.2237 137.7932,-31.4426 211.625,-34.5879 z"
       id="path4498-7-1-0-9-3-2-1"
       inkscape:connector-curvature="0" />
    <path
       style="color:#000000;font-style:normal;font-variant:normal;font-weight:normal;font-stretch:normal;font-size:medium;line-height:normal;font-family:sans-serif;text-indent:0;text-align:start;text-decoration:none;text-decoration-line:none;text-decoration-style:solid;text-decoration-color:#000000;letter-spacing:normal;word-spacing:normal;text-transform:none;direction:ltr;block-progression:tb;writing-mode:lr-tb;baseline-shift:baseline;text-anchor:start;white-space:normal;clip-rule:nonzero;display:inline;overflow:visible;visibility:visible;opacity:1;isolation:auto;mix-blend-mode:normal;color-interpolation:sRGB;color-interpolation-filters:linearRGB;solid-color:#000000;solid-opacity:1;fill:#000000;fill-opacity:1;fill-rule:evenodd;stroke:none;stroke-width:200;stroke-linecap:round;stroke-linejoin:round;stroke-miterlimit:4;stroke-dasharray:none;stroke-dashoffset:0;stroke-opacity:1;color-rendering:auto;image-rendering:auto;shape-rendering:auto;text-rendering:auto;enable-background:accumulate"
       d="m 4081.4434,-1102.8008 a 100.01,100.01 0 0 0 -71.1524,171.10939 c 44.8941,45.68029 74.8715,108.8006 81.9082,172.46094 9.4431,85.43021 -20.1223,182.62973 -64.8594,280.8125 -4.9699,10.90741 -10.204,21.92641 -15.5175,33.00391 -14.0461,-31.00781 -30.9892,-61.1252 -51.3965,-89.79883 -38.8409,-54.57381 -89.1557,-102.41043 -150.0137,-136.83789 -61.0974,-34.56285 -131.2703,-54.56561 -204.3574,-53.59375 -72.1395,0.95926 -140.8757,22.26974 -200.4766,57.50976 -59.3707,35.10404 -108.2308,83.01302 -145.8926,137.2461 -47.0521,67.75499 -75.5139,143.00712 -90.8105,219.31836 -61.3119,5.00194 -124.7359,15.54285 -188.3945,38.67383 -61.4021,22.31106 -121.8568,56.58103 -171.9239,107.62304 -50.5938,51.57901 -88.5539,118.78698 -99.1875,196.417971 -11.6765,85.244949 11.6173,170.344429 62.8262,238.019529 51.0391,67.45079 125.315,111.87757 207.3985,126.63282 103.4731,18.60024 209.4426,-11.57692 287.5917,-81.9004 15.843,-14.25643 30.0796,-29.88 42.7833,-46.51367 24.5666,25.09859 52.0971,47.75039 82.625,66.95703 59.5721,37.47979 128.8768,60.91267 202.1191,63.58985 75.9892,2.77759 149.4027,-17.0312 213.2266,-52.62305 44.5444,-24.84057 83.4479,-56.91641 116.5742,-93.50781 13.522,20.782 29.191,40.5195 47.4277,58.56055 43.2441,42.78019 98.5002,74.59483 161.7715,87 98.0363,19.22125 196.9739,-11.44488 268.1504,-78.82813 70.6948,-66.92711 105.2402,-161.27449 98.2207,-256.439453 -6.0502,-82.023323 -41.8672,-155.223679 -92.7461,-212.351567 -50.378,-56.56551 -113.3166,-95.53249 -178.2852,-121.0039 -22.7393,-8.91513 -45.5122,-16.11596 -68.2285,-22.05469 16.005,-33.01775 32.3506,-66.69949 48.5137,-102.17187 50.7609,-111.40304 97.5134,-242.21994 81.6523,-385.71289 -12.0923,-109.39756 -60.9083,-212.17641 -138.0566,-290.67578 a 100.01,100.01 0 0 0 -71.4902,-30.9219 z m -472.7305,577.13869 c 34.1933,-0.45468 70.9386,9.42331 103.2246,27.6875 32.5252,18.39956 62.1738,45.89258 85.5449,78.73047 20.881,29.33908 36.9461,63.33515 48.5078,100.15234 l -469.4629,2.47071 c 11.2934,-36.75212 26.9813,-70.74099 47.4317,-100.18946 22.751,-32.7615 51.611,-60.36419 83.4101,-79.16601 31.5692,-18.66581 67.5787,-29.23657 101.3438,-29.68555 z m 258.3496,406.50781 c -5.8259,77.40912 -27.6119,150.654307 -67.1992,207.314456 -24.1272,34.532514 -55.1647,63.417004 -89.3321,82.470704 -33.9049,18.90735 -72.6779,28.74145 -108.5117,27.43164 -34.5772,-1.26388 -71.1708,-13.03094 -102.9199,-33.00586 -31.9795,-20.11996 -60.6337,-49.21164 -82.791,-83.388671 -35.7291,-55.111258 -55.1852,-124.634182 -60.5137,-198.179689 l 500.9121,-2.63476 c 3.4913,-0.0184 6.8831,0.004 10.3555,-0.008 z m -711.2754,10.62891 c 2.9481,47.895023 10.334,96.290197 23.5371,143.701171 a 100.01,100.01 0 0 0 0.066,15.828125 c 2.9404,40.463062 -15.831,87.085264 -45.9883,114.222654 -30.1572,27.13737 -78.4942,40.90428 -118.4238,33.72656 -32.2181,-5.79149 -64.2601,-25.31265 -83.2969,-50.4707 -18.867,-24.93372 -28.2459,-60.382945 -24.1621,-90.197264 3.8315,-27.97189 19.7687,-58.99188939 43.8145,-83.505859 24.5725,-25.050966 58.6709,-45.610681 97.4492,-59.701172 32.6343,-11.858005 68.6176,-19.036265 107.0039,-23.603515 z m 925.2031,2.62695 c 26.5131,4.96356 51.6523,11.658552 75.0606,20.83594 40.8659,16.021784 76.7066,39.492939 101.9336,67.818359 24.7261,27.763045 40.3284,62.702566 42.6406,94.048829 2.5517,34.593602 -12.4687,73.963232 -36.2598,96.486332 -23.3091,22.06692 -62.5279,33.6187 -92.1718,27.80664 -20.2743,-3.97504 -42.3157,-15.82522 -59.5957,-32.91993 -17.577,-17.38835 -32.1137,-41.49099 -41.0508,-68.49023 -18.0567,-54.54919 -14.0877,-123.540317 5.5918,-192.814453 1.2077,-4.251272 2.5352,-8.511967 3.8515,-12.771487 z"
       id="path4498-7-1-0-9-9"
       inkscape:connector-curvature="0" />
  </g>
</svg>
