<?xml version="1.0" encoding="UTF-8" standalone="no"?>
<!-- Created with Inkscape (http://www.inkscape.org/) -->

<svg
   xmlns:dc="http://purl.org/dc/elements/1.1/"
   xmlns:cc="http://creativecommons.org/ns#"
   xmlns:rdf="http://www.w3.org/1999/02/22-rdf-syntax-ns#"
   xmlns:svg="http://www.w3.org/2000/svg"
   xmlns="http://www.w3.org/2000/svg"
   xmlns:sodipodi="http://sodipodi.sourceforge.net/DTD/sodipodi-0.dtd"
   xmlns:inkscape="http://www.inkscape.org/namespaces/inkscape"
   width="2000"
   height="2048"
   id="svg2992"
   version="1.1"
   inkscape:version="0.91 r13725"
   sodipodi:docname="ക്ത്ര.svg">
  <defs
     id="defs5498">
    <inkscape:path-effect
       effect="spiro"
       id="path-effect3846"
       is_visible="true" />
    <inkscape:path-effect
       effect="spiro"
       id="path-effect3801"
       is_visible="true" />
    <inkscape:path-effect
       is_visible="true"
       id="path-effect4500-0-5-18-2-1"
       effect="spiro" />
    <inkscape:path-effect
       is_visible="true"
       id="path-effect4141-3-4-6-8-0"
       effect="spiro" />
    <inkscape:path-effect
       is_visible="true"
       id="path-effect4500-0-5-18-2-1-8"
       effect="spiro" />
    <inkscape:path-effect
       is_visible="true"
       id="path-effect4141-3-4-6-8-0-3"
       effect="spiro" />
    <inkscape:path-effect
       is_visible="true"
       id="path-effect4141-3-4-6-8-0-3-9"
       effect="spiro" />
    <inkscape:path-effect
       is_visible="true"
       id="path-effect4500-0-5-18-2-1-8-4"
       effect="spiro" />
    <inkscape:path-effect
       is_visible="true"
       id="path-effect4500-0-5-18-2-1-8-4-6"
       effect="spiro" />
    <inkscape:path-effect
       is_visible="true"
       id="path-effect4141-3-4-6-8-0-3-9-2"
       effect="spiro" />
    <inkscape:path-effect
       is_visible="true"
       id="path-effect4141-3-4-6-8-0-3-9-2-4"
       effect="spiro" />
    <inkscape:path-effect
       is_visible="true"
       id="path-effect4500-0-5-18-2-1-8-4-6-5"
       effect="spiro" />
    <inkscape:path-effect
       is_visible="true"
       id="path-effect4141-3-4-6-8-0-3-9-7"
       effect="spiro" />
    <inkscape:path-effect
       is_visible="true"
       id="path-effect4500-0-5-18-2-1-8-4-2"
       effect="spiro" />
    <inkscape:path-effect
       is_visible="true"
       id="path-effect4500-0-5-18-2-1-8-4-0"
       effect="spiro" />
    <inkscape:path-effect
       is_visible="true"
       id="path-effect4141-3-4-6-8-0-3-9-1"
       effect="spiro" />
    <inkscape:path-effect
       is_visible="true"
       id="path-effect4500-0-5-18-2-1-8-4-6-56"
       effect="spiro" />
    <inkscape:path-effect
       is_visible="true"
       id="path-effect4141-3-4-6-8-0-3-9-2-0"
       effect="spiro" />
  </defs>
  <sodipodi:namedview
     inkscape:window-height="845"
     inkscape:window-width="1600"
     inkscape:pageshadow="2"
     inkscape:pageopacity="0.0"
     borderopacity="1.0"
     bordercolor="#666666"
     pagecolor="#ffffff"
     id="base"
     showgrid="true"
     showguides="true"
     inkscape:guide-bbox="true"
     inkscape:zoom="0.25"
     inkscape:cx="-2913.8063"
     inkscape:cy="-814.03967"
     inkscape:window-x="1600"
     inkscape:window-y="26"
     inkscape:current-layer="layer1"
     inkscape:window-maximized="1">
    <sodipodi:guide
       orientation="horizontal"
       position="0,600"
       id="guide5596" />
    <inkscape:grid
       type="xygrid"
       id="grid3769"
       empspacing="3"
       visible="true"
       enabled="true"
       snapvisiblegridlinesonly="true"
       spacingx="4px"
       units="px"
       dotted="true"
       spacingy="4px" />
    <sodipodi:guide
       orientation="0,1"
       position="2400,1584"
       id="guide2985" />
    <sodipodi:guide
       position="2544,1710"
       orientation="0,1"
       id="guide4181"
       inkscape:label=""
       inkscape:color="rgb(0,0,255)" />
    <sodipodi:guide
       position="-3480,1624"
       orientation="0,1"
       id="guide4161"
       inkscape:label=""
       inkscape:color="rgb(0,0,255)" />
  </sodipodi:namedview>
  <metadata
     id="metadata5594">
    <rdf:RDF>
      <cc:Work
         rdf:about="">
        <dc:format>image/svg+xml</dc:format>
        <dc:type
           rdf:resource="http://purl.org/dc/dcmitype/StillImage" />
        <dc:title />
      </cc:Work>
    </rdf:RDF>
  </metadata>
  <g
     inkscape:label="Layer 1"
     inkscape:groupmode="layer"
     id="layer1"
     transform="translate(0,1048)">
    <path
       sodipodi:nodetypes="aaaaacaassc"
       inkscape:connector-curvature="0"
       inkscape:original-d="m -7223.4539,-572.8723 c 185.7851,-1.05774 356.8295,238.7378 361.2155,424.4741 4.7651,201.791152 -168.4171,482.72543 -370.2333,479.175 -196.5766,-3.45825 -350.9607,-282.647122 -343.9812,-479.1302 6.5332,-183.92041 168.9656,-423.47113 352.999,-424.5189 z M -7551.71,62.537103 c 0,0 -152.9049,280.235167 -281.8413,267.618297 -108.4006,-10.60737 -215.7946,-161.12903 -188.8421,-266.659897 47.9296,-187.664933 244.8694,-253.635303 522.0781,-255.093703 l 525.6574,-2.7654 c 173.933,-0.9151 415.8868,122.178003 415.8868,122.178003"
       inkscape:path-effect="#path-effect4500-0-5-18-2-1-8-4"
       id="path4498-7-1-0-9-8-4-5"
       d="m -7223.4539,-572.8723 c 51.3721,-0.67739 102.6136,12.89319 147.9012,37.15398 45.2875,24.26079 84.6603,59.03294 115.9708,99.76631 62.6208,81.46675 91.9985,184.93982 97.3435,287.55381 5.9112,113.484247 -17.5544,231.106578 -82.3192,324.48293 -32.3824,46.68818 -74.7905,86.70021 -124.4674,114.27931 -49.6769,27.5791 -106.6652,42.47778 -163.4467,40.41276 -54.7655,-1.9917 -108.5915,-19.7152 -155.0348,-48.80564 -46.4432,-29.09043 -85.5592,-69.33745 -115.2152,-115.42162 -59.312,-92.168345 -79.818,-205.468626 -73.7312,-314.90294 5.6304,-101.22904 34.1124,-203.23562 94.9604,-284.33151 30.424,-40.54794 68.7113,-75.42472 112.9319,-100.2097 44.2206,-24.78497 94.4184,-39.30932 145.1067,-39.97769 z M -7551.71,62.537103 c 9.7754,74.794657 -18.146,153.562297 -72.8459,205.501837 -54.7,51.93954 -134.8066,75.74841 -208.9954,62.11646 -59.4515,-10.92403 -114.402,-45.33183 -149.5501,-94.50931 -35.1481,-49.17748 -49.9085,-112.6434 -39.292,-172.150587 9.2719,-51.970476 37.1487,-99.732965 74.7662,-136.771106 37.6175,-37.038137 84.6204,-63.740357 134.3241,-81.529047 99.4075,-35.57738 207.4071,-36.23811 312.9878,-36.79355 l 525.6574,-2.7654 c 74.1355,-0.39002 149.0687,1.12516 220.8456,19.68047 71.7769,18.55531 139.4948,53.39735 195.0412,102.497533"
       style="fill:none;fill-rule:evenodd;stroke:#000000;stroke-width:140;stroke-linecap:round;stroke-linejoin:round;stroke-miterlimit:4;stroke-dasharray:none;stroke-opacity:1" />
    <path
       sodipodi:nodetypes="cassaaassaasc"
       inkscape:connector-curvature="0"
       inkscape:original-d="m -8122.4627,-561.95764 c 10.5325,2.32264 -306.2919,715.60116 -134.4839,1007.69624 179.099,304.49067 953.4271,388.15751 986.2279,387.90918 l 1079.7279,-8.17439 c 127.2452,-0.96335 487.6347,60.38149 672.7695,-68.19867 289.1578,-200.82636 547.322,-604.72748 466.7454,-947.43852 -46.6302,-198.32894 -282.5916,-379.56237 -486.1263,-370.486 -235.3163,10.49363 -507.2981,291.5197 -521.6769,476.6636 -15.1216,194.7091 227.7758,385.0316 371.93,412.1187 195.6219,36.758 261.5929,-374.265024 198.6919,-563.1103 -62.9372,-188.95397 -297.8343,-335.60113 -496.9558,-331.6884 -224.3355,4.40818 -440.1541,190.2513 -544.7709,395.3952 -104.6169,205.143903 358.821,511.5965 358.821,511.5965"
       inkscape:path-effect="#path-effect4141-3-4-6-8-0-3-9"
       id="path4139-1-0-4-2-1-7-3"
       d="m -8122.4627,-561.95764 c -139.3811,121.69429 -232.521,295.11866 -256.9977,478.523929 -24.4767,183.405269 19.9242,375.185381 122.5138,529.172311 102.654,154.08351 261.5823,267.12546 437.0713,326.14393 175.489,59.01846 364.0145,63.16692 549.1566,61.76525 l 1079.7279,-8.17439 c 226.4517,-1.71442 459.1733,7.03404 672.7695,-68.19867 185.3496,-65.2837 346.3323,-200.98499 435.3908,-376.15634 89.0586,-175.17135 103.2843,-388.4091353 31.3546,-571.28218 -39.4293,-100.24465 -104.0935,-191.07345 -188.8342,-257.57658 -84.7408,-66.50313 -189.6837,-108.00076 -297.2921,-112.90942 -130.3438,-5.94576 -262.0106,43.03989 -357.9474,131.47635 -95.9367,88.43647 -155.3077,214.97996 -163.7295,345.18725 -6.8716,106.240302 20.9095,216.8893 88.7738,298.91775 33.9321,41.01422 77.4473,74.33431 126.6398,94.67293 49.1924,20.33861 104.0404,27.46244 156.5164,18.52802 57.0526,-9.71361 110.3645,-38.29513 151.8187,-78.67953 41.4542,-40.3844 71.1675,-92.24175 87.499,-147.7632 32.663,-111.042912 11.2586,-233.20062 -40.6258,-336.66757 -46.7176,-93.16348 -117.77,-174.0521 -204.3752,-232.0306 -86.6052,-57.97849 -188.5812,-92.86786 -292.5806,-99.6578 -122.557,-8.00153 -248.3546,23.88652 -348.9205,94.39004 -100.5659,70.50352 -174.2955,180.09349 -195.8504,301.00516 -20.3168,113.966812 6.5821,235.61694 73.0556,330.3929 66.4735,94.77596 171.6919,161.49483 285.7654,181.2036"
       style="fill:none;fill-rule:evenodd;stroke:#000000;stroke-width:140;stroke-linecap:round;stroke-linejoin:round;stroke-miterlimit:4;stroke-dasharray:none;stroke-opacity:1" />
    <path
       sodipodi:nodetypes="aaaaacaassc"
       inkscape:connector-curvature="0"
       inkscape:original-d="m -3515.7873,-585.31876 c 197.7527,-4.29095 356.1419,271.69135 363.0607,469.36954 6.7522,192.917821 -128.5097,474.88553 -321.4247,481.71781 -202.9868,7.18897 -368.7253,-278.607348 -373.2158,-481.67169 -4.2353,-191.52452 140.0535,-465.25981 331.5798,-469.41566 z m -306.1292,686.52369 c 0,0 -161.5211,281.85737 -289.9018,261.09551 -112.375,-18.17341 -202.4005,-188.11924 -168.787,-296.878402 56.0355,-181.306828 226.4174,-248.223608 511.5533,-249.844888 l 500.6908,-2.84693 c 178.9069,-1.01727 427.7808,133.780094 427.7808,133.780094"
       inkscape:path-effect="#path-effect4500-0-5-18-2-1-8-4-6"
       id="path4498-7-1-0-9-8-4-5-4"
       d="m -3515.7873,-585.31876 c 55.119,-2.15849 110.3876,13.22589 158.039,41.01266 47.6514,27.78678 87.7896,67.66862 118.4531,113.52175 61.3269,91.70628 83.9886,204.54289 86.5686,314.83513 2.4968,106.7329147 -13.5884,216.60563 -66.8136,309.15415 -26.6126,46.27427 -62.3753,87.60073 -106.032,118.31926 -43.6568,30.71854 -95.3241,50.57829 -148.5791,54.2444 -56.9277,3.91894 -114.5517,-10.78943 -164.248,-38.83232 -49.6962,-28.0429 -91.5671,-69.07362 -123.3041,-116.49598 -63.4742,-94.84472 -85.5633,-212.2185503 -85.6637,-326.34339 -0.093,-106.04987 18.6376,-214.81138 73.9613,-305.2872 27.6618,-45.23791 64.3188,-85.29232 108.535,-114.55962 44.2162,-29.2673 96.0992,-47.49394 149.0835,-49.56884 z m -306.1292,686.52369 c 11.9615,76.15982 -16.9043,157.52349 -74.1893,209.11634 -57.285,51.59286 -141.2152,71.81708 -215.7125,51.97917 -61.0458,-16.25589 -114.5792,-58.37138 -145.5395,-113.43768 -30.9604,-55.06631 -39.17,-122.30714 -23.2475,-183.440722 12.9333,-49.656729 41.1402,-94.782053 77.9373,-130.545635 36.7971,-35.763583 81.9528,-62.352213 129.9527,-80.492473 95.9999,-36.28053 201.0382,-38.22325 303.6633,-38.80678 l 500.6908,-2.84693 c 76.9109,-0.43732 154.7531,1.23752 228.9113,21.63449 74.1582,20.39697 143.5589,58.70212 198.8695,112.145604"
       style="fill:none;fill-rule:evenodd;stroke:#000000;stroke-width:70;stroke-linecap:round;stroke-linejoin:round;stroke-miterlimit:4;stroke-dasharray:none;stroke-opacity:1" />
    <path
       sodipodi:nodetypes="csassaaaaaaasc"
       inkscape:connector-curvature="0"
       inkscape:original-d="m -4383.364,-589.11394 c 10.8337,2.39112 -330.5911,415.50361 -269.0121,642.494971 54.5146,200.951039 102.2541,470.731089 276.5541,610.461189 213.3396,171.02669 784.8138,167.98857 802.9329,167.85128 l 1110.6072,-8.4154 c 130.8843,-0.99175 447.0119,33.5173 618.4711,-84.35149 264.826,-182.05336 515.0415,-527.97036 463.7752,-845.22105 -37.3162,-230.92343 -280.4381,-486.91091 -514.1713,-477.58875 -232.0772,9.25611 -449.2714,282.12776 -471.1406,513.357591 -16.0751,169.96698 98.8322,428.978319 269.4299,435.582569 168.0099,6.50407 311.6311,-239.61936 297.7124,-407.177974 -21.4799,-258.583736 -297.3635,-541.393796 -556.8252,-543.955956 -208.6594,-2.06049 -348.7422,217.32964 -456.3509,428.52164 -107.6089,211.192008 253.1175,521.02264 253.1175,521.02264"
       inkscape:path-effect="#path-effect4141-3-4-6-8-0-3-9-2"
       id="path4139-1-0-4-2-1-7-3-5"
       d="m -4383.364,-589.11394 c -167.7585,168.87067 -266.4059,404.47514 -269.0121,642.494971 -1.2688,115.874829 19.6308,232.475239 65.8738,338.730449 46.243,106.25521 118.2078,201.89214 210.6803,271.73074 111.1866,83.97221 248.0431,128.4406 385.8054,149.30538 137.7623,20.86478 277.7981,19.60164 417.1275,18.5459 l 1110.6072,-8.4154 c 209.4677,-1.5872 425.3712,-3.16242 618.4711,-84.35149 159.9926,-67.26908 296.4751,-189.39919 380.2327,-341.41051 83.7576,-152.01131 114.0767,-332.958446 83.5425,-503.81054 -22.4763,-125.76449 -78.5169,-247.23858 -169.1906,-337.23947 -90.6738,-90.00089 -217.3533,-146.10512 -344.9807,-140.34928 -126.3822,5.69968 -246.3953,71.66368 -328.7658,167.68469 -82.3705,96.02101 -128.6562,219.9083 -142.3748,345.672901 -10.3968,95.312013 -2.0066,195.366899 42.8519,280.102889 22.4293,42.368 53.8551,80.2689 92.8919,108.09426 39.0367,27.82537 85.7925,45.30734 133.6861,47.38542 47.4319,2.05804 95.0868,-11.0356 136.0375,-35.05778 40.9506,-24.02219 75.2634,-58.71087 100.8641,-98.6937 51.2015,-79.96565 66.7536,-178.659548 60.8108,-273.426494 -9.0116,-143.702426 -66.9149,-285.389226 -167.8074,-388.113596 -100.8925,-102.72437 -245.2529,-163.7955 -389.0178,-155.84236 -112.8553,6.24321 -222.6106,54.58076 -304.6079,132.37365 -81.9973,77.79288 -135.8753,184.23951 -151.743,296.14799 -14.3817,101.428433 2.1945,207.036624 46.9593,299.18147 44.7648,92.14486 117.5366,170.45266 206.1582,221.84117"
       style="fill:none;fill-rule:evenodd;stroke:#000000;stroke-width:70;stroke-linecap:round;stroke-linejoin:round;stroke-miterlimit:4;stroke-dasharray:none;stroke-opacity:1" />
    <path
       style="color:#000000;font-style:normal;font-variant:normal;font-weight:normal;font-stretch:normal;font-size:medium;line-height:normal;font-family:sans-serif;text-indent:0;text-align:start;text-decoration:none;text-decoration-line:none;text-decoration-style:solid;text-decoration-color:#000000;letter-spacing:normal;word-spacing:normal;text-transform:none;direction:ltr;block-progression:tb;writing-mode:lr-tb;baseline-shift:baseline;text-anchor:start;white-space:normal;clip-rule:nonzero;display:inline;overflow:visible;visibility:visible;opacity:1;isolation:auto;mix-blend-mode:normal;color-interpolation:sRGB;color-interpolation-filters:linearRGB;solid-color:#000000;solid-opacity:1;fill:#000000;fill-opacity:1;fill-rule:evenodd;stroke:none;stroke-width:140;stroke-linecap:round;stroke-linejoin:round;stroke-miterlimit:4;stroke-dasharray:none;stroke-dashoffset:0;stroke-opacity:1;color-rendering:auto;image-rendering:auto;shape-rendering:auto;text-rendering:auto;enable-background:accumulate"
       d="m -7143.9453,1113.1289 a 70.007,70.007 0 0 0 -1.5195,0.027 c -151.6501,4.3581 -268.7823,93.7383 -337.209,206.9629 -32.7097,54.1243 -55.8809,113.814 -69.877,175.1524 -117.8627,7.7393 -237.2388,34.6089 -342.457,118.0019 -175.4956,129.5409 -156.6342,421.0146 46.3926,513.9121 147.3702,80.3191 323.7019,11.8625 405.0468,-117.4003 2.7028,3.1651 5.3493,6.3777 8.1309,9.4746 80.5054,89.6273 199.3337,150.2597 333.1328,135.5312 a 70.007,70.007 0 0 0 0.068,-0.01 c 136.0143,-15.1099 242.167,-98.4581 307.2812,-202.957 56.9704,-91.4293 86.0908,-199.6788 84.8164,-305.6348 6.9825,1.1109 13.9632,2.2302 20.9004,3.5039 60.714,16.0334 117.9049,45.7255 164.1074,86.5664 a 70.007,70.007 0 1 0 92.7207,-104.8945 c -64.4296,-56.9529 -141.9369,-96.639 -223.8828,-117.8223 a 70.007,70.007 0 0 0 -4.6679,-1.039 c -20.8089,-3.8861 -41.5501,-6.9888 -62.2422,-9.6719 -16.4792,-81.1665 -51.2796,-159.684 -102.5254,-226.0039 -73.0671,-94.5601 -184.5652,-164.6384 -318.2168,-163.7012 z m 1.75,140.0156 c 85.0205,-0.3397 153.3355,41.5381 205.6855,109.2871 28.8052,37.2784 51.1759,82.3076 65.627,129.209 -124.936,-3.6885 -246.7171,4.4744 -363.2481,1.8086 a 70.007,70.007 0 0 0 -4.5371,0.043 c -52.3128,2.1962 -109.0352,0.2856 -167.8632,-0.6777 10.7667,-35.8032 25.3735,-69.9955 43.6777,-100.2833 50.0934,-82.8888 120.1374,-136.2385 220.6582,-139.3867 z m 188.4726,378.2735 c 34.7636,-0.1433 69.1301,0.2129 103.0665,1.5664 3.7098,82.7465 -18.9854,173.9712 -63.1211,244.8027 -47.4854,76.2072 -115.0849,127.971 -203.8789,137.8477 -84.4399,9.2835 -156.69,-26.5392 -213.627,-89.9278 -30.8856,-34.3852 -55.5718,-76.8713 -72.0039,-121.7265 a 70.007,70.007 0 0 0 -6.1211,-17.9629 c -10.0844,-32.2718 -15.862,-65.3608 -16.4453,-97.2422 a 70.007,70.007 0 0 0 -0.3438,-5.7676 c -1.5711,-15.5252 -2.1912,-31.5394 -2.0566,-47.7851 62.725,-0.1224 127.4835,0.8927 193.3262,-1.7872 95.96,2.0969 189.945,-1.6415 281.205,-2.0175 z m -614.6972,8.8574 c 0.1272,18.2107 0.9929,36.3076 2.7207,54.1797 1.2409,49.8117 10.3747,99.4149 26.4609,146.8066 11.4318,118.4614 -138.929,221.33 -244.1797,162.1426 a 70.007,70.007 0 0 0 -5.7617,-2.9004 c -103.0173,-46.0161 -111.3252,-209.4636 -22.457,-274.7851 a 70.007,70.007 0 0 0 2.2695,-1.7403 c 67.8565,-54.2808 150.1911,-75.4425 240.9473,-83.7031 z"
       id="path4498-7-1-0-9-8-4-5-5"
       inkscape:connector-curvature="0" />
    <path
       style="color:#000000;font-style:normal;font-variant:normal;font-weight:normal;font-stretch:normal;font-size:medium;line-height:normal;font-family:sans-serif;text-indent:0;text-align:start;text-decoration:none;text-decoration-line:none;text-decoration-style:solid;text-decoration-color:#000000;letter-spacing:normal;word-spacing:normal;text-transform:none;direction:ltr;block-progression:tb;writing-mode:lr-tb;baseline-shift:baseline;text-anchor:start;white-space:normal;clip-rule:nonzero;display:inline;overflow:visible;visibility:visible;opacity:1;isolation:auto;mix-blend-mode:normal;color-interpolation:sRGB;color-interpolation-filters:linearRGB;solid-color:#000000;solid-opacity:1;fill:#000000;fill-opacity:1;fill-rule:evenodd;stroke:none;stroke-width:140;stroke-linecap:round;stroke-linejoin:round;stroke-miterlimit:4;stroke-dasharray:none;stroke-dashoffset:0;stroke-opacity:1;color-rendering:auto;image-rendering:auto;shape-rendering:auto;text-rendering:auto;enable-background:accumulate"
       d="m -5953.3047,1117.6172 c -191.0219,3.2927 -378.7666,88.8134 -487.8301,260.1113 l 2.1856,-3.2305 c -182.108,253.6418 -72.9778,636.6174 216.5859,754.5567 37.8211,16.802 77.7464,29.1442 118.8848,36.25 a 70.007,70.007 0 1 0 23.8301,-137.957 c -29.6843,-5.1274 -58.9496,-14.1479 -86.7696,-26.5918 a 70.007,70.007 0 0 0 -2.3496,-1 c -200.5646,-81.069 -282.5267,-368.0191 -156.459,-543.6075 a 70.007,70.007 0 0 0 2.1856,-3.2304 c 96.8053,-152.045 290.0247,-213.2354 467.3808,-185.8125 -81.9323,73.6813 -140.7795,171.7106 -171.1914,276.7461 -47.2391,163.1529 -25.7344,349.6502 95.834,487.0097 143.6256,172.3957 429.1109,170.891 561.0449,-16.7148 93.2755,-125.3663 104.534,-279.4253 66.0215,-415.8926 -36.8657,-130.6323 -117.0025,-249.0769 -220.8554,-331.2168 192.5852,-18.3392 396.5008,108.2682 472.8984,288.9395 a 70.007,70.007 0 0 0 1.3555,3.0039 c 132.4943,276.3151 12.8912,641.0097 -244.5625,804.1347 a 70.007,70.007 0 0 0 -1.7637,1.1563 c -256.8663,173.8172 -594.2653,140.8192 -925.3086,148.041 -399.5955,0.2768 -797.4238,12.2211 -1193.0293,3.0098 -294.1689,-7.2734 -598.0795,-146.6751 -735.6211,-405.8262 a 70.007,70.007 0 0 0 -0.8789,-1.6035 c -155.0775,-274.6244 -86.262,-656.7624 154.4648,-860.4082 a 70.007,70.007 0 1 0 -90.4199,-106.8848 c -295.1167,249.6577 -376.1228,698.4664 -186.3437,1035.3965 167.4395,314.5372 520.0492,470.9967 855.3515,479.2832 a 70.007,70.007 0 0 0 0.1,0 c 400.7735,9.3348 799.9067,-2.7068 1196.9415,-2.9727 a 70.007,70.007 0 0 0 1.498,-0.016 c 317.6121,-7.0089 691.3811,37.2225 1000.6641,-171.4023 318.2222,-202.1542 461.1354,-634.5637 295.6699,-981.2715 -121.9662,-285.6654 -468.5946,-462.0252 -767.2871,-332.9102 -83.0156,-34.0257 -172.9427,-50.6327 -262.2266,-49.0937 z m 260.8359,203.8379 c 23.6467,12.8763 46.1546,27.6754 66.9864,44.6269 a 70.007,70.007 0 0 0 2.4824,1.9297 c 84.1617,62.4156 154.7653,163.5733 184.3105,268.2656 29.5453,104.6924 20.6238,208.4934 -44.0312,294.9297 a 70.007,70.007 0 0 0 -1.3457,1.8614 c -75.1673,107.6854 -256.3163,108.0197 -339.4668,8.0976 a 70.007,70.007 0 0 0 -1.6133,-1.873 c -86.2995,-96.5574 -103.7351,-230.4207 -67.2285,-356.5059 31.6714,-109.3854 104.2884,-207.696 199.9062,-261.332 z"
       id="path4139-1-0-4-2-1-7-3-2"
       inkscape:connector-curvature="0" />
    <path
       style="color:#000000;font-style:normal;font-variant:normal;font-weight:normal;font-stretch:normal;font-size:medium;line-height:normal;font-family:sans-serif;text-indent:0;text-align:start;text-decoration:none;text-decoration-line:none;text-decoration-style:solid;text-decoration-color:#000000;letter-spacing:normal;word-spacing:normal;text-transform:none;direction:ltr;block-progression:tb;writing-mode:lr-tb;baseline-shift:baseline;text-anchor:start;white-space:normal;clip-rule:nonzero;display:inline;overflow:visible;visibility:visible;opacity:1;isolation:auto;mix-blend-mode:normal;color-interpolation:sRGB;color-interpolation-filters:linearRGB;solid-color:#000000;solid-opacity:1;fill:#000000;fill-opacity:1;fill-rule:evenodd;stroke:none;stroke-width:200;stroke-linecap:round;stroke-linejoin:round;stroke-miterlimit:4;stroke-dasharray:none;stroke-dashoffset:0;stroke-opacity:1;color-rendering:auto;image-rendering:auto;shape-rendering:auto;text-rendering:auto;enable-background:accumulate"
       d="M 458.37695 339.17383 A 100.01 100.01 0 0 0 387.75 364.73047 C 227.85833 504.39965 122.51735 700.96045 94.757812 911.44141 C 66.998271 1121.9224 117.7768 1339.0725 235.99023 1515.4199 C 352.87956 1689.7921 529.66134 1814.818 724.32812 1880.4414 C 918.91936 1946.0393 1118.8948 1949.0614 1306.0391 1947.6445 L 2385.7656 1939.4707 C 2498.2721 1938.6189 2613.3622 1939.155 2730.6406 1932.2539 C 2848.4448 1925.3218 2972.3819 1910.0803 3092.8789 1864.9121 C 3268.7431 1798.9895 3418.5235 1673.2331 3515.1133 1512.8164 C 3611.6515 1352.4852 3652.428 1162.3003 3631.918 976.84375 C 3614.6114 820.35352 3553.1277 665.69545 3442.6387 545.59375 C 3331.3278 424.59858 3173.3233 345.07299 3003.4082 343.35547 C 2923.9097 342.55189 2846.166 358.97582 2774.5664 389.45898 C 2706.3558 360.98492 2633.1295 344.18637 2558.0938 341.40234 C 2400.7758 335.56546 2244.1086 391.80731 2127.9766 500.16016 C 2045.809 576.82365 1987.6611 676.50229 1961.3574 784.98047 C 1924.8357 766.8596 1886.5163 752.65946 1847.2168 742.5 C 1829.7853 737.99372 1812.5233 734.55672 1795.3809 731.62891 C 1777.3934 656.01697 1745.7445 582.20949 1695.7012 517.10547 C 1656.4628 466.05838 1606.7484 421.78254 1547.668 390.13281 C 1488.386 358.37517 1421.0835 340.21561 1351.2285 341.13672 C 1282.3127 342.04543 1216.3883 361.45383 1158.5469 393.87305 C 1100.8991 426.18378 1052.5943 470.55424 1014.5195 521.29883 C 967.36039 584.15077 937.03704 654.69925 919.24805 726.94141 C 857.39493 731.74964 793.35228 742.01165 729 765.04297 C 668.23591 786.7901 608.38337 820.06899 558.21289 869.4668 C 507.56905 919.33068 468.65837 984.27209 455.16016 1059.9316 C 439.56969 1147.3185 460.42754 1236.2776 511.54102 1307.793 C 562.52851 1379.1321 638.98878 1426.8199 724.37695 1442.5098 C 831.5053 1462.1943 941.31418 1429.5572 1020.3008 1354.5566 C 1032.8873 1342.6053 1044.3173 1329.7348 1054.7891 1316.2422 C 1078.9007 1340.3908 1105.7893 1362.1653 1135.4102 1380.7188 C 1195.8253 1418.5606 1265.975 1442.0226 1339.8945 1444.7109 C 1416.5623 1447.4992 1490.8234 1427.709 1555.5137 1391.7949 C 1619.9608 1356.0159 1673.1778 1305.3752 1713.6133 1247.0762 C 1777.9605 1154.3019 1807.5139 1046.8654 1813.4434 940.8457 C 1864.4837 956.45353 1912.191 982.43315 1951 1016.7383 A 100.01 100.01 0 0 0 1955.4434 1020.3926 C 1971.4547 1104.2434 2006.6178 1183.9732 2058.5117 1252.5039 C 2129.9773 1346.8806 2230.4839 1416.4837 2343.9668 1450.1875 A 100.01 100.01 0 1 0 2400.9082 1258.4648 C 2329.2449 1237.1812 2263.0851 1191.3637 2217.9551 1131.7656 C 2172.8252 1072.1676 2146.6622 996.06607 2145.6055 921.31641 C 2144.1836 820.73607 2189.8508 715.96318 2264.4141 646.39453 C 2339.2519 576.56976 2446.9937 537.41862 2550.6797 541.26562 C 2554.5539 541.40938 2558.4305 541.72558 2562.3066 541.98633 C 2468.0264 647.47499 2412.7895 782.52394 2401.0742 921.62109 C 2390.6361 1045.5545 2414.6741 1180.1034 2497.1895 1288.7227 C 2538.5629 1343.1848 2593.3232 1388.6885 2659.0078 1417.0215 C 2725.0597 1445.5128 2799.5231 1455.2946 2872.9785 1440.0449 C 2933.5085 1427.4787 2987.8871 1399.0112 3032.7852 1360.5117 C 3077.5065 1322.1637 3111.6497 1274.9853 3135.6543 1224.166 C 3183.5615 1122.7434 3189.3842 1012.5835 3174.2227 912.10156 C 3153.5644 775.19096 3092.2431 645.17194 2996.5781 543.43164 C 2998.1796 543.42464 2999.7872 543.32949 3001.3867 543.3457 C 3108.5166 544.42858 3219.1797 598.09684 3295.4492 681.00195 C 3372.5408 764.80053 3419.9826 879.93815 3433.1309 998.82812 C 3448.7619 1140.1676 3416.8358 1288.3113 3343.7754 1409.6504 C 3270.7665 1530.9039 3154.683 1628.1546 3022.6777 1677.6367 C 2931.0133 1711.9971 2827.2723 1726.222 2718.8906 1732.5996 C 2609.983 1739.0082 2498.3163 1738.613 2384.252 1739.4766 L 1304.5234 1747.6504 C 1121.4573 1749.0363 944.44896 1743.5887 788.2168 1690.9219 C 632.06017 1638.2805 491.37178 1537.2041 402.11719 1404.0566 C 311.79596 1269.318 271.83128 1098.4102 293.04102 937.5918 C 314.25075 776.77337 397.15865 622.07001 519.32422 515.35547 A 100.01 100.01 0 0 0 458.37695 339.17383 z M 1356.9551 541.10547 C 1388.9494 541.25379 1422.9112 550.18962 1453.2266 566.42969 C 1484.7212 583.30154 1513.7521 608.57058 1537.1348 638.99023 C 1555.4488 662.81595 1570.427 690.13746 1582.209 719.73633 L 1130.3848 722.11133 C 1141.9053 692.56541 1156.5523 665.24684 1174.4961 641.33203 C 1197.2693 610.98074 1225.5386 585.59712 1256.332 568.33789 C 1286.9318 551.18716 1321.4045 541.54716 1353.8652 541.11914 C 1354.893 541.10559 1355.923 541.10068 1356.9551 541.10547 z M 2776.4121 616.99609 C 2796.5017 630.56528 2815.5139 645.66463 2832.9844 662.26953 C 2909.0751 734.59032 2960.5125 836.23154 2976.4629 941.94141 C 2987.1622 1012.85 2980.9372 1083.4407 2954.8145 1138.7441 C 2941.8041 1166.2879 2923.6663 1190.6195 2902.5977 1208.6855 C 2881.7057 1226.6001 2856.6503 1239.1705 2832.3242 1244.2207 C 2803.0307 1250.3022 2768.5288 1246.4494 2738.2227 1233.377 C 2707.5494 1220.1461 2678.5538 1196.8403 2656.4473 1167.7402 C 2612.0022 1109.2349 2593.1909 1023.6122 2600.3672 938.40625 C 2609.1985 833.551 2655.0022 730.46456 2727.4746 658.14648 C 2742.5225 643.1306 2758.9821 629.41837 2776.4121 616.99609 z M 1601.8691 919.63477 C 1606.0528 919.61277 1609.9956 919.7196 1614.1367 919.7168 C 1610.9454 998.81079 1589.7701 1074.7047 1549.2734 1133.0918 C 1524.9442 1168.1692 1493.3422 1197.5545 1458.4355 1216.9336 C 1423.772 1236.1777 1384.0573 1246.1856 1347.1621 1244.8438 C 1311.5507 1243.5486 1274.0477 1231.5617 1241.5762 1211.2227 C 1208.8906 1190.7495 1179.7106 1161.1483 1157.3711 1126.4336 C 1120.7868 1069.5831 1101.8528 997.53003 1098.9512 922.28125 L 1601.8691 919.63477 z M 899.01758 930.57617 C 901.05708 985.82374 909.41444 1041.6767 925.74414 1095.9062 C 928.70918 1136.0782 911.45395 1182.1103 882.58594 1209.5215 C 852.17262 1238.4 801.77064 1253.3821 760.52148 1245.8027 C 727.00664 1239.6445 693.56463 1218.5139 674.25586 1191.498 C 655.07307 1164.6585 646.41016 1126.6861 652.05273 1095.0586 C 657.09834 1066.7772 673.94209 1036.1948 698.5332 1011.9824 C 723.59769 987.30395 757.74919 967.17791 796.39258 953.34766 C 827.83436 942.09482 862.30707 935.10071 899.01758 930.57617 z "
       transform="translate(0,-1048)"
       id="path4498-7-1-0-9-8-4-5-57" />
    <path
       style="color:#000000;font-style:normal;font-variant:normal;font-weight:normal;font-stretch:normal;font-size:medium;line-height:normal;font-family:sans-serif;text-indent:0;text-align:start;text-decoration:none;text-decoration-line:none;text-decoration-style:solid;text-decoration-color:#000000;letter-spacing:normal;word-spacing:normal;text-transform:none;direction:ltr;block-progression:tb;writing-mode:lr-tb;baseline-shift:baseline;text-anchor:start;white-space:normal;clip-rule:nonzero;display:inline;overflow:visible;visibility:visible;opacity:1;isolation:auto;mix-blend-mode:normal;color-interpolation:sRGB;color-interpolation-filters:linearRGB;solid-color:#000000;solid-opacity:1;fill:#000000;fill-opacity:1;fill-rule:evenodd;stroke:none;stroke-width:70;stroke-linecap:round;stroke-linejoin:round;stroke-miterlimit:4;stroke-dasharray:none;stroke-dashoffset:0;stroke-opacity:1;color-rendering:auto;image-rendering:auto;shape-rendering:auto;text-rendering:auto;enable-background:accumulate"
       d="M -4248.168 2319.5508 A 35.0035 35.0035 0 0 0 -4272.1953 2330.2188 C -4446.5902 2505.7698 -4548.6637 2749.5623 -4551.373 2996.998 C -4552.6907 3117.3376 -4531.0376 3238.7702 -4482.5957 3350.0781 C -4434.1171 3461.4701 -4358.6823 3561.9348 -4260.916 3635.7715 C -4143.4494 3724.4866 -4000.9067 3770.3005 -3859.2578 3791.7539 C -3717.8166 3813.1759 -3575.9186 3811.7488 -3436.623 3810.6934 L -2326.0176 3802.2773 C -2116.5566 3800.6902 -1895.7895 3799.9306 -1694.2461 3715.1914 C -1526.8567 3644.8123 -1384.6131 3517.5531 -1296.9238 3358.4062 C -1209.2236 3199.2395 -1177.589 3010.5639 -1209.582 2831.5488 C -1233.1442 2699.7082 -1291.8384 2571.6389 -1388.5703 2475.625 C -1485.6504 2379.2652 -1620.8885 2318.8884 -1759.7832 2325.1523 C -1829.0176 2328.2747 -1895.8409 2347.8213 -1956.3965 2379.5469 C -2037.9352 2338.8889 -2129.1184 2317.8957 -2220.9629 2322.9766 C -2342.5169 2329.701 -2459.6678 2381.3628 -2547.7266 2464.9062 C -2635.7355 2548.4026 -2693.0546 2661.774 -2710.0352 2781.5312 C -2712.5502 2799.2691 -2714.1663 2817.1116 -2714.9277 2834.9805 C -2767.8389 2793.0021 -2829.3192 2762.4497 -2894.168 2744.6133 C -2925.955 2735.8704 -2957.9579 2730.4808 -2989.873 2727.0801 C -3001.6056 2645.1618 -3026.9702 2564.3836 -3074.2012 2493.7559 C -3107.4972 2443.9662 -3151.2649 2400.2746 -3204.1172 2369.4551 C -3250.4646 2342.4287 -3303.3754 2325.7947 -3357.7695 2323.6992 L -3357.7695 2323.7031 C -3365.5401 2323.4038 -3373.3399 2323.4009 -3381.1562 2323.7031 C -3441.2562 2326.0567 -3499.0422 2346.5292 -3548.1895 2379.0605 C -3597.2374 2411.5259 -3637.2213 2455.4128 -3667.2656 2504.5469 C -3709.0599 2572.897 -3731.0181 2649.5611 -3740.4863 2727.0332 C -3810.229 2730.6074 -3880.9225 2739.8793 -3949.0879 2765.6406 C -4000.8771 2785.2129 -4050.2203 2814.0784 -4091.0625 2853.7734 C -4132.0011 2893.5621 -4163.7164 2943.9324 -4178.4746 3000.5957 C -4196.7144 3070.6266 -4187.4974 3146.6396 -4151.8672 3210.0117 C -4116.1962 3273.4565 -4055.4789 3321.3025 -3984.8242 3340.1172 C -3898.2946 3363.1592 -3803.221 3340.2501 -3736.6836 3280.3242 C -3701.4625 3248.6029 -3675.8406 3207.8094 -3661.4746 3163.3516 C -3659.2548 3166.8724 -3657.1152 3170.4296 -3654.791 3173.9023 C -3620.3302 3225.3948 -3574.6935 3270.3253 -3519.5996 3301.4141 C -3464.3801 3332.5736 -3400.2762 3349.1238 -3335.748 3344.6816 C -3275.4005 3340.5273 -3217.9109 3318.2564 -3169.4316 3284.1445 C -3121.0497 3250.1012 -3082.0778 3204.8649 -3053.1992 3154.6504 C -2995.525 3054.3659 -2979.1442 2938.0364 -2981.7363 2827.2285 C -2981.9595 2817.6878 -2982.3858 2808.1054 -2982.9082 2798.5098 C -2958.9779 2801.5759 -2935.5018 2805.8448 -2912.7324 2812.1074 C -2843.9941 2831.0137 -2779.6998 2866.5912 -2728.9004 2915.6758 A 35.0035 35.0035 0 0 0 -2711.4434 2925.0645 C -2704.1148 2985.9491 -2686.7732 3045.6123 -2659.9043 3100.9199 C -2612.0304 3199.4646 -2534.597 3282.7885 -2439.8203 3337.7461 A 35.0035 35.0035 0 1 0 -2404.707 3277.1895 C -2487.1735 3229.3701 -2555.2857 3156.0771 -2596.9414 3070.332 C -2638.5971 2984.587 -2654.1114 2885.7412 -2640.7285 2791.3574 C -2625.9737 2687.2978 -2575.5345 2587.7771 -2499.5488 2515.6875 C -2423.613 2443.6453 -2321.2543 2398.6311 -2217.0977 2392.8691 C -2152.8989 2389.3177 -2088.0741 2400.9593 -2027.5625 2424.6621 C -2059.0472 2448.2793 -2088.0088 2475.2548 -2113.5371 2505.0137 C -2201.3754 2607.4086 -2249.7705 2737.9418 -2264.1406 2869.6797 C -2275.0439 2969.6345 -2266.7722 3076.7432 -2217.4277 3169.9531 C -2192.7118 3216.6405 -2157.9594 3258.7805 -2113.9199 3290.1719 C -2069.7691 3321.6425 -2016.8366 3341.6196 -1961.4355 3344.0234 C -1906.5669 3346.4041 -1852.5562 3331.3968 -1806.1719 3304.1875 C -1759.8973 3277.0422 -1721.8427 3238.379 -1693.541 3194.1777 C -1637.0233 3105.9091 -1620.9969 2999.7761 -1627.2734 2899.6875 C -1636.7812 2748.0726 -1697.5675 2598.6671 -1805.043 2489.2402 C -1829.0178 2464.8301 -1855.3512 2442.7727 -1883.3535 2423.0957 C -1842.7071 2406.8599 -1799.902 2397.0335 -1756.6309 2395.082 C -1640.2707 2389.8344 -1522.1501 2441.6646 -1437.8828 2525.3066 C -1353.2671 2609.2943 -1299.8806 2724.1749 -1278.4902 2843.8633 C -1249.4149 3006.5524 -1278.4172 3179.769 -1358.2324 3324.625 C -1438.0584 3469.5008 -1568.7812 3586.503 -1721.377 3650.6621 C -1906.0333 3728.3011 -2117.0724 3730.692 -2326.5469 3732.2793 L -3437.1543 3740.6953 C -3576.5175 3741.7513 -3714.692 3742.8506 -3848.7754 3722.543 C -3982.6511 3702.2668 -4113.822 3659.1414 -4218.7285 3579.9121 C -4305.9073 3514.0715 -4374.4027 3423.263 -4418.4102 3322.1445 C -4462.4542 3220.9418 -4482.5988 3109.1737 -4481.3789 2997.7637 C -4478.8758 2769.1598 -4383.6553 2541.7429 -4222.5332 2379.5527 A 35.0035 35.0035 0 0 0 -4248.168 2319.5508 z M -3369.459 2393.4824 C -3324.6114 2393.5119 -3279.0673 2406.7863 -3239.3789 2429.9297 C -3196.9286 2454.6836 -3160.4197 2490.7553 -3132.3887 2532.6719 C -3095.1593 2588.3435 -3073.0013 2653.7707 -3061.5215 2722.4336 C -3085.4269 2721.7187 -3109.1673 2721.5975 -3132.5605 2721.7305 L -3633.252 2724.5781 C -3645.2444 2724.6461 -3657.3398 2724.737 -3669.4883 2724.8848 C -3660.2447 2658.9425 -3640.9864 2595.7583 -3607.5449 2541.0684 C -3582.2654 2499.7266 -3548.9372 2463.5047 -3509.5527 2437.4355 C -3470.2676 2411.4322 -3424.2867 2395.4505 -3378.418 2393.6543 C -3375.4363 2393.5375 -3372.4488 2393.4805 -3369.459 2393.4824 z M -1955.209 2459.9336 C -1918.601 2481.65 -1884.7151 2508.0185 -1854.9824 2538.291 C -1760.6729 2634.313 -1705.6521 2768.2804 -1697.1367 2904.0703 C -1691.5276 2993.5155 -1706.6071 3084.769 -1752.4922 3156.4316 C -1775.3919 3192.1962 -1805.9631 3222.9114 -1841.5898 3243.8105 C -1877.1064 3264.6451 -1918.4058 3275.8251 -1958.4004 3274.0898 C -1998.7865 3272.3375 -2039.3665 3257.3499 -2073.2891 3233.1699 C -2107.323 3208.9105 -2135.42 3175.2496 -2155.5625 3137.2012 C -2195.935 3060.9391 -2204.445 2967.9387 -2194.5547 2877.2695 C -2181.4877 2757.4782 -2137.3109 2640.2369 -2060.4082 2550.5898 C -2030.2043 2515.3806 -1994.4446 2484.6637 -1955.209 2459.9336 z M -3112.3164 2791.6895 C -3092.5176 2791.729 -3072.8662 2792.0328 -3053.418 2792.8105 C -3052.6122 2804.8119 -3051.9982 2816.8375 -3051.7168 2828.8691 C -3049.3153 2931.527 -3065.1047 3034.9433 -3113.8809 3119.7559 C -3138.2274 3162.09 -3170.7815 3199.5068 -3209.7129 3226.9004 C -3248.547 3254.2255 -3294.3923 3271.6737 -3340.5547 3274.8516 C -3389.882 3278.2473 -3441.0261 3265.3813 -3485.1992 3240.4551 C -3529.4977 3215.458 -3567.604 3178.3269 -3596.6172 3134.9746 C -3654.7555 3048.1029 -3676.2707 2937.6961 -3676.3672 2828.0664 C -3676.3772 2817.0535 -3676.0657 2806.0431 -3675.6289 2795.0469 C -3661.4158 2794.8104 -3647.1595 2794.6575 -3632.8535 2794.5762 L -3132.1621 2791.7305 C -3125.5317 2791.6928 -3118.916 2791.6763 -3112.3164 2791.6895 z M -3745.6973 2797.5312 C -3746.0326 2807.751 -3746.3761 2817.976 -3746.3672 2828.127 C -3746.3072 2896.4585 -3738.6891 2966.6692 -3719.1484 3033.5898 A 35.0035 35.0035 0 0 0 -3720.4922 3050.6348 C -3710.4626 3114.4937 -3735.4966 3185.0546 -3783.5293 3228.3145 C -3831.5621 3271.5744 -3904.3476 3289.1123 -3966.8125 3272.4785 C -4018.2494 3258.7814 -4064.6 3222.3969 -4090.8496 3175.709 C -4117.1402 3128.9485 -4124.3395 3070.4805 -4110.7344 3018.2441 C -4099.626 2975.5941 -4074.9291 2935.713 -4042.2734 2903.9746 C -4009.5214 2872.1425 -3968.5524 2847.8312 -3924.3418 2831.123 C -3868.7368 2810.1086 -3808.312 2801.3184 -3745.6973 2797.5312 z "
       transform="translate(0,-1048)"
       id="path4498-7-1-0-9-8-4-5-4-9" />
  </g>
</svg>
