<?xml version="1.0" encoding="UTF-8" standalone="no"?>
<!-- Created with Inkscape (http://www.inkscape.org/) -->

<svg
   xmlns:dc="http://purl.org/dc/elements/1.1/"
   xmlns:cc="http://creativecommons.org/ns#"
   xmlns:rdf="http://www.w3.org/1999/02/22-rdf-syntax-ns#"
   xmlns:svg="http://www.w3.org/2000/svg"
   xmlns="http://www.w3.org/2000/svg"
   xmlns:sodipodi="http://sodipodi.sourceforge.net/DTD/sodipodi-0.dtd"
   xmlns:inkscape="http://www.inkscape.org/namespaces/inkscape"
   width="2000"
   height="2048"
   id="svg2992"
   version="1.1"
   inkscape:version="0.91 r13725"
   sodipodi:docname="ക്കൃ.svg">
  <defs
     id="defs5498">
    <inkscape:path-effect
       effect="spiro"
       id="path-effect3846"
       is_visible="true" />
    <inkscape:path-effect
       effect="spiro"
       id="path-effect3801"
       is_visible="true" />
    <inkscape:path-effect
       is_visible="true"
       id="path-effect4500-0-5-18-7"
       effect="spiro" />
    <inkscape:path-effect
       is_visible="true"
       id="path-effect4500-0-5-18-7-3"
       effect="spiro" />
    <inkscape:path-effect
       is_visible="true"
       id="path-effect4500-0-5-18-7-7"
       effect="spiro" />
    <inkscape:path-effect
       is_visible="true"
       id="path-effect4500-0-5-18-7-7-5"
       effect="spiro" />
    <inkscape:path-effect
       is_visible="true"
       id="path-effect4500-0-5-18-7-7-9"
       effect="spiro" />
    <inkscape:path-effect
       effect="spiro"
       id="path-effect4187"
       is_visible="true" />
    <inkscape:path-effect
       effect="spiro"
       id="path-effect4183"
       is_visible="true" />
    <inkscape:path-effect
       effect="spiro"
       id="path-effect4183-5"
       is_visible="true" />
    <inkscape:path-effect
       effect="spiro"
       id="path-effect4187-7"
       is_visible="true" />
    <inkscape:path-effect
       is_visible="true"
       id="path-effect4500-0-5-18-7-2"
       effect="spiro" />
    <inkscape:path-effect
       effect="spiro"
       id="path-effect4183-3"
       is_visible="true" />
    <inkscape:path-effect
       is_visible="true"
       id="path-effect4500-0-5-18-7-76"
       effect="spiro" />
    <inkscape:path-effect
       effect="spiro"
       id="path-effect4187-8"
       is_visible="true" />
  </defs>
  <sodipodi:namedview
     inkscape:window-height="844"
     inkscape:window-width="1600"
     inkscape:pageshadow="2"
     inkscape:pageopacity="0.0"
     borderopacity="1.0"
     bordercolor="#666666"
     pagecolor="#ffffff"
     id="base"
     showgrid="true"
     showguides="true"
     inkscape:guide-bbox="true"
     inkscape:zoom="0.5"
     inkscape:cx="-1390.4712"
     inkscape:cy="-819.30292"
     inkscape:window-x="1600"
     inkscape:window-y="0"
     inkscape:current-layer="layer1"
     inkscape:window-maximized="1">
    <sodipodi:guide
       orientation="horizontal"
       position="0,600"
       id="guide5596" />
    <inkscape:grid
       type="xygrid"
       id="grid3769"
       empspacing="3"
       visible="true"
       enabled="true"
       snapvisiblegridlinesonly="true"
       spacingx="4px"
       units="px"
       dotted="true"
       spacingy="4px" />
    <sodipodi:guide
       orientation="0,1"
       position="-1040,1600"
       id="guide2985" />
  </sodipodi:namedview>
  <metadata
     id="metadata5594">
    <rdf:RDF>
      <cc:Work
         rdf:about="">
        <dc:format>image/svg+xml</dc:format>
        <dc:type
           rdf:resource="http://purl.org/dc/dcmitype/StillImage" />
        <dc:title />
      </cc:Work>
    </rdf:RDF>
  </metadata>
  <g
     inkscape:label="Layer 1"
     inkscape:groupmode="layer"
     id="layer1"
     transform="translate(0,1048)">
    <path
       sodipodi:nodetypes="aaaaa"
       inkscape:connector-curvature="0"
       inkscape:original-d="m -1586.3711,-561.28892 c 185.7851,-1.05778 358.1669,238.71099 361.2157,424.4741 3.252,198.148479 -172.0894,468.68893 -370.2335,465.17493 -192.8049,-3.4193 -349.4665,-272.372877 -343.9811,-465.13013 5.2351,-183.96191 168.9655,-423.47109 352.9989,-424.5189 z"
       inkscape:path-effect="#path-effect4500-0-5-18-7"
       id="path4498-7-1-0-3"
       d="m -1586.3711,-561.28892 c 51.4523,-0.67524 102.7894,12.75922 148.238,36.88826 45.4487,24.12905 85.0403,58.7822 116.5178,99.4879 62.9552,81.4114 92.4071,185.2644 96.4599,288.09794 4.3852,111.267346 -20.9819,226.09038 -86.054,316.4523 -32.5361,45.18095 -74.6889,83.68961 -123.682,110.1393 -48.9932,26.44969 -104.8579,40.61911 -160.4975,38.58333 -53.6109,-1.96155 -106.3445,-18.92326 -152.1304,-46.88077 -45.7859,-27.95751 -84.6678,-66.72312 -114.4802,-111.32346 -59.6249,-89.200687 -81.9662,-199.73092 -77.3705,-306.9259 4.3494,-101.44936 32.8975,-203.82628 94.0754,-284.87047 30.5889,-40.5221 69.0944,-75.28366 113.4773,-99.93895 44.3828,-24.65529 94.6793,-39.04323 145.4462,-39.70948 z"
       style="fill:none;fill-rule:evenodd;stroke:#000000;stroke-width:140;stroke-linecap:round;stroke-linejoin:round;stroke-miterlimit:4;stroke-dasharray:none;stroke-opacity:1" />
    <path
       sodipodi:nodetypes="aaaaacaassaaaaaaaaac"
       inkscape:connector-curvature="0"
       inkscape:original-d="m -4409.4516,-555.65424 c 193.7214,-1.11155 380.7977,241.03721 386.0543,434.90395 5.747,211.957985 -183.923,501.47023 -395.6923,497.71046 -206.0628,-3.65846 -375.6987,-291.497745 -367.6345,-497.66252 7.5051,-191.86906 185.471,-433.85135 377.2725,-434.95189 z m -350.8282,660.59262 c 0,0 -166.7963,284.60196 -301.2218,271.35692 -111.8343,-11.01901 -228.2365,-160.98358 -201.8274,-270.33149 48.6486,-201.431981 261.7036,-272.50379 557.978,-272.93563 l 561.8037,-0.81892 c 185.8958,-0.27103 571.6312,66.87998 621.5447,290.21989 24.7441,110.7182 -104.3406,267.74791 -217.5048,261.60393 -169.859,-9.22209 -303.7318,-256.79063 -282.1399,-425.709362 32.6024,-255.055708 324.9472,-577.709528 573.9656,-514.688658 315.9606,79.96243 416.9799,606.435954 330.766,921.06498 -61.6864,225.1183 -324.5339,355.38082 -539.4851,446.0894 -162.5537,68.59702 -365.3312,129.34323 -526.1959,56.86894 -82.8948,-37.34655 -189.6013,-137.34429 -157.8139,-222.56731 37.0252,-99.26591 204.744,-95.93716 308.6161,-75.34568 139.845,27.72269 345.376,252.27347 345.376,252.27347"
       inkscape:path-effect="#path-effect4500-0-5-18-7-7"
       id="path4498-7-1-0-3-3"
       d="m -4409.4516,-555.65424 c 53.527,-0.69631 106.9653,12.71835 154.6545,37.03635 47.6891,24.31801 89.6505,59.38586 123.4652,100.8851 67.6293,82.99847 101.5354,190.11095 107.9346,296.9825 7.1378,119.2080741 -19.988,242.81864 -90.1441,339.46041 -35.0781,48.32088 -80.5518,89.33965 -133.2468,117.42194 -52.695,28.0823 -112.6304,43.00784 -172.3014,40.82811 -57.4876,-2.09997 -114.0754,-20.03099 -163.3314,-49.74755 -49.2561,-29.71656 -91.2135,-71.03132 -123.3611,-118.73629 -64.2951,-95.40994 -88.1674,-214.353964 -80.942,-329.17868 6.6319,-105.39306 39.5231,-210.97255 105.2696,-293.61073 32.8733,-41.31909 73.698,-76.51257 120.2748,-101.38265 46.5768,-24.87008 98.9318,-39.2717 151.7281,-39.95851 z m -350.8282,660.59262 c 5.4658,77.63635 -26.5923,157.06544 -84.4172,209.15725 -57.8249,52.09182 -140.1581,75.71263 -216.8046,62.19967 -61.26,-10.80029 -118.3499,-44.87911 -155.906,-94.46717 -37.5561,-49.58805 -54.9068,-114.3119 -45.9214,-175.86432 8.1847,-56.067016 37.4527,-107.9739023 77.6069,-147.950592 40.1543,-39.976689 90.7548,-68.515858 144.2045,-87.321008 106.8993,-37.61029 222.8442,-37.49884 336.1666,-37.66403 l 561.8037,-0.81892 c 125.188,-0.18248 252.9925,-1.92043 372.2259,36.23003 59.6168,19.07524 116.5647,48.747991 162.0166,91.784564 45.4518,43.0365738 78.8576,100.18349 87.3022,162.205296 8.624,63.3395 -9.9447,130.06096 -50.6239,179.37089 -40.6792,49.30993 -102.9865,80.29256 -166.8809,82.23304 -48.3513,1.46843 -96.6895,-13.21502 -137.4935,-39.19644 -40.8041,-25.98141 -74.165,-62.95355 -98.1384,-104.9688 -47.9467,-84.0305 -57.6934,-185.445727 -46.508,-281.544122 16.513,-141.870218 78.5115,-280.037978 182.1785,-378.287658 103.6669,-98.24967 249.9717,-153.37829 391.7871,-136.401 96.0753,11.50156 187.4729,55.21323 259.2354,120.12001 71.7625,64.90678 123.997,150.43939 152.5235,242.90013 57.0529,184.9214728 17.4475,391.43008 -80.9929,558.04484 -120.6663,204.23314 -322.0891,351.1657 -539.4851,446.0894 -82.8176,36.16145 -169.1539,65.73289 -258.6048,78.57599 -89.4509,12.84309 -182.4038,8.45145 -267.5911,-21.70705 -47.4514,-16.79901 -93.1721,-42.33582 -124.9625,-81.36406 -15.8953,-19.51412 -28.0567,-42.23674 -34.1906,-66.64647 -6.1339,-24.40973 -6.1085,-50.51533 1.3392,-74.55678 8.8185,-28.4664 27.8669,-53.30703 51.8769,-70.95996 24.0099,-17.65293 52.7833,-28.31347 82.2561,-32.72393 58.9458,-8.82094 118.9028,6.81517 174.4831,28.33821 134.4725,52.07346 254.8662,140.01278 345.376,252.27347"
       style="fill:none;fill-rule:evenodd;stroke:#000000;stroke-width:70;stroke-linecap:round;stroke-linejoin:round;stroke-miterlimit:4;stroke-dasharray:none;stroke-opacity:1" />
    <path
       style="color:#000000;font-style:normal;font-variant:normal;font-weight:normal;font-stretch:normal;font-size:medium;line-height:normal;font-family:sans-serif;text-indent:0;text-align:start;text-decoration:none;text-decoration-line:none;text-decoration-style:solid;text-decoration-color:#000000;letter-spacing:normal;word-spacing:normal;text-transform:none;direction:ltr;block-progression:tb;writing-mode:lr-tb;baseline-shift:baseline;text-anchor:start;white-space:normal;clip-rule:nonzero;display:inline;overflow:visible;visibility:visible;opacity:1;isolation:auto;mix-blend-mode:normal;color-interpolation:sRGB;color-interpolation-filters:linearRGB;solid-color:#000000;solid-opacity:1;fill:#000000;fill-opacity:1;fill-rule:evenodd;stroke:none;stroke-width:70;stroke-linecap:round;stroke-linejoin:round;stroke-miterlimit:4;stroke-dasharray:none;stroke-dashoffset:0;stroke-opacity:1;color-rendering:auto;image-rendering:auto;shape-rendering:auto;text-rendering:auto;enable-background:accumulate"
       d="m -1497.0977,2549.5605 c -134.1516,0.43 -265.4483,57.1422 -362.4472,149.0723 -61.8246,58.5939 -109.3781,130.007 -142.3418,207.6875 -18.1121,-73.0153 -49.9845,-142.8512 -98.3125,-202.1621 -36.6722,-45.0062 -82.2811,-83.2276 -134.6992,-109.957 -52.4751,-26.7585 -111.3317,-41.6279 -171.0078,-40.8516 -58.8586,0.7657 -116.5222,16.7213 -167.7598,44.0801 -51.1829,27.3295 -95.5432,65.677 -131.1778,110.4668 -54.6046,68.6336 -87.5961,150.7426 -103.2109,235.3984 -80.3365,2.4858 -162.0452,10.5748 -241.0781,38.3809 -57.384,20.1894 -112.6126,51.0601 -157.2832,95.5332 -44.863,44.6647 -78.0855,102.8863 -87.5469,167.6992 -10.4222,71.3951 9.3809,144.9138 52.6543,202.0508 43.2032,57.0444 107.7344,95.4642 177.7305,107.8047 87.7352,15.468 180.1159,-11.0358 246.3066,-70.6641 36.8095,-33.16 64.2345,-75.4554 80.2871,-121.7422 2.06,3.2257 4.0332,6.4954 6.1778,9.6778 34.801,51.6424 80.29,96.5591 134.3046,129.1464 54.0762,32.6247 116.2212,52.4212 180.1348,54.7559 66.3501,2.4237 132.1656,-14.076 190.0391,-44.918 57.8033,-30.8046 107.1172,-75.4102 145.1113,-127.748 16.4175,-22.6155 30.4781,-46.5437 42.5645,-71.3418 8.7325,30.8186 20.8695,60.8147 37.1132,89.2832 26.52,46.4782 63.5374,87.7275 109.7403,117.1465 46.328,29.4987 101.2186,46.363 157.3535,44.6582 74.5031,-2.2627 145.5527,-37.6539 192.8164,-94.9453 47.2147,-57.2322 68.28,-133.1156 58.3066,-206.3653 -9.7215,-71.4002 -47.4508,-135.113 -97.9179,-182.8984 -50.2181,-47.5496 -111.927,-79.3908 -175.416,-99.7051 -61.046,-19.5325 -123.2932,-29.0276 -185.4102,-33.6582 29.6612,-74.0589 73.519,-141.8377 130.6738,-196.0058 96.4781,-91.4365 233.4352,-142.6294 363.5508,-127.0528 88.2847,10.569 173.3222,51.0926 239.918,111.3262 66.684,60.3135 115.7859,140.4917 142.5566,227.2617 53.5436,173.5469 16.4075,370.6719 -77.6816,529.9219 -115.7291,195.8766 -310.8342,339.0203 -523.3574,431.8164 -1.6101,0.703 -3.2358,1.3572 -4.8477,2.0547 -92.3647,-107.8709 -211.4233,-192.3587 -343.9023,-243.6602 -58.1615,-22.5225 -123.9323,-40.5454 -192.3008,-30.3144 -34.3394,5.1387 -68.465,17.5642 -97.8086,39.1386 -29.517,21.702 -53.247,52.2256 -64.5782,88.8028 -9.5602,30.8609 -9.4285,63.291 -1.8515,93.4433 7.5476,30.0355 22.2232,57.1692 41,80.2207 37.4466,45.9724 89.115,74.0914 140.418,92.2539 91.7302,32.4749 190.3078,36.8448 284.2461,23.3575 93.796,-13.467 183.0568,-44.2136 267.6367,-81.1446 222.2687,-97.0513 430.0097,-247.7717 555.6133,-460.3613 102.79173,-173.9796 144.86493,-389.8719 84.30268,-586.168 -30.28218,-98.1516 -85.64928,-189.0389 -162.49028,-258.539 -76.9294,-69.58 -174.6868,-116.4798 -278.5527,-128.9141 -19.1894,-2.2972 -38.4116,-3.3837 -57.5762,-3.3223 z m -907.8984,73.7813 c 47.3778,-0.6163 95.3955,11.3432 138.2988,33.2207 42.9601,21.9065 81.2753,53.8201 112.2325,91.8125 44.595,54.7296 73.6709,121.951 88.7558,192.9551 -24.7731,-0.1312 -49.5373,-0.1566 -73.8887,-0.1211 l -561.8046,0.8183 c -11.5868,0.017 -23.2861,0.042 -35.002,0.084 14.8271,-69.9439 43.0526,-136.2242 86.3398,-190.6328 30.1121,-37.8484 67.4004,-69.8901 109.3711,-92.3008 41.9161,-22.3814 88.9633,-35.228 135.6973,-35.8359 z m 312.4649,387.8301 c 12.419,0.018 24.783,0.1233 37.1367,0.2539 0.3888,4.6364 0.7825,9.2737 1.0605,13.916 6.7353,112.4861 -19.1907,228.176 -83.5312,316.8066 -32.1621,44.304 -73.7961,81.7358 -121.3828,107.0957 -47.5166,25.3226 -101.5726,38.676 -154.5645,36.7403 -51.0616,-1.8653 -102.0915,-17.9317 -146.5273,-44.7403 -44.4976,-26.8456 -82.9219,-64.5588 -112.416,-108.3261 -59.0053,-87.5603 -81.862,-198.9315 -75.0352,-307.4219 0.2788,-4.4309 0.6671,-8.856 1.045,-13.2813 15.1075,-0.1175 30.2575,-0.1653 45.4472,-0.1875 l 561.8047,-0.8183 c 15.6847,-0.023 31.3467,-0.06 46.9649,-0.037 z m -724.5508,2.6386 c -0.1793,2.4297 -0.4195,4.8605 -0.5723,7.2891 -4.7399,75.3255 3.1106,152.7155 26.4316,225.3066 a 35.0035,35.0035 0 0 0 0.029,4.9903 c 4.6751,66.4044 -23.4705,136.1398 -72.9296,180.6953 -49.4591,44.5555 -121.7432,65.2924 -187.3008,53.7344 -52.5239,-9.2601 -102.1731,-38.9972 -134.0821,-81.1289 -31.8387,-42.039 -46.738,-97.9681 -39.1894,-149.6778 6.908,-47.3211 32.2226,-92.9144 67.668,-128.2031 35.6379,-35.4803 81.6095,-61.6864 131.125,-79.1074 65.2647,-22.9621 135.9251,-30.9829 208.8203,-33.8985 z m 851.9843,0.5821 c 64.6819,3.8682 127.612,12.3457 187.1094,31.3828 55.7445,17.8363 107.9336,45.3397 148.6192,83.8633 40.4365,38.2878 69.5178,88.8683 76.6855,141.5117 7.2747,53.4293 -8.7977,110.9891 -42.9414,152.3769 -34.0947,41.3285 -87.6596,67.9032 -140.9453,69.5215 -40.5678,1.232 -82.3529,-11.2703 -117.6328,-33.7343 -35.4054,-22.5439 -65.1103,-55.2409 -86.5371,-92.793 -42.9512,-75.2755 -52.731,-169.1801 -42.1426,-260.1504 3.6098,-31.0135 9.6309,-61.7983 17.7851,-91.9785 z m -194.082,703.7363 c 38.6043,1.562 78.9967,12.8613 118.7461,28.2539 114.0761,44.1751 217.7678,115.5567 300.1816,206.0293 -57.6054,21.2125 -116.2417,37.7677 -175.7285,46.3086 -84.9635,12.1988 -172.2911,7.7855 -250.9355,-20.0566 -43.5998,-15.4355 -83.3717,-38.3904 -109.5059,-70.4746 -13.0138,-15.9767 -22.6626,-34.2884 -27.3828,-53.0723 -4.6908,-18.6672 -4.509,-38.4478 0.8262,-55.6699 6.3059,-20.3556 20.6747,-39.5131 39.1777,-53.1172 18.6762,-13.7314 42.0969,-22.6264 66.7031,-26.3086 12.3808,-1.8527 25.0499,-2.4132 37.918,-1.8926 z"
       id="path4498-7-1-0-3-3-6"
       inkscape:connector-curvature="0" />
    <path
       style="fill:none;fill-rule:evenodd;stroke:#000000;stroke-width:140;stroke-linecap:round;stroke-linejoin:round;stroke-miterlimit:4;stroke-dasharray:none;stroke-opacity:1"
       d="m -1374,762 c 3.8574,27.08362 16.9401,52.4687 35.269,72.77765 18.3289,20.30895 41.7334,35.68918 66.8875,46.44443 50.3081,21.5105 106.3447,24.63309 161.0482,25.69802 56.4913,1.09974 114.51884,0.0481 167.07912,-20.68585 26.28013,-10.36701 50.84605,-25.69845 70.11974,-46.35385 19.27369,-20.65539 33.0645,-46.79923 37.06624,-74.7654 4.4179,-30.87447 -3.30849,-62.93067 -19.24584,-89.74022 -15.93735,-26.80955 -39.74644,-48.50374 -66.74211,-64.12375 -53.99133,-31.24004 -118.54215,-38.10796 -180.91665,-38.75593 -62.7942,-0.65233 -127.9612,4.96998 -182.7861,35.5932 -27.4124,15.31161 -51.6729,36.86504 -67.96,63.70933 C -1370.468,698.64192 -1378.4274,730.91489 -1374,762 Z"
       id="path4181"
       inkscape:path-effect="#path-effect4183"
       inkscape:original-d="m -1374,762 c 5.3904,100.0095 163.0586,143.6122 263.2047,144.9201 102.9098,1.344 274.2651,-45.8051 274.2651,-141.8051 3.9795,-141.0994 -157.1903,-191.8446 -266.9046,-192.6199 C -1213.5419,571.7171 -1379.9262,652.0497 -1374,762 Z"
       inkscape:connector-curvature="0"
       sodipodi:nodetypes="aacaa" />
    <path
       style="fill:none;fill-rule:evenodd;stroke:#000000;stroke-width:140;stroke-linecap:butt;stroke-linejoin:miter;stroke-miterlimit:4;stroke-dasharray:none;stroke-opacity:1"
       d="m -1081.6452,906.8499 c 90.27059,0.38537 180.58358,-16.77043 264.425,-50.23 130.36311,-52.02553 243.70339,-143.11559 329.13695,-254.48122 85.43356,-111.36562 143.51775,-242.49564 176.66154,-378.8873 41.07423,-169.026611 42.92516,-353.5441 -31.45015,-510.78722 -37.18766,-78.62156 -93.22248,-148.93132 -164.54436,-198.70543 -71.32187,-49.77411 -158.13148,-78.3298 -245.06489,-75.7119 -105.15809,3.16671 -206.22008,51.82012 -282.61069,124.15766 -76.3907,72.33754 -129.3096,167.02794 -162.4261,266.88559 -34.4577,103.90187 -47.8748,219.407211 -9.4897,321.92312 19.1926,51.25796 51.3697,98.12209 94.7178,131.53881 43.3481,33.41672 98.0772,52.79362 152.75889,50.41865 59.56008,-2.58685 117.43448,-31.52981 155.48845,-77.42088 38.05397,-45.89107 55.77952,-107.97251 48.02225,-167.0819 -7.62302,-58.08644 -38.8385,-111.661162 -81.38849,-151.930802 -42.54998,-40.269638 -95.90759,-67.955238 -151.73596,-85.713008 -111.65674,-35.51554 -231.26144,-33.7749 -348.43034,-33.60429 l -525.6574,0.7654 c -106.0068,0.15435 -214.4604,0.0239 -314.4827,35.13811 -50.0111,17.55712 -97.3673,44.21539 -134.9539,81.586728 -37.5865,37.371334 -64.9909,85.920462 -72.6415,138.368862 -8.3955,57.55459 7.8636,118.07046 43.0101,164.41417 35.1465,46.3437 88.5477,78.16948 145.832,88.24566 71.663,12.60537 148.6252,-9.46805 202.7134,-58.13993 54.0882,-48.67189 84.1299,-122.88723 79.1279,-195.4783"
       id="path4185"
       inkscape:path-effect="#path-effect4187"
       inkscape:original-d="m -1081.6452,906.8499 c 0,0 187.58048,-3.92436 264.425,-50.23 231.41497,-139.44805 483.92601,-364.0727 505.79849,-633.36852 24.30251,-299.214541 -145.1388,-734.69761 -441.0594,-785.20455 -194.66149,-33.2243 -404.96869,197.67442 -445.03679,391.04325 -37.6891,181.888007 53.7184,480.45436 237.98699,503.88058 105.19223,13.37317 226.6628,-141.02228 203.5107,-244.50278 -46.7022,-208.7401 -407.61949,-271.5014 -581.55479,-271.2481 l -525.6574,0.7654 c -277.2123,0.4036 -476.5595,66.8294 -522.0781,255.0937 -24.7099,102.1998 84.2031,242.36113 188.8421,252.65983 125.7765,12.3792 281.8413,-253.61823 281.8413,-253.61823"
       inkscape:connector-curvature="0"
       sodipodi:nodetypes="caaaaaassaac" />
    <path
       style="color:#000000;font-style:normal;font-variant:normal;font-weight:normal;font-stretch:normal;font-size:medium;line-height:normal;font-family:sans-serif;text-indent:0;text-align:start;text-decoration:none;text-decoration-line:none;text-decoration-style:solid;text-decoration-color:#000000;letter-spacing:normal;word-spacing:normal;text-transform:none;direction:ltr;block-progression:tb;writing-mode:lr-tb;baseline-shift:baseline;text-anchor:start;white-space:normal;clip-rule:nonzero;display:inline;overflow:visible;visibility:visible;opacity:1;isolation:auto;mix-blend-mode:normal;color-interpolation:sRGB;color-interpolation-filters:linearRGB;solid-color:#000000;solid-opacity:1;fill:#000000;fill-opacity:1;fill-rule:evenodd;stroke:none;stroke-width:140;stroke-linecap:round;stroke-linejoin:round;stroke-miterlimit:4;stroke-dasharray:none;stroke-dashoffset:0;stroke-opacity:1;color-rendering:auto;image-rendering:auto;shape-rendering:auto;text-rendering:auto;enable-background:accumulate"
       d="M -752.03516 2063.8809 C -756.87885 2063.8672 -761.72963 2063.9317 -766.58789 2064.0781 C -891.95915 2067.8535 -1007.8293 2124.6205 -1095.2227 2207.377 C -1140.541 2250.2908 -1177.9775 2299.4257 -1208.541 2352.0137 C -1225.7142 2308.3291 -1248.6502 2266.5304 -1278.2402 2228.2656 C -1315.3329 2180.2986 -1362.2141 2139.0235 -1417.3086 2109.7734 C -1472.5354 2080.453 -1535.0442 2063.8737 -1599.2891 2064.7168 C -1662.6719 2065.5486 -1723.9085 2083.2852 -1777.8105 2113.2285 C -1831.5853 2143.1011 -1877.1542 2184.4821 -1913.1641 2232.1855 C -1961.737 2296.5316 -1991.7935 2370.404 -2007.6953 2446.2363 C -2074.9268 2449.7673 -2144.2163 2458.9611 -2212.9023 2483.0742 C -2270.7779 2503.3923 -2327.3929 2534.7069 -2374.0234 2581.0703 C -2421.0412 2627.819 -2456.3719 2689.0061 -2466.5781 2758.9746 C -2477.8485 2836.2376 -2456.6688 2914.352 -2410.0742 2975.791 C -2363.6226 3037.0416 -2295.3381 3077.5326 -2220.5957 3090.6797 C -2126.7791 3107.1819 -2029.7404 3079.3509 -1958.9316 3015.6328 C -1936.236 2995.2099 -1916.9299 2971.716 -1901.3789 2946.0938 C -1871.6321 2981.4641 -1836.3296 3012.5968 -1796 3037.2227 C -1740.5586 3071.0759 -1676.6189 3091.8731 -1609.9492 3094.3125 C -1540.7382 3096.8449 -1473.0076 3079.4253 -1413.6367 3047.373 C -1354.4205 3015.4042 -1304.6745 2969.6837 -1266.4062 2916.543 C -1266.0279 2916.0176 -1265.6592 2915.4875 -1265.2832 2914.9609 C -1241.7882 2960.307 -1209.0778 3001.5739 -1167.0273 3033.9902 C -1111.4786 3076.8124 -1041.6888 3102.0834 -968.49414 3098.9043 C -888.28463 3095.4205 -813.24118 3057.8358 -762.1582 2996.2324 C -711.12157 2934.6849 -688.24507 2854.3787 -698.61523 2775.3594 C -708.72368 2698.3345 -748.6446 2631.5221 -801.29297 2581.6953 C -853.42877 2532.3536 -916.34727 2500.3401 -979.92578 2480.1172 C -1021.2774 2466.9642 -1062.7429 2458.5125 -1103.9199 2453.0176 C -1076.3132 2398.6358 -1041.4396 2349.2562 -998.96094 2309.0312 C -933.57283 2247.1126 -847.31994 2206.5736 -762.375 2204.0156 C -692.15112 2201.9009 -619.24218 2225.4529 -559.47656 2267.1621 C -499.41408 2309.0785 -450.6139 2369.7607 -418.15039 2438.3945 C -353.01727 2576.098 -353.01344 2744.5859 -391.44141 2902.7227 C -422.58499 3030.8832 -477.0153 3153.0633 -555.62305 3255.5312 C -616.23105 3334.5359 -692.01301 3402.0529 -777.39062 3450.25 C -775.89325 3408.8277 -787.55256 3369.338 -807.60547 3335.6055 C -830.71481 3296.7312 -863.58946 3267.4178 -899.46094 3246.6621 C -970.53689 3205.5368 -1047.6967 3199.1942 -1114.707 3198.498 C -1182.1819 3197.7971 -1260.0978 3202.6141 -1332.3555 3242.9746 C -1368.8331 3263.3497 -1402.369 3292.4947 -1426.0273 3331.4883 C -1449.9743 3370.9575 -1462.3333 3418.4956 -1455.3008 3467.8711 C -1449.189 3510.7832 -1429.3644 3548.1299 -1402.6973 3577.6777 C -1376.2878 3606.9402 -1344.2662 3627.5174 -1311.3633 3641.5859 C -1246.0296 3669.521 -1180.594 3671.8077 -1124.1582 3672.9062 C -1093.4265 3673.5045 -1060.0864 3673.8376 -1025.4434 3670.084 C -949.34199 3663.6398 -874.2916 3645.9768 -803.27344 3617.6348 C -659.75828 3560.3605 -536.95479 3461.2081 -444.54297 3340.7461 C -352.2836 3220.4828 -290.54438 3080.4041 -255.40039 2935.7812 C -211.67988 2755.8648 -207.97625 2555.3161 -291.59375 2378.5332 C -333.50556 2289.924 -396.77419 2209.9873 -479.35547 2152.3555 C -557.05373 2098.1314 -650.42619 2065.2469 -747.19336 2063.9199 C -748.80614 2063.8979 -750.42059 2063.8854 -752.03516 2063.8809 z M -1593.8242 2204.6895 C -1556.2871 2204.8497 -1517.5127 2215.0798 -1482.957 2233.4258 C -1447.1542 2252.4337 -1414.8526 2280.4638 -1388.9902 2313.9082 C -1360.1732 2351.1734 -1339.1987 2395.4768 -1325.6309 2443.1797 C -1333.6493 2443.1972 -1341.7578 2443.2092 -1349.6777 2443.2207 L -1862.8848 2443.9668 C -1849.6269 2397.0806 -1829.31 2353.4723 -1801.4258 2316.5332 C -1776.2579 2283.1925 -1744.8152 2255.0513 -1709.8242 2235.6133 C -1674.9606 2216.246 -1635.6041 2205.2057 -1597.4531 2204.7051 C -1596.245 2204.6892 -1595.0351 2204.6843 -1593.8242 2204.6895 z M -1349.4727 2583.2188 C -1335.0276 2583.198 -1320.8813 2583.2909 -1306.6992 2583.3613 C -1306.7293 2674.954 -1330.2139 2765.5763 -1380.0137 2834.7305 C -1406.8177 2871.9515 -1441.3746 2903.2491 -1480.1445 2924.1797 C -1518.76 2945.0268 -1562.7619 2955.9456 -1604.8301 2954.4062 C -1645.382 2952.9226 -1686.9086 2939.7981 -1723.0391 2917.7363 C -1759.3054 2895.5916 -1791.2028 2864.0581 -1815.8027 2827.2559 C -1861.3238 2759.1549 -1882.23 2672.1218 -1881.9219 2584 C -1879.6555 2583.9955 -1877.4027 2583.9877 -1875.1309 2583.9844 L -1349.4727 2583.2188 z M -2021.9473 2587.9121 C -2021.8365 2649.7421 -2013.5395 2712.5969 -1994.7871 2772.8164 L -1996.4609 2772.9316 C -1993.0052 2823.0823 -2015.2105 2877.9388 -2052.5781 2911.5645 C -2089.9457 2945.1901 -2146.8324 2961.5055 -2196.3418 2952.7969 C -2236.1678 2945.7915 -2274.684 2922.6304 -2298.5254 2891.1934 C -2322.2238 2859.945 -2333.5636 2817.0298 -2328.043 2779.1836 C -2322.948 2744.2553 -2303.4697 2708.3437 -2275.3145 2680.3496 C -2246.7718 2651.9704 -2208.674 2629.968 -2166.5273 2615.1719 C -2122.0434 2599.5552 -2073.4055 2591.7936 -2021.9473 2587.9121 z M -1155.2734 2588.7344 C -1108.7624 2592.9499 -1064.137 2600.244 -1022.3633 2613.5312 C -974.28496 2628.8239 -930.48957 2652.1814 -897.52539 2683.3789 C -865.0738 2714.0913 -842.5634 2754.4283 -837.42578 2793.5762 C -832.28141 2832.7756 -844.85448 2876.6325 -869.92578 2906.8672 C -894.95075 2937.046 -935.65771 2957.3471 -974.56836 2959.0371 C -1010.7371 2960.608 -1050.4052 2947.1247 -1081.5527 2923.1133 C -1113.1036 2898.7909 -1138.3567 2862.785 -1153.4531 2822.4668 C -1179.4575 2753.0164 -1176.2341 2670.1957 -1155.2734 2588.7344 z M -1126.9902 3338.4629 C -1123.4049 3338.4439 -1119.7942 3338.4545 -1116.1621 3338.4922 C -1058.4235 3339.092 -1006.4829 3346.4852 -969.57617 3367.8398 C -951.45631 3378.3242 -936.71263 3392.3996 -927.94727 3407.1445 C -919.45618 3421.4281 -915.98975 3438.379 -917.82422 3451.1992 C -919.49817 3462.8976 -926.23902 3476.8333 -936.77539 3488.125 C -947.59525 3499.7205 -963.18698 3509.9308 -981.4043 3517.1172 C -1004.4522 3526.2088 -1031.952 3530.5249 -1062.6523 3532.2285 C -1072.8804 3532.6851 -1083.1159 3532.8933 -1093.3457 3532.8496 L -1093.3477 3533.127 C -1102.5029 3533.1947 -1111.8651 3533.1199 -1121.4336 3532.9336 C -1174.4048 3531.9024 -1221.0417 3527.9453 -1256.3242 3512.8594 C -1273.7295 3505.4173 -1288.5173 3495.2344 -1298.7656 3483.8789 C -1308.7563 3472.8089 -1315.0962 3459.384 -1316.6992 3448.1289 C -1318.5215 3435.3342 -1314.9612 3418.3268 -1306.334 3404.1074 C -1297.4181 3389.4124 -1282.4331 3375.4493 -1264.0859 3365.2012 C -1229.0308 3345.6206 -1180.7701 3338.748 -1126.9902 3338.4629 z "
       transform="translate(0,-1048)"
       id="path4498-7-1-0-3-1" />
  </g>
</svg>
