<?xml version="1.0" encoding="UTF-8" standalone="no"?>
<!-- Created with Inkscape (http://www.inkscape.org/) -->

<svg
   xmlns:dc="http://purl.org/dc/elements/1.1/"
   xmlns:cc="http://creativecommons.org/ns#"
   xmlns:rdf="http://www.w3.org/1999/02/22-rdf-syntax-ns#"
   xmlns:svg="http://www.w3.org/2000/svg"
   xmlns="http://www.w3.org/2000/svg"
   xmlns:sodipodi="http://sodipodi.sourceforge.net/DTD/sodipodi-0.dtd"
   xmlns:inkscape="http://www.inkscape.org/namespaces/inkscape"
   width="2000"
   height="2048"
   id="svg2992"
   version="1.1"
   inkscape:version="0.91pre2 r13516"
   sodipodi:docname="കൂ.svg">
  <defs
     id="defs5498">
    <inkscape:path-effect
       effect="spiro"
       id="path-effect3846"
       is_visible="true" />
    <inkscape:path-effect
       effect="spiro"
       id="path-effect3801"
       is_visible="true" />
    <inkscape:path-effect
       is_visible="true"
       id="path-effect3846-96"
       effect="spiro" />
    <inkscape:path-effect
       is_visible="true"
       id="path-effect3801-0"
       effect="spiro" />
    <inkscape:path-effect
       effect="spiro"
       id="path-effect3846-9"
       is_visible="true" />
    <inkscape:path-effect
       effect="spiro"
       id="path-effect3801-9"
       is_visible="true" />
    <inkscape:path-effect
       effect="spiro"
       id="path-effect4500"
       is_visible="true" />
    <inkscape:path-effect
       effect="spiro"
       id="path-effect4500-8"
       is_visible="true" />
    <inkscape:path-effect
       effect="spiro"
       id="path-effect4500-0"
       is_visible="true" />
    <inkscape:path-effect
       effect="spiro"
       id="path-effect4500-0-5"
       is_visible="true" />
    <inkscape:path-effect
       effect="spiro"
       id="path-effect4500-0-5-8"
       is_visible="true" />
    <inkscape:path-effect
       effect="spiro"
       id="path-effect4500-0-5-9"
       is_visible="true" />
  </defs>
  <sodipodi:namedview
     inkscape:window-height="853"
     inkscape:window-width="1600"
     inkscape:pageshadow="2"
     inkscape:pageopacity="0.0"
     borderopacity="1.0"
     bordercolor="#666666"
     pagecolor="#ffffff"
     id="base"
     showgrid="true"
     showguides="true"
     inkscape:guide-bbox="true"
     inkscape:zoom="0.454"
     inkscape:cx="675.16424"
     inkscape:cy="26.234279"
     inkscape:window-x="1598"
     inkscape:window-y="-3"
     inkscape:current-layer="layer1-2"
     inkscape:window-maximized="1">
    <sodipodi:guide
       orientation="horizontal"
       position="0,600"
       id="guide5596" />
    <inkscape:grid
       type="xygrid"
       id="grid3769"
       empspacing="3"
       visible="true"
       enabled="true"
       snapvisiblegridlinesonly="true"
       spacingx="4px"
       units="px"
       dotted="true"
       spacingy="4px" />
    <sodipodi:guide
       orientation="0,1"
       position="-1040,1600"
       id="guide2985" />
  </sodipodi:namedview>
  <metadata
     id="metadata5594">
    <rdf:RDF>
      <cc:Work
         rdf:about="">
        <dc:format>image/svg+xml</dc:format>
        <dc:type
           rdf:resource="http://purl.org/dc/dcmitype/StillImage" />
        <dc:title />
      </cc:Work>
    </rdf:RDF>
  </metadata>
  <g
     inkscape:label="Layer 1"
     inkscape:groupmode="layer"
     id="layer1"
     transform="translate(0,1048)">
    <g
       id="layer1-8"
       inkscape:label="Layer 1"
       transform="translate(952.36993,409.26426)">
      <g
         transform="translate(-900.90145,-124.23254)"
         inkscape:label="Layer 1"
         id="layer1-2">
        <path
           style="color:#000000;font-style:normal;font-variant:normal;font-weight:normal;font-stretch:normal;font-size:medium;line-height:normal;font-family:sans-serif;text-indent:0;text-align:start;text-decoration:none;text-decoration-line:none;text-decoration-style:solid;text-decoration-color:#000000;letter-spacing:normal;word-spacing:normal;text-transform:none;direction:ltr;block-progression:tb;writing-mode:lr-tb;baseline-shift:baseline;text-anchor:start;clip-rule:nonzero;display:inline;overflow:visible;visibility:visible;opacity:1;isolation:auto;mix-blend-mode:normal;color-interpolation:sRGB;color-interpolation-filters:linearRGB;solid-color:#000000;solid-opacity:1;fill:#000000;fill-opacity:1;fill-rule:evenodd;stroke:none;stroke-width:140;stroke-linecap:round;stroke-linejoin:round;stroke-miterlimit:4;stroke-dasharray:none;stroke-dashoffset:0;stroke-opacity:1;color-rendering:auto;image-rendering:auto;shape-rendering:auto;text-rendering:auto;enable-background:accumulate"
           d="m 918.48242,-926.41211 c -28.23947,0.11309 -56.45687,2.83836 -84.21289,8.11523 -88.63968,16.85188 -170.31749,59.06769 -236.36328,118.51172 -49.00593,44.10744 -88.94604,97.33912 -117.8457,156.06641 -72.97234,6.0882 -147.79558,19.89498 -219.98438,52.54102 -57.4769,25.99286 -110.98187,62.86301 -154.89453,110.78125 -43.966447,47.97693 -77.311004,106.03717 -94.93164,170.01757 -24.682963,89.62367 -17.0924378,188.07671 28.15625,272.429691 45.607886,85.022576 127.03025,149.197499 224.4375,167.724609 93.71972,17.82573 191.24151,-9.16134 262.46484,-72.630859 20.69355,-18.440722 38.48659,-39.499307 53.28321,-62.347656 36.49624,42.482845 81.21696,77.945506 132.01367,103.294922 108.16668,53.979123 236.3725,59.031103 348.45113,13.730473 74.422,-30.08029 137.6228,-80.197893 186.5215,-140.251958 a 70.007,70.007 0 0 0 0,0 c 48.7569,-59.879963 82.8993,-128.734702 105.291,-199.626952 29.584,-93.66288 39.4441,-195.27906 22.4258,-294.09766 46.7674,-1.46263 92.597,-1.98114 137.3496,0.49219 51.3021,2.83529 98.7906,11.67771 136.7168,30.7793 18.7743,9.45574 35.1477,21.46319 47.5332,35.05469 12.2486,13.44127 20.987,29.11748 24.9043,44.09374 6.8005,25.99886 -1.5652,60.04344 -19.6406,79.92969 -18.0756,19.88637 -51.1692,31.45499 -77.6973,27.16016 l -0.01,0.0449 c -0.5733,-0.082 -1.1329,-0.22235 -1.707,-0.30078 a 70.007,70.007 0 0 0 -20.6621,138.45703 c 0.5722,0.0926 1.1445,0.13447 1.7168,0.22266 l -0.01,0.0332 c 27.5066,3.75794 54.9011,16.63956 75.3399,35.42773 20.4387,18.78824 35.5755,45.002069 41.6308,72.095708 7.7261,34.569143 1.3644,75.059833 -16.7773,108.300781 -18.3539,33.629615 -49.5101,62.657671 -85.9883,80.970701 -45.8611,23.02348 -103.852,32.05544 -166.4844,35.05469 -63.3855,3.03531 -129.0828,1.44622 -196.9179,1.16211 l -767.11918,-3.21289 c -77.97064,-0.32656 -163.08066,-5.88674 -252.71094,8.52148 -46.02667,7.39887 -95.19971,21.41613 -140.238277,50.96485 -46.070896,30.226 -86.2090612,76.55082 -99.9609374,138.05078 -7.6731266,34.31509 -5.8220266,68.80417 3.0488282,100.77148 8.8272753,31.81027 24.3041892,60.18126 43.6796872,84.44141 38.606205,48.339 90.377349,78.39154 142.078129,96.58984 101.19135,35.61864 202.00783,31.02971 290.55859,30.98242 l 1315.5273,-0.70117 a 70.007,70.007 0 1 0 -0.074,-140 l -1315.52732,0.70117 c -91.42254,0.0488 -175.42777,1.09788 -244,-23.03906 -33.18102,-11.67948 -61.61761,-29.92746 -79.16797,-51.90234 -8.70278,-10.89679 -14.96823,-22.96111 -18.17187,-34.50586 -3.16007,-11.38771 -3.47144,-23.19322 -1.32617,-32.78711 3.82837,-17.12091 18.84623,-37.57998 40.13476,-51.54688 22.32087,-14.64418 52.14362,-24.40544 85.6582,-29.79296 69.45227,-11.16458 146.75344,-7.09827 229.90625,-6.75 l 767.11912,3.21289 c 65.8857,0.27594 134.0158,2.04052 204.1992,-1.32032 70.9366,-3.39691 148.9551,-12.80285 222.6016,-49.77539 60.2522,-30.24821 112.5687,-77.64385 146.0664,-139.02148 33.7097,-61.766292 46.3974,-134.845768 30.5156,-205.906252 -10.9955,-49.198188 -35.1493,-94.372278 -69.6191,-130.839848 6.2561,-5.51444 12.2933,-11.34072 17.9805,-17.59765 51.5818,-56.74941 70.8908,-135.33083 51.4843,-209.52344 -10.415,-39.81785 -30.9673,-74.54304 -56.8671,-102.96484 -25.763,-28.27159 -56.2294,-49.77192 -88.0391,-65.79297 -63.2421,-31.85201 -130.1643,-42.11379 -191.9649,-45.5293 -64.5916,-3.56976 -127.5328,-1.93158 -189.0332,0.52149 -47.2272,-98.36319 -126.1489,-182.02291 -228.8554,-227.70508 -57.6439,-25.63907 -119.87515,-38.0281 -182.00198,-37.7793 z m 12.16797,140.28711 c 39.17679,1.3366 77.94401,9.84367 112.93751,25.4082 49.4725,22.00459 93.0606,59.45364 126.3789,105.25977 l -521.75586,6.24023 c 13.13202,-16.75805 27.63795,-32.36489 43.35156,-46.50781 47.70807,-42.9393 107.14477,-73.30488 168.85547,-85.03711 23.07417,-4.38678 46.72635,-6.16524 70.23242,-5.36328 z m 301.04301,269.28125 c 17.2725,79.42927 11.1228,166.06822 -14.3204,246.62109 -17.8916,56.64511 -44.6649,109.56132 -80.3574,153.39649 -35.5508,43.661056 -80.8416,78.809961 -130.4218,98.849608 C 933.19786,11.689033 843.95322,8.1710601 773.11914,-27.177734 702.28507,-62.526528 645.81755,-131.72433 625.39453,-208.20898 a 70.007,70.007 0 0 0 -5.09375,-13.32813 70.007,70.007 0 0 0 -4.00976,-8.14062 c -41.80182,-73.39886 -57.97567,-162.90396 -44.50782,-246.29102 1.74448,-10.80102 4.01442,-21.53807 6.74414,-32.17773 10.44496,-0.24812 20.90442,-0.47717 31.46875,-0.60352 l 565.65821,-6.76562 c 18.8389,-0.22532 37.4839,-0.73395 56.0391,-1.32813 z m -798.3516,20.21484 c -17.52388,110.82855 2.03392,225.62291 54.91601,324.44922 -0.63518,46.11655 -22.00944,94.432539 -56.08984,124.802737 C 394.90104,-14.167137 338.04184,1.5673757 289.00391,-7.7597656 237.52488,-17.551208 187.81052,-55.595708 161.77734,-104.12695 135.38499,-153.3278 129.6664,-216.71334 145.22461,-273.20508 c 11.31074,-41.06921 33.52214,-80.24922 63.17187,-112.60351 29.70352,-32.41298 67.56352,-58.90171 109.36719,-77.80664 35.45477,-16.03376 74.33674,-26.33414 115.57813,-33.01368 z"
           id="path4498-7-1"
           inkscape:connector-curvature="0" />
        <path
           style="fill:none;fill-rule:evenodd;stroke:#000000;stroke-width:140;stroke-linecap:round;stroke-linejoin:round;stroke-miterlimit:4;stroke-dasharray:none;stroke-opacity:1"
           d="m 630.95338,1587.7317 c -49.91508,-87.6447 -68.86846,-192.5231 -52.78666,-292.0946 16.0818,-99.5715 67.08806,-193.1507 142.0565,-260.6255 56.87694,-51.19166 127.43398,-87.48214 202.60917,-101.77418 75.1752,-14.29203 154.77551,-6.24384 224.69311,24.85438 102.2688,45.4875 179.6851,139.0744 215.0847,245.2577 35.3995,106.1833 30.7121,223.5457 -2.9996,330.2769 -20.1417,63.7687 -50.5994,124.6544 -92.8241,176.512 -42.2248,51.8575 -96.4714,94.4902 -158.4725,119.5502 -92.7373,37.4831 -201.46205,33.199 -290.96243,-11.465 -89.50037,-44.664 -158.29266,-128.9673 -184.0976,-225.6073 5.29582,72.4652 -24.7815,146.6948 -79.02662,195.0345 -54.24513,48.3397 -131.43583,69.7002 -202.81466,56.1238 -74.44314,-14.1593 -140.01218,-65.269 -175.8327,-132.0459 -35.82052,-66.7769 -42.47499,-147.6966 -22.3544,-220.7543 14.46569,-52.5248 42.24409,-101.145 79.05218,-141.3107 36.80809,-40.1656 82.49022,-71.8443 132.13051,-94.2932 99.28059,-44.8978 211.28742,-50.0464 320.24039,-51.3495 l 565.65743,-6.7655 c 113.2671,-1.3547 226.5904,-12.2952 339.693,-6.0444 56.5512,3.1254 113.7558,12.6771 164.3399,38.1539 25.292,12.7384 48.7125,29.4926 67.7867,50.4242 19.0742,20.9315 33.7189,46.1321 40.8851,73.5292 13.1035,50.0957 -0.7338,106.4091 -35.5624,144.727 -34.8285,38.3178 -89.569,57.4528 -140.6846,49.1773 41.969,5.7338 82.051,24.5821 113.236,53.2488 31.1849,28.6666 53.3338,67.0235 62.5729,108.3625 11.8039,52.8148 2.2793,109.5997 -23.6465,157.1033 -25.9257,47.5036 -67.662,85.7156 -116.0272,109.9962 -59.7538,29.998 -127.7586,39.217 -194.5431,42.4151 -66.7845,3.1981 -133.6972,1.5213 -200.5576,1.2413 l -767.12013,-3.2128 c -80.56172,-0.3374 -161.76668,-5.1507 -241.30794,7.6357 -39.77064,6.3932 -79.26887,18.2822 -112.94859,40.3786 -33.67972,22.0964 -61.25757,55.4891 -70.0477,94.7995 -4.9092,21.9545 -3.8284,45.1014 2.18706,66.7789 6.01545,21.6775 16.88659,41.8949 30.92573,59.4734 28.07828,35.1569 68.18209,59.3071 110.62299,74.246 84.88179,29.8778 177.29245,27.0596 267.27911,27.0116 l 1315.52797,-0.7024"
           id="path4498-7-1-3"
           inkscape:path-effect="#path-effect4500-0-5-9"
           inkscape:original-d="m 630.95338,1587.7317 c 0,0 -14.86376,-478.0614 89.26984,-552.7201 104.1336,-74.6586 315.18428,-124.131 427.30228,-76.9198 231.6128,97.5287 323.6886,358.4992 212.0851,575.5346 -111.6051,217.0356 -148.1084,239.3833 -251.2966,296.0622 -228.43103,125.472 -475.06003,-237.0723 -475.06003,-237.0723 0,0 110.8142,318.0383 -281.84128,251.1583 -85.7218,-14.6009 -297.991699,-60.9799 -198.1871,-352.8002 54.6574,-159.8139 254.2303,-283.6381 531.42308,-286.9534 l 565.65743,-6.7655 c 173.923,-2.0802 568.0746,12.2759 612.7047,156.0629 18.9383,61.0143 -176.247,193.9043 -176.247,193.9043 0,0 160.3266,72.9161 175.8089,161.6113 15.4823,88.6952 -56.2861,211.0545 -139.6737,267.0995 -95.4889,64.1784 -313.7367,43.9972 -395.1007,43.6564 l -767.12013,-3.2128 c -1.63818,-0.01 -410.8263,-5.8076 -424.30423,142.8138 -14.14287,155.9537 360.65179,227.5368 411.01489,227.5099 l 1315.52797,-0.7024"
           inkscape:connector-curvature="0"
           sodipodi:nodetypes="csssscsssssczsssasc" />
      </g>
    </g>
  </g>
</svg>
