<?xml version="1.0" encoding="UTF-8" standalone="no"?>
<!-- Created with Inkscape (http://www.inkscape.org/) -->

<svg
   xmlns:dc="http://purl.org/dc/elements/1.1/"
   xmlns:cc="http://creativecommons.org/ns#"
   xmlns:rdf="http://www.w3.org/1999/02/22-rdf-syntax-ns#"
   xmlns:svg="http://www.w3.org/2000/svg"
   xmlns="http://www.w3.org/2000/svg"
   xmlns:sodipodi="http://sodipodi.sourceforge.net/DTD/sodipodi-0.dtd"
   xmlns:inkscape="http://www.inkscape.org/namespaces/inkscape"
   width="2000"
   height="2048"
   id="svg2992"
   version="1.1"
   inkscape:version="0.91 r13725"
   sodipodi:docname="ക്ര.svg">
  <defs
     id="defs5498">
    <inkscape:path-effect
       effect="spiro"
       id="path-effect3846"
       is_visible="true" />
    <inkscape:path-effect
       effect="spiro"
       id="path-effect3801"
       is_visible="true" />
    <inkscape:path-effect
       is_visible="true"
       id="path-effect3846-9"
       effect="spiro" />
    <inkscape:path-effect
       is_visible="true"
       id="path-effect3801-9"
       effect="spiro" />
    <inkscape:path-effect
       is_visible="true"
       id="path-effect4500"
       effect="spiro" />
    <inkscape:path-effect
       is_visible="true"
       id="path-effect4500-8"
       effect="spiro" />
    <inkscape:path-effect
       is_visible="true"
       id="path-effect4500-0"
       effect="spiro" />
    <inkscape:path-effect
       is_visible="true"
       id="path-effect4500-0-5"
       effect="spiro" />
    <inkscape:path-effect
       is_visible="true"
       id="path-effect4500-0-5-7"
       effect="spiro" />
    <inkscape:path-effect
       is_visible="true"
       id="path-effect4500-0-5-1"
       effect="spiro" />
    <inkscape:path-effect
       is_visible="true"
       id="path-effect4500-0-5-18"
       effect="spiro" />
    <inkscape:path-effect
       effect="spiro"
       id="path-effect4372-52-4-6-8"
       is_visible="true" />
    <inkscape:path-effect
       effect="spiro"
       id="path-effect4372-52-4-6-8-4"
       is_visible="true" />
    <inkscape:path-effect
       effect="spiro"
       id="path-effect4372-52-4-6-8-7"
       is_visible="true" />
    <inkscape:path-effect
       is_visible="true"
       id="path-effect4500-0-5-18-9"
       effect="spiro" />
    <inkscape:path-effect
       is_visible="true"
       id="path-effect4500-0-5-18-2"
       effect="spiro" />
    <inkscape:path-effect
       is_visible="true"
       id="path-effect4500-0-5-18-3"
       effect="spiro" />
    <inkscape:path-effect
       is_visible="true"
       id="path-effect4500-0-5-18-6"
       effect="spiro" />
    <inkscape:path-effect
       is_visible="true"
       id="path-effect4500-0-5-18-5"
       effect="spiro" />
    <inkscape:path-effect
       is_visible="true"
       id="path-effect4500-0-5-18-68"
       effect="spiro" />
    <inkscape:path-effect
       is_visible="true"
       id="path-effect4500-0-5-18-54"
       effect="spiro" />
    <inkscape:path-effect
       is_visible="true"
       id="path-effect4500-0-5-18-54-7"
       effect="spiro" />
    <inkscape:path-effect
       is_visible="true"
       id="path-effect4500-0-5-18-23"
       effect="spiro" />
  </defs>
  <sodipodi:namedview
     inkscape:window-height="871"
     inkscape:window-width="1600"
     inkscape:pageshadow="2"
     inkscape:pageopacity="0.0"
     borderopacity="1.0"
     bordercolor="#666666"
     pagecolor="#ffffff"
     id="base"
     showgrid="true"
     showguides="true"
     inkscape:guide-bbox="true"
     inkscape:zoom="0.32102648"
     inkscape:cx="3489.6368"
     inkscape:cy="1082.912"
     inkscape:window-x="1600"
     inkscape:window-y="0"
     inkscape:current-layer="layer1-2"
     inkscape:window-maximized="1">
    <sodipodi:guide
       orientation="horizontal"
       position="0,600"
       id="guide5596" />
    <inkscape:grid
       type="xygrid"
       id="grid3769"
       empspacing="3"
       visible="true"
       enabled="true"
       snapvisiblegridlinesonly="true"
       spacingx="4px"
       units="px"
       dotted="true"
       spacingy="4px" />
    <sodipodi:guide
       orientation="0,1"
       position="-1040,1600"
       id="guide2985" />
    <sodipodi:guide
       position="3168,1724"
       orientation="0,1"
       id="guide4181"
       inkscape:label=""
       inkscape:color="rgb(0,0,255)" />
  </sodipodi:namedview>
  <metadata
     id="metadata5594">
    <rdf:RDF>
      <cc:Work
         rdf:about="">
        <dc:format>image/svg+xml</dc:format>
        <dc:type
           rdf:resource="http://purl.org/dc/dcmitype/StillImage" />
        <dc:title />
      </cc:Work>
    </rdf:RDF>
  </metadata>
  <g
     inkscape:label="Layer 1"
     inkscape:groupmode="layer"
     id="layer1"
     transform="translate(0,1048)">
    <g
       id="layer1-2"
       inkscape:label="Layer 1"
       transform="translate(-900.90145,-124.23254)">
      <path
         sodipodi:nodetypes="aaaaacaassassac"
         inkscape:connector-curvature="0"
         inkscape:original-d="m 1897.8333,-443.91039 c 186.8025,-1.06175 356.1237,241.73802 361.2156,428.474164 5.5886,204.951076 -165.2374,494.754966 -370.2334,491.174916 -199.8395,-3.49 -351.7821,-291.41251 -343.9812,-491.130146 7.223,-184.922574 167.9384,-427.467084 352.999,-428.518934 z m -330.2561,639.4094 c 0,0 -149.9752,286.05208 -279.8413,273.61828 -110.0533,-10.53686 -216.7596,-165.68623 -188.8421,-272.65988 48.9099,-187.4118128 244.869,-253.704021 522.0781,-255.093665 l 551.6575,-2.76545 c 173.9332,-0.871924 419.0142,125.863576 430.1823,300.403065 18.0656,282.33527 -374.4525,562.48259 -628.256,570.65791 l -270.0474,8.69855 C 1359.3077,829.47715 990.85335,742.69285 854.53922,468.26908 718.47911,194.3567 1088.6741,-418.88591 1088.6741,-418.88591"
         inkscape:path-effect="#path-effect4500-0-5-18"
         id="path4498-7-1-0"
         d="m 1897.8333,-443.91039 c 51.621,-0.68422 103.0901,13.20324 148.4315,37.88836 45.3413,24.68511 84.6038,59.9755 115.7357,101.158 62.2638,82.36501 91.0621,186.35048 97.0484,289.427804 6.6992,115.351803 -15.1158,235.193246 -79.4731,331.157066 -32.1786,47.9819 -74.7112,89.32451 -124.9086,117.92425 -50.1975,28.59974 -108.1164,44.18199 -165.8517,42.0936 -55.7334,-2.01598 -110.4637,-20.44569 -157.4075,-50.55467 -46.9438,-30.10898 -86.1707,-71.66354 -115.6249,-119.02097 -58.9082,-94.71487 -77.8224,-210.226883 -70.9488,-321.554506 6.2787,-101.691954 34.198,-204.210574 94.6894,-286.195104 30.2457,-40.99227 68.4185,-76.38198 112.6864,-101.59143 44.268,-25.20945 94.6849,-40.05723 145.6232,-40.7324 z m -330.2561,639.4094 c 12.1989,75.38522 -14.3482,156.00488 -68.9507,209.39317 -54.6025,53.38829 -135.7987,78.11596 -210.8906,64.22511 -60.4266,-11.178 -116.0796,-46.72275 -151.2093,-97.14325 -35.1297,-50.42051 -49.1902,-115.16146 -37.6328,-175.51663 9.916,-51.78343 37.9351,-99.270275 75.5363,-136.229724 37.6012,-36.959449 84.4512,-63.7433971 134.0394,-81.655946 99.1765,-35.825097 207.0551,-36.67939 312.5024,-37.207995 l 551.6575,-2.76545 c 48.4279,-0.242768 97.1534,0.06792 144.7871,8.80585 47.6337,8.737929 93.9485,25.91829 134.3641,52.59984729 40.4155,26.68155771 74.5985,62.57437171 99.9529,103.83544771 25.3544,41.26108 41.9632,87.59892 51.0782,135.16192 15.4992,80.87654 9.3291,165.95913 -18.8602,243.33229 -28.1892,77.37317 -78.362,146.40305 -142.4584,198.10305 -64.0964,51.70001 -141.377,85.71191 -221.581,104.3816 -80.204,18.66969 -163.0508,22.18981 -245.3564,24.84097 l -270.0474,8.69855 c -162.0116,5.21859 -327.8122,4.50309 -480.6134,-49.59672 C 1071.0937,714.66129 935.82221,608.51197 854.53922,468.26908 769.41463,321.39801 745.09537,140.48055 788.41373,-23.656059 831.7321,-187.79267 942.16017,-333.14808 1088.6741,-418.88591"
         style="fill:none;fill-rule:evenodd;stroke:#000000;stroke-width:140;stroke-linecap:round;stroke-linejoin:round;stroke-miterlimit:4;stroke-dasharray:none;stroke-opacity:1" />
      <path
         style="color:#000000;font-style:normal;font-variant:normal;font-weight:normal;font-stretch:normal;font-size:medium;line-height:normal;font-family:sans-serif;text-indent:0;text-align:start;text-decoration:none;text-decoration-line:none;text-decoration-style:solid;text-decoration-color:#000000;letter-spacing:normal;word-spacing:normal;text-transform:none;direction:ltr;block-progression:tb;writing-mode:lr-tb;baseline-shift:baseline;text-anchor:start;white-space:normal;clip-rule:nonzero;display:inline;overflow:visible;visibility:visible;opacity:1;isolation:auto;mix-blend-mode:normal;color-interpolation:sRGB;color-interpolation-filters:linearRGB;solid-color:#000000;solid-opacity:1;fill:#000000;fill-opacity:1;fill-rule:evenodd;stroke:none;stroke-width:140;stroke-linecap:round;stroke-linejoin:round;stroke-miterlimit:4;stroke-dasharray:none;stroke-dashoffset:0;stroke-opacity:1;color-rendering:auto;image-rendering:auto;shape-rendering:auto;text-rendering:auto;enable-background:accumulate"
         d="m 2094.7148,1071.082 c -63.9253,0.8474 -125.4783,19.228 -179.3359,49.8985 -53.711,30.587 -98.849,72.7133 -134.373,120.8593 -48.6064,65.8768 -78.1732,140.968 -94.1934,217.6016 -67.0597,3.9851 -136.0531,13.6208 -204.3164,38.2793 -57.3081,20.7013 -113.0523,52.0882 -159.3262,97.5723 -46.5803,45.7853 -82.2085,105.044 -95.2187,172.9863 -15.2688,79.7366 2.7628,162.4047 48.9511,228.6973 46.1317,66.2112 116.9432,111.3513 195.9102,125.9589 98.5778,18.2355 200.8804,-12.9197 272.5605,-83.0058 18.2208,-17.8156 33.9416,-37.6829 47.0372,-59.0078 28.1204,33.7818 61.1586,63.889 99.0156,88.1699 56.8291,36.4493 123.1876,59.0746 192.668,61.5879 71.9956,2.6042 142.2168,-16.5757 203.0351,-51.2266 60.6314,-34.5443 110.6814,-83.5263 148.3926,-139.7578 67.1415,-100.1154 92.8584,-218.2807 92.4316,-332.7012 30.1158,8.0162 58.4582,20.1656 83.0703,36.4141 31.4723,20.7773 58.7374,49.2865 78.8789,82.0645 20.2545,32.9615 34.2305,71.3101 41.9688,111.6894 13.1448,68.5909 7.783,141.2433 -15.8809,206.1953 -23.6282,64.8543 -66.344,123.7894 -120.6347,167.5801 -54.3725,43.8567 -121.9133,74.0247 -193.5039,90.6895 -71.7295,16.6969 -149.9168,20.4191 -231.7403,23.0546 l -270.0468,8.6993 c -160.2699,5.1625 -317.0315,3.2284 -454.9981,-45.6192 -137.8978,-48.8232 -260.0827,-145.2576 -332.1543,-269.6074 -75.5191,-130.2981 -97.4362,-293.3455 -59.0059,-438.9609 38.4303,-145.6154 137.9504,-276.6147 267.9317,-352.6778 a 70.007,70.007 0 1 0 -70.709,-120.832 c -163.0467,95.4125 -284.38148,255.1253 -332.58788,437.7832 -48.20643,182.6579 -21.48599,381.4465 73.24414,544.8906 90.49444,156.136 238.85204,271.9986 406.55664,331.375 167.6358,59.352 342.4752,58.8489 506.2285,53.5742 l 270.0488,-8.6972 c 82.7878,-2.6667 170.2941,-5.9847 258.9727,-26.627 88.8173,-20.6747 175.8379,-58.5309 249.6582,-118.0742 73.9021,-59.6092 131.531,-138.7348 164.2812,-228.627 32.7146,-89.7943 39.6916,-187.3066 21.8379,-280.4687 -10.4916,-54.7467 -29.7331,-109.0741 -60.1875,-158.6348 l 0,0 c -30.567,-49.7442 -71.6684,-93.0198 -121.0274,-125.6054 -49.4057,-32.6168 -104.5711,-52.8102 -160.3007,-63.0332 -4.8999,-0.8989 -9.754,-1.6239 -14.6133,-2.3711 -16.2003,-78.8789 -46.8266,-156.1037 -97.5918,-223.2578 -36.6043,-48.4216 -83.0618,-90.4585 -138.1055,-120.4258 -55.1965,-30.0505 -118.0413,-47.2611 -182.8301,-46.4024 z m 1.8555,139.9883 c 38.4532,-0.5097 78.5469,10.0533 114.0332,29.3731 35.6389,19.4028 67.7057,47.9472 93.3653,81.8906 28.6861,37.9471 49.4979,82.8634 63.248,131.2656 l -535.4707,2.6856 c 13.4387,-48.3139 33.7881,-93.2068 61.9141,-131.3262 24.9673,-33.8384 56.175,-62.4903 91,-82.3223 34.6782,-19.7483 73.9588,-31.0633 111.9101,-31.5664 z m 274.2188,382.5137 c 5.7812,-0.029 11.3366,0.028 17.0117,0.035 2.4426,97.111 -18.5682,193.5672 -68.5528,268.0997 -26.6461,39.7323 -61.6602,73.4367 -101.4238,96.0917 -39.5767,22.5486 -85.195,34.5336 -128.6699,32.961 -41.9865,-1.5188 -85.0861,-15.7547 -122.1445,-39.5235 -37.2235,-23.8745 -69.5443,-57.7852 -93.9766,-97.0683 -16.1747,-26.0063 -28.875,-54.4799 -38.5,-84.5274 -0.019,-0.1163 -0.026,-0.2332 -0.045,-0.3496 a 70.007,70.007 0 0 0 -5.5899,-18.7695 c -13.242,-48.8553 -18.6877,-101.3154 -17.3281,-154.1211 2.5326,-0.015 5.0231,-0.05 7.5625,-0.062 l 551.6563,-2.7656 z m -699.3282,7.7305 c -1.0473,66.5327 6.518,134.5256 26.0274,199.8066 4.7357,49.4681 -14.7284,104.2293 -49.9903,138.707 -37.5248,36.6905 -97.6147,54.9897 -149.2207,45.4434 -41.8862,-7.7483 -82.38,-33.6984 -106.5078,-68.3281 -24.0711,-34.5485 -34.1624,-81.3602 -26.3164,-122.334 6.8218,-35.6245 27.2334,-71.341 55.8555,-99.4746 28.928,-28.4343 66.884,-50.6165 108.7519,-65.7403 43.4863,-15.7083 91.088,-23.7928 141.4004,-28.08 z"
         id="path4498-7-1-0-2"
         inkscape:connector-curvature="0" />
      <path
         sodipodi:nodetypes="aaaaacaassassac"
         inkscape:connector-curvature="0"
         inkscape:original-d="m -1327.5854,-443.91061 c 193.0351,-1.09787 368.00556,249.96096 373.26724,443.04909642 C -948.54314,211.06116 -1125.0685,510.72299 -1336.904,507.02116 -1543.411,503.41245 -1700.423,205.69599 -1692.3617,-0.81522069 -1684.8977,-192.0281 -1518.8202,-442.82298 -1327.5854,-443.91061 Z m -341.2747,661.15949 c 0,0 -154.9789,295.7824 -289.1779,282.92565 -113.7251,-10.89528 -223.9916,-171.3222 -195.1427,-281.93465 50.5419,-193.786792 253.0389,-262.333991 539.4968,-263.770901 l 570.0629,-2.859519 c 179.73631,-0.90159 433.71281,130.176732 444.5349,310.62154 17.3812,289.80978 -386.81042,579.96153 -649.217,580.64069 l -279.0572,0.72226 c -356.9018,0.92374 -736.0033,-63.88136 -878.3275,-344.29648 -143.1245,-281.99197 241.9466,-917.33237 241.9466,-917.33237"
         inkscape:path-effect="#path-effect4500-0-5-18-54"
         id="path4498-7-1-0-4"
         d="m -1327.5854,-443.91061 c 53.3635,-0.70747 106.5692,13.66063 153.4328,39.19428 46.8636,25.53365 87.4361,62.0334 119.6001,104.62026 64.328,85.1737 94.04933,192.67753 100.23434,299.23455642 6.92169,119.24875358 -15.57636,243.14072358 -82.06414,342.37553358 -33.2439,49.6174 -77.1949,92.37656 -129.0782,121.95983 -51.8833,29.58326 -111.7578,45.70596 -171.4435,43.54731 -57.6175,-2.08385 -114.1964,-21.14943 -162.717,-52.29203 -48.5206,-31.14261 -89.0555,-74.11998 -119.4842,-123.09149 -60.8573,-97.94303 -80.3596,-217.3616 -73.2565,-332.45286069 6.4881,-105.12538931 35.3019,-211.11303931 97.7983,-295.89302931 31.2481,-42.38999 70.6942,-78.99216 116.4482,-105.06774 45.7539,-26.07558 97.8717,-41.4365 150.5298,-42.13462 z m -341.2747,661.15949 c 12.679,77.92794 -14.7215,161.30377 -71.1562,216.51831 -56.4347,55.21454 -140.3895,80.78636 -218.0217,66.40734 -62.4651,-11.56977 -119.9847,-48.33909 -156.282,-100.47596 -36.2973,-52.13687 -50.8113,-119.06533 -38.8607,-181.45869 10.2506,-53.51786 39.1932,-102.60046 78.0398,-140.812743 38.8466,-38.212287 87.2532,-65.915943 138.4956,-84.4483766 102.4849,-37.0648674 213.9814,-37.9631214 322.9614,-38.5097814 l 570.0629,-2.859519 c 50.03604,-0.250988 100.38177,0.07572 149.59042,9.140859 49.20865,9.065142 97.0398,26.882532 138.75811,54.509524 41.71831,27.626991 76.97864,64.757393 103.16787,107.392967 26.18922,42.63558 43.3982,90.47506 53.0185,139.57819 16.36901,83.5493 10.76741,171.54388 -17.87368,251.71943 -28.64109,80.17555 -80.34642,151.81356 -146.85231,204.96802 -66.50589,53.15447 -146.97588,87.38083 -230.27689,104.96981 -83.30102,17.58897 -169.07672,18.76308 -254.21412,18.98343 l -279.0572,0.72226 c -164.839,0.42664 -332.5414,-3.35593 -489.1149,-54.90021 -156.5735,-51.54427 -299.5784,-151.05688 -389.2126,-289.39627 -96.7846,-149.37524 -127.2684,-340.06383 -81.8759,-512.167715 45.3924,-172.103885 165.9569,-322.953455 323.8225,-405.164655"
         style="fill:none;fill-rule:evenodd;stroke:#000000;stroke-width:70;stroke-linecap:round;stroke-linejoin:round;stroke-miterlimit:4;stroke-dasharray:none;stroke-opacity:1" />
      <path
         style="color:#000000;font-style:normal;font-variant:normal;font-weight:normal;font-stretch:normal;font-size:medium;line-height:normal;font-family:sans-serif;text-indent:0;text-align:start;text-decoration:none;text-decoration-line:none;text-decoration-style:solid;text-decoration-color:#000000;letter-spacing:normal;word-spacing:normal;text-transform:none;direction:ltr;block-progression:tb;writing-mode:lr-tb;baseline-shift:baseline;text-anchor:start;white-space:normal;clip-rule:nonzero;display:inline;overflow:visible;visibility:visible;opacity:1;isolation:auto;mix-blend-mode:normal;color-interpolation:sRGB;color-interpolation-filters:linearRGB;solid-color:#000000;solid-opacity:1;fill:#000000;fill-opacity:1;fill-rule:evenodd;stroke:none;stroke-width:70;stroke-linecap:round;stroke-linejoin:round;stroke-miterlimit:4;stroke-dasharray:none;stroke-dashoffset:0;stroke-opacity:1;color-rendering:auto;image-rendering:auto;shape-rendering:auto;text-rendering:auto;enable-background:accumulate"
         d="m -1040.0488,1729.0918 c -59.1569,0.7843 -116.8462,17.9156 -167.3965,46.7246 -50.4768,28.7672 -93.4051,68.7388 -127.291,114.707 -52.2052,70.8195 -81.9549,153.9773 -95.9883,238.7774 -76.6619,2.9696 -154.571,11.5474 -229.8242,38.7637 -55.1038,19.9288 -107.9566,49.937 -151.1367,92.4121 -43.3321,42.6247 -76.0746,97.5905 -87.8711,159.1796 -13.8055,72.0774 2.689,147.9676 44.5117,208.0411 41.7951,60.0337 106.8938,101.605 178.6328,114.8925 89.3821,16.5554 183.8967,-12.2332 248.873,-75.8046 30.6996,-30.0358 53.667,-66.8746 67.9356,-106.8028 32.8049,52.2284 76.3326,98.3481 129.0762,132.2012 53.4647,34.316 115.8612,55.4818 180.3574,57.8144 66.82122,2.4168 132.84967,-15.507 190.0449,-48.1191 57.10135,-32.5586 104.81193,-79.1393 140.82031,-132.8828 71.95365,-107.3928 95.18492,-238.8559 87.92774,-363.8848 -0.0964,-1.66 -0.25018,-3.3252 -0.35743,-4.9863 6.50635,0.8839 12.97176,1.8695 19.36329,3.0469 45.14674,8.3168 88.54729,24.6173 125.77343,49.2695 37.25132,24.6688 69.07051,58.1119 92.66993,96.5313 23.65679,38.5128 39.56331,82.4043 48.49414,127.9882 15.18786,77.5207 9.91185,159.318 -16.48633,233.2149 -26.37376,73.8285 -74.30765,140.2995 -135.74414,189.4023 -61.47396,49.1327 -136.87724,81.4304 -215.65625,98.0645 -78.85716,16.6507 -162.19772,18.0088 -247.07422,18.2285 l -279.05667,0.7227 c -164.2421,0.4251 -328.0741,-3.7624 -478.08,-53.1446 -149.877,-49.3398 -286.2217,-144.6732 -370.7833,-275.1836 -91.2167,-140.7819 -120.1873,-322.0058 -77.4062,-484.209 42.7812,-162.2031 157.3626,-305.567 306.1465,-383.0488 a 35.0035,35.0035 0 1 0 -32.334,-62.0859 c -166.9473,86.9406 -293.4942,245.2766 -341.498,427.2812 -48.0038,182.0047 -16.0068,382.1585 86.3457,540.127 94.7068,146.1684 244.3705,249.8605 407.6406,303.6094 163.1411,53.7062 334.7145,57.0825 500.1504,56.6543 l 279.05661,-0.7227 c 85.39834,-0.2211 173.61062,-1.211 261.35547,-19.7383 87.82299,-18.5437 173.35866,-54.6969 244.89648,-111.873 71.57529,-57.2062 127.05249,-134.0127 157.96094,-220.5352 30.88401,-86.4541 36.81186,-180.6447 19.26172,-270.2226 -10.30978,-52.6223 -28.8213,-104.4097 -57.54297,-151.168 -28.77905,-46.8517 -67.48071,-87.6707 -113.66602,-118.2559 -46.21047,-30.6018 -98.47163,-49.9346 -151.74218,-59.748 -13.45058,-2.4778 -26.85575,-4.3349 -40.19336,-5.7305 -14.21395,-86.1404 -44.90501,-170.5084 -98.74024,-241.7891 -34.89872,-46.2076 -79.06695,-86.0841 -130.7832,-114.2617 -51.79284,-28.2194 -110.68988,-44.2519 -170.64255,-43.457 z m 0.9277,69.9941 c 46.77431,-0.6201 94.2883,12.0837 136.22266,34.9317 42.01093,22.8896 78.9867,56.0145 108.41602,94.9804 42.45485,56.2125 69.00217,124.2367 82.76562,195.8067 -14.84168,-0.2176 -29.57507,-0.2681 -44.08008,-0.1953 l -570.06252,2.8594 c -11.0714,0.055 -22.252,0.1289 -33.4472,0.2207 13.4485,-71.3143 39.3153,-139.1971 80.916,-195.6309 28.6105,-38.8118 64.5744,-72.0418 105.6054,-95.4258 40.9577,-23.342 87.5047,-36.9349 133.6641,-37.5469 z m 283.67579,395.5235 c 17.99137,-0.09 35.67161,0.072 53.17383,0.5097 0.36891,4.6806 0.73973,9.3611 1.01171,14.0469 6.5862,113.4688 -15.17726,229.7902 -76.19921,320.8672 -30.47942,45.4913 -70.67268,84.4271 -117.3379,111.0352 -46.57132,26.5544 -100.29162,40.8771 -152.84182,38.9765 -50.7386,-1.8351 -101.4995,-18.8021 -145.0761,-46.7715 -43.6594,-28.0224 -80.7426,-67.174 -108.6622,-112.1074 -19.0106,-30.5954 -33.6477,-63.8026 -44.5488,-98.5683 -0.1496,-0.9882 -0.228,-1.9816 -0.3887,-2.9688 a 35.0035,35.0035 0 0 0 -4.0117,-11.7519 c -17.6984,-63.3451 -23.2449,-131.4018 -19.1015,-198.5372 0.237,-3.8411 0.5648,-7.6761 0.8652,-11.5136 14.3101,-0.1795 28.664,-0.2853 43.0547,-0.3574 l 570.06249,-2.8594 z m -683.46089,5.2441 c -0.1179,1.7243 -0.2824,3.4527 -0.3887,5.1758 -4.7916,77.6374 1.9359,157.7931 24.8594,233.3437 7.8571,64.0906 -15.9647,133.2816 -62.0567,178.377 -47.8931,46.8576 -121.2896,69.2125 -187.1719,57.0098 -53.1911,-9.8521 -103.1321,-41.8188 -133.9316,-86.0586 -30.772,-44.2004 -43.3047,-102.1678 -33.209,-154.877 8.7046,-45.4462 33.8464,-88.6457 68.207,-122.4453 34.5131,-33.9495 78.4744,-59.3504 125.8555,-76.4863 61.7247,-22.3235 128.6713,-30.7012 197.836,-34.0391 z"
         id="path4498-7-1-0-4-2"
         inkscape:connector-curvature="0" />
      <path
         style="color:#000000;font-style:normal;font-variant:normal;font-weight:normal;font-stretch:normal;font-size:medium;line-height:normal;font-family:sans-serif;text-indent:0;text-align:start;text-decoration:none;text-decoration-line:none;text-decoration-style:solid;text-decoration-color:#000000;letter-spacing:normal;word-spacing:normal;text-transform:none;direction:ltr;block-progression:tb;writing-mode:lr-tb;baseline-shift:baseline;text-anchor:start;white-space:normal;clip-rule:nonzero;display:inline;overflow:visible;visibility:visible;opacity:1;isolation:auto;mix-blend-mode:normal;color-interpolation:sRGB;color-interpolation-filters:linearRGB;solid-color:#000000;solid-opacity:1;fill:#000000;fill-opacity:1;fill-rule:evenodd;stroke:none;stroke-width:200;stroke-linecap:round;stroke-linejoin:round;stroke-miterlimit:4;stroke-dasharray:none;stroke-dashoffset:0;stroke-opacity:1;color-rendering:auto;image-rendering:auto;shape-rendering:auto;text-rendering:auto;enable-background:accumulate"
         d="m 3405.4805,-602.39844 a 100.01,100.01 0 0 0 -54.291,14.6211 c -135.7462,80.24543 -247.6755,197.77155 -321.209,337.26757 -73.5336,139.49604 -107.2442,298.255436 -96.7383,455.59571 7.41,110.97472 36.902,221.58705 91.2422,321.56836 54.4729,100.22577 132.6855,186.68261 227.5371,250.58203 a 100.01,100.01 0 0 0 0,0 c 94.8564,63.90256 202.3007,102.52794 310.8477,121.05664 108.4218,18.50731 213.4488,16.73026 312.0859,14.47265 l 380.0489,-8.69726 c 86.8151,-1.98702 180.8675,-4.6227 277.6836,-28.33594 97.058,-23.7725 191.7064,-68.20665 270.3085,-137.70703 78.6626,-69.55371 136.6284,-160.2613 166.7012,-260.86719 29.9812,-100.29937 31.3175,-206.04064 8.8203,-305.73437 C 4965.9035,115.51751 4945.3282,59.186162 4913,6.8378906 4880.4925,-45.800724 4837.1607,-92.206622 4784.418,-127.61719 c -50.8474,-34.13792 -107.1627,-55.66294 -164.125,-67.17773 -16.9546,-77.1394 -47.3551,-153.02067 -96.9883,-220.61133 -38.7546,-52.77603 -88.4454,-99.00747 -148.2481,-132.27344 -60.0373,-33.39648 -128.7813,-52.74001 -200.3925,-51.78711 -70.6672,0.94035 -137.9927,21.56448 -196.5567,55.62696 -58.3385,33.93142 -106.5973,80.23794 -144.1836,132.6875 -46.7932,65.2973 -75.9882,137.90887 -92.789,211.70898 -61.3324,4.95325 -124.7805,15.38906 -188.4786,38.39844 -60.6172,21.89648 -120.1725,55.25234 -170.164,104.390623 -50.4285,49.5678122 -89.316,113.870705 -103.6524,188.738277 -16.8593,88.04289 2.8711,178.39535 53.7989,251.49024 50.8468,72.97877 128.1555,122.23105 215.0683,138.30859 108.6432,20.09734 219.9931,-13.8123 298.9922,-91.05469 10.6042,-10.36835 20.3745,-21.37851 29.416,-32.86328 23.722,24.38838 50.2092,46.50697 79.5313,65.44141 60.9241,39.3412 132.2467,63.96999 207.7129,66.70117 78.1981,2.83006 153.679,-18.10783 218.9062,-55.54101 64.9479,-37.27286 117.9369,-89.65476 157.7813,-149.37696 62.6148,-93.85248 90.5628,-201.08669 96.6093,-306.457028 12.9158,5.65273 25.1216,12.206791 36.2813,19.699219 27.4236,18.411752 51.6684,43.977929 69.8965,73.494139 18.4073,29.80655 31.9526,65.23987 40.5918,103.52344 15.3652,68.08907 13.9298,139.9321 -5.3496,204.42969 -19.1878,64.19105 -57.366,123.9359 -107.5586,168.3164 -50.2529,44.43386 -115.4027,76.1328 -185.4082,93.2793 -70.2476,17.20579 -149.538,20.69581 -234.6797,22.64453 l -380.0488,8.69922 c -97.1499,2.22356 -189.2333,2.7713 -273.8575,-11.67383 -84.499,-14.42376 -165.1941,-44.2632 -232.7578,-89.7793 -67.5682,-45.51924 -124.5129,-108.37595 -163.5586,-180.21679 -39.1786,-72.08531 -61.7707,-154.9582 -67.4082,-239.38672 -7.9947,-119.732538 18.148,-242.854312 74.1055,-349.00781 55.9575,-106.1535 142.7607,-197.29824 246.0605,-258.36329 a 100.01,100.01 0 0 0 -47.4843,-186.78906 z m 771.8437,202.91406 c 33.2076,-0.44187 68.9364,9.02198 100.5078,26.58399 31.8061,17.69252 60.9764,44.15107 84.2676,75.86914 19.4989,26.55359 35.0133,57.13225 46.8516,90.27344 l -458.2637,2.29492 c 11.5694,-33.04009 26.7258,-63.56872 45.8027,-90.18945 22.6789,-31.64709 51.0751,-58.21704 82.17,-76.30274 30.8696,-17.95464 65.8796,-28.09304 98.664,-28.5293 z m 260.2324,392.5839894 c -2.9576,82.0036716 -23.372,160.3737006 -63.8808,221.0918006 -24.1912,36.2598 -55.835,66.75372 -90.961,86.91211 -34.8465,19.99806 -75.0121,30.47776 -112.121,29.13476 -35.8527,-1.29753 -73.7999,-13.76014 -106.4532,-34.8457 -32.8997,-21.24466 -62.1165,-51.93627 -84.3183,-87.82227 -36.6035,-59.16416 -54.7996,-133.723254 -57.4141,-211.8867162 l 515.1484,-2.5839844 z M 3722.4648,4.1503906 c 1.839,55.3370264 9.5744,111.4648894 25.1192,166.2265594 4.9267,40.80647 -11.5669,88.95705 -40.707,117.44922 -30.2059,29.53421 -81.2485,45.07892 -122.7891,37.39453 -33.9404,-6.27845 -67.939,-28.11626 -87.3516,-55.97851 -19.3316,-27.74612 -27.7203,-66.8755 -21.4648,-99.54297 5.4956,-28.69932 22.646,-59.3696 47.4199,-83.720704 25.2109,-24.780634 59.3547,-44.991306 97.9141,-58.919922 31.2034,-11.271479 65.4172,-18.3247263 101.8593,-22.9082034 z"
         id="path4498-7-1-0-8"
         inkscape:connector-curvature="0" />
    </g>
  </g>
</svg>
