<?xml version="1.0" encoding="UTF-8" standalone="no"?>
<!-- Created with Inkscape (http://www.inkscape.org/) -->

<svg
   xmlns:dc="http://purl.org/dc/elements/1.1/"
   xmlns:cc="http://creativecommons.org/ns#"
   xmlns:rdf="http://www.w3.org/1999/02/22-rdf-syntax-ns#"
   xmlns:svg="http://www.w3.org/2000/svg"
   xmlns="http://www.w3.org/2000/svg"
   xmlns:sodipodi="http://sodipodi.sourceforge.net/DTD/sodipodi-0.dtd"
   xmlns:inkscape="http://www.inkscape.org/namespaces/inkscape"
   width="2000"
   height="2048"
   id="svg2992"
   version="1.1"
   inkscape:version="0.91pre2 r13516"
   sodipodi:docname="ക്കൂ.svg">
  <defs
     id="defs5498">
    <inkscape:path-effect
       effect="spiro"
       id="path-effect3846"
       is_visible="true" />
    <inkscape:path-effect
       effect="spiro"
       id="path-effect3801"
       is_visible="true" />
  </defs>
  <sodipodi:namedview
     inkscape:window-height="853"
     inkscape:window-width="1600"
     inkscape:pageshadow="2"
     inkscape:pageopacity="0.0"
     borderopacity="1.0"
     bordercolor="#666666"
     pagecolor="#ffffff"
     id="base"
     showgrid="true"
     showguides="true"
     inkscape:guide-bbox="true"
     inkscape:zoom="0.227"
     inkscape:cx="486.25955"
     inkscape:cy="925.33824"
     inkscape:window-x="1598"
     inkscape:window-y="-3"
     inkscape:current-layer="layer1"
     inkscape:window-maximized="1">
    <sodipodi:guide
       orientation="horizontal"
       position="0,600"
       id="guide5596" />
    <inkscape:grid
       type="xygrid"
       id="grid3769"
       empspacing="3"
       visible="true"
       enabled="true"
       snapvisiblegridlinesonly="true"
       spacingx="4px"
       units="px"
       dotted="true"
       spacingy="4px" />
    <sodipodi:guide
       orientation="0,1"
       position="-1040,1600"
       id="guide2985" />
  </sodipodi:namedview>
  <metadata
     id="metadata5594">
    <rdf:RDF>
      <cc:Work
         rdf:about="">
        <dc:format>image/svg+xml</dc:format>
        <dc:type
           rdf:resource="http://purl.org/dc/dcmitype/StillImage" />
        <dc:title />
      </cc:Work>
    </rdf:RDF>
  </metadata>
  <g
     inkscape:label="Layer 1"
     inkscape:groupmode="layer"
     id="layer1"
     transform="translate(0,1048)">
    <path
       style="fill:none;fill-rule:evenodd;stroke:#000000;stroke-width:130;stroke-linecap:round;stroke-linejoin:round;stroke-miterlimit:4;stroke-dasharray:none;stroke-opacity:1"
       d="m -1871.5066,-138.78414 c 32.495,-673.22667 543.7547,-463.55311 537.9103,46.725119 -9.9103,865.274881 -585.9103,289.274881 -506.7602,196.389891 16.8499,476.88499 -701.3972,259.28639 -233.5599,-130.578088 832.6895,-693.907912 1591.8246,-33.24638 1127.2529,329.931758 -283.4439,166.25002 -280.8288,-152.82635 -164.4429,-444.41736 353.49,-770.38618 1207.599802,-238.05132 564.3257,110.457234 595.274102,227.491446 325.5946,613.607976 -441.855,650.736496 -503.0007,24.66743 -1092.7498,340.36112 -3.3582,286.66332 l 730.3935,-36.00222"
       id="path7161"
       inkscape:connector-curvature="0"
       sodipodi:nodetypes="cscsccccsc" />
    <path
       style="color:#000000;font-style:normal;font-variant:normal;font-weight:normal;font-stretch:normal;font-size:medium;line-height:normal;font-family:sans-serif;text-indent:0;text-align:start;text-decoration:none;text-decoration-line:none;text-decoration-style:solid;text-decoration-color:#000000;letter-spacing:normal;word-spacing:normal;text-transform:none;direction:ltr;block-progression:tb;writing-mode:lr-tb;baseline-shift:baseline;text-anchor:start;clip-rule:nonzero;display:inline;overflow:visible;visibility:visible;opacity:1;isolation:auto;mix-blend-mode:normal;color-interpolation:sRGB;color-interpolation-filters:linearRGB;solid-color:#000000;solid-opacity:1;fill:#000000;fill-opacity:1;fill-rule:evenodd;stroke:none;stroke-width:130;stroke-linecap:round;stroke-linejoin:round;stroke-miterlimit:4;stroke-dasharray:none;stroke-dashoffset:0;stroke-opacity:1;color-rendering:auto;image-rendering:auto;shape-rendering:auto;text-rendering:auto;enable-background:accumulate"
       d="m 783.36328,-625.52344 c -73.4917,-0.85213 -148.31801,34.01004 -201.01562,101.42188 -56.23076,71.93151 -92.91744,176.07539 -107.25,317.61914 -60.98153,37.95968 -122.5023,82.12496 -184.14063,133.490232 C 165.4295,31.614105 107.25357,133.91979 109.07422,230.11133 c 1.82065,96.19153 69.88296,169.31812 148.82422,198.19531 78.94126,28.87719 173.70829,21.98837 250.46094,-32.01953 30.88597,-21.73328 57.45225,-51.31502 77.99414,-87.58203 47.1368,50.53148 107.85344,96.58818 178.25195,121.26953 84.3106,29.55886 193.72415,17.15888 264.10743,-68.91211 70.3833,-86.07099 106.6108,-225.57603 109.1719,-449.1875 0.6974,-60.89372 -5.1039,-118.59152 -16.4356,-172.02734 53.8425,4.11384 103.6256,14.1094 148.5137,28.71093 -11.6688,21.2664 -22.9451,43.43464 -33.6621,66.79102 a 65.0065,65.0065 0 0 0 -1.291,3.01172 c -61.1568,153.221027 -96.7581,309.63415 -70.9336,431.47265 12.9122,60.91926 50.8867,122.06203 115.8047,141.11133 64.9179,19.0493 134.1761,-1.87282 212.8261,-48.0039 a 65.0065,65.0065 0 0 0 7.1465,-4.85743 c 130.4434,-101.9739 184.1466,-239.04593 160.8438,-365.351558 -20.434,-110.755902 -94.2836,-208.412532 -200.9922,-277.433592 157.6576,-197.14957 350.9226,-209.59674 464.7929,-157.99414 70.5234,31.95904 106.3717,83.11134 103.2227,139.35351 -3.149,56.24217 -49.5529,138.1477 -198.9805,219.103519 a 65.0065,65.0065 0 0 0 7.7598,117.86914 c 141.5624,54.099827 224.9407,117.130551 259.3496,168.087891 34.4089,50.95734 32.8203,83.85906 0.3535,131.16992 -64.9336,94.62173 -308.2669,207.78141 -681.4961,225.83789 a 65.0065,65.0065 0 0 0 -0.041,0.002 c -131.9043,6.46865 -267.111,31.61664 -381.1699,65.33789 -114.05888,33.72124 -204.30411,69.3314 -260.78907,126.69726 -14.12124,14.34147 -27.17423,31.2547 -34.11133,54.97461 -6.9371,23.71991 -3.58827,55.03189 9.8711,77.44141 26.91873,44.81904 68.44906,58.56752 120.51562,71.53711 104.13312,25.93917 273.52118,34.08201 548.70898,20.51758 l 730.3926,-36.00196 a 65.0065,65.0065 0 1 0 -6.4004,-129.8418 l -730.3926,36.00196 c -269.5079,13.28446 -434.92515,2.10143 -510.8867,-16.82031 -4.30991,-1.07359 -8.15074,-2.2305 -11.75196,-3.40039 35.32573,-21.58257 102.42102,-53.00046 181.70116,-76.43946 103.9322,-30.72732 231.0531,-54.28964 350.6367,-60.1582 l 0.043,-0.002 c 394.1973,-19.07715 669.4135,-117.53951 782.3594,-282.125 56.475,-82.29577 58.6576,-190.89677 0.1933,-277.47852 -42.9688,-63.63407 -111.7947,-118.579308 -207.166,-166.927734 102.6057,-78.747916 156.0388,-167.763386 161.0977,-258.115236 6.5796,-117.51408 -72.5783,-216.64128 -179.3594,-265.03125 -177.6734,-80.51622 -443.4156,-35.1134 -635.6406,217.51172 -78.1292,-29.8052 -167.1154,-47.09772 -263.9043,-48.32422 -54.3541,-119.50658 -141.85037,-202.0926 -244.87307,-227.26953 -16.52899,-4.03939 -33.41732,-6.13929 -50.37695,-6.33594 z m -11.45703,128.63282 c 9.96649,-0.0953 20.22475,1.35972 30.97266,3.98632 40.67279,9.93972 89.32459,48.54238 129.03711,111.125 -99.4465,14.71523 -204.62414,45.84726 -312.87696,96.69141 16.30105,-74.42593 40.4475,-126.60924 65.72852,-158.94922 29.96939,-38.33744 57.23919,-52.56748 87.13867,-52.85351 z m 214.38867,238.87109 c 14.05028,49.54785 22.31338,105.91674 21.59768,168.40625 -2.3941,209.02599 -41.8839,321.9979 -79.81448,368.38281 -37.93057,46.38492 -69.42846,46.41975 -120.46289,28.52735 -51.03443,-17.89241 -110.10172,-65.11359 -146.42187,-110.3125 -13.92139,-17.32459 -24.43437,-34.3804 -30.66797,-47.16407 0.83985,-14.44153 1.10394,-29.27179 0.5625,-44.5957 A 65.0065,65.0065 0 0 0 516.6543,65.361328 c -28.49007,33.433938 -26.4228,71.543512 -17.81446,102.666012 -8.14017,64.77885 -34.85214,100.52137 -65.29296,121.94141 -38.55974,27.13301 -90.95367,30.8949 -130.98829,16.25 -40.03461,-14.6449 -62.76293,-39.21342 -63.50781,-78.56836 -0.74488,-39.35494 26.73779,-110.44749 135.12891,-200.773437 45.81469,-38.178911 91.18125,-71.777177 135.96875,-101.542969 a 65.0065,65.0065 0 0 0 89.54883,-54.832034 c 138.2201,-77.12801 269.05496,-116.40198 386.59765,-128.52148 z m 401.44918,81.64844 c 82.7751,53.22399 132.4284,123.945374 145.1114,192.689449 14.225,77.102488 -10.7575,157.790441 -109.6114,236.509761 -60.7104,34.81535 -96.3062,36.4444 -106.7597,33.37696 -10.6733,-3.13192 -17.9182,-8.81066 -25.2344,-43.32813 -14.5759,-68.76831 9.1043,-216.799421 63.8789,-354.71484 10.5042,-22.8023 21.3966,-44.2846 32.6152,-64.5332 z"
       id="path7161-9"
       inkscape:connector-curvature="0" />
  </g>
</svg>
