<?xml version="1.0" encoding="UTF-8" standalone="no"?>
<!-- Created with Inkscape (http://www.inkscape.org/) -->

<svg
   xmlns:dc="http://purl.org/dc/elements/1.1/"
   xmlns:cc="http://creativecommons.org/ns#"
   xmlns:rdf="http://www.w3.org/1999/02/22-rdf-syntax-ns#"
   xmlns:svg="http://www.w3.org/2000/svg"
   xmlns="http://www.w3.org/2000/svg"
   xmlns:sodipodi="http://sodipodi.sourceforge.net/DTD/sodipodi-0.dtd"
   xmlns:inkscape="http://www.inkscape.org/namespaces/inkscape"
   width="2000"
   height="2048"
   id="svg2992"
   version="1.1"
   inkscape:version="0.91pre3 r13670"
   sodipodi:docname="കു.svg">
  <defs
     id="defs5498">
    <inkscape:path-effect
       effect="spiro"
       id="path-effect4183"
       is_visible="true" />
    <inkscape:path-effect
       effect="spiro"
       id="path-effect3846"
       is_visible="true" />
    <inkscape:path-effect
       effect="spiro"
       id="path-effect3801"
       is_visible="true" />
    <inkscape:path-effect
       is_visible="true"
       id="path-effect3846-9"
       effect="spiro" />
    <inkscape:path-effect
       is_visible="true"
       id="path-effect3801-9"
       effect="spiro" />
    <inkscape:path-effect
       is_visible="true"
       id="path-effect4500"
       effect="spiro" />
    <inkscape:path-effect
       is_visible="true"
       id="path-effect4500-8"
       effect="spiro" />
    <inkscape:path-effect
       is_visible="true"
       id="path-effect4500-0"
       effect="spiro" />
    <inkscape:path-effect
       is_visible="true"
       id="path-effect4500-0-5"
       effect="spiro" />
    <inkscape:path-effect
       is_visible="true"
       id="path-effect4500-0-5-7"
       effect="spiro" />
    <inkscape:path-effect
       is_visible="true"
       id="path-effect4500-0-5-1"
       effect="spiro" />
    <inkscape:path-effect
       is_visible="true"
       id="path-effect4500-0-5-18"
       effect="spiro" />
    <inkscape:path-effect
       is_visible="true"
       id="path-effect4500-0-5-18-1"
       effect="spiro" />
  </defs>
  <sodipodi:namedview
     inkscape:window-height="851"
     inkscape:window-width="1600"
     inkscape:pageshadow="2"
     inkscape:pageopacity="0.0"
     borderopacity="1.0"
     bordercolor="#666666"
     pagecolor="#ffffff"
     id="base"
     showgrid="true"
     showguides="true"
     inkscape:guide-bbox="true"
     inkscape:zoom="0.32102648"
     inkscape:cx="1094.2764"
     inkscape:cy="517.85264"
     inkscape:window-x="-1"
     inkscape:window-y="-1"
     inkscape:current-layer="layer1-2"
     inkscape:window-maximized="1">
    <sodipodi:guide
       orientation="horizontal"
       position="0,600"
       id="guide5596" />
    <inkscape:grid
       type="xygrid"
       id="grid3769"
       empspacing="3"
       visible="true"
       enabled="true"
       snapvisiblegridlinesonly="true"
       spacingx="4px"
       units="px"
       dotted="true"
       spacingy="4px" />
    <sodipodi:guide
       orientation="0,1"
       position="-1040,1600"
       id="guide2985" />
  </sodipodi:namedview>
  <metadata
     id="metadata5594">
    <rdf:RDF>
      <cc:Work
         rdf:about="">
        <dc:format>image/svg+xml</dc:format>
        <dc:type
           rdf:resource="http://purl.org/dc/dcmitype/StillImage" />
        <dc:title />
      </cc:Work>
    </rdf:RDF>
  </metadata>
  <g
     inkscape:label="Layer 1"
     inkscape:groupmode="layer"
     id="layer1"
     transform="translate(0,1048)">
    <g
       id="layer1-2"
       inkscape:label="Layer 1"
       transform="translate(-900.90145,-124.23254)"
       style="display:inline">
      <path
         style="color:#000000;font-style:normal;font-variant:normal;font-weight:normal;font-stretch:normal;font-size:medium;line-height:normal;font-family:sans-serif;text-indent:0;text-align:start;text-decoration:none;text-decoration-line:none;text-decoration-style:solid;text-decoration-color:#000000;letter-spacing:normal;word-spacing:normal;text-transform:none;direction:ltr;block-progression:tb;writing-mode:lr-tb;baseline-shift:baseline;text-anchor:start;clip-rule:nonzero;display:inline;overflow:visible;visibility:visible;opacity:1;isolation:auto;mix-blend-mode:normal;color-interpolation:sRGB;color-interpolation-filters:linearRGB;solid-color:#000000;solid-opacity:1;fill:#000000;fill-opacity:1;fill-rule:evenodd;stroke:none;stroke-width:140;stroke-linecap:round;stroke-linejoin:round;stroke-miterlimit:4;stroke-dasharray:none;stroke-dashoffset:0;stroke-opacity:1;color-rendering:auto;image-rendering:auto;shape-rendering:auto;text-rendering:auto;enable-background:accumulate"
         d="m 1859.543,-488.78906 c -60.4465,1.51132 -120.5071,17.19786 -173.916,45.54492 -52.0169,27.60825 -97.4484,66.96125 -134.3399,112.86328 -48.3825,60.19971 -82.3059,131.94009 -98.1348,207.5332 -70.409,0.21503 -140.7632,12.79965 -206.8808,37.005863 -59.3981,21.746154 -115.9336,53.276108 -161.0703,97.589844 -48.5203,47.635621 -83.0341,110.309183 -92.93362,177.580073 -11.17472,75.93608 9.99422,155.88997 56.38082,217.04102 45.7191,60.27115 115.1262,101.7592 189.6407,114.81445 92.4817,16.20317 191.7995,-12.26514 261.5351,-75.13281 22.4094,-20.20235 41.8438,-43.6991 57.4844,-69.5 29.7928,35.48621 65.5297,65.96979 105.2695,89.79492 56.2435,33.71959 120.7705,53.9862 186.3008,56.46094 68.0574,2.57018 136.5266,-14.12745 196.5645,-46.28125 58.5107,-31.33588 108.8786,-77.00788 148.4004,-130.33203 71.7655,-96.82849 107.4423,-219.78132 98.6523,-339.9843756 53.0704,0.022933 106.1403,1.0739772 159.1699,3.1523437 25.9989,1.0189639 52.5801,2.4102939 76.6649,12.2543409 12.0424,4.922024 23.3227,11.974653 32.2946,21.395436 8.9719,9.420782 15.5588,21.284531 17.8146,34.096902 1.8629,10.580786 0.7393,21.626994 -2.8908,31.738683 -3.63,10.11169 -9.73,19.28542 -17.4089,26.79923 -15.3579,15.02763 -36.6994,23.09144 -58.1287,24.66658 -16.3032,1.19835 -32.7343,-1.12193 -49.0117,0.38672 -17.8048,1.65022 -35.4881,8.16966 -48.6232,20.30243 -6.5676,6.06639 -11.9291,13.47934 -15.3545,21.73769 -3.4255,8.25834 -4.8862,17.36281 -3.9153,26.25051 1.6263,14.88792 10.0872,28.58165 21.6689,38.07688 11.5817,9.49523 26.0742,15.0131 40.8589,17.40202 17.785,2.87371 35.9472,1.41089 53.955,1.94336 17.8026,0.5264 35.9864,3.15901 51.6326,11.66813 7.8231,4.25456 14.9122,9.96608 20.3155,17.04464 5.4034,7.07856 9.0782,15.55129 10.0291,24.40555 0.8653,8.05718 -0.5377,16.30597 -3.7254,23.75614 -3.1878,7.45017 -8.1305,14.10533 -14.128,19.55485 -11.9949,10.89905 -27.9244,16.79089 -44.0012,18.84104 -32.1537,4.10032 -64.1937,-6.20136 -96.4253,-9.63558 -18.0875,-1.92719 -36.8682,-1.59581 -53.8031,5.04346 -8.4674,3.31963 -16.3714,8.21507 -22.7465,14.70163 -6.3751,6.48655 -11.1826,14.59541 -13.3086,23.43835 -1.7982,7.47935 -1.6599,15.37698 0.076,22.87113 1.7354,7.49416 5.0442,14.58786 9.397,20.93038 8.7055,12.68505 21.3936,22.19753 34.9657,29.44278 35.5932,19.00085 77.106,23.2867 117.4437,24.16936 43.723,0.95673 88.5924,-1.90815 128.7306,-19.27288 28.7384,-12.4329 54.3411,-32.23117 73.0962,-57.30549 18.755,-25.07433 30.5517,-55.40258 33.0361,-86.61638 2.3246,-29.20598 -3.5269,-59.01965 -16.7183,-85.18031 -13.1914,-26.16066 -33.684,-48.59165 -58.5492,-64.08732 24.1138,-17.66262 43.3421,-41.92599 55.028,-69.43748 11.6859,-27.51149 15.7975,-58.195912 11.7667,-87.813392 -7.0794,-52.017009 -38.9182,-98.59243 -80.2029,-131.018659 -24.6729,-19.378831 -52.9791,-34.151069 -83.0832,-42.984779 -30.1041,-8.83372 -61.6565,-11.28903 -92.9891,-12.88827 l -191.9804,-9.79883 c -16.5076,-73.32555 -50.6019,-142.62903 -98.6153,-200.45507 -38.1414,-45.93651 -85.0776,-84.69972 -137.9843,-112.37305 -54.4403,-28.47548 -115.8822,-43.73648 -177.3008,-42.20117 -7e-4,2e-5 -0,3e-5 -0,5e-5 z m 1.8203,139.98828 c 38.7611,-0.50316 77.428,9.34415 111.9531,26.9707 35.9445,18.3512 67.3968,44.97797 93.0488,76.13477 28.3093,34.38436 49.7339,74.41391 62.6426,117.04101 l -529.7031,3.05078 c 12.5743,-42.68013 33.5874,-82.85616 61.4707,-117.52929 24.9682,-31.04814 55.587,-57.79087 90.7226,-76.57617 33.729,-18.03327 71.6213,-28.59536 109.8653,-29.0918 z m 291.1972,359.767577 c 7.7149,89.268823 -18.3975,181.053353 -71.9472,252.892583 -27.035,36.26861 -61.0689,67.70709 -100.9395,89.07617 -38.4054,20.58378 -82.137,31.55596 -125.6816,29.96484 -41.9626,-1.53331 -83.2563,-14.69944 -119.1621,-36.4707 -37.2989,-22.61599 -68.7169,-54.26403 -93.5274,-90.14063 -48.3991,-69.98638 -71.7222,-156.940835 -64.8437,-241.753904 2.5006,-0.02747 5.0012,-0.04348 7.5019,-0.05664 l 525.6563,-2.765625 c 14.317,-0.07533 28.6351,-0.237385 42.9433,-0.746094 z m -716.1601,8.039062 25.8926,182.960941 c 0.024,0.46606 0.046,0.93221 0.066,1.39843 2.2354,51.43412 -18.1459,103.92215 -56.1817,138.61719 -38.1486,34.79792 -92.9042,50.26989 -143.7539,41.29688 -40.1003,-7.07615 -77.6413,-29.09115 -102.248,-61.53516 -23.9344,-31.55752 -35.1237,-72.73392 -29.416,-111.92773 5.4686,-37.5521 25.8296,-71.953 52.9043,-98.54297 30.3919,-29.847799 68.8647,-50.427212 108.8964,-64.988284 46.0614,-16.754326 94.8426,-26.005689 143.8399,-27.279297 l 4e-4,0 z"
         id="path4498-7-1-0"
         inkscape:connector-curvature="0"
         sodipodi:nodetypes="csscsssssscsssscaaccscaacscssccacscssccsssccssscssssscssccccsssssscc"
         inkscape:path-effect="#path-effect4183"
         inkscape:original-d="m 1859.543,-488.78906 c -61.4739,0.79931 -121.0348,17.34801 -173.916,45.54492 -52.7727,28.13904 -98.0438,67.31476 -134.3399,112.86328 -49.2255,61.77402 -80.7547,133.44011 -98.1348,207.5332 -67.764,3.62218 -137.6055,12.73534 -206.8808,37.005863 -57.7813,20.24362 -114.3749,51.392844 -161.0703,97.589844 -47.0884,46.585872 -82.5871,107.637563 -92.93362,177.580073 -11.44088,77.33919 9.73122,155.56125 56.38082,217.04102 46.5009,61.28364 114.866,101.72841 189.6407,114.81445 93.7876,16.41342 190.759,-11.44406 261.5351,-75.13281 22.6785,-20.40751 41.9351,-43.90159 57.4844,-69.5 29.8672,34.9122 65.1105,65.59829 105.2695,89.79492 55.7048,33.56341 119.7172,54.02833 186.3008,56.46094 69.1333,2.52577 136.9265,-14.5442 196.5645,-46.28125 59.4986,-31.66291 109.728,-77.14696 148.4004,-130.33203 72.6415,-99.90211 101.6236,-221.96134 98.6523,-339.9843756 38.2804,-0.7805409 107.8228,-10.2484931 159.1699,3.1523437 46.3606,12.0994179 119.0423,20.4611969 126.7741,67.7466789 6.1505,37.614343 14.4613,81.124533 -78.4284,83.204493 -16.3688,1.39469 -34.1545,-0.008 -49.0117,0.38672 -37.1794,1.11241 -66.9977,31.10536 -67.893,68.29063 -0.8953,37.18527 25.445,52.57849 62.5278,55.4789 19.3212,1.59882 36.7915,-3.46903 53.955,1.94336 31.0533,9.79245 86.1106,20.821 81.9772,53.11832 -7.0567,55.13855 -48.6656,88.70211 -158.2799,52.51645 -36.7543,-13.18438 -77.1901,6.24803 -89.8582,43.18344 -12.6681,36.93541 7.329,61.09502 44.4383,73.24429 31.6318,10.84926 73.897,20.98649 117.4437,24.16936 44.978,3.28748 91.3231,-0.84405 128.7306,-19.27288 53.4709,-26.34245 97.0219,-67.56972 106.1323,-143.92187 7.4929,-70.47852 -31.2857,-108.72873 -75.2675,-149.26763 25.0558,-25.50238 70.9947,-100.4563 66.7947,-157.250872 -3.7764,-51.066454 -20.7555,-85.516455 -80.2029,-131.018659 -55.0796,-41.473089 -118.5416,-52.936639 -176.0723,-55.873049 l -191.9804,-9.79883 c -18.2308,-71.82385 -50.0529,-140.9513 -98.6153,-200.45507 -37.3692,-45.78881 -83.9259,-84.84632 -137.9843,-112.37305 -54.1714,-27.58427 -114.9696,-43.01163 -177.3008,-42.20117 z m 1.8203,139.98828 c 37.7716,-0.49112 76.9131,9.12819 111.9531,26.9707 35.153,17.90003 67.1196,44.3635 93.0488,76.13477 27.5152,33.71447 48.3187,73.76868 62.6426,117.04101 -174.7871,1.58019 -353.5483,2.12377 -529.7031,3.05078 13.9951,-43.34726 34.3879,-83.54268 61.4707,-117.52929 25.2411,-31.67536 56.3641,-58.25576 90.7226,-76.57617 34.2502,-18.26256 72.6038,-28.60731 109.8653,-29.0918 z m 291.1972,359.767577 c 1.9727,91.721403 -21.4325,183.420893 -71.9472,252.892583 -26.9958,37.12663 -61.8645,68.28192 -100.9395,89.07617 -38.9356,20.72009 -83.2269,31.51591 -125.6816,29.96484 -40.917,-1.49489 -82.7273,-14.51793 -119.1621,-36.4707 -36.5575,-22.02664 -68.7485,-53.43099 -93.5274,-90.14063 -45.6783,-67.67192 -66.4921,-154.50286 -64.8437,-241.753904 2.5124,-0.0146 4.9827,-0.04339 7.5019,-0.05664 l 525.6563,-2.765625 c 14.4599,-0.07607 28.7552,-0.365458 42.9433,-0.746094 z m -716.1601,8.039062 c -0.5611,61.290636 7.4547,123.456611 25.8926,182.960941 0.017,0.46635 0.039,0.93252 0.066,1.39843 3.4126,50.15712 -18.8114,104.98908 -56.1817,138.61719 -37.3702,33.6281 -94.2333,49.96328 -143.7539,41.29688 -39.8557,-6.975 -78.4055,-30.11294 -102.248,-61.53516 -23.6938,-31.22607 -35.005,-74.1472 -29.416,-111.92773 5.1524,-34.83033 24.7002,-70.63989 52.9043,-98.54297 28.5972,-28.29196 66.7217,-50.212419 108.8964,-64.988284 C 1336.8422,30.770999 1385.26,23.026054 1436.4,19.005859 Z" />
      <path
         sodipodi:nodetypes="aaaaacaassaacaasc"
         inkscape:connector-curvature="0"
         inkscape:original-d="m 1817.2887,939.34804 c 181.2574,-1.03892 356.2972,225.28046 361.2156,406.47416 5.3773,198.1022 -172.0893,468.6889 -370.2334,465.1749 -192.805,-3.4193 -351.5266,-272.4425 -343.9812,-465.1301 7.0222,-179.3266 173.5379,-405.49034 352.999,-406.51896 z m -328.2561,617.40936 c 0,0 -156.0648,265.9975 -281.8413,253.6183 -104.639,-10.2987 -213.55197,-150.4601 -188.8421,-252.6599 45.5186,-188.2642 244.8694,-253.6352 522.0781,-255.0936 l 525.6575,-2.7655 c 173.933,-0.915 474.2792,1.7025 500.5645,176.6829 9.2797,61.7742 -91.404,91.566 -150.5908,111.543 -17.1383,5.7845 -54.2594,0.7331 -54.2594,0.7331 0,0 38.5142,-4.6623 55.8768,2.1162 61.9316,24.1783 149.5442,63.0395 151.7027,129.4883 1.5499,47.7107 -40.6701,96.2749 -102.6601,99.8467 -86.3952,4.978 -157.3063,-3.8623 -157.3063,-3.8623"
         inkscape:path-effect="#path-effect4500-0-5-18-1"
         id="path4498-7-1-0-1"
         d="m 1817.2887,939.34804 c 50.0514,-0.65079 100.0212,11.87329 144.6269,34.58668 44.6057,22.71338 83.8668,55.47338 115.516,94.25348 63.2985,77.56 95.0839,177.7021 101.0727,277.634 6.6798,111.4625 -18.7728,227.0362 -84.4409,317.3479 -32.8341,45.1559 -75.3823,83.4755 -124.6691,109.7041 -49.2868,26.2286 -105.3294,40.1613 -161.1234,38.1229 -53.7502,-1.9637 -106.6619,-18.7078 -152.7317,-46.4659 -46.0699,-27.7581 -85.3285,-66.356 -115.4202,-110.9367 -60.1836,-89.1612 -82.589,-200.3679 -75.8293,-307.7275 6.2049,-98.5487 37.0393,-197.2571 98.5763,-274.481 30.7686,-38.6119 68.9667,-71.48987 112.5323,-94.7196 43.5657,-23.22974 92.5227,-36.67646 141.8904,-37.31836 z m -328.2561,617.40936 c 4.9379,72.5753 -25.1225,146.7445 -79.1957,195.4029 -54.0732,48.6585 -130.9915,70.7553 -202.6456,58.2154 -57.3152,-10.0305 -110.7727,-41.822 -145.9443,-88.1749 -35.1717,-46.3529 -51.4127,-106.9251 -42.8978,-164.485 7.7496,-52.3864 35.2722,-100.8175 72.9185,-138.062 37.6462,-37.2444 85.0055,-63.7786 134.9835,-81.2884 99.956,-35.0194 208.2645,-35.186 314.1761,-35.7432 l 525.6575,-2.7655 c 100.4817,-0.5286 201.2982,-11.8872 301.2949,-2.0127 49.9984,4.9373 100.71,17.9117 140.846,48.1327 20.068,15.1106 37.1381,34.5234 47.9546,57.1962 10.8166,22.6728 15.1573,48.6873 10.469,73.3667 -6.2531,32.9169 -28.2733,61.5831 -56.131,80.1994 -27.8577,18.6164 -61.1325,27.8916 -94.4598,31.3436 -18.016,1.8661 -36.1995,2.1118 -54.2594,0.7331 18.6451,-0.5235 37.3247,0.184 55.8768,2.1162 36.8221,3.8351 74.1729,12.9788 104.1516,34.7009 14.9894,10.861 27.8913,24.8064 36.5368,41.174 8.6454,16.3677 12.9108,35.2002 11.0143,53.6134 -2.5976,25.2199 -16.6488,48.4152 -35.6497,65.2009 -19.0008,16.7857 -42.6537,27.6072 -67.0104,34.6458 -51.1838,14.7911 -106.9101,13.4229 -157.3063,-3.8623"
         style="fill:none;fill-rule:evenodd;stroke:#000000;stroke-width:140;stroke-linecap:round;stroke-linejoin:round;stroke-miterlimit:4;stroke-dasharray:none;stroke-opacity:1" />
    </g>
  </g>
</svg>
