<?xml version="1.0" encoding="UTF-8" standalone="no"?>
<!-- Created with Inkscape (http://www.inkscape.org/) -->

<svg
   xmlns:dc="http://purl.org/dc/elements/1.1/"
   xmlns:cc="http://creativecommons.org/ns#"
   xmlns:rdf="http://www.w3.org/1999/02/22-rdf-syntax-ns#"
   xmlns:svg="http://www.w3.org/2000/svg"
   xmlns="http://www.w3.org/2000/svg"
   xmlns:sodipodi="http://sodipodi.sourceforge.net/DTD/sodipodi-0.dtd"
   xmlns:inkscape="http://www.inkscape.org/namespaces/inkscape"
   width="2000"
   height="2048"
   id="svg2992"
   version="1.1"
   inkscape:version="0.91 r13725"
   sodipodi:docname="കൃ.svg">
  <defs
     id="defs5498">
    <inkscape:path-effect
       effect="spiro"
       id="path-effect3846"
       is_visible="true" />
    <inkscape:path-effect
       effect="spiro"
       id="path-effect3801"
       is_visible="true" />
    <inkscape:path-effect
       effect="spiro"
       id="path-effect4500"
       is_visible="true" />
    <inkscape:path-effect
       effect="spiro"
       id="path-effect4500-8"
       is_visible="true" />
    <inkscape:path-effect
       effect="spiro"
       id="path-effect4500-0"
       is_visible="true" />
    <inkscape:path-effect
       effect="spiro"
       id="path-effect4500-0-5"
       is_visible="true" />
    <inkscape:path-effect
       effect="spiro"
       id="path-effect4500-0-5-5"
       is_visible="true" />
    <inkscape:path-effect
       is_visible="true"
       id="path-effect4500-0-5-18"
       effect="spiro" />
    <inkscape:path-effect
       is_visible="true"
       id="path-effect4500-0-5-18-3"
       effect="spiro" />
    <inkscape:path-effect
       is_visible="true"
       id="path-effect4500-0-5-18-3-5"
       effect="spiro" />
    <inkscape:path-effect
       is_visible="true"
       id="path-effect4500-0-5-18-3-0"
       effect="spiro" />
    <inkscape:path-effect
       is_visible="true"
       id="path-effect4500-0-5-18-3-9"
       effect="spiro" />
    <inkscape:path-effect
       is_visible="true"
       id="path-effect4500-0-5-18-3-9-8"
       effect="spiro" />
    <inkscape:path-effect
       effect="spiro"
       id="path-effect4187"
       is_visible="true" />
    <inkscape:path-effect
       effect="spiro"
       id="path-effect4183"
       is_visible="true" />
    <inkscape:path-effect
       effect="spiro"
       id="path-effect4183-0"
       is_visible="true" />
    <inkscape:path-effect
       is_visible="true"
       id="path-effect4500-0-5-18-3-2"
       effect="spiro" />
  </defs>
  <sodipodi:namedview
     inkscape:window-height="844"
     inkscape:window-width="1600"
     inkscape:pageshadow="2"
     inkscape:pageopacity="0.0"
     borderopacity="1.0"
     bordercolor="#666666"
     pagecolor="#ffffff"
     id="base"
     showgrid="true"
     showguides="true"
     inkscape:guide-bbox="true"
     inkscape:zoom="0.5"
     inkscape:cx="985.13337"
     inkscape:cy="-1220.2075"
     inkscape:window-x="1600"
     inkscape:window-y="0"
     inkscape:current-layer="layer1"
     inkscape:window-maximized="1">
    <sodipodi:guide
       orientation="horizontal"
       position="1872,600"
       id="guide5596" />
    <inkscape:grid
       type="xygrid"
       id="grid3769"
       empspacing="3"
       visible="true"
       enabled="true"
       snapvisiblegridlinesonly="true"
       spacingx="4px"
       units="px"
       dotted="true"
       spacingy="4px" />
    <sodipodi:guide
       orientation="0,1"
       position="-1040,1600"
       id="guide2985" />
  </sodipodi:namedview>
  <metadata
     id="metadata5594">
    <rdf:RDF>
      <cc:Work
         rdf:about="">
        <dc:format>image/svg+xml</dc:format>
        <dc:type
           rdf:resource="http://purl.org/dc/dcmitype/StillImage" />
        <dc:title />
      </cc:Work>
    </rdf:RDF>
  </metadata>
  <g
     inkscape:label="Layer 1"
     inkscape:groupmode="layer"
     id="layer1"
     transform="translate(0,1048)">
    <path
       sodipodi:nodetypes="aaaaacaassaaac"
       inkscape:connector-curvature="0"
       inkscape:original-d="m 959.08585,-558.78927 c 185.76975,-1.06477 365.16705,230.88867 370.20785,416.59302 5.5112,203.033791 -176.3733,480.35658 -379.45014,476.7551 -197.60472,-3.50442 -360.27768,-279.224745 -352.54434,-476.70922 7.19701,-183.79076 177.858,-415.5847 361.78663,-416.6389 z M 622.65807,73.990071 c 0,0 -159.95002,272.619289 -288.85764,259.931919 C 226.55652,323.36691 114.93221,179.7163 140.25724,74.97233 186.909,-117.97864 391.21883,-186.08106 675.33221,-186.47172 l 606.74339,-0.83429 c 178.2652,-0.24512 279.3398,31.88695 344.4146,136.900492 112.0518,180.822078 51.8508,450.815578 -52.8625,635.984048 -69.3378,122.61258 -213.4417,191.40314 -342.8479,247.04137 -82.4225,35.43759 -264.425,50.23 -264.425,50.23"
       inkscape:path-effect="#path-effect4500-0-5-18-3"
       id="path4498-7-1-0-8"
       d="m 959.08585,-558.78927 c 51.29735,-0.667 102.51115,12.16886 148.22725,35.44767 45.7162,23.27882 85.9546,56.85437 118.3918,96.59981 64.8742,79.49087 97.4509,182.12586 103.5888,284.54554 6.8461,114.237278 -19.2402,232.688136 -86.5431,325.24809 -33.6514,46.27997 -77.2588,85.55356 -127.7726,112.43508 -50.5137,26.88151 -107.9515,41.1611 -165.13444,39.07193 C 894.75523,332.54621 840.52644,315.38532 793.30968,286.93621 746.09292,258.4871 705.85707,218.92826 675.01618,173.23785 613.33439,81.857027 590.37127,-32.1181 597.29922,-142.15037 c 6.35938,-101.00194 37.96133,-202.16766 101.03033,-281.31396 31.53449,-39.57315 70.68353,-73.26955 115.33369,-97.07757 44.65016,-23.80802 94.82591,-37.58948 145.42261,-38.24737 z M 622.65807,73.990071 C 627.786,148.38861 596.99682,224.45251 541.56181,274.33635 486.12679,324.2202 407.24766,346.84261 333.80043,333.92199 275.0908,323.59397 220.36137,290.97516 184.34048,243.47795 148.31959,195.98074 131.65537,133.95959 140.25724,74.97233 c 7.83893,-53.755426 35.9229,-103.515727 74.44387,-141.820163 38.52096,-38.304437 87.05598,-65.629057 138.31286,-83.624277 102.51374,-35.99043 213.67039,-35.85022 322.31824,-35.99961 l 606.74339,-0.83429 c 64.3672,-0.0885 129.9172,2.60465 190.4103,24.59859 60.4931,21.99394 114.1039,61.79339 154.0043,112.301902 71.2099,90.142143 98.4382,210.829708 84.7948,324.892478 -13.6433,114.06277 -65.8359,221.43586 -137.6573,311.09157 -89.1442,111.28003 -209.1997,197.36154 -342.8479,247.04137 -84.4935,31.40798 -174.3001,48.46759 -264.425,50.23"
       style="fill:none;fill-rule:evenodd;stroke:#000000;stroke-width:140;stroke-linecap:round;stroke-linejoin:round;stroke-miterlimit:4;stroke-dasharray:none;stroke-opacity:1" />
    <path
       sodipodi:nodetypes="aaaaacaassaaaaaac"
       inkscape:connector-curvature="0"
       inkscape:original-d="m -2374.172,-570.90635 c 196.3455,-1.12566 385.9557,244.09178 391.2835,440.41543 5.8249,214.644054 -186.4141,507.82524 -401.0519,504.01782 -208.8542,-3.70482 -380.7879,-295.191914 -372.6144,-503.96932 7.6068,-194.30063 187.9833,-439.34945 382.3828,-440.46393 z m -355.5802,668.964127 c 0,0 -169.0559,288.208723 -305.3021,274.795843 -113.3492,-11.15866 -231.3281,-163.02378 -204.5614,-273.757414 49.3076,-203.984656 265.2486,-275.998406 565.5363,-276.394436 l 668.7648,-0.882 c 188.4137,-0.24849 318.592,126.958312 380.9327,269.476692 55.8262,127.625938 8.7542,290.169548 -54.3133,414.375138 -64.3062,126.64513 -182.8695,227.59668 -308.4242,293.96457 -151.4564,80.05948 -336.4473,149.73857 -502.5126,107.68369 -106.0601,-26.85902 -275.3818,-106.90698 -249.5518,-213.24636 27.635,-113.77054 227.1427,-103.3281 341.8843,-80.18063 124.7718,25.17091 308.9199,224.50886 308.9199,224.50886"
       inkscape:path-effect="#path-effect4500-0-5-18-3-9"
       id="path4498-7-1-0-8-2"
       d="m -2374.172,-570.90635 c 54.2252,-0.70514 108.3617,12.86795 156.684,37.48148 48.3223,24.61353 90.8516,60.11273 125.133,102.13248 68.5626,84.03949 102.9795,192.53608 109.4665,300.80147 7.2355,120.7586354 -20.3187,245.97263 -91.447,343.82849 -35.5641,48.92793 -81.654,90.45154 -135.0477,118.8745 -53.3936,28.42297 -114.1099,43.52318 -174.5572,41.31483 -58.2336,-2.12747 -115.558,-20.2732 -165.4668,-50.3529 -49.9088,-30.0797 -92.4351,-71.90447 -125.0288,-120.20903 -65.1873,-96.60912 -89.4414,-217.092769 -82.1188,-333.40739 6.7215,-106.76692 40.1084,-213.7104 106.763,-297.38548 33.3273,-41.83755 74.705,-77.46438 121.9005,-102.63729 47.1955,-25.17291 100.2347,-39.74565 153.7193,-40.44116 z m -355.5802,668.964127 c 5.4474,78.646133 -27.0833,159.065493 -85.6783,211.805573 -58.595,52.74009 -141.9828,76.65653 -219.6238,62.99027 -62.0596,-10.92364 -119.9074,-45.41427 -157.977,-95.62806 -38.0695,-50.2138 -55.6769,-115.77519 -46.5844,-178.129354 8.2854,-56.819345 37.9616,-109.418638 78.6709,-149.91363 40.7092,-40.494992 92.0045,-69.387766 146.1799,-88.417216 108.3506,-38.05891 225.8451,-37.91213 340.6855,-38.06359 l 668.7648,-0.882 c 42.8555,-0.0565 85.9961,0.44126 128.0443,8.72083 42.0481,8.27958 82.7394,24.33138 118.0073,48.67833 35.2679,24.34696 64.8139,56.661835 87.1205,93.254399 22.3065,36.5925628 37.4991,77.214241 47.7606,118.823133 34.122,138.359958 13.3395,288.952298 -54.3133,414.375138 -68.3936,126.79635 -181.5069,225.79564 -308.4242,293.96457 -153.0305,82.19469 -329.4193,122.27932 -502.5126,107.68369 -61.7418,-5.20622 -124.9749,-18.08705 -175.6085,-53.79974 -25.3168,-17.85635 -46.9764,-41.3378 -60.6993,-69.11319 -13.7229,-27.77539 -19.2093,-59.9327 -13.244,-90.33343 6.5104,-33.17825 26.4748,-63.05054 53.0487,-83.95527 26.5739,-20.90472 59.4129,-33.12765 92.9435,-37.47277 67.0612,-8.69022 134.3735,13.17276 195.8921,41.24741 116.5838,53.20424 222.3195,130.04806 308.9199,224.50886"
       style="fill:none;fill-rule:evenodd;stroke:#000000;stroke-width:70;stroke-linecap:round;stroke-linejoin:round;stroke-miterlimit:4;stroke-dasharray:none;stroke-opacity:1" />
    <path
       style="color:#000000;font-style:normal;font-variant:normal;font-weight:normal;font-stretch:normal;font-size:medium;line-height:normal;font-family:sans-serif;text-indent:0;text-align:start;text-decoration:none;text-decoration-line:none;text-decoration-style:solid;text-decoration-color:#000000;letter-spacing:normal;word-spacing:normal;text-transform:none;direction:ltr;block-progression:tb;writing-mode:lr-tb;baseline-shift:baseline;text-anchor:start;white-space:normal;clip-rule:nonzero;display:inline;overflow:visible;visibility:visible;opacity:1;isolation:auto;mix-blend-mode:normal;color-interpolation:sRGB;color-interpolation-filters:linearRGB;solid-color:#000000;solid-opacity:1;fill:#000000;fill-opacity:1;fill-rule:evenodd;stroke:none;stroke-width:70;stroke-linecap:round;stroke-linejoin:round;stroke-miterlimit:4;stroke-dasharray:none;stroke-dashoffset:0;stroke-opacity:1;color-rendering:auto;image-rendering:auto;shape-rendering:auto;text-rendering:auto;enable-background:accumulate"
       d="m -2470.627,1122.0957 c -59.5397,0.7742 -117.8824,16.8991 -169.7363,44.5566 -51.7996,27.6286 -96.7141,66.4065 -132.8047,111.7129 -55.3828,69.525 -88.8463,152.7611 -104.6504,238.5899 -81.5061,2.4862 -164.3907,10.6343 -244.5449,38.789 -58.1091,20.4112 -114.0358,51.6332 -159.2656,96.625 -45.4233,45.1842 -79.0589,104.1022 -88.6211,169.6778 -10.5289,72.2046 9.5366,146.5631 53.3281,204.3242 43.7205,57.6673 109.0105,96.4928 179.8008,108.9531 88.7208,15.6166 182.1487,-11.1809 249.1055,-71.4472 37.5205,-33.7715 65.4463,-76.9165 81.666,-124.1348 2.2918,3.6041 4.5045,7.2481 6.9004,10.7988 35.2494,52.2405 81.3091,97.6628 135.9746,130.6094 54.7269,32.9835 117.6035,52.9915 182.2558,55.3535 67.1191,2.452 133.7114,-14.2182 192.2813,-45.3965 58.5001,-31.1413 108.4315,-76.2483 146.9141,-129.1914 76.9495,-105.8645 105.7114,-239.0039 98.0722,-366.5 -0.1911,-3.1899 -0.4914,-6.3828 -0.7285,-9.5742 22.2804,1.0073 43.9399,2.962 64.6465,7.0391 37.8343,7.4498 74.0581,21.8582 104.8867,43.1406 30.8733,21.3131 57.1954,49.9861 77.1192,82.6699 19.9907,32.7936 34.0575,70.0333 43.664,108.9863 31.9172,129.4198 12.3807,271.6228 -51.1367,389.3789 -64.3526,119.3048 -172.0697,214.1593 -294.1797,279.7461 -22.9106,12.3056 -46.422,23.5036 -70.3242,33.7989 -87.609,-92.3707 -192.9289,-167.6865 -308.7637,-220.5489 -64.0476,-29.2288 -137.4812,-54.1524 -214.9219,-44.1172 -38.9382,5.0459 -77.7099,19.2049 -110.0859,44.6739 -32.6132,25.6557 -57.4047,62.1745 -65.7539,104.7246 -7.644,38.9559 -0.623,78.5039 16.2109,112.5762 16.7314,33.8645 42.461,61.444 71.9043,82.2109 58.6102,41.3387 128.2773,54.63 192.8418,60.0742 180.4235,15.2137 363.2853,-26.4695 522.0137,-111.7246 131.7247,-70.751 250.2334,-173.8955 322.668,-308.1836 71.7882,-133.0895 93.817,-292.0711 57.4902,-439.3711 -10.9165,-44.2647 -27.2351,-88.2687 -51.8574,-128.6601 -24.6894,-40.5015 -57.4586,-76.4592 -97.1211,-103.8399 -39.7072,-27.4116 -84.867,-45.1075 -131.1289,-54.2168 -29.5545,-5.8194 -58.7085,-7.8936 -87.2266,-8.7344 -16.1154,-86.9447 -50.5887,-171.1223 -107.5019,-240.8828 -37.1408,-45.5247 -83.316,-84.1721 -136.3653,-111.1933 -53.1058,-27.0501 -112.6582,-42.078 -173.0254,-41.293 z m 0.9102,69.9941 c 48.0833,-0.6252 96.805,11.495 140.3438,33.6719 43.5953,22.2058 82.4766,54.5555 113.8984,93.0703 45.3502,55.5874 74.901,123.8885 90.1914,196.0196 l -644.8418,0.8496 c -11.9356,0.016 -23.9834,0.037 -36.0527,0.08 15.0213,-71.1051 43.7118,-138.5045 87.7617,-193.8027 30.5641,-38.3688 68.4047,-70.8453 110.9961,-93.5625 42.5371,-22.6882 90.2736,-35.7094 137.7031,-36.3262 z m 354.7656,392.7481 c 0.4186,4.9187 0.8299,9.8384 1.125,14.7637 6.8318,114.0211 -19.5132,231.3109 -84.8203,321.1582 -32.6456,44.9127 -74.8963,82.8519 -123.1836,108.5566 -48.2175,25.6675 -103.0564,39.1989 -156.832,37.2344 -51.8149,-1.893 -103.587,-18.1777 -148.6777,-45.3535 -45.1521,-27.2129 -84.1462,-65.4401 -114.084,-109.8086 -59.8923,-88.7616 -83.122,-201.6675 -76.1992,-311.6328 0.2912,-4.6266 0.6937,-9.2467 1.0918,-13.8672 15.4575,-0.119 30.9573,-0.167 46.498,-0.1875 l 655.082,-0.8633 z m -771.914,2.6309 c -0.1962,2.6299 -0.4556,5.2617 -0.6211,7.8906 -4.7995,76.2376 3.1739,154.553 26.7988,227.998 a 35.0035,35.0035 0 0 0 0.019,5.1192 c 4.6701,67.4228 -23.9446,138.1593 -74.1777,183.373 -50.2332,45.2138 -123.5794,66.2493 -190.1406,54.5332 -53.3289,-9.3868 -103.7356,-39.5424 -136.1543,-82.3027 -32.3475,-42.6663 -47.4979,-99.4298 -39.8418,-151.9336 7.0085,-48.0631 32.7254,-94.3446 68.7207,-130.1504 36.1885,-35.9981 82.8542,-62.5614 133.0957,-80.209 66.3757,-23.3149 138.2174,-31.3997 212.3008,-34.3183 z m 223.625,746.3222 c 50.4913,-0.9536 103.7943,16.3879 155.4101,39.9434 98.7234,45.0534 189.4701,107.8046 266.6406,184.1386 -109.9086,36.7263 -226.6943,52.2512 -341.5019,42.5704 -58.9185,-4.9682 -115.7181,-17.4394 -158.375,-47.5254 l -0,0 c -21.1897,-14.9458 -38.7779,-34.3278 -49.4921,-56.0137 -10.6119,-21.4785 -14.564,-46.2463 -10.2774,-68.0918 4.6714,-23.8066 19.8072,-47.0316 40.3418,-63.1855 20.7718,-16.3405 47.6797,-26.6272 75.8027,-30.2715 7.0853,-0.9182 14.2401,-1.4283 21.4532,-1.5645 z"
       id="path4498-7-1-0-8-2-5"
       inkscape:connector-curvature="0" />
    <path
       style="fill:none;fill-rule:evenodd;stroke:#000000;stroke-width:140;stroke-linecap:round;stroke-linejoin:round;stroke-miterlimit:4;stroke-dasharray:none;stroke-opacity:1"
       d="m 674,738 c 3.85743,27.08362 16.94009,52.4687 35.269,72.77765 18.32891,20.30895 41.73341,35.68918 66.88747,46.44443 50.30812,21.5105 106.34471,24.63309 161.04823,25.69802 56.49134,1.09974 114.5188,0.0481 167.0791,-20.68585 26.2802,-10.36701 50.8461,-25.69845 70.1198,-46.35385 19.2736,-20.65539 33.0645,-46.79923 37.0662,-74.7654 4.4179,-30.87447 -3.3085,-62.93067 -19.2458,-89.74022 -15.9374,-26.80955 -39.7465,-48.50374 -66.7421,-64.12375 -53.9914,-31.24004 -118.5422,-38.10796 -180.9167,-38.75593 -62.79424,-0.65233 -127.96124,4.96998 -182.78606,35.5932 -27.41241,15.31161 -51.67294,36.86504 -67.96004,63.70933 C 677.532,674.64192 669.57265,706.91489 674,738 Z"
       id="path4181"
       inkscape:path-effect="#path-effect4183"
       inkscape:original-d="m 674,738 c 5.39044,100.0095 163.0586,143.6122 263.2047,144.9201 102.9098,1.344 274.2651,-45.8051 274.2651,-141.8051 C 1215.4493,600.0156 1054.2795,549.2704 944.5652,548.4951 834.4581,547.7171 668.07376,628.0497 674,738 Z"
       inkscape:connector-curvature="0"
       sodipodi:nodetypes="aacaa" />
    <path
       style="color:#000000;font-style:normal;font-variant:normal;font-weight:normal;font-stretch:normal;font-size:medium;line-height:normal;font-family:sans-serif;text-indent:0;text-align:start;text-decoration:none;text-decoration-line:none;text-decoration-style:solid;text-decoration-color:#000000;letter-spacing:normal;word-spacing:normal;text-transform:none;direction:ltr;block-progression:tb;writing-mode:lr-tb;baseline-shift:baseline;text-anchor:start;white-space:normal;clip-rule:nonzero;display:inline;overflow:visible;visibility:visible;opacity:1;isolation:auto;mix-blend-mode:normal;color-interpolation:sRGB;color-interpolation-filters:linearRGB;solid-color:#000000;solid-opacity:1;fill:#000000;fill-opacity:1;fill-rule:evenodd;stroke:none;stroke-width:140;stroke-linecap:round;stroke-linejoin:round;stroke-miterlimit:4;stroke-dasharray:none;stroke-dashoffset:0;stroke-opacity:1;color-rendering:auto;image-rendering:auto;shape-rendering:auto;text-rendering:auto;enable-background:accumulate"
       d="M 1006.1289 2155.1875 C 1004.1459 2155.1811 1002.16 2155.191 1000.1738 2155.2168 C 937.47158 2156.0324 876.6937 2172.9146 822.72852 2201.6895 C 768.8713 2230.4068 722.64799 2270.4024 685.58594 2316.9121 C 635.14022 2380.2173 602.86293 2453.7323 585.14062 2529.7441 C 515.23149 2533.2201 443.19248 2542.4253 371.82617 2567.4805 C 312.70348 2588.2372 254.90852 2620.2183 207.34375 2667.5156 C 159.39171 2715.1982 123.38392 2777.5964 112.99023 2848.8711 C 101.51461 2927.5652 123.09803 3007.1855 170.56641 3069.7773 C 217.89181 3132.1807 287.50399 3173.4641 363.67188 3186.8633 C 459.27313 3203.6811 558.22876 3175.3015 630.38477 3110.3711 C 654.09861 3089.0319 674.10724 3064.3512 690.16016 3037.457 C 720.97723 3073.8496 757.51035 3105.7855 799.18359 3130.8945 C 856.03533 3165.1489 921.36539 3186.0303 989.28711 3188.5117 C 1059.8095 3191.0883 1128.9984 3173.6713 1189.8633 3141.2812 C 1250.5887 3108.9653 1301.8755 3062.5277 1341.3652 3008.2188 C 1412.7181 2910.0887 1442.7615 2790.9522 1442.252 2674.6445 C 1459.2614 2677.6444 1475.4858 2681.5971 1490.5664 2687.0801 C 1538.0552 2704.3459 1581.4806 2736.375 1613.5625 2776.9863 C 1671.3135 2850.0914 1695.4288 2952.7977 1683.7812 3050.1738 C 1672.0231 3148.4769 1626.1132 3244.5278 1560.9961 3325.8145 C 1497.2777 3405.355 1415.6599 3471.1215 1324.4648 3517.5898 C 1326.732 3474.9516 1314.9857 3434.2437 1294.3945 3399.6055 C 1271.2852 3360.7313 1238.4104 3331.4177 1202.5391 3310.6621 C 1131.4631 3269.5368 1054.3033 3263.1942 987.29297 3262.498 C 919.81809 3261.7971 841.90216 3266.6141 769.64453 3306.9746 C 733.16691 3327.3497 699.63102 3356.4947 675.97266 3395.4883 C 652.02564 3434.9576 639.66685 3482.4958 646.69922 3531.8711 C 652.81104 3574.7831 672.63559 3612.1299 699.30273 3641.6777 C 725.71217 3670.9402 757.73387 3691.5174 790.63672 3705.5859 C 855.97041 3733.521 921.40601 3735.8077 977.8418 3736.9062 C 1018.6362 3737.7004 1064.0247 3738.0234 1110.9609 3728.9375 C 1174.4791 3720.249 1237.0165 3704.5947 1297.1699 3682.2344 C 1442.7388 3628.1234 1572.9552 3534.8105 1670.2598 3413.3438 C 1748.7854 3315.3189 1807.2607 3196.6233 1822.7891 3066.8008 C 1838.4284 2936.0513 1808.0868 2797.3825 1723.418 2690.2031 C 1675.6991 2629.7975 1611.9017 2582.2278 1538.4043 2555.5059 C 1500.5547 2541.7446 1462.7273 2534.5482 1425.9043 2530.7656 C 1407.9084 2452.7179 1374.4451 2377.3383 1321.9355 2312.998 C 1283.7784 2266.2437 1236.2429 2226.3714 1181.0742 2198.2793 C 1127.5199 2171.0091 1067.6213 2155.3857 1006.1289 2155.1875 z M 1005.6582 2295.1875 C 1043.534 2295.3261 1082.5282 2305.2045 1117.5488 2323.0371 C 1153.8123 2341.5026 1186.7556 2368.7809 1213.4727 2401.5176 C 1242.8278 2437.4865 1264.778 2480.4089 1279.5449 2526.7539 L 731.01172 2527.5078 C 745.42707 2482.0064 766.67993 2439.7926 795.07422 2404.1602 C 821.08116 2371.5237 853.15456 2344.1252 888.59766 2325.2266 C 923.93223 2306.3857 963.5056 2295.7056 1001.9961 2295.2051 C 1003.2154 2295.1892 1004.4364 2295.183 1005.6582 2295.1875 z M 1302.2109 2666.7227 C 1304.0328 2760.6844 1279.9774 2854.5867 1228.1348 2925.8848 C 1200.3215 2964.1355 1164.3957 2996.2441 1124.0938 3017.6914 C 1083.9309 3039.0645 1038.2421 3050.2073 994.39844 3048.6055 C 952.1435 3047.0617 909.01735 3033.6223 871.43555 3010.9785 C 833.7313 2988.2609 800.5632 2955.8937 775.03516 2918.0742 C 727.67387 2847.9091 706.28939 2757.8673 708.29688 2667.5625 C 711.35307 2667.5525 714.36202 2667.5313 717.42773 2667.5273 L 1302.2109 2666.7227 z M 568.24609 2671.5449 C 567.44077 2735.0354 575.62068 2799.482 594.74219 2861.1113 A 70.007 70.007 0 0 0 594.82422 2862.8027 C 598.40539 2914.7602 575.45236 2971.4654 536.73828 3006.3027 C 498.02425 3041.14 439.22093 3058.0038 387.92773 3048.9805 C 346.67637 3041.7237 306.83159 3017.7707 282.11523 2985.1797 C 257.54183 2952.7772 245.79729 2908.3547 251.52539 2869.0742 C 256.80955 2832.8381 276.96872 2795.7155 306.05859 2766.7891 C 335.53577 2737.4776 374.81013 2714.8098 418.20117 2699.5762 C 464.37575 2683.3653 514.91122 2675.4927 568.24609 2671.5449 z M 975.00977 3402.4629 C 978.59509 3402.4439 982.20579 3402.4545 985.83789 3402.4922 C 1043.5765 3403.092 1095.517 3410.4852 1132.4238 3431.8398 C 1150.5437 3442.3242 1165.2873 3456.3995 1174.0527 3471.1445 C 1182.5438 3485.4281 1186.0103 3502.379 1184.1758 3515.1992 C 1182.5019 3526.8974 1175.761 3540.8332 1165.2246 3552.125 C 1154.4047 3563.7206 1138.8131 3573.9308 1120.5957 3581.1172 C 1109.2161 3585.606 1096.7485 3588.9284 1083.3496 3591.3496 C 1058.0015 3594.5158 1032.498 3596.3644 1006.9863 3596.8633 A 70.007 70.007 0 0 0 1001.6973 3597.1543 C 994.76689 3597.1504 987.72417 3597.0729 980.56641 3596.9336 C 927.59515 3595.9024 880.95833 3591.9453 845.67578 3576.8594 C 828.27051 3569.4173 813.48275 3559.2344 803.23438 3547.8789 C 793.2437 3536.809 786.90382 3523.3841 785.30078 3512.1289 C 783.47845 3499.334 787.03883 3482.3267 795.66602 3468.1074 C 804.58185 3453.4124 819.56687 3439.4493 837.91406 3429.2012 C 872.96907 3409.6206 921.22986 3402.748 975.00977 3402.4629 z "
       id="path4498-7-1-0-8-6"
       transform="translate(0,-1048)" />
  </g>
</svg>
