<?xml version="1.0" encoding="UTF-8" standalone="no"?>
<!-- Created with Inkscape (http://www.inkscape.org/) -->

<svg
   xmlns:dc="http://purl.org/dc/elements/1.1/"
   xmlns:cc="http://creativecommons.org/ns#"
   xmlns:rdf="http://www.w3.org/1999/02/22-rdf-syntax-ns#"
   xmlns:svg="http://www.w3.org/2000/svg"
   xmlns="http://www.w3.org/2000/svg"
   xmlns:sodipodi="http://sodipodi.sourceforge.net/DTD/sodipodi-0.dtd"
   xmlns:inkscape="http://www.inkscape.org/namespaces/inkscape"
   width="2000"
   height="2048"
   id="svg2992"
   version="1.1"
   inkscape:version="0.91 r13725"
   sodipodi:docname="ക്ര.svg">
  <defs
     id="defs5498">
    <inkscape:path-effect
       effect="spiro"
       id="path-effect3846"
       is_visible="true" />
    <inkscape:path-effect
       effect="spiro"
       id="path-effect3801"
       is_visible="true" />
    <inkscape:path-effect
       is_visible="true"
       id="path-effect3846-9"
       effect="spiro" />
    <inkscape:path-effect
       is_visible="true"
       id="path-effect3801-9"
       effect="spiro" />
    <inkscape:path-effect
       is_visible="true"
       id="path-effect4500"
       effect="spiro" />
    <inkscape:path-effect
       is_visible="true"
       id="path-effect4500-8"
       effect="spiro" />
    <inkscape:path-effect
       is_visible="true"
       id="path-effect4500-0"
       effect="spiro" />
    <inkscape:path-effect
       is_visible="true"
       id="path-effect4500-0-5"
       effect="spiro" />
    <inkscape:path-effect
       is_visible="true"
       id="path-effect4500-0-5-7"
       effect="spiro" />
    <inkscape:path-effect
       is_visible="true"
       id="path-effect4500-0-5-1"
       effect="spiro" />
    <inkscape:path-effect
       is_visible="true"
       id="path-effect4500-0-5-18"
       effect="spiro" />
    <inkscape:path-effect
       effect="spiro"
       id="path-effect4372-52-4-6-8"
       is_visible="true" />
    <inkscape:path-effect
       effect="spiro"
       id="path-effect4372-52-4-6-8-4"
       is_visible="true" />
    <inkscape:path-effect
       effect="spiro"
       id="path-effect4372-52-4-6-8-7"
       is_visible="true" />
    <inkscape:path-effect
       is_visible="true"
       id="path-effect4500-0-5-18-9"
       effect="spiro" />
    <inkscape:path-effect
       is_visible="true"
       id="path-effect4500-0-5-18-2"
       effect="spiro" />
    <inkscape:path-effect
       is_visible="true"
       id="path-effect4500-0-5-18-3"
       effect="spiro" />
    <inkscape:path-effect
       is_visible="true"
       id="path-effect4500-0-5-18-6"
       effect="spiro" />
    <inkscape:path-effect
       is_visible="true"
       id="path-effect4500-0-5-18-5"
       effect="spiro" />
    <inkscape:path-effect
       is_visible="true"
       id="path-effect4500-0-5-18-68"
       effect="spiro" />
    <inkscape:path-effect
       is_visible="true"
       id="path-effect4500-0-5-18-54"
       effect="spiro" />
    <inkscape:path-effect
       is_visible="true"
       id="path-effect4500-0-5-18-54-7"
       effect="spiro" />
    <inkscape:path-effect
       is_visible="true"
       id="path-effect4500-0-5-18-23"
       effect="spiro" />
    <inkscape:path-effect
       is_visible="true"
       id="path-effect4500-0-5-18-0"
       effect="spiro" />
    <inkscape:path-effect
       is_visible="true"
       id="path-effect4500-0-5-18-8"
       effect="spiro" />
    <inkscape:path-effect
       is_visible="true"
       id="path-effect4500-0-5-18-09"
       effect="spiro" />
  </defs>
  <sodipodi:namedview
     inkscape:window-height="845"
     inkscape:window-width="1600"
     inkscape:pageshadow="2"
     inkscape:pageopacity="0.0"
     borderopacity="1.0"
     bordercolor="#666666"
     pagecolor="#ffffff"
     id="base"
     showgrid="true"
     showguides="true"
     inkscape:guide-bbox="true"
     inkscape:zoom="0.32102648"
     inkscape:cx="767.11995"
     inkscape:cy="-1032.1783"
     inkscape:window-x="1600"
     inkscape:window-y="0"
     inkscape:current-layer="layer1-2"
     inkscape:window-maximized="1">
    <sodipodi:guide
       orientation="horizontal"
       position="0,600"
       id="guide5596" />
    <inkscape:grid
       type="xygrid"
       id="grid3769"
       empspacing="3"
       visible="true"
       enabled="true"
       snapvisiblegridlinesonly="true"
       spacingx="4px"
       units="px"
       dotted="true"
       spacingy="4px" />
    <sodipodi:guide
       orientation="0,1"
       position="-1040,1600"
       id="guide2985" />
    <sodipodi:guide
       position="3168,1724"
       orientation="0,1"
       id="guide4181"
       inkscape:label=""
       inkscape:color="rgb(0,0,255)" />
  </sodipodi:namedview>
  <metadata
     id="metadata5594">
    <rdf:RDF>
      <cc:Work
         rdf:about="">
        <dc:format>image/svg+xml</dc:format>
        <dc:type
           rdf:resource="http://purl.org/dc/dcmitype/StillImage" />
        <dc:title />
      </cc:Work>
    </rdf:RDF>
  </metadata>
  <g
     inkscape:label="Layer 1"
     inkscape:groupmode="layer"
     id="layer1"
     transform="translate(0,1048)">
    <g
       id="layer1-2"
       inkscape:label="Layer 1"
       transform="translate(-900.90145,-124.23254)">
      <path
         sodipodi:nodetypes="aaaaacaassassac"
         inkscape:connector-curvature="0"
         inkscape:original-d="m 1897.8333,-445.91039 c 187.3086,-1.63403 356.3246,243.22228 361.2156,430.474164 5.3535,204.957346 -165.2636,496.027266 -370.2334,491.174916 -199.3633,-4.71963 -345.282,-294.99404 -337.0962,-494.245154 7.5251,-183.169436 162.797,-425.804716 346.114,-427.403926 z m -330.2561,641.4094 c 0,0 -149.9752,286.05208 -279.8413,273.61828 -110.0533,-10.53686 -219.2883,-166.37828 -188.8421,-272.65988 52.1898,-182.183901 244.869,-226.491056 522.0781,-225.093665 l 641.6575,3.23455 c 173.9332,0.876785 331.902,121.024812 340.1823,264.403065 16.9185,292.95363 -374.4525,608.4826 -628.256,616.65791 l -270.0474,8.69855 C 1359.3077,875.47714 777.73436,513.3239 708.13385,100.69816 671.35961,-117.31748 1073.099,-453.151 1073.099,-453.151"
         inkscape:path-effect="#path-effect4500-0-5-18"
         id="path4498-7-1-0"
         d="m 1897.8333,-445.91039 c 51.8537,-1.25455 103.6975,12.46664 149.2717,37.23291 45.5742,24.76626 84.9337,60.36843 116.0081,101.89862 62.1488,83.06037 90.2247,187.7623 95.9358,291.342634 6.3677,115.488496 -14.9959,235.462386 -79.1793,331.684176 -32.0916,48.1109 -74.6156,89.5847 -124.8971,118.15575 -50.2815,28.57104 -108.3841,43.94715 -166.157,41.33499 -55.5541,-2.51183 -109.9283,-21.59078 -156.3064,-52.27685 -46.3781,-30.68608 -84.8416,-72.73589 -113.4962,-120.39597 -57.309,-95.32015 -74.566,-210.58868 -67.2936,-321.572334 6.5875,-100.531886 33.4394,-201.918166 92.3895,-283.618436 29.4751,-40.85014 66.7759,-76.3055 110.2331,-101.78065 43.4573,-25.47514 93.1324,-40.78645 143.4914,-42.00484 z m -330.2561,641.4094 c 10.4241,75.0718 -16.6968,154.42361 -70.889,207.41076 -54.1923,52.98714 -134.1339,78.31701 -208.9523,66.20752 -61.2985,-9.92127 -118.5393,-44.59349 -154.3525,-95.32175 -35.8132,-50.72827 -49.2885,-117.03113 -34.4896,-177.33813 12.2128,-49.76844 42.6854,-94.04645 81.6752,-127.300667 38.9899,-33.254217 86.1885,-55.992668 135.3023,-70.6175167 98.2276,-29.2496963 202.6119,-27.6921193 305.1006,-27.1754813 l 641.6575,3.23455 c 39.9539,0.201405 80.2165,0.990408 119.2258,9.629216 39.0093,8.6388085 76.4452,25.1147105 108.0825,49.516223 31.6374,24.401513 57.1716,56.338044 75.5849,91.796516 18.4134,35.45847 29.8795,74.19979 37.2891,113.46111 15.9239,84.37534 13.3969,172.65235 -11.3122,254.8851 -24.7092,82.23276 -71.8888,157.66721 -135.506,215.33534 -63.6173,57.66813 -142.8203,96.83159 -225.9604,118.29061 -83.1401,21.45901 -169.6571,25.38248 -255.4774,28.14686 l -270.0474,8.69855 C 1583.6511,868.25078 1461.976,870.9872 1342.5525,852.02277 1223.129,833.05834 1106.2891,792.1115 1006.0923,724.41947 905.89539,656.72744 823.37997,562.66812 771.24863,453.56292 719.11729,344.45771 697.53666,221.15281 708.13385,100.69816 728.32438,-128.80077 870.17574,-344.06586 1073.099,-453.151"
         style="fill:none;fill-rule:evenodd;stroke:#000000;stroke-width:140;stroke-linecap:round;stroke-linejoin:round;stroke-miterlimit:4;stroke-dasharray:none;stroke-opacity:1" />
      <path
         sodipodi:nodetypes="aaaaacaassassac"
         inkscape:connector-curvature="0"
         inkscape:original-d="m -1327.5854,-443.91061 c 193.0351,-1.09787 368.00556,249.96096 373.26724,443.04909642 C -948.54314,211.06116 -1125.0685,510.72299 -1336.904,507.02116 -1543.411,503.41245 -1700.423,205.69599 -1692.3617,-0.81522069 -1684.8977,-192.0281 -1518.8202,-442.82298 -1327.5854,-443.91061 Z m -341.2747,661.15949 c 0,0 -154.9789,295.7824 -289.1779,282.92565 -113.7251,-10.89528 -223.9916,-171.3222 -195.1427,-281.93465 50.5419,-193.786792 253.0389,-262.333991 539.4968,-263.770901 l 570.0629,-2.859519 c 179.73631,-0.90159 433.71281,130.176732 444.5349,310.62154 17.3812,289.80978 -386.81042,579.96153 -649.217,580.64069 l -279.0572,0.72226 c -356.9018,0.92374 -736.0033,-63.88136 -878.3275,-344.29648 -143.1245,-281.99197 241.9466,-917.33237 241.9466,-917.33237"
         inkscape:path-effect="#path-effect4500-0-5-18-54"
         id="path4498-7-1-0-4"
         d="m -1327.5854,-443.91061 c 53.3635,-0.70747 106.5692,13.66063 153.4328,39.19428 46.8636,25.53365 87.4361,62.0334 119.6001,104.62026 64.328,85.1737 94.04933,192.67753 100.23434,299.23455642 6.92169,119.24875358 -15.57636,243.14072358 -82.06414,342.37553358 -33.2439,49.6174 -77.1949,92.37656 -129.0782,121.95983 -51.8833,29.58326 -111.7578,45.70596 -171.4435,43.54731 -57.6175,-2.08385 -114.1964,-21.14943 -162.717,-52.29203 -48.5206,-31.14261 -89.0555,-74.11998 -119.4842,-123.09149 -60.8573,-97.94303 -80.3596,-217.3616 -73.2565,-332.45286069 6.4881,-105.12538931 35.3019,-211.11303931 97.7983,-295.89302931 31.2481,-42.38999 70.6942,-78.99216 116.4482,-105.06774 45.7539,-26.07558 97.8717,-41.4365 150.5298,-42.13462 z m -341.2747,661.15949 c 12.679,77.92794 -14.7215,161.30377 -71.1562,216.51831 -56.4347,55.21454 -140.3895,80.78636 -218.0217,66.40734 -62.4651,-11.56977 -119.9847,-48.33909 -156.282,-100.47596 -36.2973,-52.13687 -50.8113,-119.06533 -38.8607,-181.45869 10.2506,-53.51786 39.1932,-102.60046 78.0398,-140.812743 38.8466,-38.212287 87.2532,-65.915943 138.4956,-84.4483766 102.4849,-37.0648674 213.9814,-37.9631214 322.9614,-38.5097814 l 570.0629,-2.859519 c 50.03604,-0.250988 100.38177,0.07572 149.59042,9.140859 49.20865,9.065142 97.0398,26.882532 138.75811,54.509524 41.71831,27.626991 76.97864,64.757393 103.16787,107.392967 26.18922,42.63558 43.3982,90.47506 53.0185,139.57819 16.36901,83.5493 10.76741,171.54388 -17.87368,251.71943 -28.64109,80.17555 -80.34642,151.81356 -146.85231,204.96802 -66.50589,53.15447 -146.97588,87.38083 -230.27689,104.96981 -83.30102,17.58897 -169.07672,18.76308 -254.21412,18.98343 l -279.0572,0.72226 c -164.839,0.42664 -332.5414,-3.35593 -489.1149,-54.90021 -156.5735,-51.54427 -299.5784,-151.05688 -389.2126,-289.39627 -96.7846,-149.37524 -127.2684,-340.06383 -81.8759,-512.167715 45.3924,-172.103885 165.9569,-322.953455 323.8225,-405.164655"
         style="fill:none;fill-rule:evenodd;stroke:#000000;stroke-width:70;stroke-linecap:round;stroke-linejoin:round;stroke-miterlimit:4;stroke-dasharray:none;stroke-opacity:1" />
      <path
         style="color:#000000;font-style:normal;font-variant:normal;font-weight:normal;font-stretch:normal;font-size:medium;line-height:normal;font-family:sans-serif;text-indent:0;text-align:start;text-decoration:none;text-decoration-line:none;text-decoration-style:solid;text-decoration-color:#000000;letter-spacing:normal;word-spacing:normal;text-transform:none;direction:ltr;block-progression:tb;writing-mode:lr-tb;baseline-shift:baseline;text-anchor:start;white-space:normal;clip-rule:nonzero;display:inline;overflow:visible;visibility:visible;opacity:1;isolation:auto;mix-blend-mode:normal;color-interpolation:sRGB;color-interpolation-filters:linearRGB;solid-color:#000000;solid-opacity:1;fill:#000000;fill-opacity:1;fill-rule:evenodd;stroke:none;stroke-width:70;stroke-linecap:round;stroke-linejoin:round;stroke-miterlimit:4;stroke-dasharray:none;stroke-dashoffset:0;stroke-opacity:1;color-rendering:auto;image-rendering:auto;shape-rendering:auto;text-rendering:auto;enable-background:accumulate"
         d="m -1040.0488,1729.0918 c -59.1569,0.7843 -116.8462,17.9156 -167.3965,46.7246 -50.4768,28.7672 -93.4051,68.7388 -127.291,114.707 -52.2052,70.8195 -81.9549,153.9773 -95.9883,238.7774 -76.6619,2.9696 -154.571,11.5474 -229.8242,38.7637 -55.1038,19.9288 -107.9566,49.937 -151.1367,92.4121 -43.3321,42.6247 -76.0746,97.5905 -87.8711,159.1796 -13.8055,72.0774 2.689,147.9676 44.5117,208.0411 41.7951,60.0337 106.8938,101.605 178.6328,114.8925 89.3821,16.5554 183.8967,-12.2332 248.873,-75.8046 30.6996,-30.0358 53.667,-66.8746 67.9356,-106.8028 32.8049,52.2284 76.3326,98.3481 129.0762,132.2012 53.4647,34.316 115.8612,55.4818 180.3574,57.8144 66.82122,2.4168 132.84967,-15.507 190.0449,-48.1191 57.10135,-32.5586 104.81193,-79.1393 140.82031,-132.8828 71.95365,-107.3928 95.18492,-238.8559 87.92774,-363.8848 -0.0964,-1.66 -0.25018,-3.3252 -0.35743,-4.9863 6.50635,0.8839 12.97176,1.8695 19.36329,3.0469 45.14674,8.3168 88.54729,24.6173 125.77343,49.2695 37.25132,24.6688 69.07051,58.1119 92.66993,96.5313 23.65679,38.5128 39.56331,82.4043 48.49414,127.9882 15.18786,77.5207 9.91185,159.318 -16.48633,233.2149 -26.37376,73.8285 -74.30765,140.2995 -135.74414,189.4023 -61.47396,49.1327 -136.87724,81.4304 -215.65625,98.0645 -78.85716,16.6507 -162.19772,18.0088 -247.07422,18.2285 l -279.05667,0.7227 c -164.2421,0.4251 -328.0741,-3.7624 -478.08,-53.1446 -149.877,-49.3398 -286.2217,-144.6732 -370.7833,-275.1836 -91.2167,-140.7819 -120.1873,-322.0058 -77.4062,-484.209 42.7812,-162.2031 157.3626,-305.567 306.1465,-383.0488 a 35.0035,35.0035 0 1 0 -32.334,-62.0859 c -166.9473,86.9406 -293.4942,245.2766 -341.498,427.2812 -48.0038,182.0047 -16.0068,382.1585 86.3457,540.127 94.7068,146.1684 244.3705,249.8605 407.6406,303.6094 163.1411,53.7062 334.7145,57.0825 500.1504,56.6543 l 279.05661,-0.7227 c 85.39834,-0.2211 173.61062,-1.211 261.35547,-19.7383 87.82299,-18.5437 173.35866,-54.6969 244.89648,-111.873 71.57529,-57.2062 127.05249,-134.0127 157.96094,-220.5352 30.88401,-86.4541 36.81186,-180.6447 19.26172,-270.2226 -10.30978,-52.6223 -28.8213,-104.4097 -57.54297,-151.168 -28.77905,-46.8517 -67.48071,-87.6707 -113.66602,-118.2559 -46.21047,-30.6018 -98.47163,-49.9346 -151.74218,-59.748 -13.45058,-2.4778 -26.85575,-4.3349 -40.19336,-5.7305 -14.21395,-86.1404 -44.90501,-170.5084 -98.74024,-241.7891 -34.89872,-46.2076 -79.06695,-86.0841 -130.7832,-114.2617 -51.79284,-28.2194 -110.68988,-44.2519 -170.64255,-43.457 z m 0.9277,69.9941 c 46.77431,-0.6201 94.2883,12.0837 136.22266,34.9317 42.01093,22.8896 78.9867,56.0145 108.41602,94.9804 42.45485,56.2125 69.00217,124.2367 82.76562,195.8067 -14.84168,-0.2176 -29.57507,-0.2681 -44.08008,-0.1953 l -570.06252,2.8594 c -11.0714,0.055 -22.252,0.1289 -33.4472,0.2207 13.4485,-71.3143 39.3153,-139.1971 80.916,-195.6309 28.6105,-38.8118 64.5744,-72.0418 105.6054,-95.4258 40.9577,-23.342 87.5047,-36.9349 133.6641,-37.5469 z m 283.67579,395.5235 c 17.99137,-0.09 35.67161,0.072 53.17383,0.5097 0.36891,4.6806 0.73973,9.3611 1.01171,14.0469 6.5862,113.4688 -15.17726,229.7902 -76.19921,320.8672 -30.47942,45.4913 -70.67268,84.4271 -117.3379,111.0352 -46.57132,26.5544 -100.29162,40.8771 -152.84182,38.9765 -50.7386,-1.8351 -101.4995,-18.8021 -145.0761,-46.7715 -43.6594,-28.0224 -80.7426,-67.174 -108.6622,-112.1074 -19.0106,-30.5954 -33.6477,-63.8026 -44.5488,-98.5683 -0.1496,-0.9882 -0.228,-1.9816 -0.3887,-2.9688 a 35.0035,35.0035 0 0 0 -4.0117,-11.7519 c -17.6984,-63.3451 -23.2449,-131.4018 -19.1015,-198.5372 0.237,-3.8411 0.5648,-7.6761 0.8652,-11.5136 14.3101,-0.1795 28.664,-0.2853 43.0547,-0.3574 l 570.06249,-2.8594 z m -683.46089,5.2441 c -0.1179,1.7243 -0.2824,3.4527 -0.3887,5.1758 -4.7916,77.6374 1.9359,157.7931 24.8594,233.3437 7.8571,64.0906 -15.9647,133.2816 -62.0567,178.377 -47.8931,46.8576 -121.2896,69.2125 -187.1719,57.0098 -53.1911,-9.8521 -103.1321,-41.8188 -133.9316,-86.0586 -30.772,-44.2004 -43.3047,-102.1678 -33.209,-154.877 8.7046,-45.4462 33.8464,-88.6457 68.207,-122.4453 34.5131,-33.9495 78.4744,-59.3504 125.8555,-76.4863 61.7247,-22.3235 128.6713,-30.7012 197.836,-34.0391 z"
         id="path4498-7-1-0-4-2"
         inkscape:connector-curvature="0" />
      <path
         style="color:#000000;font-style:normal;font-variant:normal;font-weight:normal;font-stretch:normal;font-size:medium;line-height:normal;font-family:sans-serif;text-indent:0;text-align:start;text-decoration:none;text-decoration-line:none;text-decoration-style:solid;text-decoration-color:#000000;letter-spacing:normal;word-spacing:normal;text-transform:none;direction:ltr;block-progression:tb;writing-mode:lr-tb;baseline-shift:baseline;text-anchor:start;white-space:normal;clip-rule:nonzero;display:inline;overflow:visible;visibility:visible;opacity:1;isolation:auto;mix-blend-mode:normal;color-interpolation:sRGB;color-interpolation-filters:linearRGB;solid-color:#000000;solid-opacity:1;fill:#000000;fill-opacity:1;fill-rule:evenodd;stroke:none;stroke-width:200;stroke-linecap:round;stroke-linejoin:round;stroke-miterlimit:4;stroke-dasharray:none;stroke-dashoffset:0;stroke-opacity:1;color-rendering:auto;image-rendering:auto;shape-rendering:auto;text-rendering:auto;enable-background:accumulate"
         d="m 3405.4805,-602.39844 a 100.01,100.01 0 0 0 -54.291,14.6211 c -135.7462,80.24543 -247.6755,197.77155 -321.209,337.26757 -73.5336,139.49604 -107.2442,298.255436 -96.7383,455.59571 7.41,110.97472 36.902,221.58705 91.2422,321.56836 54.4729,100.22577 132.6855,186.68261 227.5371,250.58203 a 100.01,100.01 0 0 0 0,0 c 94.8564,63.90256 202.3007,102.52794 310.8477,121.05664 108.4218,18.50731 213.4488,16.73026 312.0859,14.47265 l 380.0489,-8.69726 c 86.8151,-1.98702 180.8675,-4.6227 277.6836,-28.33594 97.058,-23.7725 191.7064,-68.20665 270.3085,-137.70703 78.6626,-69.55371 136.6284,-160.2613 166.7012,-260.86719 29.9812,-100.29937 31.3175,-206.04064 8.8203,-305.73437 C 4965.9035,115.51751 4945.3282,59.186162 4913,6.8378906 4880.4925,-45.800724 4837.1607,-92.206622 4784.418,-127.61719 c -50.8474,-34.13792 -107.1627,-55.66294 -164.125,-67.17773 -16.9546,-77.1394 -47.3551,-153.02067 -96.9883,-220.61133 -38.7546,-52.77603 -88.4454,-99.00747 -148.2481,-132.27344 -60.0373,-33.39648 -128.7813,-52.74001 -200.3925,-51.78711 -70.6672,0.94035 -137.9927,21.56448 -196.5567,55.62696 -58.3385,33.93142 -106.5973,80.23794 -144.1836,132.6875 -46.7932,65.2973 -75.9882,137.90887 -92.789,211.70898 -61.3324,4.95325 -124.7805,15.38906 -188.4786,38.39844 -60.6172,21.89648 -120.1725,55.25234 -170.164,104.390623 -50.4285,49.5678122 -89.316,113.870705 -103.6524,188.738277 -16.8593,88.04289 2.8711,178.39535 53.7989,251.49024 50.8468,72.97877 128.1555,122.23105 215.0683,138.30859 108.6432,20.09734 219.9931,-13.8123 298.9922,-91.05469 10.6042,-10.36835 20.3745,-21.37851 29.416,-32.86328 23.722,24.38838 50.2092,46.50697 79.5313,65.44141 60.9241,39.3412 132.2467,63.96999 207.7129,66.70117 78.1981,2.83006 153.679,-18.10783 218.9062,-55.54101 64.9479,-37.27286 117.9369,-89.65476 157.7813,-149.37696 62.6148,-93.85248 90.5628,-201.08669 96.6093,-306.457028 12.9158,5.65273 25.1216,12.206791 36.2813,19.699219 27.4236,18.411752 51.6684,43.977929 69.8965,73.494139 18.4073,29.80655 31.9526,65.23987 40.5918,103.52344 15.3652,68.08907 13.9298,139.9321 -5.3496,204.42969 -19.1878,64.19105 -57.366,123.9359 -107.5586,168.3164 -50.2529,44.43386 -115.4027,76.1328 -185.4082,93.2793 -70.2476,17.20579 -149.538,20.69581 -234.6797,22.64453 l -380.0488,8.69922 c -97.1499,2.22356 -189.2333,2.7713 -273.8575,-11.67383 -84.499,-14.42376 -165.1941,-44.2632 -232.7578,-89.7793 -67.5682,-45.51924 -124.5129,-108.37595 -163.5586,-180.21679 -39.1786,-72.08531 -61.7707,-154.9582 -67.4082,-239.38672 -7.9947,-119.732538 18.148,-242.854312 74.1055,-349.00781 55.9575,-106.1535 142.7607,-197.29824 246.0605,-258.36329 a 100.01,100.01 0 0 0 -47.4843,-186.78906 z m 771.8437,202.91406 c 33.2076,-0.44187 68.9364,9.02198 100.5078,26.58399 31.8061,17.69252 60.9764,44.15107 84.2676,75.86914 19.4989,26.55359 35.0133,57.13225 46.8516,90.27344 l -458.2637,2.29492 c 11.5694,-33.04009 26.7258,-63.56872 45.8027,-90.18945 22.6789,-31.64709 51.0751,-58.21704 82.17,-76.30274 30.8696,-17.95464 65.8796,-28.09304 98.664,-28.5293 z m 260.2324,392.5839894 c -2.9576,82.0036716 -23.372,160.3737006 -63.8808,221.0918006 -24.1912,36.2598 -55.835,66.75372 -90.961,86.91211 -34.8465,19.99806 -75.0121,30.47776 -112.121,29.13476 -35.8527,-1.29753 -73.7999,-13.76014 -106.4532,-34.8457 -32.8997,-21.24466 -62.1165,-51.93627 -84.3183,-87.82227 -36.6035,-59.16416 -54.7996,-133.723254 -57.4141,-211.8867162 l 515.1484,-2.5839844 z M 3722.4648,4.1503906 c 1.839,55.3370264 9.5744,111.4648894 25.1192,166.2265594 4.9267,40.80647 -11.5669,88.95705 -40.707,117.44922 -30.2059,29.53421 -81.2485,45.07892 -122.7891,37.39453 -33.9404,-6.27845 -67.939,-28.11626 -87.3516,-55.97851 -19.3316,-27.74612 -27.7203,-66.8755 -21.4648,-99.54297 5.4956,-28.69932 22.646,-59.3696 47.4199,-83.720704 25.2109,-24.780634 59.3547,-44.991306 97.9141,-58.919922 31.2034,-11.271479 65.4172,-18.3247263 101.8593,-22.9082034 z"
         id="path4498-7-1-0-8"
         inkscape:connector-curvature="0" />
      <path
         style="color:#000000;font-style:normal;font-variant:normal;font-weight:normal;font-stretch:normal;font-size:medium;line-height:normal;font-family:sans-serif;text-indent:0;text-align:start;text-decoration:none;text-decoration-line:none;text-decoration-style:solid;text-decoration-color:#000000;letter-spacing:normal;word-spacing:normal;text-transform:none;direction:ltr;block-progression:tb;writing-mode:lr-tb;baseline-shift:baseline;text-anchor:start;white-space:normal;clip-rule:nonzero;display:inline;overflow:visible;visibility:visible;opacity:1;isolation:auto;mix-blend-mode:normal;color-interpolation:sRGB;color-interpolation-filters:linearRGB;solid-color:#000000;solid-opacity:1;fill:#000000;fill-opacity:1;fill-rule:evenodd;stroke:none;stroke-width:140;stroke-linecap:round;stroke-linejoin:round;stroke-miterlimit:4;stroke-dasharray:none;stroke-dashoffset:0;stroke-opacity:1;color-rendering:auto;image-rendering:auto;shape-rendering:auto;text-rendering:auto;enable-background:accumulate"
         d="m 1202.8848,1292.4844 a 70.007,70.007 0 0 0 -31.3907,8.7715 c -224.7682,120.8283 -379.18661,355.1643 -401.55074,609.3691 -11.68981,132.8737 11.94918,268.3418 69.68555,389.1777 57.77204,120.9107 148.46728,224.1309 258.81639,298.6817 110.2634,74.4928 236.815,118.4314 364.668,138.7344 127.7271,20.283 253.8762,17.0717 375.1894,13.164 l 270.0469,-8.6973 c 86.4374,-2.7842 178.1975,-6.4521 270.7168,-30.332 92.6791,-23.9211 182.1275,-67.7137 255.4805,-134.207 73.3629,-66.5025 127.1503,-152.6025 155.5312,-247.0547 28.3037,-94.1955 30.8829,-193.565 13.0586,-288.0098 -8.294,-43.9468 -21.4045,-89.3224 -43.9512,-132.7402 -22.6887,-43.6916 -54.3542,-83.6484 -94.957,-114.9648 -40.7168,-31.4045 -87.5742,-51.7746 -135.6973,-62.4317 -26.2497,-5.8131 -51.5703,-8.4619 -75.8671,-9.8105 -13.8422,-89.4974 -44.8696,-178.4852 -101.9629,-254.7891 -36.5643,-48.8672 -83.1864,-91.3356 -138.6328,-121.4668 -55.6126,-30.2214 -119.0695,-47.2873 -184.3887,-45.707 -63.4225,1.5344 -124.2212,20.5394 -177.1992,51.5957 -52.8265,30.9676 -96.9714,73.2216 -131.5977,121.2109 -53.5945,74.2778 -83.0852,159.7009 -97.0195,245.5332 -63.4797,2.4706 -128.8672,9.4771 -194.4297,29 -56.3779,16.7879 -112.5257,43.3171 -160.75,84.4473 -48.6309,41.477 -87.8869,97.2673 -104.2324,163.8769 -19.973,81.3918 -2.3289,166.9462 45.2871,234.3926 47.4139,67.1604 120.448,111.1179 200.3535,124.0508 97.7796,15.8258 198.2507,-16.0075 269.0742,-85.2559 19.2177,-18.7903 35.6263,-39.8819 49.2149,-62.5195 27.8592,34.9089 60.8807,66.1485 99.0429,91.3984 56.2405,37.2116 122.2965,60.6851 191.7696,63.8262 72.2707,3.2677 142.8613,-15.7176 203.9023,-50.4023 60.8409,-34.5711 110.9199,-83.7627 148.5469,-140.1719 62.0779,-93.0653 88.2989,-201.4499 91.6074,-307.8164 12.9922,1.1854 25.5002,2.7461 37.0098,5.2949 29.8955,6.6205 57.909,19.203 80.4668,36.6016 22.6718,17.4865 42.075,41.4017 56.2129,68.6269 14.2801,27.4992 24.1015,59.6078 30.6269,94.1836 14.0235,74.3059 11.5482,151.4899 -9.5664,221.7598 -21.0375,70.0133 -61.609,134.7815 -115.4805,183.6152 -53.8816,48.8429 -122.8403,83.3781 -196.4414,102.375 -73.7608,19.0382 -155.0331,23.2184 -240.2363,25.9629 l -270.0469,8.6973 c -120.4011,3.8783 -237.6047,6.1419 -348.7246,-11.5039 -110.994,-17.6258 -218.1215,-55.5815 -308.2519,-116.4727 -90.0445,-60.8332 -164.3786,-145.7334 -210.86918,-243.0332 -46.52628,-97.3744 -66.04956,-208.5151 -56.54492,-316.5508 18.01703,-204.7929 147.3007,-400.9862 328.3789,-498.3281 a 70.007,70.007 0 0 0 -34.8984,-132.082 z m 828.1816,147.6465 c 38.3882,-0.9288 78.6184,9.4466 114.1543,28.7578 35.702,19.4014 67.8002,48.139 93.3848,82.332 35.6755,47.68 58.9092,106.2776 71.5039,169.0137 l -545.6699,-2.75 c 12.4893,-60.1092 34.537,-116.246 67.9746,-162.5879 24.3239,-33.7111 54.7812,-62.3688 88.8691,-82.3516 33.9365,-19.8939 72.4877,-31.5117 109.7832,-32.414 z m -279.1992,417.2929 c 0.099,5e-4 0.1925,-5e-4 0.291,0 l 569.0684,2.8711 c -3.0396,85.1233 -24.3146,167.6039 -68.0508,233.1719 -26.5564,39.8126 -61.524,73.5677 -101.2461,96.1387 -39.522,22.4572 -85.1371,34.2223 -128.4121,32.2656 -41.6352,-1.8825 -84.3261,-16.5659 -120.8418,-40.7266 -36.6891,-24.2752 -68.3611,-58.5507 -92.1309,-98.0859 -38.9191,-64.7329 -56.9527,-143.9662 -58.6777,-225.6348 z m -140.043,2.0782 c 0.8683,47.8889 6.2929,96.2782 17.5801,143.6542 a 70.007,70.007 0 0 0 0.3789,18.0313 c 7.2251,52.0328 -12.9311,111.0065 -50.4922,147.7324 -37.5611,36.7258 -96.9729,55.5514 -148.8301,47.1582 -42.6915,-6.9097 -84.1391,-32.2956 -108.3515,-66.5918 -24.0105,-34.0099 -33.3182,-81.0629 -23.6934,-120.2851 8.0801,-32.9272 29.7685,-65.6913 59.1172,-90.7227 29.7554,-25.3782 68.0057,-44.3273 109.8555,-56.789 44.8975,-13.3694 93.4403,-19.4285 144.4355,-22.1875 z"
         id="path4498-7-1-0-3"
         inkscape:connector-curvature="0" />
    </g>
  </g>
</svg>
