<?xml version="1.0" encoding="UTF-8" standalone="no"?>
<!-- Created with Inkscape (http://www.inkscape.org/) -->

<svg
   xmlns:dc="http://purl.org/dc/elements/1.1/"
   xmlns:cc="http://creativecommons.org/ns#"
   xmlns:rdf="http://www.w3.org/1999/02/22-rdf-syntax-ns#"
   xmlns:svg="http://www.w3.org/2000/svg"
   xmlns="http://www.w3.org/2000/svg"
   xmlns:sodipodi="http://sodipodi.sourceforge.net/DTD/sodipodi-0.dtd"
   xmlns:inkscape="http://www.inkscape.org/namespaces/inkscape"
   width="2000"
   height="2048"
   id="svg2992"
   version="1.1"
   inkscape:version="0.91 r13725"
   sodipodi:docname="ക്കൃ.svg">
  <defs
     id="defs5498">
    <inkscape:path-effect
       effect="spiro"
       id="path-effect3846"
       is_visible="true" />
    <inkscape:path-effect
       effect="spiro"
       id="path-effect3801"
       is_visible="true" />
    <inkscape:path-effect
       is_visible="true"
       id="path-effect4500-0-5-18-7"
       effect="spiro" />
    <inkscape:path-effect
       is_visible="true"
       id="path-effect4500-0-5-18-7-3"
       effect="spiro" />
    <inkscape:path-effect
       is_visible="true"
       id="path-effect4500-0-5-18-7-7"
       effect="spiro" />
    <inkscape:path-effect
       is_visible="true"
       id="path-effect4500-0-5-18-7-7-5"
       effect="spiro" />
    <inkscape:path-effect
       is_visible="true"
       id="path-effect4500-0-5-18-7-7-9"
       effect="spiro" />
  </defs>
  <sodipodi:namedview
     inkscape:window-height="704"
     inkscape:window-width="1366"
     inkscape:pageshadow="2"
     inkscape:pageopacity="0.0"
     borderopacity="1.0"
     bordercolor="#666666"
     pagecolor="#ffffff"
     id="base"
     showgrid="true"
     showguides="true"
     inkscape:guide-bbox="true"
     inkscape:zoom="0.1135"
     inkscape:cx="-3116.1956"
     inkscape:cy="-941.19062"
     inkscape:window-x="-4"
     inkscape:window-y="0"
     inkscape:current-layer="layer1"
     inkscape:window-maximized="1">
    <sodipodi:guide
       orientation="horizontal"
       position="0,600"
       id="guide5596" />
    <inkscape:grid
       type="xygrid"
       id="grid3769"
       empspacing="3"
       visible="true"
       enabled="true"
       snapvisiblegridlinesonly="true"
       spacingx="4px"
       units="px"
       dotted="true"
       spacingy="4px" />
    <sodipodi:guide
       orientation="0,1"
       position="-1040,1600"
       id="guide2985" />
  </sodipodi:namedview>
  <metadata
     id="metadata5594">
    <rdf:RDF>
      <cc:Work
         rdf:about="">
        <dc:format>image/svg+xml</dc:format>
        <dc:type
           rdf:resource="http://purl.org/dc/dcmitype/StillImage" />
        <dc:title />
      </cc:Work>
    </rdf:RDF>
  </metadata>
  <g
     inkscape:label="Layer 1"
     inkscape:groupmode="layer"
     id="layer1"
     transform="translate(0,1048)">
    <path
       sodipodi:nodetypes="aaaaacaassaaaaaaaaac"
       inkscape:connector-curvature="0"
       inkscape:original-d="m -1586.3711,-545.28892 c 181.2574,-1.0389 356.2973,225.2805 361.2157,406.4741 5.3773,198.1022 -172.0894,468.68893 -370.2335,465.17493 -192.8049,-3.4193 -351.5265,-272.44243 -343.9811,-465.13013 7.0222,-179.3265 173.5378,-405.4903 352.9989,-406.5189 z m -328.256,617.4094 c 0,0 -156.0648,265.99743 -281.8413,253.61823 -104.639,-10.2987 -213.552,-150.46003 -188.8421,-252.65983 45.5186,-188.2643 244.8658,-254.6901 522.0781,-255.0937 l 525.6574,-0.7654 c 173.9353,-0.2533 534.85259,62.508 581.55479,271.2481 23.1521,103.4805 -97.6274,250.24513 -203.5107,244.50278 -158.93029,-8.61923 -284.18969,-240.004129 -263.98699,-397.88058 30.5046,-238.3826 304.04019,-539.94445 537.03679,-481.04325 295.6318,74.73525 384.9046,565.396806 309.4847,860.85461 -55.6397,217.96846 -299.065,356.90044 -504.7749,447.94699 -150.94349,66.80715 -341.82069,120.9077 -492.34059,53.15145 -77.5389,-34.90397 -177.3879,-128.351 -147.6603,-208.018 34.6365,-92.82247 190.8993,-85.88001 288.7599,-70.42031 130.7922,20.66213 338.12519,208.50205 338.12519,208.50205"
       inkscape:path-effect="#path-effect4500-0-5-18-7"
       id="path4498-7-1-0-3"
       d="m -1586.3711,-545.28892 c 50.0514,-0.65081 100.0212,11.87327 144.6269,34.58664 44.6057,22.71338 83.8668,55.47339 115.5161,94.25342 63.2984,77.56006 95.0839,177.70209 101.0727,277.63404 6.6798,111.462513 -18.7728,227.036265 -84.441,317.34798 -32.834,45.15585 -75.3822,83.47551 -124.6691,109.70408 -49.2868,26.22857 -105.3294,40.1613 -161.1234,38.12287 -53.7502,-1.96376 -106.6618,-18.70783 -152.7317,-46.46593 -46.0699,-27.7581 -85.3284,-66.35606 -115.4202,-110.93667 -60.1835,-89.161212 -82.5889,-200.367913 -75.8292,-307.72753 6.2049,-98.54864 37.0393,-197.25706 98.5763,-274.48093 30.7685,-38.61193 68.9667,-71.48986 112.5323,-94.71959 43.5656,-23.22974 92.5226,-36.67646 141.8903,-37.31838 z m -328.256,617.4094 c 5.002,72.59107 -25.0397,146.80641 -79.1279,195.4783 -54.0882,48.67188 -131.0504,70.7453 -202.7134,58.13993 -57.2843,-10.07618 -110.6855,-41.90196 -145.832,-88.24566 -35.1465,-46.34371 -51.4056,-106.85958 -43.0101,-164.41417 7.6506,-52.4484 35.055,-100.997528 72.6415,-138.368862 37.5866,-37.371338 84.9428,-64.029608 134.9539,-81.586728 100.0223,-35.11422 208.4759,-34.98376 314.4827,-35.13811 l 525.6574,-0.7654 c 117.1061,-0.17052 236.6532,-1.82051 348.21135,33.79776 55.77906,17.80914 109.07176,45.52581 151.61564,85.756248 42.54387,40.230435 73.82381,93.676886 81.7278,151.694092 8.06986,59.23474 -9.31566,121.63533 -47.38527,167.72852 -38.06961,46.09318 -96.36922,75.02157 -156.12543,76.77426 -45.18039,1.32517 -90.33199,-12.43445 -128.44499,-36.73317 -38.1129,-24.29872 -69.2734,-58.84975 -91.6837,-98.10277 -44.8207,-78.50605 -54.0409,-173.220318 -43.8583,-263.04464 15.0766,-132.99562 72.6185,-262.78347 169.6733,-354.95452 97.05479,-92.17104 234.65903,-143.54341 367.36349,-126.08873 88.95506,11.7003 173.13635,53.42769 238.91843,114.44096 65.78207,61.01327 113.31319,140.76597 139.34123,226.62889 52.05608,171.725846 16.92255,362.12836 -68.77496,519.78476 -109.34375,201.15803 -296.16929,353.58433 -504.7749,447.94699 -77.09455,34.87369 -158.01909,62.57449 -241.81619,74.31288 -83.7971,11.73839 -170.7562,7.0657 -250.5244,-21.16143 -44.4155,-15.71706 -87.2977,-39.4495 -117.1326,-75.91368 -14.9175,-18.23209 -26.3309,-39.49311 -32.0483,-62.34595 -5.7174,-22.85283 -5.61,-47.3063 1.5206,-69.75837 8.4047,-26.46386 26.3848,-49.44197 48.9076,-65.68072 22.5229,-16.23875 49.4038,-25.93354 76.8836,-29.91273 54.9597,-7.95838 110.7031,6.40597 162.9687,25.17314 125.5254,45.07279 241.48867,116.58059 338.12519,208.50205"
       style="fill:none;fill-rule:evenodd;stroke:#000000;stroke-width:140;stroke-linecap:round;stroke-linejoin:round;stroke-miterlimit:4;stroke-dasharray:none;stroke-opacity:1" />
    <path
       style="color:#000000;font-style:normal;font-variant:normal;font-weight:normal;font-stretch:normal;font-size:medium;line-height:normal;font-family:sans-serif;text-indent:0;text-align:start;text-decoration:none;text-decoration-line:none;text-decoration-style:solid;text-decoration-color:#000000;letter-spacing:normal;word-spacing:normal;text-transform:none;direction:ltr;block-progression:tb;writing-mode:lr-tb;baseline-shift:baseline;text-anchor:start;white-space:normal;clip-rule:nonzero;display:inline;overflow:visible;visibility:visible;opacity:1;isolation:auto;mix-blend-mode:normal;color-interpolation:sRGB;color-interpolation-filters:linearRGB;solid-color:#000000;solid-opacity:1;fill:#000000;fill-opacity:1;fill-rule:evenodd;stroke:none;stroke-width:140;stroke-linecap:round;stroke-linejoin:round;stroke-miterlimit:4;stroke-dasharray:none;stroke-dashoffset:0;stroke-opacity:1;color-rendering:auto;image-rendering:auto;shape-rendering:auto;text-rendering:auto;enable-background:accumulate"
       d="m 1776.4316,-612.45312 c -136.3499,-0.98409 -268.4435,56.03862 -366.0878,148.76953 -39.3749,37.3935 -72.6496,79.85276 -100.0938,125.59375 -17.7714,-41.00619 -40.7962,-80.07548 -69.8535,-115.67969 -37.3692,-45.7888 -83.926,-84.84437 -137.9844,-112.37109 -54.1714,-27.58427 -114.96956,-43.0136 -177.30077,-42.20313 -61.47392,0.79932 -121.03476,17.34799 -173.91602,45.54492 -52.77266,28.13904 -98.04569,67.31472 -134.34179,112.86328 -49.1307,61.65491 -80.62612,133.16661 -98.02735,207.10743 -67.90785,3.44701 -137.91266,12.47174 -207.33594,36.84374 -57.87558,20.31805 -114.49252,51.63065 -161.12304,97.99415 -47.01794,46.748685 -82.346464,107.93584856 -92.552737,177.904292 -11.270325,77.262988 9.90734,155.379298 56.501957,216.818358 46.45153,61.25039 114.73793,101.73968 189.48047,114.88672 93.81664,16.50214 190.85528,-11.32876 261.66406,-75.04687 22.67831,-20.40735 41.93171,-43.90244 57.47656,-69.50196 29.85405,34.88215 65.07774,65.54077 105.20898,89.72071 55.70486,33.56336 119.71717,54.03027 186.30079,56.46289 69.13333,2.52576 136.92653,-14.54615 196.56443,-46.28321 59.4986,-31.6629 109.7261,-77.14695 148.3985,-130.33203 a 70.007,70.007 0 0 0 0,0 c 1.0673,-1.46779 2.0258,-2.98952 3.0742,-4.46679 2.9926,5.91501 6.1327,11.78991 9.4551,17.60937 27.4936,48.15666 65.951,91.24861 114.8438,122.41992 49.1435,31.33128 107.3884,49.46126 168.1289,47.67969 80.985,-2.37536 156.7879,-40.10804 208.0449,-102.16797 51.1595,-61.94198 73.5442,-142.67976 62.7715,-221.753906 -10.4623,-76.7954832 -50.404,-143.380678 -102.9903,-193.107424 -52.0858,-49.25345 -114.9028,-81.29776 -178.4218,-101.57812 -43.3789,-13.85 -86.8873,-22.50207 -130.0625,-27.99219 24.0539,-47.06466 55.0439,-89.8797 92.4961,-125.44727 82.516,-78.36392 201.1364,-121.76829 310.0312,-107.44531 73.2817,9.63877 144.825,44.775 200.4434,96.36133 55.8095,51.76366 97.2996,120.87582 119.955,195.61328 45.3523,149.610704 14.9505,322.11448 -63.2871,466.04688 -92.7665,170.66122 -248.7879,306.10826 -427.3554,396.07617 -99.7392,-90.12752 -216.9387,-160.42101 -343.5039,-205.86719 -56.4725,-20.27775 -123.2297,-39.20082 -196.6563,-28.56836 -37.0314,5.3623 -74.555,18.44865 -107.78906,42.41016 -33.59753,24.22343 -61.10131,58.49879 -74.68554,101.27148 -11.50759,36.23397 -11.33388,73.47884 -2.71289,107.9375 8.55985,34.21432 25.05356,64.3527 45.77929,89.6836 41.2256,50.38572 96.0082,79.19335 147.957,97.57617 92.5604,32.75381 190.6745,37.50954 283.5879,24.49414 92.6489,-12.97834 179.7834,-43.13944 260.9551,-79.85742 220.0971,-99.56081 419.1901,-260.77847 537.4258,-478.29493 93.1575,-171.3804 133.0236,-379.680504 74.2637,-573.52148 -29.4006,-96.9884 -82.9739,-187.38165 -158.7286,-257.64453 -75.9458,-70.44021 -172.764,-118.75965 -277.3925,-132.52149 -19.5643,-2.57329 -39.1289,-3.89652 -58.6075,-4.0371 z m -849.49996,144.09765 c 37.77155,-0.49113 76.91316,9.12821 111.95316,26.9707 35.153,17.90004 67.1176,44.36351 93.0468,76.13477 28.0206,34.33385 49.0895,75.23986 63.4317,119.42773 -6.8123,0.0194 -13.9049,-0.0274 -20.6485,-0.0176 l -509.86128,0.74218 c 13.99561,-43.37041 34.3929,-83.58741 61.48828,-117.58984 25.24096,-31.67529 56.36603,-58.25575 90.72461,-76.57617 34.25,-18.26253 72.60371,-28.6073 109.86523,-29.0918 z m 247.98826,362.51563 c 14.6075,-0.0213 28.8051,0.12904 43.2188,0.16211 1.42,90.74809 -21.9787,181.247715 -71.959,249.98437 -26.9958,37.12664 -61.8625,68.28194 -100.9375,89.07617 -38.9357,20.72009 -83.2289,31.51396 -125.68361,29.96289 -40.91688,-1.49488 -82.7272,-14.51593 -119.16211,-36.46875 -36.5574,-22.02662 -68.74647,-53.43292 -93.52539,-90.14257 -45.68319,-67.679115 -66.49713,-154.520832 -64.84375,-241.78126 2.42323,-0.005 4.80484,-0.0258 7.23438,-0.0293 l 525.65818,-0.76367 z m -672.94724,4.8125 c -0.60722,61.442945 7.40245,123.77651 25.88672,183.43359 a 70.007,70.007 0 0 0 0.0703,1.466797 C 531.3854,134.02361 509.18202,188.87826 471.81445,222.50391 434.44687,256.12957 377.56018,272.44492 328.05078,263.73633 288.2248,256.73103 249.70864,233.5718 225.86719,202.13477 202.16882,170.8864 190.82704,127.96926 196.34766,90.123047 c 5.09498,-34.928354 24.57526,-70.840006 52.73046,-98.8339845 28.54262,-28.3791715 66.63846,-50.3815375 108.78516,-65.1777345 44.33021,-15.562737 92.84818,-23.244056 144.10938,-27.138668 z m 864.61714,0.56054 c 47.3273,4.204855 92.7142,11.558994 135.1485,25.107425 48.0391,15.337919 91.8085,38.726182 124.8105,69.9335938 32.5015,30.7341242 55.1172,71.0442882 60.4629,110.2832012 5.3671,39.39534 -7.0164,83.45679 -31.9961,113.70117 -24.8822,30.12645 -65.6796,50.25278 -104.207,51.38282 -29.6203,0.86879 -61.6795,-8.5229 -88.7617,-25.78907 -27.3332,-17.42611 -51.1964,-43.43575 -68.5235,-73.78515 -34.8508,-61.04319 -44.1252,-140.800486 -35.0957,-220.453128 1.9162,-16.903495 4.7028,-33.714795 8.1621,-50.380862 z m -226.0859,687.78321 c 33.6658,-1.42741 73.1674,7.96688 115.2188,23.0664 88.1941,31.66815 171.47,77.57619 245.6211,135.04688 -40.5262,13.38118 -81.348,23.61805 -122.25,29.34765 -74.6808,10.46135 -150.4869,5.87229 -217.4629,-17.82812 -36.8822,-13.05128 -67.8623,-31.70737 -86.3067,-54.25 -9.1093,-11.13331 -15.4434,-23.51645 -18.3183,-35.00781 -2.8139,-11.247 -2.4235,-22.91185 0.33,-31.58203 3.2252,-10.15503 11.6807,-21.83383 23.1289,-30.0879 a 70.007,70.007 0 0 0 0,0 c 11.8115,-8.51599 28.0484,-14.81993 45.9766,-17.41601 4.5616,-0.66054 9.2511,-1.08515 14.0605,-1.28906 z"
       id="path4498-7-1-0-3-0"
       inkscape:connector-curvature="0" />
    <path
       sodipodi:nodetypes="aaaaacaassaaaaaaaaac"
       inkscape:connector-curvature="0"
       inkscape:original-d="m -4409.4516,-555.65424 c 193.7214,-1.11155 380.7977,241.03721 386.0543,434.90395 5.747,211.957985 -183.923,501.47023 -395.6923,497.71046 -206.0628,-3.65846 -375.6987,-291.497745 -367.6345,-497.66252 7.5051,-191.86906 185.471,-433.85135 377.2725,-434.95189 z m -350.8282,660.59262 c 0,0 -166.7963,284.60196 -301.2218,271.35692 -111.8343,-11.01901 -228.2365,-160.98358 -201.8274,-270.33149 48.6486,-201.431981 261.7036,-272.50379 557.978,-272.93563 l 561.8037,-0.81892 c 185.8958,-0.27103 571.6312,66.87998 621.5447,290.21989 24.7441,110.7182 -104.3406,267.74791 -217.5048,261.60393 -169.859,-9.22209 -303.7318,-256.79063 -282.1399,-425.709362 32.6024,-255.055708 324.9472,-577.709528 573.9656,-514.688658 315.9606,79.96243 416.9799,606.435954 330.766,921.06498 -61.6864,225.1183 -324.5339,355.38082 -539.4851,446.0894 -162.5537,68.59702 -365.3312,129.34323 -526.1959,56.86894 -82.8948,-37.34655 -189.6013,-137.34429 -157.8139,-222.56731 37.0252,-99.26591 204.744,-95.93716 308.6161,-75.34568 139.845,27.72269 345.376,252.27347 345.376,252.27347"
       inkscape:path-effect="#path-effect4500-0-5-18-7-7"
       id="path4498-7-1-0-3-3"
       d="m -4409.4516,-555.65424 c 53.527,-0.69631 106.9653,12.71835 154.6545,37.03635 47.6891,24.31801 89.6505,59.38586 123.4652,100.8851 67.6293,82.99847 101.5354,190.11095 107.9346,296.9825 7.1378,119.2080741 -19.988,242.81864 -90.1441,339.46041 -35.0781,48.32088 -80.5518,89.33965 -133.2468,117.42194 -52.695,28.0823 -112.6304,43.00784 -172.3014,40.82811 -57.4876,-2.09997 -114.0754,-20.03099 -163.3314,-49.74755 -49.2561,-29.71656 -91.2135,-71.03132 -123.3611,-118.73629 -64.2951,-95.40994 -88.1674,-214.353964 -80.942,-329.17868 6.6319,-105.39306 39.5231,-210.97255 105.2696,-293.61073 32.8733,-41.31909 73.698,-76.51257 120.2748,-101.38265 46.5768,-24.87008 98.9318,-39.2717 151.7281,-39.95851 z m -350.8282,660.59262 c 5.4658,77.63635 -26.5923,157.06544 -84.4172,209.15725 -57.8249,52.09182 -140.1581,75.71263 -216.8046,62.19967 -61.26,-10.80029 -118.3499,-44.87911 -155.906,-94.46717 -37.5561,-49.58805 -54.9068,-114.3119 -45.9214,-175.86432 8.1847,-56.067016 37.4527,-107.9739023 77.6069,-147.950592 40.1543,-39.976689 90.7548,-68.515858 144.2045,-87.321008 106.8993,-37.61029 222.8442,-37.49884 336.1666,-37.66403 l 561.8037,-0.81892 c 125.188,-0.18248 252.9925,-1.92043 372.2259,36.23003 59.6168,19.07524 116.5647,48.747991 162.0166,91.784564 45.4518,43.0365738 78.8576,100.18349 87.3022,162.205296 8.624,63.3395 -9.9447,130.06096 -50.6239,179.37089 -40.6792,49.30993 -102.9865,80.29256 -166.8809,82.23304 -48.3513,1.46843 -96.6895,-13.21502 -137.4935,-39.19644 -40.8041,-25.98141 -74.165,-62.95355 -98.1384,-104.9688 -47.9467,-84.0305 -57.6934,-185.445727 -46.508,-281.544122 16.513,-141.870218 78.5115,-280.037978 182.1785,-378.287658 103.6669,-98.24967 249.9717,-153.37829 391.7871,-136.401 96.0753,11.50156 187.4729,55.21323 259.2354,120.12001 71.7625,64.90678 123.997,150.43939 152.5235,242.90013 57.0529,184.9214728 17.4475,391.43008 -80.9929,558.04484 -120.6663,204.23314 -322.0891,351.1657 -539.4851,446.0894 -82.8176,36.16145 -169.1539,65.73289 -258.6048,78.57599 -89.4509,12.84309 -182.4038,8.45145 -267.5911,-21.70705 -47.4514,-16.79901 -93.1721,-42.33582 -124.9625,-81.36406 -15.8953,-19.51412 -28.0567,-42.23674 -34.1906,-66.64647 -6.1339,-24.40973 -6.1085,-50.51533 1.3392,-74.55678 8.8185,-28.4664 27.8669,-53.30703 51.8769,-70.95996 24.0099,-17.65293 52.7833,-28.31347 82.2561,-32.72393 58.9458,-8.82094 118.9028,6.81517 174.4831,28.33821 134.4725,52.07346 254.8662,140.01278 345.376,252.27347"
       style="fill:none;fill-rule:evenodd;stroke:#000000;stroke-width:70;stroke-linecap:round;stroke-linejoin:round;stroke-miterlimit:4;stroke-dasharray:none;stroke-opacity:1" />
    <path
       style="color:#000000;font-style:normal;font-variant:normal;font-weight:normal;font-stretch:normal;font-size:medium;line-height:normal;font-family:sans-serif;text-indent:0;text-align:start;text-decoration:none;text-decoration-line:none;text-decoration-style:solid;text-decoration-color:#000000;letter-spacing:normal;word-spacing:normal;text-transform:none;direction:ltr;block-progression:tb;writing-mode:lr-tb;baseline-shift:baseline;text-anchor:start;white-space:normal;clip-rule:nonzero;display:inline;overflow:visible;visibility:visible;opacity:1;isolation:auto;mix-blend-mode:normal;color-interpolation:sRGB;color-interpolation-filters:linearRGB;solid-color:#000000;solid-opacity:1;fill:#000000;fill-opacity:1;fill-rule:evenodd;stroke:none;stroke-width:70;stroke-linecap:round;stroke-linejoin:round;stroke-miterlimit:4;stroke-dasharray:none;stroke-dashoffset:0;stroke-opacity:1;color-rendering:auto;image-rendering:auto;shape-rendering:auto;text-rendering:auto;enable-background:accumulate"
       d="m -1389.0977,2381.5605 c -134.1516,0.43 -265.4483,57.1422 -362.4472,149.0723 -61.8246,58.5939 -109.3781,130.007 -142.3418,207.6875 -18.1121,-73.0153 -49.9845,-142.8512 -98.3125,-202.1621 -36.6722,-45.0062 -82.2811,-83.2276 -134.6992,-109.957 -52.4751,-26.7585 -111.3317,-41.6279 -171.0078,-40.8516 -58.8586,0.7657 -116.5222,16.7213 -167.7598,44.0801 -51.1829,27.3295 -95.5432,65.677 -131.1778,110.4668 -54.6046,68.6336 -87.5961,150.7426 -103.2109,235.3984 -80.3365,2.4858 -162.0452,10.5748 -241.0781,38.3809 -57.384,20.1894 -112.6126,51.0601 -157.2832,95.5332 -44.863,44.6647 -78.0855,102.8863 -87.5469,167.6992 -10.4222,71.3951 9.3809,144.9138 52.6543,202.0508 43.2032,57.0444 107.7344,95.4642 177.7305,107.8047 87.7352,15.468 180.1159,-11.0358 246.3066,-70.6641 36.8095,-33.16 64.2345,-75.4554 80.2871,-121.7422 2.06,3.2257 4.0332,6.4954 6.1778,9.6778 34.801,51.6424 80.29,96.5591 134.3046,129.1464 54.0762,32.6247 116.2212,52.4212 180.1348,54.7559 66.3501,2.4237 132.1656,-14.076 190.0391,-44.918 57.8033,-30.8046 107.1172,-75.4102 145.1113,-127.748 16.4175,-22.6155 30.4781,-46.5437 42.5645,-71.3418 8.7325,30.8186 20.8695,60.8147 37.1132,89.2832 26.52,46.4782 63.5374,87.7275 109.7403,117.1465 46.328,29.4987 101.2186,46.363 157.3535,44.6582 74.5031,-2.2627 145.5527,-37.6539 192.8164,-94.9453 47.2147,-57.2322 68.28,-133.1156 58.3066,-206.3653 -9.7215,-71.4002 -47.4508,-135.113 -97.9179,-182.8984 -50.2181,-47.5496 -111.927,-79.3908 -175.416,-99.7051 -61.046,-19.5325 -123.2932,-29.0276 -185.4102,-33.6582 29.6612,-74.0589 73.519,-141.8377 130.6738,-196.0058 96.4781,-91.4365 233.4352,-142.6294 363.5508,-127.0528 88.2847,10.569 173.3222,51.0926 239.918,111.3262 66.684,60.3135 115.78591,140.4917 142.55661,227.2617 53.54358,173.5469 16.40745,370.6719 -77.68161,529.9219 -115.7291,195.8766 -310.8342,339.0203 -523.3574,431.8164 -1.6101,0.703 -3.2358,1.3572 -4.8477,2.0547 -92.3647,-107.8709 -211.4233,-192.3587 -343.9023,-243.6602 -58.1615,-22.5225 -123.9323,-40.5454 -192.3008,-30.3144 -34.3394,5.1387 -68.465,17.5642 -97.8086,39.1386 -29.517,21.702 -53.247,52.2256 -64.5782,88.8028 -9.5602,30.8609 -9.4285,63.291 -1.8515,93.4433 7.5476,30.0355 22.2232,57.1692 41,80.2207 37.4466,45.9724 89.115,74.0914 140.418,92.2539 91.7302,32.4749 190.3078,36.8448 284.2461,23.3575 93.796,-13.467 183.0568,-44.2136 267.6367,-81.1446 222.2687,-97.0513 430.0097,-247.7717 555.61325,-460.3613 102.79178,-173.9796 144.86498,-389.8719 84.30273,-586.168 -30.2822,-98.1516 -85.64927,-189.0389 -162.49028,-258.539 -76.9294,-69.58 -174.6868,-116.4798 -278.5527,-128.9141 -19.1894,-2.2972 -38.4116,-3.3837 -57.5762,-3.3223 z m -907.8984,73.7813 c 47.3778,-0.6163 95.3955,11.3432 138.2988,33.2207 42.9601,21.9065 81.2753,53.8201 112.2325,91.8125 44.595,54.7296 73.6709,121.951 88.7558,192.9551 -24.7731,-0.1312 -49.5373,-0.1566 -73.8887,-0.1211 l -561.8046,0.8183 c -11.5868,0.017 -23.2861,0.042 -35.002,0.084 14.8271,-69.9439 43.0526,-136.2242 86.3398,-190.6328 30.1121,-37.8484 67.4004,-69.8901 109.3711,-92.3008 41.9161,-22.3814 88.9633,-35.228 135.6973,-35.8359 z m 312.4649,387.8301 c 12.419,0.018 24.783,0.1233 37.1367,0.2539 0.3888,4.6364 0.7825,9.2737 1.0605,13.916 6.7353,112.4861 -19.1907,228.176 -83.5312,316.8066 -32.1621,44.304 -73.7961,81.7358 -121.3828,107.0957 -47.5166,25.3226 -101.5726,38.676 -154.5645,36.7403 -51.0616,-1.8653 -102.0915,-17.9317 -146.5273,-44.7403 a 35.0035,35.0035 0 0 0 -0,0 c -44.4976,-26.8456 -82.9219,-64.5588 -112.416,-108.3261 -59.0053,-87.5603 -81.862,-198.9315 -75.0352,-307.4219 0.2788,-4.4309 0.6671,-8.856 1.045,-13.2813 15.1075,-0.1175 30.2575,-0.1653 45.4472,-0.1875 l 561.8047,-0.8183 c 15.6847,-0.023 31.3467,-0.06 46.9649,-0.037 z m -724.5508,2.6386 c -0.1793,2.4297 -0.4195,4.8605 -0.5723,7.2891 -4.7399,75.3255 3.1106,152.7155 26.4316,225.3066 a 35.0035,35.0035 0 0 0 0.029,4.9903 c 4.6751,66.4044 -23.4705,136.1398 -72.9296,180.6953 -49.4591,44.5555 -121.7432,65.2924 -187.3008,53.7344 -52.5239,-9.2601 -102.1731,-38.9972 -134.0821,-81.1289 -31.8387,-42.039 -46.738,-97.9681 -39.1894,-149.6778 6.908,-47.3211 32.2226,-92.9144 67.668,-128.2031 35.6379,-35.4803 81.6095,-61.6864 131.125,-79.1074 65.2647,-22.9621 135.9251,-30.9829 208.8203,-33.8985 z m 851.9843,0.5821 c 64.6819,3.8682 127.612,12.3457 187.1094,31.3828 55.7445,17.8363 107.9336,45.3397 148.6192,83.8633 40.4365,38.2878 69.5178,88.8683 76.6855,141.5117 7.2747,53.4293 -8.7977,110.9891 -42.9414,152.3769 -34.0947,41.3285 -87.6596,67.9032 -140.9453,69.5215 -40.5678,1.232 -82.3529,-11.2703 -117.6328,-33.7343 -35.4054,-22.5439 -65.1103,-55.2409 -86.5371,-92.793 -42.9512,-75.2755 -52.731,-169.1801 -42.1426,-260.1504 3.6098,-31.0135 9.6309,-61.7983 17.7851,-91.9785 z m -194.082,703.7363 c 38.6043,1.562 78.9967,12.8613 118.7461,28.2539 114.0761,44.1751 217.7678,115.5567 300.1816,206.0293 -57.6054,21.2125 -116.2417,37.7677 -175.7285,46.3086 -84.9635,12.1988 -172.2911,7.7855 -250.9355,-20.0566 -43.5998,-15.4355 -83.3717,-38.3904 -109.5059,-70.4746 -13.0138,-15.9767 -22.6626,-34.2884 -27.3828,-53.0723 -4.6908,-18.6672 -4.509,-38.4478 0.8262,-55.6699 6.3059,-20.3556 20.6747,-39.5131 39.1777,-53.1172 18.6762,-13.7314 42.0969,-22.6264 66.7031,-26.3086 12.3808,-1.8527 25.0499,-2.4132 37.918,-1.8926 z"
       id="path4498-7-1-0-3-3-6"
       inkscape:connector-curvature="0" />
  </g>
</svg>
