<?xml version="1.0" encoding="UTF-8" standalone="no"?>
<!-- Created with Inkscape (http://www.inkscape.org/) -->

<svg
   xmlns:dc="http://purl.org/dc/elements/1.1/"
   xmlns:cc="http://creativecommons.org/ns#"
   xmlns:rdf="http://www.w3.org/1999/02/22-rdf-syntax-ns#"
   xmlns:svg="http://www.w3.org/2000/svg"
   xmlns="http://www.w3.org/2000/svg"
   xmlns:sodipodi="http://sodipodi.sourceforge.net/DTD/sodipodi-0.dtd"
   xmlns:inkscape="http://www.inkscape.org/namespaces/inkscape"
   width="2000"
   height="2048"
   id="svg2992"
   version="1.1"
   inkscape:version="0.91 r13725"
   sodipodi:docname="ക്കൂ.svg">
  <defs
     id="defs5498">
    <inkscape:path-effect
       effect="spiro"
       id="path-effect3846"
       is_visible="true" />
    <inkscape:path-effect
       effect="spiro"
       id="path-effect3801"
       is_visible="true" />
    <inkscape:path-effect
       is_visible="true"
       id="path-effect4500-0-5-18-7-0"
       effect="spiro" />
    <inkscape:path-effect
       is_visible="true"
       id="path-effect4500-0-5-18-7-0-3"
       effect="spiro" />
    <inkscape:path-effect
       is_visible="true"
       id="path-effect4500-0-5-18-7-0-4"
       effect="spiro" />
    <inkscape:path-effect
       is_visible="true"
       id="path-effect4500-0-5-18-7-0-4-3"
       effect="spiro" />
    <inkscape:path-effect
       is_visible="true"
       id="path-effect4500-0-5-18-7-0-4-8"
       effect="spiro" />
    <inkscape:path-effect
       is_visible="true"
       id="path-effect4500-0-5-18-7-0-4-8-2"
       effect="spiro" />
    <inkscape:path-effect
       is_visible="true"
       id="path-effect4500-0-5-18-7-0-4-1"
       effect="spiro" />
    <inkscape:path-effect
       is_visible="true"
       id="path-effect4500-0-5-18-7-0-4-1-9"
       effect="spiro" />
    <inkscape:path-effect
       is_visible="true"
       id="path-effect4500-0-5-18-7-0-4-1-8"
       effect="spiro" />
    <inkscape:path-effect
       is_visible="true"
       id="path-effect4500-0-5-18-7-0-4-8-0"
       effect="spiro" />
    <inkscape:path-effect
       is_visible="true"
       id="path-effect4500-0-5-18-7-0-4-8-0-7"
       effect="spiro" />
    <inkscape:path-effect
       is_visible="true"
       id="path-effect4500-0-5-18-7-0-4-4"
       effect="spiro" />
    <inkscape:path-effect
       is_visible="true"
       id="path-effect4500-0-5-18-7-0-4-7"
       effect="spiro" />
    <inkscape:path-effect
       is_visible="true"
       id="path-effect4500-0-5-18-7-0-4-18"
       effect="spiro" />
  </defs>
  <sodipodi:namedview
     inkscape:window-height="845"
     inkscape:window-width="1600"
     inkscape:pageshadow="2"
     inkscape:pageopacity="0.0"
     borderopacity="1.0"
     bordercolor="#666666"
     pagecolor="#ffffff"
     id="base"
     showgrid="true"
     showguides="true"
     inkscape:guide-bbox="true"
     inkscape:zoom="0.32102648"
     inkscape:cx="-1883.8924"
     inkscape:cy="-716.32284"
     inkscape:window-x="1600"
     inkscape:window-y="0"
     inkscape:current-layer="layer1"
     inkscape:window-maximized="1">
    <sodipodi:guide
       orientation="horizontal"
       position="0,600"
       id="guide5596" />
    <inkscape:grid
       type="xygrid"
       id="grid3769"
       empspacing="3"
       visible="true"
       enabled="true"
       snapvisiblegridlinesonly="true"
       spacingx="4px"
       units="px"
       dotted="true"
       spacingy="4px" />
    <sodipodi:guide
       orientation="0,1"
       position="-1040,1600"
       id="guide2985" />
    <sodipodi:guide
       position="6720,1724"
       orientation="0,1"
       id="guide4175"
       inkscape:label=""
       inkscape:color="rgb(0,0,255)" />
  </sodipodi:namedview>
  <metadata
     id="metadata5594">
    <rdf:RDF>
      <cc:Work
         rdf:about="">
        <dc:format>image/svg+xml</dc:format>
        <dc:type
           rdf:resource="http://purl.org/dc/dcmitype/StillImage" />
        <dc:title />
      </cc:Work>
    </rdf:RDF>
  </metadata>
  <g
     inkscape:label="Layer 1"
     inkscape:groupmode="layer"
     id="layer1"
     transform="translate(0,1048)">
    <path
       sodipodi:nodetypes="aaaaacaassaaaaascsassasc"
       inkscape:connector-curvature="0"
       inkscape:original-d="m -1748.3334,-575.47413 c 190.6371,-7.79532 369.9421,242.18871 374.4315,432.93225 4.7,199.688582 -170.6384,478.88647 -370.2334,471.17492 -190.4627,-7.35872 -321.6054,-284.973796 -317.5495,-475.53541 3.7658,-176.92912 136.53,-421.34137 313.3514,-428.57176 z M -2054.563,63.988109 c 0,0 -159.9874,279.308291 -290.6518,266.023531 -106.7421,-10.85256 -218.6421,-157.58887 -188.8422,-260.659845 52.0672,-180.088485 244.8658,-208.782405 522.0781,-209.093675 l 681.6575,-0.7654 c 173.9354,-0.1953 394.4695,67.790176 425.55476,225.248075 20.53775,104.030985 -98.38026,258.353615 -203.51066,244.502795 -182.627,-24.06091 -277.9203,-323.5595066 -231.4566,-501.80837 57.9457,-222.29729 327.7374,-409.51942 557.42356,-405.26912 152.83328,2.82815 350.82402,130.66278 360.67919,283.20421 7.098,109.86505 -155.17509,230.339225 -231.36639,235.703195 l -25.7801,3.78619 19.7041,1.8205 c 63.9662,5.90996 315.13517,188.724025 288.76742,333.350755 -33.09023,181.49938 -351.97099,262.6129 -486.70528,263.53531 l -1250.8364,8.56346 c -105.6233,0.72312 -420.447,6.82055 -433.8506,160.42364 -9.3902,107.61098 166.2781,163.08337 279.8863,163.33511 l 1893.38749,4.1955"
       inkscape:path-effect="#path-effect4500-0-5-18-7-0-4"
       id="path4498-7-1-0-3-4-2"
       d="m -1748.3334,-575.47413 c 53.2494,-4.96568 107.5812,6.47893 155.4737,30.27934 47.8925,23.80041 89.3974,59.69063 121.921,102.14495 65.0471,84.90866 93.0875,193.62011 97.0368,300.50796 4.1699,112.859132 -18.4027,229.705157 -82.7535,322.51436 -32.1754,46.4046 -74.519,86.09272 -124.2557,112.8303 -49.7368,26.73759 -106.927,40.21934 -163.2242,35.83026 -52.6026,-4.10104 -103.5837,-23.69375 -146.8618,-53.87407 -43.2782,-30.18032 -78.9457,-70.72601 -105.5653,-116.2809 -53.2392,-91.109789 -69.6421,-199.952863 -65.1224,-305.38044 4.1418,-96.61084 25.9104,-194.53053 78.3853,-275.75364 26.2374,-40.61156 60.0009,-76.59837 100.129,-103.56949 40.128,-26.97111 86.6962,-44.75933 134.8371,-49.24863 z M -2054.563,63.988109 c 4.7731,75.133121 -26.1076,151.761411 -81.6427,202.590751 -55.5351,50.82934 -134.591,74.82227 -209.0091,63.43278 -59.6985,-9.1367 -116.2229,-40.93805 -152.5032,-89.2198 -36.2803,-48.28175 -51.064,-112.86904 -36.339,-171.440045 12.3227,-49.01567 44.1265,-91.83587 83.9983,-122.894237 39.8719,-31.058367 87.4983,-51.081348 136.4773,-63.548928 97.9581,-24.93515 200.5207,-22.53701 301.6025,-22.65051 l 681.6575,-0.7654 c 87.9229,-0.0987 178.322,1.42086 259.5955,34.96272 40.6368,16.770924 78.37317,41.352138 107.97648,73.852197 29.6033,32.50005894 50.82182,73.058852 57.98278,116.433158 9.77087,59.182725 -7.809,122.201935 -46.33842,168.175285 -38.52941,45.97335 -97.22454,74.24514 -157.17224,76.32751 -54.6015,1.89666 -109.1362,-17.38503 -152.502,-50.61646 -43.3659,-33.23143 -75.7231,-79.86943 -94.8737,-131.03757 -38.3011,-102.336282 -23.6153,-218.288154 15.9191,-320.15434 44.1373,-113.72625 119.088,-215.93534 216.9124,-288.81989 97.8244,-72.88454 218.52276,-115.67713 340.51116,-116.44923 84.88415,-0.53725 171.62039,19.90704 240.81712,69.07431 34.59837,24.58363 64.42391,56.14343 85.62415,92.91233 21.20024,36.7689 33.62788,78.77903 34.23792,121.21757 0.88002,61.22095 -23.62541,122.42002 -66.51579,166.11435 -42.89038,43.69433 -103.62386,69.331926 -164.8506,69.588845 l -25.7801,3.78619 19.7041,1.8205 c 43.1465,3.986389 86.63359,8.616178 127.74921,22.291606 41.11562,13.675428 79.52968,36.4670973 109.08286,68.154974 29.55317,31.687877 49.82074,71.817765 58.33931,114.302415 8.51858,42.48465 5.5007,86.93894 -6.40396,128.60176 -13.71891,48.01216 -39.10816,92.52251 -72.68924,129.47772 -33.58107,36.95521 -75.22804,66.29463 -120.61265,87.118 -90.76924,41.64674 -193.53829,46.25589 -293.40339,46.93959 l -1250.8364,8.56346 c -84.8621,0.58098 -170.4482,-4.89698 -254.1957,8.82423 -41.8738,6.8606 -83.5645,20.04756 -117.7251,45.21758 -17.0804,12.58501 -32.0947,28.14553 -43.1017,46.28292 -11.0071,18.1374 -17.9245,38.90213 -18.8281,60.09891 -1.2935,30.34176 9.9079,60.56857 28.5258,84.56172 18.6179,23.99315 44.2902,41.97875 72.1745,54.01063 55.7684,24.06377 118.4475,24.62817 179.186,24.76276 l 1893.38749,4.1955"
       style="fill:none;fill-rule:evenodd;stroke:#000000;stroke-width:140;stroke-linecap:round;stroke-linejoin:round;stroke-miterlimit:4;stroke-dasharray:none;stroke-opacity:1" />
    <path
       sodipodi:nodetypes="aaaaacaassaaaaascsassasc"
       inkscape:connector-curvature="0"
       inkscape:original-d="m 1439.4264,441.07311 c 128.6616,-0.73744 252.9099,159.91053 256.4011,288.52694 3.817,140.61856 -122.1539,332.68875 -262.8022,330.19435 -136.8585,-2.4271 -249.5237,-193.38736 -244.1677,-330.16255 4.9845,-127.29109 123.1821,-287.82861 250.5688,-288.55874 z m -233.0056,438.2548 c 0,0 -110.7793,188.81259 -200.0589,180.02549 C 932.08611,1052.043 854.77647,952.55255 872.31627,880.00821 904.62674,746.37287 1046.1291,699.22194 1242.9022,698.93545 l 373.1267,-0.5433 c 123.4643,-0.1798 379.6537,44.36996 412.8043,192.53961 16.434,73.45342 -69.8332,183.38674 -144.4578,173.55504 -129.6338,-17.0791 -205.6421,-232.15345 -164.2945,-356.19787 58.2632,-174.79224 304.4861,-292.12385 486.3582,-262.63686 79.4537,12.88183 166.2195,95.5053 165.3374,175.9917 -0.8565,78.14325 -110.1477,163.50137 -164.2304,167.30887 l -18.2995,2.68755 13.9865,1.29224 c 45.4051,4.19506 223.6919,133.96173 204.9754,236.62187 -23.4884,128.8334 -249.8391,186.4101 -345.4773,187.0648 l -887.8795,6.0787 c -74.9744,0.5132 -298.44526,4.8413 -307.95952,113.8732 -6.66543,76.3854 118.02895,115.7613 198.67132,115.9399 l 1343.9805,2.9781"
       inkscape:path-effect="#path-effect4500-0-5-18-7-0-4-8"
       id="path4498-7-1-0-3-4-2-4"
       d="m 1439.4264,441.07311 c 35.5279,-0.46195 70.9979,8.42801 102.6603,24.55062 31.6624,16.12261 59.531,39.3766 81.9965,66.90378 44.9311,55.05435 67.4933,126.138 71.7443,197.07254 4.7415,79.11924 -13.3255,161.15675 -59.9386,225.26256 -23.3066,32.0529 -53.5085,59.25329 -88.4936,77.87109 -34.9852,18.6178 -74.7658,28.5076 -114.37,27.0607 -38.1535,-1.3939 -75.7116,-13.2793 -108.4133,-32.9828 -32.7018,-19.7035 -60.5686,-47.1014 -81.9286,-78.74598 -42.72,-63.28916 -58.624,-142.22685 -53.8258,-218.43377 4.4044,-69.95266 26.2915,-140.01874 69.9723,-194.83445 21.8404,-27.40786 48.9545,-50.74555 79.8787,-67.23467 30.9241,-16.48912 65.6752,-26.03398 100.7178,-26.48962 z m -233.0056,438.2548 c 3.5506,51.5272 -17.7739,104.20734 -56.1672,138.75609 -38.3933,34.5486 -93.0233,50.217 -143.8917,41.2694 -40.66202,-7.1523 -78.5678,-29.7432 -103.51581,-62.63927 -24.948,-32.89609 -36.48917,-75.85201 -30.52982,-116.70592 5.43064,-37.22937 24.88301,-71.69092 51.56303,-98.21816 26.68002,-26.52723 60.29479,-45.45003 95.7941,-57.91257 70.9987,-24.92508 147.9821,-24.83247 223.2288,-24.94203 l 373.1267,-0.5433 c 83.1926,-0.12113 168.1124,-1.38946 247.4052,23.78337 39.6464,12.58641 77.5447,32.22724 107.7501,60.826 30.2054,28.59877 52.3396,66.67413 57.649,107.93024 5.3938,41.91261 -7.3106,85.86498 -34.3172,118.36734 -27.0066,32.5024 -67.9364,53.0519 -110.1406,55.1877 -38.8958,1.9684 -77.9718,-11.3953 -109.0252,-34.8993 -31.0535,-23.504 -54.1998,-56.74064 -67.8069,-93.23176 -27.2141,-72.98224 -16.1823,-155.6639 12.5376,-228.06681 37.328,-94.10372 105.0193,-176.96595 193.0876,-226.89456 88.0683,-49.9286 196.4306,-65.25335 293.2706,-35.7423 40.9176,12.46923 79.9316,32.94821 110.3225,63.05002 30.391,30.1018 51.6732,70.29708 55.0149,112.94168 3.4581,44.1301 -13.0286,89.44238 -44.037,121.03201 -31.0084,31.58962 -76.0067,48.91487 -120.1934,46.27686 l -18.2995,2.68755 13.9865,1.29224 c 30.6266,2.82965 61.495,6.11601 90.68,15.82322 29.1851,9.7072 56.4525,25.88538 77.4302,48.37833 20.9777,22.49296 35.3642,50.97829 41.4109,81.13511 6.0467,30.15682 3.9046,61.71175 -4.5457,91.28521 -9.7381,34.0804 -27.7601,65.6751 -51.5969,91.9069 -23.8368,26.2319 -53.399,47.0578 -85.6143,61.8389 -64.4306,29.562 -137.379,32.8337 -208.2661,33.319 l -887.8795,6.0787 c -60.2376,0.4124 -120.9889,-3.476 -180.43533,6.2637 -29.72319,4.8698 -59.31646,14.2303 -83.56467,32.0967 -12.1241,8.9332 -22.78171,19.9785 -30.59483,32.8529 -7.81311,12.8744 -12.72327,27.6138 -13.36469,42.6599 -0.91815,21.5375 7.03294,42.9933 20.24843,60.0243 13.21549,17.031 31.4385,29.7977 51.23151,38.3383 39.58603,17.0811 84.07748,17.4818 127.19138,17.5773 l 1343.9805,2.9781"
       style="fill:none;fill-rule:evenodd;stroke:#000000;stroke-width:120;stroke-linecap:round;stroke-linejoin:round;stroke-miterlimit:4;stroke-dasharray:none;stroke-opacity:1" />
    <path
       style="color:#000000;font-style:normal;font-variant:normal;font-weight:normal;font-stretch:normal;font-size:medium;line-height:normal;font-family:sans-serif;text-indent:0;text-align:start;text-decoration:none;text-decoration-line:none;text-decoration-style:solid;text-decoration-color:#000000;letter-spacing:normal;word-spacing:normal;text-transform:none;direction:ltr;block-progression:tb;writing-mode:lr-tb;baseline-shift:baseline;text-anchor:start;white-space:normal;clip-rule:nonzero;display:inline;overflow:visible;visibility:visible;opacity:1;isolation:auto;mix-blend-mode:normal;color-interpolation:sRGB;color-interpolation-filters:linearRGB;solid-color:#000000;solid-opacity:1;fill:#000000;fill-opacity:1;fill-rule:evenodd;stroke:none;stroke-width:120;stroke-linecap:round;stroke-linejoin:round;stroke-miterlimit:4;stroke-dasharray:none;stroke-dashoffset:0;stroke-opacity:1;color-rendering:auto;image-rendering:auto;shape-rendering:auto;text-rendering:auto;enable-background:accumulate"
       d="m 3919.2933,1967.5221 c -73.2423,1.8533 -145.6198,22.4329 -209.2793,58.5234 -65.3644,37.0571 -120.0439,89.1482 -161.9668,149.8574 -12.9587,-29.881 -29.7727,-58.4041 -51.043,-84.4667 -27.3683,-33.5347 -61.4911,-62.1853 -101.2559,-82.4336 -39.8615,-20.2977 -84.6125,-31.677 -130.666,-31.0782 -45.4193,0.5906 -89.259,12.7943 -128.1679,33.541 -38.816,20.6972 -71.994,49.4317 -98.5723,82.7852 -34.3073,43.0528 -56.732,92.4729 -69.711,143.5898 -46.4136,2.7616 -94.4118,9.4239 -142.3964,26.2696 -42.2403,14.829 -83.7927,37.7438 -118.2246,71.9785 -34.764,34.5649 -61.0078,79.8588 -68.629,132.1055 -8.4235,57.7469 7.3331,115.7881 42.0938,161.623 34.638,45.6733 85.3014,75.6902 140.9277,85.4747 69.8573,12.2876 141.6967,-8.3163 194.4219,-55.7618 13.3645,-12.0262 25.127,-25.4649 35.1856,-39.9648 19.8233,21.3065 42.5984,40.1359 68.0722,55.4844 40.9603,24.6794 88.034,39.755 137.1875,41.5507 51.0378,1.8647 100.8904,-10.7133 144.7481,-34.0527 38.4756,-20.4753 71.5573,-48.7502 98.2363,-81.7597 16.6926,27.8635 38.4032,53.113 65.3203,73.4863 41.64,31.5169 93.6574,49.7462 148.2695,46.9824 59.6503,-3.0187 115.1501,-30.9056 153.2559,-76.7656 38.0877,-45.8384 55.2717,-105.3622 47.6777,-164.3712 -7.4073,-57.559 -37.0207,-107.0245 -75.9062,-143.8418 -38.441,-36.3962 -84.5519,-59.7466 -130.8457,-74.4433 -20.9486,-6.6505 -41.8793,-11.5931 -62.7012,-15.3574 32.6041,-47.7345 74.9403,-88.3007 123.8711,-116.041 74.2813,-42.1124 166.8288,-54.7294 246.1895,-30.545 33.5676,10.2294 63.7728,26.6757 85.5898,48.2852 21.3679,21.1645 35.3988,49.2079 37.4199,75 2.0479,26.1339 -8.6738,55.6069 -27.0371,74.3144 -18.3633,18.7076 -47.6332,29.9763 -73.8008,28.4141 a 60.006,60.006 0 0 0 -12.2929,0.5313 l -18.3008,2.6875 a 60.006,60.006 0 0 0 3.1992,119.1074 l 13.9863,1.2929 c 30.0665,2.7779 56.253,6.0234 77.2637,13.0118 20.8609,6.9385 39.4109,18.3452 52.4883,32.3671 13.0768,14.0215 22.5889,32.6969 26.4609,52.0079 3.9236,19.5683 2.6804,41.6977 -3.4082,63.0059 -7.0567,24.6964 -20.4771,48.4138 -38.3105,68.039 -17.8617,19.6564 -40.7854,35.9815 -66.2305,47.6563 -50.354,23.1034 -114.3334,27.3808 -183.6563,27.8554 l -887.8789,6.0782 c -57.3795,0.3928 -121.3291,-4.1555 -189.7265,7.0507 -35.5587,5.8259 -74.4955,17.2453 -109.4551,43.0039 -17.6202,12.9829 -33.8252,29.4785 -46.2969,50.0293 -12.5661,20.7065 -20.8903,44.834 -22.0156,71.2325 -1.6181,37.9581 11.7586,72.2565 32.791,99.3613 20.6896,26.6629 47.3997,44.7961 74.8633,56.6465 54.2881,23.4249 107.4339,22.3902 150.8281,22.4863 l 1343.9805,2.9785 a 60.006,60.006 0 1 0 0.2676,-120 l -1343.9805,-2.9785 c -42.8336,-0.095 -78.6706,-1.9287 -103.5547,-12.666 -12.1224,-5.2308 -21.8582,-12.6322 -27.5996,-20.0313 -5.3985,-6.9571 -7.9232,-15.5687 -7.7051,-20.6855 0.1575,-3.6937 1.6529,-9.0456 4.7129,-14.0879 3.1545,-5.198 8.2646,-10.7941 14.8926,-15.6777 13.5368,-9.9742 33.7861,-17.2758 57.6738,-21.1895 50.4954,-8.2731 108.0489,-5.0446 171.1446,-5.4765 l 887.8808,-6.0782 c 72.4513,-0.496 154.3678,-2.7626 232.875,-38.7832 38.9855,-17.8874 75.1861,-43.2141 104.998,-76.0215 29.8402,-32.8383 52.4634,-72.309 64.8828,-115.7734 10.8121,-37.8388 13.8534,-78.8211 5.6836,-119.5664 -8.2214,-41.0027 -27.4828,-79.2973 -56.3613,-110.2618 -12.621,-13.5326 -26.6555,-25.0434 -41.5254,-34.8789 41.5382,-44.1672 62.6444,-103.785 57.8965,-164.375 -4.6623,-59.497 -33.1953,-111.8457 -72.6094,-150.8847 -38.9648,-38.5942 -86.7871,-63.1054 -135.0547,-77.8145 -42.8697,-13.0641 -87.1269,-18.694 -131.0722,-17.582 z m -652.6504,130.3926 c 25.0023,-0.3251 51.191,6.0739 74.6543,18.0215 23.56,11.9968 45.1756,29.8553 62.7382,51.375 16.1015,19.7292 28.7638,42.8926 38.2872,67.9277 l -347.1426,0.5058 c 9.2598,-24.5032 21.484,-47.2254 37.0097,-66.7089 17.1025,-21.4622 38.1532,-39.4025 61.1856,-51.6836 22.9392,-12.2315 48.6017,-19.1168 73.2676,-19.4375 z m 175.9101,257.3242 c 6.9174,-0.01 13.5508,0.077 20.3926,0.078 -0.8393,59.0716 -17.0856,117.0103 -49.1484,161.1055 -18.3022,25.1706 -41.9202,46.2296 -68.1524,60.1894 -26.1128,13.8962 -55.8216,21.0975 -83.9922,20.0683 -27.1534,-0.992 -55.1974,-9.6865 -79.6406,-24.414 a 60.006,60.006 0 0 0 0,-0 c -24.5482,-14.7908 -46.356,-36.0238 -63.1621,-60.9219 -29.2563,-43.3428 -43.7338,-98.8695 -44.3145,-155.5683 l 368.0176,-0.5352 z m -487.998,4.4023 c 0.5672,40.4725 6.379,81.3482 18.4433,120.7305 2.1988,32.2742 -12.3996,68.3209 -36.4433,89.957 -24.0614,21.652 -61.4835,32.385 -93.3633,26.7774 -25.6977,-4.5201 -50.8456,-19.6838 -66.1035,-39.8028 -15.1353,-19.9572 -22.4601,-47.8281 -18.9649,-71.789 3.2401,-22.2121 15.9001,-45.8406 34.4961,-64.3301 18.9283,-18.8198 44.6069,-33.7516 73.3653,-43.8477 27.1493,-9.5311 56.941,-14.7358 88.5703,-17.6953 z m 636.6797,0.5039 c 28.2406,3.0734 55.1852,8.0341 80.4804,16.0645 32.999,10.4761 62.6825,26.4058 84.6524,47.207 21.5252,20.3804 36.1813,47.0664 39.3926,72.0196 3.1936,24.8162 -5.0316,53.1969 -20.9571,72.3632 -15.9076,19.1448 -42.2653,32.3565 -67.0234,33.6094 -23.1795,1.1731 -49.3164,-7.3253 -69.7832,-22.8164 -20.7901,-15.7358 -37.8072,-39.5581 -47.7988,-66.3535 -16.6944,-44.7706 -14.3083,-99.1181 1.0371,-152.0938 z"
       id="path4498-7-1-0-3-4-2-4-7"
       inkscape:connector-curvature="0" />
    <path
       sodipodi:nodetypes="aaaaacaassaaaaaascsassasc"
       inkscape:connector-curvature="0"
       inkscape:original-d="m -4389.5639,-559.27952 c 193.7546,-1.11175 380.8629,241.07534 386.1205,434.97277 5.7481,211.991498 -183.9544,501.54958 -395.76,497.78922 -206.0985,-3.65904 -375.7634,-291.543906 -367.6977,-497.74128 7.5063,-191.89944 185.5028,-433.92 377.3372,-435.02071 z m -350.8884,660.69712 c 0,0 -166.8249,284.64702 -301.2734,271.39989 -111.8535,-11.02075 -228.276,-161.00906 -201.8622,-270.37429 48.6571,-201.463848 261.7487,-272.54688 558.0738,-272.97879 l 561.9001,-0.81906 c 185.9276,-0.27104 575.7298,66.23071 621.6514,290.26581 23.8525,116.36783 -119.8429,281.6853 -237.5422,265.64533 -184.5456,-25.14972 -236.524,-315.058393 -247.415,-500.9911 -3.8214,-65.23894 18.5115,-139.50238 65.6951,-184.71776 205.1883,-196.62907 555.4542,-367.60691 814.7229,-251.22408 88.6761,39.80572 137.8006,169.58367 120.9855,265.31872 -20.37,115.9748 -165.874,246.48875 -247.3185,252.228798 l -27.5576,4.051647 21.0627,1.94814 c 68.3764,6.324318 341.2998,202.856465 308.6771,356.722605 -39.7634,187.54586 -376.2383,243.47824 -520.2623,244.46534 l -1337.0781,9.1639 c -112.9057,0.77382 -465.7035,39.54109 -463.7634,209.2181 1.2392,108.37275 177.7428,126.54086 299.1838,126.81025 l 2023.9312,4.48964"
       inkscape:path-effect="#path-effect4500-0-5-18-7-0-4-1"
       id="path4498-7-1-0-3-4-2-6"
       d="m -4389.5639,-559.27952 c 53.5357,-0.69642 106.9829,12.72019 154.68,37.04185 47.6971,24.32166 89.6657,59.39486 123.4863,100.90058 67.6412,83.01144 101.5539,190.14128 107.9542,297.03034 7.1391,119.2275184 -19.9923,242.85818 -90.1608,339.51507 -35.0842,48.32845 -80.5657,89.35348 -133.2695,117.44 -52.7038,28.08651 -112.649,43.01422 -172.3297,40.83415 -57.4969,-2.1003 -114.0941,-20.03395 -163.3583,-49.75499 -49.2643,-29.72105 -91.229,-71.04214 -123.3822,-118.75459 -64.3065,-95.4249 -88.1838,-214.3882622 -80.9572,-329.2317 6.633,-105.41032 39.5306,-211.00691 105.2887,-293.65801 32.879,-41.32555 73.7107,-76.52441 120.2953,-101.39823 46.5846,-24.87383 98.9483,-39.27755 151.7532,-39.96447 z m -350.8884,660.69712 c 5.4653,77.64901 -26.5989,157.09036 -84.4335,209.19023 -57.8346,52.09986 -140.181,75.72439 -216.8399,62.20966 -61.2701,-10.80173 -118.3696,-44.8856 -155.9323,-94.48148 -37.5627,-49.59587 -54.9167,-114.33029 -45.9299,-175.89281 8.186,-56.076492 37.4593,-107.9920507 77.6206,-147.975165 40.1613,-39.983114 90.7707,-68.526595 144.2296,-87.334475 106.9176,-37.61574 222.8821,-37.50394 336.2236,-37.66915 l 561.9001,-0.81906 c 125.1442,-0.18242 252.9106,-1.82678 372.062,36.4361 59.5757,19.13143 116.4662,48.841074 161.9197,91.844013 45.4535,43.0029392 78.9321,100.026602 87.6697,161.985697 9.4628,67.10161 -11.5488,138.04074 -56.5493,188.7076 -45.0004,50.66686 -113.2945,79.95302 -180.9929,76.93773 -53.2372,-2.37119 -104.8988,-24.0067 -146.1554,-57.73663 -41.2567,-33.72993 -72.3079,-79.12861 -92.0284,-128.63537 -39.4411,-99.013503 -33.5488,-210.850489 -9.2312,-314.6191 14.9436,-63.76751 36.6087,-126.03569 65.6951,-184.71776 72.836,-146.94711 196.7359,-272.17432 351.3181,-326.97289 77.2911,-27.39929 161.229,-36.84943 242.304,-24.5414 81.0749,12.30804 159.0674,46.65727 221.1008,100.29021 38.1107,32.94978 70.219,73.17089 91.8236,118.68297 21.6046,45.51208 32.5088,96.36739 29.1619,146.63575 -4.2593,63.97278 -32.0856,126.11213 -76.9735,171.89128 -44.8879,45.779158 -106.4683,74.821474 -170.345,80.337518 l -27.5576,4.051647 21.0627,1.94814 c 46.5238,4.303095 93.3964,9.2354 137.8396,23.6499579 44.4432,14.414558 86.1718,38.4224511 118.4532,72.1995151 32.2813,33.777062 54.635,76.929562 63.5175,122.799792 8.8825,45.87023 4.4362,94.02142 -11.1332,138.07334 -17.1072,48.40303 -47.3504,91.77382 -85.2163,126.43912 -37.8659,34.6653 -83.1943,60.72522 -131.2737,78.7219 -96.1588,35.99337 -201.1003,38.60064 -303.7723,39.30432 l -1337.0781,9.1639 c -96.8961,0.66409 -195.1417,-6.01242 -289.8353,14.5402 -47.3468,10.27632 -94.0385,29.43781 -128.8257,63.15985 -17.3936,16.86102 -31.5339,37.28591 -39.8528,60.03731 -8.3189,22.75141 -10.6606,47.86822 -5.2496,71.48074 6.5427,28.55061 24.1697,53.87795 46.6959,72.6 22.5261,18.72204 49.7587,31.20546 77.9532,39.14358 56.389,15.87625 115.9535,14.93672 174.5347,15.06667 l 2023.9312,4.48964"
       style="fill:none;fill-rule:evenodd;stroke:#000000;stroke-width:70;stroke-linecap:round;stroke-linejoin:round;stroke-miterlimit:4;stroke-dasharray:none;stroke-opacity:1" />
    <path
       style="color:#000000;font-style:normal;font-variant:normal;font-weight:normal;font-stretch:normal;font-size:medium;line-height:normal;font-family:sans-serif;text-indent:0;text-align:start;text-decoration:none;text-decoration-line:none;text-decoration-style:solid;text-decoration-color:#000000;letter-spacing:normal;word-spacing:normal;text-transform:none;direction:ltr;block-progression:tb;writing-mode:lr-tb;baseline-shift:baseline;text-anchor:start;white-space:normal;clip-rule:nonzero;display:inline;overflow:visible;visibility:visible;opacity:1;isolation:auto;mix-blend-mode:normal;color-interpolation:sRGB;color-interpolation-filters:linearRGB;solid-color:#000000;solid-opacity:1;fill:#000000;fill-opacity:1;fill-rule:evenodd;stroke:none;stroke-width:69.99999237;stroke-linecap:round;stroke-linejoin:round;stroke-miterlimit:4;stroke-dasharray:none;stroke-dashoffset:0;stroke-opacity:1;color-rendering:auto;image-rendering:auto;shape-rendering:auto;text-rendering:auto;enable-background:accumulate"
       d="m -5708.5371,555.04297 c -60.3479,0.66577 -120.3981,11.75583 -177.0645,31.84375 -164.8581,58.44134 -294.6462,190.40927 -370.9824,344.41797 -12.3452,24.90665 -23.3261,50.41218 -33.1308,76.32811 -18.0761,-73.34807 -50.0192,-143.51858 -98.5508,-203.07811 -36.6781,-45.01256 -82.2926,-83.23958 -134.7188,-109.97266 -52.483,-26.76211 -111.3504,-41.63578 -171.0351,-40.85937 -58.8671,0.76578 -116.5379,16.72546 -167.7832,44.08789 -51.1907,27.33323 -95.559,65.68621 -131.1993,110.48242 -54.6149,68.64532 -87.6133,150.7681 -103.2304,235.43943 -80.3506,2.486 -162.0747,10.5747 -241.1211,38.3848 -57.3932,20.192 -112.6289,51.0674 -157.3067,95.5469 -44.8702,44.6711 -78.0978,102.9 -87.5605,167.7226 -10.4236,71.4054 9.382,144.9352 52.6621,202.0801 43.2099,57.0522 107.7497,95.4765 177.7559,107.8184 87.7475,15.4695 180.1434,-11.0378 246.3437,-70.6739 36.8187,-33.1677 64.2499,-75.4727 80.3047,-121.7715 2.063,3.2307 4.0377,6.5062 6.1855,9.6934 34.8068,51.6501 80.3035,96.5704 134.3262,129.1621 54.0844,32.6291 116.2393,52.4287 180.1621,54.7637 66.3598,2.4241 132.1842,-14.0776 190.0664,-44.9238 57.8121,-30.8088 107.1326,-75.4204 145.1329,-127.7657 15.5773,-21.4577 29.0453,-44.0917 40.7187,-67.5293 3.993,14.4426 8.729,28.762 14.3594,42.8965 21.6724,54.407 55.88,104.7555 102.3886,142.7793 46.6632,38.1501 105.0658,62.858 166.752,65.6055 78.8077,3.5101 156.4897,-29.8545 208.7187,-88.6602 52.1798,-58.7501 75.9786,-139.2651 65.0391,-216.8379 -10.0492,-71.2596 -47.8317,-134.8012 -98.2734,-182.5234 -50.1985,-47.492 -111.8304,-79.3689 -175.2735,-99.7422 -60.7157,-19.4975 -122.6327,-29.0442 -184.4336,-33.7383 10.2317,-28.5776 21.9933,-56.54052 35.42,-83.62888 69.3358,-139.88552 187.3461,-258.37154 331.6523,-309.52734 72.1584,-25.57977 150.4549,-34.29677 225.3574,-22.92578 74.8145,11.35764 146.8161,43.1863 203.4629,92.16211 34.8081,30.09443 63.8264,66.6242 83.0957,107.2168 19.2296,40.50886 28.7656,85.6217 25.8574,129.30078 -3.6878,55.38961 -28.1756,110.07581 -67.041,149.71291 -38.8653,39.637 -93.0588,65.1948 -148.3652,69.9707 a 35.003496,35.003496 0 0 0 -2.0801,0.2422 l -27.5586,4.0527 a 35.003496,35.003496 0 0 0 1.8692,69.4785 l 21.0625,1.9473 c 46.2281,4.2758 90.4614,9.1823 130.2636,22.0918 39.7104,12.8796 76.3535,34.2155 103.9493,63.0898 27.5698,28.8472 46.8811,66.139 54.4589,105.2715 7.599,39.2415 3.8253,81.2852 -9.7714,119.7559 -14.9773,42.3769 -41.8619,81.1722 -75.8497,112.2871 -34.0485,31.1707 -75.4557,55.1181 -119.9101,71.7578 -88.8488,33.2571 -189.4992,36.3832 -291.7422,37.084 l -1337.0781,9.164 c -95.1263,0.652 -195.8868,-6.6142 -297.0196,15.336 -51.4988,11.1774 -104.496,32.2283 -145.7636,72.2324 -20.7292,20.0946 -37.9716,44.7282 -48.3633,73.1484 -10.4445,28.5646 -13.6033,60.2955 -6.4941,91.3184 a 35.003496,35.003496 0 0 0 0,0 c 8.5933,37.499 30.8828,68.7961 58.4395,91.6992 27.3085,22.6968 59.0905,36.9771 90.8398,45.916 62.9249,17.7165 125.787,16.248 183.9414,16.377 l 2023.9316,4.4902 a 35.003496,35.003496 0 1 0 0.1543,-70 l -2023.9296,-4.4902 c -59.0081,-0.1309 -115.2738,0.2803 -165.127,-13.7559 -24.6397,-6.9372 -47.3245,-17.6237 -65.0684,-32.3711 -17.4949,-14.5405 -30.4587,-33.8984 -34.9511,-53.5 l 0,-0 c -3.7123,-16.2017 -2.1873,-34.705 4.0058,-51.6426 6.2462,-17.0826 17.284,-33.2984 31.3418,-46.9258 28.3068,-27.44 68.6939,-44.7127 111.8887,-54.0879 88.2545,-19.155 183.9845,-13.0679 282.6504,-13.7441 l 1337.0781,-9.1641 c 103.101,-0.7066 212.3338,-2.7938 315.8028,-41.5234 51.7043,-19.3535 100.9556,-47.5257 142.6386,-85.6856 41.7441,-38.2156 75.3451,-86.1625 94.5821,-140.5918 17.5418,-49.6331 22.6603,-103.8919 12.4941,-156.3906 -10.1873,-52.6079 -35.5832,-101.6213 -72.5762,-140.3281 -36.9668,-38.6797 -83.7811,-65.359 -132.957,-81.3086 -3.3025,-1.0711 -6.6106,-1.9722 -9.916,-2.9473 23.0069,-13.5421 44.2977,-30.059 63.1094,-49.2441 50.9104,-51.9213 82.0735,-121.5143 86.9042,-194.07032 3.7857,-56.85765 -8.4871,-113.45541 -32.4667,-163.9707 -23.9399,-50.43157 -59.1376,-94.34527 -100.5508,-130.1504 -67.42,-58.29006 -151.403,-95.15757 -238.7383,-108.41601 -27.2648,-4.13909 -54.7567,-5.99012 -82.1875,-5.6875 z m -984.5723,168.67383 c 47.3867,-0.61643 95.415,11.34533 138.3262,33.22656 42.9681,21.91024 81.2889,53.82924 112.252,91.82812 44.5929,54.72588 73.6726,121.93803 88.7636,192.93552 -24.8119,-0.139 -49.5073,-0.098 -73.8965,-0.062 l -561.9004,0.8203 c -11.5904,0.017 -23.294,0.04 -35.0136,0.082 14.8297,-69.95805 43.0588,-136.25251 86.3554,-190.6719 30.1178,-37.8549 67.4121,-69.90197 109.3907,-92.31641 41.9238,-22.38523 88.9799,-35.23373 135.7226,-35.84179 z m 312.4883,387.8945 c 12.4339,0.02 24.8133,0.1309 37.1816,0.2657 0.3887,4.6341 0.7808,9.2682 1.0586,13.9082 6.7366,112.5052 -19.1939,228.2154 -83.5468,316.8613 -32.1682,44.3115 -73.8107,81.749 -121.4063,107.1133 -47.5254,25.3269 -101.5901,38.6822 -154.5918,36.7461 -51.071,-1.8656 -102.1126,-17.933 -146.5566,-44.7461 -44.5059,-26.8503 -82.9378,-64.5708 -112.4375,-108.3457 -59.0167,-87.5753 -81.8788,-198.9658 -75.0508,-307.4746 0.2789,-4.4327 0.6669,-8.8602 1.0449,-13.2872 15.1126,-0.1175 30.2681,-0.1653 45.4629,-0.1875 l 561.9004,-0.8203 c 15.677,-0.023 31.3307,-0.058 46.9414,-0.033 z m -724.6387,2.6367 c -0.1794,2.4315 -0.4193,4.8645 -0.5722,7.295 -4.7406,75.3359 3.1113,152.7369 26.4355,225.3379 a 35.003496,35.003496 0 0 0 0.031,4.9941 c 4.6747,66.4171 -23.4784,136.1649 -72.9473,180.7285 -49.4689,44.5637 -121.7657,65.3059 -187.3359,53.7461 -52.5341,-9.2616 -102.1939,-39.0049 -134.1094,-81.1445 -31.8453,-42.0469 -46.7472,-97.9874 -39.1973,-149.7071 6.9093,-47.3304 32.2293,-92.9314 67.6817,-128.2265 35.6448,-35.4867 81.6277,-61.6974 131.1523,-79.1211 65.2786,-22.9663 135.9515,-30.9867 208.8613,-33.9024 z m 854.5567,0.7657 c 63.7564,3.9774 125.7756,12.5508 184.4492,31.3925 55.7083,17.8895 107.8598,45.4296 148.5684,83.9434 40.4652,38.2836 69.6403,88.7907 77.0664,141.4492 7.9861,56.6305 -10.2393,117.9945 -48.0606,160.5782 -37.7717,42.5279 -96.6785,67.7353 -153.2676,65.2148 -44.7882,-1.9949 -89.7105,-20.5594 -125.5605,-49.8691 -36.0047,-29.4362 -63.8975,-69.8837 -81.666,-114.4903 -35.6446,-89.4827 -30.9995,-194.1292 -7.67,-293.6816 1.9246,-8.2123 3.9847,-16.3888 6.1407,-24.5371 z"
       id="path4498-7-1-0-3-4-2-6-6"
       inkscape:connector-curvature="0" />
    <path
       sodipodi:nodetypes="aaaaacaassaaaaascsassasc"
       inkscape:connector-curvature="0"
       inkscape:original-d="m 3417.239,435.16245 c 133.3178,-0.76464 262.0626,165.80813 265.6801,299.16799 3.9552,145.80465 -126.5745,344.95856 -272.3128,342.37216 -141.8113,-2.5166 -258.5538,-200.51965 -253.004,-342.33919 5.1649,-131.98566 127.64,-298.4439 259.6367,-299.20096 z m -241.4379,454.4179 c 0,0 -114.7883,195.77615 -207.2989,186.66495 -76.9638,-7.58 -157.0712,-110.73974 -138.8966,-185.95956 33.4797,-138.56389 180.103,-187.45378 383.9972,-187.75083 l 386.6299,-0.56334 c 127.9324,-0.18643 393.3931,46.00635 427.7434,199.64059 17.0288,76.16242 -72.3604,190.15014 -149.6856,179.95584 -134.3252,-17.7089 -213.0842,-240.7154 -170.2402,-369.33465 60.3717,-181.23868 315.5052,-302.89752 503.9592,-272.32307 82.3291,13.35692 172.2349,99.0276 171.3208,182.48238 -0.8875,81.02522 -114.1338,169.5314 -170.1738,173.47933 l -18.9617,2.78666 14.4927,1.3399 c 47.0482,4.34978 231.7871,138.90232 212.3933,245.34865 -24.3384,133.5849 -258.8806,193.285 -357.9799,193.9639 l -920.0114,6.3029 c -77.6876,0.5321 -309.2458,5.0198 -319.1043,118.0729 -6.9067,79.2025 122.3003,120.0306 205.8611,120.2158 l 1392.6183,3.0879"
       inkscape:path-effect="#path-effect4500-0-5-18-7-0-4-8-0"
       id="path4498-7-1-0-3-4-2-4-3"
       d="m 3417.239,435.16245 c 36.8277,-0.47898 73.5949,8.74493 106.4098,25.46881 32.815,16.72388 61.6924,40.84237 84.9664,69.38761 46.548,57.09047 69.8997,130.7817 74.3039,204.31157 4.9126,82.01621 -13.7762,167.05986 -62.0647,233.53553 -24.1442,33.23783 -55.439,61.44923 -91.6982,80.76173 -36.2592,19.3124 -77.4957,29.5746 -118.5499,28.0749 -39.5514,-1.4448 -78.4845,-13.7752 -112.3773,-34.2124 -33.8927,-20.4372 -62.7678,-48.85275 -84.8952,-81.66702 -44.2549,-65.62855 -60.7037,-147.46056 -55.7315,-226.45977 4.5639,-72.51243 27.2167,-145.14891 72.4691,-201.9917 22.6262,-28.4214 50.7215,-52.62645 82.7712,-69.7302 32.0497,-17.10375 68.0715,-27.00662 104.3964,-27.47906 z m -241.4379,454.4179 c 3.7289,53.41427 -18.3467,108.04684 -58.1367,143.87625 -39.79,35.8294 -96.4297,52.0771 -149.1622,42.7887 -42.1488,-7.4242 -81.4333,-30.8594 -107.2812,-64.97 -25.8478,-34.11055 -37.7957,-78.64045 -31.6154,-120.98956 5.6305,-38.5817 25.7782,-74.29844 53.4167,-101.80048 27.6385,-27.50204 62.4648,-47.12953 99.2487,-60.06003 73.5677,-25.86101 153.3511,-25.7767 231.3318,-25.89032 l 386.6299,-0.56334 c 86.2142,-0.12562 174.2214,-1.42747 256.3836,24.69289 41.0812,13.06018 80.3458,33.43331 111.6369,63.08283 31.2911,29.64951 54.2172,69.11077 59.7229,111.86487 5.5947,43.44494 -7.5581,89.00661 -35.539,122.70864 -27.981,33.7021 -70.3995,55.0219 -114.1466,57.2472 -40.3282,2.0514 -80.8467,-11.8056 -113.0402,-36.1808 -32.1935,-24.3752 -56.1824,-58.84488 -70.2767,-96.68563 -28.1888,-75.68149 -16.7116,-161.40192 13.0767,-236.46822 38.6979,-97.51845 108.8065,-183.41466 200.0519,-235.19922 91.2455,-51.78455 203.5507,-67.71676 303.9073,-37.12385 42.4127,12.92918 82.8471,34.17266 114.3367,65.38818 31.4896,31.21552 53.5313,72.88919 56.9841,117.0942 3.5724,45.73558 -13.5099,92.69102 -45.6349,125.43997 -32.1249,32.74895 -78.7431,50.73133 -124.5389,48.03936 l -18.9617,2.78666 14.4927,1.3399 c 31.7484,2.93525 63.7477,6.34459 93.9997,16.41403 30.252,10.06944 58.513,26.85079 80.2487,50.17748 21.7357,23.32669 36.6336,52.86353 42.8873,84.128 6.2537,31.26447 4.0205,63.97314 -4.7424,94.62914 -10.0957,35.3186 -28.7623,68.0657 -53.4545,95.2617 -24.6921,27.1961 -55.3176,48.7955 -88.6974,64.1289 -66.7597,30.6667 -142.3634,34.07 -215.828,34.5733 l -920.0114,6.3029 c -62.4213,0.4276 -125.3769,-3.5929 -186.9746,6.5227 -30.7989,5.0578 -61.4604,14.7707 -86.5819,33.2926 -12.5608,9.2609 -23.6018,20.709 -31.6967,34.0511 -8.0949,13.3421 -13.1831,28.6151 -13.8511,44.2065 -0.9563,22.3216 7.2747,44.5613 20.9634,62.2188 13.6887,17.6575 32.569,30.8984 53.0794,39.758 41.0207,17.7191 87.1343,18.1399 131.8183,18.239 l 1392.6183,3.0879"
       style="fill:none;fill-rule:evenodd;stroke:#000000;stroke-width:60;stroke-linecap:round;stroke-linejoin:round;stroke-miterlimit:4;stroke-dasharray:none;stroke-opacity:1" />
    <path
       style="color:#000000;font-style:normal;font-variant:normal;font-weight:normal;font-stretch:normal;font-size:medium;line-height:normal;font-family:sans-serif;text-indent:0;text-align:start;text-decoration:none;text-decoration-line:none;text-decoration-style:solid;text-decoration-color:#000000;letter-spacing:normal;word-spacing:normal;text-transform:none;direction:ltr;block-progression:tb;writing-mode:lr-tb;baseline-shift:baseline;text-anchor:start;white-space:normal;clip-rule:nonzero;display:inline;overflow:visible;visibility:visible;opacity:1;isolation:auto;mix-blend-mode:normal;color-interpolation:sRGB;color-interpolation-filters:linearRGB;solid-color:#000000;solid-opacity:1;fill:#000000;fill-opacity:1;fill-rule:evenodd;stroke:none;stroke-width:60;stroke-linecap:round;stroke-linejoin:round;stroke-miterlimit:4;stroke-dasharray:none;stroke-dashoffset:0;stroke-opacity:1;color-rendering:auto;image-rendering:auto;shape-rendering:auto;text-rendering:auto;enable-background:accumulate"
       d="m 7092.2266,1066.4727 c -77.5567,-1.9601 -155.4617,18.1794 -222.9317,56.4707 -82.9715,47.0888 -148.8184,119.8392 -191.9883,203.8984 -12.5395,-51.8397 -35.0067,-101.5501 -69.4394,-143.7813 -25.7241,-31.5502 -57.7282,-58.3689 -94.5957,-77.1582 -36.9161,-18.814 -78.3266,-29.2858 -120.4219,-28.7382 -41.518,0.5399 -82.0872,11.7745 -118.1308,31.0097 -35.997,19.2102 -67.1234,46.1183 -92.1172,77.5137 -37.2839,46.8333 -60.1481,102.4561 -71.3868,159.8574 -54.0497,1.8843 -109.2066,7.7061 -162.8925,26.5781 -40.1555,14.1157 -78.9494,35.7399 -110.461,67.0958 -31.6769,31.5205 -55.2162,72.6514 -61.9414,118.7343 -7.4121,50.7896 6.6399,102.8607 37.3906,143.4414 30.6902,40.5008 76.3538,67.6538 125.9883,76.3965 62.2331,10.9619 127.4807,-7.7564 174.4395,-50.041 23.1817,-20.8744 41.0912,-46.7938 52.7812,-75.2617 24.1361,34.9581 55.2769,65.4175 92.2188,87.6933 38.0234,22.928 81.7171,36.8541 126.7734,38.5 46.7759,1.7088 93.0512,-9.9001 133.7481,-31.5761 40.6368,-21.6442 75.2224,-52.9272 101.8672,-89.6075 7.3322,-10.0938 13.9673,-20.567 20.0507,-31.3027 0.5809,1.6557 1.0671,3.3267 1.6817,4.9766 15.9007,42.6904 42.9542,81.8707 80.2812,110.1328 37.4892,28.3848 84.4819,44.676 132.6739,42.2246 52.4736,-2.6692 102.1774,-27.6621 135.705,-68.0449 33.5178,-40.3711 48.9058,-93.7157 42.211,-145.7032 -6.5545,-50.8981 -33.2163,-96.0521 -68.8438,-129.8105 -35.4059,-33.5484 -78.7756,-55.7793 -123.1816,-69.8965 -35.7576,-11.3678 -71.9872,-17.6905 -108.1543,-21.3476 38.2761,-71.9855 95.452,-133.9271 165.3594,-173.6016 84.3526,-47.8726 188.7451,-62.443 280.3515,-34.5176 38.7324,11.8073 74.7611,31.0292 101.9649,57.9961 26.9796,26.7448 45.4004,62.3426 48.1953,98.125 2.8701,36.7441 -11.3333,75.7851 -37.1426,102.0957 -25.8092,26.3106 -64.5708,41.2624 -101.3633,39.0996 a 30.003,30.003 0 0 0 -6.1211,0.2676 l -18.9629,2.7852 a 30.003,30.003 0 0 0 1.6016,59.5546 l 14.4922,1.3399 c 31.4679,2.9093 61.1245,6.2976 87.2871,15.0059 26.0875,8.6833 49.9893,23.076 67.7754,42.164 17.7861,19.0879 30.2488,43.7182 35.4179,69.5606 5.195,25.9714 3.4134,53.9708 -4.1699,80.5 -8.7568,30.6345 -25.1265,59.4482 -46.8203,83.3418 -21.7074,23.9087 -49.016,43.2552 -79.0098,57.0332 -59.7176,27.4318 -130.8325,31.338 -203.5117,31.8359 l -920.0097,6.3027 c -60.9951,0.4179 -125.5534,-3.9333 -191.6309,6.918 -33.7176,5.5371 -69.0494,16.2817 -99.5234,38.75 -15.3071,11.2857 -29.1206,25.4584 -39.543,42.6367 -10.4696,17.2561 -17.2628,37.2191 -18.1738,58.4824 a 30.003,30.003 0 0 0 -0,0 c -1.3078,30.5277 9.6324,59.1895 27.2266,81.8848 17.4232,22.4748 40.5457,38.4012 64.8926,48.918 48.3755,20.896 98.8218,20.5978 143.6484,20.6972 l 1392.6191,3.0879 a 30.003,30.003 0 1 0 0.1328,-60 l -1392.6191,-3.0879 c -44.5414,-0.099 -86.3224,-1.2371 -119.9883,-15.7793 -16.6739,-7.2024 -31.3114,-17.7574 -41.2656,-30.5976 -9.7832,-12.6197 -15.3059,-28.4391 -14.7012,-42.5547 0.425,-9.9195 3.8071,-20.5015 9.5274,-29.9297 5.7674,-9.5059 14.037,-18.2287 23.8515,-25.4648 19.769,-14.5756 45.7605,-23.2575 73.6407,-27.836 57.1179,-9.3799 118.4708,-5.6895 182.3183,-6.1269 l 920.0117,-6.3028 c 74.2501,-0.5086 154.3428,-3.409 228.1446,-37.3105 36.7658,-16.8888 70.7099,-40.7412 98.3867,-71.2246 27.6906,-30.4985 48.6533,-67.1809 60.0879,-107.1836 9.9425,-34.7828 12.6269,-72.2002 5.3144,-108.7578 -7.3382,-36.6865 -24.6699,-71.1298 -50.3554,-98.6953 -21.5905,-23.1708 -48.1068,-40.3355 -76.4453,-52.0469 11.0165,-7.2921 21.3254,-15.724 30.6718,-25.252 38.4407,-39.1873 58.4017,-94.0561 54.127,-148.7832 -4.1107,-52.6275 -29.7719,-100.3782 -65.7715,-136.0644 -35.7756,-35.4641 -80.616,-58.7263 -126.709,-72.7774 -34.0959,-10.3938 -69.2782,-15.8512 -104.5312,-16.7421 z m -698.5977,70.6875 c 31.5601,-0.4105 63.6848,7.5654 92.3984,22.1992 28.7625,14.6585 54.5121,36.077 75.336,61.6172 28.4884,34.9406 47.498,77.682 58.1172,123.0468 -14.4928,-0.028 -29.052,-0.073 -43.291,-0.053 l -386.6309,0.5645 c -5.4331,0.01 -11.0604,0.1027 -16.543,0.1132 10.4172,-44.6958 28.8728,-86.8541 56.5274,-121.5918 20.2585,-25.4473 45.3214,-46.95 73.4238,-61.9472 28.0558,-14.9724 59.5304,-23.5444 90.6621,-23.9492 z m 182.6484,266.8105 c 17.5587,-0.026 34.9661,0.016 52.3243,0.1523 0.094,1.3368 0.2909,2.6646 0.3711,4.002 4.567,76.2477 -13.0894,154.4993 -56.3907,214.1094 -21.6436,29.7955 -49.6477,54.9332 -81.5293,71.914 -31.8213,16.9488 -68.0191,25.8649 -103.3515,24.5743 -34.0465,-1.2438 -68.2183,-11.9774 -97.9805,-29.9239 -29.8148,-17.9782 -55.6617,-43.3082 -75.5137,-72.748 -39.7184,-58.9012 -55.2941,-134.2395 -50.664,-207.8028 0.073,-1.1658 0.2466,-2.323 0.33,-3.4882 8.6035,-0.053 17.1161,-0.212 25.7735,-0.2246 l 386.6308,-0.5645 z m -472.6855,2.0254 c -3.0829,51.6408 2.3245,104.6781 18.2148,154.6016 a 30.003,30.003 0 0 0 0.066,3.0722 c 3.0571,43.7909 -15.6621,90.1181 -48.2832,119.4922 -32.6211,29.3742 -80.6509,43.1521 -123.8828,35.5371 -34.6631,-6.1056 -67.5705,-25.8225 -88.5761,-53.543 -20.9451,-27.6404 -30.7884,-64.6304 -25.8399,-98.539 4.5358,-31.0804 21.2925,-61.3836 44.8926,-84.8672 23.7656,-23.6481 54.6248,-41.2781 88.0371,-53.0234 42.141,-14.8137 87.8692,-20.5086 135.3711,-22.7305 z m 604.1992,0.8594 c 40.0911,2.9177 78.9569,8.7057 115.7363,20.3984 37.7564,12.0032 72.9155,30.519 100.0918,56.2695 26.9548,25.5407 46.1466,59.3099 50.6036,93.92 4.4946,34.9023 -6.4232,72.6817 -28.8672,99.7148 -22.4344,27.0214 -57.5693,44.6678 -92.5899,46.4492 -32.4644,1.6514 -66.5084,-9.773 -93.4062,-30.1386 -27.06,-20.4884 -47.9854,-50.2474 -60.2735,-83.2383 -23.3371,-62.656 -15.7493,-136.1503 8.7051,-203.375 z"
       id="path4498-7-1-0-3-4-2-4-3-2"
       inkscape:connector-curvature="0" />
    <path
       style="color:#000000;font-style:normal;font-variant:normal;font-weight:normal;font-stretch:normal;font-size:medium;line-height:normal;font-family:sans-serif;text-indent:0;text-align:start;text-decoration:none;text-decoration-line:none;text-decoration-style:solid;text-decoration-color:#000000;letter-spacing:normal;word-spacing:normal;text-transform:none;direction:ltr;block-progression:tb;writing-mode:lr-tb;baseline-shift:baseline;text-anchor:start;white-space:normal;clip-rule:nonzero;display:inline;overflow:visible;visibility:visible;opacity:1;isolation:auto;mix-blend-mode:normal;color-interpolation:sRGB;color-interpolation-filters:linearRGB;solid-color:#000000;solid-opacity:1;fill:#000000;fill-opacity:1;fill-rule:evenodd;stroke:none;stroke-width:200;stroke-linecap:round;stroke-linejoin:round;stroke-miterlimit:4;stroke-dasharray:none;stroke-dashoffset:0;stroke-opacity:1;color-rendering:auto;image-rendering:auto;shape-rendering:auto;text-rendering:auto;enable-background:accumulate"
       d="m 6580.625,-727.1875 c -33.3948,-0.48033 -66.7517,1.94242 -99.6211,7.125 -87.5073,13.79743 -170.1291,46.80732 -243.0723,93.74609 -79.0472,50.86676 -144.8986,116.88452 -197.5586,191.58985 -14.4723,-32.36933 -32.0623,-63.77632 -53.4433,-93.57032 -38.9977,-54.34259 -89.416,-101.85035 -150.2246,-135.98046 -61.0392,-34.25944 -131.0105,-54.01433 -203.8086,-53.04883 -71.8515,0.95294 -140.3907,22.01023 -199.9395,56.94726 -59.3271,34.8071 -108.2948,82.39181 -146.1132,136.39844 -47.0578,67.20081 -75.7168,141.99481 -91.1094,217.98242 -60.4634,4.62995 -123.0376,14.62371 -185.9805,36.72071 -61.246,21.50128 -121.8294,54.81007 -172.3359,105.02734 -51.0598,50.76749 -89.7844,117.370483 -101.086,194.847656 -12.5024,85.709494 10.7823,171.366894 62.2832,239.275394 51.2966,67.63899 125.9629,111.84353 208.1875,126.30664 103.3111,18.17214 208.953,-12.1265 286.9278,-82.29297 15.7961,-14.21433 30.0002,-29.78522 42.6836,-46.36133 25.1348,25.67378 53.324,48.81487 84.6621,68.29102 59.2438,36.81915 127.9502,59.77242 200.4668,62.42968 75.2698,2.75815 148.0686,-16.58859 211.5488,-51.51757 50.5562,-27.81781 93.9998,-64.91419 129.9512,-107.48633 22.5179,35.02526 50.6272,67.08591 84.9316,93.80664 60.3459,47.00525 136.209,75.00266 217.0508,71.79687 89.3349,-3.54258 171.9777,-44.89082 228.709,-113.3789 56.6458,-68.38497 81.5808,-156.62885 69.9726,-244.187503 -11.2771,-85.061716 -54.9298,-157.474457 -111.8828,-211.363277 -56.2256,-53.20044 -123.2109,-87.07757 -190.0937,-108.37305 -25.4259,-8.0956 -50.7813,-14.47357 -75.9864,-19.54102 42.2291,-67.2238 96.6522,-125.10214 160.4141,-166.13281 50.8801,-32.74124 108.0552,-55.23546 165.9961,-64.37109 57.7964,-9.11287 117.6884,-4.94077 171.5605,12.66797 47.8599,15.64357 90.5565,42.27183 119.5782,75.82226 28.3853,32.81481 45.0502,75.80252 44.4297,113.41211 -0.5651,34.24661 -16.0222,71.18767 -40.0157,95.63086 -23.9935,24.44325 -60.6389,40.58231 -94.8691,41.7832 a 100.01,100.01 0 0 0 -11.0254,1 l -25.7793,3.78711 a 100.01,100.01 0 0 0 5.3301,198.513674 l 19.7051,1.820313 c 42.2129,3.900138 77.8949,8.461434 105.3867,17.605469 27.2419,9.060929 51.1277,23.901125 67.5137,41.470703 16.3851,17.568714 28.5277,41.349521 33.4218,65.757811 4.9801,24.8371 3.4607,53.57958 -4.5078,81.4668 -9.2499,32.37202 -26.9693,63.75679 -50.5449,89.70117 a 100.01,100.01 0 0 0 -0,0 c -23.6224,25.99603 -54.204,47.83439 -88.3047,63.48047 -67.3083,30.8824 -155.1286,37.16423 -252.3867,37.83008 l -1250.8359,8.56445 c -80.0987,0.54837 -171.0137,-6.02872 -269.6797,10.13672 -51.5994,8.45404 -108.8621,25.07263 -160.875,63.39648 -26.2407,19.33445 -50.5021,43.97671 -69.2734,74.90821 l 0,0 c -18.929,31.191 -31.5398,67.6034 -33.25,107.7207 -2.4602,57.71004 17.7856,109.34222 49.4317,150.125 31.0745,40.04621 70.8917,66.97513 111.5605,84.52344 80.272,34.63692 157.3765,32.80968 218.582,32.94531 l 1893.3887,4.19531 a 100.01,100.01 0 1 0 0.4434,-200 L 5107.75,751.56836 c -60.2715,-0.13356 -108.5242,-3.08948 -139.7891,-16.58008 -15.0998,-6.51547 -26.6278,-15.55798 -32.789,-23.49805 -5.5897,-7.20352 -7.7479,-16.02456 -7.6211,-18.99804 a 100.01,100.01 0 0 0 0,0 c 0.097,-2.27626 1.3211,-7.39279 4.4063,-12.47657 3.2427,-5.34328 9.0116,-11.82067 16.9316,-17.65624 16.3083,-12.01619 42.428,-21.77386 74.5762,-27.04102 68.829,-11.27696 149.0854,-6.89618 238.7109,-7.50977 l 1250.836,-8.56445 c 102.4721,-0.70155 220.1916,-3.63581 334.4218,-56.04687 56.6686,-26.00066 109.3785,-62.84345 152.918,-110.75782 43.5866,-47.96604 76.6461,-105.6016 94.834,-169.2539 15.8409,-55.43842 20.3558,-115.60413 8.2988,-175.73633 -12.1431,-60.561011 -40.5348,-117.0386651 -83.2558,-162.845704 a 100.01,100.01 0 0 0 0,-0.002 c -16.6321,-17.833405 -34.8452,-33.317124 -54.0938,-46.738282 51.2576,-59.92021 80.2491,-135.79575 81.5586,-215.16211 1.5517,-94.04255 -35.3851,-180.78845 -93.1406,-247.55664 -57.1192,-66.03255 -131.4071,-109.81555 -208.7012,-135.08008 a 100.01,100.01 0 0 0 -0,0 c -53.8038,-17.58641 -109.5687,-26.45139 -165.2266,-27.25195 z m -945.0762,209.84375 c 34.2349,-0.45404 70.9602,9.34059 103.2657,27.47266 32.5357,18.26138 62.2152,45.55789 85.6269,78.18164 21.1636,29.49101 37.3948,63.76574 48.9961,100.87695 l -470.1523,0.68359 c 11.2933,-36.36501 26.9856,-69.99989 47.3847,-99.13086 22.7916,-32.54749 51.6835,-59.95396 83.4942,-78.61718 31.5892,-18.53329 67.58,-29.01846 101.3847,-29.4668 z m 247.6172,406.51758 c 3.4916,-0.005 6.7788,0.0468 10.2539,0.043 -6.5029,75.211636 -28.5903,146.267952 -67.666,201.240231 -24.1533,33.979319 -55.0975,62.347569 -89.0781,81.044919 -33.7304,18.5596 -72.1982,28.1838 -107.8086,26.87891 -34.3461,-1.25856 -70.6413,-12.80744 -102.2207,-32.43359 -31.7994,-19.76283 -60.3668,-48.34512 -82.5527,-81.974614 -35.562,-53.904735 -55.3404,-122.003902 -61.1192,-194.072266 l 500.1914,-0.72656 z m -700.3086,7.66797 c 3.0566,46.556638 10.4361,93.5320498 23.291,139.556638 a 100.01,100.01 0 0 0 0.055,14.548828 c 2.793,40.53319 -16.0523,87.092264 -46.2539,114.269534 -30.2016,27.1773 -78.485,41.02486 -118.5,33.98632 -32.3439,-5.68921 -64.4801,-25.13516 -83.4765,-50.18359 -18.7921,-24.77894 -28.0249,-60.153012 -23.7364,-89.552733 3.9997,-27.419624 20.0841,-57.9154467 44.1973,-81.890625 24.6667,-24.525403 58.7941,-44.531595 97.5703,-58.144531 32.6591,-11.465425 68.5788,-18.309959 106.8535,-22.589841 z m 923.2364,1.10742 c 33.3454,4.305849 65.1196,10.665166 94.9589,20.166014 44.7474,14.247575 84.4413,35.758377 113.3125,63.076172 28.1436,26.629392 46.9565,61.298757 51.0762,92.373047 4.0737,30.727047 -6.2603,66.815247 -25.7305,90.320317 -19.3847,23.40194 -52.7172,39.93181 -82.6093,41.11718 -27.8986,1.10632 -60.7185,-9.86731 -86.2266,-29.73633 -26.079,-20.31372 -47.9424,-51.46523 -60.8457,-86.775386 -20.1245,-55.070847 -19.4816,-122.186606 -3.9355,-190.541014 z"
       id="path4498-7-1-0-3-4-2-3"
       inkscape:connector-curvature="0" />
    <path
       style="color:#000000;font-style:normal;font-variant:normal;font-weight:normal;font-stretch:normal;font-size:medium;line-height:normal;font-family:sans-serif;text-indent:0;text-align:start;text-decoration:none;text-decoration-line:none;text-decoration-style:solid;text-decoration-color:#000000;letter-spacing:normal;word-spacing:normal;text-transform:none;direction:ltr;block-progression:tb;writing-mode:lr-tb;baseline-shift:baseline;text-anchor:start;white-space:normal;clip-rule:nonzero;display:inline;overflow:visible;visibility:visible;opacity:1;isolation:auto;mix-blend-mode:normal;color-interpolation:sRGB;color-interpolation-filters:linearRGB;solid-color:#000000;solid-opacity:1;fill:#000000;fill-opacity:1;fill-rule:evenodd;stroke:none;stroke-width:140;stroke-linecap:round;stroke-linejoin:round;stroke-miterlimit:4;stroke-dasharray:none;stroke-dashoffset:0;stroke-opacity:1;color-rendering:auto;image-rendering:auto;shape-rendering:auto;text-rendering:auto;enable-background:accumulate"
       d="m -1005.1934,1188.3379 c -138.0654,0.8738 -272.4716,48.7931 -381.8906,130.3164 -68.1818,50.7992 -125.9163,113.8377 -171.5254,184.5527 -17.686,-53.9434 -43.3248,-105.8254 -79.2011,-152.6562 -38.4254,-50.158 -87.7639,-93.1511 -146.3379,-122.2598 -58.7781,-29.21 -125.5923,-43.5887 -193.125,-37.291 -61.0066,5.6891 -118.2737,27.8408 -167.3848,60.8496 -48.9662,32.9114 -89.016,75.9085 -119.8789,123.6797 -50.0782,77.5134 -74.9202,164.9159 -84.8828,251.3535 -66.1543,1.4459 -134.7031,6.6092 -203.9707,24.1543 -55.8789,14.1539 -112.6874,37.3657 -162.4317,76.1465 -50.316,39.2263 -92.0376,94.0718 -108.6504,161.623 -19.9496,81.1203 0.4924,165.177 49.1973,229.6875 48.245,63.9012 119.7757,103.8502 195.9668,116.7129 97.6008,16.4772 198.495,-12.0207 273.0527,-77.125 24.9408,-21.7783 46.1201,-47.0862 63.2774,-74.7519 25.3109,32.0738 55.1234,61.0448 89.5,85.0176 52.7752,36.803 115.1299,61.0726 181.4629,66.2441 71.0341,5.538 141.004,-11.2755 201.8086,-43.9629 60.4719,-32.5087 110.5236,-79.7451 148.4101,-134.291 23.4032,43.4964 55.404,82.9146 96,114.0234 55.4788,42.5138 124.8423,67.536 197.5098,65.0117 80.3319,-2.7904 156.4576,-39.3534 208.3926,-101.3222 52.0246,-62.0759 75.0218,-144.1647 61.7519,-224.541 -9.6386,-58.3813 -37.3834,-110.5445 -75.2969,-152.168 -37.7131,-41.4034 -84.2165,-71.2792 -133.0234,-91.4219 -67.7306,-27.9526 -136.6274,-36.3967 -202.1973,-39.0039 40.2364,-76.8263 96.7489,-144.9808 165.2207,-195.9961 86.2297,-64.2459 193.2196,-101.9136 299.1309,-102.584 73.34338,-0.4641 145.67923,17.6622 199.83008,56.1387 27.02346,19.2013 49.85993,43.6415 65.52735,70.8145 15.58854,27.0361 24.46351,57.817 24.88672,87.2578 0.60197,41.8766 -17.14045,86.1843 -46.47852,116.0722 -29.33812,29.8881 -73.30881,48.4513 -115.18945,48.627 a 70.007,70.007 0 0 0 -9.87696,0.7422 l -25.77929,3.7851 a 70.007,70.007 0 0 0 3.73047,138.961 l 19.70508,1.8203 c 42.49302,3.926 80.51668,8.5063 112.0957,19.0098 31.404,10.4452 59.64821,27.6714 79.98437,49.4765 20.33554,21.8045 34.91505,50.4892 40.89649,80.3203 6.0416,30.1313 4.07317,63.5894 -5.07617,95.6094 -10.59064,37.0641 -30.61224,72.3852 -57.18946,101.6328 -26.61013,29.2839 -60.51214,53.373 -97.99804,70.5723 -74.34652,34.1117 -166.65123,39.8913 -264.69137,40.5625 l -1250.836,8.5644 c -81.5278,0.5582 -170.8447,-5.688 -265.0351,9.7442 -48.6816,7.9761 -101.2724,23.5638 -147.9297,57.9414 -23.4923,17.3095 -44.9779,39.2272 -61.4199,66.3203 -16.5519,27.2742 -27.4553,58.9932 -28.9239,93.4336 -2.1102,49.4996 15.4225,94.7111 43.1602,130.457 27.3376,35.2305 62.9107,59.4759 99.7441,75.3692 72.921,31.465 145.6983,30.3549 206.7637,30.4902 l 1893.38867,4.1973 a 70.007,70.007 0 1 0 0.31055,-140 l -1893.38872,-4.1954 c -60.4115,-0.1338 -112.9915,-2.3725 -151.6074,-19.0351 -18.935,-8.1703 -34.7073,-19.8964 -44.6054,-32.6524 -9.4982,-12.2403 -14.3694,-27.4819 -13.8926,-38.666 a 70.007,70.007 0 0 0 0,-0 c 0.339,-7.9525 3.2725,-17.7637 8.7343,-26.7637 5.5722,-9.1817 14.1149,-18.3835 24.7833,-26.2441 21.6641,-15.9624 52.4535,-26.7489 87.5195,-32.4942 73.3046,-12.0102 155.1608,-7.3004 243.3574,-7.9043 l 1250.8359,-8.5625 c 101.69004,-0.6962 214.92333,-4.1345 322.11528,-53.3164 53.28334,-24.4475 102.67651,-59.0375 143.22851,-103.664 40.58494,-44.6628 71.34227,-98.362 88.18946,-157.3223 14.65999,-51.3056 18.72601,-106.7576 7.73047,-161.5957 -11.05571,-55.1381 -37.01046,-106.7119 -75.78125,-148.2832 -22.6851,-24.3237 -48.78539,-43.9997 -76.67383,-59.6289 3.23063,-3.013 6.42514,-6.0701 9.53125,-9.2344 56.44264,-57.5006 87.7128,-135.5911 86.55469,-216.1562 -0.7969,-55.4363 -16.77791,-108.6742 -43.58985,-155.1758 -26.73304,-46.3648 -63.54746,-85.0439 -105.7207,-115.0098 -84.24255,-59.8579 -185.37985,-82.6219 -281.80473,-82.0117 z m -944.3476,141.2598 c 34.6203,-0.5539 70.7068,7.9725 103.0879,24.0644 37.2109,18.4922 70.8839,47.2787 97.5058,82.0293 40.2783,52.5768 64.7676,119.1835 75.9121,190.1074 l -535.0625,0.6016 c 9.3134,-64.1992 28.728,-124.7075 61.1543,-174.8984 21.6119,-33.452 49.0909,-62.4282 80.3809,-83.459 31.1451,-20.9335 67.0138,-34.3589 102.2891,-37.6485 4.8707,-0.4542 9.7866,-0.7177 14.7324,-0.7968 z m 281.7734,436.1953 c -6.1487,77.4488 -27.9548,151.4791 -68.8535,210.4648 -26.4384,38.1305 -60.9895,70.1564 -99.875,91.0606 -38.6691,20.7877 -83.0784,30.9374 -124.6387,27.6972 -38.8722,-3.0305 -78.4805,-17.9444 -112.2617,-41.5019 -33.9516,-23.6764 -63.162,-56.5223 -85.168,-94.1817 -32.7227,-55.9993 -49.7311,-122.9055 -54.6796,-192.9258 l 545.4765,-0.6132 z m 147.666,0.022 c 74.5647,0.8696 143.3823,6.0561 200.2305,29.5175 32.4667,13.3991 61.4382,32.6886 82.9316,56.2852 21.2932,23.3767 35.9846,52.3299 40.668,80.6973 6.2719,37.989 -5.8896,81.9396 -30.9238,111.8105 -25.124,29.978 -66.3896,49.9577 -105.9531,51.332 -36.5355,1.2692 -76.2413,-12.2714 -107.4942,-36.2207 -31.6113,-24.2238 -56.9206,-60.0084 -71.8926,-100.0117 -21.7825,-58.2005 -22.212,-126.0611 -7.5664,-193.4101 z m -833.4394,1.6171 c 2.5094,44.1901 8.9519,88.6693 20.543,132.2266 a 70.007,70.007 0 0 0 0.031,2.7461 c 1.7699,55.161 -23.8018,113.9225 -65.373,150.2227 -41.5711,36.3001 -103.2427,53.7204 -157.6622,44.5332 -42.562,-7.1855 -83.2189,-30.8086 -107.541,-63.0235 -23.8619,-31.6055 -33.7916,-76.0679 -24.9804,-111.8965 7.5394,-30.6571 29.3348,-61.6896 58.7793,-84.6445 a 70.007,70.007 0 0 0 0,-0 c 30.0159,-23.4006 68.5688,-40.163 110.7285,-50.8418 51.5562,-13.059 107.1351,-17.6551 165.4746,-19.3204 z"
       id="path4498-7-1-0-3-4-2-36"
       inkscape:connector-curvature="0" />
  </g>
</svg>
