<?xml version="1.0" encoding="UTF-8" standalone="no"?>
<!-- Created with Inkscape (http://www.inkscape.org/) -->

<svg
   xmlns:dc="http://purl.org/dc/elements/1.1/"
   xmlns:cc="http://creativecommons.org/ns#"
   xmlns:rdf="http://www.w3.org/1999/02/22-rdf-syntax-ns#"
   xmlns:svg="http://www.w3.org/2000/svg"
   xmlns="http://www.w3.org/2000/svg"
   xmlns:sodipodi="http://sodipodi.sourceforge.net/DTD/sodipodi-0.dtd"
   xmlns:inkscape="http://www.inkscape.org/namespaces/inkscape"
   width="2000"
   height="2048"
   id="svg2992"
   version="1.1"
   inkscape:version="0.91pre3 r13670"
   sodipodi:docname="ഖ്ര.svg">
  <defs
     id="defs5498">
    <inkscape:path-effect
       effect="spiro"
       id="path-effect4146"
       is_visible="true" />
    <inkscape:path-effect
       is_visible="true"
       id="path-effect4141-37-3-0-8-6"
       effect="spiro" />
    <inkscape:path-effect
       effect="spiro"
       id="path-effect4146-3"
       is_visible="true" />
    <inkscape:path-effect
       is_visible="true"
       id="path-effect4141-37-3-0-8-6-8"
       effect="spiro" />
  </defs>
  <sodipodi:namedview
     inkscape:window-height="853"
     inkscape:window-width="1600"
     inkscape:pageshadow="2"
     inkscape:pageopacity="0.0"
     borderopacity="1.0"
     bordercolor="#666666"
     pagecolor="#ffffff"
     id="base"
     showgrid="true"
     showguides="true"
     inkscape:guide-bbox="true"
     inkscape:zoom="0.32102648"
     inkscape:cx="1230.0784"
     inkscape:cy="513.01263"
     inkscape:window-x="1598"
     inkscape:window-y="-3"
     inkscape:current-layer="layer1"
     inkscape:window-maximized="1">
    <sodipodi:guide
       orientation="horizontal"
       position="0,600"
       id="guide5596" />
    <inkscape:grid
       type="xygrid"
       id="grid3769"
       empspacing="3"
       visible="true"
       enabled="true"
       snapvisiblegridlinesonly="true"
       spacingx="4px"
       units="px"
       dotted="true"
       spacingy="4px" />
    <sodipodi:guide
       orientation="0,1"
       position="-1040,1600"
       id="guide2985" />
  </sodipodi:namedview>
  <metadata
     id="metadata5594">
    <rdf:RDF>
      <cc:Work
         rdf:about="">
        <dc:format>image/svg+xml</dc:format>
        <dc:type
           rdf:resource="http://purl.org/dc/dcmitype/StillImage" />
        <dc:title />
      </cc:Work>
    </rdf:RDF>
  </metadata>
  <g
     inkscape:label="Layer 1"
     inkscape:groupmode="layer"
     id="layer1"
     transform="translate(0,1048)">
    <path
       style="color:#000000;font-style:normal;font-variant:normal;font-weight:normal;font-stretch:normal;font-size:medium;line-height:normal;font-family:sans-serif;text-indent:0;text-align:start;text-decoration:none;text-decoration-line:none;text-decoration-style:solid;text-decoration-color:#000000;letter-spacing:normal;word-spacing:normal;text-transform:none;direction:ltr;block-progression:tb;writing-mode:lr-tb;baseline-shift:baseline;text-anchor:start;white-space:normal;clip-rule:nonzero;display:inline;overflow:visible;visibility:visible;opacity:1;isolation:auto;mix-blend-mode:normal;color-interpolation:sRGB;color-interpolation-filters:linearRGB;solid-color:#000000;solid-opacity:1;fill:#000000;fill-opacity:1;fill-rule:evenodd;stroke:none;stroke-width:130;stroke-linecap:round;stroke-linejoin:round;stroke-miterlimit:4;stroke-dasharray:none;stroke-dashoffset:0;stroke-opacity:1;color-rendering:auto;image-rendering:auto;shape-rendering:auto;text-rendering:auto;enable-background:accumulate"
       d="M 1579.9355 435.55469 A 70.007 70.007 0 0 0 1510.2305 505.79883 C 1507.3221 776.35059 1504.4142 1046.9033 1501.5059 1317.4551 L 1142.7363 1316.2773 C 1253.7062 1196.6259 1305.3326 1023.3539 1261.3535 859.19531 C 1202.3859 608.21141 955.74972 442.52434 706.09375 453.28125 C 386.7281 456.77269 114.39197 725.50668 92.939453 1040.3711 C 84.186477 1132.322 108.13763 1226.2259 158.91016 1303.6191 C 209.6225 1380.9207 290.61228 1442.607 391.96484 1456.1406 C 570.47791 1486.8943 735.89611 1332.2122 717.9082 1152.0781 C 709.67947 963.17724 515.2479 826.93777 334.75391 884.51562 C 309.36483 891.61978 285.63122 902.0031 263.8418 915.05664 C 335.07727 735.84621 515.24506 595.05845 708.28711 593.24414 A 70.007 70.007 0 0 0 710.86719 593.17383 C 893.74797 584.70662 1084.0079 713.96997 1125.332 892.21484 A 70.007 70.007 0 0 0 1125.9531 894.68359 C 1172.6698 1067.3955 1054.6516 1271.9425 881.56641 1317.8145 A 70.007 70.007 0 0 0 899.26758 1455.4766 L 1502.9219 1457.4609 C 1494.6 1484.5557 1480.495 1510.397 1461.6113 1534.7773 C 1422.8895 1584.7703 1363.6133 1625.5141 1303.9062 1645.3457 A 65.0065 65.0065 0 0 0 1303.0332 1645.6426 C 1106.2803 1714.1083 883.84634 1688.6098 654.11719 1692.2285 C 458.53694 1692.9919 263.63608 1689.8849 120.66406 1583.7207 A 65.0065 65.0065 0 0 0 119.46094 1582.8477 C -139.85221 1399.3388 -222.13837 1007.1356 -73.941406 727.50586 A 65.0065 65.0065 0 0 0 -73.365234 726.39258 C -40.535421 661.44976 2.3226052 601.55641 53.353516 550.16211 A 65.0065 65.0065 0 0 0 5.7167969 438.74023 A 65.0065 65.0065 0 0 0 -38.896484 458.56445 C -99.667293 519.76801 -150.22874 590.48986 -189.0332 667.08203 C -368.91067 1007.0459 -273.92019 1463.3946 43.990234 1688.6836 C 229.80448 1826.1495 458.98182 1822.9921 654.62305 1822.2285 A 65.0065 65.0065 0 0 0 655.41211 1822.2207 C 872.84283 1818.7326 1111.5653 1849.7267 1345.2012 1768.6074 C 1429.697 1740.4735 1508.1978 1686.9271 1564.3867 1614.3828 C 1614.2145 1550.0512 1646.0695 1468.3327 1640.8359 1380.6133 C 1643.9652 1089.5101 1647.0934 798.40787 1650.2227 507.30469 A 70.007 70.007 0 0 0 1579.9355 435.55469 z M 413.83008 1012.1641 C 415.61253 1012.1485 417.39797 1012.1696 419.18359 1012.2246 C 496.32246 1014.6012 575.51745 1082.1467 578.16406 1159.502 A 70.007 70.007 0 0 0 578.53906 1164.7305 C 587.73041 1248.6478 497.68967 1332.8854 414.90039 1318.0762 A 70.007 70.007 0 0 0 411.44336 1317.5449 C 354.56233 1310.2803 308.83581 1276.9289 275.9668 1226.8262 C 270.69692 1218.7932 266.0152 1210.2431 261.61328 1201.4941 C 246.35953 1125.1834 298.64852 1039.1673 373.85352 1018.9004 A 70.007 70.007 0 0 0 377.03906 1017.9609 C 388.9783 1014.1274 401.35293 1012.2727 413.83008 1012.1641 z "
       transform="translate(0,-1048)"
       id="path4162" />
    <path
       style="fill:none;fill-rule:evenodd;stroke:#000000;stroke-width:130;stroke-linecap:round;stroke-linejoin:round;stroke-miterlimit:4;stroke-dasharray:none;stroke-opacity:1"
       d="m 1641.3812,1915.6245 c 5.9057,37.7047 3.7381,76.6536 -6.3149,113.4701 -18.9927,69.556 -65.6833,129.6516 -123.4664,172.7779 -57.783,43.1264 -126.2425,70.3576 -196.399,86.996 -140.3128,33.2766 -286.4799,28.5279 -430.68228,27.6801 l -247.3644,-1.4543 C 507.41318,2314.3315 374.59048,2306.3804 255.80724,2254.1898 137.024,2201.9992 37.509349,2110.0853 -30.878113,1999.8289 -120.24203,1855.7536 -159.44302,1681.2144 -140.27181,1512.7624 -121.1006,1344.3105 -43.682128,1183.0435 75.771017,1062.7333"
       id="path4162-3"
       inkscape:connector-curvature="0"
       sodipodi:nodetypes="cssssc"
       inkscape:path-effect="#path-effect4146-3"
       inkscape:original-d="m 1641.3812,1915.6245 c 1.3081,40.1306 6.3092,79.818 -6.3149,113.4701 -126.5238,337.2757 -455.6148,289.1879 -750.54768,287.454 l -247.3644,-1.4543 c -104.6072,-0.615 -550.560503,-103.5246 -668.032333,-315.2654 -167.228747,-301.4267 6.05356,-771.4088 106.64913,-937.0956" />
    <path
       sodipodi:nodetypes="cccaaaaac"
       inkscape:connector-curvature="0"
       inkscape:original-d="m 1648.7697,1064.9221 -9.472,881.1318 -671.25698,-2.2059 c 0,0 323.39118,-270.0199 304.25408,-450.102 -20.828,-195.9933 -230.5486,-389.9963 -426.69418,-409.3368 -228.8046,-22.5608 -539.4949,145.0246 -581.4124,371.0853 -35.1319,189.4662 151.5121,482.7569 343.3922,465.0451 81.6574,-7.5375 156.9466,-155.9397 107.4388,-221.3134 -92.4559,-122.0856 -452.215,81.1077 -452.215,81.1077"
       inkscape:path-effect="#path-effect4141-37-3-0-8-6-8"
       id="path4139-9-6-5-7-2-5"
       d="m 1648.7697,1064.9221 -9.472,881.1318 -671.25698,-2.2059 c 94.36878,-27.3529 178.52218,-88.614 233.54618,-170.0144 55.0239,-81.4003 80.502,-182.324 70.7079,-280.0876 -10.6282,-106.0888 -62.5101,-206.9101 -140.2713,-279.8552 -77.7611,-72.9451 -180.42117,-118.0174 -286.42288,-129.4816 -123.00894,-13.3036 -249.94759,18.4758 -353.73254,85.8321 -103.78494,67.3563 -184.06357,169.4698 -227.67986,285.2532 -22.12604,58.7356 -35.11661,121.3489 -33.57993,184.095 1.53668,62.7461 17.99371,125.643 51.29362,178.8459 33.29991,53.2029 83.91863,96.2025 143.36225,116.3492 59.44361,20.1467 127.47793,16.2868 182.31626,-14.245 38.06832,-21.1949 69.07442,-54.6506 87.90683,-93.9413 18.8324,-39.2908 25.4979,-84.2116 19.53197,-127.3721 -8.45165,-61.1435 -42.71651,-118.2951 -92.66502,-154.5593 -49.94851,-36.2643 -114.90127,-51.1481 -175.6566,-40.2512 -60.75534,10.8969 -116.48686,47.4261 -150.71891,98.7887 -34.23205,51.3626 -46.49902,116.86 -33.17447,177.1295"
       style="fill:none;fill-rule:evenodd;stroke:#000000;stroke-width:140;stroke-linecap:round;stroke-linejoin:round;stroke-miterlimit:4;stroke-dasharray:none;stroke-opacity:1" />
  </g>
</svg>
