<?xml version="1.0" encoding="UTF-8" standalone="no"?>
<!-- Created with Inkscape (http://www.inkscape.org/) -->

<svg
   xmlns:dc="http://purl.org/dc/elements/1.1/"
   xmlns:cc="http://creativecommons.org/ns#"
   xmlns:rdf="http://www.w3.org/1999/02/22-rdf-syntax-ns#"
   xmlns:svg="http://www.w3.org/2000/svg"
   xmlns="http://www.w3.org/2000/svg"
   xmlns:sodipodi="http://sodipodi.sourceforge.net/DTD/sodipodi-0.dtd"
   xmlns:inkscape="http://www.inkscape.org/namespaces/inkscape"
   width="2000"
   height="2048"
   id="svg2992"
   version="1.1"
   inkscape:version="0.91pre2 r13516"
   sodipodi:docname="ഗ.svg">
  <defs
     id="defs5498">
    <inkscape:path-effect
       is_visible="true"
       id="path-effect4504"
       effect="spiro" />
    <inkscape:path-effect
       is_visible="true"
       id="path-effect4504-9"
       effect="spiro" />
    <inkscape:path-effect
       is_visible="true"
       id="path-effect4504-9-7"
       effect="spiro" />
    <inkscape:path-effect
       is_visible="true"
       id="path-effect4504-9-7-7"
       effect="spiro" />
    <inkscape:path-effect
       is_visible="true"
       id="path-effect4504-9-7-7-5"
       effect="spiro" />
    <inkscape:path-effect
       effect="spiro"
       id="path-effect4294"
       is_visible="true" />
    <inkscape:path-effect
       effect="spiro"
       id="path-effect4294-8"
       is_visible="true" />
    <inkscape:path-effect
       effect="spiro"
       id="path-effect4504-9-4"
       is_visible="true" />
    <inkscape:path-effect
       effect="spiro"
       id="path-effect4504-9-4-6"
       is_visible="true" />
  </defs>
  <sodipodi:namedview
     inkscape:window-height="880"
     inkscape:window-width="1600"
     inkscape:pageshadow="2"
     inkscape:pageopacity="0.0"
     borderopacity="1.0"
     bordercolor="#666666"
     pagecolor="#ffffff"
     id="base"
     showgrid="true"
     showguides="true"
     inkscape:guide-bbox="true"
     inkscape:zoom="0.227"
     inkscape:cx="-344.62821"
     inkscape:cy="699.40647"
     inkscape:window-x="-2"
     inkscape:window-y="-3"
     inkscape:current-layer="layer1-9"
     inkscape:window-maximized="1">
    <sodipodi:guide
       orientation="horizontal"
       position="0,600"
       id="guide5596" />
    <inkscape:grid
       type="xygrid"
       id="grid3769"
       empspacing="3"
       visible="true"
       enabled="true"
       snapvisiblegridlinesonly="true"
       spacingx="4px"
       units="px"
       dotted="true"
       spacingy="4px" />
    <sodipodi:guide
       orientation="0,1"
       position="-1040,1600"
       id="guide2985" />
  </sodipodi:namedview>
  <metadata
     id="metadata5594">
    <rdf:RDF>
      <cc:Work
         rdf:about="">
        <dc:format>image/svg+xml</dc:format>
        <dc:type
           rdf:resource="http://purl.org/dc/dcmitype/StillImage" />
        <dc:title />
      </cc:Work>
    </rdf:RDF>
  </metadata>
  <g
     inkscape:label="Layer 1"
     inkscape:groupmode="layer"
     id="layer1"
     transform="translate(0,1048)">
    <g
       id="layer1-9"
       inkscape:label="Layer 1"
       transform="translate(-1168.8033,138.69548)">
      <path
         style="color:#000000;font-style:normal;font-variant:normal;font-weight:normal;font-stretch:normal;font-size:medium;line-height:normal;font-family:sans-serif;text-indent:0;text-align:start;text-decoration:none;text-decoration-line:none;text-decoration-style:solid;text-decoration-color:#000000;letter-spacing:normal;word-spacing:normal;text-transform:none;direction:ltr;block-progression:tb;writing-mode:lr-tb;baseline-shift:baseline;text-anchor:start;clip-rule:nonzero;display:inline;overflow:visible;visibility:visible;opacity:1;isolation:auto;mix-blend-mode:normal;color-interpolation:sRGB;color-interpolation-filters:linearRGB;solid-color:#000000;solid-opacity:1;fill:#000000;fill-opacity:1;fill-rule:evenodd;stroke:none;stroke-width:140;stroke-linecap:round;stroke-linejoin:round;stroke-miterlimit:4;stroke-dasharray:none;stroke-dashoffset:0;stroke-opacity:1;color-rendering:auto;image-rendering:auto;shape-rendering:auto;text-rendering:auto;enable-background:accumulate"
         d="m 2564.3164,-745.70312 c -72.5393,0.78597 -144.2452,19.43496 -208.3027,51.8125 -101.7749,51.4415 -181.6955,134.67293 -237.4688,228.98437 -70.3207,118.91098 -100.5754,245.11375 -147.1953,351.56836 -23.2754,53.148219 -50.5561,102.121386 -84.6738,142.140624 -33.8726,39.73166 -75.5484,71.004067 -119.8633,86.468746 -37.622,13.12902 -80.1633,15.87712 -120.4805,8.19141 -40.435,-7.70818 -79.9163,-25.980194 -113.4121,-51.925781 -66.8327,-51.768119 -111.1866,-136.732933 -122.7969,-225.052729 -13.8426,-105.30233 17.4304,-218.36237 83.418,-301.58399 65.9876,-83.22162 168.9416,-139.44384 274.627,-149.9707 a 70.007,70.007 0 1 0 -13.875,-139.31055 c -144.7509,14.418 -280.072,88.31519 -370.4512,202.29883 -90.3792,113.98362 -131.4829,262.58625 -112.5234,406.8125 15.9931,121.660502 75.2692,239.56242 175.8691,317.48633 50.2205,38.90043 109.3426,66.64821 172.9277,78.76953 63.7031,12.14379 130.4658,8.23011 192.8243,-13.53125 73.1194,-25.51668 133.4545,-72.90449 180.2753,-127.82422 46.5757,-54.63216 79.7572,-116.0215691 106.377,-176.806641 53.1703,-121.411979 83.1549,-241.257669 139.459,-336.466799 44.1913,-74.72662 106.624,-138.15603 180.1172,-175.30273 72.7758,-36.78415 159.7567,-47.29122 233.5215,-24.32031 81.9818,25.52976 153.0732,95.48569 185.3457,178.3496 32.5876,83.67309 29.429,183.57026 -4.8438,270 -27.7705,70.03218 -75.5307,132.95153 -135.5156,178.531254 -59.9849,45.579712 -133.4002,74.734996 -208.3125,82.726566 a 70.007,70.007 0 1 0 14.8496,139.21093 c 100.7351,-10.74631 197.5018,-49.17535 278.1641,-110.46679 80.6622,-61.291426 143.6118,-144.22364265 180.955,-238.396487 46.5482,-117.385873 52.1408,-251.779963 5.1582,-372.414063 -47.2977,-121.44326 -146.818,-221.54881 -274.1757,-261.20898 -42.6519,-13.2821 -86.4745,-19.24112 -129.9981,-18.76953 z"
         id="path4502-2-1"
         inkscape:connector-curvature="0" />
      <path
         style="fill:none;fill-rule:evenodd;stroke:#000000;stroke-width:140;stroke-linecap:round;stroke-linejoin:round;stroke-miterlimit:4;stroke-dasharray:none;stroke-opacity:1"
         d="m 1786.6051,879.8815 c -125.2181,12.47243 -244.3562,77.5323 -322.5396,176.1349 -78.1834,98.6027 -114.3711,229.4351 -97.97,354.1994 13.8017,104.9902 65.617,206.4237 149.3333,271.2697 41.8581,32.423 91.1597,55.4315 143.1698,65.3462 52.0101,9.9148 106.6617,6.5845 156.6519,-10.8607 58.7172,-20.4907 109.7228,-59.8206 150.0695,-107.1463 40.3467,-47.3257 70.5771,-102.5074 95.5247,-159.474 49.8951,-113.9333 80.0155,-236.9568 143.3279,-344.0169 49.9823,-84.519 121.1583,-157.84989 208.7924,-202.14399 87.634,-44.2941 192.1606,-57.87633 285.9121,-28.68141 104.6699,32.59497 189.9742,117.6256 229.7592,219.7792 39.7851,102.1536 35.4102,219.2991 -5.0003,321.2069 -32.5569,82.1025 -87.9116,155.0285 -158.2352,208.4641 -70.3237,53.4356 -155.4145,87.2275 -243.2382,96.5964"
         id="path4502-2-1-0"
         inkscape:path-effect="#path-effect4504-9-4-6"
         inkscape:original-d="m 1786.6051,879.8815 c -66.2368,27.9462 -602.0563,196.7497 -420.5096,530.3343 181.5479,333.5842 192.7702,900.6623 449.155,325.7552 256.3847,-574.9075 -259.2751,-1032.2444 388.9221,-610.6372 149.1768,97.0291 377.4017,-318.2912 494.7045,-230.8254 170.541,127.1624 233.1972,377.0512 224.7589,540.9861 -10.9773,213.2615 -158.0842,381.2214 -401.4734,305.0605"
         inkscape:connector-curvature="0"
         sodipodi:nodetypes="csssssc" />
    </g>
  </g>
</svg>
