<?xml version="1.0" encoding="UTF-8" standalone="no"?>
<!-- Created with Inkscape (http://www.inkscape.org/) -->

<svg
   xmlns:dc="http://purl.org/dc/elements/1.1/"
   xmlns:cc="http://creativecommons.org/ns#"
   xmlns:rdf="http://www.w3.org/1999/02/22-rdf-syntax-ns#"
   xmlns:svg="http://www.w3.org/2000/svg"
   xmlns="http://www.w3.org/2000/svg"
   xmlns:sodipodi="http://sodipodi.sourceforge.net/DTD/sodipodi-0.dtd"
   xmlns:inkscape="http://www.inkscape.org/namespaces/inkscape"
   width="2000"
   height="2048"
   id="svg2992"
   version="1.1"
   inkscape:version="0.91 r13725"
   sodipodi:docname="ഗ.svg">
  <defs
     id="defs5498">
    <inkscape:path-effect
       is_visible="true"
       id="path-effect4504"
       effect="spiro" />
    <inkscape:path-effect
       is_visible="true"
       id="path-effect4504-9"
       effect="spiro" />
    <inkscape:path-effect
       is_visible="true"
       id="path-effect4504-9-7"
       effect="spiro" />
    <inkscape:path-effect
       is_visible="true"
       id="path-effect4504-9-7-7"
       effect="spiro" />
    <inkscape:path-effect
       is_visible="true"
       id="path-effect4504-9-7-7-5"
       effect="spiro" />
    <inkscape:path-effect
       effect="spiro"
       id="path-effect4294"
       is_visible="true" />
    <inkscape:path-effect
       effect="spiro"
       id="path-effect4294-8"
       is_visible="true" />
    <inkscape:path-effect
       effect="spiro"
       id="path-effect4504-9-4"
       is_visible="true" />
    <inkscape:path-effect
       effect="spiro"
       id="path-effect4504-9-4-6"
       is_visible="true" />
    <inkscape:path-effect
       effect="spiro"
       id="path-effect4504-9-4-6-7"
       is_visible="true" />
    <inkscape:path-effect
       effect="spiro"
       id="path-effect4504-9-4-6-7-6"
       is_visible="true" />
    <inkscape:path-effect
       effect="spiro"
       id="path-effect4504-9-4-6-7-6-3"
       is_visible="true" />
    <inkscape:path-effect
       effect="spiro"
       id="path-effect4504-9-4-6-7-6-3-7"
       is_visible="true" />
    <inkscape:path-effect
       effect="spiro"
       id="path-effect4504-9-4-6-7-6-3-7-5"
       is_visible="true" />
    <inkscape:path-effect
       effect="spiro"
       id="path-effect4504-9-4-6-7-6-3-8"
       is_visible="true" />
    <inkscape:path-effect
       effect="spiro"
       id="path-effect4504-9-4-6-7-6-3-8-5"
       is_visible="true" />
    <inkscape:path-effect
       effect="spiro"
       id="path-effect4504-9-4-6-7-6-3-8-9"
       is_visible="true" />
    <inkscape:path-effect
       effect="spiro"
       id="path-effect4504-9-4-6-7-6-3-8-9-9"
       is_visible="true" />
  </defs>
  <sodipodi:namedview
     inkscape:window-height="704"
     inkscape:window-width="1366"
     inkscape:pageshadow="2"
     inkscape:pageopacity="0.0"
     borderopacity="1.0"
     bordercolor="#666666"
     pagecolor="#ffffff"
     id="base"
     showgrid="true"
     showguides="true"
     inkscape:guide-bbox="true"
     inkscape:zoom="0.16051324"
     inkscape:cx="1767.8873"
     inkscape:cy="1016.9108"
     inkscape:window-x="-6"
     inkscape:window-y="0"
     inkscape:current-layer="layer1-9"
     inkscape:window-maximized="1">
    <sodipodi:guide
       orientation="horizontal"
       position="0,600"
       id="guide5596" />
    <inkscape:grid
       type="xygrid"
       id="grid3769"
       empspacing="3"
       visible="true"
       enabled="true"
       snapvisiblegridlinesonly="true"
       spacingx="4px"
       units="px"
       dotted="true"
       spacingy="4px" />
    <sodipodi:guide
       orientation="0,1"
       position="-1040,1600"
       id="guide2985" />
  </sodipodi:namedview>
  <metadata
     id="metadata5594">
    <rdf:RDF>
      <cc:Work
         rdf:about="">
        <dc:format>image/svg+xml</dc:format>
        <dc:type
           rdf:resource="http://purl.org/dc/dcmitype/StillImage" />
        <dc:title />
      </cc:Work>
    </rdf:RDF>
  </metadata>
  <g
     inkscape:label="Layer 1"
     inkscape:groupmode="layer"
     id="layer1"
     transform="translate(0,1048)">
    <g
       id="layer1-9"
       inkscape:label="Layer 1"
       transform="translate(-1168.8033,138.69548)">
      <path
         style="color:#000000;font-style:normal;font-variant:normal;font-weight:normal;font-stretch:normal;font-size:medium;line-height:normal;font-family:sans-serif;text-indent:0;text-align:start;text-decoration:none;text-decoration-line:none;text-decoration-style:solid;text-decoration-color:#000000;letter-spacing:normal;word-spacing:normal;text-transform:none;direction:ltr;block-progression:tb;writing-mode:lr-tb;baseline-shift:baseline;text-anchor:start;white-space:normal;clip-rule:nonzero;display:inline;overflow:visible;visibility:visible;opacity:1;isolation:auto;mix-blend-mode:normal;color-interpolation:sRGB;color-interpolation-filters:linearRGB;solid-color:#000000;solid-opacity:1;fill:#000000;fill-opacity:1;fill-rule:evenodd;stroke:none;stroke-width:140;stroke-linecap:round;stroke-linejoin:round;stroke-miterlimit:4;stroke-dasharray:none;stroke-dashoffset:0;stroke-opacity:1;color-rendering:auto;image-rendering:auto;shape-rendering:auto;text-rendering:auto;enable-background:accumulate"
         d="m 1805.8672,-740.30469 c -228.5526,31.65099 -414.7165,239.68333 -423.7846,469.91273 -17.1657,230.067086 144.6108,457.10643 367.9601,515.42984 171.0534,51.29235 380.6032,1.6669 481.343,-153.769336 82.7802,-118.353466 71.7547,-266.554404 72.4093,-403.662524 -4.4191,-100.19345 35.8721,-212.19208 134.2048,-253.82672 173.7034,-75.86232 393.3114,25.22805 458.49,201.06819 72.0788,167.23668 -9.383,380.202014 -174.8409,456.525323 -43.4807,28.710717 -100.6648,22.161757 -142.7077,51.005167 -47.7717,38.70146 -14.828,124.91858 46.5792,121.90262 226.7258,-23.3783 417.8331,-222.146285 434.9893,-449.13276 25.1671,-226.4728 -126.1985,-456.63416 -344.5961,-522.39244 -168.1866,-57.00008 -381.6146,-16.66682 -483.8391,138.46545 -80.0183,113.06957 -67.6962,255.31564 -68.7323,386.47552 3.1095,105.372265 -33.6009,222.959489 -134.0329,273.185788 -174.13,88.853122 -405.4766,-8.447472 -477.3986,-187.000902 -78.0189,-167.589116 -1.6342,-385.941356 163.8912,-468.378416 42.5601,-29.92536 99.8952,-25.29082 140.8702,-55.60613 46.1886,-41.45911 11.1485,-124.4032 -50.8049,-120.2014 z"
         id="path4502-2-1-0-2-6"
         inkscape:connector-curvature="0" />
      <path
         style="fill:none;fill-rule:evenodd;stroke:#000000;stroke-width:140;stroke-linecap:round;stroke-linejoin:round;stroke-miterlimit:4;stroke-dasharray:none;stroke-opacity:1"
         d="m -104.96317,-668.03037 c -103.39138,23.51335 -197.40833,86.07589 -259.02572,172.36583 -61.61739,86.28993 -90.27555,195.52348 -78.95598,300.94892 11.31957,105.425441 62.51404,206.085183 141.0457,277.327266 78.53166,71.242084 183.68719,112.419414 289.713597,113.447494 49.146712,0.47655 98.659753,-7.56527 144.023543,-26.47962 45.36379,-18.91435 86.19729,-48.87865 117.03077,-87.152965 30.83348,-38.274312 51.23439,-84.416682 61.72838,-132.432331 10.49399,-48.01565 11.13644,-97.564254 11.10861,-146.713264 l -0.052,-91.8425 c -0.0247,-43.66078 0.48371,-87.61172 8.91769,-130.45016 8.43398,-42.83844 24.81021,-84.32771 49.90411,-120.05669 25.09389,-35.72899 58.60439,-65.37596 96.70229,-86.70232 38.0979,-21.32637 80.50352,-34.43401 123.69051,-40.84866 113.85132,-16.91057 234.01129,13.67168 325.92584,82.95231 91.91453,69.28063 154.40583,176.37185 169.50343,290.47774 15.0976,114.10588 -17.3919,233.764234 -88.1257,324.565238 C 937.43812,122.17692 829.36651,182.95702 715.03493,196.23784"
         id="path4502-2-1-0-2-6-8"
         inkscape:path-effect="#path-effect4504-9-4-6-7-6-3"
         inkscape:original-d="m -104.96317,-668.03037 c -453.1338,200.65466 -184.0729,778.8169 92.777597,864.08951 C 152.04003,246.64219 321.79883,-32.258303 321.70573,-196.71904 l -0.052,-91.8425 c -0.072,-126.6471 127.5115,-417.16463 279.2146,-378.05783 280.9412,72.4224 441.17677,944.71372 114.1666,862.85721"
         inkscape:connector-curvature="0"
         sodipodi:nodetypes="cassac" />
      <path
         style="fill:none;fill-rule:evenodd;stroke:#000000;stroke-width:70;stroke-linecap:round;stroke-linejoin:round;stroke-miterlimit:4;stroke-dasharray:none;stroke-opacity:1"
         d="m -2223.5937,-696.09111 c -112.5765,25.2121 -215.068,93.03862 -282.2771,186.80458 -67.2091,93.76595 -98.5204,212.61265 -86.236,327.32191 12.2843,114.709264 68.0518,224.230603 153.5921,301.63846 85.5403,77.40786 200.07,121.99335 315.4324,122.79524 53.2991,0.37048 106.9687,-8.48613 156.1198,-29.10406 49.1511,-20.61792 93.3717,-53.18779 126.756,-94.73795 33.3843,-41.550166 55.4657,-91.603013 66.8243,-143.679004 11.3587,-52.075991 12.0539,-105.807996 12.024,-159.108346 l -0.056,-99.75786 c -0.027,-47.35997 0.5237,-95.0334 9.6536,-141.50502 9.13,-46.47163 26.8571,-91.48613 54.029,-130.27606 27.1718,-38.78993 63.4635,-71.00762 104.741,-94.22689 41.2775,-23.21928 87.2386,-37.54953 134.0659,-44.63239 123.8489,-18.73273 254.7108,14.30695 354.8241,89.58506 100.1133,75.27811 168.18535,191.82279 184.57326,316.00369 16.38791,124.1809 -19.11994,254.394824 -96.27736,353.066993 -77.1574,98.672167 -194.9682,164.528707 -319.4367,178.565937"
         id="path4502-2-1-0-2-6-8-6"
         inkscape:path-effect="#path-effect4504-9-4-6-7-6-3-7"
         inkscape:original-d="m -2223.5937,-696.09111 c -490.9063,217.94787 -199.4169,845.93845 100.5114,938.56019 177.9152,54.9425 361.825,-247.9947581 361.7241,-426.62936 l -0.056,-99.75786 c -0.078,-137.56206 138.1406,-453.11754 302.4895,-410.64036 304.3599,78.66405 477.95252,1026.13293 123.6833,937.22168"
         inkscape:connector-curvature="0"
         sodipodi:nodetypes="cassac" />
      <path
         style="color:#000000;font-style:normal;font-variant:normal;font-weight:normal;font-stretch:normal;font-size:medium;line-height:normal;font-family:sans-serif;text-indent:0;text-align:start;text-decoration:none;text-decoration-line:none;text-decoration-style:solid;text-decoration-color:#000000;letter-spacing:normal;word-spacing:normal;text-transform:none;direction:ltr;block-progression:tb;writing-mode:lr-tb;baseline-shift:baseline;text-anchor:start;white-space:normal;clip-rule:nonzero;display:inline;overflow:visible;visibility:visible;opacity:1;isolation:auto;mix-blend-mode:normal;color-interpolation:sRGB;color-interpolation-filters:linearRGB;solid-color:#000000;solid-opacity:1;fill:#000000;fill-opacity:1;fill-rule:evenodd;stroke:none;stroke-width:70;stroke-linecap:round;stroke-linejoin:round;stroke-miterlimit:4;stroke-dasharray:none;stroke-dashoffset:0;stroke-opacity:1;color-rendering:auto;image-rendering:auto;shape-rendering:auto;text-rendering:auto;enable-background:accumulate"
         d="m -1150.5117,399.70703 c -25.2148,-0.0513 -50.4625,1.7831 -75.4883,5.56836 -50.3812,7.6204 -100.3999,23.08909 -145.9902,48.73438 -45.6949,25.70411 -85.899,61.3247 -116.2481,104.65039 -30.368,43.35257 -49.7472,92.92373 -59.7051,143.60937 -9.9513,50.65267 -10.3377,100.62739 -10.3105,148.27149 l 0.057,99.75781 c 0.03,52.98287 -0.8669,104.16197 -11.2207,151.63087 -10.341,47.4106 -30.404,92.4909 -59.9121,129.2168 -29.5258,36.7479 -69.0798,65.9543 -113.0117,84.3828 -44.0671,18.4854 -93.0791,26.7233 -142.3379,26.3809 -106.5061,-0.7404 -213.2179,-42.2828 -292.1914,-113.7481 -78.9735,-71.4654 -130.9341,-173.5109 -142.2754,-279.41405 -11.3413,-105.90313 17.8333,-216.63549 79.8828,-303.20313 62.0497,-86.56766 157.5444,-149.76442 261.4785,-173.04101 a 35.0035,35.0035 0 1 0 -15.2968,-68.3086 c -121.2189,27.14761 -230.7074,99.60411 -303.0762,200.56836 -72.3687,100.96427 -105.8173,227.92407 -92.5898,351.43945 13.2273,123.51538 72.801,240.51288 164.9082,323.86328 92.1071,83.3503 214.4551,130.9783 338.6738,131.8418 57.3394,0.3986 115.6673,-9.0775 169.9023,-31.8281 54.3703,-22.8073 103.2592,-58.7373 140.502,-105.0899 37.2605,-46.3745 61.3601,-101.4012 73.7363,-158.1425 12.3636,-56.6831 12.8582,-112.97 12.8281,-166.58793 l -0.057,-99.75782 c -0.027,-47.07526 0.6877,-92.44837 8.9961,-134.73828 8.3021,-42.25762 24.3777,-82.71412 48.3535,-116.9414 23.9946,-34.25416 56.3723,-63.06829 93.2324,-83.80274 36.9647,-20.79325 78.8672,-33.98593 122.1407,-40.53125 114.2271,-17.27739 236.22109,13.52335 328.55659,82.95313 92.33549,69.42977 155.79347,178.07605 170.9082,292.60937 15.11474,114.53332 -17.98733,235.92132 -89.15039,326.92772 -71.16304,91.0063 -180.98852,152.3991 -295.7871,165.3457 a 35.0035,35.0035 0 1 0 7.8457,69.5586 c 134.13847,-15.1277 259.93227,-85.4472 343.08398,-191.7851 83.15172,-106.3381 121.06733,-245.37859 103.40625,-379.20708 -17.66108,-133.82847 -90.34725,-258.27199 -198.23828,-339.39843 -87.66147,-65.91524 -196.34135,-101.56262 -305.60545,-101.78516 z"
         id="path4502-2-1-0-2-6-8-6-1"
         inkscape:connector-curvature="0" />
      <path
         style="fill:none;fill-rule:evenodd;stroke:#000000;stroke-width:120;stroke-linecap:round;stroke-linejoin:round;stroke-miterlimit:4;stroke-dasharray:none;stroke-opacity:1"
         d="m 281.55518,310.55888 c -72.20154,16.4201 -137.85662,60.10952 -180.88604,120.36855 -43.029417,60.25903 -63.042341,136.54034 -55.137524,210.16232 7.904817,73.62198 43.655575,143.91592 98.496774,193.66655 54.84119,49.75063 128.2747,78.50606 202.31635,79.22398 34.32072,0.33278 68.89726,-5.28309 100.57624,-18.4916 31.67898,-13.20851 60.19431,-34.13354 81.72632,-60.86172 21.532,-26.72818 35.7786,-58.95087 43.10689,-92.48173 7.32829,-33.53086 7.77695,-68.13223 7.75752,-102.45456 l -0.0363,-64.13656 c -0.0173,-30.48972 0.3378,-61.18207 6.22752,-91.09752 5.88973,-29.91545 17.32578,-58.88873 34.84965,-83.83943 17.52387,-24.95069 40.92531,-45.65412 67.53029,-60.547 26.60499,-14.89289 56.21818,-24.04638 86.37704,-28.52594 79.50604,-11.80921 163.41761,9.54735 227.60449,57.92823 64.1869,48.38089 107.8266,123.16613 118.3697,202.84994 10.5432,79.68381 -12.1453,163.24508 -61.541,226.65433 -49.3957,63.40926 -124.86558,105.85394 -204.707,115.12835"
         id="path4502-2-1-0-2-6-8-2"
         inkscape:path-effect="#path-effect4504-9-4-6-7-6-3-8"
         inkscape:original-d="M 281.55518,310.55888 C -34.882672,450.68242 153.01117,854.43169 346.34474,913.98028 461.02872,949.30401 579.57673,754.53884 579.51171,639.69067 l -0.0363,-64.13656 c -0.0503,-88.44173 89.04537,-291.31942 194.9845,-264.00989 196.19024,50.57488 308.08789,659.72387 79.72619,602.56085"
         inkscape:connector-curvature="0"
         sodipodi:nodetypes="cassac" />
      <path
         style="color:#000000;font-style:normal;font-variant:normal;font-weight:normal;font-stretch:normal;font-size:medium;line-height:normal;font-family:sans-serif;text-indent:0;text-align:start;text-decoration:none;text-decoration-line:none;text-decoration-style:solid;text-decoration-color:#000000;letter-spacing:normal;word-spacing:normal;text-transform:none;direction:ltr;block-progression:tb;writing-mode:lr-tb;baseline-shift:baseline;text-anchor:start;white-space:normal;clip-rule:nonzero;display:inline;overflow:visible;visibility:visible;opacity:1;isolation:auto;mix-blend-mode:normal;color-interpolation:sRGB;color-interpolation-filters:linearRGB;solid-color:#000000;solid-opacity:1;fill:#000000;fill-opacity:1;fill-rule:evenodd;stroke:none;stroke-width:120;stroke-linecap:round;stroke-linejoin:round;stroke-miterlimit:4;stroke-dasharray:none;stroke-dashoffset:0;stroke-opacity:1;color-rendering:auto;image-rendering:auto;shape-rendering:auto;text-rendering:auto;enable-background:accumulate"
         d="m 3267.7949,344.29883 c -18.0506,-0.061 -36.1534,1.22356 -54.1484,3.89648 -36.2623,5.38628 -72.8491,16.47572 -106.8692,35.51953 -34.2003,19.14473 -64.3311,45.68285 -87.3222,78.41797 -23.0234,32.78108 -37.3061,69.57993 -44.6211,106.73438 -7.3041,37.09869 -7.3747,71.74272 -7.3574,102.7207 l 0.037,64.13672 c 0.019,33.77655 -0.7759,63.99097 -6.375,89.60937 -5.5771,25.51771 -16.351,49.2015 -31.2149,67.65235 -14.8943,18.48871 -35.3836,33.65484 -58.0918,43.12305 -22.9414,9.56543 -49.5184,14.13844 -76.9043,13.87304 -58.8938,-0.57079 -118.9642,-24.09172 -162.5859,-63.66406 -43.6211,-39.57188 -72.8642,-97.07339 -79.1523,-155.63281 l 0,-0.002 c -6.2871,-58.55947 10.0826,-120.9583 44.3085,-168.88867 34.2265,-47.93088 87.9331,-83.66992 145.3633,-96.73047 A 60.006,60.006 0 1 0 2716.252,348.05273 c -86.9734,19.7791 -164.5792,71.42054 -216.4122,144.00782 -51.8328,72.58728 -75.4868,162.75126 -65.9648,251.43554 9.5221,88.68424 51.7786,171.77025 117.8398,231.69922 66.0614,59.92889 152.8591,93.91879 242.0489,94.78319 41.2555,0.3998 83.8316,-6.2596 124.248,-23.1113 40.6497,-16.9489 77.1917,-43.6321 105.3613,-78.59962 28.2002,-35.00543 45.9184,-75.76668 54.9981,-117.31055 9.0577,-41.44315 9.1622,-80.43279 9.1426,-115.30078 l -0.037,-64.13477 c -0.017,-30.00135 0.6221,-56.74252 5.0976,-79.4746 4.4646,-22.67634 13.0559,-43.82507 25.0801,-60.94532 12.0565,-17.16618 28.7288,-32.03463 47.7383,-42.67578 19.1897,-10.74206 41.8294,-17.9601 65.8847,-21.5332 63.039,-9.3636 131.781,8.13384 182.6739,46.49414 l 0,-0.002 c 50.8927,38.36028 86.6444,99.62861 95.0039,162.80859 8.3595,63.17993 -10.2275,131.63603 -49.3926,181.91211 -39.1652,50.27609 -100.9919,85.04713 -164.2969,92.40039 a 60.006,60.006 0 1 0 13.8457,119.19924 c 96.3784,-11.195 185.4904,-61.3129 245.1172,-137.85549 59.6267,-76.54257 86.4164,-175.20838 73.6895,-271.39649 -12.7269,-96.18806 -64.2549,-184.49306 -141.7364,-242.89453 -62.9537,-47.45118 -140.1673,-72.99525 -218.3867,-73.25976 z"
         id="path4502-2-1-0-2-6-8-2-9"
         inkscape:connector-curvature="0" />
      <path
         style="fill:none;fill-rule:evenodd;stroke:#000000;stroke-width:59.99999619;stroke-linecap:round;stroke-linejoin:round;stroke-miterlimit:4;stroke-dasharray:none;stroke-opacity:1"
         d="m 4335.2621,293.99407 c -75.8025,17.05591 -144.7894,62.78627 -190.0201,125.96149 -45.2307,63.17521 -66.292,143.21816 -58.0122,220.47337 8.2799,77.25521 45.8253,151.01696 103.4166,203.17219 57.5913,52.15523 134.7023,82.2275 212.3976,82.83223 35.932,0.27967 72.1194,-5.66344 105.2643,-19.54164 33.1449,-13.87819 62.9694,-35.82037 85.4868,-63.82318 22.5174,-28.00282 37.4125,-61.74395 45.0744,-96.85071 7.662,-35.10676 8.1309,-71.33124 8.1106,-107.26436 l -0.038,-67.22082 c -0.018,-31.92601 0.3531,-64.06359 6.5114,-95.39002 6.1584,-31.32643 18.116,-61.6693 36.4427,-87.81125 18.3267,-26.14194 42.8033,-47.84832 70.6389,-63.48318 27.8356,-15.63486 58.8263,-25.27218 90.3971,-30.02133 83.4164,-12.54822 171.5256,9.75174 238.9292,60.4717 67.4036,50.71996 113.2333,129.20658 124.2783,212.83531 11.0451,83.62873 -12.8369,171.32233 -64.7616,237.80223 -51.9248,66.47991 -131.2234,110.88979 -215.0374,120.42805"
         id="path4502-2-1-0-2-6-8-2-8"
         inkscape:path-effect="#path-effect4504-9-4-6-7-6-3-8-9"
         inkscape:original-d="m 4335.2621,293.99407 c -331.0529,146.86194 -134.481,570.02707 67.7819,632.43928 119.9808,37.02241 244.0041,-167.1088 243.9361,-287.47989 l -0.038,-67.22082 c -0.052,-92.69479 93.1581,-305.32867 203.9901,-276.70578 205.2515,53.00689 322.3173,691.44921 83.4085,631.53729"
         inkscape:connector-curvature="0"
         sodipodi:nodetypes="cassac" />
      <path
         style="color:#000000;font-style:normal;font-variant:normal;font-weight:normal;font-stretch:normal;font-size:medium;line-height:normal;font-family:sans-serif;text-indent:0;text-align:start;text-decoration:none;text-decoration-line:none;text-decoration-style:solid;text-decoration-color:#000000;letter-spacing:normal;word-spacing:normal;text-transform:none;direction:ltr;block-progression:tb;writing-mode:lr-tb;baseline-shift:baseline;text-anchor:start;white-space:normal;clip-rule:nonzero;display:inline;overflow:visible;visibility:visible;opacity:1;isolation:auto;mix-blend-mode:normal;color-interpolation:sRGB;color-interpolation-filters:linearRGB;solid-color:#000000;solid-opacity:1;fill:#000000;fill-opacity:1;fill-rule:evenodd;stroke:none;stroke-width:59.99999619;stroke-linecap:round;stroke-linejoin:round;stroke-miterlimit:4;stroke-dasharray:none;stroke-dashoffset:0;stroke-opacity:1;color-rendering:auto;image-rendering:auto;shape-rendering:auto;text-rendering:auto;enable-background:accumulate"
         d="m 4610.2852,-698.42969 c -17.3014,-0.0445 -34.6303,1.20572 -51.8164,3.79102 -34.6187,5.20765 -69.0894,15.81813 -100.625,33.53125 -31.6254,17.76352 -59.4586,42.38686 -80.5118,72.41797 -21.0693,30.0541 -34.4455,64.30532 -41.3144,99.24609 -6.8634,34.9131 -7.0943,69.02352 -7.0762,101.19336 l 0.039,67.2207 c 0.02,35.66075 -0.6222,69.69402 -7.4219,100.84961 -6.7887,31.10554 -19.9512,60.58265 -39.1426,84.44922 -19.2066,23.8855 -45.0276,42.945684 -73.6953,54.94922 -28.7838,12.052165 -60.9758,17.467549 -93.4434,17.214844 -70.1094,-0.545682 -140.5258,-28.005378 -192.4941,-75.068364 -51.9683,-47.06297 -86.2531,-114.42051 -93.7246,-184.13281 -7.4714,-69.71231 11.7616,-142.8055 52.5762,-199.8125 40.8145,-57.00699 103.8114,-98.76757 172.2129,-114.1582 a 30.002998,30.002998 0 1 0 -13.1719,-58.53516 c -83.2036,18.72119 -158.1793,68.4222 -207.8262,137.76563 -49.6469,69.34342 -72.5374,156.3347 -63.4492,241.13281 9.0883,84.79812 49.8931,164.9654 113.1074,222.212891 63.2143,57.247472 147.0216,89.9299814 232.3027,90.5937496 39.3965,0.3066348 79.5781,-6.1629546 117.084,-21.8671876 37.6221,-15.752861 71.4511,-40.577135 97.2793,-72.697265 25.8434,-32.139068 42.4707,-70.143968 51.0059,-109.251958 8.5243,-39.05793 8.8212,-77.47223 8.8008,-113.67773 l -0.039,-67.22266 c -0.018,-31.68218 0.496,-61.84617 5.9492,-89.58593 5.4479,-27.71209 15.9862,-54.14716 31.5703,-76.37696 15.6003,-22.25277 36.7198,-41.04068 60.7657,-54.54687 24.1356,-13.55663 51.645,-22.22105 80.1679,-26.51172 75.1733,-11.30824 155.6869,9.06947 216.4297,54.77734 60.7429,45.70789 102.6207,117.42639 112.5742,192.79102 9.9536,75.36467 -11.8704,155.49776 -58.664,215.4082 -46.7936,59.91043 -119.2536,100.490254 -194.7852,109.085939 a 30.002998,30.002998 0 1 0 6.7832,59.6152348 c 92.0964,-10.4808008 178.2332,-58.7181848 235.2891,-131.7675738 57.0559,-73.0494 82.9958,-168.30446 70.8594,-260.19727 -12.1365,-91.89285 -61.9181,-177.14685 -135.9825,-232.87891 -60.1772,-45.28228 -134.6407,-69.76423 -209.6132,-69.95703 z"
         id="path4502-2-1-0-2-6-8-2-8-1"
         inkscape:connector-curvature="0" />
    </g>
  </g>
</svg>
