<?xml version="1.0" encoding="UTF-8" standalone="no"?>
<!-- Created with Inkscape (http://www.inkscape.org/) -->

<svg
   xmlns:dc="http://purl.org/dc/elements/1.1/"
   xmlns:cc="http://creativecommons.org/ns#"
   xmlns:rdf="http://www.w3.org/1999/02/22-rdf-syntax-ns#"
   xmlns:svg="http://www.w3.org/2000/svg"
   xmlns="http://www.w3.org/2000/svg"
   xmlns:sodipodi="http://sodipodi.sourceforge.net/DTD/sodipodi-0.dtd"
   xmlns:inkscape="http://www.inkscape.org/namespaces/inkscape"
   width="2000"
   height="2048"
   id="svg2992"
   version="1.1"
   inkscape:version="0.91 r13725"
   sodipodi:docname="ഗ്ദ്ധ.svg">
  <defs
     id="defs5498">
    <inkscape:path-effect
       effect="spiro"
       id="path-effect4147"
       is_visible="true" />
    <inkscape:path-effect
       effect="spiro"
       id="path-effect4140-6-7-6"
       is_visible="true" />
    <inkscape:path-effect
       effect="spiro"
       id="path-effect4147-3"
       is_visible="true" />
    <inkscape:path-effect
       effect="spiro"
       id="path-effect4147-0"
       is_visible="true" />
    <inkscape:path-effect
       effect="spiro"
       id="path-effect4147-0-9"
       is_visible="true" />
  </defs>
  <sodipodi:namedview
     inkscape:window-height="704"
     inkscape:window-width="1366"
     inkscape:pageshadow="2"
     inkscape:pageopacity="0.0"
     borderopacity="1.0"
     bordercolor="#666666"
     pagecolor="#ffffff"
     id="base"
     showgrid="true"
     showguides="true"
     inkscape:guide-bbox="true"
     inkscape:zoom="0.16"
     inkscape:cx="-209.092"
     inkscape:cy="934.73479"
     inkscape:window-x="-4"
     inkscape:window-y="0"
     inkscape:current-layer="layer1"
     inkscape:window-maximized="1">
    <sodipodi:guide
       orientation="horizontal"
       position="0,600"
       id="guide5596" />
    <inkscape:grid
       type="xygrid"
       id="grid3769"
       empspacing="3"
       visible="true"
       enabled="true"
       snapvisiblegridlinesonly="true"
       spacingx="4px"
       units="px"
       dotted="true"
       spacingy="4px" />
    <sodipodi:guide
       orientation="0,1"
       position="-1536,1632"
       id="guide2985" />
  </sodipodi:namedview>
  <metadata
     id="metadata5594">
    <rdf:RDF>
      <cc:Work
         rdf:about="">
        <dc:format>image/svg+xml</dc:format>
        <dc:type
           rdf:resource="http://purl.org/dc/dcmitype/StillImage" />
        <dc:title />
      </cc:Work>
    </rdf:RDF>
  </metadata>
  <g
     inkscape:label="Layer 1"
     inkscape:groupmode="layer"
     id="layer1"
     transform="translate(0,1048)">
    <path
       style="fill:none;fill-rule:evenodd;stroke:#000000;stroke-width:140;stroke-linecap:round;stroke-linejoin:round;stroke-miterlimit:4;stroke-dasharray:none;stroke-opacity:1"
       d="m 627.55545,-543.5049 c -76.4454,56.47684 -138.2549,132.59318 -177.83902,219.00284 -39.58412,86.40966 -56.85812,182.92765 -49.70095,277.702687 7.86087,104.093368 46.60297,207.826813 119.2731,282.768613 36.33506,37.47091 80.76488,67.32182 129.8233,85.14251 49.05843,17.82069 102.73203,23.42635 154.1393,14.39315 60.08095,-10.55732 116.07533,-41.03038 159.59847,-83.77279 43.52315,-42.74242 74.72215,-97.40212 92.17135,-155.854693 35.2703,-118.151116 15.1471,-248.073827 54.6321,-364.883997 27.0706,-80.08404 82.0792,-150.16825 152.6053,-196.77664 70.526,-46.60839 156.0456,-69.70152 240.5194,-66.47054 63.0779,2.41262 126.3175,19.6096 178.8209,54.65288 52.5034,35.04329 93.5433,88.68085 108.0373,150.11832 7.7867,33.00641 7.8403,67.92074 -0.7557,100.72568 -8.596,32.80494 -25.8995,63.25583 -49.5553,87.55516 -23.6558,24.29932 -53.4048,42.231024 -85.172,54.101329 -31.7671,11.870306 -65.4092,17.718743 -98.8815,23.165035 l -27.5016,4.4748 33.11,0.555 c 29.9404,0.50187 59.9792,1.121483 89.5871,5.59969 29.6078,4.478206 58.8343,12.876055 85.1514,27.162143 26.317,14.2860881 49.6137,34.556201 65.8568,59.712528 16.2432,25.156326 25.2132,55.201947 23.9226,85.118735 -1.6966,39.32734 -21.0277,76.70646 -48.8754,104.52769 -27.8478,27.82123 -63.6983,46.65869 -101.1345,58.82621 -84.8232,27.56926 -180.1158,21.38085 -260.6609,-16.9276 25.3804,11.39717 51.2894,21.61722 77.6158,30.6163 83.7291,28.62092 172.2931,44.84673 260.7026,41.17464 88.4095,-3.6721 176.7019,-27.77605 251.4558,-75.12134 104.1948,-65.99166 178.5246,-177.330021 199.5224,-298.864196 l 2.1414,-499.452414 -0.4191,501.782314 c 10.6117,102.453406 61.2193,200.236026 138.7364,268.062396 77.517,67.82638 181.1527,105.00459 284.108,101.9208 119.0242,-3.5651 235.0671,-61.35506 310.8357,-153.21683 75.7687,-91.861763 110.4115,-216.065995 94.6747,-334.09917 -15.5943,-116.96443 -80.2396,-226.59916 -175.041,-296.85968 -94.8015,-70.26051 -218.501,-100.21431 -334.943,-81.10636"
       id="path4145"
       inkscape:path-effect="#path-effect4147"
       inkscape:original-d="m 627.55545,-543.5049 c 0,0 -262.1547,317.91104 -227.53997,496.705527 C 435.22036,135.0434 618.032,335.68408 803.25118,335.5049 919.10993,335.39282 1001.5854,198.67772 1055.021,95.877417 c 56.7217,-109.122177 -11.1825,-260.992507 54.6321,-364.883997 84.3971,-133.22503 235.4344,-265.60525 393.1247,-263.24718 117.4692,1.7566 273.5094,88.04969 286.8582,204.7712 13.4143,117.29476 -133.1859,249.084504 -234.3645,265.547204 l -27.5016,4.4748 33.11,0.555 c 65.996,1.1062 251.9786,72.1343 264.5179,177.593096 8.7287,73.4104 -81.3987,135.8261 -150.0099,163.3539 -80.8086,32.4215 -260.6609,-16.9276 -260.6609,-16.9276 0,0 50.1362,26.3291 77.6158,30.6163 169.049,26.3744 364.0351,51.6843 512.1584,-33.9467 103.7001,-59.9497 199.5224,-298.864196 199.5224,-298.864196 l 2.1414,-499.452414 -0.4191,501.782314 c 0,0 236.142,384.758396 422.8444,369.983196 210.6641,-16.6714 430.6999,-277.499996 405.5104,-487.316 -25.2216,-210.0838 -509.984,-377.96604 -509.984,-377.96604"
       inkscape:connector-curvature="0"
       sodipodi:nodetypes="caaaaaascsaacaacccaac" />
    <path
       style="color:#000000;font-style:normal;font-variant:normal;font-weight:normal;font-stretch:normal;font-size:medium;line-height:normal;font-family:sans-serif;text-indent:0;text-align:start;text-decoration:none;text-decoration-line:none;text-decoration-style:solid;text-decoration-color:#000000;letter-spacing:normal;word-spacing:normal;text-transform:none;direction:ltr;block-progression:tb;writing-mode:lr-tb;baseline-shift:baseline;text-anchor:start;white-space:normal;clip-rule:nonzero;display:inline;overflow:visible;visibility:visible;opacity:1;isolation:auto;mix-blend-mode:normal;color-interpolation:sRGB;color-interpolation-filters:linearRGB;solid-color:#000000;solid-opacity:1;fill:#000000;fill-opacity:1;fill-rule:evenodd;stroke:none;stroke-width:140;stroke-linecap:round;stroke-linejoin:round;stroke-miterlimit:4;stroke-dasharray:none;stroke-dashoffset:0;stroke-opacity:1;color-rendering:auto;image-rendering:auto;shape-rendering:auto;text-rendering:auto;enable-background:accumulate"
       d="m 595.72461,542.5918 a 70.007,70.007 0 0 0 -43.75195,14.28125 c -86.118,63.62283 -155.29209,148.80735 -199.88477,246.15039 -44.59268,97.34304 -63.92409,205.36006 -55.86133,312.12696 8.89841,117.8324 52.33264,237.0353 138.82032,326.2266 43.25369,44.6058 96.28714,80.4522 156.17578,102.207 60.03075,21.8064 125.70523,28.8678 190.15429,17.543 75.39328,-13.248 143.46058,-50.6548 196.53125,-102.7735 52.8773,-51.9288 89.6295,-116.8674 110.1992,-185.7734 41.3812,-138.6217 21.7389,-267.434 53.8711,-362.49221 21.8258,-64.56816 67.3189,-122.74958 124.8848,-160.79297 57.6836,-38.12128 129.3087,-57.597 199.25,-54.92187 52.1686,1.99535 102.9256,16.42265 142.6367,42.92773 39.0803,26.08403 68.9633,66.41027 78.7676,107.96875 5.2701,22.33926 5.1511,45.9529 -0.3399,66.9082 -5.4498,20.7982 -16.8303,40.89042 -31.998,56.47071 -15.2012,15.6148 -35.9801,28.56227 -59.5176,37.35746 -23.6497,8.8371 -52.6508,14.2818 -85.6211,19.6464 l -27.5019,4.4747 a 70.007,70.007 0 0 0 10.0683,139.082 l 33.1114,0.5547 c 29.7595,0.4988 56.6612,1.2482 80.291,4.8222 23.5481,3.5617 44.8964,10.0623 62.2246,19.4688 17.1403,9.3046 31.4521,22.2359 40.4453,36.1641 8.8359,13.6844 13.3966,30.1834 12.7949,44.1308 -0.7921,18.3606 -11.2856,40.9113 -28.4141,58.0234 -17.7738,17.7569 -43.5671,32.1121 -73.2988,41.7754 -59.7434,19.4179 -127.8613,17.5389 -187.0976,-4.4121 -7.7746,-3.211 -15.5773,-6.3553 -23.25,-9.8008 a 70.007,70.007 0 0 0 -58.7422,127.0723 c 0.4618,0.2197 0.9359,0.4071 1.3984,0.625 l -0.01,0.018 c 0.6549,0.2941 1.3191,0.5667 1.9746,0.8594 6.2272,2.8943 12.5153,5.6244 18.8594,8.2011 20.6543,8.6997 41.6083,16.6861 62.8164,23.9356 90.3627,30.8884 187.3592,48.9843 286.248,44.8769 99.1691,-4.119 199.2763,-30.9937 286.0059,-85.9238 63.3461,-40.1202 116.6362,-93.9965 156.7383,-156.3828 26.2573,45.3942 59.8542,86.5964 99.6933,121.4551 l 0,-0 c 91.246,79.8391 211.1093,122.839 332.2989,119.209 140.2909,-4.2021 273.8197,-70.8352 362.7422,-178.6445 88.8119,-107.6754 128.424,-250.1416 110.0585,-387.89065 C 3051.3119,860.9396 2977.3095,735.43404 2866.752,653.49609 2756.1943,571.55815 2614.5879,537.269 2478.793,559.55273 a 70.007,70.007 0 1 0 22.6699,138.15235 c 97.0891,-15.93217 202.8824,9.68646 281.9277,68.26953 79.0452,58.58307 134.3335,152.34639 147.336,249.87109 13.1081,98.3174 -16.5656,204.2604 -79.2911,280.3086 -62.6147,75.914 -161.1722,124.859 -258.9296,127.7871 -84.721,2.5376 -172.13,-28.8191 -235.918,-84.6328 -63.0489,-55.1669 -105.419,-136.3804 -114.8262,-219.666 l 0.4141,-497.13869 0,-0.0586 0,-0.24219 a 70.007,70.007 0 0 0 -139.9981,-0.35742 l -0,0.24219 0,0.26367 -2.1113,492.24804 c -18.6865,99.4468 -81.5767,192.6181 -167.0059,246.7246 -37.4151,23.6968 -79.7507,40.6977 -124.2461,51.3711 29.6742,-36.0706 50.3279,-81.2394 52.5313,-132.3125 1.9795,-45.8862 -11.4003,-89.4773 -35.0508,-126.1055 -21.3185,-33.0168 -49.9061,-58.7321 -81.5313,-77.6211 3.6399,-3.3502 7.2419,-6.764 10.7324,-10.3496 32.144,-33.0183 55.3692,-73.8289 67.1114,-118.64058 11.701,-44.65458 11.4751,-90.86941 1.1718,-134.54297 -19.1837,-81.31647 -71.3801,-148.26505 -137.3066,-192.26758 -65.2957,-43.5815 -141.0186,-63.54902 -215.0059,-66.37891 -99.0065,-3.78683 -198.4206,22.92401 -281.789,78.01953 -83.4864,55.17342 -148.0088,137.15983 -180.3242,232.75977 -46.83781,138.56224 -26.23512,269.59684 -55.39457,367.27734 -14.32867,47.9992 -39.97362,92.3776 -74.14258,125.9336 -33.97562,33.3661 -77.89737,56.9068 -122.66601,64.7734 -38.36548,6.7416 -80.03891,2.5908 -118.125,-11.2441 -38.22821,-13.8866 -74.05428,-37.7421 -103.47071,-68.0781 -58.85258,-60.6923 -92.90127,-148.9562 -99.72461,-239.3106 -6.25157,-82.7831 8.96351,-167.80104 43.53907,-243.27732 34.57555,-75.47628 89.02212,-142.52462 155.79492,-191.85547 A 70.007,70.007 0 0 0 595.72461,542.5918 Z"
       id="path4145-0"
       inkscape:connector-curvature="0" />
    <path
       style="fill:none;fill-rule:evenodd;stroke:#000000;stroke-width:70;stroke-linecap:round;stroke-linejoin:round;stroke-miterlimit:4;stroke-dasharray:none;stroke-opacity:1"
       d="m -2383.6971,-613.56957 c -168.4169,129.32528 -266.7058,344.92942 -253.8703,556.883493 7.115,117.489849 48.4214,235.508077 129.6745,320.669267 40.6265,42.5806 90.7861,76.37114 146.3083,95.88807 55.5221,19.51693 116.3908,24.50113 173.9143,12.06472 60.1384,-13.00174 115.488,-44.70979 160.3218,-86.84769 44.8338,-42.1379 79.4459,-94.43189 104.9621,-150.41936 37.314,-81.874046 55.4914,-171.451283 62.7565,-261.13358 5.331,-65.80721 5.0402,-132.69219 21.9136,-196.5224 18.0427,-68.25332 55.8138,-131.11025 107.317,-179.39559 51.5032,-48.28534 116.5449,-81.89032 185.6394,-96.38167 75.6124,-15.85835 158.1645,-7.9305 223.7702,32.86928 32.8028,20.39989 60.8467,48.75849 79.4949,82.58781 18.6483,33.82931 27.6817,73.13972 24.0985,111.60192 -4.7683,51.18319 -33.0885,99.47847 -74.9867,129.26099 -20.9491,14.89126 -44.8532,25.35076 -69.6211,32.21842 -24.7679,6.86767 -50.3649,10.15633 -75.8813,13.24308 l -41.4723,5.01695 47.7296,5.10685 c 64.19,6.86804 130.0018,14.61245 187.2724,44.40508 28.6354,14.89632 54.7253,35.23403 74.208,60.969325 19.4828,25.735291 32.1312,57.007618 33.6469,89.2502221 2.0653,43.9328639 -17.0884,87.8081539 -48.6902,118.3972229 -31.6017,30.58908 -74.8121,48.1158 -118.6785,51.29384 -49.4832,3.58496 -98.9036,-10.18505 -148.4498,-7.61418 -24.7732,1.28544 -49.7815,6.87373 -70.9099,19.87172 -10.5642,6.49899 -20.0608,14.8175 -27.4875,24.75145 -7.4267,9.93396 -12.7515,21.50133 -14.968,33.70489 -3.0299,16.6815 -0.1451,34.19339 6.9675,49.58376 7.1126,15.39037 18.3144,28.70878 31.4958,39.37202 26.3627,21.32649 59.7421,31.83608 92.7626,39.54678 168.8153,39.42044 355.4202,13.76784 497.78682,-85.14796 112.77697,-78.35701 194.08525,-200.742029 222.61057,-335.072858 l 2.38919,-559.963182 -0.4676,562.575361 c 11.24649,114.70548 67.4724,224.400589 154.02844,300.505019 86.55603,76.10442 202.54489,117.82919 317.74644,114.3032 C -107.16059,369.79569 22.606286,304.77855 107.11123,201.73032 191.61617,98.682096 229.94849,-40.421647 212.07011,-172.4837 194.39889,-303.01553 122.31028,-425.31702 16.666339,-503.99477 -88.977603,-582.67253 -226.80449,-616.70446 -356.92795,-596.24191"
       id="path4145-2"
       inkscape:path-effect="#path-effect4147-0"
       inkscape:original-d="m -2383.6971,-613.56957 c 0,0 -292.4905,356.42729 -253.8703,556.883493 39.2787,203.873787 243.2704,425.354997 449.8971,428.622057 118.3664,1.87154 204.4444,-135.41845 265.2839,-237.26705 45.9094,-76.854877 47.3065,-172.953956 62.7565,-261.13358 11.3754,-64.92445 -7.5446,-137.558 21.9136,-196.5224 59.938,-119.97382 159.2144,-265.8095 292.9564,-275.77726 132.4328,-9.87018 323.1352,94.32628 327.3636,227.05901 2.9858,93.72724 -107.6024,156.26514 -220.4891,174.72249 l -41.4723,5.01695 47.7296,5.10685 c 73.2302,7.83528 282.8479,77.02859 295.1273,194.6246271 8.2704,79.2039359 -98.8379,129.6912729 -167.3687,169.6910629 -78.1436,45.6105 -216.1567,-15.4509 -261.8152,70.71388 -22.2122,41.91772 88.3379,108.55412 131.2259,128.50256 173.0442,80.48778 356.5719,6.88752 497.78682,-85.14796 112.12443,-73.07612 222.61057,-335.072858 222.61057,-335.072858 l 2.38919,-559.963182 -0.4676,562.575361 c 0,0 263.46775,431.373489 471.77488,414.808219 C -5.3233074,355.18149 240.17447,62.752411 212.07011,-172.4837 183.92993,-408.02003 -356.92795,-596.24191 -356.92795,-596.24191"
       inkscape:connector-curvature="0"
       sodipodi:nodetypes="caaaaaaascsaassacccaac" />
    <path
       style="color:#000000;font-style:normal;font-variant:normal;font-weight:normal;font-stretch:normal;font-size:medium;line-height:normal;font-family:sans-serif;text-indent:0;text-align:start;text-decoration:none;text-decoration-line:none;text-decoration-style:solid;text-decoration-color:#000000;letter-spacing:normal;word-spacing:normal;text-transform:none;direction:ltr;block-progression:tb;writing-mode:lr-tb;baseline-shift:baseline;text-anchor:start;white-space:normal;clip-rule:nonzero;display:inline;overflow:visible;visibility:visible;opacity:1;isolation:auto;mix-blend-mode:normal;color-interpolation:sRGB;color-interpolation-filters:linearRGB;solid-color:#000000;solid-opacity:1;fill:#000000;fill-opacity:1;fill-rule:evenodd;stroke:none;stroke-width:70;stroke-linecap:round;stroke-linejoin:round;stroke-miterlimit:4;stroke-dasharray:none;stroke-dashoffset:0;stroke-opacity:1;color-rendering:auto;image-rendering:auto;shape-rendering:auto;text-rendering:auto;enable-background:accumulate"
       d="m -2479.2734,503.125 a 35.0035,35.0035 0 0 0 -21.7403,7.54492 c -178.1034,136.76342 -281.0639,362.61518 -267.4902,586.75978 7.5235,124.2368 50.9752,250.1552 139.2871,342.7148 44.175,46.2997 98.8013,83.2249 160.0254,104.7461 61.3134,21.5527 128.5222,27.1781 192.918,13.2559 67.2908,-14.548 127.9704,-49.5725 176.8945,-95.5547 48.8133,-45.8781 85.783,-102.0359 112.8418,-161.4082 39.5303,-86.737 58.2999,-180.3264 65.793,-272.8223 5.4933,-67.81176 5.561,-132.51071 20.8652,-190.40427 16.3151,-61.71808 50.7425,-119.04743 97.418,-162.80664 46.6882,-43.77121 106.1104,-74.49435 168.8847,-87.66016 68.3101,-14.32682 141.9523,-6.58419 198.1035,28.33594 28.0471,17.44231 51.8476,41.68416 67.3262,69.76367 15.4213,27.97532 22.7753,60.59947 19.9004,91.45899 -3.7696,40.46358 -27.0088,80.23496 -60.4141,103.98047 -17.0095,12.09089 -37.1572,21.0455 -58.6953,27.01758 -21.5569,5.97733 -45.3879,9.15865 -70.7324,12.2246 l -41.4726,5.01563 a 35.0035,35.0035 0 0 0 0.4785,69.54883 l 47.7304,5.10547 c 63.9389,6.84119 125.1088,14.78179 174.8438,40.65429 24.7863,12.894 46.6924,30.2235 62.4551,51.0449 15.647,20.6686 25.4531,45.5878 26.5898,69.7676 1.5373,32.7019 -13.4079,67.7335 -38.0703,91.6055 -24.9462,24.1468 -60.5966,38.9076 -96.8652,41.5351 -41.3658,2.9969 -90.5267,-10.6285 -147.7344,-7.6601 -28.7982,1.4943 -59.6223,7.9051 -87.4356,25.0156 -13.9436,8.578 -26.7959,19.7144 -37.1796,33.6035 -10.4246,13.944 -18.0902,30.3335 -21.3731,48.4082 -4.4977,24.7625 -0.2094,49.2248 9.6328,70.5215 9.7575,21.1134 24.5315,38.3727 41.2539,51.9004 33.2227,26.8759 72.0242,38.2935 106.8164,46.418 177.6513,41.4838 373.9096,14.9868 525.7168,-90.4883 85.83483,-59.6377 154.11849,-142.7542 197.34182,-237.4942 28.33563,77.6685 75.7711,148.2451 138.13672,203.0801 93.43629,82.1539 217.56891,126.8082 341.92774,123.002 143.88263,-4.4039 282.402685,-73.8802 373.470701,-184.9317 C 129.1829,1264.9466 169.96286,1116.711 150.75391,974.82031 131.77495,834.62864 55.034253,704.43378 -58.427734,619.93359 -171.88972,535.43341 -318.61216,499.20673 -458.36523,521.18359 a 35.0035,35.0035 0 1 0 10.875,69.15039 c 120.49386,-18.94825 249.42603,12.88688 347.25195,85.74219 97.8259136,72.85531 165.261514,187.26276 181.624999,308.13477 16.547803,122.23356 -19.337103,252.20696 -97.339844,347.32616 -77.941848,95.045 -198.956355,155.6014 -321.482425,159.3516 -106.04429,3.2457 -213.88866,-35.5486 -293.56445,-105.6035 -79.33156,-69.7523 -131.47044,-171.1715 -142.13867,-276.2715 l 0.46679,-560.34573 0,-0.0293 0,-0.12109 a 35.0035,35.0035 0 0 0 -70,-0.17774 l 0,0.1211 -2.37109,555.84566 c -27.21837,124.1186 -103.25273,237.9748 -207.59963,310.4746 -132.9259,92.3565 -309.8781,117.1658 -469.8574,79.8086 -31.2488,-7.2969 -59.2062,-16.8967 -78.709,-32.6738 -9.6404,-7.7987 -17.2686,-17.1765 -21.7363,-26.8437 -4.383,-9.4841 -5.8649,-20.046 -4.3027,-28.6465 1.1501,-6.3325 4.1356,-13.0799 8.5644,-19.0039 l -0,0 c 4.4697,-5.9787 10.6101,-11.4765 17.7949,-15.8965 14.4435,-8.8855 33.6365,-13.6538 54.3847,-14.7305 41.8847,-2.1732 91.5654,11.7434 149.1661,7.5703 51.4641,-3.7284 102.2349,-24.0233 140.4921,-61.0547 38.5408,-37.3055 61.9013,-90.0243 59.3086,-145.1875 l 0,-0 c -1.8951,-40.3047 -17.3849,-77.9289 -40.7031,-108.7305 -23.2027,-30.6491 -53.4764,-53.99589 -85.9609,-70.89451 -21.8719,-11.37792 -44.4071,-19.59784 -67.1172,-25.99609 7.9379,-4.33323 15.7138,-9.08601 23.2148,-14.41797 50.3911,-35.81953 83.7917,-92.63822 89.5586,-154.54101 4.2915,-46.06489 -6.4216,-92.06085 -28.2969,-131.74414 -21.8177,-39.57913 -54.1035,-72.05659 -91.6621,-95.41407 -75.0601,-46.67942 -166.5228,-54.79222 -249.4375,-37.40234 -75.4146,15.8169 -146.0763,52.30404 -202.3945,105.10351 -56.331,52.81147 -97.4465,121.19582 -117.2168,195.98438 -18.4428,69.76688 -17.7923,138.83795 -22.9609,202.64064 -7.0372,86.8687 -24.6211,172.4343 -59.7188,249.4453 -23.9736,52.6027 -56.2297,101.032 -97.084,139.4297 -40.7435,38.2936 -90.762,66.6872 -143.748,78.1426 -50.6512,10.9506 -105.1814,6.6061 -154.9121,-10.875 -49.8203,-17.5126 -95.5136,-48.1678 -132.5918,-87.0293 -74.1941,-77.7628 -113.3542,-187.8801 -120.0606,-298.6231 -12.0972,-199.76349 81.5196,-405.12262 240.25,-527.00975 a 35.0035,35.0035 0 0 0 -20.8925,-63.06445 z"
       id="path4145-2-4"
       inkscape:connector-curvature="0" />
  </g>
</svg>
