<?xml version="1.0" encoding="UTF-8" standalone="no"?>
<!-- Created with Inkscape (http://www.inkscape.org/) -->

<svg
   xmlns:dc="http://purl.org/dc/elements/1.1/"
   xmlns:cc="http://creativecommons.org/ns#"
   xmlns:rdf="http://www.w3.org/1999/02/22-rdf-syntax-ns#"
   xmlns:svg="http://www.w3.org/2000/svg"
   xmlns="http://www.w3.org/2000/svg"
   xmlns:sodipodi="http://sodipodi.sourceforge.net/DTD/sodipodi-0.dtd"
   xmlns:inkscape="http://www.inkscape.org/namespaces/inkscape"
   width="2000"
   height="2048"
   id="svg2992"
   version="1.1"
   inkscape:version="0.91 r13725"
   sodipodi:docname="ഗ്മ.svg">
  <defs
     id="defs5498">
    <inkscape:path-effect
       effect="spiro"
       id="path-effect4209"
       is_visible="true" />
    <inkscape:path-effect
       effect="spiro"
       id="path-effect4504-9-4-6-7-6-3"
       is_visible="true" />
    <inkscape:path-effect
       effect="spiro"
       id="path-effect4170"
       is_visible="true" />
    <inkscape:path-effect
       effect="spiro"
       id="path-effect4166"
       is_visible="true" />
    <inkscape:path-effect
       effect="spiro"
       id="path-effect4170-7"
       is_visible="true" />
    <inkscape:path-effect
       effect="spiro"
       id="path-effect4166-8"
       is_visible="true" />
    <inkscape:path-effect
       effect="spiro"
       id="path-effect4504-9-4-6-7-6-3-4"
       is_visible="true" />
    <inkscape:path-effect
       effect="spiro"
       id="path-effect4504-9-4-6-7-6-3-4-5"
       is_visible="true" />
    <inkscape:path-effect
       effect="spiro"
       id="path-effect4166-8-0"
       is_visible="true" />
    <inkscape:path-effect
       effect="spiro"
       id="path-effect4170-7-4"
       is_visible="true" />
    <inkscape:path-effect
       effect="spiro"
       id="path-effect4209-1"
       is_visible="true" />
    <inkscape:path-effect
       effect="spiro"
       id="path-effect4170-7-6"
       is_visible="true" />
    <inkscape:path-effect
       effect="spiro"
       id="path-effect4209-4"
       is_visible="true" />
    <inkscape:path-effect
       effect="spiro"
       id="path-effect4170-7-5"
       is_visible="true" />
  </defs>
  <sodipodi:namedview
     inkscape:window-height="844"
     inkscape:window-width="1600"
     inkscape:pageshadow="2"
     inkscape:pageopacity="0.0"
     borderopacity="1.0"
     bordercolor="#666666"
     pagecolor="#ffffff"
     id="base"
     showgrid="true"
     showguides="true"
     inkscape:guide-bbox="true"
     inkscape:zoom="0.5"
     inkscape:cx="1005.6819"
     inkscape:cy="-391.69748"
     inkscape:window-x="1596"
     inkscape:window-y="0"
     inkscape:current-layer="layer1"
     inkscape:window-maximized="1">
    <sodipodi:guide
       orientation="horizontal"
       position="0,600"
       id="guide5596" />
    <inkscape:grid
       type="xygrid"
       id="grid3769"
       empspacing="3"
       visible="true"
       enabled="true"
       snapvisiblegridlinesonly="true"
       spacingx="4px"
       units="px"
       dotted="true"
       spacingy="4px" />
    <sodipodi:guide
       orientation="0,1"
       position="-1040,1600"
       id="guide2985" />
    <sodipodi:guide
       position="672,1488"
       orientation="0,1"
       id="guide4207" />
  </sodipodi:namedview>
  <metadata
     id="metadata5594">
    <rdf:RDF>
      <cc:Work
         rdf:about="">
        <dc:format>image/svg+xml</dc:format>
        <dc:type
           rdf:resource="http://purl.org/dc/dcmitype/StillImage" />
        <dc:title />
      </cc:Work>
    </rdf:RDF>
  </metadata>
  <g
     inkscape:label="Layer 1"
     inkscape:groupmode="layer"
     id="layer1"
     transform="translate(0,1048)">
    <path
       style="fill:none;fill-rule:evenodd;stroke:#000000;stroke-width:140;stroke-linecap:round;stroke-linejoin:round;stroke-miterlimit:4;stroke-dasharray:none;stroke-opacity:1"
       d="m 1393.8172,-545.20685 c 71.6165,-6.1732 145.4271,21.61658 195.1894,73.48898 51.9232,54.12501 76.1887,130.98664 75.7206,205.98877 -0.4681,75.00213 -23.9122,148.3822 -57.0157,215.685228 -82.7878,168.316692 -228.9763,304.498112 -402.7313,375.163002"
       id="path4168-9"
       inkscape:path-effect="#path-effect4170-7"
       inkscape:original-d="m 1393.8172,-545.20685 c -7.5058,-16.26246 140.5172,-22.42434 195.1894,73.48898 67.6816,118.73619 71.9677,291.4492 18.7049,421.673998 -69.4542,169.811912 -192.8538,269.085602 -402.7313,375.163002"
       inkscape:connector-curvature="0"
       sodipodi:nodetypes="csac" />
    <path
       style="fill:none;fill-rule:evenodd;stroke:#000000;stroke-width:140;stroke-linecap:round;stroke-linejoin:round;stroke-miterlimit:4;stroke-dasharray:none;stroke-opacity:1"
       d="m 1198.4027,331.95773 818,0 0.9013,-409.954863 c 1.7127,-28.053677 0.4313,-56.289187 -3.8152,-84.072437 -16.4557,-107.66287 -78.2917,-206.18055 -163.1017,-274.51322 -84.8099,-68.33267 -191.3014,-107.36049 -299.6314,-118.61595 -60.4326,-6.27893 -122.2218,-4.03983 -180.8264,11.99241 -58.6045,16.03224 -113.563,46.26809 -156.7695,88.98488 -43.2065,42.71678 -73.859,97.35427 -91.1166,155.60975 -17.2576,58.25548 -21.1526,119.50538 -24.024,180.19543 l -2.4656,52.113582 c -2.4178,51.103984 -5.3878,102.502436 -17.3041,152.256473 -11.9164,49.754035 -32.8371,97.672985 -64.0115,138.239225 -31.17437,40.56623 -72.34237,73.40074 -118.8809,94.6523 -46.53852,21.25155 -98.11032,30.96068 -149.2532,29.59362 C 642.78035,345.67706 542.5817,297.17404 471.88563,221.77212 401.18957,146.37019 359.62763,45.56684 350.57096,-57.39607 c -8.81854,-100.25562 12.61637,-202.97581 60.79427,-291.33782 48.1779,-88.36202 122.91135,-162.02207 211.96107,-208.91667"
       id="path4162-4-9"
       inkscape:connector-curvature="0"
       sodipodi:nodetypes="cccaassaac"
       inkscape:path-effect="#path-effect4209"
       inkscape:original-d="m 1198.4027,331.95773 818,0 0.9013,-409.954863 c 0,0 8.5369,-58.885217 -3.8152,-84.072437 -89.117,-181.71892 -260.4395,-399.52518 -462.7331,-393.12917 -209.5906,6.62672 -442.8807,228.46837 -452.7365,436.78247 l -2.4656,52.113582 C 1085.6785,142.41924 926.76339,341.89825 746.1039,348.43893 557.32774,355.27347 376.31015,129.74197 350.57096,-57.39607 324.69183,-245.55158 413.37753,-464.68198 623.3263,-557.65056" />
    <path
       style="color:#000000;font-style:normal;font-variant:normal;font-weight:normal;font-stretch:normal;font-size:medium;line-height:normal;font-family:sans-serif;text-indent:0;text-align:start;text-decoration:none;text-decoration-line:none;text-decoration-style:solid;text-decoration-color:#000000;letter-spacing:normal;word-spacing:normal;text-transform:none;direction:ltr;block-progression:tb;writing-mode:lr-tb;baseline-shift:baseline;text-anchor:start;white-space:normal;clip-rule:nonzero;display:inline;overflow:visible;visibility:visible;opacity:1;isolation:auto;mix-blend-mode:normal;color-interpolation:sRGB;color-interpolation-filters:linearRGB;solid-color:#000000;solid-opacity:1;fill:#000000;fill-opacity:1;fill-rule:evenodd;stroke:none;stroke-width:140;stroke-linecap:round;stroke-linejoin:round;stroke-miterlimit:4;stroke-dasharray:none;stroke-dashoffset:0;stroke-opacity:1;color-rendering:auto;image-rendering:auto;shape-rendering:auto;text-rendering:auto;enable-background:accumulate"
       d="m 1191.459,1545.2754 c -69.4671,19.0039 -134.9465,54.7532 -187.5137,106.7246 -52.65756,52.0607 -88.73579,117.0353 -109.01952,185.5059 -20.23835,68.3173 -23.9206,135.3153 -26.82812,196.7695 l -2.4668,52.1133 c -2.39466,50.6141 -5.47049,97.565 -15.45703,139.2617 -9.96511,41.6071 -27.27415,80.4432 -51.43945,111.8887 -24.15165,31.4277 -56.5099,57.2166 -92.45508,73.6308 -36.09205,16.4812 -77.2683,24.3919 -118.30469,23.2949 -82.64876,-2.2092 -166.65528,-42.3169 -225.02344,-104.5703 -58.76746,-62.6792 -94.8822,-149.1093 -102.65039,-237.4238 -7.58532,-86.2355 11.08293,-175.6902 52.52344,-251.6953 41.4405,-76.0051 106.5225,-140.1516 183.11914,-180.4883 34.76399,-17.7281 48.32204,-60.4577 30.139,-94.9858 -18.18304,-34.5282 -61.08692,-47.5241 -95.37338,-28.8892 -101.50279,53.4525 -185.88743,136.6268 -240.80273,237.3457 -54.91531,100.7189 -79.11817,216.7047 -69.06641,330.9805 10.34515,117.6113 57.35579,232.7876 139.98047,320.9121 83.02396,88.5504 199.41571,145.4491 323.41407,148.7637 61.24936,1.6372 123.2142,-9.8708 180.19921,-35.8926 57.13188,-26.089 107.11142,-65.9691 145.3086,-115.6738 38.1835,-49.6869 62.71448,-106.687 76.58203,-164.5879 13.84618,-57.8115 16.70938,-113.6582 19.15038,-165.252 l 2.4668,-52.1133 c 2.8352,-59.9259 6.9418,-115.4274 21.2188,-163.6211 14.2315,-48.0404 39.4594,-92.342 73.2148,-125.7148 33.5873,-33.2066 77.6068,-57.8001 124.9336,-70.9375 4.1674,0.3453 8.3573,0.3166 12.5195,-0.086 49.6081,-4.2762 104.1942,16.2754 138.6641,52.207 36.5467,38.0965 56.6083,97.4853 56.2363,157.0918 -0.3788,60.7009 -19.8433,124.2603 -49.8301,185.2265 -74.9834,152.4496 -208.9138,277.2135 -366.289,341.2168 -10.1487,3.9823 -19.22701,10.2798 -26.51174,18.3907 -22.45599,19.1313 -30.50928,50.2868 -20.13712,77.9038 10.37215,27.617 36.94376,45.7684 66.44176,45.3872 l 818,0 c 38.5982,-0 69.9111,-31.2476 70,-69.8457 l 0.9024,-409.6328 c 1.6803,-31.7736 0.1888,-63.6687 -4.6192,-95.125 -19.4492,-127.2486 -90.9191,-239.919 -188.3808,-318.4453 -96.9624,-78.1241 -216.1308,-121.2454 -336.3145,-133.7325 -68.1368,-7.4608 -143.5662,-2.7598 -206.5312,14.0977 z m 339.5234,161.5176 c 41.9287,16.9958 81.0814,39.4142 115.4864,67.1347 72.1583,58.1391 124.362,142.503 137.8242,230.5801 3.494,22.8603 4.5498,46.1481 3.1406,69.2305 -0.083,1.3695 -0.1263,2.7412 -0.1289,4.1133 l -0.7481,340.1074 -500.1015,0 c 93.3895,-76.3169 170.5666,-172.3286 224.0703,-281.1074 36.2203,-73.6398 63.6438,-156.8412 64.2012,-246.1446 0.3901,-62.5235 -13.1149,-126.9277 -43.7442,-183.914 z"
       transform="translate(0,-1048)"
       id="path4168-9-1"
       inkscape:connector-curvature="0"
       sodipodi:nodetypes="cssccssssssscscsssssssccssccsssccsccccsscccssccccssc" />
  </g>
</svg>
