<?xml version="1.0" encoding="UTF-8" standalone="no"?>
<!-- Created with Inkscape (http://www.inkscape.org/) -->

<svg
   xmlns:dc="http://purl.org/dc/elements/1.1/"
   xmlns:cc="http://creativecommons.org/ns#"
   xmlns:rdf="http://www.w3.org/1999/02/22-rdf-syntax-ns#"
   xmlns:svg="http://www.w3.org/2000/svg"
   xmlns="http://www.w3.org/2000/svg"
   xmlns:sodipodi="http://sodipodi.sourceforge.net/DTD/sodipodi-0.dtd"
   xmlns:inkscape="http://www.inkscape.org/namespaces/inkscape"
   width="2000"
   height="2048"
   id="svg2992"
   version="1.1"
   inkscape:version="0.91pre3 r13670"
   sodipodi:docname="ഗ്ദ.svg">
  <defs
     id="defs5498">
    <inkscape:path-effect
       effect="spiro"
       id="path-effect4147"
       is_visible="true" />
    <inkscape:path-effect
       effect="spiro"
       id="path-effect4147-4"
       is_visible="true" />
  </defs>
  <sodipodi:namedview
     inkscape:window-height="851"
     inkscape:window-width="1600"
     inkscape:pageshadow="2"
     inkscape:pageopacity="0.0"
     borderopacity="1.0"
     bordercolor="#666666"
     pagecolor="#ffffff"
     id="base"
     showgrid="true"
     showguides="true"
     inkscape:guide-bbox="true"
     inkscape:zoom="0.32102648"
     inkscape:cx="1171.6912"
     inkscape:cy="288.09859"
     inkscape:window-x="1599"
     inkscape:window-y="-1"
     inkscape:current-layer="layer1"
     inkscape:window-maximized="1">
    <sodipodi:guide
       orientation="horizontal"
       position="0,600"
       id="guide5596" />
    <inkscape:grid
       type="xygrid"
       id="grid3769"
       empspacing="3"
       visible="true"
       enabled="true"
       snapvisiblegridlinesonly="true"
       spacingx="4px"
       units="px"
       dotted="true"
       spacingy="4px" />
    <sodipodi:guide
       orientation="0,1"
       position="-1040,1600"
       id="guide2985" />
  </sodipodi:namedview>
  <metadata
     id="metadata5594">
    <rdf:RDF>
      <cc:Work
         rdf:about="">
        <dc:format>image/svg+xml</dc:format>
        <dc:type
           rdf:resource="http://purl.org/dc/dcmitype/StillImage" />
        <dc:title />
      </cc:Work>
    </rdf:RDF>
  </metadata>
  <g
     inkscape:label="Layer 1"
     inkscape:groupmode="layer"
     id="layer1"
     transform="translate(0,1048)">
    <path
       style="fill:none;fill-rule:evenodd;stroke:#000000;stroke-width:140;stroke-linecap:round;stroke-linejoin:round;stroke-miterlimit:4;stroke-dasharray:none;stroke-opacity:1"
       d="m 464.43221,-536.57759 c -80.64223,39.05355 -150.38164,100.33351 -199.48126,175.284 -49.09963,74.9505 -77.42237,163.36226 -81.01384,252.89131 -4.15968,103.6936143 25.71274,209.58076 89.06466,291.77689 63.35191,82.19613 160.84155,138.87614 264.33092,146.59752 47.02864,3.50882 94.98872,-2.97883 138.70248,-20.67378 43.71377,-17.69494 82.81648,-46.69022 112.26566,-83.52431 29.44917,-36.83409 48.92712,-81.09353 59.33424,-127.090226 10.40712,-45.9967 11.81597,-93.4873894 12.65258,-140.639321 l 2.137,-120.443533 c 0.92463,-52.11324 2.68954,-104.71517 15.79519,-155.16204 13.10566,-50.44687 37.59484,-98.23409 73.11614,-136.37701 35.5213,-38.14292 81.43632,-66.14837 131.03162,-82.17801 49.5953,-16.02963 102.4658,-20.39965 154.4917,-17.24546 67.9785,4.12135 136.2754,21.33649 193.4601,58.32256 57.1847,36.98607 102.3335,95.14742 115.2032,162.02368 12.6421,65.6934 -7.6771,136.89333 -53.0868,186.01976 -45.4097,49.126444 -114.7945,74.972884 -181.2777,67.52744 l -27.5016,4.4748 33.11,0.555 c 32.3619,0.542461 64.9168,1.392787 96.6293,7.865913 31.7126,6.473126 62.5005,18.633821 88.704,37.632992 26.2034,18.9991715 47.5659,44.734518 60.8664,74.241898 13.3005,29.507379 18.4987,62.574077 15.2032,94.772347 -4.3522,42.52232 -23.3872,83.02354 -51.4581,115.25882 -28.0709,32.23529 -64.8873,56.35869 -104.7818,71.70519 -77.5212,29.8206 -167.3837,25.84776 -241.9709,-10.69758"
       id="path4145"
       inkscape:path-effect="#path-effect4147"
       inkscape:original-d="m 464.43221,-536.57759 c 0,0 -288.89762,257.75877 -280.4951,428.17531 9.24317,187.466033 165.73317,434.9437 353.39558,438.37441 164.16422,3.00114 320.39201,-227.47689 322.95496,-371.927637 l 2.137,-120.443533 c 2.79773,-157.68312 194.77505,-374.11407 374.43465,-390.96252 125.8622,-11.80333 295.7462,94.59348 308.6633,220.34624 11.76,114.48834 -134.5834,230.05538 -234.3645,253.5472 l -27.5016,4.4748 33.11,0.555 c 65.996,1.106245 250.8516,102.290459 261.4029,214.51315 7.6027,80.86082 -81.9247,154.19937 -156.2399,186.96401 -73.8745,32.57031 -241.9709,-10.69758 -241.9709,-10.69758"
       inkscape:connector-curvature="0"
       sodipodi:nodetypes="caassaascsaac" />
    <path
       style="color:#000000;font-style:normal;font-variant:normal;font-weight:normal;font-stretch:normal;font-size:medium;line-height:normal;font-family:sans-serif;text-indent:0;text-align:start;text-decoration:none;text-decoration-line:none;text-decoration-style:solid;text-decoration-color:#000000;letter-spacing:normal;word-spacing:normal;text-transform:none;direction:ltr;block-progression:tb;writing-mode:lr-tb;baseline-shift:baseline;text-anchor:start;white-space:normal;clip-rule:nonzero;display:inline;overflow:visible;visibility:visible;opacity:1;isolation:auto;mix-blend-mode:normal;color-interpolation:sRGB;color-interpolation-filters:linearRGB;solid-color:#000000;solid-opacity:1;fill:#000000;fill-opacity:1;fill-rule:evenodd;stroke:none;stroke-width:140;stroke-linecap:round;stroke-linejoin:round;stroke-miterlimit:4;stroke-dasharray:none;stroke-dashoffset:0;stroke-opacity:1;color-rendering:auto;image-rendering:auto;shape-rendering:auto;text-rendering:auto;enable-background:accumulate"
       d="m 1254.8984,585.51172 c -44.9231,0.72924 -90.7857,7.00979 -135.7148,21.53125 -60.2679,19.47909 -116.3523,53.42464 -160.73048,101.07812 -44.45813,47.73934 -73.90397,105.90824 -89.64062,166.48243 -15.69876,60.42836 -17.09537,118.66389 -18.0332,171.52148 l -2.13672,120.4434 c -0.82666,46.5917 -2.51892,89.2257 -10.9375,126.4336 -8.3914,37.0877 -23.96301,71.5952 -45.73438,98.8261 -21.76514,27.2232 -51.33866,49.1864 -83.85742,62.3496 -32.72338,13.2462 -70.10548,18.5237 -107.22851,15.7539 -81.39526,-6.0729 -162.44228,-52.5055 -214.09571,-119.5234 -52.10239,-67.6004 -78.10963,-157.8632 -74.56445,-246.2383 3.07465,-76.6456 27.59087,-153.17479 69.625,-217.33982 42.03413,-64.16503 102.39783,-117.20693 171.43555,-150.64063 A 70.007,70.007 0 1 0 492.26562,610.1875 c -92.24674,44.6734 -171.36027,114.18983 -227.52539,199.92578 -56.16513,85.73597 -88.29601,186.03298 -92.40429,288.44532 -4.77419,119.0121 28.96496,240.5226 103.5664,337.3144 75.05039,97.3744 188.98293,164.3021 314.56641,173.6719 56.93422,4.2479 115.47164,-3.4519 170.17578,-25.5957 54.90876,-22.2265 103.54063,-58.2522 140.67383,-104.6972 37.12697,-46.4373 60.51075,-100.4499 72.93359,-155.3555 12.39567,-54.7855 13.52065,-107.1317 14.36719,-154.8438 l 2.13867,-120.4433 c 0.91143,-51.36893 3.04409,-98.33736 13.55669,-138.80276 10.4746,-40.31955 30.0073,-77.72695 56.5917,-106.27344 26.6645,-28.63234 62.4094,-50.69524 101.3321,-63.27539 39.2851,-12.69729 83.4604,-16.72691 128.7285,-13.98242 59.0522,3.58018 115.519,18.66622 159.6797,47.22852 43.1934,27.93672 75.9285,72.03536 84.4805,116.47461 8.2381,42.80883 -6.1609,93.26423 -35.752,125.27738 -29.5909,32.0129 -78.7585,50.3283 -122.082,45.4765 a 70.007,70.007 0 0 0 -19.0332,0.4746 l -27.502,4.4746 a 70.007,70.007 0 0 0 10.0684,139.0821 l 33.1113,0.5547 c 31.9229,0.5351 60.1109,1.625 83.8027,6.4609 23.5789,4.8129 45.0135,13.6828 61.6133,25.7187 16.5207,11.9786 30.1113,28.527 38.1387,46.336 a 70.007,70.007 0 0 0 0,0 c 8.0574,17.8752 11.4249,38.9268 9.3829,58.8789 -2.7057,26.4349 -15.3182,54.2606 -34.6114,76.416 -19.5227,22.419 -46.7037,40.6414 -77.125,52.3438 -58.6583,22.5644 -129.6008,19.4283 -186.039,-8.2247 a 70.007,70.007 0 1 0 -61.5996,125.7188 c 92.7361,45.4378 201.5182,50.2466 297.9023,13.1699 49.3677,-18.9906 95.8204,-49.0148 132.4395,-91.0664 36.8486,-42.3152 62.3059,-95.4919 68.3046,-154.1015 4.5489,-44.4446 -2.4776,-89.5267 -21.0214,-130.6661 -18.5736,-41.2058 -47.7077,-76.1266 -83.5938,-102.1465 -2.5556,-1.8529 -5.1793,-3.5342 -7.7773,-5.2812 2.8421,-2.8235 5.696,-5.6346 8.4277,-8.5898 61.2283,-66.2399 87.4679,-158.18575 70.4219,-246.76372 -17.1875,-89.31325 -74.7498,-161.53685 -145.9258,-207.57226 -70.209,-45.40984 -150.3355,-64.75348 -227.2402,-69.41602 -14.696,-0.89097 -29.5667,-1.26456 -44.5411,-1.02148 z"
       id="path4145-3"
       inkscape:connector-curvature="0" />
  </g>
</svg>
