<?xml version="1.0" encoding="UTF-8" standalone="no"?>
<!-- Created with Inkscape (http://www.inkscape.org/) -->

<svg
   xmlns:dc="http://purl.org/dc/elements/1.1/"
   xmlns:cc="http://creativecommons.org/ns#"
   xmlns:rdf="http://www.w3.org/1999/02/22-rdf-syntax-ns#"
   xmlns:svg="http://www.w3.org/2000/svg"
   xmlns="http://www.w3.org/2000/svg"
   xmlns:sodipodi="http://sodipodi.sourceforge.net/DTD/sodipodi-0.dtd"
   xmlns:inkscape="http://www.inkscape.org/namespaces/inkscape"
   width="2000"
   height="2048"
   id="svg2992"
   version="1.1"
   inkscape:version="0.91 r13725"
   sodipodi:docname="ഗ്ദ.svg">
  <defs
     id="defs5498">
    <inkscape:path-effect
       effect="spiro"
       id="path-effect4147"
       is_visible="true" />
    <inkscape:path-effect
       effect="spiro"
       id="path-effect4147-4"
       is_visible="true" />
    <inkscape:path-effect
       effect="spiro"
       id="path-effect4147-1"
       is_visible="true" />
    <inkscape:path-effect
       effect="spiro"
       id="path-effect4147-1-3"
       is_visible="true" />
  </defs>
  <sodipodi:namedview
     inkscape:window-height="704"
     inkscape:window-width="1366"
     inkscape:pageshadow="2"
     inkscape:pageopacity="0.0"
     borderopacity="1.0"
     bordercolor="#666666"
     pagecolor="#ffffff"
     id="base"
     showgrid="true"
     showguides="true"
     inkscape:guide-bbox="true"
     inkscape:zoom="0.227"
     inkscape:cx="-1107.2902"
     inkscape:cy="108.14204"
     inkscape:window-x="-4"
     inkscape:window-y="0"
     inkscape:current-layer="layer1"
     inkscape:window-maximized="1">
    <sodipodi:guide
       orientation="horizontal"
       position="0,600"
       id="guide5596" />
    <inkscape:grid
       type="xygrid"
       id="grid3769"
       empspacing="3"
       visible="true"
       enabled="true"
       snapvisiblegridlinesonly="true"
       spacingx="4px"
       units="px"
       dotted="true"
       spacingy="4px" />
    <sodipodi:guide
       orientation="0,1"
       position="-1040,1600"
       id="guide2985" />
  </sodipodi:namedview>
  <metadata
     id="metadata5594">
    <rdf:RDF>
      <cc:Work
         rdf:about="">
        <dc:format>image/svg+xml</dc:format>
        <dc:type
           rdf:resource="http://purl.org/dc/dcmitype/StillImage" />
        <dc:title />
      </cc:Work>
    </rdf:RDF>
  </metadata>
  <g
     inkscape:label="Layer 1"
     inkscape:groupmode="layer"
     id="layer1"
     transform="translate(0,1048)">
    <path
       style="fill:none;fill-rule:evenodd;stroke:#000000;stroke-width:140;stroke-linecap:round;stroke-linejoin:round;stroke-miterlimit:4;stroke-dasharray:none;stroke-opacity:1"
       d="m 464.43221,-536.57759 c -80.64223,39.05355 -150.38164,100.33351 -199.48126,175.284 -49.09963,74.9505 -77.42237,163.36226 -81.01384,252.89131 -4.15968,103.6936143 25.71274,209.58076 89.06466,291.77689 63.35191,82.19613 160.84155,138.87614 264.33092,146.59752 47.02864,3.50882 94.98872,-2.97883 138.70248,-20.67378 43.71377,-17.69494 82.81648,-46.69022 112.26566,-83.52431 29.44917,-36.83409 48.92712,-81.09353 59.33424,-127.090226 10.40712,-45.9967 11.81597,-93.4873894 12.65258,-140.639321 l 2.137,-120.443533 c 0.92463,-52.11324 2.68954,-104.71517 15.79519,-155.16204 13.10566,-50.44687 37.59484,-98.23409 73.11614,-136.37701 35.5213,-38.14292 81.43632,-66.14837 131.03162,-82.17801 49.5953,-16.02963 102.4658,-20.39965 154.4917,-17.24546 67.9785,4.12135 136.2754,21.33649 193.4601,58.32256 57.1847,36.98607 102.3335,95.14742 115.2032,162.02368 12.6421,65.6934 -7.6771,136.89333 -53.0868,186.01976 -45.4097,49.126444 -114.7945,74.972884 -181.2777,67.52744 l -27.5016,4.4748 33.11,0.555 c 32.3619,0.542461 64.9168,1.392787 96.6293,7.865913 31.7126,6.473126 62.5005,18.633821 88.704,37.632992 26.2034,18.9991715 47.5659,44.734518 60.8664,74.241898 13.3005,29.507379 18.4987,62.574077 15.2032,94.772347 -4.3522,42.52232 -23.3872,83.02354 -51.4581,115.25882 -28.0709,32.23529 -64.8873,56.35869 -104.7818,71.70519 -77.5212,29.8206 -167.3837,25.84776 -241.9709,-10.69758"
       id="path4145"
       inkscape:path-effect="#path-effect4147"
       inkscape:original-d="m 464.43221,-536.57759 c 0,0 -288.89762,257.75877 -280.4951,428.17531 9.24317,187.466033 165.73317,434.9437 353.39558,438.37441 164.16422,3.00114 320.39201,-227.47689 322.95496,-371.927637 l 2.137,-120.443533 c 2.79773,-157.68312 194.77505,-374.11407 374.43465,-390.96252 125.8622,-11.80333 295.7462,94.59348 308.6633,220.34624 11.76,114.48834 -134.5834,230.05538 -234.3645,253.5472 l -27.5016,4.4748 33.11,0.555 c 65.996,1.106245 250.8516,102.290459 261.4029,214.51315 7.6027,80.86082 -81.9247,154.19937 -156.2399,186.96401 -73.8745,32.57031 -241.9709,-10.69758 -241.9709,-10.69758"
       inkscape:connector-curvature="0"
       sodipodi:nodetypes="caassaascsaac" />
    <path
       style="color:#000000;font-style:normal;font-variant:normal;font-weight:normal;font-stretch:normal;font-size:medium;line-height:normal;font-family:sans-serif;text-indent:0;text-align:start;text-decoration:none;text-decoration-line:none;text-decoration-style:solid;text-decoration-color:#000000;letter-spacing:normal;word-spacing:normal;text-transform:none;direction:ltr;block-progression:tb;writing-mode:lr-tb;baseline-shift:baseline;text-anchor:start;white-space:normal;clip-rule:nonzero;display:inline;overflow:visible;visibility:visible;opacity:1;isolation:auto;mix-blend-mode:normal;color-interpolation:sRGB;color-interpolation-filters:linearRGB;solid-color:#000000;solid-opacity:1;fill:#000000;fill-opacity:1;fill-rule:evenodd;stroke:none;stroke-width:140;stroke-linecap:round;stroke-linejoin:round;stroke-miterlimit:4;stroke-dasharray:none;stroke-dashoffset:0;stroke-opacity:1;color-rendering:auto;image-rendering:auto;shape-rendering:auto;text-rendering:auto;enable-background:accumulate"
       d="m 1254.8984,585.51172 c -44.9231,0.72924 -90.7857,7.00979 -135.7148,21.53125 -60.2679,19.47909 -116.3523,53.42464 -160.73048,101.07812 -44.45813,47.73934 -73.90397,105.90824 -89.64062,166.48243 -15.69876,60.42836 -17.09537,118.66389 -18.0332,171.52148 l -2.13672,120.4434 c -0.82666,46.5917 -2.51892,89.2257 -10.9375,126.4336 -8.3914,37.0877 -23.96301,71.5952 -45.73438,98.8261 -21.76514,27.2232 -51.33866,49.1864 -83.85742,62.3496 -32.72338,13.2462 -70.10548,18.5237 -107.22851,15.7539 -81.39526,-6.0729 -162.44228,-52.5055 -214.09571,-119.5234 -52.10239,-67.6004 -78.10963,-157.8632 -74.56445,-246.2383 3.07465,-76.6456 27.59087,-153.17479 69.625,-217.33982 42.03413,-64.16503 102.39783,-117.20693 171.43555,-150.64063 A 70.007,70.007 0 1 0 492.26562,610.1875 c -92.24674,44.6734 -171.36027,114.18983 -227.52539,199.92578 -56.16513,85.73597 -88.29601,186.03298 -92.40429,288.44532 -4.77419,119.0121 28.96496,240.5226 103.5664,337.3144 75.05039,97.3744 188.98293,164.3021 314.56641,173.6719 56.93422,4.2479 115.47164,-3.4519 170.17578,-25.5957 54.90876,-22.2265 103.54063,-58.2522 140.67383,-104.6972 37.12697,-46.4373 60.51075,-100.4499 72.93359,-155.3555 12.39567,-54.7855 13.52065,-107.1317 14.36719,-154.8438 l 2.13867,-120.4433 c 0.91143,-51.36893 3.04409,-98.33736 13.55669,-138.80276 10.4746,-40.31955 30.0073,-77.72695 56.5917,-106.27344 26.6645,-28.63234 62.4094,-50.69524 101.3321,-63.27539 39.2851,-12.69729 83.4604,-16.72691 128.7285,-13.98242 59.0522,3.58018 115.519,18.66622 159.6797,47.22852 43.1934,27.93672 75.9285,72.03536 84.4805,116.47461 8.2381,42.80883 -6.1609,93.26423 -35.752,125.27738 -29.5909,32.0129 -78.7585,50.3283 -122.082,45.4765 a 70.007,70.007 0 0 0 -19.0332,0.4746 l -27.502,4.4746 a 70.007,70.007 0 0 0 10.0684,139.0821 l 33.1113,0.5547 c 31.9229,0.5351 60.1109,1.625 83.8027,6.4609 23.5789,4.8129 45.0135,13.6828 61.6133,25.7187 16.5207,11.9786 30.1113,28.527 38.1387,46.336 a 70.007,70.007 0 0 0 0,0 c 8.0574,17.8752 11.4249,38.9268 9.3829,58.8789 -2.7057,26.4349 -15.3182,54.2606 -34.6114,76.416 -19.5227,22.419 -46.7037,40.6414 -77.125,52.3438 -58.6583,22.5644 -129.6008,19.4283 -186.039,-8.2247 a 70.007,70.007 0 1 0 -61.5996,125.7188 c 92.7361,45.4378 201.5182,50.2466 297.9023,13.1699 49.3677,-18.9906 95.8204,-49.0148 132.4395,-91.0664 36.8486,-42.3152 62.3059,-95.4919 68.3046,-154.1015 4.5489,-44.4446 -2.4776,-89.5267 -21.0214,-130.6661 -18.5736,-41.2058 -47.7077,-76.1266 -83.5938,-102.1465 -2.5556,-1.8529 -5.1793,-3.5342 -7.7773,-5.2812 2.8421,-2.8235 5.696,-5.6346 8.4277,-8.5898 61.2283,-66.2399 87.4679,-158.18575 70.4219,-246.76372 -17.1875,-89.31325 -74.7498,-161.53685 -145.9258,-207.57226 -70.209,-45.40984 -150.3355,-64.75348 -227.2402,-69.41602 -14.696,-0.89097 -29.5667,-1.26456 -44.5411,-1.02148 z"
       id="path4145-3"
       inkscape:connector-curvature="0" />
    <path
       style="fill:none;fill-rule:evenodd;stroke:#000000;stroke-width:70;stroke-linecap:round;stroke-linejoin:round;stroke-miterlimit:4;stroke-dasharray:none;stroke-opacity:1"
       d="m -2112.5125,-553.22399 c -84.9519,41.32938 -158.3935,106.01931 -210.1139,185.07585 -51.7205,79.05655 -81.5768,172.26089 -85.4179,266.6547 -4.4499,109.3545457 26.923,221.05624 93.6555,307.80299 66.7324,86.74675 169.539,146.59979 278.6848,154.68776 49.5821,3.67415 100.1405,-3.21388 146.207,-21.91587 46.0664,-18.70198 87.2571,-49.31404 118.2706,-88.1733 31.0136,-38.85926 51.5175,-85.53059 62.4723,-134.02671 10.9548,-48.49612 12.4371,-98.562424 13.3179,-148.272644 l 2.2515,-127.069516 c 0.9734,-54.93867 2.8302,-110.39102 16.6254,-163.57841 13.7952,-53.18738 39.5743,-103.58087 76.9837,-143.8269 37.4094,-40.24603 85.7796,-69.82495 138.0469,-86.77584 52.2673,-16.95089 108.0041,-21.60474 162.8513,-18.28942 71.6608,4.33164 143.6522,22.52939 203.9008,61.56951 60.2486,39.04011 107.77872,100.39369 121.30932,170.89865 13.28874,69.24467 -8.11603,144.27008 -55.94132,196.0789 -47.8254,51.808819 -120.9024,79.134904 -190.987,71.41672 l -28.9759,4.720974 34.885,0.585531 c 34.1185,0.572666 68.4411,1.47137 101.8724,8.308874 33.4312,6.837504 65.8829,19.681997 93.4901,39.73803 27.60715,20.0560328 50.09858,47.213838 64.09043,78.33664 13.99184,31.122801 19.44333,65.985261 15.96317,99.930641 -4.59637,44.83292 -24.63524,87.54217 -54.20263,121.5552 -29.56737,34.01303 -68.35937,59.48885 -110.41297,75.69428 -81.666,31.47017 -176.3767,27.27741 -254.9423,-11.28608"
       id="path4145-7"
       inkscape:path-effect="#path-effect4147-1"
       inkscape:original-d="m -2112.5125,-553.22399 c 0,0 -304.3848,271.93888 -295.5318,451.73055 9.7387,197.779132 174.6177,458.87131 372.3403,462.49075 172.9648,3.16624 337.5675,-239.9911 340.2678,-392.388524 l 2.2515,-127.069516 c 2.9478,-166.35775 205.2167,-394.69523 394.5073,-412.47057 132.6094,-12.45266 311.60056,99.79736 325.21012,232.46816 12.39036,120.78671 -141.79822,242.711443 -246.92832,267.49562 l -28.9759,4.720974 34.885,0.585531 c 69.5339,1.167108 264.29918,107.917776 275.4161,226.314185 8.01027,85.30923 -86.3165,162.68236 -164.6156,197.24948 -77.8347,34.36211 -254.9423,-11.28608 -254.9423,-11.28608"
       inkscape:connector-curvature="0"
       sodipodi:nodetypes="caassaascsaac" />
    <path
       style="color:#000000;font-style:normal;font-variant:normal;font-weight:normal;font-stretch:normal;font-size:medium;line-height:normal;font-family:sans-serif;text-indent:0;text-align:start;text-decoration:none;text-decoration-line:none;text-decoration-style:solid;text-decoration-color:#000000;letter-spacing:normal;word-spacing:normal;text-transform:none;direction:ltr;block-progression:tb;writing-mode:lr-tb;baseline-shift:baseline;text-anchor:start;white-space:normal;clip-rule:nonzero;display:inline;overflow:visible;visibility:visible;opacity:1;isolation:auto;mix-blend-mode:normal;color-interpolation:sRGB;color-interpolation-filters:linearRGB;solid-color:#000000;solid-opacity:1;fill:#000000;fill-opacity:1;fill-rule:evenodd;stroke:none;stroke-width:70;stroke-linecap:round;stroke-linejoin:round;stroke-miterlimit:4;stroke-dasharray:none;stroke-dashoffset:0;stroke-opacity:1;color-rendering:auto;image-rendering:auto;shape-rendering:auto;text-rendering:auto;enable-background:accumulate"
       d="m -926.14453,671.69727 c -44.16395,0.74613 -88.73427,6.95623 -131.80277,20.92382 -57.605,18.68201 -111.0547,51.23638 -152.8847,96.23829 -41.8696,45.0444 -70.1199,100.62524 -85.2266,158.86914 -15.0878,58.17118 -16.7622,116.43628 -17.7422,171.74608 l -2.2519,127.0684 c -0.8759,49.4309 -2.4994,97.0736 -12.4629,141.1816 -9.9501,44.0482 -28.5053,85.8477 -55.6875,119.9063 -27.1788,34.0544 -63.6099,61.1462 -104.0801,77.5761 -40.5719,16.4713 -85.8367,22.7478 -130.4551,19.4414 -98.0703,-7.2672 -192.6472,-61.9808 -253.5312,-141.125 -61.1113,-79.4397 -90.5646,-183.3296 -86.4258,-285.039 3.5796,-87.9671 31.5372,-175.242 79.7363,-248.91604 48.1992,-73.67405 116.9687,-134.24817 196.1367,-172.76367 a 35.0035,35.0035 0 1 0 -30.623,-62.94727 c -90.7358,44.14326 -168.85,112.94962 -224.0918,197.38867 -55.2417,84.43905 -86.997,183.57201 -91.0996,284.39261 -4.761,116.9995 28.5312,236.5125 100.8847,330.5664 72.581,94.3492 183.6186,159.3432 303.8399,168.2519 54.5458,4.0421 110.3978,-3.4579 161.959,-24.3906 51.6626,-20.9738 97.6127,-55.1073 132.4609,-98.7715 34.845,-43.6598 57.2963,-95.2023 69.2559,-148.1465 11.946,-52.8842 13.2881,-105.3758 14.1738,-155.3652 l 2.252,-127.0684 c 0.9668,-54.5675 3.0072,-107.2085 15.5097,-155.41207 12.4837,-48.13086 35.791,-93.3375 68.7403,-128.78515 32.9887,-35.49016 76.2775,-62.09075 123.207,-77.31055 47.11002,-15.27832 98.4907,-19.75661 149.94334,-16.64648 67.17693,4.0606 133.24252,21.18582 186.97852,56.00586 53.25452,34.50805 94.59109,88.8245 105.9707,148.12109 11.09572,57.8172 -7.35434,122.4832 -47.28711,165.7422 -39.93274,43.2588 -102.91895,66.8116 -161.4375,60.3672 a 35.0035,35.0035 0 0 0 -9.45898,0.2461 l -28.97656,4.7207 a 35.0035,35.0035 0 0 0 5.04101,69.539 l 34.88477,0.586 c 33.89794,0.5689 66.03351,1.5877 95.44726,7.6035 29.35714,6.0042 57.12738,17.1988 79.93164,33.7656 22.76523,16.5385 41.37783,39.0971 52.74024,64.3711 11.37788,25.3085 15.92042,54.1719 13.0664,82.0098 -3.77379,36.8093 -20.61199,73.1883 -45.79882,102.1621 -25.30022,29.1042 -59.27612,51.6214 -96.58399,65.998 -72.22041,27.8304 -157.45687,24.0564 -226.93554,-10.0468 a 35.0035,35.0035 0 1 0 -30.84376,62.8378 c 87.65257,43.0238 191.83772,47.6375 282.94922,12.5274 46.79924,-18.0342 90.40763,-46.4689 124.24219,-85.3906 33.94794,-39.0522 57.18649,-88.0928 62.60547,-140.9493 4.10633,-40.0528 -2.25165,-80.9144 -18.85742,-117.8515 -16.62125,-36.9716 -42.99228,-68.7271 -75.44141,-92.3008 -17.46656,-12.6891 -36.32846,-22.6706 -55.85742,-30.4512 18.51608,-11.831 35.64654,-25.936 50.71875,-42.2636 55.71787,-60.3589 80.07944,-145.742 64.59766,-226.41411 -15.68161,-81.7133 -69.4077,-150.10361 -136.65039,-193.67578 -66.76125,-43.26018 -144.6777,-62.53015 -220.82227,-67.13281 -14.56043,-0.88012 -29.23571,-1.23895 -43.95703,-0.99023 z"
       id="path4145-7-2"
       inkscape:connector-curvature="0" />
  </g>
</svg>
