<?xml version="1.0" encoding="UTF-8" standalone="no"?>
<!-- Created with Inkscape (http://www.inkscape.org/) -->

<svg
   xmlns:dc="http://purl.org/dc/elements/1.1/"
   xmlns:cc="http://creativecommons.org/ns#"
   xmlns:rdf="http://www.w3.org/1999/02/22-rdf-syntax-ns#"
   xmlns:svg="http://www.w3.org/2000/svg"
   xmlns="http://www.w3.org/2000/svg"
   xmlns:sodipodi="http://sodipodi.sourceforge.net/DTD/sodipodi-0.dtd"
   xmlns:inkscape="http://www.inkscape.org/namespaces/inkscape"
   width="2000"
   height="2048"
   id="svg2992"
   version="1.1"
   inkscape:version="0.91 r13725"
   sodipodi:docname="ഗൂ.svg">
  <defs
     id="defs5498">
    <inkscape:path-effect
       effect="spiro"
       id="path-effect4504-9-4-6-7-6-3"
       is_visible="true" />
    <inkscape:path-effect
       effect="spiro"
       id="path-effect4504-9-4-6-7-6-3-2"
       is_visible="true" />
    <inkscape:path-effect
       effect="spiro"
       id="path-effect4504-9-4-6-7-6-3-5"
       is_visible="true" />
    <inkscape:path-effect
       effect="spiro"
       id="path-effect4504-9-4-6-7-6-3-8"
       is_visible="true" />
    <inkscape:path-effect
       effect="spiro"
       id="path-effect4504-9-4-6-7-6-3-7"
       is_visible="true" />
    <inkscape:path-effect
       effect="spiro"
       id="path-effect4504-9-4-6-7-6-3-4"
       is_visible="true" />
    <inkscape:path-effect
       effect="spiro"
       id="path-effect4504-9-4-6-7-6-3-45"
       is_visible="true" />
    <inkscape:path-effect
       effect="spiro"
       id="path-effect4504-9-4-6-7-6-3-45-5"
       is_visible="true" />
    <inkscape:path-effect
       effect="spiro"
       id="path-effect4504-9-4-6-7-6-3-9"
       is_visible="true" />
    <inkscape:path-effect
       effect="spiro"
       id="path-effect4504-9-4-6-7-6-3-9-0"
       is_visible="true" />
    <inkscape:path-effect
       effect="spiro"
       id="path-effect4504-9-4-6-7-6-3-45-1"
       is_visible="true" />
    <inkscape:path-effect
       effect="spiro"
       id="path-effect4504-9-4-6-7-6-3-45-1-2"
       is_visible="true" />
  </defs>
  <sodipodi:namedview
     inkscape:window-height="704"
     inkscape:window-width="1366"
     inkscape:pageshadow="2"
     inkscape:pageopacity="0.0"
     borderopacity="1.0"
     bordercolor="#666666"
     pagecolor="#ffffff"
     id="base"
     showgrid="true"
     showguides="true"
     inkscape:guide-bbox="true"
     inkscape:zoom="0.1135"
     inkscape:cx="372.08524"
     inkscape:cy="-452.13416"
     inkscape:window-x="-4"
     inkscape:window-y="0"
     inkscape:current-layer="layer1-5"
     inkscape:window-maximized="1">
    <sodipodi:guide
       orientation="horizontal"
       position="0,600"
       id="guide5596" />
    <inkscape:grid
       type="xygrid"
       id="grid3769"
       empspacing="3"
       visible="true"
       enabled="true"
       snapvisiblegridlinesonly="true"
       spacingx="4px"
       units="px"
       dotted="true"
       spacingy="4px" />
    <sodipodi:guide
       orientation="0,1"
       position="-1040,1600"
       id="guide2985" />
  </sodipodi:namedview>
  <metadata
     id="metadata5594">
    <rdf:RDF>
      <cc:Work
         rdf:about="">
        <dc:format>image/svg+xml</dc:format>
        <dc:type
           rdf:resource="http://purl.org/dc/dcmitype/StillImage" />
        <dc:title />
      </cc:Work>
    </rdf:RDF>
  </metadata>
  <g
     inkscape:label="Layer 1"
     inkscape:groupmode="layer"
     id="layer1"
     transform="translate(0,1048)">
    <g
       id="layer1-5"
       inkscape:label="Layer 1"
       transform="translate(11.368149,11.200962)">
      <path
         style="fill:none;fill-rule:evenodd;stroke:#000000;stroke-width:140;stroke-linecap:round;stroke-linejoin:round;stroke-miterlimit:4;stroke-dasharray:none;stroke-opacity:1"
         d="m 528.69102,-565.6416 c -87.57115,36.4506 -164.00949,99.17189 -216.85635,177.94094 -52.84685,78.76904 -81.89864,173.2824 -82.42021,268.13534 -0.59785,108.724779 37.05238,218.04728 108.04849,300.39403 70.99611,82.34675 175.41709,136.14615 284.00567,141.61919 49.31456,2.48554 99.35983,-4.86372 144.99717,-23.71409 45.63735,-18.85038 86.47528,-49.33114 117.09922,-88.06456 30.62394,-38.73341 50.66133,-85.27127 60.94236,-133.566241 10.28103,-48.294967 10.88051,-98.056159 10.85255,-147.433306 l -0.052,-91.842503 c -0.0281,-49.63219 0.56531,-99.63689 10.72163,-148.21882 10.15631,-48.58193 29.93961,-95.45815 60.22905,-134.77614 30.2894,-39.318 70.7226,-70.6462 116.1193,-90.70846 45.3967,-20.06225 95.3798,-28.9813 145.008,-28.35438 69.9685,0.88387 140.2412,20.96536 197.5962,61.04997 57.355,40.08462 101.0279,100.64189 116.6098,168.85903 16.4421,71.98343 0.4332,150.742 -42.8066,210.59413 -43.2398,59.852139 -112.9829,99.790792 -186.4875,106.792772 76.2919,-6.861285 155.0706,23.9114418 206.5119,80.668123 51.4412,56.756685 74.3441,138.172335 60.038,213.424305 -9.4836,49.88487 -34.4698,96.38377 -69.1514,133.47319 -34.6816,37.08942 -78.8185,64.88615 -126.4792,82.40456 -68.2547,25.08801 -142.2245,29.63887 -214.9395,30.42973 -72.7151,0.79086 -145.4335,-1.02635 -218.1529,-1.05421 l -503.85148,-0.193 c -59.74529,-0.0229 -121.43966,1.46531 -175.80223,26.24859 -27.18129,12.39164 -52.02901,30.39015 -70.77988,53.64483 -18.75087,23.25467 -31.21251,51.82754 -33.81299,81.58678 -2.71663,31.08851 5.43986,62.80174 21.58203,89.50953 16.14217,26.70779 40.02829,48.38489 67.2937,63.56622 27.26542,15.18133 57.76773,23.96439 88.6581,28.39843 30.89037,4.43404 62.21529,4.59061 93.42227,4.60812 l 1147.00908,0.6434"
         id="path4502-2-1-0-2-6-8"
         inkscape:path-effect="#path-effect4504-9-4-6-7-6-3"
         inkscape:original-d="M 528.69102,-565.6416 C 323.38107,-474.7272 217.36969,-298.21607 229.41446,-119.56532 242.66249,76.932505 424.5356,324.51906 621.46862,322.4479 793.29823,320.64075 955.45302,94.130399 955.35992,-70.330297 l -0.052,-91.842503 c -0.072,-126.6471 159.59878,-380.49539 332.07798,-402.0578 128.7767,-16.09896 293.9482,101.7207 314.206,229.909 20.3728,128.91632 -229.2941,317.386902 -229.2941,317.386902 0,0 266.5449,161.788398 266.5499,294.092428 0,97.11078 -108.2358,173.53806 -195.6306,215.87775 -130.219,63.08648 -303.0463,29.42533 -433.0924,29.37552 l -503.85148,-0.193 c -40.08762,-0.0154 -276.12112,53.70839 -280.3951,161.4802 -4.34175,109.48068 115.8506,185.9953 270.9561,186.0823 l 1147.00908,0.6434"
         inkscape:connector-curvature="0"
         sodipodi:nodetypes="caassaacaassasc" />
      <path
         style="color:#000000;font-style:normal;font-variant:normal;font-weight:normal;font-stretch:normal;font-size:medium;line-height:normal;font-family:sans-serif;text-indent:0;text-align:start;text-decoration:none;text-decoration-line:none;text-decoration-style:solid;text-decoration-color:#000000;letter-spacing:normal;word-spacing:normal;text-transform:none;direction:ltr;block-progression:tb;writing-mode:lr-tb;baseline-shift:baseline;text-anchor:start;white-space:normal;clip-rule:nonzero;display:inline;overflow:visible;visibility:visible;opacity:1;isolation:auto;mix-blend-mode:normal;color-interpolation:sRGB;color-interpolation-filters:linearRGB;solid-color:#000000;solid-opacity:1;fill:#000000;fill-opacity:1;fill-rule:evenodd;stroke:none;stroke-width:140;stroke-linecap:round;stroke-linejoin:round;stroke-miterlimit:4;stroke-dasharray:none;stroke-dashoffset:0;stroke-opacity:1;color-rendering:auto;image-rendering:auto;shape-rendering:auto;text-rendering:auto;enable-background:accumulate"
         d="m -1485.9766,-617.83984 a 70.007,70.007 0 0 0 -25.1054,5.71093 c -100.5304,41.84475 -187.4185,113.14071 -248.086,203.56641 -60.6673,90.4257 -93.6902,197.86021 -94.289,306.75 -0.6882,125.142288 42.0201,250.20364 125.0312,346.48633 83.3155,96.63575 204.1298,159.3019 333.4981,165.82226 58.6206,2.95457 118.8512,-5.63483 175.2441,-28.92773 56.6277,-23.38994 106.9665,-60.87941 145.2871,-109.34766 38.3289,-48.47872 62.2653,-104.952 74.49611,-162.40625 12.20462,-57.330619 12.41505,-112.0764656 12.38672,-162.046872 l -0.0508,-91.843748 c -0.0276,-49.04705 0.94109,-94.15518 9.24023,-133.85352 8.27606,-39.58793 24.29715,-76.6979 47.16406,-106.38086 22.88052,-29.70064 54.15175,-54.01905 88.96094,-69.40234 35.03687,-15.48392 75.17828,-22.90022 115.82813,-22.38672 57.16994,0.72219 114.03358,17.43795 158.38086,48.43164 43.89753,30.67938 77.20527,77.76753 88.46679,127.07031 11.77737,51.56115 -0.33237,111.14402 -31.30468,154.01563 -30.97231,42.87161 -83.73399,73.084141 -136.38477,78.099608 a 70.007,70.007 0 0 0 12.9082,139.404297 c 53.41299,-4.803692 112.36026,18.2209 148.375,57.957035 36.01475,39.73614 53.15265,100.65686 43.13672,153.34179 -6.76099,35.56356 -25.30926,70.71474 -51.51172,98.73633 -26.36262,28.19288 -61.20972,50.43952 -99.5,64.51367 -55.45626,20.38377 -121.23959,25.37006 -191.55078,26.13477 -71.04156,0.77266 -143.49757,-1.02834 -217.36523,-1.05664 l -503.8516,-0.19336 c -60.9262,-0.0234 -133.2784,-0.0819 -204.8672,32.55469 -35.809,16.32494 -69.5943,40.36172 -96.2343,73.40039 -26.8252,33.26824 -45.1042,74.22353 -49.0547,119.43164 -4.1337,47.30586 7.977,93.04266 31.4082,131.81054 23.2814,38.51983 56.3203,68.01173 93.1484,88.51758 36.6264,20.39343 75.4215,31.16887 112.7657,36.5293 37.2491,5.34678 71.9132,5.30073 103.3281,5.31836 l 1147.00974,0.64258 a 70.007,70.007 0 1 0 0.0781,-140 L -1516,817.91797 c -30.9991,-0.0174 -58.984,-0.37714 -83.5156,-3.89844 -24.4365,-3.50765 -46.6462,-10.29834 -64.5508,-20.26758 -17.7027,-9.8568 -32.4345,-23.71948 -41.4375,-38.61523 -8.853,-14.6477 -13.0553,-32.33587 -11.7559,-47.20703 1.2505,-14.31037 7.8937,-30.50109 18.5703,-43.74219 10.8618,-13.4707 26.7707,-25.43229 45.3243,-33.89062 37.1362,-16.93002 88.1738,-19.96386 146.7382,-19.94141 l 503.8516,0.19336 c 71.57109,0.0274 144.55282,1.85789 218.94142,1.04883 75.11896,-0.817 157.27504,-4.93041 238.32812,-34.72266 57.03116,-20.96264 110.4584,-54.31092 153.45898,-100.29688 43.16075,-46.15722 74.58479,-104.00282 86.79102,-168.20898 18.59637,-97.819 -10.07361,-199.73059 -76.94141,-273.507812 -17.55114,-19.364698 -37.3324,-36.2272987 -58.69335,-50.513672 15.9848,-14.756977 30.63898,-31.081023 43.54492,-48.945312 55.50726,-76.832674 75.41355,-174.768114 54.30664,-267.173824 -19.9022,-87.1315 -73.93949,-161.1586 -144.75196,-210.64844 -70.36272,-49.17553 -154.04349,-72.62242 -236.81054,-73.66797 -58.60661,-0.74034 -118.43097,9.68166 -174.1875,34.32227 -55.98423,24.74121 -105.57894,63.08028 -143.27734,112.01562 -37.712,48.95303 -61.2584,105.59595 -73.2949,163.17188 -12.0134,57.46498 -12.2315,112.36546 -12.2032,162.58203 l 0.053,91.841793 c 0.028,48.7838865 -0.9628,93.561001 -9.3203,132.820313 -8.3312,39.135694 -24.4678,75.738464 -47.3868,104.726564 -22.9272,28.99859 -54.2652,52.46849 -88.9121,66.7793 -34.8819,14.40785 -74.7414,20.51844 -114.75,18.50195 -87.8089,-4.42572 -175.835,-49.35825 -234.5117,-117.41602 -58.9811,-68.410847 -91.574,-161.9934735 -91.0664,-254.30078 0.4444,-80.81609 25.5245,-162.4091 70.5508,-229.52148 45.0263,-67.11237 111.0151,-121.25802 185.627,-152.31446 a 70.007,70.007 0 0 0 -28.6954,-134.96093 z"
         id="path4502-2-1-0-2-6-8-4"
         inkscape:connector-curvature="0" />
      <path
         style="fill:none;fill-rule:evenodd;stroke:#000000;stroke-width:119;stroke-linecap:round;stroke-linejoin:round;stroke-miterlimit:4;stroke-dasharray:none;stroke-opacity:1"
         d="m 2575.5643,441.19519 c -61.2696,25.50294 -114.75,69.38625 -151.7246,124.49742 -36.9745,55.11117 -57.3008,121.23791 -57.6658,187.60225 -0.4184,76.06993 25.9237,152.55811 75.5965,210.17252 49.6728,57.61442 122.7316,95.25542 198.7063,99.08442 34.5031,1.7389 69.5175,-3.4032 101.4478,-16.592 31.9303,-13.1889 60.5027,-34.515 81.9288,-61.61495 21.4262,-27.1 35.4455,-59.66037 42.6387,-93.45011 7.1933,-33.78974 7.613,-68.60535 7.5936,-103.15227 l -0.036,-64.25811 c -0.019,-34.72537 0.3959,-69.71136 7.502,-103.70189 7.106,-33.99053 20.9475,-66.78764 42.1396,-94.29666 21.1921,-27.50902 49.4813,-49.428 81.2432,-63.46476 31.762,-14.03676 66.7328,-20.27716 101.4554,-19.83864 48.9539,0.61826 98.1206,14.66837 138.2493,42.71382 40.1288,28.04545 70.6847,70.41474 81.5866,118.14327 11.5038,50.3636 0.303,105.46743 -29.95,147.34329 -30.2529,41.87586 -79.049,69.81917 -130.4769,74.7182 53.378,-4.80061 108.4961,16.72966 144.4873,56.43978 35.9912,39.71012 52.0153,96.67306 42.0059,149.32353 -6.6353,34.9022 -24.117,67.4354 -48.3822,93.3852 -24.2652,25.9498 -55.1458,45.3979 -88.4919,57.6548 -47.7547,17.553 -99.5081,20.737 -150.3836,21.2904 -50.8755,0.5533 -101.7534,-0.7181 -152.6319,-0.7376 L 2559.88,1202.322 c -41.8011,-0.016 -84.9659,1.0252 -123.001,18.365 -19.0176,8.6698 -36.4024,21.2626 -49.5216,37.5329 -13.1191,16.2702 -21.838,36.2614 -23.6574,57.0826 -1.9007,21.7512 3.806,43.9396 15.1,62.6258 11.2939,18.6863 28.006,33.8528 47.0824,44.4745 19.0764,10.6217 40.4175,16.7668 62.0301,19.8691 21.6126,3.1023 43.5293,3.2119 65.3634,3.2241 l 802.5113,0.4502"
         id="path4502-2-1-0-2-6-8-8"
         inkscape:path-effect="#path-effect4504-9-4-6-7-6-3-45"
         inkscape:original-d="m 2575.5643,441.19519 c -143.6462,63.60876 -217.8177,187.10573 -209.3904,312.09967 9.269,137.48081 136.5175,310.70604 274.3028,309.25694 120.2215,-1.2644 233.674,-159.74353 233.6089,-274.80933 l -0.036,-64.25811 c -0.05,-88.60934 111.6641,-266.2157 232.3402,-281.30195 90.0993,-11.26376 205.6624,71.16944 219.8359,160.85709 14.254,90.197 -160.4269,222.06149 -160.4269,222.06149 0,0 186.4897,113.19612 186.4932,205.76331 0,67.944 -75.7278,121.4168 -136.8741,151.04 -91.1084,44.1388 -212.028,20.5876 -303.0155,20.5528 L 2559.88,1202.322 c -28.0475,-0.011 -193.1897,37.5774 -196.18,112.9805 -3.0377,76.5988 81.0555,130.1327 189.5759,130.1935 l 802.5113,0.4502"
         inkscape:connector-curvature="0"
         sodipodi:nodetypes="caassaacaassasc" />
      <path
         style="color:#000000;font-style:normal;font-variant:normal;font-weight:normal;font-stretch:normal;font-size:medium;line-height:normal;font-family:sans-serif;text-indent:0;text-align:start;text-decoration:none;text-decoration-line:none;text-decoration-style:solid;text-decoration-color:#000000;letter-spacing:normal;word-spacing:normal;text-transform:none;direction:ltr;block-progression:tb;writing-mode:lr-tb;baseline-shift:baseline;text-anchor:start;white-space:normal;clip-rule:nonzero;display:inline;overflow:visible;visibility:visible;opacity:1;isolation:auto;mix-blend-mode:normal;color-interpolation:sRGB;color-interpolation-filters:linearRGB;solid-color:#000000;solid-opacity:1;fill:#000000;fill-opacity:1;fill-rule:evenodd;stroke:none;stroke-width:119;stroke-linecap:round;stroke-linejoin:round;stroke-miterlimit:4;stroke-dasharray:none;stroke-dashoffset:0;stroke-opacity:1;color-rendering:auto;image-rendering:auto;shape-rendering:auto;text-rendering:auto;enable-background:accumulate"
         d="m 594.15625,1177.7344 a 59.50595,59.50595 0 0 0 -21.33984,4.8535 c -72.28498,30.088 -134.64752,81.2601 -178.26953,146.2793 -43.62203,65.0193 -67.32329,142.1282 -67.75391,220.4238 -0.49512,90.0247 30.14564,179.8916 90.03125,249.3516 60.14434,69.7601 147.13798,114.939 240.77539,119.6582 42.41336,2.1375 86.08578,-4.0585 127.1582,-21.0235 41.27202,-17.0475 77.91847,-44.3325 105.88672,-79.707 27.97535,-35.3835 45.30951,-76.3879 54.16016,-117.9629 8.82827,-41.4699 8.91807,-80.5231 8.89843,-115.5742 l -0.0352,-64.2578 c -0.0192,-34.2284 0.71464,-65.054 6.24219,-91.4942 5.50782,-26.3457 16.15023,-50.8409 31.0332,-70.1601 14.89464,-19.3343 35.39754,-35.2938 58.16014,-45.3535 22.9563,-10.1452 49.5614,-15.1078 76.6524,-14.7656 38.075,0.4809 75.8439,11.6701 104.916,31.9882 28.6899,20.051 50.4363,50.9717 57.666,82.6231 7.5387,33.0046 -0.3502,71.8075 -20.1758,99.25 -19.8257,27.4425 -54.1865,47.1196 -87.8887,50.3301 a 59.50595,59.50595 0 0 0 10.9727,118.4921 c 33.9309,-3.0516 72.1917,11.8941 95.0703,37.1368 22.8786,25.2426 34.0033,64.7854 27.6406,98.2539 -4.321,22.7292 -16.3308,45.6172 -33.3886,63.8593 -17.1941,18.3878 -40.1793,33.116 -65.5606,42.4454 -36.8761,13.5543 -81.6715,17.1094 -130.5039,17.6406 -49.453,0.5378 -100.10639,-0.7204 -151.96093,-0.7403 l -352.52344,-0.1347 c -42.80484,-0.016 -95.02767,-0.2905 -147.70508,23.7246 -26.35135,12.0132 -51.3333,29.7375 -71.1582,54.3242 -19.98232,24.7818 -33.64635,55.2992 -36.61328,89.252 -3.10529,35.536 5.96333,69.6446 23.45312,98.582 17.3623,28.7266 41.85386,50.5341 69.0586,65.6816 27.03322,15.0521 55.42316,22.8916 82.52148,26.7813 27.01746,3.8781 51.77221,3.8158 73.78321,3.8281 l 802.51172,0.4492 a 59.50595,59.50595 0 1 0 0.066,-119 l -802.50977,-0.4492 a 59.50595,59.50595 0 0 0 -0.002,0 c -21.65726,-0.012 -40.73363,-0.2946 -56.9414,-2.6211 -16.1269,-2.3149 -30.41951,-6.7657 -41.53907,-12.957 -10.94806,-6.0959 -19.87985,-14.6216 -25.10547,-23.2676 -5.0981,-8.435 -7.44418,-18.7016 -6.74804,-26.668 0.67194,-7.6895 4.44517,-17.1554 10.70117,-24.914 a 59.50595,59.50595 0 0 0 0,-0 c 6.4134,-7.9538 16.20104,-15.4138 27.88476,-20.7402 23.39276,-10.6645 57.49946,-13.0195 98.29688,-13.0039 l 352.52344,0.1347 c 49.90249,0.019 101.00285,1.3032 153.30075,0.7344 52.9188,-0.5756 111.6303,-3.3898 170.2637,-24.9414 41.3109,-15.1845 80.0875,-39.3495 111.4238,-72.8613 31.4725,-33.6575 54.4275,-75.8369 63.377,-122.9121 13.6561,-71.8325 -7.2695,-146.217 -56.3731,-200.3946 -9.9338,-10.9603 -20.8431,-20.793 -32.4668,-29.5488 8.1119,-8.3444 15.703,-17.2604 22.5996,-26.8066 40.6802,-56.3093 55.1955,-127.715 39.7266,-195.4375 -14.5741,-63.8056 -53.9401,-117.6221 -105.5078,-153.6621 -51.1853,-35.7727 -111.7493,-52.6838 -171.582,-53.4395 a 59.50595,59.50595 0 0 0 -0,0 c -42.3542,-0.5349 -85.6901,6.9819 -126.2578,24.9102 -40.76123,18.0139 -76.83653,45.8925 -104.32617,81.5761 -27.50126,35.6988 -44.54186,76.7964 -53.2461,118.4317 -8.68451,41.5409 -8.77954,80.6897 -8.75976,115.9121 l 0.0352,64.2578 c 0.0191,34.0427 -0.73075,64.6208 -6.28906,90.7305 -5.53593,26.0044 -16.24023,50.121 -31.11718,68.9375 -14.88405,18.8255 -35.38213,34.1931 -57.97071,43.5234 -22.78818,9.4127 -49.14343,13.5004 -75.73633,12.1602 -58.31187,-2.9389 -117.43739,-33.043 -156.63867,-78.5117 -39.46001,-45.7689 -61.50178,-108.8791 -61.16015,-170.9942 0.29937,-54.433 17.24907,-109.5762 47.57617,-154.7793 30.32712,-45.203 74.92552,-81.797 125.17969,-102.7148 a 59.50595,59.50595 0 0 0 -24.39063,-114.7168 z"
         id="path4502-2-1-0-2-6-8-8-2"
         inkscape:connector-curvature="0" />
      <path
         style="fill:none;fill-rule:evenodd;stroke:#000000;stroke-width:70;stroke-linecap:round;stroke-linejoin:round;stroke-miterlimit:4;stroke-dasharray:none;stroke-opacity:1"
         d="m -4251.5676,-578.10052 c -93.2739,38.81894 -174.6908,105.621 -230.9793,189.51694 -56.2885,83.89594 -87.2317,184.56251 -87.7855,285.59031 -0.6348,115.801916 39.4699,232.23929 115.0895,319.94429 75.6196,87.705 186.8376,145.0042 302.4943,150.83547 52.525,2.64825 105.8286,-5.17786 154.4376,-25.25393 48.6091,-20.07608 92.1068,-52.53989 124.7254,-93.7942 32.6186,-41.25431 53.9613,-90.82169 64.9119,-142.26074 10.9506,-51.439047 11.5888,-104.4398769 11.5587,-157.031613 l -0.056,-97.819687 c -0.03,-52.8633 0.6015,-106.12343 11.4193,-157.86803 10.8179,-51.74461 31.89,-101.67228 64.1524,-143.5491 32.2623,-41.87683 75.3289,-75.24314 123.6816,-96.61 48.3528,-21.36686 101.5899,-30.86509 154.449,-30.19688 74.5236,0.94208 149.3712,22.32958 210.4611,65.02239 61.0899,42.69281 107.6079,107.19129 124.2052,179.84926 17.5137,76.66952 0.4623,160.556 -45.5936,224.30394 -46.0558,63.747945 -120.3412,106.2846073 -198.6316,113.738731 41.3547,-7.24090389 84.5274,-3.8398582 124.2382,9.787185 39.7107,13.627042 75.8751,37.451148 104.0703,68.558598 28.1951,31.107446 48.3611,69.432196 58.0316,110.287066 9.6706,40.85487 8.8251,84.15312 -2.433,124.59932 -13.5527,48.68995 -41.9885,92.71804 -78.8085,127.33988 -36.8201,34.62184 -81.81,60.02803 -129.5612,76.58734 -73.1413,25.36418 -151.6502,30.56855 -229.055,31.79189 -77.4047,1.22335 -154.825,-0.47496 -232.2394,-0.50461 l -536.6612,-0.20556 c -63.6756,-0.0244 -129.4252,1.50261 -187.3985,27.84026 -28.9867,13.16883 -55.4969,32.32467 -75.4699,57.11829 -19.973,24.79361 -33.197,55.29851 -35.7854,87.0309 -2.6903,32.9816 6.2214,66.55152 23.5554,94.73944 17.3339,28.18791 42.8283,50.97854 71.8332,66.9077 29.005,15.92916 61.3767,25.1065 94.1422,29.73718 32.7656,4.63067 65.9783,4.78979 99.0694,4.80835 l 1221.6998,0.68527"
         id="path4502-2-1-0-2-6-8-3"
         inkscape:path-effect="#path-effect4504-9-4-6-7-6-3-9"
         inkscape:original-d="m -4251.5676,-578.10052 c -218.6793,96.83118 -331.594,284.82978 -318.7648,475.10725 14.1108,209.28605 207.8269,472.98571 417.5838,470.77976 183.0188,-1.92476 355.7328,-243.17656 355.6336,-418.340483 l -0.056,-97.819687 c -0.077,-134.88938 169.9916,-405.2583 353.7023,-428.22401 137.1622,-17.1467 313.0894,108.34076 334.6663,244.87165 21.6995,137.30628 -244.2252,338.042671 -244.2252,338.042671 0,0 288.123,172.378549 283.9071,313.232169 -2.9076,97.14145 -119.6777,164.19502 -208.3697,203.92722 -140.6497,63.0082 -322.78,31.34034 -461.2944,31.28728 l -536.6612,-0.20556 c -42.698,-0.0163 -294.3728,57.19034 -298.6538,171.98945 -4.3349,116.24329 123.3946,196.1 288.6002,196.19267 l 1221.6998,0.68527"
         inkscape:connector-curvature="0"
         sodipodi:nodetypes="caassaacaassasc" />
      <path
         style="color:#000000;font-style:normal;font-variant:normal;font-weight:normal;font-stretch:normal;font-size:medium;line-height:normal;font-family:sans-serif;text-indent:0;text-align:start;text-decoration:none;text-decoration-line:none;text-decoration-style:solid;text-decoration-color:#000000;letter-spacing:normal;word-spacing:normal;text-transform:none;direction:ltr;block-progression:tb;writing-mode:lr-tb;baseline-shift:baseline;text-anchor:start;white-space:normal;clip-rule:nonzero;display:inline;overflow:visible;visibility:visible;opacity:1;isolation:auto;mix-blend-mode:normal;color-interpolation:sRGB;color-interpolation-filters:linearRGB;solid-color:#000000;solid-opacity:1;fill:#000000;fill-opacity:1;fill-rule:evenodd;stroke:none;stroke-width:70;stroke-linecap:round;stroke-linejoin:round;stroke-miterlimit:4;stroke-dasharray:none;stroke-dashoffset:0;stroke-opacity:1;color-rendering:auto;image-rendering:auto;shape-rendering:auto;text-rendering:auto;enable-background:accumulate"
         d="m -3196.4629,1306.7324 a 35.0035,35.0035 0 0 0 -12.5527,2.8535 c -99.754,41.516 -186.3966,112.6055 -246.5957,202.3301 -60.1991,89.7245 -93.1285,196.8518 -93.7207,304.8985 -0.6798,124.0109 41.9548,248.3194 123.582,342.9921 81.7793,94.8491 201.1925,156.5805 327.2383,162.9356 57.1777,2.8828 115.5737,-5.5623 169.5605,-27.8594 54.1044,-22.3457 102.3532,-58.3138 138.8203,-104.4355 36.4714,-46.1271 59.7639,-100.6627 71.6895,-156.6817 11.9124,-55.957 12.3564,-111.4515 12.3262,-164.3398 l -0.057,-97.8203 c -0.03,-52.5706 0.7907,-103.3834 10.6797,-150.6856 9.8777,-47.2474 29.0683,-92.2904 57.6192,-129.3496 28.5575,-37.0681 67.0426,-66.9295 110.1015,-85.957 43.1729,-19.0779 91.491,-27.8244 139.8613,-27.2129 68.125,0.8612 136.2675,20.5653 190.8536,58.7129 54.3611,37.9904 95.6958,95.7545 110.1328,158.9551 15.181,66.4579 0.08,140.7561 -39.8418,196.0136 -36.643,50.7191 -95.0938,86.5474 -156.9239,97.0996 -6.4801,0.6778 -12.9451,1.5344 -19.375,2.6602 a 35.0035,35.0035 0 0 0 9.3536,69.3164 c 6.4359,-0.6128 12.8293,-1.4885 19.1933,-2.5059 30.3891,-2.8794 61.5644,0.6728 90.3672,10.5567 34.0354,11.6795 65.3324,32.2972 89.4981,58.959 24.1655,26.6616 41.6177,59.8275 49.9062,94.8437 8.2884,35.016 7.5574,72.4865 -2.0918,107.1524 -11.6229,41.7568 -36.4829,80.5882 -69.0664,111.2265 -32.6797,30.7286 -73.3421,53.8595 -117.0527,69.0176 -67.2165,23.3096 -141.9302,28.6588 -218.1407,29.8633 -76.5242,1.2094 -153.7564,-0.478 -231.6738,-0.5078 l -536.6601,-0.2051 c -64.2441,-0.024 -135.306,0.7256 -201.8887,30.9746 -33.3071,15.1316 -64.3103,37.3096 -88.25,67.0273 -24.0368,29.8382 -40.188,66.5924 -43.4141,106.1407 -3.3561,41.1421 7.6018,81.7294 28.627,115.9199 20.9457,34.0613 51.0324,60.7078 84.7988,79.2519 33.6642,18.488 70.1446,28.6346 106.0918,33.7149 35.9006,5.0737 70.7571,5.1337 103.9473,5.1523 l 1221.7011,0.6856 a 35.0035,35.0035 0 1 0 0.039,-70 l -1221.7012,-0.6856 c -32.992,-0.019 -64.5607,-0.2772 -94.1914,-4.4648 -29.5837,-4.1809 -57.8458,-12.3895 -82.1914,-25.7598 -24.2434,-13.3142 -45.1451,-32.248 -58.8672,-54.5625 -13.6428,-22.1855 -20.5091,-48.7394 -18.4843,-73.5605 1.9509,-23.9166 12.2469,-48.1709 28.1562,-67.9199 16.0063,-19.8695 38.0253,-36.0031 62.6914,-47.209 49.3639,-22.4264 109.8011,-24.7289 172.9082,-24.7051 l 536.6602,0.2051 c 76.9114,0.029 154.5215,1.7372 232.8066,0.5 78.5991,-1.2423 160.9026,-6.2999 239.9688,-33.7188 51.7917,-17.9605 101.1098,-45.6432 142.0703,-84.1582 41.0565,-38.6055 73.0683,-87.8302 88.5508,-143.4531 12.867,-46.2266 13.826,-95.3513 2.7734,-142.0449 a 35.0035,35.0035 0 0 0 0,-0 c -11.0527,-46.6936 -33.9336,-90.1754 -66.1582,-125.7285 -28.9504,-31.9406 -65.0423,-56.9241 -104.9805,-72.9805 29.8848,-20.2674 56.4011,-45.5644 77.7422,-75.1035 52.19,-72.2385 71.1901,-165.7127 51.3438,-252.5937 -18.7577,-82.1155 -70.4587,-153.349 -138.2774,-200.7442 -67.5937,-47.238 -149.1442,-70.309 -230.0664,-71.332 -57.3478,-0.7249 -115.5064,9.5258 -169.0391,33.1816 -53.6464,23.7061 -101.2946,60.578 -137.2617,107.2637 -35.9739,46.6944 -58.9274,101.5043 -70.6855,157.7461 -11.7464,56.1864 -12.1903,111.8954 -12.1602,165.0508 l 0.057,97.8203 c 0.03,52.2951 -0.8023,102.8017 -10.791,149.7227 -9.9757,46.8592 -29.3689,91.4602 -58.1348,127.8417 -28.7701,36.3869 -67.5171,65.3459 -110.6309,83.1524 -43.2312,17.8549 -91.4421,25.0601 -139.3144,22.6465 -105.2679,-5.3075 -208.2881,-58.1735 -277.7481,-138.7344 -69.612,-80.7373 -107.1874,-189.3037 -106.5976,-296.8965 0.5153,-94.0089 29.4717,-188.2159 81.8496,-266.2832 52.3779,-78.0674 128.5695,-140.581 215.3633,-176.7031 a 35.0035,35.0035 0 0 0 -14.3438,-67.4805 z"
         id="path4502-2-1-0-2-6-8-3-2"
         inkscape:connector-curvature="0" />
      <path
         style="fill:none;fill-rule:evenodd;stroke:#000000;stroke-width:60;stroke-linecap:round;stroke-linejoin:round;stroke-miterlimit:4;stroke-dasharray:none;stroke-opacity:1"
         d="m 3704.2859,414.46179 c -63.4389,26.4036 -118.8132,71.83903 -157.097,128.90032 -38.2838,57.06129 -59.3296,125.5286 -59.7069,194.24176 -0.4325,78.76201 26.8434,157.95663 78.2751,217.60917 51.4317,59.65256 127.0762,98.62466 205.7395,102.58956 35.7243,1.8006 71.9779,-3.523 105.0385,-17.1781 33.0606,-13.6551 62.6446,-35.7354 84.8295,-63.79425 22.1848,-28.0588 36.7007,-61.7714 44.1489,-96.75697 7.4481,-34.98558 7.8828,-71.0334 7.8629,-106.80301 l -0.037,-66.53162 c -0.02,-35.95436 0.4103,-72.17858 7.7681,-107.37202 7.3578,-35.19344 21.6897,-69.15113 43.6323,-97.63339 21.9426,-28.48226 51.2333,-51.17647 84.1196,-65.70952 32.8863,-14.53304 69.0948,-20.99387 105.0463,-20.53978 50.6866,0.6402 101.5937,15.18697 143.1433,44.2245 41.5495,29.03752 73.1879,72.90605 84.476,122.32388 11.9113,52.14614 0.314,109.20058 -31.0102,152.5583 -31.3243,43.35771 -81.8483,72.28914 -135.0967,77.35996 55.2674,-4.97235 112.3373,17.31889 149.603,58.43428 37.2658,41.11538 53.8573,100.09498 43.4931,154.60914 -6.8704,36.1374 -24.9714,69.8218 -50.0957,96.6897 -25.1244,26.8679 -57.0981,47.0039 -91.6245,59.6943 -49.4456,18.1741 -103.0313,21.4707 -155.708,22.0436 -52.6768,0.5729 -105.356,-0.7435 -158.0358,-0.7637 l -365.0036,-0.1399 c -43.2808,-0.017 -87.9735,1.0612 -127.3553,19.0142 -19.6908,8.9765 -37.6913,22.0147 -51.2751,38.8607 -13.5838,16.846 -22.6116,37.5447 -24.4954,59.103 -1.968,22.5212 3.9411,45.4949 15.6351,64.8423 11.6941,19.3475 28.998,35.0505 48.7498,46.0479 19.7518,10.9973 41.8483,17.3597 64.226,20.5716 22.3776,3.212 45.07,3.3254 67.677,3.3381 l 830.9245,0.4661"
         id="path4502-2-1-0-2-6-8-8-8"
         inkscape:path-effect="#path-effect4504-9-4-6-7-6-3-45-1"
         inkscape:original-d="m 3704.2859,414.46179 c -148.732,65.8593 -225.5296,193.72573 -216.8039,323.14208 9.5971,142.34503 141.3509,321.69913 284.0146,320.19873 124.4779,-1.309 241.9472,-165.39539 241.8798,-284.53233 l -0.037,-66.53162 c -0.051,-91.74444 115.6177,-275.63469 240.5663,-291.25471 93.2894,-11.66229 212.9438,73.68749 227.6193,166.54838 14.7586,93.38826 -166.1069,229.91826 -166.1069,229.91826 0,0 193.0925,117.20111 193.0961,213.04342 0,70.3479 -78.409,125.7127 -141.7202,156.384 -94.3341,45.7005 -219.5349,21.3159 -313.7438,21.2799 l -365.0036,-0.1399 c -29.0406,-0.011 -200.0297,38.907 -203.1258,116.9779 -3.1453,79.3089 83.9252,134.7369 196.2879,134.7999 l 830.9245,0.4661"
         inkscape:connector-curvature="0"
         sodipodi:nodetypes="caassaacaassasc" />
      <path
         style="color:#000000;font-style:normal;font-variant:normal;font-weight:normal;font-stretch:normal;font-size:medium;line-height:normal;font-family:sans-serif;text-indent:0;text-align:start;text-decoration:none;text-decoration-line:none;text-decoration-style:solid;text-decoration-color:#000000;letter-spacing:normal;word-spacing:normal;text-transform:none;direction:ltr;block-progression:tb;writing-mode:lr-tb;baseline-shift:baseline;text-anchor:start;white-space:normal;clip-rule:nonzero;display:inline;overflow:visible;visibility:visible;opacity:1;isolation:auto;mix-blend-mode:normal;color-interpolation:sRGB;color-interpolation-filters:linearRGB;solid-color:#000000;solid-opacity:1;fill:#000000;fill-opacity:1;fill-rule:evenodd;stroke:none;stroke-width:60;stroke-linecap:round;stroke-linejoin:round;stroke-miterlimit:4;stroke-dasharray:none;stroke-dashoffset:0;stroke-opacity:1;color-rendering:auto;image-rendering:auto;shape-rendering:auto;text-rendering:auto;enable-background:accumulate"
         d="m 2839.5176,2016.3184 a 30.003,30.003 0 0 0 -10.7598,2.4472 c -68.9931,28.7153 -128.8448,77.8257 -170.4805,139.8828 -41.6356,62.0572 -64.3845,136.0619 -64.7949,210.7911 -0.4711,85.7982 28.9736,171.7383 85.5547,237.3632 l -0,0 c 56.7113,65.7764 139.3825,108.5472 226.9511,112.961 39.7125,2.0016 80.3319,-3.8532 118.002,-19.4121 37.7708,-15.6006 71.4266,-40.6833 96.9101,-72.9141 25.487,-32.2353 41.6732,-70.2062 49.9571,-109.1172 8.2725,-38.8579 8.5415,-77.0425 8.5215,-113.0664 l -0.037,-66.5312 c -0.02,-35.7039 0.571,-69.8304 7.1329,-101.2168 6.5519,-31.3389 19.2717,-61.1118 38.0332,-85.4649 18.7673,-24.3606 44.1316,-44.0503 72.4804,-56.5781 28.4464,-12.571 60.4372,-18.386 92.541,-17.9805 45.2018,0.5709 90.3613,13.675 126.336,38.8164 35.7821,25.0068 62.9796,63.1026 72.416,104.4141 9.912,43.3935 -0.015,92.2284 -26.082,128.3086 -26.0667,36.0802 -69.3123,60.8448 -113.6231,65.0644 a 30.003,30.003 0 0 0 5.5313,59.7442 c 45.4619,-4.0902 94.0334,14.8804 124.6875,48.7011 30.6541,33.8208 44.7754,84.017 36.25,128.8594 -5.7035,29.9996 -21.0467,58.821 -42.5371,81.8028 -21.559,23.0551 -49.5519,40.8129 -80.0625,52.0273 -43.9607,16.1581 -94.0371,19.6414 -145.6836,20.2031 -51.9596,0.5651 -104.5254,-0.7452 -157.6973,-0.7656 l -365.0039,-0.1406 c -43.7872,-0.017 -93.0464,0.3984 -139.8106,21.7168 -23.3883,10.6621 -45.2205,26.2889 -62.1855,47.3281 -17.0442,21.1375 -28.565,47.1427 -31.0273,75.3223 -2.5754,29.4718 5.0277,58.4546 19.8457,82.9707 a 30.003,30.003 0 0 0 0,0 c 14.7538,24.4098 35.9819,43.4611 59.832,56.7403 23.7636,13.2309 49.4131,20.4457 74.5566,24.0546 25.1027,3.6032 49.2259,3.6299 71.9219,3.6426 l 830.9258,0.4668 a 30.003,30.003 0 1 0 0.033,-60 l -830.9258,-0.4668 c -22.5179,-0.013 -43.7772,-0.2123 -63.4297,-3.0332 -19.6117,-2.8149 -38.1564,-8.3223 -53.8965,-17.0859 -15.6534,-8.7155 -29.0336,-21.0703 -37.6679,-35.3555 -8.5701,-14.1789 -12.7845,-31.1423 -11.4239,-46.7129 1.3053,-14.937 7.8396,-30.3283 17.9629,-42.8828 10.2027,-12.6528 24.372,-23.1036 40.3653,-30.3945 31.9994,-14.5876 72.1259,-16.3293 114.9004,-16.3125 l 365.0039,0.1406 c 52.1877,0.02 104.979,1.3424 158.373,0.7617 53.7069,-0.5841 110.8018,-3.6926 165.7324,-23.8828 38.5422,-14.1664 74.4959,-36.6826 103.1856,-67.3633 28.7583,-30.754 49.6189,-69.3009 57.6562,-111.5761 12.203,-64.186 -6.8589,-131.9494 -50.7363,-180.3594 -18.0835,-19.9517 -39.8877,-35.9569 -63.7871,-47.5567 19.664,-13.8232 37.1373,-30.8243 51.3691,-50.5234 36.5821,-50.6352 49.8501,-115.908 35.9395,-176.8066 -13.1398,-57.5243 -49.22,-107.1642 -96.5371,-140.2325 -47.1243,-32.9335 -103.7778,-48.9233 -159.9492,-49.6328 -39.7992,-0.5027 -80.2266,6.6025 -117.5528,23.0977 -37.4238,16.5382 -70.6399,42.2359 -95.7578,74.8398 -25.1237,32.6115 -41.0687,70.7546 -49.2324,109.8028 -8.1537,39.0003 -8.4225,77.3243 -8.4024,113.5293 l 0.037,66.5312 c 0.02,35.5153 -0.5814,69.4258 -7.2051,100.5391 -6.6125,31.0602 -19.4572,60.5161 -38.3399,84.3984 -18.8863,23.8868 -44.3996,42.9623 -72.75,54.6719 -28.4511,11.7512 -60.34,16.5429 -92.0761,14.9433 -69.7582,-3.516 -138.3756,-38.6879 -184.5274,-92.2168 -46.2823,-53.68 -71.3899,-126.1297 -70.9961,-197.8554 0.3443,-62.6971 19.6872,-125.626 54.6192,-177.6914 34.9319,-52.0655 85.8262,-93.8261 143.7109,-117.918 a 30.003,30.003 0 0 0 -12.2949,-57.8398 z"
         id="path4502-2-1-0-2-6-8-8-8-9"
         inkscape:connector-curvature="0" />
    </g>
  </g>
</svg>
