<?xml version="1.0" encoding="UTF-8" standalone="no"?>
<!-- Created with Inkscape (http://www.inkscape.org/) -->

<svg
   xmlns:dc="http://purl.org/dc/elements/1.1/"
   xmlns:cc="http://creativecommons.org/ns#"
   xmlns:rdf="http://www.w3.org/1999/02/22-rdf-syntax-ns#"
   xmlns:svg="http://www.w3.org/2000/svg"
   xmlns="http://www.w3.org/2000/svg"
   xmlns:sodipodi="http://sodipodi.sourceforge.net/DTD/sodipodi-0.dtd"
   xmlns:inkscape="http://www.inkscape.org/namespaces/inkscape"
   width="2000"
   height="2048"
   id="svg2992"
   version="1.1"
   inkscape:version="0.91pre3 r13670"
   sodipodi:docname="ഗ്നു.svg">
  <defs
     id="defs5498">
    <inkscape:path-effect
       effect="spiro"
       id="path-effect4372-52-4-6-8"
       is_visible="true" />
    <inkscape:path-effect
       effect="spiro"
       id="path-effect4372-52-4-6-8-1"
       is_visible="true" />
    <inkscape:path-effect
       effect="spiro"
       id="path-effect4372-52-4-6-8-1-7"
       is_visible="true" />
    <inkscape:path-effect
       effect="spiro"
       id="path-effect4372-52-4-6-8-1-9"
       is_visible="true" />
  </defs>
  <sodipodi:namedview
     inkscape:window-height="853"
     inkscape:window-width="1600"
     inkscape:pageshadow="2"
     inkscape:pageopacity="0.0"
     borderopacity="1.0"
     bordercolor="#666666"
     pagecolor="#ffffff"
     id="base"
     showgrid="true"
     showguides="true"
     inkscape:guide-bbox="true"
     inkscape:zoom="0.32102648"
     inkscape:cx="1973.6874"
     inkscape:cy="379.17552"
     inkscape:window-x="1598"
     inkscape:window-y="-3"
     inkscape:current-layer="layer1"
     inkscape:window-maximized="1">
    <sodipodi:guide
       orientation="horizontal"
       position="0,600"
       id="guide5596" />
    <inkscape:grid
       type="xygrid"
       id="grid3769"
       empspacing="3"
       visible="true"
       enabled="true"
       snapvisiblegridlinesonly="true"
       spacingx="4px"
       units="px"
       dotted="true"
       spacingy="4px" />
    <sodipodi:guide
       orientation="0,1"
       position="-1040,1600"
       id="guide2985" />
  </sodipodi:namedview>
  <metadata
     id="metadata5594">
    <rdf:RDF>
      <cc:Work
         rdf:about="">
        <dc:format>image/svg+xml</dc:format>
        <dc:type
           rdf:resource="http://purl.org/dc/dcmitype/StillImage" />
        <dc:title />
      </cc:Work>
    </rdf:RDF>
  </metadata>
  <g
     inkscape:label="Layer 1"
     inkscape:groupmode="layer"
     id="layer1"
     transform="translate(0,1048)">
    <path
       style="fill:none;fill-rule:evenodd;stroke:#000000;stroke-width:140;stroke-linecap:round;stroke-linejoin:round;stroke-miterlimit:4;stroke-dasharray:none;stroke-opacity:1"
       d="m 2430.1153,1446.2678 c 23.4754,-48.7619 29.7453,-105.6005 17.4629,-158.3068 -12.2825,-52.7063 -43.0328,-100.9179 -85.6457,-134.2788 -42.613,-33.3609 -96.7956,-51.6418 -150.9092,-50.9158 -54.1136,0.726 -107.7863,20.4539 -149.4889,54.946 -30.9511,25.5996 -55.3096,59.1339 -69.9342,96.5429 -14.6246,37.4089 -19.4667,78.6148 -13.7539,118.3724 5.7127,39.7577 21.984,77.9697 46.813,109.5423 24.829,31.5726 58.1665,56.4144 95.5793,71.0292 49.9081,19.496 106.3856,20.4258 157.7423,5.1484 51.3568,-15.2773 97.5235,-46.3159 133.1518,-86.3352 35.6282,-40.0193 60.888,-88.7877 75.7205,-140.2747 14.8324,-51.4871 19.4101,-105.656 16.2434,-159.1433 -6.8868,-116.3218 -51.5488,-230.92348 -129.1823,-317.82132 -77.6334,-86.89784 -188.4253,-144.6673 -304.6195,-153.44752 -124.9733,-9.44361 -253.1451,39.16775 -340.424,129.11166 -87.2788,89.94391 -132.0142,219.51948 -118.8171,344.15228 l -1.6923,393.859 -2.1014,-389.3498 c -0.2991,-55.4244 -1.0412,-111.1147 -10.3739,-165.7485 -9.3327,-54.63382 -27.3292,-108.13006 -56.3574,-155.3457 -29.0282,-47.21565 -68.9864,-87.8171 -116.3695,-116.57112 -47.3832,-28.75401 -101.9309,-45.55895 -157.2726,-48.60071 -78.5453,-4.31712 -158.4316,19.54782 -221.4251,66.66287 -62.99343,47.11504 -108.5273,117.18788 -125.47941,194.00342 -14.43764,65.42164 -8.56949,133.36044 -4.2926,200.21954 4.27689,66.8592 6.66716,135.5483 -14.2066,199.2093 -14.7016,44.8371 -40.76778,85.7681 -74.44642,118.8174 -33.67865,33.0492 -74.86641,58.2393 -119.28109,74.1716 -88.82934,31.8647 -189.15532,25.7864 -276.81779,-9.1607 -79.50763,-31.6962 -149.62593,-86.7488 -198.81217,-156.7975 -49.18625,-70.0488 -77.18516,-154.869 -78.79173,-240.4466 C 150.24491,1028.2483 193.67554,916.79945 270.49791,836.28671 347.32028,755.77397 456.6103,707.1658 567.84959,704.03566"
       id="path4370-92-6-1-7-4"
       inkscape:path-effect="#path-effect4372-52-4-6-8-1"
       inkscape:original-d="m 2430.1153,1446.2678 c 40.5223,-1.3508 -233.7163,-367.0269 -368.5809,-288.5554 -115.1928,67.0254 -67.7828,353.5008 58.7042,395.4868 170.7875,56.691 378.8702,-200.6983 382.858,-380.6048 4.7315,-213.45745 -220.3104,-468.45737 -433.8018,-471.26884 -219.7993,-2.89454 -370.3466,247.5123 -459.2411,473.26394 l -1.6923,393.859 -2.1014,-389.3498 C 1624.6209,734.08146 1461.279,723.93283 1265.8866,692.83267 1123.0435,670.09661 986.58619,825.62896 918.98209,953.49896 c -62.2967,117.83124 59.1959,291.13044 -18.4992,399.42884 -98.1599,136.8241 -309.388,232.6597 -470.5453,183.8283 -154.6022,-46.8451 -289.8702,-236.1669 -277.6039,-397.2441 15.2347,-200.05674 415.5159,-435.47634 415.5159,-435.47634"
       inkscape:connector-curvature="0"
       sodipodi:nodetypes="caaaacccaaaaac" />
    <path
       style="color:#000000;font-style:normal;font-variant:normal;font-weight:normal;font-stretch:normal;font-size:medium;line-height:normal;font-family:sans-serif;text-indent:0;text-align:start;text-decoration:none;text-decoration-line:none;text-decoration-style:solid;text-decoration-color:#000000;letter-spacing:normal;word-spacing:normal;text-transform:none;direction:ltr;block-progression:tb;writing-mode:lr-tb;baseline-shift:baseline;text-anchor:start;white-space:normal;clip-rule:nonzero;display:inline;overflow:visible;visibility:visible;opacity:1;isolation:auto;mix-blend-mode:normal;color-interpolation:sRGB;color-interpolation-filters:linearRGB;solid-color:#000000;solid-opacity:1;fill:#000000;fill-opacity:1;fill-rule:evenodd;stroke:none;stroke-width:140;stroke-linecap:round;stroke-linejoin:round;stroke-miterlimit:4;stroke-dasharray:none;stroke-dashoffset:0;stroke-opacity:1;color-rendering:auto;image-rendering:auto;shape-rendering:auto;text-rendering:auto;enable-background:accumulate"
       d="m 1262.3594,-611.91602 c -89.2392,-0.98269 -177.4812,27.34906 -249.336,81.0918 -76.69507,57.36299 -131.20214,141.1469 -151.90817,234.97266 -17.49553,79.27797 -10.00426,153.97027 -5.79492,219.773435 4.18798,65.469155 4.87095,124.939279 -10.86523,172.931641 -10.99902,33.544934 -31.01509,65.205024 -56.95899,90.664064 -26.00639,25.52037 -58.60029,45.58752 -93.88867,58.24609 -70.39888,25.25334 -154.06935,20.88089 -227.25976,-8.29687 -66.75858,-26.61368 -126.32827,-73.44027 -167.44727,-132 -41.09397,-58.524087 -64.75542,-130.347857 -66.0918,-201.533206 -1.73052,-92.180414 35.17602,-186.884224 98.82227,-253.587894 63.64625,-66.70367 156.5156,-108.01024 248.67578,-110.60351 a 70.007,70.007 0 1 0 -3.9375,-139.94336 c -130.3184,3.667 -256.02886,59.57858 -346.02734,153.90039 -89.99849,94.32181 -139.954851,222.51431 -137.507816,352.861327 1.87676,99.969872 34.213676,197.786043 91.492186,279.359373 57.25348,81.53771 137.92107,144.81513 230.17774,181.59375 102.13452,40.7165 219.1152,48.50336 326.375,10.02735 53.54098,-19.20611 103.32292,-49.5215 144.67382,-90.09961 41.41339,-40.63943 73.52942,-90.83949 91.9336,-146.96875 26.01137,-79.32966 21.91463,-157.239136 17.54883,-225.488285 -4.34444,-67.915135 -8.58873,-129.100695 2.79101,-180.666015 13.19823,-59.80534 49.75703,-116.16611 99.04883,-153.0332 49.3418,-36.90449 113.8249,-56.22084 175.6582,-52.82227 43.7517,2.40475 87.4442,15.88052 124.7988,38.54883 37.32,22.64726 69.6581,55.33616 93.0528,93.38867 23.4335,38.1157 38.8935,83.08375 46.9882,130.4707 8.107,47.45816 9.078,99.28724 9.375,154.339848 l 2.1016,389.349612 a 70.007,70.007 0 0 0 140,-0.0762 L 1690.541,-59.375 a 70.007,70.007 0 0 0 -0.3887,-7.671875 c -10.9178,-103.108035 27.2382,-213.623125 99.4434,-288.033205 72.2053,-74.41009 181.5224,-115.87124 284.9121,-108.05859 96.5236,7.29381 191.8357,56.56634 257.6934,130.2832 52.8643,59.17281 88.5589,134.98544 103.8476,214.70117 -6.5518,-6.12388 -13.3748,-11.98703 -20.4765,-17.54687 -55.5177,-43.46377 -124.4989,-66.73688 -195,-65.79102 -70.5013,0.94586 -138.8325,26.06051 -193.1641,70.99805 -40.187,33.238595 -71.4591,76.250557 -90.5156,124.9960931 a 70.007,70.007 0 0 0 0,0.00195 c -19.0635,48.7636968 -25.321,101.8047088 -17.8477,153.8144538 7.4761,52.02981 28.4703,101.39319 61.0781,142.85742 32.6208,41.48059 75.8064,73.69217 125.1329,92.96094 65.8767,25.73396 137.628,26.53873 203.1718,7.04101 65.2035,-19.39643 121.8295,-57.8606 165.4746,-106.88476 43.4824,-48.8414 73.2734,-106.9407 90.7032,-167.44336 17.3872,-60.355362 22.4241,-122.4144314 18.8574,-182.658204 -7.7818,-131.437996 -57.7406,-260.566606 -146.8594,-360.320316 -89.4091,-100.07882 -215.6821,-166.34469 -351.5469,-176.61132 -146.5569,-11.07458 -293.5811,44.68633 -395.9336,150.16406 -22.5187,23.20641 -42.4082,48.59951 -59.8183,75.49805 -6.0151,-12.14357 -12.4612,-24.14073 -19.6563,-35.84376 -34.6617,-56.37876 -82.2391,-104.89315 -139.6855,-139.7539 -57.4116,-34.83973 -122.8144,-54.9716 -189.7461,-58.65039 -5.9536,-0.32723 -11.9081,-0.52433 -17.8574,-0.58985 z m 960.0918,550.410161 c 37.726,-0.506141 77.11,12.782953 106.8183,36.041015 29.7082,23.2580361 52.0601,58.30185 60.6231,95.046875 8.5209,36.565099 4.0284,77.645259 -12.1426,111.544919 -2.7418,3.42709 -5.5154,6.82051 -8.4121,10.07422 -27.6115,31.01442 -63.318,54.62876 -100.8281,65.78711 -37.1696,11.05707 -78.3731,10.00218 -112.3125,-3.25586 -25.4991,-9.96091 -48.9881,-27.43496 -66.0254,-49.09961 -17.0502,-21.68101 -28.5995,-48.74101 -32.5489,-76.22656 -3.9522,-27.50562 -0.5253,-56.87546 9.6602,-82.929688 10.1927,-26.072388 27.6384,-50.127352 49.3535,-68.08789 29.0736,-24.04667 68.0883,-38.38839 105.8145,-38.894531 z"
       id="path4370-92-6-1-7-4-8"
       inkscape:connector-curvature="0" />
  </g>
</svg>
