<?xml version="1.0" encoding="UTF-8" standalone="no"?>
<!-- Created with Inkscape (http://www.inkscape.org/) -->

<svg
   xmlns:dc="http://purl.org/dc/elements/1.1/"
   xmlns:cc="http://creativecommons.org/ns#"
   xmlns:rdf="http://www.w3.org/1999/02/22-rdf-syntax-ns#"
   xmlns:svg="http://www.w3.org/2000/svg"
   xmlns="http://www.w3.org/2000/svg"
   xmlns:sodipodi="http://sodipodi.sourceforge.net/DTD/sodipodi-0.dtd"
   xmlns:inkscape="http://www.inkscape.org/namespaces/inkscape"
   width="2000"
   height="2048"
   id="svg2992"
   version="1.1"
   inkscape:version="0.91pre2 r13516"
   sodipodi:docname="ഗൂ.svg">
  <defs
     id="defs5498" />
  <sodipodi:namedview
     inkscape:window-height="853"
     inkscape:window-width="1600"
     inkscape:pageshadow="2"
     inkscape:pageopacity="0.0"
     borderopacity="1.0"
     bordercolor="#666666"
     pagecolor="#ffffff"
     id="base"
     showgrid="true"
     showguides="true"
     inkscape:guide-bbox="true"
     inkscape:zoom="0.16051324"
     inkscape:cx="968.5486"
     inkscape:cy="710.93633"
     inkscape:window-x="1598"
     inkscape:window-y="-3"
     inkscape:current-layer="layer1-5"
     inkscape:window-maximized="1">
    <sodipodi:guide
       orientation="horizontal"
       position="0,600"
       id="guide5596" />
    <inkscape:grid
       type="xygrid"
       id="grid3769"
       empspacing="3"
       visible="true"
       enabled="true"
       snapvisiblegridlinesonly="true"
       spacingx="4px"
       units="px"
       dotted="true"
       spacingy="4px" />
    <sodipodi:guide
       orientation="0,1"
       position="-1040,1600"
       id="guide2985" />
  </sodipodi:namedview>
  <metadata
     id="metadata5594">
    <rdf:RDF>
      <cc:Work
         rdf:about="">
        <dc:format>image/svg+xml</dc:format>
        <dc:type
           rdf:resource="http://purl.org/dc/dcmitype/StillImage" />
        <dc:title></dc:title>
      </cc:Work>
    </rdf:RDF>
  </metadata>
  <g
     inkscape:label="Layer 1"
     inkscape:groupmode="layer"
     id="layer1"
     transform="translate(0,1048)">
    <g
       id="layer1-5"
       inkscape:label="Layer 1"
       transform="translate(11.368149,11.200962)">
      <path
         sodipodi:nodetypes="cscscsssc"
         inkscape:connector-curvature="0"
         id="path3030-0"
         d="m -1787.8433,-555.61899 c -465.2,331.958 -174.1863,891.19022 48.2302,871.15896 452.0333,-40.71097 192.245,-670.74093 625.9634,-864 334.28155,-62.74093 419.66173,119.72182 415.74508,223.15084 -4.56888,120.65304 -187.94311,268.984466 -424.14158,281.671922 54.6781,-23.563694 435.69373,46.2634186 437.1974,240.839508 1.48065,191.5968 -373.4944,172.71629 -633.6949,237.50241 -317.7614,79.11797 -935.8292,454.41935 241.803,359.65272 l 473.32673,-38.08963"
         style="fill:none;stroke:#000000;stroke-width:130;stroke-linecap:round;stroke-linejoin:round;stroke-miterlimit:4;stroke-dasharray:none;stroke-opacity:1" />
      <path
         style="color:#000000;font-style:normal;font-variant:normal;font-weight:normal;font-stretch:normal;font-size:medium;line-height:normal;font-family:sans-serif;text-indent:0;text-align:start;text-decoration:none;text-decoration-line:none;text-decoration-style:solid;text-decoration-color:#000000;letter-spacing:normal;word-spacing:normal;text-transform:none;direction:ltr;block-progression:tb;writing-mode:lr-tb;baseline-shift:baseline;text-anchor:start;clip-rule:nonzero;display:inline;overflow:visible;visibility:visible;opacity:1;isolation:auto;mix-blend-mode:normal;color-interpolation:sRGB;color-interpolation-filters:linearRGB;solid-color:#000000;solid-opacity:1;fill:#000000;fill-opacity:1;fill-rule:nonzero;stroke:none;stroke-width:130;stroke-linecap:round;stroke-linejoin:round;stroke-miterlimit:4;stroke-dasharray:none;stroke-dashoffset:0;stroke-opacity:1;color-rendering:auto;image-rendering:auto;shape-rendering:auto;text-rendering:auto;enable-background:accumulate"
         d="m 1213.7832,-619.98438 c -38.4536,0.79783 -80.0656,5.1663 -124.9043,13.58204 a 65.0065,65.0065 0 0 0 -14.4648,4.51172 c -122.62632,54.64061 -200.28969,144.47196 -248.82816,240.9707 -48.53847,96.49873 -71.25835,199.49608 -93.96289,292.132811 C 708.9185,23.849625 685.61469,105.4621 648.62695,160 611.63921,214.5379 566.61323,247.95977 469.07617,256.74414 441.64394,259.21474 398.02493,241.42931 355.57422,196.07617 313.12351,150.72303 274.83059,81.538265 256.17969,2.8984375 218.87789,-154.38122 251.09661,-344.5357 464.43164,-496.76758 A 65.0065,65.0065 0 1 0 388.91992,-602.58789 C 137.05495,-422.86176 82.180276,-167.41971 129.68945,32.898438 153.44404,133.05751 200.53256,220.67127 260.66406,284.91406 c 60.1315,64.2428 136.29625,108.84972 220.07227,101.30469 128.47961,-11.57111 220.49044,-72.16993 275.48047,-153.25195 54.99003,-81.08203 78.60257,-176.689637 101.66992,-270.806644 23.06735,-94.117006 44.97537,-187.405856 83.83594,-264.664066 37.89664,-75.34185 88.88744,-135.54365 178.78124,-177.42773 149.8872,-26.67416 230.1502,1.57098 274.168,37.19922 44.7762,36.24216 58.216,88.4814 56.9883,120.9043 -1.0783,28.47373 -32.4162,84.44334 -97.8086,130.72851 -56.033,39.66048 -133.1202,72.10448 -220.3731,84.16211 -2.1382,-0.0448 -4.3498,-0.15167 -6.4414,-0.15625 -19.8406,-0.0434 -35.4982,-0.97861 -60.2891,9.705078 a 65.0065,65.0065 0 0 0 29.211,124.59961 c 14.4633,-0.776903 28.7098,-2.080092 42.7871,-3.734376 10.1942,0.536454 21.8447,1.501133 35.6035,3.488282 38.6215,5.578013 87.6082,17.265886 133.5899,34.724609 45.9816,17.458723 88.8667,41.096087 116.6796,66.455077 27.813,25.35899 39.8405,48.03964 40.0528,75.50195 0.2064,26.70738 -6.2237,36.36599 -33.0274,54.35743 -26.8037,17.99143 -75.099,35.05365 -134.4609,47.91992 -118.7239,25.73254 -278.2718,37.12901 -416.91212,71.64844 -86.33763,21.49682 -187.53876,61.13268 -276.71484,108.5957 -89.17608,47.46301 -166.82388,94.71504 -205.31055,169.89062 -19.24333,37.5878 -19.65665,96.99939 11.88672,134.67579 31.54337,37.67639 75.84321,54.78907 134.10352,67.89062 116.52061,26.20311 301.38172,30.39521 598.75587,6.46484 L 1616.3184,827 a 65.0065,65.0065 0 1 0 -10.4278,-129.58203 l -473.3261,38.08984 C 841.12249,758.9608 661.6285,751.77817 572.75781,731.79297 542.54934,724.9997 525.06313,716.33519 516.49023,711.3457 531.16904,691.098 590.741,640.25598 664.63672,600.92578 c 79.28102,-42.19648 174.4999,-79.1429 247.04297,-97.20508 121.56011,-30.26669 279.59741,-41.82316 413.04101,-70.74609 66.7218,-14.46147 128.1561,-32.65357 179.375,-67.0332 51.2189,-34.37964 91.1062,-94.20976 90.5723,-163.30079 -0.5397,-69.82572 -36.7019,-128.838787 -82.461,-170.560542 -40.0072,-36.4773837 -87.8961,-63.0985 -136.9258,-83.5 18.9178,-10.450321 36.8653,-21.671717 53.6758,-33.570312 86.4865,-61.215676 149.1207,-139.738656 152.6114,-231.917966 2.6888,-71.00613 -24.6024,-161.71181 -105.1075,-226.87305 -60.3787,-48.87093 -147.317,-78.59661 -262.6777,-76.20313 z"
         id="path3030-0-6"
         inkscape:connector-curvature="0" />
    </g>
  </g>
</svg>
