<?xml version="1.0" encoding="UTF-8" standalone="no"?>
<!-- Created with Inkscape (http://www.inkscape.org/) -->

<svg
   xmlns:dc="http://purl.org/dc/elements/1.1/"
   xmlns:cc="http://creativecommons.org/ns#"
   xmlns:rdf="http://www.w3.org/1999/02/22-rdf-syntax-ns#"
   xmlns:svg="http://www.w3.org/2000/svg"
   xmlns="http://www.w3.org/2000/svg"
   xmlns:sodipodi="http://sodipodi.sourceforge.net/DTD/sodipodi-0.dtd"
   xmlns:inkscape="http://www.inkscape.org/namespaces/inkscape"
   width="2000"
   height="2048"
   id="svg2992"
   version="1.1"
   inkscape:version="0.91pre3 r13670"
   sodipodi:docname="ഗ്നൂ.svg">
  <defs
     id="defs5498">
    <inkscape:path-effect
       effect="spiro"
       id="path-effect4372-52-4-6-8-1"
       is_visible="true" />
    <inkscape:path-effect
       effect="spiro"
       id="path-effect4372-52-4-6-8-1-8"
       is_visible="true" />
  </defs>
  <sodipodi:namedview
     inkscape:window-height="880"
     inkscape:window-width="1600"
     inkscape:pageshadow="2"
     inkscape:pageopacity="0.0"
     borderopacity="1.0"
     bordercolor="#666666"
     pagecolor="#ffffff"
     id="base"
     showgrid="true"
     showguides="true"
     inkscape:guide-bbox="true"
     inkscape:zoom="0.32102648"
     inkscape:cx="950.09926"
     inkscape:cy="877.57677"
     inkscape:window-x="-2"
     inkscape:window-y="-3"
     inkscape:current-layer="layer1"
     inkscape:window-maximized="1"
     inkscape:snap-grids="false">
    <sodipodi:guide
       orientation="horizontal"
       position="0,600"
       id="guide5596" />
    <inkscape:grid
       type="xygrid"
       id="grid3769"
       empspacing="3"
       visible="true"
       enabled="true"
       snapvisiblegridlinesonly="true"
       spacingx="4px"
       units="px"
       dotted="true"
       spacingy="4px" />
    <sodipodi:guide
       orientation="0,1"
       position="-1040,1600"
       id="guide2985" />
  </sodipodi:namedview>
  <metadata
     id="metadata5594">
    <rdf:RDF>
      <cc:Work
         rdf:about="">
        <dc:format>image/svg+xml</dc:format>
        <dc:type
           rdf:resource="http://purl.org/dc/dcmitype/StillImage" />
        <dc:title />
      </cc:Work>
    </rdf:RDF>
  </metadata>
  <g
     inkscape:label="Layer 1"
     inkscape:groupmode="layer"
     id="layer1"
     transform="translate(0,1048)">
    <path
       style="color:#000000;font-style:normal;font-variant:normal;font-weight:normal;font-stretch:normal;font-size:medium;line-height:normal;font-family:sans-serif;text-indent:0;text-align:start;text-decoration:none;text-decoration-line:none;text-decoration-style:solid;text-decoration-color:#000000;letter-spacing:normal;word-spacing:normal;text-transform:none;direction:ltr;block-progression:tb;writing-mode:lr-tb;baseline-shift:baseline;text-anchor:start;white-space:normal;clip-rule:nonzero;display:inline;overflow:visible;visibility:visible;opacity:1;isolation:auto;mix-blend-mode:normal;color-interpolation:sRGB;color-interpolation-filters:linearRGB;solid-color:#000000;solid-opacity:1;fill:#000000;fill-opacity:1;fill-rule:evenodd;stroke:none;stroke-width:140;stroke-linecap:round;stroke-linejoin:round;stroke-miterlimit:4;stroke-dasharray:none;stroke-dashoffset:0;stroke-opacity:1;color-rendering:auto;image-rendering:auto;shape-rendering:auto;text-rendering:auto;enable-background:accumulate"
       d="m 1151.0293,-614.14648 c -89.2392,-0.9827 -177.48119,27.34714 -249.33594,81.08984 -76.6951,57.36299 -131.20413,141.14886 -151.91016,234.97461 -17.49553,79.27797 -10.00231,153.97027 -5.79297,219.773436 4.18799,65.469143 4.87095,124.939272 -10.86523,172.931641 -10.99902,33.544923 -31.01509,65.205023 -56.95898,90.664063 -26.00637,25.52035 -58.6003,45.58557 -93.88868,58.24414 -70.39888,25.25335 -154.07131,20.88283 -227.26172,-8.29492 -66.75858,-26.61368 -126.32631,-73.44028 -167.44531,-132 C 146.47633,44.712234 122.81489,-27.111524 121.47852,-98.296875 119.74799,-190.4773 156.65258,-285.18305 220.29883,-351.88672 283.94508,-418.59039 376.81442,-459.895 468.97461,-462.48828 a 70.007,70.007 0 1 0 -3.9375,-139.94336 c -130.3184,3.667 -256.02885,59.57662 -346.02734,153.89844 -89.998493,94.32181 -139.952893,222.51626 -137.505864,352.863278 1.876754,99.9698773 34.211717,197.786032 91.490235,279.359372 57.253479,81.5377 137.921059,144.81513 230.177739,181.59375 102.13451,40.71649 219.11715,48.50336 326.37695,10.02735 53.54097,-19.20611 103.32293,-49.5215 144.67383,-90.09961 41.41338,-40.63943 73.52941,-90.8395 91.93359,-146.96875 26.01134,-79.329652 21.91269,-157.23912 17.54687,-225.488284 -4.34443,-67.915126 -8.58872,-129.100686 2.79102,-180.666016 13.1982,-59.80533 49.75898,-116.16611 99.05078,-153.0332 49.34188,-36.90456 113.82298,-56.22279 175.65628,-52.82422 43.7517,2.40474 87.4442,15.88248 124.7988,38.55078 37.32,22.64728 69.66,55.33616 93.0547,93.38867 23.4335,38.11568 38.8935,83.08376 46.9883,130.4707 8.1069,47.45816 9.0779,99.28724 9.375,154.339849 l 2.1015,389.349611 a 70.007,70.007 0 0 0 139.9981,-0.0762 l 1.6933,-393.859379 a 70.007,70.007 0 0 0 -0.4824,-8.509765 c -12.176,-103.108726 25.4896,-214.375666 97.793,-288.886716 72.3032,-74.51104 182.3862,-115.50567 285.8144,-106.43555 95.811,8.40213 189.9565,58.60182 255.4668,132.50391 12.6769,14.3008 24.3692,29.54761 35.0879,45.54297 -29.0328,-0.35714 -58.188,1.99294 -87.041,7.40039 -102.3393,19.17975 -196.4652,75.07812 -260.6465,158.5332 -56.455,73.40877 -88.5654,167.631508 -77.3847,264.21094 5.5799,48.19969 21.8715,95.35962 49.2148,136.91601 27.4094,41.65654 65.2027,76.47158 110.791,99.50977 65.9533,33.32968 140.9601,38.48921 209.7246,20.36523 68.2791,-17.99598 127.2593,-57.69299 171.7696,-108.77344 44.2921,-50.83022 73.342,-111.43952 89.2851,-173.93945 14.5861,-57.179933 18.1148,-115.3078096 14.4492,-171.714842 29.8786,28.697522 54.9842,62.7956534 73.3106,99.982421 32.1595,65.256281 44.711,141.534841 36.5683,215.033201 -7.8973,71.28499 -35.1824,141.11721 -77.705,198.87305 -42.5227,57.75586 -101.1023,104.54952 -166.8262,133.25976 -65.7241,28.71026 -139.8608,39.89233 -211.1289,31.84376 -71.2681,-8.04858 -141.0435,-35.48382 -198.709,-78.12891 a 70.007,70.007 0 1 0 -83.2422,112.56445 c 77.7765,57.51761 170.1173,93.82416 266.2402,104.67969 96.123,10.85552 194.2356,-3.94307 282.8809,-42.66602 88.6453,-38.72297 166.1709,-100.64859 223.5234,-178.54687 57.3526,-77.8983 93.4637,-170.3172 104.1153,-266.46289 11.0066,-99.34942 -5.4229,-201.601222 -50.1387,-292.335939 -44.7915,-90.888101 -117.0332,-167.737791 -207.4453,-216.052731 -11.3485,-6.0645 -22.9396,-11.64878 -34.7324,-16.74219 -25.1832,-63.96258 -60.8742,-123.96171 -107.1973,-176.21875 -88.3217,-99.63553 -212.7933,-167.24463 -348,-179.10156 -147.2084,-12.90942 -295.609,42.35339 -398.5176,148.40429 -22.3185,23.00001 -42.024,48.16574 -59.2754,74.81836 -5.6922,-11.3268 -11.7317,-22.53373 -18.457,-33.47265 -34.6617,-56.37879 -82.2392,-104.89315 -139.6855,-139.75391 -57.4116,-34.83972 -122.8145,-54.97355 -189.7461,-58.65234 -5.9536,-0.32723 -11.9062,-0.52238 -17.8555,-0.58789 z m 1093.1387,466.75976 c 24.8465,-0.1826 49.8894,2.67972 74.3418,8.2832 6.8406,26.66421 11.595,53.916672 14.0136,81.349614 4.2511,48.2161404 1.6549,95.954757 -9.5761,139.982422 -11.1831,43.839744 -31.3744,84.658664 -59.1797,116.568364 -27.5873,31.65949 -64.0565,55.39725 -101.8985,65.37109 -37.3562,9.84584 -78.9054,6.22926 -110.9003,-9.93945 -22.3325,-11.28578 -42.5595,-29.59667 -56.9805,-51.51368 -14.4869,-22.01717 -23.928,-48.66407 -27.0996,-76.06054 -6.3224,-54.612921 12.9605,-115.522918 49.291,-162.763675 41.8351,-54.398397 106.8689,-93.422655 175.459,-106.277345 17.2051,-3.22446 34.8143,-4.86981 52.5293,-5 z"
       id="path4370-92-6-1-7-4"
       inkscape:connector-curvature="0" />
    <path
       style="fill:none;fill-rule:evenodd;stroke:#000000;stroke-width:140;stroke-linecap:round;stroke-linejoin:round;stroke-miterlimit:4;stroke-dasharray:none;stroke-opacity:1"
       d="m 1978.9036,2267.3772 c 67.721,50.0813 148.7793,81.9516 232.4748,91.4036 83.6955,9.4521 169.8201,-3.5376 247.0047,-37.2542 77.1846,-33.7166 145.2374,-88.0763 195.175,-155.9034 49.9376,-67.8271 81.6358,-148.9529 90.9103,-232.6682 9.5746,-86.4239 -4.9154,-175.6889 -43.3531,-253.6844 -38.4378,-77.9955 -100.9595,-144.277 -177.6489,-185.2588 -76.6893,-40.9817 -167.2946,-56.103 -252.7592,-40.0858 -85.4647,16.0172 -165.0452,63.4781 -218.0534,132.4048 -46.3928,60.3248 -72.0899,137.8918 -63.3384,213.4879 4.3758,37.7981 17.2428,74.7012 38.1579,106.488 20.9152,31.7868 49.9243,58.3489 83.8847,75.5109 48.9741,24.7492 107.2529,29.1371 160.3133,15.1522 53.0605,-13.9849 100.7847,-45.701 136.8335,-87.0709 36.0488,-41.37 60.67,-92.0844 74.2331,-145.2542 13.5631,-53.1699 16.2973,-108.7714 11.4781,-163.4319 -10.1835,-115.5041 -55.1535,-228.6966 -132.0695,-315.4654 -76.9159,-86.7688 -186.2235,-145.6739 -301.7323,-155.8034 -125.3183,-10.9898 -254.5612,37.1392 -342.1671,127.4201 -87.6059,90.281 -131.827,220.9126 -117.074,345.8438 l -1.6923,393.859 -2.1014,-389.3498 c -0.2991,-55.4244 -1.0412,-111.1147 -10.3739,-165.7485 -9.3327,-54.6338 -27.3292,-108.13 -56.3574,-155.3457 -29.0282,-47.2156 -68.9864,-87.8171 -116.3696,-116.5711 -47.3831,-28.754 -101.9308,-45.5589 -157.2725,-48.6007 -78.5453,-4.3171 -158.4316,19.5478 -221.4251,66.6629 -62.99339,47.115 -108.52725,117.1879 -125.47936,194.0034 -14.43763,65.4216 -8.56949,133.3604 -4.2926,200.2196 4.2769,66.8591 6.66716,135.5482 -14.2066,199.2092 -14.7016,44.8371 -40.76778,85.7681 -74.44642,118.8174 -33.67864,33.0492 -74.8664,58.2392 -119.28107,74.1716 -88.82934,31.8647 -189.1553,25.7864 -276.81777,-9.1607 -79.50763,-31.6961 -149.62594,-86.7488 -198.81218,-156.7975 -49.18625,-70.0487 -77.18517,-154.869 -78.79173,-240.4466 -2.08877,-111.2637 41.34186,-222.7125 118.16423,-303.2253 76.82237,-80.5127 186.11239,-129.1209 297.35168,-132.251"
       id="path4370-92-6-1-7-4-3"
       inkscape:path-effect="#path-effect4372-52-4-6-8-1-8"
       inkscape:original-d="m 1978.9036,2267.3772 c 0,0 758.2379,-56.045 765.5648,-334.4222 6.7864,-257.8417 -530.7232,-371.1026 -691.8146,-346.6242 -131.7608,20.0215 -67.7828,353.5008 58.7042,395.4868 170.7875,56.691 378.8702,-200.6983 382.858,-380.6048 4.7315,-213.4575 -220.3104,-468.4574 -433.8018,-471.2688 -219.7993,-2.8946 -370.3466,247.5123 -459.2411,473.2639 l -1.6923,393.859 -2.1014,-389.3498 c 18.3609,-445.0172 -144.981,-455.1659 -340.3734,-486.266 -142.8431,-22.7361 -279.30036,132.7963 -346.90446,260.6663 -62.2967,117.8312 59.1959,291.1304 -18.4992,399.4288 -98.1599,136.8241 -309.38796,232.6597 -470.54526,183.8283 -154.6022,-46.8451 -289.87021,-236.1669 -277.60391,-397.2441 15.2347,-200.0567 415.51591,-435.4763 415.51591,-435.4763"
       inkscape:connector-curvature="0"
       sodipodi:nodetypes="casaaacccaaaaac" />
  </g>
</svg>
