<?xml version="1.0" encoding="UTF-8" standalone="no"?>
<!-- Created with Inkscape (http://www.inkscape.org/) -->

<svg
   xmlns:dc="http://purl.org/dc/elements/1.1/"
   xmlns:cc="http://creativecommons.org/ns#"
   xmlns:rdf="http://www.w3.org/1999/02/22-rdf-syntax-ns#"
   xmlns:svg="http://www.w3.org/2000/svg"
   xmlns="http://www.w3.org/2000/svg"
   xmlns:sodipodi="http://sodipodi.sourceforge.net/DTD/sodipodi-0.dtd"
   xmlns:inkscape="http://www.inkscape.org/namespaces/inkscape"
   width="2000"
   height="2048"
   id="svg2992"
   version="1.1"
   inkscape:version="0.91pre2 r13516"
   sodipodi:docname="ഗു.svg">
  <defs
     id="defs5498">
    <inkscape:path-effect
       effect="spiro"
       id="path-effect4504"
       is_visible="true" />
    <inkscape:path-effect
       effect="spiro"
       id="path-effect4504-9"
       is_visible="true" />
    <inkscape:path-effect
       effect="spiro"
       id="path-effect4504-9-7"
       is_visible="true" />
    <inkscape:path-effect
       effect="spiro"
       id="path-effect4504-9-7-7"
       is_visible="true" />
    <inkscape:path-effect
       effect="spiro"
       id="path-effect4504-9-7-7-5"
       is_visible="true" />
    <inkscape:path-effect
       is_visible="true"
       id="path-effect4294"
       effect="spiro" />
    <inkscape:path-effect
       is_visible="true"
       id="path-effect4294-8"
       effect="spiro" />
    <inkscape:path-effect
       is_visible="true"
       id="path-effect4504-9-4"
       effect="spiro" />
    <inkscape:path-effect
       is_visible="true"
       id="path-effect4504-9-4-6"
       effect="spiro" />
    <inkscape:path-effect
       is_visible="true"
       id="path-effect4504-9-4-6-9"
       effect="spiro" />
    <inkscape:path-effect
       effect="spiro"
       id="path-effect4504-4"
       is_visible="true" />
    <inkscape:path-effect
       effect="spiro"
       id="path-effect4504-9-2"
       is_visible="true" />
    <inkscape:path-effect
       effect="spiro"
       id="path-effect4504-9-7-4"
       is_visible="true" />
    <inkscape:path-effect
       effect="spiro"
       id="path-effect4504-9-7-7-4"
       is_visible="true" />
    <inkscape:path-effect
       effect="spiro"
       id="path-effect4504-9-7-7-5-3"
       is_visible="true" />
    <inkscape:path-effect
       is_visible="true"
       id="path-effect4294-6"
       effect="spiro" />
    <inkscape:path-effect
       is_visible="true"
       id="path-effect4294-8-5"
       effect="spiro" />
    <inkscape:path-effect
       is_visible="true"
       id="path-effect4504-9-4-5"
       effect="spiro" />
    <inkscape:path-effect
       is_visible="true"
       id="path-effect4504-9-4-6-4"
       effect="spiro" />
    <inkscape:path-effect
       is_visible="true"
       id="path-effect4504-9-4-6-4-3"
       effect="spiro" />
  </defs>
  <sodipodi:namedview
     inkscape:window-height="853"
     inkscape:window-width="1600"
     inkscape:pageshadow="2"
     inkscape:pageopacity="0.0"
     borderopacity="1.0"
     bordercolor="#666666"
     pagecolor="#ffffff"
     id="base"
     showgrid="true"
     showguides="false"
     inkscape:guide-bbox="true"
     inkscape:zoom="0.227"
     inkscape:cx="-76.634135"
     inkscape:cy="666.14624"
     inkscape:window-x="1598"
     inkscape:window-y="-3"
     inkscape:current-layer="layer1-9-8"
     inkscape:window-maximized="1">
    <sodipodi:guide
       orientation="horizontal"
       position="0,600"
       id="guide5596" />
    <inkscape:grid
       type="xygrid"
       id="grid3769"
       empspacing="3"
       visible="true"
       enabled="true"
       snapvisiblegridlinesonly="true"
       spacingx="4px"
       units="px"
       dotted="true"
       spacingy="4px" />
    <sodipodi:guide
       orientation="0,1"
       position="-1040,1600"
       id="guide2985" />
  </sodipodi:namedview>
  <metadata
     id="metadata5594">
    <rdf:RDF>
      <cc:Work
         rdf:about="">
        <dc:format>image/svg+xml</dc:format>
        <dc:type
           rdf:resource="http://purl.org/dc/dcmitype/StillImage" />
        <dc:title />
      </cc:Work>
    </rdf:RDF>
  </metadata>
  <g
     inkscape:label="Layer 1"
     inkscape:groupmode="layer"
     id="layer1"
     transform="translate(0,1048)">
    <g
       id="layer1-5"
       inkscape:label="Layer 1"
       transform="translate(11.368149,11.200962)">
      <g
         transform="translate(-2004.6881,18.963522)"
         id="layer1-59"
         inkscape:label="Layer 1">
        <g
           transform="translate(-1168.8033,138.69548)"
           inkscape:label="Layer 1"
           id="layer1-9">
          <g
             transform="translate(664.47207,-559.54113)"
             id="layer1-0"
             inkscape:label="Layer 1">
            <g
               transform="translate(-1168.8033,138.69548)"
               inkscape:label="Layer 1"
               id="layer1-9-8">
              <path
                 style="color:#000000;font-style:normal;font-variant:normal;font-weight:normal;font-stretch:normal;font-size:medium;line-height:normal;font-family:sans-serif;text-indent:0;text-align:start;text-decoration:none;text-decoration-line:none;text-decoration-style:solid;text-decoration-color:#000000;letter-spacing:normal;word-spacing:normal;text-transform:none;direction:ltr;block-progression:tb;writing-mode:lr-tb;baseline-shift:baseline;text-anchor:start;clip-rule:nonzero;display:inline;overflow:visible;visibility:visible;opacity:1;isolation:auto;mix-blend-mode:normal;color-interpolation:sRGB;color-interpolation-filters:linearRGB;solid-color:#000000;solid-opacity:1;fill:#000000;fill-opacity:1;fill-rule:evenodd;stroke:none;stroke-width:140;stroke-linecap:round;stroke-linejoin:round;stroke-miterlimit:4;stroke-dasharray:none;stroke-dashoffset:0;stroke-opacity:1;color-rendering:auto;image-rendering:auto;shape-rendering:auto;text-rendering:auto;enable-background:accumulate"
                 d="m 5071.7227,-362.06641 c -7.5609,0.17461 -15.1108,0.5614 -22.6348,1.15821 -60.0608,4.76402 -117.5838,22.66525 -169.4609,49.82812 -103.6586,54.27563 -181.1016,142.91027 -234.5176,239.556642 -66.3763,120.095585 -96.0036,245.499448 -143.086,351.484378 -23.5058,52.91259 -51.2721,101.609 -85.8652,141.29297 -34.3517,39.40703 -76.4906,70.28597 -121.168,85.42382 -37.7982,12.80703 -80.3399,15.30642 -120.6543,7.49219 -40.4258,-7.83583 -79.8573,-26.11887 -113.3593,-52.01367 -66.8341,-51.65828 -111.4026,-136.25969 -123.3106,-224.31641 -14.2373,-105.28167 16.8638,-218.540665 82.8711,-301.787106 66.0073,-83.246424 169.1961,-139.348394 274.9512,-149.486324 a 70.007,70.007 0 1 0 -13.3594,-139.36133 c -145.0319,13.9031 -280.7691,87.70162 -371.291,201.86523 -90.5219,114.163602 -131.4331,263.14869 -111.9082,407.53125 16.4164,121.39594 76.0351,238.72594 176.4297,316.32422 50.1124,38.73348 109.0131,66.41154 172.3359,78.68555 63.4342,12.29561 129.9287,8.76828 192.2207,-12.33789 73.3215,-24.84323 134.2601,-71.51749 181.7754,-126.02539 47.2736,-54.23057 81.201,-115.5055 108.2754,-176.45117 54.0782,-121.73285 83.5163,-242.609658 137.6738,-340.5976612 43.0806,-77.9462968 103.8611,-144.9962188 176.9278,-183.2539088 36.4854,-19.10377 76.2206,-31.16824 115.5898,-34.29101 39.238,-3.11235 79.0333,2.7612 113.7695,17.3789 36.852,15.50803 70.8169,42.05207 97.5391,75.01758 26.8425,33.11403 47.1632,73.251947 60.4512,116.367189 26.658,86.496339 25.2082,184.805331 11.373,284.246091 -9.0641,65.14814 -22.8446,127.41526 -46.4277,183.05664 -23.4377,55.29816 -57.6323,105.31154 -100.584,143.12696 -42.7983,37.68037 -96.511,64.80047 -153.6973,79.26757 -57.2773,14.49015 -121.5835,16.95956 -190.0449,17.85352 l -698.6328,9.12305 c -59.3658,0.77519 -129.1988,0.81321 -199.6445,29.75781 -35.4085,14.54856 -69.4568,36.22426 -97.4668,66.74219 -28.1958,30.72045 -48.6989,68.88099 -56.9961,111.65429 -8.3295,42.9391 -3.6593,87.30886 13.7851,127.67381 17.415,40.2967 46.0929,73.272 80.8828,96.9512 34.5673,23.5277 72.6272,36.333 109.5411,42.6035 36.7261,6.2387 70.439,5.9694 100.2011,5.8281 l 1326.8614,-6.2988 a 70.007,70.007 0 1 0 -0.6661,-139.998 l -1326.8593,6.2988 c -29.1693,0.1385 -54.7162,-0.2228 -76.0899,-3.8535 a 70.007,70.007 0 0 0 -0,0 c -21.1862,-3.5989 -40.06,-10.6828 -54.211,-20.3145 -13.9281,-9.4799 -25.1807,-22.95612 -31.1445,-36.75584 -5.9343,-13.73149 -7.7545,-30.56002 -4.8613,-45.47461 2.9253,-15.08036 11.0479,-30.95179 22.7011,-43.64844 11.8392,-12.89915 28.4295,-24.06556 47.5313,-31.91406 38.5747,-15.8495 89.7772,-18.49994 148.2656,-19.26367 l 698.6328,-9.12305 c 70.0533,-0.91474 145.5345,-2.63293 222.5528,-22.11719 77.1093,-19.50729 150.7012,-56.05559 211.875,-109.91406 61.0204,-53.72342 106.3502,-121.3272 136.9707,-193.57226 30.475,-71.90187 46.1661,-146.34176 56.1914,-218.39844 15.3216,-110.12408 19.4111,-229.069602 -16.2481,-344.771486 -17.8704,-57.983874 -45.7071,-114.222704 -85.4824,-163.291014 -39.8957,-49.21683 -91.3366,-90.3745 -151.9941,-115.90039 -50.0479,-21.06113 -103.5819,-30.28086 -156.5078,-29.0586 z"
                 id="path4502-2-1-0-0"
                 inkscape:connector-curvature="0" />
              <path
                 sodipodi:nodetypes="cssssssssc"
                 inkscape:connector-curvature="0"
                 inkscape:original-d="m 4419.2394,1580.604 c -66.2368,27.9462 -602.0563,196.7497 -420.5096,530.3343 181.5479,333.5843 192.7702,900.6624 449.155,325.7553 256.3847,-574.9076 -259.2751,-1032.2445 388.9221,-610.6373 149.1768,97.0291 377.4017,-318.2912 494.7045,-230.8254 170.541,127.1624 219.9813,385.8618 211.543,549.7967 -9.8951,192.2367 -355.4582,480.9939 -559.171,483.6539 l -698.6337,9.1227 c -38.9238,0.5083 -335.7878,342.5708 -50.9431,341.2183 l 1326.8603,-6.3"
                 inkscape:path-effect="#path-effect4504-9-4-6-4-3"
                 id="path4502-2-1-0-0-6"
                 d="m 4419.2394,1580.604 c -125.3935,12.0205 -244.8552,76.9699 -323.1198,175.6749 -78.2646,98.705 -114.2709,229.8273 -97.3898,354.6594 14.1622,104.7263 66.2557,205.6932 149.87,270.3215 41.8072,32.3141 90.9728,55.294 142.8471,65.3489 51.8743,10.0549 106.3927,7.0415 156.4379,-9.9151 58.9994,-19.9905 110.5384,-58.7662 151.4719,-105.7237 40.9335,-46.9575 71.7796,-101.9437 97.0698,-158.8732 50.5803,-113.8589 80.1135,-236.9986 140.3804,-346.0404 48.2483,-87.2963 117.3604,-165.139 205.723,-211.4057 44.1813,-23.1333 92.8102,-38.1163 142.5252,-42.0597 49.7151,-3.9434 100.4894,3.2962 146.4563,22.64 48.7548,20.517 91.4568,54.3677 124.7658,95.4588 33.3089,41.0912 57.3874,89.2794 72.9666,139.829 31.1586,101.0991 28.389,209.7265 13.8106,314.5089 -9.5447,68.6024 -24.2808,136.9553 -51.3099,200.7269 -27.0291,63.7716 -66.7906,122.5809 -118.7767,168.3503 -51.986,45.7695 -115.6387,77.6038 -182.7865,94.591 -67.1478,16.9872 -137.0406,19.0813 -206.2979,19.9857 l -698.6337,9.1227 c -58.9271,0.7695 -119.4449,2.1138 -173.9552,24.5108 -27.2551,11.1986 -52.5742,27.6189 -72.4987,49.3274 -19.9246,21.7086 -34.2372,48.7251 -39.8485,77.652 -5.6112,28.9268 -2.3664,59.5253 9.3231,86.5735 11.6894,27.0483 31.6548,50.2749 56.0139,66.8545 24.359,16.5797 52.8266,26.5241 81.8765,31.4588 29.0499,4.9347 58.6801,4.9812 88.1458,4.8413 l 1326.8603,-6.3"
                 style="fill:none;fill-rule:evenodd;stroke:#000000;stroke-width:140;stroke-linecap:round;stroke-linejoin:round;stroke-miterlimit:4;stroke-dasharray:none;stroke-opacity:1" />
            </g>
          </g>
        </g>
      </g>
    </g>
  </g>
</svg>
