<?xml version="1.0" encoding="UTF-8" standalone="no"?>
<!-- Created with Inkscape (http://www.inkscape.org/) -->

<svg
   xmlns:dc="http://purl.org/dc/elements/1.1/"
   xmlns:cc="http://creativecommons.org/ns#"
   xmlns:rdf="http://www.w3.org/1999/02/22-rdf-syntax-ns#"
   xmlns:svg="http://www.w3.org/2000/svg"
   xmlns="http://www.w3.org/2000/svg"
   xmlns:sodipodi="http://sodipodi.sourceforge.net/DTD/sodipodi-0.dtd"
   xmlns:inkscape="http://www.inkscape.org/namespaces/inkscape"
   width="2000"
   height="2048"
   id="svg2992"
   version="1.1"
   inkscape:version="0.91 r13725"
   sodipodi:docname="ഗ്നു.svg">
  <defs
     id="defs5498">
    <inkscape:path-effect
       effect="spiro"
       id="path-effect4372-52-4-6-8"
       is_visible="true" />
    <inkscape:path-effect
       effect="spiro"
       id="path-effect4372-52-4-6-8-1"
       is_visible="true" />
    <inkscape:path-effect
       effect="spiro"
       id="path-effect4372-52-4-6-8-1-7"
       is_visible="true" />
    <inkscape:path-effect
       effect="spiro"
       id="path-effect4372-52-4-6-8-1-9"
       is_visible="true" />
    <inkscape:path-effect
       effect="spiro"
       id="path-effect4372-52-4-6-8-7-9-3-6"
       is_visible="true" />
    <inkscape:path-effect
       effect="spiro"
       id="path-effect4372-52-4-6-8-7-9-3-6-6"
       is_visible="true" />
    <inkscape:path-effect
       effect="spiro"
       id="path-effect4372-52-4-6-8-7-9-3-6-6-2"
       is_visible="true" />
    <inkscape:path-effect
       effect="spiro"
       id="path-effect4372-52-4-6-8-7-9-3-6-6-9"
       is_visible="true" />
    <inkscape:path-effect
       effect="spiro"
       id="path-effect4372-52-4-6-8-7-9-3-6-6-1"
       is_visible="true" />
  </defs>
  <sodipodi:namedview
     inkscape:window-height="704"
     inkscape:window-width="1366"
     inkscape:pageshadow="2"
     inkscape:pageopacity="0.0"
     borderopacity="1.0"
     bordercolor="#666666"
     pagecolor="#ffffff"
     id="base"
     showgrid="true"
     showguides="true"
     inkscape:guide-bbox="true"
     inkscape:zoom="0.227"
     inkscape:cx="-1903.5973"
     inkscape:cy="-105.51892"
     inkscape:window-x="-4"
     inkscape:window-y="0"
     inkscape:current-layer="layer1"
     inkscape:window-maximized="1">
    <sodipodi:guide
       orientation="horizontal"
       position="0,600"
       id="guide5596" />
    <inkscape:grid
       type="xygrid"
       id="grid3769"
       empspacing="3"
       visible="true"
       enabled="true"
       snapvisiblegridlinesonly="true"
       spacingx="4px"
       units="px"
       dotted="true"
       spacingy="4px" />
    <sodipodi:guide
       orientation="0,1"
       position="-1040,1600"
       id="guide2985" />
  </sodipodi:namedview>
  <metadata
     id="metadata5594">
    <rdf:RDF>
      <cc:Work
         rdf:about="">
        <dc:format>image/svg+xml</dc:format>
        <dc:type
           rdf:resource="http://purl.org/dc/dcmitype/StillImage" />
        <dc:title />
      </cc:Work>
    </rdf:RDF>
  </metadata>
  <g
     inkscape:label="Layer 1"
     inkscape:groupmode="layer"
     id="layer1"
     transform="translate(0,1048)">
    <path
       style="fill:none;fill-rule:evenodd;stroke:#000000;stroke-width:70;stroke-linecap:round;stroke-linejoin:round;stroke-miterlimit:4;stroke-dasharray:none;stroke-opacity:1"
       d="m -1144.4478,193.99499 c 11.884,-58.97421 0.5937,-122.302317 -30.9385,-173.536174 -31.5322,-51.233857 -82.9815,-89.845871 -140.9851,-105.807378 -58.0036,-15.961508 -121.9641,-9.108139 -175.2692,18.780083 -53.3051,27.888223 -95.4058,76.5241162 -115.3674,133.275522 -21.2887,60.524617 -16.9154,129.859487 12.9203,186.659767 29.8357,56.80028 84.9681,99.97893 147.5474,114.1307 52.3636,11.84159 108.4688,3.58055 156.7735,-19.84668 48.3046,-23.42722 88.8843,-61.48732 118.3202,-106.3839 58.8718,-89.79317 72.2611,-202.884033 62.3674,-309.79902 -10.3948,-112.32977 -45.6383,-223.84488 -112.0783,-315.01373 -66.44,-91.16885 -165.6401,-160.54617 -276.7412,-180.1057 -64.2022,-11.30291 -131.4643,-5.77567 -192.4876,17.15544 -61.0233,22.9311 -115.2735,63.27026 -155.3942,114.65134 -40.1206,51.38109 -65.7911,113.17905 -78.8782,177.04148 -13.0871,63.86242 -13.7556,129.53078 -13.7092,194.720339 l 0.3085,433.818151 -0.1021,-433.308717 c -0.025,-105.639193 -0.8017,-214.240453 -40.027,-312.327203 -19.6127,-49.04338 -48.9188,-94.73822 -88.5348,-129.67354 -39.6161,-34.93532 -89.8931,-58.65281 -142.5672,-62.57044 -36.9248,-2.74627 -74.4177,4.2355 -108.2721,19.2308 -33.8544,14.99531 -64.0596,37.90921 -88.3477,65.8568 -48.5762,55.89518 -72.4156,131.01464 -72.2061,205.06784 0.1827,64.58319 17.5281,127.69046 32.2125,190.582353 14.6844,62.891893 26.8575,128.001129 16.5961,191.764167 -7.8321,48.66755 -28.7942,94.99366 -59.1424,133.83768 -30.3482,38.84401 -69.9433,70.22588 -114.1112,92.11348 -88.3358,43.77518 -193.3022,48.48338 -288.4128,22.53228 -104.5882,-28.53706 -198.9069,-93.64699 -262.2108,-181.65645 -63.3039,-88.009462 -95.0478,-198.345168 -87.6295,-306.50253 7.6993,-112.25344 57.6852,-221.1027 137.8108,-300.09638 80.1256,-78.99369 189.675,-127.42605 302.0266,-133.52756"
       id="path4370-92-6-1-7-5-7-8-2"
       inkscape:path-effect="#path-effect4372-52-4-6-8-7-9-3-6-6"
       inkscape:original-d="m -1144.4478,193.99499 c 77.1877,3.81524 -362.6437,-252.080767 -462.5602,-127.287947 -71.033,88.718167 47.1765,291.227407 160.4677,300.790467 183.2075,15.46478 324.2394,-308.874131 337.4611,-436.0296 21.0508,-202.44927 -178.9643,-489.56721 -388.8195,-495.11943 -223.0093,-5.90023 -443.3055,451.21093 -440.4692,503.568599 l 0.3085,433.818151 -0.1021,-433.308717 c -4.6589,-118.027793 -81.4107,-480.399173 -271.129,-504.571183 -130.9415,-16.68329 -228.5898,164.70724 -268.8259,290.15544 -39.2471,122.36476 107.6625,268.0746024 48.8086,382.34652 -79.9206,155.17545 -291.3289,287.8622 -461.6664,248.48344 -195.307,-45.1512 -366.9243,-288.844041 -349.8403,-488.15898 17.5633,-204.90608 283.1348,-322.59627 439.8374,-433.62394"
       inkscape:connector-curvature="0"
       sodipodi:nodetypes="caasacccaaaaac" />
    <path
       style="fill:none;fill-rule:evenodd;stroke:#000000;stroke-width:140;stroke-linecap:round;stroke-linejoin:round;stroke-miterlimit:4;stroke-dasharray:none;stroke-opacity:1"
       d="m 2152.8699,191.03181 c 12.3092,-59.99116 0.9858,-124.506579 -31.0169,-176.720372 -32.0028,-52.213793 -84.3524,-91.583506 -143.3959,-107.841354 -59.0435,-16.257844 -124.1675,-9.234934 -178.3874,19.237151 -54.2199,28.472081 -96.9724,78.0975247 -117.1074,135.933811 -21.4085,61.494194 -16.7769,131.811674 13.5249,189.445524 30.3017,57.63385 86.0803,101.52047 149.4917,116.31404 53.3766,12.45249 110.717,4.50293 160.2134,-19.03902 49.4964,-23.54194 91.2063,-62.14353 121.4018,-107.88576 60.3911,-91.48445 73.6701,-207.399255 61.2062,-316.308084 -12.6299,-110.359526 -50.8322,-219.070946 -118.7443,-306.972556 -67.9121,-87.90162 -166.7498,-153.66739 -276.2513,-172.32629 -65.2591,-11.12006 -133.5108,-5.34176 -195.4573,18.00437 -61.9465,23.34612 -117.0444,64.27543 -157.8241,116.42354 -40.7797,52.1481 -66.9052,114.88098 -80.2275,179.72639 -13.3222,64.84541 -14.0057,131.53354 -13.9567,197.733296 l 0.3134,422.984884 -0.1037,-422.467034 c -0.026,-107.366786 -0.8017,-217.739816 -40.6293,-317.446326 -19.9138,-49.85325 -49.6769,-96.30974 -89.9265,-131.83264 -40.2495,-35.52291 -91.3444,-59.64564 -144.8799,-63.62778 -37.5248,-2.79121 -75.62707,4.31128 -110.02719,19.56033 -34.40012,15.24905 -65.08733,38.54783 -89.75829,66.9599 -49.34193,56.82412 -73.53384,133.172 -73.31039,208.42861 0.19492,65.64938 17.82233,129.79824 32.74104,193.730327 14.9187,63.932086 27.28037,130.117967 16.84276,194.932593 -7.96247,49.4447 -29.25437,96.51158 -60.07931,135.98311 -30.82495,39.47154 -71.04182,71.36775 -115.90776,93.62145 -89.73187,44.50741 -196.37744,49.33525 -293.01243,22.98386 C 272.2979,351.57985 176.44553,285.37358 112.14112,195.89898 47.836711,106.42438 15.629796,-5.7311781 23.20433,-115.65564 c 7.858895,-114.05122 58.641461,-224.63457 140.02695,-304.92059 81.38549,-80.28602 192.6493,-129.55988 306.79685,-135.86687"
       id="path4370-92-6-1-7-5-7-8-2-7"
       inkscape:path-effect="#path-effect4372-52-4-6-8-7-9-3-6-6-2"
       inkscape:original-d="m 2152.8699,191.03181 c 78.4137,3.87827 -368.404,-256.245174 -469.9076,-129.390764 -72.1613,90.183804 47.9259,296.038524 163.0166,305.759564 186.1176,15.72026 329.3897,-313.976774 342.8214,-443.232864 C 2210.1854,-281.626 2001.0046,-552.1241 1793.8047,-555.1311 c -226.8077,-3.2917 -450.347,458.664976 -447.4656,511.887596 l 0.3134,422.984884 -0.1037,-422.467034 c -4.733,-119.977616 -82.7039,-488.335416 -275.4357,-512.906746 -133.02137,-16.9589 -232.22067,167.42822 -273.09587,294.94884 -39.8705,124.38624 109.3726,272.503216 49.5838,388.66292 -81.19,157.73897 -295.9564,292.61774 -468.9995,252.58842 C 180.19223,334.67067 5.8489302,86.951996 23.20433,-115.65564 c 17.8423,-208.29115 287.6321,-327.9256 446.8238,-440.78746"
       inkscape:connector-curvature="0"
       sodipodi:nodetypes="caasacccaaaaac" />
    <path
       style="color:#000000;font-style:normal;font-variant:normal;font-weight:normal;font-stretch:normal;font-size:medium;line-height:normal;font-family:sans-serif;text-indent:0;text-align:start;text-decoration:none;text-decoration-line:none;text-decoration-style:solid;text-decoration-color:#000000;letter-spacing:normal;word-spacing:normal;text-transform:none;direction:ltr;block-progression:tb;writing-mode:lr-tb;baseline-shift:baseline;text-anchor:start;white-space:normal;clip-rule:nonzero;display:inline;overflow:visible;visibility:visible;opacity:1;isolation:auto;mix-blend-mode:normal;color-interpolation:sRGB;color-interpolation-filters:linearRGB;solid-color:#000000;solid-opacity:1;fill:#000000;fill-opacity:1;fill-rule:evenodd;stroke:none;stroke-width:70;stroke-linecap:round;stroke-linejoin:round;stroke-miterlimit:4;stroke-dasharray:none;stroke-dashoffset:0;stroke-opacity:1;color-rendering:auto;image-rendering:auto;shape-rendering:auto;text-rendering:auto;enable-background:accumulate"
       d="m -1331.6914,691.75391 c -44.5636,0.94977 -88.9951,9.19969 -131.0059,24.98632 -67.2814,25.28277 -126.5989,69.43498 -170.6699,125.875 -25.0642,32.09892 -44.6111,67.63413 -59.5312,104.83985 -3.7835,-12.19056 -7.9822,-24.32177 -12.793,-36.35156 -21.293,-53.24509 -53.3337,-103.64213 -97.8828,-142.92774 -44.7401,-39.45385 -101.6701,-66.6542 -163.1211,-71.22461 -43.0479,-3.20167 -86.1159,4.89151 -125.041,22.13281 -38.8776,17.22026 -73.0926,43.25788 -100.5918,74.9004 -55.0417,63.33478 -81.02,146.49339 -80.7891,228.12502 0.2003,70.7853 18.6553,136.444 33.1309,198.4414 14.4421,61.854 25.1007,122.4601 16.123,178.2461 -6.8291,42.4354 -25.3177,83.4827 -52.1679,117.8496 -26.8859,34.4123 -62.3717,62.6279 -102.0704,82.3008 -79.3465,39.3205 -175.8954,44.0737 -263.6601,20.1269 -96.7007,-26.385 -184.5507,-87.0543 -243.0098,-168.3281 -58.4454,-81.2551 -87.9657,-183.9341 -81.125,-283.6699 7.0973,-103.477 53.6038,-204.74874 127.4649,-277.56643 73.8611,-72.8177 175.784,-117.87944 279.3515,-123.50391 a 35.0035,35.0035 0 1 0 -3.7949,-69.89648 c -121.1356,6.57854 -238.3111,58.38302 -324.7012,143.55273 -86.3901,85.1697 -139.8551,201.59519 -148.1562,322.62499 -7.9959,116.5787 25.9726,234.5701 94.1347,329.334 68.1488,94.745 168.9347,164.2952 281.4102,194.9844 102.4565,27.9554 215.841,23.2923 313.166,-24.9375 48.6371,-24.1024 92.3418,-58.6502 126.1524,-101.9258 33.8461,-43.3212 57.2821,-94.9247 66.1171,-149.8242 11.5452,-71.74 -2.1415,-141.3535 -17.0683,-205.2832 -14.8933,-63.7863 -31.1317,-124.3417 -31.2969,-182.7227 -0.188,-66.4748 21.5143,-133.55416 63.625,-182.00976 21.077,-24.25268 47.2723,-44.04409 76.1035,-56.81445 28.7837,-12.74931 60.7003,-18.61899 91.502,-16.32812 43.8972,3.26484 87.5215,23.49922 122.0137,53.91601 34.6828,30.58506 61.255,71.57825 79.1875,116.41992 33.3393,83.3683 37.0486,178.7323 37.4394,276.1973 -0.028,7.5454 -0.1264,15.168 -0.1211,22.6484 l 0.3086,433.8027 0,0.016 a 35.0035,35.0035 0 0 0 70,-0.033 l 0,-0.016 0,-0.01 -0.1035,-433.2851 c -0,-8.166 -0.035,-16.4488 -0.057,-24.6973 0.2994,-56.425 2.1838,-111.4605 12.8477,-163.498 12.1715,-59.39473 35.9783,-116.168 72.1777,-162.52739 36.1705,-46.32216 85.354,-82.8483 140.1192,-103.42773 54.8294,-20.60359 115.9352,-25.69055 174.1074,-15.44922 100.6863,17.72599 192.8721,81.65215 254.5234,166.25 61.90898,84.95134 95.59191,190.40664 105.51371,297.62504 2.29657,24.8174 3.20922,49.8266 2.55274,74.6308 -1.38389,-2.4126 -2.74306,-4.8386 -4.20313,-7.2109 -36.32531,-59.0218 -94.68522,-102.8193 -161.50582,-121.2071 -66.8207,-18.3877 -139.3715,-10.6137 -200.7793,21.5137 -61.4079,32.1276 -109.1644,87.2957 -132.1602,152.6739 -24.5627,69.8327 -19.6806,148.6143 14.9531,214.5488 34.6944,66.0501 97.6078,115.4375 170.8125,131.9922 61.0256,13.8004 124.7933,4.1688 179.7657,-22.4922 54.7716,-26.5637 99.76829,-69.0392 132.31832,-118.6856 9.28732,-14.1653 17.40441,-28.824 24.66406,-43.8027 a 35.0035,35.0035 0 0 0 7.375,-15.7461 c 0.0201,-0.1 0.0327,-0.2008 0.0527,-0.3008 37.08249,-85.8002 44.21541,-182.0249 35.85546,-272.3652 C -845.09633,1106.8009 -881.90008,989.22615 -952.87109,891.83984 -1024.0998,794.1 -1130.3142,719.27197 -1251.8301,697.87891 c -26.337,-4.63669 -53.1232,-6.69487 -79.8613,-6.125 z m 188.9531,545.53709 c 19.3217,-0.3073 38.6351,2.0298 57.0801,7.1055 49.1865,13.5352 93.72581,46.9623 120.46484,90.4082 25.48952,41.4157 35.34596,93.1256 27.50195,141.1933 -6.6716,14.5987 -14.25589,28.7027 -23.02539,42.0782 -26.32176,40.1468 -62.4847,73.7912 -104.3223,94.082 -41.6371,20.1936 -90.0795,27.084 -133.7812,17.2012 -51.9539,-11.749 -99.3043,-48.7171 -124.2813,-96.2676 -25.0376,-47.6659 -28.9033,-107.555 -10.8886,-158.7715 16.9271,-48.1246 53.3719,-90.2279 98.5742,-113.8769 28.2513,-14.7806 60.4749,-22.6402 92.6777,-23.1524 z"
       id="path4370-92-6-1-7-5-7-8-2-1"
       inkscape:connector-curvature="0" />
  </g>
</svg>
