<?xml version="1.0" encoding="UTF-8" standalone="no"?>
<!-- Created with Inkscape (http://www.inkscape.org/) -->

<svg
   xmlns:dc="http://purl.org/dc/elements/1.1/"
   xmlns:cc="http://creativecommons.org/ns#"
   xmlns:rdf="http://www.w3.org/1999/02/22-rdf-syntax-ns#"
   xmlns:svg="http://www.w3.org/2000/svg"
   xmlns="http://www.w3.org/2000/svg"
   xmlns:sodipodi="http://sodipodi.sourceforge.net/DTD/sodipodi-0.dtd"
   xmlns:inkscape="http://www.inkscape.org/namespaces/inkscape"
   width="2000"
   height="2048"
   id="svg2992"
   version="1.1"
   inkscape:version="0.91 r13725"
   sodipodi:docname="ഗ്ദ്ധ.svg">
  <defs
     id="defs5498">
    <inkscape:path-effect
       effect="spiro"
       id="path-effect4147"
       is_visible="true" />
    <inkscape:path-effect
       effect="spiro"
       id="path-effect4140-6-7-6"
       is_visible="true" />
    <inkscape:path-effect
       effect="spiro"
       id="path-effect4147-3"
       is_visible="true" />
    <inkscape:path-effect
       effect="spiro"
       id="path-effect4147-0"
       is_visible="true" />
    <inkscape:path-effect
       effect="spiro"
       id="path-effect4147-0-9"
       is_visible="true" />
    <inkscape:path-effect
       effect="spiro"
       id="path-effect4147-4"
       is_visible="true" />
    <inkscape:path-effect
       effect="spiro"
       id="path-effect4147-0-95"
       is_visible="true" />
  </defs>
  <sodipodi:namedview
     inkscape:window-height="845"
     inkscape:window-width="1600"
     inkscape:pageshadow="2"
     inkscape:pageopacity="0.0"
     borderopacity="1.0"
     bordercolor="#666666"
     pagecolor="#ffffff"
     id="base"
     showgrid="true"
     showguides="true"
     inkscape:guide-bbox="true"
     inkscape:zoom="0.22627417"
     inkscape:cx="-1366.9914"
     inkscape:cy="-464.72804"
     inkscape:window-x="1600"
     inkscape:window-y="0"
     inkscape:current-layer="layer1"
     inkscape:window-maximized="1">
    <sodipodi:guide
       orientation="horizontal"
       position="0,600"
       id="guide5596" />
    <inkscape:grid
       type="xygrid"
       id="grid3769"
       empspacing="3"
       visible="true"
       enabled="true"
       snapvisiblegridlinesonly="true"
       spacingx="4px"
       units="px"
       dotted="true"
       spacingy="4px" />
    <sodipodi:guide
       orientation="0,1"
       position="-1536,1632"
       id="guide2985" />
    <sodipodi:guide
       position="5184,1710"
       orientation="0,1"
       id="guide4163"
       inkscape:label=""
       inkscape:color="rgb(0,0,255)" />
    <sodipodi:guide
       position="-1248,1624"
       orientation="0,1"
       id="guide4148"
       inkscape:label=""
       inkscape:color="rgb(0,0,255)" />
  </sodipodi:namedview>
  <metadata
     id="metadata5594">
    <rdf:RDF>
      <cc:Work
         rdf:about="">
        <dc:format>image/svg+xml</dc:format>
        <dc:type
           rdf:resource="http://purl.org/dc/dcmitype/StillImage" />
        <dc:title />
      </cc:Work>
    </rdf:RDF>
  </metadata>
  <g
     inkscape:label="Layer 1"
     inkscape:groupmode="layer"
     id="layer1"
     transform="translate(0,1048)">
    <path
       style="fill:none;fill-rule:evenodd;stroke:#000000;stroke-width:140;stroke-linecap:round;stroke-linejoin:round;stroke-miterlimit:4;stroke-dasharray:none;stroke-opacity:1"
       d="m 627.55545,-543.5049 c -76.4454,56.47684 -138.2549,132.59318 -177.83902,219.00284 -39.58412,86.40966 -56.85812,182.92765 -49.70095,277.702687 7.86087,104.093368 46.60297,207.826813 119.2731,282.768613 36.33506,37.47091 80.76488,67.32182 129.8233,85.14251 49.05843,17.82069 102.73203,23.42635 154.1393,14.39315 60.08095,-10.55732 116.07533,-41.03038 159.59847,-83.77279 43.52315,-42.74242 74.72215,-97.40212 92.17135,-155.854693 35.2703,-118.151116 15.1471,-248.073827 54.6321,-364.883997 27.0706,-80.08404 82.0792,-150.16825 152.6053,-196.77664 70.526,-46.60839 156.0456,-69.70152 240.5194,-66.47054 63.0779,2.41262 126.3175,19.6096 178.8209,54.65288 52.5034,35.04329 93.5433,88.68085 108.0373,150.11832 7.7867,33.00641 7.8403,67.92074 -0.7557,100.72568 -8.596,32.80494 -25.8995,63.25583 -49.5553,87.55516 -23.6558,24.29932 -53.4048,42.231024 -85.172,54.101329 -31.7671,11.870306 -65.4092,17.718743 -98.8815,23.165035 l -27.5016,4.4748 33.11,0.555 c 29.9404,0.50187 59.9792,1.121483 89.5871,5.59969 29.6078,4.478206 58.8343,12.876055 85.1514,27.162143 26.317,14.2860881 49.6137,34.556201 65.8568,59.712528 16.2432,25.156326 25.2132,55.201947 23.9226,85.118735 -1.6966,39.32734 -21.0277,76.70646 -48.8754,104.52769 -27.8478,27.82123 -63.6983,46.65869 -101.1345,58.82621 -84.8232,27.56926 -180.1158,21.38085 -260.6609,-16.9276 25.3804,11.39717 51.2894,21.61722 77.6158,30.6163 83.7291,28.62092 172.2931,44.84673 260.7026,41.17464 88.4095,-3.6721 176.7019,-27.77605 251.4558,-75.12134 104.1948,-65.99166 178.5246,-177.330021 199.5224,-298.864196 l 2.1414,-499.452414 -0.4191,501.782314 c 10.6117,102.453406 61.2193,200.236026 138.7364,268.062396 77.517,67.82638 181.1527,105.00459 284.108,101.9208 119.0242,-3.5651 235.0671,-61.35506 310.8357,-153.21683 75.7687,-91.861763 110.4115,-216.065995 94.6747,-334.09917 -15.5943,-116.96443 -80.2396,-226.59916 -175.041,-296.85968 -94.8015,-70.26051 -218.501,-100.21431 -334.943,-81.10636"
       id="path4145"
       inkscape:path-effect="#path-effect4147"
       inkscape:original-d="m 627.55545,-543.5049 c 0,0 -262.1547,317.91104 -227.53997,496.705527 C 435.22036,135.0434 618.032,335.68408 803.25118,335.5049 919.10993,335.39282 1001.5854,198.67772 1055.021,95.877417 c 56.7217,-109.122177 -11.1825,-260.992507 54.6321,-364.883997 84.3971,-133.22503 235.4344,-265.60525 393.1247,-263.24718 117.4692,1.7566 273.5094,88.04969 286.8582,204.7712 13.4143,117.29476 -133.1859,249.084504 -234.3645,265.547204 l -27.5016,4.4748 33.11,0.555 c 65.996,1.1062 251.9786,72.1343 264.5179,177.593096 8.7287,73.4104 -81.3987,135.8261 -150.0099,163.3539 -80.8086,32.4215 -260.6609,-16.9276 -260.6609,-16.9276 0,0 50.1362,26.3291 77.6158,30.6163 169.049,26.3744 364.0351,51.6843 512.1584,-33.9467 103.7001,-59.9497 199.5224,-298.864196 199.5224,-298.864196 l 2.1414,-499.452414 -0.4191,501.782314 c 0,0 236.142,384.758396 422.8444,369.983196 210.6641,-16.6714 430.6999,-277.499996 405.5104,-487.316 -25.2216,-210.0838 -509.984,-377.96604 -509.984,-377.96604"
       inkscape:connector-curvature="0"
       sodipodi:nodetypes="caaaaaascsaacaacccaac" />
    <path
       style="color:#000000;font-style:normal;font-variant:normal;font-weight:normal;font-stretch:normal;font-size:medium;line-height:normal;font-family:sans-serif;text-indent:0;text-align:start;text-decoration:none;text-decoration-line:none;text-decoration-style:solid;text-decoration-color:#000000;letter-spacing:normal;word-spacing:normal;text-transform:none;direction:ltr;block-progression:tb;writing-mode:lr-tb;baseline-shift:baseline;text-anchor:start;white-space:normal;clip-rule:nonzero;display:inline;overflow:visible;visibility:visible;opacity:1;isolation:auto;mix-blend-mode:normal;color-interpolation:sRGB;color-interpolation-filters:linearRGB;solid-color:#000000;solid-opacity:1;fill:#000000;fill-opacity:1;fill-rule:evenodd;stroke:none;stroke-width:140;stroke-linecap:round;stroke-linejoin:round;stroke-miterlimit:4;stroke-dasharray:none;stroke-dashoffset:0;stroke-opacity:1;color-rendering:auto;image-rendering:auto;shape-rendering:auto;text-rendering:auto;enable-background:accumulate"
       d="m 595.72461,542.5918 a 70.007,70.007 0 0 0 -43.75195,14.28125 c -86.118,63.62283 -155.29209,148.80735 -199.88477,246.15039 -44.59268,97.34304 -63.92409,205.36006 -55.86133,312.12696 8.89841,117.8324 52.33264,237.0353 138.82032,326.2266 43.25369,44.6058 96.28714,80.4522 156.17578,102.207 60.03075,21.8064 125.70523,28.8678 190.15429,17.543 75.39328,-13.248 143.46058,-50.6548 196.53125,-102.7735 52.8773,-51.9288 89.6295,-116.8674 110.1992,-185.7734 41.3812,-138.6217 21.7389,-267.434 53.8711,-362.49221 21.8258,-64.56816 67.3189,-122.74958 124.8848,-160.79297 57.6836,-38.12128 129.3087,-57.597 199.25,-54.92187 52.1686,1.99535 102.9256,16.42265 142.6367,42.92773 39.0803,26.08403 68.9633,66.41027 78.7676,107.96875 5.2701,22.33926 5.1511,45.9529 -0.3399,66.9082 -5.4498,20.7982 -16.8303,40.89042 -31.998,56.47071 -15.2012,15.6148 -35.9801,28.56227 -59.5176,37.35746 -23.6497,8.8371 -52.6508,14.2818 -85.6211,19.6464 l -27.5019,4.4747 a 70.007,70.007 0 0 0 10.0683,139.082 l 33.1114,0.5547 c 29.7595,0.4988 56.6612,1.2482 80.291,4.8222 23.5481,3.5617 44.8964,10.0623 62.2246,19.4688 17.1403,9.3046 31.4521,22.2359 40.4453,36.1641 8.8359,13.6844 13.3966,30.1834 12.7949,44.1308 -0.7921,18.3606 -11.2856,40.9113 -28.4141,58.0234 -17.7738,17.7569 -43.5671,32.1121 -73.2988,41.7754 -59.7434,19.4179 -127.8613,17.5389 -187.0976,-4.4121 -7.7746,-3.211 -15.5773,-6.3553 -23.25,-9.8008 a 70.007,70.007 0 0 0 -58.7422,127.0723 c 0.4618,0.2197 0.9359,0.4071 1.3984,0.625 l -0.01,0.018 c 0.6549,0.2941 1.3191,0.5667 1.9746,0.8594 6.2272,2.8943 12.5153,5.6244 18.8594,8.2011 20.6543,8.6997 41.6083,16.6861 62.8164,23.9356 90.3627,30.8884 187.3592,48.9843 286.248,44.8769 99.1691,-4.119 199.2763,-30.9937 286.0059,-85.9238 63.3461,-40.1202 116.6362,-93.9965 156.7383,-156.3828 26.2573,45.3942 59.8542,86.5964 99.6933,121.4551 l 0,-0 c 91.246,79.8391 211.1093,122.839 332.2989,119.209 140.2909,-4.2021 273.8197,-70.8352 362.7422,-178.6445 88.8119,-107.6754 128.424,-250.1416 110.0585,-387.89065 C 3051.3119,860.9396 2977.3095,735.43404 2866.752,653.49609 2756.1943,571.55815 2614.5879,537.269 2478.793,559.55273 a 70.007,70.007 0 1 0 22.6699,138.15235 c 97.0891,-15.93217 202.8824,9.68646 281.9277,68.26953 79.0452,58.58307 134.3335,152.34639 147.336,249.87109 13.1081,98.3174 -16.5656,204.2604 -79.2911,280.3086 -62.6147,75.914 -161.1722,124.859 -258.9296,127.7871 -84.721,2.5376 -172.13,-28.8191 -235.918,-84.6328 -63.0489,-55.1669 -105.419,-136.3804 -114.8262,-219.666 l 0.4141,-497.13869 0,-0.0586 0,-0.24219 a 70.007,70.007 0 0 0 -139.9981,-0.35742 l -0,0.24219 0,0.26367 -2.1113,492.24804 c -18.6865,99.4468 -81.5767,192.6181 -167.0059,246.7246 -37.4151,23.6968 -79.7507,40.6977 -124.2461,51.3711 29.6742,-36.0706 50.3279,-81.2394 52.5313,-132.3125 1.9795,-45.8862 -11.4003,-89.4773 -35.0508,-126.1055 -21.3185,-33.0168 -49.9061,-58.7321 -81.5313,-77.6211 3.6399,-3.3502 7.2419,-6.764 10.7324,-10.3496 32.144,-33.0183 55.3692,-73.8289 67.1114,-118.64058 11.701,-44.65458 11.4751,-90.86941 1.1718,-134.54297 -19.1837,-81.31647 -71.3801,-148.26505 -137.3066,-192.26758 -65.2957,-43.5815 -141.0186,-63.54902 -215.0059,-66.37891 -99.0065,-3.78683 -198.4206,22.92401 -281.789,78.01953 -83.4864,55.17342 -148.0088,137.15983 -180.3242,232.75977 -46.83781,138.56224 -26.23512,269.59684 -55.39457,367.27734 -14.32867,47.9992 -39.97362,92.3776 -74.14258,125.9336 -33.97562,33.3661 -77.89737,56.9068 -122.66601,64.7734 -38.36548,6.7416 -80.03891,2.5908 -118.125,-11.2441 -38.22821,-13.8866 -74.05428,-37.7421 -103.47071,-68.0781 -58.85258,-60.6923 -92.90127,-148.9562 -99.72461,-239.3106 -6.25157,-82.7831 8.96351,-167.80104 43.53907,-243.27732 34.57555,-75.47628 89.02212,-142.52462 155.79492,-191.85547 A 70.007,70.007 0 0 0 595.72461,542.5918 Z"
       id="path4145-0"
       inkscape:connector-curvature="0" />
    <path
       style="fill:none;fill-rule:evenodd;stroke:#000000;stroke-width:70;stroke-linecap:round;stroke-linejoin:round;stroke-miterlimit:4;stroke-dasharray:none;stroke-opacity:1"
       d="m -2344.0039,-593.68219 c -79.7802,62.77192 -143.4607,145.83644 -183.3644,239.17928 -39.9036,93.34283 -55.9481,196.77158 -46.1991,297.816833 10.2182,105.907933 49.7262,210.431217 120.5699,289.816797 70.8437,79.38558 174.3162,131.50536 280.7136,130.80526 66.8221,-0.4397 133.5122,-21.62055 187.7463,-60.65964 54.2341,-39.03909 95.633,-95.86911 115.1842,-159.76858 26.491,-86.581103 12.7923,-179.48129 9.7235,-269.97241 -2.2454,-66.21218 1.5209,-133.48881 21.9136,-196.5224 23.2225,-71.78058 68.126,-136.39177 127.3127,-183.175 59.1867,-46.78322 132.4236,-75.55278 207.6282,-81.55372 67.0707,-5.35189 137.0497,7.98272 192.531,46.04776 27.7406,19.03252 51.5162,44.05723 68.0127,73.37696 16.4964,29.31973 25.5802,62.95207 24.8354,96.58575 -0.5818,26.27521 -7.1842,52.43298 -19.4225,75.69128 -12.2383,23.2583 -30.0949,43.48279 -51.4407,58.81506 -21.3459,15.33227 -46.0251,25.69208 -71.5557,31.93011 -25.5306,6.23804 -51.8578,8.37919 -78.0702,10.28604 l -41.4723,3.01695 47.7296,5.10685 c 64.2138,6.87058 130.0515,14.58195 187.3669,44.34028 28.6577,14.87916 54.7748,35.20865 74.2575,60.958928 19.4827,25.750276 32.0994,57.065796 33.5029,89.3254191 1.908,43.8552469 -17.43,87.5345939 -49.0246,118.0092529 -31.5946,30.47465 -74.6004,48.01937 -118.3441,51.68181 -49.0092,4.1033 -98.1709,-8.36934 -147.2645,-5.44389 -24.5468,1.46272 -49.2703,6.96432 -70.4172,19.51394 -21.147,12.54962 -38.4376,32.72224 -44.1335,56.64383 -4.7425,19.91744 -1.1846,41.376 8.1713,59.58764 9.3558,18.21163 24.2407,33.26817 41.4028,44.43321 34.3242,22.33009 76.2819,29.05013 117.0071,33.32054 80.0153,8.39033 161.2742,9.28998 240.5532,-4.40988 79.2791,-13.69986 156.6966,-42.41554 221.87832,-89.57691 106.54362,-77.0882 175.57493,-203.754038 182.61057,-335.072858 l 2.38919,-545.963182 -0.4676,548.575361 c 11.18054,114.20687 67.61787,223.362129 154.3411,298.510619 86.72323,75.14848 202.79805,115.4806 317.43378,110.2976 C -163.90601,362.60727 -50.464345,310.53855 30.457317,226.62138 111.37898,142.70421 159.19743,27.993321 163.23128,-88.51477 168.00749,-226.46394 110.65938,-365.39136 9.9662636,-459.80365 -90.726856,-554.21594 -233.0551,-602.50987 -370.41145,-588.87104"
       id="path4145-2"
       inkscape:path-effect="#path-effect4147-0"
       inkscape:original-d="m -2344.0039,-593.68219 c 0,0 -264.213,345.43559 -229.5635,536.996113 34.491,190.684347 208.2881,403.217297 401.2835,420.622057 124.3754,11.21646 244.2825,-110.17637 302.9305,-220.42822 42.2902,-79.500895 3.1086,-180.166543 9.7235,-269.97241 4.8419,-65.73538 -10.0623,-138.88453 21.9136,-196.5224 69.0369,-124.44178 192.6396,-263.23976 334.9409,-264.72872 119.2978,-1.24826 283.7245,96.71758 285.3791,216.01047 1.3063,94.18122 -106.4049,168.4233 -220.4891,176.72249 l -41.4723,3.01695 47.7296,5.10685 c 73.2302,7.83528 282.8479,77.02859 295.1273,194.6246271 8.2704,79.2039359 -98.8379,129.6912729 -167.3687,169.6910629 -78.1436,45.6105 -242.7193,-17.64508 -261.8152,70.71388 -15.2022,70.34203 96.7554,119.92149 166.5812,137.34139 152.6177,38.07451 335.906,-0.53571 462.43152,-93.98679 102.31807,-75.57157 182.61057,-335.072858 182.61057,-335.072858 l 2.38919,-545.963182 -0.4676,548.575361 c 0,0 263.88005,417.711129 471.77488,408.808219 211.95535,-9.0768 448.51687,-244.29493 443.59622,-456.38747 -5.65573,-243.77655 -533.64273,-500.35627 -533.64273,-500.35627"
       inkscape:connector-curvature="0"
       sodipodi:nodetypes="caaaaaaascsaaaaacccaac" />
    <path
       style="color:#000000;font-style:normal;font-variant:normal;font-weight:normal;font-stretch:normal;font-size:medium;line-height:normal;font-family:sans-serif;text-indent:0;text-align:start;text-decoration:none;text-decoration-line:none;text-decoration-style:solid;text-decoration-color:#000000;letter-spacing:normal;word-spacing:normal;text-transform:none;direction:ltr;block-progression:tb;writing-mode:lr-tb;baseline-shift:baseline;text-anchor:start;white-space:normal;clip-rule:nonzero;display:inline;overflow:visible;visibility:visible;opacity:1;isolation:auto;mix-blend-mode:normal;color-interpolation:sRGB;color-interpolation-filters:linearRGB;solid-color:#000000;solid-opacity:1;fill:#000000;fill-opacity:1;fill-rule:evenodd;stroke:none;stroke-width:200;stroke-linecap:round;stroke-linejoin:round;stroke-miterlimit:4;stroke-dasharray:none;stroke-dashoffset:0;stroke-opacity:1;color-rendering:auto;image-rendering:auto;shape-rendering:auto;text-rendering:auto;enable-background:accumulate"
       d="M 5325.8066 336.30469 A 100.01 100.01 0 0 0 5229.916 434.56836 L 5229.916 434.88867 L 5229.916 435.09961 L 5227.8145 962.42969 C 5210.1004 1052.469 5152.1327 1137.7901 5074.7461 1186.8027 C 5063.4129 1193.9807 5051.4167 1200.335 5039.1113 1206.2422 C 5046.4685 1180.3622 5050.1177 1152.9762 5049.084 1124.5527 C 5047.3006 1075.5121 5031.7178 1029.3452 5005.7363 989.70703 L 5005.7363 989.70508 C 4988.8816 963.99155 4968.2761 942.09824 4945.3184 923.87109 C 4974.4552 889.5681 4995.3943 849.37148 5006.9336 806.04883 C 5019.8574 757.52819 5020.354 708.25698 5011.7012 661.73242 C 4994.5945 569.75343 4942.7088 490.74912 4872.543 435.25391 C 4802.9401 380.20379 4719.195 350.73007 4634.9629 343.60156 C 4520.9699 333.9544 4405.581 365.21431 4312.5801 434.09766 C 4219.3392 503.15875 4154.4454 606.06891 4134.8145 721.76562 C 4112.266 854.65731 4142.8538 961.94852 4131.8379 1036.8223 C 4123.9783 1090.2437 4097.7913 1142.3237 4060.084 1179.0254 C 4022.5583 1215.5504 3970.3709 1239.4643 3919.5117 1243.2852 C 3851.0525 1248.4282 3774.1624 1216.8726 3721.5234 1163.6816 A 100.01 100.01 0 0 0 3721.5234 1163.6797 C 3667.8216 1109.4148 3633.161 1030.6715 3623.0156 948.45312 C 3613.121 868.26682 3625.4147 784.25622 3657.8711 710.26758 C 3690.3277 636.27895 3743.813 570.33637 3809.5117 523.31055 A 100.01 100.01 0 1 0 3693.1035 360.67969 C 3597.6625 428.9945 3521.8686 522.43995 3474.7188 629.92383 C 3427.5691 737.40769 3410.1455 856.46005 3424.5195 972.94727 C 3439.4188 1093.6916 3489.2202 1213.2711 3579.3672 1304.3633 C 3670.5768 1396.5293 3799.0258 1452.9019 3934.4941 1442.7246 C 4034.8271 1435.187 4128.4585 1391.5706 4199.582 1322.3438 C 4270.5239 1253.2936 4315.4973 1162.5156 4329.707 1065.9336 C 4349.1219 933.97154 4319.5717 828.4474 4331.9961 755.22266 C 4342.4802 693.43365 4380.197 632.90148 4431.6191 594.81445 C 4483.2812 556.5497 4552.7096 537.35687 4618.0977 542.89062 C 4666.6178 546.99685 4713.5835 564.52515 4748.4746 592.12109 C 4782.803 619.27196 4807.8204 659.30099 4815.0742 698.30273 C 4818.7543 718.09034 4818.1084 737.91604 4813.6719 754.57227 C 4809.3177 770.91935 4800.4267 786.79724 4789.0742 798.70898 C 4777.7242 810.61794 4761.1638 821.42455 4741.6953 828.83984 C 4722.0762 836.31244 4695.4616 841.57541 4662.9629 846.86328 L 4635.4629 851.33789 A 100.01 100.01 0 0 0 4649.8457 1050.0254 L 4682.9551 1050.5801 C 4712.2501 1051.0711 4737.1945 1051.945 4757.3848 1055.2148 C 4777.478 1058.4689 4794.8871 1064.3071 4808.0645 1071.7617 C 4821.0738 1079.1212 4831.8316 1089.2228 4838.4668 1099.3457 A 100.01 100.01 0 0 0 4838.4668 1099.3477 C 4845.0186 1109.3431 4848.8415 1121.5566 4849.2148 1131.8223 C 4849.7524 1146.6049 4842.7174 1167.2726 4829.5352 1182.9512 C 4815.7223 1199.3798 4793.4883 1214.0187 4767.5234 1222.6719 C 4752.5206 1227.6718 4736.3382 1230.3261 4719.834 1230.9316 C 4695.9237 1225.4046 4672.0636 1218.6808 4648.4395 1210.6055 C 4625.0388 1202.6065 4602.0032 1193.5192 4579.4434 1183.3887 A 100.01 100.01 0 0 0 4478.1094 1354.334 C 4543.6316 1403.9516 4622.5639 1430.3306 4702.7168 1431.7988 C 4760.5651 1443.1958 4820.2523 1448.8393 4880.9473 1446.3184 C 4984.7277 1442.0078 5089.8978 1413.9463 5181.7598 1355.7656 C 5235.336 1321.8332 5281.9811 1278.7442 5320.2266 1229.2969 C 5343.3738 1262.2797 5370.4872 1292.6175 5401.166 1319.4609 C 5498.8492 1404.9325 5626.786 1450.0086 5756.4727 1444.6465 C 5905.2191 1438.4963 6044.1659 1366.5794 6137.4082 1252.627 C 6230.3664 1139.0218 6272.2729 991.47355 6257.3203 847.11328 C 6241.9558 698.77675 6167.5346 560.88026 6051.9707 466.62109 C 5936.4068 372.36191 5786.3662 327.17646 5637.9688 341.94141 A 100.01 100.01 0 1 0 5657.7695 540.95898 C 5751.7008 531.61319 5852.4101 561.94217 5925.5586 621.60547 C 5998.7073 681.26881 6048.6595 773.82592 6058.3848 867.71875 C 6067.8254 958.8624 6039.599 1056.3394 5982.6211 1125.9727 C 5925.9256 1195.2586 5836.0244 1241.1875 5748.209 1244.8184 C 5671.4549 1247.9919 5590.6782 1219.5309 5532.8652 1168.9453 C 5475.9625 1119.1563 5437.4186 1044.4701 5429.5 969.19141 L 5429.9141 435.44336 L 5429.9141 435.36523 L 5429.9141 435.04492 A 100.01 100.01 0 0 0 5325.8066 336.30469 z "
       transform="translate(0,-1048)"
       id="path4145-8" />
    <path
       style="color:#000000;font-style:normal;font-variant:normal;font-weight:normal;font-stretch:normal;font-size:medium;line-height:normal;font-family:sans-serif;text-indent:0;text-align:start;text-decoration:none;text-decoration-line:none;text-decoration-style:solid;text-decoration-color:#000000;letter-spacing:normal;word-spacing:normal;text-transform:none;direction:ltr;block-progression:tb;writing-mode:lr-tb;baseline-shift:baseline;text-anchor:start;white-space:normal;clip-rule:nonzero;display:inline;overflow:visible;visibility:visible;opacity:1;isolation:auto;mix-blend-mode:normal;color-interpolation:sRGB;color-interpolation-filters:linearRGB;solid-color:#000000;solid-opacity:1;fill:#000000;fill-opacity:1;fill-rule:evenodd;stroke:none;stroke-width:70;stroke-linecap:round;stroke-linejoin:round;stroke-miterlimit:4;stroke-dasharray:none;stroke-dashoffset:0;stroke-opacity:1;color-rendering:auto;image-rendering:auto;shape-rendering:auto;text-rendering:auto;enable-background:accumulate"
       d="m -2391.9961,715.00977 a 35.0035,35.0035 0 0 0 -21.6504,7.80078 c -84.4594,66.45355 -151.6602,154.11028 -193.9043,252.92773 -42.2441,98.81752 -59.1762,207.96582 -48.8554,314.93752 10.835,112.3009 52.5935,223.8102 129.2949,309.7597 77.0491,86.3392 189.0825,143.2763 307.0586,142.5 74.0644,-0.4873 147.5591,-23.7737 207.9629,-67.2539 60.451,-43.5142 106.3082,-106.3677 128.205,-177.9336 29.5281,-96.5071 14.2111,-193.6225 11.2344,-281.3984 -2.1732,-64.0846 1.6983,-127.2675 20.2344,-184.5625 21.0486,-65.06097 62.0727,-124.08811 115.7168,-166.49022 53.6439,-42.40192 120.548,-68.6843 188.707,-74.12305 60.5515,-4.83171 122.6427,7.56251 169.9473,40.01758 23.6318,16.21354 43.6879,37.4677 57.3105,61.67968 13.5801,24.13638 20.9396,51.82823 20.3457,78.64844 -0.4635,20.93049 -5.7861,41.88927 -15.4043,60.16797 -9.5987,18.2419 -23.8718,34.4655 -40.8847,46.6855 -17.0316,12.2333 -37.5422,21.0057 -59.4453,26.3575 -21.9353,5.3595 -46.2899,7.4865 -72.3028,9.3789 l -41.4707,3.0176 a 35.0035,35.0035 0 0 0 -1.1855,69.7089 l 47.7304,5.1055 c 63.9756,6.845 125.1812,14.7547 174.9629,40.6016 24.8047,12.8787 46.7247,30.1989 62.4746,51.0156 15.6314,20.66 25.3969,45.586 26.4473,69.7285 1.4177,32.5874 -13.6543,67.4694 -38.3574,91.2969 -25.0033,24.117 -60.5815,38.9479 -96.9649,41.9941 -41.1936,3.449 -90.0526,-8.8632 -146.4277,-5.5039 -28.3556,1.6898 -58.615,7.9849 -86.1973,24.3535 -28.1023,16.6773 -51.9525,43.4999 -60.3183,78.6348 -6.9683,29.2651 -1.7265,58.7459 11.0879,83.6895 l -0,0 c 12.6678,24.6586 31.9849,43.8133 53.4492,57.7773 42.5623,27.6893 90.4103,34.3835 132.4434,38.791 82.2015,8.6196 166.6773,9.6985 250.1641,-4.7285 83.5983,-14.4462 166.0552,-44.7895 236.43355,-95.7109 74.89007,-54.1857 132.15179,-130.3538 165.34375,-215.9805 29.00301,68.7808 73.40979,131.0065 130.09375,180.125 93.72033,81.2117 218.05066,124.4117 341.93555,118.8105 125.83484,-5.6893 247.19009,-61.4448 334.4355438,-151.9199 C 94.854392,1504.4859 145.87358,1381.9689 150.21094,1256.6953 155.35053,1108.2513 94.259873,960.25902 -14.09375,858.66406 -122.44737,757.0691 -274.06303,705.62431 -421.86914,720.30078 a 35.0035,35.0035 0 1 0 6.91602,69.65625 c 126.90663,-12.60125 259.94782,32.54183 352.980464,119.77149 93.032651,87.22964 146.637475,217.09058 142.224609,344.54488 -3.73038,107.7426 -48.347013,214.6484 -122.988281,292.0528 -74.597862,77.3593 -180.125992,125.7405 -287.208982,130.582 -105.38657,4.7648 -213.20746,-32.6979 -292.9336,-101.7832 -79.3802,-68.7855 -131.66201,-169.6023 -142.25976,-274.1074 l 0.46679,-546.34572 0,-0.0293 0,-0.12305 a 35.0035,35.0035 0 0 0 -70,-0.18359 l 0,0.12304 -2.38281,544.64262 c -6.60297,120.1244 -70.66727,237.547 -168.13481,308.0683 -59.985,43.4014 -132.3604,70.49 -207.3203,83.4434 -75.0712,12.9728 -153.1142,12.2509 -230.9433,4.0898 -39.4167,-4.1332 -75.4843,-10.8796 -101.5703,-27.8496 l -0,0 c -12.8592,-8.3661 -23.3118,-19.3236 -29.3555,-31.0879 a 35.0035,35.0035 0 0 0 0,-0 c -5.8974,-11.4797 -7.7725,-24.9167 -5.2558,-35.4864 3.0259,-12.7083 13.7556,-26.2303 27.9472,-34.6523 14.7116,-8.7306 33.8988,-13.438 54.6368,-14.6738 41.8121,-2.4915 91.2787,10.1404 148.1035,5.3828 51.104,-4.2788 101.5368,-24.535 139.7226,-61.3672 38.4861,-37.1219 62.0915,-89.5996 59.6934,-144.7227 -1.7566,-40.3766 -17.2245,-78.0812 -40.5586,-108.9218 -23.2155,-30.6839 -53.5303,-54.0246 -86.041,-70.9043 -19.0172,-9.8738 -38.54,-17.3033 -58.2305,-23.3223 6.3198,-3.6255 12.5142,-7.5523 18.5215,-11.8672 25.6789,-18.4446 47.1182,-42.6706 61.9961,-70.9453 14.8586,-28.2379 22.7411,-59.593 23.4414,-91.21289 0.8957,-40.44716 -9.9115,-80.02033 -29.3242,-114.52343 -19.3704,-34.4275 -46.8655,-63.22468 -78.7149,-85.07618 -63.658,-43.67501 -141.5252,-57.94828 -215.1152,-52.07617 -82.2502,6.56317 -161.8191,37.81985 -226.5488,88.98438 -64.7294,51.16433 -113.5138,121.36116 -138.9102,199.86129 -22.2492,68.7723 -25.9093,140.1407 -23.5918,208.4805 3.1609,93.2063 15.2411,181.8918 -8.2129,258.5469 -17.2055,56.2332 -54.1449,107.0395 -102.1621,141.6035 -48.0644,34.598 -107.9495,53.6744 -167.5293,54.0664 -94.8188,0.6239 -189.7309,-46.6795 -254.3691,-119.1113 -64.986,-72.8216 -102.2443,-170.3582 -111.8457,-269.8731 -9.1772,-95.1189 5.9796,-192.829 43.543,-280.6972 37.5633,-87.86827 97.7232,-166.34139 172.8242,-225.43168 a 35.0035,35.0035 0 0 0 -21.6348,-62.81445 z"
       id="path4145-2-0"
       inkscape:connector-curvature="0" />
  </g>
</svg>
