<?xml version="1.0" encoding="UTF-8" standalone="no"?>
<!-- Created with Inkscape (http://www.inkscape.org/) -->

<svg
   xmlns:dc="http://purl.org/dc/elements/1.1/"
   xmlns:cc="http://creativecommons.org/ns#"
   xmlns:rdf="http://www.w3.org/1999/02/22-rdf-syntax-ns#"
   xmlns:svg="http://www.w3.org/2000/svg"
   xmlns="http://www.w3.org/2000/svg"
   xmlns:sodipodi="http://sodipodi.sourceforge.net/DTD/sodipodi-0.dtd"
   xmlns:inkscape="http://www.inkscape.org/namespaces/inkscape"
   width="2000"
   height="2048"
   id="svg2992"
   version="1.1"
   inkscape:version="0.91pre3 r13670"
   sodipodi:docname="ഗ്ദൃ.svg">
  <defs
     id="defs5498">
    <inkscape:path-effect
       effect="spiro"
       id="path-effect4147"
       is_visible="true" />
    <inkscape:path-effect
       effect="spiro"
       id="path-effect4147-0"
       is_visible="true" />
  </defs>
  <sodipodi:namedview
     inkscape:window-height="851"
     inkscape:window-width="1600"
     inkscape:pageshadow="2"
     inkscape:pageopacity="0.0"
     borderopacity="1.0"
     bordercolor="#666666"
     pagecolor="#ffffff"
     id="base"
     showgrid="true"
     showguides="true"
     inkscape:guide-bbox="true"
     inkscape:zoom="0.32102648"
     inkscape:cx="172.3112"
     inkscape:cy="135.46321"
     inkscape:window-x="1599"
     inkscape:window-y="-1"
     inkscape:current-layer="layer1"
     inkscape:window-maximized="1">
    <sodipodi:guide
       orientation="horizontal"
       position="0,600"
       id="guide5596" />
    <inkscape:grid
       type="xygrid"
       id="grid3769"
       empspacing="3"
       visible="true"
       enabled="true"
       snapvisiblegridlinesonly="true"
       spacingx="4px"
       units="px"
       dotted="true"
       spacingy="4px" />
    <sodipodi:guide
       orientation="0,1"
       position="-1040,1600"
       id="guide2985" />
  </sodipodi:namedview>
  <metadata
     id="metadata5594">
    <rdf:RDF>
      <cc:Work
         rdf:about="">
        <dc:format>image/svg+xml</dc:format>
        <dc:type
           rdf:resource="http://purl.org/dc/dcmitype/StillImage" />
        <dc:title />
      </cc:Work>
    </rdf:RDF>
  </metadata>
  <g
     inkscape:label="Layer 1"
     inkscape:groupmode="layer"
     id="layer1"
     transform="translate(0,1048)">
    <path
       style="fill:none;fill-rule:evenodd;stroke:#000000;stroke-width:140;stroke-linecap:round;stroke-linejoin:round;stroke-miterlimit:4;stroke-dasharray:none;stroke-opacity:1"
       d="m 451.26254,-536.72196 c -80.64223,39.05355 -150.38164,100.3335 -199.48126,175.284 -49.09963,74.95049 -77.42237,163.36225 -81.01384,252.8913 -4.15968,103.6936142 25.71274,209.58076 89.06466,291.77689 63.35191,82.19613 160.84155,138.87614 264.33092,146.59752 47.02864,3.50882 94.98872,-2.97883 138.70248,-20.67377 43.71377,-17.69495 82.81648,-46.69022 112.26566,-83.52431 29.44917,-36.8341 48.92712,-81.09353 59.33424,-127.090227 10.40712,-45.9967 11.81597,-93.487389 12.65258,-140.63932 l 2.137,-120.443543 c 0.92502,-52.135 2.68617,-104.75715 15.77246,-155.23153 13.08629,-50.47438 37.54275,-98.30152 73.04716,-136.48988 35.50441,-38.18837 81.4239,-66.24329 131.0446,-82.26499 49.6208,-16.02169 102.5347,-20.32277 154.5704,-16.97611 67.8288,4.36239 135.8624,21.95348 192.8585,58.98348 56.9961,37.03001 102.0839,94.79313 115.8048,161.36275 14.6784,71.21488 -8.9899,149.17195 -60.7837,200.20543 -51.7938,51.033478 -130.0924,73.546408 -201.0824,57.816573 114.5729,13.350503 222.5993,75.75824465 291.3979,168.343029 57.9515,77.987498 87.8719,176.114068 84.6056,273.221038 -3.2663,97.10697 -39.4687,192.61251 -100.3696,268.31921 -60.901,75.70671 -146.0265,131.36345 -239.4469,158.06657 -93.4204,26.70312 -194.6903,24.52685 -287.29,-4.89653 -50.27418,-15.97453 -99.42939,-40.88938 -133.16785,-81.44052 -16.86923,-20.27557 -29.54,-44.26927 -35.17308,-70.03627 -5.63308,-25.767 -4.02861,-53.30953 6.06994,-77.67527 12.9565,-31.26138 39.4893,-55.99622 70.43783,-69.68319 30.94853,-13.68696 65.97901,-16.80621 99.48036,-12.03112 67.0028,9.55018 125.7042,48.7791 179.7085,89.57263 59.87,45.22434 117.2734,93.7138 171.87,145.181"
       id="path4145"
       inkscape:path-effect="#path-effect4147"
       inkscape:original-d="m 451.26254,-536.72196 c 0,0 -288.89762,257.75876 -280.4951,428.1753 9.24317,187.466043 165.73317,434.9437 353.39558,438.37441 164.16422,3.00114 320.39201,-227.47689 322.95496,-371.927627 l 2.137,-120.443543 c 2.79773,-157.68312 194.77502,-374.11406 374.43462,-390.96251 125.8622,-11.80333 298.6852,94.3262 308.6633,220.34623 9.6725,122.15982 -143.681,238.792048 -261.8661,258.022003 114.2144,11.445806 271.681,81.4364734 291.3979,168.343029 C 1610.3909,382.9857 1313.1153,794.79329 1019.3838,787.91562 925.81307,785.72468 813.1836,641.41044 857.11281,558.76356 c 54.71259,-102.93438 240.60769,-33.41899 349.62669,7.85832 70.1351,26.55489 171.87,145.181 171.87,145.181"
       inkscape:connector-curvature="0"
       sodipodi:nodetypes="caassaaccaaac" />
    <path
       style="color:#000000;font-style:normal;font-variant:normal;font-weight:normal;font-stretch:normal;font-size:medium;line-height:normal;font-family:sans-serif;text-indent:0;text-align:start;text-decoration:none;text-decoration-line:none;text-decoration-style:solid;text-decoration-color:#000000;letter-spacing:normal;word-spacing:normal;text-transform:none;direction:ltr;block-progression:tb;writing-mode:lr-tb;baseline-shift:baseline;text-anchor:start;white-space:normal;clip-rule:nonzero;display:inline;overflow:visible;visibility:visible;opacity:1;isolation:auto;mix-blend-mode:normal;color-interpolation:sRGB;color-interpolation-filters:linearRGB;solid-color:#000000;solid-opacity:1;fill:#000000;fill-opacity:1;fill-rule:evenodd;stroke:none;stroke-width:140;stroke-linecap:round;stroke-linejoin:round;stroke-miterlimit:4;stroke-dasharray:none;stroke-dashoffset:0;stroke-opacity:1;color-rendering:auto;image-rendering:auto;shape-rendering:auto;text-rendering:auto;enable-background:accumulate"
       d="m 1169.1094,1010.3027 c -45.0107,0.6145 -90.9571,6.8556 -135.9434,21.3809 -60.342,19.4834 -116.44536,53.5042 -160.80272,101.2148 -44.43451,47.7936 -73.83339,106.001 -89.54101,166.586 -15.66968,60.4386 -17.06185,118.6813 -18,171.5566 l -2.13868,120.4434 c -0.82667,46.5917 -2.51892,89.2257 -10.9375,126.4336 -8.39141,37.0877 -23.963,71.5952 -45.73437,98.8261 -21.76515,27.2232 -51.33671,49.1864 -83.85547,62.3497 -32.72339,13.2461 -70.10743,18.5236 -107.23047,15.7539 -81.39525,-6.073 -162.44226,-52.5056 -214.0957,-119.5235 -52.10239,-67.6004 -78.10768,-157.8632 -74.5625,-246.2383 3.07465,-76.6457 27.58891,-153.1748 69.62304,-217.3398 42.03414,-64.165 102.39974,-117.2069 171.4375,-150.6406 a 70.007,70.007 0 1 0 -61.01953,-126.002 c -92.24669,44.6735 -171.36026,114.1898 -227.52539,199.9258 -56.1651,85.7359 -88.296008,186.0329 -92.404294,288.4453 -4.774185,119.0122 28.964974,240.5226 103.566404,337.3145 75.0504,97.3743 188.98098,164.3 314.56446,173.6699 56.93422,4.2478 115.47163,-3.4499 170.17578,-25.5938 54.90876,-22.2265 103.54257,-58.2522 140.67578,-104.6972 37.12699,-46.4373 60.51074,-100.4499 72.93359,-155.3555 12.39567,-54.7855 13.52064,-107.1317 14.36719,-154.8437 l 2.13672,-120.4434 c 0.91188,-51.3947 3.04006,-98.3961 13.54297,-138.9063 10.46495,-40.3638 29.98039,-77.8113 56.55468,-106.3945 26.65142,-28.6662 62.38752,-50.7544 101.28712,-63.3144 39.2596,-12.6763 83.3994,-16.6395 128.5684,-13.7344 58.7925,3.7812 115.0659,19.1449 159.2148,47.8281 43.2509,28.0998 76.1663,72.0774 85.3828,116.793 9.6361,46.7513 -7.3537,102.7103 -41.3555,136.2129 -29.3189,28.8885 -75.1367,44.8352 -117.082,42.0722 -8.8738,-1.5401 -17.7932,-2.8781 -26.7676,-3.9238 a 70.007,70.007 0 0 0 -23.2461,137.873 c 10.3023,2.2828 20.6669,3.8691 31.0411,4.9981 85.9908,16.4943 167.2802,66.7295 219.3144,136.7539 48.0651,64.6829 73.5622,147.9463 70.832,229.1152 -2.7338,81.2799 -33.5817,162.9366 -84.9531,226.7969 -19.9271,24.7716 -43.1496,47.1102 -68.7109,66.5488 -55.335,-51.9139 -113.3918,-100.9191 -173.9356,-146.6523 -56.2488,-42.489 -124.1625,-90.4927 -212.0215,-103.0156 -44.4657,-6.3379 -92.45171,-2.6861 -137.67183,17.3125 -45.94417,20.3187 -85.89304,56.4778 -106.79102,106.9004 -16.23823,39.1794 -18.23722,80.7819 -9.78906,119.4257 8.3742,38.3056 26.53558,71.9577 49.74805,99.8575 46.10194,55.4111 108.03603,85.0348 165.77929,103.3828 105.68817,33.5822 220.48687,36.1414 327.72657,5.4883 107.3291,-30.6789 204.3851,-94.0224 274.752,-181.4961 70.4306,-87.5531 111.9885,-196.9077 115.7871,-309.8418 3.8023,-113.0448 -30.5428,-226.0322 -98.3809,-317.3243 -33.3992,-44.9465 -74.3319,-83.4627 -120.2715,-114.4316 7.9206,-6.2969 15.6142,-12.936 22.9004,-20.1152 69.5859,-68.5644 99.9336,-168.5207 80.2129,-264.1992 -18.2253,-88.4236 -75.4853,-159.9696 -146.2266,-205.9297 -69.8433,-45.3768 -149.6369,-65.1971 -226.5019,-70.1407 -14.7256,-0.947 -29.6254,-1.3669 -44.6289,-1.1621 z M 985.96875,2179.8379 c 5.49952,0.094 11.10598,0.5348 16.74025,1.3379 46.1465,6.5775 95.6348,37.0289 147.3945,76.1269 42.95,32.4434 84.5746,66.6453 124.7637,102.4551 -0.6281,0.1829 -1.2481,0.3964 -1.877,0.5762 -79.6011,22.753 -167.3422,20.9599 -246.8535,-4.3047 -42.80458,-13.6011 -79.18017,-33.8075 -100.55467,-59.4981 -10.52599,-12.6514 -17.70767,-26.9883 -20.59961,-40.2167 -2.81798,-12.8902 -1.60733,-26.3719 2.35156,-35.9239 5.01505,-12.1002 18.13112,-25.4097 34.08399,-32.4648 12.5077,-5.5316 28.05222,-8.3697 44.55078,-8.0879 z"
       id="path4145-5"
       inkscape:connector-curvature="0" />
  </g>
</svg>
