<?xml version="1.0" encoding="UTF-8" standalone="no"?>
<!-- Created with Inkscape (http://www.inkscape.org/) -->

<svg
   xmlns:dc="http://purl.org/dc/elements/1.1/"
   xmlns:cc="http://creativecommons.org/ns#"
   xmlns:rdf="http://www.w3.org/1999/02/22-rdf-syntax-ns#"
   xmlns:svg="http://www.w3.org/2000/svg"
   xmlns="http://www.w3.org/2000/svg"
   xmlns:sodipodi="http://sodipodi.sourceforge.net/DTD/sodipodi-0.dtd"
   xmlns:inkscape="http://www.inkscape.org/namespaces/inkscape"
   width="2000"
   height="2048"
   id="svg2992"
   version="1.1"
   inkscape:version="0.91 r13725"
   sodipodi:docname="ഗൃ.svg">
  <defs
     id="defs5498">
    <inkscape:path-effect
       effect="spiro"
       id="path-effect4504-9-4-6-7-6-3"
       is_visible="true" />
    <inkscape:path-effect
       effect="spiro"
       id="path-effect4504-9-4-6-7-6-3-6"
       is_visible="true" />
    <inkscape:path-effect
       effect="spiro"
       id="path-effect4504-9-4-6-7-6-3-6-8"
       is_visible="true" />
    <inkscape:path-effect
       effect="spiro"
       id="path-effect4504-9-4-6-7-6-3-6-8-6"
       is_visible="true" />
    <inkscape:path-effect
       effect="spiro"
       id="path-effect4504-9-4-6-7-6-3-6-8-3"
       is_visible="true" />
    <inkscape:path-effect
       effect="spiro"
       id="path-effect4504-9-4-6-7-6-3-6-8-7"
       is_visible="true" />
    <inkscape:path-effect
       effect="spiro"
       id="path-effect4504-9-4-6-7-6-3-6-8-7-3"
       is_visible="true" />
  </defs>
  <sodipodi:namedview
     inkscape:window-height="844"
     inkscape:window-width="1600"
     inkscape:pageshadow="2"
     inkscape:pageopacity="0.0"
     borderopacity="1.0"
     bordercolor="#666666"
     pagecolor="#ffffff"
     id="base"
     showgrid="true"
     showguides="true"
     inkscape:guide-bbox="true"
     inkscape:zoom="0.32102648"
     inkscape:cx="2353.7184"
     inkscape:cy="-1122.1682"
     inkscape:window-x="1596"
     inkscape:window-y="0"
     inkscape:current-layer="layer1"
     inkscape:window-maximized="1">
    <sodipodi:guide
       orientation="horizontal"
       position="0,600"
       id="guide5596" />
    <inkscape:grid
       type="xygrid"
       id="grid3769"
       empspacing="3"
       visible="true"
       enabled="true"
       snapvisiblegridlinesonly="true"
       spacingx="4px"
       units="px"
       dotted="true"
       spacingy="4px" />
    <sodipodi:guide
       orientation="0,1"
       position="-1040,1600"
       id="guide2985" />
  </sodipodi:namedview>
  <metadata
     id="metadata5594">
    <rdf:RDF>
      <cc:Work
         rdf:about="">
        <dc:format>image/svg+xml</dc:format>
        <dc:type
           rdf:resource="http://purl.org/dc/dcmitype/StillImage" />
        <dc:title />
      </cc:Work>
    </rdf:RDF>
  </metadata>
  <g
     inkscape:label="Layer 1"
     inkscape:groupmode="layer"
     id="layer1"
     transform="translate(0,1048)">
    <path
       style="fill:none;fill-rule:evenodd;stroke:#000000;stroke-width:140;stroke-linecap:round;stroke-linejoin:round;stroke-miterlimit:4;stroke-dasharray:none;stroke-opacity:1"
       d="m 570.35517,-556.65631 c -81.98303,29.97715 -155.52149,82.68666 -210.24495,150.69542 -54.72345,68.00875 -90.47591,151.12288 -102.21555,237.6216 -16.40545,120.876891 15.6133,248.420662 90.59685,344.63828 74.98355,96.21761 192.73014,158.88644 314.64125,163.1342 49.25903,1.71634 99.09868,-5.89959 144.63019,-24.77496 45.53152,-18.87537 86.3665,-49.15866 117.06981,-87.71648 30.70331,-38.55781 50.87913,-84.94411 61.24124,-133.131501 10.36211,-48.187394 10.97798,-97.8662365 10.95007,-147.155155 l -0.052,-91.842504 c -0.0261,-46.09514 0.33193,-92.41516 7.86462,-137.89067 7.5327,-45.4755 22.2906,-90.02263 46.1356,-129.47108 23.845,-39.44844 56.6683,-73.52242 95.5999,-98.20216 38.9317,-24.67974 83.748,-39.90801 129.6145,-44.49399 61.2763,-6.12674 123.9149,6.72047 179.2225,33.80155 55.3077,27.08107 103.3516,68.0819 141.2466,116.62352 75.7899,97.08325 109.7846,221.487 117.7437,344.393134 12.3799,191.173836 -35.7527,386.301956 -138.3983,548.056676 -102.6455,161.75473 -259.6899,288.92065 -440.3624,352.6242 -99.5783,35.11044 -207.5616,51.17971 -311.54993,32.8764 -40.28158,-7.09008 -80.3289,-19.59091 -113.90453,-42.94797 -33.57563,-23.35706 -60.2118,-58.60455 -66.93777,-98.94853 -6.41219,-38.46189 5.99216,-78.95845 30.23183,-109.5014 24.23967,-30.54295 59.52483,-51.40073 97.20476,-61.43347 37.67994,-10.03274 77.65053,-9.6674 115.99078,-2.56397 38.34025,7.10342 75.20119,20.78329 110.63924,37.04914 91.35382,41.93086 174.52682,101.59844 243.51972,174.699"
       id="path4502-2-1-0-2-6-8-7"
       inkscape:path-effect="#path-effect4504-9-4-6-7-6-3-6-8"
       inkscape:original-d="m 570.35517,-556.65631 c -194.67777,86.20635 -312.1275,222.17763 -312.4605,388.31702 -0.43404,216.551024 188.71261,504.41876 405.2381,507.77248 171.81848,2.66126 333.98441,-228.3174 333.89131,-392.778096 l -0.052,-91.842504 c -0.072,-126.6471 127.51152,-449.1646 279.21462,-410.0579 133.4377,34.3983 421.3019,275.1463 438.2128,494.818204 27.3915,355.814766 -274.97,713.422616 -578.7607,900.680876 -88.8952,54.79552 -211.19263,61.7437 -311.54993,32.8764 -73.6363,-21.1812 -192.1966,-66.1203 -180.8423,-141.8965 18.743,-125.0866 228.6059,-152.49898 354.06661,-136.4497 99.09332,12.6764 243.51972,174.699 243.51972,174.699"
       inkscape:connector-curvature="0"
       sodipodi:nodetypes="caasssaaaaac" />
    <path
       style="color:#000000;font-style:normal;font-variant:normal;font-weight:normal;font-stretch:normal;font-size:medium;line-height:normal;font-family:sans-serif;text-indent:0;text-align:start;text-decoration:none;text-decoration-line:none;text-decoration-style:solid;text-decoration-color:#000000;letter-spacing:normal;word-spacing:normal;text-transform:none;direction:ltr;block-progression:tb;writing-mode:lr-tb;baseline-shift:baseline;text-anchor:start;white-space:normal;clip-rule:nonzero;display:inline;overflow:visible;visibility:visible;opacity:1;isolation:auto;mix-blend-mode:normal;color-interpolation:sRGB;color-interpolation-filters:linearRGB;solid-color:#000000;solid-opacity:1;fill:#000000;fill-opacity:1;fill-rule:evenodd;stroke:none;stroke-width:140;stroke-linecap:round;stroke-linejoin:round;stroke-miterlimit:4;stroke-dasharray:none;stroke-dashoffset:0;stroke-opacity:1;color-rendering:auto;image-rendering:auto;shape-rendering:auto;text-rendering:auto;enable-background:accumulate"
       d="m 578.44336,1077.2207 a 70.007,70.007 0 0 0 -25.33203,4.6035 c -94.15869,34.4293 -177.89149,94.4457 -240.74219,172.5547 -62.85068,78.1091 -103.55982,172.7448 -117.04297,272.0899 -18.92036,139.4069 17.26504,284.8278 104.7461,397.082 87.76491,112.6184 223.12895,185.035 367.41796,190.0625 58.10316,2.0244 117.80346,-6.8235 173.875,-30.0684 56.32164,-23.3484 106.60562,-60.5294 145.02344,-108.7754 38.43653,-48.2694 62.56883,-104.6007 74.91603,-162.0195 12.3211,-57.2974 12.5419,-112.0135 12.5137,-161.9121 l -0.051,-91.8418 c -0.026,-45.7063 0.585,-88.1443 6.9238,-126.4121 6.3283,-38.2045 18.5915,-74.2738 36.9824,-104.6992 18.3649,-30.3823 43.8211,-56.6849 73.1719,-75.291 29.4119,-18.645 64.0059,-30.4541 99.0996,-33.9629 46.938,-4.6931 97.0636,5.269 141.4766,27.0156 44.625,21.8504 84.851,55.8409 116.8515,96.832 64.1886,82.2225 95.7431,192.7209 103.0684,305.8399 11.4253,176.4326 -33.3462,357.4174 -127.6504,506.0273 -63.0635,99.3791 -149.0222,184.7103 -248.4297,247.8164 -70.3433,-68.9499 -152.3816,-125.6606 -241.9531,-166.7734 -38.63995,-17.7355 -80.82095,-33.6878 -127.0879,-42.2598 -46.48619,-8.6126 -96.7717,-9.5583 -146.7539,3.75 -50.49026,13.4437 -98.8675,41.2627 -134.02344,85.5606 -35.7403,45.0342 -54.58011,103.7597 -44.44922,164.5273 10.56808,63.3899 49.58192,112.6033 96.01172,144.9023 45.38439,31.572 95.42898,46.2718 141.74414,54.4239 119.02508,20.9499 238.7325,2.3615 346.9609,-35.7989 196.2274,-69.1879 365.1302,-206.1211 476.1895,-381.1347 110.9869,-174.8995 162.4829,-384.173 149.1484,-590.0879 -8.5929,-132.6933 -45.0287,-270.9995 -132.4199,-382.9434 -43.7893,-56.092 -99.6505,-104.1063 -165.6406,-136.4179 -66.2022,-32.4156 -141.3561,-48.1463 -216.9707,-40.586 -56.6393,5.6631 -111.6774,24.3108 -160.1289,55.0254 -48.5124,30.7532 -88.7023,72.5988 -118.02737,121.1133 -29.29909,48.4716 -46.55198,101.4957 -55.28906,154.2422 -8.7266,52.6831 -8.83091,102.8852 -8.80469,149.3691 l 0.0508,91.8438 c 0.0276,48.6791 -0.98171,93.3212 -9.38477,132.3984 -8.377,38.956 -24.59442,75.3979 -47.56445,104.2441 -22.98878,28.8699 -54.3758,52.2541 -89.11719,66.6563 -34.99147,14.506 -74.97181,20.8906 -115.38672,19.4824 -99.5332,-3.4681 -199.66304,-56.3883 -261.86523,-136.2051 -62.48604,-80.181 -90.33587,-189.8503 -76.44531,-292.1972 9.99613,-73.6524 40.79048,-145.2439 87.38672,-203.1524 46.59622,-57.9084 109.94067,-103.3108 179.74804,-128.8359 a 70.007,70.007 0 0 0 -22.74609,-136.0879 z m 257.85352,1249.6231 c 14.36048,-0.1993 29.32278,1.1462 44.41992,3.9433 30.41353,5.6348 61.95524,17.0417 94.1914,31.8379 60.2669,27.6622 116.6725,64.0079 167.1074,107.2012 -7.59,2.9608 -15.178,5.9271 -22.8574,8.6347 -90.9282,32.0605 -187.18901,45.6078 -276.14062,29.9512 -34.248,-6.0281 -64.29563,-16.3284 -86.0625,-31.4707 -20.72146,-14.4149 -34.98332,-35.698 -37.86719,-52.9961 -2.69348,-16.1562 3.27856,-38.4229 16.01758,-54.4746 13.32307,-16.7876 35.51394,-30.6846 60.38281,-37.3066 12.68883,-3.3786 26.44811,-5.1211 40.8086,-5.3203 z"
       id="path4502-2-1-0-2-6-8-7-9"
       inkscape:connector-curvature="0" />
    <path
       style="fill:none;fill-rule:evenodd;stroke:#000000;stroke-width:120;stroke-linecap:round;stroke-linejoin:round;stroke-miterlimit:4;stroke-dasharray:none;stroke-opacity:1"
       d="m 2970.4399,442.86151 c -55.6006,20.33044 -105.474,56.07784 -142.5873,102.20111 -37.1132,46.12328 -61.3605,102.49095 -69.3223,161.15404 -11.1262,81.97831 10.5887,168.47812 61.4422,233.73262 50.8536,65.25452 130.7091,107.75622 213.3888,110.63682 33.4072,1.1639 67.2082,-4.0013 98.0875,-16.8026 30.8792,-12.8013 58.5732,-33.3393 79.396,-59.48905 20.8229,-26.14974 34.506,-57.60868 41.5336,-90.28912 7.0277,-32.68045 7.4455,-66.3724 7.4267,-99.79991 l -0.035,-62.28724 c -0.018,-31.26151 0.2254,-62.67553 5.3341,-93.5168 5.1087,-30.84126 15.1175,-61.0529 31.289,-87.80666 16.1716,-26.75376 38.4322,-49.86262 64.8354,-66.60038 26.4032,-16.73776 56.7974,-27.0656 87.9038,-30.17589 41.5573,-4.15526 84.0387,4.5576 121.5482,22.92386 37.5094,18.36625 70.0927,46.17288 95.7929,79.09366 51.4004,65.84155 74.4555,150.2118 79.8532,233.56633 8.3959,129.65339 -24.2474,261.9885 -93.8612,371.69 -69.6138,109.7015 -176.1207,195.945 -298.6521,239.1485 -67.5336,23.8118 -140.7675,34.7098 -211.292,22.2966 -27.3188,-4.8085 -54.4788,-13.2865 -77.2496,-29.1272 -22.7709,-15.8406 -40.8355,-39.7454 -45.397,-67.1065 -4.3487,-26.0847 4.0639,-53.5493 20.5031,-74.2634 16.4393,-20.7142 40.3696,-34.8598 65.924,-41.664 25.5544,-6.8041 52.6623,-6.5564 78.6645,-1.7388 26.0022,4.8175 51.0011,14.0952 75.0351,25.1266 61.9558,28.4374 118.3634,68.9037 165.1541,118.4802"
       id="path4502-2-1-0-2-6-8-7-6"
       inkscape:path-effect="#path-effect4504-9-4-6-7-6-3-6-8-7"
       inkscape:original-d="m 2970.4399,442.86151 c -132.0298,58.46483 -211.6837,150.68004 -211.9096,263.35515 -0.2944,146.86411 127.9842,342.09494 274.831,344.36944 116.5266,1.8048 226.5069,-154.84407 226.4438,-266.38068 l -0.035,-62.28724 c -0.049,-85.89159 86.4779,-304.62173 189.3623,-278.09973 90.497,23.32879 285.7254,186.60319 297.1943,335.58385 18.5768,241.3122 -186.4836,483.8406 -392.5133,610.8385 -60.2884,37.1621 -143.2301,41.8743 -211.292,22.2966 -49.9399,-14.365 -130.347,-44.8425 -122.6466,-96.2337 12.7115,-84.8332 155.0397,-103.4242 240.1267,-92.5396 67.2047,8.597 165.1541,118.4802 165.1541,118.4802"
       inkscape:connector-curvature="0"
       sodipodi:nodetypes="caasssaaaaac" />
    <path
       style="color:#000000;font-style:normal;font-variant:normal;font-weight:normal;font-stretch:normal;font-size:medium;line-height:normal;font-family:sans-serif;text-indent:0;text-align:start;text-decoration:none;text-decoration-line:none;text-decoration-style:solid;text-decoration-color:#000000;letter-spacing:normal;word-spacing:normal;text-transform:none;direction:ltr;block-progression:tb;writing-mode:lr-tb;baseline-shift:baseline;text-anchor:start;white-space:normal;clip-rule:nonzero;display:inline;overflow:visible;visibility:visible;opacity:1;isolation:auto;mix-blend-mode:normal;color-interpolation:sRGB;color-interpolation-filters:linearRGB;solid-color:#000000;solid-opacity:1;fill:#000000;fill-opacity:1;fill-rule:evenodd;stroke:none;stroke-width:120;stroke-linecap:round;stroke-linejoin:round;stroke-miterlimit:4;stroke-dasharray:none;stroke-dashoffset:0;stroke-opacity:1;color-rendering:auto;image-rendering:auto;shape-rendering:auto;text-rendering:auto;enable-background:accumulate"
       d="m 2519.3066,1832.8965 a 60.006,60.006 0 0 0 -21.7128,3.9453 c -66.037,24.1465 -124.6492,66.1569 -168.7286,120.9375 -44.0795,54.7807 -72.575,121.025 -82.0312,190.6992 -13.2819,97.8612 12.0045,199.6834 73.5703,278.6836 61.809,79.3125 156.7661,130.1699 258.6269,133.7188 40.988,1.428 83.2408,-4.7934 123.1543,-21.3399 40.1273,-16.6352 75.9204,-43.0858 103.3555,-77.539 l 0,-0 c 27.4509,-34.4737 44.5269,-74.4563 53.2559,-115.0488 8.7069,-40.4892 8.7866,-78.4991 8.7676,-112.4492 l -0.035,-62.2872 c -0.018,-30.9269 0.4419,-59.0136 4.5273,-83.6777 4.0763,-24.6084 11.9473,-47.5529 23.4434,-66.5723 l 0,-0 c 11.4744,-18.9824 27.4207,-35.4294 45.6113,-46.9609 a 60.006,60.006 0 0 0 0,-0 c 18.2434,-11.565 39.8774,-18.9614 61.75,-21.1484 29.2672,-2.9265 61.0222,3.3155 89.1934,17.1093 28.353,13.8829 54.235,35.6781 74.8828,62.127 41.4564,53.1037 62.4189,125.5578 67.2734,200.5234 7.5777,117.0182 -22.1843,237.2295 -84.6484,335.6641 -40.0084,63.0475 -94.0125,117.6089 -156.3672,158.8496 -47.1021,-44.6255 -101.3808,-81.4682 -160.4062,-108.5605 -26.7784,-12.2911 -56.3363,-23.5155 -89.1329,-29.5918 -32.9847,-6.1113 -68.9342,-6.8578 -105.0332,2.7539 -36.5345,9.7278 -71.6882,29.8414 -97.4843,62.3457 -26.2969,33.1352 -40.2237,76.2258 -32.6875,121.4297 7.8547,47.1148 36.5256,82.9888 70.3144,106.4941 32.8927,22.8821 68.6229,33.2461 101.1133,38.9648 83.4131,14.6818 166.6965,1.6234 241.6445,-24.8027 135.8641,-47.9045 252.5358,-142.5197 329.3614,-263.5859 76.7635,-120.9685 112.2883,-265.4282 103.0742,-407.7168 -5.9411,-91.7434 -31.0873,-188.0301 -92.4317,-266.6094 -30.7525,-39.3927 -70.0373,-73.211 -116.7031,-96.0606 -46.8477,-22.9387 -100.0549,-34.1224 -153.9023,-28.7382 -40.3402,4.0335 -79.4956,17.2925 -114.0586,39.2031 -34.6154,21.9436 -63.1918,51.7136 -84.0606,86.2383 -20.8464,34.4877 -32.9917,71.9655 -39.1328,109.039 -6.1319,37.0185 -6.1588,71.7594 -6.1406,103.3555 l 0.035,62.2871 c 0.019,32.9049 -0.7375,62.2807 -6.086,87.1524 -5.3261,24.7679 -15.6182,47.7019 -29.8125,65.5273 -14.2104,17.8458 -33.8048,32.4722 -55.4355,41.4395 -21.8451,9.056 -47.1951,13.1634 -73.0215,12.2636 -63.4986,-2.2123 -128.2544,-36.3581 -168.1524,-87.5547 -40.1414,-51.5088 -58.283,-122.6858 -49.3125,-188.7812 6.4674,-47.652 26.4662,-94.1435 56.6133,-131.6094 30.147,-37.4658 71.2811,-66.9505 116.4453,-83.4648 a 60.006,60.006 0 0 0 -19.4961,-116.6465 z m 174.836,872.6094 c 8.8203,-0.1217 18.1425,0.697 27.6523,2.4589 19.2078,3.5587 39.6459,10.8884 60.9356,20.6602 33.2357,15.255 64.7089,34.5324 93.6054,57.0742 -58.5337,19.8696 -119.6977,27.9272 -175.6543,18.0781 -22.1472,-3.8982 -40.7378,-10.4916 -53.3867,-19.291 -11.7529,-8.1759 -19.2102,-20.1113 -20.4785,-27.7187 -1.1612,-6.9655 1.7369,-18.8047 8.3184,-27.0977 7.0824,-8.9241 19.789,-17.1018 34.3632,-20.9824 7.505,-1.9983 15.8242,-3.06 24.6446,-3.1816 z"
       id="path4502-2-1-0-2-6-8-7-6-0"
       inkscape:connector-curvature="0" />
  </g>
</svg>
