<?xml version="1.0" encoding="UTF-8" standalone="no"?>
<!-- Created with Inkscape (http://www.inkscape.org/) -->

<svg
   xmlns:dc="http://purl.org/dc/elements/1.1/"
   xmlns:cc="http://creativecommons.org/ns#"
   xmlns:rdf="http://www.w3.org/1999/02/22-rdf-syntax-ns#"
   xmlns:svg="http://www.w3.org/2000/svg"
   xmlns="http://www.w3.org/2000/svg"
   xmlns:sodipodi="http://sodipodi.sourceforge.net/DTD/sodipodi-0.dtd"
   xmlns:inkscape="http://www.inkscape.org/namespaces/inkscape"
   width="2000"
   height="2048"
   id="svg2992"
   version="1.1"
   inkscape:version="0.91 r13725"
   sodipodi:docname="ഘ.svg">
  <defs
     id="defs5498">
    <inkscape:path-effect
       effect="spiro"
       id="path-effect4148"
       is_visible="true" />
    <inkscape:path-effect
       effect="spiro"
       id="path-effect4141-5"
       is_visible="true" />
    <inkscape:path-effect
       effect="spiro"
       id="path-effect4141-5-7"
       is_visible="true" />
    <inkscape:path-effect
       effect="spiro"
       id="path-effect4141-5-7-7"
       is_visible="true" />
    <inkscape:path-effect
       effect="spiro"
       id="path-effect4141-5-7-7-9"
       is_visible="true" />
    <inkscape:path-effect
       effect="spiro"
       id="path-effect4141-5-7-7-9-5"
       is_visible="true" />
    <inkscape:path-effect
       effect="spiro"
       id="path-effect4141-5-7-7-9-5-4"
       is_visible="true" />
  </defs>
  <sodipodi:namedview
     inkscape:window-height="851"
     inkscape:window-width="1600"
     inkscape:pageshadow="2"
     inkscape:pageopacity="0.0"
     borderopacity="1.0"
     bordercolor="#666666"
     pagecolor="#ffffff"
     id="base"
     showgrid="true"
     showguides="true"
     inkscape:guide-bbox="true"
     inkscape:zoom="0.32102648"
     inkscape:cx="1019.443"
     inkscape:cy="762.48606"
     inkscape:window-x="1599"
     inkscape:window-y="-1"
     inkscape:current-layer="layer1"
     inkscape:window-maximized="1">
    <sodipodi:guide
       orientation="horizontal"
       position="0,600"
       id="guide5596" />
    <inkscape:grid
       type="xygrid"
       id="grid3769"
       empspacing="3"
       visible="true"
       enabled="true"
       snapvisiblegridlinesonly="true"
       spacingx="4px"
       units="px"
       dotted="true"
       spacingy="4px" />
    <sodipodi:guide
       orientation="0,1"
       position="-1040,1600"
       id="guide2985" />
  </sodipodi:namedview>
  <metadata
     id="metadata5594">
    <rdf:RDF>
      <cc:Work
         rdf:about="">
        <dc:format>image/svg+xml</dc:format>
        <dc:type
           rdf:resource="http://purl.org/dc/dcmitype/StillImage" />
        <dc:title />
      </cc:Work>
    </rdf:RDF>
  </metadata>
  <g
     inkscape:label="Layer 1"
     inkscape:groupmode="layer"
     id="layer1"
     transform="translate(0,1048)">
    <path
       style="fill:none;fill-rule:evenodd;stroke:#000000;stroke-width:140;stroke-linecap:round;stroke-linejoin:round;stroke-miterlimit:4;stroke-dasharray:none;stroke-opacity:1"
       d="M 257.4991,29.316072 C 200.48673,4.2310192 151.86132,-39.50204 120.89351,-93.545216 89.925704,-147.58839 76.78111,-211.65266 83.965802,-273.5239 c 7.184693,-61.87124 34.660248,-121.21856 77.188338,-166.72715 42.52809,-45.50859 99.88127,-76.93507 161.12492,-88.28784 72.03653,-13.35346 148.92148,1.49057 210.80968,40.7006 61.8882,39.21004 108.15079,102.38767 126.84671,173.22579 18.69591,70.83812 9.63517,148.61693 -24.84351,213.26054 C 600.61325,-36.708341 541.06698,14.143219 471.8229,38.077172 l 1263.5897,-8.8863 3.1226,-134.114802 c 1.2398,-53.25002 1.7041,-106.97889 -8.8829,-159.18059 -10.587,-52.2017 -32.2761,-102.44036 -65.3986,-144.15371 -33.1224,-41.71335 -77.1419,-74.4099 -125.9748,-95.6808 -48.8329,-21.27091 -102.074,-31.35564 -155.2918,-33.58546 -56.4854,-2.36673 -113.7335,4.09219 -166.9329,23.22417 -53.1993,19.13197 -101.8996,51.23049 -139.1083,93.79483 -37.2086,42.56434 -62.3035,95.05581 -75.311,150.07408 -13.00749,55.01827 -13.98839,112.06993 -14.1098,168.60478 l -0.932,433.9824 1097.4698,0 0.885,-864.15986"
       id="path4139-0-3-8-4-2"
       inkscape:path-effect="#path-effect4141-5-7-7-9-5"
       inkscape:original-d="m 257.4991,29.316072 c 0,0 -121.9467,-544.534232 64.77996,-557.854962 194.84418,-13.89982 173.07972,431.736262 149.54384,566.616062 l 1263.5897,-8.8863 3.1226,-134.114802 c 4.3116,-185.18313 -168.9502,-428.02028 -355.5481,-432.60056 -196.0766,-4.81295 -401.5719,94.44869 -395.462,435.69786 l -0.932,433.9824 1097.4698,0 0.885,-864.15986"
       inkscape:connector-curvature="0"
       sodipodi:nodetypes="caccsacccc" />
    <path
       style="color:#000000;font-style:normal;font-variant:normal;font-weight:normal;font-stretch:normal;font-size:medium;line-height:normal;font-family:sans-serif;text-indent:0;text-align:start;text-decoration:none;text-decoration-line:none;text-decoration-style:solid;text-decoration-color:#000000;letter-spacing:normal;word-spacing:normal;text-transform:none;direction:ltr;block-progression:tb;writing-mode:lr-tb;baseline-shift:baseline;text-anchor:start;white-space:normal;clip-rule:nonzero;display:inline;overflow:visible;visibility:visible;opacity:1;isolation:auto;mix-blend-mode:normal;color-interpolation:sRGB;color-interpolation-filters:linearRGB;solid-color:#000000;solid-opacity:1;fill:#000000;fill-opacity:1;fill-rule:evenodd;stroke:none;stroke-width:140;stroke-linecap:round;stroke-linejoin:round;stroke-miterlimit:4;stroke-dasharray:none;stroke-dashoffset:0;stroke-opacity:1;color-rendering:auto;image-rendering:auto;shape-rendering:auto;text-rendering:auto;enable-background:accumulate"
       d="m 1430.002,599.50977 c -56.2779,-0.11534 -113.9416,7.83405 -169.5274,27.82421 -63.8594,22.96564 -122.47,61.37186 -168.1211,113.59375 a 70.007,70.007 0 0 0 0,0.002 c -45.7128,52.29265 -75.3785,115.10444 -90.7305,180.03906 -15.3191,64.7959 -15.86531,127.31525 -15.98823,184.55855 l -0.14454,66.92 -241.98437,1.7011 c 7.7611,-11.2503 14.98306,-22.9111 21.45898,-35.0527 43.05459,-80.7224 54.10789,-175.60868 30.76172,-264.0664 C 772.38041,786.57158 715.94379,709.49792 638.66211,660.53516 561.38044,611.5724 467.58312,593.4638 377.62891,610.13867 c -76.30603,14.14489 -146.52226,52.61929 -199.50977,109.32031 -52.9875,56.70104 -86.624466,129.35931 -95.576171,206.44727 -8.951704,77.08795 7.140542,155.52085 45.724611,222.85545 38.58409,67.3347 98.11639,120.8763 169.15039,152.1309 a 70.007,70.007 0 1 0 56.38281,-128.1446 c -42.99072,-18.9156 -80.71099,-52.8401 -104.0625,-93.5918 -23.35155,-40.7517 -33.54853,-90.44699 -28.13086,-137.10151 5.41768,-46.65452 26.73212,-92.68972 58.80078,-127.00586 32.06867,-34.31613 76.55701,-58.69521 122.73828,-67.25586 54.11883,-10.03205 114.09319,1.54661 160.5879,31.00391 46.49471,29.45729 82.58323,78.74046 96.6289,131.95898 14.04567,53.2185 6.97699,113.89034 -18.92578,162.45504 -25.90277,48.5648 -72.35202,88.2301 -124.37305,106.211 a 70.007,70.007 0 0 0 23.35938,136.1582 l 444.76758,-3.1289 -0.48829,227.0586 a 70.007,70.007 0 0 0 69.99998,70.1504 l 1097.4688,0 a 70.007,70.007 0 0 0 70,-69.9278 l 0.8847,-864.16013 a 70.007,70.007 0 1 0 -140,-0.14258 l -0.8125,794.23051 -957.3906,0 0.3399,-158.1934 678.8203,-4.7734 a 70.007,70.007 0 0 0 69.4902,-68.3692 l 3.1211,-134.1133 c 1.2558,-53.9388 2.2662,-112.96236 -10.2598,-174.72457 -12.5497,-61.87935 -38.2944,-122.27514 -79.1836,-173.76953 l 0,0 c -40.8267,-51.41596 -94.051,-90.71774 -152.8418,-116.32618 -58.4845,-25.475 -120.2276,-36.83197 -180.3145,-39.3496 -7.973,-0.33407 -15.9856,-0.51478 -24.0253,-0.53125 z m -0.2286,140.00781 c 6.1106,0.009 12.2443,0.14473 18.3926,0.40234 46.3488,1.94201 91.0863,10.75547 130.2676,27.82227 38.875,16.93337 73.6913,43.02246 99.1094,75.0332 25.3558,31.93229 42.9909,72.01501 51.6152,114.53906 8.648,42.64119 8.7296,91.07555 7.5059,143.63675 l -1.543,66.2246 -609.627,4.2871 0.1407,-65.6348 c 0.1198,-55.8262 1.5365,-107.40779 12.2324,-152.64841 10.663,-45.10192 31.1863,-87.27337 59.8906,-120.10938 28.7663,-32.90678 67.5545,-58.69778 110.0938,-73.99609 37.5132,-13.49078 79.1481,-19.61666 121.9218,-19.55664 z"
       id="path4139-0-3-8-4-2-3"
       inkscape:connector-curvature="0" />
  </g>
</svg>
