<?xml version="1.0" encoding="UTF-8" standalone="no"?>
<!-- Created with Inkscape (http://www.inkscape.org/) -->

<svg
   xmlns:dc="http://purl.org/dc/elements/1.1/"
   xmlns:cc="http://creativecommons.org/ns#"
   xmlns:rdf="http://www.w3.org/1999/02/22-rdf-syntax-ns#"
   xmlns:svg="http://www.w3.org/2000/svg"
   xmlns="http://www.w3.org/2000/svg"
   xmlns:sodipodi="http://sodipodi.sourceforge.net/DTD/sodipodi-0.dtd"
   xmlns:inkscape="http://www.inkscape.org/namespaces/inkscape"
   width="2000"
   height="2048"
   id="svg2992"
   version="1.1"
   inkscape:version="0.91pre3 r13670"
   sodipodi:docname="ഘ്ര.svg">
  <defs
     id="defs5498">
    <inkscape:path-effect
       effect="spiro"
       id="path-effect4155"
       is_visible="true" />
    <inkscape:path-effect
       effect="spiro"
       id="path-effect4141-5-7-7-9-5"
       is_visible="true" />
    <inkscape:path-effect
       effect="spiro"
       id="path-effect4141-5-7-7-9-5-9"
       is_visible="true" />
    <inkscape:path-effect
       effect="spiro"
       id="path-effect4155-9"
       is_visible="true" />
  </defs>
  <sodipodi:namedview
     inkscape:window-height="853"
     inkscape:window-width="1600"
     inkscape:pageshadow="2"
     inkscape:pageopacity="0.0"
     borderopacity="1.0"
     bordercolor="#666666"
     pagecolor="#ffffff"
     id="base"
     showgrid="true"
     showguides="true"
     inkscape:guide-bbox="true"
     inkscape:zoom="0.32102648"
     inkscape:cx="620.43604"
     inkscape:cy="161.51321"
     inkscape:window-x="1598"
     inkscape:window-y="-3"
     inkscape:current-layer="layer1"
     inkscape:window-maximized="1">
    <sodipodi:guide
       orientation="horizontal"
       position="0,600"
       id="guide5596" />
    <inkscape:grid
       type="xygrid"
       id="grid3769"
       empspacing="3"
       visible="true"
       enabled="true"
       snapvisiblegridlinesonly="true"
       spacingx="4px"
       units="px"
       dotted="true"
       spacingy="4px" />
    <sodipodi:guide
       orientation="0,1"
       position="-1040,1600"
       id="guide2985" />
  </sodipodi:namedview>
  <metadata
     id="metadata5594">
    <rdf:RDF>
      <cc:Work
         rdf:about="">
        <dc:format>image/svg+xml</dc:format>
        <dc:type
           rdf:resource="http://purl.org/dc/dcmitype/StillImage" />
        <dc:title />
      </cc:Work>
    </rdf:RDF>
  </metadata>
  <g
     inkscape:label="Layer 1"
     inkscape:groupmode="layer"
     id="layer1"
     transform="translate(0,1048)">
    <path
       style="color:#000000;font-style:normal;font-variant:normal;font-weight:normal;font-stretch:normal;font-size:medium;line-height:normal;font-family:sans-serif;text-indent:0;text-align:start;text-decoration:none;text-decoration-line:none;text-decoration-style:solid;text-decoration-color:#000000;letter-spacing:normal;word-spacing:normal;text-transform:none;direction:ltr;block-progression:tb;writing-mode:lr-tb;baseline-shift:baseline;text-anchor:start;white-space:normal;clip-rule:nonzero;display:inline;overflow:visible;visibility:visible;opacity:1;isolation:auto;mix-blend-mode:normal;color-interpolation:sRGB;color-interpolation-filters:linearRGB;solid-color:#000000;solid-opacity:1;fill:#000000;fill-opacity:1;fill-rule:evenodd;stroke:none;stroke-width:140;stroke-linecap:round;stroke-linejoin:round;stroke-miterlimit:4;stroke-dasharray:none;stroke-dashoffset:0;stroke-opacity:1;color-rendering:auto;image-rendering:auto;shape-rendering:auto;text-rendering:auto;enable-background:accumulate"
       d="M 1414.9375 435.67773 C 1410.6773 435.66954 1406.4191 435.71419 1402.1641 435.81055 C 1393.0866 436.0161 1384.0233 436.45816 1374.9922 437.13672 C 1230.4947 447.99361 1086.16 522.24218 1017.457 664.42188 A 70.007 70.007 0 0 0 1016.8027 665.81445 C 955.59197 799.9407 964.70632 936.52696 967.59375 1057.9668 L 704.85938 1059.7832 C 781.82065 945.9756 794.80319 790.06897 716.02344 666.58203 C 599.95583 459.90967 295.30353 425.76645 138.07031 605.41602 C -35.472187 780.66575 30.180748 1096.6762 260.0957 1187.5391 A 70.007 70.007 0 1 0 311.55078 1057.3379 C 179.87397 1005.2989 138.21558 802.26612 238.76172 702.58008 A 70.007 70.007 0 0 0 242.4707 698.60742 C 332.17039 594.67407 529.3111 617.37282 594.88672 736.63477 A 70.007 70.007 0 0 0 597.42969 740.89453 C 668.14846 850.35434 603.86051 1025.7603 479.41992 1064.3379 A 70.007 70.007 0 0 0 500.63086 1201.1973 L 967.30273 1197.9707 C 967.17447 1257.6898 967.04626 1317.4079 966.91797 1377.127 A 70.007 70.007 0 0 0 1036.918 1447.2773 L 2169.3164 1447.2773 C 2170.3692 1524.1066 2170.914 1593.297 2149.8672 1652.2773 C 2127.5335 1700.2319 2090.4592 1725.4283 2036.3887 1742.2969 C 1981.4303 1759.4424 1911.7441 1763.0055 1848.2578 1760.6602 A 70.007 70.007 0 0 0 1846.1504 1760.6152 C 1449.5846 1757.9224 1054.1674 1763.3757 660.25586 1755.3359 A 70.007 70.007 0 0 0 660.22266 1755.3359 C 388.74605 1749.9196 112.91336 1636.0369 -45.611328 1418.5273 A 70.007 70.007 0 0 0 -46.640625 1417.1523 C -234.73519 1171.9506 -258.57114 813.46838 -105.55273 544.95898 A 70.007 70.007 0 0 0 -165.67578 439.43359 A 70.007 70.007 0 0 0 -227.1875 475.64062 C -409.26097 795.13446 -381.89815 1209.5868 -158.16406 1501.7617 C 31.78859 1761.772 349.30245 1889.151 657.39844 1895.3066 C 1054.3642 1903.4088 1450.2775 1897.9363 1844.7812 1900.6094 C 1915.8175 1903.1507 1998.5357 1900.7597 2078.082 1875.9434 C 2158.249 1850.9334 2237.9592 1798.1298 2278.7266 1707.248 A 70.007 70.007 0 0 0 2280.5645 1702.7383 C 2321.604 1591.0276 2311.4462 1482.2138 2309.5371 1387.7773 A 70.007 70.007 0 0 0 2310.3867 1377.3496 L 2311.2715 513.18945 A 70.007 70.007 0 1 0 2171.2715 513.04688 L 2170.459 1307.2773 L 1107.0664 1307.2773 C 1107.1454 1270.5193 1107.2257 1233.7619 1107.3047 1197.0039 L 1786.2207 1192.3105 A 70.007 70.007 0 0 0 1855.7148 1120.5918 C 1852.0186 970.24334 1900.9217 763.50647 1768.8418 594.44727 A 70.007 70.007 0 0 0 1767.9043 593.27344 C 1680.7457 486.51441 1547.0029 435.93165 1414.9375 435.67773 z M 1414.3535 575.72852 C 1509.4279 576.15535 1603.4036 613.58051 1659.0195 681.31445 C 1731.8163 775.19505 1718.0734 905.89563 1715.6797 1052.7949 L 1108.752 1056.9902 C 1108.0719 932.14225 1101.345 818.48335 1143.873 724.6543 C 1187.5365 635.03175 1280.9932 584.59499 1385.4824 576.74414 C 1392.0299 576.25219 1398.5895 575.93844 1405.1504 575.80273 C 1408.2183 575.73928 1411.2866 575.71475 1414.3535 575.72852 z "
       transform="translate(0,-1048)"
       id="path4139-0-3-8-4-2" />
    <path
       style="fill:none;fill-rule:evenodd;stroke:#000000;stroke-width:140;stroke-linecap:round;stroke-linejoin:round;stroke-miterlimit:4;stroke-dasharray:none;stroke-opacity:1"
       d="m 239.09786,1852.6994 c -57.01238,-25.0851 -105.63779,-68.8181 -136.6056,-122.8613 -30.967815,-54.0432 -44.112411,-118.1074 -36.927719,-179.9787 7.184693,-61.8712 34.660249,-121.2186 77.188349,-166.7272 42.52809,-45.5085 99.88127,-76.935 161.12493,-88.2878 72.03653,-13.3535 148.92149,1.4906 210.80969,40.7006 61.8882,39.2101 108.1508,102.3877 126.84671,173.2258 18.69591,70.8381 9.63517,148.617 -24.84352,213.2606 -34.47869,64.6436 -94.02497,115.4951 -163.26905,139.4291 l 1285.58975,-8.8863 3.1226,-182.1148 c 0.9114,-53.1557 1.0587,-106.7744 -9.6964,-158.8387 -10.755,-52.0643 -32.4591,-102.1541 -65.482,-143.8176 -33.0229,-41.6635 -76.8446,-74.4202 -125.5037,-95.8364 -48.6591,-21.4163 -101.7561,-31.7206 -154.866,-34.1079 -56.4975,-2.5395 -113.7872,3.8585 -167.0097,22.984 -53.2225,19.1255 -101.9253,51.2685 -139.1176,93.8732 -37.1922,42.6046 -62.2569,95.1312 -75.2465,150.1738 -12.98953,55.0426 -13.96677,112.1125 -14.08822,168.6669 l -0.932,433.9824 1203.46982,0 0.885,-864.1599"
       id="path4139-0-3-8-4-2-6"
       inkscape:path-effect="#path-effect4141-5-7-7-9-5-9"
       inkscape:original-d="m 239.09786,1852.6994 c 0,0 -121.94671,-544.5343 64.77996,-557.855 194.84413,-13.8998 173.07973,431.7363 149.54383,566.6161 l 1285.58975,-8.8863 3.1226,-182.1148 c 3.1756,-185.2061 -168.9502,-428.0203 -355.5481,-432.6006 -196.0766,-4.813 -401.57192,94.4487 -395.46202,435.6979 l -0.932,433.9824 1203.46982,0 0.885,-864.1599"
       inkscape:connector-curvature="0"
       sodipodi:nodetypes="caccsacccc" />
    <path
       style="fill:none;fill-rule:evenodd;stroke:#000000;stroke-width:140;stroke-linecap:round;stroke-linejoin:round;stroke-miterlimit:4;stroke-dasharray:none;stroke-opacity:1"
       d="m 2193.2749,2058.261 0,192 c 0,53.987 -2.7559,109.4715 -25.1415,158.5987 -22.3857,49.1272 -62.9895,89.1449 -111.3328,113.1766 -48.3432,24.0318 -102.7994,33.089 -156.6813,36.4552 -53.882,3.3662 -107.9332,2.2124 -161.9202,2.1398 l -952.47415,-1.2807 c -154.08255,-0.2072 -310.02748,-4.6044 -458.24838,-46.7 C 179.25566,2470.555 40.870357,2392.3094 -68.109321,2283.3833 -201.33573,2150.2223 -289.62508,1972.8674 -315.56432,1786.2976 c -25.93925,-186.5697 10.62059,-381.2828 102.46891,-545.7364"
       id="path4153-0"
       inkscape:path-effect="#path-effect4155-9"
       inkscape:original-d="m 2193.2749,2058.261 0,192 c 0,207.7801 -247.2959,310.6497 -455.0758,310.3703 l -952.47415,-1.2807 C 440.23208,2558.886 124.16147,2512.5068 -68.109321,2283.3833 -293.70538,2014.547 -213.09541,1240.5612 -213.09541,1240.5612"
       inkscape:connector-curvature="0"
       sodipodi:nodetypes="csssac" />
  </g>
</svg>
