<?xml version="1.0" encoding="UTF-8" standalone="no"?>
<!-- Created with Inkscape (http://www.inkscape.org/) -->

<svg
   xmlns:dc="http://purl.org/dc/elements/1.1/"
   xmlns:cc="http://creativecommons.org/ns#"
   xmlns:rdf="http://www.w3.org/1999/02/22-rdf-syntax-ns#"
   xmlns:svg="http://www.w3.org/2000/svg"
   xmlns="http://www.w3.org/2000/svg"
   xmlns:sodipodi="http://sodipodi.sourceforge.net/DTD/sodipodi-0.dtd"
   xmlns:inkscape="http://www.inkscape.org/namespaces/inkscape"
   width="2000"
   height="2048"
   id="svg2992"
   version="1.1"
   inkscape:version="0.91 r13725"
   sodipodi:docname="ഘ്ര.svg">
  <defs
     id="defs5498">
    <inkscape:path-effect
       effect="spiro"
       id="path-effect4155"
       is_visible="true" />
    <inkscape:path-effect
       effect="spiro"
       id="path-effect4141-5-7-7-9-5"
       is_visible="true" />
    <inkscape:path-effect
       effect="spiro"
       id="path-effect4141-5-7-7-9-5-9"
       is_visible="true" />
    <inkscape:path-effect
       effect="spiro"
       id="path-effect4155-9"
       is_visible="true" />
    <inkscape:path-effect
       effect="spiro"
       id="path-effect4155-9-2"
       is_visible="true" />
    <inkscape:path-effect
       effect="spiro"
       id="path-effect4141-5-7-7-9-5-9-1"
       is_visible="true" />
    <inkscape:path-effect
       effect="spiro"
       id="path-effect4141-5-7-7-9-5-9-1-1"
       is_visible="true" />
    <inkscape:path-effect
       effect="spiro"
       id="path-effect4155-9-2-7"
       is_visible="true" />
  </defs>
  <sodipodi:namedview
     inkscape:window-height="704"
     inkscape:window-width="1366"
     inkscape:pageshadow="2"
     inkscape:pageopacity="0.0"
     borderopacity="1.0"
     bordercolor="#666666"
     pagecolor="#ffffff"
     id="base"
     showgrid="true"
     showguides="true"
     inkscape:guide-bbox="true"
     inkscape:zoom="0.1135"
     inkscape:cx="-3712.4087"
     inkscape:cy="-1266.1186"
     inkscape:window-x="-4"
     inkscape:window-y="0"
     inkscape:current-layer="layer1"
     inkscape:window-maximized="1">
    <sodipodi:guide
       orientation="horizontal"
       position="0,600"
       id="guide5596" />
    <inkscape:grid
       type="xygrid"
       id="grid3769"
       empspacing="3"
       visible="true"
       enabled="true"
       snapvisiblegridlinesonly="true"
       spacingx="4px"
       units="px"
       dotted="true"
       spacingy="4px" />
    <sodipodi:guide
       orientation="0,1"
       position="-1040,1600"
       id="guide2985" />
  </sodipodi:namedview>
  <metadata
     id="metadata5594">
    <rdf:RDF>
      <cc:Work
         rdf:about="">
        <dc:format>image/svg+xml</dc:format>
        <dc:type
           rdf:resource="http://purl.org/dc/dcmitype/StillImage" />
        <dc:title />
      </cc:Work>
    </rdf:RDF>
  </metadata>
  <g
     inkscape:label="Layer 1"
     inkscape:groupmode="layer"
     id="layer1"
     transform="translate(0,1048)">
    <path
       style="color:#000000;font-style:normal;font-variant:normal;font-weight:normal;font-stretch:normal;font-size:medium;line-height:normal;font-family:sans-serif;text-indent:0;text-align:start;text-decoration:none;text-decoration-line:none;text-decoration-style:solid;text-decoration-color:#000000;letter-spacing:normal;word-spacing:normal;text-transform:none;direction:ltr;block-progression:tb;writing-mode:lr-tb;baseline-shift:baseline;text-anchor:start;white-space:normal;clip-rule:nonzero;display:inline;overflow:visible;visibility:visible;opacity:1;isolation:auto;mix-blend-mode:normal;color-interpolation:sRGB;color-interpolation-filters:linearRGB;solid-color:#000000;solid-opacity:1;fill:#000000;fill-opacity:1;fill-rule:evenodd;stroke:none;stroke-width:140;stroke-linecap:round;stroke-linejoin:round;stroke-miterlimit:4;stroke-dasharray:none;stroke-dashoffset:0;stroke-opacity:1;color-rendering:auto;image-rendering:auto;shape-rendering:auto;text-rendering:auto;enable-background:accumulate"
       d="M 1414.9375 435.67773 C 1410.6773 435.66954 1406.4191 435.71419 1402.1641 435.81055 C 1393.0866 436.0161 1384.0233 436.45816 1374.9922 437.13672 C 1230.4947 447.99361 1086.16 522.24218 1017.457 664.42188 A 70.007 70.007 0 0 0 1016.8027 665.81445 C 955.59197 799.9407 964.70632 936.52696 967.59375 1057.9668 L 704.85938 1059.7832 C 781.82065 945.9756 794.80319 790.06897 716.02344 666.58203 C 599.95583 459.90967 295.30353 425.76645 138.07031 605.41602 C -35.472187 780.66575 30.180748 1096.6762 260.0957 1187.5391 A 70.007 70.007 0 1 0 311.55078 1057.3379 C 179.87397 1005.2989 138.21558 802.26612 238.76172 702.58008 A 70.007 70.007 0 0 0 242.4707 698.60742 C 332.17039 594.67407 529.3111 617.37282 594.88672 736.63477 A 70.007 70.007 0 0 0 597.42969 740.89453 C 668.14846 850.35434 603.86051 1025.7603 479.41992 1064.3379 A 70.007 70.007 0 0 0 500.63086 1201.1973 L 967.30273 1197.9707 C 967.17447 1257.6898 967.04626 1317.4079 966.91797 1377.127 A 70.007 70.007 0 0 0 1036.918 1447.2773 L 2169.3164 1447.2773 C 2170.3692 1524.1066 2170.914 1593.297 2149.8672 1652.2773 C 2127.5335 1700.2319 2090.4592 1725.4283 2036.3887 1742.2969 C 1981.4303 1759.4424 1911.7441 1763.0055 1848.2578 1760.6602 A 70.007 70.007 0 0 0 1846.1504 1760.6152 C 1449.5846 1757.9224 1054.1674 1763.3757 660.25586 1755.3359 A 70.007 70.007 0 0 0 660.22266 1755.3359 C 388.74605 1749.9196 112.91336 1636.0369 -45.611328 1418.5273 A 70.007 70.007 0 0 0 -46.640625 1417.1523 C -234.73519 1171.9506 -258.57114 813.46838 -105.55273 544.95898 A 70.007 70.007 0 0 0 -165.67578 439.43359 A 70.007 70.007 0 0 0 -227.1875 475.64062 C -409.26097 795.13446 -381.89815 1209.5868 -158.16406 1501.7617 C 31.78859 1761.772 349.30245 1889.151 657.39844 1895.3066 C 1054.3642 1903.4088 1450.2775 1897.9363 1844.7812 1900.6094 C 1915.8175 1903.1507 1998.5357 1900.7597 2078.082 1875.9434 C 2158.249 1850.9334 2237.9592 1798.1298 2278.7266 1707.248 A 70.007 70.007 0 0 0 2280.5645 1702.7383 C 2321.604 1591.0276 2311.4462 1482.2138 2309.5371 1387.7773 A 70.007 70.007 0 0 0 2310.3867 1377.3496 L 2311.2715 513.18945 A 70.007 70.007 0 1 0 2171.2715 513.04688 L 2170.459 1307.2773 L 1107.0664 1307.2773 C 1107.1454 1270.5193 1107.2257 1233.7619 1107.3047 1197.0039 L 1786.2207 1192.3105 A 70.007 70.007 0 0 0 1855.7148 1120.5918 C 1852.0186 970.24334 1900.9217 763.50647 1768.8418 594.44727 A 70.007 70.007 0 0 0 1767.9043 593.27344 C 1680.7457 486.51441 1547.0029 435.93165 1414.9375 435.67773 z M 1414.3535 575.72852 C 1509.4279 576.15535 1603.4036 613.58051 1659.0195 681.31445 C 1731.8163 775.19505 1718.0734 905.89563 1715.6797 1052.7949 L 1108.752 1056.9902 C 1108.0719 932.14225 1101.345 818.48335 1143.873 724.6543 C 1187.5365 635.03175 1280.9932 584.59499 1385.4824 576.74414 C 1392.0299 576.25219 1398.5895 575.93844 1405.1504 575.80273 C 1408.2183 575.73928 1411.2866 575.71475 1414.3535 575.72852 z "
       transform="translate(0,-1048)"
       id="path4139-0-3-8-4-2" />
    <path
       style="fill:none;fill-rule:evenodd;stroke:#000000;stroke-width:140;stroke-linecap:round;stroke-linejoin:round;stroke-miterlimit:4;stroke-dasharray:none;stroke-opacity:1"
       d="m 239.09786,1852.6994 c -57.01238,-25.0851 -105.63779,-68.8181 -136.6056,-122.8613 -30.967815,-54.0432 -44.112411,-118.1074 -36.927719,-179.9787 7.184693,-61.8712 34.660249,-121.2186 77.188349,-166.7272 42.52809,-45.5085 99.88127,-76.935 161.12493,-88.2878 72.03653,-13.3535 148.92149,1.4906 210.80969,40.7006 61.8882,39.2101 108.1508,102.3877 126.84671,173.2258 18.69591,70.8381 9.63517,148.617 -24.84352,213.2606 -34.47869,64.6436 -94.02497,115.4951 -163.26905,139.4291 l 1285.58975,-8.8863 3.1226,-182.1148 c 0.9114,-53.1557 1.0587,-106.7744 -9.6964,-158.8387 -10.755,-52.0643 -32.4591,-102.1541 -65.482,-143.8176 -33.0229,-41.6635 -76.8446,-74.4202 -125.5037,-95.8364 -48.6591,-21.4163 -101.7561,-31.7206 -154.866,-34.1079 -56.4975,-2.5395 -113.7872,3.8585 -167.0097,22.984 -53.2225,19.1255 -101.9253,51.2685 -139.1176,93.8732 -37.1922,42.6046 -62.2569,95.1312 -75.2465,150.1738 -12.98953,55.0426 -13.96677,112.1125 -14.08822,168.6669 l -0.932,433.9824 1203.46982,0 0.885,-864.1599"
       id="path4139-0-3-8-4-2-6"
       inkscape:path-effect="#path-effect4141-5-7-7-9-5-9"
       inkscape:original-d="m 239.09786,1852.6994 c 0,0 -121.94671,-544.5343 64.77996,-557.855 194.84413,-13.8998 173.07973,431.7363 149.54383,566.6161 l 1285.58975,-8.8863 3.1226,-182.1148 c 3.1756,-185.2061 -168.9502,-428.0203 -355.5481,-432.6006 -196.0766,-4.813 -401.57192,94.4487 -395.46202,435.6979 l -0.932,433.9824 1203.46982,0 0.885,-864.1599"
       inkscape:connector-curvature="0"
       sodipodi:nodetypes="caccsacccc" />
    <path
       style="fill:none;fill-rule:evenodd;stroke:#000000;stroke-width:140;stroke-linecap:round;stroke-linejoin:round;stroke-miterlimit:4;stroke-dasharray:none;stroke-opacity:1"
       d="m 2193.2749,2058.261 0,192 c 0,53.987 -2.7559,109.4715 -25.1415,158.5987 -22.3857,49.1272 -62.9895,89.1449 -111.3328,113.1766 -48.3432,24.0318 -102.7994,33.089 -156.6813,36.4552 -53.882,3.3662 -107.9332,2.2124 -161.9202,2.1398 l -952.47415,-1.2807 c -154.08255,-0.2072 -310.02748,-4.6044 -458.24838,-46.7 C 179.25566,2470.555 40.870357,2392.3094 -68.109321,2283.3833 -201.33573,2150.2223 -289.62508,1972.8674 -315.56432,1786.2976 c -25.93925,-186.5697 10.62059,-381.2828 102.46891,-545.7364"
       id="path4153-0"
       inkscape:path-effect="#path-effect4155-9"
       inkscape:original-d="m 2193.2749,2058.261 0,192 c 0,207.7801 -247.2959,310.6497 -455.0758,310.3703 l -952.47415,-1.2807 C 440.23208,2558.886 124.16147,2512.5068 -68.109321,2283.3833 -293.70538,2014.547 -213.09541,1240.5612 -213.09541,1240.5612"
       inkscape:connector-curvature="0"
       sodipodi:nodetypes="csssac" />
    <path
       style="fill:none;fill-rule:evenodd;stroke:#000000;stroke-width:70;stroke-linecap:round;stroke-linejoin:round;stroke-miterlimit:4;stroke-dasharray:none;stroke-opacity:1"
       d="m -4077.6685,89.437585 c -60.644,-26.650022 -112.3754,-73.140792 -145.327,-130.604808 -32.9516,-57.464016 -46.947,-125.593677 -39.3169,-191.394147 7.6301,-65.80048 36.845,-128.91954 82.0722,-177.31805 45.2273,-48.39852 106.2248,-81.81742 171.3582,-93.88249 76.6054,-14.19011 158.3634,1.61042 224.1652,43.32213 65.8019,41.71172 114.9785,108.91052 134.8333,184.24666 19.8549,75.33614 10.186,158.04368 -26.5103,226.768728 -36.6963,68.72505 -100.0468,122.768878 -173.6954,148.178161 l 1365.1004,-9.449316 3.3158,-193.653203 c 0.9672,-56.48488 1.1252,-113.45993 -10.2808,-168.78969 -11.4059,-55.32975 -34.4259,-108.57121 -69.4712,-152.88039 -35.0453,-44.30918 -81.5673,-79.17615 -133.2496,-101.98882 -51.6823,-22.81267 -108.1003,-33.81133 -164.5364,-36.35035 -60.0323,-2.70081 -120.9067,4.14772 -177.4377,24.52954 -56.531,20.38182 -108.2374,54.60188 -147.7088,99.91387 -39.4715,45.312 -66.0569,101.14287 -79.8336,159.63539 -13.7766,58.49252 -14.8115,119.13111 -14.9404,179.22399 l -0.9896,461.47859 1277.9017,0 0.9397,-918.91122"
       id="path4139-0-3-8-4-2-6-7"
       inkscape:path-effect="#path-effect4141-5-7-7-9-5-9-1"
       inkscape:original-d="m -4077.6685,89.437585 c 0,0 -129.4887,-579.034835 68.7865,-593.199495 206.8949,-14.78046 183.7843,459.090183 158.7928,602.515679 l 1365.1004,-9.449316 3.3158,-193.653203 c 3.3719,-196.94037 -179.3994,-455.13875 -377.538,-460.00925 -208.2035,-5.11795 -426.4083,100.43277 -419.9205,463.30279 l -0.9896,461.47859 1277.9017,0 0.9397,-918.91122"
       inkscape:connector-curvature="0"
       sodipodi:nodetypes="caccsacccc" />
    <path
       style="fill:none;fill-rule:evenodd;stroke:#000000;stroke-width:70;stroke-linecap:round;stroke-linejoin:round;stroke-miterlimit:4;stroke-dasharray:none;stroke-opacity:1"
       d="m -2002.6302,344.02314 0,146.16469 c 0,57.34935 -2.9193,116.28532 -26.6654,168.48754 -23.7461,52.20222 -66.8284,94.75653 -118.1531,120.34403 -51.3248,25.5875 -109.1637,35.27392 -166.3991,38.88672 -57.2355,3.6128 -114.6542,2.39364 -172.0035,2.31642 l -1011.3825,-1.36183 c -163.6651,-0.22038 -329.3119,-4.84398 -486.7572,-49.53491 -157.4454,-44.69092 -304.4794,-127.86565 -419.8847,-243.91711 -138.313,-139.08738 -230.1319,-323.64243 -257.6414,-517.8562528 -27.5094,-194.2138272 9.4433,-397.0087472 103.6883,-569.0368272"
       id="path4153-0-8"
       inkscape:path-effect="#path-effect4155-9-2"
       inkscape:original-d="m -2002.6302,344.02314 0,146.16469 c 0,220.94462 -262.5906,330.33179 -483.2211,330.03471 l -1011.3825,-1.36183 c -366.8607,-0.49398 -702.1911,-50.34422 -906.6419,-293.45202 -235.5152,-280.04588 -153.9531,-1086.89308 -153.9531,-1086.89308"
       inkscape:connector-curvature="0"
       sodipodi:nodetypes="csssac" />
    <path
       style="color:#000000;font-style:normal;font-variant:normal;font-weight:normal;font-stretch:normal;font-size:medium;line-height:normal;font-family:sans-serif;text-indent:0;text-align:start;text-decoration:none;text-decoration-line:none;text-decoration-style:solid;text-decoration-color:#000000;letter-spacing:normal;word-spacing:normal;text-transform:none;direction:ltr;block-progression:tb;writing-mode:lr-tb;baseline-shift:baseline;text-anchor:start;white-space:normal;clip-rule:nonzero;display:inline;overflow:visible;visibility:visible;opacity:1;isolation:auto;mix-blend-mode:normal;color-interpolation:sRGB;color-interpolation-filters:linearRGB;solid-color:#000000;solid-opacity:1;fill:#000000;fill-opacity:1;fill-rule:evenodd;stroke:none;stroke-width:70;stroke-linecap:round;stroke-linejoin:round;stroke-miterlimit:4;stroke-dasharray:none;stroke-dashoffset:0;stroke-opacity:1;color-rendering:auto;image-rendering:auto;shape-rendering:auto;text-rendering:auto;enable-background:accumulate"
       d="M -3073.6113 3136.082 C -3129.6817 3135.8401 -3186.515 3143.7752 -3240.5195 3163.2461 C -3302.4034 3185.5578 -3359.0656 3222.9496 -3402.748 3273.0957 C -3446.4597 3323.2753 -3475.3189 3384.2621 -3490.2598 3447.6973 C -3505.1842 3511.0631 -3506.0012 3574.4249 -3506.1309 3634.8691 L -3506.4766 3796.0449 L -3913.3223 3798.8613 C -3882.7816 3771.7252 -3856.8911 3739.3398 -3837.5195 3703.0605 C -3796.5309 3626.2968 -3785.8619 3535.0348 -3808.0391 3450.8867 C -3830.2163 3366.7385 -3884.4798 3292.5887 -3957.9785 3245.998 C -4031.4771 3199.4073 -4121.69 3181.9743 -4207.2559 3197.8242 C -4279.9225 3211.2847 -4347.3523 3248.2285 -4397.8105 3302.2246 C -4448.2686 3356.2208 -4480.5655 3425.9955 -4489.0781 3499.4062 C -4497.5907 3572.8171 -4482.1183 3648.1339 -4445.3555 3712.2441 C -4408.5928 3776.3543 -4351.406 3827.7482 -4283.748 3857.4805 A 35.0035 35.0035 0 1 0 -4255.5859 3793.3945 C -4309.2159 3769.8268 -4355.4904 3728.2397 -4384.6309 3677.4219 C -4413.7714 3626.6041 -4426.2906 3565.6609 -4419.543 3507.4707 C -4412.7954 3449.2807 -4386.6623 3392.8184 -4346.666 3350.0176 C -4306.6695 3307.2167 -4252.1061 3277.322 -4194.5059 3266.6523 C -4126.861 3254.122 -4053.5581 3268.2884 -3995.4531 3305.1211 C -3937.348 3341.9538 -3893.259 3402.2024 -3875.7266 3468.7266 C -3858.1942 3535.2506 -3866.8616 3609.4036 -3899.2656 3670.0898 C -3931.6695 3730.7762 -3988.468 3779.2308 -4053.502 3801.668 A 35.0035 35.0035 0 0 0 -4041.8457 3869.752 L -3506.625 3866.0469 L -3507.1191 4096.3477 A 35.0035 35.0035 0 0 0 -3472.1191 4131.4238 L -2229.6309 4131.4238 L -2229.6309 4226.1875 C -2229.6309 4282.3491 -2233.0716 4336.0349 -2253.1543 4380.1836 C -2273.2623 4424.388 -2310.6078 4461.5318 -2355.0645 4483.6953 C -2400.1493 4506.1719 -2453.2632 4515.5182 -2508.0527 4518.9766 C -2563.3254 4522.4655 -2619.9908 4521.3005 -2677.8047 4521.2227 L -3689.1875 4519.8613 C -3852.2252 4519.6418 -4014.5818 4514.7594 -4166.4336 4471.6562 C -4318.4116 4428.5174 -4460.2384 4348.1693 -4571.0586 4236.7285 C -4703.9171 4103.1262 -4792.4386 3925.1994 -4818.8633 3738.6445 C -4845.2878 3552.0897 -4809.6612 3356.576 -4719.1328 3191.332 A 35.0035 35.0035 0 0 0 -4750.0762 3139.082 A 35.0035 35.0035 0 0 0 -4780.5234 3157.6992 C -4878.4851 3336.5114 -4916.7661 3546.5881 -4888.1719 3748.4609 C -4859.5775 3950.3338 -4764.4609 4141.5154 -4620.6934 4286.0879 C -4500.703 4406.7501 -4348.4616 4492.7533 -4185.5488 4538.9961 C -4022.51 4585.2747 -3853.5738 4589.6401 -3689.2812 4589.8613 L -2677.8984 4591.2227 C -2621.0137 4591.2997 -2562.8409 4592.5726 -2503.6426 4588.8359 C -2443.9613 4585.0687 -2381.3968 4575.0402 -2323.832 4546.3418 C -2265.6393 4517.3303 -2216.8217 4469.3681 -2189.4375 4409.168 C -2162.028 4348.9123 -2159.6309 4284.7247 -2159.6309 4226.1875 L -2159.6309 4101.5781 A 35.0035 35.0035 0 0 0 -2159.2168 4096.459 L -2158.2773 3177.5488 A 35.0035 35.0035 0 1 0 -2228.2773 3177.4766 L -2229.1816 4061.4238 L -3437.043 4061.4238 L -3436.623 3865.5625 L -2676.7441 3860.3027 A 35.0035 35.0035 0 0 0 -2641.9922 3825.9043 L -2638.6758 3632.25 C -2637.7029 3575.4275 -2637.2938 3515.8407 -2649.6719 3455.7949 C -2662.0615 3395.6932 -2687.089 3337.4292 -2725.9707 3288.2695 C -2764.8231 3239.1469 -2815.9025 3200.9722 -2872.5391 3175.9727 C -2929.0278 3151.0385 -2989.7132 3139.3736 -3049.6367 3136.6777 C -3057.6051 3136.3192 -3065.5994 3136.1166 -3073.6094 3136.082 L -3073.6113 3136.082 z M -3073.8945 3206.0859 C -3066.8641 3206.1139 -3059.8229 3206.2907 -3052.7832 3206.6074 C -2999.8345 3208.9895 -2947.6845 3219.3207 -2900.8086 3240.0117 C -2854.0806 3260.6376 -2812.1151 3292.1978 -2780.877 3331.6934 C -2749.668 3371.1521 -2728.6546 3419.37 -2718.2324 3469.9277 C -2707.7986 3520.5416 -2707.7065 3574.9054 -2708.668 3631.0527 L -2711.3984 3790.541 L -3436.4746 3795.5605 L -3436.1309 3635.0195 C -3436.0027 3575.278 -3434.7518 3517.3633 -3422.123 3463.7441 C -3409.5105 3410.1943 -3385.1979 3359.5184 -3349.9668 3319.0742 C -3314.7064 3278.5964 -3267.9555 3247.5495 -3216.7773 3229.0977 C -3171.8526 3212.9004 -3123.1073 3205.8882 -3073.8945 3206.0859 z "
       transform="translate(0,-1048)"
       id="path4139-0-3-8-4-2-6-7-6" />
  </g>
</svg>
