<?xml version="1.0" encoding="UTF-8" standalone="no"?>
<!-- Created with Inkscape (http://www.inkscape.org/) -->

<svg
   xmlns:dc="http://purl.org/dc/elements/1.1/"
   xmlns:cc="http://creativecommons.org/ns#"
   xmlns:rdf="http://www.w3.org/1999/02/22-rdf-syntax-ns#"
   xmlns:svg="http://www.w3.org/2000/svg"
   xmlns="http://www.w3.org/2000/svg"
   xmlns:sodipodi="http://sodipodi.sourceforge.net/DTD/sodipodi-0.dtd"
   xmlns:inkscape="http://www.inkscape.org/namespaces/inkscape"
   width="2000"
   height="2048"
   id="svg2992"
   version="1.1"
   inkscape:version="0.91 r13725"
   sodipodi:docname="ങ.svg">
  <defs
     id="defs5498">
    <inkscape:path-effect
       effect="spiro"
       id="path-effect4372-5-0-7-0-2"
       is_visible="true" />
    <inkscape:path-effect
       effect="spiro"
       id="path-effect4372-5-0-7-0-2-7"
       is_visible="true" />
    <inkscape:path-effect
       effect="spiro"
       id="path-effect4372-5-0-7-0-2-7-2"
       is_visible="true" />
    <inkscape:path-effect
       effect="spiro"
       id="path-effect4372-5-0-7-0-2-7-1"
       is_visible="true" />
    <inkscape:path-effect
       effect="spiro"
       id="path-effect4372-5-0-7-0-2-7-25"
       is_visible="true" />
    <inkscape:path-effect
       effect="spiro"
       id="path-effect4372-5-0-7-0-2-7-25-6"
       is_visible="true" />
  </defs>
  <sodipodi:namedview
     inkscape:window-height="704"
     inkscape:window-width="1366"
     inkscape:pageshadow="2"
     inkscape:pageopacity="0.0"
     borderopacity="1.0"
     bordercolor="#666666"
     pagecolor="#ffffff"
     id="base"
     showgrid="true"
     showguides="true"
     inkscape:guide-bbox="true"
     inkscape:zoom="0.16051324"
     inkscape:cx="1261.7662"
     inkscape:cy="750.48009"
     inkscape:window-x="-6"
     inkscape:window-y="0"
     inkscape:current-layer="layer1"
     inkscape:window-maximized="1">
    <sodipodi:guide
       orientation="horizontal"
       position="0,600"
       id="guide5596" />
    <inkscape:grid
       type="xygrid"
       id="grid3769"
       empspacing="3"
       visible="true"
       enabled="true"
       snapvisiblegridlinesonly="true"
       spacingx="4px"
       units="px"
       dotted="true"
       spacingy="4px" />
    <sodipodi:guide
       orientation="0,1"
       position="-1040,1600"
       id="guide2985" />
  </sodipodi:namedview>
  <metadata
     id="metadata5594">
    <rdf:RDF>
      <cc:Work
         rdf:about="">
        <dc:format>image/svg+xml</dc:format>
        <dc:type
           rdf:resource="http://purl.org/dc/dcmitype/StillImage" />
        <dc:title />
      </cc:Work>
    </rdf:RDF>
  </metadata>
  <g
     inkscape:label="Layer 1"
     inkscape:groupmode="layer"
     id="layer1"
     transform="translate(0,1048)">
    <path
       style="fill:none;fill-rule:evenodd;stroke:#000000;stroke-width:142.01115417;stroke-linecap:round;stroke-linejoin:round;stroke-miterlimit:4;stroke-dasharray:none;stroke-opacity:1"
       d="m -1828.4204,175.56931 c -26.2339,-60.59684 -29.9298,-130.650651 -10.2175,-193.671468 19.7122,-63.020817 62.668,-118.482512 118.7559,-153.329952 56.0879,-34.84743 124.8397,-48.7897 190.0719,-38.54491 65.2322,10.24479 126.4002,44.59109 169.1057,94.95414 30.5579,36.037298 51.7173,79.995229 60.7022,126.382146 8.9849,46.386916 5.7617,95.098284 -9.3736,139.857604 -15.1354,44.75932 -42.1591,85.4546 -77.6223,116.67697 -35.4632,31.22237 -79.286,52.88327 -125.652,61.97532 -52.684,10.33096 -108.1955,4.35761 -158.1775,-15.24163 -49.9821,-19.59924 -94.4015,-52.58442 -129.0586,-93.58716 -69.314,-82.00546 -97.6844,-193.899046 -89.8379,-300.986709 8.7927,-120.002061 61.7758,-236.449661 147.233,-321.154261 85.4572,-84.70461 202.7794,-136.73859 322.9814,-142.15029 63.5994,-2.86335 128.0567,7.15731 186.7109,31.91118 58.6543,24.75387 111.0158,64.38429 150.3415,114.44988 39.3258,50.06559 65.167,110.00883 78.6915,172.21948 13.52455,62.21066 14.82313,126.34163 15.33552,190.003361 l 3.0509,379.056299 -2.26237,-377.813903 c -0.39276,-65.590594 0.13524,-131.745367 14.13226,-195.826287 13.99702,-64.08091 41.54832,-125.60064 83.22057,-176.25342 41.67225,-50.65278 96.84935,-89.82214 157.86963,-113.88052 61.02028,-24.05838 127.35635,-33.27004 192.9117,-31.08453 74.25472,2.47554 149.21972,19.84397 212.19264,59.26861 62.97292,39.42464 112.92433,102.42747 127.61955,175.25563 6.91936,34.29169 5.91562,70.31938 -4.23559,103.79699 -10.15121,33.4776 -29.53804,64.10527 -55.50633,87.54552 -25.96829,23.44025 -58.18165,39.427371 -91.99278,48.40539 -33.81113,8.978019 -69.02085,11.016621 -103.96751,12.606591 l -69.5429,3.163996 59.69741,0.392996 c 34.24879,0.225464 68.69436,0.745859 102.35505,7.069492 33.66069,6.323634 66.47777,18.528001 94.61507,38.055491 28.1373,19.5274893 51.32953,46.314588 65.77791,77.367361 14.44839,31.052774 20.06279,66.164213 15.95644,100.166693 -7.00197,57.97959 -42.57625,111.06879 -91.62416,142.76995 -49.0479,31.70116 -110.41515,42.45523 -168.05813,33.07719 -38.63516,-6.28562 -75.82351,-21.30611 -107.9864,-43.61604"
       id="path4370-9-0-9-5-7-8"
       inkscape:path-effect="#path-effect4372-5-0-7-0-2-7"
       inkscape:original-d="m -1828.4204,175.56931 c 30.9935,-181.9782111 325.4151,-407.09745 467.716,-290.59219 120.2794,98.475808 -0.8534,412.33757 -151.9457,444.89204 -180.0189,38.78701 -381.5827,-222.84058 -377.074,-409.815499 5.3486,-221.806471 252.134,-473.262621 470.2144,-463.304551 219.9357,10.04279 431.44959,426.1087 431.07942,508.583901 l 3.0509,379.056299 -2.26237,-377.813903 c -14.50465,-216.659787 223.94306,-488.169067 448.13416,-517.044757 135.83088,-17.49494 327.90377,95.89362 339.81219,234.52424 10.33312,120.29195 -146.29432,247.376755 -255.70221,252.354491 l -69.5429,3.163996 59.69741,0.392996 c 120.61008,0.79399 283.3385,102.651231 278.70447,222.659037 -4.079,105.63446 -156.23867,164.79587 -259.68229,175.84714 -38.52141,4.11538 -63.57386,-21.42883 -107.9864,-43.61604"
       inkscape:connector-curvature="0"
       sodipodi:nodetypes="caaaacccaascsaac" />
    <path
       style="color:#000000;font-style:normal;font-variant:normal;font-weight:normal;font-stretch:normal;font-size:medium;line-height:normal;font-family:sans-serif;text-indent:0;text-align:start;text-decoration:none;text-decoration-line:none;text-decoration-style:solid;text-decoration-color:#000000;letter-spacing:normal;word-spacing:normal;text-transform:none;direction:ltr;block-progression:tb;writing-mode:lr-tb;baseline-shift:baseline;text-anchor:start;white-space:normal;clip-rule:nonzero;display:inline;overflow:visible;visibility:visible;opacity:1;isolation:auto;mix-blend-mode:normal;color-interpolation:sRGB;color-interpolation-filters:linearRGB;solid-color:#000000;solid-opacity:1;fill:#000000;fill-opacity:1;fill-rule:evenodd;stroke:none;stroke-width:142.01115417;stroke-linecap:round;stroke-linejoin:round;stroke-miterlimit:4;stroke-dasharray:none;stroke-dashoffset:0;stroke-opacity:1;color-rendering:auto;image-rendering:auto;shape-rendering:auto;text-rendering:auto;enable-background:accumulate"
       d="m 1490.8164,-621.37109 c -64.9459,0.69472 -130.9122,11.61069 -193.5644,36.3125 -71.8976,28.34692 -136.859,74.29308 -186.6582,134.82421 a 71.012678,71.012678 0 0 0 0,0.002 c -16.9308,20.57945 -31.615,42.5365 -44.4747,65.34961 -10.9458,-19.19548 -23.1432,-37.81602 -37.0214,-55.48438 C 982.10291,-500.19616 920.24495,-546.95125 850.52539,-576.375 781.02677,-605.70551 706.2022,-617.0978 633.01367,-613.80273 494.45602,-607.56464 361.44671,-548.49196 263.23828,-451.14844 165.09413,-353.86862 105.24299,-222.1482 95.175781,-84.751953 86.15438,38.371336 117.89761,168.2296 201.60156,267.25977 c 41.84659,49.5087 95.48662,89.59127 157.36524,113.85546 62.05205,24.33221 130.76541,31.95235 197.76367,18.81446 58.97316,-11.56422 113.89481,-38.72885 158.9082,-78.35938 45.00311,-39.62145 78.79745,-90.54133 97.96485,-147.22461 C 832.76659,117.67519 836.7763,56.850438 825.42383,-1.7597656 814.07385,-60.357035 787.6898,-115.13328 749.16797,-160.5625 695.13105,-224.28881 619.46271,-266.77711 536.92188,-279.74023 c -82.54084,-12.96313 -167.59037,4.28509 -238.56055,48.3789 -9.64468,5.99224 -18.92669,12.47568 -27.88672,19.33985 21.87533,-51.66403 53.35982,-99.2359 92.73633,-138.26563 72.70601,-72.0657 174.34312,-117.0612 276.18945,-121.64648 54.01021,-2.43163 108.09826,6.21729 155.9082,26.39453 47.589,20.08399 90.45456,52.59037 122.11133,92.89258 31.65282,40.29714 53.59917,90.32743 65.14649,143.44336 11.57298,53.23395 13.20908,112.410231 13.71679,175.490229 l 3.04688,378.535161 0.002,0.375 0.002,0.14648 a 71.012678,71.012678 0 0 0 142.00782,-0.99609 l -2.2637,-377.814457 c -0.3888,-64.923651 0.5957,-125.758993 12.4981,-180.250003 11.8734,-54.35899 35.1789,-105.56544 68.6855,-146.29297 33.5453,-40.77442 78.9371,-73.16573 129.0801,-92.93554 50.438,-19.88611 107.1814,-28.08677 164.502,-26.17578 64.7914,2.16004 127.4384,17.53375 176.8789,48.48632 48.4489,30.33173 85.6003,79.08717 95.6953,129.11719 4.7488,23.5344 3.8394,47.96462 -2.584,69.14844 -6.3561,20.96185 -18.9533,40.83699 -35.1328,55.44141 -16.2078,14.62995 -38.2236,26.00326 -62.6387,32.48632 -24.5701,6.5242 -54.6137,8.73765 -88.9707,10.30079 l -69.543,3.16406 a 71.012678,71.012678 0 0 0 2.7598,141.937498 l 59.6973,0.392578 c 33.8429,0.222795 63.9964,1.018405 89.7129,5.849609 25.5982,4.808997 48.9637,13.921453 67.2402,26.605469 18.1639,12.60588 33.1079,30.122856 41.8848,48.986328 8.7801,18.870418 12.3249,41.121378 9.8398,61.699218 -4.1883,34.68128 -27.8327,71.0705 -59.6738,91.65039 -32.5198,21.01851 -76.8442,29.34078 -118.1114,22.62695 -28.0669,-4.56624 -55.5548,-15.66773 -78.9199,-31.875 a 71.012678,71.012678 0 1 0 -80.9394,116.68555 c 40.9607,28.41255 87.8512,47.35244 137.0547,55.35742 74.0188,12.04224 152.4278,-1.14355 218.0039,-43.52734 66.2546,-42.82241 113.7585,-112.61273 123.5742,-193.89063 5.7276,-47.42712 -1.9556,-95.399625 -22.0723,-138.634761 -18.4411,-39.6339665 -46.4666,-73.131973 -80.3476,-98.828125 2.2003,-1.859396 4.4504,-3.626858 6.6035,-5.570313 35.7571,-32.276081 61.9346,-73.657021 75.8808,-119.650391 13.879,-45.7714 14.9768,-93.39633 5.8867,-138.44531 -19.2953,-95.6263 -82.0458,-172.877 -159.5429,-221.39453 -76.5053,-47.89671 -163.7879,-67.25975 -247.5059,-70.05078 -9.2238,-0.30751 -18.4798,-0.41761 -27.7578,-0.31836 z M 478.34375,-141.73828 c 12.30065,-0.33885 24.56598,0.40745 36.54687,2.28906 47.92359,7.52645 94.59077,33.73068 125.96485,70.73047 22.59403,26.645382 38.52862,59.7863301 45.14844,93.962891 6.6173,34.163626 4.17981,70.76127 -6.92774,103.609379 -11.10325,32.83536 -31.35602,63.30563 -57.27929,86.1289 -25.91299,22.81422 -58.63563,38.97192 -92.39454,45.5918 -38.36976,7.52404 -80.67979,3.19635 -118.59179,-11.66992 -38.08545,-14.93429 -73.28449,-40.8216 -100.75196,-73.31836 -5.05347,-5.97877 -9.7651,-12.27857 -14.31054,-18.72266 a 71.012678,71.012678 0 0 0 -3.29102,-9.12109 C 273.18396,103.22403 270.36388,49.777487 284.8457,3.4785156 299.32752,-42.820449 332.10102,-85.135249 373.30664,-110.73633 c 30.90422,-19.2008 68.13516,-29.98541 105.03711,-31.00195 z"
       id="path4370-9-0-9-5-7-8-1"
       inkscape:connector-curvature="0" />
    <path
       style="fill:none;fill-rule:evenodd;stroke:#000000;stroke-width:70;stroke-linecap:round;stroke-linejoin:round;stroke-miterlimit:4;stroke-dasharray:none;stroke-opacity:1"
       d="m 2336.668,198.98881 c -28.1715,-65.24151 -32.1163,-140.622975 -10.9083,-208.4485575 21.208,-67.8255835 67.3928,-127.5323125 127.7124,-165.1039925 60.3197,-37.57169 134.2735,-52.69647 204.5008,-41.82381 70.2273,10.87267 136.1452,47.65253 182.2794,101.70551 33.1329,38.819983 56.1177,86.247947 65.9258,136.333659 9.8081,50.085712 6.4023,102.715311 -9.9071,151.076251 -16.3094,48.36094 -45.4968,92.33102 -83.82,126.03723 -38.3232,33.70621 -85.6951,57.05185 -135.7968,66.77796 -56.8009,11.02661 -116.6154,4.46791 -170.4423,-16.75941 -53.8268,-21.22732 -101.6318,-56.8636 -138.9152,-101.11151 -74.5668,-88.49581 -105.0222,-209.07373 -96.6337,-324.491885 9.4041,-129.391405 66.2594,-255.037315 158.2315,-346.534325 91.9721,-91.497 218.4379,-147.80817 348.0428,-153.56559 68.5633,-3.04578 138.0408,7.87478 201.2201,34.68107 63.1793,26.80629 119.5341,69.64717 161.8354,123.69159 42.3013,54.04443 70.0724,118.69347 84.6054,185.768 14.5331,67.07452 15.9262,136.205975 16.4772,204.834664 l 3.2849,409.160736 -2.4359,-407.819676 c -0.4224,-70.712108 0.1408,-142.028264 15.1754,-211.124874 15.0346,-69.0966 44.6337,-135.45651 89.4542,-190.15116 44.8205,-54.69465 104.2081,-97.06096 169.9445,-123.12052 65.7365,-26.05957 137.2533,-36.08999 207.9267,-33.71157 80.0014,2.69234 160.7419,21.5762 228.5113,64.17646 67.7695,42.60026 121.4639,110.52115 137.3605,188.97354 7.4914,36.97117 6.476,75.81738 -4.4017,111.93751 -10.8777,36.12012 -31.716,69.18993 -59.676,94.51241 -27.96,25.322472 -62.678,42.607193 -99.13,52.314743 -36.452,9.70755 -74.4205,11.912849 -112.1038,13.631673 l -74.8761,3.415272 64.2755,0.424212 c 36.9201,0.243669 74.0538,0.808068 110.3352,7.649962 36.2814,6.841894 71.6447,20.044773 101.9407,41.1469866 30.296,21.1022134 55.2369,50.0316774 70.7488,83.5359414 15.5118,33.50426 21.5008,71.35758 17.0532,108.00961 -7.5797,62.46376 -45.8079,119.69172 -98.5927,153.93989 -52.7848,34.24818 -118.8965,45.96286 -181.0042,35.87292 -41.6178,-6.76118 -81.6709,-22.97979 -116.2677,-47.08"
       id="path4370-9-0-9-5-7-8-0"
       inkscape:path-effect="#path-effect4372-5-0-7-0-2-7-25"
       inkscape:original-d="m 2336.668,198.98881 c 33.3703,-196.4308159 350.3706,-439.42889 503.5843,-313.67085 129.5034,106.2966967 -0.9188,445.08518 -163.5981,480.2251 -193.8243,41.86745 -410.8456,-240.53844 -405.9912,-442.362805 5.7588,-239.422215 271.4697,-510.848845 506.2743,-500.099915 236.8022,10.84039 464.5367,459.95 464.1381,548.975324 l 3.2849,409.160736 -2.4359,-407.819676 c -15.6169,-233.866774 241.1169,-526.939144 482.5008,-558.108124 146.2475,-18.88438 353.0502,103.50943 365.8718,253.15 11.1255,129.84547 -157.5133,267.023267 -275.3115,272.396336 l -74.8761,3.415272 64.2755,0.424212 c 129.8595,0.857048 305.0672,110.803729 300.0779,240.3425 -4.3918,114.02388 -168.2204,177.88385 -279.5969,189.81281 -41.4755,4.44222 -68.4493,-23.1307 -116.2677,-47.08"
       inkscape:connector-curvature="0"
       sodipodi:nodetypes="caaaacccaascsaac" />
    <path
       style="color:#000000;font-style:normal;font-variant:normal;font-weight:normal;font-stretch:normal;font-size:medium;line-height:normal;font-family:sans-serif;text-indent:0;text-align:start;text-decoration:none;text-decoration-line:none;text-decoration-style:solid;text-decoration-color:#000000;letter-spacing:normal;word-spacing:normal;text-transform:none;direction:ltr;block-progression:tb;writing-mode:lr-tb;baseline-shift:baseline;text-anchor:start;white-space:normal;clip-rule:nonzero;display:inline;overflow:visible;visibility:visible;opacity:1;isolation:auto;mix-blend-mode:normal;color-interpolation:sRGB;color-interpolation-filters:linearRGB;solid-color:#000000;solid-opacity:1;fill:#000000;fill-opacity:1;fill-rule:evenodd;stroke:none;stroke-width:70;stroke-linecap:round;stroke-linejoin:round;stroke-miterlimit:4;stroke-dasharray:none;stroke-dashoffset:0;stroke-opacity:1;color-rendering:auto;image-rendering:auto;shape-rendering:auto;text-rendering:auto;enable-background:accumulate"
       d="m 3584.2344,530.56641 c -65.6604,0.71641 -131.8137,11.86424 -193.9043,36.47851 -71.1041,28.18745 -135.3079,73.90802 -184.1192,133.47266 -35.2785,43.0506 -61.4747,92.32823 -79.4316,144.19922 -16.9076,-47.91719 -40.7158,-93.65316 -72.4961,-134.25586 -46.0674,-58.85598 -107.0932,-105.2175 -175.7266,-134.33789 -68.5261,-29.0749 -143.1273,-40.68465 -216.4433,-37.42774 -138.7045,6.16165 -272.9192,65.97167 -371.1738,163.71875 -98.217,97.70958 -158.4305,230.88086 -168.4551,368.81054 -8.9602,123.2844 23.1401,252.6954 104.7754,349.5801 40.816,48.4404 93.1576,87.5819 152.8418,111.1191 59.7701,23.5711 126.0889,30.956 189.9511,18.5586 56.3357,-10.9363 109.1968,-36.9959 152.2422,-74.8554 43.0403,-37.855 75.572,-86.8796 93.8692,-141.1348 18.295,-54.2488 22.0821,-112.8632 11.0918,-168.9863 -10.9891,-56.1167 -36.5699,-108.8807 -73.6524,-152.3282 -51.732,-60.61163 -124.7983,-101.38029 -203.5469,-113.57223 -78.7485,-12.19193 -160.7207,4.57256 -228.3593,46.70312 -57.7892,35.99546 -103.5068,89.57761 -130.4473,151.84371 0.1931,-7.2963 0.5225,-14.5843 1.0508,-21.8535 8.7835,-120.85308 62.2805,-238.97529 148.0078,-324.25974 85.6896,-85.24694 204.4068,-138.05892 324.9121,-143.41211 63.8106,-2.83465 128.1636,7.39787 185.9961,31.93555 57.7252,24.49218 109.4081,63.81011 147.9434,113.04297 38.5339,49.2312 64.3963,109.00247 77.9609,171.60742 13.5772,62.66275 15.1368,129.36131 15.6855,197.70511 l 3.2832,409.0879 0,0.072 a 35.0035,35.0035 0 0 0 70,-0.4902 l -2.4375,-407.8203 c -0.4204,-70.3857 0.3675,-139.0875 14.377,-203.47268 13.9953,-64.32039 41.5144,-125.60738 82.3262,-175.41015 40.8297,-49.82468 95.4027,-88.8359 155.7715,-112.76758 60.5122,-23.98855 127.2754,-33.50805 193.8496,-31.26758 75.2942,2.53394 149.9519,20.41365 211.0625,58.82812 60.6304,38.11266 108.0524,99.02149 121.6836,166.29297 6.4215,31.69107 5.4417,64.83106 -3.6114,94.89258 -9.0196,29.95036 -26.5227,57.71097 -49.6582,78.66406 -23.1487,20.96506 -52.8318,35.96456 -84.6406,44.43556 -31.8857,8.4914 -67.3023,10.7828 -104.6934,12.4883 l -74.875,3.416 a 35.0035,35.0035 0 0 0 1.3633,69.9629 l 64.2754,0.4238 c 36.7183,0.2424 71.7277,0.9441 104.0801,7.0449 32.2937,6.0899 62.9892,17.758 88.4219,35.4727 25.378,17.6767 46.2626,42.0267 58.9922,69.5215 12.7321,27.5003 17.7181,59.0267 14.0703,89.0879 -6.1924,51.0311 -38.5754,100.0369 -82.8985,128.7949 -44.6477,28.9686 -102.3469,39.4594 -156.3418,30.6875 -36.3815,-5.9105 -71.6291,-20.184 -101.873,-41.252 a 35.0035,35.0035 0 1 0 -40.0117,57.4375 c 38.9496,27.1324 83.8061,45.2964 130.6601,52.9082 70.2206,11.4079 144.7461,-1.5308 205.668,-41.0586 61.2465,-39.7384 105.3201,-105.1875 114.2871,-179.0839 5.2474,-43.2429 -1.7456,-87.4236 -20.0371,-126.9317 -18.2941,-39.5138 -47.2919,-73.023 -82.5059,-97.5508 -14.1437,-9.8515 -29.0988,-18.0568 -44.5175,-24.9218 20.5922,-10.3026 40.0896,-23.17 57.5664,-38.9981 32.7845,-29.6919 56.9595,-68.07333 69.6953,-110.36327 12.7021,-42.17878 13.7507,-86.72918 5.1894,-128.98047 -18.1622,-89.63324 -78.1268,-164.56643 -153.0351,-211.6543 -74.4283,-46.78602 -161.2524,-66.67461 -245.961,-69.52539 -9.3466,-0.31455 -18.7176,-0.42461 -28.0976,-0.32226 z M 2504.3047,965.81445 c 11.7541,0.19453 23.4731,1.17554 35.043,2.9668 61.706,9.5534 120.4753,42.34555 161.0117,89.83985 29.1833,34.1925 49.574,76.2829 58.2011,120.3379 8.6259,44.0483 5.5992,90.691 -8.7246,133.164 -14.3216,42.4668 -40.1653,81.384 -73.7714,110.9415 -33.601,29.5528 -75.4839,50.1852 -119.3516,58.7011 -49.7396,9.6558 -103.048,3.9226 -150.9317,-14.9609 -47.9694,-18.9174 -91.2394,-51.0481 -124.9902,-91.1035 -8.0634,-9.5697 -15.5373,-19.6178 -22.5,-30.0293 a 35.0035,35.0035 0 0 0 -2.7617,-9.9766 c -24.7532,-57.3252 -28.2694,-124.5333 -9.6348,-184.1289 18.6348,-59.5958 59.81,-112.829 112.8106,-145.8418 43.0629,-26.82289 94.6653,-40.75311 145.5996,-39.91015 z"
       id="path4370-9-0-9-5-7-8-0-2"
       inkscape:connector-curvature="0" />
  </g>
</svg>
