<?xml version="1.0" encoding="UTF-8" standalone="no"?>
<!-- Created with Inkscape (http://www.inkscape.org/) -->

<svg
   xmlns:dc="http://purl.org/dc/elements/1.1/"
   xmlns:cc="http://creativecommons.org/ns#"
   xmlns:rdf="http://www.w3.org/1999/02/22-rdf-syntax-ns#"
   xmlns:svg="http://www.w3.org/2000/svg"
   xmlns="http://www.w3.org/2000/svg"
   xmlns:sodipodi="http://sodipodi.sourceforge.net/DTD/sodipodi-0.dtd"
   xmlns:inkscape="http://www.inkscape.org/namespaces/inkscape"
   width="2000"
   height="2048"
   id="svg2992"
   version="1.1"
   inkscape:version="0.91 r13725"
   sodipodi:docname="ങ.svg">
  <defs
     id="defs5498">
    <inkscape:path-effect
       effect="spiro"
       id="path-effect4372-5-0-7-0-2"
       is_visible="true" />
    <inkscape:path-effect
       effect="spiro"
       id="path-effect4372-5-0-7-0-2-7"
       is_visible="true" />
    <inkscape:path-effect
       effect="spiro"
       id="path-effect4372-5-0-7-0-2-7-2"
       is_visible="true" />
    <inkscape:path-effect
       effect="spiro"
       id="path-effect4372-5-0-7-0-2-7-1"
       is_visible="true" />
    <inkscape:path-effect
       effect="spiro"
       id="path-effect4372-5-0-7-0-2-7-25"
       is_visible="true" />
    <inkscape:path-effect
       effect="spiro"
       id="path-effect4372-5-0-7-0-2-7-25-6"
       is_visible="true" />
    <inkscape:path-effect
       effect="spiro"
       id="path-effect4372-5-0-7-0-2-7-3"
       is_visible="true" />
    <inkscape:path-effect
       effect="spiro"
       id="path-effect4372-5-0-7-0-2-7-35"
       is_visible="true" />
  </defs>
  <sodipodi:namedview
     inkscape:window-height="851"
     inkscape:window-width="1600"
     inkscape:pageshadow="2"
     inkscape:pageopacity="0.0"
     borderopacity="1.0"
     bordercolor="#666666"
     pagecolor="#ffffff"
     id="base"
     showgrid="true"
     showguides="true"
     inkscape:guide-bbox="true"
     inkscape:zoom="0.5"
     inkscape:cx="-230.91209"
     inkscape:cy="989.2383"
     inkscape:window-x="1599"
     inkscape:window-y="-1"
     inkscape:current-layer="layer1"
     inkscape:window-maximized="1">
    <sodipodi:guide
       orientation="horizontal"
       position="0,600"
       id="guide5596" />
    <inkscape:grid
       type="xygrid"
       id="grid3769"
       empspacing="3"
       visible="true"
       enabled="true"
       snapvisiblegridlinesonly="true"
       spacingx="4px"
       units="px"
       dotted="true"
       spacingy="4px" />
    <sodipodi:guide
       orientation="0,1"
       position="-1040,1600"
       id="guide2985" />
  </sodipodi:namedview>
  <metadata
     id="metadata5594">
    <rdf:RDF>
      <cc:Work
         rdf:about="">
        <dc:format>image/svg+xml</dc:format>
        <dc:type
           rdf:resource="http://purl.org/dc/dcmitype/StillImage" />
        <dc:title />
      </cc:Work>
    </rdf:RDF>
  </metadata>
  <g
     inkscape:label="Layer 1"
     inkscape:groupmode="layer"
     id="layer1"
     transform="translate(0,1048)">
    <path
       style="fill:none;fill-rule:evenodd;stroke:#000000;stroke-width:142.01115417;stroke-linecap:round;stroke-linejoin:round;stroke-miterlimit:4;stroke-dasharray:none;stroke-opacity:1"
       d="m 157.5796,181.56931 c -25.97379,-60.57115 -29.4797,-130.480388 -9.69621,-193.346236 19.7835,-62.865849 62.69282,-118.168504 118.67324,-152.949164 55.98042,-34.78066 124.56906,-48.75175 189.69389,-38.63949 65.12483,10.11226 126.24737,44.22426 169.04508,94.3427 30.73712,35.994838 52.07494,79.969675 61.18729,126.417108 9.11234,46.447433 5.96289,95.262032 -9.17802,140.107902 -15.1409,44.84587 -42.25108,85.60816 -77.84938,116.80368 -35.5983,31.19551 -79.6039,52.73204 -126.10559,61.56335 -52.56797,9.98338 -107.85162,3.66075 -157.55276,-16.15984 C 266.09599,299.88874 222.0019,266.81591 187.54909,225.87616 118.64347,143.99665 90.093627,32.890063 96.2759,-73.946339 103.33682,-195.96675 154.5326,-315.38467 239.88859,-402.8672 c 85.35599,-87.48253 204.46286,-141.80764 326.60171,-146.38369 64.33852,-2.41051 129.42105,8.79634 188.28118,34.88735 58.86012,26.091 111.01996,67.16546 150.00771,118.40228 38.98774,51.23681 64.40714,112.09146 77.70484,175.08691 13.29769,62.99545 14.56751,127.82579 15.08569,192.207361 l 3.05088,379.056299 -2.26235,-377.813903 c -0.39516,-65.992151 0.10392,-132.533677 13.93725,-197.060867 13.8333,-64.5272 41.0921,-126.5866 82.5543,-177.92869 41.4621,-51.34208 96.5523,-91.35301 157.7423,-116.06947 61.19,-24.71646 127.9501,-34.3711 193.9003,-31.98573 74.9109,2.70948 150.4112,21.2398 213.359,61.94065 62.9478,40.70085 112.2865,104.97454 126.4532,178.58359 6.604,34.31395 5.4788,70.26393 -4.6884,103.69578 -10.1671,33.43186 -29.4739,64.04696 -55.3677,87.51113 -25.8939,23.464164 -58.0402,39.501446 -91.803,48.508678 -33.7629,9.007233 -68.9355,11.050712 -103.8431,12.638903 l -69.5429,3.163996 59.6974,0.392996 c 34.2488,0.225464 68.6944,0.745859 102.3551,7.069492 33.6607,6.323632 66.4777,18.527999 94.615,38.0554877 28.1373,19.5274883 51.3296,46.3145863 65.778,77.3673603 14.4483,31.052774 20.0627,66.164217 15.9564,100.166697 -7.002,57.97959 -42.5763,111.0688 -91.6242,142.76996 -49.0479,31.70115 -110.4151,42.45522 -168.0581,33.07718 -38.6352,-6.28562 -75.8235,-21.30611 -107.9864,-43.61604"
       id="path4370-9-0-9-5-7-8"
       inkscape:path-effect="#path-effect4372-5-0-7-0-2-7"
       inkscape:original-d="M 157.5796,181.56931 C 188.5731,-0.408901 482.9947,-225.52814 625.2956,-109.02288 745.575,-10.547072 624.4422,303.31469 473.3499,335.86916 293.331,374.65617 92.916014,111.65537 96.2759,-73.946339 100.30968,-296.77401 343.84374,-559.09731 566.4903,-549.25089 c 225.07908,9.954 431.44959,438.1087 431.07942,520.583901 l 3.05088,379.056299 -2.26235,-377.813903 C 983.8536,-244.08438 1218.644,-522.25234 1446.4924,-550.46935 c 137.722,-17.05565 328.5245,102.20997 339.8122,240.52424 9.7405,119.35591 -146.2943,247.376755 -255.7022,252.354491 l -69.5429,3.163996 59.6974,0.392996 c 120.6101,0.79399 283.3385,102.651231 278.7045,222.659037 -4.079,105.63446 -156.2387,164.79587 -259.6823,175.84714 -38.5214,4.11538 -63.5739,-21.42883 -107.9864,-43.61604"
       inkscape:connector-curvature="0"
       sodipodi:nodetypes="caaaacccaascsaac" />
    <path
       style="fill:none;fill-rule:evenodd;stroke:#000000;stroke-width:70;stroke-linecap:round;stroke-linejoin:round;stroke-miterlimit:4;stroke-dasharray:none;stroke-opacity:1"
       d="m 2336.668,198.98881 c -28.1715,-65.24151 -32.1163,-140.622975 -10.9083,-208.4485575 21.208,-67.8255835 67.3928,-127.5323125 127.7124,-165.1039925 60.3197,-37.57169 134.2735,-52.69647 204.5008,-41.82381 70.2273,10.87267 136.1452,47.65253 182.2794,101.70551 33.1329,38.819983 56.1177,86.247947 65.9258,136.333659 9.8081,50.085712 6.4023,102.715311 -9.9071,151.076251 -16.3094,48.36094 -45.4968,92.33102 -83.82,126.03723 -38.3232,33.70621 -85.6951,57.05185 -135.7968,66.77796 -56.8009,11.02661 -116.6154,4.46791 -170.4423,-16.75941 -53.8268,-21.22732 -101.6318,-56.8636 -138.9152,-101.11151 -74.5668,-88.49581 -105.0222,-209.07373 -96.6337,-324.491885 9.4041,-129.391405 66.2594,-255.037315 158.2315,-346.534325 91.9721,-91.497 218.4379,-147.80817 348.0428,-153.56559 68.5633,-3.04578 138.0408,7.87478 201.2201,34.68107 63.1793,26.80629 119.5341,69.64717 161.8354,123.69159 42.3013,54.04443 70.0724,118.69347 84.6054,185.768 14.5331,67.07452 15.9262,136.205975 16.4772,204.834664 l 3.2849,409.160736 -2.4359,-407.819676 c -0.4224,-70.712108 0.1408,-142.028264 15.1754,-211.124874 15.0346,-69.0966 44.6337,-135.45651 89.4542,-190.15116 44.8205,-54.69465 104.2081,-97.06096 169.9445,-123.12052 65.7365,-26.05957 137.2533,-36.08999 207.9267,-33.71157 80.0014,2.69234 160.7419,21.5762 228.5113,64.17646 67.7695,42.60026 121.4639,110.52115 137.3605,188.97354 7.4914,36.97117 6.476,75.81738 -4.4017,111.93751 -10.8777,36.12012 -31.716,69.18993 -59.676,94.51241 -27.96,25.322472 -62.678,42.607193 -99.13,52.314743 -36.452,9.70755 -74.4205,11.912849 -112.1038,13.631673 l -74.8761,3.415272 64.2755,0.424212 c 36.9201,0.243669 74.0538,0.808068 110.3352,7.649962 36.2814,6.841894 71.6447,20.044773 101.9407,41.1469866 30.296,21.1022134 55.2369,50.0316774 70.7488,83.5359414 15.5118,33.50426 21.5008,71.35758 17.0532,108.00961 -7.5797,62.46376 -45.8079,119.69172 -98.5927,153.93989 -52.7848,34.24818 -118.8965,45.96286 -181.0042,35.87292 -41.6178,-6.76118 -81.6709,-22.97979 -116.2677,-47.08"
       id="path4370-9-0-9-5-7-8-0"
       inkscape:path-effect="#path-effect4372-5-0-7-0-2-7-25"
       inkscape:original-d="m 2336.668,198.98881 c 33.3703,-196.4308159 350.3706,-439.42889 503.5843,-313.67085 129.5034,106.2966967 -0.9188,445.08518 -163.5981,480.2251 -193.8243,41.86745 -410.8456,-240.53844 -405.9912,-442.362805 5.7588,-239.422215 271.4697,-510.848845 506.2743,-500.099915 236.8022,10.84039 464.5367,459.95 464.1381,548.975324 l 3.2849,409.160736 -2.4359,-407.819676 c -15.6169,-233.866774 241.1169,-526.939144 482.5008,-558.108124 146.2475,-18.88438 353.0502,103.50943 365.8718,253.15 11.1255,129.84547 -157.5133,267.023267 -275.3115,272.396336 l -74.8761,3.415272 64.2755,0.424212 c 129.8595,0.857048 305.0672,110.803729 300.0779,240.3425 -4.3918,114.02388 -168.2204,177.88385 -279.5969,189.81281 -41.4755,4.44222 -68.4493,-23.1307 -116.2677,-47.08"
       inkscape:connector-curvature="0"
       sodipodi:nodetypes="caaaacccaascsaac" />
    <path
       style="color:#000000;font-style:normal;font-variant:normal;font-weight:normal;font-stretch:normal;font-size:medium;line-height:normal;font-family:sans-serif;text-indent:0;text-align:start;text-decoration:none;text-decoration-line:none;text-decoration-style:solid;text-decoration-color:#000000;letter-spacing:normal;word-spacing:normal;text-transform:none;direction:ltr;block-progression:tb;writing-mode:lr-tb;baseline-shift:baseline;text-anchor:start;white-space:normal;clip-rule:nonzero;display:inline;overflow:visible;visibility:visible;opacity:1;isolation:auto;mix-blend-mode:normal;color-interpolation:sRGB;color-interpolation-filters:linearRGB;solid-color:#000000;solid-opacity:1;fill:#000000;fill-opacity:1;fill-rule:evenodd;stroke:none;stroke-width:70;stroke-linecap:round;stroke-linejoin:round;stroke-miterlimit:4;stroke-dasharray:none;stroke-dashoffset:0;stroke-opacity:1;color-rendering:auto;image-rendering:auto;shape-rendering:auto;text-rendering:auto;enable-background:accumulate"
       d="m 3584.2344,530.56641 c -65.6604,0.71641 -131.8137,11.86424 -193.9043,36.47851 -71.1041,28.18745 -135.3079,73.90802 -184.1192,133.47266 -35.2785,43.0506 -61.4747,92.32823 -79.4316,144.19922 -16.9076,-47.91719 -40.7158,-93.65316 -72.4961,-134.25586 -46.0674,-58.85598 -107.0932,-105.2175 -175.7266,-134.33789 -68.5261,-29.0749 -143.1273,-40.68465 -216.4433,-37.42774 -138.7045,6.16165 -272.9192,65.97167 -371.1738,163.71875 -98.217,97.70958 -158.4305,230.88086 -168.4551,368.81054 -8.9602,123.2844 23.1401,252.6954 104.7754,349.5801 40.816,48.4404 93.1576,87.5819 152.8418,111.1191 59.7701,23.5711 126.0889,30.956 189.9511,18.5586 56.3357,-10.9363 109.1968,-36.9959 152.2422,-74.8554 43.0403,-37.855 75.572,-86.8796 93.8692,-141.1348 18.295,-54.2488 22.0821,-112.8632 11.0918,-168.9863 -10.9891,-56.1167 -36.5699,-108.8807 -73.6524,-152.3282 -51.732,-60.61163 -124.7983,-101.38029 -203.5469,-113.57223 -78.7485,-12.19193 -160.7207,4.57256 -228.3593,46.70312 -57.7892,35.99546 -103.5068,89.57761 -130.4473,151.84371 0.1931,-7.2963 0.5225,-14.5843 1.0508,-21.8535 8.7835,-120.85308 62.2805,-238.97529 148.0078,-324.25974 85.6896,-85.24694 204.4068,-138.05892 324.9121,-143.41211 63.8106,-2.83465 128.1636,7.39787 185.9961,31.93555 57.7252,24.49218 109.4081,63.81011 147.9434,113.04297 38.5339,49.2312 64.3963,109.00247 77.9609,171.60742 13.5772,62.66275 15.1368,129.36131 15.6855,197.70511 l 3.2832,409.0879 0,0.072 a 35.0035,35.0035 0 0 0 70,-0.4902 l -2.4375,-407.8203 c -0.4204,-70.3857 0.3675,-139.0875 14.377,-203.47268 13.9953,-64.32039 41.5144,-125.60738 82.3262,-175.41015 40.8297,-49.82468 95.4027,-88.8359 155.7715,-112.76758 60.5122,-23.98855 127.2754,-33.50805 193.8496,-31.26758 75.2942,2.53394 149.9519,20.41365 211.0625,58.82812 60.6304,38.11266 108.0524,99.02149 121.6836,166.29297 6.4215,31.69107 5.4417,64.83106 -3.6114,94.89258 -9.0196,29.95036 -26.5227,57.71097 -49.6582,78.66406 -23.1487,20.96506 -52.8318,35.96456 -84.6406,44.43556 -31.8857,8.4914 -67.3023,10.7828 -104.6934,12.4883 l -74.875,3.416 a 35.0035,35.0035 0 0 0 1.3633,69.9629 l 64.2754,0.4238 c 36.7183,0.2424 71.7277,0.9441 104.0801,7.0449 32.2937,6.0899 62.9892,17.758 88.4219,35.4727 25.378,17.6767 46.2626,42.0267 58.9922,69.5215 12.7321,27.5003 17.7181,59.0267 14.0703,89.0879 -6.1924,51.0311 -38.5754,100.0369 -82.8985,128.7949 -44.6477,28.9686 -102.3469,39.4594 -156.3418,30.6875 -36.3815,-5.9105 -71.6291,-20.184 -101.873,-41.252 a 35.0035,35.0035 0 1 0 -40.0117,57.4375 c 38.9496,27.1324 83.8061,45.2964 130.6601,52.9082 70.2206,11.4079 144.7461,-1.5308 205.668,-41.0586 61.2465,-39.7384 105.3201,-105.1875 114.2871,-179.0839 5.2474,-43.2429 -1.7456,-87.4236 -20.0371,-126.9317 -18.2941,-39.5138 -47.2919,-73.023 -82.5059,-97.5508 -14.1437,-9.8515 -29.0988,-18.0568 -44.5175,-24.9218 20.5922,-10.3026 40.0896,-23.17 57.5664,-38.9981 32.7845,-29.6919 56.9595,-68.07333 69.6953,-110.36327 12.7021,-42.17878 13.7507,-86.72918 5.1894,-128.98047 -18.1622,-89.63324 -78.1268,-164.56643 -153.0351,-211.6543 -74.4283,-46.78602 -161.2524,-66.67461 -245.961,-69.52539 -9.3466,-0.31455 -18.7176,-0.42461 -28.0976,-0.32226 z M 2504.3047,965.81445 c 11.7541,0.19453 23.4731,1.17554 35.043,2.9668 61.706,9.5534 120.4753,42.34555 161.0117,89.83985 29.1833,34.1925 49.574,76.2829 58.2011,120.3379 8.6259,44.0483 5.5992,90.691 -8.7246,133.164 -14.3216,42.4668 -40.1653,81.384 -73.7714,110.9415 -33.601,29.5528 -75.4839,50.1852 -119.3516,58.7011 -49.7396,9.6558 -103.048,3.9226 -150.9317,-14.9609 -47.9694,-18.9174 -91.2394,-51.0481 -124.9902,-91.1035 -8.0634,-9.5697 -15.5373,-19.6178 -22.5,-30.0293 a 35.0035,35.0035 0 0 0 -2.7617,-9.9766 c -24.7532,-57.3252 -28.2694,-124.5333 -9.6348,-184.1289 18.6348,-59.5958 59.81,-112.829 112.8106,-145.8418 43.0629,-26.82289 94.6653,-40.75311 145.5996,-39.91015 z"
       id="path4370-9-0-9-5-7-8-0-2"
       inkscape:connector-curvature="0" />
    <path
       style="color:#000000;font-style:normal;font-variant:normal;font-weight:normal;font-stretch:normal;font-size:medium;line-height:normal;font-family:sans-serif;text-indent:0;text-align:start;text-decoration:none;text-decoration-line:none;text-decoration-style:solid;text-decoration-color:#000000;letter-spacing:normal;word-spacing:normal;text-transform:none;direction:ltr;block-progression:tb;writing-mode:lr-tb;baseline-shift:baseline;text-anchor:start;white-space:normal;clip-rule:nonzero;display:inline;overflow:visible;visibility:visible;opacity:1;isolation:auto;mix-blend-mode:normal;color-interpolation:sRGB;color-interpolation-filters:linearRGB;solid-color:#000000;solid-opacity:1;fill:#000000;fill-opacity:1;fill-rule:evenodd;stroke:none;stroke-width:142.01115417;stroke-linecap:round;stroke-linejoin:round;stroke-miterlimit:4;stroke-dasharray:none;stroke-dashoffset:0;stroke-opacity:1;color-rendering:auto;image-rendering:auto;shape-rendering:auto;text-rendering:auto;enable-background:accumulate"
       d="m 1421.0039,626.20117 c -65.6176,0.65212 -132.1232,12.07835 -195.0059,37.47852 -72.1412,29.13999 -136.942,76.06323 -186.3906,137.29492 -16.1293,19.97278 -30.1407,41.2081 -42.51365,63.20508 C 986.49242,845.15342 974.69101,826.65868 961.28516,809.04102 914.89056,748.07028 853.4393,699.70396 783.54688,668.72266 713.84564,637.8261 638.18891,625.00711 563.83203,627.79297 422.40867,633.09154 287.21909,694.94687 189.06641,795.54492 91.065295,895.9876 33.438785,1030.8364 25.388672,1169.9512 c -7.074643,122.2574 24.772162,250.9457 107.832028,349.6445 41.5403,49.3618 94.75029,89.5332 156.27344,114.0684 61.70329,24.607 130.17176,32.6741 197.10352,19.9629 59.22326,-11.2473 114.42443,-38.2822 159.65429,-77.918 a 71.012678,71.012678 0 0 0 0.002,0 c 45.21767,-39.6253 79.13948,-90.6651 98.32617,-147.4942 19.18166,-56.8142 23.09682,-117.7871 11.58008,-176.4902 -11.51377,-58.688 -38.12252,-113.4853 -76.86719,-158.8574 -54.14565,-63.4075 -129.75558,-105.60289 -212.14844,-118.3965 -82.39292,-12.79361 -167.23674,4.48732 -238.06055,48.4902 -11.85527,7.3657 -23.16403,15.4715 -33.97656,24.1426 21.28646,-56.91377 53.79298,-109.5306 95.60352,-152.3828 72.55928,-74.36701 175.58318,-121.16208 278.4375,-125.01562 54.32014,-2.03516 108.82865,7.56026 156.84765,28.8457 47.82784,21.2007 90.69646,54.98344 122.27735,96.48633 31.58729,41.5113 53.30681,92.60869 64.73633,146.75389 11.45304,54.2568 13.04288,114.2816 13.55664,178.1133 l 3.05078,379.0566 a 71.012678,71.012678 0 0 0 142.00781,-0.9961 l -2.2617,-377.8144 c -0.3913,-65.3483 0.5499,-126.6653 12.3594,-181.752 11.7817,-54.95732 34.9213,-106.78319 68.3691,-148.20113 33.4756,-41.45249 78.855,-74.55085 129.0937,-94.84375 50.5142,-20.40416 107.4361,-28.93594 164.7403,-26.86329 64.9465,2.34908 127.9107,18.62727 177.3711,50.60743 48.5317,31.37966 85.4471,81.27971 95.2812,132.37695 4.5817,23.80611 3.5741,48.34696 -2.8945,69.61719 a 71.012678,71.012678 0 0 0 -0,0 c -6.3975,21.0366 -18.9788,40.9323 -35.1132,55.5527 a 71.012678,71.012678 0 0 0 0,0 c -16.1547,14.6389 -38.0991,26.0277 -62.4258,32.5176 -24.4806,6.5308 -54.4592,8.7515 -88.7676,10.3125 l -69.543,3.164 a 71.012678,71.012678 0 0 0 2.7598,141.9375 l 59.6973,0.3926 c 33.843,0.2228 63.9963,1.0184 89.7129,5.8496 25.5982,4.809 48.9637,13.9215 67.2402,26.6055 18.1639,12.6059 33.1079,30.1229 41.8848,48.9863 8.7801,18.8705 12.3268,41.1212 9.8418,61.6992 -4.1883,34.6812 -27.8327,71.0705 -59.6739,91.6504 -32.5197,21.0185 -76.8462,29.3408 -118.1133,22.627 -28.0668,-4.5663 -55.5529,-15.6677 -78.9179,-31.875 a 71.012678,71.012678 0 1 0 -80.9414,116.6855 c 40.9607,28.4127 87.8511,47.3525 137.0547,55.3574 74.0189,12.0424 152.4278,-1.1434 218.0039,-43.5273 66.2546,-42.8225 113.7587,-112.6126 123.5742,-193.8906 5.7275,-47.427 -1.9556,-95.3997 -22.0723,-138.6348 -18.485,-39.7283 -46.5999,-73.2902 -80.5898,-99.0098 2.2104,-1.8744 4.4725,-3.6558 6.6347,-5.6152 35.6534,-32.3077 61.6864,-73.6415 75.6231,-119.4687 l -0,0 c 13.8658,-45.5934 15.1088,-92.95365 6.4824,-137.77543 -18.4992,-96.12086 -80.263,-174.76899 -157.6269,-224.79102 -76.4352,-49.42154 -164.4705,-70.2016 -249.3457,-73.27148 -9.3245,-0.33727 -18.6808,-0.46426 -28.0547,-0.3711 z M 408.86914,1112.5684 c 12.27883,-0.3538 24.52215,0.3727 36.48633,2.2304 47.85678,7.431 94.4936,33.4597 125.94336,70.2891 22.72954,26.6175 38.79495,59.7697 45.50586,93.9766 6.70795,34.1917 4.32477,70.847 -6.77539,103.7246 -11.09511,32.8625 -31.39219,63.3493 -57.3711,86.1152 -25.96673,22.7552 -58.77654,38.7917 -92.55664,45.207 -38.20418,7.2555 -80.30296,2.6788 -118.00195,-12.3554 -37.87915,-15.1061 -72.85735,-41.0818 -100.22266,-73.5997 -6.43224,-7.6433 -12.42083,-15.7103 -18.03711,-24.0898 a 71.012678,71.012678 0 0 0 -1.00195,-2.4805 c -19.08672,-44.5104 -21.76049,-97.8521 -7.22266,-144.0488 14.53786,-46.1968 47.27706,-88.3928 88.41407,-113.9512 30.85276,-19.1688 68.00335,-29.9563 104.83984,-31.0175 z"
       id="path4370-9-0-9-5-7-8-1"
       inkscape:connector-curvature="0" />
  </g>
</svg>
