<?xml version="1.0" encoding="UTF-8" standalone="no"?>
<!-- Created with Inkscape (http://www.inkscape.org/) -->

<svg
   xmlns:dc="http://purl.org/dc/elements/1.1/"
   xmlns:cc="http://creativecommons.org/ns#"
   xmlns:rdf="http://www.w3.org/1999/02/22-rdf-syntax-ns#"
   xmlns:svg="http://www.w3.org/2000/svg"
   xmlns="http://www.w3.org/2000/svg"
   xmlns:sodipodi="http://sodipodi.sourceforge.net/DTD/sodipodi-0.dtd"
   xmlns:inkscape="http://www.inkscape.org/namespaces/inkscape"
   width="2000"
   height="2048"
   id="svg2992"
   version="1.1"
   inkscape:version="0.91pre3 r13670"
   sodipodi:docname="ങ.svg">
  <defs
     id="defs5498">
    <inkscape:path-effect
       effect="spiro"
       id="path-effect4372-5-0-7-0-2"
       is_visible="true" />
    <inkscape:path-effect
       effect="spiro"
       id="path-effect4372-5-0-7-0-2-7"
       is_visible="true" />
  </defs>
  <sodipodi:namedview
     inkscape:window-height="853"
     inkscape:window-width="1600"
     inkscape:pageshadow="2"
     inkscape:pageopacity="0.0"
     borderopacity="1.0"
     bordercolor="#666666"
     pagecolor="#ffffff"
     id="base"
     showgrid="true"
     showguides="true"
     inkscape:guide-bbox="true"
     inkscape:zoom="0.32102648"
     inkscape:cx="229.32195"
     inkscape:cy="1228.9448"
     inkscape:window-x="1598"
     inkscape:window-y="-3"
     inkscape:current-layer="layer1"
     inkscape:window-maximized="1">
    <sodipodi:guide
       orientation="horizontal"
       position="0,600"
       id="guide5596" />
    <inkscape:grid
       type="xygrid"
       id="grid3769"
       empspacing="3"
       visible="true"
       enabled="true"
       snapvisiblegridlinesonly="true"
       spacingx="4px"
       units="px"
       dotted="true"
       spacingy="4px" />
    <sodipodi:guide
       orientation="0,1"
       position="-1040,1600"
       id="guide2985" />
  </sodipodi:namedview>
  <metadata
     id="metadata5594">
    <rdf:RDF>
      <cc:Work
         rdf:about="">
        <dc:format>image/svg+xml</dc:format>
        <dc:type
           rdf:resource="http://purl.org/dc/dcmitype/StillImage" />
        <dc:title />
      </cc:Work>
    </rdf:RDF>
  </metadata>
  <g
     inkscape:label="Layer 1"
     inkscape:groupmode="layer"
     id="layer1"
     transform="translate(0,1048)">
    <path
       style="color:#000000;font-style:normal;font-variant:normal;font-weight:normal;font-stretch:normal;font-size:medium;line-height:normal;font-family:sans-serif;text-indent:0;text-align:start;text-decoration:none;text-decoration-line:none;text-decoration-style:solid;text-decoration-color:#000000;letter-spacing:normal;word-spacing:normal;text-transform:none;direction:ltr;block-progression:tb;writing-mode:lr-tb;baseline-shift:baseline;text-anchor:start;white-space:normal;clip-rule:nonzero;display:inline;overflow:visible;visibility:visible;opacity:1;isolation:auto;mix-blend-mode:normal;color-interpolation:sRGB;color-interpolation-filters:linearRGB;solid-color:#000000;solid-opacity:1;fill:#000000;fill-opacity:1;fill-rule:evenodd;stroke:none;stroke-width:140;stroke-linecap:round;stroke-linejoin:round;stroke-miterlimit:4;stroke-dasharray:none;stroke-dashoffset:0;stroke-opacity:1;color-rendering:auto;image-rendering:auto;shape-rendering:auto;text-rendering:auto;enable-background:accumulate"
       d="m 1478.3262,-605.47266 c -69.7134,1.46617 -141.0099,14.01592 -208.0684,42.83789 -67.3428,28.94423 -128.0718,73.73911 -174.6543,131.93555 -13.9645,17.44604 -26.2362,35.89415 -37.2363,54.94922 -11.5981,-20.41869 -24.6482,-40.16637 -39.6152,-58.79492 -47.06295,-58.57647 -108.72454,-103.85344 -177.76958,-131.99805 -68.80588,-28.04711 -142.46559,-38.42694 -214.28906,-34.91797 -135.8201,6.63556 -266.80774,63.24258 -364.57031,157.89258 C 164.34644,-348.90479 103.44492,-219.65402 92.982422,-83.871094 83.578847,38.169022 115.8497,166.75113 199.61133,263.88672 c 41.8618,48.54575 95.35354,87.52931 156.76953,110.73828 61.58156,23.27155 129.50555,29.91013 195.45312,16.15234 57.2109,-11.93517 110.39472,-38.73433 154.05469,-77.41796 43.65104,-38.67571 76.56262,-88.14025 95.49805,-143.1836 C 820.31835,115.14352 824.77077,56.040332 814.47656,-1.1269531 804.18439,-58.282932 779.43301,-111.98264 742.86328,-156.95508 c -52.5344,-64.60538 -127.25919,-108.27882 -209.33203,-122.3418 -82.07284,-14.06299 -167.07506,2.23976 -238.12109,45.66993 -8.5293,5.21392 -16.78475,10.80589 -24.78321,16.71093 21.79126,-47.08456 51.95567,-90.32258 88.87696,-126.06836 72.5517,-70.24179 173.06648,-113.71037 274.02148,-118.64257 53.58599,-2.61797 107.1449,5.37877 154.60938,24.72656 47.22529,19.25029 89.89994,50.737 121.47851,90.04101 31.56625,39.28868 53.57292,88.34935 65.1543,140.49805 11.60814,52.2696 13.27263,110.538101 13.78125,172.718752 l 3.02929,370.167968 0.002,0.35156 0.002,0.14844 a 70.007,70.007 0 0 0 139.99607,-1 l -2.248,-369.451171 c -0.375,-61.614869 0.5534,-119.241609 11.6347,-170.812499 11.0572,-51.458 32.7406,-99.99981 63.9375,-138.97461 31.2453,-39.03532 73.5568,-70.56366 120.6368,-90.79883 47.3645,-20.35743 100.9274,-30.33766 155.7304,-31.49023 67.7154,-1.42414 134.0625,11.13615 187.3516,41.05468 l 0,-0.002 c 52.2145,29.31521 93.4183,78.92755 105.6797,131.17383 10.1252,43.14397 1.2001,93.13805 -23.2285,130.11328 -19.7191,29.8468 -51.2555,53.5169 -85.625,65.619141 -12.2739,2.336877 -24.4127,5.555305 -36.295,9.763672 a 70.007,70.007 0 0 0 35.3907,134.945313 c 11.8178,-2.060226 23.4231,-4.882578 34.8164,-8.28125 12.5942,-1.414788 25.52,-0.722117 37.5312,2.201172 19.7062,4.79607 38.882,15.988086 52.75,30.787109 13.8681,14.799088 23.7935,34.661013 27.3008,54.636723 3.5074,19.97569 0.9425,42.03173 -7.0547,60.66992 -12.6572,29.49899 -42.3473,56.28211 -76.9199,69.32617 -35.4833,13.38766 -78.6142,14.9058 -120.6523,5.75976 -30.2392,-6.57898 -59.5716,-18.23532 -86.0782,-34.20703 a 70.007,70.007 0 1 0 -72.2539,119.91407 c 39.7363,23.94335 83.2385,41.23109 128.5703,51.09375 63.9601,13.91549 133.8251,13.33134 199.836,-11.57422 66.9215,-25.24914 126.0377,-74.91965 156.1543,-145.10938 18.9416,-44.14533 24.5965,-92.77014 16.289,-140.08398 -8.3073,-47.313859 -30.188,-91.102039 -63.0351,-126.154299 -12.9481,-13.817362 -27.406,-25.952878 -42.9766,-36.365234 6.7693,-8.220367 13.1424,-16.811741 19.0606,-25.769531 46.4597,-70.321676 61.9735,-157.217656 42.7168,-239.271486 -22.9796,-97.91694 -91.1586,-175.06603 -173.4395,-221.26172 -81.2065,-45.59238 -172.3384,-60.76828 -258.832,-58.94922 z M 473.47266,-144.0625 c 12.2721,-0.18934 24.49381,0.71335 36.41406,2.75586 47.681,8.17002 93.83707,35.14268 124.35742,72.675781 21.47753,26.412477 36.43384,58.9197952 42.44727,92.314453 6.01139,33.383351 3.30873,68.980578 -7.68946,100.951176 -10.99437,31.9595 -30.74316,61.5975 -55.95703,83.9375 -25.20492,22.33208 -56.94372,38.3017 -89.80078,45.15625 -37.87307,7.90096 -79.74632,4.15461 -117.37305,-10.06446 -37.79229,-14.28163 -72.83675,-39.43296 -100.23437,-71.20508 -4.84279,-5.61602 -9.37132,-11.53461 -13.75,-17.58398 a 70.007,70.007 0 0 0 -4.11524,-11.70898 C 268.28208,98.889722 265.31884,45.513181 279.78711,-0.6484375 294.25538,-46.810063 327.15483,-88.944623 368.42969,-114.17578 c 30.95615,-18.92338 68.22666,-29.31869 105.04297,-29.88672 z"
       id="path4370-9-0-9-5-7"
       inkscape:connector-curvature="0" />
    <path
       style="fill:none;fill-rule:evenodd;stroke:#000000;stroke-width:140;stroke-linecap:round;stroke-linejoin:round;stroke-miterlimit:4;stroke-dasharray:none;stroke-opacity:1"
       d="m -1817.3483,158.48717 c -26.5182,-60.244315 -30.3989,-130.141642 -10.7127,-192.951234 19.6862,-62.809592 62.7687,-117.987396 118.9292,-152.318056 56.1604,-34.33067 124.9123,-47.51682 189.7892,-36.40032 64.8769,11.1165 125.3169,46.43936 166.8443,97.5086 29.0236,35.69246 48.8771,78.796616 57.0299,124.0719341 8.1528,45.2753179 4.5761,92.6253779 -10.3888,136.1268059 -14.965,43.50143 -41.2952,83.05217 -75.7276,113.56002 -34.4325,30.50786 -76.8941,51.89239 -121.9281,61.28725 -51.9103,10.82938 -106.8085,5.63718 -156.4126,-13.10813 -49.6041,-18.7453 -93.8733,-50.81321 -128.503,-90.97214 -69.2594,-80.31787 -97.9956,-190.92315 -89.8478,-296.665487 9.106,-118.178443 62.8815,-232.337683 148.0386,-314.783583 85.1571,-82.44589 200.907,-132.48355 319.2945,-138.26744 62.7047,-3.06347 126.3146,6.12535 184.4497,29.82279 58.1352,23.69745 110.3034,62.07807 149.6242,111.01831 39.3207,48.94024 65.3088,107.87862 78.91953,169.16496 13.61069,61.28635 14.93091,124.54481 15.44445,187.322223 l 3.0322,370.667297 -2.2485,-369.452397 c -0.37898,-62.270843 0.11423,-125.060623 13.19644,-185.942943 13.08221,-60.88232 38.81214,-119.39741 77.72612,-168.01329 38.91397,-48.61588 90.43404,-86.77625 147.64546,-111.36595 57.21143,-24.5897 119.64185,-35.85533 181.90007,-37.1647 77.10448,-1.62161 155.84333,12.24578 223.09105,50.00124 67.24772,37.75545 121.93844,101.13606 139.55895,176.21767 14.69101,62.59891 2.47173,131.0442 -32.97247,184.69266 -35.44421,53.648454 -93.60991,91.738083 -156.95423,102.780983 32.19956,-11.404215 67.73118,-13.211666 100.92177,-5.133769 33.19059,8.077897 63.91769,26.011334 87.27531,50.937008 23.35763,24.925673 39.25959,56.751608 45.16694,90.396388 5.90735,33.64477 1.79829,68.98425 -11.67112,100.37601 -21.38695,49.84436 -65.78962,88.07229 -116.53673,107.21889 -50.74711,19.14661 -107.24529,20.19714 -160.24437,8.66638 -37.78553,-8.22082 -74.20333,-22.69323 -107.3247,-42.65076"
       id="path4370-9-0-9-5-7-8"
       inkscape:path-effect="#path-effect4372-5-0-7-0-2-7"
       inkscape:original-d="m -1817.3483,158.48717 c 30.8036,-177.950797 323.4211,-398.08786 464.85,-284.16101 119.5424,96.296413 -0.8481,403.21201 -151.0146,435.04601 -178.9158,37.9286 -379.2445,-217.908837 -374.7634,-400.745757 5.3158,-216.897613 250.589,-462.788713 467.3331,-453.051023 218.588,9.82053 428.80578,416.67836 428.43788,497.328283 l 3.0322,370.667297 -2.2485,-369.452397 c -14.4158,-211.864823 204.79379,-468.090843 420.46809,-502.486883 140.6961,-22.43847 332.3077,87.01317 362.65,226.21891 24.4591,112.21458 -189.9267,287.473643 -189.9267,287.473643 0,0 244.2929,130.89323 221.6929,236.575637 -20.9163,97.8092 -176.7646,114.97255 -276.7811,115.88527 -38.4947,0.35129 -63.1843,-20.95458 -107.3247,-42.65076"
       inkscape:connector-curvature="0"
       sodipodi:nodetypes="caaaacccaacaac" />
  </g>
</svg>
