<?xml version="1.0" encoding="UTF-8" standalone="no"?>
<!-- Created with Inkscape (http://www.inkscape.org/) -->

<svg
   xmlns:dc="http://purl.org/dc/elements/1.1/"
   xmlns:cc="http://creativecommons.org/ns#"
   xmlns:rdf="http://www.w3.org/1999/02/22-rdf-syntax-ns#"
   xmlns:svg="http://www.w3.org/2000/svg"
   xmlns="http://www.w3.org/2000/svg"
   xmlns:sodipodi="http://sodipodi.sourceforge.net/DTD/sodipodi-0.dtd"
   xmlns:inkscape="http://www.inkscape.org/namespaces/inkscape"
   width="2000"
   height="2048"
   id="svg2992"
   version="1.1"
   inkscape:version="0.91pre3 r13670"
   sodipodi:docname="ങ്കൂ.svg">
  <defs
     id="defs5498">
    <inkscape:path-effect
       effect="spiro"
       id="path-effect3846"
       is_visible="true" />
    <inkscape:path-effect
       effect="spiro"
       id="path-effect3801"
       is_visible="true" />
    <inkscape:path-effect
       effect="spiro"
       id="path-effect4530-3-5"
       is_visible="true" />
    <inkscape:path-effect
       is_visible="true"
       id="path-effect4500-0-5-18-1-7"
       effect="spiro" />
    <inkscape:path-effect
       effect="spiro"
       id="path-effect4530-3-5-6"
       is_visible="true" />
    <inkscape:path-effect
       is_visible="true"
       id="path-effect4500-0-5-18-1-7-2"
       effect="spiro" />
  </defs>
  <sodipodi:namedview
     inkscape:window-height="853"
     inkscape:window-width="1600"
     inkscape:pageshadow="2"
     inkscape:pageopacity="0.0"
     borderopacity="1.0"
     bordercolor="#666666"
     pagecolor="#ffffff"
     id="base"
     showgrid="true"
     showguides="true"
     inkscape:guide-bbox="true"
     inkscape:zoom="0.32102648"
     inkscape:cx="578.58262"
     inkscape:cy="1003.8737"
     inkscape:window-x="1598"
     inkscape:window-y="-3"
     inkscape:current-layer="layer1"
     inkscape:window-maximized="1">
    <sodipodi:guide
       orientation="horizontal"
       position="0,600"
       id="guide5596" />
    <inkscape:grid
       type="xygrid"
       id="grid3769"
       empspacing="3"
       visible="true"
       enabled="true"
       snapvisiblegridlinesonly="true"
       spacingx="4px"
       units="px"
       dotted="true"
       spacingy="4px" />
    <sodipodi:guide
       orientation="0,1"
       position="-1040,1600"
       id="guide2985" />
  </sodipodi:namedview>
  <metadata
     id="metadata5594">
    <rdf:RDF>
      <cc:Work
         rdf:about="">
        <dc:format>image/svg+xml</dc:format>
        <dc:type
           rdf:resource="http://purl.org/dc/dcmitype/StillImage" />
        <dc:title />
      </cc:Work>
    </rdf:RDF>
  </metadata>
  <g
     inkscape:label="Layer 1"
     inkscape:groupmode="layer"
     id="layer1"
     transform="translate(0,1048)">
    <path
       style="color:#000000;font-style:normal;font-variant:normal;font-weight:normal;font-stretch:normal;font-size:medium;line-height:normal;font-family:sans-serif;text-indent:0;text-align:start;text-decoration:none;text-decoration-line:none;text-decoration-style:solid;text-decoration-color:#000000;letter-spacing:normal;word-spacing:normal;text-transform:none;direction:ltr;block-progression:tb;writing-mode:lr-tb;baseline-shift:baseline;text-anchor:start;white-space:normal;clip-rule:nonzero;display:inline;overflow:visible;visibility:visible;opacity:1;isolation:auto;mix-blend-mode:normal;color-interpolation:sRGB;color-interpolation-filters:linearRGB;solid-color:#000000;solid-opacity:1;fill:#000000;fill-opacity:1;fill-rule:evenodd;stroke:none;stroke-width:140;stroke-linecap:round;stroke-linejoin:round;stroke-miterlimit:4;stroke-dasharray:none;stroke-dashoffset:0;stroke-opacity:1;color-rendering:auto;image-rendering:auto;shape-rendering:auto;text-rendering:auto;enable-background:accumulate"
       d="M 953.92383 445.71289 C 951.97913 445.70662 950.03184 445.71686 948.08398 445.74219 C 886.61006 446.54151 827.04923 463.09017 774.16797 491.28711 C 732.063 513.73801 694.73817 543.22004 662.93164 577.35352 C 639.92275 551.19823 613.28725 528.23113 583.75391 509.29688 C 524.4543 471.27901 455.26695 450.64722 384.83008 449.97852 C 312.67651 449.29352 239.20252 469.76992 178.61133 514.92188 C 117.43849 560.50725 73.440325 629.03314 63.541016 707.99414 C 54.871765 777.14371 73.554049 847.01735 115.57422 902.61523 C 130.25719 922.04262 147.40083 939.19572 166.42383 953.75195 C 122.99977 999.31572 90.611458 1057.5947 80.808594 1123.8613 C 69.367764 1201.2005 90.53784 1279.4225 137.1875 1340.9023 C 183.68836 1402.186 252.0554 1442.6308 326.83008 1455.7168 C 420.6177 1472.1302 517.58911 1444.2708 588.36523 1380.582 C 611.04373 1360.1745 630.29835 1336.6804 645.84766 1311.082 C 675.71489 1345.9944 710.95999 1376.6802 751.11914 1400.877 C 806.82399 1434.4403 870.83632 1454.9053 937.41992 1457.3379 C 1006.5532 1459.8637 1074.3464 1442.7937 1133.9844 1411.0566 C 1193.483 1379.3937 1243.7124 1333.9097 1282.3848 1280.7246 C 1355.0268 1180.822 1384.0088 1058.7639 1381.0371 940.74023 C 1419.3175 939.9597 1456.4281 940.35966 1492.2051 943.89258 C 1534.8751 948.10616 1572.6318 959.31612 1597.8242 978.28516 C 1610.1155 987.54011 1619.528 998.84532 1624.707 1009.7012 C 1629.6974 1020.1616 1631.1105 1031.8275 1629.584 1039.8633 C 1627.5635 1050.4991 1617.7556 1065.2876 1603.3301 1074.9277 C 1587.9518 1085.2045 1565.8462 1092.2237 1540.5508 1094.8438 C 1538.4227 1095.0642 1536.2754 1095.0572 1534.1406 1095.2188 C 1518.5158 1094.0837 1502.8183 1094.0739 1487.1875 1095.4902 A 70.007 70.007 0 0 0 1488.1758 1235 C 1502.9535 1236.1281 1517.7811 1236.2906 1532.5781 1235.6543 C 1534.3232 1235.8829 1536.076 1236.067 1537.8086 1236.3574 C 1571.1847 1241.9518 1603.7106 1260.6053 1624.3984 1286.0527 C 1644.9372 1311.3168 1655.9336 1346.4683 1653.1602 1377.8711 C 1651.5303 1396.3248 1645.3752 1414.779 1635.7266 1430.2109 C 1626.1104 1445.591 1612.1283 1459.3302 1595.9414 1469.2383 C 1579.7063 1479.1758 1559.6354 1486.2806 1537.7227 1490.084 C 1515.7464 1493.8984 1489.9105 1494.6129 1460.748 1494.8691 L 489.7168 1503.3984 C 413.98866 1504.0637 325.31152 1503.4949 239.06641 1543.2617 C 195.49211 1563.3534 154.08974 1593.8022 123.95508 1637.1055 C 93.373986 1681.0502 76.410752 1736.0289 84.324219 1793.6113 C 91.53833 1846.1049 118.068 1890.6718 152.79297 1924.0938 C 187.06183 1957.0767 227.8275 1978.1784 268.55469 1991.3945 C 349.07664 2017.5243 427.58078 2014.5103 496.1582 2013.4746 L 1739.8691 1994.6914 A 70.007 70.007 0 1 0 1737.7559 1854.707 L 494.04492 1873.4902 C 424.79361 1874.5361 362.35949 1874.6478 311.76758 1858.2305 C 286.93785 1850.1731 265.26821 1838.0364 249.87891 1823.2246 C 234.94571 1808.8518 225.1891 1790.3377 223.01953 1774.5508 C 220.66488 1757.4171 226.37125 1735.0336 238.86914 1717.0742 C 251.81346 1698.4733 272.77336 1681.8861 297.6875 1670.3984 C 348.41924 1647.0065 415.8446 1644.0543 490.94727 1643.3945 L 1461.9785 1634.8633 C 1491.8998 1634.6004 1525.4265 1634.3116 1561.666 1628.0215 C 1597.969 1621.7204 1634.8694 1609.5539 1669.0293 1588.6445 C 1703.2372 1567.7057 1732.7256 1539.1511 1754.4336 1504.4316 C 1776.1092 1469.764 1789.0488 1430.5908 1792.6172 1390.1875 C 1798.7931 1320.2597 1776.6596 1251.4085 1733.0293 1197.7402 C 1725.1143 1188.0042 1716.5823 1178.9069 1707.541 1170.4414 C 1736.4747 1143.9216 1758.9888 1108.8219 1767.125 1065.9922 C 1774.9751 1024.6691 1767.7073 984.30505 1751.0645 949.41992 C 1734.6105 914.93021 1709.8818 887.41144 1682.0371 866.44531 C 1626.9575 824.97223 1563.2897 810.23123 1505.9629 804.57031 C 1456.5863 799.69446 1408.6072 799.52814 1361.9844 800.77148 C 1343.7535 728.94763 1311.9314 659.82016 1263.3691 600.31641 C 1225.9999 554.52769 1179.4432 515.47204 1125.3848 487.94531 C 1072.9062 461.22307 1014.2096 445.90715 953.92383 445.71289 z M 953.44922 585.71484 C 990.11819 585.84943 1027.9124 595.41624 1061.8574 612.70117 C 1097.0104 630.6012 1128.975 657.0646 1154.9043 688.83594 C 1182.4196 722.55068 1203.2248 762.60621 1217.5488 805.87891 C 1210.8322 806.01373 1204.0631 806.21115 1197.4219 806.24609 L 687.8457 808.92773 C 701.84082 765.58047 722.23364 725.38504 749.31641 691.39844 C 774.55737 659.72314 805.68047 633.1427 840.03906 614.82227 C 874.28906 596.55974 912.64276 586.21497 949.9043 585.73047 C 951.08466 585.71512 952.26635 585.7105 953.44922 585.71484 z M 379.35547 589.97266 C 380.7371 589.95917 382.11814 589.95954 383.5 589.97266 C 427.11241 590.3867 471.47682 603.61673 508.19336 627.15625 C 536.96711 645.60352 561.94406 670.96341 580.34766 700.0625 C 563.38336 735.9444 550.65265 773.48977 541.69336 811.68359 C 473.92884 815.30571 404.0864 824.4207 334.81055 848.69141 C 321.63805 853.30637 308.52967 858.49358 295.58398 864.29102 C 268.94769 856.75144 243.65468 839.8911 227.26172 818.20117 C 207.97677 792.68479 198.47637 757.14405 202.45508 725.4082 C 207.03273 688.89496 230.12091 651.13361 262.26562 627.17969 C 293.96929 603.55444 336.52476 590.39062 379.35547 589.97266 z M 1241.0996 945.5 C 1243.0719 1037.2208 1219.6668 1128.9214 1169.1523 1198.3926 C 1142.1565 1235.5192 1107.2898 1266.6745 1068.2148 1287.4688 C 1029.2792 1308.1888 984.98595 1318.9827 942.53125 1317.4316 C 901.61435 1315.9368 859.80405 1302.9137 823.36914 1280.9609 C 786.81173 1258.9343 754.62266 1227.53 729.84375 1190.8203 C 684.16531 1123.1483 663.35151 1036.3176 665 949.06641 C 667.5119 949.05182 669.98131 949.02302 672.5 949.00977 L 1198.1582 946.24414 C 1212.6174 946.16804 1226.9121 945.88061 1241.0996 945.5 z M 524.93945 953.53711 C 524.37844 1014.8251 532.39588 1076.9882 550.83203 1136.4902 A 70.007 70.007 0 0 0 550.89844 1137.8965 C 554.31102 1188.0536 532.08903 1242.8856 494.71875 1276.5137 C 457.34848 1310.1418 400.48339 1326.4789 350.96289 1317.8125 C 311.10719 1310.8375 272.55931 1287.6995 248.7168 1256.2773 C 225.02308 1225.0513 213.71187 1182.1283 219.30078 1144.3477 C 224.45327 1109.5172 243.99907 1073.7077 272.20312 1045.8047 C 300.80027 1017.5128 338.92684 995.59226 381.10156 980.81641 C 425.38301 965.30246 473.80018 957.55735 524.93945 953.53711 z "
       transform="translate(0,-1048)"
       id="path4528-8-0" />
    <path
       style="fill:none;fill-rule:evenodd;stroke:#000000;stroke-width:140;stroke-linecap:round;stroke-linejoin:round;stroke-miterlimit:4;stroke-dasharray:none;stroke-opacity:1"
       d="m -1588.9547,-124.01656 c -50.2538,-7.68191 -97.1152,-35.62215 -127.7677,-76.17927 -30.6526,-40.55713 -44.7438,-93.2646 -38.4198,-143.70731 7.2385,-57.73711 40.7812,-110.88035 87.44,-145.65 46.6588,-34.76965 105.5401,-51.62793 163.7266,-51.07553 57.0246,0.54137 113.8012,17.47176 161.8093,48.25045 48.008,30.77868 87.0919,75.30584 111.3863,126.8993"
       id="path4528-8-0-1"
       inkscape:path-effect="#path-effect4530-3-5-6"
       inkscape:original-d="m -1588.9547,-124.01656 c 0,0 -178.0593,-128.78228 -166.1875,-219.88658 13.7418,-105.45462 144.9387,-191.71114 251.1666,-196.72553 108.0531,-5.10055 273.1956,175.14975 273.1956,175.14975"
       inkscape:connector-curvature="0"
       sodipodi:nodetypes="caac" />
    <path
       sodipodi:nodetypes="aaaaacaassaacaassasc"
       inkscape:connector-curvature="0"
       inkscape:original-d="m -939.14657,-544.86805 c 181.25753,-1.03893 356.29733,225.28044 361.21573,406.47416 5.3773,198.102192 -172.0894,468.68888 -370.23353,465.17489 -192.80503,-3.4193 -351.52663,-272.442498 -343.98123,-465.13009 7.0222,-179.32662 173.5379,-405.49035 352.99903,-406.51896 z M -1267.4027,72.541302 c 0,0 -156.0648,265.997488 -281.8413,253.618298 -104.639,-10.2987 -213.552,-150.4601 -188.8421,-252.659898 45.5186,-188.264192 244.8694,-253.635192 522.0781,-255.093592 l 525.65766,-2.7655 c 173.933,-0.915 474.2792,1.7025 500.5645,176.6828919 9.2797,61.7742001 -91.404,91.5660001 -150.5908,111.5429881 -17.1383,5.7845 -54.2594,0.7331 -54.2594,0.7331 0,0 39.2316,-6.271178 55.8768,2.1162 82.6383,41.64085 186.9098,125.14737 173.5078,216.70853 -15.3499,104.86875 -199.4351,180.29145 -261.5255,180.83695 l -971.03126,8.5308 c -216.482,1.9018 -344.7568,78.5496 -336.6604,210.6853 7.6816,125.3668 283.2238,160.2796 341.4296,159.4006 l 1243.71176,-18.7833"
       inkscape:path-effect="#path-effect4500-0-5-18-1-7-2"
       id="path4498-7-1-0-1-5-5"
       d="m -939.14657,-544.86805 c 50.05139,-0.6508 100.02124,11.87328 144.62694,34.58666 44.60569,22.71338 83.8668,55.47339 115.51604,94.25343 63.29848,77.56007 95.08397,177.70211 101.07275,277.63407 6.67979,111.462507 -18.77285,227.036247 -84.44101,317.34795 -32.83407,45.15585 -75.38228,83.4755 -124.66909,109.70406 -49.28681,26.22857 -105.32941,40.1613 -161.12343,38.12288 -53.75023,-1.96376 -106.66183,-18.70782 -152.73173,-46.4659 -46.0699,-27.75809 -85.3284,-66.35605 -115.4202,-110.93665 -60.1836,-89.161207 -82.589,-200.367914 -75.8293,-307.72754 6.2049,-98.54866 37.0393,-197.25712 98.5764,-274.481 30.7685,-38.61193 68.9666,-71.48986 112.5323,-94.7196 43.5656,-23.22973 92.5226,-36.67645 141.89033,-37.31836 z M -1267.4027,72.541302 c 4.9379,72.575288 -25.1225,146.744508 -79.1957,195.402938 -54.0732,48.65842 -130.9915,70.75527 -202.6456,58.21536 -57.3152,-10.03052 -110.7727,-41.82198 -145.9443,-88.17491 -35.1717,-46.35292 -51.4127,-106.92512 -42.8978,-164.484988 7.7496,-52.386412 35.2722,-100.817507 72.9185,-138.061973 37.6462,-37.244469 85.0055,-63.778649 134.9835,-81.288379 99.956,-35.01947 208.2645,-35.18604 314.1761,-35.74324 l 525.65766,-2.7655 c 100.48168,-0.52864 201.2982,-11.88719 301.29491,-2.01269 49.99836,4.93725 100.70995,17.91164 140.84596,48.13271 20.068,15.11053 37.13809,34.52337 47.95465,57.196149 10.81656,22.67278 15.15725,48.687314 10.46898,73.3667229 -6.25311,32.9168801 -28.27327,61.5830491 -56.13099,80.1994361 -27.85771,18.616386 -61.13255,27.891552 -94.45981,31.343552 -18.01601,1.86608 -36.19955,2.11176 -54.2594,0.7331 18.61387,-1.6866 37.44382,-0.97346 55.8768,2.1162 50.16271,8.40806 97.24794,35.11017 129.33245,74.57632 32.08451,39.46616 48.65003,91.46693 44.17535,142.13221 -2.59908,29.42853 -12.14586,58.24272 -27.808,83.29248 -15.66214,25.04977 -37.39823,46.19601 -62.59564,61.6195 -25.19741,15.42348 -53.683,25.05994 -82.79086,30.11221 -29.10787,5.05227 -58.78906,5.55323 -88.331,5.81276 l -971.03126,8.5308 c -75.4154,0.66255 -153.4671,1.85372 -221.9556,33.43308 -34.2442,15.78968 -65.4248,39.30883 -86.9643,70.2609 -21.5395,30.95207 -32.8746,69.6333 -27.7405,106.99132 4.6918,34.14023 22.8353,65.68006 47.6644,89.57745 24.8291,23.8974 56.0471,40.51566 88.8256,51.15242 65.5569,21.27353 136.0252,19.71152 204.9396,18.67073 l 1243.71176,-18.7833"
       style="fill:none;fill-rule:evenodd;stroke:#000000;stroke-width:140;stroke-linecap:round;stroke-linejoin:round;stroke-miterlimit:4;stroke-dasharray:none;stroke-opacity:1" />
  </g>
</svg>
