<?xml version="1.0" encoding="UTF-8" standalone="no"?>
<!-- Created with Inkscape (http://www.inkscape.org/) -->

<svg
   xmlns:dc="http://purl.org/dc/elements/1.1/"
   xmlns:cc="http://creativecommons.org/ns#"
   xmlns:rdf="http://www.w3.org/1999/02/22-rdf-syntax-ns#"
   xmlns:svg="http://www.w3.org/2000/svg"
   xmlns="http://www.w3.org/2000/svg"
   xmlns:sodipodi="http://sodipodi.sourceforge.net/DTD/sodipodi-0.dtd"
   xmlns:inkscape="http://www.inkscape.org/namespaces/inkscape"
   width="2000"
   height="2048"
   id="svg2992"
   version="1.1"
   inkscape:version="0.91pre2 r13516"
   sodipodi:docname="ങ്ങ.svg">
  <defs
     id="defs5498">
    <inkscape:path-effect
       effect="spiro"
       id="path-effect4372-5-8"
       is_visible="true" />
    <inkscape:path-effect
       effect="spiro"
       id="path-effect4372-5-8-0"
       is_visible="true" />
    <inkscape:path-effect
       effect="spiro"
       id="path-effect4372-5-8-0-8"
       is_visible="true" />
    <inkscape:path-effect
       effect="spiro"
       id="path-effect4372-5-8-0-0"
       is_visible="true" />
    <inkscape:path-effect
       effect="spiro"
       id="path-effect4372-5-8-0-9"
       is_visible="true" />
    <inkscape:path-effect
       effect="spiro"
       id="path-effect4372-5-8-0-99"
       is_visible="true" />
    <inkscape:path-effect
       effect="spiro"
       id="path-effect4372-5-8-0-98"
       is_visible="true" />
    <inkscape:path-effect
       effect="spiro"
       id="path-effect4372-5-8-0-98-8"
       is_visible="true" />
    <inkscape:path-effect
       effect="spiro"
       id="path-effect4372-5-8-0-98-8-7"
       is_visible="true" />
  </defs>
  <sodipodi:namedview
     inkscape:window-height="853"
     inkscape:window-width="1600"
     inkscape:pageshadow="2"
     inkscape:pageopacity="0.0"
     borderopacity="1.0"
     bordercolor="#666666"
     pagecolor="#ffffff"
     id="base"
     showgrid="true"
     showguides="true"
     inkscape:guide-bbox="true"
     inkscape:zoom="0.227"
     inkscape:cx="1322.6311"
     inkscape:cy="1188.4133"
     inkscape:window-x="1598"
     inkscape:window-y="-3"
     inkscape:current-layer="layer1"
     inkscape:window-maximized="1">
    <sodipodi:guide
       orientation="horizontal"
       position="0,600"
       id="guide5596" />
    <inkscape:grid
       type="xygrid"
       id="grid3769"
       empspacing="3"
       visible="true"
       enabled="true"
       snapvisiblegridlinesonly="true"
       spacingx="4px"
       units="px"
       dotted="true"
       spacingy="4px" />
    <sodipodi:guide
       orientation="0,1"
       position="-1040,1600"
       id="guide2985" />
  </sodipodi:namedview>
  <metadata
     id="metadata5594">
    <rdf:RDF>
      <cc:Work
         rdf:about="">
        <dc:format>image/svg+xml</dc:format>
        <dc:type
           rdf:resource="http://purl.org/dc/dcmitype/StillImage" />
        <dc:title />
      </cc:Work>
    </rdf:RDF>
  </metadata>
  <g
     inkscape:label="Layer 1"
     inkscape:groupmode="layer"
     id="layer1"
     transform="translate(0,1048)">
    <path
       style="color:#000000;font-style:normal;font-variant:normal;font-weight:normal;font-stretch:normal;font-size:medium;line-height:normal;font-family:sans-serif;text-indent:0;text-align:start;text-decoration:none;text-decoration-line:none;text-decoration-style:solid;text-decoration-color:#000000;letter-spacing:normal;word-spacing:normal;text-transform:none;direction:ltr;block-progression:tb;writing-mode:lr-tb;baseline-shift:baseline;text-anchor:start;clip-rule:nonzero;display:inline;overflow:visible;visibility:visible;opacity:1;isolation:auto;mix-blend-mode:normal;color-interpolation:sRGB;color-interpolation-filters:linearRGB;solid-color:#000000;solid-opacity:1;fill:#000000;fill-opacity:1;fill-rule:evenodd;stroke:none;stroke-width:140;stroke-linecap:round;stroke-linejoin:round;stroke-miterlimit:4;stroke-dasharray:none;stroke-dashoffset:0;stroke-opacity:1;color-rendering:auto;image-rendering:auto;shape-rendering:auto;text-rendering:auto;enable-background:accumulate"
       d="m 2298.3359,-621.76367 c -6.1516,-0.0962 -12.3072,-0.0907 -18.4648,0.0137 -98.5207,1.67021 -195.7421,29.06293 -280.6445,79.05273 -84.4595,49.72895 -155.1455,122.16504 -201.3672,209.29102 -1.0518,-2.0133 -2.0063,-4.05986 -3.0879,-6.0625 -61.3583,-113.6048 -167.0028,-198.09949 -288.8164,-236.64258 -91.2607,-28.87579 -189.1576,-32.54816 -282.1192,-11.69726 -53.9067,12.09105 -105.5648,32.32775 -153.2832,59.45703 -35.9277,-18.2784 -73.28259,-33.61064 -111.49606,-45.83985 -173.03005,-55.37372 -368.50883,-47.93881 -532.89453,39.00391 -120.55299,63.75983 -219.03094,168.1516 -271.52539,295.73828 -52.62478,127.90346 -56.367148,274.603163 -4.89063,404.6543 23.95278,60.51469 60.85562,119.38767 114.04493,164.32031 4.61717,4.96763 9.38875,9.81355 14.41992,14.43359 a 70.007,70.007 0 0 0 28.08398,16.1211 c 33.74295,20.40549 71.70788,34.95681 112.4043,40.69922 44.50108,6.27926 90.95525,1.85642 134.4375,-15.58399 40.71971,-16.33237 76.24376,-43.09716 103.22461,-77.49414 26.97025,-34.38348 44.39938,-75.10136 50.81836,-118.16797 6.41653,-43.05008 1.60664,-86.89103 -13.76172,-127.445309 C 678.05538,21.548818 652.68261,-14.294878 619.79492,-42.298828 568.35809,-86.097434 501.80136,-107.95766 434.41211,-103.1875 c -67.38925,4.770161 -130.2008,35.787018 -174.95508,86.394531 -1.88736,2.134207 -3.68025,4.335068 -5.49023,6.523438 -2.75338,-59.776832 7.41407,-120.673739 30.14062,-175.910159 39.09751,-95.02568 115.27326,-176.46856 207.50977,-225.25195 126.13916,-66.71433 284.78122,-74.2195 424.76953,-29.41992 9.49785,3.03953 18.89147,6.38913 28.22851,9.89062 -122.46625,126.2061 -181.59943,305.89887 -162.21093,480.207034 8.49044,76.331496 32.07352,155.595176 82.62304,222.722656 25.32109,33.62526 57.00432,63.43214 94.76563,85.89648 37.87867,22.53415 81.12053,37.15624 126.91793,40.23243 51.8512,3.48282 102.5417,-8.13057 147.2559,-30.72657 44.5491,-22.51257 81.9766,-55.21367 111.0977,-93.39843 58.1462,-76.24366 80.4817,-169.4996 80.4609,-258.070316 -0.032,-137.542874 -52.7911,-269.908834 -138.9629,-373.597654 -24.1296,-29.03472 -50.73,-55.58686 -79.1855,-79.7793 15.4558,-5.48708 31.1726,-10.15421 47.0996,-13.72656 68.858,-15.44457 142.3905,-12.58479 209.2441,8.56836 87.3355,27.63385 164.9791,90.2825 207.8691,169.69336 21.7124,40.20043 36.0811,85.83294 43.8497,133.49218 7.7718,47.67889 9.1151,99.24564 9.8671,153.714848 l 4.4297,320.927732 a 70.007,70.007 0 0 0 139.9942,-0.87304 l 0.4199,-313.712895 c 0.1279,-95.290235 6.0787,-185.476155 37.8828,-260.154295 32.0063,-75.15257 90.6935,-140.39367 162.2266,-182.51172 63.7461,-37.53318 138.0286,-58.46108 211.9843,-59.71484 73.955,-1.25376 148.8976,17.14637 213.8497,52.51367 36.6597,19.96174 67.8512,44.47757 88.2363,72.65039 19.79,27.35042 29.6214,60.73769 26.1738,87.69531 -1.958,15.30983 -8.2743,31.82043 -18.168,46.88672 -9.985,15.20549 -23.8783,29.59638 -40.4453,42.20117 -26.624,20.25666 -58.9423,34.16287 -92.5761,40.75781 -33.409,-2.56482 -67.0112,-2.58683 -100.4551,0.0566 a 70.007,70.007 0 0 0 -7.1328,138.62891062 c 37.9805,6.97750978 76.5794,7.67145018 114.2851,2.51367188 18.8156,2.0959592 37.5095,5.227813 55.9453,9.4121095 32.0505,7.274368 60.4358,17.355759 82.4649,31.355469 21.4647,13.641091 37.6274,32.273594 44.4238,49.974609 5.7388,14.94641 6.7799,34.26331 2.3008,52.31836 -4.5569,18.36815 -14.9244,37.22452 -29.3945,53.21875 -29.2366,32.316 -76.6852,54.57665 -129.4708,65.4707 -103.7197,21.40602 -217.9698,0.14491 -307.0449,-57.14062 a 70.007,70.007 0 1 0 -75.7265,117.75 c 120.9289,77.7712 270.2597,105.56289 411.0703,76.50195 72.4024,-14.94263 148.4692,-46.18394 204.9902,-108.6582 28.4087,-31.40089 50.6245,-69.76904 61.457,-113.4336 10.9101,-43.97764 9.6861,-91.489157 -7.4843,-136.208981 -20.1256,-52.4164582 -58.1037,-91.306913 -100.0293,-117.951171 -6.7378,-4.281932 -13.5631,-8.131969 -20.418,-11.798829 18.5861,-16.782349 35.7537,-36.025019 50.2637,-58.121089 20.2913,-30.9002 34.9956,-66.73733 40.0136,-105.97461 8.9379,-69.88772 -14.1771,-135.77468 -51.621,-187.52344 -36.849,-50.92638 -85.6204,-86.80676 -134.7071,-113.53516 -81.1368,-44.18012 -172.4344,-68.1104 -264.709,-69.55273 z m -1222.2636,259.64844 c 38.4725,26.89965 73.2913,58.36877 102.8203,93.90039 66.4511,79.95931 106.6094,182.903822 106.6328,284.150387 0.015,64.47946 -17.1181,127.684363 -51.7832,173.138673 a 70.007,70.007 0 0 0 0,0.002 c -17.2845,22.66422 -39.1695,41.34164 -62.9199,53.34375 -23.5854,11.9187 -50.2267,17.63797 -74.7285,15.99219 -21.7193,-1.45887 -44.4455,-8.80422 -64.7227,-20.86719 C 1010.9766,225.41214 992.24847,208.18084 976.86328,187.75 946.00024,146.76528 928.01792,91.946058 921.54688,33.769531 905.75393,-108.21362 961.48907,-260.55869 1066.9512,-354.49805 c 2.9559,-2.63298 6.0892,-5.06758 9.1211,-7.61718 z M 455.5,36.269531 c 26.35284,0.91117 53.78965,11.213412 73.53125,28.023438 14.7607,12.56877 26.65635,29.424422 33.4707,47.406251 6.8086,17.96663 9.01632,38.34711 6.20703,57.19531 -2.80682,18.83168 -10.84782,37.54489 -22.50195,52.40235 -11.64355,14.84396 -27.82315,26.99622 -45.1875,33.96093 -18.62237,7.4693 -41.00325,9.96641 -62.75976,6.89649 -21.9329,-3.09481 -44.4273,-11.83199 -64.61524,-24.96094 -4.132,-2.68719 -8.12411,-5.69677 -12.08789,-8.76367 -15.39064,-19.29036 -25.38778,-44.21834 -26.63867,-68.28125 -1.53837,-29.59307 9.78146,-61.999207 29.41211,-84.197268 19.63064,-22.198063 50.40968,-37.395937 79.96875,-39.488281 3.69488,-0.261544 7.43648,-0.323527 11.20117,-0.19336 z"
       id="path4370-9-4-7-1-7"
       inkscape:connector-curvature="0" />
    <path
       style="fill:none;fill-rule:evenodd;stroke:#000000;stroke-width:140;stroke-linecap:round;stroke-linejoin:round;stroke-miterlimit:4;stroke-dasharray:none;stroke-opacity:1"
       d="m 362.63125,1426.6731 c -35.79347,-32.8686 -58.02097,-80.0884 -60.54375,-128.6183 -2.52278,-48.5299 14.68878,-97.7999 46.88125,-134.2027 32.19246,-36.4028 78.98767,-59.5107 127.46183,-62.942 48.47415,-3.4312 98.05785,12.8546 135.05717,44.3596 23.82417,20.2864 42.45869,46.6373 53.54716,75.8978 11.08846,29.2604 14.59667,61.3708 9.98376,92.3199 -4.6129,30.9492 -17.34744,60.6646 -36.65962,85.285 -19.31219,24.6205 -45.16444,44.0795 -74.20646,55.728 -31.05231,12.4549 -65.46903,15.9141 -98.59783,11.2395 -33.12881,-4.6746 -64.95021,-17.3513 -92.9977,-35.5916 -56.09496,-36.4806 -96.02208,-94.2162 -120.64881,-156.4336 -44.29648,-111.9114 -41.25764,-240.9498 4.53833,-352.25602 45.79598,-111.30617 133.12375,-204.2238 239.51849,-260.49541 145.26243,-76.82852 322.32216,-84.29853 478.83134,-34.21188 113.71359,36.39106 218.69449,102.74237 295.00599,194.56644 76.3115,91.82406 122.77,209.48007 122.7976,328.87477 0.018,76.5251 -19.7163,154.7555 -66.122,215.6045 -23.2028,30.4245 -52.8585,56.1148 -87.0083,73.3721 -34.1498,17.2574 -72.8153,25.9228 -110.9918,23.3585 -33.7583,-2.2675 -66.7426,-13.2511 -95.8205,-30.5496 -29.078,-17.2986 -54.28411,-40.8176 -74.63725,-67.8456 -40.70627,-54.0561 -61.48904,-121.098 -68.96978,-188.352 -18.33353,-164.8237 44.58044,-337.9699 168.41703,-448.27616 61.9183,-55.15313 137.8544,-94.58859 218.7642,-112.73631 80.9099,-18.14773 166.6247,-14.88158 245.6818,10.13289 104.5746,33.08848 196.2176,106.66017 248.3418,203.168 26.0621,48.25391 42.5236,101.36739 51.3466,155.49526 8.823,54.12792 10.0153,109.17262 10.7724,164.00962 l 4.4307,320.9275 0.4213,-313.7136 c 0.1311,-97.6552 5.2143,-197.64073 43.4784,-287.48732 38.2642,-89.8466 106.9613,-165.85573 191.1133,-215.40368 74.3243,-43.76149 160.0756,-67.92253 246.3138,-69.38452 86.2383,-1.46199 172.7632,19.78018 248.5122,61.02656 42.8732,23.34507 82.8554,53.54292 111.4724,93.09252 28.617,39.54959 45.0904,89.18659 38.8977,137.60926 -3.488,27.27356 -13.9996,53.44743 -29.0921,76.43067 -15.0925,22.98324 -34.6891,42.83767 -56.5713,59.48651 -64.5482,49.1109 -150.1288,69.5428 -229.9008,54.8876 57.8823,-4.5751 116.4528,-0.3417 173.0755,12.5097 36.6227,8.3121 72.8223,20.3971 104.5175,40.5398 31.6952,20.1426 58.7659,48.9042 72.2269,83.9629 11.4546,29.8331 12.5872,63.2472 4.8925,94.2635 -7.6947,31.0164 -23.9872,59.6281 -45.4266,83.3257 -42.8788,47.3951 -104.6362,74.1463 -167.2302,87.0646 -122.2652,25.2335 -254.0551,0.7071 -359.0571,-66.8213"
       id="path4370-9-4-7-1-7-7"
       inkscape:path-effect="#path-effect4372-5-8-0-98-8-7"
       inkscape:original-d="m 362.63125,1426.6731 c 40.1983,-21.8266 119.6092,-865.78004 248.8565,-281.4034 22.10433,99.9421 151.25114,393.9315 -47.33516,309.2307 C 365.56628,1369.7998 229.75395,1403.6653 251.90825,1273.7147 274.06256,1143.7643 318.51588,790.76403 495.96507,660.96327 625.11782,566.49046 828.2279,562.53913 974.79641,626.75139 1179.2798,716.33642 1395.7612,926.9686 1392.6,1150.1926 c -1.9307,136.333 -127.7761,312.761 -264.1221,312.3351 -124.5205,-0.389 -249.30645,-162.6186 -239.42753,-286.7472 22.18845,-278.79761 356.72413,-595.23864 632.86303,-550.87958 200.0766,32.14039 311.629,283.77241 310.4608,522.67288 l 4.4307,320.9275 0.4213,-313.7136 c 0.2341,-174.28284 79.4251,-402.20303 234.5917,-502.891 138.3837,-89.79748 349.127,-85.72353 494.826,-8.35796 81.0729,43.04935 166.5323,141.58866 150.3701,230.70178 -6.9944,38.56474 -43.7368,105.05382 -85.6634,135.91718 -87.1837,64.1784 -229.9008,54.8876 -229.9008,54.8876 0,0 86.0806,-11.0725 173.0755,12.5097 58.1746,15.7698 157.1665,84.6682 176.7444,124.5027 38.383,78.0968 -121.3641,188.2725 -207.7643,264.6538 -74.457,65.823 -353.1004,-90.0327 -359.0571,-66.8213"
       inkscape:connector-curvature="0"
       sodipodi:nodetypes="cszzaaaaaascsaasscsssc" />
  </g>
</svg>
