<?xml version="1.0" encoding="UTF-8" standalone="no"?>
<!-- Created with Inkscape (http://www.inkscape.org/) -->

<svg
   xmlns:dc="http://purl.org/dc/elements/1.1/"
   xmlns:cc="http://creativecommons.org/ns#"
   xmlns:rdf="http://www.w3.org/1999/02/22-rdf-syntax-ns#"
   xmlns:svg="http://www.w3.org/2000/svg"
   xmlns="http://www.w3.org/2000/svg"
   xmlns:sodipodi="http://sodipodi.sourceforge.net/DTD/sodipodi-0.dtd"
   xmlns:inkscape="http://www.inkscape.org/namespaces/inkscape"
   width="2000"
   height="2048"
   id="svg2992"
   version="1.1"
   inkscape:version="0.91 r13725"
   sodipodi:docname="ങ്കൂ.svg">
  <defs
     id="defs5498">
    <inkscape:path-effect
       effect="spiro"
       id="path-effect3846"
       is_visible="true" />
    <inkscape:path-effect
       effect="spiro"
       id="path-effect3801"
       is_visible="true" />
    <inkscape:path-effect
       effect="spiro"
       id="path-effect4530-3-5"
       is_visible="true" />
    <inkscape:path-effect
       is_visible="true"
       id="path-effect4500-0-5-18-1-7"
       effect="spiro" />
    <inkscape:path-effect
       effect="spiro"
       id="path-effect4530-3-5-6"
       is_visible="true" />
    <inkscape:path-effect
       is_visible="true"
       id="path-effect4500-0-5-18-1-7-2"
       effect="spiro" />
    <inkscape:path-effect
       effect="spiro"
       id="path-effect4530-3-5-7-8"
       is_visible="true" />
    <inkscape:path-effect
       effect="spiro"
       id="path-effect4530-3-5-7-8-0"
       is_visible="true" />
    <inkscape:path-effect
       is_visible="true"
       id="path-effect4500-0-5-18-1-7-2-9"
       effect="spiro" />
    <inkscape:path-effect
       effect="spiro"
       id="path-effect4530-3-5-7-8-1"
       is_visible="true" />
    <inkscape:path-effect
       is_visible="true"
       id="path-effect4500-0-5-18-1-7-2-7"
       effect="spiro" />
    <inkscape:path-effect
       effect="spiro"
       id="path-effect4530-3-5-7-6"
       is_visible="true" />
    <inkscape:path-effect
       is_visible="true"
       id="path-effect4500-0-5-18-3"
       effect="spiro" />
    <inkscape:path-effect
       is_visible="true"
       id="path-effect4500-0-5-18-3-0"
       effect="spiro" />
    <inkscape:path-effect
       effect="spiro"
       id="path-effect4530-3-5-7-6-3"
       is_visible="true" />
  </defs>
  <sodipodi:namedview
     inkscape:window-height="842"
     inkscape:window-width="1600"
     inkscape:pageshadow="2"
     inkscape:pageopacity="0.0"
     borderopacity="1.0"
     bordercolor="#666666"
     pagecolor="#ffffff"
     id="base"
     showgrid="true"
     showguides="true"
     inkscape:guide-bbox="true"
     inkscape:zoom="0.32102648"
     inkscape:cx="786.60605"
     inkscape:cy="7.0711932"
     inkscape:window-x="1600"
     inkscape:window-y="0"
     inkscape:current-layer="layer1"
     inkscape:window-maximized="1">
    <sodipodi:guide
       orientation="horizontal"
       position="0,600"
       id="guide5596" />
    <inkscape:grid
       type="xygrid"
       id="grid3769"
       empspacing="3"
       visible="true"
       enabled="true"
       snapvisiblegridlinesonly="true"
       spacingx="4px"
       units="px"
       dotted="true"
       spacingy="4px" />
    <sodipodi:guide
       orientation="0,1"
       position="-1040,1600"
       id="guide2985" />
  </sodipodi:namedview>
  <metadata
     id="metadata5594">
    <rdf:RDF>
      <cc:Work
         rdf:about="">
        <dc:format>image/svg+xml</dc:format>
        <dc:type
           rdf:resource="http://purl.org/dc/dcmitype/StillImage" />
        <dc:title />
      </cc:Work>
    </rdf:RDF>
  </metadata>
  <g
     inkscape:label="Layer 1"
     inkscape:groupmode="layer"
     id="layer1"
     transform="translate(0,1048)">
    <path
       sodipodi:nodetypes="aaaaacaascaacaassasc"
       inkscape:connector-curvature="0"
       inkscape:original-d="m 942.65972,-578.07703 c 185.82798,-5.13273 355.46048,239.1003 361.21558,424.90998 6.2229,200.913006 -160.4411,487.49709 -361.39418,482.7391 C 749.4659,325.00201 612.47934,42.991576 617.69584,-150.00727 c 4.8403,-179.08236 145.88442,-423.12342 324.96388,-428.06976 z M 631.09364,21.297316 c 0,0 -143.3012,308.677364 -282.5313,307.653334 -110.6136,-0.81355 -237.1149,-138.28225 -220.8421,-247.695304 26.1777,-176.0109 178.66264,-273.952986 455.8481,-277.828216 l 765.00486,-10.69525 c 240.7548,-5.63597 339.3113,39.69545 367.3863,171.96192 15.9028,74.921183 -81.1269,141.28086 -150.5908,173.54299 -16.4051,7.61925 -54.2594,0.7331 -54.2594,0.7331 0,0 38.7261,-5.18202 55.8768,2.1162 73.8995,31.44679 181.6702,87.27234 173.5078,167.16856 -12.0807,118.24997 -239.4327,190.34152 -301.5255,190.37692 l -931.03135,0.5308 c -216.49026,0.12343 -342.63363,66.85456 -336.66036,196.6853 5.7726,125.46925 283.22376,160.27969 341.42956,159.40063 L 1756.4181,836.46497"
       inkscape:path-effect="#path-effect4500-0-5-18-3"
       id="path4498-7-1-0-3"
       d="m 942.65972,-578.07703 c 51.61692,-2.81324 103.66488,9.83371 149.41118,33.90654 45.7462,24.07283 85.2502,59.33558 116.3352,100.6387 62.1698,82.60624 89.7222,187.13754 95.4692,290.36474 6.3149,113.428097 -13.5678,231.381036 -75.973,326.30943 -31.2026,47.46419 -72.7824,88.44503 -122.1405,116.55605 -49.3581,28.11102 -106.56713,43.03994 -163.28068,39.87362 -53.55579,-2.99002 -105.78027,-22.0284 -150.18026,-52.12498 -44.4,-30.09657 -81.06811,-71.01166 -108.40109,-117.16436 -54.66597,-92.305388 -71.30159,-203.132775 -66.20393,-310.28998 4.67168,-98.20262 27.68969,-197.72773 82.41303,-279.40351 27.36167,-40.8379 62.48302,-76.7319 103.99048,-103.06678 41.50745,-26.33488 89.47638,-42.92428 138.56037,-45.59947 z M 631.09364,21.297316 C 646.32083,100.67953 621.90314,186.67197 567.23047,246.20601 512.55779,305.74005 428.9514,337.37695 348.56234,328.95065 287.92973,322.5952 229.63192,293.9258 188.68864,248.75552 147.74537,203.58524 124.8437,142.15224 127.72024,81.255346 c 2.33429,-49.417485 21.25193,-97.508893 51.03931,-137.008879 29.78737,-39.499986 70.10969,-70.494247 114.61067,-92.109057 89.00195,-43.22962 191.26262,-47.3271 290.19812,-48.71028 l 765.00486,-10.69525 c 74.4184,-1.04042 150.4872,-2.97129 221.3987,19.62845 35.4557,11.29987 69.2833,29.11135 96.0092,55.00577 26.726,25.89442 45.9866,60.329567 49.9784,97.3277 4.5415,42.0933845 -11.3184,85.343649 -39.8322,116.639722 -28.5138,31.296068 -68.8586,50.831058 -110.7586,56.903268 -17.952,2.60162 -36.2437,2.84876 -54.2594,0.7331 18.632,-1.22742 37.391,-0.51696 55.8768,2.1162 43.2116,6.15517 85.4249,23.3322 117.8499,52.55112 32.425,29.21892 54.3246,70.99007 55.6579,114.61744 1.023,33.47409 -9.9982,66.88386 -29.1063,94.38739 -19.108,27.50352 -46.0196,49.16051 -75.9896,64.1058 -59.94,29.8906 -129.4502,31.84554 -196.4296,31.88373 l -931.03135,0.5308 c -73.65827,0.042 -149.65195,-0.0179 -217.6121,28.38912 -33.98007,14.20352 -65.38457,35.79487 -87.73972,65.06316 -22.35516,29.26829 -35.09543,66.59909 -31.30854,103.23302 3.55662,34.40634 21.4337,66.46248 46.2861,90.52083 24.8524,24.05835 56.33439,40.55648 89.31332,50.98894 65.95787,20.8649 136.65867,18.93553 205.83014,17.89086 L 1756.4181,836.46497"
       style="fill:none;fill-rule:evenodd;stroke:#000000;stroke-width:140;stroke-linecap:round;stroke-linejoin:round;stroke-miterlimit:4;stroke-dasharray:none;stroke-opacity:1" />
    <path
       style="fill:none;fill-rule:evenodd;stroke:#000000;stroke-width:140;stroke-linecap:round;stroke-linejoin:round;stroke-miterlimit:4;stroke-dasharray:none;stroke-opacity:1"
       d="m 558.76284,-185.58752 -158.8071,-5.65449 c -38.17549,-1.35928 -76.6789,-3.17243 -113.59899,-12.97665 -36.92009,-9.80421 -72.08135,-27.77656 -99.26661,-54.61269 -27.18526,-26.83612 -45.89214,-62.32346 -51.71734,-100.07638 -5.8252,-37.75292 1.25862,-77.32837 19.55484,-110.8614 17.43269,-31.95038 44.65994,-58.18028 76.36113,-76.06213 31.70119,-17.88185 67.74394,-27.56366 104.06737,-29.87327 79.09817,-5.02943 159.78574,26.07611 215.03947,82.899 55.25373,56.82289 84.08813,138.34967 76.84623,217.27603"
       id="path4528-8-0-8"
       inkscape:path-effect="#path-effect4530-3-5-7-6"
       inkscape:original-d="m 558.76284,-185.58752 -158.8071,-5.65449 c -199.4905,-15.48934 -264.6304,-156.43523 -245.0281,-278.52712 11.0559,-68.8611 111.313,-115.27009 180.4285,-105.9354 138.308,18.67978 291.8857,300.17503 291.8857,300.17503"
       inkscape:connector-curvature="0"
       sodipodi:nodetypes="ccaac" />
    <path
       style="color:#000000;font-style:normal;font-variant:normal;font-weight:normal;font-stretch:normal;font-size:medium;line-height:normal;font-family:sans-serif;text-indent:0;text-align:start;text-decoration:none;text-decoration-line:none;text-decoration-style:solid;text-decoration-color:#000000;letter-spacing:normal;word-spacing:normal;text-transform:none;direction:ltr;block-progression:tb;writing-mode:lr-tb;baseline-shift:baseline;text-anchor:start;white-space:normal;clip-rule:nonzero;display:inline;overflow:visible;visibility:visible;opacity:1;isolation:auto;mix-blend-mode:normal;color-interpolation:sRGB;color-interpolation-filters:linearRGB;solid-color:#000000;solid-opacity:1;fill:#000000;fill-opacity:1;fill-rule:evenodd;stroke:none;stroke-width:140;stroke-linecap:round;stroke-linejoin:round;stroke-miterlimit:4;stroke-dasharray:none;stroke-dashoffset:0;stroke-opacity:1;color-rendering:auto;image-rendering:auto;shape-rendering:auto;text-rendering:auto;enable-background:accumulate"
       d="M 1130.6973 2179.6289 C 1124.5825 2179.6261 1118.4503 2179.7898 1112.3047 2180.127 C 1049.9929 2183.5231 990.93151 2204.235 940.05273 2236.5156 C 892.95202 2266.3993 853.63586 2305.5646 822.45898 2349.5156 C 808.89752 2326.8695 792.69383 2305.6847 774.03516 2286.4961 C 708.31864 2218.9133 617.00561 2181.0702 523.16406 2181.8613 C 516.90796 2181.9143 510.64088 2182.1383 504.36914 2182.5371 C 458.60861 2185.4468 412.41084 2197.5761 370.35156 2221.3008 C 328.07566 2245.1475 291.32899 2280.0931 266.93359 2324.8047 C 241.18478 2371.9967 231.39274 2426.3751 239.64648 2479.8672 C 247.90776 2533.4082 273.65099 2581.854 311.36719 2619.0859 C 328.07375 2635.5779 346.4906 2649.2723 365.90625 2660.4961 C 340.11259 2680.243 316.50976 2703.4338 296.32422 2730.2012 C 258.66989 2780.1333 234.32627 2840.9683 231.25195 2906.0527 C 227.44452 2986.6575 256.84742 3064.9211 310.27734 3123.8672 A 70.007 70.007 0 0 0 310.2793 3123.8672 C 363.52975 3182.6151 437.00587 3218.5241 514.71875 3226.6699 C 618.17941 3237.5146 721.87851 3198.2746 792.24219 3121.6543 C 806.43418 3106.2004 818.90903 3089.4778 829.75977 3071.8633 C 856.7688 3106.7359 888.98593 3138.0758 926.47852 3163.4902 C 980.63206 3200.1983 1044.494 3223.7938 1112.0332 3227.5645 C 1183.5897 3231.5594 1253.55 3212.9751 1313.8594 3178.627 C 1373.9494 3144.4038 1423.1263 3095.5574 1459.8496 3039.6953 C 1529.2892 2934.0665 1551.7494 2809.1785 1548.0293 2690.6445 C 1613.0138 2690.0365 1672.5435 2691.3401 1722.1699 2707.1562 C 1749.6219 2715.9052 1773.6797 2729.2237 1790.7266 2745.7402 C 1807.2494 2761.749 1817.9057 2782.5768 1819.8184 2800.3047 C 1821.9462 2820.0331 1813.4307 2845.1767 1797.8379 2862.291 C 1781.6963 2880.0076 1755.9058 2893.1319 1728.7832 2897.0625 C 1727.7721 2897.209 1726.7479 2897.2783 1725.7324 2897.4023 C 1710.5008 2896.352 1695.2127 2896.2181 1679.9629 2897.2227 A 70.007 70.007 0 0 0 1676.3984 3036.5938 C 1692.6619 3038.5037 1709.0414 3038.8486 1725.3574 3037.8828 C 1727.0949 3038.0838 1728.8382 3038.2418 1730.5684 3038.4883 C 1762.0812 3042.9771 1791.3143 3055.6138 1811.4297 3073.7402 C 1830.8521 3091.2423 1843.3204 3116.8956 1843.9805 3138.4941 C 1844.4911 3155.2035 1838.5021 3174.7558 1827.3535 3190.8027 C 1815.9931 3207.1546 1798.3914 3221.8415 1777.6133 3232.2031 C 1735.9236 3252.9927 1678.0278 3256.6931 1612.3828 3256.7305 L 681.35156 3257.2617 C 607.75876 3257.3037 521.90741 3255.4847 436.7832 3291.0664 C 393.6729 3309.0862 351.88061 3337.0221 320.41016 3378.2246 C 288.41401 3420.1153 269.16345 3473.6999 275.10156 3531.1445 C 280.66777 3584.9913 307.20445 3630.7584 342.33008 3664.7617 C 376.9178 3698.2444 418.21993 3719.2279 459.21875 3732.1973 C 540.07432 3757.7749 618.62634 3754.3757 687.2168 3753.3398 L 1930.9297 3734.5566 A 70.007 70.007 0 1 0 1928.8145 3594.5723 L 685.10352 3613.3555 C 615.35103 3614.409 552.50351 3614.869 501.44336 3598.7168 C 476.4843 3590.8213 454.82216 3578.8079 439.70508 3564.1738 C 425.1259 3550.0605 415.9064 3531.7157 414.35938 3516.75 C 412.7237 3500.9268 418.95381 3479.849 431.66797 3463.2031 C 444.90782 3445.8689 465.92553 3430.6234 490.77539 3420.2363 C 541.57148 3399.0037 607.7079 3397.3037 681.43164 3397.2617 L 1612.4629 3396.7305 C 1680.7767 3396.6915 1761.9015 3396.4818 1840.0918 3357.4902 C 1879.2535 3337.9611 1915.4745 3309.3367 1942.3301 3270.6816 C 1969.3977 3231.7214 1985.4514 3184.4536 1983.916 3134.2148 C 1981.9095 3068.5585 1950.5779 3010.6704 1905.1504 2969.7344 C 1902.1799 2967.0577 1899.0498 2964.6762 1895.9902 2962.1621 C 1897.7822 2960.3187 1899.5842 2958.4882 1901.3262 2956.5762 C 1942.7604 2911.0991 1965.9642 2849.7412 1959.0098 2785.2832 C 1952.9389 2729.0148 1925.0737 2680.9714 1888.1445 2645.1914 C 1851.7396 2609.9191 1808.1411 2587.6162 1764.6816 2573.7656 C 1682.5377 2547.5859 1602.3464 2549.5952 1530.8184 2550.7188 C 1514.3826 2477.2749 1485.2184 2405.4924 1437.791 2342.4746 C 1401.0825 2293.6995 1354.1027 2251.4403 1298.123 2221.9824 C 1248.9755 2196.1197 1193.7587 2180.7341 1136.8066 2179.6855 L 1136.8066 2179.6875 C 1134.7726 2179.6501 1132.7355 2179.6298 1130.6973 2179.6289 z M 1130.5762 2319.6426 C 1131.7653 2319.645 1132.9562 2319.6592 1134.1484 2319.6836 C 1167.5305 2320.3654 1202.0194 2329.6122 1232.9277 2345.877 C 1268.4407 2364.5648 1300.4682 2392.831 1325.9297 2426.6621 C 1353.3539 2463.1013 1373.2607 2506.1926 1386.6816 2552.7188 L 878.82422 2559.8184 C 890.35397 2515.2519 907.59503 2473.6566 931.7168 2437.6543 C 954.21782 2404.071 982.75997 2375.2202 1015.0547 2354.7305 C 1047.1908 2334.3413 1084.0676 2321.8742 1119.9238 2319.9199 C 1123.4564 2319.7274 1127.0088 2319.6352 1130.5762 2319.6426 z M 524.14258 2321.8867 C 578.78467 2321.6405 635.77986 2345.1356 673.66406 2384.0957 C 714.07389 2425.6532 736.28465 2488.453 730.98828 2546.1758 A 70.007 70.007 0 0 0 731.21094 2561.9883 C 694.18257 2562.6841 655.69164 2564.0453 616.63477 2568.3555 L 575.90039 2566.9043 C 538.26434 2565.5642 505.09826 2563.4818 477.77734 2556.2266 C 450.7115 2549.0392 426.5502 2536.0665 409.7207 2519.4531 C 393.0664 2503.0127 381.39694 2480.4843 378.00781 2458.5195 C 374.61113 2436.5058 378.98647 2411.7334 389.83008 2391.8594 C 400.30006 2372.6701 418.00828 2355.1552 439.13477 2343.2383 C 460.47786 2331.1991 486.36563 2323.9654 513.25195 2322.2559 C 516.86749 2322.026 520.49977 2321.9031 524.14258 2321.8867 z M 1407.9922 2692.4336 C 1411.3681 2790.4793 1392.1178 2887.867 1342.8633 2962.791 C 1317.1814 3001.8573 1283.2003 3034.9739 1244.5742 3056.9727 C 1206.1674 3078.8465 1161.7086 3090.119 1119.8379 3087.7812 C 1080.2654 3085.572 1039.6777 3071.0906 1005.0312 3047.6055 C 970.20455 3023.9981 940.1728 2990.8549 917.58398 2952.7129 C 897.66628 2919.0811 883.45278 2881.4682 874.16016 2841.584 C 873.84787 2839.7946 873.63767 2837.9977 873.29492 2836.2109 A 70.007 70.007 0 0 0 871.19531 2827.8066 C 862.89045 2786.7852 859.78955 2743.6143 860.67969 2700.0859 L 1407.9922 2692.4336 z M 626.27344 2708.7852 L 720.32617 2712.1348 C 720.14077 2765.1647 725.08348 2819.2465 737.32227 2872.209 C 744.47806 2926.4605 725.91889 2986.8956 689.12695 3026.959 C 650.14529 3069.4068 586.63194 3093.4416 529.31445 3087.4336 C 485.76212 3082.8684 442.6439 3061.4381 414.00781 3029.8457 C 385.55119 2998.4512 369.1501 2953.8492 371.0957 2912.6602 C 372.68994 2878.9096 386.1831 2843.562 408.10352 2814.4941 C 430.20506 2785.1861 461.61496 2760.5884 497.4082 2743.2031 C 535.46288 2724.7194 579.09095 2714.5092 626.27344 2708.7852 z "
       transform="translate(0,-1048)"
       id="path4498-7-1-0-3-0" />
  </g>
</svg>
