<?xml version="1.0" encoding="UTF-8" standalone="no"?>
<!-- Created with Inkscape (http://www.inkscape.org/) -->

<svg
   xmlns:dc="http://purl.org/dc/elements/1.1/"
   xmlns:cc="http://creativecommons.org/ns#"
   xmlns:rdf="http://www.w3.org/1999/02/22-rdf-syntax-ns#"
   xmlns:svg="http://www.w3.org/2000/svg"
   xmlns="http://www.w3.org/2000/svg"
   xmlns:sodipodi="http://sodipodi.sourceforge.net/DTD/sodipodi-0.dtd"
   xmlns:inkscape="http://www.inkscape.org/namespaces/inkscape"
   width="2000"
   height="2048"
   id="svg2992"
   version="1.1"
   inkscape:version="0.91 r13725"
   sodipodi:docname="ങ്ക.svg">
  <defs
     id="defs5498">
    <inkscape:path-effect
       effect="spiro"
       id="path-effect3846"
       is_visible="true" />
    <inkscape:path-effect
       effect="spiro"
       id="path-effect3801"
       is_visible="true" />
    <inkscape:path-effect
       effect="spiro"
       id="path-effect4530"
       is_visible="true" />
    <inkscape:path-effect
       effect="spiro"
       id="path-effect4530-3"
       is_visible="true" />
    <inkscape:path-effect
       effect="spiro"
       id="path-effect4530-3-5"
       is_visible="true" />
    <inkscape:path-effect
       is_visible="true"
       id="path-effect4500-0-5-18"
       effect="spiro" />
    <inkscape:path-effect
       effect="spiro"
       id="path-effect4530-3-5-0"
       is_visible="true" />
    <inkscape:path-effect
       is_visible="true"
       id="path-effect4500-0-5-18-9"
       effect="spiro" />
    <inkscape:path-effect
       is_visible="true"
       id="path-effect4500-0-5-18-3"
       effect="spiro" />
    <inkscape:path-effect
       effect="spiro"
       id="path-effect4530-3-5-7"
       is_visible="true" />
    <inkscape:path-effect
       effect="spiro"
       id="path-effect4530-3-5-7-8"
       is_visible="true" />
    <inkscape:path-effect
       is_visible="true"
       id="path-effect4500-0-5-18-3-5"
       effect="spiro" />
  </defs>
  <sodipodi:namedview
     inkscape:window-height="851"
     inkscape:window-width="1600"
     inkscape:pageshadow="2"
     inkscape:pageopacity="0.0"
     borderopacity="1.0"
     bordercolor="#666666"
     pagecolor="#ffffff"
     id="base"
     showgrid="true"
     showguides="true"
     inkscape:guide-bbox="true"
     inkscape:zoom="0.32102648"
     inkscape:cx="980.26923"
     inkscape:cy="630.07276"
     inkscape:window-x="1599"
     inkscape:window-y="-1"
     inkscape:current-layer="layer1"
     inkscape:window-maximized="1">
    <sodipodi:guide
       orientation="horizontal"
       position="0,600"
       id="guide5596" />
    <inkscape:grid
       type="xygrid"
       id="grid3769"
       empspacing="3"
       visible="true"
       enabled="true"
       snapvisiblegridlinesonly="true"
       spacingx="4px"
       units="px"
       dotted="true"
       spacingy="4px" />
    <sodipodi:guide
       orientation="0,1"
       position="-1040,1600"
       id="guide2985" />
  </sodipodi:namedview>
  <metadata
     id="metadata5594">
    <rdf:RDF>
      <cc:Work
         rdf:about="">
        <dc:format>image/svg+xml</dc:format>
        <dc:type
           rdf:resource="http://purl.org/dc/dcmitype/StillImage" />
        <dc:title />
      </cc:Work>
    </rdf:RDF>
  </metadata>
  <g
     inkscape:label="Layer 1"
     inkscape:groupmode="layer"
     id="layer1"
     transform="translate(0,1048)">
    <path
       sodipodi:nodetypes="aaaaacaassac"
       inkscape:connector-curvature="0"
       inkscape:original-d="m 1027.619,-556.94654 c 185.8279,-5.13273 355.4604,239.1003 361.2155,424.90998 6.2229,200.912986 -160.4411,487.49709 -361.3941,482.7391 C 834.42518,346.1325 697.43859,64.122049 702.65506,-128.87678 707.49539,-307.95914 848.53954,-552.0002 1027.619,-556.94654 Z M 716.05294,42.427785 c 0,0 -144.76657,302.502875 -282.53135,301.653355 -109.12978,-0.67294 -236.23788,-133.6549 -220.8421,-241.69532 25.10387,-176.167266 178.65746,-274.34517 455.84808,-277.8282 l 715.88743,-8.99547 c 173.9217,-2.18541 377.1,127.406276 383.1239,286.82367 4.7112,124.68002 -281.8572,246.29705 -281.8572,246.29705"
       inkscape:path-effect="#path-effect4500-0-5-18-3"
       id="path4498-7-1-0-3"
       d="m 1027.619,-556.94654 c 51.6169,-2.81323 103.6649,9.83373 149.4111,33.90656 45.7463,24.07284 85.2503,59.33559 116.3352,100.63871 62.1698,82.60624 89.7222,187.13752 95.4692,290.36471 6.3149,113.428085 -13.5677,231.38101 -75.973,326.3094 -31.2026,47.46419 -72.7823,88.44503 -122.1404,116.55606 -49.3581,28.11102 -106.5672,43.03995 -163.2807,39.87364 C 973.8846,347.71253 921.66012,328.67416 877.26012,298.57759 832.86011,268.48101 796.19199,227.56592 768.859,181.41323 714.19303,89.107831 697.5574,-21.719565 702.65506,-128.87678 c 4.67168,-98.20263 27.68969,-197.72775 82.41305,-279.40354 27.36168,-40.83789 62.48304,-76.73189 103.9905,-103.06677 41.50746,-26.33488 89.4764,-42.92427 138.56039,-45.59945 z M 716.05294,42.427785 C 729.01545,120.92415 703.5567,204.85489 649.17026,262.92227 594.78381,320.98964 512.69761,351.88259 433.52159,344.08114 373.71571,338.18829 315.99192,310.63064 275.03948,266.6492 234.08705,222.66776 210.61103,162.44571 212.67949,102.38582 214.38525,52.85717 233.0876,4.4992538 262.84932,-35.126958 c 29.76172,-39.626211 70.22447,-70.625992 114.85478,-92.169722 89.26061,-43.08747 191.71526,-46.90036 290.82347,-48.1457 l 715.88743,-8.99547 c 45.6051,-0.57305 91.4754,-0.74991 136.4622,6.75624 44.9868,7.50615 89.0027,22.78607 127.1576,47.77321 38.1549,24.98715 70.108,59.582965 91.0675,100.090448 20.9594,40.507482 30.8309,86.657947 28.4366,132.203772 -3.6524,69.47768 -36.465,136.96088 -88.8546,182.74088 -52.3897,45.78001 -123.6624,69.25025 -193.0026,63.55617"
       style="fill:none;fill-rule:evenodd;stroke:#000000;stroke-width:140;stroke-linecap:round;stroke-linejoin:round;stroke-miterlimit:4;stroke-dasharray:none;stroke-opacity:1" />
    <path
       style="fill:none;fill-rule:evenodd;stroke:#000000;stroke-width:140;stroke-linecap:round;stroke-linejoin:round;stroke-miterlimit:4;stroke-dasharray:none;stroke-opacity:1"
       d="M 653.72209,-170.45703 494.915,-176.11152 c -38.17549,-1.35928 -76.6789,-3.17243 -113.59899,-12.97665 -36.92009,-9.80421 -72.08135,-27.77656 -99.26661,-54.61269 -27.18526,-26.83612 -45.89214,-62.32346 -51.71734,-100.07638 -5.8252,-37.75292 1.25863,-77.32837 19.55484,-110.8614 17.4327,-31.95039 44.65994,-58.18029 76.36114,-76.06214 31.70119,-17.88184 67.74395,-27.56365 104.06738,-29.87326 79.09816,-5.02942 159.78572,26.07612 215.03944,82.89901 55.25371,56.82289 84.08811,138.34967 76.8462,217.27602"
       id="path4528-8-0-8"
       inkscape:path-effect="#path-effect4530-3-5-7"
       inkscape:original-d="M 653.72209,-170.45703 494.915,-176.11152 c -199.49047,-15.48934 -264.63043,-156.43523 -245.0281,-278.52712 11.05592,-68.8611 111.31305,-115.27009 180.42852,-105.9354 138.30798,18.67978 291.88564,300.17503 291.88564,300.17503"
       inkscape:connector-curvature="0"
       sodipodi:nodetypes="ccaac" />
    <path
       style="color:#000000;font-style:normal;font-variant:normal;font-weight:normal;font-stretch:normal;font-size:medium;line-height:normal;font-family:sans-serif;text-indent:0;text-align:start;text-decoration:none;text-decoration-line:none;text-decoration-style:solid;text-decoration-color:#000000;letter-spacing:normal;word-spacing:normal;text-transform:none;direction:ltr;block-progression:tb;writing-mode:lr-tb;baseline-shift:baseline;text-anchor:start;white-space:normal;clip-rule:nonzero;display:inline;overflow:visible;visibility:visible;opacity:1;isolation:auto;mix-blend-mode:normal;color-interpolation:sRGB;color-interpolation-filters:linearRGB;solid-color:#000000;solid-opacity:1;fill:#000000;fill-opacity:1;fill-rule:evenodd;stroke:none;stroke-width:140;stroke-linecap:round;stroke-linejoin:round;stroke-miterlimit:4;stroke-dasharray:none;stroke-dashoffset:0;stroke-opacity:1;color-rendering:auto;image-rendering:auto;shape-rendering:auto;text-rendering:auto;enable-background:accumulate"
       d="M 445.38477 1538.2969 C 443.91981 1538.2904 442.45456 1538.2943 440.98828 1538.3066 C 434.73218 1538.3593 428.4651 1538.5836 422.19336 1538.9824 C 376.43283 1541.8921 330.23502 1554.0215 288.17578 1577.7461 C 245.89993 1601.5928 209.15321 1636.5385 184.75781 1681.25 C 159.00903 1728.442 149.21698 1782.8204 157.4707 1836.3125 C 165.73197 1889.8535 191.47704 1938.2993 229.19336 1975.5312 C 245.33034 1991.461 263.06345 2004.7804 281.75 2015.7852 C 252.43295 2036.9046 225.67132 2062.3269 203.19727 2092.25 C 165.4694 2142.4827 141.29864 2203.84 139.04102 2269.3926 C 136.29007 2349.2696 166.55161 2426.2255 220.12891 2483.7656 C 273.49926 2541.0834 346.35113 2575.608 422.97656 2583.1582 C 524.79759 2593.1909 626.63861 2554.8647 696.58008 2480.1895 C 710.9682 2464.8275 723.63587 2448.1644 734.69141 2430.5938 C 762.26795 2466.9707 795.47628 2499.6171 834.30273 2525.9355 C 888.45628 2562.6436 952.31829 2586.2391 1019.8574 2590.0098 C 1091.4139 2594.0047 1161.3742 2575.4184 1221.6836 2541.0703 C 1281.7736 2506.8471 1330.9505 2458.0026 1367.6738 2402.1406 C 1436.5632 2297.3488 1459.2456 2173.5935 1455.9688 2055.9004 C 1473.2371 2056.7662 1489.9396 2058.1537 1505.6758 2060.7793 C 1542.7627 2066.9673 1577.5487 2079.4315 1606.0039 2098.0664 C 1634.3698 2116.6429 1658.161 2142.6 1673.252 2171.7656 C 1688.3615 2200.9673 1695.6897 2235.1293 1693.9551 2268.127 C 1691.3318 2318.0292 1666.5721 2368.9506 1628.9434 2401.832 C 1591.3145 2434.7134 1537.5339 2452.4218 1487.7305 2448.332 A 70.007 70.007 0 1 0 1476.2715 2587.8633 C 1565.1485 2595.1617 1653.9139 2565.9305 1721.0645 2507.252 C 1788.2149 2448.5734 1829.0802 2364.5298 1833.7617 2275.4766 C 1836.8157 2217.3826 1824.401 2159.243 1797.5918 2107.4297 C 1770.7638 2055.5804 1730.649 2012.347 1682.7051 1980.9492 C 1634.8504 1949.6098 1581.6035 1931.5137 1528.7168 1922.6895 C 1497.7598 1917.5242 1467.8874 1915.725 1439.0684 1915.1074 C 1422.715 1840.9884 1393.4599 1768.4941 1345.6152 1704.9219 C 1308.9068 1656.1467 1261.927 1613.8876 1205.9473 1584.4297 C 1156.7997 1558.567 1101.583 1543.1833 1044.6309 1542.1348 L 1044.6309 1542.1328 C 1036.4948 1541.983 1028.3231 1542.1258 1020.1289 1542.5723 C 957.81717 1545.9684 898.75574 1566.6803 847.87695 1598.9609 C 804.45103 1626.513 767.64463 1661.9561 737.73047 1701.7637 C 724.70316 1680.6938 709.36105 1660.9401 691.85938 1642.9414 C 627.16969 1576.4146 537.67674 1538.7044 445.38477 1538.2969 z M 441.96875 1678.332 C 496.61081 1678.0858 553.60406 1701.579 591.48828 1740.5391 C 629.6788 1779.8142 651.60218 1838.0615 649.42578 1893.0664 C 646.8562 1903.4532 644.54623 1913.8792 642.49023 1924.3262 C 621.39287 1924.6673 599.80091 1925.2003 577.88867 1926.3438 L 493.72656 1923.3477 C 456.0906 1922.0076 422.92261 1919.927 395.60156 1912.6719 C 368.53577 1905.4845 344.37445 1892.5118 327.54492 1875.8984 C 310.89073 1859.4581 299.22311 1836.9277 295.83398 1814.9629 C 292.4373 1792.9491 296.81066 1768.1788 307.6543 1748.3047 C 318.1243 1729.1154 335.83244 1711.6006 356.95898 1699.6836 C 378.30213 1687.6445 404.18984 1680.4088 431.07617 1678.6992 C 434.6917 1678.4693 438.32595 1678.3485 441.96875 1678.332 z M 1038.4004 1682.0879 C 1039.5895 1682.0904 1040.7804 1682.1046 1041.9727 1682.1289 C 1075.3546 1682.8107 1109.8436 1692.0575 1140.752 1708.3223 C 1176.2648 1727.01 1208.2945 1755.2764 1233.7559 1789.1074 C 1261.3546 1825.7785 1281.3432 1869.1844 1294.7656 1916.0508 L 787.29492 1922.4297 A 70.007 70.007 0 0 0 788.00391 1917.1992 C 799.51454 1874.5485 816.33655 1834.7308 839.54102 1800.0977 C 862.04206 1766.5143 890.58427 1737.6655 922.87891 1717.1758 C 955.01504 1696.7867 991.89187 1684.3195 1027.748 1682.3652 C 1031.2806 1682.1727 1034.833 1682.0805 1038.4004 1682.0879 z M 1315.8535 2055.7988 C 1319.0774 2153.5336 1299.7899 2250.5466 1250.6895 2325.2363 C 1225.0075 2364.3021 1191.0242 2397.4193 1152.3984 2419.418 C 1113.9916 2441.2919 1069.5328 2452.5642 1027.6621 2450.2266 C 988.08968 2448.0172 947.5019 2433.5359 912.85547 2410.0508 C 878.0288 2386.4436 847.99704 2353.3002 825.4082 2315.1582 C 805.36331 2281.3117 791.10699 2243.4278 781.81836 2203.2598 C 781.6716 2202.32 781.59261 2201.3768 781.4375 2200.4375 A 70.007 70.007 0 0 0 779.01758 2190.2344 C 770.72459 2149.2639 767.62229 2106.1485 768.50195 2062.6758 L 1315.8535 2055.7988 z M 583.48242 2066.6328 L 628.20898 2068.2246 C 627.60917 2121.9789 632.23524 2176.8976 644.29883 2230.7285 C 650.75003 2284.8932 631.51775 2344.8569 594.40039 2384.4863 C 555.56898 2425.9459 493.23608 2449.4041 436.70508 2443.834 C 393.71876 2439.5984 351.12437 2419.0083 322.58984 2388.3633 C 294.26226 2357.9404 277.57108 2314.4537 278.95703 2274.2109 C 280.11093 2240.7061 293.34505 2205.3459 315.14062 2176.3262 C 337.13401 2147.0431 368.58083 2122.4743 404.45312 2105.1582 C 455.70881 2080.4163 517.00223 2070.649 583.48242 2066.6328 z "
       transform="translate(0,-1048)"
       id="path4498-7-1-0-3-3" />
  </g>
</svg>
