<?xml version="1.0" encoding="UTF-8" standalone="no"?>
<!-- Created with Inkscape (http://www.inkscape.org/) -->

<svg
   xmlns:dc="http://purl.org/dc/elements/1.1/"
   xmlns:cc="http://creativecommons.org/ns#"
   xmlns:rdf="http://www.w3.org/1999/02/22-rdf-syntax-ns#"
   xmlns:svg="http://www.w3.org/2000/svg"
   xmlns="http://www.w3.org/2000/svg"
   xmlns:sodipodi="http://sodipodi.sourceforge.net/DTD/sodipodi-0.dtd"
   xmlns:inkscape="http://www.inkscape.org/namespaces/inkscape"
   width="2000"
   height="2048"
   id="svg2992"
   version="1.1"
   inkscape:version="0.91pre3 r13670"
   sodipodi:docname="ച.svg">
  <defs
     id="defs5498">
    <inkscape:path-effect
       effect="spiro"
       id="path-effect4146"
       is_visible="true" />
    <inkscape:path-effect
       effect="spiro"
       id="path-effect3006"
       is_visible="true" />
    <inkscape:path-effect
       effect="spiro"
       id="path-effect4141-37-35"
       is_visible="true" />
    <inkscape:path-effect
       effect="spiro"
       id="path-effect4141-37-35-0"
       is_visible="true" />
    <inkscape:path-effect
       effect="spiro"
       id="path-effect4141-37-35-0-0"
       is_visible="true" />
    <inkscape:path-effect
       effect="spiro"
       id="path-effect4141-37-35-0-5"
       is_visible="true" />
    <inkscape:path-effect
       effect="spiro"
       id="path-effect4141-37-35-0-6"
       is_visible="true" />
    <inkscape:path-effect
       effect="spiro"
       id="path-effect4146-9"
       is_visible="true" />
    <inkscape:path-effect
       effect="spiro"
       id="path-effect4141-37-35-0-6-4"
       is_visible="true" />
    <inkscape:path-effect
       effect="spiro"
       id="path-effect4146-9-3"
       is_visible="true" />
    <inkscape:path-effect
       effect="spiro"
       id="path-effect4146-9-3-6"
       is_visible="true" />
    <inkscape:path-effect
       effect="spiro"
       id="path-effect4141-37-35-0-6-4-5"
       is_visible="true" />
  </defs>
  <sodipodi:namedview
     inkscape:window-height="853"
     inkscape:window-width="1600"
     inkscape:pageshadow="2"
     inkscape:pageopacity="0.0"
     borderopacity="1.0"
     bordercolor="#666666"
     pagecolor="#ffffff"
     id="base"
     showgrid="true"
     showguides="true"
     inkscape:guide-bbox="true"
     inkscape:zoom="0.32102648"
     inkscape:cx="1520.4616"
     inkscape:cy="781.54571"
     inkscape:window-x="1598"
     inkscape:window-y="-3"
     inkscape:current-layer="layer1"
     inkscape:window-maximized="1">
    <sodipodi:guide
       orientation="horizontal"
       position="0,600"
       id="guide5596" />
    <inkscape:grid
       type="xygrid"
       id="grid3769"
       empspacing="3"
       visible="true"
       enabled="true"
       snapvisiblegridlinesonly="true"
       spacingx="4px"
       units="px"
       dotted="true"
       spacingy="4px" />
    <sodipodi:guide
       orientation="0,1"
       position="-1040,1600"
       id="guide2985" />
  </sodipodi:namedview>
  <metadata
     id="metadata5594">
    <rdf:RDF>
      <cc:Work
         rdf:about="">
        <dc:format>image/svg+xml</dc:format>
        <dc:type
           rdf:resource="http://purl.org/dc/dcmitype/StillImage" />
        <dc:title />
      </cc:Work>
    </rdf:RDF>
  </metadata>
  <g
     inkscape:label="Layer 1"
     inkscape:groupmode="layer"
     id="layer1"
     transform="translate(0,1048)">
    <path
       style="color:#000000;font-style:normal;font-variant:normal;font-weight:normal;font-stretch:normal;font-size:medium;line-height:normal;font-family:sans-serif;text-indent:0;text-align:start;text-decoration:none;text-decoration-line:none;text-decoration-style:solid;text-decoration-color:#000000;letter-spacing:normal;word-spacing:normal;text-transform:none;direction:ltr;block-progression:tb;writing-mode:lr-tb;baseline-shift:baseline;text-anchor:start;white-space:normal;clip-rule:nonzero;display:inline;overflow:visible;visibility:visible;opacity:1;isolation:auto;mix-blend-mode:normal;color-interpolation:sRGB;color-interpolation-filters:linearRGB;solid-color:#000000;solid-opacity:1;fill:#000000;fill-opacity:1;fill-rule:evenodd;stroke:none;stroke-width:140;stroke-linecap:round;stroke-linejoin:round;stroke-miterlimit:4;stroke-dasharray:none;stroke-dashoffset:0;stroke-opacity:1;color-rendering:auto;image-rendering:auto;shape-rendering:auto;text-rendering:auto;enable-background:accumulate"
       d="M 1686.8848 445.44531 A 70.007 70.007 0 0 0 1617.9258 516.42188 L 1617.7793 1304.5488 L 1009.9688 1306.1426 C 1074.6546 1234.8712 1114.7646 1142.9771 1122.1582 1046.3379 C 1130.3483 939.28884 1097.9139 830.29868 1027.875 746.68555 C 957.54163 662.72083 853.12702 610.00516 741.94336 607.83008 C 633.4989 605.70859 528.23565 652.17634 456.73047 733.73438 C 385.22529 815.2924 352.92407 925.72943 369.21094 1032.9648 A 70.007 70.007 0 1 0 507.625 1011.9414 C 497.79503 947.21926 518.84292 875.25379 562 826.0293 C 605.15708 776.80479 673.75322 746.52426 739.20508 747.80469 C 806.62533 749.12363 876.17597 783.60654 920.55273 836.58398 C 965.22402 889.91303 988.00371 964.58969 982.56641 1035.6582 C 976.68005 1112.5964 937.60953 1188.9616 878.6582 1238.75 C 833.38987 1276.9822 774.63274 1301.0125 715.00391 1306.916 L 658.45312 1307.0645 A 70.007 70.007 0 0 0 647.99805 1307.0918 L 175.38281 1308.3301 A 70.007 70.007 0 1 0 175.75 1448.3301 L 653.57227 1447.0781 C 677.07303 1448.9431 700.60129 1448.8549 723.91406 1446.8926 L 1687.9492 1444.3652 A 70.007 70.007 0 0 0 1757.7656 1374.377 L 1757.9258 516.44727 A 70.007 70.007 0 0 0 1686.8848 445.44531 z "
       transform="translate(0,-1048)"
       id="path4139-9-8-9-4-1" />
    <path
       style="fill:none;fill-rule:evenodd;stroke:#000000;stroke-width:140;stroke-linecap:round;stroke-linejoin:round;stroke-miterlimit:4;stroke-dasharray:none;stroke-opacity:1"
       d="m 1697.9803,580.49237 -0.159,857.93023 -1512.19958,3.9653"
       id="path4139-9-8-9-4-1-4"
       inkscape:path-effect="#path-effect4141-37-35-0-6-4-5"
       inkscape:original-d="m 1697.9803,580.49237 -0.159,857.93023 -1512.19958,3.9653"
       inkscape:connector-curvature="0"
       sodipodi:nodetypes="ccc" />
    <path
       style="fill:none;fill-rule:evenodd;stroke:#000000;stroke-width:140;stroke-linecap:round;stroke-linejoin:round;stroke-miterlimit:4;stroke-dasharray:none;stroke-opacity:1"
       d="m 448.47236,1086.5107 c -13.05841,-85.9788 13.61616,-177.18014 70.94729,-242.57141 57.33113,-65.39126 144.26024,-103.76504 231.2084,-102.06409 89.30197,1.747 176.28467,45.3458 233.63975,113.81688 57.3551,68.47108 84.9636,160.30542 78.1499,249.36422 -7.3675,96.2976 -54.7531,188.9137 -128.53786,251.23 -73.78478,62.3163 -173.02443,93.5352 -269.19706,84.6843"
       id="path4144-8-8-4"
       inkscape:path-effect="#path-effect4146-9-3-6"
       inkscape:original-d="m 448.47236,1086.5107 c 0,0 149.37916,-345.4306 302.15569,-344.6355 159.55041,0.83036 324.54485,204.13918 311.78965,363.1811 -13.8731,172.9802 -397.73492,335.9143 -397.73492,335.9143"
       inkscape:connector-curvature="0"
       sodipodi:nodetypes="caac" />
  </g>
</svg>
