<?xml version="1.0" encoding="UTF-8" standalone="no"?>
<!-- Created with Inkscape (http://www.inkscape.org/) -->

<svg
   xmlns:dc="http://purl.org/dc/elements/1.1/"
   xmlns:cc="http://creativecommons.org/ns#"
   xmlns:rdf="http://www.w3.org/1999/02/22-rdf-syntax-ns#"
   xmlns:svg="http://www.w3.org/2000/svg"
   xmlns="http://www.w3.org/2000/svg"
   xmlns:sodipodi="http://sodipodi.sourceforge.net/DTD/sodipodi-0.dtd"
   xmlns:inkscape="http://www.inkscape.org/namespaces/inkscape"
   width="2000"
   height="2048"
   id="svg2992"
   version="1.1"
   inkscape:version="0.91pre3 r13670"
   sodipodi:docname="ഛു.svg">
  <defs
     id="defs5498">
    <inkscape:path-effect
       effect="spiro"
       id="path-effect3006"
       is_visible="true" />
    <inkscape:path-effect
       effect="spiro"
       id="path-effect4146-9-3-6-4"
       is_visible="true" />
    <inkscape:path-effect
       effect="spiro"
       id="path-effect4141-3-4-6-0"
       is_visible="true" />
    <inkscape:path-effect
       effect="spiro"
       id="path-effect4146-9-3-6-4-9"
       is_visible="true" />
    <inkscape:path-effect
       effect="spiro"
       id="path-effect4141-3-4-6-0-4"
       is_visible="true" />
  </defs>
  <sodipodi:namedview
     inkscape:window-height="853"
     inkscape:window-width="1600"
     inkscape:pageshadow="2"
     inkscape:pageopacity="0.0"
     borderopacity="1.0"
     bordercolor="#666666"
     pagecolor="#ffffff"
     id="base"
     showgrid="true"
     showguides="true"
     inkscape:guide-bbox="true"
     inkscape:zoom="0.32102648"
     inkscape:cx="1291.1141"
     inkscape:cy="686.82688"
     inkscape:window-x="1598"
     inkscape:window-y="-3"
     inkscape:current-layer="layer1"
     inkscape:window-maximized="1"
     inkscape:snap-grids="false">
    <sodipodi:guide
       orientation="horizontal"
       position="0,600"
       id="guide5596" />
    <inkscape:grid
       type="xygrid"
       id="grid3769"
       empspacing="3"
       visible="true"
       enabled="true"
       snapvisiblegridlinesonly="true"
       spacingx="4px"
       units="px"
       dotted="true"
       spacingy="4px" />
    <sodipodi:guide
       orientation="0,1"
       position="-1040,1600"
       id="guide2985" />
  </sodipodi:namedview>
  <metadata
     id="metadata5594">
    <rdf:RDF>
      <cc:Work
         rdf:about="">
        <dc:format>image/svg+xml</dc:format>
        <dc:type
           rdf:resource="http://purl.org/dc/dcmitype/StillImage" />
        <dc:title />
      </cc:Work>
    </rdf:RDF>
  </metadata>
  <g
     inkscape:label="Layer 1"
     inkscape:groupmode="layer"
     id="layer1"
     transform="translate(0,1048)">
    <path
       style="color:#000000;font-style:normal;font-variant:normal;font-weight:normal;font-stretch:normal;font-size:medium;line-height:normal;font-family:sans-serif;text-indent:0;text-align:start;text-decoration:none;text-decoration-line:none;text-decoration-style:solid;text-decoration-color:#000000;letter-spacing:normal;word-spacing:normal;text-transform:none;direction:ltr;block-progression:tb;writing-mode:lr-tb;baseline-shift:baseline;text-anchor:start;white-space:normal;clip-rule:nonzero;display:inline;overflow:visible;visibility:visible;opacity:1;isolation:auto;mix-blend-mode:normal;color-interpolation:sRGB;color-interpolation-filters:linearRGB;solid-color:#000000;solid-opacity:1;fill:#000000;fill-opacity:1;fill-rule:evenodd;stroke:none;stroke-width:140;stroke-linecap:round;stroke-linejoin:round;stroke-miterlimit:4;stroke-dasharray:none;stroke-dashoffset:0;stroke-opacity:1;color-rendering:auto;image-rendering:auto;shape-rendering:auto;text-rendering:auto;enable-background:accumulate"
       d="M 1741.9141 448.99023 C 1738.9302 448.97654 1735.9481 448.9856 1732.9668 449.01953 C 1473.6849 451.97045 1225.3129 633.68616 1171.4355 897.93164 C 1137.7246 1042.8485 1168.2174 1195.541 1247.3535 1318.0352 L 892.75781 1316.4824 C 945.04534 1254.7688 978.29361 1176.7124 982.94727 1092.2891 C 982.88156 1092.9505 982.82167 1093.6117 982.75195 1094.2734 L 983.05078 1090.4434 C 983.0199 1091.0594 982.98118 1091.6737 982.94727 1092.2891 C 1002.8387 892.0353 839.14021 705.03494 640.52148 704.36523 C 620.47292 704.29763 600.06214 706.18244 579.45508 710.08984 C 369.30547 741.24459 243.17157 979.982 336.27148 1171.1895 A 70.007 70.007 0 1 0 462.14258 1109.9023 C 412.76579 1008.4929 489.2579 864.25737 600.97852 848.37695 A 70.007 70.007 0 0 0 604.53711 847.77734 C 729.90901 823.30414 856.73289 954.22005 843.52344 1079.6055 A 70.007 70.007 0 0 0 843.22461 1083.4355 C 837.49348 1197.7726 738.53622 1301.0223 624.42188 1311.5156 A 70.007 70.007 0 0 0 606.95508 1315.2305 L 67.671875 1312.8691 A 70.007 70.007 0 1 0 67.058594 1452.8672 L 1402.2207 1458.7148 A 70.007 70.007 0 0 0 1447.0645 1334.7129 C 1332.0611 1239.865 1273.8848 1073.0468 1308.0625 928.38477 A 70.007 70.007 0 0 0 1308.5391 926.2168 C 1354.7113 698.7795 1618.5808 544.05563 1841.9297 601.92773 A 70.007 70.007 0 0 0 1846.0488 602.86328 C 1855.9143 604.79332 1865.6345 607.29576 1875.2812 610.05078 C 1780.2188 640.48739 1694.1659 698.75967 1632.7129 785.14258 C 1482.1368 978.20817 1521.7689 1290.3927 1748.2754 1411.4922 C 1954.0714 1531.6826 2219.0712 1408.6067 2293.6289 1193.6582 C 2343.5342 1066.2914 2335.6069 932.06732 2287.1738 813.51562 C 2451.0263 936.95347 2498.851 1198.6885 2383.2422 1369.3887 A 70.007 70.007 0 0 0 2381.4414 1372.1914 C 2293.907 1515.7017 2112.2195 1576.9996 1936.873 1575.0312 C 1398.3965 1565.1135 861.05354 1574.0103 325.08398 1572.0566 A 70.007 70.007 0 0 0 325.0332 1572.0566 C 270.05174 1571.8967 202.75834 1576.5773 138.46875 1602.1172 C 74.179183 1627.657 9.1505174 1683.5803 -6.5136719 1768.3457 A 70.007 70.007 0 0 0 -7.5195312 1776.3555 C -13.23945 1861.1727 39.531808 1930.2605 98.492188 1964.7129 C 157.43969 1999.1578 223.52127 2011.4197 282.27539 2010.9844 C 1023.3105 2007.2523 1764.3669 2000.6517 2505.1777 1995.8145 A 70.007 70.007 0 1 0 2504.2637 1855.8164 C 1763.1866 1860.6554 1022.1555 1867.2561 281.4375 1870.9863 A 70.007 70.007 0 0 0 281.26367 1870.9883 C 245.7672 1871.2546 198.2665 1860.8642 169.125 1843.8359 C 141.44278 1827.6603 131.32277 1816.5285 132.08789 1789.9238 C 138.81303 1759.5229 155.12952 1746.1414 190.15625 1732.2266 C 226.68884 1717.7135 279.71311 1711.9286 324.57422 1712.0547 C 862.59601 1714.0159 1399.4165 1705.1413 1934.7969 1715.0137 A 70.007 70.007 0 0 0 1935.3008 1715.0215 C 2143.719 1717.3611 2377.8309 1645.538 2500.1289 1446.4434 C 2499.8042 1446.9263 2499.4867 1447.4124 2499.1602 1447.8945 L 2500.9629 1445.0918 C 2500.6868 1445.5445 2500.4062 1445.992 2500.1289 1446.4434 C 2665.635 1200.2672 2593.529 846.28141 2345.8418 683.65234 C 2281.1844 636.55786 2206.4287 606.40144 2129.0293 593.05273 C 2057.6187 530.6739 1971.0527 485.36821 1876.0312 466.16992 C 1831.6916 454.77277 1786.6726 449.19567 1741.9141 448.99023 z M 2038.1016 727.67578 C 2039.9073 727.66722 2041.7137 727.67071 2043.5195 727.68555 C 2050.2717 727.74105 2057.0197 727.99989 2063.7598 728.38281 C 2167.6593 839.39314 2218.7737 1002.1584 2162.9707 1143.4727 A 70.007 70.007 0 0 0 2161.8184 1146.6074 C 2117.0037 1278.1425 1939.0369 1361.5763 1818.0137 1290.1465 A 70.007 70.007 0 0 0 1815.1738 1288.5586 C 1673.6862 1213.688 1646.375 993.95619 1743.8477 870.2168 A 70.007 70.007 0 0 0 1746.0508 867.26172 C 1811.0392 775.17378 1924.3392 728.21514 2038.1016 727.67578 z "
       transform="translate(0,-1048)"
       id="path4144-8-8-4-6" />
    <path
       style="fill:none;fill-rule:evenodd;stroke:#000000;stroke-width:140;stroke-linecap:round;stroke-linejoin:round;stroke-miterlimit:4;stroke-dasharray:none;stroke-opacity:1"
       d="m -2345.6155,89.728639 c -33.2998,-74.034372 -29.0422,-163.850729 11.1114,-234.403209 40.1535,-70.55248 115.2009,-120.08016 195.8591,-129.25759 82.3314,-9.36781 167.7029,23.16558 225.2433,82.79202 57.5404,59.62644 86.91,144.56216 81.7173,227.261879 -4.6301,73.740331 -36.133,145.500771 -87.2818,198.819371 -51.1488,53.3186 -121.5393,87.77395 -195.0238,95.46193"
       id="path4144-8-8-4-6-8"
       inkscape:path-effect="#path-effect4146-9-3-6-4-9"
       inkscape:original-d="m -2345.6155,89.728639 c 0,0 68.6969,-345.374199 206.9705,-363.660799 144.1782,-19.0675 305.815,164.6248 306.9606,310.053899 1.0707,135.927901 -282.3056,294.281301 -282.3056,294.281301"
       inkscape:connector-curvature="0"
       sodipodi:nodetypes="caac" />
    <path
       style="fill:none;fill-rule:evenodd;stroke:#000000;stroke-width:140;stroke-linecap:round;stroke-linejoin:round;stroke-miterlimit:4;stroke-dasharray:none;stroke-opacity:1"
       d="m -240.10231,874.99744 -2048.35909,14.5919 c -77.5235,0.55225 -155.6933,6.66032 -232.2635,-5.47276 -38.285,-6.06654 -76.4304,-18.11187 -107.4857,-41.30923 -15.5276,-11.59868 -29.1082,-25.96383 -38.9223,-42.67671 -9.8141,-16.71287 -15.7814,-35.81936 -16.1456,-55.1973 -0.3692,-19.64396 5.0285,-39.22309 14.4584,-56.45963 9.4299,-17.23653 22.8055,-32.17516 38.2554,-44.31271 30.9,-24.27509 69.3696,-37.23537 108.0786,-43.99548 77.418,-13.5202 156.7627,-8.09845 235.3521,-8.32678 l 1005.3278,-2.9208 c 129.2991,-0.37566 258.5474,4.17688 387.83843,5.66707 129.29107,1.49019 262.68797,-3.41941 380.66266,-56.33797 85.31151,-38.26721 159.09102,-101.79278 209.68443,-180.42318 50.59342,-78.6304 77.82822,-172.07417 77.49756,-265.574569 -0.33066,-93.5003944 -28.21307,-186.723913 -79.19569,-265.102521 -50.98262,-78.3786 -124.87578,-141.64355 -210.1341,-180.02913 -64.97113,-29.25174 -136.49721,-44.16787 -207.71928,-42.08748 -71.22208,2.0804 -142.0299,21.26389 -203.96281,56.49495 -61.9329,35.23107 -114.8013,86.54741 -150.8109,148.03087 -36.0097,61.48346 -54.9379,133.039332 -52.8218,204.260359 2.2908,77.102352 29.7207,153.754921 79.3688,212.789501 49.6482,59.03458 121.62449,99.55865 198.26809,108.2638 60.01176,6.81611 121.80127,-5.73526 175.30768,-33.75194 53.50641,-28.01668 98.6861,-71.19969 130.7392,-122.39021 64.10621,-102.381035 73.36384,-233.87665 37.75262,-349.30335 -33.6603,-109.10318 -105.86632,-205.69584 -200.33267,-269.82561 -94.46636,-64.12977 -210.47902,-95.56337 -324.47132,-89.06151 -120.5804,6.87763 -238.6342,56.43085 -326.5868,139.20326 -87.9526,82.77242 -144.7623,198.37525 -154.4994,318.758459 -12.4153,153.49412 54.2337,311.284151 172.9263,409.399601 l -1335.1612,-5.848"
       id="path4139-1-0-5-6-8"
       inkscape:path-effect="#path-effect4141-3-4-6-0-4"
       inkscape:original-d="m -240.10231,874.99744 -2048.35909,14.5919 c -65.0527,0.4634 -393.585,-4.5004 -394.8171,-144.656 -1.2446,-141.5605 346.7318,-152.951 396.1445,-153.0946 l 1005.3278,-2.9208 c 256.7222,-0.7458 593.26949,136.9477 768.50109,-50.6709 202.7533,-217.0858 256.2981,-744.7024 -2.1478,-891.1294 -207.7401,-117.69873 -577.23369,130.9897 -615.31479,366.698699 -22.5654,139.672201 136.39039,329.233501 277.63689,321.053301 203.4219,-11.7809 381.6499,-305.229101 343.7995,-505.4455 -39.367,-208.23903 -313.5627,-375.92605 -524.80399,-358.88712 -220.6861,17.80075 -435.9766,241.20302 -481.0862,457.961719 -30.1828,145.0335 172.9263,409.399601 172.9263,409.399601 l -1335.1612,-5.848"
       inkscape:connector-curvature="0"
       sodipodi:nodetypes="csassaaaaaaacc" />
  </g>
</svg>
