<?xml version="1.0" encoding="UTF-8" standalone="no"?>
<!-- Created with Inkscape (http://www.inkscape.org/) -->

<svg
   xmlns:dc="http://purl.org/dc/elements/1.1/"
   xmlns:cc="http://creativecommons.org/ns#"
   xmlns:rdf="http://www.w3.org/1999/02/22-rdf-syntax-ns#"
   xmlns:svg="http://www.w3.org/2000/svg"
   xmlns="http://www.w3.org/2000/svg"
   xmlns:sodipodi="http://sodipodi.sourceforge.net/DTD/sodipodi-0.dtd"
   xmlns:inkscape="http://www.inkscape.org/namespaces/inkscape"
   width="2000"
   height="2048"
   id="svg2992"
   version="1.1"
   inkscape:version="0.91pre3 r13670"
   sodipodi:docname="ഛൂ.svg">
  <defs
     id="defs5498">
    <inkscape:path-effect
       effect="spiro"
       id="path-effect3006"
       is_visible="true" />
    <inkscape:path-effect
       effect="spiro"
       id="path-effect4141-3-4-6-0-4"
       is_visible="true" />
    <inkscape:path-effect
       effect="spiro"
       id="path-effect4141-3-4-6-0-4-9"
       is_visible="true" />
    <inkscape:path-effect
       effect="spiro"
       id="path-effect4146-9-3-6-4-9"
       is_visible="true" />
    <inkscape:path-effect
       effect="spiro"
       id="path-effect4141-3-4-6-0-4-9-6"
       is_visible="true" />
    <inkscape:path-effect
       effect="spiro"
       id="path-effect4146-9-3-6-4-9-0"
       is_visible="true" />
  </defs>
  <sodipodi:namedview
     inkscape:window-height="851"
     inkscape:window-width="1600"
     inkscape:pageshadow="2"
     inkscape:pageopacity="0.0"
     borderopacity="1.0"
     bordercolor="#666666"
     pagecolor="#ffffff"
     id="base"
     showgrid="true"
     showguides="true"
     inkscape:guide-bbox="true"
     inkscape:zoom="0.32102648"
     inkscape:cx="1656.1501"
     inkscape:cy="-1084.4899"
     inkscape:window-x="1599"
     inkscape:window-y="-1"
     inkscape:current-layer="layer1"
     inkscape:window-maximized="1"
     inkscape:snap-grids="false">
    <sodipodi:guide
       orientation="horizontal"
       position="0,600"
       id="guide5596" />
    <inkscape:grid
       type="xygrid"
       id="grid3769"
       empspacing="3"
       visible="true"
       enabled="true"
       snapvisiblegridlinesonly="true"
       spacingx="4px"
       units="px"
       dotted="true"
       spacingy="4px" />
    <sodipodi:guide
       orientation="0,1"
       position="-1040,1600"
       id="guide2985" />
  </sodipodi:namedview>
  <metadata
     id="metadata5594">
    <rdf:RDF>
      <cc:Work
         rdf:about="">
        <dc:format>image/svg+xml</dc:format>
        <dc:type
           rdf:resource="http://purl.org/dc/dcmitype/StillImage" />
        <dc:title />
      </cc:Work>
    </rdf:RDF>
  </metadata>
  <g
     inkscape:label="Layer 1"
     inkscape:groupmode="layer"
     id="layer1"
     transform="translate(0,1048)">
    <path
       style="fill:none;fill-rule:evenodd;stroke:#000000;stroke-width:140;stroke-linecap:round;stroke-linejoin:round;stroke-miterlimit:4;stroke-dasharray:none;stroke-opacity:1"
       d="m 411.1664,87.26861 c -33.29976,-74.034379 -29.0422,-163.850738 11.11138,-234.40322 40.15359,-70.55248 115.20101,-120.08015 195.85916,-129.25758 82.33135,-9.36781 167.70294,23.16558 225.24332,82.79203 57.54038,59.62644 86.90996,144.562151 81.71728,227.26187 -4.63012,73.74033 -36.133,145.50077 -87.28181,198.81937 -51.14882,53.3186 -121.53931,87.77395 -195.02379,95.46193"
       id="path4144-8-8-4-6-8"
       inkscape:path-effect="#path-effect4146-9-3-6-4-9"
       inkscape:original-d="m 411.1664,87.26861 c 0,0 68.69694,-345.3742 206.97054,-363.6608 144.1782,-19.0675 305.815,164.6248 306.9606,310.0539 1.0707,135.9279 -282.3056,294.2813 -282.3056,294.2813"
       inkscape:connector-curvature="0"
       sodipodi:nodetypes="caac" />
    <path
       style="fill:none;fill-rule:evenodd;stroke:#000000;stroke-width:140;stroke-linecap:round;stroke-linejoin:round;stroke-miterlimit:4;stroke-dasharray:none;stroke-opacity:1"
       d="M 2516.6795,872.5374 468.32054,887.1293 c -77.53407,0.55233 -155.71324,6.674 -232.29661,-5.44312 C 197.73225,875.62762 159.57758,863.58742 128.52065,840.38341 112.99219,828.7814 99.413178,814.40997 89.606447,797.68969 79.799716,780.9694 73.846039,761.85428 73.503395,742.4733 c -0.347153,-19.63604 5.073766,-39.20041 14.522553,-56.41711 9.448788,-17.21671 22.838712,-32.13082 38.297092,-44.24417 30.91675,-24.2267 69.37904,-37.14263 108.07374,-43.88792 77.38939,-13.49056 156.69559,-8.17673 235.25116,-8.5454 l 1798.74886,-8.44162 c 74.0668,-0.3476 149.4423,-1.57432 219.896,-24.42814 35.2268,-11.42691 68.9155,-28.14906 98.0636,-50.99404 29.1481,-22.84497 53.6712,-51.90443 69.5714,-85.35118 16.8757,-35.49863 23.7755,-75.67547 19.7103,-114.77042 -4.0653,-39.09494 -19.0836,-76.99266 -42.9018,-108.2598 -23.8182,-31.26714 -56.366,-55.81147 -92.9771,-70.1141 -36.6112,-14.30262 -77.1776,-18.32135 -115.8834,-11.48002 60.2969,-19.827831 111.3404,-66.172736 136.8809,-124.2807539 25.5405,-58.1080171 25.1699,-127.0511661 -0.9936,-184.8813161 -29.6825,-65.60822 -89.8783,-114.06703 -156.5585,-141.25611 -66.6801,-27.18908 -139.7131,-34.99137 -211.7158,-36.03863 -125.9458,-1.83184 -255.4797,17.40479 -364.4479,80.58408 -54.4842,31.58965 -103.0776,74.01144 -138.9479,125.77766 -35.8704,51.76622 -58.7034,113.022968 -62.0789,175.912 -4.1959,78.174526 22.6025,157.68734 73.6744,217.02127 51.072,59.33393 125.9302,97.72205 203.9625,104.03203 59.7514,4.83172 120.6378,-8.77815 173.4579,-37.1264 52.82,-28.34825 97.5312,-71.18393 129.5572,-121.85852 64.052,-101.349188 75.0308,-231.562809 40.7844,-346.46058 -32.6609,-109.57837 -104.9228,-206.60934 -199.6217,-270.6896 -94.6988,-64.08025 -211.0452,-95.04493 -325.1823,-88.19752 -120.5022,7.22927 -238.4085,56.79794 -326.3569,139.49092 -87.9483,82.69297 -144.8848,198.15405 -154.7293,318.4708 -12.56,153.505758 54.1244,311.37983 172.9263,409.3996 l -1335.161105,-5.848"
       id="path4139-1-0-5-6-8"
       inkscape:path-effect="#path-effect4141-3-4-6-0-4-9"
       inkscape:original-d="M 2516.6795,872.5374 468.32054,887.1293 C 403.2678,887.5927 74.735495,882.6289 73.503395,742.4733 72.258795,600.9128 420.23524,589.5223 469.64794,589.3787 l 1798.74886,-8.44162 c 138.0896,-3.39747 351.135,-25.73988 387.531,-160.77336 33.2196,-123.24873 -232.052,-304.62434 -232.052,-304.62434 0,0 174.91,-203.572948 135.8873,-309.16207 -47.2294,-127.79491 -232.3931,-187.21659 -368.2743,-177.29474 -226.9175,16.56918 -535.6036,156.72151 -565.4747,382.27374 -18.5752,140.25854 136.3904,329.2335 277.6369,321.0533 203.4219,-11.7809 381.6499,-305.2291 343.7995,-505.4455 -39.367,-208.23903 -313.5627,-375.92605 -524.804,-358.88712 -220.6861,17.80075 -435.9766,241.20302 -481.0862,457.96172 -30.1828,145.0335 172.9263,409.3996 172.9263,409.3996 l -1335.161105,-5.848"
       inkscape:connector-curvature="0"
       sodipodi:nodetypes="csaccacaaaaaaacc" />
    <path
       style="color:#000000;font-style:normal;font-variant:normal;font-weight:normal;font-stretch:normal;font-size:medium;line-height:normal;font-family:sans-serif;text-indent:0;text-align:start;text-decoration:none;text-decoration-line:none;text-decoration-style:solid;text-decoration-color:#000000;letter-spacing:normal;word-spacing:normal;text-transform:none;direction:ltr;block-progression:tb;writing-mode:lr-tb;baseline-shift:baseline;text-anchor:start;white-space:normal;clip-rule:nonzero;display:inline;overflow:visible;visibility:visible;opacity:1;isolation:auto;mix-blend-mode:normal;color-interpolation:sRGB;color-interpolation-filters:linearRGB;solid-color:#000000;solid-opacity:1;fill:#000000;fill-opacity:1;fill-rule:evenodd;stroke:none;stroke-width:140;stroke-linecap:round;stroke-linejoin:round;stroke-miterlimit:4;stroke-dasharray:none;stroke-dashoffset:0;stroke-opacity:1;color-rendering:auto;image-rendering:auto;shape-rendering:auto;text-rendering:auto;enable-background:accumulate"
       d="M 1677.9707 2307.2949 C 1674.1739 2307.295 1670.3738 2307.3318 1666.5762 2307.4043 C 1658.4738 2307.559 1650.3708 2307.8795 1642.2734 2308.3652 C 1505.4028 2316.5765 1372.6825 2372.215 1272.1582 2466.7324 C 1171.5037 2561.3724 1106.9479 2691.9395 1095.6113 2830.4922 C 1085.6739 2951.9451 1117.8559 3073.7758 1183.1602 3174.9199 L 828.11133 3173.3652 C 881.48295 3110.2811 913.58225 3030.9801 918.7793 2948.2109 C 925.19431 2846.0441 889.91143 2742.917 817.57031 2667.9531 C 753.93157 2602.0073 665.60195 2562.8276 573.62305 2562.1289 C 560.4832 2562.0289 547.27048 2562.7137 534.04297 2564.2188 C 430.12303 2576.0429 336.9936 2637.5045 285.25977 2728.4043 C 233.52593 2819.3041 228.24311 2930.7587 271.14648 3026.1445 A 70.007 70.007 0 1 0 398.82422 2968.7168 C 375.12807 2916.0338 378.36025 2847.8576 406.93359 2797.6523 C 435.50692 2747.4471 492.47278 2709.8529 549.86914 2703.3223 C 608.71178 2696.6271 674.47738 2721.2858 716.82812 2765.1719 C 759.56714 2809.461 783.025 2876.2054 779.05469 2939.4375 C 775.49102 2996.1932 750.48685 3053.1478 711.11914 3094.1855 C 671.75142 3135.2233 615.88503 3162.5691 559.32617 3168.4863 A 70.007 70.007 0 0 0 542.81641 3172.1152 L 3.4511719 3169.7539 A 70.007 70.007 0 1 0 2.8378906 3309.752 L 1337.998 3315.5996 A 70.007 70.007 0 0 0 1382.8535 3191.6074 C 1282.5936 3108.8861 1224.5468 2971.4575 1235.1465 2841.9102 C 1243.4989 2739.8295 1292.8165 2639.4746 1368.0586 2568.7285 C 1443.4309 2497.8601 1546.5227 2454.3606 1650.6562 2448.1133 C 1728.985 2443.4141 1809.1779 2459.6384 1879.6074 2494.0078 C 1823.1518 2508.1109 1767.8723 2529.0501 1715.748 2559.2715 C 1653.3626 2595.4422 1596.9049 2644.3614 1554.375 2705.7383 C 1511.7008 2767.3233 1484.0842 2840.4376 1479.9336 2917.7676 C 1474.7466 3014.4073 1507.1078 3110.6123 1570.4531 3184.2051 C 1633.8493 3257.8569 1724.6464 3304.4853 1821.8281 3312.3438 C 1895.9135 3318.3344 1969.6851 3301.6581 2034.0293 3267.125 C 2098.2356 3232.6658 2151.4308 3181.4715 2189.6582 3120.9844 C 2266.2463 2999.7994 2277.9051 2849.8276 2238.3535 2717.1309 C 2227.7236 2681.4671 2213.4193 2647.1673 2196.0801 2614.5645 C 2233.3919 2619.1755 2268.6934 2627.0941 2300.5938 2640.1016 C 2353.9859 2661.8724 2399.4368 2700.3746 2419.8047 2745.3945 C 2437.4583 2784.4147 2437.7253 2834.0462 2420.4922 2873.2539 C 2403.2591 2912.4617 2366.5128 2945.8265 2325.8281 2959.2051 A 70.007 70.007 0 0 0 2359.8789 3094.6328 C 2385.7029 3090.0684 2413.679 3092.8403 2438.1055 3102.3828 C 2462.5317 3111.9253 2484.98 3128.8539 2500.8711 3149.7148 C 2516.7623 3170.5759 2527.1198 3196.7114 2529.832 3222.7949 C 2532.5443 3248.8785 2527.7865 3276.5875 2516.5273 3300.2715 C 2505.8596 3322.7116 2488.4616 3343.7587 2466.9941 3360.584 C 2445.4035 3377.5058 2419.1323 3390.8058 2390.5117 3400.0898 C 2333.2973 3418.6491 2265.4035 3420.7566 2191.8867 3421.1016 L 393.13867 3429.5449 C 317.96088 3429.8977 234.61681 3423.7148 146.19336 3439.1289 C 100.33683 3447.1226 50.561883 3462.7173 6.9667969 3496.8789 C -15.001016 3514.0931 -34.856247 3535.8214 -49.521484 3562.543 C -64.298455 3589.4682 -73.255358 3620.5402 -72.666016 3653.875 C -72.084425 3686.7716 -62.285566 3717.1294 -46.955078 3743.2676 C -31.73774 3769.2129 -11.616185 3790.1448 10.441406 3806.625 C 54.219105 3839.3333 103.56075 3853.8161 148.90234 3860.9902 C 236.34326 3874.8252 318.45372 3867.8215 392.63867 3867.293 L 2440.9961 3852.6973 A 70.007 70.007 0 1 0 2440 3712.7012 L 391.64062 3727.293 C 310.75743 3727.8691 236.50705 3733.1082 170.78125 3722.709 C 139.53947 3717.7658 112.57249 3708.1685 94.236328 3694.4688 C 85.236989 3687.7449 78.202765 3679.9328 73.806641 3672.4375 C 69.523665 3665.1351 67.414244 3657.2639 67.310547 3651.3984 C 67.205582 3645.4613 69.090333 3637.4047 73.210938 3629.8965 C 77.443274 3622.1847 84.369421 3614.0848 93.318359 3607.0723 C 111.55678 3592.7804 138.70345 3582.5437 170.23633 3577.0469 C 236.59166 3565.4797 311.86157 3569.9256 393.79492 3569.541 L 2192.5449 3561.0996 C 2267.1617 3560.7494 2350.0182 3560.4042 2433.7109 3533.2559 C 2475.5439 3519.686 2516.6499 3499.5396 2553.3555 3470.7715 C 2590.184 3441.9068 2621.8342 3404.8342 2642.9668 3360.3809 C 2665.459 3313.0677 2674.5002 3260.4227 2669.082 3208.3164 C 2663.6639 3156.21 2643.9835 3106.5522 2612.2383 3064.8789 C 2586.7043 3031.3594 2554.0362 3004.1363 2516.8691 2984.791 C 2529.3198 2967.7043 2540.0246 2949.2305 2548.6582 2929.5879 C 2582.506 2852.5796 2582.0311 2764.3256 2547.3574 2687.6855 C 2508.3603 2601.4891 2433.4195 2543.0722 2353.4512 2510.4648 C 2274.559 2478.2962 2192.6938 2470.3628 2116.3242 2469.252 C 2106.2932 2469.1061 2096.2022 2469.1288 2086.0859 2469.2402 C 2062.8091 2446.9565 2037.6572 2426.5858 2010.875 2408.4629 C 1912.7253 2342.0476 1795.6918 2307.2928 1677.9707 2307.2949 z M 2027.1855 2611.9473 C 2061.9231 2655.1018 2088.5618 2704.7031 2104.1855 2757.1211 C 2133.1268 2854.22 2122.8284 2964.676 2071.3125 3046.1895 C 2045.4879 3087.0516 2009.2579 3121.5303 1967.8242 3143.7676 C 1926.5282 3165.9309 1878.5287 3176.4734 1833.1113 3172.8008 C 1774.2285 3168.0393 1715.3083 3137.891 1676.5605 3092.875 C 1637.7618 3047.7998 1616.5276 2984.9808 1619.7324 2925.2715 C 1622.3328 2876.8234 1640.3826 2827.4239 1669.4492 2785.4766 C 1698.6601 2743.3211 1739.3877 2707.3953 1785.9707 2680.3867 C 1856.3151 2639.6013 1939.8244 2618.9457 2027.1855 2611.9473 z "
       transform="translate(0,-1048)"
       id="path4144-8-8-4-6-8-3" />
  </g>
</svg>
