<?xml version="1.0" encoding="UTF-8" standalone="no"?>
<!-- Created with Inkscape (http://www.inkscape.org/) -->

<svg
   xmlns:dc="http://purl.org/dc/elements/1.1/"
   xmlns:cc="http://creativecommons.org/ns#"
   xmlns:rdf="http://www.w3.org/1999/02/22-rdf-syntax-ns#"
   xmlns:svg="http://www.w3.org/2000/svg"
   xmlns="http://www.w3.org/2000/svg"
   xmlns:sodipodi="http://sodipodi.sourceforge.net/DTD/sodipodi-0.dtd"
   xmlns:inkscape="http://www.inkscape.org/namespaces/inkscape"
   width="2000"
   height="2048"
   id="svg2992"
   version="1.1"
   inkscape:version="0.91pre3 r13670"
   sodipodi:docname="ജ.svg">
  <defs
     id="defs5498">
    <inkscape:path-effect
       effect="spiro"
       id="path-effect4142"
       is_visible="true" />
    <inkscape:path-effect
       effect="spiro"
       id="path-effect4142-0"
       is_visible="true" />
    <inkscape:path-effect
       effect="spiro"
       id="path-effect4142-0-1"
       is_visible="true" />
    <inkscape:path-effect
       effect="spiro"
       id="path-effect4142-0-1-0"
       is_visible="true" />
    <inkscape:path-effect
       effect="spiro"
       id="path-effect4142-0-1-0-9"
       is_visible="true" />
    <inkscape:path-effect
       effect="spiro"
       id="path-effect4142-0-1-0-0"
       is_visible="true" />
    <inkscape:path-effect
       effect="spiro"
       id="path-effect4142-0-1-0-8"
       is_visible="true" />
    <inkscape:path-effect
       effect="spiro"
       id="path-effect4142-0-1-0-01"
       is_visible="true" />
  </defs>
  <sodipodi:namedview
     inkscape:window-height="851"
     inkscape:window-width="1600"
     inkscape:pageshadow="2"
     inkscape:pageopacity="0.0"
     borderopacity="1.0"
     bordercolor="#666666"
     pagecolor="#ffffff"
     id="base"
     showgrid="true"
     showguides="true"
     inkscape:guide-bbox="true"
     inkscape:zoom="0.64205296"
     inkscape:cx="676.22604"
     inkscape:cy="1111.2005"
     inkscape:window-x="1599"
     inkscape:window-y="-1"
     inkscape:current-layer="layer1"
     inkscape:window-maximized="1">
    <sodipodi:guide
       orientation="horizontal"
       position="0,600"
       id="guide5596" />
    <inkscape:grid
       type="xygrid"
       id="grid3769"
       empspacing="3"
       visible="true"
       enabled="true"
       snapvisiblegridlinesonly="true"
       spacingx="4px"
       units="px"
       dotted="true"
       spacingy="4px" />
    <sodipodi:guide
       orientation="0,1"
       position="-1040,1600"
       id="guide2985" />
  </sodipodi:namedview>
  <metadata
     id="metadata5594">
    <rdf:RDF>
      <cc:Work
         rdf:about="">
        <dc:format>image/svg+xml</dc:format>
        <dc:type
           rdf:resource="http://purl.org/dc/dcmitype/StillImage" />
        <dc:title />
      </cc:Work>
    </rdf:RDF>
  </metadata>
  <g
     inkscape:label="Layer 1"
     inkscape:groupmode="layer"
     id="layer1"
     transform="translate(0,1048)">
    <path
       style="fill:none;fill-rule:evenodd;stroke:#000000;stroke-width:140;stroke-linecap:round;stroke-linejoin:round;stroke-miterlimit:4;stroke-dasharray:none;stroke-opacity:1"
       d="m -1521.4499,-361.54189 c 22.6829,-37.79003 59.8969,-66.60408 102.1627,-79.10243 42.2657,-12.49835 89.1656,-8.55754 128.753,10.81861 39.5875,19.37614 71.4714,53.9962 87.5301,95.04154 16.0587,41.04533 16.1335,88.11046 0.2054,129.20665 -11.4058,29.42806 -30.8609,55.77293 -55.9891,74.86943 -25.1282,19.09651 -55.8912,30.819463 -87.3957,32.70916 -31.0815,1.864329 -62.5469,-5.83366 -89.7161,-21.04456 -27.1692,-15.2109 -50.0277,-37.80266 -66.3507,-64.31865 -32.646,-53.03198 -38.0399,-120.4327 -20.8069,-180.2756 20.2367,-70.27318 70.668,-130.7783 134.9018,-165.7333 64.2339,-34.95499 141.3327,-44.55937 212.8088,-29.09958 75.1183,16.24757 143.9791,59.96194 190.64655,121.02663 46.66741,61.06469 70.7656,138.98797 66.71772,215.73664 l -2.19511,117.46078 1.07114,-115.7788 c 0.4564,-49.3324 1.62911,-99.14949 13.70536,-146.98314 12.07624,-47.83365 35.20919,-93.29204 69.56381,-128.69902 34.35462,-35.40698 79.42339,-60.17436 127.64293,-70.60365 48.21954,-10.42928 99.07782,-6.74625 146.11139,8.14459 60.72699,19.22617 115.58433,57.29404 153.60213,108.40236 38.01779,51.10832 58.76696,115.12684 56.40917,178.78101 -1.6798,45.35031 -14.85514,90.0391 -36.58202,129.88148 -21.72688,39.84238 -51.88546,74.875073 -87.00129,103.621392 -70.23166,57.492637 -158.97907,89.089567 -248.79168,102.188599 -179.62522,26.198066 -361.5071,-17.804796 -543.0045,-21.004216 -52.6185,-0.927553 -106.7107,1.89957 -154.9393,22.960536 -24.1143,10.530483 -46.4387,25.633302 -63.7969,45.409079 -17.3583,19.77577 -29.5902,44.34882 -33.0633,70.43192 -3.867,29.04119 3.3125,59.11531 18.2611,84.31218 14.9487,25.19687 37.3831,45.59228 62.9881,59.83057 51.2099,28.47658 112.9332,32.06043 171.0473,24.56861 100.045,-12.89737 193.7214,-56.05381 281.35621,-106.00867 87.63482,-49.95485 171.1416,-107.27144 261.39434,-152.324656 58.41005,-29.157684 121.22137,-53.417037 186.50353,-53.796352 32.64108,-0.189658 65.53472,5.75666 95.19206,19.391848 29.65734,13.635188 55.96643,35.15744 73.42505,62.73774 19.85962,31.37329 27.62967,70.18196 21.43394,106.79207 -6.19573,36.61012 -26.28817,70.68515 -55.29073,93.87003 -29.00256,23.18489 -66.64431,35.27821 -103.72638,33.37896 -37.08208,-1.89925 -73.27398,-17.76238 -99.83963,-43.70373 -36.35863,-35.5042 -53.37307,-89.72249 -43.81927,-139.63464 9.5538,-49.91215 45.38804,-94.014542 92.28807,-113.582002"
       id="path4140-7-4-0"
       inkscape:path-effect="#path-effect4142-0-1-0"
       inkscape:original-d="m -1521.4499,-361.54189 c 31.926,35.21986 288.0677,103.92668 318.6512,155.96437 32.9639,56.08784 -84.4929,117.678233 -143.3848,107.57859 -104.8483,-17.98091 -201.779,-162.21637 -176.8737,-265.63881 31.1047,-129.16613 217.6004,-221.71659 347.7106,-194.83288 138.3596,28.58822 252.98511,246.11476 257.36427,336.76327 l -2.19511,117.46078 1.07114,-115.7788 c 0.94238,-205.01407 192.40257,-355.72749 357.02349,-338.14122 117.92218,12.5975 245.52578,174.03277 210.0113,287.18337 -96.62338,307.846098 -620.43451,183.871471 -915.37949,314.687255 -87.6101,38.857404 -247.6979,43.0487 -251.7995,138.801535 -4.3296,101.07661 151.3936,161.37439 252.2965,168.71136 199.8371,14.53079 345.70642,-222.00647 542.75055,-258.333326 116.78169,-21.529756 320.24624,-85.1800537 355.12064,28.333236 29.7889,96.96019 -150.5314,242.66836 -237.4228,190.33733 -73.6177,-44.33683 48.4688,-253.216642 48.4688,-253.216642"
       inkscape:connector-curvature="0"
       sodipodi:nodetypes="csaaasccsaaaaaaac" />
    <path
       id="path4181"
       style="opacity:1;fill:#000000;fill-opacity:1;fill-rule:evenodd;stroke:none;stroke-width:50;stroke-linecap:round;stroke-linejoin:round;stroke-miterlimit:4;stroke-dasharray:none;stroke-opacity:1"
       d="m 1319.3626,215.00876 a 96.797995,97.698814 0 0 1 -96.798,97.69882 96.797995,97.698814 0 0 1 -96.7981,-97.69882 96.797995,97.698814 0 0 1 96.7981,-97.69881 96.797995,97.698814 0 0 1 96.798,97.69881 z M 460.68723,-266.5022 c 0,59.64675 -48.35325,108 -108,108 -59.64675,0 -108,-48.35325 -108,-108 0,-59.64675 48.35325,-108 108,-108 59.64675,0 108,48.35325 108,108 z m 605.23267,-357.0896 c -23.0963,0.13114 -46.3444,2.56558 -69.40232,7.55274 -61.79198,13.36486 -118.78398,44.62032 -163.08399,90.27734 -18.02826,18.58051 -33.26296,39.02353 -46.14062,60.58789 -56.92498,-72.5433 -138.13226,-123.5158 -228.33203,-143.02539 -87.49719,-18.92503 -180.90453,-7.58955 -261.06641,36.0332 -80.51131,43.81292 -142.87113,118.12393 -168.70898,207.84766 -22.17564,77.00644 -16.25876,163.6934 28.46289,236.3418 22.31193,36.244767 53.42046,67.235277 91.76562,88.703122 38.48653,21.546982 82.70761,32.5627746 128.10352,29.8398442 46.05745,-2.7626112 89.50553,-19.4525452 125.55859,-46.8515622 35.96288,-27.33049 62.89068,-63.992864 78.90235,-105.304684 22.46294,-57.95682 22.36195,-122.12271 -0.28516,-180.00782 -22.64713,-57.88509 -66.11623,-105.08451 -121.94531,-132.41015 -1.20497,-0.58978 -2.43409,-1.11233 -3.64649,-1.68164 24.46971,-2.1007 49.34725,-0.84636 73.26172,4.32617 58.4007,12.63167 113.54656,47.63856 149.82813,95.11328 29.41185,38.48566 47.65547,86.78215 51.83593,135.47852 -0.36874,13.24442 -0.50455,26.19267 -0.62109,38.78906 l -1.07227,115.777342 c 0.0425,38.25189 30.78018,69.387669 69.02833,69.922392 38.24815,0.534722 69.84425,-29.729608 70.95605,-67.965361 l 2.19531,-117.460933 -0.084,2.3789 c 0.73807,-13.99391 0.63161,-27.97097 -0.11719,-41.88672 1.19097,-32.76474 3.87534,-63.06919 10.66602,-89.96679 9.45937,-37.46828 27.49258,-71.9002 51.93164,-97.08789 24.40919,-25.15692 57.556,-43.43789 92.20316,-50.93164 34.9512,-7.55953 73.8269,-5.04957 110.1836,6.46093 46.9432,14.86222 89.8599,44.85641 118.5664,83.44727 28.5899,38.43423 44.3543,87.67143 42.623,134.41015 -1.2416,33.52017 -11.1996,67.98939 -28.0879,98.95899 -16.9488,31.08037 -41.1381,59.438304 -69.8847,82.970702 C 1141.9204,-25.808433 1065.3806,2.4014885 984.95898,14.130859 823.08802,37.739501 645.27319,-4.2114693 453.29102,-7.5957031 397.32111,-8.5823321 332.82033,-6.6185987 269.10547,21.205078 c -32.08885,14.012894 -63.06131,34.521648 -88.39258,63.38086 -25.56812,29.129032 -44.28968,65.674472 -49.8418,107.371092 -6.19774,46.54534 5.0437,91.50825 27.44532,129.26758 22.1721,37.37246 53.9308,65.69434 89.17187,85.29101 69.90913,38.87472 146.86221,41.47379 214.01758,32.81641 114.1885,-14.72068 215.8592,-62.62762 307.07031,-114.62109 80.96856,-46.15486 155.19766,-95.86148 230.05664,-135.97071 -9.83873,70.52656 14.16849,141.49506 65.46489,191.58594 39.097,38.1783 90.5206,60.7306 145.164,63.5293 54.6582,2.79945 108.2124,-14.39219 151.0156,-48.60938 42.815,-34.22657 71.4437,-82.75348 80.6016,-136.86718 9.1606,-54.12865 -1.907,-109.46794 -31.3066,-155.91211 -24.7476,-39.095123 -59.9941,-67.937026 -99.0606,-86.765628 32.0995,-30.002221 60.1864,-64.963537 81.8008,-104.59961 26.5653,-48.715142 42.9582,-103.622292 45.0762,-160.802732 2.9843,-80.56964 -22.7498,-159.36994 -70.1953,-223.15235 -47.3292,-63.6258 -114.128,-109.76734 -188.6387,-133.35742 -36.0691,-11.41944 -74.1409,-17.59942 -112.6348,-17.38086 z m -633.29881,755.875 c 5.9734,-0.0457 12.04475,-0.009 18.20313,0.0996 102.49703,1.80681 210.39605,18.997 322.86914,26.34571 -24.99027,15.28717 -49.7856,30.29747 -74.44727,44.35546 -84.05851,47.91625 -169.73908,86.32439 -255.64062,97.39844 -49.07284,6.32626 -95.56732,1.75618 -128.07813,-16.32226 -15.96891,-8.87991 -29.0795,-21.34787 -36.80468,-34.36914 -7.49567,-12.63441 -10.61239,-27.81843 -9.07618,-39.35547 1.39408,-10.46959 7.13481,-23.07163 16.28321,-33.49414 9.38524,-10.69235 23.06338,-20.38943 39.20312,-27.4375 28.64953,-12.51098 65.67449,-16.90042 107.48828,-17.22071 z" />
  </g>
</svg>
