<?xml version="1.0" encoding="UTF-8" standalone="no"?>
<!-- Created with Inkscape (http://www.inkscape.org/) -->

<svg
   xmlns:dc="http://purl.org/dc/elements/1.1/"
   xmlns:cc="http://creativecommons.org/ns#"
   xmlns:rdf="http://www.w3.org/1999/02/22-rdf-syntax-ns#"
   xmlns:svg="http://www.w3.org/2000/svg"
   xmlns="http://www.w3.org/2000/svg"
   xmlns:sodipodi="http://sodipodi.sourceforge.net/DTD/sodipodi-0.dtd"
   xmlns:inkscape="http://www.inkscape.org/namespaces/inkscape"
   width="2000"
   height="2048"
   id="svg2992"
   version="1.1"
   inkscape:version="0.91pre2 r13516"
   sodipodi:docname="ജ.svg">
  <defs
     id="defs5498">
    <inkscape:path-effect
       effect="spiro"
       id="path-effect4142"
       is_visible="true" />
    <inkscape:path-effect
       effect="spiro"
       id="path-effect4142-0"
       is_visible="true" />
    <inkscape:path-effect
       effect="spiro"
       id="path-effect4142-0-1"
       is_visible="true" />
    <inkscape:path-effect
       effect="spiro"
       id="path-effect4142-0-1-0"
       is_visible="true" />
  </defs>
  <sodipodi:namedview
     inkscape:window-height="853"
     inkscape:window-width="1600"
     inkscape:pageshadow="2"
     inkscape:pageopacity="0.0"
     borderopacity="1.0"
     bordercolor="#666666"
     pagecolor="#ffffff"
     id="base"
     showgrid="true"
     showguides="true"
     inkscape:guide-bbox="true"
     inkscape:zoom="0.32102648"
     inkscape:cx="565.02896"
     inkscape:cy="894.27963"
     inkscape:window-x="1598"
     inkscape:window-y="-3"
     inkscape:current-layer="layer1"
     inkscape:window-maximized="1">
    <sodipodi:guide
       orientation="horizontal"
       position="0,600"
       id="guide5596" />
    <inkscape:grid
       type="xygrid"
       id="grid3769"
       empspacing="3"
       visible="true"
       enabled="true"
       snapvisiblegridlinesonly="true"
       spacingx="4px"
       units="px"
       dotted="true"
       spacingy="4px" />
    <sodipodi:guide
       orientation="0,1"
       position="-1040,1600"
       id="guide2985" />
  </sodipodi:namedview>
  <metadata
     id="metadata5594">
    <rdf:RDF>
      <cc:Work
         rdf:about="">
        <dc:format>image/svg+xml</dc:format>
        <dc:type
           rdf:resource="http://purl.org/dc/dcmitype/StillImage" />
        <dc:title />
      </cc:Work>
    </rdf:RDF>
  </metadata>
  <g
     inkscape:label="Layer 1"
     inkscape:groupmode="layer"
     id="layer1"
     transform="translate(0,1048)">
    <path
       style="color:#000000;font-style:normal;font-variant:normal;font-weight:normal;font-stretch:normal;font-size:medium;line-height:normal;font-family:sans-serif;text-indent:0;text-align:start;text-decoration:none;text-decoration-line:none;text-decoration-style:solid;text-decoration-color:#000000;letter-spacing:normal;word-spacing:normal;text-transform:none;direction:ltr;block-progression:tb;writing-mode:lr-tb;baseline-shift:baseline;text-anchor:start;clip-rule:nonzero;display:inline;overflow:visible;visibility:visible;opacity:1;isolation:auto;mix-blend-mode:normal;color-interpolation:sRGB;color-interpolation-filters:linearRGB;solid-color:#000000;solid-opacity:1;fill:#000000;fill-opacity:1;fill-rule:evenodd;stroke:none;stroke-width:139.69628906;stroke-linecap:round;stroke-linejoin:round;stroke-miterlimit:4;stroke-dasharray:none;stroke-dashoffset:0;stroke-opacity:1;color-rendering:auto;image-rendering:auto;shape-rendering:auto;text-rendering:auto;enable-background:accumulate"
       d="m 523.25586,-608.46484 c -92.68382,1.24871 -187.67391,20.85193 -271.55859,72.89648 -56.17167,34.85058 -105.22585,83.54466 -137.63672,144.49609 -4.27832,8.04575 -8.22197,16.28007 -11.85157,24.66016 a 69.855129,69.855129 0 0 0 -3.437496,8.28516 c -21.456396,53.36256 -29.497631,112.52386 -19.441406,171.38281 13.683114,80.08706 60.629432,153.815636 134.349612,195.5175775 11.03086,6.2399255 22.55226,11.5534615 34.38281,16.0957035 -2.24043,0.901204 -4.48213,1.748222 -6.7207,2.710937 -34.72605,14.934208 -68.07088,37.308733 -94.64063,69.072266 -26.84977,32.098276 -45.46407,72.435786 -48.558592,117.691406 -3.269184,47.81008 11.340222,92.73991 36.642582,129.48633 25.02777,36.34764 59.04585,62.83579 95.74609,80.50195 72.75643,35.02233 149.78128,34.17918 216.48242,25.23438 217.48628,-29.16552 395.40381,-148.54095 567.76363,-237.70508 -1.352,25.25427 1.114,50.69864 7.6192,75.45508 12.4901,47.53255 38.9089,90.14321 75.9316,122.46484 41.6846,36.39154 94.5656,57.76348 150.3496,59.83789 55.8786,2.07793 110.8663,-15.39486 155.2207,-50.23633 44.4335,-34.90359 74.8799,-84.69271 85.0508,-140.76367 10.1898,-56.17559 -0.8363,-114.16564 -31.834,-162.68164 -24.0381,-37.623506 -57.6179,-65.819707 -94.9629,-84.775391 36.0643,-35.1200418 66.728,-76.54067 88.6954,-123.398437 25.6175,-54.643982 38.8815,-115.683992 35.3398,-177.765622 -4.531,-79.42334 -36.4559,-155.12804 -89.3984,-214.03125 -52.8998,-58.85561 -124.3481,-98.32372 -201.8594,-112.40821 -97.1683,-17.65635 -198.42469,5.72364 -278.01564,64.19336 -20.91348,15.36362 -39.90424,32.9261 -56.8457,52.17969 -7.28893,-10.41064 -15.29539,-20.42001 -24.2207,-29.81055 -31.10856,-32.73003 -69.00356,-55.44483 -108.3418,-70.00781 -38.95862,-14.42242 -77.3764,-20.50455 -112.83203,-24.23047 -29.88493,-3.14051 -60.52336,-4.76389 -91.41797,-4.34765 z m 21.00586,139.86132 c 18.51816,0.29339 37.17898,1.45984 55.8125,3.41797 29.69453,3.12051 56.45787,7.98616 78.93359,16.30664 22.09608,8.17995 41.55991,20.48723 55.58203,35.24024 13.85944,14.58184 24.63431,34.13895 30.44727,55.36719 5.17151,18.88575 7.00444,42.60078 7.8418,69.86718 -0.0993,0.75785 -0.24732,1.50482 -0.3418,2.26368 a 69.855129,69.855129 0 0 0 -0.50781,10.56835 l 5.26172,189.402348 0.0117,0.457031 a 69.855129,69.855129 0 0 0 139.65235,-3.423828 l -4.05664,-191.001951 c 9.94044,-54.51108 42.27873,-106.87906 86.7207,-139.52735 47.49496,-34.89112 112.35186,-49.8663 170.33596,-39.33007 46.6275,8.47263 91.4948,33.36295 122.9375,68.3457 31.3999,34.93515 51.1709,82.06009 53.8262,128.60351 2.0974,36.76551 -5.9484,75.51019 -22.3575,110.51172 -16.4743,35.14076 -41.6185,67.504899 -72.2246,94.277348 -26.4378,23.126233 -57.1005,42.15611 -90.4551,57.31445262 -0.5111,0.22274301 -1.004,0.48663275 -1.5136,0.71289063 -10.2022,4.58880155 -20.6669,8.79478835 -31.3262,12.66406275 -15.5951,3.991509 -30.6785,8.80977 -45.4219,14.066406 -21.0603,5.454223 -42.6477,9.667418 -64.4765,12.658203 C 849.59555,63.360653 665.92046,15.703114 467.70312,2.5273438 499.37003,-18.439048 525.09498,-46.48817 543.46484,-78.855469 c 20.02029,-35.275321 30.74677,-74.368401 32.66211,-113.810551 2.65862,-54.74815 -11.69347,-108.97314 -41.08984,-155.23632 -29.39638,-46.26316 -72.39065,-82.28926 -123.08399,-103.13672 -1.24734,-0.51297 -2.53357,-0.89534 -3.7871,-1.38867 42.57581,-11.91573 88.85021,-16.9243 136.0957,-16.17579 z m -232.58984,137.43946 c 16.20095,0.1446 32.51036,3.3016 47.15039,9.32226 23.42402,9.63306 44.72334,27.48238 58.30664,48.85938 13.58328,21.37699 20.69527,48.24137 19.46679,73.53906 -0.89221,18.37303 -6.07273,36.56929 -14.62304,51.63477 -8.49893,14.97492 -21.02923,27.8995 -34.89063,36.19531 -14.59489,8.73478 -32.98682,13.665207 -50.92578,13.509764 -18.04371,-0.156351 -37.17418,-5.367234 -53.69531,-14.712894 -32.61364,-18.44884 -58.53818,-57.11919 -65.42969,-97.45507 -4.75782,-27.84743 -1.65881,-58.44578 8.1875,-87.11133 16.1065,-14.8859 36.66006,-25.93255 57.79102,-30.75586 9.25964,-2.11359 18.94153,-3.11215 28.66211,-3.02539 z m 83.14257,470.69531 c 12.56741,-0.12604 25.58327,0.19598 38.95117,0.85352 109.51826,5.38695 224.20161,27.60299 343.67188,39.2207 -117.01762,61.83358 -230.44984,115.60704 -348.99219,131.50391 -52.5621,7.04871 -101.65739,4.52029 -137.32422,-12.64844 -17.5114,-8.42936 -32.18377,-20.64895 -41.27734,-33.85547 -8.81897,-12.80772 -13.16533,-28.51725 -12.33008,-40.73242 0.79636,-11.64628 6.59552,-25.94073 16.33985,-37.58985 10.02435,-11.98388 25.0088,-22.77243 42.67773,-30.37109 26.92638,-11.5799 60.58099,-16.00273 98.2832,-16.38086 z m 824.49215,0.71094 c 26.1205,-1.00848 51.249,3.04873 72.0528,11.94531 20.4516,8.74597 37.9048,23.10727 48.0351,38.96289 11.16,17.46708 15.8869,41.66908 12.1016,62.53711 -3.8043,20.97264 -16.751,42.37469 -33.8926,55.83984 -17.2207,13.52728 -41.3663,21.32398 -63.7344,20.49219 -22.4627,-0.83531 -46.3673,-10.37075 -63.6679,-25.47461 -15.5139,-13.54397 -27.4615,-32.8123 -32.6953,-52.73047 -5.2339,-19.91813 -4.3029,-42.57118 2.5488,-61.99218 6.3172,-17.90578 18.3141,-34.72941 33.1308,-46.83594 8.8078,-1.35957 17.5451,-2.41303 26.1211,-2.74414 z"
       id="path4140-7-4"
       inkscape:connector-curvature="0" />
    <path
       style="fill:none;fill-rule:evenodd;stroke:#000000;stroke-width:139.69628906;stroke-linecap:round;stroke-linejoin:round;stroke-miterlimit:4;stroke-dasharray:none;stroke-opacity:1"
       d="m 247.60773,825.65454 c 26.77538,-29.81091 62.92635,-51.07513 101.99166,-59.9921 39.06531,-8.91698 80.86251,-5.44507 117.92119,9.7952 37.05867,15.24026 69.20574,42.1777 90.69557,75.99779 21.48983,33.82008 32.22204,74.36487 30.27848,114.38778 -1.40379,28.90758 -9.35778,57.55289 -23.64309,82.72329 -14.28531,25.1704 -34.93344,46.7903 -59.76731,61.6529 -26.20705,15.6845 -56.85938,23.685 -87.4002,23.4203 -30.54082,-0.2646 -60.89751,-8.7251 -87.48096,-23.7628 -53.16689,-30.0753 -89.60242,-86.2751 -99.88974,-146.48659 -9.26793,-54.24496 1.71433,-111.18255 27.55132,-159.77123 25.83698,-48.58868 66.02715,-88.92481 112.78914,-117.93734 93.52397,-58.02504 209.3945,-69.93792 318.85374,-58.4352 32.57508,3.42321 65.16564,8.89662 95.8828,20.26808 30.71716,11.37146 59.39585,28.88348 81.96118,52.625 22.56533,23.74153 38.53578,53.44704 47.18651,85.03847 8.65073,31.59144 9.95223,64.66267 10.64771,97.40974 l 4.0704,191.65727 -5.2728,-189.85792 c 9.74169,-78.2424 52.87355,-151.76601 116.41657,-198.44643 63.543,-46.68042 146.599,-65.85789 224.1752,-51.76161 62.0694,11.27856 120.227,43.45734 162.3982,90.37652 42.1712,46.91919 68.0198,108.33442 71.6129,171.3178 2.8195,49.42357 -7.8347,99.31603 -28.848,144.13874 -21.0133,44.8228 -52.22,84.6077 -89.4803,117.2008 -74.5205,65.1863 -171.6077,100.6044 -269.6992,114.044 -196.18291,26.8791 -393.45116,-29.009 -591.22777,-38.7372 -56.9659,-2.802 -115.86634,-1.409 -168.26133,21.1239 -26.19749,11.2665 -50.36196,27.8476 -68.65902,49.7213 -18.29705,21.8738 -30.50452,49.191 -32.44995,77.642 -2.05221,30.0126 7.42606,60.3322 24.48672,85.1092 17.06066,24.7771 41.40571,44.1304 68.51152,57.1782 54.21163,26.0955 117.27206,26.9375 176.90366,18.9407 209.8253,-28.1381 390.7043,-155.0102 580.62407,-248.5457 62.5321,-30.7971 128.6048,-58.6564 198.2574,-61.3456 34.8263,-1.3446 70.1676,3.8166 102.2126,17.5205 32.0451,13.7038 60.6666,36.2077 79.4312,65.5772 21.0787,32.9915 28.9553,74.0878 21.9677,112.6096 -6.9875,38.5218 -28.6845,74.1177 -59.4721,98.302 -30.7875,24.1844 -70.3537,36.8197 -109.4771,35.3648 -39.1233,-1.4548 -77.5162,-16.9095 -107.0088,-42.6572 -26.2683,-22.9328 -45.4514,-53.8715 -54.3134,-87.5968 -8.862,-33.7254 -7.3661,-70.0979 4.2354,-102.9817 11.6014,-32.8837 33.2603,-62.1427 61.323,-82.841 28.0627,-20.6983 62.4131,-32.7503 97.2563,-34.1229"
       id="path4140-7-4-0"
       inkscape:path-effect="#path-effect4142-0-1-0"
       inkscape:original-d="m 247.60773,825.65454 c 34.1539,37.67753 308.1693,84.51976 340.8869,140.18867 35.2642,60.00169 -51.5913,137.16149 -83.4104,144.37619 -62.7229,14.5372 -253.6471,-92.0771 -274.7709,-146.82909 -53.07049,-137.55575 272.2836,-350.41592 459.1942,-336.14377 96.9851,10.53699 232.6047,158.30283 235.6782,255.34129 l 4.0704,191.65727 -5.2728,-189.85792 c 12.6525,-176.45242 254.30167,-321.63126 340.59177,-250.20804 62.723,58.14884 265.3725,145.39664 234.0111,261.69432 -31.3614,116.29764 -791.08647,278.49754 -979.25527,336.64634 -188.1687,58.1489 -332.09322,61.2639 -269.3703,148.4872 62.7229,87.2233 144.4561,248.4514 269.9019,161.2281 76.4167,-53.133 358.2485,-211.3663 580.62407,-248.5457 142.6768,-23.8544 330.8721,-46.4285 379.9012,21.7521 125.4458,174.4466 90.9857,290.8423 -253.9903,203.6192 -344.97587,-87.2233 108.5013,-307.5424 108.5013,-307.5424"
       inkscape:connector-curvature="0"
       sodipodi:nodetypes="cscscscccsssssssc" />
  </g>
</svg>
