<?xml version="1.0" encoding="UTF-8" standalone="no"?>
<!-- Created with Inkscape (http://www.inkscape.org/) -->

<svg
   xmlns:dc="http://purl.org/dc/elements/1.1/"
   xmlns:cc="http://creativecommons.org/ns#"
   xmlns:rdf="http://www.w3.org/1999/02/22-rdf-syntax-ns#"
   xmlns:svg="http://www.w3.org/2000/svg"
   xmlns="http://www.w3.org/2000/svg"
   xmlns:sodipodi="http://sodipodi.sourceforge.net/DTD/sodipodi-0.dtd"
   xmlns:inkscape="http://www.inkscape.org/namespaces/inkscape"
   width="2000"
   height="2048"
   id="svg2992"
   version="1.1"
   inkscape:version="0.91pre3 r13670"
   sodipodi:docname="ജ്ജു.svg">
  <defs
     id="defs5498">
    <inkscape:path-effect
       effect="spiro"
       id="path-effect4142-0-1-0"
       is_visible="true" />
    <inkscape:path-effect
       effect="spiro"
       id="path-effect4142-0-1-0-3"
       is_visible="true" />
    <inkscape:path-effect
       effect="spiro"
       id="path-effect4142-0-1-0-5"
       is_visible="true" />
  </defs>
  <sodipodi:namedview
     inkscape:window-height="851"
     inkscape:window-width="1600"
     inkscape:pageshadow="2"
     inkscape:pageopacity="0.0"
     borderopacity="1.0"
     bordercolor="#666666"
     pagecolor="#ffffff"
     id="base"
     showgrid="true"
     showguides="true"
     inkscape:guide-bbox="true"
     inkscape:zoom="0.227"
     inkscape:cx="1484.8933"
     inkscape:cy="-386.53461"
     inkscape:window-x="1599"
     inkscape:window-y="-1"
     inkscape:current-layer="layer1"
     inkscape:window-maximized="1">
    <sodipodi:guide
       orientation="horizontal"
       position="0,600"
       id="guide5596" />
    <inkscape:grid
       type="xygrid"
       id="grid3769"
       empspacing="3"
       visible="true"
       enabled="true"
       snapvisiblegridlinesonly="true"
       spacingx="4px"
       units="px"
       dotted="true"
       spacingy="4px" />
    <sodipodi:guide
       orientation="0,1"
       position="-1040,1600"
       id="guide2985" />
  </sodipodi:namedview>
  <metadata
     id="metadata5594">
    <rdf:RDF>
      <cc:Work
         rdf:about="">
        <dc:format>image/svg+xml</dc:format>
        <dc:type
           rdf:resource="http://purl.org/dc/dcmitype/StillImage" />
        <dc:title />
      </cc:Work>
    </rdf:RDF>
  </metadata>
  <g
     inkscape:label="Layer 1"
     inkscape:groupmode="layer"
     id="layer1"
     transform="translate(0,1048)">
    <path
       style="fill:none;fill-rule:evenodd;stroke:#000000;stroke-width:140;stroke-linecap:round;stroke-linejoin:round;stroke-miterlimit:4;stroke-dasharray:none;stroke-opacity:1"
       d="m 168.84084,-329.64381 c 18.04011,-40.43004 52.28148,-73.35397 93.38786,-89.79474 41.10638,-16.44078 88.60801,-16.21051 129.55306,0.62802 40.94506,16.83852 74.86563,50.09287 92.51292,90.69591 17.64729,40.60304 18.81963,88.09075 3.19737,129.51512 -11.14662,29.55665 -30.64106,55.968 -55.8323,75.02696 -25.19124,19.05896 -56.02069,30.657637 -87.5525,32.551629 -29.72856,1.785678 -59.83961,-5.027281 -86.21221,-18.864239 -26.37261,-13.83696 -48.9807,-34.60377 -65.55088,-59.35058 -33.14037,-49.49363 -40.90335,-113.99148 -25.11062,-171.42399 19.22568,-69.91688 71.66846,-128.48649 136.0817,-161.78712 64.41323,-33.30064 139.73732,-42.51131 211.62891,-33.04576 37.85147,4.98368 75.23557,15.10359 109.3128,32.31733 34.07724,17.21375 64.60823,41.64729 88.00857,71.8134 23.40035,30.16612 39.35714,65.7877 48.20931,102.92542 8.85216,37.13771 10.59757,75.54899 11.83362,113.70712 l 3.8049,117.460779 -4.9289,-115.778799 c -10.28983,-92.01405 27.19955,-188.0732 97.0971,-248.79221 69.89755,-60.71901 170.25565,-84.40598 259.92635,-61.34901 57.7827,14.85763 110.7286,48.31369 148.4559,94.53317 37.7273,46.21949 59.9386,105.00981 61.5554,164.6502 1.2501,46.11222 -9.6062,92.29956 -29.7338,133.80597 -20.1275,41.506409 -49.39,78.360836 -84.1358,108.702742 C 1154.8581,39.187323 1064.8377,72.932917 973.56766,86.400309 791.0275,113.33509 606.90404,63.594462 422.83975,50.682054 368.97104,46.903077 313.03364,46.621816 263.25657,67.558907 c -24.88853,10.468546 -47.79791,26.293346 -64.67898,47.366063 -16.88106,21.07272 -27.46361,47.55817 -27.53735,74.55862 -0.0744,27.24664 10.54387,53.99558 27.43988,75.37103 16.89601,21.37546 39.79267,37.56901 64.65238,48.72159 49.71942,22.30517 105.74514,24.68326 160.20425,26.61874 225.58197,8.0172 457.03034,13.63572 670.50385,-59.71659 95.1444,-32.69286 185.562,-81.16056 260.8548,-147.88584 75.2929,-66.725281 135.0566,-152.2035 165.1829,-248.19142 18.2598,-58.17896 25.561,-119.37134 44.1101,-177.4587 9.2746,-29.04368 21.4291,-57.36493 38.5178,-82.6143 17.0886,-25.24937 39.2936,-47.39587 66.0353,-62.03953 31.2367,-17.10512 68.1901,-23.40577 103.3946,-18.024 35.2044,5.38177 68.478,22.34907 93.8003,47.39098 25.3223,25.04191 42.6196,57.99653 49.2543,92.98647 6.6346,34.98994 2.6379,71.86567 -10.9553,104.78282 -12.0074,29.07685 -31.5064,55.13204 -56.5095,74.22341 -25.0032,19.09136 -55.4987,31.08607 -86.8753,33.35519 -29.7878,2.15421 -60.0655,-4.46117 -86.5662,-18.23299 -26.5007,-13.77182 -49.1979,-34.59863 -65.7762,-59.44038 -33.1565,-49.6835 -40.6021,-114.43689 -24.5313,-171.96544 19.4971,-69.79359 71.903,-128.23504 136.2528,-161.55748 64.3498,-33.32245 139.6032,-42.66661 211.4578,-33.27542 37.8597,4.94815 75.2533,15.05681 109.3348,32.2699 34.0815,17.21309 64.6112,41.6559 88.0069,71.83008 23.3957,30.17418 39.3454,65.80253 48.1935,102.94484 8.8481,37.1423 10.5928,75.55684 11.829,113.71849 l 3.8049,117.4608 -4.9288,-115.7788 c -10.0605,-91.96254 27.4946,-187.8501 97.3345,-248.51901 69.8398,-60.66891 170.0372,-84.44501 259.689,-61.6223 57.8687,14.73167 110.9608,48.08856 148.7529,94.32241 37.7921,46.23384 59.9644,105.16061 61.2584,164.861 0.9959,45.94833 -10.1661,91.90012 -30.5694,133.08199 -20.4033,41.18186 -49.9083,77.626046 -84.8123,107.525019 -69.8081,59.797945 -159.7727,92.54965 -250.7801,105.457914 -182.0147,25.816528 -365.557,-23.339462 -549.2177,-31.377626 -53.1777,-2.327397 -108.1107,-0.869295 -157.0085,20.16133 -24.449,10.515313 -47.0158,25.951129 -64.155,46.312143 -17.1391,20.36102 -28.6474,45.7881 -30.636,72.32803 -2.1074,28.12602 6.5915,56.61541 22.4589,79.9336 15.8675,23.31819 38.624,41.57026 64.0152,53.8504 50.7823,24.5603 110.0192,25.17697 165.8224,16.9274 98.3565,-14.54035 191.1343,-54.63875 279.2949,-100.60754 88.1607,-45.96878 173.1087,-98.21837 263.4556,-139.725863 58.7475,-26.99001 121.2099,-49.65516 185.8603,-49.915454 32.3251,-0.130147 64.8738,5.48468 94.5033,18.40849 29.6295,12.92381 56.2524,33.335401 74.7571,59.840267 22.1337,31.70273 31.9532,71.81675 26.7615,110.13136 -5.1918,38.31461 -25.3881,74.43055 -55.4431,98.75457 -30.0551,24.32401 -69.6718,36.55359 -108.1908,33.19918 -38.519,-3.35441 -75.4906,-22.30348 -100.5504,-51.74781 -19.7089,-23.15719 -31.9629,-52.32942 -36.0248,-82.46573 -4.0619,-30.1363 -0.072,-61.16178 10.2227,-89.77484 20.5901,-57.226121 65.5857,-103.375302 117.6845,-134.75203323 49.2404,-29.65526677 105.7084,-47.46745077 163.1177,-50.33523777 57.4093,-2.867787 115.6433,9.330687 166.5779,35.971426 50.9345,26.640739 94.3588,67.764593 122.7907,117.721405 28.4319,49.95681 41.6279,108.62797 36.2485,165.85661 -5.6069,59.64981 -31.1769,116.72791 -69.2086,163.02184 -38.0317,46.29392 -88.1328,81.96691 -142.7517,106.59042 -109.2378,49.24702 -232.7637,52.90699 -352.5849,53.9258 l -590.6559,5.0222 c -67.5416,0.57429 -135.6206,-3.59454 -202.3368,6.94744 -33.3582,5.27099 -66.5948,15.39492 -94.1709,34.89127 -13.788,9.74817 -26.0229,21.82742 -35.2134,35.99326 -9.1906,14.16583 -15.2778,30.45861 -16.7221,47.28273 -1.3615,15.85944 1.4205,31.97774 7.3883,46.73449 5.9677,14.75676 15.0719,28.1671 26.1076,39.63832 22.0714,22.94244 51.4219,37.90323 81.9351,46.98346 61.0262,18.16045 126.0075,15.86667 189.6785,15.97893 l 1195.9377,2.1085"
       id="path4140-7-4-0"
       inkscape:path-effect="#path-effect4142-0-1-0"
       inkscape:original-d="m 168.84084,-329.64381 c 31.926,35.21986 288.06771,79.00662 318.65121,131.04431 32.9639,56.08784 -84.3527,116.823624 -143.3848,107.578589 -100.7544,-15.779169 -199.31021,-150.155009 -176.87371,-249.638809 29.2294,-129.60335 217.29191,-220.17773 347.71061,-194.83288 134.5654,26.15071 252.9851,230.11476 257.3643,320.76327 l 3.8049,117.460779 -4.9289,-115.778799 c 14.3471,-178.20465 199.9836,-323.88376 357.02345,-310.14122 110.7726,9.69371 240.6714,152.29793 210.0113,259.18337 -88.965,310.145954 -620.43445,183.871474 -915.37945,314.687254 -87.6101,38.8574 -250.13771,42.97526 -251.79951,138.801536 -1.6986,97.94643 156.80072,128.87248 252.29651,150.71136 218.73892,50.0233 465.51896,31.5536 670.50385,-59.71659 177.1376,-78.87108 312.2538,-239.068951 426.0377,-396.07726 69.3927,-95.75378 32.4381,-300.29816 148.6632,-322.11253 107.1891,-20.1184 204.9104,175.09857 235.4939,227.13627 32.9639,56.0878 -84.3527,116.823627 -143.3848,107.5786 -100.7544,-15.77916 -199.3102,-150.15499 -176.8737,-249.63881 29.2293,-129.60338 217.2919,-220.17777 347.7106,-194.8329 134.5654,26.15073 254.4259,230.05667 257.3642,320.76331 l 3.8049,117.4608 -4.9288,-115.7788 c 14.3471,-178.20471 199.9836,-323.88388 357.0235,-310.14131 110.7726,9.69371 240.6713,152.29797 210.0113,259.18341 -88.9651,310.145961 -620.4345,183.871504 -915.3795,314.687297 -87.6101,38.857373 -250.1376,42.975278 -251.7995,138.801503 -1.6986,97.9464 154.5164,144.7581 252.2965,150.7114 197.4946,12.02438 347.6964,-207.12814 542.7505,-240.333403 117.0655,-19.928787 320.2463,-85.1800156 355.1207,28.333303 29.7888,96.96019 -153.3033,247.01672 -237.4228,190.3373 -88.5837,-59.68735 -6.9836,-266.555558 91.8824,-306.99260323 C 2764.3604,-70.846671 3079.3728,82.79256 3080.9457,268.77814 3082.78,485.66466 2638.4078,591.2788 2516.4005,592.3162 l -590.6559,5.0222 c -21.6551,0.18413 -341.632,1.89456 -348.4432,125.1147 -6.2495,113.05913 282.3602,149.29509 305.1095,149.3352 l 1195.9377,2.1085"
       inkscape:connector-curvature="0"
       sodipodi:nodetypes="csaaasccaaaaaaaasaaasccaaaaaaaaaassasc" />
    <path
       style="color:#000000;font-style:normal;font-variant:normal;font-weight:normal;font-stretch:normal;font-size:medium;line-height:normal;font-family:sans-serif;text-indent:0;text-align:start;text-decoration:none;text-decoration-line:none;text-decoration-style:solid;text-decoration-color:#000000;letter-spacing:normal;word-spacing:normal;text-transform:none;direction:ltr;block-progression:tb;writing-mode:lr-tb;baseline-shift:baseline;text-anchor:start;white-space:normal;clip-rule:nonzero;display:inline;overflow:visible;visibility:visible;opacity:1;isolation:auto;mix-blend-mode:normal;color-interpolation:sRGB;color-interpolation-filters:linearRGB;solid-color:#000000;solid-opacity:1;fill:#000000;fill-opacity:1;fill-rule:evenodd;stroke:none;stroke-width:140;stroke-linecap:round;stroke-linejoin:round;stroke-miterlimit:4;stroke-dasharray:none;stroke-dashoffset:0;stroke-opacity:1;color-rendering:auto;image-rendering:auto;shape-rendering:auto;text-rendering:auto;enable-background:accumulate"
       d="m 1795.9531,1438.6367 c -64.2814,0.2181 -129.4119,13.7711 -188.957,44.6055 -80.2463,41.5542 -145.9664,113.5362 -171.4844,204.8828 -1.6078,5.7554 -2.9829,11.5729 -4.2422,17.416 -5.601,13.2927 -10.6219,26.5925 -14.8086,39.7031 -21.2635,66.5876 -28.56,127.9037 -44.2168,177.7891 -25.7612,82.0801 -77.9772,157.5269 -144.8222,216.7656 -67.0668,59.4353 -149.2479,103.8617 -237.17385,134.0742 -197.72901,67.9423 -420.22783,63.9591 -645.27149,55.961 -54.12816,-1.9238 -100.54044,-5.504 -134.03711,-20.5313 -16.41667,-7.3648 -29.9054,-17.5294 -38.38867,-28.2617 -8.1261,-10.2804 -12.38182,-22.8363 -12.35742,-31.7715 0.0241,-8.835 4.25762,-21.1074 12.16992,-30.9843 8.25156,-10.3006 21.38747,-19.9617 37.1875,-26.6075 32.29442,-13.5836 76.80894,-15.1315 127.54492,-11.5722 174.79662,12.2622 364.26679,64.8843 565.84375,35.1406 101.40005,-14.9621 204.24045,-52.4946 286.60745,-124.4219 41.2318,-36.006 76.4264,-80.0486 101.0781,-130.8847 24.7115,-50.9593 38.3046,-107.8934 36.7227,-166.2461 -2.0537,-75.7552 -29.6984,-148.6979 -77.3028,-207.0176 l 0,0 c -47.5505,-58.2539 -112.9116,-99.4637 -185.252,-118.0645 -113.06905,-29.0734 -235.12928,-0.2639 -323.2656,76.2989 -17.60184,15.2904 -33.42318,32.2445 -47.50391,50.4199 -2.39443,-3.3536 -4.75323,-6.7254 -7.29492,-10.002 -30.25392,-39.0012 -68.905,-69.744 -111.75781,-91.3906 -42.61227,-21.5251 -87.63974,-33.4304 -131.73633,-39.2363 -83.99206,-11.0587 -173.40236,-0.8408 -252.91406,40.2656 -80.38856,41.5596 -146.225465,113.7496 -171.429692,205.4082 -20.8999427,76.0054 -11.5297492,160.2738 34.441406,228.9297 22.874659,34.1622 53.879286,62.8129 91.193356,82.3906 37.41293,19.6294 79.74205,29.3462 122.93164,26.752 45.87937,-2.7558 89.3817,-19.2076 125.58985,-46.6016 36.14847,-27.3489 63.29677,-64.2628 79.09375,-106.1504 22.263,-59.0332 20.65278,-124.2545 -4.4961,-182.1172 -20.61572,-47.4328 -55.65309,-86.6522 -99.75195,-112.4765 18.89205,-0.7906 38.0365,-0.1032 57.06641,2.4023 31.60632,4.1614 61.34648,12.4942 86.88867,25.3965 25.30165,12.7808 47.713,30.9054 64.25977,52.2363 16.48874,21.2562 28.63389,47.7496 35.42773,76.252 3.83744,16.0993 6.0436,33.962 7.5293,53.0722 -0.68516,16.4374 -0.2861,32.9712 1.35547,49.5157 l 4.9082,115.3261 a 70.007,70.007 0 0 0 139.90039,-5.2422 l -3.80469,-117.4609 c -0.44157,-13.6317 -1.0839,-27.9788 -1.99219,-42.6211 4.67474,-56.3901 31.93979,-112.9215 73.90821,-149.3789 51.6588,-44.8752 130.31548,-63.439 196.5879,-46.3984 43.225,11.1144 83.756,36.8168 111.6601,71.0019 27.8504,34.1193 44.6287,78.7575 45.8086,122.2832 0.9183,33.8717 -7.2004,69.3117 -22.7441,101.3653 -15.6033,32.1766 -38.9338,61.8436 -67.1934,86.5214 -56.6161,49.4403 -133.81688,79.3985 -214.95699,91.3711 -163.50338,24.1258 -342.27937,-22.7323 -535.61133,-36.2949 -57.00144,-3.9987 -124.3614,-6.1109 -191.6211,22.1797 -33.97703,14.2913 -66.661313,36.2819 -92.171871,68.127 -25.84925,32.2682 -42.780956,72.9657 -42.904297,118.1308 -0.124418,45.558 16.857521,86.5004 42.523438,118.9707 25.308733,32.0185 57.61327,54.2413 90.91602,69.1817 65.94213,29.5829 131.57912,30.7597 186.36914,32.707 226.12032,8.0363 466.52022,15.2897 695.73829,-63.4727 102.3628,-35.1732 201.0163,-87.6819 284.5351,-161.6972 83.7408,-74.2119 151.0517,-169.7235 185.543,-279.6192 0.3226,-1.0278 0.5783,-2.0255 0.8945,-3.0508 16.0994,15.0851 34.228,28.1704 54.2442,38.5723 37.7201,19.6023 80.4199,29.0815 123.8945,25.9375 45.8229,-3.3138 88.7253,-20.3672 124.3086,-47.5371 35.4671,-27.0813 62.1474,-62.9882 78.7285,-103.1406 18.7852,-45.4901 24.2995,-95.6533 15.0293,-144.543 -9.2846,-48.9652 -32.9868,-94.2916 -68.8086,-129.7168 -8.2395,-8.1483 -17.0766,-15.591 -26.3261,-22.4394 11.2583,0.3201 22.5419,1.0266 33.7851,2.4961 31.585,4.128 61.3156,12.4475 86.8496,25.3437 25.2942,12.775 47.7008,30.9038 64.2442,52.2402 16.4859,21.2625 28.6259,47.762 35.4179,76.2735 3.8935,16.344 6.1027,34.5107 7.586,53.9512 -0.6597,16.1004 -0.2802,32.2929 1.289,48.498 l 4.918,115.4863 a 70.007,70.007 0 0 0 139.8984,-5.2441 l -3.8046,-117.461 c -0.4328,-13.3578 -1.0589,-27.4051 -1.9317,-41.7343 4.607,-56.6044 31.9462,-113.3841 74.0859,-149.9903 51.6517,-44.8691 130.2095,-63.5099 196.5137,-46.6308 43.3066,11.0246 83.9218,36.6521 111.8242,70.7871 27.8375,34.0556 44.5325,78.6975 45.4727,122.0762 0.7284,33.6089 -7.5946,68.7672 -23.3106,100.4882 -15.7787,31.8479 -39.2646,61.1442 -67.6269,85.4395 -56.8322,48.6827 -134.0123,77.8174 -215.0703,89.3144 a 70.007,70.007 0 0 0 -0,0 c -163.3044,23.1628 -342.2464,-23.5116 -536.3261,-32.0058 -56.5575,-2.4753 -122.4274,-2.2937 -187.7266,25.791 -32.928,14.162 -64.6414,35.3513 -90.0508,65.5371 -25.6873,30.5162 -43.6435,68.8934 -46.8867,112.1777 -3.443,45.9507 10.2988,89.1384 34.3906,124.543 23.8219,35.0076 56.3024,60.5089 91.4102,77.4883 69.5769,33.6501 143.1449,32.5278 206.5371,23.1562 110.4747,-16.3318 210.2065,-60.2236 301.4219,-107.7851 85.5034,-44.5833 164.7588,-92.587 244.6367,-130.7051 -3.9473,24.2248 -4.6419,49.2563 -1.2442,74.4649 5.7526,42.6798 22.8566,84.1363 52.0899,118.4843 37.477,44.0341 90.4243,71.12 147.7851,76.1153 57.3012,4.99 113.782,-12.4919 158.3008,-48.5215 44.4735,-35.9931 73.1221,-87.3186 80.7715,-143.7695 7.6416,-56.3949 -6.2957,-113.1416 -38.7324,-159.6016 -15.3247,-21.9501 -33.9985,-40.3121 -54.625,-55.4043 6.0966,-0.735 12.1998,-1.2969 18.2988,-1.6016 45.1746,-2.2566 91.3483,7.5336 130.6426,28.086 39.1978,20.5019 72.9515,52.6381 94.3965,90.3183 21.3835,37.5723 31.3565,82.5108 27.3925,124.6817 -4.1405,44.0498 -23.7175,88.7582 -53.6035,125.1367 -30.087,36.6234 -71.284,66.4065 -117.4316,87.2109 -92.3976,41.6551 -205.6072,46.734 -324.4121,47.7442 l -590.6563,5.0214 c -64.2616,0.5465 -135.8885,-4.3289 -212.666,7.8028 -39.9267,6.3089 -83.7584,18.6672 -123.6562,46.875 a 70.007,70.007 0 0 0 0,0 c -20.1064,14.2154 -38.787,32.3306 -53.5274,55.0508 l 0,0 c -14.848,22.8858 -25.1937,49.7079 -27.7422,79.3945 -2.4023,27.9829 2.4612,54.7937 12.2363,78.9649 9.7185,24.0315 23.9591,44.6732 40.5567,61.9258 33.0261,34.3295 73.5161,53.9694 112.414,65.5449 a 70.007,70.007 0 0 0 0,0 c 75.5906,22.4945 147.6137,18.7775 209.5195,18.8867 l 1195.9375,2.1094 a 70.007,70.007 0 1 0 0.2481,-140 l -1195.9375,-2.1094 c -65.4362,-0.1154 -123.3762,0.756 -169.8379,-13.0703 -22.1286,-6.5851 -40.3385,-16.8666 -51.4551,-28.4219 -5.4739,-5.6898 -9.4413,-11.8696 -11.6582,-17.3515 -2.1605,-5.3424 -2.8598,-10.768 -2.5391,-14.5039 0.3401,-3.9616 2.168,-9.7261 5.7012,-15.1719 a 70.007,70.007 0 0 0 0,0 c 3.6405,-5.6112 9.4295,-11.6527 16.8985,-16.9336 15.2543,-10.7848 37.8958,-18.6732 64.6855,-22.9063 56.6549,-8.9521 121.1863,-5.4915 192.0078,-6.0937 l 590.6563,-5.0215 c 120.8375,-1.0274 254.68,-3.2685 380.7578,-60.1074 63.0902,-28.4426 122.0959,-70.0061 168.0723,-125.9707 46.1774,-56.2093 77.7392,-125.6565 84.8125,-200.9063 6.7948,-72.2863 -9.6232,-144.6899 -45.1035,-207.0312 -35.4189,-62.2334 -88.5144,-112.3456 -151.1856,-145.125 -50.8678,-26.6058 -106.8478,-41.0252 -163.4219,-43.6992 22.48,-48.4199 35.0104,-101.974 33.8184,-156.9707 -1.6478,-76.0222 -29.2982,-149.2345 -77.0449,-207.6465 -47.6818,-58.3326 -113.2509,-99.4187 -185.6817,-117.8574 -112.9994,-28.7664 -234.8353,0.1446 -322.8633,76.6132 -17.6006,15.2895 -33.4219,32.2425 -47.5078,50.4141 -2.4572,-3.4514 -4.887,-6.9171 -7.5,-10.2871 -30.2481,-39.012 -68.9007,-69.7687 -111.7695,-91.4199 -42.6289,-21.5301 -87.6859,-33.4291 -131.8203,-39.1973 -20.9996,-2.7446 -42.3326,-4.1528 -63.7598,-4.0801 z m -130.6699,233.4082 c 5.1396,-0.081 10.2527,0.2491 15.2285,1.0098 19.9919,3.0562 40.3944,13.3684 55.1582,27.9687 14.8228,14.6587 25.7164,35.2391 29.7012,56.2539 3.999,21.0902 1.5184,44.6792 -6.8828,65.0235 l 0,0 c -7.4337,18.0012 -19.7519,34.2051 -34.291,45.3066 -14.4231,11.0129 -32.513,17.9495 -49.4433,19.1738 -16.1011,1.1644 -33.957,-2.5879 -49.2383,-10.5292 -15.3892,-7.9974 -29.5995,-20.8536 -39.8301,-36.1836 -16.7489,-25.0975 -23.5572,-60.1236 -19.3105,-93.5704 4.1045,-8.3205 8.4489,-16.2402 13.2539,-23.3398 11.9614,-17.6737 26.7039,-31.673 41.6855,-39.877 12.8919,-7.0595 28.5479,-10.9944 43.9668,-11.2363 z m -1419.40429,26.1172 c 13.33698,0.065 26.66358,2.521 38.43359,7.3613 23.53989,9.6807 44.79178,30.5161 54.9375,53.8594 10.1457,23.3433 10.87994,53.0965 1.89844,76.9121 -6.49625,17.2256 -18.33437,33.1353 -32.56836,43.9043 -14.17432,10.7239 -32.33137,17.4678 -49.51563,18.5 -16.26754,0.9772 -34.15987,-2.9322 -49.49218,-10.9765 -15.43116,-8.0964 -29.64251,-20.9792 -39.90821,-36.3106 -15.86713,-23.6969 -22.95211,-56.164 -20.25976,-87.7715 a 70.007,70.007 0 0 0 2.51562,-5.166 c 10.37156,-23.2439 31.82425,-43.8721 55.45703,-53.3242 11.81634,-4.726 25.16497,-7.0529 38.50196,-6.9883 z m 1473.42579,469.457 c 11.6352,-0.1683 23.7224,0.07 36.1719,0.6153 94.8289,4.1503 194.1513,21.4535 297.5293,31.6406 -15.7307,8.6149 -31.4107,17.1117 -47.0411,25.2617 -85.1058,44.3759 -170.9297,80.6808 -257.1679,93.4297 -48.2142,7.1277 -93.1198,4.7732 -125.1074,-10.6973 -15.6747,-7.5808 -28.708,-18.584 -36.6211,-30.2129 -7.643,-11.2318 -11.2973,-25.0228 -10.5254,-35.3242 0.7339,-9.7954 5.7919,-22.2727 14.3828,-32.4785 8.869,-10.5362 22.2897,-20.2174 38.2597,-27.0859 24.3723,-10.4824 55.2134,-14.6433 90.1192,-15.1485 z m 770.3691,0.018 c 23.3888,0.1153 45.74,4.3204 64.4883,12.4981 18.957,8.2686 35.2266,21.2532 45.3477,35.75 11.8306,16.9454 17.5328,40.4275 14.791,60.6621 -2.7347,20.1776 -14.4772,41.0857 -30.1133,53.7402 -15.5914,12.6184 -38.3452,19.5938 -58.082,17.875 -19.6772,-1.7136 -40.6739,-12.5264 -53.3164,-27.3809 -10.1845,-11.9664 -17.5878,-28.8525 -19.959,-46.4453 -2.4018,-17.8195 -0.071,-37.8595 6.7168,-56.7265 6.2739,-17.4373 16.7639,-34.3264 30.1269,-49.9727 z"
       id="path4140-7-4-0-3"
       inkscape:connector-curvature="0" />
  </g>
</svg>
