<?xml version="1.0" encoding="UTF-8" standalone="no"?>
<!-- Created with Inkscape (http://www.inkscape.org/) -->

<svg
   xmlns:dc="http://purl.org/dc/elements/1.1/"
   xmlns:cc="http://creativecommons.org/ns#"
   xmlns:rdf="http://www.w3.org/1999/02/22-rdf-syntax-ns#"
   xmlns:svg="http://www.w3.org/2000/svg"
   xmlns="http://www.w3.org/2000/svg"
   xmlns:sodipodi="http://sodipodi.sourceforge.net/DTD/sodipodi-0.dtd"
   xmlns:inkscape="http://www.inkscape.org/namespaces/inkscape"
   width="2000"
   height="2048"
   id="svg2992"
   version="1.1"
   inkscape:version="0.91 r13725"
   sodipodi:docname="ജൃ.svg">
  <defs
     id="defs5498">
    <inkscape:path-effect
       effect="spiro"
       id="path-effect4142-0-1-0"
       is_visible="true" />
    <inkscape:path-effect
       effect="spiro"
       id="path-effect4142-0-1-0-7"
       is_visible="true" />
    <inkscape:path-effect
       effect="spiro"
       id="path-effect4142-0-1-0-74"
       is_visible="true" />
    <inkscape:path-effect
       effect="spiro"
       id="path-effect4142-0-1-0-74-4"
       is_visible="true" />
    <inkscape:path-effect
       effect="spiro"
       id="path-effect4142-0-1-0-74-5"
       is_visible="true" />
    <inkscape:path-effect
       effect="spiro"
       id="path-effect4187"
       is_visible="true" />
    <inkscape:path-effect
       effect="spiro"
       id="path-effect4183"
       is_visible="true" />
    <inkscape:path-effect
       effect="spiro"
       id="path-effect4187-1"
       is_visible="true" />
    <inkscape:path-effect
       effect="spiro"
       id="path-effect4183-0"
       is_visible="true" />
    <inkscape:path-effect
       effect="spiro"
       id="path-effect4187-9"
       is_visible="true" />
  </defs>
  <sodipodi:namedview
     inkscape:window-height="844"
     inkscape:window-width="1600"
     inkscape:pageshadow="2"
     inkscape:pageopacity="0.0"
     borderopacity="1.0"
     bordercolor="#666666"
     pagecolor="#ffffff"
     id="base"
     showgrid="true"
     showguides="true"
     inkscape:guide-bbox="true"
     inkscape:zoom="0.5"
     inkscape:cx="547.19034"
     inkscape:cy="-2295.851"
     inkscape:window-x="1600"
     inkscape:window-y="0"
     inkscape:current-layer="layer1"
     inkscape:window-maximized="1">
    <sodipodi:guide
       orientation="horizontal"
       position="0,600"
       id="guide5596" />
    <inkscape:grid
       type="xygrid"
       id="grid3769"
       empspacing="3"
       visible="true"
       enabled="true"
       snapvisiblegridlinesonly="true"
       spacingx="4px"
       units="px"
       dotted="true"
       spacingy="4px" />
    <sodipodi:guide
       orientation="0,1"
       position="-1040,1600"
       id="guide2985" />
  </sodipodi:namedview>
  <metadata
     id="metadata5594">
    <rdf:RDF>
      <cc:Work
         rdf:about="">
        <dc:format>image/svg+xml</dc:format>
        <dc:type
           rdf:resource="http://purl.org/dc/dcmitype/StillImage" />
        <dc:title />
      </cc:Work>
    </rdf:RDF>
  </metadata>
  <g
     inkscape:label="Layer 1"
     inkscape:groupmode="layer"
     id="layer1"
     transform="translate(0,1048)">
    <path
       style="fill:none;fill-rule:evenodd;stroke:#000000;stroke-width:70;stroke-linecap:round;stroke-linejoin:round;stroke-miterlimit:4;stroke-dasharray:none;stroke-opacity:1"
       d="m 2070.8926,-352.44928 c 19.1873,-42.98175 55.5969,-77.98093 99.3028,-95.4561 43.7059,-17.47517 94.2087,-17.22669 137.7405,0.6777 43.5319,17.9044 79.5953,53.26016 98.3588,96.42863 18.7634,43.16848 20.0126,93.6565 3.4069,137.70007 -11.8496,31.42895 -32.5762,59.51418 -59.3611,79.78138 -26.7849,20.26721 -59.566,32.60162 -93.0941,34.615864 -31.6118,1.89912 -63.6304,-5.346364 -91.6729,-20.061254 -28.0425,-14.71488 -52.0813,-36.79897 -69.6993,-63.11476 -35.2358,-52.63158 -43.485,-121.21528 -26.6905,-182.28566 20.4441,-74.34127 76.2002,-136.62037 144.6871,-172.03399 68.4869,-35.41361 148.5782,-45.21371 225.0195,-35.14799 40.2484,5.29988 79.9994,16.06349 116.233,34.37036 36.2337,18.30688 68.6956,44.29084 93.5753,76.36926 24.8796,32.07843 41.8445,69.95669 51.2558,109.44653 9.4114,39.48985 11.267,80.33351 12.5811,120.90807 l 4.0455,124.90581 -5.2407,-123.11722 c -10.7249,-97.78922 29.1959,-199.76627 103.4593,-264.2853 74.2634,-64.51903 180.8183,-89.79809 276.1494,-65.51361 61.5286,15.6737 117.9735,51.15223 158.1525,100.3161 40.1789,49.16387 63.7534,111.81672 65.144,175.29509 1.0704,48.86426 -10.7818,97.73558 -32.4606,141.54074 -21.6788,43.805151 -53.036,82.57823 -90.1382,114.394689 C 3117.4423,36.918048 3021.7859,71.80313 2925.0076,85.565816 2731.451,113.09119 2536.2641,60.807554 2340.9594,51.98279 c -56.5835,-2.556704 -115.0515,-1.105222 -167.0935,21.252536 -26.0209,11.178879 -50.0347,27.614704 -68.2426,49.306404 -18.2079,21.6917 -30.3903,48.79048 -32.3921,77.04027 -2.1153,29.8509 7.2518,60.03616 24.1852,84.71024 16.9334,24.67409 41.1355,43.95394 68.0958,56.94212 53.9207,25.97636 116.6802,26.75058 175.9757,18.61154 207.6031,-28.4961 385.831,-155.50717 573.0847,-249.56639 62.9342,-31.612439 129.6148,-60.231268 199.9994,-62.695777 35.1923,-1.232254 70.9024,4.306753 103.0503,18.677832 32.1479,14.371078 60.5841,37.852615 78.5358,68.147025 18.9975,32.05923 25.6032,71.2311 18.2935,107.77243 -7.3097,36.54134 -28.4411,70.1227 -58.1456,92.62483 -29.7045,22.50212 -67.7043,33.74817 -104.8798,31.16274 -37.1755,-2.58543 -73.2141,-18.95439 -99.7102,-45.1585 -19.111,-18.90035 -33.2602,-42.70117 -41.1574,-68.39332 -7.8973,-25.69216 -9.5686,-53.22292 -5.2751,-79.75628 8.5869,-53.06673 41.3694,-101.095301 85.8772,-131.242673 44.5079,-30.147371 99.9132,-42.7788566 153.4838,-38.3063394 53.5706,4.4725172 105.1805,25.5116674 148.7566,56.9908354 63.8211,46.104107 110.574,114.557117 133.1919,189.970377 22.6178,75.41325 21.4479,157.34219 -0.4052,232.98059 -21.8532,75.6384 -64.0067,144.92428 -118.9684,201.29744 -54.9618,56.37315 -122.5056,99.96619 -195.3917,129.73782 -34.1432,13.94642 -69.6992,24.97257 -106.3013,29.50584 -36.6021,4.53328 -74.3632,2.41318 -109.3251,-9.3314 -34.9618,-11.74457 -66.9988,-33.47477 -88.328,-63.56346 -21.3291,-30.08869 -31.2679,-68.71905 -24.08,-104.89359 5.8901,-29.64348 22.9209,-56.56282 45.7198,-76.40321 22.7988,-19.84038 51.1208,-32.81327 80.5993,-39.48003 58.9571,-13.3335 120.6434,-1.95108 178.8905,14.20426 82.7045,22.93882 162.7331,55.50992 237.9507,96.84432"
       id="path4140-7-4-0-62"
       inkscape:path-effect="#path-effect4142-0-1-0-74"
       inkscape:original-d="m 2070.8926,-352.44928 c 33.9457,37.4522 306.2908,84.0143 338.809,139.3503 35.0492,59.64286 -89.6888,124.228255 -152.4552,114.397244 -107.1281,-16.779304 -211.9185,-159.672294 -188.0627,-265.461674 31.0785,-137.818 231.0377,-234.13326 369.7066,-207.18198 143.078,27.80822 268.9889,244.70013 273.6452,341.09422 l 4.0455,124.90581 -5.2407,-123.11722 c 15.2547,-189.49981 212.6345,-344.4125 379.6087,-329.79891 117.78,10.30812 255.8962,161.95103 223.2965,275.61119 -94.5928,329.803949 -659.683,195.52581 -973.2861,334.63309 -93.1522,41.3203 -265.9612,45.699162 -267.7282,147.59921 -1.806,104.15456 164.308,153.61186 268.2567,160.2639 207.9305,13.30621 367.8671,-213.53994 573.0847,-249.56639 125.5296,-22.037019 344.6321,-97.845294 381.5855,24.12908 29.7102,98.06641 -172.2951,266.57536 -244.4421,186.4015 -44.1633,-49.07678 221.6688,-338.939708 341.6851,-260.707777 216.5665,141.167647 50.6431,640.386827 -181.5734,753.986227 -107.7907,52.73077 -334.2093,-28.44423 -328.0344,-148.28261 5.5181,-107.09159 198.0325,-105.16022 305.2096,-101.67898 85.5893,2.78005 237.9507,96.84432 237.9507,96.84432"
       inkscape:connector-curvature="0"
       sodipodi:nodetypes="csaaasccaaaaaaasaaaac" />
    <path
       style="color:#000000;font-style:normal;font-variant:normal;font-weight:normal;font-stretch:normal;font-size:medium;line-height:normal;font-family:sans-serif;text-indent:0;text-align:start;text-decoration:none;text-decoration-line:none;text-decoration-style:solid;text-decoration-color:#000000;letter-spacing:normal;word-spacing:normal;text-transform:none;direction:ltr;block-progression:tb;writing-mode:lr-tb;baseline-shift:baseline;text-anchor:start;white-space:normal;clip-rule:nonzero;display:inline;overflow:visible;visibility:visible;opacity:1;isolation:auto;mix-blend-mode:normal;color-interpolation:sRGB;color-interpolation-filters:linearRGB;solid-color:#000000;solid-opacity:1;fill:#000000;fill-opacity:1;fill-rule:evenodd;stroke:none;stroke-width:70;stroke-linecap:round;stroke-linejoin:round;stroke-miterlimit:4;stroke-dasharray:none;stroke-dashoffset:0;stroke-opacity:1;color-rendering:auto;image-rendering:auto;shape-rendering:auto;text-rendering:auto;enable-background:accumulate"
       d="m 3542.2969,938.2793 c -62.873,0.1584 -126.143,13.32665 -183.1699,42.81445 -76.474,39.54355 -138.9245,108.63395 -162.3575,193.84375 -19.3479,70.3554 -10.2969,148.8239 31.3535,211.0371 20.77,31.0238 49.0059,57.0511 82.5196,74.6367 33.5631,17.6118 71.6919,26.3094 110.0351,24.0059 40.7027,-2.4452 79.8217,-17.2072 112.1153,-41.6426 32.2636,-24.4128 56.8159,-57.7489 70.9902,-95.3437 19.925,-52.8475 18.4575,-112.2025 -4.0566,-164 -22.5142,-51.7975 -64.9112,-93.3624 -117.1446,-114.8457 -34.9798,-14.3871 -73.1568,-19.2194 -110.3144,-14.5782 6.2,-3.8911 12.5237,-7.5787 19.0117,-10.9336 60.9379,-31.5101 133.9864,-40.8058 204.375,-31.5371 37.1245,4.8886 73.0517,14.7596 105.0176,30.9102 31.8459,16.09 60.2496,38.9192 81.7031,66.5801 21.4244,27.6235 36.4828,60.9367 44.8652,96.1093 4.9931,20.9507 7.5794,43.1561 9.2325,66.1055 -0.8108,16.6635 -0.4812,33.4099 1.2382,50.1172 l 5.2344,122.9668 a 35.0035,35.0035 0 0 0 69.9492,-2.6231 l -0.012,-0.3554 -4.0332,-124.5489 c -0.4845,-14.9596 -1.1905,-30.3133 -2.1953,-45.8144 4.7957,-71.5928 38.5567,-142.3232 92.4316,-189.1289 65.1675,-56.6167 160.9018,-79.3277 244.5567,-58.0176 54.247,13.8188 104.4552,45.4312 139.6914,88.5469 35.204,43.0765 56.04,98.5908 57.2519,153.914 0.9354,42.698 -9.4998,86.1747 -28.8379,125.25 -19.3694,39.1388 -47.7196,74.3366 -81.5527,103.3497 -67.7198,58.0721 -156.9842,91.1446 -248.7832,104.1992 -184.1931,26.1938 -377.0594,-24.8379 -577.541,-33.8965 -58.2663,-2.6327 -122.2158,-1.8352 -182.4883,24.0586 -30.277,13.0073 -58.881,32.3325 -81.2344,58.9629 -22.4939,26.7978 -37.8981,60.4058 -40.4961,97.0683 -2.7478,38.7775 9.1766,76.2989 30.2383,106.9883 20.9243,30.4893 49.9809,53.3585 81.7637,68.6699 63.2424,30.4671 133.0378,30.3861 195.9258,21.7539 218.8105,-30.0344 400.1145,-160.5798 584.0351,-252.9648 18.451,-9.2681 36.9531,-17.9585 55.4727,-25.8145 -6.9775,16.3111 -12.1346,33.4877 -15.0215,51.3282 -5.1321,31.7159 -3.1837,64.5523 6.3691,95.6308 9.5633,31.112 26.5869,59.839 50.002,82.9961 32.5966,32.2374 76.079,52.0013 121.8926,55.1875 45.83,3.1873 91.7608,-10.3914 128.4433,-38.1797 36.6959,-27.7983 62.2845,-68.439 71.3301,-113.6582 9.049,-45.2359 1.0559,-92.7255 -22.5019,-132.4804 -20.7347,-34.9909 -51.9503,-61.4552 -87.0606,-78.6836 0.8397,0.06 1.6847,0.037 2.5235,0.1074 46.359,3.8705 92.2306,22.352 131.1738,50.4844 57.0678,41.2255 99.6826,103.371 120.1621,171.6543 20.5185,68.4138 19.571,143.7271 -0.5039,213.2109 -14.9392,51.7075 -40.4036,100.5724 -73.4922,143.8281 -70.3259,-36.4301 -144.3882,-65.5977 -220.7148,-86.7676 -60.2999,-16.7247 -127.7045,-30.0527 -195.9649,-14.6152 -34.3023,7.7577 -67.9279,22.9132 -95.8555,47.2168 -28.1141,24.4659 -49.4581,57.6645 -57.0722,95.9844 -9.3181,46.8952 3.3192,94.5207 29.8554,131.9551 26.2939,37.0923 64.5392,62.6608 105.7364,76.5 40.9679,13.7622 83.9342,15.9465 124.7715,10.8886 40.7285,-5.0442 79.1949,-17.1189 115.2343,-31.8398 76.9509,-31.4319 148.5474,-77.5271 207.2188,-137.7051 58.7239,-60.232 103.9287,-134.3224 127.5312,-216.0156 23.6313,-81.7931 25.0237,-170.3374 0.3067,-252.75 -24.7564,-82.5434 -75.6483,-157.3044 -146.2227,-208.2871 -48.209,-34.826 -105.5577,-58.4234 -166.3398,-63.4981 -0.046,-0 -0.093,-0 -0.1387,-0.01 26.1187,-27.7824 48.6076,-59.2015 65.7363,-93.8125 24.0195,-48.5349 37.2895,-102.8014 36.084,-157.8321 -1.5692,-71.6335 -27.8814,-141.4244 -73.0351,-196.6757 a 35.0035,35.0035 0 0 0 0,-0 c -45.1219,-55.2119 -107.8032,-94.55543 -176.6133,-112.08398 -107.0074,-27.25886 -224.385,0.58832 -307.7442,73.00978 -32.3433,28.0994 -58.6696,62.2513 -78.1836,99.8867 -9.88,-22.1334 -22.2093,-43.3078 -37.3066,-62.7734 -28.3059,-36.4959 -64.8257,-65.6344 -105.4473,-86.15823 -40.5013,-20.46309 -84.075,-32.1208 -127.4472,-37.83203 -20.6235,-2.71568 -41.5385,-4.10945 -62.4961,-4.05664 z m -142.0059,184.3535 c 19.1334,0.094 38.249,3.7279 55.6641,10.8906 34.8302,14.3255 64.5613,43.4722 79.5742,78.0118 15.0128,34.5394 16.0422,76.1606 2.7559,111.4003 -9.5249,25.263 -26.4244,48.0972 -47.7305,64.2188 -21.2762,16.099 -47.7207,26.0047 -74.0742,27.5879 -24.8804,1.4947 -50.7887,-4.2972 -73.3106,-16.1152 a 35.0035,35.0035 0 0 0 -0,0 c -22.5714,-11.844 -42.4109,-29.986 -56.877,-51.5938 -24.2793,-36.2659 -33.3271,-83.627 -27.082,-128.6152 a 35.0035,35.0035 0 0 0 4.9765,-8.2188 c 15.352,-34.3901 45.3665,-63.2426 80.336,-77.2246 17.4847,-6.991 36.6362,-10.4359 55.7695,-10.3418 z m 888.332,508.1914 c 26.7555,0.3847 52.9568,5.4487 76.0489,15.7715 26.2002,11.7123 48.9773,30.8643 62.709,54.0371 14.4371,24.3634 19.6544,55.2178 14.0839,83.0645 -5.5737,27.8634 -22.2479,54.3859 -44.9609,71.5918 -22.7264,17.2159 -52.7954,26.13 -81.3164,24.1464 -28.5374,-1.9847 -57.1318,-14.9581 -77.5273,-35.1289 -14.8069,-14.6437 -26.0832,-33.5188 -32.3145,-53.791 -6.2416,-20.3059 -7.6346,-42.5319 -4.1797,-63.8828 5.7171,-35.3312 25.6498,-69.0974 53.336,-93.8594 7.5488,-0.9376 15.0909,-1.5662 22.6269,-1.83 3.8374,-0.1344 7.6719,-0.1741 11.4941,-0.1192 z m -828.6132,3.6934 c 13.3724,-0.1426 26.9779,0.1904 40.7031,0.8105 150.8832,6.8176 306.4277,41.8049 465.623,41.5918 -155.4657,84.6442 -304.5327,174.1571 -468.2754,196.6328 -55.7029,7.6459 -111.4265,6.0168 -156.0253,-15.4687 -22.1379,-10.665 -41.4852,-26.3559 -54.4278,-45.2149 -12.8051,-18.6585 -19.6136,-41.5073 -18.1308,-62.4316 1.4056,-19.8371 10.3652,-40.4262 24.2871,-57.0117 14.0624,-16.7531 33.4851,-30.3 55.25,-39.6504 32.8585,-14.1164 70.8788,-18.83 110.9961,-19.2578 z m 757.4843,493.1504 c 39.3227,-1.3528 81.3406,6.8788 123.4864,18.5683 65.7869,18.2466 129.7991,42.8942 190.9511,73.2657 -49.1317,47.1663 -108.2117,84.5086 -172.0058,110.5664 -32.247,13.1718 -64.8935,23.1517 -97.3692,27.1738 -32.3669,4.0088 -64.9212,1.9516 -93.8769,-7.7754 -28.7264,-9.6499 -54.5554,-27.5418 -70.9199,-50.627 -16.122,-22.743 -23.3624,-52.3782 -18.3047,-77.832 4.1661,-20.9671 16.8835,-41.6054 34.3672,-56.8203 17.67,-15.3772 40.689,-26.1702 65.3437,-31.7461 12.4135,-2.8074 25.2206,-4.3225 38.3281,-4.7734 z"
       id="path4140-7-4-0-62-1"
       inkscape:connector-curvature="0" />
    <path
       style="fill:none;fill-rule:evenodd;stroke:#000000;stroke-width:140;stroke-linecap:round;stroke-linejoin:round;stroke-miterlimit:4;stroke-dasharray:none;stroke-opacity:1"
       d="m 780,756 c 3.85743,27.08362 16.94009,52.4687 35.269,72.77765 18.32891,20.30895 41.73341,35.68918 66.88747,46.44443 50.30812,21.5105 106.34471,24.63309 161.04823,25.69802 56.4913,1.09974 114.5188,0.0481 167.0791,-20.68585 26.2802,-10.36701 50.8461,-25.69845 70.1198,-46.35385 19.2736,-20.65539 33.0645,-46.79923 37.0662,-74.7654 4.4179,-30.87447 -3.3085,-62.93067 -19.2458,-89.74022 -15.9374,-26.80955 -39.7465,-48.50374 -66.7421,-64.12375 -53.9914,-31.24004 -118.5422,-38.10796 -180.9167,-38.75593 -62.79424,-0.65233 -127.96124,4.96998 -182.78606,35.5932 -27.41241,15.31161 -51.67294,36.86504 -67.96004,63.70933 C 783.532,692.64192 775.57265,724.91489 780,756 Z"
       id="path4181"
       inkscape:path-effect="#path-effect4183"
       inkscape:original-d="m 780,756 c 5.3904,100.0095 163.0586,143.6122 263.2047,144.9201 102.9098,1.344 274.2651,-45.8051 274.2651,-141.8051 C 1321.4493,618.0156 1160.2795,567.2704 1050.5652,566.4951 940.4581,565.7171 774.0738,646.0497 780,756 Z"
       inkscape:connector-curvature="0"
       sodipodi:nodetypes="aacaa" />
    <path
       style="fill:none;fill-rule:evenodd;stroke:#000000;stroke-width:140;stroke-linecap:round;stroke-linejoin:round;stroke-miterlimit:4;stroke-dasharray:none;stroke-opacity:1"
       d="m 1072.3548,900.8499 c 90.5096,7.40974 182.937,-10.14769 264.425,-50.23 98.812,-48.60359 181.0693,-130.68164 228.4278,-230.09638 47.3584,-99.41474 59.2042,-215.59224 31.3208,-322.12219 C 1567.4445,187.28477 1493.393,86.631926 1390.995,34.599064 1346.389,11.932824 1296.6694,-1.4910727 1246.6388,-0.86526924 1196.6082,-0.23946581 1146.3458,14.866985 1106.2016,44.731716 c -40.1441,29.86473 -69.5136,74.833564 -77.4668,124.231934 -7.9531,49.39838 6.5657,102.62412 40.904,139.01553 25.9713,27.52415 62.5433,44.77442 100.2988,47.34388 37.7556,2.56947 76.3158,-9.56001 105.8227,-33.25445 29.507,-23.69443 49.6727,-58.71276 55.3892,-96.12143 5.7165,-37.40867 -3.065,-76.83912 -24.0879,-108.30533 -18.0199,-26.971409 -44.5312,-47.81952 -74.1806,-60.975663 -29.6495,-13.156143 -62.3388,-18.813935 -94.7752,-18.590987 -64.873,0.445895 -127.3824,23.786962 -186.1649,51.23341 -90.09969,42.06889 -175.00726,94.37066 -263.23452,140.23674 -88.22726,45.86608 -181.12919,85.68187 -279.51599,100.09659 -55.79953,8.17523 -115.01022,7.54683 -165.78477,-16.99634 -25.38727,-12.27158 -48.14499,-30.50865 -64.01968,-53.81315 -15.87468,-23.3045 -24.58664,-51.78216 -22.49205,-79.90187 1.97711,-26.54249 13.48092,-51.97513 30.61932,-72.33902 17.1384,-20.363895 39.70774,-35.800174 64.15921,-46.313905 48.90294,-21.027463 103.83978,-22.475111 157.02097,-20.148619 183.59505,8.031646 367.09308,57.012185 549.0336,31.141439 90.97021,-12.935374 180.88941,-45.678106 250.70241,-105.419665 34.9065,-29.87078 64.4281,-66.27586 84.8727,-107.41889 20.4445,-41.14303 31.6733,-87.05633 30.7708,-132.99013 -1.1965,-60.9017 -23.9871,-120.82504 -61.8657,-168.52887 -37.8787,-47.70384 -90.4231,-83.19796 -148.1456,-102.6545 -46.0032,-15.5063 -95.8059,-20.92555 -143.56761,-12.23297 -47.76166,8.69259 -92.93191,31.85555 -127.09995,66.34152 -34.16805,34.48596 -56.66542,79.63048 -67.18009,127.02435 -10.51468,47.39387 -9.24068,96.50601 -7.17585,145.00832 l 4.9289,115.7788 -1.8049,-81.46078 c -0.94277,-42.55024 -2.34502,-85.33412 -10.90493,-127.02512 -8.55992,-41.69101 -24.293,-82.12088 -48.21675,-117.32125 -23.92374,-35.20038 -55.81354,-64.89453 -92.43728,-86.57661 -36.62375,-21.68209 -77.73417,-35.40388 -119.80535,-41.84029 -73.20571,-11.19964 -150.51822,0.0292 -215.049,36.36495 -64.53079,36.33573 -115.15986,98.50825 -132.6616,170.46793 -13.99063,57.52349 -6.00336,121.19063 26.69967,170.53838 16.35151,24.67388 38.61261,45.51088 64.68254,59.52983 26.06993,14.01895 55.9317,21.11687 85.49149,19.5706 31.58237,-1.65207 62.51012,-13.21062 87.71468,-32.31312 25.20456,-19.1025 44.6314,-45.62897 55.67012,-75.26547 15.41403,-41.38323 14.10005,-88.73069 -3.58541,-129.19535 -17.68546,-40.46467 -51.5424,-73.58892 -92.38424,-90.385 -40.84184,-16.79608 -88.20671,-17.07404 -129.24287,-0.75846 -41.03616,16.31558 -75.27952,49.04019 -93.43868,89.2945"
       id="path4185"
       inkscape:path-effect="#path-effect4187"
       inkscape:original-d="m 1072.3548,900.8499 c 0,0 193.5171,4.73687 264.425,-50.23 C 1497.551,725.9923 1619.083,500.56635 1596.5284,298.40133 1584.1685,187.6159 1480.2305,86.266999 1390.995,34.599064 1269.288,-35.870051 1028.103,261.82763 1069.6388,307.97918 1137.4933,383.37422 1336.8505,214.60204 1307.0616,117.64185 1272.1872,4.128556 1069.0065,69.379826 951.9409,89.30861 756.8868,122.51387 606.68499,341.66633 409.19039,329.64194 311.41029,323.68863 155.19529,276.87701 156.89389,178.93058 158.55569,83.1043 321.08329,78.98644 408.69339,40.129036 703.63837,-90.68674 1231.6974,34.589127 1324.0729,-274.55821 1356.8059,-384.10379 1228.0518,-536.91408 1114.0616,-545.74158 956.27638,-557.96061 768,-416 769.0381,-219.60036 l 4.9289,115.7788 -1.8049,-81.46078 c -3.69494,-166.76418 -120.81149,-341.85899 -271.36431,-372.76327 -132.10448,-27.11735 -319.74579,74.9052 -347.7106,206.83288 -21.14743,99.76579 76.1193,233.85964 176.8737,249.63881 59.0321,9.24503 176.3487,-51.49075 143.3848,-107.57859 -30.5835,-52.03769 -286.7252,-95.82445 -318.6512,-131.04431"
       inkscape:connector-curvature="0"
       sodipodi:nodetypes="caassaaaaaaaccsaaasc" />
    <path
       style="color:#000000;font-style:normal;font-variant:normal;font-weight:normal;font-stretch:normal;font-size:medium;line-height:normal;font-family:sans-serif;text-indent:0;text-align:start;text-decoration:none;text-decoration-line:none;text-decoration-style:solid;text-decoration-color:#000000;letter-spacing:normal;word-spacing:normal;text-transform:none;direction:ltr;block-progression:tb;writing-mode:lr-tb;baseline-shift:baseline;text-anchor:start;white-space:normal;clip-rule:nonzero;display:inline;overflow:visible;visibility:visible;opacity:1;isolation:auto;mix-blend-mode:normal;color-interpolation:sRGB;color-interpolation-filters:linearRGB;solid-color:#000000;solid-opacity:1;fill:#000000;fill-opacity:1;fill-rule:evenodd;stroke:none;stroke-width:140;stroke-linecap:round;stroke-linejoin:round;stroke-miterlimit:4;stroke-dasharray:none;stroke-dashoffset:0;stroke-opacity:1;color-rendering:auto;image-rendering:auto;shape-rendering:auto;text-rendering:auto;enable-background:accumulate"
       d="M 469.13672 2551.748 C 402.47324 2551.845 335.39434 2567.545 275.4043 2601.3242 C 194.76681 2646.7292 131.71005 2723.1592 109.07031 2816.2441 C 90.830892 2891.2369 100.31853 2973.9111 145.4375 3041.9941 C 167.92517 3075.9273 198.40389 3104.6583 235.31641 3124.5078 C 272.34375 3144.419 314.44145 3154.5886 357.61719 3152.3301 C 403.82794 3149.9128 447.61656 3133.4428 483.95703 3105.9004 C 520.22377 3078.4139 547.29696 3041.2884 562.94336 2999.2812 C 584.90735 2940.3128 583.10301 2875.2786 557.90234 2817.6191 C 533.91063 2762.7256 490.5838 2718.8983 436.26758 2694.1641 C 461.94822 2691.0223 488.34655 2691.1915 514.21094 2695.1484 C 548.31908 2700.3666 580.93728 2711.4502 608.94141 2728.0293 C 636.7847 2744.5132 661.19109 2767.2998 679.14648 2793.7188 C 697.08329 2820.1101 709.73306 2851.8999 716.6875 2885.7715 C 718.85195 2896.3135 720.37017 2907.4441 721.63867 2918.8418 C 721.82758 2935.5441 722.43809 2951.7921 723.10156 2967.377 L 728.03125 3083.1562 A 70.007 70.007 0 0 0 867.94922 3078.627 L 866.14453 2997.168 C 865.54725 2970.2107 864.84771 2941.6821 861.91602 2911.9785 C 861.92772 2883.8556 863.4138 2857.716 868.55273 2834.5527 C 876.53034 2798.5944 893.63768 2765.3367 917.12109 2741.6348 C 940.60936 2717.9279 973.16882 2701.0567 1007.0273 2694.8945 C 1041.3128 2688.6546 1079.5127 2692.3931 1115.7031 2704.5918 C 1161.1917 2719.9246 1202.5968 2748.1838 1231.3867 2784.4414 C 1260.0161 2820.4968 1277.2146 2866.4666 1278.0859 2910.8164 C 1278.7464 2944.4329 1270.3698 2979.5766 1254.6152 3011.2812 C 1238.798 3043.1123 1215.291 3072.3862 1186.918 3096.666 C 1130.065 3145.3172 1052.9085 3174.4441 971.87305 3185.9668 C 808.61869 3209.1805 629.72679 3162.681 435.75195 3154.1953 C 379.20118 3151.7214 313.33051 3151.889 248.02148 3179.9707 C 215.08828 3194.1314 183.36886 3215.3232 157.95703 3245.5176 C 132.26677 3276.0428 114.31309 3314.4325 111.08789 3357.7305 C 107.66516 3403.6801 121.42934 3446.8551 145.5332 3482.2402 C 169.36618 3517.2277 201.84603 3542.7057 236.94141 3559.6699 C 306.49245 3593.2891 380.00166 3592.1817 443.33789 3582.9023 C 553.76433 3566.7237 653.63369 3523.1492 744.99414 3475.6543 C 828.12036 3432.44 905.32091 3385.7932 982.83984 3347.7285 C 973.48998 3416.3246 993.18394 3487.5148 1042.7266 3540.0195 C 1081.1902 3580.7829 1133.3106 3605.3595 1189.1855 3609.1621 C 1245.0509 3612.9639 1299.9619 3595.6822 1343.5898 3560.6484 C 1387.2103 3525.6207 1415.9013 3475.7823 1424.3457 3420.5215 C 1430.942 3377.3552 1424.5905 3333.7527 1406.7734 3294.5684 C 1477.2699 3339.4366 1530.8586 3416.2582 1552.8105 3500.127 C 1576.3075 3589.8982 1566.213 3690.0275 1526.0117 3774.418 C 1499.7648 3829.5154 1460.3314 3878.9736 1412.6191 3918.2656 C 1411.3579 3881.963 1400.1779 3847.5203 1382.3945 3817.6055 C 1359.2852 3778.7313 1326.4104 3749.4177 1290.5391 3728.6621 C 1219.4631 3687.5368 1142.3033 3681.1942 1075.293 3680.498 C 1007.8181 3679.7971 929.90218 3684.6141 857.64453 3724.9746 C 821.16691 3745.3497 787.63102 3774.4947 763.97266 3813.4883 C 740.02564 3852.9576 727.66685 3900.4958 734.69922 3949.8711 C 740.81104 3992.7831 760.63559 4030.1299 787.30273 4059.6777 C 813.71217 4088.9402 845.73387 4109.5174 878.63672 4123.5859 C 943.97041 4151.521 1009.406 4153.8077 1065.8418 4154.9062 C 1076.7795 4155.1192 1088.0466 4155.299 1099.5859 4155.2734 C 1200.0044 4161.9035 1301.3241 4141.8739 1391.6758 4097.4316 C 1504.6887 4041.8429 1597.9428 3948.9504 1652.4023 3834.6289 C 1706.918 3720.1898 1720.5179 3587.9644 1688.248 3464.6758 C 1654.4161 3335.4192 1569.4543 3218.5676 1446.7051 3156.1934 C 1416.8764 3141.0362 1384.7946 3129.298 1351.3242 3121.8789 C 1361.9103 3106.5621 1371.5826 3090.4978 1379.9883 3073.582 C 1405.1228 3023.0008 1419.2031 2966.3175 1418.0586 2908.0664 C 1416.5369 2830.6128 1388.1552 2756.7369 1341.0273 2697.3848 C 1294.0599 2638.2348 1230.3763 2595.5079 1160.4199 2571.9277 C 1104.6039 2553.1138 1043.1968 2546.013 981.95898 2557.1582 C 920.29491 2568.3813 862.51533 2597.8369 817.66797 2643.1016 C 802.55221 2658.358 789.52531 2675.0354 778.18164 2692.582 C 750.88952 2658.5447 717.67372 2629.7081 680.26367 2607.5605 C 635.0203 2580.7754 585.41898 2564.4163 535.38477 2556.7617 A 70.007 70.007 0 0 0 535.38281 2556.7617 C 513.53224 2553.4188 491.35788 2551.7176 469.13672 2551.75 L 469.13672 2551.748 z M 336.41602 2812.6406 C 349.71958 2812.7186 363.00858 2815.1764 374.75195 2820.0059 C 398.23854 2829.6646 419.44884 2850.4157 429.61914 2873.6855 C 439.7894 2896.9552 440.6121 2926.6161 431.74805 2950.4141 C 425.317 2967.68 413.53691 2983.6077 399.39453 2994.3262 C 385.32589 3004.9888 367.25867 3011.6346 350.30469 3012.5215 C 334.36165 3013.3555 316.73506 3009.3309 301.62305 3001.2051 L 301.62109 3001.2051 C 286.39465 2993.0166 272.35154 2980.0721 262.13672 2964.6582 C 246.15089 2940.5362 238.88879 2907.7018 241.22852 2875.2617 A 70.007 70.007 0 0 0 242.50195 2872.5898 C 252.94466 2849.4409 274.39759 2828.9412 297.99609 2819.5586 C 309.7953 2814.8674 323.11246 2812.5645 336.41602 2812.6426 L 336.41602 2812.6406 z M 1163.2207 3292.0996 L 1163.2227 3292.0996 C 1186.9624 3292.0159 1209.646 3296.2887 1228.4902 3304.6504 C 1247.2202 3312.9613 1263.1992 3326.0733 1272.8574 3340.5293 C 1283.8762 3357.0218 1288.943 3379.8072 1285.9531 3399.373 C 1282.9647 3418.9296 1271.325 3439.1272 1255.9316 3451.4883 C 1240.5461 3463.8431 1218.3368 3470.8208 1198.6914 3469.4844 C 1179.0556 3468.1475 1158.0312 3458.2238 1144.5527 3443.9395 C 1126.8367 3425.1643 1117.274 3392.4983 1121.8477 3364.0898 C 1126.0182 3338.1859 1141.521 3311.456 1163.2207 3292.0996 z M 402.26562 3293.3965 C 411.15962 3293.4181 420.29509 3293.6536 429.63477 3294.0625 C 524.84245 3298.2275 624.57339 3315.6059 728.38477 3325.7168 C 712.34837 3334.4957 696.36154 3343.149 680.41797 3351.4375 C 595.3239 3395.6748 509.39013 3431.7301 423.04297 3444.3809 C 374.78014 3451.4519 329.8672 3449.0901 297.86914 3433.623 C 282.18995 3426.0441 269.15467 3415.0453 261.23828 3403.4238 C 253.59277 3392.2 249.9347 3378.4207 250.70117 3368.1309 C 251.43019 3358.3438 256.4838 3345.8685 265.07031 3335.666 C 273.93529 3325.1326 287.35448 3315.4507 303.32422 3308.584 C 327.69685 3298.1042 358.53995 3293.9504 393.45312 3293.4473 C 396.36256 3293.4053 399.30096 3293.3893 402.26562 3293.3965 z M 1063.0098 3820.4629 C 1066.5951 3820.4439 1070.2058 3820.4545 1073.8379 3820.4922 C 1131.5765 3821.092 1183.517 3828.4852 1220.4238 3849.8398 C 1238.5437 3860.3242 1253.2873 3874.3995 1262.0527 3889.1445 C 1270.5438 3903.4281 1274.0103 3920.379 1272.1758 3933.1992 C 1270.5019 3944.8974 1263.761 3958.8332 1253.2246 3970.125 C 1242.4047 3981.7206 1226.8131 3991.9308 1208.5957 3999.1172 C 1179.3112 4010.6689 1142.8249 4014.5002 1101.7305 4015.0684 A 70.007 70.007 0 0 0 1088.0195 4015.1523 C 1081.6305 4015.1373 1075.1468 4015.0617 1068.5664 4014.9336 C 1015.5952 4013.9024 968.95833 4009.9453 933.67578 3994.8594 C 916.27051 3987.4173 901.48275 3977.2344 891.23438 3965.8789 C 881.2437 3954.809 874.90382 3941.3841 873.30078 3930.1289 C 871.47845 3917.334 875.03883 3900.3267 883.66602 3886.1074 C 892.58185 3871.4124 907.56687 3857.4493 925.91406 3847.2012 C 960.96906 3827.6206 1009.2299 3820.748 1063.0098 3820.4629 z "
       transform="translate(0,-1048)"
       id="path4181-4" />
  </g>
</svg>
