<?xml version="1.0" encoding="UTF-8" standalone="no"?>
<!-- Created with Inkscape (http://www.inkscape.org/) -->

<svg
   xmlns:dc="http://purl.org/dc/elements/1.1/"
   xmlns:cc="http://creativecommons.org/ns#"
   xmlns:rdf="http://www.w3.org/1999/02/22-rdf-syntax-ns#"
   xmlns:svg="http://www.w3.org/2000/svg"
   xmlns="http://www.w3.org/2000/svg"
   xmlns:sodipodi="http://sodipodi.sourceforge.net/DTD/sodipodi-0.dtd"
   xmlns:inkscape="http://www.inkscape.org/namespaces/inkscape"
   width="2000"
   height="2048"
   id="svg2992"
   version="1.1"
   inkscape:version="0.91pre2 r13516"
   sodipodi:docname="ജു.svg">
  <defs
     id="defs5498">
    <inkscape:path-effect
       is_visible="true"
       id="path-effect4142"
       effect="spiro" />
    <inkscape:path-effect
       is_visible="true"
       id="path-effect4142-0"
       effect="spiro" />
    <inkscape:path-effect
       is_visible="true"
       id="path-effect4142-0-1"
       effect="spiro" />
    <inkscape:path-effect
       is_visible="true"
       id="path-effect4142-0-1-0"
       effect="spiro" />
    <inkscape:path-effect
       is_visible="true"
       id="path-effect4142-5"
       effect="spiro" />
    <inkscape:path-effect
       is_visible="true"
       id="path-effect4142-0-0"
       effect="spiro" />
    <inkscape:path-effect
       is_visible="true"
       id="path-effect4142-0-1-9"
       effect="spiro" />
    <inkscape:path-effect
       is_visible="true"
       id="path-effect4142-0-1-0-0"
       effect="spiro" />
    <inkscape:path-effect
       is_visible="true"
       id="path-effect4142-0-1-0-0-7"
       effect="spiro" />
  </defs>
  <sodipodi:namedview
     inkscape:window-height="853"
     inkscape:window-width="1600"
     inkscape:pageshadow="2"
     inkscape:pageopacity="0.0"
     borderopacity="1.0"
     bordercolor="#666666"
     pagecolor="#ffffff"
     id="base"
     showgrid="false"
     showguides="true"
     inkscape:guide-bbox="true"
     inkscape:zoom="0.32102648"
     inkscape:cx="1491.7711"
     inkscape:cy="632.22846"
     inkscape:window-x="1598"
     inkscape:window-y="-3"
     inkscape:current-layer="layer1-3"
     inkscape:window-maximized="1">
    <sodipodi:guide
       orientation="horizontal"
       position="0,600"
       id="guide5596" />
    <inkscape:grid
       type="xygrid"
       id="grid3769"
       empspacing="3"
       visible="true"
       enabled="true"
       snapvisiblegridlinesonly="true"
       spacingx="4px"
       units="px"
       dotted="true"
       spacingy="4px" />
    <sodipodi:guide
       orientation="0,1"
       position="-1040,1600"
       id="guide2985" />
  </sodipodi:namedview>
  <metadata
     id="metadata5594">
    <rdf:RDF>
      <cc:Work
         rdf:about="">
        <dc:format>image/svg+xml</dc:format>
        <dc:type
           rdf:resource="http://purl.org/dc/dcmitype/StillImage" />
        <dc:title />
      </cc:Work>
    </rdf:RDF>
  </metadata>
  <g
     inkscape:label="Layer 1"
     inkscape:groupmode="layer"
     id="layer1"
     transform="translate(0,1048)">
    <g
       id="layer1-3"
       inkscape:label="Layer 1"
       transform="translate(483.40182,-1318.2819)">
      <path
         sodipodi:nodetypes="cscscscccsssssssssssc"
         inkscape:connector-curvature="0"
         inkscape:original-d="m -344.24376,956.48487 c 34.1539,37.67753 308.169302,84.51973 340.8869016,140.18863 35.2642004,60.0017 -51.5912996,137.1615 -83.4103996,144.3762 -62.722902,14.5372 -253.647102,-92.0771 -274.770902,-146.8291 C -414.60865,956.66489 -89.254558,743.80472 97.656042,758.07687 194.64114,768.61386 330.26074,916.3797 333.33424,1013.4182 l 4.0704,191.6572 -5.2728,-189.8579 c 12.6525,-176.45241 254.30167,-321.63125 340.59177,-250.20803 62.723,58.14884 265.3725,145.39664 234.0111,261.69433 -31.3614,116.2976 -791.08647,278.4975 -979.255268,336.6463 -188.168702,58.1489 -332.093222,61.2639 -269.370302,148.4872 62.7229,87.2233 144.4561,248.4514 269.901902,161.2281 76.4166996,-53.133 358.248498,-211.3663 580.624068,-248.5457 142.6768,-23.8544 330.8721,-46.4285 379.9012,21.7521 125.44579,174.4466 90.98564,290.8425 -253.9903,203.6192 -265.26819,-67.0701 -31.18795,-180.1563 51.31644,-276.6162 336.11225,-392.96526 920.45805,345.9406 309.69808,506.3691 -42.63016,11.1977 -440.80038,278.4966 -515.92894,289.4154 -31.13119,4.5244 206.95383,0.8495 352.20741,-1.9242 l 453.2197,-8.6544"
         inkscape:path-effect="#path-effect4142-0-1-0-0"
         id="path4140-7-4-0"
         d="m -344.24376,956.48487 c 26.77537,-29.81091 62.92634,-51.07513 101.99165,-59.99211 39.06531,-8.91699 80.86251,-5.44508 117.92118,9.79518 37.05868,15.24026 69.205754,42.1777 90.695584,75.99778 21.48983,33.82008 32.2220485,74.36488 30.2784876,114.38778 -1.403787,28.9076 -9.3577756,57.5529 -23.6430866,82.7233 -14.285311,25.1704 -34.933445,46.7903 -59.767313,61.6529 -26.207052,15.6845 -56.859382,23.685 -87.400202,23.4203 -30.54082,-0.2646 -60.89752,-8.7251 -87.48096,-23.7628 -53.16689,-30.0753 -89.60242,-86.2752 -99.88974,-146.4866 -9.26792,-54.245 1.71433,-111.18255 27.55132,-159.77123 25.83699,-48.58867 66.02716,-88.9248 112.78914,-117.93732 93.52397,-58.02504 209.394502,-69.93791 318.853742,-58.43518 32.575078,3.42321 65.165638,8.89663 95.882808,20.2681 30.71716,11.37146 59.39585,28.88348 81.96117,52.62501 22.56533,23.74153 38.53578,53.44704 47.18651,85.03848 8.65073,31.59144 9.95223,64.66267 10.64771,97.40974 l 4.0704,191.6572 -5.2728,-189.8579 c 9.74675,-78.24025 52.87974,-151.76012 116.42152,-198.43965 63.54178,-46.67953 146.59457,-65.85919 224.17025,-51.76838 62.0718,11.27469 120.23385,43.45008 162.40714,90.36959 42.1733,46.91951 68.021,108.33911 71.60396,171.32474 2.81119,49.4185 -7.85317,99.3035 -28.87562,144.1158 -21.02245,44.8123 -52.23718,84.5838 -89.50268,117.1625 -74.53099,65.1573 -171.61631,100.5428 -269.69903,113.9641 -196.16543,26.8424 -393.41591,-29.0269 -591.177938,-38.5961 -56.944052,-2.7554 -115.812372,-1.3067 -168.179672,21.2296 -26.18366,11.2681 -50.33743,27.8372 -68.64266,49.6883 -18.30523,21.8512 -30.54173,49.1347 -32.54797,77.5693 -2.11966,30.0422 7.29502,60.4193 24.32197,85.2609 17.02695,24.8417 41.36838,44.2639 68.49387,57.3496 54.25097,26.1712 117.43174,26.9522 177.086062,18.6176 104.773393,-14.6384 204.176298,-55.3786 298.794418,-102.6983 94.61812,-47.3198 185.7533,-101.5633 281.82965,-145.8474 62.39017,-28.7573 128.32876,-53.5815 197.00308,-55.4124 34.33715,-0.9155 69.03959,4.0687 100.97006,16.7306 31.93047,12.6619 61.01139,33.1874 81.92806,60.4339 26.05881,33.9448 38.60184,78.0528 33.97036,120.5953 -4.63149,42.5424 -26.46467,83.0224 -59.68168,110.0027 -33.21702,26.9803 -77.45553,40.0583 -119.96636,35.1453 -42.51083,-4.9131 -82.70558,-27.8373 -108.31262,-62.1241 -30.79514,-41.2335 -39.36707,-96.7842 -28.02786,-146.9835 11.33921,-50.1992 41.22425,-95.0581 79.3443,-129.6327 67.2759,-61.0188 161.81525,-91.0109 251.86572,-79.1681 90.05043,11.8428 173.87143,65.5344 221.63033,142.79 47.7588,77.2556 58.2569,176.6122 26.9788,261.8824 -31.2781,85.2703 -103.8756,154.4542 -190.77677,180.8648 -61.73363,18.7618 -127.68424,16.5735 -192.07521,12.4686 -64.39097,-4.1048 -129.59877,-9.9094 -192.99913,2.0673 -31.70017,5.9883 -62.74909,16.4897 -90.41462,33.0843 -27.66553,16.5945 -51.87977,39.4514 -68.03945,67.3732 -16.15967,27.9218 -23.9542,61.0141 -19.66083,92.988 4.29338,31.9739 21.13429,62.508 47.2603,81.434 24.23205,17.554 54.805,24.4921 84.71512,25.3405 29.91011,0.8484 59.67882,-3.861 89.17154,-8.9122 58.98543,-10.1024 118.48737,-17.21 178.32075,-18.3525 l 453.2197,-8.6544"
         style="fill:none;fill-rule:evenodd;stroke:#000000;stroke-width:139.69628906;stroke-linecap:round;stroke-linejoin:round;stroke-miterlimit:4;stroke-dasharray:none;stroke-opacity:1" />
      <path
         style="color:#000000;font-style:normal;font-variant:normal;font-weight:normal;font-stretch:normal;font-size:medium;line-height:normal;font-family:sans-serif;text-indent:0;text-align:start;text-decoration:none;text-decoration-line:none;text-decoration-style:solid;text-decoration-color:#000000;letter-spacing:normal;word-spacing:normal;text-transform:none;direction:ltr;block-progression:tb;writing-mode:lr-tb;baseline-shift:baseline;text-anchor:start;clip-rule:nonzero;display:inline;overflow:visible;visibility:visible;opacity:1;isolation:auto;mix-blend-mode:normal;color-interpolation:sRGB;color-interpolation-filters:linearRGB;solid-color:#000000;solid-opacity:1;fill:#000000;fill-opacity:1;fill-rule:evenodd;stroke:none;stroke-width:139.69628906;stroke-linecap:round;stroke-linejoin:round;stroke-miterlimit:4;stroke-dasharray:none;stroke-dashoffset:0;stroke-opacity:1;color-rendering:auto;image-rendering:auto;shape-rendering:auto;text-rendering:auto;enable-background:accumulate"
         d="m 2050.5957,693.44727 c -92.6838,1.24869 -187.6759,20.84997 -271.5605,72.89453 -56.1717,34.85055 -105.2259,83.54661 -137.6368,144.49804 -4.2783,8.04575 -8.2219,16.28006 -11.8515,24.66016 a 69.855129,69.855129 0 0 0 -3.4375,8.28711 c -21.4559,53.36213 -29.4975,112.52259 -19.4414,171.38089 13.6831,80.0869 60.6293,153.8157 134.3496,195.5175 11.0846,6.2704 22.6649,11.6044 34.5566,16.1602 -2.2765,0.9154 -4.5536,1.779 -6.8281,2.7578 -34.6937,14.9306 -68.0095,37.2811 -94.5762,68.9942 -26.8449,32.0449 -45.4909,72.3119 -48.6797,117.5078 -3.3743,47.8242 11.1334,92.8254 36.3848,129.666 l -0,0 c 24.9793,36.4439 59.0023,63.0371 95.7598,80.7695 72.8756,35.1559 150.1596,34.2373 217.0996,24.8848 116.3665,-16.2581 222.5958,-60.5047 320.3731,-109.4043 97.6693,-48.8457 188.1902,-102.6483 279.8242,-144.8848 0.1568,-0.072 0.3119,-0.1368 0.4687,-0.209 -15.3722,68.3216 -4.7824,143.6573 40.2422,203.9434 37.6444,50.4041 94.1175,82.5314 156.2559,89.7129 62.0438,7.1704 123.8229,-11.164 172.0234,-50.3145 48.1294,-39.0929 78.4104,-95.3778 85.0821,-156.6601 6.6621,-61.195 -10.7406,-122.1475 -48.004,-170.6875 -12.312,-16.0379 -26.3918,-30.0266 -41.6074,-42.2383 8.831,0.1105 17.6141,0.7168 26.2871,1.8574 68.547,9.0148 135.1771,51.7921 171.3262,110.2676 36.0818,58.3666 44.3114,137.0425 20.8145,201.0996 -23.4511,63.9322 -80.726,118.4005 -145.5118,138.0898 -47.0455,14.2979 -104.3785,13.6044 -167.3203,9.5918 -63.2066,-4.0293 -134.3792,-11.2236 -210.4082,3.1387 -38.1614,7.2089 -77.0914,20.0541 -113.3789,41.8203 -36.5102,21.9 -69.5301,52.4832 -92.5644,92.2832 a 69.855129,69.855129 0 0 0 0,0 c -23.2667,40.202 -35.057,87.9438 -28.4336,137.2695 6.719,50.0384 32.0278,97.2062 75.5097,128.7051 39.755,28.799 84.3628,37.4776 123.7129,38.5937 38.5462,1.0934 72.8605,-4.7328 102.9414,-9.8847 56.655,-9.7032 112.6747,-16.3095 167.8633,-17.3633 l 453.2207,-8.6543 a 69.855129,69.855129 0 1 0 -2.668,-139.6719 l -453.2187,8.6543 c -64.4782,1.2312 -127.4632,8.8404 -188.7793,19.3418 -28.9045,4.9505 -54.1261,8.5429 -75.4004,7.9395 -20.47,-0.5807 -37.0095,-5.7769 -45.7187,-12.086 -8.7701,-6.3531 -17.1421,-20.2546 -19.0098,-34.164 -1.9634,-14.6222 1.8362,-33.0635 10.8887,-48.7051 9.2851,-16.0433 24.6929,-31.1737 43.5136,-42.4629 19.0435,-11.4228 42.2123,-19.5799 67.4512,-24.3477 50.7719,-9.591 110.0145,-5.1763 175.5899,-0.996 65.8399,4.1972 140.4084,7.88 216.83,-15.3458 109.0167,-33.1318 196.9359,-117.0321 236.0411,-223.6406 39.0594,-106.4833 26.2953,-226.5192 -33.1407,-322.664 -59.3685,-96.0357 -160.3815,-160.6437 -271.9355,-175.3145 -5.7637,-0.758 -11.5345,-1.2951 -17.3047,-1.7832 4.0592,-7.3938 7.9555,-14.8971 11.5625,-22.5859 a 69.855129,69.855129 0 0 0 0,0 c 25.6299,-54.6338 38.9065,-115.6685 35.375,-177.7481 -4.5185,-79.43191 -36.4455,-155.14506 -89.3925,-214.05076 -52.9039,-58.8577 -124.3576,-98.32088 -201.8711,-112.40039 -97.1663,-17.64923 -198.4176,5.73341 -278.0059,64.20117 -20.914,15.364 -39.9056,32.92763 -56.8476,52.18164 -7.2903,-10.4132 -15.2973,-20.4257 -24.2247,-29.81836 -31.1085,-32.73008 -69.0015,-55.44484 -108.3398,-70.00781 -38.9586,-14.42242 -77.3783,-20.50455 -112.834,-24.23047 -29.8849,-3.14051 -60.5214,-4.76389 -91.416,-4.34765 z m 2.541,139.86132 c 24.5392,-0.39557 49.4307,0.80712 74.2754,3.41797 29.6946,3.1205 56.4578,7.98419 78.9336,16.30469 22.0961,8.17995 41.56,20.48924 55.582,35.24219 13.8595,14.58189 24.6344,34.13711 30.4473,55.36523 5.1716,18.88623 7.0045,42.60189 7.8418,69.86913 -0.099,0.7558 -0.2456,1.501 -0.3398,2.2578 a 69.855129,69.855129 0 0 0 -0.5098,10.5742 l 5.2617,189.4024 0.012,0.4551 a 69.855129,69.855129 0 0 0 139.6524,-3.4219 l -0.01,-0.4551 -4.0469,-190.5351 c 9.9422,-54.51356 42.2822,-106.88322 86.7266,-139.53325 47.4951,-34.89127 112.3488,-49.86833 170.334,-39.33593 46.6301,8.46986 91.5006,33.35854 122.9433,68.33984 31.3996,34.9333 51.169,82.05835 53.8164,128.59764 2.091,36.7574 -5.962,75.4936 -22.3769,110.4844 -16.4804,35.1302 -41.6287,67.4823 -72.2383,94.2422 -61.3366,53.6224 -145.3191,85.3208 -233.1973,97.3457 -169.3174,23.1686 -352.9694,-24.4681 -551.1738,-37.5059 31.6535,-20.9643 57.3683,-49.006 75.7324,-81.3633 20.0203,-35.2753 30.7468,-74.3703 32.6621,-113.8125 2.6587,-54.7483 -11.6935,-108.9712 -41.0898,-155.23433 -29.3964,-46.26324 -72.3906,-82.28928 -123.084,-103.13672 -1.2473,-0.51295 -2.5336,-0.89536 -3.7871,-1.38867 37.0132,-10.3589 76.8124,-15.51776 117.6328,-16.17579 z m -214.1269,137.43946 c 16.2009,0.14459 32.5103,3.3016 47.1504,9.32226 23.424,9.63306 44.7253,27.48249 58.3086,48.85939 13.5833,21.377 20.6933,48.2415 19.4648,73.5391 -0.8922,18.373 -6.0727,36.5692 -14.6231,51.6347 -8.4989,14.9749 -21.0292,27.8996 -34.8906,36.1953 -14.5949,8.7349 -32.9869,13.6653 -50.9258,13.5098 -18.0435,-0.1563 -37.174,-5.3672 -53.6953,-14.7129 -32.6135,-18.4487 -58.5382,-57.1192 -65.4297,-97.4551 -4.7578,-27.8475 -1.6587,-58.4458 8.1875,-87.1113 16.1066,-14.88603 36.6601,-25.93253 57.7911,-30.75586 9.2596,-2.11359 18.9415,-3.11215 28.6621,-3.02539 z m 83.2168,470.72855 c 12.5617,-0.1362 25.573,0.1777 38.9336,0.8242 108.6202,5.2558 222.322,27.1212 340.746,38.7969 -23.197,12.3721 -46.2497,24.4611 -69.2871,35.9824 -91.4589,45.7397 -184.0364,82.9735 -277.2168,95.9922 -52.3685,7.3166 -101.4458,4.8349 -137.0722,-12.3516 -17.4933,-8.439 -32.154,-20.6883 -41.2285,-33.9277 a 69.855129,69.855129 0 0 0 0,-0 c -8.8026,-12.8426 -13.1268,-28.5933 -12.2618,-40.8535 a 69.855129,69.855129 0 0 0 0,-0 c 0.8237,-11.6735 6.6504,-25.9734 16.4161,-37.6308 a 69.855129,69.855129 0 0 0 0,0 c 10.0437,-11.9894 25.0355,-22.777 42.709,-30.3828 26.93,-11.5894 60.5745,-16.0369 98.2598,-16.4453 z m 833.5488,6.8359 c 22.2666,0.5437 43.6032,4.2869 62.1426,11.6387 21.3951,8.4841 40.0773,22.1552 52.2695,38.0371 14.8543,19.3495 22.5383,46.6121 19.9375,70.5019 -2.5913,23.8027 -15.9766,48.4779 -34.2812,63.3457 -18.2337,14.8102 -44.9324,22.6322 -67.9102,19.9766 -22.8827,-2.6446 -46.7972,-16.3643 -60.3672,-34.5332 l 0,-0 c -16.5156,-22.1147 -23.0914,-57.7802 -15.8594,-89.7968 6.2292,-27.5768 22.1034,-55.3099 44.0684,-79.168 z"
         id="path4140-7-4-0-7"
         inkscape:connector-curvature="0" />
    </g>
  </g>
</svg>
