<?xml version="1.0" encoding="UTF-8" standalone="no"?>
<!-- Created with Inkscape (http://www.inkscape.org/) -->

<svg
   xmlns:dc="http://purl.org/dc/elements/1.1/"
   xmlns:cc="http://creativecommons.org/ns#"
   xmlns:rdf="http://www.w3.org/1999/02/22-rdf-syntax-ns#"
   xmlns:svg="http://www.w3.org/2000/svg"
   xmlns="http://www.w3.org/2000/svg"
   xmlns:sodipodi="http://sodipodi.sourceforge.net/DTD/sodipodi-0.dtd"
   xmlns:inkscape="http://www.inkscape.org/namespaces/inkscape"
   width="2000"
   height="2048"
   id="svg2992"
   version="1.1"
   inkscape:version="0.91pre3 r13670"
   sodipodi:docname="ജ്ര.svg">
  <defs
     id="defs5498">
    <inkscape:path-effect
       effect="spiro"
       id="path-effect4142-0-1-0"
       is_visible="true" />
    <inkscape:path-effect
       effect="spiro"
       id="path-effect4142-0-1-0-6"
       is_visible="true" />
  </defs>
  <sodipodi:namedview
     inkscape:window-height="853"
     inkscape:window-width="1600"
     inkscape:pageshadow="2"
     inkscape:pageopacity="0.0"
     borderopacity="1.0"
     bordercolor="#666666"
     pagecolor="#ffffff"
     id="base"
     showgrid="true"
     showguides="true"
     inkscape:guide-bbox="true"
     inkscape:zoom="0.32102648"
     inkscape:cx="1276.7675"
     inkscape:cy="160.73582"
     inkscape:window-x="1598"
     inkscape:window-y="-3"
     inkscape:current-layer="layer1-1"
     inkscape:window-maximized="1">
    <sodipodi:guide
       orientation="horizontal"
       position="0,600"
       id="guide5596" />
    <inkscape:grid
       type="xygrid"
       id="grid3769"
       empspacing="3"
       visible="true"
       enabled="true"
       snapvisiblegridlinesonly="true"
       spacingx="4px"
       units="px"
       dotted="true"
       spacingy="4px" />
    <sodipodi:guide
       orientation="0,1"
       position="-1040,1600"
       id="guide2985" />
  </sodipodi:namedview>
  <metadata
     id="metadata5594">
    <rdf:RDF>
      <cc:Work
         rdf:about="">
        <dc:format>image/svg+xml</dc:format>
        <dc:type
           rdf:resource="http://purl.org/dc/dcmitype/StillImage" />
        <dc:title />
      </cc:Work>
    </rdf:RDF>
  </metadata>
  <g
     inkscape:label="Layer 1"
     inkscape:groupmode="layer"
     id="layer1"
     transform="translate(0,1048)">
    <g
       id="layer1-1"
       inkscape:label="Layer 1"
       transform="translate(-152.86209,6.172781)">
      <path
         style="color:#000000;font-style:normal;font-variant:normal;font-weight:normal;font-stretch:normal;font-size:medium;line-height:normal;font-family:sans-serif;text-indent:0;text-align:start;text-decoration:none;text-decoration-line:none;text-decoration-style:solid;text-decoration-color:#000000;letter-spacing:normal;word-spacing:normal;text-transform:none;direction:ltr;block-progression:tb;writing-mode:lr-tb;baseline-shift:baseline;text-anchor:start;white-space:normal;clip-rule:nonzero;display:inline;overflow:visible;visibility:visible;opacity:1;isolation:auto;mix-blend-mode:normal;color-interpolation:sRGB;color-interpolation-filters:linearRGB;solid-color:#000000;solid-opacity:1;fill:#000000;fill-opacity:1;fill-rule:evenodd;stroke:none;stroke-width:140;stroke-linecap:round;stroke-linejoin:round;stroke-miterlimit:4;stroke-dasharray:none;stroke-dashoffset:0;stroke-opacity:1;color-rendering:auto;image-rendering:auto;shape-rendering:auto;text-rendering:auto;enable-background:accumulate"
         d="m 651.44727,-615.54883 c -64.30779,0.13512 -129.50883,13.59021 -189.14258,44.41992 -80.3886,41.55965 -146.2255,113.75155 -171.42969,205.41016 -20.89989,76.00541 -11.52977,160.27384 34.44141,228.92969 22.87465,34.16227 53.87923,62.812953 91.19336,82.390622 37.41301,19.629545 79.74214,29.346176 122.93164,26.751954 45.87933,-2.75579 89.38162,-19.207479 125.58984,-46.601563 36.14849,-27.348903 63.29676,-64.262713 79.09375,-106.150393 22.26303,-59.03319 20.65277,-124.25642 -4.49609,-182.11914 -20.61574,-47.43286 -55.65313,-86.65027 -99.75196,-112.47461 18.89206,-0.79058 38.0365,-0.10516 57.06641,2.40039 31.6063,4.16142 61.34649,12.49609 86.88867,25.39844 25.30176,12.78092 47.71303,30.9054 64.25977,52.23633 16.48875,21.25616 28.63389,47.74961 35.42773,76.25195 3.89436,16.33812 6.10421,34.49962 7.58789,53.93555 -0.65934,16.09959 -0.2803,32.29187 1.28906,48.49609 l 4.91602,115.48242 a 70.007,70.007 0 0 0 139.9004,-5.24414 l -3.8047,-117.46093 c -0.4326,-13.35543 -1.0587,-27.39948 -1.9316,-41.72657 4.6049,-56.607 31.9422,-113.39015 74.0839,-149.99804 51.6517,-44.86914 130.2096,-63.51024 196.5137,-46.63086 43.3065,11.02474 83.9238,36.65196 111.8262,70.78711 27.8375,34.05577 44.532,78.69722 45.4726,122.07617 0.7289,33.60936 -7.5929,68.77054 -23.3085,100.49219 -15.7786,31.84846 -39.265,61.14358 -67.627,85.439449 -56.8317,48.684033 -134.0142,77.8204466 -215.0723,89.3183598 C 990.06042,29.426142 811.11954,-17.246658 617.04102,-25.75 560.4828,-28.228038 494.60935,-28.051901 429.30664,0.03320312 396.37707,14.19541 364.66165,35.385317 339.25195,65.574219 313.56418,96.093512 295.6089,134.47371 292.37109,177.76172 c -3.4369,45.94988 10.31131,89.13588 34.40625,124.53516 23.82464,35.00215 56.30589,60.49512 91.41016,77.4707 69.56994,33.64234 143.1218,32.52589 206.5,23.17773 110.46317,-16.29309 210.22901,-60.10712 301.48047,-107.65234 86.06853,-44.84474 165.80263,-93.20582 246.18753,-131.57227 -2.3637,11.44131 -4.0922,23.07288 -4.7071,34.94336 -2.9893,57.71096 15.7205,114.95463 54.5489,159.41406 37.7422,43.21585 90.4897,69.66619 147.4785,74.35743 56.9422,4.6874 113.0252,-12.74761 157.3183,-48.52735 21.0184,-16.97854 38.3848,-37.4667 51.8086,-60.23047 -2.7318,33.12296 -11.2292,66.76891 -25.0254,98.41211 -25.6824,58.90591 -68.4882,113.04073 -119.664,161.13868 C 1261.1577,745.78204 1007.0468,822.26002 771.24023,787.03516 535.09788,751.76012 315.14525,606.21953 185.36328,404.51953 99.007959,270.31083 50.120071,111.22625 46.201172,-48.316406 42.282274,-207.85906 83.300962,-369.15283 162.96289,-507.43945 A 70.007,70.007 0 1 0 41.652344,-577.32227 C -51.064646,-416.37311 -98.318943,-230.56753 -93.757812,-44.878906 -89.196681,140.80972 -32.87644,324.07051 67.630859,480.27344 219.51275,716.31992 471.87648,883.8687 750.55664,925.49805 c 279.01596,41.67949 573.08796,-46.31674 779.43556,-240.25391 60.78,-57.12458 116.3974,-125.27073 152.1191,-207.20312 36.0004,-82.57147 50.2839,-178.14446 25.9903,-270.8086 -12.1483,-46.33724 -33.7499,-90.68167 -65.1328,-128.820311 -31.4651,-38.238288 -72.0726,-69.2854982 -119.3418,-88.416015 -7.2904,-2.950501 -14.7351,-5.490519 -22.2461,-7.828125 23.559,-26.449518 44.0366,-56.027875 60.1308,-88.513669 25.0899,-50.64327 39.0921,-107.38984 37.8281,-165.67774 -1.6485,-76.02161 -29.2984,-149.23266 -77.0449,-207.64453 -47.6816,-58.33247 -113.2509,-99.41837 -185.6816,-117.85742 -112.9995,-28.76688 -234.8352,0.14445 -322.8633,76.61328 -17.60911,15.29677 -33.43847,32.25788 -47.5293,50.43945 -2.45979,-3.45352 -4.89209,-6.92096 -7.50781,-10.29296 -30.25394,-39.00132 -68.90511,-69.74404 -111.75781,-91.39063 -42.61229,-21.52513 -87.63969,-33.43038 -131.73633,-39.23633 -20.99804,-2.76469 -42.33556,-4.20129 -63.77148,-4.15625 z m -133.58594,247.61719 c 13.33699,0.0647 26.66359,2.52095 38.43359,7.36133 23.53999,9.68075 44.79179,30.51407 54.9375,53.85742 10.14572,23.34334 10.87993,53.09656 1.89844,76.91211 -6.49625,17.22562 -18.33437,33.13527 -32.56836,43.9043 -14.17426,10.72383 -32.33134,17.46976 -49.51562,18.50195 -16.26763,0.97713 -34.15998,-2.93219 -49.49219,-10.97656 -15.43108,-8.09625 -29.6425,-20.97918 -39.90821,-36.31055 -15.86703,-23.69669 -22.95199,-56.1642 -20.25976,-87.77148 a 70.007,70.007 0 0 0 2.51562,-5.16602 c 10.37156,-23.2439 31.82431,-43.87215 55.45704,-53.32422 11.81636,-4.72603 25.16496,-7.05293 38.50195,-6.98828 z M 574.74023,113.5 c 11.63558,-0.16783 23.72195,0.0697 36.17188,0.61523 94.90714,4.15826 194.31394,21.48908 297.7832,31.67383 -15.78872,8.64551 -31.52633,17.17238 -47.21679,25.34766 -85.10281,44.34156 -170.95364,80.58271 -257.21875,93.30664 -48.22605,7.11324 -93.13467,4.75686 -125.125,-10.71289 -15.67586,-7.58046 -28.709,-18.582 -36.62305,-30.20899 -7.64374,-11.22986 -11.29962,-25.01754 -10.5293,-35.3164 0.73254,-9.79369 5.78926,-22.27132 14.37891,-32.47656 8.86774,-10.53564 22.28798,-20.21771 38.25781,-27.08594 24.37207,-10.48183 55.21438,-14.63908 90.12109,-15.14258 z m 803.97857,2.79688 c 11.0127,2.10765 21.438,5.23935 30.9238,9.39453 18.9005,8.27927 35.0976,21.2954 45.1035,35.7832 11.6247,16.83174 17.1657,40.13678 14.3613,60.20117 -2.7981,20.01995 -14.5133,40.74669 -30.0859,53.32617 -15.5371,12.55079 -38.1488,19.52685 -57.8594,17.9043 -19.6642,-1.61872 -40.6672,-12.20597 -53.5176,-26.91992 -13.2896,-15.21701 -21.2928,-38.66599 -20.1836,-60.08008 1.1237,-21.69259 11.4269,-45.23008 27.3106,-61.83398 11.5562,-12.08019 27.0768,-21.80424 43.9473,-27.77539 z"
         id="path4140-7-4-0"
         inkscape:connector-curvature="0" />
      <path
         style="fill:none;fill-rule:evenodd;stroke:#000000;stroke-width:140;stroke-linecap:round;stroke-linejoin:round;stroke-miterlimit:4;stroke-dasharray:none;stroke-opacity:1"
         d="m 558.50855,1542.7713 c 18.04011,-40.43 52.28148,-73.354 93.38786,-89.7947 41.10638,-16.4408 88.60799,-16.2105 129.55305,0.628 40.94505,16.8385 74.86562,50.0929 92.51291,90.6959 17.64729,40.603 18.81964,88.0907 3.19738,129.5151 -11.14662,29.5566 -30.64106,55.968 -55.8323,75.027 -25.19124,19.0589 -56.02069,30.6576 -87.5525,32.5516 -29.72856,1.7857 -59.8396,-5.0273 -86.21221,-18.8642 -26.3726,-13.837 -48.98069,-34.6038 -65.55087,-59.3506 -33.14037,-49.4936 -40.90335,-113.9915 -25.11062,-171.424 19.22567,-69.9169 71.66846,-128.4865 136.08169,-161.7871 64.41323,-33.3007 139.73732,-42.5113 211.62891,-33.0458 37.85147,4.9837 75.23559,15.1036 109.31285,32.3173 34.0772,17.2138 64.6082,41.6473 88.0086,71.8134 23.4003,30.1662 39.3571,65.7877 48.2093,102.9255 8.8521,37.1377 10.5975,75.549 11.8336,113.7071 l 3.8049,117.4608 -4.9288,-115.7788 c -10.0609,-91.9626 27.4941,-187.8505 97.3341,-248.5195 69.84,-60.669 170.0376,-84.4449 259.6895,-61.6218 57.8686,14.7319 110.9604,48.089 148.7524,94.3228 37.792,46.2338 59.9643,105.1603 61.2589,164.8606 0.9964,45.9486 -10.1651,91.9009 -30.5679,133.0833 -20.4028,41.1825 -49.9073,77.6274 -84.8111,107.5272 -69.8076,59.7995 -159.7723,92.553 -250.7802,105.4623 -182.0157,25.8185 -365.559,-23.3386 -549.22055,-31.3855 -53.17896,-2.33 -108.11367,-0.875 -157.01306,20.1555 -24.4497,10.5152 -47.01713,25.9517 -64.15584,46.3139 -17.13872,20.3623 -28.64542,45.7913 -30.6306,72.3321 -2.10362,28.1244 6.5988,56.6105 22.46814,79.9251 15.86934,23.3146 38.62603,41.5628 64.0161,53.8408 50.78013,24.5561 110.01013,25.1762 165.81226,16.9455 98.36417,-14.5085 191.17295,-54.5367 279.35005,-100.4801 88.1772,-45.9434 173.1149,-98.2062 263.4007,-139.8533 58.756,-27.103 121.23,-49.9354 185.9351,-50.2417 32.3525,-0.1531 64.9357,5.4722 94.5701,18.4534 29.6345,12.9811 56.2299,33.5005 74.6155,60.1216 21.8539,31.643 31.4121,71.5845 26.0888,109.6704 -5.3233,38.0858 -25.5105,73.9244 -55.4256,98.0896 -29.915,24.1653 -69.263,36.3706 -107.5894,33.2157 -38.3265,-3.155 -75.2003,-21.6735 -100.4966,-50.6384 -26.059,-29.8382 -39.4167,-70.1851 -37.3674,-109.7477 2.0494,-39.5625 19.2498,-77.9749 46.6345,-106.6013 26.5517,-27.7557 62.3323,-46.2773 100.131,-53.1053 37.7988,-6.828 77.4412,-2.1053 113.0463,12.3045 35.6051,14.4099 67.1441,38.3472 91.5502,68.0071 24.4061,29.6599 41.7328,64.94 51.4737,102.0948 19.4817,74.3098 8.2564,154.6617 -22.4457,225.0809 -30.7021,70.4191 -79.9139,131.5592 -135.8919,184.1705 -189.6516,178.2454 -463.7426,260.4832 -721.15385,222.031 C 702.01867,2696.7296 465.8601,2540.1851 325.02815,2321.3119 231.59682,2176.1061 178.99269,2004.9328 174.75266,1832.3172 170.51263,1659.7015 214.6492,1486.152 300.83865,1336.5341"
         id="path4140-7-4-0-2"
         inkscape:path-effect="#path-effect4142-0-1-0-6"
         inkscape:original-d="m 558.50855,1542.7713 c 31.926,35.2199 288.0677,79.0066 318.6512,131.0443 32.9639,56.0879 -84.3527,116.8236 -143.3848,107.5786 -100.7544,-15.7792 -199.3102,-150.155 -176.8737,-249.6388 29.2294,-129.6034 217.2919,-220.1777 347.7106,-194.8329 134.56555,26.1507 252.98525,230.1148 257.36435,320.7633 l 3.8049,117.4608 -4.9288,-115.7788 c 14.3471,-178.2047 199.9837,-323.8838 357.0236,-310.1413 110.7726,9.6937 240.6714,152.298 210.0113,259.1834 -88.965,310.146 -620.4346,183.8715 -915.37975,314.6873 -87.6101,38.8574 -250.1377,42.9752 -251.7995,138.8015 -1.6986,97.9464 154.5164,144.7581 252.2965,150.7114 197.49475,12.0244 347.69655,-207.1281 542.75075,-240.3334 117.0656,-19.9288 320.2463,-85.18 355.1207,28.3333 29.7889,96.9602 -152.723,246.1459 -237.4228,190.3373 -53.9484,-35.5466 -62.9018,-214.9511 9.2671,-216.349 196.0137,-3.7967 318.0677,389.7993 197.8636,538.5525 -286.8269,354.95 -1052.11755,149.0196 -1355.55565,-191.8389 -218.3313,-245.2562 -24.1895,-984.7778 -24.1895,-984.7778"
         inkscape:connector-curvature="0"
         sodipodi:nodetypes="csaaasccaaaaaaassaac" />
    </g>
  </g>
</svg>
