<?xml version="1.0" encoding="UTF-8" standalone="no"?>
<!-- Created with Inkscape (http://www.inkscape.org/) -->

<svg
   xmlns:dc="http://purl.org/dc/elements/1.1/"
   xmlns:cc="http://creativecommons.org/ns#"
   xmlns:rdf="http://www.w3.org/1999/02/22-rdf-syntax-ns#"
   xmlns:svg="http://www.w3.org/2000/svg"
   xmlns="http://www.w3.org/2000/svg"
   xmlns:sodipodi="http://sodipodi.sourceforge.net/DTD/sodipodi-0.dtd"
   xmlns:inkscape="http://www.inkscape.org/namespaces/inkscape"
   width="2000"
   height="2048"
   id="svg2992"
   version="1.1"
   inkscape:version="0.91 r13725"
   sodipodi:docname="ജ്ജു.svg">
  <defs
     id="defs5498">
    <inkscape:path-effect
       effect="spiro"
       id="path-effect4142-0-1-0"
       is_visible="true" />
    <inkscape:path-effect
       effect="spiro"
       id="path-effect4142-0-1-0-3"
       is_visible="true" />
    <inkscape:path-effect
       effect="spiro"
       id="path-effect4142-0-1-0-5"
       is_visible="true" />
    <inkscape:path-effect
       effect="spiro"
       id="path-effect4142-0-1-0-6"
       is_visible="true" />
    <inkscape:path-effect
       effect="spiro"
       id="path-effect4142-0-1-0-6-4"
       is_visible="true" />
    <inkscape:path-effect
       effect="spiro"
       id="path-effect4142-0-1-0-4"
       is_visible="true" />
  </defs>
  <sodipodi:namedview
     inkscape:window-height="704"
     inkscape:window-width="1366"
     inkscape:pageshadow="2"
     inkscape:pageopacity="0.0"
     borderopacity="1.0"
     bordercolor="#666666"
     pagecolor="#ffffff"
     id="base"
     showgrid="true"
     showguides="true"
     inkscape:guide-bbox="true"
     inkscape:zoom="0.05675"
     inkscape:cx="-1699.4703"
     inkscape:cy="2970.8693"
     inkscape:window-x="-4"
     inkscape:window-y="0"
     inkscape:current-layer="layer1"
     inkscape:window-maximized="1">
    <sodipodi:guide
       orientation="horizontal"
       position="0,600"
       id="guide5596" />
    <inkscape:grid
       type="xygrid"
       id="grid3769"
       empspacing="3"
       visible="true"
       enabled="true"
       snapvisiblegridlinesonly="true"
       spacingx="4px"
       units="px"
       dotted="true"
       spacingy="4px" />
    <sodipodi:guide
       orientation="0,1"
       position="-1040,1600"
       id="guide2985" />
  </sodipodi:namedview>
  <metadata
     id="metadata5594">
    <rdf:RDF>
      <cc:Work
         rdf:about="">
        <dc:format>image/svg+xml</dc:format>
        <dc:type
           rdf:resource="http://purl.org/dc/dcmitype/StillImage" />
        <dc:title />
      </cc:Work>
    </rdf:RDF>
  </metadata>
  <g
     inkscape:label="Layer 1"
     inkscape:groupmode="layer"
     id="layer1"
     transform="translate(0,1048)">
    <path
       style="fill:none;fill-rule:evenodd;stroke:#000000;stroke-width:140;stroke-linecap:round;stroke-linejoin:round;stroke-miterlimit:4;stroke-dasharray:none;stroke-opacity:1"
       d="m 168.84084,-329.64381 c 18.04011,-40.43004 52.28148,-73.35397 93.38786,-89.79474 41.10638,-16.44078 88.60801,-16.21051 129.55306,0.62802 40.94506,16.83852 74.86563,50.09287 92.51292,90.69591 17.64729,40.60304 18.81963,88.09075 3.19737,129.51512 -11.14662,29.55665 -30.64106,55.968 -55.8323,75.02696 -25.19124,19.05896 -56.02069,30.657637 -87.5525,32.551629 -29.72856,1.785678 -59.83961,-5.027281 -86.21221,-18.864239 -26.37261,-13.83696 -48.9807,-34.60377 -65.55088,-59.35058 -33.14037,-49.49363 -40.90335,-113.99148 -25.11062,-171.42399 19.22568,-69.91688 71.66846,-128.48649 136.0817,-161.78712 64.41323,-33.30064 139.73732,-42.51131 211.62891,-33.04576 37.85147,4.98368 75.23557,15.10359 109.3128,32.31733 34.07724,17.21375 64.60823,41.64729 88.00857,71.8134 23.40035,30.16612 39.35714,65.7877 48.20931,102.92542 8.85216,37.13771 10.59757,75.54899 11.83362,113.70712 l 3.8049,117.460779 -4.9289,-115.778799 c -10.28983,-92.01405 27.19955,-188.0732 97.0971,-248.79221 69.89755,-60.71901 170.25565,-84.40598 259.92635,-61.34901 57.7827,14.85763 110.7286,48.31369 148.4559,94.53317 37.7273,46.21949 59.9386,105.00981 61.5554,164.6502 1.2501,46.11222 -9.6062,92.29956 -29.7338,133.80597 -20.1275,41.506409 -49.39,78.360836 -84.1358,108.702742 C 1154.8581,39.187323 1064.8377,72.932917 973.56766,86.400309 791.0275,113.33509 606.90404,63.594462 422.83975,50.682054 368.97104,46.903077 313.03364,46.621816 263.25657,67.558907 c -24.88853,10.468546 -47.79791,26.293346 -64.67898,47.366063 -16.88106,21.07272 -27.46361,47.55817 -27.53735,74.55862 -0.0744,27.24664 10.54387,53.99558 27.43988,75.37103 16.89601,21.37546 39.79267,37.56901 64.65238,48.72159 49.71942,22.30517 105.74514,24.68326 160.20425,26.61874 225.58197,8.0172 457.03034,13.63572 670.50385,-59.71659 95.1444,-32.69286 185.562,-81.16056 260.8548,-147.88584 75.2929,-66.725281 135.0566,-152.2035 165.1829,-248.19142 18.2598,-58.17896 25.561,-119.37134 44.1101,-177.4587 9.2746,-29.04368 21.4291,-57.36493 38.5178,-82.6143 17.0886,-25.24937 39.2936,-47.39587 66.0353,-62.03953 31.2367,-17.10512 68.1901,-23.40577 103.3946,-18.024 35.2044,5.38177 68.478,22.34907 93.8003,47.39098 25.3223,25.04191 42.6196,57.99653 49.2543,92.98647 6.6346,34.98994 2.6379,71.86567 -10.9553,104.78282 -12.0074,29.07685 -31.5064,55.13204 -56.5095,74.22341 -25.0032,19.09136 -55.4987,31.08607 -86.8753,33.35519 -29.7878,2.15421 -60.0655,-4.46117 -86.5662,-18.23299 -26.5007,-13.77182 -49.1979,-34.59863 -65.7762,-59.44038 -33.1565,-49.6835 -40.6021,-114.43689 -24.5313,-171.96544 19.4971,-69.79359 71.903,-128.23504 136.2528,-161.55748 64.3498,-33.32245 139.6032,-42.66661 211.4578,-33.27542 37.8597,4.94815 75.2533,15.05681 109.3348,32.2699 34.0815,17.21309 64.6112,41.6559 88.0069,71.83008 23.3957,30.17418 39.3454,65.80253 48.1935,102.94484 8.8481,37.1423 10.5928,75.55684 11.829,113.71849 l 3.8049,117.4608 -4.9288,-115.7788 c -10.0605,-91.96254 27.4946,-187.8501 97.3345,-248.51901 69.8398,-60.66891 170.0372,-84.44501 259.689,-61.6223 57.8687,14.73167 110.9608,48.08856 148.7529,94.32241 37.7921,46.23384 59.9644,105.16061 61.2584,164.861 0.9959,45.94833 -10.1661,91.90012 -30.5694,133.08199 -20.4033,41.18186 -49.9083,77.626046 -84.8123,107.525019 -69.8081,59.797945 -159.7727,92.54965 -250.7801,105.457914 -182.0147,25.816528 -365.557,-23.339462 -549.2177,-31.377626 -53.1777,-2.327397 -108.1107,-0.869295 -157.0085,20.16133 -24.449,10.515313 -47.0158,25.951129 -64.155,46.312143 -17.1391,20.36102 -28.6474,45.7881 -30.636,72.32803 -2.1074,28.12602 6.5915,56.61541 22.4589,79.9336 15.8675,23.31819 38.624,41.57026 64.0152,53.8504 50.7823,24.5603 110.0192,25.17697 165.8224,16.9274 98.3565,-14.54035 191.1343,-54.63875 279.2949,-100.60754 88.1607,-45.96878 173.1087,-98.21837 263.4556,-139.725863 58.7475,-26.99001 121.2099,-49.65516 185.8603,-49.915454 32.3251,-0.130147 64.8738,5.48468 94.5033,18.40849 29.6295,12.92381 56.2524,33.335401 74.7571,59.840267 22.1337,31.70273 31.9532,71.81675 26.7615,110.13136 -5.1918,38.31461 -25.3881,74.43055 -55.4431,98.75457 -30.0551,24.32401 -69.6718,36.55359 -108.1908,33.19918 -38.519,-3.35441 -75.4906,-22.30348 -100.5504,-51.74781 -19.7089,-23.15719 -31.9629,-52.32942 -36.0248,-82.46573 -4.0619,-30.1363 -0.072,-61.16178 10.2227,-89.77484 20.5901,-57.226121 65.5857,-103.375302 117.6845,-134.75203323 49.2404,-29.65526677 105.7084,-47.46745077 163.1177,-50.33523777 57.4093,-2.867787 115.6433,9.330687 166.5779,35.971426 50.9345,26.640739 94.3588,67.764593 122.7907,117.721405 28.4319,49.95681 41.6279,108.62797 36.2485,165.85661 -5.6069,59.64981 -31.1769,116.72791 -69.2086,163.02184 -38.0317,46.29392 -88.1328,81.96691 -142.7517,106.59042 -109.2378,49.24702 -232.7637,52.90699 -352.5849,53.9258 l -590.6559,5.0222 c -67.5416,0.57429 -135.6206,-3.59454 -202.3368,6.94744 -33.3582,5.27099 -66.5948,15.39492 -94.1709,34.89127 -13.788,9.74817 -26.0229,21.82742 -35.2134,35.99326 -9.1906,14.16583 -15.2778,30.45861 -16.7221,47.28273 -1.3615,15.85944 1.4205,31.97774 7.3883,46.73449 5.9677,14.75676 15.0719,28.1671 26.1076,39.63832 22.0714,22.94244 51.4219,37.90323 81.9351,46.98346 61.0262,18.16045 126.0075,15.86667 189.6785,15.97893 l 1195.9377,2.1085"
       id="path4140-7-4-0"
       inkscape:path-effect="#path-effect4142-0-1-0"
       inkscape:original-d="m 168.84084,-329.64381 c 31.926,35.21986 288.06771,79.00662 318.65121,131.04431 32.9639,56.08784 -84.3527,116.823624 -143.3848,107.578589 -100.7544,-15.779169 -199.31021,-150.155009 -176.87371,-249.638809 29.2294,-129.60335 217.29191,-220.17773 347.71061,-194.83288 134.5654,26.15071 252.9851,230.11476 257.3643,320.76327 l 3.8049,117.460779 -4.9289,-115.778799 c 14.3471,-178.20465 199.9836,-323.88376 357.02345,-310.14122 110.7726,9.69371 240.6714,152.29793 210.0113,259.18337 -88.965,310.145954 -620.43445,183.871474 -915.37945,314.687254 -87.6101,38.8574 -250.13771,42.97526 -251.79951,138.801536 -1.6986,97.94643 156.80072,128.87248 252.29651,150.71136 218.73892,50.0233 465.51896,31.5536 670.50385,-59.71659 177.1376,-78.87108 312.2538,-239.068951 426.0377,-396.07726 69.3927,-95.75378 32.4381,-300.29816 148.6632,-322.11253 107.1891,-20.1184 204.9104,175.09857 235.4939,227.13627 32.9639,56.0878 -84.3527,116.823627 -143.3848,107.5786 -100.7544,-15.77916 -199.3102,-150.15499 -176.8737,-249.63881 29.2293,-129.60338 217.2919,-220.17777 347.7106,-194.8329 134.5654,26.15073 254.4259,230.05667 257.3642,320.76331 l 3.8049,117.4608 -4.9288,-115.7788 c 14.3471,-178.20471 199.9836,-323.88388 357.0235,-310.14131 110.7726,9.69371 240.6713,152.29797 210.0113,259.18341 -88.9651,310.145961 -620.4345,183.871504 -915.3795,314.687297 -87.6101,38.857373 -250.1376,42.975278 -251.7995,138.801503 -1.6986,97.9464 154.5164,144.7581 252.2965,150.7114 197.4946,12.02438 347.6964,-207.12814 542.7505,-240.333403 117.0655,-19.928787 320.2463,-85.1800156 355.1207,28.333303 29.7888,96.96019 -153.3033,247.01672 -237.4228,190.3373 -88.5837,-59.68735 -6.9836,-266.555558 91.8824,-306.99260323 C 2764.3604,-70.846671 3079.3728,82.79256 3080.9457,268.77814 3082.78,485.66466 2638.4078,591.2788 2516.4005,592.3162 l -590.6559,5.0222 c -21.6551,0.18413 -341.632,1.89456 -348.4432,125.1147 -6.2495,113.05913 282.3602,149.29509 305.1095,149.3352 l 1195.9377,2.1085"
       inkscape:connector-curvature="0"
       sodipodi:nodetypes="csaaasccaaaaaaaasaaasccaaaaaaaaaassasc" />
    <path
       style="color:#000000;font-style:normal;font-variant:normal;font-weight:normal;font-stretch:normal;font-size:medium;line-height:normal;font-family:sans-serif;text-indent:0;text-align:start;text-decoration:none;text-decoration-line:none;text-decoration-style:solid;text-decoration-color:#000000;letter-spacing:normal;word-spacing:normal;text-transform:none;direction:ltr;block-progression:tb;writing-mode:lr-tb;baseline-shift:baseline;text-anchor:start;white-space:normal;clip-rule:nonzero;display:inline;overflow:visible;visibility:visible;opacity:1;isolation:auto;mix-blend-mode:normal;color-interpolation:sRGB;color-interpolation-filters:linearRGB;solid-color:#000000;solid-opacity:1;fill:#000000;fill-opacity:1;fill-rule:evenodd;stroke:none;stroke-width:140;stroke-linecap:round;stroke-linejoin:round;stroke-miterlimit:4;stroke-dasharray:none;stroke-dashoffset:0;stroke-opacity:1;color-rendering:auto;image-rendering:auto;shape-rendering:auto;text-rendering:auto;enable-background:accumulate"
       d="m 1795.9531,1438.6367 c -64.2814,0.2181 -129.4119,13.7711 -188.957,44.6055 -80.2463,41.5542 -145.9664,113.5362 -171.4844,204.8828 -1.6078,5.7554 -2.9829,11.5729 -4.2422,17.416 -5.601,13.2927 -10.6219,26.5925 -14.8086,39.7031 -21.2635,66.5876 -28.56,127.9037 -44.2168,177.7891 -25.7612,82.0801 -77.9772,157.5269 -144.8222,216.7656 -67.0668,59.4353 -149.2479,103.8617 -237.17385,134.0742 -197.72901,67.9423 -420.22783,63.9591 -645.27149,55.961 -54.12816,-1.9238 -100.54044,-5.504 -134.03711,-20.5313 -16.41667,-7.3648 -29.9054,-17.5294 -38.38867,-28.2617 -8.1261,-10.2804 -12.38182,-22.8363 -12.35742,-31.7715 0.0241,-8.835 4.25762,-21.1074 12.16992,-30.9843 8.25156,-10.3006 21.38747,-19.9617 37.1875,-26.6075 32.29442,-13.5836 76.80894,-15.1315 127.54492,-11.5722 174.79662,12.2622 364.26679,64.8843 565.84375,35.1406 101.40005,-14.9621 204.24045,-52.4946 286.60745,-124.4219 41.2318,-36.006 76.4264,-80.0486 101.0781,-130.8847 24.7115,-50.9593 38.3046,-107.8934 36.7227,-166.2461 -2.0537,-75.7552 -29.6984,-148.6979 -77.3028,-207.0176 l 0,0 c -47.5505,-58.2539 -112.9116,-99.4637 -185.252,-118.0645 -113.06905,-29.0734 -235.12928,-0.2639 -323.2656,76.2989 -17.60184,15.2904 -33.42318,32.2445 -47.50391,50.4199 -2.39443,-3.3536 -4.75323,-6.7254 -7.29492,-10.002 -30.25392,-39.0012 -68.905,-69.744 -111.75781,-91.3906 -42.61227,-21.5251 -87.63974,-33.4304 -131.73633,-39.2363 -83.99206,-11.0587 -173.40236,-0.8408 -252.91406,40.2656 -80.38856,41.5596 -146.225465,113.7496 -171.429692,205.4082 -20.8999427,76.0054 -11.5297492,160.2738 34.441406,228.9297 22.874659,34.1622 53.879286,62.8129 91.193356,82.3906 37.41293,19.6294 79.74205,29.3462 122.93164,26.752 45.87937,-2.7558 89.3817,-19.2076 125.58985,-46.6016 36.14847,-27.3489 63.29677,-64.2628 79.09375,-106.1504 22.263,-59.0332 20.65278,-124.2545 -4.4961,-182.1172 -20.61572,-47.4328 -55.65309,-86.6522 -99.75195,-112.4765 18.89205,-0.7906 38.0365,-0.1032 57.06641,2.4023 31.60632,4.1614 61.34648,12.4942 86.88867,25.3965 25.30165,12.7808 47.713,30.9054 64.25977,52.2363 16.48874,21.2562 28.63389,47.7496 35.42773,76.252 3.83744,16.0993 6.0436,33.962 7.5293,53.0722 -0.68516,16.4374 -0.2861,32.9712 1.35547,49.5157 l 4.9082,115.3261 a 70.007,70.007 0 0 0 139.90039,-5.2422 l -3.80469,-117.4609 c -0.44157,-13.6317 -1.0839,-27.9788 -1.99219,-42.6211 4.67474,-56.3901 31.93979,-112.9215 73.90821,-149.3789 51.6588,-44.8752 130.31548,-63.439 196.5879,-46.3984 43.225,11.1144 83.756,36.8168 111.6601,71.0019 27.8504,34.1193 44.6287,78.7575 45.8086,122.2832 0.9183,33.8717 -7.2004,69.3117 -22.7441,101.3653 -15.6033,32.1766 -38.9338,61.8436 -67.1934,86.5214 -56.6161,49.4403 -133.81688,79.3985 -214.95699,91.3711 -163.50338,24.1258 -342.27937,-22.7323 -535.61133,-36.2949 -57.00144,-3.9987 -124.3614,-6.1109 -191.6211,22.1797 -33.97703,14.2913 -66.661313,36.2819 -92.171871,68.127 -25.84925,32.2682 -42.780956,72.9657 -42.904297,118.1308 -0.124418,45.558 16.857521,86.5004 42.523438,118.9707 25.308733,32.0185 57.61327,54.2413 90.91602,69.1817 65.94213,29.5829 131.57912,30.7597 186.36914,32.707 226.12032,8.0363 466.52022,15.2897 695.73829,-63.4727 102.3628,-35.1732 201.0163,-87.6819 284.5351,-161.6972 83.7408,-74.2119 151.0517,-169.7235 185.543,-279.6192 0.3226,-1.0278 0.5783,-2.0255 0.8945,-3.0508 16.0994,15.0851 34.228,28.1704 54.2442,38.5723 37.7201,19.6023 80.4199,29.0815 123.8945,25.9375 45.8229,-3.3138 88.7253,-20.3672 124.3086,-47.5371 35.4671,-27.0813 62.1474,-62.9882 78.7285,-103.1406 18.7852,-45.4901 24.2995,-95.6533 15.0293,-144.543 -9.2846,-48.9652 -32.9868,-94.2916 -68.8086,-129.7168 -8.2395,-8.1483 -17.0766,-15.591 -26.3261,-22.4394 11.2583,0.3201 22.5419,1.0266 33.7851,2.4961 31.585,4.128 61.3156,12.4475 86.8496,25.3437 25.2942,12.775 47.7008,30.9038 64.2442,52.2402 16.4859,21.2625 28.6259,47.762 35.4179,76.2735 3.8935,16.344 6.1027,34.5107 7.586,53.9512 -0.6597,16.1004 -0.2802,32.2929 1.289,48.498 l 4.918,115.4863 a 70.007,70.007 0 0 0 139.8984,-5.2441 l -3.8046,-117.461 c -0.4328,-13.3578 -1.0589,-27.4051 -1.9317,-41.7343 4.607,-56.6044 31.9462,-113.3841 74.0859,-149.9903 51.6517,-44.8691 130.2095,-63.5099 196.5137,-46.6308 43.3066,11.0246 83.9218,36.6521 111.8242,70.7871 27.8375,34.0556 44.5325,78.6975 45.4727,122.0762 0.7284,33.6089 -7.5946,68.7672 -23.3106,100.4882 -15.7787,31.8479 -39.2646,61.1442 -67.6269,85.4395 -56.8322,48.6827 -134.0123,77.8174 -215.0703,89.3144 a 70.007,70.007 0 0 0 -0,0 c -163.3044,23.1628 -342.2464,-23.5116 -536.3261,-32.0058 -56.5575,-2.4753 -122.4274,-2.2937 -187.7266,25.791 -32.928,14.162 -64.6414,35.3513 -90.0508,65.5371 -25.6873,30.5162 -43.6435,68.8934 -46.8867,112.1777 -3.443,45.9507 10.2988,89.1384 34.3906,124.543 23.8219,35.0076 56.3024,60.5089 91.4102,77.4883 69.5769,33.6501 143.1449,32.5278 206.5371,23.1562 110.4747,-16.3318 210.2065,-60.2236 301.4219,-107.7851 85.5034,-44.5833 164.7588,-92.587 244.6367,-130.7051 -3.9473,24.2248 -4.6419,49.2563 -1.2442,74.4649 5.7526,42.6798 22.8566,84.1363 52.0899,118.4843 37.477,44.0341 90.4243,71.12 147.7851,76.1153 57.3012,4.99 113.782,-12.4919 158.3008,-48.5215 44.4735,-35.9931 73.1221,-87.3186 80.7715,-143.7695 7.6416,-56.3949 -6.2957,-113.1416 -38.7324,-159.6016 -15.3247,-21.9501 -33.9985,-40.3121 -54.625,-55.4043 6.0966,-0.735 12.1998,-1.2969 18.2988,-1.6016 45.1746,-2.2566 91.3483,7.5336 130.6426,28.086 39.1978,20.5019 72.9515,52.6381 94.3965,90.3183 21.3835,37.5723 31.3565,82.5108 27.3925,124.6817 -4.1405,44.0498 -23.7175,88.7582 -53.6035,125.1367 -30.087,36.6234 -71.284,66.4065 -117.4316,87.2109 -92.3976,41.6551 -205.6072,46.734 -324.4121,47.7442 l -590.6563,5.0214 c -64.2616,0.5465 -135.8885,-4.3289 -212.666,7.8028 -39.9267,6.3089 -83.7584,18.6672 -123.6562,46.875 a 70.007,70.007 0 0 0 0,0 c -20.1064,14.2154 -38.787,32.3306 -53.5274,55.0508 l 0,0 c -14.848,22.8858 -25.1937,49.7079 -27.7422,79.3945 -2.4023,27.9829 2.4612,54.7937 12.2363,78.9649 9.7185,24.0315 23.9591,44.6732 40.5567,61.9258 33.0261,34.3295 73.5161,53.9694 112.414,65.5449 a 70.007,70.007 0 0 0 0,0 c 75.5906,22.4945 147.6137,18.7775 209.5195,18.8867 l 1195.9375,2.1094 a 70.007,70.007 0 1 0 0.2481,-140 l -1195.9375,-2.1094 c -65.4362,-0.1154 -123.3762,0.756 -169.8379,-13.0703 -22.1286,-6.5851 -40.3385,-16.8666 -51.4551,-28.4219 -5.4739,-5.6898 -9.4413,-11.8696 -11.6582,-17.3515 -2.1605,-5.3424 -2.8598,-10.768 -2.5391,-14.5039 0.3401,-3.9616 2.168,-9.7261 5.7012,-15.1719 a 70.007,70.007 0 0 0 0,0 c 3.6405,-5.6112 9.4295,-11.6527 16.8985,-16.9336 15.2543,-10.7848 37.8958,-18.6732 64.6855,-22.9063 56.6549,-8.9521 121.1863,-5.4915 192.0078,-6.0937 l 590.6563,-5.0215 c 120.8375,-1.0274 254.68,-3.2685 380.7578,-60.1074 63.0902,-28.4426 122.0959,-70.0061 168.0723,-125.9707 46.1774,-56.2093 77.7392,-125.6565 84.8125,-200.9063 6.7948,-72.2863 -9.6232,-144.6899 -45.1035,-207.0312 -35.4189,-62.2334 -88.5144,-112.3456 -151.1856,-145.125 -50.8678,-26.6058 -106.8478,-41.0252 -163.4219,-43.6992 22.48,-48.4199 35.0104,-101.974 33.8184,-156.9707 -1.6478,-76.0222 -29.2982,-149.2345 -77.0449,-207.6465 -47.6818,-58.3326 -113.2509,-99.4187 -185.6817,-117.8574 -112.9994,-28.7664 -234.8353,0.1446 -322.8633,76.6132 -17.6006,15.2895 -33.4219,32.2425 -47.5078,50.4141 -2.4572,-3.4514 -4.887,-6.9171 -7.5,-10.2871 -30.2481,-39.012 -68.9007,-69.7687 -111.7695,-91.4199 -42.6289,-21.5301 -87.6859,-33.4291 -131.8203,-39.1973 -20.9996,-2.7446 -42.3326,-4.1528 -63.7598,-4.0801 z m -130.6699,233.4082 c 5.1396,-0.081 10.2527,0.2491 15.2285,1.0098 19.9919,3.0562 40.3944,13.3684 55.1582,27.9687 14.8228,14.6587 25.7164,35.2391 29.7012,56.2539 3.999,21.0902 1.5184,44.6792 -6.8828,65.0235 l 0,0 c -7.4337,18.0012 -19.7519,34.2051 -34.291,45.3066 -14.4231,11.0129 -32.513,17.9495 -49.4433,19.1738 -16.1011,1.1644 -33.957,-2.5879 -49.2383,-10.5292 -15.3892,-7.9974 -29.5995,-20.8536 -39.8301,-36.1836 -16.7489,-25.0975 -23.5572,-60.1236 -19.3105,-93.5704 4.1045,-8.3205 8.4489,-16.2402 13.2539,-23.3398 11.9614,-17.6737 26.7039,-31.673 41.6855,-39.877 12.8919,-7.0595 28.5479,-10.9944 43.9668,-11.2363 z m -1419.40429,26.1172 c 13.33698,0.065 26.66358,2.521 38.43359,7.3613 23.53989,9.6807 44.79178,30.5161 54.9375,53.8594 10.1457,23.3433 10.87994,53.0965 1.89844,76.9121 -6.49625,17.2256 -18.33437,33.1353 -32.56836,43.9043 -14.17432,10.7239 -32.33137,17.4678 -49.51563,18.5 -16.26754,0.9772 -34.15987,-2.9322 -49.49218,-10.9765 -15.43116,-8.0964 -29.64251,-20.9792 -39.90821,-36.3106 -15.86713,-23.6969 -22.95211,-56.164 -20.25976,-87.7715 a 70.007,70.007 0 0 0 2.51562,-5.166 c 10.37156,-23.2439 31.82425,-43.8721 55.45703,-53.3242 11.81634,-4.726 25.16497,-7.0529 38.50196,-6.9883 z m 1473.42579,469.457 c 11.6352,-0.1683 23.7224,0.07 36.1719,0.6153 94.8289,4.1503 194.1513,21.4535 297.5293,31.6406 -15.7307,8.6149 -31.4107,17.1117 -47.0411,25.2617 -85.1058,44.3759 -170.9297,80.6808 -257.1679,93.4297 -48.2142,7.1277 -93.1198,4.7732 -125.1074,-10.6973 -15.6747,-7.5808 -28.708,-18.584 -36.6211,-30.2129 -7.643,-11.2318 -11.2973,-25.0228 -10.5254,-35.3242 0.7339,-9.7954 5.7919,-22.2727 14.3828,-32.4785 8.869,-10.5362 22.2897,-20.2174 38.2597,-27.0859 24.3723,-10.4824 55.2134,-14.6433 90.1192,-15.1485 z m 770.3691,0.018 c 23.3888,0.1153 45.74,4.3204 64.4883,12.4981 18.957,8.2686 35.2266,21.2532 45.3477,35.75 11.8306,16.9454 17.5328,40.4275 14.791,60.6621 -2.7347,20.1776 -14.4772,41.0857 -30.1133,53.7402 -15.5914,12.6184 -38.3452,19.5938 -58.082,17.875 -19.6772,-1.7136 -40.6739,-12.5264 -53.3164,-27.3809 -10.1845,-11.9664 -17.5878,-28.8525 -19.959,-46.4453 -2.4018,-17.8195 -0.071,-37.8595 6.7168,-56.7265 6.2739,-17.4373 16.7639,-34.3264 30.1269,-49.9727 z"
       id="path4140-7-4-0-3"
       inkscape:connector-curvature="0" />
    <path
       style="fill:none;fill-rule:evenodd;stroke:#000000;stroke-width:70;stroke-linecap:round;stroke-linejoin:round;stroke-miterlimit:4;stroke-dasharray:none;stroke-opacity:1"
       d="m -3330.6646,-336.64794 c 19.1429,-42.68008 55.371,-77.4053 98.8233,-94.72393 43.4523,-17.31863 93.6343,-17.03349 136.887,0.7778 43.2528,17.81129 79.0839,52.94594 97.7405,95.84081 18.6567,42.89486 19.9266,93.06155 3.4641,136.84541 -11.7612,31.2801 -32.3604,59.24073 -58.9969,79.42163 -26.6365,20.180907 -59.2483,32.467218 -92.6061,34.47467 -31.4623,1.893384 -63.3301,-5.327785 -91.2326,-19.98763 -27.9025,-14.65985 -51.8123,-36.65793 -69.3266,-62.86311 -35.0285,-52.41035 -43.1812,-120.67035 -26.4521,-181.44848 20.3522,-73.94128 75.753,-135.91862 143.8462,-171.20107 68.0931,-35.28244 147.7605,-45.09832 223.7936,-35.07366 40.0488,5.28027 79.5976,16.02082 115.6361,34.26943 36.0385,18.24861 68.3133,44.13715 93.0432,76.07801 24.7299,31.94085 41.5856,69.64123 50.9362,108.93946 9.3505,39.29824 11.1938,79.93945 12.4999,120.31367 l 4.023,124.358838 -5.2115,-122.578078 c -11.0416,-97.35695 28.5259,-199.07475 102.4527,-263.37962 73.9269,-64.30486 180.1456,-89.3984 275.0339,-64.97511 61.1443,15.73791 117.1589,51.17454 157.0496,100.11361 39.8907,48.93907 63.3435,111.17521 64.9987,174.29069 1.2785,48.7495 -10.2295,97.56732 -31.5269,141.43723 -21.2974,43.869896 -52.2407,82.822539 -88.9747,114.896926 -73.4678,64.148773 -168.6168,99.847588 -265.0972,114.134534 -192.9609,28.57389 -387.6475,-23.824191 -582.2464,-37.300952 -56.9685,-3.945298 -116.1188,-4.1907 -168.7431,17.98282 -26.3121,11.08676 -50.529,27.832382 -68.3737,50.121622 -17.8447,22.28925 -29.0321,50.29607 -29.1147,78.84842 -0.083,28.81665 11.1357,57.10955 28.9939,79.72573 17.8581,22.61619 42.0628,39.7578 68.3469,51.57096 52.5683,23.62632 111.8201,26.18727 169.4162,28.26541 238.5161,8.60595 483.2521,14.43948 708.9343,-63.22353 100.6473,-34.6353 196.2823,-85.96953 275.8953,-156.6183 79.613,-70.648772 142.7752,-161.1360381 174.5611,-262.71919 19.2764,-61.60466 26.9394,-126.39239 46.5343,-187.89648 9.7975,-30.75204 22.6502,-60.7401 40.7354,-87.47216 18.0852,-26.73206 41.5967,-50.17498 69.9142,-65.66042 33.0518,-18.07438 72.1477,-24.70709 109.3809,-18.98077 37.2332,5.72633 72.4116,23.70791 99.1741,50.21961 26.7625,26.51171 45.0324,61.38176 52.0339,98.39635 7.0016,37.0146 2.7691,76.01606 -11.5974,110.83998 -12.691,30.76256 -33.2955,58.33855 -59.7289,78.55425 -26.4333,20.21569 -58.6842,32.929438 -91.8742,35.342066 -31.5262,2.291684 -63.5743,-4.715996 -91.6153,-19.305526 -28.041,-14.58954 -52.0472,-36.65256 -69.5701,-62.96035 -35.0458,-52.61558 -42.8553,-121.15141 -25.8259,-182.03334 20.6451,-73.80819 76.0063,-135.64739 144.0309,-170.95333 68.0247,-35.30593 147.6157,-45.26581 223.609,-35.32142 40.0576,5.24189 79.6168,15.97031 115.6599,34.21823 36.0431,18.24791 68.3165,44.14647 93.0414,76.09603 24.7248,31.94955 41.5729,69.65723 50.919,108.96042 9.3461,39.30319 11.1887,79.94791 12.4949,120.32593 l 4.023,124.35886 -5.2114,-122.57808 c -10.7983,-97.30264 28.8391,-198.83845 102.7047,-263.09009 73.8657,-64.25164 179.91381,-89.43962 274.78205,-65.26473 61.23551,15.6044 117.40511,50.93602 157.36453,99.89039 39.95942,48.95437 63.37075,111.33514 64.68372,174.51395 1.0095,48.57599 -10.82194,97.14446 -32.41126,140.67087 -21.58931,43.526401 -52.78931,82.044889 -89.69093,113.65054 -73.80322,63.211302 -168.89395,97.85832 -265.09702,111.553411 -192.40609,27.390179 -386.47819,-24.389539 -580.64609,-32.707039 -56.2361,-2.408967 -114.3221,-0.813432 -166.0158,21.459005 -25.8469,11.136218 -49.7016,27.470163 -67.8199,49.006253 -18.1183,21.53608 -30.2859,48.42292 -32.3958,76.48757 -2.2364,29.7477 6.949,59.88304 23.7165,84.55647 16.7675,24.67342 40.822,43.99552 67.6682,57.00362 53.6923,26.01618 116.3485,26.71384 175.3723,18.00207 104.0227,-15.35349 202.126,-57.82369 295.3264,-106.50762 93.2005,-48.68393 182.9945,-104.01961 278.53233,-147.93973 62.10984,-28.552797 128.16012,-52.509082 196.51819,-52.770172 34.17904,-0.130544 68.59288,5.814464 99.91902,19.485458 31.32615,13.670994 59.47206,35.256674 79.03755,63.281934 23.40326,33.52242 33.79094,75.93496 28.31279,116.44984 -5.47815,40.51488 -26.81495,78.71065 -58.57838,104.45069 -31.76343,25.74005 -73.64008,38.70505 -114.37314,35.20027 -40.73305,-3.50478 -79.84814,-23.49093 -106.39213,-54.58566 -20.9073,-24.49168 -33.9221,-55.3706 -38.25323,-87.27983 -4.33114,-31.90924 -0.12785,-64.76893 10.76265,-95.0733 21.781,-60.608748 69.44497,-109.480426 124.63928,-142.668069 52.08816,-31.319955 111.81379,-50.102669 172.51998,-53.081793 60.70619,-2.979125 122.26924,9.973125 176.10592,38.1817925 53.83667,28.2086675 99.72501,71.7157875 129.77429,124.5471895 30.04927,52.83141 44.00393,114.86161 38.3468,175.37701 -5.89865,63.09906 -32.89221,123.49455 -73.07648,172.49975 -40.18427,49.0052 -93.14518,86.7897 -150.90011,112.87905 -115.50984,52.1787 -246.18219,56.08045 -372.92593,57.15956 l -624.5099,5.31714 c -69.0801,0.58815 -138.2947,-5.10548 -207.2001,-0.16066 -34.4527,2.47241 -69.295,9.02225 -99.5678,25.6552 -15.1365,8.31647 -28.9817,19.17339 -39.8846,32.56744 -10.903,13.39405 -18.7985,29.38578 -21.762,46.40026 -2.9218,16.77509 -0.9919,34.26015 4.7292,50.2979 5.7211,16.03775 15.1602,30.64593 26.8394,43.03691 23.3585,24.78196 55.0859,40.43103 87.8818,49.60656 65.5918,18.35108 135.0362,15.04353 203.1467,15.16377 l 1264.48387,2.23233"
       id="path4140-7-4-0-6"
       inkscape:path-effect="#path-effect4142-0-1-0-6"
       inkscape:original-d="m -3330.6646,-336.64794 c 33.7559,37.2882 304.5785,83.64641 336.9149,138.74009 34.8532,59.38168 -89.1874,123.684269 -151.603,113.8963 -106.5292,-16.70582 -210.7338,-158.97309 -187.0113,-264.29922 30.9047,-137.2145 229.7461,-233.10799 367.6398,-206.27473 142.2782,27.68645 267.4851,243.62859 272.1154,339.60057 l 4.023,124.358838 -5.2115,-122.578078 c 15.1695,-188.66998 211.4459,-342.90432 377.4866,-328.35473 117.1217,10.26299 254.4657,161.24185 222.0483,274.4043 -94.0641,328.359744 -655.9952,194.669607 -967.8452,333.167738 -92.6315,41.139362 -264.4745,45.499052 -266.2315,146.952862 -1.796,103.69847 165.7879,136.4407 266.757,159.5621 231.2762,52.96099 492.2006,33.40664 708.9343,-63.22353 187.2904,-83.5029 330.1509,-253.108632 450.4564,-419.33749 73.37,-101.37706 34.2973,-317.93362 157.1839,-341.02906 113.3328,-21.29989 216.655,185.38148 248.9915,240.47517 34.8532,59.38165 -89.1875,123.68428 -151.6031,113.896316 -106.5291,-16.705816 -210.7338,-158.973056 -187.0113,-264.299216 30.9046,-137.21453 229.7462,-233.10803 367.6399,-206.27475 142.2781,27.68647 269.0085,243.56709 272.1152,339.60061 l 4.023,124.35886 -5.2114,-122.57808 c 15.1695,-188.67004 211.44594,-342.90444 377.48675,-328.35482 117.12161,10.26299 254.46555,161.2419 222.04825,274.40434 -94.0642,328.359745 -655.9953,194.669639 -967.8453,333.167782 -92.6315,41.139323 -264.4744,45.499064 -266.2315,146.952828 -1.7959,103.69845 163.3726,153.25923 266.757,159.56216 208.8142,12.73052 367.6249,-219.29206 573.85873,-254.44735 123.77525,-21.099137 338.6015,-90.182342 375.47476,29.99722 31.49616,102.65432 -162.08999,261.52315 -251.03086,201.51514 -93.661,-63.19258 -7.38387,-282.209434 97.1487,-325.021199 182.01637,-74.545578 515.08394,88.116339 516.74699,285.024199 1.93944,229.62349 -467.90228,341.44005 -596.90252,342.53836 l -624.5099,5.31714 c -22.8963,0.19491 -356.9798,-22.6706 -368.4145,104.46224 -10.7276,119.27111 298.5439,158.06268 322.5971,158.10514 l 1264.48387,2.23233"
       inkscape:connector-curvature="0"
       sodipodi:nodetypes="csaaasccaaaaaaaasaaasccaaaaaaaaaassasc" />
    <path
       style="color:#000000;font-style:normal;font-variant:normal;font-weight:normal;font-stretch:normal;font-size:medium;line-height:normal;font-family:sans-serif;text-indent:0;text-align:start;text-decoration:none;text-decoration-line:none;text-decoration-style:solid;text-decoration-color:#000000;letter-spacing:normal;word-spacing:normal;text-transform:none;direction:ltr;block-progression:tb;writing-mode:lr-tb;baseline-shift:baseline;text-anchor:start;white-space:normal;clip-rule:nonzero;display:inline;overflow:visible;visibility:visible;opacity:1;isolation:auto;mix-blend-mode:normal;color-interpolation:sRGB;color-interpolation-filters:linearRGB;solid-color:#000000;solid-opacity:1;fill:#000000;fill-opacity:1;fill-rule:evenodd;stroke:none;stroke-width:70;stroke-linecap:round;stroke-linejoin:round;stroke-miterlimit:4;stroke-dasharray:none;stroke-dashoffset:0;stroke-opacity:1;color-rendering:auto;image-rendering:auto;shape-rendering:auto;text-rendering:auto;enable-background:accumulate"
       d="M -1284.627 2074.0742 C -1347.1676 2074.3317 -1410.065 2087.586 -1466.7227 2116.9922 C -1542.6875 2156.4192 -1604.6847 2225.0261 -1628.3359 2309.582 C -1630.0767 2315.8054 -1631.5145 2322.1116 -1632.8086 2328.4492 C -1638.9952 2342.6701 -1644.4228 2357.0603 -1649.0059 2371.4453 C -1669.9576 2437.2084 -1677.6164 2502.0624 -1695.5938 2559.5156 C -1725.2024 2654.1408 -1784.5947 2739.6068 -1859.9844 2806.5078 C -1935.485 2873.5072 -2027.0009 2922.8164 -2124.0371 2956.209 C -2341.8476 3031.1631 -2582.0968 3026.1462 -2820.3203 3017.5508 C -2877.7453 3015.4789 -2932.1892 3012.3206 -2976.6504 2992.3379 C -2998.7156 2982.4209 -3018.2205 2968.2969 -3031.877 2951.002 C -3045.3552 2933.9327 -3053.3965 2912.7333 -3053.3398 2893.0664 C -3053.2838 2873.5901 -3045.2677 2852.6864 -3031.9023 2835.9922 C -3018.3678 2819.0866 -2999.032 2805.4239 -2977.2598 2796.25 C -2933.3689 2777.7564 -2879.9279 2777.0928 -2824.5254 2780.9297 C -2634.5593 2794.0856 -2437.2031 2847.9192 -2234.7344 2817.9375 C -2133.1952 2802.9014 -2031.6437 2765.3076 -1951.7441 2695.543 C -1911.7702 2660.6396 -1877.8621 2618.0977 -1854.3027 2569.5684 C -1830.7136 2520.9778 -1817.8365 2466.7919 -1819.2754 2411.9277 C -1821.1419 2340.7536 -1847.3035 2271.437 -1892.1309 2216.4414 C -1936.9317 2161.4784 -1999.1564 2122.158 -2067.5859 2104.5449 C -2174.1849 2077.1074 -2291.2639 2104.7667 -2374.3145 2177.0078 C -2406.3055 2204.835 -2432.3709 2238.617 -2451.7109 2275.8418 C -2461.4587 2254.1678 -2473.5856 2233.4326 -2488.3711 2214.3359 C -2516.5208 2177.9779 -2552.8503 2148.9299 -2593.2773 2128.459 C -2633.5848 2108.0487 -2676.9622 2096.4088 -2720.1484 2090.7148 C -2802.2582 2079.889 -2888.9793 2090.2194 -2964.6191 2129.4121 C -3040.6926 2168.8296 -3102.7724 2237.6152 -3126.1094 2322.4004 C -3145.39 2392.4483 -3136.4474 2470.5889 -3095.0117 2532.5859 C -3074.3485 2563.5025 -3046.24 2589.4483 -3012.8633 2606.9844 C -2979.4367 2624.5465 -2941.4534 2633.2249 -2903.25 2630.9258 C -2862.71 2628.486 -2823.758 2613.7658 -2791.6113 2589.4102 C -2759.4948 2565.0773 -2735.0694 2531.8603 -2720.9883 2494.4102 C -2701.2175 2441.8276 -2702.7132 2382.8019 -2725.1191 2331.2871 C -2747.525 2279.7722 -2789.6822 2238.4336 -2841.627 2217.043 C -2876.5393 2202.6662 -2914.6326 2198.0335 -2951.7207 2202.7031 C -2945.4304 2198.732 -2939.0065 2194.9793 -2932.416 2191.5645 C -2871.8696 2160.1924 -2799.2553 2150.8898 -2729.2988 2160.1133 C -2692.3881 2164.9798 -2656.6695 2174.8217 -2624.9004 2190.9082 C -2593.2504 2206.9347 -2565.0285 2229.6657 -2543.7188 2257.1895 C -2522.4374 2284.6761 -2507.4831 2317.8152 -2499.1582 2352.8027 C -2494.3075 2373.1894 -2491.7436 2394.7711 -2490.0918 2417.0703 C -2490.949 2434.1726 -2490.5808 2451.3661 -2488.7559 2468.5117 L -2483.5547 2590.8613 A 35.0035 35.0035 0 0 0 -2413.6035 2588.2422 L -2417.627 2463.8828 C -2418.1243 2448.5101 -2418.8476 2432.7237 -2419.9102 2416.7773 C -2415.0128 2346.0003 -2381.6017 2276.1232 -2328.375 2229.8242 C -2263.5719 2173.4555 -2168.2128 2150.9268 -2085.0352 2172.3359 C -2031.1761 2186.1987 -1981.3711 2217.7528 -1946.3906 2260.668 C -1911.4366 2303.5506 -1890.6939 2358.7068 -1889.25 2413.7637 C -1888.1319 2456.3985 -1898.2697 2499.8489 -1917.2754 2538.998 C -1936.3108 2578.2085 -1964.2894 2613.5692 -1997.7832 2642.8145 C -2064.8194 2701.3474 -2153.5666 2735.1535 -2244.9883 2748.6914 C -2428.4414 2775.8573 -2620.4578 2724.8952 -2819.6895 2711.0977 C -2878.224 2707.0439 -2943.0836 2705.8888 -3004.4414 2731.7422 C -3035.2934 2744.7419 -3064.392 2764.5711 -3086.5469 2792.2441 C -3108.8709 2820.1284 -3123.231 2855.2367 -3123.3398 2892.8652 C -3123.4492 2930.8318 -3109.0527 2966.2177 -3086.8145 2994.3809 C -3064.7545 3022.3183 -3035.8489 3042.4781 -3005.3457 3056.1875 C -2944.6705 3083.4574 -2880.6108 3085.4216 -2822.8438 3087.5059 C -2584.035 3096.1224 -2334.8137 3102.7723 -2101.2598 3022.4004 C -1997.0013 2986.5224 -1897.2469 2933.1634 -1813.5215 2858.8652 C -1729.6852 2784.4687 -1662.7522 2688.9612 -1628.7891 2580.4199 C -1620.5062 2553.9491 -1614.4881 2527.8013 -1608.8574 2502.0859 C -1605.4844 2508.3266 -1601.9071 2514.4797 -1597.9336 2520.4453 C -1577.2396 2551.5138 -1548.9907 2577.5698 -1515.3887 2595.0527 C -1481.7321 2612.564 -1443.4646 2621.0069 -1405.082 2618.2168 C -1364.6595 2615.2785 -1326.203 2600.0289 -1294.4824 2575.7695 C -1262.8206 2551.5552 -1238.6343 2519.0538 -1223.6621 2482.7617 C -1206.7063 2441.6615 -1201.7145 2396.0257 -1210.0293 2352.0684 C -1218.3514 2308.0727 -1239.8148 2267.018 -1271.8203 2235.3125 C -1303.8558 2203.5771 -1345.4668 2182.2596 -1390.3066 2175.3633 C -1400.7812 2173.7523 -1411.344 2173.0245 -1421.8945 2173.0117 C -1364.055 2146.5389 -1296.6485 2138.9183 -1231.5312 2147.4395 C -1194.6263 2152.2688 -1158.9084 2162.0963 -1127.1406 2178.1797 C -1095.4922 2194.2026 -1067.2744 2216.9395 -1045.9688 2244.4707 C -1024.6916 2271.9653 -1009.7415 2305.1127 -1001.4199 2340.1074 C -996.50221 2360.7879 -993.93625 2382.6974 -992.29102 2405.3398 C -993.11567 2422.1096 -992.77385 2438.9639 -991.02344 2455.7773 L -985.82031 2578.1816 A 35.0035 35.0035 0 0 0 -915.87109 2575.5625 L -919.89453 2451.2051 C -920.38156 2436.1501 -921.09147 2420.6946 -922.11133 2405.0879 C -917.29891 2334.0597 -883.80706 2263.8993 -830.38867 2217.4336 C -765.62134 2161.0961 -670.40169 2138.4806 -587.21875 2159.6777 C -533.27079 2173.4251 -483.34216 2204.887 -448.32617 2247.7852 C -413.34234 2290.6439 -392.66484 2345.878 -391.52148 2400.8945 C -390.64008 2443.3065 -401.04913 2486.4836 -420.29492 2525.2852 C -439.57209 2564.15 -467.7647 2599.0976 -501.39844 2627.9043 C -568.71971 2685.5639 -657.42544 2718.4028 -748.66016 2731.3906 C -931.72197 2757.4506 -1123.5 2706.9078 -1322.877 2698.3672 C -1380.8029 2695.8858 -1444.3523 2696.8483 -1504.2383 2722.6504 C -1534.3199 2735.6112 -1562.7435 2754.8219 -1584.9922 2781.2676 C -1607.3796 2807.8779 -1622.7692 2841.2346 -1625.5078 2877.6641 C -1628.4138 2916.318 -1616.712 2953.7993 -1595.8379 2984.5156 C -1575.0983 3015.034 -1546.185 3037.9826 -1514.4824 3053.3438 C -1451.3955 3083.9119 -1381.5687 3083.7483 -1318.7383 3074.4746 C -1208.6368 3058.2239 -1107.0467 3013.8463 -1012.3164 2964.3633 C -917.6461 2914.9116 -828.33395 2859.9395 -735.37109 2817.2031 C -714.41406 2807.5689 -693.31364 2798.7605 -672.17578 2791.2422 C -677.38207 2801.3599 -682.05753 2811.8248 -685.97461 2822.7246 C -698.61907 2857.9095 -703.64824 2896.2686 -698.48047 2934.3418 C -693.29722 2972.5288 -677.84826 3009.5534 -652.16602 3039.6387 C -619.40664 3078.0143 -572.30347 3102.0561 -522.1543 3106.3711 C -472.03482 3110.6835 -421.73185 3095.0866 -382.74414 3063.4922 C -343.77892 3031.9161 -318.22134 2986.1182 -311.51758 2936.5391 C -304.81758 2886.9879 -317.26388 2836.2614 -345.81641 2795.3633 C -369.57185 2761.3364 -402.892 2736.0381 -439.55273 2720.0391 C -452.96664 2714.1851 -466.74526 2709.6116 -480.70312 2706.1465 C -440.97834 2687.2826 -397.70649 2675.9064 -354.16211 2673.7695 C -299.5734 2671.0906 -244.03753 2682.8322 -196.01562 2707.9941 C -148.0414 2733.1311 -106.98106 2772.1451 -80.419922 2818.8438 C -53.889169 2865.4889 -41.543698 2920.6624 -46.498047 2973.6602 C -51.668303 3028.9675 -75.674121 3083.1796 -111.79102 3127.2246 C -148.00777 3171.3914 -196.51867 3206.2237 -250.03516 3230.3984 C -357.11656 3278.7699 -482.62124 3283.3823 -608.85156 3284.457 L -1233.3613 3289.7734 C -1300.3194 3290.3436 -1370.2799 3284.4991 -1442.7676 3289.7012 C -1479.9417 3292.3689 -1519.8761 3299.3685 -1556.6836 3319.5918 C -1575.1927 3329.7613 -1592.6441 3343.2769 -1606.8594 3360.7402 C -1621.15 3378.2962 -1631.8265 3399.5138 -1635.957 3423.2285 C -1640.0313 3446.6206 -1637.3022 3470.0187 -1629.7129 3491.293 C -1622.1584 3512.4704 -1610.0178 3531.0432 -1595.377 3546.5762 C -1566.2128 3577.5173 -1528.5561 3595.5034 -1491.457 3605.8828 C -1418.6416 3626.2549 -1345.8768 3622.2217 -1278.9414 3622.3398 L -14.457031 3624.5723 A 35.0035 35.0035 0 1 0 -14.333984 3554.5723 L -1278.8184 3552.3398 C -1348.1039 3552.2176 -1414.2275 3554.8008 -1472.5957 3538.4707 C -1501.0882 3530.4992 -1526.885 3517.1847 -1544.4375 3498.5625 C -1553.155 3489.3137 -1559.8936 3478.6716 -1563.7812 3467.7734 C -1567.6344 3456.9723 -1568.7634 3445.3984 -1566.9941 3435.2402 C -1565.1977 3424.9265 -1560.0852 3414.1615 -1552.5703 3404.9297 C -1544.9798 3395.6048 -1534.7405 3387.4049 -1522.9766 3380.9414 C -1499.2384 3367.8989 -1469.4889 3361.7986 -1437.7578 3359.5215 C -1372.4347 3354.8338 -1303.9658 3360.3778 -1232.7637 3359.7715 L -608.25391 3354.4551 C -480.99673 3353.3716 -345.15703 3350.1795 -221.21875 3294.1934 C -159.22538 3266.1895 -101.81389 3225.453 -57.662109 3171.6094 C -13.41047 3117.644 16.570228 3051.0666 23.197266 2980.1758 C 29.557157 2912.1427 13.993581 2843.2539 -19.574219 2784.2363 C -53.111633 2725.2722 -103.82823 2677.2707 -163.52734 2645.9902 C -223.17881 2614.7348 -290.76812 2600.5742 -357.5918 2603.8535 C -367.68328 2604.3487 -377.71676 2605.3672 -387.71094 2606.6387 C -376.44601 2590.746 -366.3139 2573.9852 -357.58594 2556.3887 C -333.65309 2508.1375 -320.3995 2454.1795 -321.53711 2399.4395 C -323.01972 2328.0984 -349.16263 2258.5694 -394.09766 2203.5195 C -439.00053 2148.5089 -501.41052 2109.3072 -569.93359 2091.8457 C -676.48711 2064.6931 -793.36613 2092.4534 -876.33008 2164.6191 C -908.34562 2192.4677 -934.43396 2226.2734 -953.80078 2263.5234 C -963.5722 2241.7111 -975.74261 2220.8399 -990.60938 2201.6289 C -1018.7535 2165.2611 -1055.0837 2136.2014 -1095.5215 2115.7285 C -1135.8399 2095.3161 -1179.2391 2083.6858 -1222.4492 2078.0312 C -1242.9722 2075.3456 -1263.7801 2073.9884 -1284.627 2074.0742 z M -1420.5781 2242.9824 C -1413.9889 2243.0363 -1407.4182 2243.5556 -1400.9473 2244.5508 C -1371.3207 2249.1073 -1342.5735 2263.7528 -1321.084 2285.041 C -1299.5644 2306.3589 -1284.4897 2335.0446 -1278.8086 2365.0781 C -1273.1203 2395.15 -1276.5939 2427.5169 -1288.3711 2456.0645 C -1298.7809 2481.2976 -1315.8028 2503.9489 -1337.0078 2520.166 C -1358.1538 2536.3381 -1384.1988 2546.5155 -1410.1562 2548.4023 C -1434.8262 2550.1956 -1460.6546 2544.6228 -1483.0801 2532.9551 C -1505.5601 2521.2588 -1525.3218 2503.1878 -1539.6738 2481.6406 C -1564.4842 2444.3919 -1573.0856 2395.3543 -1565.5078 2349.2969 C -1559.7427 2336.9138 -1553.307 2325.1097 -1545.9336 2314.2109 C -1530.4157 2291.2737 -1510.6411 2271.9103 -1488.2148 2259.6465 C -1468.6996 2248.9746 -1446.0078 2243.2592 -1423.4023 2242.9883 C -1422.4605 2242.977 -1421.5194 2242.9747 -1420.5781 2242.9824 z M -2923.5215 2270.9277 C -2904.5313 2271.0356 -2885.5616 2274.6535 -2868.2812 2281.7695 C -2833.7204 2296.0015 -2804.2161 2324.9321 -2789.3086 2359.207 C -2774.4011 2393.4818 -2773.3555 2434.7882 -2786.5098 2469.7734 C -2795.951 2494.8835 -2812.7264 2517.5882 -2833.8828 2533.6172 C -2855.0091 2549.6233 -2881.2795 2559.4755 -2907.4551 2561.0508 C -2932.1763 2562.5385 -2957.9283 2556.775 -2980.3066 2545.0176 C -3002.7349 2533.2338 -3022.4471 2515.1831 -3036.8125 2493.6895 C -3060.9127 2457.6302 -3069.878 2410.551 -3063.6641 2365.8223 A 35.0035 35.0035 0 0 0 -3058.7305 2357.6758 C -3043.4345 2323.5725 -3013.6032 2294.979 -2978.8828 2281.1406 C -2961.5227 2274.2215 -2942.5117 2270.8198 -2923.5215 2270.9277 z M -1356.3047 2767.5469 C -1346.2597 2767.5856 -1336.0985 2767.8647 -1325.8711 2768.3027 C -1179.4544 2774.5747 -1028.5738 2807.6659 -874.20312 2808.9551 C -931.94604 2840.1609 -988.06316 2872.7199 -1044.7266 2902.3184 C -1136.3973 2950.2032 -1231.0151 2990.7683 -1328.959 3005.2246 C -1384.1761 3013.3746 -1439.6611 3011.8138 -1483.959 2990.3496 C -1505.9486 2979.6948 -1525.146 2964.0005 -1537.9414 2945.1719 C -1550.6023 2926.5414 -1557.27 2903.7516 -1555.7031 2882.9102 C -1554.2222 2863.2102 -1545.2771 2842.7939 -1531.4277 2826.332 C -1517.4398 2809.7055 -1498.1532 2796.2493 -1476.541 2786.9375 C -1443.9149 2772.8804 -1406.1591 2768.1113 -1366.3086 2767.5918 C -1362.9877 2767.5485 -1359.653 2767.534 -1356.3047 2767.5469 z M -553.33789 2767.6309 C -523.30699 2767.5162 -493.67563 2772.7951 -467.55273 2784.1953 C -441.56117 2795.5383 -418.58842 2813.4099 -403.21289 2835.4336 C -384.95889 2861.5803 -376.63039 2895.6797 -380.88672 2927.1582 C -385.13928 2958.6089 -402.25476 2989.2035 -426.81641 3009.1074 C -451.35558 3028.9932 -484.80765 3039.3261 -516.1543 3036.6289 C -547.47124 3033.9343 -578.5972 3018.0032 -598.92578 2994.1895 C -615.05814 2975.2913 -625.63816 2950.5591 -629.11719 2924.9277 C -632.61167 2899.1823 -629.23615 2871.8221 -620.09961 2846.3984 C -609.76095 2817.6296 -591.81857 2791.3308 -569.33984 2768.3809 C -564.00113 2768.0375 -558.6596 2767.6512 -553.33789 2767.6309 z "
       transform="translate(0,-1048)"
       id="path4140-7-4-0-6-3" />
  </g>
</svg>
