<?xml version="1.0" encoding="UTF-8" standalone="no"?>
<!-- Created with Inkscape (http://www.inkscape.org/) -->

<svg
   xmlns:dc="http://purl.org/dc/elements/1.1/"
   xmlns:cc="http://creativecommons.org/ns#"
   xmlns:rdf="http://www.w3.org/1999/02/22-rdf-syntax-ns#"
   xmlns:svg="http://www.w3.org/2000/svg"
   xmlns="http://www.w3.org/2000/svg"
   xmlns:sodipodi="http://sodipodi.sourceforge.net/DTD/sodipodi-0.dtd"
   xmlns:inkscape="http://www.inkscape.org/namespaces/inkscape"
   width="2000"
   height="2048"
   id="svg2992"
   version="1.1"
   inkscape:version="0.91 r13725"
   sodipodi:docname="ജ്ഞ.svg">
  <defs
     id="defs5498">
    <inkscape:path-effect
       is_visible="true"
       id="path-effect4142"
       effect="spiro" />
    <inkscape:path-effect
       is_visible="true"
       id="path-effect4142-0"
       effect="spiro" />
    <inkscape:path-effect
       is_visible="true"
       id="path-effect4142-0-1"
       effect="spiro" />
    <inkscape:path-effect
       is_visible="true"
       id="path-effect4142-0-1-0"
       effect="spiro" />
    <inkscape:path-effect
       effect="spiro"
       id="path-effect3891"
       is_visible="true" />
    <inkscape:path-effect
       effect="spiro"
       id="path-effect4141-3-4-6-8"
       is_visible="true" />
    <inkscape:path-effect
       effect="spiro"
       id="path-effect4141-3-4-6-8-9"
       is_visible="true" />
    <inkscape:path-effect
       effect="spiro"
       id="path-effect4141-3-4-6-8-9-5"
       is_visible="true" />
    <inkscape:path-effect
       is_visible="true"
       id="path-effect3782"
       effect="spiro" />
    <inkscape:path-effect
       is_visible="true"
       id="path-effect3846"
       effect="spiro" />
    <inkscape:path-effect
       is_visible="true"
       id="path-effect3801"
       effect="spiro" />
    <inkscape:path-effect
       is_visible="true"
       id="path-effect4918"
       effect="spiro" />
    <inkscape:path-effect
       is_visible="true"
       id="path-effect4372-5-8-0"
       effect="spiro" />
    <inkscape:path-effect
       is_visible="true"
       id="path-effect4372-5-8-0-0"
       effect="spiro" />
    <inkscape:path-effect
       effect="spiro"
       id="path-effect4141-3-4-6-8-9-5-3"
       is_visible="true" />
    <inkscape:path-effect
       effect="spiro"
       id="path-effect4141-3-4-6-8-9-5-4"
       is_visible="true" />
    <inkscape:path-effect
       is_visible="true"
       id="path-effect4142-0-1-0-0"
       effect="spiro" />
    <inkscape:path-effect
       effect="spiro"
       id="path-effect4142-0-1-0-9"
       is_visible="true" />
    <inkscape:path-effect
       is_visible="true"
       id="path-effect4141-3-4-6-8-9-5-4-6-5"
       effect="spiro" />
    <inkscape:path-effect
       effect="spiro"
       id="path-effect4142-0-1-0-9-2"
       is_visible="true" />
    <inkscape:path-effect
       effect="spiro"
       id="path-effect4142-0-1-0-9-3"
       is_visible="true" />
    <inkscape:path-effect
       effect="spiro"
       id="path-effect4142-0-1-0-9-3-7"
       is_visible="true" />
    <inkscape:path-effect
       effect="spiro"
       id="path-effect4142-0-1-0-9-7"
       is_visible="true" />
    <inkscape:path-effect
       effect="spiro"
       id="path-effect4142-0-1-0-9-5"
       is_visible="true" />
    <inkscape:path-effect
       effect="spiro"
       id="path-effect4142-0-1-0-9-5-6"
       is_visible="true" />
  </defs>
  <sodipodi:namedview
     inkscape:window-height="845"
     inkscape:window-width="1600"
     inkscape:pageshadow="2"
     inkscape:pageopacity="0.0"
     borderopacity="1.0"
     bordercolor="#666666"
     pagecolor="#ffffff"
     id="base"
     showgrid="true"
     showguides="true"
     inkscape:guide-bbox="true"
     inkscape:zoom="0.1135"
     inkscape:cx="-3028.1048"
     inkscape:cy="-324.582"
     inkscape:window-x="1600"
     inkscape:window-y="0"
     inkscape:current-layer="layer1-4"
     inkscape:window-maximized="1">
    <sodipodi:guide
       orientation="horizontal"
       position="0,600"
       id="guide5596" />
    <inkscape:grid
       type="xygrid"
       id="grid3769"
       empspacing="3"
       visible="true"
       enabled="true"
       snapvisiblegridlinesonly="true"
       spacingx="4px"
       units="px"
       dotted="true"
       spacingy="4px" />
    <sodipodi:guide
       orientation="0,1"
       position="-1040,1600"
       id="guide2985" />
    <sodipodi:guide
       position="5088,1710"
       orientation="0,1"
       id="guide4184"
       inkscape:label=""
       inkscape:color="rgb(0,0,255)" />
    <sodipodi:guide
       position="-3504,1624"
       orientation="0,1"
       id="guide4187"
       inkscape:label=""
       inkscape:color="rgb(0,0,255)" />
  </sodipodi:namedview>
  <metadata
     id="metadata5594">
    <rdf:RDF>
      <cc:Work
         rdf:about="">
        <dc:format>image/svg+xml</dc:format>
        <dc:type
           rdf:resource="http://purl.org/dc/dcmitype/StillImage" />
        <dc:title />
      </cc:Work>
    </rdf:RDF>
  </metadata>
  <g
     inkscape:label="Layer 1"
     inkscape:groupmode="layer"
     id="layer1"
     transform="translate(0,1048)">
    <g
       id="layer1-4"
       inkscape:label="Layer 1"
       transform="translate(-745.60632,-1374.2558)"
       style="stroke-width:70;stroke-miterlimit:4;stroke-dasharray:none">
      <g
         transform="translate(1267.2521,-190.31782)"
         id="layer1-6"
         inkscape:label="Layer 1"
         style="stroke-width:70;stroke-miterlimit:4;stroke-dasharray:none">
        <g
           transform="translate(-185.15889,-518.04243)"
           inkscape:label="Layer 1"
           id="layer1-05"
           style="stroke-width:70;stroke-miterlimit:4;stroke-dasharray:none">
          <g
             id="layer1-0"
             inkscape:label="Layer 1"
             transform="translate(-2634.3901,235.93018)"
             style="stroke-width:70;stroke-miterlimit:4;stroke-dasharray:none" />
        </g>
      </g>
      <path
         style="fill:none;fill-rule:evenodd;stroke:#000000;stroke-width:70;stroke-linecap:round;stroke-linejoin:round;stroke-miterlimit:4;stroke-dasharray:none;stroke-opacity:1"
         d="m 970.53525,1067.6076 c 18.0401,-40.43 52.28145,-73.35399 93.38785,-89.79477 41.1064,-16.44078 88.608,-16.21051 129.5531,0.62801 40.9451,16.83853 74.8656,50.09286 92.5129,90.69596 17.6473,40.603 18.8197,88.0907 3.1974,129.5151 -11.1466,29.5566 -30.6411,55.968 -55.8323,75.027 -25.1912,19.0589 -56.0207,30.6576 -87.5525,32.5516 -29.7286,1.7857 -59.8396,-5.0273 -86.2122,-18.8642 -26.3726,-13.837 -48.9807,-34.6038 -65.5509,-59.3506 -33.14038,-49.4936 -40.90338,-113.9915 -25.11065,-171.424 19.22567,-69.9169 71.66845,-128.48652 136.08175,-161.78717 64.4132,-33.30065 139.7373,-42.51131 211.6289,-33.04576 37.8515,4.98369 75.2356,15.1036 109.3128,32.31735 34.0772,17.21375 64.6082,41.6473 88.0086,71.81342 23.4003,30.16612 39.3571,65.78766 48.2093,102.92546 8.8521,37.1377 10.5975,75.549 11.8336,113.7071 l 3.8049,117.4608 -4.9289,-115.7788 c -10.3048,-92.0174 27.1803,-188.0878 97.0816,-248.81009 69.9013,-60.7223 170.2699,-84.40344 259.9419,-61.33114 57.7771,14.86585 110.7135,48.32837 148.4366,94.54693 37.723,46.2185 59.9368,105 61.5747,164.6364 1.2668,46.1231 -9.5695,92.326 -29.679,133.8537 -20.1095,41.5278 -49.3562,78.4091 -84.0917,108.7801 -69.4708,60.7419 -159.4949,94.5526 -250.7825,108.0566 -182.5752,27.008 -366.7393,-22.7713 -550.8263,-36.0031 -53.9151,-3.8753 -109.9195,-4.2723 -159.7562,16.6597 -24.9184,10.466 -47.8512,26.3177 -64.7149,47.4383 -16.86366,21.1206 -27.38306,47.6765 -27.32845,74.7035 0.0549,27.1914 10.79555,53.8289 27.75795,75.081 16.9625,21.2521 39.8705,37.316 64.7013,48.398 49.6615,22.1639 105.5157,24.6502 159.8373,27.2324 132.8336,6.3142 266.1833,15.2324 398.5685,2.6314 132.3852,-12.6009 265.2606,-48.0103 374.9574,-123.1851 85.4449,-58.5551 153.5115,-138.6934 232.2204,-206.0316 69.8963,-59.7986 150.3166,-110.3458 240.1176,-130.2742 44.9005,-9.9642 91.7587,-12.054 137.0171,-3.8677 45.2585,8.1864 88.8642,26.827 124.6834,55.677 36.0957,29.0727 63.903,68.4016 78.9173,112.2501 15.0143,43.8486 17.1358,92.0804 5.6607,136.9852 -11.4751,44.9048 -36.5534,86.2936 -71.2974,116.9689 -34.7441,30.6753 -79.0383,50.4602 -125.1125,55.4893 -58.25,6.3582 -118.1179,-11.0339 -166.1391,-44.6114 -48.0213,-33.5775 -84.3541,-82.6559 -106.0638,-137.0818 -21.7096,-54.4259 -29.1649,-114.0074 -25.439,-172.4848 3.7258,-58.4774 18.4113,-115.9273 39.5417,-170.5807 38.5125,-99.612 99.8865,-191.9113 184.5297,-257.03655 84.6432,-65.12528 193.602,-101.27363 299.6214,-88.40259 56.788,6.89422 111.8295,27.6378 159.1036,59.84903 47.2741,32.21123 86.562,75.77341 114.9459,125.43991 28.3839,49.6664 45.7914,105.1427 54.8126,161.6319 9.0212,56.4891 9.7173,113.9352 9.9996,171.1394 l 1.6867,341.7345 -0.2704,-345.3424 c -0.051,-65.4668 0.7471,-131.4444 14.4011,-195.4715 13.654,-64.0271 40.2478,-125.6983 80.7594,-177.125 40.5116,-51.4268 94.4229,-92.02625 154.6512,-117.68672 60.2283,-25.66047 126.2658,-36.57419 191.7193,-35.25231 124.5474,2.51532 247.9868,49.93856 341.0843,132.71073 93.0975,82.7721 154.8083,200.4315 168.3314,324.2681 10.5097,96.2423 -8.6386,197.395 -63.4945,277.1689 -27.4279,39.8869 -63.4767,74.0128 -105.5714,97.9145 -42.0948,23.9017 -90.244,37.4205 -138.6512,37.4267 -51.0113,0.01 -101.7144,-15.0194 -145.3789,-41.393 -43.6644,-26.3737 -80.302,-63.8956 -107.0877,-107.3085 -53.5715,-86.8257 -66.4064,-195.1348 -47.1626,-295.326 25.3497,-131.981 105.3615,-252.1696 216.0482,-328.39332 110.6867,-76.22374 250.5575,-108.11473 383.6846,-89.70911 99.1345,13.70594 194.7325,54.89464 270.8751,119.83933 76.1426,64.9446 132.2469,153.7186 155.3539,251.092 22.0536,92.934 13.7037,192.8255 -23.4726,280.8085 -37.1764,87.983 -102.9842,163.5962 -184.9948,212.559"
         id="path4140-7-4-0"
         inkscape:path-effect="#path-effect4142-0-1-0-9"
         inkscape:original-d="m 970.53525,1067.6076 c 31.92605,35.2199 288.06775,79.0066 318.65125,131.0443 32.9639,56.0879 -84.3527,116.8236 -143.3848,107.5786 -100.7544,-15.7791 -199.31025,-150.155 -176.87375,-249.6388 29.22934,-129.6034 217.29195,-220.1778 347.71065,-194.83293 134.5655,26.15073 255.9699,230.01983 257.3643,320.76333 l 3.8049,117.4608 -4.9289,-115.7788 c 14.3471,-178.2047 199.9836,-323.88379 357.0235,-310.14123 110.7726,9.69371 240.6713,152.29793 210.0113,259.18333 -88.9651,310.146 -620.4345,183.8715 -915.3795,314.6873 -87.6101,38.8574 -250.13769,42.9753 -251.79955,138.8015 -1.69863,97.9464 156.13425,132.0245 252.29655,150.7114 256.1627,49.7792 537.4445,-9.3654 773.5259,-120.5537 93.6178,-44.0916 138.6135,-161.9166 232.2204,-206.0316 153.1496,-72.1764 388.4934,-204.2495 501.8181,-78.4649 97.3394,108.0417 32.8804,407.3293 -111.8319,421.6935 -193.979,19.2545 -305.7574,-335.7418 -258.1002,-524.7587 48.4685,-192.2347 289.3165,-382.08411 484.1511,-345.43914 202.7918,38.14156 337.5248,247.20504 338.8617,518.06024 l 1.6867,341.7345 -0.2704,-345.3424 c -0.1803,-230.2796 213.3001,-509.43513 441.531,-525.53553 227.5509,-16.0524 486.7904,229.98723 509.4157,456.97883 17.0146,170.7008 -136.2184,416.5668 -307.7171,412.5101 -178.5054,-4.2226 -332.3313,-268.4924 -299.6292,-444.0275 44.6325,-239.5738 356.3878,-431.17423 599.7328,-418.10243 188.0728,10.1028 383.7613,187.43763 426.229,370.93133 40.2558,173.9366 -208.4674,493.3675 -208.4674,493.3675"
         inkscape:connector-curvature="0"
         sodipodi:nodetypes="csaaasccaaaaaaaaaaacccaaaaaac" />
      <path
         style="color:#000000;font-style:normal;font-variant:normal;font-weight:normal;font-stretch:normal;font-size:medium;line-height:normal;font-family:sans-serif;text-indent:0;text-align:start;text-decoration:none;text-decoration-line:none;text-decoration-style:solid;text-decoration-color:#000000;letter-spacing:normal;word-spacing:normal;text-transform:none;direction:ltr;block-progression:tb;writing-mode:lr-tb;baseline-shift:baseline;text-anchor:start;white-space:normal;clip-rule:nonzero;display:inline;overflow:visible;visibility:visible;opacity:1;isolation:auto;mix-blend-mode:normal;color-interpolation:sRGB;color-interpolation-filters:linearRGB;solid-color:#000000;solid-opacity:1;fill:#000000;fill-opacity:1;fill-rule:evenodd;stroke:none;stroke-width:70;stroke-linecap:round;stroke-linejoin:round;stroke-miterlimit:4;stroke-dasharray:none;stroke-dashoffset:0;stroke-opacity:1;color-rendering:auto;image-rendering:auto;shape-rendering:auto;text-rendering:auto;enable-background:accumulate"
         d="m 1219.4336,2271.0586 c -64.3078,0.1351 -129.5108,13.5882 -189.1445,44.418 -80.38871,41.5596 -146.2236,113.7515 -171.42777,205.4101 -20.89986,76.0054 -11.53163,160.2739 34.43945,228.9297 22.87465,34.1622 53.87915,62.813 91.19336,82.3906 37.41296,19.6296 79.74206,29.3462 122.93166,26.752 45.8793,-2.7558 89.3816,-19.2077 125.5898,-46.6016 36.1483,-27.3488 63.2987,-64.2625 79.0957,-106.1504 22.2631,-59.0332 20.6528,-124.2564 -4.4961,-182.1191 -20.6157,-47.4328 -55.655,-86.6503 -99.7539,-112.4746 18.8924,-0.7907 38.0362,-0.1052 57.0664,2.4004 31.6064,4.1614 61.3466,12.4961 86.8887,25.3984 25.3017,12.7808 47.7148,30.9053 64.2617,52.2363 16.4888,21.2562 28.6319,47.7495 35.4258,76.252 3.8345,16.0869 6.0396,33.934 7.5254,53.0273 -0.6859,16.45 -0.2852,32.9975 1.3594,49.5547 l 4.9101,115.3321 a 70.007,70.007 0 0 0 139.9004,-5.2442 l -3.8066,-117.459 c -0.442,-13.6452 -1.0841,-28.0064 -1.9942,-42.6641 4.676,-56.3805 31.9341,-112.901 73.8946,-149.3515 51.6592,-44.8757 130.3234,-63.436 196.5937,-46.3848 43.2197,11.1202 83.7462,36.8291 111.6504,71.0176 27.8511,34.1233 44.6344,78.7616 45.8301,122.2968 0.9308,33.8889 -7.1747,69.3483 -22.707,101.4239 -15.5919,32.1977 -38.9137,61.8874 -67.1661,86.5898 -56.6019,49.49 -133.8034,79.5041 -214.9492,91.5078 -163.5169,24.1888 -342.2853,-22.6836 -535.5644,-36.5761 -57.0316,-4.0994 -124.4923,-6.3634 -191.88284,21.9414 -34.04718,14.3002 -66.79334,36.3426 -92.3086,68.2988 -25.85871,32.3863 -42.71845,73.2384 -42.62695,118.5215 0.0919,45.5324 17.28164,86.3263 43.04687,118.6074 25.40247,31.8266 57.69417,53.8421 90.88282,68.6543 65.7202,29.3308 130.8658,30.6551 185.043,33.2305 131.9304,6.2712 268.6244,15.7109 408.5254,2.3945 140.301,-13.3544 284.9096,-50.8459 407.8945,-135.127 86.4995,-59.2778 151.5474,-132.2467 217.1582,-191.8789 4.2875,39.0702 13.2733,78.0131 28.2559,115.5742 26.302,65.9389 70.2863,126.082 130.9707,168.5137 61.1095,42.7292 136.7663,65.2458 213.8476,56.832 60.9499,-6.6528 118.1688,-32.2737 163.8457,-72.6015 45.6345,-40.2905 77.8114,-93.5021 92.7891,-152.1133 14.9644,-58.5593 12.2001,-120.1718 -7.2559,-176.9922 -19.4396,-56.7724 -54.7983,-106.6886 -101.2344,-144.0898 -45.9618,-37.0192 -100.3093,-59.9456 -156.1328,-70.043 -55.639,-10.0639 -111.7072,-7.3352 -164.6426,4.4121 -3.624,0.8043 -7.1831,1.7453 -10.7695,2.6289 34.6205,-73.9018 83.4702,-139.8254 144.9199,-187.1054 71.5547,-55.0549 163.7409,-84.6804 248.4981,-74.3907 45.4836,5.5218 90.1884,22.3581 128.125,48.2071 37.9186,25.8367 70.26,61.5083 93.5859,102.3242 23.3596,40.8749 38.5296,88.2501 46.4649,137.9394 7.9441,49.745 8.8424,103.5777 9.123,160.4453 l 1.6875,341.7344 a 70.007,70.007 0 0 0 140,-0.4004 l -0.2715,-345.3418 c -0.05,-64.8612 1.1371,-125.8403 12.8614,-180.8183 11.6995,-54.8619 34.3944,-106.6512 67.2871,-148.4063 32.9131,-41.7809 77.5099,-75.4767 127.1015,-96.6054 49.838,-21.2337 106.1405,-30.8117 162.8672,-29.6661 12.2153,0.2467 24.4332,1.0702 36.6192,2.3184 -103.2563,86.1754 -176.3064,206.8136 -201.8789,339.9551 -22.094,115.0303 -8.2758,240.5723 56.332,345.2851 32.2993,52.349 76.4889,97.8652 130.4707,130.4707 54.1181,32.6876 116.8142,51.4873 181.584,51.4746 61.4319,-0.01 121.0327,-16.933 173.2011,-46.5546 52.0509,-29.5549 95.5945,-71.0024 128.6856,-119.125 66.2001,-96.2712 87.4826,-213.8047 75.4023,-324.4297 -15.4984,-141.9254 -85.1709,-274.5295 -191.4062,-368.9825 -2.2077,-1.9627 -4.5125,-3.7995 -6.7481,-5.7265 37.1317,-3.6303 74.6278,-3.0502 111.3672,2.0293 86.3357,11.9364 169.7863,48.1012 235.0371,103.7558 65.0969,55.5234 113.2334,132.0901 132.67,213.9961 18.5352,78.1078 11.4016,163.4558 -19.8438,237.4024 -31.2454,73.9466 -87.4714,138.5496 -156.3984,179.7012 a 70.007,70.007 0 1 0 71.7675,120.205 c 95.0942,-56.7741 170.4846,-143.3966 213.5918,-245.416 43.1074,-102.0195 52.6734,-216.4566 27.1016,-324.2168 -26.7774,-112.8408 -90.8487,-213.8215 -178.0371,-288.1875 -87.0343,-74.2345 -194.7816,-120.4465 -306.7148,-135.9219 -101.7749,-14.0709 -206.2331,-2.303 -302.1368,33.5039 -66.0528,-25.8245 -136.5958,-40.069 -207.8379,-41.5078 -74.1802,-1.4981 -149.9518,10.7526 -220.5703,40.8399 -70.8649,30.1923 -134.091,77.6951 -182.2011,138.7676 -15.35,19.4858 -28.7111,40.1248 -40.5625,61.4511 -1.7012,-3.1403 -3.2859,-6.3214 -5.0645,-9.4336 -33.4419,-58.5171 -79.6751,-109.9688 -136.3047,-148.5547 -56.6116,-38.5734 -121.9915,-63.2256 -190.084,-71.4921 -127.2815,-15.4523 -253.0124,27.2183 -350.7441,102.414 -97.0159,74.645 -164.8448,177.8961 -207.1328,287.2735 -11.2374,29.0653 -20.9074,59.1884 -28.418,90.166 -29.6578,19.5738 -57.5572,41.064 -83.6836,63.416 -84.4069,72.2131 -151.1075,149.9615 -226.2851,201.4805 -96.4088,66.0685 -217.5503,99.3947 -342.0196,111.2421 -124.8696,11.8857 -254.8765,3.49 -388.6133,-2.8671 -54.466,-2.5891 -101.0278,-6.2374 -134.6308,-21.2344 -16.4728,-7.3518 -29.9971,-17.465 -38.5195,-28.1426 -8.1597,-10.2231 -12.4509,-22.7043 -12.4688,-31.5547 -0.018,-8.771 4.1627,-21.0299 12.0313,-30.8848 8.212,-10.2851 21.3296,-19.9444 37.1191,-26.5762 32.283,-13.5592 76.8322,-15.0302 127.6309,-11.3789 174.8948,12.5711 364.4546,65.2569 566.0878,35.4297 101.4294,-15.0042 204.2756,-52.6116 286.6153,-124.6055 41.2182,-36.039 76.3904,-80.1117 101.0176,-130.9687 24.6865,-50.9798 38.2532,-107.9259 36.6504,-166.2832 -2.0802,-75.7376 -29.7235,-148.6629 -77.3184,-206.9766 -47.542,-58.2487 -112.8901,-99.4667 -185.2246,-118.0781 -113.0736,-29.0935 -235.1457,-0.2916 -323.2891,76.2773 -17.6011,15.2899 -33.422,32.2453 -47.5019,50.42 -2.3902,-3.3472 -4.7464,-6.7121 -7.2832,-9.9825 -30.2539,-39.0011 -68.9049,-69.744 -111.7578,-91.3906 -42.6124,-21.5252 -87.6397,-33.4303 -131.7364,-39.2363 -20.998,-2.7647 -42.3336,-4.1993 -63.7695,-4.1543 z m 2574.5039,209.6406 c 31.2284,16.6261 60.4838,36.6926 86.6855,59.9883 79.9597,71.0915 133.7101,173.8049 145.2579,279.5527 8.9391,81.8596 -8.0762,166.6316 -51.5879,229.9082 -21.7647,31.6512 -50.3166,58.4566 -82.4551,76.7051 -32.0195,18.1809 -68.7172,28.2943 -104.0977,28.2988 -37.2523,0.01 -75.9632,-11.2515 -109.1738,-31.3105 l 0,0 c -33.3464,-20.1419 -62.4332,-49.6721 -83.705,-84.1484 -42.5351,-68.9386 -54.3859,-160.0132 -37.9922,-245.3653 21.688,-112.917 91.6521,-218.2791 187.0078,-283.9453 15.952,-10.9852 32.7331,-20.8235 50.0664,-29.6836 z m -2708.0898,37.9746 c 13.337,0.065 26.6615,2.521 38.4316,7.3614 23.5399,9.6807 44.7937,30.5159 54.9395,53.8593 10.1457,23.3435 10.8799,53.0966 1.8984,76.9121 -6.4962,17.2256 -18.3362,33.1352 -32.5703,43.9043 l 0,0 c -14.1744,10.7239 -32.3314,17.4697 -49.5157,18.5019 -16.2675,0.9772 -34.1599,-2.9321 -49.4921,-10.9765 -15.431,-8.0962 -29.6425,-20.9792 -39.9082,-36.3106 -15.86651,-23.6959 -22.95312,-56.1614 -20.26176,-87.7676 a 70.007,70.007 0 0 0 2.51758,-5.1699 c 10.37158,-23.2439 31.82618,-43.8721 55.45898,-53.3242 11.8164,-4.726 25.165,-7.0529 38.502,-6.9883 z m 1426.8125,305.9043 c 13.6711,0.2377 27.1415,1.5112 40.2207,3.877 34.6934,6.2754 67.5558,20.6317 93.2324,41.3125 25.7553,20.7442 46.0126,49.4856 56.6015,80.4101 10.5727,30.8769 12.0503,65.7263 4.0645,96.9766 -7.9725,31.1984 -25.9512,60.7661 -49.8047,81.8262 -23.8112,21.0227 -55.1804,34.9715 -86.3789,38.3769 -39.4186,4.3027 -83.4988,-7.9667 -118.4316,-32.3926 -35.3583,-24.7232 -64.0409,-62.7355 -81.1582,-105.6484 -17.2393,-43.2189 -23.755,-92.5469 -20.5977,-142.0996 0.4561,-7.1584 1.1625,-14.3384 2.0039,-21.5273 29.7005,-15.2191 60.1244,-27.0415 91.0762,-33.9102 23.041,-5.1132 46.3866,-7.5974 69.1719,-7.2012 z"
         id="path4140-7-4-0-8"
         inkscape:connector-curvature="0" />
      <path
         style="color:#000000;font-style:normal;font-variant:normal;font-weight:normal;font-stretch:normal;font-size:medium;line-height:normal;font-family:sans-serif;text-indent:0;text-align:start;text-decoration:none;text-decoration-line:none;text-decoration-style:solid;text-decoration-color:#000000;letter-spacing:normal;word-spacing:normal;text-transform:none;direction:ltr;block-progression:tb;writing-mode:lr-tb;baseline-shift:baseline;text-anchor:start;white-space:normal;clip-rule:nonzero;display:inline;overflow:visible;visibility:visible;opacity:1;isolation:auto;mix-blend-mode:normal;color-interpolation:sRGB;color-interpolation-filters:linearRGB;solid-color:#000000;solid-opacity:1;fill:#000000;fill-opacity:1;fill-rule:evenodd;stroke:none;stroke-width:70;stroke-linecap:round;stroke-linejoin:round;stroke-miterlimit:4;stroke-dasharray:none;stroke-dashoffset:0;stroke-opacity:1;color-rendering:auto;image-rendering:auto;shape-rendering:auto;text-rendering:auto;enable-background:accumulate"
         d="m 7570.418,699.00391 c -72.5366,1.29064 -145.2349,16.89215 -212.5879,48.23632 -77.2073,35.93007 -144.05,91.2564 -193.8555,160.17969 -3.6776,5.08923 -7.2145,10.24699 -10.6777,15.4375 -44.5376,-68.12881 -105.5394,-126.06733 -179.5957,-165.08203 -74.6508,-39.32788 -159.3621,-57.74682 -244.375,-51.58789 -126.9146,9.19456 -239.5464,71.23527 -323.1836,156.36719 -82.8118,84.29166 -135.9657,187.97881 -169.6367,292.57231 -10.5279,32.7031 -19.4598,66.9216 -26.0137,102.0703 -139.239,101.7177 -233.2327,226.0566 -341.1211,299.498 -99.5026,67.733 -222.9872,106.0506 -351.4395,122.0567 -128.8921,16.0605 -264.1699,10.8212 -403.0761,1.3652 -53.4422,-3.6381 -95.8994,-9.2667 -123.1758,-22.2988 -13.2362,-6.324 -23.1974,-14.411 -28.7012,-21.3907 -5.0728,-6.433 -7.1787,-13.8068 -7.2597,-16.3886 -0.081,-2.589 1.6531,-10.1376 6.3046,-16.6016 5.0728,-7.0494 14.6292,-15.3639 27.3477,-21.7285 26.3257,-13.174 67.9445,-18.6132 119.6133,-19.3457 177.2546,-2.5129 377.2572,31.5444 586.7656,-16.8945 100.584,-23.2554 202.4348,-67.0711 284.8984,-144.0333 83.7372,-78.1507 142.6462,-188.5105 142.2969,-312.0312 l 0,0 c -0.2391,-84.2601 -28.5859,-165.85241 -80.0957,-232.16402 -51.4791,-66.27212 -123.23,-113.64479 -203.9961,-135.31836 -126.3383,-33.90285 -261.9055,-1.30694 -359.0234,86.32227 -8.0783,7.28902 -15.6693,14.98385 -23.0352,22.85351 -28.4098,-31.65339 -61.9448,-57.84472 -98.832,-77.77539 -46.519,-25.13493 -95.9374,-39.4309 -144.5527,-46.17383 -92.686,-12.8555 -190.9295,0.80072 -277.1914,49.11133 -87.2593,48.86904 -156.0874,130.72668 -181.3321,232.75586 -20.4579,82.68313 -10.3361,173.75663 40.2403,249.96873 25.1784,37.9406 59.26,70.0426 100.8789,92.3496 41.7796,22.3934 89.1525,33.8115 138.1562,31.1973 52.4198,-2.7965 101.6693,-21.3662 142.7578,-52.5 40.9861,-31.0558 71.3465,-72.69 88.9903,-119.9805 24.8163,-66.5151 22.8298,-139.1572 -5.584,-204.21677 -12.3113,-28.18947 -29.0521,-53.69459 -49.3985,-75.75976 18.9278,4.51271 36.5785,10.89456 51.9629,19.20703 21.7012,11.72548 40.838,28.22658 54.6856,47.03711 13.7919,18.73508 24.3499,42.62269 30.3144,68.81639 2.1955,9.6415 3.7219,20.4274 5,31.7442 -1.1415,23.7577 -0.075,47.7402 3.2676,71.6953 l 4.7734,112.1035 a 100.01,100.01 0 0 0 199.8555,-7.4903 l -3.8047,-117.4609 c -0.594,-18.3374 -1.3298,-38.0605 -2.957,-58.7344 5.4584,-45.4 27.2598,-90.91038 59.7871,-120.25973 44.1214,-39.81064 115.8086,-57.04686 173.2051,-41.64453 37.9123,10.17377 73.9847,34.07378 97.8847,64.84179 23.8691,30.72807 37.9356,71.42697 38.045,110.04297 0.161,56.8625 -30.6213,120.3248 -78.7578,165.25 -49.4108,46.1144 -118.3277,78.0104 -193.4922,95.3887 -159.0521,36.7733 -343.5586,8.926 -544.5489,11.7754 -59.7392,0.8469 -132.9673,3.7807 -206.2812,40.4687 -37.1014,18.5664 -72.7127,45.5944 -100.1797,83.7637 -27.8881,38.7548 -45.5372,86.6021 -43.8711,139.6953 1.6302,51.9482 21.4063,97.5482 50.1152,133.9551 28.2778,35.8603 63.5367,60.8141 99.5274,78.0097 71.1773,34.0071 140.3929,37.6062 195.8125,41.3789 142.3823,9.6927 290.5068,16.3617 441.3906,-2.4394 151.3243,-18.8561 305.6883,-64.2724 439.252,-155.1914 93.7682,-63.8296 166.7219,-139.4855 235.6914,-206.2715 4.2451,15.1755 9.1379,30.3121 15.039,45.3535 27.1936,69.314 72.2057,133.5307 135.8008,180.5235 64.1933,47.4348 144.1857,74.5053 228.2871,68.6582 69.04,-4.8001 134.1723,-31.5321 186.7246,-75.8887 52.4993,-44.3119 89.4069,-103.6164 106.4336,-169.7207 17.0102,-66.0401 13.2693,-135.238 -10.0683,-198.8477 -23.316,-63.5503 -64.9653,-118.2478 -119.3321,-157.834 -88.3979,-64.3655 -196.4116,-80.1454 -294.7734,-64.3633 -3.8754,0.6218 -7.6949,1.3642 -11.5293,2.0762 24.5372,-54.4112 55.9157,-103.5911 94.623,-142.9902 54.0846,-55.05123 125.879,-92.04759 194.9668,-97.05278 46.1799,-3.3456 94.9792,7.07542 136.7032,29.05664 41.7899,22.01596 79.052,56.85451 106.0332,98.43554 27.0923,41.7522 45.4725,92.4593 55.3867,146.6856 9.9393,54.3632 11.7669,114.891 12.8223,180.166 l 5.6796,351.3183 0.01,0.416 a 100.01,100.01 0 0 0 199.9805,-2.8183 l -0.01,-0.416 -4.2656,-354.9278 c -0.8054,-67.0117 -0.2935,-128.5797 9.8965,-182.9687 10.1594,-54.2266 30.4683,-105.0962 60.0644,-146.0528 29.5688,-40.91868 70.4776,-74.74564 116.1367,-95.99409 45.7918,-21.31016 98.6841,-31.35416 151.2735,-29.39453 -91.1188,97.21332 -150.1175,220.78762 -172.3321,350.68162 -19.6651,114.9872 -11.6358,242.5586 50.8008,355.084 31.3101,56.4278 75.5299,106.9248 132.0723,144.0586 56.8376,37.3276 124.14,59.6564 195.2051,59.7422 68.8622,0.083 134.2508,-20.735 190.0371,-55.7793 55.5137,-34.873 99.699,-82.5244 131.9375,-136.1055 64.2996,-106.8675 77.9987,-229.6566 65.2207,-341.9336 -15.3907,-135.2342 -70.1539,-266.2564 -161.5879,-370.14646 15.0443,-0.45906 30.0377,-0.096 44.8535,1.35742 81.1515,7.96099 161.5879,45.10202 221.3203,101.72264 59.8271,56.7104 101.6669,135.2471 116.211,217.166 13.3021,74.9241 4.5182,155.0702 -24.6973,225.334 -29.2157,70.264 -79.8468,133.0115 -142.3496,176.416 a 100.01,100.01 0 1 0 114.0801,164.2754 c 94.5187,-65.6377 168.7606,-157.6491 212.9414,-263.9043 44.1806,-106.2552 57.0612,-223.7795 36.9453,-337.082 -22.0672,-124.2929 -83.3677,-239.98581 -175.541,-327.35743 -92.268,-87.46126 -212.1001,-143.12856 -339.3848,-155.61523 -95.4089,-9.35965 -190.3457,6.13866 -277.1582,41.46289 -65.8697,-29.04614 -137.1041,-46.41528 -210.584,-49.22656 -10.3397,-0.39559 -20.6982,-0.50274 -31.0605,-0.31836 z m 238.0019,277.43554 c 18.4454,13.43967 35.8259,28.30725 51.666,44.57225 70.4918,72.3828 115.8438,172.9871 127.627,276.5235 9.005,79.1246 -2.8603,158.0117 -37.875,216.207 -17.4187,28.9503 -40.9078,53.4968 -66.9551,69.8594 -25.774,16.1909 -55.9506,25.17 -83.4062,25.1367 -28.2965,-0.034 -59.4414,-9.6977 -85.6562,-26.9141 -26.51,-17.4102 -50.0798,-43.4684 -66.9786,-73.9238 -33.9805,-61.241 -42.3791,-143.4396 -28.5449,-224.332 18.6022,-108.7712 74.9478,-212.3165 156.5957,-281.6543 10.6783,-9.06837 21.9015,-17.5462 33.5293,-25.47465 z M 5011.1387,1022.875 c 9.5471,0.055 19.0847,1.7362 27.1113,5.0371 16.053,6.6018 31.8459,22.058 38.793,37.9649 6.947,15.9066 7.5499,37.9972 1.4824,54.2597 -4.4626,11.9612 -12.973,23.347 -22.3925,30.4844 -9.3169,7.0597 -21.8954,11.617 -32.627,12.1895 -10.1605,0.542 -22.579,-2.1599 -33.0195,-7.7559 -10.6013,-5.6821 -21.1342,-15.2361 -28.7168,-26.6621 -10.944,-16.4911 -16.9123,-40.4729 -16.2188,-64.8281 7.4482,-15.261 22.8215,-29.7589 38.418,-35.9648 8.0639,-3.2087 17.6208,-4.7813 27.168,-4.7266 z m 1526.5254,315.3789 c 39.9783,0.6777 78.0817,11.7498 105.1015,31.4238 22.0471,16.0532 40.0531,39.8513 49.2949,65.0411 9.2201,25.1303 10.7196,54.5779 4.1524,80.0742 -6.5507,25.4321 -22.0217,50.1149 -41.7559,66.7715 -19.681,16.6117 -46.3412,27.451 -71.5976,29.207 -30.8442,2.1439 -67.0821,-8.9493 -95.5567,-29.9903 -29.0734,-21.4834 -53.5859,-54.765 -68.4746,-92.7148 -13.417,-34.1988 -19.3697,-72.7707 -19.1719,-113.4727 32.5293,-16.5287 65.4641,-28.3048 97.7461,-33.4844 13.402,-2.1503 26.9357,-3.0794 40.2618,-2.8535 z"
         id="path4140-7-4-0-4"
         inkscape:connector-curvature="0" />
      <path
         style="fill:none;fill-rule:evenodd;stroke:#000000;stroke-width:70;stroke-linecap:round;stroke-linejoin:round;stroke-miterlimit:4;stroke-dasharray:none;stroke-opacity:1"
         d="m -3536.1432,1054.1539 c 18.4679,-39.7943 52.7153,-71.99965 93.5685,-87.98928 40.8532,-15.98964 87.8628,-15.5877 128.4366,1.09815 40.5738,16.68585 74.2655,49.47203 92.0503,89.57633 17.7847,40.1043 19.4669,87.0856 4.5959,128.3591 -10.7538,29.8466 -30.0022,56.6772 -55.2434,75.8955 -25.2412,19.2183 -56.4329,30.6706 -88.1415,31.6831 -29.1385,0.9304 -58.3643,-6.9023 -83.6613,-21.3931 -25.297,-14.4908 -46.6732,-35.5161 -62.4683,-60.0198 -31.5902,-49.0075 -40.1028,-110.6751 -30.7441,-168.2259 11.421,-70.23299 48.7731,-135.77597 102.7005,-182.19739 53.9274,-46.42142 123.9218,-73.54517 195.0102,-76.63565 47.1034,-2.04776 94.8179,6.34896 137.7233,25.89517 42.9054,19.54621 80.6407,50.29666 108.4187,88.39271 27.778,38.09606 45.326,83.11946 53.8861,129.48376 8.5601,46.3644 8.2171,93.8521 7.3362,140.9918 l -2.1951,117.4608 1.0711,-115.7788 c 0.4738,-51.215 1.5405,-102.8354 12.7862,-152.8028 11.2456,-49.96732 32.8281,-98.05084 65.9759,-137.09469 33.1478,-39.04384 77.5734,-68.50117 126.631,-83.21701 49.0575,-14.71583 102.2749,-14.71063 151.6303,-1.02684 67.5602,18.73108 127.5435,63.19702 165.5852,122.08729 38.0417,58.89027 53.9136,131.63235 44.4261,201.09615 -12.1188,88.7286 -64.5926,169.1993 -134.7064,224.9099 -70.1139,55.7107 -156.717,88.0732 -244.9762,103.237 -176.5185,30.3276 -356.7761,-5.3423 -535.6968,-13.4596 -53.5567,-2.4298 -108.9394,-2.0577 -158.3697,18.6996 -24.7152,10.3787 -47.5356,25.9035 -64.5782,46.5943 -17.0425,20.6907 -28.0577,46.7135 -28.8517,73.5076 -0.8191,27.6412 9.2717,55.0651 25.8908,77.1673 16.6192,22.1023 39.4768,39.0726 64.4468,50.9556 49.94,23.7661 106.7447,27.394 161.959,30.5885 133.0761,7.6994 266.9088,15.1486 399.3934,0.44 132.4847,-14.7087 264.7713,-52.779 374.1324,-128.9937 84.9712,-59.2172 153.1562,-139.1315 232.2204,-206.0316 70.0297,-59.2555 150.5641,-109.0275 240.1659,-128.6974 44.8009,-9.8349 91.4967,-11.9411 136.6734,-4.0099 45.1768,7.9313 88.7872,26.0641 124.9788,54.2424 37.0854,28.8742 66.0213,68.2318 81.9462,112.4522 15.925,44.2203 18.7047,93.1726 7.2965,138.7675 -11.4082,45.5949 -37.0421,87.6138 -72.7615,118.1616 -35.7193,30.5479 -81.4034,49.3931 -128.3131,52.3122 -56.9112,3.5414 -114.2065,-16.3823 -159.4155,-51.1325 -45.209,-34.7502 -78.6198,-83.6349 -98.8147,-136.9602 -40.3899,-106.6507 -28.3865,-226.2463 0.13,-336.666 24.6081,-95.2859 61.8051,-188.8202 122.3754,-266.38444 60.5703,-77.56423 146.4419,-138.23062 243.4054,-155.0548 71.249,-12.36246 146.1463,-0.41629 211.0514,31.46762 64.9051,31.8839 119.5445,83.22643 158.5357,144.12749 38.9913,60.90103 62.4447,130.87753 74.4731,202.18373 12.0284,71.3062 12.827,143.9687 13.1718,216.2815 l 1.6867,353.7345 -0.2704,-357.3424 c -0.053,-70.2902 0.5221,-140.9673 12.7085,-210.1931 12.1864,-69.2257 36.0898,-136.8445 74.4351,-195.75417 38.3454,-58.90969 90.938,-108.62288 152.4771,-142.58825 61.5392,-33.96537 131.62589,-52.09829 201.91034,-53.00012 135.78976,-1.74234 269.09751,61.91017 360.52347,162.32526 91.42596,100.41508 141.835,235.03628 148.89223,370.65368 5.08392,97.6968 -12.50021,198.9311 -65.38529,281.2334 -26.44254,41.1512 -61.50245,77.0193 -103.23137,102.5403 -41.72891,25.5211 -90.18666,40.4754 -139.10044,40.7364 -51.66076,0.2757 -102.95948,-15.878 -146.4717,-43.7276 -43.51222,-27.8495 -79.30609,-67.1191 -105.13729,-111.859 -51.66239,-89.4799 -62.60075,-198.1518 -48.02026,-300.4409 20.29881,-142.4058 89.918,-278.7375 199.13278,-372.35152 109.21477,-93.614 258.16551,-141.8469 400.60007,-121.75102 109.51452,15.45124 212.59998,70.47724 288.297229,151.11282 75.69725,80.63562 123.900699,186.11312 137.931766,295.81862 12.093466,94.5559 -0.872991,192.2026 -37.224279,280.3256 -36.351287,88.1229 -96.000975,166.5125 -171.243116,225.0419"
         id="path4140-7-4-0-3"
         inkscape:path-effect="#path-effect4142-0-1-0-9-5"
         inkscape:original-d="m -3536.1432,1054.1539 c 31.9261,35.2199 288.0678,79.0066 318.6513,131.0443 32.9639,56.0879 -84.3527,116.8236 -143.3849,107.5786 -100.7543,-15.7791 -189.0175,-148.3819 -176.8737,-249.6388 15.6584,-130.56268 166.7512,-270.72443 297.7107,-258.83304 163.4804,14.84435 311.7525,149.95084 307.3643,384.76344 l -2.1951,117.4608 1.0711,-115.7788 c 7.4058,-260.4946 185.3819,-390.12779 357.0234,-374.14134 127.9213,11.91441 251.8509,201.7122 210.0113,323.18344 -105.0764,305.0643 -620.4344,183.8715 -915.3794,314.6873 -87.6101,38.8574 -249.0338,43.0008 -251.7996,138.8015 -2.8672,99.3137 154.8909,139.1269 252.2966,158.7114 256.2502,51.522 537.6252,-15.9943 773.5258,-128.5537 93.3944,-44.5629 138.6135,-161.9166 232.2204,-206.0316 153.1496,-72.1764 388.4934,-204.2495 501.8181,-78.4649 97.3394,108.0417 32.8804,407.3293 -111.8319,421.6935 -193.979,19.2545 -283.1488,-331.4425 -258.1002,-524.7587 23.9024,-184.4706 179.8486,-426.91094 365.7808,-421.43924 249.7738,7.35046 455.8951,323.20514 457.232,594.06034 l 1.6867,353.7345 -0.2704,-357.3424 c -0.1803,-230.2796 193.3242,-585.42796 441.53104,-601.53564 245.24166,-15.91526 492.76974,287.78584 509.4157,532.97894 11.83769,174.3679 -132.9939,428.5222 -307.7171,424.5101 -181.83688,-4.1754 -326.84204,-276.1899 -299.62925,-456.0275 38.75321,-256.1034 341.17992,-509.63119 599.73285,-494.10254 205.49343,12.3419 388.31538,244.58904 426.228995,446.93144 33.560185,179.1084 -208.467395,505.3675 -208.467395,505.3675"
         inkscape:connector-curvature="0"
         sodipodi:nodetypes="csaaasccaaaaaaaaaaacccaaaaaac" />
      <path
         style="color:#000000;font-style:normal;font-variant:normal;font-weight:normal;font-stretch:normal;font-size:medium;line-height:normal;font-family:sans-serif;text-indent:0;text-align:start;text-decoration:none;text-decoration-line:none;text-decoration-style:solid;text-decoration-color:#000000;letter-spacing:normal;word-spacing:normal;text-transform:none;direction:ltr;block-progression:tb;writing-mode:lr-tb;baseline-shift:baseline;text-anchor:start;white-space:normal;clip-rule:nonzero;display:inline;overflow:visible;visibility:visible;opacity:1;isolation:auto;mix-blend-mode:normal;color-interpolation:sRGB;color-interpolation-filters:linearRGB;solid-color:#000000;solid-opacity:1;fill:#000000;fill-opacity:1;fill-rule:evenodd;stroke:none;stroke-width:70;stroke-linecap:round;stroke-linejoin:round;stroke-miterlimit:4;stroke-dasharray:none;stroke-dashoffset:0;stroke-opacity:1;color-rendering:auto;image-rendering:auto;shape-rendering:auto;text-rendering:auto;enable-background:accumulate"
         d="m -686.50391,2092.3574 c -76.00436,0.9752 -151.60502,20.5042 -218.37304,57.3555 -66.80257,36.8704 -123.48215,90.5093 -164.89845,154.1367 -24.8194,38.1298 -43.7483,79.3449 -57.7871,121.9649 -14.0185,-45.5911 -33.4527,-89.801 -59.6074,-130.6524 -42.1808,-65.8829 -101.3061,-121.6573 -172.5801,-156.6699 -71.3637,-35.0566 -153.4051,-48.2572 -232.4668,-34.5391 -107.4976,18.652 -200.0098,84.7639 -265.0078,167.9981 -64.6929,82.8434 -103.321,180.9892 -128.6777,279.1738 -7.5643,29.2898 -14.0657,59.4333 -18.8457,90.0293 -36.244,21.6614 -70.1739,46.8072 -101.7618,73.5352 -81.9814,69.3685 -149.5643,148.2415 -229.623,204.0351 -102.9844,71.7708 -229.5411,108.6621 -357.9824,122.9219 -128.6274,14.2803 -260.485,7.1007 -393.5098,-0.5957 -55.0708,-3.1862 -107.0524,-7.3153 -148.9414,-27.25 -20.7785,-9.8883 -38.985,-23.7271 -51.5117,-40.3867 -12.3513,-16.4264 -19.4276,-36.6466 -18.8809,-55.0957 0.53,-17.885 8.2911,-37.0058 20.8828,-52.293 12.7569,-15.4877 30.7948,-28.0438 51.1133,-36.5762 40.9633,-17.2017 90.9287,-18.3788 143.2324,-16.0058 175.3465,7.9551 358.2578,44.7666 543.209,12.9902 92.684,-15.924 184.8886,-49.9918 260.8242,-110.3281 76.3071,-60.6317 134.0433,-148.237 147.6114,-247.5762 10.6391,-77.8956 -6.9431,-158.6267 -49.7051,-224.8242 -42.7835,-66.2309 -109.4718,-115.708 -185.6348,-136.8242 -55.5952,-15.4138 -115.3051,-15.4875 -171.0371,1.2304 -55.7998,16.7384 -105.7437,49.9056 -143.2559,94.0899 -20.606,24.2713 -36.8993,51.3648 -49.5624,79.873 -9.2874,-21.0031 -20.5829,-41.2399 -34.336,-60.1015 -31.3858,-43.0441 -73.7268,-77.5452 -122.1894,-99.6231 -48.3728,-22.0369 -101.4782,-31.2844 -153.7539,-29.0117 -78.9701,3.4331 -156.1551,33.2835 -216.3223,85.0762 -60.2164,51.835 -101.6063,124.3445 -114.4141,203.1054 -10.5342,64.7794 -1.4099,134.9677 35.8731,192.8067 18.6465,28.9272 43.8999,53.9059 74.4883,71.4277 30.6655,17.5661 66.0285,27.1601 102.1757,26.0059 39.3913,-1.2579 77.2602,-15.241 108.2266,-38.8184 30.9098,-23.5343 53.9677,-55.7951 66.9687,-91.8789 18.0275,-50.0341 16.0323,-105.7955 -5.5273,-154.4121 -21.5597,-48.6166 -61.5485,-87.5304 -110.7344,-107.7578 -48.8372,-20.0842 -104.1764,-20.6463 -153.4375,-1.6797 12.2622,-16.8009 26.3576,-32.2406 42.0469,-45.7461 47.6877,-41.0502 110.4905,-65.4475 173.6973,-68.1953 41.931,-1.8229 84.2553,5.7238 121.6933,22.7793 37.3482,17.0145 70.4783,44.0139 94.6485,77.1621 24.1778,33.1585 40.004,73.2743 47.748,115.2187 4.8559,26.3009 6.4637,53.9246 6.8926,82.3301 -0.6957,18.1116 -1.0991,36.0821 -1.2617,53.6641 l -1.0664,115.4492 -0,0.3301 a 35.0035,35.0035 0 0 0 69.9921,0.9785 l 2.1954,-117.4609 c 0.3172,-16.9769 0.4168,-34.355 0.2109,-51.8887 1.3228,-31.9081 4.0057,-62.8855 10.6035,-92.2012 10.1955,-45.3012 29.6884,-88.1768 58.5117,-122.1269 28.7837,-33.9034 67.6905,-59.6523 110.0059,-72.3457 42.383,-12.7137 89.1071,-12.7781 132.2226,-0.8243 58.9574,16.346 112.2373,55.8018 145.5372,107.3516 33.3213,51.5829 47.4823,116.3371 39.1464,177.3691 -10.6695,78.118 -57.8802,151.4525 -121.8007,202.2422 -64.2922,51.0849 -145.2945,81.7429 -229.1289,96.1465 -168.0858,28.8788 -345.6907,-5.6502 -528.1856,-13.9297 -54.8096,-2.4866 -115.6085,-2.9183 -173.5059,21.3946 -29.1119,12.225 -56.7146,30.7173 -78.0429,56.6113 -21.4933,26.0942 -35.7623,59.0194 -36.8203,94.7226 -1.0915,36.8333 12.0135,71.4603 32.9004,99.2383 20.7116,27.545 48.2193,47.6477 77.3808,61.5254 57.991,27.5975 119.6207,30.723 174.9785,33.9258 133.1274,7.7024 268.9335,15.422 405.2754,0.2852 136.5281,-15.1577 274.5455,-54.4058 390.2832,-135.0645 89.8837,-62.6408 158.6695,-143.5957 234.8164,-208.0273 15.6131,-13.211 31.7382,-25.7679 48.2461,-37.6133 -1.4256,60.0732 6.2229,120.4739 28.1699,178.4258 22.214,58.6568 59.0394,112.9765 110.2168,152.3144 51.4125,39.5185 116.434,62.4517 182.92,58.3145 54.8234,-3.4116 107.3683,-25.1372 148.8867,-60.6446 41.4817,-35.4758 70.791,-83.6064 83.9668,-136.2656 13.1649,-52.616 9.9547,-108.3771 -8.3203,-159.123 -18.2612,-50.7078 -51.0882,-95.2851 -93.375,-128.209 -41.2026,-32.0798 -90.0808,-52.2607 -140.4278,-61.0996 -50.2617,-8.824 -101.4767,-6.4058 -150.2304,4.2968 -25.7635,5.6558 -50.6425,13.5938 -74.6875,23.2715 2.4394,-11.0896 4.961,-22.1701 7.8007,-33.166 23.8595,-92.3872 59.6246,-181.3088 116.0723,-253.5937 56.1426,-71.8943 135.3753,-127.1169 221.8047,-142.1133 63.4363,-11.0069 131.1882,-0.3128 189.6348,28.3984 58.5361,28.7552 108.6905,75.6647 144.4922,131.584 35.8632,56.0152 58.0256,121.4834 69.4375,189.1348 11.4219,67.7111 12.3394,138.46 12.6835,210.6269 l 1.6856,353.2754 0,0.3184 0,0 0,0.1406 a 35.0035,35.0035 0 0 0 69.9981,-0.1934 l 0,-0.1406 0,-0.027 -0.2695,-357.1758 c -0.053,-70.0816 0.6639,-138.6928 12.1777,-204.0977 11.5062,-65.3621 34.0058,-128.5081 69.2988,-182.7285 35.27458,-54.192 83.78088,-99.9787 140.05667,-131.0391 56.31033,-31.0793 120.88273,-47.818 185.44726,-48.6464 46.85864,-0.6013 93.72646,7.4066 138.49414,22.5859 -21.11949,13.6614 -41.42341,28.5848 -60.51953,44.9531 -116.38291,99.7582 -189.5678,243.6019 -211.00391,393.9864 -15.41429,108.1385 -4.36888,224.6267 52.35938,322.8808 28.39735,49.1845 67.826,92.6334 116.58008,123.8379 48.85641,31.2701 106.44524,49.5633 165.52539,49.2481 55.92378,-0.2985 110.34975,-17.2387 157.17578,-45.877 46.73703,-28.584 85.36555,-68.2718 114.41406,-113.4785 58.03385,-90.3151 76.26132,-198.8401 70.89453,-301.9727 -7.44426,-143.0549 -60.36865,-285.2043 -157.96679,-392.3984 -26.8092,-29.4451 -57.01899,-55.8047 -89.64258,-78.7149 64.8445,-20.4576 133.55522,-27.4273 200.15234,-18.0312 101.140666,14.2697 197.3869347,65.542 267.669924,140.4101 70.347736,74.9371 115.622936,173.8049 128.732426,276.3047 11.30939,88.4254 -0.86881,180.1295 -34.86329,262.5391 -33.99446,82.4095 -90.013093,156.027 -160.376949,210.7617 a 35.0035,35.0035 0 1 0 42.978516,55.252 c 80.120433,-62.3242 143.401263,-145.484 182.109373,-239.3203 38.70811,-93.8364 52.46348,-197.4269 39.58594,-298.1133 -14.95265,-116.9112 -66.0841,-228.9999 -147.13086,-315.334 -81.111523,-86.4031 -191.037406,-145.1818 -308.92578,-161.8145 -98.06167,-13.8353 -198.00147,2.3223 -287.85156,41.7969 -68.11834,-32.4568 -142.99129,-50.475 -219.28907,-49.4961 z m 217.98243,127.9082 c 43.58552,24.5822 83.48332,56.0464 117.10937,92.9785 85.25378,93.6361 133.15011,220.7283 139.82031,348.9082 4.80106,92.2611 -12.14064,186.2047 -59.87695,260.4942 -23.83657,37.0956 -55.32804,69.1453 -92.04883,91.6035 -36.63181,22.4037 -79.12161,35.3702 -121.02539,35.5938 -44.24137,0.2361 -89.24994,-13.778 -127.41797,-38.2071 -38.27034,-24.4945 -70.42833,-59.5836 -93.69336,-99.8789 -46.59649,-80.7057 -57.42833,-181.5625 -43.68164,-278.0019 19.16152,-134.4272 85.21509,-263.247 187.26172,-350.7168 28.52073,-24.4467 60.09193,-45.4332 93.55274,-62.7735 z M -3186.5508,2333.543 c 17.5741,0.1502 35.1207,3.5177 51.1016,10.0898 31.9617,13.1441 59.3573,39.8026 73.3672,71.3945 14.0098,31.592 15.3766,69.7936 3.6621,102.3067 -8.5065,23.6093 -23.945,45.0098 -43.5176,59.9121 -19.516,14.8592 -44.0307,23.7816 -68.0566,24.5488 -22.1298,0.7066 -45.2181,-5.3657 -65.1465,-16.7812 -20.0057,-11.4598 -37.5036,-28.5331 -50.4473,-48.6133 -22.0347,-34.1836 -30.922,-77.7558 -28.0781,-120.9902 a 35.0035,35.0035 0 0 0 1.2715,-2.5235 c 14.5479,-31.3477 42.3942,-57.5331 74.5761,-70.1289 16.091,-6.2979 33.6935,-9.3651 51.2676,-9.2148 z m 1427.6348,305.3496 c 15.4408,0.2427 30.7684,1.6418 45.8027,4.2812 40.0067,7.0237 78.3487,23.108 109.5293,47.3848 31.884,24.8244 56.929,58.9622 70.5176,96.6953 13.5749,37.6946 15.9249,79.8383 6.2734,118.4121 -9.6406,38.5306 -31.5995,74.4388 -61.5566,100.0586 -29.9202,25.5884 -68.7423,41.5519 -107.7383,43.9785 -47.3365,2.9456 -96.9065,-13.9673 -135.9121,-43.9492 -39.2405,-30.1625 -69.2383,-73.6117 -87.4141,-121.6055 -23.3625,-61.6893 -27.5336,-129.9047 -20.3222,-199.0156 33.2317,-17.1614 67.8088,-30.3999 103.5058,-38.2363 25.5301,-5.6045 51.5798,-8.4085 77.3145,-8.0039 z"
         id="path4140-7-4-0-3-3"
         inkscape:connector-curvature="0" />
    </g>
  </g>
</svg>
