<?xml version="1.0" encoding="UTF-8" standalone="no"?>
<!-- Created with Inkscape (http://www.inkscape.org/) -->

<svg
   xmlns:dc="http://purl.org/dc/elements/1.1/"
   xmlns:cc="http://creativecommons.org/ns#"
   xmlns:rdf="http://www.w3.org/1999/02/22-rdf-syntax-ns#"
   xmlns:svg="http://www.w3.org/2000/svg"
   xmlns="http://www.w3.org/2000/svg"
   xmlns:sodipodi="http://sodipodi.sourceforge.net/DTD/sodipodi-0.dtd"
   xmlns:inkscape="http://www.inkscape.org/namespaces/inkscape"
   width="2000"
   height="2048"
   id="svg2992"
   version="1.1"
   inkscape:version="0.91pre2 r13516"
   sodipodi:docname="ജ്ജ.svg">
  <defs
     id="defs5498">
    <inkscape:path-effect
       is_visible="true"
       id="path-effect4142"
       effect="spiro" />
    <inkscape:path-effect
       is_visible="true"
       id="path-effect4142-0"
       effect="spiro" />
    <inkscape:path-effect
       is_visible="true"
       id="path-effect4142-0-1"
       effect="spiro" />
    <inkscape:path-effect
       is_visible="true"
       id="path-effect4142-0-1-0"
       effect="spiro" />
    <inkscape:path-effect
       is_visible="true"
       id="path-effect4142-0-1-0-4"
       effect="spiro" />
    <inkscape:path-effect
       is_visible="true"
       id="path-effect4142-0-1-0-3"
       effect="spiro" />
    <inkscape:path-effect
       is_visible="true"
       id="path-effect4142-0-1-0-4-7"
       effect="spiro" />
  </defs>
  <sodipodi:namedview
     inkscape:window-height="853"
     inkscape:window-width="1600"
     inkscape:pageshadow="2"
     inkscape:pageopacity="0.0"
     borderopacity="1.0"
     bordercolor="#666666"
     pagecolor="#ffffff"
     id="base"
     showgrid="true"
     showguides="true"
     inkscape:guide-bbox="true"
     inkscape:zoom="0.32102648"
     inkscape:cx="1456.8155"
     inkscape:cy="697.78964"
     inkscape:window-x="1598"
     inkscape:window-y="-3"
     inkscape:current-layer="layer1-1"
     inkscape:window-maximized="1">
    <sodipodi:guide
       orientation="horizontal"
       position="0,600"
       id="guide5596" />
    <inkscape:grid
       type="xygrid"
       id="grid3769"
       empspacing="3"
       visible="true"
       enabled="true"
       snapvisiblegridlinesonly="true"
       spacingx="4px"
       units="px"
       dotted="true"
       spacingy="4px" />
    <sodipodi:guide
       orientation="0,1"
       position="-1040,1600"
       id="guide2985" />
  </sodipodi:namedview>
  <metadata
     id="metadata5594">
    <rdf:RDF>
      <cc:Work
         rdf:about="">
        <dc:format>image/svg+xml</dc:format>
        <dc:type
           rdf:resource="http://purl.org/dc/dcmitype/StillImage" />
        <dc:title />
      </cc:Work>
    </rdf:RDF>
  </metadata>
  <g
     inkscape:label="Layer 1"
     inkscape:groupmode="layer"
     id="layer1"
     transform="translate(0,1048)">
    <g
       id="layer1-1"
       inkscape:label="Layer 1"
       transform="translate(831.48619,-308.93417)">
      <path
         style="color:#000000;font-style:normal;font-variant:normal;font-weight:normal;font-stretch:normal;font-size:medium;line-height:normal;font-family:sans-serif;text-indent:0;text-align:start;text-decoration:none;text-decoration-line:none;text-decoration-style:solid;text-decoration-color:#000000;letter-spacing:normal;word-spacing:normal;text-transform:none;direction:ltr;block-progression:tb;writing-mode:lr-tb;baseline-shift:baseline;text-anchor:start;clip-rule:nonzero;display:inline;overflow:visible;visibility:visible;opacity:1;isolation:auto;mix-blend-mode:normal;color-interpolation:sRGB;color-interpolation-filters:linearRGB;solid-color:#000000;solid-opacity:1;fill:#000000;fill-opacity:1;fill-rule:evenodd;stroke:none;stroke-width:139.69628906;stroke-linecap:round;stroke-linejoin:round;stroke-miterlimit:4;stroke-dasharray:none;stroke-dashoffset:0;stroke-opacity:1;color-rendering:auto;image-rendering:auto;shape-rendering:auto;text-rendering:auto;enable-background:accumulate"
         d="M 1894.4141 424.13867 C 1890.5613 424.12804 1886.7036 424.14914 1882.8418 424.20117 C 1790.1579 425.44987 1695.166 445.05114 1611.2812 497.0957 C 1555.1096 531.94627 1506.0554 580.64036 1473.6445 641.5918 C 1469.365 649.63988 1465.4215 657.87715 1461.791 666.25977 A 69.855129 69.855129 0 0 0 1458.3555 674.53711 C 1438.0012 725.15874 1429.7317 780.99775 1437.5195 836.84766 A 69.855129 69.855129 0 0 0 1437.1836 838.61133 C 1416.3225 962.10865 1351.3909 1079.3453 1257.7715 1162.5449 C 1150.1649 1258.1749 1003.9818 1311.8057 853.00977 1334.209 C 701.45643 1356.6985 542.73699 1350.1798 380.58398 1343.668 C 322.56493 1341.338 272.18713 1337.5413 235.14844 1320.9473 C 216.95766 1312.7974 201.83319 1301.5104 192.125 1289.2812 C 182.774 1277.5021 177.7303 1263.0754 177.72656 1252.209 C 177.72256 1241.4441 182.67535 1227.2686 191.75977 1215.8828 C 201.18241 1204.0731 215.92346 1193.2779 233.46289 1185.8926 C 269.23793 1170.8287 317.66409 1169.356 372.07031 1173.4004 C 560.51588 1187.4088 763.69987 1246.8873 979.88867 1216.082 C 1088.6408 1200.5857 1198.9303 1160.2852 1286.2129 1082.5254 C 1329.9074 1043.5981 1366.8364 995.93191 1392.0039 941.10352 C 1417.2336 886.13984 1430.0826 824.91062 1426.2188 762.76367 C 1421.2977 683.61207 1389.3915 608.16668 1336.5918 549.3418 C 1283.823 490.55137 1212.5661 450.94724 1135.125 436.70703 C 1037.8923 418.82747 936.48293 442.13116 856.80859 500.66211 C 835.89628 516.02487 816.90956 533.58891 799.97656 552.8457 C 792.72534 542.51024 784.76443 532.57227 775.89844 523.24414 C 744.78989 490.5141 706.89682 467.79931 667.55859 453.23633 C 628.59996 438.81389 590.18024 432.73178 554.72461 429.00586 C 524.83968 425.86535 494.20319 424.24196 463.30859 424.6582 C 370.62476 425.9069 275.63274 445.51015 191.74805 497.55469 C 135.57637 532.40527 86.522198 581.09934 54.111328 642.05078 C 49.833008 650.09653 45.889356 658.33084 42.259766 666.71094 A 69.855129 69.855129 0 0 0 38.822266 674.99609 C 17.365866 728.35866 9.3246094 787.51994 19.380859 846.37891 C 33.063989 926.46593 80.010309 1000.1946 153.73047 1041.8965 C 163.01801 1047.1502 172.62712 1051.8137 182.49219 1055.8711 C 181.41222 1056.3109 180.33168 1056.6899 179.25195 1057.1445 C 143.49601 1072.2004 109.20576 1095.365 82.5625 1128.7578 C 55.58104 1162.5745 38.01566 1205.1933 38.03125 1252.2559 C 38.04755 1299.6286 55.853221 1342.3043 82.712891 1376.1387 C 109.21536 1409.5231 143.07313 1432.7717 178.03125 1448.4336 C 247.29036 1479.463 316.61296 1480.9081 374.97852 1483.252 C 536.7987 1489.7504 704.34666 1497.4961 873.51562 1472.3926 C 1043.2659 1447.2027 1215.8184 1386.7189 1350.5703 1266.9648 C 1429.4378 1196.8753 1491.3238 1109.1173 1531.5625 1012.1484 C 1544.3135 1023.098 1558.2311 1032.9358 1573.2637 1041.4395 C 1584.2939 1047.679 1595.8147 1052.9911 1607.6445 1057.5332 C 1605.4047 1058.4342 1603.1638 1059.2817 1600.9258 1060.2441 C 1566.1997 1075.1784 1532.8549 1097.5529 1506.2852 1129.3164 C 1479.4354 1161.4147 1460.8211 1201.7541 1457.7266 1247.0098 C 1454.4574 1294.8198 1469.0668 1339.7497 1494.3691 1376.4961 C 1519.3969 1412.8437 1553.415 1439.3319 1590.1152 1456.998 C 1662.8717 1492.0204 1739.8965 1491.1753 1806.5977 1482.2305 C 2024.0839 1453.065 2202.0015 1333.6895 2374.3613 1244.5254 C 2373.0092 1269.7799 2375.4753 1295.2258 2381.9805 1319.9824 C 2394.4707 1367.515 2420.8894 1410.1237 2457.9121 1442.4453 C 2499.5966 1478.8368 2552.4777 1500.2108 2608.2617 1502.2852 C 2664.1403 1504.3631 2719.128 1486.8904 2763.4824 1452.0488 C 2807.9158 1417.1452 2838.3623 1367.3561 2848.5332 1311.2852 C 2858.7231 1255.1094 2847.6966 1197.1174 2816.6992 1148.6016 C 2792.661 1110.978 2759.0812 1082.7819 2721.7363 1063.8262 C 2757.8007 1028.7061 2788.4643 987.28548 2810.4316 940.42773 C 2836.0492 885.78367 2849.3131 824.74356 2845.7715 762.66211 C 2841.2405 683.23878 2809.3155 607.53408 2756.373 548.63086 C 2703.4733 489.77525 2632.025 450.30714 2554.5137 436.22266 C 2457.3455 418.56632 2356.089 441.94634 2276.498 500.41602 C 2255.5845 515.77963 2236.5938 533.34211 2219.6523 552.5957 C 2212.3635 542.1852 2204.3568 532.17752 2195.4316 522.78711 C 2164.3231 490.05701 2126.4281 467.34031 2087.0898 452.77734 C 2048.1312 438.35492 2009.7134 432.2728 1974.2578 428.54688 C 1948.1085 425.79893 1921.3836 424.21311 1894.4141 424.13867 z M 1894.6016 563.98828 C 1916.1449 563.9888 1937.9191 565.19402 1959.6582 567.47852 C 1989.3527 570.59902 2016.116 575.46466 2038.5918 583.78516 C 2060.6879 591.96511 2080.1518 604.27438 2094.1738 619.02734 C 2108.0333 633.60921 2118.8082 653.16445 2124.6211 674.39258 C 2129.7922 693.277 2131.6254 716.98999 2132.4629 744.25391 C 2132.3629 745.01367 2132.2158 745.76266 2132.1211 746.52344 A 69.855129 69.855129 0 0 0 2131.6133 757.09375 L 2136.875 946.49414 L 2136.8867 946.95117 A 69.855129 69.855129 0 0 0 2276.5391 943.5293 L 2276.5293 943.07227 L 2272.4824 752.53516 C 2282.4208 698.02059 2314.7585 645.64829 2359.2031 612.99805 C 2406.6981 578.10689 2471.555 563.13175 2529.5391 573.66797 C 2576.1667 582.14061 2621.034 607.03093 2652.4766 642.01367 C 2683.8765 676.94883 2703.6475 724.07571 2706.3027 770.61914 C 2708.4001 807.38483 2700.3543 846.1294 2683.9453 881.13086 C 2667.471 916.27161 2642.3268 948.63383 2611.7207 975.40625 C 2585.2829 998.53247 2554.6201 1017.5643 2521.2656 1032.7227 C 2520.7531 1032.946 2520.259 1033.2106 2519.748 1033.4375 C 2509.5442 1038.0269 2499.0771 1042.2299 2488.416 1046.0996 C 2472.822 1050.0912 2457.7404 1054.9115 2442.998 1060.168 C 2421.9396 1065.6214 2400.356 1069.8318 2378.5293 1072.8223 C 2209.1815 1096.0247 2025.5044 1048.3672 1827.2871 1035.1914 C 1858.954 1014.225 1884.6789 986.17783 1903.0488 953.81055 C 1923.0691 918.53524 1933.7955 879.44017 1935.7109 839.99805 C 1938.3696 785.24986 1924.0176 731.02496 1894.6211 684.76172 C 1865.2247 638.49849 1822.2304 602.47247 1771.5371 581.625 C 1770.2903 581.11227 1769.0049 580.72945 1767.752 580.23633 C 1804.7646 569.87783 1844.5632 564.72052 1885.3828 564.0625 C 1888.4502 564.01305 1891.5239 563.98821 1894.6016 563.98828 z M 475.4668 564.44727 C 478.41139 564.44879 481.35966 564.47275 484.3125 564.51953 C 502.83066 564.81292 521.49149 565.97937 540.125 567.9375 C 569.81953 571.05801 596.58289 575.92367 619.05859 584.24414 C 641.15467 592.42409 660.61851 604.73139 674.64062 619.48438 C 688.50005 634.06623 699.27494 653.62138 705.08789 674.84961 C 710.25891 693.73355 712.09221 717.44788 712.92969 744.71094 C 712.82499 745.52028 712.66949 746.31841 712.57031 747.12891 A 69.855129 69.855129 0 0 0 712.08008 757.55078 L 717.3418 946.95312 L 717.35352 947.41016 A 69.855129 69.855129 0 0 0 857.00586 943.98633 L 856.99609 943.53125 L 852.94531 752.83008 C 862.78035 698.30857 895.08203 645.88627 939.51562 613.24414 C 987.00334 578.35836 1051.9084 563.44298 1109.8613 574.09961 C 1156.4089 582.65899 1201.1908 607.62645 1232.6309 642.6543 C 1264.04 677.64768 1283.8892 724.76066 1286.791 771.43359 C 1289.093 808.45932 1281.2674 847.48503 1265.0449 882.82617 C 1248.7604 918.30262 1223.7823 951.04891 1193.2852 978.21875 C 1132.1844 1032.6533 1048.1726 1065.2435 960.18359 1077.7812 C 789.88727 1102.0472 605.47631 1053.7372 406.92969 1036.1816 C 438.97295 1015.1596 464.98788 986.91307 483.51562 954.26758 C 503.53593 918.99225 514.26236 879.89916 516.17773 840.45703 C 518.83636 785.70889 504.48427 731.4839 475.08789 685.2207 C 445.69152 638.95752 402.69722 602.93145 352.00391 582.08398 C 350.75657 581.57101 349.47033 581.18864 348.2168 580.69531 C 388.13163 569.52432 431.29794 564.42441 475.4668 564.44727 z M 1671.2559 701.50195 C 1687.4568 701.64655 1703.7662 704.80356 1718.4062 710.82422 C 1741.8303 720.45728 1763.1297 738.30469 1776.7129 759.68164 C 1790.2962 781.05858 1797.4082 807.92501 1796.1797 833.22266 C 1795.2875 851.5957 1790.107 869.79193 1781.5566 884.85742 C 1773.0577 899.83232 1760.5274 912.75693 1746.666 921.05273 C 1732.0711 929.7875 1713.6792 934.71599 1695.7402 934.56055 C 1677.6965 934.4042 1658.5661 929.19332 1642.0449 919.84766 C 1609.4313 901.39883 1583.5067 862.73039 1576.6152 822.39453 C 1571.8575 794.54768 1574.9569 763.94825 1584.8027 735.2832 C 1600.9093 720.39722 1621.4627 709.34872 1642.5938 704.52539 C 1651.8534 702.4118 1661.5353 701.4152 1671.2559 701.50195 z M 251.72266 701.95898 C 267.92362 702.10358 284.23303 705.26059 298.87305 711.28125 C 322.29708 720.91431 343.59836 738.76363 357.18164 760.14062 C 370.76492 781.51761 377.87496 808.38201 376.64648 833.67969 C 375.75426 852.05273 370.57375 870.249 362.02344 885.31445 C 353.52452 900.28936 340.9942 913.21398 327.13281 921.50977 C 312.53795 930.24454 294.146 935.17498 276.20703 935.01953 C 258.16333 934.86318 239.03286 929.6523 222.51172 920.30664 C 189.89811 901.85782 163.97355 863.18742 157.08203 822.85156 C 152.32421 795.00414 155.42322 764.40578 165.26953 735.74023 C 181.37606 720.85425 201.92953 709.8077 223.06055 704.98438 C 232.32019 702.87079 242.00208 701.87223 251.72266 701.95898 z M 1763.9062 1172.1836 C 1773.4955 1172.2524 1783.3237 1172.5576 1793.3496 1173.0508 C 1902.8678 1178.4377 2017.5512 1200.6518 2137.0215 1212.2695 C 2020.0039 1274.1031 1906.5716 1327.8766 1788.0293 1343.7734 C 1735.4672 1350.8222 1686.3719 1348.2937 1650.7051 1331.125 C 1633.1937 1322.6956 1618.5213 1310.476 1609.4277 1297.2695 C 1600.6088 1284.4618 1596.2624 1268.7542 1597.0977 1256.5391 C 1597.894 1244.8928 1603.6932 1230.5964 1613.4375 1218.9473 C 1623.4619 1206.9633 1638.4463 1196.1748 1656.1152 1188.5762 C 1683.0416 1176.9963 1716.6962 1172.5734 1754.3984 1172.1953 C 1757.5403 1172.1638 1760.7098 1172.1607 1763.9062 1172.1836 z M 2588.6328 1172.7637 C 2611.2256 1172.9867 2632.7401 1177.069 2650.9434 1184.8535 C 2671.3951 1193.5995 2688.8481 1207.9588 2698.9785 1223.8145 C 2710.1385 1241.2817 2714.8653 1265.4838 2711.0801 1286.3516 C 2707.2758 1307.3242 2694.329 1328.7263 2677.1875 1342.1914 C 2659.9669 1355.7186 2635.8213 1363.5173 2613.4531 1362.6855 C 2590.9905 1361.8502 2567.0859 1352.3128 2549.7852 1337.209 C 2534.2713 1323.665 2522.3237 1304.3967 2517.0898 1284.4785 C 2511.856 1264.5605 2512.787 1241.9092 2519.6387 1222.4883 C 2525.9559 1204.5824 2537.9506 1187.7569 2552.7676 1175.6504 C 2561.5753 1174.2909 2570.3127 1173.2374 2578.8887 1172.9062 L 2578.8906 1172.9062 C 2582.1557 1172.7802 2585.4053 1172.7318 2588.6328 1172.7637 z "
         transform="translate(-831.48619,-739.06583)"
         id="path4140-7-4-0" />
      <path
         sodipodi:nodetypes="caascscccaasasc"
         inkscape:connector-curvature="0"
         inkscape:original-d="m -713.35612,1398.0896 c 34.1539,37.6776 301.26316,23.891 340.8869,140.1887 17.92467,52.6099 -29.9659,129.1194 -83.4104,144.3762 -99.85781,28.5066 -253.6471,-92.0771 -274.7709,-146.8291 -53.07049,-137.5557 272.2836,-350.4159 459.1942,-336.1438 96.9851,10.537 232.604697,158.3029 235.678197,255.3413 l 4.0704,191.6573 -5.2728,-189.8579 c 12.6525,-176.4524 254.301703,-321.6313 340.591803,-250.2081 62.723,58.1489 263.5328,148.4584 234.0111,261.6944 -87.0781,334.0041 -663.72889,196.7021 -979.2553,336.6463 -93.72363,41.5689 -332.09322,61.2639 -269.3703,148.4872 62.7229,87.2233 166.50415,144.1607 269.9019,161.2281 311.60374,51.4352 704.0144,-161.5261 926.3899,-198.7055 142.6768,-23.8544 201.8858,-364.509 201.8858,-364.509"
         inkscape:path-effect="#path-effect4142-0-1-0-3"
         id="path4140-7-4-0-7"
         d="m -713.35612,1398.0896 c 26.77538,-29.8109 62.92636,-51.0751 101.99167,-59.9921 39.06531,-8.917 80.86251,-5.445 117.92118,9.7952 37.05867,15.2403 69.20574,42.1777 90.69557,75.9978 21.48983,33.8201 32.22204,74.3649 30.27848,114.3878 -1.40379,28.9076 -9.35778,57.5529 -23.64309,82.7233 -14.28531,25.1704 -34.93344,46.7903 -59.76731,61.6529 -26.20705,15.6845 -56.85938,23.685 -87.4002,23.4203 -30.54082,-0.2646 -60.89752,-8.7251 -87.48096,-23.7628 -53.16689,-30.0754 -89.60242,-86.2752 -99.88974,-146.4866 -9.26793,-54.245 1.71433,-111.1826 27.55131,-159.7712 25.83699,-48.5887 66.02715,-88.9249 112.78914,-117.9374 93.52397,-58.025 209.3945,-69.9379 318.85375,-58.4352 32.57508,3.4232 65.16564,8.8966 95.8828,20.2681 30.71716,11.3714 59.39585,28.8835 81.96118,52.625 22.565329,23.7415 38.535782,53.447 47.18651,85.0385 8.650728,31.5914 9.952228,64.6626 10.647707,97.4097 l 4.0704,191.6573 -5.2728,-189.8579 c 9.582672,-78.3096 52.67932,-151.9507 116.260359,-198.6591 63.581034,-46.7084 146.738644,-65.8171 224.331444,-51.549 61.99434,11.3998 120.01346,43.6853 162.11791,90.5944 42.10446,46.9092 67.98179,108.1877 71.89319,171.1 3.08289,49.5863 -7.25363,99.7146 -27.97969,144.867 -20.72606,45.1524 -51.67986,85.3573 -88.7757,118.4059 -74.19168,66.0971 -171.34232,102.543 -269.71284,116.56 -196.741049,28.0342 -394.60555,-28.4544 -592.78707,-43.1866 -57.66828,-4.2869 -117.59603,-4.6683 -170.89143,17.7729 -26.64769,11.2206 -51.16288,28.2016 -69.19583,50.8028 -18.03294,22.6012 -29.29262,50.9978 -29.28304,79.9115 0.01,29.1196 11.4344,57.6718 29.53974,80.4786 18.10533,22.8068 42.59678,40.0744 69.17123,51.9803 53.1489,23.8117 112.99863,26.4323 171.19093,28.7692 161.98659,6.5052 325.12053,13.6367 485.481673,-10.1598 160.361147,-23.7965 319.729017,-80.8537 440.908227,-188.5457 105.82964,-94.0508 178.30392,-224.9047 201.8858,-364.509"
         style="fill:none;fill-rule:evenodd;stroke:#000000;stroke-width:139.69628906;stroke-linecap:round;stroke-linejoin:round;stroke-miterlimit:4;stroke-dasharray:none;stroke-opacity:1" />
      <path
         sodipodi:nodetypes="caascscccsssssssc"
         inkscape:connector-curvature="0"
         inkscape:original-d="m 706.17688,1397.6315 c 34.1539,37.6775 301.26312,23.8909 340.88692,140.1886 17.9247,52.6099 -29.9659,129.1194 -83.41047,144.3763 -99.8578,28.5065 -253.64705,-92.0771 -274.77085,-146.8292 -53.0704,-137.5557 272.28355,-350.4159 459.19422,-336.1437 96.9851,10.537 232.6047,158.3028 235.6782,255.3412 l 4.0704,191.6574 -5.2728,-189.858 c 12.6525,-176.4524 254.3017,-321.6313 340.5918,-250.208 62.723,58.1488 265.3725,145.3966 234.0111,261.6943 -31.3614,116.2977 -791.0865,278.4976 -979.25537,336.6464 -188.1687,58.1489 -332.09315,61.2639 -269.37025,148.4872 62.7229,87.2233 144.45605,248.4514 269.90185,161.2281 76.41677,-53.133 358.24857,-211.3663 580.62407,-248.5457 142.6769,-23.8544 330.8722,-46.4285 379.9013,21.7521 125.4458,174.4466 90.9857,290.8423 -253.9903,203.6192 -344.9759,-87.2233 108.5013,-307.5424 108.5013,-307.5424"
         inkscape:path-effect="#path-effect4142-0-1-0-4-7"
         id="path4140-7-4-0-3-9"
         d="m 706.17688,1397.6315 c 26.77537,-29.8109 62.92634,-51.0751 101.99165,-59.9921 39.06531,-8.917 80.8625,-5.4451 117.92117,9.7952 37.05868,15.2402 69.20575,42.1777 90.6956,75.9977 21.4898,33.8201 32.222,74.3649 30.2785,114.3878 -1.4038,28.9076 -9.3578,57.5529 -23.6431,82.7233 -14.2853,25.1704 -34.93348,46.7904 -59.76737,61.653 -26.20706,15.6844 -56.85939,23.6849 -87.40021,23.4203 -30.54082,-0.2647 -60.89751,-8.7251 -87.48095,-23.7628 -53.16688,-30.0754 -89.60239,-86.2753 -99.88969,-146.4867 -9.2679,-54.245 1.71437,-111.1825 27.55137,-159.7712 25.83699,-48.5887 66.02717,-88.9248 112.78915,-117.9373 93.52396,-58.025 209.3945,-69.9379 318.8537,-58.4352 32.5751,3.4232 65.1656,8.8966 95.8828,20.2681 30.7172,11.3714 59.3958,28.8834 81.9612,52.6249 22.5653,23.7415 38.5358,53.447 47.1865,85.0385 8.6507,31.5914 9.9522,64.6626 10.6477,97.4097 l 4.0704,191.6574 -5.2728,-189.858 c 9.7417,-78.2424 52.8736,-151.766 116.4166,-198.4464 63.543,-46.6804 146.599,-65.8579 224.1752,-51.7616 62.0694,11.2786 120.227,43.4573 162.3982,90.3765 42.1712,46.9192 68.0198,108.3344 71.6129,171.3178 2.8196,49.4236 -7.8347,99.316 -28.848,144.1388 -21.0133,44.8228 -52.22,84.6076 -89.4803,117.2008 -74.5205,65.1863 -171.6078,100.6044 -269.6992,114.044 -196.183,26.8791 -393.4512,-29.0091 -591.22787,-38.7372 -56.9659,-2.802 -115.86632,-1.4089 -168.2613,21.1239 -26.19749,11.2665 -50.36196,27.8476 -68.659,49.7213 -18.29705,21.8738 -30.50452,49.1911 -32.44995,77.642 -2.05221,30.0126 7.42606,60.3322 24.48671,85.1092 17.06066,24.7771 41.40571,44.1304 68.51151,57.1782 54.21162,26.0955 117.27204,26.9375 176.90363,18.9407 209.82527,-28.1381 390.70427,-155.0102 580.62407,-248.5457 62.5321,-30.7971 128.6048,-58.6565 198.2575,-61.3456 34.8263,-1.3446 70.1676,3.8166 102.2126,17.5204 32.0451,13.7039 60.6666,36.2078 79.4312,65.5773 21.0787,32.9915 28.9553,74.0878 21.9677,112.6096 -6.9876,38.5218 -28.6846,74.1177 -59.4721,98.302 -30.7875,24.1844 -70.3537,36.8197 -109.4771,35.3648 -39.1233,-1.4548 -77.5162,-16.9095 -107.0088,-42.6572 -26.2683,-22.9328 -45.4514,-53.8715 -54.3134,-87.5968 -8.862,-33.7254 -7.3661,-70.0979 4.2354,-102.9817 11.6014,-32.8837 33.2603,-62.1427 61.323,-82.841 28.0627,-20.6983 62.4131,-32.7503 97.2563,-34.1229"
         style="fill:none;fill-rule:evenodd;stroke:#000000;stroke-width:139.69628906;stroke-linecap:round;stroke-linejoin:round;stroke-miterlimit:4;stroke-dasharray:none;stroke-opacity:1" />
    </g>
  </g>
</svg>
