<?xml version="1.0" encoding="UTF-8" standalone="no"?>
<!-- Created with Inkscape (http://www.inkscape.org/) -->

<svg
   xmlns:dc="http://purl.org/dc/elements/1.1/"
   xmlns:cc="http://creativecommons.org/ns#"
   xmlns:rdf="http://www.w3.org/1999/02/22-rdf-syntax-ns#"
   xmlns:svg="http://www.w3.org/2000/svg"
   xmlns="http://www.w3.org/2000/svg"
   xmlns:sodipodi="http://sodipodi.sourceforge.net/DTD/sodipodi-0.dtd"
   xmlns:inkscape="http://www.inkscape.org/namespaces/inkscape"
   width="2000"
   height="2048"
   id="svg2992"
   version="1.1"
   inkscape:version="0.91pre2 r13516"
   sodipodi:docname="ജ്ഞ.svg">
  <defs
     id="defs5498" />
  <sodipodi:namedview
     inkscape:window-height="851"
     inkscape:window-width="1600"
     inkscape:pageshadow="2"
     inkscape:pageopacity="0.0"
     borderopacity="1.0"
     bordercolor="#666666"
     pagecolor="#ffffff"
     id="base"
     showgrid="true"
     showguides="true"
     inkscape:guide-bbox="true"
     inkscape:zoom="0.227"
     inkscape:cx="1647.3011"
     inkscape:cy="1154.0513"
     inkscape:window-x="1599"
     inkscape:window-y="-1"
     inkscape:current-layer="layer1"
     inkscape:window-maximized="1">
    <sodipodi:guide
       orientation="horizontal"
       position="0,600"
       id="guide5596" />
    <inkscape:grid
       type="xygrid"
       id="grid3769"
       empspacing="3"
       visible="true"
       enabled="true"
       snapvisiblegridlinesonly="true"
       spacingx="4px"
       units="px"
       dotted="true"
       spacingy="4px" />
    <sodipodi:guide
       orientation="0,1"
       position="-1040,1600"
       id="guide2985" />
  </sodipodi:namedview>
  <metadata
     id="metadata5594">
    <rdf:RDF>
      <cc:Work
         rdf:about="">
        <dc:format>image/svg+xml</dc:format>
        <dc:type
           rdf:resource="http://purl.org/dc/dcmitype/StillImage" />
        <dc:title></dc:title>
      </cc:Work>
    </rdf:RDF>
  </metadata>
  <g
     inkscape:label="Layer 1"
     inkscape:groupmode="layer"
     id="layer1"
     transform="translate(0,1048)">
    <path
       style="fill:none;stroke:#000000;stroke-width:130;stroke-linecap:round;stroke-linejoin:round;stroke-miterlimit:4;stroke-dasharray:none;stroke-dashoffset:0;stroke-opacity:1"
       d="M 407.73521,-269.83708 C 624,-248 733.1349,-42.507743 709.14373,87.322494 657.59145,366.30198 202,520 266.40265,-141.41576 337.62443,-872.864 1056,-536 961.15769,339.52784 1008,-1400 2352,-200 1087.1212,530.94511 734.12267,753.95853 1372.4866,867.75316 1496.0498,450.77706 1606.8674,76.812409 1728,-296 1903.0551,-108.8658 2208,184 1728,712 1650.2392,-17.221799 1776,-824 2398.6488,-583.13468 2368.7449,-126.36125 c -9.6679,147.674511 14.9555,264.18132 14.9555,473.49781 0,0 -17.0713,-55.82241 -17.0713,-487.82241 C 2448,-728 3149.5541,-625.9323 3181.4131,-125.29708 3210.8019,336.52189 2654.7246,590.2292 2739.7289,-64.883843 2832,-776 3459.0966,-601.48461 3590.5386,-136.62898 c 49.9923,176.801893 -17.427,344.87365 -216.9175,510.19726"
       id="path3925"
       inkscape:connector-curvature="0"
       sodipodi:nodetypes="cssccsccsccsssc" />
  </g>
</svg>
