<?xml version="1.0" encoding="UTF-8" standalone="no"?>
<!-- Created with Inkscape (http://www.inkscape.org/) -->

<svg
   xmlns:dc="http://purl.org/dc/elements/1.1/"
   xmlns:cc="http://creativecommons.org/ns#"
   xmlns:rdf="http://www.w3.org/1999/02/22-rdf-syntax-ns#"
   xmlns:svg="http://www.w3.org/2000/svg"
   xmlns="http://www.w3.org/2000/svg"
   xmlns:sodipodi="http://sodipodi.sourceforge.net/DTD/sodipodi-0.dtd"
   xmlns:inkscape="http://www.inkscape.org/namespaces/inkscape"
   width="2000"
   height="2048"
   id="svg2992"
   version="1.1"
   inkscape:version="0.91pre3 r13670"
   sodipodi:docname="ജു.svg">
  <defs
     id="defs5498">
    <inkscape:path-effect
       is_visible="true"
       id="path-effect4142"
       effect="spiro" />
    <inkscape:path-effect
       is_visible="true"
       id="path-effect4142-0"
       effect="spiro" />
    <inkscape:path-effect
       is_visible="true"
       id="path-effect4142-0-1"
       effect="spiro" />
    <inkscape:path-effect
       is_visible="true"
       id="path-effect4142-0-1-0"
       effect="spiro" />
    <inkscape:path-effect
       is_visible="true"
       id="path-effect4142-5"
       effect="spiro" />
    <inkscape:path-effect
       is_visible="true"
       id="path-effect4142-0-0"
       effect="spiro" />
    <inkscape:path-effect
       is_visible="true"
       id="path-effect4142-0-1-9"
       effect="spiro" />
    <inkscape:path-effect
       is_visible="true"
       id="path-effect4142-0-1-0-0"
       effect="spiro" />
    <inkscape:path-effect
       is_visible="true"
       id="path-effect4142-0-1-0-0-7"
       effect="spiro" />
    <inkscape:path-effect
       effect="spiro"
       id="path-effect4142-0-1-0-3"
       is_visible="true" />
    <inkscape:path-effect
       effect="spiro"
       id="path-effect4142-0-1-0-3-6"
       is_visible="true" />
  </defs>
  <sodipodi:namedview
     inkscape:window-height="853"
     inkscape:window-width="1600"
     inkscape:pageshadow="2"
     inkscape:pageopacity="0.0"
     borderopacity="1.0"
     bordercolor="#666666"
     pagecolor="#ffffff"
     id="base"
     showgrid="true"
     showguides="true"
     inkscape:guide-bbox="true"
     inkscape:zoom="0.32102648"
     inkscape:cx="1437.2585"
     inkscape:cy="881.42909"
     inkscape:window-x="1598"
     inkscape:window-y="-3"
     inkscape:current-layer="layer1-3"
     inkscape:window-maximized="1"
     inkscape:snap-grids="true">
    <sodipodi:guide
       orientation="horizontal"
       position="0,600"
       id="guide5596" />
    <inkscape:grid
       type="xygrid"
       id="grid3769"
       empspacing="3"
       visible="true"
       enabled="true"
       snapvisiblegridlinesonly="true"
       spacingx="4px"
       units="px"
       dotted="true"
       spacingy="4px" />
    <sodipodi:guide
       orientation="0,1"
       position="-1040,1600"
       id="guide2985" />
  </sodipodi:namedview>
  <metadata
     id="metadata5594">
    <rdf:RDF>
      <cc:Work
         rdf:about="">
        <dc:format>image/svg+xml</dc:format>
        <dc:type
           rdf:resource="http://purl.org/dc/dcmitype/StillImage" />
        <dc:title />
      </cc:Work>
    </rdf:RDF>
  </metadata>
  <g
     inkscape:label="Layer 1"
     inkscape:groupmode="layer"
     id="layer1"
     transform="translate(0,1048)">
    <g
       id="layer1-3"
       inkscape:label="Layer 1"
       transform="translate(483.40182,-1318.2819)">
      <path
         style="fill:none;fill-rule:evenodd;stroke:#000000;stroke-width:140;stroke-linecap:round;stroke-linejoin:round;stroke-miterlimit:4;stroke-dasharray:none;stroke-opacity:1"
         d="m -325.95595,976.66239 c 18.04011,-40.43003 52.28149,-73.35396 93.38786,-89.79473 41.10638,-16.44077 88.608,-16.2105 129.55305,0.62803 40.94505,16.83852 74.865619,50.09287 92.51291,90.6959 17.6472922,40.60301 18.819636,88.09071 3.19738,129.51511 -11.146616,29.5566 -30.641058,55.968 -55.832299,75.027 -25.191241,19.0589 -56.020691,30.6576 -87.552501,32.5516 -29.72856,1.7857 -59.8396,-5.0273 -86.21221,-18.8642 -26.3726,-13.837 -48.98069,-34.6038 -65.55087,-59.3506 -33.14037,-49.4937 -40.90335,-113.9915 -25.11062,-171.42401 19.22567,-69.91689 71.66845,-128.4865 136.08169,-161.78714 64.41323,-33.30064 139.73732,-42.51131 211.62891,-33.04576 37.851468,4.98368 75.235574,15.1036 109.3128,32.31734 34.07724,17.21375 64.60823,41.6473 88.00857,71.81342 23.40034,30.16612 39.35713,65.78771 48.20929,102.92542 8.85216,37.13773 10.59756,75.54903 11.83361,113.70713 l 3.80489,117.4608 -4.92886,-115.7788 c -10.06052,-91.9625 27.49462,-187.85011 97.33449,-248.51902 69.83986,-60.6689 170.03723,-84.445 259.68904,-61.62229 57.86872,14.73167 110.96082,48.08856 148.75292,94.32241 37.7921,46.23385 59.96439,105.16061 61.25838,164.861 0.99592,45.9483 -10.16607,91.9001 -30.56938,133.082 -20.40331,41.1819 -49.90829,77.626 -84.81233,107.525 -69.8081,59.798 -159.77273,92.5497 -250.7801,105.4579 -182.01474,25.8166 -365.55704,-23.3394 -549.21772,-31.3776 -53.17774,-2.3274 -108.11067,-0.8693 -157.00854,20.1613 -24.44893,10.5153 -47.01576,25.9512 -64.15493,46.3122 -17.13917,20.361 -28.64748,45.7881 -30.63603,72.328 -2.10739,28.126 6.59147,56.6154 22.45893,79.9336 15.86746,23.3182 38.62396,41.5703 64.01514,53.8504 50.78237,24.5603 110.01919,25.177 165.82243,16.9274 98.356544,-14.5404 191.13427,-54.6388 279.29493,-100.6075 88.16067,-45.9688 173.10872,-98.2184 263.4556,-139.7259 58.74753,-26.99 121.20994,-49.6552 185.86027,-49.9155 32.32517,-0.1301 64.87383,5.4847 94.50335,18.4085 29.62952,12.9238 56.25234,33.3354 74.75708,59.8403 22.1337,31.7027 31.95322,71.8167 26.76146,110.1314 -5.19175,38.3146 -25.38801,74.4305 -55.44307,98.7545 -30.05505,24.324 -69.67183,36.5536 -108.19081,33.1992 -38.51899,-3.3544 -75.49055,-22.3035 -100.55038,-51.7478 -19.70889,-23.1572 -31.96287,-52.3294 -36.02476,-82.4657 -4.0619,-30.1363 -0.0725,-61.1618 10.22264,-89.7749 20.59016,-57.2261 65.58574,-103.3753 117.68454,-134.752 49.24043,-29.6553 105.70835,-47.4674 163.11768,-50.3352 57.40932,-2.8678 115.64335,9.3307 166.57792,35.9714 50.9345,26.6407 94.3588,67.7646 122.7907,117.7214 28.4319,49.9568 41.6279,108.628 36.2485,165.8566 -5.6069,59.6498 -31.1769,116.7279 -69.2086,163.0219 -38.0317,46.2939 -88.1329,81.9669 -142.75174,106.5904 -109.23776,49.247 -232.76374,52.907 -352.58494,53.9258 l -590.655885,5.0222 c -67.541569,0.5743 -135.620575,-3.5945 -202.336835,6.9474 -33.35813,5.271 -66.59474,15.395 -94.17083,34.8913 -13.78805,9.7482 -26.02286,21.8274 -35.21341,35.9933 -9.19055,14.1658 -15.27779,30.4586 -16.7221,47.2827 -1.3615,15.8594 1.42054,31.9777 7.38826,46.7345 5.96772,14.7567 15.07192,28.1671 26.10762,39.6383 22.07139,22.9424 51.42195,37.9032 81.93508,46.9835 61.02627,18.1604 126.007527,15.8666 189.678514,15.9789 l 1195.937766,2.1085"
         id="path4140-7-4-0"
         inkscape:path-effect="#path-effect4142-0-1-0-3"
         inkscape:original-d="m -325.95595,976.66239 c 31.926,35.21991 288.0677,79.00661 318.6512,131.04431 32.9639,56.0878 -84.3527,116.8236 -143.3848,107.5786 -100.7544,-15.7792 -199.3102,-150.155 -176.8737,-249.63881 29.2294,-129.6034 217.2919,-220.1777 347.7106,-194.8329 134.5654,26.1507 252.98511,230.11481 257.36427,320.76331 l 3.80489,117.4608 -4.92886,-115.7788 c 14.34709,-178.20471 199.98363,-323.88381 357.02353,-310.14131 110.7726,9.6937 240.6714,152.298 210.0113,259.18341 -88.965,310.146 -620.43455,183.8715 -915.37953,314.6873 -87.6101,38.8574 -250.1377,42.9752 -251.7995,138.8015 -1.6986,97.9464 154.5164,144.7581 252.2965,150.7114 197.4946,12.0244 347.69642,-207.1281 542.75053,-240.3334 117.0656,-19.9288 320.2463,-85.18 355.1207,28.3333 29.7889,96.9602 -153.30327,247.0167 -237.4228,190.3373 -88.58368,-59.6873 -6.98362,-266.5556 91.88242,-306.9926 172.14952,-70.4106 487.1619,83.2286 488.7348,269.2142 1.8343,216.8866 -442.5379,322.5007 -564.54528,323.5381 l -590.655885,5.0222 c -21.6550318,0.1842 -341.632005,1.8946 -348.443175,125.1147 -6.2495,113.0591 282.360205,149.2951 305.109474,149.3352 l 1195.937766,2.1085"
         inkscape:connector-curvature="0"
         sodipodi:nodetypes="csaaasccaaaaaaaaaassasc" />
      <path
         style="color:#000000;font-style:normal;font-variant:normal;font-weight:normal;font-stretch:normal;font-size:medium;line-height:normal;font-family:sans-serif;text-indent:0;text-align:start;text-decoration:none;text-decoration-line:none;text-decoration-style:solid;text-decoration-color:#000000;letter-spacing:normal;word-spacing:normal;text-transform:none;direction:ltr;block-progression:tb;writing-mode:lr-tb;baseline-shift:baseline;text-anchor:start;white-space:normal;clip-rule:nonzero;display:inline;overflow:visible;visibility:visible;opacity:1;isolation:auto;mix-blend-mode:normal;color-interpolation:sRGB;color-interpolation-filters:linearRGB;solid-color:#000000;solid-opacity:1;fill:#000000;fill-opacity:1;fill-rule:evenodd;stroke:none;stroke-width:140;stroke-linecap:round;stroke-linejoin:round;stroke-miterlimit:4;stroke-dasharray:none;stroke-dashoffset:0;stroke-opacity:1;color-rendering:auto;image-rendering:auto;shape-rendering:auto;text-rendering:auto;enable-background:accumulate"
         d="m 1996.2344,700.66406 c -78.696,1.30595 -156.0434,27.59614 -219.8848,73.66016 -72.5165,52.32346 -128.4246,133.94342 -135.668,232.84568 -9.2852,79.8994 22.0421,155.6032 74.6973,209.1914 52.7617,53.6966 133.0771,86.9144 216.709,68.211 175.861,-32.6102 248.5463,-257.8883 130.0098,-389.57621 -17.8326,-22.58923 -38.8739,-40.59459 -61.9024,-54.25976 6.5062,-0.11103 12.9546,0.0398 19.2969,0.51758 a 70.007,70.007 0 0 0 6.1133,0.1914 c 97.5761,-1.19106 198.9033,61.89776 216.6562,153.67578 a 70.007,70.007 0 0 0 0.1778,0.88868 c 4.0013,19.33883 6.3824,39.70853 8.0214,60.83003 -2.0579,54.4292 4.3027,105.682 5.793,149.1719 0.1677,3.6003 0.2783,7.1307 0.4746,10.7617 a 70.007,70.007 0 0 0 139.8848,-5.1074 c -0.3276,-17.2537 -0.9648,-33.7359 -1.6426,-49.8515 -0.5329,-26.327 -0.9467,-53.7355 -2.3125,-82.0606 0.1675,-49.5203 5.6638,-91.80152 28.7109,-125.69726 a 70.007,70.007 0 0 0 2.9883,-4.80078 c 61.9002,-109.03541 242.7222,-132.21758 330.4961,-43.29492 a 70.007,70.007 0 0 0 2.8867,2.76172 c 79.1898,71.55858 76.8249,215.94504 2.1016,293.16214 a 70.007,70.007 0 0 0 -1.8633,2.0019 c -16.5534,18.5008 -34.9815,34.53 -54.8867,48.4297 -10.3901,5.8453 -20.517,12.1637 -30.3613,18.9531 -111.3075,61.7039 -259.5467,67.1597 -398.6016,50.3965 a 70.007,70.007 0 0 0 -3.166,-0.3086 c -129.8821,-9.6993 -279.6695,-53.0993 -440.7754,-18.6445 -61.4813,12.5115 -113.2208,49.5997 -146.4863,101.0059 -33.2931,51.4486 -45.7314,124.789 -12.5254,189.4082 35.8923,71.0241 103.688,110.1758 168.793,124.3125 65.2195,14.1615 130.6697,8.2635 187.1953,-5.6133 l -2.4825,0.5625 c 198.8442,-41.2162 351.3728,-155.913 504.3399,-229.1055 -4.5501,33.9656 -2.2258,68.621 6.543,101.6406 18.4134,69.3373 70.9853,135.5496 151.1621,157.3848 161.6523,51.9761 323.1333,-107.184 276.1191,-269.6563 -13.5078,-54.1159 -45.8516,-96.9741 -85.8047,-127.0839 75.942,-7.9358 154.5649,13.1278 205.1524,67.33 a 70.007,70.007 0 0 0 2.5839,2.627 c 75.937,73.2287 79.0215,212.9356 8.6524,291.9609 a 70.007,70.007 0 0 0 -1.8242,2.1348 c -89.2711,108.7327 -250.2762,134.8325 -407.3243,134.543 a 70.007,70.007 0 0 0 -0.9726,0 c -262.455,3.1649 -525.7598,3.1117 -789.5313,7.8613 a 70.007,70.007 0 0 0 -0.7148,0.016 c -50.0833,1.4137 -105.3928,12.9633 -155.6074,43.1211 -50.2146,30.1578 -96.4105,88.4669 -96.4434,161.4121 a 70.007,70.007 0 0 0 0.2695,6.1602 c 6.6781,75.9757 58.7234,132.4372 113.2032,161.0586 54.4798,28.6213 113.3109,38.1619 164.9297,39 a 70.007,70.007 0 0 0 0.6269,0.01 c 431.0117,3.131 861.7555,1.9357 1292.0508,3.3321 a 70.007,70.007 0 1 0 0.4531,-139.9981 c -430.6877,-1.3976 -861.0728,-0.2085 -1290.9785,-3.3281 -33.8241,-0.5667 -75.284,-8.9292 -101.9707,-22.9492 -25.5563,-13.4262 -35.7197,-24.1564 -38.4395,-46.4063 0.7188,-17.8996 7.5336,-25.7502 28.379,-38.2695 22.0613,-13.2496 58.673,-22.3545 87.3593,-23.1856 261.8743,-4.7081 524.7028,-4.6635 788.1016,-7.8398 l -0.9727,0 c 171.0456,0.3154 381.7561,-24.0668 514.4414,-184.1387 121.2645,-136.7799 117.4462,-353.1541 -13.9218,-482.6484 -69.1838,-74.1274 -162.2518,-112.1563 -257.1719,-117.2012 58.7397,-130.6501 37.0695,-293.36064 -75.7676,-395.32419 l 2.8867,2.76172 c -147.6873,-149.62025 -405.5725,-126.9657 -528.8789,37.42578 -68.3522,-92.8329 -185.2747,-144.07719 -298.8613,-143.55859 -10.1765,-0.67511 -20.3579,-0.98302 -30.5156,-0.81446 z m -120.5567,250.36719 c 30.0551,-1.10426 59.8863,8.85807 77.3692,31.63672 a 70.007,70.007 0 0 0 4.1953,4.96875 c 43.7321,47.17518 12.0977,148.23758 -51.3789,159.47068 a 70.007,70.007 0 0 0 -3.6641,0.75 c -31.9159,7.4248 -61.7581,-3.9698 -86.959,-29.6172 -25.2008,-25.6474 -39.4749,-63.7372 -35.4394,-95.8554 a 70.007,70.007 0 0 0 0.3906,-4.045 c 0.082,-1.2239 0.2449,-2.4184 0.3535,-3.6328 a 70.007,70.007 0 0 0 3.8711,-8.2617 c 13.6087,-34.28201 52.6195,-53.99429 91.2617,-55.41405 z m 503.8575,16.61133 0.1796,0.89062 c -0.033,-0.17088 -0.078,-0.33512 -0.1113,-0.50586 -0.027,-0.12935 -0.042,-0.25538 -0.068,-0.38476 z m 482.7773,329.59572 -1.8652,2.0019 c 0.2015,-0.2083 0.3849,-0.4299 0.5859,-0.6386 0.4203,-0.466 0.8603,-0.895 1.2793,-1.3633 z m -250.3965,4.3379 c -0.1352,0.038 -0.2672,0.079 -0.4023,0.1172 -0.067,0.019 -0.1345,0.035 -0.2012,0.055 l 0.6035,-0.1718 z m 92.7461,128.4941 c 21.0817,0.6302 42.2456,4.4261 60.166,11.5742 34.1262,13.6123 54.6853,33.2299 62.4395,65.6719 a 70.007,70.007 0 0 0 0.9902,3.6973 c 15.2978,51.3925 -48.4193,114.9685 -99.582,97.8047 a 70.007,70.007 0 0 0 -4.5508,-1.3575 c -28.6937,-7.5054 -44.9952,-27.3864 -53.25,-58.4707 -8.2548,-31.0842 -2.2587,-69.112 14.4922,-92.7617 a 70.007,70.007 0 0 0 1.9531,-2.9101 c 5.2091,-8.1954 11.0349,-15.928 17.3418,-23.2481 z m -754.2266,0.7266 c 94.075,-0.1674 197.4206,21.6262 308.7188,30.0547 1.6766,0.2001 3.414,0.3535 5.0977,0.5488 -89.8481,49.6417 -176.2523,94.8878 -267.9864,113.9023 a 70.007,70.007 0 0 0 -2.4804,0.5625 c -39.6947,9.745 -87.5109,12.7086 -124.1094,4.7618 -36.5986,-7.9469 -59.04,-21.7701 -73.627,-50.7715 a 70.007,70.007 0 0 0 -0.334,-0.6543 c -8.8701,-17.185 -6.7229,-30.4992 5.5235,-49.4239 12.2463,-18.9246 36.9427,-35.8729 57.0254,-39.9199 a 70.007,70.007 0 0 0 0.8672,-0.1816 c 29.3643,-6.3057 59.8158,-8.8229 91.3046,-8.8789 z"
         id="path4140-7-4-0-1"
         inkscape:connector-curvature="0" />
    </g>
  </g>
</svg>
