<?xml version="1.0" encoding="UTF-8" standalone="no"?>
<!-- Created with Inkscape (http://www.inkscape.org/) -->

<svg
   xmlns:dc="http://purl.org/dc/elements/1.1/"
   xmlns:cc="http://creativecommons.org/ns#"
   xmlns:rdf="http://www.w3.org/1999/02/22-rdf-syntax-ns#"
   xmlns:svg="http://www.w3.org/2000/svg"
   xmlns="http://www.w3.org/2000/svg"
   xmlns:sodipodi="http://sodipodi.sourceforge.net/DTD/sodipodi-0.dtd"
   xmlns:inkscape="http://www.inkscape.org/namespaces/inkscape"
   width="2000"
   height="2000"
   id="svg2992"
   version="1.1"
   inkscape:version="0.91 r13725"
   sodipodi:docname="à´.svg">
  <defs
     id="defs5498">
    <inkscape:path-effect
       effect="spiro"
       id="path-effect2987"
       is_visible="true" />
    <inkscape:path-effect
       effect="spiro"
       id="path-effect4372-52-4-6-8-8"
       is_visible="true" />
    <inkscape:path-effect
       effect="spiro"
       id="path-effect4372-52-4-6-8"
       is_visible="true" />
    <inkscape:path-effect
       effect="spiro"
       id="path-effect4372-52-4-6-8-7"
       is_visible="true" />
    <inkscape:path-effect
       effect="spiro"
       id="path-effect4372-52-4-6-8-7-2"
       is_visible="true" />
    <inkscape:path-effect
       effect="spiro"
       id="path-effect4372-52-4-6-8-7-28"
       is_visible="true" />
  </defs>
  <sodipodi:namedview
     inkscape:window-height="704"
     inkscape:window-width="1366"
     inkscape:pageshadow="2"
     inkscape:pageopacity="0.0"
     borderopacity="1.0"
     bordercolor="#666666"
     pagecolor="#ffffff"
     id="base"
     showgrid="true"
     showguides="true"
     inkscape:guide-bbox="true"
     inkscape:zoom="0.227"
     inkscape:cx="-1597.8026"
     inkscape:cy="1016.9348"
     inkscape:window-x="-4"
     inkscape:window-y="0"
     inkscape:current-layer="layer1"
     inkscape:window-maximized="1">
    <sodipodi:guide
       orientation="horizontal"
       position="0,600"
       id="guide5596" />
    <inkscape:grid
       type="xygrid"
       id="grid3769"
       empspacing="5"
       visible="true"
       enabled="true"
       snapvisiblegridlinesonly="true" />
    <sodipodi:guide
       orientation="0,1"
       position="-2720,1600"
       id="guide4772" />
  </sodipodi:namedview>
  <metadata
     id="metadata5594">
    <rdf:RDF>
      <cc:Work
         rdf:about="">
        <dc:format>image/svg+xml</dc:format>
        <dc:type
           rdf:resource="http://purl.org/dc/dcmitype/StillImage" />
        <dc:title />
      </cc:Work>
    </rdf:RDF>
  </metadata>
  <g
     inkscape:label="Layer 1"
     inkscape:groupmode="layer"
     id="layer1"
     transform="translate(0,1000)">
    <path
       style="fill:none;fill-rule:evenodd;stroke:#000000;stroke-width:140;stroke-linecap:round;stroke-linejoin:round;stroke-miterlimit:4;stroke-dasharray:none;stroke-opacity:1"
       d="m 2497.5944,-544.76043 c 124.6663,-20.01867 257.1639,14.96556 355.6983,93.91739 98.5344,78.95183 161.5632,200.63537 169.2049,326.66724 7.6416,126.0318638 -40.2236,254.43918 -128.4972,344.71764 -88.2736,90.27845 -215.5737,141.01486 -341.7454,136.20511 -121.4709,-4.63055 -240.1687,-60.49907 -321.1481,-151.1576 -80.9793,-90.65853 -123.1487,-214.8849099 -114.0931,-336.1063 l -7.6923,-399.85899 7.8986,395.34979 c 1.9503,97.619397 4.1668,197.482435 -26.2009,290.27874 -15.1838,46.39815 -38.7791,90.53109 -72.3942,125.93399 -33.6151,35.4029 -77.6766,61.71288 -125.7783,70.05327 -44.4226,7.70247 -91.0916,-0.24943 -131.4092,-20.42853 -40.3175,-20.17911 -74.2022,-52.23666 -98.8995,-89.95593 -24.6973,-37.71927 -40.3284,-80.86714 -49.5508,-124.99929 -9.2224,-44.132157 -12.1484,-89.303377 -14.8501,-134.307824 l -4.694,-78.193136 c -2.9995,-49.9659 -6.5023,-100.14439 -17.7078,-148.92989 -11.2055,-48.7855 -30.1048,-96.01559 -57.8606,-137.67136 -55.5117,-83.31153 -146.1616,-140.06004 -243.5628,-163.1979 -146.0041,-34.68357 -306.24251,1.60274 -425.95353,92.09812 -119.71103,90.49539 -197.78441,232.63416 -214.69161,381.745837 -10.81026,95.340152 3.35893,195.675263 53.50595,277.479193 25.07351,40.90196 58.91383,76.64895 99.45242,102.30582 40.53858,25.65686 87.81995,41.02267 135.78143,42.18369 47.82117,1.15763 95.65254,-11.82162 137.29634,-35.35885 41.6437,-23.53723 77.1336,-57.43229 104.1666,-96.89646 54.0661,-78.92834 73.2915,-178.114992 67.3341,-273.599693 -10.8517,-173.931757 -106.5993,-342.026297 -254.4237,-434.319117 -73.9122,-46.14642 -159.58299,-73.50701 -246.61185,-77.80612 -87.02885,-4.29911 -175.21502,14.57545 -252.43079,54.95154 -77.60045,40.57723 -143.76423,102.75202 -189.08241,177.68267 -45.31819,74.93066 -69.65932,162.39985 -69.56193,249.968865 0.0974,87.5690116 24.63303,174.983842 70.11777,249.813515 45.48474,74.82967 111.78666,136.85713 189.47717,177.26165"
       id="path4370-92-6-1-7-8"
       inkscape:path-effect="#path-effect4372-52-4-6-8-7"
       inkscape:original-d="m 2497.5944,-544.76043 c 0,0 332.5545,785.71155 54.6606,901.50738 -201.0278,83.76643 -346.3466,-261.5123 -435.2412,-487.2639 l -7.6923,-399.85899 7.8986,395.34979 c -4.6461,117.956497 -47.1529,464.83339 -224.3734,486.266 -156.455,18.92129 -285.9413,-223.62791 -294.7096,-369.691574 l -4.694,-78.193136 C 1583.0066,-270.49666 1455.846,-517.4377 1274.3119,-546.44401 1012.0256,-588.35326 677.80153,-334.52103 633.66676,-72.600053 605.34724,95.464187 752.02699,345.08074 922.40656,349.36865 1092.3442,353.64544 1262.8912,110.5256 1231.2036,-56.486353 1176.4423,-345.10955 733.65558,-657.90968 477.73726,-513.66005 c -248.1972,139.89758 -372.57681,621.03913 0.9506,854.7267"
       inkscape:connector-curvature="0"
       sodipodi:nodetypes="cacccassaaaaac" />
    <path
       style="color:#000000;font-style:normal;font-variant:normal;font-weight:normal;font-stretch:normal;font-size:medium;line-height:normal;font-family:sans-serif;text-indent:0;text-align:start;text-decoration:none;text-decoration-line:none;text-decoration-style:solid;text-decoration-color:#000000;letter-spacing:normal;word-spacing:normal;text-transform:none;direction:ltr;block-progression:tb;writing-mode:lr-tb;baseline-shift:baseline;text-anchor:start;white-space:normal;clip-rule:nonzero;display:inline;overflow:visible;visibility:visible;opacity:1;isolation:auto;mix-blend-mode:normal;color-interpolation:sRGB;color-interpolation-filters:linearRGB;solid-color:#000000;solid-opacity:1;fill:#000000;fill-opacity:1;fill-rule:evenodd;stroke:none;stroke-width:140;stroke-linecap:round;stroke-linejoin:round;stroke-miterlimit:4;stroke-dasharray:none;stroke-dashoffset:0;stroke-opacity:1;color-rendering:auto;image-rendering:auto;shape-rendering:auto;text-rendering:auto;enable-background:accumulate"
       d="m 664.11719,572.53711 c -87.01016,1.43556 -173.43018,22.87684 -251.01758,63.44727 -89.14141,46.612 -164.48689,117.4137 -216.54492,203.48828 -52.05803,86.07456 -79.77595,185.68094 -79.66407,286.27344 0.11189,100.5925 28.0514,200.1352 80.30079,286.0937 52.24936,85.9586 127.75118,156.5923 216.99609,203.0059 a 70.007,70.007 0 1 0 64.5957,-124.207 c -66.13611,-34.3954 -123.23886,-87.8168 -161.95898,-151.5176 -38.72008,-63.7007 -59.85068,-138.9858 -59.9336,-213.5313 -0.0829,-74.5454 20.88066,-149.87922 59.45899,-213.66597 38.57832,-63.78675 95.56162,-117.33448 161.62109,-151.87695 65.76025,-34.38601 141.92356,-50.75437 216.54102,-47.06836 18.9802,0.93759 37.94291,3.20007 56.72656,6.6621 -123.06285,102.91052 -201.34851,252.97905 -219.32812,411.54888 -12.20113,107.6069 2.97532,223.4108 63.38086,321.9492 30.24282,49.3345 71.20662,92.9155 121.69726,124.8711 50.64982,32.0563 109.73483,51.518 171.52149,53.0136 61.6048,1.4913 121.39773,-14.9875 173.43363,-44.3984 51.8737,-29.3193 94.8598,-70.6646 127.4746,-118.2773 65.1456,-95.1027 86.1751,-209.6845 79.4472,-317.5176 -10.0258,-160.69413 -82.8162,-315.13052 -201.1191,-423.71682 52.9977,-7.56742 106.9801,-5.94131 158.1855,6.22266 81.863,19.44672 157.342,67.65374 201.4883,133.9082 22.3479,33.53955 38.3228,72.87164 47.8906,114.52734 9.5737,41.68082 13.0845,87.94482 16.0567,137.45512 l 4.6933,78.1933 c 2.715,45.2254 5.6328,93.8397 16.2051,144.4317 10.5933,50.6921 28.8238,102.1627 59.5078,149.0254 30.814,47.061 73.3165,87.773 126.1309,114.207 53.0696,26.5615 114.1547,37.3006 174.6992,26.8027 65.4277,-11.3445 121.8598,-45.8298 164.582,-90.8242 33.6791,-35.4703 58.1836,-76.5611 75.793,-119.1973 10.4817,14.547 21.7159,28.5935 33.7207,42.0332 94.1007,105.3482 229.5344,169.0937 370.6875,174.4746 146.6875,5.5918 291.8339,-52.2589 394.461,-157.2168 102.627,-104.9579 157.2044,-251.3675 148.3203,-397.8925 -8.8843,-146.52492 -80.7503,-285.26902 -195.3067,-377.05862 -114.5563,-91.7896 -265.631,-131.67805 -410.5683,-108.4043 a 70.007,70.007 0 1 0 22.1972,138.23047 c 104.3953,-16.76359 218.3177,13.31563 300.8301,79.42969 82.5125,66.11406 136.7044,170.73664 143.1035,276.27536 6.3991,105.5388 -34.7556,215.944 -108.6758,291.543 -73.9201,75.5989 -183.3734,119.2229 -289.0292,115.1953 -101.7887,-3.8803 -203.7494,-51.873 -271.6075,-127.8418 -52.6263,-58.9166 -86.1092,-136.3306 -95.0019,-215.4941 0,-27.2279 -0.5873,-53.9503 -1.1055,-79.8867 l -7.8984,-395.34966 a 70.007,70.007 0 0 0 -139.9727,2.74414 l 0,0.0527 -0,0 0.027,1.36523 7.625,396.40435 c -1.756,26.689 -1.4043,53.3815 0.9531,79.8515 -0.5657,66.7697 -5.3032,129.388 -23.4492,184.8379 -12.5976,38.4953 -31.7529,73.3068 -56.6289,99.5059 -24.508,25.8114 -56.1989,43.945 -86.9747,49.2812 -28.3007,4.9071 -60.5535,-0.258 -88.1191,-14.0547 -27.8206,-13.9244 -53.0873,-37.3275 -71.668,-65.7051 -18.7105,-28.5759 -31.7422,-63.4003 -39.5937,-100.9726 -7.8725,-37.6722 -10.8077,-79.4002 -13.4961,-124.1836 l -4.6934,-78.1934 c -3.0268,-50.4215 -6.522,-104.5141 -19.3593,-160.40426 -12.8432,-55.91529 -34.6664,-111.04442 -67.8301,-160.81641 -66.8771,-100.3686 -172.6973,-165.65928 -285.6367,-192.48828 -115.9184,-27.53664 -237.5736,-16.45191 -346.72074,26.99024 -65.99494,-29.73795 -137.38342,-47.37231 -210.14844,-50.9668 -12.43003,-0.61403 -24.87271,-0.81836 -37.30273,-0.61328 z m 244.20898,208.26172 c 126.49203,79.3936 211.39853,227.89347 220.81053,378.74997 5.187,83.1363 -12.2321,166.9277 -55.2187,229.6817 -21.4513,31.3156 -49.4475,57.7603 -80.86136,75.5156 -31.25163,17.6635 -67.12066,27.1423 -101.1582,26.3184 -34.1363,-0.8264 -69.61367,-12.0941 -100.04102,-31.3516 -30.58652,-19.3582 -57.30284,-47.2729 -77.20703,-79.7422 -39.88851,-65.0694 -53.05023,-149.9343 -43.63086,-233.0078 14.75034,-130.0894 84.08685,-255.73164 187.34961,-333.79298 15.80314,-11.94636 32.57633,-22.6606 49.95703,-32.37109 z"
       id="path4370-92-6-1-7-8-3"
       inkscape:connector-curvature="0" />
    <path
       style="fill:none;fill-rule:evenodd;stroke:#000000;stroke-width:140;stroke-linecap:round;stroke-linejoin:round;stroke-miterlimit:4;stroke-dasharray:none;stroke-opacity:1"
       d="m -1183.8153,-535.94985 c 124.6663,-20.01867 257.16388,14.96556 355.69831,93.91739 98.53443,78.95183 161.56324,200.63537 169.20486,326.66724 7.64162,126.031864 -40.22357,254.43918 -128.49715,344.71764 -88.27358,90.27845 -215.57372,141.01486 -341.74542,136.20511 -121.4709,-4.63055 -240.1687,-60.49907 -321.1481,-151.1576 -80.9793,-90.65853 -123.1487,-214.88490985 -114.0931,-336.1063 l -7.6923,-399.85899 7.8986,395.34979 c 1.9503,97.619397 4.1668,197.482435 -26.2009,290.27874 -15.1838,46.39815 -38.7791,90.53109 -72.3942,125.93399 -33.6151,35.4029 -77.6766,61.71288 -125.7783,70.05327 -44.4226,7.70247 -91.0916,-0.24943 -131.4092,-20.42853 -40.3175,-20.17911 -74.2022,-52.23665 -98.8995,-89.95592 -24.6973,-37.71927 -40.3284,-80.86714 -49.5508,-124.99929 -9.2224,-44.132157 -12.1484,-89.303376 -14.8501,-134.3078229 l -4.694,-78.1931401 c -2.9995,-49.965907 -6.5023,-100.144387 -17.7078,-148.929887 -11.2055,-48.7855 -30.1048,-96.0156 -57.8606,-137.67136 -55.5117,-83.31154 -146.1616,-140.06005 -243.5628,-163.19791 -146.0041,-34.68358 -306.2425,1.60272 -425.9536,92.09811 -119.711,90.49538 -197.7844,232.63417 -214.6916,381.745857 -10.8103,95.340149 3.3589,195.675253 53.506,277.479173 25.0735,40.90197 58.9138,76.64896 99.4524,102.30582 40.5386,25.65687 87.8199,41.02267 135.7814,42.1837 47.8212,1.15763 95.6525,-11.82161 137.2963,-35.35884 41.6438,-23.53723 77.1337,-57.43228 104.1667,-96.89645 54.0661,-78.92834 73.2915,-178.114997 67.3341,-273.599703 -10.8517,-173.931777 -106.5993,-342.026337 -254.4237,-434.319167 -73.9122,-46.14641 -159.583,-73.507 -246.6119,-77.80611 -87.0289,-4.29911 -175.215,14.57547 -252.4308,54.95157 -77.6004,40.57724 -143.7642,102.75202 -189.0824,177.68268 -45.3182,74.93066 -69.6593,162.39985 -69.5619,249.968855 0.097,87.569008 24.633,174.983835 70.1177,249.813505 45.4848,74.82967 111.7867,136.85713 189.4772,177.26166"
       id="path4370-92-6-1-7-8-32"
       inkscape:path-effect="#path-effect4372-52-4-6-8-7-28"
       inkscape:original-d="m -1183.8153,-535.94985 c 0,0 332.55451,785.71155 54.6606,901.50738 -201.0278,83.76645 -346.3466,-261.5123 -435.2412,-487.2639 l -7.6923,-399.85899 7.8986,395.34979 c -4.6461,117.9565071 -47.1529,464.83339 -224.3734,486.266 -156.455,18.92125 -285.9413,-223.62791 -294.7096,-369.6915629 l -4.694,-78.1931401 c -10.4365,-173.851807 -137.5971,-420.792847 -319.1312,-449.799157 -262.2863,-41.90925 -596.5104,211.92298 -640.6452,473.843967 -28.3195,168.064233 118.3603,417.680783 288.7398,421.968693 169.9377,4.27679 340.4847,-238.84305 308.7971,-405.854993 -54.7613,-288.623207 -497.548,-601.423357 -753.4664,-457.173707 -248.1971,139.89758 -372.5768,621.03913 0.9506,854.7267"
       inkscape:connector-curvature="0"
       sodipodi:nodetypes="cacccassaaaaac" />
  </g>
</svg>
