<?xml version="1.0" encoding="UTF-8" standalone="no"?>
<!-- Created with Inkscape (http://www.inkscape.org/) -->

<svg
   xmlns:dc="http://purl.org/dc/elements/1.1/"
   xmlns:cc="http://creativecommons.org/ns#"
   xmlns:rdf="http://www.w3.org/1999/02/22-rdf-syntax-ns#"
   xmlns:svg="http://www.w3.org/2000/svg"
   xmlns="http://www.w3.org/2000/svg"
   xmlns:sodipodi="http://sodipodi.sourceforge.net/DTD/sodipodi-0.dtd"
   xmlns:inkscape="http://www.inkscape.org/namespaces/inkscape"
   width="2000"
   height="2048"
   id="svg2992"
   version="1.1"
   inkscape:version="0.91 r13725"
   sodipodi:docname="ഞ.svg">
  <defs
     id="defs5498">
    <inkscape:path-effect
       is_visible="true"
       id="path-effect3891"
       effect="spiro" />
    <inkscape:path-effect
       is_visible="true"
       id="path-effect4141-3-4-6-8"
       effect="spiro" />
    <inkscape:path-effect
       is_visible="true"
       id="path-effect4141-3-4-6-8-9"
       effect="spiro" />
    <inkscape:path-effect
       is_visible="true"
       id="path-effect4141-3-4-6-8-9-5"
       effect="spiro" />
    <inkscape:path-effect
       effect="spiro"
       id="path-effect3782"
       is_visible="true" />
    <inkscape:path-effect
       effect="spiro"
       id="path-effect3846"
       is_visible="true" />
    <inkscape:path-effect
       effect="spiro"
       id="path-effect3801"
       is_visible="true" />
    <inkscape:path-effect
       effect="spiro"
       id="path-effect4918"
       is_visible="true" />
    <inkscape:path-effect
       effect="spiro"
       id="path-effect4372-5-8-0"
       is_visible="true" />
    <inkscape:path-effect
       effect="spiro"
       id="path-effect4372-5-8-0-0"
       is_visible="true" />
    <inkscape:path-effect
       is_visible="true"
       id="path-effect4141-3-4-6-8-9-5-3"
       effect="spiro" />
    <inkscape:path-effect
       is_visible="true"
       id="path-effect4141-3-4-6-8-9-5-4"
       effect="spiro" />
    <inkscape:path-effect
       is_visible="true"
       id="path-effect4141-3-4-6-8-9-5-4-6"
       effect="spiro" />
    <inkscape:path-effect
       is_visible="true"
       id="path-effect4141-3-4-6-8-9-5-4-6-5"
       effect="spiro" />
    <inkscape:path-effect
       is_visible="true"
       id="path-effect4141-3-4-6-8-9-5-4-6-5-7"
       effect="spiro" />
    <inkscape:path-effect
       is_visible="true"
       id="path-effect4141-3-4-6-8-9-5-4-6-5-5"
       effect="spiro" />
    <inkscape:path-effect
       is_visible="true"
       id="path-effect4141-3-4-6-8-9-5-4-6-5-8"
       effect="spiro" />
    <inkscape:path-effect
       is_visible="true"
       id="path-effect4141-3-4-6-8-9-5-4-6-5-54"
       effect="spiro" />
    <inkscape:path-effect
       is_visible="true"
       id="path-effect4141-3-4-6-8-9-5-4-6-5-54-7"
       effect="spiro" />
  </defs>
  <sodipodi:namedview
     inkscape:window-height="704"
     inkscape:window-width="1366"
     inkscape:pageshadow="2"
     inkscape:pageopacity="0.0"
     borderopacity="1.0"
     bordercolor="#666666"
     pagecolor="#ffffff"
     id="base"
     showgrid="true"
     showguides="true"
     inkscape:guide-bbox="true"
     inkscape:zoom="0.227"
     inkscape:cx="-498.45618"
     inkscape:cy="212.78798"
     inkscape:window-x="-6"
     inkscape:window-y="0"
     inkscape:current-layer="layer1-05"
     inkscape:window-maximized="1">
    <sodipodi:guide
       orientation="horizontal"
       position="0,600"
       id="guide5596" />
    <inkscape:grid
       type="xygrid"
       id="grid3769"
       empspacing="3"
       visible="true"
       enabled="true"
       snapvisiblegridlinesonly="true"
       spacingx="4px"
       units="px"
       dotted="true"
       spacingy="4px" />
    <sodipodi:guide
       orientation="0,1"
       position="-1040,1600"
       id="guide2985" />
  </sodipodi:namedview>
  <metadata
     id="metadata5594">
    <rdf:RDF>
      <cc:Work
         rdf:about="">
        <dc:format>image/svg+xml</dc:format>
        <dc:type
           rdf:resource="http://purl.org/dc/dcmitype/StillImage" />
        <dc:title />
      </cc:Work>
    </rdf:RDF>
  </metadata>
  <g
     inkscape:label="Layer 1"
     inkscape:groupmode="layer"
     id="layer1"
     transform="translate(0,1048)">
    <g
       id="layer1-05"
       inkscape:label="Layer 1"
       transform="translate(-185.15889,-518.04243)">
      <g
         transform="translate(-2634.3901,235.93018)"
         inkscape:label="Layer 1"
         id="layer1-0" />
      <g
         transform="translate(-2612.1519,1410.0117)"
         inkscape:label="Layer 1"
         id="layer1-0-3" />
      <path
         sodipodi:nodetypes="caaaaaacccaaaaac"
         inkscape:connector-curvature="0"
         inkscape:original-d="m 2304.7848,866.44491 c 0,0 231.3261,-262.82964 212.8924,-418.14728 C 2492.0927,232.72855 2311.3297,-35.074279 2094.5632,-46.773951 1846.524,-60.161525 1579.1607,217.38092 1552.2456,464.31865 1534.5058,627.07606 1665.0067,871.32516 1828.7247,870.27601 2002.1017,869.16497 2133.982,609.09454 2115.9818,436.6509 2092.0826,207.69544 1853.9165,-57.352099 1623.9111,-47.902935 1415.4688,-39.339636 1215.3147,196.04301 1215.495,426.32261 l 0.2704,443.3424 -1.6867,-439.7345 C 1212.7418,159.07531 1146.9781,28.029305 986.57744,-6.7299333 719.80682,-64.53982 363.50783,225.64735 341.51569,497.72251 328.36933,660.36228 524.02387,922.31185 673.67883,857.28941 831.18948,788.85381 797.9118,399.64268 635.6156,343.49129 522.34447,304.30164 397.36497,489.21292 393.12353,608.99685 389.473,712.09267 585.14651,851.70213 585.14651,851.70213"
         inkscape:path-effect="#path-effect4141-3-4-6-8-9-5-4-6-5"
         id="path4139-1-0-4-2-2-4-1-2-0"
         d="m 2304.7848,866.44491 c 129.6722,-97.09037 210.6651,-256.17055 212.8924,-418.14728 1.6405,-119.30132 -38.7347,-239.42397 -115.235,-330.98376 -76.5003,-91.55979 -189.0747,-153.086719 -307.879,-164.087821 -137.7269,-12.753307 -278.2497,43.0928775 -376.649,140.298553 -98.3992,97.205678 -155.3131,232.866088 -165.6686,370.794048 -6.8578,91.34048 6.7349,186.48006 53.8232,265.04723 23.5442,39.28358 55.2912,73.89316 93.6086,98.97904 38.3175,25.08588 83.2729,40.43751 129.0473,41.93109 49.4482,1.61345 98.9531,-13.0224 140.9073,-39.24385 41.9543,-26.22146 76.4289,-63.73352 101.1823,-106.57032 49.5069,-85.67359 59.3146,-189.87853 45.1675,-287.81094 C 2098.1603,313.28299 2042.9485,194.65238 1955.564,105.76379 1868.1794,16.875201 1748.362,-40.886556 1623.9111,-47.902935 1563.963,-51.282729 1503.0485,-42.9466 1447.3222,-20.5909 1391.596,1.7647999 1341.5412,38.319046 1303.9158,85.111401 c -37.6253,46.792359 -62.34,103.268359 -75.0253,161.956319 -12.6853,58.68796 -13.4321,119.21164 -13.3955,179.25489 l 0.2704,443.3424 -1.6867,-439.7345 c -0.336,-87.61034 -5.6513,-177.70569 -43.255,-256.83622 C 1133.2199,93.96375 1066.1906,29.840898 986.57744,-6.7299333 911.88139,-41.042048 827.01497,-52.286949 745.71323,-40.168832 664.4115,-28.050716 586.89441,7.1963903 523.30227,59.281521 459.71013,111.36665 410.07623,180.03985 379.0879,256.17489 c -30.98832,76.13505 -43.41841,159.55589 -37.57221,241.54762 6.43671,90.2735 36.00509,180.6261 94.3611,249.80205 29.178,34.58797 65.29941,63.51249 106.15543,82.96678 40.85602,19.4543 86.46403,29.29171 131.64661,26.79807 67.65051,-3.73365 133.23408,-35.95041 177.70359,-87.06786 44.46952,-51.11745 67.29006,-120.4344 62.10391,-187.98908 -5.18615,-67.55469 -38.25842,-132.50437 -89.69673,-176.60235 -51.43831,-44.09798 -120.58469,-66.85237 -188.174,-62.13883 -66.01107,4.60347 -129.88344,35.30804 -174.55802,84.12233 -44.67458,48.81429 -69.62432,115.23343 -67.93405,181.38323 1.41317,55.30537 21.21465,109.98554 55.54102,153.37197 34.32637,43.38642 82.98491,75.23553 136.48196,89.33331"
         style="fill:none;fill-rule:evenodd;stroke:#000000;stroke-width:140;stroke-linecap:round;stroke-linejoin:round;stroke-miterlimit:4;stroke-dasharray:none;stroke-opacity:1" />
      <path
         style="color:#000000;font-style:normal;font-variant:normal;font-weight:normal;font-stretch:normal;font-size:medium;line-height:normal;font-family:sans-serif;text-indent:0;text-align:start;text-decoration:none;text-decoration-line:none;text-decoration-style:solid;text-decoration-color:#000000;letter-spacing:normal;word-spacing:normal;text-transform:none;direction:ltr;block-progression:tb;writing-mode:lr-tb;baseline-shift:baseline;text-anchor:start;white-space:normal;clip-rule:nonzero;display:inline;overflow:visible;visibility:visible;opacity:1;isolation:auto;mix-blend-mode:normal;color-interpolation:sRGB;color-interpolation-filters:linearRGB;solid-color:#000000;solid-opacity:1;fill:#000000;fill-opacity:1;fill-rule:evenodd;stroke:none;stroke-width:140;stroke-linecap:round;stroke-linejoin:round;stroke-miterlimit:4;stroke-dasharray:none;stroke-dashoffset:0;stroke-opacity:1;color-rendering:auto;image-rendering:auto;shape-rendering:auto;text-rendering:auto;enable-background:accumulate"
         d="m 1449.8027,1276.207 c -60.7724,-0.4355 -122.421,9.7156 -180.6132,33.0606 -66.755,26.7801 -126.427,70.2596 -171.8946,126.8047 a 70.007,70.007 0 0 0 -0,0 c -14.8814,18.5071 -27.7915,38.1582 -39.1797,58.4961 -46.5962,-74.5066 -114.96312,-133.5984 -194.38674,-170.0821 -87.70013,-40.2856 -185.8301,-53.1605 -280.40234,-39.0644 -94.46049,14.0794 -183.25858,54.586 -256.44727,114.5312 -73.11303,59.8832 -129.40875,137.963 -164.69531,224.6582 -35.25504,86.6179 -49.14498,180.5434 -42.55859,272.916 7.28266,102.1379 40.46782,206.7289 110.67968,289.959 3.19387,3.7861 6.53659,7.4563 9.8711,11.1328 0.51667,0.6636 1.00137,1.348 1.52344,2.0079 43.95564,55.5572 105.03692,95.5373 173.54101,113.5898 a 70.007,70.007 0 0 0 28.18945,1.916 c 26.75028,5.2464 54.26827,7.4096 82.03907,5.877 87.28769,-4.8174 169.37923,-45.1757 226.6582,-111.0176 57.25341,-65.8124 85.75143,-152.4666 79.08594,-239.291 -6.66255,-86.7863 -47.96455,-167.8352 -113.93164,-224.3887 -65.9385,-56.529 -152.11231,-84.8578 -238.60352,-78.8262 -80.162,5.5904 -155.97622,40.4058 -212.42969,97.4317 5.63807,-30.3912 14.06048,-60.1578 25.60743,-88.5274 26.69011,-65.5747 69.66312,-124.8419 123.73437,-169.1289 53.99559,-44.2251 120.23203,-74.2123 188.375,-84.3691 68.03122,-10.1401 139.63225,-0.5242 201.32422,27.8144 64.95197,29.8361 120.18725,83.0126 150.24219,146.2578 29.86039,62.8361 36.15462,142.0974 36.48047,227.0606 l 1.68554,439.5078 0,0.2266 a 70.007,70.007 0 0 0 139.99999,-0.3106 l 0,-0.2265 0,-0.043 -0.2695,-443.0742 c -0.036,-59.4341 1.1089,-114.8932 11.8144,-164.4219 10.6779,-49.4007 31.3885,-95.858 61.1582,-132.8809 l -0,0 c 29.7832,-37.0395 70.2205,-66.6683 114.918,-84.5996 44.9471,-18.0314 95.7569,-25.2563 146.5859,-22.3906 20.9847,1.1831 41.9286,4.184 62.6308,8.7246 -4.6595,4.3043 -9.3676,8.5572 -13.8808,13.0156 -111.9634,110.6054 -174.7468,261.7461 -186.2793,415.3516 -7.6464,101.8455 6.7413,211.4279 63.5859,306.2734 28.4884,47.5332 67.1305,90.0171 115.3086,121.5586 48.36,31.6606 105.1983,51.3734 165.1055,53.3282 64.7608,2.1131 127.2774,-16.7121 180.291,-49.8457 52.7836,-32.9897 94.7085,-79.0216 124.6914,-130.9083 59.8056,-103.4958 69.6461,-223.424 53.8399,-332.8417 -19.8386,-137.3312 -80.9027,-269.3707 -179.7813,-369.9512 -9.0844,-9.2408 -18.5666,-18.0769 -28.2305,-26.7071 36.7242,-7.8088 74.1639,-10.4544 110.8575,-7.0566 98.9864,9.166 195.8865,61.7967 260.6152,139.2676 64.9553,77.742 100.3735,182.2742 98.959,285.1406 -1.9152,139.2787 -73.3525,279.5893 -184.8535,363.0742 a 70.007,70.007 0 1 0 83.9101,112.0684 c 147.8434,-110.6957 238.3903,-288.5441 240.9297,-473.2188 1.8665,-135.7362 -43.4644,-271.4505 -131.5098,-376.8281 -88.2718,-105.6487 -216.5204,-176.072 -355.1425,-188.9082 -94.4337,-8.7444 -188.1696,9.8622 -272.3243,49.1035 -62.8143,-28.7532 -130.7929,-46.4687 -200.8418,-50.4179 -8.6334,-0.4868 -17.2967,-0.766 -25.9785,-0.8282 z m 227.6328,211.3731 c 27.5232,17.911 53.1879,38.7361 76.1407,62.084 75.8903,77.1966 125.2503,182.4156 141.0547,291.8203 12.4879,86.4471 2.712,174.93 -36.4961,242.7812 -19.5239,33.7869 -46.5469,62.7793 -77.6719,82.2324 a 70.007,70.007 0 0 0 -0,0 c -30.8948,19.3094 -67.3878,29.7545 -101.5234,28.6407 -31.6416,-1.0325 -64.7133,-12.022 -92.9883,-30.5332 -28.4567,-18.6303 -53.3083,-45.3644 -71.9082,-76.3985 -37.3322,-62.2889 -50.1315,-142.9867 -44.0625,-223.8222 9.1785,-122.2506 60.2255,-242.4303 145.0606,-326.2364 19.0177,-18.787 40.0409,-35.6558 62.3964,-50.5683 z m -1170.63862,320.248 c 43.09757,1.4468 87.04241,18.0629 119.36328,45.7715 36.90951,31.6425 61.75118,80.4933 65.46093,128.8164 3.70681,48.2848 -13.43548,100.2651 -45.12109,136.6875 -31.66007,36.3931 -80.73472,60.4693 -128.74805,63.1192 -32.48038,1.7925 -66.82612,-5.4066 -97.69531,-20.1055 -26.2637,-12.5059 -50.7128,-30.6942 -71.70312,-52.6856 -22.73962,-30.6134 -36.35088,-69.3808 -37.32227,-107.3964 -1.2104,-47.3697 17.50841,-97.2754 49.5957,-132.336 32.11015,-35.0855 80.2011,-58.2321 127.78907,-61.5508 6.08592,-0.4244 12.22406,-0.527 18.38086,-0.3203 z"
         id="path4139-1-0-4-2-2-4-1-2-0-1"
         inkscape:connector-curvature="0" />
      <path
         sodipodi:nodetypes="caaassacccaaaaac"
         inkscape:connector-curvature="0"
         inkscape:original-d="m -261.45047,893.86627 c 0,0 243.02907,-276.68807 223.662794,-440.19527 C -64.666516,226.73544 -254.57446,-55.188044 -482.30735,-67.504623 -742.89505,-81.59809 -1023.7845,210.57856 -1052.0612,470.53677 c -18.6373,171.33925 122.53711,464.65645 290.46637,427.3626 185.7854,-41.25935 333.41261,-415.0706 301.78966,-456.48921 C -606.75579,248.9395 -735.12856,-78.640525 -976.77011,-68.693131 -1195.7577,-59.678307 -1406.0377,188.11555 -1405.8483,430.53729 l 0.2841,466.71887 -1.7721,-462.92074 c -1.4045,-285.1368 -70.4952,-423.092571 -239.0107,-459.684589 -280.2668,-60.858079 -654.5912,244.630029 -677.6959,531.051119 -13.8115,171.2154 191.7414,446.97692 348.9675,378.52607 165.4793,-72.04406 130.518,-481.77744 -39.9889,-540.88957 -119.0015,-41.25603 -250.3039,153.40521 -254.7599,279.50509 -3.8352,108.53183 201.7376,255.50259 201.7376,255.50259"
         inkscape:path-effect="#path-effect4141-3-4-6-8-9-5-4-6-5-54"
         id="path4139-1-0-4-2-2-4-1-2-0-18"
         d="M -261.45047,893.86627 C -125.24752,791.42545 -40.219791,624.08065 -37.787676,453.671 -35.996583,328.1755 -78.27114,201.76768 -158.61144,105.34277 -238.95173,8.9178522 -357.33142,-55.957103 -482.30735,-67.504623 -627.13349,-80.886262 -774.84459,-21.919478 -878.1612,80.449262 -981.4778,182.818 -1041.12,325.50584 -1052.0612,470.53677 c -7.2497,96.09912 6.9142,196.20694 56.35145,278.93274 24.71862,41.3629 58.07724,77.81897 98.36816,104.24892 40.29091,26.42995 87.58625,42.6107 135.74676,44.18094 52.02451,1.69623 104.10566,-13.73847 148.21842,-41.36983 44.11275,-27.63137 80.33333,-67.14683 106.31714,-112.24969 51.96763,-90.20574 62.14221,-199.83546 47.2541,-302.86969 -18.74782,-129.74564 -76.59625,-254.57666 -168.35067,-348.20645 -91.75443,-93.62979412 -217.7257,-154.576055 -348.61427,-161.896841 -63.04359,-3.526118 -127.09729,5.32737 -185.66319,28.927408 -58.5659,23.600039 -111.1369,62.130488 -150.6357,111.392767 -39.4988,49.262276 -65.4248,108.674756 -78.7306,170.399006 -13.3057,61.72426 -14.0871,125.36913 -14.0487,188.51124 l 0.2841,466.71887 -1.7721,-462.92074 c -0.3529,-92.17798 -5.9131,-186.9611 -45.3861,-270.26047 -39.4731,-83.299365 -109.8874,-150.888497 -193.6246,-189.424119 -78.5279,-36.138358 -167.7965,-47.947941 -253.2868,-35.140604 -85.4903,12.807338 -166.9703,49.980347 -233.7686,104.849245 -66.7984,54.868897 -118.8828,127.167938 -151.3662,207.276918 -32.4834,80.10899 -45.4606,167.84289 -39.2743,254.06556 6.8093,94.90453 37.8572,189.88508 99.1332,262.6758 30.638,36.39536 68.5682,66.85571 111.4855,87.38406 42.9173,20.52836 90.8405,30.97115 138.3488,28.46621 71.3294,-3.76094 140.5479,-37.60309 187.4989,-91.43273 46.9509,-53.82964 71.0661,-126.90401 65.6092,-198.12368 -5.457,-71.21968 -40.3584,-139.69119 -94.6317,-186.12862 -54.2732,-46.43743 -127.2203,-70.32003 -198.4653,-65.20454 -69.3975,4.98283 -136.4937,37.36717 -183.414,88.74157 -46.9203,51.3744 -73.1147,121.20986 -71.3459,190.76352 1.4791,58.1651 22.2698,115.67659 58.3259,161.34195 36.0561,45.66537 87.1762,79.2296 143.4117,94.16064"
         style="fill:none;fill-rule:evenodd;stroke:#000000;stroke-width:69.29999542;stroke-linecap:round;stroke-linejoin:round;stroke-miterlimit:4;stroke-dasharray:none;stroke-opacity:1" />
      <path
         style="color:#000000;font-style:normal;font-variant:normal;font-weight:normal;font-stretch:normal;font-size:medium;line-height:normal;font-family:sans-serif;text-indent:0;text-align:start;text-decoration:none;text-decoration-line:none;text-decoration-style:solid;text-decoration-color:#000000;letter-spacing:normal;word-spacing:normal;text-transform:none;direction:ltr;block-progression:tb;writing-mode:lr-tb;baseline-shift:baseline;text-anchor:start;white-space:normal;clip-rule:nonzero;display:inline;overflow:visible;visibility:visible;opacity:1;isolation:auto;mix-blend-mode:normal;color-interpolation:sRGB;color-interpolation-filters:linearRGB;solid-color:#000000;solid-opacity:1;fill:#000000;fill-opacity:1;fill-rule:evenodd;stroke:none;stroke-width:69.29999542;stroke-linecap:round;stroke-linejoin:round;stroke-miterlimit:4;stroke-dasharray:none;stroke-dashoffset:0;stroke-opacity:1;color-rendering:auto;image-rendering:auto;shape-rendering:auto;text-rendering:auto;enable-background:accumulate"
         d="m -913.04492,1054.6133 c -59.36616,-0.3783 -119.23518,9.6458 -175.15038,32.1777 -64.0255,25.8 -121.3476,67.7682 -164.7168,121.8574 -30.7015,38.2905 -53.5031,81.7707 -69.3613,127.3985 -3.6438,-9.4443 -7.5501,-18.834 -11.9473,-28.1133 -43.1956,-91.1548 -119.4377,-164.1803 -210.4512,-206.0645 -84.9829,-39.109 -180.8342,-51.723 -272.9062,-37.9296 -92.0155,13.7848 -179.0826,53.5729 -250.6289,112.3417 -71.5082,58.7376 -126.8804,135.6974 -161.4825,221.0313 -34.5862,85.295 -48.2785,178.2182 -41.7246,269.5645 7.2292,100.7577 40.0597,202.7718 107.1856,282.5117 3.1299,3.7181 6.4008,7.3227 9.6699,10.9277 1.0235,1.3421 2.0081,2.7116 3.0547,4.0371 40.8098,51.6859 98.065,89.2782 161.7148,106.1777 a 34.653463,34.653463 0 0 0 19.6368,-0.3007 c 27.4321,6.1224 55.7058,8.7915 84.0898,7.2949 81.0666,-4.2743 158.478,-42.1363 211.7891,-103.2578 53.2982,-61.107 80.2339,-142.7736 74.0449,-223.5469 -6.1876,-80.7542 -45.1723,-157.2051 -106.6543,-209.8105 -61.4677,-52.5932 -142.8584,-79.2258 -223.4727,-73.4375 -78.503,5.6365 -153.3963,41.7694 -206.5195,99.9355 -28.8129,31.5481 -50.5362,68.9495 -64.1328,109.127 -0.4878,-4.8675 -0.9352,-9.7398 -1.2852,-14.6172 -5.8187,-81.0992 6.4437,-163.6415 36.8242,-238.5645 30.3648,-74.8839 79.1614,-142.5232 141.25,-193.5234 62.0506,-50.969 137.9432,-85.5257 216.9083,-97.3555 78.9085,-11.8213 161.5951,-0.8182 233.6679,32.3496 76.4609,35.1871 141.0463,97.3414 176.7969,172.7852 35.6566,75.2456 41.7009,164.6791 42.0488,255.5547 l 1.7715,462.8086 0,0.1113 a 34.653463,34.653463 0 0 0 69.3008,-0.1524 l 0,-0.1113 0,-0.021 -0.2852,-466.5859 c -0.038,-62.8421 0.9409,-123.9885 13.2715,-181.1895 12.3172,-57.1381 36.2703,-111.5977 71.8926,-156.0254 35.6284,-44.4351 83.4462,-79.5296 136.5527,-100.9296 53.2287,-21.4493 112.26923,-29.7412 170.77738,-26.4688 49.46271,2.7665 98.39021,14.0017 144.87109,32.1289 -24.3996,17.4114 -47.43847,36.7216 -68.71485,57.8027 -110.01609,109.0068 -172.54096,259.3458 -184.06445,412.0958 -7.64017,101.2748 6.90349,208.522 61.16016,299.3125 a 34.653463,34.653463 0 0 0 0,0 c 27.16152,45.4507 63.93002,85.8112 109.10547,115.4453 45.26609,29.6935 98.45227,48.0411 153.62304,49.8399 59.61971,1.9438 118.15114,-15.574 167.74219,-46.6368 49.47621,-30.9909 89.38056,-74.7302 117.94727,-124.3164 57.05283,-99.0327 67.22862,-216.4342 51.52343,-325.123 -19.74074,-136.6172 -80.46201,-268.076 -177.89648,-367.502 -25.89296,-26.4221 -54.37313,-50.3085 -84.77734,-71.4199 64.68224,-25.403 134.34779,-36.8478 202.68945,-30.5332 115.13278,10.638 225.74584,71.0867 300.263671,160.5235 74.633622,89.5757 114.474153,208.2698 112.798828,325.6542 -2.272277,159.2109 -82.59165,317.2894 -209.843749,412.9981 a 34.653463,34.653463 0 1 0 41.6543,55.3828 C -8.2797852,1971.081 81.456889,1794.4698 84.048828,1612.8613 85.955678,1479.2547 41.246198,1345.1335 -44.800781,1241.8594 -130.96355,1138.4463 -257.11061,1069.1445 -391.92969,1056.6875 c -97.75343,-9.0322 -195.73397,12.2367 -282.41211,56.1855 -66.29177,-32.9493 -138.79728,-53.2994 -213.30468,-57.4668 -8.44738,-0.4724 -16.91756,-0.7389 -25.39844,-0.7929 z m 239.38476,137.3906 c 39.46897,23.1412 75.9671,51.5166 107.94532,84.1484 86.07434,87.8337 141.04979,206.0362 158.80468,328.9102 14.07104,97.3796 3.89801,199.2384 -42.98437,280.6172 -23.40091,40.6194 -55.93628,75.9098 -94.68555,100.1816 -38.63445,24.1998 -84.26599,37.5502 -128.69531,36.1016 -41.15025,-1.3417 -82.55535,-15.3552 -117.87109,-38.5215 -35.4064,-23.2258 -65.35512,-55.7757 -87.63086,-93.0508 -44.61783,-74.6613 -58.40224,-167.6275 -51.54297,-258.5508 10.35883,-137.3118 67.11924,-272.3494 163.73633,-368.08 27.80601,-27.5509 59.21449,-51.5965 92.92382,-71.7559 z m -1240.10544,344.0566 c 58.2429,-1.1915 117.6937,19.7419 161.8301,57.5059 47.0645,40.2696 77.8829,100.764 82.6093,162.4492 4.725,61.6662 -16.5702,126.1468 -57.1738,172.6992 -40.5909,46.5378 -101.6188,76.36 -163.2109,79.6075 -41.2283,2.1737 -83.5864,-6.9536 -121.5723,-25.1231 -33.1352,-15.8493 -63.3283,-38.6353 -88.8691,-65.9844 -29.371,-39.0017 -46.6036,-87.7845 -47.8438,-136.5566 -1.5328,-60.2733 21.5866,-121.9451 62.293,-166.5156 40.7174,-44.5827 100.0186,-73.2179 160.3105,-77.5469 3.8673,-0.2777 7.7441,-0.4557 11.627,-0.5352 z"
         id="path4139-1-0-4-2-2-4-1-2-0-18-5"
         inkscape:connector-curvature="0" />
    </g>
  </g>
</svg>
