<?xml version="1.0" encoding="UTF-8" standalone="no"?>
<!-- Created with Inkscape (http://www.inkscape.org/) -->

<svg
   xmlns:dc="http://purl.org/dc/elements/1.1/"
   xmlns:cc="http://creativecommons.org/ns#"
   xmlns:rdf="http://www.w3.org/1999/02/22-rdf-syntax-ns#"
   xmlns:svg="http://www.w3.org/2000/svg"
   xmlns="http://www.w3.org/2000/svg"
   xmlns:sodipodi="http://sodipodi.sourceforge.net/DTD/sodipodi-0.dtd"
   xmlns:inkscape="http://www.inkscape.org/namespaces/inkscape"
   width="2000"
   height="2048"
   id="svg2992"
   version="1.1"
   inkscape:version="0.91 r13725"
   sodipodi:docname="ഞ.svg">
  <defs
     id="defs5498">
    <inkscape:path-effect
       is_visible="true"
       id="path-effect3891"
       effect="spiro" />
    <inkscape:path-effect
       is_visible="true"
       id="path-effect4141-3-4-6-8"
       effect="spiro" />
    <inkscape:path-effect
       is_visible="true"
       id="path-effect4141-3-4-6-8-9"
       effect="spiro" />
    <inkscape:path-effect
       is_visible="true"
       id="path-effect4141-3-4-6-8-9-5"
       effect="spiro" />
    <inkscape:path-effect
       effect="spiro"
       id="path-effect3782"
       is_visible="true" />
    <inkscape:path-effect
       effect="spiro"
       id="path-effect3846"
       is_visible="true" />
    <inkscape:path-effect
       effect="spiro"
       id="path-effect3801"
       is_visible="true" />
    <inkscape:path-effect
       effect="spiro"
       id="path-effect4918"
       is_visible="true" />
    <inkscape:path-effect
       effect="spiro"
       id="path-effect4372-5-8-0"
       is_visible="true" />
    <inkscape:path-effect
       effect="spiro"
       id="path-effect4372-5-8-0-0"
       is_visible="true" />
    <inkscape:path-effect
       is_visible="true"
       id="path-effect4141-3-4-6-8-9-5-3"
       effect="spiro" />
    <inkscape:path-effect
       is_visible="true"
       id="path-effect4141-3-4-6-8-9-5-4"
       effect="spiro" />
    <inkscape:path-effect
       is_visible="true"
       id="path-effect4141-3-4-6-8-9-5-4-6"
       effect="spiro" />
    <inkscape:path-effect
       is_visible="true"
       id="path-effect4141-3-4-6-8-9-5-4-6-5"
       effect="spiro" />
    <inkscape:path-effect
       is_visible="true"
       id="path-effect4141-3-4-6-8-9-5-4-6-5-7"
       effect="spiro" />
  </defs>
  <sodipodi:namedview
     inkscape:window-height="851"
     inkscape:window-width="1600"
     inkscape:pageshadow="2"
     inkscape:pageopacity="0.0"
     borderopacity="1.0"
     bordercolor="#666666"
     pagecolor="#ffffff"
     id="base"
     showgrid="true"
     showguides="true"
     inkscape:guide-bbox="true"
     inkscape:zoom="0.32102648"
     inkscape:cx="1519.4067"
     inkscape:cy="528.05312"
     inkscape:window-x="1599"
     inkscape:window-y="-1"
     inkscape:current-layer="layer1-05"
     inkscape:window-maximized="1">
    <sodipodi:guide
       orientation="horizontal"
       position="0,600"
       id="guide5596" />
    <inkscape:grid
       type="xygrid"
       id="grid3769"
       empspacing="3"
       visible="true"
       enabled="true"
       snapvisiblegridlinesonly="true"
       spacingx="4px"
       units="px"
       dotted="true"
       spacingy="4px" />
    <sodipodi:guide
       orientation="0,1"
       position="-1040,1600"
       id="guide2985" />
  </sodipodi:namedview>
  <metadata
     id="metadata5594">
    <rdf:RDF>
      <cc:Work
         rdf:about="">
        <dc:format>image/svg+xml</dc:format>
        <dc:type
           rdf:resource="http://purl.org/dc/dcmitype/StillImage" />
        <dc:title />
      </cc:Work>
    </rdf:RDF>
  </metadata>
  <g
     inkscape:label="Layer 1"
     inkscape:groupmode="layer"
     id="layer1"
     transform="translate(0,1048)">
    <g
       id="layer1-05"
       inkscape:label="Layer 1"
       transform="translate(-185.15889,-518.04243)">
      <g
         transform="translate(-2634.3901,235.93018)"
         inkscape:label="Layer 1"
         id="layer1-0" />
      <g
         transform="translate(-2612.1519,1410.0117)"
         inkscape:label="Layer 1"
         id="layer1-0-3" />
      <path
         sodipodi:nodetypes="caaaaaacccaaaac"
         inkscape:connector-curvature="0"
         inkscape:original-d="m 2312.7848,854.44491 c 0,0 226.4818,-326.33784 186.6624,-499.59752 C 2459.9819,183.12842 2292.5112,3.5783632 2116.8283,-9.853888 1873.8416,-28.432006 1561.728,168.67469 1517.0955,408.24851 c -32.7021,175.53513 121.1238,439.80499 299.6292,444.0275 171.4987,4.05677 324.7317,-241.80928 307.7171,-412.5101 C 2101.8165,212.77427 1842.2671,-37.178652 1615.0261,-17.212888 1393.3827,2.2610632 1203.3147,278.04301 1203.495,508.32261 l 0.2704,345.3424 -1.6867,-341.7345 C 1200.7418,241.07531 986.3556,6.2654796 759.26749,-7.4199802 562.98488,-19.248948 340.89611,196.23848 325.38573,392.26454 310.02134,586.44561 492.83735,846.2728 687.57148,850.85221 811.51638,853.76692 992.08973,678.32784 931.56198,570.12791 837.96018,402.80453 337.9669,661.75305 364.1787,664.47775"
         inkscape:path-effect="#path-effect4141-3-4-6-8-9-5-4-6-5"
         id="path4139-1-0-4-2-2-4-1-2-0"
         d="m 2312.7848,854.44491 c 76.6084,-54.95486 136.3694,-133.07199 169.3672,-221.38976 32.9978,-88.31778 39.1004,-186.48308 17.2952,-278.20776 C 2477.9167,264.278 2429.3276,180.39344 2361.825,116.28592 2294.3224,52.178405 2208.1889,8.0240495 2116.8283,-9.853888 c -133.1372,-26.053005 -276.2329,5.1588312 -387.2498,83.130119 -111.0169,77.971289 -188.7398,201.403859 -212.483,334.972279 -17.8176,100.23352 -4.9478,208.01775 48.2586,294.81242 26.6031,43.39734 62.9821,81.00475 106.4431,107.50373 43.4611,26.49898 94.0251,41.68048 144.9275,41.71135 48.3388,0.0293 96.4135,-13.5811 138.3757,-37.57716 41.9623,-23.99606 77.8271,-58.21092 105.1126,-98.11254 54.5712,-79.80325 73.6641,-180.6043 64.2288,-276.8204 -12.2463,-124.88159 -71.9198,-244.74952 -165.0416,-328.85486 -93.1218,-84.105344 -218.9356,-131.374385 -344.3741,-128.123938 -63.0162,1.632919 -125.9474,15.8027914 -182.4788,43.693869 -56.5314,27.891077 -106.22,69.597977 -143.1762,120.666109 -36.9561,51.06814 -60.8023,110.99182 -73.0261,172.83266 -12.2238,61.84083 -12.8994,125.3055 -12.85,188.34286 l 0.2704,345.3424 -1.6867,-341.7345 c -0.3233,-65.50089 -1.4296,-131.4839 -15.0773,-195.54802 C 1173.3537,252.31836 1147.052,190.50324 1106.7018,138.90548 1066.3515,87.307721 1012.3778,46.514569 951.80423,21.588524 891.23061,-3.3375214 824.57111,-12.509961 759.26749,-7.4199802 653.84049,0.79735021 551.94121,46.37665 474.50738,118.39316 397.07354,190.40968 344.38953,288.23938 325.38573,392.26454 c -20.43159,111.84077 -0.61982,233.19545 66.25472,325.13892 33.43727,45.97174 78.12817,83.97731 129.68999,107.91117 51.56183,23.93387 109.96087,33.53718 166.24104,25.53758 66.82856,-9.49894 129.70488,-44.09913 173.86186,-95.15251 44.15698,-51.05338 69.30797,-118.07651 70.12864,-185.57179 1.03464,-85.09349 -37.31007,-169.86822 -101.89714,-225.28015 -64.58707,-55.41193 -154.20596,-80.42249 -238.15299,-66.46299 -83.94703,13.95951 -160.64881,66.62743 -203.8271,139.9596 -43.17828,73.33217 -52.0238,165.95414 -23.50605,246.13338"
         style="fill:none;fill-rule:evenodd;stroke:#000000;stroke-width:140;stroke-linecap:round;stroke-linejoin:round;stroke-miterlimit:4;stroke-dasharray:none;stroke-opacity:1" />
      <path
         style="color:#000000;font-style:normal;font-variant:normal;font-weight:normal;font-stretch:normal;font-size:medium;line-height:normal;font-family:sans-serif;text-indent:0;text-align:start;text-decoration:none;text-decoration-line:none;text-decoration-style:solid;text-decoration-color:#000000;letter-spacing:normal;word-spacing:normal;text-transform:none;direction:ltr;block-progression:tb;writing-mode:lr-tb;baseline-shift:baseline;text-anchor:start;white-space:normal;clip-rule:nonzero;display:inline;overflow:visible;visibility:visible;opacity:1;isolation:auto;mix-blend-mode:normal;color-interpolation:sRGB;color-interpolation-filters:linearRGB;solid-color:#000000;solid-opacity:1;fill:#000000;fill-opacity:1;fill-rule:evenodd;stroke:none;stroke-width:140;stroke-linecap:round;stroke-linejoin:round;stroke-miterlimit:4;stroke-dasharray:none;stroke-dashoffset:0;stroke-opacity:1;color-rendering:auto;image-rendering:auto;shape-rendering:auto;text-rendering:auto;enable-background:accumulate"
         d="m 2031.2188,1115.8809 c -66.2318,0.8498 -132.0273,13.2623 -194.0665,36.1953 -66.0241,-24.196 -136.5071,-36.2949 -207.5097,-34.4551 -72.2928,1.8733 -145.0582,18.0456 -211.6387,50.8945 -66.767,32.9411 -125.0974,81.8586 -168.9121,142.4043 -11.5966,16.0249 -21.9567,32.6985 -31.293,49.8125 -11.5742,-20.8372 -24.586,-41.0305 -39.5273,-60.1367 -47.9813,-61.356 -111.5045,-109.3446 -183.40041,-138.9297 -71.69786,-29.5037 -149.13493,-39.9475 -224.61328,-34.0644 -121.9361,9.504 -237.9203,61.5016 -326.99414,144.3437 -88.98875,82.763 -148.58887,193.6591 -170.30859,312.5508 -23.47797,128.5162 -1.73679,268.5724 78.5039,378.8926 40.09459,55.1246 93.60797,100.8851 156.82813,130.2304 63.38438,29.4217 134.87729,41.3951 205.56445,31.3477 84.2195,-11.9708 161.52693,-54.5791 216.95508,-118.6641 55.38317,-64.0329 86.15446,-146.196 87.17966,-230.5136 1.2972,-106.6829 -45.33873,-209.7872 -126.31247,-279.2579 -80.97369,-69.4706 -189.96927,-99.8879 -295.21485,-82.3867 -46.18099,7.6794 -90.05378,24.3304 -129.33203,48.3594 19.85463,-32.524 43.87371,-62.3658 71.48243,-88.043 65.79384,-61.1908 153.60948,-100.3507 242.52734,-107.2812 55.12889,-4.297 111.00959,3.6046 160.45898,23.9531 49.25144,20.2669 93.6754,53.8655 126.3945,95.7051 32.731,41.8546 55.2356,93.8257 66.9766,148.9394 11.7675,55.2383 13.2205,116.3639 13.541,181.3086 l 1.6875,341.7344 a 70.007,70.007 0 0 0 140,-0.4004 l -0.2715,-345.3418 c -0.049,-62.5004 0.9692,-121.3284 11.5215,-174.7129 10.5337,-53.2903 30.971,-103.7843 61.0645,-145.3691 30.0974,-41.5905 71.1417,-76.0886 117.4375,-98.9297 46.4822,-22.933 99.5826,-35.0997 153.3222,-36.4922 8.4333,-0.2185 16.882,-0.065 25.334,0.2578 -101.2361,88.2315 -170.4475,210.4927 -193.998,342.9766 -20.3476,114.4659 -6.5751,239.1252 57.498,343.6465 32.0464,52.277 75.9106,97.9024 129.6817,130.6875 53.9193,32.8755 116.5337,51.904 181.3261,51.9433 61.506,0.037 121.107,-17.0394 173.168,-46.8105 51.9333,-29.6979 95.2506,-71.2622 128.1445,-119.3652 65.7801,-96.1949 86.9072,-213.0955 76.1133,-323.1661 -13.9772,-142.533 -81.1546,-277.661 -187.7891,-373.9707 -2.6257,-2.3715 -5.3689,-4.5966 -8.0371,-6.916 35.3208,-2.055 70.7377,0.072 105.1036,6.7969 78.1804,15.2987 152.6542,53.5152 210.2343,108.1992 57.5558,54.661 99.4254,127.0174 117.7246,203.9942 18.5265,77.9326 13.2705,162.4815 -14.7656,237.5195 -28.0361,75.0379 -79.5065,142.3182 -144.5957,189.0098 a 70.007,70.007 0 1 0 81.6035,113.7578 c 88.1276,-63.2181 156.1792,-152.1721 194.1387,-253.7696 37.9595,-101.5976 44.9081,-213.3797 19.8242,-318.8964 -24.7618,-104.1621 -80.0701,-199.5749 -157.5195,-273.129 -77.4251,-73.5309 -175.2171,-123.623 -279.7578,-144.08 -38.1888,-7.473 -76.9055,-10.8739 -115.4824,-10.3789 z m -194.0958,189.041 c 33.2472,16.9225 64.328,37.9476 91.7872,62.748 79.6091,71.901 131.7795,176.5081 142.2949,283.7383 8.0767,82.3616 -8.9836,167.065 -52.3457,230.4766 -21.6773,31.7001 -50.0869,58.5652 -82.0782,76.8593 -31.8628,18.2208 -68.4129,28.3626 -103.5839,28.3418 -37.0124,-0.022 -75.5264,-11.3541 -108.5293,-31.4765 -33.151,-20.2127 -62.0453,-49.8045 -83.2051,-84.3223 -42.3397,-69.0679 -54.3072,-159.9755 -39.0195,-245.9766 20.4368,-114.9678 88.6392,-223.1067 183.7968,-289.9394 16.1463,-11.3401 33.2117,-21.4418 50.8828,-30.4492 z M 655.26953,1549.498 c 52.36897,0.4463 106.08126,19.6877 145.24414,53.2872 48.20042,41.3531 78.25457,107.7986 77.48242,171.3027 -0.61613,50.6729 -20.14733,102.5569 -53.07812,140.6309 -32.88579,38.0218 -81.32996,64.6136 -130.76758,71.6406 -41.8732,5.9518 -87.17867,-1.2805 -126.91797,-19.7266 -39.9035,-18.5223 -75.77278,-48.7749 -102.55273,-85.5937 -5.32587,-7.3224 -10.19806,-15.0046 -14.81836,-22.8672 a 70.007,70.007 0 0 0 -3.30078,-12.3418 c -21.28242,-59.8366 -14.35032,-132.4314 17.87304,-187.1582 32.22337,-54.7269 92.34174,-96.0061 154.99024,-106.4239 11.7466,-1.9533 23.76056,-2.8529 35.8457,-2.75 z"
         id="path4139-1-0-4-2-2-4-1-2-0-8"
         inkscape:connector-curvature="0" />
    </g>
  </g>
</svg>
