<?xml version="1.0" encoding="UTF-8" standalone="no"?>
<!-- Created with Inkscape (http://www.inkscape.org/) -->

<svg
   xmlns:dc="http://purl.org/dc/elements/1.1/"
   xmlns:cc="http://creativecommons.org/ns#"
   xmlns:rdf="http://www.w3.org/1999/02/22-rdf-syntax-ns#"
   xmlns:svg="http://www.w3.org/2000/svg"
   xmlns="http://www.w3.org/2000/svg"
   xmlns:sodipodi="http://sodipodi.sourceforge.net/DTD/sodipodi-0.dtd"
   xmlns:inkscape="http://www.inkscape.org/namespaces/inkscape"
   width="2000"
   height="2048"
   id="svg2992"
   version="1.1"
   inkscape:version="0.91pre3 r13670"
   sodipodi:docname="ഞ.svg">
  <defs
     id="defs5498">
    <inkscape:path-effect
       is_visible="true"
       id="path-effect3891"
       effect="spiro" />
    <inkscape:path-effect
       is_visible="true"
       id="path-effect4141-3-4-6-8"
       effect="spiro" />
    <inkscape:path-effect
       is_visible="true"
       id="path-effect4141-3-4-6-8-9"
       effect="spiro" />
    <inkscape:path-effect
       is_visible="true"
       id="path-effect4141-3-4-6-8-9-5"
       effect="spiro" />
    <inkscape:path-effect
       effect="spiro"
       id="path-effect3782"
       is_visible="true" />
    <inkscape:path-effect
       effect="spiro"
       id="path-effect3846"
       is_visible="true" />
    <inkscape:path-effect
       effect="spiro"
       id="path-effect3801"
       is_visible="true" />
    <inkscape:path-effect
       effect="spiro"
       id="path-effect4918"
       is_visible="true" />
    <inkscape:path-effect
       effect="spiro"
       id="path-effect4372-5-8-0"
       is_visible="true" />
    <inkscape:path-effect
       effect="spiro"
       id="path-effect4372-5-8-0-0"
       is_visible="true" />
    <inkscape:path-effect
       is_visible="true"
       id="path-effect4141-3-4-6-8-9-5-3"
       effect="spiro" />
    <inkscape:path-effect
       is_visible="true"
       id="path-effect4141-3-4-6-8-9-5-4"
       effect="spiro" />
    <inkscape:path-effect
       is_visible="true"
       id="path-effect4141-3-4-6-8-9-5-4-6"
       effect="spiro" />
    <inkscape:path-effect
       is_visible="true"
       id="path-effect4141-3-4-6-8-9-5-4-6-5"
       effect="spiro" />
  </defs>
  <sodipodi:namedview
     inkscape:window-height="853"
     inkscape:window-width="1600"
     inkscape:pageshadow="2"
     inkscape:pageopacity="0.0"
     borderopacity="1.0"
     bordercolor="#666666"
     pagecolor="#ffffff"
     id="base"
     showgrid="true"
     showguides="true"
     inkscape:guide-bbox="true"
     inkscape:zoom="0.32102648"
     inkscape:cx="1252.3006"
     inkscape:cy="901.85406"
     inkscape:window-x="1598"
     inkscape:window-y="-3"
     inkscape:current-layer="layer1-05"
     inkscape:window-maximized="1">
    <sodipodi:guide
       orientation="horizontal"
       position="0,600"
       id="guide5596" />
    <inkscape:grid
       type="xygrid"
       id="grid3769"
       empspacing="3"
       visible="true"
       enabled="true"
       snapvisiblegridlinesonly="true"
       spacingx="4px"
       units="px"
       dotted="true"
       spacingy="4px" />
    <sodipodi:guide
       orientation="0,1"
       position="-1040,1600"
       id="guide2985" />
  </sodipodi:namedview>
  <metadata
     id="metadata5594">
    <rdf:RDF>
      <cc:Work
         rdf:about="">
        <dc:format>image/svg+xml</dc:format>
        <dc:type
           rdf:resource="http://purl.org/dc/dcmitype/StillImage" />
        <dc:title />
      </cc:Work>
    </rdf:RDF>
  </metadata>
  <g
     inkscape:label="Layer 1"
     inkscape:groupmode="layer"
     id="layer1"
     transform="translate(0,1048)">
    <g
       id="layer1-05"
       inkscape:label="Layer 1"
       transform="translate(-185.15889,-518.04243)">
      <g
         transform="translate(-2634.3901,235.93018)"
         inkscape:label="Layer 1"
         id="layer1-0" />
      <g
         transform="translate(-2612.1519,1410.0117)"
         inkscape:label="Layer 1"
         id="layer1-0-3" />
      <path
         style="color:#000000;font-style:normal;font-variant:normal;font-weight:normal;font-stretch:normal;font-size:medium;line-height:normal;font-family:sans-serif;text-indent:0;text-align:start;text-decoration:none;text-decoration-line:none;text-decoration-style:solid;text-decoration-color:#000000;letter-spacing:normal;word-spacing:normal;text-transform:none;direction:ltr;block-progression:tb;writing-mode:lr-tb;baseline-shift:baseline;text-anchor:start;white-space:normal;clip-rule:nonzero;display:inline;overflow:visible;visibility:visible;opacity:1;isolation:auto;mix-blend-mode:normal;color-interpolation:sRGB;color-interpolation-filters:linearRGB;solid-color:#000000;solid-opacity:1;fill:#000000;fill-opacity:1;fill-rule:evenodd;stroke:none;stroke-width:140;stroke-linecap:round;stroke-linejoin:round;stroke-miterlimit:4;stroke-dasharray:none;stroke-dashoffset:0;stroke-opacity:1;color-rendering:auto;image-rendering:auto;shape-rendering:auto;text-rendering:auto;enable-background:accumulate"
         d="m 1678.8516,-84.722656 c -74.1803,-1.498135 -149.9519,10.752587 -220.5704,40.839844 l 0,-0.002 c -70.8649,30.192242 -134.091,77.696928 -182.2011,138.769532 -15.9464,20.242754 -29.7788,41.714544 -41.9531,63.931644 -5.9757,-10.81238 -12.2344,-21.50756 -19.125,-31.91797 C 1175.4924,67.207865 1122.1935,17.167301 1059.6367,-18.207031 997.1959,-53.515847 927.4925,-73.294112 857.01562,-77.910156 731.03175,-86.161758 606.61139,-45.847779 506.85547,27.578125 407.42842,100.76197 334.76052,204.18431 293.64258,318 c -43.12571,119.37325 -52.98663,257.94856 1.74414,382.07422 27.4273,62.20333 70.44944,118.36161 127.59375,159.25195 57.40059,41.07372 127.27826,65.12904 200.0957,63.99219 90.7098,-1.41619 176.81086,-42.13871 235.88281,-110.48438 59.00029,-68.26276 86.56129,-158.72174 76.58204,-248.00586 -10.38522,-92.91574 -60.62825,-177.65229 -137.16993,-231.34179 -76.54168,-53.6895 -173.32213,-72.0827 -264.22265,-50.21289 -31.8149,7.65436 -61.97084,20.12236 -89.68164,36.51758 33.74687,-71.01124 83.67772,-134.04739 145.3789,-179.4629 74.35601,-54.730149 168.27375,-84.41521 258.01953,-78.537104 50.31641,3.295588 99.92849,17.590779 142.85938,41.867184 42.81509,24.21089 80.22809,59.25951 107.53319,100.51172 27.319,41.27331 45.6203,90.38125 55.1953,142.08008 9.5888,51.77311 10.7426,108.43001 11.0391,168.50195 l 1.6855,341.31836 0,0.125 0,0.29102 a 70.007,70.007 0 0 0 139.998,-0.40039 l 0,-0.29102 0,-0.0547 -0.2695,-344.99609 c -0.051,-64.86082 1.137,-125.84007 12.8613,-180.81836 11.6995,-54.86192 34.3944,-106.65322 67.2871,-148.4082 32.9131,-41.78093 77.508,-75.47483 127.0996,-96.603518 49.838,-21.233668 106.1424,-30.811662 162.8692,-29.666015 12.2147,0.246686 24.4318,1.070319 36.6172,2.318359 -103.2562,86.175344 -176.3063,206.811674 -201.8789,339.953124 -22.094,115.03028 -8.2739,240.57417 56.334,345.28711 32.2992,52.34896 76.4868,97.86523 130.4687,130.4707 54.1204,32.6891 116.8167,51.48288 181.5801,51.47461 61.4343,-0.008 121.0351,-16.93225 173.2051,-46.55468 52.0509,-29.55487 95.5963,-71.00246 128.6875,-119.125 66.2,-96.27113 87.4826,-213.80463 75.4023,-324.42969 -15.4984,-141.92534 -85.1709,-274.52957 -191.4062,-368.982424 -2.208,-1.963073 -4.5122,-3.801187 -6.7481,-5.728515 37.1316,-3.630279 74.6278,-3.048189 111.3672,2.03125 86.3358,11.93644 169.7843,48.101169 235.0352,103.755859 65.0968,55.52333 113.2353,132.09013 132.6718,213.99609 18.5353,78.10772 11.4016,163.45378 -19.8437,237.40039 -31.2455,73.94666 -87.4715,138.54972 -156.3985,179.70118 a 70.007,70.007 0 1 0 71.7676,120.20703 c 95.0942,-56.77407 170.4825,-143.39666 213.5899,-245.41602 43.1072,-102.0194 52.6735,-216.45649 27.1015,-324.2168 C 2646.8007,234.54991 2582.7313,133.56909 2495.543,59.203125 2408.5086,-15.031488 2300.7613,-61.243314 2188.8281,-76.71875 c -101.775,-14.071003 -206.2349,-2.303149 -302.1386,33.503906 -66.0524,-25.824128 -136.5965,-40.069029 -207.8379,-41.507812 z m 206.4746,195.021486 c 31.2279,16.62594 60.4841,36.69284 86.6855,59.98828 79.9597,71.09136 133.7081,173.80493 145.2559,279.55273 8.9391,81.85954 -8.0744,166.63161 -51.586,229.90821 -21.7648,31.65129 -50.3185,58.45661 -82.457,76.70507 -32.0196,18.18093 -68.7156,28.29445 -104.0957,28.29883 -37.2592,0.005 -75.9711,-11.25431 -109.1797,-31.3125 -33.3469,-20.14178 -62.4329,-49.6697 -83.7051,-84.14648 -42.5351,-68.93854 -54.3858,-160.01306 -37.9921,-245.36524 21.688,-112.91699 91.6501,-218.27918 187.0058,-283.94531 15.9523,-10.98545 32.7347,-20.82338 50.0684,-29.68359 z M 605.76367,414.59375 c 39.6381,-0.58885 80.45178,11.2273 112.21289,33.50586 42.34814,29.70474 72.68582,80.87186 78.43164,132.2793 5.52499,49.43186 -11.09651,103.56908 -43.36914,140.9082 -32.20096,37.2562 -83.29551,61.28612 -132.14844,62.04883 -39.90483,0.62301 -82.15838,-13.33303 -116.43945,-37.86328 -27.33275,-19.5583 -50.70556,-46.38419 -68.25781,-76.9961 a 70.007,70.007 0 0 0 -0.4668,-1.32031 c -18.26578,-48.39523 -14.52093,-107.7623 9.68164,-153.47852 24.20258,-45.71621 71.19585,-82.18723 121.48828,-94.28711 12.57311,-3.02497 25.65449,-4.60059 38.86719,-4.79687 z"
         id="path4139-1-0-4-2-2-4-1-2"
         inkscape:connector-curvature="0" />
      <path
         sodipodi:nodetypes="caaaaaacccaaaac"
         inkscape:connector-curvature="0"
         inkscape:original-d="m 2395.74,2114.2531 c 0,0 248.7232,-319.4309 208.4674,-493.3675 -42.4677,-183.4937 -238.1562,-360.8285 -426.229,-370.9313 -243.345,-13.0718 -555.1003,178.5286 -599.7328,418.1024 -32.7021,175.5351 121.1238,439.8049 299.6292,444.0275 171.4987,4.0567 324.7317,-241.8093 307.7171,-412.5101 -22.6253,-226.9916 -281.8648,-473.0312 -509.4157,-456.9788 -228.2309,16.1004 -441.7114,295.2559 -441.5311,525.5355 l 0.2704,345.3424 -1.6867,-341.7345 c -1.3369,-270.8552 -169.0948,-487.8568 -382.05104,-522.4655 -198.8858,-32.322 -445.1166,154.1122 -492.9617,349.8444 -45.5086,186.1737 72.2446,488.4679 262.5055,511.5428 123.0773,14.9268 308.3375,-174.7512 243.9905,-280.7243 -88.2123,-145.277 -521.9499,116.5452 -495.7381,119.2699"
         inkscape:path-effect="#path-effect4141-3-4-6-8-9-5-4-6-5"
         id="path4139-1-0-4-2-2-4-1-2-0"
         d="m 2395.74,2114.2531 c 82.0106,-48.9628 147.8184,-124.576 184.9948,-212.559 37.1763,-87.983 45.5262,-187.8745 23.4726,-280.8085 -23.107,-97.3733 -79.2113,-186.1473 -155.3539,-251.092 -76.1426,-64.9447 -171.7406,-106.1334 -270.8751,-119.8393 -133.1271,-18.4056 -272.9979,13.4854 -383.6846,89.7091 -110.6867,76.2237 -190.6985,196.4123 -216.0482,328.3933 -19.2438,100.1912 -6.4089,208.5003 47.1626,295.326 26.7857,43.4129 63.4233,80.9348 107.0877,107.3085 43.6645,26.3736 94.3676,41.3995 145.3789,41.393 48.4072,-0.01 96.5564,-13.525 138.6512,-37.4267 42.0947,-23.9017 78.1435,-58.0276 105.5715,-97.9145 54.8558,-79.7739 74.0041,-180.9266 63.4944,-277.1689 -13.5231,-123.8366 -75.2339,-241.496 -168.3314,-324.2681 -93.0976,-82.7721 -216.5369,-130.1954 -341.0843,-132.7107 -65.4535,-1.3219 -131.4911,9.5918 -191.7193,35.2523 -60.2283,25.6604 -114.1396,66.2599 -154.6512,117.6866 -40.5117,51.4268 -67.1055,113.098 -80.7595,177.1251 -13.654,64.0271 -14.4524,130.0047 -14.4011,195.4715 l 0.2704,345.3424 -1.6867,-341.7345 c -0.2987,-60.5253 -1.1871,-121.3899 -12.2095,-180.9039 -11.0224,-59.5139 -32.245,-117.4967 -65.6522,-167.9681 -33.4073,-50.4714 -78.763,-93.015 -131.4489,-122.8076 -52.68586,-29.7926 -112.3438,-46.8301 -172.74044,-50.7859 -107.86484,-7.0649 -217.03433,27.9348 -304.09029,92.0129 -87.05596,64.078 -152.14313,156.1665 -188.87141,257.8315 -38.30486,106.029 -45.52555,226.8942 -0.0421,330.0478 22.74175,51.5768 58.43823,97.7641 104.27905,130.5661 45.84083,32.802 101.90737,51.8088 158.26851,50.9289 69.78138,-1.0894 138.37872,-33.4665 184.01519,-86.2674 45.63646,-52.801 67.72747,-125.0989 59.97531,-194.4569 -8.06551,-72.1616 -48.35633,-140.1134 -107.80123,-181.8105 -59.44491,-41.6971 -137.05475,-56.4456 -207.6512,-39.4608 -70.59645,16.9849 -133.00481,65.4204 -166.97844,129.5931 -33.97363,64.1727 -38.94722,143.0148 -13.30723,210.9481"
         style="fill:none;fill-rule:evenodd;stroke:#000000;stroke-width:140;stroke-linecap:round;stroke-linejoin:round;stroke-miterlimit:4;stroke-dasharray:none;stroke-opacity:1" />
    </g>
  </g>
</svg>
