<?xml version="1.0" encoding="UTF-8" standalone="no"?>
<!-- Created with Inkscape (http://www.inkscape.org/) -->

<svg
   xmlns:dc="http://purl.org/dc/elements/1.1/"
   xmlns:cc="http://creativecommons.org/ns#"
   xmlns:rdf="http://www.w3.org/1999/02/22-rdf-syntax-ns#"
   xmlns:svg="http://www.w3.org/2000/svg"
   xmlns="http://www.w3.org/2000/svg"
   xmlns:sodipodi="http://sodipodi.sourceforge.net/DTD/sodipodi-0.dtd"
   xmlns:inkscape="http://www.inkscape.org/namespaces/inkscape"
   width="2000"
   height="2048"
   id="svg2992"
   version="1.1"
   inkscape:version="0.91 r13725"
   sodipodi:docname="ഞ്ച.svg">
  <defs
     id="defs5498">
    <inkscape:path-effect
       is_visible="true"
       id="path-effect3891"
       effect="spiro" />
    <inkscape:path-effect
       is_visible="true"
       id="path-effect4141-3-4-6-8"
       effect="spiro" />
    <inkscape:path-effect
       is_visible="true"
       id="path-effect4141-3-4-6-8-9"
       effect="spiro" />
    <inkscape:path-effect
       is_visible="true"
       id="path-effect4141-3-4-6-8-9-5"
       effect="spiro" />
    <inkscape:path-effect
       effect="spiro"
       id="path-effect3782"
       is_visible="true" />
    <inkscape:path-effect
       effect="spiro"
       id="path-effect3846"
       is_visible="true" />
    <inkscape:path-effect
       effect="spiro"
       id="path-effect3801"
       is_visible="true" />
    <inkscape:path-effect
       effect="spiro"
       id="path-effect4918"
       is_visible="true" />
    <inkscape:path-effect
       effect="spiro"
       id="path-effect4372-5-8-0"
       is_visible="true" />
    <inkscape:path-effect
       effect="spiro"
       id="path-effect4372-5-8-0-0"
       is_visible="true" />
    <inkscape:path-effect
       is_visible="true"
       id="path-effect4141-3-4-6-8-9-5-3"
       effect="spiro" />
    <inkscape:path-effect
       is_visible="true"
       id="path-effect4141-3-4-6-8-9-5-4"
       effect="spiro" />
    <inkscape:path-effect
       is_visible="true"
       id="path-effect4141-3-4-6-8-9-5-4-6"
       effect="spiro" />
    <inkscape:path-effect
       is_visible="true"
       id="path-effect4141-3-4-6-8-9-5-4-6-0"
       effect="spiro" />
    <inkscape:path-effect
       is_visible="true"
       id="path-effect4141-3-4-6-8-9-5-4-6-5"
       effect="spiro" />
    <inkscape:path-effect
       is_visible="true"
       id="path-effect4141-3-4-6-8-9-5-4-6-5-7"
       effect="spiro" />
    <inkscape:path-effect
       is_visible="true"
       id="path-effect4141-3-4-6-8-9-5-4-6-5-4"
       effect="spiro" />
    <inkscape:path-effect
       is_visible="true"
       id="path-effect4141-3-4-6-8-9-5-4-6-5-4-3"
       effect="spiro" />
    <inkscape:path-effect
       is_visible="true"
       id="path-effect4141-3-4-6-8-9-5-4-6-5-42"
       effect="spiro" />
    <inkscape:path-effect
       is_visible="true"
       id="path-effect4141-3-4-6-8-9-5-4-6-5-6"
       effect="spiro" />
    <inkscape:path-effect
       is_visible="true"
       id="path-effect4141-3-4-6-8-9-5-4-6-5-71"
       effect="spiro" />
    <inkscape:path-effect
       is_visible="true"
       id="path-effect4141-3-4-6-8-9-5-4-6-5-75"
       effect="spiro" />
  </defs>
  <sodipodi:namedview
     inkscape:window-height="844"
     inkscape:window-width="1600"
     inkscape:pageshadow="2"
     inkscape:pageopacity="0.0"
     borderopacity="1.0"
     bordercolor="#666666"
     pagecolor="#ffffff"
     id="base"
     showgrid="true"
     showguides="true"
     inkscape:guide-bbox="true"
     inkscape:zoom="0.25"
     inkscape:cx="1316.914"
     inkscape:cy="619.27366"
     inkscape:window-x="0"
     inkscape:window-y="0"
     inkscape:current-layer="layer1-05"
     inkscape:window-maximized="1">
    <sodipodi:guide
       orientation="horizontal"
       position="0,600"
       id="guide5596" />
    <inkscape:grid
       type="xygrid"
       id="grid3769"
       empspacing="3"
       visible="true"
       enabled="true"
       snapvisiblegridlinesonly="true"
       spacingx="4px"
       units="px"
       dotted="true"
       spacingy="4px" />
    <sodipodi:guide
       orientation="0,1"
       position="-1040,1600"
       id="guide2985" />
  </sodipodi:namedview>
  <metadata
     id="metadata5594">
    <rdf:RDF>
      <cc:Work
         rdf:about="">
        <dc:format>image/svg+xml</dc:format>
        <dc:type
           rdf:resource="http://purl.org/dc/dcmitype/StillImage" />
        <dc:title />
      </cc:Work>
    </rdf:RDF>
  </metadata>
  <g
     inkscape:label="Layer 1"
     inkscape:groupmode="layer"
     id="layer1"
     transform="translate(0,1048)">
    <g
       id="layer1-05"
       inkscape:label="Layer 1"
       transform="translate(-185.15889,-518.04243)">
      <g
         transform="translate(-2634.3901,235.93018)"
         inkscape:label="Layer 1"
         id="layer1-0" />
      <path
         sodipodi:nodetypes="caaaaacccaaaaaaasccc"
         inkscape:connector-curvature="0"
         inkscape:original-d="M 635.86307,873.928 C 621.81839,872.46806 509.82195,434.06418 664.9273,363.30578 766.23461,317.08982 911.68133,457.6211 929.24637,567.57816 948.3536,687.18932 846.22223,862.0535 725.25585,868.30246 516.21542,879.10121 299.34589,595.90358 321.0701,387.71479 344.86646,159.668 635.62238,-65.851254 862.95187,-35.969735 1068.771,-8.9156596 1236.4263,190.52556 1237.7632,461.38076 l 1.6867,409.7345 -0.2704,-413.3424 c -0.1803,-230.2796 203.9258,-495.500412 423.5311,-505.535505 174.3317,-7.966268 371.77,194.465565 371.4157,368.978805 -0.2087,102.8223 -116.9356,213.60549 -219.7171,216.5101 -101.9096,2.87997 -230.0933,-100.07831 -229.6292,-202.0275 0.8777,-192.80517 245.4862,-392.794495 437.7328,-378.102405 177.6052,13.573151 328.3449,229.518035 346.6189,406.701285 14.4721,140.32074 -96.4372,278.88987 -202.9887,371.33512 -68.4181,59.36031 -181.9238,82.25766 -254.4415,95.40288 -152.9302,27.72153 -318.0316,21.62339 -318.0316,21.62339 l 1112.866,-4.54611 0,-897.384523"
         inkscape:path-effect="#path-effect4141-3-4-6-8-9-5-4-6-5"
         id="path4139-1-0-4-2-2-4-1-2-0"
         d="M 635.86307,873.928 C 574.5011,863.03236 517.53572,828.98524 478.87857,780.10138 440.22142,731.21752 420.22153,667.93825 423.76311,605.71716 c 3.54158,-62.22109 30.59265,-122.82224 74.54701,-167.00392 43.95437,-44.18168 104.41519,-71.54498 166.61718,-75.40746 60.763,-3.77312 122.74509,14.91654 171.01094,52.0216 48.26585,37.10506 82.32069,92.37045 93.30813,152.25078 12.05236,65.68406 -3.93536,135.7325 -41.89661,190.67427 -37.96125,54.94177 -97.16639,94.42723 -162.09391,110.05003 -60.44496,14.54421 -125.26487,8.72018 -183.03206,-14.25979 C 484.45661,831.0627 433.80988,791.28552 395.93417,741.98484 320.18276,643.38347 298.05246,509.90602 321.0701,387.71479 344.33522,264.20983 412.28313,149.20017 510.78376,71.146551 c 98.50063,-78.0536223 226.96271,-117.9952 352.16811,-107.116286 58.00389,5.039873 115.30169,20.810429 166.56483,48.413787 51.2631,27.603358 96.1114,67.125382 129.5311,114.801068 33.4198,47.67569 55.0725,103.07348 66.3248,160.19822 11.2524,57.12473 12.1509,115.71548 12.3906,173.93742 l 1.6867,409.7345 -0.2704,-413.3424 c -0.041,-62.99396 0.7069,-126.46738 13.675,-188.11209 12.968,-61.64472 38.2464,-121.1014 76.9585,-170.796596 38.7121,-49.695195 90.3976,-89.0689125 148.3275,-113.814944 57.9299,-24.746032 121.6148,-35.018739 184.5701,-32.811875 98.011,3.435722 196.3556,38.162987 268.2282,104.88848 35.9363,33.362747 64.9419,74.363485 83.2019,119.872385 18.2601,45.50889 25.6405,95.50951 19.9856,144.21794 -6.4706,55.73389 -30.4666,109.77589 -69.717,149.8701 -39.2503,40.0942 -93.9037,65.48789 -150.0001,66.64 -55.3795,1.13739 -110.3065,-21.34398 -151.1845,-58.72287 -40.8779,-37.3789 -67.8568,-88.93475 -78.4447,-143.30463 -10.8677,-55.80673 -4.8082,-114.60546 15.9256,-167.54511 20.7338,-52.93966 55.9355,-99.943152 100.0337,-135.829773 88.1964,-71.773241 210.1557,-96.440546 321.7735,-74.727522 94.593,18.401185 182.8333,68.927716 245.6529,142.003956 62.8196,73.076239 99.6023,168.340799 100.966,264.697329 1.0411,73.55874 -18.2358,147.12014 -53.9503,211.43537 -35.7144,64.31523 -87.6687,119.33215 -149.0384,159.89975 -76.0537,50.27424 -164.9612,77.94008 -254.4415,95.40288 -104.5593,20.40559 -211.6726,27.68837 -318.0316,21.62339 l 1112.866,-4.54611 0,-897.384523"
         style="fill:none;fill-rule:evenodd;stroke:#000000;stroke-width:140;stroke-linecap:round;stroke-linejoin:round;stroke-miterlimit:4;stroke-dasharray:none;stroke-opacity:1" />
      <path
         sodipodi:nodetypes="caaaacccaaaaaaccc"
         inkscape:connector-curvature="0"
         inkscape:original-d="m 3275.1716,681.95147 c -28.1071,-2.9319 513.0028,-282.64961 614.4087,-101.52445 65.0739,116.23116 -128.7256,305.20776 -261.6324,302.07142 -208.8148,-4.92763 -404.8496,-284.51287 -388.3742,-493.46009 16.6318,-210.93247 254.7791,-442.806212 465.2542,-430.077732 243.5081,14.726144 473.3958,267.391622 474.8294,558.843472 l 1.8086,367.72104 -0.2899,-371.6033 c -0.1934,-247.79076 203.6178,-544.543996 441.2875,-565.498804 243.672,-21.484027 521.9884,247.476084 546.2497,491.728844 18.2449,183.68144 -146.0679,448.24383 -329.967,443.87864 -191.4125,-4.54359 -356.361,-288.90936 -321.2943,-477.79272 47.8597,-257.79174 382.5411,-469.887019 643.0972,-449.896163 188.386,14.453678 373.5294,206.462373 410.2848,392.434273 37.6105,190.29868 -235.3303,531.95407 -235.3303,531.95407 l 678.6262,1.56445 0,-939.799272"
         inkscape:path-effect="#path-effect4141-3-4-6-8-9-5-4-6-5-4"
         id="path4139-1-0-4-2-2-4-1-2-0-5"
         d="m 3275.1716,681.95147 c -30.758,-86.8322 -21.0606,-187.07937 25.7707,-266.40597 46.8314,-79.32661 129.9195,-136.24674 220.806,-151.26475 90.8864,-15.01801 187.8687,12.14741 257.7297,72.19186 69.8609,60.04446 111.2918,151.84322 110.1023,243.95441 -0.9363,72.50229 -27.8046,144.51224 -75.105,199.46792 -47.3005,54.95568 -114.752,92.32015 -186.5274,102.6035 -60.4841,8.66563 -123.2721,-1.69495 -178.6557,-27.50357 -55.3836,-25.80862 -103.3286,-66.78018 -139.1421,-116.2859 -71.6271,-99.01146 -92.5522,-229.45929 -70.5764,-349.67062 20.4246,-111.72598 76.7141,-216.90462 159.6786,-294.472315 82.9645,-77.567697 192.3386,-126.816439 305.5756,-135.605417 70.1493,-5.444696 141.7501,4.562354 206.7471,31.505982 64.9971,26.943628 122.8414,70.936314 166.0477,126.46816 43.2063,55.53184 71.3295,121.97525 85.9196,190.80622 14.5901,68.83097 15.7689,139.70365 16.115,210.06311 l 1.8086,367.72104 -0.2899,-371.6033 c -0.053,-67.72136 0.6657,-135.89762 13.7347,-202.34599 13.0691,-66.44837 38.5688,-130.86114 78.1409,-185.81783 39.572,-54.956689 92.8202,-99.917257 153.474,-130.0386726 60.6539,-30.1214154 128.2404,-45.4980364 195.9379,-47.2963114 134.7279,-3.578828 269.8188,47.5363224 369.6005,138.134433 99.7816,90.598111 163.5007,219.461941 176.6492,353.594411 10.1352,103.39234 -10.1661,211.71528 -68.6184,297.59913 -29.2261,42.94193 -67.6815,79.79845 -112.7217,105.67421 -45.0402,25.87575 -96.6829,40.58926 -148.6269,40.6053 -54.7419,0.0169 -109.1305,-16.31919 -155.8458,-44.85601 -46.7153,-28.53683 -85.7807,-69.04663 -114.2989,-115.77335 -57.0363,-93.45345 -70.5625,-209.41446 -51.1496,-317.16336 25.7931,-143.16181 109.1553,-275.37645 228.0689,-359.16281 118.9136,-83.786357 272.0994,-117.78726 415.0283,-90.733353 98.491,18.642606 191.6201,65.611541 264.3352,134.608227 72.7151,68.996686 124.6271,159.880226 145.9496,257.826046 22.0563,101.31641 11.079,209.54924 -30.8704,304.37403 -41.9494,94.8248 -114.6536,175.75033 -204.4599,227.58004 l 678.6262,1.56445 0,-939.799272"
         style="fill:none;fill-rule:evenodd;stroke:#000000;stroke-width:70;stroke-linecap:round;stroke-linejoin:round;stroke-miterlimit:4;stroke-dasharray:none;stroke-opacity:1" />
      <path
         style="color:#000000;font-style:normal;font-variant:normal;font-weight:normal;font-stretch:normal;font-size:medium;line-height:normal;font-family:sans-serif;text-indent:0;text-align:start;text-decoration:none;text-decoration-line:none;text-decoration-style:solid;text-decoration-color:#000000;letter-spacing:normal;word-spacing:normal;text-transform:none;direction:ltr;block-progression:tb;writing-mode:lr-tb;baseline-shift:baseline;text-anchor:start;white-space:normal;clip-rule:nonzero;display:inline;overflow:visible;visibility:visible;opacity:1;isolation:auto;mix-blend-mode:normal;color-interpolation:sRGB;color-interpolation-filters:linearRGB;solid-color:#000000;solid-opacity:1;fill:#000000;fill-opacity:1;fill-rule:evenodd;stroke:none;stroke-width:70;stroke-linecap:round;stroke-linejoin:round;stroke-miterlimit:4;stroke-dasharray:none;stroke-dashoffset:0;stroke-opacity:1;color-rendering:auto;image-rendering:auto;shape-rendering:auto;text-rendering:auto;enable-background:accumulate"
         d="m 5917.6035,1059 a 35.0035,35.0035 0 0 0 -34.4726,35.4941 l 0,904.7207 -536.9121,-1.2382 c 55.0252,-49.6548 99.6781,-110.6855 129.7519,-178.6661 45.0219,-101.77 56.7342,-217.2433 33.0625,-325.9804 -22.8768,-105.0858 -78.2447,-201.9348 -156.0586,-275.7696 -77.786,-73.8082 -176.8313,-123.7167 -281.916,-143.6074 -108.0131,-20.4449 -220.7175,-8.2454 -322.3594,32.1992 -70.5974,-28.3018 -146.725,-42.7472 -223.164,-40.7168 -72.3736,1.9226 -144.8956,18.3178 -210.5762,50.9356 -65.7716,32.663 -123.328,81.2426 -166.3106,140.9355 -28.5373,39.6319 -49.9714,83.4566 -65.3203,129.1016 -17.0964,-49.5794 -41.3915,-96.9506 -74.082,-138.9668 -47.002,-60.4104 -109.6065,-108.0151 -180.2676,-137.3066 -70.5647,-29.2516 -147.5794,-39.9113 -222.8594,-34.0684 -121.5604,9.435 -237.994,61.9329 -326.7695,144.9336 -88.725,82.9535 -148.4336,194.6504 -170.2051,313.7441 -18.6182,101.8449 -8.6137,210.73 35.2696,305.4239 0.6094,1.8179 1.1248,3.6617 1.7656,5.4707 a 35.0035,35.0035 0 0 0 6.5937,11.5371 c 9.6552,18.6779 20.542,36.7989 33.0196,54.0469 39.1331,54.0946 91.4864,98.9638 152.7148,127.4961 61.313,28.5717 130.6772,40.129 198.4043,30.4257 80.5103,-11.5347 155.1742,-52.9383 208.0899,-114.4179 52.8867,-61.4462 82.532,-140.9998 83.5761,-221.8477 1.3289,-102.9039 -44.2405,-203.8693 -122.2871,-270.9492 -78.0466,-67.08 -184.7124,-96.9593 -286.248,-80.1817 -99.0588,16.3684 -188.3513,76.4292 -241.2364,161.6387 19.679,-102.8927 72.1222,-199.985 148.3496,-271.2539 77.1536,-72.1347 179.4674,-118.1344 284.3809,-126.2773 65.0186,-5.0465 131.2054,4.3077 190.6348,28.9433 59.3331,24.5957 112.4155,64.9755 151.8261,115.6289 39.4176,50.6623 65.6591,112.1949 79.3047,176.5703 13.6588,64.4374 15.0108,132.8944 15.3555,202.9786 l 1.8086,367.5761 0,0.1446 a 35.0035,35.0035 0 0 0 70,-0.1993 l -0.291,-371.6035 c -0.053,-67.4554 0.8351,-133.3256 13.0762,-195.5644 12.2319,-62.1922 36.0426,-121.9025 72.2031,-172.1211 36.1616,-50.2203 85.1027,-91.5628 140.6387,-119.1426 55.6269,-27.625 118.2774,-41.9822 181.2988,-43.6562 44.4281,-1.1802 89.0333,4.2103 132.2851,15.2714 -10.2828,6.3063 -20.4408,12.823 -30.3164,19.7813 -126.7896,89.3357 -214.8957,229.1562 -242.3554,381.5683 -20.693,114.8537 -6.7409,239.2608 55.7207,341.6036 31.2365,51.1807 74.0453,95.7149 125.9277,127.4082 51.9575,31.7391 112.3912,50.0074 174.1035,49.9882 58.5462,-0.018 115.9597,-16.4802 166.0508,-45.2578 50.0263,-28.7403 92.2008,-69.2832 124.2207,-116.33 64.0333,-94.0843 85.3271,-210.4361 74.5176,-320.7071 -14.0073,-142.8929 -81.4349,-279.3754 -187.9551,-376.0918 -25.4519,-23.1094 -53.048,-43.7155 -82.2012,-61.7656 72.0506,-18.5167 147.9755,-21.9041 220.6485,-8.1484 91.8973,17.3945 179.1096,61.4242 246.7539,125.6093 67.6162,64.1586 116.0736,149.0751 135.8418,239.8809 20.4407,93.8957 10.1972,194.89 -28.6797,282.7695 -38.8769,87.8796 -106.7187,163.3923 -189.9473,211.4258 a 35.0035,35.0035 0 0 0 17.416,65.3145 l 678.625,1.5644 a 35.0035,35.0035 0 0 0 35.0821,-35 l 0,-939.8008 A 35.0035,35.0035 0 0 0 5917.6035,1059 Z m -1169.0469,123.4844 c 45.1418,21.0587 87.2328,48.6207 123.9805,81.9863 93.0432,84.4798 153.054,205.7236 165.3438,331.0957 9.4609,96.5139 -9.8497,196.8086 -62.7207,274.4922 -26.4324,38.837 -61.1686,72.0063 -101.2227,95.0176 -39.9893,22.974 -85.8594,35.9411 -131.2012,35.955 -47.7715,0.015 -96.1167,-14.39 -137.5898,-39.7246 -41.5482,-25.3803 -76.8701,-61.8658 -102.6699,-104.1386 -51.6109,-84.5641 -64.713,-192.0805 -46.5801,-292.7246 24.1265,-133.9115 102.7456,-258.521 213.7832,-336.7579 24.7786,-17.459 51.2801,-32.4733 78.8769,-45.2011 z m -1271.4394,264.7871 c 66.4104,0.4562 133.4358,24.6743 183.5469,67.7441 61.6752,53.0089 98.97,135.6406 97.9199,216.959 -0.8285,64.1567 -24.9227,128.6227 -66.6367,177.0879 -41.6853,48.4317 -101.9224,81.7572 -164.9629,90.7891 -53.2411,7.6279 -109.454,-1.5364 -158.9082,-24.5821 -49.5388,-23.0849 -93.0746,-60.1573 -125.5684,-105.0742 -12.7228,-17.5869 -23.6612,-36.4073 -32.9687,-56.0918 -23.7725,-74.8459 -14.3492,-161.1932 25.5429,-228.7656 41.344,-70.0318 116.1358,-121.2671 196.3731,-134.5254 15.0444,-2.4859 30.3366,-3.6463 45.6621,-3.541 z"
         id="path4139-1-0-4-2-2-4-1-2-0-5-8"
         inkscape:connector-curvature="0" />
      <path
         style="color:#000000;font-style:normal;font-variant:normal;font-weight:normal;font-stretch:normal;font-size:medium;line-height:normal;font-family:sans-serif;text-indent:0;text-align:start;text-decoration:none;text-decoration-line:none;text-decoration-style:solid;text-decoration-color:#000000;letter-spacing:normal;word-spacing:normal;text-transform:none;direction:ltr;block-progression:tb;writing-mode:lr-tb;baseline-shift:baseline;text-anchor:start;white-space:normal;clip-rule:nonzero;display:inline;overflow:visible;visibility:visible;opacity:1;isolation:auto;mix-blend-mode:normal;color-interpolation:sRGB;color-interpolation-filters:linearRGB;solid-color:#000000;solid-opacity:1;fill:#000000;fill-opacity:1;fill-rule:evenodd;stroke:none;stroke-width:140;stroke-linecap:round;stroke-linejoin:round;stroke-miterlimit:4;stroke-dasharray:none;stroke-dashoffset:0;stroke-opacity:1;color-rendering:auto;image-rendering:auto;shape-rendering:auto;text-rendering:auto;enable-background:accumulate"
         d="m 2661.4824,1155.7402 a 70.007,70.007 0 0 0 -68.9472,70.9883 l 0,827.6699 -411.9727,1.6836 c 61.8226,-44.9452 114.3045,-102.8132 151.8164,-170.3652 41.5224,-74.7743 63.9696,-159.9653 62.7461,-246.4102 -1.6065,-113.5127 -44.2583,-223.6994 -117.877,-309.3378 -73.5455,-85.5535 -175.2096,-143.6547 -285.3691,-165.084 -79.6856,-15.5013 -163.497,-11.0989 -240.9687,14.2461 -42.3293,-12.4282 -86.1283,-19.3206 -129.7481,-20.8497 -72.2079,-2.5312 -145.982,9.1172 -214.5195,38.3946 -68.7652,29.3745 -129.7917,75.7865 -176.0508,135.1699 -14.9922,19.2457 -27.9978,39.6151 -39.4844,60.6523 -5.8819,-9.9831 -12.0226,-19.8504 -18.7402,-29.4335 -39.8785,-56.8897 -92.8489,-103.5071 -153.6641,-136.254 -60.6347,-32.6496 -127.1023,-50.7317 -193.69138,-56.5175 -144.03901,-12.5154 -289.09386,32.7566 -401.70313,121.9902 -112.45241,89.1092 -188.63772,218.3707 -215.02929,358.4727 -26.24536,139.3257 -2.18772,292.2945 88.14453,409.875 45.16024,58.7825 105.43701,106.4145 175.92578,134.455 70.70375,28.1262 149.63715,35.4749 225.28125,17.2735 a 70.007,70.007 0 0 0 0.002,0 c 81.5998,-19.6345 154.91251,-68.2751 203.30664,-138.3164 48.55361,-70.2723 68.78819,-157.9159 53.15821,-243.0977 -14.24145,-77.6143 -57.21714,-147.2354 -119.4961,-195.1133 -62.21865,-47.8315 -140.03861,-71.2343 -218.01172,-66.3925 -79.81248,4.956 -155.50565,39.2139 -211.90429,95.9043 -27.74482,27.8882 -50.00272,60.433 -66.03321,95.7929 -0.38189,-28.2473 1.97045,-56.664 7.20704,-84.4629 20.13869,-106.908 79.84959,-207.6661 164.39843,-274.664 84.39202,-66.8738 196.26298,-101.4847 302.63477,-92.2422 49.4187,4.2939 97.54602,17.7515 139.4375,40.3086 41.71105,22.4599 78.43752,54.8879 105.39842,93.3496 26.9475,38.4424 45.3449,84.7093 54.9649,133.5469 9.6347,48.913 10.8327,103.0021 11.0703,160.6972 l 1.6855,409.2168 0,0.2735 0,0.2441 a 70.007,70.007 0 0 0 139.998,-0.334 l 0,-0.2441 0,-0.047 -0.2695,-413.0527 c -0.041,-62.4094 1.0888,-120.9537 12.1758,-173.6563 11.0621,-52.5849 32.5232,-102.1935 63.6797,-142.1894 31.165,-40.0071 73.5088,-72.3415 120.6035,-92.459 32.1712,-13.7427 67.2647,-22.1264 103.2968,-25.5762 -30.9444,34.7664 -56.1706,74.7637 -73.4101,118.7813 -25.4633,65.0155 -33.0193,136.7994 -19.4551,206.4531 13.2655,68.1194 46.7036,132.9226 99.918,181.582 53.608,49.0193 124.5955,78.5946 199.8574,77.0488 76.2749,-1.5665 146.9462,-34.9082 198.584,-87.6562 51.2697,-52.3719 81.0714,-120.4881 89.2305,-190.7656 7.0923,-61.0899 -2.1235,-122.4529 -24.5547,-178.3575 -19.0684,-47.5236 -47.3636,-90.245 -81.9629,-126.6269 4.0098,0.628 8.0258,1.23 12.0039,2.0039 79.0265,15.373 153.8438,58.3247 205.9375,118.9238 52.0205,60.5139 82.9338,140.8564 84.0547,220.0567 0.8587,60.6725 -15.2478,122.6046 -45.1543,176.4609 -29.9521,53.9381 -74.1999,100.9534 -126.4434,135.4883 -64.9734,42.9498 -144.8539,68.6235 -229.248,85.0937 -50.0325,9.7643 -100.7087,16.3221 -151.5957,19.7012 l -153.3125,0.627 a 70.007,70.007 0 0 0 -3.6993,139.8847 c 53.5303,3.0525 107.2149,2.8047 160.7071,-0.5254 l 956.4297,-3.9062 a 70.007,70.007 0 0 0 69.7129,-70 l 0,-897.3848 a 70.007,70.007 0 0 0 -71.0528,-70.9883 z m -907.707,173.4141 c 31.8176,13.9789 60.9831,32.4759 85.5371,55.2715 28.7433,26.6848 51.7325,59.4209 65.8633,94.6387 14.0889,35.1132 19.6354,73.7531 15.418,110.08 -4.7822,41.1903 -22.974,81.1562 -50.2051,108.9727 -26.8628,27.4404 -65.4981,44.8854 -101.416,45.623 -35.4971,0.7291 -74.3638,-14.6579 -102.5118,-40.3964 -28.5414,-26.0984 -49.0603,-64.4051 -56.9707,-105.0254 -8.1711,-41.9597 -3.6097,-87.7731 12.3946,-128.6368 16.0534,-40.9892 44.0052,-78.5543 79.039,-107.0644 16.0625,-13.0714 33.8876,-24.1811 52.8516,-33.4629 z M 641.69141,1708.9316 c 38.47825,1.2244 77.56005,14.8113 107.58398,37.8926 34.25276,26.3323 59.38767,67.2404 67.12109,109.3867 8.47474,46.1864 -3.26784,98.6387 -30.63671,138.25 -27.52837,39.8421 -72.62369,70.1721 -120.87891,81.7832 -17.94684,4.3184 -36.75737,6.1519 -55.71484,5.795 a 70.007,70.007 0 0 0 -5.06446,-1.0332 c -43.98918,-7.8109 -86.60378,-33.2803 -114.3164,-68.3243 -27.71265,-35.044 -42.67366,-82.3811 -40.13477,-126.9863 2.53889,-44.6052 22.77514,-89.9403 54.28516,-121.6133 31.51007,-31.673 76.73858,-52.1412 121.33007,-54.9101 5.44412,-0.3381 10.92889,-0.4152 16.42579,-0.2403 z"
         id="path4139-1-0-4-2-2-4-1-2-0-3"
         inkscape:connector-curvature="0" />
    </g>
  </g>
</svg>
