<?xml version="1.0" encoding="UTF-8" standalone="no"?>
<!-- Created with Inkscape (http://www.inkscape.org/) -->

<svg
   xmlns:dc="http://purl.org/dc/elements/1.1/"
   xmlns:cc="http://creativecommons.org/ns#"
   xmlns:rdf="http://www.w3.org/1999/02/22-rdf-syntax-ns#"
   xmlns:svg="http://www.w3.org/2000/svg"
   xmlns="http://www.w3.org/2000/svg"
   xmlns:sodipodi="http://sodipodi.sourceforge.net/DTD/sodipodi-0.dtd"
   xmlns:inkscape="http://www.inkscape.org/namespaces/inkscape"
   width="2000"
   height="2048"
   id="svg2992"
   version="1.1"
   inkscape:version="0.91pre3 r13670"
   sodipodi:docname="ഞ്ച.svg">
  <defs
     id="defs5498">
    <inkscape:path-effect
       is_visible="true"
       id="path-effect3891"
       effect="spiro" />
    <inkscape:path-effect
       is_visible="true"
       id="path-effect4141-3-4-6-8"
       effect="spiro" />
    <inkscape:path-effect
       is_visible="true"
       id="path-effect4141-3-4-6-8-9"
       effect="spiro" />
    <inkscape:path-effect
       is_visible="true"
       id="path-effect4141-3-4-6-8-9-5"
       effect="spiro" />
    <inkscape:path-effect
       effect="spiro"
       id="path-effect3782"
       is_visible="true" />
    <inkscape:path-effect
       effect="spiro"
       id="path-effect3846"
       is_visible="true" />
    <inkscape:path-effect
       effect="spiro"
       id="path-effect3801"
       is_visible="true" />
    <inkscape:path-effect
       effect="spiro"
       id="path-effect4918"
       is_visible="true" />
    <inkscape:path-effect
       effect="spiro"
       id="path-effect4372-5-8-0"
       is_visible="true" />
    <inkscape:path-effect
       effect="spiro"
       id="path-effect4372-5-8-0-0"
       is_visible="true" />
    <inkscape:path-effect
       is_visible="true"
       id="path-effect4141-3-4-6-8-9-5-3"
       effect="spiro" />
    <inkscape:path-effect
       is_visible="true"
       id="path-effect4141-3-4-6-8-9-5-4"
       effect="spiro" />
    <inkscape:path-effect
       is_visible="true"
       id="path-effect4141-3-4-6-8-9-5-4-6"
       effect="spiro" />
    <inkscape:path-effect
       is_visible="true"
       id="path-effect4141-3-4-6-8-9-5-4-6-0"
       effect="spiro" />
  </defs>
  <sodipodi:namedview
     inkscape:window-height="853"
     inkscape:window-width="1600"
     inkscape:pageshadow="2"
     inkscape:pageopacity="0.0"
     borderopacity="1.0"
     bordercolor="#666666"
     pagecolor="#ffffff"
     id="base"
     showgrid="true"
     showguides="true"
     inkscape:guide-bbox="true"
     inkscape:zoom="0.32102648"
     inkscape:cx="1379.5751"
     inkscape:cy="777.25377"
     inkscape:window-x="1598"
     inkscape:window-y="-3"
     inkscape:current-layer="layer1-05"
     inkscape:window-maximized="1">
    <sodipodi:guide
       orientation="horizontal"
       position="0,600"
       id="guide5596" />
    <inkscape:grid
       type="xygrid"
       id="grid3769"
       empspacing="3"
       visible="true"
       enabled="true"
       snapvisiblegridlinesonly="true"
       spacingx="4px"
       units="px"
       dotted="true"
       spacingy="4px" />
    <sodipodi:guide
       orientation="0,1"
       position="-1040,1600"
       id="guide2985" />
  </sodipodi:namedview>
  <metadata
     id="metadata5594">
    <rdf:RDF>
      <cc:Work
         rdf:about="">
        <dc:format>image/svg+xml</dc:format>
        <dc:type
           rdf:resource="http://purl.org/dc/dcmitype/StillImage" />
        <dc:title />
      </cc:Work>
    </rdf:RDF>
  </metadata>
  <g
     inkscape:label="Layer 1"
     inkscape:groupmode="layer"
     id="layer1"
     transform="translate(0,1048)">
    <g
       id="layer1-05"
       inkscape:label="Layer 1"
       transform="translate(-185.15889,-518.04243)">
      <g
         transform="translate(-2634.3901,235.93018)"
         inkscape:label="Layer 1"
         id="layer1-0" />
      <path
         style="color:#000000;font-style:normal;font-variant:normal;font-weight:normal;font-stretch:normal;font-size:medium;line-height:normal;font-family:sans-serif;text-indent:0;text-align:start;text-decoration:none;text-decoration-line:none;text-decoration-style:solid;text-decoration-color:#000000;letter-spacing:normal;word-spacing:normal;text-transform:none;direction:ltr;block-progression:tb;writing-mode:lr-tb;baseline-shift:baseline;text-anchor:start;white-space:normal;clip-rule:nonzero;display:inline;overflow:visible;visibility:visible;opacity:1;isolation:auto;mix-blend-mode:normal;color-interpolation:sRGB;color-interpolation-filters:linearRGB;solid-color:#000000;solid-opacity:1;fill:#000000;fill-opacity:1;fill-rule:evenodd;stroke:none;stroke-width:140;stroke-linecap:round;stroke-linejoin:round;stroke-miterlimit:4;stroke-dasharray:none;stroke-dashoffset:0;stroke-opacity:1;color-rendering:auto;image-rendering:auto;shape-rendering:auto;text-rendering:auto;enable-background:accumulate"
         d="m 2174.4102,-92.349609 c -83.8476,-1.873986 -167.4289,14.074954 -244.6485,45.832031 -91.9273,-35.572789 -192.6608,-47.885599 -291.2226,-33.22461 -71.042,10.567428 -140.6235,34.869097 -202.7227,73.804688 -62.2316,39.018679 -115.1677,91.857123 -154.2695,154.07617 -5.8349,9.28445 -11.2204,18.76582 -16.3828,28.33789 -10.8998,-21.30171 -23.1411,-42.06757 -37.2227,-61.9082 C 1181.8966,49.692201 1119.9888,-3.4434916 1047.9805,-38.451172 976.07841,-73.407187 896.44507,-89.33316 817.42969,-86.470703 683.53365,-81.620109 556.59145,-23.058244 462.68164,69.601562 369.06231,161.97475 310.77137,284.57605 292.00781,412.62891 c -17.53261,119.65213 -0.47679,251.07927 74.54688,356.89843 37.60266,53.03769 88.68968,97.43524 150.19336,124.79493 61.79476,27.48915 132.0306,36.56636 200.23828,21.32226 76.48759,-17.09462 143.3303,-63.39201 186.78906,-128.01758 C 947.17106,723.09523 964.56468,644.46532 953.5,567.99414 940.58852,478.75925 889.78568,398.65793 814.56836,348.93945 739.35104,299.22097 645.74745,283.86953 558.58984,306.95898 517.49436,317.84585 479.45209,336.9529 446.37891,362.44922 468.58023,289.39755 507.86072,221.69745 561.00977,169.25586 630.64993,100.54265 726.78428,56.904882 822.49805,53.4375 c 56.66318,-2.052713 114.06905,9.613992 164.26953,34.019531 50.09422,24.353879 94.47142,62.300309 127.00582,108.140629 32.5682,45.88787 54.5157,101.30877 66.17,159.76172 11.674,58.55185 13.4143,122.46399 14.2168,189.88281 l 3.6875,309.73437 a 70.007,70.007 0 0 0 139.9941,-1.35351 l -2.2715,-305.3418 c -0.4635,-62.33751 0,-121.33077 9.2559,-175.57617 9.2435,-54.18668 27.5234,-105.94421 55.2558,-150.07227 27.7352,-44.13243 65.9157,-82.24841 110.1055,-109.95508 44.3224,-27.789752 95.7484,-46.029773 148.9492,-53.943355 34.1812,-5.084427 69.1764,-5.552557 103.9121,-2.013672 -116.7855,102.836977 -190.0557,250.970917 -198.6191,406.941407 -5.8982,107.42779 19.1635,220.49675 87.5019,311.55273 34.1825,45.54565 78.3856,84.22011 130.6329,110.71094 52.3899,26.56325 111.6565,40.13267 171.9003,36.4707 56.5007,-3.43444 110.3016,-21.80594 157.0196,-50.9082 46.6033,-29.03075 85.2324,-68.0568 114.7617,-112.46094 59.029,-88.76391 79.3697,-194.47463 73.5351,-294.81054 -9.1847,-157.94861 -83.5175,-308.77257 -203.957,-411.74805 32.5172,-4.708387 65.433,-6.135563 97.9805,-3.792969 89.8636,6.467911 178.386,40.22471 246.8457,96.291019 68.2474,55.89234 117.9433,136.01372 134.9219,220.96289 17.5336,87.72673 0.2616,184.09237 -46.6504,260.26758 -46.9121,76.1752 -125.1945,134.9693 -211.4258,158.79296 a 70.007,70.007 0 0 0 18.5918,137.47266 l 653.6152,0.46094 a 70.007,70.007 0 0 0 70.0489,-70 l 0,-873.384768 a 70.007,70.007 0 1 0 -140,0 l 0,803.335938 -335.9883,-0.23828 c 24.1853,-25.26855 45.8822,-53.01284 64.3652,-83.02539 66.0576,-107.26349 89.4179,-237.58986 64.7285,-361.11914 -23.811,-119.13461 -90.7351,-225.86492 -183.5019,-301.837893 -92.5543,-75.799012 -207.7805,-119.144356 -325.5,-127.617188 -9.8114,-0.706168 -19.6296,-1.167337 -29.4453,-1.386718 z M 1931.0059,108.32812 c 24.4839,13.21654 47.7003,28.60405 68.9629,46.22657 93.0045,77.08279 153.013,196.79636 160.0488,317.78906 4.3847,75.40297 -11.8977,151.34159 -50.3477,209.16016 -19.2103,28.8871 -44.1019,53.64672 -72.207,71.15429 a 70.007,70.007 0 0 0 -0,0 c -27.9902,17.43607 -60.135,28.09014 -91.4902,29.9961 -33.385,2.02933 -68.8217,-5.73988 -100.0937,-21.59571 -31.415,-15.92823 -59.8498,-40.40363 -81.9727,-69.88086 -44.2724,-58.98977 -64.072,-139.94667 -59.6855,-219.83984 6.4971,-118.33579 64.9924,-235.58042 155.2812,-313.14844 21.9934,-18.89481 46.0357,-35.54222 71.5059,-49.86133 z M 630.9082,436.92383 c 37.29903,-1.44784 76.01922,8.68473 106.46094,28.80664 40.58896,26.8292 70.60689,74.15738 77.57422,122.31055 6.00968,41.53464 -4.20097,87.04926 -27.3418,121.46093 -23.07773,34.31786 -61.2741,60.60151 -101.15039,69.51367 -35.98408,8.04228 -77.04953,3.29639 -112.80078,-12.60742 -36.04234,-16.0333 -68.74144,-43.79716 -92.88672,-77.85351 -1.47855,-2.08546 -2.82935,-4.27288 -4.24609,-6.40821 a 70.007,70.007 0 0 0 -1.4961,-4.05468 c -17.78648,-45.287 -15.13892,-101.26838 6.84375,-144.67383 21.98267,-43.40544 65.54396,-78.66736 112.57618,-91.12695 11.75805,-3.1149 24.03378,-4.88458 36.46679,-5.36719 z"
         id="path4139-1-0-4-2-2-4-1-5"
         inkscape:connector-curvature="0" />
      <path
         sodipodi:nodetypes="caaaasssaaaaaaccc"
         inkscape:connector-curvature="0"
         inkscape:original-d="m 273.09463,2091.2794 c -24.52601,-2.5494 379.70042,-259.0679 474.35482,-125.6642 62.752,88.4411 -74.1476,264.9591 -182.5019,269.3134 -181.2531,7.2839 -352.33308,-243.5427 -340.45093,-424.5526 13.86744,-211.2532 247.48673,-453.8088 458.69653,-439.2945 237.9396,16.3513 442.73515,290.0709 444.19135,560.9255 l 3.6867,309.7345 -2.2704,-305.3424 c -1.7122,-230.2733 159.4828,-527.6734 383.266,-559.3054 248.4981,-35.1255 549.4712,229.8116 581.061,478.7838 19.9403,157.158 -121.3304,379.6597 -279.682,384.245 -165.9399,4.805 -330.0052,-219.616 -315.8931,-385.0246 21.1561,-247.972 315.6403,-486.6726 564.5053,-488.644 193.7182,-1.5345 414.4103,182.1231 445.3851,373.355 31.3124,193.3161 -308.0775,500.2525 -308.0775,500.2525 l 653.6148,0.46 0,-873.3845"
         inkscape:path-effect="#path-effect4141-3-4-6-8-9-5-4-6-0"
         id="path4139-1-0-4-2-2-4-1-5-6"
         d="m 273.09463,2091.2794 c -25.37369,-64.6052 -21.80806,-139.9695 9.55184,-201.8906 31.3599,-61.921 90.00367,-109.391 157.09856,-127.1655 67.0949,-17.7745 141.54892,-5.5643 199.45205,32.7096 57.90313,38.2738 98.31296,101.9883 108.25237,170.6823 8.53719,59.0029 -5.26468,121.075 -38.53292,170.5467 -33.26823,49.4717 -85.78705,85.7633 -143.96898,98.7667 -52.09588,11.6432 -107.74637,4.7303 -156.5194,-16.9662 -48.77302,-21.6965 -90.66621,-57.7766 -121.54018,-101.3237 -61.74793,-87.094 -77.86993,-200.6284 -62.39135,-306.2627 16.65553,-113.6664 68.80255,-222.6631 150.57753,-303.3496 81.77499,-80.6866 193.3141,-131.7859 308.119,-135.9449 67.83927,-2.4576 136.35812,11.3389 197.40939,41.0197 61.05127,29.6808 114.19288,75.222 153.48246,130.5803 39.2896,55.3582 64.4627,120.0142 77.736,186.5877 13.2734,66.5735 14.7556,134.8588 15.5635,202.7378 l 3.6867,309.7345 -2.2704,-305.3424 c -0.467,-62.8032 -0.3099,-125.9572 10.2512,-187.8678 10.5611,-61.9105 31.5724,-122.3716 64.9909,-175.5474 33.4185,-53.1757 78.9766,-98.6533 132.1873,-132.016 53.2108,-33.3627 113.7152,-54.6337 175.8366,-63.8742 139.6124,-20.7672 287.1242,21.0936 395.7991,111.1641 108.6748,90.0704 177.0679,226.7092 185.2619,367.6197 5.1097,87.8695 -13.2014,178.6948 -61.9409,251.986 -24.3697,36.6457 -56.1308,68.5377 -93.485,91.8069 -37.3541,23.2691 -80.3282,37.7819 -124.2561,40.4521 -46.8144,2.8457 -94.1656,-7.8228 -135.9967,-29.0323 -41.831,-21.2095 -78.1509,-52.7844 -106.3036,-90.2958 -56.3054,-75.0229 -78.7352,-172.036 -73.5928,-265.6965 7.5949,-138.3299 74.4761,-272.1279 179.56,-362.4065 105.0838,-90.2787 246.7645,-136.183 384.9453,-126.2375 103.7916,7.4704 205.6664,46.0211 286.1734,111.9537 80.507,65.9327 138.8169,159.3594 159.2117,261.4013 21.1116,105.628 0.7949,218.9744 -55.6899,310.6938 -56.4848,91.7194 -148.5601,160.8736 -252.3876,189.5587 l 653.6148,0.46 0,-873.3845"
         style="fill:none;fill-rule:evenodd;stroke:#000000;stroke-width:140;stroke-linecap:round;stroke-linejoin:round;stroke-miterlimit:4;stroke-dasharray:none;stroke-opacity:1" />
    </g>
  </g>
</svg>
