<?xml version="1.0" encoding="UTF-8" standalone="no"?>
<!-- Created with Inkscape (http://www.inkscape.org/) -->

<svg
   xmlns:dc="http://purl.org/dc/elements/1.1/"
   xmlns:cc="http://creativecommons.org/ns#"
   xmlns:rdf="http://www.w3.org/1999/02/22-rdf-syntax-ns#"
   xmlns:svg="http://www.w3.org/2000/svg"
   xmlns="http://www.w3.org/2000/svg"
   xmlns:sodipodi="http://sodipodi.sourceforge.net/DTD/sodipodi-0.dtd"
   xmlns:inkscape="http://www.inkscape.org/namespaces/inkscape"
   width="2000"
   height="2048"
   id="svg2992"
   version="1.1"
   inkscape:version="0.91pre3 r13670"
   sodipodi:docname="ഞ്ജൂ.svg">
  <defs
     id="defs5498">
    <inkscape:path-effect
       effect="spiro"
       id="path-effect4142-0-1-0-3"
       is_visible="true" />
    <inkscape:path-effect
       is_visible="true"
       id="path-effect4141-3-4-6-8-9-5-4-6-5-4"
       effect="spiro" />
    <inkscape:path-effect
       is_visible="true"
       id="path-effect4141-3-4-6-8-9-5-4-6-5-4-1"
       effect="spiro" />
  </defs>
  <sodipodi:namedview
     inkscape:window-height="851"
     inkscape:window-width="1600"
     inkscape:pageshadow="2"
     inkscape:pageopacity="0.0"
     borderopacity="1.0"
     bordercolor="#666666"
     pagecolor="#ffffff"
     id="base"
     showgrid="true"
     showguides="true"
     inkscape:guide-bbox="true"
     inkscape:zoom="0.32102648"
     inkscape:cx="1325.3361"
     inkscape:cy="-1086.2836"
     inkscape:window-x="1599"
     inkscape:window-y="-1"
     inkscape:current-layer="layer1"
     inkscape:window-maximized="1">
    <sodipodi:guide
       orientation="horizontal"
       position="0,600"
       id="guide5596" />
    <inkscape:grid
       type="xygrid"
       id="grid3769"
       empspacing="3"
       visible="true"
       enabled="true"
       snapvisiblegridlinesonly="true"
       spacingx="4px"
       units="px"
       dotted="true"
       spacingy="4px" />
    <sodipodi:guide
       orientation="0,1"
       position="-1040,1600"
       id="guide2985" />
  </sodipodi:namedview>
  <metadata
     id="metadata5594">
    <rdf:RDF>
      <cc:Work
         rdf:about="">
        <dc:format>image/svg+xml</dc:format>
        <dc:type
           rdf:resource="http://purl.org/dc/dcmitype/StillImage" />
        <dc:title />
      </cc:Work>
    </rdf:RDF>
  </metadata>
  <g
     inkscape:label="Layer 1"
     inkscape:groupmode="layer"
     id="layer1"
     transform="translate(0,1048)">
    <path
       sodipodi:nodetypes="caaaacccaaaaasccaaaaaaaaaacassasc"
       inkscape:connector-curvature="0"
       inkscape:original-d="m 183.24981,171.12442 c -26.2118,-2.7247 407.52581,-264.547007 495.73811,-119.270006 64.347,105.973206 -120.9132,295.651206 -243.99051,280.724406 -190.2609,-23.0749 -308.0141,-325.3692063 -262.5055,-511.5429 47.8451,-195.73216 294.0759,-382.16634 492.96171,-349.84436 212.95624,34.6087 380.71418,251.6103 382.05108,522.4654537 l 1.6867,341.7346063 -0.2704,-345.3425063 c -0.1803,-230.2795537 133.7043,-467.2035537 332.5602,-519.8243037 132.8261,-35.1481 332.7324,58.30119 364.7953,191.90554 20.9976,87.49579 -65.8799,218.75893 -155.8448,220.40893 -97.1324,1.78145 -196.5512,-136.50382 -176.8737,-231.63881 26.9106,-130.10462 217.2919,-220.1777 347.7106,-194.8329 134.5654,26.1507 252.9851,230.11481 257.3643,320.76331 l 3.8048,117.4608 -4.9288,-115.7788 c 14.3471,-178.20471 199.9836,-323.88381 357.0235,-310.14131 110.7726,9.6937 240.6714,152.298 210.0113,259.18341 -88.965,310.145992 -620.4345,183.871495 -915.3795,314.687292 -87.6101,38.8574 -250.1377,42.9752 -251.7995,138.801498 -1.6986,97.94641 154.5164,144.75811 252.2965,150.71141 197.4946,12.0244 347.6964,-207.12811 542.7505,-240.333408 117.0656,-19.9288 320.2463,-85.18 355.1207,28.333298 29.7889,96.96021 -153.3032,247.01671 -237.4228,190.33731 -88.5837,-59.6873 3.6165,-246.836278 91.8824,-306.992608 135.1215,-92.090127 413.5555,-104.225032 488.8461,40.92915 37.8441,72.960378 -124.7116,212.710018 -124.7116,212.710018 0,0 262.3927,81.39931 241.9638,179.7817 -47.4579,228.55 -597.0413,158.6098 -681.9087,159.3314 l -590.6559,5.0222 c -21.6551,0.1842 -341.632,1.8946 -348.4432,125.1147 -6.2495,113.0591 282.3602,149.2969 305.1095,149.3352 l 1252.0078,2.1085"
       inkscape:path-effect="#path-effect4141-3-4-6-8-9-5-4-6-5-4"
       id="path4139-1-0-4-2-2-4-1-2-0-8"
       d="M 183.24981,171.12442 C 157.60982,103.19111 162.5834,24.349067 196.55702,-39.823643 c 33.97362,-64.172707 96.38197,-112.608267 166.97842,-129.593117 70.59644,-16.98485 148.20628,-2.23638 207.6512,39.4607 59.44491,41.697069 99.73574,109.648914 107.80128,181.810474 7.75218,69.358016 -14.33881,141.655966 -59.97528,194.456946 -45.63647,52.80098 -114.23383,85.17801 -184.01523,86.26746 -56.36115,0.87993 -112.4277,-18.12694 -158.26853,-50.92894 -45.84084,-32.80201 -81.53732,-78.98933 -104.27907,-130.56613 -45.48349,-103.15361 -38.26278,-224.01882 0.0421,-330.04783 36.7283,-101.66497 101.81548,-193.75348 188.87144,-257.83151 87.05596,-64.07804 196.22543,-99.07769 304.09027,-92.01285 60.39664,3.95581 120.05458,20.99325 172.74048,50.78585 52.6859,29.79261 98.04162,72.33624 131.44883,122.80762 33.40727,50.47139 54.62987,108.45418 65.65227,167.96813 11.0224,59.51395 11.9108,120.378538 12.2095,180.9038537 l 1.6867,341.7346063 -0.2704,-345.3425063 c -0.044,-56.5018307 0.4129,-113.2701837 9.5209,-169.0331037 9.108,-55.76292 26.8946,-110.3839 55.3262,-159.21117 56.8632,-97.65454 157.2911,-167.563 267.7131,-191.58003 74.8987,-16.29063 155.6271,-12.5932 224.9532,20.10377 34.663,16.34848 66.1098,39.80425 90.6474,69.2442 24.5375,29.43995 42.0447,64.90552 49.1947,102.55757 9.4908,49.97874 -0.062,103.86401 -28.6411,145.9498 -28.5786,42.08578 -76.4343,71.23076 -127.2037,74.45913 -28.1178,1.78798 -56.6256,-4.16499 -81.9062,-16.60303 -25.2805,-12.43803 -47.3065,-31.29021 -63.9121,-54.05117 -33.2113,-45.52192 -43.5656,-106.04165 -31.0554,-160.98461 8.1072,-35.60538 25.2984,-68.96512 48.7009,-96.99711 23.4025,-28.032 52.9263,-50.77135 85.4854,-67.30551 65.118,-33.06832 141.2183,-40.81194 213.5243,-30.53028 37.7602,5.36937 75.0412,15.61133 109.0721,32.8322 34.031,17.22088 64.576,41.5538 88.0269,71.63239 23.4509,30.07858 39.4847,65.62665 48.3811,102.71463 8.8965,37.08798 10.6494,75.46401 11.8842,113.58409 l 3.8048,117.4608 -4.9288,-115.7788 c -10.0578,-91.96192 27.4982,-187.84743 97.3373,-248.51573 69.8392,-60.66831 170.0346,-84.44548 259.6862,-61.62558 57.8698,14.73016 110.9636,48.08586 148.7565,94.31988 37.7929,46.23402 59.9647,105.16243 61.2548,164.86353 0.9929,45.94639 -10.1728,91.89538 -30.5794,133.07337 -20.4066,41.177997 -49.9145,77.617273 -84.8204,107.510947 -69.8119,59.787348 -159.7759,92.527158 -250.7802,105.428725 -182.0085,25.803135 -365.5443,-23.345918 -549.1995,-31.32575 -53.1696,-2.310225 -108.0907,-0.83159 -156.9784,20.200327 -24.4439,10.515958 -47.0068,25.947352 -64.149,46.300061 -17.1422,20.3527 -28.6611,45.7673 -30.6721,72.30111 -2.1325,28.13701 6.5427,56.64776 22.3977,79.98999 15.8549,23.34222 38.6101,41.61995 64.0088,53.91421 50.7972,24.58852 110.0795,25.1823 165.89,16.80721 98.3067,-14.75219 190.8781,-55.31731 278.9299,-101.45524 88.0518,-46.13793 173.0718,-98.3013 263.8206,-138.878168 58.6951,-26.244566 121.0804,-47.806638 185.3757,-47.761738 32.1476,0.02245 64.4728,5.570161 94.0705,18.117817 29.5978,12.547655 56.3964,32.251183 75.6745,57.977219 24.0697,32.12031 35.693,73.43307 31.3989,113.34076 -4.2941,39.9077 -24.5771,77.95869 -55.6361,103.38315 -31.059,25.42447 -72.582,37.8023 -112.4361,33.03625 -39.8541,-4.76606 -77.4468,-26.74188 -100.7495,-59.42285 -17.0452,-23.90512 -26.3878,-52.93162 -28.2415,-82.2328 -1.8536,-29.30118 3.6079,-58.84674 14.1663,-86.2423 21.1167,-54.791104 61.6755,-99.954866 105.9576,-138.517508 37.137,-32.340398 77.7034,-61.119476 122.2654,-82.078614 44.562,-20.959138 93.281,-33.955618 142.5253,-34.205618 49.2442,-0.24999 99.003,12.64724 139.9988,39.930916 40.9958,27.283671 72.6587,69.3747989 84.0566,117.282466 10.5038,44.149519 3.3148,92.250978 -19.6383,131.400208 -22.9532,39.14924 -61.4172,68.91418 -105.0733,81.30981 27.4335,-16.86368 59.9711,-25.29757 92.1422,-23.88361 32.1711,1.41396 63.8434,12.66995 89.6916,31.87542 25.8481,19.20547 45.766,46.28149 56.4045,76.67556 10.6386,30.39407 11.9541,63.98126 3.7255,95.11433 -7.9937,30.24404 -24.7708,57.85068 -46.5273,80.32852 -21.7566,22.47784 -48.3843,39.95533 -76.9116,52.79255 -57.0546,25.67444 -120.6825,33.07285 -183.236,34.28176 -125.107,2.41782 -250.1079,-9.13534 -375.2338,-8.07143 l -590.6559,5.0222 c -67.5412,0.57429 -135.6198,-3.59402 -202.3356,6.94862 -33.3579,5.27132 -66.5941,15.39547 -94.1702,34.89157 -13.788,9.74806 -26.0228,21.82707 -35.2137,35.9926 -9.1908,14.16554 -15.2786,30.45796 -16.7237,47.28191 -1.3623,15.85971 1.4188,31.9785 7.3858,46.73592 5.967,14.75742 15.0706,28.1686 26.1059,39.64066 22.0706,22.94412 51.4213,37.90654 81.935,46.98736 61.0273,18.16163 126.0104,15.86403 189.6828,15.97126 l 1252.0078,2.1085"
       style="fill:none;fill-rule:evenodd;stroke:#000000;stroke-width:140;stroke-linecap:round;stroke-linejoin:round;stroke-miterlimit:4;stroke-dasharray:none;stroke-opacity:1" />
    <path
       style="color:#000000;font-style:normal;font-variant:normal;font-weight:normal;font-stretch:normal;font-size:medium;line-height:normal;font-family:sans-serif;text-indent:0;text-align:start;text-decoration:none;text-decoration-line:none;text-decoration-style:solid;text-decoration-color:#000000;letter-spacing:normal;word-spacing:normal;text-transform:none;direction:ltr;block-progression:tb;writing-mode:lr-tb;baseline-shift:baseline;text-anchor:start;white-space:normal;clip-rule:nonzero;display:inline;overflow:visible;visibility:visible;opacity:1;isolation:auto;mix-blend-mode:normal;color-interpolation:sRGB;color-interpolation-filters:linearRGB;solid-color:#000000;solid-opacity:1;fill:#000000;fill-opacity:1;fill-rule:evenodd;stroke:none;stroke-width:140;stroke-linecap:round;stroke-linejoin:round;stroke-miterlimit:4;stroke-dasharray:none;stroke-dashoffset:0;stroke-opacity:1;color-rendering:auto;image-rendering:auto;shape-rendering:auto;text-rendering:auto;enable-background:accumulate"
       d="m 1682.0137,1194.332 c -46.6079,-0.5575 -93.9066,5.8052 -139.4102,20.9082 -66.9022,-16.6914 -136.4571,-14.9742 -201.209,-0.8906 -129.3747,28.1393 -245.7403,108.6854 -313.3281,224.7578 -2.178,3.7405 -4.1465,7.5617 -6.2129,11.3457 -5.9537,-10.7639 -12.188,-21.414 -19.0488,-31.7793 -39.50949,-59.6906 -92.80657,-109.7292 -155.36329,-145.1035 -62.4408,-35.3088 -132.14417,-55.0871 -202.6211,-59.7031 -125.98392,-8.2517 -250.40424,32.0623 -350.16015,105.4883 -99.42708,73.1838 -172.09494,176.6061 -213.212894,290.4218 -43.125729,119.3733 -52.986564,257.9486 1.74414,382.0743 27.427304,62.2033 70.449524,118.3615 127.593754,159.2519 57.40062,41.0738 127.27832,65.129 200.0957,63.9922 90.70992,-1.4161 176.81086,-42.1386 235.88281,-110.4844 59.00037,-68.2628 86.56137,-158.7217 76.58203,-248.0058 -10.38524,-92.9158 -60.62827,-177.6543 -137.16992,-231.3438 -76.54172,-53.6895 -173.32225,-72.0806 -264.22266,-50.2109 -31.81485,7.6544 -61.97086,20.1224 -89.68164,36.5176 33.74688,-71.0113 83.67774,-134.0475 145.37891,-179.4629 74.35601,-54.7302 168.27378,-84.4153 258.01953,-78.5371 50.31636,3.2955 99.9284,17.5907 142.85938,41.8671 42.81507,24.2109 80.22826,59.2596 107.5332,100.5118 27.31898,41.2733 45.61839,90.3813 55.19336,142.08 9.58875,51.7732 10.74455,108.4301 11.04102,168.502 l 1.68554,341.7344 a 70.007,70.007 0 0 0 139.99998,-0.4004 l 0,-0.291 0,-0.055 -0.2695,-344.9981 c -0.044,-56.0872 0.6559,-109.0227 8.6055,-157.6933 7.9431,-48.6312 23.3356,-95.0909 46.7324,-135.2715 44.2063,-75.9181 123.6404,-133.4086 210.666,-155.5977 -18.1828,28.4868 -31.9151,60.0861 -39.6211,93.9297 -16.8369,73.9451 -3.7791,153.9916 42.7598,217.7813 23.1294,31.7031 53.5896,57.9066 89.5586,75.6035 36.0459,17.7346 76.3231,26.255 117.2519,23.6523 74.6165,-4.7448 140.1264,-45.2871 180.6699,-104.9922 l 0,-0 c 40.106,-59.0612 52.3193,-130.8356 39.502,-198.332 -8.5588,-45.071 -27.8734,-86.5554 -54.6211,-122.1094 28.4168,4.7845 55.1384,12.6715 78.3086,24.3965 25.3847,12.8455 47.8456,30.9417 64.4297,52.2129 16.5202,21.1892 28.7026,47.6011 35.5156,76.0039 3.9061,16.2839 6.1232,34.4031 7.6113,53.8046 -0.6543,16.0685 -0.2727,32.2299 1.293,48.4024 l 4.918,115.4863 a 70.007,70.007 0 0 0 139.8984,-5.2441 l -3.8047,-117.461 c -0.4318,-13.3314 -1.059,-27.3538 -1.9336,-41.6601 4.5908,-56.6281 31.9322,-113.4388 74.0899,-150.0606 51.6517,-44.8691 130.209,-63.5119 196.5136,-46.6347 43.3077,11.0235 83.9238,36.6507 111.8262,70.7851 27.8374,34.0551 44.5314,78.6974 45.4688,122.0743 0.7262,33.6057 -7.5984,68.7614 -23.3164,100.4785 -13.2198,26.6758 -31.9013,51.5157 -54.2735,73.1699 -18.9397,13.1186 -36.8929,27.1376 -53.9824,41.6816 -50.6354,31.2266 -111.3427,50.9168 -174.4492,59.8633 -163.3021,23.1512 -342.2479,-23.52 -536.336,-31.9531 -56.5522,-2.4572 -122.4035,-2.2503 -187.6796,25.832 -32.9155,14.1605 -64.6175,35.3413 -90.0254,65.5078 -25.6854,30.4959 -43.6549,68.8447 -46.9336,112.1055 -3.483,45.9554 10.2203,89.1708 34.2929,124.6113 23.8034,35.0442 56.2859,60.5851 91.4161,77.5899 69.6236,33.7015 143.2904,32.5521 206.7753,23.0254 110.5528,-16.5899 210.0546,-61.0053 301.0313,-108.6758 89.9538,-47.1346 173.0281,-97.816 257.3691,-135.7969 -5.5756,24.2476 -8.0918,49.6824 -6.4414,75.7715 2.6055,41.1847 15.5311,82.5835 41.1074,118.4531 35.3515,49.5789 89.5408,81.1268 149.4317,88.2891 59.7341,7.1434 118.9831,-10.6343 165.0879,-48.375 45.9901,-37.6468 74.5983,-91.5465 80.8945,-150.0606 6.2813,-58.3761 -10.123,-116.2904 -44.9805,-162.8066 -23.7275,-31.6636 -54.2361,-55.7107 -87.5878,-72.5918 12.5011,-7.7394 25.1922,-14.7561 38.0898,-20.8223 36.8659,-17.3394 75.9251,-27.3621 113.0879,-27.5508 36.7832,-0.1867 73.142,9.7606 100.8594,28.2071 27.1917,18.0967 47.9617,46.7177 54.7402,75.209 6.1894,26.0153 1.5995,56.7259 -11.9258,79.7949 l 0,0 c -7.8823,13.444 -19.5691,25.4184 -32.9922,34.5898 -16.8267,5.5994 -33.0623,13.0906 -48.3535,22.4903 a 70.007,70.007 0 0 0 55.7773,126.9726 c 16.7526,-4.7567 32.791,-11.2731 47.9629,-19.2715 7.3238,-1.4782 14.7483,-2.3357 21.9863,-2.0175 17.904,0.7868 36.6324,7.4425 51.0176,18.1308 14.3852,10.6884 26.1615,26.6984 32.082,43.6133 5.9206,16.9148 6.6986,36.775 2.1192,54.1016 -4.4998,17.0247 -14.8049,34.7121 -29.1485,49.5312 -14.517,14.9983 -33.6293,27.8728 -55.3398,37.6426 -43.8835,19.7474 -97.9093,27.0089 -155.8633,28.1289 -119.8993,2.3172 -244.6459,-9.1859 -374.4765,-8.082 l -590.6563,5.0214 c -64.2616,0.5465 -135.8887,-4.3278 -212.666,7.8047 -39.9263,6.3093 -83.757,18.6679 -123.6543,46.875 -20.1068,14.2153 -38.7852,32.3324 -53.5254,55.0508 -14.8478,22.8845 -25.1943,49.7046 -27.7441,79.3906 -2.4037,27.9826 2.4587,54.7948 12.2324,78.9668 9.7172,24.0323 23.9559,44.676 40.5527,61.9297 33.0253,34.3324 73.5182,53.9743 112.418,65.5508 75.5949,22.497 147.623,18.7747 209.5312,18.8789 l 1252.0078,2.1094 a 70.007,70.007 0 1 0 0.2364,-140 l -1252.0078,-2.1094 c -65.4366,-0.1102 -123.3743,0.7639 -169.834,-13.0625 -22.1276,-6.5851 -40.3372,-16.868 -51.4531,-28.4238 -5.4738,-5.6904 -9.4434,-11.8691 -11.6602,-17.3516 -2.1603,-5.3428 -2.8581,-10.769 -2.5371,-14.5058 0.3403,-3.962 2.1693,-9.7254 5.7031,-15.1719 3.6416,-5.6126 9.4312,-11.6549 16.9004,-16.9356 15.2549,-10.785 37.8961,-18.6748 64.6855,-22.9082 56.6544,-8.9526 121.1851,-5.4896 192.0059,-6.0918 l 590.6563,-5.0234 c 120.4211,-1.0239 245.6755,10.5791 375.9902,8.0605 67.153,-1.2977 140.3837,-8.8322 210.6094,-40.4335 35.3441,-15.9049 69.4882,-37.9859 98.4843,-67.9434 29.1695,-30.1365 52.4167,-67.6617 63.9043,-111.125 11.8778,-44.9397 10.0246,-92.2538 -5.332,-136.127 l 0,0 c -15.3565,-43.8733 -43.4156,-82.0157 -80.7266,-109.7382 -13.779,-10.238 -28.565,-18.8313 -44.0605,-25.7344 20.808,-48.6677 25.6718,-102.9331 13.289,-154.9805 -16.0173,-67.3241 -58.5731,-122.8848 -113.373,-159.3555 -54.2743,-36.1207 -117.4313,-51.9695 -179.1367,-51.6562 -14.5277,0.074 -28.8746,1.0905 -43.0293,2.8281 7.7851,-30.2523 11.8188,-61.6728 11.1289,-93.6015 -1.6429,-76.0254 -29.2927,-149.2392 -77.0411,-207.6524 -47.6833,-58.3335 -113.2555,-99.4186 -185.6875,-117.8555 -112.9986,-28.7626 -234.8327,0.1498 -322.8593,76.6172 -17.7028,15.3782 -33.5998,32.4425 -47.7461,50.7344 -2.495,-3.4885 -4.9669,-6.9902 -7.6211,-10.3945 -30.3177,-38.8861 -68.9477,-69.4546 -111.625,-91.0508 -42.4314,-21.4718 -87.1387,-33.4638 -130.8242,-39.6758 -20.9834,-2.9838 -42.3666,-4.7014 -63.9004,-4.959 z m -133.6153,170.5274 c 0.9832,0.445 1.9928,0.8472 2.9668,1.3066 26.0727,12.2969 49.3236,29.8583 66.7364,50.75 17.3197,20.7802 29.4495,45.8093 34.1953,70.8008 6.1641,32.4605 -0.7298,68.4543 -17.7813,93.5644 -16.6137,24.4659 -46.8126,42.2139 -73.7344,43.9258 -15.3068,0.9734 -32.0474,-2.4132 -46.5624,-9.5547 -14.5921,-7.1793 -28.182,-18.6791 -38.2637,-32.498 -19.8837,-27.2541 -27.5371,-68.2466 -19.3535,-104.1875 5.4526,-23.9472 17.4825,-47.6709 34.1836,-67.6758 15.415,-18.4644 35.3464,-34.2376 57.6132,-46.4316 z M 393.56836,1706.3711 c 39.63811,-0.5889 80.44986,11.2273 112.21094,33.5059 42.34817,29.7047 72.68775,80.8718 78.43359,132.2792 5.52503,49.4319 -11.09657,103.5692 -43.36914,140.9083 -32.20099,37.2562 -83.29556,61.2861 -132.14844,62.0488 -39.9044,0.623 -82.15865,-13.3336 -116.43945,-37.8633 l -0.002,0 c -27.33228,-19.5583 -50.70387,-46.3846 -68.25586,-76.9961 a 70.007,70.007 0 0 0 -0.4668,-1.3223 c -18.26575,-48.3952 -14.52092,-107.7604 9.68164,-153.4765 24.20257,-45.7162 71.19579,-82.1872 121.48828,-94.2871 12.57312,-3.025 25.65448,-4.6006 38.86719,-4.7969 z M 1604.752,1924.0996 c 11.6331,-0.1721 23.7173,0.063 36.164,0.6035 94.2502,4.0952 192.9467,21.1909 295.6485,31.3946 -15.2592,8.3636 -30.5244,16.7875 -45.6719,24.7246 -85.127,44.6053 -170.7675,81.3198 -256.8281,94.2343 -48.1361,7.2235 -93.0332,4.8857 -125.004,-10.5898 -15.6672,-7.5838 -28.6951,-18.5981 -36.6015,-30.2383 -7.6373,-11.2439 -11.286,-25.0505 -10.5039,-35.3691 0.7432,-9.8068 5.813,-22.2866 14.4121,-32.4961 8.8764,-10.5389 22.3011,-20.2203 38.2734,-27.0918 24.3744,-10.4861 55.2118,-14.6557 90.1114,-15.1719 z m 781.9941,2.7266 c 18.9218,1.358 36.9097,5.2824 52.5801,11.9258 a 70.007,70.007 0 0 0 0,0 c 19.3322,8.1956 36.0832,20.9663 46.9785,35.5058 13.282,17.7244 20.1253,42.4357 17.8184,63.875 -2.292,21.3013 -14.2511,43.5031 -30.3789,56.7051 -16.0132,13.1082 -39.8091,20.0878 -59.7832,17.6992 -19.8173,-2.3699 -40.8125,-14.7755 -52.0664,-30.5586 -8.5141,-11.9406 -14.2751,-28.594 -15.377,-46.0117 -1.1194,-17.6959 2.2251,-37.4551 9.6231,-56.6504 6.8721,-17.8311 17.4501,-35.3596 30.6035,-52.4902 z"
       id="path4139-1-0-4-2-2-4-1-2-0-8-6"
       inkscape:connector-curvature="0" />
  </g>
</svg>
