<?xml version="1.0" encoding="UTF-8" standalone="no"?>
<!-- Created with Inkscape (http://www.inkscape.org/) -->

<svg
   xmlns:dc="http://purl.org/dc/elements/1.1/"
   xmlns:cc="http://creativecommons.org/ns#"
   xmlns:rdf="http://www.w3.org/1999/02/22-rdf-syntax-ns#"
   xmlns:svg="http://www.w3.org/2000/svg"
   xmlns="http://www.w3.org/2000/svg"
   xmlns:sodipodi="http://sodipodi.sourceforge.net/DTD/sodipodi-0.dtd"
   xmlns:inkscape="http://www.inkscape.org/namespaces/inkscape"
   width="2000"
   height="2048"
   id="svg2992"
   version="1.1"
   inkscape:version="0.91 r13725"
   sodipodi:docname="ഞ്ച.svg">
  <defs
     id="defs5498">
    <inkscape:path-effect
       is_visible="true"
       id="path-effect3891"
       effect="spiro" />
    <inkscape:path-effect
       is_visible="true"
       id="path-effect4141-3-4-6-8"
       effect="spiro" />
    <inkscape:path-effect
       is_visible="true"
       id="path-effect4141-3-4-6-8-9"
       effect="spiro" />
    <inkscape:path-effect
       is_visible="true"
       id="path-effect4141-3-4-6-8-9-5"
       effect="spiro" />
    <inkscape:path-effect
       effect="spiro"
       id="path-effect3782"
       is_visible="true" />
    <inkscape:path-effect
       effect="spiro"
       id="path-effect3846"
       is_visible="true" />
    <inkscape:path-effect
       effect="spiro"
       id="path-effect3801"
       is_visible="true" />
    <inkscape:path-effect
       effect="spiro"
       id="path-effect4918"
       is_visible="true" />
    <inkscape:path-effect
       effect="spiro"
       id="path-effect4372-5-8-0"
       is_visible="true" />
    <inkscape:path-effect
       effect="spiro"
       id="path-effect4372-5-8-0-0"
       is_visible="true" />
    <inkscape:path-effect
       is_visible="true"
       id="path-effect4141-3-4-6-8-9-5-3"
       effect="spiro" />
    <inkscape:path-effect
       is_visible="true"
       id="path-effect4141-3-4-6-8-9-5-4"
       effect="spiro" />
    <inkscape:path-effect
       is_visible="true"
       id="path-effect4141-3-4-6-8-9-5-4-6"
       effect="spiro" />
    <inkscape:path-effect
       is_visible="true"
       id="path-effect4141-3-4-6-8-9-5-4-6-0"
       effect="spiro" />
    <inkscape:path-effect
       is_visible="true"
       id="path-effect4141-3-4-6-8-9-5-4-6-5"
       effect="spiro" />
    <inkscape:path-effect
       is_visible="true"
       id="path-effect4141-3-4-6-8-9-5-4-6-5-7"
       effect="spiro" />
  </defs>
  <sodipodi:namedview
     inkscape:window-height="851"
     inkscape:window-width="1600"
     inkscape:pageshadow="2"
     inkscape:pageopacity="0.0"
     borderopacity="1.0"
     bordercolor="#666666"
     pagecolor="#ffffff"
     id="base"
     showgrid="true"
     showguides="true"
     inkscape:guide-bbox="true"
     inkscape:zoom="0.32102648"
     inkscape:cx="1597.1788"
     inkscape:cy="-49.964522"
     inkscape:window-x="1599"
     inkscape:window-y="-1"
     inkscape:current-layer="layer1-05"
     inkscape:window-maximized="1">
    <sodipodi:guide
       orientation="horizontal"
       position="0,600"
       id="guide5596" />
    <inkscape:grid
       type="xygrid"
       id="grid3769"
       empspacing="3"
       visible="true"
       enabled="true"
       snapvisiblegridlinesonly="true"
       spacingx="4px"
       units="px"
       dotted="true"
       spacingy="4px" />
    <sodipodi:guide
       orientation="0,1"
       position="-1040,1600"
       id="guide2985" />
  </sodipodi:namedview>
  <metadata
     id="metadata5594">
    <rdf:RDF>
      <cc:Work
         rdf:about="">
        <dc:format>image/svg+xml</dc:format>
        <dc:type
           rdf:resource="http://purl.org/dc/dcmitype/StillImage" />
        <dc:title />
      </cc:Work>
    </rdf:RDF>
  </metadata>
  <g
     inkscape:label="Layer 1"
     inkscape:groupmode="layer"
     id="layer1"
     transform="translate(0,1048)">
    <g
       id="layer1-05"
       inkscape:label="Layer 1"
       transform="translate(-185.15889,-518.04243)">
      <g
         transform="translate(-2634.3901,235.93018)"
         inkscape:label="Layer 1"
         id="layer1-0" />
      <path
         sodipodi:nodetypes="caaaacccaaaaaaccc"
         inkscape:connector-curvature="0"
         inkscape:original-d="m 399.86307,661.928 c -26.2118,-2.7247 473.7815,-261.67322 567.3833,-94.34984 60.52773,108.19993 -120.0456,283.63901 -243.99052,280.7243 C 528.52172,843.72305 345.70571,583.89586 361.0701,389.71479 376.58048,193.68873 598.66925,-21.798705 794.95187,-9.969735 1022.04,3.715724 1236.4263,238.52556 1237.7632,509.38076 l 1.6867,341.7345 -0.2704,-345.3424 c -0.1803,-230.2796 189.8877,-506.06155599 411.5311,-525.535505 227.241,-19.96577 486.7904,229.987165 509.4157,456.978805 17.0146,170.70082 -136.2184,416.56687 -307.7171,412.5101 -178.5054,-4.22251 -332.3313,-268.49237 -299.6292,-444.0275 44.6325,-239.57383 356.7461,-436.680525 599.7328,-418.102405 175.6829,13.432249 348.342,191.871865 382.6189,364.701285 35.0744,176.85045 -219.4618,494.36139 -219.4618,494.36139 l 632.866,1.45389 0,-873.384523"
         inkscape:path-effect="#path-effect4141-3-4-6-8-9-5-4-6-5"
         id="path4139-1-0-4-2-2-4-1-2-0"
         d="m 399.86307,661.928 c -28.51776,-80.17924 -19.67224,-172.80122 23.50605,-246.1334 43.17829,-73.33217 119.88007,-126.0001 203.82711,-139.95961 83.94704,-13.9595 173.56593,11.05106 238.153,66.463 64.58708,55.41193 102.93179,140.18668 101.89714,225.28017 -0.82067,67.49528 -25.97167,134.51842 -70.12865,185.57179 -44.15698,51.05338 -107.03331,85.65357 -173.86187,95.15251 -56.28018,7.9996 -114.67921,-1.60371 -166.24104,-25.53758 C 505.45299,798.83102 460.76209,760.82545 427.32482,714.85371 360.45028,622.91024 340.6385,501.55556 361.0701,389.71479 380.0739,285.68964 432.75792,187.85993 510.19176,115.84342 587.6256,43.826912 689.52487,-1.752388 794.95187,-9.969735 c 65.30363,-5.089992 131.96314,4.0824351 192.53677,29.008471 60.57366,24.926037 114.54736,65.719184 154.89766,117.316944 40.3502,51.59776 66.6519,113.41289 80.2996,177.47703 13.6477,64.06413 14.754,130.04715 15.0773,195.54805 l 1.6867,341.7345 -0.2704,-345.3424 c -0.049,-63.03704 0.6262,-126.50141 12.8503,-188.34187 12.2242,-61.84045 36.071,-121.76359 73.0274,-172.83108 36.9565,-51.067495 86.6452,-92.773657 143.1762,-120.664801 56.531,-27.8911432 119.4614,-42.061959 182.4772,-43.697754 125.4421,-3.256288 251.2641,44.00351 344.3913,128.108465 93.1273,84.10495 152.8011,203.98269 165.0244,328.87034 9.4162,96.20679 -9.7003,196.98905 -64.2713,276.77884 -27.2855,39.8949 -63.1445,74.10553 -105.0975,98.10651 -41.953,24.00097 -90.0151,37.62597 -138.3483,37.62475 -50.9195,-0.001 -101.5107,-15.1528 -145.0025,-41.63402 -43.4919,-26.48121 -79.9044,-64.08353 -106.5273,-107.48878 -53.2458,-86.8105 -66.0898,-194.66737 -48.0994,-294.9047 23.9396,-133.38494 101.9119,-256.45259 212.8847,-334.232344 110.9728,-77.7797544 253.6972,-109.079139 386.8481,-83.870061 91.6855,17.3585549 178.4375,60.901716 246.2747,124.977105 67.8372,64.0754 116.3851,148.56947 136.3442,239.72418 20.6338,94.23634 10.413,194.96874 -28.7288,283.13993 -39.1419,88.1712 -106.9987,163.31724 -190.733,211.22146 l 632.866,1.45389 0,-873.384523"
         style="fill:none;fill-rule:evenodd;stroke:#000000;stroke-width:140;stroke-linecap:round;stroke-linejoin:round;stroke-miterlimit:4;stroke-dasharray:none;stroke-opacity:1" />
      <path
         style="color:#000000;font-style:normal;font-variant:normal;font-weight:normal;font-stretch:normal;font-size:medium;line-height:normal;font-family:sans-serif;text-indent:0;text-align:start;text-decoration:none;text-decoration-line:none;text-decoration-style:solid;text-decoration-color:#000000;letter-spacing:normal;word-spacing:normal;text-transform:none;direction:ltr;block-progression:tb;writing-mode:lr-tb;baseline-shift:baseline;text-anchor:start;white-space:normal;clip-rule:nonzero;display:inline;overflow:visible;visibility:visible;opacity:1;isolation:auto;mix-blend-mode:normal;color-interpolation:sRGB;color-interpolation-filters:linearRGB;solid-color:#000000;solid-opacity:1;fill:#000000;fill-opacity:1;fill-rule:evenodd;stroke:none;stroke-width:140;stroke-linecap:round;stroke-linejoin:round;stroke-miterlimit:4;stroke-dasharray:none;stroke-dashoffset:0;stroke-opacity:1;color-rendering:auto;image-rendering:auto;shape-rendering:auto;text-rendering:auto;enable-background:accumulate"
         d="m 2938.7148,980.125 a 70.007,70.007 0 0 0 -68.9472,70.9883 l 0,803.2246 -376.8535,-0.8672 c 27.4439,-34.6123 50.668,-72.6229 68.7011,-113.2441 l 0,-0 c 45.33,-102.1115 57.025,-217.3783 33.1289,-326.5137 -23.0987,-105.4938 -78.6087,-201.9193 -156.6582,-275.6406 -77.9859,-73.6614 -176.5401,-123.0298 -281.3183,-142.86718 -103.2164,-19.54167 -210.1184,-9.59962 -307.7793,26.35348 -66.4118,-24.52062 -137.3789,-36.7657 -208.8613,-34.91012 -72.291,1.87657 -145.0533,18.04952 -211.6329,50.89842 -66.7662,32.9409 -125.0969,81.8574 -168.9121,142.4024 -11.5972,16.0253 -21.9602,32.6979 -31.2968,49.8125 -11.5744,-20.8377 -24.5839,-41.0322 -39.5254,-60.1387 -47.9814,-61.3559 -111.5045,-109.3446 -183.4004,-138.9297 -71.69789,-29.5037 -149.1369,-39.9475 -224.61526,-34.06445 -121.93618,9.50405 -237.91837,61.50165 -326.99219,144.34375 -88.98878,82.763 -148.59085,193.659 -170.31054,312.5508 -23.47793,128.5162 -1.7348,268.5724 78.50586,378.8926 40.09457,55.1246 93.60805,100.885 156.82812,130.2304 63.38437,29.4217 134.8773,41.3951 205.56445,31.3477 84.21951,-11.9708 161.5269,-54.5792 216.95508,-118.6641 55.38319,-64.0329 86.15448,-146.196 87.17968,-230.5136 1.2972,-106.6829 -45.33885,-209.7871 -126.31249,-279.2579 -80.97367,-69.4706 -189.97123,-99.8879 -295.2168,-82.3867 -46.18043,7.6793 -90.05218,24.3309 -129.33008,48.3594 19.85455,-32.5238 43.87193,-62.3659 71.48047,-88.043 65.79387,-61.1908 153.60949,-100.3507 242.52735,-107.2812 55.12892,-4.297 111.01154,3.6046 160.46093,23.9531 49.25132,20.2669 93.67522,53.8654 126.39452,95.7051 32.7309,41.8546 55.2356,93.8258 66.9766,148.9394 11.7675,55.2384 13.2204,116.3639 13.541,181.3086 l 1.6855,341.3184 0,0.1269 0,0.2891 a 70.007,70.007 0 0 0 139.998,-0.3984 l 0,-0.2911 0,-0.055 -0.2695,-344.9981 c -0.049,-62.5006 0.9691,-121.3293 11.5215,-174.7129 10.534,-53.2897 30.9707,-103.7828 61.0644,-145.3672 30.0979,-41.59 71.1436,-76.0864 117.4395,-98.9277 46.4824,-22.9334 99.5816,-35.1011 153.3223,-36.4961 8.7902,-0.2282 17.5983,-0.051 26.4082,0.3086 -101.5625,88.0179 -171.2509,210.1822 -195.0547,342.8106 -20.5562,114.533 -6.8054,239.3075 57.3281,343.8691 32.0754,52.2948 75.9834,97.9163 129.793,130.6797 53.9562,32.8527 116.6015,51.8437 181.4082,51.8437 61.4888,0 121.0647,-17.092 173.1074,-46.8652 51.9161,-29.7007 95.2254,-71.2556 128.1172,-119.3477 65.7762,-96.1733 86.9307,-213.0505 76.1582,-323.1152 -13.9517,-142.5473 -81.1305,-277.6907 -187.7734,-374.002 -2.4164,-2.1822 -4.9442,-4.2251 -7.3965,-6.3632 35.2146,-2.133 70.5436,-0.157 104.8691,6.3418 78.5928,14.8797 153.54,52.5983 211.2285,107.0879 57.6251,54.4295 99.2119,126.993 116.0313,203.8085 17.3714,79.3367 8.625,165.5352 -24.3282,239.7657 -32.9531,74.2305 -91.0186,138.5331 -161.5136,178.8633 a 70.007,70.007 0 0 0 34.5996,130.7597 l 632.8652,1.4531 a 70.007,70.007 0 0 0 70.1602,-70 l 0,-873.3847 a 70.007,70.007 0 0 0 -71.0528,-70.9883 z m -1090.125,194.3027 c 32.8846,16.8378 63.6336,37.694 90.8282,62.2539 79.6116,71.8988 131.7785,176.5102 142.2734,283.7383 8.0599,82.349 -9.0171,167.0371 -52.3828,230.4434 -21.6792,31.6978 -50.0882,58.5641 -82.0781,76.8652 -31.8628,18.2285 -68.4111,28.3837 -103.5879,28.3828 -37.0323,0 -75.5722,-11.3122 -108.5996,-31.4218 -33.1742,-20.199 -62.0913,-49.7833 -83.2618,-84.2989 -42.358,-69.0594 -54.2937,-159.9978 -38.8691,-245.9394 20.5934,-114.7411 88.9884,-222.571 184.1621,-289.2774 16.3472,-11.4575 33.6209,-21.6625 51.5156,-30.7461 z M 665.75586,1418.5234 c 52.36895,0.4463 106.08321,19.6877 145.24609,53.2871 48.2005,41.3533 78.25457,107.7986 77.48243,171.3028 -0.61614,50.6729 -20.14732,102.5569 -53.07813,140.6308 -32.88582,38.0219 -81.3319,64.6137 -130.76953,71.6407 -41.87319,5.9518 -87.17869,-1.2805 -126.91797,-19.7266 -39.90357,-18.5224 -75.77279,-48.7749 -102.55273,-85.5937 -5.32546,-7.3218 -10.1964,-15.0033 -14.81641,-22.8653 a 70.007,70.007 0 0 0 -3.30078,-12.3437 c -21.2824,-59.8367 -14.35034,-132.4314 17.87305,-187.1582 32.22336,-54.7269 92.34169,-96.0061 154.99023,-106.4239 11.7466,-1.9533 23.75861,-2.8529 35.84375,-2.75 z"
         id="path4139-1-0-4-2-2-4-1-2-0-7"
         inkscape:connector-curvature="0" />
    </g>
  </g>
</svg>
