<?xml version="1.0" encoding="UTF-8" standalone="no"?>
<!-- Created with Inkscape (http://www.inkscape.org/) -->

<svg
   xmlns:dc="http://purl.org/dc/elements/1.1/"
   xmlns:cc="http://creativecommons.org/ns#"
   xmlns:rdf="http://www.w3.org/1999/02/22-rdf-syntax-ns#"
   xmlns:svg="http://www.w3.org/2000/svg"
   xmlns="http://www.w3.org/2000/svg"
   xmlns:sodipodi="http://sodipodi.sourceforge.net/DTD/sodipodi-0.dtd"
   xmlns:inkscape="http://www.inkscape.org/namespaces/inkscape"
   width="2000"
   height="2048"
   id="svg2992"
   version="1.1"
   inkscape:version="0.91 r13725"
   sodipodi:docname="ഞ്ജ.svg">
  <defs
     id="defs5498">
    <inkscape:path-effect
       is_visible="true"
       id="path-effect4141-3-4-6-8-9-5-4-6-5"
       effect="spiro" />
    <inkscape:path-effect
       effect="spiro"
       id="path-effect4142-0-1-0"
       is_visible="true" />
    <inkscape:path-effect
       is_visible="true"
       id="path-effect4141-3-4-6-8-9-5-4-6-5-4"
       effect="spiro" />
    <inkscape:path-effect
       is_visible="true"
       id="path-effect4141-3-4-6-8-9-5-4-6-5-5"
       effect="spiro" />
    <inkscape:path-effect
       effect="spiro"
       id="path-effect4142-0-1-0-0"
       is_visible="true" />
    <inkscape:path-effect
       is_visible="true"
       id="path-effect4141-3-4-6-8-9-5-4-6-5-5-3"
       effect="spiro" />
    <inkscape:path-effect
       is_visible="true"
       id="path-effect4141-3-4-6-8-9-5-4-6-5-50"
       effect="spiro" />
    <inkscape:path-effect
       is_visible="true"
       id="path-effect4141-3-4-6-8-9-5-4-6-5-50-4"
       effect="spiro" />
    <inkscape:path-effect
       is_visible="true"
       id="path-effect4141-3-4-6-8-9-5-4-6-5-5-2"
       effect="spiro" />
  </defs>
  <sodipodi:namedview
     inkscape:window-height="851"
     inkscape:window-width="1600"
     inkscape:pageshadow="2"
     inkscape:pageopacity="0.0"
     borderopacity="1.0"
     bordercolor="#666666"
     pagecolor="#ffffff"
     id="base"
     showgrid="true"
     showguides="true"
     inkscape:guide-bbox="true"
     inkscape:zoom="0.227"
     inkscape:cx="1786.3436"
     inkscape:cy="-197.6583"
     inkscape:window-x="1599"
     inkscape:window-y="-1"
     inkscape:current-layer="layer1"
     inkscape:window-maximized="1">
    <sodipodi:guide
       orientation="horizontal"
       position="0,600"
       id="guide5596" />
    <inkscape:grid
       type="xygrid"
       id="grid3769"
       empspacing="3"
       visible="true"
       enabled="true"
       snapvisiblegridlinesonly="true"
       spacingx="4px"
       units="px"
       dotted="true"
       spacingy="4px" />
    <sodipodi:guide
       orientation="0,1"
       position="-1040,1600"
       id="guide2985" />
  </sodipodi:namedview>
  <metadata
     id="metadata5594">
    <rdf:RDF>
      <cc:Work
         rdf:about="">
        <dc:format>image/svg+xml</dc:format>
        <dc:type
           rdf:resource="http://purl.org/dc/dcmitype/StillImage" />
        <dc:title />
      </cc:Work>
    </rdf:RDF>
  </metadata>
  <g
     inkscape:label="Layer 1"
     inkscape:groupmode="layer"
     id="layer1"
     transform="translate(0,1048)">
    <path
       sodipodi:nodetypes="caaaaaaasccsaaaaacccaaaaac"
       inkscape:connector-curvature="0"
       inkscape:original-d="m 2410.3416,74.041507 c 0,0 -185.1849,211.308473 -107.6539,268.791683 81.4806,60.41158 267.2117,-93.37714 237.4228,-190.33733 -34.8744,-113.513281 -238.3389,-49.86299 -355.1206,-28.33324 -197.0441,36.32686 -342.9134,272.86412 -542.7505,258.33333 -100.9029,-7.33697 -256.6261,-67.63475 -252.2965,-168.71136 4.1016,-95.75284 164.1894,-99.94416 251.7995,-138.801542 294.9449,-130.815793 818.756,-6.841177 915.3794,-314.687248 35.5145,-113.1506 -92.0891,-274.58587 -210.0113,-287.18337 -164.6209,-17.58627 -356.0811,133.12715 -357.0234,338.14122 l -1.0712,115.778796 2.1951,-135.460776 c 1.4705,-90.74231 -118.1973,-312.40723 -257.3642,-336.76327 -144.2723,-25.24954 -346.9731,93.03298 -369.5157,237.75294 -16.0129,102.80028 94.6709,243.302476 198.6788,240.718746 90.3885,-2.245403 177.6409,-128.448676 162.0626,-217.512926 -26.9235,-153.92591 -238.6152,-292.86893 -391.0577,-258.52737 -199.6677,44.98023 -317.7115,295.2559 -317.5312,525.535501 l 0.2704,345.342399 -1.6867,-341.734499 C 1013.7304,-284.47201 849.78724,-524.34665 632.79326,-543.73769 381.50538,-566.19331 95.483205,-270.24163 88.268694,-18.055583 83.602647,145.04791 270.77689,406.53372 420.43179,341.51132 c 157.5107,-68.4356 124.233,-457.6467 -38.0632,-513.7981 C 269.09749,-211.47648 144.11796,-26.565183 139.87652,93.218717 136.22599,196.31462 331.89949,335.92402 331.89949,335.92402"
       inkscape:path-effect="#path-effect4141-3-4-6-8-9-5-4-6-5-5"
       id="path4139-1-0-4-2-2-4-1-2-0"
       d="m 2410.3416,74.041507 c -30.9507,-0.05389 -61.8539,9.375624 -87.5021,26.699523 -25.6482,17.3239 -45.9354,42.47065 -57.4428,71.20261 -11.5075,28.73195 -14.1877,60.93047 -7.589,91.16959 6.5987,30.23911 22.449,58.39395 44.88,79.71996 26.7666,25.44805 62.8486,40.89814 99.7421,42.60826 36.8935,1.71012 74.2827,-10.3549 103.1566,-33.38423 28.8739,-23.02934 48.9638,-56.83535 55.292,-93.22225 6.3282,-36.3869 -1.184,-75.02583 -20.7679,-106.33911 -17.325,-27.70144 -43.6023,-49.34156 -73.2651,-63.040045 -29.6627,-13.698483 -62.5956,-19.657586 -95.2679,-19.443641 -65.3447,0.427888 -128.1694,24.868779 -186.5876,54.150446 -90.182,45.20299 -173.6765,102.53368 -261.3307,152.46204 -87.6542,49.92836 -181.3665,93.00931 -281.4198,105.87129 -58.1124,7.47042 -119.8274,3.88309 -171.035,-24.58849 -25.6038,-14.23579 -48.0387,-34.62684 -62.9896,-59.81974 -14.951,-25.1929 -22.1346,-55.26363 -18.2719,-84.30313 3.4696,-26.08422 15.6999,-50.65922 33.0577,-70.43627 17.3578,-19.77706 39.6828,-34.88052 63.7979,-45.410881 48.2301,-21.060714 102.3242,-23.884624 154.9439,-22.954391 181.4984,3.208605 363.3812,47.212472 543.0072,21.012287 89.8131,-13.100092 178.5605,-44.698872 248.7916,-102.193149 35.1155,-28.747138 65.2737,-63.780588 87.0001,-103.623566 21.7263,-39.84298 34.9011,-84.53221 36.5805,-129.88282 2.3572,-63.65411 -18.392,-127.67239 -56.4097,-178.7807 -38.0177,-51.10831 -92.8747,-89.17637 -153.6016,-108.40267 -47.0335,-14.89096 -97.8918,-18.57402 -146.1114,-8.14473 -48.2195,10.4293 -93.2883,35.19673 -127.6429,70.60374 -34.3545,35.407 -57.4875,80.86541 -69.5637,128.69906 -12.0762,47.83366 -13.249,97.65075 -13.7054,146.98315 l -1.0712,115.778796 2.1951,-135.460776 c 0.6433,-39.69742 0.7494,-79.70548 -6.8683,-118.67046 -7.6177,-38.96498 -22.979,-76.61213 -46.5389,-108.5688 -23.56,-31.95668 -54.9789,-57.89716 -90.2958,-76.03593 -35.3169,-18.13877 -74.259,-28.61329 -113.6612,-33.48808 -80.3396,-9.93951 -164.6469,3.71668 -234.0636,45.3647 -69.4167,41.64802 -122.4048,112.49451 -135.4521,192.38824 -9.7078,59.44484 3.5138,123.35665 40.4794,170.9116 18.4828,23.77748 42.6104,43.245109 70.0646,55.62445 27.4542,12.37934 58.2103,17.575272 88.1348,14.182696 49.5444,-5.616912 95.0962,-35.045596 123.8255,-75.798766 28.7293,-40.75317 41.1339,-91.93662 38.2371,-141.71416 -2.5807,-44.34658 -16.9406,-87.83836 -40.4653,-125.51953 -23.5246,-37.68117 -56.1027,-69.54025 -93.798,-93.04224 -75.3906,-47.00397 -170.0646,-59.22861 -256.7944,-39.9656 -109.4174,24.30201 -205.732,99.41855 -258.446,198.33253 -26.3571,49.45699 -42.406,104.01726 -50.5896,159.45836 -8.1837,55.4411 -8.5395,111.702795 -8.4956,167.744611 l 0.2704,345.342399 -1.6867,-341.734499 c -0.3,-60.78763 -1.2233,-121.921001 -12.4017,-181.672721 -11.17844,-59.75173 -32.66082,-117.90975 -66.21759,-168.59672 -33.55677,-50.68697 -78.90937,-93.4892 -131.41768,-124.11767 -52.50832,-30.62846 -111.80978,-49.11798 -172.23707,-55.73377 -142.40636,-15.59114 -290.24635,36.9719 -392.70283,137.09844 -102.45648,100.12654 -158.272838,245.47169 -151.821736,388.583667 4.096397,90.874939 33.378076,182.256433 92.266716,251.590143 29.44432,34.66685 66.01223,63.46436 107.27815,82.59242 41.26592,19.12805 87.23762,28.44351 132.61823,25.38434 67.26174,-4.53421 132.17957,-37.04043 176.20878,-88.09069 44.02921,-51.05025 66.64255,-119.97989 61.54809,-187.201515 -5.09447,-67.2216222 -37.79972,-131.911294 -88.82325,-175.971475 -51.02354,-44.06018 -119.72963,-66.98699 -186.99682,-62.53442 -66.06906,4.37326 -130.05012,35.06927 -174.72904,83.936849 -44.67892,48.867575 -69.5394,115.378844 -67.76303,181.568648 1.48379,55.287853 21.31096,109.929333 55.6276,153.303473 34.31665,43.37414 82.93162,75.23935 136.39537,89.40183"
       style="fill:none;fill-rule:evenodd;stroke:#000000;stroke-width:140;stroke-linecap:round;stroke-linejoin:round;stroke-miterlimit:4;stroke-dasharray:none;stroke-opacity:1" />
    <path
       style="color:#000000;font-style:normal;font-variant:normal;font-weight:normal;font-stretch:normal;font-size:medium;line-height:normal;font-family:sans-serif;text-indent:0;text-align:start;text-decoration:none;text-decoration-line:none;text-decoration-style:solid;text-decoration-color:#000000;letter-spacing:normal;word-spacing:normal;text-transform:none;direction:ltr;block-progression:tb;writing-mode:lr-tb;baseline-shift:baseline;text-anchor:start;white-space:normal;clip-rule:nonzero;display:inline;overflow:visible;visibility:visible;opacity:1;isolation:auto;mix-blend-mode:normal;color-interpolation:sRGB;color-interpolation-filters:linearRGB;solid-color:#000000;solid-opacity:1;fill:#000000;fill-opacity:1;fill-rule:evenodd;stroke:none;stroke-width:140;stroke-linecap:round;stroke-linejoin:round;stroke-miterlimit:4;stroke-dasharray:none;stroke-dashoffset:0;stroke-opacity:1;color-rendering:auto;image-rendering:auto;shape-rendering:auto;text-rendering:auto;enable-background:accumulate"
       d="m 1440.7168,1178.9805 c -33.2214,-0.2355 -66.4199,3.3484 -98.7246,10.5234 -130.7344,29.0366 -242.6048,116.5817 -305.0449,233.7461 -0.5894,1.106 -1.0977,2.2385 -1.6778,3.3477 -5.449,-9.6501 -11.1258,-19.2032 -17.2988,-28.5274 -39.56955,-59.7692 -92.6434,-109.8489 -154.51562,-145.9394 -61.73121,-36.0083 -130.36052,-57.2414 -199.88867,-64.8536 -164.53643,-18.014 -331.47447,41.5258 -449.2461,156.6192 -117.585527,114.9116 -180.191233,278.4113 -172.826169,441.7988 4.677099,103.7572 37.718978,210.0161 108.841799,293.7539 12.15422,14.31 25.40853,27.7564 39.53711,40.3067 40.67578,40.3719 91.49664,69.663 147.25586,84.4336 a 70.007,70.007 0 0 0 25.00586,2.2421 c 28.0968,5.4818 57.03337,7.4831 86.16015,5.5196 86.64625,-5.841 167.85145,-46.5219 224.50781,-112.2129 56.64065,-65.6727 84.88636,-151.8275 78.33985,-238.209 -6.54472,-86.3577 -47.39641,-167.1213 -112.87305,-223.6621 a 70.007,70.007 0 0 0 0,-0 c -65.45872,-56.5252 -151.16591,-85.1064 -237.36914,-79.4004 -76.80829,5.0842 -149.61028,37.1642 -205.24609,89.8692 20.15449,-77.2091 60.35586,-149.4279 116.51562,-204.3106 87.14133,-85.1596 215.88387,-130.7464 336.16016,-117.5781 51.32642,5.6194 101.29857,21.3665 144.58398,46.6152 43.1444,25.1665 80.77633,60.6902 108.32032,102.295 27.5423,41.6021 46.07208,90.9384 55.77929,142.8261 9.7195,51.9535 10.91134,108.8361 11.20899,169.1465 l 1.68554,341.7344 a 70.007,70.007 0 0 0 140,-0.4004 l 0,-0.291 0,-0.055 -0.2695,-344.9961 c -0.044,-55.7088 0.5166,-108.5057 7.7441,-157.4687 7.2218,-48.9253 21.2608,-95.7497 43.1152,-136.7578 42.9879,-80.6637 123.7473,-143.3526 211.8477,-162.92 6.4081,-1.4232 12.886,-2.5512 19.3867,-3.5371 -37.1765,45.083 -63.5432,99.3014 -73.332,159.2422 -12.6235,77.2991 3.6441,159.9914 54.2969,225.1543 25.2363,32.4653 58.0452,59.1106 96.5586,76.4766 38.6216,17.4148 81.5846,24.8224 124.7929,19.9238 71.9658,-8.1588 133.4919,-48.7594 173.1543,-105.0215 39.1652,-55.5567 54.6381,-121.9869 50.9063,-186.1133 -3.3014,-56.7308 -21.4076,-111.1707 -50.9688,-158.5215 l 0,-0 c -6.2955,-10.084 -13.1736,-19.7163 -20.3984,-29.041 0.5533,0.066 1.1111,0.074 1.664,0.1426 32.8537,4.0646 63.8185,12.6968 90.2754,26.2851 26.1989,13.4558 49.2759,32.7141 65.9336,55.3086 16.6018,22.5187 28.3349,50.5545 34.1817,80.4609 4.0642,20.7886 5.392,44.1556 5.666,69.459 -0.827,18.8546 -1.0557,37.1909 -1.2188,54.8145 l -1.0703,115.7793 a 70.007,70.007 0 0 0 139.9864,1.7812 l 0.01,-0.4863 2.1875,-134.9746 c 0.165,-10.1843 0.3178,-20.6703 0.3125,-31.418 1.3856,-28.8433 4.0687,-55.8014 10.1484,-79.8828 9.4593,-37.4682 27.4925,-71.9001 51.9316,-97.0879 a 70.007,70.007 0 0 0 0,0 c 24.409,-25.1568 57.5541,-43.4379 92.2012,-50.9316 34.9513,-7.5596 73.8291,-5.0477 110.1855,6.4629 46.943,14.8623 89.8579,44.8542 118.5645,83.4453 28.5899,38.4343 44.3538,87.673 42.623,134.4121 -1.2413,33.5207 -11.1979,67.9908 -28.0859,98.9609 -16.9483,31.0809 -41.1383,59.4375 -69.8848,82.9707 -57.5929,47.148 -134.131,75.3615 -214.5527,87.0918 -161.8711,23.6105 -339.6851,-18.3404 -531.666,-21.7343 -55.9707,-0.9895 -120.4769,0.9689 -184.1953,28.7929 -32.0905,14.0131 -63.0629,34.5243 -88.3946,63.3867 -25.5685,29.1322 -44.2891,65.6803 -49.8359,107.3809 -6.1912,46.5448 5.0576,91.5042 27.4629,129.2578 22.1755,37.3665 53.9324,65.6813 89.1699,85.2734 69.9018,38.8656 146.8372,41.4688 213.9766,32.8379 114.1766,-14.6775 215.8894,-62.4973 307.1406,-114.4746 80.1405,-45.6485 153.6693,-94.8588 227.7187,-134.8672 -3.0523,25.0268 -2.0505,50.5028 3.3946,75.4551 9.6471,44.2091 32.2433,84.3491 65.0371,115.5274 39.2796,37.3447 90.4678,59.2853 144.7324,61.8007 a 70.007,70.007 0 0 0 0,0 c 54.2906,2.5165 107.4584,-14.6176 150.0449,-48.5839 42.6071,-33.9827 71.2501,-82.1379 80.6093,-135.9532 9.3639,-53.8417 -1.3407,-109.0119 -30.3847,-155.4511 -24.6074,-39.3454 -59.8633,-68.3839 -98.9961,-87.3301 31.9889,-29.9482 59.9804,-64.8274 81.5351,-104.3555 l 0,-0 c 26.5643,-48.7155 42.9588,-103.6249 45.0762,-160.8047 2.9836,-80.5692 -22.7518,-159.3662 -70.1973,-223.1485 -47.3288,-63.6255 -114.1278,-109.769 -188.6386,-133.3593 -57.7106,-18.2715 -120.5492,-23.1272 -182.0371,-9.8282 -61.792,13.3649 -118.784,44.6202 -163.084,90.2774 -10.804,11.135 -20.6189,22.935 -29.5488,35.2304 -30.3891,-40.9613 -69.9163,-73.3447 -114.0801,-96.0273 -44.1769,-22.6893 -91.0961,-35.0064 -137.0469,-40.6914 -63.2545,-7.8258 -129.0151,-3.3454 -191.1953,15.9238 -43.1364,-15.0738 -88.4199,-22.5599 -133.6836,-22.8808 z m 130.5996,174.9453 c 1.8718,1.0922 3.7793,2.1358 5.6133,3.2793 28.9599,18.0557 53.9164,42.621 71.4531,70.7109 a 70.007,70.007 0 0 0 0,0 c 17.4877,28.0113 28.1029,60.5538 29.9629,92.5156 2.0618,35.4286 -7.2749,71.3648 -25.5684,97.3144 -17.7961,25.2444 -47.375,43.5013 -74.498,46.5762 -16.6407,1.8866 -35.1898,-1.0976 -51.4766,-8.4414 -16.3946,-7.3924 -31.8411,-19.6823 -43.5703,-34.7715 -23.2784,-29.9468 -33.4541,-75.0774 -26.6621,-116.6679 9.2494,-56.6375 49.5192,-111.9311 102.3809,-143.6465 4.0298,-2.4178 8.1713,-4.6819 12.3652,-6.8711 z M 428.39258,1697.9082 c 42.77478,1.5947 86.36217,18.2743 118.37695,45.9199 36.57042,31.5796 61.12922,80.1938 64.77344,128.2793 3.6424,48.0617 -13.33811,99.7676 -44.75586,136.1953 -31.40206,36.4096 -80.03294,60.7394 -127.91016,63.9668 -32.70079,2.2045 -67.33412,-4.62 -98.4707,-19.0527 -18.72302,-8.6787 -36.52745,-20.2635 -52.83203,-34.0195 -4.95338,-4.9532 -9.71598,-10.0684 -14.01953,-15.5078 -24.70782,-31.2293 -39.48051,-71.9431 -40.54883,-111.75 -1.27274,-47.4239 17.38812,-97.3902 49.44922,-132.4571 32.07292,-35.0797 80.19035,-58.178 127.6914,-61.3222 6.0414,-0.3999 12.13541,-0.4798 18.2461,-0.252 z m 2004.78712,246.748 c 9.7598,2.1624 19.0656,5.0677 27.4707,8.9493 a 70.007,70.007 0 0 0 0,0 c 18.4732,8.531 34.1213,21.9894 43.2637,36.6074 10.124,16.1874 14.4449,38.2944 11.1524,57.2266 -3.2972,18.9584 -14.834,38.4162 -29.9746,50.4921 a 70.007,70.007 0 0 0 -0,0 c -15.1608,12.0921 -36.7698,19.0868 -56.2656,18.1836 -19.5225,-0.9049 -40.4984,-9.8626 -54.752,-23.414 -12.0682,-11.4738 -21.1724,-27.6428 -24.7226,-43.9121 -3.5503,-16.2692 -2.0096,-34.7624 4.1816,-50.2207 6.1911,-15.4582 17.8415,-29.9002 31.6406,-39.2207 13.7465,-9.285 31.4097,-14.6788 48.0059,-14.6915 z m -787.7246,0.8145 c 5.9736,-0.046 12.0465,-0.01 18.2051,0.1 102.5796,1.8135 210.5683,19.0334 323.1386,26.3731 -25.0488,15.3254 -49.9041,30.3705 -74.6308,44.455 -84.0572,47.8796 -169.7693,86.2212 -255.6992,97.2676 -49.0854,6.31 -95.5802,1.7378 -128.0938,-16.3398 -15.9701,-8.8795 -29.0821,-21.344 -36.8086,-34.3633 -7.4967,-12.6322 -10.6143,-27.8154 -9.0801,-39.3496 1.3924,-10.4678 7.1322,-23.0682 16.2793,-33.4903 9.3839,-10.6918 23.0597,-20.3878 39.1992,-27.4355 28.6492,-12.5102 65.6751,-16.8986 107.4903,-17.2168 z"
       id="path4139-1-0-4-2-2-4-1-2-0-5"
       inkscape:connector-curvature="0" />
  </g>
</svg>
