<?xml version="1.0" encoding="UTF-8" standalone="no"?>
<!-- Created with Inkscape (http://www.inkscape.org/) -->

<svg
   xmlns:dc="http://purl.org/dc/elements/1.1/"
   xmlns:cc="http://creativecommons.org/ns#"
   xmlns:rdf="http://www.w3.org/1999/02/22-rdf-syntax-ns#"
   xmlns:svg="http://www.w3.org/2000/svg"
   xmlns="http://www.w3.org/2000/svg"
   xmlns:sodipodi="http://sodipodi.sourceforge.net/DTD/sodipodi-0.dtd"
   xmlns:inkscape="http://www.inkscape.org/namespaces/inkscape"
   width="2000"
   height="2048"
   id="svg2992"
   version="1.1"
   inkscape:version="0.91 r13725"
   sodipodi:docname="ഞ്ഞ.svg">
  <defs
     id="defs5498">
    <inkscape:path-effect
       effect="spiro"
       id="path-effect3891"
       is_visible="true" />
    <inkscape:path-effect
       effect="spiro"
       id="path-effect4141-3-4-6-8"
       is_visible="true" />
    <inkscape:path-effect
       effect="spiro"
       id="path-effect4141-3-4-6-8-9"
       is_visible="true" />
    <inkscape:path-effect
       effect="spiro"
       id="path-effect4141-3-4-6-8-9-5"
       is_visible="true" />
    <inkscape:path-effect
       is_visible="true"
       id="path-effect3782"
       effect="spiro" />
    <inkscape:path-effect
       is_visible="true"
       id="path-effect3846"
       effect="spiro" />
    <inkscape:path-effect
       is_visible="true"
       id="path-effect3801"
       effect="spiro" />
    <inkscape:path-effect
       is_visible="true"
       id="path-effect4918"
       effect="spiro" />
    <inkscape:path-effect
       is_visible="true"
       id="path-effect4372-5-8-0"
       effect="spiro" />
    <inkscape:path-effect
       is_visible="true"
       id="path-effect4372-5-8-0-0"
       effect="spiro" />
    <inkscape:path-effect
       effect="spiro"
       id="path-effect4141-3-4-6-8-9-5-3"
       is_visible="true" />
    <inkscape:path-effect
       effect="spiro"
       id="path-effect4141-3-4-6-8-9-5-9"
       is_visible="true" />
    <inkscape:path-effect
       effect="spiro"
       id="path-effect4141-3-4-6-8-9-5-9-8"
       is_visible="true" />
  </defs>
  <sodipodi:namedview
     inkscape:window-height="851"
     inkscape:window-width="1600"
     inkscape:pageshadow="2"
     inkscape:pageopacity="0.0"
     borderopacity="1.0"
     bordercolor="#666666"
     pagecolor="#ffffff"
     id="base"
     showgrid="true"
     showguides="true"
     inkscape:guide-bbox="true"
     inkscape:zoom="0.227"
     inkscape:cx="1837.6772"
     inkscape:cy="545.81663"
     inkscape:window-x="1599"
     inkscape:window-y="-1"
     inkscape:current-layer="layer1"
     inkscape:window-maximized="1">
    <inkscape:grid
       type="xygrid"
       id="grid3769"
       empspacing="3"
       visible="true"
       enabled="true"
       snapvisiblegridlinesonly="true"
       spacingx="4px"
       units="px"
       dotted="true"
       spacingy="4px" />
    <sodipodi:guide
       orientation="0,1"
       position="-1040,1600"
       id="guide2985" />
    <sodipodi:guide
       orientation="0,1"
       position="-480,576"
       id="guide3939" />
  </sodipodi:namedview>
  <metadata
     id="metadata5594">
    <rdf:RDF>
      <cc:Work
         rdf:about="">
        <dc:format>image/svg+xml</dc:format>
        <dc:type
           rdf:resource="http://purl.org/dc/dcmitype/StillImage" />
        <dc:title />
      </cc:Work>
    </rdf:RDF>
  </metadata>
  <g
     inkscape:label="Layer 1"
     inkscape:groupmode="layer"
     id="layer1"
     transform="translate(0,1048)">
    <g
       id="layer1-0"
       inkscape:label="Layer 1"
       transform="translate(-2634.3901,235.93018)" />
    <path
       style="fill:none;fill-rule:evenodd;stroke:#000000;stroke-width:133.17449951;stroke-linecap:round;stroke-linejoin:round;stroke-miterlimit:4;stroke-dasharray:none;stroke-opacity:1"
       d="m 3472.3514,365.49867 c 90.0975,-46.96812 164.9524,-122.64203 210.9374,-213.24523 45.9849,-90.60319 62.8768,-195.695856 47.6002,-296.14577 -15.2765,-100.44991 -62.6472,-195.76946 -133.4883,-268.60562 -70.841,-72.83617 -164.8084,-122.83539 -264.7954,-140.89525 -145.168,-26.22055 -300.1427,16.60622 -415.0236,109.14616 -114.8809,92.53993 -189.0992,232.29025 -207.3915,378.66871 -11.8695,94.981902 -0.1573,195.28167 48.1624,277.91127 24.1599,41.3148 57.2694,77.63903 97.3754,103.7565 40.106,26.11747 87.2679,41.80139 135.1177,42.80713 49.0845,1.0317 98.0793,-13.41318 139.9533,-39.04349 41.8741,-25.63031 76.6838,-62.19094 102.1783,-104.14787 50.9888,-83.91385 63.8167,-186.929423 51.9828,-284.40434 -16.244,-133.80132 -78.4708,-262.58472 -177.4375,-354.08475 -98.9667,-91.50003 -234.6428,-143.80182 -369.2256,-136.44374 -56.9782,3.11518 -113.6402,16.76096 -164.5722,42.49333 -50.932,25.73236 -95.7243,63.66886 -128.9128,110.08804 -33.1886,46.41917 -54.3909,100.84905 -64.8218,156.95091 -10.4309,56.10185 -10.1534,113.57236 -9.1888,170.62751 l 7.432,439.6005 -7.502,-427.9085 c -1.0741,-61.26806 -2.8883,-122.96031 -16.1892,-182.77682 -13.3009,-59.81651 -38.1621,-117.44342 -75.7527,-165.8364 -37.5905,-48.39298 -87.4999,-87.04397 -143.5618,-111.78232 -56.062,-24.73835 -117.8274,-35.68852 -179.0924,-34.45451 -129.7576,2.6136 -256.5106,60.51765 -347.472,153.09132 -90.9614,92.57367 -146.211,218.1833 -158.6086,347.37373 -9.0869,94.690737 5.1524,193.98206 55.2349,274.85633 25.0413,40.43713 58.8311,75.70408 99.3199,100.66182 40.4887,24.95775 87.7314,39.37829 135.2939,39.18285 46.0864,-0.18938 91.7736,-14.08272 131.2286,-37.90077 39.455,-23.81805 72.7292,-57.36099 97.9409,-95.94039 50.4232,-77.1588 67.7807,-172.446381 63.3238,-264.51224 -6.7915,-140.29172 -64.1092,-279.12919 -164.6705,-377.18697 -100.5612,-98.05779 -244.6822,-152.30863 -384.2238,-136.30763 -58.2105,6.6749 -115.1878,25.23248 -165.3916,55.44157 -50.2038,30.2091 -93.3059,72.07477 -125.1361,121.26679 -31.8302,49.19202 -52.1584,105.33283 -62.8568,162.93976 -10.6984,57.60692 -11.8145,116.50714 -12.3645,175.09648 l -3.73,397.3424 4.5166,-395.9371 c 0.702,-61.53679 0.8006,-123.45569 -9.8167,-184.07368 -10.6173,-60.618 -32.052,-119.75007 -66.4605,-170.77283 -34.4086,-51.02276 -81.56054,-93.4615 -136.21566,-121.74732 -54.65512,-28.28581 -116.41393,-42.39001 -177.95212,-41.82372 -112.04095,1.03103 -221.11282,50.86581 -302.16234,128.22997 -81.04953,77.36416 -134.97204,180.7103 -161.82148,289.49148 -26.63818,107.925246 -26.56577,226.041277 21.92935,326.06965 24.24756,50.01418 60.4297,94.59809 106.1469,126.20981 45.7172,31.61171 101.07695,49.8511 156.64647,48.67164 78.65951,-1.66954 155.19541,-43.79933 199.43464,-108.86081 44.23923,-65.06147 55.35239,-151.2541 29.92456,-225.70899 -21.44338,-62.788059 -68.06537,-116.577651 -127.17098,-146.72206 -59.10561,-30.14442 -130.02132,-36.30015 -193.43703,-16.79102 -63.41571,19.50913 -118.6088,64.460817 -150.55038,122.614874 -31.94158,58.154057 -40.26767,128.847806 -22.71111,192.831606"
       id="path4139-1-0-4-2-2-4-4"
       inkscape:path-effect="#path-effect4141-3-4-6-8-9-5-9"
       inkscape:original-d="m 3472.3514,365.49867 c 0,0 148.2515,-804.67582 -139.7461,-918.89187 -245.0336,-97.17712 -580.1782,227.62085 -622.4151,487.81487 -27.1788,167.431 111.04,422.92144 280.6555,424.4749 172.9864,1.58433 314.5622,-255.81472 294.1144,-427.5957 -28.9384,-243.10991 -302.8973,-513.28978 -546.6631,-490.52849 -200.6784,18.73806 -371.3882,249.91299 -367.4956,480.15979 l 7.432,439.6005 -7.502,-427.9085 c -4.6989,-268.02328 -199.6402,-484.78321 -414.5961,-494.85005 -236.989,-11.0987 -484.6428,264.18682 -506.0806,500.46505 -15.2393,167.96132 121.2089,412.73304 289.8487,414.701 164.7235,1.92226 307.7389,-234.32566 292.4933,-398.3534 -23.1872,-249.47118 -299.6113,-538.62452 -548.8943,-513.4946 -209.4233,21.11171 -364.7589,287.3439 -365.749,514.7446 l -3.73,397.3424 4.5166,-395.9371 c 3.0896,-270.84093 -175.11015,-497.64834 -390.44498,-518.41755 -207.14452,-19.97925 -430.72747,212.29011 -463.98382,417.72145 -30.69379,189.601937 92.82227,492.87515 284.72272,500.9511 135.09326,5.68527 309.47157,-225.64543 229.3592,-334.5698 -102.04896,-138.75034 -543.0815,146.8178 -493.8695,151.9334"
       inkscape:connector-curvature="0"
       sodipodi:nodetypes="caaaaascsaaaaascsaaaac" />
    <path
       style="color:#000000;font-style:normal;font-variant:normal;font-weight:normal;font-stretch:normal;font-size:medium;line-height:normal;font-family:sans-serif;text-indent:0;text-align:start;text-decoration:none;text-decoration-line:none;text-decoration-style:solid;text-decoration-color:#000000;letter-spacing:normal;word-spacing:normal;text-transform:none;direction:ltr;block-progression:tb;writing-mode:lr-tb;baseline-shift:baseline;text-anchor:start;white-space:normal;clip-rule:nonzero;display:inline;overflow:visible;visibility:visible;opacity:1;isolation:auto;mix-blend-mode:normal;color-interpolation:sRGB;color-interpolation-filters:linearRGB;solid-color:#000000;solid-opacity:1;fill:#000000;fill-opacity:1;fill-rule:evenodd;stroke:none;stroke-width:133.17449951;stroke-linecap:round;stroke-linejoin:round;stroke-miterlimit:4;stroke-dasharray:none;stroke-dashoffset:0;stroke-opacity:1;color-rendering:auto;image-rendering:auto;shape-rendering:auto;text-rendering:auto;enable-background:accumulate"
       d="m 1565.6484,696.83984 c -72.2228,1.45473 -142.8314,17.70911 -208.1953,45.9375 -84.2779,-36.80816 -177.5367,-52.87999 -270.6816,-42.19922 -67.2022,7.70597 -133.1848,29.06597 -192.13673,64.53907 -59.06463,35.5409 -109.34754,84.40505 -146.71094,142.14843 -5.2925,8.17931 -10.22283,16.52143 -14.94922,24.94922 C 725.49814,918.0939 717.37815,904.23032 708.32422,890.80469 667.71885,830.59293 612.42449,780.7469 547.50781,747.15039 482.69242,713.6063 410.45898,697.21523 338.33789,697.87891 206.95214,699.08795 83.112212,756.42268 -9.1894531,844.52734 -100.99315,932.1567 -160.21315,1046.8362 -189.68164,1166.2285 c -29.35339,118.9259 -30.80021,252.5538 26.66016,371.0742 28.81461,59.4344 71.904575,113.01 128.193355,151.9317 56.5452,39.0988 124.861485,61.9831 195.929685,60.4746 101.50328,-2.1544 196.28286,-54.4534 253.08594,-137.9922 56.69948,-83.3865 70.29837,-189.7277 37.87305,-284.6719 -27.22457,-79.7159 -84.89099,-146.2481 -159.93164,-184.5195 -75.04065,-38.2714 -162.75486,-45.884 -243.267582,-21.1152 -37.523028,11.5435 -72.330825,29.8559 -102.96875,53.5175 C -28.251991,1085.5511 18.043211,1002.637 82.763672,940.85938 152.56105,874.23572 246.86635,831.89989 339.5625,831.04688 c 50.95529,-0.46891 102.23953,11.3494 146.73438,34.37695 44.39356,22.97513 83.40159,58.00608 111.61328,99.83984 28.24169,41.87823 46.81872,92.16603 56.07812,145.03123 6.59826,37.6718 8.53417,77.8722 8.9043,119.8789 -0.44888,17.1436 -0.71346,34.0918 -0.86914,50.6758 l -3.72852,397.209 -0.002,0.1348 a 66.593908,66.593908 0 0 0 133.16797,1.3847 l 0.002,-0.1347 0.002,-0.2051 4.51368,-395.5977 c 0.19517,-17.1096 0.29208,-34.5911 0.1914,-52.2851 1.1621,-39.5111 3.68235,-77.3489 10.26953,-112.8184 9.35158,-50.3548 26.99307,-98.2755 53.29493,-138.92382 26.29692,-40.64066 62.21947,-75.50942 103.5625,-100.38672 41.45572,-24.9451 89.42762,-40.69796 138.64652,-46.34179 34.9794,-4.01104 70.7146,-2.55786 105.955,3.53125 -12.3907,10.6565 -24.4126,21.75238 -35.8769,33.41992 -102.6187,104.4374 -163.5921,243.85136 -177.39455,387.68166 -10.14157,105.6809 4.95439,219.462 64.90625,316.2734 30.0337,48.499 70.7362,91.3119 120.9902,122.2891 50.4312,31.0863 109.3055,49.3374 170.5078,49.0859 59.287,-0.2436 116.2502,-17.8319 165.3672,-47.4824 48.9544,-29.5526 89.0498,-70.2768 119.2696,-116.5195 60.3284,-92.3161 79.0597,-201.536 74.0918,-304.1582 -7.5639,-156.2455 -70.6921,-310.47928 -184.6914,-421.64067 -6.6311,-6.46601 -13.4596,-12.72303 -20.4004,-18.84765 21.09,-3.85877 42.3847,-6.10268 63.6621,-6.53125 52.4347,-1.05615 104.6958,8.4251 150.8711,28.80078 45.9795,20.28932 87.2462,52.3029 117.8574,91.71094 30.6057,39.40088 51.8862,87.94105 63.3379,139.44145 11.4737,51.5992 13.5485,108.7527 14.6133,169.4902 l 7.4668,425.8965 0.033,1.9707 0,0 0,0.041 a 66.593908,66.593908 0 0 0 133.1543,-2.291 l -7.4316,-439.6016 c -0.9555,-56.5154 -0.8221,-109.4717 8.0761,-157.3301 8.8816,-47.7687 26.8545,-93.09403 53.5235,-130.3945 26.6854,-37.32362 63.3272,-68.44295 104.7734,-89.38281 41.6473,-21.04147 89.3826,-32.77155 138.1797,-35.43945 38.9948,-2.13198 78.4775,1.8416 117.0195,10.95117 -119.6501,103.86901 -195.3483,252.00919 -214.8359,407.95309 -13.2531,106.0535 -1.05,220.9317 56.7559,319.7832 28.9566,49.5176 68.7982,93.5624 118.5195,125.9414 49.8941,32.4916 108.5831,52.2881 170.0547,53.5801 63.0704,1.3257 124.017,-16.934 176.1152,-48.8222 51.9078,-31.7718 93.7743,-76.0894 124.3223,-126.3633 60.9739,-100.3464 74.3819,-218.2457 61.1777,-327.0078 -18.0799,-148.9237 -86.7172,-291.75374 -198.3359,-394.95121 -3.5865,-3.3159 -7.3269,-6.45402 -10.9942,-9.67773 59.0023,-14.24289 120.385,-17.10594 179.0391,-6.51172 86.0134,15.53592 167.9557,59.13588 228.8965,121.79297 60.9407,62.65699 102.251,145.77979 115.3926,232.19139 13.1416,86.4116 -1.5901,178.057 -41.1485,255.9981 -39.5584,77.941 -104.8338,143.9318 -182.3398,184.3359 a 66.593908,66.593908 0 1 0 61.5605,118.0918 c 102.689,-53.5321 187.1236,-138.889 239.5352,-242.1543 52.4116,-103.2653 71.4643,-221.8067 54.0527,-336.2949 -17.4114,-114.4882 -70.8446,-222.00425 -151.5859,-305.01956 -80.7414,-83.01525 -186.7328,-139.4123 -300.6934,-159.99609 -116.888,-21.11257 -237.2712,-3.25432 -343.664,45.67969 -82.5375,-38.29251 -173.8837,-57.51721 -266.1153,-52.47461 -65.1593,3.56248 -130.7462,19.12556 -190.9629,49.54883 -60.4178,30.52488 -113.3611,75.27823 -153.0527,130.79296 -9.2066,12.87681 -17.5061,26.22108 -25.1055,39.86915 -10.1648,-17.72663 -21.4333,-34.94289 -34.164,-51.33204 -44.5698,-57.37792 -103.1214,-102.66809 -169.2657,-131.85546 -65.9486,-29.10104 -137.2209,-41.5193 -207.3164,-40.10743 z m -208.6757,195.88672 c 27.149,16.52136 52.5063,35.93461 75.1211,57.98633 87.123,84.95421 138.6292,208.39451 144.6484,332.73241 3.9459,81.5096 -12.0368,162.8657 -52.5547,224.8672 -20.2036,30.9154 -46.6581,57.2762 -76.6133,75.3594 -29.7926,17.9851 -64.2046,28.1851 -97.0898,28.3203 -33.9226,0.1394 -69.5339,-10.4503 -100.0801,-29.2793 -30.7235,-18.9384 -57.5995,-46.6598 -77.6484,-79.0352 -40.2132,-64.9369 -53.5967,-149.739 -45.5645,-233.4394 10.9927,-114.5506 60.5179,-226.3546 139.8223,-307.06447 26.6887,-27.16178 57.1408,-50.81299 89.959,-70.44727 z m 1254.1699,11.28516 c 22.0311,14.13882 42.8962,30.04492 62.0312,47.73633 86.3147,79.80255 142.131,194.53785 156.5391,313.21675 10.4636,86.1877 -1.7832,174.3196 -42.7871,241.8008 -20.4408,33.6401 -48.1928,62.4448 -80.0332,81.9336 -31.65,19.3723 -68.6944,30.0014 -103.793,29.2637 -34.228,-0.7194 -69.8618,-12.2899 -100.1797,-32.0332 -30.4907,-19.8559 -56.8693,-48.4583 -76.2324,-81.5703 -38.8335,-66.4077 -50.0562,-152.1307 -39.5703,-236.041 16.1908,-129.5624 82.8028,-254.2862 183.0898,-335.07035 13.0408,-10.50475 26.7422,-20.23436 40.9356,-29.23633 z M 142.42773,1240.5742 c 30.9568,-0.1675 62.21371,6.827 89.19532,20.5879 43.17057,22.0174 78.74796,63.0636 94.41015,108.9238 18.43034,53.9657 9.80439,120.0115 -21.97461,166.7481 -31.67538,46.5842 -89.96746,78.5458 -145.7832,79.7305 -40.07084,0.8505 -82.474084,-12.7446 -117.363281,-36.8692 -33.3504885,-23.0607 -61.306241,-56.3508 -80.902343,-94.3711 a 66.593908,66.593908 0 0 0 -0.617188,-2.4453 c -12.82327,-46.7336 -6.470698,-100.6786 16.859375,-143.1543 23.33003609,-42.4756 65.448801,-76.7778 111.767578,-91.0273 17.369519,-5.3436 35.834129,-8.0226 54.408199,-8.1231 z"
       id="path4139-1-0-4-2-2-4-4-8"
       inkscape:connector-curvature="0" />
  </g>
</svg>
