<?xml version="1.0" encoding="UTF-8" standalone="no"?>
<!-- Created with Inkscape (http://www.inkscape.org/) -->

<svg
   xmlns:dc="http://purl.org/dc/elements/1.1/"
   xmlns:cc="http://creativecommons.org/ns#"
   xmlns:rdf="http://www.w3.org/1999/02/22-rdf-syntax-ns#"
   xmlns:svg="http://www.w3.org/2000/svg"
   xmlns="http://www.w3.org/2000/svg"
   xmlns:sodipodi="http://sodipodi.sourceforge.net/DTD/sodipodi-0.dtd"
   xmlns:inkscape="http://www.inkscape.org/namespaces/inkscape"
   width="2000"
   height="2048"
   id="svg2992"
   version="1.1"
   inkscape:version="0.91pre2 r13516"
   sodipodi:docname="ട.svg">
  <defs
     id="defs5498">
    <inkscape:path-effect
       effect="spiro"
       id="path-effect4146"
       is_visible="true" />
    <inkscape:path-effect
       effect="spiro"
       id="path-effect4199"
       is_visible="true" />
    <inkscape:path-effect
       effect="spiro"
       id="path-effect4195"
       is_visible="true" />
    <inkscape:path-effect
       effect="spiro"
       id="path-effect4191"
       is_visible="true" />
    <inkscape:path-effect
       effect="spiro"
       id="path-effect3782"
       is_visible="true" />
    <inkscape:path-effect
       effect="spiro"
       id="path-effect3846"
       is_visible="true" />
    <inkscape:path-effect
       effect="spiro"
       id="path-effect3801"
       is_visible="true" />
    <inkscape:path-effect
       effect="spiro"
       id="path-effect4146-2"
       is_visible="true" />
    <inkscape:path-effect
       effect="spiro"
       id="path-effect4146-2-6"
       is_visible="true" />
  </defs>
  <sodipodi:namedview
     inkscape:window-height="853"
     inkscape:window-width="1600"
     inkscape:pageshadow="2"
     inkscape:pageopacity="0.0"
     borderopacity="1.0"
     bordercolor="#666666"
     pagecolor="#ffffff"
     id="base"
     showgrid="true"
     showguides="true"
     inkscape:guide-bbox="true"
     inkscape:zoom="0.25"
     inkscape:cx="189.99023"
     inkscape:cy="1046.6955"
     inkscape:window-x="1598"
     inkscape:window-y="-3"
     inkscape:current-layer="layer1"
     inkscape:window-maximized="1">
    <sodipodi:guide
       orientation="horizontal"
       position="0,600"
       id="guide5596" />
    <inkscape:grid
       type="xygrid"
       id="grid3769"
       empspacing="3"
       visible="true"
       enabled="true"
       snapvisiblegridlinesonly="true"
       spacingx="4px"
       units="px"
       dotted="true"
       spacingy="4px" />
    <sodipodi:guide
       orientation="0,1"
       position="-1040,1600"
       id="guide2985" />
  </sodipodi:namedview>
  <metadata
     id="metadata5594">
    <rdf:RDF>
      <cc:Work
         rdf:about="">
        <dc:format>image/svg+xml</dc:format>
        <dc:type
           rdf:resource="http://purl.org/dc/dcmitype/StillImage" />
        <dc:title />
      </cc:Work>
    </rdf:RDF>
  </metadata>
  <g
     inkscape:label="Layer 1"
     inkscape:groupmode="layer"
     id="layer1"
     transform="translate(0,1048)">
    <path
       style="fill:none;fill-rule:evenodd;stroke:#000000;stroke-width:140;stroke-linecap:round;stroke-linejoin:round;stroke-miterlimit:4;stroke-dasharray:none;stroke-opacity:1"
       d="m -548.528,-448.15349 c -113.25277,-75.75545 -244.42029,-124.53648 -379.6522,-141.19216 -93.016,-11.4562 -192.244,-6.62654 -273.0618,40.82549 -40.4089,23.72602 -75.1288,58.02637 -96.0983,99.93204 -20.9694,41.90567 -27.5227,91.52872 -14.6597,136.58809 11.3514,39.76407 37.2713,74.61627 69.9867,99.90933 32.7154,25.29306 71.9544,41.37644 112.3929,50.02292 80.8771,17.29295 164.7472,5.53856 246.827,-4.61263 82.19304,-10.16519 166.35046,-18.57885 247.18108,-0.53898 40.41532,9.01993 79.61834,24.75292 113.38176,48.72766 33.76342,23.974742 61.93649,56.422556 78.23056,94.4917 20.9972,49.057436 21.27516,105.926798 4.26886,156.50644 -17.00629,50.57965 -50.59855,94.86205 -92.44234,127.97718 -41.84379,33.11513 -91.6844,55.36965 -143.46188,68.27729 -51.77748,12.90763 -105.52714,16.68217 -158.86674,15.13232 -170.4266,-4.95196 -338.7997,-65.36502 -473.4979,-169.89323"
       id="path4144-0"
       inkscape:path-effect="#path-effect4146-2"
       inkscape:original-d="m -548.528,-448.15349 c 0,0 -213.5645,-163.43992 -379.6522,-141.19216 -191.4767,25.64866 -359.6355,216.88496 -383.8198,277.34562 -47.1025,117.75639 170.6817,98.62447 429.2066,145.31962 C -614.4171,-118.20589 -444,-195.14109 -444,-24.00003 -444,166.94161 -604.2212,320.34312 -834.5021,343.8932 -992,360 -1136,335.99997 -1308,173.99997"
       inkscape:connector-curvature="0"
       sodipodi:nodetypes="csssssc" />
    <path
       style="color:#000000;font-style:normal;font-variant:normal;font-weight:normal;font-stretch:normal;font-size:medium;line-height:normal;font-family:sans-serif;text-indent:0;text-align:start;text-decoration:none;text-decoration-line:none;text-decoration-style:solid;text-decoration-color:#000000;letter-spacing:normal;word-spacing:normal;text-transform:none;direction:ltr;block-progression:tb;writing-mode:lr-tb;baseline-shift:baseline;text-anchor:start;clip-rule:nonzero;display:inline;overflow:visible;visibility:visible;opacity:1;isolation:auto;mix-blend-mode:normal;color-interpolation:sRGB;color-interpolation-filters:linearRGB;solid-color:#000000;solid-opacity:1;fill:#000000;fill-opacity:1;fill-rule:evenodd;stroke:none;stroke-width:140;stroke-linecap:round;stroke-linejoin:round;stroke-miterlimit:4;stroke-dasharray:none;stroke-dashoffset:0;stroke-opacity:1;color-rendering:auto;image-rendering:auto;shape-rendering:auto;text-rendering:auto;enable-background:accumulate"
       d="m 726.17969,-636.66992 c -73.69318,0.89913 -149.70063,15.17528 -218.86524,55.78515 -50.7138,29.77652 -95.28756,73.08436 -123.2539,128.97266 -28.25406,56.46327 -37.68059,122.98851 -19.3711,187.12695 16.10872,56.42905 51.30436,102.69221 94.48243,136.07422 42.78281,33.076447 91.83128,52.674024 140.57226,63.095706 96.89587,20.718058 188.7428,6.462477 270.05469,-3.59375 81.08614,-10.028304 157.10827,-16.47346 223.34177,-1.691407 32.9185,7.346787 63.4067,19.947053 88.1016,37.482422 24.4414,17.355335 43.9337,40.4996078 54.4043,64.962891 13.3848,31.271959 14.153,71.314578 2.2715,106.652348 -12.0654,35.88443 -37.2041,69.8128 -69.5313,95.39648 -32.6005,25.79999 -73.271,44.35607 -116.9551,55.24609 -43.8528,10.9321 -91.22355,14.4964 -139.90035,13.08204 C 756.28827,297.41109 601.6137,241.91283 478.91602,146.69727 a 70.007,70.007 0 1 0 -85.83204,110.60546 c 146.6987,113.84078 328.77066,179.16741 514.38086,184.56055 58.00241,1.68533 118.12996,-2.29848 177.83206,-17.18164 59.8709,-14.92524 118.8836,-40.87834 169.9707,-81.30859 51.3604,-40.64659 93.4043,-95.28375 115.3515,-160.5586 22.1311,-65.82151 22.344,-139.514502 -6.2656,-206.357419 a 70.007,70.007 0 0 0 0,-0.002 c -22.1176,-51.675019 -58.971,-93.427328 -102.0566,-124.021488 -42.8319,-30.41411 -90.75,-49.27958 -138.6621,-59.97265 -95.4279,-21.29769 -187.71961,-10.91343 -271.01957,-0.61133 -82.84773,10.24617 -158.74137,19.4987 -223.59961,5.63086 -32.13606,-6.87126 -61.56492,-19.44148 -84.21289,-36.95117 -22.25269,-17.20411 -38.89812,-40.64505 -45.49218,-63.74414 -7.41655,-25.9803 -3.73569,-58.70074 9.94922,-86.04883 13.97261,-27.92305 38.83737,-53.21705 68.9414,-70.89258 61.03257,-35.83516 144.41006,-42.14096 229.0625,-31.71484 124.22457,15.29997 245.25463,60.31113 349.28903,129.90039 a 70.007,70.007 0 1 0 77.8379,-116.36524 c -122.4711,-81.92164 -263.77438,-134.47299 -410.01365,-152.48437 -31.6811,-3.90197 -64.70037,-6.25831 -98.19726,-5.84961 z"
       id="path4144-0-6"
       inkscape:connector-curvature="0" />
  </g>
</svg>
