<?xml version="1.0" encoding="UTF-8" standalone="no"?>
<!-- Created with Inkscape (http://www.inkscape.org/) -->

<svg
   xmlns:dc="http://purl.org/dc/elements/1.1/"
   xmlns:cc="http://creativecommons.org/ns#"
   xmlns:rdf="http://www.w3.org/1999/02/22-rdf-syntax-ns#"
   xmlns:svg="http://www.w3.org/2000/svg"
   xmlns="http://www.w3.org/2000/svg"
   xmlns:sodipodi="http://sodipodi.sourceforge.net/DTD/sodipodi-0.dtd"
   xmlns:inkscape="http://www.inkscape.org/namespaces/inkscape"
   width="2000"
   height="2048"
   id="svg2992"
   version="1.1"
   inkscape:version="0.91pre2 r13516"
   sodipodi:docname="ട്ട.svg">
  <defs
     id="defs5498">
    <inkscape:path-effect
       effect="spiro"
       id="path-effect4179"
       is_visible="true" />
    <inkscape:path-effect
       effect="spiro"
       id="path-effect3781"
       is_visible="true" />
    <inkscape:path-effect
       effect="spiro"
       id="path-effect4199"
       is_visible="true" />
    <inkscape:path-effect
       effect="spiro"
       id="path-effect4195"
       is_visible="true" />
    <inkscape:path-effect
       effect="spiro"
       id="path-effect4191"
       is_visible="true" />
    <inkscape:path-effect
       effect="spiro"
       id="path-effect3782"
       is_visible="true" />
    <inkscape:path-effect
       effect="spiro"
       id="path-effect3846"
       is_visible="true" />
    <inkscape:path-effect
       effect="spiro"
       id="path-effect3801"
       is_visible="true" />
    <inkscape:path-effect
       is_visible="true"
       id="path-effect4146"
       effect="spiro" />
    <inkscape:path-effect
       is_visible="true"
       id="path-effect4199-5"
       effect="spiro" />
    <inkscape:path-effect
       is_visible="true"
       id="path-effect4195-6"
       effect="spiro" />
    <inkscape:path-effect
       is_visible="true"
       id="path-effect4191-4"
       effect="spiro" />
    <inkscape:path-effect
       is_visible="true"
       id="path-effect3782-4"
       effect="spiro" />
    <inkscape:path-effect
       is_visible="true"
       id="path-effect3846-0"
       effect="spiro" />
    <inkscape:path-effect
       is_visible="true"
       id="path-effect3801-1"
       effect="spiro" />
    <inkscape:path-effect
       is_visible="true"
       id="path-effect4146-2"
       effect="spiro" />
    <inkscape:path-effect
       is_visible="true"
       id="path-effect4146-2-6"
       effect="spiro" />
    <inkscape:path-effect
       is_visible="true"
       id="path-effect4146-2-4"
       effect="spiro" />
    <inkscape:path-effect
       effect="spiro"
       id="path-effect4179-7"
       is_visible="true" />
    <inkscape:path-effect
       effect="spiro"
       id="path-effect4179-7-6"
       is_visible="true" />
    <inkscape:path-effect
       is_visible="true"
       id="path-effect4146-2-4-4"
       effect="spiro" />
    <inkscape:path-effect
       effect="spiro"
       id="path-effect4179-7-8"
       is_visible="true" />
    <inkscape:path-effect
       is_visible="true"
       id="path-effect4146-2-4-8"
       effect="spiro" />
  </defs>
  <sodipodi:namedview
     inkscape:window-height="853"
     inkscape:window-width="1600"
     inkscape:pageshadow="2"
     inkscape:pageopacity="0.0"
     borderopacity="1.0"
     bordercolor="#666666"
     pagecolor="#ffffff"
     id="base"
     showgrid="true"
     showguides="true"
     inkscape:guide-bbox="true"
     inkscape:zoom="0.35355339"
     inkscape:cx="-476.29188"
     inkscape:cy="927.14829"
     inkscape:window-x="1598"
     inkscape:window-y="-3"
     inkscape:current-layer="layer1-5"
     inkscape:window-maximized="1">
    <sodipodi:guide
       orientation="horizontal"
       position="0,600"
       id="guide5596" />
    <inkscape:grid
       type="xygrid"
       id="grid3769"
       empspacing="3"
       visible="true"
       enabled="true"
       snapvisiblegridlinesonly="true"
       spacingx="4px"
       units="px"
       dotted="true"
       spacingy="4px" />
    <sodipodi:guide
       orientation="0,1"
       position="-1040,1600"
       id="guide2985" />
  </sodipodi:namedview>
  <metadata
     id="metadata5594">
    <rdf:RDF>
      <cc:Work
         rdf:about="">
        <dc:format>image/svg+xml</dc:format>
        <dc:type
           rdf:resource="http://purl.org/dc/dcmitype/StillImage" />
        <dc:title />
      </cc:Work>
    </rdf:RDF>
  </metadata>
  <g
     inkscape:label="Layer 1"
     inkscape:groupmode="layer"
     id="layer1"
     transform="translate(0,1048)">
    <g
       id="layer1-5"
       inkscape:label="Layer 1"
       transform="translate(-986.92844,-268.75429)">
      <path
         sodipodi:nodetypes="csssssc"
         inkscape:connector-curvature="0"
         inkscape:original-d="m 535.472,-120.15345 c 0,0 -521.5645,-103.43992 -687.6522,-81.19216 C -343.6569,-175.69695 -303.8157,-48.46065 -328,12.000006 -375.1025,129.7564 -201.3183,194.62448 57.2066,241.31963 325.5829,289.79415 540,124.85895 540,296.00001 540,486.94165 448.88965,666.35506 217.4979,659.89319 L -280,646.00001"
         inkscape:path-effect="#path-effect4146-2-4"
         id="path4144-0-1"
         d="m 535.472,-120.15345 c -94.12148,-77.51662 -210.80902,-127.29774 -331.90097,-141.59525 -121.091954,-14.29752 -246.164605,6.9386 -355.75123,60.40309 -43.46681,21.20634 -85.00924,47.76905 -117.55019,83.54835 -32.54096,35.779298 -55.62282,81.505791 -58.26961,129.797266 -2.3408,42.708664 11.52334,85.640227 35.994,120.721504 24.47065,35.08128 59.14078,62.48012 97.69176,81.00932 77.10196,37.05841 166.684774,38.5833 251.52084,27.5888 84.41651,-10.94013 167.64103,-33.51934 252.75643,-34.61544 42.5577,-0.54806 85.5183,4.40757 125.66338,18.54372 40.14508,14.13616 77.44119,37.796 104.37359,70.7521 33.36908,40.83241 49.32818,95.22986 44.21924,147.7149 -5.10894,52.48504 -30.9445,102.23636 -69.26265,138.4648 -38.31815,36.22844 -88.21057,58.81781 -139.8584,69.46124 -51.64782,10.64343 -104.88773,9.7243 -157.60029,8.25224 L -280,646.00001"
         style="fill:none;fill-rule:evenodd;stroke:#000000;stroke-width:140;stroke-linecap:round;stroke-linejoin:round;stroke-miterlimit:4;stroke-dasharray:none;stroke-opacity:1" />
      <path
         style="fill:none;fill-rule:evenodd;stroke:#000000;stroke-width:140;stroke-linecap:round;stroke-linejoin:round;stroke-miterlimit:4;stroke-dasharray:none;stroke-opacity:1"
         d="m 260.9284,660.75429 c 71.01847,-13.07528 147.03623,3.58895 206.07232,45.17412 59.03609,41.58517 100.32495,107.55202 111.92768,178.82588 8.0419,49.40022 2.17424,100.77662 -15.22508,147.70551 -17.39933,46.9288 -46.15787,89.4017 -82.10534,124.2275 -71.89494,69.6515 -170.95437,107.2867 -270.66958,116.067 C 109.33376,1281.7001 5.366149,1261.9303 -85.854456,1216.32 -177.07506,1170.7097 -255.27147,1099.3975 -309.0716,1012.7543"
         id="path4177-7"
         inkscape:path-effect="#path-effect4179-7"
         inkscape:original-d="m 260.9284,660.75429 c 0,0 222,32 318,224 95.9999,192.00001 -80,340.00001 -368,388.00001 -288,48 -520,-164 -520,-260"
         inkscape:connector-curvature="0"
         sodipodi:nodetypes="cssc" />
      <path
         style="color:#000000;font-style:normal;font-variant:normal;font-weight:normal;font-stretch:normal;font-size:medium;line-height:normal;font-family:sans-serif;text-indent:0;text-align:start;text-decoration:none;text-decoration-line:none;text-decoration-style:solid;text-decoration-color:#000000;letter-spacing:normal;word-spacing:normal;text-transform:none;direction:ltr;block-progression:tb;writing-mode:lr-tb;baseline-shift:baseline;text-anchor:start;clip-rule:nonzero;display:inline;overflow:visible;visibility:visible;opacity:1;isolation:auto;mix-blend-mode:normal;color-interpolation:sRGB;color-interpolation-filters:linearRGB;solid-color:#000000;solid-opacity:1;fill:#000000;fill-opacity:1;fill-rule:evenodd;stroke:none;stroke-width:140;stroke-linecap:round;stroke-linejoin:round;stroke-miterlimit:4;stroke-dasharray:none;stroke-dashoffset:0;stroke-opacity:1;color-rendering:auto;image-rendering:auto;shape-rendering:auto;text-rendering:auto;enable-background:accumulate"
         d="M 581.88867 416.6875 C 475.43807 417.23883 369.4644 441.72795 273.52734 488.5332 C 225.15404 512.13328 175.77507 542.9351 134.88477 587.89453 C 93.455466 633.44663 62.237559 692.87542 58.505859 760.96094 C 55.198159 821.31008 74.278222 878.67582 106.98242 925.56055 C 139.41812 972.0605 183.69642 1006.5111 231.76172 1029.6133 C 327.26842 1075.5178 430.72072 1075.437 522.60352 1063.5293 C 613.37882 1051.7651 693.93737 1030.4345 767.26367 1029.4902 C 803.78217 1029.02 838.55494 1033.4224 868.77734 1044.0645 C 898.65334 1054.5846 924.91427 1071.9374 942.19727 1093.0859 C 963.21017 1118.7986 974.24442 1155.8721 970.94922 1189.7246 C 967.63162 1223.8064 949.75033 1259.0651 923.26562 1284.1055 C 896.43403 1309.4738 858.56884 1327.3827 817.36914 1335.873 C 809.00647 1337.5964 800.37996 1338.9473 791.5293 1340.0176 C 785.24544 1339.5537 778.94507 1339.2616 772.63477 1339.1445 C 752.44082 1338.77 732.15143 1340.1873 712.01562 1343.4375 C 700.22075 1343.3263 688.16514 1343.0548 675.85156 1342.7109 L 178.35352 1328.8184 A 70.007 70.007 0 1 0 174.44531 1468.7637 L 671.94336 1482.6562 C 684.69831 1483.0124 697.77691 1483.369 711.13086 1483.5371 A 70.007 70.007 0 0 0 719.50195 1483.6074 C 742.58911 1483.7434 766.47524 1483.1948 791.00586 1480.957 C 824.08633 1485.1621 856.45581 1497.1862 883.08984 1515.9473 C 926.19514 1546.3108 957.76658 1596.7523 966.23828 1648.793 C 972.17588 1685.2666 967.86225 1724.7914 954.46875 1760.916 C 941.02385 1797.1792 918.21062 1831.1858 889.29102 1859.2031 C 831.42422 1915.2642 747.52935 1948.2119 661.18945 1955.8145 C 572.72805 1963.6038 481.28016 1946.2162 401.85156 1906.502 C 322.42316 1866.7877 253.64217 1804.0619 206.79688 1728.6191 A 70.007 70.007 0 1 0 87.861328 1802.4707 C 148.61623 1900.3143 236.22743 1980.2143 339.24023 2031.7207 C 442.25303 2083.2271 558.74095 2105.3776 673.46875 2095.2754 C 786.55915 2085.3174 900.78188 2042.9959 986.70508 1959.7539 C 1029.6802 1918.1197 1064.3846 1867.1803 1085.7383 1809.5859 C 1107.1434 1751.8529 1114.5661 1688.6256 1104.4199 1626.2988 C 1090.955 1543.5858 1047.1896 1468.4068 982.5332 1415.7656 C 995.39964 1406.8296 1007.7607 1396.8852 1019.4473 1385.8359 C 1069.599 1338.4194 1103.3905 1274.1754 1110.291 1203.2871 C 1117.2135 1132.1695 1096.3288 1060.4483 1050.6035 1004.4961 C 1014.0218 959.73242 965.68959 929.76582 915.27539 912.01367 C 865.20759 894.38345 814.05784 888.87613 765.46094 889.50195 C 668.55644 890.74987 582.66708 914.57536 504.60938 924.69141 C 426.82008 934.77267 351.10716 931.6439 292.41016 903.43164 C 263.37346 889.47539 238.31234 869.12746 221.80664 845.46484 C 205.56934 822.187 196.92092 793.68927 198.29492 768.62109 C 199.85682 740.12366 214.80238 708.09829 238.45508 682.0918 C 262.64678 655.49264 296.35376 633.17001 334.91406 614.35742 C 432.20186 566.89318 544.26177 547.86566 651.76367 560.55859 C 759.26567 573.25151 863.81269 617.85482 947.37109 686.67188 A 70.007 70.007 0 1 0 1036.373 578.60352 C 931.68845 492.38733 802.86169 437.42749 668.17969 421.52539 C 642.92689 418.54374 617.55441 416.94594 592.19141 416.70898 C 588.75684 416.6769 585.32256 416.66972 581.88867 416.6875 z "
         transform="translate(986.92844,-779.24571)"
         id="path4144-0-1-2" />
    </g>
  </g>
</svg>
