<?xml version="1.0" encoding="UTF-8" standalone="no"?>
<!-- Created with Inkscape (http://www.inkscape.org/) -->

<svg
   xmlns:dc="http://purl.org/dc/elements/1.1/"
   xmlns:cc="http://creativecommons.org/ns#"
   xmlns:rdf="http://www.w3.org/1999/02/22-rdf-syntax-ns#"
   xmlns:svg="http://www.w3.org/2000/svg"
   xmlns="http://www.w3.org/2000/svg"
   xmlns:sodipodi="http://sodipodi.sourceforge.net/DTD/sodipodi-0.dtd"
   xmlns:inkscape="http://www.inkscape.org/namespaces/inkscape"
   width="2000"
   height="2048"
   id="svg2992"
   version="1.1"
   inkscape:version="0.91 r13725"
   sodipodi:docname="ട്ട.svg">
  <defs
     id="defs5498">
    <inkscape:path-effect
       effect="spiro"
       id="path-effect4180"
       is_visible="true" />
    <inkscape:path-effect
       effect="spiro"
       id="path-effect4179"
       is_visible="true" />
    <inkscape:path-effect
       effect="spiro"
       id="path-effect3781"
       is_visible="true" />
    <inkscape:path-effect
       effect="spiro"
       id="path-effect4199"
       is_visible="true" />
    <inkscape:path-effect
       effect="spiro"
       id="path-effect4195"
       is_visible="true" />
    <inkscape:path-effect
       effect="spiro"
       id="path-effect4191"
       is_visible="true" />
    <inkscape:path-effect
       effect="spiro"
       id="path-effect3782"
       is_visible="true" />
    <inkscape:path-effect
       effect="spiro"
       id="path-effect3846"
       is_visible="true" />
    <inkscape:path-effect
       effect="spiro"
       id="path-effect3801"
       is_visible="true" />
    <inkscape:path-effect
       is_visible="true"
       id="path-effect4146"
       effect="spiro" />
    <inkscape:path-effect
       is_visible="true"
       id="path-effect4199-5"
       effect="spiro" />
    <inkscape:path-effect
       is_visible="true"
       id="path-effect4195-6"
       effect="spiro" />
    <inkscape:path-effect
       is_visible="true"
       id="path-effect4191-4"
       effect="spiro" />
    <inkscape:path-effect
       is_visible="true"
       id="path-effect3782-4"
       effect="spiro" />
    <inkscape:path-effect
       is_visible="true"
       id="path-effect3846-0"
       effect="spiro" />
    <inkscape:path-effect
       is_visible="true"
       id="path-effect3801-1"
       effect="spiro" />
    <inkscape:path-effect
       is_visible="true"
       id="path-effect4146-2"
       effect="spiro" />
    <inkscape:path-effect
       is_visible="true"
       id="path-effect4146-2-6"
       effect="spiro" />
    <inkscape:path-effect
       is_visible="true"
       id="path-effect4146-2-4"
       effect="spiro" />
    <inkscape:path-effect
       effect="spiro"
       id="path-effect4179-7"
       is_visible="true" />
    <inkscape:path-effect
       effect="spiro"
       id="path-effect4179-7-6"
       is_visible="true" />
    <inkscape:path-effect
       is_visible="true"
       id="path-effect4146-2-4-4"
       effect="spiro" />
    <inkscape:path-effect
       effect="spiro"
       id="path-effect4179-7-8"
       is_visible="true" />
    <inkscape:path-effect
       is_visible="true"
       id="path-effect4146-2-4-8"
       effect="spiro" />
    <inkscape:path-effect
       is_visible="true"
       id="path-effect4146-2-4-89"
       effect="spiro" />
    <inkscape:path-effect
       effect="spiro"
       id="path-effect4179-7-5"
       is_visible="true" />
    <inkscape:path-effect
       effect="spiro"
       id="path-effect4179-7-7"
       is_visible="true" />
    <inkscape:path-effect
       is_visible="true"
       id="path-effect4146-2-4-0"
       effect="spiro" />
    <inkscape:path-effect
       effect="spiro"
       id="path-effect4146-2-1"
       is_visible="true" />
    <inkscape:path-effect
       effect="spiro"
       id="path-effect4146-2-1-3"
       is_visible="true" />
    <inkscape:path-effect
       effect="spiro"
       id="path-effect4179-7-59"
       is_visible="true" />
    <inkscape:path-effect
       effect="spiro"
       id="path-effect4179-7-59-9"
       is_visible="true" />
    <inkscape:path-effect
       effect="spiro"
       id="path-effect4146-2-1-3-6"
       is_visible="true" />
    <inkscape:path-effect
       effect="spiro"
       id="path-effect4179-7-59-3"
       is_visible="true" />
    <inkscape:path-effect
       effect="spiro"
       id="path-effect4146-2-1-3-7"
       is_visible="true" />
    <inkscape:path-effect
       effect="spiro"
       id="path-effect4179-7-59-6"
       is_visible="true" />
    <inkscape:path-effect
       effect="spiro"
       id="path-effect4179-7-59-6-8"
       is_visible="true" />
    <inkscape:path-effect
       effect="spiro"
       id="path-effect4179-7-59-6-3"
       is_visible="true" />
    <inkscape:path-effect
       effect="spiro"
       id="path-effect4179-7-59-6-0"
       is_visible="true" />
    <inkscape:path-effect
       effect="spiro"
       id="path-effect4179-7-59-6-6"
       is_visible="true" />
  </defs>
  <sodipodi:namedview
     inkscape:window-height="842"
     inkscape:window-width="1600"
     inkscape:pageshadow="2"
     inkscape:pageopacity="0.0"
     borderopacity="1.0"
     bordercolor="#666666"
     pagecolor="#ffffff"
     id="base"
     showgrid="true"
     showguides="true"
     inkscape:guide-bbox="true"
     inkscape:zoom="0.35355339"
     inkscape:cx="-222.52667"
     inkscape:cy="652.16095"
     inkscape:window-x="1600"
     inkscape:window-y="0"
     inkscape:current-layer="layer1-5"
     inkscape:window-maximized="1">
    <sodipodi:guide
       orientation="horizontal"
       position="0,600"
       id="guide5596" />
    <inkscape:grid
       type="xygrid"
       id="grid3769"
       empspacing="3"
       visible="true"
       enabled="true"
       snapvisiblegridlinesonly="true"
       spacingx="4px"
       units="px"
       dotted="true"
       spacingy="4px" />
    <sodipodi:guide
       orientation="0,1"
       position="-1040,1600"
       id="guide2985" />
    <sodipodi:guide
       orientation="0,1"
       position="-1296,1600"
       id="guide4164" />
    <sodipodi:guide
       orientation="0,1"
       position="0,0"
       id="guide4166" />
  </sodipodi:namedview>
  <metadata
     id="metadata5594">
    <rdf:RDF>
      <cc:Work
         rdf:about="">
        <dc:format>image/svg+xml</dc:format>
        <dc:type
           rdf:resource="http://purl.org/dc/dcmitype/StillImage" />
        <dc:title />
      </cc:Work>
    </rdf:RDF>
  </metadata>
  <g
     inkscape:label="Layer 1"
     inkscape:groupmode="layer"
     id="layer1"
     transform="translate(0,1048)">
    <g
       id="layer1-5"
       inkscape:label="Layer 1"
       transform="translate(-986.92844,-280.75429)">
      <path
         style="fill:none;fill-rule:evenodd;stroke:#000000;stroke-width:140;stroke-linecap:round;stroke-linejoin:round;stroke-miterlimit:4;stroke-dasharray:none;stroke-opacity:1"
         d="m 1088.6929,927.19081 c 25.4702,78.48199 79.3597,147.40259 149.3824,191.04869 85.8956,53.5399 190.7608,67.8261 291.9714,66.8307 94.8672,-0.933 192.9772,-15.4204 272.7727,-66.7365 70.9834,-45.6491 123.763,-121.14581 135.2806,-204.75099 6.1668,-44.76464 0.5495,-91.19072 -16.8014,-132.91421 -17.351,-41.72348 -46.4087,-78.40334 -82.6677,-105.36982 -36.2589,-26.96648 -79.3144,-44.03536 -123.6661,-52.68555 -44.3518,-8.65019 -89.8491,-8.98745 -135.0363,-8.85883 l -449.3416,1.27898 459.9057,-3.69624 c 37.3024,-0.2998 74.7715,-0.8109 111.5748,-6.89999 36.8033,-6.08909 72.9707,-17.85364 104.6662,-37.52484 31.6955,-19.6712 58.6934,-47.33008 75.7979,-80.48119 17.1045,-33.1511 24.0454,-71.68766 18.1984,-108.53019 -5.6866,-35.83177 -23.2217,-69.31043 -47.5502,-96.2247 -24.3285,-26.91427 -55.2442,-47.44244 -88.5073,-61.92768 -66.5261,-28.97047 -140.8014,-33.86569 -213.3501,-35.16721 -87.3905,-1.56778 -177.1883,1.10438 -259.2386,-29.01708 -41.0251,-15.06073 -79.5201,-38.51479 -108.4109,-71.305201 -28.8908,-32.790414 -47.639,-75.3428514 -47.8891,-119.0444 -0.2056,-35.923955 12.0144,-71.390239 31.9621,-101.267679 19.9478,-29.87744 47.3676,-54.34294 77.85,-73.35339 70.5411,-43.99323 156.0332,-58.66504 239.1622,-57.65709 88.8359,1.07714 178.4844,19.53563 256.4985,62.04181 35.4112,19.29388 68.1962,43.40016 97.1708,71.44798"
         id="path4177-7-6-0"
         inkscape:path-effect="#path-effect4179-7-59-6"
         inkscape:original-d="m 1088.6929,927.19081 c 0,0 81.1543,147.69099 149.3824,191.04869 84.2654,53.5492 192.1334,67.5759 291.9714,66.8307 93.6034,-0.6987 196.2336,-12.8492 272.7727,-66.7365 66.8871,-47.0918 147.099,-123.80743 135.2806,-204.75099 -22.4951,-154.06695 248.8284,-280.82842 -358.1715,-299.82841 l -449.3416,1.27898 459.9057,-3.69624 c 218,-4 319.2702,-104.33448 310.2373,-233.43621 -9.2904,-132.78275 -232.3115,-130.02605 -349.4076,-193.31959 -137.7885,-74.4783 -374.9922,-68.07669 -415.5386,-219.366681 -17.7997,-66.415959 53.9699,-134.501719 109.8121,-174.621069 66.5988,-47.84734 157.1575,-57.6881 239.1622,-57.65709 87.965,0.0333 176.7504,24.91912 256.4985,62.04181 36.4481,16.96659 97.1708,71.44798 97.1708,71.44798"
         inkscape:connector-curvature="0"
         sodipodi:nodetypes="caaaacccaaaaaac" />
      <path
         style="color:#000000;font-style:normal;font-variant:normal;font-weight:normal;font-stretch:normal;font-size:medium;line-height:normal;font-family:sans-serif;text-indent:0;text-align:start;text-decoration:none;text-decoration-line:none;text-decoration-style:solid;text-decoration-color:#000000;letter-spacing:normal;word-spacing:normal;text-transform:none;direction:ltr;block-progression:tb;writing-mode:lr-tb;baseline-shift:baseline;text-anchor:start;white-space:normal;clip-rule:nonzero;display:inline;overflow:visible;visibility:visible;opacity:1;isolation:auto;mix-blend-mode:normal;color-interpolation:sRGB;color-interpolation-filters:linearRGB;solid-color:#000000;solid-opacity:1;fill:#000000;fill-opacity:1;fill-rule:evenodd;stroke:none;stroke-width:140;stroke-linecap:round;stroke-linejoin:round;stroke-miterlimit:4;stroke-dasharray:none;stroke-dashoffset:0;stroke-opacity:1;color-rendering:auto;image-rendering:auto;shape-rendering:auto;text-rendering:auto;enable-background:accumulate"
         d="m 374.41016,-335.18555 c -91.94541,-1.11485 -190.89318,14.52212 -277.052738,68.25586 -37.370542,23.30628 -72.427661,54.04311 -99.0253908,93.88086 -26.8218792,40.17348 -44.0401362,88.475979 -43.7421872,140.537111 0.36319,63.460788 26.54663,120.859674 65.365234,164.917969 38.334842,43.50923 87.011192,72.46108 136.808592,90.74219 98.81809,36.27708 197.00305,31.7662 282.10742,33.29297 70.25814,1.26042 134.97003,6.84935 186.65625,29.35742 25.62396,11.1586 48.1076,26.52451 64.52735,44.68945 16.18473,17.90494 27.09077,39.75871 30.34375,60.25586 3.31846,20.90975 -0.76435,45.09849 -11.27149,65.46289 -10.61678,20.57691 -28.65339,39.54167 -50.50195,53.10156 -22.04825,13.68383 -49.4153,23.01495 -79.17969,27.93946 -29.87705,4.94314 -63.67117,5.6652 -100.71093,5.96289 l -459.542974,3.69531 -0.363281,0.002 a 70.007,70.007 0 0 0 0.761719,139.9961 l 0.363281,-0.002 448.978515,-1.27539 c 44.70519,-0.12724 85.5785,0.57066 121.4375,7.56446 35.72454,6.96757 68.97451,20.57634 95.29102,40.14843 26.23888,19.51436 47.51208,46.51085 59.80859,76.08008 12.33866,29.67058 16.57939,63.89307 12.08984,96.48242 -8.3494,60.60779 -49.07053,120.23226 -103.79882,155.42776 -62.88139,40.4387 -147.38143,54.7476 -235.59766,55.6152 -94.14895,0.926 -185.32075,-13.2701 -254.25586,-56.2383 C 108.27454,1026.031 64.313736,969.80754 44.078125,907.45508 a 70.007,70.007 0 1 0 -133.162109,43.2168 c 30.704812,94.61142 94.5219131,176.22752 178.935546,228.84372 102.856128,64.1116 221.415228,78.4887 329.687498,77.4239 101.51817,-0.9985 213.23774,-15.664 309.94727,-77.8575 87.23848,-56.1026 152.07797,-147.4716 166.76367,-254.07419 7.84411,-56.93992 0.84949,-115.56934 -21.51367,-169.3457 -22.40532,-53.87773 -59.24831,-100.24157 -105.52735,-134.66016 -4.32241,-3.21466 -8.75779,-6.18856 -13.1914,-9.16406 31.46753,-24.03339 58.53991,-54.64079 77.52539,-91.4375 23.70188,-45.9378 33.50064,-98.8243 25.125,-151.59961 -8.1203,-51.16639 -32.28361,-96.26976 -64.75586,-132.19336 C 761.6749,200.94383 722.32599,175.25329 681.42383,157.44141 600.0578,122.00853 516.22216,117.80746 441.38281,116.46484 351.70625,114.85605 270.29421,115.69045 205.01172,91.724609 172.75884,79.884262 144.44475,61.927059 124.99805,39.855469 106.03511,18.332936 94.722961,-9.3721426 94.585938,-33.314453 94.472697,-53.101231 101.69403,-75.731099 114.76758,-95.3125 c 13.29769,-19.91713 33.07961,-38.11155 56.67383,-52.82617 54.92264,-34.25272 126.95885,-47.95965 201.27148,-47.0586 79.71241,0.96652 158.15101,17.71532 223.85742,53.51563 29.84016,16.25849 57.55844,36.64016 81.97461,60.27539 a 70.007,70.007 0 1 0 97.37305,-100.58984 c -33.53295,-32.46041 -71.38498,-60.29183 -112.36719,-82.6211 -90.32177,-49.21205 -191.18128,-69.38059 -289.14062,-70.56836 z"
         id="path4177-7-6-0-4"
         inkscape:connector-curvature="0" />
    </g>
    <g
       id="layer1-5-7"
       inkscape:label="Layer 1"
       transform="translate(429.07153,-284.75424)" />
  </g>
</svg>
