<?xml version="1.0" encoding="UTF-8" standalone="no"?>
<!-- Created with Inkscape (http://www.inkscape.org/) -->

<svg
   xmlns:dc="http://purl.org/dc/elements/1.1/"
   xmlns:cc="http://creativecommons.org/ns#"
   xmlns:rdf="http://www.w3.org/1999/02/22-rdf-syntax-ns#"
   xmlns:svg="http://www.w3.org/2000/svg"
   xmlns="http://www.w3.org/2000/svg"
   xmlns:sodipodi="http://sodipodi.sourceforge.net/DTD/sodipodi-0.dtd"
   xmlns:inkscape="http://www.inkscape.org/namespaces/inkscape"
   width="2000"
   height="2048"
   id="svg2992"
   version="1.1"
   inkscape:version="0.91 r13725"
   sodipodi:docname="ട്ട.svg">
  <defs
     id="defs5498">
    <inkscape:path-effect
       effect="spiro"
       id="path-effect4180"
       is_visible="true" />
    <inkscape:path-effect
       effect="spiro"
       id="path-effect4179"
       is_visible="true" />
    <inkscape:path-effect
       effect="spiro"
       id="path-effect3781"
       is_visible="true" />
    <inkscape:path-effect
       effect="spiro"
       id="path-effect4199"
       is_visible="true" />
    <inkscape:path-effect
       effect="spiro"
       id="path-effect4195"
       is_visible="true" />
    <inkscape:path-effect
       effect="spiro"
       id="path-effect4191"
       is_visible="true" />
    <inkscape:path-effect
       effect="spiro"
       id="path-effect3782"
       is_visible="true" />
    <inkscape:path-effect
       effect="spiro"
       id="path-effect3846"
       is_visible="true" />
    <inkscape:path-effect
       effect="spiro"
       id="path-effect3801"
       is_visible="true" />
    <inkscape:path-effect
       is_visible="true"
       id="path-effect4146"
       effect="spiro" />
    <inkscape:path-effect
       is_visible="true"
       id="path-effect4199-5"
       effect="spiro" />
    <inkscape:path-effect
       is_visible="true"
       id="path-effect4195-6"
       effect="spiro" />
    <inkscape:path-effect
       is_visible="true"
       id="path-effect4191-4"
       effect="spiro" />
    <inkscape:path-effect
       is_visible="true"
       id="path-effect3782-4"
       effect="spiro" />
    <inkscape:path-effect
       is_visible="true"
       id="path-effect3846-0"
       effect="spiro" />
    <inkscape:path-effect
       is_visible="true"
       id="path-effect3801-1"
       effect="spiro" />
    <inkscape:path-effect
       is_visible="true"
       id="path-effect4146-2"
       effect="spiro" />
    <inkscape:path-effect
       is_visible="true"
       id="path-effect4146-2-6"
       effect="spiro" />
    <inkscape:path-effect
       is_visible="true"
       id="path-effect4146-2-4"
       effect="spiro" />
    <inkscape:path-effect
       effect="spiro"
       id="path-effect4179-7"
       is_visible="true" />
    <inkscape:path-effect
       effect="spiro"
       id="path-effect4179-7-6"
       is_visible="true" />
    <inkscape:path-effect
       is_visible="true"
       id="path-effect4146-2-4-4"
       effect="spiro" />
    <inkscape:path-effect
       effect="spiro"
       id="path-effect4179-7-8"
       is_visible="true" />
    <inkscape:path-effect
       is_visible="true"
       id="path-effect4146-2-4-8"
       effect="spiro" />
    <inkscape:path-effect
       is_visible="true"
       id="path-effect4146-2-4-89"
       effect="spiro" />
    <inkscape:path-effect
       effect="spiro"
       id="path-effect4179-7-5"
       is_visible="true" />
    <inkscape:path-effect
       effect="spiro"
       id="path-effect4179-7-7"
       is_visible="true" />
    <inkscape:path-effect
       is_visible="true"
       id="path-effect4146-2-4-0"
       effect="spiro" />
    <inkscape:path-effect
       effect="spiro"
       id="path-effect4146-2-1"
       is_visible="true" />
    <inkscape:path-effect
       effect="spiro"
       id="path-effect4146-2-1-3"
       is_visible="true" />
    <inkscape:path-effect
       effect="spiro"
       id="path-effect4179-7-59"
       is_visible="true" />
    <inkscape:path-effect
       effect="spiro"
       id="path-effect4179-7-59-9"
       is_visible="true" />
    <inkscape:path-effect
       effect="spiro"
       id="path-effect4146-2-1-3-6"
       is_visible="true" />
    <inkscape:path-effect
       effect="spiro"
       id="path-effect4179-7-59-3"
       is_visible="true" />
    <inkscape:path-effect
       effect="spiro"
       id="path-effect4146-2-1-3-7"
       is_visible="true" />
    <inkscape:path-effect
       effect="spiro"
       id="path-effect4179-7-59-6"
       is_visible="true" />
    <inkscape:path-effect
       effect="spiro"
       id="path-effect4179-7-59-6-8"
       is_visible="true" />
    <inkscape:path-effect
       effect="spiro"
       id="path-effect4179-7-59-6-3"
       is_visible="true" />
    <inkscape:path-effect
       effect="spiro"
       id="path-effect4179-7-59-6-0"
       is_visible="true" />
    <inkscape:path-effect
       effect="spiro"
       id="path-effect4179-7-59-6-6"
       is_visible="true" />
    <inkscape:path-effect
       effect="spiro"
       id="path-effect4179-7-59-6-2"
       is_visible="true" />
    <inkscape:path-effect
       effect="spiro"
       id="path-effect4179-7-59-6-5"
       is_visible="true" />
    <inkscape:path-effect
       effect="spiro"
       id="path-effect4179-7-59-6-5-9"
       is_visible="true" />
    <inkscape:path-effect
       effect="spiro"
       id="path-effect4179-7-59-6-5-3"
       is_visible="true" />
  </defs>
  <sodipodi:namedview
     inkscape:window-height="704"
     inkscape:window-width="1366"
     inkscape:pageshadow="2"
     inkscape:pageopacity="0.0"
     borderopacity="1.0"
     bordercolor="#666666"
     pagecolor="#ffffff"
     id="base"
     showgrid="true"
     showguides="true"
     inkscape:guide-bbox="true"
     inkscape:zoom="0.125"
     inkscape:cx="-2793.2452"
     inkscape:cy="1682.7796"
     inkscape:window-x="-4"
     inkscape:window-y="0"
     inkscape:current-layer="layer1-5"
     inkscape:window-maximized="1">
    <sodipodi:guide
       orientation="horizontal"
       position="0,600"
       id="guide5596" />
    <inkscape:grid
       type="xygrid"
       id="grid3769"
       empspacing="3"
       visible="true"
       enabled="true"
       snapvisiblegridlinesonly="true"
       spacingx="4px"
       units="px"
       dotted="true"
       spacingy="4px" />
    <sodipodi:guide
       orientation="0,1"
       position="-1040,1600"
       id="guide2985" />
    <sodipodi:guide
       orientation="0,1"
       position="-1296,1600"
       id="guide4164" />
    <sodipodi:guide
       orientation="0,1"
       position="72,0"
       id="guide4166" />
  </sodipodi:namedview>
  <metadata
     id="metadata5594">
    <rdf:RDF>
      <cc:Work
         rdf:about="">
        <dc:format>image/svg+xml</dc:format>
        <dc:type
           rdf:resource="http://purl.org/dc/dcmitype/StillImage" />
        <dc:title />
      </cc:Work>
    </rdf:RDF>
  </metadata>
  <g
     inkscape:label="Layer 1"
     inkscape:groupmode="layer"
     id="layer1"
     transform="translate(0,1048)">
    <g
       id="layer1-5"
       inkscape:label="Layer 1"
       transform="translate(-986.92844,-280.75429)">
      <path
         style="fill:none;fill-rule:evenodd;stroke:#000000;stroke-width:140;stroke-linecap:round;stroke-linejoin:round;stroke-miterlimit:4;stroke-dasharray:none;stroke-opacity:1"
         d="m 1085.8645,917.13194 c 41.0686,53.48666 93.2301,98.41626 152.2108,131.10756 78.461,43.4887 168.2839,64.9495 257.9714,66.8307 94.8154,1.9888 191.304,-18.1901 272.7727,-66.7365 33.1834,-19.7737 63.8588,-44.2831 88.0186,-74.42346 24.1598,-30.14035 41.6325,-66.11174 47.262,-104.32753 5.7583,-39.09 -1.1605,-79.79217 -18.569,-115.26229 -17.4086,-35.47013 -45.0887,-65.55635 -78.012,-87.40225 -32.9232,-21.8459 -70.8386,-35.48423 -109.6313,-42.98846 -38.7926,-7.50424 -78.4658,-8.9689 -117.9592,-10.17541 l -421.0573,-12.86316 431.6214,10.4459 c 37.7058,0.91254 75.6153,1.57556 112.939,-3.85659 37.3236,-5.43216 74.0662,-17.06925 106.0301,-37.09098 31.9639,-20.02173 58.8715,-48.47872 75.4435,-82.35979 16.5721,-33.88108 22.5598,-73.01823 15.8247,-110.12885 -6.4552,-35.56834 -24.3252,-68.6244 -48.7426,-95.28084 -24.4175,-26.65643 -55.197,-47.07893 -88.2931,-61.61935 -66.1922,-29.08083 -140.0937,-34.69613 -212.3719,-36.4194 -87.3112,-2.08169 -177.0106,0.55052 -259.0337,-29.446 -41.0116,-14.99826 -79.5221,-38.35169 -108.457,-71.057448 -28.935,-32.705762 -47.7542,-75.1962024 -48.0479,-118.863233 -0.2416,-35.926374 11.9839,-71.401229 31.9417,-101.275099 19.9578,-29.87388 47.3901,-54.32717 77.8704,-73.34597 70.5385,-44.01391 156.0268,-58.83959 239.1622,-57.65709 88.7951,1.263 178.1653,20.20797 256.4985,62.04181 51.0461,27.26119 96.9908,64.03714 134.7688,107.874389"
         id="path4177-7-6-0"
         inkscape:path-effect="#path-effect4179-7-59-6"
         inkscape:original-d="m 1085.8645,917.13194 c 0,0 92.8846,100.05036 152.2108,131.10756 78.6977,41.1982 169.1443,66.2292 257.9714,66.8307 93.6038,0.6339 194.5492,-15.3248 272.7727,-66.7365 62.4442,-41.0409 144.7763,-104.63304 135.2806,-178.75099 -17.4927,-136.53709 282.8284,-236.82842 -324.1715,-255.82841 l -421.0573,-12.86316 431.6214,10.4459 c 218,-4 319.2702,-104.33448 310.2373,-233.43621 -9.2904,-132.78275 -232.3115,-130.02605 -349.4076,-193.31959 -137.7885,-74.4783 -374.9922,-68.07669 -415.5386,-219.366681 -17.7997,-66.415959 53.9699,-134.501719 109.8121,-174.621069 66.5988,-47.84734 157.1575,-57.6881 239.1622,-57.65709 87.965,0.0333 177.528,23.29241 256.4985,62.04181 51.658,25.34767 134.7688,107.874389 134.7688,107.874389"
         inkscape:connector-curvature="0"
         sodipodi:nodetypes="caaaacccaaaaaac" />
      <path
         style="color:#000000;font-style:normal;font-variant:normal;font-weight:normal;font-stretch:normal;font-size:medium;line-height:normal;font-family:sans-serif;text-indent:0;text-align:start;text-decoration:none;text-decoration-line:none;text-decoration-style:solid;text-decoration-color:#000000;letter-spacing:normal;word-spacing:normal;text-transform:none;direction:ltr;block-progression:tb;writing-mode:lr-tb;baseline-shift:baseline;text-anchor:start;white-space:normal;clip-rule:nonzero;display:inline;overflow:visible;visibility:visible;opacity:1;isolation:auto;mix-blend-mode:normal;color-interpolation:sRGB;color-interpolation-filters:linearRGB;solid-color:#000000;solid-opacity:1;fill:#000000;fill-opacity:1;fill-rule:evenodd;stroke:none;stroke-width:140;stroke-linecap:round;stroke-linejoin:round;stroke-miterlimit:4;stroke-dasharray:none;stroke-dashoffset:0;stroke-opacity:1;color-rendering:auto;image-rendering:auto;shape-rendering:auto;text-rendering:auto;enable-background:accumulate"
         d="m 326.97461,-318.13086 c -92.13741,-1.31054 -191.11619,14.54065 -277.214844,68.26367 -37.339201,23.29856 -72.404379,54.00873 -99.019532,93.84766 -26.842159,40.17871 -44.084852,88.515355 -43.734375,140.630858 0.426852,63.472352 26.728411,120.816342 65.619141,164.775392 38.401507,43.40606 87.092491,72.22229 136.8418,90.41601 98.72416,36.10423 196.64476,31.66265 281.4082,33.6836 69.79241,1.664 134.21882,7.82934 185.88281,30.52734 25.62995,11.26024 48.17708,26.6323 64.83203,44.81445 16.43816,17.94549 27.7236,39.76538 31.48633,60.49805 3.88932,21.43013 0.31566,46.12641 -9.83203,66.87305 -10.22907,20.91302 -28.06712,40.22947 -49.7207,53.79297 -21.85307,13.68845 -49.25001,22.82147 -78.95313,27.14453 -29.83522,4.34227 -63.77291,4.05141 -101.16406,3.14648 L 2.2285156,549.84961 1.7851562,549.83789 A 70.007,70.007 0 0 0 -2.0449219,689.78516 L 419.01172,702.64844 c 39.19529,1.1974 75.07987,2.79697 106.80273,8.93359 31.61595,6.11594 60.74615,17.01225 84.22266,32.58985 23.31301,15.4691 42.49916,36.73755 53.875,59.91601 11.3088,23.04186 15.71535,50.05803 12.15625,74.21875 -3.50907,23.82113 -15.1673,48.96399 -32.62891,70.74805 -17.65739,22.02831 -41.60344,41.60841 -69.23242,58.07231 -67.91743,40.4713 -151.57796,58.6445 -235.47265,56.8847 C 259.22645,1062.344 180.4192,1043.1822 113.23047,1005.9414 62.729362,977.95005 17.769588,939.22458 -17.394531,893.42773 a 70.007,70.007 0 1 0 -111.041019,85.26172 c 46.973098,61.17655 106.336417,112.30975 173.796878,149.70115 89.733182,49.7366 190.570442,73.4952 290.437502,75.5899 105.73603,2.2178 215.05419,-19.9664 310.07422,-76.5879 38.7379,-23.0836 76.1424,-52.523 106.80468,-90.7754 30.85806,-38.49669 54.14453,-85.29579 61.89454,-137.90626 7.95754,-54.01928 -1.47223,-108.40824 -24.98047,-156.30664 -20.53845,-41.84743 -50.85522,-76.88901 -86.65625,-103.91016 35.71186,-25.61282 65.93679,-59.61888 86.07031,-100.78125 22.99643,-47.01552 31.40128,-100.5956 21.82031,-153.38672 -9.14772,-50.404 -33.60328,-94.6951 -66,-130.0625 -32.17992,-35.1307 -71.19356,-60.60322 -111.75586,-78.42383 -80.72049,-35.46365 -164.09538,-40.52996 -238.85937,-42.3125 -89.859,-2.14243 -171.33808,-1.31821 -236.66016,-25.20703 C 125.27696,96.517516 96.946828,78.626552 77.478516,56.621094 58.499426,35.168612 47.162423,7.5316317 47.001953,-16.330078 46.86922,-36.067325 54.078875,-58.680963 67.152344,-78.25 c 13.300476,-19.908835 33.099326,-38.10471 56.720706,-52.84375 54.97825,-34.3048 126.97592,-48.10524 201.10937,-47.05078 79.50935,1.13092 157.95534,18.24631 224.51953,53.79492 43.36658,23.15992 82.62226,54.582006 114.7168,91.824219 a 70.007,70.007 0 1 0 106.05273,-91.392579 c -43.46145,-50.43227 -96.09263,-92.56136 -154.81836,-123.92383 -90.10218,-48.11907 -190.39772,-68.89398 -288.47851,-70.28906 z"
         id="path4177-7-6-0-2"
         inkscape:connector-curvature="0" />
      <path
         style="fill:none;fill-rule:evenodd;stroke:#000000;stroke-width:70;stroke-linecap:round;stroke-linejoin:round;stroke-miterlimit:4;stroke-dasharray:none;stroke-opacity:1"
         d="m -2902.1203,958.0125 c 44.0643,56.9079 99.7521,104.7756 162.632,139.794 83.7662,46.6502 179.7593,70.1332 275.6329,71.2586 101.105,1.1868 202.816,-22.4956 291.4477,-71.1582 33.0432,-18.1421 64.454,-39.8664 90.2851,-67.3208 25.8311,-27.4544 45.9462,-60.92862 54.2573,-97.69701 9.3907,-41.54457 3.1495,-86.08511 -15.3861,-124.43308 -18.5357,-38.34798 -48.9618,-70.42287 -84.8547,-93.35406 -35.8928,-22.9312 -77.0077,-36.871 -118.906,-44.53038 -41.8984,-7.65939 -84.6457,-9.16266 -127.2186,-10.46056 l -449.8844,-13.71541 461.1717,11.138 c 40.2455,0.97199 80.7072,1.67956 120.5473,-4.10119 39.84,-5.78074 79.0651,-18.16665 113.2084,-39.49454 34.1433,-21.32788 62.9104,-51.65399 80.6577,-87.78816 17.7472,-36.13418 24.2068,-77.89992 17.0639,-117.51839 -6.8523,-38.00682 -25.9323,-73.33582 -52.023,-101.80946 -26.0907,-28.47363 -58.9924,-50.26999 -94.3671,-65.76532 -70.7493,-30.99065 -149.7188,-36.84803 -226.9392,-38.55301 -93.2872,-2.05973 -189.1266,0.91217 -276.7921,-31.04889 -43.8327,-15.98053 -84.9976,-40.90763 -115.9168,-75.846015 -30.9192,-34.938383 -51.0126,-80.351477 -51.2789,-127.005683 -0.2188,-38.328277 12.864,-76.160612 34.1871,-108.010742 21.3231,-31.85013 50.6115,-57.9113 83.143,-78.17967 75.3886,-46.96998 166.7217,-62.74411 255.5362,-61.4771 94.8602,1.35326 190.3398,21.52772 274.0592,66.15233 54.5194,29.06023 103.607,68.27073 143.9954,115.021483"
         id="path4177-7-6-0-6"
         inkscape:path-effect="#path-effect4179-7-59-6-5"
         inkscape:original-d="m -2902.1203,958.0125 c 0,0 99.2818,106.6901 162.632,139.794 84.1135,43.9538 180.7396,70.6171 275.6329,71.2586 99.9979,0.6759 205.9495,-19.267 291.4477,-71.1582 62.502,-37.9341 151.2708,-92.1893 144.5424,-165.01781 -13.5238,-146.38095 302.1917,-252.51926 -346.3654,-272.77808 l -449.8844,-13.71541 461.1717,11.138 c 232.9251,-4.26502 341.1286,-111.24706 331.4773,-248.90228 -9.9264,-141.58013 -248.2165,-138.6408 -373.3293,-206.12779 -147.222,-79.41278 -400.6655,-72.58705 -443.9878,-233.900588 -19.0184,-70.816282 57.6647,-143.412992 117.3301,-186.190412 71.1585,-51.0174 167.9171,-61.51016 255.5362,-61.4771 93.9875,0.0355 189.6821,24.83563 274.0592,66.15233 55.1947,27.02704 143.9954,115.021483 143.9954,115.021483"
         inkscape:connector-curvature="0"
         sodipodi:nodetypes="caaaacccaaaaaac" />
      <path
         style="color:#000000;font-style:normal;font-variant:normal;font-weight:normal;font-stretch:normal;font-size:medium;line-height:normal;font-family:sans-serif;text-indent:0;text-align:start;text-decoration:none;text-decoration-line:none;text-decoration-style:solid;text-decoration-color:#000000;letter-spacing:normal;word-spacing:normal;text-transform:none;direction:ltr;block-progression:tb;writing-mode:lr-tb;baseline-shift:baseline;text-anchor:start;white-space:normal;clip-rule:nonzero;display:inline;overflow:visible;visibility:visible;opacity:1;isolation:auto;mix-blend-mode:normal;color-interpolation:sRGB;color-interpolation-filters:linearRGB;solid-color:#000000;solid-opacity:1;fill:#000000;fill-opacity:1;fill-rule:evenodd;stroke:none;stroke-width:70;stroke-linecap:round;stroke-linejoin:round;stroke-miterlimit:4;stroke-dasharray:none;stroke-dashoffset:0;stroke-opacity:1;color-rendering:auto;image-rendering:auto;shape-rendering:auto;text-rendering:auto;enable-background:accumulate"
         d="m -3723.418,165.93945 c -93.2996,-1.33099 -191.3711,14.94833 -274.5429,66.76758 -35.958,22.40318 -69.0634,51.58651 -93.7188,88.41406 -24.7692,36.99754 -40.3685,81.25779 -40.1035,127.68164 0.3229,56.57347 24.1613,109.42736 60.0684,150.00196 35.6612,40.29688 81.9271,67.95624 130.1386,85.5332 96.0338,35.01198 195.9923,31.1246 288.0078,33.15625 75.9783,1.67756 150.2035,7.8206 213.67,35.62109 31.6313,13.85566 60.4038,33.12432 82.6035,57.35157 22.0905,24.10806 37.8734,53.80589 43.3847,84.375 5.7271,31.76526 0.4889,66.30723 -14.0351,95.8789 -14.5657,29.6563 -38.7936,55.4234 -67.7852,73.5332 -29.0917,18.1724 -63.6515,29.3117 -99.6914,34.541 -36.1057,5.239 -74.5864,4.7163 -114.6758,3.7481 l -460.9511,-11.1309 -0.2207,-0.01 a 35.0035,35.0035 0 0 0 -1.9121,69.9727 l 0.2207,0.01 449.664,13.7109 c 42.4634,1.2946 83.4375,2.8585 121.9903,9.9063 38.493,7.0367 75.2605,19.7265 106.3574,39.5937 30.9769,19.7905 56.853,47.3706 72.1855,79.0918 15.2542,31.5592 20.2291,68.44 12.7598,101.4844 -6.6407,29.3785 -23.2937,57.7116 -45.6094,81.4297 -22.4419,23.8522 -50.7255,43.6523 -81.6387,60.625 -82.9289,45.5315 -178.8282,67.9612 -274.1933,66.8418 -90.4338,-1.0616 -180.8156,-23.2906 -259.0137,-66.8399 -58.7092,-32.6957 -110.8466,-77.5112 -151.9883,-130.6445 a 35.0035,35.0035 0 1 0 -55.3476,42.8574 c 46.9869,60.6825 106.2268,111.6023 173.2773,148.9434 89.3343,49.7511 190.9385,74.4884 292.252,75.6777 106.8448,1.2542 214.3687,-23.6829 308.7031,-75.4766 35.1732,-19.3115 69.7114,-42.959 98.9316,-74.0156 29.3466,-31.1908 52.9228,-69.8066 62.9043,-113.9648 11.3121,-50.0448 3.8034,-102.2441 -18.0136,-147.3809 -21.7387,-44.9748 -56.7127,-81.5453 -97.5215,-107.6172 -13.0646,-8.3467 -26.6592,-15.4693 -40.5449,-21.7168 13.4182,-5.749 26.5513,-12.3901 39.1621,-20.2676 39.295,-24.5459 72.6003,-59.4308 93.5293,-102.0429 20.9703,-42.69667 28.6525,-91.68655 20.0937,-139.15822 -8.1932,-45.44454 -30.5712,-86.40689 -60.6621,-119.2461 -29.9817,-32.72003 -67.0111,-57.04275 -106.1289,-74.17773 -78.0323,-34.18081 -161.7484,-39.75393 -240.2109,-41.48633 -94.5589,-2.08781 -186.279,-0.0293 -265.5762,-28.93945 -39.4539,-14.3841 -75.5182,-36.57831 -101.6953,-66.15821 -25.9314,-29.30216 -42.2786,-67.27676 -42.4883,-104.01172 -0.1726,-30.2327 10.3945,-61.63712 28.2715,-88.33984 17.9908,-26.8727 43.4613,-49.8098 72.5664,-67.94336 67.6053,-42.12071 152.1999,-57.39053 236.5293,-56.1875 90.2342,1.28727 180.2599,20.55449 258.0957,62.04297 50.6825,27.01506 96.4267,63.55505 133.9726,107.01562 a 35.0035,35.0035 0 1 0 52.9707,-45.76171 c -43.2308,-50.04093 -95.6612,-91.92195 -154.0175,-123.02735 -89.6031,-47.76074 -190.5373,-68.84246 -290.0235,-70.26172 z"
         id="path4177-7-6-0-6-7"
         inkscape:connector-curvature="0" />
    </g>
    <g
       id="layer1-5-7"
       inkscape:label="Layer 1"
       transform="translate(429.07153,-284.75424)" />
  </g>
</svg>
