<?xml version="1.0" encoding="UTF-8" standalone="no"?>
<!-- Created with Inkscape (http://www.inkscape.org/) -->

<svg
   xmlns:dc="http://purl.org/dc/elements/1.1/"
   xmlns:cc="http://creativecommons.org/ns#"
   xmlns:rdf="http://www.w3.org/1999/02/22-rdf-syntax-ns#"
   xmlns:svg="http://www.w3.org/2000/svg"
   xmlns="http://www.w3.org/2000/svg"
   xmlns:sodipodi="http://sodipodi.sourceforge.net/DTD/sodipodi-0.dtd"
   xmlns:inkscape="http://www.inkscape.org/namespaces/inkscape"
   width="2048"
   height="2000"
   id="svg2992"
   version="1.1"
   inkscape:version="0.91pre3 r13670"
   sodipodi:docname="ഠ.svg">
  <defs
     id="defs5498">
    <inkscape:path-effect
       effect="spiro"
       id="path-effect4161"
       is_visible="true" />
    <inkscape:path-effect
       effect="spiro"
       id="path-effect4141-3"
       is_visible="true" />
    <inkscape:path-effect
       effect="spiro"
       id="path-effect4141-3-4"
       is_visible="true" />
    <inkscape:path-effect
       effect="spiro"
       id="path-effect4141-3-4-5"
       is_visible="true" />
    <inkscape:path-effect
       effect="spiro"
       id="path-effect4161-3"
       is_visible="true" />
  </defs>
  <sodipodi:namedview
     inkscape:window-height="851"
     inkscape:window-width="1600"
     inkscape:pageshadow="2"
     inkscape:pageopacity="0.0"
     borderopacity="1.0"
     bordercolor="#666666"
     pagecolor="#ffffff"
     id="base"
     showgrid="true"
     showguides="true"
     inkscape:guide-bbox="true"
     inkscape:zoom="0.32102648"
     inkscape:cx="-86.831951"
     inkscape:cy="893.35315"
     inkscape:window-x="1599"
     inkscape:window-y="-1"
     inkscape:current-layer="layer1"
     inkscape:window-maximized="1">
    <sodipodi:guide
       orientation="horizontal"
       position="0,600"
       id="guide5596" />
    <inkscape:grid
       type="xygrid"
       id="grid3769"
       empspacing="5"
       visible="true"
       enabled="true"
       snapvisiblegridlinesonly="true" />
    <sodipodi:guide
       orientation="0,1"
       position="-760,1600"
       id="guide6577" />
  </sodipodi:namedview>
  <metadata
     id="metadata5594">
    <rdf:RDF>
      <cc:Work
         rdf:about="">
        <dc:format>image/svg+xml</dc:format>
        <dc:type
           rdf:resource="http://purl.org/dc/dcmitype/StillImage" />
        <dc:title />
      </cc:Work>
    </rdf:RDF>
  </metadata>
  <g
     inkscape:label="Layer 1"
     inkscape:groupmode="layer"
     id="layer1"
     transform="translate(0,1000)">
    <path
       style="fill:none;fill-rule:evenodd;stroke:#000000;stroke-width:140;stroke-linecap:butt;stroke-linejoin:miter;stroke-miterlimit:4;stroke-dasharray:none;stroke-opacity:1"
       d="m 155.47138,-134.21897 c 8.37108,-108.48791 59.15293,-213.12676 139.13042,-286.9055 79.97749,-73.77873 188.32372,-115.9663 297.13398,-115.80015 114.18941,0.17436 227.6338,47.17866 308.40448,127.89637 80.77068,80.71771 127.85694,194.17854 127.86004,308.36808 0,114.191896 -47.07927,227.65813 -127.85088,308.37823 C 819.3778,288.43817 705.92756,335.4409 591.73578,335.60427 471.73412,335.77595 352.52274,283.9872 270.83828,196.07771 189.15383,108.16823 146.23932,-14.572836 155.47138,-134.21897 Z"
       id="path4159"
       inkscape:path-effect="#path-effect4161"
       inkscape:original-d="m 155.47138,-134.21897 c 7.6174,-197.75864 238.3987,-406.66139 436.2644,-402.70565 205.616,4.11068 436.26452,230.60741 436.26452,436.26445 0,205.65707 -230.64262,440.07093 -436.26452,436.26444 -213.6767,-3.95566 -444.4902,-256.268281 -436.2644,-469.82324 z"
       inkscape:connector-curvature="0"
       sodipodi:nodetypes="aaaaa" />
    <path
       style="color:#000000;font-style:normal;font-variant:normal;font-weight:normal;font-stretch:normal;font-size:medium;line-height:normal;font-family:sans-serif;text-indent:0;text-align:start;text-decoration:none;text-decoration-line:none;text-decoration-style:solid;text-decoration-color:#000000;letter-spacing:normal;word-spacing:normal;text-transform:none;direction:ltr;block-progression:tb;writing-mode:lr-tb;baseline-shift:baseline;text-anchor:start;white-space:normal;clip-rule:nonzero;display:inline;overflow:visible;visibility:visible;opacity:1;isolation:auto;mix-blend-mode:normal;color-interpolation:sRGB;color-interpolation-filters:linearRGB;solid-color:#000000;solid-opacity:1;fill:#000000;fill-opacity:1;fill-rule:evenodd;stroke:none;stroke-width:140;stroke-linecap:butt;stroke-linejoin:miter;stroke-miterlimit:4;stroke-dasharray:none;stroke-dashoffset:0;stroke-opacity:1;color-rendering:auto;image-rendering:auto;shape-rendering:auto;text-rendering:auto;enable-background:accumulate"
       d="m -766.87891,-606.26953 c -126.9746,-0.19389 -251.34219,48.22475 -344.70309,134.34961 -93.3683,86.13165 -151.6849,206.2747 -161.461,332.9707 -10.7947,139.89736031 38.402,280.57495 133.8809,383.33008 95.4701,102.74567 232.06962,162.07949 372.27733,161.87891 133.33397,-0.19076 263.45194,-54.09023 357.79493,-148.37305 94.35092,-94.29077 148.37264,-224.460364 148.36914,-357.89453 -0.004,-133.43133 -54.03012,-263.592 -148.37891,-357.87891 -94.34064,-94.27878 -224.45114,-148.17923 -357.7793,-148.38281 z m -0.21289,140 c 95.05066,0.14514 191.8286,40.25352 259.0293,107.41015 67.19257,67.14851 107.33919,163.90773 107.3418,258.85547 0.002,94.949625 -40.13974,191.713832 -107.33203,258.86329 -67.20023,67.15737 -163.98361,107.2644 -259.03321,107.40039 -99.7956,0.14277 -201.61869,-44.10248 -269.51756,-117.17579 -67.8901,-73.063851 -104.523,-177.866807 -96.8535,-277.26171 6.9661,-90.27982 50.214,-179.41402 116.8008,-240.83985 66.59403,-61.43262 158.91849,-97.39036 249.5644,-97.25195 z"
       id="path4159-2"
       inkscape:connector-curvature="0" />
  </g>
</svg>
