<?xml version="1.0" encoding="UTF-8" standalone="no"?>
<!-- Created with Inkscape (http://www.inkscape.org/) -->

<svg
   xmlns:dc="http://purl.org/dc/elements/1.1/"
   xmlns:cc="http://creativecommons.org/ns#"
   xmlns:rdf="http://www.w3.org/1999/02/22-rdf-syntax-ns#"
   xmlns:svg="http://www.w3.org/2000/svg"
   xmlns="http://www.w3.org/2000/svg"
   xmlns:sodipodi="http://sodipodi.sourceforge.net/DTD/sodipodi-0.dtd"
   xmlns:inkscape="http://www.inkscape.org/namespaces/inkscape"
   width="2000"
   height="2048"
   id="svg2992"
   version="1.1"
   inkscape:version="0.91 r13725"
   sodipodi:docname="ഢ.svg">
  <defs
     id="defs5498">
    <inkscape:path-effect
       effect="spiro"
       id="path-effect3846"
       is_visible="true" />
    <inkscape:path-effect
       effect="spiro"
       id="path-effect3801"
       is_visible="true" />
    <inkscape:path-effect
       effect="spiro"
       id="path-effect4372-52"
       is_visible="true" />
    <inkscape:path-effect
       effect="spiro"
       id="path-effect4372-52-4"
       is_visible="true" />
    <inkscape:path-effect
       effect="spiro"
       id="path-effect4372-52-4-9"
       is_visible="true" />
    <inkscape:path-effect
       effect="spiro"
       id="path-effect4372-52-4-9-3"
       is_visible="true" />
    <inkscape:path-effect
       effect="spiro"
       id="path-effect4372-52-4-9-7"
       is_visible="true" />
    <inkscape:path-effect
       effect="spiro"
       id="path-effect4372-52-4-9-7-7"
       is_visible="true" />
    <inkscape:path-effect
       effect="spiro"
       id="path-effect4372-52-4-9-39"
       is_visible="true" />
    <inkscape:path-effect
       effect="spiro"
       id="path-effect4372-52-4-9-39-8"
       is_visible="true" />
    <inkscape:path-effect
       effect="spiro"
       id="path-effect4372-52-4-9-7-5"
       is_visible="true" />
    <inkscape:path-effect
       effect="spiro"
       id="path-effect4372-52-4-9-7-5-3"
       is_visible="true" />
  </defs>
  <sodipodi:namedview
     inkscape:window-height="704"
     inkscape:window-width="1366"
     inkscape:pageshadow="2"
     inkscape:pageopacity="0.0"
     borderopacity="1.0"
     bordercolor="#666666"
     pagecolor="#ffffff"
     id="base"
     showgrid="true"
     showguides="true"
     inkscape:guide-bbox="true"
     inkscape:zoom="0.05675"
     inkscape:cx="2592.337"
     inkscape:cy="311.27163"
     inkscape:window-x="-4"
     inkscape:window-y="0"
     inkscape:current-layer="layer1"
     inkscape:window-maximized="1">
    <sodipodi:guide
       orientation="horizontal"
       position="0,600"
       id="guide5596" />
    <inkscape:grid
       type="xygrid"
       id="grid3769"
       empspacing="3"
       visible="true"
       enabled="true"
       snapvisiblegridlinesonly="true"
       spacingx="4px"
       units="px"
       dotted="true"
       spacingy="4px" />
    <sodipodi:guide
       orientation="0,1"
       position="-1040,1600"
       id="guide2985" />
  </sodipodi:namedview>
  <metadata
     id="metadata5594">
    <rdf:RDF>
      <cc:Work
         rdf:about="">
        <dc:format>image/svg+xml</dc:format>
        <dc:type
           rdf:resource="http://purl.org/dc/dcmitype/StillImage" />
        <dc:title />
      </cc:Work>
    </rdf:RDF>
  </metadata>
  <g
     inkscape:label="Layer 1"
     inkscape:groupmode="layer"
     id="layer1"
     transform="translate(0,1048)">
    <path
       style="fill:none;fill-rule:evenodd;stroke:#000000;stroke-width:140;stroke-linecap:round;stroke-linejoin:round;stroke-miterlimit:4;stroke-dasharray:none;stroke-opacity:1"
       d="m 2094.9182,-531.92404 c 74.6981,-6.99125 151.8826,18.77387 207.4028,69.23365 55.5203,50.45978 88.5224,124.8381 88.6803,199.86252 0.158,75.02443 -32.5308,149.54101 -87.8382,200.234055 -55.3073,50.693049 -132.3826,76.782856 -207.1095,70.106113 -70.3674,-6.2872289 -137.7212,-41.381454 -183.2332,-95.416213 -45.5121,-54.034755 -68.6448,-126.351015 -62.9966,-196.772605 5.6482,-70.42159 39.9967,-138.10899 93.4625,-184.28818 53.4657,-46.17918 125.4072,-70.3136 195.909,-65.77487 54.41,3.50279 107.3887,23.61755 151.5276,55.62497 44.1389,32.00743 79.467,75.66944 103.2598,124.72679 47.5856,98.11469 47.7349,215.2377 13.6263,318.811286 -33.2632,101.006418 -98.1157,191.163234 -182.5181,255.854554 -84.4024,64.69132 -187.9235,103.81333 -293.918,112.41037 -66.6921,5.40928 -134.7982,-1.26814 -197.7842,-23.84819 -62.9859,-22.58006 -120.2753,-61.36559 -163.4441,-112.48839 -43.1689,-51.1228 -71.5417,-113.903329 -85.5753,-179.326174 -14.0336,-65.422844 -13.8441,-132.950076 -12.6876,-199.851146 l 6.1135,-353.64934 -5.9072,354.18864 c -1.8119,108.639391 -3.7185,220.310466 -44.9708,320.82933 -20.6262,50.25943 -51.3583,97.00781 -92.9861,131.9159 -41.6278,34.90809 -94.6313,57.3785 -148.9575,57.71707 -64.9103,0.40454 -127.9368,-31.14285 -171.9157,-78.8856 C 969.07898,201.54776 943.2537,138.84909 933.53689,74.668898 923.7193,9.8230336 929.57027,-56.207996 932.51968,-121.72648 c 2.94941,-65.51849 2.74702,-132.62603 -18.4354,-194.69596 -20.61139,-60.39666 -60.79137,-113.47762 -111.50608,-152.21525 -50.71471,-38.73764 -111.64364,-63.34814 -174.59641,-73.81405 -120.10488,-19.96745 -248.04064,12.92653 -343.61947,88.34913 -95.57882,75.4226 -157.31801,192.2038 -165.82374,313.65968 -8.50572,121.455894 36.35397,245.70235 120.48752,333.71046 84.13354,88.0081 206.2358,138.4126 327.95139,135.38017"
       id="path4370-92-1-3"
       inkscape:path-effect="#path-effect4372-52-4-9"
       inkscape:original-d="m 2094.9182,-531.92404 c 0,0 -178.5429,532.48937857 1.1354,539.436338 181.1864,7.005269 -134.3096,-504.987578 43.1417,-542.251868 184.8852,-38.8254 307.7392,314.38355 268.4137,499.163046 C 2365.8259,160.75028 2131.0408,351.20501 1931.1729,332.6884 1701.9645,311.45356 1467.2386,17.409198 1471.6817,-182.8255 l 6.1135,-353.64934 -5.9072,354.18864 c 8.7515,234.094398 -93.4905,484.26546 -286.9144,510.4623 C 1067.033,344.14968 981.57775,183.55977 933.53689,74.668898 880.85107,-44.750379 973.88646,-200.40322 914.08428,-316.42244 858.39951,-424.45368 739.14827,-591.57969 627.98179,-542.45174 361.74394,-424.79289 185.78368,64.438538 566.97749,328.6477"
       inkscape:connector-curvature="0"
       sodipodi:nodetypes="caaaasccaaaac" />
    <path
       style="color:#000000;font-style:normal;font-variant:normal;font-weight:normal;font-stretch:normal;font-size:medium;line-height:normal;font-family:sans-serif;text-indent:0;text-align:start;text-decoration:none;text-decoration-line:none;text-decoration-style:solid;text-decoration-color:#000000;letter-spacing:normal;word-spacing:normal;text-transform:none;direction:ltr;block-progression:tb;writing-mode:lr-tb;baseline-shift:baseline;text-anchor:start;white-space:normal;clip-rule:nonzero;display:inline;overflow:visible;visibility:visible;opacity:1;isolation:auto;mix-blend-mode:normal;color-interpolation:sRGB;color-interpolation-filters:linearRGB;solid-color:#000000;solid-opacity:1;fill:#000000;fill-opacity:1;fill-rule:evenodd;stroke:none;stroke-width:140;stroke-linecap:round;stroke-linejoin:round;stroke-miterlimit:4;stroke-dasharray:none;stroke-dashoffset:0;stroke-opacity:1;color-rendering:auto;image-rendering:auto;shape-rendering:auto;text-rendering:auto;enable-background:accumulate"
       d="m -2110.1154,-605.22418 c -114.7141,-0.66992 -228.4363,37.61863 -319.1563,109.20703 -111.6553,88.1088 -182.3546,221.83577 -192.291,363.7207 -9.9364,141.8849986 41.4338,284.1615 139.7188,386.9727 98.2849,102.8112 238.1046,160.5307 380.2929,156.9882 a 70.007,70.007 0 1 0 -3.4863,-139.957 c -101.2428,2.5224 -205.6272,-40.5684 -275.6094,-113.7734 -69.9821,-73.205001 -108.3328,-179.422401 -101.2578,-280.4492 7.0751,-101.02683 59.8551,-200.8613 139.3575,-263.5977 79.5023,-62.73642 188.8742,-90.8589 288.7773,-74.25 52.6481,8.75277 102.9984,29.38851 143.5859,60.39062 40.3746,30.8395 72.0688,73.25089 87.7481,119.19532 16.2454,47.60323 17.6003,105.70985 14.7539,168.93946 -2.8574,63.474499 -9.7503,134.153599 1.7363,210.023399 11.4547,75.659101 41.8278,151.407401 97.2461,211.568401 56.1475,60.9528 135.9659,102.0066 223.8379,101.459 73.3436,-0.4572 140.7884,-29.8773 193.5,-74.0801 44.3919,-37.226 77.2949,-83.642 101.002,-132.8125 10.9451,17.4395 23.07,34.2659 36.5507,50.2305 51.605,61.1133 119.0396,106.5977 193.30278,133.2207 73.9485,26.5101 151.9201,33.8196 227.0664,27.7246 119.3898,-9.6835 235.3203,-53.4094 330.8418,-126.6231 95.5844,-73.2617 168.5763,-174.5905 206.4238,-289.51750144 39.0317,-118.52289856 39.9747,-253.51042856 -17.1308,-371.25395856 -28.5489,-58.86359 -70.89,-111.50058 -125.1504,-150.84765 -54.4058,-39.4524 -119.4748,-64.39309 -188.1231,-68.8125 -89.4248,-5.75696 -178.3191,24.05917 -246.1621,82.65625 -67.8497,58.60276 -110.3118,142.26356 -117.4824,231.66601 -7.1713,89.41115 21.4249,178.832149 79.2324,247.464849 57.8131,68.6395 141.1212,112.0533 230.543,120.043 75.7945,6.7721 151.6212,-12.4051 214.9277,-53.1094 -30.8482,54.2637 -72.7547,102.663901 -122.2441,140.595701 -73.2833,56.1689 -164.395,90.6867 -256.9942,98.1973 -58.2379,4.7236 -116.4784,-1.3206 -168.5019,-19.9707 -51.7086,-18.5373 -98.85138,-50.6256 -133.58398,-91.7579 -34.6978,-41.0908 -58.7136,-93.361601 -70.6152,-148.845701 -10.4244,-48.5969 -11.8816,-102.331 -11.3536,-159.226519 0.1382,-8.09816 0.287,-16.26364 0.42,-24.23633 l 5.8867,-353.02734 0.02,-1.11914 0,-0.041 a 70.007,70.007 0 0 0 -139.9785,-2.37891 l 0,0.043 0,0 -0.033,1.98242 -6.0781,351.625 c -0.1281,7.41017 -0.1404,15.11523 -0.2363,22.65039 -2.0069,100.367779 -7.0357,194.736479 -39.2988,273.35158 -17.1424,41.7705 -42.1569,78.8191 -73.2051,104.8555 -30.544,25.6134 -69.1072,41.1354 -104.416,41.3554 -41.9487,0.2614 -88.1839,-21.7816 -119.9942,-56.3144 -32.5396,-35.3244 -53.816,-84.9706 -61.7949,-137.671901 -8.1486,-53.822 -3.3403,-115.207 -0.2988,-182.769499 3.0524,-67.80747 4.0042,-143.91652 -22.1153,-220.45316 -25.5434,-74.8489 -74.2088,-138.59861 -135.2636,-185.23437 -60.842,-46.47315 -132.3501,-75.05923 -205.6075,-87.23829 -26.3075,-4.37362 -52.8341,-6.60321 -79.3066,-6.75781 z m 1561.84378,155.27344 c 48.2679,0.86625 97.8892,19.97073 133.2402,52.09961 40.4011,36.71868 65.6468,93.61501 65.7617,148.20898 0.1149,54.59399 -24.8905,111.59392 -65.1367,148.4824 -40.2461,36.888399 -99.2046,56.846799 -153.582,51.988299 -51.3131,-4.5847 -102.713,-31.359 -135.9239,-70.789099 -33.2167,-39.43688 -50.8849,-94.64998 -46.7597,-146.08199 4.1258,-51.44073 30.3614,-103.1526 69.4433,-136.9082 27.5324,-23.78018 62.9795,-39.75242 99.541,-46.08399 a 70.007,70.007 0 0 0 12.8575,-0.15624 c 6.7945,-0.63593 13.6631,-0.88352 20.5586,-0.75977 z"
       id="path4370-92-1-3-6"
       inkscape:connector-curvature="0" />
    <path
       style="fill:none;fill-rule:evenodd;stroke:#000000;stroke-width:120;stroke-linecap:round;stroke-linejoin:round;stroke-miterlimit:4;stroke-dasharray:none;stroke-opacity:1"
       d="m 4123.2783,454.50938 c 52.8571,-4.94709 107.4736,13.28455 146.7602,48.99037 39.2867,35.70582 62.6394,88.33663 62.7511,141.42464 0.1117,53.08801 -23.0192,105.81665 -62.1552,141.68754 -39.136,35.87088 -93.6752,54.33226 -146.5527,49.60771 -49.7926,-4.44892 -97.4528,-29.28194 -129.6575,-67.51744 -32.2048,-38.23551 -48.5737,-89.40717 -44.5769,-139.23814 3.9967,-49.83097 28.302,-97.72721 66.1349,-130.40403 37.8328,-32.67683 88.7393,-49.75458 138.627,-46.54294 38.5011,2.4786 75.9892,16.71198 107.2224,39.36074 31.2331,22.64876 56.2316,53.54441 73.0676,88.25785 33.6721,69.42689 33.7777,152.30425 9.6421,225.5939 -23.5374,71.47309 -69.4276,135.26889 -129.1515,181.04507 -59.724,45.77615 -132.9765,73.45925 -207.9792,79.54265 -47.1919,3.8277 -95.3845,-0.8973 -139.954,-16.8752 -44.5694,-15.9778 -85.1079,-43.4228 -115.6546,-79.59779 -30.5467,-36.17498 -50.6236,-80.59908 -60.5539,-126.89291 -9.9303,-46.29383 -9.7963,-94.07675 -8.9779,-141.41658 l 4.326,-250.24562 -4.18,250.62723 c -1.2821,76.87426 -2.6312,155.89376 -31.8218,227.02186 -14.5953,35.56405 -36.3416,68.64365 -65.7978,93.34491 -29.4562,24.7013 -66.962,40.6016 -105.4037,40.8412 -45.9312,0.2863 -90.5293,-22.037 -121.6492,-55.8202 -31.1199,-33.78322 -49.3941,-78.14939 -56.2698,-123.56391 -6.947,-45.88555 -2.8068,-92.60973 -0.7198,-138.97123 2.087,-46.3615 1.9438,-93.84743 -13.0451,-137.7687 -14.5848,-42.73724 -43.0165,-80.29783 -78.9027,-107.70894 -35.8863,-27.41112 -79.0001,-44.82576 -123.5461,-52.23154 -84.9874,-14.12918 -175.5159,9.14691 -243.1484,62.51665 -67.6325,53.36975 -111.3198,136.00525 -117.3385,221.9486 -6.0188,85.94336 25.7244,173.86134 85.2581,236.13672 59.5337,62.27535 145.9345,97.94205 232.0616,95.79625"
       id="path4370-92-1-3-7"
       inkscape:path-effect="#path-effect4372-52-4-9-7"
       inkscape:original-d="m 4123.2783,454.50938 c 0,0 -126.3387,376.79457 0.8034,381.71026 128.2092,4.95695 -95.0387,-357.33399 30.5275,-383.70255 130.8265,-27.47322 217.7592,222.46078 189.9321,353.21249 -29.5662,138.92265 -195.7023,273.69032 -337.1307,260.58772 -162.1901,-15.026 -328.2843,-223.09452 -325.1404,-364.78248 l 4.326,-250.24562 -4.18,250.62723 c 6.1927,165.64741 -66.1548,342.67077 -203.0233,361.20797 -83.4559,11.303 -143.9249,-102.33195 -177.919,-179.38411 -37.281,-84.50221 28.5517,-194.64363 -13.7649,-276.73993 -39.4031,-76.44393 -123.7863,-194.70386 -202.4488,-159.94048 -188.3925,83.25652 -312.9036,429.44128 -43.1672,616.39822"
       inkscape:connector-curvature="0"
       sodipodi:nodetypes="caaaasccaaaac" />
    <path
       style="color:#000000;font-style:normal;font-variant:normal;font-weight:normal;font-stretch:normal;font-size:medium;line-height:normal;font-family:sans-serif;text-indent:0;text-align:start;text-decoration:none;text-decoration-line:none;text-decoration-style:solid;text-decoration-color:#000000;letter-spacing:normal;word-spacing:normal;text-transform:none;direction:ltr;block-progression:tb;writing-mode:lr-tb;baseline-shift:baseline;text-anchor:start;white-space:normal;clip-rule:nonzero;display:inline;overflow:visible;visibility:visible;opacity:1;isolation:auto;mix-blend-mode:normal;color-interpolation:sRGB;color-interpolation-filters:linearRGB;solid-color:#000000;solid-opacity:1;fill:#000000;fill-opacity:1;fill-rule:evenodd;stroke:none;stroke-width:120;stroke-linecap:round;stroke-linejoin:round;stroke-miterlimit:4;stroke-dasharray:none;stroke-dashoffset:0;stroke-opacity:1;color-rendering:auto;image-rendering:auto;shape-rendering:auto;text-rendering:auto;enable-background:accumulate"
       d="m 2787.6895,1407.3652 c -83.549,-0.5125 -166.2197,27.3412 -232.3672,79.5391 -81.4124,64.2437 -132.7785,161.4034 -140.0235,264.8574 -7.2451,103.4541 30.0768,206.8273 101.7403,281.791 71.6634,74.9637 173.2525,116.8994 276.9277,114.3164 a 60.006,60.006 0 1 0 -2.9902,-119.9629 c -68.5791,1.7087 -139.7934,-27.6884 -187.1973,-77.2753 -47.404,-49.5871 -73.5659,-122.0517 -68.7734,-190.4844 4.7924,-68.4326 40.7996,-136.5431 94.6523,-179.0391 53.8527,-42.4958 128.4691,-61.6821 196.1406,-50.4316 35.7136,5.9374 69.7592,19.9459 96.9649,40.7265 27.0233,20.6414 48.1817,49.0567 58.539,79.4063 10.7572,31.5213 11.8893,71.2918 9.8907,115.6914 -2.0082,44.6094 -7.0417,95.3158 1.3359,150.6504 8.3653,55.2536 30.5379,110.8069 71.4629,155.2344 41.55,45.1059 100.5395,75.5769 166.1523,75.1679 54.7424,-0.3412 104.6274,-22.197 143.584,-54.8652 27.8627,-23.365 49.4332,-51.5144 65.9336,-81.4961 5.2585,7.4369 10.7333,14.7556 16.6758,21.793 37.7776,44.7383 87.0142,77.924 141.25,97.3672 53.9659,19.3464 110.6144,24.6146 165.0527,20.1992 86.4844,-7.0147 170.3723,-38.6456 239.627,-91.7266 69.3083,-53.1223 122.1738,-126.4934 149.6406,-209.8984 28.3553,-86.1033 29.1876,-184.2933 -12.6445,-270.5449 -20.9126,-43.1189 -51.9215,-81.7066 -91.8301,-110.6465 -40.0332,-29.0301 -87.8865,-47.3998 -138.5918,-50.6641 -66.1073,-4.2558 -131.545,17.691 -181.7012,61.0117 -50.1619,43.3257 -81.421,104.9135 -86.7226,171.0137 -5.3022,66.1077 15.7505,131.9395 58.4941,182.6875 42.7486,50.7537 104.0841,82.7188 170.209,88.627 41.9327,3.7466 83.7431,-3.2507 121.7285,-19.5645 -17.6213,23.5781 -38.3229,44.909 -61.582,62.7363 -50.1932,38.4707 -112.8076,62.2093 -176.3281,67.3614 a 60.006,60.006 0 0 0 -0,0 c -39.9454,3.2399 -79.6824,-0.9434 -114.8555,-13.5528 -34.903,-12.5125 -66.7428,-34.2164 -90.0586,-61.8281 -23.2858,-27.5763 -39.6275,-62.9908 -47.7304,-100.7656 -7.4643,-34.7975 -8.2776,-74.1553 -7.7481,-116.5196 0.058,-3.5811 0.1832,-7.3919 0.2422,-10.9316 l 4.1797,-250.6269 a 60.006,60.006 0 0 0 -119.9824,-2.0372 l 0,0.035 -0,0 -0.037,2.2031 -4.2871,248.0078 c -0.054,3.1511 -0.052,6.4766 -0.1016,9.6661 -1.3602,73.2437 -4.5437,141.0518 -27.0918,195.9941 -11.6092,28.2878 -28.4557,53.0535 -48.8437,70.1504 -19.9557,16.7344 -45.0836,26.6784 -67.2246,26.8164 -26.2496,0.1636 -56.4548,-14.0122 -77.1445,-36.4727 -21.3148,-23.1389 -35.6901,-56.3191 -41.0762,-91.8945 -5.5164,-36.4364 -2.2694,-79.1775 -0.1035,-127.291 2.1753,-48.3234 3.0194,-103.5244 -16.2012,-159.8457 -18.8123,-55.1248 -54.5165,-101.8307 -99.2656,-136.0117 -44.5667,-34.0416 -96.7485,-54.8641 -150.127,-63.7383 -19.1818,-3.189 -38.5085,-4.8173 -57.789,-4.9356 z m 1104.9804,130.8243 c 31.567,0.6022 64.3563,13.2038 87.3926,34.1406 26.3274,23.9277 43.0306,61.5743 43.1055,97.1504 0.075,35.5761 -16.4689,73.2916 -42.6953,97.33 -26.2265,24.0384 -65.2368,37.2423 -100.6719,34.0762 -33.4603,-2.9896 -67.4464,-20.6909 -89.1074,-46.4082 -21.6658,-25.723 -33.3514,-62.2348 -30.6602,-95.789 2.6918,-33.5616 20.043,-67.7649 45.5469,-89.793 17.6712,-15.263 40.5741,-25.6615 64.1621,-29.9824 a 60.006,60.006 0 0 0 9.5058,-0.2364 c 4.4277,-0.4144 8.9124,-0.5743 13.4219,-0.4882 z"
       id="path4370-92-1-3-7-5"
       inkscape:connector-curvature="0" />
    <path
       style="fill:none;fill-rule:evenodd;stroke:#000000;stroke-width:69.99999237;stroke-linecap:round;stroke-linejoin:round;stroke-miterlimit:4;stroke-dasharray:none;stroke-opacity:1"
       d="m 4807.5256,-564.18143 c 80.5383,-5.43195 162.8319,23.83421 221.8557,78.89877 59.0238,55.06457 93.9244,135.13136 94.0887,215.85242 0.1643,80.72107 -34.4101,160.92926 -93.2093,216.233622 -58.7992,55.3043644 -140.973,84.905259 -221.5327,79.801181 -78.0005,-4.941932 -153.453,-42.260113 -204.7123,-101.259963 -51.2593,-58.99985 -77.6697,-138.9308 -71.6419,-216.8549 6.0278,-77.92409 44.4195,-152.84598 104.1576,-203.24306 59.738,-50.39708 140.06,-75.62273 217.8841,-68.41763 58.4143,5.40811 114.7898,28.52815 161.4802,64.04544 46.6905,35.5173 83.7439,83.17843 108.5893,136.32146 49.6908,106.28606 49.3573,231.72432 14.1831,343.655867 -34.0671,108.408458 -100.2823,206.903233 -189.5387,277.232903 -89.2564,70.32968 -201.3936,111.81905 -315.0116,113.79935 -66.9206,1.16639 -134.3613,-11.34307 -195.2367,-39.16221 C 4378.0056,304.90269 4324.2094,261.64617 4284.3744,207.86054 4244.5393,154.0749 4219.1096,90.352402 4206.6007,24.600943 4194.0919,-41.150515 4194.4,-108.57899 4195.5123,-175.50049 l 6.4742,-389.51308 -6.2558,390.08571 c -1.849,115.293105 -3.7475,233.794752 -47.3551,340.53881 -21.8039,53.37203 -54.3335,103.04153 -98.4624,140.14436 -44.1289,37.10283 -100.3746,61.00053 -158.0276,61.33746 -68.8375,0.40229 -135.6444,-33.1597 -182.2008,-83.86736 -46.5564,-50.70766 -73.8259,-117.24071 -84.0732,-185.312424 -10.3665,-68.863367 -4.1381,-138.970992 -1.0066,-208.539806 3.1315,-69.56882 2.901,-140.82398 -19.5938,-206.73005 -21.8479,-64.01065 -64.3843,-120.28834 -118.0795,-161.41642 -53.6952,-41.12808 -118.212,-67.33381 -184.9058,-78.5867 -127.7073,-21.54737 -263.89,13.21172 -365.6489,93.32778 -101.7589,80.11606 -167.5058,204.33864 -176.5297,333.53626 -9.0239,129.1976152 38.816,261.35375 128.4497,354.83778 89.6337,93.48402 219.6621,146.83683 349.1248,143.2517"
       id="path4370-92-1-3-2"
       inkscape:path-effect="#path-effect4372-52-4-9-39"
       inkscape:original-d="m 4807.5256,-564.18143 c 0,0 -195.5872,583.375701 1.2024,590.785993 197.0412,7.419766 -147.4807,-550.198473 45.6875,-589.775553 200.439,-41.06675 327.9033,344.13062 284.2526,544.022767 C 5093.2728,188.73279 4845.4184,396.92973 4634.1178,371.88403 4401.933,344.36291 4190.8069,37.11332 4195.5123,-175.50049 l 6.4742,-389.51308 -6.2558,390.08571 c 9.2679,248.566829 -99.0073,514.20415 -303.8451,542.02063 -124.9003,16.96102 -215.3981,-153.55703 -266.274,-269.179784 -55.7947,-126.802161 42.7307,-292.077996 -20.6004,-415.269856 -58.9708,-114.71001 -185.2589,-292.16825 -302.9853,-240.00312 -281.9485,124.93293 -468.292,644.410103 -64.6041,924.95352"
       inkscape:connector-curvature="0"
       sodipodi:nodetypes="caaaasccaaaac" />
    <path
       style="color:#000000;font-style:normal;font-variant:normal;font-weight:normal;font-stretch:normal;font-size:medium;line-height:normal;font-family:sans-serif;text-indent:0;text-align:start;text-decoration:none;text-decoration-line:none;text-decoration-style:solid;text-decoration-color:#000000;letter-spacing:normal;word-spacing:normal;text-transform:none;direction:ltr;block-progression:tb;writing-mode:lr-tb;baseline-shift:baseline;text-anchor:start;white-space:normal;clip-rule:nonzero;display:inline;overflow:visible;visibility:visible;opacity:1;isolation:auto;mix-blend-mode:normal;color-interpolation:sRGB;color-interpolation-filters:linearRGB;solid-color:#000000;solid-opacity:1;fill:#000000;fill-opacity:1;fill-rule:evenodd;stroke:none;stroke-width:69.99999237;stroke-linecap:round;stroke-linejoin:round;stroke-miterlimit:4;stroke-dasharray:none;stroke-dashoffset:0;stroke-opacity:1;color-rendering:auto;image-rendering:auto;shape-rendering:auto;text-rendering:auto;enable-background:accumulate"
       d="m -3992.2285,-605.25195 c -5.6583,0.0829 -11.3207,0.31358 -16.9805,0.69531 a 35.003496,35.003496 0 0 0 -7.2012,1.1582 c -67.1901,6.12423 -132.1286,32.67408 -184.0058,76.43946 -67.1563,56.65543 -109.7083,139.69727 -116.4844,227.29492 -6.776,87.59685 22.4952,176.18863 80.1152,242.509763 57.6196,66.3205358 141.2463,107.679467 228.9219,113.234375 90.5809,5.738978 181.6112,-27.052393 247.7246,-89.236328 29.692,-27.927132 53.7169,-61.25867 71.2227,-97.70117 -3.6204,32.41313 -10.3987,64.617821 -20.1856,95.761717 -31.9962,101.818402 -94.4221,194.530333 -177.8105,260.236323 -83.3189,65.65121 -188.4564,104.45607 -293.959,106.29493 -62.1512,1.08326 -124.4851,-10.5959 -180.0801,-36.00196 -55.4905,-25.35827 -104.7208,-64.97045 -140.9277,-113.85742 -36.2061,-48.88572 -59.8585,-107.696209 -71.5156,-168.970701 -9.9526,-52.314729 -11.2441,-107.390819 -10.7539,-163.785159 0.1688,-9.56999 0.3441,-19.16727 0.4961,-28.64062 l 6.2461,-389.47657 0.01,-0.58789 0,-0.0215 a 35.003496,35.003496 0 0 0 -69.9902,-1.14258 l 0,0.0195 0,0 -0.045,2.78321 -6.4277,386.71093 c -0.1506,9.05642 -0.1845,18.26926 -0.2813,27.41602 -2.0187,106.055064 -7.0823,210.030178 -44.2617,301.03906 -20.0697,49.12736 -49.7489,93.93831 -88.5859,126.5918 -38.5825,32.43946 -87.5924,52.84577 -135.7071,53.12695 -57.3295,0.33503 -115.7362,-28.44913 -156.2148,-72.53711 -40.8461,-44.48814 -65.8577,-104.49856 -75.2441,-166.85156 -9.5387,-63.364987 -3.8301,-131.15964 -0.6524,-201.75586 3.1833,-70.7184 3.5268,-146.47585 -21.4355,-219.61133 -24.3081,-71.21863 -71.0726,-132.82204 -129.92,-177.89648 -58.7418,-44.99359 -128.5325,-73.19256 -200.3652,-85.3125 -137.8214,-23.25387 -283.3051,13.87882 -393.123,100.33984 -109.8179,86.46102 -180.0564,219.16797 -189.795,358.59766 -9.7385,139.42969 41.3692,280.61231 138.1016,381.5 96.7323,100.88769 235.6416,157.8847 375.3574,154.01562 a 35.003496,35.003496 0 1 0 -1.9375,-69.97461 c -119.2097,3.30121 -240.3577,-46.40597 -322.8926,-132.48632 -82.5349,-86.08037 -127.108,-209.212169 -118.7988,-328.17774 8.3092,-118.96555 69.5657,-234.7035 163.2656,-308.47461 93.6999,-73.77111 220.5825,-106.15534 338.1758,-86.31445 61.5549,10.38583 120.7968,34.59678 169.4453,71.85937 48.543,37.18174 86.8506,88.13288 106.2383,144.93555 20.0273,58.67667 20.8337,125.43232 17.7539,193.85156 -3.0852,68.541411 -9.8328,140.962474 1.3613,215.324222 11.1082,73.790408 40.6356,146.846238 92.9024,203.773438 52.6341,57.32734 127.84,95.66484 208.1855,95.19531 67.1914,-0.39266 130.6723,-27.78066 180.3477,-69.54687 49.4208,-41.55218 84.8,-96.08057 108.3379,-153.69727 7.2676,-17.78997 13.3269,-35.79715 18.5723,-53.92578 14.4328,36.6307 33.1592,71.71413 56.9003,103.76953 43.4631,58.68431 101.8255,105.58328 168.086,135.86328 66.1558,30.23223 138.7045,43.57374 210.3945,42.32422 121.7335,-2.12175 240.8686,-46.2946 336.0625,-121.30273 95.1244,-74.95337 165.1296,-179.23391 201.2676,-294.232425 37.3973,-119.005905 38.3236,-253.059335 -15.8672,-368.970705 -27.0994,-57.96427 -67.5083,-110.10567 -119.1055,-149.35547 -20.4879,-15.58511 -42.6969,-28.91996 -66.0625,-39.8457 -46.1936,-22.15735 -97.3661,-33.72561 -148.873,-32.9707 z m 3.3633,70.44726 c 8.5831,-0.0973 17.1563,0.2425 25.6757,1.03125 18.9206,1.7517 37.709,5.68229 55.9922,11.49414 0.7825,0.25269 1.5636,0.50974 2.3438,0.76953 4.2663,1.39782 8.4804,2.97299 12.6836,4.57618 30.7831,11.97663 59.3825,29.47885 83.2969,51.78906 51.6815,48.21484 82.8209,119.65222 82.9648,190.33203 0.1439,70.6798 -30.7045,142.24317 -82.1895,190.667969 -51.4848,48.424784 -124.8013,74.834379 -195.3398,70.365234 -68.3254,-4.328925 -135.6048,-37.605984 -180.5039,-89.285153 -44.8986,-51.67857 -68.4475,-122.94983 -63.168,-191.20117 5.2795,-68.25055 39.5104,-135.05073 91.8301,-179.18946 45.7793,-38.62095 106.3323,-60.66861 166.4141,-61.34961 z"
       id="path4370-92-1-3-2-3"
       inkscape:connector-curvature="0" />
    <path
       style="fill:none;fill-rule:evenodd;stroke:#000000;stroke-width:60;stroke-linecap:round;stroke-linejoin:round;stroke-miterlimit:4;stroke-dasharray:none;stroke-opacity:1"
       d="m 2259.3705,438.95163 c 57.7732,-5.79726 117.6443,13.85552 160.7428,52.76408 43.0985,38.90857 68.7509,96.46491 68.872,154.52817 0.1211,58.06325 -25.291,115.72609 -68.2268,154.81408 -42.9359,39.08799 -102.7245,58.99031 -160.5214,53.43407 -53.7813,-5.1702 -105.1462,-32.176 -139.8828,-73.55867 -34.7365,-41.38268 -52.4324,-96.65597 -48.1759,-150.51724 4.2565,-53.86128 30.4181,-105.67307 71.2419,-141.0647 40.8239,-35.39163 95.8278,-53.94089 149.7465,-50.48724 41.6689,2.66902 82.2359,18.12121 115.9936,42.69433 33.7577,24.57312 60.7306,58.08133 78.8553,95.6967 36.2495,75.23073 36.1375,164.88784 10.0283,244.20995 -25.4201,77.22838 -74.7589,146.28926 -139.135,195.94924 -64.3762,49.66 -143.4801,79.8081 -224.5233,86.3203 -50.9984,4.0979 -103.0732,-1.1667 -151.1738,-18.6009 -48.1007,-17.4342 -91.7875,-47.2605 -124.6768,-86.45135 -32.8893,-39.19083 -54.4768,-87.22943 -65.1644,-137.26345 -10.6875,-50.03402 -10.5642,-101.66234 -9.7097,-152.81796 l 4.6664,-279.34936 -4.5089,279.76273 c -1.3407,83.18905 -2.6863,168.68473 -34.0744,245.73663 -15.6941,38.52596 -39.1217,74.39366 -70.9348,101.19806 -31.8131,26.8045 -72.3901,44.0831 -113.9893,44.327 -49.6573,0.2911 -97.8398,-23.9623 -131.3883,-60.5742 -33.5484,-36.6119 -53.1656,-84.6263 -60.5306,-133.73523 -7.4556,-49.71359 -2.9527,-100.31867 -0.6929,-150.5374 2.2598,-50.21873 2.0851,-101.65428 -14.155,-149.22828 -15.7563,-46.15653 -46.4088,-86.74548 -85.1048,-116.43227 -38.696,-29.68678 -85.1934,-48.63444 -133.2741,-56.8158 -92.2606,-15.69898 -190.70648,9.32137 -264.27559,67.16653 -73.5691,57.84516 -121.10909,147.60907 -127.61994,240.96904 -6.51085,93.35997 28.10942,188.85368 92.93728,256.35053 64.82785,67.49688 158.84787,105.93958 252.39445,103.19868"
       id="path4370-92-1-3-7-2"
       inkscape:path-effect="#path-effect4372-52-4-9-7-5"
       inkscape:original-d="m 2259.3705,438.95163 c 0,0 -137.2987,410.20101 0.8666,415.5404 138.6286,5.3573 -102.5169,-387.06533 32.9297,-415.62785 141.1207,-29.75912 234.8939,240.97029 204.8772,382.60098 -31.8927,150.48141 -211.1015,296.46234 -363.6583,282.26954 -174.9524,-16.2762 -354.1159,-241.65677 -350.7247,-395.13366 l 4.6664,-279.34936 -4.5089,279.76273 c 6.6799,179.42979 -71.0885,371.20679 -218.9985,391.26169 -90.1331,12.221 -155.2603,-110.92125 -191.9189,-194.30943 -40.2506,-91.55922 30.7984,-210.83869 -14.8479,-299.76568 -42.5037,-82.80432 -133.5266,-210.90385 -218.3789,-173.24807 -203.21643,90.18374 -337.52488,465.17233 -46.5638,667.68478"
       inkscape:connector-curvature="0"
       sodipodi:nodetypes="caaaasccaaaac" />
    <path
       style="color:#000000;font-style:normal;font-variant:normal;font-weight:normal;font-stretch:normal;font-size:medium;line-height:normal;font-family:sans-serif;text-indent:0;text-align:start;text-decoration:none;text-decoration-line:none;text-decoration-style:solid;text-decoration-color:#000000;letter-spacing:normal;word-spacing:normal;text-transform:none;direction:ltr;block-progression:tb;writing-mode:lr-tb;baseline-shift:baseline;text-anchor:start;white-space:normal;clip-rule:nonzero;display:inline;overflow:visible;visibility:visible;opacity:1;isolation:auto;mix-blend-mode:normal;color-interpolation:sRGB;color-interpolation-filters:linearRGB;solid-color:#000000;solid-opacity:1;fill:#000000;fill-opacity:1;fill-rule:evenodd;stroke:none;stroke-width:60;stroke-linecap:round;stroke-linejoin:round;stroke-miterlimit:4;stroke-dasharray:none;stroke-dashoffset:0;stroke-opacity:1;color-rendering:auto;image-rendering:auto;shape-rendering:auto;text-rendering:auto;enable-background:accumulate"
       d="m 943.55859,1262.3281 c -82.78597,-0.7085 -165.30733,26.7903 -230.70312,78.209 -80.48714,63.2846 -131.88081,160.3258 -139.00391,262.4649 -7.12309,102.139 30.30459,205.3749 101.22852,279.2187 70.92392,73.8439 172.56504,115.4029 274.9082,112.4043 a 30.003,30.003 0 1 0 -1.75586,-59.9746 c -84.75001,2.4832 -171.1471,-32.8423 -229.8789,-93.9922 -58.73181,-61.1498 -90.54705,-148.9015 -84.64844,-233.4824 5.8986,-84.581 49.58522,-167.0669 116.23633,-219.4727 66.65109,-52.4057 157.11625,-75.3985 240.70117,-61.1758 43.68262,7.4331 85.66612,24.6683 120.04492,51.043 34.2888,26.3057 61.3242,62.3348 74.9746,102.3223 14.1256,41.3796 14.7915,88.9571 12.5762,138.1875 -2.2201,49.335 -7.1671,101.9172 0.9941,156.3359 8.0985,53.9996 29.6409,107.6034 68.0801,149.5528 38.756,42.2949 94.1447,70.6556 153.6836,70.3066 49.7916,-0.2919 96.5749,-20.5743 133.1426,-51.3848 36.3479,-30.6252 62.2136,-70.6609 79.3886,-112.8222 3.6066,-8.8535 6.7656,-17.7787 9.668,-26.7403 12.3645,28.1142 28.3253,54.7661 48.3594,78.6387 36.4805,43.4701 84.4985,76.1845 137.4336,95.3711 52.8031,19.1386 109.1324,24.6936 163.8008,20.3008 86.8581,-6.9795 171.3059,-39.1379 240.4433,-92.4707 69.157,-53.348 121.9428,-127.1886 149.3067,-210.3223 28.2002,-85.6748 28.8079,-182.9638 -11.4981,-266.6133 -20.1527,-41.8243 -50.1229,-79.1926 -88.2246,-106.9277 -7.9708,-5.8021 -16.3407,-11.0443 -24.9238,-15.9141 -1.1273,-0.6644 -2.253,-1.329 -3.3906,-1.9746 -1.0124,-0.5543 -2.0213,-1.1095 -3.0411,-1.6504 -42.1098,-23.0998 -90.8864,-33.5006 -139.0859,-28.664 a 30.003,30.003 0 0 0 -6.4941,1.3203 c -46.3092,5.969 -90.5856,25.4631 -126.1114,56.2617 -46.9803,40.7289 -76.6,99.3901 -81.498,161.3691 -4.898,61.9781 15.1373,124.5527 55.1055,172.168 39.9674,47.6144 98.1149,78.1845 159.9902,84.1328 66.5512,6.3979 134.1487,-16.1028 183.5879,-61.1113 14.3251,-13.0413 26.8486,-27.8186 37.498,-43.7988 -2.45,11.0199 -5.3801,21.9359 -8.9043,32.6425 -23.4763,71.3232 -69.3677,135.6023 -128.9629,181.5743 -59.615,45.9872 -133.3752,74.1269 -208.6035,80.1718 -47.3284,3.803 -95.1488,-1.1726 -138.5469,-16.9023 -43.2663,-15.6821 -82.6217,-42.6215 -111.9199,-77.5332 -29.2845,-34.8954 -49.0235,-78.4444 -58.8066,-124.2442 -9.0258,-42.2546 -9.7488,-87.5116 -9.1543,-134.1386 0.062,-3.8034 0.1989,-7.737 0.2598,-11.5157 l 4.5097,-279.7636 a 30.003,30.003 0 0 0 -59.9922,-0.9844 l 0,0.018 -4.666,279.332 c -0.061,3.6389 -0.054,7.376 -0.1055,11.0391 -1.3785,79.4831 -4.247,157.1495 -31.5996,224.2949 -14.2131,34.8906 -35.2041,66.5907 -62.4824,89.5742 -27.0585,22.7985 -61.4271,37.0737 -94.834,37.2695 -39.7757,0.2332 -80.7528,-19.9149 -109.0937,-50.8437 -28.6576,-31.2745 -46.3509,-73.6979 -52.9824,-117.916 -6.75,-45.0085 -2.6902,-93.6378 -0.3907,-144.7403 2.3043,-51.207 2.6222,-106.4992 -15.7324,-160.2675 -17.8622,-52.3256 -52.1331,-97.4751 -95.2363,-130.543 -43.0132,-32.9989 -94.0232,-53.6581 -146.502,-62.5879 -18.92552,-3.2204 -38.04395,-4.8873 -57.14841,-5.0508 z m 1186.46091,70.2578 c 5.7543,-0.2181 11.5078,-0.1497 17.2305,0.2168 17.5491,1.1241 35.0501,4.9754 51.8125,11.1368 0.6306,0.2362 1.2568,0.4815 1.8848,0.7246 3.6091,1.369 7.1888,2.8265 10.7187,4.4082 16.1776,7.4524 31.2753,17.1141 44.3438,28.9121 36.5705,33.0152 58.8738,83.0537 58.9765,132.3222 0.1028,49.2687 -21.9912,99.4009 -58.4238,132.5684 -36.4324,33.1675 -88.4125,50.4686 -137.4551,45.7539 -45.6871,-4.3921 -90.2696,-27.8314 -119.7754,-62.9824 -29.5049,-35.1501 -44.8611,-83.1226 -41.2461,-128.8672 3.615,-45.7433 26.3191,-90.7055 60.9864,-120.7598 30.3331,-26.2969 70.6675,-41.9065 110.9472,-43.4336 z"
       id="path4370-92-1-3-7-2-4"
       inkscape:connector-curvature="0" />
  </g>
</svg>
