<?xml version="1.0" encoding="UTF-8" standalone="no"?>
<!-- Created with Inkscape (http://www.inkscape.org/) -->

<svg
   xmlns:dc="http://purl.org/dc/elements/1.1/"
   xmlns:cc="http://creativecommons.org/ns#"
   xmlns:rdf="http://www.w3.org/1999/02/22-rdf-syntax-ns#"
   xmlns:svg="http://www.w3.org/2000/svg"
   xmlns="http://www.w3.org/2000/svg"
   xmlns:sodipodi="http://sodipodi.sourceforge.net/DTD/sodipodi-0.dtd"
   xmlns:inkscape="http://www.inkscape.org/namespaces/inkscape"
   width="2000"
   height="2048"
   id="svg2992"
   version="1.1"
   inkscape:version="0.91pre3 r13670"
   sodipodi:docname="ഢ.svg">
  <defs
     id="defs5498">
    <inkscape:path-effect
       effect="spiro"
       id="path-effect3846"
       is_visible="true" />
    <inkscape:path-effect
       effect="spiro"
       id="path-effect3801"
       is_visible="true" />
    <inkscape:path-effect
       effect="spiro"
       id="path-effect4372-52"
       is_visible="true" />
    <inkscape:path-effect
       effect="spiro"
       id="path-effect4372-52-4"
       is_visible="true" />
    <inkscape:path-effect
       effect="spiro"
       id="path-effect4372-52-4-9"
       is_visible="true" />
  </defs>
  <sodipodi:namedview
     inkscape:window-height="880"
     inkscape:window-width="1600"
     inkscape:pageshadow="2"
     inkscape:pageopacity="0.0"
     borderopacity="1.0"
     bordercolor="#666666"
     pagecolor="#ffffff"
     id="base"
     showgrid="true"
     showguides="true"
     inkscape:guide-bbox="true"
     inkscape:zoom="0.32102648"
     inkscape:cx="1460.4559"
     inkscape:cy="1071.1957"
     inkscape:window-x="-2"
     inkscape:window-y="-3"
     inkscape:current-layer="layer1"
     inkscape:window-maximized="1">
    <sodipodi:guide
       orientation="horizontal"
       position="0,600"
       id="guide5596" />
    <inkscape:grid
       type="xygrid"
       id="grid3769"
       empspacing="3"
       visible="true"
       enabled="true"
       snapvisiblegridlinesonly="true"
       spacingx="4px"
       units="px"
       dotted="true"
       spacingy="4px" />
    <sodipodi:guide
       orientation="0,1"
       position="-1040,1600"
       id="guide2985" />
  </sodipodi:namedview>
  <metadata
     id="metadata5594">
    <rdf:RDF>
      <cc:Work
         rdf:about="">
        <dc:format>image/svg+xml</dc:format>
        <dc:type
           rdf:resource="http://purl.org/dc/dcmitype/StillImage" />
        <dc:title />
      </cc:Work>
    </rdf:RDF>
  </metadata>
  <g
     inkscape:label="Layer 1"
     inkscape:groupmode="layer"
     id="layer1"
     transform="translate(0,1048)">
    <path
       style="color:#000000;font-style:normal;font-variant:normal;font-weight:normal;font-stretch:normal;font-size:medium;line-height:normal;font-family:sans-serif;text-indent:0;text-align:start;text-decoration:none;text-decoration-line:none;text-decoration-style:solid;text-decoration-color:#000000;letter-spacing:normal;word-spacing:normal;text-transform:none;direction:ltr;block-progression:tb;writing-mode:lr-tb;baseline-shift:baseline;text-anchor:start;white-space:normal;clip-rule:nonzero;display:inline;overflow:visible;visibility:visible;opacity:1;isolation:auto;mix-blend-mode:normal;color-interpolation:sRGB;color-interpolation-filters:linearRGB;solid-color:#000000;solid-opacity:1;fill:#000000;fill-opacity:1;fill-rule:evenodd;stroke:none;stroke-width:140;stroke-linecap:round;stroke-linejoin:round;stroke-miterlimit:4;stroke-dasharray:none;stroke-dashoffset:0;stroke-opacity:1;color-rendering:auto;image-rendering:auto;shape-rendering:auto;text-rendering:auto;enable-background:accumulate"
       d="m 2271.0156,-629.63086 c -111.3349,-1.99726 -222.2987,44.01494 -292.0078,142.625 -140.9969,180.0062 -51.3218,462.174337 167.5684,527.607422 133.8751,48.33944 278.8787,-0.184957 366.3965,-100.609374 -15.6431,50.2740744 -40.6586,97.419329 -74.1016,136.457031 a 70.007,70.007 0 0 0 -1.4004,1.689453 C 2288.2712,263.77326 1994.8402,322.07843 1778.0469,224.81445 1660.2048,170.4878 1592.4162,32.067058 1596.4453,-101.6582 a 70.007,70.007 0 0 0 0.033,-2.00586 c 0.042,-28.71546 0.3291,-57.4978 0.6309,-86.28906 2.2951,-67.9875 2.5788,-135.24567 3.0566,-201.74415 0.9165,-49.43557 1.8984,-98.82323 2.5508,-148.48437 a 70.007,70.007 0 0 0 -139.9551,-3.2793 c -1.9499,57.82404 -2.5109,114.95323 -2.9648,171.72071 -1.0607,57.15497 -1.9817,114.3556 -2.6211,171.8125 -2.0125,64.66055 -5.7669,128.434669 -13.5078,191.1328081 a 70.007,70.007 0 0 0 -0.055,0.4570313 C 1425.7963,144.21965 1272.904,283.56469 1120.4766,256.67188 A 70.007,70.007 0 0 0 1116.5,256.08789 C 991.51843,241.37183 891.37653,106.68822 909.21875,-17.785156 a 70.007,70.007 0 0 0 0.36523,-3.007813 c 5.82232,-58.567897 19.77435,-128.324441 20.76758,-202.898441 0.985,-73.95588 -12.92513,-156.44898 -67.36718,-227.27343 C 719.6579,-652.28752 416.62531,-651.8743 251.1543,-483.64062 c -228.655702,213.09511 -187.751219,597.2318 47.39843,785.125 52.72214,44.18918 113.4492,78.63406 178.86329,100.82617 a 70.007,70.007 0 1 0 44.97851,-132.58008 c -48.86434,-16.57751 -94.89474,-42.67374 -134.57031,-76.0625 a 70.007,70.007 0 0 0 -1.46094,-1.19531 C 219.20073,59.33161 187.88722,-234.15266 347.23047,-381.85352 a 70.007,70.007 0 0 0 2.62305,-2.5625 c 103.17827,-106.21495 312.97677,-107.09717 399.48632,15.16407 a 70.007,70.007 0 0 0 1.95899,2.63476 c 30.90444,39.59761 39.82433,84.00726 39.06445,141.06055 -0.75988,57.05329 -13.32954,122.87147 -20.09375,190.914062 l 0.36524,-3.007813 C 741.08208,168.51918 891.06318,370.51033 1100.1289,395.12695 l -3.9766,-0.58398 c 180.8767,31.91212 346.8158,-69.69092 431.127,-218.93555 44.0986,74.91445 108.4986,137.90518 192.5664,176.54492 a 70.007,70.007 0 0 0 0.541,0.2461 c 276.5128,124.25989 630.6904,55.73215 825.4571,-185.66602 160.7562,-188.427477 183.9849,-496.52685 -6.4102,-681.125 -70.6207,-73.92541 -169.6276,-113.46606 -268.418,-115.23828 z m -12.7578,145.29492 c 107.6633,1.33136 210.0953,111.93222 195.6172,219.67188 a 70.007,70.007 0 0 0 -0.4531,4.43359 c -8.1877,116.91319 -150.1771,209.31493 -260.2676,168.85547 a 70.007,70.007 0 0 0 -4.7773,-1.564453 C 2068.3051,-127.51138 2012.2426,-302.74615 2089.3828,-400.9082 a 70.007,70.007 0 0 0 2.5742,-3.49414 c 30.0026,-43.4764 77.6195,-69.18147 129.6016,-78.30664 a 70.007,70.007 0 0 0 15.1289,-0.40235 c 7.191,-0.91576 14.3928,-1.31336 21.5703,-1.22461 z M 1582.668,7.9023438 l -0.055,0.4570312 c 0.015,-0.1193121 0.026,-0.2381127 0.041,-0.3574219 0,-0.033334 0.01,-0.066274 0.014,-0.099609 z"
       id="path4370-92-1"
       inkscape:connector-curvature="0" />
    <path
       style="fill:none;fill-rule:evenodd;stroke:#000000;stroke-width:140;stroke-linecap:round;stroke-linejoin:round;stroke-miterlimit:4;stroke-dasharray:none;stroke-opacity:1"
       d="m 2266.3684,673.61906 c 74.8169,-7.20252 152.2135,18.4625 207.903,68.94144 55.6895,50.47893 88.8099,124.99047 88.9681,200.15307 0.1582,75.16263 -32.6483,149.81293 -88.1248,200.52583 -55.4765,50.7129 -132.7644,76.7035 -207.6109,69.816 -54.3654,-5.0028 -107.0495,-26.9073 -148.9633,-61.8909 -41.9139,-34.9836 -72.88,-82.8899 -87.6084,-135.4608 -14.7283,-52.57087 -13.1619,-109.57939 4.3911,-161.27574 17.553,-51.69636 51.0124,-97.86349 94.6518,-130.6693 56.255,-42.28952 128.7206,-61.61955 198.8427,-55.62677 70.1221,5.99278 137.4625,36.75047 189.7634,83.84233 52.3009,47.09186 89.6293,110.02954 108.5415,177.81862 18.9121,67.78909 19.6683,140.21466 4.8917,209.02366 -29.2712,136.3051 -119.7635,256.2617 -237.4995,330.9217 -117.736,74.6601 -260.7635,105.3951 -399.8917,96.4933 -63.5009,-4.0629 -126.9187,-16.325 -185.3708,-41.4691 -58.4521,-25.144 -111.4782,-63.4951 -151.7073,-112.7951 -40.2291,-49.2999 -66.9632,-108.9728 -80.2654,-171.1975 -13.3022,-62.2248 -13.2114,-126.4304 -12.1477,-190.0522 l 6.1135,-365.64934 -5.9072,366.18864 c -1.6703,103.5423 -8.2154,210.3223 -54.6349,302.8914 -46.4195,92.5691 -131.8605,166.2762 -232.2795,191.5709 -85.7194,21.592 -180.1684,7.6757 -255.0287,-39.3344 -74.8604,-47.0102 -128.70917,-126.8437 -142.40798,-214.1728 -9.74116,-62.0993 0.0661,-125.3795 8.72377,-187.6392 8.65764,-62.2596 16.1018,-126.23654 1.82362,-187.45214 -15.03884,-64.47681 -54.38383,-122.56768 -107.2438,-162.43309 -52.85996,-39.86541 -118.68062,-61.62415 -184.85869,-63.59621 -59.01441,-1.75859 -118.2947,11.93818 -171.04411,38.45786 -52.74941,26.51969 -98.92824,65.73261 -134.50861,112.84769 -71.16074,94.23015 -97.82594,218.89129 -79.36218,335.51999 13.76499,86.9483 51.69645,169.9431 108.43239,237.2523 56.73594,67.3091 132.11382,118.7397 215.47821,147.0216"
       id="path4370-92-1-3"
       inkscape:path-effect="#path-effect4372-52-4-9"
       inkscape:original-d="m 2266.3684,673.61906 c 0,0 179.2371,514.69114 1.1354,539.43634 -167.8072,23.3149 -279.5211,-396.87914 -137.5288,-489.29674 181.981,-118.4449 512.9062,198.198 502.0393,415.05784 -12.8027,255.4899 -384.1823,463.8051 -637.3912,427.415 -221.3862,-31.8168 -433.9343,-315.2792 -429.4912,-515.5139 l 6.1135,-365.64934 -5.9072,366.18864 c 8.7515,234.0944 -101.7552,449.4223 -286.9144,494.4623 -152.6825,37.1399 -323.83919,-114.6738 -397.43668,-253.5072 -58.5838,-110.512 64.05709,-262.0352 10.54739,-375.09134 -52.66849,-111.2791 -169.89789,-240.9639 -292.10249,-226.0293 -205.3427,25.0949 -388.157,279.9804 -384.9149,486.82554 2.6255,167.5053 323.9106,384.2739 323.9106,384.2739"
       inkscape:connector-curvature="0"
       sodipodi:nodetypes="caaaasccaaaaac" />
  </g>
</svg>
