<?xml version="1.0" encoding="UTF-8" standalone="no"?>
<!-- Created with Inkscape (http://www.inkscape.org/) -->

<svg
   xmlns:dc="http://purl.org/dc/elements/1.1/"
   xmlns:cc="http://creativecommons.org/ns#"
   xmlns:rdf="http://www.w3.org/1999/02/22-rdf-syntax-ns#"
   xmlns:svg="http://www.w3.org/2000/svg"
   xmlns="http://www.w3.org/2000/svg"
   xmlns:sodipodi="http://sodipodi.sourceforge.net/DTD/sodipodi-0.dtd"
   xmlns:inkscape="http://www.inkscape.org/namespaces/inkscape"
   width="2000"
   height="2048"
   id="svg2992"
   version="1.1"
   inkscape:version="0.91 r13725"
   sodipodi:docname="ഢൃ.svg">
  <defs
     id="defs5498">
    <inkscape:path-effect
       effect="spiro"
       id="path-effect4150"
       is_visible="true" />
    <inkscape:path-effect
       effect="spiro"
       id="path-effect3846"
       is_visible="true" />
    <inkscape:path-effect
       effect="spiro"
       id="path-effect3801"
       is_visible="true" />
    <inkscape:path-effect
       is_visible="true"
       id="path-effect3846-8"
       effect="spiro" />
    <inkscape:path-effect
       is_visible="true"
       id="path-effect3801-4"
       effect="spiro" />
    <inkscape:path-effect
       effect="spiro"
       id="path-effect4372-52-4"
       is_visible="true" />
    <inkscape:path-effect
       effect="spiro"
       id="path-effect4372-52-4-9"
       is_visible="true" />
    <inkscape:path-effect
       effect="spiro"
       id="path-effect4150-5"
       is_visible="true" />
    <inkscape:path-effect
       effect="spiro"
       id="path-effect4372-52-4-9-9"
       is_visible="true" />
    <inkscape:path-effect
       effect="spiro"
       id="path-effect4372-52-4-9-3"
       is_visible="true" />
    <inkscape:path-effect
       effect="spiro"
       id="path-effect4150-5-0"
       is_visible="true" />
    <inkscape:path-effect
       effect="spiro"
       id="path-effect4372-52-4-9-9-9"
       is_visible="true" />
    <inkscape:path-effect
       is_visible="true"
       id="path-effect4148"
       effect="spiro" />
    <inkscape:path-effect
       is_visible="true"
       id="path-effect3846-3"
       effect="spiro" />
    <inkscape:path-effect
       is_visible="true"
       id="path-effect3801-8"
       effect="spiro" />
    <inkscape:path-effect
       is_visible="true"
       id="path-effect4372-52-4-6-8"
       effect="spiro" />
    <inkscape:path-effect
       is_visible="true"
       id="path-effect4148-4"
       effect="spiro" />
    <inkscape:path-effect
       is_visible="true"
       id="path-effect4372-52-4-6-8-4"
       effect="spiro" />
    <inkscape:path-effect
       is_visible="true"
       id="path-effect4372-52-4-6-8-7"
       effect="spiro" />
    <inkscape:path-effect
       is_visible="true"
       id="path-effect4148-4-2"
       effect="spiro" />
    <inkscape:path-effect
       is_visible="true"
       id="path-effect4372-52-4-6-8-7-2"
       effect="spiro" />
    <inkscape:path-effect
       is_visible="true"
       id="path-effect4148-4-0"
       effect="spiro" />
    <inkscape:path-effect
       effect="spiro"
       id="path-effect4183-2-9"
       is_visible="true" />
    <inkscape:path-effect
       effect="spiro"
       id="path-effect4187-0-7"
       is_visible="true" />
    <inkscape:path-effect
       effect="spiro"
       id="path-effect4372-52-4-9-8"
       is_visible="true" />
    <inkscape:path-effect
       effect="spiro"
       id="path-effect4372-52-4-9-8-9"
       is_visible="true" />
    <inkscape:path-effect
       effect="spiro"
       id="path-effect4187-0-7-9"
       is_visible="true" />
    <inkscape:path-effect
       effect="spiro"
       id="path-effect4183-2-9-4"
       is_visible="true" />
    <inkscape:path-effect
       effect="spiro"
       id="path-effect4372-52-4-9-8-4"
       is_visible="true" />
    <inkscape:path-effect
       effect="spiro"
       id="path-effect4187-0-7-8"
       is_visible="true" />
    <inkscape:path-effect
       effect="spiro"
       id="path-effect4183-2-9-3"
       is_visible="true" />
    <inkscape:path-effect
       effect="spiro"
       id="path-effect4187-0-7-3"
       is_visible="true" />
    <inkscape:path-effect
       effect="spiro"
       id="path-effect4183-2-9-1"
       is_visible="true" />
    <inkscape:path-effect
       effect="spiro"
       id="path-effect4372-52-4-9-8-5"
       is_visible="true" />
  </defs>
  <sodipodi:namedview
     inkscape:window-height="843"
     inkscape:window-width="1600"
     inkscape:pageshadow="2"
     inkscape:pageopacity="0.0"
     borderopacity="1.0"
     bordercolor="#666666"
     pagecolor="#ffffff"
     id="base"
     showgrid="true"
     showguides="true"
     inkscape:guide-bbox="true"
     inkscape:zoom="0.35355339"
     inkscape:cx="3911.3512"
     inkscape:cy="875.49963"
     inkscape:window-x="1600"
     inkscape:window-y="0"
     inkscape:current-layer="layer1"
     inkscape:window-maximized="1"
     inkscape:snap-grids="false">
    <sodipodi:guide
       orientation="horizontal"
       position="2504.4663,601.19652"
       id="guide5596" />
    <inkscape:grid
       type="xygrid"
       id="grid3769"
       empspacing="3"
       visible="true"
       enabled="true"
       snapvisiblegridlinesonly="true"
       spacingx="4px"
       units="px"
       dotted="true"
       spacingy="4px" />
    <sodipodi:guide
       orientation="0,1"
       position="-1040,1600"
       id="guide2985" />
    <sodipodi:guide
       position="3784,1710"
       orientation="0,1"
       id="guide4228"
       inkscape:label=""
       inkscape:color="rgb(0,0,255)" />
  </sodipodi:namedview>
  <metadata
     id="metadata5594">
    <rdf:RDF>
      <cc:Work
         rdf:about="">
        <dc:format>image/svg+xml</dc:format>
        <dc:type
           rdf:resource="http://purl.org/dc/dcmitype/StillImage" />
        <dc:title />
      </cc:Work>
    </rdf:RDF>
  </metadata>
  <g
     inkscape:label="Layer 1"
     inkscape:groupmode="layer"
     id="layer1"
     transform="translate(0,1048)">
    <path
       sodipodi:nodetypes="caaaac"
       inkscape:connector-curvature="0"
       id="path4159-7-1"
       d="m -3493.8764,-217.91555 c 17.2977,218.24374765 -34.208,441.43709 -145.3906,630.0318 -111.1827,188.5947 -281.5323,341.72572 -480.8642,432.25936 -147.7426,67.10253 -312.3747,100.15435 -473.8194,83.83733 -57.9245,-5.85436 -116.792,-18.61714 -165.2385,-50.90427 -24.2232,-16.14357 -45.4698,-37.10037 -60.328,-62.13264 -14.8582,-25.03227 -23.1397,-54.2241 -21.7602,-83.30118 1.7017,-35.8675 18.1768,-70.33753 43.0588,-96.22691 24.882,-25.88939 57.7536,-43.44097 92.4839,-52.56113 69.4607,-18.24032 143.4367,-3.41569 211.3557,19.91877 133.7375,45.94725 255.8983,125.18073 352.3867,228.558"
       style="fill:none;fill-rule:evenodd;stroke:#000000;stroke-width:69.99999237;stroke-linecap:round;stroke-linejoin:round;stroke-miterlimit:4;stroke-dasharray:none;stroke-opacity:1"
       inkscape:path-effect="#path-effect4150-5"
       inkscape:original-d="m -3493.8764,-217.91555 c 10.3474,246.203243 -288.7308,827.99895 -626.2548,1062.29116 -131.8008,91.4894 -318.329,123.21072 -473.8194,83.83733 -102.0059,-25.82988 -263.8364,-92.31432 -247.3267,-196.33809 19.3526,-121.93757 224.3024,-142.39659 346.8984,-128.86927 139.1203,15.35059 191.6033,71.53119 352.3867,228.558" />
    <path
       style="fill:none;fill-rule:evenodd;stroke:#000000;stroke-width:69.99999237;stroke-linecap:round;stroke-linejoin:round;stroke-miterlimit:4;stroke-dasharray:none;stroke-opacity:1"
       d="m -3890.6474,-574.53073 c 79.6376,-7.99436 162.1685,19.09363 221.5792,72.72599 59.4107,53.63235 94.7729,132.97092 94.9406,213.00864 0.1677,80.03772 -34.8617,159.52377 -94.0472,213.404604 -59.1855,53.880835 -141.6021,81.3144179 -221.2725,73.6538377 -57.4357,-5.5226331 -113.0363,-28.8081057 -157.2791,-65.8477467 -44.2427,-37.039645 -76.9406,-87.673125 -92.5178,-143.231265 -15.5772,-55.55815 -13.9704,-115.80414 4.5275,-170.4593 18.4978,-54.65517 53.8057,-103.48934 99.8978,-138.20061 59.4649,-44.78206 136.1248,-65.24581 210.2942,-58.88898 74.1693,6.35683 145.3828,38.93889 200.6644,88.79316 55.2816,49.85426 94.7047,116.46174 114.6536,188.18025 19.9488,71.71852 20.701,148.32135 5.0568,221.100189 -30.979,144.11792 -126.5502,271.003361 -250.9775,350.044671 -124.4272,79.04132 -275.6552,111.65967 -422.7622,102.21536 -67.1555,-4.3114 -134.2181,-17.32656 -196.0138,-43.96746 -61.7958,-26.6409 -117.8378,-67.24929 -160.3453,-119.41783 -42.5076,-52.16854 -70.7457,-115.288596 -84.7955,-181.099329 -14.0498,-65.810733 -13.9528,-133.711001 -12.829,-200.995371 l 6.462,-386.90408 -6.244,387.47473 c -1.8643,115.687843 -3.3093,234.548243 -46.325,341.95776 -21.5078,53.70476 -53.8305,103.80888 -98.0794,141.07585 -44.2488,37.26696 -101.0262,60.98967 -158.8718,60.17108 -35.1065,-0.4968 -69.9267,-9.94536 -100.9873,-26.31478 -31.0605,-16.36942 -58.3735,-39.57075 -80.4088,-66.90494 -44.0708,-54.66838 -66.3011,-124.90822 -70.1365,-195.023497 -3.6357,-66.463842 8.3751,-132.631969 16.669,-198.676443 8.2939,-66.04447 12.7438,-134.20998 -5.5202,-198.21848 -18.9408,-66.38042 -62.1165,-124.87074 -117.5535,-166.00289 -55.437,-41.13215 -122.6285,-65.2816 -191.2066,-73.16518 -126.2409,-14.51235 -257.7493,27.21809 -353.0833,111.23473 -95.3341,84.01664 -153.1947,208.86064 -156.5248,335.88935 -2.9507,112.5531259 36.4199,225.71807 108.5932,312.13528 72.1732,86.41721 176.5114,145.32301 287.7889,162.47592"
       id="path4370-92-1-3-7"
       inkscape:path-effect="#path-effect4372-52-4-9-9"
       inkscape:original-d="m -3890.6474,-574.53073 c 0,0 190.3186,546.544294 1.2001,572.7930717 -177.5515,24.6433293 -295.4613,-419.9492217 -145.3716,-517.7389217 192.3588,-125.32983 542.1556,209.71897 530.669,439.184619 -13.5328,270.341171 -406.0911,490.765331 -673.7397,452.260031 -234.0111,-33.66626 -458.6801,-333.605935 -453.9836,-545.47999 l 6.462,-386.90408 -6.244,387.47473 c 9.2505,247.70197 -97.0226,521.64625 -303.2762,543.20469 -126.8293,13.25671 -208.4411,-168.22428 -251.5326,-288.243217 -44.7237,-124.565016 67.7326,-277.257053 11.1488,-396.894923 -55.6674,-117.70041 -178.6355,-243.14564 -308.7601,-239.16807 -225.8789,6.90453 -492.1352,221.81623 -509.6081,447.12408 -15.9371,205.504428 396.3821,474.6112 396.3821,474.6112"
       inkscape:connector-curvature="0"
       sodipodi:nodetypes="caaaasccaaaaac" />
    <path
       style="color:#000000;font-style:normal;font-variant:normal;font-weight:normal;font-stretch:normal;font-size:medium;line-height:normal;font-family:sans-serif;text-indent:0;text-align:start;text-decoration:none;text-decoration-line:none;text-decoration-style:solid;text-decoration-color:#000000;letter-spacing:normal;word-spacing:normal;text-transform:none;direction:ltr;block-progression:tb;writing-mode:lr-tb;baseline-shift:baseline;text-anchor:start;white-space:normal;clip-rule:nonzero;display:inline;overflow:visible;visibility:visible;opacity:1;isolation:auto;mix-blend-mode:normal;color-interpolation:sRGB;color-interpolation-filters:linearRGB;solid-color:#000000;solid-opacity:1;fill:#000000;fill-opacity:1;fill-rule:evenodd;stroke:none;stroke-width:69.99999237;stroke-linecap:round;stroke-linejoin:round;stroke-miterlimit:4;stroke-dasharray:none;stroke-dashoffset:0;stroke-opacity:1;color-rendering:auto;image-rendering:auto;shape-rendering:auto;text-rendering:auto;enable-background:accumulate"
       d="M -3282.1621 2094.082 C -3354.6386 2094.3332 -3426.9109 2117.0602 -3485.4648 2161.1562 C -3537.2969 2200.1902 -3576.657 2254.6246 -3597.4609 2316.0938 C -3618.2654 2377.564 -3620.0588 2444.7292 -3602.5371 2507.2227 C -3585.0151 2569.7172 -3548.5578 2626.1726 -3498.7852 2667.8418 C -3449.0117 2709.5118 -3387.0123 2735.4796 -3322.3887 2741.6934 C -3232.5047 2750.336 -3140.9779 2719.8682 -3074.2051 2659.0801 C -3010.2331 2600.8417 -2971.9417 2517.3695 -2969 2431.0645 C -2954.3937 2492.687 -2954.4834 2558.2446 -2967.9609 2620.9434 C -2996.7188 2754.7282 -3086.5221 2874.5002 -3203.4863 2948.8008 C -3320.7579 3023.2965 -3464.8037 3054.6468 -3605.2383 3045.6309 C -3669.3862 3041.5125 -3732.491 3029.0883 -3789.6387 3004.4512 C -3846.6252 2979.8836 -3898.097 2942.4497 -3936.707 2895.0645 C -3975.2765 2847.7291 -4001.4036 2789.6826 -4014.4082 2728.7676 C -4025.675 2675.9929 -4027.1836 2619.9496 -4026.6953 2562.4609 C -4026.5483 2553.6973 -4026.3919 2544.8953 -4026.252 2536.2129 L -4020.0176 2149.3477 L -4020.0078 2148.7598 L -4020.0078 2148.7383 A 35.003496 35.003496 0 0 0 -4089.998 2147.5898 L -4089.998 2147.6113 L -4096.4609 2534.4941 C -4096.6024 2542.9628 -4096.6088 2551.5988 -4096.6973 2560.1543 C -4098.6479 2667.3034 -4103.1382 2772.3962 -4140.0625 2864.5957 C -4159.8641 2914.0401 -4189.3475 2959.1923 -4228.1973 2991.9121 C -4266.7604 3024.3905 -4316.072 3044.5361 -4364.0273 3043.8574 C -4393.1832 3043.4448 -4422.761 3035.5054 -4449.1914 3021.5762 C -4475.6713 3007.6208 -4499.4303 2987.5342 -4518.6699 2963.668 C -4557.1566 2915.9265 -4577.6053 2852.7226 -4581.1074 2788.6992 C -4584.4443 2727.6981 -4573.1145 2663.6168 -4564.6602 2596.2949 C -4556.1881 2528.8319 -4550.7754 2455.869 -4571.25 2384.1133 C -4592.553 2309.4541 -4640.401 2245.0169 -4701.6055 2199.6055 C -4762.6461 2154.3157 -4835.6122 2128.2909 -4909.6699 2119.7773 C -5046.2133 2104.0807 -5186.8914 2148.7535 -5289.8906 2239.5254 C -5392.8575 2330.2688 -5454.671 2463.7086 -5458.2637 2600.7539 C -5461.4442 2722.0749 -5419.3404 2843.0931 -5341.5449 2936.2422 C -5263.7493 3029.3913 -5152.1706 3092.3859 -5032.2246 3110.875 A 35.003496 35.003496 0 1 0 -5021.5605 3041.6914 C -5124.1695 3025.8747 -5221.2673 2971.0564 -5287.8184 2891.3711 C -5354.3693 2811.6858 -5391.0079 2706.375 -5388.2871 2602.5898 C -5385.2196 2485.5778 -5331.3107 2369.331 -5243.6094 2292.041 C -5155.9406 2214.7797 -5033.6025 2175.9904 -4917.6641 2189.3184 C -4854.5656 2196.572 -4793.1498 2218.8459 -4743.3164 2255.8203 C -4693.6468 2292.6733 -4655.143 2345.2187 -4638.5645 2403.3203 C -4622.511 2459.5816 -4625.9975 2522.9482 -4634.1133 2587.5742 C -4642.2468 2652.3414 -4654.9384 2720.5968 -4651.0039 2792.5234 C -4646.8353 2868.7307 -4622.8229 2946.0063 -4573.168 3007.6016 C -4548.337 3038.4037 -4517.4692 3064.7185 -4481.8281 3083.502 C -4446.1374 3102.3115 -4406.0747 3113.2706 -4365.0176 3113.8516 C -4297.2818 3114.8101 -4233.04 3087.5087 -4183.1055 3045.4531 C -4133.4575 3003.6389 -4098.2941 2948.5841 -4075.0801 2890.6191 C -4067.209 2870.9652 -4060.7468 2851.0686 -4055.2832 2831.0312 C -4039.0399 2869.7061 -4017.7739 2906.3911 -3990.9746 2939.2812 C -3944.5696 2996.233 -3883.9567 3040.0182 -3817.3516 3068.7324 C -3750.9079 3097.3771 -3679.8877 3110.9818 -3609.7246 3115.4863 C -3455.9452 3125.359 -3297.534 3091.4736 -3165.9512 3007.8867 C -3097.1204 2964.1626 -3036.6194 2906.7555 -2989.7734 2839.9082 C -3013.9962 2932.0779 -3050.6793 3020.9506 -3099.0098 3102.9316 C -3203.5234 3280.2139 -3362.6627 3425.2981 -3548.5527 3513.6191 C -3648.6075 3407.3082 -3774.5222 3325.9336 -3912.5977 3278.4961 C -3983.5944 3254.1042 -4064.3458 3236.8521 -4144.2168 3257.8262 C -4184.3692 3268.3702 -4222.9676 3288.6912 -4253.0449 3319.9863 C -4283.3335 3351.5012 -4303.6719 3393.3178 -4305.8301 3438.8066 C -4307.5764 3475.6146 -4297.2477 3511.2369 -4279.207 3541.6309 C -4261.2502 3571.8836 -4236.1873 3596.3657 -4208.1914 3615.0234 C -4152.3991 3652.2063 -4087.6899 3665.4994 -4027.0625 3671.627 C -3858.5447 3688.6588 -3687.9661 3654.1954 -3535.25 3584.834 C -3329.2243 3491.2602 -3153.6253 3333.4103 -3038.709 3138.4824 C -2923.7928 2943.5545 -2870.6996 2713.4828 -2888.5781 2487.9102 A 35.003496 35.003496 0 0 0 -2889.9688 2480.2715 C -2892.568 2452.4883 -2897.5509 2424.8798 -2905.0781 2397.8184 C -2926.718 2320.0205 -2969.3619 2247.7227 -3030.0117 2193.0273 C -3090.7626 2138.2407 -3168.7185 2102.4165 -3251.127 2095.3535 C -3261.4496 2094.4688 -3271.8083 2094.0461 -3282.1621 2094.082 z M -3290.5703 2167.7109 C -3229.2999 2168.2928 -3167.4334 2191.8533 -3122.1133 2232.7656 C -3070.3188 2279.5224 -3038.8648 2350.0901 -3038.7188 2419.8672 C -3038.5725 2489.6444 -3069.73 2560.3448 -3121.3281 2607.3184 C -3172.9263 2654.2918 -3246.2325 2678.6922 -3315.6895 2672.0137 C -3365.9372 2667.1822 -3415.1377 2646.5774 -3453.8496 2614.168 C -3492.5625 2581.7579 -3521.5024 2536.9478 -3535.1348 2488.3262 C -3548.7675 2439.7034 -3547.3477 2386.3753 -3531.1562 2338.5352 C -3514.9646 2290.6939 -3483.7076 2247.4609 -3443.3555 2217.0723 C -3410.056 2191.9949 -3369.9956 2175.4638 -3328.2305 2168.2578 A 35.003496 35.003496 0 0 0 -3316.7441 2168.8848 C -3308.0656 2168.0136 -3299.3232 2167.6278 -3290.5703 2167.7109 z M -4069.0098 3318.6172 C -4025.6157 3318.7361 -3979.9221 3329.3818 -3935.3438 3344.6973 C -3816.1914 3385.6335 -3706.4156 3454.3116 -3617.2383 3543.3477 C -3745.705 3592.9549 -3884.5229 3615.6753 -4020.0234 3601.9805 C -4075.245 3596.3993 -4128.2704 3584.167 -4169.3711 3556.7754 C -4189.8216 3543.1462 -4207.2522 3525.7142 -4219.0117 3505.9023 C -4230.6875 3486.2317 -4236.9209 3463.4712 -4235.9082 3442.125 C -4234.663 3415.8789 -4222.0516 3388.7561 -4202.5762 3368.4922 C -4182.8895 3348.0085 -4155.7457 3333.2257 -4126.4375 3325.5293 C -4107.9843 3320.6835 -4088.7343 3318.5631 -4069.0098 3318.6172 z "
       transform="translate(0,-1048)"
       id="path4159-7-1-0" />
    <path
       style="fill:none;fill-rule:evenodd;stroke:#000000;stroke-width:140;stroke-linecap:round;stroke-linejoin:round;stroke-miterlimit:4;stroke-dasharray:none;stroke-opacity:1"
       d="m 1314.6083,714.08224 c 4.6484,32.46962 20.0078,62.98681 41.6128,87.6669 21.605,24.68009 49.2681,43.67678 79.1554,57.19081 59.7748,27.02806 126.9367,32.17873 192.5252,33.47849 67.6733,1.34107 137.2183,-1.36645 199.6647,-27.48008 31.2232,-13.05681 60.2589,-31.99508 82.9872,-57.0709 22.7282,-25.07583 38.94,-56.4605 43.8069,-89.95202 5.4002,-37.16096 -3.4088,-75.77352 -22.0293,-108.38299 -18.6205,-32.60946 -46.6769,-59.34749 -78.7536,-78.87145 -64.1533,-39.04793 -141.816,-49.01308 -216.9147,-49.78014 -75.5483,-0.77165 -153.9211,7.73145 -219.0477,46.02847 -32.5633,19.14851 -61.1505,45.69989 -80.1975,78.32269 -19.047,32.6228 -28.1629,71.45538 -22.8094,108.85022 z"
       id="path4181-82-9"
       inkscape:path-effect="#path-effect4183-2-9"
       inkscape:original-d="m 1314.6083,714.08224 c 6.4163,123.0699 194.0891,176.7267 313.2934,178.3362 122.4939,1.6538 326.4588,-56.367 326.4588,-174.503 4.7368,-173.63438 -187.1042,-236.08048 -317.6976,-237.03458 -131.0608,-0.9573 -329.1087,97.8985 -322.0546,233.20138 z"
       inkscape:connector-curvature="0"
       sodipodi:nodetypes="aacaa" />
    <path
       style="fill:none;fill-rule:evenodd;stroke:#000000;stroke-width:140;stroke-linecap:round;stroke-linejoin:round;stroke-miterlimit:4;stroke-dasharray:none;stroke-opacity:1"
       d="m 1488.8078,878.43554 c 54.9234,6.29162 110.0924,10.43843 165.3391,12.4278 152.6494,5.49673 311.5578,-7.12905 445.2192,-81.06616 82.0772,-45.40245 151.0824,-112.33124 205.8405,-188.48639 54.7581,-76.15515 95.7487,-161.47548 128.929,-249.20871 51.3691,-135.82681 70.8509,-281.645524 68.9741,-426.849469 l -1.9689,-152.331001"
       id="path4185-6-6"
       inkscape:path-effect="#path-effect4187-0-7"
       inkscape:original-d="m 1488.8078,878.43554 c 0,0 73.7928,20.04113 165.3391,12.4278 105.7998,-8.7987 316.539,-2.35125 445.2192,-81.06616 156.6898,-95.84855 262.1309,-268.98748 334.7695,-437.6951 56.9973,-132.37979 70.6887,-294.195081 68.9741,-426.849469 l -1.9689,-152.331001"
       inkscape:connector-curvature="0"
       sodipodi:nodetypes="csaasc" />
    <path
       style="fill:none;fill-rule:evenodd;stroke:#000000;stroke-width:140;stroke-linecap:round;stroke-linejoin:round;stroke-miterlimit:4;stroke-dasharray:none;stroke-opacity:1"
       d="m 2165.9347,-539.96885 c 76.2847,-3.84231 153.6749,24.7985 209.0794,77.37674 55.4044,52.57825 88.0543,128.36431 88.2076,204.7456 0.1534,76.38128 -32.1918,152.29785 -87.3846,205.098179 -55.1929,52.80032368 -132.4675,81.751698 -208.767,78.215781 -75.7229,-3.509192 -149.4388,-38.933385 -199.5621,-95.800908 -50.1234,-56.867522 -76.0071,-134.406312 -70.1911,-209.986992 5.8159,-75.58067 43.2306,-148.21486 101.3284,-196.9068 58.0979,-48.69193 136.1122,-72.83141 211.5665,-65.5571 56.3184,5.42949 110.6387,27.82179 155.5924,62.17881 44.9538,34.35703 80.5758,80.44322 104.2392,131.83669 47.3268,102.78696 45.542,224.19448 8.5821,331.1475 -34.6718,100.331546 -99.4392,189.97921 -183.5217,254.77642 -84.0825,64.79722 -187.1372,104.55804 -292.9143,113.48848 -66.6785,5.62946 -134.8183,-1.01031 -197.7995,-23.61748 -62.9812,-22.60717 -120.2267,-61.47546 -163.3458,-112.64633 -43.1192,-51.17086 -71.4487,-113.96621 -85.4953,-179.391046 -14.0466,-65.424839 -13.928,-132.951971 -12.8506,-199.859044 l 6.1135,-379.6493 -5.9072,380.1886 c -1.6891,108.712701 -3.4539,220.472667 -44.6856,321.07708 -20.6159,50.30221 -51.3752,97.08886 -93.0664,131.97682 -41.6912,34.88795 -94.7997,57.27101 -149.1624,57.4084 -64.8103,0.16379 -127.5745,-31.60211 -171.4206,-79.32973 -43.8461,-47.72762 -69.7148,-110.19085 -80.0161,-174.17747 -10.41387,-64.685874 -5.67073,-130.701057 -3.1167,-196.17004 2.554,-65.46899 2.7243,-132.23619 -16.33595,-194.92126 -19.36299,-63.68074 -58.40409,-120.83966 -108.94935,-164.14484 -50.54527,-43.30518 -112.30092,-72.90605 -177.15314,-87.88446 -127.912,-29.54284 -268.18733,-0.30522 -373.64574,77.87906 -105.45842,78.18429 -174.20148,203.90778 -183.10813,334.88462 -8.90665,130.9768358 42.18345,264.84919 136.08664,356.59041 93.90319,91.74121 228.92904,139.69978 359.66293,127.74531"
       id="path4370-92-1-3"
       inkscape:path-effect="#path-effect4372-52-4-9-8"
       inkscape:original-d="m 2165.9347,-539.96885 c 0,0 -187.2156,558.486136 1.1354,565.4363 189.8332,7.004858 -143.0958,-530.81769 43.1417,-568.2518 192.7388,-38.74091 311.3423,333.31343 268.4137,525.163 -43.8304,195.87988 -276.5682,386.7816 -476.436,368.2649 -229.2084,-21.2348 -463.9343,-315.2792 -459.4912,-515.5139 l 6.1135,-379.6493 -5.9072,380.1886 c 8.7515,234.0944 -93.4905,484.2655 -286.9144,510.4623 -117.9406,15.9736 -203.3959,-144.6163 -251.4367,-253.5072 -52.68586,-119.4192 37.223,-273.51314 -19.45265,-391.0913 -55.18543,-114.48654 -168.57088,-300.39169 -286.10249,-252.0293 -277.17535,114.05324 -442.19811,632.8903 -61.0043,897.0994"
       inkscape:connector-curvature="0"
       sodipodi:nodetypes="caaaasccaaaac" />
    <path
       style="color:#000000;font-style:normal;font-variant:normal;font-weight:normal;font-stretch:normal;font-size:medium;line-height:normal;font-family:sans-serif;text-indent:0;text-align:start;text-decoration:none;text-decoration-line:none;text-decoration-style:solid;text-decoration-color:#000000;letter-spacing:normal;word-spacing:normal;text-transform:none;direction:ltr;block-progression:tb;writing-mode:lr-tb;baseline-shift:baseline;text-anchor:start;white-space:normal;clip-rule:nonzero;display:inline;overflow:visible;visibility:visible;opacity:1;isolation:auto;mix-blend-mode:normal;color-interpolation:sRGB;color-interpolation-filters:linearRGB;solid-color:#000000;solid-opacity:1;fill:#000000;fill-opacity:1;fill-rule:evenodd;stroke:none;stroke-width:140;stroke-linecap:round;stroke-linejoin:round;stroke-miterlimit:4;stroke-dasharray:none;stroke-dashoffset:0;stroke-opacity:1;color-rendering:auto;image-rendering:auto;shape-rendering:auto;text-rendering:auto;enable-background:accumulate"
       d="M -2487.123 5842.6602 C -2598.7486 5842.9362 -2709.5221 5878.6512 -2800.041 5945.7598 C -2922.6486 6036.6581 -3000.9439 6179.8512 -3011.2988 6332.127 C -3021.6539 6484.4027 -2963.4644 6636.8773 -2854.291 6743.5371 C -2745.1177 6850.1969 -2591.3293 6904.8184 -2439.3359 6890.9199 A 70.007 70.007 0 1 0 -2452.084 6751.502 C -2561.5585 6761.5125 -2677.822 6720.2172 -2756.4551 6643.3945 C -2835.0881 6566.5719 -2879.0794 6451.3029 -2871.6211 6341.625 C -2864.1629 6231.9472 -2804.9713 6123.693 -2716.6621 6058.2227 C -2628.3529 5992.7524 -2507.5705 5967.5777 -2400.459 5992.3164 C -2345.8159 6004.9369 -2294.2163 6029.9237 -2253.0957 6065.1543 C -2212.1372 6100.2458 -2180.7121 6146.7271 -2165.5762 6196.5059 C -2150.5749 6245.8433 -2149.7265 6304.597 -2152.2129 6368.334 C -2154.7067 6432.2611 -2160.3917 6503.0018 -2148.2598 6578.3594 C -2136.1717 6653.4442 -2105.835 6728.7338 -2050.6836 6788.7676 C -1994.7906 6849.6085 -1915.3345 6890.9621 -1827.5371 6890.7402 C -1754.0755 6890.5546 -1686.4573 6861.2215 -1633.6289 6817.0137 C -1589.1594 6779.8008 -1556.2197 6733.3544 -1532.5059 6684.1465 C -1521.6259 6701.4831 -1509.574 6718.2098 -1496.1895 6734.0938 C -1444.6533 6795.2533 -1377.2621 6840.8479 -1302.9629 6867.5176 C -1228.9732 6894.0763 -1150.8849 6901.3579 -1075.625 6895.0039 C -956.28993 6884.9289 -840.89156 6840.4354 -745.87109 6767.209 C -722.71116 6749.3611 -700.88477 6729.8894 -680.54297 6709.0078 C -689.72021 6747.4482 -701.13763 6785.1817 -715.04297 6821.9492 C -746.7874 6905.8857 -785.37268 6985.5762 -835.33008 7055.0547 C -885.16404 7124.3616 -947.09871 7183.81 -1018.2207 7223.1523 C -1035.439 7232.6769 -1053.3144 7241.0771 -1071.7461 7248.4727 C -1066.3725 7233.8658 -1062.3881 7218.5393 -1060.0703 7202.5898 C -1052.1198 7147.8789 -1064.8786 7094.4467 -1090.584 7049.4297 C -1116.0482 7004.8351 -1152.8932 6970.3309 -1193.7305 6945.4746 C -1274.7981 6896.1315 -1365.529 6886.3175 -1446.3262 6885.4922 C -1527.6206 6884.6618 -1619.1943 6892.7374 -1701.5703 6941.1777 C -1743.0752 6965.5843 -1780.6509 6999.867 -1806.7363 7044.5449 C -1833.0755 7089.6574 -1846.2854 7143.4516 -1838.3887 7198.6113 C -1831.5467 7246.4035 -1809.7642 7288.6382 -1780.1523 7322.4648 C -1750.7676 7356.0321 -1714.7196 7380.3505 -1677.168 7397.3301 C -1660.0123 7405.0873 -1642.7333 7411.2874 -1625.4648 7416.2773 A 70.007 70.007 0 0 0 -1602.8633 7422.5898 C -1601.5746 7422.7375 -1600.285 7422.8781 -1598.9961 7423.0234 C -1550.0664 7433.8713 -1501.7745 7436.1301 -1457.1895 7437.0137 C -1434.8235 7437.4569 -1411.534 7437.5833 -1387.6719 7436.5156 C -1242.0528 7438.3143 -1087.6829 7421.5681 -950.45508 7345.6582 C -857.42259 7294.1957 -781.34628 7219.7867 -721.66406 7136.7832 C -662.10528 7053.9515 -618.70998 6963.0026 -584.09375 6871.4727 C -528.93228 6725.6184 -508.6341 6571.0262 -510.59961 6418.957 L -511.35742 6360.3418 C -500.80842 6271.8696 -511.51688 6180.3077 -550.07617 6096.5625 C -578.25236 6035.3679 -620.61838 5980.2492 -675.39258 5938.3867 C -730.30319 5896.42 -796.43748 5868.9276 -866.77539 5862.1465 C -961.54114 5853.0104 -1057.0089 5882.5405 -1130.0215 5943.7324 C -1203.0457 6004.9342 -1248.865 6093.8601 -1256.1797 6188.918 C -1263.4956 6283.991 -1231.7984 6378.9824 -1168.709 6450.5605 C -1105.6094 6522.1503 -1015.2604 6565.5796 -919.875 6570 C -843.28953 6573.5492 -767.64279 6551.6746 -704.86719 6509.0254 C -736.55621 6565.9275 -779.89822 6616.6825 -831.32812 6656.3164 C -904.47271 6712.6844 -995.18324 6747.7143 -1087.4023 6755.5 C -1145.4994 6760.405 -1203.6914 6754.4057 -1255.6641 6735.75 C -1307.3272 6717.2055 -1354.4288 6685.063 -1389.1309 6643.8809 C -1423.8015 6602.7362 -1447.7934 6550.429 -1459.7148 6494.9023 C -1470.1548 6446.276 -1471.6624 6392.5284 -1471.1992 6335.6289 C -1471.0703 6327.5212 -1470.9326 6319.3469 -1470.8086 6311.3652 L -1464.918 5932.2949 L -1464.9004 5931.2148 L -1464.9004 5931.1758 A 70.007 70.007 0 0 0 -1604.8828 5928.9609 L -1604.8828 5929.002 L -1610.9961 6308.6113 C -1611.115 6315.9984 -1611.118 6323.6787 -1611.2051 6331.1895 C -1613.0968 6431.6626 -1618.0092 6526.1274 -1650.2559 6604.8086 C -1667.3823 6646.5967 -1692.4094 6683.6525 -1723.4746 6709.6484 C -1754.0286 6735.2166 -1792.6268 6750.6511 -1827.8906 6750.7402 C -1869.7139 6750.8459 -1915.7867 6728.667 -1947.5859 6694.0527 C -1980.1267 6658.6313 -2001.5264 6608.9939 -2010.041 6556.1055 C -2018.7369 6502.0913 -2014.9345 6440.8017 -2012.3203 6373.791 C -2009.6988 6306.5908 -2008.5123 6231.8097 -2031.6309 6155.7773 C -2055.2209 6078.1947 -2101.8757 6010.3566 -2162.0078 5958.8379 C -2221.9776 5907.4581 -2293.8918 5873.2426 -2368.9531 5855.9062 C -2406.1313 5847.3196 -2444 5842.9617 -2481.8066 5842.6738 C -2483.5788 5842.6603 -2485.3512 5842.6558 -2487.123 5842.6602 z M -932.97656 6003.2344 A 70.007 70.007 0 0 0 -914.24805 6004.5508 C -857.79319 6001.7073 -797.8773 6023.8803 -756.875 6062.791 C -715.87267 6101.7018 -690.59592 6160.3761 -690.48242 6216.9023 C -690.36891 6273.4287 -715.41017 6332.2023 -756.25586 6371.2773 C -797.10158 6410.3524 -856.92676 6432.7671 -913.39258 6430.1504 C -969.45283 6427.5524 -1026.5346 6400.1355 -1063.6816 6357.9902 C -1100.839 6315.8333 -1120.9098 6255.7485 -1116.5938 6199.6602 C -1112.2766 6143.5567 -1083.2671 6087.2153 -1040.0957 6051.0332 C -1010.2817 6026.0461 -972.18386 6009.384 -932.97656 6003.2363 L -932.97656 6003.2344 z M -1454.2832 7025.4453 C -1452.112 7025.4485 -1449.9365 7025.4621 -1447.7559 7025.4844 L -1447.7539 7025.4844 C -1378.3544 7026.1934 -1313.76 7036.3119 -1266.5215 7065.0645 C -1243.2054 7079.2562 -1223.937 7098.2272 -1212.1602 7118.8516 C -1200.6245 7139.0536 -1195.7654 7162.8459 -1198.6152 7182.457 C -1201.1958 7200.2151 -1210.682 7219.6508 -1225.0156 7235.4648 C -1239.5991 7251.5547 -1259.8959 7265.2436 -1283.1426 7274.9648 C -1315.0352 7288.3017 -1352.6854 7294.2924 -1393.8711 7296.3652 C -1404.9119 7296.1929 -1415.9691 7295.9161 -1427.0371 7295.5176 C -1475.8802 7293.7588 -1524.6618 7290.2333 -1573.2559 7284.9961 C -1589.7681 7281.1677 -1605.2535 7276.2003 -1619.4844 7269.7656 C -1641.7074 7259.7172 -1660.9853 7246.043 -1674.8105 7230.25 C -1688.4086 7214.7164 -1697.346 7195.9166 -1699.8008 7178.7695 C -1702.6111 7159.1397 -1697.5889 7135.2679 -1685.834 7115.1348 C -1673.8255 7094.5671 -1654.2252 7075.7479 -1630.6035 7061.8574 C -1584.2225 7034.5836 -1521.6117 7025.3477 -1454.2832 7025.4453 z "
       transform="translate(0,-1048)"
       id="path4181-82-9-2" />
    <path
       style="color:#000000;font-style:normal;font-variant:normal;font-weight:normal;font-stretch:normal;font-size:medium;line-height:normal;font-family:sans-serif;text-indent:0;text-align:start;text-decoration:none;text-decoration-line:none;text-decoration-style:solid;text-decoration-color:#000000;letter-spacing:normal;word-spacing:normal;text-transform:none;direction:ltr;block-progression:tb;writing-mode:lr-tb;baseline-shift:baseline;text-anchor:start;white-space:normal;clip-rule:nonzero;display:inline;overflow:visible;visibility:visible;opacity:1;isolation:auto;mix-blend-mode:normal;color-interpolation:sRGB;color-interpolation-filters:linearRGB;solid-color:#000000;solid-opacity:1;fill:#000000;fill-opacity:1;fill-rule:evenodd;stroke:none;stroke-width:200;stroke-linecap:round;stroke-linejoin:round;stroke-miterlimit:4;stroke-dasharray:none;stroke-dashoffset:0;stroke-opacity:1;color-rendering:auto;image-rendering:auto;shape-rendering:auto;text-rendering:auto;enable-background:accumulate"
       d="M 4828.8672 334.20117 A 100.01 100.01 0 0 0 4795.0703 341.94141 C 4711.8769 350.92978 4633.3829 388.05006 4573.8145 449.00391 C 4502.1593 522.32547 4464.8403 623.07121 4473.0605 726.07227 C 4479.644 808.56334 4514.9649 885.85696 4572.7305 944.88672 C 4630.474 1003.894 4706.805 1040.7503 4788.7363 1049.5098 C 4855.8113 1056.6809 4923.0846 1044.5839 4983.1172 1015.252 C 4952.2971 1068.1713 4911.5841 1115.4134 4863.8633 1152.5859 C 4795.5052 1205.834 4710.8404 1239.7816 4625.2988 1247.6738 C 4571.2145 1252.6638 4517.4038 1247.1082 4470.2461 1230.2012 C 4423.5186 1213.4485 4380.8062 1184.1263 4349.75 1147.1328 C 4318.7301 1110.1826 4296.6437 1062.2591 4285.6465 1010.8457 C 4276.062 966.03725 4274.436 914.70313 4274.8125 858.85352 C 4274.9366 850.46561 4275.0658 841.99307 4275.1895 833.7832 L 4281.0723 443.14844 L 4281.0957 441.64844 L 4281.0957 441.59375 A 100.01 100.01 0 0 0 4081.1211 438.52734 L 4081.1211 438.58203 L 4081.0918 440.56445 L 4075.0078 830.17773 C 4074.8948 837.41161 4074.8915 845.04694 4074.8047 852.44336 C 4072.9051 952.54296 4067.7099 1043.278 4038.1035 1115.5684 C 4022.4819 1153.7119 3999.9124 1186.5958 3973.4043 1208.7578 C 3947.6314 1230.3052 3915.2511 1242.7202 3888.2148 1242.7402 C 3856.3127 1242.7638 3817.4546 1224.645 3790.7988 1195.5898 C 3763.0748 1165.3706 3743.512 1121.1858 3735.5059 1072.8809 C 3727.283 1023.2676 3730.2078 964.06558 3732.6328 896.76953 C 3735.0663 829.23611 3736.7715 751.86709 3713.5449 670.64648 C 3689.6183 586.97796 3641.6037 512.41244 3576.6445 455.61328 C 3511.7558 398.87589 3432.2591 361.78988 3348 347.51562 C 3269.7814 334.26467 3189.7641 340.99407 3115.2793 365.68359 C 3040.8691 390.34847 2973.6737 432.32254 2918.6211 486.90625 C 2807.9543 596.63056 2753.4265 750.43253 2761.3438 902.85938 C 2768.2532 1035.8815 2821.8357 1163.5655 2911.9238 1261.6816 C 3002.0118 1359.7978 3124.6685 1424.0593 3256.6191 1442.2715 A 100.01 100.01 0 1 0 3283.9648 1244.1504 C 3199.3673 1232.4743 3116.999 1189.3197 3059.2422 1126.416 C 3001.4853 1063.5122 2965.502 977.76695 2961.0723 892.48438 C 2956.0582 795.95157 2993.0698 694.73021 3059.4336 628.93164 C 3092.8963 595.75391 3134.2964 570.08117 3178.2031 555.52734 C 3222.0355 540.99818 3269.9139 537.13818 3314.5918 544.70703 C 3362.4944 552.82217 3408.973 574.6776 3444.9941 606.17383 C 3480.9447 637.60829 3508.3233 680.42483 3521.252 725.63477 A 100.01 100.01 0 0 0 3521.252 725.63672 C 3534.0384 770.3492 3535.045 826.20556 3532.7617 889.56836 C 3530.4699 953.16855 3525.0016 1025.9789 3538.1953 1105.584 C 3551.3675 1185.0587 3583.5846 1265.5719 3643.4219 1330.7949 C 3704.3271 1397.1821 3790.7426 1442.8124 3888.3633 1442.7402 C 3970.085 1442.6793 4044.0195 1410.4087 4101.6855 1362.1973 C 4136.2937 1333.2632 4164.179 1299.4394 4186.543 1263.3516 C 4189.8075 1267.5216 4193.1486 1271.6484 4196.5723 1275.7266 C 4251.6342 1341.3152 4323.3953 1390.0192 4402.748 1418.4688 C 4481.6703 1446.764 4564.3864 1454.1434 4643.6738 1446.8281 C 4768.7718 1435.2863 4888.2463 1387.1112 4986.7676 1310.3672 C 4995.4116 1303.6339 5003.8723 1296.692 5012.1523 1289.5586 C 5006.3052 1314.2641 4999.4741 1338.5033 4991.4805 1362.1895 C 4947.1366 1493.586 4872.595 1614.5951 4773.1562 1705.7656 C 4746.3118 1730.378 4717.4102 1752.8707 4686.9004 1773.0879 C 4682.858 1734.1883 4670.2014 1697.3639 4651.4668 1664.5547 C 4623.0696 1614.8236 4582.4591 1576.9892 4537.8672 1549.8477 C 4449.5506 1496.0923 4353.22 1486.3444 4269.9805 1485.4941 C 4186.2236 1484.6387 4088.9914 1492.5288 3999.2227 1545.3164 C 3953.8856 1571.9764 3912.4574 1609.5755 3883.3555 1659.4199 C 3853.8911 1709.8851 3838.9273 1770.088 3847.9141 1832.8613 C 3855.6962 1887.2203 3880.232 1934.4781 3913.2754 1972.2246 C 3945.9944 2009.6006 3985.6364 2036.2013 4026.4727 2054.666 C 4043.9153 2062.553 4061.3653 2068.934 4078.7051 2074.1191 A 100.01 100.01 0 0 0 4111.1855 2082.5293 C 4162.9766 2093.9686 4213.0794 2096.1134 4258.2168 2097.0078 C 4309.5865 2098.0258 4367.2593 2097.6615 4426.9336 2084.3691 C 4605.3848 2056.3031 4774.4962 1975.8767 4908.3164 1853.1836 C 5035.7685 1736.329 5126.8946 1586.406 5180.9805 1426.1426 C 5232.5015 1273.479 5243.1217 1116.7549 5243.8906 967.83203 L 5244.5996 830.63867 C 5249.3421 751.95219 5237.9182 671.525 5204.8516 595.46875 C 5174.9329 526.65317 5128.1222 464.33976 5065.6309 417.82227 C 5038.3843 397.54038 5008.5828 380.64559 4976.957 367.80664 C 4934.1634 347.81094 4887.3346 336.10259 4838.8633 334.22852 A 100.01 100.01 0 0 0 4828.8672 334.20117 z M 4835.3965 539.71875 C 4836.786 539.71973 4838.172 539.7404 4839.5547 539.78125 C 4856.5981 540.28472 4874.1759 543.72848 4891.2988 549.55078 C 4917.625 561.97788 4941.2321 581.00759 4956.6426 603.70508 C 4983.3526 643.04512 4990.8739 701.20213 4975.0508 746.04297 C 4963.5784 778.55409 4939.5262 808.77024 4910.5098 827.14844 C 4881.513 845.51414 4843.997 854.2777 4809.9961 850.64258 C 4775.3517 846.93866 4739.9315 829.79042 4715.6758 805.00391 C 4691.4421 780.23991 4675.1694 744.53766 4672.4258 710.16016 C 4669.0519 667.88453 4686.6451 619.69991 4716.8516 588.79102 C 4746.2726 558.68567 4792.3204 539.68838 4835.3965 539.71875 z M 4261.6484 1685.4492 C 4263.7372 1685.4514 4265.8331 1685.4629 4267.9375 1685.4844 C 4334.8954 1686.1683 4393.8908 1696.3489 4433.8809 1720.6895 C 4453.4423 1732.5958 4468.9433 1748.2387 4477.7871 1763.7266 C 4486.2863 1778.6109 4489.4522 1796.0529 4487.6953 1808.1426 C 4486.0946 1819.1577 4479.4918 1833.4736 4468.7559 1845.3184 C 4457.663 1857.557 4441.1114 1868.9974 4421.2832 1877.2891 C 4411.0134 1881.5837 4399.7803 1885.0499 4387.6973 1887.8164 C 4355.0275 1892.6497 4322.0941 1895.2199 4289.2188 1895.3965 L 4144.5703 1884.5254 C 4131.6115 1881.2935 4119.6678 1877.3107 4108.873 1872.4297 C 4089.9347 1863.8664 4074.2508 1852.4745 4063.7598 1840.4902 C 4053.5932 1828.8766 4047.4092 1815.0998 4045.8945 1804.5195 C 4044.1743 1792.5032 4047.4427 1775.0421 4056.0723 1760.2617 C 4065.0643 1744.8605 4080.812 1729.3558 4100.6016 1717.7188 C 4139.8208 1694.6562 4196.8977 1685.3811 4261.6484 1685.4492 z "
       transform="translate(0,-1048)"
       id="path4181-82-9-9" />
  </g>
</svg>
