<?xml version="1.0" encoding="UTF-8" standalone="no"?>
<!-- Created with Inkscape (http://www.inkscape.org/) -->

<svg
   xmlns:dc="http://purl.org/dc/elements/1.1/"
   xmlns:cc="http://creativecommons.org/ns#"
   xmlns:rdf="http://www.w3.org/1999/02/22-rdf-syntax-ns#"
   xmlns:svg="http://www.w3.org/2000/svg"
   xmlns="http://www.w3.org/2000/svg"
   xmlns:sodipodi="http://sodipodi.sourceforge.net/DTD/sodipodi-0.dtd"
   xmlns:inkscape="http://www.inkscape.org/namespaces/inkscape"
   version="1.1"
   width="2000"
   height="2000"
   id="svg2992"
   inkscape:version="0.91pre2 r13516"
   sodipodi:docname="ണ.svg">
  <sodipodi:namedview
     pagecolor="#ffffff"
     bordercolor="#666666"
     borderopacity="1"
     objecttolerance="10"
     gridtolerance="10"
     guidetolerance="10"
     inkscape:pageopacity="0"
     inkscape:pageshadow="2"
     inkscape:window-width="1600"
     inkscape:window-height="853"
     id="namedview7"
     showgrid="true"
     inkscape:zoom="0.236"
     inkscape:cx="-949.52783"
     inkscape:cy="604.91012"
     inkscape:window-x="1598"
     inkscape:window-y="-3"
     inkscape:window-maximized="1"
     inkscape:current-layer="layer1"
     showguides="true"
     inkscape:guide-bbox="true">
    <inkscape:grid
       type="xygrid"
       id="grid2984" />
    <sodipodi:guide
       orientation="0,1"
       position="-2000,1600"
       id="guide2984" />
    <sodipodi:guide
       orientation="0,1"
       position="-2640,560"
       id="guide2986" />
  </sodipodi:namedview>
  <defs
     id="defs5498">
    <inkscape:path-effect
       effect="spiro"
       id="path-effect4143"
       is_visible="true" />
    <inkscape:path-effect
       effect="spiro"
       id="path-effect4372-5-9-5"
       is_visible="true" />
    <inkscape:path-effect
       effect="spiro"
       id="path-effect4372-5-9-5-9"
       is_visible="true" />
    <inkscape:path-effect
       effect="spiro"
       id="path-effect4143-4"
       is_visible="true" />
    <inkscape:path-effect
       effect="spiro"
       id="path-effect4372-5-9-5-9-8"
       is_visible="true" />
  </defs>
  <metadata
     id="metadata5594">
    <rdf:RDF>
      <cc:Work
         rdf:about="">
        <dc:format>image/svg+xml</dc:format>
        <dc:type
           rdf:resource="http://purl.org/dc/dcmitype/StillImage" />
        <dc:title />
      </cc:Work>
    </rdf:RDF>
  </metadata>
  <g
     transform="translate(0,1000)"
     id="layer1">
    <path
       style="color:#000000;font-style:normal;font-variant:normal;font-weight:normal;font-stretch:normal;font-size:medium;line-height:normal;font-family:sans-serif;text-indent:0;text-align:start;text-decoration:none;text-decoration-line:none;text-decoration-style:solid;text-decoration-color:#000000;letter-spacing:normal;word-spacing:normal;text-transform:none;direction:ltr;block-progression:tb;writing-mode:lr-tb;baseline-shift:baseline;text-anchor:start;clip-rule:nonzero;display:inline;overflow:visible;visibility:visible;opacity:1;isolation:auto;mix-blend-mode:normal;color-interpolation:sRGB;color-interpolation-filters:linearRGB;solid-color:#000000;solid-opacity:1;fill:#000000;fill-opacity:1;fill-rule:evenodd;stroke:none;stroke-width:140;stroke-linecap:round;stroke-linejoin:round;stroke-miterlimit:4;stroke-dasharray:none;stroke-dashoffset:0;stroke-opacity:1;color-rendering:auto;image-rendering:auto;shape-rendering:auto;text-rendering:auto;enable-background:accumulate"
       d="m 2291.5293,-599.83594 c -171.7049,2.39617 -339.9143,94.38691 -431.3633,240.25586 -84.0529,-195.63201 -332.2175,-292.95375 -526.6551,-206.45226 -108.311,43.85909 -194.7618,134.77605 -238.5343,242.5382 C 939.12175,-571.31861 593.68165,-669.85856 330.40086,-541.22479 72.415324,-430.23815 -98.521779,-118.28694 0.12063499,154.9206 69.245443,376.11086 334.21869,518.72564 552.69865,424.94594 757.90654,348.41481 852.63885,79.307931 740.39234,-108.84359 638.77912,-305.74379 355.27685,-365.19371 182.79999,-226.65887 c -14.31596,-7.82082 74.77573,-110.61219 122.41078,-138.51026 178.19485,-133.92847 448.14554,-120.28255 606.90762,38.84858 103.38071,96.58187 149.34401,239.73693 142.57831,378.774111 7.3113,114.604679 5.7235,230.521679 18.6105,344.307989 21.1644,68.97878 133.3632,53.74823 135.3734,-18.37641 -3.3235,-123.68045 -8.9615,-247.3581 -13.1606,-371.0374838 -9.4167,-102.4503022 -8.112,-235.8954962 57.3245,-331.5475062 85.1681,-145.99873 310.5326,-181.44441 427.0157,-53.43936 121.3221,129.15154 89.6983,315.86172 98.5664,478.46497 4.0922,99.57442 -0.5272,200.2174 9.1562,299.11128 19.4902,69.4704 132.0244,56.95748 135.7781,-15.09746 0.61,-168.97351 -9.9865,-338.284116 -4.0162,-507.07188 20.7168,-215.29183 245.0348,-376.87232 455.6874,-330.53338 217.9332,36.86329 365.0631,283.78454 291.9173,492.659112 -47.6392,162.410758 -211.378,274.180798 -378.8601,270.243158 -71.5347,9.42239 -75.1372,122.59288 -4.3465,136.54577 258.6183,18.29563 504.5421,-191.45148 536.0023,-447.65861457 C 2861.4628,-254.57678 2687.638,-519.28238 2438.2432,-581.62569 c -47.6917,-13.07719 -97.2676,-19.23534 -146.7139,-18.21025 z M 416.69727,-162.89844 C 569.04002,-163.33235 687.60127,3.0672164 636.90836,146.7678 594.23199,295.40483 403.29801,357.73157 274.61625,279.54368 145.64058,209.90184 88.478397,48.367104 120.71289,-90.769531 c 30.53397,49.981588 102.48862,34.725293 129.76472,-10.405579 45.23914,-39.97608 105.71581,-63.10464 166.21966,-61.72333 z"
       id="path4370-9-3-9"
       inkscape:connector-curvature="0" />
    <path
       style="fill:none;fill-rule:evenodd;stroke:#000000;stroke-width:140;stroke-linecap:round;stroke-linejoin:round;stroke-miterlimit:4;stroke-dasharray:none;stroke-opacity:1"
       d="m -2794.6848,-140.2622 c 59.4111,-66.86996 149.1177,-105.71406 238.5347,-103.28844 89.4169,2.42563 176.8857,46.07598 232.5841,116.06853 55.6984,69.992545 78.5933,165.029242 60.8789,252.70743 -17.7145,87.67818 -75.7099,166.37182 -154.2127,209.25041 -81.5115,44.52194 -182.5513,49.57936 -269.6937,17.4464 -87.1425,-32.13296 -159.6739,-99.97405 -201.5523,-182.87473 -41.8785,-82.90068 -53.5999,-179.880282 -37.1053,-271.28191 16.4946,-91.40163 60.5081,-177.04075 121.8489,-246.78056 110.678,-125.83249 280.2483,-198.52963 447.5275,-188.4745 135.2609,8.13051 266.6092,69.50368 359.6284,168.03822 93.0191,98.53455 146.7331,233.1965 147.0675,368.70115259 L -1835.7816,362.50463 -1851.4634,8.2986826 c -2.5895,-58.4897896 -4.7939,-117.2417426 1.4773,-175.4519926 6.2712,-58.21025 21.0936,-115.84819 47.5446,-168.07947 26.451,-52.23127 64.5075,-98.7572 111.5282,-133.64007 47.0207,-34.88287 102.8104,-57.95406 160.8108,-65.93654 59.0327,-8.12456 120.2421,-0.5056 175.222,22.47441 54.9799,22.98002 103.3113,61.26048 139.1254,108.88632 35.8141,47.62585 58.8993,104.0974 71.2472,162.3932 12.3479,58.2958 14.0877,118.24598 15.2384,177.824053 l 8.3161,430.559437 -7.2482,-434.367107 c -5.6434,-133.307683 50.9801,-267.960713 150.19636,-357.173453 99.21631,-89.21273 239.10774,-131.26081 371.06857,-111.53448 111.98127,16.73966 216.8647,77.08273 287.62012,165.47781 70.75542,88.39509 106.66624,203.94695 98.47765,316.875993 -8.18858,112.929039 -60.39364,222.091537 -143.16108,299.354547 -82.76743,77.26301 -195.259,121.84402 -308.48379,122.25379"
       id="path4370-9-3-9-2"
       inkscape:path-effect="#path-effect4372-5-9-5-9"
       inkscape:original-d="m -2794.6848,-140.2622 c 702.9353,-337.38174 424.0226,466.57143 377.785,474.73793 -576.8725,101.8879 -478.9593,-562.94848 -386.5024,-683.4908 108.6564,-141.66293 -12.3481,-275.81559 447.5275,-188.4745 561.4427,90.44532 506.6959,536.73937259 506.6959,536.73937259 L -1835.7816,362.50463 -1851.4634,8.2986826 c -45.0609,-498.8647526 -161.2946,-684.7394426 321.3609,-543.1080726 197.6445,63.30041 400.9719,384.54487 400.833,471.577983 l 8.3161,430.559437 -7.2482,-434.367107 c 178.43103,-743.572993 311.41283,-571.482183 521.26493,-468.707933 271.3207,132.87829 -65.5471,903.96214 -65.5471,903.96214"
       inkscape:connector-curvature="0"
       sodipodi:nodetypes="csssscccsccac" />
  </g>
</svg>
