<?xml version="1.0" encoding="UTF-8" standalone="no"?>
<!-- Created with Inkscape (http://www.inkscape.org/) -->

<svg
   xmlns:dc="http://purl.org/dc/elements/1.1/"
   xmlns:cc="http://creativecommons.org/ns#"
   xmlns:rdf="http://www.w3.org/1999/02/22-rdf-syntax-ns#"
   xmlns:svg="http://www.w3.org/2000/svg"
   xmlns="http://www.w3.org/2000/svg"
   xmlns:sodipodi="http://sodipodi.sourceforge.net/DTD/sodipodi-0.dtd"
   xmlns:inkscape="http://www.inkscape.org/namespaces/inkscape"
   version="1.1"
   width="2000"
   height="2000"
   id="svg2992"
   inkscape:version="0.91pre2 r13516"
   sodipodi:docname="ണ.svg">
  <sodipodi:namedview
     pagecolor="#ffffff"
     bordercolor="#666666"
     borderopacity="1"
     objecttolerance="10"
     gridtolerance="10"
     guidetolerance="10"
     inkscape:pageopacity="0"
     inkscape:pageshadow="2"
     inkscape:window-width="1600"
     inkscape:window-height="853"
     id="namedview7"
     showgrid="true"
     inkscape:zoom="0.236"
     inkscape:cx="-63.456691"
     inkscape:cy="604.91012"
     inkscape:window-x="1598"
     inkscape:window-y="-3"
     inkscape:window-maximized="1"
     inkscape:current-layer="layer1"
     showguides="true"
     inkscape:guide-bbox="true">
    <inkscape:grid
       type="xygrid"
       id="grid2984" />
    <sodipodi:guide
       orientation="0,1"
       position="-2000,1600"
       id="guide2984" />
    <sodipodi:guide
       orientation="0,1"
       position="-2640,560"
       id="guide2986" />
  </sodipodi:namedview>
  <defs
     id="defs5498">
    <inkscape:path-effect
       effect="spiro"
       id="path-effect4143"
       is_visible="true" />
    <inkscape:path-effect
       effect="spiro"
       id="path-effect4372-5-9-5"
       is_visible="true" />
    <inkscape:path-effect
       effect="spiro"
       id="path-effect4372-5-9-5-9"
       is_visible="true" />
    <inkscape:path-effect
       effect="spiro"
       id="path-effect4143-4"
       is_visible="true" />
    <inkscape:path-effect
       effect="spiro"
       id="path-effect4372-5-9-5-9-8"
       is_visible="true" />
    <inkscape:path-effect
       effect="spiro"
       id="path-effect4372-5-9-5-9-0"
       is_visible="true" />
  </defs>
  <metadata
     id="metadata5594">
    <rdf:RDF>
      <cc:Work
         rdf:about="">
        <dc:format>image/svg+xml</dc:format>
        <dc:type
           rdf:resource="http://purl.org/dc/dcmitype/StillImage" />
        <dc:title />
      </cc:Work>
    </rdf:RDF>
  </metadata>
  <g
     transform="translate(0,1000)"
     id="layer1">
    <path
       style="fill:none;fill-rule:evenodd;stroke:#000000;stroke-width:140;stroke-linecap:round;stroke-linejoin:round;stroke-miterlimit:4;stroke-dasharray:none;stroke-opacity:1"
       d="m -3336.4136,241.09373 c -38.6519,-71.02262 -47.3931,-157.72608 -23.6956,-235.0346237 23.6975,-77.3085443 79.5263,-144.2192463 151.34,-181.3806663 71.8137,-37.16143 158.6807,-44.09148 235.4779,-18.78589 76.7972,25.30558 142.5283,82.51851 178.1831,155.092062 30.727,62.543258 39.0844,135.892285 22.6825,203.618068 -16.4019,67.72579 -57.5395,129.26631 -114.169,169.87305 -78.6835,56.42077 -184.9603,69.88776 -277.1254,40.22312 -92.165,-29.66464 -169.164,-100.26696 -212.0136,-187.09034 -42.8497,-86.82337 -52.3596,-188.56659608 -32.1797,-283.261714 20.1798,-94.695116 69.1135,-182.245496 134.8163,-253.361866 113.419,-122.76419 280.592,-196.68655 447.5275,-188.4745 142.8987,7.0296 281.8769,74.23462 376.1216,181.87933 94.2447,107.6447 142.4924,254.28582 130.5743,396.860043 l 7.3972,331.254827 -9.6818,-322.205947 c -2.0858,-69.414409 -3.3948,-139.328372 8.1426,-207.809013 11.5374,-68.48065 36.0272,-135.2168 75.4089,-192.41639 39.3816,-57.19959 93.2685,-104.27801 155.1438,-135.8084 61.8752,-31.53039 131.2358,-47.5883 200.6656,-49.07427 70.3954,-1.50663 141.3642,11.96515 205.2207,41.63224 63.8565,29.66709 120.0754,75.62618 161.6689,132.43967 41.5935,56.8135 68.1414,123.87685 81.3896,193.03085 13.2481,69.154005 13.3066,140.067678 12.5538,210.475223 l -3.6839,344.559437 4.7518,-348.367107 c 1.0627,-77.912804 3.0975,-156.474843 21.0549,-232.297433 17.9574,-75.82259 52.0676,-148.47879 103.6966,-206.83953 51.6291,-58.36074 120.2305,-101.57675 195.2777,-122.53983 75.0472,-20.96308 155.79805,-19.80909 230.89673,0.96886 104.04279,28.78607 197.15893,95.45607 257.93184,184.67598 60.77291,89.21991 88.71959,200.28065 77.41234,307.638396 -11.30725,107.357743 -61.77858,210.159254 -139.80562,284.760324 -78.02705,74.60106 -182.9897,120.40878 -290.74668,126.88744"
       id="path4370-9-3-9-2"
       inkscape:path-effect="#path-effect4372-5-9-5-9"
       inkscape:original-d="m -3336.4136,241.09373 c -13.2813,-401.09373 381.653,-405.75083 541.3054,-280.109118 100.7269,79.269056 208.6675,320.477818 -91.4865,373.491118 -300.154,53.01329 -478.9593,-562.94848 -386.5024,-683.4908 108.6564,-141.66293 -12.3481,-275.81559 447.5275,-188.4745 561.4427,90.44532 506.6959,578.739373 506.6959,578.739373 l 7.3972,331.254827 -9.6818,-322.205947 c -45.0609,-498.864753 195.4861,-581.527573 439.3609,-585.108073 246.2712,-3.61568 458.733,490.570096 460.833,577.577983 l -3.6839,344.559437 4.7518,-348.367107 C -1411.6949,-666 -1093.0015,-657.64078 -868.97057,-521.74701 -51.694915,-26 -964.17869,382.21513 -964.17869,382.21513"
       inkscape:connector-curvature="0"
       sodipodi:nodetypes="cazsssccasccsc" />
    <path
       style="color:#000000;font-style:normal;font-variant:normal;font-weight:normal;font-stretch:normal;font-size:medium;line-height:normal;font-family:sans-serif;text-indent:0;text-align:start;text-decoration:none;text-decoration-line:none;text-decoration-style:solid;text-decoration-color:#000000;letter-spacing:normal;word-spacing:normal;text-transform:none;direction:ltr;block-progression:tb;writing-mode:lr-tb;baseline-shift:baseline;text-anchor:start;clip-rule:nonzero;display:inline;overflow:visible;visibility:visible;opacity:1;isolation:auto;mix-blend-mode:normal;color-interpolation:sRGB;color-interpolation-filters:linearRGB;solid-color:#000000;solid-opacity:1;fill:#000000;fill-opacity:1;fill-rule:evenodd;stroke:none;stroke-width:140;stroke-linecap:round;stroke-linejoin:round;stroke-miterlimit:4;stroke-dasharray:none;stroke-dashoffset:0;stroke-opacity:1;color-rendering:auto;image-rendering:auto;shape-rendering:auto;text-rendering:auto;enable-background:accumulate"
       d="M 714.88672,-622.49414 C 537.64999,-620.61289 367.2603,-539.97892 248.0293,-410.92383 174.65038,-331.49882 119.32056,-233.30444 96.166016,-124.65039 72.921555,-15.574358 83.401641,101.58241 134.03711,204.18164 184.95025,307.34353 275.1988,390.82027 387.375,426.92578 500.36117,463.29199 628.08367,447.69635 726.73828,376.95508 797.53956,326.18631 847.72942,250.99281 868.15039,166.67188 888.55413,82.422039 878.32459,-6.8139063 840.26172,-84.289062 796.01347,-174.35426 716.46502,-243.59333 621.1582,-274.99805 c -95.30681,-31.40473 -200.43441,-23.01845 -289.55664,23.09961 -17.75584,9.18811 -34.61023,19.81529 -50.52344,31.61328 19.28188,-34.22463 42.83275,-66.46371 69.78321,-95.63476 99.65822,-107.86961 248.61708,-173.14702 392.67187,-166.06055 123.25547,6.06329 245.60484,65.22661 326.8945,158.07422 59.3436,67.78127 97.8756,154.89475 110.4239,244.828125 -1.3865,40.081685 -0.5011,79.19620415 0.5605,116.9375 l 9.6817,344.207035 a 70.007,70.007 0 0 0 139.957,-3.4336 l -7.3457,-350.810544 c 2.8744,-38.184666 2.0657,-76.449558 -2.3457,-114.238282 1.2132,-25.309294 3.4881,-49.920124 7.5156,-73.662104 10.1455,-59.80791 31.4742,-116.88936 64.1035,-164.31055 32.6236,-47.41308 77.784,-86.96431 129.1367,-113.21094 51.527,-26.33567 110.6171,-40.3015 170.1953,-41.63477 60.4418,-1.35258 120.98,10.32128 174.2032,35.04297 53.0385,24.63591 100.2115,63.23593 134.6679,110.32227 34.4641,47.09691 57.5348,104.48324 69.0996,164.89258 11.5861,60.52053 12.048,126.714642 11.3008,196.589841 l -3.6797,344.271489 -0,0.082 -0,0.20508 a 70.007,70.007 0 0 0 139.9883,1.70312 l 0,-0.20508 0,0 0,-0.375 4.7442,-347.785154 a 70.007,70.007 0 0 0 0,-0.002 c 1.0548,-77.336016 3.446,-150.694122 19.1777,-217.119142 15.6872,-66.23713 45.3464,-128.36376 88.0098,-176.58984 42.6025,-48.15729 99.9975,-84.2716 161.6816,-101.50195 61.8748,-17.28361 130.0869,-16.50111 193.3984,1.01562 87.6164,24.24128 167.5661,81.48337 218.7442,156.61719 51.178,75.13377 75.1725,170.49047 65.6504,260.898435 -9.522,90.407925 -52.8564,178.673105 -118.5645,241.496095 -65.7081,62.82299 -155.83,102.15357 -246.5742,107.60937 a 70.007,70.007 0 1 0 8.4024,139.74805 c 124.7697,-7.50152 244.5738,-59.78493 334.9199,-146.16406 90.3459,-86.37915 147.9545,-203.717826 161.0468,-328.025392 13.0926,-124.307538 -18.806,-251.070908 -89.1738,-354.376958 -70.3679,-103.30599 -176.6499,-179.40353 -297.1191,-212.73437 -86.8859,-24.03915 -180.175,-25.56443 -268.3945,-0.92188 -88.4103,24.69581 -168.2194,75.01198 -228.875,143.57618 -28.955,32.73024 -52.8246,68.83954 -72.1211,106.91796 -11.3425,-21.56038 -24.0737,-42.53014 -38.6856,-62.49804 -48.7151,-66.5715 -113.9782,-119.92461 -188.6719,-154.61914 -74.509,-34.60875 -155.9487,-49.83353 -236.3105,-48.03516 -79.1973,1.77231 -158.7045,20.10166 -230.7793,56.93945 -72.2491,36.92684 -134.697,91.57191 -180.7578,158.51368 -15.7204,22.84691 -29.1397,46.84271 -40.7266,71.52539 -17.9147,-29.56106 -38.239,-57.73281 -61.1543,-83.90625 -107.1999,-122.44179 -262.80767,-197.68964 -425.34959,-205.68555 -11.86352,-0.5836 -23.70961,-0.80706 -35.52539,-0.68164 z m -206.18164,469.16602 c 23.47237,0.36397 46.78083,4.09445 68.63867,11.29687 58.28759,19.20644 110.2024,64.392682 137.26367,119.474609 23.39105,47.611361 29.87667,105.073659 17.47656,156.275391 -12.38289,51.13064 -44.47005,99.01818 -86.92773,129.46289 C 586.44392,305.28191 501.6135,316.62127 430.26953,293.6582 382.37325,278.2421 338.2416,247.56626 303.76562,208.10352 a 70.007,70.007 0 0 0 -6.15234,-14.87696 C 268.27723,139.32177 261.37342,70.843653 279.35938,12.167969 c 17.98594,-58.675685 62.07875,-111.521767 116.58398,-139.726559 34.06576,-17.62801 73.6411,-26.37616 112.76172,-25.76953 z"
       id="path4370-9-3-9-2-4"
       inkscape:connector-curvature="0" />
  </g>
</svg>
