<?xml version="1.0" encoding="UTF-8" standalone="no"?>
<!-- Created with Inkscape (http://www.inkscape.org/) -->

<svg
   xmlns:dc="http://purl.org/dc/elements/1.1/"
   xmlns:cc="http://creativecommons.org/ns#"
   xmlns:rdf="http://www.w3.org/1999/02/22-rdf-syntax-ns#"
   xmlns:svg="http://www.w3.org/2000/svg"
   xmlns="http://www.w3.org/2000/svg"
   xmlns:sodipodi="http://sodipodi.sourceforge.net/DTD/sodipodi-0.dtd"
   xmlns:inkscape="http://www.inkscape.org/namespaces/inkscape"
   version="1.1"
   width="2000"
   height="2000"
   id="svg2992"
   inkscape:version="0.91 r13725"
   sodipodi:docname="ണ.svg">
  <sodipodi:namedview
     pagecolor="#ffffff"
     bordercolor="#666666"
     borderopacity="1"
     objecttolerance="10"
     gridtolerance="10"
     guidetolerance="10"
     inkscape:pageopacity="0"
     inkscape:pageshadow="2"
     inkscape:window-width="1366"
     inkscape:window-height="704"
     id="namedview7"
     showgrid="true"
     inkscape:zoom="0.1668772"
     inkscape:cx="1980.7502"
     inkscape:cy="194.06177"
     inkscape:window-x="-6"
     inkscape:window-y="0"
     inkscape:window-maximized="1"
     inkscape:current-layer="layer1"
     showguides="true"
     inkscape:guide-bbox="true">
    <inkscape:grid
       type="xygrid"
       id="grid2984" />
    <sodipodi:guide
       orientation="0,1"
       position="-2000,1600"
       id="guide2984" />
    <sodipodi:guide
       orientation="0,1"
       position="-2640,600"
       id="guide2986"
       inkscape:label=""
       inkscape:color="rgb(0,0,255)" />
  </sodipodi:namedview>
  <defs
     id="defs5498">
    <inkscape:path-effect
       effect="spiro"
       id="path-effect4143"
       is_visible="true" />
    <inkscape:path-effect
       effect="spiro"
       id="path-effect4372-5-9-5"
       is_visible="true" />
    <inkscape:path-effect
       effect="spiro"
       id="path-effect4372-5-9-5-9"
       is_visible="true" />
    <inkscape:path-effect
       effect="spiro"
       id="path-effect4143-4"
       is_visible="true" />
    <inkscape:path-effect
       effect="spiro"
       id="path-effect4372-5-9-5-9-8"
       is_visible="true" />
    <inkscape:path-effect
       effect="spiro"
       id="path-effect4372-5-9-5-9-0"
       is_visible="true" />
    <inkscape:path-effect
       effect="spiro"
       id="path-effect4372-5-9-5-9-4"
       is_visible="true" />
    <inkscape:path-effect
       effect="spiro"
       id="path-effect4372-5-9-5-9-2"
       is_visible="true" />
    <inkscape:path-effect
       effect="spiro"
       id="path-effect4372-5-9-5-9-9"
       is_visible="true" />
    <inkscape:path-effect
       effect="spiro"
       id="path-effect4372-5-9-5-9-9-8"
       is_visible="true" />
    <inkscape:path-effect
       effect="spiro"
       id="path-effect4372-5-9-5-9-1"
       is_visible="true" />
    <inkscape:path-effect
       effect="spiro"
       id="path-effect4372-5-9-5-9-90"
       is_visible="true" />
    <inkscape:path-effect
       effect="spiro"
       id="path-effect4372-5-9-5-9-90-9"
       is_visible="true" />
    <inkscape:path-effect
       effect="spiro"
       id="path-effect4372-5-9-5-9-17"
       is_visible="true" />
    <inkscape:path-effect
       effect="spiro"
       id="path-effect4372-5-9-5-9-17-9"
       is_visible="true" />
    <inkscape:path-effect
       effect="spiro"
       id="path-effect4372-5-9-5-9-90-2"
       is_visible="true" />
    <inkscape:path-effect
       effect="spiro"
       id="path-effect4372-5-9-5-9-90-2-0"
       is_visible="true" />
  </defs>
  <metadata
     id="metadata5594">
    <rdf:RDF>
      <cc:Work
         rdf:about="">
        <dc:format>image/svg+xml</dc:format>
        <dc:type
           rdf:resource="http://purl.org/dc/dcmitype/StillImage" />
        <dc:title />
      </cc:Work>
    </rdf:RDF>
  </metadata>
  <g
     transform="translate(0,1000)"
     id="layer1">
    <path
       style="fill:none;fill-rule:evenodd;stroke:#000000;stroke-width:140;stroke-linecap:round;stroke-linejoin:round;stroke-miterlimit:4;stroke-dasharray:none;stroke-opacity:1"
       d="m 234.49054,213.17767 c -19.67559,-41.37952 -27.88022,-88.1423 -23.46645,-133.748352 4.41376,-45.606054 21.43357,-89.9276 48.67912,-126.766078 27.24555,-36.838479 64.64051,-66.09067 106.95502,-83.66553 42.31451,-17.57485 89.43002,-23.42313 134.75721,-16.72693 51.63902,7.62865 100.77259,31.64248 138.33036,67.894343 37.55778,36.251863 63.32111,84.5901184 72.20975,136.027228 8.88865,51.437109 0.81118,105.703389 -22.91264,152.200319 -23.72382,46.49693 -62.99785,84.9357 -110.11007,107.41286 C 526.23831,340.946 464.65086,345.76937 407.94219,331.88111 351.23352,317.99285 299.54636,285.90785 259.77159,243.16765 219.99683,200.42746 191.96014,147.33007 176.24499,91.100271 160.52984,34.870468 156.92992,-24.426277 162.77184,-82.51783 c 12.02674,-119.59291 65.26439,-235.2476 150.91854,-319.57122 85.65415,-84.32363 203.52419,-136.02149 323.69896,-138.28659 62.51663,-1.17834 125.49673,10.85604 182.24135,37.11944 56.74461,26.26341 106.80275,66.83738 144.12179,117.00716 37.31902,50.16978 61.53492,109.42075 74.15282,170.66212 12.618,61.24136 13.7249,124.191879 14.1186,186.718373 l 2.3286,369.811127 -2.7491,-368.538287 c -0.4291,-57.526973 -0.5643,-115.276273 7.2397,-172.273053 7.8041,-56.99678 23.6554,-113.28929 51.053,-163.87496 27.3976,-50.58568 66.4457,-95.20137 114.6145,-126.6546 48.1688,-31.45324 105.3646,-49.41871 162.8926,-49.16176 56.8147,0.25376 113.1503,18.26552 160.6868,49.38246 47.5365,31.11694 86.1899,75.03092 113.5733,124.81175 27.3834,49.78083 43.5948,105.18245 52.0198,161.36964 8.4249,56.18719 9.1645,113.207873 9.6186,170.021373 l 2.9975,375.024737 -1.9403,-378.687627 c -0.3444,-67.214003 0.2052,-135.034663 14.8929,-200.625143 14.6878,-65.59047 43.6989,-128.50891 87.9431,-179.10827 44.2442,-50.59936 103.1583,-88.13835 167.6277,-107.15252 64.4694,-19.01417 133.8497,-19.70778 199.4042,-4.86032 105.4732,23.88866 201.1845,88.47236 262.812,177.33923 61.6274,88.86688 88.5654,201.14356 73.9684,308.29856 -14.597,107.154996 -70.5854,208.1352 -153.7377,277.27976 -83.1522,69.14455 -192.6511,105.77391 -300.6709,100.57991"
       id="path4370-9-3-9-2"
       inkscape:path-effect="#path-effect4372-5-9-5-9"
       inkscape:original-d="m 234.49054,213.17767 c -13.1473,-385.84329 121.4268,-395.82804 266.9249,-360.90689 152.3311,36.56115 215.9987,390.29252 77.5174,463.53475 -169.7427,89.7763 -415.7841,-206.30189 -416.161,-398.32336 -0.4315,-219.82161 255.2056,-471.27952 474.6175,-457.85781 219.0751,13.40111 407.21926,381.21048 414.63456,511.507093 l 2.3286,369.811127 -2.7491,-368.538287 c -18.6627,-448.531413 131.7122,-511.362323 335.7998,-511.964373 202.3311,-0.59687 334.7829,421.86847 335.8985,505.585223 l 2.9975,375.024737 -1.9403,-378.687627 c 8.1189,-678.156793 265.628,-590.158603 469.8679,-491.746253 261.6953,126.09709 -117.6282,863.49746 -117.6282,863.49746"
       inkscape:connector-curvature="0"
       sodipodi:nodetypes="caaaacccasccac" />
    <path
       style="color:#000000;font-style:normal;font-variant:normal;font-weight:normal;font-stretch:normal;font-size:medium;line-height:normal;font-family:sans-serif;text-indent:0;text-align:start;text-decoration:none;text-decoration-line:none;text-decoration-style:solid;text-decoration-color:#000000;letter-spacing:normal;word-spacing:normal;text-transform:none;direction:ltr;block-progression:tb;writing-mode:lr-tb;baseline-shift:baseline;text-anchor:start;white-space:normal;clip-rule:nonzero;display:inline;overflow:visible;visibility:visible;opacity:1;isolation:auto;mix-blend-mode:normal;color-interpolation:sRGB;color-interpolation-filters:linearRGB;solid-color:#000000;solid-opacity:1;fill:#000000;fill-opacity:1;fill-rule:evenodd;stroke:none;stroke-width:140;stroke-linecap:round;stroke-linejoin:round;stroke-miterlimit:4;stroke-dasharray:none;stroke-dashoffset:0;stroke-opacity:1;color-rendering:auto;image-rendering:auto;shape-rendering:auto;text-rendering:auto;enable-background:accumulate"
       d="m -2281.3867,-618.49805 c -139.3773,2.62705 -273.1482,61.57817 -371.4883,158.39063 -98.1237,96.59949 -157.824,226.86392 -171.459,362.449217 -6.6029,65.65871 -2.6981,133.617421 15.7051,199.464843 13.5579,48.51138 35.0241,95.35363 64.5801,137.40039 a 70.007,70.007 0 0 0 12.1914,16.29688 c 7.2645,9.32696 14.7977,18.48067 22.9277,27.21679 48.4759,52.09013 111.406,91.53976 182.7637,109.01563 71.7195,17.5645 149.0979,11.881 217.7832,-20.88867 61.4594,-29.32221 111.4805,-78.33353 142.3203,-138.77735 30.8215,-60.40758 41.0441,-129.34417 29.5371,-195.933591 -11.5004,-66.550527 -44.1518,-127.735853 -92.5723,-174.472659 -48.3928,-46.71032 -110.4164,-76.98304 -176.7148,-86.77734 -58.0942,-8.58228 -117.603,-1.19495 -171.8359,21.33008 -36.4214,15.12722 -69.5706,36.88565 -98.0684,63.76367 19.1024,-83.1842 61.2472,-161.43994 121.0586,-220.32227 72.9683,-71.8348 174.9359,-116.27847 275.9082,-118.18164 52.6525,-0.99241 105.2968,9.26381 151.5215,30.65821 46.0462,21.31179 87.1424,54.64037 117.3574,95.25976 30.2216,40.62835 50.9132,90.36356 61.7598,143.00781 a 70.007,70.007 0 0 0 0,0.002 c 8.308,40.32283 11.069,83.92457 12.0957,129.904294 -0.045,15.028517 0.055,29.866237 0.164,44.482422 l 2.7481,368.457034 0,0.082 a 70.007,70.007 0 0 0 139.9961,-0.96289 l 0,-0.082 -0,-0.44532 -2.3242,-369.285152 c -0.089,-14.083512 -0.2407,-28.467644 -0.5157,-42.978516 0.2024,-41.186482 1.5682,-80.680242 6.6895,-118.083982 6.9162,-50.51231 20.8266,-98.63002 43.2519,-140.03516 22.3416,-41.25041 54.0378,-77.02523 91.334,-101.37891 37.1459,-24.25552 81.561,-37.96631 124.3086,-37.77539 42.2273,0.18861 85.9729,13.93477 122.6621,37.95118 36.8348,24.1117 68.2233,59.34314 90.5781,99.98242 22.4358,40.78643 36.6541,88.17408 44.127,138.01172 7.4841,49.91307 8.3935,103.620798 8.8457,160.201169 l 2.9961,374.705081 0,0.11914 0,0.20117 a 70.007,70.007 0 0 0 139.996,-0.91992 l -0,-0.19922 0,0 -0,-0.35547 -1.9375,-378.132812 c -0.3412,-66.591168 0.6805,-129.055678 13.2012,-184.968748 12.4786,-55.72521 37.0346,-107.96065 72.332,-148.32813 35.2682,-40.33402 83.14386,-70.87213 134.73437,-86.08789 51.84238,-15.29003 109.41993,-16.12373 164.13867,-3.73047 87.86179,19.89985 169.41477,74.92873 220.75195,148.95703 51.33719,74.02831 74.2905,169.69819 62.13086,258.960942 -12.15963,89.262759 -59.86493,175.305178 -129.13281,232.904298 -69.26788,57.59912 -162.56953,88.8111 -252.55273,84.48437 a 70.007,70.007 0 1 0 -6.72461,139.83789 c 126.05647,6.06127 251.75246,-35.9858 348.78906,-116.67578 97.0366,-80.68997 161.30554,-196.607074 178.33984,-321.654294 17.03431,-125.047216 -13.88698,-253.931276 -85.80468,-357.636716 -71.9177,-103.70544 -181.78649,-177.84323 -304.8711,-205.72071 -76.39027,-17.30165 -157.57352,-16.74805 -234.66992,5.99024 -77.3483,22.81258 -147.3013,67.35211 -200.5215,128.2168 -18.8344,21.53974 -35.073,44.74052 -49.1015,68.99804 -0.8263,-1.54326 -1.555,-3.11728 -2.4004,-4.65429 -32.412,-58.92238 -78.3302,-111.51845 -136.5684,-149.64063 -58.3838,-38.21747 -127.3107,-60.49554 -198.7129,-60.81445 -72.3083,-0.32296 -142.285,21.89984 -201.4766,60.55078 -59.0413,38.55279 -105.4408,92.00678 -137.8945,151.92773 -1.2145,2.2425 -2.2676,4.53559 -3.4414,6.79102 -7.7096,-12.88445 -15.9116,-25.54137 -24.9844,-37.73828 -44.4232,-59.72017 -103.4437,-107.5389 -170.8867,-138.75391 -67.2647,-31.1324 -140.5802,-44.94434 -212.9609,-43.58008 z m -169.6094,529.970706 c 8.3088,0.07512 16.5846,0.707622 24.7246,1.910156 36.9796,5.463018 73.2228,23.21832 99.9453,49.011719 26.6952,25.766914 45.5687,61.258357 51.8457,97.582031 6.2702,36.28478 0.3393,75.880518 -16.2871,108.466798 -16.6078,32.55003 -45.1335,60.41672 -77.8984,76.04883 -36.7037,17.51127 -82.4996,21.47371 -124.1973,11.26172 -42.0597,-10.30066 -82.5066,-35.01991 -113.5801,-68.41016 -5.851,-6.28721 -11.3163,-13.00875 -16.5839,-19.92773 -11.7143,-27.931 -16.6389,-59.34696 -13.7325,-89.378911 3.1706,-32.760586 15.7137,-65.422324 35.2852,-91.884765 19.5714,-26.462388 47.1293,-48.019843 77.5254,-60.644532 22.797,-9.468505 48.0267,-14.260527 72.9531,-14.035156 z"
       id="path4370-9-3-9-2-4"
       inkscape:connector-curvature="0" />
    <path
       style="fill:none;fill-rule:evenodd;stroke:#000000;stroke-width:120;stroke-linecap:round;stroke-linejoin:round;stroke-miterlimit:4;stroke-dasharray:none;stroke-opacity:1"
       d="m 914.10179,982.23229 c -13.95777,-29.35444 -19.7781,-62.52774 -16.64699,-94.88046 3.1311,-32.35272 15.20488,-63.79422 34.53275,-89.92727 19.32787,-26.13304 45.85568,-46.8844 75.87345,-59.35192 30.0177,-12.46751 63.4412,-16.61625 95.5961,-11.86598 36.6325,5.41174 71.4876,22.44705 98.1309,48.16395 26.6433,25.7169 44.9196,60.00783 51.2252,96.49707 6.3056,36.48924 0.5754,74.98547 -16.2541,107.97017 -16.8296,32.98465 -44.6904,60.25295 -78.1116,76.19815 -37.3812,17.8345 -81.0711,21.2562 -121.2999,11.4039 -40.2289,-9.8522 -76.89552,-32.6132 -105.11155,-62.9329 -28.21603,-30.31967 -48.10512,-67.9867 -59.25337,-107.87585 -11.14824,-39.88916 -13.70201,-81.95398 -9.55778,-123.16385 8.53171,-84.83862 46.29824,-166.88349 107.06086,-226.70226 60.76264,-59.81877 144.37904,-96.493 229.63044,-98.09986 44.349,-0.83591 89.0268,7.70121 129.2811,26.33234 40.2544,18.63113 75.7654,47.41411 102.2394,83.00431 26.4739,35.5902 43.6525,77.62256 52.6036,121.06689 8.9512,43.44434 9.7364,88.10113 10.0157,132.45713 l 1.6519,262.34225 -1.9502,-261.43931 c -0.3044,-40.80936 -0.4003,-81.77644 5.1358,-122.20968 5.5362,-40.43325 16.7811,-80.36688 36.2168,-116.25212 19.4357,-35.88523 47.1362,-67.53539 81.3069,-89.84816 34.1707,-22.31277 74.7452,-35.05738 115.5553,-34.87509 40.3041,0.18003 80.2683,12.95749 113.9904,35.0317 33.7221,22.07421 61.1427,53.22658 80.5683,88.54086 19.4257,35.31428 30.926,74.61592 36.9026,114.47483 5.9766,39.85892 6.5013,80.30911 6.8234,120.61233 l 2.1264,266.04074 -1.3764,-268.63919 c -0.2443,-47.68129 0.1456,-95.79293 10.565,-142.32249 10.4194,-46.52956 30.9998,-91.16359 62.3864,-127.05853 31.3866,-35.89494 73.18,-62.52492 118.9143,-76.01348 45.7342,-13.48857 94.9522,-13.98062 141.4563,-3.44791 74.8222,16.94649 142.7193,62.76185 186.4376,125.80358 43.7182,63.04174 62.8278,142.69029 52.4728,218.70553 -10.355,76.01524 -50.0729,147.65012 -109.0608,196.70092 -58.9878,49.05077 -136.6657,75.03547 -213.2945,71.35087"
       id="path4370-9-3-9-2-8"
       inkscape:path-effect="#path-effect4372-5-9-5-9-90"
       inkscape:original-d="m 914.10179,982.23229 c -9.32663,-273.71539 86.13961,-280.79852 189.35531,-256.02563 108.0629,25.9363 153.2283,276.87164 54.9904,328.82934 -120.4146,63.6869 -294.95523,-146.34961 -295.2226,-282.5687 -0.3061,-155.94038 181.0416,-334.32341 336.6913,-324.80212 155.4109,9.50668 288.8795,270.42888 294.1398,362.86067 l 1.6519,262.34225 -1.9502,-261.43931 c -13.2393,-318.18602 93.436,-362.75796 238.2148,-363.18505 143.5326,-0.42342 237.4933,299.27145 238.2847,358.65972 l 2.1264,266.04074 -1.3764,-268.63919 c 5.7595,-481.08119 188.4352,-418.65568 333.322,-348.84241 185.6454,89.45267 -83.4449,612.5609 -83.4449,612.5609"
       inkscape:connector-curvature="0"
       sodipodi:nodetypes="caaaacccasccac" />
    <path
       style="color:#000000;font-style:normal;font-variant:normal;font-weight:normal;font-stretch:normal;font-size:medium;line-height:normal;font-family:sans-serif;text-indent:0;text-align:start;text-decoration:none;text-decoration-line:none;text-decoration-style:solid;text-decoration-color:#000000;letter-spacing:normal;word-spacing:normal;text-transform:none;direction:ltr;block-progression:tb;writing-mode:lr-tb;baseline-shift:baseline;text-anchor:start;white-space:normal;clip-rule:nonzero;display:inline;overflow:visible;visibility:visible;opacity:1;isolation:auto;mix-blend-mode:normal;color-interpolation:sRGB;color-interpolation-filters:linearRGB;solid-color:#000000;solid-opacity:1;fill:#000000;fill-opacity:1;fill-rule:evenodd;stroke:none;stroke-width:120;stroke-linecap:round;stroke-linejoin:round;stroke-miterlimit:4;stroke-dasharray:none;stroke-dashoffset:0;stroke-opacity:1;color-rendering:auto;image-rendering:auto;shape-rendering:auto;text-rendering:auto;enable-background:accumulate"
       d="m -1859.1809,393.60798 c -101.7108,1.91709 -198.9556,44.80853 -270.5918,115.33203 -71.451,70.34097 -114.7578,164.90879 -124.668,263.45509 -4.7965,47.696 -1.9796,97.1855 11.4726,145.3183 l 0,0 c 9.8474,35.2348 25.4207,69.3009 46.8867,99.9961 a 60.006,60.006 0 0 0 9.9082,13.2989 c 5.1779,6.6072 10.5435,13.097 16.3223,19.3066 35.6741,38.3338 81.9764,67.4067 134.7617,80.334 53.0954,13.0034 110.3206,8.8465 161.4082,-15.5273 45.7189,-21.8124 82.7917,-58.143 105.7207,-103.0821 22.9132,-44.9081 30.4834,-95.9801 21.9336,-145.457 -8.5442,-49.4435 -32.7255,-94.7452 -68.6797,-129.4492 -35.9305,-34.6813 -81.8335,-57.0817 -131.0312,-64.3496 -43.0982,-6.367 -87.1455,-0.9 -127.3789,15.8105 -16.5345,6.8674 -32.1128,15.6219 -46.6036,25.877 15.3793,-45.3076 40.7638,-87.165 74.1348,-120.01762 49.889,-49.11403 119.8759,-79.57056 188.668,-80.86718 35.894,-0.67655 71.7119,6.33527 102.9492,20.79297 31.0842,14.3869 58.9141,36.96108 79.2988,64.36523 20.3904,27.4118 34.5476,61.2878 41.9805,97.3633 5.6879,27.6059 7.6308,57.8646 8.3633,90.1524 -0.03,10.6863 0.044,21.2094 0.1211,31.5469 l 1.9492,261.3691 0,0.07 a 60.006,60.006 0 0 0 119.998,-0.8262 l 0,-0.07 0,-0.3808 -1.6504,-261.8907 c -0.063,-9.9555 -0.1692,-20.167 -0.3613,-30.4824 0.1487,-28.9738 1.1136,-56.5061 4.6464,-82.3086 l 0,0 c 4.7752,-34.8751 14.3575,-67.8022 29.5312,-95.8184 15.102,-27.88356 36.5003,-51.95615 61.3516,-68.18358 24.7226,-16.14333 54.3432,-25.24093 82.4844,-25.11523 27.8006,0.12418 56.9721,9.24635 81.3965,25.23437 24.5492,16.06976 45.744,39.77923 60.8593,67.25784 15.1848,27.6048 24.9762,60.0367 30.1368,94.4531 5.1702,34.481 5.8415,72.0919 6.1621,112.1953 l 2.125,266.041 a 60.006,60.006 0 0 0 119.998,-0.7871 l -1.3769,-268.6387 c -0.2416,-47.1474 0.5552,-90.6696 9.1171,-128.9042 8.5259,-38.0736 25.28604,-73.5491 49.00395,-100.67388 23.69284,-27.09605 56.02352,-47.72815 90.71875,-57.96094 34.91111,-10.29645 74.01422,-10.90763 111.23047,-2.47851 59.72669,13.52751 115.48871,51.15359 150.38672,101.47653 34.89798,50.3229 50.59205,115.7371 42.32617,176.416 -8.26588,60.679 -40.88574,119.5114 -87.97265,158.6661 -47.08695,39.1547 -110.882,60.4939 -172.05079,57.5527 a 60.006,60.006 0 1 0 -5.76367,119.8633 c 92.08874,4.428 183.65037,-26.2016 254.53907,-85.1485 70.88871,-58.9468 117.70621,-143.3849 130.15039,-234.7363 12.44416,-91.3514 -10.08264,-185.2356 -62.6211,-260.99608 -52.53845,-75.76051 -132.57059,-129.76344 -222.48828,-150.12891 -55.79185,-12.6363 -115.12421,-12.26466 -171.68164,4.41602 -56.7733,16.74434 -108.02899,49.37453 -147.10939,94.06836 -9.8454,11.25961 -18.7495,23.10398 -26.7734,35.39648 -23.1832,-38.241 -54.355,-72.32865 -93.1934,-97.75195 -43.0198,-28.16042 -93.7763,-44.5942 -146.584,-44.83008 -53.4789,-0.23888 -105.0081,16.15451 -148.6269,44.63672 -39.9736,26.1019 -71.8216,61.40709 -95.1856,101.01562 -2.8743,-4.27255 -5.754,-8.54359 -8.8496,-12.70507 -32.5632,-43.77625 -75.7553,-78.76916 -125.1797,-101.64453 -49.2715,-22.80457 -102.8093,-32.86637 -155.6132,-31.8711 z m -120.2325,396.64652 c 5.4298,0.047 10.8319,0.4568 16.1348,1.2402 24.0672,3.5554 47.8724,15.2259 65.2285,31.9785 17.3324,16.7298 29.7044,40.0081 33.7715,63.543 4.0611,23.5014 0.1698,49.4231 -10.5762,70.4844 -10.73,21.03 -29.3784,39.2364 -50.502,49.3144 -23.6747,11.2952 -53.8291,13.9805 -81.1914,7.2793 -27.6725,-6.7771 -54.7029,-23.2256 -75.4609,-45.5312 -3.632,-3.9028 -7.0442,-8.0731 -10.3516,-12.3575 -7.2568,-17.9067 -10.2812,-38.031 -8.4316,-57.1425 2.0655,-21.3423 10.3007,-42.7881 23.0508,-60.0274 12.75,-17.2393 30.8465,-31.3927 50.6484,-39.6172 14.8515,-6.1684 31.3885,-9.3027 47.6777,-9.1621 z"
       id="path4370-9-3-9-2-8-0"
       inkscape:connector-curvature="0" />
    <path
       style="fill:none;fill-rule:evenodd;stroke:#000000;stroke-width:70.00000763;stroke-linecap:round;stroke-linejoin:round;stroke-miterlimit:4;stroke-dasharray:none;stroke-opacity:1"
       d="m -5879.3354,241.01846 c -21.5437,-45.22158 -30.5657,-96.33113 -25.8068,-146.195687 4.7588,-49.864562 23.2852,-98.3450201 52.9936,-138.675337 29.7083,-40.330316 70.5158,-72.397976 116.7271,-91.727546 46.2114,-19.32956 97.6977,-25.86711 147.2735,-18.70025 56.6903,8.19537 110.6793,34.42969 151.9467,74.153152 41.2675,39.72346 69.5701,92.768497 79.2919,149.217087 9.7218,56.448591 0.7607,116.001091 -25.41,166.952541 -26.1707,50.95145 -69.4438,92.98059 -121.2651,117.38364 -57.6597,27.15237 -124.8987,32.11412 -186.7442,16.71869 -61.8455,-15.39543 -118.1469,-50.5869 -161.4601,-97.34 -43.3132,-46.7531 -73.8301,-104.7456 -90.9591,-166.13359 -17.129,-61.387986 -21.0944,-126.102099 -14.8251,-189.52594 12.928,-130.78683 70.6987,-257.42252 164.0978,-349.8829 93.3992,-92.46037 222.2571,-149.27815 353.6607,-151.6056 68.3401,-1.21046 137.1633,12.13463 199.1048,41.03243 61.9415,28.89779 116.5122,73.42914 157.1604,128.37966 40.6482,54.95052 66.9863,119.76144 80.7078,186.72081 13.7214,66.95938 14.9217,135.767804 15.3503,204.117292 l 2.5402,405.051588 -2.9989,-403.657455 c -0.4675,-62.920151 -0.6217,-126.079885 7.8441,-188.429655 8.4658,-62.34977 25.6701,-123.94799 55.4832,-179.35867 29.8131,-55.41068 72.3582,-104.35255 124.9461,-138.90218 52.5879,-34.54964 115.128,-54.342 178.0493,-54.06055 62.1407,0.27796 123.7388,20.11777 175.6364,54.29648 51.8977,34.17871 94.0144,82.3506 123.8143,136.88052 29.7999,54.52992 47.3991,115.15493 56.5427,176.61991 9.1435,61.46498 9.9423,123.827718 10.437,185.967105 l 3.2699,410.762025 -2.1167,-414.773962 c -0.3746,-73.408978 0.2239,-147.476898 16.2224,-219.122328 15.9984,-71.64543 47.5966,-140.38953 95.8106,-195.74682 48.214,-55.35729 112.4337,-96.52284 182.7731,-117.53218 70.3393,-21.00934 146.0986,-22.08201 217.771,-6.20496 115.9235,25.67964 221.304,96.22459 289.2225,193.6144 67.9185,97.38981 97.7,220.65662 81.7369,338.312367 -15.9631,117.655752 -77.5121,228.531183 -168.9246,304.303583 -91.4125,75.77239 -211.7799,115.68871 -330.355,109.55249"
       id="path4370-9-3-9-2-2"
       inkscape:path-effect="#path-effect4372-5-9-5-9-17"
       inkscape:original-d="m -5879.3354,241.01846 c -14.3423,-422.61149 132.4641,-433.54772 291.1874,-395.29882 166.1775,40.04518 235.6321,427.48471 84.5635,507.70642 -185.1718,98.33134 -453.5774,-225.96104 -453.9885,-436.28084 -0.4707,-240.76909 278.4028,-516.18921 517.7585,-501.4885 238.9881,14.67814 444.2339,417.53722 452.3233,560.250192 l 2.5402,405.051588 -2.9989,-403.657455 c -20.3592,-491.273365 143.6842,-560.091645 366.3227,-560.751055 220.7222,-0.65374 365.2133,462.06963 366.4304,553.764015 l 3.2699,410.762025 -2.1167,-414.773962 c 8.8569,-742.780528 289.7727,-646.396698 512.5771,-538.606288 285.4825,138.11329 -128.3202,945.78284 -128.3202,945.78284"
       inkscape:connector-curvature="0"
       sodipodi:nodetypes="caaaacccasccac" />
    <path
       style="color:#000000;font-style:normal;font-variant:normal;font-weight:normal;font-stretch:normal;font-size:medium;line-height:normal;font-family:sans-serif;text-indent:0;text-align:start;text-decoration:none;text-decoration-line:none;text-decoration-style:solid;text-decoration-color:#000000;letter-spacing:normal;word-spacing:normal;text-transform:none;direction:ltr;block-progression:tb;writing-mode:lr-tb;baseline-shift:baseline;text-anchor:start;white-space:normal;clip-rule:nonzero;display:inline;overflow:visible;visibility:visible;opacity:1;isolation:auto;mix-blend-mode:normal;color-interpolation:sRGB;color-interpolation-filters:linearRGB;solid-color:#000000;solid-opacity:1;fill:#000000;fill-opacity:1;fill-rule:evenodd;stroke:none;stroke-width:70.00000763;stroke-linecap:round;stroke-linejoin:round;stroke-miterlimit:4;stroke-dasharray:none;stroke-dashoffset:0;stroke-opacity:1;color-rendering:auto;image-rendering:auto;shape-rendering:auto;text-rendering:auto;enable-background:accumulate"
       d="m -5280.4336,900.66211 c -141.0829,2.49889 -277.9213,62.9864 -377.6641,161.72659 -99.6261,98.6248 -160.5902,232.571 -174.3046,371.3144 -6.6407,67.1809 -2.5232,136.2006 15.9414,202.375 13.6108,48.7796 35.1328,95.7141 64.4785,137.584 0.3704,0.7949 0.6715,1.6183 1.0488,2.4102 a 35.003504,35.003504 0 0 0 10.6074,13.2246 c 7.2507,9.3709 14.7654,18.5559 22.8614,27.2949 47.6388,51.4223 109.5356,90.3029 178.6816,107.5156 69.3264,17.2577 144.4483,11.9028 210.1094,-19.0176 59.0404,-27.8025 107.7274,-75.1156 137.4883,-133.0566 29.7512,-57.9225 39.7986,-124.8314 28.7675,-188.8828 -11.0277,-64.0315 -42.7887,-123.5194 -89.5117,-168.4942 -46.7089,-44.9612 -107.1669,-74.3176 -171.2109,-83.5761 -55.955,-8.0891 -113.6296,-0.766 -165.7871,21.0508 -52.1576,21.8167 -97.8694,57.7381 -131.4004,103.2578 -18.3688,24.9363 -32.7462,52.5657 -43.0176,81.6562 -2.8242,-31.8982 -2.5775,-64.2765 0.6035,-96.457 12.1415,-122.8302 66.7186,-242.1572 153.8906,-328.4531 87.0557,-86.1806 207.932,-139.3284 329.6563,-141.48441 63.3698,-1.12242 127.0064,11.31221 183.6875,37.75581 56.5944,26.4032 106.7024,67.2986 143.8203,117.4766 37.1221,50.1837 61.7137,110.2519 74.5586,172.9336 9.8594,48.1131 12.9235,98.4591 14.0234,150.0176 -0.057,16.3453 0.036,32.598 0.1563,48.7265 l 2.9883,402.2012 0.01,1.416 0,0 0,0.041 a 35.003504,35.003504 0 0 0 69.998,-0.4805 l 0,-0.039 -0,-0.2109 -2.5391,-404.8008 c -0.098,-15.6203 -0.2678,-31.4038 -0.582,-47.2559 0.1998,-45.9457 1.7016,-91.0393 7.6504,-134.8515 8.0287,-59.1308 24.276,-116.6571 51.623,-167.4844 27.3046,-50.7483 66.191,-95.2568 113.3418,-126.2344 47.0718,-30.92556 103.1977,-48.56063 158.6758,-48.31247 54.7947,0.2451 110.0719,17.92369 156.541,48.52737 46.5459,30.6541 85.0488,74.4715 112.3535,124.4355 27.3458,50.0391 43.9621,106.6715 52.6367,164.9844 8.6802,58.3504 9.5629,119.0698 10.0567,181.0957 l 3.2695,410.6621 0,0.1016 a 35.003504,35.003504 0 0 0 69.9981,-0.459 l 0,-0.1 -0,-0.1778 -2.1152,-414.4961 c -0.373,-73.0986 0.462,-144.4971 15.3828,-211.3164 14.9,-66.7264 44.282,-130.1399 88.0449,-180.3867 43.7485,-50.2302 102.4724,-87.8892 166.3965,-106.9824 64.049,-19.13053 133.9209,-20.24897 200.1836,-5.57031 107.0816,23.72091 205.3459,89.50131 268.084,179.46291 62.7381,89.9615 90.5092,204.9043 75.7636,313.5859 -14.7455,108.6818 -72.138,212.0715 -156.5781,282.0645 -84.4401,69.9929 -196.68,107.2131 -306.2109,101.5449 a 35.003504,35.003504 0 1 0 -3.6172,69.9062 c 127.6193,6.6043 256.1151,-36.0067 354.5,-117.5586 98.3849,-81.5518 164.0908,-199.915 181.2715,-326.5449 17.1806,-126.6297 -14.6121,-258.2209 -87.711,-363.039 -73.0989,-104.8182 -185.5959,-180.12735 -310.3613,-207.76566 -77.0821,-17.07543 -158.7278,-16.04636 -235.3574,6.84179 -76.7547,22.92551 -146.4711,67.59575 -199.1504,128.08007 -38.4411,44.1365 -66.7299,95.5591 -85.9141,149.8711 -9.6581,-29.9807 -21.8138,-59.3199 -37.1445,-87.373 -32.2951,-59.0958 -78.0279,-111.62486 -135.2773,-149.32817 -57.3261,-37.75378 -125.2438,-59.75363 -194.7305,-60.06445 -70.3645,-0.31474 -139.3198,21.63492 -197.4238,59.8086 -58.025,38.12165 -104.2292,91.49722 -136.5508,151.57032 -15.3565,28.5416 -27.4289,58.39 -36.918,88.8789 -15.5289,-41.5751 -36.2915,-81.3853 -63.0469,-117.5547 -44.1784,-59.7229 -103.2134,-107.89085 -170.5019,-139.2832 -67.2019,-31.35193 -141.2111,-45.60709 -214.5215,-44.30859 z m -185.4023,497.24999 c 10.9503,0.076 21.8805,0.8861 32.6797,2.4473 49.3366,7.1323 96.8555,30.2428 132.6816,64.7285 35.812,34.472 60.6564,81.0757 69.0723,129.9414 8.4123,48.8458 0.5393,101.041 -22.0508,145.0215 -22.5806,43.9618 -60.4408,80.7074 -105.043,101.7109 -49.6583,23.3845 -109.0143,27.9531 -163.3789,14.4199 -54.545,-13.578 -105.2507,-45.0801 -144.2383,-87.164 -8.8659,-9.5701 -17.0867,-19.7642 -24.8047,-30.3672 -16.3863,-37.6161 -23.277,-79.698 -19.3828,-120.502 4.1465,-43.4482 20.4464,-86.1013 46.332,-121.2422 25.8858,-35.1408 61.7877,-63.3549 102.0528,-80.1972 30.1989,-12.6318 63.229,-19.0242 96.0801,-18.7969 z"
       id="path4370-9-3-9-2-2-0"
       inkscape:connector-curvature="0" />
    <path
       style="fill:none;fill-rule:evenodd;stroke:#000000;stroke-width:60;stroke-linecap:round;stroke-linejoin:round;stroke-miterlimit:4;stroke-dasharray:none;stroke-opacity:1"
       d="m 2767.6322,992.72598 c -15.0561,-31.60352 -21.3613,-67.32192 -18.0356,-102.17027 3.3257,-34.84836 16.2729,-68.72945 37.0347,-96.91479 20.7619,-28.18533 49.2805,-50.59628 81.5757,-64.10512 32.2951,-13.50885 68.2768,-18.07791 102.9234,-13.06952 39.619,5.72719 77.3501,24.06128 106.1906,51.82256 28.8405,27.76129 48.6203,64.83267 55.4145,104.28267 6.7941,39.45001 0.5314,81.06923 -17.7587,116.67735 -18.29,35.60814 -48.5324,64.98064 -84.7487,82.03464 -40.2961,18.9752 -87.2866,22.4422 -130.5077,11.6826 -43.2211,-10.7596 -82.5676,-35.3536 -112.8372,-68.0276 -30.2696,-32.67388 -51.5964,-73.20242 -63.5671,-116.1039 -11.9707,-42.90147 -14.742,-88.12739 -10.3608,-132.45164 9.0345,-91.40173 49.4074,-179.90263 114.68,-244.51991 65.2725,-64.61728 155.3261,-104.32543 247.1588,-105.95178 47.7602,-0.84583 95.8579,8.48081 139.1462,28.67661 43.2883,20.1958 81.4253,51.31725 109.8325,89.72013 28.4071,38.40288 46.8136,83.69669 56.4028,130.49193 9.5893,46.79524 10.428,94.88268 10.7276,142.64939 l 1.7752,283.07557 -2.0958,-282.10127 c -0.3267,-43.97243 -0.4345,-88.11228 5.4818,-131.6861 5.9163,-43.57383 17.9396,-86.62245 38.7745,-125.34693 20.835,-38.72448 50.5678,-72.92825 87.3193,-97.07386 36.7515,-24.1456 80.4583,-37.97791 124.4315,-37.78118 43.4277,0.19429 86.4761,14.0598 122.7451,37.94621 36.2691,23.8864 65.7025,57.55206 86.5282,95.66099 20.8257,38.10894 33.1249,80.4774 39.5149,123.43286 6.3899,42.95545 6.9482,86.53829 7.2939,129.96504 l 2.2853,287.06634 -1.4792,-289.87015 c -0.2618,-51.30247 0.1565,-103.06544 11.3371,-153.13545 11.1806,-50.07001 33.2631,-98.11243 66.9577,-136.79948 33.6945,-38.68705 78.5748,-67.4562 127.7319,-82.13914 49.1572,-14.68295 102.1021,-15.4331 152.1911,-4.33785 81.0153,17.94575 154.6627,67.24668 202.1291,135.30889 47.4664,68.06221 68.28,154.20928 57.124,236.43498 -11.1559,82.22571 -54.1706,159.71288 -118.056,212.6674 -63.8853,52.9546 -148.0064,80.8503 -230.8745,76.5612"
       id="path4370-9-3-9-2-8-7"
       inkscape:path-effect="#path-effect4372-5-9-5-9-90-2"
       inkscape:original-d="m 2767.6322,992.72598 c -10.0232,-295.34751 92.5734,-302.99043 203.4982,-276.2597 116.1342,27.98608 164.673,298.75322 59.0977,354.81722 -129.4084,68.7202 -316.9854,-157.91585 -317.2728,-304.90054 -0.329,-168.26457 194.5636,-360.74546 361.8388,-350.47169 167.0185,10.25801 310.4559,291.80126 316.1091,391.53806 l 1.7752,283.07557 -2.0958,-282.10127 c -14.2282,-343.33271 100.4147,-391.42723 256.0071,-391.88807 154.253,-0.45689 255.2316,322.92329 256.0821,387.0051 l 2.2853,287.06634 -1.4792,-289.87015 c 6.1896,-519.10173 202.5094,-451.74266 358.2178,-376.41192 199.5112,96.52224 -89.6774,660.97247 -89.6774,660.97247"
       inkscape:connector-curvature="0"
       sodipodi:nodetypes="caaaacccasccac" />
    <path
       style="color:#000000;font-style:normal;font-variant:normal;font-weight:normal;font-stretch:normal;font-size:medium;line-height:normal;font-family:sans-serif;text-indent:0;text-align:start;text-decoration:none;text-decoration-line:none;text-decoration-style:solid;text-decoration-color:#000000;letter-spacing:normal;word-spacing:normal;text-transform:none;direction:ltr;block-progression:tb;writing-mode:lr-tb;baseline-shift:baseline;text-anchor:start;white-space:normal;clip-rule:nonzero;display:inline;overflow:visible;visibility:visible;opacity:1;isolation:auto;mix-blend-mode:normal;color-interpolation:sRGB;color-interpolation-filters:linearRGB;solid-color:#000000;solid-opacity:1;fill:#000000;fill-opacity:1;fill-rule:evenodd;stroke:none;stroke-width:60;stroke-linecap:round;stroke-linejoin:round;stroke-miterlimit:4;stroke-dasharray:none;stroke-dashoffset:0;stroke-opacity:1;color-rendering:auto;image-rendering:auto;shape-rendering:auto;text-rendering:auto;enable-background:accumulate"
       d="m 3314.2637,1505.916 c -100.1294,1.7734 -197.0246,44.6269 -267.7344,114.627 -70.6101,69.9011 -113.7191,164.6671 -123.4277,262.8886 -4.6995,47.5446 -1.797,96.4609 11.3183,143.4649 9.616,34.4624 24.8029,67.6486 45.5196,97.334 0.2157,0.461 0.3903,0.9387 0.6093,1.3984 a 30.003,30.003 0 0 0 8.4707,10.8203 c 5.0352,6.4738 10.2477,12.8237 15.8555,18.877 33.9772,36.676 78.119,64.4347 127.5977,76.7519 49.6327,12.3558 103.381,8.5518 150.5351,-13.6523 42.4042,-19.9678 77.287,-53.8715 98.6543,-95.4707 21.3593,-41.5834 28.5551,-89.5079 20.6387,-135.4746 -7.9136,-45.9497 -30.6591,-88.5423 -64.1758,-120.8047 -33.5046,-32.2509 -76.7809,-53.262 -122.7031,-59.9004 -40.1144,-5.7988 -81.3992,-0.5567 -118.791,15.084 -37.3919,15.6408 -70.1159,41.3549 -94.1543,73.9883 -8.2567,11.2089 -15.3432,23.1969 -21.3594,35.6855 -0.2381,-14.0343 0.3036,-28.139 1.6933,-42.1992 8.3604,-84.5819 45.9965,-166.817 105.9317,-226.1504 59.8352,-59.2346 143.0479,-95.7979 226.584,-97.2774 43.4999,-0.7703 87.1503,7.777 125.9297,25.8692 38.7051,18.0576 73.0171,46.0608 98.3984,80.373 25.3848,34.3171 42.2949,75.5452 51.1328,118.6739 6.7811,33.0913 8.9147,67.923 9.6856,103.7851 -0.038,11.4339 0.028,22.788 0.1113,34.0391 l 2.0957,282.0664 0,0.035 a 30.003,30.003 0 0 0 59.998,-0.4121 l 0,-0.033 -0,-0.1797 -1.7735,-282.8613 c -0.068,-10.8874 -0.1867,-21.9107 -0.4043,-32.9922 0.1419,-31.9929 1.1874,-63.2578 5.293,-93.4961 5.5417,-40.8146 16.7456,-80.372 35.4668,-115.1679 18.6849,-34.7282 45.2819,-65.1311 77.3731,-86.2149 32.0233,-21.0392 70.2309,-33.0236 107.8242,-32.8554 37.131,0.1661 74.7628,12.1799 106.3789,33.0019 31.6818,20.8653 58.0161,50.7969 76.7031,84.9922 18.7222,34.2597 30.1799,73.2072 36.168,113.4609 5.9928,40.2859 6.6218,82.4596 6.9668,125.7891 l 2.2832,286.5371 0,0.4434 0,0 0,0.086 a 30.003,30.003 0 0 0 59.998,-0.3926 l 0,-0.084 -0,-0.1503 -1.4785,-289.6348 c -0.2605,-51.0365 0.3603,-100.5119 10.6172,-146.4453 10.2391,-45.8538 30.4214,-89.3262 60.3007,-123.6328 29.8672,-34.2925 70.0371,-60.0573 113.6953,-73.0977 43.7656,-13.0726 91.6651,-13.8611 137.1172,-3.793 73.4364,16.2669 140.9858,61.4846 184.0118,123.1797 43.0259,61.6951 62.1143,140.7067 52.0019,215.2403 -10.1124,74.5336 -49.5637,145.6027 -107.4727,193.6035 -57.909,48.0007 -135.0637,73.5871 -210.1796,69.6992 a 30.003,30.003 0 1 0 -3.1016,59.9199 c 90.6203,4.6904 181.7085,-25.5155 251.5703,-83.4238 69.8617,-57.9084 116.4391,-141.8146 128.6387,-231.7324 12.1996,-89.9179 -10.3373,-183.1996 -62.2442,-257.6289 -51.9068,-74.4294 -131.6538,-127.813 -220.248,-147.4375 -54.7259,-12.1224 -112.7168,-11.4107 -167.2656,4.8828 -54.6559,16.3253 -104.2456,48.1001 -141.7676,91.1816 -23.9105,27.4534 -42.2723,58.8016 -55.6211,91.9727 -5.9303,-16.1512 -12.9666,-31.9942 -21.3398,-47.3164 -22.9644,-42.0225 -55.4972,-79.4207 -96.3536,-106.3282 -40.9219,-26.9508 -89.3869,-42.6701 -139.1113,-42.8925 -50.3532,-0.2253 -99.5594,15.457 -141.0391,42.7089 -41.4117,27.2074 -74.2804,65.2109 -97.2656,107.9317 -8.4445,15.6953 -15.4998,31.923 -21.3847,48.4668 -10.2647,-24.3201 -23.2112,-47.6359 -39.1446,-69.1758 -31.4331,-42.4936 -73.3942,-76.7324 -121.2656,-99.0664 -47.7972,-22.2994 -100.3408,-32.4056 -152.3613,-31.4844 z m -129.5117,358.5899 c 7.4042,0.05 14.7912,0.5978 22.0859,1.6523 33.3158,4.816 65.5013,20.4724 89.6777,43.7441 24.1643,23.26 40.9795,54.8115 46.6543,87.7618 5.6718,32.9332 0.3421,68.2439 -14.8789,97.8769 -15.2126,29.617 -40.8153,54.4614 -70.8437,68.6016 -33.4377,15.7456 -73.6716,18.8762 -110.4805,9.7129 -36.9636,-9.2018 -71.5142,-30.6329 -98.0762,-59.3047 -5.92,-6.3903 -11.4125,-13.2061 -16.5898,-20.2852 -10.8773,-25.2623 -15.4491,-53.5189 -12.8399,-80.8594 2.8008,-29.3485 13.839,-58.2353 31.3243,-81.9726 17.4853,-23.7372 41.7995,-42.8437 68.998,-54.2207 20.3988,-8.5327 42.756,-12.8576 64.9688,-12.707 z"
       id="path4370-9-3-9-2-8-7-5"
       inkscape:connector-curvature="0" />
  </g>
</svg>
