<?xml version="1.0" encoding="UTF-8" standalone="no"?>
<!-- Created with Inkscape (http://www.inkscape.org/) -->

<svg
   xmlns:dc="http://purl.org/dc/elements/1.1/"
   xmlns:cc="http://creativecommons.org/ns#"
   xmlns:rdf="http://www.w3.org/1999/02/22-rdf-syntax-ns#"
   xmlns:svg="http://www.w3.org/2000/svg"
   xmlns="http://www.w3.org/2000/svg"
   xmlns:sodipodi="http://sodipodi.sourceforge.net/DTD/sodipodi-0.dtd"
   xmlns:inkscape="http://www.inkscape.org/namespaces/inkscape"
   version="1.1"
   width="2000"
   height="2000"
   id="svg2992"
   inkscape:version="0.91 r13725"
   sodipodi:docname="ണ്ട.svg">
  <sodipodi:namedview
     pagecolor="#ffffff"
     bordercolor="#666666"
     borderopacity="1"
     objecttolerance="10"
     gridtolerance="10"
     guidetolerance="10"
     inkscape:pageopacity="0"
     inkscape:pageshadow="2"
     inkscape:window-width="1366"
     inkscape:window-height="704"
     id="namedview7"
     showgrid="true"
     inkscape:zoom="0.25"
     inkscape:cx="6123.1822"
     inkscape:cy="377.91987"
     inkscape:window-x="-4"
     inkscape:window-y="0"
     inkscape:window-maximized="1"
     inkscape:current-layer="layer1-3"
     showguides="true"
     inkscape:guide-bbox="true">
    <inkscape:grid
       type="xygrid"
       id="grid2984" />
    <sodipodi:guide
       orientation="0,1"
       position="-2000,1600"
       id="guide2984" />
    <sodipodi:guide
       orientation="0,1"
       position="-1480,600"
       id="guide2986" />
  </sodipodi:namedview>
  <defs
     id="defs5498">
    <inkscape:path-effect
       effect="spiro"
       id="path-effect9597"
       is_visible="true" />
    <inkscape:path-effect
       is_visible="true"
       id="path-effect4143"
       effect="spiro" />
    <inkscape:path-effect
       is_visible="true"
       id="path-effect4372-5-9-5"
       effect="spiro" />
    <inkscape:path-effect
       is_visible="true"
       id="path-effect4372-5-9-5-9"
       effect="spiro" />
    <inkscape:path-effect
       is_visible="true"
       id="path-effect4143-4"
       effect="spiro" />
    <inkscape:path-effect
       is_visible="true"
       id="path-effect4372-5-9-5-9-8"
       effect="spiro" />
    <inkscape:path-effect
       is_visible="true"
       id="path-effect4372-5-9-5-9-3"
       effect="spiro" />
    <inkscape:path-effect
       is_visible="true"
       id="path-effect4372-5-9-5-9-3-0"
       effect="spiro" />
    <inkscape:path-effect
       is_visible="true"
       id="path-effect4372-5-9-5-9-3-0-5"
       effect="spiro" />
    <inkscape:path-effect
       is_visible="true"
       id="path-effect4372-5-9-5-9-3-0-5-8"
       effect="spiro" />
    <inkscape:path-effect
       is_visible="true"
       id="path-effect4372-5-9-5-9-3-0-5-8-3"
       effect="spiro" />
    <inkscape:path-effect
       is_visible="true"
       id="path-effect4372-5-9-5-9-3-0-5-8-3-2"
       effect="spiro" />
    <inkscape:path-effect
       is_visible="true"
       id="path-effect4372-5-9-5-9-3-0-5-8-3-4"
       effect="spiro" />
    <inkscape:path-effect
       is_visible="true"
       id="path-effect4372-5-9-5-9-3-0-5-8-3-25"
       effect="spiro" />
    <inkscape:path-effect
       is_visible="true"
       id="path-effect4372-5-9-5-9-3-0-5-8-3-25-1"
       effect="spiro" />
  </defs>
  <metadata
     id="metadata5594">
    <rdf:RDF>
      <cc:Work
         rdf:about="">
        <dc:format>image/svg+xml</dc:format>
        <dc:type
           rdf:resource="http://purl.org/dc/dcmitype/StillImage" />
        <dc:title />
      </cc:Work>
    </rdf:RDF>
  </metadata>
  <g
     transform="translate(0,1000)"
     id="layer1">
    <g
       id="layer1-3"
       transform="translate(-603.8458,-207.17804)">
      <path
         sodipodi:nodetypes="caaaaaccsascsaassassaac"
         inkscape:connector-curvature="0"
         inkscape:original-d="m 890.78431,396.5603 c 0,0 91.77166,-325.381296 226.93579,-338.2536 122.8746,-11.701917 264.0685,139.64707 260.6362,263.02992 -3.2558,117.03837 -143.9168,243.43846 -260.7224,235.37428 C 970.00958,546.51902 832.83885,364.74751 832.12751,216.7735 830.93166,-31.989489 1057.9898,-368.55013 1306.5833,-359.29229 1529.5057,-350.99047 1692.4433,87.5 1692.4433,187.5 l 1.7086,365.2549 -4.5102,-334.206 c -2.1506,-159.360093 106.852,-578.61926 329.356,-580.63184 220.7452,-1.99667 333.214,339.825376 337.119,570.03734 l 1.8991,347.773 -2.1264,-349.6017 c -1.217,-200.0915004 229.3548,-530.196 472.9156,-569.08767 114.9029,-18.34763 288.1116,69.52889 295.6174,185.64507 5.5074,85.199969 -144.6221,162.190154 -197.5665,163.0085 l -25.4194,0.3929 c -50.5119,0.780747 -175.3633,78.095275 -168.559,153.8654 6.8418,76.18766 127.3889,121.55199 194.341,122.0406 l 36.8049,0.2686 c 45.0442,0.32873 166.092,85.00811 159.9285,160.2144 -6.3233,77.15555 -113.0958,118.57409 -188.646,135.4598 -85.2631,19.05657 -257.7254,-47.6889 -257.7254,-47.6889"
         inkscape:path-effect="#path-effect4372-5-9-5-9-3-0-5-8-3"
         id="path4370-9-3-9-2-7-8-9-5-6"
         d="M 890.78431,396.5603 C 863.49839,322.31162 873.93972,235.26341 918.01106,169.57395 962.0824,103.88449 1038.6699,61.214015 1117.7201,58.3067 c 69.3019,-2.548792 139.1904,25.093431 188.0019,74.35487 48.8116,49.26144 75.8112,119.39908 72.6343,188.67505 -2.9888,65.17378 -32.5805,128.8436 -80.8754,172.70878 -48.295,43.86518 -114.7653,67.23933 -179.847,62.6655 -40.0844,-2.81706 -79.2369,-15.84837 -113.8141,-36.3208 -34.57707,-20.47244 -64.61676,-48.27872 -88.93484,-80.26823 -48.63616,-63.97903 -73.76893,-143.486 -82.75745,-223.34837 -15.84446,-140.776867 18.57955,-288.946357 105.38734,-400.89983 43.4039,-55.97674 99.32485,-102.43063 163.07145,-133.31228 63.7465,-30.88165 135.2854,-45.99661 205.997,-41.85368 62.3979,3.65584 123.9116,22.36947 177.5385,54.47902 53.6269,32.10954 99.054,77.52549 132.1477,130.55067 33.0938,53.02519 53.7112,113.270569 64.3883,174.85681664 C 1691.3348,62.180464 1692.1509,124.99576 1692.4433,187.5 l 1.7086,365.2549 -4.5102,-334.206 c -1.6822,-124.651453 -1.6762,-253.414921 47.3072,-368.05101 24.4918,-57.31804 61.1756,-110.06462 109.8974,-148.94125 48.7217,-38.87663 109.8211,-63.26652 172.1514,-63.63958 61.7819,-0.36978 122.6558,22.86479 171.5973,60.57255 48.9415,37.70776 86.263,89.28778 111.6236,145.62589 50.7212,112.676239 53.2233,240.274667 53.8981,363.8389 l 1.8991,347.773 -2.1264,-349.6017 c -0.4269,-70.18999 0.1328,-140.962762 14.8567,-209.592375 14.7239,-68.629613 43.6718,-134.594085 87.421,-189.483255 43.7493,-54.88917 101.6451,-98.08268 165.9608,-126.19501 64.3158,-28.11234 134.5266,-41.42398 204.6771,-43.81703 64.3666,-2.19574 130.7986,5.10636 187.734,35.21007 28.4677,15.05186 54.1612,35.75226 73.4363,61.5484 19.275,25.79614 31.959,56.78087 34.4471,88.8866 1.89,24.38735 -2.1656,49.27218 -12.1593,71.59794 -9.9938,22.32576 -25.9228,41.922247 -45.5857,56.471612 -19.6629,14.549365 -42.8613,23.946591 -66.8069,28.938573 -23.9457,4.991981 -48.557,5.622342 -73.0146,6.000375 l -25.4194,0.3929 c -22.2118,0.343322 -44.5898,0.948079 -66.2534,5.8645383 -21.6636,4.9164593 -42.5077,14.1957394 -59.6471,28.3281737 -17.1394,14.132435 -30.36,32.98264 -37.7074,53.946879 -7.3475,20.964239 -8.8479,43.855769 -4.9511,65.725809 7.3798,41.41797 34.9293,78.37783 71.7781,98.6774 18.4244,10.14978 38.8492,16.38662 59.6301,19.64728 20.7809,3.26066 41.8982,3.56241 62.9328,3.71592 l 36.8049,0.2686 c 22.5109,0.16428 45.2259,0.63233 67.1174,5.87922 21.8915,5.24689 42.8085,15.33856 59.4276,30.52321 16.6191,15.18464 28.6856,35.26791 34.3526,57.05442 5.6671,21.78651 5.0067,45.05371 -0.9691,66.75755 -10.8883,39.54574 -38.9612,73.06663 -73.3294,95.45529 -34.3681,22.38866 -74.6904,34.35393 -115.3166,40.00451 -88.0395,12.24514 -179.8966,-4.75187 -257.7254,-47.6889"
         style="fill:none;fill-rule:evenodd;stroke:#000000;stroke-width:140;stroke-linecap:round;stroke-linejoin:round;stroke-miterlimit:4;stroke-dasharray:none;stroke-opacity:1" />
      <path
         style="color:#000000;font-style:normal;font-variant:normal;font-weight:normal;font-stretch:normal;font-size:medium;line-height:normal;font-family:sans-serif;text-indent:0;text-align:start;text-decoration:none;text-decoration-line:none;text-decoration-style:solid;text-decoration-color:#000000;letter-spacing:normal;word-spacing:normal;text-transform:none;direction:ltr;block-progression:tb;writing-mode:lr-tb;baseline-shift:baseline;text-anchor:start;white-space:normal;clip-rule:nonzero;display:inline;overflow:visible;visibility:visible;opacity:1;isolation:auto;mix-blend-mode:normal;color-interpolation:sRGB;color-interpolation-filters:linearRGB;solid-color:#000000;solid-opacity:1;fill:#000000;fill-opacity:1;fill-rule:evenodd;stroke:none;stroke-width:140;stroke-linecap:round;stroke-linejoin:round;stroke-miterlimit:4;stroke-dasharray:none;stroke-dashoffset:0;stroke-opacity:1;color-rendering:auto;image-rendering:auto;shape-rendering:auto;text-rendering:auto;enable-background:accumulate"
         d="m 2869.4805,672.66406 c -9.1211,-0.0415 -18.1511,0.11007 -27.0625,0.41406 -77.3999,2.64035 -156.3103,17.28449 -230.3262,49.63672 -74.3004,32.47665 -141.3098,82.27445 -192.6641,146.70508 -13.567,17.0217 -25.7666,34.87841 -36.8066,53.31836 -0.2013,-0.4505 -0.3696,-0.90516 -0.5723,-1.35547 -29.3477,-65.19554 -72.9705,-126.30073 -132.7304,-172.34375 -60.1589,-46.35036 -135.134,-75.59755 -214.7403,-75.12109 -80.3162,0.48071 -155.5242,31.15252 -215.3906,78.92187 -52.7699,42.10671 -92.3797,96.03874 -120.4336,153.96289 -2.3635,-4.04415 -4.6109,-8.13631 -7.1016,-12.12695 -38.8222,-62.20382 -91.9322,-115.44307 -155.5703,-153.54687 -63.5842,-38.07161 -135.764,-59.98627 -209.4043,-64.30079 -83.3876,-4.8856 -166.4354,12.80317 -240.6093,48.73633 -74.0789,35.88705 -138.11812,89.25101 -187.87113,153.41602 -99.64346,128.50723 -137.34621,294.22353 -119.63086,451.62303 10.033,89.1426 38.07824,180.9084 96.59179,257.8809 29.29863,38.5412 65.80444,72.5665 108.99805,98.1406 43.30525,25.6401 92.60635,42.2621 144.57035,45.9141 85.0436,5.9766 169.0218,-23.6411 231.8183,-80.6778 62.7154,-56.963 99.8764,-137.1066 103.7383,-221.3183 4.1074,-89.5666 -29.7282,-177.459 -92.8379,-241.1504 -63.1102,-63.692 -150.6935,-98.3346 -240.2988,-95.0391 -79.6956,2.9311 -155.09759,35.86 -211.61525,90.3477 11.18934,-80.5719 41.08409,-157.7475 89.30275,-219.93362 37.0548,-47.78847 84.8571,-87.33273 138.2715,-113.20899 53.319,-25.83014 113.3472,-38.37095 171.3828,-34.9707 51.1555,2.99716 102.0043,18.50875 145.6738,44.65625 43.6157,26.11527 81.3594,63.70815 108.7246,107.55469 27.3988,43.90017 45.402,95.53917 54.8008,149.75197 4.4552,25.6979 6.9982,52.4577 8.5137,80.0703 -1.47,43.2583 -1.1064,85.8475 -0.5528,126.873 l 4.5098,334.2051 a 70.007,70.007 0 0 0 139.9922,-1.2715 l -1.707,-365.2558 c -0.1376,-29.409 -0.4379,-59.7282 -1.8321,-90.6485 3.1028,-79.152 12.9703,-153.609 40.7071,-218.52145 20.6652,-48.36269 51.2042,-91.42051 89.1875,-121.72851 37.577,-29.98391 84.5658,-48.09201 128.9101,-48.35742 43.9575,-0.2631 90.7329,16.95827 128.457,46.02343 38.1231,29.37251 69.1403,71.42948 90.5137,118.91016 40.5446,90.06899 46.4133,199.59739 47.5156,314.93159 0.019,6.2266 -0.049,12.6176 -0.012,18.7696 l 2.127,349.5586 0,0.043 a 70.007,70.007 0 0 0 139.998,-0.8066 l -1.9004,-347.7734 c -0.041,-7.5 -0.1264,-15.1956 -0.1816,-22.7911 -0.025,-61.7163 1.8218,-120.2692 13.2559,-173.5644 12.7063,-59.2255 37.6245,-115.2546 73.7167,-160.53711 36.1443,-45.34771 84.9269,-81.93559 139.2579,-105.6836 54.6157,-23.87244 116.1262,-35.85229 179.0273,-37.99804 57.4416,-1.95951 111.4491,5.35961 152.6289,27.13281 20.4091,10.791 37.9108,25.27812 50.0801,41.56445 12.001,16.06127 19.3903,35.10344 20.7305,52.39649 1.0104,13.0387 -1.3038,26.52268 -6.2579,37.58984 -4.9019,10.95083 -13.2975,21.37588 -23.332,28.80076 -10.0859,7.463 -23.8506,13.4282 -39.457,16.6817 -15.7174,3.2766 -35.8299,4.1645 -59.8106,4.5351 l -25.4179,0.3946 c -22.7556,0.3517 -50.0627,0.647 -80.6641,7.5917 -30.7513,6.979 -61.6592,20.2977 -88.6875,42.584 -27.0799,22.329 -47.552,51.4641 -59.2363,84.8028 -11.6245,33.1674 -13.7256,67.9264 -7.8047,101.1562 11.3957,63.9569 51.5299,117.1993 106.916,147.711 26.9599,14.8519 55.2109,23.1975 82.5566,27.4882 27.3016,4.2838 51.9093,4.4047 73.2715,4.5606 l 36.8047,0.2695 c 21.8845,0.1597 39.1785,1.0444 51.3145,3.9531 11.9359,2.8608 22.0971,8.2555 28.5254,14.1289 6.3846,5.834 11.6131,14.4978 13.8242,22.9981 2.2768,8.7529 2.2144,19.9208 -0.7129,30.5527 -5.4014,19.6177 -21.8483,40.9225 -44.0488,55.3848 -22.944,14.9466 -53.2209,24.6624 -86.752,29.3262 -72.7049,10.1122 -149.9948,-4.1902 -214.2676,-39.6485 a 70.007,70.007 0 1 0 -67.6269,122.5821 c 91.3848,50.4156 197.8076,70.1084 301.1816,55.7304 47.7214,-6.6374 98.0887,-20.8528 143.8809,-50.6836 46.5358,-30.3151 86.2361,-76.0536 102.6113,-135.5273 9.0243,-32.7757 10.282,-68.1409 1.2246,-102.9609 -9.1228,-35.0725 -28.0277,-66.574 -54.8808,-91.1094 -26.8099,-24.4958 -58.481,-39.285 -90.3282,-46.918 -31.647,-7.5851 -59.7845,-7.6358 -82.9218,-7.8047 l -36.8067,-0.2695 c -20.7069,-0.1511 -38.3316,-0.6336 -52.5918,-2.8711 -14.216,-2.2306 -26.8161,-6.359 -36.7051,-11.8066 -18.3114,-10.0876 -33.2748,-30.7655 -36.6386,-49.6446 -1.8727,-10.5102 -0.9748,-21.532 2.0957,-30.2929 3.0105,-8.5898 8.9808,-17.156 16.1797,-23.0918 7.2505,-5.9785 18.0315,-11.2182 30.6074,-14.0723 12.7258,-2.888 30.1738,-3.8018 51.8418,-4.1367 l 25.4199,-0.3926 c 24.9345,-0.3854 54.0447,-0.7575 86.2187,-7.4648 32.2848,-6.7305 64.9184,-19.5597 94.1583,-41.1954 29.2913,-21.6739 52.7542,-50.4418 67.8398,-84.1425 15.0331,-33.58371 20.8277,-69.87014 18.0586,-105.60551 l 0,-0.002 c -3.6364,-46.91766 -21.6135,-89.84643 -48.1621,-125.37696 -26.3809,-35.30594 -60.2667,-62.21852 -96.793,-81.53125 -63.6046,-33.62994 -131.9299,-43.4106 -195.7773,-43.70117 z M 1145.5117,1234.1816 c 46.2341,0.9107 94.1306,21.096 126.4863,53.75 34.5133,34.8314 54.6781,87.2119 52.4317,136.1973 -2.1158,46.1359 -24.1392,93.3322 -58.0137,124.0996 -33.7934,30.6938 -82.755,47.8252 -127.875,44.6543 -28.2048,-1.9822 -57.2094,-11.4218 -83.0586,-26.7266 -25.9605,-15.3707 -49.5335,-36.9586 -68.87107,-62.3964 -3.99822,-5.2595 -7.77706,-10.7328 -11.42578,-16.3243 a 70.007,70.007 0 0 0 -2.69727,-9.0214 c -19.1814,-52.1952 -11.32884,-117.6616 19.65234,-163.8399 30.98118,-46.1782 88.58188,-78.2707 144.15238,-80.3144 3.0624,-0.1127 6.1364,-0.1389 9.2187,-0.078 z"
         id="path4370-9-3-9-2-7-8-9-5-6-3"
         inkscape:connector-curvature="0" />
      <path
         sodipodi:nodetypes="caaaaaccsascsaassassaac"
         inkscape:connector-curvature="0"
         inkscape:original-d="m 5176.8432,422.40388 c 0,0 91.7717,-325.381301 226.9358,-338.253601 122.8746,-11.70192 264.0685,139.647071 260.6362,263.029921 -3.2558,117.03837 -143.9168,243.43846 -260.7224,235.37428 -147.6243,-10.19188 -284.795,-191.96339 -285.5064,-339.9374 -1.1958,-248.7629906 225.8857,-585.9327 474.4558,-576.06579 222.1359,8.81761 381.86,446.79229 381.86,546.79229 l 5.7086,365.2549 -4.5102,-334.206 c -2.1506,-159.360091 106.852,-578.61926 329.356,-580.63184 220.7452,-1.99667 333.214,339.8253794 337.119,570.03734 l 1.8991,347.773 -2.1264,-349.6017 c -1.217,-200.091501 229.3548,-530.196 472.9156,-569.08767 114.9029,-18.34763 288.1116,69.52889 295.6174,185.64507 5.5074,85.199969 -144.6221,162.190149 -197.5665,163.008499 l -25.4194,0.3929 c -50.5119,0.78075 -175.3633,78.09528 -168.559,153.865401 6.8418,76.18766 127.3889,121.55199 194.341,122.0406 l 36.8049,0.2686 c 45.0442,0.32873 166.092,85.00811 159.9285,160.2144 -6.3233,77.15555 -113.0958,118.57409 -188.646,135.4598 -85.2631,19.05654 -257.7254,-47.6889 -257.7254,-47.6889"
         inkscape:path-effect="#path-effect4372-5-9-5-9-3-0-5-8-3-25"
         id="path4370-9-3-9-2-7-8-9-5-6-8"
         d="m 5176.8432,422.40388 c -27.2973,-74.24835 -16.8612,-161.30365 27.2122,-226.99612 44.0734,-65.69246 120.6694,-108.36083 199.7236,-111.257481 69.2978,-2.539162 139.1765,25.110881 187.9829,74.370971 48.8065,49.2601 75.8082,119.38649 72.6533,188.65895 -2.9688,65.18603 -32.5395,128.88159 -80.8369,172.76086 -48.2975,43.87928 -114.7967,67.24879 -179.8855,62.61342 -40.0632,-2.85315 -79.1825,-15.92691 -113.7203,-36.42912 -34.5378,-20.50221 -64.5333,-48.32504 -88.8232,-80.31253 -48.58,-63.97498 -73.7286,-143.39891 -82.9629,-223.19575 -16.3306,-141.11918 17.2507,-289.955113 104.0435,-402.41986 43.3964,-56.23238 99.5122,-102.85159 163.564,-133.5551 64.0517,-30.70351 136.0074,-45.27643 206.8483,-40.09083 61.8409,4.52679 122.5377,24.14487 175.2493,56.79875 52.7115,32.65388 97.161,78.23527 129.6216,131.06609 32.4606,52.83081 52.8205,112.557129 63.6921,173.602958 10.8716,61.045829 12.328,123.325732 13.297,185.324492 l 5.7086,365.2549 -4.5102,-334.206 c -1.6822,-124.65145 -1.6762,-253.4149211 47.3072,-368.05101 24.4918,-57.31804 61.1756,-110.06462 109.8974,-148.94125 48.7217,-38.87663 109.8211,-63.26652 172.1514,-63.63958 61.7819,-0.36978 122.6558,22.86479 171.5973,60.57255 48.9415,37.70776 86.263,89.28778 111.6236,145.62589 50.7212,112.676239 53.2233,240.27467 53.8981,363.8389 l 1.8991,347.773 -2.1264,-349.6017 c -0.4269,-70.18999 0.1328,-140.962762 14.8567,-209.592375 14.7239,-68.629613 43.6718,-134.594085 87.421,-189.483255 43.7493,-54.88917 101.6451,-98.08268 165.9608,-126.19501 64.3158,-28.11234 134.5266,-41.42398 204.6771,-43.81703 64.3666,-2.19574 130.7986,5.10636 187.734,35.21007 28.4677,15.05186 54.1612,35.75226 73.4363,61.5484 19.275,25.79614 31.959,56.78087 34.4471,88.8866 1.89,24.38735 -2.1656,49.27218 -12.1593,71.597938 -9.9938,22.325762 -25.9228,41.922248 -45.5857,56.471613 -19.6629,14.549365 -42.8613,23.94659159 -66.8069,28.938573 -23.9457,4.991981 -48.557,5.622342 -73.0146,6.000375 l -25.4194,0.3929 c -22.2118,0.343322 -44.5898,0.948079 -66.2534,5.864538 -21.6636,4.91646 -42.5077,14.19574 -59.6471,28.328175 -17.1394,14.132435 -30.36,32.982639 -37.7074,53.946878 -7.3475,20.96424 -8.8479,43.85577 -4.9511,65.72581 7.3798,41.41797 34.9293,78.37783 71.7781,98.6774 18.4244,10.14978 38.8492,16.38662 59.6301,19.64728 20.7809,3.26066 41.8982,3.56241 62.9328,3.71592 l 36.8049,0.2686 c 22.5109,0.16428 45.2259,0.63233 67.1174,5.87922 21.8915,5.24689 42.8085,15.33856 59.4276,30.52321 16.6191,15.18464 28.6856,35.26791 34.3526,57.05442 5.6671,21.78651 5.0067,45.05371 -0.9691,66.75755 -10.8883,39.54574 -38.9612,73.06663 -73.3294,95.45529 -34.3681,22.38866 -74.6904,34.35393 -115.3166,40.00451 -88.0395,12.24514 -179.8966,-4.75187 -257.7254,-47.6889"
         style="fill:none;fill-rule:evenodd;stroke:#000000;stroke-width:70;stroke-linecap:round;stroke-linejoin:round;stroke-miterlimit:4;stroke-dasharray:none;stroke-opacity:1" />
      <path
         style="color:#000000;font-style:normal;font-variant:normal;font-weight:normal;font-stretch:normal;font-size:medium;line-height:normal;font-family:sans-serif;text-indent:0;text-align:start;text-decoration:none;text-decoration-line:none;text-decoration-style:solid;text-decoration-color:#000000;letter-spacing:normal;word-spacing:normal;text-transform:none;direction:ltr;block-progression:tb;writing-mode:lr-tb;baseline-shift:baseline;text-anchor:start;white-space:normal;clip-rule:nonzero;display:inline;overflow:visible;visibility:visible;opacity:1;isolation:auto;mix-blend-mode:normal;color-interpolation:sRGB;color-interpolation-filters:linearRGB;solid-color:#000000;solid-opacity:1;fill:#000000;fill-opacity:1;fill-rule:evenodd;stroke:none;stroke-width:70;stroke-linecap:round;stroke-linejoin:round;stroke-miterlimit:4;stroke-dasharray:none;stroke-dashoffset:0;stroke-opacity:1;color-rendering:auto;image-rendering:auto;shape-rendering:auto;text-rendering:auto;enable-background:accumulate"
         d="m 7019.3066,827.51758 c -8.6044,-0.0449 -17.158,0.0955 -25.6367,0.38476 -73.7752,2.51669 -148.3341,16.49428 -217.5,46.72657 a 35.0035,35.0035 0 0 0 -0,0 c -69.3081,30.29449 -131.7607,76.78927 -179.3125,136.44919 -29.2893,36.7472 -52.2292,77.7746 -69.2481,120.9785 -7.2211,-25.8528 -16.1372,-51.4136 -27.414,-76.4648 -27.3542,-60.76681 -67.827,-117.10899 -122.1778,-158.98438 -54.5502,-42.02906 -122.4739,-68.26882 -193.1679,-67.8457 -71.3233,0.42688 -139.4775,27.95826 -193.7715,71.28125 -54.0911,43.16094 -93.8488,100.75113 -120.2539,162.54683 -8.5557,20.0229 -15.5709,40.3455 -21.5274,60.8438 -11.0776,-30.2103 -24.8935,-59.5619 -41.9609,-87.3398 -35.2205,-57.32279 -83.3909,-106.80416 -141.0098,-142.4981 -57.6018,-35.68329 -123.606,-57.0086 -191.1269,-61.95117 -77.3236,-5.66014 -155.1607,10.18146 -224.5332,43.43555 -69.3194,33.22853 -129.5466,83.35596 -176.1426,143.73442 -93.2499,120.8318 -128.387,278.4726 -111.1035,427.8261 9.7636,84.3707 36.3581,169.8848 89.8574,240.3379 26.7712,35.2551 59.9912,66.1876 98.832,89.2442 38.8972,23.0899 83.09,37.9674 129.0996,41.2441 75.088,5.3475 150.3518,-21.1487 205.9063,-71.6211 55.512,-50.4339 88.8634,-122.3694 92.2656,-197.0723 3.6167,-79.4118 -26.801,-158.4137 -82.7539,-214.8867 -55.9536,-56.4737 -134.6774,-87.6241 -214.127,-84.7129 -90.7959,3.327 -176.8882,51.2847 -227.5078,126.7344 -9.2633,13.8073 -17.1932,28.3776 -23.8261,43.4707 -10.2993,-127.0575 22.2986,-258.704 98.7734,-357.7988 40.1967,-52.0863 92.2021,-95.19848 150.9863,-123.37698 58.7309,-28.15293 124.8059,-41.45715 189.1641,-36.74609 56.1609,4.11101 111.5497,22.02202 159.3711,51.64649 47.8041,29.61382 88.5319,71.29588 118.2324,119.63478 29.7184,48.3679 48.8166,103.9186 59.0566,161.4179 10.2458,57.5316 11.7917,117.9173 12.7579,179.7344 l 5.7089,365.2539 a 35.0035,35.0035 0 0 0 69.9922,-1.0175 l -0,-0.076 0,0 -0.01,-0.4805 -4.5019,-333.6504 c -1.6778,-124.3252 -0.7668,-247.8973 44.4961,-353.8261 22.5785,-52.8405 56.1884,-100.74365 99.541,-135.33599 43.1493,-34.43027 97.1939,-55.67881 150.5312,-55.99804 52.8697,-0.31644 106.6945,19.91236 150.0274,53.29882 43.5322,33.54013 77.7013,80.35821 101.0683,132.26761 44.1596,98.0997 49.5613,212.5223 50.6055,328.5547 0.015,6.4192 -0.056,12.9257 -0.018,19.3007 l 2.127,349.5801 0,0.022 a 35.0035,35.0035 0 0 0 69.998,-0.4043 l 0,-0.021 -0,-0.1875 -1.8965,-347.5625 c -0.04,-7.3969 -0.1346,-14.915 -0.1934,-22.3711 -0.067,-62.6562 1.6692,-123.8421 14.043,-181.5175 13.7151,-63.9276 40.6496,-124.9241 80.5703,-175.0098 39.9468,-50.1185 93.2861,-90.0093 152.6094,-115.93947 59.4657,-25.99239 125.3258,-38.63881 191.8515,-40.9082 60.9041,-2.07762 121.1241,5.23341 170.1817,31.17187 24.4384,12.92143 46.0356,30.51541 61.7578,51.55664 15.638,20.92866 25.6757,45.94126 27.5898,70.64066 1.4503,18.7131 -1.7351,37.8973 -9.2089,54.5937 -7.4479,16.6383 -19.6104,31.6496 -34.459,42.6367 -14.8744,11.0062 -33.3549,18.6878 -53.1309,22.8106 -19.8315,4.1343 -42.1949,4.8932 -66.4141,5.2676 l -25.4179,0.3925 c -22.4837,0.3475 -47.3265,0.798 -73.459,6.7286 -26.2075,5.9477 -52.0841,17.2476 -74.168,35.457 -22.1097,18.2307 -38.9548,42.2236 -48.4707,69.375 -9.486,27.0658 -11.2877,55.8915 -6.3789,83.4414 9.3878,52.6874 43.2302,97.7878 89.3477,123.1934 22.6921,12.5008 47.0304,19.7926 71.0937,23.5683 24.0413,3.7722 46.9032,3.984 68.1016,4.1387 l 36.8047,0.2676 c 22.1976,0.162 42.203,0.8382 59.2168,4.916 16.9137,4.0538 32.4528,11.7971 43.9765,22.3262 11.5021,10.5093 20.1488,24.8836 24.0879,40.0273 3.972,15.2697 3.6098,32.4865 -0.8418,48.6543 -8.1448,29.5817 -30.4031,56.9944 -58.6875,75.4199 -28.656,18.6677 -63.9565,29.5089 -101.0351,34.666 -80.3723,11.1787 -164.9454,-4.4722 -235.9961,-43.6699 a 35.0035,35.0035 0 1 0 -33.8145,61.293 c 84.6069,46.6763 183.7464,65.0205 279.4531,51.709 44.1738,-6.1441 89.5195,-19.234 129.5997,-45.3438 40.452,-26.3519 74.3389,-65.9825 87.9707,-115.4922 7.5,-27.2397 8.4599,-56.5561 1.0976,-84.8594 -7.3949,-28.4295 -22.8811,-54.2219 -44.6172,-74.082 -21.7145,-19.8402 -48.0096,-32.2807 -74.8789,-38.7207 -26.7692,-6.416 -52.1954,-6.6752 -75.0195,-6.8418 l -36.8047,-0.2676 c -20.8708,-0.1523 -40.2431,-0.5458 -57.7637,-3.2949 -17.4985,-2.7456 -34.0093,-7.9278 -48.166,-15.7265 -27.5801,-15.1936 -48.8371,-44.0117 -54.209,-74.1602 -2.8847,-16.1901 -1.6855,-33.1472 3.5235,-48.0098 5.1789,-14.777 14.7742,-28.4854 26.9433,-38.5195 12.195,-10.0554 28.0072,-17.3159 45.127,-21.2012 17.1947,-3.9022 37.1089,-4.6609 59.0488,-5 l 25.418,-0.3926 c 24.696,-0.3816 51.5573,-0.8827 79.6172,-6.7324 28.1152,-5.8612 56.031,-16.9739 80.4824,-35.0664 24.4771,-18.1116 44.1732,-42.2953 56.7129,-70.3086 12.5135,-27.955 17.4391,-58.5398 15.1094,-88.6015 -3.0621,-39.5121 -18.3928,-76.46926 -41.3047,-107.13285 -22.828,-30.55104 -52.6183,-54.35677 -85.1153,-71.53906 -56.7115,-29.98536 -119.4194,-39.3184 -179.6504,-39.63281 z M 5296.168,1319.0273 c 55.5926,1.0214 111.6749,24.7104 150.7304,64.1289 41.6601,42.0473 65.2459,103.2985 62.5528,162.4317 -2.5354,55.6692 -28.3254,111.1226 -69.4082,148.4473 -41.0405,37.2861 -98.7737,57.5307 -153.8633,53.6074 -34.1168,-2.4297 -68.1634,-13.6989 -98.3418,-31.6133 -30.2348,-17.9478 -57.0059,-42.6629 -78.8145,-71.3828 -6.1249,-8.0659 -11.8148,-16.4743 -17.1679,-25.125 a 35.0035,35.0035 0 0 0 -2.1621,-9.1953 c -23.2429,-63.2205 -14.0995,-139.4828 23.4277,-195.418 37.5273,-55.9353 104.627,-93.3148 171.9394,-95.7812 3.6967,-0.1355 7.4013,-0.1677 11.1075,-0.1 z"
         id="path4370-9-3-9-2-7-8-9-5-6-8-3"
         inkscape:connector-curvature="0" />
    </g>
  </g>
</svg>
