<?xml version="1.0" encoding="UTF-8" standalone="no"?>
<!-- Created with Inkscape (http://www.inkscape.org/) -->

<svg
   xmlns:dc="http://purl.org/dc/elements/1.1/"
   xmlns:cc="http://creativecommons.org/ns#"
   xmlns:rdf="http://www.w3.org/1999/02/22-rdf-syntax-ns#"
   xmlns:svg="http://www.w3.org/2000/svg"
   xmlns="http://www.w3.org/2000/svg"
   xmlns:sodipodi="http://sodipodi.sourceforge.net/DTD/sodipodi-0.dtd"
   xmlns:inkscape="http://www.inkscape.org/namespaces/inkscape"
   version="1.1"
   width="2000"
   height="2000"
   id="svg2992"
   inkscape:version="0.91 r13725"
   sodipodi:docname="ണ്മ.svg">
  <sodipodi:namedview
     pagecolor="#ffffff"
     bordercolor="#666666"
     borderopacity="1"
     objecttolerance="10"
     gridtolerance="10"
     guidetolerance="10"
     inkscape:pageopacity="0"
     inkscape:pageshadow="2"
     inkscape:window-width="1366"
     inkscape:window-height="704"
     id="namedview7"
     showgrid="true"
     inkscape:zoom="0.25"
     inkscape:cx="-1935.102"
     inkscape:cy="-358.44234"
     inkscape:window-x="-4"
     inkscape:window-y="0"
     inkscape:window-maximized="1"
     inkscape:current-layer="layer1"
     showguides="true"
     inkscape:guide-bbox="true">
    <inkscape:grid
       type="xygrid"
       id="grid2984" />
    <sodipodi:guide
       orientation="0,1"
       position="-2000,1600"
       id="guide2984" />
    <sodipodi:guide
       orientation="0,1"
       position="-2640,600"
       id="guide2986"
       inkscape:label=""
       inkscape:color="rgb(0,0,255)" />
  </sodipodi:namedview>
  <defs
     id="defs5498">
    <inkscape:path-effect
       effect="spiro"
       id="path-effect4372-5-9-5-9"
       is_visible="true" />
    <inkscape:path-effect
       effect="spiro"
       id="path-effect4170"
       is_visible="true" />
    <inkscape:path-effect
       effect="spiro"
       id="path-effect4166"
       is_visible="true" />
    <inkscape:path-effect
       effect="spiro"
       id="path-effect4170-0"
       is_visible="true" />
    <inkscape:path-effect
       effect="spiro"
       id="path-effect4372-5-9-5-9-0"
       is_visible="true" />
    <inkscape:path-effect
       effect="spiro"
       id="path-effect4170-6"
       is_visible="true" />
    <inkscape:path-effect
       effect="spiro"
       id="path-effect4372-5-9-5-9-9"
       is_visible="true" />
    <inkscape:path-effect
       effect="spiro"
       id="path-effect4170-3"
       is_visible="true" />
    <inkscape:path-effect
       effect="spiro"
       id="path-effect4372-5-9-5-9-3"
       is_visible="true" />
    <inkscape:path-effect
       effect="spiro"
       id="path-effect4170-3-7"
       is_visible="true" />
    <inkscape:path-effect
       effect="spiro"
       id="path-effect4372-5-9-5-9-3-0"
       is_visible="true" />
  </defs>
  <metadata
     id="metadata5594">
    <rdf:RDF>
      <cc:Work
         rdf:about="">
        <dc:format>image/svg+xml</dc:format>
        <dc:type
           rdf:resource="http://purl.org/dc/dcmitype/StillImage" />
        <dc:title />
      </cc:Work>
    </rdf:RDF>
  </metadata>
  <g
     transform="translate(0,1000)"
     id="layer1">
    <path
       style="fill:none;fill-rule:evenodd;stroke:#000000;stroke-width:140;stroke-linecap:round;stroke-linejoin:round;stroke-miterlimit:4;stroke-dasharray:none;stroke-opacity:1"
       d="m 422.04547,274.30947 c -35.58352,-38.56048 -58.19729,-88.88636 -63.40175,-141.09758 -5.20446,-52.21121 7.03,-106.010793 34.30148,-150.836717 27.27149,-44.825923 69.42488,-80.423228 118.18457,-99.803393 48.75968,-19.38016 103.84831,-22.43294 154.4508,-8.55903 47.91846,13.13802 91.60393,41.35532 123.18334,79.715812 31.57942,38.3604911 50.88718,86.694855 54.29781,136.264548 3.41062,49.56969 -9.11323,100.13213 -35.37757,142.30998 -26.26434,42.17786 -66.153,75.74495 -112.24718,94.29525 -53.61524,21.5771 -114.72766,22.53542 -169.95237,5.49439 C 470.25989,315.05169 421.00895,280.54258 383.74522,236.36588 346.48149,192.18919 321.00015,138.61692 307.20116,82.494258 293.40217,26.371595 291.0812,-32.263804 297.27597,-89.725011 310.22968,-209.88049 361.63285,-326.48346 445.80806,-413.19949 c 84.17522,-86.71604 201.31132,-142.05243 322.08541,-146.38334 129.82515,-4.65548 260.58133,50.97108 347.26133,147.73268 86.6801,96.7616 127.6428,232.82604 108.7886,361.359159 l 0.9133,402.226381 0.7848,-391.597601 c 0.1149,-57.308523 0.5564,-114.834069 8.8728,-171.536079 8.3164,-56.70201 24.5914,-112.59438 51.9741,-162.9379 27.3826,-50.34351 65.9099,-94.88067 113.157,-127.31514 47.2471,-32.43447 103.0826,-52.53778 160.2653,-56.33429 53.4265,-3.54713 107.7693,7.22056 155.681,31.12554 47.9116,23.90498 89.0652,60.84812 118.9551,105.27296 29.8899,44.42484 48.3859,95.92287 57.6635,148.65711 9.2776,52.73424 9.4443,106.59244 9.1334,160.13567 l -0.5492,94.578236 c -15.0512,-126.387786 22.3926,-258.217146 101.6331,-357.823086 79.2406,-99.60595 199.2766,-165.72979 325.8126,-179.47928 143.992,-15.64627 293.9466,37.66245 395.7506,140.68893 101.804,103.02648 153.319,253.60675 135.9551,397.40174"
       id="path4370-9-3-9-2"
       inkscape:path-effect="#path-effect4372-5-9-5-9"
       inkscape:original-d="m 422.04547,274.30947 c -13.1473,-385.84329 91.83845,-437.47491 243.5351,-400.29672 146.84396,35.988878 168.24383,391.69826 29.8564,452.58559 -175.76349,77.33195 -400.37914,-224.31264 -398.161,-416.323351 2.56062,-221.657439 249.03126,-476.031719 470.6175,-469.857819 227.741,6.34539 456.04993,509.091839 456.04993,509.091839 l 0.9133,402.226381 0.7848,-391.597601 c -10.7324,-450.492959 128.9077,-509.771759 334.2692,-518.123409 186.8606,-7.59926 338.8579,277.32758 341.433,445.19128 l -0.5492,94.578236 c 0,0 198.9129,-525.016726 427.4457,-537.302366 251.7943,-13.53615 514.6114,267.06339 531.7057,538.09067"
       inkscape:connector-curvature="0"
       sodipodi:nodetypes="caaaacccaccac" />
    <path
       style="fill:none;fill-rule:evenodd;stroke:#000000;stroke-width:140;stroke-linecap:butt;stroke-linejoin:round;stroke-miterlimit:4;stroke-dasharray:none;stroke-opacity:1"
       d="m 1900.3512,-52.21194 0,384 958,0 0,-384"
       id="path4162"
       inkscape:connector-curvature="0"
       sodipodi:nodetypes="cccc" />
    <path
       style="fill:none;fill-rule:evenodd;stroke:#000000;stroke-width:140;stroke-linecap:round;stroke-linejoin:round;stroke-miterlimit:4;stroke-dasharray:none;stroke-opacity:1"
       d="m 2239.1882,-534.53793 c 42.7659,-13.16046 89.2879,-13.85683 132.4286,-1.98226 43.1406,11.87457 82.7534,36.27975 112.7608,69.47125 47.2215,52.23219 69.08,124.26322 68.6543,194.67552 -0.4257,70.4123 -21.6775,139.42423 -51.9494,202.99848 -95.138,199.79997 -284.9897,351.90046 -500.7313,401.163"
       id="path4168"
       inkscape:path-effect="#path-effect4170"
       inkscape:original-d="m 2239.1882,-534.53793 c 0,0 192.4102,1.15502 245.1894,67.48899 82.6063,103.82116 71.6131,276.89438 16.7049,397.674 -88.5113,194.69503 -290.8538,295.08561 -500.7313,401.163"
       inkscape:connector-curvature="0"
       sodipodi:nodetypes="caac" />
    <path
       style="color:#000000;font-style:normal;font-variant:normal;font-weight:normal;font-stretch:normal;font-size:medium;line-height:normal;font-family:sans-serif;text-indent:0;text-align:start;text-decoration:none;text-decoration-line:none;text-decoration-style:solid;text-decoration-color:#000000;letter-spacing:normal;word-spacing:normal;text-transform:none;direction:ltr;block-progression:tb;writing-mode:lr-tb;baseline-shift:baseline;text-anchor:start;white-space:normal;clip-rule:nonzero;display:inline;overflow:visible;visibility:visible;opacity:1;isolation:auto;mix-blend-mode:normal;color-interpolation:sRGB;color-interpolation-filters:linearRGB;solid-color:#000000;solid-opacity:1;fill:#000000;fill-opacity:1;fill-rule:evenodd;stroke:none;stroke-width:140;stroke-linecap:round;stroke-linejoin:round;stroke-miterlimit:4;stroke-dasharray:none;stroke-dashoffset:0;stroke-opacity:1;color-rendering:auto;image-rendering:auto;shape-rendering:auto;text-rendering:auto;enable-background:accumulate"
       d="m 906.29297,1732.9648 c -7.08575,-0.046 -14.18136,0.056 -21.28125,0.3106 -140.49477,5.0381 -273.38992,68.2589 -369.80469,167.584 -96.09867,98.9994 -153.34865,229.7482 -167.90039,364.7265 -6.93846,64.3594 -4.51858,131.1027 11.54492,196.4356 16.1035,65.4955 45.90719,128.8185 91.01367,182.293 45.27934,53.6793 105.14324,96.0459 174.60547,117.4804 69.83438,21.5492 146.68633,20.7439 216.72657,-7.4433 60.25091,-24.2476 111.2693,-67.2051 145.53515,-122.2325 34.25538,-55.0107 50.23088,-119.5882 45.79098,-184.1171 -4.4385,-64.5097 -29.0709,-126.1223 -70.08981,-175.9493 -41.00687,-49.8123 -96.61199,-85.7068 -158.71679,-102.7343 -65.62197,-17.9919 -135.58231,-14.1148 -198.81446,11.0175 l -0.002,0 c -44.35667,17.6302 -83.90681,45.1692 -115.79492,80.0879 14.69588,-98.1545 58.92636,-192.381 126.55664,-262.0527 71.93565,-74.107 173.3138,-121.5618 274.36719,-125.1856 108.18609,-3.8795 220.38095,43.8509 292.61335,124.4844 55.3382,61.7744 88.8018,144.7485 94.414,228.3438 -1.0707,22.5757 -1.4567,44.6834 -1.6152,66.457 -0.3803,3.2309 -0.6593,6.4786 -1.1309,9.6934 -0.5009,3.4165 -0.7483,6.8653 -0.7402,10.3183 l 0.9141,401.9278 0,0.2988 c 0.5835,38.2467 31.7574,68.9443 70.0085,68.9389 38.2511,-0.01 69.4165,-30.7115 69.9894,-68.9584 l 0,-0.2989 0.7852,-391.2988 c 0.015,-7.6215 0.1016,-15.0505 0.1504,-22.5664 2.5342,-24.8585 3.1583,-49.781 2.0371,-74.5918 1.186,-22.0117 2.8982,-43.5843 5.9453,-64.3594 7.3721,-50.2631 21.6524,-98.1834 44.2071,-139.6504 22.494,-41.3556 54.0458,-77.4891 91.2813,-103.0508 37.1589,-25.5091 81.3954,-41.2852 125.2851,-44.1992 40.9524,-2.7189 83.2881,5.7024 119.793,23.916 36.4601,18.1914 68.8178,47.066 92.1289,81.7129 23.3695,34.7338 38.9266,76.9538 46.8008,121.711 16.2001,83.3425 -0.5481,164.8577 7.082,242.414 l 0,350.1739 c 0,38.6583 31.3417,69.9961 70,70 l 94.3692,0 c 3.3317,0.2387 6.6761,0.2387 10.0078,0 l 853.623,0 c 38.6583,0 69.9961,-31.3417 70,-70 1.815,-132.7347 15.5749,-279.9348 0.5798,-417.7235 -15.8997,-146.1008 -63.134,-281.6204 -155.1481,-378.0949 -117.4743,-118.8848 -286.9495,-179.1327 -453.1055,-161.0781 -145.7706,15.8395 -281.7435,90.7434 -373.0294,205.4902 -6.5767,8.267 -12.8234,16.7614 -18.8886,25.3731 -9.9327,-22.8871 -21.8413,-45.1766 -36.1329,-66.418 -36.4686,-54.2027 -86.4181,-99.2135 -145.7812,-128.832 -59.3185,-29.5963 -125.6697,-42.7113 -191.5704,-38.336 -70.4756,4.6791 -137.9109,29.1109 -195.2461,68.4707 -57.2587,39.3073 -102.7599,92.2468 -135.0312,151.5781 -2.7344,5.0274 -5.2291,10.1317 -7.7656,15.2227 -14.7805,-23.2175 -31.4264,-45.332 -49.9375,-65.9961 -94.8093,-105.8341 -231.9694,-168.2804 -373.54685,-171.1973 -2.35963,-0.049 -4.72012,-0.08 -7.08203,-0.096 z m 1522.61323,154.959 c 14.8468,0.033 29.6735,1.9821 43.7598,5.8594 30.0508,8.2716 58.5096,25.8053 79.4121,48.9258 32.958,36.4551 50.9184,91.6711 50.5821,147.3086 -0.3423,56.6048 -17.8671,116.026 -45.1524,173.3281 -84.4306,177.3135 -254.7371,315.1484 -445.6738,361.2559 l -21.8555,0 c -0.7363,-124.9416 0.2674,-249.6193 0.9903,-374.1758 0.03,-5.268 -4e-4,-10.7522 0.016,-16.0977 10.0299,-74.076 39.7674,-146.047 85.8496,-203.9726 47.5895,-59.8203 113.6906,-106.0317 186.3281,-132.0508 5.5179,-0.3963 10.9693,-1.4453 16.2402,-3.125 15.8259,-4.8701 32.6777,-7.2935 49.5039,-7.2559 z m 281.7129,45.1231 c 30.5155,17.7782 58.6623,39.2992 83.2071,64.1386 72.1492,89.1114 101.9996,178.0897 113.2345,271.9211 13.0858,109.2885 0.9178,355.495 0.9178,355.495 l -473.4726,0 c 105.588,-78.1495 192.4668,-181.4935 249.4043,-301.0684 33.2584,-69.8463 58.2369,-148.4501 58.746,-232.6699 0.3215,-53.1656 -9.5938,-107.755 -32.0371,-157.8164 z M 720.86328,2298.3398 c 1.46911,0 2.93857,0.012 4.40625,0.045 14.08978,0.3187 28.0841,2.2927 41.42774,5.9511 33.73213,9.2485 65.49842,29.7886 87.65039,56.6973 22.13986,26.894 36.12317,61.9484 38.50586,96.5781 2.38135,34.6105 -6.69159,71.1589 -24.96485,100.5039 -18.26282,29.3282 -47.02154,53.5064 -78.95898,66.3594 -37.19027,14.967 -82.56269,16.0777 -123.17774,3.5449 -26.3256,-8.1235 -51.64237,-22.0793 -74.16406,-40.1718 -24.13302,-26.9349 -40.08027,-62.8326 -43.66211,-98.7657 -3.6597,-36.7142 5.27033,-75.9888 24.44727,-107.5097 19.17694,-31.521 49.95107,-57.5088 84.23828,-71.1368 20.09016,-7.985 42.21533,-12.0556 64.25195,-12.0957 z"
       id="path4370-9-3-9-2-2"
       inkscape:connector-curvature="0"
       sodipodi:nodetypes="sssssssssssscccsssccccccscccccssssssccccccccscsscssssccsscscsssccccsccsccscsssccscssssscssscsc"
       transform="translate(0,-1000)" />
    <path
       style="fill:none;fill-rule:evenodd;stroke:#000000;stroke-width:70;stroke-linecap:round;stroke-linejoin:round;stroke-miterlimit:4;stroke-dasharray:none;stroke-opacity:1"
       d="m -2450.4716,301.58933 c -37.7127,-40.86856 -61.693,-94.19468 -67.2413,-149.52735 -5.5482,-55.332677 7.3671,-112.358336 36.2148,-159.900941 28.8477,-47.542605 73.4642,-85.332726 125.1056,-105.964159 51.6414,-20.63143 110.0149,-23.98725 163.6804,-9.40977 50.9514,13.84022 97.4346,43.743295 131.0415,84.46393 33.6069,40.7206351 54.1594,92.078136 57.7792,144.75157 3.6198,52.67344 -9.7336,106.40276 -37.7137,151.17675 -27.98,44.77399 -70.4622,80.34973 -119.5069,99.89987 -56.8497,22.66136 -121.5597,23.47806 -179.9909,5.27858 -58.4312,-18.19949 -110.4963,-54.85253 -149.881,-101.6956 -39.3847,-46.84306 -66.3074,-103.59014 -80.9088,-163.022705 -14.6013,-59.432569 -17.0972,-121.512368 -10.6358,-182.370242 13.53,-127.435093 67.6395,-251.246133 156.699,-343.393593 89.0596,-92.14747 213.3248,-150.99342 341.4061,-155.22813 125.3756,-4.14525 251.6526,44.78249 341.5043,132.32052 89.8517,87.53804 142.0563,212.49596 141.1824,337.93707 l 0.9667,496.84999 0.8306,-415.570537 c 0.1216,-60.864533 0.5646,-121.951853 9.2294,-182.196593 8.6647,-60.24473 25.6464,-119.68139 54.448,-173.30022 28.8015,-53.61882 69.4949,-101.15944 119.6541,-135.635 50.1592,-34.47556 109.6761,-55.60693 170.4616,-58.71025 55.8041,-2.84901 112.285,9.55774 161.8461,35.36302 49.5612,25.80528 91.91889,64.86793 122.93792,111.34414 31.01903,46.47621 50.6134,99.99452 61.18295,154.86257 10.56954,54.86805 12.2141,111.01137 13.40828,166.87542 l 1.41872,66.368162 c -11.26325,-129.037162 31.12167,-261.931222 115.01509,-360.619342 83.89342,-98.68812 208.22955,-161.91657 337.39669,-171.57579 136.12141,-10.17926 274.9525,39.10497 376.773264,130.01804 101.820764,90.91307 166.098966,221.72932 179.709456,357.550563 2.77749,27.717029 3.53971,55.6358 2.27866,83.4630872"
       id="path4370-9-3-9-2-3"
       inkscape:path-effect="#path-effect4372-5-9-5-9-3"
       inkscape:original-d="m -2450.4716,301.58933 c -13.9151,-409.46397 97.2025,-464.25639 257.7595,-424.80222 155.4207,38.192065 178.0705,415.67737 31.6001,480.29212 -186.0294,82.06605 -423.7643,-238.04468 -421.4165,-441.809967 2.7101,-235.226933 263.1797,-497.028853 498.1051,-498.621723 224.6251,-1.52303 482.6867,470.25759 482.6867,470.25759 l 0.9667,496.84999 0.8306,-415.570537 c -11.3593,-478.071383 136.0353,-540.838753 353.7931,-549.842063 196.6374,-8.13007 356.64974,290.30512 359.37525,468.44515 l 1.41872,66.368162 c 0,0 219.727,-523.840502 452.41178,-532.195132 240.77715,-8.64519 497.268439,229.4845 556.48272,487.568603 6.35193,27.684741 0.52587,55.599095 2.27866,83.4630872"
       inkscape:connector-curvature="0"
       sodipodi:nodetypes="caaaacccaccssc" />
    <path
       style="fill:none;fill-rule:evenodd;stroke:#000000;stroke-width:70;stroke-linecap:butt;stroke-linejoin:round;stroke-miterlimit:4;stroke-dasharray:none;stroke-opacity:1"
       d="m -886.06416,-45.926226 2,407.507836 1013.9545,0 -4,-407.507836"
       id="path4162-1"
       inkscape:connector-curvature="0"
       sodipodi:nodetypes="cccc" />
    <path
       style="fill:none;fill-rule:evenodd;stroke:#000000;stroke-width:70;stroke-linecap:round;stroke-linejoin:round;stroke-miterlimit:4;stroke-dasharray:none;stroke-opacity:1"
       d="m -527.19386,-562.77436 c 45.88848,-12.53021 95.28275,-11.9356 140.8563,1.69562 45.57355,13.63123 87.18212,40.25592 118.65403,75.92493 49.35235,55.93398 72.21696,132.13453 71.8749,206.72774 -0.34205,74.59321 -22.44008,147.79355 -54.19431,215.291203 -99.86115,212.267587 -301.17169,373.976677 -529.97782,425.721527"
       id="path4168-2"
       inkscape:path-effect="#path-effect4170-3"
       inkscape:original-d="m -527.19386,-562.77436 c 0,0 204.07954,6.34845 259.51033,77.62055 86.43763,111.14026 75.79585,293.84539 17.68059,422.018943 -93.68103,206.613927 -307.84188,313.150257 -529.97782,425.721527"
       inkscape:connector-curvature="0"
       sodipodi:nodetypes="caac" />
    <path
       style="color:#000000;font-style:normal;font-variant:normal;font-weight:normal;font-stretch:normal;font-size:medium;line-height:normal;font-family:sans-serif;text-indent:0;text-align:start;text-decoration:none;text-decoration-line:none;text-decoration-style:solid;text-decoration-color:#000000;letter-spacing:normal;word-spacing:normal;text-transform:none;direction:ltr;block-progression:tb;writing-mode:lr-tb;baseline-shift:baseline;text-anchor:start;white-space:normal;clip-rule:nonzero;display:inline;overflow:visible;visibility:visible;opacity:1;isolation:auto;mix-blend-mode:normal;color-interpolation:sRGB;color-interpolation-filters:linearRGB;solid-color:#000000;solid-opacity:1;fill:#000000;fill-opacity:1;fill-rule:evenodd;stroke:none;stroke-width:70;stroke-linecap:round;stroke-linejoin:round;stroke-miterlimit:4;stroke-dasharray:none;stroke-dashoffset:0;stroke-opacity:1;color-rendering:auto;image-rendering:auto;shape-rendering:auto;text-rendering:auto;enable-background:accumulate"
       d="m -2386.5664,1901.4102 c -6.3344,-0.039 -12.6742,0.046 -19.0137,0.2558 -138.0369,4.5639 -270.2248,67.3951 -365.416,165.8867 -95.0239,98.3186 -152.0229,229.211 -166.3359,364.0215 -6.8252,64.2839 -4.2789,130.397 11.4492,194.416 15.7481,64.1001 44.8205,125.7087 88.1094,177.1953 12.5758,14.9574 26.4517,28.8503 41.2363,41.7344 0.1199,0.1305 0.2236,0.2741 0.3437,0.4043 2.2133,2.4558 4.7634,4.5857 7.5743,6.3262 34.4169,28.3407 73.9301,50.6747 117.1074,64.123 65.7199,20.4697 138.2922,19.7554 203.3594,-6.1816 56.1536,-22.3838 104.2264,-62.6553 136.2285,-113.8652 31.9966,-51.2014 47.0842,-111.9519 42.9492,-172.1231 -4.1344,-60.1612 -27.3574,-118.1706 -65.7012,-164.6308 -38.3374,-46.4525 -90.7994,-80.1893 -148.8613,-95.961 -61.1728,-16.6167 -126.9743,-12.834 -185.8399,10.6836 -58.8655,23.5175 -109.1597,66.1153 -142.0429,120.3086 -15.1918,25.0369 -26.2792,52.2782 -33.3965,80.5078 -7.1004,-44.3162 -7.7322,-90.1109 -2.9082,-135.5469 12.7469,-120.0596 63.9672,-236.7893 147.0625,-322.7656 82.928,-85.8033 199.2686,-140.6647 317.3945,-144.5703 115.509,-3.819 233.1432,41.7592 315.9238,122.4082 82.7808,80.6492 131.4126,197.0557 130.6075,312.625 -5e-4,0.1035 -5e-4,0.2071 0,0.3106 l 0.9668,496.7128 0,0.1368 c 0.2706,19.137 15.8611,34.5085 35,34.5085 19.1389,0 34.7294,-15.3715 35,-34.5085 l 0,-0.1368 0.83,-415.4335 c 0.1214,-60.7415 0.659,-120.1721 8.8731,-177.2832 8.2091,-57.0773 24.2255,-112.5484 50.6387,-161.7208 26.3792,-49.1093 63.5809,-92.3802 108.6445,-123.3535 45.0102,-30.9365 98.5545,-49.8494 152.4219,-52.5996 49.4357,-2.5239 99.9206,8.556 143.8965,31.4531 43.9736,22.896 82.1115,57.9576 109.9902,99.7286 27.9099,41.818 46.0783,90.9252 55.9277,142.0546 9.8582,51.1756 11.593,105.3233 11.8726,146.0258 0.2796,40.7026 0.6038,61.2194 2.3013,81.6852 l -0.6915,0 2,407.5078 c 0.096,19.262 15.7378,34.8264 35,34.8281 l 94.9102,0 c 5.5354,1.4263 11.3358,1.4752 16.8945,0.1426 0.2036,-0.046 0.4059,-0.096 0.6094,-0.1426 l 901.54102,0 c 19.46341,-0 35.18722,-15.8812 34.99805,-35.3437 l -3.71484,-378.3867 c 0.71925,-25.964 -0.21665,-51.9684 -2.80664,-77.8145 -14.4782,-144.4812 -82.41835,-283.0195 -191.22266,-380.168 -108.92325,-97.2547 -256.43138,-149.7502 -402.69531,-138.8125 -28.39298,2.1233 -56.51762,6.6339 -84.07031,13.3672 -5.63072,1.1805 -11.23279,2.5189 -16.79297,4.0371 -1.79335,0.4805 -3.54562,1.1029 -5.24024,1.8614 -98.58484,28.6683 -188.5671,85.9833 -255.3496,164.5429 -30.1242,35.4366 -55.094,74.8954 -74.7129,116.8262 -12.1479,-49.4197 -31.5839,-97.699 -60.5332,-141.0742 -34.1593,-51.1814 -80.7381,-94.2425 -135.8867,-122.957 -55.1466,-28.7135 -117.6224,-42.4476 -179.7949,-39.2735 -67.7036,3.4565 -133.1938,26.8058 -188.502,64.8203 -55.2548,37.978 -99.4383,89.7877 -130.6621,147.916 -16.2959,30.3375 -28.9017,62.1492 -38.5977,94.6407 -25.9461,-62.3157 -64.1935,-119.5096 -112.8027,-166.8672 -90.8651,-88.5252 -215.1244,-140.0035 -341.7383,-142.4082 l 0,0 c -2.1102,-0.04 -4.2205,-0.067 -6.332,-0.08 z m 1605.64062,81.8613 c 21.85704,-0.1107 43.73922,2.9545 64.55859,9.1816 39.18942,11.7217 75.37626,34.8765 102.43946,65.5489 42.46687,48.1302 63.42789,116.0802 63.11914,183.4121 -0.31084,67.7859 -20.59777,136.2134 -50.86524,200.5507 -93.90088,199.5984 -283.51121,353.4123 -498.05467,404.6172 l -69.5078,0 -1.461,-370.5235 c 0.4805,-2.4045 -0.9121,-62.1034 -0.9121,-62.1034 4.1501,-101.2322 42.4459,-201.7085 107.9395,-278.752 61.8363,-72.7412 148.16878,-125.0409 241.14646,-147.8203 13.66558,-2.6689 27.62642,-4.0406 41.59766,-4.1113 z m 205.83594,13.9863 c 64.60308,20.6305 125.13882,54.7606 175.61132,99.8262 94.83726,84.6777 155.45269,207.7722 168.19532,334.9336 1.41186,14.0893 2.24891,28.2375 2.55078,42.3965 l -0.375,0 0.26953,27.5605 c -0.0834,2.8102 -0.17742,5.6194 -0.30469,8.4277 -0.14773,2.6608 0.009,5.3298 0.4668,7.9551 l 3.2207,328.2207 -675.93554,0 c 157.02019,-81.5718 287.41663,-214.0317 363.05859,-374.8183 33.24097,-70.6579 57.15017,-148.6289 57.52344,-230.0293 0.37534,-81.8545 -24.39306,-166.3072 -80.63086,-230.0449 -4.38681,-4.9719 -8.94162,-9.7832 -13.65039,-14.4317 z m -2005.79296,425.6406 c 1.8821,-0.01 3.7634,0.011 5.6445,0.051 18.059,0.3861 36.0422,2.9115 53.3516,7.6133 43.8408,11.9087 84.3463,37.9781 113.2226,72.9668 28.8701,34.9812 46.7503,79.6875 49.8555,124.873 3.1045,45.1757 -8.513,91.8819 -32.4766,130.2286 -23.9581,38.338 -60.8513,69.2191 -102.7871,85.9355 -48.6322,19.3858 -105.4805,20.3043 -156.623,4.375 -35.0272,-10.9099 -67.8262,-29.748 -96.4434,-53.9043 -31.0238,-34.8117 -51.0985,-80.098 -55.748,-126.4668 -4.7721,-47.5922 6.4983,-97.362 31.3105,-138.2539 24.8122,-40.8919 63.7507,-73.8719 108.168,-91.6172 26.0257,-10.3976 54.2935,-15.7077 82.5254,-15.8008 z"
       transform="translate(0,-1000)"
       id="path4370-9-3-9-2-3-0"
       inkscape:connector-curvature="0"
       sodipodi:nodetypes="cssssscccsssssssscssssccccsccsssssssscccccccccccssscccscssssscscccsssssccccscscsscccccccssscsssssssscssss" />
  </g>
</svg>
