<?xml version="1.0" encoding="UTF-8" standalone="no"?>
<!-- Created with Inkscape (http://www.inkscape.org/) -->

<svg
   xmlns:dc="http://purl.org/dc/elements/1.1/"
   xmlns:cc="http://creativecommons.org/ns#"
   xmlns:rdf="http://www.w3.org/1999/02/22-rdf-syntax-ns#"
   xmlns:svg="http://www.w3.org/2000/svg"
   xmlns="http://www.w3.org/2000/svg"
   xmlns:sodipodi="http://sodipodi.sourceforge.net/DTD/sodipodi-0.dtd"
   xmlns:inkscape="http://www.inkscape.org/namespaces/inkscape"
   version="1.1"
   width="2000"
   height="2000"
   id="svg2992"
   inkscape:version="0.91pre2 r13516"
   sodipodi:docname="ണൂ.svg">
  <sodipodi:namedview
     pagecolor="#ffffff"
     bordercolor="#666666"
     borderopacity="1"
     objecttolerance="10"
     gridtolerance="10"
     guidetolerance="10"
     inkscape:pageopacity="0"
     inkscape:pageshadow="2"
     inkscape:window-width="1600"
     inkscape:window-height="853"
     id="namedview7"
     showgrid="true"
     inkscape:zoom="0.3337544"
     inkscape:cx="1384.4491"
     inkscape:cy="1346.5353"
     inkscape:window-x="1598"
     inkscape:window-y="-3"
     inkscape:window-maximized="1"
     inkscape:current-layer="layer1-5"
     showguides="true"
     inkscape:guide-bbox="true">
    <inkscape:grid
       type="xygrid"
       id="grid2984" />
    <sodipodi:guide
       orientation="0,1"
       position="-2000,1600"
       id="guide2984" />
    <sodipodi:guide
       orientation="0,1"
       position="-2640,560"
       id="guide2986" />
  </sodipodi:namedview>
  <defs
     id="defs5498">
    <inkscape:path-effect
       is_visible="true"
       id="path-effect4143"
       effect="spiro" />
    <inkscape:path-effect
       is_visible="true"
       id="path-effect4372-5-9-5"
       effect="spiro" />
    <inkscape:path-effect
       is_visible="true"
       id="path-effect4372-5-9-5-9"
       effect="spiro" />
    <inkscape:path-effect
       is_visible="true"
       id="path-effect4143-4"
       effect="spiro" />
    <inkscape:path-effect
       is_visible="true"
       id="path-effect4372-5-9-5-9-8"
       effect="spiro" />
    <inkscape:path-effect
       is_visible="true"
       id="path-effect4372-5-9-5-9-81"
       effect="spiro" />
    <inkscape:path-effect
       is_visible="true"
       id="path-effect4372-5-9-5-9-9"
       effect="spiro" />
  </defs>
  <metadata
     id="metadata5594">
    <rdf:RDF>
      <cc:Work
         rdf:about="">
        <dc:format>image/svg+xml</dc:format>
        <dc:type
           rdf:resource="http://purl.org/dc/dcmitype/StillImage" />
        <dc:title></dc:title>
      </cc:Work>
    </rdf:RDF>
  </metadata>
  <g
     transform="translate(0,1000)"
     id="layer1">
    <g
       id="layer1-5"
       transform="translate(106.2572,-6.4316186)">
      <path
         sodipodi:nodetypes="cssssscccsccssssc"
         inkscape:connector-curvature="0"
         inkscape:original-d="m -3234.9771,201.27604 c 278.2384,-257.169915 377.44,-318.5146 553.3286,-210.1244606 369.3313,227.5979306 -270.3517,398.0823906 -289.3997,394.2295306 -276.6261,-55.95328 -403.0729,-326.247482 -310.616,-446.789802 108.6564,-141.662928 196.2545,-533.459818 656.1301,-446.118728 561.4427,90.44532 323.9268,515.7658684 323.9268,515.7658684 l 13.3972,363.2548216 -15.6818,-354.205942 c -45.0609,-498.864758 -161.2946,-684.739448 321.3609,-543.108078 197.6445,63.30041 400.9719,384.54487 400.833,471.577988 l 8.3161,430.559432 -7.2482,-434.367102 c 178.4311,-743.572998 443.2463,-547.512488 653.09841,-444.738218 185.92578,91.05645 365.88501,474.815433 284.72743,711.76158 -23.82798,69.56775 -293.37743,277.03129 -328.7132,178.96056 -109.22504,-303.142647 -6.73557,-542.07201 43.2804,-554.2145 90.64149,-22.00524 -112.75844,773.19713 -112.75844,773.19713"
         inkscape:path-effect="#path-effect4372-5-9-5-9"
         id="path4370-9-3-9-2"
         d="m -3234.9771,201.27604 c -27.8497,-72.5014 -25.6011,-156.047031 6.108,-226.945476 31.7091,-70.898445 92.4844,-128.268144 165.0918,-155.840494 72.6073,-27.57235 156.1437,-25.00453 226.9204,6.97531 70.7768,31.97984 127.9138,92.974038 155.2084,165.6861994 34.0226,90.6353596 19.7499,198.0247906 -37.3491,276.2041306 -28.5495,39.08967 -67.0359,70.87528 -110.859,91.43267 -43.8232,20.55739 -92.8949,29.83388 -141.1916,26.59273 -50.5851,-3.39472 -99.9982,-20.44924 -142.7714,-47.66724 -42.7733,-27.218 -78.9289,-64.44878 -106.2297,-107.16926 -54.6016,-85.44095 -72.6951,-191.162837 -61.6149,-291.953302 16.5404,-150.458528 98.6709,-293.438208 222.9888,-379.788808 124.3178,-86.35059 289.2045,-113.16514 433.1413,-66.32992 104.7699,34.09079 196.832,105.87967 255.43,199.18123 58.5981,93.30155 83.2857,207.40497 68.4968,316.5846384 l 13.3972,363.2548216 -15.6818,-354.205942 c -2.5895,-58.48979 -4.7939,-117.241743 1.4773,-175.451988 6.2712,-58.21025 21.0936,-115.8482 47.5446,-168.07947 26.451,-52.23128 64.5075,-98.75721 111.5282,-133.64008 47.0207,-34.88287 102.8104,-57.95406 160.8108,-65.93654 59.0327,-8.12456 120.2421,-0.5056 175.222,22.47441 54.9799,22.98002 103.3113,61.26048 139.1254,108.88633 35.8141,47.62584 58.8993,104.09739 71.2472,162.39319 12.3479,58.2958 14.0877,118.24599 15.2384,177.824058 l 8.3161,430.559432 -7.2482,-434.367102 c 9.1263,-151.655148 91.7865,-297.192388 217.3646,-382.706858 125.578,-85.51446 291.2806,-109.10399 435.73381,-62.03136 138.4976,45.13188 254.77332,154.02575 308.87677,289.27104 54.10346,135.245287 45.01343,294.29154 -24.14934,422.49054 -31.96478,59.2494 -76.92107,112.6478 -134.67256,147.24554 -57.75149,34.59773 -128.98347,49.02982 -194.04064,31.71502 -58.30724,-15.51831 -108.92124,-56.05317 -139.51284,-108.05992 -30.5916,-52.00675 -41.4869,-114.72847 -33.3525,-174.51458 8.1344,-59.786119 34.7894,-116.484868 73.2032,-163.013656 38.4138,-46.528784 88.29462,-83.049924 142.94254,-108.626344 76.03879,-35.58782 161.77642,-50.17916 245.30666,-41.74774 83.53024,8.43141 164.62245,39.8623 232.01551,89.92792 67.39306,50.065611 120.90088,118.6277082 153.09293,196.165197 32.19205,77.537493 42.97944,163.836273 30.86414,246.912203 -12.11529,83.07593 -47.09982,162.69961 -100.09534,227.81385 -52.99553,65.11425 -123.85571,115.53926 -202.74034,144.27261 -78.88463,28.73335 -165.57589,35.6957 -248.03511,19.92021 -82.45923,-15.77549 -160.45874,-54.24528 -223.16689,-110.06712"
         style="fill:none;fill-rule:evenodd;stroke:#000000;stroke-width:140;stroke-linecap:round;stroke-linejoin:round;stroke-miterlimit:4;stroke-dasharray:none;stroke-opacity:1" />
      <path
         style="color:#000000;font-style:normal;font-variant:normal;font-weight:normal;font-stretch:normal;font-size:medium;line-height:normal;font-family:sans-serif;text-indent:0;text-align:start;text-decoration:none;text-decoration-line:none;text-decoration-style:solid;text-decoration-color:#000000;letter-spacing:normal;word-spacing:normal;text-transform:none;direction:ltr;block-progression:tb;writing-mode:lr-tb;baseline-shift:baseline;text-anchor:start;clip-rule:nonzero;display:inline;overflow:visible;visibility:visible;opacity:1;isolation:auto;mix-blend-mode:normal;color-interpolation:sRGB;color-interpolation-filters:linearRGB;solid-color:#000000;solid-opacity:1;fill:#000000;fill-opacity:1;fill-rule:evenodd;stroke:none;stroke-width:140;stroke-linecap:round;stroke-linejoin:round;stroke-miterlimit:4;stroke-dasharray:none;stroke-dashoffset:0;stroke-opacity:1;color-rendering:auto;image-rendering:auto;shape-rendering:auto;text-rendering:auto;enable-background:accumulate"
         d="m 563.10156,-597.24805 c -118.52192,-1.92817 -236.97256,33.77046 -334.98242,101.84766 -142.189056,98.76384 -233.8723006,258.94154 -252.636718,429.630859 -12.565737,114.30342 7.280742,235.690561 72.21289,337.296871 32.464353,50.80046 75.540458,95.38321 127.632808,128.53125 52.20034,33.21675 112.4899,54.21356 175.66407,58.45313 60.36052,4.05074 120.92461,-7.40892 175.60742,-33.06055 C 581.27355,399.8037 628.69786,360.62064 664.25977,311.92969 736.0895,213.58126 753.29498,83.537463 710.61523,-30.160156 676.55134,-120.90538 607.02513,-195.12608 518.69531,-235.03711 c -88.3298,-39.91104 -189.98132,-43.03548 -280.5957,-8.625 -28.43338,10.79747 -55.2211,25.08833 -79.82617,42.33984 34.21316,-71.52978 85.78873,-134.69429 149.71289,-179.0957 106.0759,-73.67983 250.04511,-96.79162 371.54883,-57.25586 88.74741,28.87728 168.1739,90.81278 217.81054,169.84571 26.689,42.49503 45.0982,90.61813 54.54883,140.39257 -3.14879,52.387664 -1.12282,102.938113 1.00977,151.107425 l 15.68164,354.205075 a 70.007,70.007 0 0 0 139.88476,-5.67578 l -13.207,-358.140623 c 6.0838,-49.732039 5.1425,-99.969854 -2.4532,-149.162107 0.3487,-4.10175 0.6627,-8.22131 1.0997,-12.27735 5.54,-51.42387 18.5609,-100.83387 40.3964,-143.95117 21.7944,-43.03599 53.1715,-81.14124 90.7872,-109.04687 37.6034,-27.89655 82.6893,-46.48334 128.6484,-52.8086 46.7023,-6.42754 95.6784,-0.26123 138.6816,17.71289 42.9269,17.94221 81.7123,48.52462 110.1739,86.37305 28.5233,37.93055 48.1309,84.86773 58.7128,134.82617 10.6082,50.08224 12.5906,105.54741 13.7325,164.669924 a 70.007,70.007 0 0 0 0,0.002 l 8.3105,430.238282 0,0.13672 0,0.18359 a 70.007,70.007 0 0 0 139.9765,-2.51953 l -0,-0.18359 0,0 -0.01,-0.42188 -7.1797,-430.289061 c 8.3574,-128.384259 80.3927,-254.749209 186.7168,-327.152349 106.8492,-72.76079 251.7351,-93.38814 374.6445,-53.33593 84.2807,27.46435 160.0756,83.96921 213.3574,155.96289 -76.5142,0.89381 -152.5266,18.05286 -222.0468,50.58984 -63.0074,29.48885 -121.3446,71.85786 -167.25,127.460939 -46.0672,55.798874 -78.4927,123.97336 -88.584,198.142579 -10.1418,74.540132 2.9976,152.495212 42.3769,219.441402 39.6402,67.38933 103.9909,119.49398 181.8457,140.21485 86.6719,23.06747 175.8598,3.91768 248.0176,-39.31055 71.2521,-42.68566 123.6643,-106.13904 160.3066,-174.05859 52.8595,-97.97942 74.887,-210.085915 65.5254,-319.910159 7.8596,5.003966 15.5535,10.248897 23.0137,15.791015 57.0733,42.399139 102.9231,101.150187 130.1856,166.814454 27.2625,65.66427 36.5081,139.61607 26.248,209.9707 -10.2601,70.35466 -40.2387,138.58514 -85.1191,193.72852 -44.8804,55.14341 -105.603,98.35208 -172.4082,122.68554 -66.8052,24.33347 -141.0915,30.29927 -210.9239,16.93946 -69.8323,-13.35981 -136.6717,-46.32378 -189.7773,-93.59766 a 70.007,70.007 0 1 0 -93.0859,104.57031 c 72.3105,64.36979 161.4706,108.34401 256.5566,126.53516 95.086,18.19117 194.1824,10.23285 285.1465,-22.90039 90.9642,-33.13325 171.9636,-90.77433 233.0742,-165.85938 61.1107,-75.0851 101.0998,-166.10125 115.0703,-261.89843 13.9705,-95.79721 1.6392,-194.44479 -35.4824,-283.855471 -37.1215,-89.410688 -98.2852,-167.783549 -175.9981,-225.515629 -45.6282,-33.8968 -96.4439,-60.20882 -150.1035,-78.18164 -64.1254,-149.13039 -191.9902,-266.49715 -346.5683,-316.86914 -165.997,-54.09305 -352.5156,-27.54154 -496.8223,70.72657 -61.9171,42.16344 -114.3084,96.45341 -154.8789,158.40039 -14.1028,-33.71064 -32.064,-66.22437 -54.6914,-96.31446 -43.1666,-57.40325 -101.0452,-103.38258 -168.0781,-131.40039 -66.9566,-27.9859 -140.3986,-37.0579 -211.7618,-27.23633 -70.0417,9.63971 -136.5346,37.19528 -192.9726,79.06446 -56.4257,41.8601 -101.1619,96.80784 -132.2695,158.23437 -0.2386,0.47103 -0.437,0.95422 -0.6739,1.42578 -67.67848,-102.16043 -169.22109,-179.69016 -285.88278,-217.65039 -51.99063,-16.91708 -105.87836,-25.56692 -159.75196,-26.44336 z m 2047.03324,460.39258 c 8.9047,0.2826 17.7904,0.86918 26.6328,1.76172 7.6938,0.7766 15.3618,1.8896 23.0117,3.12891 25.7874,103.19072 12.764,217.894078 -37.4609,310.99023 -27.2873,50.57925 -64.7901,93.92377 -109.0411,120.43359 -43.3452,25.96724 -96.6199,35.67931 -140.0625,24.11719 -38.7595,-10.31575 -75.6383,-39.28012 -97.1816,-75.90429 -21.8039,-37.06731 -30.4532,-84.5558 -24.3262,-129.5879 6.1775,-45.403019 27.0618,-90.62606 57.8223,-127.8847612 30.9221,-37.4544988 72.3464,-68.1270228 118.6348,-89.7910158 56.3457,-26.371023 119.6379,-39.241833 181.9707,-37.263673 z m -2246.38285,9.86133 c 33.56068,-0.54426 67.35856,6.0117 97.29688,19.53906 53.22366,24.048633 97.97068,71.816993 118.49609,126.496096 25.36556,67.573107 14.02655,152.306154 -28.3418,210.316404 -21.53713,29.48839 -51.08813,53.87839 -84.06054,69.3457 -32.96355,15.46316 -70.5425,22.55461 -106.77539,20.12305 -37.99595,-2.54987 -76.53271,-15.6616 -109.87891,-36.88086 -33.45419,-21.28798 -62.68699,-51.16614 -84.82422,-85.80664 -2.29539,-3.59184 -4.46973,-7.27236 -6.61523,-10.97265 a 70.007,70.007 0 0 0 -1.95313,-5.70313 C 136.15293,124.94229 137.91472,59.512462 161.75977,6.1972656 185.60481,-47.117933 233.20054,-92.047015 287.80078,-112.78125 c 23.88761,-9.07123 49.84843,-13.78957 75.95117,-14.21289 z"
         id="path4370-9-3-9-2-0"
         inkscape:connector-curvature="0" />
    </g>
  </g>
</svg>
