<?xml version="1.0" encoding="UTF-8" standalone="no"?>
<!-- Created with Inkscape (http://www.inkscape.org/) -->

<svg
   xmlns:dc="http://purl.org/dc/elements/1.1/"
   xmlns:cc="http://creativecommons.org/ns#"
   xmlns:rdf="http://www.w3.org/1999/02/22-rdf-syntax-ns#"
   xmlns:svg="http://www.w3.org/2000/svg"
   xmlns="http://www.w3.org/2000/svg"
   xmlns:sodipodi="http://sodipodi.sourceforge.net/DTD/sodipodi-0.dtd"
   xmlns:inkscape="http://www.inkscape.org/namespaces/inkscape"
   version="1.1"
   width="2000"
   height="2000"
   id="svg2992"
   inkscape:version="0.91 r13725"
   sodipodi:docname="ണു.svg">
  <sodipodi:namedview
     pagecolor="#ffffff"
     bordercolor="#666666"
     borderopacity="1"
     objecttolerance="10"
     gridtolerance="10"
     guidetolerance="10"
     inkscape:pageopacity="0"
     inkscape:pageshadow="2"
     inkscape:window-width="1600"
     inkscape:window-height="844"
     id="namedview7"
     showgrid="true"
     inkscape:zoom="0.1767767"
     inkscape:cx="3478.5716"
     inkscape:cy="940.62053"
     inkscape:window-x="1600"
     inkscape:window-y="0"
     inkscape:window-maximized="1"
     inkscape:current-layer="layer1"
     showguides="true"
     inkscape:guide-bbox="true">
    <inkscape:grid
       type="xygrid"
       id="grid2984" />
    <sodipodi:guide
       orientation="0,1"
       position="-2000,1600"
       id="guide2984" />
    <sodipodi:guide
       orientation="0,1"
       position="-2640,600"
       id="guide2986"
       inkscape:label=""
       inkscape:color="rgb(0,0,255)" />
  </sodipodi:namedview>
  <defs
     id="defs5498">
    <inkscape:path-effect
       effect="spiro"
       id="path-effect4143"
       is_visible="true" />
    <inkscape:path-effect
       effect="spiro"
       id="path-effect4372-5-9-5"
       is_visible="true" />
    <inkscape:path-effect
       effect="spiro"
       id="path-effect4372-5-9-5-9"
       is_visible="true" />
    <inkscape:path-effect
       effect="spiro"
       id="path-effect4143-4"
       is_visible="true" />
    <inkscape:path-effect
       effect="spiro"
       id="path-effect4372-5-9-5-9-8"
       is_visible="true" />
    <inkscape:path-effect
       effect="spiro"
       id="path-effect4372-5-9-5-9-0"
       is_visible="true" />
    <inkscape:path-effect
       effect="spiro"
       id="path-effect4372-5-9-5-9-4"
       is_visible="true" />
    <inkscape:path-effect
       effect="spiro"
       id="path-effect4372-5-9-5-9-2"
       is_visible="true" />
    <inkscape:path-effect
       effect="spiro"
       id="path-effect4372-5-9-5-9-29"
       is_visible="true" />
    <inkscape:path-effect
       effect="spiro"
       id="path-effect4372-5-9-5-9-87"
       is_visible="true" />
    <inkscape:path-effect
       effect="spiro"
       id="path-effect4372-5-9-5-9-7"
       is_visible="true" />
    <inkscape:path-effect
       effect="spiro"
       id="path-effect4372-5-9-5-9-5"
       is_visible="true" />
    <inkscape:path-effect
       effect="spiro"
       id="path-effect4372-5-9-5-9-9"
       is_visible="true" />
    <inkscape:path-effect
       effect="spiro"
       id="path-effect4372-5-9-5-9-80"
       is_visible="true" />
    <inkscape:path-effect
       effect="spiro"
       id="path-effect4372-5-9-5-9-80-9"
       is_visible="true" />
    <inkscape:path-effect
       effect="spiro"
       id="path-effect4372-5-9-5-9-83"
       is_visible="true" />
    <inkscape:path-effect
       effect="spiro"
       id="path-effect4372-5-9-5-9-83-3"
       is_visible="true" />
    <inkscape:path-effect
       effect="spiro"
       id="path-effect4372-5-9-5-9-80-7"
       is_visible="true" />
    <inkscape:path-effect
       effect="spiro"
       id="path-effect4372-5-9-5-9-80-7-4"
       is_visible="true" />
    <inkscape:path-effect
       effect="spiro"
       id="path-effect4372-5-9-5-9-807"
       is_visible="true" />
    <inkscape:path-effect
       effect="spiro"
       id="path-effect4372-5-9-5-9-1"
       is_visible="true" />
  </defs>
  <metadata
     id="metadata5594">
    <rdf:RDF>
      <cc:Work
         rdf:about="">
        <dc:format>image/svg+xml</dc:format>
        <dc:type
           rdf:resource="http://purl.org/dc/dcmitype/StillImage" />
        <dc:title />
      </cc:Work>
    </rdf:RDF>
  </metadata>
  <g
     transform="translate(0,1000)"
     id="layer1">
    <path
       style="fill:none;fill-rule:evenodd;stroke:#000000;stroke-width:140;stroke-linecap:round;stroke-linejoin:round;stroke-miterlimit:4;stroke-dasharray:none;stroke-opacity:1"
       d="M 247.21908,166.71066 C 224.97032,117.94853 216.6447,62.925972 223.4711,9.7643954 230.2975,-43.397181 252.25451,-94.531189 286.10127,-136.09018 c 33.84676,-41.559 79.47719,-73.41274 130.15619,-90.85959 50.67899,-17.44684 106.24774,-20.43211 158.50422,-8.51518 60.05468,13.69529 115.46666,47.19115 155.28034,94.19111 39.81368,46.999961 63.76063,107.264542 66.77077,168.78742 3.01013,61.522879 -14.9865,123.92819 -50.53399,174.23228 -35.54749,50.30409 -88.45687,88.14766 -147.63042,105.25368 -53.74329,15.53623 -112.00436,14.01055 -165.46742,-2.46418 C 379.71789,288.06063 331.11462,256.901 292.38028,216.53559 214.91158,135.80477 179.16283,20.514514 182.48738,-91.323814 185.92648,-207.01569 229.71665,-321.4375 305.90583,-408.56756 382.095,-495.69762 490.37219,-554.56982 605.18818,-569.1892 c 140.60807,-17.90345 288.33893,32.52639 388.64987,132.67067 100.31095,100.14429 150.98635,247.79108 133.31675,388.428732 l 0.9133,380.226388 0.7848,-369.59761 c 0.1301,-61.271833 0.6917,-122.82992 10.5991,-183.2956 9.9074,-60.46568 29.271,-119.80406 61.1433,-172.13382 31.8724,-52.32977 76.2311,-97.28374 129.2292,-128.032 52.9981,-30.74827 114.3878,-47.0734 175.6486,-45.90502 61.3132,1.16938 122.0532,19.83435 174.0258,52.38474 51.9725,32.55039 94.9777,78.75431 125.7318,131.8096 30.7541,53.0553 49.2639,112.636 58.7325,173.22495 9.4687,60.58896 9.9969,122.17473 10.13,183.498945 l 0.7848,361.597605 0.9133,-372.226405 c -17.6696,-140.637645 33.0058,-288.284425 133.3167,-388.428705 100.311,-100.14429 248.0418,-150.57412 388.6499,-132.67067 114.816,14.61938 223.0932,73.49158 299.2823,160.62164 76.1892,87.13006 119.9794,201.55186 123.4185,317.243735 3.3246,111.838336 -32.4242,227.128605 -109.8929,307.859435 -38.7343,40.36541 -87.3376,71.52505 -140.8007,87.99978 -53.463,16.47474 -111.7241,18.00042 -165.4674,2.46419 -59.1736,-17.10602 -112.0829,-54.94959 -147.6304,-105.25368 -35.5475,-50.30409 -53.5442,-112.7094 -50.534,-174.232285 3.0101,-61.522881 26.9571,-121.787463 66.7707,-168.787425 39.8137,-46.99997 95.2257,-80.49582 155.2804,-94.19111 52.2565,-11.91693 107.8252,-8.93166 158.5042,8.51519 50.679,17.44684 96.3094,49.30059 130.1562,90.85958 33.8468,41.558989 55.8038,92.692994 62.6302,145.854569 6.8264,53.161575 -1.4992,108.184131 -23.748,156.946261"
       id="path4370-9-3-9-2"
       inkscape:path-effect="#path-effect4372-5-9-5-9"
       inkscape:original-d="m 247.21908,166.71066 c 0,0 163.41161,-456.51869 327.5426,-402.17561 171.82355,56.89006 188.73316,467.72858 23.8867,542.46449 -174.88781,79.28833 -408.18709,-206.46715 -416.161,-398.323354 -8.83107,-212.479906 210.13966,-471.272766 422.7008,-477.865386 245.73494,-7.62151 521.96662,521.099402 521.96662,521.099402 l 0.9133,380.226388 0.7848,-369.59761 c 6.8627,-408.53141 160.0744,-531.55259 376.6202,-529.36644 218.1818,2.20267 361.7574,132.38683 368.6201,540.918235 l 0.7848,361.597605 0.9133,-372.226405 c 0,0 276.2317,-528.720875 521.9666,-521.099375 212.5611,6.59261 431.5319,265.38547 422.7008,477.865375 -7.9739,191.856215 -241.2732,477.611735 -416.161,398.323405 -164.8465,-74.73591 -147.9369,-485.57444 23.8867,-542.4645 164.131,-54.34308 327.5426,402.1756 327.5426,402.1756"
       inkscape:connector-curvature="0"
       sodipodi:nodetypes="caaaacccacccaaaac" />
    <path
       style="color:#000000;font-style:normal;font-variant:normal;font-weight:normal;font-stretch:normal;font-size:medium;line-height:normal;font-family:sans-serif;text-indent:0;text-align:start;text-decoration:none;text-decoration-line:none;text-decoration-style:solid;text-decoration-color:#000000;letter-spacing:normal;word-spacing:normal;text-transform:none;direction:ltr;block-progression:tb;writing-mode:lr-tb;baseline-shift:baseline;text-anchor:start;white-space:normal;clip-rule:nonzero;display:inline;overflow:visible;visibility:visible;opacity:1;isolation:auto;mix-blend-mode:normal;color-interpolation:sRGB;color-interpolation-filters:linearRGB;solid-color:#000000;solid-opacity:1;fill:#000000;fill-opacity:1;fill-rule:evenodd;stroke:none;stroke-width:140;stroke-linecap:round;stroke-linejoin:round;stroke-miterlimit:4;stroke-dasharray:none;stroke-dashoffset:0;stroke-opacity:1;color-rendering:auto;image-rendering:auto;shape-rendering:auto;text-rendering:auto;enable-background:accumulate"
       d="m -2387.3715,-618.9677 c -19.5332,-0.002 -39.1089,1.06764 -58.6328,3.24023 -127.9538,14.23853 -248.172,74.7668 -336.2012,168.3711 -87.9952,93.56819 -140.8187,216.84328 -148.6289,344.8008 -6.2264,102.00899119 17.1035,207.51429 72.9844,295.45899 a 70.007,70.007 0 0 0 6.7773,10.5859 c 13.7374,20.3049 29.2527,39.6082 46.6524,57.5996 47.2044,48.8099 106.5245,86.2701 173.0957,105.8985 66.7458,19.6798 138.9343,20.7185 206.9219,0.01 74.0623,-22.5632 138.6312,-69.7072 182.8613,-133.041 44.2123,-63.3086 66.1316,-139.922402 62.4453,-216.878899 -3.6849,-76.9264 -32.7663,-150.840891 -82.1152,-209.740201 -49.3301,-58.8811 -116.8099,-100.28954 -191.3965,-117.89682 -65.3547,-15.42795 -134.0525,-12.13046 -197.6289,9.48633 -36.381,12.37003 -70.3093,30.68785 -100.7325,53.70703 18.2128,-38.18179 42.069,-73.58061 70.75,-104.07812 64.7635,-68.86513 155.9904,-114.71501 249.6973,-125.14258 113.7124,-12.65375 235.4167,27.95577 318.7461,106.35742 83.3294,78.40165 131.2737,197.40784 125.5664,311.679641 a 70.007,70.007 0 0 0 -0.088,3.6602 l 0.9141,379.910199 0,0.3164 a 70.007,70.007 0 0 0 140,-0.02 l 0,-0.3164 0.7851,-369.281199 c 0.1248,-58.774291 1.0644,-114.117101 10.2227,-164.627001 9.1413,-50.41637 26.7912,-98.18437 53.3261,-137.96287 26.491,-39.7126 63.0217,-73.06315 104.5469,-94.875 41.5892,-21.84548 89.706,-33.01839 137.1153,-32.06445 47.4268,0.95429 95.1435,14.04312 136.1347,37.46094 40.9478,23.39293 76.6033,57.97306 102.3946,98.59961 25.8338,40.69343 42.8462,88.96967 51.6601,139.79887 8.828,50.91021 9.7122,106.416406 9.8399,165.224601 l 0.7851,361.273399 0,0.3242 a 70.007,70.007 0 0 0 139.9981,0.02 l 0,-0.3223 0.914,-371.904299 a 70.007,70.007 0 0 0 -0.086,-3.6621 c -5.7073,-114.271801 42.235,-233.278081 125.56442,-311.679711 83.3295,-78.40162 205.0338,-119.01117 318.7461,-106.35742 93.7069,10.42757 184.9338,56.27553 249.6973,125.14063 28.6801,30.49648 52.5355,65.89585 70.748,104.07617 -30.4223,-23.01802 -64.3487,-41.33551 -100.7285,-53.70508 -63.5765,-21.6168 -132.2762,-24.91426 -197.6308,-9.48633 -74.5867,17.60728 -142.0665,59.01574 -191.3965,117.89254 -49.349,58.89951 -78.4303,132.813901 -82.1153,209.740301 -3.6862,76.956399 18.2329,153.572199 62.4454,216.880799 44.23,63.3337 108.8009,110.4778 182.8632,133.0411 67.9877,20.7126 140.176,19.6722 206.9219,-0.01 66.5712,-19.6283 125.8894,-57.0887 173.0938,-105.8984 17.3196,-17.9088 32.7662,-37.1219 46.457,-57.3242 a 70.007,70.007 0 0 0 7.2754,-11.3399 c 55.6612,-87.849 78.8968,-193.156299 72.6816,-294.980394 -7.8103,-127.957506 -60.6337,-251.230686 -148.6289,-344.798866 -88.0291,-93.60428 -208.2454,-154.13452 -336.1992,-168.37305 -156.1909,-17.38071 -315.7059,35.84566 -430.16412,143.53516 -32.6644,30.73282 -60.9601,65.49917 -84.7734,102.99805 -8.6744,-18.83706 -18.4574,-37.31043 -29.7754,-55.13868 l 0,-0.002 c -37.665,-59.32968 -89.2843,-109.78921 -151.1406,-145.12695 -61.8132,-35.31312 -131.8182,-54.44354 -202.7656,-55.8711 -70.956,-1.42773 -141.8146,14.88594 -205.0352,48.09376 -63.2848,33.24145 -116.7014,82.35398 -155.9082,141.1289 -12.3198,18.46856 -22.9187,37.7065 -32.2637,57.37891 -24.0707,-38.27496 -52.8138,-73.7274 -86.0644,-105.01172 -100.1507,-94.22619 -234.7964,-146.75686 -371.5291,-146.77324 z m -142.6855,438.98632 c 15.3083,0.3117 30.5486,2.197 45.2851,5.6758 44.6581,10.5422 86.8911,36.51051 116.2481,71.54881 29.338,35.015791 47.4105,81.071791 49.5878,126.527391 2.176,45.425395 -11.4475,92.880599 -37.3867,130.023399 -25.9215,37.1174 -65.7393,66.1322 -108.8808,79.2754 -39.8563,12.1423 -85.1401,11.8363 -126.5293,-0.3672 -41.564,-12.255 -80.8816,-36.7101 -112.0508,-68.9395 -11.5195,-11.9112 -21.951,-25.0017 -31.2871,-39.0078 -15.2458,-35.341702 -21.1613,-75.510304 -16.4141,-113.626899 4.9902,-40.0679 21.8516,-79.5398 47.3496,-110.847695 25.4977,-31.307396 60.7373,-55.808406 98.9649,-68.806606 23.8925,-8.1238 49.5993,-11.9746 75.1133,-11.4551 z m 1976.15622,11.5527 c 25.514,-0.5195 51.2207,3.3313 75.1133,11.4551 38.2281,12.99801 73.4687,37.49871 98.9668,68.806706 25.4979,31.307895 42.3574,70.777795 47.3476,110.845695 4.7474,38.118595 -1.1684,78.289599 -16.416,113.632799 -9.3352,14.0043 -19.7651,27.0919 -31.2832,39.0019 -31.1692,32.2293 -70.4887,56.6864 -112.0527,68.9414 -41.3892,12.2036 -86.673,12.5096 -126.5293,0.3672 -43.1417,-13.1431 -82.9593,-42.1598 -108.8809,-79.2773 -25.9392,-37.1428 -39.5626,-84.596202 -37.3867,-130.021499 2.1774,-45.4556 20.2499,-91.5116 49.5879,-126.527295 29.3569,-35.038396 71.5918,-61.006696 116.25,-71.548906 14.7365,-3.4787 29.9748,-5.364 45.2832,-5.6758 z"
       id="path4370-9-3-9-2-5"
       inkscape:connector-curvature="0" />
    <path
       style="fill:none;fill-rule:evenodd;stroke:#000000;stroke-width:120;stroke-linecap:round;stroke-linejoin:round;stroke-miterlimit:4;stroke-dasharray:none;stroke-opacity:1"
       d="m 1023.9239,947.40388 c -15.9369,-34.23632 -22.027,-72.98916 -17.3599,-110.46351 4.6672,-37.47434 20.0768,-73.54953 43.9243,-102.83096 23.8476,-29.28143 56.0565,-51.67482 91.8101,-63.83151 35.7537,-12.15669 74.937,-14.03754 111.6907,-5.36129 41.8786,9.88607 80.41,33.54888 108.0448,66.53179 27.6348,32.9829 44.1955,75.1163 46.2543,118.09669 2.0588,42.9804 -10.4242,86.55328 -35.0613,121.83166 -24.6372,35.27835 -61.2979,62.02565 -102.4598,74.56575 -37.8747,11.5386 -79.1307,11.0661 -117.1076,-0.1313 -37.9769,-11.1974 -72.6187,-32.9421 -100.1434,-61.40293 -55.04945,-56.92167 -79.88397,-139.20768 -75.0596,-218.24718 4.77203,-78.18201 37.4771,-154.43869 91.1377,-211.49778 53.6606,-57.05909 127.9194,-94.41923 205.7664,-103.08195 94.7898,-10.54808 193.5535,22.40688 263.0163,87.7619 69.4628,65.35502 108.3695,161.92919 103.612,257.1853 l 0.6415,267.07024 0.5512,-259.6046 c 0.088,-41.57807 0.5514,-83.38994 7.9693,-124.30104 7.4178,-40.91111 21.8597,-80.82868 44.9328,-115.4174 23.073,-34.58872 54.6624,-63.54958 91.4716,-82.88424 36.8091,-19.33467 78.5939,-28.98774 120.1636,-28.15128 41.5729,0.83652 82.916,12.15142 119.0208,32.77768 36.1049,20.62626 66.756,50.49238 89.0418,85.59711 22.2859,35.10474 36.1176,75.17647 43.2219,116.14636 7.1042,40.96989 7.5431,82.76559 7.6334,124.34677 l 0.5513,253.98534 0.6415,-261.45098 c -4.7575,-95.25609 34.1492,-191.83024 103.612,-257.18526 69.4628,-65.35502 168.2265,-98.31 263.0162,-87.76194 77.847,8.6627 152.1058,46.02284 205.7664,103.08193 53.6606,57.05909 86.3658,133.31578 91.1378,211.4978 4.8244,79.03951 -20.0101,161.32552 -75.0596,218.24721 -27.5247,28.46084 -62.1664,50.20554 -100.1434,61.40294 -37.9769,11.1974 -79.2329,11.6699 -117.1076,0.1313 -41.1619,-12.5401 -77.8226,-39.2873 -102.4597,-74.56572 -24.6372,-35.27838 -37.1202,-78.85124 -35.0614,-121.83163 2.0588,-42.98039 18.6195,-85.11378 46.2542,-118.09669 27.6348,-32.98291 66.1662,-56.64573 108.0448,-66.53182 36.7537,-8.67627 75.937,-6.79544 111.6907,5.36124 35.7537,12.15668 67.9625,34.55007 91.8101,63.8315 23.8476,29.28143 39.2572,65.35663 43.9244,102.83099 4.6672,37.47435 -1.423,76.22721 -17.3599,110.46354"
       id="path4370-9-3-9-2-1"
       inkscape:path-effect="#path-effect4372-5-9-5-9-80"
       inkscape:original-d="m 1023.9239,947.40388 c 0,0 114.78,-320.65768 230.0652,-282.48727 120.6885,39.95949 132.5658,328.53156 16.778,381.02589 -122.8408,55.692 -288.8855,-144.94921 -292.3106,-279.78141 -3.66167,-144.14189 152.7793,-310.30102 296.9041,-314.57973 167.7239,-4.97931 366.6283,344.9472 366.6283,344.9472 l 0.6415,267.07024 0.5512,-259.6046 c 4.8204,-286.95163 118.1031,-352.30479 264.5373,-350.75396 147.4986,1.5621 254.0976,71.91629 258.9179,358.86792 l 0.5513,253.98534 0.6415,-261.45098 c 0,0 198.9044,-349.92651 366.6282,-344.9472 144.1248,4.27871 300.5658,170.43785 296.9042,314.57973 -3.4251,134.8322 -169.4698,335.47345 -292.3106,279.78145 -115.7879,-52.4943 -103.9106,-341.06644 16.7779,-381.02586 115.2853,-38.17048 230.0653,282.48727 230.0653,282.48727"
       inkscape:connector-curvature="0"
       sodipodi:nodetypes="caaaacccacccaaaac" />
    <path
       style="color:#000000;font-style:normal;font-variant:normal;font-weight:normal;font-stretch:normal;font-size:medium;line-height:normal;font-family:sans-serif;text-indent:0;text-align:start;text-decoration:none;text-decoration-line:none;text-decoration-style:solid;text-decoration-color:#000000;letter-spacing:normal;word-spacing:normal;text-transform:none;direction:ltr;block-progression:tb;writing-mode:lr-tb;baseline-shift:baseline;text-anchor:start;white-space:normal;clip-rule:nonzero;display:inline;overflow:visible;visibility:visible;opacity:1;isolation:auto;mix-blend-mode:normal;color-interpolation:sRGB;color-interpolation-filters:linearRGB;solid-color:#000000;solid-opacity:1;fill:#000000;fill-opacity:1;fill-rule:evenodd;stroke:none;stroke-width:120;stroke-linecap:round;stroke-linejoin:round;stroke-miterlimit:4;stroke-dasharray:none;stroke-dashoffset:0;stroke-opacity:1;color-rendering:auto;image-rendering:auto;shape-rendering:auto;text-rendering:auto;enable-background:accumulate"
       d="m -1737.8652,402.93555 c -14.1194,0.002 -28.2741,0.77982 -42.3985,2.35156 -92.5242,10.29599 -179.2082,53.94583 -242.8398,121.60742 -63.6025,67.63065 -101.6733,156.49364 -107.3164,248.94727 -4.4978,73.68896 12.2478,149.94177 52.7734,213.77929 a 60.006,60.006 0 0 0 5.5371,8.56836 c 9.8832,14.51595 21.0147,28.34955 33.5078,41.26755 34.397,35.5669 77.6104,62.8848 126.3047,77.2422 48.844,14.4016 101.6297,15.1881 151.5606,-0.023 54.4136,-16.5773 101.6823,-51.0936 134.166,-97.6074 a 60.006,60.006 0 0 0 0,-0 c 32.4685,-46.4923 48.5069,-102.56097 45.8008,-159.05468 -2.7049,-56.46801 -23.9826,-110.54106 -60.1934,-153.75977 -36.1947,-43.19945 -85.5469,-73.47863 -140.2519,-86.39257 -47.9212,-11.31249 -98.1738,-8.90121 -144.7911,6.94921 -12.4674,4.23908 -24.5168,9.46573 -36.1308,15.48047 7.984,-11.76463 16.7917,-22.91234 26.4512,-33.18359 43.6895,-46.45659 105.5236,-77.52524 168.6933,-84.55469 76.5847,-8.52225 159.1437,19.02504 215.2656,71.82813 56.122,52.80309 88.6447,133.53275 84.8008,210.49414 a 60.006,60.006 0 0 0 -0.074,3.13672 l 0.6426,266.79883 0,0.2715 a 60.006,60.006 0 0 0 119.998,-0.018 l 0,-0.2715 0.5528,-259.33202 c 0.087,-41.21739 0.79,-79.44319 7.0058,-113.7246 6.2012,-34.20091 18.1476,-66.35061 35.8086,-92.82618 17.6234,-26.41917 41.9754,-48.62625 69.459,-63.0625 a 60.006,60.006 0 0 0 0,0 c 27.5384,-14.46507 59.5764,-21.91465 91.0546,-21.28125 31.4927,0.63369 63.2836,9.36035 90.4649,24.88867 27.1438,15.50693 50.9532,38.5673 68.15037,65.65626 17.23347,27.14617 28.76817,59.69843 34.75781,94.24023 6.00171,34.61143 6.66242,72.98031 6.75196,114.22656 l 0.55078,253.70703 0,0.2773 a 60.006,60.006 0 0 0 120,0.018 l 0,-0.2773 0.64062,-261.17385 a 60.006,60.006 0 0 0 -0.0742,-3.14062 c -3.84381,-76.9614 28.68083,-157.69108 84.80274,-210.49414 56.12191,-52.80307 138.681,-80.35035 215.26562,-71.82813 63.16978,7.02944 125.00375,38.09808 168.69336,84.55469 9.65991,10.2717 18.46883,21.42034 26.45313,33.18555 -11.6152,-6.01558 -23.66599,-11.24289 -36.13477,-15.48242 -46.61725,-15.85043 -96.8699,-18.26174 -144.79101,-6.94922 -54.70509,12.91397 -104.05531,43.19316 -140.25,86.39257 -36.2109,43.21877 -57.48848,97.29185 -60.19336,153.75977 -2.70613,56.49374 13.33223,112.56434 45.80078,159.0566 32.48372,46.5141 79.75058,81.0302 134.16406,97.6075 49.93089,15.2115 102.71847,14.4249 151.5625,0.023 48.69433,-14.3574 91.90775,-41.6753 126.30469,-77.2422 12.44521,-12.8685 23.53361,-26.6486 33.38867,-41.1035 a 60.006,60.006 0 0 0 5.95117,-9.20118 c 40.31025,-63.74229 56.96532,-139.79959 52.47852,-213.30859 -5.64313,-92.45363 -43.71585,-181.31661 -107.31836,-248.94726 -63.63162,-67.6616 -150.3136,-111.31342 -242.83789,-121.60938 -112.99486,-12.5739 -227.96393,25.78836 -310.76758,103.69531 -18.96546,17.84392 -35.85663,37.56895 -50.72461,58.63282 -4.09956,-7.75185 -8.40347,-15.43163 -13.16601,-22.9336 -27.37462,-43.12053 -64.86776,-79.79152 -109.9336,-105.53711 -45.02847,-25.72419 -95.92307,-39.62861 -147.57617,-40.66797 -51.6612,-1.03952 -103.1917,10.81725 -149.2715,35.02149 l 0,-0.002 c -46.1347,24.23306 -84.9617,59.94876 -113.4844,102.70703 -5.3997,8.09476 -10.2576,16.41541 -14.8496,24.83398 -15.1247,-21.64923 -32.4009,-41.88972 -51.83,-60.16992 -72.4533,-68.1686 -169.5318,-106.06062 -268.3672,-106.04492 z m -100.4668,330.02148 c 10.0025,0.20126 19.952,1.4264 29.5468,3.69141 29.0522,6.85819 56.765,23.90355 75.8399,46.66992 19.0586,22.74711 30.9017,52.94078 32.3144,82.43359 1.4115,29.46712 -7.5165,60.54295 -24.3222,84.60743 -16.7907,24.04283 -42.8437,43.02245 -70.7539,51.52542 -25.8185,7.8656 -55.5445,7.7061 -82.6543,-0.2871 -27.2595,-8.03745 -53.33,-24.20961 -73.9825,-45.5645 -7.4343,-7.6872 -14.1851,-16.16383 -20.2753,-25.23437 -9.5895,-22.77318 -13.3088,-48.67095 -10.2657,-73.10547 3.2491,-26.0879 14.3066,-51.97295 30.9082,-72.35742 16.6016,-20.38439 39.7116,-36.45113 64.6016,-44.91406 15.5564,-5.28935 32.372,-7.80028 49.043,-7.46485 z m 1388.50583,8.11328 c 16.67094,-0.33543 33.48666,2.17551 49.04297,7.46485 24.89008,8.46292 47.99993,24.52964 64.60156,44.91406 16.60161,20.3844 27.65912,46.26948 30.9082,72.35742 3.04311,24.43408 -0.67837,50.3324 -10.26758,73.10547 -6.09027,9.07055 -12.84101,17.54911 -20.27539,25.23633 -20.6525,21.35494 -46.72288,37.52506 -73.98242,45.56246 -27.10983,7.9933 -56.83391,8.1528 -82.65234,0.2871 -27.91028,-8.5029 -53.96331,-27.4806 -70.75391,-51.52339 -16.80575,-24.06446 -25.73378,-55.14036 -24.32226,-84.60742 1.41274,-29.49286 13.25579,-59.68652 32.31445,-82.4336 19.07487,-22.7664 46.78574,-39.81367 75.83789,-46.67187 9.59484,-2.26501 19.54627,-3.49015 29.54883,-3.69141 z"
       id="path4370-9-3-9-2-1-7"
       inkscape:connector-curvature="0" />
    <path
       style="fill:none;fill-rule:evenodd;stroke:#000000;stroke-width:70.00000763;stroke-linecap:round;stroke-linejoin:round;stroke-miterlimit:4;stroke-dasharray:none;stroke-opacity:1"
       d="m -7106.2266,243.0266 c -29.7246,-43.39046 -48.1827,-94.42959 -53.0882,-146.795834 -4.9054,-52.366243 3.7526,-105.9454736 24.9016,-154.101534 21.149,-48.156062 54.7429,-90.784002 96.621,-122.604052 41.878,-31.82005 91.9489,-52.76286 144.011,-60.23453 77.9238,-11.1832 159.8868,8.62392 224.0365,54.25297 64.1496,45.62904 109.767,116.602745 124.5166,193.9308351 14.7496,77.3280899 -1.5603,160.1543349 -44.6249,226.0529449 -43.0646,65.8986 -112.4196,114.10763 -189.2201,131.3953 -59.1469,13.31387 -121.9759,8.5798 -179.1096,-11.70219 -57.1337,-20.28199 -108.5134,-55.86566 -149.0107,-100.98311 -80.9946,-90.2349 -116.0774,-216.428545 -107.3642,-337.368784 8.6167,-119.601006 58.6613,-236.033506 140.4864,-323.687956 81.8251,-87.65445 195.013,-145.70903 314.1034,-159.71314 145.634,-17.12542 297.8262,33.2835 404.4424,133.95889 106.6161,100.6754 165.6584,249.73088 156.9017,396.106615 l 0.9822,410.395305 0.8441,-398.923199 c 0.135,-63.793511 0.8371,-127.941791 12.1513,-190.724111 11.3142,-62.78232 33.3474,-124.06341 68.6112,-177.22441 35.2638,-53.16101 83.5923,-97.7475 139.9908,-127.56096 56.3985,-29.81346 120.4985,-44.76005 184.2793,-43.47901 63.7916,1.28125 127.2157,18.77545 182.5346,50.56883 55.319,31.79339 102.2088,77.76789 136.2667,131.72217 34.058,53.95429 55.1568,115.4761 65.9909,178.35399 10.834,62.8779 11.499,127.007589 11.637,190.811874 l 0.8439,390.288436 0.9822,-401.760575 c -7.9639,-146.181645 51.3182,-294.685805 157.7606,-395.197095 106.4423,-100.51129 258.0979,-151.19111 403.5835,-134.86839 119.42,13.39829 233.264,70.93242 315.4112,158.63924 82.1472,87.70682 132.0617,204.80353 139.1786,324.761862 7.1823,121.061418 -30.887,246.987168 -115.0571,334.296038 -42.0851,43.65444 -95.0345,77.08778 -153.1276,94.46747 -58.0931,17.37968 -121.247,18.43795 -179.3719,1.16472 -63.6552,-18.91672 -120.4993,-59.87092 -158.7652,-114.14387 -38.2659,-54.27296 -57.7404,-121.49817 -54.6169,-187.831232 3.1234,-66.333062 28.7894,-131.370253 71.6494,-182.093518 42.86,-50.72327 102.6352,-86.8578 167.4215,-101.43753 60.2293,-13.55422 124.5095,-8.51411 181.8903,14.26174 57.3807,22.77585 107.6196,63.19123 142.1582,114.361232 34.5387,51.170005 53.2312,112.878481 52.8933,174.613189 -0.3379,61.734709 -19.7048,123.234859 -54.8016,174.023699"
       id="path4370-9-3-9-2-4"
       inkscape:path-effect="#path-effect4372-5-9-5-9-83"
       inkscape:original-d="m -7106.2266,243.0266 c 0,0 37.5074,-503.65496 212.4454,-483.73595 204.0914,23.2385 297.0789,511.08573 114.7081,605.63205 -185.3108,96.07046 -433.9968,-241.27864 -435.4845,-450.054084 -1.5763,-221.215116 233.9204,-476.826186 454.5898,-483.401096 256.8018,-7.6515 561.3441,530.065505 561.3441,530.065505 l 0.9822,410.395305 0.8441,-398.923199 c 7.3803,-440.946191 180.8275,-541.371581 405.0326,-538.988491 225.835,2.40042 389.0487,110.51067 396.4292,551.456864 l 0.8439,390.288436 0.9822,-401.760575 c 0,0 304.5423,-537.716965 561.3441,-530.065485 220.6694,6.57491 460.196,261.90454 454.5898,483.401102 -5.2443,207.190918 -259.475,515.507678 -447.5566,429.928228 -177.2826,-80.6658 -161.6111,-532.32466 25.6888,-585.50615 184.2276,-52.30913 322.1402,477.25986 322.1402,477.25986"
       inkscape:connector-curvature="0"
       sodipodi:nodetypes="caaaacccacccaaaac" />
    <path
       style="color:#000000;font-style:normal;font-variant:normal;font-weight:normal;font-stretch:normal;font-size:medium;line-height:normal;font-family:sans-serif;text-indent:0;text-align:start;text-decoration:none;text-decoration-line:none;text-decoration-style:solid;text-decoration-color:#000000;letter-spacing:normal;word-spacing:normal;text-transform:none;direction:ltr;block-progression:tb;writing-mode:lr-tb;baseline-shift:baseline;text-anchor:start;white-space:normal;clip-rule:nonzero;display:inline;overflow:visible;visibility:visible;opacity:1;isolation:auto;mix-blend-mode:normal;color-interpolation:sRGB;color-interpolation-filters:linearRGB;solid-color:#000000;solid-opacity:1;fill:#000000;fill-opacity:1;fill-rule:evenodd;stroke:none;stroke-width:70.00000763;stroke-linecap:round;stroke-linejoin:round;stroke-miterlimit:4;stroke-dasharray:none;stroke-dashoffset:0;stroke-opacity:1;color-rendering:auto;image-rendering:auto;shape-rendering:auto;text-rendering:auto;enable-background:accumulate"
       d="m -11125.612,1338.9131 c -19.61,0.084 -39.237,1.2584 -58.782,3.5566 -127.678,15.014 -248.05,76.8013 -335.601,170.5899 -87.518,93.7523 -140.613,217.3917 -149.811,345.0566 -9.322,129.397 27.753,264.6961 116.227,363.2637 44.216,49.2608 100.288,88.1995 163.349,110.5859 63.139,22.4138 132.443,27.7357 198.504,12.8653 85.997,-19.3577 162.63,-72.6344 210.832,-146.3946 48.198,-73.7531 66.209,-165.2469 49.707,-251.7578 -16.499,-86.5028 -66.877,-164.8699 -138.609,-215.8925 -71.726,-51.0179 -162.205,-72.876 -249.297,-60.377 -58.042,8.3299 -113.525,31.5348 -160.213,67.0098 -46.688,35.4749 -83.914,82.7111 -107.492,136.3984 -5.457,12.425 -10.08,25.1817 -14.025,38.1328 -0.542,-16.2854 -0.332,-32.5915 0.836,-48.8047 8.035,-111.537 55.029,-220.7617 131.162,-302.3183 76.099,-81.5203 182.103,-135.8417 292.605,-148.836 134.913,-15.8647 277.559,31.3803 376.326,124.6446 98.768,93.2642 154.107,232.9699 145.995,368.5703 a 35.003504,35.003504 0 0 0 -0.06,2.1738 l 0.982,410.2363 0,0.1582 a 35.003504,35.003504 0 0 0 70,-0.01 l 0,-0.1582 0.844,-398.7637 c 0.134,-63.5864 0.974,-125.6561 11.595,-184.5918 10.613,-58.8892 31.205,-115.6517 63.332,-164.084 32.105,-48.3979 76.226,-89.0305 127.182,-115.9668 50.984,-26.9515 109.375,-40.5895 167.221,-39.4277 57.862,1.1621 115.689,17.1236 165.797,45.9219 50.0885,28.7874 93.0007,70.7771 124.109,120.0585 31.1303,49.3163 50.904,106.466 61.0957,165.6153 10.1985,59.1896 10.9913,121.3315 11.1289,184.9433 l 0.8437,390.127 0,0.1621 a 35.003504,35.003504 0 0 0 70,0.01 l 0,-0.1622 0.9824,-401.5976 a 35.003504,35.003504 0 0 0 -0.051,-1.9902 c -7.3807,-135.4754 48.1951,-274.6958 146.8417,-367.8457 98.6466,-93.15 240.8201,-140.6624 375.6504,-125.5352 110.8367,12.4353 217.4308,66.2799 293.7696,147.7852 76.3578,81.5256 123.1615,191.2636 129.7851,302.9082 0.3364,5.669 0.4873,11.3536 0.6075,17.039 -9.1052,-22.993 -20.5859,-45.0661 -34.4786,-65.6484 -38.5625,-57.1316 -94.1899,-101.8812 -158.2558,-127.3106 -64.0659,-25.4293 -135.24,-31.0103 -202.4864,-15.8769 -72.372,16.2869 -138.5472,56.2761 -186.4726,112.9941 -47.9335,56.7276 -76.3785,128.7794 -79.875,203.0371 -3.4972,74.2705 18.0861,148.818 60.9726,209.6446 42.8942,60.8372 105.9767,106.3001 177.4004,127.5254 65.1349,19.3563 134.9806,18.0826 199.3731,-1.1817 64.3066,-19.2386 122.2243,-55.9224 168.293,-103.709 1.4289,-1.4822 2.7327,-3.0575 4.1367,-4.5586 a 35.003504,35.003504 0 0 0 14.789,-12.4492 c 4.5033,-6.5167 8.7107,-13.2199 12.7403,-20.0215 69.6935,-91.8063 99.8854,-209.8112 93.1328,-323.6308 -7.6102,-128.2721 -60.6357,-252.7272 -148.5723,-346.6152 -87.9557,-93.9085 -209.0514,-155.1329 -337.0547,-169.4942 -156.1408,-17.5182 -317.2775,36.3305 -431.5156,144.2031 -53.7682,50.7722 -96.0047,112.6765 -124.9512,180.2657 -12.8827,-47.4809 -31.9093,-93.6569 -58.6367,-135.9981 -37.0075,-58.6271 -87.8727,-108.5855 -148.422,-143.3848 -60.53,-34.7885 -129.552,-53.8164 -199.273,-55.2167 -69.716,-1.4003 -139.526,14.8538 -201.338,47.5292 -61.841,32.6907 -114.378,81.2322 -152.801,139.1563 -27.797,41.9053 -47.677,87.9792 -61.146,135.5059 -28.835,-67.9761 -71.148,-130.2442 -125.149,-181.2364 -100.156,-94.5757 -236.509,-147.4137 -373.777,-146.8281 z m -144.508,398.1152 c 56.677,0.2525 113.784,18.1037 159.75,50.7989 56.567,40.2354 97.424,103.8134 110.424,171.9667 12.998,68.1453 -1.614,142.3056 -39.545,200.3497 -37.927,58.037 -100.003,101.1787 -167.608,116.3964 -52.232,11.7574 -108.586,7.6092 -159.715,-10.541 -46.748,-16.5954 -89.637,-44.9917 -124.752,-80.9726 a 35.003504,35.003504 0 0 0 -6.125,-16.0176 c -26.31,-38.4066 -42.773,-83.9279 -47.115,-130.2793 -4.342,-46.3515 3.38,-94.1388 22.1,-136.7637 18.72,-42.6247 48.682,-80.6453 85.75,-108.8105 37.068,-28.1652 81.726,-46.8436 127.808,-53.457 12.892,-1.8502 25.948,-2.7282 39.028,-2.67 z m 2119.074,8.0723 c 34.2591,0.1632 68.5574,6.6384 100.2422,19.2148 50.6956,20.1224 95.5458,56.2018 126.0605,101.4102 30.5148,45.2084 47.2009,100.2975 46.9023,154.8398 -0.2558,46.7413 -13.0719,93.7008 -36.2246,134.4317 -7.5468,9.7845 -15.5316,19.2159 -24.1035,28.1074 -38.1016,39.5224 -86.0813,69.7057 -137.9609,85.2266 -51.7938,15.4951 -108.2562,16.3365 -159.3711,1.1464 -55.8867,-16.6081 -106.4932,-53.0529 -140.1309,-100.7617 -33.6451,-47.7193 -51.0094,-107.6219 -48.2597,-166.0176 2.7502,-58.4083 25.6353,-116.4294 63.4218,-161.1484 37.7946,-44.7285 91.1706,-77.0102 148.3711,-89.8828 19.9546,-4.4907 40.4973,-6.6643 61.0528,-6.5664 z"
       id="path4370-9-3-9-2-4-3"
       inkscape:connector-curvature="0" />
    <path
       style="color:#000000;font-style:normal;font-variant:normal;font-weight:normal;font-stretch:normal;font-size:medium;line-height:normal;font-family:sans-serif;text-indent:0;text-align:start;text-decoration:none;text-decoration-line:none;text-decoration-style:solid;text-decoration-color:#000000;letter-spacing:normal;word-spacing:normal;text-transform:none;direction:ltr;block-progression:tb;writing-mode:lr-tb;baseline-shift:baseline;text-anchor:start;white-space:normal;clip-rule:nonzero;display:inline;overflow:visible;visibility:visible;opacity:1;isolation:auto;mix-blend-mode:normal;color-interpolation:sRGB;color-interpolation-filters:linearRGB;solid-color:#000000;solid-opacity:1;fill:#000000;fill-opacity:1;fill-rule:evenodd;stroke:none;stroke-width:120;stroke-linecap:round;stroke-linejoin:round;stroke-miterlimit:4;stroke-dasharray:none;stroke-dashoffset:0;stroke-opacity:1;color-rendering:auto;image-rendering:auto;shape-rendering:auto;text-rendering:auto;enable-background:accumulate"
       d="m -5597.1872,1409.3762 c -14.1194,0 -28.2741,0.7798 -42.3985,2.3516 -92.5242,10.296 -179.2082,53.9458 -242.8398,121.6074 -63.6025,67.6307 -101.6733,156.4937 -107.3164,248.9473 -4.4978,73.689 12.2478,149.9418 52.7734,213.7793 a 60.006,60.006 0 0 0 5.5371,8.5684 c 9.8832,14.5159 21.0147,28.3495 33.5078,41.2675 34.397,35.5669 77.6104,62.8848 126.3047,77.2422 48.844,14.4016 101.6297,15.1881 151.5606,-0.023 54.4136,-16.5773 101.6823,-51.0936 134.166,-97.6074 32.4685,-46.4923 48.5069,-102.561 45.8008,-159.0547 -2.7049,-56.468 -23.9826,-110.541 -60.1934,-153.7597 -36.1947,-43.1995 -85.5469,-73.4787 -140.2519,-86.3926 -47.9212,-11.3125 -98.1738,-8.9013 -144.7911,6.9492 -12.4674,4.239 -24.5168,9.4657 -36.1308,15.4804 7.984,-11.7646 16.7917,-22.9123 26.4512,-33.1836 43.6895,-46.4565 105.5236,-77.5252 168.6933,-84.5546 76.5847,-8.5223 159.1437,19.025 215.2656,71.8281 56.122,52.8031 88.6447,133.5328 84.8008,210.4942 a 60.006,60.006 0 0 0 -0.074,3.1367 l 0.6426,266.7988 0,0.2715 a 60.006,60.006 0 0 0 119.998,-0.018 l 0,-0.2715 0.5528,-259.332 c 0.087,-41.2174 0.79,-79.4432 7.0058,-113.7246 6.2012,-34.201 18.1476,-66.3507 35.8086,-92.8262 17.6234,-26.4192 41.9754,-48.6263 69.459,-63.0625 27.5384,-14.4651 59.5764,-21.9147 91.0546,-21.2813 31.4927,0.6337 63.2836,9.3604 90.4649,24.8887 27.1438,15.5069 50.9532,38.5673 68.1504,65.6563 17.2335,27.1461 28.7682,59.6984 34.7578,94.2402 6.0017,34.6114 6.6624,72.9803 6.752,114.2266 l 0.5508,253.707 0,0.2773 a 60.006,60.006 0 0 0 120,0.018 l 0,-0.2773 0.6406,-261.1738 a 60.006,60.006 0 0 0 -0.074,-3.1407 c -3.8438,-76.9614 28.6808,-157.6911 84.8027,-210.4941 56.1219,-52.8031 138.681,-80.3504 215.2656,-71.8282 63.1698,7.0295 125.0038,38.0981 168.6934,84.5547 9.6599,10.2717 18.4688,21.4204 26.4531,33.1856 -11.6152,-6.0156 -23.666,-11.2429 -36.1347,-15.4824 -46.6173,-15.8505 -96.8699,-18.2618 -144.791,-6.9493 -54.7051,12.914 -104.0554,43.1932 -140.25,86.3926 -36.2109,43.2188 -57.4885,97.2919 -60.1934,153.7598 -2.7061,56.4937 13.3322,112.5643 45.8008,159.0566 32.4837,46.5141 79.7506,81.0302 134.164,97.6075 49.9309,15.2115 102.7185,14.4249 151.5625,0.023 48.6944,-14.3574 91.9078,-41.6753 126.3047,-77.2422 12.4452,-12.8685 23.5336,-26.6486 33.3887,-41.1035 a 60.006,60.006 0 0 0 5.9512,-9.2012 c 40.3102,-63.7423 56.9653,-139.7996 52.4785,-213.3086 -5.6433,-92.4536 -43.7161,-181.3166 -107.3186,-248.9473 -63.6316,-67.6616 -150.3136,-111.3134 -242.8379,-121.6093 -112.9948,-12.574 -227.9639,25.7883 -310.7675,103.6953 -18.9655,17.8439 -35.8567,37.5689 -50.7247,58.6328 -4.0995,-7.7519 -8.4034,-15.4316 -13.166,-22.9336 -27.3746,-43.1205 -64.8677,-79.7915 -109.9336,-105.5371 -45.0285,-25.7242 -95.9231,-39.6286 -147.5762,-40.668 -51.6612,-1.0395 -103.1917,10.8173 -149.2715,35.0215 l 0,-0 c -46.1347,24.2331 -84.9617,59.9488 -113.4844,102.707 -5.3997,8.0948 -10.2576,16.4154 -14.8496,24.834 -15.1247,-21.6492 -32.4009,-41.8897 -51.83,-60.1699 -72.4533,-68.1686 -169.5318,-106.0606 -268.3672,-106.0449 z m -100.4668,330.0215 c 10.0025,0.2013 19.952,1.4264 29.5468,3.6914 29.0522,6.8582 56.765,23.9036 75.8399,46.67 19.0586,22.7471 30.9017,52.9407 32.3144,82.4336 1.4115,29.4671 -7.5165,60.5429 -24.3222,84.6074 -16.7907,24.0428 -42.8437,43.0224 -70.7539,51.5254 -25.8185,7.8656 -55.5445,7.7061 -82.6543,-0.2871 -27.2595,-8.0374 -53.33,-24.2096 -73.9825,-45.5645 -7.4343,-7.6872 -14.1851,-16.1638 -20.2753,-25.2344 -9.5895,-22.7731 -13.3088,-48.6709 -10.2657,-73.1054 3.2491,-26.0879 14.3066,-51.973 30.9082,-72.3575 16.6016,-20.3843 39.7116,-36.4511 64.6016,-44.914 15.5564,-5.2894 32.372,-7.8003 49.043,-7.4649 z m 1388.5059,8.1133 c 16.6709,-0.3354 33.4866,2.1755 49.0429,7.4649 24.8901,8.4629 48,24.5296 64.6016,44.914 16.6016,20.3844 27.6591,46.2695 30.9082,72.3574 3.0431,24.4341 -0.6784,50.3324 -10.2676,73.1055 -6.0902,9.0706 -12.841,17.5491 -20.2754,25.2363 -20.6525,21.355 -46.7228,37.5251 -73.9824,45.5625 -27.1098,7.9933 -56.8339,8.1528 -82.6523,0.2871 -27.9103,-8.5029 -53.9633,-27.4806 -70.7539,-51.5234 -16.8058,-24.0644 -25.7338,-55.1403 -24.3223,-84.6074 1.4127,-29.4929 13.2558,-59.6865 32.3145,-82.4336 19.0748,-22.7664 46.7857,-39.8137 75.8378,-46.6719 9.5949,-2.265 19.5463,-3.4901 29.5489,-3.6914 z"
       id="path4370-9-3-9-2-1-7-6"
       inkscape:connector-curvature="0" />
    <path
       style="fill:none;fill-rule:evenodd;stroke:#000000;stroke-width:60;stroke-linecap:round;stroke-linejoin:round;stroke-miterlimit:4;stroke-dasharray:none;stroke-opacity:1"
       d="m -6387.6311,979.58164 c -15.5822,-37.42855 -20.8442,-79.09325 -15.0569,-119.22066 5.7874,-40.1274 22.6082,-78.60721 48.1316,-110.10733 25.5234,-31.50011 59.6793,-55.93394 97.7347,-69.91572 38.0554,-13.98177 79.9057,-17.47306 119.7517,-9.99007 49.1871,9.2372 95.0643,35.36047 127.9985,73.04373 32.9342,37.68326 52.689,86.69631 54.9451,136.69233 2.2561,49.99602 -13.0288,100.6353 -42.6874,140.94738 -29.6585,40.3121 -73.5031,69.9956 -121.9835,82.4189 -42.7104,10.9447 -88.5386,8.5708 -130.3526,-5.4132 -41.814,-13.984 -79.5637,-39.3869 -109.3206,-71.9214 -59.5138,-65.0689 -85.2394,-157.00082 -78.6786,-244.93722 6.3489,-85.09582 41.8767,-167.92676 100.0076,-230.39596 58.1309,-62.46921 138.6026,-103.96928 223.347,-113.96886 95.5552,-11.27522 195.2461,18.20803 269.2972,79.64377 74.0512,61.43574 121.4328,153.96958 127.9931,249.96379 l 2.6987,340.35698 0.6003,-284.18448 c 0.096,-45.5209 0.5747,-91.28739 8.5115,-136.11113 7.9369,-44.82373 23.4153,-88.62919 48.3718,-126.69929 24.9566,-38.07011 59.3041,-70.08616 99.5612,-91.33535 40.257,-21.24919 86.175,-31.63185 131.6599,-29.81834 46.9816,1.87319 93.2955,16.71806 132.9676,41.95502 39.672,25.23696 72.5404,60.70905 96.0984,101.40056 23.558,40.6915 37.7945,86.35255 45.0889,132.80219 7.2944,46.44965 7.7182,93.66978 7.8293,140.68855 l 0.6004,254.03317 0.6987,-340.20568 c 9.0615,-94.95311 57.6496,-185.51649 131.7529,-245.57402 74.1033,-60.05752 172.7664,-88.83492 267.5373,-78.03353 84.9694,9.68427 165.9143,50.74459 224.3206,113.21289 58.4062,62.46829 93.9005,145.78671 99.0342,231.15193 5.184,86.20209 -21.7811,175.91174 -81.6474,238.15081 -29.9332,31.1195 -67.6213,54.9619 -108.9854,67.3488 -41.364,12.3868 -86.3449,13.125 -127.7191,0.7722 -45.2493,-13.5098 -85.6217,-42.7088 -112.768,-81.3493 -27.1463,-38.64062 -40.9205,-86.45912 -38.6688,-133.62845 2.2517,-47.16933 20.4844,-93.40583 50.896,-129.53269 30.4117,-36.12686 72.8038,-61.95586 118.8135,-72.59182 40.1603,-9.28376 82.9142,-7.05538 121.8917,6.35314 38.9776,13.40851 74.0542,37.95432 100.0036,69.98025 25.9495,32.02594 42.689,71.42967 47.7243,112.34032 5.0354,40.91065 -1.6494,83.19749 -19.0584,120.56008"
       id="path4370-9-3-9-2-1-6"
       inkscape:path-effect="#path-effect4372-5-9-5-9-80-7"
       inkscape:original-d="m -6387.6311,979.58164 c 0,0 124.6033,-350.89122 250.5611,-309.23378 137.1878,45.37148 150.7512,375.40924 18.2727,433.10234 -138.4411,60.2897 -316.439,-171.28467 -318.3518,-322.27182 -1.9947,-157.44823 166.1977,-334.58498 323.3546,-344.36482 171.7404,-10.68737 397.2903,329.60756 397.2903,329.60756 l 2.6987,340.35698 0.6003,-284.18448 c 5.2498,-314.12084 128.141,-387.88086 288.1044,-383.96411 167.7048,4.1063 276.7345,102.72547 281.9842,416.84632 l 0.6004,254.03317 0.6987,-340.20568 c 0,0 228.3649,-335.22853 399.2902,-323.60755 157.0982,10.6809 327.3426,186.57527 323.3548,344.36482 -3.7303,147.59842 -184.5675,367.23681 -318.3519,306.27181 -126.1032,-57.4646 -113.1677,-373.35939 18.2727,-417.10226 125.5557,-41.78454 250.5612,309.23379 250.5612,309.23379"
       inkscape:connector-curvature="0"
       sodipodi:nodetypes="caaaacccacccaaaac" />
    <path
       style="color:#000000;font-style:normal;font-variant:normal;font-weight:normal;font-stretch:normal;font-size:medium;line-height:normal;font-family:sans-serif;text-indent:0;text-align:start;text-decoration:none;text-decoration-line:none;text-decoration-style:solid;text-decoration-color:#000000;letter-spacing:normal;word-spacing:normal;text-transform:none;direction:ltr;block-progression:tb;writing-mode:lr-tb;baseline-shift:baseline;text-anchor:start;white-space:normal;clip-rule:nonzero;display:inline;overflow:visible;visibility:visible;opacity:1;isolation:auto;mix-blend-mode:normal;color-interpolation:sRGB;color-interpolation-filters:linearRGB;solid-color:#000000;solid-opacity:1;fill:#000000;fill-opacity:1;fill-rule:evenodd;stroke:none;stroke-width:60;stroke-linecap:round;stroke-linejoin:round;stroke-miterlimit:4;stroke-dasharray:none;stroke-dashoffset:0;stroke-opacity:1;color-rendering:auto;image-rendering:auto;shape-rendering:auto;text-rendering:auto;enable-background:accumulate"
       d="m -10447.943,2330.457 c -13.047,0.1759 -26.101,1.0225 -39.102,2.5567 -92.142,10.8726 -178.772,55.5978 -241.795,123.3242 -62.986,67.6883 -101.101,156.6654 -107.961,248.6016 -7.109,95.286 20.354,195.1401 86.459,267.416 33.036,36.1195 74.914,64.3974 121.942,80.125 47.098,15.7512 98.596,18.5082 147.316,6.0234 55.398,-14.1962 104.843,-47.6831 138.699,-93.7012 33.851,-46.0089 51.067,-103.0749 48.494,-160.0781 -2.571,-56.9925 -24.821,-112.1693 -62.326,-155.082 a 30.003,30.003 0 0 0 0,-0 c -37.498,-42.9043 -89.105,-72.2788 -145.051,-82.7851 -45.254,-8.4988 -92.413,-4.5651 -135.634,11.3144 -43.221,15.8797 -81.71,43.4134 -110.698,79.1895 -11.028,13.6103 -20.583,28.3278 -28.578,43.8379 7.457,-75.3889 39.855,-148.7402 91.264,-203.9864 53.239,-57.2119 127.554,-95.4846 204.9,-104.6113 87.099,-10.2776 179.128,16.9401 246.627,72.9395 l 0,-0 c 67.339,55.8669 111.015,141.0199 117.158,228.3027 l 2.69,339.168 a 30.003,30.003 0 0 0 59.998,-0.1738 l 0,-0.3008 0.602,-283.8809 0,-0 c 0.1,-45.355 0.69,-89.3704 8.05,-130.9433 7.355,-41.534 21.633,-81.4801 43.922,-115.4824 22.2661,-33.965 52.9894,-62.5215 88.4748,-81.252 35.4964,-18.7363 76.3337,-27.9729 116.461,-26.373 41.4614,1.6531 82.8147,14.8698 118.0605,37.291 35.262,22.4316 64.9548,54.3564 86.2383,91.1191 21.3081,36.8053 34.5803,78.9093 41.414,122.4258 6.8387,43.5472 7.3561,89.2195 7.4668,136.1055 l 0.5996,253.9004 0,0.1328 a 30.003,30.003 0 0 0 60,-0.01 l 0,-0.1328 0.6954,-338.3613 c 8.5379,-86.2675 53.302,-169.4593 120.6464,-224.0391 67.6258,-54.8077 158.7633,-81.3904 245.25,-71.5332 77.6199,8.8466 152.3632,46.7363 205.8047,103.8945 48.5487,51.9252 80.0085,120.2284 88.918,190.9532 -6.7174,-11.7816 -14.2754,-23.0967 -22.8457,-33.6739 -29.5541,-36.4745 -69.1609,-64.1917 -113.5527,-79.4629 -44.3918,-15.271 -92.6693,-17.7863 -138.4082,-7.2129 -52.4541,12.1258 -100.2876,41.2548 -135.0079,82.5 -34.7285,41.2552 -55.3351,93.4809 -57.9101,147.4219 -2.5756,53.9544 12.9912,108.0438 44.0859,152.3047 a 30.003,30.003 0 0 0 0,0 c 31.1025,44.2719 76.816,77.3493 128.7324,92.8496 47.3995,14.1517 98.1323,13.2283 144.9082,-0.7793 46.7015,-13.9851 88.6523,-40.6217 122,-75.291 11.7012,-12.165 22.1693,-25.242 31.5606,-38.9746 a 30.003,30.003 0 0 0 6.1406,-8.8984 c 0.243,-0.5217 0.4325,-1.0648 0.6719,-1.5879 39.2545,-62.6441 55.997,-138.164 51.5996,-211.2871 -5.5609,-92.4686 -43.7128,-182.08 -107.0664,-249.8399 -63.3711,-67.7784 -150.519,-112.0093 -242.8379,-122.5312 -103.0551,-11.7456 -209.2434,19.2259 -289.8243,84.5332 -46.6298,37.7915 -83.7036,86.3913 -108.6464,140.6113 -8.187,-25.5451 -18.8037,-50.4712 -32.4707,-74.0781 -25.8326,-44.6203 -61.877,-83.6413 -105.959,-111.6836 -44.0985,-28.0527 -95.3732,-44.5239 -147.875,-46.6172 -50.8424,-2.0271 -101.8416,9.5016 -146.8594,33.2637 -45.0288,23.7678 -82.998,59.2427 -110.646,101.4179 -17.562,26.7894 -30.666,55.8214 -40.096,85.7735 -24.059,-52.0714 -59.424,-98.8955 -103.834,-135.7403 -70.529,-58.5132 -161.538,-90.1351 -252.867,-88.9043 z m -103.725,292.0821 c 13.202,-0.2258 26.412,0.8599 39.326,3.2851 42.429,7.9681 82.576,30.8407 110.947,63.3028 28.364,32.4537 45.625,75.3018 47.565,118.3007 1.94,42.9889 -11.415,87.2012 -36.883,121.8164 a 30.003,30.003 0 0 0 0,0 c -25.46,34.6061 -63.704,60.4842 -105.266,71.1348 -36.7,9.4048 -76.861,7.4138 -113.39,-4.8028 -36.601,-12.2405 -70.221,-34.7673 -96.699,-63.7168 -7.69,-8.4071 -14.692,-17.4233 -21.157,-26.8437 a 30.003,30.003 0 0 0 -2.445,-10.9746 c -13.467,-32.3475 -18.062,-68.7261 -13.06,-103.4063 l 0,-0 c 5.002,-34.6807 19.689,-68.2785 41.748,-95.502 22.058,-27.2241 51.882,-48.5586 84.771,-60.6426 20.557,-7.5525 42.539,-11.5749 64.543,-11.9511 z m 1509.127,7.0937 c 22.3002,-0.3684 44.7105,3.0943 65.6875,10.3106 33.5633,11.546 64.1082,32.9207 86.4531,60.498 22.3449,27.5772 36.922,61.8914 41.2578,97.1191 4.1282,33.5401 -1.0544,68.4796 -14.4883,99.5215 -8.3913,13.0122 -17.8723,25.2286 -28.5449,36.3242 -26.5187,27.5697 -59.9439,48.6178 -95.9707,59.4063 -35.9521,10.7662 -75.1823,11.3195 -110.5312,0.7656 -38.5822,-11.5192 -73.6127,-36.8385 -96.8028,-69.8476 -23.1979,-33.0204 -35.1778,-74.5687 -33.25,-114.9532 1.9285,-40.3975 17.7863,-80.6439 43.8809,-111.6425 26.1029,-31.0084 63.0538,-53.5374 102.6191,-62.6836 12.9682,-2.9979 26.3094,-4.5973 39.6895,-4.8184 z"
       id="path4370-9-3-9-2-1-6-6"
       inkscape:connector-curvature="0" />
    <path
       style="color:#000000;font-style:normal;font-variant:normal;font-weight:normal;font-stretch:normal;font-size:medium;line-height:normal;font-family:sans-serif;text-indent:0;text-align:start;text-decoration:none;text-decoration-line:none;text-decoration-style:solid;text-decoration-color:#000000;letter-spacing:normal;word-spacing:normal;text-transform:none;direction:ltr;block-progression:tb;writing-mode:lr-tb;baseline-shift:baseline;text-anchor:start;white-space:normal;clip-rule:nonzero;display:inline;overflow:visible;visibility:visible;opacity:1;isolation:auto;mix-blend-mode:normal;color-interpolation:sRGB;color-interpolation-filters:linearRGB;solid-color:#000000;solid-opacity:1;fill:#000000;fill-opacity:1;fill-rule:evenodd;stroke:none;stroke-width:200;stroke-linecap:round;stroke-linejoin:round;stroke-miterlimit:4;stroke-dasharray:none;stroke-dashoffset:0;stroke-opacity:1;color-rendering:auto;image-rendering:auto;shape-rendering:auto;text-rendering:auto;enable-background:accumulate"
       d="m 3985.3535,-624.82227 c -21.5795,0.21997 -43.215,1.68561 -64.7969,4.4336 -140.3703,17.87319 -269.5292,88.3249 -361.9296,193.99414 -92.248,105.49498 -143.9657,241.16474 -148.0958,380.099608 -2.8187,94.823503 17.1018,192.444872 63.6231,278.195312 3.0897,8.19843 6.4359,16.31645 10.0879,24.32031 a 100.01,100.01 0 0 0 31.4609,39.64649 c 10.0912,13.07971 20.8748,25.76712 32.5235,37.90625 49.8686,51.96842 112.4309,92.4263 183.5058,114.32812 71.3416,21.98402 148.7439,24.34064 222.6875,2.96485 81.6959,-23.61682 152.6302,-74.41657 201.5254,-143.60938 48.8622,-69.14597 72.8703,-152.57884 68.7481,-236.830077 -4.1194,-84.195518 -36.0666,-164.458399 -90.3477,-228.537113 -54.2461,-64.03752 -127.8347,-108.4635 -209.3496,-127.05273 -70.769,-16.13865 -144.6564,-12.16863 -213.2891,11.45898 -9.2936,3.19945 -18.4098,6.80539 -27.3945,10.67969 7.7692,-11.096 16.0247,-21.799 24.873,-31.91797 59.978,-68.5909 147.3712,-115.88247 236.6329,-127.24804 108.5616,-13.82302 227.9183,26.92013 305.3671,104.24023 63.8925,63.78631 102.8441,156.13227 106.8965,247.470703 -0.5149,15.472476 -0.8845,30.702011 -1.0136,45.652344 -0.3554,4.028024 -0.6301,8.068727 -1.1329,12.070312 a 100.01,100.01 0 0 0 -0.7812,12.70703162 l 0.9141,380.22655938 a 100.01,100.01 0 0 0 200,-0.0273 l 0,-0.45313 0.7851,-369.144527 c 0.019,-8.9389265 0.1299,-17.560251 0.2031,-26.294922 1.4062,-18.829744 1.7402,-37.644631 1.2481,-56.408203 1.2261,-29.683138 3.4704,-58.017298 7.832,-84.636718 8.2336,-50.2503 24.1028,-97.27069 47.8653,-136.28516 23.6652,-38.85491 56.6519,-71.88087 94.0058,-93.55273 37.2939,-21.63707 81.3273,-33.22537 123.5586,-32.41992 42.2885,0.80653 86.0107,14.0777 122.8535,37.15234 36.9261,23.12682 69.1928,57.35621 92.2949,97.21094 23.1947,40.0142 38.5041,87.68632 46.4473,138.51367 4.1552,26.58878 6.3192,54.753122 7.5059,84.193359 -0.5518,19.245632 -0.213,38.550155 1.2324,57.8671879 0.07,8.7112254 0.174,17.3119071 0.1934,26.2167971 l 0.7851,361.597656 a 100.01,100.01 0 0 0 199.9981,0.0273 l 0.914,-372.226559 a 100.01,100.01 0 0 0 -0.7793,-12.7109372 c -0.4995,-3.9759614 -0.7729,-7.9920613 -1.1269,-11.9941408 -0.1272,-15.284456 -0.4826,-30.841789 -0.9961,-46.650391 4.2731,-91.037862 43.1934,-182.976902 106.8711,-246.548832 77.4488,-77.32009 196.8055,-118.06325 305.3672,-104.24023 89.2616,11.36557 176.6569,58.6572 236.6347,127.24805 8.8488,10.11946 17.1036,20.82333 24.8731,31.91992 -8.9855,-3.87469 -18.1001,-7.48192 -27.3946,-10.68164 -68.6326,-23.62761 -142.52,-27.59763 -213.289,-11.45899 -81.515,18.58924 -155.1035,63.01531 -209.3496,127.05274 -54.281,64.078681 -86.2303,144.3396357 -90.3496,228.535154 -4.1223,84.251246 19.8858,167.684116 68.748,236.830076 48.8953,69.19281 119.8314,119.99256 201.5273,143.60938 73.9437,21.3758 151.344,19.01922 222.6856,-2.96485 71.0749,-21.90182 133.6372,-62.35758 183.5059,-114.32617 11.7127,-12.20595 22.5571,-24.96455 32.6953,-38.12109 a 100.01,100.01 0 0 0 31.291,-39.43164 c 3.6508,-8.00144 6.995,-16.11662 10.084,-24.3125 46.5243,-85.75233 66.4439,-183.378608 63.625,-278.205081 -4.1301,-138.934869 -55.8477,-274.602669 -148.0957,-380.097659 -92.4004,-105.66929 -221.5593,-176.12095 -361.9297,-193.99414 -172.6546,-21.98389 -348.7585,38.13115 -471.9317,161.09961 -18.1069,18.07683 -34.6828,37.41932 -50.0156,57.60938 -38.1702,-64.01063 -90.6753,-120.23918 -155.8633,-161.06641 -67.1023,-42.02614 -144.8593,-66.08301 -225.1972,-67.61523 -80.2903,-1.53132 -159.038,19.53115 -227.7403,59.39062 -67.9137,39.40197 -123.1308,95.53331 -163.1133,160.45117 -15.8834,-21.17853 -33.124,-41.43866 -52.0371,-60.32031 -107.7765,-107.59741 -256.08,-167.0749 -407.1367,-165.53516 z m -143.8437,530.265629 c 13.2165,0.181356 26.3635,1.702186 39.0175,4.587891 38.5945,8.801346 75.8299,31.369621 101.211,61.332031 25.3463,29.921218 41.2925,70.186868 43.1933,109.03711 1.8982,38.794509 -10.0874,80.172549 -32.3203,111.634769 -22.1997,31.41537 -57.0831,56.30321 -93.7343,66.89843 -33.543,9.69667 -72.6635,9.00256 -108.2481,-1.96289 -35.8513,-11.04761 -70.4955,-32.91145 -98.0957,-61.67382 -13.431,-13.99662 -25.3123,-29.92366 -35.6113,-47.24805 -7.2755,-25.0847 -9.5437,-52.020232 -6.2657,-77.54883 4.4081,-34.328438 19.1264,-68.6052488 40.9825,-95.441406 21.8562,-26.836261 52.4446,-48.189011 85.1699,-59.455078 20.4533,-7.041305 42.6736,-10.462417 64.7012,-10.160157 z m 1975.9257,11.550782 c 22.0276,-0.30226 44.2479,3.120804 64.7012,10.162109 32.7253,11.266067 63.3137,32.618817 85.1699,59.455078 21.8562,26.836157 36.5744,61.11297 40.9825,95.441406 3.278,25.527826 1.0132,52.460866 -6.2618,77.544926 -10.2996,17.3262 -22.1829,33.25407 -35.6152,47.25195 -27.6,28.76223 -62.2444,50.62424 -98.0957,61.67187 -35.5844,10.96541 -74.7051,11.65955 -108.248,1.9629 -36.6513,-10.59523 -71.5347,-35.48112 -93.7344,-66.89649 -22.2329,-31.46222 -34.2185,-72.84024 -32.3203,-111.634765 1.9008,-38.850243 17.8471,-79.117819 43.1933,-109.039063 25.3813,-29.962508 62.6165,-52.528732 101.211,-61.330078 12.654,-2.885705 25.801,-4.408488 39.0175,-4.589843 z"
       id="path4370-9-3-9-2-6"
       inkscape:connector-curvature="0" />
  </g>
</svg>
