<?xml version="1.0" encoding="UTF-8" standalone="no"?>
<!-- Created with Inkscape (http://www.inkscape.org/) -->

<svg
   xmlns:dc="http://purl.org/dc/elements/1.1/"
   xmlns:cc="http://creativecommons.org/ns#"
   xmlns:rdf="http://www.w3.org/1999/02/22-rdf-syntax-ns#"
   xmlns:svg="http://www.w3.org/2000/svg"
   xmlns="http://www.w3.org/2000/svg"
   xmlns:sodipodi="http://sodipodi.sourceforge.net/DTD/sodipodi-0.dtd"
   xmlns:inkscape="http://www.inkscape.org/namespaces/inkscape"
   version="1.1"
   width="2000"
   height="2000"
   id="svg2992"
   inkscape:version="0.91pre3 r13670"
   sodipodi:docname="ണു.svg">
  <sodipodi:namedview
     pagecolor="#ffffff"
     bordercolor="#666666"
     borderopacity="1"
     objecttolerance="10"
     gridtolerance="10"
     guidetolerance="10"
     inkscape:pageopacity="0"
     inkscape:pageshadow="2"
     inkscape:window-width="1600"
     inkscape:window-height="853"
     id="namedview7"
     showgrid="true"
     inkscape:zoom="0.1668772"
     inkscape:cx="543.77448"
     inkscape:cy="1355.4743"
     inkscape:window-x="1598"
     inkscape:window-y="-3"
     inkscape:window-maximized="1"
     inkscape:current-layer="layer1"
     showguides="true"
     inkscape:guide-bbox="true">
    <inkscape:grid
       type="xygrid"
       id="grid2984" />
    <sodipodi:guide
       orientation="0,1"
       position="-2000,1600"
       id="guide2984" />
    <sodipodi:guide
       orientation="0,1"
       position="-2640,600"
       id="guide2986"
       inkscape:label=""
       inkscape:color="rgb(0,0,255)" />
  </sodipodi:namedview>
  <defs
     id="defs5498">
    <inkscape:path-effect
       effect="spiro"
       id="path-effect4143"
       is_visible="true" />
    <inkscape:path-effect
       effect="spiro"
       id="path-effect4372-5-9-5"
       is_visible="true" />
    <inkscape:path-effect
       effect="spiro"
       id="path-effect4372-5-9-5-9"
       is_visible="true" />
    <inkscape:path-effect
       effect="spiro"
       id="path-effect4143-4"
       is_visible="true" />
    <inkscape:path-effect
       effect="spiro"
       id="path-effect4372-5-9-5-9-8"
       is_visible="true" />
    <inkscape:path-effect
       effect="spiro"
       id="path-effect4372-5-9-5-9-0"
       is_visible="true" />
    <inkscape:path-effect
       effect="spiro"
       id="path-effect4372-5-9-5-9-4"
       is_visible="true" />
    <inkscape:path-effect
       effect="spiro"
       id="path-effect4372-5-9-5-9-2"
       is_visible="true" />
    <inkscape:path-effect
       effect="spiro"
       id="path-effect4372-5-9-5-9-29"
       is_visible="true" />
    <inkscape:path-effect
       effect="spiro"
       id="path-effect4372-5-9-5-9-87"
       is_visible="true" />
    <inkscape:path-effect
       effect="spiro"
       id="path-effect4372-5-9-5-9-7"
       is_visible="true" />
  </defs>
  <metadata
     id="metadata5594">
    <rdf:RDF>
      <cc:Work
         rdf:about="">
        <dc:format>image/svg+xml</dc:format>
        <dc:type
           rdf:resource="http://purl.org/dc/dcmitype/StillImage" />
        <dc:title></dc:title>
      </cc:Work>
    </rdf:RDF>
  </metadata>
  <g
     transform="translate(0,1000)"
     id="layer1">
    <path
       style="fill:none;fill-rule:evenodd;stroke:#000000;stroke-width:140;stroke-linecap:round;stroke-linejoin:round;stroke-miterlimit:4;stroke-dasharray:none;stroke-opacity:1"
       d="m -3168.4965,172.70309 c -22.6892,-48.74207 -31.3598,-103.914285 -24.7152,-157.266312 6.6447,-53.352027 28.5832,-104.712085 62.5348,-146.399898 33.9517,-41.68782 79.8073,-73.56917 130.7096,-90.87658 50.9023,-17.30741 106.6874,-19.98516 159.0134,-7.63282 59.6224,14.07475 114.4793,47.76337 153.8228,94.72096 39.3435,46.957581 62.9208,106.942669 65.8519,168.133629 2.9312,61.19096 -14.8408,123.225421 -49.9166,173.451061 -35.0758,50.22564 -87.2695,88.30562 -145.8714,106.15884 -53.922,16.42745 -112.6579,15.75477 -166.7255,-0.18693 -54.0675,-15.9417 -103.3868,-46.89951 -142.5736,-87.41906 -78.3736,-81.03909 -113.7303,-198.189245 -106.8619,-310.717364 6.7939,-111.307296 53.356,-219.873506 129.7523,-301.108206 76.3963,-81.23471 182.1181,-134.42413 292.9485,-146.75718 134.9516,-15.01723 275.561,31.90058 374.4548,124.94616 98.8938,93.04557 154.2851,230.53767 147.5118,366.153242 l 0.9133,380.226388 0.7848,-369.59761 c 0.1229,-57.896422 0.7856,-116.105 10.9374,-173.10458 10.1518,-56.99958 29.8557,-112.63786 61.1463,-161.35039 31.2905,-48.71253 73.969,-90.11631 123.8696,-119.47523 49.9005,-29.35892 106.6979,-46.64868 164.4143,-51.21214 64.4674,-5.09724 130.2802,5.72758 189.2168,32.34517 58.9367,26.61758 110.5457,69.00971 148.7008,121.22282 38.1551,52.21311 62.5882,113.71717 75.351,177.1138 12.7628,63.39663 13.976,128.474526 14.5282,193.140726 l 2.9975,351.024734 -1.9403,-354.687629 c -0.3371,-61.627581 0.01,-123.671101 11.5797,-184.203281 11.5726,-60.53219 34.4629,-119.29362 70.335,-169.40616 35.8721,-50.11254 84.3945,-91.0738 139.8042,-118.05224 55.4097,-26.97845 117.2702,-40.0322 178.8984,-39.84728 121.1523,0.36353 240.37114,52.53085 326.57375,137.66088 86.20261,85.13003 139.43829,201.68237 152.60336,322.117803 6.62389,60.596071 3.39166,122.679913 -13.83761,181.151377 -17.22928,58.47146 -48.84549,113.23463 -93.9406,154.24915 -45.09512,41.01452 -103.98282,67.64398 -164.88843,70.14727 -60.90561,2.50329 -123.25177,-20.1679 -165.42887,-64.17754 -42.5195,-44.36685 -62.4207,-107.70416 -59.947,-169.10615 2.4738,-61.401979 25.9496,-120.767756 60.2542,-171.753246 80.34161,-119.408504 223.41451,-193.883374 367.31016,-191.198854"
       id="path4370-9-3-9-2"
       inkscape:path-effect="#path-effect4372-5-9-5-9"
       inkscape:original-d="m -3168.4965,172.70309 c 0,0 163.4116,-456.51869 327.5426,-402.17561 171.8236,56.89006 188.7332,467.72858 23.8867,542.46449 -174.8878,79.28832 -411.2846,-206.36344 -416.161,-398.323354 -5.213,-205.213916 217.5111,-441.773806 422.7008,-447.865386 238.7875,-7.08902 521.9666,491.099402 521.9666,491.099402 l 0.9133,380.226388 0.7848,-369.59761 C -2280,-440 -2133.2222,-529.87241 -1926.4951,-536.61093 c 225.3182,-7.34452 427.0819,440.101379 427.7968,523.822516 l 2.9975,351.024734 -1.9403,-354.687629 C -1480,-416 -1313.0542,-512.6356 -1097.0238,-527.96027 c 220.80633,-15.66347 490.5505,238.70982 479.17711,459.778683 -9.51191,184.886467 -271.7898,422.708397 -438.09551,341.370257 -102.0663,-49.91939 -58.6806,-243.75169 0.3072,-340.859396 71.66147,-117.971494 367.31016,-191.198854 367.31016,-191.198854"
       inkscape:connector-curvature="0"
       sodipodi:nodetypes="caaaacccasccaaaac" />
    <path
       style="color:#000000;font-style:normal;font-variant:normal;font-weight:normal;font-stretch:normal;font-size:medium;line-height:normal;font-family:sans-serif;text-indent:0;text-align:start;text-decoration:none;text-decoration-line:none;text-decoration-style:solid;text-decoration-color:#000000;letter-spacing:normal;word-spacing:normal;text-transform:none;direction:ltr;block-progression:tb;writing-mode:lr-tb;baseline-shift:baseline;text-anchor:start;white-space:normal;clip-rule:nonzero;display:inline;overflow:visible;visibility:visible;opacity:1;isolation:auto;mix-blend-mode:normal;color-interpolation:sRGB;color-interpolation-filters:linearRGB;solid-color:#000000;solid-opacity:1;fill:#000000;fill-opacity:1;fill-rule:evenodd;stroke:none;stroke-width:140;stroke-linecap:round;stroke-linejoin:round;stroke-miterlimit:4;stroke-dasharray:none;stroke-dashoffset:0;stroke-opacity:1;color-rendering:auto;image-rendering:auto;shape-rendering:auto;text-rendering:auto;enable-background:accumulate"
       d="m 1570.377,-583.80273 c -9.5213,0.16816 -19.038,0.62814 -28.5332,1.3789 -67.9688,5.37408 -134.8358,25.6219 -194.3926,60.66211 -59.6569,35.09903 -110.0843,84.08722 -147.2696,141.97656 -10.4636,16.2895 -19.6444,33.13739 -27.8632,50.32227 -24.1699,-38.57958 -53.0883,-74.30054 -86.5684,-105.80078 -114.45818,-107.6895 -273.97117,-160.91391 -430.16211,-143.53321 -127.95383,14.23853 -248.17204,74.76682 -336.20117,168.3711 -87.9952,93.56818 -140.81869,216.84133 -148.62891,344.798827 -6.22658,102.012214 17.10558,207.522443 72.99024,295.468753 a 70.007,70.007 0 0 0 6.7832,10.59375 c 13.73465,20.29895 29.24561,39.59736 46.64063,57.58398 47.20436,48.80979 106.52454,86.27008 173.0957,105.89844 66.74588,19.67989 138.93434,20.71842 206.92187,0.006 74.06228,-22.56325 138.63127,-69.70718 182.86133,-133.04102 44.21242,-63.30856 66.13163,-139.92435 62.44531,-216.880857 -3.68489,-76.9264 -32.76626,-150.840827 -82.11523,-209.740233 -49.33007,-58.87684 -116.8099,-100.2853 -191.39648,-117.89258 -65.35467,-15.42795 -134.05244,-12.13046 -197.62891,9.48633 -36.38091,12.36996 -70.30934,30.68797 -100.73242,53.70703 18.21264,-38.18122 42.06931,-73.57905 70.75,-104.07617 64.76346,-68.86513 155.99037,-114.71501 249.69726,-125.14258 113.71234,-12.65375 235.41662,27.95578 318.7461,106.35742 83.32949,78.40165 131.27369,197.4079 125.56639,311.679689 a 70.007,70.007 0 0 0 -0.088,3.660157 l 0.9141,379.908204 0,0.31836 a 70.007,70.007 0 0 0 140,-0.0195 l 0,-0.31836 0.7851,-369.2792994 c 0.122,-57.4618596 1.0501,-111.5625206 9.8516,-160.9804706 8.789,-49.34755 25.7138,-96.22828 51.127,-135.79101 25.3957,-39.53572 60.3264,-73.3558 100.4707,-96.97461 a 70.007,70.007 0 0 0 0,-0.002 c 40.2441,-23.67763 86.9714,-38.00888 134.4355,-41.76172 52.9727,-4.18838 107.2773,4.85747 154.8867,26.35938 47.4983,21.45165 89.9331,56.21854 120.9961,98.72656 31.104,42.56411 52.1639,94.59011 63.2442,149.62891 11.103,55.152 12.6061,115.732052 13.1543,179.923827 l 2.996,350.771483 0,0.0391 0,0.21485 a 70.007,70.007 0 0 0 139.9961,-0.98242 l -0,-0.21485 -1.9375,-354.4726544 c -0.3342,-61.1077806 0.3736,-118.5551856 10.336,-170.6777356 l -0,0.002 c 9.9447,-52.01702 29.4995,-101.29152 58.5,-141.80468 28.9905,-40.49908 68.7294,-74.04965 113.5274,-95.86133 44.9636,-21.89235 96.4437,-32.93804 148.0468,-32.7832 101.1961,0.30364 204.1793,44.96381 277.5958,117.46679 7.3141,7.22312 14.2889,14.81028 21.0683,22.58399 -126.8472,26.87566 -241.8951,102.29447 -315.1445,211.162106 -40.0966,59.593812 -69.0013,130.624407 -72.1192,208.011724 -3.1595,78.42512 21.3547,159.84074 79.3516,220.35742 57.7113,60.21882 138.6507,88.98149 218.8418,85.68554 79.408,-3.26377 152.7352,-37.02815 209.1133,-88.30468 55.9919,-50.92529 93.546,-116.87267 113.9883,-186.24805 20.3555,-69.080898 23.7297,-140.367461 16.2773,-208.542969 -14.85,-135.849441 -74.3249,-266.867281 -173.0039,-364.318361 -98.9887,-97.75707 -234.4403,-157.4301 -375.5488,-157.85351 -71.6533,-0.21501 -143.8962,14.8456 -209.752,46.91015 -66.0214,32.1452 -123.3263,80.51814 -166.0801,140.24414 -9.357,13.0716 -17.7851,26.61337 -25.5957,40.42188 -10.0149,-18.56037 -21.1657,-36.64455 -33.8183,-53.95899 -45.2472,-61.91821 -106.0312,-111.93523 -176.4063,-143.71875 -61.4807,-27.76661 -128.3647,-40.88808 -195.0136,-39.71093 z m 1183.9414,419.87109 c 16.3725,40.69352 27.3407,83.738463 32.1054,127.326171 5.7954,53.016632 2.7047,105.897732 -11.3984,153.759769 -14.0163,47.56754 -39.6943,91.14624 -73.8926,122.25 -33.8121,30.75251 -78.2609,50.2474 -120.664,51.99023 -41.6202,1.71064 -85.3728,-14.86946 -112.0157,-42.66992 -27.0421,-28.21702 -42.3308,-73.47663 -40.5429,-117.85547 1.8302,-45.416075 19.8764,-93.117574 48.3886,-135.49414 60.8216,-90.396667 168.8931,-151.40169 278.0196,-159.30664 z m -2182.78324,20.88086 c 15.30839,0.31171 30.54865,2.19701 45.28515,5.67578 44.65814,10.54222 86.89112,36.51049 116.24805,71.548828 29.33801,35.015755 47.4105,81.071825 49.58789,126.527344 2.17594,45.425418 -11.44758,92.878768 -37.38672,130.021488 C 719.34806,227.84009 679.53028,256.85681 636.38867,270 596.5323,282.14234 551.24862,281.83635 509.85938,269.63281 468.29543,257.37777 428.97781,232.92265 397.80859,200.69336 386.28973,188.78273 375.85915,175.69268 366.52344,161.6875 351.27674,126.34507 345.36011,86.176336 350.10742,48.058594 c 4.9902,-40.0678877 21.85158,-79.539708 47.34961,-110.847656 25.49805,-31.307963 60.73673,-55.808608 98.96485,-68.806638 23.89256,-8.12377 49.59928,-11.97461 75.11328,-11.45508 z"
       id="path4370-9-3-9-2-0"
       inkscape:connector-curvature="0" />
  </g>
</svg>
