<?xml version="1.0" encoding="UTF-8" standalone="no"?>
<!-- Created with Inkscape (http://www.inkscape.org/) -->

<svg
   xmlns:dc="http://purl.org/dc/elements/1.1/"
   xmlns:cc="http://creativecommons.org/ns#"
   xmlns:rdf="http://www.w3.org/1999/02/22-rdf-syntax-ns#"
   xmlns:svg="http://www.w3.org/2000/svg"
   xmlns="http://www.w3.org/2000/svg"
   xmlns:sodipodi="http://sodipodi.sourceforge.net/DTD/sodipodi-0.dtd"
   xmlns:inkscape="http://www.inkscape.org/namespaces/inkscape"
   version="1.1"
   width="2000"
   height="2000"
   id="svg2992"
   inkscape:version="0.91pre3 r13670"
   sodipodi:docname="ണൂ.svg">
  <sodipodi:namedview
     pagecolor="#ffffff"
     bordercolor="#666666"
     borderopacity="1"
     objecttolerance="10"
     gridtolerance="10"
     guidetolerance="10"
     inkscape:pageopacity="0"
     inkscape:pageshadow="2"
     inkscape:window-width="1600"
     inkscape:window-height="851"
     id="namedview7"
     showgrid="true"
     inkscape:zoom="0.3337544"
     inkscape:cx="-1902.8996"
     inkscape:cy="450.66696"
     inkscape:window-x="1599"
     inkscape:window-y="-1"
     inkscape:window-maximized="1"
     inkscape:current-layer="layer1-5"
     showguides="true"
     inkscape:guide-bbox="true">
    <inkscape:grid
       type="xygrid"
       id="grid2984" />
    <sodipodi:guide
       orientation="0,1"
       position="-2000,1600"
       id="guide2984" />
    <sodipodi:guide
       orientation="0,1"
       position="-2640,600"
       id="guide2986"
       inkscape:label=""
       inkscape:color="rgb(0,0,255)" />
  </sodipodi:namedview>
  <defs
     id="defs5498">
    <inkscape:path-effect
       is_visible="true"
       id="path-effect4143"
       effect="spiro" />
    <inkscape:path-effect
       is_visible="true"
       id="path-effect4372-5-9-5"
       effect="spiro" />
    <inkscape:path-effect
       is_visible="true"
       id="path-effect4372-5-9-5-9"
       effect="spiro" />
    <inkscape:path-effect
       is_visible="true"
       id="path-effect4143-4"
       effect="spiro" />
    <inkscape:path-effect
       is_visible="true"
       id="path-effect4372-5-9-5-9-8"
       effect="spiro" />
    <inkscape:path-effect
       is_visible="true"
       id="path-effect4372-5-9-5-9-81"
       effect="spiro" />
    <inkscape:path-effect
       is_visible="true"
       id="path-effect4372-5-9-5-9-9"
       effect="spiro" />
    <inkscape:path-effect
       effect="spiro"
       id="path-effect4372-5-9-5-9-5"
       is_visible="true" />
    <inkscape:path-effect
       effect="spiro"
       id="path-effect4372-5-9-5-9-5-0"
       is_visible="true" />
    <inkscape:path-effect
       effect="spiro"
       id="path-effect4372-5-9-5-9-5-6"
       is_visible="true" />
    <inkscape:path-effect
       effect="spiro"
       id="path-effect4372-5-9-5-9-5-6-6"
       is_visible="true" />
  </defs>
  <metadata
     id="metadata5594">
    <rdf:RDF>
      <cc:Work
         rdf:about="">
        <dc:format>image/svg+xml</dc:format>
        <dc:type
           rdf:resource="http://purl.org/dc/dcmitype/StillImage" />
        <dc:title />
      </cc:Work>
    </rdf:RDF>
  </metadata>
  <g
     transform="translate(0,1000)"
     id="layer1">
    <g
       id="layer1-5"
       transform="translate(106.2572,-6.4316186)">
      <path
         style="fill:none;fill-rule:evenodd;stroke:#000000;stroke-width:140;stroke-linecap:round;stroke-linejoin:round;stroke-miterlimit:4;stroke-dasharray:none;stroke-opacity:1"
         d="M 114.74236,183.71457 C 92.053138,134.9725 83.38256,79.800285 90.027207,26.448259 96.671854,-26.903767 118.61033,-78.263825 152.56201,-119.95164 c 33.95167,-41.68781 79.80722,-73.56916 130.70952,-90.87657 50.90229,-17.30742 106.68743,-19.98517 159.01343,-7.63283 59.62237,14.07475 114.47933,47.76337 153.82282,94.72096 39.3435,46.957583 62.92079,106.942672 65.85193,168.133634 2.93113,61.190966 -14.84087,123.225426 -49.91664,173.451066 -35.07578,50.22565 -87.26947,88.30562 -145.87141,106.15884 -53.92195,16.42745 -112.65794,15.75477 -166.72549,-0.18693 C 245.37862,307.87482 196.05934,276.91702 156.87255,236.39747 78.498966,155.35838 43.142215,38.208224 50.01066,-74.319894 56.804589,-185.62719 103.36667,-294.1934 179.76297,-375.42811 c 76.39631,-81.23471 182.11813,-134.42413 292.94849,-146.75718 134.95164,-15.01723 275.561,31.90059 374.45479,124.94617 98.89379,93.04557 154.28505,230.53767 147.5118,366.153246 l 0.9133,380.226384 0.7848,-369.597614 c 0.12569,-59.194446 0.78502,-118.721756 11.34585,-176.966656 10.5607,-58.24489 31.1216,-115.0753 63.9705,-164.31906 32.8489,-49.24376 77.8226,-90.47518 130.2276,-118.00184 52.405,-27.52666 111.8936,-41.26972 171.0762,-40.07889 59.1871,1.19092 118.0471,17.29984 169.4494,46.66532 51.4022,29.36548 95.0401,71.8857 126.7684,121.86412 31.7282,49.97842 51.4203,107.02834 61.5346,165.35696 10.1144,58.32861 10.7392,117.832943 10.8677,177.031846 l 0.7848,361.597604 0.9133,-372.226404 c -9.2619,-136.223376 45.3788,-275.451196 144.8212,-369.012936 99.4424,-93.56175 241.7386,-139.62471 377.1454,-122.08645 109.8056,14.22232 213.4866,69.0375 288.8849,150.12159 75.3983,81.0841 122.3594,187.6153 133.8159,297.743796 5.8328,56.0689591 2.6695,113.341073 -12.3167,167.684104 -14.9861,54.34304 -42.0164,105.69489 -80.6172,146.77688 -38.6008,41.08199 -88.9645,71.57266 -143.991,83.81337 -55.0264,12.24072 -114.5485,5.6653 -164.255,-20.92446 -44.4761,-23.79182 -80.1528,-63.02333 -101.4434,-108.74945 -21.2907,-45.72611 -28.381,-97.65023 -22.1238,-147.700382 6.2572,-50.0501532 25.6319,-98.163317 54.146,-139.770004 28.5141,-41.606684 66.0221,-76.771634 108.289,-104.297654 65.1526,-42.43016 141.8689,-66.75008 219.54,-70.26872 77.6711,-3.51863 156.1042,13.69934 225.463,48.83524 69.3588,35.13591 129.5272,88.05409 173.783,151.980552 44.2559,63.9264605 72.5707,138.707528 82.417,215.832258 12.6718,99.25591 -5.5603,202.23676 -51.539,291.10897 -45.9787,88.87221 -119.503,163.24726 -207.8403,210.24535 -88.3374,46.99809 -191.1017,66.41375 -290.4968,54.88471 -99.3951,-11.52904 -194.9866,-53.95239 -270.2204,-119.92344"
         id="path4370-9-3-9-2"
         inkscape:path-effect="#path-effect4372-5-9-5-9-5"
         inkscape:original-d="m 114.74236,183.71457 c 0,0 163.41161,-456.51869 327.5426,-402.17561 171.82355,56.89006 188.73316,467.72859 23.8867,542.4645 C 291.28385,403.29178 54.88701,117.64001 50.01066,-74.319894 44.79762,-279.53383 267.52174,-516.09371 472.71146,-522.18529 711.49902,-529.2743 994.67805,-31.085874 994.67805,-31.085874 l 0.9133,380.226384 0.7848,-369.597614 c 6.86265,-408.531416 168.14265,-501.574356 376.62015,-499.366446 209.993,2.22396 361.7574,102.38683 368.6201,510.918246 l 0.7848,361.597604 0.9133,-372.226404 c 0,0 283.1791,-498.188396 521.9666,-491.099386 205.1897,6.09158 428.8067,242.67609 422.7008,447.865386 -5.4607,183.505954 -235.6106,456.666084 -401.1799,377.349894 -150.918,-72.29746 -106.5834,-417.77014 38.8678,-500.51749 226.5942,-128.90978 697.2767,85.71233 701.203,346.37933 4.6635,309.61156 -820.0965,436.31559 -820.0965,436.31559"
         inkscape:connector-curvature="0"
         sodipodi:nodetypes="caaaacccacccaaaaac" />
      <path
         style="color:#000000;font-style:normal;font-variant:normal;font-weight:normal;font-stretch:normal;font-size:medium;line-height:normal;font-family:sans-serif;text-indent:0;text-align:start;text-decoration:none;text-decoration-line:none;text-decoration-style:solid;text-decoration-color:#000000;letter-spacing:normal;word-spacing:normal;text-transform:none;direction:ltr;block-progression:tb;writing-mode:lr-tb;baseline-shift:baseline;text-anchor:start;white-space:normal;clip-rule:nonzero;display:inline;overflow:visible;visibility:visible;opacity:1;isolation:auto;mix-blend-mode:normal;color-interpolation:sRGB;color-interpolation-filters:linearRGB;solid-color:#000000;solid-opacity:1;fill:#000000;fill-opacity:1;fill-rule:evenodd;stroke:none;stroke-width:140;stroke-linecap:round;stroke-linejoin:round;stroke-miterlimit:4;stroke-dasharray:none;stroke-dashoffset:0;stroke-opacity:1;color-rendering:auto;image-rendering:auto;shape-rendering:auto;text-rendering:auto;enable-background:accumulate"
         d="m -2747.0957,-608.27148 c -19.5332,-0.002 -39.109,1.06764 -58.6328,3.24023 -127.9539,14.23852 -248.1701,74.76681 -336.1992,168.37109 -87.9952,93.56819 -140.8188,216.84132 -148.6289,344.798832 -6.2268,102.015206 17.1059,207.528688 72.9941,295.476558 a 70.007,70.007 0 0 0 6.7676,10.57227 c 13.7369,20.30406 29.2533,39.60691 46.6523,57.59766 47.2044,48.80981 106.5227,86.26811 173.0938,105.89648 66.7458,19.67986 138.9343,20.72036 206.9218,0.008 74.0623,-22.56324 138.6332,-69.70717 182.8633,-133.04101 44.2125,-63.30857 66.1318,-139.9243 62.4453,-216.880862 -3.6848,-76.92644 -32.7662,-150.840828 -82.1152,-209.740238 -49.33,-58.87681 -116.8098,-100.2853 -191.3965,-117.89257 -65.3546,-15.42796 -134.0544,-12.13047 -197.6308,9.48632 -36.3798,12.36957 -70.3062,30.68707 -100.7286,53.70508 18.2126,-38.18033 42.068,-73.57771 70.7481,-104.07422 64.7635,-68.86513 155.9903,-114.715 249.6973,-125.14257 113.7122,-12.65375 235.4166,27.95578 318.7461,106.35742 83.3294,78.40164 131.2717,197.4079 125.5644,311.679684 a 70.007,70.007 0 0 0 -0.086,3.660157 l 0.914,379.908199 0,0.31836 a 70.007,70.007 0 0 0 139.9981,-0.0195 l 0,-0.31836 0.7851,-369.279294 c 0.1248,-58.774325 1.0644,-114.117036 10.2227,-164.626956 9.1414,-50.41646 26.7913,-98.18445 53.3262,-137.96289 26.4909,-39.7126 63.0217,-73.06508 104.5468,-94.87695 41.5894,-21.84556 89.708,-33.01643 137.1172,-32.0625 47.4268,0.95428 95.1415,14.04113 136.1328,37.45898 40.9478,23.39293 76.6031,57.97487 102.3946,98.60157 25.8337,40.69346 42.8482,88.96969 51.6621,139.79882 8.828,50.91031 9.7102,106.416417 9.8379,165.224613 l 0.7851,361.273437 0,0.32422 a 70.007,70.007 0 0 0 140,0.0195 l 0,-0.32422 0.9121,-371.902342 a 70.007,70.007 0 0 0 -0.1601,-4.919922 c -7.7791,-114.413426 39.4279,-234.701146 122.9492,-313.283206 83.5212,-78.58206 206.46,-118.37875 320.1875,-103.64843 88.6234,11.47875 174.43579,55.2182 238.02539,119.53125 -73.39727,10.27047 -144.35353,36.39224 -206.84571,77.08984 -49.24298,32.06919 -93.53108,73.33508 -127.83008,123.38281 -34.3808,50.167206 -58.0847,108.437777 -65.8633,170.658205 -7.804,62.422584 0.7835,127.213965 28.1231,185.931645 27.4543,58.96386 72.9161,109.38136 131.8847,140.92578 65.9685,35.28887 141.81505,43.24914 212.47269,27.53125 70.24038,-15.62506 132.23323,-53.58163 179.80469,-104.21094 47.36716,-50.41188 79.36952,-111.85791 97.08594,-176.10156 17.66581,-64.060159 21.06887,-129.996086 14.45898,-193.535159 -2.49461,-23.980051 -6.48136,-47.774551 -11.85742,-71.238281 55.83342,29.70757 104.96545,73.434048 141.15234,125.705078 37.66727,54.40939 62.10386,118.810655 70.53516,184.851562 10.83336,84.85588 -4.96729,174.10143 -44.27539,250.08008 -39.30811,75.97864 -103.02353,140.43171 -178.54492,180.61133 -75.52138,40.17961 -164.57979,57.0068 -249.55469,47.15039 -84.97489,-9.85641 -167.81389,-46.62152 -232.13278,-103.02149 a 70.007,70.007 0 1 0 -92.3028,105.26172 c 86.1488,75.54211 194.48937,123.6245 308.30472,136.82617 113.81536,13.20167 230.28809,-8.80257 331.44141,-62.61914 101.15333,-53.81656 184.48549,-138.11313 237.13476,-239.8789 52.64926,-101.76578 73.31294,-218.48274 58.80274,-332.13868 -11.2614,-88.208548 -43.45435,-173.368963 -94.29883,-246.8125 -50.86633,-73.47509 -119.62913,-134.01504 -199.70508,-174.58007 -40.10678,-20.31737 -82.70069,-35.42841 -126.54687,-44.94336 -20.11427,-33.31327 -43.60639,-64.68295 -70.33008,-93.42188 -86.47684,-92.99805 -204.19535,-155.43066 -331.15625,-171.875 -157.08612,-20.34624 -318.73992,31.98396 -434.10352,140.52539 -32.3367,30.42437 -60.3149,64.85174 -83.8477,101.97852 -8.2419,-17.49279 -17.4671,-34.65487 -28.0097,-51.26172 -37.6652,-59.33017 -89.2857,-109.78892 -151.1426,-145.12695 -61.8132,-35.31311 -131.8163,-54.44356 -202.7637,-55.8711 -70.956,-1.42771 -141.8164,14.88597 -205.0371,48.09375 -63.2846,33.24147 -116.7014,82.35399 -155.9082,141.12891 -12.3196,18.46832 -22.9188,37.70483 -32.2637,57.37695 -24.0707,-38.27483 -52.8119,-73.72748 -86.0625,-105.01172 -100.1508,-94.22833 -234.7986,-146.75705 -371.5312,-146.77343 z m 2049.29297,408.42968 c 3.85261,0.0823 7.70346,0.42366 11.55664,0.625 17.62502,41.50181 29.25286,85.68423 33.90625,130.416019 5.05567,48.598845 2.13262,97.206121 -10.17383,141.832031 -12.25585,44.44241 -34.31601,85.70102 -64.15039,117.45313 -29.63008,31.53467 -68.36513,54.55965 -108.17774,63.41601 -39.39534,8.76355 -82.59065,3.57229 -116.03515,-14.31836 -29.98348,-16.03922 -55.87685,-44.08389 -71.00395,-76.57226 -15.2415,-32.73455 -20.8334,-71.792984 -16.123,-109.470708 4.7356,-37.879877 19.7804,-75.834691 42.42773,-108.880859 22.72924,-33.165638 53.45733,-62.230043 88.74805,-85.212893 54.34586,-35.39237 119.32219,-56.04502 184.50781,-58.99804 8.1537,-0.36938 16.33313,-0.46397 24.51758,-0.28907 z m -2191.97657,30.55664 c 15.3084,0.31172 30.5467,2.19701 45.2832,5.67578 44.6582,10.54223 86.8931,36.51047 116.25,71.548833 29.338,35.01576 47.4105,81.07186 49.5879,126.527344 2.176,45.425357 -11.4476,92.878763 -37.3867,130.021483 -25.9215,37.11746 -65.7393,66.13415 -108.8809,79.27734 -39.8564,12.14236 -85.1399,11.83636 -126.5293,-0.36718 -41.5639,-12.25505 -80.8835,-36.71017 -112.0527,-68.93946 -11.5185,-11.91024 -21.9477,-24.99922 -31.2832,-39.0039 -15.2476,-35.3431 -21.1634,-75.514103 -16.416,-113.632814 4.9902,-40.067915 21.8496,-79.53772 47.3476,-110.845704 25.4981,-31.307942 60.7387,-55.808602 98.9668,-68.806642 23.8926,-8.12377 49.5993,-11.9746 75.1133,-11.45508 z"
         id="path4370-9-3-9-2-0"
         inkscape:connector-curvature="0" />
      <path
         style="fill:none;fill-rule:evenodd;stroke:#000000;stroke-width:120;stroke-linecap:round;stroke-linejoin:round;stroke-miterlimit:4;stroke-dasharray:none;stroke-opacity:1"
         d="M 1002.3581,958.18056 C 986.44277,923.9905 980.36079,885.29002 985.02166,847.8663 c 4.66087,-37.42371 20.04954,-73.45016 43.86494,-102.69203 23.8154,-29.24187 55.9807,-51.60501 91.686,-63.74528 35.7054,-12.14027 74.8358,-14.01858 111.5398,-5.35405 41.822,9.87271 80.3014,33.50355 107.8988,66.44189 27.5975,32.93834 44.1358,75.01481 46.1918,117.93714 2.056,42.92233 -10.4101,86.43633 -35.014,121.66705 -24.6038,35.23068 -61.215,61.94188 -102.3213,74.46498 -37.8235,11.523 -79.0238,11.0512 -116.9494,-0.1311 -37.9256,-11.1823 -72.5205,-32.8976 -100.0081,-61.32002 -54.97502,-56.84477 -79.77597,-139.0196 -74.95811,-217.95231 4.76559,-78.07638 37.42652,-154.23002 91.01461,-211.21201 53.5881,-56.98198 127.7466,-94.29164 205.4884,-102.94263 94.6617,-10.5338 193.2919,22.37665 262.6608,87.64335 69.369,65.26671 108.2231,161.71037 103.472,256.83774 l 0.6406,266.70938 0.5505,-259.25384 c 0.088,-41.52187 0.5507,-83.27722 7.9585,-124.13303 7.4079,-40.85581 21.8302,-80.71942 44.8721,-115.2614 23.0418,-34.54198 54.5885,-63.4637 91.3479,-82.77225 36.7594,-19.30855 78.4876,-28.94861 120.0012,-28.11331 41.5167,0.83536 82.804,12.13493 118.8601,32.73331 36.0561,20.59837 66.6658,50.42413 88.9215,85.48143 22.2558,35.05731 36.0688,75.07491 43.1635,115.98946 7.0947,40.91454 7.533,82.65378 7.6231,124.17879 l 0.5505,253.64224 0.6406,-261.0978 c -6.4968,-95.55372 31.8309,-193.21489 101.5847,-258.84366 69.7537,-65.62878 169.5672,-97.93959 264.5481,-85.63741 77.023,9.97622 149.7499,48.42626 202.638,105.3026 52.888,56.87634 85.8288,131.60253 93.865,208.85203 4.0914,39.32951 1.8725,79.50297 -8.6395,117.62183 -10.512,38.11886 -29.4724,74.13956 -56.5489,102.95651 -27.0765,28.8169 -62.404,50.2045 -101.0023,58.7908 -38.5983,8.5862 -80.3499,3.9739 -115.2165,-14.6775 -31.1977,-16.6887 -56.2231,-44.2076 -71.1574,-76.28218 -14.9343,-32.07453 -19.9077,-68.49664 -15.5187,-103.60426 4.3891,-35.10762 17.9795,-68.85654 37.9807,-98.0415 20.0012,-29.18496 46.3112,-53.85137 75.9592,-73.15946 45.7012,-29.76258 99.5138,-46.82176 153.9961,-49.2899 54.4822,-2.46814 109.499,9.60938 158.1507,34.25541 48.6516,24.64604 90.8567,61.76543 121.8999,106.60656 31.0432,44.84114 50.9046,97.29622 57.8113,151.39527 8.8886,69.62296 -3.9003,141.85876 -36.152,204.19806 -32.2517,62.3393 -83.8252,114.5096 -145.7893,147.4763 -61.9641,32.9668 -134.048,46.5859 -203.7686,38.4989 -69.7206,-8.0871 -136.7731,-37.8449 -189.5458,-84.1202"
         id="path4370-9-3-9-2-8"
         inkscape:path-effect="#path-effect4372-5-9-5-9-5-6"
         inkscape:original-d="m 1002.3581,958.18056 c 0,0 114.6249,-320.22451 229.7543,-282.10562 120.5254,39.90546 132.3866,328.08766 16.7553,380.51106 C 1126.1929,1112.2027 960.3726,911.83261 956.95209,777.18257 953.29541,633.2355 1109.5249,467.30086 1253.4551,463.02793 c 167.4972,-4.97258 366.1328,344.48109 366.1328,344.48109 l 0.6406,266.70938 0.5505,-259.25384 c 4.8138,-286.56387 117.9435,-351.82872 264.1797,-350.27999 147.2994,1.55999 253.7543,71.81912 258.5682,358.38299 l 0.5505,253.64224 0.6406,-261.0978 c 0,0 198.6356,-349.45365 366.1328,-344.48107 143.9301,4.27293 300.786,170.22485 296.503,314.15463 -3.8304,128.72 -165.2688,320.32784 -281.4072,264.69164 -105.8612,-50.713 -74.7628,-293.04438 27.2638,-351.0874 158.9442,-90.42361 489.1039,60.12281 491.858,242.96734 3.2712,217.17666 -575.2557,306.05306 -575.2557,306.05306"
         inkscape:connector-curvature="0"
         sodipodi:nodetypes="caaaacccacccaaaaac" />
      <path
         style="color:#000000;font-style:normal;font-variant:normal;font-weight:normal;font-stretch:normal;font-size:medium;line-height:normal;font-family:sans-serif;text-indent:0;text-align:start;text-decoration:none;text-decoration-line:none;text-decoration-style:solid;text-decoration-color:#000000;letter-spacing:normal;word-spacing:normal;text-transform:none;direction:ltr;block-progression:tb;writing-mode:lr-tb;baseline-shift:baseline;text-anchor:start;white-space:normal;clip-rule:nonzero;display:inline;overflow:visible;visibility:visible;opacity:1;isolation:auto;mix-blend-mode:normal;color-interpolation:sRGB;color-interpolation-filters:linearRGB;solid-color:#000000;solid-opacity:1;fill:#000000;fill-opacity:1;fill-rule:evenodd;stroke:none;stroke-width:120;stroke-linecap:round;stroke-linejoin:round;stroke-miterlimit:4;stroke-dasharray:none;stroke-dashoffset:0;stroke-opacity:1;color-rendering:auto;image-rendering:auto;shape-rendering:auto;text-rendering:auto;enable-background:accumulate"
         d="m -2510.8301,761.04883 c -14.1032,0.002 -28.2412,0.7777 -42.3496,2.34765 -92.4191,10.28426 -179.0034,53.88426 -242.5625,121.46875 -63.53,67.55355 -101.5566,156.31417 -107.1933,248.66207 -4.4928,73.6053 12.2337,149.7701 52.7148,213.5372 a 60.006,60.006 0 0 0 5.5469,8.58 c 9.8686,14.492 20.9817,28.3037 33.455,41.2012 34.3598,35.5283 77.5251,62.8179 126.168,77.1602 48.7928,14.3864 101.5247,15.1725 151.4043,-0.024 54.3581,-16.5603 101.577,-51.0416 134.0274,-97.5078 32.4353,-46.4447 48.4572,-102.4551 45.7539,-158.8906 -2.7022,-56.4097 -23.9591,-110.4273 -60.1328,-153.6016 -36.1574,-43.1548 -85.457,-73.40212 -140.1055,-86.30271 -47.8714,-11.30072 -98.0698,-8.89055 -144.6387,6.94336 -12.3482,4.19857 -24.2898,9.35998 -35.8008,15.30273 7.9216,-11.64211 16.6497,-22.67651 26.2168,-32.84961 43.6171,-46.37948 105.3535,-77.39829 168.418,-84.41601 76.4566,-8.50798 158.8821,18.99422 214.9102,71.70898 56.028,52.71476 88.4975,133.31376 84.6601,210.14646 a 60.006,60.006 0 0 0 -0.074,3.1367 l 0.6406,266.4395 0,0.2715 a 60.006,60.006 0 0 0 120,-0.018 l 0,-0.2715 0.5508,-258.9824 c 0.087,-41.1614 0.7904,-79.3305 6.9961,-113.5566 6.1911,-34.1457 18.1182,-66.24116 35.748,-92.66997 17.5922,-26.37242 41.9021,-48.53907 69.336,-62.94921 27.4888,-14.43902 59.4704,-21.87639 90.8926,-21.24414 31.4364,0.63253 63.1722,9.34333 90.3046,24.84374 27.0951,15.47905 50.8624,38.49957 68.0293,65.54102 17.2034,27.09876 28.7192,59.59756 34.6993,94.08396 5.9921,34.556 6.6528,72.8666 6.7421,114.0567 l 0.5508,253.3652 0,0.2773 a 60.006,60.006 0 0 0 120,0.018 l 0,-0.2773 0.6407,-260.8203 a 60.006,60.006 0 0 0 -0.1387,-4.2188 c -5.2258,-76.8594 26.7308,-158.2852 82.8379,-211.0742 56.1069,-52.78902 139.3279,-79.72739 215.7265,-69.83203 52.6657,6.82139 104.1286,30.72324 145.0117,66.11523 -45.2242,9.11115 -88.7158,26.48003 -127.6894,51.8613 -35.6275,23.2022 -67.7493,53.0993 -92.709,89.5196 -25.0299,36.5225 -42.3302,78.9783 -48.0234,124.5175 -5.7148,45.7124 0.5428,93.1628 20.6621,136.3731 20.2174,43.4213 53.6281,80.5275 97.248,103.8613 48.8054,26.1078 104.5506,31.9065 156.5469,20.3399 51.6387,-11.4872 96.9355,-39.2732 131.7012,-76.2735 34.59055,-36.8139 57.80984,-81.4866 70.66209,-128.0918 12.80885,-46.4478 15.23404,-94.0468 10.47656,-139.7793 -0.94455,-9.0796 -2.2581,-18.1096 -3.7793,-27.0996 29.12197,19.0813 54.81966,43.956 74.67383,72.6348 25.3959,36.6837 41.9312,80.2431 47.625,124.8418 7.31281,57.28 -3.39172,117.7416 -29.92578,169.0293 -26.53406,51.2877 -69.70065,94.9557 -120.67969,122.0781 -50.97901,27.1223 -111.31341,38.5205 -168.67381,31.8672 -57.3605,-6.6534 -113.4833,-31.5613 -156.9004,-69.6328 a 60.006,60.006 0 1 0 -79.1172,90.2265 c 62.1283,54.4791 140.1107,89.0867 222.1914,98.6075 82.0808,9.5206 165.91407,-6.3179 238.86329,-45.1289 72.94923,-38.8113 132.9291,-99.4861 170.89844,-172.877 37.96934,-73.3909 52.8433,-157.3994 42.37891,-239.3652 -8.1196,-63.5996 -31.30553,-124.9506 -67.9961,-177.9493 -36.70932,-53.0256 -86.2814,-96.6788 -144.11914,-125.97847 -27.56013,-13.96144 -56.75709,-24.4026 -86.78906,-31.3125 -13.95254,-22.53888 -30.02964,-43.84473 -48.25394,-63.44336 -62.3839,-67.0883 -147.1415,-112.06647 -238.8691,-123.94726 -113.5631,-14.709 -229.9706,22.97288 -313.3711,101.4414 -18.7241,17.61681 -35.378,37.09742 -50.0449,57.88867 -3.6876,-6.82448 -7.5409,-13.5897 -11.7481,-20.21679 -27.3444,-43.07317 -64.7953,-79.70416 -109.8125,-105.42188 -44.9797,-25.69632 -95.819,-39.58486 -147.416,-40.62304 -51.6051,-1.03836 -103.0794,10.80433 -149.1094,34.98242 -46.0849,24.20696 -84.8699,59.88222 -113.3613,102.59375 -5.3698,8.04985 -10.1997,16.32485 -14.7695,24.69531 -15.0902,-21.58443 -32.3198,-41.76636 -51.6953,-59.99609 -72.3711,-68.09131 -169.3378,-105.93969 -268.0606,-105.92383 z m 1437.2285,308.29687 c 0.222,0 0.4441,0.032 0.6661,0.037 10.5168,26.3131 17.69,54.03 20.6113,82.1113 3.4253,32.9266 1.4124,65.6731 -6.8028,95.4629 -8.1717,29.6327 -22.8711,57.0025 -42.4335,77.8223 -19.3874,20.6335 -44.7468,35.6212 -70.3047,41.3066 -25.2003,5.6058 -52.959,2.1794 -73.8868,-9.0156 -18.7754,-10.0436 -35.4152,-27.9733 -45.0664,-48.7012 -9.7493,-20.9387 -13.4382,-46.333 -10.375,-70.8359 3.085,-24.6762 12.965,-49.7172 27.9375,-71.5644 15.0428,-21.9498 35.5405,-41.3868 59.209,-56.8008 36.4384,-23.7302 80.1883,-37.6456 123.9688,-39.6289 5.4772,-0.2482 10.9736,-0.3118 16.4765,-0.1934 z m -1537.5625,21.4395 c 9.9835,0.2008 19.916,1.4249 29.4922,3.6855 28.9955,6.8448 56.654,23.8583 75.6914,46.5801 19.0213,22.7023 30.842,52.8385 32.252,82.2734 1.4087,29.4091 -7.501,60.4267 -24.2735,84.4434 -16.7574,23.9952 -42.7607,42.9359 -70.6152,51.4219 a 60.006,60.006 0 0 0 0,0 c -25.7673,7.8501 -55.4377,7.691 -82.4961,-0.2871 -27.2082,-8.0223 -53.2322,-24.1639 -73.8476,-45.4805 -7.4201,-7.6724 -14.1574,-16.134 -20.2364,-25.1875 -9.567,-22.7264 -13.2769,-48.5724 -10.2402,-72.9551 3.2427,-26.0372 14.2782,-51.8719 30.8477,-72.2167 16.5694,-20.3449 39.6347,-36.3836 64.4765,-44.8301 15.5262,-5.2791 32.3102,-7.784 48.9492,-7.4492 z"
         id="path4370-9-3-9-2-8-8"
         inkscape:connector-curvature="0" />
    </g>
  </g>
</svg>
