<?xml version="1.0" encoding="UTF-8" standalone="no"?>
<!-- Created with Inkscape (http://www.inkscape.org/) -->

<svg
   xmlns:dc="http://purl.org/dc/elements/1.1/"
   xmlns:cc="http://creativecommons.org/ns#"
   xmlns:rdf="http://www.w3.org/1999/02/22-rdf-syntax-ns#"
   xmlns:svg="http://www.w3.org/2000/svg"
   xmlns="http://www.w3.org/2000/svg"
   xmlns:sodipodi="http://sodipodi.sourceforge.net/DTD/sodipodi-0.dtd"
   xmlns:inkscape="http://www.inkscape.org/namespaces/inkscape"
   width="2000"
   height="2000"
   id="svg2992"
   version="1.1"
   inkscape:version="0.91pre2 r13516"
   sodipodi:docname="തൃ.svg">
  <defs
     id="defs5498">
    <inkscape:path-effect
       effect="spiro"
       id="path-effect2987"
       is_visible="true" />
    <inkscape:path-effect
       is_visible="true"
       id="path-effect2987-6"
       effect="spiro" />
    <inkscape:path-effect
       is_visible="true"
       id="path-effect2987-5"
       effect="spiro" />
    <inkscape:path-effect
       is_visible="true"
       id="path-effect4141-3-4-6"
       effect="spiro" />
    <inkscape:path-effect
       is_visible="true"
       id="path-effect4141-3-4-6-8"
       effect="spiro" />
    <inkscape:path-effect
       is_visible="true"
       id="path-effect4141-3-4-6-8-8"
       effect="spiro" />
    <inkscape:path-effect
       is_visible="true"
       id="path-effect4141-3-4-6-8-0"
       effect="spiro" />
  </defs>
  <sodipodi:namedview
     inkscape:window-height="853"
     inkscape:window-width="1600"
     inkscape:pageshadow="2"
     inkscape:pageopacity="0.0"
     borderopacity="1.0"
     bordercolor="#666666"
     pagecolor="#ffffff"
     id="base"
     showgrid="true"
     showguides="true"
     inkscape:guide-bbox="true"
     inkscape:zoom="0.227"
     inkscape:cx="387.61664"
     inkscape:cy="955.86963"
     inkscape:window-x="1598"
     inkscape:window-y="-3"
     inkscape:current-layer="layer1-5"
     inkscape:window-maximized="1">
    <sodipodi:guide
       orientation="horizontal"
       position="0,600"
       id="guide5596" />
    <inkscape:grid
       type="xygrid"
       id="grid3769"
       empspacing="5"
       visible="true"
       enabled="true"
       snapvisiblegridlinesonly="true" />
    <sodipodi:guide
       orientation="0,1"
       position="-3440,1600"
       id="guide4151"
       inkscape:label=""
       inkscape:color="rgb(0,0,255)" />
  </sodipodi:namedview>
  <metadata
     id="metadata5594">
    <rdf:RDF>
      <cc:Work
         rdf:about="">
        <dc:format>image/svg+xml</dc:format>
        <dc:type
           rdf:resource="http://purl.org/dc/dcmitype/StillImage" />
        <dc:title />
      </cc:Work>
    </rdf:RDF>
  </metadata>
  <g
     inkscape:label="Layer 1"
     inkscape:groupmode="layer"
     id="layer1"
     transform="translate(0,1000)">
    <g
       id="layer1-3"
       inkscape:label="Layer 1"
       transform="translate(-0.95658678,1.469116)">
      <g
         transform="translate(515.97655,-246.37705)"
         id="layer1-5"
         inkscape:label="Layer 1">
        <path
           style="color:#000000;font-style:normal;font-variant:normal;font-weight:normal;font-stretch:normal;font-size:medium;line-height:normal;font-family:sans-serif;text-indent:0;text-align:start;text-decoration:none;text-decoration-line:none;text-decoration-style:solid;text-decoration-color:#000000;letter-spacing:normal;word-spacing:normal;text-transform:none;direction:ltr;block-progression:tb;writing-mode:lr-tb;baseline-shift:baseline;text-anchor:start;clip-rule:nonzero;display:inline;overflow:visible;visibility:visible;opacity:1;isolation:auto;mix-blend-mode:normal;color-interpolation:sRGB;color-interpolation-filters:linearRGB;solid-color:#000000;solid-opacity:1;fill:#000000;fill-opacity:1;fill-rule:evenodd;stroke:none;stroke-width:140;stroke-linecap:round;stroke-linejoin:round;stroke-miterlimit:4;stroke-dasharray:none;stroke-dashoffset:0;stroke-opacity:1;color-rendering:auto;image-rendering:auto;shape-rendering:auto;text-rendering:auto;enable-background:accumulate"
           d="m 154.24219,-375.44141 c -117.698734,2.1155 -235.545722,34.94726 -335.67774,101.23633 -114.93923,76.09169 -201.92681,194.816735 -231.12304,332.492189 -28.41611,133.996741 0.65225,276.415451 79.30664,388.558591 78.6544,112.14316 202.65981,187.97389 338.3242156,206.88868 A 70.007,70.007 0 1 0 24.404297,515.07617 C -71.343505,501.72669 -163.12289,445.6023 -218.63477,366.45508 c -55.51186,-79.14721 -77.02592,-184.5542 -56.9707,-279.125002 20.71895,-97.700633 85.76081,-188.070378 171.45117,-244.798828 86.193003,-57.06122 194.725743,-83.20748 300.90821,-77.22852 28.60534,1.61072 57.1211,5.50403 85.16211,11.5625 -18.261,13.64211 -35.82557,28.3231 -52.53516,44.08594 -91.61552,86.424684 -155.196166,202.934846 -171.771485,330.09375 -16.279712,124.89115 14.637819,257.64641 98.972655,357.4043 42.08747,49.78436 96.15518,89.624 158.11328,113.625 62.08885,24.05166 130.51402,31.45364 197.17578,18.93555 71.527,-13.4317 136.30862,-48.89133 187.22266,-98.40235 50.76078,-49.362 86.49353,-111.20457 106.42773,-177.28515 C 845.37285,233.21756 820.45963,92.986743 759.68555,-23.316406 722.99668,-93.527763 673.32096,-156.14704 614.29883,-208.18945 c 104.64577,-12.38827 213.59932,5.49493 307.49219,51.91406 103.21328,51.02697 190.03138,137.627528 240.05468,240.74414 71.3796,147.13997 68.0053,330.99921 1.916,485.28906 C 1097.8641,723.60029 972.53132,852.45766 823.5293,938.10742 732.2854,868.73576 634.29352,808.30959 531.19531,758.20508 489.41915,737.90235 444.34979,717.93749 394.4668,704.63086 344.38936,691.27235 289.54185,684.82442 233.31445,693.56445 176.52477,702.39188 119.962,726.86636 76.167969,771.26953 31.599583,816.45783 4.1607859,879.2854 9.7949219,947.16602 c 3.3139611,39.92691 17.8299431,76.42428 38.9667971,107.29878 21.008218,30.6868 47.884089,54.9604 76.906251,73.6094 57.76507,37.1185 121.12164,51.0648 178.61719,58.4043 203.54417,25.9832 409.55197,-24.9743 584.36523,-124.2558 174.08181,-98.86613 323.19501,-249.15573 403.80271,-437.33989 81.0128,-189.12975 87.0373,-412.52508 -4.6465,-601.519529 -64.1635,-132.264971 -172.6607,-240.224031 -303.96871,-305.140621 -131.22723,-64.87664 -281.85162,-85.33485 -425.43945,-59.70313 -36.06119,6.43725 -71.66065,15.85654 -106.31836,28.08008 -77.82823,-35.61925 -162.1187,-56.27102 -247.45508,-61.07617 -16.75594,-0.9435 -33.56871,-1.26706 -50.38281,-0.96485 z m 290.93164,216.41602 c 2.83721,1.69725 5.69406,3.36447 8.49609,5.11523 76.40522,47.7395 140.5046,116.149125 181.9336,195.431644 46.39856,88.792776 62.86674,193.923676 35.88476,283.367186 -13.48248,44.69354 -37.80638,86.04693 -69.99609,117.34961 -32.03648,31.15366 -73.26893,53.25312 -115.45899,61.17578 -39.34341,7.38811 -82.2809,3.02011 -120.76758,-11.88867 C 326.64819,476.56597 291.04227,450.64823 263.49609,418.06445 208.56367,353.08606 184.8323,258.15589 196.43555,169.14062 208.43019,77.122761 256.28377,-11.96433 325.44922,-77.210938 c 34.9849,-33.002702 75.6651,-60.469012 119.72461,-81.814452 z m -165.8125,988.74023 c 25.16054,-0.69828 52.00624,2.97905 79.02148,10.18555 36.21475,9.66053 73.24821,25.57578 111.61719,44.22266 72.15024,35.06416 141.59831,75.70543 207.69141,121.19725 -114.89625,40.835 -237.41284,57.3821 -355.67774,42.2852 -47.27427,-6.0347 -89.57259,-17.3319 -120.66406,-37.3106 -15.40612,-9.8996 -28.24203,-22.02618 -37.06641,-34.91599 -8.69576,-12.70188 -13.91251,-27.09087 -14.96679,-39.79297 -1.73658,-20.92246 8.52322,-47.75327 26.52734,-66.00782 18.77847,-19.03966 47.71325,-32.81649 78.97461,-37.67578 7.95591,-1.23667 16.15612,-1.95473 24.54297,-2.1875 z"
           id="path4139-1-0-4-2"
           inkscape:connector-curvature="0" />
        <path
           sodipodi:nodetypes="caaaassssaasc"
           inkscape:connector-curvature="0"
           inkscape:original-d="m 813.38015,2692.9118 c -100.7349,-65.2726 -184.8399,-172.9291 -302.738,-189.6331 -144.5126,-20.4747 -394.4328,-23.2974 -421.042497,120.2122 -17.7619,95.792 138.454397,154.6855 233.593397,175.6657 180.0618,39.7075 400.4095,3.6962 540.9314,-115.6877 258.45195,-219.5742 419.91945,-782.3809 370.74545,-947.4385 -73.8955,-248.0382 -432.52125,-460.1822 -654.12635,-326.486 -119.4211,72.0477 -429.2981,247.5197 -443.6769,432.6636 -15.1216,194.7091 227.7758,385.0316 371.93,412.1187 195.6219,36.758 263.9935,-375.0817 198.6919,-563.1103 -64.2673,-185.0504 -301.108,-317.8793 -496.9558,-313.6884 -220.857297,4.726 -440.1541,172.2513 -544.7709,377.3952 -104.6169,205.1439 358.821003,511.5965 358.821003,511.5965"
           inkscape:path-effect="#path-effect4141-3-4-6-8-0"
           id="path4139-1-0-4-2-1"
           d="m 813.38015,2692.9118 c -93.74782,-73.789 -195.43456,-137.4849 -302.738,-189.6331 -40.07257,-19.4748 -81.12363,-37.4145 -124.17251,-48.8981 -43.04888,-11.4836 -88.33315,-16.3756 -132.35867,-9.5322 -44.02553,6.8433 -86.77433,25.9691 -118.06058,57.6905 -31.28625,31.7214 -50.136098,76.5505 -46.450737,120.952 2.184124,26.3145 12.051087,51.7567 26.967397,73.5449 14.9163,21.7883 34.77167,39.9895 56.9858,54.2639 44.42827,28.5486 97.2553,41.1698 149.6402,47.8569 186.10242,23.7567 377.79267,-23.0365 540.9314,-115.6877 162.43155,-92.2496 300.47545,-232.3241 374.02645,-404.0339 73.5511,-171.7098 78.2507,-375.3374 -3.281,-543.4046 -57.0934,-117.6908 -154.7508,-214.9703 -272.01144,-272.9421 -117.26062,-57.9718 -253.34233,-76.5309 -382.11491,-53.5439 -108.7957,19.421 -212.89352,68.6044 -293.28402,144.44 -80.39051,75.8357 -136.1079,178.6352 -150.39288,288.2236 -13.94148,106.9532 13.38258,220.7945 83.01623,303.1626 34.81682,41.1841 79.65461,74.0634 129.94239,93.5436 50.28777,19.4802 105.96879,25.3656 158.97138,15.4125 56.85853,-10.6772 109.86507,-39.4567 151.34032,-79.789 41.47526,-40.3323 71.50349,-91.9299 88.21183,-147.3169 33.41668,-110.7741 12.72607,-233.4564 -40.86025,-336.0044 -47.44388,-90.7932 -120.00509,-168.0942 -206.8826,-222.377 -86.87752,-54.2828 -187.79341,-85.5522 -290.0732,-91.3114 -120.114991,-6.7635 -243.168476,22.3391 -343.48327,88.7492 -100.3148,66.41 -176.33004,170.958 -201.28763,288.646 -24.23566,114.2838 1.05548,238.1964 68.13862,333.8416 67.08314,95.6451 174.976284,161.6228 290.682383,177.7549"
           style="fill:none;fill-rule:evenodd;stroke:#000000;stroke-width:140;stroke-linecap:round;stroke-linejoin:round;stroke-miterlimit:4;stroke-dasharray:none;stroke-opacity:1" />
      </g>
    </g>
  </g>
</svg>
