<?xml version="1.0" encoding="UTF-8" standalone="no"?>
<!-- Created with Inkscape (http://www.inkscape.org/) -->

<svg
   xmlns:dc="http://purl.org/dc/elements/1.1/"
   xmlns:cc="http://creativecommons.org/ns#"
   xmlns:rdf="http://www.w3.org/1999/02/22-rdf-syntax-ns#"
   xmlns:svg="http://www.w3.org/2000/svg"
   xmlns="http://www.w3.org/2000/svg"
   xmlns:sodipodi="http://sodipodi.sourceforge.net/DTD/sodipodi-0.dtd"
   xmlns:inkscape="http://www.inkscape.org/namespaces/inkscape"
   width="2000"
   height="2048"
   id="svg2992"
   version="1.1"
   inkscape:version="0.91 r13725"
   sodipodi:docname="ത്തു.svg">
  <defs
     id="defs5498">
    <inkscape:path-effect
       effect="spiro"
       id="path-effect3891"
       is_visible="true" />
    <inkscape:path-effect
       is_visible="true"
       id="path-effect3891-2"
       effect="spiro" />
    <inkscape:path-effect
       is_visible="true"
       id="path-effect4141-3-4-6-8"
       effect="spiro" />
    <inkscape:path-effect
       is_visible="true"
       id="path-effect4141-3-4-6-8-9"
       effect="spiro" />
    <inkscape:path-effect
       is_visible="true"
       id="path-effect4141-3-4-6-8-9-5"
       effect="spiro" />
    <inkscape:path-effect
       is_visible="true"
       id="path-effect4141-3-4-6-8-9-5-4"
       effect="spiro" />
    <inkscape:path-effect
       is_visible="true"
       id="path-effect4141-3-4-6-8-9-5-4-1"
       effect="spiro" />
    <inkscape:path-effect
       effect="spiro"
       id="path-effect4141-3-4-6-8-9-5-5-5"
       is_visible="true" />
    <inkscape:path-effect
       effect="spiro"
       id="path-effect4141-3-4-6-8-9-5-5-5-6"
       is_visible="true" />
    <inkscape:path-effect
       effect="spiro"
       id="path-effect4141-3-4-6-8-9-5-5-5-1"
       is_visible="true" />
  </defs>
  <sodipodi:namedview
     inkscape:window-height="851"
     inkscape:window-width="1600"
     inkscape:pageshadow="2"
     inkscape:pageopacity="0.0"
     borderopacity="1.0"
     bordercolor="#666666"
     pagecolor="#ffffff"
     id="base"
     showgrid="true"
     showguides="true"
     inkscape:guide-bbox="true"
     inkscape:zoom="0.227"
     inkscape:cx="1229.797"
     inkscape:cy="-471.50335"
     inkscape:window-x="1599"
     inkscape:window-y="-1"
     inkscape:current-layer="layer1-8"
     inkscape:window-maximized="1">
    <inkscape:grid
       type="xygrid"
       id="grid3769"
       empspacing="3"
       visible="true"
       enabled="true"
       snapvisiblegridlinesonly="true"
       spacingx="4px"
       units="px"
       dotted="true"
       spacingy="4px" />
    <sodipodi:guide
       orientation="0,1"
       position="-1040,1600"
       id="guide2985" />
    <sodipodi:guide
       orientation="0,1"
       position="-480,576"
       id="guide3939" />
  </sodipodi:namedview>
  <metadata
     id="metadata5594">
    <rdf:RDF>
      <cc:Work
         rdf:about="">
        <dc:format>image/svg+xml</dc:format>
        <dc:type
           rdf:resource="http://purl.org/dc/dcmitype/StillImage" />
        <dc:title />
      </cc:Work>
    </rdf:RDF>
  </metadata>
  <g
     inkscape:label="Layer 1"
     inkscape:groupmode="layer"
     id="layer1"
     transform="translate(0,1048)">
    <g
       id="layer1-8"
       inkscape:label="Layer 1"
       transform="translate(-636.1686,-1002.5333)">
      <path
         style="fill:none;fill-rule:evenodd;stroke:#000000;stroke-width:133.17449951;stroke-linecap:round;stroke-linejoin:round;stroke-miterlimit:4;stroke-dasharray:none;stroke-opacity:1"
         d="m 3530.3328,1889.0341 -2321.5786,-6.5186 c -76.8994,-0.2159 -154.3728,5.4538 -230.43163,-5.8878 -38.0294,-5.6708 -76.01817,-17.0666 -107.15122,-39.6305 -15.56653,-11.2819 -29.24211,-25.3408 -39.18034,-41.7977 -9.93823,-16.4569 -16.05619,-35.3615 -16.5402,-54.5803 -0.5129,-20.3663 5.32098,-40.6815 15.49012,-58.3347 10.16914,-17.6533 24.56599,-32.703 41.05798,-44.6639 32.98398,-23.9218 73.50509,-35.4379 113.89446,-40.8132 80.77873,-10.7505 162.78103,-3.8678 244.27203,-3.929 l 1509.1464,-1.1326 c 87.0828,-0.065 174.5718,-0.8455 260.5137,-14.8957 85.9419,-14.0502 170.1826,-41.4503 245.1908,-85.6904 150.0165,-88.4802 256.211,-247.4047 280.0469,-419.9316 17.5993,-127.38554 -7.8161,-261.20698 -75.5976,-370.4886 -67.7816,-109.28162 -178.3293,-192.39643 -303.4793,-221.96478 -145.536,-34.38481 -305.1378,5.85796 -421.847,99.35664 -116.7092,93.49869 -190.0471,236.9786 -205.2114,385.75051 -9.4653,92.86083 3.6935,190.38603 52.2323,270.11493 24.2695,39.8645 57.1823,74.7139 96.7647,99.4409 39.5823,24.7269 85.8918,39.1025 132.5627,39.0376 47.2731,-0.066 94.1234,-14.9509 133.9817,-40.3687 39.8584,-25.4177 72.7893,-61.1259 96.8368,-101.8256 48.0951,-81.3995 59.8802,-180.3908 49.0586,-274.31573 -16.0551,-139.34827 -81.9059,-274.02878 -188.2764,-365.46738 -106.3706,-91.4386 -253.462,-136.54143 -391.4943,-111.5859 -111.5353,20.16501 -214.2773,88.08302 -272.8835,185.09887 -29.3031,48.50792 -47.8269,103.09998 -57.5188,158.93685 -9.692,55.83688 -10.5855,112.77898 -10.9689,169.44946 l -2.5683,379.60053 2.4985,-381.90853 c 0.377,-57.62199 0.1803,-115.5662 -9.5729,-172.35803 -9.7532,-56.79183 -29.1054,-112.24162 -59.8452,-160.98075 -30.7398,-48.73913 -72.6204,-90.38806 -121.5073,-120.89224 -48.8869,-30.50419 -104.4497,-49.88566 -161.4683,-58.21139 -135.6422,-19.80618 -278.0147,24.61768 -382.6809,113.13935 -104.6662,88.52167 -171.4473,218.76154 -188.9209,354.72396 -12.2787,95.54093 -0.1186,196.63603 49.3141,279.31153 24.7163,41.3377 58.5317,77.4821 99.3103,103.1104 40.7786,25.6284 88.5746,40.5042 136.7379,40.4381 48.2959,-0.066 96.1814,-15.1582 136.9542,-41.0439 40.7729,-25.8856 74.4873,-62.3264 98.9927,-103.9435 49.0107,-83.2343 60.3052,-184.7926 46.85,-280.44273 C 1783.44,801.64136 1709.6679,667.548 1597.2164,579.71269 c -112.4515,-87.8353 -263.0161,-126.97015 -402.9956,-99.29148 -96.4121,19.06393 -186.4718,69.01097 -253.69772,140.70062 -67.22592,71.68966 -111.28818,164.7701 -124.12321,262.20722 -12.83503,97.43713 5.62016,198.75275 51.9882,285.40575 46.36804,86.6529 120.42137,158.218 208.60793,201.5984"
         id="path4139-1-0-4-2-2-4-3-2"
         inkscape:path-effect="#path-effect4141-3-4-6-8-9-5-5-5"
         inkscape:original-d="m 3530.3328,1889.0341 -2321.5786,-6.5186 c -112.2565,-0.3152 -393.58335,-2.5241 -393.30339,-141.8963 0.29478,-146.748 268.58239,-147.6312 414.71459,-147.7408 l 1509.1464,-1.1326 c 157.4729,-0.1182 720.7936,-213.133 785.7514,-520.5177 48.4743,-229.38381 -148.0694,-552.42527 -379.0769,-592.45338 -260.3864,-45.11879 -586.3944,223.98794 -627.0584,485.10715 -25.4514,163.43343 116.1592,409.56203 281.5597,408.59343 167.2666,-0.9796 304.0985,-251.0035 279.8771,-416.51003 -36.2403,-247.6319 -332.2291,-513.90497 -579.7707,-477.05328 -203.2945,30.26459 -339.8132,283.21068 -341.3712,513.48518 l -2.5683,379.60053 2.4985,-381.90853 c 1.7537,-268.0588 -147.1527,-483.26167 -352.3937,-512.44241 -243.7698,-34.65869 -535.8749,224.24771 -571.6018,467.86331 -24.6739,168.24683 115.3168,423.45323 285.3623,422.86003 170.2813,-0.5941 311.1587,-257.5263 282.7969,-425.43013 C 1760.8556,691.56707 1429.506,382.27775 1194.2208,480.42121 918.08127,595.60597 691.48817,1072.3438 1076.996,1370.3332"
         inkscape:connector-curvature="0"
         sodipodi:nodetypes="csassaaaaaascsaaaaac" />
      <path
         style="color:#000000;font-style:normal;font-variant:normal;font-weight:normal;font-stretch:normal;font-size:medium;line-height:normal;font-family:sans-serif;text-indent:0;text-align:start;text-decoration:none;text-decoration-line:none;text-decoration-style:solid;text-decoration-color:#000000;letter-spacing:normal;word-spacing:normal;text-transform:none;direction:ltr;block-progression:tb;writing-mode:lr-tb;baseline-shift:baseline;text-anchor:start;white-space:normal;clip-rule:nonzero;display:inline;overflow:visible;visibility:visible;opacity:1;isolation:auto;mix-blend-mode:normal;color-interpolation:sRGB;color-interpolation-filters:linearRGB;solid-color:#000000;solid-opacity:1;fill:#000000;fill-opacity:1;fill-rule:evenodd;stroke:none;stroke-width:133.17449951;stroke-linecap:round;stroke-linejoin:round;stroke-miterlimit:4;stroke-dasharray:none;stroke-dashoffset:0;stroke-opacity:1;color-rendering:auto;image-rendering:auto;shape-rendering:auto;text-rendering:auto;enable-background:accumulate"
         d="m 2856.6152,2184.8652 c -81.1664,0.7037 -161.5528,19.6954 -234.998,53.9317 -96.3621,-43.3292 -204.7335,-59.5889 -310.7383,-40.4239 -130.2489,23.5484 -248.7277,101.4712 -318.0312,216.1954 -3.4278,5.6741 -6.6232,11.4429 -9.7872,17.2246 -4.6907,-8.6385 -9.5852,-17.1941 -14.873,-25.5782 -36.1668,-57.3438 -85.0875,-105.9886 -142.5781,-141.8613 -57.3641,-35.7937 -121.5794,-58.0426 -187.0977,-67.6094 -102.3746,-14.9485 -206.239,1.6631 -299.2148,43.0625 -104.3883,-46.437 -222.1109,-62.2126 -335.8594,-39.7207 -110.38285,21.8264 -212.38617,78.3968 -289.35352,160.4746 -76.96732,82.078 -126.87345,187.5023 -141.56836,299.0586 -14.69491,111.5564 6.20791,226.3081 59.29493,325.5176 53.08701,99.2094 136.96043,180.2671 237.92578,229.9336 a 66.593908,66.593908 0 1 0 58.7832,-119.5 C 853.1118,3058.476 788.87948,2996.403 749.23047,2922.3066 c -39.64902,-74.0964 -55.65681,-161.977 -44.68164,-245.2949 10.97515,-83.3178 49.19324,-164.054 106.67773,-225.3555 57.4845,-61.3013 135.6016,-104.6243 218.04294,-120.9257 53.893,-10.6565 110.4381,-9.4547 165.2305,1.9531 -113.4236,99.9403 -184.221,241.2311 -203.25391,389.3262 -13.74419,106.9439 -1.02669,222.9011 58.20701,321.9687 29.6708,49.6241 70.4112,93.5062 121.0293,125.3184 50.797,31.9247 110.3272,50.7315 172.2617,50.6465 62.1071,-0.085 121.7495,-19.1637 172.5508,-51.4161 50.6233,-32.1394 91.2523,-76.3884 120.6836,-126.3711 58.7576,-99.7872 70.4851,-216.3274 55.4082,-323.5058 -20.7556,-147.5469 -93.2725,-287.1769 -206.3262,-385.9395 44.5169,-8.8628 90.0815,-10.6331 134.211,-4.1894 48.5189,7.0846 95.4282,23.5998 135.8379,48.8144 40.2832,25.1357 75.1247,59.7895 100.4375,99.9239 25.3102,40.1304 42.049,87.292 50.539,136.7285 8.4997,49.4925 8.9874,103.4739 8.6133,160.6523 l -2.4941,381.4375 -0,0.4551 0,0.016 a 66.593908,66.593908 0 0 0 133.1718,0.8867 l 0,-0.016 2.5684,-379.5859 c 0.3807,-56.2724 1.4829,-109.5111 9.9883,-158.5117 8.4977,-48.9568 24.6162,-95.682 48.9082,-135.8946 47.9089,-79.3076 134.9127,-137.2222 227.7344,-154.0039 47.3852,-8.567 96.8407,-7.0145 145.0351,3.002 -117.2015,105.2051 -188.9666,254.4437 -204.791,409.6914 -10.5735,103.7335 3.2986,215.7279 61.5996,311.4922 29.2111,47.9812 69.0032,90.4551 118.3613,121.289 49.5395,30.9472 107.53,49.2344 167.9356,49.1504 61.1892,-0.085 119.8251,-19.0125 169.6914,-50.8125 49.6771,-31.6791 89.4475,-75.1599 118.3613,-124.0957 57.6989,-97.6536 69.9406,-211.1398 57.8809,-315.8105 -17.5731,-152.5237 -88.1821,-299.6729 -205.2305,-403.0977 62.6838,-14.8251 128.0993,-16.1493 189.3926,-1.6679 106.5149,25.1656 203.5438,97.6856 262.2031,192.2597 58.8771,94.9254 81.7673,213.7637 66.2227,326.2774 -20.9252,151.4584 -116.1061,293.9506 -247.9141,371.6914 -66.5799,39.269 -142.9298,64.3841 -222.1055,77.3281 -79.228,12.9526 -163.102,13.9587 -249.8203,14.0234 l -1509.1465,1.1328 c -77.70809,0.058 -162.70348,-7.5064 -253.00777,4.5118 -46.94436,6.2476 -98.45934,19.7381 -144.20312,52.914 -23.07233,16.7333 -44.09513,38.3063 -59.66211,65.3301 -15.70014,27.2548 -25.21832,59.0658 -24.35742,93.25 0.81189,32.238 10.75333,61.9024 26.10547,87.3242 15.23643,25.2303 35.25872,45.4607 57.10351,61.293 43.34754,31.4164 91.90606,44.9363 136.40821,51.5723 85.78434,12.7918 166.56344,6.4108 240.06443,6.6171 l 2321.5781,6.5176 a 66.593908,66.593908 0 1 0 0.375,-133.1738 l -2321.5781,-6.5176 c -80.29789,-0.2254 -154.46553,4.7312 -220.79881,-5.1601 -31.55665,-4.7056 -58.97791,-13.9762 -77.89648,-27.6875 -9.2878,-6.7314 -16.61612,-14.6217 -21.25586,-22.3047 -4.52434,-7.492 -6.81848,-15.6344 -6.97461,-21.834 -0.16492,-6.5484 1.9849,-15.3703 6.62304,-23.4219 4.77132,-8.2828 12.54148,-16.8096 22.45313,-23.998 20.2242,-14.6677 49.75154,-24.2081 83.58594,-28.711 71.25325,-9.4828 150.2633,-3.2816 235.53715,-3.3457 l 1509.1464,-1.1328 c 87.4474,-0.065 178.5513,-0.6217 271.2071,-15.7695 92.7081,-15.1564 184.8389,-44.8377 268.2754,-94.0488 168.225,-99.2197 285.433,-274.5785 312.1796,-468.1739 19.654,-142.2573 -8.2867,-291.0614 -84.9726,-414.6992 -76.9039,-123.9891 -200.9689,-217.6987 -344.7539,-251.6699 -41.8631,-9.8907 -84.4341,-14.4612 -126.8145,-14.0938 z m -1517.0859,205.3477 c 13.444,8.2912 26.4287,17.2763 38.8301,26.9629 97.6759,76.2941 163.632,195.4797 181.1523,320.0273 11.8335,84.1219 0.9728,170.6997 -38.291,237.3809 -19.5795,33.2515 -46.3822,61.8817 -77.3047,81.5137 -30.7439,19.5184 -66.8715,30.6247 -101.3555,30.6718 -34.392,0.047 -70.4545,-10.8964 -101.2148,-30.2285 -30.9391,-19.4444 -57.8299,-47.8527 -77.5918,-80.9043 -39.6317,-66.2834 -51.2331,-152.5145 -40.4199,-236.6523 15.4247,-120.0201 75.136,-235.6248 165.8769,-312.3692 15.7824,-13.3479 32.6682,-25.4614 50.3184,-36.4023 z m 1282.8809,0.1406 c 16.9746,10.7588 33.237,22.5888 48.4043,35.627 92.1619,79.2245 151.2893,198.9659 165.5332,322.5937 9.5835,83.1793 -1.747,167.675 -40.2383,232.8203 -19.1812,32.4636 -45.2709,60.4004 -75.3106,79.5567 -29.8503,19.0356 -64.9145,29.8772 -98.2715,29.9238 -32.9361,0.046 -67.5663,-10.4171 -97.1914,-28.9238 -29.8064,-18.6201 -55.84,-45.8462 -75.1679,-77.5938 -38.7766,-63.6937 -51.2204,-146.7482 -42.8633,-228.7363 13.406,-131.5223 79.2096,-259.3091 180.5996,-340.5352 11.0289,-8.8355 22.6049,-17.0179 34.5059,-24.7324 z"
         id="path4139-1-0-4-2-2-4-3-2-3"
         inkscape:connector-curvature="0" />
    </g>
  </g>
</svg>
