<?xml version="1.0" encoding="UTF-8" standalone="no"?>
<!-- Created with Inkscape (http://www.inkscape.org/) -->

<svg
   xmlns:dc="http://purl.org/dc/elements/1.1/"
   xmlns:cc="http://creativecommons.org/ns#"
   xmlns:rdf="http://www.w3.org/1999/02/22-rdf-syntax-ns#"
   xmlns:svg="http://www.w3.org/2000/svg"
   xmlns="http://www.w3.org/2000/svg"
   xmlns:sodipodi="http://sodipodi.sourceforge.net/DTD/sodipodi-0.dtd"
   xmlns:inkscape="http://www.inkscape.org/namespaces/inkscape"
   width="2000"
   height="2000"
   id="svg2992"
   version="1.1"
   inkscape:version="0.91 r13725"
   sodipodi:docname="ത്ഭ.svg">
  <defs
     id="defs5498">
    <inkscape:path-effect
       effect="spiro"
       id="path-effect2987"
       is_visible="true" />
    <inkscape:path-effect
       effect="spiro"
       id="path-effect4142-8"
       is_visible="true" />
    <inkscape:path-effect
       effect="spiro"
       id="path-effect4141-3-4-6-8-86"
       is_visible="true" />
    <inkscape:path-effect
       effect="spiro"
       id="path-effect4141-3-4-6-8-86-9"
       is_visible="true" />
    <inkscape:path-effect
       effect="spiro"
       id="path-effect4141-3-4-6-8-86-9-0"
       is_visible="true" />
    <inkscape:path-effect
       effect="spiro"
       id="path-effect4141-3-4-6-8-86-9-0-3"
       is_visible="true" />
  </defs>
  <sodipodi:namedview
     inkscape:window-height="704"
     inkscape:window-width="1366"
     inkscape:pageshadow="2"
     inkscape:pageopacity="0.0"
     borderopacity="1.0"
     bordercolor="#666666"
     pagecolor="#ffffff"
     id="base"
     showgrid="true"
     showguides="true"
     inkscape:guide-bbox="true"
     inkscape:zoom="0.16051324"
     inkscape:cx="-287.96534"
     inkscape:cy="702.48401"
     inkscape:window-x="-4"
     inkscape:window-y="0"
     inkscape:current-layer="layer1"
     inkscape:window-maximized="1"
     inkscape:snap-nodes="false"
     inkscape:snap-grids="false">
    <sodipodi:guide
       orientation="horizontal"
       position="0,600"
       id="guide5596" />
    <inkscape:grid
       type="xygrid"
       id="grid3769"
       empspacing="5"
       visible="true"
       enabled="true"
       snapvisiblegridlinesonly="true" />
    <sodipodi:guide
       orientation="0,1"
       position="-2720,1600"
       id="guide4772" />
  </sodipodi:namedview>
  <metadata
     id="metadata5594">
    <rdf:RDF>
      <cc:Work
         rdf:about="">
        <dc:format>image/svg+xml</dc:format>
        <dc:type
           rdf:resource="http://purl.org/dc/dcmitype/StillImage" />
        <dc:title />
      </cc:Work>
    </rdf:RDF>
  </metadata>
  <g
     inkscape:label="Layer 1"
     inkscape:groupmode="layer"
     id="layer1"
     transform="translate(0,1000)">
    <path
       style="color:#000000;font-style:normal;font-variant:normal;font-weight:normal;font-stretch:normal;font-size:medium;line-height:normal;font-family:sans-serif;text-indent:0;text-align:start;text-decoration:none;text-decoration-line:none;text-decoration-style:solid;text-decoration-color:#000000;letter-spacing:normal;word-spacing:normal;text-transform:none;direction:ltr;block-progression:tb;writing-mode:lr-tb;baseline-shift:baseline;text-anchor:start;white-space:normal;clip-rule:nonzero;display:inline;overflow:visible;visibility:visible;opacity:1;isolation:auto;mix-blend-mode:normal;color-interpolation:sRGB;color-interpolation-filters:linearRGB;solid-color:#000000;solid-opacity:1;fill:#000000;fill-opacity:1;fill-rule:evenodd;stroke:none;stroke-width:140;stroke-linecap:round;stroke-linejoin:round;stroke-miterlimit:4;stroke-dasharray:none;stroke-dashoffset:0;stroke-opacity:1;color-rendering:auto;image-rendering:auto;shape-rendering:auto;text-rendering:auto;enable-background:accumulate"
       d="m 2055.3262,-618.71289 c -23.5005,0.4334 -47.1623,2.10449 -70.9141,5.23828 -95.5786,12.61055 -189.3628,49.56206 -265.8691,113.0918 -49.4548,41.06642 -89.2301,91.50168 -118.9102,147.02734 -4.4687,-7.95117 -9.1625,-15.80577 -14.123,-23.53906 -38.7288,-60.37728 -90.9829,-111.12734 -151.8555,-148.41602 -60.7117,-37.19018 -128.1875,-60.16141 -196.6758,-70.70117 -104.9374,-16.14896 -212.7224,-2.82929 -310.40819,36.5 -35.99013,-15.75304 -73.60088,-27.9575 -112.3164,-36.04492 -116.98785,-24.43801 -240.65871,-11.22058 -349.69141,39.02734 -109.11672,50.28664 -200.26683,136.32974 -255.62305,243.57032 -64.3177,124.60151 -76.9392,272.267599 -34.69922,405.976558 42.24,133.708962 137.40206,247.322932 261.62891,312.361332 a 70.007,70.007 0 1 0 64.93555,-124.0293 C 410.48053,234.06081 338.45058,148.06226 307.73828,50.84375 c -30.71229,-97.218511 -21.15932,-208.99132 25.60547,-299.58789 40.4336,-78.33126 109.26677,-143.51617 189.81445,-180.63672 74.51212,-34.33905 160.77284,-45.63306 242.43946,-32.74414 -107.07684,91.22581 -179.77548,219.71059 -202.05664,358.95898 -17.52742,109.5393997 -3.89785,228.64495 57.96679,328.85743 30.95768,50.14729 73.26282,93.968 125.24414,125.34765 52.14377,31.47769 112.7266,49.48663 175.39453,48.81836 62.70213,-0.66864 122.89102,-19.98202 174.36332,-52.51562 51.3084,-32.43006 92.7058,-77.03283 122.7441,-127.65235 60.0138,-101.13347 71.9861,-219.98801062 54.0117,-329.06445 -19.228,-116.68415 -72.6159,-226.91612 -153.75,-313.70117 -11.287,-12.07322 -23.1234,-23.59583 -35.3711,-34.64844 43.7475,-6.42326 88.2861,-6.57228 131.5391,0.084 51.8273,7.97578 101.7493,25.31567 144.8418,51.71289 42.9318,26.29872 80.1462,62.53437 107.1426,104.62109 26.983,42.06572 44.8055,91.69948 53.6191,143.69336 6.0135,35.47525 7.8213,73.348846 8.1563,112.884764 -0.6166,19.434272 -1.0085,38.7190776 -1.2422,57.546875 l -4.125,332.341801 a 70.007,70.007 0 0 0 139.9863,1.95312 l 0,-0.2168 0,-0.17578 5.1621,-332.849606 c 0.2867,-18.4929854 0.4103,-37.47554 0.3183,-56.681641 2.2754,-62.193913 7.9867,-120.980063 24.1914,-173.921873 21.0334,-68.71725 60.9217,-131.66842 114.2403,-175.94336 53.4983,-44.4242 122.7916,-72.50861 194.7441,-82.00195 72.5242,-9.56878 149.7354,-1.56033 226.9473,15.91796 63.361,14.34292 118.8014,35.47393 151.6816,69.47071 16.0213,16.5653 26.8454,36.671 30.1777,55.00195 3.1821,17.50443 -0.8652,36.52166 -8.6171,47.64844 -8.2509,11.84304 -26.447,23.43975 -47.8047,27.95508 -22.4179,4.73945 -50.1192,3.31243 -80.2891,-2.79493 -60.8348,-12.31489 -135.0633,-47.70304 -229.0449,-45.66015 -56.283,1.22342 -115.0183,18.06421 -162.7793,57.95117 -23.8905,19.95182 -44.0603,45.04033 -57.8516,74.65625 -13.8497,29.74158 -20.7276,62.95591 -18.2754,97.205078 2.8778,40.193623 18.1497,76.57059596 40.6153,106.564453 22.2863,29.754861 50.7032,52.092282 81.0664,68.041016 60.3397,31.694263 124.4291,37.227733 181.166,35.888673 56.2955,-1.32865 106.3545,-8.87976 150.7969,-9.87695 43.9956,-0.98717 83.7335,4.83064 112.5468,20.09375 15.1036,8.00073 27.2941,18.73739 34.5938,29.67773 7.0007,10.49241 10.1493,23.02318 9.4277,31.78906 -0.7357,8.93758 -6.1007,21.14101 -15.1308,30.66211 a 70.007,70.007 0 0 0 0,0.002 c -9.4323,9.94513 -23.847,18.84522 -40.9043,24.61133 -34.8234,11.77184 -81.448,10.67791 -135.4434,6.73243 -101.9534,-7.4498 -203.7866,-16.5319 -305.4492,-27.24219 a 70.007,70.007 0 1 0 -14.668,139.22851 c 103.149,10.86688 206.4721,20.08192 309.916,27.64063 55.3368,4.0435 121.4514,9.60178 190.4786,-13.73242 34.868,-11.78689 69.3638,-31.07395 97.6503,-60.89844 28.6889,-30.2485 49.3173,-69.82802 53.0782,-115.51758 3.6926,-44.8611 -9.6342,-86.71115 -32.4981,-120.978515 -22.5651,-33.819443 -53.0702,-58.502331 -85.5156,-75.689453 -60.2777,-31.930532 -124.4247,-37.61817 -181.2227,-36.34375 -56.351,1.264394 -106.4636,8.8307116 -150.9589,9.8808592 -44.0539,1.0397295 -83.8462,-4.6808602 -112.7618,-19.8691402 -14.2642,-7.492537 -26.1818,-17.435303 -34.1152,-28.027344 -7.7545,-10.353043 -12.3032,-22.547665 -13.0254,-32.634766 -0.6171,-8.619383 1.2537,-18.887961 5.5469,-28.107421 4.3517,-9.34514 11.5806,-18.70153 20.6777,-26.29883 18.2142,-15.21128 46.4288,-24.79683 76.0821,-25.44141 51.9253,-1.1287 116.0192,26.26917 198.2246,42.91016 41.3501,8.37059 88.0486,12.90476 137.0234,2.55078 50.035,-10.57811 100.257,-36.86834 133.7188,-84.89844 32.2122,-46.23622 40.81,-101.43698 31.4882,-152.71679 a 70.007,70.007 0 0 0 0,-0.002 c -9.1717,-50.4533 -34.7035,-93.60312 -67.2851,-127.29102 -64.3254,-66.50963 -148.3967,-92.15806 -221.4082,-108.68555 -65.7009,-14.87258 -134.7525,-24.70839 -205.2539,-23.4082 z M 924.23438,-403.07617 c 34.23237,20.93985 65.72615,46.42128 93.01362,75.60937 61.4853,65.76768 103.1534,151.4823 117.8809,240.855472 13.6194,82.6488305 2.8762,168.884957 -36.2715,234.855468 -19.5425,32.93247 -46.3289,61.27535 -77.1465,80.75391 -30.65369,19.37502 -66.60877,30.49984 -101.0566,30.86718 -34.42499,0.3671 -70.56828,-9.97644 -101.55078,-28.67968 C 787.95858,212.38424 760.68295,184.62382 740.63477,152.14844 700.48771,87.115559 688.62551,1.1712953 701.78125,-81.046875 720.28814,-196.70759 787.01329,-306.30787 881.33203,-375.52148 c 13.68164,-10.03996 28.06464,-19.16632 42.90235,-27.55469 z"
       id="path4139-1-0-4-2-1"
       inkscape:connector-curvature="0" />
    <path
       style="fill:none;fill-rule:evenodd;stroke:#000000;stroke-width:140;stroke-linecap:round;stroke-linejoin:round;stroke-miterlimit:4;stroke-dasharray:none;stroke-opacity:1"
       d="M 435.65788,1442.0897 C 328.38237,1385.9261 244.78579,1286.1188 208.30964,1170.6551 171.8335,1055.1914 182.92052,925.47261 238.46178,817.87357 286.35669,725.08766 366.34848,649.473 461.18067,605.76941 c 94.8322,-43.70359 203.86889,-55.43094 306.08076,-34.07953 102.21187,21.3514 197.13107,75.48738 268.44067,151.76374 71.3097,76.27637 118.8387,174.24942 135.8165,277.27808 15.7969,95.8626 4.438,198.4071 -45.1427,281.9591 -24.7904,41.776 -58.8815,78.2493 -99.9445,104.2036 -41.06299,25.9543 -89.13482,41.1743 -137.70979,41.6923 -48.54646,0.5177 -96.91031,-13.6594 -138.47345,-38.7499 -41.56314,-25.0904 -76.35318,-60.8804 -101.85611,-102.1918 -51.00586,-82.6226 -63.75183,-185.1482 -48.41025,-281.027 21.50439,-134.39387 97.52929,-259.32812 207.25797,-339.84998 109.72867,-80.52186 251.89153,-115.57101 386.41143,-94.86955 60.1578,9.25778 118.8571,29.41361 170.7592,61.20731 51.9022,31.79371 96.6362,75.28645 129.4988,126.51845 32.8627,51.23201 53.5425,109.77796 63.7149,169.78793 10.1724,60.00996 9.8793,121.23974 8.9356,182.09844 l -5.1675,333.2423 4.1251,-332.3415 c 1.0486,-84.485 3.8792,-170.1151 28.6084,-250.9067 24.7292,-80.7916 71.4539,-155.33133 136.4563,-209.30831 65.0023,-53.97698 146.5413,-86.49538 230.3069,-97.54734 83.7656,-11.05196 169.1514,-1.61038 251.5579,17.04382 68.1863,15.4352 137.942,38.82482 186.5449,89.07802 24.3014,25.1266 42.4791,56.75437 48.7311,91.1465 6.2519,34.39212 -0.07,71.50158 -20.0521,100.18308 -20.8563,29.93657 -55.0663,48.88049 -90.7627,56.42721 -35.6963,7.54671 -72.8963,4.56584 -108.6563,-2.67313 -71.5201,-14.47794 -140.68,-45.87098 -213.6335,-44.28518 -42.9681,0.934 -86.4443,14.1473 -119.4319,41.69642 -16.4938,13.77455 -30.1928,30.99677 -39.2644,50.47729 -9.0715,19.48052 -13.4461,41.22174 -11.9114,62.65602 1.8,25.1404 11.7108,49.4265 26.8207,69.6 15.11,20.1734 35.2768,36.3134 57.5906,48.0341 44.6275,23.4412 96.569,29.0693 146.9644,27.8799 50.3954,-1.1894 100.4813,-8.7483 150.8781,-9.8791 50.3968,-1.1308 102.3392,4.6218 146.8847,28.2186 23.7745,12.5939 45.1223,30.304 60.0547,52.6839 14.9323,22.3799 23.1695,49.5696 20.9624,76.3831 -2.2483,27.3136 -15.2443,53.2059 -34.1038,73.0907 -18.8595,19.8848 -43.3153,33.9794 -69.278,42.7559 -51.9253,17.553 -108.2945,14.226 -162.9607,10.2315 -102.6987,-7.5043 -205.2772,-16.653 -307.683,-27.4416"
       id="path4139-1-0-4-2-1-6"
       inkscape:path-effect="#path-effect4141-3-4-6-8-86-9"
       inkscape:original-d="M 435.65788,1442.0897 C -125.80884,1252.5225 93.081189,980.59776 238.46178,817.87357 c 211.1576,-236.3482 810.62562,-109.475 933.05682,182.85813 66.0398,157.6856 -111.8464,426.4836 -282.79699,427.855 -170.428,1.3673 -317.46137,-253.9727 -288.73981,-421.9687 41.33336,-241.76393 351.81071,-475.49473 593.6694,-434.71953 215.6003,36.3483 375.0707,312.1391 372.9085,539.61213 l -5.1675,333.2423 4.1251,-332.3415 c 2.933,-236.29733 367.579,-571.56573 646.9295,-540.71853 117.1156,12.9325 266.1161,174.1377 215.2239,280.4076 -59.4843,124.21152 -285.1533,-41.6063 -413.0525,9.4689 -71.3199,28.4809 -187.2417,79.85641 -170.6077,154.82973 39.9933,180.2592 382.7388,51.337 529.1385,163.8535 40.2752,30.9538 95.2532,80.3067 81.0171,129.067 -27.5287,94.2889 -169.6445,108.8233 -266.3425,126.0781 -101.3669,18.088 -307.683,-27.4416 -307.683,-27.4416"
       inkscape:connector-curvature="0"
       sodipodi:nodetypes="caaaaascsaaaaaaac" />
    <path
       style="fill:none;fill-rule:evenodd;stroke:#000000;stroke-width:70;stroke-linecap:round;stroke-linejoin:round;stroke-miterlimit:4;stroke-dasharray:none;stroke-opacity:1"
       d="m -2435.742,373.22422 c -116.1381,-60.55936 -206.6424,-168.53643 -245.9797,-293.468717 -39.3373,-124.932283 -27.024,-265.283453 33.4662,-381.457623 51.898,-99.67256 138.2073,-180.77869 240.3711,-227.58253 102.1637,-46.80385 219.502,-59.24002 329.4848,-36.17906 109.9828,23.06095 212.1126,81.30257 288.934,163.3178 76.8214,82.01522 128.1542,187.33062 146.7429,298.157 17.3695,103.5577671 5.3805,214.4402 -48.0511,304.83363 -26.7158,45.19671 -63.5172,84.66706 -107.8814,112.74375 -44.3641,28.07668 -96.3313,44.52473 -148.831,45.0358 -52.4301,0.51039 -104.645,-14.88313 -149.4834,-42.06204 -44.8384,-27.1789 -82.3319,-65.9102 -109.7865,-110.58029 -54.9094,-89.34017 -68.478,-200.0601771 -51.8981,-303.60636 23.219,-145.00905 104.8826,-279.95508 223.0686,-367.12627 118.186,-87.17118 271.582,-125.3432 416.7146,-102.9091 64.9516,10.03999 128.2992,31.94115 184.2596,66.40762 55.9604,34.46648 104.1358,81.55884 139.5005,136.95597 35.3647,55.39714 57.5899,118.64296 68.5197,183.45071 10.9299,64.80775 10.6104,130.919853 9.5947,196.634956 l -5.5688,360.314314 4.4455,-359.340334 c 1.1275,-91.138838 4.1669,-183.505786 30.7627,-270.685026 26.5959,-87.17923 76.8549,-167.66132 146.846,-226.04638 69.991,-58.38506 157.85281,-93.70433 248.18637,-105.84547 90.33356,-12.14114 182.47792,-2.14456 271.38527,17.93133 73.6905,16.63982 149.06529,41.99335 201.48645,96.39183 26.21058,27.19924 45.77752,61.42433 52.43632,98.60569 6.65881,37.18136 -0.2914,77.26503 -21.98115,108.1899 -22.56807,32.17716 -59.44595,52.50398 -97.90676,60.59432 -38.46082,8.09033 -78.5266,4.87423 -117.05119,-2.90675 -77.04919,-15.56196 -151.59465,-49.26166 -230.17879,-47.44944 -46.37442,1.06944 -93.27702,15.41132 -128.8287,45.20742 -17.77584,14.89806 -32.52841,33.51209 -42.28358,54.55417 -9.75518,21.04208 -14.43821,44.51457 -12.74755,67.64624 1.9799,27.088981 12.67973,53.247317 28.96863,74.982182 16.28891,21.7348656 38.01483,39.131309 62.05267,51.777071 48.07567,25.291523 104.03308,31.432846 158.34243,30.238576 54.30934,-1.19427 108.29667,-9.242149 162.60717,-10.382616 54.31051,-1.140466 110.26864,5.115158 158.26894,30.549451 25.69084,13.613006 48.75996,32.759456 64.86798,56.964106 16.10802,24.20465 24.94753,53.6216 22.4422,82.58807 -2.54106,29.37953 -16.64681,57.17571 -37.01537,78.50024 -20.36855,21.32453 -46.71395,36.41662 -74.65455,45.84722 -55.88121,18.8612 -116.48842,15.50503 -175.36098,11.97299 -110.51929,-6.63057 -221.04693,-13.12184 -331.58258,-19.47381"
       id="path4139-1-0-4-2-1-6-4"
       inkscape:path-effect="#path-effect4141-3-4-6-8-86-9-0"
       inkscape:original-d="m -2435.742,373.22422 c -605.0793,-204.9673 -369.1867,-498.98271 -212.5135,-674.92634 227.5594,-255.5487 873.5916,-118.36855 1005.5328,197.71321 71.1694,170.495693 -120.5342,461.13037 -304.7635,462.61318 -183.6662,1.47837 -342.1205,-274.604995 -311.168,-456.24869 44.544,-261.40441 379.1379,-514.12308 639.7832,-470.03537 232.3472,39.30117 404.2047,337.49672 401.8745,583.449256 l -5.5688,360.314314 4.4455,-359.340334 c 3.1608,-255.493706 396.13103,-617.998716 697.18034,-584.645546 126.21266,13.98311 286.78692,188.28434 231.94162,303.18742 -64.1048,134.30224 -307.30285,-44.98632 -445.13674,10.23813 -76.85974,30.79464 -201.78589,86.34381 -183.85983,167.40783 43.09982,194.90313 412.46841,55.507523 570.23984,177.164664 43.40361,33.468426 102.65209,86.830676 87.31018,139.552176 -29.66701,101.94876 -183.07802,116.07113 -287.0309,136.32045 -108.67825,21.1698 -331.58258,-19.47381 -331.58258,-19.47381"
       inkscape:connector-curvature="0"
       sodipodi:nodetypes="caaaaascsaaaaaaac" />
    <path
       style="color:#000000;font-style:normal;font-variant:normal;font-weight:normal;font-stretch:normal;font-size:medium;line-height:normal;font-family:sans-serif;text-indent:0;text-align:start;text-decoration:none;text-decoration-line:none;text-decoration-style:solid;text-decoration-color:#000000;letter-spacing:normal;word-spacing:normal;text-transform:none;direction:ltr;block-progression:tb;writing-mode:lr-tb;baseline-shift:baseline;text-anchor:start;white-space:normal;clip-rule:nonzero;display:inline;overflow:visible;visibility:visible;opacity:1;isolation:auto;mix-blend-mode:normal;color-interpolation:sRGB;color-interpolation-filters:linearRGB;solid-color:#000000;solid-opacity:1;fill:#000000;fill-opacity:1;fill-rule:evenodd;stroke:none;stroke-width:70;stroke-linecap:round;stroke-linejoin:round;stroke-miterlimit:4;stroke-dasharray:none;stroke-dashoffset:0;stroke-opacity:1;color-rendering:auto;image-rendering:auto;shape-rendering:auto;text-rendering:auto;enable-background:accumulate"
       d="m -376.66016,1067.3809 c -23.94878,0.487 -47.95884,2.2345 -71.94922,5.4589 -96.24544,12.9357 -190.22003,50.4915 -265.94335,113.6582 -71.62987,59.7522 -123.45271,140.0729 -152.9375,227.3633 -12.57685,-36.1077 -28.92347,-71.04 -49.74024,-103.6484 -38.28117,-59.9656 -90.20403,-110.6957 -150.64843,-147.9238 -60.3657,-37.1798 -128.1173,-60.5063 -197.2676,-71.1953 -112.0789,-17.3248 -228.0065,-0.7529 -331.2871,44.9023 -40.279,-18.8751 -82.7083,-33.2109 -126.4043,-42.3731 -117.3497,-24.6055 -241.9911,-11.4372 -351.2461,38.6153 -109.2971,50.0719 -201.1888,136.3654 -256.8359,243.2383 -64.9245,124.6904 -78.0276,274.0422 -35.8067,408.1328 42.2211,134.0905 138.5281,248.9934 263.1797,313.9922 a 35.0035,35.0035 0 1 0 32.3653,-62.0704 c -107.6246,-56.12 -192.3236,-157.1712 -228.7774,-272.9453 -36.4536,-115.774 -24.9309,-247.1232 31.125,-354.7812 48.1489,-92.4722 128.876,-168.3919 223.9063,-211.9277 95.0724,-43.5552 205.1087,-55.2604 307.7246,-33.7442 20.5302,4.3048 40.7753,9.9951 60.6347,16.8652 -10.6681,6.8364 -21.2003,13.8924 -31.414,21.4258 -125.8743,92.8418 -212.1449,235.4473 -236.8535,389.7598 -17.6671,110.336 -3.6766,229.3278 56.6406,327.4668 30.1721,49.0917 71.414,91.8495 121.4609,122.1855 50.129,30.3859 108.4608,47.7082 167.9668,47.1289 59.5841,-0.58 117.6259,-19.0805 167.2071,-50.4589 49.4985,-31.3261 89.9567,-74.8766 119.2949,-124.5098 58.6445,-99.2124 70.9177,-218.263 52.4394,-328.4316 -19.7292,-117.626 -73.9938,-229.0468 -155.7168,-316.295 -30.5334,-32.5977 -64.7672,-61.6281 -101.7832,-86.5019 77.702,-25.1926 161.1607,-32.9126 241.4864,-20.4961 60.7529,9.391 119.6968,29.8659 171.2519,61.6191 51.4766,31.7049 95.9053,75.1597 128.35352,125.9883 32.44217,50.8191 53.25284,109.6199 63.50977,170.4375 6.98411,41.4117 8.98921,84.3432 9.3418,128.1309 -0.71119,21.2301 -1.09716,42.3443 -1.35547,63.2246 l -4.43945,358.7949 -0.006,0.4375 0.002,0 -0.002,0.1094 a 35.0035,35.0035 0 0 0 69.99218,0.9726 l 0.002,-0.1074 0.002,-0.096 5.56445,-360.1113 c 0.31618,-20.4577 0.42401,-41.1925 0.29493,-62.0391 2.44666,-68.71 8.79614,-135.621 27.82617,-198 24.75919,-81.1587 71.61845,-155.853 135.78906,-209.3828 64.25874,-53.6032 146.00799,-86.6867 230.42969,-98.0332 84.70565,-11.3848 172.73947,-2.0985 259.01367,17.3828 71.24147,16.0868 139.432811,40.2989 183.9921862,86.5391 22.0702688,22.9027 37.9690788,51.3496 43.1874998,80.4883 5.144332,28.7249 -0.639627,59.7615 -16.183594,81.9238 -16.25451,23.1754 -45.142336,39.8543 -76.457031,46.4414 -31.840849,6.6978 -67.174841,4.2544 -102.917971,-2.9649 -71.7319,-14.4879 -148.82171,-50.1873 -237.91406,-48.1328 -53.04104,1.2232 -107.57503,17.3941 -150.50391,53.3731 -21.46921,17.9934 -39.44893,40.5459 -51.55468,66.6582 -12.13493,26.1751 -18.06099,55.3832 -15.90235,84.918 2.52874,34.5983 15.90937,66.7888 35.86914,93.4218 19.87085,26.5144 45.71104,47.0038 73.76368,61.7617 55.91325,29.4147 117.93397,35.5197 175.4082,34.2559 57.25483,-1.2591 111.23036,-9.3047 162.57226,-10.3828 51.12019,-1.0735 100.992321,5.2076 141.146488,26.4844 21.3530765,11.3145 39.831777,26.9671 52.117188,45.4277 12.133684,18.2327 18.431972,40.2832 16.710937,60.1816 -1.746195,20.1894 -12.004659,41.1663 -27.455078,57.3418 -15.6537701,16.3885 -37.002436,28.9153 -60.539063,36.8594 -47.42385,16.0067 -103.308082,13.7227 -162.070312,10.1973 -110.54867,-6.6324 -221.10688,-13.1249 -331.67188,-19.4785 a 35.0035,35.0035 0 1 0 -4.01562,69.8847 c 110.50632,6.3503 221.00423,12.8399 331.49414,19.4688 58.98289,3.5386 124.311832,7.9677 188.650391,-13.7481 32.34458,-10.917 63.688139,-28.5734 88.771485,-54.834 25.286694,-26.4734 43.240244,-61.0904 46.576174,-99.6601 3.28964,-38.0345 -8.09342,-74.8174 -28.175784,-104.9942 -19.930641,-29.9486 -47.588567,-52.5885 -77.617187,-68.5 -55.846445,-29.5917 -117.889789,-35.8227 -175.390629,-34.6152 -57.27912,1.2027 -111.27868,9.2533 -162.64257,10.3828 -51.14447,1.1246 -101.03924,-5.0523 -141.27735,-26.2207 -20.02304,-10.5337 -37.63482,-24.8376 -50.34179,-41.7929 -12.61805,-16.8368 -20.63732,-36.9633 -22.06836,-56.543 -1.22268,-16.7287 2.21829,-34.4642 9.59375,-50.3731 7.4046,-15.9718 18.92923,-30.6486 33.01171,-42.4511 28.17453,-23.6133 67.44651,-36.1254 107.1543,-37.041 68.07591,-1.5699 140.07691,30.1297 222.44336,46.7656 41.30603,8.3428 86.102822,12.3324 131.183594,2.8496 45.606927,-9.5935 90.475776,-33.5691 119.357422,-74.7481 27.835564,-39.6874 35.952564,-88.8191 27.779294,-134.457 -8.09908,-45.2237 -31.335142,-85.2252 -61.685544,-116.7207 -60.2829469,-62.5568 -142.840932,-89.0533 -218.980466,-106.2461 -68.65539,-15.5029 -139.96226,-25.4006 -211.8086,-23.9394 z m -1220.81834,146.6894 c 48.5734,26.5439 93.0642,60.7148 130.8476,101.0527 71.9199,76.7823 120.3214,175.9928 137.7696,280.0196 16.2607,96.9469 4.5546,199.6599 -43.6641,281.2344 -24.0934,40.7602 -57.2389,76.1511 -96.4687,100.9785 -39.1471,24.775 -85.0398,39.1711 -130.4551,39.6133 -45.3542,0.4415 -91.4522,-13.0222 -131,-36.9942 -39.6299,-24.0217 -73.3723,-58.728 -98.1094,-98.9766 -49.5016,-80.5414 -62.6509,-182.9896 -47.1582,-279.746 21.7293,-135.7056 98.7874,-262.9938 209.2852,-344.4942 21.7585,-16.0486 44.8772,-30.258 68.9531,-42.6875 z"
       id="path4139-1-0-4-2-1-6-4-5"
       inkscape:connector-curvature="0" />
  </g>
</svg>
