<?xml version="1.0" encoding="UTF-8" standalone="no"?>
<!-- Created with Inkscape (http://www.inkscape.org/) -->

<svg
   xmlns:dc="http://purl.org/dc/elements/1.1/"
   xmlns:cc="http://creativecommons.org/ns#"
   xmlns:rdf="http://www.w3.org/1999/02/22-rdf-syntax-ns#"
   xmlns:svg="http://www.w3.org/2000/svg"
   xmlns="http://www.w3.org/2000/svg"
   xmlns:sodipodi="http://sodipodi.sourceforge.net/DTD/sodipodi-0.dtd"
   xmlns:inkscape="http://www.inkscape.org/namespaces/inkscape"
   width="2000"
   height="2000"
   id="svg2992"
   version="1.1"
   inkscape:version="0.91 r13725"
   sodipodi:docname="ത്ഭൂ.svg">
  <defs
     id="defs5498">
    <inkscape:path-effect
       effect="spiro"
       id="path-effect2987"
       is_visible="true" />
    <inkscape:path-effect
       effect="spiro"
       id="path-effect4141-3-4-6-8-86-9-7"
       is_visible="true" />
    <inkscape:path-effect
       effect="spiro"
       id="path-effect4141-3-4-6-8-86-9-7-0"
       is_visible="true" />
    <inkscape:path-effect
       effect="spiro"
       id="path-effect4141-3-4-6-8-86-9-7-1"
       is_visible="true" />
    <inkscape:path-effect
       effect="spiro"
       id="path-effect4141-3-4-6-8-86-9-7-1-1"
       is_visible="true" />
  </defs>
  <sodipodi:namedview
     inkscape:window-height="704"
     inkscape:window-width="1366"
     inkscape:pageshadow="2"
     inkscape:pageopacity="0.0"
     borderopacity="1.0"
     bordercolor="#666666"
     pagecolor="#ffffff"
     id="base"
     showgrid="true"
     showguides="true"
     inkscape:guide-bbox="true"
     inkscape:zoom="0.32102648"
     inkscape:cx="-2749.993"
     inkscape:cy="-394.60449"
     inkscape:window-x="-4"
     inkscape:window-y="0"
     inkscape:current-layer="layer1"
     inkscape:window-maximized="1"
     inkscape:snap-nodes="false"
     inkscape:snap-grids="false">
    <sodipodi:guide
       orientation="horizontal"
       position="0,600"
       id="guide5596" />
    <inkscape:grid
       type="xygrid"
       id="grid3769"
       empspacing="5"
       visible="true"
       enabled="true"
       snapvisiblegridlinesonly="true" />
    <sodipodi:guide
       orientation="0,1"
       position="-2720,1600"
       id="guide4772" />
  </sodipodi:namedview>
  <metadata
     id="metadata5594">
    <rdf:RDF>
      <cc:Work
         rdf:about="">
        <dc:format>image/svg+xml</dc:format>
        <dc:type
           rdf:resource="http://purl.org/dc/dcmitype/StillImage" />
        <dc:title />
      </cc:Work>
    </rdf:RDF>
  </metadata>
  <g
     inkscape:label="Layer 1"
     inkscape:groupmode="layer"
     id="layer1"
     transform="translate(0,1000)">
    <path
       style="fill:none;fill-rule:evenodd;stroke:#000000;stroke-width:140;stroke-linecap:round;stroke-linejoin:round;stroke-miterlimit:4;stroke-dasharray:none;stroke-opacity:1"
       d="M 311.87583,352.76832 C 192.72227,295.78806 99.77338,186.46862 62.696583,59.702566 25.619787,-67.06349 45.010545,-209.24026 114.67972,-321.44778 c 54.16819,-87.24201 137.4494,-155.82501 232.99561,-193.45854 95.54621,-37.63354 202.80535,-44.32037 302.5991,-20.10118 99.79374,24.21919 191.74815,79.05959 261.44718,154.47448 69.69903,75.41489 117.02629,171.02361 136.01499,271.94334 18.4921,98.280648 9.3417,204.172059 -40.0966,291.10248 -24.71912,43.46522 -59.25902,81.57976 -101.24306,108.73856 -41.98405,27.15881 -91.45695,43.12187 -141.45738,43.58896 -49.92276,0.46636 -99.61442,-14.52386 -142.03255,-40.85258 -42.41812,-26.32873 -77.59876,-63.75797 -103.00506,-106.73492 -50.81261,-85.95392 -61.44137,-191.6947194 -43.7022,-289.9562 24.10038,-133.49778 99.963,-257.28227 209.0581,-337.90946 109.0951,-80.6272 250.44157,-116.83393 384.61135,-96.81005 60.2269,8.98844 119.0101,29.06339 170.9467,60.85441 51.9365,31.79103 96.6561,75.35317 129.4795,126.64351 32.8234,51.29033 53.4465,109.88419 63.5863,169.92801 10.1397,60.04382 9.8402,121.299458 8.896,182.186094 l -5.1675,333.242386 4.1251,-332.341586 c 0.9271,-74.691274 3.2479,-150.197774 23.0187,-222.230824 19.7708,-72.03305 57.001,-139.62621 109.9445,-192.32 52.9435,-52.69378 120.425,-89.79397 192.148,-110.66153 71.723,-20.86757 147.2015,-26.11345 221.873,-24.1611 82.6019,2.1597 168.8064,14.24995 236.1506,62.12997 33.6721,23.94001 61.6237,56.74341 76.4391,95.31076 14.8153,38.56736 15.7653,82.97812 -0.8006,120.82661 -13.9698,31.91712 -39.6105,57.90893 -69.455,75.88571 -29.8444,17.97678 -63.7691,28.34827 -98.0994,34.28883 -68.6605,11.88112 -139.3903,6.60371 -208.118,18.08966 -41.4202,6.92225 -82.7303,20.41906 -115.6193,46.531499 -16.4446,13.056221 -30.5764,29.188129 -40.4041,47.743593 -9.8276,18.555464 -15.2611,39.5680996 -14.5843,60.554522 0.6687,20.734121 7.2931,41.121174 18.1244,58.813917 10.8313,17.692744 25.7871,32.722509 42.8891,44.464379 34.2041,23.48373 76.1604,33.52114 117.5899,35.75835 82.8588,4.4744 165.9491,-20.30749 248.27,-9.87316 41.9686,5.3196 83.5631,20.36205 115.3421,48.28622 15.8895,13.96208 29.1478,31.03333 37.9948,50.24651 8.8471,19.21317 13.211,40.58022 11.7854,61.68433 -1.7651,26.13011 -12.3896,51.30496 -28.3733,72.05153 -15.9836,20.74658 -37.1567,37.18892 -60.353,49.34748 -46.3925,24.31713 -99.6571,31.49983 -151.8151,36.31004 -118.3991,10.91923 -237.7401,11.6057 -356.257,2.04928 l 355.802,-5.91396 c 53.176,-0.88386 108.3928,-0.4311 156.4381,22.37498 24.0226,11.40304 45.7183,28.23015 61.1399,49.89324 15.4216,21.6631 24.3178,48.23337 23.2783,74.80471 -0.9542,24.38985 -10.1958,48.12799 -24.5791,67.84843 -14.3833,19.72044 -33.7487,35.53919 -55.1588,47.26031 -42.8201,23.44222 -92.6926,30.70433 -141.4901,32.0852 -97.595,2.76173 -195.1056,-7.94132 -292.7384,-7.44927 L 620.76952,751.2251 C 442.98622,752.12109 260.3733,743.8696 97.858726,671.78136 -64.655851,599.69311 -199.65566,468.3569 -277.50763,308.52332 c -66.00639,-135.51407 -92.5018,-289.989201 -75.42604,-439.75343 17.07575,-149.76423 77.66483,-294.3102 172.48248,-411.4875"
       id="path4139-1-0-4-2-1-6-2"
       inkscape:path-effect="#path-effect4141-3-4-6-8-86-9-7"
       inkscape:original-d="m 311.87583,352.76832 c 0,0 -357.705552,-503.73179 -197.19611,-674.2161 218.67662,-232.26631 811.95168,-82.27001 933.05688,212.8581 66.553,162.186674 -107.4917,442.0629 -282.79704,443.43 -174.73742,1.3626 -319.63152,-265.553286 -288.73981,-437.5437 43.36012,-241.40871 351.81067,-475.49471 593.66945,-434.71951 215.6003,36.3483 375.0707,312.13911 372.9085,539.612024 l -5.1675,333.242386 4.1251,-332.341586 c 2.933,-236.297214 288.6817,-541.760434 546.9842,-549.373454 139.2414,-4.1039 339.439,141.73711 311.7891,278.26734 -26.2644,129.68898 -261.7044,61.0306 -375.6724,128.2642 -66.1443,39.0207 -187.4843,79.910614 -170.6077,154.829614 32.6696,145.028186 298.7626,53.744151 426.8734,129.163486 66.0899,38.90737 172.3968,83.87089 165.1223,160.21706 -9.0942,95.44515 -144.3724,159.80544 -240.5414,157.70905 -83.1204,-1.81194 -310.719,2.2033 -356.257,2.04928 l 355.802,-5.91396 c 115.731,-1.92363 254.1097,53.94141 240.8563,147.07293 -25.0137,175.77096 -292.4096,138.62807 -513.9664,139.74467 L 620.76952,751.2251 c -55.6709,0.28057 -738.33038,-149.70197 -898.27715,-442.70178 -136.83802,-250.667836 97.05644,-851.24093 97.05644,-851.24093"
       inkscape:connector-curvature="0"
       sodipodi:nodetypes="caaaaascsaaaaaascsassac" />
    <path
       style="color:#000000;font-style:normal;font-variant:normal;font-weight:normal;font-stretch:normal;font-size:medium;line-height:normal;font-family:sans-serif;text-indent:0;text-align:start;text-decoration:none;text-decoration-line:none;text-decoration-style:solid;text-decoration-color:#000000;letter-spacing:normal;word-spacing:normal;text-transform:none;direction:ltr;block-progression:tb;writing-mode:lr-tb;baseline-shift:baseline;text-anchor:start;white-space:normal;clip-rule:nonzero;display:inline;overflow:visible;visibility:visible;opacity:1;isolation:auto;mix-blend-mode:normal;color-interpolation:sRGB;color-interpolation-filters:linearRGB;solid-color:#000000;solid-opacity:1;fill:#000000;fill-opacity:1;fill-rule:evenodd;stroke:none;stroke-width:140;stroke-linecap:round;stroke-linejoin:round;stroke-miterlimit:4;stroke-dasharray:none;stroke-dashoffset:0;stroke-opacity:1;color-rendering:auto;image-rendering:auto;shape-rendering:auto;text-rendering:auto;enable-background:accumulate"
       d="m 997.01758,1347.3027 c -72.98262,-0.7616 -146.0733,12.2715 -214.5332,39.2364 -109.62246,43.1778 -204.3561,121.0732 -266.8125,221.664 -80.57658,129.7747 -102.57881,291.1122 -59.69727,437.7246 42.88152,146.6126 148.35589,270.6653 286.16406,336.5664 34.99026,17.3575 77.41669,2.7249 94.26745,-32.5122 16.85076,-35.237 1.60755,-77.4479 -33.86901,-93.7885 -100.49895,-48.0595 -180.9213,-142.6468 -212.19336,-249.5664 -31.27206,-106.9196 -14.49421,-229.9339 44.26758,-324.5743 45.87997,-73.8932 117.70973,-133.1647 199.17969,-165.2539 74.71545,-29.4288 159.12653,-36.773 238.69728,-21.8086 -106.8576,90.9818 -179.78948,218.3884 -204.71291,356.4453 -20.16746,111.7125 -9.10461,234.0936 52.33008,338.0157 30.75159,52.019 73.40795,97.7265 126.34763,130.5859 53.1153,32.9684 115.2361,51.9764 179.6035,51.375 64.4659,-0.6022 126.2845,-20.8247 178.8223,-54.8105 52.361,-33.8714 94.1941,-80.3715 124.0723,-132.9082 59.6795,-104.9382 68.9986,-227.2682 48.041,-338.6524 -21.4115,-113.7961 -74.4063,-221.0375 -153.4004,-306.5098 -12.4745,-13.4974 -25.6251,-26.3308 -39.2637,-38.6074 45.0618,-7.4136 91.0397,-8.2001 135.6719,-1.539 51.7542,7.7239 101.6638,24.9613 144.7324,51.3242 42.9117,26.2669 80.1012,62.5404 107.0645,104.6738 26.9522,42.1159 44.7355,91.8014 53.5254,143.8516 5.9447,35.2025 7.7533,72.7634 8.1093,111.9472 -0.6829,19.8724 -0.9905,39.4419 -1.2285,58.6153 l -4.1191,331.8867 0,0.2383 0,0.2168 c 0.01,38.2781 30.756,69.4537 69.0304,69.9877 38.2743,0.534 69.8813,-29.7716 70.956,-68.0346 l 5.1679,-333.2422 c 0.287,-18.5048 0.4107,-37.4985 0.3203,-56.7148 2.0215,-52.4512 6.7723,-102.0094 19.168,-147.1719 16.7924,-61.1816 48.4614,-118.08 91.8203,-161.2344 43.5082,-43.303 100.6618,-75.122 162.3242,-93.0625 62.0958,-18.0666 130.3221,-23.233 200.4864,-21.3984 77.0504,2.0145 148.5321,14.4471 197.4199,49.2051 23.9706,17.0424 42.6449,39.9029 51.6562,63.3613 8.724,22.7104 8.5229,49.1363 0.4161,67.6582 -6.9517,15.8826 -21.967,32.2575 -41.4454,43.9902 -19.9542,12.0194 -45.4414,20.3479 -73.9179,25.2754 -57.2703,9.9102 -127.8534,4.6759 -207.7207,18.0234 -48.5478,8.1134 -101.5626,24.1944 -147.6075,60.752 -23.1405,18.3725 -43.772,41.549 -58.7363,69.8027 -15.0633,28.4409 -23.8038,61.0199 -22.6894,95.5743 1.1013,34.1426 11.6912,65.8306 28.3886,93.1054 l 0,0 c 16.596,27.1094 38.5893,48.8833 62.9707,65.6231 48.5515,33.3342 103.2899,45.2413 153.4355,47.9492 99.2714,5.3607 180.4672,-18.283 243.2422,-10.3262 31.3613,3.9751 59.5481,15.2653 77.9395,31.4258 9.1403,8.0316 16.2943,17.5514 20.6172,26.9395 4.2579,9.2469 6.0914,19.3393 5.5273,27.6894 -0.6958,10.301 -5.5566,23.1078 -13.9844,34.0469 -8.6562,11.2358 -21.6723,21.8273 -37.3984,30.0703 -23.48,12.3073 -53.3873,19.4661 -87.5195,24.2441 -11.4325,-0.025 -22.8284,0.033 -33.4161,0.209 l -355.8027,5.9141 c -37.2816,0.6957 -67.475,30.4914 -68.6651,67.7605 -1.1901,37.2691 27.0409,68.9304 64.2022,72.0032 l 368.3125,-2.1172 c 10.4287,-0.06 21.326,-2.1764 32.2735,-3.4493 35.3055,1.0111 65.2041,5.021 87.2636,15.4922 14.672,6.9645 26.7657,16.9059 34.1309,27.252 7.1147,9.9941 10.7158,22.311 10.3574,31.4726 -0.3333,8.5207 -4.1518,19.6896 -11.1875,29.336 -7.258,9.9511 -18.483,19.5877 -32.2187,27.1074 -28.0799,15.3725 -66.6466,22.2909 -109.8555,23.5137 -91.1654,2.5797 -188.1279,-7.9937 -291.1113,-7.4746 l 0,0 -1211.3477,6.1055 c -175.37583,0.8838 -347.61609,-8.4216 -494.17382,-73.4317 -146.84268,-65.1365 -270.30624,-185.1592 -340.81836,-329.9238 -60.06509,-123.3163 -84.34733,-264.8861 -68.8086,-401.1699 15.53875,-136.2837 71.06662,-268.7548 157.34961,-375.3848 24.77033,-30.0248 20.29322,-74.4894 -9.96549,-98.9735 -30.25871,-24.484 -74.67881,-19.5848 -98.87434,10.9051 -103.3523,127.7246 -169.004424,284.3472 -187.617184,447.5918 -18.612755,163.2448 10.097212,330.6241 82.044924,478.336 85.19182,174.9026 231.72762,317.5517 409.91406,396.5918 178.47139,79.1663 371.45576,86.3632 551.6465,85.455 l 1211.3496,-6.1035 c 92.2822,-0.4651 190.3408,10.3655 294.3652,7.4219 54.3861,-1.5391 115.5645,-9.1444 173.125,-40.6563 29.0843,-15.9224 56.591,-37.9224 78.0996,-67.4121 21.731,-29.7944 36.3937,-66.1023 37.9688,-106.3613 1.7206,-43.981 -12.4686,-84.8046 -36.1973,-118.1367 -10.6044,-14.8964 -22.8632,-27.807 -36.1289,-39.0508 10.584,-9.4444 20.5545,-19.9528 29.5996,-31.6934 23.5397,-30.5539 39.9274,-68.0955 42.7617,-110.0546 2.2871,-33.8575 -4.6072,-66.5009 -18.0429,-95.6797 l 0,0 c -13.3711,-29.0377 -32.7348,-53.6586 -55.3731,-73.5508 -45.1666,-39.6878 -100.1682,-58.4824 -152.7441,-65.1465 -101.867,-12.9117 -186.8526,13.0061 -253.2988,9.418 -32.7127,-1.7665 -61.8855,-9.9357 -81.7422,-23.5683 l 0,0 c -9.822,-6.7439 -17.7422,-15.0289 -22.8086,-23.3047 -4.9649,-8.1101 -7.6251,-17.1967 -7.8613,-24.5215 -0.2392,-7.4185 1.8886,-16.8652 6.4805,-25.5352 4.6911,-8.8573 12.3216,-17.9436 22.0703,-25.6836 19.7331,-15.6672 49.3401,-26.5814 83.6328,-32.3125 57.588,-9.6242 128.463,-4.304 208.5137,-18.1562 40.1841,-6.9535 82.5484,-19.3686 122.2832,-43.3028 40.2106,-24.2208 76.4749,-59.8277 97.4629,-107.7792 25.0249,-57.1751 22.9241,-119.5719 2.0175,-173.9961 -20.6194,-53.6765 -57.8469,-96.4222 -101.2207,-127.2598 -85.8006,-61.002 -186.7294,-72.7498 -274.8828,-75.0547 -79.1787,-2.0702 -161.9075,3.2552 -243.2578,26.9238 -81.7836,23.7947 -159.5939,66.1752 -221.9727,128.2598 -31.0973,30.9507 -57.3034,65.8778 -78.5996,103.3613 -5.4788,-10.1278 -11.1998,-20.1566 -17.4628,-29.9433 -38.6834,-60.4474 -90.9333,-111.298 -151.8946,-148.6133 -60.8044,-37.2191 -128.4605,-60.1299 -197.1601,-70.3828 -105.4254,-15.734 -213.3797,-1.3975 -310.9297,38.9004 -32.8978,-14.8404 -67.1994,-26.713 -102.4883,-35.2773 -42.6881,-10.3601 -86.439,-15.7833 -130.22852,-16.2403 z m 230.18552,208.8535 c 34.416,21.5928 66.0872,47.6554 93.5742,77.3965 60.404,65.3576 102.063,149.3337 118.6289,237.377 16.0267,85.1772 7.0448,174.63 -32.1523,243.5527 -19.56,34.3937 -46.8068,64.1241 -78.4141,84.5703 -31.4303,20.3318 -68.5568,32.0333 -104.0918,32.3653 -35.4781,0.3314 -72.7419,-10.6411 -104.4628,-30.3301 -31.8965,-19.798 -59.6012,-48.948 -79.6622,-82.8828 -40.1904,-67.9857 -50.38503,-157.0859 -35.0742,-241.8965 20.8818,-115.669 87.7466,-224.5584 181.7754,-294.0508 12.7586,-9.4293 26.1117,-18.0949 39.8789,-26.1016 z"
       id="path4139-1-0-4-2-1-6-2-8"
       inkscape:connector-curvature="0"
       sodipodi:nodetypes="cssscscssscsssssssscsssscscccscscsssssssssssssccsssssssscscscscssssssccsssscscsssssssssscssccsssccssssssssssssscssscscccsssssssssc" />
    <path
       style="fill:none;fill-rule:evenodd;stroke:#000000;stroke-width:70;stroke-linecap:round;stroke-linejoin:round;stroke-miterlimit:4;stroke-dasharray:none;stroke-opacity:1"
       d="m -3288.0599,390.0603 c -127.7098,-60.9164 -227.3435,-178.03642 -266.9997,-313.859797 -39.6562,-135.823378 -18.6936,-288.153753 56.1758,-408.216963 58.0535,-93.09656 147.1399,-166.21867 249.271,-206.2988 102.1311,-40.08013 216.7193,-47.1233 323.3267,-21.19972 106.6074,25.92358 204.8373,84.50978 279.34,165.04874 74.5027,80.53896 125.1554,182.62587 145.6009,290.41806 19.9551,105.2070315 10.3115,218.6171 -42.5415,311.74759 -26.4265,46.56524 -63.3867,87.40428 -108.333,116.49914 -44.9463,29.09486 -97.9269,46.18721 -151.4662,46.66108 -53.4352,0.47295 -106.613,-15.61639 -151.9883,-43.84105 -45.3752,-28.22466 -82.9873,-68.3288 -110.1331,-114.3576 -54.2915,-92.0576 -65.5629,-205.2311761 -46.5725,-310.405004 25.7873,-142.816886 106.7538,-275.320316 223.3537,-361.726906 116.6,-86.40659 267.8142,-125.32531 411.3431,-103.85209 64.453,9.64275 127.3457,31.19986 182.8857,65.29512 55.5399,34.09525 103.3323,80.78465 138.3973,135.71749 35.065,54.93284 57.0811,117.6563 67.9042,181.9216 10.8232,64.26531 10.501,129.820801 9.4923,194.983311 l -5.5247,356.898309 4.4102,-355.933564 c 0.9902,-79.912835 3.466,-160.694516 24.5763,-237.774966 21.1103,-77.08046 60.8664,-149.43285 117.4375,-205.8842 56.571,-56.45136 128.7074,-96.25848 205.4153,-118.6846 76.708,-22.42613 157.4645,-28.12051 237.3561,-26.02812 88.3757,2.31459 180.5992,15.36274 252.5889,66.67643 35.9949,25.65685 65.857,60.78731 81.6705,102.06488 15.8135,41.27758 16.8016,88.78574 -0.9231,129.27943 -14.939,34.12957 -42.3354,61.93712 -74.2307,81.19045 -31.8953,19.25334 -68.1577,30.38787 -104.8611,36.78006 -73.4069,12.78439 -149.036,7.20079 -222.5426,19.39879 -44.3747,7.36373 -88.6617,21.73533 -123.8898,49.70525 -17.6141,13.984963 -32.7369,31.285422 -43.207,51.190511 -10.4701,19.905088 -16.1879,42.4514708 -15.3013,64.924757 0.8719,22.101522 8.1185,43.783196 19.8331,62.544965 11.7147,18.761767 27.8084,34.639067 46.1534,46.996187 36.69,24.71425 81.4874,35.04714 125.6701,37.24604 88.3655,4.3978 177.2383,-21.69276 264.7172,-8.45476 44.2288,6.69305 87.5742,23.94174 120.8796,53.80361 33.3054,29.86187 55.6944,73.0545 55.654,117.7868 -0.026,28.80838 -9.2726,57.38038 -25.2031,81.38332 -15.9305,24.00295 -38.3755,43.40848 -63.7282,57.08934 -25.3527,13.68085 -53.495,21.69885 -82.0053,25.83192 -28.5104,4.13307 -57.4202,4.43374 -86.2281,4.59974 l -380.8773,2.19478 380.3909,-6.33382 c 53.8274,-0.89627 109.2256,-1.38554 159.3966,18.13531 25.0855,9.76043 48.4813,24.56441 66.3333,44.71029 17.8519,20.14589 29.9171,45.81419 31.7714,72.66768 1.8227,26.39582 -6.2765,53.03319 -20.7433,75.18661 -14.4668,22.15342 -35.0575,39.96484 -58.1059,52.95837 -46.0969,25.98706 -100.5445,32.99736 -153.4604,33.39811 -105.8316,0.80152 -211.3426,-12.41273 -317.176,-11.87841 l -1295.0622,6.53837 c -187.7619,0.94795 -380.2241,-6.77359 -553.3987,-79.34055 -173.1746,-72.56696 -320.2469,-206.24353 -406.9566,-372.78735 -74.9419,-143.94136 -105.8182,-310.453444 -87.4662,-471.69428 18.3521,-161.24084 85.8579,-316.55532 191.23,-439.97378"
       id="path4139-1-0-4-2-1-6-2-9"
       inkscape:path-effect="#path-effect4141-3-4-6-8-86-9-7-1"
       inkscape:original-d="m -3288.0599,390.0603 c 0,0 -382.4259,-539.49026 -210.8239,-722.07676 233.7888,-248.75423 868.064,-88.11012 997.5386,227.96828 71.1524,173.699837 -114.9203,473.44367 -302.3407,474.90781 -186.8131,1.45934 -341.7206,-284.404144 -308.6939,-468.603654 46.3566,-258.545616 376.1236,-509.248706 634.6968,-465.578996 230.5,38.92856 400.9911,334.29697 398.6795,577.917521 l -5.5247,356.898309 4.4102,-355.933564 c 3.1357,-253.071266 308.6319,-580.218436 584.7852,-588.371886 148.8642,-4.39522 362.897,151.79862 333.3363,298.02074 -28.0794,138.89522 -279.7902,65.36298 -401.6344,137.3693 -70.7154,41.790664 -200.441,85.583234 -182.3981,165.820518 34.9274,155.323322 319.4096,57.559292 456.3738,138.332432 70.6573,41.6693 184.3108,89.82465 176.5336,171.59041 -9.7227,102.22049 -154.3269,168.31172 -257.1647,168.90432 l -380.8773,2.19478 380.3909,-6.33382 c 123.7288,-2.06015 268.0775,39.09748 257.5013,135.51328 -20.6996,188.7025 -312.6174,148.46881 -549.4856,149.66468 l -1295.0622,6.53837 c -59.5182,0.30049 -788.0209,-143.11342 -960.3553,-452.1279 -148.9701,-267.119751 103.7638,-911.66806 103.7638,-911.66806"
       inkscape:connector-curvature="0"
       sodipodi:nodetypes="caaaaascsaaaaaascsassac" />
    <path
       style="color:#000000;font-style:normal;font-variant:normal;font-weight:normal;font-stretch:normal;font-size:medium;line-height:normal;font-family:sans-serif;text-indent:0;text-align:start;text-decoration:none;text-decoration-line:none;text-decoration-style:solid;text-decoration-color:#000000;letter-spacing:normal;word-spacing:normal;text-transform:none;direction:ltr;block-progression:tb;writing-mode:lr-tb;baseline-shift:baseline;text-anchor:start;white-space:normal;clip-rule:nonzero;display:inline;overflow:visible;visibility:visible;opacity:1;isolation:auto;mix-blend-mode:normal;color-interpolation:sRGB;color-interpolation-filters:linearRGB;solid-color:#000000;solid-opacity:1;fill:#000000;fill-opacity:1;fill-rule:evenodd;stroke:none;stroke-width:70;stroke-linecap:round;stroke-linejoin:round;stroke-miterlimit:4;stroke-dasharray:none;stroke-dashoffset:0;stroke-opacity:1;color-rendering:auto;image-rendering:auto;shape-rendering:auto;text-rendering:auto;enable-background:accumulate"
       d="m -4221.9062,850.2168 c -72.9675,-0.80383 -146.0615,12.136 -214.2618,38.90039 -109.1639,42.84005 -203.9774,120.60531 -266.1836,220.36131 -80.3505,128.853 -102.6336,290.778 -60.0742,436.5449 42.5594,145.767 148.4699,270.2646 285.5293,335.6407 a 35.0035,35.0035 0 1 0 30.1367,-63.1797 c -118.3602,-56.4568 -211.7177,-166.2003 -248.4707,-292.0801 -36.753,-125.8798 -17.1109,-268.6133 52.2774,-379.8867 53.9008,-86.4372 137.2591,-154.91812 232.3574,-192.2383 95.1417,-37.33724 202.6735,-43.99059 302.2715,-19.77149 18.7332,4.55533 37.21,10.20383 55.332,16.8711 -10.4044,6.72402 -20.6749,13.65786 -30.6406,21.04297 -124.1246,91.98282 -209.568,231.93052 -236.959,383.62892 -20.2008,111.8775 -8.7238,233.3609 50.8672,334.4043 29.8131,50.5515 71.1593,94.8001 121.7949,126.2969 50.7238,31.5515 110.1197,49.6579 170.7852,49.121 60.7832,-0.538 119.9461,-19.7643 170.1757,-52.2792 50.1408,-32.4573 90.749,-77.4969 119.754,-128.6055 57.9711,-102.149 67.6862,-223.7851 46.4882,-335.5449 -21.6638,-114.2156 -75.1505,-222.1054 -154.2949,-307.6622 -30.6265,-33.1078 -65.0059,-62.64984 -102.1836,-88.08979 77.2772,-25.92834 160.4459,-34.37269 240.5742,-22.38477 60.1989,9.00629 118.6481,29.13462 169.7539,60.50781 51.0282,31.32555 95.0632,74.36405 127.2071,124.72075 32.1386,50.3483 52.739,108.6244 62.8906,168.9023 6.9261,41.1253 8.9078,83.7681 9.2481,127.2695 -0.7421,20.9832 -1.0982,41.8243 -1.3536,62.4317 l -4.4082,355.8261 -0,0.1075 a 35.0035,35.0035 0 0 0 69.9941,0.9765 l 0,-0.1074 0,-0.094 5.5196,-356.6973 c 0.3112,-20.1041 0.4231,-40.4808 0.3046,-60.9668 2.1578,-57.8389 7.4022,-114.1316 21.92,-167.1406 19.627,-71.6647 56.612,-138.6729 108.4023,-190.3535 51.8639,-51.7542 118.8403,-88.91299 190.5137,-109.86723 71.8892,-21.01732 149.006,-26.66553 226.6191,-24.63282 85.5713,2.24114 170.4209,15.44853 233.1895,60.18946 31.1487,22.20259 56.3819,52.35709 69.3027,86.08399 a 35.0035,35.0035 0 0 0 0,0 c 12.7782,33.3545 13.1981,71.8788 -0.3027,102.7227 -11.4364,26.1275 -33.5338,49.1311 -60.2559,65.2617 -26.9584,16.2732 -59.0033,26.3797 -92.7773,32.2617 -67.7067,11.7917 -143.2346,6.2385 -222.2676,19.3536 -47.9198,7.9519 -98.0808,23.5984 -139.9238,56.8203 -20.9826,16.6594 -39.3755,37.5094 -52.42,62.3086 -13.0952,24.8959 -20.4554,53.2802 -19.2988,82.5976 1.1375,28.8333 10.4231,56.1663 25.1192,79.7031 14.6435,23.4524 34.2872,42.6692 56.2871,57.4883 43.8894,29.5637 95.038,40.7628 143.4843,43.1738 96.393,4.7974 183.9361,-20.5019 261.2207,-8.8066 38.7779,5.8681 75.6949,21 102.75,45.2578 26.6205,23.8681 44.0495,58.6621 44.0196,91.6953 -0.019,21.3401 -7.0607,43.521 -19.3653,62.0606 -12.3609,18.6244 -30.41,34.4305 -51.1875,45.6426 -20.8562,11.2544 -45.0181,18.3159 -70.4043,21.9961 -2.5595,0.371 -5.2195,0.5754 -7.8164,0.8828 -25.5592,-1.5395 -50.627,-1.1762 -74.4609,-0.7793 l -380.0098,6.3281 -0.3808,0.01 a 35.0035,35.0035 0 0 0 0.7851,69.9941 l 380.877,-2.1953 c 23.495,-0.1354 48.0985,-0.4346 73.4316,-2.9492 26.0464,1.888 50.5479,5.9897 72.586,14.5644 20.7934,8.0904 39.4001,20.1491 52.83,35.3047 13.2565,14.9599 21.8077,33.8916 23.0489,51.8652 1.2203,17.6728 -4.417,37.2323 -15.1309,53.6387 -10.8497,16.6145 -27.0932,30.9543 -45.9902,41.6074 -38.1721,21.5195 -86.5304,28.51 -136.5371,28.8887 -102.7423,0.7781 -208.2238,-12.4285 -317.0879,-11.8789 l -1295.0625,6.5371 c -186.6816,0.9425 -374.2278,-7.2846 -539.6934,-76.6211 -165.5586,-69.3756 -306.6733,-197.7006 -389.4394,-356.6699 -71.6546,-137.6274 -101.2834,-297.4043 -83.7364,-451.5723 17.547,-154.168 82.3242,-303.2022 183.0743,-421.20701 a 35.0035,35.0035 0 1 0 -53.2364,-45.45117 c -109.9943,128.83224 -180.2316,290.42848 -199.3886,458.74218 -19.1567,168.3131 12.9683,341.5597 91.1972,491.8145 90.6533,174.1183 243.6841,313.1459 424.4746,388.9043 180.8836,75.7972 378.2595,83.0139 567.1016,82.0605 l 1295.0625,-6.5391 c 102.8027,-0.519 208.3447,12.7038 317.2656,11.8789 55.8251,-0.4227 116.3611,-7.4535 170.3828,-37.9082 27.1998,-15.3338 52.1388,-36.6182 70.2227,-64.3105 18.2197,-27.9004 28.7805,-61.6155 26.3555,-96.7344 -2.4675,-35.7334 -18.0468,-68.1388 -40.4942,-93.4707 -15.7035,-17.7214 -34.3725,-31.6012 -54.2988,-42.2949 24.9526,-15.5369 47.1977,-36.0724 63.9844,-61.3652 19.5564,-29.4662 31.0082,-64.4283 31.041,-100.7051 0.051,-56.4313 -27.2987,-108.0232 -67.2891,-143.8789 -39.5557,-35.466 -89.328,-54.8317 -139.0078,-62.3496 -97.6731,-14.7807 -187.8768,12.1018 -268.2148,8.1035 -39.9191,-1.9867 -78.3649,-11.4537 -107.8555,-31.3184 -14.6902,-9.8953 -27.2337,-22.4328 -36.0195,-36.5039 -8.7332,-13.9867 -13.9406,-30.017 -14.5469,-45.3867 a 35.0035,35.0035 0 0 0 0,-0 c -0.6166,-15.6291 3.4598,-32.3357 11.3047,-47.25 7.8957,-15.0108 19.7484,-28.7636 33.9941,-40.0742 28.6132,-22.7179 67.0259,-35.8125 107.8555,-42.5879 67.9802,-11.2809 143.7112,-5.6681 222.8183,-19.4453 39.6328,-6.9023 80.1112,-19.0634 116.9434,-41.2968 37.0685,-22.3762 69.7635,-54.9895 88.2051,-97.1211 21.9485,-50.1435 20.3937,-106.6335 1.5449,-155.834 -18.7062,-48.82835 -53.198,-88.93381 -94.0391,-118.04495 -81.2108,-57.88645 -180.8081,-70.77602 -271.9882,-73.16406 -82.1701,-2.15206 -166.5671,3.58698 -248.0938,27.42188 -81.7424,23.89799 -159.0383,66.35541 -220.3164,127.50393 -50.8934,50.7857 -88.618,112.9831 -112.9707,179.7773 -12.6788,-37.6742 -29.4482,-74.1258 -51.0996,-108.0449 -37.9861,-59.5092 -89.5382,-109.84795 -149.5899,-146.7129 -59.9741,-36.81731 -127.3104,-59.80282 -196.0175,-70.08203 -111.3438,-16.65803 -226.1899,0.71995 -328.3457,46.70508 -37.3884,-18.12647 -76.6511,-32.43906 -117.1661,-42.29102 -42.6063,-10.36052 -86.3406,-15.79114 -130.121,-16.27343 z m 246.0546,136.98047 c 48.0472,27.12883 92.0132,61.65433 129.4434,102.11723 69.861,75.5212 117.681,171.8049 136.9082,273.1738 18.7122,98.6541 9.1392,203.8372 -38.5957,287.9492 -23.848,42.0217 -57.1603,78.6622 -96.9121,104.3945 -39.663,25.6749 -86.4605,40.6332 -132.7559,41.043 -46.2049,0.4089 -93.1668,-13.6649 -133.1933,-38.5625 -40.115,-24.9526 -73.9923,-60.9119 -98.4707,-102.418 -48.9921,-83.0717 -60.0573,-187.9361 -42.2774,-286.4062 24.1837,-133.9354 100.6729,-258.9939 209.7481,-339.8242 20.8978,-15.4864 43.0449,-29.31552 66.1054,-41.46683 z"
       id="path4139-1-0-4-2-1-6-2-9-7"
       inkscape:connector-curvature="0" />
  </g>
</svg>
