<?xml version="1.0" encoding="UTF-8" standalone="no"?>
<!-- Created with Inkscape (http://www.inkscape.org/) -->

<svg
   xmlns:dc="http://purl.org/dc/elements/1.1/"
   xmlns:cc="http://creativecommons.org/ns#"
   xmlns:rdf="http://www.w3.org/1999/02/22-rdf-syntax-ns#"
   xmlns:svg="http://www.w3.org/2000/svg"
   xmlns="http://www.w3.org/2000/svg"
   xmlns:sodipodi="http://sodipodi.sourceforge.net/DTD/sodipodi-0.dtd"
   xmlns:inkscape="http://www.inkscape.org/namespaces/inkscape"
   width="2000"
   height="2000"
   id="svg2992"
   version="1.1"
   inkscape:version="0.91 r13725"
   sodipodi:docname="തു.svg">
  <defs
     id="defs5498">
    <inkscape:path-effect
       effect="spiro"
       id="path-effect2987"
       is_visible="true" />
    <inkscape:path-effect
       is_visible="true"
       id="path-effect2987-8"
       effect="spiro" />
    <inkscape:path-effect
       is_visible="true"
       id="path-effect2987-3"
       effect="spiro" />
    <inkscape:path-effect
       is_visible="true"
       id="path-effect4141-3-4-6"
       effect="spiro" />
    <inkscape:path-effect
       is_visible="true"
       id="path-effect4141-3-4-6-8"
       effect="spiro" />
    <inkscape:path-effect
       is_visible="true"
       id="path-effect4141-3-4-6-8-5"
       effect="spiro" />
    <inkscape:path-effect
       is_visible="true"
       id="path-effect4141-3-4-6-8-5-4"
       effect="spiro" />
    <inkscape:path-effect
       is_visible="true"
       id="path-effect4141-3-4-6-8-5-6"
       effect="spiro" />
    <inkscape:path-effect
       is_visible="true"
       id="path-effect2987-5"
       effect="spiro" />
    <inkscape:path-effect
       is_visible="true"
       id="path-effect4141-3-4-6-87"
       effect="spiro" />
    <inkscape:path-effect
       is_visible="true"
       id="path-effect4141-3-4-6-8-0"
       effect="spiro" />
    <inkscape:path-effect
       is_visible="true"
       id="path-effect4141-3-4-6-8-8"
       effect="spiro" />
    <inkscape:path-effect
       is_visible="true"
       id="path-effect4141-3-4-6-8-0-8"
       effect="spiro" />
    <inkscape:path-effect
       is_visible="true"
       id="path-effect4141-3-4-6-8-0-8-8"
       effect="spiro" />
    <inkscape:path-effect
       is_visible="true"
       id="path-effect4141-3-4-6-8-0-8-2"
       effect="spiro" />
    <inkscape:path-effect
       is_visible="true"
       id="path-effect4141-3-4-6-8-0-8-4"
       effect="spiro" />
    <inkscape:path-effect
       is_visible="true"
       id="path-effect4141-3-4-6-8-0-8-4-7"
       effect="spiro" />
    <inkscape:path-effect
       is_visible="true"
       id="path-effect4141-3-4-6-8-0-8-3"
       effect="spiro" />
    <inkscape:path-effect
       is_visible="true"
       id="path-effect4141-3-4-6-8-0-8-81"
       effect="spiro" />
    <inkscape:path-effect
       is_visible="true"
       id="path-effect4141-3-4-6-8-0-8-81-4"
       effect="spiro" />
    <inkscape:path-effect
       is_visible="true"
       id="path-effect4141-3-4-6-8-0-8-4-2"
       effect="spiro" />
    <inkscape:path-effect
       is_visible="true"
       id="path-effect4141-3-4-6-8-0-8-4-2-9"
       effect="spiro" />
    <inkscape:path-effect
       is_visible="true"
       id="path-effect4141-3-4-6-8-0-8-9"
       effect="spiro" />
  </defs>
  <sodipodi:namedview
     inkscape:window-height="844"
     inkscape:window-width="1600"
     inkscape:pageshadow="2"
     inkscape:pageopacity="0.0"
     borderopacity="1.0"
     bordercolor="#666666"
     pagecolor="#ffffff"
     id="base"
     showgrid="true"
     showguides="true"
     inkscape:guide-bbox="true"
     inkscape:zoom="0.25000001"
     inkscape:cx="961.17611"
     inkscape:cy="795.06712"
     inkscape:window-x="1600"
     inkscape:window-y="0"
     inkscape:current-layer="layer1-7"
     inkscape:window-maximized="1">
    <sodipodi:guide
       orientation="horizontal"
       position="1800,600"
       id="guide5596" />
    <inkscape:grid
       type="xygrid"
       id="grid3769"
       empspacing="5"
       visible="true"
       enabled="true"
       snapvisiblegridlinesonly="true" />
    <sodipodi:guide
       orientation="0,1"
       position="-2720,1600"
       id="guide4772" />
  </sodipodi:namedview>
  <metadata
     id="metadata5594">
    <rdf:RDF>
      <cc:Work
         rdf:about="">
        <dc:format>image/svg+xml</dc:format>
        <dc:type
           rdf:resource="http://purl.org/dc/dcmitype/StillImage" />
        <dc:title />
      </cc:Work>
    </rdf:RDF>
  </metadata>
  <g
     inkscape:label="Layer 1"
     inkscape:groupmode="layer"
     id="layer1"
     transform="translate(0,1000)">
    <g
       id="layer1-5"
       inkscape:label="Layer 1"
       transform="translate(61.428743,14.362694)">
      <g
         transform="translate(-500.76683,-332.68778)"
         id="layer1-54"
         inkscape:label="Layer 1">
        <g
           transform="translate(-561.73379,157.27604)"
           id="layer1-7"
           inkscape:label="Layer 1">
          <path
             sodipodi:nodetypes="csassaaaaaaac"
             inkscape:connector-curvature="0"
             inkscape:original-d="m 2648.3309,1051.1153 -1093.2978,-2.2385 c -15.2708,-0.031 -377.0336,-23.8292 -376.1529,-160.09464 0.8889,-137.52828 373.0608,-156.71057 381.6959,-156.6576 l 378.3286,2.32071 c 276.4421,1.69573 656.2392,-310.67091 665.2686,-611.80935 7.1729,-239.2217 -259.0855,-516.52285 -498.4145,-516.80678 -235.8969,-0.27986 -485.2439,272.4421 -492.4742,508.22836 -5.0975,166.23769 158.6028,389.13133 324.6049,378.91988 153.3864,-9.43541 273.4972,-231.71486 254.762,-384.24492 -30.286,-246.56975 -301.7625,-514.68661 -549.9109,-503.01386 -223.9027,10.53225 -434.8652,274.89847 -451.3853,498.4392 -11.6319,157.39672 262.7804,393.86255 262.7804,393.86255"
             inkscape:path-effect="#path-effect4141-3-4-6-8-0-8"
             id="path4139-1-0-4-2-6"
             d="m 2648.3309,1051.1153 -1093.2978,-2.2385 c -75.6352,-0.1549 -152.3453,3.678 -226.0481,-13.3105 -36.8513,-8.4943 -72.9596,-23.3008 -101.4855,-48.12924 -14.2629,-12.41421 -26.4849,-27.29084 -35.113,-44.11643 -8.6281,-16.82559 -13.5996,-35.62986 -13.5063,-54.53847 0.094,-19.07573 5.3423,-37.99202 14.2769,-54.84626 8.9346,-16.85423 21.4908,-31.67839 36.0731,-43.97672 29.1646,-24.59666 65.8339,-38.92958 103.135,-46.94154 74.6024,-16.02393 151.9085,-11.36113 228.2109,-10.89308 l 378.3286,2.32071 c 87.8246,0.53873 176.4597,-0.19294 262.1166,-19.59272 85.6569,-19.39978 167.637,-57.62509 233.9624,-115.19585 66.3255,-57.57075 116.1008,-133.6 144.1367,-216.83127 28.0359,-83.23127 34.7309,-172.89809 25.0529,-260.18951 -14.3925,-129.8142334 -65.7854,-256.8956 -153.8879,-353.31572 -88.1024,-96.42012 -213.9623,-160.04928 -344.5266,-163.49106 -131.1865,-3.45818 -261.5332,54.57001 -351.3535,150.24746 -89.8202,95.67745 -139.1906,226.763055 -141.1207,357.9809 -1.3844,94.12014 22.0216,190.86895 79.388,265.49878 28.6833,37.31491 65.574,68.57155 108.0054,88.93598 42.4313,20.36442 90.4264,29.61163 137.2115,24.48512 42.2333,-4.62774 82.9351,-20.86759 117.719,-45.26339 34.7838,-24.3958 63.6977,-56.80763 85.4175,-93.32235 43.4395,-73.02943 57.4594,-160.88741 51.6255,-245.65918 -9.4632,-137.508673 -71.0761,-271.44637 -171.9364,-365.38992 -100.8603,-93.94354 -240.4013,-146.09726 -377.9745,-137.62394 -124.1074,7.64395 -244.7251,64.62482 -328.5055,156.50473 -83.7805,91.8799 -129.4818,217.767257 -122.8798,341.93447 4.3968,82.69392 31.4318,164.07228 77.3918,232.9584 45.9599,68.88611 110.721,125.09407 185.3886,160.90415"
             style="fill:none;fill-rule:evenodd;stroke:#000000;stroke-width:140;stroke-linecap:round;stroke-linejoin:round;stroke-miterlimit:4;stroke-dasharray:none;stroke-opacity:1" />
          <path
             sodipodi:nodetypes="csassaaaaaaac"
             inkscape:connector-curvature="0"
             inkscape:original-d="m 4178.3038,1589.673 -775.8095,1.1995 c -10.3987,0.016 -257.7927,-23.3105 -256.1428,-117.1885 1.6488,-93.8113 254.0372,-108.0677 259.9174,-108.0386 l 318.9102,1.5803 c 276.2226,1.3688 424.4202,-157.0094 438.6418,-341.8323 14.4128,-187.30831 -198.4505,-409.00401 -386.3077,-410.36044 -160.6308,-1.15985 -330.4288,185.52055 -335.3523,346.08015 -3.4711,113.20019 108.0013,264.98049 221.0411,258.02699 104.4491,-6.4251 186.239,-157.7872 173.4812,-261.65314 -20.6234,-167.90262 -205.5132,-351.02831 -374.4641,-342.52927 -157.6334,7.92971 -310.0334,195.29675 -315.5441,353.03326 -3.709,106.16825 195.2843,251.85935 195.2843,251.85935"
             inkscape:path-effect="#path-effect4141-3-4-6-8-0-8-4"
             id="path4139-1-0-4-2-6-8"
             d="m 4178.3038,1589.673 -775.8095,1.1995 c -52.4273,0.081 -105.7845,2.4047 -156.4358,-11.1255 -25.3257,-6.7651 -49.8912,-18.164 -68.8508,-36.2662 -9.4799,-9.051 -17.4645,-19.7392 -22.9405,-31.6473 -5.476,-11.9081 -8.4032,-25.0517 -7.9157,-38.1495 0.4822,-12.9545 4.2971,-25.7044 10.4968,-37.0893 6.1997,-11.3848 14.7468,-21.424 24.6319,-29.8106 19.7702,-16.7733 44.524,-26.8249 69.7991,-32.602 50.5501,-11.5544 103.1364,-8.7936 154.9896,-8.5367 l 318.9102,1.5803 c 52.4554,0.2599 105.2784,-0.1045 156.7518,-10.2104 51.4734,-10.1059 101.3298,-30.0092 143.7783,-60.8274 42.4485,-30.8181 77.064,-72.2094 100.3883,-119.1947 23.3242,-46.9852 35.4585,-99.1927 37.7234,-151.5998 4.5629,-105.57875 -32.0638,-213.19442 -103.4294,-291.13435 -71.3657,-77.93993 -177.3185,-124.20915 -282.8783,-119.22609 -88.1649,4.16192 -173.9813,43.72063 -235.1552,107.34548 -61.1739,63.62485 -97.2629,150.52039 -100.1971,238.73467 -2.138,64.27819 13.7265,130.63349 53.0828,181.49939 19.6781,25.4329 45.0214,46.6434 74.1022,60.3683 29.0807,13.725 61.9079,19.8165 93.8561,16.1593 28.732,-3.289 56.4002,-14.3921 80.0713,-31.0061 23.6711,-16.614 43.3756,-38.6475 58.1987,-63.4794 29.6463,-49.6638 39.3188,-109.4743 35.2112,-167.16764 -6.6465,-93.35335 -49.2493,-183.95926 -117.9604,-247.50304 -68.7111,-63.54377 -162.9997,-99.02963 -256.5037,-95.02623 -88.3748,3.78379 -175.1296,43.08354 -234.6236,108.54263 -59.494,65.45909 -90.4322,156.54773 -80.9205,244.49063 6.0122,55.58675 27.729,109.38935 61.9887,153.57425 34.2597,44.185 80.9579,78.6177 133.2956,98.2851"
             style="fill:none;fill-rule:evenodd;stroke:#000000;stroke-width:120;stroke-linecap:round;stroke-linejoin:round;stroke-miterlimit:4;stroke-dasharray:none;stroke-opacity:1" />
          <path
             style="color:#000000;font-style:normal;font-variant:normal;font-weight:normal;font-stretch:normal;font-size:medium;line-height:normal;font-family:sans-serif;text-indent:0;text-align:start;text-decoration:none;text-decoration-line:none;text-decoration-style:solid;text-decoration-color:#000000;letter-spacing:normal;word-spacing:normal;text-transform:none;direction:ltr;block-progression:tb;writing-mode:lr-tb;baseline-shift:baseline;text-anchor:start;white-space:normal;clip-rule:nonzero;display:inline;overflow:visible;visibility:visible;opacity:1;isolation:auto;mix-blend-mode:normal;color-interpolation:sRGB;color-interpolation-filters:linearRGB;solid-color:#000000;solid-opacity:1;fill:#000000;fill-opacity:1;fill-rule:evenodd;stroke:none;stroke-width:120;stroke-linecap:round;stroke-linejoin:round;stroke-miterlimit:4;stroke-dasharray:none;stroke-dashoffset:0;stroke-opacity:1;color-rendering:auto;image-rendering:auto;shape-rendering:auto;text-rendering:auto;enable-background:accumulate"
             d="m 3703.5513,1826.7108 c -6.8793,-0.06 -13.7702,0.058 -20.668,0.3536 -104.4372,4.4715 -205.4781,50.035 -276.459,128.1328 -71.164,78.2991 -107.6557,185.1217 -96.1719,291.2968 7.2281,66.8288 33.0362,130.7656 74.2246,183.8867 41.1885,53.121 96.6847,94.0407 159.6075,117.6856 a 60.006,60.006 0 1 0 42.2109,-112.3301 c -41.7527,-15.6897 -79.6535,-43.6359 -106.9844,-78.8848 -27.3309,-35.2489 -44.9576,-78.9169 -49.7539,-123.2616 -7.5398,-69.7107 17.8459,-145.0646 65.6699,-197.6836 48.0071,-52.8205 120.4767,-85.8571 192.7891,-88.9532 12.9683,-0.5552 26.0226,-0.084 39.043,1.209 -1.563,1.5733 -3.1845,3.0819 -4.7227,4.6817 -71.9196,74.801 -113.478,175.0831 -116.9121,278.3261 -2.5114,75.5054 15.5606,155.5431 65.5957,220.2109 25.0556,32.3829 57.4569,59.7463 95.9473,77.9122 38.645,18.239 82.2477,26.5513 126.289,21.5097 39.5665,-4.5292 76.3394,-19.4831 107.7168,-41.5058 31.273,-21.9495 56.4366,-50.3247 75.2481,-81.8379 37.5692,-62.9364 48.3311,-134.9028 43.541,-202.1816 -7.4089,-104.0622 -52.5316,-203.824 -126.9668,-277.4747 3.5913,-0.3163 7.1841,-0.6155 10.7773,-0.7851 86.1963,-4.069 176.4188,34.9644 235.7969,99.8125 59.694,65.1929 91.6272,158.0396 87.7383,248.0234 -1.94,44.8887 -12.3849,88.9583 -31.5234,127.5117 -19.0519,38.3787 -47.5654,72.397 -81.8946,97.3203 -34.3126,24.9115 -76.0412,41.8581 -120.0879,50.5059 -44.1262,8.6634 -92.9165,9.3435 -144.8945,9.0859 l -318.9102,-1.58 c -49.9245,-0.2474 -107.2705,-3.9863 -168.6563,10.0449 -31.7165,7.2496 -65.6535,20.2351 -95.2461,45.3418 -14.8868,12.6301 -28.3162,28.152 -38.5078,46.8672 -10.2536,18.8293 -16.8964,40.3056 -17.7617,63.5527 -0.875,23.5097 4.2746,45.6891 13.3613,65.4492 9.0317,19.6403 21.647,36.2521 36.0196,49.9746 28.5824,27.2899 62.5845,42.2325 94.7988,50.8379 62.4563,16.6836 121.2964,13.2366 172.0137,13.1582 l 775.8105,-1.1992 a 60.006,60.006 0 1 0 -0.1855,-120 l -775.8106,1.1992 c -54.1373,0.084 -102.0111,1.283 -140.8574,-9.0937 -18.4366,-4.9249 -33.5661,-12.7813 -42.9023,-21.6954 -4.5868,-4.3792 -7.9413,-9.1429 -9.8614,-13.3183 -1.8652,-4.0561 -2.5706,-8.1637 -2.4707,-10.8496 0.099,-2.6619 1.0867,-6.6866 3.2325,-10.627 2.2078,-4.0544 5.8724,-8.6088 10.7558,-12.7519 9.9473,-8.4395 25.5184,-15.5586 44.3516,-19.8633 39.7144,-9.0777 87.5404,-7.2958 141.3222,-7.0293 l 318.9102,1.5801 c 52.9328,0.2622 109.7888,0.2163 168.6094,-11.3321 58.9001,-11.564 116.8844,-34.4254 167.4687,-71.1503 50.5679,-36.7129 91.2841,-85.4784 118.8809,-141.0704 27.5099,-55.417 41.334,-115.762 43.9238,-175.6875 5.2369,-121.1736 -36.0836,-243.5572 -119.1211,-334.2441 -83.3531,-91.0317 -205.0358,-144.5377 -329.959,-138.6406 -47.9842,2.2651 -94.8972,13.3127 -138.625,31.7793 -49.0918,-20.4885 -102.0181,-31.7537 -155.7382,-32.2188 z m 156.1132,167.5645 c 14.7974,9.4021 28.779,19.9992 41.5508,31.8105 56.9145,52.6343 93.2977,129.7329 98.8496,207.7129 3.4252,48.1077 -5.1575,95.7611 -26.8808,132.1524 -10.8348,18.1505 -25.0812,33.8426 -41.1504,45.1211 -15.965,11.2053 -34.5283,18.4571 -52.4258,20.5059 -19.8551,2.2728 -41.9075,-1.5977 -61.4238,-10.8086 -19.6712,-9.284 -37.9551,-24.3413 -52.2559,-42.8242 -28.6773,-37.064 -42.3349,-89.7381 -40.5703,-142.7891 2.4343,-73.1855 33.0542,-146.694 83.4824,-199.1426 15.1495,-15.7564 32.3089,-29.7411 50.8242,-41.7402 z"
             id="path4139-1-0-4-2-6-8-0"
             inkscape:connector-curvature="0" />
          <path
             sodipodi:nodetypes="csassaaaaaaac"
             inkscape:connector-curvature="0"
             inkscape:original-d="m 475.92856,1054.5428 -1131.96008,-2.3479 c -16.01591,-0.033 -398.68388,-11.0698 -394.50648,-151.92401 4.1515,-139.98124 391.26533,-127.6748 400.31994,-127.48245 l 491.17975,10.4342 c 425.34228,9.03561 617.08128,-279.26571 634.00596,-560.95539 16.65756,-277.242479 -275.7537,-616.85929 -553.401917,-622.85574 -247.349543,-5.34207 -508.920403,285.76589 -516.503493,533.08327 -5.34622,174.36755 166.34151,408.1618 340.44335,397.45096 160.870578,-9.89685 286.842046,-243.04688 267.1927,-403.03642 -31.763745,-258.62824 -316.4865,-539.85736 -576.7428,-527.61375 -234.82759,11.04733 -456.08359,288.34238 -473.40969,522.81536 -12.1995,165.09421 275.60219,413.12441 275.60219,413.12441"
             inkscape:path-effect="#path-effect4141-3-4-6-8-0-8-81"
             id="path4139-1-0-4-2-6-0"
             d="m 475.92856,1054.5428 -1131.96008,-2.3479 c -78.60237,-0.163 -157.90863,5.7765 -235.45827,-7.0458 -38.77482,-6.4112 -77.41519,-19.0934 -108.25685,-43.4529 -15.42086,-12.17967 -28.69436,-27.25171 -37.83636,-44.64625 -9.1421,-17.39454 -14.0531,-37.15913 -12.955,-56.77906 1.0782,-19.2642 7.9239,-38.02107 18.5637,-54.1166 10.6399,-16.09552 24.9868,-29.58728 41.11307,-40.18049 32.25251,-21.18641 70.88429,-30.76887 109.26291,-34.79006 76.75725,-8.04238 154.22025,-0.0344 231.38026,1.6047 l 491.17975,10.4342 c 81.594421,1.73332 163.9929695,2.20745 243.756634,-15.06715 79.763666,-17.2746 156.136996,-52.40634 218.167366,-105.443 62.03038,-53.03666 108.90224,-123.04387 136.98999,-199.6711 28.08775,-76.62723 37.83856,-159.20754 35.09197,-240.77414 C 469.80454,68.936317 419.47743,-84.845541 321.22298,-202.67209 222.96853,-320.49864 74.976953,-399.16358 -78.434267,-400.58849 -215.663,-401.8631 -351.27401,-340.96192 -445.4658,-241.15583 c -94.19179,99.8061 -146.84964,236.4410119 -149.47196,373.65061 -1.88815,98.79488 22.61304,200.45139 82.88083,278.75712 30.13389,39.15286 68.9078,71.91592 113.48337,93.22358 44.57558,21.30765 94.97475,30.92521 144.07915,25.47026 44.27796,-4.91879 86.93629,-21.9856 123.39672,-47.58578 36.460439,-25.60017 66.772964,-59.5881 89.553008,-97.87389 C 4.0154066,307.91448 18.771573,215.80277 12.69829,126.90932 2.8435033,-17.333263 -61.766746,-157.84764 -167.5628,-256.38817 c -105.79605,-98.54052 -252.17762,-153.22519 -396.48171,-144.31626 -130.16646,8.03611 -256.66628,67.81013 -344.53295,164.18094 -87.86667,96.37082 -135.79784,228.4039178 -128.87674,358.63442 4.6095,86.73494 32.9623,172.09069 81.1646,244.34536 48.20229,72.25466 116.12405,131.21328 194.43759,168.77905"
             style="fill:none;fill-rule:evenodd;stroke:#000000;stroke-width:69.99999237;stroke-linecap:round;stroke-linejoin:round;stroke-miterlimit:4;stroke-dasharray:none;stroke-opacity:1" />
          <path
             style="color:#000000;font-style:normal;font-variant:normal;font-weight:normal;font-stretch:normal;font-size:medium;line-height:normal;font-family:sans-serif;text-indent:0;text-align:start;text-decoration:none;text-decoration-line:none;text-decoration-style:solid;text-decoration-color:#000000;letter-spacing:normal;word-spacing:normal;text-transform:none;direction:ltr;block-progression:tb;writing-mode:lr-tb;baseline-shift:baseline;text-anchor:start;white-space:normal;clip-rule:nonzero;display:inline;overflow:visible;visibility:visible;opacity:1;isolation:auto;mix-blend-mode:normal;color-interpolation:sRGB;color-interpolation-filters:linearRGB;solid-color:#000000;solid-opacity:1;fill:#000000;fill-opacity:1;fill-rule:evenodd;stroke:none;stroke-width:69.99999237;stroke-linecap:round;stroke-linejoin:round;stroke-miterlimit:4;stroke-dasharray:none;stroke-dashoffset:0;stroke-opacity:1;color-rendering:auto;image-rendering:auto;shape-rendering:auto;text-rendering:auto;enable-background:accumulate"
             d="m -1177.2266,1403.3594 c -9.6531,0.073 -19.3153,0.4056 -28.9746,1.0019 -139.4285,8.6079 -273.9599,72.128 -368.2402,175.5332 -94.3205,103.4492 -145.405,244.0403 -137.9629,384.0743 4.9486,93.1149 35.2501,184.3425 86.9981,261.9121 51.7479,77.5695 124.3419,140.583 208.416,180.9121 a 35.003496,35.003496 0 1 0 30.2754,-63.1153 c -72.553,-34.8025 -135.8024,-89.7048 -180.459,-156.6445 -44.6567,-66.9398 -71.0597,-146.4245 -75.3301,-226.7793 -6.4001,-120.427 38.3781,-243.9029 119.791,-333.1953 81.4529,-89.3364 199.9197,-145.3658 320.8242,-152.8301 60.9731,-3.7643 122.6563,4.9159 181.1211,24.0215 -32.6495,22.2113 -63.0122,47.8144 -90.1523,76.5723 -100.6667,106.6668 -156.2269,251.2882 -159.0117,397.0039 -2.0074,105.037 23.7374,214.4986 90.1386,300.7734 33.2288,43.174 76.0794,79.5308 126.125,103.4531 50.1399,23.9675 106.83413,34.9232 163.03714,28.6797 50.65603,-5.6273 98.6639,-24.9545 139.64453,-53.7285 40.91727,-28.7294 74.4173,-66.4325 99.51953,-108.6211 50.16895,-84.3175 65.53211,-183.4792 59.08399,-277.8594 -10.45851,-153.0793 -78.58578,-301.5166 -191.32422,-406.5234 -24.1827,-22.5242 -50.4002,-42.7389 -78.04102,-60.7402 46.24479,-15.2354 94.63482,-23.2988 142.98828,-22.8496 141.65714,1.3157 281.01078,74.8989 373.10157,185.3339 92.42619,110.8374 140.71433,257.2292 145.64648,403.7012 2.62608,77.9879 -6.7825,156.0952 -32.97461,227.5508 -26.12821,71.2814 -69.78618,136.3054 -126.87305,185.1152 -57.04771,48.7765 -128.14358,81.6629 -202.83007,97.8379 -74.76077,16.1911 -154.37578,16.0068 -235.60547,14.2813 l -491.17968,-10.4336 c -75.237,-1.5979 -154.1921,-9.9695 -235.7715,-1.4219 -41.6889,4.368 -85.908,14.7768 -124.832,40.3457 -19.5625,12.8504 -37.4341,29.4691 -51.0938,50.1328 -13.7293,20.7692 -22.8412,45.2095 -24.3105,71.461 -1.4968,26.7424 5.0978,52.5293 16.9179,75.0195 11.7592,22.374 28.3489,40.9984 47.125,55.8281 37.3632,29.5104 81.8286,43.505 124.2403,50.5176 83.0549,13.7325 164.3052,7.3564 241.0957,7.5156 l 1131.95897,2.3477 a 35.003496,35.003496 0 1 0 0.14648,-70 l -1131.96095,-2.3477 c -80.4136,-0.1667 -157.7763,5.3335 -229.8203,-6.5781 l -0,0 c -35.1372,-5.81 -67.952,-17.1785 -92.2715,-36.3867 -12.0657,-9.5297 -22.0238,-21.0479 -28.5489,-33.4629 -6.464,-12.2991 -9.6897,-26.0437 -8.9902,-38.541 0.6871,-12.2769 5.2641,-25.3497 12.8145,-36.7715 7.62,-11.5273 18.4427,-21.8925 31.1328,-30.2285 25.5809,-16.804 58.6251,-25.5581 93.6933,-29.2325 71.9352,-7.5371 147.9073,0.1076 226.9903,1.7871 l 491.17965,10.4336 c 81.95915,1.7411 167.14165,2.5066 251.9082,-15.8515 84.84085,-18.3742 166.49086,-55.7519 233.50391,-113.0488 66.9739,-57.2634 117.06011,-132.2534 147.10742,-214.2266 29.98342,-81.7988 40.07608,-168.8527 37.20899,-253.9981 -5.39407,-160.1898 -57.76106,-321.3619 -161.84375,-446.1777 -104.41809,-125.2179 -261.04757,-208.9659 -426.2129,-210.5 -77.50829,-0.7199 -153.9559,16.9504 -223.74609,49.1856 -73.75753,-33.0096 -154.23533,-50.8534 -235.37113,-50.2383 z m 235.94144,128.4472 c 39.86165,20.8893 77.04622,46.846 109.86719,77.4161 98.85374,92.0743 159.94623,224.6664 169.19727,360.0722 5.69841,83.4068 -8.45108,168.4693 -49.40235,237.2949 -20.45788,34.383 -47.5823,64.6542 -79.58593,87.125 -31.94025,22.4265 -69.25049,37.2351 -107.1504,41.4454 -42.00578,4.6663 -86.1078,-3.6138 -125.11912,-22.2618 -39.1056,-18.6928 -73.8027,-47.8623 -100.8418,-82.9941 -54.1344,-70.3366 -77.3919,-164.1874 -75.6231,-256.7402 2.4598,-128.7036 52.2147,-257.3516 139.9317,-350.2969 34.299,-36.3435 74.70918,-67.0709 118.72654,-91.0606 z"
             id="path4139-1-0-4-2-6-0-8"
             inkscape:connector-curvature="0" />
          <path
             sodipodi:nodetypes="csassaaaaaaac"
             inkscape:connector-curvature="0"
             inkscape:original-d="m 5661.9505,1585.6243 -775.8095,1.1995 c -10.3987,0.016 -257.7927,-23.3105 -256.1428,-117.1886 1.6488,-93.8113 254.0372,-108.0677 259.9174,-108.0386 l 318.9102,1.5803 c 276.2226,1.3688 424.4202,-157.0094 438.6418,-341.8323 14.4128,-187.30826 -198.4505,-409.00397 -386.3077,-410.3604 -160.6308,-1.15985 -330.4288,185.52056 -335.3523,346.08014 -3.4711,113.20016 108.0013,264.98046 221.0411,258.02696 104.4491,-6.4251 186.239,-157.7872 173.4812,-261.65306 -20.6234,-167.90265 -205.5132,-351.02835 -374.4641,-342.52931 -157.6334,7.92971 -310.0334,195.29676 -315.5441,353.03331 -3.709,106.16816 195.2843,251.85926 195.2843,251.85926"
             inkscape:path-effect="#path-effect4141-3-4-6-8-0-8-4-2"
             id="path4139-1-0-4-2-6-8-06"
             d="m 5661.9505,1585.6243 -775.8095,1.1995 c -52.4273,0.081 -105.7845,2.4047 -156.4358,-11.1255 -25.3257,-6.7651 -49.8912,-18.1641 -68.8509,-36.2662 -9.4798,-9.0511 -17.4644,-19.7393 -22.9404,-31.6474 -5.476,-11.9081 -8.4032,-25.0517 -7.9157,-38.1495 0.4822,-12.9545 4.2971,-25.7044 10.4968,-37.0893 6.1997,-11.3848 14.7468,-21.424 24.6319,-29.8106 19.7702,-16.7733 44.524,-26.8248 69.7991,-32.602 50.5501,-11.5544 103.1364,-8.7936 154.9896,-8.5367 l 318.9102,1.5803 c 52.4554,0.2599 105.2784,-0.1045 156.7518,-10.2104 51.4734,-10.1059 101.3298,-30.0092 143.7783,-60.8274 42.4485,-30.8181 77.064,-72.2094 100.3883,-119.1947 23.3242,-46.9852 35.4585,-99.1927 37.7234,-151.5998 4.5629,-105.57875 -32.0638,-213.19441 -103.4295,-291.13433 -71.3656,-77.93992 -177.3185,-124.20913 -282.8782,-119.22607 -88.1649,4.16192 -173.9813,43.72062 -235.1552,107.34547 -61.1739,63.62485 -97.2629,150.5204 -100.1971,238.73467 -2.138,64.27816 13.7265,130.63346 53.0828,181.49936 19.6781,25.4329 45.0214,46.6434 74.1022,60.3683 29.0807,13.725 61.9079,19.8165 93.8561,16.1593 28.732,-3.289 56.4001,-14.3921 80.0713,-31.0061 23.6711,-16.614 43.3756,-38.6475 58.1987,-63.4794 29.6463,-49.6638 39.3188,-109.4742 35.2112,-167.16756 -6.6465,-93.35336 -49.2493,-183.95928 -117.9604,-247.50307 -68.711,-63.54378 -162.9997,-99.02964 -256.5037,-95.02624 -88.3748,3.78379 -175.1296,43.08354 -234.6236,108.54265 -59.494,65.4591 -90.4323,156.54775 -80.9205,244.49066 6.0122,55.58676 27.729,109.38926 61.9887,153.57426 34.2598,44.1849 80.9579,78.6177 133.2956,98.285"
             style="fill:none;fill-rule:evenodd;stroke:#000000;stroke-width:60;stroke-linecap:round;stroke-linejoin:round;stroke-miterlimit:4;stroke-dasharray:none;stroke-opacity:1" />
          <path
             style="color:#000000;font-style:normal;font-variant:normal;font-weight:normal;font-stretch:normal;font-size:medium;line-height:normal;font-family:sans-serif;text-indent:0;text-align:start;text-decoration:none;text-decoration-line:none;text-decoration-style:solid;text-decoration-color:#000000;letter-spacing:normal;word-spacing:normal;text-transform:none;direction:ltr;block-progression:tb;writing-mode:lr-tb;baseline-shift:baseline;text-anchor:start;white-space:normal;clip-rule:nonzero;display:inline;overflow:visible;visibility:visible;opacity:1;isolation:auto;mix-blend-mode:normal;color-interpolation:sRGB;color-interpolation-filters:linearRGB;solid-color:#000000;solid-opacity:1;fill:#000000;fill-opacity:1;fill-rule:evenodd;stroke:none;stroke-width:60;stroke-linecap:round;stroke-linejoin:round;stroke-miterlimit:4;stroke-dasharray:none;stroke-dashoffset:0;stroke-opacity:1;color-rendering:auto;image-rendering:auto;shape-rendering:auto;text-rendering:auto;enable-background:accumulate"
             d="m 5043.6836,1860.6152 c -6.3615,-0.057 -12.7307,0.048 -19.1016,0.3203 -96.4059,4.1277 -190.3035,46.5595 -255.541,118.3379 -65.329,71.8792 -99.0427,170.8355 -88.5449,267.8946 6.6202,61.2078 30.3814,120.0774 68.1055,168.7304 37.7241,48.653 88.821,86.3302 146.4511,107.9864 a 30.003,30.003 0 1 0 21.1055,-56.166 c -47.0453,-17.6787 -89.3434,-48.8672 -120.1387,-88.584 -30.7953,-39.717 -50.4668,-88.4522 -55.8711,-138.418 -8.5258,-78.8268 19.636,-162.0488 73.295,-221.0879 53.7505,-59.1398 133.3614,-95.3081 213.705,-98.748 35.7342,-1.53 71.7923,3.4249 106.2715,13.9003 -17.4878,12.8278 -33.9609,27.0716 -49.041,42.7559 -66.5468,69.2129 -105.3705,162.8006 -108.5547,258.5293 -2.3247,69.8918 14.6442,143.0886 59.3399,200.8555 22.3669,28.9079 51.2378,53.1952 85.0234,69.1406 33.8629,15.982 72.0775,23.1834 110.0723,18.834 34.1492,-3.9091 66.3702,-16.9375 93.8945,-36.2559 27.472,-19.2817 49.9073,-44.4856 66.7246,-72.6582 33.6078,-56.3001 43.8238,-122.1877 39.375,-184.6738 -7.1938,-101.0401 -52.9062,-198.3999 -127.5156,-267.3984 -11.4828,-10.6192 -23.6681,-20.4164 -36.3262,-29.5372 24.7878,-7.5838 50.4124,-12.2063 76.1621,-13.4218 95.878,-4.5261 193.9661,38.1255 259.3379,109.5195 65.5298,71.5664 99.8099,171.7969 95.584,269.5781 -2.1024,48.6479 -13.3917,96.7874 -34.6231,139.5567 -21.188,42.682 -52.7537,80.3871 -91.1425,108.2578 -38.3806,27.8648 -84.1716,46.2892 -131.9317,55.666 -47.7998,9.3847 -98.6075,9.9072 -150.8242,9.6484 l -318.9101,-1.58 c -50.8889,-0.2522 -105.8563,-3.5038 -161.8243,9.289 -28.4953,6.5135 -57.8403,18.0329 -82.5214,38.9727 -12.386,10.5083 -23.3747,23.2898 -31.5704,38.3398 -8.2266,15.1072 -13.4551,32.2195 -14.1289,50.3203 -0.6812,18.3038 3.3573,35.9648 10.6387,51.7989 7.254,15.7744 17.5524,29.4256 29.4785,40.8125 23.7713,22.696 53.0559,35.8655 81.8262,43.5507 56.5538,15.1069 112.6523,12.2223 164.2246,12.1426 l 775.8086,-1.1992 a 30.003,30.003 0 1 0 -0.092,-60 l -775.8105,1.1992 c -53.2823,0.082 -103.8978,1.8441 -148.6465,-10.1094 -21.8811,-5.8449 -41.7289,-15.4723 -55.877,-28.9804 -7.0334,-6.7154 -12.7023,-14.4426 -16.4004,-22.4844 -3.6706,-7.9821 -5.4871,-16.6062 -5.1933,-24.498 0.2906,-7.8082 2.6925,-16.1968 6.8652,-23.8594 4.2038,-7.7196 10.3091,-15.0164 17.6934,-21.2813 14.8587,-12.6063 35.0219,-21.1914 57.0761,-26.2324 45.1323,-10.316 95.3387,-8.0449 148.1563,-7.7832 l 318.9101,1.5801 c 52.6942,0.2611 107.5327,0.056 162.6797,-10.7715 55.1868,-10.835 109.1066,-32.2167 155.6231,-65.9883 46.5081,-33.7655 84.1742,-78.8442 109.6347,-130.1328 25.4171,-51.2011 38.3969,-107.4763 40.8243,-163.6426 4.8998,-113.3761 -34.0739,-228.376 -111.2754,-312.6894 -77.3594,-84.4858 -191.1766,-134.3738 -306.418,-128.9336 -48.5877,2.2936 -96.2433,14.3587 -140.1055,34.6347 -48.8086,-22.2135 -102.074,-34.5498 -155.957,-35.0371 z m 156.2324,102.4649 c 22.3838,12.5212 43.334,27.5409 62.084,44.8808 62.8128,58.0891 102.307,141.9407 108.4062,227.6075 3.7664,52.9005 -5.362,106.6326 -31.0468,149.6601 -12.8289,21.4912 -29.8037,40.3545 -49.6739,54.3008 -19.818,13.9096 -42.9332,23.087 -66.248,25.7559 -25.9016,2.965 -53.3421,-2.0145 -77.6406,-13.4825 -24.376,-11.5044 -46.1902,-29.6397 -63.1797,-51.5976 -34.0168,-43.9649 -48.7775,-103.478 -46.8262,-162.1426 2.6843,-80.6999 36.0388,-160.9028 91.8399,-218.9395 21.1474,-21.9947 45.6521,-40.8633 72.2851,-56.0429 z"
             id="path4139-1-0-4-2-6-8-06-8"
             inkscape:connector-curvature="0" />
          <path
             style="color:#000000;font-style:normal;font-variant:normal;font-weight:normal;font-stretch:normal;font-size:medium;line-height:normal;font-family:sans-serif;text-indent:0;text-align:start;text-decoration:none;text-decoration-line:none;text-decoration-style:solid;text-decoration-color:#000000;letter-spacing:normal;word-spacing:normal;text-transform:none;direction:ltr;block-progression:tb;writing-mode:lr-tb;baseline-shift:baseline;text-anchor:start;white-space:normal;clip-rule:nonzero;display:inline;overflow:visible;visibility:visible;opacity:1;isolation:auto;mix-blend-mode:normal;color-interpolation:sRGB;color-interpolation-filters:linearRGB;solid-color:#000000;solid-opacity:1;fill:#000000;fill-opacity:1;fill-rule:evenodd;stroke:none;stroke-width:140;stroke-linecap:round;stroke-linejoin:round;stroke-miterlimit:4;stroke-dasharray:none;stroke-dashoffset:0;stroke-opacity:1;color-rendering:auto;image-rendering:auto;shape-rendering:auto;text-rendering:auto;enable-background:accumulate"
             d="m 1728.0352,1378.8184 c -9.8615,0.08 -19.7374,0.4218 -29.6172,1.0332 -142.6139,8.8244 -279.2745,73.2956 -375.8809,179.2324 -96.6874,106.0258 -148.7148,249.0114 -141.084,392.7832 5.0666,95.4587 36.0004,188.5862 89.0547,268.1055 53.0542,79.5191 127.1663,143.8384 213.3633,185.1679 a 70.007,70.007 0 1 0 60.5293,-126.2402 c -63.1475,-30.2778 -118.5664,-78.3717 -157.4336,-136.627 -38.8673,-58.2553 -61.9972,-127.8935 -65.709,-197.8261 -5.5492,-104.5513 33.8521,-213.3117 104.7246,-291.0293 70.9538,-77.8066 175.4982,-127.2989 281.0821,-133.8321 30.1997,-1.8686 60.7276,-0.1779 90.9062,4.6543 -10.9668,9.8777 -21.6643,20.0654 -31.8379,30.7969 a 70.007,70.007 0 0 0 -0,0 c -102.6601,108.2895 -159.4896,253.7972 -162.8282,401.4375 -2.4169,106.8811 23.4238,219.6376 93.2852,310.293 34.9843,45.3973 80.1934,83.8015 133.7031,109.291 53.6966,25.5786 114.3857,37.3361 175.4102,30.4824 a 70.007,70.007 0 0 0 0,0 c 54.9295,-6.1692 106.2527,-26.9825 150.0215,-57.7363 43.6429,-30.6654 78.9009,-70.4813 105.2637,-114.7656 52.6554,-88.4514 67.9991,-190.3303 61.5019,-286.0469 -10.5372,-155.2358 -79.189,-305.0877 -193.9726,-411.9688 -4.5263,-4.2147 -9.2289,-8.2211 -13.8828,-12.2851 17.0937,-2.4184 34.2745,-3.8363 51.4257,-3.9102 113.4821,-0.4886 229.029,51.5717 310.1719,134.8907 81.5853,83.7732 132.0306,199.8751 144.3086,319.0878 8.169,79.3165 -0.1751,159.9779 -26.9805,232.4922 -26.7098,72.2561 -72.8638,137.8515 -131.9238,186.4395 -59.0541,48.583 -132.8074,81.61 -210.6465,98.375 -77.9855,16.7965 -162.919,17.8783 -251.6562,17.334 l -378.3281,-2.3223 c -73.7408,-0.4523 -156.3042,-6.2413 -243.3399,12.4531 -44.8506,9.6335 -92.5396,27.272 -133.5644,61.8711 -20.636,17.4038 -39.1007,38.8757 -52.7911,64.7012 -13.7729,25.9815 -22.2735,55.6005 -22.4296,87.2871 -0.155,31.4069 7.9097,60.8704 21.2187,86.8242 13.2309,25.8016 31.2284,47.3818 51.4434,64.9766 40.1959,34.9857 87.2704,53.2936 131.7187,63.539 86.3074,19.8939 168.4555,14.9498 241.6289,15.0997 l 1093.2969,2.2382 a 70.007,70.007 0 1 0 0.2871,-140 l -1093.2988,-2.2382 c -78.097,-0.16 -149.3708,2.5616 -210.4688,-11.5215 -29.2544,-6.7432 -54.3941,-18.0477 -71.25,-32.7188 -8.3108,-7.2336 -14.7579,-15.4081 -18.7832,-23.2578 -3.9471,-7.6974 -5.8265,-15.8416 -5.7949,-22.2519 0.032,-6.4644 2.0294,-14.6777 6.125,-22.4043 l 0,-0 c 4.1789,-7.8825 10.8274,-16.0596 19.3555,-23.2519 17.3044,-14.5941 42.9535,-25.6214 72.7051,-32.0118 62.169,-13.3533 134.2179,-9.8177 213.082,-9.334 l 378.3281,2.3204 c 89.9768,0.5519 185.2668,0.3639 281.9922,-20.4688 96.8717,-20.8642 191.1551,-62.1615 270.1152,-127.1211 78.9542,-64.9548 139.0372,-150.6388 174.293,-246.0137 35.1603,-95.1164 45.0703,-196.9145 34.9297,-295.375 -15.2948,-148.5046 -77.089,-293.3877 -183.2754,-402.4218 -106.6287,-109.4883 -255.4234,-177.8831 -411.0723,-177.2129 -72.9634,0.3142 -144.522,15.9932 -210.664,44.2168 -71.3895,-29.9297 -148.6192,-45.8628 -226.7578,-45.2285 z m 227.4882,202.2402 c 27.9041,16.3462 54.0766,35.5312 77.5879,57.4238 86.9974,81.0078 141.5663,199.1459 149.7012,318.9903 5.0063,73.7531 -7.8889,147.4493 -42.1211,204.9531 -17.0812,28.6931 -39.607,53.6661 -65.4551,71.8281 -25.722,18.0734 -55.6904,29.8504 -85.1601,33.1602 -32.6604,3.6681 -68.164,-2.7838 -99.5782,-17.7481 -31.601,-15.0532 -60.4567,-39.0794 -83.0175,-68.3555 -45.229,-58.6912 -66.0586,-140.0514 -64.2129,-221.6699 2.5636,-113.3699 47.5061,-227.1044 124.4648,-308.2832 25.7633,-27.176 55.5304,-50.7807 87.791,-70.2988 z"
             id="path4139-1-0-4-2-6-5"
             inkscape:connector-curvature="0" />
        </g>
      </g>
    </g>
  </g>
</svg>
