<?xml version="1.0" encoding="UTF-8" standalone="no"?>
<!-- Created with Inkscape (http://www.inkscape.org/) -->

<svg
   xmlns:dc="http://purl.org/dc/elements/1.1/"
   xmlns:cc="http://creativecommons.org/ns#"
   xmlns:rdf="http://www.w3.org/1999/02/22-rdf-syntax-ns#"
   xmlns:svg="http://www.w3.org/2000/svg"
   xmlns="http://www.w3.org/2000/svg"
   xmlns:sodipodi="http://sodipodi.sourceforge.net/DTD/sodipodi-0.dtd"
   xmlns:inkscape="http://www.inkscape.org/namespaces/inkscape"
   width="2000"
   height="2000"
   id="svg2992"
   version="1.1"
   inkscape:version="0.91 r13725"
   sodipodi:docname="തൂ.svg">
  <defs
     id="defs5498">
    <inkscape:path-effect
       effect="spiro"
       id="path-effect2987"
       is_visible="true" />
    <inkscape:path-effect
       is_visible="true"
       id="path-effect2987-8"
       effect="spiro" />
    <inkscape:path-effect
       is_visible="true"
       id="path-effect2987-3"
       effect="spiro" />
    <inkscape:path-effect
       is_visible="true"
       id="path-effect4141-3-4-6"
       effect="spiro" />
    <inkscape:path-effect
       is_visible="true"
       id="path-effect4141-3-4-6-8"
       effect="spiro" />
    <inkscape:path-effect
       is_visible="true"
       id="path-effect4141-3-4-6-8-5"
       effect="spiro" />
    <inkscape:path-effect
       is_visible="true"
       id="path-effect4141-3-4-6-8-5-4"
       effect="spiro" />
    <inkscape:path-effect
       is_visible="true"
       id="path-effect4141-3-4-6-8-5-6"
       effect="spiro" />
    <inkscape:path-effect
       is_visible="true"
       id="path-effect2987-5"
       effect="spiro" />
    <inkscape:path-effect
       is_visible="true"
       id="path-effect4141-3-4-6-87"
       effect="spiro" />
    <inkscape:path-effect
       is_visible="true"
       id="path-effect4141-3-4-6-8-0"
       effect="spiro" />
    <inkscape:path-effect
       is_visible="true"
       id="path-effect4141-3-4-6-8-8"
       effect="spiro" />
    <inkscape:path-effect
       is_visible="true"
       id="path-effect4141-3-4-6-8-0-8"
       effect="spiro" />
    <inkscape:path-effect
       is_visible="true"
       id="path-effect4141-3-4-6-8-0-8-7"
       effect="spiro" />
    <inkscape:path-effect
       is_visible="true"
       id="path-effect4141-3-4-6-8-0-8-7-0"
       effect="spiro" />
    <inkscape:path-effect
       is_visible="true"
       id="path-effect4141-3-4-6-8-0-8-7-2"
       effect="spiro" />
    <inkscape:path-effect
       is_visible="true"
       id="path-effect4141-3-4-6-8-0-8-7-1"
       effect="spiro" />
    <inkscape:path-effect
       is_visible="true"
       id="path-effect4141-3-4-6-8-0-8-7-01"
       effect="spiro" />
    <inkscape:path-effect
       is_visible="true"
       id="path-effect4141-3-4-6-8-0-8-7-01-8"
       effect="spiro" />
    <inkscape:path-effect
       is_visible="true"
       id="path-effect4141-3-4-6-8-0-8-7-5"
       effect="spiro" />
  </defs>
  <sodipodi:namedview
     inkscape:window-height="842"
     inkscape:window-width="1600"
     inkscape:pageshadow="2"
     inkscape:pageopacity="0.0"
     borderopacity="1.0"
     bordercolor="#666666"
     pagecolor="#ffffff"
     id="base"
     showgrid="true"
     showguides="true"
     inkscape:guide-bbox="true"
     inkscape:zoom="0.25"
     inkscape:cx="951.53922"
     inkscape:cy="746.21753"
     inkscape:window-x="1600"
     inkscape:window-y="0"
     inkscape:current-layer="layer1-7"
     inkscape:window-maximized="1">
    <sodipodi:guide
       orientation="horizontal"
       position="1800,600"
       id="guide5596" />
    <inkscape:grid
       type="xygrid"
       id="grid3769"
       empspacing="5"
       visible="true"
       enabled="true"
       snapvisiblegridlinesonly="true" />
    <sodipodi:guide
       orientation="0,1"
       position="-2720,1600"
       id="guide4772" />
  </sodipodi:namedview>
  <metadata
     id="metadata5594">
    <rdf:RDF>
      <cc:Work
         rdf:about="">
        <dc:format>image/svg+xml</dc:format>
        <dc:type
           rdf:resource="http://purl.org/dc/dcmitype/StillImage" />
        <dc:title />
      </cc:Work>
    </rdf:RDF>
  </metadata>
  <g
     inkscape:label="Layer 1"
     inkscape:groupmode="layer"
     id="layer1"
     transform="translate(0,1000)">
    <g
       id="layer1-5"
       inkscape:label="Layer 1"
       transform="translate(61.428743,14.362694)">
      <g
         transform="translate(-500.76683,-332.68778)"
         id="layer1-54"
         inkscape:label="Layer 1">
        <g
           transform="translate(-561.73379,157.27604)"
           id="layer1-7"
           inkscape:label="Layer 1">
          <path
             sodipodi:nodetypes="csassacaaaaaaac"
             inkscape:connector-curvature="0"
             inkscape:original-d="m 2850.639,997.78976 -1095.5629,3.07144 c -30.5414,0.086 -388.2513,-13.80393 -388.2931,-152.90932 -0.043,-142.2981 379.8405,-156.65383 397.111,-156.6576 l 638.309,-0.13932 c 405.6456,-0.0885 366.411,-79.75836 400.6023,-229.86977 29.7787,-130.73874 -227.7818,-331.55689 -227.7818,-331.55689 0,0 165.2115,-177.013152 143.3319,-279.36287 -27.5399,-128.82773 -176.6753,-247.48685 -308.4133,-247.13665 -266.3784,0.70811 -585.1054,239.07059 -620.9558,503.0265 -21.5156,158.41291 118.7806,389.57693 278.646,390.35182 163.6073,0.79303 304.1403,-233.79536 289.0272,-396.704991 -22.484,-242.363539 -287.8624,-505.732299 -531.2209,-501.013829 -215.3647,4.1757 -427.3419,247.34935 -452.5737,461.271625 -20.2125,171.366715 266.6238,443.720175 266.6238,443.720175"
             inkscape:path-effect="#path-effect4141-3-4-6-8-0-8-7"
             id="path4139-1-0-4-2-6-8"
             d="m 2850.639,997.78976 -1095.5629,3.07144 c -77.0363,0.216 -154.929,5.2447 -230.5768,-9.31735 -37.8238,-7.28104 -75.2225,-20.73339 -105.2647,-44.84002 -15.021,-12.05332 -28.042,-26.7377 -37.3678,-43.58837 -9.3257,-16.85067 -14.8847,-35.90546 -15.0838,-55.16358 -0.204,-19.74097 5.2306,-39.37855 14.6356,-56.73634 9.405,-17.35779 22.7006,-32.47658 38.0845,-44.84919 30.7679,-24.74521 69.1955,-38.37524 107.9991,-45.67363 77.6073,-14.59679 157.4237,-9.3812 236.3918,-9.39844 l 638.309,-0.13932 c 83.9594,-0.0183 170.7242,-4.10226 245.9742,-41.33958 37.6251,-18.61866 71.6585,-44.72366 98.4723,-77.02409 26.8137,-32.30043 46.3144,-70.69626 56.1558,-111.5061 17.7225,-73.49092 2.8081,-154.2325 -39.9993,-216.54247 -42.8074,-62.30996 -112.8253,-105.19507 -187.7825,-115.01442 51.6377,-23.05529 95.0122,-64.143515 120.8271,-114.458447 25.815,-50.314932 33.8937,-109.512223 22.5048,-164.904423 -14.1489,-68.81576 -57.6074,-129.81488 -113.9618,-171.76704 -56.3543,-41.95217 -124.858,-65.74969 -194.4515,-75.36961 -147.69,-20.4152 -302.9753,23.5573 -418.6295,117.64886 -115.6542,94.09155 -190.2031,236.777027 -202.3263,385.37764 -7.297,89.44371 8.1786,182.76784 56.5283,258.37031 24.1748,37.80123 56.3558,70.6921 94.6144,94.13638 38.2586,23.44428 82.6367,37.25568 127.5033,37.84513 46.0425,0.6049 91.9163,-12.73217 131.5052,-36.24791 39.5889,-23.51573 72.9397,-56.99961 98.0041,-95.62668 50.1288,-77.25413 66.2425,-172.98338 59.5179,-264.830401 -9.8339,-134.314877 -68.0108,-265.478249 -164.7672,-359.155299 -96.7564,-93.67706 -231.9156,-147.91483 -366.4537,-141.85853 -118.3197,5.32622 -233.8712,57.17121 -316.7436,141.78849 -82.8724,84.61727 -132.2762,201.096947 -135.8301,319.483135 -2.7351,91.110655 21.2345,182.863805 68.1824,260.995295 46.9478,78.1315 116.7101,142.3686 198.4414,182.72488"
             style="fill:none;fill-rule:evenodd;stroke:#000000;stroke-width:140;stroke-linecap:round;stroke-linejoin:round;stroke-miterlimit:4;stroke-dasharray:none;stroke-opacity:1" />
          <path
             style="color:#000000;font-style:normal;font-variant:normal;font-weight:normal;font-stretch:normal;font-size:medium;line-height:normal;font-family:sans-serif;text-indent:0;text-align:start;text-decoration:none;text-decoration-line:none;text-decoration-style:solid;text-decoration-color:#000000;letter-spacing:normal;word-spacing:normal;text-transform:none;direction:ltr;block-progression:tb;writing-mode:lr-tb;baseline-shift:baseline;text-anchor:start;white-space:normal;clip-rule:nonzero;display:inline;overflow:visible;visibility:visible;opacity:1;isolation:auto;mix-blend-mode:normal;color-interpolation:sRGB;color-interpolation-filters:linearRGB;solid-color:#000000;solid-opacity:1;fill:#000000;fill-opacity:1;fill-rule:evenodd;stroke:none;stroke-width:120;stroke-linecap:round;stroke-linejoin:round;stroke-miterlimit:4;stroke-dasharray:none;stroke-dashoffset:0;stroke-opacity:1;color-rendering:auto;image-rendering:auto;shape-rendering:auto;text-rendering:auto;enable-background:accumulate"
             d="m 4725.7109,562.18945 c -90.3175,1.59704 -179.2071,33.40179 -249.3379,91.62891 -70.2549,58.33023 -118.6998,141.0227 -133.2539,231.99219 a 60.006,60.006 0 0 0 0,0.002 c -13.4097,83.81712 2.6412,170.6199 45.1368,244.0996 42.4955,73.4796 109.7273,130.6826 189.0644,160.8613 a 60.006,60.006 0 0 0 6.0274,2.0098 c -26.7677,1.016 -54.5134,3.5248 -83.1133,9.5371 -34.6639,7.287 -72.1549,20.8784 -104.3965,48.7305 -16.2456,14.0339 -30.7071,31.473 -41.0781,52.6074 -10.4513,21.2979 -16.3375,45.5553 -14.9356,71.3555 1.3336,24.5391 9.0782,46.9415 20.6446,66.2675 11.4845,19.1894 26.3401,34.7145 42.5292,47.0528 32.1371,24.4926 68.0426,35.8716 100.9688,41.8262 63.3971,11.4651 122.3433,7.0973 174.4941,6.9511 l 754.8399,-2.1152 a 60.006,60.006 0 1 0 -0.3379,-120 l -754.8399,2.1172 c -57.1641,0.1602 -108.6272,2.9515 -152.8007,-5.0371 -20.8591,-3.7723 -38.2512,-10.545 -49.586,-19.1836 -5.5466,-4.2273 -9.7509,-8.9759 -12.3008,-13.2364 -2.468,-4.1239 -3.6396,-8.4047 -3.789,-11.1542 -0.1561,-2.8716 0.6435,-7.4988 2.8418,-11.9786 2.2786,-4.6433 6.3113,-9.927 11.7949,-14.664 11.2165,-9.6895 29.101,-17.5783 50.6367,-22.1055 45.6507,-9.5967 99.5251,-6.944 159.461,-6.957 l 439.7929,-0.096 c 58.0493,-0.012 125.1588,-1.2554 190.6875,-31.002 32.4759,-14.7423 62.6877,-35.684 87.7442,-62.9316 25.0778,-27.2709 44.1984,-60.0115 55.0429,-96.1953 19.9672,-66.6227 9.9846,-138.9037 -27.2949,-197.6192 -14.0167,-22.0762 -31.4143,-41.47172 -51.3203,-57.63279 7.4084,-8.27253 14.3791,-16.98355 20.5078,-26.40429 30.2762,-46.53924 41.6486,-102.82965 31.8145,-157.47266 -6.5185,-36.21971 -21.884,-69.3016 -42.9102,-97.5 -20.9563,-28.10466 -47.0597,-50.80239 -75.5195,-68.30859 -56.7957,-34.93609 -120.5066,-48.23435 -180.6563,-51.02149 -73.9867,-3.42829 -148.8675,9.12019 -217.623,37.63281 -58.4328,-28.31933 -123.2551,-43.21804 -188.9356,-42.05664 z m 2.1211,119.98243 c 18.3911,-0.32521 36.9071,1.24306 55.2012,4.51953 -76.3446,68.54647 -128.892,163.21735 -140.9746,267.10937 -8.52,73.25962 3.3265,152.08292 46.4687,218.58202 21.5862,33.2729 50.4602,62.3436 85.7442,83.418 35.405,21.1466 76.2683,33.5659 118.9277,33.8808 43.5985,0.3219 85.4393,-12.0194 121.6582,-33.3535 36.0822,-21.2535 65.5681,-50.7391 87.668,-84.4297 44.1354,-67.2827 56.6947,-146.8767 50.0137,-220.93551 -8.6798,-96.21396 -49.989,-187.94793 -116.5215,-258.02539 29.8246,-5.60681 60.3811,-7.85787 90.6972,-6.45312 46.034,2.13306 89.5956,12.60457 123.3399,33.36132 16.8101,10.34024 31.3751,23.32499 42.1894,37.82813 10.7444,14.40938 18.1143,30.9347 21.0098,47.02344 4.2465,23.59525 -1.2272,50.68315 -14.3008,70.77929 -13.0736,20.09613 -35.6203,36.07762 -58.9121,41.75782 a 60.006,60.006 0 0 0 5.3574,117.63472 c 32.963,4.9215 65.7841,26.268 83.6485,54.4043 17.8642,28.1364 23.2225,66.9223 13.6543,98.8477 -5.3553,17.8683 -15.3084,35.1554 -28.4258,49.4199 -13.1388,14.2878 -30.1103,26.3086 -49.0156,34.8906 -37.2339,16.9023 -86.3056,20.2579 -141.1114,20.2696 l -439.7929,0.096 c -21.2755,0 -43.9744,-0.4744 -67.3223,-0.4883 a 60.006,60.006 0 0 0 2.9512,-113.6953 c -52.8561,-20.1057 -99.5382,-59.8238 -127.8496,-108.7774 -28.3115,-48.9537 -39.4573,-109.22565 -30.5235,-165.06637 9.6949,-60.59755 43.5752,-118.90635 91.416,-158.62695 47.9651,-39.8237 111.6516,-62.854 174.8047,-63.9707 z m 182.041,58.85742 c 8.6471,6.33481 16.9713,13.07296 24.8204,20.29297 55.3992,50.95907 91.5269,125.01045 98.33,200.42187 4.7368,52.50706 -5.2691,105.35836 -30.8359,144.33396 a 60.006,60.006 0 0 0 0,0 c -12.7511,19.4386 -29.5686,35.8568 -48.2344,46.8515 -18.5292,10.9144 -39.9275,16.8992 -59.8672,16.752 -19.5134,-0.1441 -40.306,-6.1696 -58.2793,-16.9043 l -0,0 c -18.0941,-10.8076 -34.3547,-26.8206 -46.6074,-45.707 -24.5364,-37.8203 -33.7884,-89.1523 -27.9434,-139.41019 9.4127,-80.93514 56.7865,-159.35547 123.625,-209.625 8.0374,-6.045 16.3933,-11.69999 24.9941,-17.00781 z"
             id="path4139-1-0-4-2-6-8-15"
             inkscape:connector-curvature="0" />
          <path
             sodipodi:nodetypes="csassacaaaaasac"
             inkscape:connector-curvature="0"
             inkscape:original-d="m 4175.2258,1571.1798 -754.8398,2.1163 c -21.043,0.059 -276.8547,-6.0973 -278.5568,-105.3542 -1.7632,-102.8155 272.733,-118.958 284.6323,-118.9606 l 439.7931,-0.096 c 279.4887,-0.061 249.4678,-46.4954 276.0139,-147.3556 23.0967,-87.7546 -145.9171,-229.81979 -145.9171,-229.81979 0,0 132.0327,-110.6662 118.0472,-181.4563 -19.0582,-96.4663 -144.5239,-170.4296 -242.8118,-167.5204 -180.8817,5.3538 -401.8918,155.0905 -427.8368,334.1818 -15.7923,109.01029 81.8395,268.41749 191.9863,268.95139 112.725,0.5464 210.4597,-161.1723 199.139,-273.32859 -16.591,-164.3701 -208.7966,-384.9353 -366.0097,-334.1732 -108.7747,35.1219 -300.0251,133.874 -324.4067,273.1093 -22.5424,128.73319 91.5682,234.68679 196.2877,339.40349"
             inkscape:path-effect="#path-effect4141-3-4-6-8-0-8-7-01-8"
             id="path4139-1-0-4-2-6-8-15-0"
             d="m 4175.2258,1571.1798 -754.8398,2.1163 c -54.6575,0.1532 -109.8619,3.7332 -163.6472,-5.9937 -26.8926,-4.8634 -53.5421,-13.9399 -75.278,-30.5055 -10.8679,-8.2828 -20.3979,-18.4196 -27.4151,-30.1445 -7.0172,-11.725 -11.475,-25.0662 -12.2165,-38.7105 -0.779,-14.3359 2.5632,-28.7784 8.888,-41.6672 6.3248,-12.8889 15.5721,-24.25 26.4367,-33.6355 21.7291,-18.7708 49.4176,-29.5117 77.5174,-35.4188 56.1998,-11.8144 114.3621,-8.2266 171.7902,-8.2391 l 439.7931,-0.096 c 56.4275,-0.012 114.5187,-2.3121 165.9,-25.6365 25.6906,-11.6622 49.2824,-28.1438 68.38,-48.9115 19.0976,-20.7677 33.634,-45.7815 41.7339,-72.8076 14.7677,-49.274 7.0972,-104.8071 -20.4747,-148.2329 -27.5719,-43.4259 -74.5669,-73.99105 -125.4424,-81.58689 38.6159,-9.4173 73.3149,-34.01245 94.9899,-67.33013 21.6749,-33.31768 30.0976,-75.00704 23.0573,-114.12617 -4.707,-26.15422 -16.0746,-50.95765 -31.9599,-72.26154 -15.8853,-21.30389 -36.2194,-39.1458 -58.8544,-53.06901 -45.27,-27.84641 -98.9057,-39.72976 -151.9975,-42.18985 -99.4798,-4.60955 -201.0896,23.67688 -280.6783,83.53592 -79.5887,59.85904 -135.6542,151.7261 -147.1585,250.64588 -7.1825,61.75879 3.3674,126.83649 37.2067,178.99619 16.9196,26.0799 39.4868,48.6215 66.1762,64.5625 26.6893,15.9409 57.5167,25.1632 88.6034,25.3927 31.7691,0.2345 63.3888,-8.9281 90.7628,-25.0523 27.3741,-16.1241 50.5258,-39.0773 67.9513,-65.6419 34.8511,-53.1292 46.1338,-119.3515 40.4249,-182.63439 -8.1645,-90.5022 -50.5897,-177.67172 -117.4685,-239.19032 -66.8787,-61.51859 -157.6857,-96.58944 -248.5412,-94.98288 -76.7353,1.35688 -153.0242,28.77394 -212.0721,77.79936 -59.0479,49.02541 -100.2101,119.52642 -112.3346,195.30994 -11.1718,69.82892 2.4261,143.36669 37.8296,204.58339 35.4035,61.2166 92.3615,109.6779 158.4581,134.8201"
             style="fill:none;fill-rule:evenodd;stroke:#000000;stroke-width:120;stroke-linecap:round;stroke-linejoin:round;stroke-miterlimit:4;stroke-dasharray:none;stroke-opacity:1" />
          <path
             style="color:#000000;font-style:normal;font-variant:normal;font-weight:normal;font-stretch:normal;font-size:medium;line-height:normal;font-family:sans-serif;text-indent:0;text-align:start;text-decoration:none;text-decoration-line:none;text-decoration-style:solid;text-decoration-color:#000000;letter-spacing:normal;word-spacing:normal;text-transform:none;direction:ltr;block-progression:tb;writing-mode:lr-tb;baseline-shift:baseline;text-anchor:start;white-space:normal;clip-rule:nonzero;display:inline;overflow:visible;visibility:visible;opacity:1;isolation:auto;mix-blend-mode:normal;color-interpolation:sRGB;color-interpolation-filters:linearRGB;solid-color:#000000;solid-opacity:1;fill:#000000;fill-opacity:1;fill-rule:evenodd;stroke:none;stroke-width:140;stroke-linecap:round;stroke-linejoin:round;stroke-miterlimit:4;stroke-dasharray:none;stroke-dashoffset:0;stroke-opacity:1;color-rendering:auto;image-rendering:auto;shape-rendering:auto;text-rendering:auto;enable-background:accumulate"
             d="m 352.86719,-467.62305 c -83.00677,1.68869 -165.17377,20.38877 -240.79883,54.18164 -81.063585,-38.18117 -170.877399,-57.69151 -261.77734,-53.59961 -136.66062,6.15185 -267.97463,65.09397 -363.60547,162.73829 -95.61083,97.62388 -151.69269,229.903405 -155.78907,366.361324 -3.14541,104.780116 24.15887,209.296716 78.1504,299.150386 53.99152,89.85367 133.45762,163.02652 227.45117,209.4375 a 70.007,70.007 0 1 0 61.98242,-125.53125 c -69.46903,-34.30157 -129.52742,-89.60435 -169.43164,-156.01367 -39.90421,-66.40931 -60.53957,-145.40059 -58.21485,-222.841794 3.01137,-100.314455 45.7371,-200.992866 115.8711,-272.603516 70.114,-71.59023 169.90207,-116.3373 269.88086,-120.83789 34.92805,-1.5723 70.247923,1.80937 104.837888,9.52539 -123.094758,106.41523 -200.975738,260.059704 -214.205078,422.21875 -8.27011,101.37112 8.54031,209.85926 67.32422,301.77734 29.4366,46.02883 68.79448,86.56066 117.011718,116.10743 48.377476,29.64495 104.536094,47.38412 163.158203,48.15429 60.167539,0.79048 118.162869,-16.35219 168.173829,-46.05859 49.83246,-29.60036 90.53305,-70.7901 120.97656,-117.70703 C 444.63657,313.1774 462.05052,202.29256 454.47266,98.791016 443.41303,-52.265667 378.72388,-198.90842 268.58203,-305.54492 c -3.36775,-3.26057 -6.89322,-6.34402 -10.33789,-9.51953 55.90811,-12.93693 113.93274,-16.13108 170.11328,-8.36524 60.2545,8.32899 117.50657,28.87934 162.23633,62.17774 44.11085,32.83765 77.09756,80.60245 87.19531,129.71484 8.09248,39.35934 2.12425,83.10186 -16.21875,118.853516 -18.343,35.751657 -50.39435,66.112032 -87.08593,82.494141 a 70.007,70.007 0 0 0 19.44726,133.324223 c 54.4973,7.1391 108.05484,39.94391 139.17774,85.24609 31.12289,45.30217 42.53154,107.06291 29.64648,160.49414 -7.24677,30.05063 -21.9128,59.04762 -41.9668,83.20508 -20.05963,24.16426 -46.30542,44.47093 -75.6582,58.99609 -57.90326,28.6533 -133.2434,34.06032 -214.94336,34.07813 l -638.30859,0.14062 c -75.87561,0.0166 -160.16377,-6.16477 -249.31641,10.60352 -46.11216,8.67301 -95.76333,25.20318 -138.92969,59.91992 -21.73664,17.48178 -41.30147,39.36477 -55.75976,66.04883 -14.55929,26.87041 -23.4277,57.74284 -23.08594,90.80859 0.33333,32.24954 9.38909,62.2355 23.83398,88.33594 14.35003,25.92901 33.5398,47.22553 54.80469,64.28908 42.24493,33.8985 90.71266,50.2932 135.8418,58.9804 87.34368,16.8135 169.88155,10.788 244.0039,10.5801 l 1095.56446,-3.0722 a 70.007,70.007 0 1 0 -0.39258,-140.00004 l -1095.56445,3.07227 c -79.95021,0.22417 -153.19662,4.25592 -217.14844,-8.05469 -30.51861,-5.87479 -56.84622,-16.38445 -74.68555,-30.69922 -8.77723,-7.04309 -15.63016,-15.11634 -19.93164,-22.88867 -4.2066,-7.6009 -6.26921,-15.72354 -6.33398,-21.99023 -0.0663,-6.4162 1.93477,-14.82085 6.18554,-22.66602 4.35175,-8.03153 11.37695,-16.38501 20.40821,-23.64844 18.36943,-14.7737 45.57321,-25.50396 77.06836,-31.42773 66.06194,-12.42527 141.4082,-8.1735 223.46875,-8.19141 l 638.30859,-0.14062 c 86.21886,-0.0188 184.4071,-2.77829 277.00391,-48.59961 45.89724,-22.71216 87.71922,-54.61616 121.28711,-95.05274 33.57354,-40.4434 57.90971,-88.23758 70.3457,-139.80664 22.55994,-93.55061 4.13831,-193.27209 -50.35352,-272.58984 -27.22938,-39.63482 -62.44613,-72.68845 -102.77343,-97.40235 15.61953,-18.478627 29.23953,-38.721506 40.40234,-60.478511 33.28686,-64.878207 43.47637,-139.53197 28.79102,-210.957029 -18.19999,-88.51913 -72.13061,-162.75169 -140.72852,-213.81836 -67.979,-50.60594 -147.73349,-77.64969 -226.66602,-88.56055 -31.46025,-4.34875 -63.11862,-6.1534 -94.66015,-5.51172 z m -242.7461,213.71875 c 21.80691,14.50732 42.36421,30.82118 61.08008,48.94141 83.37095,80.7176 135.03642,196.4034906 143.64453,313.97656 5.8713,80.1925 -8.94152,160.76551 -48.42578,221.61524 -19.68524,30.33721 -45.68585,56.11577 -75.03125,73.54687 -29.16692,17.32508 -62.91856,26.85683 -94.835936,26.4375 C 65.441715,430.20455 32.842884,420.31977 4.703125,403.07617 -23.596868,385.73438 -48.60059,360.48574 -67.513672,330.91211 -105.4291,271.62525 -119.57007,193.46357 -113.24609,115.94727 c 10.52744,-129.040453 76.530876,-255.24805 176.734371,-336.76954 14.762769,-12.01038 30.411293,-22.97141 46.632809,-33.08203 z"
             id="path4139-1-0-4-2-6-8-7"
             inkscape:connector-curvature="0" />
        </g>
      </g>
    </g>
  </g>
</svg>
