<?xml version="1.0" encoding="UTF-8" standalone="no"?>
<!-- Created with Inkscape (http://www.inkscape.org/) -->

<svg
   xmlns:dc="http://purl.org/dc/elements/1.1/"
   xmlns:cc="http://creativecommons.org/ns#"
   xmlns:rdf="http://www.w3.org/1999/02/22-rdf-syntax-ns#"
   xmlns:svg="http://www.w3.org/2000/svg"
   xmlns="http://www.w3.org/2000/svg"
   xmlns:sodipodi="http://sodipodi.sourceforge.net/DTD/sodipodi-0.dtd"
   xmlns:inkscape="http://www.inkscape.org/namespaces/inkscape"
   width="2000"
   height="2000"
   id="svg2992"
   version="1.1"
   inkscape:version="0.91 r13725"
   sodipodi:docname="തൃ.svg">
  <defs
     id="defs5498">
    <inkscape:path-effect
       effect="spiro"
       id="path-effect2987"
       is_visible="true" />
    <inkscape:path-effect
       is_visible="true"
       id="path-effect2987-6"
       effect="spiro" />
    <inkscape:path-effect
       is_visible="true"
       id="path-effect2987-5"
       effect="spiro" />
    <inkscape:path-effect
       is_visible="true"
       id="path-effect4141-3-4-6"
       effect="spiro" />
    <inkscape:path-effect
       is_visible="true"
       id="path-effect4141-3-4-6-8"
       effect="spiro" />
    <inkscape:path-effect
       is_visible="true"
       id="path-effect4141-3-4-6-8-8"
       effect="spiro" />
    <inkscape:path-effect
       is_visible="true"
       id="path-effect4141-3-4-6-8-0"
       effect="spiro" />
    <inkscape:path-effect
       is_visible="true"
       id="path-effect4141-3-4-6-8-0-4"
       effect="spiro" />
    <inkscape:path-effect
       effect="spiro"
       id="path-effect4141-3-4-6-8-86"
       is_visible="true" />
    <inkscape:path-effect
       effect="spiro"
       id="path-effect4141-3-4-6-8-86-4"
       is_visible="true" />
    <inkscape:path-effect
       effect="spiro"
       id="path-effect4141-3-4-6-8-86-3"
       is_visible="true" />
    <inkscape:path-effect
       effect="spiro"
       id="path-effect4141-3-4-6-8-86-5"
       is_visible="true" />
    <inkscape:path-effect
       effect="spiro"
       id="path-effect4141-3-4-6-8-86-5-8"
       is_visible="true" />
    <inkscape:path-effect
       effect="spiro"
       id="path-effect4141-3-4-6-8-86-0"
       is_visible="true" />
    <inkscape:path-effect
       effect="spiro"
       id="path-effect4141-3-4-6-8-86-0-6"
       is_visible="true" />
    <inkscape:path-effect
       effect="spiro"
       id="path-effect4141-3-4-6-8-86-5-7"
       is_visible="true" />
    <inkscape:path-effect
       effect="spiro"
       id="path-effect4141-3-4-6-8-86-5-7-5"
       is_visible="true" />
    <inkscape:path-effect
       effect="spiro"
       id="path-effect4187"
       is_visible="true" />
    <inkscape:path-effect
       effect="spiro"
       id="path-effect4183"
       is_visible="true" />
    <inkscape:path-effect
       effect="spiro"
       id="path-effect4183-3"
       is_visible="true" />
    <inkscape:path-effect
       effect="spiro"
       id="path-effect4187-9"
       is_visible="true" />
    <inkscape:path-effect
       effect="spiro"
       id="path-effect4183-1"
       is_visible="true" />
    <inkscape:path-effect
       effect="spiro"
       id="path-effect4187-2"
       is_visible="true" />
  </defs>
  <sodipodi:namedview
     inkscape:window-height="844"
     inkscape:window-width="1600"
     inkscape:pageshadow="2"
     inkscape:pageopacity="0.0"
     borderopacity="1.0"
     bordercolor="#666666"
     pagecolor="#ffffff"
     id="base"
     showgrid="true"
     showguides="true"
     inkscape:guide-bbox="true"
     inkscape:zoom="0.35355339"
     inkscape:cx="1323.8176"
     inkscape:cy="-803.8902"
     inkscape:window-x="1600"
     inkscape:window-y="0"
     inkscape:current-layer="layer1-5"
     inkscape:window-maximized="1">
    <inkscape:grid
       type="xygrid"
       id="grid3769"
       empspacing="5"
       visible="true"
       enabled="true"
       snapvisiblegridlinesonly="true" />
    <sodipodi:guide
       orientation="0,1"
       position="-3440,1600"
       id="guide4151"
       inkscape:label=""
       inkscape:color="rgb(0,0,255)" />
    <sodipodi:guide
       position="2040,0"
       orientation="0,1"
       id="guide4200" />
    <sodipodi:guide
       position="1320,600"
       orientation="0,1"
       id="guide4176"
       inkscape:label=""
       inkscape:color="rgb(0,0,255)" />
  </sodipodi:namedview>
  <metadata
     id="metadata5594">
    <rdf:RDF>
      <cc:Work
         rdf:about="">
        <dc:format>image/svg+xml</dc:format>
        <dc:type
           rdf:resource="http://purl.org/dc/dcmitype/StillImage" />
        <dc:title />
      </cc:Work>
    </rdf:RDF>
  </metadata>
  <g
     inkscape:label="Layer 1"
     inkscape:groupmode="layer"
     id="layer1"
     transform="translate(0,1000)">
    <g
       id="layer1-3"
       inkscape:label="Layer 1"
       transform="translate(-0.95658678,1.469116)">
      <g
         transform="translate(515.97655,-246.37705)"
         id="layer1-5"
         inkscape:label="Layer 1">
        <path
           style="fill:none;fill-rule:evenodd;stroke:#000000;stroke-width:120;stroke-linecap:round;stroke-linejoin:round;stroke-miterlimit:4;stroke-dasharray:none;stroke-opacity:1"
           d="m 2808.8604,1516.8405 c -68.8949,-51.7289 -150.519,-86.3734 -235.589,-99.993 -36.9019,-5.908 -75.6456,-7.7527 -110.7838,4.9738 -17.5691,6.3632 -33.9596,16.3942 -46.6747,30.087 -12.715,13.6927 -21.62,31.1401 -23.961,49.6788 -2.6166,20.7213 3.0922,42.1054 14.3208,59.7161 11.2287,17.6107 27.7371,31.5444 46.2531,41.2077 37.0319,19.3265 80.5437,21.5898 122.2627,19.4923 110.6278,-5.562 220.4181,-39.7876 311.5683,-102.7248 73.0728,-50.4552 133.6555,-119.0965 173.6132,-198.398 39.9577,-79.3015 59.0923,-169.1419 53.7678,-257.7816 -4.8815,-81.26468 -30.7216,-162.04229 -79.1775,-227.46242 -48.456,-65.42014 -120.2143,-114.53988 -200.1406,-130.01785 -92.3102,-17.87615 -191.3625,10.74661 -263.4743,71.0841 -72.1118,60.3375 -117.2411,150.38964 -127.926,243.80567 -7.2706,63.5656 1.4023,130.5574 34.5575,185.2765 16.5776,27.3596 39.1325,51.2632 66.269,68.2034 27.1366,16.9401 58.8919,26.7605 90.8818,26.6854 32.2084,-0.076 64.1326,-10.1854 91.2932,-27.497 27.1605,-17.3116 49.5935,-41.6652 65.8641,-69.4618 32.5413,-55.5932 39.8469,-123.3642 30.6053,-187.1147 -8.8667,-61.16442 -32.4467,-120.25231 -68.871,-170.182 -36.4243,-49.92969 -85.6946,-90.54632 -142.037,-115.94788 -56.3424,-25.40156 -119.6551,-35.42816 -180.9835,-27.7772 -61.3283,7.65096 -120.4602,33.06968 -167.632,73.00115 -41.1495,34.8335 -73.0339,80.51323 -91.5426,131.14999 -18.5087,50.63676 -23.5978,106.11064 -14.6113,159.26984 8.9866,53.1591 32.0275,103.8777 66.1523,145.6168 34.1248,41.739 79.2526,74.3999 129.5655,93.7717"
           id="path4139-1-0-4-2-1-7-0"
           inkscape:path-effect="#path-effect4141-3-4-6-8-86-5"
           inkscape:original-d="m 2808.8604,1516.8405 c 0,0 -150.2922,-101.5106 -235.589,-99.993 -66.7343,1.1875 -176.5707,18.1712 -181.4195,84.7396 -5.3014,72.783 110.4952,110.8142 182.8366,120.4161 108.4045,14.3885 228.8828,-31.1588 311.5683,-102.7248 128.4663,-111.1903 244.4159,-287.1332 227.381,-456.1796 -15.1618,-150.45928 -129.0961,-340.12529 -279.3181,-357.48027 -166.3417,-19.21727 -366.939,149.23801 -391.4003,314.88977 -16.5306,111.9451 78.5529,281.0731 191.7083,280.1653 113.5023,-0.9105 220.2299,-175.31 187.7626,-284.0735 -58.0836,-194.57616 -399.838,-366.34173 -559.5235,-240.90593 -140.8497,110.63998 89.5639,529.80833 89.5639,529.80833"
           inkscape:connector-curvature="0"
           sodipodi:nodetypes="caaaaaaaaaac" />
        <path
           style="color:#000000;font-style:normal;font-variant:normal;font-weight:normal;font-stretch:normal;font-size:medium;line-height:normal;font-family:sans-serif;text-indent:0;text-align:start;text-decoration:none;text-decoration-line:none;text-decoration-style:solid;text-decoration-color:#000000;letter-spacing:normal;word-spacing:normal;text-transform:none;direction:ltr;block-progression:tb;writing-mode:lr-tb;baseline-shift:baseline;text-anchor:start;white-space:normal;clip-rule:nonzero;display:inline;overflow:visible;visibility:visible;opacity:1;isolation:auto;mix-blend-mode:normal;color-interpolation:sRGB;color-interpolation-filters:linearRGB;solid-color:#000000;solid-opacity:1;fill:#000000;fill-opacity:1;fill-rule:evenodd;stroke:none;stroke-width:120;stroke-linecap:round;stroke-linejoin:round;stroke-miterlimit:4;stroke-dasharray:none;stroke-dashoffset:0;stroke-opacity:1;color-rendering:auto;image-rendering:auto;shape-rendering:auto;text-rendering:auto;enable-background:accumulate"
           d="m 2160.8477,1828.1094 c -18.2058,-0.2972 -36.4742,0.6665 -54.6622,2.9355 -72.8261,9.0854 -142.5098,38.9494 -198.9707,86.7442 -49.2272,41.6714 -86.9869,95.7707 -109.1289,156.3476 -22.142,60.5769 -28.1686,126.2747 -17.4179,189.8692 10.7505,63.5943 38.0377,123.6611 78.8613,173.5937 40.8236,49.9326 94.2676,88.6126 154.457,111.7871 a 60.006,60.006 0 1 0 43.1192,-111.9863 c -40.4364,-15.5691 -77.2478,-42.2102 -104.6739,-75.7559 -27.4259,-33.5455 -46.2209,-74.9168 -53.4433,-117.6406 -7.2225,-42.7239 -3.0707,-87.9734 11.8047,-128.6699 14.8754,-40.6967 40.8833,-77.9575 73.955,-105.9531 37.8828,-32.0682 86.4625,-53.0413 136.293,-59.2579 20.2157,-2.5219 40.8656,-2.5518 61.375,-0.4433 -65.4641,68.7248 -105.3274,158.6607 -115.9922,251.9004 -8.4236,73.6465 0.8541,153.8719 42.8535,223.1875 21.0506,34.7417 49.8353,65.5499 85.8106,88.0078 36.1368,22.5585 78.4325,35.8932 122.7949,35.7891 a 60.006,60.006 0 0 0 0,0 c 44.6697,-0.1055 87.1979,-13.8257 123.4004,-36.9004 36.0406,-22.9716 64.6981,-54.3872 85.3964,-89.7481 41.3028,-70.5612 48.955,-151.8646 38.2032,-226.0332 -10.2464,-70.6818 -37.3363,-138.7582 -79.7774,-196.9355 -12.8921,-17.6722 -27.2836,-34.1789 -42.7207,-49.6426 21.4786,-1.7776 42.9492,-0.8976 63.6406,3.1094 63.2455,12.2477 123.1913,52.6277 163.334,106.8242 40.4681,54.6357 63.2357,124.3598 67.5,195.3496 4.6631,77.6293 -12.2317,157.2723 -47.459,227.1855 -35.252,69.9625 -89.2261,131.213 -154.1211,176.0215 -1.0827,0.7477 -2.2037,1.4429 -3.2929,2.1817 a 60.006,60.006 0 0 0 -3.9863,-3.2266 c -76.8051,-57.6681 -167.2935,-96.0745 -262.1309,-111.2578 -41.45,-6.6362 -90.5401,-10.3609 -140.7012,7.8066 -25.3179,9.1697 -49.9413,23.8458 -70.209,45.6719 -20.5033,22.08 -35.3973,50.3305 -39.5214,82.9902 -4.6184,36.5734 5.1483,71.0877 23.2578,99.4903 17.8478,27.9919 42.5631,48.3016 69.0839,62.1426 52.4189,27.3567 107.0648,28.5358 153.0352,26.2246 120.9678,-6.0819 241.3281,-43.3173 342.6465,-113.2754 81.2507,-56.1019 148.4421,-132.1329 193.1055,-220.7735 44.6881,-88.6898 66.062,-188.7268 60.0761,-288.3769 -5.4987,-91.5396 -34.4115,-183.3736 -90.8554,-259.5781 -56.7693,-76.644 -140.3401,-134.5027 -236.9473,-153.211 -74.4368,-14.4149 -150.5368,-4.1043 -218.4043,25.4356 -47.2914,-19.9902 -98.1577,-31.0902 -149.5898,-31.9297 z m 150.5957,168.1855 c 29.4841,19.6844 55.7677,44.6558 76.7187,73.375 30.4075,41.6821 50.4778,91.7827 57.9649,143.4297 7.7313,53.3325 0.772,107.5702 -23.0079,148.1953 -11.8428,20.2323 -28.0516,37.5242 -46.332,49.1758 -18.1187,11.5485 -39.4385,18.0472 -59.1855,18.0938 -19.6174,0.046 -40.8324,-6.2604 -58.9688,-17.5821 -18.2977,-11.4225 -34.6219,-28.4229 -46.7266,-48.4004 -24.3109,-40.1226 -32.3773,-93.8805 -26.2597,-147.3652 9.012,-78.7904 47.7895,-155.2184 106.8164,-204.6074 6.0659,-5.0755 12.4409,-9.8036 18.9805,-14.3145 z m -109.5645,664.086 c 13.658,-0.2724 28.8446,1.0135 45.0215,3.6035 56.3562,9.0225 111.2837,28.5992 160.9219,57.0683 -49.1248,16.5466 -100.921,26.2961 -153.0313,28.9161 -37.4676,1.8837 -69.8453,-1.4636 -91.4902,-12.7598 -10.5112,-5.4857 -18.8123,-13.042 -23.4219,-20.2715 -4.3477,-6.8188 -5.9996,-15.0742 -5.3848,-19.9434 0.5579,-4.4176 3.4738,-11.0617 8.4004,-16.3671 5.1626,-5.5595 13.3204,-10.9453 23.1407,-14.502 10.0576,-3.6427 22.1858,-5.4718 35.8437,-5.7441 z"
           id="path4139-1-0-4-2-1-7-0-5"
           inkscape:connector-curvature="0" />
        <path
           style="fill:none;fill-rule:evenodd;stroke:#000000;stroke-width:70;stroke-linecap:round;stroke-linejoin:round;stroke-miterlimit:4;stroke-dasharray:none;stroke-opacity:1"
           d="m -1581.3721,962.42494 c -104.7795,-95.32072 -237.0439,-160.0751 -376.5944,-184.37407 -57.385,-9.99207 -117.8646,-13.01685 -172.5886,6.93722 -27.362,9.97704 -52.8466,25.73226 -72.5509,47.17898 -19.7043,21.44672 -33.4188,48.72349 -36.9146,77.63717 -3.8935,32.20382 5.0695,65.36833 22.55,92.69376 17.4805,27.3254 43.1126,48.9599 71.858,63.9914 57.4908,30.063 125.0514,33.7327 189.8494,30.5382 171.9948,-8.4793 342.4979,-62.1534 484.3975,-159.71687 110.84,-76.20838 203.7081,-178.92032 266.03,-298.12271 62.3218,-119.20239 93.7234,-254.7808 87.4808,-389.14693 -5.8862,-126.69459 -45.9108,-252.9018138 -121.613,-354.66298 -75.7023,-101.76117 -188.0193,-177.59801 -312.6449,-201.14854 -143.5243,-27.12181 -297.2017,17.43765 -409.2866,111.09545 -112.0849,93.6578 -182.4614,233.397154 -199.2262,378.49625 -11.4199,98.83904 2.0436,203.04171 53.6151,288.12959 25.7858,42.54394 60.8744,79.70664 103.0855,106.03374 42.2111,26.32711 91.6015,41.5761 141.3496,41.43867 50.0725,-0.13833 99.6975,-15.86826 141.9182,-42.78835 42.2207,-26.92009 77.0933,-64.78238 102.389,-107.99586 50.5914,-86.42698 61.9638,-191.78301 47.6087,-290.89427 -13.7738,-95.097699 -50.4279,-186.9689474 -107.0549,-264.600609 -56.627,-77.631661 -133.2294,-140.782931 -220.8279,-180.276921 -87.5986,-39.49399 -186.0351,-55.08217 -281.3858,-43.1857 -95.3507,11.89648 -187.286,51.41771 -260.6266,113.50185 -63.9787,54.15911 -113.5523,125.181572 -142.3297,203.9111457 -28.7774,78.7295743 -36.6905,164.9798743 -22.7192,247.6314643 13.9714,82.6516 49.7941,161.50883 102.8499,226.40538 53.0559,64.89655 123.2192,115.67879 201.4446,145.79985"
           id="path4139-1-0-4-2-1-7-8"
           inkscape:path-effect="#path-effect4141-3-4-6-8-86-0"
           inkscape:original-d="m -1581.3721,962.42494 c 0,0 -236.8317,-183.09668 -376.5944,-184.37407 -103.7654,-0.94839 -274.5154,28.25781 -282.0541,131.75337 -8.2426,113.15836 171.7857,172.29436 284.2574,187.22336 168.5382,22.371 355.1436,-49.2677 484.3975,-159.71687 195.8535,-167.35932 377.7118,-430.78957 353.5108,-687.26964 -22.0868,-234.074044 -200.7066,-528.82794 -434.2579,-555.81152 -258.6126,-29.87908 -570.4826,232.035778 -608.5128,489.5917 -25.7003,174.0526 122.1268,437.01348 298.0502,435.602 176.463,-1.41571 342.3931,-272.57267 291.9159,-441.67848 -90.303,-302.52769 -621.631,-569.58939 -869.8952,-374.56138 -218.98,172.02343 139.2456,823.74784 139.2456,823.74784"
           inkscape:connector-curvature="0"
           sodipodi:nodetypes="caaaaaaaaaac" />
        <path
           style="color:#000000;font-style:normal;font-variant:normal;font-weight:normal;font-stretch:normal;font-size:medium;line-height:normal;font-family:sans-serif;text-indent:0;text-align:start;text-decoration:none;text-decoration-line:none;text-decoration-style:solid;text-decoration-color:#000000;letter-spacing:normal;word-spacing:normal;text-transform:none;direction:ltr;block-progression:tb;writing-mode:lr-tb;baseline-shift:baseline;text-anchor:start;white-space:normal;clip-rule:nonzero;display:inline;overflow:visible;visibility:visible;opacity:1;isolation:auto;mix-blend-mode:normal;color-interpolation:sRGB;color-interpolation-filters:linearRGB;solid-color:#000000;solid-opacity:1;fill:#000000;fill-opacity:1;fill-rule:evenodd;stroke:none;stroke-width:70;stroke-linecap:round;stroke-linejoin:round;stroke-miterlimit:4;stroke-dasharray:none;stroke-dashoffset:0;stroke-opacity:1;color-rendering:auto;image-rendering:auto;shape-rendering:auto;text-rendering:auto;enable-background:accumulate"
           d="m -3947.4688,1330.8477 c -25.6191,-0.4267 -51.2893,0.9215 -76.7929,4.1035 -102.058,12.7333 -200.1473,54.8467 -278.9063,121.5176 -68.6906,58.1478 -121.693,134.0815 -152.5898,218.6093 -30.8968,84.5279 -39.3557,176.7437 -24.3555,265.4824 15.0004,88.7388 53.3003,173.0485 110.2637,242.7247 56.9633,69.676 131.9763,123.9691 215.9629,156.3086 a 35.0035,35.0035 0 1 0 25.1543,-65.3243 c -72.4643,-27.9027 -137.7755,-75.174 -186.9238,-135.291 -49.1485,-60.117 -82.4951,-133.5215 -95.4376,-210.0859 -12.9423,-76.5645 -5.5759,-156.8519 21.0821,-229.7832 26.658,-72.9312 72.8035,-139.0426 132.0703,-189.2129 67.9222,-57.4974 153.702,-94.4247 242.3457,-105.4844 76.4244,-9.5351 155.4364,-0 228.166,26.4004 -12.4811,8.7555 -24.7089,17.8751 -36.4121,27.6543 -119.698,100.0193 -193.8002,247.6897 -211.5527,401.3379 -12.1019,104.741 1.7159,216.6763 58.4531,310.2871 28.398,46.8537 67.1241,88.0451 114.4941,117.5898 47.4639,29.6033 103.0046,46.8996 159.9688,46.7422 57.3386,-0.1583 113.1466,-17.9962 160.6387,-48.2773 47.3981,-30.2211 85.8996,-72.2017 113.7773,-119.8262 55.7008,-95.1556 67.2764,-208.4029 52.041,-313.5918 -14.5781,-100.6506 -53.2791,-197.7673 -113.416,-280.2109 -40.3376,-55.3 -90.1659,-103.5881 -146.748,-142.1289 76.143,-27.804 158.921,-36.6307 237.5742,-21.7676 114.9249,21.7174 220.2852,92.5075 291.0625,187.6484 70.9566,95.3821 109.1375,214.973 114.7324,335.3965 5.9394,127.8404 -24.0253,257.4828 -83.5352,371.3067 -59.5321,113.8665 -148.5809,212.4367 -254.8437,285.498 -19.2346,13.2248 -39.0903,25.5207 -59.3809,37.0742 a 35.0035,35.0035 0 0 0 -7.2441,-9.0097 c -109.7881,-99.8772 -247.9213,-167.5044 -394.1426,-192.9649 -60.3034,-10.5002 -126.9913,-14.652 -190.582,8.5352 -31.9321,11.6435 -62.2353,30.1531 -86.334,56.3828 -24.2331,26.376 -41.3985,59.9762 -45.8887,97.1152 -5.0054,41.4009 6.3332,82.1764 27.8145,115.7559 21.331,33.3446 51.7264,58.6818 85.1211,76.1445 66.4322,34.7386 140.4833,37.7988 207.7929,34.4805 178.1137,-8.781 354.7549,-64.2481 502.502,-165.8321 115.4172,-79.3554 212.1072,-186.2098 277.2187,-310.748 65.134,-124.5811 97.9716,-266.0965 91.4258,-406.9883 -6.1775,-132.9657 -48.0464,-265.7875 -128.4941,-373.9277 -80.6272,-108.3815 -199.9003,-189.2668 -334.2266,-214.6504 -110.9177,-20.9602 -226.1131,-2.2969 -326.6855,46.7109 -3.9407,-1.8869 -7.8717,-3.7909 -11.8574,-5.5879 -70.0568,-31.5852 -146.4552,-48.8333 -223.3126,-50.1132 z m 235.5196,134.7851 c 64.8577,36.7255 121.9271,87.7722 165.959,148.1367 53.117,72.8198 87.7219,159.4475 100.6914,248.9922 13.4748,93.0337 2.3062,190.4969 -43.1758,268.1953 -22.7137,38.8026 -53.9567,72.5472 -91,96.166 -36.9493,23.5591 -80.3909,37.1826 -123.1973,37.3008 -42.5319,0.1175 -85.7721,-13.0858 -122.7304,-36.1367 -37.0522,-23.1095 -68.5022,-56.2444 -91.6758,-94.4785 -46.4058,-76.565 -59.5173,-173.0338 -48.7793,-265.9707 15.777,-136.55 82.4286,-268.358 186.9004,-355.6543 20.8612,-17.4315 43.3716,-32.9418 67.0078,-46.5508 z m -172.5469,1019.7422 c 26.1082,-0.4299 53.292,2.4143 80.5254,7.1562 128.2139,22.3251 250.3155,80.8058 348.3633,166.4141 -106.7894,49.2799 -223.9234,77.3098 -341.8789,83.125 -62.2864,3.0707 -123.3588,-1.2083 -171.9082,-26.5957 -24.0961,-12.6003 -44.9618,-30.5315 -58.5918,-51.8379 -13.4796,-21.0713 -20.0687,-46.6241 -17.2871,-69.6308 2.5012,-20.6884 12.7659,-41.6428 27.9414,-58.1602 15.3099,-16.6637 35.9756,-29.6639 58.7675,-37.9746 22.9287,-8.3605 47.9602,-12.0662 74.0684,-12.4961 z"
           id="path4139-1-0-4-2-1-7-8-0"
           inkscape:connector-curvature="0" />
        <path
           style="fill:none;fill-rule:evenodd;stroke:#000000;stroke-width:60;stroke-linecap:round;stroke-linejoin:round;stroke-miterlimit:4;stroke-dasharray:none;stroke-opacity:1"
           d="m 4052.1203,1521.0058 c -74.9335,-59.5298 -165.3927,-99.3403 -259.9049,-114.3826 -38.5168,-6.1302 -78.9463,-8.0436 -115.6176,5.2358 -18.3356,6.6396 -35.4428,17.1038 -48.7173,31.389 -13.2745,14.2853 -22.5759,32.4889 -25.0287,51.8348 -2.7425,21.6312 3.2081,43.9588 14.9248,62.3476 11.7167,18.3889 28.9485,32.9394 48.2779,43.0293 38.6587,20.1797 84.0874,22.5359 127.64,20.3253 115.4589,-5.8605 229.9697,-41.7046 325.2113,-107.2343 75.0368,-51.628 137.6818,-121.4619 179.4765,-202.3889 41.7948,-80.927 62.5031,-172.8525 57.8611,-263.8164 -4.3369,-84.98474 -31.2391,-169.57967 -81.9794,-237.89248 -50.7402,-68.31282 -125.9781,-119.3531 -209.5695,-135.28065 -96.3588,-18.36026 -199.6078,11.5481 -274.8637,74.46609 -75.2559,62.91799 -122.4534,156.79851 -133.6753,254.24694 -7.6416,66.3577 1.3998,136.3083 36.0172,193.4343 17.3087,28.563 40.8613,53.5151 69.1964,71.1944 28.3351,17.6792 61.4912,27.9226 94.8892,27.8354 33.6196,-0.088 66.9402,-10.6464 95.2886,-28.7199 28.3484,-18.0736 51.7625,-43.4955 68.7453,-72.5104 33.9657,-58.03 41.5945,-128.7693 31.9505,-195.31358 -9.2526,-63.84361 -33.8636,-125.5202 -71.8818,-177.63775 -38.0181,-52.11756 -89.4451,-94.51445 -148.2543,-121.0304 -58.8092,-26.51595 -124.8943,-36.98408 -188.9091,-29.00109 -64.0148,7.98299 -125.7378,34.51123 -174.9788,76.18784 -42.9595,36.36005 -76.2473,84.04409 -95.5713,136.90384 -19.3241,52.85975 -24.6386,110.77004 -15.2583,166.26404 9.3802,55.494 33.433,108.4402 69.0571,152.012 35.624,43.5718 82.7349,77.6659 135.2583,97.8863"
           id="path4139-1-0-4-2-1-7-0-4"
           inkscape:path-effect="#path-effect4141-3-4-6-8-86-5-7"
           inkscape:original-d="m 4052.1203,1521.0058 c 0,0 -165.2571,-115.4442 -259.9049,-114.3826 -69.6644,0.7814 -184.3022,18.9749 -189.3636,88.4596 -5.534,75.9725 115.3313,115.6789 190.8427,125.7022 113.1524,15.0197 238.5893,-32.8992 325.2113,-107.2343 132.3332,-113.5624 254.0808,-292.6306 237.3376,-466.2053 -15.1563,-157.12398 -134.749,-355.05629 -291.5489,-373.17313 -173.6255,-20.06088 -383.0066,155.78934 -408.539,328.71303 -17.2545,116.8593 81.9926,293.4118 200.1028,292.4641 118.4724,-0.9504 229.8734,-183.0058 195.9844,-296.54388 -60.627,-203.11781 -417.3462,-382.42364 -584.024,-251.4814 -147.0172,115.49692 93.4858,553.06618 93.4858,553.06618"
           inkscape:connector-curvature="0"
           sodipodi:nodetypes="caaaaaaaaaac" />
        <path
           style="color:#000000;font-style:normal;font-variant:normal;font-weight:normal;font-stretch:normal;font-size:medium;line-height:normal;font-family:sans-serif;text-indent:0;text-align:start;text-decoration:none;text-decoration-line:none;text-decoration-style:solid;text-decoration-color:#000000;letter-spacing:normal;word-spacing:normal;text-transform:none;direction:ltr;block-progression:tb;writing-mode:lr-tb;baseline-shift:baseline;text-anchor:start;white-space:normal;clip-rule:nonzero;display:inline;overflow:visible;visibility:visible;opacity:1;isolation:auto;mix-blend-mode:normal;color-interpolation:sRGB;color-interpolation-filters:linearRGB;solid-color:#000000;solid-opacity:1;fill:#000000;fill-opacity:1;fill-rule:evenodd;stroke:none;stroke-width:60;stroke-linecap:round;stroke-linejoin:round;stroke-miterlimit:4;stroke-dasharray:none;stroke-dashoffset:0;stroke-opacity:1;color-rendering:auto;image-rendering:auto;shape-rendering:auto;text-rendering:auto;enable-background:accumulate"
           d="m 3621.2988,1642.1738 c -17.4992,-0.2912 -35.0371,0.6289 -52.4687,2.8028 -69.7635,8.6999 -136.7629,37.4509 -190.6485,83.0586 -46.9988,39.7789 -83.2242,91.6719 -104.3652,149.5019 -21.1411,57.8301 -26.9244,120.8525 -16.6621,181.5645 10.2622,60.7119 36.4384,118.3332 75.4121,166.0019 38.9737,47.6688 90.243,84.7729 147.7051,106.8945 a 30.003,30.003 0 1 0 21.5566,-55.9941 c -47.5847,-18.3191 -90.5362,-49.4041 -122.8105,-88.8789 a 30.003,30.003 0 0 0 -0,0 c -32.2744,-39.4749 -54.2029,-87.7474 -62.7011,-138.0234 -8.4983,-50.2761 -3.6536,-103.0734 13.8535,-150.9629 17.507,-47.8894 47.8572,-91.3634 86.7773,-124.3047 44.5965,-37.7456 101.0445,-62.0523 159.3106,-69.3184 46.0355,-5.7409 93.5332,-0.8223 138.0039,13.3848 -4.8585,3.67 -9.6531,7.4251 -14.3262,11.332 -81.7868,68.3781 -132.1713,169.06 -144.2363,273.8301 -8.2234,71.4098 1.1211,147.985 40.164,212.4141 19.5467,32.2562 46.2166,60.6618 78.9727,81.0996 32.8367,20.4879 71.2637,32.4861 110.8476,32.3828 39.8488,-0.1043 78.4701,-12.469 111.3379,-33.4238 32.7871,-20.9035 59.3117,-49.8559 78.5078,-82.6524 38.3456,-65.5128 46.149,-143.0161 35.75,-214.7695 -9.9422,-68.6025 -36.3074,-134.7742 -77.3339,-191.0156 -25.0487,-34.3383 -55.4828,-64.6658 -89.8496,-89.6778 46.7925,-15.028 96.802,-19.224 144.33,-10.1679 75.267,14.3414 144.5607,61.0401 191.1016,123.6992 46.6977,62.8703 72.0348,141.8429 76.1016,221.5332 4.3581,85.4011 -15.1563,172.2344 -54.5547,248.5215 -39.4152,76.3194 -98.7733,142.5525 -169.8262,191.4394 -8.0117,5.5123 -16.2238,10.7267 -24.5234,15.8008 a 30.003,30.003 0 0 0 -6.5957,-7.1191 c -79.0403,-62.7924 -174.1597,-104.6548 -273.8516,-120.5215 -40.778,-6.4901 -86.3709,-9.3408 -130.5469,6.6562 -22.2067,8.0414 -43.428,20.8271 -60.4785,39.1758 -17.1685,18.4759 -29.4667,42.0775 -32.8145,68.4824 -3.7475,29.5585 4.228,58.4544 19.3848,82.2422 15.0258,23.5818 36.3636,41.322 59.6973,53.502 46.3563,24.1979 97.3577,26.0122 143.0429,23.6933 120.6411,-6.1235 240.4115,-43.4835 340.6954,-112.4824 79.0207,-54.3691 144.9527,-127.8036 189.1269,-213.3379 44.191,-85.5669 66.0919,-182.5847 61.166,-279.1113 -4.6071,-90.2791 -33.0728,-180.4947 -87.8554,-254.25 -54.9398,-73.9667 -136.1233,-129.3496 -228.0391,-146.8633 -75.0676,-14.3034 -152.822,-2.0895 -220.9629,30.5 -1.6527,-0.7733 -3.244,-1.6637 -4.9082,-2.4141 -47.8419,-21.571 -99.9868,-33.3509 -152.4844,-34.2246 z m 157.67,104.4707 c 41.5018,24.0603 78.1488,56.947 106.5,95.8125 35.0098,47.9936 57.8667,105.1771 66.4296,164.2618 8.8891,61.3351 1.4336,125.3084 -28.1523,175.8554 -14.7694,25.2335 -35.0727,47.1254 -58.9824,62.3692 -23.829,15.1921 -51.8479,23.9439 -79.2383,24.0156 -27.2121,0.071 -55.0982,-8.4167 -78.9316,-23.2871 -23.9141,-14.9209 -44.3493,-36.4193 -59.42,-61.2891 -30.1919,-49.8229 -38.9309,-113.1494 -31.8711,-174.4551 10.3788,-90.1266 54.3903,-177.2063 123.1153,-234.664 12.6814,-10.6024 26.2775,-20.1615 40.5508,-28.6192 z m -115.125,689 c 16.9941,-0.3551 34.8741,1.3317 53.0019,4.2168 84.1224,13.3887 165.1003,47.667 233.4043,98.6035 -71.3141,33.1262 -149.7387,51.9593 -228.7305,55.9688 -41.4199,2.1023 -81.2772,-0.7973 -112.2383,-16.959 -15.3246,-7.9994 -28.4517,-19.3593 -36.8593,-32.5547 -8.2766,-12.9897 -12.2004,-28.7492 -10.4629,-42.4531 1.5578,-12.2869 7.8617,-25.0928 17.2422,-35.1875 9.4985,-10.2217 22.4906,-18.3657 36.955,-23.6035 a 30.003,30.003 0 0 0 0,0 c 14.5833,-5.2809 30.6914,-7.6762 47.6856,-8.0313 z"
           id="path4139-1-0-4-2-1-7-0-4-2"
           inkscape:connector-curvature="0" />
        <path
           style="fill:none;fill-rule:evenodd;stroke:#000000;stroke-width:140;stroke-linecap:round;stroke-linejoin:round;stroke-miterlimit:4;stroke-dasharray:none;stroke-opacity:1"
           d="m -19.834818,979.3875 c 3.85743,27.0836 16.9400902,52.4687 35.268996,72.7777 18.328907,20.3089 41.733408,35.6891 66.887472,46.4444 50.30813,21.5105 106.34472,24.6331 161.04824,25.698 56.49134,1.0997 114.51884,0.048 167.07912,-20.6858 26.28014,-10.3671 50.84606,-25.6985 70.11974,-46.3539 19.27369,-20.6554 33.0645,-46.7992 37.06624,-74.7654 4.41789,-30.87447 -3.3085,-62.93066 -19.24585,-89.74021 C 482.45179,865.95275 458.64269,844.25857 431.64703,828.63856 377.6557,797.39853 313.10493,790.53063 250.73039,789.88265 187.93616,789.23031 122.76916,794.85262 67.94434,825.47583 40.531931,840.78743 16.271395,862.34086 -0.01570739,889.18514 -16.30281,916.02943 -24.262166,948.30239 -19.834818,979.3875 Z"
           id="path4181"
           inkscape:path-effect="#path-effect4183"
           inkscape:original-d="m -19.834818,979.3875 c 5.390433,100.0095 163.058618,143.6122 263.204708,144.9201 102.90976,1.344 274.2651,-45.8051 274.2651,-141.8051 C 521.61449,841.40312 360.4447,790.65791 250.73039,789.88265 140.62328,789.10461 -25.761052,869.43724 -19.834818,979.3875 Z"
           inkscape:connector-curvature="0"
           sodipodi:nodetypes="aacaa" />
        <path
           style="fill:none;fill-rule:evenodd;stroke:#000000;stroke-width:140;stroke-linecap:round;stroke-linejoin:round;stroke-miterlimit:4;stroke-dasharray:none;stroke-opacity:1"
           d="m 284.51999,1124.2374 c 90.29789,0.8551 180.73042,-16.3234 264.425,-50.23 C 690.11237,1016.8172 809.96849,912.63978 896.24638,787.12058 1034.8743,585.4412 1086.7268,321.94652 1017.0816,87.33656 988.66843,-8.3773213 940.51443,-98.977278 871.92828,-171.53344 803.34214,-244.08959 713.82033,-297.96383 616.02181,-318.06122 477.90904,-346.4431 328.9171,-304.38022 220.34096,-214.42529 111.76481,-124.47036 43.574112,10.244081 26.517473,150.20743 c -11.747393,96.39675 0.726338,198.20913 50.64903,281.50414 24.961347,41.64751 59.069067,78.06739 100.198407,103.87361 41.12934,25.80622 89.33769,40.75693 137.89236,40.59095 48.84754,-0.16698 97.24007,-15.63597 138.33415,-42.04404 C 494.6855,507.72402 528.539,470.62382 553.00236,428.34316 601.92908,343.78186 612.4281,240.9536 598.05437,144.32113 577.82676,8.3338555 508.61961,-120.81957 402.82766,-208.6248 297.03571,-296.43004 154.95783,-340.82872 18.600292,-323.26979 c -117.192389,15.09101 -227.970892,75.65297 -303.773832,166.29352 -75.80294,90.640539 -115.82318,210.468505 -109.49379,328.4589 4.67983,87.23976 34.21123,173.00908 84.23165,244.63753 50.02041,71.62846 120.3728,128.89119 200.66425,163.32897"
           id="path4185"
           inkscape:path-effect="#path-effect4187"
           inkscape:original-d="m 284.51999,1124.2374 c 0,0 183.21721,-12.0909 264.425,-50.23 C 684.85845,1010.176 820.89753,917.00311 896.24638,787.12058 1015.0298,582.36778 1088.0555,313.15929 1017.0816,87.33656 960.0878,-94.004641 805.76925,-306.71076 616.02181,-318.06122 365.51788,-333.04606 64.492385,-97.854401 26.517473,150.20743 0.56010029,319.76762 143.72716,577.54222 315.25727,576.17613 487.32187,574.80578 624.7936,314.30089 598.05437,144.32113 559.48547,-100.85913 265.60556,-347.54569 18.600292,-323.26979 -195.2518,-302.25222 -385.39872,-43.199803 -394.66733,171.48263 c -7.15434,165.71115 284.8959,407.9665 284.8959,407.9665"
           inkscape:connector-curvature="0"
           sodipodi:nodetypes="caaaaaaaaac" />
        <path
           style="color:#000000;font-style:normal;font-variant:normal;font-weight:normal;font-stretch:normal;font-size:medium;line-height:normal;font-family:sans-serif;text-indent:0;text-align:start;text-decoration:none;text-decoration-line:none;text-decoration-style:solid;text-decoration-color:#000000;letter-spacing:normal;word-spacing:normal;text-transform:none;direction:ltr;block-progression:tb;writing-mode:lr-tb;baseline-shift:baseline;text-anchor:start;white-space:normal;clip-rule:nonzero;display:inline;overflow:visible;visibility:visible;opacity:1;isolation:auto;mix-blend-mode:normal;color-interpolation:sRGB;color-interpolation-filters:linearRGB;solid-color:#000000;solid-opacity:1;fill:#000000;fill-opacity:1;fill-rule:evenodd;stroke:none;stroke-width:140;stroke-linecap:round;stroke-linejoin:round;stroke-miterlimit:4;stroke-dasharray:none;stroke-dashoffset:0;stroke-opacity:1;color-rendering:auto;image-rendering:auto;shape-rendering:auto;text-rendering:auto;enable-background:accumulate"
           d="M 708.95508 2163.2227 C 706.39908 2163.234 703.84085 2163.2631 701.2832 2163.3105 C 681.6191 2163.6755 661.91528 2165.1049 642.25391 2167.6367 C 507.07505 2185.0439 381.21245 2253.8343 293.72266 2358.4492 C 206.22087 2463.0786 160.71477 2599.2822 168.02539 2735.5645 C 173.41751 2836.0828 207.13172 2934.0003 264.76562 3016.5312 C 322.39954 3099.0622 402.71613 3164.4338 495.22852 3204.1133 A 70.007 70.007 0 1 0 550.41406 3075.4492 C 482.34355 3046.2531 421.95575 2997.1011 379.54883 2936.375 C 337.14191 2875.649 311.79369 2802.0257 307.82617 2728.0645 C 302.47801 2628.3659 337.01308 2524.9155 401.11719 2448.2637 C 465.23329 2371.5976 560.9269 2319.2631 660.13281 2306.4883 C 701.93077 2301.1059 744.86169 2302.8009 786.95898 2310.623 C 675.68751 2412.4233 607.61592 2554.4423 589.625 2702.0723 C 576.44182 2810.2508 589.50883 2927.5703 649.71875 3028.0293 C 679.88418 3078.3597 721.26692 3122.9079 772.75391 3155.2129 C 824.43251 3187.6383 885.00766 3206.7235 948.08984 3206.5078 C 1011.5574 3206.2908 1072.3659 3186.5523 1124.0273 3153.3535 C 1175.4967 3120.278 1216.5922 3074.8794 1246.1855 3023.7324 C 1305.2576 2921.6367 1316.0535 2803.0406 1299.8867 2694.3535 C 1278.0737 2547.7079 1206.1177 2408.9745 1093.8574 2309.8223 C 1140.8728 2301.5907 1188.8171 2301.4449 1234.5254 2310.8379 C 1316.4134 2327.6657 1394.0718 2373.8554 1453.6523 2436.8848 C 1513.4912 2500.1873 1556.866 2581.0077 1582.5684 2667.5898 C 1645.447 2879.4054 1598.2738 3122.8614 1471.1523 3307.8008 C 1405.879 3402.7621 1319.8999 3483.8143 1221.0508 3538.125 C 1224.0007 3494.4643 1212.1965 3452.7243 1191.1523 3417.3242 C 1168.043 3378.4502 1135.1684 3349.1385 1099.2969 3328.3828 C 1028.2209 3287.2575 951.06118 3280.9149 884.05078 3280.2188 C 816.57591 3279.5177 738.65997 3284.3348 666.40234 3324.6953 C 629.92474 3345.0704 596.38884 3374.2134 572.73047 3413.207 C 548.78336 3452.6763 536.42467 3500.2145 543.45703 3549.5898 C 549.56884 3592.5018 569.39354 3629.8486 596.06055 3659.3965 C 622.46995 3688.6588 654.49166 3709.2362 687.39453 3723.3047 C 752.72822 3751.2398 818.16577 3753.5283 874.60156 3754.627 C 893.68417 3754.9984 913.77618 3755.2641 934.55664 3754.5176 C 1028.0912 3753.1506 1121.085 3734.3561 1207.8223 3699.2168 C 1363.6286 3636.096 1493.3468 3522.664 1586.5254 3387.1055 C 1736.6599 3168.6861 1793.1931 2885.1523 1716.7812 2627.748 C 1685.6573 2522.9024 1632.724 2422.5227 1555.3906 2340.7129 C 1477.7989 2258.6298 1376.4141 2197.0701 1262.7051 2173.7031 C 1152.7339 2151.1043 1039.2982 2166.4328 938.74609 2211.1855 C 866.54799 2179.8428 788.19109 2162.8713 708.95508 2163.2227 z M 939.8418 2369.3457 C 957.65541 2380.2396 974.72025 2392.2971 990.71484 2405.5723 C 1082.0937 2481.4149 1143.6522 2595.5689 1161.4102 2714.9531 C 1173.9908 2799.5311 1163.7872 2886.5923 1125.0059 2953.6191 C 1105.6724 2987.0336 1079.0606 3015.8355 1048.3418 3035.5762 C 1017.815 3055.1934 981.83882 3066.3928 947.61133 3066.5098 C 913.58417 3066.6261 877.74216 3055.8103 847.16211 3036.623 C 816.39041 3017.3157 789.55803 2989.0232 769.80078 2956.0586 C 730.16532 2889.9276 718.2841 2803.6227 728.5957 2719.0078 C 743.59466 2595.9293 804.36872 2477.047 897.59375 2399.8105 C 910.94141 2388.752 925.1223 2378.6515 939.8418 2369.3457 z M 871.76953 3420.1816 C 875.35484 3420.1626 878.9636 3420.1732 882.5957 3420.2109 C 940.33436 3420.8108 992.27687 3428.2039 1029.1836 3449.5586 C 1047.3035 3460.043 1062.0452 3474.1184 1070.8105 3488.8633 C 1079.3016 3503.1468 1082.7681 3520.0997 1080.9336 3532.9199 C 1079.2597 3544.6183 1072.5188 3558.5519 1061.9824 3569.8438 C 1051.1625 3581.4394 1035.5726 3591.6516 1017.3555 3598.8379 C 990.43625 3609.4569 957.4281 3613.5454 920.35547 3614.5801 C 919.49557 3614.5756 918.63519 3614.5804 917.77539 3614.5723 A 70.007 70.007 0 0 0 910.55859 3614.7871 C 899.77799 3614.937 888.69796 3614.8737 877.32617 3614.6523 C 824.35492 3613.6212 777.7181 3609.6641 742.43555 3594.5781 C 725.03079 3587.1363 710.24252 3576.9528 699.99414 3565.5977 C 690.00334 3554.5275 683.66163 3541.1048 682.05859 3529.8496 C 680.23627 3517.0548 683.79671 3500.0472 692.42383 3485.8281 C 701.33965 3471.1331 716.32663 3457.168 734.67383 3446.9199 C 769.72884 3427.3395 817.98985 3420.4668 871.76953 3420.1816 z "
           transform="translate(-515.01996,-755.09207)"
           id="path4181-2" />
      </g>
    </g>
  </g>
</svg>
