<?xml version="1.0" encoding="UTF-8" standalone="no"?>
<!-- Created with Inkscape (http://www.inkscape.org/) -->

<svg
   xmlns:dc="http://purl.org/dc/elements/1.1/"
   xmlns:cc="http://creativecommons.org/ns#"
   xmlns:rdf="http://www.w3.org/1999/02/22-rdf-syntax-ns#"
   xmlns:svg="http://www.w3.org/2000/svg"
   xmlns="http://www.w3.org/2000/svg"
   xmlns:sodipodi="http://sodipodi.sourceforge.net/DTD/sodipodi-0.dtd"
   xmlns:inkscape="http://www.inkscape.org/namespaces/inkscape"
   width="2000"
   height="2000"
   id="svg2992"
   version="1.1"
   inkscape:version="0.91 r13725"
   sodipodi:docname="തൂ.svg">
  <defs
     id="defs5498">
    <inkscape:path-effect
       effect="spiro"
       id="path-effect2987"
       is_visible="true" />
    <inkscape:path-effect
       is_visible="true"
       id="path-effect2987-8"
       effect="spiro" />
    <inkscape:path-effect
       is_visible="true"
       id="path-effect2987-3"
       effect="spiro" />
    <inkscape:path-effect
       is_visible="true"
       id="path-effect4141-3-4-6"
       effect="spiro" />
    <inkscape:path-effect
       is_visible="true"
       id="path-effect4141-3-4-6-8"
       effect="spiro" />
    <inkscape:path-effect
       is_visible="true"
       id="path-effect4141-3-4-6-8-5"
       effect="spiro" />
    <inkscape:path-effect
       is_visible="true"
       id="path-effect4141-3-4-6-8-5-4"
       effect="spiro" />
    <inkscape:path-effect
       is_visible="true"
       id="path-effect4141-3-4-6-8-5-6"
       effect="spiro" />
    <inkscape:path-effect
       is_visible="true"
       id="path-effect2987-5"
       effect="spiro" />
    <inkscape:path-effect
       is_visible="true"
       id="path-effect4141-3-4-6-87"
       effect="spiro" />
    <inkscape:path-effect
       is_visible="true"
       id="path-effect4141-3-4-6-8-0"
       effect="spiro" />
    <inkscape:path-effect
       is_visible="true"
       id="path-effect4141-3-4-6-8-8"
       effect="spiro" />
    <inkscape:path-effect
       is_visible="true"
       id="path-effect4141-3-4-6-8-0-8"
       effect="spiro" />
    <inkscape:path-effect
       is_visible="true"
       id="path-effect4141-3-4-6-8-0-8-7"
       effect="spiro" />
    <inkscape:path-effect
       is_visible="true"
       id="path-effect4141-3-4-6-8-0-8-7-0"
       effect="spiro" />
    <inkscape:path-effect
       is_visible="true"
       id="path-effect4141-3-4-6-8-0-8-7-2"
       effect="spiro" />
    <inkscape:path-effect
       is_visible="true"
       id="path-effect4141-3-4-6-8-0-8-7-1"
       effect="spiro" />
    <inkscape:path-effect
       is_visible="true"
       id="path-effect4141-3-4-6-8-0-8-7-01"
       effect="spiro" />
    <inkscape:path-effect
       is_visible="true"
       id="path-effect4141-3-4-6-8-0-8-7-01-8"
       effect="spiro" />
  </defs>
  <sodipodi:namedview
     inkscape:window-height="851"
     inkscape:window-width="1600"
     inkscape:pageshadow="2"
     inkscape:pageopacity="0.0"
     borderopacity="1.0"
     bordercolor="#666666"
     pagecolor="#ffffff"
     id="base"
     showgrid="true"
     showguides="true"
     inkscape:guide-bbox="true"
     inkscape:zoom="0.32102648"
     inkscape:cx="2434.7086"
     inkscape:cy="188.94106"
     inkscape:window-x="1599"
     inkscape:window-y="-1"
     inkscape:current-layer="layer1-7"
     inkscape:window-maximized="1">
    <sodipodi:guide
       orientation="horizontal"
       position="1800,600"
       id="guide5596" />
    <inkscape:grid
       type="xygrid"
       id="grid3769"
       empspacing="5"
       visible="true"
       enabled="true"
       snapvisiblegridlinesonly="true" />
    <sodipodi:guide
       orientation="0,1"
       position="-2720,1600"
       id="guide4772" />
  </sodipodi:namedview>
  <metadata
     id="metadata5594">
    <rdf:RDF>
      <cc:Work
         rdf:about="">
        <dc:format>image/svg+xml</dc:format>
        <dc:type
           rdf:resource="http://purl.org/dc/dcmitype/StillImage" />
        <dc:title />
      </cc:Work>
    </rdf:RDF>
  </metadata>
  <g
     inkscape:label="Layer 1"
     inkscape:groupmode="layer"
     id="layer1"
     transform="translate(0,1000)">
    <g
       id="layer1-5"
       inkscape:label="Layer 1"
       transform="translate(61.428743,14.362694)">
      <g
         transform="translate(-500.76683,-332.68778)"
         id="layer1-54"
         inkscape:label="Layer 1">
        <g
           transform="translate(-561.73379,157.27604)"
           id="layer1-7"
           inkscape:label="Layer 1">
          <path
             sodipodi:nodetypes="csassacaaaaasac"
             inkscape:connector-curvature="0"
             inkscape:original-d="m 2850.639,997.78976 -1095.5629,3.07144 c -30.5414,0.086 -401.8226,-8.84944 -404.2931,-152.90932 -2.559,-149.22481 395.8405,-172.65383 413.111,-172.6576 l 638.309,-0.13932 c 405.6456,-0.0885 362.0737,-67.48277 400.6023,-213.86977 33.5222,-127.36564 -211.7818,-333.55689 -211.7818,-333.55689 0,0 191.6303,-160.619181 171.3319,-263.36287 -27.6608,-140.00971 -209.7598,-247.35897 -352.4133,-243.13665 -262.529,7.77045 -583.2996,225.09598 -620.9558,485.0265 -22.9208,158.21571 118.7806,389.57693 278.646,390.35182 163.6073,0.79303 305.4579,-233.92298 289.0272,-396.704991 C 2332.5796,-138.662 2053.6153,-458.78701 1825.4386,-385.11172 1667.5647,-334.1363 1389.9868,-190.80905 1354.5998,11.274913 1321.882,198.11632 1487.5005,351.89586 1639.4887,503.88008"
             inkscape:path-effect="#path-effect4141-3-4-6-8-0-8-7"
             id="path4139-1-0-4-2-6-8"
             d="m 2850.639,997.78976 -1095.5629,3.07144 c -79.329,0.2224 -159.4519,5.4183 -237.515,-8.69915 -39.0315,-7.0587 -77.7102,-20.23206 -109.2573,-44.2751 -15.7736,-12.02153 -29.6052,-26.73388 -39.7899,-43.75132 -10.1847,-17.01745 -16.6547,-36.38063 -17.7309,-56.18375 -1.1307,-20.80688 3.7202,-41.7686 12.8999,-60.47522 9.1796,-18.70663 22.6011,-35.19608 38.3697,-48.81793 31.5373,-27.2437 71.724,-42.83284 112.5077,-51.4064 81.5675,-17.14714 165.9834,-11.93986 249.3337,-11.95805 l 638.309,-0.13932 c 81.898,-0.0179 166.2107,-3.35571 240.7847,-37.20842 37.287,-16.92636 71.5278,-40.84759 99.2457,-70.98953 27.7179,-30.14195 48.8159,-66.44661 60.5719,-105.67182 21.4336,-71.51558 10.3007,-152.11531 -29.7167,-215.14292 -40.0175,-63.02762 -108.2252,-107.38945 -182.0651,-118.41397 56.0465,-13.66814 106.4081,-49.36515 137.8668,-97.721918 31.4587,-48.356769 43.6833,-108.864047 33.4651,-165.640952 -6.8316,-37.95983 -23.3304,-73.95917 -46.3861,-104.87931 -23.0557,-30.92015 -52.5683,-56.81564 -85.4204,-77.02358 -65.7041,-40.41588 -143.5501,-57.66321 -220.6068,-61.23376 -144.3834,-6.69025 -291.8584,34.36426 -407.3723,121.24279 -115.5138,86.87853 -196.8864,220.21303 -213.5835,363.78371 -10.4245,89.63576 4.8874,184.08845 54.0012,259.79233 24.5569,37.85193 57.3107,70.56843 96.0472,93.70487 38.7364,23.13644 83.4789,36.52154 128.5976,36.85462 46.1091,0.3404 92.0015,-12.95817 131.7318,-36.36048 39.7303,-23.40232 73.3323,-56.71623 98.6234,-95.2717 50.5824,-77.11094 66.9579,-173.22504 58.672,-265.072811 -11.8498,-131.353497 -73.4251,-257.870009 -170.4919,-347.157149 -97.0668,-89.28715 -228.8627,-140.18843 -360.729,-137.85668 -111.3724,1.96936 -222.0969,41.76209 -307.7981,112.91682 -85.7012,71.15473 -145.4434,173.478797 -163.0407,283.469813 -16.2146,101.348637 3.5211,208.080297 54.9052,296.929237 51.3841,88.84894 134.0521,159.18495 229.9837,195.67593"
             style="fill:none;fill-rule:evenodd;stroke:#000000;stroke-width:140;stroke-linecap:round;stroke-linejoin:round;stroke-miterlimit:4;stroke-dasharray:none;stroke-opacity:1" />
          <path
             style="color:#000000;font-style:normal;font-variant:normal;font-weight:normal;font-stretch:normal;font-size:medium;line-height:normal;font-family:sans-serif;text-indent:0;text-align:start;text-decoration:none;text-decoration-line:none;text-decoration-style:solid;text-decoration-color:#000000;letter-spacing:normal;word-spacing:normal;text-transform:none;direction:ltr;block-progression:tb;writing-mode:lr-tb;baseline-shift:baseline;text-anchor:start;white-space:normal;clip-rule:nonzero;display:inline;overflow:visible;visibility:visible;opacity:1;isolation:auto;mix-blend-mode:normal;color-interpolation:sRGB;color-interpolation-filters:linearRGB;solid-color:#000000;solid-opacity:1;fill:#000000;fill-opacity:1;fill-rule:evenodd;stroke:none;stroke-width:140;stroke-linecap:round;stroke-linejoin:round;stroke-miterlimit:4;stroke-dasharray:none;stroke-dashoffset:0;stroke-opacity:1;color-rendering:auto;image-rendering:auto;shape-rendering:auto;text-rendering:auto;enable-background:accumulate"
             d="m -161.19268,-443.20923 c -127.2183,2.2496 -252.6461,47.1588 -351.2773,129.0489 -98.7761,82.0103 -167.0135,198.5596 -187.4453,326.267497 -18.8257,117.668303 3.7715,239.877403 63.4297,343.033203 59.6582,103.1558 154.3144,183.69168 265.6933,226.05858 a 70.007,70.007 0 1 0 49.7735,-130.85348 c -80.4843,-30.6151 -151.1654,-90.7529 -194.2754,-165.2949 -43.1101,-74.5422 -59.9827,-165.7972 -46.3789,-250.826203 14.7627,-92.274 66.0084,-180.372797 138.6347,-240.671897 72.7712,-60.4193 168.7938,-95.094 264.3203,-96.7832 39.4317,-0.6972 79.132796,4.3822 117.701196,14.4024 -121.727896,97.9881 -206.588296,241.246897 -224.921896,398.8887 -11.9849,103.0533 4.8397,213.5434 64.8067,305.9765 30.0012,46.2438 70.1134,86.5777 118.876896,115.70308 48.9048,29.2097 105.354299,46.3251 163.974599,46.7579 59.910305,0.4422 117.726205,-16.5646 167.775405,-46.045 49.8899,-29.38648 90.8824,-70.32218 121.6269,-117.19138 61.4141,-93.6234 79.2775,-205.3381 69.8575,-309.7578 -13.1717,-146.006503 -79.754,-285.0549 -186.4043,-386.1972 54.3056,-13.2971 110.8004,-18.8534 166.7304,-16.2618 68.8226,3.1891 134.9143,18.7891 187.1719,50.9336 l 0,0 c 26.0565,16.0278 48.839,36.2601 65.9785,59.2461 17.0579,22.8764 28.8912,49.217 33.6094,75.4336 6.9587,38.665697 -1.8242,82.138697 -23.248,115.070297 -21.4238,32.9315 -57.6072,58.5786 -95.7754,67.8867 a 70.007,70.007 0 0 0 6.248,137.240203 c 52.9421,7.9044 104.6147,41.5113 133.3066,86.7012 28.6919,45.1897 37.1274,106.2498 21.7598,157.5254 -8.5539,28.541 -24.3038,55.8318 -45.0449,78.38668 -20.7661,22.5821 -47.2835,41.298 -76.6543,54.6309 -58.0684,26.36 -131.8586,30.9316 -211.8652,30.9492 l -638.3086,0.1387 c -80.4245,0.017 -169.846,-6.2793 -263.7207,13.455 -48.4417,10.1835 -100.0653,29.0989 -143.8672,66.9375 -22.0466,19.0452 -41.5512,42.6274 -55.4512,70.9532 -13.9939,28.517 -21.8126,60.929 -19.9551,95.1113 1.767,32.5137 12.0725,62.4466 27.5645,88.332 15.3962,25.7252 35.4403,46.7256 57.4219,63.47845 43.6819,33.2916 93.162,49.1528 139.2324,57.4844 l 0,0 c 89.2768,16.1454 173.7632,10.0306 250.1679,9.8164 l 1095.5625,-3.0703 a 70.007,70.007 0 1 0 -0.3925,-139.99995 l -1095.5625,3.0722 c -82.2535,0.2306 -158.012,4.5075 -224.8614,-7.582 -31.9926,-5.7858 -59.8711,-16.2718 -79.2832,-31.0664 -9.5652,-7.2899 -17.1833,-15.7163 -22.1562,-24.0254 -4.8774,-8.1496 -7.513,-16.9427 -7.8985,-24.0352 -0.4038,-7.4315 1.4783,-16.9437 5.8438,-25.8398 4.4592,-9.087 11.7987,-18.4834 21.2891,-26.6816 19.2724,-16.6487 48.0227,-28.9113 81.1484,-35.875 69.2602,-14.5599 148.6711,-10.4421 234.9473,-10.4609 l 638.3086,-0.1387 c 83.7893,-0.018 178.6254,-2.1234 269.705,-43.4688 45.2032,-20.5199 87.1661,-49.6459 121.836,-87.3476 34.6947,-37.7289 61.1415,-83.0476 76.0996,-132.95698 27.49965,-91.7557 13.6693,-191.8943 -37.6738,-272.7598 -22.6399,-35.6579 -51.7887,-66.2896 -85.4102,-90.6289 15.2371,-15.0136 28.9777,-31.652703 40.793,-49.814503 41.4937,-63.782 57.1593,-141.3229 43.6816,-216.210897 -8.945,-49.703 -30.1086,-95.3605 -59.1621,-134.3242 -28.9718,-38.8543 -65.2156,-70.4166 -104.8633,-94.8047 -79.1508,-48.6871 -168.7502,-67.583 -254.041,-71.5352 -107.4734,-4.98 -216.3232,13.8166 -315.6367,56.3067 -84.237505,-42.15 -178.263204,-64.3923 -273.3438,-62.711 z m 267.8828,222.1035 c 16.4029,11.3989 32.061,23.8021 46.6934,37.2618 83.6739,76.9676 137.9025,188.180097 148.1641,301.9277 7.1517,79.2759 -7.7356,159.7903 -47.4864,220.3887 -19.8376,30.2418 -46.0484,55.9335 -75.6191,73.3515 -29.4114,17.3242 -63.3796,26.9143 -95.687505,26.6758 -31.6171,-0.2334 -64.6525,-9.89 -93.220699,-26.9531 l 0,0 c -28.7095,-17.1475 -54.1042,-42.2468 -73.2168,-71.707 -38.260396,-58.9747 -52.057396,-137.3892 -43.193396,-213.6074 14.2569,-122.588603 85.488496,-240.237 186.126995,-315.9277 15.1351,-11.3832 31.0339,-21.7846 47.439405,-31.4122 z"
             id="path4139-1-0-4-2-6-8-1"
             inkscape:connector-curvature="0" />
          <path
             style="color:#000000;font-style:normal;font-variant:normal;font-weight:normal;font-stretch:normal;font-size:medium;line-height:normal;font-family:sans-serif;text-indent:0;text-align:start;text-decoration:none;text-decoration-line:none;text-decoration-style:solid;text-decoration-color:#000000;letter-spacing:normal;word-spacing:normal;text-transform:none;direction:ltr;block-progression:tb;writing-mode:lr-tb;baseline-shift:baseline;text-anchor:start;white-space:normal;clip-rule:nonzero;display:inline;overflow:visible;visibility:visible;opacity:1;isolation:auto;mix-blend-mode:normal;color-interpolation:sRGB;color-interpolation-filters:linearRGB;solid-color:#000000;solid-opacity:1;fill:#000000;fill-opacity:1;fill-rule:evenodd;stroke:none;stroke-width:120;stroke-linecap:round;stroke-linejoin:round;stroke-miterlimit:4;stroke-dasharray:none;stroke-dashoffset:0;stroke-opacity:1;color-rendering:auto;image-rendering:auto;shape-rendering:auto;text-rendering:auto;enable-background:accumulate"
             d="m 4725.7109,562.18945 c -90.3175,1.59704 -179.2071,33.40179 -249.3379,91.62891 -70.2549,58.33023 -118.6998,141.0227 -133.2539,231.99219 a 60.006,60.006 0 0 0 0,0.002 c -13.4097,83.81712 2.6412,170.6199 45.1368,244.0996 42.4955,73.4796 109.7273,130.6826 189.0644,160.8613 a 60.006,60.006 0 0 0 6.0274,2.0098 c -26.7677,1.016 -54.5134,3.5248 -83.1133,9.5371 -34.6639,7.287 -72.1549,20.8784 -104.3965,48.7305 -16.2456,14.0339 -30.7071,31.473 -41.0781,52.6074 -10.4513,21.2979 -16.3375,45.5553 -14.9356,71.3555 1.3336,24.5391 9.0782,46.9415 20.6446,66.2675 11.4845,19.1894 26.3401,34.7145 42.5292,47.0528 32.1371,24.4926 68.0426,35.8716 100.9688,41.8262 63.3971,11.4651 122.3433,7.0973 174.4941,6.9511 l 754.8399,-2.1152 a 60.006,60.006 0 1 0 -0.3379,-120 l -754.8399,2.1172 c -57.1641,0.1602 -108.6272,2.9515 -152.8007,-5.0371 -20.8591,-3.7723 -38.2512,-10.545 -49.586,-19.1836 -5.5466,-4.2273 -9.7509,-8.9759 -12.3008,-13.2364 -2.468,-4.1239 -3.6396,-8.4047 -3.789,-11.1542 -0.1561,-2.8716 0.6435,-7.4988 2.8418,-11.9786 2.2786,-4.6433 6.3113,-9.927 11.7949,-14.664 11.2165,-9.6895 29.101,-17.5783 50.6367,-22.1055 45.6507,-9.5967 99.5251,-6.944 159.461,-6.957 l 439.7929,-0.096 c 58.0493,-0.012 125.1588,-1.2554 190.6875,-31.002 32.4759,-14.7423 62.6877,-35.684 87.7442,-62.9316 25.0778,-27.2709 44.1984,-60.0115 55.0429,-96.1953 19.9672,-66.6227 9.9846,-138.9037 -27.2949,-197.6192 -14.0167,-22.0762 -31.4143,-41.47172 -51.3203,-57.63279 7.4084,-8.27253 14.3791,-16.98355 20.5078,-26.40429 30.2762,-46.53924 41.6486,-102.82965 31.8145,-157.47266 -6.5185,-36.21971 -21.884,-69.3016 -42.9102,-97.5 -20.9563,-28.10466 -47.0597,-50.80239 -75.5195,-68.30859 -56.7957,-34.93609 -120.5066,-48.23435 -180.6563,-51.02149 -73.9867,-3.42829 -148.8675,9.12019 -217.623,37.63281 -58.4328,-28.31933 -123.2551,-43.21804 -188.9356,-42.05664 z m 2.1211,119.98243 c 18.3911,-0.32521 36.9071,1.24306 55.2012,4.51953 -76.3446,68.54647 -128.892,163.21735 -140.9746,267.10937 -8.52,73.25962 3.3265,152.08292 46.4687,218.58202 21.5862,33.2729 50.4602,62.3436 85.7442,83.418 35.405,21.1466 76.2683,33.5659 118.9277,33.8808 43.5985,0.3219 85.4393,-12.0194 121.6582,-33.3535 36.0822,-21.2535 65.5681,-50.7391 87.668,-84.4297 44.1354,-67.2827 56.6947,-146.8767 50.0137,-220.93551 -8.6798,-96.21396 -49.989,-187.94793 -116.5215,-258.02539 29.8246,-5.60681 60.3811,-7.85787 90.6972,-6.45312 46.034,2.13306 89.5956,12.60457 123.3399,33.36132 16.8101,10.34024 31.3751,23.32499 42.1894,37.82813 10.7444,14.40938 18.1143,30.9347 21.0098,47.02344 4.2465,23.59525 -1.2272,50.68315 -14.3008,70.77929 -13.0736,20.09613 -35.6203,36.07762 -58.9121,41.75782 a 60.006,60.006 0 0 0 5.3574,117.63472 c 32.963,4.9215 65.7841,26.268 83.6485,54.4043 17.8642,28.1364 23.2225,66.9223 13.6543,98.8477 -5.3553,17.8683 -15.3084,35.1554 -28.4258,49.4199 -13.1388,14.2878 -30.1103,26.3086 -49.0156,34.8906 -37.2339,16.9023 -86.3056,20.2579 -141.1114,20.2696 l -439.7929,0.096 c -21.2755,0 -43.9744,-0.4744 -67.3223,-0.4883 a 60.006,60.006 0 0 0 2.9512,-113.6953 c -52.8561,-20.1057 -99.5382,-59.8238 -127.8496,-108.7774 -28.3115,-48.9537 -39.4573,-109.22565 -30.5235,-165.06637 9.6949,-60.59755 43.5752,-118.90635 91.416,-158.62695 47.9651,-39.8237 111.6516,-62.854 174.8047,-63.9707 z m 182.041,58.85742 c 8.6471,6.33481 16.9713,13.07296 24.8204,20.29297 55.3992,50.95907 91.5269,125.01045 98.33,200.42187 4.7368,52.50706 -5.2691,105.35836 -30.8359,144.33396 a 60.006,60.006 0 0 0 0,0 c -12.7511,19.4386 -29.5686,35.8568 -48.2344,46.8515 -18.5292,10.9144 -39.9275,16.8992 -59.8672,16.752 -19.5134,-0.1441 -40.306,-6.1696 -58.2793,-16.9043 l -0,0 c -18.0941,-10.8076 -34.3547,-26.8206 -46.6074,-45.707 -24.5364,-37.8203 -33.7884,-89.1523 -27.9434,-139.41019 9.4127,-80.93514 56.7865,-159.35547 123.625,-209.625 8.0374,-6.045 16.3933,-11.69999 24.9941,-17.00781 z"
             id="path4139-1-0-4-2-6-8-15"
             inkscape:connector-curvature="0" />
          <path
             sodipodi:nodetypes="csassacaaaaasac"
             inkscape:connector-curvature="0"
             inkscape:original-d="m 4175.2258,1571.1798 -754.8398,2.1163 c -21.043,0.059 -276.8547,-6.0973 -278.5568,-105.3542 -1.7632,-102.8155 272.733,-118.958 284.6323,-118.9606 l 439.7931,-0.096 c 279.4887,-0.061 249.4678,-46.4954 276.0139,-147.3556 23.0967,-87.7546 -145.9171,-229.81979 -145.9171,-229.81979 0,0 132.0327,-110.6662 118.0472,-181.4563 -19.0582,-96.4663 -144.5239,-170.4296 -242.8118,-167.5204 -180.8817,5.3538 -401.8918,155.0905 -427.8368,334.1818 -15.7923,109.01029 81.8395,268.41749 191.9863,268.95139 112.725,0.5464 210.4597,-161.1723 199.139,-273.32859 -16.591,-164.3701 -208.7966,-384.9353 -366.0097,-334.1732 -108.7747,35.1219 -300.0251,133.874 -324.4067,273.1093 -22.5424,128.73319 91.5682,234.68679 196.2877,339.40349"
             inkscape:path-effect="#path-effect4141-3-4-6-8-0-8-7-01-8"
             id="path4139-1-0-4-2-6-8-15-0"
             d="m 4175.2258,1571.1798 -754.8398,2.1163 c -54.6575,0.1532 -109.8619,3.7332 -163.6472,-5.9937 -26.8926,-4.8634 -53.5421,-13.9399 -75.278,-30.5055 -10.8679,-8.2828 -20.3979,-18.4196 -27.4151,-30.1445 -7.0172,-11.725 -11.475,-25.0662 -12.2165,-38.7105 -0.779,-14.3359 2.5632,-28.7784 8.888,-41.6672 6.3248,-12.8889 15.5721,-24.25 26.4367,-33.6355 21.7291,-18.7708 49.4176,-29.5117 77.5174,-35.4188 56.1998,-11.8144 114.3621,-8.2266 171.7902,-8.2391 l 439.7931,-0.096 c 56.4275,-0.012 114.5187,-2.3121 165.9,-25.6365 25.6906,-11.6622 49.2824,-28.1438 68.38,-48.9115 19.0976,-20.7677 33.634,-45.7815 41.7339,-72.8076 14.7677,-49.274 7.0972,-104.8071 -20.4747,-148.2329 -27.5719,-43.4259 -74.5669,-73.99105 -125.4424,-81.58689 38.6159,-9.4173 73.3149,-34.01245 94.9899,-67.33013 21.6749,-33.31768 30.0976,-75.00704 23.0573,-114.12617 -4.707,-26.15422 -16.0746,-50.95765 -31.9599,-72.26154 -15.8853,-21.30389 -36.2194,-39.1458 -58.8544,-53.06901 -45.27,-27.84641 -98.9057,-39.72976 -151.9975,-42.18985 -99.4798,-4.60955 -201.0896,23.67688 -280.6783,83.53592 -79.5887,59.85904 -135.6542,151.7261 -147.1585,250.64588 -7.1825,61.75879 3.3674,126.83649 37.2067,178.99619 16.9196,26.0799 39.4868,48.6215 66.1762,64.5625 26.6893,15.9409 57.5167,25.1632 88.6034,25.3927 31.7691,0.2345 63.3888,-8.9281 90.7628,-25.0523 27.3741,-16.1241 50.5258,-39.0773 67.9513,-65.6419 34.8511,-53.1292 46.1338,-119.3515 40.4249,-182.63439 -8.1645,-90.5022 -50.5897,-177.67172 -117.4685,-239.19032 -66.8787,-61.51859 -157.6857,-96.58944 -248.5412,-94.98288 -76.7353,1.35688 -153.0242,28.77394 -212.0721,77.79936 -59.0479,49.02541 -100.2101,119.52642 -112.3346,195.30994 -11.1718,69.82892 2.4261,143.36669 37.8296,204.58339 35.4035,61.2166 92.3615,109.6779 158.4581,134.8201"
             style="fill:none;fill-rule:evenodd;stroke:#000000;stroke-width:120;stroke-linecap:round;stroke-linejoin:round;stroke-miterlimit:4;stroke-dasharray:none;stroke-opacity:1" />
        </g>
      </g>
    </g>
  </g>
</svg>
