<?xml version="1.0" encoding="UTF-8" standalone="no"?>
<!-- Created with Inkscape (http://www.inkscape.org/) -->

<svg
   xmlns:dc="http://purl.org/dc/elements/1.1/"
   xmlns:cc="http://creativecommons.org/ns#"
   xmlns:rdf="http://www.w3.org/1999/02/22-rdf-syntax-ns#"
   xmlns:svg="http://www.w3.org/2000/svg"
   xmlns="http://www.w3.org/2000/svg"
   xmlns:sodipodi="http://sodipodi.sourceforge.net/DTD/sodipodi-0.dtd"
   xmlns:inkscape="http://www.inkscape.org/namespaces/inkscape"
   width="2000"
   height="2000"
   id="svg2992"
   version="1.1"
   inkscape:version="0.91pre2 r13516"
   sodipodi:docname="തൂ.svg">
  <defs
     id="defs5498">
    <inkscape:path-effect
       effect="spiro"
       id="path-effect2987"
       is_visible="true" />
    <inkscape:path-effect
       is_visible="true"
       id="path-effect2987-8"
       effect="spiro" />
    <inkscape:path-effect
       is_visible="true"
       id="path-effect2987-3"
       effect="spiro" />
    <inkscape:path-effect
       is_visible="true"
       id="path-effect4141-3-4-6"
       effect="spiro" />
    <inkscape:path-effect
       is_visible="true"
       id="path-effect4141-3-4-6-8"
       effect="spiro" />
    <inkscape:path-effect
       is_visible="true"
       id="path-effect4141-3-4-6-8-5"
       effect="spiro" />
    <inkscape:path-effect
       is_visible="true"
       id="path-effect4141-3-4-6-8-5-4"
       effect="spiro" />
    <inkscape:path-effect
       is_visible="true"
       id="path-effect4141-3-4-6-8-5-6"
       effect="spiro" />
    <inkscape:path-effect
       is_visible="true"
       id="path-effect2987-5"
       effect="spiro" />
    <inkscape:path-effect
       is_visible="true"
       id="path-effect4141-3-4-6-87"
       effect="spiro" />
    <inkscape:path-effect
       is_visible="true"
       id="path-effect4141-3-4-6-8-0"
       effect="spiro" />
    <inkscape:path-effect
       is_visible="true"
       id="path-effect4141-3-4-6-8-8"
       effect="spiro" />
    <inkscape:path-effect
       is_visible="true"
       id="path-effect4141-3-4-6-8-0-8"
       effect="spiro" />
    <inkscape:path-effect
       is_visible="true"
       id="path-effect4141-3-4-6-8-0-8-7"
       effect="spiro" />
  </defs>
  <sodipodi:namedview
     inkscape:window-height="853"
     inkscape:window-width="1600"
     inkscape:pageshadow="2"
     inkscape:pageopacity="0.0"
     borderopacity="1.0"
     bordercolor="#666666"
     pagecolor="#ffffff"
     id="base"
     showgrid="true"
     showguides="true"
     inkscape:guide-bbox="true"
     inkscape:zoom="0.32102648"
     inkscape:cx="1230.3387"
     inkscape:cy="912.76219"
     inkscape:window-x="1598"
     inkscape:window-y="-3"
     inkscape:current-layer="layer1-7"
     inkscape:window-maximized="1">
    <sodipodi:guide
       orientation="horizontal"
       position="1800,600"
       id="guide5596" />
    <inkscape:grid
       type="xygrid"
       id="grid3769"
       empspacing="5"
       visible="true"
       enabled="true"
       snapvisiblegridlinesonly="true" />
    <sodipodi:guide
       orientation="0,1"
       position="-2720,1600"
       id="guide4772" />
  </sodipodi:namedview>
  <metadata
     id="metadata5594">
    <rdf:RDF>
      <cc:Work
         rdf:about="">
        <dc:format>image/svg+xml</dc:format>
        <dc:type
           rdf:resource="http://purl.org/dc/dcmitype/StillImage" />
        <dc:title></dc:title>
      </cc:Work>
    </rdf:RDF>
  </metadata>
  <g
     inkscape:label="Layer 1"
     inkscape:groupmode="layer"
     id="layer1"
     transform="translate(0,1000)">
    <g
       id="layer1-5"
       inkscape:label="Layer 1"
       transform="translate(61.428743,14.362694)">
      <g
         transform="translate(-500.76683,-332.68778)"
         id="layer1-54"
         inkscape:label="Layer 1">
        <g
           transform="translate(-561.73379,157.27604)"
           id="layer1-7"
           inkscape:label="Layer 1">
          <path
             style="color:#000000;font-style:normal;font-variant:normal;font-weight:normal;font-stretch:normal;font-size:medium;line-height:normal;font-family:sans-serif;text-indent:0;text-align:start;text-decoration:none;text-decoration-line:none;text-decoration-style:solid;text-decoration-color:#000000;letter-spacing:normal;word-spacing:normal;text-transform:none;direction:ltr;block-progression:tb;writing-mode:lr-tb;baseline-shift:baseline;text-anchor:start;clip-rule:nonzero;display:inline;overflow:visible;visibility:visible;opacity:1;isolation:auto;mix-blend-mode:normal;color-interpolation:sRGB;color-interpolation-filters:linearRGB;solid-color:#000000;solid-opacity:1;fill:#000000;fill-opacity:1;fill-rule:evenodd;stroke:none;stroke-width:140;stroke-linecap:round;stroke-linejoin:round;stroke-miterlimit:4;stroke-dasharray:none;stroke-dashoffset:0;stroke-opacity:1;color-rendering:auto;image-rendering:auto;shape-rendering:auto;text-rendering:auto;enable-background:accumulate"
             d="m 1665.0332,-456.68555 c -117.9371,1.65556 -236.0703,34.46128 -336.2988,100.91211 -115.0377,76.2693 -201.8321,195.33721 -230.7754,333.156252 -28.128,133.936368 1.0485,276.166848 79.6348,388.212888 78.5863,112.04602 202.3791,187.91496 337.8886,207.08008 a 70.007,70.007 0 1 0 19.6055,-138.62109 c -95.7085,-13.53606 -187.3725,-69.71301 -242.877,-148.84961 -55.5043,-79.13658 -77.1066,-184.45149 -57.2402,-279.04883 20.5495,-97.850146 85.457,-188.44873 171.125,-245.24609 86.159,-57.12283 194.8026,-83.16067 300.8633,-76.66797 43.4765,2.66149 86.7282,10.69128 128.4336,23.59961 -57.8831,43.91763 -109.1427,97.55983 -148.8457,160.10742 -43.7371,68.902457 -72.9154,147.790726 -81.4004,230.662108 -11.8334,115.574062 18.2326,237.253292 96.2812,329.544922 38.9559,46.06495 88.6907,83.24931 145.795,106.29297 57.2269,23.09316 120.4087,31.29207 182.582,21.43555 72.5235,-11.49738 138.2443,-46.67044 189.3183,-96.55274 50.8805,-49.69321 85.8346,-112.28014 104.4747,-178.76758 37.2264,-132.78369 8.1087,-271.5723563 -53.8711,-385.87109 -35.9717,-66.33623 -83.2715,-125.94768 -138.9766,-176.33594 54.7033,-15.0181 111.8764,-24.08129 169.4824,-27.78711 88.3936,-5.68639 174.5407,2.31395 243.3965,36.73438 34.2166,17.10458 64.2263,40.88068 85.5703,69.02539 21.1491,27.88763 34.3515,61.50604 36.3028,93.57617 2.3574,38.746545 -12.4896,80.799969 -38.6504,109.47851562 C 2600.6907,28.063313 2560.1764,46.699681 2521.377,47.902344 a 70.007,70.007 0 0 0 1.955,139.966796 c 44.4793,0.13559 91.3913,21.26158 120.9727,54.47852 29.5813,33.21692 45.1544,82.25352 40.1562,126.45117 -5.7932,51.22838 -38.7835,103.61774 -84.8281,140.38281 -47.0048,37.53177 -108.004,62.16996 -173.4512,76.66797 -133.0496,29.47349 -278.4052,23.0512 -429.2578,22.13672 l -528.8086,-3.20508 c -65.612,-0.39775 -141.4495,-4.40762 -220.4609,19.47266 -40.4816,12.2351 -82.1811,32.8088 -116.2441,67.89257 -34.9658,36.01362 -59.5259,85.69753 -56.7481,142.69727 1.4815,30.40038 10.7832,58.41944 24.8828,82.77148 14.0128,24.20185 32.3274,44.07599 52.4805,60.05079 40.0517,31.74808 85.6068,47.38058 128.0684,55.81638 82.2332,16.3374 159.737,11.0332 228.9511,10.8633 l 1251.5625,-3.0703 a 70.007,70.007 0 1 0 -0.3437,-140.00001 l -1251.5625,3.07227 c -74.5801,0.18302 -142.5214,3.50115 -201.3262,-8.18164 -28.0576,-5.57421 -52.0935,-15.29921 -68.3848,-28.2129 -8.0181,-6.35576 -14.2875,-13.57842 -18.2871,-20.48632 a 70.007,70.007 0 0 0 0,-0.002 c -3.913,-6.75834 -5.9387,-13.92988 -6.207,-19.43554 -0.4872,-9.99686 5.6005,-26.24811 17.3594,-38.35938 12.6617,-13.04113 32.5767,-24.23144 56.3027,-31.40234 49.4038,-14.93173 110.5697,-13.90572 179.1074,-13.49024 l 528.8086,3.20704 c 146.7298,0.88949 302.892,9.44136 460.3867,-25.44727 79.8251,-17.68305 161.2568,-48.64281 230.5274,-103.95313 70.2308,-56.077 125.6592,-137.42959 136.5859,-234.05273 9.6453,-85.29111 -17.6319,-171.19032 -74.7168,-235.29102 -11.7381,-13.18076 -24.5879,-25.14734 -38.2617,-35.95312 6.8399,-6.18179 13.4251,-12.6876 19.6875,-19.552735 52.589,-57.650129 79.6999,-134.441151 74.9609,-212.330075 -3.8383,-63.08463 -28.0388,-121.60111 -64.4941,-169.67188 -36.2604,-47.81369 -83.468,-84.13309 -134.5215,-109.6543 -101.6843,-50.83111 -213.1078,-57.77237 -314.9824,-51.21874 -102.3599,6.58484 -206.2254,27.78135 -302.8262,68.8457 -84.5673,-43.67963 -177.9222,-69.38644 -272.9082,-75.20117 -16.7874,-1.02768 -33.6303,-1.42596 -50.4785,-1.18946 z m 316.957,235.42969 c 68.0736,47.00281 125.3991,110.27227 164.666,182.685548 47.8336,88.211163 67.0991,192.310152 42.1387,281.341792 -12.4534,44.42025 -35.9696,85.61538 -67.4922,116.40235 -31.3289,30.59788 -72.1783,51.89965 -113.4179,58.4375 -35.4357,5.61773 -73.851,0.89969 -108.2715,-12.99024 -34.5432,-13.93941 -66.425,-37.4703 -91.2852,-66.86718 -49.5836,-58.63208 -72.2072,-143.82876 -63.9082,-224.88282 6.0708,-59.291364 27.4776,-118.1435748 60.3262,-169.892574 32.9153,-51.854246 77.5727,-97.391626 129.0762,-133.896486 15.447,-10.94863 31.5743,-20.98741 48.1679,-30.33789 z"
             id="path4139-1-0-4-2-6"
             inkscape:connector-curvature="0" />
          <path
             sodipodi:nodetypes="csasszcssssaasc"
             inkscape:connector-curvature="0"
             inkscape:original-d="m 2877.7541,2648.779 -1251.5629,3.0714 c -30.5414,0.075 -359.2331,-12.5671 -364.2931,-142.9093 -4.6432,-119.605 305.8408,-156.7623 323.111,-156.6576 l 528.8082,3.2057 c 405.6381,2.459 676.3255,-135.717 757.5182,-301.32 81.1927,-165.6029 -230.4718,-258.7967 -230.4718,-258.7967 0,0 241.1364,-100.7494 211.827,-232.2128 -57.201,-256.5674 -241.3455,-327.7218 -439.6335,-264.9417 -176.2825,55.813 -583.1296,263.1317 -620.9558,485.0265 -22.965,134.7164 237.6012,284.6396 344.0612,381.0068 351.608,318.2742 255.0115,-373.3404 189.3469,-558.6854 -65.4173,-184.647 -301.1079,-317.8793 -496.9558,-313.6884 -220.8573,4.726 -440.1541,172.2513 -544.7709,377.3952 -104.6169,205.144 358.821,511.5966 358.821,511.5966"
             inkscape:path-effect="#path-effect4141-3-4-6-8-0-8-7"
             id="path4139-1-0-4-2-6-8"
             d="m 2877.7541,2648.779 -1251.5629,3.0714 c -71.8971,0.1764 -144.6193,4.4885 -215.1384,-9.5215 -35.2595,-7.005 -70.0552,-19.6847 -98.2268,-42.0156 -14.0858,-11.1654 -26.3774,-24.7141 -35.3836,-40.2693 -9.0063,-15.5552 -14.6694,-33.1499 -15.5443,-51.1029 -1.6325,-33.4983 13.6907,-66.4663 37.0531,-90.5287 23.3624,-24.0625 54.1697,-39.9445 86.2735,-49.6475 64.2076,-19.406 132.7095,-16.888 199.7844,-16.4814 l 528.8082,3.2057 c 148.7912,0.902 299.5502,8.3888 444.8224,-23.7923 72.6361,-16.0905 143.8509,-43.8895 201.9886,-90.3105 58.1377,-46.4211 102.3473,-113.2914 110.7072,-187.2172 7.3217,-64.7444 -14.1032,-132.213 -57.4364,-180.8718 -43.3331,-48.6588 -107.8787,-77.7263 -173.0354,-77.9249 58.3975,-1.8101 115.6473,-28.1445 155.0223,-71.3089 39.3749,-43.1643 60.3529,-102.5862 56.8047,-160.9039 -2.8948,-47.5774 -21.5955,-93.6452 -50.3977,-131.6244 -28.8022,-37.9792 -67.4114,-68.027 -110.0465,-89.3399 -85.2701,-42.6258 -184.0552,-50.0974 -279.1893,-43.9774 -142.6112,9.1742 -285.8061,48.6202 -402.396,131.2574 -58.295,41.3186 -109.4035,93.1665 -147.6963,153.4923 -38.2928,60.3257 -63.5856,129.1954 -70.8635,200.2768 -10.0662,98.3141 16.2784,201.7524 80.0945,277.2142 31.908,37.731 72.7161,68.0883 118.5398,86.5798 45.8236,18.4916 96.6224,24.9499 145.4269,17.2128 56.8816,-9.0176 110.1675,-37.2542 151.369,-77.4943 41.2015,-40.2401 70.4364,-92.1319 85.9831,-147.5857 31.0934,-110.9077 6.9015,-232.3504 -48.0052,-333.6054 -48.7467,-89.8951 -121.2309,-166.6888 -207.8211,-221.0901 -86.5902,-54.4013 -187.0645,-86.3499 -289.1347,-92.5983 -120.1801,-7.357 -243.4669,21.6618 -343.8197,88.1952 -100.3529,66.5333 -176.2047,171.3654 -200.9512,289.2 -23.9972,114.2669 1.3925,238.0404 68.4378,333.6318 67.0454,95.5913 174.7742,161.6142 290.3832,177.9648"
             style="fill:none;fill-rule:evenodd;stroke:#000000;stroke-width:140;stroke-linecap:round;stroke-linejoin:round;stroke-miterlimit:4;stroke-dasharray:none;stroke-opacity:1" />
        </g>
      </g>
    </g>
  </g>
</svg>
