<?xml version="1.0" encoding="UTF-8" standalone="no"?>
<!-- Created with Inkscape (http://www.inkscape.org/) -->

<svg
   xmlns:dc="http://purl.org/dc/elements/1.1/"
   xmlns:cc="http://creativecommons.org/ns#"
   xmlns:rdf="http://www.w3.org/1999/02/22-rdf-syntax-ns#"
   xmlns:svg="http://www.w3.org/2000/svg"
   xmlns="http://www.w3.org/2000/svg"
   xmlns:sodipodi="http://sodipodi.sourceforge.net/DTD/sodipodi-0.dtd"
   xmlns:inkscape="http://www.inkscape.org/namespaces/inkscape"
   width="2000"
   height="2000"
   id="svg2992"
   version="1.1"
   inkscape:version="0.91 r13725"
   sodipodi:docname="തു.svg">
  <defs
     id="defs5498">
    <inkscape:path-effect
       effect="spiro"
       id="path-effect2987"
       is_visible="true" />
    <inkscape:path-effect
       is_visible="true"
       id="path-effect2987-8"
       effect="spiro" />
    <inkscape:path-effect
       is_visible="true"
       id="path-effect2987-3"
       effect="spiro" />
    <inkscape:path-effect
       is_visible="true"
       id="path-effect4141-3-4-6"
       effect="spiro" />
    <inkscape:path-effect
       is_visible="true"
       id="path-effect4141-3-4-6-8"
       effect="spiro" />
    <inkscape:path-effect
       is_visible="true"
       id="path-effect4141-3-4-6-8-5"
       effect="spiro" />
    <inkscape:path-effect
       is_visible="true"
       id="path-effect4141-3-4-6-8-5-4"
       effect="spiro" />
    <inkscape:path-effect
       is_visible="true"
       id="path-effect4141-3-4-6-8-5-6"
       effect="spiro" />
    <inkscape:path-effect
       is_visible="true"
       id="path-effect2987-5"
       effect="spiro" />
    <inkscape:path-effect
       is_visible="true"
       id="path-effect4141-3-4-6-87"
       effect="spiro" />
    <inkscape:path-effect
       is_visible="true"
       id="path-effect4141-3-4-6-8-0"
       effect="spiro" />
    <inkscape:path-effect
       is_visible="true"
       id="path-effect4141-3-4-6-8-8"
       effect="spiro" />
    <inkscape:path-effect
       is_visible="true"
       id="path-effect4141-3-4-6-8-0-8"
       effect="spiro" />
    <inkscape:path-effect
       is_visible="true"
       id="path-effect4141-3-4-6-8-0-8-8"
       effect="spiro" />
    <inkscape:path-effect
       is_visible="true"
       id="path-effect4141-3-4-6-8-0-8-2"
       effect="spiro" />
    <inkscape:path-effect
       is_visible="true"
       id="path-effect4141-3-4-6-8-0-8-4"
       effect="spiro" />
    <inkscape:path-effect
       is_visible="true"
       id="path-effect4141-3-4-6-8-0-8-4-7"
       effect="spiro" />
  </defs>
  <sodipodi:namedview
     inkscape:window-height="851"
     inkscape:window-width="1600"
     inkscape:pageshadow="2"
     inkscape:pageopacity="0.0"
     borderopacity="1.0"
     bordercolor="#666666"
     pagecolor="#ffffff"
     id="base"
     showgrid="true"
     showguides="true"
     inkscape:guide-bbox="true"
     inkscape:zoom="0.227"
     inkscape:cx="2248.9235"
     inkscape:cy="-173.21953"
     inkscape:window-x="1599"
     inkscape:window-y="-1"
     inkscape:current-layer="layer1-7"
     inkscape:window-maximized="1">
    <sodipodi:guide
       orientation="horizontal"
       position="1800,600"
       id="guide5596" />
    <inkscape:grid
       type="xygrid"
       id="grid3769"
       empspacing="5"
       visible="true"
       enabled="true"
       snapvisiblegridlinesonly="true" />
    <sodipodi:guide
       orientation="0,1"
       position="-2720,1600"
       id="guide4772" />
  </sodipodi:namedview>
  <metadata
     id="metadata5594">
    <rdf:RDF>
      <cc:Work
         rdf:about="">
        <dc:format>image/svg+xml</dc:format>
        <dc:type
           rdf:resource="http://purl.org/dc/dcmitype/StillImage" />
        <dc:title />
      </cc:Work>
    </rdf:RDF>
  </metadata>
  <g
     inkscape:label="Layer 1"
     inkscape:groupmode="layer"
     id="layer1"
     transform="translate(0,1000)">
    <g
       id="layer1-5"
       inkscape:label="Layer 1"
       transform="translate(61.428743,14.362694)">
      <g
         transform="translate(-500.76683,-332.68778)"
         id="layer1-54"
         inkscape:label="Layer 1">
        <g
           transform="translate(-561.73379,157.27604)"
           id="layer1-7"
           inkscape:label="Layer 1">
          <path
             sodipodi:nodetypes="csassaaaaaaac"
             inkscape:connector-curvature="0"
             inkscape:original-d="m 2694.3309,1037.1153 -1139.2978,1.7615 c -15.2708,0.024 -378.5758,-34.2321 -376.1529,-172.09464 2.4213,-137.76437 373.0607,-158.70039 381.6959,-158.6576 l 468.3286,2.32071 c 405.6405,2.01007 623.2728,-230.57271 644.1576,-501.99036 21.1657,-275.067502 -291.43,-600.63381 -567.3035,-602.62577 -235.8909,-1.70327 -485.2439,272.4421 -492.4742,508.22836 -5.0975,166.23769 158.6028,389.13133 324.6049,378.91988 153.3864,-9.43541 273.4972,-231.71486 254.762,-384.24492 -30.286,-246.56975 -301.8018,-515.49493 -549.9109,-503.01386 -231.4891,11.645 -455.2928,286.79873 -463.3853,518.4392 -5.4468,155.91105 286.7804,369.86255 286.7804,369.86255"
             inkscape:path-effect="#path-effect4141-3-4-6-8-0-8"
             id="path4139-1-0-4-2-6"
             d="m 2694.3309,1037.1153 -1139.2978,1.7615 c -76.9909,0.119 -155.3475,3.5314 -229.7304,-16.3381 -37.1915,-9.9347 -73.2666,-26.67438 -101.1094,-53.25791 -13.9214,-13.29176 -25.647,-28.9876 -33.6887,-46.47496 -8.0416,-17.48737 -12.3404,-36.78924 -11.6244,-56.02367 0.7081,-19.02401 6.3105,-37.74762 15.4149,-54.4666 9.1044,-16.71898 21.656,-31.46179 36.1726,-43.77779 29.0331,-24.63201 65.3847,-39.39295 102.5018,-47.87691 74.2343,-16.96791 151.4588,-12.91364 227.6066,-12.5363 l 468.3286,2.32071 c 77.0322,0.38172 154.6043,-0.1535 230.1944,-14.9943 75.5901,-14.84081 148.8056,-44.06934 211.1424,-89.32669 62.3368,-45.25736 113.1706,-106.04162 147.4229,-175.04079 34.2524,-68.99918 52.0718,-145.66725 55.3979,-222.62858 6.7007,-155.045322 -47.0865,-313.08192 -151.889,-427.53888 -104.8024,-114.45697 -260.3971,-182.40464 -415.4145,-175.08689 -129.4726,6.11188 -255.4963,64.20496 -345.3319,157.63983 -89.8356,93.43488 -142.8334,221.043406 -147.1423,350.58853 -3.1397,94.39431 20.1577,191.83884 77.9534,266.53685 28.8979,37.349 66.1153,68.49719 108.8212,88.65267 42.7059,20.15548 90.9134,29.10104 137.8303,23.73036 42.1938,-4.83002 82.8252,-21.13515 117.5869,-45.53331 34.7617,-24.39817 63.6983,-56.755 85.4665,-93.22131 43.5364,-72.93264 57.7408,-160.76603 51.7086,-245.4903 -9.7606,-137.091993 -72.3239,-270.14931 -173.2281,-363.46513 -100.9041,-93.31583 -239.3696,-145.42783 -376.6828,-139.54873 -129.7809,5.5566 -257.1827,63.26937 -344.5513,159.39788 -87.3685,96.12851 -132.8023,229.8947127 -118.834,359.04132 8.829,81.63075 40.7208,160.6413 91.0322,225.52814 50.3113,64.88683 118.8889,115.45233 195.7482,144.33441"
             style="fill:none;fill-rule:evenodd;stroke:#000000;stroke-width:140;stroke-linecap:round;stroke-linejoin:round;stroke-miterlimit:4;stroke-dasharray:none;stroke-opacity:1" />
          <path
             style="color:#000000;font-style:normal;font-variant:normal;font-weight:normal;font-stretch:normal;font-size:medium;line-height:normal;font-family:sans-serif;text-indent:0;text-align:start;text-decoration:none;text-decoration-line:none;text-decoration-style:solid;text-decoration-color:#000000;letter-spacing:normal;word-spacing:normal;text-transform:none;direction:ltr;block-progression:tb;writing-mode:lr-tb;baseline-shift:baseline;text-anchor:start;white-space:normal;clip-rule:nonzero;display:inline;overflow:visible;visibility:visible;opacity:1;isolation:auto;mix-blend-mode:normal;color-interpolation:sRGB;color-interpolation-filters:linearRGB;solid-color:#000000;solid-opacity:1;fill:#000000;fill-opacity:1;fill-rule:evenodd;stroke:none;stroke-width:140;stroke-linecap:round;stroke-linejoin:round;stroke-miterlimit:4;stroke-dasharray:none;stroke-dashoffset:0;stroke-opacity:1;color-rendering:auto;image-rendering:auto;shape-rendering:auto;text-rendering:auto;enable-background:accumulate"
             d="m -351.28739,-472.82252 c -9.7898,-0.086 -19.5948,0.08 -29.4063,0.5 -148.5203,6.3589 -292.5894,71.3784 -393.3594,182.252 -100.98354,111.1086 -152.8958,263.232802 -136.62691,413.6503 10.24762,94.7465 46.91371,185.5803 105.30859,260.8926 58.39502,75.3124 137.23502,133.4462 226.44332,166.9688 a 70.007,70.007 0 1 0 49.2461,-131.0528 c -64.5102,-24.2416 -122.8249,-67.2397 -165.0527,-121.7011 -42.2277,-54.4614 -69.3454,-121.6472 -76.7559,-190.1621 -11.6676,-107.87569768 27.2875,-223.2852 101.0411,-304.4336 73.9672,-81.3835 184.7026,-131.7887 295.7441,-136.543 32.5857,-1.3952 65.4483,1.2263 97.8125,7.2637 -11.5703,10.2499 -22.8374,20.862 -33.5801,32.0351 -102.3723,106.4739 -161.7524,249.698702 -166.6445,396.7774 -3.5754,107.4927 22.2982,220.8989 92.5527,311.6992 35.1716,45.4574 80.6229,83.7846 134.3067,109.1211 53.8641,25.4217 114.6424,36.9584 175.667901,29.9726 54.8339,-6.2769 106.0874,-27.0746 149.8399,-57.7832 43.630399,-30.6229 78.936099,-70.3775 105.357399,-114.6386 52.7798,-88.4173 68.2562,-190.4324 61.4277,-286.339898 -11.0375,-155.0275 -80.8584,-303.843102 -195.525399,-409.886702 -4.3205,-3.9957 -8.8086,-7.7884 -13.2421,-11.6484 18.3398,-3.3439 36.8306,-5.6004 55.3515,-6.4747 132.426799,-6.2513 269.669399,53.2524 360.486299,152.4356 91.1855,99.585502 139.4965,240.392802 133.5821,377.2441 -2.947,68.1899 -18.7931,135.3653 -48.1621,194.5274 -29.2679,58.9581 -72.9854,111.1394 -125.8496,149.5195 -52.845,38.3662 -116.5764,64.1435 -183.502,77.2832 -67.0184,13.1579 -139.888099,14.0626 -216.3632986,13.6836 l -468.3281014,-2.3203 c -73.8977,-0.3662 -156.6749,-5.5625 -243.5508,14.2949 -44.6326,10.2017 -91.69631,28.3855 -132.18943,62.7403 -20.35188,17.2667 -38.60174,38.4065 -52.36329,63.6777 -13.83397,25.4042 -22.7355,54.3077 -23.89062,85.3398 -1.16815,31.382 5.72432,61.2251 17.97852,87.8731 12.19023,26.5088 29.31755,49.1175 48.94726,67.85942 39.06995,37.3029 86.15396,58.1761 131.38286,70.2578 88.1554,23.5484 172.9083,18.8249 247.9042,18.709 l 1139.2969,-1.7618 a 70.007,70.007 0 1 0 -0.2148,-140.00002 l -1139.2988,1.7618 c -78.9859,0.122 -150.9462,2.2237 -211.5567,-13.9668 -29.154,-7.7878 -54.2204,-20.3938 -70.8359,-36.2579 -8.2131,-7.8415 -14.5367,-16.626 -18.4297,-25.0918 -3.8291,-8.3267 -5.5353,-17.087 -5.2715,-24.1738 0.2612,-7.0159 2.5646,-15.5599 6.9395,-23.5937 4.4473,-8.1669 11.3031,-16.5117 19.9843,-23.877 17.5732,-14.9093 43.2109,-26.2495 72.8125,-33.0156 61.5928,-14.0784 133.2643,-11.1658 211.6621,-10.7774 l 468.3282014,2.3223 c 77.5891996,0.3845 159.8655986,0.2171 244.0272986,-16.3066 84.2546,-16.542 166.9526,-49.2206 238.7813,-101.3692 71.8095,-52.1345 129.7611,-121.5204 168.998,-200.5605 39.1356,-78.8363 58.9276,-164.9997 62.6328,-250.7324 7.487,-173.239298 -51.7777,-348.5036 -170.1972,-477.8321 -118.7879,-129.7307 -292.7338,-206.1224 -470.341799,-197.7383 -70.7788,3.3412 -140.0439,20.158 -204.320401,48.2832 -71.9716,-31.1141 -149.9578,-48.2101 -228.9843,-48.9062 z m 229.4375,206.5586 c 26.271401,15.8052 50.941201,34.1367 73.304701,54.8184 87.1414,80.588 142.4499,197.886402 150.933599,317.0429 5.2359,73.5411 -7.699299,147.1927 -41.992199,204.6407 -17.1152,28.6714 -39.6813,53.6311 -65.5742996,71.8046 -25.7708004,18.0879 -55.7802004,29.9002 -85.3339004,33.2832 -32.808301,3.7557 -68.444601,-2.599 -99.992201,-17.4882 -31.7281,-14.9744 -60.7117,-38.945 -83.336,-68.1856 -45.337,-58.5957 -66.0575,-140.0771 -63.3535,-221.373 3.7257,-112.0115977 50.3417,-224.0045 127.6406,-304.4004 25.908,-26.9461 55.5906,-50.4627 87.7032,-70.1426 z"
             id="path4139-1-0-4-2-6-9"
             inkscape:connector-curvature="0" />
          <path
             sodipodi:nodetypes="csassaaaaaaac"
             inkscape:connector-curvature="0"
             inkscape:original-d="m 4178.3038,1589.673 -775.8095,1.1995 c -10.3987,0.016 -257.7927,-23.3105 -256.1428,-117.1885 1.6488,-93.8113 254.0372,-108.0677 259.9174,-108.0386 l 318.9102,1.5803 c 276.2226,1.3688 424.4202,-157.0094 438.6418,-341.8323 14.4128,-187.30831 -198.4505,-409.00401 -386.3077,-410.36044 -160.6308,-1.15985 -330.4288,185.52055 -335.3523,346.08015 -3.4711,113.20019 108.0013,264.98049 221.0411,258.02699 104.4491,-6.4251 186.239,-157.7872 173.4812,-261.65314 -20.6234,-167.90262 -205.5132,-351.02831 -374.4641,-342.52927 -157.6334,7.92971 -310.0334,195.29675 -315.5441,353.03326 -3.709,106.16825 195.2843,251.85935 195.2843,251.85935"
             inkscape:path-effect="#path-effect4141-3-4-6-8-0-8-4"
             id="path4139-1-0-4-2-6-8"
             d="m 4178.3038,1589.673 -775.8095,1.1995 c -52.4273,0.081 -105.7845,2.4047 -156.4358,-11.1255 -25.3257,-6.7651 -49.8912,-18.164 -68.8508,-36.2662 -9.4799,-9.051 -17.4645,-19.7392 -22.9405,-31.6473 -5.476,-11.9081 -8.4032,-25.0517 -7.9157,-38.1495 0.4822,-12.9545 4.2971,-25.7044 10.4968,-37.0893 6.1997,-11.3848 14.7468,-21.424 24.6319,-29.8106 19.7702,-16.7733 44.524,-26.8249 69.7991,-32.602 50.5501,-11.5544 103.1364,-8.7936 154.9896,-8.5367 l 318.9102,1.5803 c 52.4554,0.2599 105.2784,-0.1045 156.7518,-10.2104 51.4734,-10.1059 101.3298,-30.0092 143.7783,-60.8274 42.4485,-30.8181 77.064,-72.2094 100.3883,-119.1947 23.3242,-46.9852 35.4585,-99.1927 37.7234,-151.5998 4.5629,-105.57875 -32.0638,-213.19442 -103.4294,-291.13435 -71.3657,-77.93993 -177.3185,-124.20915 -282.8783,-119.22609 -88.1649,4.16192 -173.9813,43.72063 -235.1552,107.34548 -61.1739,63.62485 -97.2629,150.52039 -100.1971,238.73467 -2.138,64.27819 13.7265,130.63349 53.0828,181.49939 19.6781,25.4329 45.0214,46.6434 74.1022,60.3683 29.0807,13.725 61.9079,19.8165 93.8561,16.1593 28.732,-3.289 56.4002,-14.3921 80.0713,-31.0061 23.6711,-16.614 43.3756,-38.6475 58.1987,-63.4794 29.6463,-49.6638 39.3188,-109.4743 35.2112,-167.16764 -6.6465,-93.35335 -49.2493,-183.95926 -117.9604,-247.50304 -68.7111,-63.54377 -162.9997,-99.02963 -256.5037,-95.02623 -88.3748,3.78379 -175.1296,43.08354 -234.6236,108.54263 -59.494,65.45909 -90.4322,156.54773 -80.9205,244.49063 6.0122,55.58675 27.729,109.38935 61.9887,153.57425 34.2597,44.185 80.9579,78.6177 133.2956,98.2851"
             style="fill:none;fill-rule:evenodd;stroke:#000000;stroke-width:120;stroke-linecap:round;stroke-linejoin:round;stroke-miterlimit:4;stroke-dasharray:none;stroke-opacity:1" />
          <path
             style="color:#000000;font-style:normal;font-variant:normal;font-weight:normal;font-stretch:normal;font-size:medium;line-height:normal;font-family:sans-serif;text-indent:0;text-align:start;text-decoration:none;text-decoration-line:none;text-decoration-style:solid;text-decoration-color:#000000;letter-spacing:normal;word-spacing:normal;text-transform:none;direction:ltr;block-progression:tb;writing-mode:lr-tb;baseline-shift:baseline;text-anchor:start;white-space:normal;clip-rule:nonzero;display:inline;overflow:visible;visibility:visible;opacity:1;isolation:auto;mix-blend-mode:normal;color-interpolation:sRGB;color-interpolation-filters:linearRGB;solid-color:#000000;solid-opacity:1;fill:#000000;fill-opacity:1;fill-rule:evenodd;stroke:none;stroke-width:120;stroke-linecap:round;stroke-linejoin:round;stroke-miterlimit:4;stroke-dasharray:none;stroke-dashoffset:0;stroke-opacity:1;color-rendering:auto;image-rendering:auto;shape-rendering:auto;text-rendering:auto;enable-background:accumulate"
             d="m 4704.8145,565.23242 c -6.8793,-0.0596 -13.7702,0.0582 -20.668,0.35352 -104.4372,4.4715 -205.4781,50.03507 -276.459,128.13281 -71.164,78.29917 -107.6557,185.12173 -96.1719,291.29687 7.2281,66.82878 33.0362,130.76558 74.2246,183.88668 41.1885,53.121 96.6847,94.0407 159.6075,117.6856 a 60.006,60.006 0 1 0 42.2109,-112.3301 c -41.7527,-15.6897 -79.6535,-43.6359 -106.9844,-78.8848 -27.3309,-35.2489 -44.9576,-78.9169 -49.7539,-123.26167 -7.5398,-69.71068 17.8459,-145.06456 65.6699,-197.6836 48.0071,-52.82045 120.4767,-85.85704 192.7891,-88.95312 12.9683,-0.55524 26.0226,-0.084 39.043,1.20898 -1.563,1.57324 -3.1845,3.08184 -4.7227,4.68164 -71.9196,74.80108 -113.478,175.08316 -116.9121,278.32618 -2.5114,75.50539 15.5606,155.54309 65.5957,220.21089 25.0556,32.3829 57.4569,59.7463 95.9473,77.9122 38.645,18.239 82.2477,26.5513 126.289,21.5097 39.5665,-4.5292 76.3394,-19.4831 107.7168,-41.5058 31.273,-21.9495 56.4366,-50.3247 75.2481,-81.8379 37.5692,-62.9364 48.3311,-134.9028 43.541,-202.18167 -7.4089,-104.06211 -52.5316,-203.82392 -126.9668,-277.47461 3.5913,-0.31638 7.1841,-0.61554 10.7773,-0.78516 86.1963,-4.06899 176.4188,34.96442 235.7969,99.8125 59.694,65.19295 91.6272,158.0396 87.7383,248.02344 -1.94,44.8887 -12.3849,88.9583 -31.5234,127.5117 -19.0519,38.3787 -47.5654,72.397 -81.8946,97.3203 -34.3126,24.9115 -76.0412,41.8581 -120.0879,50.5059 -44.1262,8.6634 -92.9165,9.3435 -144.8945,9.0859 l -318.9102,-1.58 a 60.006,60.006 0 0 0 -0,0 c -49.9245,-0.2474 -107.2705,-3.9863 -168.6563,10.0449 -31.7165,7.2496 -65.6535,20.2351 -95.2461,45.3418 -14.8868,12.6301 -28.3162,28.152 -38.5078,46.8672 -10.2536,18.8293 -16.8964,40.3056 -17.7617,63.5527 -0.875,23.5097 4.2746,45.6891 13.3613,65.4492 9.0317,19.6403 21.647,36.2521 36.0196,49.9746 28.5824,27.2899 62.5845,42.2325 94.7988,50.8379 62.4563,16.6836 121.2964,13.2366 172.0137,13.1582 l 775.8105,-1.1992 a 60.006,60.006 0 1 0 -0.1855,-120 l -775.8106,1.1992 c -54.1373,0.084 -102.0111,1.283 -140.8574,-9.0937 -18.4366,-4.9249 -33.5661,-12.7813 -42.9023,-21.6954 -4.5868,-4.3792 -7.9413,-9.1429 -9.8614,-13.3183 -1.8652,-4.0561 -2.5706,-8.1637 -2.4707,-10.8496 0.099,-2.6619 1.0867,-6.6866 3.2325,-10.627 2.2078,-4.0544 5.8724,-8.6088 10.7558,-12.7519 9.9473,-8.4395 25.5184,-15.5586 44.3516,-19.8633 39.7144,-9.0777 87.5404,-7.2958 141.3222,-7.0293 l 318.9102,1.5801 c 52.9328,0.2622 109.7888,0.2163 168.6094,-11.3321 58.9001,-11.564 116.8844,-34.4254 167.4687,-71.1503 50.5679,-36.7129 91.2841,-85.4784 118.8809,-141.0704 27.5099,-55.417 41.334,-115.762 43.9238,-175.6875 5.2369,-121.1736 -36.0836,-243.55723 -119.1211,-334.2441 -83.3531,-91.03176 -205.0358,-144.53776 -329.959,-138.64062 -47.9842,2.26514 -94.8972,13.31272 -138.625,31.77929 -49.0918,-20.48851 -102.0181,-31.7537 -155.7382,-32.21875 z m 156.1132,167.56446 c 14.7974,9.40211 28.779,19.99916 41.5508,31.81054 56.9145,52.63428 93.2977,129.73286 98.8496,207.71289 3.4252,48.10769 -5.1575,95.76109 -26.8808,132.15239 a 60.006,60.006 0 0 0 0,0 c -10.8348,18.1505 -25.0812,33.8426 -41.1504,45.1211 -15.965,11.2053 -34.5283,18.4571 -52.4258,20.5059 -19.8551,2.2728 -41.9075,-1.5977 -61.4238,-10.8086 -19.6712,-9.284 -37.9551,-24.3413 -52.2559,-42.8242 -28.6773,-37.064 -42.3349,-89.7381 -40.5703,-142.78911 2.4343,-73.18553 33.0542,-146.69398 83.4824,-199.14258 15.1495,-15.75647 32.3089,-29.74116 50.8242,-41.74023 z"
             id="path4139-1-0-4-2-6-8-0"
             inkscape:connector-curvature="0" />
        </g>
      </g>
    </g>
  </g>
</svg>
