<?xml version="1.0" encoding="UTF-8" standalone="no"?>
<!-- Created with Inkscape (http://www.inkscape.org/) -->

<svg
   xmlns:dc="http://purl.org/dc/elements/1.1/"
   xmlns:cc="http://creativecommons.org/ns#"
   xmlns:rdf="http://www.w3.org/1999/02/22-rdf-syntax-ns#"
   xmlns:svg="http://www.w3.org/2000/svg"
   xmlns="http://www.w3.org/2000/svg"
   xmlns:sodipodi="http://sodipodi.sourceforge.net/DTD/sodipodi-0.dtd"
   xmlns:inkscape="http://www.inkscape.org/namespaces/inkscape"
   width="2000"
   height="2000"
   id="svg2992"
   version="1.1"
   inkscape:version="0.91 r13725"
   sodipodi:docname="ത്ര.svg">
  <defs
     id="defs5498">
    <inkscape:path-effect
       effect="spiro"
       id="path-effect2987"
       is_visible="true" />
    <inkscape:path-effect
       is_visible="true"
       id="path-effect2987-6"
       effect="spiro" />
    <inkscape:path-effect
       is_visible="true"
       id="path-effect4141-3-4-6"
       effect="spiro" />
    <inkscape:path-effect
       is_visible="true"
       id="path-effect4141-3-4-6-8"
       effect="spiro" />
    <inkscape:path-effect
       is_visible="true"
       id="path-effect4141-3-4-6-8-1"
       effect="spiro" />
    <inkscape:path-effect
       is_visible="true"
       id="path-effect4141-3-4-6-8-1-2"
       effect="spiro" />
    <inkscape:path-effect
       effect="spiro"
       id="path-effect4141-3-4-6-8-86"
       is_visible="true" />
    <inkscape:path-effect
       effect="spiro"
       id="path-effect4141-3-4-6-8-86-6"
       is_visible="true" />
    <inkscape:path-effect
       effect="spiro"
       id="path-effect4141-3-4-6-8-86-6-5"
       is_visible="true" />
    <inkscape:path-effect
       effect="spiro"
       id="path-effect4141-3-4-6-8-86-6-5-1"
       is_visible="true" />
    <inkscape:path-effect
       effect="spiro"
       id="path-effect4141-3-4-6-8-86-6-5-1-1"
       is_visible="true" />
    <inkscape:path-effect
       effect="spiro"
       id="path-effect4141-3-4-6-8-86-6-5-1-4"
       is_visible="true" />
    <inkscape:path-effect
       effect="spiro"
       id="path-effect4141-3-4-6-8-86-6-5-1-4-5"
       is_visible="true" />
    <inkscape:path-effect
       effect="spiro"
       id="path-effect4141-3-4-6-8-86-6-5-1-8"
       is_visible="true" />
    <inkscape:path-effect
       effect="spiro"
       id="path-effect4141-3-4-6-8-86-6-5-1-0"
       is_visible="true" />
    <inkscape:path-effect
       effect="spiro"
       id="path-effect4141-3-4-6-8-86-6-5-1-45"
       is_visible="true" />
  </defs>
  <sodipodi:namedview
     inkscape:window-height="871"
     inkscape:window-width="1600"
     inkscape:pageshadow="2"
     inkscape:pageopacity="0.0"
     borderopacity="1.0"
     bordercolor="#666666"
     pagecolor="#ffffff"
     id="base"
     showgrid="true"
     showguides="true"
     inkscape:guide-bbox="true"
     inkscape:zoom="0.35355339"
     inkscape:cx="2689.024"
     inkscape:cy="913.86109"
     inkscape:window-x="1600"
     inkscape:window-y="0"
     inkscape:current-layer="layer1-5"
     inkscape:window-maximized="1">
    <sodipodi:guide
       orientation="horizontal"
       position="0,600"
       id="guide5596" />
    <inkscape:grid
       type="xygrid"
       id="grid3769"
       empspacing="5"
       visible="true"
       enabled="true"
       snapvisiblegridlinesonly="true" />
    <sodipodi:guide
       orientation="0,1"
       position="-2720,1600"
       id="guide4772" />
    <sodipodi:guide
       position="3320,1710"
       orientation="0,1"
       id="guide4174"
       inkscape:label=""
       inkscape:color="rgb(0,0,255)" />
  </sodipodi:namedview>
  <metadata
     id="metadata5594">
    <rdf:RDF>
      <cc:Work
         rdf:about="">
        <dc:format>image/svg+xml</dc:format>
        <dc:type
           rdf:resource="http://purl.org/dc/dcmitype/StillImage" />
        <dc:title />
      </cc:Work>
    </rdf:RDF>
  </metadata>
  <g
     inkscape:label="Layer 1"
     inkscape:groupmode="layer"
     id="layer1"
     transform="translate(0,1000)">
    <g
       id="layer1-5"
       inkscape:label="Layer 1"
       transform="translate(370.56395,86.625934)">
      <path
         style="fill:none;fill-rule:evenodd;stroke:#000000;stroke-width:140;stroke-linecap:round;stroke-linejoin:round;stroke-miterlimit:4;stroke-dasharray:none;stroke-opacity:1"
         d="m -336.32133,-661.17558 c -116.57431,139.63933 -182.98229,320.29992 -184.59923,502.19576 -1.04242,117.265186 24.5666,235.059526 77.20186,339.85332 52.63527,104.79379 132.33638,195.75718 229.03204,262.10596 96.69565,66.34878 209.4136087,107.52891 325.01615,127.23328 115.60255,19.70438 233.64292,18.13222 350.879,15.31957 l 45.35134,-1.08804 c 101.782,-2.44189 204.46465,-6.38114 303.02277,-31.91219 98.55813,-25.53105 192.1796,-72.82431 266.8084,-142.07806 74.6288,-69.25374 129.2434,-159.41122 158.0404,-257.06506 28.797,-97.653835 32.2628,-201.915328 16.4057,-302.48416 -19.5609,-124.05881 -69.2642,-245.0193 -152.8212,-338.782 -83.557,-93.76271 -202.47884,-158.3521 -327.90096,-164.87209 -129.50142,-6.73205 -259.11619,49.49122 -349.30985,142.66333 -90.19366,93.1721 -141.62929,220.76824 -150.48577,350.14173 -6.34537,92.691695 9.291,189.154547 59.00608,267.64292 24.85754,39.24419 58.0341,73.46083 97.62561,97.76138 39.5915,24.30054 85.65389,38.47099 132.10811,38.5644 46.91654,0.0943 93.49773,-14.18209 133.39685,-38.86469 39.89912,-24.68261 73.165,-59.55045 97.70194,-99.53932 49.07388,-79.977726 62.35343,-178.224647 51.69827,-271.45099 -17.71374,-154.98478 -101.82793,-302.29875 -229.49154,-391.94282 -127.66362,-89.64407 -297.39808,-118.4949 -445.9748,-70.96578 -95.950808,30.69429 -181.956653,92.08747 -241.465875,173.37307 -59.509225,81.28561 -92.085725,182.10825 -90.529355,282.83697 1.3953,90.303872 30.10197,180.0081013 81.393926,254.344307 C -32.919508,156.15142 40.755966,214.8272 124.68546,248.1825"
         id="path4139-1-0-4-2-1-1-9-1"
         inkscape:path-effect="#path-effect4141-3-4-6-8-86-6-5-1"
         inkscape:original-d="m -336.32133,-661.17558 c -75.32869,186.25521 -234.73534,331.038 -184.59923,502.19576 115.48303,394.24313 654.05043,752.38318 982.12905,744.51213 l 45.35134,-1.08804 c 255.39889,-6.12736 738.95537,-385.24619 744.27727,-733.53947 3.5458,-232.05557 -248.6662,-500.1342 -480.72216,-503.65409 -233.93712,-3.54842 -479.71365,259.70448 -499.79562,492.80506 -14.20687,164.9056515 123.229,405.34113 288.7398,403.9687 165.97799,-1.37631 313.00401,-246.643087 282.79706,-409.855 -49.67436,-268.39673 -406.46703,-509.20894 -675.46634,-462.9086 -185.349088,31.90241 -329.63411,268.15028 -331.99523,456.21004 -2.13899,170.367525 290.29085,420.71159 290.29085,420.71159"
         inkscape:connector-curvature="0"
         sodipodi:nodetypes="cassaaaaaaac" />
      <path
         style="fill:none;fill-rule:evenodd;stroke:#000000;stroke-width:70;stroke-linecap:round;stroke-linejoin:round;stroke-miterlimit:4;stroke-dasharray:none;stroke-opacity:1"
         d="m -2380.7592,-657.47726 c -130.363,160.61937 -193.3094,374.27247 -170.8543,579.915057 11.6703,106.87575 45.8425,211.531513 101.8921,303.276043 56.0497,91.74454 133.9703,169.94471 225.2778,226.70349 91.3075,56.75878 195.2591,91.6601 301.4566,108.41437 106.1975,16.75427 214.3121,15.47702 321.7981,13.15826 l 154.8523,-3.34058 c 93.0228,-2.00675 186.5393,-4.93067 277.7698,-23.21352 91.2305,-18.28286 179.89029,-52.0026 257.06054,-103.98352 77.17026,-51.98093 142.24094,-121.83944 188.34726,-202.65697 46.10631,-80.81753 73.26802,-172.059725 81.33591,-264.753706 11.63655,-133.695174 -17.05765,-271.737674 -87.41627,-386.015734 -70.35862,-114.27805 -183.13467,-203.25946 -312.71494,-238.17023 -149.0947,-40.16824 -315.08,-6.01131 -439.869,84.93054 -124.789,90.94185 -207.4025,235.7321 -228.3489,388.71565 -14.1782,103.551868 -0.1364,213.418292 54.384,302.5897 27.2601,44.58571 64.3742,83.39297 108.8636,110.80991 44.4895,27.41695 96.3985,43.20506 148.6574,43.08306 52.6208,-0.12285 104.8132,-16.38193 149.3503,-44.40705 44.5372,-28.02511 81.4615,-67.57216 108.2259,-112.87813 53.5288,-90.611942 65.3242,-201.774245 47.9092,-305.56525 -28.5778,-170.31949 -136.256,-326.3349 -286.9489,-410.69758 -150.6929,-84.36268 -341.559,-94.24303 -498.8809,-23.00242 -86.2884,39.07425 -162.1535,101.41547 -215.7994,179.48337 -53.6459,78.0679 -84.7211,171.7391 -86.6594,266.44245 -2.013,98.351185 27.6097,197.106165 83.4227,278.11179 55.8131,81.00562 137.5401,143.8606 230.1579,177.01095"
         id="path4139-1-0-4-2-1-1-9-1-4"
         inkscape:path-effect="#path-effect4141-3-4-6-8-86-6-5-1-4"
         inkscape:original-d="m -2380.7592,-657.47726 c 0,0 -238.3748,390.0433 -170.8543,579.915057 128.6965,361.902683 711.8784,656.698243 950.4246,651.552163 l 154.8523,-3.34058 c 275.9044,-5.952 744.11439,-266.65653 804.51351,-594.607716 44.7636,-243.054424 -157.7823,-576.988014 -400.13121,-624.185964 -267.8691,-52.16807 -620.0655,204.65184 -668.2179,473.64619 -32.4865,181.48069 127.8037,457.9618 311.905,456.48267 184.6657,-1.48357 349.6567,-283.279533 305.4854,-462.85043 -71.5388,-290.82655 -494.9782,-503.50551 -785.8298,-433.7 -174.4891,41.87805 -303.1151,266.23708 -302.4588,445.92582 0.6735,184.315645 313.5806,455.12274 313.5806,455.12274"
         inkscape:connector-curvature="0"
         sodipodi:nodetypes="cassaaaaaaac" />
      <path
         style="color:#000000;font-style:normal;font-variant:normal;font-weight:normal;font-stretch:normal;font-size:medium;line-height:normal;font-family:sans-serif;text-indent:0;text-align:start;text-decoration:none;text-decoration-line:none;text-decoration-style:solid;text-decoration-color:#000000;letter-spacing:normal;word-spacing:normal;text-transform:none;direction:ltr;block-progression:tb;writing-mode:lr-tb;baseline-shift:baseline;text-anchor:start;white-space:normal;clip-rule:nonzero;display:inline;overflow:visible;visibility:visible;opacity:1;isolation:auto;mix-blend-mode:normal;color-interpolation:sRGB;color-interpolation-filters:linearRGB;solid-color:#000000;solid-opacity:1;fill:#000000;fill-opacity:1;fill-rule:evenodd;stroke:none;stroke-width:70;stroke-linecap:round;stroke-linejoin:round;stroke-miterlimit:4;stroke-dasharray:none;stroke-dashoffset:0;stroke-opacity:1;color-rendering:auto;image-rendering:auto;shape-rendering:auto;text-rendering:auto;enable-background:accumulate"
         d="m -2035.0566,1060.3164 c -87.6396,-2.4238 -175.5316,16.6038 -255,53.8594 -151.7166,-67.4337 -331.0375,-69.4351 -482.9922,-0.625 -92.0094,41.6649 -172.7658,107.951 -230.209,191.5449 -57.4739,83.6385 -90.7195,183.666 -92.8047,285.5488 -2.1666,105.8539 29.5231,211.5005 89.5937,298.6856 60.0708,87.1851 147.5006,154.4262 247.1836,190.1054 a 35.0035,35.0035 0 1 0 23.5899,-65.9062 c -85.5526,-30.6216 -161.5754,-89.0898 -213.1309,-163.916 -51.5553,-74.8262 -79.1114,-166.6886 -77.2519,-257.5371 1.7913,-87.5238 30.6957,-174.8387 80.5136,-247.336 49.8486,-72.5419 120.8232,-130.9382 201.3907,-167.4218 116.1394,-52.5918 253.3165,-57.5186 375.3144,-18.1446 -4.5324,3.1003 -9.1382,6.0905 -13.5781,9.3262 -133.1371,97.0257 -220.1905,249.9567 -242.4121,412.2539 -15.0509,109.9255 -0.5981,227.7904 59.2012,325.5957 29.9202,48.9363 70.715,91.7529 120.3613,122.3477 49.7321,30.6479 107.7394,48.4257 167.1016,48.2871 59.7764,-0.1395 118.1035,-18.4435 167.9082,-49.7832 49.7188,-31.2857 90.3227,-74.9354 119.7207,-124.6992 58.7594,-99.4664 70.8096,-218.8035 52.2929,-329.1602 -28.2868,-168.5854 -128.6465,-322.8368 -271.9648,-415.8379 89.9,-30.7003 188.394,-36.3099 279.1699,-11.8535 120.0814,32.3517 226.1586,115.7581 292.0156,222.7246 65.9888,107.1804 93.3767,237.9605 82.3516,364.6309 -7.6515,87.9102 -33.4496,174.3373 -76.8691,250.4453 -43.3847,76.0467 -104.8197,142.0161 -177.5,190.9726 -72.6851,48.9597 -156.9984,81.1813 -244.3829,98.6934 -87.417,17.5187 -178.8528,20.5391 -271.6484,22.541 l -154.8516,3.3398 c -107.2571,2.3139 -213.2747,3.4035 -315.5898,-12.7382 -102.2797,-16.1362 -201.7781,-49.6994 -288.4336,-103.5664 -86.6483,-53.8626 -160.7478,-128.2465 -213.8867,-215.2266 -53.1757,-87.0404 -85.8292,-186.8304 -96.9668,-288.8281 -21.405,-196.0258 38.9697,-400.9506 163.2363,-554.0586 a 35.0035,35.0035 0 1 0 -54.3515,-44.1133 c -136.4595,168.1307 -201.976,390.5101 -178.4707,605.7695 12.2029,111.7539 47.8948,221.2758 106.8183,317.7246 58.9603,96.5089 140.6994,178.5266 236.666,238.1817 95.9595,59.6506 204.365,95.8893 314.4805,113.2617 110.0799,17.3667 220.2929,15.9019 328.0078,13.5781 l 154.8516,-3.3418 c 93.25,-2.0117 188.8486,-4.8396 283.8925,-23.8867 95.0764,-19.0535 188.0809,-54.2713 269.7364,-109.2734 81.6602,-55.0053 150.3671,-128.7533 199.1953,-214.3418 48.7931,-85.527 77.3185,-181.5848 85.8027,-279.0625 12.2479,-140.7201 -17.752,-286.0248 -92.4804,-407.4004 -74.8602,-121.5895 -194.3349,-216.1453 -333.4141,-253.6153 -40.0518,-10.7905 -81.092,-16.607 -122.207,-17.7441 z m -254.4122,132.084 c 4.2105,2.1992 8.4967,4.2562 12.6407,6.5762 140.8449,78.8493 242.7485,226.3396 269.5293,385.9492 16.3133,97.2253 4.7708,200.215 -43.5274,281.9726 -24.1308,40.8474 -57.3753,76.2924 -96.7304,101.0567 -39.2696,24.7104 -85.3278,38.9232 -130.793,39.0293 -45.1554,0.1054 -90.9662,-13.6928 -130.2129,-37.8789 -39.3327,-24.239 -72.7651,-59.0366 -97.3652,-99.2715 -49.2415,-80.5375 -62.8739,-182.4057 -49.5684,-279.584 19.6712,-143.67 97.8462,-280.3196 214.2871,-365.1777 16.4794,-12.0096 33.8279,-22.8318 51.7402,-32.6719 z"
         id="path4139-1-0-4-2-1-1-9-1-4-0"
         inkscape:connector-curvature="0" />
      <path
         style="color:#000000;font-style:normal;font-variant:normal;font-weight:normal;font-stretch:normal;font-size:medium;line-height:normal;font-family:sans-serif;text-indent:0;text-align:start;text-decoration:none;text-decoration-line:none;text-decoration-style:solid;text-decoration-color:#000000;letter-spacing:normal;word-spacing:normal;text-transform:none;direction:ltr;block-progression:tb;writing-mode:lr-tb;baseline-shift:baseline;text-anchor:start;white-space:normal;clip-rule:nonzero;display:inline;overflow:visible;visibility:visible;opacity:1;isolation:auto;mix-blend-mode:normal;color-interpolation:sRGB;color-interpolation-filters:linearRGB;solid-color:#000000;solid-opacity:1;fill:#000000;fill-opacity:1;fill-rule:evenodd;stroke:none;stroke-width:140;stroke-linecap:round;stroke-linejoin:round;stroke-miterlimit:4;stroke-dasharray:none;stroke-dashoffset:0;stroke-opacity:1;color-rendering:auto;image-rendering:auto;shape-rendering:auto;text-rendering:auto;enable-background:accumulate"
         d="m -122.13086,920.58984 a 70.007,70.007 0 0 0 -53.00976,25.89454 C -302.36851,1098.8854 -374.23515,1294.3988 -376,1492.918 c -1.1368,127.8719 26.65538,256.4374 84.64648,371.8945 58.06393,115.6022 145.47011,215.3229 251.980473,288.4063 106.479797,73.0622 228.759827,117.3672 352.857427,138.5195 123.99111,21.1341 246.58314,19.1178 364.32031,16.2929 l 45.35156,-1.0878 c 102.45802,-2.4583 210.60696,-6.0764 318.89845,-34.1289 108.4551,-28.0949 212.4912,-80.2287 296.8691,-158.5293 84.3511,-78.2758 145.284,-179.105 177.5664,-288.5782 32.1895,-109.1574 35.671,-223.7141 18.4102,-333.1855 -21.3119,-135.1645 -75.4286,-268.6576 -169.707,-374.4512 -94.8822,-106.4711 -229.461,-180.55999 -376.52738,-188.20507 -81.65412,-4.2447 -161.88817,12.58204 -234.8086,45.50782 C 629.96734,924.42167 489.417,915.70247 359.97852,957.10938 249.79017,992.35821 151.9344,1062.1338 83.359375,1155.8027 c -68.613861,93.722 -105.839682,208.7324 -104.039063,325.2696 1.613357,104.4174 34.461194,207.0634 93.769532,293.0175 C 132.39819,1860.044 216.7032,1927.1855 313.75,1965.7539 a 70.007,70.007 0 1 0 51.70508,-130.1035 c -70.8122,-28.1422 -133.85724,-78.3521 -177.13281,-141.0703 -43.27557,-62.7183 -67.84036,-139.4796 -69.01758,-215.6699 -1.31211,-84.9203 26.61301,-171.557 77.01758,-240.4063 50.44339,-68.9023 124.59926,-121.911 206.3125,-148.0508 63.32219,-20.2565 132.40691,-24.0078 199.3789,-12.9883 -5.62004,5.3338 -11.19646,10.7138 -16.58594,16.2813 -103.15683,106.5634 -160.12381,249.3802 -170.02734,394.0488 -7.10651,103.8104 9.66915,215.0952 69.70703,309.8809 30.08142,47.4915 70.44451,89.4578 120.14453,119.9629 49.88125,30.6161 107.98758,48.7844 168.58399,48.9062 61.20936,0.1227 120.00631,-18.1826 170.36523,-49.3359 50.17801,-31.0414 90.73853,-73.8919 120.53903,-122.459 59.4945,-96.9606 73.6104,-210.7516 61.5801,-316.0098 -17.7979,-155.7215 -94.0072,-303.0042 -213.11327,-405.4882 22.70035,-3.401 45.55034,-4.7532 68.19141,-3.5762 103.77796,5.3948 207.04356,60.4848 279.27536,141.539 72.8358,81.7319 118.1258,190.1581 135.9356,303.1114 14.4534,91.6662 11.0024,185.6332 -14.4024,271.7832 -25.3116,85.8344 -73.6071,165.3211 -138.5136,225.5527 -64.8798,60.2068 -148.087,102.6597 -236.7481,125.627 -88.82457,23.0096 -186.04057,27.2695 -287.14647,29.6953 l -45.35156,1.0879 c -116.7351,2.8007 -230.22536,3.9307 -337.43946,-14.3438 -107.10762,-18.2563 -210.26031,-56.3119 -297.171872,-115.9473 -86.880998,-59.6144 -158.877528,-141.821 -206.083988,-235.8066 -47.27929,-94.1305 -70.70601,-201.1541 -69.75781,-307.8125 1.46929,-165.2724 62.41738,-331.0792 168.337891,-457.957 A 70.007,70.007 0 0 0 -122.13086,920.58984 Z m 879.24219,212.46876 c 10.22694,5.9654 20.28639,12.1922 29.94531,18.9746 109.98158,77.2279 184.72688,207.4876 200.16992,342.6055 9.27996,81.1946 -3.16117,163.8977 -41.81445,226.8925 -19.27342,31.4107 -45.24496,58.2954 -74.86523,76.6192 -29.43934,18.2119 -63.80595,28.4599 -96.42969,28.3945 -32.31204,-0.065 -66.32909,-10.2397 -95.63086,-28.2246 -29.48298,-18.0961 -55.47376,-44.5617 -75.10742,-75.5586 -39.39228,-62.1911 -53.8889,-143.8332 -48.30469,-225.4062 7.80943,-114.0784 53.71288,-226.4536 130.94336,-306.2344 21.2585,-21.9605 45.28674,-41.3985 71.09375,-58.0625 z"
         id="path4139-1-0-4-2-1-1-9-1-8"
         inkscape:connector-curvature="0" />
      <path
         style="color:#000000;font-style:normal;font-variant:normal;font-weight:normal;font-stretch:normal;font-size:medium;line-height:normal;font-family:sans-serif;text-indent:0;text-align:start;text-decoration:none;text-decoration-line:none;text-decoration-style:solid;text-decoration-color:#000000;letter-spacing:normal;word-spacing:normal;text-transform:none;direction:ltr;block-progression:tb;writing-mode:lr-tb;baseline-shift:baseline;text-anchor:start;white-space:normal;clip-rule:nonzero;display:inline;overflow:visible;visibility:visible;opacity:1;isolation:auto;mix-blend-mode:normal;color-interpolation:sRGB;color-interpolation-filters:linearRGB;solid-color:#000000;solid-opacity:1;fill:#000000;fill-opacity:1;fill-rule:evenodd;stroke:none;stroke-width:200;stroke-linecap:round;stroke-linejoin:round;stroke-miterlimit:4;stroke-dasharray:none;stroke-dashoffset:0;stroke-opacity:1;color-rendering:auto;image-rendering:auto;shape-rendering:auto;text-rendering:auto;enable-background:accumulate"
         d="m 2089.7422,-799.20117 a 100.01,100.01 0 0 0 -75.4453,37.5625 c -133.0284,161.82671 -207.0745,368.08051 -207.3496,577.5664 -0.1733,131.993971 28.8277,264.681739 89.0722,384.43555 60.3553,119.97389 150.7567,223.43333 261.2461,299.52149 110.4552,76.06451 236.6786,121.91372 364.3477,143.80664 127.5187,21.86712 252.0002,19.67936 369.8613,16.85156 l 45.3516,-1.08789 c 102.4246,-2.45745 212.7081,-5.98241 324.9101,-35.52149 112.4297,-29.59902 220.2925,-84.47474 308.0157,-166.96679 87.6492,-82.42263 150.2113,-187.53784 184.0136,-301.07618 33.6565,-113.048514 38.3827,-230.419076 24.1426,-342.54492 -15.7099,-123.69946 -55.4229,-248.74194 -130.6074,-356.92968 -75.75,-109.00146 -186.7605,-197.39784 -321.4688,-233.70899 -89.4096,-24.10071 -183.1738,-23.41901 -271.4004,-0.81055 -28.9658,7.42265 -57.107,17.18745 -84.2578,28.98047 -94.2027,-38.37268 -197.6905,-53.81739 -300.8027,-40.7539 -142.9687,18.11297 -275.6847,89.63389 -369.25,199.42773 -93.5859,109.81814 -143.258,252.42389 -137.7871,396.74805 4.1392,109.19595 39.5224,215.63466 101.582,305.57617 62.0596,89.94149 149.0112,160.79995 249.6289,203.42578 a 100.01,100.01 0 1 0 78.0176,-184.15625 C 2526.5933,103.62088 2468.6054,56.366671 2428.5332,-1.7089844 2388.461,-59.784618 2364.8641,-130.76916 2362.1914,-201.27734 c -3.5057,-92.48193 30.0338,-188.90098 90.1543,-259.44922 60.1413,-70.57253 150.0339,-119.06443 242.1621,-130.73633 21.4054,-2.71189 43.1999,-3.4044 65.0567,-2.28125 -97.703,112.31899 -151.9814,256.59392 -161.1797,402.54883 a 100.01,100.01 0 0 0 0,0.002 c -6.8148,108.133013 10.2392,225.460687 74.4668,327.25977 32.2116,51.05445 75.5616,96.45356 129.6113,129.70312 54.319,33.41515 117.7113,53.33914 184.5312,53.29492 67.3623,-0.0446 131.2614,-20.37951 185.8594,-54.50586 54.329,-33.9582 97.666,-80.30292 129.461,-132.41797 63.4119,-103.938273 77.9033,-223.423788 66.9101,-332.92187 -14.6277,-145.6997 -75.5302,-286.03009 -176.0058,-394.20898 27.4396,0.30266 54.6509,3.82065 80.5605,10.80468 81.3678,21.93301 157.3251,79.96779 209.2852,154.73633 52.5254,75.58225 83.9526,169.68649 96.4375,267.99219 11.3211,89.141752 6.8126,178.878219 -17.4219,260.279296 -24.0887,80.911264 -69.1873,155.881554 -129.3379,212.445314 -60.0768,56.49432 -138.1545,97.20216 -221.9238,119.25586 -83.997,22.11362 -178.3879,26.57938 -278.7891,28.98828 l -45.3516,1.08984 c -116.4068,2.79292 -227.8162,3.70582 -331.2617,-14.0332 -103.2951,-17.71321 -202.173,-54.56088 -284.7168,-111.4043 -82.5094,-56.81978 -151.0571,-135.3172 -196.0137,-224.68164 -45.0672,-89.584516 -67.8726,-191.949725 -67.7382,-294.29101 0.2127,-161.98885 58.983,-325.68879 161.8496,-450.82422 a 100.01,100.01 0 0 0 -79.0547,-164.56836 z m 884.041,277.84375 c 14.1594,9.53911 27.775,19.81813 40.5449,30.99219 87.1227,76.23479 144.0481,191.54812 155.8965,309.56445 7.7108,76.8032 -4.5399,152.876491 -38.6445,208.777342 -16.9633,27.804524 -39.6745,51.32391 -64.7324,66.986329 -24.789,15.494269 -53.7299,24.084169 -79.9864,24.101559 -26.0606,0.0173 -54.816,-8.39179 -79.6074,-23.642575 -25.0605,-15.416374 -47.9064,-38.575896 -65.2559,-66.074219 -34.8942,-55.306464 -48.8768,-130.702326 -44.0078,-207.962886 7.7945,-123.67961 62.7997,-245.94703 151.834,-323.63282 7.701,-6.71944 15.7573,-13.01605 23.959,-19.10937 z"
         id="path4139-1-0-4-2-1-1-9-1-9"
         inkscape:connector-curvature="0" />
    </g>
  </g>
</svg>
