<?xml version="1.0" encoding="UTF-8" standalone="no"?>
<!-- Created with Inkscape (http://www.inkscape.org/) -->

<svg
   xmlns:dc="http://purl.org/dc/elements/1.1/"
   xmlns:cc="http://creativecommons.org/ns#"
   xmlns:rdf="http://www.w3.org/1999/02/22-rdf-syntax-ns#"
   xmlns:svg="http://www.w3.org/2000/svg"
   xmlns="http://www.w3.org/2000/svg"
   xmlns:sodipodi="http://sodipodi.sourceforge.net/DTD/sodipodi-0.dtd"
   xmlns:inkscape="http://www.inkscape.org/namespaces/inkscape"
   width="2000"
   height="2000"
   id="svg2992"
   version="1.1"
   inkscape:version="0.91pre3 r13670"
   sodipodi:docname="തു.svg">
  <defs
     id="defs5498">
    <inkscape:path-effect
       effect="spiro"
       id="path-effect2987"
       is_visible="true" />
    <inkscape:path-effect
       is_visible="true"
       id="path-effect2987-8"
       effect="spiro" />
    <inkscape:path-effect
       is_visible="true"
       id="path-effect2987-3"
       effect="spiro" />
    <inkscape:path-effect
       is_visible="true"
       id="path-effect4141-3-4-6"
       effect="spiro" />
    <inkscape:path-effect
       is_visible="true"
       id="path-effect4141-3-4-6-8"
       effect="spiro" />
    <inkscape:path-effect
       is_visible="true"
       id="path-effect4141-3-4-6-8-5"
       effect="spiro" />
    <inkscape:path-effect
       is_visible="true"
       id="path-effect4141-3-4-6-8-5-4"
       effect="spiro" />
    <inkscape:path-effect
       is_visible="true"
       id="path-effect4141-3-4-6-8-5-6"
       effect="spiro" />
    <inkscape:path-effect
       is_visible="true"
       id="path-effect2987-5"
       effect="spiro" />
    <inkscape:path-effect
       is_visible="true"
       id="path-effect4141-3-4-6-87"
       effect="spiro" />
    <inkscape:path-effect
       is_visible="true"
       id="path-effect4141-3-4-6-8-0"
       effect="spiro" />
    <inkscape:path-effect
       is_visible="true"
       id="path-effect4141-3-4-6-8-8"
       effect="spiro" />
    <inkscape:path-effect
       is_visible="true"
       id="path-effect4141-3-4-6-8-0-8"
       effect="spiro" />
    <inkscape:path-effect
       is_visible="true"
       id="path-effect4141-3-4-6-8-0-8-8"
       effect="spiro" />
  </defs>
  <sodipodi:namedview
     inkscape:window-height="853"
     inkscape:window-width="1600"
     inkscape:pageshadow="2"
     inkscape:pageopacity="0.0"
     borderopacity="1.0"
     bordercolor="#666666"
     pagecolor="#ffffff"
     id="base"
     showgrid="true"
     showguides="true"
     inkscape:guide-bbox="true"
     inkscape:zoom="0.32102648"
     inkscape:cx="9.1800527"
     inkscape:cy="912.76219"
     inkscape:window-x="1598"
     inkscape:window-y="-3"
     inkscape:current-layer="layer1-7"
     inkscape:window-maximized="1">
    <sodipodi:guide
       orientation="horizontal"
       position="1800,600"
       id="guide5596" />
    <inkscape:grid
       type="xygrid"
       id="grid3769"
       empspacing="5"
       visible="true"
       enabled="true"
       snapvisiblegridlinesonly="true" />
    <sodipodi:guide
       orientation="0,1"
       position="-2720,1600"
       id="guide4772" />
  </sodipodi:namedview>
  <metadata
     id="metadata5594">
    <rdf:RDF>
      <cc:Work
         rdf:about="">
        <dc:format>image/svg+xml</dc:format>
        <dc:type
           rdf:resource="http://purl.org/dc/dcmitype/StillImage" />
        <dc:title />
      </cc:Work>
    </rdf:RDF>
  </metadata>
  <g
     inkscape:label="Layer 1"
     inkscape:groupmode="layer"
     id="layer1"
     transform="translate(0,1000)">
    <g
       id="layer1-5"
       inkscape:label="Layer 1"
       transform="translate(61.428743,14.362694)">
      <g
         transform="translate(-500.76683,-332.68778)"
         id="layer1-54"
         inkscape:label="Layer 1">
        <g
           transform="translate(-561.73379,157.27604)"
           id="layer1-7"
           inkscape:label="Layer 1">
          <path
             sodipodi:nodetypes="csacsaaaaaaac"
             inkscape:connector-curvature="0"
             inkscape:original-d="m 717.22076,1037.1153 -1131.29782,1.7615 c -30.54145,0.048 -338.81538,-69.35396 -332.15282,-198.09464 6.41318,-123.92198 320.42665,-156.44322 337.69584,-156.6576 l 328.543118,5.86068 C 325.5901,697.22015 713.51807,391.9932 713.68711,52.704522 713.80073,-175.34613 408.3817,-388.20424 180.64872,-376.17086 -50.654425,-363.94883 -302.6397,-117.38611 -311.8255,114.0575 -318.42124,280.24249 -153.22269,503.18883 12.779362,492.97738 166.16581,483.54197 287.65734,261.08658 267.5414,108.73246 235.54818,-133.57781 -37.966906,-374.00367 -282.36953,-376.2814 c -199.92659,-1.86324 -423.37465,191.23806 -457.15528,388.298914 -31.40957,183.229126 -20.66651,311.770796 280.5504,482.002836"
             inkscape:path-effect="#path-effect4141-3-4-6-8-0-8"
             id="path4139-1-0-4-2-6"
             d="m 717.22076,1037.1153 -1131.29782,1.7615 c -73.27371,0.1141 -148.98993,0.067 -216.27041,-28.9569 -33.64025,-14.51197 -64.56447,-36.47996 -86.32683,-65.95304 -21.76236,-29.47307 -33.80306,-66.79485 -29.55558,-103.1847 3.95724,-33.90324 21.77592,-65.36852 46.37597,-89.03129 24.60005,-23.66277 55.65717,-39.93104 88.20091,-50.22639 65.08749,-20.59069 134.86301,-18.6175 203.11896,-17.39992 l 328.543118,5.86068 c 98.935771,1.76485 198.509362,2.65405 296.057022,-13.9548 97.54767,-16.60886 192.88086,-50.98719 274.152,-107.43543 C 571.48925,512.14678 637.83868,433.81276 677.55445,343.18132 717.27023,252.54987 730.05902,150.29224 713.68711,52.704522 693.0591,-70.252493 625.78359,-184.7543 528.58868,-262.83817 431.39376,-340.92205 305.19093,-381.93108 180.64872,-376.17086 c -126.907185,5.8696 -251.005149,60.31601 -341.09753,149.88859 -90.09238,89.57259 -145.27397,213.443582 -151.37669,340.33977 -4.5467,94.54134 18.7964,192.47332 76.9573,267.14625 29.08045,37.33647 66.54051,68.36617 109.42707,88.37684 42.886561,20.01068 91.204205,28.79614 138.220492,23.39679 42.255306,-4.8526 82.972581,-21.06246 117.874678,-45.37095 34.90209,-24.30848 64.02656,-56.58742 85.93423,-93.04442 43.81534,-72.91399 58.05422,-161.0604 50.95313,-245.82955 C 256.26852,-25.837447 191.48471,-155.2451 90.281137,-244.65413 -10.922439,-334.06315 -147.46762,-382.41438 -282.36953,-376.2814 c -108.00477,4.91017 -214.64681,44.47796 -297.7256,113.6665 -83.07879,69.18854 -141.65946,167.986465 -159.42968,274.632414 -16.56955,99.440296 2.65001,204.461776 53.36255,291.589046 50.71254,87.12726 132.53868,155.70851 227.18785,190.41379"
             style="fill:none;fill-rule:evenodd;stroke:#000000;stroke-width:140;stroke-linecap:round;stroke-linejoin:round;stroke-miterlimit:4;stroke-dasharray:none;stroke-opacity:1" />
          <path
             style="color:#000000;font-style:normal;font-variant:normal;font-weight:normal;font-stretch:normal;font-size:medium;line-height:normal;font-family:sans-serif;text-indent:0;text-align:start;text-decoration:none;text-decoration-line:none;text-decoration-style:solid;text-decoration-color:#000000;letter-spacing:normal;word-spacing:normal;text-transform:none;direction:ltr;block-progression:tb;writing-mode:lr-tb;baseline-shift:baseline;text-anchor:start;white-space:normal;clip-rule:nonzero;display:inline;overflow:visible;visibility:visible;opacity:1;isolation:auto;mix-blend-mode:normal;color-interpolation:sRGB;color-interpolation-filters:linearRGB;solid-color:#000000;solid-opacity:1;fill:#000000;fill-opacity:1;fill-rule:evenodd;stroke:none;stroke-width:140;stroke-linecap:round;stroke-linejoin:round;stroke-miterlimit:4;stroke-dasharray:none;stroke-dashoffset:0;stroke-opacity:1;color-rendering:auto;image-rendering:auto;shape-rendering:auto;text-rendering:auto;enable-background:accumulate"
             d="m 2104.0566,-448.94336 c -76.2688,0.85887 -151.0936,17.50905 -220.1953,47.17383 -213.4512,-90.98095 -476.828,-50.2148 -641.498,123.3457 -160.3826,160.14004 -196.8936,419.92988 -78.9492,616.04688 59.1682,101.409 153.086,180.06373 263.3203,220.48828 a 70.007,70.007 0 1 0 48.2011,-131.44141 c -78.9246,-28.94283 -148.4998,-87.25537 -190.791,-159.9082 a 70.007,70.007 0 0 0 -0.5547,-0.93555 c -82.5395,-136.86607 -55.2714,-333.053638 58.3594,-445.88086 a 70.007,70.007 0 0 0 1.5371,-1.57422 c 94.7379,-100.17491 243.6716,-140.67741 381.4864,-119.74023 -79.4942,69.80519 -140.5798,160.84069 -171.0879,265.726562 l 0.8027,-2.572266 c -32.2588,96.833387 -37.0976,205.526434 -9.8906,306.837894 27.1148,100.96814 88.6668,196.06016 188.8301,251.95703 160.8501,95.79436 368.3378,23.76021 454.0429,-133.82422 129.9008,-232.3944 46.4947,-524.04021 -144.9414,-689.1875 39.7612,-6.96312 80.3042,-8.35426 120.3086,-3.12695 a 70.007,70.007 0 0 0 2.4277,0.27539 c 192.1412,18.31009 364.2703,183.66859 390.1114,374.894528 a 70.007,70.007 0 0 0 0.2929,1.958984 c 29.6812,180.903738 -73.9506,376.333178 -236.0136,463.142578 a 70.007,70.007 0 0 0 -1.791,0.99219 c -159.9796,91.81208 -360.8456,86.01625 -564.629,81.27734 a 70.007,70.007 0 0 0 -1.7812,-0.0176 c -130.3677,0.28336 -267.8247,-12.2583 -410.6504,1.67969 -63.2826,6.13109 -125.7538,32.17793 -175.0937,77.62305 -49.34,45.44511 -84.6061,118.35859 -69.2989,197.10937 a 70.007,70.007 0 0 0 0.3106,1.50196 c 17.5689,80.88658 75.4663,138.00699 137.7812,169.34179 62.315,31.3348 130.5631,42.3928 192.1621,42.207 400.3997,1.4793 800.4794,-0.8934 1200.1739,-0.9414 a 70.007,70.007 0 1 0 -0.018,-139.99997 c -400.3939,0.048 -800.4501,2.42094 -1200.1074,0.9414 a 70.007,70.007 0 0 0 -0.4707,0 c -43.0768,0.12988 -92.9412,-9.23073 -128.8457,-27.28515 -35.631,-17.91685 -55.9868,-39.0048 -63.6582,-73.22266 -5.037,-27.08545 3.6408,-45.32791 26.8183,-66.67578 23.3971,-21.55011 62.4666,-38.22146 93.7461,-41.25195 a 70.007,70.007 0 0 0 0.053,-0.006 c 125.0838,-12.21221 257.5172,-0.81711 395.9043,-1.03321 201.2707,4.68728 431.7839,17.4167 635.8672,-99.0371 C 2601.4595,542.4768 2733.9385,295.32936 2694.1699,49.951172 2658.7226,-209.0452 2440.1483,-419.08838 2180.0293,-444.5 c -25.3768,-3.26104 -50.7534,-4.72736 -75.9727,-4.44336 z m -126.8281,97.70898 1.7363,1.14063 c -0.2961,-0.20078 -0.6039,-0.37991 -0.9003,-0.58008 -0.2829,-0.18055 -0.5527,-0.38051 -0.836,-0.56055 z m -91.1914,107.78126 c 4.8454,2.98193 9.6469,6.0383 14.3574,9.23242 a 70.007,70.007 0 0 0 1.7364,1.13867 c 174.121,110.67361 264.7787,370.44912 163.1953,551.80664 a 70.007,70.007 0 0 0 -0.4805,0.86914 c -47.6873,88.04185 -174.7376,131.76636 -260.2266,80.35742 a 70.007,70.007 0 0 0 -2.1543,-1.24414 C 1739.0894,363.60096 1699.3982,304.52438 1680.0059,232.3125 1660.6135,160.10062 1664.1223,76.242968 1687.5117,6.0332031 a 70.007,70.007 0 0 0 0.8028,-2.5742187 C 1718.3612,-99.840514 1792.7778,-187.53996 1886.0371,-243.45312 Z"
             id="path4139-1-0-4-2-6-1"
             inkscape:connector-curvature="0" />
        </g>
      </g>
    </g>
  </g>
</svg>
