<?xml version="1.0" encoding="UTF-8" standalone="no"?>
<!-- Created with Inkscape (http://www.inkscape.org/) -->

<svg
   xmlns:dc="http://purl.org/dc/elements/1.1/"
   xmlns:cc="http://creativecommons.org/ns#"
   xmlns:rdf="http://www.w3.org/1999/02/22-rdf-syntax-ns#"
   xmlns:svg="http://www.w3.org/2000/svg"
   xmlns="http://www.w3.org/2000/svg"
   xmlns:sodipodi="http://sodipodi.sourceforge.net/DTD/sodipodi-0.dtd"
   xmlns:inkscape="http://www.inkscape.org/namespaces/inkscape"
   width="2000"
   height="2048"
   id="svg2992"
   version="1.1"
   inkscape:version="0.91 r13725"
   sodipodi:docname="ത്തു.svg">
  <defs
     id="defs5498">
    <inkscape:path-effect
       effect="spiro"
       id="path-effect3891"
       is_visible="true" />
    <inkscape:path-effect
       is_visible="true"
       id="path-effect3891-2"
       effect="spiro" />
    <inkscape:path-effect
       is_visible="true"
       id="path-effect4141-3-4-6-8"
       effect="spiro" />
    <inkscape:path-effect
       is_visible="true"
       id="path-effect4141-3-4-6-8-9"
       effect="spiro" />
    <inkscape:path-effect
       is_visible="true"
       id="path-effect4141-3-4-6-8-9-5"
       effect="spiro" />
    <inkscape:path-effect
       is_visible="true"
       id="path-effect4141-3-4-6-8-9-5-4"
       effect="spiro" />
    <inkscape:path-effect
       is_visible="true"
       id="path-effect4141-3-4-6-8-9-5-4-1"
       effect="spiro" />
    <inkscape:path-effect
       effect="spiro"
       id="path-effect4141-3-4-6-8-9-5-5-5"
       is_visible="true" />
    <inkscape:path-effect
       effect="spiro"
       id="path-effect4141-3-4-6-8-9-5-5-5-6"
       is_visible="true" />
    <inkscape:path-effect
       effect="spiro"
       id="path-effect4141-3-4-6-8-9-5-5-5-1"
       is_visible="true" />
    <inkscape:path-effect
       effect="spiro"
       id="path-effect4141-3-4-6-8-9-5-5-5-8"
       is_visible="true" />
    <inkscape:path-effect
       effect="spiro"
       id="path-effect4141-3-4-6-8-9-5-5-5-8-5"
       is_visible="true" />
    <inkscape:path-effect
       effect="spiro"
       id="path-effect4141-3-4-6-8-9-5-5-5-4"
       is_visible="true" />
  </defs>
  <sodipodi:namedview
     inkscape:window-height="851"
     inkscape:window-width="1600"
     inkscape:pageshadow="2"
     inkscape:pageopacity="0.0"
     borderopacity="1.0"
     bordercolor="#666666"
     pagecolor="#ffffff"
     id="base"
     showgrid="true"
     showguides="true"
     inkscape:guide-bbox="true"
     inkscape:zoom="0.227"
     inkscape:cx="1965.7178"
     inkscape:cy="-471.50335"
     inkscape:window-x="1599"
     inkscape:window-y="-1"
     inkscape:current-layer="layer1-8"
     inkscape:window-maximized="1">
    <inkscape:grid
       type="xygrid"
       id="grid3769"
       empspacing="3"
       visible="true"
       enabled="true"
       snapvisiblegridlinesonly="true"
       spacingx="4px"
       units="px"
       dotted="true"
       spacingy="4px" />
    <sodipodi:guide
       orientation="0,1"
       position="-1040,1600"
       id="guide2985" />
    <sodipodi:guide
       orientation="0,1"
       position="-480,576"
       id="guide3939" />
  </sodipodi:namedview>
  <metadata
     id="metadata5594">
    <rdf:RDF>
      <cc:Work
         rdf:about="">
        <dc:format>image/svg+xml</dc:format>
        <dc:type
           rdf:resource="http://purl.org/dc/dcmitype/StillImage" />
        <dc:title />
      </cc:Work>
    </rdf:RDF>
  </metadata>
  <g
     inkscape:label="Layer 1"
     inkscape:groupmode="layer"
     id="layer1"
     transform="translate(0,1048)">
    <g
       id="layer1-8"
       inkscape:label="Layer 1"
       transform="translate(-636.1686,-1002.5333)">
      <path
         style="fill:none;fill-rule:evenodd;stroke:#000000;stroke-width:140;stroke-linecap:round;stroke-linejoin:round;stroke-miterlimit:4;stroke-dasharray:none;stroke-opacity:1"
         d="m 3530.3328,1889.0341 -2321.5786,-6.5186 c -76.8994,-0.2159 -154.3728,5.4538 -230.43163,-5.8878 -38.0294,-5.6708 -76.01817,-17.0666 -107.15122,-39.6305 -15.56653,-11.2819 -29.24211,-25.3408 -39.18034,-41.7977 -9.93823,-16.4569 -16.05619,-35.3615 -16.5402,-54.5803 -0.5129,-20.3663 5.32098,-40.6815 15.49012,-58.3347 10.16914,-17.6533 24.56599,-32.703 41.05798,-44.6639 32.98398,-23.9218 73.50509,-35.4379 113.89446,-40.8132 80.77873,-10.7505 162.78103,-3.8678 244.27203,-3.929 l 1509.1464,-1.1326 c 87.0828,-0.065 174.5718,-0.8455 260.5137,-14.8957 85.9419,-14.0502 170.1826,-41.4503 245.1908,-85.6904 150.0165,-88.4802 256.211,-247.4047 280.0469,-419.9316 17.5993,-127.38554 -7.8161,-261.20698 -75.5976,-370.4886 -67.7816,-109.28162 -178.3293,-192.39643 -303.4793,-221.96478 -145.536,-34.38481 -305.1378,5.85796 -421.847,99.35664 -116.7092,93.49869 -190.0471,236.9786 -205.2114,385.75051 -9.4653,92.86083 3.6935,190.38603 52.2323,270.11493 24.2695,39.8645 57.1823,74.7139 96.7647,99.4409 39.5823,24.7269 85.8918,39.1025 132.5627,39.0376 47.2731,-0.066 94.1234,-14.9509 133.9817,-40.3687 39.8584,-25.4177 72.7893,-61.1259 96.8368,-101.8256 48.0951,-81.3995 59.8802,-180.3908 49.0586,-274.31573 -16.0551,-139.34827 -81.9059,-274.02878 -188.2764,-365.46738 -106.3706,-91.4386 -253.462,-136.54143 -391.4943,-111.5859 -111.5353,20.16501 -214.2773,88.08302 -272.8835,185.09887 -29.3031,48.50792 -47.8269,103.09998 -57.5188,158.93685 -9.692,55.83688 -10.5855,112.77898 -10.9689,169.44946 l -2.5683,379.60053 2.4985,-381.90853 c 0.377,-57.62199 0.1803,-115.5662 -9.5729,-172.35803 -9.7532,-56.79183 -29.1054,-112.24162 -59.8452,-160.98075 -30.7398,-48.73913 -72.6204,-90.38806 -121.5073,-120.89224 -48.8869,-30.50419 -104.4497,-49.88566 -161.4683,-58.21139 -135.6422,-19.80618 -278.0147,24.61768 -382.6809,113.13935 -104.6662,88.52167 -171.4473,218.76154 -188.9209,354.72396 -12.2787,95.54093 -0.1186,196.63603 49.3141,279.31153 24.7163,41.3377 58.5317,77.4821 99.3103,103.1104 40.7786,25.6284 88.5746,40.5042 136.7379,40.4381 48.2959,-0.066 96.1814,-15.1582 136.9542,-41.0439 40.7729,-25.8856 74.4873,-62.3264 98.9927,-103.9435 49.0107,-83.2343 60.3052,-184.7926 46.85,-280.44273 C 1783.44,801.64136 1709.6679,667.548 1597.2164,579.71269 c -112.4515,-87.8353 -263.0161,-126.97015 -402.9956,-99.29148 -96.4121,19.06393 -186.4718,69.01097 -253.69772,140.70062 -67.22592,71.68966 -111.28818,164.7701 -124.12321,262.20722 -12.83503,97.43713 5.62016,198.75275 51.9882,285.40575 46.36804,86.6529 120.42137,158.218 208.60793,201.5984"
         id="path4139-1-0-4-2-2-4-3-2"
         inkscape:path-effect="#path-effect4141-3-4-6-8-9-5-5-5"
         inkscape:original-d="m 3530.3328,1889.0341 -2321.5786,-6.5186 c -112.2565,-0.3152 -393.58335,-2.5241 -393.30339,-141.8963 0.29478,-146.748 268.58239,-147.6312 414.71459,-147.7408 l 1509.1464,-1.1326 c 157.4729,-0.1182 720.7936,-213.133 785.7514,-520.5177 48.4743,-229.38381 -148.0694,-552.42527 -379.0769,-592.45338 -260.3864,-45.11879 -586.3944,223.98794 -627.0584,485.10715 -25.4514,163.43343 116.1592,409.56203 281.5597,408.59343 167.2666,-0.9796 304.0985,-251.0035 279.8771,-416.51003 -36.2403,-247.6319 -332.2291,-513.90497 -579.7707,-477.05328 -203.2945,30.26459 -339.8132,283.21068 -341.3712,513.48518 l -2.5683,379.60053 2.4985,-381.90853 c 1.7537,-268.0588 -147.1527,-483.26167 -352.3937,-512.44241 -243.7698,-34.65869 -535.8749,224.24771 -571.6018,467.86331 -24.6739,168.24683 115.3168,423.45323 285.3623,422.86003 170.2813,-0.5941 311.1587,-257.5263 282.7969,-425.43013 C 1760.8556,691.56707 1429.506,382.27775 1194.2208,480.42121 918.08127,595.60597 691.48817,1072.3438 1076.996,1370.3332"
         inkscape:connector-curvature="0"
         sodipodi:nodetypes="csassaaaaaascsaaaaac" />
      <path
         style="fill:none;fill-rule:evenodd;stroke:#000000;stroke-width:120;stroke-linecap:round;stroke-linejoin:round;stroke-miterlimit:4;stroke-dasharray:none;stroke-opacity:1"
         d="m 5616.8623,2392.8876 -1499.8634,-4.2113 c -49.6811,-0.1395 -99.7331,3.5234 -148.8711,-3.8038 -24.569,-3.6637 -49.1118,-11.026 -69.2254,-25.6034 -10.0568,-7.2888 -18.8919,-16.3716 -25.3126,-27.0036 -6.4206,-10.6321 -10.3731,-22.8454 -10.6858,-35.2618 -0.3314,-13.1577 3.4376,-26.2824 10.0075,-37.6873 6.5698,-11.405 15.8709,-21.1279 26.5256,-28.8553 21.3094,-15.4547 47.4882,-22.8947 73.5819,-26.3674 52.1873,-6.9454 105.1652,-2.4989 157.8127,-2.5384 l 974.9889,-0.7317 c 56.2601,-0.042 112.7827,-0.5462 168.3058,-9.6234 55.523,-9.0772 109.947,-26.7791 158.4063,-55.3606 96.9187,-57.1629 165.5259,-159.8366 180.9252,-271.2982 11.3701,-82.2978 -5.0496,-168.7536 -48.8401,-239.3553 -43.7905,-70.6017 -115.2103,-124.2983 -196.0638,-143.401 -94.024,-22.2144 -197.1353,3.7845 -272.5356,64.1897 -75.4003,60.4051 -122.7806,153.1007 -132.5775,249.2153 -6.1151,59.993 2.3862,122.9995 33.7449,174.5087 15.6793,25.7545 36.9428,48.2691 62.5151,64.244 25.5723,15.9749 55.4907,25.2623 85.6426,25.2204 30.541,-0.042 60.8087,-9.6591 86.5593,-26.0803 25.7507,-16.4212 47.0258,-39.4907 62.5618,-65.7848 31.0719,-52.5884 38.6858,-116.5421 31.6944,-177.2226 -10.3725,-90.0264 -52.9156,-177.0372 -121.6366,-236.1114 -68.7211,-59.0742 -163.7499,-88.213 -252.9262,-72.0904 -72.0578,13.0277 -138.4345,56.9064 -176.2972,119.5838 -18.9313,31.3387 -30.8987,66.6081 -37.1602,102.6816 -6.2615,36.0736 -6.8388,72.8613 -7.0865,109.4734 l -1.6593,245.2421 1.6142,-246.7332 c 0.2435,-37.2269 0.1165,-74.6619 -6.1846,-111.3525 -6.3011,-36.6905 -18.8036,-72.514 -38.6632,-104.0021 -19.8595,-31.4881 -46.9166,-58.3955 -78.5002,-78.1029 -31.5835,-19.7073 -67.4801,-32.2287 -104.3171,-37.6076 -87.6321,-12.7958 -179.6123,15.9043 -247.2322,73.094 -67.62,57.1898 -110.7641,141.3316 -122.053,229.1706 -7.9327,61.7245 -0.077,127.0373 31.8595,180.4501 15.9681,26.7064 37.8146,50.0576 64.1598,66.6148 26.3451,16.5573 57.2239,26.1679 88.3399,26.1252 31.2017,-0.043 62.1383,-9.793 88.4797,-26.5165 26.3415,-16.7235 48.1228,-40.2662 63.9546,-67.1531 31.6635,-53.7737 38.9604,-119.3858 30.2676,-181.1809 -12.8414,-91.2864 -60.5021,-177.9179 -133.1518,-234.6642 -72.6496,-56.7462 -169.9224,-82.0294 -260.3566,-64.1475 -62.2873,12.3163 -120.4707,44.5848 -163.9022,90.9001 -43.4315,46.3153 -71.898,106.4502 -80.1901,169.3997 -8.2922,62.9496 3.6309,128.4049 33.5871,184.3873 29.9562,55.9824 77.7985,102.2172 134.7717,130.2433"
         id="path4139-1-0-4-2-2-4-3-2-6"
         inkscape:path-effect="#path-effect4141-3-4-6-8-9-5-5-5-8"
         inkscape:original-d="m 5616.8623,2392.8876 -1499.8634,-4.2113 c -72.5236,-0.2037 -254.2758,-1.6307 -254.0949,-91.6726 0.1905,-94.807 173.5185,-95.3776 267.9277,-95.4484 l 974.9889,-0.7317 c 101.7359,-0.076 465.6711,-137.6953 507.6373,-336.2822 31.3169,-148.1941 -95.6607,-356.8961 -244.9039,-382.7563 -168.2235,-29.1492 -378.842,144.7081 -405.1131,313.405 -16.443,105.5866 75.045,264.5988 181.9026,263.9731 108.0631,-0.6329 196.4638,-162.1617 180.8155,-269.0877 -23.4132,-159.9834 -214.6377,-332.01 -374.5628,-308.2018 -131.339,19.5525 -219.5374,182.9692 -220.5439,331.7388 l -1.6593,245.2421 1.6142,-246.7332 c 1.1329,-173.1803 -95.0685,-312.2128 -227.6651,-331.0651 -157.4883,-22.3914 -346.2037,144.876 -369.2852,302.2646 -15.9407,108.6964 74.5008,273.5733 184.3592,273.1901 110.0108,-0.3838 201.0251,-166.3757 182.7019,-274.8505 -27.4322,-162.4003 -241.5016,-362.2176 -393.5084,-298.8117 -178.4009,74.4154 -324.7921,382.4134 -75.7335,574.9304"
         inkscape:connector-curvature="0"
         sodipodi:nodetypes="csassaaaaaascsaaaaac" />
      <path
         style="color:#000000;font-style:normal;font-variant:normal;font-weight:normal;font-stretch:normal;font-size:medium;line-height:normal;font-family:sans-serif;text-indent:0;text-align:start;text-decoration:none;text-decoration-line:none;text-decoration-style:solid;text-decoration-color:#000000;letter-spacing:normal;word-spacing:normal;text-transform:none;direction:ltr;block-progression:tb;writing-mode:lr-tb;baseline-shift:baseline;text-anchor:start;white-space:normal;clip-rule:nonzero;display:inline;overflow:visible;visibility:visible;opacity:1;isolation:auto;mix-blend-mode:normal;color-interpolation:sRGB;color-interpolation-filters:linearRGB;solid-color:#000000;solid-opacity:1;fill:#000000;fill-opacity:1;fill-rule:evenodd;stroke:none;stroke-width:120;stroke-linecap:round;stroke-linejoin:round;stroke-miterlimit:4;stroke-dasharray:none;stroke-dashoffset:0;stroke-opacity:1;color-rendering:auto;image-rendering:auto;shape-rendering:auto;text-rendering:auto;enable-background:accumulate"
         d="m 7391.2695,1422.7031 c -52.3466,0.4188 -104.0792,12.0872 -151.7519,33.2012 -63.395,-27.0039 -134.0758,-36.7421 -203.6895,-24.1563 -84.0081,15.1883 -160.5108,63.2686 -208.7676,134.8399 -24.2175,-36.1276 -55.8097,-66.8727 -92.7304,-89.9102 -39.2222,-24.4738 -82.9165,-39.5789 -127.4121,-46.0761 -67.0462,-9.79 -134.701,0.1899 -195.75,25.9707 -68.7469,-29.0511 -145.5869,-38.4392 -220.2891,-23.668 -74.876,14.8055 -143.822,53.0429 -196.0312,108.7187 -52.2093,55.6759 -85.9403,126.9334 -95.9082,202.6055 -9.968,75.672 4.1593,153.2345 40.1699,220.5313 36.0105,67.2967 92.7016,122.0831 161.1894,155.7734 a 60.006,60.006 0 1 0 52.9688,-107.6758 c -45.4586,-22.3619 -84.4516,-60.0448 -108.3535,-104.7129 -23.9019,-44.668 -33.6202,-98.0171 -27.0039,-148.2441 6.6162,-50.2271 29.8189,-99.2387 64.4726,-136.1934 34.6538,-36.9547 82.0748,-63.2549 131.7734,-73.082 21.6768,-4.2862 44.1827,-5.3389 66.6641,-3.5312 -61.6647,65.0524 -100.0503,149.4393 -111.3672,237.496 -9.2532,71.9993 -0.8933,150.7052 39.875,218.8887 l -0,0 c 20.4323,34.173 48.5193,64.4956 83.7304,86.625 35.3723,22.2305 76.8246,35.384 120.3496,35.3242 43.6464,-0.06 85.178,-13.4022 120.5567,-35.8632 35.2175,-22.3587 63.2277,-52.9384 83.498,-87.3633 40.4462,-68.6892 48.1346,-147.7995 37.9805,-219.9824 -12.2973,-87.4184 -51.4782,-170.53 -112.7402,-234.6563 15.7689,-0.9588 31.5015,-0.4641 46.8789,1.7813 29.1783,4.2605 57.2798,14.1996 81.2246,29.1406 23.831,14.8699 44.5443,35.4725 59.5137,59.207 14.9671,23.7309 25.1144,52.0857 30.2773,82.1484 5.1716,30.1134 5.5612,63.9774 5.3203,100.8047 l -1.6113,246.3203 -0,0.4004 0,0.014 a 60.006,60.006 0 0 0 119.9961,0.7988 l 0,-0.014 1.6602,-245.2286 c 0.2453,-36.2533 1.0108,-69.7055 6.2031,-99.6191 5.1855,-29.8742 14.9844,-58.054 29.4004,-81.918 28.2235,-46.7209 80.4199,-81.5873 135.6152,-91.5664 17.6876,-3.1978 35.9618,-4.0263 54.2891,-2.7382 -64.1945,68.6177 -103.3433,158.0666 -112.8086,250.9277 -7.1137,69.7901 2.0303,145.8367 42.1856,211.7949 20.132,33.0685 47.5953,62.4519 81.9765,83.9297 34.5445,21.5798 74.9858,34.3931 117.5137,34.334 43.0821,-0.059 83.9685,-13.3207 118.7363,-35.4922 34.5982,-22.0632 62.0382,-52.1362 81.959,-85.8516 39.7256,-67.2345 47.7495,-144.2481 39.6426,-214.6113 -10.5211,-91.3156 -49.1593,-179.7682 -113.4278,-247.4141 27.8465,-3.1285 55.8711,-1.8901 82.4219,4.3829 64.0619,15.1354 123.3005,59.2856 158.8711,116.6347 35.767,57.6657 49.9113,130.6204 40.3926,199.5176 -12.7765,92.4774 -71.4592,180.3442 -151.9707,227.8301 -40.8648,24.1022 -88.1793,39.7457 -137.6055,47.8261 -49.4734,8.0882 -102.7383,8.7962 -158.6699,8.8379 l -974.9902,0.7305 c -49.239,0.037 -104.9112,-5.0232 -165.6817,3.0645 -32.0003,4.2587 -68.0857,13.4782 -100.8926,37.2714 -16.5839,12.0276 -31.8573,27.6281 -43.291,47.4766 -11.5539,20.0568 -18.643,43.5397 -17.998,69.1484 0.6085,24.1468 8.0082,46.0582 19.3066,64.7676 11.1949,18.5375 25.7487,33.1793 41.4629,44.5684 31.1197,22.5541 65.1846,31.8318 95.5859,36.3652 57.9014,8.634 110.9339,4.3281 157.5528,4.459 l 1499.8633,4.2109 a 60.006,60.006 0 1 0 0.3359,-119.998 l -1499.8633,-4.2109 c -52.7433,-0.1481 -99.8148,2.872 -140.1894,-3.1485 -18.7367,-2.794 -33.7578,-8.2411 -42.8653,-14.8418 -4.3983,-3.1877 -7.5133,-6.7113 -9.1601,-9.4375 l -0,-0 c -1.5413,-2.5534 -2.0472,-5.0689 -2.0644,-5.7539 -0.018,-0.7067 0.4297,-3.4756 2.0156,-6.2286 a 60.006,60.006 0 0 0 0,0 c 1.706,-2.9614 5.0343,-6.8071 9.7598,-10.2343 9.812,-7.1162 26.0844,-12.7744 46.2715,-15.461 43.6041,-5.8031 93.8873,-1.9735 149.9434,-2.0156 l 974.9882,-0.7305 c 56.5886,-0.042 116.3686,-0.3439 177.9414,-10.4101 61.6199,-10.074 123.1532,-29.8338 179.2071,-62.8946 113.3259,-66.8399 191.8568,-184.3198 209.8789,-314.7656 13.2215,-95.6984 -5.4731,-195.6556 -57.2871,-279.1933 -52.0104,-83.8543 -135.6108,-147.0981 -233.2559,-170.168 -28.443,-6.72 -57.3006,-9.835 -85.9883,-9.6055 z m -980.0429,169.9219 c 5.0203,3.3772 9.9613,6.8609 14.7129,10.5723 59.3358,46.3469 99.9537,119.5456 110.6718,195.7382 7.2316,51.4073 0.3242,103.5207 -22.5566,142.379 -11.3932,19.3489 -26.9447,35.8549 -44.4102,46.9433 -17.3035,10.9856 -37.6458,17.1437 -56.4023,17.1699 -18.7072,0.026 -39.0139,-6.0418 -56.332,-16.9257 -17.4791,-10.9852 -33.0862,-27.3657 -44.5899,-46.6055 -23.1048,-38.6419 -30.4579,-90.562 -23.8457,-142.0117 9.4427,-73.4739 46.2168,-144.4284 101.2891,-191.0059 6.8377,-5.783 14.011,-11.2074 21.4629,-16.2539 z m 828.9472,0.2441 c 6.9798,4.8473 13.7298,9.9991 20.1426,15.5118 a 60.006,60.006 0 0 0 0,0 c 55.918,48.0684 92.4021,121.6173 101.1425,197.4785 5.8757,50.9978 -1.3279,101.8919 -23.7461,139.834 -11.1511,18.8729 -26.2628,34.9376 -43.166,45.7168 -16.7334,10.6709 -36.3809,16.6451 -54.3808,16.6699 -17.776,0.025 -37.1714,-5.7374 -53.7715,-16.1074 -16.7634,-10.4721 -31.8262,-26.1181 -43.0527,-44.5586 -22.5622,-37.0602 -30.4212,-87.0268 -25.3047,-137.2227 8.2125,-80.5713 48.8037,-159.128 110.4004,-208.4746 3.8178,-3.0585 7.7326,-6.0084 11.7343,-8.8477 z"
         id="path4139-1-0-4-2-2-4-3-2-6-9"
         inkscape:connector-curvature="0" />
      <path
         style="color:#000000;font-style:normal;font-variant:normal;font-weight:normal;font-stretch:normal;font-size:medium;line-height:normal;font-family:sans-serif;text-indent:0;text-align:start;text-decoration:none;text-decoration-line:none;text-decoration-style:solid;text-decoration-color:#000000;letter-spacing:normal;word-spacing:normal;text-transform:none;direction:ltr;block-progression:tb;writing-mode:lr-tb;baseline-shift:baseline;text-anchor:start;white-space:normal;clip-rule:nonzero;display:inline;overflow:visible;visibility:visible;opacity:1;isolation:auto;mix-blend-mode:normal;color-interpolation:sRGB;color-interpolation-filters:linearRGB;solid-color:#000000;solid-opacity:1;fill:#000000;fill-opacity:1;fill-rule:evenodd;stroke:none;stroke-width:140;stroke-linecap:round;stroke-linejoin:round;stroke-miterlimit:4;stroke-dasharray:none;stroke-dashoffset:0;stroke-opacity:1;color-rendering:auto;image-rendering:auto;shape-rendering:auto;text-rendering:auto;enable-background:accumulate"
         d="m 2764.5312,2377.8477 c -81.1489,0.6962 -161.4888,19.5759 -234.9843,53.6035 -96.5962,-43.1239 -205.0936,-59.2379 -311.3281,-40.0313 -131.2081,23.7218 -250.494,102.1574 -320.3458,217.7891 -2.3797,3.9393 -4.5402,7.9661 -6.7929,11.957 -3.8451,-6.8618 -7.833,-13.6654 -12.0586,-20.3652 -36.445,-57.7849 -85.7267,-106.7897 -143.6582,-142.9375 -57.7986,-36.0649 -122.4563,-58.4595 -188.4102,-68.0899 -102.5557,-14.9749 -206.5217,1.4877 -299.6972,42.6836 -104.6576,-46.2417 -222.5386,-61.8554 -336.5352,-39.3144 -111.0989,21.9679 -213.71306,78.878 -291.17968,161.4883 -77.46662,82.6103 -127.67267,188.6691 -142.4629,300.9492 -14.79022,112.28 6.23852,227.7192 59.66993,327.5722 53.43142,99.853 137.80937,181.3961 239.42968,231.3848 a 70.007,70.007 0 1 0 61.79493,-125.623 c -74.75283,-36.7722 -138.48048,-98.3597 -177.78516,-171.8125 -39.30468,-73.453 -55.18843,-160.6441 -44.30859,-243.2383 10.87983,-82.5943 48.79992,-162.6978 105.78515,-223.4668 56.98523,-60.769 134.48949,-103.7523 216.21485,-119.9121 51.23735,-10.1314 104.95249,-9.4957 157.23439,0.5625 -111.1343,100.2516 -180.45471,240.2593 -199.30471,386.9316 -13.81929,107.5284 -1.07388,224.2505 58.66211,324.1582 29.92467,50.0488 71.0202,94.326 122.1426,126.4551 51.3104,32.2474 111.4416,51.2559 174.082,51.1699 62.8157,-0.086 123.061,-19.368 174.377,-51.9472 51.1282,-32.46 92.1092,-77.1101 121.7929,-127.5215 59.2572,-100.6357 71.0077,-217.9418 55.8477,-325.711 -20.5494,-146.081 -91.6098,-284.3256 -202.3555,-383.3711 42.021,-7.6677 84.8519,-8.9682 126.3672,-2.9062 48.0833,7.021 94.5502,23.3885 134.5254,48.332 39.8422,24.8606 74.3228,59.1543 99.3574,98.8477 25.032,39.6892 41.6373,86.4268 50.0625,135.4863 8.4354,49.1184 8.9384,102.897 8.5645,160.0527 l -2.5,381.9082 a 70.007,70.007 0 0 0 139.998,0.9317 l 0,-0.016 2.5684,-379.584 c 0.3805,-56.252 1.4949,-109.3029 9.9394,-157.9532 8.4365,-48.6041 24.4297,-94.9254 48.4649,-134.7128 47.3606,-78.4001 133.5593,-135.8019 225.4219,-152.4102 44.8164,-8.1026 91.5528,-7.0816 137.3007,1.6738 -114.9629,105.545 -185.3752,253.431 -201.0605,407.3145 -10.6304,104.2907 3.2806,217.0271 62.082,313.6133 29.4643,48.3972 69.6096,91.2612 119.4688,122.4082 50.0498,31.2659 108.6365,49.7549 169.7461,49.6699 61.9024,-0.086 121.1422,-19.2206 171.5214,-51.3477 50.1804,-32 90.3036,-75.8803 119.4668,-125.2383 58.1912,-98.4866 70.4552,-212.714 58.3321,-317.9355 -17.4116,-151.122 -86.625,-296.9537 -201.3672,-400.7422 60.2225,-13.3048 122.7159,-14.1664 181.3535,-0.3125 105.5598,24.94 201.8962,96.9161 260.0879,190.7363 58.4207,94.1896 81.1815,212.2623 65.7422,324.0137 -20.776,150.3786 -115.3928,292.0265 -246.2676,369.2168 -66.1479,39.0143 -142.093,64.015 -220.9219,76.9024 -78.8839,12.8963 -162.5739,13.9138 -249.2734,13.9785 l -1509.14649,1.1328 c -77.51424,0.058 -162.66066,-7.5441 -253.45313,4.539 -47.28043,6.2925 -99.36015,19.887 -145.75781,53.5372 -23.40944,16.9778 -44.77155,38.8845 -60.61524,66.3886 -15.98362,27.7469 -25.69122,60.1448 -24.8125,95.0371 0.8287,32.9053 10.96612,63.1226 26.59571,89.0039 15.50828,25.6805 35.85639,46.2254 58.02344,62.2911 43.97355,31.8701 93.07236,45.5 137.90624,52.1855 86.28279,12.8662 167.23179,6.4484 240.5586,6.6543 l 2321.57808,6.5176 a 70.007,70.007 0 1 0 0.3946,-140 l -2321.5801,-6.5176 c -80.47207,-0.2259 -154.46794,4.694 -220.30274,-5.123 -31.2249,-4.6562 -58.10394,-13.8166 -76.39648,-27.0743 a 70.007,70.007 0 0 0 0,-0 c -8.96599,-6.4982 -15.96971,-14.0694 -20.33789,-21.3028 -4.24687,-7.0324 -6.34505,-14.6258 -6.48438,-20.1582 -0.14708,-5.8402 1.81332,-14.0713 6.16797,-21.6308 4.49459,-7.8025 11.92546,-15.9955 21.5,-22.9395 19.57028,-14.1934 48.53292,-23.6316 82.03125,-28.0898 70.76501,-9.4178 149.62218,-3.2542 235.08985,-3.3184 l 1509.14652,-1.1308 c 87.466,-0.065 178.7559,-0.6104 271.7558,-15.8145 93.0544,-15.213 185.589,-45.0131 269.457,-94.4785 169.1583,-99.77 286.9323,-275.9693 313.8282,-470.6445 19.7592,-143.0196 -8.3109,-292.5932 -85.4532,-416.9668 -77.3713,-124.743 -202.1309,-218.9946 -346.871,-253.1914 -42.1439,-9.9571 -84.9858,-14.5612 -127.629,-14.1953 z M 1247.5,2590.6602 c 12.6894,7.9111 24.965,16.4412 36.7051,25.6113 96.9186,75.7026 162.4736,194.1235 179.873,317.8125 11.7504,83.531 0.9127,169.3391 -37.8515,235.1719 -19.3271,32.8228 -45.7739,61.0559 -76.1914,80.3671 -30.2299,19.1922 -65.7552,30.0926 -99.5313,30.1387 -33.6862,0.046 -69.1477,-10.6957 -99.3945,-29.7051 -30.4348,-19.1274 -56.9706,-47.1387 -76.4785,-79.7656 -39.1294,-65.4433 -50.703,-150.9134 -39.9649,-234.4668 15.3197,-119.2029 74.6681,-234.0584 164.6953,-310.1992 15.1181,-12.7862 31.2803,-24.402 48.1387,-34.9648 z m 1282.8887,0.1836 c 16.1578,10.3579 31.6646,21.6782 46.1484,34.1289 91.4337,78.5985 150.2162,197.5743 164.3672,320.3964 9.5201,82.6286 -1.7861,166.383 -39.7852,230.6954 -18.9317,32.0414 -44.6705,59.5786 -74.207,78.414 a 70.007,70.007 0 0 0 -0,0 c -29.3374,18.7086 -63.7977,29.3431 -96.4414,29.3887 -32.2323,0.045 -66.2622,-10.2184 -95.377,-28.4063 -29.3054,-18.307 -54.9859,-45.1411 -74.0606,-76.4726 -38.2762,-62.8719 -50.685,-145.1844 -42.3847,-226.6153 13.3159,-130.6381 78.733,-257.6216 179.3379,-338.2187 10.3692,-8.3071 21.2519,-16.0012 32.4043,-23.3105 z"
         id="path4139-1-0-4-2-2-4-3-2-9"
         inkscape:connector-curvature="0" />
    </g>
  </g>
</svg>
