<?xml version="1.0" encoding="UTF-8" standalone="no"?>
<!-- Created with Inkscape (http://www.inkscape.org/) -->

<svg
   xmlns:dc="http://purl.org/dc/elements/1.1/"
   xmlns:cc="http://creativecommons.org/ns#"
   xmlns:rdf="http://www.w3.org/1999/02/22-rdf-syntax-ns#"
   xmlns:svg="http://www.w3.org/2000/svg"
   xmlns="http://www.w3.org/2000/svg"
   xmlns:sodipodi="http://sodipodi.sourceforge.net/DTD/sodipodi-0.dtd"
   xmlns:inkscape="http://www.inkscape.org/namespaces/inkscape"
   width="2000"
   height="2048"
   id="svg2992"
   version="1.1"
   inkscape:version="0.91pre2 r13516"
   sodipodi:docname="ത്തു.svg">
  <defs
     id="defs5498">
    <inkscape:path-effect
       effect="spiro"
       id="path-effect3891"
       is_visible="true" />
    <inkscape:path-effect
       is_visible="true"
       id="path-effect3891-2"
       effect="spiro" />
    <inkscape:path-effect
       is_visible="true"
       id="path-effect4141-3-4-6-8"
       effect="spiro" />
    <inkscape:path-effect
       is_visible="true"
       id="path-effect4141-3-4-6-8-9"
       effect="spiro" />
    <inkscape:path-effect
       is_visible="true"
       id="path-effect4141-3-4-6-8-9-5"
       effect="spiro" />
    <inkscape:path-effect
       is_visible="true"
       id="path-effect4141-3-4-6-8-9-5-4"
       effect="spiro" />
    <inkscape:path-effect
       is_visible="true"
       id="path-effect4141-3-4-6-8-9-5-4-1"
       effect="spiro" />
  </defs>
  <sodipodi:namedview
     inkscape:window-height="853"
     inkscape:window-width="1600"
     inkscape:pageshadow="2"
     inkscape:pageopacity="0.0"
     borderopacity="1.0"
     bordercolor="#666666"
     pagecolor="#ffffff"
     id="base"
     showgrid="true"
     showguides="true"
     inkscape:guide-bbox="true"
     inkscape:zoom="0.227"
     inkscape:cx="1257.7093"
     inkscape:cy="842.45957"
     inkscape:window-x="1598"
     inkscape:window-y="-3"
     inkscape:current-layer="layer1-8"
     inkscape:window-maximized="1">
    <inkscape:grid
       type="xygrid"
       id="grid3769"
       empspacing="3"
       visible="true"
       enabled="true"
       snapvisiblegridlinesonly="true"
       spacingx="4px"
       units="px"
       dotted="true"
       spacingy="4px" />
    <sodipodi:guide
       orientation="0,1"
       position="-1040,1600"
       id="guide2985" />
    <sodipodi:guide
       orientation="0,1"
       position="-480,576"
       id="guide3939" />
  </sodipodi:namedview>
  <metadata
     id="metadata5594">
    <rdf:RDF>
      <cc:Work
         rdf:about="">
        <dc:format>image/svg+xml</dc:format>
        <dc:type
           rdf:resource="http://purl.org/dc/dcmitype/StillImage" />
        <dc:title />
      </cc:Work>
    </rdf:RDF>
  </metadata>
  <g
     inkscape:label="Layer 1"
     inkscape:groupmode="layer"
     id="layer1"
     transform="translate(0,1048)">
    <g
       id="layer1-8"
       inkscape:label="Layer 1"
       transform="translate(-636.1686,-1002.5333)">
      <path
         style="color:#000000;font-style:normal;font-variant:normal;font-weight:normal;font-stretch:normal;font-size:medium;line-height:normal;font-family:sans-serif;text-indent:0;text-align:start;text-decoration:none;text-decoration-line:none;text-decoration-style:solid;text-decoration-color:#000000;letter-spacing:normal;word-spacing:normal;text-transform:none;direction:ltr;block-progression:tb;writing-mode:lr-tb;baseline-shift:baseline;text-anchor:start;clip-rule:nonzero;display:inline;overflow:visible;visibility:visible;opacity:1;isolation:auto;mix-blend-mode:normal;color-interpolation:sRGB;color-interpolation-filters:linearRGB;solid-color:#000000;solid-opacity:1;fill:#000000;fill-opacity:1;fill-rule:evenodd;stroke:none;stroke-width:133.17449951;stroke-linecap:round;stroke-linejoin:round;stroke-miterlimit:4;stroke-dasharray:none;stroke-dashoffset:0;stroke-opacity:1;color-rendering:auto;image-rendering:auto;shape-rendering:auto;text-rendering:auto;enable-background:accumulate"
         d="m 1324.3262,400.42773 c -117.284,1.74091 -234.7375,34.39053 -334.34182,100.40821 a 66.593908,66.593908 0 0 0 0,0.002 c -114.3027,75.75979 -200.6039,194.06479 -229.39258,330.88086 -27.9834,132.98901 0.98656,274.35645 79.02343,385.61915 78.03687,111.2628 201.09067,186.6445 335.66017,205.623 a 66.593908,66.593908 0 1 0 18.5976,-131.8691 c -96.687,-13.6359 -189.1577,-70.2832 -245.22652,-150.2246 -56.06882,-79.9413 -77.83826,-186.17509 -57.73242,-281.72658 20.78828,-98.79472 86.25681,-190.04107 172.64454,-247.29882 86.857,-57.56877 196.1893,-83.77174 302.9609,-77.33985 41.2551,2.4852 82.3061,9.75763 122.041,21.41407 -18.9881,13.23246 -37.4148,27.43604 -55.1562,42.68359 -94.1262,80.89511 -166.9566,190.72721 -192.4668,316.69336 -25.7168,126.98663 -0.069,265.42813 83.377,369.96293 41.6211,52.1397 96.2155,93.9697 159.205,119.1796 63.1142,25.2598 133.0075,33.038 200.8828,20.0665 72.2538,-13.8084 137.567,-50.2072 188.5254,-100.8165 50.8051,-50.4567 86.1489,-113.5432 105.3477,-180.6894 38.3727,-134.2052 10.8198,-275.83466 -52.1641,-392.83594 -37.3639,-69.4088 -87.2269,-131.4635 -146.2422,-183.1543 3.0909,-0.86371 6.1323,-1.86557 9.2344,-2.69531 73.3057,-19.60785 147.4836,-28.91615 217.2403,-20.26172 69.178,8.58264 135.9757,36.1598 186.7304,79.84375 50.5991,43.54991 87.4645,105.53206 105.4024,172.54883 16.5273,61.74663 17.805,131.24777 16.0625,204.60739 -0.081,2.6674 -0.2194,5.442 -0.2969,8.0957 l -10.5664,361.5489 -0,0.053 a 66.593908,66.593908 0 0 0 133.1153,3.9414 l 0,-0.051 0.016,-0.5488 10.4825,-349.3086 c 0.2107,-7.0251 0.2606,-14.3646 0.4433,-21.4863 2.1618,-68.35286 6.0906,-133.05241 21.8848,-190.97269 16.5142,-60.56057 46.6832,-117.00318 88.3105,-160.58008 41.7066,-43.65978 96.5466,-76.39957 155.8711,-94.77539 59.6731,-18.48375 125.29,-23.503 191.5078,-18.82812 14.9248,1.05366 29.7771,2.76224 44.5782,4.77734 -18.7348,14.17335 -36.773,29.39484 -53.9297,45.75782 -95.6441,91.21898 -161.5541,215.37086 -173.1113,350.29492 -11.6292,135.7634 34.2154,276.0819 133.8867,373.5137 49.6628,48.5468 111.0754,84.9234 178.7597,103.9082 67.7732,19.0097 140.3025,20.0539 209.0137,1.2773 68.5468,-18.7317 130.1517,-56.3085 178.9316,-106.3848 48.697,-49.991 83.6772,-111.3047 103.6114,-176.9726 39.9263,-131.5264 17.5367,-273.11912 -46.0157,-390.04883 -44.1963,-81.31681 -107.1706,-150.19644 -180.8281,-203.71094 113.6491,-15.88802 231.8874,-0.79247 334.0137,46.87109 112.4845,52.49788 206.9091,146.67165 254.082,259.19531 37.8895,90.37939 46.0718,194.25247 21.7735,288.53517 -24.2701,94.1724 -81.8336,180.8984 -159.4004,238.5019 -102.9017,76.418 -241.8937,106.1352 -383.9551,117.1387 -143.2983,11.0994 -290.0617,8.2697 -439.3594,9.5156 L 1093,1515.6152 c -62.0351,0.5178 -136.12616,0.7904 -208.03906,36.3672 -36.12498,17.8718 -69.823,44.2377 -94.63477,80.4063 -25.0698,36.5445 -39.54977,81.1975 -36.31445,128.5898 3.16223,46.3219 22.7106,87.5467 50.79492,119.9844 27.78596,32.0932 62.52748,54.2356 98.42774,68.709 71.35374,28.7666 142.22022,27.0262 202.46292,26.2187 l 2888.7539,-38.7187 a 66.593908,66.593908 0 1 0 -1.7852,-133.1621 l -2888.7539,38.7187 c -59.228,0.7939 -111.42197,-0.6634 -150.8828,-16.5723 l 0,0 c -19.50703,-7.8644 -36.22167,-19.2935 -47.53907,-32.3652 a 66.593908,66.593908 0 0 0 -0.002,0 c -11.01906,-12.7272 -17.70474,-28.6047 -18.61133,-41.8848 -0.92274,-13.5167 3.80148,-30.3847 13.26758,-44.1836 9.72413,-14.175 25.27358,-27.1773 43.86914,-36.3769 37.52816,-18.566 90.03533,-22.0632 150.09763,-22.5645 l 1834.3575,-15.3066 c 146.7828,-1.2249 296.6249,1.858 448.5332,-9.9082 153.1454,-11.8621 318.2611,-42.8866 453.0703,-143 103.1923,-76.6339 177.0409,-188.3261 208.9609,-312.1817 31.8915,-123.7455 21.2443,-255.99551 -27.916,-373.25975 -61.1853,-145.94779 -179.0948,-262.35475 -320.5781,-328.38672 -141.1119,-65.85861 -301.426,-80.87987 -452.0215,-50.87304 -38.8598,7.74297 -77.3078,18.54443 -114.7071,32.42773 -67.592,-23.9585 -138.2957,-38.00151 -209.125,-43.00195 -78.915,-5.57128 -160.9845,-0.10621 -240.291,24.45898 -79.6548,24.67313 -153.9706,68.45154 -212.7636,129.99805 -29.1954,30.56261 -53.6887,64.69791 -73.6446,101.06445 -26.7875,-51.77294 -62.8943,-99.00562 -108.0371,-137.85937 -73.1268,-62.93929 -164.1828,-99.52503 -257.209,-111.06641 -92.4475,-11.46959 -183.4575,1.14302 -268.0488,23.76953 -38.2173,10.22238 -76.1637,22.82011 -113.2656,37.96289 -82.9368,-41.90756 -174.183,-66.46758 -266.8985,-72.05273 -16.6953,-1.00573 -33.4463,-1.38933 -50.2011,-1.14063 z m 1800.789,191.80469 c 16.3079,7.34798 32.2374,15.41308 47.6895,24.23633 80.0339,45.69993 148.2782,112.38049 191.2187,191.38672 48.0215,88.35455 63.5313,195.72413 35.5899,287.76953 -13.9996,46.1179 -38.755,89.0391 -71.5742,122.7305 -32.7361,33.6059 -74.4964,58.7824 -118.6407,70.8457 -44.2203,12.084 -92.9926,11.5686 -137.9414,-1.0391 -45.0378,-12.6326 -87.5776,-37.6241 -121.6328,-70.9141 -67.7645,-66.2418 -102.6449,-169.3888 -94.291,-266.91597 8.4258,-98.36646 58.5395,-194.90873 132.334,-265.28906 39.7179,-37.88037 86.4772,-68.91008 137.248,-92.81055 z M 1634.541,623.34375 c 72.4254,47.81806 133.3462,113.85157 174.3067,189.94141 49.1727,91.34531 68.0581,199.80694 41.3828,293.10154 -13.3252,46.6039 -38.0077,89.895 -71.1465,122.8067 -32.9852,32.7591 -75.7283,56.1024 -119.6797,64.5019 -41.2913,7.8911 -86.3298,3.1368 -126.4004,-12.9004 -40.1954,-16.0872 -76.8927,-43.8998 -104.6094,-78.6211 -55.2297,-69.1876 -75.3372,-169.5722 -56.9336,-260.44724 18.6104,-91.89559 74.2904,-178.1389 148.7442,-242.12695 34.4551,-29.61186 73.0364,-54.91282 114.3359,-76.25586 z"
         id="path4139-1-0-4-2-2-4-5"
         inkscape:connector-curvature="0" />
      <path
         sodipodi:nodetypes="cssssaaaaaascsaaaaac"
         inkscape:connector-curvature="0"
         inkscape:original-d="m 3972.5541,3700.335 -2888.7534,38.7191 c -389.27141,5.2176 -276.63651,-2.7763 -284.36061,-152.8661 -9.5631,-185.8247 196.9327,-173.6086 273.11211,-174.2443 l 1834.3568,-15.308 c 336.6499,-2.8094 646.8453,55.9996 862.4586,-139.7815 154.6874,-140.4593 246.5289,-416.3578 159.3369,-606.238 -108.0024,-235.1998 -476.8483,-473.8514 -698.1791,-339.7017 -248.7464,150.7663 -310.8845,820.9368 -24.579,872.2632 200.0116,35.8564 266.0492,-386.787 195.5769,-577.3754 -68.9094,-186.3617 -315.5018,-330.0095 -512.5308,-304.3434 -249.7659,32.5359 -522.4686,309.1942 -529.1959,539.3756 l -10.5683,361.6005 10.4985,-349.9085 c 8.0392,-267.9439 -359.7012,-620.2029 -608.8342,-522.7972 -268.511,104.982 -381.2716,795.8486 -99.9942,859.1132 198.2475,44.5897 263.4501,-385.8459 195.5769,-577.3754 -65.4323,-184.6417 -301.108,-317.8793 -496.9558,-313.6884 -220.8573,4.726 -505.95031,159.9251 -544.77091,377.3952 -36.6041,205.0541 358.82101,511.5966 358.82101,511.5966"
         inkscape:path-effect="#path-effect4141-3-4-6-8-9-5-4-1"
         id="path4139-1-0-4-2-2-4-5-1"
         d="m 3972.5541,3700.335 -2888.7534,38.7191 c -59.7353,0.8007 -121.26585,0.9426 -176.67313,-21.3951 -27.70365,-11.1689 -53.43211,-27.9533 -72.98379,-50.5358 -19.55169,-22.5824 -32.66928,-51.1342 -34.70369,-80.9352 -2.07903,-30.4545 7.5224,-61.2154 24.79035,-86.3871 17.26795,-25.1718 41.89162,-44.8557 69.25189,-58.3914 54.72053,-27.0714 118.02117,-28.9563 179.06987,-29.4658 l 1834.3568,-15.308 c 148.0403,-1.2354 296.3429,1.7208 443.9462,-9.712 147.6034,-11.4328 299.657,-41.8038 418.5124,-130.0695 90.3796,-67.1187 156.0853,-166.3267 184.1803,-275.3408 28.0949,-109.014 18.6815,-227.0754 -24.8434,-330.8972 -54.1791,-129.2357 -160.3477,-234.5268 -287.3316,-293.7917 -126.9839,-59.2649 -273.4162,-73.2938 -410.8475,-45.91 -114.8153,22.8775 -224.8991,74.8877 -309.6184,155.6873 -84.7193,80.7997 -142.7311,191.1463 -152.7226,307.7916 -9.9914,116.6452 30.371,238.378 114.0889,320.2148 41.8589,40.9184 93.8351,71.6031 150.1962,87.4118 56.361,15.8087 117.0111,16.588 173.4769,1.1577 56.3455,-15.3975 108.0285,-46.7745 148.7865,-88.6156 40.7581,-41.8411 70.6261,-93.9578 87.593,-149.8507 33.9339,-111.7858 14.9843,-236.267 -40.8026,-338.9091 -49.4938,-91.0635 -126.7002,-166.0198 -216.7052,-217.4133 -90.0051,-51.3935 -192.4384,-79.6311 -295.8256,-86.9301 -72.5664,-5.1231 -146.4102,0.1193 -215.8999,21.6438 -69.4898,21.5244 -134.0677,59.784 -184.3175,112.3871 -50.2498,52.6031 -85.2646,118.8725 -104.4031,189.0569 -19.1385,70.1844 -22.4502,143.5718 -24.5754,216.2878 l -10.5683,361.6005 10.4985,-349.9085 c 2.4509,-81.6871 3.1998,-164.6121 -17.9309,-243.557 -21.1306,-78.9449 -64.3484,-152.4893 -126.2893,-205.801 -61.9408,-53.3116 -140.8664,-85.3934 -221.9685,-95.4554 -81.1021,-10.062 -163.697,0.899 -242.6455,22.0162 -107.3677,28.7188 -210.8025,76.6726 -295.0925,149.1142 -84.29,72.4416 -148.5447,170.4806 -170.605,279.4115 -22.0602,108.9308 0.8168,228.3433 70.1546,315.2045 34.6689,43.4305 80.3153,78.252 131.9078,98.9006 51.5925,20.6485 109.0576,26.9137 163.6409,16.4824 58.1026,-11.1039 112.1306,-40.975 154.1024,-82.6592 41.9719,-41.6842 71.9857,-94.8727 88.2477,-151.7477 32.524,-113.7498 9.3051,-238.7952 -46.7732,-342.9685 -48.4888,-90.0748 -120.9879,-166.9684 -207.635,-221.346 -86.647,-54.3776 -187.2091,-86.1912 -289.3208,-92.3424 -120.1673,-7.2389 -243.4076,21.7967 -343.7528,88.3055 -100.34524,66.5087 -176.22963,171.2843 -201.01811,289.0897 -24.04462,114.2702 1.32545,238.0715 68.37831,333.6735 67.05285,95.602 174.8144,161.6159 290.4427,177.9231"
         style="fill:none;fill-rule:evenodd;stroke:#000000;stroke-width:133.17449951;stroke-linecap:round;stroke-linejoin:round;stroke-miterlimit:4;stroke-dasharray:none;stroke-opacity:1" />
    </g>
  </g>
</svg>
