<?xml version="1.0" encoding="UTF-8" standalone="no"?>
<!-- Created with Inkscape (http://www.inkscape.org/) -->

<svg
   xmlns:dc="http://purl.org/dc/elements/1.1/"
   xmlns:cc="http://creativecommons.org/ns#"
   xmlns:rdf="http://www.w3.org/1999/02/22-rdf-syntax-ns#"
   xmlns:svg="http://www.w3.org/2000/svg"
   xmlns="http://www.w3.org/2000/svg"
   xmlns:sodipodi="http://sodipodi.sourceforge.net/DTD/sodipodi-0.dtd"
   xmlns:inkscape="http://www.inkscape.org/namespaces/inkscape"
   width="2000"
   height="2048"
   id="svg2992"
   version="1.1"
   inkscape:version="0.91 r13725"
   sodipodi:docname="ത്സ.svg">
  <defs
     id="defs5498">
    <inkscape:path-effect
       effect="spiro"
       id="path-effect3846"
       is_visible="true" />
    <inkscape:path-effect
       effect="spiro"
       id="path-effect3801"
       is_visible="true" />
    <inkscape:path-effect
       is_visible="true"
       id="path-effect3846-8"
       effect="spiro" />
    <inkscape:path-effect
       is_visible="true"
       id="path-effect3801-3"
       effect="spiro" />
    <inkscape:path-effect
       is_visible="true"
       id="path-effect4338"
       effect="spiro" />
    <inkscape:path-effect
       is_visible="true"
       id="path-effect4222"
       effect="spiro" />
    <inkscape:path-effect
       is_visible="true"
       id="path-effect4199"
       effect="spiro" />
    <inkscape:path-effect
       is_visible="true"
       id="path-effect4195"
       effect="spiro" />
    <inkscape:path-effect
       is_visible="true"
       id="path-effect4191"
       effect="spiro" />
    <inkscape:path-effect
       is_visible="true"
       id="path-effect3782"
       effect="spiro" />
    <inkscape:path-effect
       is_visible="true"
       id="path-effect3846-2"
       effect="spiro" />
    <inkscape:path-effect
       is_visible="true"
       id="path-effect3801-7"
       effect="spiro" />
    <inkscape:path-effect
       effect="spiro"
       id="path-effect4141-3-4-6-8-86"
       is_visible="true" />
    <inkscape:path-effect
       effect="spiro"
       id="path-effect4372-52-4-6-8"
       is_visible="true" />
    <inkscape:path-effect
       effect="spiro"
       id="path-effect4372-52-4-6-8-8"
       is_visible="true" />
    <inkscape:path-effect
       effect="spiro"
       id="path-effect4372-52-4-6-8-8-1"
       is_visible="true" />
    <inkscape:path-effect
       effect="spiro"
       id="path-effect4372-52-4-6-8-8-9"
       is_visible="true" />
    <inkscape:path-effect
       effect="spiro"
       id="path-effect4372-52-4-6-8-8-4"
       is_visible="true" />
    <inkscape:path-effect
       effect="spiro"
       id="path-effect4372-52-4-6-8-8-6"
       is_visible="true" />
    <inkscape:path-effect
       effect="spiro"
       id="path-effect4372-52-4-6-8-8-6-6"
       is_visible="true" />
    <inkscape:path-effect
       effect="spiro"
       id="path-effect4372-52-4-6-8-8-69"
       is_visible="true" />
  </defs>
  <sodipodi:namedview
     inkscape:window-height="871"
     inkscape:window-width="1600"
     inkscape:pageshadow="2"
     inkscape:pageopacity="0.0"
     borderopacity="1.0"
     bordercolor="#666666"
     pagecolor="#ffffff"
     id="base"
     showgrid="true"
     showguides="true"
     inkscape:guide-bbox="true"
     inkscape:zoom="0.5"
     inkscape:cx="4965.3785"
     inkscape:cy="1453.8687"
     inkscape:window-x="1600"
     inkscape:window-y="0"
     inkscape:current-layer="layer1-2"
     inkscape:window-maximized="1"
     inkscape:snap-grids="false">
    <sodipodi:guide
       orientation="horizontal"
       position="0,600"
       id="guide5596" />
    <inkscape:grid
       type="xygrid"
       id="grid3769"
       empspacing="3"
       visible="true"
       enabled="true"
       snapvisiblegridlinesonly="true"
       spacingx="4px"
       units="px"
       dotted="true"
       spacingy="4px" />
    <sodipodi:guide
       orientation="0,1"
       position="-1040,1600"
       id="guide2985" />
    <sodipodi:guide
       position="4190,1710"
       orientation="0,1"
       id="guide4179"
       inkscape:label=""
       inkscape:color="rgb(0,0,255)" />
  </sodipodi:namedview>
  <metadata
     id="metadata5594">
    <rdf:RDF>
      <cc:Work
         rdf:about="">
        <dc:format>image/svg+xml</dc:format>
        <dc:type
           rdf:resource="http://purl.org/dc/dcmitype/StillImage" />
        <dc:title />
      </cc:Work>
    </rdf:RDF>
  </metadata>
  <g
     inkscape:label="Layer 1"
     inkscape:groupmode="layer"
     id="layer1"
     transform="translate(0,1048)">
    <g
       id="layer1-2"
       inkscape:label="Layer 1"
       transform="matrix(-1,0,0,1,2241.4527,-30.73009)">
      <path
         style="fill:none;fill-rule:evenodd;stroke:#000000;stroke-width:140;stroke-linecap:round;stroke-linejoin:round;stroke-miterlimit:4;stroke-dasharray:none;stroke-opacity:1"
         d="m -164.4113,-526.01125 c -105.88439,22.74451 -203.7009,81.46828 -273.55543,164.22794 -69.85452,82.75966 -111.31906,189.04815 -115.96047,297.24831 -4.64293,108.235583 28.27776,218.94592 97.10227,302.61003 68.82452,83.66411 174.16809,138.04879 282.50163,138.63407 79.801294,0.43113 159.410825,-28.11939 220.899387,-78.98774 C 108.06465,246.85301 150.99837,174.08495 166.02099,95.709227 c 16.16427,-84.331936 0.76471,-171.073526 -1.15765,-256.919107 -1.75942,-78.56917 8.5164,-159.33791 45.49509,-228.68332 18.48935,-34.67271 43.5824,-66.05358 74.68919,-90.06232 31.1068,-24.00874 68.32623,-40.47247 107.32808,-45.25873 59.10075,-7.25277 119.80965,12.8973 167.20186,48.94559 47.39222,36.0483 82.14352,87.00674 104.79288,142.07495 45.29873,110.13642 44.25578,233.03383 43.62856,352.12041 l -1.8986,360.4748 2.391,-356.1969 c 0.40327,-60.076956 1.26351,-120.412715 10.96319,-179.70284 9.69968,-59.29013 28.2951,-117.457 58.35191,-169.47614 30.05682,-52.01915 71.47057,-97.57538 121.07557,-131.46856 49.605,-33.89318 107.15473,-56.02844 166.65643,-64.33244 126.7148,-17.68421 258.3579,28.9968 354.217,113.73403 95.8592,84.73723 157.1388,204.67065 182.3725,330.10045 20.0052,99.440384 17.491,206.70166 -27.8912,297.41583 -22.691,45.35709 -55.9618,85.76216 -97.7975,114.43145 -41.8356,28.66928 -92.347,45.23703 -143.0511,44.12142 -48.396,-1.06483 -95.9478,-18.18931 -135.4153,-46.21815 -39.4676,-28.02884 -70.9508,-66.66529 -92.7396,-109.89203 -43.5776,-86.4535 -47.8292,-188.467235 -30.6421,-283.74482 22.6461,-125.53971 82.5062,-245.65944 176.204,-332.22611 93.6978,-86.56668 221.9918,-137.35886 349.2623,-128.68254 111.1611,7.5781 218.0572,60.39913 293.8129,142.10164 75.7556,81.70251 120.171,191.13139 125.7924,302.40861 4.5103,89.282286 -15.4765,179.6805 -57.2065,258.7392 -41.73,79.0587 -105.0898,146.56311 -181.3494,193.2122"
         id="path4370-92-6-1-7-7"
         inkscape:path-effect="#path-effect4372-52-4-6-8-8"
         inkscape:original-d="m -164.4113,-526.01125 c 0,0 -390.46272,260.18186 -389.5159,461.47625 0.91259,194.01832 186.28534,424.75544 379.6039,441.2441 146.586453,12.50275 277.93943,-147.77247 340.34429,-280.999873 36.32705,-77.554194 -24.58252,-174.544456 -1.15765,-256.919107 39.1375,-137.62887 84.44545,-366.30839 227.51236,-364.00437 209.36885,3.37178 310.9772,425.18455 315.6233,543.14095 l -1.8986,360.4748 2.391,-356.1969 c 10.1424,-233.86315 142.30616,-512.55439 357.0471,-544.97998 229.5182,-34.65693 496.5014,215.20235 536.5895,443.83448 30.4691,173.772911 -92.3159,456.03507 -268.7398,455.9687 -170.1138,-0.064 -285.8095,-271.89957 -258.797,-439.855 36.9963,-230.03214 292.7363,-471.87479 525.4663,-460.90865 203.5327,9.59038 392.0887,242.61822 419.6053,444.51025 23.0048,168.788496 -238.5559,451.9514 -238.5559,451.9514"
         inkscape:connector-curvature="0"
         sodipodi:nodetypes="caaaaacccaaaaaac" />
      <path
         style="color:#000000;font-style:normal;font-variant:normal;font-weight:normal;font-stretch:normal;font-size:medium;line-height:normal;font-family:sans-serif;text-indent:0;text-align:start;text-decoration:none;text-decoration-line:none;text-decoration-style:solid;text-decoration-color:#000000;letter-spacing:normal;word-spacing:normal;text-transform:none;direction:ltr;block-progression:tb;writing-mode:lr-tb;baseline-shift:baseline;text-anchor:start;white-space:normal;clip-rule:nonzero;display:inline;overflow:visible;visibility:visible;opacity:1;isolation:auto;mix-blend-mode:normal;color-interpolation:sRGB;color-interpolation-filters:linearRGB;solid-color:#000000;solid-opacity:1;fill:#000000;fill-opacity:1;fill-rule:evenodd;stroke:none;stroke-width:140;stroke-linecap:round;stroke-linejoin:round;stroke-miterlimit:4;stroke-dasharray:none;stroke-dashoffset:0;stroke-opacity:1;color-rendering:auto;image-rendering:auto;shape-rendering:auto;text-rendering:auto;enable-background:accumulate"
         d="m 406.32227,656.65039 c -9.92928,0.12469 -19.933,0.78604 -29.98438,2.01953 -52.92034,6.49432 -101.33677,28.27131 -141.57031,59.32422 -40.04808,30.90975 -71.0764,70.13693 -93.6875,112.53906 -45.06395,84.50749 -55.630981,177.446 -53.710939,263.1875 2.086064,93.1556 15.338929,174.6323 2.392578,242.1758 -11.888801,62.026 -46.759972,121.084 -95.3164065,161.2539 l 0,-0 c -48.5358765,40.1528 -113.0477225,63.2654 -175.9023425,62.9258 -85.15252,-0.46 -172.80407,-45.0113 -228.82031,-113.1054 -56.53451,-68.7242 -85.17275,-163.102 -81.22461,-255.1407 3.9605,-92.3269 39.90898,-184.4791 99.51562,-255.09763 59.60664,-70.61855 144.41483,-121.53164 234.76563,-140.93945 a 70.007,70.007 0 1 0 -29.40235,-136.87696 c -121.41798,26.08121 -232.24523,92.61484 -312.34765,187.51563 -80.10242,94.90077 -127.08198,215.32491 -132.4043,339.39841 -5.33772,124.4325 31.86594,251.478 112.98047,350.0821 81.6328,99.234 204.66707,163.4515 336.18164,164.1621 96.74798,0.5226 191.4571796,-33.467 265.898437,-95.0508 74.420693,-61.5669 125.415843,-148.0461 143.572263,-242.7715 19.38217,-101.1203 1.83485,-193.1284 0.0762,-271.6641 -1.59881,-71.3969 8.38583,-139.99437 37.2793,-194.1777 14.3676,-26.94326 33.52784,-50.47822 55.69336,-67.58593 21.98005,-16.96457 48.00063,-28.11516 73.08398,-31.19336 37.79051,-4.63761 81.82682,8.96047 116.29688,35.17968 35.21583,26.78649 63.58686,67.16554 82.43359,112.98829 38.18685,92.84502 38.99523,205.88332 38.36719,325.12502 l -1.89648,360.0039 -0.002,0.3691 0,0.1016 a 70.007,70.007 0 0 0 139.99805,0.8379 l 0,-0.1 2.39063,-356.0957 c 0.40089,-59.7234 1.46236,-116.3976 10.04687,-168.8711 8.57597,-52.4214 24.87386,-102.4817 49.87891,-145.75784 24.97891,-43.23085 59.49193,-81.04317 99.95703,-108.69141 40.50406,-27.67486 88.08607,-45.99843 136.84177,-52.80273 41.8258,-5.83718 85.2178,-2.77837 127.4903,7.54687 -106.1369,98.3327 -171.9623,231.83771 -197.00199,370.64651 -19.0948,105.853 -15.69275,223.0962 37.02339,327.6797 26.4418,52.4577 64.8159,100.0201 114.7149,135.457 50.1346,35.6044 110.5197,57.7232 174.4082,59.1289 66.9636,1.4733 131.025,-19.9506 184.1601,-56.3633 l 0,0 c 52.8586,-36.2231 93.3317,-85.8889 120.8301,-140.8555 54.7978,-109.5348 56.0625,-232.4473 33.9141,-342.541 -26.2026,-130.2461 -87.4785,-256.21808 -185.6602,-351.1504 36.3952,-8.80673 73.6184,-12.49602 110.2032,-10.00196 92.178,6.28399 183.5834,51.20128 247.2441,119.85938 63.8426,68.85429 102.4102,163.31458 107.2109,258.34568 3.8645,76.4975 -13.4467,154.7934 -49.2011,222.5313 -35.7545,67.7379 -90.6311,126.2046 -155.9707,166.1738 a 70.007,70.007 0 1 0 73.0546,119.4277 c 87.1796,-53.329 159.0211,-129.8705 206.7266,-220.25 47.7055,-90.3795 70.3691,-192.8801 65.2129,-294.9472 -6.4421,-127.5233 -56.7044,-251.92001 -144.373,-346.47073 -87.8507,-94.74693 -210.2387,-155.47349 -340.3829,-164.34571 -90.381,-6.16148 -179.4357,13.02261 -259.4628,51.0625 -88.5366,-43.79373 -189.0166,-63.6141 -289.4922,-49.59179 -70.24762,9.80369 -137.7648,35.75178 -196.47074,75.86328 C 796.66146,774.85233 750.80862,824.30374 716.30469,880.5957 689.77181,820.66385 650.30117,763.86693 594.44531,721.38086 541.67025,681.23817 475.82721,655.77756 406.32227,656.65039 Z M 1336.418,873.21484 c 10.1855,7.40931 20.0554,15.23702 29.4648,23.55469 82.394,72.83433 137.4958,179.05297 160.1094,291.45897 17.862,88.7871 14.0975,180.3976 -21.8692,252.291 -17.8836,35.7476 -43.9528,66.8923 -74.7656,88.0078 -30.5361,20.926 -67.4968,32.6388 -101.9414,31.8809 -32.9035,-0.7239 -67.6234,-12.8532 -96.4238,-33.3066 -29.0362,-20.6207 -53.6259,-50.3323 -70.7617,-84.3282 -34.4391,-68.3235 -39.5412,-155.1083 -24.2617,-239.8105 20.2052,-112.0086 73.9126,-218.48814 154.8183,-293.23634 14.2924,-13.20467 29.5956,-25.37768 45.6309,-36.51172 z"
         id="path4370-92-6-1-7-7-3"
         inkscape:connector-curvature="0" />
      <path
         style="fill:none;fill-rule:evenodd;stroke:#000000;stroke-width:70.00000763;stroke-linecap:round;stroke-linejoin:round;stroke-miterlimit:4;stroke-dasharray:none;stroke-opacity:1"
         d="m 2906.4931,-533.25778 c -110.4321,24.05598 -212.3651,85.5203 -285.1804,171.96027 -72.8153,86.43998 -116.0719,197.33204 -121.0202,310.245529 -4.9529,113.020472 29.2332,228.679481 100.9878,316.140461 71.7547,87.46098 181.7486,144.3704 294.8762,144.92436 83.2834,0.40782 166.3367,-29.50395 230.44,-82.67409 64.1033,-53.17014 108.8144,-129.15098 124.4826,-210.94832 16.8797,-88.122208 0.8395,-178.758992 -1.2072,-268.45994 -1.8723,-82.06003 8.7424,-166.42754 47.2745,-238.90257 19.2661,-36.23751 45.4376,-69.04482 77.9067,-94.1465 32.4692,-25.10168 71.3404,-42.31592 112.0765,-47.3064 61.7197,-7.56111 125.1076,13.55365 174.5483,51.26448 49.4406,37.71084 85.6491,90.98164 109.2294,148.51819 47.1607,115.07311 46.0187,243.395759 45.365,367.756215 l -1.9799,376.667365 2.4934,-372.197301 c 0.4202,-62.730092 1.3139,-125.728746 11.4088,-187.642669 10.0949,-61.91393 29.45,-122.66486 60.7632,-177.02224 31.3132,-54.35738 74.4792,-101.99434 126.225,-137.45722 51.7458,-35.46288 111.8171,-58.64965 173.944,-67.33839 132.2502,-18.49582 269.6333,30.42783 369.5515,119.01991 99.9182,88.59207 163.6744,213.83949 190.0224,344.751645 20.9025,103.855564 18.4135,215.868905 -28.869,310.670015 -23.6413,47.40056 -58.3406,89.64373 -102.0074,119.62602 -43.6667,29.98229 -96.4184,47.31946 -149.3747,46.15481 -50.5467,-1.11165 -100.208,-19.02687 -141.4041,-48.33699 -41.1962,-29.31012 -74.0329,-69.70335 -96.7361,-114.87826 -45.4062,-90.34983 -49.7146,-196.890222 -31.7422,-296.398066 23.664,-131.020884 85.9607,-256.442924 183.6227,-346.933784 97.662,-90.49087 231.5176,-143.71159 364.3516,-134.67892 116.0582,7.89192 227.6307,63.17692 306.608,148.58412 78.9772,85.40719 125.1717,199.71197 130.9708,315.893566 4.6535,93.230932 -16.2023,187.609514 -59.7084,270.198104 -43.5062,82.5886 -109.5458,153.16519 -189.0659,202.05499"
         id="path4370-92-6-1-7-7-0"
         inkscape:path-effect="#path-effect4372-52-4-6-8-8-6"
         inkscape:original-d="m 2906.4931,-533.25778 c 0,0 -407.1879,271.86925 -406.2006,482.205799 0.9518,202.733641 194.2648,443.835481 395.864,461.064821 152.8653,13.06437 289.8447,-154.41041 354.9226,-293.62241 37.8831,-81.037939 -25.6355,-182.385008 -1.2072,-268.45994 40.8139,-143.81116 88.0627,-382.76299 237.2577,-380.35547 218.3369,3.52324 324.2977,444.283874 329.1427,567.538885 l -1.9799,376.667365 2.4934,-372.197301 c 10.5769,-244.368299 148.4017,-535.578369 372.341,-569.460519 239.3494,-36.21373 517.7686,224.86926 559.5739,463.771555 31.7741,181.578805 -96.2702,476.520205 -280.2511,476.450845 -177.4005,-0.0668 -298.0519,-284.11331 -269.8824,-459.613316 38.5811,-240.365204 305.2755,-493.071444 547.9743,-481.612704 212.2508,10.02118 408.8835,253.51665 437.5788,464.477686 C 5208.1104,109.96801 4935.346,405.85061 4935.346,405.85061"
         inkscape:connector-curvature="0"
         sodipodi:nodetypes="caaaaacccaaaaaac" />
      <path
         style="color:#000000;font-style:normal;font-variant:normal;font-weight:normal;font-stretch:normal;font-size:medium;line-height:normal;font-family:sans-serif;text-indent:0;text-align:start;text-decoration:none;text-decoration-line:none;text-decoration-style:solid;text-decoration-color:#000000;letter-spacing:normal;word-spacing:normal;text-transform:none;direction:ltr;block-progression:tb;writing-mode:lr-tb;baseline-shift:baseline;text-anchor:start;white-space:normal;clip-rule:nonzero;display:inline;overflow:visible;visibility:visible;opacity:1;isolation:auto;mix-blend-mode:normal;color-interpolation:sRGB;color-interpolation-filters:linearRGB;solid-color:#000000;solid-opacity:1;fill:#000000;fill-opacity:1;fill-rule:evenodd;stroke:none;stroke-width:70.00000763;stroke-linecap:round;stroke-linejoin:round;stroke-miterlimit:4;stroke-dasharray:none;stroke-dashoffset:0;stroke-opacity:1;color-rendering:auto;image-rendering:auto;shape-rendering:auto;text-rendering:auto;enable-background:accumulate"
         d="m 3197.125,515.09961 c -8.9992,0.0982 -18.0383,0.68628 -27.0879,1.79492 -47.711,5.84496 -92.1913,25.72423 -129.2285,54.35742 -36.9437,28.56099 -66.0792,65.29956 -87.4024,105.40625 -42.5666,80.06353 -53.3168,170.50803 -51.3632,256.13086 2.1295,93.33264 17.0989,181.33474 1.8242,261.07814 -14.1071,73.6474 -54.8056,142.7783 -112.4531,190.5937 -57.6342,47.8043 -133.1344,74.9795 -207.9239,74.6133 -101.5011,-0.497 -202.6361,-52.468 -267.9882,-132.125 -65.6152,-79.9776 -97.6789,-187.4686 -93.0801,-292.4082 4.6015,-105.0016 45.1091,-208.84537 112.8222,-289.2285 C 2402.9573,664.92938 2498.4114,607.37038 2601.1055,585 a 35.003504,35.003504 0 1 0 -14.8985,-68.39453 c -118.1701,25.74158 -226.5825,91.11253 -304.5,183.60937 -77.9174,92.49683 -123.9238,210.43636 -129.2187,331.26176 -5.307,121.1014 31.0024,244.9288 108.8965,339.873 78.1572,95.265 197.0096,157.1117 321.7636,157.7227 91.7774,0.4494 182.3827,-32.1985 252.9551,-90.7344 70.5591,-58.5248 119.2844,-141.3555 136.5137,-231.3027 18.4846,-96.5011 1.372,-189.7725 -0.5918,-275.84184 -1.791,-78.49723 8.6899,-156.78729 43.1875,-221.67383 17.209,-32.36833 40.4157,-61.24435 68.4101,-82.88672 27.9012,-21.57016 61.1647,-36.12181 94.9258,-40.25781 51.0427,-6.2531 106.0846,11.57065 149.0645,44.35352 43.355,33.06903 76.383,81.04526 98.0703,133.96289 43.6231,106.44135 43.4061,229.85066 42.7519,354.29879 l -1.9785,376.4317 -0,0.1855 0,0.051 a 35.003504,35.003504 0 0 0 70,0.418 l 0,-0.051 2.4922,-372.1465 c 0.419,-62.5546 1.4122,-123.7281 10.9531,-182.24413 9.5366,-58.49003 27.752,-115.19446 56.5488,-165.1836 28.7835,-49.96596 68.5051,-93.72715 115.6817,-126.05859 47.1948,-32.34397 102.273,-53.61058 159.0058,-61.54492 72.3259,-10.11512 147.3193,2.20985 215.8223,31.3457 -17.9296,13.01324 -35.1702,26.95913 -51.3945,41.99219 -104.0459,96.40595 -169.3982,228.63758 -194.2774,366.38675 -18.9229,104.7706 -15.0524,218.9158 34.9121,318.3359 25.0246,49.794 61.3044,94.6569 107.7188,127.6797 46.5329,33.1072 102.6169,53.5282 160.9238,54.8105 a 35.003504,35.003504 0 0 0 0,0 c 61.1005,1.3437 120.6353,-18.4291 169.955,-52.2929 49.1807,-33.7682 87.4763,-80.6507 113.5157,-132.8594 51.9782,-104.2159 53.8303,-224.0407 31.8613,-333.1953 -27.6509,-137.38561 -94.4746,-269.48262 -201.1153,-364.03518 -10.1206,-8.97344 -20.6994,-17.43778 -31.4921,-25.63085 61.6573,-25.38169 128.1609,-37.74599 193.7617,-33.28516 106.5347,7.24433 210.352,58.55674 283.2851,137.42773 73.0276,78.97316 116.3162,185.79474 121.711,293.87496 4.3353,86.8561 -15.1875,175.1992 -55.7188,252.1407 l 0,0 c -40.5314,76.9414 -102.3489,143.0058 -176.4317,188.5527 a 35.003504,35.003504 0 1 0 36.6621,59.6309 c 84.9575,-52.2328 155.2202,-127.3229 201.7012,-215.5586 46.4809,-88.2358 68.6709,-188.6482 63.6992,-288.2539 -6.2034,-124.28297 -55.3036,-246.0709 -140.2304,-337.91215 -85.0215,-91.94341 -204.35,-151.20071 -329.9317,-159.74023 -93.345,-6.34744 -186.0967,15.62323 -268.2871,58.20117 -89.9901,-48.5127 -193.8202,-71.28062 -296.3496,-56.94141 -67.5209,9.44312 -132.5841,34.54909 -188.8809,73.13086 -56.315,38.59432 -102.9246,90.10863 -136.7675,148.85743 -12.442,21.59837 -23.05,44.02836 -32.0586,66.99414 -6.1482,-23.7056 -13.7881,-47.19853 -23.2793,-70.35743 -25.4733,-62.15547 -64.8625,-120.72157 -120.3887,-163.07421 -48.9138,-37.30897 -109.947,-60.65981 -172.9414,-59.97266 z m 969.9766,142.17578 c 19.5559,12.63116 38.1571,26.72285 55.5195,42.11719 93.1957,82.6316 153.8846,201.03002 178.9297,325.46872 19.836,98.5566 16.7099,202.7563 -25.877,288.1426 -21.2431,42.5923 -52.3451,80.1981 -90.498,106.3945 -38.0131,26.1005 -83.9815,41.0007 -128.793,40.0157 -42.7865,-0.9411 -86.0255,-16.3503 -121.8848,-41.8633 -35.9778,-25.5974 -65.3721,-61.5204 -85.7539,-102.0762 -40.8478,-81.2797 -45.5941,-180.2159 -28.5722,-274.4609 22.4488,-124.29268 81.6906,-242.90471 172.9687,-327.4805 22.7129,-21.04512 47.5625,-39.91538 73.961,-56.25781 z"
         id="path4370-92-6-1-7-7-0-1"
         inkscape:connector-curvature="0" />
      <path
         style="color:#000000;font-style:normal;font-variant:normal;font-weight:normal;font-stretch:normal;font-size:medium;line-height:normal;font-family:sans-serif;text-indent:0;text-align:start;text-decoration:none;text-decoration-line:none;text-decoration-style:solid;text-decoration-color:#000000;letter-spacing:normal;word-spacing:normal;text-transform:none;direction:ltr;block-progression:tb;writing-mode:lr-tb;baseline-shift:baseline;text-anchor:start;white-space:normal;clip-rule:nonzero;display:inline;overflow:visible;visibility:visible;opacity:1;isolation:auto;mix-blend-mode:normal;color-interpolation:sRGB;color-interpolation-filters:linearRGB;solid-color:#000000;solid-opacity:1;fill:#000000;fill-opacity:1;fill-rule:evenodd;stroke:none;stroke-width:200;stroke-linecap:round;stroke-linejoin:round;stroke-miterlimit:4;stroke-dasharray:none;stroke-dashoffset:0;stroke-opacity:1;color-rendering:auto;image-rendering:auto;shape-rendering:auto;text-rendering:auto;enable-background:accumulate"
         d="m -2681.7168,-677.34766 c -11.0702,0.12953 -22.2485,0.85933 -33.5078,2.23047 -59.4429,7.23883 -113.094,31.64077 -157.4746,66.1836 -44.1061,34.32924 -77.6859,77.46343 -101.9434,123.66992 -48.2812,91.96818 -58.2773,190.79736 -55.9726,280 2.4777,95.89522 14.5838,174.981643 2.9336,235.404295 -10.6206,55.082582 -42.0496,108.277975 -85.0625,143.884765 -42.9743,35.57471 -100.9901,56.36592 -156.5196,56.04883 -75.1147,-0.42893 -155.1003,-40.81905 -205.5937,-102.26563 -51.2479,-62.364693 -78.0892,-149.724718 -74.6621,-234.96093 l 0,-0.002 c 3.4627,-86.10057 36.9536,-172.83337 92.2539,-238.91797 55.3008,-66.0851 134.7718,-114.34235 218.914,-132.92968 a 100.01,100.01 0 1 0 -43.1406,-195.29102 c -128.3551,28.35413 -244.7975,99.05945 -329.1562,199.86914 -84.3587,100.80971 -133.4274,227.89089 -138.709,359.23438 -5.2747,131.170156 33.7221,265.00915 119.9785,369.97656 87.0112,105.88599 217.509,174.47539 358.9727,175.2832 104.0579,0.59421 205.2361,-35.79099 285.1953,-101.98242 79.9203,-66.15935 134.3183,-158.46095 153.9121,-260.082031 20.8653,-108.215858 2.5755,-202.643469 0.6172,-278.435549 -1.7897,-69.26976 7.7169,-133.48008 33.1211,-181.87109 12.5853,-23.97309 29.2619,-44.44974 47.705,-58.80469 18.1689,-14.14137 39.5701,-23.13569 58.8086,-25.47851 28.7453,-3.50054 65.829,7.48384 94.8321,29.76953 30.0914,23.12204 55.7194,59.36891 72.8867,101.65429 35.0563,86.3482 36.4485,195.90207 35.8164,315.923832 l -1.8985,360.474608 a 100.01,100.01 0 0 0 199.9981,1.19727 l 0,-0.14453 2.3906,-356.050786 c 0.4018,-59.861379 1.5344,-115.301924 9.6113,-165.250004 8.0651,-49.8744 23.3262,-96.85393 46.1602,-136.79882 22.794,-39.87498 54.3582,-74.76404 90.9746,-100.06446 36.6605,-25.3309 80.0792,-42.27423 124.2969,-48.52343 20.2662,-2.86419 41.1055,-3.26364 62.0723,-1.6543 -88.1692,98.79348 -142.978,222.11322 -165.4805,349.14453 -19.5188,110.187853 -16.5068,233.74643 39.9961,346.05273 28.3738,56.39635 69.6284,107.81359 123.9609,146.47071 54.6731,38.89955 120.5615,63.21283 191.1289,64.75 73.9582,1.61103 143.8094,-21.97195 201.7266,-61.76367 57.5174,-39.51706 100.9746,-93.17913 130.4551,-152.23047 58.6696,-117.519708 59.4025,-246.860737 36.8476,-361.28907 -23.3722,-118.57536 -74.2965,-234.42187 -155.3379,-329.01757 16.225,-1.4206 32.4165,-1.75041 48.3985,-0.66797 84.36,5.7136 169.5132,47.78976 227.9804,111.52344 58.7525,64.04472 94.4893,152.92331 98.4825,241.70898 3.1997,71.144214 -13.1705,144.231947 -46.4141,207.21289 -33.2436,62.98102 -84.3518,117.7328 -144.8965,155.23047 a 100.01,100.01 0 1 0 105.3086,170.03125 c 91.3041,-56.54813 166.3282,-136.92435 216.4609,-231.90235 50.13285,-94.978046 74.16518,-202.270014 69.33988,-309.55859 -6.07426,-135.05867 -58.18208,-266.85156 -150.90238,-367.92383 -93.0057,-101.3833 -222.6473,-166.43554 -361.8457,-175.86328 -91.0386,-6.16593 -180.179,11.79675 -260.9336,47.94531 -90.3025,-42.15067 -191.8729,-60.71137 -294.3359,-46.23046 -75.3037,10.64253 -147.3517,38.7243 -210,82.01171 -43.9028,30.33504 -81.9781,67.54416 -113.6914,109.35352 -26.4793,-46.27527 -61.3012,-89.45832 -106.6992,-124.3418 -57.6719,-44.31459 -129.8683,-72.85006 -207.3594,-71.94336 z m 929.8711,284.78321 c 3.5289,2.92103 7.0674,5.83357 10.4766,8.88281 76.5929,68.50767 128.6474,169.75867 149.873,277.44336 16.6534,84.488128 12.3243,169.403865 -19.5644,233.2793 -15.799,31.64623 -38.7326,58.83152 -64.7676,76.71875 -25.6352,17.61253 -56.7276,27.25287 -84.1172,26.65625 -26.1863,-0.57042 -55.3578,-10.55692 -79.5391,-27.76172 -24.522,-17.44724 -46.1228,-43.34111 -61.2441,-73.39649 -30.4873,-60.597144 -35.9665,-140.880883 -21.7246,-221.279294 18.9512,-106.983706 69.7075,-208.432816 145.1191,-278.861326 8.1419,-7.60388 16.6914,-14.79311 25.4883,-21.68164 z"
         id="path4370-92-6-1-7-7-6"
         inkscape:connector-curvature="0" />
    </g>
  </g>
</svg>
