<?xml version="1.0" encoding="UTF-8" standalone="no"?>
<!-- Created with Inkscape (http://www.inkscape.org/) -->

<svg
   xmlns:dc="http://purl.org/dc/elements/1.1/"
   xmlns:cc="http://creativecommons.org/ns#"
   xmlns:rdf="http://www.w3.org/1999/02/22-rdf-syntax-ns#"
   xmlns:svg="http://www.w3.org/2000/svg"
   xmlns="http://www.w3.org/2000/svg"
   xmlns:sodipodi="http://sodipodi.sourceforge.net/DTD/sodipodi-0.dtd"
   xmlns:inkscape="http://www.inkscape.org/namespaces/inkscape"
   width="2000"
   height="2048"
   id="svg2992"
   version="1.1"
   inkscape:version="0.91pre3 r13670"
   sodipodi:docname="ത്സ.svg">
  <defs
     id="defs5498">
    <inkscape:path-effect
       effect="spiro"
       id="path-effect3846"
       is_visible="true" />
    <inkscape:path-effect
       effect="spiro"
       id="path-effect3801"
       is_visible="true" />
    <inkscape:path-effect
       is_visible="true"
       id="path-effect3846-8"
       effect="spiro" />
    <inkscape:path-effect
       is_visible="true"
       id="path-effect3801-3"
       effect="spiro" />
    <inkscape:path-effect
       is_visible="true"
       id="path-effect4338"
       effect="spiro" />
    <inkscape:path-effect
       is_visible="true"
       id="path-effect4222"
       effect="spiro" />
    <inkscape:path-effect
       is_visible="true"
       id="path-effect4199"
       effect="spiro" />
    <inkscape:path-effect
       is_visible="true"
       id="path-effect4195"
       effect="spiro" />
    <inkscape:path-effect
       is_visible="true"
       id="path-effect4191"
       effect="spiro" />
    <inkscape:path-effect
       is_visible="true"
       id="path-effect3782"
       effect="spiro" />
    <inkscape:path-effect
       is_visible="true"
       id="path-effect3846-2"
       effect="spiro" />
    <inkscape:path-effect
       is_visible="true"
       id="path-effect3801-7"
       effect="spiro" />
    <inkscape:path-effect
       effect="spiro"
       id="path-effect4141-3-4-6-8-86"
       is_visible="true" />
    <inkscape:path-effect
       effect="spiro"
       id="path-effect4372-52-4-6-8"
       is_visible="true" />
    <inkscape:path-effect
       effect="spiro"
       id="path-effect4372-52-4-6-8-8"
       is_visible="true" />
  </defs>
  <sodipodi:namedview
     inkscape:window-height="853"
     inkscape:window-width="1600"
     inkscape:pageshadow="2"
     inkscape:pageopacity="0.0"
     borderopacity="1.0"
     bordercolor="#666666"
     pagecolor="#ffffff"
     id="base"
     showgrid="true"
     showguides="true"
     inkscape:guide-bbox="true"
     inkscape:zoom="0.32"
     inkscape:cx="2115.4204"
     inkscape:cy="1525.6962"
     inkscape:window-x="1598"
     inkscape:window-y="-3"
     inkscape:current-layer="layer1-2"
     inkscape:window-maximized="1"
     inkscape:snap-grids="false">
    <sodipodi:guide
       orientation="horizontal"
       position="0,600"
       id="guide5596" />
    <inkscape:grid
       type="xygrid"
       id="grid3769"
       empspacing="3"
       visible="true"
       enabled="true"
       snapvisiblegridlinesonly="true"
       spacingx="4px"
       units="px"
       dotted="true"
       spacingy="4px" />
    <sodipodi:guide
       orientation="0,1"
       position="-1040,1600"
       id="guide2985" />
  </sodipodi:namedview>
  <metadata
     id="metadata5594">
    <rdf:RDF>
      <cc:Work
         rdf:about="">
        <dc:format>image/svg+xml</dc:format>
        <dc:type
           rdf:resource="http://purl.org/dc/dcmitype/StillImage" />
        <dc:title />
      </cc:Work>
    </rdf:RDF>
  </metadata>
  <g
     inkscape:label="Layer 1"
     inkscape:groupmode="layer"
     id="layer1"
     transform="translate(0,1048)">
    <g
       id="layer1-2"
       inkscape:label="Layer 1"
       transform="matrix(-1,0,0,1,2241.4527,-30.73009)">
      <path
         style="color:#000000;font-style:normal;font-variant:normal;font-weight:normal;font-stretch:normal;font-size:medium;line-height:normal;font-family:sans-serif;text-indent:0;text-align:start;text-decoration:none;text-decoration-line:none;text-decoration-style:solid;text-decoration-color:#000000;letter-spacing:normal;word-spacing:normal;text-transform:none;direction:ltr;block-progression:tb;writing-mode:lr-tb;baseline-shift:baseline;text-anchor:start;white-space:normal;clip-rule:nonzero;display:inline;overflow:visible;visibility:visible;opacity:1;isolation:auto;mix-blend-mode:normal;color-interpolation:sRGB;color-interpolation-filters:linearRGB;solid-color:#000000;solid-opacity:1;fill:#000000;fill-opacity:1;fill-rule:evenodd;stroke:none;stroke-width:140;stroke-linecap:round;stroke-linejoin:round;stroke-miterlimit:4;stroke-dasharray:none;stroke-dashoffset:0;stroke-opacity:1;color-rendering:auto;image-rendering:auto;shape-rendering:auto;text-rendering:auto;enable-background:accumulate"
         d="m 701.91016,-577.83008 c -39.73867,-0.89321 -79.63379,2.12 -119.00977,9.17969 -140.89062,25.26016 -270.29901,101.13391 -361.14844,211.74414 -16.25471,19.7903 -31.11802,40.61069 -44.65234,62.2207 -9.31635,-22.62927 -20.19026,-44.82164 -33.07813,-66.23242 -37.49516,-62.29124 -89.898958,-116.11316 -154.124996,-153.56445 -64.271822,-37.47798 -138.257404,-57.27107 -213.281254,-55.68946 -89.77902,1.89267 -177.00765,34.4002 -246.17187,91.57032 -69.1551,57.16258 -117.43107,136.6331 -136.41797,224.25586 -17.16182,79.20016 -9.65126,153.75075 -5.48828,219.492184 4.14208,65.411452 4.7173,124.867878 -11.08789,172.867186 -11.04547,33.54435 -31.08836,65.19432 -57.04688,90.64844 -26.02042,25.51481 -58.61327,45.57746 -93.89843,58.24219 -70.39038,25.26487 -154.04075,20.93848 -227.21291,-8.20118 -66.7593,-26.58586 -126.3326,-73.40704 -167.4472,-131.96679 -41.0902,-58.52488 -64.7406,-130.357952 -66.0665,-201.54883 -1.7168,-92.18007 35.1941,-186.8768 98.8399,-253.58008 63.6459,-66.70327 156.50676,-108.0122 248.666,-110.61914 a 70.007,70.007 0 1 0 -3.95898,-139.94531 c -130.30942,3.6861 -256.00342,59.60228 -345.99612,153.91797 -89.9925,94.31568 -139.9549,222.495 -137.5273,352.833982 1.8619,99.973576 34.1826,197.802058 91.4629,279.386718 57.2559,81.54977 137.9434,144.83603 230.2304,181.58789 102.13697,40.67443 219.0899,48.38639 326.30473,9.9043 53.51743,-19.20875 103.27703,-49.50817 144.62305,-90.05078 41.4079,-40.60332 73.54061,-90.75048 92.0039,-146.82227 26.10149,-79.2685 22.15769,-157.191438 17.83203,-225.501952 -4.30476,-67.980518 -8.62198,-129.245538 2.5918,-180.996098 12.17894,-56.20465 44.51306,-109.3982 88.78906,-145.99609 44.26688,-36.59034 102.5741,-58.30067 159.92774,-59.50976 48.14771,-1.01503 97.65375,12.08091 139.80859,36.6621 42.200626,24.60791 78.6590794,61.56143 104.699219,104.82227 26.109814,43.3766 42.797675,94.4881 51.203125,148.15625 8.419319,53.756716 8.779122,111.858845 8.439453,173.128906 L 81.816406,375.04102 a 70.007,70.007 0 0 0 139.998044,0.88281 l 0,-0.10742 2.39063,-338.089848 a 70.007,70.007 0 0 0 -0.01,-1.765624 c -1.97605,-108.883271 36.62434,-219.855608 105.74414,-304.009768 69.11981,-84.15417 170.47597,-143.58046 277.66797,-162.79883 55.74274,-9.99406 113.78478,-8.94593 169.93164,1.97071 -104.73197,88.61287 -179.01305,211.97494 -204.08008,348.429684 -20.17425,109.820494 -8.46971,229.892586 52.18164,331.478516 30.34473,50.82488 72.2156,95.40006 123.94727,127.60156 51.88887,32.29934 112.41016,51.18332 175.25,51.42188 62.47012,0.23715 122.77791,-17.96693 174.70121,-49.47852 51.7661,-31.41624 93.94,-75.13506 124.8652,-125.14453 61.8056,-99.94633 75.7906,-218.76295 58.5918,-328.21289 -21.3299,-135.74025 -90.6246,-261.02697 -192.3086,-352.2832 85.0153,-14.61855 174.4814,-7.40043 255.0176,22.08789 84.5486,30.95745 160.5535,86.052 211.1328,157.24609 50.3019,70.80361 75.9311,160.32554 66.9414,244.058595 -7.3934,68.863762 -38.3904,136.410995 -85.7773,186.921875 -47.3871,50.51089 -112.822,85.75282 -181.0743,97.52148 a 70.007,70.007 0 1 0 23.7891,137.9629 c 98.9787,-17.06678 190.6666,-66.44696 259.3867,-139.69727 68.7201,-73.2503 112.1532,-167.89823 122.875,-267.763672 13.0305,-121.369758 -22.8432,-242.726288 -92.0117,-340.085938 -68.8911,-96.96917 -167.9685,-167.66128 -277.125,-207.62891 -147.4682,-53.99544 -313.156,-51.02027 -458.13086,9 -73.56084,-32.6953 -153.34722,-50.58031 -233.80078,-52.38867 z m 231.79296,209.35352 c 7.6902,4.73879 15.2736,9.63404 22.63672,14.83203 99.00676,69.89379 169.56526,183.04436 188.35156,302.597655 12.9016,82.103778 0.8188,167.873345 -39.3594,232.845705 -20.0666,32.44989 -47.311,60.20943 -78.4277,79.09375 -30.95955,18.78897 -67.05386,29.29301 -101.53516,29.16211 C 890.69064,289.92304 854.47332,279.01432 823.57227,259.7793 792.51402,240.44642 765.49204,212.1677 745.8457,179.26172 706.51492,113.38595 696.08931,26.855331 711.1543,-55.152344 734.73443,-183.51307 820.15144,-302.11649 933.70312,-368.47656 Z"
         id="path4370-92-6-1-7"
         inkscape:connector-curvature="0" />
      <path
         style="fill:none;fill-rule:evenodd;stroke:#000000;stroke-width:140;stroke-linecap:round;stroke-linejoin:round;stroke-miterlimit:4;stroke-dasharray:none;stroke-opacity:1"
         d="m -933.5363,642.86375 c -111.2343,3.14652 -220.5135,51.75956 -297.3328,132.26904 -76.8192,80.50948 -120.2553,191.94768 -118.1831,303.20721 1.5939,85.5822 29.5799,170.4128 78.7651,240.4676 49.1853,70.0548 119.3156,125.1076 198.8388,156.7765 87.65454,34.907 187.95664,40.9271 276.75924,9.0536 44.4013,-15.9367 85.57748,-41.1185 119.2607,-74.1472 33.68321,-33.0287 59.77098,-73.9266 74.52536,-118.7347 20.95334,-63.6339 18.69293,-132.3242 14.45906,-199.1852 -4.23387,-66.861 -10.14766,-134.76822 4.04014,-200.24358 15.58292,-71.91371 55.88898,-138.24579 112.60453,-185.12603 56.71554,-46.88023 129.48364,-73.98935 203.04997,-75.54024 61.58578,-1.29832 123.33112,15.14597 176.54445,46.17556 53.213332,31.02959 97.6446936,76.41775 129.412347,129.19379 31.767653,52.77604 50.854634,112.56597 60.386084,173.42355 9.531449,60.85755 9.621909,122.74955 9.280419,184.34805 l -1.8986,342.4748 2.391,-338.1969 c -2.28668,-125.9984 41.65382,-252.32682 121.63843,-349.70902 79.98461,-97.3822 195.36736,-165.0317 319.40867,-187.27096 138.50338,-24.83215 286.50311,7.7662 401.45652,88.9175 114.95338,81.15131 195.28988,209.91087 217.13298,348.91698 15.0502,95.7769 2.0164,198.0695 -48.9755,280.5288 -25.4959,41.2297 -60.2045,76.9691 -101.6459,102.1194 -41.44144,25.1503 -89.64269,39.5045 -138.1184,39.3205 -48.75916,-0.1851 -97.12915,-15.0811 -138.52411,-40.8483 -41.39496,-25.7671 -75.84187,-62.1944 -100.8374,-104.0599 -49.99107,-83.7308 -61.0551,-187.0327 -43.43549,-282.9468 28.47176,-154.98883 131.36537,-293.9349 269.86848,-369.09518 138.50312,-75.16028 309.62282,-85.99447 457.59782,-31.81347 96.8526,35.46255 184.3943,98.35533 244.1295,182.43696 59.7352,84.08163 90.4859,189.52189 79.4758,292.07329 -9.0576,84.3646 -46.273,165.4625 -104.3265,227.3431 -58.0536,61.8806 -136.6139,104.1906 -220.2294,118.6083"
         id="path4370-92-6-1-7-7"
         inkscape:path-effect="#path-effect4372-52-4-6-8-8"
         inkscape:original-d="m -933.5363,642.86375 c 0,0 -400.2812,235.41957 -415.5159,435.47625 -12.2663,161.0772 123.0017,350.399 277.6039,397.2441 161.1573,48.8314 372.3854,-47.0042 470.5453,-183.8283 77.6951,-108.2984 -41.0786,-280.1998 18.4992,-399.42878 60.9955,-122.06586 180.4094,-278.81239 315.6545,-260.66627 215.4609,28.90884 370.9772,415.18455 375.6233,533.14095 l -1.8986,342.4748 2.391,-338.1969 c 24.1424,-233.86315 211.4822,-506.12221 441.0471,-536.97998 250.3683,-33.65414 574.0133,189.1784 618.5895,437.83448 30.0739,167.7592 -118.3118,423.336 -288.7398,421.9687 -170.9506,-1.3714 -323.6879,-261.8612 -282.797,-427.855 66.2255,-268.83755 458.1562,-465.18562 727.4663,-400.90865 186.2202,44.44568 338.4252,283.63399 323.6053,474.51025 -12.2399,157.6461 -324.5559,345.9514 -324.5559,345.9514"
         inkscape:connector-curvature="0"
         sodipodi:nodetypes="caaaaacccaaaaaac" />
    </g>
  </g>
</svg>
