<?xml version="1.0" encoding="UTF-8" standalone="no"?>
<!-- Created with Inkscape (http://www.inkscape.org/) -->

<svg
   xmlns:dc="http://purl.org/dc/elements/1.1/"
   xmlns:cc="http://creativecommons.org/ns#"
   xmlns:rdf="http://www.w3.org/1999/02/22-rdf-syntax-ns#"
   xmlns:svg="http://www.w3.org/2000/svg"
   xmlns="http://www.w3.org/2000/svg"
   xmlns:sodipodi="http://sodipodi.sourceforge.net/DTD/sodipodi-0.dtd"
   xmlns:inkscape="http://www.inkscape.org/namespaces/inkscape"
   width="2000"
   height="2000"
   id="svg2992"
   version="1.1"
   inkscape:version="0.91 r13725"
   sodipodi:docname="ത്ഭൂ.svg">
  <defs
     id="defs5498">
    <inkscape:path-effect
       effect="spiro"
       id="path-effect2987"
       is_visible="true" />
    <inkscape:path-effect
       effect="spiro"
       id="path-effect4141-3-4-6-8-86-9-7"
       is_visible="true" />
    <inkscape:path-effect
       effect="spiro"
       id="path-effect4141-3-4-6-8-86-9-7-0"
       is_visible="true" />
  </defs>
  <sodipodi:namedview
     inkscape:window-height="851"
     inkscape:window-width="1600"
     inkscape:pageshadow="2"
     inkscape:pageopacity="0.0"
     borderopacity="1.0"
     bordercolor="#666666"
     pagecolor="#ffffff"
     id="base"
     showgrid="true"
     showguides="true"
     inkscape:guide-bbox="true"
     inkscape:zoom="0.32102648"
     inkscape:cx="1280.5352"
     inkscape:cy="-1049.0754"
     inkscape:window-x="1599"
     inkscape:window-y="-1"
     inkscape:current-layer="layer1"
     inkscape:window-maximized="1"
     inkscape:snap-nodes="false"
     inkscape:snap-grids="false">
    <sodipodi:guide
       orientation="horizontal"
       position="0,600"
       id="guide5596" />
    <inkscape:grid
       type="xygrid"
       id="grid3769"
       empspacing="5"
       visible="true"
       enabled="true"
       snapvisiblegridlinesonly="true" />
    <sodipodi:guide
       orientation="0,1"
       position="-2720,1600"
       id="guide4772" />
  </sodipodi:namedview>
  <metadata
     id="metadata5594">
    <rdf:RDF>
      <cc:Work
         rdf:about="">
        <dc:format>image/svg+xml</dc:format>
        <dc:type
           rdf:resource="http://purl.org/dc/dcmitype/StillImage" />
        <dc:title />
      </cc:Work>
    </rdf:RDF>
  </metadata>
  <g
     inkscape:label="Layer 1"
     inkscape:groupmode="layer"
     id="layer1"
     transform="translate(0,1000)">
    <path
       style="fill:none;fill-rule:evenodd;stroke:#000000;stroke-width:140;stroke-linecap:round;stroke-linejoin:round;stroke-miterlimit:4;stroke-dasharray:none;stroke-opacity:1"
       d="M 311.87583,352.76832 C 192.72227,295.78806 99.77338,186.46862 62.696583,59.702566 25.619787,-67.06349 45.010545,-209.24026 114.67972,-321.44778 c 54.16819,-87.24201 137.4494,-155.82501 232.99561,-193.45854 95.54621,-37.63354 202.80535,-44.32037 302.5991,-20.10118 99.79374,24.21919 191.74815,79.05959 261.44718,154.47448 69.69903,75.41489 117.02629,171.02361 136.01499,271.94334 18.4921,98.280648 9.3417,204.172059 -40.0966,291.10248 -24.71912,43.46522 -59.25902,81.57976 -101.24306,108.73856 -41.98405,27.15881 -91.45695,43.12187 -141.45738,43.58896 -49.92276,0.46636 -99.61442,-14.52386 -142.03255,-40.85258 -42.41812,-26.32873 -77.59876,-63.75797 -103.00506,-106.73492 -50.81261,-85.95392 -61.44137,-191.6947194 -43.7022,-289.9562 24.10038,-133.49778 99.963,-257.28227 209.0581,-337.90946 109.0951,-80.6272 250.44157,-116.83393 384.61135,-96.81005 60.2269,8.98844 119.0101,29.06339 170.9467,60.85441 51.9365,31.79103 96.6561,75.35317 129.4795,126.64351 32.8234,51.29033 53.4465,109.88419 63.5863,169.92801 10.1397,60.04382 9.8402,121.299458 8.896,182.186094 l -5.1675,333.242386 4.1251,-332.341586 c 0.9271,-74.691274 3.2479,-150.197774 23.0187,-222.230824 19.7708,-72.03305 57.001,-139.62621 109.9445,-192.32 52.9435,-52.69378 120.425,-89.79397 192.148,-110.66153 71.723,-20.86757 147.2015,-26.11345 221.873,-24.1611 82.6019,2.1597 168.8064,14.24995 236.1506,62.12997 33.6721,23.94001 61.6237,56.74341 76.4391,95.31076 14.8153,38.56736 15.7653,82.97812 -0.8006,120.82661 -13.9698,31.91712 -39.6105,57.90893 -69.455,75.88571 -29.8444,17.97678 -63.7691,28.34827 -98.0994,34.28883 -68.6605,11.88112 -139.3903,6.60371 -208.118,18.08966 -41.4202,6.92225 -82.7303,20.41906 -115.6193,46.531499 -16.4446,13.056221 -30.5764,29.188129 -40.4041,47.743593 -9.8276,18.555464 -15.2611,39.5680996 -14.5843,60.554522 0.6687,20.734121 7.2931,41.121174 18.1244,58.813917 10.8313,17.692744 25.7871,32.722509 42.8891,44.464379 34.2041,23.48373 76.1604,33.52114 117.5899,35.75835 82.8588,4.4744 165.9491,-20.30749 248.27,-9.87316 41.9686,5.3196 83.5631,20.36205 115.3421,48.28622 15.8895,13.96208 29.1478,31.03333 37.9948,50.24651 8.8471,19.21317 13.211,40.58022 11.7854,61.68433 -1.7651,26.13011 -12.3896,51.30496 -28.3733,72.05153 -15.9836,20.74658 -37.1567,37.18892 -60.353,49.34748 -46.3925,24.31713 -99.6571,31.49983 -151.8151,36.31004 -118.3991,10.91923 -237.7401,11.6057 -356.257,2.04928 l 355.802,-5.91396 c 53.176,-0.88386 108.3928,-0.4311 156.4381,22.37498 24.0226,11.40304 45.7183,28.23015 61.1399,49.89324 15.4216,21.6631 24.3178,48.23337 23.2783,74.80471 -0.9542,24.38985 -10.1958,48.12799 -24.5791,67.84843 -14.3833,19.72044 -33.7487,35.53919 -55.1588,47.26031 -42.8201,23.44222 -92.6926,30.70433 -141.4901,32.0852 -97.595,2.76173 -195.1056,-7.94132 -292.7384,-7.44927 L 620.76952,751.2251 C 442.98622,752.12109 260.3733,743.8696 97.858726,671.78136 -64.655851,599.69311 -199.65566,468.3569 -277.50763,308.52332 c -66.00639,-135.51407 -92.5018,-289.989201 -75.42604,-439.75343 17.07575,-149.76423 77.66483,-294.3102 172.48248,-411.4875"
       id="path4139-1-0-4-2-1-6-2"
       inkscape:path-effect="#path-effect4141-3-4-6-8-86-9-7"
       inkscape:original-d="m 311.87583,352.76832 c 0,0 -357.705552,-503.73179 -197.19611,-674.2161 218.67662,-232.26631 811.95168,-82.27001 933.05688,212.8581 66.553,162.186674 -107.4917,442.0629 -282.79704,443.43 -174.73742,1.3626 -319.63152,-265.553286 -288.73981,-437.5437 43.36012,-241.40871 351.81067,-475.49471 593.66945,-434.71951 215.6003,36.3483 375.0707,312.13911 372.9085,539.612024 l -5.1675,333.242386 4.1251,-332.341586 c 2.933,-236.297214 288.6817,-541.760434 546.9842,-549.373454 139.2414,-4.1039 339.439,141.73711 311.7891,278.26734 -26.2644,129.68898 -261.7044,61.0306 -375.6724,128.2642 -66.1443,39.0207 -187.4843,79.910614 -170.6077,154.829614 32.6696,145.028186 298.7626,53.744151 426.8734,129.163486 66.0899,38.90737 172.3968,83.87089 165.1223,160.21706 -9.0942,95.44515 -144.3724,159.80544 -240.5414,157.70905 -83.1204,-1.81194 -310.719,2.2033 -356.257,2.04928 l 355.802,-5.91396 c 115.731,-1.92363 254.1097,53.94141 240.8563,147.07293 -25.0137,175.77096 -292.4096,138.62807 -513.9664,139.74467 L 620.76952,751.2251 c -55.6709,0.28057 -738.33038,-149.70197 -898.27715,-442.70178 -136.83802,-250.667836 97.05644,-851.24093 97.05644,-851.24093"
       inkscape:connector-curvature="0"
       sodipodi:nodetypes="caaaaascsaaaaaascsassac" />
    <path
       style="color:#000000;font-style:normal;font-variant:normal;font-weight:normal;font-stretch:normal;font-size:medium;line-height:normal;font-family:sans-serif;text-indent:0;text-align:start;text-decoration:none;text-decoration-line:none;text-decoration-style:solid;text-decoration-color:#000000;letter-spacing:normal;word-spacing:normal;text-transform:none;direction:ltr;block-progression:tb;writing-mode:lr-tb;baseline-shift:baseline;text-anchor:start;white-space:normal;clip-rule:nonzero;display:inline;overflow:visible;visibility:visible;opacity:1;isolation:auto;mix-blend-mode:normal;color-interpolation:sRGB;color-interpolation-filters:linearRGB;solid-color:#000000;solid-opacity:1;fill:#000000;fill-opacity:1;fill-rule:evenodd;stroke:none;stroke-width:140;stroke-linecap:round;stroke-linejoin:round;stroke-miterlimit:4;stroke-dasharray:none;stroke-dashoffset:0;stroke-opacity:1;color-rendering:auto;image-rendering:auto;shape-rendering:auto;text-rendering:auto;enable-background:accumulate"
       d="m 997.01758,1347.3027 c -72.98262,-0.7616 -146.0733,12.2715 -214.5332,39.2364 -109.62246,43.1778 -204.3561,121.0732 -266.8125,221.664 -80.57658,129.7747 -102.57881,291.1122 -59.69727,437.7246 42.88152,146.6126 148.35589,270.6653 286.16406,336.5664 34.99026,17.3575 77.41669,2.7249 94.26745,-32.5122 16.85076,-35.237 1.60755,-77.4479 -33.86901,-93.7885 -100.49895,-48.0595 -180.9213,-142.6468 -212.19336,-249.5664 -31.27206,-106.9196 -14.49421,-229.9339 44.26758,-324.5743 45.87997,-73.8932 117.70973,-133.1647 199.17969,-165.2539 74.71545,-29.4288 159.12653,-36.773 238.69728,-21.8086 -106.8576,90.9818 -179.78948,218.3884 -204.71291,356.4453 -20.16746,111.7125 -9.10461,234.0936 52.33008,338.0157 30.75159,52.019 73.40795,97.7265 126.34763,130.5859 53.1153,32.9684 115.2361,51.9764 179.6035,51.375 64.4659,-0.6022 126.2845,-20.8247 178.8223,-54.8105 52.361,-33.8714 94.1941,-80.3715 124.0723,-132.9082 59.6795,-104.9382 68.9986,-227.2682 48.041,-338.6524 -21.4115,-113.7961 -74.4063,-221.0375 -153.4004,-306.5098 -12.4745,-13.4974 -25.6251,-26.3308 -39.2637,-38.6074 45.0618,-7.4136 91.0397,-8.2001 135.6719,-1.539 51.7542,7.7239 101.6638,24.9613 144.7324,51.3242 42.9117,26.2669 80.1012,62.5404 107.0645,104.6738 26.9522,42.1159 44.7355,91.8014 53.5254,143.8516 5.9447,35.2025 7.7533,72.7634 8.1093,111.9472 -0.6829,19.8724 -0.9905,39.4419 -1.2285,58.6153 l -4.1191,331.8867 0,0.2383 0,0.2168 c 0.01,38.2781 30.756,69.4537 69.0304,69.9877 38.2743,0.534 69.8813,-29.7716 70.956,-68.0346 l 5.1679,-333.2422 c 0.287,-18.5048 0.4107,-37.4985 0.3203,-56.7148 2.0215,-52.4512 6.7723,-102.0094 19.168,-147.1719 16.7924,-61.1816 48.4614,-118.08 91.8203,-161.2344 43.5082,-43.303 100.6618,-75.122 162.3242,-93.0625 62.0958,-18.0666 130.3221,-23.233 200.4864,-21.3984 77.0504,2.0145 148.5321,14.4471 197.4199,49.2051 23.9706,17.0424 42.6449,39.9029 51.6562,63.3613 8.724,22.7104 8.5229,49.1363 0.4161,67.6582 -6.9517,15.8826 -21.967,32.2575 -41.4454,43.9902 -19.9542,12.0194 -45.4414,20.3479 -73.9179,25.2754 -57.2703,9.9102 -127.8534,4.6759 -207.7207,18.0234 -48.5478,8.1134 -101.5626,24.1944 -147.6075,60.752 -23.1405,18.3725 -43.772,41.549 -58.7363,69.8027 -15.0633,28.4409 -23.8038,61.0199 -22.6894,95.5743 1.1013,34.1426 11.6912,65.8306 28.3886,93.1054 l 0,0 c 16.596,27.1094 38.5893,48.8833 62.9707,65.6231 48.5515,33.3342 103.2899,45.2413 153.4355,47.9492 99.2714,5.3607 180.4672,-18.283 243.2422,-10.3262 31.3613,3.9751 59.5481,15.2653 77.9395,31.4258 9.1403,8.0316 16.2943,17.5514 20.6172,26.9395 4.2579,9.2469 6.0914,19.3393 5.5273,27.6894 -0.6958,10.301 -5.5566,23.1078 -13.9844,34.0469 -8.6562,11.2358 -21.6723,21.8273 -37.3984,30.0703 -23.48,12.3073 -53.3873,19.4661 -87.5195,24.2441 -11.4325,-0.025 -22.8284,0.033 -33.4161,0.209 l -355.8027,5.9141 c -37.2816,0.6957 -67.475,30.4914 -68.6651,67.7605 -1.1901,37.2691 27.0409,68.9304 64.2022,72.0032 l 368.3125,-2.1172 c 10.4287,-0.06 21.326,-2.1764 32.2735,-3.4493 35.3055,1.0111 65.2041,5.021 87.2636,15.4922 14.672,6.9645 26.7657,16.9059 34.1309,27.252 7.1147,9.9941 10.7158,22.311 10.3574,31.4726 -0.3333,8.5207 -4.1518,19.6896 -11.1875,29.336 -7.258,9.9511 -18.483,19.5877 -32.2187,27.1074 -28.0799,15.3725 -66.6466,22.2909 -109.8555,23.5137 -91.1654,2.5797 -188.1279,-7.9937 -291.1113,-7.4746 l 0,0 -1211.3477,6.1055 c -175.37583,0.8838 -347.61609,-8.4216 -494.17382,-73.4317 -146.84268,-65.1365 -270.30624,-185.1592 -340.81836,-329.9238 -60.06509,-123.3163 -84.34733,-264.8861 -68.8086,-401.1699 15.53875,-136.2837 71.06662,-268.7548 157.34961,-375.3848 24.77033,-30.0248 20.29322,-74.4894 -9.96549,-98.9735 -30.25871,-24.484 -74.67881,-19.5848 -98.87434,10.9051 -103.3523,127.7246 -169.004424,284.3472 -187.617184,447.5918 -18.612755,163.2448 10.097212,330.6241 82.044924,478.336 85.19182,174.9026 231.72762,317.5517 409.91406,396.5918 178.47139,79.1663 371.45576,86.3632 551.6465,85.455 l 1211.3496,-6.1035 c 92.2822,-0.4651 190.3408,10.3655 294.3652,7.4219 54.3861,-1.5391 115.5645,-9.1444 173.125,-40.6563 29.0843,-15.9224 56.591,-37.9224 78.0996,-67.4121 21.731,-29.7944 36.3937,-66.1023 37.9688,-106.3613 1.7206,-43.981 -12.4686,-84.8046 -36.1973,-118.1367 -10.6044,-14.8964 -22.8632,-27.807 -36.1289,-39.0508 10.584,-9.4444 20.5545,-19.9528 29.5996,-31.6934 23.5397,-30.5539 39.9274,-68.0955 42.7617,-110.0546 2.2871,-33.8575 -4.6072,-66.5009 -18.0429,-95.6797 l 0,0 c -13.3711,-29.0377 -32.7348,-53.6586 -55.3731,-73.5508 -45.1666,-39.6878 -100.1682,-58.4824 -152.7441,-65.1465 -101.867,-12.9117 -186.8526,13.0061 -253.2988,9.418 -32.7127,-1.7665 -61.8855,-9.9357 -81.7422,-23.5683 l 0,0 c -9.822,-6.7439 -17.7422,-15.0289 -22.8086,-23.3047 -4.9649,-8.1101 -7.6251,-17.1967 -7.8613,-24.5215 -0.2392,-7.4185 1.8886,-16.8652 6.4805,-25.5352 4.6911,-8.8573 12.3216,-17.9436 22.0703,-25.6836 19.7331,-15.6672 49.3401,-26.5814 83.6328,-32.3125 57.588,-9.6242 128.463,-4.304 208.5137,-18.1562 40.1841,-6.9535 82.5484,-19.3686 122.2832,-43.3028 40.2106,-24.2208 76.4749,-59.8277 97.4629,-107.7792 25.0249,-57.1751 22.9241,-119.5719 2.0175,-173.9961 -20.6194,-53.6765 -57.8469,-96.4222 -101.2207,-127.2598 -85.8006,-61.002 -186.7294,-72.7498 -274.8828,-75.0547 -79.1787,-2.0702 -161.9075,3.2552 -243.2578,26.9238 -81.7836,23.7947 -159.5939,66.1752 -221.9727,128.2598 -31.0973,30.9507 -57.3034,65.8778 -78.5996,103.3613 -5.4788,-10.1278 -11.1998,-20.1566 -17.4628,-29.9433 -38.6834,-60.4474 -90.9333,-111.298 -151.8946,-148.6133 -60.8044,-37.2191 -128.4605,-60.1299 -197.1601,-70.3828 -105.4254,-15.734 -213.3797,-1.3975 -310.9297,38.9004 -32.8978,-14.8404 -67.1994,-26.713 -102.4883,-35.2773 -42.6881,-10.3601 -86.439,-15.7833 -130.22852,-16.2403 z m 230.18552,208.8535 c 34.416,21.5928 66.0872,47.6554 93.5742,77.3965 60.404,65.3576 102.063,149.3337 118.6289,237.377 16.0267,85.1772 7.0448,174.63 -32.1523,243.5527 -19.56,34.3937 -46.8068,64.1241 -78.4141,84.5703 -31.4303,20.3318 -68.5568,32.0333 -104.0918,32.3653 -35.4781,0.3314 -72.7419,-10.6411 -104.4628,-30.3301 -31.8965,-19.798 -59.6012,-48.948 -79.6622,-82.8828 -40.1904,-67.9857 -50.38503,-157.0859 -35.0742,-241.8965 20.8818,-115.669 87.7466,-224.5584 181.7754,-294.0508 12.7586,-9.4293 26.1117,-18.0949 39.8789,-26.1016 z"
       id="path4139-1-0-4-2-1-6-2-8"
       inkscape:connector-curvature="0"
       sodipodi:nodetypes="cssscscssscsssssssscsssscscccscscsssssssssssssccsssssssscscscscssssssccsssscscsssssssssscssccsssccssssssssssssscssscscccsssssssssc" />
  </g>
</svg>
