<?xml version="1.0" encoding="UTF-8" standalone="no"?>
<!-- Created with Inkscape (http://www.inkscape.org/) -->

<svg
   xmlns:dc="http://purl.org/dc/elements/1.1/"
   xmlns:cc="http://creativecommons.org/ns#"
   xmlns:rdf="http://www.w3.org/1999/02/22-rdf-syntax-ns#"
   xmlns:svg="http://www.w3.org/2000/svg"
   xmlns="http://www.w3.org/2000/svg"
   xmlns:sodipodi="http://sodipodi.sourceforge.net/DTD/sodipodi-0.dtd"
   xmlns:inkscape="http://www.inkscape.org/namespaces/inkscape"
   width="2000"
   height="2048"
   id="svg2992"
   version="1.1"
   inkscape:version="0.91 r13725"
   sodipodi:docname="ഥ്ര.svg">
  <defs
     id="defs5498">
    <inkscape:path-effect
       effect="spiro"
       id="path-effect4159"
       is_visible="true" />
    <inkscape:path-effect
       effect="spiro"
       id="path-effect4141-37-3-0-3-4"
       is_visible="true" />
    <inkscape:path-effect
       effect="spiro"
       id="path-effect4159-7"
       is_visible="true" />
    <inkscape:path-effect
       effect="spiro"
       id="path-effect4141-37-3-0-3-4-4"
       is_visible="true" />
    <inkscape:path-effect
       effect="spiro"
       id="path-effect4159-8"
       is_visible="true" />
    <inkscape:path-effect
       effect="spiro"
       id="path-effect4141-37-3-0-3-4-0"
       is_visible="true" />
    <inkscape:path-effect
       effect="spiro"
       id="path-effect4141-37-3-0-3-4-0-0"
       is_visible="true" />
    <inkscape:path-effect
       effect="spiro"
       id="path-effect4159-8-4"
       is_visible="true" />
  </defs>
  <sodipodi:namedview
     inkscape:window-height="704"
     inkscape:window-width="1366"
     inkscape:pageshadow="2"
     inkscape:pageopacity="0.0"
     borderopacity="1.0"
     bordercolor="#666666"
     pagecolor="#ffffff"
     id="base"
     showgrid="true"
     showguides="true"
     inkscape:guide-bbox="true"
     inkscape:zoom="0.16051324"
     inkscape:cx="-4736.4214"
     inkscape:cy="43.964868"
     inkscape:window-x="-4"
     inkscape:window-y="0"
     inkscape:current-layer="layer1"
     inkscape:window-maximized="1">
    <sodipodi:guide
       orientation="horizontal"
       position="0,600"
       id="guide5596" />
    <inkscape:grid
       type="xygrid"
       id="grid3769"
       empspacing="3"
       visible="true"
       enabled="true"
       snapvisiblegridlinesonly="true"
       spacingx="4px"
       units="px"
       dotted="true"
       spacingy="4px" />
    <sodipodi:guide
       orientation="0,1"
       position="-1040,1600"
       id="guide2985" />
  </sodipodi:namedview>
  <metadata
     id="metadata5594">
    <rdf:RDF>
      <cc:Work
         rdf:about="">
        <dc:format>image/svg+xml</dc:format>
        <dc:type
           rdf:resource="http://purl.org/dc/dcmitype/StillImage" />
        <dc:title />
      </cc:Work>
    </rdf:RDF>
  </metadata>
  <g
     inkscape:label="Layer 1"
     inkscape:groupmode="layer"
     id="layer1"
     transform="translate(0,1048)">
    <path
       style="fill:none;fill-rule:evenodd;stroke:#000000;stroke-width:140;stroke-linecap:round;stroke-linejoin:round;stroke-miterlimit:4;stroke-dasharray:none;stroke-opacity:1"
       d="m 1440.3353,165.30996 1.9649,118.56524 c 1.1072,66.81098 1.2702,134.37072 -14.1194,199.3945 -15.3896,65.02379 -46.7183,126.76319 -93.4575,174.51643 -46.7393,47.75324 -107.7368,80.40291 -172.3139,97.57082 -64.577,17.16792 -132.0649,19.27813 -198.8735,20.51825 L 650.81,781.68012 c -87.06163,1.61607 -174.44463,2.546 -260.86494,-8.12493 C 303.52475,762.88426 218.23856,740.63218 139.30638,703.86194 -18.557974,630.32147 -145.86056,497.5822 -222.44044,341.16967 c -69.16881,-141.2756 -99.95222,-301.117373 -88.20034,-457.97722 11.75187,-156.85985 66.00851,-310.33046 155.45563,-439.72262"
       id="path4157"
       inkscape:path-effect="#path-effect4159"
       inkscape:original-d="m 1440.3353,165.30996 1.9649,118.56524 c 3.3744,203.61879 99.1326,481.27289 -478.7643,492 L 650.81,781.68012 c -185.96388,3.45192 -712.841035,-156.68045 -873.25044,-440.51045 -147.64122,-261.237846 67.25529,-897.69984 67.25529,-897.69984"
       inkscape:connector-curvature="0"
       sodipodi:nodetypes="csssac" />
    <path
       style="fill:none;fill-rule:evenodd;stroke:#000000;stroke-width:140;stroke-linecap:round;stroke-linejoin:round;stroke-miterlimit:4;stroke-dasharray:none;stroke-opacity:1"
       d="m 181.09531,-534.78497 5.242,870.47687 1252.53169,0.9091 1.188,-379.677093 c 0.1786,-57.081177 -0.2563,-114.518047 -10.7052,-170.634997 -10.449,-56.11696 -30.97,-110.68828 -63.1375,-157.84274 -32.1675,-47.15446 -75.6903,-86.46952 -125.7857,-113.83258 -50.0955,-27.36305 -106.3946,-42.82452 -163.3284,-46.9273 -64.2173,-4.62764 -129.69008,5.21492 -188.84956,30.62025 -59.15948,25.40533 -111.50273,66.45511 -150.26791,117.86071 -38.76519,51.4056 -63.56861,112.58708 -76.00729,175.75791 -12.43867,63.17084 -12.63271,128.02809 -12.08214,192.409547 l 2.7198,318.042593"
       id="path4139-9-6-5-4-9"
       inkscape:path-effect="#path-effect4141-37-3-0-3-4"
       inkscape:original-d="m 181.09531,-534.78497 5.242,870.47687 1252.53169,0.9091 1.188,-379.677093 c 2.3482,-750.459697 -159.9696,-483.894487 -362.9568,-489.237617 -223.38803,-5.88014 -428.74276,337.05132 -427.2069,516.648417 l 2.7198,318.042593"
       inkscape:connector-curvature="0"
       sodipodi:nodetypes="cccsasc" />
    <path
       style="color:#000000;font-style:normal;font-variant:normal;font-weight:normal;font-stretch:normal;font-size:medium;line-height:normal;font-family:sans-serif;text-indent:0;text-align:start;text-decoration:none;text-decoration-line:none;text-decoration-style:solid;text-decoration-color:#000000;letter-spacing:normal;word-spacing:normal;text-transform:none;direction:ltr;block-progression:tb;writing-mode:lr-tb;baseline-shift:baseline;text-anchor:start;white-space:normal;clip-rule:nonzero;display:inline;overflow:visible;visibility:visible;opacity:1;isolation:auto;mix-blend-mode:normal;color-interpolation:sRGB;color-interpolation-filters:linearRGB;solid-color:#000000;solid-opacity:1;fill:#000000;fill-opacity:1;fill-rule:evenodd;stroke:none;stroke-width:140;stroke-linecap:round;stroke-linejoin:round;stroke-miterlimit:4;stroke-dasharray:none;stroke-dashoffset:0;stroke-opacity:1;color-rendering:auto;image-rendering:auto;shape-rendering:auto;text-rendering:auto;enable-background:accumulate"
       d="M -539.33594 2484.6523 A 70.007 70.007 0 0 0 -596.76562 2515.6641 C -693.40606 2655.4619 -751.74836 2820.4885 -764.44531 2989.9629 C -777.14226 3159.4374 -744.0419 3331.3143 -669.31055 3483.9512 C -586.13621 3653.8327 -448.28553 3798.2417 -274.25195 3879.3145 C -187.62308 3919.6701 -95.24045 3943.5923 -2.6328125 3955.0273 C 89.974052 3966.4621 180.67693 3965.291 268.10938 3963.668 L 580.83594 3957.8633 C 648.24325 3956.6121 721.49072 3954.9211 796.39453 3935.0078 C 871.69082 3914.9901 943.8701 3876.862 1000.748 3818.75 C 1057.6466 3760.6172 1094.2927 3687.4717 1112.2988 3611.3926 C 1130.2167 3535.6862 1129.4093 3462.1937 1128.291 3394.7148 L 1126.3262 3276.1504 A 70.007 70.007 0 0 0 1125.4414 3265.7812 L 1126.0566 3069.1426 C 1126.2368 3011.5589 1126.1286 2949.6983 1114.1699 2885.4746 C 1102.1967 2821.1719 1078.5668 2757.4731 1040.041 2700.998 C 1001.5164 2644.5246 949.86631 2597.8903 889.98438 2565.1816 C 830.26099 2532.5596 764.34008 2514.6384 698.13086 2509.8672 C 623.4143 2504.483 546.97139 2515.7786 476.62891 2545.9863 C 406.10432 2576.2723 344.31118 2624.7336 298.09375 2686.0215 C 251.89496 2747.2845 223.48625 2818.3304 209.29492 2890.4023 C 195.12828 2962.3487 195.34127 3032.0095 195.89648 3096.9336 L 198.29883 3377.9785 L -128.08203 3377.7422 L -132.90625 2576.793 A 70.007 70.007 0 0 0 -204.38672 2506.2344 A 70.007 70.007 0 0 0 -272.9043 2577.6367 L -267.66211 3448.1133 A 70.007 70.007 0 0 0 -197.71289 3517.6914 L 985.56641 3518.5508 C 983.63779 3539.5866 980.63469 3559.8301 976.0625 3579.1484 C 963.28943 3633.1169 937.27733 3683.4487 900.69727 3720.8223 C 864.09671 3758.2169 814.28166 3785.3888 760.42383 3799.707 C 706.17354 3814.1295 644.44632 3816.6577 578.23633 3817.8867 L 265.51172 3823.6914 C 178.82092 3825.3006 94.757185 3825.989 14.523438 3816.082 C -65.709537 3806.175 -143.89928 3785.5929 -215.13477 3752.4082 C -356.82989 3686.4002 -473.58487 3565.3322 -543.57031 3422.3887 C -607.17662 3292.4744 -635.64273 3144.6672 -624.83594 3000.4219 C -614.02915 2856.1767 -563.85737 2714.262 -481.60352 2595.2754 A 70.007 70.007 0 0 0 -539.33594 2484.6523 z M 663.49023 2648.5898 C 664.96098 2648.5936 666.43125 2648.6069 667.90234 2648.6289 C 674.62733 2648.7297 681.35361 2649.022 688.06836 2649.5059 C 735.72678 2652.9403 782.40548 2665.9427 822.87305 2688.0469 C 863.18204 2710.0644 898.57824 2742.0589 924.38867 2779.8945 C 950.19788 2817.7283 967.61035 2863.1724 976.53516 2911.1035 C 985.47459 2959.1138 986.23367 3012.1263 986.05664 3068.7051 L 985.08789 3378.5508 L 338.30664 3378.0801 L 335.89062 3095.7363 C 335.3447 3031.8974 335.94552 2971.8444 346.65625 2917.4492 C 357.34226 2863.1794 378.54148 2811.8624 409.87305 2770.3145 C 441.18562 2728.7916 484.07736 2695.1518 531.87109 2674.627 C 572.53866 2657.1627 617.89699 2648.4741 663.49023 2648.5898 z "
       transform="translate(0,-1048)"
       id="path4157-1" />
    <path
       style="fill:none;fill-rule:evenodd;stroke:#000000;stroke-width:70;stroke-linecap:round;stroke-linejoin:round;stroke-miterlimit:4;stroke-dasharray:none;stroke-opacity:1"
       d="m -4513.3093,192.67127 2.1274,128.49209 c 1.164,70.30478 1.0076,141.54606 -16.9486,209.52909 -17.9562,67.98303 -53.9261,131.58217 -105.5518,179.32 -51.6258,47.73783 -117.4309,78.67416 -186.022,94.14594 -68.5911,15.47178 -139.5385,16.13715 -209.8529,16.19756 l -338.5995,0.29091 c -184.1824,0.15824 -372.8475,-8.65324 -542.4535,-80.46534 -169.606,-71.8121 -313.3056,-202.08577 -403.0461,-362.92673 -83.3993,-149.47571 -121.786,-323.691828 -108.9308,-494.37624 12.8552,-170.68441 76.9034,-337.18556 181.7506,-472.48334"
       id="path4157-2"
       inkscape:path-effect="#path-effect4159-8"
       inkscape:original-d="m -4513.3093,192.67127 2.1274,128.49209 c 3.6536,220.66673 107.4423,498.65491 -518.3753,499.19259 l -338.5995,0.29091 c -201.3845,0.17302 -769.9555,-142.79552 -945.4996,-443.39207 -162.9866,-279.093488 72.8198,-966.85958 72.8198,-966.85958"
       inkscape:connector-curvature="0"
       sodipodi:nodetypes="csssac" />
    <path
       style="fill:none;fill-rule:evenodd;stroke:#000000;stroke-width:70;stroke-linecap:round;stroke-linejoin:round;stroke-miterlimit:4;stroke-dasharray:none;stroke-opacity:1"
       d="m -5876.7337,-566.03897 5.6757,943.35737 1356.1611,0.98521 1.2863,-411.465486 c 0.1933,-61.836551 -0.2761,-124.057404 -11.5795,-184.852374 -11.3034,-60.79497 -33.5039,-119.92141 -68.3183,-171.02675 -34.8143,-51.10535 -81.9293,-93.73273 -136.1784,-123.41148 -54.2492,-29.67875 -115.2334,-46.46168 -176.9102,-50.90833 -69.5637,-5.01527 -140.4877,5.68409 -204.5541,33.24778 -64.0664,27.5637 -120.7314,72.07744 -162.6865,127.79121 -41.9552,55.71377 -68.7882,122.00027 -82.2437,190.43425 -13.4555,68.43398 -13.6639,138.689755 -13.068,208.431458 l 2.9449,344.670652"
       id="path4139-9-6-5-4-9-0"
       inkscape:path-effect="#path-effect4141-37-3-0-3-4-0"
       inkscape:original-d="m -5876.7337,-566.03897 5.6757,943.35737 1356.1611,0.98521 1.2863,-411.465486 c 2.5424,-813.291804 -173.2049,-524.408444 -392.9864,-530.198934 -241.8702,-6.37245 -464.2152,365.27088 -462.5523,559.904698 l 2.9449,344.670652"
       inkscape:connector-curvature="0"
       sodipodi:nodetypes="cccsasc" />
    <path
       style="color:#000000;font-style:normal;font-variant:normal;font-weight:normal;font-stretch:normal;font-size:medium;line-height:normal;font-family:sans-serif;text-indent:0;text-align:start;text-decoration:none;text-decoration-line:none;text-decoration-style:solid;text-decoration-color:#000000;letter-spacing:normal;word-spacing:normal;text-transform:none;direction:ltr;block-progression:tb;writing-mode:lr-tb;baseline-shift:baseline;text-anchor:start;white-space:normal;clip-rule:nonzero;display:inline;overflow:visible;visibility:visible;opacity:1;isolation:auto;mix-blend-mode:normal;color-interpolation:sRGB;color-interpolation-filters:linearRGB;solid-color:#000000;solid-opacity:1;fill:#000000;fill-opacity:1;fill-rule:evenodd;stroke:none;stroke-width:70;stroke-linecap:round;stroke-linejoin:round;stroke-miterlimit:4;stroke-dasharray:none;stroke-dashoffset:0;stroke-opacity:1;color-rendering:auto;image-rendering:auto;shape-rendering:auto;text-rendering:auto;enable-background:accumulate"
       d="M -3938.9551 525.26562 A 35.0035 35.0035 0 0 0 -3968.4707 539.18555 C -4077.6067 680.0177 -4144.0759 852.8142 -4157.457 1030.4805 C -4170.8381 1208.1467 -4131.0002 1388.9471 -4044.1895 1544.5371 C -3950.621 1712.2388 -3801.2893 1847.6705 -3624.2246 1922.6406 C -3446.9837 1997.6854 -3253.4149 2006.0362 -3068.0957 2005.877 L -2729.4961 2005.5859 C -2658.9811 2005.5253 -2585.4071 2005.0955 -2511.9727 1988.5312 C -2438.2998 1971.9132 -2366.8655 1938.6253 -2309.8887 1885.9395 C -2252.8359 1833.1833 -2213.7868 1763.7914 -2194.2598 1689.8613 C -2174.7747 1616.0898 -2174.985 1541.5624 -2176.1562 1470.8145 L -2178.2832 1342.3223 A 35.0035 35.0035 0 0 0 -2179.2578 1334.3516 L -2178.5801 1117.1777 C -2178.386 1055.0907 -2178.692 990.6615 -2190.748 925.81836 C -2202.8114 860.93575 -2226.5623 797.24901 -2264.5508 741.48438 C -2302.5388 685.72023 -2353.7144 639.42842 -2412.8574 607.07227 C -2471.9218 574.7592 -2537.7224 556.74085 -2604.0488 551.95898 C -2678.8754 546.56428 -2755.293 557.99649 -2824.9531 587.9668 C -2894.7035 617.97594 -2956.0897 666.19872 -3001.7656 726.85352 C -3047.432 787.49547 -3076.0631 858.71092 -3090.3926 931.58984 C -3104.7097 1004.4061 -3104.7154 1077.06 -3104.1172 1147.0723 L -3101.1719 1491.7441 A 35.0035 35.0035 0 0 0 -3101.1211 1492.8906 L -3536.2363 1492.5742 L -3541.7031 583.98047 A 35.0035 35.0035 0 0 0 -3577.4434 548.70117 A 35.0035 35.0035 0 0 0 -3611.7012 584.40234 L -3606.0254 1527.7598 A 35.0035 35.0035 0 0 0 -3571.0527 1562.5488 L -2246.8457 1563.5098 C -2248.5894 1601.0075 -2252.8017 1637.3883 -2261.9395 1671.9844 C -2278.3249 1734.0203 -2311.2154 1791.8254 -2357.4141 1834.5449 C -2403.6889 1877.3347 -2463.8657 1905.9206 -2527.375 1920.2461 C -2591.1228 1934.6254 -2659.4428 1935.5257 -2729.5566 1935.5859 L -3068.1562 1935.877 C -3251.2018 1936.0342 -3434.9625 1926.7611 -3596.9336 1858.1816 C -3759.0809 1789.5276 -3897.148 1664.4119 -3983.0605 1510.4316 C -4063.0484 1367.0703 -4099.9837 1199.4389 -4087.6543 1035.7363 C -4075.3248 872.0338 -4013.699 711.82784 -3913.1406 582.06445 A 35.0035 35.0035 0 0 0 -3938.9551 525.26562 z M -2638.5234 620.67969 C -2636.7609 620.68441 -2634.9969 620.69988 -2633.2344 620.72656 L -2633.2324 620.72656 C -2625.1753 620.84853 -2617.1196 621.19982 -2609.082 621.7793 C -2552.0548 625.89073 -2495.8891 641.43799 -2446.4551 668.48242 C -2397.0999 695.48377 -2354.0449 734.44797 -2322.4043 780.89453 C -2290.764 827.3406 -2270.1157 881.90595 -2259.5723 938.61328 C -2249.0216 995.36009 -2248.3895 1055.3729 -2248.582 1116.959 L -2249.7578 1493.5078 L -3031.1992 1492.9414 A 35.0035 35.0035 0 0 0 -3031.1758 1491.1465 L -3034.1211 1146.4746 C -3034.7147 1077.0034 -3034.3029 1009.1474 -3021.709 945.0957 C -3009.1275 881.10666 -2984.0936 819.74847 -2945.8496 768.96289 C -2907.6153 718.19014 -2855.6716 677.38583 -2797.2891 652.26758 C -2747.7243 630.94303 -2693.1613 620.53326 -2638.5234 620.67969 z "
       transform="translate(0,-1048)"
       id="path4157-2-7" />
  </g>
</svg>
