<?xml version="1.0" encoding="UTF-8" standalone="no"?>
<!-- Created with Inkscape (http://www.inkscape.org/) -->

<svg
   xmlns:dc="http://purl.org/dc/elements/1.1/"
   xmlns:cc="http://creativecommons.org/ns#"
   xmlns:rdf="http://www.w3.org/1999/02/22-rdf-syntax-ns#"
   xmlns:svg="http://www.w3.org/2000/svg"
   xmlns="http://www.w3.org/2000/svg"
   xmlns:sodipodi="http://sodipodi.sourceforge.net/DTD/sodipodi-0.dtd"
   xmlns:inkscape="http://www.inkscape.org/namespaces/inkscape"
   width="2000"
   height="2048"
   id="svg2992"
   version="1.1"
   inkscape:version="0.91pre2 r13516"
   sodipodi:docname="ദ.svg">
  <defs
     id="defs5498">
    <inkscape:path-effect
       effect="spiro"
       id="path-effect4140"
       is_visible="true" />
    <inkscape:path-effect
       effect="spiro"
       id="path-effect4140-6"
       is_visible="true" />
    <inkscape:path-effect
       effect="spiro"
       id="path-effect4140-6-7"
       is_visible="true" />
  </defs>
  <sodipodi:namedview
     inkscape:window-height="853"
     inkscape:window-width="1600"
     inkscape:pageshadow="2"
     inkscape:pageopacity="0.0"
     borderopacity="1.0"
     bordercolor="#666666"
     pagecolor="#ffffff"
     id="base"
     showgrid="true"
     showguides="true"
     inkscape:guide-bbox="true"
     inkscape:zoom="0.32102648"
     inkscape:cx="465.30854"
     inkscape:cy="1001.8884"
     inkscape:window-x="1598"
     inkscape:window-y="-3"
     inkscape:current-layer="layer1"
     inkscape:window-maximized="1">
    <sodipodi:guide
       orientation="horizontal"
       position="0,600"
       id="guide5596" />
    <inkscape:grid
       type="xygrid"
       id="grid3769"
       empspacing="3"
       visible="true"
       enabled="true"
       snapvisiblegridlinesonly="true"
       spacingx="4px"
       units="px"
       dotted="true"
       spacingy="4px" />
    <sodipodi:guide
       orientation="0,1"
       position="-1040,1600"
       id="guide2985" />
  </sodipodi:namedview>
  <metadata
     id="metadata5594">
    <rdf:RDF>
      <cc:Work
         rdf:about="">
        <dc:format>image/svg+xml</dc:format>
        <dc:type
           rdf:resource="http://purl.org/dc/dcmitype/StillImage" />
        <dc:title />
      </cc:Work>
    </rdf:RDF>
  </metadata>
  <g
     inkscape:label="Layer 1"
     inkscape:groupmode="layer"
     id="layer1"
     transform="translate(0,1048)">
    <path
       style="color:#000000;font-style:normal;font-variant:normal;font-weight:normal;font-stretch:normal;font-size:medium;line-height:normal;font-family:sans-serif;text-indent:0;text-align:start;text-decoration:none;text-decoration-line:none;text-decoration-style:solid;text-decoration-color:#000000;letter-spacing:normal;word-spacing:normal;text-transform:none;direction:ltr;block-progression:tb;writing-mode:lr-tb;baseline-shift:baseline;text-anchor:start;clip-rule:nonzero;display:inline;overflow:visible;visibility:visible;opacity:1;isolation:auto;mix-blend-mode:normal;color-interpolation:sRGB;color-interpolation-filters:linearRGB;solid-color:#000000;solid-opacity:1;fill:#000000;fill-opacity:1;fill-rule:evenodd;stroke:none;stroke-width:140;stroke-linecap:round;stroke-linejoin:round;stroke-miterlimit:4;stroke-dasharray:none;stroke-dashoffset:0;stroke-opacity:1;color-rendering:auto;image-rendering:auto;shape-rendering:auto;text-rendering:auto;enable-background:accumulate"
       d="m 729.88281,-608.19141 c -147.33113,1.62069 -298.571,38.07825 -425.45898,123.4375 C 176.60584,-398.76903 78.723657,-263.17469 55.644531,-105.52148 39.340191,5.8532716 61.861512,120.9028 118.95898,217.9082 176.05645,314.91359 265.71311,390.44901 371.00195,430.25391 A 70.007,70.007 0 1 0 420.50977,299.29883 C 345.86773,271.08009 280.08924,215.66227 239.61133,146.89258 199.13342,78.122883 182.60939,-6.2856709 194.16797,-85.242188 210.5496,-197.14492 284.34259,-302.51532 382.56641,-368.5918 c 99.15382,-66.70211 223.7741,-98.23149 348.85547,-99.60742 58.81544,-0.64699 113.59753,6.10603 156.62304,26.80664 21.34662,10.27038 39.95974,24.06031 53.56641,39.92774 13.44219,15.67564 22.55114,34.39531 25.63086,52.04101 5.10297,29.23794 -5.14178,67.09978 -26.80469,100.67578 -38.3958,59.51091 -107.46633,102.29715 -177.84961,110.16993 A 70.007,70.007 0 0 0 764.67578,0.75585938 C 817.30321,5.0507158 869.39008,20.277068 916.04492,45.003906 c 25.39152,13.457379 47.49771,28.967854 64.28711,46.466797 16.57007,17.270337 28.31207,37.271477 33.16407,56.216797 5.1813,20.23093 3.576,44.30458 -4.584,65.5 -8.249,21.42683 -23.64334,41.86911 -43.12304,57.24219 -27.49338,21.69733 -64.54107,33.89543 -99.54687,32.77539 -35.00582,-1.12004 -71.19987,-15.66177 -97.25,-39.07227 a 70.007,70.007 0 1 0 -93.57813,104.13086 c 51.29503,46.09736 117.42007,72.66368 186.34961,74.86914 68.92956,2.20546 136.61893,-20.0807 190.75583,-62.80469 38.0819,-30.05365 68.9488,-69.83523 87.045,-116.83984 18.1852,-47.23602 22.5659,-99.72917 9.5546,-150.5332 -12.0137,-46.909098 -37.2714,-86.627298 -67.7656,-118.4101581 -30.2748,-31.5542569 -65.0743,-54.8652699 -99.74803,-73.2421879 -1.99986,-1.059916 -4.06158,-1.98967 -6.07422,-3.023437 31.96255,-25.569857 60.01475,-56.203747 82.54685,-91.126957 35.7332,-55.38397 60.1795,-125.59224 47.0801,-200.64648 -7.9507,-45.55452 -28.9512,-86.07969 -57.2715,-119.10547 -28.1559,-32.83401 -62.67877,-57.40661 -99.14451,-74.95117 -72.59923,-34.92925 -149.37141,-41.40502 -218.85938,-40.64063 z"
       id="path4138-1"
       inkscape:connector-curvature="0" />
    <path
       style="fill:none;fill-rule:evenodd;stroke:#000000;stroke-width:140;stroke-linecap:round;stroke-linejoin:round;stroke-miterlimit:4;stroke-dasharray:none;stroke-opacity:1"
       d="m -1003.3041,357.27124 c -89.9654,-34.01182 -167.6825,-99.4884 -216.4702,-182.37595 -48.7877,-82.887547 -68.3111,-182.6170336 -54.3796,-277.78267 19.7304,-134.77796 105.5689,-255.25943 218.5898,-331.2901 113.02092,-76.03068 250.95049,-110.0241 387.15674,-111.52243 64.15172,-0.7057 129.92987,5.90769 187.74224,33.72263 28.90619,13.90746 55.47404,33.08905 76.35532,57.43977 20.88127,24.35072 35.9355,53.97364 41.45074,85.57376 9.10117,52.14609 -8.24447,106.18087 -36.9425,150.66086 -50.28688,77.94123 -136.70786,131.475089 -228.8886,141.786062 62.19517,5.075669 123.31833,22.942881 178.4551,52.165093 30.03264,15.9171466 58.48649,35.327453 82.01861,59.854051 23.53212,24.526599 42.03128,54.386927 50.46419,87.314134 9.0963,35.51748 6.10332,73.80084 -7.06931,108.01656 -13.17263,34.21572 -36.30215,64.32784 -65.08299,87.04121 -40.81516,32.21065 -93.18424,49.4527 -145.15191,47.78995 -51.96767,-1.66274 -103.12741,-22.21727 -141.79999,-56.9712"
       id="path4138-1-7"
       inkscape:path-effect="#path-effect4140-6-7"
       inkscape:original-d="m -1003.3041,357.27124 c 34.96986,-10.58116 -309.6352,-229.78396 -270.8498,-460.15862 34.9995,-207.88735 355.98963,-429.45787 605.74654,-442.81253 117.4924,-6.2824 242.8247,24.54505 305.5483,176.73616 17.0965,41.48255 -6.8032,98.35437 -36.9425,150.66086 -55.7395,96.73584 -228.8886,141.786062 -228.8886,141.786062 0,0 125.9842,19.185983 178.4551,52.165093 55.8837,35.12407 120.0612,82.34235 132.4828,147.168185 13.0463,68.08625 -14.6347,156.35807 -72.1523,195.05777 -79.4002,53.42301 -260.8258,-9.18125 -286.9519,-9.18125"
       inkscape:connector-curvature="0"
       sodipodi:nodetypes="csasscaaac" />
  </g>
</svg>
