<?xml version="1.0" encoding="UTF-8" standalone="no"?>
<!-- Created with Inkscape (http://www.inkscape.org/) -->

<svg
   xmlns:dc="http://purl.org/dc/elements/1.1/"
   xmlns:cc="http://creativecommons.org/ns#"
   xmlns:rdf="http://www.w3.org/1999/02/22-rdf-syntax-ns#"
   xmlns:svg="http://www.w3.org/2000/svg"
   xmlns="http://www.w3.org/2000/svg"
   xmlns:sodipodi="http://sodipodi.sourceforge.net/DTD/sodipodi-0.dtd"
   xmlns:inkscape="http://www.inkscape.org/namespaces/inkscape"
   width="2000"
   height="2048"
   id="svg2992"
   version="1.1"
   inkscape:version="0.91pre3 r13670"
   sodipodi:docname="ദ.svg">
  <defs
     id="defs5498">
    <inkscape:path-effect
       effect="spiro"
       id="path-effect4140"
       is_visible="true" />
    <inkscape:path-effect
       effect="spiro"
       id="path-effect4140-6"
       is_visible="true" />
    <inkscape:path-effect
       effect="spiro"
       id="path-effect4140-6-7"
       is_visible="true" />
    <inkscape:path-effect
       effect="spiro"
       id="path-effect4140-6-7-4"
       is_visible="true" />
    <inkscape:path-effect
       effect="spiro"
       id="path-effect4140-6-7-6"
       is_visible="true" />
    <inkscape:path-effect
       effect="spiro"
       id="path-effect4140-6-7-2"
       is_visible="true" />
    <inkscape:path-effect
       effect="spiro"
       id="path-effect4140-6-7-2-2"
       is_visible="true" />
  </defs>
  <sodipodi:namedview
     inkscape:window-height="851"
     inkscape:window-width="1600"
     inkscape:pageshadow="2"
     inkscape:pageopacity="0.0"
     borderopacity="1.0"
     bordercolor="#666666"
     pagecolor="#ffffff"
     id="base"
     showgrid="true"
     showguides="true"
     inkscape:guide-bbox="true"
     inkscape:zoom="0.32102648"
     inkscape:cx="450.91392"
     inkscape:cy="-250.34475"
     inkscape:window-x="1599"
     inkscape:window-y="-1"
     inkscape:current-layer="layer1"
     inkscape:window-maximized="1">
    <sodipodi:guide
       orientation="horizontal"
       position="0,600"
       id="guide5596" />
    <inkscape:grid
       type="xygrid"
       id="grid3769"
       empspacing="3"
       visible="true"
       enabled="true"
       snapvisiblegridlinesonly="true"
       spacingx="4px"
       units="px"
       dotted="true"
       spacingy="4px" />
    <sodipodi:guide
       orientation="0,1"
       position="-1040,1600"
       id="guide2985" />
  </sodipodi:namedview>
  <metadata
     id="metadata5594">
    <rdf:RDF>
      <cc:Work
         rdf:about="">
        <dc:format>image/svg+xml</dc:format>
        <dc:type
           rdf:resource="http://purl.org/dc/dcmitype/StillImage" />
        <dc:title />
      </cc:Work>
    </rdf:RDF>
  </metadata>
  <g
     inkscape:label="Layer 1"
     inkscape:groupmode="layer"
     id="layer1"
     transform="translate(0,1048)">
    <path
       style="fill:none;fill-rule:evenodd;stroke:#000000;stroke-width:140;stroke-linecap:round;stroke-linejoin:round;stroke-miterlimit:4;stroke-dasharray:none;stroke-opacity:1"
       d="M 351.72431,337.43112 C 277.23489,276.16445 221.78167,192.07342 194.80552,99.474463 167.82937,6.8755094 169.4441,-93.840696 199.37481,-185.52729 c 31.10963,-95.29798 92.54269,-180.19598 172.35879,-240.84995 79.8161,-60.65397 177.57063,-97.01328 277.50735,-104.89771 74.69371,-5.8929 152.08211,4.37931 218.13985,39.73821 33.02887,17.67945 62.9035,41.51976 86.37492,70.71842 23.47143,29.19865 40.43554,63.80444 47.75868,100.54462 13.1837,66.14267 -6.77813,138.05165 -52.1702,187.93375 -45.39206,49.882106 -115.10498,76.518254 -182.19438,69.613442 l -27.50162,4.474766 33.11008,0.554983 c 30.06362,0.503919 60.26302,1.242057 89.86049,6.539706 29.59748,5.297648 58.5537,15.191431 84.15373,30.962102 25.60002,15.7706713 47.67226,37.367173 63.4228,62.979563 15.7506,25.612391 25.1235,55.107706 27.0808,85.111778 2.8215,43.2519 -9.9009,87.13269 -34.2431,122.99555 -24.34223,35.86286 -60.0007,63.66963 -100.19172,79.8983 -69.50462,28.06517 -152.48523,20.04074 -215.32431,-20.82238"
       id="path4138-1-7"
       inkscape:path-effect="#path-effect4140-6-7"
       inkscape:original-d="m 351.72431,337.43112 c 0,0 -208.7784,-350.383807 -152.3495,-522.95841 58.7787,-179.76114 261.05508,-334.82125 449.86614,-345.74766 136.64849,-7.90778 332.30418,75.58864 352.27345,211.00125 16.9342,114.83148 -134.58344,234.055502 -234.36458,257.547192 l -27.50162,4.474766 33.11008,0.554983 c 65.99592,1.106207 244.50342,79.758218 264.51782,185.593149 15.0753,79.71704 -61.19245,167.99935 -134.43482,202.89385 -65.09897,31.01478 -215.32431,-20.82238 -215.32431,-20.82238"
       inkscape:connector-curvature="0"
       sodipodi:nodetypes="caaascsaac" />
    <path
       style="color:#000000;font-style:normal;font-variant:normal;font-weight:normal;font-stretch:normal;font-size:medium;line-height:normal;font-family:sans-serif;text-indent:0;text-align:start;text-decoration:none;text-decoration-line:none;text-decoration-style:solid;text-decoration-color:#000000;letter-spacing:normal;word-spacing:normal;text-transform:none;direction:ltr;block-progression:tb;writing-mode:lr-tb;baseline-shift:baseline;text-anchor:start;white-space:normal;clip-rule:nonzero;display:inline;overflow:visible;visibility:visible;opacity:1;isolation:auto;mix-blend-mode:normal;color-interpolation:sRGB;color-interpolation-filters:linearRGB;solid-color:#000000;solid-opacity:1;fill:#000000;fill-opacity:1;fill-rule:evenodd;stroke:none;stroke-width:140;stroke-linecap:round;stroke-linejoin:round;stroke-miterlimit:4;stroke-dasharray:none;stroke-dashoffset:0;stroke-opacity:1;color-rendering:auto;image-rendering:auto;shape-rendering:auto;text-rendering:auto;enable-background:accumulate"
       d="m 729.70508,541.67773 c -18.1451,0.11794 -36.09444,1.21263 -53.66016,3.18165 -225.25142,19.41147 -430.11125,173.82348 -499.69922,392.72851 -72.15559,213.37081 -0.65072,458.34981 175.04297,599.35161 30.10696,24.8725 74.74303,20.3031 99.18602,-10.1535 24.44298,-30.4567 19.24116,-75.0235 -11.55907,-99.0321 -127.2591,-102.1309 -182.38214,-291.3457 -129.88476,-445.84374 0.1586,-0.46711 0.31225,-0.93589 0.46094,-1.40625 50.77522,-160.48166 211.12869,-282.2175 379.58984,-296.28321 0.68454,-0.057 1.36821,-0.12406 2.05078,-0.20117 101.86929,-11.53332 213.35003,21.60566 263.18164,100.36719 0.46803,0.73944 0.94989,1.47003 1.44532,2.1914 41.66847,60.69544 20.25406,164.58948 -42.56641,202.3418 -1.00253,0.60212 -1.98982,1.22927 -2.96094,1.88086 -25.74681,17.28562 -63.41085,24.21422 -105.85156,22.80472 -3.54023,-0.1174 -7.08426,0.034 -10.60156,0.4531 -9.3575,1.1145 -7.80595,-1.2631 -27.48633,5.1055 -2.46005,0.796 -5.52062,1.731 -11.11524,4.6308 -5.59461,2.8998 -15.81282,5.1178 -28.62695,27.3301 -6.40706,11.1061 -11.46483,30.1121 -8.22656,47.7168 3.23827,17.6046 12.53486,30.1163 19.61914,37.1348 14.16857,14.0369 21.63084,14.8207 26.57422,16.5351 19.77349,6.8575 17.94231,3.8722 21.14453,4.086 12.80888,0.8549 22.47238,0.4719 29.02734,0.6074 1.26041,0.026 2.52129,0.017 3.78125,-0.025 74.50485,-2.4859 145.71524,17.0558 174.9043,66.2441 0.47872,0.8068 0.97361,1.6038 1.48437,2.3907 34.97722,53.8821 5.26762,143.1025 -52.38086,173.8339 -0.88412,0.4714 -1.75802,0.9618 -2.62109,1.4707 -49.60492,29.2449 -121.87591,26.9476 -170.75976,-4.8906 -32.419,-21.8231 -76.42758,-12.8786 -97.75556,19.8682 -21.32798,32.7468 -11.71589,76.6144 21.35126,97.4424 94.89185,61.8034 218.82509,66.4485 317.63083,8.5234 129.2965,-70.3772 186.2065,-241.7692 102.377,-371.7988 -20.7644,-34.3741 -73.4243,-60.5021 -103.3399,-80.0957 C 1152,1000 1149.2691,821.69953 1071.7188,708.02188 994.73632,587.78537 857.51893,540.84699 729.70508,541.67773 Z m 66.16797,474.45507 c 0.72577,0.01 2.049,0.2261 4.36523,0.8496 -1.02764,-0.01 -5.52149,-0.099 -5.15234,-0.074 0.20238,0.014 -0.65758,-0.7883 0.78711,-0.7754 z"
       id="path4138-1-7-7"
       inkscape:connector-curvature="0"
       sodipodi:nodetypes="scccsccccccccccccsssssccccccccscccccsccccc" />
    <path
       style="fill:none;fill-rule:evenodd;stroke:#000000;stroke-width:120;stroke-linecap:round;stroke-linejoin:round;stroke-miterlimit:4;stroke-dasharray:none;stroke-opacity:1"
       d="m 1487.7242,1047.0005 c -51.9474,-42.7262 -90.6194,-101.36958 -109.432,-165.94626 -18.8127,-64.57667 -17.6866,-134.81416 3.1865,-198.75457 21.6952,-66.45891 64.5374,-125.66508 120.1996,-167.96395 55.6622,-42.29887 123.8342,-67.65512 193.5281,-73.15357 52.0899,-4.10959 106.059,3.05404 152.1264,27.71263 23.0337,12.3293 43.8676,28.95505 60.2361,49.31761 16.3685,20.36256 28.199,44.49595 33.306,70.11782 9.1941,46.1266 -4.7269,96.27451 -36.3825,131.0613 -31.6555,34.78679 -80.272,53.36229 -127.0588,48.54698 l -19.179,3.12062 23.0903,0.38703 c 20.9658,0.35142 42.0262,0.86618 62.6669,4.56065 20.6407,3.69447 40.8342,10.5942 58.6872,21.59235 17.8529,10.99815 33.2457,26.05912 44.2298,43.9207 10.9842,17.86157 17.5206,38.43102 18.8856,59.35526 1.9677,30.16303 -6.9047,60.76464 -23.8805,85.77469 -16.9757,25.01011 -41.8433,44.40191 -69.8717,55.71951 -48.4712,19.5721 -106.3402,13.976 -150.1629,-14.5212"
       id="path4138-1-7-2"
       inkscape:path-effect="#path-effect4140-6-7-2"
       inkscape:original-d="m 1487.7242,1047.0005 c 0,0 -145.5979,-244.35073 -106.2455,-364.70083 40.9911,-125.36183 182.0546,-233.49766 313.7277,-241.11752 95.2959,-5.51473 231.7422,52.714 245.6685,147.14806 11.8096,80.08119 -93.8558,163.22565 -163.4413,179.60828 l -19.179,3.12062 23.0903,0.38703 c 46.0242,0.77145 170.5118,55.62179 184.4695,129.42896 10.5132,55.59308 -42.6744,117.1595 -93.7522,141.4942 -45.3987,21.629 -150.1629,-14.5212 -150.1629,-14.5212"
       inkscape:connector-curvature="0"
       sodipodi:nodetypes="caaascsaac" />
    <path
       style="color:#000000;font-style:normal;font-variant:normal;font-weight:normal;font-stretch:normal;font-size:medium;line-height:normal;font-family:sans-serif;text-indent:0;text-align:start;text-decoration:none;text-decoration-line:none;text-decoration-style:solid;text-decoration-color:#000000;letter-spacing:normal;word-spacing:normal;text-transform:none;direction:ltr;block-progression:tb;writing-mode:lr-tb;baseline-shift:baseline;text-anchor:start;white-space:normal;clip-rule:nonzero;display:inline;overflow:visible;visibility:visible;opacity:1;isolation:auto;mix-blend-mode:normal;color-interpolation:sRGB;color-interpolation-filters:linearRGB;solid-color:#000000;solid-opacity:1;fill:#000000;fill-opacity:1;fill-rule:evenodd;stroke:none;stroke-width:120;stroke-linecap:round;stroke-linejoin:round;stroke-miterlimit:4;stroke-dasharray:none;stroke-dashoffset:0;stroke-opacity:1;color-rendering:auto;image-rendering:auto;shape-rendering:auto;text-rendering:auto;enable-background:accumulate"
       d="m 1713.4746,1196.1836 c -7.7199,0.1827 -15.3889,0.5842 -22.9863,1.1836 -81.0537,6.3947 -159.8579,35.6082 -225.1133,85.1973 -65.3282,49.6441 -115.2693,118.4978 -140.9336,197.1152 -24.6982,75.6577 -26.0141,157.7456 -3.7539,234.1562 22.2601,76.4106 67.4569,144.9481 128.9238,195.5039 a 60.006,60.006 0 1 0 76.2266,-92.6796 c -42.4279,-34.8966 -74.5743,-83.6441 -89.9395,-136.3868 -15.3652,-52.7427 -14.4308,-111.1304 2.6172,-163.3535 17.7262,-54.3004 53.4686,-103.859 99.4649,-138.8125 46.0689,-35.0088 103.6112,-56.509 161.9453,-61.1113 43.4006,-3.4241 85.9513,3.0577 119.0918,20.7969 16.5194,8.8423 31.0029,20.596 41.7871,34.0117 10.7096,13.3229 18.182,28.9696 21.2285,44.2539 5.2948,26.5639 -3.6877,58.9177 -21.918,78.9512 -18.2301,20.0333 -49.5949,32.0172 -76.539,29.2441 a 60.006,60.006 0 0 0 -15.7793,0.4629 l -19.1778,3.1211 a 60.006,60.006 0 0 0 8.6309,119.2129 l 23.0898,0.3867 c 20.6574,0.3462 38.4773,1.0132 53.1016,3.6309 14.5679,2.6074 27.5953,7.3366 37.7871,13.6152 10.1391,6.2461 18.8261,14.8899 24.5918,24.2656 5.7809,9.4004 9.3998,20.7749 10.1211,31.832 1.0334,15.8413 -3.9932,33.9413 -13.6523,48.1719 -9.7782,14.406 -25.3022,26.7597 -42.6914,33.7813 -29.4154,11.8776 -68.3939,8.1084 -94.9883,-9.1856 a 60.006,60.006 0 1 0 -65.4199,100.5996 c 61.0509,39.7005 137.811,47.1241 205.3378,19.8575 38.6676,-15.6136 72.8774,-42.0462 97.0508,-77.6602 24.2925,-35.7895 37.0114,-78.8922 34.1094,-123.3769 -2.0087,-30.7915 -11.4611,-60.5562 -27.6484,-86.879 a 60.006,60.006 0 0 0 -0,0 c -12.6245,-20.5288 -28.861,-38.0552 -47.4961,-52.2656 43.8379,-49.3674 62.1012,-116.3759 49.1758,-181.2226 -7.1675,-35.9595 -23.3554,-68.5782 -45.3828,-95.9805 -21.9528,-27.3095 -49.1375,-48.8088 -78.6856,-64.625 -51.62,-27.6308 -108.1344,-37.0915 -162.1738,-35.8125 z"
       id="path4138-1-7-2-2"
       inkscape:connector-curvature="0" />
  </g>
</svg>
