<?xml version="1.0" encoding="UTF-8" standalone="no"?>
<!-- Created with Inkscape (http://www.inkscape.org/) -->

<svg
   xmlns:dc="http://purl.org/dc/elements/1.1/"
   xmlns:cc="http://creativecommons.org/ns#"
   xmlns:rdf="http://www.w3.org/1999/02/22-rdf-syntax-ns#"
   xmlns:svg="http://www.w3.org/2000/svg"
   xmlns="http://www.w3.org/2000/svg"
   xmlns:sodipodi="http://sodipodi.sourceforge.net/DTD/sodipodi-0.dtd"
   xmlns:inkscape="http://www.inkscape.org/namespaces/inkscape"
   width="2000"
   height="2048"
   id="svg2992"
   version="1.1"
   inkscape:version="0.91 r13725"
   sodipodi:docname="ദൃ.svg">
  <defs
     id="defs5498">
    <inkscape:path-effect
       effect="spiro"
       id="path-effect4140-6-7"
       is_visible="true" />
    <inkscape:path-effect
       effect="spiro"
       id="path-effect4140-6-7-1"
       is_visible="true" />
    <inkscape:path-effect
       effect="spiro"
       id="path-effect4140-6-7-9"
       is_visible="true" />
    <inkscape:path-effect
       effect="spiro"
       id="path-effect4140-6-7-3"
       is_visible="true" />
    <inkscape:path-effect
       effect="spiro"
       id="path-effect4183"
       is_visible="true" />
    <inkscape:path-effect
       effect="spiro"
       id="path-effect4187"
       is_visible="true" />
    <inkscape:path-effect
       effect="spiro"
       id="path-effect4183-8"
       is_visible="true" />
    <inkscape:path-effect
       effect="spiro"
       id="path-effect4187-6"
       is_visible="true" />
  </defs>
  <sodipodi:namedview
     inkscape:window-height="844"
     inkscape:window-width="1600"
     inkscape:pageshadow="2"
     inkscape:pageopacity="0.0"
     borderopacity="1.0"
     bordercolor="#666666"
     pagecolor="#ffffff"
     id="base"
     showgrid="true"
     showguides="true"
     inkscape:guide-bbox="true"
     inkscape:zoom="0.5"
     inkscape:cx="262.21177"
     inkscape:cy="-1090.8849"
     inkscape:window-x="1600"
     inkscape:window-y="0"
     inkscape:current-layer="layer1-7"
     inkscape:window-maximized="1">
    <sodipodi:guide
       orientation="horizontal"
       position="0,600"
       id="guide5596" />
    <inkscape:grid
       type="xygrid"
       id="grid3769"
       empspacing="3"
       visible="true"
       enabled="true"
       snapvisiblegridlinesonly="true"
       spacingx="4px"
       units="px"
       dotted="true"
       spacingy="4px" />
    <sodipodi:guide
       orientation="0,1"
       position="-1040,1600"
       id="guide2985" />
  </sodipodi:namedview>
  <metadata
     id="metadata5594">
    <rdf:RDF>
      <cc:Work
         rdf:about="">
        <dc:format>image/svg+xml</dc:format>
        <dc:type
           rdf:resource="http://purl.org/dc/dcmitype/StillImage" />
        <dc:title />
      </cc:Work>
    </rdf:RDF>
  </metadata>
  <g
     inkscape:label="Layer 1"
     inkscape:groupmode="layer"
     id="layer1"
     transform="translate(0,1048)">
    <g
       id="layer1-7"
       inkscape:label="Layer 1"
       transform="translate(-66.392265,-1.0476613)">
      <path
         style="fill:none;fill-rule:evenodd;stroke:#000000;stroke-width:140;stroke-linecap:round;stroke-linejoin:round;stroke-miterlimit:4;stroke-dasharray:none;stroke-opacity:1"
         d="m 462.64187,726.66594 c 3.85743,27.08362 16.94009,52.4687 35.269,72.77765 18.32891,20.30895 41.73341,35.68918 66.88747,46.44443 50.30812,21.5105 106.34471,24.63309 161.04823,25.69802 56.49135,1.09974 114.51885,0.0482 167.07913,-20.68585 26.28014,-10.367 50.84606,-25.69845 70.11975,-46.35384 19.2737,-20.6554 33.06451,-46.79924 37.06625,-74.76541 4.4179,-30.87448 -3.30849,-62.93068 -19.24584,-89.74023 -15.93735,-26.80955 -39.74645,-48.50373 -66.74212,-64.12375 -53.99134,-31.24004 -118.54212,-38.10795 -180.91667,-38.75592 -62.79424,-0.65233 -127.96124,4.96999 -182.78606,35.5932 -27.41241,15.31161 -51.67294,36.86505 -67.96004,63.70933 -16.2871,26.84429 -24.24645,59.11726 -19.8191,90.20237 z"
         id="path4181"
         inkscape:path-effect="#path-effect4183"
         inkscape:original-d="m 462.64187,726.66594 c 5.39044,100.0095 163.05861,143.6122 263.2047,144.9201 102.9098,1.344 274.26513,-45.8051 274.26513,-141.8051 3.9795,-141.0994 -157.19033,-191.8446 -266.90463,-192.6199 -110.10711,-0.778 -276.49144,79.5546 -270.5652,189.5049 z"
         inkscape:connector-curvature="0"
         sodipodi:nodetypes="aacaa" />
      <path
         style="fill:none;fill-rule:evenodd;stroke:#000000;stroke-width:140;stroke-linecap:round;stroke-linejoin:round;stroke-miterlimit:4;stroke-dasharray:none;stroke-opacity:1"
         d="m 754.99667,871.51584 c 90.48736,5.82907 182.37806,-11.62642 264.42503,-50.23 108.6748,-51.13214 199.91,-140.57318 248.0289,-250.61538 44.4928,-101.74968 50.8805,-220.90565 11.2111,-324.63098 C 1252.3326,177.19549 1206.296,116.01559 1147.4371,71.649579 1088.5781,27.283568 1017.0864,-0.12567648 943.6537,-6.478952 l 27.50162,-4.47477 c 37.42088,-6.088721 75.10488,-12.789809 110.11258,-27.344956 35.0077,-14.555148 67.0153,-36.984229 90.7562,-66.543702 23.7409,-29.55946 38.8897,-65.78727 44.0953,-103.34114 5.2057,-37.55387 0.7081,-76.12996 -10.5995,-112.31739 -22.6647,-72.53315 -72.6505,-135.55343 -136.2109,-177.2047 -63.5603,-41.65128 -140.07211,-62.24227 -216.06255,-61.79655 -104.94649,0.61556 -208.54419,41.27073 -288.43848,109.32253 -79.89428,68.0518 -136.066,162.58736 -161.42765,264.42513 -22.99014,92.315161 -21.05134,190.7137245 5.55743,282.051609 26.60877,91.337881 77.81971,175.382371 146.79206,240.906801"
         id="path4185"
         inkscape:path-effect="#path-effect4187"
         inkscape:original-d="m 754.99667,871.51584 c 0,0 185.22832,-8.07344 264.42503,-50.23 103.7501,-55.22639 201.4631,-142.70026 248.0289,-250.61538 42.8977,-99.41444 57.8368,-226.9095 11.2111,-324.63098 C 1218.4435,119.82984 1113.2815,31.625939 943.6537,-6.478952 l 27.50162,-4.47477 C 1072.334,-27.416434 1226.5626,-192.8029 1205.5199,-320.50091 1182.4482,-460.5118 994.97827,-566.39016 853.24645,-559.50216 658.52133,-550.03874 460.44187,-372.17179 403.38032,-185.7545 350.2376,-12.139817 555.72981,337.20391 555.72981,337.20391"
         inkscape:connector-curvature="0"
         sodipodi:nodetypes="caaacsaaac" />
      <path
         style="color:#000000;font-style:normal;font-variant:normal;font-weight:normal;font-stretch:normal;font-size:medium;line-height:normal;font-family:sans-serif;text-indent:0;text-align:start;text-decoration:none;text-decoration-line:none;text-decoration-style:solid;text-decoration-color:#000000;letter-spacing:normal;word-spacing:normal;text-transform:none;direction:ltr;block-progression:tb;writing-mode:lr-tb;baseline-shift:baseline;text-anchor:start;white-space:normal;clip-rule:nonzero;display:inline;overflow:visible;visibility:visible;opacity:1;isolation:auto;mix-blend-mode:normal;color-interpolation:sRGB;color-interpolation-filters:linearRGB;solid-color:#000000;solid-opacity:1;fill:#000000;fill-opacity:1;fill-rule:evenodd;stroke:none;stroke-width:140;stroke-linecap:round;stroke-linejoin:round;stroke-miterlimit:4;stroke-dasharray:none;stroke-dashoffset:0;stroke-opacity:1;color-rendering:auto;image-rendering:auto;shape-rendering:auto;text-rendering:auto;enable-background:accumulate"
         d="M 666.44336 2265.4512 C 543.68982 2266.1713 425.18265 2312.9874 333.02539 2391.4844 C 241.09918 2469.7847 177.82639 2576.7839 149.0625 2692.2832 C 123.03057 2796.8124 125.21051 2907.4054 155.33984 3010.8281 C 185.46918 3114.2508 243.02701 3208.7124 321.125 3282.9062 A 70.007 70.007 0 1 0 417.55078 3181.4082 C 357.70407 3124.5532 312.84016 3050.925 289.75195 2971.6719 C 266.66374 2892.4187 264.96375 2806.2164 284.91211 2726.1152 C 306.87151 2637.9389 355.94234 2555.8658 423.80469 2498.0625 C 491.43598 2440.456 580.12423 2405.9603 667.26367 2405.4492 C 730.33409 2405.0793 793.68254 2422.464 844.54883 2455.7969 C 895.10714 2488.9279 934.9439 2539.7455 952.3125 2595.3301 C 960.9722 2623.0436 963.94823 2651.4938 960.39062 2677.1582 C 956.88022 2702.482 946.41362 2727.1541 931.05469 2746.2773 C 915.72313 2765.3664 893.43712 2781.4423 868.00195 2792.0176 C 842.40463 2802.6601 810.25943 2808.9305 773.52148 2814.9082 L 746.01953 2819.3828 A 70.007 70.007 0 0 0 751.22656 2958.2129 C 811.32145 2963.4122 870.74194 2986.1944 918.91016 3022.502 C 967.07833 3058.8097 1005.3399 3109.6584 1026.8867 3165.998 C 1059.2712 3250.6752 1054.3625 3351.9558 1016.9219 3437.5781 C 988.74966 3502.0046 942.13854 3559.2691 884.96484 3603.0664 C 884.26637 3565.5948 872.94695 3530.0126 854.64453 3499.2246 C 831.53518 3460.3503 798.66053 3431.0369 762.78906 3410.2812 C 691.71312 3369.1559 614.55144 3362.8133 547.54102 3362.1172 C 480.06614 3361.4162 402.15021 3366.2332 329.89258 3406.5938 C 293.41497 3426.9689 259.88104 3456.1138 236.22266 3495.1074 C 212.27565 3534.5767 199.91685 3582.1149 206.94922 3631.4902 C 213.06104 3674.4022 232.88561 3711.749 259.55273 3741.2969 C 285.96217 3770.5593 317.98192 3791.1365 350.88477 3805.2051 C 416.21847 3833.1401 481.65601 3835.4267 538.0918 3836.5254 C 549.68618 3836.7511 561.66526 3836.929 573.93164 3836.875 C 673.16776 3841.6438 772.8897 3821.8956 862.83008 3779.5781 C 986.30252 3721.4836 1089.6398 3620.7126 1145.1934 3493.668 C 1196.7384 3375.791 1204.6046 3238.7616 1157.6504 3115.9883 C 1126.539 3034.6399 1072.7293 2963.1274 1003.1797 2910.7031 C 994.46209 2904.1321 985.52342 2897.8832 976.38672 2891.9609 C 999.95752 2876.182 1021.7026 2856.9873 1040.209 2833.9453 C 1072.3318 2793.9496 1092.1635 2746.1666 1099.0645 2696.3828 C 1105.9183 2646.9394 1099.8968 2598.2374 1085.9414 2553.5762 C 1057.9808 2464.0944 997.84562 2388.8728 921.2832 2338.7012 C 845.02878 2288.7314 755.35386 2264.9317 666.44336 2265.4531 L 666.44336 2265.4512 z M 535.26172 3502.082 C 538.84705 3502.063 542.45579 3502.0736 546.08789 3502.1113 C 603.82657 3502.7111 655.76711 3510.1043 692.67383 3531.459 C 710.7937 3541.9433 725.53738 3556.0188 734.30273 3570.7637 C 742.79381 3585.0473 746.26025 3601.9982 744.42578 3614.8184 C 742.75183 3626.5168 736.00904 3640.4524 725.47266 3651.7441 C 714.65281 3663.3396 699.06319 3673.5498 680.8457 3680.7363 C 651.63918 3692.2576 615.26883 3696.0977 574.30859 3696.6816 C 573.90707 3696.6568 573.50494 3696.6391 573.10352 3696.6133 A 70.007 70.007 0 0 0 561.0957 3696.7754 C 554.44164 3696.7655 547.67911 3696.6863 540.81641 3696.5527 C 487.84516 3695.5215 441.20835 3691.5644 405.92578 3676.4785 C 388.52051 3669.0364 373.73276 3658.8535 363.48438 3647.498 C 353.4937 3636.4281 347.15382 3623.0032 345.55078 3611.748 C 343.72845 3598.9532 347.28687 3581.9459 355.91406 3567.7266 C 364.82989 3553.0316 379.81686 3539.0684 398.16406 3528.8203 C 433.21907 3509.2398 481.48182 3502.3672 535.26172 3502.082 z "
         transform="translate(66.392265,-1046.9523)"
         id="path4181-1" />
    </g>
  </g>
</svg>
