<?xml version="1.0" encoding="UTF-8" standalone="no"?>
<!-- Created with Inkscape (http://www.inkscape.org/) -->

<svg
   xmlns:dc="http://purl.org/dc/elements/1.1/"
   xmlns:cc="http://creativecommons.org/ns#"
   xmlns:rdf="http://www.w3.org/1999/02/22-rdf-syntax-ns#"
   xmlns:svg="http://www.w3.org/2000/svg"
   xmlns="http://www.w3.org/2000/svg"
   xmlns:sodipodi="http://sodipodi.sourceforge.net/DTD/sodipodi-0.dtd"
   xmlns:inkscape="http://www.inkscape.org/namespaces/inkscape"
   width="2000"
   height="2048"
   id="svg2992"
   version="1.1"
   inkscape:version="0.91pre3 r13670"
   sodipodi:docname="ദൃ.svg">
  <defs
     id="defs5498">
    <inkscape:path-effect
       effect="spiro"
       id="path-effect4140-6-7"
       is_visible="true" />
    <inkscape:path-effect
       effect="spiro"
       id="path-effect4140-6-7-1"
       is_visible="true" />
  </defs>
  <sodipodi:namedview
     inkscape:window-height="851"
     inkscape:window-width="1600"
     inkscape:pageshadow="2"
     inkscape:pageopacity="0.0"
     borderopacity="1.0"
     bordercolor="#666666"
     pagecolor="#ffffff"
     id="base"
     showgrid="true"
     showguides="true"
     inkscape:guide-bbox="true"
     inkscape:zoom="0.32102648"
     inkscape:cx="185.2433"
     inkscape:cy="-1333.6906"
     inkscape:window-x="1599"
     inkscape:window-y="-1"
     inkscape:current-layer="layer1-7"
     inkscape:window-maximized="1">
    <sodipodi:guide
       orientation="horizontal"
       position="0,600"
       id="guide5596" />
    <inkscape:grid
       type="xygrid"
       id="grid3769"
       empspacing="3"
       visible="true"
       enabled="true"
       snapvisiblegridlinesonly="true"
       spacingx="4px"
       units="px"
       dotted="true"
       spacingy="4px" />
    <sodipodi:guide
       orientation="0,1"
       position="-1040,1600"
       id="guide2985" />
  </sodipodi:namedview>
  <metadata
     id="metadata5594">
    <rdf:RDF>
      <cc:Work
         rdf:about="">
        <dc:format>image/svg+xml</dc:format>
        <dc:type
           rdf:resource="http://purl.org/dc/dcmitype/StillImage" />
        <dc:title />
      </cc:Work>
    </rdf:RDF>
  </metadata>
  <g
     inkscape:label="Layer 1"
     inkscape:groupmode="layer"
     id="layer1"
     transform="translate(0,1048)">
    <g
       id="layer1-7"
       inkscape:label="Layer 1"
       transform="translate(-66.392265,-1.0476613)">
      <path
         style="fill:none;fill-rule:evenodd;stroke:#000000;stroke-width:140;stroke-linecap:round;stroke-linejoin:round;stroke-miterlimit:4;stroke-dasharray:none;stroke-opacity:1"
         d="M 517.67708,332.97803 C 425.82149,295.29844 347.97314,224.4815 301.79216,136.59226 255.61118,48.703021 241.45402,-55.580144 262.53228,-152.60029 c 25.83557,-118.91733 103.72017,-223.91211 205.41726,-290.74406 101.69709,-66.83196 225.62559,-96.59324 347.24421,-92.38369 72.75192,2.51814 146.11783,17.17653 210.16375,51.77866 64.0459,34.60213 118.1906,90.46899 142.1097,159.2226 13.0848,37.61128 16.8683,78.57445 9.6892,117.74435 -7.1792,39.1699 -25.4229,76.21645 -51.9619,105.90661 -26.5389,29.690155 -61.0228,51.719021 -98.1364,66.155375 -37.11348,14.436353 -76.65007,21.345501 -115.95555,27.740859 l -27.5016,4.47476 33.1101,0.55499 c 31.3255,0.5250765 62.76437,1.33515715 93.67605,6.4369118 30.9118,5.1017547 61.2084,14.4728732 89.0335,28.8716782 55.6502,28.797611 99.2843,77.628706 128.7285,132.939526 35.8822,67.40443 53.1341,144.83432 47.7315,221.00321 -4.8455,68.31443 -27.7993,135.10736 -64.9021,192.67226 -37.1029,57.56491 -88.1922,105.87149 -147.097,140.80817 -117.80945,69.87336 -265.1691,83.95416 -397.02441,46.8659 -36.92368,-10.38589 -73.51928,-25.0072 -102.60184,-50.01579 -14.54127,-12.5043 -27.03193,-27.54157 -35.705,-44.64666 -8.67307,-17.10508 -13.44848,-36.31435 -12.72826,-55.47909 1.07216,-28.52972 14.45981,-55.9539 34.59886,-76.19033 20.13905,-20.23642 46.65156,-33.52906 74.43315,-40.10762 55.56318,-13.15713 113.87155,-0.19047 168.28947,17.1031 102.7588,32.6559 200.53437,80.94344 288.92663,142.68958"
         id="path4138-1-7"
         inkscape:path-effect="#path-effect4140-6-7"
         inkscape:original-d="M 517.67708,332.97803 C 237.22548,159.74051 218.99668,24.984454 262.53228,-152.60029 c 53.37271,-217.71125 328.62737,-375.67434 552.66147,-383.12775 136.8014,-4.55126 328.31125,76.23792 352.27345,211.00126 23.8155,133.93799 -155.1859,301.084491 -256.36465,317.547194 l -27.5016,4.47476 33.1101,0.55499 c 65.99595,1.1062211 240.58605,73.895954 311.43805,168.248116 45.2557,60.26607 77.0748,151.58382 47.7315,221.00321 -93.1869,220.4588 -371.1808,407.11814 -609.02351,380.34633 -70.54285,-7.94038 -166.48955,-80.85588 -151.0351,-150.14154 21.37332,-95.82127 179.30829,-104.84746 277.32148,-99.19485 107.23529,6.18445 288.92663,142.68958 288.92663,142.68958"
         inkscape:connector-curvature="0"
         sodipodi:nodetypes="caaascsaaaaac" />
      <path
         style="color:#000000;font-style:normal;font-variant:normal;font-weight:normal;font-stretch:normal;font-size:medium;line-height:normal;font-family:sans-serif;text-indent:0;text-align:start;text-decoration:none;text-decoration-line:none;text-decoration-style:solid;text-decoration-color:#000000;letter-spacing:normal;word-spacing:normal;text-transform:none;direction:ltr;block-progression:tb;writing-mode:lr-tb;baseline-shift:baseline;text-anchor:start;white-space:normal;clip-rule:nonzero;display:inline;overflow:visible;visibility:visible;opacity:1;isolation:auto;mix-blend-mode:normal;color-interpolation:sRGB;color-interpolation-filters:linearRGB;solid-color:#000000;solid-opacity:1;fill:#000000;fill-opacity:1;fill-rule:evenodd;stroke:none;stroke-width:140;stroke-linecap:round;stroke-linejoin:round;stroke-miterlimit:4;stroke-dasharray:none;stroke-dashoffset:0;stroke-opacity:1;color-rendering:auto;image-rendering:auto;shape-rendering:auto;text-rendering:auto;enable-background:accumulate"
         d="m 929.82812,1021.1992 c -126.5315,0.016 -254.51111,33.097 -362.82812,104.2793 -116.10895,76.3029 -205.1617,195.2956 -235.37891,334.3809 -24.66814,113.5437 -8.34886,233.7554 45.69727,336.6133 54.04614,102.8577 143.78746,184.4929 251.28711,228.5898 a 70.007,70.007 0 1 0 53.13086,-129.5254 c -76.21158,-31.2623 -142.16854,-91.2629 -180.48438,-164.1836 -38.31585,-72.9208 -50.31066,-161.275 -32.82226,-241.7715 21.45395,-98.7493 88.17182,-189.7445 175.45703,-247.1054 87.85602,-57.7361 197.80258,-84.6839 306.3789,-80.9258 64.99208,2.2495 127.66188,15.5029 179.31248,43.4082 50.8394,27.467 92.2556,71.7315 109.2696,120.6367 9.278,26.6691 11.782,55.7549 6.9492,82.1231 -4.7991,26.1837 -17.4187,51.8737 -35.2989,71.8769 -17.9253,20.0538 -42.9779,36.541 -71.3222,47.5664 -28.4925,11.083 -63.0605,17.5817 -101.8223,23.8887 l -27.5019,4.4746 a 70.007,70.007 0 0 0 10.0703,139.082 l 33.1093,0.5547 c 30.904,0.5179 58.8886,1.4579 83.4512,5.5117 24.5738,4.0557 47.8446,11.4102 68.2598,21.9746 40.2285,20.8173 75.1143,58.5894 99.1094,103.6641 29.8065,55.9916 44.1189,120.8195 39.6972,183.1582 -3.9695,55.964 -23.047,111.8112 -53.914,159.7012 -12.2384,18.9878 -26.4717,36.8294 -42.2168,53.3593 -90.9865,-61.8172 -190.7342,-110.4913 -295.58011,-143.8105 -58.54769,-18.606 -129.33601,-36.5713 -205.61914,-18.5078 -38.63852,9.1495 -76.92624,27.7001 -107.92187,58.8457 -31.50296,31.6552 -53.10151,74.2398 -54.93165,122.9394 -1.22219,32.5225 6.70045,63.0508 20.2461,89.7657 13.449,26.5242 31.94677,48.392 52.49805,66.0644 40.86672,35.142 87.48418,52.5679 129.2871,64.3262 149.38743,42.0197 315.39862,26.7885 451.68752,-54.0449 67.9808,-40.3198 126.9303,-95.9209 170.2246,-163.0918 43.3388,-67.2399 70.1691,-144.9778 75.8906,-225.6426 6.3836,-89.9991 -13.808,-180.0322 -55.7656,-258.8496 -32.885,-61.7745 -81.3198,-118.5051 -146.2774,-155.6192 11.8762,-9.6993 23.2258,-20.2685 33.7208,-32.0097 35.1976,-39.377 59.0656,-87.7815 68.625,-139.9375 9.5254,-51.9717 4.4638,-104.8118 -12.4278,-153.3652 -30.8242,-88.602 -97.6968,-156.0715 -174.9492,-197.8086 -76.441,-41.2989 -160.504,-57.3638 -241.01562,-60.1504 -8.41631,-0.2913 -16.84582,-0.4367 -25.28126,-0.4356 z M 806.56641,2193.1699 c 29.94582,-0.4905 65.15301,6.9887 102.86914,18.9746 74.75845,23.7577 146.71375,56.5217 213.92185,97.0528 -91.9804,40.0225 -201.35631,45.9488 -300.05271,18.1875 -32.04442,-9.0135 -58.61762,-20.8319 -75.91602,-35.7071 -8.53128,-7.3362 -15.01497,-15.5406 -18.91211,-23.2265 -3.80049,-7.4954 -5.42916,-15.3884 -5.21094,-21.1953 0.31417,-8.3598 5.49049,-20.6239 14.26563,-29.4414 9.28246,-9.3274 24.02063,-17.3615 40.94531,-21.3692 8.71082,-2.0627 18.10791,-3.1119 28.08985,-3.2754 z"
         id="path4138-1-7-8"
         inkscape:connector-curvature="0" />
    </g>
  </g>
</svg>
