<?xml version="1.0" encoding="UTF-8" standalone="no"?>
<!-- Created with Inkscape (http://www.inkscape.org/) -->

<svg
   xmlns:dc="http://purl.org/dc/elements/1.1/"
   xmlns:cc="http://creativecommons.org/ns#"
   xmlns:rdf="http://www.w3.org/1999/02/22-rdf-syntax-ns#"
   xmlns:svg="http://www.w3.org/2000/svg"
   xmlns="http://www.w3.org/2000/svg"
   xmlns:sodipodi="http://sodipodi.sourceforge.net/DTD/sodipodi-0.dtd"
   xmlns:inkscape="http://www.inkscape.org/namespaces/inkscape"
   width="2000"
   height="2048"
   id="svg2992"
   version="1.1"
   inkscape:version="0.91 r13725"
   sodipodi:docname="ധ്ര.svg">
  <defs
     id="defs5498">
    <inkscape:path-effect
       effect="spiro"
       id="path-effect4150"
       is_visible="true" />
    <inkscape:path-effect
       effect="spiro"
       id="path-effect3846"
       is_visible="true" />
    <inkscape:path-effect
       effect="spiro"
       id="path-effect3801"
       is_visible="true" />
    <inkscape:path-effect
       effect="spiro"
       id="path-effect4372-5-0-6"
       is_visible="true" />
    <inkscape:path-effect
       effect="spiro"
       id="path-effect4372-5-0-6-4"
       is_visible="true" />
    <inkscape:path-effect
       effect="spiro"
       id="path-effect4150-1"
       is_visible="true" />
    <inkscape:path-effect
       effect="spiro"
       id="path-effect4150-1-3"
       is_visible="true" />
    <inkscape:path-effect
       effect="spiro"
       id="path-effect4372-5-0-6-4-5"
       is_visible="true" />
    <inkscape:path-effect
       effect="spiro"
       id="path-effect4150-1-3-9"
       is_visible="true" />
    <inkscape:path-effect
       effect="spiro"
       id="path-effect4372-5-0-6-4-5-5"
       is_visible="true" />
    <inkscape:path-effect
       effect="spiro"
       id="path-effect4372-5-0-6-94"
       is_visible="true" />
    <inkscape:path-effect
       effect="spiro"
       id="path-effect4372-5-0-6-94-7"
       is_visible="true" />
    <inkscape:path-effect
       effect="spiro"
       id="path-effect4150-1-9"
       is_visible="true" />
  </defs>
  <sodipodi:namedview
     inkscape:window-height="844"
     inkscape:window-width="1600"
     inkscape:pageshadow="2"
     inkscape:pageopacity="0.0"
     borderopacity="1.0"
     bordercolor="#666666"
     pagecolor="#ffffff"
     id="base"
     showgrid="true"
     showguides="true"
     inkscape:guide-bbox="true"
     inkscape:zoom="0.454"
     inkscape:cx="1027.271"
     inkscape:cy="-710.77001"
     inkscape:window-x="0"
     inkscape:window-y="0"
     inkscape:current-layer="layer1"
     inkscape:window-maximized="1">
    <sodipodi:guide
       orientation="horizontal"
       position="0,600"
       id="guide5596" />
    <inkscape:grid
       type="xygrid"
       id="grid3769"
       empspacing="3"
       visible="true"
       enabled="true"
       snapvisiblegridlinesonly="true"
       spacingx="4px"
       units="px"
       dotted="true"
       spacingy="4px" />
    <sodipodi:guide
       orientation="0,1"
       position="-1040,1600"
       id="guide2985" />
  </sodipodi:namedview>
  <metadata
     id="metadata5594">
    <rdf:RDF>
      <cc:Work
         rdf:about="">
        <dc:format>image/svg+xml</dc:format>
        <dc:type
           rdf:resource="http://purl.org/dc/dcmitype/StillImage" />
        <dc:title />
      </cc:Work>
    </rdf:RDF>
  </metadata>
  <g
     inkscape:label="Layer 1"
     inkscape:groupmode="layer"
     id="layer1"
     transform="translate(0,1048)">
    <path
       style="fill:none;fill-rule:evenodd;stroke:#000000;stroke-width:140;stroke-linecap:round;stroke-linejoin:round;stroke-miterlimit:4;stroke-dasharray:none;stroke-opacity:1"
       d="m 1852.6953,-233.66615 c 37.8336,122.42842 41.7062,255.162734 11.0747,379.58866 -33.6075,136.51447 -107.8443,261.30759 -203.8781,363.98752 -57.4799,61.45788 -124.7745,115.31675 -202.7787,146.88198 -78.0041,31.56523 -163.6931,37.33224 -247.8385,38.07947 l -411.8584,3.6574 C 712.66825,699.28146 627.53903,699.25245 543.73155,686.63875 459.92407,674.02505 377.6813,648.83503 303.12253,608.53877 154.00499,527.94626 42.16954,386.62694 -16.61464,227.64388 -112.75326,-32.36506 -72.757344,-338.5727 86.939682,-565.16516"
       id="path4148-9"
       inkscape:path-effect="#path-effect4150-1"
       inkscape:original-d="m 1852.6953,-233.66615 c 0,0 36.2356,196.801638 11.0747,379.58866 -20.4819,148.79525 -99.7741,271.78345 -203.8781,363.98752 -121.5472,107.65332 -249.5704,183.17611 -450.6172,184.96145 l -411.8584,3.6574 C 456.71443,701.55439 122.05631,508.775 -16.61464,227.64388 -134.51315,-11.37475 86.939682,-565.16516 86.939682,-565.16516"
       inkscape:connector-curvature="0"
       sodipodi:nodetypes="csassac" />
    <path
       style="fill:none;fill-rule:evenodd;stroke:#000000;stroke-width:70;stroke-linecap:round;stroke-linejoin:round;stroke-miterlimit:4;stroke-dasharray:none;stroke-opacity:1"
       d="m -1936.2629,-551.04209 c 130.035,-28.055 271.237,0.27394 380.3872,76.31598 109.1503,76.04204 184.6483,198.6821 203.3858,330.38283 18.6844,131.327749 -19.4923,270.03869 -103.8802,372.385 -84.3879,102.34631 -213.9417,166.39707 -346.5469,169.85197 -127.2181,3.31454 -254.9057,-49.17809 -343.0083,-141.0114 -88.1027,-91.83331 -135.2577,-221.586967 -126.6729,-348.558346 l 0.4656,-480.444594 -2.3787,477.85212 c 12.387,123.612709 -29.8752,251.71359 -113.3873,343.68786 -83.5122,91.97427 -206.9523,146.3661 -331.1833,145.93039 -128.5365,-0.45081 -255.3323,-59.47796 -339.9857,-156.20244 -84.6535,-96.72447 -126.3069,-229.2864092 -114.2563,-357.25755 12.6293,-134.11604 84.05,-261.64419 191.8055,-342.48581 107.7555,-80.84162 250.1706,-113.74 382.4657,-88.3509"
       id="path4370-9-0-9-1-2"
       inkscape:path-effect="#path-effect4372-5-0-6-4-5"
       inkscape:original-d="m -1936.2629,-551.04209 c 0,0 551.9781,171.40854 583.773,406.69881 31.4871,233.013756 -215.8471,533.83141 -450.4271,542.23697 -225.7971,8.09079 -469.6812,-489.569746 -469.6812,-489.569746 l 0.4656,-480.444594 -2.3787,477.85212 c 0,0 -224.3389,491.0453 -444.5706,489.61825 -228.2886,-1.47934 -477.3556,-285.94406 -454.242,-513.45999 24.2134,-238.34204 358.7777,-536.94168 574.2712,-430.83671"
       inkscape:connector-curvature="0"
       sodipodi:nodetypes="caacccaac" />
    <path
       style="fill:none;fill-rule:evenodd;stroke:#000000;stroke-width:70;stroke-linecap:round;stroke-linejoin:round;stroke-miterlimit:4;stroke-dasharray:none;stroke-opacity:1"
       d="m -1352.4896,-140.80146 c 29.9999,179.096159 3.8525,367.18483 -73.8603,531.30719 -60.032,126.78206 -154.1722,239.54937 -276.6589,307.92001 -61.2433,34.18533 -128.4008,57.2262 -197.2171,70.77974 -68.8164,13.55353 -139.1057,17.56962 -209.1624,20.95219 l -268.648,12.9712 c -221.1965,10.68009 -449.6475,9.99343 -653.8645,-75.66528 -204.2169,-85.65872 -373.7283,-251.59503 -461.3787,-454.96507 -57.9398,-134.43445 -81.5236,-283.511848 -67.909,-429.26606 13.6146,-145.75421 64.3994,-287.885 146.2342,-409.26341"
       id="path4148-9-7"
       inkscape:path-effect="#path-effect4150-1-3"
       inkscape:original-d="m -1352.4896,-140.80146 c 0,0 25.5851,382.707 -73.8603,531.30719 -146.7105,219.22782 -459.9726,388.8816 -683.0384,399.65194 l -268.648,12.9712 c -378.016,18.25184 -911.8383,-172.70827 -1115.2432,-530.63035 -138.7022,-244.067786 78.3252,-838.52947 78.3252,-838.52947"
       inkscape:connector-curvature="0"
       sodipodi:nodetypes="cassac" />
    <path
       style="color:#000000;font-style:normal;font-variant:normal;font-weight:normal;font-stretch:normal;font-size:medium;line-height:normal;font-family:sans-serif;text-indent:0;text-align:start;text-decoration:none;text-decoration-line:none;text-decoration-style:solid;text-decoration-color:#000000;letter-spacing:normal;word-spacing:normal;text-transform:none;direction:ltr;block-progression:tb;writing-mode:lr-tb;baseline-shift:baseline;text-anchor:start;white-space:normal;clip-rule:nonzero;display:inline;overflow:visible;visibility:visible;opacity:1;isolation:auto;mix-blend-mode:normal;color-interpolation:sRGB;color-interpolation-filters:linearRGB;solid-color:#000000;solid-opacity:1;fill:#000000;fill-opacity:1;fill-rule:evenodd;stroke:none;stroke-width:70;stroke-linecap:round;stroke-linejoin:round;stroke-miterlimit:4;stroke-dasharray:none;stroke-dashoffset:0;stroke-opacity:1;color-rendering:auto;image-rendering:auto;shape-rendering:auto;text-rendering:auto;enable-background:accumulate"
       d="M -2849.5508 2745.334 A 35.0035 35.0035 0 0 0 -2883.1328 2779.7051 L -2883.1328 2779.8457 L -2885.5117 3257.5566 A 35.0035 35.0035 0 0 0 -2885.3359 3261.2207 C -2884.8381 3266.1887 -2884.5604 3271.178 -2884.2559 3276.1641 C -2884.6392 3289.2339 -2884.5107 3302.2923 -2883.8359 3315.3223 C -2887.4804 3411.3825 -2925.3456 3506.8937 -2989.8105 3577.8906 C -3066.4006 3662.2415 -3181.0251 3712.7492 -3294.959 3712.3496 C -3412.8612 3711.9361 -3530.8364 3657.0968 -3608.7305 3568.0957 C -3686.6937 3479.0154 -3725.6118 3355.402 -3714.4785 3237.1719 C -3702.8098 3113.2563 -3636.0736 2994.0934 -3536.5137 2919.4004 C -3436.9537 2844.7073 -3303.8816 2813.9677 -3181.6484 2837.4258 A 35.0035 35.0035 0 1 0 -3168.457 2768.6797 C -3310.8141 2741.3596 -3462.5724 2776.4161 -3578.5234 2863.4062 C -3694.4745 2950.3964 -3770.5801 3086.291 -3784.1699 3230.6074 C -3797.1378 3368.3195 -3752.7479 3509.8286 -3661.4043 3614.1973 C -3569.9913 3718.645 -3434.3759 3781.8615 -3295.2051 3782.3496 C -3160.677 3782.8214 -3028.4205 3724.545 -2937.9863 3624.9473 C -2898.9599 3581.9665 -2868.3936 3531.9522 -2847.2734 3478.2461 C -2823.9205 3535.3936 -2790.168 3588.3066 -2747.1816 3633.1133 C -2651.996 3732.3294 -2515.4515 3788.4618 -2378.0059 3784.8809 C -2234.735 3781.1481 -2096.3789 3712.6887 -2005.3652 3602.3066 C -1994.8508 3589.5546 -1985.0175 3576.2943 -1975.8633 3562.6055 C -1989.5875 3619.4039 -2009.0112 3674.7903 -2033.9824 3727.5273 C -2091.3931 3848.7733 -2181.2188 3955.7575 -2296.0684 4019.8652 C -2353.6476 4052.0053 -2417.3169 4073.9308 -2482.9902 4086.8652 C -2548.6592 4099.7989 -2617.226 4103.8266 -2687.0762 4107.1992 L -2955.7246 4120.1699 C -3175.6894 4130.7906 -3398.6707 4129.2707 -3594.3633 4047.1875 C -3790.083 3965.0929 -3953.2392 3805.3088 -4037.1367 3610.6465 C -4092.7206 3481.6786 -4115.4008 3338.3156 -4102.3398 3198.4883 C -4089.2789 3058.661 -4040.4407 2921.9778 -3961.9336 2805.5352 A 35.0035 35.0035 0 0 0 -3991.4434 2750.5625 A 35.0035 35.0035 0 0 0 -4019.9746 2766.4023 C -4105.1371 2892.7165 -4157.8689 3040.2955 -4172.0371 3191.9766 C -4186.2053 3343.6577 -4161.7178 3498.4504 -4101.4219 3638.3516 C -4010.0186 3850.4292 -3834.1536 4022.5154 -3621.4395 4111.7383 C -3408.6983 4200.9725 -3174.7758 4200.8275 -2952.3477 4190.0879 L -2683.7012 4177.1172 C -2613.4379 4173.7246 -2541.4265 4169.7183 -2469.4629 4155.5449 C -2397.5036 4141.3724 -2326.8566 4117.2169 -2261.9492 4080.9863 C -2131.8253 4008.3526 -2033.3702 3889.8026 -1970.7168 3757.4844 C -1891.8605 3590.9471 -1864.1366 3401.2747 -1891.7891 3219.1445 C -1892.3853 3213.664 -1893.0606 3208.1898 -1893.8379 3202.7266 C -1913.9953 3061.0458 -1994.4476 2930.361 -2111.8691 2848.5566 C -2229.2906 2766.7522 -2379.7557 2736.5632 -2519.6445 2766.7441 A 35.0035 35.0035 0 1 0 -2504.8809 2835.1699 C -2384.6997 2809.2409 -2252.7618 2835.7124 -2151.8828 2905.9922 C -2051.7339 2975.7632 -1981.4911 3089.21 -1963.5352 3209.9453 A 35.0035 35.0035 0 0 0 -1963.0078 3216.9805 C -1962.3896 3220.6711 -1961.8048 3224.3676 -1961.2363 3228.0664 C -1948.9871 3344.8496 -1984.8657 3467.4098 -2059.375 3557.7754 C -2137.1371 3652.0859 -2257.8886 3711.7293 -2379.8281 3714.9062 C -2496.8187 3717.9543 -2615.6501 3669.1028 -2696.6699 3584.6523 C -2765.7784 3512.6175 -2807.7344 3414.1638 -2813.7168 3314.3086 C -2813.3438 3301.2261 -2813.4511 3288.1279 -2814.1719 3275.0312 C -2814.0217 3270.9147 -2813.9555 3266.7939 -2813.6777 3262.6855 A 35.0035 35.0035 0 0 0 -2813.5977 3260.3574 L -2813.1328 2780.0859 L -2813.1328 2780.0527 L -2813.1328 2779.9141 A 35.0035 35.0035 0 0 0 -2849.5508 2745.334 z "
       transform="translate(0,-1048)"
       id="path4370-9-0-9-1-2-1" />
    <path
       style="fill:none;fill-rule:evenodd;stroke:#000000;stroke-width:140;stroke-linecap:round;stroke-linejoin:round;stroke-miterlimit:4;stroke-dasharray:none;stroke-opacity:1"
       d="m 1536.2826,-567.58886 c 82.1037,26.22135 156.8641,75.04319 213.8838,139.67543 57.0196,64.63224 96.1406,144.89587 111.9219,229.62791 24.2571,130.239726 -8.9799,271.017463 -92.5015,373.85196 -83.5216,102.8345 -216.722,164.60289 -349.0089,157.46412 -56.994,-3.07564 -113.4465,-18.49425 -163.3959,-46.11368 -49.9493,-27.61944 -93.0436,-67.44499 -124.7383,-114.91309 -31.6947,-47.46811 -51.7526,-102.169869 -62.004,-158.318621 -10.2515,-56.148751 -10.7639,-113.560957 -10.7061,-170.637849 l 0.4191,-413.78239 0.2261,415.45248 c 0.032,58.274694 -0.5337,116.914616 -11.3679,174.173333 -10.8342,57.258717 -32.0267,112.938707 -65.41547,160.699897 -33.38876,47.76119 -78.72166,87.1495 -130.85981,113.17937 -52.13815,26.02988 -110.6923,38.70458 -168.96243,37.97426 C 561.40139,329.21055 442.31951,267.09441 366.74945,170.83241 291.17938,74.570404 259.08127,-53.345442 274.82839,-174.70951 c 11.28524,-86.97605 46.32736,-170.75113 100.33014,-239.85893 54.00279,-69.10781 126.82154,-123.36317 208.48954,-155.34014"
       id="path4370-9-0-9-6"
       inkscape:path-effect="#path-effect4372-5-0-6-94"
       inkscape:original-d="m 1536.2826,-567.58886 c 0,0 323.3797,205.16203 325.8057,369.30334 3.4031,230.247206 -211.3368,538.0595 -441.5104,531.31608 -202.7518,-5.94004 -349.7918,-278.082151 -360.8443,-489.98324 l 0.4191,-413.78239 0.2261,415.45248 c -12.48,258.231 -171.6633,483.87309 -376.60561,486.02686 -216.71094,2.27745 -407.11024,-288.738636 -408.9448,-505.45378 -1.4152,-167.17718 114.81518,-490.55719 308.81968,-395.19907"
       inkscape:connector-curvature="0"
       sodipodi:nodetypes="caacccaac" />
    <path
       style="color:#000000;font-style:normal;font-variant:normal;font-weight:normal;font-stretch:normal;font-size:medium;line-height:normal;font-family:sans-serif;text-indent:0;text-align:start;text-decoration:none;text-decoration-line:none;text-decoration-style:solid;text-decoration-color:#000000;letter-spacing:normal;word-spacing:normal;text-transform:none;direction:ltr;block-progression:tb;writing-mode:lr-tb;baseline-shift:baseline;text-anchor:start;white-space:normal;clip-rule:nonzero;display:inline;overflow:visible;visibility:visible;opacity:1;isolation:auto;mix-blend-mode:normal;color-interpolation:sRGB;color-interpolation-filters:linearRGB;solid-color:#000000;solid-opacity:1;fill:#000000;fill-opacity:1;fill-rule:evenodd;stroke:none;stroke-width:140;stroke-linecap:round;stroke-linejoin:round;stroke-miterlimit:4;stroke-dasharray:none;stroke-dashoffset:0;stroke-opacity:1;color-rendering:auto;image-rendering:auto;shape-rendering:auto;text-rendering:auto;enable-background:accumulate"
       d="M 589.95508 1994.7129 A 70.007 70.007 0 0 0 564.73438 1999.8887 C 471.18961 2036.516 388.4657 2098.1505 326.60938 2177.3086 C 264.7531 2256.4666 224.94401 2351.6369 212.01758 2451.2617 C 193.90106 2590.887 230.07293 2736.6545 318.29688 2849.0352 C 406.89053 2961.8867 544.0186 3033.8934 689.50391 3035.7168 C 758.50999 3036.5817 827.85879 3021.7061 890.61133 2990.377 C 953.4905 2958.9846 1007.4928 2912.0106 1047.5742 2854.6758 C 1054.5999 2844.6259 1060.974 2834.2677 1067.0547 2823.7832 C 1071.4156 2831.2417 1075.9977 2838.6074 1080.8359 2845.8535 C 1118.7617 2902.6537 1169.952 2949.9963 1229.918 2983.1543 C 1289.7586 3016.243 1356.3337 3034.2865 1423.4141 3037.9062 C 1531.0971 3043.7174 1637.012 3011.8126 1724.4824 2952.1074 C 1693.8422 3003.9297 1656.9237 3052.6482 1615.375 3097.0723 C 1562.5768 3153.5244 1502.7781 3200.4504 1437.4629 3226.8809 C 1373.2346 3252.8716 1296.6311 3259.129 1215.2617 3259.8516 L 803.40234 3263.5098 C 719.0865 3264.2585 637.68216 3263.9742 560.75781 3252.3965 C 483.84863 3240.821 409.36511 3217.7961 343.01367 3181.9355 C 211.12892 3110.6567 109.09674 2982.8978 55.648438 2838.3457 C -32.100315 2601.0273 5.0051233 2316.9568 150.76562 2110.1387 A 70.007 70.007 0 0 0 94.039062 1998.9961 A 70.007 70.007 0 0 0 36.330078 2029.4863 C -137.30349 2275.8532 -180.19062 2604.1988 -75.662109 2886.8984 C -11.542047 3060.3125 110.09694 3215.1915 276.44727 3305.0977 C 359.21337 3349.8297 449.21609 3377.1859 539.92188 3390.8379 C 630.61248 3404.4876 719.46623 3404.2603 804.64648 3403.5039 L 1216.5039 3399.8477 C 1303.4253 3399.0758 1398.1986 3393.7981 1489.9785 3356.6582 C 1580.6717 3319.9583 1655.4634 3259.1668 1717.625 3192.7031 C 1820.6933 3082.502 1901.3875 2947.766 1938.3477 2797.6328 C 1969.4664 2671.2278 1968.2579 2537.7899 1935.1543 2412.0273 C 1915.7001 2319.087 1872.132 2232.0154 1809.2656 2160.7559 C 1743.7339 2086.4752 1658.5477 2030.8428 1564.1875 2000.707 A 70.007 70.007 0 1 0 1521.5938 2134.0703 C 1591.4408 2156.3773 1655.7735 2198.3911 1704.2812 2253.375 C 1743.0289 2297.2958 1772.2923 2350.2066 1789.3477 2406.459 A 70.007 70.007 0 0 0 1792.4238 2421.9785 C 1794.717 2429.3993 1796.8592 2436.8696 1798.875 2444.377 C 1799.2169 2446.0869 1799.5598 2447.7963 1799.8789 2449.5098 C 1820.366 2559.5076 1791.4002 2680.7912 1721.8594 2766.4121 C 1652.6513 2851.6233 1539.0241 2903.9412 1430.957 2898.1094 C 1384.0494 2895.5781 1337.7203 2882.7868 1297.6621 2860.6367 C 1257.7293 2838.5559 1222.7312 2806.2474 1197.2676 2768.1113 C 1171.7905 2729.9551 1154.7067 2684.2703 1145.9102 2636.0898 C 1139.6081 2601.5726 1137.4694 2564.4795 1136.7422 2525.4902 C 1136.9675 2509.9581 1136.9946 2494.6603 1136.9863 2479.6582 L 1136.7598 2064.3164 L 1136.7598 2064.207 A 70.007 70.007 0 0 0 996.75977 2064.1738 L 996.75977 2064.2832 L 996.3418 2477.957 C 996.3261 2493.4513 996.3847 2509.2939 996.62695 2525.3555 C 995.89638 2566.1733 993.64264 2604.9046 986.83984 2640.8574 C 977.56463 2689.8769 959.55271 2736.2401 932.83203 2774.4629 C 906.13594 2812.6506 869.4733 2844.4537 828.07617 2865.1211 C 786.55243 2885.8518 738.79199 2896.3263 691.25781 2895.7305 C 591.99952 2894.4865 490.96445 2842.2603 428.41797 2762.5879 C 365.50178 2682.4446 337.4758 2572.3803 350.85352 2469.2773 C 360.49757 2394.9499 390.77455 2322.5713 436.92383 2263.5137 C 483.07309 2204.4561 545.98611 2157.5805 615.77734 2130.2539 A 70.007 70.007 0 0 0 589.95508 1994.7129 z "
       transform="translate(0,-1048)"
       id="path4148-9-8" />
  </g>
</svg>
