<?xml version="1.0" encoding="UTF-8" standalone="no"?>
<!-- Created with Inkscape (http://www.inkscape.org/) -->

<svg
   xmlns:dc="http://purl.org/dc/elements/1.1/"
   xmlns:cc="http://creativecommons.org/ns#"
   xmlns:rdf="http://www.w3.org/1999/02/22-rdf-syntax-ns#"
   xmlns:svg="http://www.w3.org/2000/svg"
   xmlns="http://www.w3.org/2000/svg"
   xmlns:sodipodi="http://sodipodi.sourceforge.net/DTD/sodipodi-0.dtd"
   xmlns:inkscape="http://www.inkscape.org/namespaces/inkscape"
   width="2000"
   height="2048"
   id="svg2992"
   version="1.1"
   inkscape:version="0.91 r13725"
   sodipodi:docname="ന്മ.svg">
  <defs
     id="defs5498">
    <inkscape:path-effect
       effect="spiro"
       id="path-effect4372-5-0-6"
       is_visible="true" />
    <inkscape:path-effect
       effect="spiro"
       id="path-effect4170"
       is_visible="true" />
    <inkscape:path-effect
       effect="spiro"
       id="path-effect4166"
       is_visible="true" />
    <inkscape:path-effect
       effect="spiro"
       id="path-effect4372-5-0-6-94"
       is_visible="true" />
    <inkscape:path-effect
       effect="spiro"
       id="path-effect4170-9"
       is_visible="true" />
    <inkscape:path-effect
       effect="spiro"
       id="path-effect4166-6"
       is_visible="true" />
    <inkscape:path-effect
       effect="spiro"
       id="path-effect4372-5-0-6-94-3"
       is_visible="true" />
    <inkscape:path-effect
       effect="spiro"
       id="path-effect4166-6-5"
       is_visible="true" />
    <inkscape:path-effect
       effect="spiro"
       id="path-effect4170-9-7"
       is_visible="true" />
  </defs>
  <sodipodi:namedview
     inkscape:window-height="844"
     inkscape:window-width="1600"
     inkscape:pageshadow="2"
     inkscape:pageopacity="0.0"
     borderopacity="1.0"
     bordercolor="#666666"
     pagecolor="#ffffff"
     id="base"
     showgrid="true"
     showguides="true"
     inkscape:guide-bbox="true"
     inkscape:zoom="0.35355339"
     inkscape:cx="1015.8191"
     inkscape:cy="-704.01292"
     inkscape:window-x="1596"
     inkscape:window-y="0"
     inkscape:current-layer="layer1"
     inkscape:window-maximized="1">
    <sodipodi:guide
       orientation="horizontal"
       position="0,600"
       id="guide5596" />
    <inkscape:grid
       type="xygrid"
       id="grid3769"
       empspacing="3"
       visible="true"
       enabled="true"
       snapvisiblegridlinesonly="true"
       spacingx="4px"
       units="px"
       dotted="true"
       spacingy="4px" />
    <sodipodi:guide
       orientation="0,1"
       position="-1040,1600"
       id="guide2985" />
  </sodipodi:namedview>
  <metadata
     id="metadata5594">
    <rdf:RDF>
      <cc:Work
         rdf:about="">
        <dc:format>image/svg+xml</dc:format>
        <dc:type
           rdf:resource="http://purl.org/dc/dcmitype/StillImage" />
        <dc:title />
      </cc:Work>
    </rdf:RDF>
  </metadata>
  <g
     inkscape:label="Layer 1"
     inkscape:groupmode="layer"
     id="layer1"
     transform="translate(0,1048)">
    <path
       style="fill:none;fill-rule:evenodd;stroke:#000000;stroke-width:140;stroke-linecap:round;stroke-linejoin:round;stroke-miterlimit:4;stroke-dasharray:none;stroke-opacity:1"
       d="m 1515.9739,249.84757 2.8535,-312.624078 c 0.5365,-58.774852 0.4483,-117.939502 -10.2303,-175.738622 -10.6787,-57.79912 -32.041,-114.00982 -65.8509,-162.08953 -33.81,-48.0797 -79.7855,-87.55141 -132.5306,-113.4882 -52.7452,-25.9368 -111.8497,-38.36381 -170.6212,-37.53894 -122.7507,1.72283 -242.63127,62.7978 -318.9412,158.96174 -76.30994,96.16394 -108.57106,225.14147 -90.00357,346.492025 16.72402,109.302272 73.87654,211.949945 157.97982,283.736565 84.10327,71.78661 194.45245,112.11053 305.02485,111.46254"
       id="path4370-9-0-9-6"
       inkscape:path-effect="#path-effect4372-5-0-6-94"
       inkscape:original-d="m 1515.9739,249.84757 2.8535,-312.624078 C 1506.3475,-321.0075 1345.819,-549.52196 1139.5944,-551.6318 922.88285,-553.84893 710.73933,-261.98443 730.64963,-46.178035 749.29103,155.87476 999.64983,444.37917 1193.6543,349.02107"
       inkscape:connector-curvature="0"
       sodipodi:nodetypes="ccaac" />
    <path
       style="fill:none;fill-rule:evenodd;stroke:#000000;stroke-width:140;stroke-linecap:butt;stroke-linejoin:round;stroke-miterlimit:4;stroke-dasharray:none;stroke-opacity:1"
       d="m 1516.0773,-53.01343 0,384.00001 946,0 0,-384.00001"
       id="path4162"
       inkscape:connector-curvature="0"
       sodipodi:nodetypes="cccc" />
    <path
       style="fill:none;fill-rule:evenodd;stroke:#000000;stroke-width:140;stroke-linecap:round;stroke-linejoin:round;stroke-miterlimit:4;stroke-dasharray:none;stroke-opacity:1"
       d="m 1516.0773,-53.01343 c -9.7014,-136.58444 43.2159,-276.37753 140.9308,-372.3006 97.7148,-95.92308 238.4632,-146.24448 374.8447,-134.01728 127.4315,11.42479 249.1266,76.92985 328.8399,177.00528 79.7134,100.07542 116.343,233.33788 98.9793,360.09674"
       id="path4164"
       inkscape:path-effect="#path-effect4166-6"
       inkscape:original-d="m 1516.0773,-53.01343 c 11.1629,-137.06611 275.3038,-521.00826 515.7755,-506.31788 228.4622,13.95672 410.7249,266.07474 427.8192,537.10202"
       inkscape:connector-curvature="0"
       sodipodi:nodetypes="cac" />
    <path
       style="fill:none;fill-rule:evenodd;stroke:#000000;stroke-width:140;stroke-linecap:round;stroke-linejoin:round;stroke-miterlimit:4;stroke-dasharray:none;stroke-opacity:1"
       d="m 1921.4828,-552.51099 c 60.2921,-2.41598 121.1951,20.76585 164.6209,62.66056 53.2654,51.38733 78.1906,127.57921 77.4213,201.58779 -0.7692,74.00858 -25.1537,146.12104 -58.7164,212.08621 -99.1514,194.87503 -283.5743,344.41808 -494.7313,401.16301"
       id="path4168"
       inkscape:path-effect="#path-effect4170-9"
       inkscape:original-d="m 1921.4828,-552.51099 c 0,0 130.213,15.08458 164.6209,62.66056 80.8898,111.84691 75.2583,287.75894 18.7049,413.674 -86.9871,193.67499 -284.8538,295.08561 -494.7313,401.16301"
       inkscape:connector-curvature="0"
       sodipodi:nodetypes="caac" />
    <path
       style="color:#000000;font-style:normal;font-variant:normal;font-weight:normal;font-stretch:normal;font-size:medium;line-height:normal;font-family:sans-serif;text-indent:0;text-align:start;text-decoration:none;text-decoration-line:none;text-decoration-style:solid;text-decoration-color:#000000;letter-spacing:normal;word-spacing:normal;text-transform:none;direction:ltr;block-progression:tb;writing-mode:lr-tb;baseline-shift:baseline;text-anchor:start;white-space:normal;clip-rule:nonzero;display:inline;overflow:visible;visibility:visible;opacity:1;isolation:auto;mix-blend-mode:normal;color-interpolation:sRGB;color-interpolation-filters:linearRGB;solid-color:#000000;solid-opacity:1;fill:#000000;fill-opacity:1;fill-rule:evenodd;stroke:none;stroke-width:140;stroke-linecap:round;stroke-linejoin:round;stroke-miterlimit:4;stroke-dasharray:none;stroke-dashoffset:0;stroke-opacity:1;color-rendering:auto;image-rendering:auto;shape-rendering:auto;text-rendering:auto;enable-background:accumulate"
       d="M 1345.752 2240.834 C 1340.8275 2240.8044 1335.906 2240.8434 1330.9883 2240.9492 C 1193.292 2243.9117 1058.8119 2299.7037 959.9707 2396.7324 C 931.82178 2424.3652 906.96604 2454.9514 885.67969 2487.7441 C 875.96238 2468.2392 864.77717 2449.2905 852.00586 2431.1289 C 811.38975 2373.3704 756.63265 2326.3305 693.10547 2295.0918 C 629.72337 2263.9244 559.90592 2249.4024 490.61133 2250.375 C 345.28777 2252.4146 207.34897 2322.9964 117.82031 2435.8184 C 28.537342 2548.3306 -8.0674896 2695.7463 13.455078 2836.4102 C 32.794296 2962.8044 97.928856 3079.7886 195.18359 3162.8008 C 292.4384 3245.8129 418.20144 3291.7689 546.06445 3291.0195 A 70.007 70.007 0 1 0 545.24414 3151.0215 C 451.96231 3151.5682 357.02597 3116.8775 286.07422 3056.3164 C 215.12242 2995.7552 165.95258 2907.4447 151.84375 2815.2344 C 136.23132 2713.1971 164.14943 2602.6574 227.48633 2522.8418 C 290.57755 2443.3357 392.39825 2391.7673 492.57617 2390.3613 C 540.8246 2389.6841 589.21791 2400.0164 631.32617 2420.7227 C 673.28935 2441.3575 710.48254 2473.2592 737.48633 2511.6602 C 764.51009 2550.0896 782.64016 2596.8318 791.76172 2646.2031 C 796.55492 2672.1468 798.94837 2699.5207 800.07617 2728.082 C 796.73228 2758.8862 796.02786 2790.0495 798.07812 2821.2031 L 798.07812 3110.084 L 797.97656 3121.209 A 70.007 70.007 0 0 0 798.07812 3124.998 L 798.07812 3202.9863 A 70.007 70.007 0 0 0 868.07812 3272.9863 L 1814.0781 3272.9863 A 70.007 70.007 0 0 0 1884.0781 3202.9863 L 1884.0781 2831.5977 C 1895.6494 2693.9811 1853.7247 2554.3792 1767.4453 2446.0605 C 1675.3749 2330.4713 1537.2894 2256.1451 1390.1035 2242.9492 C 1375.3228 2241.624 1360.5254 2240.9229 1345.752 2240.834 z M 1264.0508 2388.998 A 70.007 70.007 0 0 0 1276.2852 2389.4336 C 1316.793 2387.8104 1360.3259 2404.38 1389.502 2432.5273 C 1425.738 2467.4857 1446.13 2525.2146 1445.5293 2583.0098 C 1444.915 2642.1176 1424.8466 2704.2784 1394.4199 2764.0801 C 1304.6138 2940.5875 1135.165 3077.9882 943.91016 3129.3848 A 70.007 70.007 0 0 0 938.07812 3131.1797 L 938.07812 3110.7168 L 940.82422 2809.8633 C 941.04555 2785.6143 941.20906 2760.6147 940.50586 2735.0215 C 952.47446 2645.7334 994.32912 2559.1862 1058.0449 2496.6387 C 1113.5344 2442.1667 1186.9144 2404.6033 1264.0508 2388.998 z M 1561.7207 2446.7812 C 1598.3082 2470.3973 1631.1315 2499.6313 1657.9395 2533.2871 C 1720.8541 2612.2728 1752.6513 2718.0878 1744.6152 2818.9863 L 1744.0781 2818.9863 L 1744.0781 2825.1602 C 1743.593 2830.2129 1743.0081 2835.2508 1742.3203 2840.2715 A 70.007 70.007 0 0 0 1744.0781 2869.3418 L 1744.0781 3132.9863 L 1256.1133 3132.9863 C 1366.0144 3053.8429 1457.3703 2949.0828 1519.1973 2827.5664 C 1555.8959 2755.4376 1584.5974 2673.3743 1585.5215 2584.4648 C 1586.0009 2538.3351 1578.5292 2491.0489 1561.7207 2446.7812 z "
       transform="translate(0,-1048)"
       id="path4370-9-0-9-6-9" />
  </g>
</svg>
