<?xml version="1.0" encoding="UTF-8" standalone="no"?>
<!-- Created with Inkscape (http://www.inkscape.org/) -->

<svg
   xmlns:dc="http://purl.org/dc/elements/1.1/"
   xmlns:cc="http://creativecommons.org/ns#"
   xmlns:rdf="http://www.w3.org/1999/02/22-rdf-syntax-ns#"
   xmlns:svg="http://www.w3.org/2000/svg"
   xmlns="http://www.w3.org/2000/svg"
   xmlns:sodipodi="http://sodipodi.sourceforge.net/DTD/sodipodi-0.dtd"
   xmlns:inkscape="http://www.inkscape.org/namespaces/inkscape"
   width="2000"
   height="2048"
   id="svg2992"
   version="1.1"
   inkscape:version="0.91 r13725"
   sodipodi:docname="ന്തൂ.svg">
  <defs
     id="defs5498">
    <inkscape:path-effect
       effect="spiro"
       id="path-effect4338"
       is_visible="true" />
    <inkscape:path-effect
       effect="spiro"
       id="path-effect4222"
       is_visible="true" />
    <inkscape:path-effect
       effect="spiro"
       id="path-effect4199"
       is_visible="true" />
    <inkscape:path-effect
       effect="spiro"
       id="path-effect4195"
       is_visible="true" />
    <inkscape:path-effect
       effect="spiro"
       id="path-effect4191"
       is_visible="true" />
    <inkscape:path-effect
       effect="spiro"
       id="path-effect3782"
       is_visible="true" />
    <inkscape:path-effect
       effect="spiro"
       id="path-effect3846"
       is_visible="true" />
    <inkscape:path-effect
       effect="spiro"
       id="path-effect3801"
       is_visible="true" />
    <inkscape:path-effect
       is_visible="true"
       id="path-effect4372-5-0-8-9-1"
       effect="spiro" />
    <inkscape:path-effect
       is_visible="true"
       id="path-effect4372-5-0-8-9-1-2"
       effect="spiro" />
    <inkscape:path-effect
       is_visible="true"
       id="path-effect4372-5-0-8-9-1-2-1"
       effect="spiro" />
    <inkscape:path-effect
       is_visible="true"
       id="path-effect4372-5-0-8-9-1-2-1-5"
       effect="spiro" />
    <inkscape:path-effect
       is_visible="true"
       id="path-effect4372-5-0-8-9-1-2-4"
       effect="spiro" />
    <inkscape:path-effect
       is_visible="true"
       id="path-effect4372-5-0-8-9-1-2-1-9"
       effect="spiro" />
    <inkscape:path-effect
       is_visible="true"
       id="path-effect4372-5-0-8-9-1-2-1-56"
       effect="spiro" />
  </defs>
  <sodipodi:namedview
     inkscape:window-height="845"
     inkscape:window-width="1600"
     inkscape:pageshadow="2"
     inkscape:pageopacity="0.0"
     borderopacity="1.0"
     bordercolor="#666666"
     pagecolor="#ffffff"
     id="base"
     showgrid="true"
     showguides="true"
     inkscape:guide-bbox="true"
     inkscape:zoom="0.32024907"
     inkscape:cx="-13.33373"
     inkscape:cy="-507.59872"
     inkscape:window-x="1600"
     inkscape:window-y="26"
     inkscape:current-layer="layer1"
     inkscape:window-maximized="1">
    <sodipodi:guide
       orientation="horizontal"
       position="0,600"
       id="guide5596" />
    <inkscape:grid
       type="xygrid"
       id="grid3769"
       empspacing="3"
       visible="true"
       enabled="true"
       snapvisiblegridlinesonly="true"
       spacingx="4px"
       units="px"
       dotted="true"
       spacingy="4px" />
    <sodipodi:guide
       orientation="0,1"
       position="1056,1584"
       id="guide2985" />
    <sodipodi:guide
       position="6240,1710"
       orientation="0,1"
       id="guide4170"
       inkscape:label=""
       inkscape:color="rgb(0,0,255)" />
    <sodipodi:guide
       position="-240,1624"
       orientation="0,1"
       id="guide4155"
       inkscape:label=""
       inkscape:color="rgb(0,0,255)" />
  </sodipodi:namedview>
  <metadata
     id="metadata5594">
    <rdf:RDF>
      <cc:Work
         rdf:about="">
        <dc:format>image/svg+xml</dc:format>
        <dc:type
           rdf:resource="http://purl.org/dc/dcmitype/StillImage" />
        <dc:title />
      </cc:Work>
    </rdf:RDF>
  </metadata>
  <g
     inkscape:label="Layer 1"
     inkscape:groupmode="layer"
     id="layer1"
     transform="translate(0,1048)">
    <path
       style="color:#000000;font-style:normal;font-variant:normal;font-weight:normal;font-stretch:normal;font-size:medium;line-height:normal;font-family:sans-serif;text-indent:0;text-align:start;text-decoration:none;text-decoration-line:none;text-decoration-style:solid;text-decoration-color:#000000;letter-spacing:normal;word-spacing:normal;text-transform:none;direction:ltr;block-progression:tb;writing-mode:lr-tb;baseline-shift:baseline;text-anchor:start;white-space:normal;clip-rule:nonzero;display:inline;overflow:visible;visibility:visible;opacity:1;isolation:auto;mix-blend-mode:normal;color-interpolation:sRGB;color-interpolation-filters:linearRGB;solid-color:#000000;solid-opacity:1;fill:#000000;fill-opacity:1;fill-rule:evenodd;stroke:none;stroke-width:140;stroke-linecap:round;stroke-linejoin:round;stroke-miterlimit:4;stroke-dasharray:none;stroke-dashoffset:0;stroke-opacity:1;color-rendering:auto;image-rendering:auto;shape-rendering:auto;text-rendering:auto;enable-background:accumulate"
       d="m 3820.4935,-609.44538 c -31.6852,-0.14283 -63.1453,1.79397 -93.9297,5.36914 -77.4315,8.99258 -154.5036,28.76239 -226.9023,60.03711 -93.9757,-41.1645 -198.2304,-58.16624 -300.9707,-48.05664 -74.6728,7.34777 -148.8498,28.79528 -215.9688,66.42187 -67.2908,37.72298 -125.4711,90.88701 -168.7753,155.11328 -7.3327,10.87544 -14.0125,22.06548 -20.4024,33.38281 -10.2603,-19.75076 -21.716,-39.01765 -34.7714,-57.48242 -46.0081,-65.07099 -108.1316,-118.20223 -180.3926,-152.92773 -72.1478,-34.67109 -151.9843,-50.02693 -231.0059,-46.48047 -134.4651,6.03475 -263.0971,67.0994 -352.7793,167.4707 -89.6821,100.37131 -135.9384,235.04018 -126.8574,369.333983 9.081,134.293807 73.0456,261.508477 175.4238,348.892587 102.3783,87.38411 238.0598,130.57374 372.1133,118.45117 a 70.007,70.007 0 1 0 -12.6094,-139.43164 c -95.1869,8.60784 -195.9198,-23.4573 -268.6152,-85.50586 -72.6954,-62.04856 -120.1827,-156.493971 -126.6309,-251.851567 -6.4481,-95.357583 27.892,-195.339023 91.5723,-266.609373 63.6804,-71.27034 159.179,-116.60555 254.6582,-120.89063 56.5386,-2.53743 113.9306,8.70228 164.0898,32.80664 50.0461,24.04996 94.389,61.83834 126.7208,107.56641 32.3664,45.77718 53.9768,101.17968 65.1132,159.55078 5.782,30.30637 8.7845,62.104433 10.3985,95.035163 -1.8122,37.738989 -1.5902,74.586642 -1.1934,110.162105 l 3.1582,283.111332 a 70.007,70.007 0 0 0 139.9961,-0.8125 l -0.1367,-297.876957 c -0.014,-30.5383986 -0.1741,-61.994526 -1.5411,-94.08594 1.4439,-26.45419 3.9536,-52.124393 8.3848,-76.773433 10.2325,-56.91886 30.6574,-111.19341 61.3867,-156.76953 30.7392,-45.59059 72.916,-84.21451 121.1563,-111.25782 48.4122,-27.13969 104.0794,-43.5945 161.2168,-49.21679 41.7908,-4.1122 84.3613,-2.00173 126.0195,5.56054 -9.6759,7.81906 -19.2256,15.82562 -28.4883,24.24414 -116.763,106.12143 -193.8252,258.7619 -192.625,421.1113334 0.7511,101.5971666 32.8718,205.5150666 102.7539,285.9941366 34.9141,40.20835 78.4069,73.42419 128.3243,95.44336 50.023,22.06579 105.4182,32.3277 161.1972,27.71289 104.2509,-8.62505 194.943,-67.55539 253.5508,-147.99804 57.9198,-79.49833 83.0476,-175.303554 84.4336,-268.2812526 2.4758,-166.0847674 -70.6719,-327.6897374 -194.4316,-437.2851574 -0.685,-0.60652 -1.4121,-1.15674 -2.0997,-1.75977 30.0621,-7.70741 60.7564,-13.39306 91.6797,-16.98437 102.2895,-11.87949 206.1635,-0.0254 287.1739,46.42383 40.3441,23.13224 75.159,55.01669 98.8515,92.14258 23.5389,36.88526 36.5802,80.50721 35.6074,121.83203 -1.0697,45.44602 -19.7969,92.14352 -50.4238,125.736323 -30.6269,33.59282 -75.4007,56.544873 -120.5547,61.798831 a 70.007,70.007 0 0 0 16.0957,139.072266 c 25.7385,-2.96247 52.9996,0.9967 76.8321,11.1582 23.8326,10.16154 45.5638,27.09174 61.2461,47.71485 15.6822,20.62312 26.1901,46.08818 29.6132,71.76953 3.4231,25.68103 -0.046,53.01014 -9.7793,77.02148 -15.5951,38.47265 -49.6895,73.65064 -91.7246,97.6875 -42.7454,24.44309 -94.2188,39.19033 -149.0683,47.54102 -111.6429,16.99733 -230.9947,12.0496 -355.2481,12.18359 l -1320.1503,1.42383 c -59.9077,0.0646 -128.9592,-2.94106 -201.6172,17.44727 -37.1914,10.43614 -75.8552,27.87387 -108.9551,58.0664 -33.8691,30.89412 -60.0758,74.01104 -63.9824,126.20117 -4.1371,55.2691 17.8938,104.39299 50.6933,140.78711 31.9955,35.5019 72.0464,57.15483 111.4375,70.32813 77.0395,25.76376 151.4915,22.32921 215.2051,22.04101 l 2015.3945,-9.11523 a 70.007,70.007 0 1 0 -0.6328,-140 l -2015.3945,9.11719 c -65.9242,0.2982 -124.2631,0.53589 -170.1699,-14.81641 -22.082,-7.38472 -40.4425,-18.63265 -51.8418,-31.28125 -10.5952,-11.75638 -15.7834,-27.24168 -15.0821,-36.61133 0.6706,-8.95861 7.2862,-22.78663 18.7208,-33.21679 12.2037,-11.13178 30.5835,-20.57435 52.4316,-26.70508 45.4209,-12.74542 101.2115,-12.17457 163.9434,-12.24219 l 1320.1503,-1.42383 c 119.9263,-0.12933 246.4149,5.97752 376.1699,-13.77734 65.8495,-10.02541 134.2522,-28.25157 197.4922,-64.41406 63.9504,-36.56872 121.7028,-91.95222 151.9727,-166.62696 a 70.007,70.007 0 0 0 0,-0.002 c 19.0041,-46.88336 25.4907,-97.96325 18.8067,-148.10938 -6.6841,-50.1458 -26.3238,-97.74645 -56.9453,-138.015621 -17.6034,-23.149548 -38.5989,-43.330249 -62.0352,-60.175781 7.0816,-6.520892 13.9093,-13.349909 20.4316,-20.503907 54.0416,-59.274968 85.0402,-136.573561 86.9278,-216.763671 a 70.007,70.007 0 0 0 0,-0.002 c 1.6975,-72.11474 -20.0493,-141.67182 -57.5528,-200.43946 -37.35,-58.52699 -89.1367,-104.97187 -147.2304,-138.28125 -86.8989,-49.82553 -183.9755,-68.97582 -279.0313,-69.40429 z m -322.3984,222.43164 c 22.0954,13.39952 43.0203,28.55025 62.2246,45.55664 92.5522,81.95958 149.0926,207.56915 147.2617,330.388669 -1.0258,68.815853 -20.2378,136.643821 -57.6015,187.927731 -36.6758,50.33961 -94.9317,86.19744 -151.9414,90.91407 -30.8615,2.55327 -63.6319,-3.26026 -93.1504,-16.28125 -29.6243,-13.06763 -57.0336,-33.70799 -79.1192,-59.14258 -44.1169,-50.80683 -67.9325,-122.96732 -68.4668,-195.2382826 -0.8607,-116.4292474 57.2435,-235.0880974 146.7891,-316.4726574 28.4496,-25.85676 60.0861,-48.4095 94.0039,-67.65234 z"
       id="path4370-9-0-3-5-4"
       inkscape:connector-curvature="0" />
    <path
       sodipodi:nodetypes="caccsaaaaaacassasc"
       inkscape:connector-curvature="0"
       inkscape:original-d="m 3039.5039,1954.1153 c -58.312,38.3089 -327.9811,-760.6877 -58.458,-864.5028 221.6539,-85.3769 442.4902,368.9247 441.2836,559.5048 l 0.1364,297.8753 -3.1576,-283.1114 c -2.5682,-230.2653 182.023,-547.6918 416.7709,-572.5632 254.565,-26.9711 549.8941,257.3764 572.0275,512.4075 12.7511,146.9242 -126.4128,341.4713 -273.7636,347.5592 -154.6837,6.3909 -320.35,-185.1373 -316.505,-339.9052 6.32,-254.3888 293.9606,-508.6045 547.3341,-532.1727 199.0389,-18.5142 475.1945,133.1854 499.6898,331.577 14.1182,114.3451 -232.8688,255.4196 -232.8688,255.4196 0,0 269.8768,182.5672 230.7892,303.5017 -70.8143,219.0945 -543.4578,200.989 -660.8375,201.1156 l -1320.1512,1.4236 c -78.6803,0.085 -301.8948,25.5875 -304.8255,136.9397 -3.0294,115.1046 250.7927,158.1881 307.2155,157.9329 l 2015.3941,-9.1165"
       inkscape:path-effect="#path-effect4372-5-0-8-9-1-2"
       id="path4370-9-0-3-5-4-6"
       d="m 3039.5039,1954.1153 c -114.6202,10.3652 -232.8276,-27.2628 -320.3644,-101.9792 -87.5369,-74.7163 -143.2625,-185.5473 -151.0271,-300.373 -7.7645,-114.8257 32.5332,-232.1498 109.2144,-317.9707 76.6813,-85.8208 188.7469,-139.02 303.7191,-144.1799 67.7801,-3.0419 136.3947,10.2555 197.5482,39.6432 61.1535,29.3877 114.3862,74.8475 153.5561,130.2471 39.1699,55.3995 64.0015,120.1977 76.7167,186.8439 12.7151,66.6462 13.4315,134.9223 13.4626,202.7706 l 0.1364,297.8753 -3.1576,-283.1114 c -0.7386,-66.2193 -0.7465,-132.8639 10.9708,-198.0424 11.7174,-65.1785 35.2201,-128.6072 72.2417,-183.5156 37.0217,-54.9084 87.1997,-100.8031 144.9653,-133.1862 57.7656,-32.3831 122.688,-51.334 188.5931,-57.819 143.7738,-14.1473 293.0255,32.7921 401.1815,128.5696 108.156,95.7775 172.9993,239.3858 170.846,383.8379 -1.2059,80.8968 -23.3748,162.7133 -71.0166,228.1044 -47.6418,65.3912 -122.1167,112.784 -202.747,119.4548 -43.3202,3.584 -87.402,-4.4532 -127.1728,-21.9966 -39.7708,-17.5434 -75.2216,-44.4714 -103.7214,-77.2928 -56.9996,-65.643 -84.9681,-153.6817 -85.6108,-240.6158 -1.0305,-139.3893 66.5521,-275.0391 169.7065,-368.792 103.1544,-93.753 239.1651,-147.3002 377.6276,-163.3807 112.7134,-13.0901 231.6299,-1.2127 330.0677,55.2289 49.2189,28.2208 92.5198,67.3851 123.0411,115.2116 30.5212,47.8264 47.9161,104.4167 46.581,161.1365 -1.4787,62.8181 -26.3421,124.8175 -68.6763,171.2513 -42.3343,46.4339 -101.7781,76.906 -164.1925,84.1683 37.998,-4.3735 77.1077,1.3063 112.2919,16.3078 35.1843,15.0016 66.36,39.2895 89.5119,69.7357 23.1519,30.4461 38.2253,66.9785 43.2789,104.8921 5.0535,37.9136 0.075,77.1187 -14.2935,112.5661 -22.9325,56.5737 -68.8563,101.8551 -121.849,132.1579 -52.9926,30.3028 -112.931,46.7896 -173.2805,55.9776 -120.699,18.3761 -243.6182,12.8484 -365.708,12.9801 l -1320.1512,1.4236 c -61.3198,0.066 -123.7401,-1.7221 -182.7796,14.8448 -29.5197,8.2834 -58.0413,21.7239 -80.6931,42.386 -22.6518,20.6622 -39.0642,49.1345 -41.3528,79.7089 -2.4192,32.3194 11.1904,64.6239 32.8878,88.6992 21.6974,24.0752 50.9042,40.5254 81.6407,50.8045 61.4732,20.558 127.8681,18.7224 192.687,18.4292 l 2015.3941,-9.1165"
       style="fill:none;fill-rule:evenodd;stroke:#000000;stroke-width:140;stroke-linecap:round;stroke-linejoin:round;stroke-miterlimit:4;stroke-dasharray:none;stroke-opacity:1" />
    <path
       sodipodi:nodetypes="cssccsaaaaaacassasc"
       inkscape:connector-curvature="0"
       inkscape:original-d="m -562.27339,363.56626 c -32.66449,21.48274 -418.38939,-189.92992 -458.60811,-424.739108 -35.7722,-208.848822 262.4502,-471.468212 396.73596,-523.248882 234.59881,-90.46145 468.33226,422.89591 467.05515,624.82594 l 0.14445,321.61515 -3.34202,-305.971993 C -162.95286,-187.93188 23.390536,-568.15135 283.02908,-586.8598 527.19333,-604.45323 763.96544,-292.39428 782.29636,-48.284286 795.01108,121.03578 665.39748,377.56333 495.66718,372.81222 330.21223,368.18078 214.9946,111.00715 239.65843,-52.664731 279.31211,-315.81091 568.53221,-578.57763 834.57038,-585.05999 c 164.28555,-4.00303 360.81432,147.64877 382.95002,310.48543 14.2338,104.70886 -184.0171,258.140745 -184.0171,258.140745 0,0 248.529,173.541755 222.4095,293.473515 -47.3457,217.39485 -463.62243,316.00365 -587.85725,316.13779 l -1397.24965,1.50839 c -83.27531,0.0901 -289.2797,39.26141 -291.4022,148.21766 -2.1859,112.21 234.21386,164.50625 293.93174,164.21596 L 1260.431,897.46007"
       inkscape:path-effect="#path-effect4372-5-0-8-9-1-2-1"
       id="path4370-9-0-3-5-4-6-4"
       d="m -562.27339,363.56626 c -112.2606,-8.03939 -221.32557,-55.34954 -303.89978,-131.82551 -82.57422,-76.47597 -138.09663,-181.598156 -154.70833,-292.913598 -18.1606,-121.695142 11.1103,-250.746742 84.12234,-349.785872 73.0121,-99.03913 189.81109,-165.77833 312.61362,-173.46301 74.04199,-4.63337 149.21525,11.77291 214.83141,46.388 65.61615,34.61509 121.29972,87.21025 161.52315,149.54611 40.22343,62.33586 64.90469,133.90292 77.47843,207.01643 12.57375,73.11351 13.18884,147.688588 13.22216,221.8754 l 0.14445,321.61515 -3.34202,-305.971993 c -0.80264,-73.484469 -1.07243,-147.323774 9.95779,-219.980127 11.03022,-72.65635 33.48547,-144.07122 70.980745,-207.27499 37.495277,-63.20376 89.979253,-117.75182 152.906766,-155.70889 62.927509,-37.95708 135.987789,-59.0941 209.471739,-59.94316 134.84716,-1.55807 265.86845,66.14104 353.90966,168.29254 88.04121,102.1515 135.06213,235.82039 145.35762,370.282974 7.32613,95.681779 -4.1025,195.674956 -52.36876,278.614946 -24.13313,41.47 -57.33305,77.99162 -97.84949,103.69351 -40.51644,25.70189 -88.45304,40.27444 -136.41093,38.78805 -46.8321,-1.4515 -92.7303,-18.18295 -130.95588,-45.27829 C 326.48572,300.43859 295.83598,263.25204 274.32956,221.62481 231.31673,138.37033 225.40574,39.954232 239.65843,-52.664731 261.72428,-196.05629 331.62048,-332.47569 438.60451,-430.46783 c 106.98402,-97.99214 250.89325,-155.99781 395.96587,-154.59216 90.85648,0.88033 183.06632,25.45892 255.96292,79.69694 36.4483,27.11901 67.718,61.42262 90.0565,100.9816 22.3384,39.55899 35.6167,84.39552 36.9306,129.80689 1.6406,56.70229 -15.7183,113.79062 -48.6459,159.9817 -32.9276,46.191078 -81.2338,81.218436 -135.3712,98.159045 66.8705,10.812219 129.0682,48.204962 169.9824,102.191991 40.9142,53.987024 60.0976,123.978234 52.4271,191.281524 -6.9386,60.88126 -35.1946,118.46389 -75.8746,164.2876 -40.6799,45.82371 -93.3461,80.17922 -150.0339,103.44216 -113.37559,46.52589 -239.39807,48.27573 -361.94875,48.40803 l -1397.24965,1.50839 c -60.30474,0.0651 -122.08538,-0.34979 -178.89111,19.8931 -28.40287,10.12144 -55.23872,25.6709 -75.92311,47.60996 -20.68438,21.93907 -34.89368,50.60986 -36.58798,80.7146 -1.7758,31.55235 10.3332,63.05832 30.27064,87.57772 19.93748,24.51941 47.26273,42.3885 76.62883,54.06481 58.73221,23.35263 123.82845,22.88067 187.03227,22.57343 L 1260.431,897.46007"
       style="fill:none;fill-rule:evenodd;stroke:#000000;stroke-width:70;stroke-linecap:round;stroke-linejoin:round;stroke-miterlimit:4;stroke-dasharray:none;stroke-opacity:1" />
    <path
       style="color:#000000;font-style:normal;font-variant:normal;font-weight:normal;font-stretch:normal;font-size:medium;line-height:normal;font-family:sans-serif;text-indent:0;text-align:start;text-decoration:none;text-decoration-line:none;text-decoration-style:solid;text-decoration-color:#000000;letter-spacing:normal;word-spacing:normal;text-transform:none;direction:ltr;block-progression:tb;writing-mode:lr-tb;baseline-shift:baseline;text-anchor:start;white-space:normal;clip-rule:nonzero;display:inline;overflow:visible;visibility:visible;opacity:1;isolation:auto;mix-blend-mode:normal;color-interpolation:sRGB;color-interpolation-filters:linearRGB;solid-color:#000000;solid-opacity:1;fill:#000000;fill-opacity:1;fill-rule:evenodd;stroke:none;stroke-width:200;stroke-linecap:round;stroke-linejoin:round;stroke-miterlimit:4;stroke-dasharray:none;stroke-dashoffset:0;stroke-opacity:1;color-rendering:auto;image-rendering:auto;shape-rendering:auto;text-rendering:auto;enable-background:accumulate"
       d="m 5400.8359,-706.38672 c -167.4786,-0.67579 -325.4395,81.9882 -423.9394,214.97656 -98.0993,132.44747 -130.1598,303.52062 -92.8008,461.970707 30.3676,128.797612 104.8286,244.324513 209.5859,325.175783 104.7574,80.85125 235.3828,123.60763 367.6719,120.34765 a 100.01,100.01 0 1 0 -4.9277,-199.9375 c -85.1595,2.09857 -173.1106,-26.69127 -240.5469,-78.73828 -67.4362,-52.046993 -117.5703,-129.8321699 -137.1191,-212.744138 -23.7541,-100.747612 -1.5468,-215.483842 58.8554,-297.035152 60.0017,-81.01044 163.5901,-134.41635 262.4141,-134.01758 53.6344,0.21642 108.3168,15.04988 154.9531,41.9707 46.6262,26.91491 87.4102,67.17783 116.7598,114.43555 a 100.01,100.01 0 0 0 0,0.002 c 29.4267,47.38178 48.891,103.96863 58.9297,163.92774 4.8839,29.17084 7.5955,59.8158 9.123,91.716792 -1.8231,41.860882 -1.5276,82.435448 -1.0937,121.332032 l 3.1582,283.111326 a 100.01,100.01 0 0 0 199.9922,-1.16015 l -0.1368,-297.875004 c -0.015,-33.96509 -0.1231,-69.172764 -1.6035,-105.34375 1.3097,-25.507596 3.5038,-50.178396 7.1875,-73.837896 l 0,-0.002 c 9.1362,-58.67633 27.4612,-114.34634 55.42,-161.64648 l 0,-0.002 c 27.9305,-47.25121 66.8434,-88.37624 112.0292,-117.93554 45.2894,-29.62699 98.6064,-48.92516 153.1563,-55.76367 24.8298,-3.11273 50.183,-3.32396 75.5371,-1.15625 -5.6281,5.23946 -11.2682,10.46412 -16.7344,15.91211 -121.553,121.14824 -195.5146,289.70702 -189.4218,465.544917 3.6567,105.535367 36.6891,214.639763 110.9628,301.427733 37.1539,43.41375 83.6254,79.74986 137.7969,104.08789 54.3576,24.42155 114.8782,35.96271 176.4551,30.54102 57.0931,-5.02691 110.5717,-24.2395 157.207,-53.22461 46.4813,-28.8894 85.0833,-66.73896 115.5137,-109.27344 60.766,-84.93621 86.6615,-184.136226 92.1074,-278.939452 9.6453,-167.906868 -44.8986,-337.380758 -155.6426,-465.822268 7.8009,-1.15532 15.6222,-2.15987 23.459,-2.99414 100.052,-10.65099 201.2341,6.37712 275.4532,55.00977 36.9574,24.21663 67.9076,56.63536 87.7578,92.6289 19.6792,35.68352 29.1608,77.053 26.2011,114.6543 -3.0784,39.11058 -20.416,79.11816 -46.8476,108.10938 -26.4315,28.991086 -64.6716,49.943121 -103.332,56.613276 a 100.01,100.01 0 0 0 28.4375,197.886724 c 20.4843,-2.35773 42.6692,0.86397 61.6367,8.95117 18.9676,8.08723 36.6518,21.86605 49.1328,38.27929 12.481,16.41324 21.0296,37.13545 23.7539,57.57422 2.7242,20.43818 -0.099,42.67666 -7.8457,61.78711 l 0,0 c -12.4505,30.71507 -41.4755,61.56259 -78.8144,82.91406 a 100.01,100.01 0 0 0 0,0.002 c -38.3535,21.93171 -86.1991,35.93396 -138.6914,43.92578 -107.7617,16.40645 -225.5851,11.70485 -350.7656,11.83984 l -1320.1504,1.42383 c -59.3026,0.0639 -131.195,-3.46163 -209.6895,18.56445 -40.4791,11.35873 -83.4886,30.50809 -121.0664,64.78516 -38.6764,35.27919 -69.0835,84.67084 -73.6836,146.125 -4.8733,65.10451 20.7685,121.43761 58.3262,163.11133 36.4089,40.39905 81.1088,64.28161 124.209,78.69531 83.7107,27.99476 161.6136,23.8759 224.8535,23.58984 L 7319.416,920 a 100.01,100.01 0 1 0 -0.9043,-199.99805 l -2015.3945,9.11524 c -66.3979,0.30034 -121.2819,-0.14628 -160.5176,-13.26758 -18.3728,-6.14432 -32.0883,-15.16261 -39.0742,-22.91406 -5.8371,-6.47679 -7.4144,-14.75288 -7.4492,-14.28711 -0.023,0.30542 2.3962,-7.24789 9.0234,-13.29297 7.7258,-7.04723 21.7581,-14.77623 40.3184,-19.98438 39.5844,-11.10766 92.5321,-11.05867 155.8691,-11.12695 l 1320.1524,-1.42383 c 118.999,-0.12832 247.0141,6.22665 380.6503,-14.11914 68.2067,-10.38428 140.2375,-29.35541 207.8692,-68.02929 68.6465,-39.25413 131.4703,-98.96808 164.8848,-181.4004 20.9902,-51.78364 28.1247,-107.95539 20.7421,-163.34375 l 0,-0.002 C 7388.203,150.53812 7366.6056,98.195326 7332.7832,53.716797 7319.334,36.030321 7304.1083,19.951272 7287.4883,5.5273438 c 55.9344,-62.3332258 89.8751,-141.3492138 96.4512,-224.8964838 6.3279,-80.39446 -12.9714,-158.97102 -50.4512,-226.93164 -37.3088,-67.65061 -91.2325,-122.67603 -153.2754,-163.33008 -123.7813,-81.10869 -270.9008,-101.0071 -406.2402,-86.59961 -68.9375,7.33871 -137.1368,23.85059 -202.0469,49.20117 -101.0929,-48.38499 -215.1662,-69.13472 -328.8985,-54.87695 -84.2749,10.56492 -165.9727,39.87565 -237.7675,86.8418 -65.0095,42.52731 -119.7896,98.44915 -161.6973,162.86328 -0.6662,-1.08919 -1.2455,-2.21089 -1.9199,-3.29688 -46.0279,-74.1126 -109.5634,-137.61892 -186.6738,-182.13086 -77.1001,-44.50601 -164.8961,-68.39773 -254.1329,-68.75781 z m 1160.5118,286.91406 c 14.4298,11.08648 28.1561,22.99508 40.7968,35.88282 85.9434,87.62272 132.7015,218.45415 125.5137,343.580074 -3.7815,65.828962 -22.2429,128.118872 -55.0957,174.039066 a 100.01,100.01 0 0 0 0,0.002 c -16.3788,22.89374 -36.5844,42.20183 -58.4297,55.7793 -21.6913,13.48173 -46.1285,21.83028 -69.1738,23.85937 -24.7747,2.18135 -52.2367,-2.64248 -76.9512,-13.74609 -24.9003,-11.18713 -48.5988,-29.249 -67.8086,-51.69531 -38.4532,-44.93215 -60.6883,-110.580658 -63.0351,-178.312504 -3.9467,-113.902876 46.9393,-233.452796 130.7285,-316.962896 27.7239,-27.63154 59.2848,-51.82469 93.4551,-72.42578 z"
       id="path4370-9-0-3-5-4-6-2"
       inkscape:connector-curvature="0" />
    <path
       style="color:#000000;font-style:normal;font-variant:normal;font-weight:normal;font-stretch:normal;font-size:medium;line-height:normal;font-family:sans-serif;text-indent:0;text-align:start;text-decoration:none;text-decoration-line:none;text-decoration-style:solid;text-decoration-color:#000000;letter-spacing:normal;word-spacing:normal;text-transform:none;direction:ltr;block-progression:tb;writing-mode:lr-tb;baseline-shift:baseline;text-anchor:start;white-space:normal;clip-rule:nonzero;display:inline;overflow:visible;visibility:visible;opacity:1;isolation:auto;mix-blend-mode:normal;color-interpolation:sRGB;color-interpolation-filters:linearRGB;solid-color:#000000;solid-opacity:1;fill:#000000;fill-opacity:1;fill-rule:evenodd;stroke:none;stroke-width:70;stroke-linecap:round;stroke-linejoin:round;stroke-miterlimit:4;stroke-dasharray:none;stroke-dashoffset:0;stroke-opacity:1;color-rendering:auto;image-rendering:auto;shape-rendering:auto;text-rendering:auto;enable-background:accumulate"
       d="m 222.41992,1260.8242 c -79.92622,0.9236 -158.878306,23.7934 -227.1445294,64.9707 -68.2565576,41.1714 -124.6326206,99.8904 -164.9316406,167.8203 -20.5477,34.6362 -36.71299,71.3323 -49.20703,109.086 -14.47341,-44.5081 -33.98338,-87.5953 -59.72266,-127.4844 -43.33934,-67.1647 -103.27224,-123.8964 -174.60156,-161.5254 -71.33688,-37.633 -152.69187,-55.4106 -233.34766,-50.3633 -134.02867,8.3872 -259.4667,80.2805 -338.60154,187.625 -78.978,107.1318 -110.0705,245.0232 -90.5664,375.7207 17.8173,119.394 76.976,231.4016 165.54294,313.4278 88.56698,82.0262 204.77383,132.4338 325.18164,141.0566 a 35.0035,35.0035 0 1 0 5,-69.8203 c -104.11338,-7.456 -206.03574,-51.668 -282.61718,-122.5938 -76.58146,-70.9258 -128.4669,-169.1655 -143.8731,-272.4023 -16.8171,-112.6927 10.6315,-232.905 77.67778,-323.8516 66.88933,-90.7337 175.05057,-152.3166 286.62696,-159.2988 67.42819,-4.2195 136.41903,10.8149 196.31445,42.4121 59.90298,31.6012 111.33778,80.0594 148.44531,137.5664 37.14288,57.5618 60.47085,124.6391 72.39453,193.9727 5.88255,34.2056 9.02945,69.1913 10.73047,104.7363 -1.9189,42.8827 -1.66784,85.4011 -1.21093,127.2324 l 3.34179,305.9707 a 35.0035,35.0035 0 0 0 69.99805,-0.3965 l -0.14453,-321.6152 c -0.0165,-36.6894 -0.15591,-73.92 -1.86524,-111.4512 1.40532,-29.6199 3.86518,-58.8757 8.22852,-87.6171 10.48304,-69.0521 31.7574,-136.1425 66.47852,-194.67 34.691533,-58.4776 83.284341,-108.855 140.882808,-143.5976 57.588802,-34.7369 124.757152,-54.1414 191.798832,-54.916 65.73669,-0.7596 131.24554,16.9502 190.54296,47.9941 -20.57419,14.6956 -40.35778,30.5057 -59.01171,47.5918 -113.31577,103.7917 -186.65027,247.2142 -209.89844,398.2891 -15.04081,97.7404 -9.40753,203.5918 38.16797,295.6777 23.82914,46.123 57.88793,87.6706 101.23828,118.3984 43.46339,30.808 95.66277,50.0195 150.11133,51.7071 55.75963,1.7282 110.2343,-15.0315 156.24218,-44.2168 45.87775,-29.1029 82.69482,-69.8347 109.35352,-115.6446 53.20912,-91.4337 64.695,-198.5953 57.01562,-298.8906 -10.77999,-140.7904 -59.86876,-281.5402 -153.74414,-390.4609 -17.88196,-20.7479 -37.41481,-40.1605 -58.30859,-58.0157 71.8657,-33.2413 150.52418,-51.3901 229.08984,-50.6289 84.77462,0.8214 169.78948,23.9564 235.40816,72.7793 32.7994,24.4041 60.7509,55.1862 80.4727,90.1114 19.6908,34.8701 31.2859,74.3463 32.4219,113.6093 1.4145,48.8892 -13.7698,98.8261 -42.1602,138.6524 -28.3904,39.8263 -70.6466,70.466 -117.3242,85.0723 a 35.0035,35.0035 0 0 0 4.86719,67.955 c 57.69431,9.3285 112.37401,42.2025 147.67381,88.7813 35.2998,46.5786 52.1648,108.1101 45.5469,166.1777 -6.0092,52.7265 -30.9158,104.0608 -67.2734,145.0156 -36.4891,41.103 -84.6137,72.7382 -137.14848,94.2969 -105.23339,43.1846 -226.45579,45.6571 -348.69922,45.7891 l -1397.24805,1.5078 c -60.11847,0.065 -126.09682,-1.0633 -190.60351,21.9238 -32.51354,11.5863 -64.25334,29.6413 -89.64064,56.5684 a 35.0035,35.0035 0 0 0 0,0 c -25.6369,27.192 -43.8251,62.935 -46.0664,102.7559 -2.3508,41.7698 13.2406,81.103 38.0606,111.6269 24.5618,30.2065 57.0199,51.0539 90.85152,64.5059 67.13353,26.6931 136.98838,25.3577 200.13476,25.0508 l 1987.09572,-9.6602 a 35.0035,35.0035 0 1 0 -0.3399,-69.998 l -1987.09566,9.6582 c -63.26126,0.3075 -123.5988,-0.086 -173.92969,-20.0977 -24.90063,-9.9008 -47.09315,-24.7888 -62.40625,-43.6211 -15.055,-18.5148 -23.6812,-42.1962 -22.4805,-63.5312 1.1476,-20.3885 11.3775,-41.9838 27.1094,-58.6699 15.9815,-16.9509 37.91287,-29.9939 62.20508,-38.6504 49.10475,-17.4987 106.6887,-17.7981 167.17969,-17.8633 l 1397.25,-1.5078 c 122.85794,-0.1327 253.6814,-1.1621 375.19922,-51.0293 60.84081,-24.9673 118.04921,-62.0415 162.91991,-112.586 45.0024,-50.6926 76.6066,-114.5244 84.4746,-183.5605 8.7231,-76.5389 -12.778,-154.9894 -59.3066,-216.3848 -28.1568,-37.1534 -64.8386,-67.1061 -106.2422,-87.7441 27.816,-19.403 52.4337,-43.3711 72.2363,-71.1504 37.4648,-52.5559 56.9975,-116.7951 55.1309,-181.3105 -1.4918,-51.5598 -16.4532,-101.7561 -41.4395,-146.004 -24.955,-44.1928 -59.5433,-82.0175 -99.6406,-111.8515 -80.17445,-59.653 -179.57728,-85.676 -276.51562,-86.6153 -102.41938,-0.9923 -203.56173,25.7389 -293.19922,74.004 -77.19587,-48.4378 -166.73029,-76.8699 -259.08594,-75.8028 z m 255.87891,158.8633 c 26.25319,19.8559 50.50278,42.4212 71.92383,67.2754 82.20704,95.3823 127.15971,221.9707 136.9707,350.1055 6.97289,91.0683 -4.3973,183.8935 -47.7207,258.3398 -21.60757,37.1301 -51.19252,69.4413 -86.34766,91.7422 -35.025,22.2183 -76.42198,34.604 -116.57812,33.3594 -39.21565,-1.2155 -78.81304,-15.4671 -111.80079,-38.8496 -33.10081,-23.4628 -60.34171,-56.2886 -79.52539,-93.42 -38.45014,-74.4231 -44.63837,-165.403 -31.17382,-252.9004 20.8835,-135.7083 87.34186,-265.1238 187.99414,-357.3164 23.60273,-21.6189 49.21502,-41.0845 76.25781,-58.3359 z"
       id="path4370-9-0-3-5-4-6-4-5"
       inkscape:connector-curvature="0" />
  </g>
</svg>
