<?xml version="1.0" encoding="UTF-8" standalone="no"?>
<!-- Created with Inkscape (http://www.inkscape.org/) -->

<svg
   xmlns:dc="http://purl.org/dc/elements/1.1/"
   xmlns:cc="http://creativecommons.org/ns#"
   xmlns:rdf="http://www.w3.org/1999/02/22-rdf-syntax-ns#"
   xmlns:svg="http://www.w3.org/2000/svg"
   xmlns="http://www.w3.org/2000/svg"
   xmlns:sodipodi="http://sodipodi.sourceforge.net/DTD/sodipodi-0.dtd"
   xmlns:inkscape="http://www.inkscape.org/namespaces/inkscape"
   width="2000"
   height="2048"
   id="svg2992"
   version="1.1"
   inkscape:version="0.91pre3 r13670"
   sodipodi:docname="ന്ദ.svg">
  <defs
     id="defs5498">
    <inkscape:path-effect
       effect="spiro"
       id="path-effect3846"
       is_visible="true" />
    <inkscape:path-effect
       effect="spiro"
       id="path-effect3801"
       is_visible="true" />
    <inkscape:path-effect
       effect="spiro"
       id="path-effect4372-5-0-6"
       is_visible="true" />
    <inkscape:path-effect
       effect="spiro"
       id="path-effect4372-5-0-6-9"
       is_visible="true" />
    <inkscape:path-effect
       effect="spiro"
       id="path-effect4372-5-0-6-9-1"
       is_visible="true" />
    <inkscape:path-effect
       effect="spiro"
       id="path-effect4372-5-0-6-9-2"
       is_visible="true" />
    <inkscape:path-effect
       effect="spiro"
       id="path-effect4372-5-0-6-9-6"
       is_visible="true" />
    <inkscape:path-effect
       effect="spiro"
       id="path-effect4372-5-0-7-0-2-7"
       is_visible="true" />
    <inkscape:path-effect
       effect="spiro"
       id="path-effect4372-5-0-7-0-2-7-8"
       is_visible="true" />
  </defs>
  <sodipodi:namedview
     inkscape:window-height="851"
     inkscape:window-width="1600"
     inkscape:pageshadow="2"
     inkscape:pageopacity="0.0"
     borderopacity="1.0"
     bordercolor="#666666"
     pagecolor="#ffffff"
     id="base"
     showgrid="true"
     showguides="true"
     inkscape:guide-bbox="true"
     inkscape:zoom="0.32102648"
     inkscape:cx="535.86383"
     inkscape:cy="1075.2073"
     inkscape:window-x="1599"
     inkscape:window-y="-1"
     inkscape:current-layer="layer1"
     inkscape:window-maximized="1">
    <sodipodi:guide
       orientation="horizontal"
       position="0,600"
       id="guide5596" />
    <inkscape:grid
       type="xygrid"
       id="grid3769"
       empspacing="3"
       visible="true"
       enabled="true"
       snapvisiblegridlinesonly="true"
       spacingx="4px"
       units="px"
       dotted="true"
       spacingy="4px" />
    <sodipodi:guide
       orientation="0,1"
       position="-1040,1600"
       id="guide2985" />
  </sodipodi:namedview>
  <metadata
     id="metadata5594">
    <rdf:RDF>
      <cc:Work
         rdf:about="">
        <dc:format>image/svg+xml</dc:format>
        <dc:type
           rdf:resource="http://purl.org/dc/dcmitype/StillImage" />
        <dc:title />
      </cc:Work>
    </rdf:RDF>
  </metadata>
  <g
     inkscape:label="Layer 1"
     inkscape:groupmode="layer"
     id="layer1"
     transform="translate(0,1048)">
    <path
       style="fill:none;fill-rule:evenodd;stroke:#000000;stroke-width:142.01115417;stroke-linecap:round;stroke-linejoin:round;stroke-miterlimit:4;stroke-dasharray:none;stroke-opacity:1"
       d="M 642.96001,340.08786 C 538.30399,328.67674 438.35474,278.27164 366.9628,200.90054 295.57086,123.52944 253.34982,19.857308 250.37472,-85.376929 c -2.9751,-105.234241 33.32132,-211.126151 100.22797,-292.407121 66.90665,-81.28096 163.84851,-137.25242 267.69267,-154.55809 64.15416,-10.69132 131.01708,-6.78123 192.66376,13.94912 61.64668,20.73036 117.50682,58.44574 159.56238,108.05814 42.0556,49.6124 69.8101,110.47057 84.2942,173.87619 14.4841,63.40562 15.8406,128.97359 16.3641,194.010403 l 3.0509,379.056297 -2.2624,-377.813907 c -0.3888,-64.927023 0.188,-130.443733 14.4604,-193.783843 14.2723,-63.3401 42.3149,-123.95768 84.3358,-173.45428 42.0209,-49.4966 97.3351,-87.2536 158.0684,-110.21293 60.7334,-22.95933 126.3676,-31.43676 191.2696,-29.5937 73.1856,2.07829 147.2624,17.51989 210.2655,54.81679 63.0031,37.2969 113.964,98.16985 129.5467,169.70745 7.46,34.24756 6.6662,70.4097 -3.4571,103.96659 -10.1233,33.55689 -29.6474,64.20703 -55.7433,87.60684 -26.0959,23.3998 -58.4245,39.301327 -92.319,48.229522 -33.8944,8.928195 -69.1684,10.958492 -104.1828,12.551541 l -69.5429,3.16399 59.6974,0.393 c 34.2488,0.225467 68.6944,0.745863 102.3551,7.069497 33.6606,6.323634 66.4777,18.528001 94.615,38.055489 28.1373,19.5274881 51.3296,46.314584 65.778,77.367357 14.4483,31.052773 20.0627,66.164214 15.9564,100.166694 -7.002,57.97959 -42.5762,111.0688 -91.6242,142.76996 -49.0479,31.70116 -110.4151,42.45522 -168.0581,33.07718 -38.6352,-6.28562 -75.8235,-21.30611 -107.9864,-43.61604"
       id="path4370-9-0-9-5-7-8"
       inkscape:path-effect="#path-effect4372-5-0-7-0-2-7"
       inkscape:original-d="m 642.96001,340.08786 c -571.667447,-68.90274 -294.05213,-762.57355 -24.66465,-872.43 205.92177,-83.97509 453.25464,407.41865 452.88444,489.893853 l 3.0509,379.056297 -2.2624,-377.813907 c -14.5046,-216.659783 224.5177,-477.455603 448.1342,-507.044753 134.5895,-17.80901 326.6012,89.4059 339.8122,224.52424 11.6531,119.18438 -146.2943,247.376753 -255.7022,252.354493 l -69.5429,3.16399 59.6974,0.393 c 120.6101,0.79399 283.3385,102.65123 278.7045,222.659037 -4.079,105.63446 -156.2387,164.79587 -259.6823,175.84714 -38.5214,4.11538 -63.5739,-21.42883 -107.9864,-43.61604"
       inkscape:connector-curvature="0"
       sodipodi:nodetypes="cacccaascsaac" />
    <path
       style="color:#000000;font-style:normal;font-variant:normal;font-weight:normal;font-stretch:normal;font-size:medium;line-height:normal;font-family:sans-serif;text-indent:0;text-align:start;text-decoration:none;text-decoration-line:none;text-decoration-style:solid;text-decoration-color:#000000;letter-spacing:normal;word-spacing:normal;text-transform:none;direction:ltr;block-progression:tb;writing-mode:lr-tb;baseline-shift:baseline;text-anchor:start;white-space:normal;clip-rule:nonzero;display:inline;overflow:visible;visibility:visible;opacity:1;isolation:auto;mix-blend-mode:normal;color-interpolation:sRGB;color-interpolation-filters:linearRGB;solid-color:#000000;solid-opacity:1;fill:#000000;fill-opacity:1;fill-rule:evenodd;stroke:none;stroke-width:142.01115417;stroke-linecap:round;stroke-linejoin:round;stroke-miterlimit:4;stroke-dasharray:none;stroke-dashoffset:0;stroke-opacity:1;color-rendering:auto;image-rendering:auto;shape-rendering:auto;text-rendering:auto;enable-background:accumulate"
       d="m -556.39648,-617.33789 c -63.81699,0.77194 -128.87176,10.84279 -191.13086,34.37891 -71.4797,27.02181 -136.70237,71.32613 -187.08985,130.67773 -17.3004,20.37821 -32.33437,42.20317 -45.49414,64.94141 -13.3329,-23.38595 -28.68787,-45.83328 -46.45507,-66.79297 -50.6319,-59.72985 -117.0686,-104.55232 -191.0938,-129.44531 -73.7921,-24.81461 -152.1528,-29.15527 -226.9668,-16.6875 -121.2635,20.20861 -232.7138,84.55724 -310.8437,179.47265 -78.1299,94.91545 -119.857,216.65231 -116.3828,339.539064 3.474,122.886831 52.0133,242.072166 135.3808,332.421876 83.3676,90.34975 198.2729,148.29775 320.4844,161.62305 a 71.012678,71.012678 0 1 0 15.3926,-141.17383 c -87.1005,-9.49697 -172.0916,-52.35951 -231.5078,-116.75196 -59.4163,-64.392486 -95.319,-152.5511749 -97.7949,-240.132808 -2.4761,-87.581702 28.3889,-177.626962 84.0722,-245.273442 55.6835,-67.64651 138.1181,-115.2418 224.543,-129.64453 53.4944,-8.91485 108.8581,-5.43518 158.3594,11.21094 49.268,16.56771 94.5501,47.17497 128.0293,86.66992 a 71.012678,71.012678 0 0 0 0,0 c 33.4993,39.51857 56.9393,89.95197 69.2344,143.77539 12.3317,53.98324 14.0654,114.33594 14.584,178.769534 l 3.0469,378.535156 0,0.375 0,0.14649 a 71.012678,71.012678 0 0 0 142.00778,-0.99805 l -2.26368,-377.812502 c -0.38456,-64.220498 0.67207,-124.254688 12.72657,-177.751948 12.02359,-53.36016 35.5985,-103.53361 69.19531,-143.10743 33.65434,-39.64157 79.05987,-70.85317 129.04687,-89.75 50.31342,-19.02022 106.77788,-26.66233 164.14649,-25.0332 64.56886,1.8336 126.70842,15.69677 176.10937,44.94141 48.30266,28.59446 85.82627,75.45069 96.33985,123.71679 5.02476,23.06786 4.2872,47.31253 -2.0586,68.34766 -6.28527,20.83446 -18.9093,40.67089 -35.16601,55.24805 -16.2987,14.6148 -38.437,25.96043 -63.00391,32.43164 -24.72413,6.51262 -54.88124,8.71624 -89.32226,10.2832 l -69.54297,3.16406 a 71.012678,71.012678 0 0 0 2.75976,141.9355494 l 59.69727,0.3945312 c 33.84297,0.2227954 63.99641,1.0184065 89.71289,5.8496094 25.5983,4.809001 48.9638,13.919539 67.24023,26.603516 18.16394,12.605895 33.1079,30.124854 41.88477,48.988281 8.78012,18.870403 12.32495,41.121293 9.83984,61.699223 -4.18831,34.68125 -27.83271,71.0705 -59.67383,91.65039 -32.51976,21.0185 -76.84418,29.34077 -118.11132,22.62695 -28.06687,-4.56625 -55.5549,-15.6697 -78.91993,-31.87695 a 71.012678,71.012678 0 1 0 -80.93945,116.6875 c 40.96075,28.4126 87.85124,47.35242 137.05469,55.35742 74.01882,12.04225 152.42785,-1.14355 218.0039,-43.52735 66.25469,-42.82243 113.75862,-112.6127 123.57422,-193.89062 5.72757,-47.42703 -1.95558,-95.399625 -22.07226,-138.634766 -18.36621,-39.473024 -46.23634,-72.863885 -79.93164,-98.519532 2.18373,-1.834423 4.41868,-3.575111 6.55664,-5.492187 35.93507,-32.222465 62.35697,-73.683575 76.31836,-119.962895 13.90084,-46.07865 14.75262,-94.16062 4.85742,-139.58789 -20.65181,-94.80907 -85.0504,-169.69793 -162.75391,-215.69726 -76.6052,-45.34915 -162.6196,-62.36842 -244.42187,-64.69141 -9.05443,-0.25712 -18.14696,-0.33684 -27.26367,-0.22656 z"
       id="path4370-9-0-9-5-7-8-8"
       inkscape:connector-curvature="0" />
  </g>
</svg>
