<?xml version="1.0" encoding="UTF-8" standalone="no"?>
<!-- Created with Inkscape (http://www.inkscape.org/) -->

<svg
   xmlns:dc="http://purl.org/dc/elements/1.1/"
   xmlns:cc="http://creativecommons.org/ns#"
   xmlns:rdf="http://www.w3.org/1999/02/22-rdf-syntax-ns#"
   xmlns:svg="http://www.w3.org/2000/svg"
   xmlns="http://www.w3.org/2000/svg"
   xmlns:sodipodi="http://sodipodi.sourceforge.net/DTD/sodipodi-0.dtd"
   xmlns:inkscape="http://www.inkscape.org/namespaces/inkscape"
   width="2000"
   height="2048"
   id="svg2992"
   version="1.1"
   inkscape:version="0.91pre3 r13670"
   sodipodi:docname="ന്ദ്ര.svg">
  <defs
     id="defs5498">
    <inkscape:path-effect
       effect="spiro"
       id="path-effect3846"
       is_visible="true" />
    <inkscape:path-effect
       effect="spiro"
       id="path-effect3801"
       is_visible="true" />
    <inkscape:path-effect
       effect="spiro"
       id="path-effect4372-5-0-6-9"
       is_visible="true" />
    <inkscape:path-effect
       effect="spiro"
       id="path-effect4372-5-0-6-9-1"
       is_visible="true" />
  </defs>
  <sodipodi:namedview
     inkscape:window-height="853"
     inkscape:window-width="1600"
     inkscape:pageshadow="2"
     inkscape:pageopacity="0.0"
     borderopacity="1.0"
     bordercolor="#666666"
     pagecolor="#ffffff"
     id="base"
     showgrid="true"
     showguides="true"
     inkscape:guide-bbox="true"
     inkscape:zoom="0.32102648"
     inkscape:cx="478.70789"
     inkscape:cy="46.570593"
     inkscape:window-x="1598"
     inkscape:window-y="-3"
     inkscape:current-layer="layer1"
     inkscape:window-maximized="1">
    <sodipodi:guide
       orientation="horizontal"
       position="0,600"
       id="guide5596" />
    <inkscape:grid
       type="xygrid"
       id="grid3769"
       empspacing="3"
       visible="true"
       enabled="true"
       snapvisiblegridlinesonly="true"
       spacingx="4px"
       units="px"
       dotted="true"
       spacingy="4px" />
    <sodipodi:guide
       orientation="0,1"
       position="-1040,1600"
       id="guide2985" />
  </sodipodi:namedview>
  <metadata
     id="metadata5594">
    <rdf:RDF>
      <cc:Work
         rdf:about="">
        <dc:format>image/svg+xml</dc:format>
        <dc:type
           rdf:resource="http://purl.org/dc/dcmitype/StillImage" />
        <dc:title />
      </cc:Work>
    </rdf:RDF>
  </metadata>
  <g
     inkscape:label="Layer 1"
     inkscape:groupmode="layer"
     id="layer1"
     transform="translate(0,1048)">
    <path
       style="color:#000000;font-style:normal;font-variant:normal;font-weight:normal;font-stretch:normal;font-size:medium;line-height:normal;font-family:sans-serif;text-indent:0;text-align:start;text-decoration:none;text-decoration-line:none;text-decoration-style:solid;text-decoration-color:#000000;letter-spacing:normal;word-spacing:normal;text-transform:none;direction:ltr;block-progression:tb;writing-mode:lr-tb;baseline-shift:baseline;text-anchor:start;white-space:normal;clip-rule:nonzero;display:inline;overflow:visible;visibility:visible;opacity:1;isolation:auto;mix-blend-mode:normal;color-interpolation:sRGB;color-interpolation-filters:linearRGB;solid-color:#000000;solid-opacity:1;fill:#000000;fill-opacity:1;fill-rule:evenodd;stroke:none;stroke-width:140;stroke-linecap:round;stroke-linejoin:round;stroke-miterlimit:4;stroke-dasharray:none;stroke-dashoffset:0;stroke-opacity:1;color-rendering:auto;image-rendering:auto;shape-rendering:auto;text-rendering:auto;enable-background:accumulate"
       d="m -72.025391,-625.78906 a 70.007,70.007 0 0 0 -53.048829,25.8125 c -127.86862,152.69438 -198.0083,350.25131 -195.05664,549.392576 2.95166,199.141264 78.916,394.531524 211.25391,543.369144 93.791453,105.48524 215.15708,185.61852 349.89648,229.16796 135.20404,43.69963 273.77254,46.45698 404.23438,45.05274 l 671.34769,-7.22656 c 116.4883,-1.25384 246.484,-5.88245 366.1953,-66.6836 59.6196,-30.28069 113.8529,-73.09547 155.7539,-127.82812 41.9681,-54.82043 70.3657,-120.19989 79.6465,-189.97852 12.9554,-97.40608 -12.4668,-196.38239 -68.1797,-276.105466 -30.3841,-43.478609 -68.9625,-80.092789 -112.7969,-108.527344 20.82,-17.270203 39.4957,-37.206457 55.3906,-59.466797 40.9741,-57.383043 61.6275,-127.145143 58.4649,-197.601563 -4.184,-93.21084 -49.188,-177.83783 -115.4551,-237.91601 -65.6848,-59.55012 -148.6704,-92.97789 -232.6152,-103.85938 -143.0085,-18.53771 -289.9063,28.54079 -395.4981,126.75195 -37.0398,34.45083 -68.0225,74.50811 -92.4824,118.10743 -16.85332,-27.26277 -36.30434,-52.99521 -58.2461,-76.67969 C 871.00022,-532.59988 751.4897,-590.19365 625.62109,-599.59766 478.36085,-610.5999 330.66015,-554.55215 227.76953,-448.62695 124.8789,-342.70176 73.145138,-193.43303 88.421875,-46.554688 103.69861,100.32366 185.04235,235.75058 307.5293,318.23438 c 122.48694,82.4838 278.5622,106.93509 420.40625,65.86328 A 70.007,70.007 0 1 0 688.99805,249.62305 C 588.66538,278.67499 472.36903,260.45387 385.72852,202.10938 299.088,143.76489 238.4778,42.854595 227.67188,-61.039062 216.86595,-164.93272 255.41224,-276.15638 328.19141,-351.08203 c 72.77915,-74.92565 182.83622,-116.68668 287,-108.9043 89.47275,6.68477 177.91131,49.30468 238.88671,115.12305 60.97542,65.81839 96.72613,157.25071 96.56641,246.972655 a 70.007,70.007 0 0 0 0,0.474609 l 2.14063,429.033206 0,0.13672 0.002,0.28125 a 70.007,70.007 0 0 0 139.99809,-0.41602 l 0,-0.28125 0,-0.0684 -0.418,-431.43359 a 70.007,70.007 0 0 0 -0.1113,-3.88477 c -5.6928,-100.63098 36.7944,-206.23043 110.5976,-274.875 73.8033,-68.64459 182.1987,-103.38269 282.1543,-90.42578 58.9862,7.64619 115.4875,31.48742 156.5801,68.74219 40.5101,36.72667 67.3499,89.70155 69.6289,140.47265 1.7213,38.34721 -10.2247,78.71546 -32.541,109.96875 -22.3181,31.25576 -56.6279,55.67353 -93.4844,66.533208 -20.1209,5.928572 -41.5747,8.235338 -62.4961,6.720703 l -0,0.02344 c -0.9984,-0.03645 -1.9915,-0.146364 -2.9903,-0.175781 a 70.007,70.007 0 0 0 -7.1172,139.787109 c 0.9976,0.07222 1.9964,0.08572 2.9942,0.148438 l 0,0.0039 c 22.445,0.661113 44.8863,3.99391 66.5547,9.884766 61.1331,16.61994 117.4183,55.521324 153.1269,106.619144 35.5873,50.9241 52.215,116.863 44.1563,177.45312 -5.8256,43.80053 -24.3494,87.1728 -52.0313,123.33203 -27.7492,36.24703 -65.4497,66.50413 -107.9883,88.10938 -84.6049,42.97073 -191.6457,50.30107 -304.3027,51.51367 l -671.34961,7.22656 C 516.81941,628.37987 393.79995,624.20237 284.07617,588.73828 173.88777,553.12403 72.993412,486.63598 -4.2519531,399.75977 -113.62689,276.74812 -177.70699,111.92853 -180.14648,-52.658203 -182.58598,-217.24494 -123.41942,-383.8926 -17.738281,-510.0918 a 70.007,70.007 0 0 0 -54.28711,-115.69726 z"
       id="path4370-9-0-9-3"
       inkscape:connector-curvature="0" />
    <path
       style="fill:none;fill-rule:evenodd;stroke:#000000;stroke-width:140;stroke-linecap:round;stroke-linejoin:round;stroke-miterlimit:4;stroke-dasharray:none;stroke-opacity:1"
       d="m -23.405835,1112.217 c -116.774895,139.4468 -181.428985,321.5487 -178.733405,503.4127 2.69558,181.864 72.71829,361.9697 193.5747247,497.8943 85.5184173,96.1807 196.6492353,169.4907 319.1131353,209.0726 122.46391,39.5819 253.25714,43.0494 381.9514,41.6642 l 671.34908,-7.2261 c 114.5727,-1.2332 233.0904,-7.2129 335.2486,-59.0989 51.079,-25.943 97.0465,-62.479 131.8715,-107.9689 34.825,-45.4898 58.2851,-99.8659 65.8383,-156.6555 10.507,-78.9981 -10.5175,-161.4559 -56.1676,-226.7794 -45.65,-65.3236 -115.239,-113.1625 -192.1415,-134.0696 -27.0067,-7.3422 -54.8823,-11.4824 -82.8571,-12.3064 29.3602,2.1256 59.0977,-1.0726 87.3345,-9.3925 52.2363,-15.3913 99.0219,-48.6819 130.6671,-93 31.6452,-44.3182 47.9457,-99.384 45.5037,-153.7858 -3.2315,-71.991 -39.1539,-140.7917 -92.5425,-189.1941 -53.3887,-48.4025 -123.1321,-77.0377 -194.5976,-86.3015 -121.482,-15.7473 -249.1284,25.1619 -338.8259,108.5898 -89.6975,83.4278 -139.7326,207.7808 -132.8138,330.0836 l 0.4191,431.7823 -2.1414,-429.4524 c 0.1922,-107.9706 -41.8377,-215.465 -115.21494,-294.6702 -73.37724,-79.2053 -177.35237,-129.3124 -285.02306,-137.3568 -125.71203,-9.3923 -254.59156,39.5127 -342.42647,129.9381 -87.8349,90.4254 -132.97421,220.6716 -119.93288,346.0576 13.04134,125.3861 84.01819,243.5551 188.58194,313.9692 104.56375,70.4142 240.74898,91.7499 361.83735,56.688"
       id="path4370-9-0-9-3-7"
       inkscape:path-effect="#path-effect4372-5-0-6-9-1"
       inkscape:original-d="m -23.405835,1112.217 c 61.0741,38.4535 -179.402395,729.8377 14.8413197,1001.307 C 135.85574,2315.3615 456.2269,2366.804 692.50002,2364.2608 l 671.34908,-7.2261 c 261.375,-2.8134 489.4012,-120.4811 532.9584,-323.7233 30.5968,-142.7679 -186.8872,-306.5976 -248.3091,-360.849 -24.462,-21.6063 -82.8571,-12.3064 -82.8571,-12.3064 0,0 59.9684,4.4396 87.3345,-9.3925 46.1836,-23.3434 185.5631,-146.1515 176.1708,-246.7858 -12.3261,-132.069 -154.5012,-274.4673 -287.1401,-275.4956 -214.697,-1.6645 -471.6397,438.6734 -471.6397,438.6734 l 0.4191,431.7823 -2.1414,-429.4524 c 0,0 -221.42696,-513.0462 -400.238,-432.027 -258.44795,117.1028 -309.26313,1010.3458 88.05994,846.6529"
       inkscape:connector-curvature="0"
       sodipodi:nodetypes="cassascsaacccac" />
  </g>
</svg>
