<?xml version="1.0" encoding="UTF-8" standalone="no"?>
<!-- Created with Inkscape (http://www.inkscape.org/) -->

<svg
   xmlns:dc="http://purl.org/dc/elements/1.1/"
   xmlns:cc="http://creativecommons.org/ns#"
   xmlns:rdf="http://www.w3.org/1999/02/22-rdf-syntax-ns#"
   xmlns:svg="http://www.w3.org/2000/svg"
   xmlns="http://www.w3.org/2000/svg"
   xmlns:sodipodi="http://sodipodi.sourceforge.net/DTD/sodipodi-0.dtd"
   xmlns:inkscape="http://www.inkscape.org/namespaces/inkscape"
   width="2000"
   height="2048"
   id="svg2992"
   version="1.1"
   inkscape:version="0.91 r13725"
   sodipodi:docname="ന്തൂ.svg">
  <defs
     id="defs5498">
    <inkscape:path-effect
       effect="spiro"
       id="path-effect4338"
       is_visible="true" />
    <inkscape:path-effect
       effect="spiro"
       id="path-effect4222"
       is_visible="true" />
    <inkscape:path-effect
       effect="spiro"
       id="path-effect4199"
       is_visible="true" />
    <inkscape:path-effect
       effect="spiro"
       id="path-effect4195"
       is_visible="true" />
    <inkscape:path-effect
       effect="spiro"
       id="path-effect4191"
       is_visible="true" />
    <inkscape:path-effect
       effect="spiro"
       id="path-effect3782"
       is_visible="true" />
    <inkscape:path-effect
       effect="spiro"
       id="path-effect3846"
       is_visible="true" />
    <inkscape:path-effect
       effect="spiro"
       id="path-effect3801"
       is_visible="true" />
    <inkscape:path-effect
       is_visible="true"
       id="path-effect4372-5-0-8-9-1"
       effect="spiro" />
    <inkscape:path-effect
       is_visible="true"
       id="path-effect4372-5-0-8-9-1-2"
       effect="spiro" />
    <inkscape:path-effect
       is_visible="true"
       id="path-effect4372-5-0-8-9-1-2-1"
       effect="spiro" />
    <inkscape:path-effect
       is_visible="true"
       id="path-effect4372-5-0-8-9-1-2-1-5"
       effect="spiro" />
    <inkscape:path-effect
       is_visible="true"
       id="path-effect4372-5-0-8-9-1-2-4"
       effect="spiro" />
  </defs>
  <sodipodi:namedview
     inkscape:window-height="843"
     inkscape:window-width="1600"
     inkscape:pageshadow="2"
     inkscape:pageopacity="0.0"
     borderopacity="1.0"
     bordercolor="#666666"
     pagecolor="#ffffff"
     id="base"
     showgrid="true"
     showguides="true"
     inkscape:guide-bbox="true"
     inkscape:zoom="0.22645029"
     inkscape:cx="5593.2626"
     inkscape:cy="1008.0741"
     inkscape:window-x="1600"
     inkscape:window-y="0"
     inkscape:current-layer="layer1"
     inkscape:window-maximized="1">
    <sodipodi:guide
       orientation="horizontal"
       position="0,600"
       id="guide5596" />
    <inkscape:grid
       type="xygrid"
       id="grid3769"
       empspacing="3"
       visible="true"
       enabled="true"
       snapvisiblegridlinesonly="true"
       spacingx="4px"
       units="px"
       dotted="true"
       spacingy="4px" />
    <sodipodi:guide
       orientation="0,1"
       position="1056,1584"
       id="guide2985" />
    <sodipodi:guide
       position="6240,1710"
       orientation="0,1"
       id="guide4170"
       inkscape:label=""
       inkscape:color="rgb(0,0,255)" />
  </sodipodi:namedview>
  <metadata
     id="metadata5594">
    <rdf:RDF>
      <cc:Work
         rdf:about="">
        <dc:format>image/svg+xml</dc:format>
        <dc:type
           rdf:resource="http://purl.org/dc/dcmitype/StillImage" />
        <dc:title />
      </cc:Work>
    </rdf:RDF>
  </metadata>
  <g
     inkscape:label="Layer 1"
     inkscape:groupmode="layer"
     id="layer1"
     transform="translate(0,1048)">
    <path
       style="color:#000000;font-style:normal;font-variant:normal;font-weight:normal;font-stretch:normal;font-size:medium;line-height:normal;font-family:sans-serif;text-indent:0;text-align:start;text-decoration:none;text-decoration-line:none;text-decoration-style:solid;text-decoration-color:#000000;letter-spacing:normal;word-spacing:normal;text-transform:none;direction:ltr;block-progression:tb;writing-mode:lr-tb;baseline-shift:baseline;text-anchor:start;white-space:normal;clip-rule:nonzero;display:inline;overflow:visible;visibility:visible;opacity:1;isolation:auto;mix-blend-mode:normal;color-interpolation:sRGB;color-interpolation-filters:linearRGB;solid-color:#000000;solid-opacity:1;fill:#000000;fill-opacity:1;fill-rule:evenodd;stroke:none;stroke-width:140;stroke-linecap:round;stroke-linejoin:round;stroke-miterlimit:4;stroke-dasharray:none;stroke-dashoffset:0;stroke-opacity:1;color-rendering:auto;image-rendering:auto;shape-rendering:auto;text-rendering:auto;enable-background:accumulate"
       d="m 3820.4935,-609.44538 c -31.6852,-0.14283 -63.1453,1.79397 -93.9297,5.36914 -77.4315,8.99258 -154.5036,28.76239 -226.9023,60.03711 -93.9757,-41.1645 -198.2304,-58.16624 -300.9707,-48.05664 -74.6728,7.34777 -148.8498,28.79528 -215.9688,66.42187 -67.2908,37.72298 -125.4711,90.88701 -168.7753,155.11328 -7.3327,10.87544 -14.0125,22.06548 -20.4024,33.38281 -10.2603,-19.75076 -21.716,-39.01765 -34.7714,-57.48242 -46.0081,-65.07099 -108.1316,-118.20223 -180.3926,-152.92773 -72.1478,-34.67109 -151.9843,-50.02693 -231.0059,-46.48047 -134.4651,6.03475 -263.0971,67.0994 -352.7793,167.4707 -89.6821,100.37131 -135.9384,235.04018 -126.8574,369.333983 9.081,134.293807 73.0456,261.508477 175.4238,348.892587 102.3783,87.38411 238.0598,130.57374 372.1133,118.45117 a 70.007,70.007 0 1 0 -12.6094,-139.43164 c -95.1869,8.60784 -195.9198,-23.4573 -268.6152,-85.50586 -72.6954,-62.04856 -120.1827,-156.493971 -126.6309,-251.851567 -6.4481,-95.357583 27.892,-195.339023 91.5723,-266.609373 63.6804,-71.27034 159.179,-116.60555 254.6582,-120.89063 56.5386,-2.53743 113.9306,8.70228 164.0898,32.80664 50.0461,24.04996 94.389,61.83834 126.7208,107.56641 32.3664,45.77718 53.9768,101.17968 65.1132,159.55078 5.782,30.30637 8.7845,62.104433 10.3985,95.035163 -1.8122,37.738989 -1.5902,74.586642 -1.1934,110.162105 l 3.1582,283.111332 a 70.007,70.007 0 0 0 139.9961,-0.8125 l -0.1367,-297.876957 c -0.014,-30.5383986 -0.1741,-61.994526 -1.5411,-94.08594 1.4439,-26.45419 3.9536,-52.124393 8.3848,-76.773433 10.2325,-56.91886 30.6574,-111.19341 61.3867,-156.76953 30.7392,-45.59059 72.916,-84.21451 121.1563,-111.25782 48.4122,-27.13969 104.0794,-43.5945 161.2168,-49.21679 41.7908,-4.1122 84.3613,-2.00173 126.0195,5.56054 -9.6759,7.81906 -19.2256,15.82562 -28.4883,24.24414 -116.763,106.12143 -193.8252,258.7619 -192.625,421.1113334 0.7511,101.5971666 32.8718,205.5150666 102.7539,285.9941366 34.9141,40.20835 78.4069,73.42419 128.3243,95.44336 50.023,22.06579 105.4182,32.3277 161.1972,27.71289 104.2509,-8.62505 194.943,-67.55539 253.5508,-147.99804 57.9198,-79.49833 83.0476,-175.303554 84.4336,-268.2812526 2.4758,-166.0847674 -70.6719,-327.6897374 -194.4316,-437.2851574 -0.685,-0.60652 -1.4121,-1.15674 -2.0997,-1.75977 30.0621,-7.70741 60.7564,-13.39306 91.6797,-16.98437 102.2895,-11.87949 206.1635,-0.0254 287.1739,46.42383 40.3441,23.13224 75.159,55.01669 98.8515,92.14258 23.5389,36.88526 36.5802,80.50721 35.6074,121.83203 -1.0697,45.44602 -19.7969,92.14352 -50.4238,125.736323 -30.6269,33.59282 -75.4007,56.544873 -120.5547,61.798831 a 70.007,70.007 0 0 0 16.0957,139.072266 c 25.7385,-2.96247 52.9996,0.9967 76.8321,11.1582 23.8326,10.16154 45.5638,27.09174 61.2461,47.71485 15.6822,20.62312 26.1901,46.08818 29.6132,71.76953 3.4231,25.68103 -0.046,53.01014 -9.7793,77.02148 -15.5951,38.47265 -49.6895,73.65064 -91.7246,97.6875 -42.7454,24.44309 -94.2188,39.19033 -149.0683,47.54102 -111.6429,16.99733 -230.9947,12.0496 -355.2481,12.18359 l -1320.1503,1.42383 c -59.9077,0.0646 -128.9592,-2.94106 -201.6172,17.44727 -37.1914,10.43614 -75.8552,27.87387 -108.9551,58.0664 -33.8691,30.89412 -60.0758,74.01104 -63.9824,126.20117 -4.1371,55.2691 17.8938,104.39299 50.6933,140.78711 31.9955,35.5019 72.0464,57.15483 111.4375,70.32813 77.0395,25.76376 151.4915,22.32921 215.2051,22.04101 l 2015.3945,-9.11523 a 70.007,70.007 0 1 0 -0.6328,-140 l -2015.3945,9.11719 c -65.9242,0.2982 -124.2631,0.53589 -170.1699,-14.81641 -22.082,-7.38472 -40.4425,-18.63265 -51.8418,-31.28125 -10.5952,-11.75638 -15.7834,-27.24168 -15.0821,-36.61133 0.6706,-8.95861 7.2862,-22.78663 18.7208,-33.21679 12.2037,-11.13178 30.5835,-20.57435 52.4316,-26.70508 45.4209,-12.74542 101.2115,-12.17457 163.9434,-12.24219 l 1320.1503,-1.42383 c 119.9263,-0.12933 246.4149,5.97752 376.1699,-13.77734 65.8495,-10.02541 134.2522,-28.25157 197.4922,-64.41406 63.9504,-36.56872 121.7028,-91.95222 151.9727,-166.62696 a 70.007,70.007 0 0 0 0,-0.002 c 19.0041,-46.88336 25.4907,-97.96325 18.8067,-148.10938 -6.6841,-50.1458 -26.3238,-97.74645 -56.9453,-138.015621 -17.6034,-23.149548 -38.5989,-43.330249 -62.0352,-60.175781 7.0816,-6.520892 13.9093,-13.349909 20.4316,-20.503907 54.0416,-59.274968 85.0402,-136.573561 86.9278,-216.763671 a 70.007,70.007 0 0 0 0,-0.002 c 1.6975,-72.11474 -20.0493,-141.67182 -57.5528,-200.43946 -37.35,-58.52699 -89.1367,-104.97187 -147.2304,-138.28125 -86.8989,-49.82553 -183.9755,-68.97582 -279.0313,-69.40429 z m -322.3984,222.43164 c 22.0954,13.39952 43.0203,28.55025 62.2246,45.55664 92.5522,81.95958 149.0926,207.56915 147.2617,330.388669 -1.0258,68.815853 -20.2378,136.643821 -57.6015,187.927731 -36.6758,50.33961 -94.9317,86.19744 -151.9414,90.91407 -30.8615,2.55327 -63.6319,-3.26026 -93.1504,-16.28125 -29.6243,-13.06763 -57.0336,-33.70799 -79.1192,-59.14258 -44.1169,-50.80683 -67.9325,-122.96732 -68.4668,-195.2382826 -0.8607,-116.4292474 57.2435,-235.0880974 146.7891,-316.4726574 28.4496,-25.85676 60.0861,-48.4095 94.0039,-67.65234 z"
       id="path4370-9-0-3-5-4"
       inkscape:connector-curvature="0" />
    <path
       sodipodi:nodetypes="caccsaaaaaacassasc"
       inkscape:connector-curvature="0"
       inkscape:original-d="m 3039.5039,1954.1153 c -58.312,38.3089 -327.9811,-760.6877 -58.458,-864.5028 221.6539,-85.3769 442.4902,368.9247 441.2836,559.5048 l 0.1364,297.8753 -3.1576,-283.1114 c -2.5682,-230.2653 182.023,-547.6918 416.7709,-572.5632 254.565,-26.9711 549.8941,257.3764 572.0275,512.4075 12.7511,146.9242 -126.4128,341.4713 -273.7636,347.5592 -154.6837,6.3909 -320.35,-185.1373 -316.505,-339.9052 6.32,-254.3888 293.9606,-508.6045 547.3341,-532.1727 199.0389,-18.5142 475.1945,133.1854 499.6898,331.577 14.1182,114.3451 -232.8688,255.4196 -232.8688,255.4196 0,0 269.8768,182.5672 230.7892,303.5017 -70.8143,219.0945 -543.4578,200.989 -660.8375,201.1156 l -1320.1512,1.4236 c -78.6803,0.085 -301.8948,25.5875 -304.8255,136.9397 -3.0294,115.1046 250.7927,158.1881 307.2155,157.9329 l 2015.3941,-9.1165"
       inkscape:path-effect="#path-effect4372-5-0-8-9-1-2"
       id="path4370-9-0-3-5-4-6"
       d="m 3039.5039,1954.1153 c -114.6202,10.3652 -232.8276,-27.2628 -320.3644,-101.9792 -87.5369,-74.7163 -143.2625,-185.5473 -151.0271,-300.373 -7.7645,-114.8257 32.5332,-232.1498 109.2144,-317.9707 76.6813,-85.8208 188.7469,-139.02 303.7191,-144.1799 67.7801,-3.0419 136.3947,10.2555 197.5482,39.6432 61.1535,29.3877 114.3862,74.8475 153.5561,130.2471 39.1699,55.3995 64.0015,120.1977 76.7167,186.8439 12.7151,66.6462 13.4315,134.9223 13.4626,202.7706 l 0.1364,297.8753 -3.1576,-283.1114 c -0.7386,-66.2193 -0.7465,-132.8639 10.9708,-198.0424 11.7174,-65.1785 35.2201,-128.6072 72.2417,-183.5156 37.0217,-54.9084 87.1997,-100.8031 144.9653,-133.1862 57.7656,-32.3831 122.688,-51.334 188.5931,-57.819 143.7738,-14.1473 293.0255,32.7921 401.1815,128.5696 108.156,95.7775 172.9993,239.3858 170.846,383.8379 -1.2059,80.8968 -23.3748,162.7133 -71.0166,228.1044 -47.6418,65.3912 -122.1167,112.784 -202.747,119.4548 -43.3202,3.584 -87.402,-4.4532 -127.1728,-21.9966 -39.7708,-17.5434 -75.2216,-44.4714 -103.7214,-77.2928 -56.9996,-65.643 -84.9681,-153.6817 -85.6108,-240.6158 -1.0305,-139.3893 66.5521,-275.0391 169.7065,-368.792 103.1544,-93.753 239.1651,-147.3002 377.6276,-163.3807 112.7134,-13.0901 231.6299,-1.2127 330.0677,55.2289 49.2189,28.2208 92.5198,67.3851 123.0411,115.2116 30.5212,47.8264 47.9161,104.4167 46.581,161.1365 -1.4787,62.8181 -26.3421,124.8175 -68.6763,171.2513 -42.3343,46.4339 -101.7781,76.906 -164.1925,84.1683 37.998,-4.3735 77.1077,1.3063 112.2919,16.3078 35.1843,15.0016 66.36,39.2895 89.5119,69.7357 23.1519,30.4461 38.2253,66.9785 43.2789,104.8921 5.0535,37.9136 0.075,77.1187 -14.2935,112.5661 -22.9325,56.5737 -68.8563,101.8551 -121.849,132.1579 -52.9926,30.3028 -112.931,46.7896 -173.2805,55.9776 -120.699,18.3761 -243.6182,12.8484 -365.708,12.9801 l -1320.1512,1.4236 c -61.3198,0.066 -123.7401,-1.7221 -182.7796,14.8448 -29.5197,8.2834 -58.0413,21.7239 -80.6931,42.386 -22.6518,20.6622 -39.0642,49.1345 -41.3528,79.7089 -2.4192,32.3194 11.1904,64.6239 32.8878,88.6992 21.6974,24.0752 50.9042,40.5254 81.6407,50.8045 61.4732,20.558 127.8681,18.7224 192.687,18.4292 l 2015.3941,-9.1165"
       style="fill:none;fill-rule:evenodd;stroke:#000000;stroke-width:140;stroke-linecap:round;stroke-linejoin:round;stroke-miterlimit:4;stroke-dasharray:none;stroke-opacity:1" />
    <path
       sodipodi:nodetypes="caccsaaaaaacassasc"
       inkscape:connector-curvature="0"
       inkscape:original-d="m -562.27339,363.56626 c -61.71761,40.59036 -347.13568,-805.99019 -61.87215,-915.98799 234.59882,-90.46143 468.33226,390.89591 467.05515,592.82594 l 0.14445,315.61515 -3.34202,-299.971993 C -163.00623,-187.93129 32.365354,-524.26206 280.82283,-550.61466 550.25474,-579.19201 862.83145,-277.91026 886.25747,-7.6908813 899.75323,147.98334 752.462,354.11662 596.50572,360.56708 432.78829,367.33859 257.44686,164.40398 261.51642,0.41895136 268.20552,-269.11989 572.6447,-538.47535 840.81552,-563.44714 c 210.66298,-19.6168 502.94638,141.11723 528.87218,351.32397 14.9429,121.154859 -246.4685,270.631024 -246.4685,270.631024 0,0 285.6379,193.439946 244.2675,321.576636 -74.9499,232.14262 -575.19633,212.95886 -699.43115,213.093 l -1397.24965,1.50839 c -83.27531,0.0901 -319.5259,27.11134 -322.6279,145.09509 -3.2062,121.9596 265.43947,167.60892 325.15744,167.33853 L 1406.431,897.46007"
       inkscape:path-effect="#path-effect4372-5-0-8-9-1-2-1"
       id="path4370-9-0-3-5-4-6-4"
       d="m -562.27339,363.56626 c -121.52657,11.12497 -246.91442,-28.67707 -339.77586,-107.85552 -92.86144,-79.17845 -151.98285,-196.698532 -160.20715,-318.455805 -8.2244,-121.757275 34.5559,-246.160505 115.92586,-337.107745 81.36998,-90.94724 200.26625,-147.24991 322.185,-152.56892 71.77523,-3.13137 144.41178,11.02791 209.13814,42.20463 64.72636,31.17672 121.05676,79.35117 162.50321,138.03406 41.44645,58.68289 67.71795,127.30241 81.17052,197.8752 13.45258,70.57278 14.2104,142.868551 14.24328,214.71205 l 0.14445,315.61515 -3.34202,-299.971993 c -0.78133,-70.13029 -0.79126,-140.709689 11.59818,-209.741347 12.38944,-69.03166 37.24216,-136.21737 76.407493,-194.39765 39.165336,-58.18027 92.262285,-106.83351 153.411977,-141.17857 61.14969,-34.34506 129.89685,-54.46363 199.69314,-61.34446 152.24022,-15.00853 310.27239,34.83568 424.71212,136.35361 114.43972,101.51793 182.96759,253.60841 180.72252,406.5701687 -1.25759,85.6823143 -24.6702,172.3512113 -75.08061,241.6464613 -50.41041,69.29525 -129.27128,119.54723 -214.67114,126.6115 -45.8785,3.79506 -92.56341,-4.73343 -134.67303,-23.33503 -42.10961,-18.6016 -79.63477,-47.14678 -109.7922,-81.9285 C 291.72563,185.7401 262.17853,92.486955 261.51642,0.41895136 260.45493,-147.18419 331.90165,-290.84974 441.05206,-390.21775 c 109.15041,-99.36801 253.14204,-156.20078 399.76346,-173.22939 119.33591,-13.85967 245.24158,-1.19918 349.42148,58.63153 52.0899,29.91536 97.9049,71.41249 130.1912,122.067 32.2864,50.6545 50.6782,110.57318 49.2595,170.62544 -1.5714,66.51582 -27.8808,132.164162 -72.6804,181.355762 -44.7997,49.1916 -107.7086,81.508042 -173.7881,89.275262 40.2419,-4.589068 81.6493,1.46319 118.8943,17.378038 37.245,15.914849 70.2398,41.654758 94.739,73.907828 24.4992,32.25307 40.4451,70.94324 45.7859,111.09231 5.3408,40.14907 0.064,81.66237 -15.1517,119.19846 -24.2744,59.88364 -72.8643,107.82776 -128.9424,139.92982 -56.0781,32.10205 -119.5132,49.58915 -183.3891,59.34443 -127.75181,19.51057 -257.86668,13.67924 -387.09965,13.81875 l -1397.24965,1.50839 c -64.91407,0.0701 -130.99683,-1.80897 -193.48602,15.76778 -31.24459,8.78837 -61.42709,23.0392 -85.39318,44.92728 -23.966,21.88807 -41.3248,52.03361 -43.7487,84.40003 -2.5624,34.21583 11.8265,68.41935 34.7799,93.92291 22.95334,25.50357 53.85998,42.94373 86.39306,53.84729 65.06615,21.80711 135.3619,19.87908 203.98448,19.56833 L 1406.431,897.46007"
       style="fill:none;fill-rule:evenodd;stroke:#000000;stroke-width:70;stroke-linecap:round;stroke-linejoin:round;stroke-miterlimit:4;stroke-dasharray:none;stroke-opacity:1" />
    <path
       style="color:#000000;font-style:normal;font-variant:normal;font-weight:normal;font-stretch:normal;font-size:medium;line-height:normal;font-family:sans-serif;text-indent:0;text-align:start;text-decoration:none;text-decoration-line:none;text-decoration-style:solid;text-decoration-color:#000000;letter-spacing:normal;word-spacing:normal;text-transform:none;direction:ltr;block-progression:tb;writing-mode:lr-tb;baseline-shift:baseline;text-anchor:start;white-space:normal;clip-rule:nonzero;display:inline;overflow:visible;visibility:visible;opacity:1;isolation:auto;mix-blend-mode:normal;color-interpolation:sRGB;color-interpolation-filters:linearRGB;solid-color:#000000;solid-opacity:1;fill:#000000;fill-opacity:1;fill-rule:evenodd;stroke:none;stroke-width:70;stroke-linecap:round;stroke-linejoin:round;stroke-miterlimit:4;stroke-dasharray:none;stroke-dashoffset:0;stroke-opacity:1;color-rendering:auto;image-rendering:auto;shape-rendering:auto;text-rendering:auto;enable-background:accumulate"
       d="m 1459.4043,1220.418 c -31.7902,-0.1674 -63.4859,1.7524 -94.627,5.3691 -84.1708,9.7756 -167.6888,32.1778 -245.0781,67.8281 -97.291,-45.9385 -206.85448,-65.654 -314.31053,-55.0605 -74.1921,7.3141 -147.57151,28.6861 -213.39844,65.6582 -65.91224,37.02 -123.00576,89.3122 -165.30664,152.1504 -23.20535,34.4717 -41.45955,71.6783 -55.52539,110.2734 -15.74959,-47.6255 -37.71407,-93.4415 -67.07422,-135.0117 -44.86019,-63.5163 -105.62894,-115.5265 -175.90234,-149.375 -70.216885,-33.8213 -148.461099,-49.0151 -225.853515,-45.6387 -131.673585,5.7446 -258.861735,65.9753 -346.742185,164.1992 -87.88043,98.2241 -133.64604,231.3036 -124.76367,362.8028 8.88236,131.4992 72.12858,257.2168 172.41992,342.7305 100.29135,85.5135 234.42574,128.0912 365.675779,116.0761 a 35.0035,35.0035 0 1 0 -6.382813,-69.707 c -111.803076,10.2349 -228.443506,-26.7915 -313.874996,-99.6348 -85.4315,-72.8433 -140.4298,-182.1662 -147.9961,-294.1816 -7.56629,-112.0153 32.23038,-227.7416 107.08985,-311.4121 74.85946,-83.6704 185.46308,-136.0461 297.626949,-140.9395 66.158044,-2.8863 133.18799,10.2394 192.423829,38.7715 59.179322,28.5049 111.070812,72.8419 149.103512,126.6914 38.04995,53.8738 62.71242,117.7995 75.37696,184.2383 6.67895,35.038 10.04689,71.0901 11.78711,107.8184 -1.95455,39.2738 -1.78287,78.1864 -1.35743,116.373 l 3.3418,299.9727 a 35.0035,35.0035 0 0 0 69.99805,-0.4063 l -0.14453,-315.6152 c -0.0151,-32.8672 -0.21594,-66.2571 -1.70508,-99.9199 1.57451,-29.8732 4.4028,-59.2751 9.55469,-87.9805 11.6493,-64.9078 34.967,-127.5196 70.99218,-181.0352 36.02978,-53.5224 85.13045,-98.5368 141.51758,-130.207 56.47243,-31.7181 120.58586,-50.5819 185.98633,-57.0293 76.50909,-7.5426 154.87308,2.7136 227.61714,28.373 -33.3676,20.8593 -65.02307,44.5822 -94.38277,71.3106 -115.94638,105.5549 -192.1165,257.7096 -190.97265,416.7695 0.71471,99.3858 32.32738,200.5764 99.07812,277.5625 33.36236,38.4782 74.90817,70.1718 122.09375,91.0156 47.23875,20.8674 99.58525,30.5103 151.70115,26.1993 97.2261,-8.0426 184.1996,-64.0745 240.0899,-140.9024 55.5447,-76.353 80.4273,-170.0129 81.7734,-261.7226 2.4035,-163.7524 -70.2593,-324.8345 -192.4922,-433.2657 -18.9352,-16.7972 -39.0593,-32.0874 -59.9687,-46.1582 56.4715,-21.0551 115.9588,-35.0998 176.0605,-42.08 114.1075,-13.2525 232.4849,-0.6109 327.9531,54.2168 47.6543,27.3678 89.2305,65.2239 118.1075,110.5293 28.7998,45.1851 45.0202,98.6243 43.7832,150.9863 -1.3664,57.8379 -24.6115,115.8413 -63.5664,158.6152 -38.9551,42.774 -94.5395,71.3282 -151.9981,78.082 a 35.0035,35.0035 0 0 0 8.0527,69.5352 c 34.1146,-3.8904 69.6018,1.2954 101.1758,14.7871 31.574,13.4916 59.8503,35.5523 80.6192,62.8945 20.7689,27.3423 34.4353,60.5012 38.9629,94.5372 4.5276,34.036 0.01,69.6128 -12.8926,101.4335 -20.609,50.8413 -63.291,93.7351 -113.8946,122.7032 -50.9577,29.1709 -110.1614,45.7862 -171.2851,55.1211 -123.2169,18.818 -251.5423,13.2773 -381.8535,13.4179 l -1397.25002,1.5078 c -64.21305,0.069 -133.61731,-2.4181 -202.92383,17.0762 -35.08263,9.868 -70.33461,26.121 -99.51953,52.7754 -29.568,27.0042 -51.81647,64.4688 -55.04883,107.6309 -3.4208,45.6784 15.17097,88.286 43.66797,119.9492 28.09666,31.2183 64.42261,51.2645 101.28516,63.6191 72.85739,24.4184 147.19041,21.6911 215.26562,21.3828 l 2133.09566,-9.6601 a 35.0035,35.0035 0 1 0 -0.3164,-69.9981 l -2133.09567,9.6582 c -69.16993,0.3132 -135.43017,1.442 -192.70507,-17.7539 -28.20362,-9.4525 -53.68993,-24.2853 -71.5,-44.0742 -17.40972,-19.344 -27.59654,-45.1433 -25.89258,-67.8965 1.6154,-21.5707 14.08508,-44.3981 32.44922,-61.1699 18.7472,-17.1217 43.861,-29.3693 71.26758,-37.0781 55.67185,-15.6593 118.43178,-14.3902 184.04687,-14.461 l 1397.25005,-1.5078 c 128.1547,-0.1383 260.0589,5.9825 392.3457,-14.2207 66.6275,-10.1754 134.2941,-28.5356 195.4921,-63.5683 61.5527,-35.236 116.0524,-88.2304 143.9922,-157.1563 17.5325,-43.2514 23.5622,-90.6987 17.4082,-136.9609 -6.154,-46.2623 -24.378,-90.4845 -52.6074,-127.6485 -27.2988,-35.9388 -63.5167,-64.5361 -104.6816,-82.9726 23.0745,-14.7502 44.284,-32.4745 62.8418,-52.8516 50.6442,-55.6092 80.0165,-128.902 81.7929,-204.0957 1.6004,-67.742 -18.9622,-134.1401 -54.7343,-190.2636 -35.6959,-56.0037 -85.7497,-101.1428 -142.2754,-133.6055 -84.6685,-48.6253 -180.893,-67.9139 -276.2637,-68.416 z m -340.3125,151.5156 c 32.6814,17.9656 63.4068,39.3184 91.2168,63.9883 106.6465,94.6047 171.0398,237.7017 168.9531,379.873 -1.1691,79.6549 -23.1126,159.3328 -68.3887,221.5703 -44.9305,61.7625 -115.6781,106.2343 -189.2519,112.3203 -39.6411,3.2792 -80.666,-4.1329 -117.6465,-20.4687 -37.03365,-16.3593 -70.53772,-41.7564 -97.49022,-72.8418 -53.879,-62.1407 -81.35929,-147.4568 -81.96876,-232.207 -0.97907,-136.1463 65.74322,-271.3228 168.09766,-364.5039 37.97562,-34.5722 80.67422,-63.7788 126.47852,-87.7305 z"
       id="path4370-9-0-3-5-4-6-4-6"
       inkscape:connector-curvature="0" />
    <path
       style="color:#000000;font-style:normal;font-variant:normal;font-weight:normal;font-stretch:normal;font-size:medium;line-height:normal;font-family:sans-serif;text-indent:0;text-align:start;text-decoration:none;text-decoration-line:none;text-decoration-style:solid;text-decoration-color:#000000;letter-spacing:normal;word-spacing:normal;text-transform:none;direction:ltr;block-progression:tb;writing-mode:lr-tb;baseline-shift:baseline;text-anchor:start;white-space:normal;clip-rule:nonzero;display:inline;overflow:visible;visibility:visible;opacity:1;isolation:auto;mix-blend-mode:normal;color-interpolation:sRGB;color-interpolation-filters:linearRGB;solid-color:#000000;solid-opacity:1;fill:#000000;fill-opacity:1;fill-rule:evenodd;stroke:none;stroke-width:200;stroke-linecap:round;stroke-linejoin:round;stroke-miterlimit:4;stroke-dasharray:none;stroke-dashoffset:0;stroke-opacity:1;color-rendering:auto;image-rendering:auto;shape-rendering:auto;text-rendering:auto;enable-background:accumulate"
       d="m 5400.8359,-706.38672 c -167.4786,-0.67579 -325.4395,81.9882 -423.9394,214.97656 -98.0993,132.44747 -130.1598,303.52062 -92.8008,461.970707 30.3676,128.797612 104.8286,244.324513 209.5859,325.175783 104.7574,80.85125 235.3828,123.60763 367.6719,120.34765 a 100.01,100.01 0 1 0 -4.9277,-199.9375 c -85.1595,2.09857 -173.1106,-26.69127 -240.5469,-78.73828 -67.4362,-52.046993 -117.5703,-129.8321699 -137.1191,-212.744138 -23.7541,-100.747612 -1.5468,-215.483842 58.8554,-297.035152 60.0017,-81.01044 163.5901,-134.41635 262.4141,-134.01758 53.6344,0.21642 108.3168,15.04988 154.9531,41.9707 46.6262,26.91491 87.4102,67.17783 116.7598,114.43555 a 100.01,100.01 0 0 0 0,0.002 c 29.4267,47.38178 48.891,103.96863 58.9297,163.92774 4.8839,29.17084 7.5955,59.8158 9.123,91.716792 -1.8231,41.860882 -1.5276,82.435448 -1.0937,121.332032 l 3.1582,283.111326 a 100.01,100.01 0 0 0 199.9922,-1.16015 l -0.1368,-297.875004 c -0.015,-33.96509 -0.1231,-69.172764 -1.6035,-105.34375 1.3097,-25.507596 3.5038,-50.178396 7.1875,-73.837896 l 0,-0.002 c 9.1362,-58.67633 27.4612,-114.34634 55.42,-161.64648 l 0,-0.002 c 27.9305,-47.25121 66.8434,-88.37624 112.0292,-117.93554 45.2894,-29.62699 98.6064,-48.92516 153.1563,-55.76367 24.8298,-3.11273 50.183,-3.32396 75.5371,-1.15625 -5.6281,5.23946 -11.2682,10.46412 -16.7344,15.91211 -121.553,121.14824 -195.5146,289.70702 -189.4218,465.544917 3.6567,105.535367 36.6891,214.639763 110.9628,301.427733 37.1539,43.41375 83.6254,79.74986 137.7969,104.08789 54.3576,24.42155 114.8782,35.96271 176.4551,30.54102 57.0931,-5.02691 110.5717,-24.2395 157.207,-53.22461 46.4813,-28.8894 85.0833,-66.73896 115.5137,-109.27344 60.766,-84.93621 86.6615,-184.136226 92.1074,-278.939452 9.6453,-167.906868 -44.8986,-337.380758 -155.6426,-465.822268 7.8009,-1.15532 15.6222,-2.15987 23.459,-2.99414 100.052,-10.65099 201.2341,6.37712 275.4532,55.00977 36.9574,24.21663 67.9076,56.63536 87.7578,92.6289 19.6792,35.68352 29.1608,77.053 26.2011,114.6543 -3.0784,39.11058 -20.416,79.11816 -46.8476,108.10938 -26.4315,28.991086 -64.6716,49.943121 -103.332,56.613276 a 100.01,100.01 0 0 0 28.4375,197.886724 c 20.4843,-2.35773 42.6692,0.86397 61.6367,8.95117 18.9676,8.08723 36.6518,21.86605 49.1328,38.27929 12.481,16.41324 21.0296,37.13545 23.7539,57.57422 2.7242,20.43818 -0.099,42.67666 -7.8457,61.78711 l 0,0 c -12.4505,30.71507 -41.4755,61.56259 -78.8144,82.91406 a 100.01,100.01 0 0 0 0,0.002 c -38.3535,21.93171 -86.1991,35.93396 -138.6914,43.92578 -107.7617,16.40645 -225.5851,11.70485 -350.7656,11.83984 l -1320.1504,1.42383 c -59.3026,0.0639 -131.195,-3.46163 -209.6895,18.56445 -40.4791,11.35873 -83.4886,30.50809 -121.0664,64.78516 -38.6764,35.27919 -69.0835,84.67084 -73.6836,146.125 -4.8733,65.10451 20.7685,121.43761 58.3262,163.11133 36.4089,40.39905 81.1088,64.28161 124.209,78.69531 83.7107,27.99476 161.6136,23.8759 224.8535,23.58984 L 7319.416,920 a 100.01,100.01 0 1 0 -0.9043,-199.99805 l -2015.3945,9.11524 c -66.3979,0.30034 -121.2819,-0.14628 -160.5176,-13.26758 -18.3728,-6.14432 -32.0883,-15.16261 -39.0742,-22.91406 -5.8371,-6.47679 -7.4144,-14.75288 -7.4492,-14.28711 -0.023,0.30542 2.3962,-7.24789 9.0234,-13.29297 7.7258,-7.04723 21.7581,-14.77623 40.3184,-19.98438 39.5844,-11.10766 92.5321,-11.05867 155.8691,-11.12695 l 1320.1524,-1.42383 c 118.999,-0.12832 247.0141,6.22665 380.6503,-14.11914 68.2067,-10.38428 140.2375,-29.35541 207.8692,-68.02929 68.6465,-39.25413 131.4703,-98.96808 164.8848,-181.4004 20.9902,-51.78364 28.1247,-107.95539 20.7421,-163.34375 l 0,-0.002 C 7388.203,150.53812 7366.6056,98.195326 7332.7832,53.716797 7319.334,36.030321 7304.1083,19.951272 7287.4883,5.5273438 c 55.9344,-62.3332258 89.8751,-141.3492138 96.4512,-224.8964838 6.3279,-80.39446 -12.9714,-158.97102 -50.4512,-226.93164 -37.3088,-67.65061 -91.2325,-122.67603 -153.2754,-163.33008 -123.7813,-81.10869 -270.9008,-101.0071 -406.2402,-86.59961 -68.9375,7.33871 -137.1368,23.85059 -202.0469,49.20117 -101.0929,-48.38499 -215.1662,-69.13472 -328.8985,-54.87695 -84.2749,10.56492 -165.9727,39.87565 -237.7675,86.8418 -65.0095,42.52731 -119.7896,98.44915 -161.6973,162.86328 -0.6662,-1.08919 -1.2455,-2.21089 -1.9199,-3.29688 -46.0279,-74.1126 -109.5634,-137.61892 -186.6738,-182.13086 -77.1001,-44.50601 -164.8961,-68.39773 -254.1329,-68.75781 z m 1160.5118,286.91406 c 14.4298,11.08648 28.1561,22.99508 40.7968,35.88282 85.9434,87.62272 132.7015,218.45415 125.5137,343.580074 -3.7815,65.828962 -22.2429,128.118872 -55.0957,174.039066 a 100.01,100.01 0 0 0 0,0.002 c -16.3788,22.89374 -36.5844,42.20183 -58.4297,55.7793 -21.6913,13.48173 -46.1285,21.83028 -69.1738,23.85937 -24.7747,2.18135 -52.2367,-2.64248 -76.9512,-13.74609 -24.9003,-11.18713 -48.5988,-29.249 -67.8086,-51.69531 -38.4532,-44.93215 -60.6883,-110.580658 -63.0351,-178.312504 -3.9467,-113.902876 46.9393,-233.452796 130.7285,-316.962896 27.7239,-27.63154 59.2848,-51.82469 93.4551,-72.42578 z"
       id="path4370-9-0-3-5-4-6-2"
       inkscape:connector-curvature="0" />
  </g>
</svg>
