<?xml version="1.0" encoding="UTF-8" standalone="no"?>
<!-- Created with Inkscape (http://www.inkscape.org/) -->

<svg
   xmlns:dc="http://purl.org/dc/elements/1.1/"
   xmlns:cc="http://creativecommons.org/ns#"
   xmlns:rdf="http://www.w3.org/1999/02/22-rdf-syntax-ns#"
   xmlns:svg="http://www.w3.org/2000/svg"
   xmlns="http://www.w3.org/2000/svg"
   xmlns:sodipodi="http://sodipodi.sourceforge.net/DTD/sodipodi-0.dtd"
   xmlns:inkscape="http://www.inkscape.org/namespaces/inkscape"
   width="2000"
   height="2048"
   id="svg2992"
   version="1.1"
   inkscape:version="0.91 r13725"
   sodipodi:docname="നു.svg">
  <defs
     id="defs5498">
    <inkscape:path-effect
       effect="spiro"
       id="path-effect3846"
       is_visible="true" />
    <inkscape:path-effect
       effect="spiro"
       id="path-effect3801"
       is_visible="true" />
    <inkscape:path-effect
       effect="spiro"
       id="path-effect4372-5-0"
       is_visible="true" />
    <inkscape:path-effect
       effect="spiro"
       id="path-effect4372-5-0-7"
       is_visible="true" />
    <inkscape:path-effect
       effect="spiro"
       id="path-effect4372-5-0-7-0"
       is_visible="true" />
    <inkscape:path-effect
       effect="spiro"
       id="path-effect4372-5-0-7-0-2"
       is_visible="true" />
    <inkscape:path-effect
       effect="spiro"
       id="path-effect4372-5-0-7-0-2-7"
       is_visible="true" />
    <inkscape:path-effect
       effect="spiro"
       id="path-effect4372-5-0-7-0-2-7-7"
       is_visible="true" />
    <inkscape:path-effect
       effect="spiro"
       id="path-effect4372-5-0-7-0-2-6"
       is_visible="true" />
    <inkscape:path-effect
       effect="spiro"
       id="path-effect4372-5-0-7-0-2-3"
       is_visible="true" />
    <inkscape:path-effect
       effect="spiro"
       id="path-effect4372-5-0-7-0-2-3-1"
       is_visible="true" />
  </defs>
  <sodipodi:namedview
     inkscape:window-height="850"
     inkscape:window-width="1600"
     inkscape:pageshadow="2"
     inkscape:pageopacity="0.0"
     borderopacity="1.0"
     bordercolor="#666666"
     pagecolor="#ffffff"
     id="base"
     showgrid="true"
     showguides="true"
     inkscape:guide-bbox="true"
     inkscape:zoom="0.35355339"
     inkscape:cx="4330.9792"
     inkscape:cy="-89.298844"
     inkscape:window-x="1600"
     inkscape:window-y="0"
     inkscape:current-layer="layer1"
     inkscape:window-maximized="1">
    <sodipodi:guide
       orientation="horizontal"
       position="0,600"
       id="guide5596" />
    <inkscape:grid
       type="xygrid"
       id="grid3769"
       empspacing="3"
       visible="true"
       enabled="true"
       snapvisiblegridlinesonly="true"
       spacingx="4px"
       units="px"
       dotted="true"
       spacingy="4px" />
    <sodipodi:guide
       orientation="0,1"
       position="-1040,1600"
       id="guide2985" />
    <sodipodi:guide
       position="2304,0"
       orientation="0,1"
       id="guide4167" />
  </sodipodi:namedview>
  <metadata
     id="metadata5594">
    <rdf:RDF>
      <cc:Work
         rdf:about="">
        <dc:format>image/svg+xml</dc:format>
        <dc:type
           rdf:resource="http://purl.org/dc/dcmitype/StillImage" />
        <dc:title />
      </cc:Work>
    </rdf:RDF>
  </metadata>
  <g
     inkscape:label="Layer 1"
     inkscape:groupmode="layer"
     id="layer1"
     transform="translate(0,1048)">
    <path
       style="fill:none;fill-rule:evenodd;stroke:#000000;stroke-width:140;stroke-linecap:round;stroke-linejoin:round;stroke-miterlimit:4;stroke-dasharray:none;stroke-opacity:1"
       d="m 1742.1898,233.793 c 40.8668,-57.49125 59.2785,-130.51848 50.5537,-200.512864 -8.7248,-69.994384 -44.5004,-136.267126 -98.23,-181.966886 -53.7296,-45.69976 -124.8845,-70.37681 -195.3718,-67.75646 -70.4874,2.62035 -139.6137,32.51232 -189.8019,82.0752 -36.7935,36.335089 -63.4198,82.876117 -76.0088,133.0310814 -12.589,50.1549646 -11.0931,103.7783986 4.3574,153.1270086 15.4505,49.34861 44.8192,94.26959 83.8847,128.15003 39.0656,33.88044 87.7138,56.60666 138.7813,64.73789 55.5151,8.83941 113.3928,0.403 164.8769,-22.16798 51.4841,-22.57099 96.5469,-59.02003 130.939,-103.48631 68.7841,-88.93257 92.9533,-207.538365 78.9475,-319.09147 -16.8115,-133.90025 -87.7085,-260.72035 -194.6537,-343.02837 -106.9453,-82.30803 -248.8922,-118.3798 -381.7047,-94.44761 -50.3513,9.07308 -99.3872,26.54244 -142.9634,53.3509 -43.5763,26.80845 -81.3941,63.0237 -109.5765,105.72423 -28.18228,42.70053 -46.45157,91.54902 -56.03226,141.80625 -9.58069,50.25723 -10.49006,101.71078 -10.84051,152.87186 l -3.0322,442.6673 2.2485,-441.4524 c 0.28765,-56.47583 -0.11045,-113.35852 -11.13969,-168.74767 -11.02924,-55.38914 -32.75309,-108.98315 -66.30241,-154.41491 -33.54933,-45.43175 -78.53911,-82.23221 -129.43751,-106.70576 -50.8984,-24.47354 -107.29577,-36.74107 -163.74829,-38.38853 -127.08537,-3.70875 -254.9464,47.84249 -343.47622,139.09442 C 135.92908,-320.48611 88.243813,-190.84181 97.161882,-64.015495 106.37555,67.014644 176.12586,192.55401 282.51609,269.59235 388.90632,346.6307 529.94243,373.72412 657.30493,341.5903"
       id="path4370-9-0-9-5-7"
       inkscape:path-effect="#path-effect4372-5-0-7-0-2"
       inkscape:original-d="m 1742.1898,233.793 c -30.8036,-177.9508 -275.0039,-472.86324 -432.85,-368.16101 -139.5241,92.548899 -13.1618,446.20741 151.0146,479.04601 190.0978,38.02339 396.1734,-252.06845 374.7634,-444.74576 -26.6372,-239.71937 -338.0213,-474.49433 -576.3584,-437.47598 -182.7759,28.38863 -319.78057,373.10332 -319.41267,453.75324 l -3.0322,442.6673 2.2485,-441.4524 C 952.9788,-294.44042 766.75234,-540.97245 567.93513,-550.83247 342.47436,-562.01383 77.387165,-288.88555 97.161882,-64.015495 117.35596,165.62337 472.66125,432.34736 657.30493,341.5903"
       inkscape:connector-curvature="0"
       sodipodi:nodetypes="caaaacccaac" />
    <path
       style="fill:none;fill-rule:evenodd;stroke:#000000;stroke-width:140;stroke-linecap:round;stroke-linejoin:round;stroke-miterlimit:4;stroke-dasharray:none;stroke-opacity:1"
       d="m 4460.2052,-179.16526 -321.3589,-5.20412 c -82.314,-1.333 -165.1164,-4.24708 -246.5913,7.55132 -40.7375,5.8992 -81.1058,15.83713 -118.701,32.59863 -37.5951,16.7615 -72.4425,40.59273 -99.0446,72.00405 -27.4799,32.447839 -45.6273,72.64681339 -52.1621,114.662339 -6.5348,42.015525 -1.483,85.725271 14.1116,125.283031 15.5946,39.55776 41.6563,74.88427 74.6109,101.75436 32.9546,26.87009 72.7098,45.25828 114.4542,53.34628 48.452,9.3876 99.3232,4.87356 145.8841,-11.49127 46.5608,-16.36482 88.7826,-44.41068 123.0255,-79.9514 68.4859,-71.08145 103.4006,-170.627545 105.8538,-269.303094 3.5714,-143.654726 -61.3208,-287.679146 -171.8102,-379.557016 -110.4893,-91.87786 -264.3396,-129.39868 -404.5482,-97.91896 -51.6047,11.58631 -101.3544,32.13689 -145.0712,61.90475 -43.7168,29.76786 -81.1259,68.78217 -108.8198,113.84135 -27.6939,45.05918 -45.4473,95.8535 -54.7924,147.91071 -9.3451,52.05721 -10.2966,105.208846 -10.7292,158.096426 l -3.0322,370.667304 2.2485,-369.452404 c 0.3544,-58.233283 0.09,-116.833996 -10.4327,-174.109816 -10.5224,-57.27583 -31.3709,-113.00326 -64.2243,-161.08545 -32.8533,-48.08218 -77.4248,-88.07916 -128.76,-115.57349 -51.3352,-27.49433 -109.0519,-42.5263 -167.2109,-45.48811 -124.0961,-6.31973 -249.9685,44.06841 -335.4243,134.27417 -85.4558,90.20576 -128.9681,218.61722 -115.9513,342.190446 13.0167,123.573226 82.3299,240.100064 184.7055,310.520334 102.3756,70.42027 235.9843,93.47562 356.0399,61.43782"
       id="path4370-9-0-9-5-7-9"
       inkscape:path-effect="#path-effect4372-5-0-7-0-2-7"
       inkscape:original-d="m 4460.2052,-179.16526 -321.3589,-5.20412 c -175.8436,-2.84763 -380.6591,4.60844 -464.3369,112.154 -94.2641,121.151429 13.4266,364.32746 151.0146,395.04601 169.2262,37.78225 381.2209,-187.4734 374.7634,-360.745764 -9.2912,-249.309126 -329.5574,-513.953846 -576.3584,-477.475976 -190.6037,28.17175 -319.7805,401.10332 -319.4126,481.753236 l -3.0322,370.667304 2.2485,-369.452404 c 14.4158,-211.864816 -178.3795,-571.534856 -370.6279,-496.256866 -264.7961,103.68518 -248.7728,1014.62847 89.3698,848.42277"
       inkscape:connector-curvature="0"
       sodipodi:nodetypes="cssaaacccac" />
    <path
       style="color:#000000;font-style:normal;font-variant:normal;font-weight:normal;font-stretch:normal;font-size:medium;line-height:normal;font-family:sans-serif;text-indent:0;text-align:start;text-decoration:none;text-decoration-line:none;text-decoration-style:solid;text-decoration-color:#000000;letter-spacing:normal;word-spacing:normal;text-transform:none;direction:ltr;block-progression:tb;writing-mode:lr-tb;baseline-shift:baseline;text-anchor:start;white-space:normal;clip-rule:nonzero;display:inline;overflow:visible;visibility:visible;opacity:1;isolation:auto;mix-blend-mode:normal;color-interpolation:sRGB;color-interpolation-filters:linearRGB;solid-color:#000000;solid-opacity:1;fill:#000000;fill-opacity:1;fill-rule:evenodd;stroke:none;stroke-width:140;stroke-linecap:round;stroke-linejoin:round;stroke-miterlimit:4;stroke-dasharray:none;stroke-dashoffset:0;stroke-opacity:1;color-rendering:auto;image-rendering:auto;shape-rendering:auto;text-rendering:auto;enable-background:accumulate"
       d="m 2990.8535,661.38672 c -136.0055,0.63412 -268.7158,57.60286 -362.5664,156.66992 -100.1072,105.67159 -149.9984,252.90616 -134.75,397.66606 15.2485,144.7598 94.7225,278.3655 214.6504,360.8593 119.928,82.4939 273.1205,108.9292 413.7598,71.3985 a 70.007,70.007 0 1 0 -36.0977,-135.2657 c -99.4719,26.5449 -213.4971,6.8682 -298.3203,-51.4785 -84.8231,-58.3466 -143.9767,-157.7932 -154.7617,-260.1797 -10.785,-102.3865 26.3499,-211.97683 97.1543,-286.71676 70.8045,-74.73996 178.2271,-117.74206 281.0469,-112.50586 48.4934,2.46958 96.2745,15.08727 137.7207,37.28516 41.2935,22.11616 77.5965,54.69491 104.0136,93.35742 26.4223,38.67001 44.1606,85.19354 53.1719,134.24414 9.0271,49.1349 9.6346,103.2995 9.2832,161.0352 l -2.25,369.4511 a 70.007,70.007 0 0 0 139.9961,1 l 0,-0.1465 0,-0.3593 3.0293,-370.1621 c 0.4289,-52.4317 1.6039,-101.5864 9.6309,-146.3008 8.02,-44.676 23.1355,-87.18942 45.5293,-123.62502 22.4075,-36.45796 53.0285,-68.42552 88.582,-92.63476 35.6839,-24.29804 77.2829,-41.64773 121.0078,-51.46485 117.9289,-26.47746 251.3266,5.99839 344.457,83.44141 35.9894,29.92712 66.4131,66.99346 90.127,108.15822 -61.6531,-0.8233 -125.7749,-0.1393 -191.625,9.3965 -45.2816,6.5572 -91.9561,17.7814 -137.1738,37.9414 -45.4399,20.259 -89.1556,49.6062 -123.9571,90.6992 -36.0843,42.6078 -59.3967,94.3804 -67.914,149.1426 -8.51,54.7141 -1.9972,110.588 18.1582,161.7148 20.1387,51.0847 53.2634,95.8955 95.498,130.332 42.2016,34.4098 92.3274,57.5385 145.375,67.8164 61.5485,11.9251 124.6005,6.1467 182.4102,-14.1718 57.6751,-20.2712 108.7984,-54.4296 150.2226,-97.4239 82.8951,-86.0366 122.5896,-202.1276 125.4239,-316.1308 0.6343,-25.5168 -0.7792,-50.9333 -3.7286,-76.1172 l 192.5352,3.1172 a 70.007,70.007 0 1 0 2.2656,-139.9805 l -230.3945,-3.7324 c -33.5074,-84.00838 -87.2888,-159.84645 -157.711,-218.40625 -127.8481,-106.3127 -302.1504,-148.87844 -464.6386,-112.39649 -59.4846,13.35549 -117.3851,37.10611 -169.1348,72.34375 -51.8801,35.32645 -96.0783,81.38845 -129.0586,135.04883 -0.801,1.3033 -1.5028,2.64745 -2.289,3.95703 -6.5611,-11.81873 -13.5216,-23.473 -21.2403,-34.76953 -39.2896,-57.50183 -92.129,-104.91659 -153.5058,-137.78906 -61.2243,-32.79075 -128.8767,-50.23543 -196.7012,-53.68946 -9.0858,-0.4627 -18.1674,-0.67118 -27.2344,-0.6289 z m 1106.8184,483.77738 c 35.1516,-0.4945 71.4393,0.2181 108.4453,0.8535 4.211,24.84 6.2362,49.9534 5.6152,74.9316 -2.0721,83.348 -32.2084,166.3484 -86.2851,222.4746 -27.0616,28.0872 -60.3797,50.0221 -95.8262,62.4805 -35.3122,12.4113 -74.0039,15.6587 -109.3594,8.8086 -30.4412,-5.898 -59.8256,-19.5446 -83.5332,-38.875 -23.6748,-19.3036 -42.6742,-45.1449 -53.7246,-73.1758 -11.0338,-27.9887 -14.6243,-59.5366 -10.0644,-88.8535 4.5522,-29.269 17.5346,-57.8919 36.4101,-80.1797 18.4027,-21.7296 44.3824,-40.0465 74.1328,-53.3105 29.9727,-13.3631 64.0351,-22.0128 100.2285,-27.2539 36.5998,-5.3001 74.6552,-7.3475 113.961,-7.9004 z"
       id="path4370-9-0-9-5-7-9-8"
       inkscape:connector-curvature="0" />
    <path
       style="color:#000000;font-style:normal;font-variant:normal;font-weight:normal;font-stretch:normal;font-size:medium;line-height:normal;font-family:sans-serif;text-indent:0;text-align:start;text-decoration:none;text-decoration-line:none;text-decoration-style:solid;text-decoration-color:#000000;letter-spacing:normal;word-spacing:normal;text-transform:none;direction:ltr;block-progression:tb;writing-mode:lr-tb;baseline-shift:baseline;text-anchor:start;white-space:normal;clip-rule:nonzero;display:inline;overflow:visible;visibility:visible;opacity:1;isolation:auto;mix-blend-mode:normal;color-interpolation:sRGB;color-interpolation-filters:linearRGB;solid-color:#000000;solid-opacity:1;fill:#000000;fill-opacity:1;fill-rule:evenodd;stroke:none;stroke-width:140;stroke-linecap:round;stroke-linejoin:round;stroke-miterlimit:4;stroke-dasharray:none;stroke-dashoffset:0;stroke-opacity:1;color-rendering:auto;image-rendering:auto;shape-rendering:auto;text-rendering:auto;enable-background:accumulate"
       d="M 572.37695,597.125 C 434.58492,600.41325 300.60145,658.17127 204.2168,757.51953 101.36174,863.53716 46.957093,1011.3218 57.333984,1158.8945 c 10.728139,152.568 90.249036,295.6931 214.126956,385.3946 123.87792,89.7013 284.67129,120.5895 432.96875,83.1738 a 70.007,70.007 0 1 0 -34.25,-135.7461 c -106.42755,26.8519 -227.70684,3.555 -316.60938,-60.8203 -88.90256,-64.3754 -148.88089,-172.33 -156.58008,-281.8223 -7.45922,-106.0798 33.50441,-217.58408 107.70899,-294.07029 74.24936,-76.53237 184.38227,-120.98232 291.19336,-117.86524 47.68328,1.39155 94.52506,11.82254 135.45703,31.50391 40.71863,19.57879 76.94579,49.29495 103.46094,85.20117 26.49987,35.88554 44.6808,79.89882 53.96093,126.50391 9.29969,46.70324 10.07773,98.81324 9.79297,154.72074 l -2.24609,440.9707 -0.002,0.3574 0,0.123 a 70.007,70.007 0 0 0 139.99609,0.836 l 0,-0.1231 0,0 0,-0.6308 3.0273,-441.9121 c 0.347,-50.6532 1.516,-97.8197 9.6035,-140.24419 8.0778,-42.37365 23.3696,-82.53145 45.6934,-116.35547 22.347,-33.85899 52.8243,-63.12509 87.832,-84.66211 35.1741,-21.63938 75.975,-36.38136 118.6992,-44.08007 112.1642,-20.21147 235.5436,10.95156 326.5977,81.02929 60.1805,46.31659 107.5943,110.35144 137.1367,181.59575 -66.7856,-54.74526 -151.9581,-83.57948 -238.3672,-80.36723 -88.5389,3.29134 -173.3456,39.96499 -236.3867,102.22073 -46.0438,45.4701 -78.9433,102.9526 -94.7168,165.7949 -15.7759,62.8517 -13.9366,129.1662 5.4492,191.084 19.3887,61.9271 55.7388,117.5485 104.8223,160.1172 49.0911,42.5753 109.3865,70.7538 173.6387,80.9843 69.8066,11.115 140.7121,0.5541 203.9902,-27.1875 63.1079,-27.6669 117.0329,-71.5396 158.2031,-124.7695 82.3562,-106.4802 109.0411,-243.1221 93.0313,-370.6367 -19.1613,-152.61556 -98.7771,-295.39646 -221.4141,-389.78126 -122.8365,-94.53831 -283.3517,-135.51815 -436.8125,-107.86523 -57.9784,10.44744 -115.2502,30.64162 -167.2285,62.61914 -52.1449,32.07988 -97.3025,75.24504 -131.32032,126.78711 -1.81049,2.74316 -3.43924,5.56766 -5.17774,8.34375 -7.66386,-13.22879 -15.97945,-26.16738 -25.1875,-38.63672 -40.58351,-54.95728 -94.33589,-98.8407 -155.41406,-128.20899 -60.86483,-29.26571 -126.81926,-43.37006 -192.04102,-45.27343 -9.20997,-0.26878 -18.41347,-0.29149 -27.59961,-0.0723 z m 959.36525,474.3828 c 52.4358,-1.9493 107.4482,17.1306 147.418,51.127 39.9696,33.9962 67.6306,85.2356 74.121,137.3047 6.4905,52.0692 -7.7455,108.5289 -38.1464,151.2968 a 70.007,70.007 0 0 0 -2.9883,4.543 c -24.474,25.7766 -53.5702,46.8326 -85.0215,60.6211 -39.6901,17.4004 -84.5401,23.7123 -125.7637,17.1484 -37.8828,-6.0318 -74.8857,-23.3045 -103.9258,-48.4902 -29.0475,-25.1921 -51.433,-59.4136 -62.9453,-96.1836 -11.5152,-36.7794 -12.6677,-77.7118 -3.2656,-115.1699 9.4045,-37.4677 29.7576,-73.0656 57.3008,-100.2656 37.3352,-36.8701 90.7809,-59.9824 143.2168,-61.9317 z"
       id="path4370-9-0-9-5-7-0"
       inkscape:connector-curvature="0" />
    <path
       style="fill:none;fill-rule:evenodd;stroke:#000000;stroke-width:120;stroke-linecap:round;stroke-linejoin:round;stroke-miterlimit:4;stroke-dasharray:none;stroke-opacity:1"
       d="m 6479.795,966.52662 c 26.8724,-37.80403 38.9793,-85.82393 33.2422,-131.84954 -5.7372,-46.02561 -29.2618,-89.60401 -64.5923,-119.65441 -35.3305,-30.0504 -82.1192,-46.27707 -128.469,-44.55402 -46.3498,1.72305 -91.8046,21.37887 -124.8064,53.96952 -24.194,23.89256 -41.7024,54.49614 -49.9804,87.4761 -8.2781,32.97997 -7.2944,68.24067 2.8653,100.6904 10.1596,32.44974 29.4713,61.98803 55.1593,84.2665 25.688,22.27843 57.6772,37.22233 91.2572,42.56913 36.5046,5.8125 74.5627,0.265 108.4167,-14.5768 33.8539,-14.8418 63.4855,-38.80929 86.1004,-68.04859 45.2298,-58.47861 61.1225,-136.46919 51.9128,-209.82219 -11.0546,-88.04762 -57.6737,-171.43961 -127.9968,-225.56218 -70.3231,-54.12257 -163.6618,-77.84198 -250.9942,-62.10513 -33.1091,5.96609 -65.3532,17.45326 -94.0073,35.08145 -28.654,17.62819 -53.5216,41.44193 -72.0532,69.52015 -18.5316,28.07822 -30.5448,60.19911 -36.8447,93.24633 -6.2999,33.04722 -6.8979,66.88109 -7.1283,100.52264 l -1.9938,291.08092 1.4785,-290.28205 c 0.1891,-37.13631 -0.073,-74.54016 -7.325,-110.96191 -7.2524,-36.42175 -21.5372,-71.6631 -43.5979,-101.53726 -22.0608,-29.87416 -51.6443,-54.07272 -85.1131,-70.16558 -33.4688,-16.09285 -70.5535,-24.15951 -107.6745,-25.24283 -83.5664,-2.43875 -167.6429,31.45934 -225.8567,91.46308 -58.2138,60.00374 -89.5698,145.25282 -83.7056,228.6489 6.0585,86.16036 51.9236,168.71019 121.8817,219.36764 69.9581,50.65741 162.698,68.47301 246.4467,47.34311"
       id="path4370-9-0-9-5-7-5"
       inkscape:path-effect="#path-effect4372-5-0-7-0-2-3"
       inkscape:original-d="m 6479.795,966.52662 c -20.2553,-117.01357 -180.832,-310.93657 -284.6255,-242.08845 -91.7456,60.85658 -8.6547,293.40873 99.3014,315.00213 125.001,25.0026 260.5083,-165.75043 246.4299,-292.44758 -17.5155,-157.63021 -222.2698,-312.00918 -378.991,-287.66731 -120.1864,18.66724 -210.2754,245.33832 -210.0335,298.37057 l -1.9938,291.08092 1.4785,-290.28205 c 9.4793,-139.3141 -112.9761,-301.42402 -243.7105,-307.90758 -148.2543,-7.35246 -322.5655,172.24616 -309.5623,320.11198 13.2789,151.00167 246.9139,326.38905 368.3284,266.71075"
       inkscape:connector-curvature="0"
       sodipodi:nodetypes="caaaacccaac" />
    <path
       style="color:#000000;font-style:normal;font-variant:normal;font-weight:normal;font-stretch:normal;font-size:medium;line-height:normal;font-family:sans-serif;text-indent:0;text-align:start;text-decoration:none;text-decoration-line:none;text-decoration-style:solid;text-decoration-color:#000000;letter-spacing:normal;word-spacing:normal;text-transform:none;direction:ltr;block-progression:tb;writing-mode:lr-tb;baseline-shift:baseline;text-anchor:start;white-space:normal;clip-rule:nonzero;display:inline;overflow:visible;visibility:visible;opacity:1;isolation:auto;mix-blend-mode:normal;color-interpolation:sRGB;color-interpolation-filters:linearRGB;solid-color:#000000;solid-opacity:1;fill:#000000;fill-opacity:1;fill-rule:evenodd;stroke:none;stroke-width:120;stroke-linecap:round;stroke-linejoin:round;stroke-miterlimit:4;stroke-dasharray:none;stroke-dashoffset:0;stroke-opacity:1;color-rendering:auto;image-rendering:auto;shape-rendering:auto;text-rendering:auto;enable-background:accumulate"
       d="m 4946.5,1062.5605 c -94.3399,2.2314 -185.7187,41.6292 -251.7695,109.711 -70.4925,72.66 -107.6087,173.458 -100.4942,274.6367 7.3566,104.6214 61.5955,202.2444 146.543,263.7559 84.9475,61.5115 194.6234,82.5792 296.3164,56.9218 a 60.006,60.006 0 1 0 -29.3574,-116.3535 c -65.8045,16.6026 -141.6095,2.0418 -196.5781,-37.7617 -54.9687,-39.8035 -92.4604,-107.2811 -97.2207,-174.9805 -4.6137,-65.6134 20.983,-135.3127 66.9179,-182.6601 45.9734,-47.387 114.8545,-75.1992 181.043,-73.2676 29.6044,0.8639 58.4976,7.3565 83.4238,19.3418 24.7434,11.8974 46.8162,30.0249 62.8477,51.7344 16.0183,21.6916 27.2663,48.7188 33.0195,77.6113 5.7697,28.9773 6.3565,62.2906 6.1699,98.9395 l -1.4785,290.2812 a 60.006,60.006 0 0 0 119.9981,0.7168 l 0,-0.1055 1.9941,-290.9746 c 0.2274,-33.2061 1.0483,-63.3657 6.0684,-89.6992 5.0117,-26.2899 14.4723,-50.9619 27.9824,-71.4316 13.5297,-20.4996 32.1064,-38.357 53.416,-51.4668 21.4523,-13.1977 46.6374,-22.3467 73.209,-27.1348 69.6338,-12.5477 147.0557,6.9641 203.7578,50.6035 24.0581,18.5158 44.8971,41.7073 61.6738,67.7168 -36.9775,-18.5513 -78.3246,-27.7436 -120.2363,-26.1855 -61.8226,2.2981 -120.7177,27.7662 -164.7363,71.2363 -32.1228,31.7226 -55.0081,71.7056 -66.0157,115.5605 -11.0097,43.8631 -9.732,90.0014 3.8008,133.2246 13.5352,43.2314 38.8326,81.9424 73.1074,111.668 34.2813,29.7311 76.2537,49.3479 121.1348,56.4942 48.7546,7.763 97.9784,0.3947 141.9414,-18.8789 43.8172,-19.2098 81.046,-49.5401 109.4707,-86.2911 56.8631,-73.5194 74.9118,-166.9715 63.9844,-254.0058 -13.0687,-104.0893 -67.1624,-201.1607 -150.9356,-265.6348 -83.944,-64.6055 -193.1975,-92.5316 -298.2285,-73.6055 -39.6466,7.1442 -78.9508,20.9667 -114.8066,43.0254 -31.7713,19.546 -59.7537,45.047 -82.0703,75.2754 -1.8833,-2.7481 -3.6969,-5.5289 -5.6875,-8.2246 -28.0901,-38.0389 -65.1847,-68.3093 -107.3789,-88.5976 -42.0114,-20.2004 -87.2883,-29.84 -131.9258,-31.1426 -6.309,-0.1841 -12.6111,-0.2015 -18.9004,-0.053 z m 631.7051,339.8672 c 30.8769,-1.1478 63.8289,10.28 87.3652,30.2989 a 60.006,60.006 0 0 0 0,0 c 23.5363,20.0188 40.1038,50.7118 43.9257,81.373 3.822,30.6611 -4.7056,64.48 -22.6074,89.6641 a 60.006,60.006 0 0 0 -1.584,2.4082 c -14.6964,15.2401 -32.0321,27.6395 -50.5097,35.7402 -23.745,10.4099 -50.636,14.1374 -74.8907,10.2754 -22.2788,-3.5474 -44.2861,-13.8188 -61.3808,-28.6445 -17.1012,-14.8314 -30.427,-35.1972 -37.2109,-56.8653 -6.7866,-21.6761 -7.4762,-46.0592 -1.9297,-68.1562 5.5484,-22.1051 17.68,-43.33 33.9453,-59.3926 21.985,-21.7111 53.9979,-35.5533 84.875,-36.7012 z"
       id="path4370-9-0-9-5-7-5-0"
       inkscape:connector-curvature="0" />
  </g>
</svg>
