<?xml version="1.0" encoding="UTF-8" standalone="no"?>
<!-- Created with Inkscape (http://www.inkscape.org/) -->

<svg
   xmlns:dc="http://purl.org/dc/elements/1.1/"
   xmlns:cc="http://creativecommons.org/ns#"
   xmlns:rdf="http://www.w3.org/1999/02/22-rdf-syntax-ns#"
   xmlns:svg="http://www.w3.org/2000/svg"
   xmlns="http://www.w3.org/2000/svg"
   xmlns:sodipodi="http://sodipodi.sourceforge.net/DTD/sodipodi-0.dtd"
   xmlns:inkscape="http://www.inkscape.org/namespaces/inkscape"
   width="2000"
   height="2048"
   id="svg2992"
   version="1.1"
   inkscape:version="0.91pre3 r13670"
   sodipodi:docname="ന്ധ.svg">
  <defs
     id="defs5498">
    <inkscape:path-effect
       effect="spiro"
       id="path-effect4139"
       is_visible="true" />
    <inkscape:path-effect
       effect="spiro"
       id="path-effect3846"
       is_visible="true" />
    <inkscape:path-effect
       effect="spiro"
       id="path-effect3801"
       is_visible="true" />
    <inkscape:path-effect
       effect="spiro"
       id="path-effect4139-0"
       is_visible="true" />
    <inkscape:path-effect
       effect="spiro"
       id="path-effect4139-0-7"
       is_visible="true" />
  </defs>
  <sodipodi:namedview
     inkscape:window-height="853"
     inkscape:window-width="1600"
     inkscape:pageshadow="2"
     inkscape:pageopacity="0.0"
     borderopacity="1.0"
     bordercolor="#666666"
     pagecolor="#ffffff"
     id="base"
     showgrid="true"
     showguides="true"
     inkscape:guide-bbox="true"
     inkscape:zoom="0.16051324"
     inkscape:cx="1884.1107"
     inkscape:cy="245.52204"
     inkscape:window-x="1598"
     inkscape:window-y="-3"
     inkscape:current-layer="layer1"
     inkscape:window-maximized="1"
     inkscape:snap-grids="false">
    <sodipodi:guide
       orientation="horizontal"
       position="0,600"
       id="guide5596" />
    <inkscape:grid
       type="xygrid"
       id="grid3769"
       empspacing="3"
       visible="true"
       enabled="true"
       snapvisiblegridlinesonly="true"
       spacingx="4px"
       units="px"
       dotted="true"
       spacingy="4px" />
    <sodipodi:guide
       orientation="0,1"
       position="-1040,1600"
       id="guide2985" />
  </sodipodi:namedview>
  <metadata
     id="metadata5594">
    <rdf:RDF>
      <cc:Work
         rdf:about="">
        <dc:format>image/svg+xml</dc:format>
        <dc:type
           rdf:resource="http://purl.org/dc/dcmitype/StillImage" />
        <dc:title />
      </cc:Work>
    </rdf:RDF>
  </metadata>
  <g
     inkscape:label="Layer 1"
     inkscape:groupmode="layer"
     id="layer1"
     transform="translate(0,1048)">
    <path
       style="color:#000000;font-style:normal;font-variant:normal;font-weight:normal;font-stretch:normal;font-size:medium;line-height:normal;font-family:sans-serif;text-indent:0;text-align:start;text-decoration:none;text-decoration-line:none;text-decoration-style:solid;text-decoration-color:#000000;letter-spacing:normal;word-spacing:normal;text-transform:none;direction:ltr;block-progression:tb;writing-mode:lr-tb;baseline-shift:baseline;text-anchor:start;white-space:normal;clip-rule:nonzero;display:inline;overflow:visible;visibility:visible;opacity:1;isolation:auto;mix-blend-mode:normal;color-interpolation:sRGB;color-interpolation-filters:linearRGB;solid-color:#000000;solid-opacity:1;fill:#000000;fill-opacity:1;fill-rule:nonzero;stroke:none;stroke-width:130;stroke-linecap:round;stroke-linejoin:round;stroke-miterlimit:4;stroke-dasharray:none;stroke-dashoffset:0;stroke-opacity:1;color-rendering:auto;image-rendering:auto;shape-rendering:auto;text-rendering:auto;enable-background:accumulate"
       d="m 1411.5098,-605.58789 c -7.9629,0.19235 -15.9219,0.63155 -23.8633,1.31445 -62.5304,5.37714 -123.2853,25.8584 -176.293,59.89453 -53.0495,34.06293 -96.6217,80.67338 -127.8633,134.44727 -6.3585,10.94441 -12.0236,22.14369 -17.3027,33.46484 -22.7052,-33.74543 -49.3719,-64.93217 -79.90039,-92.39648 -109.53948,-98.54487 -260.43585,-144.72513 -406.36523,-124.36328 -131.94025,18.4099 -253.34574,90.03502 -333.26954,196.61523 -79.92378,106.5802 -114.6725,243.18913 -95.38476,375.003908 19.28773,131.814772 91.72024,252.742492 198.83008,331.955082 107.10983,79.21259 243.94738,113.04946 375.63086,92.88476 A 65.0065,65.0065 0 1 0 706.05078,274.73047 C 609.79609,289.46995 505.68895,263.72701 427.39648,205.82617 349.10402,147.92534 293.9969,55.922933 279.89844,-40.427734 c -14.09847,-96.350656 12.33712,-200.286086 70.75781,-278.191406 58.42069,-77.90533 150.78809,-132.3967 247.23047,-145.85352 106.34785,-14.83895 221.62486,20.44005 301.45312,92.25586 64.73109,58.23398 108.01636,142.17997 120.18556,229.06836 -0.2841,24.30387 0.1108,48.133769 0.6601,71.175784 l 9.9551,417.525386 a 65.0065,65.0065 0 0 0 129.9727,-2.66992 l -0.01,-0.42969 -7.3008,-423.589839 -0.025,3.269531 c 0.8064,-24.383862 -0.3859,-48.686082 -3.1504,-72.753902 0.5258,-24.20836 1.9991,-47.56087 5.1934,-69.93555 6.398,-44.81634 19.8703,-87.57365 41.0742,-124.07031 21.1722,-36.44214 50.9506,-68.0506 85.6973,-90.36133 34.7883,-22.33753 75.7688,-36.20165 117.1914,-39.76367 42.0289,-3.61417 85.2933,3.36649 123.246,20.19531 37.8658,16.79028 71.9541,44.186 97.2071,77.77539 25.2938,33.64372 42.9882,75.04892 52.9394,119.21094 9.9731,44.25893 12.5792,93.43774 14.5039,145.95703 l 3.9512,107.8144519 c 1.5377,41.9584071 3.3215,87.4450851 13.2266,134.9843781 9.9184,47.60386 27.7716,95.1387 56.623,137.92578 28.8784,42.82727 67.5074,78.91555 113.2285,104.33008 45.6558,25.37825 96.6788,39.24519 148.3887,41.15039 79.0354,2.91197 155.594,-22.08228 218.75,-65.60742 62.8914,-43.34284 110.6691,-103.35715 142.9063,-169.3711 3.1633,-6.47769 6.0528,-13.03212 8.916,-19.5918 14.8388,27.77222 32.1624,54.43229 52.166,79.4629 53.3384,66.74278 123.6303,119.1542 203.2656,150.79687 79.4974,31.58787 165.7981,41.74085 249.6289,32.16211 111.5833,-12.7498 218.1752,-60.42593 301.4473,-136.54492 83.3345,-76.17595 140.8794,-178.83172 161.0098,-290.4433619 29.4006,-163.0104881 -24.5825,-334.8912581 -141.9043,-451.8203081 -117.322,-116.92903 -289.3839,-170.33591 -452.295,-140.38868 a 65.0065,65.0065 0 1 0 23.5039,127.85743 c 118.8546,-21.84853 251.4272,19.30173 337.0215,104.60937 85.5942,85.3076 127.1881,217.74082 105.7383,336.667969 -14.8568,82.372686 -58.6281,160.748521 -120.7832,217.564451 -62.2173,56.87289 -144.2413,93.71244 -228.498,103.33985 -63.394,7.24356 -128.6507,-0.68596 -186.8633,-23.81641 -58.0747,-23.07565 -110.5452,-62.12686 -149.7168,-111.14258 -39.2018,-49.05349 -66.379,-109.580941 -81.5098,-173.734373 -15.1567,-64.263982 -18.7402,-134.460547 -21.3105,-208.035157 l -11.1543,-319.27344 -0.01,-0.23828 a 65.0065,65.0065 0 0 0 -129.9278,4.30078 l 0.01,0.23828 9.9395,317.79297 c 1.9824,63.38284 3.4826,124.233949 -2.4414,181.861331 -5.9154,57.543674 -19.3942,112.893104 -43.0469,161.328129 -23.5544,48.23367 -58.0637,90.57125 -99.8613,119.37695 -41.5332,28.62339 -92.1743,44.50561 -140.1953,42.73633 -31.4587,-1.15907 -62.9273,-9.80701 -90.0137,-24.86328 -27.0212,-15.02 -50.9511,-37.20876 -68.6016,-63.38477 -17.6776,-26.21618 -30.0873,-57.89229 -37.1445,-91.76367 -7.0707,-33.935962 -9.0698,-72.017824 -10.5801,-113.2285169 L 1816.5938,-116.375 c -1.9556,-53.35989 -4.2786,-110.67172 -17.5958,-169.77148 -13.339,-59.19667 -37.4749,-117.71308 -75.8496,-168.75586 -38.4154,-51.09709 -89.4302,-92.33908 -148.4199,-118.4961 -51.54,-22.85365 -107.4785,-33.53588 -163.2187,-32.18945 z"
       id="path3879-2"
       inkscape:connector-curvature="0" />
    <path
       style="fill:none;stroke:#000000;stroke-width:130;stroke-linecap:round;stroke-linejoin:round;stroke-miterlimit:4;stroke-dasharray:none;stroke-opacity:1"
       d="m 746.83838,1821.3687 c -113.96907,17.4521 -234.442,-12.338 -327.14313,-80.8948 -92.70114,-68.5567 -156.46961,-175.0215 -173.1627,-289.1042 -16.69309,-114.0827 13.89824,-234.3547 83.07048,-326.5975 69.17223,-92.2427 176.05916,-155.30115 290.25045,-171.23452 126.13863,-17.60041 259.22519,23.12905 353.90906,108.30942 94.68386,85.1803 149.21126,213.2338 145.00136,340.5248 l 7.3081,424.0188 -9.9552,-417.5261 c -1.2435,-52.1535 -2.066,-104.5749 5.3069,-156.2196 7.3729,-51.6447 23.011,-102.4286 49.2179,-147.5366 26.2069,-45.108 62.8826,-84.2169 106.7806,-112.40377 43.898,-28.18684 94.7664,-45.3608 146.7429,-49.83038 52.7803,-4.53871 106.7358,4.0623 155.1636,25.53595 48.4277,21.47365 90.9797,55.7927 122.8138,98.1359 31.8342,42.3433 52.7485,92.3035 64.3936,143.9829 11.6451,51.6793 14.1109,104.9243 16.051,157.8639 l 3.9512,107.8152 c 1.524,41.5845 3.4148,83.3685 11.9027,124.1061 8.4878,40.7376 23.6194,80.3426 46.8839,114.8442 23.2644,34.5016 54.5433,63.6412 90.9145,83.8584 36.3711,20.2173 77.6174,31.4737 119.2017,33.0058 63.5282,2.3406 127.1277,-18.0965 179.4723,-54.1707 52.3445,-36.0743 93.4882,-87.2506 121.384,-144.3744 27.8958,-57.1238 42.798,-119.9668 49.2988,-183.2048 6.5008,-63.238 4.7376,-127.0003 2.7503,-190.5405 l -9.9469,-318.03036 11.162,319.51216 c 2.5868,74.0462 5.9977,148.5735 23.0056,220.6863 17.0079,72.1128 47.7422,141.513 93.9972,199.3922 46.2549,57.8793 107.6359,103.611 176.4909,130.9702 68.855,27.3591 144.6337,36.4001 218.2461,27.9889 97.92,-11.1886 192.2282,-53.4458 264.9729,-119.9418 72.7448,-66.4959 123.4025,-157.0121 140.8961,-254.0043 25.4252,-140.9688 -22.3631,-293.1261 -123.8211,-394.2444 C 3101.8912,970.94275 2949.5746,923.66499 2808.6918,949.56287"
       id="path3879-2-3"
       inkscape:connector-curvature="0"
       sodipodi:nodetypes="cascsassascsaac"
       inkscape:path-effect="#path-effect4139-0-7"
       inkscape:original-d="M 746.83838,1821.3687 C 310.8346,1311.9526 362.13668,1091.5772 619.85348,953.53768 c 197.1919,-105.62092 520.94072,-2.6136 498.91042,448.83422 l 7.3081,424.0188 -9.9552,-417.5261 c -6.7003,-281.0141 122.1588,-455.20553 308.0483,-465.99035 185.1408,-10.74139 351.5417,237.77925 358.422,425.51865 l 3.9512,107.8152 c 5.6081,153.0263 120.4036,362.8429 268.9028,355.8145 223.8671,-10.5955 369.9229,-363.7074 352.9054,-572.2904 l -9.9469,-318.03036 11.162,319.51216 c 11.4897,328.8931 254.4907,565.8378 511.7398,579.0376 183.7164,9.4267 402.2602,-190.0233 405.869,-373.9461 4.7866,-243.9573 -307.6561,-378.9574 -518.4786,-516.74263" />
  </g>
</svg>
