<?xml version="1.0" encoding="UTF-8" standalone="no"?>
<!-- Created with Inkscape (http://www.inkscape.org/) -->

<svg
   xmlns:dc="http://purl.org/dc/elements/1.1/"
   xmlns:cc="http://creativecommons.org/ns#"
   xmlns:rdf="http://www.w3.org/1999/02/22-rdf-syntax-ns#"
   xmlns:svg="http://www.w3.org/2000/svg"
   xmlns="http://www.w3.org/2000/svg"
   xmlns:sodipodi="http://sodipodi.sourceforge.net/DTD/sodipodi-0.dtd"
   xmlns:inkscape="http://www.inkscape.org/namespaces/inkscape"
   width="2000"
   height="2048"
   id="svg2992"
   version="1.1"
   inkscape:version="0.91pre3 r13670"
   sodipodi:docname="ന്ധ്ര.svg">
  <defs
     id="defs5498">
    <inkscape:path-effect
       effect="spiro"
       id="path-effect4150"
       is_visible="true" />
    <inkscape:path-effect
       effect="spiro"
       id="path-effect3846"
       is_visible="true" />
    <inkscape:path-effect
       effect="spiro"
       id="path-effect3801"
       is_visible="true" />
    <inkscape:path-effect
       effect="spiro"
       id="path-effect4139-0-7"
       is_visible="true" />
    <inkscape:path-effect
       effect="spiro"
       id="path-effect4139-0-7-3"
       is_visible="true" />
    <inkscape:path-effect
       effect="spiro"
       id="path-effect4150-4"
       is_visible="true" />
  </defs>
  <sodipodi:namedview
     inkscape:window-height="853"
     inkscape:window-width="1600"
     inkscape:pageshadow="2"
     inkscape:pageopacity="0.0"
     borderopacity="1.0"
     bordercolor="#666666"
     pagecolor="#ffffff"
     id="base"
     showgrid="true"
     showguides="true"
     inkscape:guide-bbox="true"
     inkscape:zoom="0.227"
     inkscape:cx="1695.3893"
     inkscape:cy="113.5259"
     inkscape:window-x="1598"
     inkscape:window-y="-3"
     inkscape:current-layer="layer1"
     inkscape:window-maximized="1"
     inkscape:snap-grids="false">
    <sodipodi:guide
       orientation="horizontal"
       position="0,600"
       id="guide5596" />
    <inkscape:grid
       type="xygrid"
       id="grid3769"
       empspacing="3"
       visible="true"
       enabled="true"
       snapvisiblegridlinesonly="true"
       spacingx="4px"
       units="px"
       dotted="true"
       spacingy="4px" />
    <sodipodi:guide
       orientation="0,1"
       position="-1040,1600"
       id="guide2985" />
  </sodipodi:namedview>
  <metadata
     id="metadata5594">
    <rdf:RDF>
      <cc:Work
         rdf:about="">
        <dc:format>image/svg+xml</dc:format>
        <dc:type
           rdf:resource="http://purl.org/dc/dcmitype/StillImage" />
        <dc:title />
      </cc:Work>
    </rdf:RDF>
  </metadata>
  <g
     inkscape:label="Layer 1"
     inkscape:groupmode="layer"
     id="layer1"
     transform="translate(0,1048)">
    <path
       style="color:#000000;font-style:normal;font-variant:normal;font-weight:normal;font-stretch:normal;font-size:medium;line-height:normal;font-family:sans-serif;text-indent:0;text-align:start;text-decoration:none;text-decoration-line:none;text-decoration-style:solid;text-decoration-color:#000000;letter-spacing:normal;word-spacing:normal;text-transform:none;direction:ltr;block-progression:tb;writing-mode:lr-tb;baseline-shift:baseline;text-anchor:start;white-space:normal;clip-rule:nonzero;display:inline;overflow:visible;visibility:visible;opacity:1;isolation:auto;mix-blend-mode:normal;color-interpolation:sRGB;color-interpolation-filters:linearRGB;solid-color:#000000;solid-opacity:1;fill:#000000;fill-opacity:1;fill-rule:nonzero;stroke:none;stroke-width:130;stroke-linecap:round;stroke-linejoin:round;stroke-miterlimit:4;stroke-dasharray:none;stroke-dashoffset:0;stroke-opacity:1;color-rendering:auto;image-rendering:auto;shape-rendering:auto;text-rendering:auto;enable-background:accumulate"
       d="m -77.306641,438.85547 c -23.086599,0.13324 -44.623149,11.64025 -57.566409,30.75781 -102.8914,147.42887 -161.50536,324.10233 -167.14257,503.79688 -5.63723,179.69454 41.78817,359.69294 135.23632,513.28124 105.949194,174.1345 270.07689,309.0585 459.1836,382.7852 189.31978,73.8097 390.06609,80.6694 579.66797,80.6269 l 1398.61723,-0.3144 c 110.923,-0.025 226.6107,-1.9137 342.8476,-26.4688 115.9415,-24.4927 227.9992,-70.1602 327.1934,-137.2637 127.5246,-86.2686 231.4186,-205.7685 299.1191,-344.0488 67.7005,-138.2803 98.37,-293.6297 93.9449,-451.3679 -4.4251,-157.7382 -58.4723,-298.8506 -159.3199,-399.3606 -117.3219,-116.92904 -289.3839,-170.3359 -452.2949,-140.38868 -35.7561,6.0482 -59.6497,40.18279 -53.0932,75.84914 6.5565,35.66635 41.0277,59.07179 76.5971,52.00829 118.8546,-21.84853 251.4272,19.29977 337.0215,104.60742 74.0347,73.78694 115.1392,182.83105 111.0137,287.89648 -4.3394,10.30564 -6.147,21.50081 -5.2715,32.64845 0.2635,4.0208 0.4948,8.0445 0.6914,12.0703 -0.2272,1.3528 -0.4539,2.7053 -0.6973,4.0547 -14.8568,82.3727 -58.6281,160.7485 -120.7832,217.5644 -62.2173,56.8729 -144.2393,93.7105 -228.4961,103.3379 -63.3939,7.2436 -128.6526,-0.684 -186.8652,-23.8144 -58.0747,-23.0757 -110.5434,-62.1289 -149.7149,-111.1445 -39.2018,-49.0536 -66.381,-109.5792 -81.5117,-173.7325 -15.1567,-64.26396 -18.7383,-134.46052 -21.3086,-208.03513 l -11.1543,-319.27539 -0.01,-0.23633 c -1.6971,-35.48906 -31.5728,-63.04117 -67.0829,-61.86574 -35.5102,1.17543 -63.4984,30.64292 -62.8449,66.16652 l 0.01,0.23633 9.9375,317.79297 c 1.9824,63.38284 3.4826,124.2359 -2.4414,181.86327 -5.9154,57.5437 -19.3942,112.8931 -43.0469,161.3281 -23.5544,48.2337 -58.0637,90.5713 -99.8613,119.377 -41.5332,28.6234 -92.1723,44.5036 -140.1934,42.7344 -31.4587,-1.1591 -62.9292,-9.8051 -90.0156,-24.8614 -27.0212,-15.02 -50.9511,-37.2107 -68.6016,-63.3867 -17.6776,-26.2162 -30.0853,-57.8903 -37.1425,-91.7617 -7.0708,-33.936 -9.0698,-72.0178 -10.5801,-113.2285 l -3.9512,-107.81447 c -1.9555,-53.35989 -4.2805,-110.67368 -17.5977,-169.77344 -13.339,-59.19667 -37.473,-117.71112 -75.8476,-168.7539 -38.4154,-51.09723 -89.4322,-92.3391 -148.4219,-118.4961 -51.54,-22.85366 -107.4766,-33.53589 -163.2168,-32.18945 -7.9629,0.19235 -15.9218,0.62959 -23.8633,1.3125 -62.5304,5.37714 -123.2853,25.86034 -176.2929,59.89648 -53.0494,34.06295 -96.6237,80.67143 -127.8653,134.44532 -6.3586,10.9446 -12.0216,22.14544 -17.3007,33.46679 C 999.67151,637.4319 973.00341,606.24584 942.47461,578.78125 832.93512,480.23637 682.04072,434.05611 536.11133,454.41797 404.17109,472.82789 282.76363,544.45107 202.83984,651.03125 122.91607,757.61144 88.169309,894.22234 107.45703,1026.0371 c 19.28774,131.8148 91.71832,252.7425 198.82813,331.9551 107.10981,79.2126 243.94739,113.0494 375.63086,92.8848 35.89089,-5.0098 60.75557,-38.3997 55.27081,-74.2211 -5.48475,-35.8213 -39.20101,-60.2416 -74.9466,-54.2829 -96.25467,14.7395 -200.3638,-11.0034 -278.65625,-68.9042 -78.29245,-57.9009 -133.39762,-149.9033 -147.49609,-246.254 -14.09846,-96.35061 12.33713,-200.28408 70.75781,-278.18941 58.4207,-77.90532 150.78811,-132.39865 247.23047,-145.85547 106.34787,-14.83896 221.62486,20.44005 301.45313,92.25586 64.73108,58.23396 108.01632,142.17997 120.18554,229.06836 -0.28408,24.30438 0.11076,48.1333 0.66016,71.17578 l 9.95508,417.52738 c 1.23167,35.5229 30.76592,63.4702 66.30262,62.7402 35.5367,-0.7301 63.8982,-29.8667 63.67,-65.4102 l -7.2871,-422.78902 c -0.019,0.6798 -0.024,1.35914 -0.047,2.03906 l 0.025,-3.26953 0.022,1.23047 c 0.6759,-23.69904 -0.5099,-47.31854 -3.1972,-70.71484 0.5258,-24.20836 1.9991,-47.56087 5.1933,-69.93555 6.3981,-44.81634 19.8684,-87.57363 41.0723,-124.07031 21.1722,-36.44213 50.9506,-68.05058 85.6972,-90.36133 34.7884,-22.33754 75.7708,-36.2036 117.1934,-39.76563 42.0289,-3.61417 85.2934,3.36649 123.2461,20.19532 37.8657,16.7903 71.9543,44.18807 97.207,77.77734 25.2938,33.64372 42.9863,75.04891 52.9375,119.21094 9.9731,44.25892 12.5812,93.43579 14.5059,145.95508 l 3.9512,107.8164 c 1.5377,41.9584 3.3195,87.4431 13.2246,134.9824 9.9184,47.6039 27.7736,95.1387 56.625,137.9258 28.8783,42.8273 67.5054,78.9175 113.2265,104.332 45.6558,25.3783 96.6788,39.2433 148.3887,41.1485 79.0354,2.9119 155.596,-22.0804 218.752,-65.6055 62.8913,-43.3428 110.669,-103.3591 142.9062,-169.373 3.1634,-6.4778 6.0528,-13.0301 8.916,-19.5899 14.8388,27.7722 32.1625,54.4323 52.166,79.4629 53.3384,66.7429 123.6303,119.1542 203.2657,150.7969 79.4974,31.5878 165.7961,41.7408 249.6269,32.1621 97.8328,-11.1786 191.8289,-49.2086 269.6348,-109.7149 -3.0484,6.7397 -6.1925,13.4343 -9.4434,20.0743 -56.7798,115.9745 -144.8724,217.2977 -251.8261,289.6504 -83.0294,56.1681 -178.3747,95.2666 -277.6856,116.2461 -99.0155,20.917 -204.8614,23.4208 -313.9414,23.4453 l -1398.61718,0.3144 c -185.74227,0.042 -368.39631,-8.5347 -528.78321,-71.0644 C 182.65782,1676.4262 41.970653,1560.4432 -47.177734,1413.9219 -126.22928,1283.9954 -166.85274,1129.8097 -162.08398,977.79883 c 4.76875,-152.01085 54.97565,-303.34649 142.015621,-428.0625 15.3774435,-21.38167 17.453435,-49.58456 5.372545,-72.98742 -12.08089,-23.40286 -36.274185,-38.04517 -62.610827,-37.89344 z"
       id="path3879-2-3"
       transform="translate(0,-1048)"
       inkscape:connector-curvature="0"
       sodipodi:nodetypes="ccsssssssscscscsccccssssssccsccssssssssssssssssscssssscscssssscscsccccccssssssssssssssscssscsssssssscsc" />
    <path
       style="fill:none;stroke:#000000;stroke-width:130;stroke-linecap:round;stroke-linejoin:round;stroke-miterlimit:4;stroke-dasharray:none;stroke-opacity:1"
       d="m 867.55122,2174.5248 c -113.96909,17.4521 -234.44205,-12.338 -327.14321,-80.8947 -92.70115,-68.5567 -156.46964,-175.0216 -173.16274,-289.1043 -16.69309,-114.0827 13.89825,-234.3547 83.07051,-326.5975 69.17226,-92.2428 176.05922,-155.3012 290.25054,-171.2345 126.13861,-17.6004 259.22512,23.1291 353.90898,108.3094 94.6838,85.1804 149.2112,213.2338 145.0013,340.5248 l 7.3081,424.0188 -9.9552,-417.5261 c -1.2435,-52.1535 -2.066,-104.5749 5.3069,-156.2197 7.3729,-51.6447 23.011,-102.4285 49.2179,-147.5365 26.2068,-45.1081 62.8826,-84.217 106.7806,-112.4038 43.898,-28.1869 94.7664,-45.3608 146.7429,-49.8304 52.7803,-4.5387 106.7358,4.0623 155.1636,25.536 48.4277,21.4736 90.9797,55.7926 122.8138,98.1359 31.8342,42.3433 52.7485,92.3035 64.3936,143.9829 11.6451,51.6793 14.1109,104.9243 16.051,157.8639 l 3.9512,107.8152 c 1.524,41.5845 3.4148,83.3685 11.9027,124.1061 8.4878,40.7376 23.6194,80.3426 46.8839,114.8442 23.2644,34.5016 54.5433,63.6412 90.9145,83.8584 36.3711,20.2173 77.6174,31.4737 119.2017,33.0058 63.5282,2.3406 127.1277,-18.0965 179.4723,-54.1707 52.3445,-36.0743 93.4882,-87.2506 121.384,-144.3744 27.8958,-57.1238 42.798,-119.9668 49.2988,-183.2048 6.5008,-63.238 4.7376,-127.0003 2.7503,-190.5405 l -9.9469,-318.0304 11.162,319.5122 c 2.5868,74.0462 5.9977,148.5735 23.0056,220.6863 17.0079,72.1128 47.7422,141.513 93.9972,199.3922 46.2549,57.8793 107.6359,103.611 176.4909,130.9702 68.855,27.3591 144.6337,36.4001 218.2461,27.9889 97.92,-11.1886 192.2282,-53.4458 264.9729,-119.9418 72.7448,-66.4959 123.4025,-157.0121 140.8961,-254.0043 25.4252,-140.9688 -22.3631,-293.1261 -123.8211,-394.2444 -101.4581,-101.1183 -253.7747,-148.3961 -394.6575,-122.4982"
       id="path3879-2-3-9"
       inkscape:connector-curvature="0"
       sodipodi:nodetypes="cascsassascsaac"
       inkscape:path-effect="#path-effect4139-0-7-3"
       inkscape:original-d="m 867.55122,2174.5248 c -436.00382,-509.4161 -384.70174,-729.7915 -126.9849,-867.831 197.1918,-105.621 520.94058,-2.6136 498.91028,448.8342 l 7.3081,424.0188 -9.9552,-417.5261 c -6.7003,-281.0141 122.1588,-455.2055 308.0483,-465.9904 185.1408,-10.7414 351.5417,237.7793 358.422,425.5187 l 3.9512,107.8152 c 5.6081,153.0263 120.4036,362.8429 268.9028,355.8145 223.8671,-10.5955 369.9229,-363.7074 352.9054,-572.2904 l -9.9469,-318.0304 11.162,319.5122 c 11.4897,328.8931 254.4907,565.8378 511.7398,579.0376 183.7164,9.4267 402.2602,-190.0233 405.869,-373.9461 4.7866,-243.9573 -307.6561,-378.9574 -518.4786,-516.7426" />
    <path
       style="fill:none;fill-rule:evenodd;stroke:#000000;stroke-width:140;stroke-linecap:round;stroke-linejoin:round;stroke-miterlimit:4;stroke-dasharray:none;stroke-opacity:1"
       d="m 3453.7711,1787.2221 c 9.2588,141.2426 -19.0778,284.7781 -81.3179,411.9055 -62.2401,127.1274 -158.2331,237.5391 -275.4723,316.8498 -91.1118,61.6358 -194.8135,104.0182 -302.4397,126.7543 -107.6262,22.7361 -218.3938,24.9331 -328.3953,24.9577 l -1398.6162,0.3131 c -187.67206,0.042 -379.37303,-7.6759 -554.22636,-75.8456 C 338.45001,2523.9871 186.0426,2398.5352 88.493827,2238.2073 2.2439789,2096.4499 -41.78051,1929.3568 -36.577523,1763.5041 -31.374535,1597.6514 23.036885,1433.6462 118.00257,1297.5738"
       id="path4148-7"
       inkscape:path-effect="#path-effect4150-4"
       inkscape:original-d="m 3453.7711,1787.2221 c 0,0 -145.7617,559.5788 -356.7902,728.7553 -168.7434,135.2776 -216.996,151.6193 -630.835,151.712 l -1398.6162,0.3131 c -331.12978,0.074 -788.84714,-128.3746 -979.035873,-429.7952 -167.39828,-265.3011 29.508743,-940.6335 29.508743,-940.6335"
       inkscape:connector-curvature="0"
       sodipodi:nodetypes="cassac" />
  </g>
</svg>
