<?xml version="1.0" encoding="UTF-8" standalone="no"?>
<!-- Created with Inkscape (http://www.inkscape.org/) -->

<svg
   xmlns:dc="http://purl.org/dc/elements/1.1/"
   xmlns:cc="http://creativecommons.org/ns#"
   xmlns:rdf="http://www.w3.org/1999/02/22-rdf-syntax-ns#"
   xmlns:svg="http://www.w3.org/2000/svg"
   xmlns="http://www.w3.org/2000/svg"
   xmlns:sodipodi="http://sodipodi.sourceforge.net/DTD/sodipodi-0.dtd"
   xmlns:inkscape="http://www.inkscape.org/namespaces/inkscape"
   width="2000"
   height="2048"
   id="svg2992"
   version="1.1"
   inkscape:version="0.91 r13725"
   sodipodi:docname="ന്ധ്ര.svg">
  <defs
     id="defs5498">
    <inkscape:path-effect
       effect="spiro"
       id="path-effect4150"
       is_visible="true" />
    <inkscape:path-effect
       effect="spiro"
       id="path-effect3846"
       is_visible="true" />
    <inkscape:path-effect
       effect="spiro"
       id="path-effect3801"
       is_visible="true" />
    <inkscape:path-effect
       effect="spiro"
       id="path-effect4139-0-7"
       is_visible="true" />
    <inkscape:path-effect
       effect="spiro"
       id="path-effect4139-0-7-3"
       is_visible="true" />
    <inkscape:path-effect
       effect="spiro"
       id="path-effect4150-4"
       is_visible="true" />
    <inkscape:path-effect
       effect="spiro"
       id="path-effect4139-0-7-7"
       is_visible="true" />
    <inkscape:path-effect
       effect="spiro"
       id="path-effect4150-4-9"
       is_visible="true" />
    <inkscape:path-effect
       effect="spiro"
       id="path-effect4139-0-7-7-8"
       is_visible="true" />
    <inkscape:path-effect
       effect="spiro"
       id="path-effect4139-0-7-7-0"
       is_visible="true" />
    <inkscape:path-effect
       effect="spiro"
       id="path-effect4150-4-5"
       is_visible="true" />
    <inkscape:path-effect
       effect="spiro"
       id="path-effect4150-4-5-6"
       is_visible="true" />
    <inkscape:path-effect
       effect="spiro"
       id="path-effect4139-0-7-7-0-7"
       is_visible="true" />
    <inkscape:path-effect
       effect="spiro"
       id="path-effect4150-4-1"
       is_visible="true" />
    <inkscape:path-effect
       effect="spiro"
       id="path-effect4139-0-7-7-3"
       is_visible="true" />
    <inkscape:path-effect
       effect="spiro"
       id="path-effect4150-4-3"
       is_visible="true" />
    <inkscape:path-effect
       effect="spiro"
       id="path-effect4139-0-7-7-39"
       is_visible="true" />
    <inkscape:path-effect
       effect="spiro"
       id="path-effect4150-4-0"
       is_visible="true" />
    <inkscape:path-effect
       effect="spiro"
       id="path-effect4139-0-7-7-06"
       is_visible="true" />
  </defs>
  <sodipodi:namedview
     inkscape:window-height="844"
     inkscape:window-width="1600"
     inkscape:pageshadow="2"
     inkscape:pageopacity="0.0"
     borderopacity="1.0"
     bordercolor="#666666"
     pagecolor="#ffffff"
     id="base"
     showgrid="true"
     showguides="true"
     inkscape:guide-bbox="true"
     inkscape:zoom="0.1767767"
     inkscape:cx="4681.0149"
     inkscape:cy="967.07241"
     inkscape:window-x="1600"
     inkscape:window-y="0"
     inkscape:current-layer="layer1"
     inkscape:window-maximized="1"
     inkscape:snap-grids="false">
    <sodipodi:guide
       orientation="horizontal"
       position="0,600"
       id="guide5596" />
    <inkscape:grid
       type="xygrid"
       id="grid3769"
       empspacing="3"
       visible="true"
       enabled="true"
       snapvisiblegridlinesonly="true"
       spacingx="4px"
       units="px"
       dotted="true"
       spacingy="4px" />
    <sodipodi:guide
       orientation="0,1"
       position="-1040,1600"
       id="guide2985" />
  </sodipodi:namedview>
  <metadata
     id="metadata5594">
    <rdf:RDF>
      <cc:Work
         rdf:about="">
        <dc:format>image/svg+xml</dc:format>
        <dc:type
           rdf:resource="http://purl.org/dc/dcmitype/StillImage" />
        <dc:title />
      </cc:Work>
    </rdf:RDF>
  </metadata>
  <g
     inkscape:label="Layer 1"
     inkscape:groupmode="layer"
     id="layer1"
     transform="translate(0,1048)">
    <path
       style="fill:none;fill-rule:evenodd;stroke:#000000;stroke-width:140;stroke-linecap:round;stroke-linejoin:round;stroke-miterlimit:4;stroke-dasharray:none;stroke-opacity:1"
       d="m 3164.2381,-1.350585 c 17.2643,141.974935 -7.507,288.800755 -70.3957,417.252895 -62.8887,128.45214 -163.6672,238.06575 -286.3945,311.5024 -93.305,55.83116 -198.3854,90.46242 -305.6146,108.48545 -107.2293,18.02304 -216.487,19.19494 -325.2204,19.2265 l -1078.6162,0.3131 C 889.20325,855.49037 677.29705,851.23708 477.45434,790.75898 277.61163,730.28087 91.786496,612.74918 -30.349163,443.40459 -132.27995,302.07464 -187.54792,127.66463 -185.61729,-46.57748 c 1.93062,-174.24211 61.04953,-347.3847 166.08682,-486.42141"
       id="path4148-7"
       inkscape:path-effect="#path-effect4150-4"
       inkscape:original-d="m 3164.2381,-1.350585 c 0,0 -142.7292,563.432575 -356.7902,728.755295 -169.7994,131.1388 -216.996,127.59182 -630.835,127.71195 l -1078.6162,0.3131 C 766.86689,855.52588 197.32136,772.7852 -30.349163,443.40459 -215.42098,175.65334 -19.53047,-532.99889 -19.53047,-532.99889"
       inkscape:connector-curvature="0"
       sodipodi:nodetypes="cassac" />
    <path
       style="fill:none;stroke:#000000;stroke-width:140;stroke-linecap:round;stroke-linejoin:round;stroke-miterlimit:4;stroke-dasharray:none;stroke-opacity:1"
       d="M 740.40155,388.74105 C 612.92997,397.71009 482.50901,350.33191 390.5157,261.63762 298.52239,172.94332 246.4149,44.338777 250.72473,-83.37525 c 3.71798,-110.1755 48.71974,-218.26879 123.36727,-299.38728 74.64752,-81.1185 178.18452,-134.8067 287.32465,-150.32752 61.01139,-8.67643 124.08006,-5.56093 182.90971,12.78962 58.82965,18.35054 112.88404,52.21323 154.19418,97.94224 41.31016,45.72902 69.25866,102.70696 84.11266,162.51523 14.854,59.80827 16.7191,121.96968 17.6938,183.58721 l 7.3081,462.0188 -9.9552,-455.526102 c -1.1607,-53.111858 -2.0826,-106.434458 4.374,-159.165178 6.4566,-52.73073 20.4141,-104.94835 45.4466,-151.80549 25.0325,-46.85715 61.3078,-88.10557 106.3736,-116.23549 45.0658,-28.12992 98.8762,-42.72809 151.8541,-38.78424 46.4381,3.457 91.4755,21.02462 129.146,48.39947 37.6705,27.37485 67.9694,64.32339 89.6844,105.51687 43.4302,82.38696 50.1808,178.53167 53.5916,271.60236 l 3.9512,107.815198 c 3.0426,83.022467 8.6065,168.451432 44.9871,243.140372 18.1904,37.34446 43.6569,71.38316 75.8194,97.67138 32.1625,26.28822 71.0469,44.64349 112.0963,51.00275 65.7742,10.18955 134.3316,-11.16637 187.6083,-51.06208 53.2767,-39.89571 92.0519,-97.10089 116.7223,-158.91879 49.3406,-123.635786 44.7362,-261.25694 40.5748,-394.30953 l -9.9469,-318.0304 11.162,319.5122 c 2.6426,75.64492 6.003,151.723075 22.4037,225.615917 16.4008,73.892842 45.9913,145.414393 91.3698,205.994313 45.3785,60.57993 106.3087,109.62726 175.7938,139.64342 69.485,30.01616 147.0327,40.90263 222.1725,31.78395 99.58,-12.08466 194.348,-59.48561 264.4843,-131.2011 70.1363,-71.71548 115.3284,-167.16158 127.3847,-266.745002 16.6573,-137.586958 -31.6535,-281.645528 -127.8949,-381.371278 -96.2414,-99.72575 -238.4916,-153.12716 -376.5837,-141.37142"
       id="path3879-2-3-4"
       inkscape:connector-curvature="0"
       sodipodi:nodetypes="caascsassascsaac"
       inkscape:path-effect="#path-effect4139-0-7-7"
       inkscape:original-d="M 740.40155,388.74105 C 611.30798,237.91125 257.9313,143.24475 250.72473,-83.37525 c -6.45245,-202.9057 207.69991,-447.1452 410.69192,-449.7148 211.15438,-2.6728 434.70515,190.9789 438.91035,456.8343 l 7.3081,462.0188 -9.9552,-455.526102 c -4.3399,-198.585498 121.8513,-467.354198 308.0483,-465.990398 168.4129,1.2336 265.5417,237.7793 272.422,425.5187 l 3.9512,107.815198 c 5.6081,153.026302 80.9722,393.156402 232.9028,391.814502 231.9216,-2.0485 350.1331,-395.079702 344.9054,-604.2904 l -9.9469,-318.0304 11.162,319.5122 c 11.4897,328.8931 248.2851,593.2825 511.7398,603.0376 186.0392,6.8885 390.9304,-211.7818 391.869,-397.946102 1.2209,-242.153598 -293.6561,-384.957398 -504.4786,-522.742698" />
    <path
       style="color:#000000;font-style:normal;font-variant:normal;font-weight:normal;font-stretch:normal;font-size:medium;line-height:normal;font-family:sans-serif;text-indent:0;text-align:start;text-decoration:none;text-decoration-line:none;text-decoration-style:solid;text-decoration-color:#000000;letter-spacing:normal;word-spacing:normal;text-transform:none;direction:ltr;block-progression:tb;writing-mode:lr-tb;baseline-shift:baseline;text-anchor:start;white-space:normal;clip-rule:nonzero;display:inline;overflow:visible;visibility:visible;opacity:1;isolation:auto;mix-blend-mode:normal;color-interpolation:sRGB;color-interpolation-filters:linearRGB;solid-color:#000000;solid-opacity:1;fill:#000000;fill-opacity:1;fill-rule:evenodd;stroke:none;stroke-width:140;stroke-linecap:round;stroke-linejoin:round;stroke-miterlimit:4;stroke-dasharray:none;stroke-dashoffset:0;stroke-opacity:1;color-rendering:auto;image-rendering:auto;shape-rendering:auto;text-rendering:auto;enable-background:accumulate"
       d="m -290.70508,1131.625 c -23.07551,-0.7372 -45.03081,9.95 -58.68554,28.5664 -114.27074,151.2589 -178.12818,338.2809 -180.22852,527.8398 -2.10035,189.5591 57.5991,377.9513 168.49023,531.7051 132.85189,184.203 331.907522,309.13 544.30079,373.4063 212.10239,64.1882 431.08181,67.7331 640.83984,67.6719 L 1902.627,2660.502 c 109.2227,-0.032 222.3976,-0.9663 336.8027,-20.1954 114.312,-19.2135 227.7235,-56.2765 329.9551,-117.4492 134.5749,-80.526 244.3605,-199.9386 313.3203,-340.791 107.3484,-268.9417 128.038,-666.0022 -73.1016,-881.5117 -110.4143,-114.4117 -270.4411,-174.4869 -428.8691,-161 -36.1747,2.5599 -63.2597,34.2241 -60.1835,70.3586 3.0762,36.1344 35.1239,62.7645 71.2108,59.1726 117.7562,-10.0245 242.2303,36.7025 324.2988,121.7422 77.8472,80.6656 116.0573,200.3971 111.877,310.2539 -3.4359,90.2931 -53.9261,187.4673 -111.0664,247.2774 -59.6823,61.0261 -141.5472,101.8931 -225.8438,112.123 -63.6881,7.729 -129.9893,-1.6245 -188.5644,-26.9277 -58.5202,-25.2796 -110.8136,-67.2328 -149.5469,-118.9414 -38.7899,-51.7843 -65.1977,-114.7022 -79.9375,-181.1113 -14.7627,-66.5131 -18.2718,-138.5577 -20.9004,-213.8008 l -11.1543,-319.2735 -0.01,-0.2382 c -1.6972,-35.489 -31.5728,-63.0411 -67.0829,-61.8657 -35.5101,1.1754 -63.4983,30.6428 -62.8449,66.1664 l 0.01,0.2383 9.9394,317.793 c 4.1645,133.1502 6.6933,261.2651 -35.9765,368.1855 -21.0964,52.8627 -53.788,99.8858 -95.3145,130.9825 -40.7698,30.5301 -93.2517,45.8974 -138.6953,38.8574 -28.4868,-4.4132 -57.1467,-17.6729 -80.9121,-37.0977 -23.8927,-19.5288 -43.9769,-45.9548 -58.5176,-75.8066 -28.9782,-59.4919 -35.4726,-135.3016 -38.4687,-217.0567 l -3.9512,-107.8144 c -3.4657,-94.5702 -9.1845,-201.1504 -61.0469,-299.5332 -25.8691,-49.0736 -62.2096,-93.8048 -108.9726,-127.7871 -46.9031,-34.0841 -102.9401,-56.2024 -162.5332,-60.6387 -68.0695,-5.0673 -134.8849,13.377 -191.09768,48.4648 -55.9869,34.9469 -99.42734,84.855 -129.28711,140.7481 -0.34608,0.6479 -0.63624,1.3119 -0.97852,1.9609 -12.46133,-19.8252 -26.45645,-38.841 -42.43554,-56.5293 -49.51739,-54.8143 -113.34764,-94.6727 -183.07227,-116.4218 -43.39997,-13.5376 -88.04922,-19.9008 -132.36133,-20.3614 l 0,0 c -26.58726,-0.2764 -53.05202,1.5717 -79.05468,5.2695 -124.15289,17.6558 -240.7538,78.0258 -326.003911,170.666 -85.316146,92.712 -136.23408,214.7962 -140.5,341.209 -4.95505,146.8339 53.873155,292.0274 159.638672,394 105.765529,101.9726 253.007349,155.4602 399.562499,145.1484 36.23041,-2.0003 63.80905,-33.2736 61.26259,-69.4697 -2.54646,-36.1961 -34.23203,-63.3 -70.38564,-60.208 -108.388,7.6263 -221.98787,-33.6426 -300.20898,-109.0586 -78.221095,-75.416 -123.607971,-187.4332 -119.943359,-296.0273 3.170034,-93.9382 42.255461,-188.0394 106.234379,-257.5645 64.04493,-69.5968 154.51911,-116.6044 248.64648,-129.9902 52.68234,-7.4919 106.18299,-4.5526 154.40234,10.4883 47.93467,14.9521 92.2135,42.8209 125.31641,79.4648 33.08208,36.6208 56.67731,83.9394 69.26172,134.6094 6.76217,27.2273 10.4195,56.3781 12.61133,86.8535 -0.68044,30.4751 -0.0938,60.1982 0.53515,88.9785 l 9.94727,455.1348 0.008,0.3926 c 1.17897,35.5191 30.66317,63.508 66.19549,62.8384 35.53233,-0.6696 63.94112,-29.7494 63.78107,-65.2877 l -7.30859,-462.0175 c -0.42369,-26.7858 -1.02891,-54.5308 -2.85156,-82.8848 0.58722,-20.8173 1.69912,-41.2068 4.10547,-60.8594 5.71227,-46.6521 17.95265,-91.0661 38.25976,-129.0781 20.20491,-37.8206 49.31487,-70.4115 83.45904,-91.7246 33.9188,-21.172 74.725,-31.9239 112.6113,-29.1035 33.2831,2.4777 67.3218,15.4964 95.7597,36.1621 28.578,20.7673 52.8355,49.9329 70.3965,83.2461 34.9981,66.3912 42.779,152.1007 46.1348,243.6718 l 3.9512,107.8145 c 3.089,84.2899 7.7248,179.3388 51.5078,269.2246 21.8399,44.8372 52.6868,86.4876 93.1191,119.5352 40.5596,33.1516 89.6693,56.6027 143.2813,64.9082 86.1048,13.3391 170.7378,-14.0061 236.5215,-63.2676 65.0271,-48.6948 109.8867,-116.0823 138.1308,-186.8555 1.1466,-2.873 2.1105,-5.764 3.2051,-8.6426 11.8669,21.4786 25.0364,42.3734 39.9648,62.3028 52.0238,69.4513 121.591,125.5909 202.0411,160.3437 80.3948,34.729 169.1878,47.1491 255.7793,36.6407 101.3124,-12.295 197.0239,-55.7114 273.498,-122.3282 -6.964,18.111 -14.704,35.9052 -23.2207,53.3008 -56.8177,116.0518 -148.5891,215.8674 -259.4688,282.2149 -84.3783,50.4897 -181.127,82.6888 -281.2734,99.5214 -100.0535,16.8169 -205.3946,18.2264 -313.6387,18.2579 l -1078.61521,0.3125 c -207.82889,0.061 -412.66306,-4.902 -600.24609,-61.67 -187.292154,-56.6799 -359.88525,-166.8165 -471.30469,-321.3027 -92.97043,-128.9062 -143.80779,-289.3347 -142.04687,-448.2598 1.76091,-158.9251 56.13951,-318.1874 151.94336,-445.0019 16.17015,-20.7873 19.30589,-48.8909 8.11522,-72.7311 -11.19067,-23.8402 -34.8141,-39.3829 -61.13671,-40.224 z"
       id="path4148-7-8"
       inkscape:connector-curvature="0"
       sodipodi:nodetypes="ccssssssscccscsacsssssccsccssssssssssssccssccsssscscssssssscsccscscssssssssssssccssscsssssssscssc" />
    <path
       style="fill:none;fill-rule:evenodd;stroke:#000000;stroke-width:70;stroke-linecap:round;stroke-linejoin:round;stroke-miterlimit:4;stroke-dasharray:none;stroke-opacity:1"
       d="m -546.69056,-25.438815 c 17.78261,145.771685 -7.60179,296.541435 -72.13674,428.453705 -64.53496,131.91226 -167.98678,244.48937 -293.98681,319.9188 -95.73829,57.31335 -203.56199,92.88234 -313.59779,111.39637 -110.0357,18.51402 -222.1571,19.72106 -333.7395,19.75347 l -1106.8323,0.32153 c -214.2798,0.0622 -431.7593,-4.3228 -636.8334,-66.45547 -205.0741,-62.13268 -395.7174,-182.84282 -521.0295,-356.66094 -104.6427,-145.14794 -161.3781,-324.24505 -159.397,-503.169849 1.981,-178.924801 62.668,-356.721821 170.4987,-499.517261"
       id="path4148-7-7"
       inkscape:path-effect="#path-effect4150-4-5"
       inkscape:original-d="m -546.69056,-25.438815 c 0,0 -146.46293,578.599515 -366.12355,748.372505 -174.24129,134.66888 -222.67249,131.0264 -647.33729,131.14984 l -1106.8323,0.32153 c -339.792,0.0986 -924.2366,-84.8693 -1157.8629,-423.11641 -189.9132,-274.95881 11.1017,-1002.68711 11.1017,-1002.68711"
       inkscape:connector-curvature="0"
       sodipodi:nodetypes="cassac" />
    <path
       style="fill:none;stroke:#000000;stroke-width:70;stroke-linecap:round;stroke-linejoin:round;stroke-miterlimit:4;stroke-dasharray:none;stroke-opacity:1"
       d="m -3038.0381,408.01502 c -130.8325,9.05016 -264.6232,-39.66966 -359.0005,-130.72984 -94.3774,-91.06017 -147.8511,-223.022826 -143.486,-354.09527 3.767,-113.11419 49.8963,-224.11794 126.493,-307.43636 76.5967,-83.31841 182.889,-138.4767 294.9424,-154.38422 62.6285,-8.89097 127.3669,-5.65952 187.7431,13.21092 60.3761,18.87044 115.8397,53.66273 158.2203,100.62287 42.3806,46.96015 71.0467,105.45477 86.2816,166.84914 15.235,61.39438 17.1474,125.20029 18.1471,188.4488 l 7.4993,474.45579 -10.2156,-467.788314 c -1.1908,-54.527186 -2.1377,-109.270116 4.48,-163.407336 6.6177,-54.13722 20.9257,-107.75053 46.6005,-155.86951 25.6749,-48.11898 62.8904,-90.48995 109.1421,-119.39354 46.2516,-28.90359 101.4945,-43.91376 155.8841,-39.86392 47.6765,3.54998 93.9111,21.60507 132.5723,49.72918 38.6612,28.12412 69.7457,66.07655 92.019,108.37965 44.5466,84.60619 51.4579,183.31139 54.9571,278.86433 l 4.0545,110.717451 c 3.1214,85.237806 8.819,172.943299 46.1358,249.641939 18.6584,38.34933 44.7852,73.31053 77.7927,100.31638 33.0074,27.00586 72.9232,45.86853 115.067,52.40336 67.5301,10.47122 137.9203,-11.47972 192.6008,-52.46743 54.6806,-40.98771 94.4562,-99.74599 119.7535,-163.22829 50.5945,-126.964611 45.8431,-268.254024 41.5736,-404.86145 l -10.2071,-326.5914 11.454,328.11308 c 2.7108,77.65278 6.1565,155.749452 22.976,231.607268 16.8195,75.857816 47.166,149.287452 93.7175,211.498832 46.5515,62.21139 109.0678,112.5988 180.3803,143.4505 71.3125,30.85171 150.9175,42.06446 228.05287,32.71405 102.23151,-12.39257 199.51484,-61.09085 271.48272,-134.74872 71.96789,-73.65786 118.30328,-171.67101 130.63727,-273.90961 17.03577,-141.21248 -32.54183,-289.03562 -131.27641,-391.4205 -98.73458,-102.38489 -244.66128,-157.29405 -386.39895,-145.39381"
       id="path3879-2-3-4-3"
       inkscape:connector-curvature="0"
       sodipodi:nodetypes="caascsassascsaac"
       inkscape:path-effect="#path-effect4139-0-7-7-0"
       inkscape:original-d="m -3038.0381,408.01502 c -132.4706,-154.88996 -495.0914,-252.10477 -502.4865,-484.82511 -6.6212,-208.36768 213.1333,-459.18181 421.4354,-461.82058 216.6781,-2.74475 446.0769,196.11982 450.3921,469.13173 l 7.4993,474.45579 -10.2156,-467.788314 c -4.4535,-203.931186 125.0388,-479.934816 316.1067,-478.534306 172.8185,1.26681 272.4881,244.18004 279.5484,436.97316 l 4.0545,110.717451 c 5.7549,157.145589 83.0904,403.739699 238.9955,402.361679 237.9885,-2.10365 359.2924,-405.714774 353.9279,-620.55717 l -10.2071,-326.5914 11.454,328.11308 c 11.7903,337.74651 254.7801,609.25296 525.12667,619.27065 190.90584,7.07389 401.15684,-217.48271 402.11999,-408.65833 1.25284,-248.67208 -301.33795,-395.31999 -517.67536,-536.81431" />
    <path
       style="color:#000000;font-style:normal;font-variant:normal;font-weight:normal;font-stretch:normal;font-size:medium;line-height:normal;font-family:sans-serif;text-indent:0;text-align:start;text-decoration:none;text-decoration-line:none;text-decoration-style:solid;text-decoration-color:#000000;letter-spacing:normal;word-spacing:normal;text-transform:none;direction:ltr;block-progression:tb;writing-mode:lr-tb;baseline-shift:baseline;text-anchor:start;white-space:normal;clip-rule:nonzero;display:inline;overflow:visible;visibility:visible;opacity:1;isolation:auto;mix-blend-mode:normal;color-interpolation:sRGB;color-interpolation-filters:linearRGB;solid-color:#000000;solid-opacity:1;fill:#000000;fill-opacity:1;fill-rule:evenodd;stroke:none;stroke-width:70;stroke-linecap:round;stroke-linejoin:round;stroke-miterlimit:4;stroke-dasharray:none;stroke-dashoffset:0;stroke-opacity:1;color-rendering:auto;image-rendering:auto;shape-rendering:auto;text-rendering:auto;enable-background:accumulate"
       d="m -4199.3945,1216.4453 c -11.5378,-0.3663 -22.5144,4.9795 -29.3399,14.2891 -112.4447,148.9054 -175.5006,333.6399 -177.5664,520.2207 -2.0659,186.5808 56.8837,372.6668 166.0039,524.0254 130.6647,181.2425 327.921,305.6545 539.2735,369.6894 211.2085,63.9913 432.228,68.0211 646.9922,67.959 l 1106.832,-0.3203 c 111.828,-0.032 225.9104,-1.122 339.5371,-20.2402 113.5796,-19.1103 225.5681,-55.897 325.7676,-115.8809 131.9241,-78.9758 239.8781,-196.454 307.44723,-334.5684 67.56918,-138.1143 94.06012,-295.4468 75.44141,-448.0722 -2.11753,-19.3892 -19.67425,-33.3075 -39.03519,-30.9457 -19.36093,2.3618 -33.05684,20.0926 -30.45114,39.4222 16.94655,138.9181 -7.33127,283.1238 -68.83201,408.834 -61.5007,125.7102 -160.4495,233.3866 -280.5254,305.2696 -91.2772,54.6426 -194.936,88.9943 -301.4277,106.9121 -106.445,17.9099 -216.6066,19.2372 -327.9434,19.2695 l -1106.832,0.3203 c -213.7955,0.062 -427.7342,-4.6771 -626.6739,-64.9512 -198.7957,-60.2305 -382.8275,-177.2391 -502.7871,-343.6328 -100.1651,-138.9372 -154.6873,-311.0456 -152.791,-482.3144 1.8962,-171.2689 60.2148,-342.1272 163.4317,-478.8125 17.5647,-22.5886 2.0781,-55.5644 -26.5215,-56.4727 z"
       id="path4148-7-7-3"
       inkscape:connector-curvature="0"
       sodipodi:nodetypes="ccsssssssscscsssssssscc" />
    <path
       style="color:#000000;font-style:normal;font-variant:normal;font-weight:normal;font-stretch:normal;font-size:medium;line-height:normal;font-family:sans-serif;text-indent:0;text-align:start;text-decoration:none;text-decoration-line:none;text-decoration-style:solid;text-decoration-color:#000000;letter-spacing:normal;word-spacing:normal;text-transform:none;direction:ltr;block-progression:tb;writing-mode:lr-tb;baseline-shift:baseline;text-anchor:start;white-space:normal;clip-rule:nonzero;display:inline;overflow:visible;visibility:visible;opacity:1;isolation:auto;mix-blend-mode:normal;color-interpolation:sRGB;color-interpolation-filters:linearRGB;solid-color:#000000;solid-opacity:1;fill:#000000;fill-opacity:1;fill-rule:nonzero;stroke:none;stroke-width:70;stroke-linecap:round;stroke-linejoin:round;stroke-miterlimit:4;stroke-dasharray:none;stroke-dashoffset:0;stroke-opacity:1;color-rendering:auto;image-rendering:auto;shape-rendering:auto;text-rendering:auto;enable-background:accumulate"
       d="m -3434.7344,1244.8809 c -25.6032,-0.2788 -51.162,1.4873 -76.332,5.0605 -120.151,17.0571 -233.4828,75.8206 -315.7891,165.3496 -82.3407,89.5666 -131.6509,208.1063 -135.709,329.959 -4.7076,141.3569 52.3834,282.2421 154.1661,380.4473 101.7825,98.2051 244.6185,150.2193 385.7168,140.4589 19.4847,-1.0861 34.3186,-17.8961 32.972,-37.3645 -1.3465,-19.4685 -18.3534,-34.0762 -37.8021,-32.4694 -120.5668,8.34 -245.3112,-37.0849 -332.2832,-121 -86.9721,-83.9152 -136.8293,-206.9544 -132.8067,-327.7422 3.476,-104.3757 46.4247,-207.8436 117.2774,-284.9141 70.8871,-77.1078 170.1399,-128.662 274.0957,-143.4199 58.1369,-8.2534 117.7201,-5.1198 172.3828,11.9648 54.5097,17.0369 104.7122,48.598 142.6777,90.6661 37.9546,42.0558 64.2802,95.3507 78.295,151.8281 7.5759,30.5296 11.6116,62.4123 13.9335,95.1602 -0.7616,31.2106 -0.1842,62.0322 0.4766,92.289 l 10.2109,467.5782 0,0.2109 c 0.6193,19.137 16.4998,34.2252 35.6434,33.8651 19.1437,-0.3601 34.4456,-16.0347 34.3448,-35.1815 l 0,-0.2129 -7.4961,-474.2441 c -0.4397,-27.8199 -1.0993,-56.2178 -2.9882,-84.8907 0.6028,-22.6829 1.8149,-45.0991 4.498,-67.0488 6.2181,-50.8687 19.6041,-100.2833 42.7383,-143.6406 23.0793,-43.2545 56.4397,-80.959 96.8105,-106.1875 40.2483,-25.152 88.483,-38.0866 134.7364,-34.6426 40.584,3.0219 80.8928,18.6217 114.582,43.1289 33.7652,24.5625 61.599,58.3221 81.6387,96.3828 40.0138,75.9972 47.4814,169.0904 50.9511,263.8399 l 4.0547,110.7168 c 3.1463,85.9169 8.3427,178.7964 49.6387,263.6738 20.6207,42.3826 49.6437,81.4433 87.1035,112.0918 37.5286,30.7051 82.9523,52.3176 131.8672,59.9023 78.4884,12.1704 157.5386,-13.0119 218.9551,-59.0488 61.0079,-45.7305 104.057,-109.9742 131.2754,-178.2773 11.236,-28.1964 19.7699,-56.858 26.3906,-85.7715 18.0038,47.2594 41.8725,92.5054 72.5859,133.5508 50.1258,66.988 117.2891,121.1974 194.5059,154.6035 77.1877,33.3935 162.8524,45.4367 246.1621,35.3379 110.4725,-13.3916 214.7075,-65.6158 292.3047,-145.0352 77.56617,-79.3877 127.08775,-184.2317 140.35154,-294.1777 18.3507,-152.1124 -34.47442,-309.6205 -140.83004,-419.9082 -106.3557,-110.2876 -261.8434,-168.7934 -414.5215,-155.9746 -19.4871,1.3475 -34.1006,18.384 -32.466,37.8491 1.6345,19.4652 18.8844,33.826 38.3234,31.9048 130.7973,-10.9817 267.1619,40.3305 358.2754,134.8125 91.1135,94.482 137.44345,232.619 121.72265,362.9316 -11.40416,94.5312 -54.55435,185.7145 -120.92385,253.6426 -66.3386,67.8964 -156.6696,113.0693 -250.6601,124.4629 -70.9611,8.6019 -144.5062,-1.7819 -209.9434,-30.0918 -65.4082,-28.2974 -123.2766,-74.8621 -166.2539,-132.2969 -43.008,-57.4757 -71.6434,-126.2735 -87.5703,-198.1055 -15.9393,-71.8878 -19.4647,-147.8149 -22.168,-225.2519 l -11.4492,-327.9863 0,-0.127 c -0.8803,-19.1355 -16.9786,-34.0091 -36.1239,-33.3757 -19.1453,0.6333 -34.2253,16.5383 -33.839,35.6902 l 0,0.1269 0,0.018 10.2031,326.4473 c 4.2713,136.6646 7.9066,272.8408 -39.1035,390.8105 -23.3762,58.6615 -59.8791,111.9349 -108.2324,148.1797 -47.9445,35.9385 -109.6743,54.6587 -166.2461,45.8867 -35.3727,-5.4849 -69.7795,-21.5995 -98.2656,-44.9062 -28.5553,-23.3631 -51.7883,-54.2231 -68.4844,-88.5391 -33.3376,-68.52 -39.5343,-151.0526 -42.6309,-235.6113 l -4.0546,-110.7168 c -3.5287,-96.3563 -9.8855,-200.6734 -58.9649,-293.8887 -24.5069,-46.5453 -58.8412,-88.6913 -102.3984,-120.3769 -43.6332,-31.741 -95.7936,-52.252 -150.5625,-56.3301 -62.5259,-4.6556 -124.7764,12.4307 -177.0313,45.0859 -52.1325,32.5787 -93.2041,79.6161 -121.4746,132.5996 -10.3661,19.4279 -18.9495,39.5289 -26.0469,60.0235 -17.2524,-39.713 -40.4265,-77.0464 -69.8828,-109.6856 -46.7956,-51.8523 -107.5192,-89.8761 -173.7617,-110.5801 -41.306,-12.91 -84.0994,-19.0529 -126.7715,-19.5175 z"
       id="path3879-2-3-4-3-3"
       inkscape:connector-curvature="0"
       sodipodi:nodetypes="csssscscssssssscsccsccscssssssssssssscsssssscscssssssssccscccssssssssssssscsscc" />
    <path
       style="color:#000000;font-style:normal;font-variant:normal;font-weight:normal;font-stretch:normal;font-size:medium;line-height:normal;font-family:sans-serif;text-indent:0;text-align:start;text-decoration:none;text-decoration-line:none;text-decoration-style:solid;text-decoration-color:#000000;letter-spacing:normal;word-spacing:normal;text-transform:none;direction:ltr;block-progression:tb;writing-mode:lr-tb;baseline-shift:baseline;text-anchor:start;white-space:normal;clip-rule:nonzero;display:inline;overflow:visible;visibility:visible;opacity:1;isolation:auto;mix-blend-mode:normal;color-interpolation:sRGB;color-interpolation-filters:linearRGB;solid-color:#000000;solid-opacity:1;fill:#000000;fill-opacity:1;fill-rule:evenodd;stroke:none;stroke-width:200;stroke-linecap:round;stroke-linejoin:round;stroke-miterlimit:4;stroke-dasharray:none;stroke-dashoffset:0;stroke-opacity:1;color-rendering:auto;image-rendering:auto;shape-rendering:auto;text-rendering:auto;enable-background:accumulate"
       d="M 4963.3711 346.05078 C 4936.724 346.04143 4910.2804 348.01804 4884.3262 351.70898 C 4752.0895 370.51438 4628.4553 434.48198 4537.4961 533.32617 C 4446.4352 632.28077 4392.3305 761.89879 4387.7695 897.05469 C 4382.4671 1054.1839 4444.9144 1208.3072 4558.0957 1317.4297 C 4671.2771 1426.5521 4827.5772 1483.3316 4984.4082 1472.2969 A 100.01 100.01 0 1 0 4970.3711 1272.791 C 4872.2589 1279.6943 4767.7175 1241.7174 4696.9121 1173.4512 C 4626.1068 1105.1851 4584.3391 1002.0996 4587.6562 903.80078 C 4590.5314 818.6057 4626.4298 732.03824 4684.6641 668.75586 C 4742.9999 605.36306 4826.4408 561.95306 4912.4844 549.7168 C 4960.6818 542.86263 5009.0311 545.70803 5051.5371 558.9668 C 5093.6051 572.08893 5132.6191 596.72664 5161.3027 628.47852 C 5189.9543 660.19487 5211.208 702.31516 5222.5703 748.06445 C 5228.5579 772.17287 5231.9843 798.71955 5234.0996 827.1543 C 5233.4482 858.07429 5234.0706 887.83544 5234.6914 916.22461 L 5244.6465 1371.75 A 100.01 100.01 0 0 0 5444.6113 1367.9844 L 5437.3027 905.96484 C 5436.8841 879.49962 5436.3178 851.65935 5434.5156 822.84375 C 5435.0982 803.51157 5436.1305 784.75209 5438.3008 767.02734 C 5443.6123 723.64823 5454.9288 683.43851 5472.6914 650.18945 C 5490.2974 617.23371 5515.5486 589.3063 5543.8125 571.66406 C 5571.7291 554.23862 5605.5328 545.55799 5635.293 547.77344 C 5661.4926 549.72382 5689.6095 560.2927 5713.0762 577.3457 C 5736.7584 594.55539 5757.7619 619.52787 5773.0859 648.59766 C 5803.5436 706.37568 5811.8788 786.46674 5815.2051 877.23047 L 5819.1562 985.04492 C 5822.2703 1070.0172 5826.405 1170.2456 5874.1738 1268.3145 C 5897.9789 1317.1858 5931.726 1362.9357 5976.6113 1399.623 C 6021.6926 1436.4705 6076.3072 1462.6662 6136.6836 1472.0195 C 6233.7356 1487.0546 6327.0229 1456.4841 6399.541 1402.1797 C 6454.2526 1361.2096 6495.2106 1308.7797 6524.9883 1252.4883 C 6527.2561 1255.6523 6529.5073 1258.8243 6531.8496 1261.9512 C 6587.4515 1336.1793 6661.6692 1396.14 6748.0234 1433.4434 C 6834.2929 1470.7101 6929.1427 1483.9559 7021.9004 1472.6992 C 7087.404 1464.7499 7150.5059 1444.7593 7208.207 1414.5098 C 7154.2504 1500.1583 7079.6624 1573.5939 6993.0898 1625.3965 C 6912.5371 1673.5971 6819.3568 1704.7538 6722.2461 1721.0762 C 6625.268 1737.3762 6521.6066 1738.8886 6413.5723 1738.9199 L 5334.9551 1739.2324 C 5127.5393 1739.2926 4925.7369 1734.0275 4743.4082 1678.8496 C 4561.4949 1623.7974 4394.571 1516.8293 4287.7441 1368.7109 C 4198.6139 1245.1293 4149.677 1090.6947 4151.3652 938.33398 C 4153.0534 785.97329 4205.4014 632.65846 4297.248 511.08203 A 100.01 100.01 0 0 0 4221.502 349.7168 A 100.01 100.01 0 0 0 4137.668 390.52539 C 4019.44 547.02241 3953.55 739.99367 3951.377 936.11719 C 3949.2038 1132.2407 4010.8019 1326.6249 4125.5332 1485.7031 C 4262.9778 1676.2739 4467.7045 1804.3713 4685.4766 1870.2754 C 4902.8332 1936.0537 5124.8425 1939.2934 5335.0137 1939.2324 L 6413.6309 1938.9199 C 6523.0633 1938.8881 6637.916 1938.0566 6755.3965 1918.3105 C 6872.7441 1898.5868 6989.726 1860.4793 7095.7832 1797.0176 C 7235.4357 1713.4533 7349.083 1589.8446 7420.6445 1443.6777 C 7490.6209 1300.7487 7518.8734 1139.2619 7501.7227 981.12305 C 7519.9587 814.42345 7462.3424 645.44511 7345.7832 524.66602 C 7227.7373 402.34651 7058.1379 338.67856 6888.7598 353.09766 A 100.01 100.01 0 1 0 6905.7246 552.37695 C 7012.5306 543.28459 7127.432 586.42074 7201.8691 663.55273 C 7276.3062 740.68468 7315.3307 857.04555 7302.4473 963.46094 C 7293.0583 1041.0123 7256.983 1116.9484 7202.8438 1172.3066 C 7148.7904 1227.577 7073.8716 1264.9231 6997.8047 1274.1543 C 6940.2828 1281.1349 6880.0364 1272.6074 6827.3359 1249.8418 C 6774.72 1227.1128 6727.0769 1188.9786 6691.9219 1142.0469 C 6656.6796 1094.9987 6631.986 1036.7172 6618.1406 974.33789 C 6604.2599 911.7985 6600.6718 841.92522 6598.0508 766.89844 L 6586.8906 447.38477 A 100.01 100.01 0 0 0 6387 454.00391 L 6387.0117 454.36914 L 6396.9473 772.0332 C 6401.1134 905.23596 6402.5233 1028.2323 6363.4453 1126.1523 C 6344.2731 1174.1931 6314.8595 1215.7332 6279.6602 1242.0918 C 6245.6248 1267.5788 6201.7972 1279.721 6167.3008 1274.377 C 6145.5784 1271.0118 6122.4254 1260.4966 6103.1816 1244.7676 C 6083.7419 1228.8784 6066.5542 1206.55 6053.9785 1180.7324 C 6028.9861 1129.4234 6021.9926 1058.7933 6019.0215 977.7207 L 6015.0703 869.90625 C 6011.575 774.5286 6006.4106 662.32988 5950.0078 555.33398 C 5921.9018 502.01681 5882.3072 453.09275 5830.6484 415.55273 C 5778.7741 377.85604 5716.8172 353.28979 5650.1406 348.32617 C 5573.945 342.65392 5500.1271 363.16951 5437.9121 402.00391 C 5391.7555 430.81468 5353.7284 468.51705 5323.9023 511.03125 C 5319.3125 505.40686 5314.62 499.84212 5309.7129 494.41016 C 5255.7763 434.70399 5186.6832 391.61801 5111.0918 368.03906 C 5064.121 353.38762 5016.1217 346.56937 4968.7031 346.08008 C 4966.9249 346.06173 4965.1476 346.0514 4963.3711 346.05078 z "
       transform="translate(0,-1048)"
       id="path4148-7-5" />
  </g>
</svg>
