<?xml version="1.0" encoding="UTF-8" standalone="no"?>
<!-- Created with Inkscape (http://www.inkscape.org/) -->

<svg
   xmlns:dc="http://purl.org/dc/elements/1.1/"
   xmlns:cc="http://creativecommons.org/ns#"
   xmlns:rdf="http://www.w3.org/1999/02/22-rdf-syntax-ns#"
   xmlns:svg="http://www.w3.org/2000/svg"
   xmlns="http://www.w3.org/2000/svg"
   xmlns:sodipodi="http://sodipodi.sourceforge.net/DTD/sodipodi-0.dtd"
   xmlns:inkscape="http://www.inkscape.org/namespaces/inkscape"
   version="1.1"
   width="2000"
   height="2000"
   id="svg2992"
   inkscape:version="0.91 r13725"
   sodipodi:docname="ന്ന്ര.svg">
  <sodipodi:namedview
     pagecolor="#ffffff"
     bordercolor="#666666"
     borderopacity="1"
     objecttolerance="10"
     gridtolerance="10"
     guidetolerance="10"
     inkscape:pageopacity="0"
     inkscape:pageshadow="2"
     inkscape:window-width="1600"
     inkscape:window-height="843"
     id="namedview7"
     showgrid="true"
     inkscape:zoom="0.236"
     inkscape:cx="3241.0962"
     inkscape:cy="833.26415"
     inkscape:window-x="1600"
     inkscape:window-y="0"
     inkscape:window-maximized="1"
     inkscape:current-layer="layer1"
     showguides="true"
     inkscape:guide-bbox="true">
    <inkscape:grid
       type="xygrid"
       id="grid2984" />
    <sodipodi:guide
       orientation="0,1"
       position="-2000,1600"
       id="guide2984" />
    <sodipodi:guide
       orientation="0,1"
       position="1480,600"
       id="guide2986"
       inkscape:label=""
       inkscape:color="rgb(0,0,255)" />
    <sodipodi:guide
       position="4520,1710"
       orientation="0,1"
       id="guide4162"
       inkscape:label=""
       inkscape:color="rgb(0,0,255)" />
  </sodipodi:namedview>
  <defs
     id="defs5498">
    <inkscape:path-effect
       effect="spiro"
       id="path-effect4372-5-9-5-9-0"
       is_visible="true" />
    <inkscape:path-effect
       effect="spiro"
       id="path-effect4372-5-9-5-9-0-2"
       is_visible="true" />
    <inkscape:path-effect
       effect="spiro"
       id="path-effect4372-5-9-5-9-0-3"
       is_visible="true" />
    <inkscape:path-effect
       effect="spiro"
       id="path-effect4372-5-9-5-9-0-3-3"
       is_visible="true" />
    <inkscape:path-effect
       effect="spiro"
       id="path-effect4372-5-9-5-9-0-7"
       is_visible="true" />
  </defs>
  <metadata
     id="metadata5594">
    <rdf:RDF>
      <cc:Work
         rdf:about="">
        <dc:format>image/svg+xml</dc:format>
        <dc:type
           rdf:resource="http://purl.org/dc/dcmitype/StillImage" />
        <dc:title />
      </cc:Work>
    </rdf:RDF>
  </metadata>
  <g
     transform="translate(0,1000)"
     id="layer1">
    <path
       style="fill:none;fill-rule:evenodd;stroke:#000000;stroke-width:140;stroke-linecap:round;stroke-linejoin:round;stroke-miterlimit:4;stroke-dasharray:none;stroke-opacity:1"
       d="M 612.05493,371.5114 C 494.31312,375.07394 375.83288,330.01628 290.21217,249.11561 204.59145,168.21494 152.89488,52.477203 149.78227,-65.277358 146.66966,-183.03192 192.17972,-301.33912 273.40696,-386.65009 354.6342,-471.96105 470.56863,-523.215 588.33423,-525.87763 c 120.75771,-2.73028 241.84479,45.78097 327.31426,131.13228 85.46951,85.35131 134.14821,206.37116 131.58501,327.132524 l 1.5158,446.780246 -1.6818,-446.205946 c -0.2205,-58.503264 0.3401,-117.483694 12.6197,-174.684134 12.2797,-57.20045 36.3591,-112.23311 72.9926,-157.84742 36.6336,-45.61431 85.3277,-81.27183 139.4965,-103.37214 54.1687,-22.10031 113.3457,-30.83738 171.8114,-28.7298 56.1758,2.02503 112.2618,14.05934 163.1167,38.00904 50.855,23.94969 96.0785,59.95628 130.1355,104.67698 34.0569,44.7207 56.539,97.69956 68.3808,152.65034 11.8418,54.95079 13.0925,111.55747 13.6407,167.767044 l 4.3161,442.559436 -4.0618,-442.129816 c -0.5177,-56.356794 -0.3944,-113.115924 10.2609,-168.458684 10.6553,-55.34275 31.936,-109.01375 65.2917,-154.44229 33.3557,-45.42853 78.4625,-82.12849 129.7036,-105.59563 51.241,-23.46713 108.1947,-33.76738 164.5173,-31.73676 123.083,4.43755 240.3668,68.02115 321.0854,161.04606 80.7186,93.0249 126.4564,213.31493 140.9548,335.621588 14.2654,120.340598 -0.9844,244.446442 -46.9015,356.593552 -45.9172,112.14711 -122.5601,211.388 -218.9401,284.84719 -96.38,73.45918 -211.3964,120.51011 -330.1781,144.51554 -118.7818,24.00544 -240.8318,25.22451 -362.0149,25.1042 L 735.86317,778.40524 C 575.16839,778.2457 411.51256,771.61243 260.48337,716.72144 109.45419,661.83045 -24.673719,561.76532 -120.56471,432.81667 -225.23875,292.05708 -285.1607,118.52627 -289.64466,-56.829969 -294.12862,-232.18621 -243.15374,-408.55271 -145.81039,-554.478"
       id="path4370-9-3-9-2-8"
       inkscape:path-effect="#path-effect4372-5-9-5-9-0"
       inkscape:original-d="m 612.05493,371.5114 c 0,0 -298.5989,-779.13915 -23.7207,-897.38903 198.5821,-85.42805 458.89927,458.264804 458.89927,458.264804 l 1.5158,446.780246 -1.6818,-446.205946 c -6.1637,-246.061394 193.241,-467.276144 396.9202,-464.633494 198.6721,2.57768 374.8182,376.07137 375.2737,463.103404 l 4.3161,442.559436 -4.0618,-442.129816 c 6.5745,-408.723634 173.1097,-453.105584 369.7735,-460.233364 225.9686,-8.18989 563.586,302.74449 462.0402,496.667648 -13.3197,25.4368317 -755.8811,811.261182 -958.0346,811.060482 L 735.86317,778.40524 C 374.37018,778.04635 5.3735494,700.30381 -120.56471,432.81667 -293.72447,65.033211 -145.81039,-554.478 -145.81039,-554.478"
       inkscape:connector-curvature="0"
       sodipodi:nodetypes="casccasccassssc" />
    <path
       style="color:#000000;font-style:normal;font-variant:normal;font-weight:normal;font-stretch:normal;font-size:medium;line-height:normal;font-family:sans-serif;text-indent:0;text-align:start;text-decoration:none;text-decoration-line:none;text-decoration-style:solid;text-decoration-color:#000000;letter-spacing:normal;word-spacing:normal;text-transform:none;direction:ltr;block-progression:tb;writing-mode:lr-tb;baseline-shift:baseline;text-anchor:start;white-space:normal;clip-rule:nonzero;display:inline;overflow:visible;visibility:visible;opacity:1;isolation:auto;mix-blend-mode:normal;color-interpolation:sRGB;color-interpolation-filters:linearRGB;solid-color:#000000;solid-opacity:1;fill:#000000;fill-opacity:1;fill-rule:evenodd;stroke:none;stroke-width:140;stroke-linecap:round;stroke-linejoin:round;stroke-miterlimit:4;stroke-dasharray:none;stroke-dashoffset:0;stroke-opacity:1;color-rendering:auto;image-rendering:auto;shape-rendering:auto;text-rendering:auto;enable-background:accumulate"
       d="m -145.92383,1193.2891 a 70.007,70.007 0 0 0 -56.9082,31.9589 c -105.53208,158.2009 -160.43929,348.1757 -155.57813,538.2832 4.86117,190.1076 69.40532,377.0283 182.88477,529.629 104.194926,140.1153 249.115583,248.2484 413.30859,307.9238 164.58549,59.818 336.64676,65.7312 499.22071,65.8926 l 957.43159,0.9511 c 121.6993,0.1208 248.4946,-0.7316 375.9512,-26.4902 127.5897,-25.7855 252.4715,-76.4578 358.7442,-157.457 106.3244,-81.0386 190.5092,-189.9728 241.289,-313.9961 50.7194,-123.8762 67.247,-259.6388 51.6328,-391.3574 -15.8926,-134.0687 -65.8788,-267.5579 -157.5957,-373.2579 -92.3682,-106.4506 -225.8919,-179.8757 -371.4355,-185.123 -66.5384,-2.3989 -134.1415,9.6321 -196.1856,38.0469 -62.2214,28.4958 -116.4513,72.6122 -156.9804,127.8105 -8.2833,11.2814 -15.7442,22.9786 -22.7383,34.8809 -7.1146,-11.5458 -14.6588,-22.8865 -22.9766,-33.8086 -41.1808,-54.0751 -95.1524,-96.9392 -156.0019,-125.5957 -60.6252,-28.551 -125.9407,-42.3105 -190.418,-44.6348 -67.1254,-2.4198 -136.073,7.4724 -200.7773,33.8711 -64.9673,26.5059 -123.1864,69.0135 -167.6309,124.3535 -19.4018,24.1583 -35.5084,50.2327 -48.8906,77.4004 -18.6944,-28.0017 -40.08568,-54.2946 -64.09963,-78.2754 -99.47631,-99.3388 -237.81182,-154.7596 -378.35938,-151.582 -137.02241,3.098 -269.53161,61.6786 -364.04101,160.9394 -94.50939,99.2609 -146.525868,234.4826 -142.904302,371.4922 3.621578,137.0096 62.708792,269.2944 162.330082,363.4239 99.62127,94.1293 235.04038,145.6275 372.03515,141.4824 a 70.007,70.007 0 1 0 -4.23437,-139.9356 c -98.48891,2.9801 -200.03016,-35.6347 -271.65039,-103.3066 -71.62023,-67.672 -115.92566,-166.8637 -118.5293,-265.3633 -2.60363,-98.4996 36.40053,-199.8928 104.3457,-271.2539 67.94516,-71.3611 167.30365,-115.2884 265.8125,-117.5156 100.9678,-2.2828 204.80694,39.3198 276.26953,110.6836 66.92722,66.8347 107.78094,162.1014 110.9375,256.8652 -0.007,7.186 -0.0812,14.5228 -0.0547,21.5723 l 1.68164,446.1797 0,0.027 a 70.007,70.007 0 0 0 139.99806,-0.5019 l 0,-0.025 0,-0.2286 -1.5156,-446.5253 -0.014,1.7226 c 0.1214,-5.7205 -0.01,-11.4282 -0.082,-17.1387 0.07,-51.766 1.6576,-100.2817 10.9921,-143.7636 l -0,0 c 10.2719,-47.8481 30.332,-92.85 59.1309,-128.709 28.8226,-35.8886 67.9909,-64.696 111.3613,-82.3906 43.633,-17.8019 93.0416,-25.3834 142.8476,-23.5879 47.8744,1.7257 94.7299,12.0343 135.8145,31.3828 40.8604,19.2428 77.3364,48.3915 104.2695,83.7578 26.9086,35.3341 45.6906,78.8141 55.6406,124.9863 9.9701,46.2652 11.5317,98.0735 12.0743,153.7031 l 4.3144,442.5215 0,0.039 a 70.007,70.007 0 0 0 139.9942,-1.3262 l 0,-0.039 -0.01,-0.6309 -4.0547,-441.459 c -0.5128,-55.823 0.01,-107.8659 9,-154.582 8.9725,-46.6021 26.7832,-90.5715 52.9785,-126.2481 26.1823,-35.6587 62.165,-64.9424 102.4258,-83.3808 a 70.007,70.007 0 0 0 0,0 c 40.4379,-18.5197 86.7408,-27.0881 132.8476,-25.4258 100.6224,3.6277 201.6674,57.3696 270.7363,136.9687 69.7203,80.3499 111.2084,187.4397 124.3125,297.9844 12.9167,108.9626 -1.0531,221.4119 -42.1679,321.8301 -41.0547,100.2709 -110.1582,189.8177 -196.5938,255.6973 -86.4873,65.9191 -191.6376,109.3508 -301.6113,131.5761 -110.1069,22.2523 -227.4112,23.8366 -348.0781,23.7168 l -957.43167,-0.9511 c -158.8156,-0.1577 -314.06619,-7.5087 -451.53906,-57.4727 C 147.74012,2419.3973 24.405387,2327.3992 -63.181641,2209.6172 -159.05024,2080.6986 -214.35027,1920.5579 -218.45703,1759.9531 c -4.10676,-160.6048 42.93526,-323.3639 132.089842,-457.0136 a 70.007,70.007 0 0 0 -59.556642,-109.6504 z"
       id="path4370-9-3-9-2-8-2"
       inkscape:connector-curvature="0" />
    <path
       style="fill:none;fill-rule:evenodd;stroke:#000000;stroke-width:70;stroke-linecap:round;stroke-linejoin:round;stroke-miterlimit:4;stroke-dasharray:none;stroke-opacity:1"
       d="m -3597.6388,403.33639 c -126.2529,4.04374 -253.3884,-44.11416 -345.278,-130.78849 -91.8895,-86.67433 -147.3854,-210.782449 -150.7172,-337.056102 -3.3317,-126.273648 45.5423,-253.135578 132.7335,-344.534948 87.1911,-91.39937 211.6102,-146.19454 337.9006,-148.81416 129.1965,-2.6799 258.6457,49.39004 350.0012,140.78524 91.3555,91.39521 143.3692,220.86705 140.6332,350.062358 l 1.6207,478.546502 -1.7982,-477.931372 c -0.2356,-62.606698 0.3606,-125.721578 13.468,-186.941248 13.1075,-61.21968 38.8131,-120.13386 77.9509,-168.99988 39.1378,-48.86602 91.1853,-87.10886 149.1215,-110.83758 57.9362,-23.72872 121.2624,-33.14652 183.8289,-30.8904 60.1195,2.16788 120.1369,15.11129 174.5278,40.81489 54.3909,25.7036 102.7277,64.31509 139.1124,112.22338 36.3846,47.90828 60.3854,104.6266 73.0258,163.44214 12.6405,58.81554 13.9741,119.39413 14.5597,179.549818 l 4.6146,474.025562 -4.3427,-473.565392 c -0.5524,-60.241468 -0.4096,-120.915948 11.0292,-180.064008 11.4388,-59.14807 34.2684,-116.48597 69.9704,-165.0113 35.702,-48.52533 83.9157,-87.71974 138.6333,-112.92541 54.7176,-25.20566 115.4884,-36.50605 175.7124,-34.95542 132.5886,3.41386 260.1589,69.66718 347.6688,169.33375 87.5098,99.66657 136.1449,230.40573 146.3237,362.647155 9.5343,123.868987 -13.9076,250.229095 -68.0351,362.053235 -54.1276,111.82414 -138.7382,208.32934 -241.1043,278.72534 -102.3662,70.39601 -221.5221,114.34732 -343.7294,136.70366 -122.2073,22.35634 -247.1833,23.36848 -371.4186,23.24492 l -1023.6428,-1.01808 c -166.0568,-0.16515 -334.1766,-4.14615 -494.0117,-49.17543 -159.835,-45.02928 -309.626,-130.39926 -421.6425,-252.98465 -129.6979,-141.93501 -206.0614,-331.49986 -210.9673,-523.705547 -4.9058,-192.205693 61.6876,-385.419383 183.9758,-533.786103"
       id="path4370-9-3-9-2-8-7"
       inkscape:path-effect="#path-effect4372-5-9-5-9-0-3"
       inkscape:original-d="m -3597.6388,403.33639 c 0,0 -319.2484,-834.53621 -25.3611,-961.1937 212.3151,-91.50202 490.6344,490.847598 490.6344,490.847598 l 1.6207,478.546502 -1.7982,-477.931372 c -6.5899,-263.556458 206.6047,-500.499658 424.3693,-497.669108 212.4112,2.76095 400.7387,402.81018 401.2257,496.030228 l 4.6146,474.025562 -4.3427,-473.565392 c 7.0292,-437.784038 185.0811,-485.321568 395.3453,-492.956138 241.5953,-8.77219 602.5606,324.26974 493.9925,531.980905 -14.2408,27.2453993 -808.1541,800.942115 -1024.2874,800.727155 l -1023.6428,-1.01808 c -386.4921,-0.38439 -781.0067,-15.65444 -915.6542,-302.16008 -185.1346,-393.932973 -26.9915,-1057.49165 -26.9915,-1057.49165"
       inkscape:connector-curvature="0"
       sodipodi:nodetypes="casccasccassssc" />
    <path
       style="color:#000000;font-style:normal;font-variant:normal;font-weight:normal;font-stretch:normal;font-size:medium;line-height:normal;font-family:sans-serif;text-indent:0;text-align:start;text-decoration:none;text-decoration-line:none;text-decoration-style:solid;text-decoration-color:#000000;letter-spacing:normal;word-spacing:normal;text-transform:none;direction:ltr;block-progression:tb;writing-mode:lr-tb;baseline-shift:baseline;text-anchor:start;white-space:normal;clip-rule:nonzero;display:inline;overflow:visible;visibility:visible;opacity:1;isolation:auto;mix-blend-mode:normal;color-interpolation:sRGB;color-interpolation-filters:linearRGB;solid-color:#000000;solid-opacity:1;fill:#000000;fill-opacity:1;fill-rule:evenodd;stroke:none;stroke-width:70;stroke-linecap:round;stroke-linejoin:round;stroke-miterlimit:4;stroke-dasharray:none;stroke-dashoffset:0;stroke-opacity:1;color-rendering:auto;image-rendering:auto;shape-rendering:auto;text-rendering:auto;enable-background:accumulate"
       d="m -4088.5,1136.1348 a 35.0035,35.0035 0 0 0 -26.4219,13.1132 c -127.8072,155.0627 -197.0843,356.0593 -191.957,556.9395 5.1272,200.8802 84.5678,398.0831 220.1191,546.4238 117.0392,128.082 272.5333,216.4499 437.9883,263.0625 165.4827,46.6203 336.8761,50.3206 503.4688,50.4864 l 1023.6425,1.0175 c 124.4488,0.1238 251.5737,-0.7317 377.752,-23.8144 126.2333,-23.0929 250.0512,-68.5676 357.2617,-142.2949 107.2525,-73.7562 195.8584,-174.7237 252.7774,-292.3145 56.9058,-117.564 81.4388,-249.9265 71.4277,-379.9883 -10.698,-138.9872 -61.6397,-276.816 -154.9199,-383.0547 -93.5631,-106.5605 -229.4094,-177.5295 -373.0684,-181.2285 -65.2035,-1.6788 -131.2064,10.4917 -191.2578,38.1543 -60.1444,27.7056 -112.8972,70.5781 -152.1816,123.9727 -23.7143,32.2319 -41.9813,67.7002 -55.5079,104.7051 -14.2447,-36.6791 -33.1462,-71.7264 -57.2832,-103.5079 -39.9364,-52.5851 -92.6407,-94.6329 -152.0312,-122.6992 -59.2797,-28.0139 -123.9258,-41.83 -188.2207,-44.1484 -66.9219,-2.4132 -135.1473,7.5906 -198.3555,33.4785 -63.3382,25.9412 -120.1412,67.6187 -163.1738,121.3477 -35.9401,44.8734 -61.0472,96.8799 -76.6133,151.164 -25.3149,-55.0292 -60.144,-105.7015 -103.1894,-148.7656 -98.3436,-98.3863 -236.4034,-153.9181 -375.4825,-151.0332 -135.9312,2.8196 -268.6508,61.2717 -362.498,159.6484 -93.8473,98.3767 -145.9825,233.7021 -142.3965,369.6153 3.5862,135.9132 62.7852,268.3028 161.6895,361.5937 98.9043,93.2909 234.5231,144.663 370.414,140.3106 a 35.0035,35.0035 0 1 0 -2.2422,-69.9649 c -116.6149,3.735 -235.2657,-41.2079 -320.1406,-121.2656 -84.8747,-80.0577 -136.6686,-195.8854 -139.7461,-312.5195 -3.0773,-116.6341 42.5352,-235.0312 123.0703,-319.4532 80.5351,-84.422 196.6532,-135.5608 313.3028,-137.9804 119.3139,-2.4749 240.154,46.1329 324.5214,130.5371 79.3155,79.3499 126.9549,190.9204 130.2793,303.1347 -0.012,7.6421 -0.099,15.3625 -0.07,22.9297 l 1.7989,477.9199 0,0.012 a 35.0035,35.0035 0 0 0 70,-0.25 l 0,-0.014 0,-0.1231 -1.6211,-478.4101 -0.01,0.8594 c 0.1368,-6.4626 0.018,-12.9167 -0.096,-19.3711 0.08,-55.5348 1.7448,-109.586 12.6172,-160.3672 12.1087,-56.5543 35.8133,-110.4583 71.045,-154.4473 35.2429,-44.0031 82.5361,-78.8139 135.0703,-100.3301 52.6642,-21.5694 111.0896,-30.3998 169.3008,-28.3007 55.944,2.0173 111.3337,14.0891 160.8359,37.4824 49.3912,23.3409 93.3606,58.5146 126.1934,101.7461 32.8211,43.2161 54.9803,95.1921 66.6796,149.6289 11.7094,54.4831 13.1965,112.6679 13.7793,172.5351 l 4.6153,474.0059 0,0.019 a 35.0035,35.0035 0 0 0 69.998,-0.6601 l -4.3437,-473.5664 c -0.55,-59.9708 -0.2074,-118.2773 10.3945,-173.0977 10.5911,-54.7646 31.6755,-107.2527 63.7988,-150.914 32.1196,-43.6563 75.7933,-79.1731 125.084,-101.879 49.3838,-22.7485 104.9235,-33.1782 160.168,-31.7558 121.5182,3.1288 240.8127,64.665 322.2695,157.4375 81.7394,93.0945 128.069,216.7446 137.7285,342.2402 9.0578,117.6762 -13.2934,238.0348 -64.6426,344.1192 -51.3362,106.0574 -131.9536,198.0989 -229.4335,265.1347 -97.5219,67.0647 -212.014,109.4954 -330.1954,131.1153 -118.2363,21.6298 -241.0641,22.7972 -365.0859,22.6738 l -1023.6426,-1.0195 c -165.5209,-0.1647 -330.3671,-4.4252 -484.5547,-47.8633 -154.215,-43.446 -298.3031,-125.8175 -405.2968,-242.9063 -123.8445,-135.5293 -197.1301,-317.4571 -201.8145,-500.9883 -4.6845,-183.5312 59.225,-368.9621 175.9942,-510.6328 a 35.0035,35.0035 0 0 0 -27.5938,-57.6347 z"
       id="path4370-9-3-9-2-8-7-7"
       inkscape:connector-curvature="0" />
    <path
       style="color:#000000;font-style:normal;font-variant:normal;font-weight:normal;font-stretch:normal;font-size:medium;line-height:normal;font-family:sans-serif;text-indent:0;text-align:start;text-decoration:none;text-decoration-line:none;text-decoration-style:solid;text-decoration-color:#000000;letter-spacing:normal;word-spacing:normal;text-transform:none;direction:ltr;block-progression:tb;writing-mode:lr-tb;baseline-shift:baseline;text-anchor:start;white-space:normal;clip-rule:nonzero;display:inline;overflow:visible;visibility:visible;opacity:1;isolation:auto;mix-blend-mode:normal;color-interpolation:sRGB;color-interpolation-filters:linearRGB;solid-color:#000000;solid-opacity:1;fill:#000000;fill-opacity:1;fill-rule:evenodd;stroke:none;stroke-width:200;stroke-linecap:round;stroke-linejoin:round;stroke-miterlimit:4;stroke-dasharray:none;stroke-dashoffset:0;stroke-opacity:1;color-rendering:auto;image-rendering:auto;shape-rendering:auto;text-rendering:auto;enable-background:accumulate"
       d="m 3264.4961,-719.69336 a 100.01,100.01 0 0 0 -81.2188,45.79688 c -107.9122,162.37483 -163.8641,356.66613 -158.8398,551.56445 5.0243,194.898373 70.9136,386.04944 187.0488,542.64844 107.6391,145.14258 257.3119,256.73808 427.1856,318.41406 170.4211,61.87472 346.0866,67.44523 509.4648,67.60742 l 957.4317,0.94922 c 121.9204,0.12104 250.7493,-0.57599 381.9238,-27.08594 131.3645,-26.54838 260.4738,-78.76938 370.9863,-163 110.5863,-84.287 198.0016,-197.37701 250.8653,-326.49023 52.7776,-128.90292 69.8562,-269.660893 53.664,-406.25586 -16.4902,-139.10946 -68.3,-278.25455 -164.7305,-389.38672 -97.3609,-112.20452 -237.8421,-189.84898 -393.0117,-195.44336 -70.9166,-2.55678 -143.0859,10.21694 -209.7597,40.75195 -66.4913,30.45131 -124.2759,77.35927 -167.7832,136.20117 -44.049,-57.21819 -101.1901,-102.42781 -165.6387,-132.77929 -64.8125,-30.52291 -134.0861,-45.02208 -202.1211,-47.47461 -70.8367,-2.55353 -143.9698,7.83522 -213.1895,36.07617 -69.5951,28.39409 -131.8974,73.8355 -179.6894,133.34375 -10.5476,13.13331 -20.0723,26.81315 -28.9043,40.80859 -12.3347,-15.34852 -25.4675,-30.11579 -39.4961,-44.125 -105.4792,-105.33347 -251.2073,-163.71711 -400.2363,-160.34765 -145.2753,3.28459 -284.8882,65.00668 -385.0899,170.24609 -100.2017,105.23935 -155.0078,247.70893 -151.1679,392.97071 3.8396,145.261657 66.0952,284.63863 171.7167,384.4375 105.6215,99.79886 248.301,154.05882 393.5469,149.66406 a 100.01,100.01 0 1 0 -6.0488,-199.90821 c -90.2376,2.73036 -184.5207,-33.12642 -250.1406,-95.1289 -65.62,-62.002487 -106.7571,-154.102125 -109.1426,-244.34961 -2.3856,-90.24739 33.8292,-184.39087 96.082,-249.77344 62.2527,-65.38253 154.5078,-106.16835 244.7637,-108.20898 92.4864,-2.09107 188.933,36.54882 254.3926,101.91797 61.2262,61.14159 99.0898,149.42235 102.1269,236.26562 -0,7.00606 -0.071,14.23013 -0.045,21.05859 l 1.6816,446.16797 0,0.0371 a 100.01,100.01 0 0 0 199.9981,-0.71679 l 0,-0.0371 -0,-0.33399 -1.5136,-446.4082 -0.021,2.46094 c 0.1162,-5.47645 -0.024,-10.93492 -0.074,-16.40039 0.065,-51.71217 1.6854,-98.60997 10.3222,-138.8418 9.4115,-43.83978 27.7485,-84.54081 53.1895,-116.21875 25.4751,-31.72037 60.5602,-57.59386 99.3027,-73.40039 39.1178,-15.95967 84.3389,-23.0464 130.4336,-21.38477 44.3166,1.59753 87.216,11.16647 124.1133,28.54297 36.5771,17.22564 69.3055,43.43768 93.1855,74.79492 23.8451,31.31138 41.0424,70.71891 50.1817,113.12891 9.1679,42.54295 10.8603,92.29469 11.4004,147.67578 l 4.3164,442.50391 0,0.0566 a 100.01,100.01 0 0 0 199.9902,-1.89453 l 0,-0.0566 -0.01,-0.91407 -4.0507,-441.1582 c -0.5107,-55.59425 0.1784,-105.61595 8.4609,-148.63477 8.2512,-42.85621 24.5746,-82.66705 47.7012,-114.16406 23.1079,-31.47163 55.1813,-57.57802 90.7363,-73.86133 35.8081,-16.39926 77.5468,-24.22516 119.2754,-22.7207 90.9965,3.28073 185.0819,52.8051 249.1582,126.65039 65.0067,74.91763 104.6751,176.35161 117.1816,281.85547 12.3386,104.086221 -1.0838,211.53839 -40.1406,306.92969 -38.9705,95.18099 -104.8419,180.57372 -187.0156,243.20508 -82.2477,62.68774 -183.1702,104.56875 -289.3692,126.03125 -106.3891,21.5009 -221.6596,23.24067 -342.1054,23.12109 l -957.4317,-0.94922 C 3990.2976,606.181 3838.6251,598.55428 3706.9258,550.73828 3574.6792,502.72356 3455.9526,414.20858 3372.1309,301.18164 3281.0443,178.35869 3228.3118,25.375402 3224.3711,-127.48633 c -3.9407,-152.86178 40.8394,-308.35599 125.4766,-435.70898 a 100.01,100.01 0 0 0 -85.3516,-156.49805 z"
       id="path4370-9-3-9-2-8-6"
       inkscape:connector-curvature="0" />
  </g>
</svg>
