<?xml version="1.0" encoding="UTF-8" standalone="no"?>
<!-- Created with Inkscape (http://www.inkscape.org/) -->

<svg
   xmlns:dc="http://purl.org/dc/elements/1.1/"
   xmlns:cc="http://creativecommons.org/ns#"
   xmlns:rdf="http://www.w3.org/1999/02/22-rdf-syntax-ns#"
   xmlns:svg="http://www.w3.org/2000/svg"
   xmlns="http://www.w3.org/2000/svg"
   xmlns:sodipodi="http://sodipodi.sourceforge.net/DTD/sodipodi-0.dtd"
   xmlns:inkscape="http://www.inkscape.org/namespaces/inkscape"
   width="2000"
   height="2048"
   id="svg2992"
   version="1.1"
   inkscape:version="0.91 r13725"
   sodipodi:docname="ന്തൃ.svg">
  <defs
     id="defs5498">
    <inkscape:path-effect
       effect="spiro"
       id="path-effect4338"
       is_visible="true" />
    <inkscape:path-effect
       effect="spiro"
       id="path-effect4222"
       is_visible="true" />
    <inkscape:path-effect
       effect="spiro"
       id="path-effect4199"
       is_visible="true" />
    <inkscape:path-effect
       effect="spiro"
       id="path-effect4195"
       is_visible="true" />
    <inkscape:path-effect
       effect="spiro"
       id="path-effect4191"
       is_visible="true" />
    <inkscape:path-effect
       effect="spiro"
       id="path-effect3782"
       is_visible="true" />
    <inkscape:path-effect
       effect="spiro"
       id="path-effect3846"
       is_visible="true" />
    <inkscape:path-effect
       effect="spiro"
       id="path-effect3801"
       is_visible="true" />
    <inkscape:path-effect
       is_visible="true"
       id="path-effect4372-5-0-8-9-8-9"
       effect="spiro" />
    <inkscape:path-effect
       is_visible="true"
       id="path-effect4372-5-0-8-9-8-9-0"
       effect="spiro" />
    <inkscape:path-effect
       is_visible="true"
       id="path-effect4372-5-0-8-9-8-9-8"
       effect="spiro" />
    <inkscape:path-effect
       is_visible="true"
       id="path-effect4372-5-0-8-9-8-9-8-3"
       effect="spiro" />
  </defs>
  <sodipodi:namedview
     inkscape:window-height="704"
     inkscape:window-width="1366"
     inkscape:pageshadow="2"
     inkscape:pageopacity="0.0"
     borderopacity="1.0"
     bordercolor="#666666"
     pagecolor="#ffffff"
     id="base"
     showgrid="true"
     showguides="true"
     inkscape:guide-bbox="true"
     inkscape:zoom="0.11322515"
     inkscape:cx="259.41255"
     inkscape:cy="-103.36243"
     inkscape:window-x="-4"
     inkscape:window-y="0"
     inkscape:current-layer="layer1"
     inkscape:window-maximized="1">
    <sodipodi:guide
       orientation="horizontal"
       position="0,600"
       id="guide5596" />
    <inkscape:grid
       type="xygrid"
       id="grid3769"
       empspacing="3"
       visible="true"
       enabled="true"
       snapvisiblegridlinesonly="true"
       spacingx="4px"
       units="px"
       dotted="true"
       spacingy="4px" />
    <sodipodi:guide
       orientation="0,1"
       position="1056,1584"
       id="guide2985" />
  </sodipodi:namedview>
  <metadata
     id="metadata5594">
    <rdf:RDF>
      <cc:Work
         rdf:about="">
        <dc:format>image/svg+xml</dc:format>
        <dc:type
           rdf:resource="http://purl.org/dc/dcmitype/StillImage" />
        <dc:title />
      </cc:Work>
    </rdf:RDF>
  </metadata>
  <g
     inkscape:label="Layer 1"
     inkscape:groupmode="layer"
     id="layer1"
     transform="translate(0,1048)">
    <path
       sodipodi:nodetypes="caccsaaaaaaaaac"
       inkscape:connector-curvature="0"
       inkscape:original-d="m 582.0632,348.44978 c -58.312,38.3089 -377.23783,-709.1426 -126.8106,-844.4229 200.4484,-108.28189 510.8428,264.8448 509.6362,455.424904 l 6.1364,365.875296 -9.1576,-297.111399 c -7.0943,-230.170301 159.7094,-531.397301 382.7709,-552.563201 234.2919,-22.2316 481.5071,260.14318 504.0275,494.407504 13.9281,144.884506 -102.3816,352.516596 -247.7636,359.559196 -153.2089,7.42175 -315.1812,-199.65785 -296.505,-351.905196 32.1892,-262.404984 395.8438,-560.206744 642.4857,-465.021284 299.8682,115.72685 340.7114,655.15683 198.8008,943.55769 -118.4937,240.81162 -458.7168,378.52386 -725.4952,349.19311 -105.1446,-11.56006 -274.3192,-93.70859 -249.2063,-196.46258 30.4624,-124.64261 250.526,-85.40922 378.1363,-72.01766 106.0824,11.13238 295.0678,123.8205 295.0678,123.8205"
       inkscape:path-effect="#path-effect4372-5-0-8-9-8-9"
       id="path4370-9-0-3-5-2-9"
       d="M 582.0632,348.44978 C 483.56352,341.88607 387.70744,300.75427 315.08322,233.8888 242.459,167.02333 193.56592,74.883866 178.90539,-22.739582 c -14.66053,-97.623448 5.01228,-200.059738 54.79303,-285.307288 49.78076,-85.24756 129.32723,-152.72031 221.55418,-187.92625 64.75022,-24.71721 135.95699,-33.60448 204.2803,-21.96588 68.32331,11.63859 133.00787,44.17125 182.66335,92.52272 49.65548,48.35148 83.50449,111.65439 101.41389,178.60799 17.90941,66.95361 20.11641,136.9623 21.27866,206.260074 l 6.1364,365.875296 -9.1576,-297.111399 c -1.94631,-63.146689 -3.29364,-126.676229 6.08288,-189.153211 9.37653,-62.47698 29.56512,-123.72133 62.92172,-177.37419 33.3566,-53.65286 79.6603,-99.25679 134.0987,-131.31539 54.4384,-32.05859 116.6294,-50.54008 179.6676,-54.72041 130.9775,-8.68567 263.3641,45.82466 355.3988,139.42033 92.0348,93.59567 143.8952,223.80737 148.6287,354.987174 2.8967,80.277882 -11.8535,162.888456 -53.9234,231.321296 -21.0349,34.21643 -48.7539,64.50395 -81.9435,87.12439 -33.1896,22.62044 -71.9005,37.43416 -111.8967,41.11351 -43.1574,3.97016 -87.1962,-5.12089 -126.0707,-24.28043 -38.8746,-19.15955 -72.6059,-48.19112 -98.7956,-82.72248 -52.3796,-69.06271 -73.5616,-158.244445 -71.6387,-244.902286 3.4148,-153.889184 79.8489,-305.322184 203.8355,-396.540884 123.9867,-91.21869 293.2113,-118.88951 438.6502,-68.4804 88.2144,30.57511 166.4253,88.14364 224.264,161.4328 57.8388,73.28916 95.4501,161.90985 111.0333,253.963002 31.1664,184.106308 -26.9015,376.981788 -136.4965,528.161888 -164.1767,226.47249 -446.1063,362.81719 -725.4952,349.19311 -59.7779,-2.915 -121.2591,-12.98445 -171.5097,-45.49246 -25.1253,-16.25401 -46.9524,-38.05911 -61.3013,-64.319 -14.349,-26.25989 -20.9337,-57.07282 -16.3953,-86.65112 5.6515,-36.83223 28.4087,-69.95568 58.6722,-91.69676 30.2635,-21.74108 67.4873,-32.63504 104.6944,-34.68083 74.4141,-4.0916 146.0828,25.44063 214.7697,54.35993 98.3069,41.39025 196.6629,82.66379 295.0678,123.8205"
       style="fill:none;fill-rule:evenodd;stroke:#000000;stroke-width:140;stroke-linecap:round;stroke-linejoin:round;stroke-miterlimit:4;stroke-dasharray:none;stroke-opacity:1" />
    <path
       style="color:#000000;font-style:normal;font-variant:normal;font-weight:normal;font-stretch:normal;font-size:medium;line-height:normal;font-family:sans-serif;text-indent:0;text-align:start;text-decoration:none;text-decoration-line:none;text-decoration-style:solid;text-decoration-color:#000000;letter-spacing:normal;word-spacing:normal;text-transform:none;direction:ltr;block-progression:tb;writing-mode:lr-tb;baseline-shift:baseline;text-anchor:start;white-space:normal;clip-rule:nonzero;display:inline;overflow:visible;visibility:visible;opacity:1;isolation:auto;mix-blend-mode:normal;color-interpolation:sRGB;color-interpolation-filters:linearRGB;solid-color:#000000;solid-opacity:1;fill:#000000;fill-opacity:1;fill-rule:evenodd;stroke:none;stroke-width:140;stroke-linecap:round;stroke-linejoin:round;stroke-miterlimit:4;stroke-dasharray:none;stroke-dashoffset:0;stroke-opacity:1;color-rendering:auto;image-rendering:auto;shape-rendering:auto;text-rendering:auto;enable-background:accumulate"
       d="m 1338.7617,1108.3516 c -9.5537,0.074 -19.1286,0.4248 -28.7148,1.0605 -73.5971,4.8805 -146.1677,26.3316 -210.5567,64.25 -64.4949,37.9809 -118.72305,91.4575 -158.02536,154.6738 -0.8031,1.2918 -1.49575,2.6301 -2.28515,3.9278 -20.47234,-37.9155 -46.35872,-73.3078 -78.10938,-104.2246 -60.18073,-58.6003 -137.34144,-97.3404 -219.74219,-111.377 -82.07563,-13.9812 -165.49824,-3.2472 -241,25.5742 -107.53757,41.0505 -198.99421,118.626 -257.03906,218.0254 -58.044828,99.3995 -80.662682,217.1721 -63.568357,331.002 17.094331,113.8299 73.307747,219.7627 157.988277,297.7285 84.68056,77.9658 194.88864,125.2568 309.74024,132.9101 a 70.007,70.007 0 1 0 9.30859,-139.6914 c -82.14776,-5.474 -163.65282,-40.4477 -224.2207,-96.2129 -60.56791,-55.7651 -102.14239,-134.1083 -114.36914,-215.5253 -12.22674,-81.417 4.50091,-168.5176 46.01758,-239.6133 41.51667,-71.0956 109.15398,-128.4668 186.07031,-157.8282 53.99868,-20.6129 112.99151,-27.6533 167.5625,-18.3574 54.24587,9.2406 106.4518,35.5654 145.58203,73.668 39.16838,38.1398 67.56085,90.2209 82.62695,146.5449 9.64503,36.0576 14.1888,75.2245 16.5293,116.6348 -3.24573,49.2225 -2.02068,96.9218 -0.61719,142.457 l 9.15821,297.1113 a 70.007,70.007 0 0 0 139.95704,-3.33 l -6.1367,-365.875 c -0.38,-22.6539 -0.8971,-45.9708 -2.0254,-69.7032 1.0232,-13.2785 2.4039,-26.3407 4.3222,-39.123 8.1843,-54.5327 25.7127,-106.6816 53.1446,-150.8047 27.4109,-44.0894 65.79,-81.8187 110.1718,-107.9551 44.4879,-26.1987 96.3001,-41.7132 148.7793,-45.1933 28.3297,-1.8787 57.0348,-0.02 85.3926,5.0429 -123.3218,105.8715 -196.6453,263.2608 -200.248,425.6192 -2.1995,99.1211 21.4257,203.8151 85.8476,288.7558 32.2622,42.5379 74.0002,78.754 123.6231,103.211 49.8021,24.5452 106.2378,36.4583 163.4277,31.1972 52.9605,-4.872 102.5397,-24.1003 144.9082,-52.9765 42.23,-28.7821 76.4006,-66.4175 102.1524,-108.3067 51.4095,-83.6254 67.514,-179.9407 64.2461,-270.5058 -5.3378,-147.9247 -63.0976,-294.1782 -168.6719,-401.543 -1.5265,-1.5524 -3.1525,-2.9997 -4.6973,-4.5332 60.5091,-7.4416 122.286,-2.1825 178.707,17.3731 74.6219,25.8639 142.3672,75.4651 192.2383,138.6582 49.9808,63.3321 83.2415,141.2142 96.9649,222.2812 27.4352,162.0654 -24.2666,337.6058 -124.1524,475.3926 -54.3323,74.9484 -123.4306,139.2659 -201.5254,190.289 a 70.007,70.007 0 0 0 -16.2871,-9.248 c -98.3537,-41.1353 -196.6601,-82.3891 -294.916,-123.7578 -69.0286,-29.0632 -150.4646,-64.9788 -245.7754,-59.7383 -48.2536,2.6532 -98.3374,16.5794 -141.6914,47.7246 -44.1203,31.6956 -78.0517,79.4717 -87.0215,137.9297 -7.1832,46.8145 3.082,92.2623 24.1582,130.834 20.8536,38.1637 51.1332,67.8078 84.7071,89.5273 66.5786,43.0711 140.8424,53.4516 206.1211,56.6348 304.3699,14.8423 606.8882,-131.5281 785.58,-378.0234 119.3043,-164.5735 183.7375,-374.7845 148.8399,-580.9317 -17.443,-103.0394 -59.405,-202.3985 -125.1016,-285.6445 -65.8065,-83.3853 -154.482,-148.9208 -256.289,-184.207 -122.4834,-42.4528 -256.6908,-37.2929 -375.8067,8.8164 -69.9271,-33.0558 -146.8588,-51.2362 -225.2793,-50.625 z m 219.2715,208.1367 c 22.4082,15.0086 43.3384,32.1603 62.1309,51.2715 78.4951,79.8263 124.4586,193.9967 128.5879,308.4316 2.5255,69.9907 -10.8716,138.8964 -43.6016,192.1367 -16.318,26.5437 -37.5854,49.4825 -61.7344,65.9414 -24.0107,16.3646 -51.8548,26.7652 -78.8867,29.252 -29.1249,2.6793 -60.7658,-3.5895 -88.7129,-17.3633 -28.1261,-13.8622 -53.8494,-35.7094 -73.9668,-62.2344 -40.337,-53.1846 -59.076,-126.8563 -57.4297,-201.0508 2.9235,-131.746 70.0754,-264.2672 175.336,-341.7089 12.2058,-8.98 25.0334,-17.1601 38.2773,-24.6758 z m -239.6699,939.3652 c 51.148,0.2239 109.5592,22.2555 173.6328,49.2324 67.946,28.6074 135.9466,57.0842 203.9394,85.5801 -96.7612,36.0026 -200.0812,53.4512 -302.2968,48.4668 -54.2772,-2.6468 -102.9759,-12.4025 -136.8985,-34.3476 -16.6767,-10.7885 -30.05,-24.7553 -37.8945,-39.1114 -7.6215,-13.9481 -10.5266,-30.1266 -8.6328,-42.4687 2.3332,-15.2064 13.9156,-33.6765 30.3223,-45.4629 17.1729,-12.337 41.5366,-20.1983 67.6972,-21.6367 3.3449,-0.1839 6.721,-0.2669 10.1309,-0.252 z"
       id="path4370-9-0-3-5-2-9-4"
       inkscape:connector-curvature="0" />
    <path
       sodipodi:nodetypes="caccsaaaaaaaaac"
       inkscape:connector-curvature="0"
       inkscape:original-d="m -2296.315,394.38787 c -63.0568,41.48493 -407.9333,-767.93456 -137.129,-914.43037 216.7586,-117.2591 552.4096,286.80194 551.1048,493.182221 l 6.6357,396.208459 -9.9027,-321.743641 c -7.6717,-249.252719 172.7048,-575.453169 413.9165,-598.373829 253.356,-24.07473 520.68692,281.71053 545.03973,535.396689 15.06141,156.896271 -110.71213,381.742241 -267.92393,389.368711 -165.6752,8.03705 -340.8271,-216.21062 -320.6312,-381.0801506 34.8083,-284.1598394 428.3887,-607.7543194 694.76404,-503.5741994 320.35177,125.29043 359.45998,705.4573 202.97706,1011.78399 -130.77505,256.00167 -499.126,392.56212 -784.528,358.1432 -113.6243,-13.70287 -296.6788,-101.58081 -269.4839,-212.75048 32.9717,-134.78421 270.8523,-91.96878 408.9047,-77.98827 127.3335,12.89501 355.07724,146.08593 355.07724,146.08593"
       inkscape:path-effect="#path-effect4372-5-0-8-9-8-9-8"
       id="path4370-9-0-3-5-2-9-7"
       d="m -2296.315,394.38787 c -106.7496,-6.98384 -210.6754,-51.47324 -289.4123,-123.89391 -78.7368,-72.42067 -131.7412,-172.272671 -147.6063,-278.067492 -15.8651,-105.794818 5.5186,-216.802128 59.5491,-309.132748 54.0306,-92.33062 140.3351,-165.34717 240.3405,-203.33622 70.0823,-26.62218 147.1147,-36.12443 221.0035,-23.44703 73.8888,12.6774 143.8184,47.93106 197.4937,100.26886 53.6752,52.33779 90.2572,120.82307 109.6126,193.2499 19.3553,72.42683 21.7396,148.15251 22.995,223.110491 l 6.6357,396.208459 -9.9027,-321.743641 c -2.1035,-68.342631 -3.5617,-137.097847 6.562,-204.719219 10.1238,-67.62136 31.9251,-133.91683 67.9708,-192.01891 36.0456,-58.10209 86.1,-107.51753 144.9814,-142.27569 58.8813,-34.75816 126.1781,-54.82165 194.4023,-59.36001 141.7308,-9.42812 284.9623,49.72795 384.4401,151.12171 99.47775,101.39376 155.43436,242.32484 160.59963,384.274979 3.16213,86.900523 -12.7079,176.338261 -58.17888,250.460391 -22.73545,37.06107 -52.71425,69.87491 -88.62845,94.38206 -35.9141,24.50715 -77.8193,40.5554 -121.1166,44.52626 -46.7044,4.28333 -94.3583,-5.59159 -136.4069,-26.36564 -42.0486,-20.77404 -78.5156,-52.23316 -106.8177,-89.63152 -56.6042,-74.79672 -79.4401,-171.304259 -77.4066,-265.0829906 3.613,-166.6165094 85.9348,-330.7462894 220.0137,-429.7260094 67.0394,-49.48986 145.9789,-82.86204 228.2852,-95.86965 82.30631,-13.0076 167.83784,-5.56977 246.46514,22.02146 94.55077,33.17896 178.26405,95.29914 239.94958,174.26487 61.68554,78.96573 101.48916,174.36046 117.39608,273.293075 31.81386,197.865225 -33.28268,404.535825 -154.3686,564.226045 -90.39712,119.21731 -211.24515,214.97676 -347.5051,276.76375 -136.2599,61.78699 -287.634,89.58618 -437.0229,81.37945 -64.5957,-3.54858 -130.9941,-14.5182 -185.3219,-49.64195 -27.1639,-17.56188 -50.7822,-41.10211 -66.3292,-69.46738 -15.547,-28.36527 -22.7121,-61.66474 -17.8328,-93.64115 6.0773,-39.82762 30.687,-75.64827 63.4153,-99.14353 32.7284,-23.49526 72.9825,-35.24849 113.2113,-37.4438 80.4575,-4.39063 157.9309,27.5316 232.2781,58.59906 118.0899,49.34621 236.4514,98.0425 355.07724,146.08593"
       style="fill:none;fill-rule:evenodd;stroke:#000000;stroke-width:70.00000763;stroke-linecap:round;stroke-linejoin:round;stroke-miterlimit:4;stroke-dasharray:none;stroke-opacity:1" />
    <path
       style="color:#000000;font-style:normal;font-variant:normal;font-weight:normal;font-stretch:normal;font-size:medium;line-height:normal;font-family:sans-serif;text-indent:0;text-align:start;text-decoration:none;text-decoration-line:none;text-decoration-style:solid;text-decoration-color:#000000;letter-spacing:normal;word-spacing:normal;text-transform:none;direction:ltr;block-progression:tb;writing-mode:lr-tb;baseline-shift:baseline;text-anchor:start;white-space:normal;clip-rule:nonzero;display:inline;overflow:visible;visibility:visible;opacity:1;isolation:auto;mix-blend-mode:normal;color-interpolation:sRGB;color-interpolation-filters:linearRGB;solid-color:#000000;solid-opacity:1;fill:#000000;fill-opacity:1;fill-rule:evenodd;stroke:none;stroke-width:70.00000763;stroke-linecap:round;stroke-linejoin:round;stroke-miterlimit:4;stroke-dasharray:none;stroke-dashoffset:0;stroke-opacity:1;color-rendering:auto;image-rendering:auto;shape-rendering:auto;text-rendering:auto;enable-background:accumulate"
       d="m -1829.3516,1621.252 c -9.5441,0.07 -19.1018,0.4206 -28.6621,1.0566 -73.5198,4.8907 -146.0138,26.447 -209.8711,64.1426 -63.9093,37.7262 -117.9187,91.0828 -156.9297,153.9648 -15.6919,25.2939 -28.6986,51.9175 -39.4765,79.3223 -22.2556,-66.9322 -58.7512,-129.8305 -110.2207,-180.0176 -58.9298,-57.4613 -135.0899,-95.8233 -216.0098,-109.707 -80.7577,-13.856 -163.8946,-3.4393 -239.3515,25.2246 -107.674,40.9021 -199.9455,118.9682 -258.1192,218.3789 -58.1738,99.4107 -81.0367,218.0927 -63.9551,332 17.0817,113.9073 73.7508,220.6627 158.5254,298.6367 84.7745,77.9741 195.8869,125.5393 310.8223,133.0586 a 35.003504,35.003504 0 1 0 4.5703,-69.8496 c -98.5638,-6.4483 -195.3048,-47.8612 -268.0039,-114.7285 -72.6992,-66.8674 -122.039,-159.8158 -136.6875,-257.4981 -14.6485,-97.6823 5.2571,-201.0151 55.1445,-286.2656 49.8874,-85.2505 130.2237,-153.2189 222.5606,-188.2949 64.7077,-24.5806 135.6363,-33.1688 202.6562,-21.6699 66.8577,11.471 130.5577,43.6177 178.9785,90.832 48.4397,47.2327 82.2962,110.1119 100.2325,177.2285 11.6301,43.5194 16.781,89.3915 19.3339,136.5547 -3.5608,51.8211 -2.3144,103.0565 -0.7753,153.0605 l 9.9023,321.7442 a 35.003504,35.003504 0 0 0 69.9785,-1.6641 l -6.6348,-396.209 c -0.4233,-25.2784 -1.0175,-50.951 -2.3144,-76.8164 1.1892,-16.053 2.8756,-31.9513 5.2285,-47.6679 9.5304,-63.6575 30.0066,-125.4105 63.0977,-178.75 33.0802,-53.3222 79.1778,-98.7978 133.0312,-130.5879 53.9053,-31.8209 116.005,-50.3901 178.9336,-54.5762 62.6685,-4.1688 126.136,6.5095 185.4707,29.0391 -10.9176,6.9431 -21.6673,14.1495 -32.082,21.8378 -143.4454,105.8944 -230.3668,279.4862 -234.2188,457.125 -2.168,99.977 21.8774,204.2264 84.4903,286.9629 31.3327,41.4032 71.7983,76.4607 119.2226,99.8907 47.5146,23.4744 101.375,34.7677 155.1074,29.8398 49.7926,-4.5666 97.1401,-22.8265 137.6485,-50.4687 40.4387,-27.5946 73.6411,-64.091 98.7324,-104.9922 50.135,-81.7249 66.6709,-178.0079 63.3223,-270.0332 -5.4687,-150.2886 -64.3548,-299.2304 -170.5918,-407.5137 -20.6846,-21.083 -43.1401,-40.3983 -66.9532,-57.8535 22.2116,-6.937 44.8395,-12.4729 67.7754,-16.0977 76.5815,-12.1028 156.4154,-5.1395 229.4141,20.4766 87.762,30.7967 166.2446,88.9079 223.95508,162.7851 57.76379,73.9454 95.40788,163.9237 110.42188,257.3028 30.01955,186.7057 -31.75058,384.6058 -147.70116,537.5234 -64.0611,84.4849 -144.2646,156.8005 -234.5371,212.791 a 35.003504,35.003504 0 0 0 -14.4649,-10.5937 c -118.5068,-47.9952 -236.7493,-96.6428 -354.7207,-145.9395 -74.4585,-31.114 -156.785,-66.214 -247.6797,-61.2539 -45.747,2.4965 -92.4359,15.7617 -131.7168,43.961 -39.6658,28.476 -69.8729,71.6329 -77.6035,122.2949 -6.1966,40.6093 2.8226,81.2291 21.7403,115.7441 18.805,34.3094 46.6479,61.7551 78.0195,82.0371 62.4566,40.3793 135.1757,51.5041 202.4043,55.1973 155.0043,8.5152 311.8534,-20.2685 453.3965,-84.4512 141.5587,-64.1896 266.9223,-163.4982 360.94138,-287.4922 126.22125,-166.4627 194.64332,-381.9047 161.03516,-590.9296 -16.79984,-104.4861 -58.76381,-205.2972 -124.3711,-289.2833 -65.66054,-84.0543 -154.60174,-150.1828 -255.94144,-185.7441 -84.2559,-29.5663 -175.4864,-37.4787 -263.5175,-23.5664 -45.6903,7.2208 -90.2581,20.3889 -132.6153,38.6621 -74.1444,-37.7691 -156.7049,-58.771 -240.3672,-58.1601 z m 237.793,136.8378 c 34.8002,20.8074 67.0299,45.9322 95.3262,74.7735 92.7183,94.5043 145.7436,227.4254 150.6054,361.0371 2.9757,81.7756 -12.2281,164.3654 -53.0351,230.8848 -20.3797,33.2208 -47.1339,62.3538 -78.5234,83.7734 -31.3199,21.3721 -67.782,35.2088 -104.584,38.584 -39.6764,3.6387 -81.1264,-4.8171 -117.709,-22.8906 -36.6729,-18.1183 -69.1387,-45.9794 -94.4102,-79.3731 -50.5955,-66.8568 -72.2234,-155.6246 -70.3242,-243.2051 3.374,-155.5941 81.0964,-310.2611 205.8086,-402.3261 21.0774,-15.5598 43.525,-29.257 66.8457,-41.2579 z m -272.2246,994.4473 c 65.9451,0.1232 134.1207,27.205 203.7168,56.2871 107.3145,44.8435 214.8833,89.0768 322.6406,132.8457 -8.6016,4.2505 -17.2618,8.3823 -25.998,12.3438 -130.9768,59.3913 -276.875,86.2068 -420.6485,78.3086 -61.9627,-3.404 -122.0393,-14.2195 -168.2382,-44.0879 -22.9565,-14.8416 -42.3517,-34.4755 -54.6407,-56.8965 -12.1763,-22.2156 -17.4878,-48.1956 -13.9258,-71.5391 4.424,-28.9926 23.4365,-57.4778 49.2266,-75.9922 26.1759,-18.7913 59.9985,-29.0335 94.709,-30.9277 4.3763,-0.2388 8.7619,-0.35 13.1582,-0.3418 z"
       id="path4370-9-0-3-5-2-9-7-6"
       inkscape:connector-curvature="0" />
  </g>
</svg>
