<?xml version="1.0" encoding="UTF-8" standalone="no"?>
<!-- Created with Inkscape (http://www.inkscape.org/) -->

<svg
   xmlns:dc="http://purl.org/dc/elements/1.1/"
   xmlns:cc="http://creativecommons.org/ns#"
   xmlns:rdf="http://www.w3.org/1999/02/22-rdf-syntax-ns#"
   xmlns:svg="http://www.w3.org/2000/svg"
   xmlns="http://www.w3.org/2000/svg"
   xmlns:sodipodi="http://sodipodi.sourceforge.net/DTD/sodipodi-0.dtd"
   xmlns:inkscape="http://www.inkscape.org/namespaces/inkscape"
   width="2000"
   height="2048"
   id="svg2992"
   version="1.1"
   inkscape:version="0.91 r13725"
   sodipodi:docname="ന്‍.svg">
  <defs
     id="defs5498">
    <inkscape:path-effect
       effect="spiro"
       id="path-effect3846"
       is_visible="true" />
    <inkscape:path-effect
       effect="spiro"
       id="path-effect3801"
       is_visible="true" />
    <inkscape:path-effect
       is_visible="true"
       id="path-effect3846-9"
       effect="spiro" />
    <inkscape:path-effect
       is_visible="true"
       id="path-effect3801-6"
       effect="spiro" />
    <inkscape:path-effect
       effect="spiro"
       id="path-effect4372-5-0-5"
       is_visible="true" />
    <inkscape:path-effect
       effect="spiro"
       id="path-effect4372-5-0-5-7"
       is_visible="true" />
    <inkscape:path-effect
       effect="spiro"
       id="path-effect4372-5-0-5-7-0"
       is_visible="true" />
    <inkscape:path-effect
       effect="spiro"
       id="path-effect4372-5-0-5-7-0-2"
       is_visible="true" />
    <inkscape:path-effect
       effect="spiro"
       id="path-effect4372-5-0-5-7-0-2-1"
       is_visible="true" />
    <inkscape:path-effect
       effect="spiro"
       id="path-effect4372-5-0-5-7-0-2-3"
       is_visible="true" />
    <inkscape:path-effect
       effect="spiro"
       id="path-effect4372-5-0-5-7-0-2-9"
       is_visible="true" />
  </defs>
  <sodipodi:namedview
     inkscape:window-height="704"
     inkscape:window-width="1366"
     inkscape:pageshadow="2"
     inkscape:pageopacity="0.0"
     borderopacity="1.0"
     bordercolor="#666666"
     pagecolor="#ffffff"
     id="base"
     showgrid="true"
     showguides="true"
     inkscape:guide-bbox="true"
     inkscape:zoom="0.16051324"
     inkscape:cx="-2414.6733"
     inkscape:cy="-209.39497"
     inkscape:window-x="-6"
     inkscape:window-y="0"
     inkscape:current-layer="layer1"
     inkscape:window-maximized="1"
     inkscape:snap-grids="false"
     inkscape:snap-to-guides="false">
    <sodipodi:guide
       orientation="horizontal"
       position="0,600"
       id="guide5596" />
    <inkscape:grid
       type="xygrid"
       id="grid3769"
       empspacing="3"
       visible="true"
       enabled="true"
       snapvisiblegridlinesonly="true"
       spacingx="4px"
       units="px"
       dotted="true"
       spacingy="4px" />
    <sodipodi:guide
       orientation="0,1"
       position="-1040,1600"
       id="guide2985" />
  </sodipodi:namedview>
  <metadata
     id="metadata5594">
    <rdf:RDF>
      <cc:Work
         rdf:about="">
        <dc:format>image/svg+xml</dc:format>
        <dc:type
           rdf:resource="http://purl.org/dc/dcmitype/StillImage" />
        <dc:title />
      </cc:Work>
    </rdf:RDF>
  </metadata>
  <g
     inkscape:label="Layer 1"
     inkscape:groupmode="layer"
     id="layer1"
     transform="translate(0,1048)">
    <path
       style="color:#000000;font-style:normal;font-variant:normal;font-weight:normal;font-stretch:normal;font-size:medium;line-height:normal;font-family:sans-serif;text-indent:0;text-align:start;text-decoration:none;text-decoration-line:none;text-decoration-style:solid;text-decoration-color:#000000;letter-spacing:normal;word-spacing:normal;text-transform:none;direction:ltr;block-progression:tb;writing-mode:lr-tb;baseline-shift:baseline;text-anchor:start;white-space:normal;clip-rule:nonzero;display:inline;overflow:visible;visibility:visible;opacity:1;isolation:auto;mix-blend-mode:normal;color-interpolation:sRGB;color-interpolation-filters:linearRGB;solid-color:#000000;solid-opacity:1;fill:#000000;fill-opacity:1;fill-rule:evenodd;stroke:none;stroke-width:140;stroke-linecap:round;stroke-linejoin:round;stroke-miterlimit:4;stroke-dasharray:none;stroke-dashoffset:0;stroke-opacity:1;color-rendering:auto;image-rendering:auto;shape-rendering:auto;text-rendering:auto;enable-background:accumulate"
       d="m 1349.0254,-1060.2695 a 70.007,70.007 0 0 0 -38.9141,126.33395 c 57.1729,43.3549 101.7402,104.90592 125.086,172.75391 15.863,46.10151 21.9724,95.91855 18.6445,144.88867 -9.4894,-0.43718 -19,-0.64608 -28.5273,-0.58008 -146.2319,1.01303 -288.6586,61.82746 -390.5235,166.74805 -25.1035,25.85651 -47.42619,54.11559 -66.81053,84.18164 -10.0264,-20.42472 -21.53626,-40.29062 -34.92969,-59.2207 -39.61963,-55.99782 -92.56622,-101.51975 -153.47851,-132.54883 -60.73333,-30.93792 -127.25679,-46.64408 -193.51563,-49.16797 -138.56143,-5.27799 -275.74662,47.64041 -374.87109,144.60156 C 112.06108,-365.31814 56.129893,-229.3336 58.349609,-90.689453 60.569325,47.954692 120.82435,182.07812 223.00195,275.81641 325.17955,369.55468 463.98909,418.05273 602.31055,408.3418 A 70.007,70.007 0 1 0 592.50586,268.68555 C 493.95082,275.60466 390.44682,239.4435 317.64453,172.6543 244.84224,105.86508 199.9136,5.8533301 198.33203,-92.931641 c -1.58156,-98.784959 40.12309,-200.182039 110.75,-269.267579 70.62691,-69.08553 172.92046,-108.54381 271.64649,-104.7832 47.60778,1.81345 94.49777,13.23327 135.29882,34.01758 40.62211,20.69313 76.54168,51.63896 102.73633,88.66211 26.19214,37.01959 43.94928,81.966 52.97461,129.45703 6.52383,34.32817 8.61026,71.43408 9.17188,110.59375 -1.13383,16.410468 -1.62959,32.890156 -1.25586,49.406247 l -0.0176,-1.767578 -1.03125,393.416011 -0.002,0.1836 0,0.2539 a 70.007,70.007 0 0 0 139.99808,0.6211 l 0,-0.25391 0,-0.0996 2.4688,-394.681638 c 0.09,-14.329497 0.161,-28.939155 0.029,-43.789062 8.2197,-93.1662 49.2861,-184.84666 114.1347,-251.64063 72.5204,-74.69573 177.0216,-120.52415 281.1817,-123.94531 -24.1125,52.73833 -57.2644,106.03736 -91.4512,162.70703 -49.8941,82.70689 -103.0815,177.2919 -114.0098,289.859378 -9.7077,99.996375 17.4174,202.652682 79.9844,283.544922 62.8499,81.25814 158.1035,135.1704 262.3125,142.8125 61.6672,4.52233 122.9163,-7.3268 178.1348,-32.18945 55.1152,-24.81623 103.1566,-62.01901 141.6367,-106.95313 77.0194,-89.93751 112.2053,-206.110697 112.1211,-319.617186 -0.109,-147.322404 -59.0748,-291.729084 -163.1074,-396.476564 -64.0383,-64.47833 -143.4484,-112.00172 -229.5235,-138.85351 7.16,-72.34235 -1.1718,-145.95476 -24.9355,-215.01758 -32.5649,-94.64091 -93.1249,-178.28029 -172.875,-238.75588 a 70.007,70.007 0 0 0 -45.6797,-14.7812 z m 210.6035,605.47458 c 61.1886,20.70673 118.0026,55.20454 163.0781,100.58984 76.8962,77.42451 122.3585,188.49381 122.4395,297.92383 0.062,84.029965 -26.9886,168.34819 -78.457,228.44922 -25.764,30.08514 -57.8346,54.62708 -92.7793,70.36133 -34.8418,15.68784 -73.5815,22.92209 -110.418,20.2207 -61.2616,-4.49258 -123.152,-38.85852 -161.8106,-88.83984 -38.9416,-50.3472 -57.7049,-119.223041 -51.3808,-184.365238 7.3026,-75.220981 46.979,-152.226022 94.543,-231.070312 38.856,-64.4096 84.1407,-133.06625 114.7851,-213.26953 z"
       id="path4370-9-0-2-9"
       inkscape:connector-curvature="0" />
    <path
       style="fill:none;fill-rule:evenodd;stroke:#000000;stroke-width:140;stroke-linecap:round;stroke-linejoin:round;stroke-miterlimit:4;stroke-dasharray:none;stroke-opacity:1"
       d="m 766.81493,516.28084 c 68.46144,51.91523 121.02564,124.51082 148.98097,205.75526 27.95532,81.24445 31.19026,170.8137 9.16869,253.86314 -24.17867,91.18446 -76.92312,171.63346 -125.65216,252.40906 -48.72903,80.7755 -95.16152,166.5711 -104.2769,260.4653 -8.01594,82.5693 14.9293,168.335 65.68354,233.9547 50.75424,65.6198 129.32563,109.76 212.06092,115.8274 49.25191,3.6119 99.24561,-5.9308 144.27571,-26.2061 45.03,-20.2752 85.0866,-51.1473 117.2086,-88.657 64.2439,-75.0192 95.3625,-175.2657 95.2892,-274.0339 -0.095,-128.3762 -52.309,-256.114 -142.7734,-347.2 -90.4643,-91.086 -218.20145,-144.23048 -346.57461,-143.34116 -126.81262,0.87851 -252.44757,54.52276 -340.78505,145.51016 -88.33748,90.9873 -138.24609,218.1525 -135.37721,344.9357 l -1.0333,393.8532 2.471,-395.0368 c 0.35638,-56.9735 0.0698,-114.3297 -10.56744,-170.3025 -10.63723,-55.9728 -31.69238,-110.3074 -64.59952,-156.8179 -32.90714,-46.5104 -77.34002,-84.7449 -128.10721,-110.606 C 111.43956,984.79228 54.732637,971.23031 -2.2006744,969.06164 -120.84441,964.54233 -240.58363,1010.7296 -325.45933,1093.753 c -84.87571,83.0233 -133.6935,201.7144 -131.79286,320.429 1.90064,118.7145 54.49295,235.782 141.98291,316.0458 87.48995,80.2637 208.64635,122.5942 327.084606,114.2792"
       id="path4370-9-0-2-9-5"
       inkscape:path-effect="#path-effect4372-5-0-5-7-0"
       inkscape:original-d="m 766.81493,516.28084 c 0,0 165.44236,297.7605 158.14966,459.6184 -8.4329,187.16226 -253.25466,326.97996 -229.92906,512.87436 18.5359,147.7225 128.95806,344.4799 277.74446,349.7821 175.80771,6.2651 360.45311,-213.0162 356.77351,-388.897 -4.8309,-230.9117 -258.391,-492.10686 -489.34801,-490.54116 -227.85136,1.5446 -476.16226,490.44586 -476.16226,490.44586 l -1.0333,393.8532 2.471,-395.0368 C 366.80623,1238.9277 187.95983,902.82434 -2.2006744,969.06164 -277.81197,1065.0633 11.815326,1844.507 11.815326,1844.507"
       inkscape:connector-curvature="0"
       sodipodi:nodetypes="caaaaasccac" />
    <path
       style="fill:none;fill-rule:evenodd;stroke:#000000;stroke-width:70;stroke-linecap:round;stroke-linejoin:round;stroke-miterlimit:4;stroke-dasharray:none;stroke-opacity:1"
       d="m -929.69622,-966.3674 c 53.73872,54.52664 93.21598,122.98883 113.48816,196.81324 20.27219,73.8244 21.29409,152.84643 2.93775,227.17038 -23.80275,96.3762 -78.44634,181.70843 -129.62727,266.76991 -51.18093,85.06148 -100.71722,174.703 -112.33442,273.292971 -10.4554,88.730112 12.1457,181.681099 65.51431,253.334029 53.36859,71.65292 137.66277,120.42351 226.76507,126.99069 52.81995,3.89303 106.44423,-6.67877 154.50746,-28.92802 48.06322,-22.24925 90.55863,-56.01531 124.31489,-96.82728 67.51253,-81.62395 98.58956,-189.849709 96.62197,-295.757874 -2.50099,-134.618896 -57.69514,-267.867826 -152.34964,-363.622876 -94.6545,-95.75504 -227.96535,-152.60803 -362.60711,-152.92287 -150.79555,-0.35262 -299.57295,70.77018 -396.53805,186.25694 -38.0564,45.32564 -68.1635,97.68658 -85.0709,154.40376 -16.9075,56.71718 -19.3182,116.60128 -19.4719,175.784694 l -1.0874,418.757406 2.6004,-402.003751 c 0.3652,-56.461017 -0.2546,-113.283969 -10.9023,-168.733089 -10.6478,-55.44913 -30.9446,-109.20575 -61.3063,-156.80979 -68.7186,-107.74357 -188.0437,-180.29165 -314.7147,-197.18492 -132.4008,-17.65742 -271.6617,25.00373 -371.4543,113.79122 -99.7925,88.7875 -158.3627,222.14079 -156.2259,355.696784 2.1369,133.555994 64.9433,264.967286 167.5252,350.516826 102.5819,85.54954 243.1363,123.7337 374.9045,101.84962"
       id="path4370-9-0-2-9-5-8"
       inkscape:path-effect="#path-effect4372-5-0-5-7-0-2"
       inkscape:original-d="m -929.69622,-966.3674 c 0,0 127.64256,277.854 116.42591,423.98362 -15.09713,196.6842 -264.99129,344.14904 -241.96169,540.062881 18.6662,158.793469 132.49738,374.536449 292.27938,380.324719 188.03492,6.81176 380.73098,-233.42919 375.44432,-421.513174 -6.83114,-243.031776 -271.91324,-518.194386 -514.95675,-516.545746 -109.70545,0.74417 -304.90815,69.11381 -396.53805,186.25694 -108.6389,138.88818 -104.5428,330.188454 -104.5428,330.188454 l -1.0874,418.757406 2.6004,-402.003751 c 0.5355,-84.695589 -26.8881,-233.057729 -72.2086,-325.542879 -72.6985,-148.35522 -191.4477,-240.14939 -314.7147,-197.18492 -290.0346,101.091 14.7495,921.85445 14.7495,921.85445"
       inkscape:connector-curvature="0"
       sodipodi:nodetypes="caaaasscccssc" />
    <path
       style="color:#000000;font-style:normal;font-variant:normal;font-weight:normal;font-stretch:normal;font-size:medium;line-height:normal;font-family:sans-serif;text-indent:0;text-align:start;text-decoration:none;text-decoration-line:none;text-decoration-style:solid;text-decoration-color:#000000;letter-spacing:normal;word-spacing:normal;text-transform:none;direction:ltr;block-progression:tb;writing-mode:lr-tb;baseline-shift:baseline;text-anchor:start;white-space:normal;clip-rule:nonzero;display:inline;overflow:visible;visibility:visible;opacity:1;isolation:auto;mix-blend-mode:normal;color-interpolation:sRGB;color-interpolation-filters:linearRGB;solid-color:#000000;solid-opacity:1;fill:#000000;fill-opacity:1;fill-rule:evenodd;stroke:none;stroke-width:70;stroke-linecap:round;stroke-linejoin:round;stroke-miterlimit:4;stroke-dasharray:none;stroke-dashoffset:0;stroke-opacity:1;color-rendering:auto;image-rendering:auto;shape-rendering:auto;text-rendering:auto;enable-background:accumulate"
       d="m -3137.2188,1138.0527 a 35.0035,35.0035 0 0 0 -24.8203,59.9239 c 49.4729,50.1983 86.0031,113.5495 104.6661,181.5136 15.0506,54.8093 18.3718,112.94 10.3105,169.2891 -20.7829,-2.5395 -41.7194,-4.0095 -62.7363,-4.0586 -161.8545,-0.3785 -319.6723,75.1824 -423.4239,198.752 -29.7079,35.3826 -54.9989,74.998 -73.7246,117.8593 -11.632,-32.3252 -26.5638,-63.557 -45.1992,-92.7754 -74.766,-117.2253 -202.7666,-194.8083 -339.5976,-213.0566 -142.9105,-19.059 -291.6319,26.5007 -399.3457,122.3359 -107.714,95.8353 -170.2636,238.2469 -167.9571,382.4043 2.3065,144.1574 69.3809,284.4956 180.1055,376.836 110.7245,92.3402 260.827,133.1192 403.0547,109.498 a 35.0035,35.0035 0 1 0 -11.4688,-69.0547 c -121.3087,20.147 -252.3148,-15.4424 -346.7539,-94.2011 -94.4392,-78.7589 -152.978,-201.2427 -154.9453,-324.1973 -1.9673,-122.9546 52.6229,-247.2486 144.4942,-328.9883 91.8711,-81.7397 221.6713,-121.5038 343.5625,-105.248 116.5109,15.5383 227.1608,83.0506 289.832,181.3125 27.7407,43.4945 46.5589,93.1159 56.4433,144.5898 6.0806,31.6651 8.5138,64.6326 9.5489,98.3223 -0.5555,15.8202 -0.747,31.5035 -0.7871,46.9668 l -1.0879,418.7578 a 35.0035,35.0035 0 0 0 70,0.3164 l 0,-0.1348 2.5996,-401.8691 c 0.1342,-20.7559 -0.055,-41.8877 -0.6348,-63.1582 1.6097,-41.8096 5.9697,-82.147 17.1367,-119.6074 15.3425,-51.4676 42.9679,-99.775 78.334,-141.8965 90.1786,-107.404 229.9157,-174.0904 369.6524,-173.7637 15.7496,0.037 31.5002,0.9276 47.1797,2.6152 -25.0692,78.2959 -71.5122,152.315 -117.5215,228.7813 -51.6378,85.8208 -104.4217,179.6171 -117.1035,287.2422 -11.4739,97.3731 13.0024,198.8501 72.205,278.3359 59.3701,79.7105 152.105,133.6083 252.2617,140.9902 59.1841,4.3621 118.5493,-7.4294 171.7833,-32.0722 53.1766,-24.6164 99.6739,-61.6586 136.582,-106.2813 73.8347,-89.2675 106.7475,-205.5206 104.6445,-318.7148 -2.6707,-143.7518 -61.1664,-285.1157 -162.4512,-387.5781 -70.1215,-70.9369 -159.5528,-121.6982 -255.8457,-146.377 10.0072,-66.7905 6.2652,-135.4859 -11.6445,-200.707 -21.8814,-79.6847 -64.308,-153.2582 -122.3125,-212.1133 a 35.0035,35.0035 0 0 0 -25.0352,-10.7891 z m 143.7774,492.0938 c 83.1781,21.8507 160.9349,66.0594 221.2773,127.1035 88.0243,89.0478 139.9168,214.182 142.2481,339.668 1.8322,98.6222 -27.4091,198.8184 -88.5996,272.7988 -30.6044,37.0013 -69.0972,67.4909 -112.0469,87.373 -42.8926,19.8557 -90.7766,29.2091 -137.2324,25.7852 -78.0479,-5.7524 -153.9005,-49.3969 -201.2676,-112.9922 -47.5345,-63.8201 -68.2612,-148.2449 -58.8242,-228.332 10.5525,-89.555 56.8404,-175.0417 107.5644,-259.3438 46.8088,-77.795 98.8947,-158.6973 126.8809,-252.0605 z"
       id="path4370-9-0-2-9-5-8-3"
       inkscape:connector-curvature="0" />
  </g>
</svg>
