<?xml version="1.0" encoding="UTF-8" standalone="no"?>
<!-- Created with Inkscape (http://www.inkscape.org/) -->

<svg
   xmlns:dc="http://purl.org/dc/elements/1.1/"
   xmlns:cc="http://creativecommons.org/ns#"
   xmlns:rdf="http://www.w3.org/1999/02/22-rdf-syntax-ns#"
   xmlns:svg="http://www.w3.org/2000/svg"
   xmlns="http://www.w3.org/2000/svg"
   xmlns:sodipodi="http://sodipodi.sourceforge.net/DTD/sodipodi-0.dtd"
   xmlns:inkscape="http://www.inkscape.org/namespaces/inkscape"
   version="1.1"
   width="2000"
   height="2000"
   id="svg2992"
   inkscape:version="0.91pre3 r13670"
   sodipodi:docname="ന്ന്ര.svg">
  <sodipodi:namedview
     pagecolor="#ffffff"
     bordercolor="#666666"
     borderopacity="1"
     objecttolerance="10"
     gridtolerance="10"
     guidetolerance="10"
     inkscape:pageopacity="0"
     inkscape:pageshadow="2"
     inkscape:window-width="1600"
     inkscape:window-height="851"
     id="namedview7"
     showgrid="true"
     inkscape:zoom="0.3337544"
     inkscape:cx="1038.0885"
     inkscape:cy="-147.9958"
     inkscape:window-x="1599"
     inkscape:window-y="-1"
     inkscape:window-maximized="1"
     inkscape:current-layer="layer1"
     showguides="true"
     inkscape:guide-bbox="true">
    <inkscape:grid
       type="xygrid"
       id="grid2984" />
    <sodipodi:guide
       orientation="0,1"
       position="-2000,1600"
       id="guide2984" />
    <sodipodi:guide
       orientation="0,1"
       position="1480,560"
       id="guide2986" />
  </sodipodi:namedview>
  <defs
     id="defs5498">
    <inkscape:path-effect
       effect="spiro"
       id="path-effect4372-5-9-5-9-0"
       is_visible="true" />
    <inkscape:path-effect
       effect="spiro"
       id="path-effect4372-5-9-5-9-0-2"
       is_visible="true" />
  </defs>
  <metadata
     id="metadata5594">
    <rdf:RDF>
      <cc:Work
         rdf:about="">
        <dc:format>image/svg+xml</dc:format>
        <dc:type
           rdf:resource="http://purl.org/dc/dcmitype/StillImage" />
        <dc:title />
      </cc:Work>
    </rdf:RDF>
  </metadata>
  <g
     transform="translate(0,1000)"
     id="layer1">
    <path
       style="fill:none;fill-rule:evenodd;stroke:#000000;stroke-width:140;stroke-linecap:round;stroke-linejoin:round;stroke-miterlimit:4;stroke-dasharray:none;stroke-opacity:1"
       d="M 612.05493,371.5114 C 494.31312,375.07394 375.83288,330.01628 290.21217,249.11561 204.59145,168.21494 152.89488,52.477203 149.78227,-65.277358 146.66966,-183.03192 192.17972,-301.33912 273.40696,-386.65009 354.6342,-471.96105 470.56863,-523.215 588.33423,-525.87763 c 120.75771,-2.73028 241.84479,45.78097 327.31426,131.13228 85.46951,85.35131 134.14821,206.37116 131.58501,327.132524 l 1.5158,446.780246 -1.6818,-446.205946 c -0.2205,-58.503264 0.3401,-117.483694 12.6197,-174.684134 12.2797,-57.20045 36.3591,-112.23311 72.9926,-157.84742 36.6336,-45.61431 85.3277,-81.27183 139.4965,-103.37214 54.1687,-22.10031 113.3457,-30.83738 171.8114,-28.7298 56.1758,2.02503 112.2618,14.05934 163.1167,38.00904 50.855,23.94969 96.0785,59.95628 130.1355,104.67698 34.0569,44.7207 56.539,97.69956 68.3808,152.65034 11.8418,54.95079 13.0925,111.55747 13.6407,167.767044 l 4.3161,442.559436 -4.0618,-442.129816 c -0.5177,-56.356794 -0.3944,-113.115924 10.2609,-168.458684 10.6553,-55.34275 31.936,-109.01375 65.2917,-154.44229 33.3557,-45.42853 78.4625,-82.12849 129.7036,-105.59563 51.241,-23.46713 108.1947,-33.76738 164.5173,-31.73676 123.083,4.43755 240.3668,68.02115 321.0854,161.04606 80.7186,93.0249 126.4564,213.31493 140.9548,335.621588 14.2654,120.340598 -0.9844,244.446442 -46.9015,356.593552 -45.9172,112.14711 -122.5601,211.388 -218.9401,284.84719 -96.38,73.45918 -211.3964,120.51011 -330.1781,144.51554 -118.7818,24.00544 -240.8318,25.22451 -362.0149,25.1042 L 735.86317,778.40524 C 575.16839,778.2457 411.51256,771.61243 260.48337,716.72144 109.45419,661.83045 -24.673719,561.76532 -120.56471,432.81667 -225.23875,292.05708 -285.1607,118.52627 -289.64466,-56.829969 -294.12862,-232.18621 -243.15374,-408.55271 -145.81039,-554.478"
       id="path4370-9-3-9-2-8"
       inkscape:path-effect="#path-effect4372-5-9-5-9-0"
       inkscape:original-d="m 612.05493,371.5114 c 0,0 -298.5989,-779.13915 -23.7207,-897.38903 198.5821,-85.42805 458.89927,458.264804 458.89927,458.264804 l 1.5158,446.780246 -1.6818,-446.205946 c -6.1637,-246.061394 193.241,-467.276144 396.9202,-464.633494 198.6721,2.57768 374.8182,376.07137 375.2737,463.103404 l 4.3161,442.559436 -4.0618,-442.129816 c 6.5745,-408.723634 173.1097,-453.105584 369.7735,-460.233364 225.9686,-8.18989 563.586,302.74449 462.0402,496.667648 -13.3197,25.4368317 -755.8811,811.261182 -958.0346,811.060482 L 735.86317,778.40524 C 374.37018,778.04635 5.3735494,700.30381 -120.56471,432.81667 -293.72447,65.033211 -145.81039,-554.478 -145.81039,-554.478"
       inkscape:connector-curvature="0"
       sodipodi:nodetypes="casccasccassssc" />
    <path
       style="color:#000000;font-style:normal;font-variant:normal;font-weight:normal;font-stretch:normal;font-size:medium;line-height:normal;font-family:sans-serif;text-indent:0;text-align:start;text-decoration:none;text-decoration-line:none;text-decoration-style:solid;text-decoration-color:#000000;letter-spacing:normal;word-spacing:normal;text-transform:none;direction:ltr;block-progression:tb;writing-mode:lr-tb;baseline-shift:baseline;text-anchor:start;white-space:normal;clip-rule:nonzero;display:inline;overflow:visible;visibility:visible;opacity:1;isolation:auto;mix-blend-mode:normal;color-interpolation:sRGB;color-interpolation-filters:linearRGB;solid-color:#000000;solid-opacity:1;fill:#000000;fill-opacity:1;fill-rule:evenodd;stroke:none;stroke-width:140;stroke-linecap:round;stroke-linejoin:round;stroke-miterlimit:4;stroke-dasharray:none;stroke-dashoffset:0;stroke-opacity:1;color-rendering:auto;image-rendering:auto;shape-rendering:auto;text-rendering:auto;enable-background:accumulate"
       d="m -145.92383,1193.2891 a 70.007,70.007 0 0 0 -56.9082,31.9589 c -105.53208,158.2009 -160.43929,348.1757 -155.57813,538.2832 4.86117,190.1076 69.40532,377.0283 182.88477,529.629 104.194926,140.1153 249.115583,248.2484 413.30859,307.9238 164.58549,59.818 336.64676,65.7312 499.22071,65.8926 l 957.43159,0.9511 c 121.6993,0.1208 248.4946,-0.7316 375.9512,-26.4902 127.5897,-25.7855 252.4715,-76.4578 358.7442,-157.457 106.3244,-81.0386 190.5092,-189.9728 241.289,-313.9961 50.7194,-123.8762 67.247,-259.6388 51.6328,-391.3574 -15.8926,-134.0687 -65.8788,-267.5579 -157.5957,-373.2579 -92.3682,-106.4506 -225.8919,-179.8757 -371.4355,-185.123 -66.5384,-2.3989 -134.1415,9.6321 -196.1856,38.0469 -62.2214,28.4958 -116.4513,72.6122 -156.9804,127.8105 -8.2833,11.2814 -15.7442,22.9786 -22.7383,34.8809 -7.1146,-11.5458 -14.6588,-22.8865 -22.9766,-33.8086 -41.1808,-54.0751 -95.1524,-96.9392 -156.0019,-125.5957 -60.6252,-28.551 -125.9407,-42.3105 -190.418,-44.6348 -67.1254,-2.4198 -136.073,7.4724 -200.7773,33.8711 -64.9673,26.5059 -123.1864,69.0135 -167.6309,124.3535 -19.4018,24.1583 -35.5084,50.2327 -48.8906,77.4004 -18.6944,-28.0017 -40.08568,-54.2946 -64.09963,-78.2754 -99.47631,-99.3388 -237.81182,-154.7596 -378.35938,-151.582 -137.02241,3.098 -269.53161,61.6786 -364.04101,160.9394 -94.50939,99.2609 -146.525868,234.4826 -142.904302,371.4922 3.621578,137.0096 62.708792,269.2944 162.330082,363.4239 99.62127,94.1293 235.04038,145.6275 372.03515,141.4824 a 70.007,70.007 0 1 0 -4.23437,-139.9356 c -98.48891,2.9801 -200.03016,-35.6347 -271.65039,-103.3066 -71.62023,-67.672 -115.92566,-166.8637 -118.5293,-265.3633 -2.60363,-98.4996 36.40053,-199.8928 104.3457,-271.2539 67.94516,-71.3611 167.30365,-115.2884 265.8125,-117.5156 100.9678,-2.2828 204.80694,39.3198 276.26953,110.6836 66.92722,66.8347 107.78094,162.1014 110.9375,256.8652 -0.007,7.186 -0.0812,14.5228 -0.0547,21.5723 l 1.68164,446.1797 0,0.027 a 70.007,70.007 0 0 0 139.99806,-0.5019 l 0,-0.025 0,-0.2286 -1.5156,-446.5253 -0.014,1.7226 c 0.1214,-5.7205 -0.01,-11.4282 -0.082,-17.1387 0.07,-51.766 1.6576,-100.2817 10.9921,-143.7636 l -0,0 c 10.2719,-47.8481 30.332,-92.85 59.1309,-128.709 28.8226,-35.8886 67.9909,-64.696 111.3613,-82.3906 43.633,-17.8019 93.0416,-25.3834 142.8476,-23.5879 47.8744,1.7257 94.7299,12.0343 135.8145,31.3828 40.8604,19.2428 77.3364,48.3915 104.2695,83.7578 26.9086,35.3341 45.6906,78.8141 55.6406,124.9863 9.9701,46.2652 11.5317,98.0735 12.0743,153.7031 l 4.3144,442.5215 0,0.039 a 70.007,70.007 0 0 0 139.9942,-1.3262 l 0,-0.039 -0.01,-0.6309 -4.0547,-441.459 c -0.5128,-55.823 0.01,-107.8659 9,-154.582 8.9725,-46.6021 26.7832,-90.5715 52.9785,-126.2481 26.1823,-35.6587 62.165,-64.9424 102.4258,-83.3808 a 70.007,70.007 0 0 0 0,0 c 40.4379,-18.5197 86.7408,-27.0881 132.8476,-25.4258 100.6224,3.6277 201.6674,57.3696 270.7363,136.9687 69.7203,80.3499 111.2084,187.4397 124.3125,297.9844 12.9167,108.9626 -1.0531,221.4119 -42.1679,321.8301 -41.0547,100.2709 -110.1582,189.8177 -196.5938,255.6973 -86.4873,65.9191 -191.6376,109.3508 -301.6113,131.5761 -110.1069,22.2523 -227.4112,23.8366 -348.0781,23.7168 l -957.43167,-0.9511 c -158.8156,-0.1577 -314.06619,-7.5087 -451.53906,-57.4727 C 147.74012,2419.3973 24.405387,2327.3992 -63.181641,2209.6172 -159.05024,2080.6986 -214.35027,1920.5579 -218.45703,1759.9531 c -4.10676,-160.6048 42.93526,-323.3639 132.089842,-457.0136 a 70.007,70.007 0 0 0 -59.556642,-109.6504 z"
       id="path4370-9-3-9-2-8-2"
       inkscape:connector-curvature="0" />
  </g>
</svg>
