<?xml version="1.0" encoding="UTF-8" standalone="no"?>
<!-- Created with Inkscape (http://www.inkscape.org/) -->

<svg
   xmlns:dc="http://purl.org/dc/elements/1.1/"
   xmlns:cc="http://creativecommons.org/ns#"
   xmlns:rdf="http://www.w3.org/1999/02/22-rdf-syntax-ns#"
   xmlns:svg="http://www.w3.org/2000/svg"
   xmlns="http://www.w3.org/2000/svg"
   xmlns:sodipodi="http://sodipodi.sourceforge.net/DTD/sodipodi-0.dtd"
   xmlns:inkscape="http://www.inkscape.org/namespaces/inkscape"
   width="2000"
   height="2048"
   id="svg2992"
   version="1.1"
   inkscape:version="0.91 r13725"
   sodipodi:docname="ന്മ.svg">
  <defs
     id="defs5498">
    <inkscape:path-effect
       effect="spiro"
       id="path-effect4372-5-0-6"
       is_visible="true" />
    <inkscape:path-effect
       effect="spiro"
       id="path-effect4170"
       is_visible="true" />
    <inkscape:path-effect
       effect="spiro"
       id="path-effect4166"
       is_visible="true" />
    <inkscape:path-effect
       effect="spiro"
       id="path-effect4372-5-0-6-94"
       is_visible="true" />
    <inkscape:path-effect
       effect="spiro"
       id="path-effect4170-9"
       is_visible="true" />
    <inkscape:path-effect
       effect="spiro"
       id="path-effect4166-6"
       is_visible="true" />
    <inkscape:path-effect
       effect="spiro"
       id="path-effect4372-5-0-6-94-3"
       is_visible="true" />
    <inkscape:path-effect
       effect="spiro"
       id="path-effect4166-6-5"
       is_visible="true" />
    <inkscape:path-effect
       effect="spiro"
       id="path-effect4170-9-7"
       is_visible="true" />
    <inkscape:path-effect
       effect="spiro"
       id="path-effect4166-6-1"
       is_visible="true" />
    <inkscape:path-effect
       effect="spiro"
       id="path-effect4170-9-3"
       is_visible="true" />
    <inkscape:path-effect
       effect="spiro"
       id="path-effect4372-5-0-6-94-0"
       is_visible="true" />
    <inkscape:path-effect
       effect="spiro"
       id="path-effect4170-9-3-7"
       is_visible="true" />
    <inkscape:path-effect
       effect="spiro"
       id="path-effect4372-5-0-6-94-0-1"
       is_visible="true" />
    <inkscape:path-effect
       effect="spiro"
       id="path-effect4166-6-1-5"
       is_visible="true" />
  </defs>
  <sodipodi:namedview
     inkscape:window-height="704"
     inkscape:window-width="1366"
     inkscape:pageshadow="2"
     inkscape:pageopacity="0.0"
     borderopacity="1.0"
     bordercolor="#666666"
     pagecolor="#ffffff"
     id="base"
     showgrid="true"
     showguides="true"
     inkscape:guide-bbox="true"
     inkscape:zoom="0.25"
     inkscape:cx="-825.06917"
     inkscape:cy="-51.121274"
     inkscape:window-x="-4"
     inkscape:window-y="0"
     inkscape:current-layer="layer1"
     inkscape:window-maximized="1">
    <sodipodi:guide
       orientation="horizontal"
       position="0,600"
       id="guide5596" />
    <inkscape:grid
       type="xygrid"
       id="grid3769"
       empspacing="3"
       visible="true"
       enabled="true"
       snapvisiblegridlinesonly="true"
       spacingx="4px"
       units="px"
       dotted="true"
       spacingy="4px" />
    <sodipodi:guide
       orientation="0,1"
       position="-1040,1600"
       id="guide2985" />
  </sodipodi:namedview>
  <metadata
     id="metadata5594">
    <rdf:RDF>
      <cc:Work
         rdf:about="">
        <dc:format>image/svg+xml</dc:format>
        <dc:type
           rdf:resource="http://purl.org/dc/dcmitype/StillImage" />
        <dc:title />
      </cc:Work>
    </rdf:RDF>
  </metadata>
  <g
     inkscape:label="Layer 1"
     inkscape:groupmode="layer"
     id="layer1"
     transform="translate(0,1048)">
    <path
       style="fill:none;fill-rule:evenodd;stroke:#000000;stroke-width:70;stroke-linecap:butt;stroke-linejoin:round;stroke-miterlimit:4;stroke-dasharray:none;stroke-opacity:1"
       d="m -1653.8138,95.337351 2,406.364269 999.21935,0 0,-406.364269"
       id="path4162-8"
       inkscape:connector-curvature="0"
       sodipodi:nodetypes="cccc" />
    <path
       style="fill:none;fill-rule:evenodd;stroke:#000000;stroke-width:70;stroke-linecap:round;stroke-linejoin:round;stroke-miterlimit:4;stroke-dasharray:none;stroke-opacity:1"
       d="m -1653.8138,133.33735 c -0.397,-16.71835 -0.1053,-33.453052 0.8742,-50.147411 8.137,-138.687026 66.3235,-275.199179 166.1594,-371.807109 99.8359,-96.60794 241.4265,-150.68518 379.758,-137.85143 116.19917,10.78041 226.56912,67.87537 306.40832,152.98803 79.8392,85.11267 129.3701,197.045529 143.98034,312.825517 4.79067,37.964066 5.96385,76.383783 3.49848,114.569423"
       id="path4164-9"
       inkscape:path-effect="#path-effect4166-6-1"
       inkscape:original-d="m -1653.8138,133.33735 c 1.1548,-14.20662 -5.1291,-31.15158 0.8742,-50.147411 55.2905,-174.950627 316.5958,-523.861879 545.9174,-509.658539 216.36373,13.40078 366.37196,266.84315 450.38866,465.813547 14.86274,35.198299 3.49848,114.569423 3.49848,114.569423"
       inkscape:connector-curvature="0"
       sodipodi:nodetypes="cssac" />
    <path
       style="fill:none;fill-rule:evenodd;stroke:#000000;stroke-width:140;stroke-linecap:round;stroke-linejoin:round;stroke-miterlimit:4;stroke-dasharray:none;stroke-opacity:1"
       d="m 1515.9739,249.84757 2.8535,-312.624078 c 0.5365,-58.774852 0.4483,-117.939502 -10.2303,-175.738622 -10.6787,-57.79912 -32.041,-114.00982 -65.8509,-162.08953 -33.81,-48.0797 -79.7855,-87.55141 -132.5306,-113.4882 -52.7452,-25.9368 -111.8497,-38.36381 -170.6212,-37.53894 -122.7507,1.72283 -242.63127,62.7978 -318.9412,158.96174 -76.30994,96.16394 -108.57106,225.14147 -90.00357,346.492025 16.72402,109.302272 73.87654,211.949945 157.97982,283.736565 84.10327,71.78661 194.45245,112.11053 305.02485,111.46254"
       id="path4370-9-0-9-6"
       inkscape:path-effect="#path-effect4372-5-0-6-94"
       inkscape:original-d="m 1515.9739,249.84757 2.8535,-312.624078 C 1506.3475,-321.0075 1345.819,-549.52196 1139.5944,-551.6318 922.88285,-553.84893 710.73933,-261.98443 730.64963,-46.178035 749.29103,155.87476 999.64983,444.37917 1193.6543,349.02107"
       inkscape:connector-curvature="0"
       sodipodi:nodetypes="ccaac" />
    <path
       style="fill:none;fill-rule:evenodd;stroke:#000000;stroke-width:140;stroke-linecap:butt;stroke-linejoin:round;stroke-miterlimit:4;stroke-dasharray:none;stroke-opacity:1"
       d="m 1516.0773,-53.01343 0,384.00001 946,0 0,-384.00001"
       id="path4162"
       inkscape:connector-curvature="0"
       sodipodi:nodetypes="cccc" />
    <path
       style="fill:none;fill-rule:evenodd;stroke:#000000;stroke-width:140;stroke-linecap:round;stroke-linejoin:round;stroke-miterlimit:4;stroke-dasharray:none;stroke-opacity:1"
       d="m 1516.0773,-53.01343 c -9.7014,-136.58444 43.2159,-276.37753 140.9308,-372.3006 97.7148,-95.92308 238.4632,-146.24448 374.8447,-134.01728 127.4315,11.42479 249.1266,76.92985 328.8399,177.00528 79.7134,100.07542 116.343,233.33788 98.9793,360.09674"
       id="path4164"
       inkscape:path-effect="#path-effect4166-6"
       inkscape:original-d="m 1516.0773,-53.01343 c 11.1629,-137.06611 275.3038,-521.00826 515.7755,-506.31788 228.4622,13.95672 410.7249,266.07474 427.8192,537.10202"
       inkscape:connector-curvature="0"
       sodipodi:nodetypes="cac" />
    <path
       style="fill:none;fill-rule:evenodd;stroke:#000000;stroke-width:140;stroke-linecap:round;stroke-linejoin:round;stroke-miterlimit:4;stroke-dasharray:none;stroke-opacity:1"
       d="m 1921.4828,-552.51099 c 60.2921,-2.41598 121.1951,20.76585 164.6209,62.66056 53.2654,51.38733 78.1906,127.57921 77.4213,201.58779 -0.7692,74.00858 -25.1537,146.12104 -58.7164,212.08621 -99.1514,194.87503 -283.5743,344.41808 -494.7313,401.16301"
       id="path4168"
       inkscape:path-effect="#path-effect4170-9"
       inkscape:original-d="m 1921.4828,-552.51099 c 0,0 130.213,15.08458 164.6209,62.66056 80.8898,111.84691 75.2583,287.75894 18.7049,413.674 -86.9871,193.67499 -284.8538,295.08561 -494.7313,401.16301"
       inkscape:connector-curvature="0"
       sodipodi:nodetypes="caac" />
    <path
       style="color:#000000;font-style:normal;font-variant:normal;font-weight:normal;font-stretch:normal;font-size:medium;line-height:normal;font-family:sans-serif;text-indent:0;text-align:start;text-decoration:none;text-decoration-line:none;text-decoration-style:solid;text-decoration-color:#000000;letter-spacing:normal;word-spacing:normal;text-transform:none;direction:ltr;block-progression:tb;writing-mode:lr-tb;baseline-shift:baseline;text-anchor:start;white-space:normal;clip-rule:nonzero;display:inline;overflow:visible;visibility:visible;opacity:1;isolation:auto;mix-blend-mode:normal;color-interpolation:sRGB;color-interpolation-filters:linearRGB;solid-color:#000000;solid-opacity:1;fill:#000000;fill-opacity:1;fill-rule:evenodd;stroke:none;stroke-width:140;stroke-linecap:round;stroke-linejoin:round;stroke-miterlimit:4;stroke-dasharray:none;stroke-dashoffset:0;stroke-opacity:1;color-rendering:auto;image-rendering:auto;shape-rendering:auto;text-rendering:auto;enable-background:accumulate"
       d="M 1345.752 2240.834 C 1340.8275 2240.8044 1335.906 2240.8434 1330.9883 2240.9492 C 1193.292 2243.9117 1058.8119 2299.7037 959.9707 2396.7324 C 931.82178 2424.3652 906.96604 2454.9514 885.67969 2487.7441 C 875.96238 2468.2392 864.77717 2449.2905 852.00586 2431.1289 C 811.38975 2373.3704 756.63265 2326.3305 693.10547 2295.0918 C 629.72337 2263.9244 559.90592 2249.4024 490.61133 2250.375 C 345.28777 2252.4146 207.34897 2322.9964 117.82031 2435.8184 C 28.537342 2548.3306 -8.0674896 2695.7463 13.455078 2836.4102 C 32.794296 2962.8044 97.928856 3079.7886 195.18359 3162.8008 C 292.4384 3245.8129 418.20144 3291.7689 546.06445 3291.0195 A 70.007 70.007 0 1 0 545.24414 3151.0215 C 451.96231 3151.5682 357.02597 3116.8775 286.07422 3056.3164 C 215.12242 2995.7552 165.95258 2907.4447 151.84375 2815.2344 C 136.23132 2713.1971 164.14943 2602.6574 227.48633 2522.8418 C 290.57755 2443.3357 392.39825 2391.7673 492.57617 2390.3613 C 540.8246 2389.6841 589.21791 2400.0164 631.32617 2420.7227 C 673.28935 2441.3575 710.48254 2473.2592 737.48633 2511.6602 C 764.51009 2550.0896 782.64016 2596.8318 791.76172 2646.2031 C 796.55492 2672.1468 798.94837 2699.5207 800.07617 2728.082 C 796.73228 2758.8862 796.02786 2790.0495 798.07812 2821.2031 L 798.07812 3110.084 L 797.97656 3121.209 A 70.007 70.007 0 0 0 798.07812 3124.998 L 798.07812 3202.9863 A 70.007 70.007 0 0 0 868.07812 3272.9863 L 1814.0781 3272.9863 A 70.007 70.007 0 0 0 1884.0781 3202.9863 L 1884.0781 2831.5977 C 1895.6494 2693.9811 1853.7247 2554.3792 1767.4453 2446.0605 C 1675.3749 2330.4713 1537.2894 2256.1451 1390.1035 2242.9492 C 1375.3228 2241.624 1360.5254 2240.9229 1345.752 2240.834 z M 1264.0508 2388.998 A 70.007 70.007 0 0 0 1276.2852 2389.4336 C 1316.793 2387.8104 1360.3259 2404.38 1389.502 2432.5273 C 1425.738 2467.4857 1446.13 2525.2146 1445.5293 2583.0098 C 1444.915 2642.1176 1424.8466 2704.2784 1394.4199 2764.0801 C 1304.6138 2940.5875 1135.165 3077.9882 943.91016 3129.3848 A 70.007 70.007 0 0 0 938.07812 3131.1797 L 938.07812 3110.7168 L 940.82422 2809.8633 C 941.04555 2785.6143 941.20906 2760.6147 940.50586 2735.0215 C 952.47446 2645.7334 994.32912 2559.1862 1058.0449 2496.6387 C 1113.5344 2442.1667 1186.9144 2404.6033 1264.0508 2388.998 z M 1561.7207 2446.7812 C 1598.3082 2470.3973 1631.1315 2499.6313 1657.9395 2533.2871 C 1720.8541 2612.2728 1752.6513 2718.0878 1744.6152 2818.9863 L 1744.0781 2818.9863 L 1744.0781 2825.1602 C 1743.593 2830.2129 1743.0081 2835.2508 1742.3203 2840.2715 A 70.007 70.007 0 0 0 1744.0781 2869.3418 L 1744.0781 3132.9863 L 1256.1133 3132.9863 C 1366.0144 3053.8429 1457.3703 2949.0828 1519.1973 2827.5664 C 1555.8959 2755.4376 1584.5974 2673.3743 1585.5215 2584.4648 C 1586.0009 2538.3351 1578.5292 2491.0489 1561.7207 2446.7812 z "
       transform="translate(0,-1048)"
       id="path4370-9-0-9-6-9" />
    <path
       style="fill:none;fill-rule:evenodd;stroke:#000000;stroke-width:70;stroke-linecap:round;stroke-linejoin:round;stroke-miterlimit:4;stroke-dasharray:none;stroke-opacity:1"
       d="m -1651.923,415.83705 -3.5021,-309.47604 c -0.697,-61.589594 -1.985,-123.526764 -13.6628,-184.003147 -11.6778,-60.476383 -33.8294,-119.321203 -68.5482,-170.197223 -34.7188,-50.87601 -81.7828,-93.34443 -136.2589,-122.08675 -54.4761,-28.74231 -115.9915,-43.73061 -177.5815,-44.39456 -127.1985,-1.37122 -252.701,60.14946 -332.9318,158.86291 -80.2309,98.71345 -114.8163,232.073844 -97.0192,358.0286 16.3962,116.04038 76.3981,225.3938 165.4651,301.55993 89.067,76.16612 206.408,118.46848 323.587,116.65567"
       id="path4370-9-0-9-6-8"
       inkscape:path-effect="#path-effect4372-5-0-6-94-0"
       inkscape:original-d="m -1651.923,415.83705 -3.5021,-309.47604 c -13.182,-273.27043 -178.0394,-515.93292 -396.0514,-520.68168 -224.0586,-4.88047 -448.9199,293.58396 -429.951,516.89151 18.155,213.72615 284.1334,519.1274 489.0521,418.2156"
       inkscape:connector-curvature="0"
       sodipodi:nodetypes="ccaac" />
    <path
       style="fill:none;fill-rule:evenodd;stroke:#000000;stroke-width:70;stroke-linecap:round;stroke-linejoin:round;stroke-miterlimit:4;stroke-dasharray:none;stroke-opacity:1"
       d="m -1225.6013,-421.25106 c 62.7468,-7.84153 128.4804,12.45609 175.882,54.30992 29.5727,26.1116 51.94667,59.9745 66.11233,96.79428 14.16566,36.81977 20.24961,76.53402 19.63127,115.97992 -1.2367,78.891812 -28.86645,155.3678797 -65.9864,224.992273 -117.8708,221.085537 -338.6733,384.460457 -584.5635,432.526837"
       id="path4168-6"
       inkscape:path-effect="#path-effect4170-9-3"
       inkscape:original-d="m -1225.6013,-421.25106 c 0,0 138.3492,5.76936 175.882,54.30992 89.35053,115.55575 82.54748,305.880042 19.7572,437.766473 -104.196,218.856277 -362.8788,320.271467 -584.5635,432.526837"
       inkscape:connector-curvature="0"
       sodipodi:nodetypes="caac" />
    <path
       style="color:#000000;font-style:normal;font-variant:normal;font-weight:normal;font-stretch:normal;font-size:medium;line-height:normal;font-family:sans-serif;text-indent:0;text-align:start;text-decoration:none;text-decoration-line:none;text-decoration-style:solid;text-decoration-color:#000000;letter-spacing:normal;word-spacing:normal;text-transform:none;direction:ltr;block-progression:tb;writing-mode:lr-tb;baseline-shift:baseline;text-anchor:start;white-space:normal;clip-rule:nonzero;display:inline;overflow:visible;visibility:visible;opacity:1;isolation:auto;mix-blend-mode:normal;color-interpolation:sRGB;color-interpolation-filters:linearRGB;solid-color:#000000;solid-opacity:1;fill:#000000;fill-opacity:1;fill-rule:evenodd;stroke:none;stroke-width:70;stroke-linecap:butt;stroke-linejoin:round;stroke-miterlimit:4;stroke-dasharray:none;stroke-dashoffset:0;stroke-opacity:1;color-rendering:auto;image-rendering:auto;shape-rendering:auto;text-rendering:auto;enable-background:accumulate"
       d="M -905.83984 2024.6504 C -910.50751 2024.63 -915.17159 2024.6769 -919.83203 2024.791 C -1050.3243 2027.9872 -1177.4684 2083.6076 -1271.1191 2174.2305 C -1328.2808 2229.5438 -1372.4126 2296.6484 -1402.416 2369.627 C -1416.003 2317.109 -1437.5453 2266.1237 -1468.7266 2220.4316 C -1506.6348 2164.882 -1557.86 2118.619 -1617.5625 2087.1191 C -1677.215 2055.6457 -1744.0835 2039.404 -1811.0996 2038.6816 C -1949.8297 2037.1861 -2084.5591 2103.4136 -2171.5684 2210.4668 C -2258.4254 2317.3329 -2295.2388 2459.9034 -2276.084 2595.4668 C -2258.459 2720.2037 -2194.451 2836.8562 -2098.709 2918.7305 C -2002.967 3000.6048 -1877.7948 3045.7319 -1751.834 3043.7832 A 35.0035 35.0035 0 1 0 -1752.916 2973.791 C -1861.3132 2975.468 -1970.8228 2935.9893 -2053.2148 2865.5312 C -2135.6068 2795.0734 -2191.6041 2693.0178 -2206.7715 2585.6738 C -2223.2109 2469.3276 -2190.8528 2345.1781 -2117.248 2254.6172 C -2043.7955 2164.2436 -1927.5205 2107.4308 -1811.8535 2108.6777 C -1755.6897 2109.2831 -1699.5282 2123.0181 -1650.2285 2149.0293 C -1600.9789 2175.0141 -1558.0763 2213.6864 -1526.5469 2259.8887 C -1495.0038 2306.111 -1474.3701 2360.4579 -1463.4531 2416.9941 C -1452.5279 2473.573 -1451.1183 2533.3906 -1450.4238 2594.7578 L -1447.4746 2855.1621 L -1446.8125 2989.873 A 35.0035 35.0035 0 0 0 -1411.8145 3024.7012 L -1385.8184 3024.7012 A 35.0035 35.0035 0 0 0 -1367.8105 3025.7012 C -1366.1666 3025.3798 -1364.5284 3025.0323 -1362.8867 3024.7012 L -412.59375 3024.7012 A 35.0035 35.0035 0 0 0 -377.59375 2989.7012 L -377.59375 2632.9473 C -375.87292 2596.2491 -377.30827 2559.4154 -381.9082 2522.9629 C -397.39779 2400.2145 -449.71481 2281.5862 -535.08789 2190.5742 C -620.59522 2099.419 -738.30128 2038.3238 -863.78906 2026.6816 C -877.80694 2025.3811 -891.83685 2024.7115 -905.83984 2024.6504 z M -961.46875 2100.1348 C -915.03413 2099.5608 -867.51365 2116.7189 -832.88477 2147.2949 C -808.00066 2169.2666 -788.58665 2198.4151 -776.27344 2230.4199 C -763.93038 2262.5024 -758.41452 2297.8049 -758.9707 2333.2852 C -760.0849 2404.3625 -785.34127 2475.7615 -820.84766 2542.3594 C -931.74098 2750.3574 -1139.3379 2905.9791 -1369.9414 2954.7012 L -1376.9863 2954.7012 L -1377.2129 2908.7148 A 35.0035 35.0035 0 0 0 -1376.9258 2903.4414 L -1377.4785 2854.5078 L -1378.7734 2591.3379 C -1378.61 2585.3017 -1378.3537 2579.2682 -1378 2573.2402 C -1370.3558 2442.9519 -1315.3204 2314.4111 -1222.4414 2224.5352 C -1157.354 2161.552 -1072.6397 2117.9918 -983.91406 2101.7402 A 35.0035 35.0035 0 0 0 -981.26172 2101.4785 C -974.71326 2100.6602 -968.10227 2100.2168 -961.46875 2100.1348 z M -759.77148 2122.2051 C -694.31465 2146.9519 -634.17416 2187.2586 -586.14062 2238.4648 C -511.83528 2317.6781 -465.08834 2422.9149 -451.35742 2531.7266 C -449.19632 2548.8524 -447.82425 2566.0816 -447.22852 2583.3379 L -447.59375 2583.3379 L -447.59375 2631.3301 C -447.73213 2634.1079 -447.88332 2636.8849 -448.0625 2639.6602 A 35.0035 35.0035 0 0 0 -447.59375 2648.4434 L -447.59375 2954.7012 L -1156.1699 2954.7012 C -988.79144 2873.5444 -846.92158 2740.0554 -759.07812 2575.291 C -720.3446 2502.6401 -690.33966 2421.0871 -688.98047 2334.3809 C -688.29995 2290.9693 -694.95314 2246.8423 -710.94141 2205.2852 C -722.45444 2175.3601 -738.77816 2147.0147 -759.77148 2122.2051 z "
       transform="translate(0,-1048)"
       id="path4162-8-4" />
  </g>
</svg>
