<?xml version="1.0" encoding="UTF-8" standalone="no"?>
<!-- Created with Inkscape (http://www.inkscape.org/) -->

<svg
   xmlns:dc="http://purl.org/dc/elements/1.1/"
   xmlns:cc="http://creativecommons.org/ns#"
   xmlns:rdf="http://www.w3.org/1999/02/22-rdf-syntax-ns#"
   xmlns:svg="http://www.w3.org/2000/svg"
   xmlns="http://www.w3.org/2000/svg"
   xmlns:sodipodi="http://sodipodi.sourceforge.net/DTD/sodipodi-0.dtd"
   xmlns:inkscape="http://www.inkscape.org/namespaces/inkscape"
   version="1.1"
   width="2000"
   height="2000"
   id="svg2992"
   inkscape:version="0.91pre3 r13670"
   sodipodi:docname="ന്ന.svg">
  <sodipodi:namedview
     pagecolor="#ffffff"
     bordercolor="#666666"
     borderopacity="1"
     objecttolerance="10"
     gridtolerance="10"
     guidetolerance="10"
     inkscape:pageopacity="0"
     inkscape:pageshadow="2"
     inkscape:window-width="1600"
     inkscape:window-height="853"
     id="namedview7"
     showgrid="true"
     inkscape:zoom="0.236"
     inkscape:cx="1456.2262"
     inkscape:cy="1175.7437"
     inkscape:window-x="1598"
     inkscape:window-y="-3"
     inkscape:window-maximized="1"
     inkscape:current-layer="layer1"
     showguides="true"
     inkscape:guide-bbox="true">
    <inkscape:grid
       type="xygrid"
       id="grid2984" />
    <sodipodi:guide
       orientation="0,1"
       position="-2000,1600"
       id="guide2984" />
    <sodipodi:guide
       orientation="0,1"
       position="-2640,560"
       id="guide2986" />
  </sodipodi:namedview>
  <defs
     id="defs5498">
    <inkscape:path-effect
       effect="spiro"
       id="path-effect4143"
       is_visible="true" />
    <inkscape:path-effect
       effect="spiro"
       id="path-effect4372-5-9-5"
       is_visible="true" />
    <inkscape:path-effect
       effect="spiro"
       id="path-effect4372-5-9-5-9"
       is_visible="true" />
    <inkscape:path-effect
       effect="spiro"
       id="path-effect4143-4"
       is_visible="true" />
    <inkscape:path-effect
       effect="spiro"
       id="path-effect4372-5-9-5-9-8"
       is_visible="true" />
    <inkscape:path-effect
       effect="spiro"
       id="path-effect4372-5-9-5-9-9"
       is_visible="true" />
    <inkscape:path-effect
       effect="spiro"
       id="path-effect4372-5-9-5-9-0"
       is_visible="true" />
  </defs>
  <metadata
     id="metadata5594">
    <rdf:RDF>
      <cc:Work
         rdf:about="">
        <dc:format>image/svg+xml</dc:format>
        <dc:type
           rdf:resource="http://purl.org/dc/dcmitype/StillImage" />
        <dc:title />
      </cc:Work>
    </rdf:RDF>
  </metadata>
  <g
     transform="translate(0,1000)"
     id="layer1">
    <path
       style="color:#000000;font-style:normal;font-variant:normal;font-weight:normal;font-stretch:normal;font-size:medium;line-height:normal;font-family:sans-serif;text-indent:0;text-align:start;text-decoration:none;text-decoration-line:none;text-decoration-style:solid;text-decoration-color:#000000;letter-spacing:normal;word-spacing:normal;text-transform:none;direction:ltr;block-progression:tb;writing-mode:lr-tb;baseline-shift:baseline;text-anchor:start;white-space:normal;clip-rule:nonzero;display:inline;overflow:visible;visibility:visible;opacity:1;isolation:auto;mix-blend-mode:normal;color-interpolation:sRGB;color-interpolation-filters:linearRGB;solid-color:#000000;solid-opacity:1;fill:#000000;fill-opacity:1;fill-rule:evenodd;stroke:none;stroke-width:140;stroke-linecap:round;stroke-linejoin:round;stroke-miterlimit:4;stroke-dasharray:none;stroke-dashoffset:0;stroke-opacity:1;color-rendering:auto;image-rendering:auto;shape-rendering:auto;text-rendering:auto;enable-background:accumulate"
       d="m 1479.9023,-601.85938 c -12.2621,0.10833 -24.5391,0.77565 -36.8007,1.90626 -158.2726,3.2676 -297.6053,98.59496 -367.1875,233.39843 -96.94962,-141.87995 -262.7881,-235.61304 -441.91801,-228.18359 -282.20087,0.6931 -520.11,250.5113 -507.06836,532.39453 1.85324,282.68734 253.51014,519.98069 535.9668,504.85547 A 70.007,70.007 0 1 0 655.4082,302.71094 C 457.84072,313.29044 267.50746,133.44915 266.87891,-64.400391 a 70.007,70.007 0 0 0 -0.0859,-3.253906 C 256.96844,-265.26076 437.53426,-454.90477 635.38477,-454.77734 a 70.007,70.007 0 0 0 3.19726,-0.0723 c 196.30285,-8.84935 384.32297,169.58563 385.63087,366.115235 0.09,22.591295 0.1528,45.19804 0.2363,67.791016 -0.6606,73.663865 0.052,146.791389 0.7637,219.505859 0.2008,60.65471 0.4174,121.28656 0.6328,181.95312 a 70.007,70.007 0 0 0 139.9981,0.29688 c 0,-0.26486 -1e-4,-0.52812 0,-0.79297 10e-5,-0.007 -10e-5,-0.0143 0,-0.0215 0.5001,-65.46095 -0.066,-130.421 -0.6797,-195.13477 -0.2206,-66.61493 -0.4484,-133.224308 -0.6933,-199.853514 0.4589,-59.724028 1.7603,-119.114796 4.998,-178.054686 9.4913,-140.7367 137.6437,-265.24422 278.6113,-267.04102 a 70.007,70.007 0 0 0 5.9785,-0.33203 c 141.875,-13.99184 294.1595,80.66176 325.2032,219.14453 13.774,69.93098 17.1365,143.335634 17.8828,219.455081 -0.078,25.9012196 -0.02,51.745481 0.1855,77.535156 -0.086,48.994023 -0.1602,98.878013 1.6817,149.675783 l 1.664,170.38086 a 70.007,70.007 0 0 0 139.9961,-0.56446 c 0.1615,-94.99784 -1.8778,-189.24437 -2.9531,-282.673824 0.2051,-47.292534 0.5962,-95.6542374 -0.4414,-144.734375 0.3899,-46.016191 1.4188,-91.818871 3.4922,-137.392581 7.484,-140.33238 134.6894,-265.92399 275.1426,-267.05078 a 70.007,70.007 0 0 0 4.8144,-0.20508 c 199.7439,-15.3854 396.077,164.40543 398.3574,364.744144 a 70.007,70.007 0 0 0 0.082,2.695313 c 9.8699,197.678393 -156.4879,381.895773 -354.4239,391.951173 a 70.007,70.007 0 1 0 7.1036,139.81836 c 277.7416,-14.10962 500.2422,-259.964 487.1796,-537.357424 -4.0237,-285.280896 -261.7872,-521.796296 -546.2324,-501.576176 -145.472,1.89341 -274.6395,82.6237 -348.1582,200.16993 -81.0079,-129.3807 -231.5186,-206.81061 -384.7344,-205.45704 z"
       id="path4370-9-3-9-2"
       inkscape:connector-curvature="0" />
    <path
       style="fill:none;fill-rule:evenodd;stroke:#000000;stroke-width:140;stroke-linecap:round;stroke-linejoin:round;stroke-miterlimit:4;stroke-dasharray:none;stroke-opacity:1"
       d="m -2143.8997,370.91636 c -117.7418,3.56253 -236.222,-41.49514 -321.8427,-122.3958 -85.6208,-80.90067 -137.3173,-196.638403 -140.4299,-314.392959 -3.1126,-117.754561 42.3974,-236.061761 123.6246,-321.372721 81.2273,-85.31096 197.1617,-136.56491 314.9273,-139.22755 120.7577,-2.73029 241.8448,45.78096 327.3143,131.13227 85.4695,85.35131 134.1482,206.37116 131.585,327.132535 l 1.5158,446.780245 -1.6818,-446.205945 c -0.2205,-58.503265 0.3401,-117.483695 12.6197,-174.684135 12.2797,-57.20045 36.3591,-112.23311 72.9926,-157.84742 36.6336,-45.61431 85.3277,-81.27183 139.4965,-103.37214 54.1687,-22.10031 113.3457,-30.83739 171.8114,-28.7298 56.1758,2.02504 112.2617,14.05935 163.1167,38.00905 50.855,23.9497 96.0785,59.95629 130.1354,104.67699 34.05696,44.7207 56.5391,97.69955 68.38087,152.65034 11.84176,54.95078 13.09249,111.55746 13.64068,167.767025 l 4.3161,442.559435 -4.0618,-442.129815 c -0.51528,-56.088275 -0.33938,-112.596805 10.57196,-167.615915 10.91134,-55.01911 32.63062,-108.23762 66.25025,-153.13617 33.61963,-44.89856 78.7442,-80.99313 129.66006,-104.52469 50.91587,-23.53157 107.20155,-34.62816 163.29123,-34.95659 115.67597,-0.67733 230.96423,45.29603 314.43273,125.38597 83.4685,80.08994 134.16354,193.38135 138.2637,308.986622 4.10015,115.605269 -38.44143,232.203488 -116.02627,318.005488 -77.58484,85.80199 -189.32645,139.82739 -304.75976,147.34677"
       id="path4370-9-3-9-2-8"
       inkscape:path-effect="#path-effect4372-5-9-5-9-0"
       inkscape:original-d="m -2143.8997,370.91636 c 0,0 -298.5989,-779.13915 -23.7207,-897.38903 198.5821,-85.42805 458.8993,458.264805 458.8993,458.264805 l 1.5158,446.780245 -1.6818,-446.205945 c -6.1637,-246.061395 193.241,-467.276145 396.9202,-464.633495 198.6721,2.57768 374.81815,376.07137 375.27365,463.103405 l 4.3161,442.559435 -4.0618,-442.129815 c 6.5745,-408.723635 183.0136,-522.267445 369.7735,-460.233365 284.797,94.59807 31.9104,899.72485 31.9104,899.72485"
       inkscape:connector-curvature="0"
       sodipodi:nodetypes="casccasccac" />
  </g>
</svg>
