<?xml version="1.0" encoding="UTF-8" standalone="no"?>
<!-- Created with Inkscape (http://www.inkscape.org/) -->

<svg
   xmlns:dc="http://purl.org/dc/elements/1.1/"
   xmlns:cc="http://creativecommons.org/ns#"
   xmlns:rdf="http://www.w3.org/1999/02/22-rdf-syntax-ns#"
   xmlns:svg="http://www.w3.org/2000/svg"
   xmlns="http://www.w3.org/2000/svg"
   xmlns:sodipodi="http://sodipodi.sourceforge.net/DTD/sodipodi-0.dtd"
   xmlns:inkscape="http://www.inkscape.org/namespaces/inkscape"
   width="2000"
   height="2048"
   id="svg2992"
   version="1.1"
   inkscape:version="0.91pre3 r13670"
   sodipodi:docname="പ.svg">
  <defs
     id="defs5498">
    <inkscape:path-effect
       effect="spiro"
       id="path-effect4148"
       is_visible="true" />
    <inkscape:path-effect
       effect="spiro"
       id="path-effect4141-5"
       is_visible="true" />
    <inkscape:path-effect
       effect="spiro"
       id="path-effect4141-5-7"
       is_visible="true" />
    <inkscape:path-effect
       effect="spiro"
       id="path-effect4141-5-7-7"
       is_visible="true" />
    <inkscape:path-effect
       effect="spiro"
       id="path-effect4141-5-7-7-1"
       is_visible="true" />
    <inkscape:path-effect
       effect="spiro"
       id="path-effect4141-5-7-7-1-9"
       is_visible="true" />
  </defs>
  <sodipodi:namedview
     inkscape:window-height="853"
     inkscape:window-width="1600"
     inkscape:pageshadow="2"
     inkscape:pageopacity="0.0"
     borderopacity="1.0"
     bordercolor="#666666"
     pagecolor="#ffffff"
     id="base"
     showgrid="true"
     showguides="true"
     inkscape:guide-bbox="true"
     inkscape:zoom="0.32102648"
     inkscape:cx="403.29384"
     inkscape:cy="705.9493"
     inkscape:window-x="1598"
     inkscape:window-y="-3"
     inkscape:current-layer="layer1"
     inkscape:window-maximized="1">
    <sodipodi:guide
       orientation="horizontal"
       position="0,600"
       id="guide5596" />
    <inkscape:grid
       type="xygrid"
       id="grid3769"
       empspacing="3"
       visible="true"
       enabled="true"
       snapvisiblegridlinesonly="true"
       spacingx="4px"
       units="px"
       dotted="true"
       spacingy="4px" />
    <sodipodi:guide
       orientation="0,1"
       position="-1040,1600"
       id="guide2985" />
  </sodipodi:namedview>
  <metadata
     id="metadata5594">
    <rdf:RDF>
      <cc:Work
         rdf:about="">
        <dc:format>image/svg+xml</dc:format>
        <dc:type
           rdf:resource="http://purl.org/dc/dcmitype/StillImage" />
        <dc:title />
      </cc:Work>
    </rdf:RDF>
  </metadata>
  <g
     inkscape:label="Layer 1"
     inkscape:groupmode="layer"
     id="layer1"
     transform="translate(0,1048)">
    <path
       style="color:#000000;font-style:normal;font-variant:normal;font-weight:normal;font-stretch:normal;font-size:medium;line-height:normal;font-family:sans-serif;text-indent:0;text-align:start;text-decoration:none;text-decoration-line:none;text-decoration-style:solid;text-decoration-color:#000000;letter-spacing:normal;word-spacing:normal;text-transform:none;direction:ltr;block-progression:tb;writing-mode:lr-tb;baseline-shift:baseline;text-anchor:start;white-space:normal;clip-rule:nonzero;display:inline;overflow:visible;visibility:visible;opacity:1;isolation:auto;mix-blend-mode:normal;color-interpolation:sRGB;color-interpolation-filters:linearRGB;solid-color:#000000;solid-opacity:1;fill:#000000;fill-opacity:1;fill-rule:evenodd;stroke:none;stroke-width:140;stroke-linecap:round;stroke-linejoin:round;stroke-miterlimit:4;stroke-dasharray:none;stroke-dashoffset:0;stroke-opacity:1;color-rendering:auto;image-rendering:auto;shape-rendering:auto;text-rendering:auto;enable-background:accumulate"
       d="m 1554.7285,-609.38086 a 70.007,70.007 0 0 0 -68.8203,71.11133 l 1.4004,799.90039 -731.96094,-7.94141 c 6.78323,-10.42911 13.1022,-21.19178 18.7832,-32.34179 37.15644,-72.92634 48.13181,-157.026827 30.9375,-237.046879 -17.1943,-80.020056 -61.74835,-152.189921 -125.58203,-203.416011 -63.83369,-51.2261 -143.94043,-79.09466 -225.78516,-78.55274 -83.49419,0.55284 -164.74373,30.65702 -228.43945,84.64258 C 161.566,-159.03982 118.54914,-83.823185 104.31836,-1.5488281 90.087588,80.725529 105.34093,166.02198 147.20312,238.26562 189.06531,310.50927 255.48369,366.15743 333.94141,394.72266 A 70.007,70.007 0 1 0 381.83789,263.16992 C 335.09546,246.15173 293.27599,211.1145 268.33594,168.07422 243.39587,125.03393 233.79328,71.328754 242.27148,22.3125 c 8.47822,-49.016257 35.56205,-96.37436 73.50977,-128.53711 37.94774,-32.16276 89.10467,-51.1179 138.84766,-51.44727 48.79625,-0.32309 99.17444,17.20483 137.23242,47.7461 38.05798,30.541267 66.0807,75.928354 76.33203,123.636718 10.25133,47.708365 3.34817,100.601012 -18.80469,144.080082 -22.15286,43.47905 -60.88594,80.15612 -105.50781,99.90625 a 70.007,70.007 0 0 0 27.57226,134.00585 l 985.21878,10.6875 a 70.007,70.007 0 0 0 70.7597,-70.11718 l -1.5254,-870.78906 a 70.007,70.007 0 0 0 -71.1777,-70.86524 z"
       id="path4139-0-3-8-6"
       inkscape:connector-curvature="0" />
    <path
       style="fill:none;fill-rule:evenodd;stroke:#000000;stroke-width:140;stroke-linecap:round;stroke-linejoin:round;stroke-miterlimit:4;stroke-dasharray:none;stroke-opacity:1"
       d="m 387.05454,1414.2433 c -62.60007,-22.7917 -116.71816,-68.134 -150.11929,-125.776 -33.40112,-57.642 -45.82931,-127.1418 -34.47482,-192.7871 11.3545,-65.6453 46.40467,-126.93303 97.22639,-170.00719 50.82172,-43.07416 117.02554,-67.60472 183.64413,-68.04582 65.32048,-0.43251 130.56258,22.26641 181.50841,63.15009 50.94583,40.88367 87.23423,99.66232 100.95705,163.52652 13.72281,63.8642 4.78276,132.3612 -24.87189,190.5639 -29.65465,58.2027 -79.81368,105.6985 -139.54618,132.1367 l 985.21936,10.6887 -1.5249,-870.78852"
       id="path4139-0-3-8-6-5"
       inkscape:path-effect="#path-effect4141-5-7-7-1-9"
       inkscape:original-d="m 387.05454,1414.2433 c -184.23763,-178.44 -91.9789,-552.81435 96.27641,-556.61611 187.26743,-3.7818 392.28739,266.39541 118.04739,549.37721 l 985.21936,10.6887 -1.5249,-870.78852"
       inkscape:connector-curvature="0"
       sodipodi:nodetypes="caccc" />
  </g>
</svg>
