<?xml version="1.0" encoding="UTF-8" standalone="no"?>
<!-- Created with Inkscape (http://www.inkscape.org/) -->

<svg
   xmlns:dc="http://purl.org/dc/elements/1.1/"
   xmlns:cc="http://creativecommons.org/ns#"
   xmlns:rdf="http://www.w3.org/1999/02/22-rdf-syntax-ns#"
   xmlns:svg="http://www.w3.org/2000/svg"
   xmlns="http://www.w3.org/2000/svg"
   xmlns:sodipodi="http://sodipodi.sourceforge.net/DTD/sodipodi-0.dtd"
   xmlns:inkscape="http://www.inkscape.org/namespaces/inkscape"
   width="2000"
   height="2048"
   id="svg2992"
   version="1.1"
   inkscape:version="0.91 r13725"
   sodipodi:docname="പ.svg">
  <defs
     id="defs5498">
    <inkscape:path-effect
       effect="spiro"
       id="path-effect4148"
       is_visible="true" />
    <inkscape:path-effect
       effect="spiro"
       id="path-effect4141-5"
       is_visible="true" />
    <inkscape:path-effect
       effect="spiro"
       id="path-effect4141-5-7"
       is_visible="true" />
    <inkscape:path-effect
       effect="spiro"
       id="path-effect4141-5-7-7"
       is_visible="true" />
    <inkscape:path-effect
       effect="spiro"
       id="path-effect4141-5-7-7-1"
       is_visible="true" />
    <inkscape:path-effect
       effect="spiro"
       id="path-effect4141-5-7-7-1-9"
       is_visible="true" />
    <inkscape:path-effect
       effect="spiro"
       id="path-effect4141-5-7-7-1-9-4"
       is_visible="true" />
    <inkscape:path-effect
       effect="spiro"
       id="path-effect4141-5-7-7-1-9-4-6"
       is_visible="true" />
    <inkscape:path-effect
       effect="spiro"
       id="path-effect4146-3-9-0"
       is_visible="true" />
    <inkscape:path-effect
       effect="spiro"
       id="path-effect4141-5-7-7-1-9-3"
       is_visible="true" />
    <inkscape:path-effect
       effect="spiro"
       id="path-effect4141-5-7-7-1-9-4-9"
       is_visible="true" />
    <inkscape:path-effect
       effect="spiro"
       id="path-effect4141-5-7-7-1-9-49"
       is_visible="true" />
    <inkscape:path-effect
       effect="spiro"
       id="path-effect4141-5-7-7-1-9-7"
       is_visible="true" />
    <inkscape:path-effect
       effect="spiro"
       id="path-effect4141-5-7-7-1-9-7-5"
       is_visible="true" />
  </defs>
  <sodipodi:namedview
     inkscape:window-height="851"
     inkscape:window-width="1600"
     inkscape:pageshadow="2"
     inkscape:pageopacity="0.0"
     borderopacity="1.0"
     bordercolor="#666666"
     pagecolor="#ffffff"
     id="base"
     showgrid="true"
     showguides="true"
     inkscape:guide-bbox="true"
     inkscape:zoom="0.32102648"
     inkscape:cx="68.542832"
     inkscape:cy="286.47183"
     inkscape:window-x="1599"
     inkscape:window-y="-1"
     inkscape:current-layer="layer1"
     inkscape:window-maximized="1">
    <sodipodi:guide
       orientation="horizontal"
       position="0,600"
       id="guide5596" />
    <inkscape:grid
       type="xygrid"
       id="grid3769"
       empspacing="3"
       visible="true"
       enabled="true"
       snapvisiblegridlinesonly="true"
       spacingx="4px"
       units="px"
       dotted="true"
       spacingy="4px" />
    <sodipodi:guide
       orientation="0,1"
       position="-1040,1600"
       id="guide2985" />
  </sodipodi:namedview>
  <metadata
     id="metadata5594">
    <rdf:RDF>
      <cc:Work
         rdf:about="">
        <dc:format>image/svg+xml</dc:format>
        <dc:type
           rdf:resource="http://purl.org/dc/dcmitype/StillImage" />
        <dc:title />
      </cc:Work>
    </rdf:RDF>
  </metadata>
  <g
     inkscape:label="Layer 1"
     inkscape:groupmode="layer"
     id="layer1"
     transform="translate(0,1048)">
    <path
       style="fill:none;fill-rule:evenodd;stroke:#000000;stroke-width:140;stroke-linecap:round;stroke-linejoin:round;stroke-miterlimit:4;stroke-dasharray:none;stroke-opacity:1"
       d="M 258.33309,335.81528 C 195.73301,313.02357 141.61491,267.68124 108.21379,210.03927 74.812673,152.3973 62.384484,82.897401 73.73899,17.252091 c 11.354505,-65.64531 46.4047,-126.932991 97.22643,-170.007141 50.82174,-43.07415 117.02558,-67.6047 183.64417,-68.04578 65.32048,-0.43248 130.56256,22.26645 181.50837,63.15013 50.94582,40.88368 87.2342,99.662285 100.957,163.5264866 13.72281,63.8642014 4.78276,132.3612534 -24.8719,190.5639434 -29.65465,58.20269 -79.81368,105.69841 -139.54617,132.13665 l 928.10561,4.6887 -1.5249,-874.78852"
       id="path4139-0-3-8-6-5"
       inkscape:path-effect="#path-effect4141-5-7-7-1-9"
       inkscape:original-d="m 258.33309,335.81528 c -184.237599,-178.44 -91.9789,-552.81435 96.2765,-556.61611 187.2674,-3.7818 392.28739,266.395417 118.0473,549.37721 l 928.10561,4.6887 -1.5249,-874.78852"
       inkscape:connector-curvature="0"
       sodipodi:nodetypes="caccc" />
    <path
       style="fill:none;fill-rule:evenodd;stroke:#000000;stroke-width:120;stroke-linecap:round;stroke-linejoin:round;stroke-miterlimit:4;stroke-dasharray:none;stroke-opacity:1"
       d="m -711.30408,2390.8363 c -87.99822,-17.2302 -183.43299,8.8974 -250.3831,68.5485 -66.95012,59.6511 -103.87252,151.4508 -96.86972,240.8461 6.7328,85.949 53.1337,167.2447 121.42278,219.8676 68.28904,52.6229 157.0598,76.73 242.99384,69.8089 71.55874,-5.7633 141.66075,-32.7593 196.92936,-78.5769 55.26862,-45.8175 95.11163,-110.5596 108.52254,-181.0863 13.42448,-70.598 -0.12397,-146.0347 -37.52572,-207.3976 -37.40176,-61.3629 -98.34867,-108.0222 -167.42658,-127.8348 -39.54369,-11.3418 -81.73123,-14.0625 -122.1182,-6.2374 -52.95442,10.2601 -102.51942,39.27 -135.38768,82.0382 -32.86825,42.7681 -48.17984,99.2004 -38.93884,152.3421 7.23184,41.5878 29.41982,80.5982 62.17351,107.226 32.75369,26.6278 75.90863,40.4223 117.95111,36.6444 38.78302,-3.485 75.83225,-21.7232 103.24612,-49.3773 27.41388,-27.654 45.20724,-64.3877 51.30118,-102.8472 7.86315,-49.6251 -3.91205,-102.0927 -32.22752,-143.5984 -28.31546,-41.5056 -72.87143,-71.61 -121.94508,-82.3924"
       id="path4144-59-8-6"
       inkscape:path-effect="#path-effect4146-3-9-0"
       inkscape:original-d="m -711.30408,2390.8363 c 0,0 -351.60722,154.4255 -347.25282,309.3946 4.3584,155.1132 209.2632,292.2308 364.41662,289.6765 133.6173,-2.1998 284.3259,-127.7082 305.4519,-259.6632 20.7053,-129.3265 -92.3832,-268.283 -204.9523,-335.2324 -35.0317,-20.8348 -85.2436,-23.6031 -122.1182,-6.2374 -88.088,41.4841 -186.81952,137.8176 -174.32652,234.3803 9.8596,76.2078 103.38522,147.8592 180.12462,143.8704 72.2114,-3.7533 147.5341,-80.2565 154.5473,-152.2245 8.8445,-90.7604 -121.4898,-169.113 -154.1726,-225.9908"
       inkscape:connector-curvature="0"
       sodipodi:nodetypes="caaaaaaaac" />
    <path
       style="color:#000000;font-style:normal;font-variant:normal;font-weight:normal;font-stretch:normal;font-size:medium;line-height:normal;font-family:sans-serif;text-indent:0;text-align:start;text-decoration:none;text-decoration-line:none;text-decoration-style:solid;text-decoration-color:#000000;letter-spacing:normal;word-spacing:normal;text-transform:none;direction:ltr;block-progression:tb;writing-mode:lr-tb;baseline-shift:baseline;text-anchor:start;white-space:normal;clip-rule:nonzero;display:inline;overflow:visible;visibility:visible;opacity:1;isolation:auto;mix-blend-mode:normal;color-interpolation:sRGB;color-interpolation-filters:linearRGB;solid-color:#000000;solid-opacity:1;fill:#000000;fill-opacity:1;fill-rule:evenodd;stroke:none;stroke-width:140;stroke-linecap:round;stroke-linejoin:round;stroke-miterlimit:4;stroke-dasharray:none;stroke-dashoffset:0;stroke-opacity:1;color-rendering:auto;image-rendering:auto;shape-rendering:auto;text-rendering:auto;enable-background:accumulate"
       d="m -557.27154,1454.6192 a 70.007,70.007 0 0 0 -68.8203,71.1113 l 1.4004,799.9004 -731.96086,-7.9414 c 6.7832,-10.4291 13.1022,-21.1918 18.7832,-32.3418 37.1564,-72.9264 48.1318,-157.0269 30.9375,-237.0469 -17.1943,-80.0201 -61.7484,-152.1899 -125.5821,-203.416 -63.8337,-51.2261 -143.9404,-79.0947 -225.7851,-78.5528 -83.4942,0.5529 -164.7438,30.6571 -228.4395,84.6426 -63.6957,53.9856 -106.7126,129.2022 -120.9433,211.4766 -14.2308,82.2743 1.0225,167.5708 42.8847,239.8144 41.8622,72.2437 108.2806,127.8918 186.7383,156.4571 a 70.007,70.007 0 1 0 47.8965,-131.5528 c -46.7424,-17.0182 -88.5619,-52.0554 -113.502,-95.0957 -24.94,-43.0403 -34.5426,-96.7454 -26.0644,-145.7617 8.4782,-49.0162 35.562,-96.3743 73.5098,-128.5371 37.9477,-32.1628 89.1046,-51.1179 138.8476,-51.4473 48.7963,-0.3231 99.1745,17.2049 137.2324,47.7461 38.058,30.5413 66.0807,75.9284 76.3321,123.6368 10.2513,47.7083 3.3481,100.601 -18.8047,144.08 -22.1529,43.4791 -60.886,80.1562 -105.5078,99.9063 a 70.007,70.007 0 0 0 27.5722,134.0059 l 985.21876,10.6875 a 70.007,70.007 0 0 0 70.7597,-70.1172 l -1.5254,-870.7891 a 70.007,70.007 0 0 0 -71.1777,-70.8652 z"
       id="path4139-0-3-8-6-6"
       inkscape:connector-curvature="0" />
    <path
       style="color:#000000;font-style:normal;font-variant:normal;font-weight:normal;font-stretch:normal;font-size:medium;line-height:normal;font-family:sans-serif;text-indent:0;text-align:start;text-decoration:none;text-decoration-line:none;text-decoration-style:solid;text-decoration-color:#000000;letter-spacing:normal;word-spacing:normal;text-transform:none;direction:ltr;block-progression:tb;writing-mode:lr-tb;baseline-shift:baseline;text-anchor:start;white-space:normal;clip-rule:nonzero;display:inline;overflow:visible;visibility:visible;opacity:1;isolation:auto;mix-blend-mode:normal;color-interpolation:sRGB;color-interpolation-filters:linearRGB;solid-color:#000000;solid-opacity:1;fill:#000000;fill-opacity:1;fill-rule:evenodd;stroke:none;stroke-width:140;stroke-linecap:round;stroke-linejoin:round;stroke-miterlimit:4;stroke-dasharray:none;stroke-dashoffset:0;stroke-opacity:1;color-rendering:auto;image-rendering:auto;shape-rendering:auto;text-rendering:auto;enable-background:accumulate"
       d="m -598.67383,-606.28125 a 70.007,70.007 0 0 0 -68.82031,71.10937 l 1.40039,804.3125 -674.15625,-3.40624 c 6.5194,-10.10158 12.6027,-20.51371 18.0918,-31.28711 37.1563,-72.92628 48.1337,-157.026812 30.9394,-237.0468794 -17.1942,-80.0200566 -61.7503,-152.1899206 -125.5839,-203.4160106 -63.8337,-51.22611 -143.9385,-79.09462 -225.7832,-78.55274 -83.4942,0.55281 -164.7457,30.65707 -228.4414,84.64258 -63.6957,53.98555 -106.7107,129.202181 -120.9415,211.476561 -14.2307,82.274374 1.0207,167.570819 42.8829,239.814449 41.8621,72.24367 108.2805,127.8918 186.7382,156.45704 a 70.007,70.007 0 1 0 47.8965,-131.55274 c -46.7424,-17.01819 -88.5619,-52.05543 -113.5019,-95.0957 -24.9401,-43.04031 -34.5427,-96.745475 -26.0645,-145.761721 8.4782,-49.016239 35.5621,-96.374361 73.5098,-128.537109 37.9478,-32.16279 89.1047,-51.11792 138.8476,-51.44727 48.7963,-0.32307 99.1765,17.20485 137.2344,47.746098 38.058,30.541268 66.0788,75.928372 76.3301,123.636719 10.2513,47.708335 3.3482,100.600983 -18.8047,144.080073 -22.1529,43.47911 -60.884,80.15615 -105.5058,99.90626 a 70.007,70.007 0 0 0 27.9765,134.00781 l 928.10548,4.68945 a 70.007,70.007 0 0 0 70.35352,-70.12109 l -1.52344,-874.78907 a 70.007,70.007 0 0 0 -71.17969,-70.86523 z"
       id="path4139-0-3-8-6-5-3"
       inkscape:connector-curvature="0" />
    <path
       style="fill:none;fill-rule:evenodd;stroke:#000000;stroke-width:130;stroke-linecap:round;stroke-linejoin:round;stroke-miterlimit:4;stroke-dasharray:none;stroke-opacity:1"
       d="M 380.67948,1056.1186 C 324.39639,1035.6268 275.73937,994.85997 245.70876,943.03466 215.67816,891.20935 204.50411,828.7227 214.71283,769.70167 c 10.20872,-59.02102 41.72198,-114.12415 87.41529,-152.85169 45.6933,-38.72753 105.21649,-60.78269 165.11259,-61.17927 58.72898,-0.38885 117.38748,20.01953 163.19235,56.77763 45.80487,36.75811 78.43139,89.60536 90.76943,147.02502 12.33803,57.41966 4.30012,119.00467 -22.36208,171.33412 -26.66221,52.32945 -71.75968,95.03232 -125.46457,118.80272 l 834.45036,4.2156 -1.371,-700.51354"
       id="path4139-0-3-8-6-5-39"
       inkscape:path-effect="#path-effect4141-5-7-7-1-9-7"
       inkscape:original-d="M 380.67948,1056.1186 C 215.03333,895.68503 297.98218,559.08883 467.24071,555.67071 635.61093,552.27053 819.94233,795.18414 573.37584,1049.6102 l 834.45036,4.2156 -1.371,-700.51354"
       inkscape:connector-curvature="0"
       sodipodi:nodetypes="caccc" />
    <path
       style="color:#000000;font-style:normal;font-variant:normal;font-weight:normal;font-stretch:normal;font-size:medium;line-height:normal;font-family:sans-serif;text-indent:0;text-align:start;text-decoration:none;text-decoration-line:none;text-decoration-style:solid;text-decoration-color:#000000;letter-spacing:normal;word-spacing:normal;text-transform:none;direction:ltr;block-progression:tb;writing-mode:lr-tb;baseline-shift:baseline;text-anchor:start;white-space:normal;clip-rule:nonzero;display:inline;overflow:visible;visibility:visible;opacity:1;isolation:auto;mix-blend-mode:normal;color-interpolation:sRGB;color-interpolation-filters:linearRGB;solid-color:#000000;solid-opacity:1;fill:#000000;fill-opacity:1;fill-rule:evenodd;stroke:none;stroke-width:130;stroke-linecap:round;stroke-linejoin:round;stroke-miterlimit:4;stroke-dasharray:none;stroke-dashoffset:0;stroke-opacity:1;color-rendering:auto;image-rendering:auto;shape-rendering:auto;text-rendering:auto;enable-background:accumulate"
       d="m -586.00977,285.55664 a 65.0065,65.0065 0 0 0 -63.89062,66.04297 l 1.24219,635.05664 -600.2461,-3.0332 c 5.1231,-8.1471 9.9125,-16.52609 14.3047,-25.14649 33.6281,-66.00141 43.5576,-142.07656 27.9961,-214.49804 -15.5615,-72.4216 -55.8647,-137.7027 -113.6367,-184.06446 -57.7722,-46.36176 -130.2337,-71.57247 -204.3067,-71.08203 -75.5663,0.50034 -149.0612,27.73223 -206.709,76.5918 -57.6477,48.85955 -96.5579,116.89703 -109.4375,191.35937 -12.8795,74.46225 0.9173,151.61593 38.8047,217 37.8873,65.384 97.9666,115.7193 168.9746,141.5723 a 65.0065,65.0065 0 1 0 44.4746,-122.15433 c -41.5581,-15.13067 -78.7948,-46.32908 -100.9687,-84.5957 -22.1739,-38.26655 -30.7234,-86.0862 -23.1856,-129.66602 7.5379,-43.57973 31.6537,-85.74821 65.3926,-114.34375 33.7389,-28.59551 79.2898,-45.4728 123.5157,-45.76562 43.385,-0.28726 88.2424,15.3182 122.08,42.47265 33.8376,27.15447 58.7879,67.56861 67.9024,109.98633 9.1145,42.41786 2.9677,89.51242 -16.7285,128.16992 -19.6963,38.6575 -54.1839,71.31317 -93.8575,88.87305 a 65.0065,65.0065 0 0 0 25.9805,124.43747 l 834.44922,4.2149 a 65.0065,65.0065 0 0 0 65.32813,-65.125 l -1.36914,-700.5137 a 65.0065,65.0065 0 0 0 -66.10938,-65.78906 z"
       id="path4139-0-3-8-6-5-39-0"
       inkscape:connector-curvature="0" />
  </g>
</svg>
