<?xml version="1.0" encoding="UTF-8" standalone="no"?>
<!-- Created with Inkscape (http://www.inkscape.org/) -->

<svg
   xmlns:dc="http://purl.org/dc/elements/1.1/"
   xmlns:cc="http://creativecommons.org/ns#"
   xmlns:rdf="http://www.w3.org/1999/02/22-rdf-syntax-ns#"
   xmlns:svg="http://www.w3.org/2000/svg"
   xmlns="http://www.w3.org/2000/svg"
   xmlns:sodipodi="http://sodipodi.sourceforge.net/DTD/sodipodi-0.dtd"
   xmlns:inkscape="http://www.inkscape.org/namespaces/inkscape"
   width="2000"
   height="2048"
   id="svg2992"
   version="1.1"
   inkscape:version="0.91 r13725"
   sodipodi:docname="പ്ര.svg">
  <defs
     id="defs5498">
    <inkscape:path-effect
       effect="spiro"
       id="path-effect4177"
       is_visible="true" />
    <inkscape:path-effect
       effect="spiro"
       id="path-effect4222"
       is_visible="true" />
    <inkscape:path-effect
       effect="spiro"
       id="path-effect4199"
       is_visible="true" />
    <inkscape:path-effect
       effect="spiro"
       id="path-effect4195"
       is_visible="true" />
    <inkscape:path-effect
       effect="spiro"
       id="path-effect4191"
       is_visible="true" />
    <inkscape:path-effect
       effect="spiro"
       id="path-effect3782"
       is_visible="true" />
    <inkscape:path-effect
       effect="spiro"
       id="path-effect3846"
       is_visible="true" />
    <inkscape:path-effect
       effect="spiro"
       id="path-effect3801"
       is_visible="true" />
    <inkscape:path-effect
       is_visible="true"
       id="path-effect4222-4"
       effect="spiro" />
    <inkscape:path-effect
       is_visible="true"
       id="path-effect4199-9"
       effect="spiro" />
    <inkscape:path-effect
       is_visible="true"
       id="path-effect4195-8"
       effect="spiro" />
    <inkscape:path-effect
       is_visible="true"
       id="path-effect4191-3"
       effect="spiro" />
    <inkscape:path-effect
       is_visible="true"
       id="path-effect3782-9"
       effect="spiro" />
    <inkscape:path-effect
       is_visible="true"
       id="path-effect3846-1"
       effect="spiro" />
    <inkscape:path-effect
       is_visible="true"
       id="path-effect3801-3"
       effect="spiro" />
    <inkscape:path-effect
       is_visible="true"
       id="path-effect4148"
       effect="spiro" />
    <inkscape:path-effect
       is_visible="true"
       id="path-effect4141-5"
       effect="spiro" />
    <inkscape:path-effect
       is_visible="true"
       id="path-effect4141-5-7"
       effect="spiro" />
    <inkscape:path-effect
       is_visible="true"
       id="path-effect4141-5-7-7"
       effect="spiro" />
    <inkscape:path-effect
       is_visible="true"
       id="path-effect4141-5-7-7-0"
       effect="spiro" />
    <inkscape:path-effect
       effect="spiro"
       id="path-effect4177-7"
       is_visible="true" />
    <inkscape:path-effect
       effect="spiro"
       id="path-effect4141-5-7-7-1-9"
       is_visible="true" />
    <inkscape:path-effect
       effect="spiro"
       id="path-effect4177-7-9"
       is_visible="true" />
    <inkscape:path-effect
       effect="spiro"
       id="path-effect4141-5-7-7-1-9-1"
       is_visible="true" />
    <inkscape:path-effect
       effect="spiro"
       id="path-effect4141-5-7-7-1-9-1-9"
       is_visible="true" />
    <inkscape:path-effect
       effect="spiro"
       id="path-effect4177-7-9-7"
       is_visible="true" />
    <inkscape:path-effect
       effect="spiro"
       id="path-effect4141-5-7-7-1-9-9"
       is_visible="true" />
    <inkscape:path-effect
       effect="spiro"
       id="path-effect4177-7-9-7-3"
       is_visible="true" />
    <inkscape:path-effect
       effect="spiro"
       id="path-effect4141-5-7-7-1-9-9-4"
       is_visible="true" />
    <inkscape:path-effect
       effect="spiro"
       id="path-effect4141-5-7-7-1-9-2"
       is_visible="true" />
    <inkscape:path-effect
       effect="spiro"
       id="path-effect4177-7-9-7-2"
       is_visible="true" />
    <inkscape:path-effect
       effect="spiro"
       id="path-effect4141-5-7-7-1-9-2-7"
       is_visible="true" />
    <inkscape:path-effect
       effect="spiro"
       id="path-effect4141-5-7-7-1-9-2-9"
       is_visible="true" />
    <inkscape:path-effect
       effect="spiro"
       id="path-effect4177-7-9-7-7"
       is_visible="true" />
    <inkscape:path-effect
       effect="spiro"
       id="path-effect4141-5-7-7-1-9-2-9-7"
       is_visible="true" />
    <inkscape:path-effect
       effect="spiro"
       id="path-effect4177-7-9-7-7-6"
       is_visible="true" />
    <inkscape:path-effect
       effect="spiro"
       id="path-effect4177-7-9-7-1"
       is_visible="true" />
    <inkscape:path-effect
       effect="spiro"
       id="path-effect4141-5-7-7-1-9-2-0"
       is_visible="true" />
  </defs>
  <sodipodi:namedview
     inkscape:window-height="871"
     inkscape:window-width="1600"
     inkscape:pageshadow="2"
     inkscape:pageopacity="0.0"
     borderopacity="1.0"
     bordercolor="#666666"
     pagecolor="#ffffff"
     id="base"
     showgrid="true"
     showguides="true"
     inkscape:guide-bbox="true"
     inkscape:zoom="0.25"
     inkscape:cx="6352.6229"
     inkscape:cy="817.29631"
     inkscape:window-x="1600"
     inkscape:window-y="0"
     inkscape:current-layer="layer1-6"
     inkscape:window-maximized="1">
    <inkscape:grid
       type="xygrid"
       id="grid3769"
       empspacing="3"
       visible="true"
       enabled="true"
       snapvisiblegridlinesonly="true"
       spacingx="4px"
       units="px"
       dotted="true"
       spacingy="4px" />
    <sodipodi:guide
       orientation="0,1"
       position="-1040,1600"
       id="guide2985" />
    <sodipodi:guide
       orientation="0,1"
       position="-1440,600"
       id="guide4170"
       inkscape:label=""
       inkscape:color="rgb(0,0,255)" />
    <sodipodi:guide
       position="6432,1710"
       orientation="0,1"
       id="guide4203"
       inkscape:label=""
       inkscape:color="rgb(0,0,255)" />
  </sodipodi:namedview>
  <metadata
     id="metadata5594">
    <rdf:RDF>
      <cc:Work
         rdf:about="">
        <dc:format>image/svg+xml</dc:format>
        <dc:type
           rdf:resource="http://purl.org/dc/dcmitype/StillImage" />
        <dc:title />
      </cc:Work>
    </rdf:RDF>
  </metadata>
  <g
     inkscape:label="Layer 1"
     inkscape:groupmode="layer"
     id="layer1"
     transform="translate(0,1048)">
    <g
       id="layer1-6"
       inkscape:label="Layer 1"
       transform="translate(-2994.9781,-585.51819)">
      <path
         style="fill:none;fill-rule:evenodd;stroke:#000000;stroke-width:140;stroke-linecap:round;stroke-linejoin:round;stroke-miterlimit:4;stroke-dasharray:none;stroke-opacity:1"
         d="m 4800.9781,933.5182 4,84 c 2.4279,50.9852 3.2925,103.0053 -11.4206,151.8819 -14.713,48.8765 -44.7444,93.0775 -85.2169,124.18 -40.4726,31.1025 -89.9436,48.947 -140.2634,57.5087 -50.3199,8.5617 -101.6472,8.6379 -152.6898,8.8434 l -464.4131,1.8696 c -104.7781,0.4218 -210.8215,-2.519 -311.6453,-31.0354 C 3538.5051,1302.25 3444.6803,1249.8105 3366.9781,1179.5182 3205.5187,1033.4561 3116.1304,811.22956 3131.4789,594.04829 3146.8274,376.86703 3266.5813,169.42086 3446.9781,47.5182"
         id="path4175-7-9-3"
         inkscape:path-effect="#path-effect4177-7-9-7"
         inkscape:original-d="m 4800.9781,933.5182 4,84 c 7.4182,155.7821 -276.4344,341.9585 -389.5907,342.414 l -464.4131,1.8696 c -227.5297,0.916 -469.0441,-13.842 -583.9962,-182.2836 -213.2296,-312.44952 -16,-1132 80,-1132"
         inkscape:connector-curvature="0"
         sodipodi:nodetypes="csssac" />
      <path
         style="fill:none;fill-rule:evenodd;stroke:#000000;stroke-width:140;stroke-linecap:round;stroke-linejoin:round;stroke-miterlimit:4;stroke-dasharray:none;stroke-opacity:1"
         d="m 3657.3112,947.33348 c -62.6001,-22.79171 -116.7182,-68.13404 -150.1193,-125.77601 -33.4011,-57.64197 -45.8293,-127.14187 -34.4748,-192.78718 11.3545,-65.64531 46.4047,-126.93299 97.2264,-170.00714 50.8218,-43.07415 117.0256,-67.6047 183.6442,-68.04578 65.3205,-0.43248 130.5626,22.26645 181.5084,63.15013 50.9458,40.88368 87.2342,99.66228 100.957,163.52649 13.7228,63.8642 4.7827,132.36125 -24.8719,190.56394 -29.6547,58.20269 -79.8137,105.69841 -139.5462,132.13665 l 928.1056,4.6887 -1.5249,-874.788517"
         id="path4139-0-3-8-6-5"
         inkscape:path-effect="#path-effect4141-5-7-7-1-9-2"
         inkscape:original-d="m 3657.3112,947.33348 c -184.2376,-178.44 -91.9789,-552.81435 96.2765,-556.61611 187.2674,-3.7818 392.2874,266.39542 118.0473,549.37721 l 928.1056,4.6887 -1.5249,-874.788517"
         inkscape:connector-curvature="0"
         sodipodi:nodetypes="caccc" />
      <path
         style="color:#000000;font-style:normal;font-variant:normal;font-weight:normal;font-stretch:normal;font-size:medium;line-height:normal;font-family:sans-serif;text-indent:0;text-align:start;text-decoration:none;text-decoration-line:none;text-decoration-style:solid;text-decoration-color:#000000;letter-spacing:normal;word-spacing:normal;text-transform:none;direction:ltr;block-progression:tb;writing-mode:lr-tb;baseline-shift:baseline;text-anchor:start;white-space:normal;clip-rule:nonzero;display:inline;overflow:visible;visibility:visible;opacity:1;isolation:auto;mix-blend-mode:normal;color-interpolation:sRGB;color-interpolation-filters:linearRGB;solid-color:#000000;solid-opacity:1;fill:#000000;fill-opacity:1;fill-rule:evenodd;stroke:none;stroke-width:140;stroke-linecap:round;stroke-linejoin:round;stroke-miterlimit:4;stroke-dasharray:none;stroke-dashoffset:0;stroke-opacity:1;color-rendering:auto;image-rendering:auto;shape-rendering:auto;text-rendering:auto;enable-background:accumulate"
         d="M 446.12305 2203.4922 A 70.007 70.007 0 0 0 408.80664 2216.002 C 209.79234 2350.4854 79.606428 2576.0006 62.673828 2815.5957 C 45.741328 3055.1907 142.91656 3296.776 321.03906 3457.9121 C 406.68646 3535.3919 509.79293 3593.0698 621.29883 3624.6074 C 733.27863 3656.2791 845.99934 3658.711 952.27734 3658.2832 L 1416.6914 3656.4141 C 1467.6148 3656.2091 1522.8279 3656.451 1580.8398 3646.5801 C 1639.536 3636.5931 1699.9475 3615.5799 1752.0156 3575.5664 C 1804.6293 3535.1336 1842.6737 3478.9583 1861.6074 3416.0605 C 1880.4903 3353.3319 1878.4179 3293.128 1875.9199 3240.6719 L 1871.9199 3156.6719 A 70.007 70.007 0 0 0 1870.7188 3146.373 L 1869.2363 2296.3555 A 70.007 70.007 0 0 0 1798.0586 2225.4902 A 70.007 70.007 0 0 0 1729.2363 2296.5996 L 1730.6387 3100.9102 L 1056.4805 3097.5039 C 1062.9998 3087.4025 1069.0852 3076.992 1074.5742 3066.2188 C 1111.7306 2993.2924 1122.706 2909.19 1105.5117 2829.1699 C 1088.3174 2749.1498 1043.7633 2676.982 979.92969 2625.7559 C 916.09599 2574.5298 835.99118 2546.6592 754.14648 2547.2012 C 670.65228 2547.754 589.40088 2577.8601 525.70508 2631.8457 C 462.00938 2685.8312 418.99447 2761.048 404.76367 2843.3223 C 390.53287 2925.5967 405.78438 3010.8912 447.64648 3083.1348 C 489.50868 3155.3786 555.92697 3211.0266 634.38477 3239.5918 A 70.007 70.007 0 1 0 682.28125 3108.0391 C 635.53875 3091.021 593.7193 3055.9837 568.7793 3012.9434 C 543.8393 2969.9031 534.23654 2916.1998 542.71484 2867.1836 C 551.19304 2818.1673 578.27701 2770.8091 616.22461 2738.6465 C 654.17241 2706.4837 705.32917 2687.5267 755.07227 2687.1973 C 803.86857 2686.8743 854.24864 2704.4022 892.30664 2734.9434 C 930.36454 2765.4847 958.38542 2810.8737 968.63672 2858.582 C 978.88802 2906.2903 971.98493 2959.183 949.83203 3002.6621 C 927.67913 3046.1411 888.94602 3082.8163 844.32422 3102.5664 A 70.007 70.007 0 0 0 872.30273 3236.5762 L 1735.7734 3240.9395 L 1736.0781 3247.3301 C 1738.436 3296.8443 1738.0941 3340.6805 1727.5508 3375.7051 C 1717.0585 3410.5603 1695.0404 3442.7864 1666.709 3464.5586 C 1637.8319 3486.7501 1599.3008 3501.426 1557.3574 3508.5625 C 1514.7295 3515.8154 1467.2888 3516.21 1416.127 3516.416 L 951.71484 3518.2852 C 848.43654 3518.701 749.07014 3515.2517 659.40234 3489.8906 C 569.26044 3464.3955 484.71598 3417.1946 414.95898 3354.0898 C 270.16268 3223.1018 188.56167 3020.2324 202.32617 2825.4648 C 216.09067 2630.6973 325.41396 2441.322 487.19336 2332 A 70.007 70.007 0 0 0 446.12305 2203.4922 z "
         transform="translate(2994.9781,-462.48181)"
         id="path4175-7-9-3-1" />
      <path
         style="fill:none;fill-rule:evenodd;stroke:#000000;stroke-width:69.99999237;stroke-linecap:round;stroke-linejoin:round;stroke-miterlimit:4;stroke-dasharray:none;stroke-opacity:1"
         d="m 8047.237,962.49599 4.3722,91.90051 c 2.5331,53.2441 2.817,107.901 -15.3988,157.9963 -18.2157,50.0954 -54.1058,93.2892 -99.4072,121.3808 -45.3013,28.0916 -98.3257,41.5611 -151.2949,47.5294 -52.9691,5.9684 -106.4273,5.498 -159.7312,5.7128 l -507.6146,2.0455 c -111.696,0.4501 -224.2383,-1.1531 -333.4982,-24.3579 -109.2599,-23.2049 -214.5317,-67.3166 -304.8238,-133.0702 -99.8181,-72.6907 -180.7581,-171.0785 -232.8439,-283.0368 -52.0858,-111.95833 -75.2051,-237.24569 -66.5083,-360.42023 8.6967,-123.17453 49.1907,-243.97048 116.491,-347.49957 67.3002,-103.52908 161.2616,-189.567931 270.3032,-247.5121258"
         id="path4175-7-9-3-8"
         inkscape:path-effect="#path-effect4177-7-9-7-7"
         inkscape:original-d="m 8047.237,962.49599 4.3722,91.90051 c 8.1082,170.434 -302.1495,332.1209 -425.8321,332.6193 l -507.6146,2.0455 c -248.6955,1.0022 -509.3435,19.7471 -638.322,-157.4281 -243.568,-334.58473 -17.4883,-1238.4687258 87.442,-1238.4687258"
         inkscape:connector-curvature="0"
         sodipodi:nodetypes="csssac" />
      <path
         style="fill:none;fill-rule:evenodd;stroke:#000000;stroke-width:69.99999237;stroke-linecap:round;stroke-linejoin:round;stroke-miterlimit:4;stroke-dasharray:none;stroke-opacity:1"
         d="m 6797.1816,977.61065 c -68.5038,-24.91145 -127.7347,-74.50458 -164.2978,-137.56401 -36.5632,-63.05943 -50.1781,-139.10162 -37.7658,-210.92981 12.4122,-71.82819 50.7565,-138.8916 106.3612,-186.02398 55.6048,-47.13239 128.0437,-73.97235 200.9349,-74.45009 71.4659,-0.4684 142.8443,24.37334 198.5773,69.11064 55.733,44.7373 95.4254,109.05289 110.4258,178.92838 15.0003,69.87549 5.2023,144.81534 -27.2587,208.48546 -32.4609,63.67012 -87.3544,115.61898 -152.7158,144.52367 l 1014.4417,5.12968 -1.6667,-957.065554"
         id="path4139-0-3-8-6-5-7"
         inkscape:path-effect="#path-effect4141-5-7-7-1-9-2-9"
         inkscape:original-d="m 6797.1816,977.61065 c -201.3761,-195.22293 -100.5351,-604.80856 105.2325,-608.96789 204.6878,-4.13749 428.7796,291.45088 129.0286,601.04815 l 1014.4417,5.12968 -1.6667,-957.065554"
         inkscape:connector-curvature="0"
         sodipodi:nodetypes="caccc" />
      <path
         style="color:#000000;font-style:normal;font-variant:normal;font-weight:normal;font-stretch:normal;font-size:medium;line-height:normal;font-family:sans-serif;text-indent:0;text-align:start;text-decoration:none;text-decoration-line:none;text-decoration-style:solid;text-decoration-color:#000000;letter-spacing:normal;word-spacing:normal;text-transform:none;direction:ltr;block-progression:tb;writing-mode:lr-tb;baseline-shift:baseline;text-anchor:start;white-space:normal;clip-rule:nonzero;display:inline;overflow:visible;visibility:visible;opacity:1;isolation:auto;mix-blend-mode:normal;color-interpolation:sRGB;color-interpolation-filters:linearRGB;solid-color:#000000;solid-opacity:1;fill:#000000;fill-opacity:1;fill-rule:evenodd;stroke:none;stroke-width:69.99999237;stroke-linecap:round;stroke-linejoin:round;stroke-miterlimit:4;stroke-dasharray:none;stroke-dashoffset:0;stroke-opacity:1;color-rendering:auto;image-rendering:auto;shape-rendering:auto;text-rendering:auto;enable-background:accumulate"
         d="M 4051.5957 3012.4297 A 35.003496 35.003496 0 0 0 4035.8809 3016.7402 C 3921.5186 3077.5118 3823.2403 3167.5032 3752.6562 3276.084 C 3682.072 3384.6647 3639.7187 3511.0087 3630.5977 3640.1934 C 3621.4765 3769.3782 3645.6559 3900.4205 3700.2832 4017.8418 C 3754.9105 4135.2631 3839.5691 4238.1706 3944.2578 4314.4082 C 4038.9933 4383.3976 4148.806 4429.2935 4262.4141 4453.4219 C 4376.1311 4477.5733 4491.1986 4478.9949 4603.3242 4478.543 L 5110.9395 4476.498 C 5163.9432 4476.2844 5218.6731 4476.8492 5274.4492 4470.5645 C 5330.6581 4464.2312 5388.8311 4449.8993 5440.2695 4418.002 C 5492.1908 4385.8054 5533.0718 4336.7348 5554.125 4278.8359 C 5575.1748 4220.947 5574.173 4161.4706 5571.5918 4107.2148 L 5567.2188 4015.3145 A 35.003496 35.003496 0 0 0 5565.8672 4006.9121 L 5564.2383 3072.1758 A 35.003496 35.003496 0 0 0 5528.6504 3036.7441 A 35.003496 35.003496 0 0 0 5494.2383 3072.2988 L 5495.8457 3994.125 L 4629.9258 3989.7461 C 4658.4185 3962.637 4682.3981 3930.7806 4700.3613 3895.5469 C 4736.5754 3824.5152 4747.393 3741.773 4730.6582 3663.8184 C 4713.9235 3585.8639 4670.0988 3514.8512 4607.9219 3464.9414 C 4545.745 3415.0315 4466.9359 3387.6045 4387.207 3388.127 C 4305.8766 3388.66 4225.9116 3418.2877 4163.8691 3470.877 C 4101.8264 3523.4664 4059.4997 3597.4944 4045.6504 3677.6387 C 4031.801 3757.7831 4046.8306 3841.7255 4087.627 3912.0859 C 4128.4233 3982.4463 4193.8071 4037.1906 4270.2422 4064.9863 A 35.003496 35.003496 0 1 0 4294.1641 3999.2012 C 4233.5916 3977.1739 4180.5135 3932.7312 4148.1836 3876.9727 C 4115.8538 3821.2143 4103.6537 3753.0706 4114.6289 3689.5586 C 4125.604 3626.0467 4159.9639 3565.9489 4209.1309 3524.2734 C 4258.2977 3482.598 4323.2122 3458.5474 4387.6641 3458.125 C 4450.8671 3457.7107 4514.8144 3479.9645 4564.1035 3519.5293 C 4613.3926 3559.094 4648.9526 3616.7134 4662.2188 3678.5098 C 4675.4847 3740.3063 4666.7057 3807.4435 4637.998 3863.752 C 4609.2901 3920.0607 4560.1129 3966.6014 4502.3086 3992.1641 A 35.003496 35.003496 0 0 0 4516.2871 4059.1738 L 5499.4629 4064.1445 L 5501.6699 4110.543 C 5504.1549 4162.7755 5503.7216 4212.6125 5488.3398 4254.9141 C 5472.9616 4297.206 5442.0604 4334.5251 5403.3789 4358.5117 C 5364.2148 4382.7976 5316.3408 4395.4027 5266.6113 4401.0059 C 5216.4492 4406.6581 5164.2623 4406.282 5110.6582 4406.498 L 4603.043 4408.5449 C 4491.7766 4408.9933 4381.7598 4407.2074 4276.957 4384.9492 C 4172.0454 4362.6678 4071.3135 4320.3401 3985.4648 4257.8223 C 3890.5173 4188.6786 3813.2963 4094.8099 3763.752 3988.3145 C 3714.2077 3881.8192 3692.1514 3762.2872 3700.4238 3645.123 C 3708.6962 3527.9588 3747.3293 3412.7118 3811.3457 3314.2344 C 3875.362 3215.7569 3965.0076 3133.6715 4068.7285 3078.5547 A 35.003496 35.003496 0 0 0 4051.5957 3012.4297 z "
         transform="translate(2994.9781,-462.48181)"
         id="path4175-7-9-3-8-2" />
      <path
         style="color:#000000;font-style:normal;font-variant:normal;font-weight:normal;font-stretch:normal;font-size:medium;line-height:normal;font-family:sans-serif;text-indent:0;text-align:start;text-decoration:none;text-decoration-line:none;text-decoration-style:solid;text-decoration-color:#000000;letter-spacing:normal;word-spacing:normal;text-transform:none;direction:ltr;block-progression:tb;writing-mode:lr-tb;baseline-shift:baseline;text-anchor:start;white-space:normal;clip-rule:nonzero;display:inline;overflow:visible;visibility:visible;opacity:1;isolation:auto;mix-blend-mode:normal;color-interpolation:sRGB;color-interpolation-filters:linearRGB;solid-color:#000000;solid-opacity:1;fill:#000000;fill-opacity:1;fill-rule:evenodd;stroke:none;stroke-width:200;stroke-linecap:round;stroke-linejoin:round;stroke-miterlimit:4;stroke-dasharray:none;stroke-dashoffset:0;stroke-opacity:1;color-rendering:auto;image-rendering:auto;shape-rendering:auto;text-rendering:auto;enable-background:accumulate"
         d="M 6216.166 334.64453 A 100.01 100.01 0 0 0 6162.8535 352.50195 C 5952.5185 494.55811 5815.7534 731.73666 5798.1699 984.93945 C 5780.5863 1238.1422 5883.2546 1491.9453 6071.9355 1661.7109 C 6161.0219 1741.8665 6267.9102 1801.8045 6383.9512 1834.7129 C 6500.6919 1867.8196 6616.284 1870.0869 6723.2207 1869.6562 L 7187.6348 1867.7871 C 7238.5078 1867.5823 7295.3863 1867.9587 7356.6953 1857.5273 C 7418.9813 1846.9298 7484.0802 1824.5588 7541.1172 1780.7266 C 7598.9352 1736.2949 7640.4132 1674.9866 7661.1562 1606.0801 C 7681.8252 1537.4157 7679.237 1473.7048 7676.709 1420.6172 L 7672.709 1336.6172 A 100.01 100.01 0 0 0 7671.5371 1324.8379 L 7670.0586 437.68359 A 100.01 100.01 0 0 0 7568.3848 336.43945 A 100.01 100.01 0 0 0 7470.0605 438.01562 L 7471.416 1252.1309 L 6877.957 1249.1328 C 6913.562 1172.8192 6923.4072 1086.8053 6905.666 1004.2402 C 6886.984 917.29623 6838.8843 839.38902 6769.5273 783.73047 C 6700.1702 728.07189 6613.6961 697.98544 6524.7695 698.57422 C 6434.0429 699.17492 6346.344 731.67022 6277.1309 790.33203 C 6207.9178 848.9939 6161.4868 930.1809 6146.0234 1019.582 C 6130.5599 1108.9832 6147.0234 1201.0473 6192.5117 1279.5488 C 6238.0001 1358.0504 6309.6895 1418.1147 6394.9434 1449.1543 A 100.01 100.01 0 1 0 6463.3672 1261.2227 C 6423.4209 1246.6788 6386.8725 1216.0578 6365.5586 1179.2754 C 6344.2447 1142.4929 6335.8522 1095.5575 6343.0977 1053.668 C 6350.3432 1011.7785 6374.0131 970.39073 6406.4434 942.9043 C 6438.8738 915.4178 6483.5832 898.85177 6526.0938 898.57031 C 6567.8082 898.29412 6611.817 913.60606 6644.3516 939.71484 C 6676.8862 965.82365 6701.3654 1005.4734 6710.1289 1046.2578 C 6718.8925 1087.0422 6712.8617 1133.247 6693.9238 1170.416 C 6674.986 1207.585 6641.1517 1239.6221 6603.0059 1256.5059 A 100.01 100.01 0 0 0 6642.9746 1447.9492 L 7477.7598 1452.166 C 7478.7984 1491.195 7477.0479 1523.841 7469.6465 1548.4297 C 7460.9625 1577.2764 7442.38 1604.3712 7419.252 1622.1445 C 7395.345 1640.5166 7361.5034 1653.8357 7323.1504 1660.3613 C 7283.8184 1667.0534 7238.0431 1667.5809 7186.8301 1667.7871 L 6722.418 1669.6582 C 6619.8269 1670.0712 6523.359 1666.3606 6438.5195 1642.3008 C 6352.9803 1618.0425 6272.3859 1573.0261 6205.7109 1513.0352 C 6064.8397 1386.2872 5984.5615 1187.8375 5997.6895 998.79492 C 6010.8174 809.75235 6117.7537 624.30406 6274.791 518.24414 A 100.01 100.01 0 0 0 6216.166 334.64453 z "
         transform="translate(2994.9781,-462.48181)"
         id="path4175-7-9-3-5" />
    </g>
  </g>
</svg>
