<?xml version="1.0" encoding="UTF-8" standalone="no"?>
<!-- Created with Inkscape (http://www.inkscape.org/) -->

<svg
   xmlns:dc="http://purl.org/dc/elements/1.1/"
   xmlns:cc="http://creativecommons.org/ns#"
   xmlns:rdf="http://www.w3.org/1999/02/22-rdf-syntax-ns#"
   xmlns:svg="http://www.w3.org/2000/svg"
   xmlns="http://www.w3.org/2000/svg"
   xmlns:sodipodi="http://sodipodi.sourceforge.net/DTD/sodipodi-0.dtd"
   xmlns:inkscape="http://www.inkscape.org/namespaces/inkscape"
   width="2000"
   height="2048"
   id="svg2992"
   version="1.1"
   inkscape:version="0.91pre3 r13670"
   sodipodi:docname="പ്പ.svg">
  <defs
     id="defs5498">
    <inkscape:path-effect
       effect="spiro"
       id="path-effect4183"
       is_visible="true" />
    <inkscape:path-effect
       effect="spiro"
       id="path-effect4222"
       is_visible="true" />
    <inkscape:path-effect
       effect="spiro"
       id="path-effect4199"
       is_visible="true" />
    <inkscape:path-effect
       effect="spiro"
       id="path-effect4195"
       is_visible="true" />
    <inkscape:path-effect
       effect="spiro"
       id="path-effect4191"
       is_visible="true" />
    <inkscape:path-effect
       effect="spiro"
       id="path-effect3782"
       is_visible="true" />
    <inkscape:path-effect
       effect="spiro"
       id="path-effect3846"
       is_visible="true" />
    <inkscape:path-effect
       effect="spiro"
       id="path-effect3801"
       is_visible="true" />
    <inkscape:path-effect
       is_visible="true"
       id="path-effect4148"
       effect="spiro" />
    <inkscape:path-effect
       is_visible="true"
       id="path-effect4141-5"
       effect="spiro" />
    <inkscape:path-effect
       is_visible="true"
       id="path-effect4141-5-7"
       effect="spiro" />
    <inkscape:path-effect
       is_visible="true"
       id="path-effect4141-5-7-7"
       effect="spiro" />
    <inkscape:path-effect
       is_visible="true"
       id="path-effect4141-5-7-7-9"
       effect="spiro" />
    <inkscape:path-effect
       is_visible="true"
       id="path-effect4141-5-7-7-1"
       effect="spiro" />
    <inkscape:path-effect
       is_visible="true"
       id="path-effect4141-5-7-7-9-4"
       effect="spiro" />
    <inkscape:path-effect
       is_visible="true"
       id="path-effect4141-5-7-7-1-8"
       effect="spiro" />
    <inkscape:path-effect
       is_visible="true"
       id="path-effect4141-5-7-7-1-2"
       effect="spiro" />
    <inkscape:path-effect
       is_visible="true"
       id="path-effect4141-5-7-7-1-8-2"
       effect="spiro" />
    <inkscape:path-effect
       is_visible="true"
       id="path-effect4148-6"
       effect="spiro" />
    <inkscape:path-effect
       is_visible="true"
       id="path-effect4141-5-6"
       effect="spiro" />
    <inkscape:path-effect
       is_visible="true"
       id="path-effect4141-5-7-5"
       effect="spiro" />
    <inkscape:path-effect
       is_visible="true"
       id="path-effect4141-5-7-7-91"
       effect="spiro" />
    <inkscape:path-effect
       is_visible="true"
       id="path-effect4141-5-7-7-1-1"
       effect="spiro" />
    <inkscape:path-effect
       is_visible="true"
       id="path-effect4141-5-7-7-1-1-1"
       effect="spiro" />
    <inkscape:path-effect
       effect="spiro"
       id="path-effect4183-9"
       is_visible="true" />
    <inkscape:path-effect
       effect="spiro"
       id="path-effect4141-5-7-7-1-9"
       is_visible="true" />
    <inkscape:path-effect
       effect="spiro"
       id="path-effect4183-9-7"
       is_visible="true" />
    <inkscape:path-effect
       effect="spiro"
       id="path-effect4141-5-7-7-1-9-0"
       is_visible="true" />
    <inkscape:path-effect
       effect="spiro"
       id="path-effect4141-5-7-7-1-9-6"
       is_visible="true" />
    <inkscape:path-effect
       effect="spiro"
       id="path-effect4141-5-7-7-1-9-6-6"
       is_visible="true" />
    <inkscape:path-effect
       effect="spiro"
       id="path-effect4183-9-7-8"
       is_visible="true" />
  </defs>
  <sodipodi:namedview
     inkscape:window-height="851"
     inkscape:window-width="1600"
     inkscape:pageshadow="2"
     inkscape:pageopacity="0.0"
     borderopacity="1.0"
     bordercolor="#666666"
     pagecolor="#ffffff"
     id="base"
     showgrid="true"
     showguides="true"
     inkscape:guide-bbox="true"
     inkscape:zoom="0.25"
     inkscape:cx="1182.6361"
     inkscape:cy="882.6955"
     inkscape:window-x="1599"
     inkscape:window-y="-1"
     inkscape:current-layer="layer1-41"
     inkscape:window-maximized="1">
    <sodipodi:guide
       orientation="horizontal"
       position="0,600"
       id="guide5596" />
    <inkscape:grid
       type="xygrid"
       id="grid3769"
       empspacing="3"
       visible="true"
       enabled="true"
       snapvisiblegridlinesonly="true"
       spacingx="4px"
       units="px"
       dotted="true"
       spacingy="4px" />
    <sodipodi:guide
       orientation="0,1"
       position="-1040,1600"
       id="guide2985" />
  </sodipodi:namedview>
  <metadata
     id="metadata5594">
    <rdf:RDF>
      <cc:Work
         rdf:about="">
        <dc:format>image/svg+xml</dc:format>
        <dc:type
           rdf:resource="http://purl.org/dc/dcmitype/StillImage" />
        <dc:title />
      </cc:Work>
    </rdf:RDF>
  </metadata>
  <g
     inkscape:label="Layer 1"
     inkscape:groupmode="layer"
     id="layer1"
     transform="translate(0,1048)">
    <g
       id="layer1-4"
       inkscape:label="Layer 1"
       transform="translate(-2190.9781,-1117.5182)">
      <g
         transform="translate(1483.3952,-66.97822)"
         id="layer1-41"
         inkscape:label="Layer 1">
        <path
           style="fill:none;fill-rule:evenodd;stroke:#000000;stroke-width:140;stroke-linecap:round;stroke-linejoin:round;stroke-miterlimit:4;stroke-dasharray:none;stroke-opacity:1"
           d="m 1165.5829,804.4965 c 87.0277,-72.99071 210.0962,-100.68112 320,-72 77.4343,20.20769 145.5538,65.57491 211.3931,111.06785 65.8393,45.49293 132.384,92.54981 208.6069,116.93215 111.5082,35.66948 238.9396,17.46499 336,-48"
           id="path4181-2-6"
           inkscape:path-effect="#path-effect4183-9-7"
           inkscape:original-d="m 1165.5829,804.4965 c 0,0 211.7063,-87.04169 320,-72 157.7837,21.91571 263.2107,199.83783 420,228 111.355,20.00136 336,-48 336,-48"
           inkscape:connector-curvature="0"
           sodipodi:nodetypes="caac" />
        <path
           style="fill:none;fill-rule:evenodd;stroke:#000000;stroke-width:140;stroke-linecap:round;stroke-linejoin:round;stroke-miterlimit:4;stroke-dasharray:none;stroke-opacity:1"
           d="m 1054.6374,1530.7397 c -62.60007,-22.7917 -116.71816,-68.134 -150.11928,-125.776 -33.40112,-57.6419 -45.82932,-127.1418 -34.47482,-192.7871 11.35449,-65.6453 46.40466,-126.933 97.22638,-170.0072 50.82172,-43.07414 117.02552,-67.6047 183.64412,-68.0458 65.3205,-0.43251 130.5626,22.26641 181.5084,63.1501 50.9458,40.8837 87.2342,99.6623 100.9571,163.5265 13.7228,63.8642 4.7827,132.3612 -24.8719,190.5639 -29.6547,58.2027 -79.8137,105.6985 -139.5462,132.1367 l 985.2193,-1.3113 -1.5249,-870.7885"
           id="path4139-0-3-8-6-5"
           inkscape:path-effect="#path-effect4141-5-7-7-1-9-6"
           inkscape:original-d="m 1054.6374,1530.7397 c -184.2376,-178.44 -91.9789,-552.8143 96.2764,-556.6161 187.2674,-3.7818 392.2874,266.3954 118.0474,549.3772 l 985.2193,-1.3113 -1.5249,-870.7885"
           inkscape:connector-curvature="0"
           sodipodi:nodetypes="caccc" />
        <path
           style="color:#000000;font-style:normal;font-variant:normal;font-weight:normal;font-stretch:normal;font-size:medium;line-height:normal;font-family:sans-serif;text-indent:0;text-align:start;text-decoration:none;text-decoration-line:none;text-decoration-style:solid;text-decoration-color:#000000;letter-spacing:normal;word-spacing:normal;text-transform:none;direction:ltr;block-progression:tb;writing-mode:lr-tb;baseline-shift:baseline;text-anchor:start;white-space:normal;clip-rule:nonzero;display:inline;overflow:visible;visibility:visible;opacity:1;isolation:auto;mix-blend-mode:normal;color-interpolation:sRGB;color-interpolation-filters:linearRGB;solid-color:#000000;solid-opacity:1;fill:#000000;fill-opacity:1;fill-rule:evenodd;stroke:none;stroke-width:140;stroke-linecap:round;stroke-linejoin:round;stroke-miterlimit:4;stroke-dasharray:none;stroke-dashoffset:0;stroke-opacity:1;color-rendering:auto;image-rendering:auto;shape-rendering:auto;text-rendering:auto;enable-background:accumulate"
           d="M 1555.8945 1531.918 A 70.007 70.007 0 0 0 1487.0742 1603.0273 L 1487.4492 1817.9707 C 1411.3286 1861.0748 1314.2816 1871.8635 1231.3281 1845.3281 C 1168.7378 1825.3066 1107.4517 1783.2651 1041.1875 1737.4785 C 974.6768 1691.5216 900.17308 1640.4081 807.67578 1616.2695 C 774.44858 1607.5984 740.49733 1603.126 706.61523 1602.6758 C 604.96883 1601.3252 503.95098 1636.1653 425.01758 1702.3672 A 70.007 70.007 0 1 0 514.98438 1809.6348 C 583.79527 1751.9226 685.42757 1729.0549 772.32617 1751.7324 C 834.69747 1768.0092 896.43376 1807.6293 961.60156 1852.6582 C 1027.016 1897.8576 1098.8182 1949.9287 1188.6738 1978.6719 C 1286.4542 2009.95 1392.4608 2006.7398 1487.7188 1971.7637 L 1488.4746 2403.7871 L 757.97266 2404.7578 C 764.20106 2395.0231 770.02148 2385.0005 775.29688 2374.6465 C 812.45318 2301.7202 823.42867 2217.6177 806.23438 2137.5977 C 789.03997 2057.5777 744.48594 1985.4097 680.65234 1934.1836 C 616.81864 1882.9574 536.71384 1855.087 454.86914 1855.6289 C 371.37484 1856.1817 290.12341 1886.288 226.42773 1940.2734 C 162.73203 1994.259 119.7171 2069.4756 105.48633 2151.75 C 91.255538 2234.0244 106.50693 2319.3189 148.36914 2391.5625 C 190.23132 2463.8062 256.64962 2519.4543 335.10742 2548.0195 A 70.007 70.007 0 1 0 383.00391 2416.4668 C 336.26151 2399.4486 294.44197 2364.4114 269.50195 2321.3711 C 244.56192 2278.3309 234.95929 2224.6276 243.4375 2175.6113 C 251.91571 2126.5951 278.99952 2079.237 316.94727 2047.0742 C 354.89507 2014.9115 406.05192 1995.9544 455.79492 1995.625 C 504.59112 1995.3019 554.9714 2012.8298 593.0293 2043.3711 C 631.0873 2073.9124 659.10798 2119.3013 669.35938 2167.0098 C 679.61067 2214.7181 672.70759 2267.6107 650.55469 2311.0898 C 628.40179 2354.569 589.66868 2391.2441 545.04688 2410.9941 A 70.007 70.007 0 0 0 573.47266 2545.0039 L 1558.6914 2543.6934 A 70.007 70.007 0 0 0 1628.5977 2473.5703 L 1627.0742 1602.7832 A 70.007 70.007 0 0 0 1555.8945 1531.918 z "
           transform="translate(707.5829,136.49642)"
           id="path4181-2-6-3" />
      </g>
    </g>
  </g>
</svg>
