<?xml version="1.0" encoding="UTF-8" standalone="no"?>
<!-- Created with Inkscape (http://www.inkscape.org/) -->

<svg
   xmlns:dc="http://purl.org/dc/elements/1.1/"
   xmlns:cc="http://creativecommons.org/ns#"
   xmlns:rdf="http://www.w3.org/1999/02/22-rdf-syntax-ns#"
   xmlns:svg="http://www.w3.org/2000/svg"
   xmlns="http://www.w3.org/2000/svg"
   xmlns:sodipodi="http://sodipodi.sourceforge.net/DTD/sodipodi-0.dtd"
   xmlns:inkscape="http://www.inkscape.org/namespaces/inkscape"
   width="2000"
   height="2048"
   id="svg2992"
   version="1.1"
   inkscape:version="0.91 r13725"
   sodipodi:docname="പ്ര.svg">
  <defs
     id="defs5498">
    <inkscape:path-effect
       effect="spiro"
       id="path-effect4177"
       is_visible="true" />
    <inkscape:path-effect
       effect="spiro"
       id="path-effect4222"
       is_visible="true" />
    <inkscape:path-effect
       effect="spiro"
       id="path-effect4199"
       is_visible="true" />
    <inkscape:path-effect
       effect="spiro"
       id="path-effect4195"
       is_visible="true" />
    <inkscape:path-effect
       effect="spiro"
       id="path-effect4191"
       is_visible="true" />
    <inkscape:path-effect
       effect="spiro"
       id="path-effect3782"
       is_visible="true" />
    <inkscape:path-effect
       effect="spiro"
       id="path-effect3846"
       is_visible="true" />
    <inkscape:path-effect
       effect="spiro"
       id="path-effect3801"
       is_visible="true" />
    <inkscape:path-effect
       is_visible="true"
       id="path-effect4222-4"
       effect="spiro" />
    <inkscape:path-effect
       is_visible="true"
       id="path-effect4199-9"
       effect="spiro" />
    <inkscape:path-effect
       is_visible="true"
       id="path-effect4195-8"
       effect="spiro" />
    <inkscape:path-effect
       is_visible="true"
       id="path-effect4191-3"
       effect="spiro" />
    <inkscape:path-effect
       is_visible="true"
       id="path-effect3782-9"
       effect="spiro" />
    <inkscape:path-effect
       is_visible="true"
       id="path-effect3846-1"
       effect="spiro" />
    <inkscape:path-effect
       is_visible="true"
       id="path-effect3801-3"
       effect="spiro" />
    <inkscape:path-effect
       is_visible="true"
       id="path-effect4148"
       effect="spiro" />
    <inkscape:path-effect
       is_visible="true"
       id="path-effect4141-5"
       effect="spiro" />
    <inkscape:path-effect
       is_visible="true"
       id="path-effect4141-5-7"
       effect="spiro" />
    <inkscape:path-effect
       is_visible="true"
       id="path-effect4141-5-7-7"
       effect="spiro" />
    <inkscape:path-effect
       is_visible="true"
       id="path-effect4141-5-7-7-0"
       effect="spiro" />
    <inkscape:path-effect
       effect="spiro"
       id="path-effect4177-7"
       is_visible="true" />
    <inkscape:path-effect
       effect="spiro"
       id="path-effect4141-5-7-7-1-9"
       is_visible="true" />
    <inkscape:path-effect
       effect="spiro"
       id="path-effect4177-7-9"
       is_visible="true" />
    <inkscape:path-effect
       effect="spiro"
       id="path-effect4141-5-7-7-1-9-1"
       is_visible="true" />
    <inkscape:path-effect
       effect="spiro"
       id="path-effect4141-5-7-7-1-9-1-9"
       is_visible="true" />
    <inkscape:path-effect
       effect="spiro"
       id="path-effect4177-7-9-7"
       is_visible="true" />
    <inkscape:path-effect
       effect="spiro"
       id="path-effect4141-5-7-7-1-9-9"
       is_visible="true" />
    <inkscape:path-effect
       effect="spiro"
       id="path-effect4177-7-9-7-3"
       is_visible="true" />
    <inkscape:path-effect
       effect="spiro"
       id="path-effect4141-5-7-7-1-9-9-4"
       is_visible="true" />
    <inkscape:path-effect
       effect="spiro"
       id="path-effect4141-5-7-7-1-9-2"
       is_visible="true" />
    <inkscape:path-effect
       effect="spiro"
       id="path-effect4177-7-9-7-2"
       is_visible="true" />
    <inkscape:path-effect
       effect="spiro"
       id="path-effect4141-5-7-7-1-9-2-7"
       is_visible="true" />
  </defs>
  <sodipodi:namedview
     inkscape:window-height="851"
     inkscape:window-width="1600"
     inkscape:pageshadow="2"
     inkscape:pageopacity="0.0"
     borderopacity="1.0"
     bordercolor="#666666"
     pagecolor="#ffffff"
     id="base"
     showgrid="true"
     showguides="true"
     inkscape:guide-bbox="true"
     inkscape:zoom="0.25"
     inkscape:cx="1023.5312"
     inkscape:cy="-187.50773"
     inkscape:window-x="1599"
     inkscape:window-y="-1"
     inkscape:current-layer="layer1-6"
     inkscape:window-maximized="1">
    <inkscape:grid
       type="xygrid"
       id="grid3769"
       empspacing="3"
       visible="true"
       enabled="true"
       snapvisiblegridlinesonly="true"
       spacingx="4px"
       units="px"
       dotted="true"
       spacingy="4px" />
    <sodipodi:guide
       orientation="0,1"
       position="-1040,1600"
       id="guide2985" />
    <sodipodi:guide
       orientation="0,1"
       position="-1440,576"
       id="guide4170" />
  </sodipodi:namedview>
  <metadata
     id="metadata5594">
    <rdf:RDF>
      <cc:Work
         rdf:about="">
        <dc:format>image/svg+xml</dc:format>
        <dc:type
           rdf:resource="http://purl.org/dc/dcmitype/StillImage" />
        <dc:title />
      </cc:Work>
    </rdf:RDF>
  </metadata>
  <g
     inkscape:label="Layer 1"
     inkscape:groupmode="layer"
     id="layer1"
     transform="translate(0,1048)">
    <g
       id="layer1-6"
       inkscape:label="Layer 1"
       transform="translate(-2994.9781,-585.51819)">
      <path
         style="fill:none;fill-rule:evenodd;stroke:#000000;stroke-width:140;stroke-linecap:round;stroke-linejoin:round;stroke-miterlimit:4;stroke-dasharray:none;stroke-opacity:1"
         d="m 4800.9781,933.5182 4,84 c 2.4279,50.9852 3.2925,103.0053 -11.4206,151.8819 -14.713,48.8765 -44.7444,93.0775 -85.2169,124.18 -40.4726,31.1025 -89.9436,48.947 -140.2634,57.5087 -50.3199,8.5617 -101.6472,8.6379 -152.6898,8.8434 l -464.4131,1.8696 c -104.7781,0.4218 -210.8215,-2.519 -311.6453,-31.0354 C 3538.5051,1302.25 3444.6803,1249.8105 3366.9781,1179.5182 3205.5187,1033.4561 3116.1304,811.22956 3131.4789,594.04829 3146.8274,376.86703 3266.5813,169.42086 3446.9781,47.5182"
         id="path4175-7-9-3"
         inkscape:path-effect="#path-effect4177-7-9-7"
         inkscape:original-d="m 4800.9781,933.5182 4,84 c 7.4182,155.7821 -276.4344,341.9585 -389.5907,342.414 l -464.4131,1.8696 c -227.5297,0.916 -469.0441,-13.842 -583.9962,-182.2836 -213.2296,-312.44952 -16,-1132 80,-1132"
         inkscape:connector-curvature="0"
         sodipodi:nodetypes="csssac" />
      <path
         style="fill:none;fill-rule:evenodd;stroke:#000000;stroke-width:140;stroke-linecap:round;stroke-linejoin:round;stroke-miterlimit:4;stroke-dasharray:none;stroke-opacity:1"
         d="m 3657.3112,947.33348 c -62.6001,-22.79171 -116.7182,-68.13404 -150.1193,-125.77601 -33.4011,-57.64197 -45.8293,-127.14187 -34.4748,-192.78718 11.3545,-65.64531 46.4047,-126.93299 97.2264,-170.00714 50.8218,-43.07415 117.0256,-67.6047 183.6442,-68.04578 65.3205,-0.43248 130.5626,22.26645 181.5084,63.15013 50.9458,40.88368 87.2342,99.66228 100.957,163.52649 13.7228,63.8642 4.7827,132.36125 -24.8719,190.56394 -29.6547,58.20269 -79.8137,105.69841 -139.5462,132.13665 l 928.1056,4.6887 -1.5249,-874.788517"
         id="path4139-0-3-8-6-5"
         inkscape:path-effect="#path-effect4141-5-7-7-1-9-2"
         inkscape:original-d="m 3657.3112,947.33348 c -184.2376,-178.44 -91.9789,-552.81435 96.2765,-556.61611 187.2674,-3.7818 392.2874,266.39542 118.0473,549.37721 l 928.1056,4.6887 -1.5249,-874.788517"
         inkscape:connector-curvature="0"
         sodipodi:nodetypes="caccc" />
      <path
         style="color:#000000;font-style:normal;font-variant:normal;font-weight:normal;font-stretch:normal;font-size:medium;line-height:normal;font-family:sans-serif;text-indent:0;text-align:start;text-decoration:none;text-decoration-line:none;text-decoration-style:solid;text-decoration-color:#000000;letter-spacing:normal;word-spacing:normal;text-transform:none;direction:ltr;block-progression:tb;writing-mode:lr-tb;baseline-shift:baseline;text-anchor:start;white-space:normal;clip-rule:nonzero;display:inline;overflow:visible;visibility:visible;opacity:1;isolation:auto;mix-blend-mode:normal;color-interpolation:sRGB;color-interpolation-filters:linearRGB;solid-color:#000000;solid-opacity:1;fill:#000000;fill-opacity:1;fill-rule:evenodd;stroke:none;stroke-width:140;stroke-linecap:round;stroke-linejoin:round;stroke-miterlimit:4;stroke-dasharray:none;stroke-dashoffset:0;stroke-opacity:1;color-rendering:auto;image-rendering:auto;shape-rendering:auto;text-rendering:auto;enable-background:accumulate"
         d="M 446.12305 2203.4922 A 70.007 70.007 0 0 0 408.80664 2216.002 C 209.79234 2350.4854 79.606428 2576.0006 62.673828 2815.5957 C 45.741328 3055.1907 142.91656 3296.776 321.03906 3457.9121 C 406.68646 3535.3919 509.79293 3593.0698 621.29883 3624.6074 C 733.27863 3656.2791 845.99934 3658.711 952.27734 3658.2832 L 1416.6914 3656.4141 C 1467.6148 3656.2091 1522.8279 3656.451 1580.8398 3646.5801 C 1639.536 3636.5931 1699.9475 3615.5799 1752.0156 3575.5664 C 1804.6293 3535.1336 1842.6737 3478.9583 1861.6074 3416.0605 C 1880.4903 3353.3319 1878.4179 3293.128 1875.9199 3240.6719 L 1871.9199 3156.6719 A 70.007 70.007 0 0 0 1870.7188 3146.373 L 1869.2363 2296.3555 A 70.007 70.007 0 0 0 1798.0586 2225.4902 A 70.007 70.007 0 0 0 1729.2363 2296.5996 L 1730.6387 3100.9102 L 1056.4805 3097.5039 C 1062.9998 3087.4025 1069.0852 3076.992 1074.5742 3066.2188 C 1111.7306 2993.2924 1122.706 2909.19 1105.5117 2829.1699 C 1088.3174 2749.1498 1043.7633 2676.982 979.92969 2625.7559 C 916.09599 2574.5298 835.99118 2546.6592 754.14648 2547.2012 C 670.65228 2547.754 589.40088 2577.8601 525.70508 2631.8457 C 462.00938 2685.8312 418.99447 2761.048 404.76367 2843.3223 C 390.53287 2925.5967 405.78438 3010.8912 447.64648 3083.1348 C 489.50868 3155.3786 555.92697 3211.0266 634.38477 3239.5918 A 70.007 70.007 0 1 0 682.28125 3108.0391 C 635.53875 3091.021 593.7193 3055.9837 568.7793 3012.9434 C 543.8393 2969.9031 534.23654 2916.1998 542.71484 2867.1836 C 551.19304 2818.1673 578.27701 2770.8091 616.22461 2738.6465 C 654.17241 2706.4837 705.32917 2687.5267 755.07227 2687.1973 C 803.86857 2686.8743 854.24864 2704.4022 892.30664 2734.9434 C 930.36454 2765.4847 958.38542 2810.8737 968.63672 2858.582 C 978.88802 2906.2903 971.98493 2959.183 949.83203 3002.6621 C 927.67913 3046.1411 888.94602 3082.8163 844.32422 3102.5664 A 70.007 70.007 0 0 0 872.30273 3236.5762 L 1735.7734 3240.9395 L 1736.0781 3247.3301 C 1738.436 3296.8443 1738.0941 3340.6805 1727.5508 3375.7051 C 1717.0585 3410.5603 1695.0404 3442.7864 1666.709 3464.5586 C 1637.8319 3486.7501 1599.3008 3501.426 1557.3574 3508.5625 C 1514.7295 3515.8154 1467.2888 3516.21 1416.127 3516.416 L 951.71484 3518.2852 C 848.43654 3518.701 749.07014 3515.2517 659.40234 3489.8906 C 569.26044 3464.3955 484.71598 3417.1946 414.95898 3354.0898 C 270.16268 3223.1018 188.56167 3020.2324 202.32617 2825.4648 C 216.09067 2630.6973 325.41396 2441.322 487.19336 2332 A 70.007 70.007 0 0 0 446.12305 2203.4922 z "
         transform="translate(2994.9781,-462.48181)"
         id="path4175-7-9-3-1" />
    </g>
  </g>
</svg>
