<?xml version="1.0" encoding="UTF-8" standalone="no"?>
<!-- Created with Inkscape (http://www.inkscape.org/) -->

<svg
   xmlns:dc="http://purl.org/dc/elements/1.1/"
   xmlns:cc="http://creativecommons.org/ns#"
   xmlns:rdf="http://www.w3.org/1999/02/22-rdf-syntax-ns#"
   xmlns:svg="http://www.w3.org/2000/svg"
   xmlns="http://www.w3.org/2000/svg"
   xmlns:sodipodi="http://sodipodi.sourceforge.net/DTD/sodipodi-0.dtd"
   xmlns:inkscape="http://www.inkscape.org/namespaces/inkscape"
   width="2000"
   height="2048"
   id="svg2992"
   version="1.1"
   inkscape:version="0.91pre3 r13670"
   sodipodi:docname="ഫ.svg">
  <defs
     id="defs5498">
    <inkscape:path-effect
       effect="spiro"
       id="path-effect4148"
       is_visible="true" />
    <inkscape:path-effect
       effect="spiro"
       id="path-effect4141-5"
       is_visible="true" />
    <inkscape:path-effect
       effect="spiro"
       id="path-effect4141-5-7"
       is_visible="true" />
    <inkscape:path-effect
       effect="spiro"
       id="path-effect4141-5-7-0"
       is_visible="true" />
    <inkscape:path-effect
       effect="spiro"
       id="path-effect4141-5-7-0-7"
       is_visible="true" />
    <inkscape:path-effect
       effect="spiro"
       id="path-effect4141-5-7-0-7-0"
       is_visible="true" />
    <inkscape:path-effect
       effect="spiro"
       id="path-effect4141-5-7-0-7-1"
       is_visible="true" />
  </defs>
  <sodipodi:namedview
     inkscape:window-height="851"
     inkscape:window-width="1600"
     inkscape:pageshadow="2"
     inkscape:pageopacity="0.0"
     borderopacity="1.0"
     bordercolor="#666666"
     pagecolor="#ffffff"
     id="base"
     showgrid="true"
     showguides="true"
     inkscape:guide-bbox="true"
     inkscape:zoom="0.32102648"
     inkscape:cx="958.19485"
     inkscape:cy="-586.08869"
     inkscape:window-x="1599"
     inkscape:window-y="-1"
     inkscape:current-layer="layer1"
     inkscape:window-maximized="1">
    <sodipodi:guide
       orientation="horizontal"
       position="0,600"
       id="guide5596" />
    <inkscape:grid
       type="xygrid"
       id="grid3769"
       empspacing="3"
       visible="true"
       enabled="true"
       snapvisiblegridlinesonly="true"
       spacingx="4px"
       units="px"
       dotted="true"
       spacingy="4px" />
    <sodipodi:guide
       orientation="0,1"
       position="-1040,1600"
       id="guide2985" />
  </sodipodi:namedview>
  <metadata
     id="metadata5594">
    <rdf:RDF>
      <cc:Work
         rdf:about="">
        <dc:format>image/svg+xml</dc:format>
        <dc:type
           rdf:resource="http://purl.org/dc/dcmitype/StillImage" />
        <dc:title />
      </cc:Work>
    </rdf:RDF>
  </metadata>
  <g
     inkscape:label="Layer 1"
     inkscape:groupmode="layer"
     id="layer1"
     transform="translate(0,1048)">
    <path
       style="fill:none;fill-rule:evenodd;stroke:#000000;stroke-width:140;stroke-linecap:round;stroke-linejoin:round;stroke-miterlimit:4;stroke-dasharray:none;stroke-opacity:1"
       d="M 275.46718,335.58119 C 212.48681,312.95252 157.87241,267.77998 123.83267,210.16158 89.792934,152.54318 76.582535,82.910026 87.154573,16.828141 97.726611,-49.253745 132.00199,-111.28994 182.31867,-155.41267 c 50.31668,-44.12273 116.29821,-70.00186 183.19484,-71.8523 66.60148,-1.84227 133.61691,20.13891 186.18859,61.07018 52.57169,40.93127 90.31309,100.511694 104.85673,165.53194489 C 671.10247,64.357406 662.34141,134.33944 632.21804,193.76782 602.09466,253.19621 550.83044,301.63401 489.79096,328.34229 l 551.48854,2.6887 -7.7199,-144.477 c -4.3713,-81.80777 -8.2984,-164.006094 0.034,-245.505745 8.3322,-81.499655 29.1256,-162.372825 67.735,-234.628885 38.6093,-72.25606 95.2275,-135.41987 165.2248,-177.98739 69.9973,-42.56752 153.1765,-63.96146 234.8464,-57.50777 76.0693,6.01112 149.6102,35.94443 210.3471,82.13637 60.7369,46.19194 108.6884,108.21511 142.0361,176.84889 66.6954,137.26756 71.4261,295.322509 70.9122,447.93443 l -0.5002,148.5502"
       id="path4139-0-3-5-0"
       inkscape:path-effect="#path-effect4141-5-7-0-7"
       inkscape:original-d="m 275.46718,335.58119 c 0,0 -99.8653,-557.01245 90.04633,-562.84616 189.68939,-5.82689 124.27745,555.60726 124.27745,555.60726 l 551.48854,2.6887 -7.7199,-144.477 c -16.1981,-303.14623 182.9004,-721.25464 467.8401,-715.62979 274.6007,5.42075 402.2198,211.56092 423.2954,706.91969 l -0.5002,148.5502"
       inkscape:connector-curvature="0"
       sodipodi:nodetypes="cacccacc" />
    <path
       style="fill:#000000;fill-opacity:1;fill-rule:evenodd;stroke:#000000;stroke-width:140;stroke-linecap:round;stroke-linejoin:round;stroke-miterlimit:4;stroke-dasharray:none;stroke-opacity:1"
       d="m 1003.0883,327.50909 908,0"
       id="path4171-7-0"
       inkscape:connector-curvature="0"
       sodipodi:nodetypes="cc" />
    <path
       style="color:#000000;font-style:normal;font-variant:normal;font-weight:normal;font-stretch:normal;font-size:medium;line-height:normal;font-family:sans-serif;text-indent:0;text-align:start;text-decoration:none;text-decoration-line:none;text-decoration-style:solid;text-decoration-color:#000000;letter-spacing:normal;word-spacing:normal;text-transform:none;direction:ltr;block-progression:tb;writing-mode:lr-tb;baseline-shift:baseline;text-anchor:start;white-space:normal;clip-rule:nonzero;display:inline;overflow:visible;visibility:visible;opacity:1;isolation:auto;mix-blend-mode:normal;color-interpolation:sRGB;color-interpolation-filters:linearRGB;solid-color:#000000;solid-opacity:1;fill:#000000;fill-opacity:1;fill-rule:evenodd;stroke:none;stroke-width:140;stroke-linecap:round;stroke-linejoin:round;stroke-miterlimit:4;stroke-dasharray:none;stroke-dashoffset:0;stroke-opacity:1;color-rendering:auto;image-rendering:auto;shape-rendering:auto;text-rendering:auto;enable-background:accumulate"
       d="M 1662.3984 1983.7812 C 1577.3723 1984.133 1494.0504 2008.9174 1422.1816 2052.623 C 1340.2361 2102.4566 1275.6135 2175.0408 1231.5898 2257.4297 C 1187.6719 2339.6205 1165.0111 2429.369 1155.957 2517.9297 C 1146.9139 2606.3807 1151.2747 2692.2171 1155.6602 2774.2891 L 1159.4199 2844.6699 L 867.01367 2843.2441 C 874.12831 2832.3496 880.7358 2821.0922 886.6543 2809.416 C 924.32264 2735.1027 935.05746 2649.3625 916.87109 2568.0566 C 898.68472 2486.7509 852.44431 2413.7556 786.70508 2362.5723 C 720.96581 2311.3889 638.86126 2284.458 555.57812 2286.7617 C 471.92073 2289.0757 391.08932 2320.7796 328.16602 2375.957 C 265.24266 2431.1345 223.25403 2507.1311 210.0332 2589.7695 C 196.81238 2672.408 212.99619 2757.7131 255.56445 2829.7676 C 298.13272 2901.8221 365.03706 2957.1608 443.79688 2985.459 A 70.007 70.007 0 1 0 491.13672 2853.7051 C 443.93577 2836.7459 401.61277 2801.739 376.10156 2758.5566 C 350.59035 2715.3743 340.35213 2661.4121 348.27539 2611.8867 C 356.19865 2562.3614 382.76068 2514.2867 420.4707 2481.2188 C 458.18076 2448.1508 509.31333 2428.0958 559.44922 2426.709 C 609.36905 2425.3281 661.2951 2442.3598 700.69922 2473.0391 C 740.10335 2503.7184 769.34519 2549.8826 780.24609 2598.6172 C 791.14701 2647.3519 784.35966 2701.5757 761.78125 2746.1191 C 739.20284 2790.6626 699.48147 2828.1942 653.73047 2848.2129 A 70.007 70.007 0 0 0 681.44922 2982.3418 L 1232.9375 2985.0293 A 70.007 70.007 0 0 0 1255.0098 2981.5098 L 2103.0879 2981.5098 A 70.007 70.007 0 0 0 2111.0352 2981.1289 A 70.007 70.007 0 0 0 2186.1953 2910.6289 L 2186.6953 2762.0801 C 2187.2146 2607.8589 2184.1016 2438.4135 2108.7441 2283.3184 C 2071.1136 2205.8699 2016.7596 2135.0659 1946.1211 2081.3438 C 1875.3116 2027.4912 1789.6441 1992.3122 1698.9141 1985.1426 C 1686.7263 1984.1795 1674.545 1983.731 1662.3984 1983.7812 z M 1663.0645 2123.8125 C 1671.3722 2123.7618 1679.655 2124.0567 1687.8848 2124.707 C 1749.2933 2129.5596 1810.7088 2154.2458 1861.373 2192.7773 C 1912.2084 2231.4389 1953.7574 2284.6828 1982.8223 2344.502 C 2040.8556 2463.9418 2047.2038 2610.6048 2046.6953 2761.6074 L 2046.4258 2841.5098 L 1299.4512 2841.5098 L 1295.459 2766.8184 C 1291.1018 2685.2747 1287.6088 2606.7162 1295.2305 2532.168 C 1302.8408 2457.7292 1321.7675 2385.7294 1355.0684 2323.4082 C 1388.2633 2261.2849 1436.8767 2207.5417 1494.9258 2172.2402 C 1545.5522 2141.4527 1604.9099 2124.1674 1663.0645 2123.8125 z "
       transform="translate(0,-1048)"
       id="path4139-0-3-5-0-0" />
  </g>
</svg>
