<?xml version="1.0" encoding="UTF-8" standalone="no"?>
<!-- Created with Inkscape (http://www.inkscape.org/) -->

<svg
   xmlns:dc="http://purl.org/dc/elements/1.1/"
   xmlns:cc="http://creativecommons.org/ns#"
   xmlns:rdf="http://www.w3.org/1999/02/22-rdf-syntax-ns#"
   xmlns:svg="http://www.w3.org/2000/svg"
   xmlns="http://www.w3.org/2000/svg"
   xmlns:sodipodi="http://sodipodi.sourceforge.net/DTD/sodipodi-0.dtd"
   xmlns:inkscape="http://www.inkscape.org/namespaces/inkscape"
   width="2000"
   height="2048"
   id="svg2992"
   version="1.1"
   inkscape:version="0.91pre3 r13670"
   sodipodi:docname="ഫ.svg">
  <defs
     id="defs5498">
    <inkscape:path-effect
       effect="spiro"
       id="path-effect4148"
       is_visible="true" />
    <inkscape:path-effect
       effect="spiro"
       id="path-effect4141-5"
       is_visible="true" />
    <inkscape:path-effect
       effect="spiro"
       id="path-effect4141-5-7"
       is_visible="true" />
    <inkscape:path-effect
       effect="spiro"
       id="path-effect4141-5-7-0"
       is_visible="true" />
    <inkscape:path-effect
       effect="spiro"
       id="path-effect4141-5-7-0-7"
       is_visible="true" />
    <inkscape:path-effect
       effect="spiro"
       id="path-effect4141-5-7-0-7-0"
       is_visible="true" />
  </defs>
  <sodipodi:namedview
     inkscape:window-height="880"
     inkscape:window-width="1600"
     inkscape:pageshadow="2"
     inkscape:pageopacity="0.0"
     borderopacity="1.0"
     bordercolor="#666666"
     pagecolor="#ffffff"
     id="base"
     showgrid="true"
     showguides="true"
     inkscape:guide-bbox="true"
     inkscape:zoom="0.32102648"
     inkscape:cx="1455.0386"
     inkscape:cy="535.31413"
     inkscape:window-x="-2"
     inkscape:window-y="-3"
     inkscape:current-layer="layer1"
     inkscape:window-maximized="1">
    <sodipodi:guide
       orientation="horizontal"
       position="0,600"
       id="guide5596" />
    <inkscape:grid
       type="xygrid"
       id="grid3769"
       empspacing="3"
       visible="true"
       enabled="true"
       snapvisiblegridlinesonly="true"
       spacingx="4px"
       units="px"
       dotted="true"
       spacingy="4px" />
    <sodipodi:guide
       orientation="0,1"
       position="-1040,1600"
       id="guide2985" />
  </sodipodi:namedview>
  <metadata
     id="metadata5594">
    <rdf:RDF>
      <cc:Work
         rdf:about="">
        <dc:format>image/svg+xml</dc:format>
        <dc:type
           rdf:resource="http://purl.org/dc/dcmitype/StillImage" />
        <dc:title />
      </cc:Work>
    </rdf:RDF>
  </metadata>
  <g
     inkscape:label="Layer 1"
     inkscape:groupmode="layer"
     id="layer1"
     transform="translate(0,1048)">
    <path
       style="fill:none;fill-rule:evenodd;stroke:#000000;stroke-width:140;stroke-linecap:round;stroke-linejoin:round;stroke-miterlimit:4;stroke-dasharray:none;stroke-opacity:1"
       d="m 347.60746,1374.8788 c -62.98037,-22.6287 -117.59477,-67.8012 -151.63451,-125.4196 -34.03974,-57.6184 -47.25014,-127.2516 -36.6781,-193.3334 10.57204,-66.08193 44.84742,-128.11813 95.1641,-172.24086 50.31668,-44.12273 116.29821,-70.00186 183.19484,-71.8523 66.60148,-1.84227 133.61691,20.13891 186.18859,61.07018 52.57169,40.93127 90.31309,100.51169 104.85673,165.53198 14.54364,65.0202 5.78258,135.0023 -24.34079,194.4306 -30.12338,59.4284 -81.3876,107.8662 -142.42708,134.5745 l 605.48856,2.6887 -7.7199,-144.477 c -8.3339,-155.9677 -12.1274,-318.42489 52.042,-460.82453 32.0848,-71.19982 80.5312,-135.69381 143.4032,-182.01822 62.8721,-46.32442 140.3062,-73.79084 218.3949,-72.78704 76.8719,0.98816 152.3646,29.48118 213.8195,75.67167 61.4548,46.19049 109.0829,109.44851 141.6696,179.07876 65.1733,139.26051 68.324,298.41366 67.8063,452.16926 l -0.5002,148.5502"
       id="path4139-0-3-5-0"
       inkscape:path-effect="#path-effect4141-5-7-0-7"
       inkscape:original-d="m 347.60746,1374.8788 c 0,0 -99.8653,-557.01245 90.04633,-562.84616 189.68939,-5.82689 124.27745,555.60726 124.27745,555.60726 l 605.48856,2.6887 -7.7199,-144.477 c -16.1981,-303.14623 138.2902,-713.53193 413.8401,-715.62979 274.6463,-2.09098 402.2198,211.56092 423.2954,706.91969 l -0.5002,148.5502"
       inkscape:connector-curvature="0"
       sodipodi:nodetypes="cacccacc" />
    <path
       style="fill:none;fill-rule:evenodd;stroke:#000000;stroke-width:140;stroke-linecap:round;stroke-linejoin:round;stroke-miterlimit:4;stroke-dasharray:none;stroke-opacity:1"
       d="m 1153.2286,1366.8067 830,0"
       id="path4171-7-0"
       inkscape:connector-curvature="0"
       sodipodi:nodetypes="cc" />
    <path
       style="color:#000000;font-style:normal;font-variant:normal;font-weight:normal;font-stretch:normal;font-size:medium;line-height:normal;font-family:sans-serif;text-indent:0;text-align:start;text-decoration:none;text-decoration-line:none;text-decoration-style:solid;text-decoration-color:#000000;letter-spacing:normal;word-spacing:normal;text-transform:none;direction:ltr;block-progression:tb;writing-mode:lr-tb;baseline-shift:baseline;text-anchor:start;white-space:normal;clip-rule:nonzero;display:inline;overflow:visible;visibility:visible;opacity:1;isolation:auto;mix-blend-mode:normal;color-interpolation:sRGB;color-interpolation-filters:linearRGB;solid-color:#000000;solid-opacity:1;fill:#000000;fill-opacity:1;fill-rule:evenodd;stroke:none;stroke-width:140;stroke-linecap:round;stroke-linejoin:round;stroke-miterlimit:4;stroke-dasharray:none;stroke-dashoffset:0;stroke-opacity:1;color-rendering:auto;image-rendering:auto;shape-rendering:auto;text-rendering:auto;enable-background:accumulate"
       d="m 1580.5605,447.4668 c -171.3017,1.79688 -330.3719,115.68727 -403.6093,268.61328 -98.6925,195.01631 -79.5773,404.19102 -68.0625,592.05862 l -345.88284,-1.5352 C 875.42076,1140.9157 821.76773,900.79661 645.44531,801.01562 l -1.91797,-1.1289 c -0.56516,-0.3149 -1.09641,-0.66845 -1.66406,-0.98047 C 462.16696,688.82942 214.03105,768.40491 132.53125,963.07031 43.215882,1150.576 143.89482,1384.6811 341.03711,1449.5156 c 36.92099,12.7267 77.11609,-7.2159 89.31684,-44.314 12.20076,-37.0981 -8.31086,-77.0058 -45.57856,-88.6782 -111.71858,-36.741 -176.51746,-187.8545 -125.5957,-293.8476 0.6134,-1.2772 1.18788,-2.5727 1.72265,-3.8848 45.59145,-111.8153 207.76778,-163.64818 309.94141,-99.30662 1.17287,0.73843 2.3674,1.44186 3.58203,2.10937 105.42642,57.94942 138.92129,224.22195 64.05664,318.39455 -1.51143,1.9019 -2.92284,3.8811 -4.22851,5.9297 -2.47072,3.8753 -22.4875,24.3359 -42.10352,39.8261 -9.80801,7.7451 -19.52773,14.9603 -27.95312,21.3086 -4.2127,3.1742 -8.06681,6.0901 -11.99415,9.2539 -3.92732,3.1639 -6.65507,3.9893 -15.84765,15.2383 -17.06814,20.8959 -20.60912,49.7405 -9.10199,74.1443 11.50713,24.4039 36.01412,40.023 62.99457,40.1487 469.42595,-1.0701 938.85255,-0.8906 1408.27925,-0.8906 2.5577,0.026 5.115,-0.088 7.6602,-0.3418 41.2321,3.2207 76.2545,-29.8144 75.4453,-71.1641 -0.719,-128.6803 6.2047,-263.3866 -10.9824,-401.94531 0.03,0.28937 0.064,0.57985 0.094,0.86914 l -0.1777,-1.5664 c 0.029,0.23265 0.055,0.46464 0.084,0.69726 C 2016,656 1861.9826,451.91611 1588.7269,447.4668 c -2.725,-0.0283 -5.447,-0.0285 -8.1661,0 z m 5.8067,141.04101 c 26.6517,-0.29798 53.2295,3.61082 78.9062,12.37305 0.5498,0.18786 1.102,0.36886 1.6563,0.54297 154.011,48.3087 247.5928,218.71836 264.5351,385.12305 0.053,0.52213 0.1113,1.04364 0.1758,1.56445 12.6484,101.49877 10.708,207.44557 10.0762,316.83597 l -692.4551,0 c -10.2181,-191.3748 -24.4876,-374.01279 52.9766,-526.42777 0.2643,-0.52019 0.5222,-1.04367 0.7734,-1.57031 50.9847,-106.84831 167.8649,-187.15016 283.3555,-188.44141 z M 640.45117,1425.0078 c -1.27905,1.2684 -1.32791,1.0553 -0.41797,0.3223 0.0731,-0.059 0.33696,-0.2576 0.41797,-0.3223 z"
       transform="translate(0,-1048)"
       id="path4139-0-3-5-0-6"
       inkscape:connector-curvature="0"
       sodipodi:nodetypes="sccccccccscccccccssccscccccccccssccccccccscccc" />
  </g>
</svg>
