<?xml version="1.0" encoding="UTF-8" standalone="no"?>
<!-- Created with Inkscape (http://www.inkscape.org/) -->

<svg
   xmlns:dc="http://purl.org/dc/elements/1.1/"
   xmlns:cc="http://creativecommons.org/ns#"
   xmlns:rdf="http://www.w3.org/1999/02/22-rdf-syntax-ns#"
   xmlns:svg="http://www.w3.org/2000/svg"
   xmlns="http://www.w3.org/2000/svg"
   xmlns:sodipodi="http://sodipodi.sourceforge.net/DTD/sodipodi-0.dtd"
   xmlns:inkscape="http://www.inkscape.org/namespaces/inkscape"
   width="2000"
   height="2048"
   id="svg2992"
   version="1.1"
   inkscape:version="0.91pre2 r13516"
   sodipodi:docname="ഫ.svg">
  <defs
     id="defs5498">
    <inkscape:path-effect
       effect="spiro"
       id="path-effect4148"
       is_visible="true" />
    <inkscape:path-effect
       effect="spiro"
       id="path-effect4141-5"
       is_visible="true" />
    <inkscape:path-effect
       effect="spiro"
       id="path-effect4141-5-7"
       is_visible="true" />
    <inkscape:path-effect
       effect="spiro"
       id="path-effect4141-5-7-0"
       is_visible="true" />
  </defs>
  <sodipodi:namedview
     inkscape:window-height="853"
     inkscape:window-width="1600"
     inkscape:pageshadow="2"
     inkscape:pageopacity="0.0"
     borderopacity="1.0"
     bordercolor="#666666"
     pagecolor="#ffffff"
     id="base"
     showgrid="true"
     showguides="true"
     inkscape:guide-bbox="true"
     inkscape:zoom="0.32102648"
     inkscape:cx="870.54502"
     inkscape:cy="784.51476"
     inkscape:window-x="1598"
     inkscape:window-y="-3"
     inkscape:current-layer="layer1"
     inkscape:window-maximized="1">
    <sodipodi:guide
       orientation="horizontal"
       position="0,600"
       id="guide5596" />
    <inkscape:grid
       type="xygrid"
       id="grid3769"
       empspacing="3"
       visible="true"
       enabled="true"
       snapvisiblegridlinesonly="true"
       spacingx="4px"
       units="px"
       dotted="true"
       spacingy="4px" />
    <sodipodi:guide
       orientation="0,1"
       position="-1040,1600"
       id="guide2985" />
  </sodipodi:namedview>
  <metadata
     id="metadata5594">
    <rdf:RDF>
      <cc:Work
         rdf:about="">
        <dc:format>image/svg+xml</dc:format>
        <dc:type
           rdf:resource="http://purl.org/dc/dcmitype/StillImage" />
        <dc:title></dc:title>
      </cc:Work>
    </rdf:RDF>
  </metadata>
  <g
     inkscape:label="Layer 1"
     inkscape:groupmode="layer"
     id="layer1"
     transform="translate(0,1048)">
    <path
       style="color:#000000;font-style:normal;font-variant:normal;font-weight:normal;font-stretch:normal;font-size:medium;line-height:normal;font-family:sans-serif;text-indent:0;text-align:start;text-decoration:none;text-decoration-line:none;text-decoration-style:solid;text-decoration-color:#000000;letter-spacing:normal;word-spacing:normal;text-transform:none;direction:ltr;block-progression:tb;writing-mode:lr-tb;baseline-shift:baseline;text-anchor:start;clip-rule:nonzero;display:inline;overflow:visible;visibility:visible;opacity:1;isolation:auto;mix-blend-mode:normal;color-interpolation:sRGB;color-interpolation-filters:linearRGB;solid-color:#000000;solid-opacity:1;fill:#000000;fill-opacity:1;fill-rule:evenodd;stroke:none;stroke-width:140;stroke-linecap:round;stroke-linejoin:round;stroke-miterlimit:4;stroke-dasharray:none;stroke-dashoffset:0;stroke-opacity:1;color-rendering:auto;image-rendering:auto;shape-rendering:auto;text-rendering:auto;enable-background:accumulate"
       d="M 1721.9453 437.50586 C 1718.9566 437.51886 1715.9667 437.55956 1712.9746 437.62891 C 1616.9526 439.85497 1523.8007 471.18876 1445.3301 524.4375 C 1366.9659 577.61399 1305.2831 651.04405 1263.1113 733.51172 C 1221.0142 815.83351 1199.1155 905.06964 1190.3926 993.26172 C 1181.6783 1081.3668 1185.9859 1166.9006 1190.3613 1248.7793 L 1194.125 1319.2344 L 755.75781 1317.5234 C 758.74075 1312.7893 761.65551 1308.0066 764.42188 1303.127 C 800.17738 1240.0564 816.2989 1167.3126 810.53906 1095.041 C 804.77923 1022.7694 777.33871 953.49791 732.04492 896.88672 C 686.75113 840.27553 625.18815 798.30474 555.94141 776.82812 C 493.88106 757.58033 427.42728 755.32482 364.13477 770.53906 C 300.82869 785.75656 242.50839 818.02436 196.03906 863.79883 C 151.86574 907.31163 119.65476 961.78835 102.81445 1021.4629 C 85.973855 1081.1375 84.954026 1144.4175 99.863281 1204.6035 C 114.77252 1264.7896 145.2142 1320.2763 187.96289 1365.1895 C 230.71159 1410.1027 284.62702 1443.244 344.00391 1461.1055 A 70.007 70.007 0 1 0 384.33398 1327.0391 C 348.60391 1316.2909 315.09513 1295.6945 289.37109 1268.668 C 263.64705 1241.6414 244.7275 1207.1564 235.75586 1170.9395 C 226.78421 1134.7225 227.41908 1095.3955 237.55273 1059.4863 C 247.68639 1023.5772 267.7058 989.72095 294.28711 963.53711 C 322.22569 936.0163 358.60942 915.85569 396.85547 906.66211 C 435.11508 897.46527 476.77194 898.85339 514.46875 910.54492 C 556.42729 923.5582 595.28373 950.0473 622.72852 984.34961 C 650.1733 1018.6519 667.49238 1062.3727 670.98242 1106.1641 C 674.47247 1149.9555 664.29613 1195.8658 642.63086 1234.082 C 620.96559 1272.2983 586.79744 1304.6088 547.42969 1324.1035 A 70.007 70.007 0 0 0 578.21875 1456.832 L 1256.7129 1459.4785 A 70.007 70.007 0 0 0 1265.5605 1460 L 2177.5605 1460 A 70.007 70.007 0 0 0 2202.2168 1455.7949 A 70.007 70.007 0 0 0 2272.8965 1385.0977 L 2273.3965 1220.5469 C 2273.645 1138.7844 2273.6422 1053.3854 2260.5703 966.07031 C 2247.4855 878.66973 2221.2565 790.88123 2175.293 710.95117 C 2129.2486 630.88056 2064.2598 560.74244 1983.666 511.51953 C 1908.0078 465.31102 1820.4493 438.84902 1730.9062 437.55078 C 1727.9215 437.50753 1724.934 437.49286 1721.9453 437.50586 z M 1722.5215 577.50586 C 1787.6928 577.2563 1854.1398 596.45777 1910.6934 630.99805 C 1969.1796 666.7187 2018.7321 719.53748 2053.9277 780.74219 C 2089.2042 842.08745 2111.0689 913.02736 2122.1133 986.79883 C 2133.1704 1060.6558 2133.6433 1138.9161 2133.3965 1220.1211 L 2133.0938 1320 L 1334.3652 1320 L 1330.1621 1241.3105 C 1325.8168 1159.9895 1322.3409 1081.5768 1329.7129 1007.043 C 1337.0763 932.59608 1355.4467 860.44072 1387.7598 797.25195 C 1419.9982 734.20905 1467.0697 678.87529 1523.9414 640.2832 C 1580.7066 601.76338 1648.8522 579.15355 1716.2188 577.5918 C 1718.318 577.54313 1720.4192 577.51391 1722.5215 577.50586 z "
       transform="translate(0,-1048)"
       id="path4139-0-3" />
    <path
       style="fill:none;fill-rule:evenodd;stroke:#000000;stroke-width:140;stroke-linecap:round;stroke-linejoin:round;stroke-miterlimit:4;stroke-dasharray:none;stroke-opacity:1"
       d="m 412.16859,1519.1552 c -47.55348,-14.3048 -91.26602,-41.174 -125.50239,-77.1439 -34.23637,-35.9698 -58.91554,-80.9552 -70.85598,-129.1567 -11.94045,-48.2015 -11.1139,-99.5051 2.37308,-147.2969 13.48698,-47.7919 39.60247,-91.9589 74.97979,-126.8072 37.20395,-36.6476 84.55539,-62.86192 135.33145,-75.06746 50.77606,-12.20554 104.832,-10.3836 154.71058,5.08606 55.60264,17.24495 105.81198,51.4751 142.18127,96.9318 36.36929,45.4568 58.74887,101.9531 63.37381,159.9846 4.62494,58.0315 -8.52379,117.3593 -37.23418,168.0027 -28.71039,50.6434 -72.86428,92.394 -125.03365,118.2281 l 689.48853,2.6887 -7.7199,-144.477 c -4.3602,-81.5999 -8.2507,-163.5731 -0.2076,-244.8926 8.0432,-81.3195 28.1768,-162.01544 65.3819,-234.77073 37.2051,-72.75529 91.5826,-137.13712 159.2005,-183.02141 67.6179,-45.88429 148.2661,-72.85617 229.9604,-74.75008 81.4622,-1.88853 163.0435,21.17731 232.5835,63.64909 69.54,42.47179 126.8104,103.95035 167.4304,174.58801 40.62,70.63767 64.6671,150.00132 76.7317,230.58732 12.0645,80.586 12.3024,162.4166 12.0547,243.9003 l -0.5002,164.5502"
       id="path4139-0-3-5"
       inkscape:path-effect="#path-effect4141-5-7-0"
       inkscape:original-d="m 412.16859,1519.1552 c 0,0 -288.27862,-402.806 -119.0055,-480.4047 169.27314,-77.59956 -166.95674,-29.1144 290.04203,-69.9814 456.99768,-40.86691 -305.55974,43.4157 43.28725,543.1472 l 689.48853,2.6887 -7.7199,-144.477 c -16.1981,-303.1462 165.7022,-730.36624 454.3352,-737.43482 287.992,-7.05288 467.7247,217.36598 488.8003,712.72472 l -0.5002,164.5502"
       inkscape:connector-curvature="0"
       sodipodi:nodetypes="cssccsacc" />
    <path
       style="fill:none;fill-rule:evenodd;stroke:#000000;stroke-width:140;stroke-linecap:round;stroke-linejoin:round;stroke-miterlimit:4;stroke-dasharray:none;stroke-opacity:1"
       d="m 1313.5596,1515.0831 912,0"
       id="path4171-7"
       inkscape:connector-curvature="0"
       sodipodi:nodetypes="cc" />
  </g>
</svg>
