<?xml version="1.0" encoding="UTF-8" standalone="no"?>
<!-- Created with Inkscape (http://www.inkscape.org/) -->

<svg
   xmlns:dc="http://purl.org/dc/elements/1.1/"
   xmlns:cc="http://creativecommons.org/ns#"
   xmlns:rdf="http://www.w3.org/1999/02/22-rdf-syntax-ns#"
   xmlns:svg="http://www.w3.org/2000/svg"
   xmlns="http://www.w3.org/2000/svg"
   xmlns:sodipodi="http://sodipodi.sourceforge.net/DTD/sodipodi-0.dtd"
   xmlns:inkscape="http://www.inkscape.org/namespaces/inkscape"
   width="2000"
   height="2048"
   id="svg2992"
   version="1.1"
   inkscape:version="0.91pre3 r13670"
   sodipodi:docname="ബ.svg">
  <defs
     id="defs5498">
    <inkscape:path-effect
       effect="spiro"
       id="path-effect4186"
       is_visible="true" />
    <inkscape:path-effect
       is_visible="true"
       id="path-effect3846"
       effect="spiro" />
    <inkscape:path-effect
       is_visible="true"
       id="path-effect3801"
       effect="spiro" />
    <inkscape:path-effect
       is_visible="true"
       id="path-effect4372-5-0"
       effect="spiro" />
    <inkscape:path-effect
       is_visible="true"
       id="path-effect4372-5-0-5"
       effect="spiro" />
    <inkscape:path-effect
       is_visible="true"
       id="path-effect4372-5-0-53"
       effect="spiro" />
    <inkscape:path-effect
       is_visible="true"
       id="path-effect3846-9"
       effect="spiro" />
    <inkscape:path-effect
       is_visible="true"
       id="path-effect3801-3"
       effect="spiro" />
    <inkscape:path-effect
       is_visible="true"
       id="path-effect4372-5-0-50"
       effect="spiro" />
    <inkscape:path-effect
       is_visible="true"
       id="path-effect4372-5-0-5-8"
       effect="spiro" />
    <inkscape:path-effect
       is_visible="true"
       id="path-effect4372-5-0-53-2"
       effect="spiro" />
    <inkscape:path-effect
       is_visible="true"
       id="path-effect4372-5-0-50-1"
       effect="spiro" />
    <inkscape:path-effect
       is_visible="true"
       id="path-effect4372-5-0-50-1-0"
       effect="spiro" />
    <inkscape:path-effect
       is_visible="true"
       id="path-effect4372-5-0-50-1-0-3"
       effect="spiro" />
    <inkscape:path-effect
       is_visible="true"
       id="path-effect4372-5-0-50-1-0-3-4"
       effect="spiro" />
    <inkscape:path-effect
       is_visible="true"
       id="path-effect4372-5-0-50-1-0-3-4-0"
       effect="spiro" />
    <inkscape:path-effect
       is_visible="true"
       id="path-effect4372-5-0-50-1-0-3-4-2"
       effect="spiro" />
  </defs>
  <sodipodi:namedview
     inkscape:window-height="851"
     inkscape:window-width="1600"
     inkscape:pageshadow="2"
     inkscape:pageopacity="0.0"
     borderopacity="1.0"
     bordercolor="#666666"
     pagecolor="#ffffff"
     id="base"
     showgrid="true"
     showguides="true"
     inkscape:guide-bbox="true"
     inkscape:zoom="0.64205296"
     inkscape:cx="694.17897"
     inkscape:cy="-26.007214"
     inkscape:window-x="1599"
     inkscape:window-y="-1"
     inkscape:current-layer="layer1-2"
     inkscape:window-maximized="1">
    <sodipodi:guide
       orientation="horizontal"
       position="0,600"
       id="guide5596" />
    <inkscape:grid
       type="xygrid"
       id="grid3769"
       empspacing="3"
       visible="true"
       enabled="true"
       snapvisiblegridlinesonly="true"
       spacingx="4px"
       units="px"
       dotted="true"
       spacingy="4px" />
    <sodipodi:guide
       orientation="0,1"
       position="-1040,1600"
       id="guide2985" />
  </sodipodi:namedview>
  <metadata
     id="metadata5594">
    <rdf:RDF>
      <cc:Work
         rdf:about="">
        <dc:format>image/svg+xml</dc:format>
        <dc:type
           rdf:resource="http://purl.org/dc/dcmitype/StillImage" />
        <dc:title />
      </cc:Work>
    </rdf:RDF>
  </metadata>
  <g
     inkscape:label="Layer 1"
     inkscape:groupmode="layer"
     id="layer1"
     transform="translate(0,1048)">
    <g
       id="layer1-2"
       inkscape:label="Layer 1"
       transform="translate(253.59372,-238.29924)">
      <path
         sodipodi:nodetypes="caaaacccaaccc"
         inkscape:connector-curvature="0"
         inkscape:original-d="m -129.51916,414.0844 c 0,0 324.58863,-356.676518 460.65684,-247.68125 102.98326,82.49308 22.02062,352.74645 -106.8334,381.1595 C 24.269846,591.67139 -196.07781,284.22449 -175.01855,80.470068 -152.44932,-137.89371 128.6269,-350.68262 346.27247,-322.0031 565.89144,-293.06354 761.82144,-144.236 749.1304,206.5188 l 1.32654,371.4525 0.21836,-370.6674 c 11.14614,-279.539901 149.155,-502.97493 359.6418,-522.24829 217.1297,-19.88161 458.7125,244.393885 462.6606,462.39609 3.5251,194.645 -397.8703,427.5408 -397.8703,427.5408 l 843.1237,3.0447 0.8149,-867.30986"
         inkscape:path-effect="#path-effect4372-5-0-50-1-0-3-4"
         id="path4370-9-0-6-5-7-0"
         d="M -129.51916,414.0844 C -153.36453,354.6928 -154.52224,286.50985 -132.70693,226.34295 -110.89162,166.17606 -66.304198,114.57937 -9.9356817,84.271725 46.432835,53.964078 114.06328,45.224609 176.28444,60.207638 238.50559,75.190667 294.74438,113.7582 331.13768,166.40315 374.07365,228.51244 388.34806,309.82822 368.25789,382.61178 348.16771,455.39534 293.83354,518.12215 224.30428,547.56265 165.83332,572.32077 98.337575,573.5362 37.95594,553.89248 -22.425694,534.24876 -75.541365,494.39329 -113.912,443.80167 c -38.37063,-50.59162 -62.23594,-111.56452 -71.67228,-174.35603 -9.43634,-62.79151 -4.70498,-127.3426 10.56573,-188.975572 28.61401,-115.486888 95.296455,-221.704988 188.835415,-295.233518 93.538955,-73.52854 213.634715,-113.3698 332.455605,-107.23965 62.32971,3.21568 124.22053,18.93977 179.504,47.90649 55.28347,28.96672 103.5474,71.24028 139.38567,122.33775 35.83826,51.09747 58.91902,110.548815 70.87943,171.804685 11.96041,61.25587 12.86594,124.060775 13.08883,186.472975 l 1.32654,371.4525 0.21836,-370.6674 c 0.0347,-58.92459 0.58289,-118.145767 10.45453,-176.237579 9.87165,-58.091811 29.1281,-114.928244 60.01824,-165.107001 30.89013,-50.17875 73.24917,-93.33677 123.23975,-124.53051 49.99058,-31.19375 107.31108,-50.37185 165.92928,-56.3732 123.3331,-12.62687 250.7981,35.16017 337.7347,123.54864 86.9366,88.38846 132.4795,215.099992 124.9259,338.84745 -6.4264,105.28048 -50.4369,207.87988 -122.2926,285.0941 -71.8557,77.21421 -171.0304,128.4778 -275.5777,142.4467 l 843.1237,3.0447 0.8149,-867.30986"
         style="fill:none;fill-rule:evenodd;stroke:#000000;stroke-width:140;stroke-linecap:round;stroke-linejoin:round;stroke-miterlimit:4;stroke-dasharray:none;stroke-opacity:1" />
      <path
         style="color:#000000;font-style:normal;font-variant:normal;font-weight:normal;font-stretch:normal;font-size:medium;line-height:normal;font-family:sans-serif;text-indent:0;text-align:start;text-decoration:none;text-decoration-line:none;text-decoration-style:solid;text-decoration-color:#000000;letter-spacing:normal;word-spacing:normal;text-transform:none;direction:ltr;block-progression:tb;writing-mode:lr-tb;baseline-shift:baseline;text-anchor:start;white-space:normal;clip-rule:nonzero;display:inline;overflow:visible;visibility:visible;opacity:1;isolation:auto;mix-blend-mode:normal;color-interpolation:sRGB;color-interpolation-filters:linearRGB;solid-color:#000000;solid-opacity:1;fill:#000000;fill-opacity:1;fill-rule:evenodd;stroke:none;stroke-width:140;stroke-linecap:round;stroke-linejoin:round;stroke-miterlimit:4;stroke-dasharray:none;stroke-dashoffset:0;stroke-opacity:1;color-rendering:auto;image-rendering:auto;shape-rendering:auto;text-rendering:auto;enable-background:accumulate"
         d="M 278.22852,845.17773 C 150.18186,844.63938 24.634612,889.32296 -75.458984,968.00391 -182.0407,1051.7851 -256.67065,1171.0322 -288.98047,1301.4355 c -17.2029,69.4315 -22.83696,143.0509 -11.8418,216.2149 11.02433,73.3582 38.83144,145.2191 85.1211,206.2519 46.46974,61.2704 110.60085,109.8326 185.986326,134.3575 75.782916,24.6541 159.772324,23.5415 235.296874,-8.4375 90.3464,-38.2551 158.17806,-116.741 184.13672,-210.7852 25.91107,-93.8717 8.04498,-194.9904 -47.01563,-274.6387 -46.48136,-67.2379 -118.2061,-119.6233 -196.04687,-134.4453 -208.24997,-39.6539 -299.04079,121.367 -299.04079,121.367 0,0 18.79082,-161.0209 163.445087,-273.2498 80.711004,-62.619 184.778013,-97.56627 285.589843,-92.36522 52.98495,2.73358 105.1394,16.17192 150.62305,40.00392 45.31926,23.7458 85.26935,58.7589 114.56445,100.5273 29.29429,41.7672 49.13933,92.0328 59.48633,145.0254 10.36321,53.0758 11.56993,111.4058 11.79101,173.3086 l 1.32618,371.4512 c 0.59495,38.2753 31.82224,68.9754 70.10205,68.9188 38.27982,-0.057 69.41619,-30.849 69.89795,-69.1258 l 0,-0.293 0.21875,-370.375 c 0.0345,-58.5181 0.83785,-113.7854 9.46484,-164.5527 8.61616,-50.7037 25.28921,-98.9933 50.61719,-140.1368 25.30719,-41.1097 60.23131,-76.5955 100.6875,-101.8398 40.5342,-25.293 87.81531,-41.19165 136.00191,-46.12501 100.671,-10.3067 208.9042,30.00391 280.6993,102.99801 72.0539,73.2572 111.2949,181.7284 104.9609,285.4961 -5.4107,88.6415 -43.1668,176.661 -103.666,241.6719 -60.4993,65.0108 -145.5794,108.9888 -233.6035,120.75 -36.4411,4.9233 -62.862,37.201 -60.4879,73.8964 2.374,36.6954 32.7337,65.2997 69.5054,65.4864 l 843.1231,3.0449 c 38.7307,0.1355 70.2115,-31.2026 70.2519,-69.9336 l 0.8164,-867.31055 c 0.5875,-39.04575 -30.8835,-71.02367 -69.9336,-71.06017 -39.0502,-0.0365 -70.5809,31.88253 -70.0664,70.92931 l -0.75,797.12111 -472.3398,-1.7051 c 8.918,-8.3274 17.6356,-16.885 25.9727,-25.8437 83.2121,-89.4176 133.4759,-206.5981 140.9179,-328.5176 8.7732,-143.7273 -43.0713,-288.6777 -144.8906,-392.19729 -102.0781,-103.78289 -248.7742,-159.04662 -394.7695,-144.09961 -69.04974,7.06932 -136.41047,29.5286 -195.85745,66.62305 -59.52438,37.14304 -109.32016,87.97325 -145.79297,147.22075 -4.38194,7.1181 -8.52775,14.3352 -12.49414,21.621 -8.07173,-14.6378 -16.84976,-28.9757 -26.57226,-42.8378 C 634.07366,985.42105 577.49766,935.88881 512.25,901.70117 447.16671,867.59966 375.53773,849.58843 303.86328,845.89062 c -8.55187,-0.4412 -17.09832,-0.677 -25.63476,-0.71289 z M 61.613281,1361.1172 c 17.695412,-0.7265 35.402403,0.8841 52.267579,4.9453 44.97374,10.8298 87.35492,39.8952 113.66016,77.9473 30.81133,44.5703 41.49388,106.082 27.2246,157.7773 -14.2217,51.523 -55.05935,98.4912 -103.77148,119.1172 -41.41735,17.5372 -92.4181,18.8559 -137.398437,4.2227 -45.377773,-14.7626 -87.478482,-45.9113 -117.750003,-85.8243 -1.2624,-1.6644 -2.39694,-3.4445 -3.62304,-5.1425 -0.75592,-2.8411 -1.69007,-5.6318 -2.79688,-8.3555 -17.23555,-42.9285 -18.10804,-94.3119 -2.33984,-137.8008 15.768204,-43.4889 49.367951,-82.3709 90.111326,-104.2773 25.4646018,-13.6916 54.923662,-21.3985 84.416015,-22.6094 z"
         id="path4370-9-0-6-5-7-0-4"
         inkscape:connector-curvature="0"
         sodipodi:nodetypes="sssssssssscsssssscsccsssssssscsccccscccssssssccssssssssscccsss" />
    </g>
  </g>
</svg>
