<?xml version="1.0" encoding="UTF-8" standalone="no"?>
<!-- Created with Inkscape (http://www.inkscape.org/) -->

<svg
   xmlns:dc="http://purl.org/dc/elements/1.1/"
   xmlns:cc="http://creativecommons.org/ns#"
   xmlns:rdf="http://www.w3.org/1999/02/22-rdf-syntax-ns#"
   xmlns:svg="http://www.w3.org/2000/svg"
   xmlns="http://www.w3.org/2000/svg"
   xmlns:sodipodi="http://sodipodi.sourceforge.net/DTD/sodipodi-0.dtd"
   xmlns:inkscape="http://www.inkscape.org/namespaces/inkscape"
   width="2000"
   height="2048"
   id="svg2992"
   version="1.1"
   inkscape:version="0.91pre3 r13670"
   sodipodi:docname="ബ.svg">
  <defs
     id="defs5498">
    <inkscape:path-effect
       effect="spiro"
       id="path-effect4186"
       is_visible="true" />
    <inkscape:path-effect
       is_visible="true"
       id="path-effect3846"
       effect="spiro" />
    <inkscape:path-effect
       is_visible="true"
       id="path-effect3801"
       effect="spiro" />
    <inkscape:path-effect
       is_visible="true"
       id="path-effect4372-5-0"
       effect="spiro" />
    <inkscape:path-effect
       is_visible="true"
       id="path-effect4372-5-0-5"
       effect="spiro" />
    <inkscape:path-effect
       is_visible="true"
       id="path-effect4372-5-0-53"
       effect="spiro" />
    <inkscape:path-effect
       is_visible="true"
       id="path-effect3846-9"
       effect="spiro" />
    <inkscape:path-effect
       is_visible="true"
       id="path-effect3801-3"
       effect="spiro" />
    <inkscape:path-effect
       is_visible="true"
       id="path-effect4372-5-0-50"
       effect="spiro" />
    <inkscape:path-effect
       is_visible="true"
       id="path-effect4372-5-0-5-8"
       effect="spiro" />
    <inkscape:path-effect
       is_visible="true"
       id="path-effect4372-5-0-53-2"
       effect="spiro" />
    <inkscape:path-effect
       is_visible="true"
       id="path-effect4372-5-0-50-1"
       effect="spiro" />
    <inkscape:path-effect
       is_visible="true"
       id="path-effect4372-5-0-50-1-0"
       effect="spiro" />
    <inkscape:path-effect
       is_visible="true"
       id="path-effect4372-5-0-50-1-0-3"
       effect="spiro" />
  </defs>
  <sodipodi:namedview
     inkscape:window-height="853"
     inkscape:window-width="1600"
     inkscape:pageshadow="2"
     inkscape:pageopacity="0.0"
     borderopacity="1.0"
     bordercolor="#666666"
     pagecolor="#ffffff"
     id="base"
     showgrid="true"
     showguides="true"
     inkscape:guide-bbox="true"
     inkscape:zoom="0.32102648"
     inkscape:cx="1445.8095"
     inkscape:cy="900.85107"
     inkscape:window-x="1598"
     inkscape:window-y="-3"
     inkscape:current-layer="layer1-2"
     inkscape:window-maximized="1">
    <sodipodi:guide
       orientation="horizontal"
       position="0,600"
       id="guide5596" />
    <inkscape:grid
       type="xygrid"
       id="grid3769"
       empspacing="3"
       visible="true"
       enabled="true"
       snapvisiblegridlinesonly="true"
       spacingx="4px"
       units="px"
       dotted="true"
       spacingy="4px" />
    <sodipodi:guide
       orientation="0,1"
       position="-1040,1600"
       id="guide2985" />
  </sodipodi:namedview>
  <metadata
     id="metadata5594">
    <rdf:RDF>
      <cc:Work
         rdf:about="">
        <dc:format>image/svg+xml</dc:format>
        <dc:type
           rdf:resource="http://purl.org/dc/dcmitype/StillImage" />
        <dc:title />
      </cc:Work>
    </rdf:RDF>
  </metadata>
  <g
     inkscape:label="Layer 1"
     inkscape:groupmode="layer"
     id="layer1"
     transform="translate(0,1048)">
    <g
       id="layer1-2"
       inkscape:label="Layer 1"
       transform="translate(253.59372,-238.29924)">
      <path
         style="color:#000000;font-style:normal;font-variant:normal;font-weight:normal;font-stretch:normal;font-size:medium;line-height:normal;font-family:sans-serif;text-indent:0;text-align:start;text-decoration:none;text-decoration-line:none;text-decoration-style:solid;text-decoration-color:#000000;letter-spacing:normal;word-spacing:normal;text-transform:none;direction:ltr;block-progression:tb;writing-mode:lr-tb;baseline-shift:baseline;text-anchor:start;white-space:normal;clip-rule:nonzero;display:inline;overflow:visible;visibility:visible;opacity:1;isolation:auto;mix-blend-mode:normal;color-interpolation:sRGB;color-interpolation-filters:linearRGB;solid-color:#000000;solid-opacity:1;fill:#000000;fill-opacity:1;fill-rule:evenodd;stroke:none;stroke-width:140;stroke-linecap:round;stroke-linejoin:round;stroke-miterlimit:4;stroke-dasharray:none;stroke-dashoffset:0;stroke-opacity:1;color-rendering:auto;image-rendering:auto;shape-rendering:auto;text-rendering:auto;enable-background:accumulate"
         d="m 2028.6426,-369.72656 c -52.9565,-0.84628 -77.1885,55.71836 -69.0402,101.32525 -0.2399,255.575827 -0.4797,511.15165 -0.7196,766.72748 -161.9258,-0.56575 -323.8515,-1.13151 -485.7773,-1.69726 172.7788,-160.55593 202.4141,-446.437496 66.3114,-639.12218 -142.6483,-222.19813 -477.488,-294.88538 -690.88529,-132.42916 -49.50261,24.02137 -90.74592,109.77925 -120.28479,120.45605 -101.70368,-181.27473 -337.62826,-254.22925 -530.25048,-188.98769 -288.429628,87.17166 -477.47986,419.500327 -403.68909,711.53276 16.35805,79.54642 65.49535,146.16326 126.288655,198.5376 C 44.272424,676.22934 252.69833,665.97779 359.35839,537.63407 482.00719,405.46674 453.88057,173.44339 304.39118,73.012926 205.26902,-0.12096959 63.119952,-6.9785544 -42.539062,56.359375 30.49096,-132.88155 247.73699,-275.74366 450.42969,-210.37109 c 142.81871,43.51603 212.02835,197.362989 209.99778,337.27763 3.88654,151.83657 -0.60997,304.05779 4.2405,455.73263 10.82269,67.58881 116.63046,73.33805 134.71291,7.31984 8.61242,-82.447 1.28356,-166.6131 3.79486,-249.71386 5.07216,-153.37863 -24.89947,-324.670324 77.73669,-453.77923 137.52977,-171.85318 429.78077,-129.49579 542.13127,49.25616 116.6019,161.572379 62.1003,411.86711 -111.8001,509.30446 -59.8833,54.99973 -157.5355,23.88 -211.3205,81.20442 -36.7927,49.5427 13.9894,121.37184 72.7249,109.34951 289.9184,0.0854 580.0564,3.88571 869.8372,1.64344 54.4906,-9.08677 61.0022,-69.48713 56.3741,-114.18737 -0.5394,-278.52262 2.1241,-557.226656 -0.4141,-835.63611 -5.5721,-32.77609 -36.5621,-58.14554 -69.8026,-57.12699 z M 115.95508,153.21484 c 128.47996,-7.7315 225.62371,146.65445 161.2207,258.53907 C 226.73649,517.6403 71.511588,531.41511 -4.5595705,445.79169 -82.359437,384.64571 -75.40819,261.54618 -2.3901162,199.82715 29.363699,169.92711 72.563609,153.75506 115.95508,153.21484 Z"
         id="path4370-9-0-6-5"
         inkscape:connector-curvature="0" />
      <path
         sodipodi:nodetypes="caaaacccaaccc"
         inkscape:connector-curvature="0"
         inkscape:original-d="m -51.164338,1597.2386 c 0,0 326.502318,-340.5976 441.966798,-222.7612 99.8081,101.8584 -57.6783,378.7593 -200.28364,378.0445 C 6.9033917,1751.6014 -94.523698,1443.9974 -62.468778,1263.1993 -30.249088,1081.4719 161.00046,881.20072 345.40707,888.7612 c 221.35255,9.07522 463.84913,137.272 451.15809,488.0268 l 1.32654,371.4525 0.21836,-370.6674 C 809.2562,1098.0332 975.18432,899.82878 1182.672,886.47489 c 204.4049,-13.15548 433.2956,226.46641 437.7405,431.24601 4.2246,194.631 125.2534,284.5855 -397.8703,427.5408 l 871.1237,3.0447 0.8149,-867.30986"
         inkscape:path-effect="#path-effect4372-5-0-50-1-0-3"
         id="path4370-9-0-6-5-7"
         d="m -51.164338,1597.2386 c -20.695892,-56.7165 -19.823453,-121.0116 2.403738,-177.1457 22.227192,-56.134 65.607418,-103.5975 119.520974,-130.7711 53.913556,-27.1737 117.871166,-33.8109 176.215666,-18.2868 58.3445,15.5241 110.54641,53.0686 143.82642,103.4424 24.08256,36.4522 38.33598,79.3556 40.69801,122.9808 2.36202,43.6251 -7.1915,87.857 -27.48624,126.5462 -20.29474,38.6892 -51.28996,71.7186 -88.69361,94.2951 -37.40366,22.5765 -81.11454,34.617 -124.8018,34.2224 -53.41596,-0.4825 -106.089025,-19.5514 -149.080364,-51.257 -42.9913399,-31.7056 -76.399964,-75.6732 -97.951817,-124.5508 -43.103704,-97.7551 -38.117132,-211.6344 -5.955417,-313.5148 29.252119,-92.6635 80.628944,-178.7988 151.249654,-245.5441 70.620714,-66.74526 160.672874,-113.55859 256.626194,-128.894 64.00474,-10.22934 130.574,-6.32896 192.05157,14.20772 61.47756,20.53667 117.28941,57.90215 159.32917,107.23678 42.03975,49.3346 69.77912,109.9813 84.1205,173.1918 14.34138,63.2105 15.42538,128.5739 15.65685,193.3905 l 1.32654,371.4525 0.21836,-370.6674 c 0.0347,-58.9789 0.72521,-118.3474 12.09362,-176.2202 11.36841,-57.8729 33.49086,-113.999 67.89715,-161.9022 34.4063,-47.90313 80.77285,-87.11381 133.67297,-113.19232 52.9,-26.07851 111.9234,-39.08847 170.8982,-39.78349 113.9387,-1.34278 227.7753,44.31356 309.013,124.21511 81.2378,79.9015 128.7949,193.0843 128.7275,307.0309 -0.063,107.0692 -41.9874,213.5672 -114.9282,291.9474 -72.9408,78.3802 -176.1538,127.8426 -282.9421,135.5934 l 871.1237,3.0447 0.8149,-867.30986"
         style="fill:none;fill-rule:evenodd;stroke:#000000;stroke-width:140;stroke-linecap:round;stroke-linejoin:round;stroke-miterlimit:4;stroke-dasharray:none;stroke-opacity:1" />
    </g>
  </g>
</svg>
