<?xml version="1.0" encoding="UTF-8" standalone="no"?>
<!-- Created with Inkscape (http://www.inkscape.org/) -->

<svg
   xmlns:dc="http://purl.org/dc/elements/1.1/"
   xmlns:cc="http://creativecommons.org/ns#"
   xmlns:rdf="http://www.w3.org/1999/02/22-rdf-syntax-ns#"
   xmlns:svg="http://www.w3.org/2000/svg"
   xmlns="http://www.w3.org/2000/svg"
   xmlns:sodipodi="http://sodipodi.sourceforge.net/DTD/sodipodi-0.dtd"
   xmlns:inkscape="http://www.inkscape.org/namespaces/inkscape"
   width="2000"
   height="2048"
   id="svg2992"
   version="1.1"
   inkscape:version="0.91pre3 r13670"
   sodipodi:docname="ഭ്ര.svg">
  <defs
     id="defs5498">
    <inkscape:path-effect
       effect="spiro"
       id="path-effect4142-8"
       is_visible="true" />
    <inkscape:path-effect
       effect="spiro"
       id="path-effect4142-8-4"
       is_visible="true" />
  </defs>
  <sodipodi:namedview
     inkscape:window-height="853"
     inkscape:window-width="1600"
     inkscape:pageshadow="2"
     inkscape:pageopacity="0.0"
     borderopacity="1.0"
     bordercolor="#666666"
     pagecolor="#ffffff"
     id="base"
     showgrid="true"
     showguides="true"
     inkscape:guide-bbox="true"
     inkscape:zoom="0.32102648"
     inkscape:cx="284.13082"
     inkscape:cy="758.22547"
     inkscape:window-x="1598"
     inkscape:window-y="-3"
     inkscape:current-layer="layer1"
     inkscape:window-maximized="1">
    <sodipodi:guide
       orientation="horizontal"
       position="0,600"
       id="guide5596" />
    <inkscape:grid
       type="xygrid"
       id="grid3769"
       empspacing="3"
       visible="true"
       enabled="true"
       snapvisiblegridlinesonly="true"
       spacingx="4px"
       units="px"
       dotted="true"
       spacingy="4px" />
    <sodipodi:guide
       orientation="0,1"
       position="-1040,1600"
       id="guide2985" />
  </sodipodi:namedview>
  <metadata
     id="metadata5594">
    <rdf:RDF>
      <cc:Work
         rdf:about="">
        <dc:format>image/svg+xml</dc:format>
        <dc:type
           rdf:resource="http://purl.org/dc/dcmitype/StillImage" />
        <dc:title />
      </cc:Work>
    </rdf:RDF>
  </metadata>
  <g
     inkscape:label="Layer 1"
     inkscape:groupmode="layer"
     id="layer1"
     transform="translate(0,1048)">
    <path
       style="color:#000000;font-style:normal;font-variant:normal;font-weight:normal;font-stretch:normal;font-size:medium;line-height:normal;font-family:sans-serif;text-indent:0;text-align:start;text-decoration:none;text-decoration-line:none;text-decoration-style:solid;text-decoration-color:#000000;letter-spacing:normal;word-spacing:normal;text-transform:none;direction:ltr;block-progression:tb;writing-mode:lr-tb;baseline-shift:baseline;text-anchor:start;white-space:normal;clip-rule:nonzero;display:inline;overflow:visible;visibility:visible;opacity:1;isolation:auto;mix-blend-mode:normal;color-interpolation:sRGB;color-interpolation-filters:linearRGB;solid-color:#000000;solid-opacity:1;fill:#000000;fill-opacity:1;fill-rule:evenodd;stroke:none;stroke-width:140;stroke-linecap:round;stroke-linejoin:round;stroke-miterlimit:4;stroke-dasharray:none;stroke-dashoffset:0;stroke-opacity:1;color-rendering:auto;image-rendering:auto;shape-rendering:auto;text-rendering:auto;enable-background:accumulate"
       d="m 797.15039,-609.61523 c -85.37677,-0.32013 -170.62204,11.94398 -251.91211,35.40429 C 327.91885,-512.38921 135.32856,-322.04969 129.9082,-78.742188 118.83391,147.72645 280.81649,356.76337 501.74414,404.67773 A 70.007,70.007 0 1 0 531.41797,267.85742 C 381.16391,235.27061 261.85144,80.856366 269.75586,-72.693359 a 70.007,70.007 0 0 0 0.0781,-2.197266 C 273.21905,-243.78126 418.86633,-392.75585 583.66016,-439.58789 a 70.007,70.007 0 0 0 0.2832,-0.082 c 137.26018,-39.63622 288.66605,-40.72983 422.33784,3.19336 a 70.007,70.007 0 0 0 0.2813,0.0898 c 34.2203,11.08523 71.2147,39.9535 90.9316,72.03711 19.717,32.08362 24.3042,61.01602 9.7754,92.0957 a 70.007,70.007 0 0 0 -0.3183,0.69336 c -8.9876,19.78561 -21.7286,28.84961 -47.0391,36.22852 -25.3104,7.37891 -60.97458,8.19598 -92.67968,3.81641 a 70.007,70.007 0 0 0 -1.41601,-0.18165 c -41.15042,-4.83162 -90.26589,-5.94872 -140.41407,9.00586 -50.14817,14.95458 -104.92784,53.37819 -125.93164,116.22071 a 70.007,70.007 0 0 0 -1.58984,5.49218 c -17.82923,72.586094 20.46098,142.170122 68.7793,177.470708 48.31831,35.300582 105.376,50.508732 162.00781,46.400392 l -3.95703,0.17578 c 46.36594,-0.73356 90.40866,-3.69 125.24026,0.5 34.8315,4.19 56.8959,12.61498 75.7129,33.01953 a 70.007,70.007 0 0 0 1.8398,1.91992 c 34.7746,34.94765 47.0782,80.56222 41.8496,132.43946 -5.2286,51.87724 -30.7146,106.80858 -65.8633,143.64257 a 70.007,70.007 0 0 0 -1.3925,1.50391 C 993.72891,556.53371 810.85512,589.21691 634.97461,588.9043 a 70.007,70.007 0 0 0 -0.61523,0.002 C 386.35376,590.64418 126.5344,489.82651 -8.84375,285.72266 a 70.007,70.007 0 0 0 -0.6953125,-1.02735 C -142.16153,92.240819 -147.13485,-182.84596 -20.796875,-379.47266 a 70.007,70.007 0 0 0 0.574219,-0.9082 C 3.0017029,-417.77647 30.199876,-452.62652 60.8125,-483.87695 A 70.007,70.007 0 1 0 -39.197266,-581.8457 c -37.82544,38.61352 -71.143154,81.32537 -99.554684,126.97265 -158.30419,246.63017 -152.29441,577.32622 13.60351,818.50782 168.508142,253.56327 474.23182,367.16783 760.10547,365.26757 192.12756,0.31567 419.89657,-31.71114 570.50387,-198.41211 57.7092,-60.80887 94.6698,-140.99263 103.1875,-225.5039 8.517,-84.50439 -14.1216,-176.48843 -81.1054,-244.373049 -46.2867,-49.519879 -107.2496,-69.5926697 -160.8711,-76.042969 -54.017,-6.497861 -104.12175,-2.118075 -144.17581,-1.484374 a 70.007,70.007 0 0 0 -3.95703,0.173828 c -19.49955,1.41459 -52.28469,-7.387953 -69.29101,-19.8125 -15.8645,-11.59035 -19.03696,-14.136863 -16.0625,-28.003907 4.99426,-13.293174 11.71397,-17.858175 32.22461,-23.974609 21.78419,-6.496218 55.50117,-7.47665 84.08007,-4.121094 l -1.41601,-0.179687 c 45.83079,6.33083 98.36248,7.256862 151.02348,-8.095699 52.5586,-15.32273 107.4431,-51.72714 135.1464,-112.38672 36.045,-77.45303 20.935,-161.83878 -17.4726,-224.33594 -38.4395,-62.54899 -98.0573,-109.52772 -166.9317,-131.875 -81.81212,-26.86461 -167.31636,-39.76973 -252.68941,-40.08984 z"
       id="path4138-3-8-6"
       inkscape:connector-curvature="0" />
    <path
       style="fill:none;fill-rule:evenodd;stroke:#000000;stroke-width:140;stroke-linecap:round;stroke-linejoin:round;stroke-miterlimit:4;stroke-dasharray:none;stroke-opacity:1"
       d="m -1205.874,345.75703 c -106.4655,-24.74402 -201.8394,-94.01975 -258.2944,-187.61461 -56.455,-93.594859 -73.2447,-210.271358 -45.4704,-315.9868 17.7509,-67.56414 52.9154,-130.16058 99.4444,-182.26675 46.5291,-52.10617 104.2437,-93.82307 167.2049,-124.0868 125.9224,-60.52745 270.48602,-74.57036 409.43036,-59.92452 42.13224,4.44108 84.21393,11.47337 124.30454,25.1698 40.09061,13.69642 78.27118,34.29131 108.94545,63.51353 30.67427,29.22223 53.52283,67.45251 60.68658,109.20811 7.16376,41.75559 -2.3129,86.88969 -28.87257,119.89625 -18.65271,23.18033 -44.99451,39.72433 -73.5167,48.19403 -28.72497,8.52992 -59.20376,9.08369 -89.13228,7.61159 -29.92852,-1.47209 -59.81469,-4.90258 -89.76844,-4.09258 -29.95376,0.80999 -60.44336,6.11842 -86.48882,20.93454 -13.02273,7.40806 -24.78992,17.16167 -33.89589,29.05925 -9.10597,11.897569 -15.49711,25.971419 -17.72767,40.7868 -2.5533,16.959042 0.41913,34.574201 7.55185,50.170765 7.13271,15.5965644 18.32131,29.196934 31.67082,39.963499 26.69903,21.533129 61.16996,31.403619 95.30587,34.758248 34.13591,3.354629 68.53214,0.710448 102.82419,-0.04392 34.29205,-0.754372 69.19878,0.482844 101.77037,11.234833 32.05994,10.583093 60.907,30.28868 83.246,55.60292 22.339,25.31425 38.21446,56.12498 46.92072,88.74464 17.41253,65.23934 5.7236,136.24594 -24.46772,196.64338 -41.87078,83.7621 -117.40178,147.67193 -202.15364,187.50126 -84.75186,39.82932 -178.51346,57.15778 -271.89605,64.15374 -132.10337,9.89682 -266.50877,-0.40555 -393.18597,-39.16286 -126.6773,-38.75732 -245.4726,-106.67803 -336.8374,-202.60364 -120.2813,-126.28555 -189.1413,-300.18943 -187.9199,-474.585928 1.2215,-174.396502 72.5106,-347.318792 194.549,-471.907172"
       id="path4138-3-8-6-1"
       inkscape:connector-curvature="0"
       sodipodi:nodetypes="caaaaaaaaac"
       inkscape:path-effect="#path-effect4142-8-4"
       inkscape:original-d="m -1205.874,345.75703 c -218.5961,-35.31579 -355.2551,-314.44357 -303.7648,-503.60141 67.3195,-247.30906 424.3627,-414.57209 676.07966,-366.27807 135.4696,25.99098 285.3599,181.34859 265.064,317.78769 -4.3113,28.98291 -46.9401,35.85396 -73.5167,48.19403 -99.9938,46.42903 -311.917,-15.8296 -317.0131,94.2996 -5.63028,121.67254 256.5546,46.53823 339.1231,136.08342 80.668,87.48406 151.0611,230.97697 105.699,340.99094 -68.1969,165.3938 -295.7802,236.625 -474.04969,251.655 -255.43237,21.5357 -580.66627,-33.4352 -730.02337,-241.7665 -183.831,-256.41737 6.6291,-946.4931 6.6291,-946.4931" />
  </g>
</svg>
