<?xml version="1.0" encoding="UTF-8" standalone="no"?>
<!-- Created with Inkscape (http://www.inkscape.org/) -->

<svg
   xmlns:dc="http://purl.org/dc/elements/1.1/"
   xmlns:cc="http://creativecommons.org/ns#"
   xmlns:rdf="http://www.w3.org/1999/02/22-rdf-syntax-ns#"
   xmlns:svg="http://www.w3.org/2000/svg"
   xmlns="http://www.w3.org/2000/svg"
   xmlns:sodipodi="http://sodipodi.sourceforge.net/DTD/sodipodi-0.dtd"
   xmlns:inkscape="http://www.inkscape.org/namespaces/inkscape"
   width="2000"
   height="2048"
   id="svg2992"
   version="1.1"
   inkscape:version="0.91 r13725"
   sodipodi:docname="ഭു.svg">
  <defs
     id="defs5498">
    <inkscape:path-effect
       is_visible="true"
       id="path-effect4142"
       effect="spiro" />
    <inkscape:path-effect
       is_visible="true"
       id="path-effect4140"
       effect="spiro" />
    <inkscape:path-effect
       is_visible="true"
       id="path-effect4140-0"
       effect="spiro" />
    <inkscape:path-effect
       is_visible="true"
       id="path-effect4142-8"
       effect="spiro" />
    <inkscape:path-effect
       is_visible="true"
       id="path-effect4142-8-3"
       effect="spiro" />
    <inkscape:path-effect
       is_visible="true"
       id="path-effect4142-8-9"
       effect="spiro" />
    <inkscape:path-effect
       effect="spiro"
       id="path-effect4142-8-7"
       is_visible="true" />
    <inkscape:path-effect
       effect="spiro"
       id="path-effect4142-8-7-9"
       is_visible="true" />
    <inkscape:path-effect
       effect="spiro"
       id="path-effect4142-8-7-0"
       is_visible="true" />
    <inkscape:path-effect
       effect="spiro"
       id="path-effect4142-8-7-0-8"
       is_visible="true" />
  </defs>
  <sodipodi:namedview
     inkscape:window-height="704"
     inkscape:window-width="1366"
     inkscape:pageshadow="2"
     inkscape:pageopacity="0.0"
     borderopacity="1.0"
     bordercolor="#666666"
     pagecolor="#ffffff"
     id="base"
     showgrid="true"
     showguides="true"
     inkscape:guide-bbox="true"
     inkscape:zoom="0.227"
     inkscape:cx="-3554.2111"
     inkscape:cy="-1665.5903"
     inkscape:window-x="-4"
     inkscape:window-y="0"
     inkscape:current-layer="layer1-7"
     inkscape:window-maximized="1">
    <sodipodi:guide
       orientation="horizontal"
       position="0,600"
       id="guide5596" />
    <inkscape:grid
       type="xygrid"
       id="grid3769"
       empspacing="3"
       visible="true"
       enabled="true"
       snapvisiblegridlinesonly="true"
       spacingx="4px"
       units="px"
       dotted="true"
       spacingy="4px" />
    <sodipodi:guide
       orientation="0,1"
       position="-1040,1600"
       id="guide2985" />
  </sodipodi:namedview>
  <metadata
     id="metadata5594">
    <rdf:RDF>
      <cc:Work
         rdf:about="">
        <dc:format>image/svg+xml</dc:format>
        <dc:type
           rdf:resource="http://purl.org/dc/dcmitype/StillImage" />
        <dc:title />
      </cc:Work>
    </rdf:RDF>
  </metadata>
  <g
     inkscape:label="Layer 1"
     inkscape:groupmode="layer"
     id="layer1"
     transform="translate(0,1048)">
    <g
       id="layer1-6"
       inkscape:label="Layer 1"
       transform="translate(-92.411575,-8.5429461)">
      <g
         transform="translate(1970.6742,4.9990787)"
         id="layer1-7"
         inkscape:label="Layer 1">
        <path
           style="fill:none;fill-rule:evenodd;stroke:#000000;stroke-width:140;stroke-linecap:round;stroke-linejoin:round;stroke-miterlimit:4;stroke-dasharray:none;stroke-opacity:1"
           d="m -1547.4557,357.42993 c -90.422,-77.58877 -152.0616,-187.98564 -170.6702,-305.671134 -18.6086,-117.685498 5.9634,-241.714256 68.0358,-343.415626 66.5384,-109.01852 174.4235,-190.56686 295.1069,-232.37488 120.6834,-41.80802 253.3126,-44.91269 377.85781,-16.61282 72.28918,16.42596 145.22758,45.26407 193.678,101.37196 24.22521,28.05394 41.50794,62.60211 46.38909,99.34526 4.88115,36.74315 -3.208,75.59381 -24.84319,105.69037 -21.17496,29.45634 -54.07139,49.17325 -88.97714,59.05473 -34.90575,9.88148 -71.84045,10.55654 -107.97389,7.32707 -72.26688,-6.45892 -143.91468,-28.21149 -216.10158,-20.91289 -45.9278,4.64362 -91.5188,21.85637 -124.8763,53.76576 -16.6787,15.9547 -30.1024,35.426888 -38.2933,57.005626 -8.1908,21.578737 -11.0638,45.263947 -7.4381,68.058377 3.9106,24.585472 15.31,47.734795 31.3224,66.796328 16.0124,19.061534 36.5246,34.114558 58.8996,45.027829 44.7499,21.82653 95.8471,27.00287 145.6306,26.25698 49.7835,-0.74589 99.4002,-7.05325 149.18817,-6.71838 49.78796,0.33488 100.86317,7.79821 144.09784,32.49064 41.92855,23.94648 74.50505,63.86609 89.38927,109.7997 14.88423,45.93362 11.89179,97.44036 -8.37217,141.2674 -25.08928,54.26329 -75.35253,94.46895 -131.4534,115.12491 -56.10087,20.65596 -117.10794,22.51962 -176.88911,22.95319 l -356.1374,2.58291 c -68.6853,0.49814 -138.9141,-1.18042 -204.2804,19.91842 -32.6831,10.54942 -63.8996,27.52754 -87.1235,52.82831 -11.612,12.65039 -21.1142,27.31678 -27.2755,43.34513 -6.1613,16.02834 -8.9332,33.43207 -7.3581,50.53145 3.0021,32.59131 21.7633,62.43082 46.8513,83.44991 25.0879,21.01909 56.1129,34.00001 87.8928,41.82611 63.5596,15.65219 129.9519,13.78178 195.4037,14.72591 l 697.11555,10.05577"
           id="path4138-3-8-6-7"
           inkscape:connector-curvature="0"
           sodipodi:nodetypes="caaaaaaassasc"
           inkscape:path-effect="#path-effect4142-8-7"
           inkscape:original-d="m -1547.4557,357.42993 c 0,0 -213.3344,-460.0668 -102.6344,-649.08676 120.8743,-206.39257 444.6094,-320.13784 672.96471,-248.9877 119.1638,37.12864 266.61998,192.6667 215.2239,306.40759 -57.03825,126.22714 -288.89091,-15.9357 -413.05261,45.46891 -73.8485,36.52202 -191.3345,99.093613 -170.6077,178.829763 46.4526,178.703677 397.80563,34.067057 529.13861,163.853397 62.54905,61.81244 116.77953,170.729 81.0171,251.0671 -45.79809,102.88261 -214.53554,137.39776 -308.34251,138.0781 l -356.1374,2.58291 c -14.854,0.10773 -330.3925,44.65196 -326.0375,166.62331 4.2653,119.45914 300.9903,139.58134 330.1478,140.00193 l 697.11555,10.05577" />
        <path
           sodipodi:type="inkscape:offset"
           inkscape:radius="0"
           inkscape:original="M -2702.1816 -631.03711 C -2781.192 -630.68673 -2860.377 -618.25614 -2936.123 -592.01562 C -3071.2174 -545.21528 -3192.0858 -454.45381 -3268.0664 -329.96484 C -3339.0438 -213.67329 -3366.7704 -73.717247 -3345.4922 60.851562 C -3324.214 195.42032 -3254.6597 319.99314 -3151.2656 408.71289 A 70.007 70.007 0 1 0 -3060.0977 302.4668 C -3137.5476 236.009 -3191.2719 139.78855 -3207.2109 38.986328 C -3223.1499 -61.815857 -3201.7338 -169.91811 -3148.5664 -257.0293 C -3091.4702 -350.57737 -2996.5674 -422.91285 -2890.2949 -459.72852 C -2783.5878 -496.69477 -2663.857 -499.90013 -2550.8613 -474.22461 C -2485.9138 -459.46686 -2428.1465 -434.14882 -2394.6543 -395.36328 C -2378.2454 -376.36098 -2367.4688 -353.5883 -2364.6738 -332.54883 C -2361.9704 -312.19858 -2367.1677 -290.56428 -2376.9648 -276.93555 C -2386.7251 -263.35812 -2405.657 -250.74875 -2428.1719 -244.375 C -2451.4294 -237.79104 -2479.7886 -236.64202 -2510.8477 -239.41797 C -2573.3205 -245.00154 -2649.5721 -269.41911 -2740.2207 -260.25391 C -2798.7606 -254.33512 -2859.1502 -232.666 -2906.4434 -187.42578 C -2930.1231 -164.77397 -2949.5555 -136.91716 -2961.793 -104.67773 C -2974.0873 -72.28811 -2978.6265 -36.672313 -2972.918 -0.78320312 C -2966.7631 37.911821 -2949.506 72.137663 -2926.0645 100.04297 C -2902.7889 127.75067 -2874.2718 148.31897 -2844.252 162.96094 C -2784.5511 192.07972 -2722.2382 197.12424 -2666.8867 196.29492 C -2611.8894 195.47091 -2562.7805 189.28902 -2519.2168 189.58203 C -2476.1019 189.87202 -2437.2584 196.92888 -2409.3652 212.85938 C -2382.9699 227.9344 -2361.1691 254.69849 -2351.8516 283.45312 C -2342.5457 312.17151 -2344.5719 346.51865 -2357.1699 373.76562 C -2372.8409 407.65902 -2408.0868 437.41424 -2449.2715 452.57812 C -2491.2125 468.02055 -2543.8105 470.79713 -2602.4824 471.22266 L -2958.6191 473.80469 C -3025.818 474.29205 -3103.5475 471.17116 -3183.8945 497.10547 C -3225.0714 510.3965 -3267.2783 532.38603 -3301.084 569.21484 C -3318.0577 587.70636 -3332.4523 609.60085 -3342.1309 634.7793 C -3351.8583 660.0848 -3356.5146 687.95855 -3353.8535 716.84766 C -3348.766 772.07822 -3319.1702 816.60253 -3282.252 847.5332 C -3246.2626 877.68571 -3205.1021 894.07773 -3166.1426 903.67188 C -3090.3361 922.33994 -3018.4477 919.50681 -2955.0117 920.42188 L -2257.8965 930.47656 A 70.007 70.007 0 1 0 -2255.877 790.49219 L -2952.9922 780.43555 C -3020.4598 779.46234 -3081.3551 780.36875 -3132.668 767.73242 C -3157.2683 761.67437 -3178.1572 752.10442 -3192.3438 740.21875 C -3205.6015 729.11125 -3213.5286 713.95791 -3214.4453 704.00586 C -3214.9344 698.69621 -3214.0483 691.7629 -3211.4531 685.01172 C -3208.8091 678.13347 -3204.1976 670.69402 -3197.9473 663.88477 C -3185.3051 650.11204 -3165.08 638.1457 -3140.8906 630.33789 C -3090.5051 614.07452 -3027.7752 614.3097 -2957.6035 613.80078 L -2601.4668 611.21875 C -2540.5763 610.77713 -2471.1592 609.8246 -2400.8984 583.95508 C -2329.8813 557.80705 -2264.6033 507.15272 -2230.0957 432.51953 C -2202.1657 372.11244 -2198.2054 303.44572 -2218.668 240.29688 C -2239.1188 177.18427 -2282.4717 124.10894 -2339.9336 91.291016 C -2398.5098 57.836652 -2461.8145 49.96569 -2518.2754 49.585938 C -2574.2877 49.209192 -2624.4147 55.642775 -2668.9844 56.310547 C -2713.1998 56.973013 -2753.08 51.665133 -2782.8789 37.130859 C -2797.6091 29.9463 -2810.1179 20.409504 -2818.8672 9.9941406 C -2827.45 -0.22303525 -2832.9897 -12.297933 -2834.6562 -22.773438 L -2834.6562 -22.775391 C -2836.1988 -32.474787 -2834.9932 -44.22893 -2830.9062 -54.996094 C -2826.762 -65.914145 -2819.3456 -77.002197 -2809.668 -86.259766 C -2790.2463 -104.83833 -2759.4544 -117.59444 -2726.1387 -120.96289 C -2672.4134 -126.39489 -2605.3715 -107.30694 -2523.3105 -99.972656 C -2482.1028 -96.289663 -2436.5912 -96.490923 -2390.0371 -109.66992 C -2342.7406 -123.05913 -2295.8788 -149.8835 -2263.2891 -195.21875 C -2229.8158 -241.78314 -2218.8357 -297.85028 -2225.8945 -350.98633 C -2232.8619 -403.43316 -2256.6519 -449.7577 -2288.6934 -486.86328 C -2352.102 -560.29352 -2440.211 -592.64997 -2519.8418 -610.74414 C -2579.3832 -624.27349 -2640.7291 -631.30962 -2702.1816 -631.03711 z "
           style="color:#000000;font-style:normal;font-variant:normal;font-weight:normal;font-stretch:normal;font-size:medium;line-height:normal;font-family:sans-serif;text-indent:0;text-align:start;text-decoration:none;text-decoration-line:none;text-decoration-style:solid;text-decoration-color:#000000;letter-spacing:normal;word-spacing:normal;text-transform:none;direction:ltr;block-progression:tb;writing-mode:lr-tb;baseline-shift:baseline;text-anchor:start;white-space:normal;clip-rule:nonzero;display:inline;overflow:visible;visibility:visible;opacity:1;isolation:auto;mix-blend-mode:normal;color-interpolation:sRGB;color-interpolation-filters:linearRGB;solid-color:#000000;solid-opacity:1;fill:#000000;fill-opacity:1;fill-rule:evenodd;stroke:none;stroke-width:140;stroke-linecap:round;stroke-linejoin:round;stroke-miterlimit:4;stroke-dasharray:none;stroke-dashoffset:0;stroke-opacity:1;color-rendering:auto;image-rendering:auto;shape-rendering:auto;text-rendering:auto;enable-background:accumulate"
           id="path4175"
           d="m -2702.1816,-631.03711 c -79.0104,0.35038 -158.1954,12.78097 -233.9414,39.02149 -135.0944,46.80034 -255.9628,137.56181 -331.9434,262.05078 -70.9774,116.29155 -98.704,256.247593 -77.4258,390.816402 21.2782,134.568758 90.8325,259.141578 194.2266,347.861328 a 70.007,70.007 0 1 0 91.1679,-106.24609 c -77.4499,-66.4578 -131.1742,-162.67825 -147.1132,-263.480472 -15.939,-100.802185 5.4771,-208.904438 58.6445,-296.015628 57.0962,-93.54807 151.999,-165.88355 258.2715,-202.69922 106.7071,-36.96625 226.4379,-40.17161 339.4336,-14.49609 64.9475,14.75775 122.7148,40.07579 156.207,78.86133 16.4089,19.0023 27.1855,41.77498 29.9805,62.81445 2.7034,20.35025 -2.4939,41.98455 -12.291,55.61328 -9.7603,13.57743 -28.6922,26.1868 -51.2071,32.56055 -23.2575,6.58396 -51.6167,7.73298 -82.6758,4.95703 -62.4728,-5.58357 -138.7244,-30.00114 -229.373,-20.83594 -58.5399,5.91879 -118.9295,27.58791 -166.2227,72.82813 -23.6797,22.65181 -43.1121,50.50862 -55.3496,82.74805 -12.2943,32.38962 -16.8335,68.005417 -11.125,103.89452688 6.1549,38.69502412 23.412,72.92086612 46.8535,100.82617312 23.2756,27.7077 51.7927,48.276 81.8125,62.91797 59.7009,29.11878 122.0138,34.1633 177.3653,33.33398 54.9973,-0.82401 104.1062,-7.0059 147.6699,-6.71289 43.1149,0.28999 81.9584,7.34685 109.8516,23.27735 26.3953,15.07502 48.1961,41.83911 57.5136,70.59374 9.3059,28.71839 7.2797,63.06553 -5.3183,90.3125 -15.671,33.8934 -50.9169,63.64862 -92.1016,78.8125 -41.941,15.44243 -94.539,18.21901 -153.2109,18.64454 l -356.1367,2.58203 c -67.1989,0.48736 -144.9284,-2.63353 -225.2754,23.30078 -41.1769,13.29103 -83.3838,35.28056 -117.1895,72.10937 -16.9737,18.49152 -31.3683,40.38601 -41.0469,65.56446 -9.7274,25.3055 -14.3837,53.17925 -11.7226,82.06836 5.0875,55.23056 34.6833,99.75487 71.6015,130.68554 35.9894,30.15251 77.1499,46.54453 116.1094,56.13868 75.8065,18.66806 147.6949,15.83493 211.1309,16.75 l 697.1152,10.05468 a 70.007,70.007 0 1 0 2.0195,-139.98437 l -697.1152,-10.05664 c -67.4676,-0.97321 -128.3629,-0.0668 -179.6758,-12.70313 -24.6003,-6.05805 -45.4892,-15.628 -59.6758,-27.51367 -13.2577,-11.1075 -21.1848,-26.26084 -22.1015,-36.21289 -0.4891,-5.30965 0.397,-12.24296 2.9922,-18.99414 2.644,-6.87825 7.2555,-14.3177 13.5058,-21.12695 12.6422,-13.77273 32.8673,-25.73907 57.0567,-33.54688 50.3855,-16.26337 113.1154,-16.02819 183.2871,-16.53711 l 356.1367,-2.58203 c 60.8905,-0.44162 130.3076,-1.39415 200.5684,-27.26367 71.0171,-26.14803 136.2951,-76.80236 170.8027,-151.43555 27.93,-60.40709 31.8903,-129.07381 11.4277,-192.22265 -20.4508,-63.11261 -63.8037,-116.18794 -121.2656,-149.005864 -58.5762,-33.454364 -121.8809,-41.325326 -178.3418,-41.705078 -56.0123,-0.376746 -106.1393,6.056837 -150.709,6.724609 -44.2154,0.662466 -84.0956,-4.645414 -113.8945,-19.179688 -14.7302,-7.184559 -27.239,-16.721355 -35.9883,-27.1367184 -8.5828,-10.21717585 -14.1225,-22.2920736 -15.789,-32.7675786 l 0,-0.002 c -1.5426,-9.699396 -0.337,-21.453539 3.75,-32.220703 4.1442,-10.918051 11.5606,-22.006103 21.2382,-31.263672 19.4217,-18.578564 50.2136,-31.334674 83.5293,-34.703124 53.7253,-5.432 120.7672,13.65595 202.8282,20.990234 41.2077,3.682993 86.7193,3.481733 133.2734,-9.697264 47.2965,-13.38921 94.1583,-40.21358 126.748,-85.54883 33.4733,-46.56439 44.4534,-102.63153 37.3946,-155.76758 -6.9674,-52.44683 -30.7574,-98.77137 -62.7989,-135.87695 -63.4086,-73.43024 -151.5176,-105.78669 -231.1484,-123.88086 -59.5414,-13.52935 -120.8873,-20.56548 -182.3398,-20.29297 z" />
        <ellipse
           style="opacity:0.34599998;fill:#ffffff;fill-opacity:0.94117647;fill-rule:evenodd;stroke-width:120;stroke-miterlimit:4;stroke-dasharray:none"
           id="path4186"
           cx="-3750.2627"
           cy="-244.4561"
           rx="48"
           ry="192" />
        <ellipse
           style="opacity:0.34599998;fill:#ffffff;fill-opacity:0.94117647;fill-rule:evenodd;stroke-width:120;stroke-miterlimit:4;stroke-dasharray:none"
           id="path4191"
           cx="-3606.2627"
           cy="-172.4561"
           rx="48"
           ry="120" />
        <path
           style="fill:none;fill-rule:evenodd;stroke:#000000;stroke-width:70;stroke-linecap:round;stroke-linejoin:round;stroke-miterlimit:4;stroke-dasharray:none;stroke-opacity:1"
           d="m -5670.3787,375.10199 c -92.962,-79.73966 -156.3389,-193.21423 -175.4764,-314.185725 -19.1375,-120.971498 6.1182,-248.467605 69.9273,-353.008225 68.4269,-112.10605 179.3915,-195.9435 303.5045,-238.90837 124.1129,-42.96488 260.4976,-46.12794 388.5719,-17.02519 74.3129,16.88636 149.2957,46.51815 199.1174,104.18396 24.9109,28.83291 42.6882,64.34249 47.7186,102.11262 5.0305,37.77013 -3.2706,77.71122 -25.4999,108.65868 -21.766,30.30238 -55.5955,50.58814 -91.4933,60.75364 -35.8979,10.1655 -73.8839,10.85837 -111.0448,7.53294 -74.3219,-6.65086 -148.0031,-29.04088 -222.2449,-21.54925 -47.2206,4.76496 -94.0979,22.45052 -128.4019,55.24877 -17.152,16.39913 -30.9586,36.415437 -39.3856,58.598956 -8.427,22.18352 -11.3871,46.53421 -7.6653,69.9707453 4.0153,25.2849347 15.735,49.0943187 32.2005,68.6988107 16.4656,19.604491 37.5606,35.085658 60.5717,46.307928 46.0223,22.44454 98.573,27.7598 149.7707,26.98188 51.1976,-0.77792 102.2223,-7.27788 153.4248,-6.94623 51.2024,0.33165 103.7311,7.99494 148.198,33.38193 43.1052,24.60958 76.6022,65.63788 91.9114,112.85352 15.3093,47.21563 12.2397,100.16558 -8.5934,145.21745 -25.8022,55.79752 -77.5061,97.12317 -135.2001,118.34837 -57.6941,21.2252 -120.4263,23.136 -181.8992,23.58162 l -366.2514,2.65495 c -70.6276,0.51198 -142.8404,-1.22118 -210.0615,20.45485 -33.6105,10.83801 -65.7159,28.28498 -89.6044,54.29404 -11.9442,13.00453 -21.7193,28.08316 -28.0582,44.56347 -6.339,16.48031 -9.1917,34.37616 -7.5726,51.95913 3.0862,33.51434 22.3854,64.19694 48.1894,85.8045 25.8041,21.60757 57.7121,34.94582 90.3941,42.98473 65.3639,16.07782 133.6349,14.14783 200.9402,15.11822 l 716.9131,10.33632"
           id="path4138-3-8-6-7-6"
           inkscape:connector-curvature="0"
           sodipodi:nodetypes="caaaaaaassasc"
           inkscape:path-effect="#path-effect4142-8-7-0"
           inkscape:original-d="m -5670.3787,375.10199 c 0,0 -219.3929,-472.901012 -105.5491,-667.19395 124.307,-212.15018 457.236,-329.06849 692.0764,-255.93356 122.548,38.1644 274.1918,198.04141 221.3361,314.95526 -58.6581,129.74842 -297.0952,-16.38025 -424.783,46.73733 -75.9457,37.54085 -196.7683,101.85797 -175.4528,183.8184713 47.7718,183.6888587 409.103,35.0174027 544.1657,168.4243187 64.3254,63.53678 120.096,175.49172 83.318,258.07097 -47.0988,105.75266 -220.6283,141.23071 -317.0993,141.92999 l -366.2514,2.65495 c -15.2758,0.1107 -339.7754,45.89763 -335.2967,171.27149 4.3864,122.79168 309.5382,143.47522 339.5237,143.90745 l 716.9131,10.33632" />
        <path
           style="color:#000000;font-style:normal;font-variant:normal;font-weight:normal;font-stretch:normal;font-size:medium;line-height:normal;font-family:sans-serif;text-indent:0;text-align:start;text-decoration:none;text-decoration-line:none;text-decoration-style:solid;text-decoration-color:#000000;letter-spacing:normal;word-spacing:normal;text-transform:none;direction:ltr;block-progression:tb;writing-mode:lr-tb;baseline-shift:baseline;text-anchor:start;white-space:normal;clip-rule:nonzero;display:inline;overflow:visible;visibility:visible;opacity:1;isolation:auto;mix-blend-mode:normal;color-interpolation:sRGB;color-interpolation-filters:linearRGB;solid-color:#000000;solid-opacity:1;fill:#000000;fill-opacity:1;fill-rule:evenodd;stroke:none;stroke-width:70;stroke-linecap:round;stroke-linejoin:round;stroke-miterlimit:4;stroke-dasharray:none;stroke-dashoffset:0;stroke-opacity:1;color-rendering:auto;image-rendering:auto;shape-rendering:auto;text-rendering:auto;enable-background:accumulate"
           d="m -5015.1914,1941.9102 c -77.4802,0.3345 -154.9372,12.487 -228.6816,38.0156 -131.3193,45.4595 -248.779,133.9027 -321.9297,253.748 -68.2625,111.8367 -95.0962,247.2966 -74.6231,376.711 20.4732,129.4143 87.8098,249.9783 187.2598,335.2832 a 35.0035,35.0035 0 1 0 45.5742,-53.1328 c -86.474,-74.1746 -145.8915,-180.5593 -163.6934,-293.0879 -17.8018,-112.5287 5.8767,-232.0602 65.2325,-329.3047 63.703,-104.3669 168.1715,-183.5981 285.0781,-224.0684 117.1247,-40.5457 247.0627,-43.7624 369.3672,-15.9707 70.6464,16.0533 138.0468,43.9292 180.3886,92.9375 21.0024,24.309 35.525,53.9323 39.5098,83.8516 3.939,29.5746 -2.9188,60.9074 -19.2324,83.6191 -16.0591,22.3574 -42.9042,39.0859 -72.6035,47.4961 -30.0712,8.5155 -63.7667,9.4459 -98.3887,6.3477 -69.4216,-6.2124 -145.4048,-29.935 -228.8789,-21.5117 -53.5256,5.4012 -107.8009,25.3117 -149.0742,64.7734 -20.6532,19.7466 -37.4662,43.9553 -47.918,71.4687 -10.4802,27.5886 -14.2753,57.9044 -9.5137,87.8887 5.1361,32.3423 19.786,61.6907 39.9668,85.7188 20.0979,23.9292 45.1962,42.1707 72.0313,55.2578 53.5003,26.0916 111.6616,31.3397 165.6445,30.5195 53.8058,-0.8175 104.5761,-7.2549 152.666,-6.9434 47.8654,0.31 94.2765,7.7711 131.0703,28.7774 35.3395,20.176 63.4487,54.6283 75.9727,93.2539 12.5179,38.6069 9.9294,82.9744 -7.0684,119.7324 -21.089,45.6055 -65.28,81.7094 -115.5175,100.1914 -50.6174,18.6218 -109.1481,20.9881 -170.0684,21.4297 l -366.25,2.6543 c -69.8821,0.5066 -145.8429,-1.9477 -220.5508,22.1426 -37.8564,12.2071 -75.4568,32.1573 -104.6386,63.9297 -14.6265,15.9248 -26.8501,34.6175 -34.9493,55.6738 -8.1235,21.1202 -11.9199,44.2541 -9.7578,67.7344 4.1291,44.8393 28.8502,82.8664 60.5723,109.4297 31.257,26.1736 68.2331,41.215 104.5039,50.1367 71.4839,17.5831 142.4996,15.1711 208.7949,16.1269 l 716.9141,10.3379 a 35.0035,35.0035 0 1 0 1.0097,-69.9941 l -716.914,-10.336 c -68.3153,-0.9849 -133.8399,0.4631 -193.084,-14.1093 -29.0931,-7.1562 -55.934,-18.7907 -76.2852,-35.8321 -19.8853,-16.6514 -33.7627,-39.989 -35.8066,-62.1777 l 0,-0 c -1.0757,-11.6852 0.8327,-24.3439 5.3867,-36.1836 4.5789,-11.9043 11.908,-23.369 21.1699,-33.4532 18.595,-20.2456 45.2038,-35.1893 74.5684,-44.6582 59.7342,-19.2619 128.1992,-18.2501 199.5723,-18.7675 l 366.2519,-2.6543 c 62.0256,-0.4496 128.9597,-1.9056 193.7305,-25.7344 65.1507,-23.9684 124.3677,-70.5144 154.8828,-136.5039 24.6684,-53.3458 28.2196,-114.8788 10.1191,-170.7031 -18.0944,-55.8056 -56.9806,-103.4119 -107.8515,-132.4551 -52.14,-29.7677 -110.7849,-37.6312 -165.3242,-37.9844 -54.3151,-0.3519 -105.5942,6.2109 -154.1836,6.9492 -48.4123,0.7356 -95.3524,-4.6477 -133.8965,-23.4453 -19.1873,-9.3574 -36.28,-22.0796 -49.1133,-37.3594 -12.7502,-15.1809 -21.539,-33.4501 -24.4336,-51.6777 -2.682,-16.8887 -0.5574,-35.2741 5.8164,-52.0527 6.4023,-16.8536 17.2027,-32.6789 30.8535,-45.7305 27.3347,-26.1349 66.813,-41.5939 107.7285,-45.7227 65.0096,-6.56 136.3892,14.4966 215.6114,21.586 39.6998,3.5526 81.9765,3.0987 123.7011,-8.7168 42.0963,-11.9208 82.912,-35.7643 110.3848,-74.0117 28.145,-39.1834 37.8877,-87.7317 31.7656,-133.6973 -6.076,-45.621 -27.1083,-87.0162 -55.9277,-120.3731 -57.3015,-66.3232 -139.8663,-97.714 -217.8457,-115.4335 -58.5568,-13.3061 -118.8333,-20.1938 -179.0957,-19.9336 z"
           id="path4138-3-8-6-7-6-7"
           inkscape:connector-curvature="0" />
      </g>
    </g>
  </g>
</svg>
