<?xml version="1.0" encoding="UTF-8" standalone="no"?>
<!-- Created with Inkscape (http://www.inkscape.org/) -->

<svg
   xmlns:dc="http://purl.org/dc/elements/1.1/"
   xmlns:cc="http://creativecommons.org/ns#"
   xmlns:rdf="http://www.w3.org/1999/02/22-rdf-syntax-ns#"
   xmlns:svg="http://www.w3.org/2000/svg"
   xmlns="http://www.w3.org/2000/svg"
   xmlns:sodipodi="http://sodipodi.sourceforge.net/DTD/sodipodi-0.dtd"
   xmlns:inkscape="http://www.inkscape.org/namespaces/inkscape"
   width="2000"
   height="2048"
   id="svg2992"
   version="1.1"
   inkscape:version="0.91 r13725"
   sodipodi:docname="ഭൃ.svg">
  <defs
     id="defs5498">
    <inkscape:path-effect
       effect="spiro"
       id="path-effect4142-8"
       is_visible="true" />
    <inkscape:path-effect
       effect="spiro"
       id="path-effect4142-8-1"
       is_visible="true" />
    <inkscape:path-effect
       effect="spiro"
       id="path-effect4142-8-5"
       is_visible="true" />
    <inkscape:path-effect
       effect="spiro"
       id="path-effect4142-8-5-7"
       is_visible="true" />
    <inkscape:path-effect
       effect="spiro"
       id="path-effect4187"
       is_visible="true" />
    <inkscape:path-effect
       effect="spiro"
       id="path-effect4183"
       is_visible="true" />
    <inkscape:path-effect
       effect="spiro"
       id="path-effect4183-1"
       is_visible="true" />
    <inkscape:path-effect
       effect="spiro"
       id="path-effect4142-8-3"
       is_visible="true" />
    <inkscape:path-effect
       effect="spiro"
       id="path-effect4183-9"
       is_visible="true" />
    <inkscape:path-effect
       effect="spiro"
       id="path-effect4142-8-2"
       is_visible="true" />
  </defs>
  <sodipodi:namedview
     inkscape:window-height="844"
     inkscape:window-width="1600"
     inkscape:pageshadow="2"
     inkscape:pageopacity="0.0"
     borderopacity="1.0"
     bordercolor="#666666"
     pagecolor="#ffffff"
     id="base"
     showgrid="true"
     showguides="true"
     inkscape:guide-bbox="true"
     inkscape:zoom="0.25"
     inkscape:cx="-67.386877"
     inkscape:cy="-526.20964"
     inkscape:window-x="1600"
     inkscape:window-y="0"
     inkscape:current-layer="layer1"
     inkscape:window-maximized="1">
    <sodipodi:guide
       orientation="horizontal"
       position="0,600"
       id="guide5596" />
    <inkscape:grid
       type="xygrid"
       id="grid3769"
       empspacing="3"
       visible="true"
       enabled="true"
       snapvisiblegridlinesonly="true"
       spacingx="4px"
       units="px"
       dotted="true"
       spacingy="4px" />
    <sodipodi:guide
       orientation="0,1"
       position="-1040,1600"
       id="guide2985" />
  </sodipodi:namedview>
  <metadata
     id="metadata5594">
    <rdf:RDF>
      <cc:Work
         rdf:about="">
        <dc:format>image/svg+xml</dc:format>
        <dc:type
           rdf:resource="http://purl.org/dc/dcmitype/StillImage" />
        <dc:title />
      </cc:Work>
    </rdf:RDF>
  </metadata>
  <g
     inkscape:label="Layer 1"
     inkscape:groupmode="layer"
     id="layer1"
     transform="translate(0,1048)">
    <path
       style="fill:none;fill-rule:evenodd;stroke:#000000;stroke-width:140;stroke-linecap:round;stroke-linejoin:round;stroke-miterlimit:4;stroke-dasharray:none;stroke-opacity:1"
       d="M 348.37054,340.69984 C 267.74946,288.78839 203.95079,211.18281 168.61504,122.0428 133.2793,32.902791 126.57881,-67.336922 149.73614,-160.38688 c 18.99506,-76.32529 57.66199,-147.40031 109.78157,-206.30626 52.11958,-58.90595 117.49874,-105.70069 189.17349,-138.09038 143.34951,-64.77936 309.37523,-70.6462 462.00961,-32.59106 72.3035,18.02687 145.20259,47.60576 193.68549,104.19351 24.2415,28.29387 41.563,63.02552 46.465,99.96007 4.902,36.93456 -3.1931,75.99108 -24.9266,106.25401 -21.1876,29.50281 -54.0997,49.29612 -89.0571,59.16105 -34.9573,9.86494 -71.96494,10.42218 -108.11198,6.85525 -72.2941,-7.13384 -143.34194,-30.42713 -215.88348,-26.54739 -43.11253,2.30579 -86.64491,14.88892 -120.38907,41.82104 -16.87208,13.46606 -31.08335,30.4048 -40.60257,49.779686 -9.51923,19.374884 -14.25819,41.200951 -12.73107,62.733942 1.35123,19.052772 7.57101,37.6510828 17.28266,54.098509 9.71165,16.447427 22.86271,30.766241 37.95123,42.47823 30.17703,23.423978 67.52629,36.154327 105.23303,42.281143 75.41347,12.25363 153.40996,-0.43482 228.49629,13.68557 71.90696,13.52248 138.67146,52.08119 187.20146,106.83803 48.5299,54.75685 78.7051,125.28112 85.9724,198.08671 8.9721,89.88548 -16.9072,181.92352 -66.9468,257.12946 -50.0396,75.20594 -123.3335,133.78626 -205.5599,171.18566 -82.38766,37.47275 -174.113,54.20306 -264.425,48.23"
       id="path4138-3-8-6"
       inkscape:connector-curvature="0"
       sodipodi:nodetypes="caaaaaaaac"
       inkscape:path-effect="#path-effect4142-8"
       inkscape:original-d="m 348.37054,340.69984 c 0,0 -263.056022,-333.3593562 -198.6344,-501.08672 101.49625,-264.25441 486.84995,-447.6489 760.96467,-376.9877 121.92169,31.42894 268.24129,196.2067 215.22389,310.40759 -58.2404,125.45148 -286.2494,-15.76678 -413.05256,39.46891 -71.01384,30.93376 -187.30885,78.07669 -173.72271,154.334668 24.4275,137.109672 274.57358,73.103058 388.96321,152.543452 112.08646,77.84087 262.00336,168.91819 273.17386,304.92474 13.8516,168.6505 -132.112,333.8472 -272.5067,428.31512 -74.33459,50.0178 -264.425,48.23 -264.425,48.23" />
    <path
       style="fill:none;fill-rule:evenodd;stroke:#000000;stroke-width:70;stroke-linecap:round;stroke-linejoin:round;stroke-miterlimit:4;stroke-dasharray:none;stroke-opacity:1"
       d="m -5409.0439,392.28826 c -94.5864,-78.95152 -160.1013,-191.98058 -181.5963,-313.297929 -21.495,-121.317346 1.1976,-249.975041 62.9004,-356.617931 68.9628,-119.1906 184.742,-208.62077 314.7248,-254.08232 129.9827,-45.46155 273.1518,-48.24216 407.2758,-17.04883 78.0782,18.15873 156.7662,49.81831 208.7998,110.79744 26.0168,30.48957 44.4871,67.95363 49.5478,107.71387 5.0608,39.76025 -3.8995,81.71893 -27.4413,114.15768 -22.8762,31.52166 -58.2012,52.63901 -95.6964,63.17698 -37.4952,10.53797 -77.1691,11.15146 -115.9326,7.36613 -77.527,-7.57064 -153.7349,-32.3797 -231.5208,-28.24361 -46.2491,2.45919 -92.9667,15.87947 -129.1974,44.7302 -18.1153,14.42536 -33.3768,32.585912 -43.5892,53.369655 -10.2124,20.783744 -15.2794,44.207341 -13.5945,67.303177 1.4895,20.416273 8.2142,40.332116 18.6822,57.923706 10.468,17.59159 24.6224,32.883465 40.8426,45.371381 32.4403,24.975831 72.519,38.453711 112.9473,44.913531 80.8564,12.91963 164.5132,-0.64434 244.833,15.27474 57.3483,11.36623 111.6131,37.89248 155.8524,76.11425 44.2393,38.22176 78.3549,88.04472 98.0558,143.08921 19.7008,55.04449 24.9487,115.18233 15.1448,172.81831 -9.8038,57.63598 -34.6304,112.6419 -71.3158,158.16334 -54.4466,67.5606 -133.8108,112.80742 -218.037,133.65986 -84.2262,20.85244 -173.1112,18.35297 -258.2059,1.3894 -51.4161,-10.24977 -103.2815,-26.49053 -143.6086,-59.99278 -20.1636,-16.75113 -37.0755,-37.72166 -47.4889,-61.77848 -10.4134,-24.05682 -14.1136,-51.26063 -8.7062,-76.91076 6.5483,-31.06206 26.2896,-58.60909 52.0298,-77.18804 25.7401,-18.57896 57.1226,-28.53443 88.759,-31.15532 63.2729,-5.24178 125.2954,17.69277 183.3548,43.38405 99.3523,43.96343 194.6022,97.19264 284.1103,158.77156"
       id="path4138-3-8-6-2"
       inkscape:connector-curvature="0"
       sodipodi:nodetypes="caaaaaaaaaac"
       inkscape:path-effect="#path-effect4142-8-5"
       inkscape:original-d="m -5409.0439,392.28826 c 0,0 -231.1063,-472.892333 -118.6959,-669.91586 127.3107,-223.13957 476.5622,-347.63895 722.0006,-271.13115 128.9492,40.19594 287.7869,210.278 230.9063,332.66899 -62.4841,134.448443 -307.1071,-16.89752 -443.1498,42.2995 -76.1883,33.15223 -200.9572,83.67608 -186.3811,165.403032 26.2073,146.942728 313.1751,56.357856 417.3051,163.483358 135.8333,139.74082 286.8159,376.85543 197.7372,550.18511 -75.4239,146.76011 -316.4943,176.37326 -476.2429,135.04926 -90.9312,-23.52222 -226.8775,-108.7443 -199.8037,-198.68202 31.7642,-105.51888 215.284,-82.07049 324.1436,-64.95931 107.1722,16.84595 284.1103,158.77156 284.1103,158.77156" />
    <path
       style="color:#000000;font-style:normal;font-variant:normal;font-weight:normal;font-stretch:normal;font-size:medium;line-height:normal;font-family:sans-serif;text-indent:0;text-align:start;text-decoration:none;text-decoration-line:none;text-decoration-style:solid;text-decoration-color:#000000;letter-spacing:normal;word-spacing:normal;text-transform:none;direction:ltr;block-progression:tb;writing-mode:lr-tb;baseline-shift:baseline;text-anchor:start;white-space:normal;clip-rule:nonzero;display:inline;overflow:visible;visibility:visible;opacity:1;isolation:auto;mix-blend-mode:normal;color-interpolation:sRGB;color-interpolation-filters:linearRGB;solid-color:#000000;solid-opacity:1;fill:#000000;fill-opacity:1;fill-rule:evenodd;stroke:none;stroke-width:70;stroke-linecap:round;stroke-linejoin:round;stroke-miterlimit:4;stroke-dasharray:none;stroke-dashoffset:0;stroke-opacity:1;color-rendering:auto;image-rendering:auto;shape-rendering:auto;text-rendering:auto;enable-background:accumulate"
       d="m -3497.207,-508.49219 c -81.1157,0.11501 -162.2317,12.7673 -239.3633,39.74414 -137.3711,48.04561 -259.7986,142.27202 -333.4649,269.5918 -65.9509,113.985108 -90.0432,250.582114 -67.0683,380.25195 22.9749,129.66989 92.5323,249.67529 193.6308,334.0625 a 35.0035,35.0035 0 1 0 44.8575,-53.74023 c -88.0743,-73.51583 -149.5474,-179.5684 -169.5625,-292.5332 -20.0151,-112.964855 1.2777,-233.683713 58.7324,-332.98438 64.2593,-111.06142 173.3899,-195.69477 295.9844,-238.57227 122.8425,-42.96426 259.4684,-45.84062 387.7929,-15.99609 74.3893,17.30078 145.4967,47.15018 190.1035,99.42578 22.1369,25.94254 37.3916,57.50326 41.4532,89.41407 4.018,31.56763 -3.4542,64.93759 -21.0489,89.18164 -17.1806,23.67357 -45.5573,41.247155 -76.8398,50.039058 -31.6448,8.893727 -66.9602,9.751824 -103.0605,6.226563 -72.3739,-7.067436 -150.3745,-32.953861 -236.7813,-28.359371 -51.7432,2.75133 -105.578,17.61163 -149.1406,52.300777 -21.8197,17.37521 -40.4591,39.386482 -53.1992,65.314453 -12.7818,26.012775 -19.2702,55.39812 -17.0899,85.285156 1.9256,26.393414 10.4759,51.366574 23.5117,73.273434 13.0001,21.84668 30.2033,40.29789 49.5684,55.20703 38.6589,29.76352 84.4178,44.65422 128.7773,51.74219 88.3397,14.11535 171.4964,0.76401 243.5508,15.04492 51.2918,10.16586 100.1882,34.06515 139.7754,68.26758 39.5893,34.20428 70.3454,79.11482 87.9844,128.39844 17.64,49.28622 22.3764,103.52166 13.5937,155.1543 -8.7831,51.63534 -31.1819,101.26768 -64.0644,142.07031 -6.5192,8.08935 -13.4915,15.81861 -20.8164,23.23047 -91.2684,-62.77968 -188.371,-117.03958 -289.6719,-161.86524 -59.4456,-26.30468 -126.8866,-52.35045 -200.4063,-46.25976 -37.0061,3.06575 -74.4778,14.64878 -106.3535,37.65625 -32.1664,23.21745 -57.1774,57.47949 -65.7929,98.34765 -7.1026,33.69111 -2.1999,67.92462 10.834,98.03516 12.9556,29.9299 33.4338,55.01781 57.2421,74.79688 47.3965,39.37524 105.1907,56.64118 159.1329,67.39453 89.031,17.74827 183.0235,20.65142 273.4589,-1.73828 90.7123,-22.45826 176.7939,-71.11723 236.877,-145.67188 40.4882,-50.24025 67.7438,-110.6212 78.5683,-174.25781 10.825,-63.63933 5.0666,-129.67773 -16.6953,-190.48047 -21.7627,-60.80536 -59.2376,-115.54005 -108.1269,-157.7793 -48.8915,-42.24111 -108.5249,-71.39629 -171.9297,-83.96289 -88.5852,-17.55724 -172.7421,-3.77999 -246.1152,-15.5039 -36.4971,-5.83167 -70.8974,-17.89584 -97.1192,-38.08399 -13.0753,-10.06669 -24.1792,-22.20061 -32.1152,-35.53711 -7.9002,-13.27632 -12.8001,-28.13313 -13.8535,-42.572264 -1.1895,-16.304635 2.4565,-33.767554 10.0996,-49.322265 7.6847,-15.639517 19.5695,-29.9483083 33.9804,-41.4238285 28.8989,-23.0123105 68.497,-34.9931035 109.252,-37.1601565 69.165,-3.677691 143.5816,20.053093 226.2617,28.126953 41.4267,4.045385 85.4591,3.676354 128.8047,-8.505859 43.7079,-12.284035 85.981,-36.944706 114.5527,-76.314453 29.489,-40.633447 39.9376,-91.179947 33.834,-139.132817 -6.0598,-47.60967 -27.7458,-90.97707 -57.6426,-126.01367 -59.4603,-69.68266 -145.7289,-103.15324 -227.496,-122.16992 -61.2166,-14.23718 -124.3066,-21.73203 -187.3965,-21.64258 z m -116.4375,1172.12891 c 47.1323,1.19458 96.6687,19.11545 146.2578,41.05859 91.0084,40.27125 178.4541,88.57975 261.1269,143.98633 -36.8041,23.93871 -78.3631,41.60306 -121.5097,52.28516 -78.017,19.31519 -161.7948,17.21792 -242.9532,1.03906 -48.89,-9.7462 -94.8262,-24.96059 -128.0839,-52.58984 -16.5189,-13.72318 -29.8633,-30.57603 -37.7344,-48.75977 -7.793,-18.00309 -10.2923,-38.17795 -6.5801,-55.78711 4.4811,-21.25597 18.9538,-42.08881 38.2676,-56.0293 19.6047,-14.15044 44.8974,-22.47825 71.164,-24.65429 6.6283,-0.54912 13.3118,-0.71949 20.045,-0.54883 z"
       id="path4138-3-8-6-2-2"
       inkscape:connector-curvature="0" />
    <path
       style="fill:none;fill-rule:evenodd;stroke:#000000;stroke-width:140;stroke-linecap:round;stroke-linejoin:round;stroke-miterlimit:4;stroke-dasharray:none;stroke-opacity:1"
       d="m 372,758 c 3.85743,27.08362 16.94009,52.4687 35.269,72.77765 18.32891,20.30895 41.73341,35.68918 66.88747,46.44443 50.30812,21.5105 106.34471,24.63309 161.04823,25.69802 56.49134,1.09974 114.51884,0.0481 167.07912,-20.68585 26.28013,-10.36701 50.84605,-25.69845 70.11974,-46.35385 19.27369,-20.65539 33.0645,-46.79923 37.06624,-74.7654 4.4179,-30.87447 -3.30849,-62.93067 -19.24584,-89.74022 C 874.28661,644.56523 850.47752,622.87104 823.48185,607.25103 769.49052,576.01099 704.93974,569.14307 642.5652,568.4951 579.77096,567.84277 514.60396,573.46508 459.77914,604.0883 432.36673,619.39991 408.1062,640.95334 391.8191,667.79763 375.532,694.64192 367.57265,726.91489 372,758 Z"
       id="path4181"
       inkscape:path-effect="#path-effect4183"
       inkscape:original-d="M 372,758 C 377.39044,858.00947 535.05861,901.61218 635.2047,902.9201 738.11446,904.26411 909.4698,857.115 909.4698,761.115 913.4493,620.0156 752.27952,569.27036 642.5652,568.4951 532.45809,567.71706 366.07376,648.04973 372,758 Z"
       inkscape:connector-curvature="0"
       sodipodi:nodetypes="aacaa" />
    <path
       style="color:#000000;font-style:normal;font-variant:normal;font-weight:normal;font-stretch:normal;font-size:medium;line-height:normal;font-family:sans-serif;text-indent:0;text-align:start;text-decoration:none;text-decoration-line:none;text-decoration-style:solid;text-decoration-color:#000000;letter-spacing:normal;word-spacing:normal;text-transform:none;direction:ltr;block-progression:tb;writing-mode:lr-tb;baseline-shift:baseline;text-anchor:start;white-space:normal;clip-rule:nonzero;display:inline;overflow:visible;visibility:visible;opacity:1;isolation:auto;mix-blend-mode:normal;color-interpolation:sRGB;color-interpolation-filters:linearRGB;solid-color:#000000;solid-opacity:1;fill:#000000;fill-opacity:1;fill-rule:evenodd;stroke:none;stroke-width:140;stroke-linecap:round;stroke-linejoin:round;stroke-miterlimit:4;stroke-dasharray:none;stroke-dashoffset:0;stroke-opacity:1;color-rendering:auto;image-rendering:auto;shape-rendering:auto;text-rendering:auto;enable-background:accumulate"
       d="M 728.17383 2172.9023 C 627.08474 2173.4555 525.84211 2192.9597 431.86523 2235.4277 C 351.69135 2271.6582 278.271 2324.0371 219.0918 2390.9219 C 159.8407 2457.888 115.72067 2538.6607 93.808594 2626.707 C 67.041735 2734.2607 74.697495 2848.8037 115.54102 2951.8379 C 156.38452 3054.8721 229.28717 3143.5518 322.47461 3203.5547 A 70.007 70.007 0 1 0 398.26758 3085.8457 C 330.21284 3042.0256 275.51743 2975.4938 245.68945 2900.248 C 215.86147 2825.0023 210.11624 2739.0639 229.66406 2660.5176 C 245.74213 2595.9133 278.9553 2534.5373 323.94336 2483.6914 C 369.00332 2432.7643 426.34196 2391.5548 489.51758 2363.0059 C 615.8294 2305.9258 766.33303 2299.7828 905.76758 2334.5469 C 971.34751 2350.8974 1029.4608 2376.9507 1063.2285 2416.3633 C 1079.7742 2435.6749 1090.6336 2458.6999 1093.459 2479.9883 C 1096.1918 2500.5789 1090.9606 2522.4266 1081.0684 2536.2012 C 1071.2624 2549.8555 1052.3112 2562.4891 1029.8555 2568.8262 C 1006.663 2575.371 978.42042 2576.4251 947.62891 2573.3867 C 885.69354 2567.275 811.02904 2541.7937 721.13281 2546.6016 C 666.96749 2549.4985 609.19337 2565.0003 560.81641 2603.6113 C 536.55375 2622.9759 515.61243 2647.6044 501.05469 2677.2344 C 486.41505 2707.0309 478.83804 2740.7332 481.32422 2775.7891 C 483.52037 2806.7555 493.35086 2835.4533 508.15625 2860.5273 C 522.89137 2885.4824 542.1049 2906.1322 563.46094 2922.709 C 606.03361 2955.7547 654.75334 2971.374 700.38867 2978.7891 C 790.89461 2993.495 868.22782 2981.0883 927.17578 2992.1738 C 983.06412 3002.6839 1036.7159 3033.5316 1074.9277 3076.6465 C 1113.2225 3119.8548 1137.8239 3177.0627 1143.6328 3235.2578 C 1150.8145 3307.2064 1129.6755 3384.114 1088.0605 3446.6582 C 1062.9641 3484.3764 1030.2731 3517.747 992.73047 3545.4316 C 992.40179 3507.2329 981.01947 3470.9359 962.39453 3439.6055 C 939.28519 3400.7312 906.41054 3371.4178 870.53906 3350.6621 C 799.46312 3309.5368 722.30338 3303.1942 655.29297 3302.498 C 587.81809 3301.7971 509.90216 3306.6141 437.64453 3346.9746 C 401.16691 3367.3497 367.63102 3396.4947 343.97266 3435.4883 C 320.02564 3474.9576 307.66685 3522.4958 314.69922 3571.8711 C 320.81104 3614.7831 340.63559 3652.1299 367.30273 3681.6777 C 393.71217 3710.9402 425.73387 3731.5174 458.63672 3745.5859 C 523.97041 3773.521 589.40601 3775.8077 645.8418 3776.9062 C 670.1737 3777.3799 696.14215 3777.6837 723.0957 3775.9297 C 808.00639 3774.4646 892.30826 3755.5664 969.76172 3720.3379 C 1062.7939 3678.0237 1146.4014 3611.705 1204.6172 3524.2109 C 1263.0816 3436.3431 1293.702 3329.1739 1282.9395 3221.3516 C 1274.2138 3133.9355 1238.4664 3050.0944 1179.7012 2983.7891 C 1120.8532 2917.3903 1040.9743 2871.1208 953.04883 2854.5859 C 861.82413 2837.4306 783.16474 2850.4029 722.84375 2840.6016 C 693.0656 2835.763 667.08606 2825.9194 649.30469 2812.1172 C 640.48368 2805.2702 633.39716 2797.2834 628.70898 2789.3438 C 624.09107 2781.523 621.48092 2773.0239 620.97461 2765.8848 C 620.40653 2757.8747 622.30823 2747.9237 626.70703 2738.9707 C 631.18775 2729.8509 638.66694 2720.6006 648.14844 2713.0332 C 667.2598 2697.7799 696.55157 2688.117 728.61133 2686.4023 C 783.7982 2683.4508 851.22804 2704.5548 933.88086 2712.7109 C 975.38344 2716.8063 1021.1567 2716.7474 1067.8789 2703.5625 C 1115.3378 2690.1695 1162.2121 2663.2165 1194.7812 2617.8652 C 1228.3561 2571.114 1239.3134 2514.8468 1232.2422 2461.5684 C 1225.2636 2408.9876 1201.4802 2362.5515 1169.543 2325.2754 C 1106.3449 2251.5126 1018.6618 2218.4083 939.63477 2198.7051 C 877.44694 2183.2003 813.04959 2174.2948 748.38672 2173.043 C 741.651 2172.9126 734.9131 2172.8655 728.17383 2172.9023 z M 643.00977 3442.4629 C 646.59509 3442.4439 650.20579 3442.4545 653.83789 3442.4922 C 711.57656 3443.092 763.51711 3450.4852 800.42383 3471.8398 C 818.54369 3482.3242 833.28737 3496.3996 842.05273 3511.1445 C 850.54382 3525.4281 854.01025 3542.379 852.17578 3555.1992 C 850.50183 3566.8976 843.76098 3580.8333 833.22461 3592.125 C 822.40475 3603.7205 806.81302 3613.9308 788.5957 3621.1172 C 766.35011 3629.8923 739.93651 3634.2009 710.52148 3636.0234 C 710.52083 3636.0234 710.52018 3636.0234 710.51953 3636.0234 C 700.65572 3635.9911 690.80009 3635.6518 680.97461 3635.002 A 70.007 70.007 0 0 0 657.89453 3637.0781 C 654.80467 3637.0409 651.69857 3636.9946 648.56641 3636.9336 C 595.59515 3635.9024 548.95833 3631.9453 513.67578 3616.8594 C 496.27051 3609.4173 481.48275 3599.2344 471.23438 3587.8789 C 461.2437 3576.809 454.90382 3563.3841 453.30078 3552.1289 C 451.47845 3539.334 455.03883 3522.3267 463.66602 3508.1074 C 472.58185 3493.4124 487.56687 3479.4493 505.91406 3469.2012 C 540.96907 3449.6206 589.22986 3442.748 643.00977 3442.4629 z "
       transform="translate(0,-1048)"
       id="path4138-3-8-6-6" />
  </g>
</svg>
