<?xml version="1.0" encoding="UTF-8" standalone="no"?>
<!-- Created with Inkscape (http://www.inkscape.org/) -->

<svg
   xmlns:dc="http://purl.org/dc/elements/1.1/"
   xmlns:cc="http://creativecommons.org/ns#"
   xmlns:rdf="http://www.w3.org/1999/02/22-rdf-syntax-ns#"
   xmlns:svg="http://www.w3.org/2000/svg"
   xmlns="http://www.w3.org/2000/svg"
   xmlns:sodipodi="http://sodipodi.sourceforge.net/DTD/sodipodi-0.dtd"
   xmlns:inkscape="http://www.inkscape.org/namespaces/inkscape"
   width="2000"
   height="2048"
   id="svg2992"
   version="1.1"
   inkscape:version="0.91 r13725"
   sodipodi:docname="മ.svg">
  <defs
     id="defs5498">
    <inkscape:path-effect
       effect="spiro"
       id="path-effect4170"
       is_visible="true" />
    <inkscape:path-effect
       effect="spiro"
       id="path-effect4166"
       is_visible="true" />
    <inkscape:path-effect
       effect="spiro"
       id="path-effect3006"
       is_visible="true" />
    <inkscape:path-effect
       effect="spiro"
       id="path-effect4842"
       is_visible="true" />
    <inkscape:path-effect
       effect="spiro"
       id="path-effect4842-3"
       is_visible="true" />
    <inkscape:path-effect
       effect="spiro"
       id="path-effect4842-3-9"
       is_visible="true" />
    <inkscape:path-effect
       effect="spiro"
       id="path-effect4842-3-7"
       is_visible="true" />
    <inkscape:path-effect
       effect="spiro"
       id="path-effect4842-3-3"
       is_visible="true" />
    <inkscape:path-effect
       effect="spiro"
       id="path-effect4166-3"
       is_visible="true" />
    <inkscape:path-effect
       effect="spiro"
       id="path-effect4170-7"
       is_visible="true" />
    <inkscape:path-effect
       effect="spiro"
       id="path-effect4170-8"
       is_visible="true" />
    <inkscape:path-effect
       effect="spiro"
       id="path-effect4166-0"
       is_visible="true" />
    <inkscape:path-effect
       effect="spiro"
       id="path-effect4166-32"
       is_visible="true" />
    <inkscape:path-effect
       effect="spiro"
       id="path-effect4170-4"
       is_visible="true" />
    <inkscape:path-effect
       effect="spiro"
       id="path-effect4170-3"
       is_visible="true" />
    <inkscape:path-effect
       effect="spiro"
       id="path-effect4166-2"
       is_visible="true" />
    <inkscape:path-effect
       effect="spiro"
       id="path-effect4170-3-1"
       is_visible="true" />
    <inkscape:path-effect
       effect="spiro"
       id="path-effect4166-2-6"
       is_visible="true" />
  </defs>
  <sodipodi:namedview
     inkscape:window-height="704"
     inkscape:window-width="1366"
     inkscape:pageshadow="2"
     inkscape:pageopacity="0.0"
     borderopacity="1.0"
     bordercolor="#666666"
     pagecolor="#ffffff"
     id="base"
     showgrid="true"
     showguides="true"
     inkscape:guide-bbox="true"
     inkscape:zoom="0.227"
     inkscape:cx="-1525.5894"
     inkscape:cy="-229.97339"
     inkscape:window-x="-6"
     inkscape:window-y="0"
     inkscape:current-layer="layer1"
     inkscape:window-maximized="1">
    <sodipodi:guide
       orientation="horizontal"
       position="0,600"
       id="guide5596" />
    <inkscape:grid
       type="xygrid"
       id="grid3769"
       empspacing="3"
       visible="true"
       enabled="true"
       snapvisiblegridlinesonly="true"
       spacingx="4px"
       units="px"
       dotted="true"
       spacingy="4px" />
    <sodipodi:guide
       orientation="0,1"
       position="-1040,1600"
       id="guide2985" />
  </sodipodi:namedview>
  <metadata
     id="metadata5594">
    <rdf:RDF>
      <cc:Work
         rdf:about="">
        <dc:format>image/svg+xml</dc:format>
        <dc:type
           rdf:resource="http://purl.org/dc/dcmitype/StillImage" />
        <dc:title />
      </cc:Work>
    </rdf:RDF>
  </metadata>
  <g
     inkscape:label="Layer 1"
     inkscape:groupmode="layer"
     id="layer1"
     transform="translate(0,1048)">
    <path
       style="fill:none;fill-rule:evenodd;stroke:#000000;stroke-width:130.40625;stroke-linecap:round;stroke-linejoin:round;stroke-miterlimit:4;stroke-dasharray:none;stroke-opacity:1"
       d="m -3892.3093,1290.5627 c -76.4772,30.073 -165.6774,25.9805 -239.0796,-10.969 -46.9291,-23.6233 -87.1963,-60.0058 -116.4082,-103.6758 -29.212,-43.67 -47.411,-94.4879 -53.7163,-146.6478 -12.6107,-104.31961 23.2965,-211.90382 89.4815,-293.51979 66.185,-81.61596 160.8204,-137.91955 262.0863,-165.97031 101.2658,-28.05075 208.8954,-28.86084 312.5213,-11.44577 110.5024,18.57071 220.3279,59.43664 302.0944,136.05196 40.8832,38.30766 74.0988,85.23054 93.9004,137.64056 19.8017,52.41003 25.8733,110.35012 14.5006,165.20972 -13.0068,62.74183 -48.1662,119.37203 -92.4795,165.65433 -44.3132,46.2822 -97.6069,83.002 -152.3049,116.3763 -246.0396,150.1224 -529.4666,238.4372 -817.2329,254.6468 l 1072.1375,-11.1512 -0.5983,-540.08901"
       id="path4840-4"
       inkscape:path-effect="#path-effect4842-3"
       inkscape:original-d="m -3892.3093,1290.5627 c -479.7788,305.7016 -574.6391,190.367 -239.0796,-10.969 335.5779,-201.3472 238.9205,-1068.39685 493.9646,-721.25947 90.9166,123.74659 577.5192,459.16917 410.4954,438.90224 -73.9815,-8.97672 -90.4034,241.20163 -244.7844,282.03063 -249.2923,65.9295 -817.2329,254.6468 -817.2329,254.6468 l 1072.1375,-11.1512 -0.5983,-540.08901"
       inkscape:connector-curvature="0"
       sodipodi:nodetypes="cssssccc" />
    <path
       style="color:#000000;font-style:normal;font-variant:normal;font-weight:normal;font-stretch:normal;font-size:medium;line-height:normal;font-family:sans-serif;text-indent:0;text-align:start;text-decoration:none;text-decoration-line:none;text-decoration-style:solid;text-decoration-color:#000000;letter-spacing:normal;word-spacing:normal;text-transform:none;direction:ltr;block-progression:tb;writing-mode:lr-tb;baseline-shift:baseline;text-anchor:start;clip-rule:nonzero;display:inline;overflow:visible;visibility:visible;opacity:1;isolation:auto;mix-blend-mode:normal;color-interpolation:sRGB;color-interpolation-filters:linearRGB;solid-color:#000000;solid-opacity:1;fill:#000000;fill-opacity:1;fill-rule:evenodd;stroke:none;stroke-width:130.40625;stroke-linecap:round;stroke-linejoin:round;stroke-miterlimit:4;stroke-dasharray:none;stroke-dashoffset:0;stroke-opacity:1;color-rendering:auto;image-rendering:auto;shape-rendering:auto;text-rendering:auto;enable-background:accumulate"
       d="m -3794.0953,1751.5345 c -64.3176,0.1545 -129.0298,7.9638 -192.2598,25.4785 -112.8262,31.253 -219.2274,93.8995 -295.3242,187.7383 -76.5743,94.4276 -118.5918,218.1519 -103.5703,342.4141 7.4937,61.9907 29.001,122.3783 64.2519,175.0762 35.3028,52.7754 83.7222,96.6848 141.2871,125.6621 90.6247,45.6189 197.8366,50.5392 292.2578,13.4101 a 65.209645,65.209645 0 1 0 -47.7226,-121.3613 c -58.5332,23.0169 -129.7207,19.7506 -185.9004,-8.5293 -36.2934,-18.2695 -68.4082,-47.123 -91.5293,-81.6875 -23.173,-34.6421 -38.0647,-75.8918 -43.1817,-118.2207 -10.1999,-84.3772 19.5989,-175.8206 75.3946,-244.625 56.2731,-69.3932 139.1421,-119.3546 228.8476,-144.2031 90.1229,-24.9642 188.2856,-26.1179 284.3086,-9.9805 102.048,17.1499 199.3677,54.7232 268.3184,119.3301 34.3557,32.1913 61.6595,71.2104 77.4883,113.1054 15.7436,41.6695 20.2344,87.522 11.6504,128.9297 -9.8489,47.5087 -37.8768,94.2612 -75.7305,133.7969 -38.1673,39.8632 -86.5494,73.7019 -139.1699,105.8086 -236.7398,144.4481 -510.0482,229.6101 -786.9375,245.207 a 65.209645,65.209645 0 0 0 4.3437,130.2989 l 1072.1387,-11.1504 a 65.209645,65.209645 0 0 0 64.5234,-65.2715 l -0.5976,-540.0899 a 65.209645,65.209645 0 0 0 -4.2559,-23.8574 c 2.6525,-51.3712 -6.1154,-102.4929 -23.9746,-149.7617 -23.7744,-62.925 -62.9018,-117.7518 -110.3125,-162.1758 -94.5823,-88.6237 -216.9142,-132.7819 -335.8711,-152.7734 -48.6626,-8.1781 -98.4479,-12.6885 -148.4726,-12.5684 z m 492.7421,736.5039 0.2657,240.2676 -406.8457,4.2305 c 86.8135,-35.947 170.8897,-78.5509 251.1777,-127.5391 53.0782,-32.3859 107.3223,-69.2525 155.4023,-116.959 z"
       id="path4840-4-7"
       inkscape:connector-curvature="0" />
    <path
       style="fill:none;fill-rule:evenodd;stroke:#000000;stroke-width:140;stroke-linecap:butt;stroke-linejoin:round;stroke-miterlimit:4;stroke-dasharray:none;stroke-opacity:1"
       d="m -3264,-48 0,384 1056,0 0,-384"
       id="path4162"
       inkscape:connector-curvature="0" />
    <path
       style="fill:none;fill-rule:evenodd;stroke:#000000;stroke-width:140;stroke-linecap:round;stroke-linejoin:round;stroke-miterlimit:4;stroke-dasharray:none;stroke-opacity:1"
       d="m -3264,-48 c 11.0589,-146.24817 86.048,-286.53171 201.5109,-376.97027 115.463,-90.43856 269.625,-129.64201 414.2646,-105.34761 121.3937,20.3899 234.9363,84.66019 314.8976,178.24631 79.9613,93.58613 125.7255,215.76736 126.9216,338.855711"
       id="path4164"
       inkscape:path-effect="#path-effect4166"
       inkscape:original-d="m -3264,-48 c 11.1629,-137.06611 356.3412,-508.25508 615.7755,-482.31788 225.5908,22.55366 424.7249,246.07474 441.8192,517.102021"
       inkscape:connector-curvature="0"
       sodipodi:nodetypes="cac" />
    <path
       style="fill:none;fill-rule:evenodd;stroke:#000000;stroke-width:140;stroke-linecap:round;stroke-linejoin:round;stroke-miterlimit:4;stroke-dasharray:none;stroke-opacity:1"
       d="m -2863.163,-522.32599 c 41.937,-14.85641 88.21,-17.22849 131.4463,-6.73828 43.2364,10.4902 83.2773,33.80414 113.7431,66.22727 48.3729,51.48063 70.869,123.85596 70.3336,194.49522 -0.5353,70.63926 -22.5111,139.76044 -53.6287,203.178784 C -2707.5734,151.48829 -2928.3323,307.75335 -3168,336"
       id="path4168"
       inkscape:path-effect="#path-effect4170"
       inkscape:original-d="m -2863.163,-522.32599 c 0,0 191.8263,-5.51378 245.1894,59.48899 84.1838,102.5462 75.1795,278.58013 16.7049,397.674004 C -2703.2764,142.59379 -2958.1225,229.92261 -3168,336"
       inkscape:connector-curvature="0"
       sodipodi:nodetypes="caac" />
    <path
       style="color:#000000;font-style:normal;font-variant:normal;font-weight:normal;font-stretch:normal;font-size:medium;line-height:normal;font-family:sans-serif;text-indent:0;text-align:start;text-decoration:none;text-decoration-line:none;text-decoration-style:solid;text-decoration-color:#000000;letter-spacing:normal;word-spacing:normal;text-transform:none;direction:ltr;block-progression:tb;writing-mode:lr-tb;baseline-shift:baseline;text-anchor:start;white-space:normal;clip-rule:nonzero;display:inline;overflow:visible;visibility:visible;opacity:1;isolation:auto;mix-blend-mode:normal;color-interpolation:sRGB;color-interpolation-filters:linearRGB;solid-color:#000000;solid-opacity:1;fill:#000000;fill-opacity:1;fill-rule:evenodd;stroke:none;stroke-width:140;stroke-linecap:butt;stroke-linejoin:round;stroke-miterlimit:4;stroke-dasharray:none;stroke-dashoffset:0;stroke-opacity:1;color-rendering:auto;image-rendering:auto;shape-rendering:auto;text-rendering:auto;enable-background:accumulate"
       d="m 753.22015,-610.05711 c -15.5063,0.0456 -30.9948,0.7039 -46.4277,1.9453 -1.3445,-0.0156 -2.689,-0.0414 -4.0332,-0.039 -33.8825,0.0585 -67.6934,5.8348 -99.9219,17.2519 a 70.007,70.007 0 0 0 -2.5391,1.0039 c -78.2003,20.6605 -152.3015,56.8823 -216.5761,107.2266 -131.544,103.0343 -215.5494,260.1839 -228.1485,426.800802 a 70.007,70.007 0 0 0 -0.1992,8.2851 l 0,380.992198 a 70.007,70.007 0 0 0 70,70 l 91.6465,0 a 70.007,70.007 0 0 0 6.3418,0 l 958.01165,0 a 70.007,70.007 0 0 0 70,-70 l 0,-333.70119837 a 70.007,70.007 0 0 0 1.5918,-16.19529963 c -1.3603,-139.986402 -52.7605,-277.212502 -143.6992,-383.646502 -90.9387,-106.4339 -218.46235,-178.6195 -356.52145,-201.8086 -30.897,-5.1896 -62.0732,-7.8617 -93.2031,-8.0996 -2.1078,-0.0161 -4.2151,-0.0218 -6.3223,-0.0156 z m -40.4023,142.2754 c 9.606,0.5391 19.1224,1.9189 28.3359,4.1543 29.7653,7.2218 58.2608,23.8137 79.2344,46.1348 33.3696,35.5135 51.7676,90.6128 51.3476,146.0293 -0.4279,56.4685 -18.4743,115.8139 -46.4726,172.875002 -94.7247,193.0508 -294.881,335.451998 -508.2871,361.997998 l -21.6016,0 0,-311.128898 c 10.1722,-125.044202 75.9274,-247.387802 174.6758,-324.734402 68.7933,-53.8836 154.9542,-86.986 242.7676,-95.3281 z m 276.0918,62.9863 c 42.90595,25.5912 81.73935,57.944 113.91785,95.6055 61.778,72.3043 100.4081,165.7797 108.5469,260.787102 l 0,311.812498 -519.41015,0 c 109.1711,-76.4297 199.6923,-179.489598 258.9844,-300.328098 34.2369,-69.775502 60.14045,-148.672502 60.78315,-233.482402 0.3412,-45.0064 -6.8188,-91.0495 -22.82215,-134.3946 z"
       id="path4162-3"
       inkscape:connector-curvature="0" />
    <path
       style="fill:none;fill-rule:evenodd;stroke:#000000;stroke-width:70;stroke-linecap:butt;stroke-linejoin:round;stroke-miterlimit:4;stroke-dasharray:none;stroke-opacity:1"
       d="m -1431.1894,-44.000887 0,407.241827 1119.08841,0 0,-407.241827"
       id="path4162-0"
       inkscape:connector-curvature="0" />
    <path
       style="fill:none;fill-rule:evenodd;stroke:#000000;stroke-width:70;stroke-linecap:round;stroke-linejoin:round;stroke-miterlimit:4;stroke-dasharray:none;stroke-opacity:1"
       d="m -1431.1894,-44.000887 c 11.6156,-155.052493 91.0414,-303.824783 213.4145,-399.746683 122.3732,-95.92189 285.80976,-137.51662 439.14922,-111.76378 128.71324,21.61695 249.09726,89.78732 333.84346,189.04693 84.7462,99.25962 133.20048,228.84239 134.3712,359.3530038"
       id="path4164-5"
       inkscape:path-effect="#path-effect4166-2"
       inkscape:original-d="m -1431.1894,-44.000887 c 11.8298,-145.362123 377.6301,-539.017523 652.56372,-511.510463 239.06823,23.91874 450.0991,260.96856 468.21466,548.3999338"
       inkscape:connector-curvature="0"
       sodipodi:nodetypes="cac" />
    <path
       style="fill:none;fill-rule:evenodd;stroke:#000000;stroke-width:70;stroke-linecap:round;stroke-linejoin:round;stroke-miterlimit:4;stroke-dasharray:none;stroke-opacity:1"
       d="m -992.4052,-549.03574 c 42.71294,-12.89037 89.00562,-13.68371 132.13517,-2.26445 43.12954,11.41926 82.96447,35.0163 113.70252,67.35404 51.65895,54.34741 75.67488,131.22576 75.04729,206.20505 -0.6276,74.9793 -24.16043,148.29919 -57.34439,215.538412 C -842.02405,167.0874 -1075.609,332.55357 -1329.454,363.24094"
       id="path4168-9"
       inkscape:path-effect="#path-effect4170-3"
       inkscape:original-d="m -992.4052,-549.03574 c 0,0 192.73585,-0.98661 245.83769,65.08959 88.14126,109.6768 79.69659,295.43169 17.7029,421.743462 C -836.95828,158.03751 -1107.0379,250.74315 -1329.454,363.24094"
       inkscape:connector-curvature="0"
       sodipodi:nodetypes="caac" />
    <path
       style="color:#000000;font-style:normal;font-variant:normal;font-weight:normal;font-stretch:normal;font-size:medium;line-height:normal;font-family:sans-serif;text-indent:0;text-align:start;text-decoration:none;text-decoration-line:none;text-decoration-style:solid;text-decoration-color:#000000;letter-spacing:normal;word-spacing:normal;text-transform:none;direction:ltr;block-progression:tb;writing-mode:lr-tb;baseline-shift:baseline;text-anchor:start;white-space:normal;clip-rule:nonzero;display:inline;overflow:visible;visibility:visible;opacity:1;isolation:auto;mix-blend-mode:normal;color-interpolation:sRGB;color-interpolation-filters:linearRGB;solid-color:#000000;solid-opacity:1;fill:#000000;fill-opacity:1;fill-rule:evenodd;stroke:none;stroke-width:70;stroke-linecap:butt;stroke-linejoin:round;stroke-miterlimit:4;stroke-dasharray:none;stroke-dashoffset:0;stroke-opacity:1;color-rendering:auto;image-rendering:auto;shape-rendering:auto;text-rendering:auto;enable-background:accumulate"
       d="M -1159.6777 2177.9688 C -1182.9821 2178.0558 -1206.2649 2179.5171 -1229.3828 2182.3086 C -1247.043 2183.5177 -1264.5973 2186.4112 -1281.7617 2190.9766 C -1370.7213 2209.7134 -1455.4715 2248.3518 -1527.3672 2304.707 C -1657.7823 2406.9325 -1741.7129 2564.1428 -1754.0918 2729.3848 A 35.0035 35.0035 0 0 0 -1754.1895 2733.4844 L -1754.1895 3139.2402 A 35.0035 35.0035 0 0 0 -1719.1895 3174.2402 L -1619.6621 3174.2402 A 35.0035 35.0035 0 0 0 -1616.3535 3174.2402 L -600.10156 3174.2402 A 35.0035 35.0035 0 0 0 -565.10156 3139.2402 L -565.10156 2779.9883 A 35.0035 35.0035 0 0 0 -563.41211 2768.5742 C -564.65868 2629.6096 -615.92827 2492.4979 -706.16406 2386.8086 C -796.39985 2281.1193 -923.77726 2208.9898 -1060.8281 2185.9727 C -1091.4687 2180.8267 -1122.4369 2178.1908 -1153.3906 2177.9785 C -1155.4865 2177.9641 -1157.5821 2177.9609 -1159.6777 2177.9688 z M -1210.3086 2251.7031 C -1192.379 2251.6994 -1174.4559 2253.972 -1157.2285 2258.5332 C -1120.477 2268.2637 -1086.1282 2288.6123 -1059.9355 2316.168 C -1015.9001 2362.4951 -993.95616 2430.6606 -994.51953 2497.9668 C -995.08743 2565.8145 -1016.6285 2634.2354 -1048.25 2698.3086 C -1155.6154 2915.8585 -1378.938 3074.4232 -1619.6914 3104.2402 L -1684.1895 3104.2402 L -1684.1895 2733.418 C -1673.0156 2588.9787 -1598.2003 2449.1705 -1484.1836 2359.7988 C -1423.8148 2312.479 -1352.3384 2279.214 -1277.2266 2261.8887 A 35.0035 35.0035 0 0 0 -1270.293 2260.4707 C -1269.699 2260.2915 -1269.1017 2260.123 -1268.5059 2259.9492 C -1252.7156 2256.5788 -1236.779 2253.9138 -1220.7637 2251.9668 C -1217.2814 2251.794 -1213.7955 2251.7038 -1210.3086 2251.7031 z M -1006.7246 2270.582 C -911.39664 2299.8762 -824.04436 2356.547 -759.40039 2432.2617 C -688.14963 2515.7147 -644.07554 2622.7871 -635.10156 2732.2461 L -635.10156 3104.2402 L -1371.9668 3104.2402 C -1206.4554 3026.6964 -1066.7902 2894.0455 -985.47852 2729.2871 C -950.73204 2658.8819 -925.20877 2580.6636 -924.52148 2498.5527 C -923.83938 2417.0606 -949.19208 2332.712 -1006.7246 2270.582 z "
       transform="translate(0,-1048)"
       id="path4162-0-6" />
  </g>
</svg>
