<?xml version="1.0" encoding="UTF-8" standalone="no"?>
<!-- Created with Inkscape (http://www.inkscape.org/) -->

<svg
   xmlns:dc="http://purl.org/dc/elements/1.1/"
   xmlns:cc="http://creativecommons.org/ns#"
   xmlns:rdf="http://www.w3.org/1999/02/22-rdf-syntax-ns#"
   xmlns:svg="http://www.w3.org/2000/svg"
   xmlns="http://www.w3.org/2000/svg"
   xmlns:sodipodi="http://sodipodi.sourceforge.net/DTD/sodipodi-0.dtd"
   xmlns:inkscape="http://www.inkscape.org/namespaces/inkscape"
   width="2000"
   height="2048"
   id="svg2992"
   version="1.1"
   inkscape:version="0.91 r13725"
   sodipodi:docname="മ്പ.svg">
  <defs
     id="defs5498">
    <inkscape:path-effect
       effect="spiro"
       id="path-effect4186"
       is_visible="true" />
    <inkscape:path-effect
       is_visible="true"
       id="path-effect3846"
       effect="spiro" />
    <inkscape:path-effect
       is_visible="true"
       id="path-effect3801"
       effect="spiro" />
    <inkscape:path-effect
       is_visible="true"
       id="path-effect4372-5-0"
       effect="spiro" />
    <inkscape:path-effect
       is_visible="true"
       id="path-effect4372-5-0-5"
       effect="spiro" />
    <inkscape:path-effect
       is_visible="true"
       id="path-effect4372-5-0-53"
       effect="spiro" />
    <inkscape:path-effect
       is_visible="true"
       id="path-effect3846-9"
       effect="spiro" />
    <inkscape:path-effect
       is_visible="true"
       id="path-effect3801-3"
       effect="spiro" />
    <inkscape:path-effect
       is_visible="true"
       id="path-effect4372-5-0-50"
       effect="spiro" />
    <inkscape:path-effect
       is_visible="true"
       id="path-effect4372-5-0-5-8"
       effect="spiro" />
    <inkscape:path-effect
       is_visible="true"
       id="path-effect4372-5-0-53-2"
       effect="spiro" />
    <inkscape:path-effect
       is_visible="true"
       id="path-effect4372-5-0-50-1"
       effect="spiro" />
    <inkscape:path-effect
       is_visible="true"
       id="path-effect4372-5-0-50-1-7"
       effect="spiro" />
    <inkscape:path-effect
       is_visible="true"
       id="path-effect4372-5-0-50-1-7-6"
       effect="spiro" />
    <inkscape:path-effect
       is_visible="true"
       id="path-effect4372-5-0-50-1-7-63"
       effect="spiro" />
    <inkscape:path-effect
       is_visible="true"
       id="path-effect4372-5-0-50-1-7-63-1"
       effect="spiro" />
    <inkscape:path-effect
       is_visible="true"
       id="path-effect4372-5-0-50-1-7-63-1-9"
       effect="spiro" />
    <inkscape:path-effect
       is_visible="true"
       id="path-effect4372-5-0-50-1-7-4"
       effect="spiro" />
  </defs>
  <sodipodi:namedview
     inkscape:window-height="844"
     inkscape:window-width="1600"
     inkscape:pageshadow="2"
     inkscape:pageopacity="0.0"
     borderopacity="1.0"
     bordercolor="#666666"
     pagecolor="#ffffff"
     id="base"
     showgrid="true"
     showguides="true"
     inkscape:guide-bbox="true"
     inkscape:zoom="0.5"
     inkscape:cx="1403.0372"
     inkscape:cy="-273.63079"
     inkscape:window-x="1600"
     inkscape:window-y="0"
     inkscape:current-layer="layer1-2"
     inkscape:window-maximized="1">
    <sodipodi:guide
       orientation="horizontal"
       position="0,600"
       id="guide5596" />
    <inkscape:grid
       type="xygrid"
       id="grid3769"
       empspacing="3"
       visible="true"
       enabled="true"
       snapvisiblegridlinesonly="true"
       spacingx="4px"
       units="px"
       dotted="true"
       spacingy="4px" />
    <sodipodi:guide
       orientation="0,1"
       position="-1040,1600"
       id="guide2985" />
  </sodipodi:namedview>
  <metadata
     id="metadata5594">
    <rdf:RDF>
      <cc:Work
         rdf:about="">
        <dc:format>image/svg+xml</dc:format>
        <dc:type
           rdf:resource="http://purl.org/dc/dcmitype/StillImage" />
        <dc:title />
      </cc:Work>
    </rdf:RDF>
  </metadata>
  <g
     inkscape:label="Layer 1"
     inkscape:groupmode="layer"
     id="layer1"
     transform="translate(0,1048)">
    <g
       id="layer1-2"
       inkscape:label="Layer 1"
       transform="translate(253.59372,-238.29924)">
      <path
         sodipodi:nodetypes="caacccaaccc"
         inkscape:connector-curvature="0"
         inkscape:original-d="m 360.10544,589.47648 c -196.07152,96.37414 -474.32112,-207.85463 -489.4554,-422.94924 -14.68843,-208.75803 203.704837,-479.53989 412.87563,-472.96375 204.09961,6.41671 374.33285,288.119596 373.08071,485.89218 l -3.26992,411.55189 6.48941,-410.73717 c 0,-54.95359 191.13937,-481.69235 402.05073,-489.07948 183.0562,-6.41151 372.4491,215.942006 377.7954,399.032456 6.1275,209.843634 -405.5748,481.825874 -405.5748,481.825874 l 772.3234,-2.29949 -2.9938,-877.77882"
         inkscape:path-effect="#path-effect4372-5-0-50-1-7"
         id="path4370-9-0-6-0"
         d="M 360.10544,589.47648 C 240.9871,596.61252 119.67061,555.54597 29.379189,477.52315 -60.912235,399.50034 -119.13701,285.4213 -129.34996,166.52724 c -10.0617,-117.133354 26.91198,-238.274721 103.355455,-327.59357 76.443472,-89.31884 191.956545,-144.86795 309.520175,-145.37018 58.07701,-0.24811 116.34473,12.62247 168.2292,38.71846 51.88448,26.096 96.99034,65.43285 130.13456,113.12416 33.14422,47.69131 54.06122,103.276624 64.54748,160.3996356 10.48627,57.1230114 10.6309,115.5742244 10.16947,173.6499244 l -3.26992,411.55189 6.48941,-410.73717 C 660.78008,119.87519 662.35614,59.102642 674.67232,-0.03112684 686.98849,-59.164896 710.1503,-116.45918 746.00426,-165.06972 c 35.85395,-48.61054 84.14143,-88.05086 139.18847,-112.91678 55.04704,-24.86592 116.43637,-35.15049 176.68387,-30.82259 99.7328,7.16433 195.4683,54.78515 263.504,128.05933 68.0357,73.27419 108.2451,171.166301 114.2914,270.973126 7.0024,115.590154 -31.9638,233.336914 -106.5375,321.930904 -74.5736,88.594 -183.947,147.07584 -299.0373,159.89497 l 772.3234,-2.29949 -2.9938,-877.77882"
         style="fill:none;fill-rule:evenodd;stroke:#000000;stroke-width:140;stroke-linecap:round;stroke-linejoin:round;stroke-miterlimit:4;stroke-dasharray:none;stroke-opacity:1" />
      <path
         sodipodi:nodetypes="cacccaaccc"
         inkscape:connector-curvature="0"
         inkscape:original-d="m -3832.8992,1808.5163 c -370.1781,182.3599 -371.5891,-821.30333 -80.786,-934.55497 200.7907,-78.19683 394.8937,304.62677 393.5728,513.73037 l -3.4495,435.1309 4.8459,-434.2695 c 0,-58.102 203.4295,-500.08046 426.1341,-517.10028 210.5071,-16.08765 457.2993,211.05158 472.3915,421.89418 15.8471,221.3918 -427.8519,509.4311 -427.8519,509.4311 l 869.601,-0.6604 -3.1583,-929.84017"
         inkscape:path-effect="#path-effect4372-5-0-50-1-7-63-1"
         id="path4370-9-0-6-0-4-8"
         d="m -3832.8992,1808.5163 c -130.6964,28.1567 -272.9122,-2.4526 -380.452,-81.8853 -107.5399,-79.4326 -178.6094,-206.3632 -190.1235,-339.5615 -11.5141,-133.1982 36.7194,-270.4418 129.033,-367.1504 92.3136,-96.70861 227.167,-151.2687 360.7565,-145.95777 60.9964,2.42495 121.7382,16.97948 176.1296,44.6925 54.3915,27.71301 102.0078,68.66794 137.2604,118.50467 35.2526,49.8366 57.7867,108.0684 69.1222,168.0513 11.3356,59.9829 11.5445,121.4393 11.0606,182.4819 l -3.4495,435.1309 4.8459,-434.2695 c 0.7092,-63.5571 2.1802,-127.5566 15.5439,-189.6969 13.3637,-62.1404 38.6976,-122.0997 77.2772,-172.6132 38.5797,-50.51364 89.9866,-91.05474 147.8965,-117.255 57.91,-26.20026 121.8587,-38.18312 185.4165,-37.53518 115.4613,1.17707 230.2363,44.67255 316.6387,121.27104 86.4024,76.59854 143.4702,185.81094 155.7528,300.62314 13.1722,123.1271 -25.8208,250.9891 -105.4594,345.8125 -79.6386,94.8234 -198.8412,155.3204 -322.3925,163.6186 l 869.601,-0.6604 -3.1583,-929.84017"
         style="fill:none;fill-rule:evenodd;stroke:#000000;stroke-width:70;stroke-linecap:round;stroke-linejoin:round;stroke-miterlimit:4;stroke-dasharray:none;stroke-opacity:1" />
      <path
         style="color:#000000;font-style:normal;font-variant:normal;font-weight:normal;font-stretch:normal;font-size:medium;line-height:normal;font-family:sans-serif;text-indent:0;text-align:start;text-decoration:none;text-decoration-line:none;text-decoration-style:solid;text-decoration-color:#000000;letter-spacing:normal;word-spacing:normal;text-transform:none;direction:ltr;block-progression:tb;writing-mode:lr-tb;baseline-shift:baseline;text-anchor:start;white-space:normal;clip-rule:nonzero;display:inline;overflow:visible;visibility:visible;opacity:1;isolation:auto;mix-blend-mode:normal;color-interpolation:sRGB;color-interpolation-filters:linearRGB;solid-color:#000000;solid-opacity:1;fill:#000000;fill-opacity:1;fill-rule:evenodd;stroke:none;stroke-width:70;stroke-linecap:round;stroke-linejoin:round;stroke-miterlimit:4;stroke-dasharray:none;stroke-dashoffset:0;stroke-opacity:1;color-rendering:auto;image-rendering:auto;shape-rendering:auto;text-rendering:auto;enable-background:accumulate"
         d="m -4117.0293,-364.28125 c -68.1956,-0.69522 -137.1262,12.10945 -200.2012,40.64648 -63.1764,28.58303 -119.0833,72.64486 -161.2832,127.89844 -27.418,35.89942 -48.3917,75.8323 -63.7148,117.619142 -13.2904,-37.200172 -31.152,-72.951892 -54.2969,-105.671872 -38.6128,-54.58706 -90.4879,-99.18439 -149.9453,-129.47852 -59.3663,-30.24778 -124.9996,-45.86938 -190.6289,-48.47851 -144.0309,-5.72604 -287.9341,52.49632 -387.4629,156.76367 -99.5288,104.26735 -151,250.722976 -138.5859,394.33203 12.414,143.60904 88.254,279.05813 204.1992,364.69922 115.9451,85.64108 267.7055,118.30467 408.6172,87.94726 a 35.0035,35.0035 0 1 0 -14.7422,-68.42968 c -120.4812,25.95595 -253.1526,-2.60006 -352.2871,-75.82422 -99.1346,-73.22418 -165.4327,-191.63436 -176.0469,-314.42188 -10.6142,-122.78749 34.3821,-250.818884 119.4805,-339.96875 85.0983,-89.14987 210.9006,-140.04817 334.0488,-135.15234 56.3635,2.24077 112.2143,15.72604 161.6309,40.9043 49.3256,25.13188 92.6818,62.44492 124.5742,107.53125 31.8904,45.08363 52.7733,98.611987 63.3047,154.339839 10.5401,55.773751 10.9349,114.928481 10.4531,175.705081 l -3.4492,435.13086 a 35.0035,35.0035 0 0 0 69.998,0.66797 l 4.8457,-434.26954 c 0.7061,-63.27932 2.3276,-124.901264 14.7637,-182.7285112 12.4251,-57.7757568 35.9184,-112.9586688 70.875,-158.7285188 34.9595,-45.77359 81.8645,-82.79383 134.5078,-106.61133 52.7451,-23.86348 111.7128,-35.02448 170.6328,-34.42382 106.9092,1.08988 213.9666,41.7081 293.7774,112.46289 79.7696,70.7183 132.8573,172.411414 144.1699,278.156248 12.1224,113.314412 -24.1692,232.311682 -97.461,319.578122 -73.2917,87.26643 -184.2307,143.57013 -297.9355,151.20703 a 35.0035,35.0035 0 0 0 2.3711,69.92188 l 869.6015,-0.66016 a 35.0035,35.0035 0 0 0 34.9727,-35.11914 l -3.1582,-929.83984 a 35.0035,35.0035 0 1 0 -70,0.23828 l 3.041,894.74805 -610.2461,0.46289 c 47.0086,-28.12069 89.5395,-63.7688 124.9571,-105.93946 85.9854,-102.3804 127.6809,-239.10515 113.4589,-372.044918 -13.2526,-123.879552 -74.3007,-240.611162 -167.3359,-323.089842 -92.994,-82.44219 -215.4866,-128.81583 -339.5,-130.08008 z"
         id="path4370-9-0-6-0-4-8-7"
         inkscape:connector-curvature="0" />
      <path
         style="color:#000000;font-style:normal;font-variant:normal;font-weight:normal;font-stretch:normal;font-size:medium;line-height:normal;font-family:sans-serif;text-indent:0;text-align:start;text-decoration:none;text-decoration-line:none;text-decoration-style:solid;text-decoration-color:#000000;letter-spacing:normal;word-spacing:normal;text-transform:none;direction:ltr;block-progression:tb;writing-mode:lr-tb;baseline-shift:baseline;text-anchor:start;white-space:normal;clip-rule:nonzero;display:inline;overflow:visible;visibility:visible;opacity:1;isolation:auto;mix-blend-mode:normal;color-interpolation:sRGB;color-interpolation-filters:linearRGB;solid-color:#000000;solid-opacity:1;fill:#000000;fill-opacity:1;fill-rule:evenodd;stroke:none;stroke-width:140;stroke-linecap:round;stroke-linejoin:round;stroke-miterlimit:4;stroke-dasharray:none;stroke-dashoffset:0;stroke-opacity:1;color-rendering:auto;image-rendering:auto;shape-rendering:auto;text-rendering:auto;enable-background:accumulate"
         d="m 959.33789,1059.252 c -36.96524,0.4446 -74.32947,5.6877 -111.36914,16.2187 -115.41866,29.1339 -204.2287,106.4636 -259.61523,203.3945 l 0.60937,1.1075 c -0.0866,-0.1617 -0.18473,-0.3132 -0.27148,-0.4747 -0.11743,-0.2096 -0.22007,-0.4212 -0.33789,-0.6308 -0.003,0.01 -0.006,0.012 -0.01,0.018 -106.22546,-196.8372 -357.70463,-266.8137 -555.277344,-178.7969 -0.02003,0.01 -0.04051,0.016 -0.06055,0.025 -239.506749,94.2263 -359.519309,373.7785 -285.078129,613.9492 64.48576,238.2132 299.751977,403.5295 545.38086,385.2207 a 70.007,70.007 0 1 0 -10.40625,-139.6133 c -175.03488,13.0469 -354.943939,-113.7956 -400.20703,-283.4121 a 70.007,70.007 0 0 0 -0.82226,-2.8398 c -52.79364,-168.8595 39.170583,-380.4174 204.732419,-444.0235 a 70.007,70.007 0 0 0 3.390625,-1.4062 c 130.111926,-57.988 308.411546,-7.274 375.552736,118.084 a 70.007,70.007 0 0 0 0.70312,1.2812 c 66.22948,117.6908 43.1153,271.519 47.02149,439.4453 l -1.93555,243.6524 a 70.007,70.007 0 0 0 139.97656,2.3379 c 4.58579,-180.2069 1.73728,-357.9549 12.49805,-532.2911 8.97548,-130.1221 96.28689,-259.0389 219.46289,-289.58 a 70.007,70.007 0 0 0 2.42969,-0.6504 c 157.38122,-45.0833 342.46622,65.8988 391.31252,221.7246 a 70.007,70.007 0 0 0 1.0703,3.1465 c 63.7276,173.9037 -29.9333,395.7166 -199.1797,471.2441 a 70.007,70.007 0 0 0 -7.2754,3.7715 c -2.8302,1.6846 -108.55845,33.054 -109.666,33.2812 a 70.007,70.007 0 0 0 14.27734,138.5723 c 252.79466,-0.7527 505.59006,-1.5051 758.38476,-2.2578 a 70.007,70.007 0 0 0 69.791,-70.2383 c -0.9979,-292.5929 -1.9962,-585.1864 -2.9941,-877.7793 a 70.007,70.007 0 1 0 -139.9981,0.4766 c 0.9183,269.2498 1.8376,538.5002 2.7559,807.75 -129.8449,0.3866 -259.6902,0.7735 -389.5352,1.1601 145.3958,-137.9953 205.8092,-358.4023 135.4297,-552.5527 -61.4518,-193.5508 -250.203,-331.7269 -450.74021,-329.3144 z"
         id="path4370-9-0-6-0-3"
         inkscape:connector-curvature="0" />
    </g>
  </g>
</svg>
