<?xml version="1.0" encoding="UTF-8" standalone="no"?>
<!-- Created with Inkscape (http://www.inkscape.org/) -->

<svg
   xmlns:dc="http://purl.org/dc/elements/1.1/"
   xmlns:cc="http://creativecommons.org/ns#"
   xmlns:rdf="http://www.w3.org/1999/02/22-rdf-syntax-ns#"
   xmlns:svg="http://www.w3.org/2000/svg"
   xmlns="http://www.w3.org/2000/svg"
   xmlns:sodipodi="http://sodipodi.sourceforge.net/DTD/sodipodi-0.dtd"
   xmlns:inkscape="http://www.inkscape.org/namespaces/inkscape"
   width="2000"
   height="2048"
   id="svg2992"
   version="1.1"
   inkscape:version="0.91 r13725"
   sodipodi:docname="മ്പ്ര.svg">
  <defs
     id="defs5498">
    <inkscape:path-effect
       effect="spiro"
       id="path-effect4151"
       is_visible="true" />
    <inkscape:path-effect
       effect="spiro"
       id="path-effect4149-1"
       is_visible="true" />
    <inkscape:path-effect
       is_visible="true"
       id="path-effect4372-5-0-50-1-7"
       effect="spiro" />
    <inkscape:path-effect
       effect="spiro"
       id="path-effect4149-1-2"
       is_visible="true" />
    <inkscape:path-effect
       is_visible="true"
       id="path-effect4372-5-0-50-1-7-7"
       effect="spiro" />
    <inkscape:path-effect
       is_visible="true"
       id="path-effect4372-5-0-50-1-7-2"
       effect="spiro" />
    <inkscape:path-effect
       is_visible="true"
       id="path-effect4372-5-0-50-1-7-2-2"
       effect="spiro" />
    <inkscape:path-effect
       effect="spiro"
       id="path-effect4151-1"
       is_visible="true" />
    <inkscape:path-effect
       effect="spiro"
       id="path-effect4151-8"
       is_visible="true" />
    <inkscape:path-effect
       is_visible="true"
       id="path-effect4372-5-0-50-1-7-2-27"
       effect="spiro" />
    <inkscape:path-effect
       is_visible="true"
       id="path-effect4372-5-0-50-1-7-2-27-0"
       effect="spiro" />
    <inkscape:path-effect
       effect="spiro"
       id="path-effect4151-8-7"
       is_visible="true" />
  </defs>
  <sodipodi:namedview
     inkscape:window-height="704"
     inkscape:window-width="1366"
     inkscape:pageshadow="2"
     inkscape:pageopacity="0.0"
     borderopacity="1.0"
     bordercolor="#666666"
     pagecolor="#ffffff"
     id="base"
     showgrid="true"
     showguides="true"
     inkscape:guide-bbox="true"
     inkscape:zoom="0.32102648"
     inkscape:cx="-2669.3433"
     inkscape:cy="-927.56536"
     inkscape:window-x="-4"
     inkscape:window-y="0"
     inkscape:current-layer="layer1"
     inkscape:window-maximized="1">
    <sodipodi:guide
       orientation="horizontal"
       position="0,600"
       id="guide5596" />
    <inkscape:grid
       type="xygrid"
       id="grid3769"
       empspacing="3"
       visible="true"
       enabled="true"
       snapvisiblegridlinesonly="true"
       spacingx="4px"
       units="px"
       dotted="true"
       spacingy="4px" />
    <sodipodi:guide
       orientation="0,1"
       position="-1040,1600"
       id="guide2985" />
  </sodipodi:namedview>
  <metadata
     id="metadata5594">
    <rdf:RDF>
      <cc:Work
         rdf:about="">
        <dc:format>image/svg+xml</dc:format>
        <dc:type
           rdf:resource="http://purl.org/dc/dcmitype/StillImage" />
        <dc:title />
      </cc:Work>
    </rdf:RDF>
  </metadata>
  <g
     inkscape:label="Layer 1"
     inkscape:groupmode="layer"
     id="layer1"
     transform="translate(0,1048)">
    <path
       style="fill:none;fill-rule:evenodd;stroke:#000000;stroke-width:70;stroke-linecap:round;stroke-linejoin:round;stroke-miterlimit:4;stroke-dasharray:none;stroke-opacity:1"
       d="m -1394.4933,290.74246 4,173.47531 c 1.1843,51.36348 0.3712,103.70616 -15.834,152.46067 -16.2051,48.75452 -46.8976,92.57642 -87.2515,124.37536 -36.123,28.46499 -79.0805,47.41272 -123.4554,59.49535 -44.375,12.08262 -90.311,17.57131 -136.2191,20.32237 -91.8163,5.50212 -183.9121,2.62332 -275.8925,2.9757 l -679.1698,2.60193 c -213.585,0.81825 -431.135,-3.34843 -633.6121,-71.3353 -202.4772,-67.98687 -386.9857,-201.45696 -492.6481,-387.07665 -83.2866,-146.31159 -115.2763,-321.174842 -89.1834,-487.4965 26.093,-166.32166 110.094,-322.98798 234.1841,-436.76577"
       id="path4149-1"
       inkscape:path-effect="#path-effect4151-8"
       inkscape:original-d="m -1394.4933,290.74246 4,173.47531 c 1.8998,82.39121 -26.7581,214.62491 -103.0855,276.83603 -140.0241,114.12759 -409.2862,82.30963 -535.567,82.79342 l -679.1698,2.60193 c -771.2921,46.56342 -926.8605,-105.39603 -1126.2602,-458.41195 -153.3595,-271.506495 145.0007,-924.26227 145.0007,-924.26227"
       inkscape:connector-curvature="0"
       sodipodi:nodetypes="csascac" />
    <path
       sodipodi:nodetypes="cacccaaccc"
       inkscape:connector-curvature="0"
       inkscape:original-d="m 824.24481,336.35825 c -350.9039,172.47818 -352.24144,-776.79827 -76.57977,-883.91299 190.33615,-73.95953 374.33286,288.11959 373.08076,485.892184 l -3.27,411.551886 6.4894,-410.737166 c 0,-54.953594 191.6425,-472.753684 402.0508,-489.079484 199.3308,-15.46631 433.4891,199.61508 447.7954,399.03245 15.0221,209.394944 -405.5748,481.82588 -405.5748,481.82588 l 824.3234,-6.29949 -2.9938,-873.77882"
       inkscape:path-effect="#path-effect4372-5-0-50-1-7-2"
       id="path4370-9-0-6-0"
       d="M 824.24481,336.35825 C 700.77824,362.68046 566.56579,333.57457 465.09477,258.47141 363.62374,183.36826 296.57802,63.514159 285.68165,-62.255956 c -10.89637,-125.770114 34.53742,-255.369124 121.58,-346.804574 87.04259,-91.43545 214.24951,-143.19 340.40339,-138.49421 57.76915,2.15032 115.32629,15.80628 166.88327,41.9554 51.55698,26.14912 96.71019,64.87133 130.14359,112.03176 33.4334,47.16044 54.8097,102.29655 65.5624,159.09688 10.7527,56.80034 10.9508,115.00081 10.4915,172.808144 l -3.27,411.551886 6.4894,-410.737166 c 0.9469,-59.935114 2.6019,-120.274994 15.3446,-178.847514 12.7426,-58.57252 36.6423,-115.08584 72.9393,-162.78955 36.2969,-47.70371 84.6095,-86.11189 139.0989,-111.09238 54.4894,-24.98048 114.7261,-36.64051 174.668,-36.35004 109.4371,0.53032 218.4011,41.52299 300.3434,114.06416 81.9423,72.54116 135.9541,176.13558 147.452,284.96829 12.3156,116.572446 -24.7415,237.561353 -100.229,327.24105 -75.4875,89.6797 -188.3812,146.83344 -305.3458,154.58483 l 824.3234,-6.29949 -2.9938,-873.77882"
       style="fill:none;fill-rule:evenodd;stroke:#000000;stroke-width:140;stroke-linecap:round;stroke-linejoin:round;stroke-miterlimit:4;stroke-dasharray:none;stroke-opacity:1" />
    <path
       style="fill:none;fill-rule:evenodd;stroke:#000000;stroke-width:140;stroke-linecap:round;stroke-linejoin:round;stroke-miterlimit:4;stroke-dasharray:none;stroke-opacity:1"
       d="m 2392,280 0,170 c 0,50.32298 -1.774,101.47879 -17.8753,149.15635 -16.1014,47.67756 -45.7924,90.77662 -85.1514,122.13376 -35.2754,28.10377 -77.3917,46.77198 -120.9074,58.62748 -43.5158,11.85551 -88.5766,17.17423 -133.6017,19.80513 -90.0501,5.26179 -180.3623,2.35683 -270.5653,2.70224 l -665.8638,2.54977 C 888.65198,805.77651 675.38553,801.70522 476.8774,735.09848 278.36928,668.49173 97.443519,537.70307 -6.1598747,355.74628 -87.797722,212.36719 -119.15247,40.994038 -93.569651,-122.00234 -67.98683,-284.99873 14.362073,-438.52572 136,-550"
       id="path4149"
       inkscape:path-effect="#path-effect4151"
       inkscape:original-d="m 2392,280 0,170 c 0,80.76212 -27.8463,210.42233 -103.0267,271.29011 -137.6449,111.44049 -401.2677,80.66076 -525.0744,81.13485 l -665.8638,2.54977 C 341.85386,850.6053 189.33329,701.69017 -6.1598747,355.74628 -156.51474,89.678935 136,-550 136,-550"
       inkscape:connector-curvature="0"
       sodipodi:nodetypes="csascac" />
    <path
       style="color:#000000;font-style:normal;font-variant:normal;font-weight:normal;font-stretch:normal;font-size:medium;line-height:normal;font-family:sans-serif;text-indent:0;text-align:start;text-decoration:none;text-decoration-line:none;text-decoration-style:solid;text-decoration-color:#000000;letter-spacing:normal;word-spacing:normal;text-transform:none;direction:ltr;block-progression:tb;writing-mode:lr-tb;baseline-shift:baseline;text-anchor:start;white-space:normal;clip-rule:nonzero;display:inline;overflow:visible;visibility:visible;opacity:1;isolation:auto;mix-blend-mode:normal;color-interpolation:sRGB;color-interpolation-filters:linearRGB;solid-color:#000000;solid-opacity:1;fill:#000000;fill-opacity:1;fill-rule:evenodd;stroke:none;stroke-width:140;stroke-linecap:round;stroke-linejoin:round;stroke-miterlimit:4;stroke-dasharray:none;stroke-dashoffset:0;stroke-opacity:1;color-rendering:auto;image-rendering:auto;shape-rendering:auto;text-rendering:auto;enable-background:accumulate"
       d="M -55.572266 2173.7324 A 70.007 70.007 0 0 0 -104.57031 2192.7949 C -238.20819 2315.2665 -327.8914 2482.4684 -355.99805 2661.5449 C -384.10469 2840.6214 -349.95729 3027.2593 -260.26562 3184.7832 C -146.46019 3384.6577 48.78893 3524.546 261.33594 3595.8633 C 473.36329 3667.0063 694.55482 3670.181 905.02734 3669.375 L 1570.8926 3666.8262 C 1659.4139 3666.4872 1751.0048 3669.5121 1845.2734 3664.0039 C 1893.068 3661.2112 1942.9739 3655.5387 1993.1914 3641.8574 C 2043.6364 3628.1141 2094.6191 3606.0496 2139.3164 3570.4395 C 2189.7058 3530.2945 2226.8136 3476.2318 2247.1699 3415.9551 C 2267.6291 3355.3736 2268.7246 3296.3685 2268.7246 3244.4004 L 2268.7246 3127.1543 A 70.007 70.007 0 0 0 2269.2852 3118.793 L 2266.291 2245.0137 A 70.007 70.007 0 0 0 2194.9941 2174.2695 A 70.007 70.007 0 0 0 2126.291 2245.4941 L 2129.0469 3049.5684 L 1699.3066 3052.8516 C 1711.4094 3041.1281 1722.9552 3028.7827 1733.8613 3015.8262 C 1822.0555 2911.0509 1864.5371 2772.3471 1850.1484 2636.1523 C 1836.7318 2509.1576 1774.7615 2390.4711 1679.4844 2306.125 C 1584.2812 2221.8443 1459.7717 2175.0885 1333.0801 2174.4746 C 1263.8335 2174.139 1193.6559 2187.5054 1128.9023 2217.1914 C 1063.9529 2246.9672 1006.7259 2292.4138 963.26758 2349.5293 C 951.61405 2364.8451 941.1925 2380.8356 931.76953 2397.2773 C 924.64109 2384.6834 917.00335 2372.3084 908.52539 2360.3496 C 868.34987 2303.6788 814.65487 2257.6744 752.93945 2226.373 C 691.40685 2195.1644 624.04677 2179.3903 556.99609 2176.8945 C 409.989 2171.4225 264.71972 2230.5266 163.28906 2337.0762 C 61.858408 2443.6259 9.9723821 2591.6277 22.669922 2738.1875 C 35.367463 2884.7473 111.93361 3021.621 230.17773 3109.1387 C 348.42186 3196.6563 501.69088 3229.8939 645.56641 3199.2207 A 70.007 70.007 0 1 0 616.375 3062.2988 C 513.31739 3084.27 398.16276 3059.296 313.46484 2996.6074 C 228.7669 2933.9187 171.24169 2831.0839 162.14648 2726.1035 C 153.05128 2621.1232 192.03299 2509.9267 264.6875 2433.6055 C 337.342 2357.2843 446.48642 2312.8792 551.78711 2316.7988 C 600.27473 2318.6036 648.02801 2330.1409 689.60938 2351.2305 C 731.00793 2372.2273 767.61924 2403.6681 794.31055 2441.3184 C 820.99825 2478.9634 839.06225 2524.6755 848.20117 2572.9512 C 857.35764 2621.3194 857.92773 2674.9075 857.47266 2732.1816 L 854.20312 3143.7344 A 70.007 70.007 0 0 0 994.19141 3145.3965 L 994.19922 3144.8477 L 1000.6816 2734.6602 C 1001.62 2675.2712 1003.5481 2619.6307 1014.4355 2569.5859 C 1025.3015 2519.6399 1045.5505 2472.5886 1074.6816 2434.3027 C 1103.8174 2396.0108 1143.2147 2364.6402 1187.2441 2344.4551 C 1231.4694 2324.1802 1281.7651 2314.2273 1332.4023 2314.4727 C 1424.5849 2314.9193 1518.0041 2350.1495 1586.6855 2410.9512 C 1655.293 2471.6873 1701.3447 2560.1907 1710.9238 2650.8613 C 1721.1664 2747.8113 1689.5348 2851.0858 1626.7539 2925.6699 C 1563.973 3000.2541 1467.6082 3049.0397 1370.332 3055.4863 A 70.007 70.007 0 0 0 1375.4961 3195.3301 L 2128.7246 3189.5742 L 2128.7246 3244.4004 C 2128.7246 3293.0783 2126.2728 3336.3866 2114.5293 3371.1602 C 2102.6828 3406.2386 2080.4087 3438.3741 2052.0801 3460.9434 C 2026.2266 3481.5408 1992.9771 3496.8136 1956.3906 3506.7812 C 1919.5765 3516.811 1879.3611 3521.7751 1837.1055 3524.2441 C 1751.2739 3529.2594 1662.2402 3526.4743 1570.3555 3526.8262 L 904.49219 3529.377 C 696.19845 3530.1746 490.85805 3525.2073 305.86914 3463.1367 C 121.39989 3401.2406 -45.202176 3279.5508 -138.60352 3115.5117 C -212.18753 2986.2774 -240.7504 2830.1683 -217.69141 2683.252 C -194.63241 2536.3357 -119.61843 2396.4848 -9.9804688 2296.0078 A 70.007 70.007 0 0 0 -55.572266 2173.7324 z "
       transform="translate(0,-1048)"
       id="path4370-9-0-6-0-9" />
    <path
       sodipodi:nodetypes="cacccaacccc"
       inkscape:connector-curvature="0"
       inkscape:original-d="m -3051.2035,372.07303 c -370.7125,182.63412 -372.1256,-822.53802 -80.9028,-935.95992 201.0808,-78.31444 395.4641,305.08478 394.1413,514.502702 l -3.4545,435.785038 6.8557,-434.922346 c 0,-58.189404 202.4607,-500.590574 424.7467,-517.877674 210.583,-16.377 457.9597,211.3689 473.0736,422.52845 15.8701,221.724628 -428.4696,510.19695 -428.4696,510.19695 l 870.8567,-4.67043 -0.2259,-68.07199 -2.937,-859.15703"
       inkscape:path-effect="#path-effect4372-5-0-50-1-7-2-27"
       id="path4370-9-0-6-0-2"
       d="m -3051.2035,372.07303 c -130.897,28.20763 -273.3349,-2.44336 -381.0431,-81.99609 -107.7082,-79.55272 -178.8895,-206.679665 -190.4207,-340.084049 -11.5313,-133.404381 36.7799,-270.860051 129.2397,-367.714971 92.4599,-96.85491 227.5255,-151.49284 361.3213,-146.16481 61.0859,2.43257 121.9161,17.01203 176.3862,44.76843 54.47,27.7564 102.1547,68.77328 137.4578,118.68421 35.303,49.91094 57.8693,108.22861 69.221,168.29978 11.3517,60.07117 11.5609,121.61787 11.0763,182.750282 l -3.4545,435.785038 6.8557,-434.922346 c 0.9993,-63.392074 2.7431,-127.209894 16.1818,-189.169204 13.4387,-61.95931 38.6459,-121.75573 76.9591,-172.26955 38.3133,-50.51382 89.3345,-91.23286 146.9209,-117.7538 57.5864,-26.52094 121.2855,-38.95292 184.6849,-38.68512 115.7584,0.48896 231.0108,43.98697 317.5677,120.85155 86.5568,76.86458 143.4729,186.54453 155.5059,301.6769 12.882,123.255676 -26.2784,251.11453 -105.9768,346.01483 -79.6985,94.9003 -198.8655,155.56862 -322.4928,164.18212 l 870.8567,-4.67043 c -0.075,-22.69066 -0.1504,-45.38133 -0.2259,-68.07199 -0.9525,-286.3857665 -1.9315,-572.77144 -2.937,-859.15703"
       style="fill:none;fill-rule:evenodd;stroke:#000000;stroke-width:70;stroke-linecap:round;stroke-linejoin:round;stroke-miterlimit:4;stroke-dasharray:none;stroke-opacity:1" />
    <path
       style="color:#000000;font-style:normal;font-variant:normal;font-weight:normal;font-stretch:normal;font-size:medium;line-height:normal;font-family:sans-serif;text-indent:0;text-align:start;text-decoration:none;text-decoration-line:none;text-decoration-style:solid;text-decoration-color:#000000;letter-spacing:normal;word-spacing:normal;text-transform:none;direction:ltr;block-progression:tb;writing-mode:lr-tb;baseline-shift:baseline;text-anchor:start;white-space:normal;clip-rule:nonzero;display:inline;overflow:visible;visibility:visible;opacity:1;isolation:auto;mix-blend-mode:normal;color-interpolation:sRGB;color-interpolation-filters:linearRGB;solid-color:#000000;solid-opacity:1;fill:#000000;fill-opacity:1;fill-rule:evenodd;stroke:none;stroke-width:70;stroke-linecap:round;stroke-linejoin:round;stroke-miterlimit:4;stroke-dasharray:none;stroke-dashoffset:0;stroke-opacity:1;color-rendering:auto;image-rendering:auto;shape-rendering:auto;text-rendering:auto;enable-background:accumulate"
       d="M -2092.043 2075.3418 C -2160.1154 2075.0548 -2228.7958 2088.3522 -2291.5137 2117.2363 C -2354.3291 2146.1655 -2409.7981 2190.4105 -2451.6797 2245.6289 C -2479.5743 2282.4063 -2500.7395 2323.3523 -2516.1035 2366.1465 C -2529.5494 2327.3609 -2548.0006 2290.1086 -2572.0586 2256.0957 C -2610.7216 2201.4346 -2662.6637 2156.7752 -2722.1992 2126.4375 C -2781.6439 2096.1462 -2847.3654 2080.4979 -2913.084 2077.8809 C -3057.3215 2072.1369 -3201.4396 2130.4379 -3301.1152 2234.8516 C -3400.7908 2339.2653 -3452.3393 2485.9325 -3439.9082 2629.748 C -3427.477 2773.5636 -3351.5243 2909.2095 -3235.4102 2994.9707 C -3119.2961 3080.732 -2967.3137 3113.4364 -2826.2012 3083.0273 A 35.0035 35.0035 0 1 0 -2840.9473 3014.5996 C -2961.6287 3040.6059 -3094.5198 3012.0084 -3193.8223 2938.6641 C -3293.1247 2865.3199 -3359.5366 2746.7119 -3370.168 2623.7188 C -3380.7992 2500.7254 -3335.7264 2372.4817 -3250.4824 2283.1855 C -3165.2383 2193.8894 -3039.2232 2142.9139 -2915.8691 2147.8262 C -2859.4159 2150.0743 -2803.476 2163.5851 -2753.9805 2188.8066 C -2704.576 2213.9818 -2661.1502 2251.3569 -2629.207 2296.5176 C -2597.2659 2341.6756 -2576.3504 2395.2891 -2565.8027 2451.1055 C -2555.2464 2506.9678 -2554.8515 2566.2118 -2555.334 2627.0781 L -2558.7891 3062.8633 A 35.0035 35.0035 0 0 0 -2488.7949 3063.6934 L -2488.7949 3063.418 L -2481.9414 2628.7715 C -2480.9464 2565.6508 -2479.0671 2504.1756 -2466.5508 2446.4688 C -2454.0452 2388.811 -2430.6535 2333.7387 -2395.9102 2287.9316 C -2361.1653 2242.1225 -2314.5917 2204.9292 -2262.2344 2180.8164 C -2209.7806 2156.6593 -2151.0649 2145.0937 -2092.3398 2145.3418 C -1985.2509 2145.7942 -1877.7881 2186.3881 -1797.8633 2257.3633 C -1717.9709 2328.3096 -1665.0135 2430.4382 -1653.9277 2536.5078 C -1642.0681 2649.9811 -1678.5234 2769.0066 -1751.8965 2856.375 C -1825.2695 2943.7434 -1936.2041 3000.2225 -2050.0195 3008.1523 A 35.0035 35.0035 0 0 0 -2047.4004 3078.0664 L -1209.4258 3073.5723 L -1207.8535 3141.7656 C -1206.6904 3192.2122 -1207.9594 3240.4072 -1221.9102 3282.3789 C -1235.923 3324.5379 -1262.7591 3362.8411 -1297.6113 3390.3047 C -1329.0698 3415.094 -1367.6496 3432.3695 -1408.5996 3443.5195 C -1449.6592 3454.6995 -1493.1918 3460.0056 -1537.7168 3462.6738 C -1627.4104 3468.0487 -1718.8503 3465.2323 -1811.6504 3465.5879 L -2490.8203 3468.1895 C -2703.8591 3469.0057 -2917.4417 3464.392 -3113.1562 3398.6758 C -3308.6121 3333.0464 -3485.9644 3204.1277 -3586.5293 3027.4629 C -3665.7909 2888.2221 -3696.3847 2720.9888 -3671.5527 2562.7051 C -3646.7208 2404.4213 -3566.3842 2254.5917 -3448.291 2146.3125 A 35.0035 35.0035 0 0 0 -3471.1016 2085.1816 A 35.0035 35.0035 0 0 0 -3495.5996 2094.7188 C -3625.6866 2213.9951 -3713.3531 2377.4978 -3740.707 2551.8574 C -3768.061 2726.2169 -3734.6749 2908.7093 -3647.3633 3062.0918 C -3536.6034 3256.6664 -3344.9378 3394.6887 -3135.4395 3465.0332 C -2926.1997 3535.2908 -2704.684 3539.0098 -2490.5527 3538.1895 L -1811.3828 3535.5879 C -1720.2223 3535.2386 -1627.4683 3538.1781 -1533.5293 3532.5488 C -1486.2381 3529.7148 -1437.8993 3524.046 -1390.209 3511.0605 C -1342.4092 3498.0454 -1295.0747 3477.4258 -1254.2871 3445.2852 C -1208.4315 3409.1509 -1173.8817 3359.809 -1155.4844 3304.459 C -1137.0247 3248.9217 -1136.6676 3192.4327 -1137.873 3140.1523 L -1141.873 2966.6758 A 35.0035 35.0035 0 0 0 -1141.9746 2964.9219 C -1142.9216 2680.2957 -1143.8952 2395.671 -1144.8945 2111.0449 A 35.0035 35.0035 0 1 0 -1214.8926 2111.291 C -1213.8871 2397.6745 -1212.9095 2684.0578 -1211.957 2970.4414 C -1211.92 2981.4892 -1211.884 2992.5363 -1211.8477 3003.584 L -1822.2617 3006.8574 C -1775.6553 2978.7645 -1733.4752 2943.2856 -1698.293 2901.3926 C -1612.269 2798.9603 -1570.4022 2662.2705 -1584.3066 2529.2324 C -1597.2868 2405.0372 -1658.1614 2287.8044 -1751.3828 2205.0215 C -1844.5708 2122.2684 -1967.6125 2075.8684 -2092.0391 2075.3418 L -2092.043 2075.3418 z "
       transform="translate(0,-1048)"
       id="path4149-1-9" />
  </g>
</svg>
