<?xml version="1.0" encoding="UTF-8" standalone="no"?>
<!-- Created with Inkscape (http://www.inkscape.org/) -->

<svg
   xmlns:dc="http://purl.org/dc/elements/1.1/"
   xmlns:cc="http://creativecommons.org/ns#"
   xmlns:rdf="http://www.w3.org/1999/02/22-rdf-syntax-ns#"
   xmlns:svg="http://www.w3.org/2000/svg"
   xmlns="http://www.w3.org/2000/svg"
   xmlns:sodipodi="http://sodipodi.sourceforge.net/DTD/sodipodi-0.dtd"
   xmlns:inkscape="http://www.inkscape.org/namespaces/inkscape"
   width="2000"
   height="2048"
   id="svg2992"
   version="1.1"
   inkscape:version="0.91pre2 r13516"
   sodipodi:docname="മ്പ.svg">
  <defs
     id="defs5498">
    <inkscape:path-effect
       effect="spiro"
       id="path-effect4186"
       is_visible="true" />
    <inkscape:path-effect
       is_visible="true"
       id="path-effect3846"
       effect="spiro" />
    <inkscape:path-effect
       is_visible="true"
       id="path-effect3801"
       effect="spiro" />
    <inkscape:path-effect
       is_visible="true"
       id="path-effect4372-5-0"
       effect="spiro" />
    <inkscape:path-effect
       is_visible="true"
       id="path-effect4372-5-0-5"
       effect="spiro" />
    <inkscape:path-effect
       is_visible="true"
       id="path-effect4372-5-0-53"
       effect="spiro" />
    <inkscape:path-effect
       is_visible="true"
       id="path-effect3846-9"
       effect="spiro" />
    <inkscape:path-effect
       is_visible="true"
       id="path-effect3801-3"
       effect="spiro" />
    <inkscape:path-effect
       is_visible="true"
       id="path-effect4372-5-0-50"
       effect="spiro" />
    <inkscape:path-effect
       is_visible="true"
       id="path-effect4372-5-0-5-8"
       effect="spiro" />
    <inkscape:path-effect
       is_visible="true"
       id="path-effect4372-5-0-53-2"
       effect="spiro" />
    <inkscape:path-effect
       is_visible="true"
       id="path-effect4372-5-0-50-1"
       effect="spiro" />
  </defs>
  <sodipodi:namedview
     inkscape:window-height="853"
     inkscape:window-width="1600"
     inkscape:pageshadow="2"
     inkscape:pageopacity="0.0"
     borderopacity="1.0"
     bordercolor="#666666"
     pagecolor="#ffffff"
     id="base"
     showgrid="true"
     showguides="true"
     inkscape:guide-bbox="true"
     inkscape:zoom="0.32102648"
     inkscape:cx="1372.6947"
     inkscape:cy="1147.7022"
     inkscape:window-x="1598"
     inkscape:window-y="-3"
     inkscape:current-layer="layer1-2"
     inkscape:window-maximized="1">
    <sodipodi:guide
       orientation="horizontal"
       position="0,600"
       id="guide5596" />
    <inkscape:grid
       type="xygrid"
       id="grid3769"
       empspacing="3"
       visible="true"
       enabled="true"
       snapvisiblegridlinesonly="true"
       spacingx="4px"
       units="px"
       dotted="true"
       spacingy="4px" />
    <sodipodi:guide
       orientation="0,1"
       position="-1040,1600"
       id="guide2985" />
  </sodipodi:namedview>
  <metadata
     id="metadata5594">
    <rdf:RDF>
      <cc:Work
         rdf:about="">
        <dc:format>image/svg+xml</dc:format>
        <dc:type
           rdf:resource="http://purl.org/dc/dcmitype/StillImage" />
        <dc:title />
      </cc:Work>
    </rdf:RDF>
  </metadata>
  <g
     inkscape:label="Layer 1"
     inkscape:groupmode="layer"
     id="layer1"
     transform="translate(0,1048)">
    <g
       id="layer1-2"
       inkscape:label="Layer 1"
       transform="translate(253.59372,-238.29924)">
      <path
         style="color:#000000;font-style:normal;font-variant:normal;font-weight:normal;font-stretch:normal;font-size:medium;line-height:normal;font-family:sans-serif;text-indent:0;text-align:start;text-decoration:none;text-decoration-line:none;text-decoration-style:solid;text-decoration-color:#000000;letter-spacing:normal;word-spacing:normal;text-transform:none;direction:ltr;block-progression:tb;writing-mode:lr-tb;baseline-shift:baseline;text-anchor:start;clip-rule:nonzero;display:inline;overflow:visible;visibility:visible;opacity:1;isolation:auto;mix-blend-mode:normal;color-interpolation:sRGB;color-interpolation-filters:linearRGB;solid-color:#000000;solid-opacity:1;fill:#000000;fill-opacity:1;fill-rule:evenodd;stroke:none;stroke-width:140;stroke-linecap:round;stroke-linejoin:round;stroke-miterlimit:4;stroke-dasharray:none;stroke-dashoffset:0;stroke-opacity:1;color-rendering:auto;image-rendering:auto;shape-rendering:auto;text-rendering:auto;enable-background:accumulate"
         d="m 2097.3516,-390.68945 a 70.007,70.007 0 0 0 -68.9454,70.98828 l 0,838.21484 -593.041,1.81836 c 35.7738,-34.17677 66.7928,-73.49986 91.5645,-116.99805 79.4936,-139.58778 89.3249,-312.543816 26.1601,-460.24023 -42.8721,-100.24704 -117.337,-185.46984 -211.4746,-240.96484 -94.173,-55.51586 -205.1985,-79.53213 -314.0703,-67.21875 -134.52291,15.21451 -259.34058,85.65623 -341.90037,192.94922 -8.80846,11.44729 -16.97336,23.31912 -24.71289,35.4375 -7.51106,-14.08633 -15.72477,-27.89118 -24.84961,-41.26172 -39.26351,-57.53246 -92.09578,-104.99959 -153.50976,-137.88868 -61.26413,-32.80882 -128.99736,-50.22947 -196.91211,-53.53906 -144.36948,-7.03533 -287.5410874,50.58155 -386.79297,155.6582 -99.25189,105.07667 -148.61937,251.297015 -133.3711,395.03126 15.24829,143.73423 94.19611,276.34225 213.28516,358.25585 119.089054,81.91361 271.16183,108.20825 410.8418,71.03907 A 70.007,70.007 0 1 0 353.62109,475.30078 C 255.0781,501.52332 142.13738,481.99441 58.121094,424.20508 -25.89519,366.41575 -84.527623,267.93059 -95.285156,166.52734 -106.04268,65.124094 -69.378756,-43.470899 0.64257812,-117.60156 70.663913,-191.73222 176.9943,-234.52196 278.8457,-229.55859 c 48.43751,2.36043 96.20522,14.93534 137.63282,37.12109 41.27775,22.10551 77.56497,54.70428 103.96679,93.390625 26.4083,38.695814 44.13136,85.242002 53.13867,134.320313 4.81471,26.233922 7.14972,53.989521 8.3086,82.861332 -0.60389,17.53887 -0.2875,35.11942 0.96484,52.68945 0.0171,8.48861 0.0761,16.89324 0.0254,25.54687 l -1.98047,337.37891 -0.26172,17.41016 a 70.007,70.007 0 0 0 0.125,6.04882 l -0.13281,22.63086 a 70.007,70.007 0 1 0 139.99805,0.82227 l 0.26562,-45.4375 5.07813,-336.60352 a 70.007,70.007 0 0 0 -0.74023,-11.27148 c -1.01284,-6.86542 -1.75171,-13.77977 -2.3418,-20.71484 -0.0238,-15.3515 -0.30822,-30.93665 -0.82617,-46.77344 3.50158,-74.202931 29.64378,-148.292146 74.53125,-206.626955 58.57901,-76.128055 151.23299,-128.415715 246.68164,-139.210935 77.7076,-8.78872 159.6588,8.86912 227.2402,48.70898 67.6168,39.86074 122.8862,103.013669 153.8477,175.4101581 45.1509,105.5751619 37.7292,236.1310619 -19.0938,335.9101519 -56.8231,99.77911 -165.3199,172.77089 -279.1562,187.80469 a 70.007,70.007 0 0 0 9.3808,139.39649 l 963.1231,-2.95508 a 70.007,70.007 0 0 0 69.7851,-70 l 0,-908 a 70.007,70.007 0 0 0 -71.0546,-70.98828 z"
         id="path4370-9-0"
         inkscape:connector-curvature="0" />
      <path
         sodipodi:nodetypes="sccsccccccc"
         inkscape:connector-curvature="0"
         inkscape:original-d="m 660.83136,1717.8062 5.3509,-354.6498 c 0,0 -98.47542,-419.78384 379.42924,-493.09827 391.4498,-70.79934 441.8451,-31.18597 453.3155,266.15057 5.1877,134.4734 169.6784,477.681 -353.4453,620.6363 l 963.1237,-2.9553 0,-907.99997 M 381.82174,1708.5372 c -338.1426,166.2057 -1187.9953,-459.3585 -89.3698,-842.42278 123.6449,-43.11238 371.83452,305.67668 370.62792,496.25688 l -2.2485,383.47"
         inkscape:path-effect="#path-effect4372-5-0-50-1"
         id="path4370-9-0-6"
         d="m 660.83136,1717.8062 5.3509,-354.6498 c -16.88889,-114.4798 14.5682,-235.3085 85.13761,-327.0191 70.5694,-91.71046 179.30584,-153.0743 294.29163,-166.07917 93.2897,-10.55105 189.7779,10.28529 270.6551,57.96316 80.8772,47.67787 145.7436,121.86561 182.6604,208.18741 54.1578,126.6358 45.5321,278.3909 -22.6262,398.0743 -68.1584,119.6834 -194.2742,204.5292 -330.8191,222.562 l 963.1237,-2.9553 0,-907.99997 M 381.82174,1708.5372 C 262.71027,1740.233 130.20332,1717.3209 28.650671,1647.4694 -72.90198,1577.618 -141.69163,1462.0713 -154.69453,1339.5025 -167.69744,1216.9338 -124.68201,1089.5261 -40.045415,999.92243 44.591178,910.31878 169.34152,860.11508 292.45194,866.11442 c 58.17613,2.835 115.92699,17.83303 167.27286,45.33032 51.34587,27.49729 95.90546,67.53033 128.73813,115.63976 32.83268,48.1094 53.65598,103.8559 64.17008,161.1442 10.51411,57.2883 10.78837,115.8984 10.44685,174.1426 l -2.2485,383.47"
         style="fill:none;fill-rule:evenodd;stroke:#000000;stroke-width:140;stroke-linecap:round;stroke-linejoin:round;stroke-miterlimit:4;stroke-dasharray:none;stroke-opacity:1" />
    </g>
  </g>
</svg>
