<?xml version="1.0" encoding="UTF-8" standalone="no"?>
<!-- Created with Inkscape (http://www.inkscape.org/) -->

<svg
   xmlns:dc="http://purl.org/dc/elements/1.1/"
   xmlns:cc="http://creativecommons.org/ns#"
   xmlns:rdf="http://www.w3.org/1999/02/22-rdf-syntax-ns#"
   xmlns:svg="http://www.w3.org/2000/svg"
   xmlns="http://www.w3.org/2000/svg"
   xmlns:sodipodi="http://sodipodi.sourceforge.net/DTD/sodipodi-0.dtd"
   xmlns:inkscape="http://www.inkscape.org/namespaces/inkscape"
   width="2000"
   height="2048"
   id="svg2992"
   version="1.1"
   inkscape:version="0.91 r13725"
   sodipodi:docname="മ്പ്ര.svg">
  <defs
     id="defs5498">
    <inkscape:path-effect
       effect="spiro"
       id="path-effect4151"
       is_visible="true" />
    <inkscape:path-effect
       effect="spiro"
       id="path-effect4149-1"
       is_visible="true" />
    <inkscape:path-effect
       is_visible="true"
       id="path-effect4372-5-0-50-1-7"
       effect="spiro" />
    <inkscape:path-effect
       effect="spiro"
       id="path-effect4149-1-2"
       is_visible="true" />
    <inkscape:path-effect
       is_visible="true"
       id="path-effect4372-5-0-50-1-7-7"
       effect="spiro" />
    <inkscape:path-effect
       is_visible="true"
       id="path-effect4372-5-0-50-1-7-2"
       effect="spiro" />
    <inkscape:path-effect
       is_visible="true"
       id="path-effect4372-5-0-50-1-7-2-2"
       effect="spiro" />
    <inkscape:path-effect
       effect="spiro"
       id="path-effect4151-1"
       is_visible="true" />
    <inkscape:path-effect
       effect="spiro"
       id="path-effect4151-8"
       is_visible="true" />
    <inkscape:path-effect
       is_visible="true"
       id="path-effect4372-5-0-50-1-7-2-27"
       effect="spiro" />
    <inkscape:path-effect
       is_visible="true"
       id="path-effect4372-5-0-50-1-7-2-27-0"
       effect="spiro" />
    <inkscape:path-effect
       effect="spiro"
       id="path-effect4151-8-7"
       is_visible="true" />
    <inkscape:path-effect
       is_visible="true"
       id="path-effect4372-5-0-50-1-7-8"
       effect="spiro" />
    <inkscape:path-effect
       is_visible="true"
       id="path-effect4372-5-0-50-1-7-8-3"
       effect="spiro" />
    <inkscape:path-effect
       effect="spiro"
       id="path-effect4151-6"
       is_visible="true" />
    <inkscape:path-effect
       effect="spiro"
       id="path-effect4151-5"
       is_visible="true" />
    <inkscape:path-effect
       is_visible="true"
       id="path-effect4372-5-0-50-1-7-8-2"
       effect="spiro" />
  </defs>
  <sodipodi:namedview
     inkscape:window-height="871"
     inkscape:window-width="1600"
     inkscape:pageshadow="2"
     inkscape:pageopacity="0.0"
     borderopacity="1.0"
     bordercolor="#666666"
     pagecolor="#ffffff"
     id="base"
     showgrid="true"
     showguides="true"
     inkscape:guide-bbox="true"
     inkscape:zoom="0.32102648"
     inkscape:cx="3448.6658"
     inkscape:cy="866.67915"
     inkscape:window-x="1600"
     inkscape:window-y="0"
     inkscape:current-layer="layer1"
     inkscape:window-maximized="1">
    <sodipodi:guide
       orientation="horizontal"
       position="0,600"
       id="guide5596" />
    <inkscape:grid
       type="xygrid"
       id="grid3769"
       empspacing="3"
       visible="true"
       enabled="true"
       snapvisiblegridlinesonly="true"
       spacingx="4px"
       units="px"
       dotted="true"
       spacingy="4px" />
    <sodipodi:guide
       orientation="0,1"
       position="-1040,1600"
       id="guide2985" />
    <sodipodi:guide
       position="4272,1710"
       orientation="0,1"
       id="guide4181"
       inkscape:label=""
       inkscape:color="rgb(0,0,255)" />
  </sodipodi:namedview>
  <metadata
     id="metadata5594">
    <rdf:RDF>
      <cc:Work
         rdf:about="">
        <dc:format>image/svg+xml</dc:format>
        <dc:type
           rdf:resource="http://purl.org/dc/dcmitype/StillImage" />
        <dc:title />
      </cc:Work>
    </rdf:RDF>
  </metadata>
  <g
     inkscape:label="Layer 1"
     inkscape:groupmode="layer"
     id="layer1"
     transform="translate(0,1048)">
    <path
       style="fill:none;fill-rule:evenodd;stroke:#000000;stroke-width:70;stroke-linecap:round;stroke-linejoin:round;stroke-miterlimit:4;stroke-dasharray:none;stroke-opacity:1"
       d="m -1394.4933,290.74246 4,173.47531 c 1.1843,51.36348 0.3712,103.70616 -15.834,152.46067 -16.2051,48.75452 -46.8976,92.57642 -87.2515,124.37536 -36.123,28.46499 -79.0805,47.41272 -123.4554,59.49535 -44.375,12.08262 -90.311,17.57131 -136.2191,20.32237 -91.8163,5.50212 -183.9121,2.62332 -275.8925,2.9757 l -679.1698,2.60193 c -213.585,0.81825 -431.135,-3.34843 -633.6121,-71.3353 -202.4772,-67.98687 -386.9857,-201.45696 -492.6481,-387.07665 -83.2866,-146.31159 -115.2763,-321.174842 -89.1834,-487.4965 26.093,-166.32166 110.094,-322.98798 234.1841,-436.76577"
       id="path4149-1"
       inkscape:path-effect="#path-effect4151-8"
       inkscape:original-d="m -1394.4933,290.74246 4,173.47531 c 1.8998,82.39121 -26.7581,214.62491 -103.0855,276.83603 -140.0241,114.12759 -409.2862,82.30963 -535.567,82.79342 l -679.1698,2.60193 c -771.2921,46.56342 -926.8605,-105.39603 -1126.2602,-458.41195 -153.3595,-271.506495 145.0007,-924.26227 145.0007,-924.26227"
       inkscape:connector-curvature="0"
       sodipodi:nodetypes="csascac" />
    <path
       style="fill:none;fill-rule:evenodd;stroke:#000000;stroke-width:140;stroke-linecap:round;stroke-linejoin:round;stroke-miterlimit:4;stroke-dasharray:none;stroke-opacity:1"
       d="m 2386,280 0,170 c 0,50.32367 -1.7722,101.48011 -17.8711,149.15923 -16.0988,47.67912 -45.7891,90.78198 -85.1556,122.13088 -35.2798,28.09453 -77.4033,46.74308 -120.9218,58.57973 -43.5185,11.83665 -88.5783,17.13818 -133.6014,19.76279 -90.0461,5.24921 -180.3531,2.38733 -270.5512,2.79233 l -567.8638,2.54977 C 999.66193,805.82953 804.76056,797.99224 628.55251,725.927 452.34446,653.86177 301.44283,521.52085 207.84012,355.74628 129.1619,216.40365 89.812759,55.129371 95.474073,-104.79117 101.13539,-264.71171 151.79021,-422.79978 240.1248,-556.23002"
       id="path4149"
       inkscape:path-effect="#path-effect4151"
       inkscape:original-d="m 2386,280 0,170 c 0,80.76212 -27.8463,210.42233 -103.0267,271.29011 -137.6449,111.44049 -401.268,80.57895 -525.0744,81.13485 l -567.8638,2.54977 C 433.85386,850.6053 397.0044,662.06221 207.84012,355.74628 48.013244,96.936742 240.1248,-556.23002 240.1248,-556.23002"
       inkscape:connector-curvature="0"
       sodipodi:nodetypes="csascac" />
    <path
       sodipodi:nodetypes="cacccaacccc"
       inkscape:connector-curvature="0"
       inkscape:original-d="m -3051.2035,372.07303 c -370.7125,182.63412 -372.1256,-822.53802 -80.9028,-935.95992 201.0808,-78.31444 395.4641,305.08478 394.1413,514.502702 l -3.4545,435.785038 6.8557,-434.922346 c 0,-58.189404 202.4607,-500.590574 424.7467,-517.877674 210.583,-16.377 457.9597,211.3689 473.0736,422.52845 15.8701,221.724628 -428.4696,510.19695 -428.4696,510.19695 l 870.8567,-4.67043 -0.2259,-68.07199 -2.937,-859.15703"
       inkscape:path-effect="#path-effect4372-5-0-50-1-7-2-27"
       id="path4370-9-0-6-0-2"
       d="m -3051.2035,372.07303 c -130.897,28.20763 -273.3349,-2.44336 -381.0431,-81.99609 -107.7082,-79.55272 -178.8895,-206.679665 -190.4207,-340.084049 -11.5313,-133.404381 36.7799,-270.860051 129.2397,-367.714971 92.4599,-96.85491 227.5255,-151.49284 361.3213,-146.16481 61.0859,2.43257 121.9161,17.01203 176.3862,44.76843 54.47,27.7564 102.1547,68.77328 137.4578,118.68421 35.303,49.91094 57.8693,108.22861 69.221,168.29978 11.3517,60.07117 11.5609,121.61787 11.0763,182.750282 l -3.4545,435.785038 6.8557,-434.922346 c 0.9993,-63.392074 2.7431,-127.209894 16.1818,-189.169204 13.4387,-61.95931 38.6459,-121.75573 76.9591,-172.26955 38.3133,-50.51382 89.3345,-91.23286 146.9209,-117.7538 57.5864,-26.52094 121.2855,-38.95292 184.6849,-38.68512 115.7584,0.48896 231.0108,43.98697 317.5677,120.85155 86.5568,76.86458 143.4729,186.54453 155.5059,301.6769 12.882,123.255676 -26.2784,251.11453 -105.9768,346.01483 -79.6985,94.9003 -198.8655,155.56862 -322.4928,164.18212 l 870.8567,-4.67043 c -0.075,-22.69066 -0.1504,-45.38133 -0.2259,-68.07199 -0.9525,-286.3857665 -1.9315,-572.77144 -2.937,-859.15703"
       style="fill:none;fill-rule:evenodd;stroke:#000000;stroke-width:70;stroke-linecap:round;stroke-linejoin:round;stroke-miterlimit:4;stroke-dasharray:none;stroke-opacity:1" />
    <path
       style="color:#000000;font-style:normal;font-variant:normal;font-weight:normal;font-stretch:normal;font-size:medium;line-height:normal;font-family:sans-serif;text-indent:0;text-align:start;text-decoration:none;text-decoration-line:none;text-decoration-style:solid;text-decoration-color:#000000;letter-spacing:normal;word-spacing:normal;text-transform:none;direction:ltr;block-progression:tb;writing-mode:lr-tb;baseline-shift:baseline;text-anchor:start;white-space:normal;clip-rule:nonzero;display:inline;overflow:visible;visibility:visible;opacity:1;isolation:auto;mix-blend-mode:normal;color-interpolation:sRGB;color-interpolation-filters:linearRGB;solid-color:#000000;solid-opacity:1;fill:#000000;fill-opacity:1;fill-rule:evenodd;stroke:none;stroke-width:70;stroke-linecap:round;stroke-linejoin:round;stroke-miterlimit:4;stroke-dasharray:none;stroke-dashoffset:0;stroke-opacity:1;color-rendering:auto;image-rendering:auto;shape-rendering:auto;text-rendering:auto;enable-background:accumulate"
       d="M -2092.043 2075.3418 C -2160.1154 2075.0548 -2228.7958 2088.3522 -2291.5137 2117.2363 C -2354.3291 2146.1655 -2409.7981 2190.4105 -2451.6797 2245.6289 C -2479.5743 2282.4063 -2500.7395 2323.3523 -2516.1035 2366.1465 C -2529.5494 2327.3609 -2548.0006 2290.1086 -2572.0586 2256.0957 C -2610.7216 2201.4346 -2662.6637 2156.7752 -2722.1992 2126.4375 C -2781.6439 2096.1462 -2847.3654 2080.4979 -2913.084 2077.8809 C -3057.3215 2072.1369 -3201.4396 2130.4379 -3301.1152 2234.8516 C -3400.7908 2339.2653 -3452.3393 2485.9325 -3439.9082 2629.748 C -3427.477 2773.5636 -3351.5243 2909.2095 -3235.4102 2994.9707 C -3119.2961 3080.732 -2967.3137 3113.4364 -2826.2012 3083.0273 A 35.0035 35.0035 0 1 0 -2840.9473 3014.5996 C -2961.6287 3040.6059 -3094.5198 3012.0084 -3193.8223 2938.6641 C -3293.1247 2865.3199 -3359.5366 2746.7119 -3370.168 2623.7188 C -3380.7992 2500.7254 -3335.7264 2372.4817 -3250.4824 2283.1855 C -3165.2383 2193.8894 -3039.2232 2142.9139 -2915.8691 2147.8262 C -2859.4159 2150.0743 -2803.476 2163.5851 -2753.9805 2188.8066 C -2704.576 2213.9818 -2661.1502 2251.3569 -2629.207 2296.5176 C -2597.2659 2341.6756 -2576.3504 2395.2891 -2565.8027 2451.1055 C -2555.2464 2506.9678 -2554.8515 2566.2118 -2555.334 2627.0781 L -2558.7891 3062.8633 A 35.0035 35.0035 0 0 0 -2488.7949 3063.6934 L -2488.7949 3063.418 L -2481.9414 2628.7715 C -2480.9464 2565.6508 -2479.0671 2504.1756 -2466.5508 2446.4688 C -2454.0452 2388.811 -2430.6535 2333.7387 -2395.9102 2287.9316 C -2361.1653 2242.1225 -2314.5917 2204.9292 -2262.2344 2180.8164 C -2209.7806 2156.6593 -2151.0649 2145.0937 -2092.3398 2145.3418 C -1985.2509 2145.7942 -1877.7881 2186.3881 -1797.8633 2257.3633 C -1717.9709 2328.3096 -1665.0135 2430.4382 -1653.9277 2536.5078 C -1642.0681 2649.9811 -1678.5234 2769.0066 -1751.8965 2856.375 C -1825.2695 2943.7434 -1936.2041 3000.2225 -2050.0195 3008.1523 A 35.0035 35.0035 0 0 0 -2047.4004 3078.0664 L -1209.4258 3073.5723 L -1207.8535 3141.7656 C -1206.6904 3192.2122 -1207.9594 3240.4072 -1221.9102 3282.3789 C -1235.923 3324.5379 -1262.7591 3362.8411 -1297.6113 3390.3047 C -1329.0698 3415.094 -1367.6496 3432.3695 -1408.5996 3443.5195 C -1449.6592 3454.6995 -1493.1918 3460.0056 -1537.7168 3462.6738 C -1627.4104 3468.0487 -1718.8503 3465.2323 -1811.6504 3465.5879 L -2490.8203 3468.1895 C -2703.8591 3469.0057 -2917.4417 3464.392 -3113.1562 3398.6758 C -3308.6121 3333.0464 -3485.9644 3204.1277 -3586.5293 3027.4629 C -3665.7909 2888.2221 -3696.3847 2720.9888 -3671.5527 2562.7051 C -3646.7208 2404.4213 -3566.3842 2254.5917 -3448.291 2146.3125 A 35.0035 35.0035 0 0 0 -3471.1016 2085.1816 A 35.0035 35.0035 0 0 0 -3495.5996 2094.7188 C -3625.6866 2213.9951 -3713.3531 2377.4978 -3740.707 2551.8574 C -3768.061 2726.2169 -3734.6749 2908.7093 -3647.3633 3062.0918 C -3536.6034 3256.6664 -3344.9378 3394.6887 -3135.4395 3465.0332 C -2926.1997 3535.2908 -2704.684 3539.0098 -2490.5527 3538.1895 L -1811.3828 3535.5879 C -1720.2223 3535.2386 -1627.4683 3538.1781 -1533.5293 3532.5488 C -1486.2381 3529.7148 -1437.8993 3524.046 -1390.209 3511.0605 C -1342.4092 3498.0454 -1295.0747 3477.4258 -1254.2871 3445.2852 C -1208.4315 3409.1509 -1173.8817 3359.809 -1155.4844 3304.459 C -1137.0247 3248.9217 -1136.6676 3192.4327 -1137.873 3140.1523 L -1141.873 2966.6758 A 35.0035 35.0035 0 0 0 -1141.9746 2964.9219 C -1142.9216 2680.2957 -1143.8952 2395.671 -1144.8945 2111.0449 A 35.0035 35.0035 0 1 0 -1214.8926 2111.291 C -1213.8871 2397.6745 -1212.9095 2684.0578 -1211.957 2970.4414 C -1211.92 2981.4892 -1211.884 2992.5363 -1211.8477 3003.584 L -1822.2617 3006.8574 C -1775.6553 2978.7645 -1733.4752 2943.2856 -1698.293 2901.3926 C -1612.269 2798.9603 -1570.4022 2662.2705 -1584.3066 2529.2324 C -1597.2868 2405.0372 -1658.1614 2287.8044 -1751.3828 2205.0215 C -1844.5708 2122.2684 -1967.6125 2075.8684 -2092.0391 2075.3418 L -2092.043 2075.3418 z "
       transform="translate(0,-1048)"
       id="path4149-1-9" />
    <path
       sodipodi:nodetypes="caacccaaccc"
       inkscape:connector-curvature="0"
       inkscape:original-d="M 940.49857,347.03283 C 744.42701,443.407 466.17741,139.1782 451.04313,-75.916407 436.3547,-284.67444 654.74797,-555.4563 863.91877,-548.88016 c 204.09963,6.41671 374.33283,288.1196 373.08073,485.892183 l -3.2699,411.551887 6.4894,-410.737167 c 0,-54.953593 191.1394,-481.692353 402.0507,-489.079483 183.0562,-6.41151 372.4491,215.94201 377.7954,399.03246 6.1275,209.84363 -405.5748,481.82587 -405.5748,481.82587 l 772.3234,-2.29949 -2.9938,-877.77882"
       inkscape:path-effect="#path-effect4372-5-0-50-1-7-8"
       id="path4370-9-0-6-0"
       d="M 940.49857,347.03283 C 821.38023,354.16888 700.06373,313.10234 609.77229,235.07952 519.48086,157.0567 461.25608,42.977658 451.04313,-75.916407 440.98143,-193.04976 477.95512,-314.19113 554.39859,-403.50998 c 76.44347,-89.31884 191.95654,-144.86795 309.52018,-145.37018 58.07701,-0.24811 116.34473,12.62247 168.22923,38.71846 51.8845,26.096 96.9903,65.43285 130.1345,113.12416 33.1443,47.69131 54.0613,103.27662 64.5475,160.39964 10.4863,57.12301 10.6309,115.57422 10.1695,173.649923 l -3.2699,411.551887 6.4894,-410.737167 c 0.9542,-60.395203 2.5303,-121.167743 14.8464,-180.301513 12.3162,-59.13377 35.478,-116.42805 71.332,-165.03859 35.8539,-48.61054 84.1414,-88.05086 139.1884,-112.91678 55.0471,-24.86593 116.4364,-35.15049 176.6839,-30.8226 99.7328,7.16433 195.4683,54.78514 263.504,128.05933 68.0357,73.27419 108.2452,171.1663 114.2914,270.97313 7.0024,115.590157 -31.9639,233.336907 -106.5375,321.9309 -74.5736,88.59399 -183.947,147.07584 -299.0373,159.89497 l 772.3234,-2.29949 -2.9938,-877.77882"
       style="fill:none;fill-rule:evenodd;stroke:#000000;stroke-width:140;stroke-linecap:round;stroke-linejoin:round;stroke-miterlimit:4;stroke-dasharray:none;stroke-opacity:1" />
    <path
       style="color:#000000;font-style:normal;font-variant:normal;font-weight:normal;font-stretch:normal;font-size:medium;line-height:normal;font-family:sans-serif;text-indent:0;text-align:start;text-decoration:none;text-decoration-line:none;text-decoration-style:solid;text-decoration-color:#000000;letter-spacing:normal;word-spacing:normal;text-transform:none;direction:ltr;block-progression:tb;writing-mode:lr-tb;baseline-shift:baseline;text-anchor:start;white-space:normal;clip-rule:nonzero;display:inline;overflow:visible;visibility:visible;opacity:1;isolation:auto;mix-blend-mode:normal;color-interpolation:sRGB;color-interpolation-filters:linearRGB;solid-color:#000000;solid-opacity:1;fill:#000000;fill-opacity:1;fill-rule:evenodd;stroke:none;stroke-width:140;stroke-linecap:round;stroke-linejoin:round;stroke-miterlimit:4;stroke-dasharray:none;stroke-dashoffset:0;stroke-opacity:1;color-rendering:auto;image-rendering:auto;shape-rendering:auto;text-rendering:auto;enable-background:accumulate"
       d="M 140.56836 2120.0801 A 70.007 70.007 0 0 0 83.771484 2152.2402 C -11.812312 2296.6204 -66.340888 2466.7993 -72.466797 2639.8438 C -78.592706 2812.8881 -36.234578 2986.4976 48.900391 3137.2754 C 150.49788 3317.209 313.03064 3459.6971 504.07031 3537.8281 C 695.372 3616.0664 899.85648 3622.9484 1092.3652 3622.084 L 1660.2285 3619.5352 C 1748.7362 3619.1377 1840.3029 3622.1185 1934.5391 3616.625 C 1982.3206 3613.8396 2032.2208 3608.1863 2082.4395 3594.5273 C 2132.8866 3580.8061 2183.8838 3558.7657 2228.5957 3523.1602 C 2279.0049 3483.0176 2316.1136 3428.9433 2336.4668 3368.6641 C 2356.9225 3308.0817 2358.0156 3249.0784 2358.0156 3197.1113 L 2358.0156 3084.6621 A 70.007 70.007 0 0 0 2358.8281 3074.1797 L 2355.8359 2196.4023 A 70.007 70.007 0 1 0 2215.8359 2196.8789 L 2218.5918 3004.6289 L 1827.334 3005.793 C 1842.0266 2991.9829 1856.0444 2977.4073 1869.0957 2961.9023 C 1955.6108 2859.1218 2000.0768 2724.7599 1991.9531 2590.6602 C 1984.9413 2474.9133 1938.9167 2362.2665 1859.0859 2276.2891 C 1779.0609 2190.1024 1667.9516 2134.5624 1549.3008 2126.0391 C 1540.358 2125.3967 1531.3966 2125.0233 1522.4316 2124.9199 L 1522.4316 2124.918 C 1459.6769 2124.1937 1396.7466 2136.7043 1338.7852 2162.8867 C 1272.4269 2192.8621 1215.0172 2239.8304 1172.0781 2298.0469 C 1161.236 2312.7466 1151.453 2327.9979 1142.6348 2343.6621 C 1136.1765 2332.2632 1129.3497 2321.0181 1121.7793 2310.125 C 1081.9445 2252.8066 1028.1794 2205.8806 965.61719 2174.4141 C 903.19245 2143.0167 834.25341 2127.9373 765.63477 2128.2305 C 626.21747 2128.826 493.00454 2193.1935 403.23242 2298.0859 C 313.70861 2402.6882 271.651 2541.3828 283.31641 2677.1855 C 295.14419 2814.8785 361.45175 2944.7969 466.01953 3035.1562 C 570.58732 3125.5157 708.74661 3172.2819 846.69922 3164.0176 A 70.007 70.007 0 1 0 838.32812 3024.2695 C 738.04407 3030.2772 633.57171 2994.9109 557.55664 2929.2246 C 481.54157 2863.5383 431.40089 2765.2984 422.80273 2665.2031 C 414.3447 2566.7391 446.23257 2463.1525 509.5957 2389.1172 C 572.71055 2315.3719 670.52241 2268.6393 766.23242 2268.2305 C 813.76777 2268.0274 861.36673 2278.6897 902.71094 2299.4844 C 943.91768 2320.2099 980.36277 2351.9572 1006.8164 2390.0215 C 1033.2906 2428.1152 1051.0386 2474.3159 1059.9961 2523.1113 C 1068.9719 2572.0059 1069.4751 2625.98 1069.0176 2683.5664 L 1065.748 3095.1191 A 70.007 70.007 0 0 0 1205.7363 3096.7812 L 1212.2266 2686.043 C 1213.1732 2626.1242 1215.0026 2569.8379 1225.6094 2518.9102 C 1236.1939 2468.0916 1255.9406 2420.2047 1284.7461 2381.1504 C 1313.5151 2342.1457 1352.682 2310.233 1396.418 2290.4766 C 1440.2704 2270.6675 1490.3166 2262.1632 1539.2695 2265.6797 C 1620.0843 2271.4851 1700.4458 2311.1871 1756.4922 2371.5488 C 1812.7329 2432.1198 1847.1284 2515.2584 1852.209 2599.125 C 1858.0901 2696.2058 1824.6224 2797.3387 1761.9902 2871.7461 C 1699.3581 2946.1536 1605.4186 2996.382 1508.7578 3007.1484 A 70.007 70.007 0 0 0 1516.7148 3146.7188 L 2218.0156 3144.6289 L 2218.0156 3197.1113 C 2218.0156 3245.7916 2215.5644 3289.1011 2203.8223 3323.877 C 2191.9779 3358.9559 2169.7066 3391.0873 2141.3828 3413.6426 C 2115.5351 3434.226 2082.2852 3449.4834 2045.6953 3459.4355 C 2008.877 3469.4498 1968.6572 3474.3975 1926.3926 3476.8613 C 1840.5366 3481.8663 1751.4881 3479.1245 1659.5996 3479.5371 L 1091.7363 3482.0859 C 903.49884 3482.9311 718.18078 3474.1384 557.06641 3408.2461 C 395.69002 3342.2467 256.4185 3220.0549 170.81055 3068.4395 C 98.589044 2940.532 62.248595 2791.5935 67.445312 2644.7969 C 72.642031 2498.0002 119.42239 2352.0017 200.50781 2229.5215 A 70.007 70.007 0 0 0 140.56836 2120.0801 z "
       transform="translate(0,-1048)"
       id="path4149-3" />
    <path
       style="color:#000000;font-style:normal;font-variant:normal;font-weight:normal;font-stretch:normal;font-size:medium;line-height:normal;font-family:sans-serif;text-indent:0;text-align:start;text-decoration:none;text-decoration-line:none;text-decoration-style:solid;text-decoration-color:#000000;letter-spacing:normal;word-spacing:normal;text-transform:none;direction:ltr;block-progression:tb;writing-mode:lr-tb;baseline-shift:baseline;text-anchor:start;white-space:normal;clip-rule:nonzero;display:inline;overflow:visible;visibility:visible;opacity:1;isolation:auto;mix-blend-mode:normal;color-interpolation:sRGB;color-interpolation-filters:linearRGB;solid-color:#000000;solid-opacity:1;fill:#000000;fill-opacity:1;fill-rule:evenodd;stroke:none;stroke-width:200;stroke-linecap:round;stroke-linejoin:round;stroke-miterlimit:4;stroke-dasharray:none;stroke-dashoffset:0;stroke-opacity:1;color-rendering:auto;image-rendering:auto;shape-rendering:auto;text-rendering:auto;enable-background:accumulate"
       d="M 2773.0078 339.20703 A 100.01 100.01 0 0 0 2691.8457 385.10547 C 2592.6648 534.74818 2536.2045 710.84651 2529.8809 890.26172 C 2523.5571 1069.677 2567.4797 1249.3122 2655.8789 1405.5664 C 2761.017 1591.4083 2928.4393 1738.2347 3125.8027 1819 C 3323.5499 1899.9224 3532.139 1906.4231 3725.5605 1905.5547 L 4293.4238 1903.0039 C 4381.207 1902.6098 4473.3137 1905.6411 4569.3457 1900.043 C 4618.3093 1897.1886 4670.2827 1891.3854 4723.373 1876.9453 C 4776.7896 1862.4165 4831.5895 1838.9223 4880.3438 1800.0977 C 4935.4855 1756.1864 4975.7726 1697.4099 4997.9492 1631.7305 C 5020.2721 1565.6181 5021.0762 1503.2515 5021.0762 1450.5801 L 5021.0762 1339.584 A 100.01 100.01 0 0 0 5021.8887 1327.5488 L 5018.8945 441.76953 A 100.01 100.01 0 1 0 4818.8965 442.44531 L 4821.5527 1228.1855 L 4525.875 1229.0664 C 4614.8011 1121.5544 4661.2471 983.38178 4655.043 843.91602 C 4649.5284 719.95203 4602.5243 598.63231 4517.5977 504.94922 C 4432.3295 410.8894 4312.9565 350.10108 4183.9629 341.54688 C 4174.2999 340.90607 4164.6228 340.56171 4154.9473 340.51562 C 4087.2183 340.19313 4019.5609 354.45842 3957.3008 383.51953 C 3886.0118 416.79511 3825.0515 468.09529 3779.5586 531.16211 C 3778.2015 533.04351 3777.0109 534.99872 3775.6855 536.89453 C 3733.9664 477.98218 3678.8214 429.24642 3614.248 395.75391 C 3547.2497 361.00353 3473.2413 343.91219 3399.2793 343.70117 C 3248.1263 343.26994 3105.2709 413.26217 3009.6445 527.32812 C 2914.448 640.88136 2872.0101 789.59621 2886.623 934.68555 C 2901.1803 1079.2215 2971.3545 1214.2562 3081.2695 1309.2363 C 3191.1847 1404.2164 3334.9688 1454.0678 3480.0879 1447.5117 A 100.01 100.01 0 1 0 3471.0605 1247.7148 C 3378.6875 1251.888 3281.9998 1218.3662 3212.0352 1157.9082 C 3142.0706 1097.4502 3094.8814 1006.6445 3085.6152 914.64258 C 3076.3628 822.77726 3105.1057 724.76927 3162.9102 655.81836 C 3220.2848 587.38019 3311.7096 543.45101 3398.709 543.69922 C 3441.8934 543.82242 3485.1695 554.10778 3522.1621 573.29492 C 3558.9844 592.3937 3591.7931 621.66769 3615.416 656.4043 C 3639.0746 691.1934 3655.3843 734.12584 3663.6406 780.10742 C 3671.9213 826.22504 3672.5382 878.8989 3672.0781 936.79883 L 3668.8086 1348.3496 A 100.01 100.01 0 0 0 3868.793 1350.7246 L 3875.2832 939.98633 C 3876.2348 879.75209 3878.1436 824.76912 3887.9688 776.5957 C 3897.7632 728.57267 3915.9483 683.95123 3941.7617 648.16602 C 3967.5144 612.46506 4002.8288 582.98185 4041.8926 564.74805 C 4081.0912 546.45134 4126.5167 538.17746 4170.7285 541.10938 C 4243.9443 545.96467 4318.5811 583.19259 4369.4219 639.27539 C 4420.6042 695.7349 4451.7486 774.31531 4455.2402 852.80469 C 4459.2147 942.14797 4427.455 1035.5943 4369.8633 1104.0137 C 4312.2716 1172.433 4225.614 1219.667 4136.9023 1230.9922 A 100.01 100.01 0 0 0 4149.8633 1430.1855 L 4821.0762 1428.1875 L 4821.0762 1450.5801 C 4821.0762 1498.556 4818.3339 1538.5042 4808.459 1567.75 C 4798.438 1597.4288 4779.3452 1624.858 4755.7539 1643.6445 C 4733.9485 1661.0089 4704.5013 1674.8126 4670.8809 1683.957 C 4636.9342 1693.1902 4598.7896 1697.9879 4557.707 1700.3828 C 4473.6468 1705.2831 4385.1384 1702.59 4292.5254 1703.0059 L 3724.6621 1705.5566 C 3537.3609 1706.3976 3356.1678 1697.171 3201.5508 1633.8984 C 3046.5498 1570.4688 2912.2854 1452.6164 2829.9531 1307.0859 C 2760.0529 1183.5305 2724.7554 1039.1762 2729.7559 897.30664 C 2734.7562 755.43705 2780.129 613.92323 2858.5547 495.5957 A 100.01 100.01 0 0 0 2773.0078 339.20703 z "
       transform="translate(0,-1048)"
       id="path4149-17" />
  </g>
</svg>
