<?xml version="1.0" encoding="UTF-8" standalone="no"?>
<!-- Created with Inkscape (http://www.inkscape.org/) -->

<svg
   xmlns:dc="http://purl.org/dc/elements/1.1/"
   xmlns:cc="http://creativecommons.org/ns#"
   xmlns:rdf="http://www.w3.org/1999/02/22-rdf-syntax-ns#"
   xmlns:svg="http://www.w3.org/2000/svg"
   xmlns="http://www.w3.org/2000/svg"
   xmlns:sodipodi="http://sodipodi.sourceforge.net/DTD/sodipodi-0.dtd"
   xmlns:inkscape="http://www.inkscape.org/namespaces/inkscape"
   width="2000"
   height="2048"
   id="svg2992"
   version="1.1"
   inkscape:version="0.91 r13725"
   sodipodi:docname="യ.svg">
  <defs
     id="defs5498">
    <inkscape:path-effect
       effect="spiro"
       id="path-effect4143"
       is_visible="true" />
    <inkscape:path-effect
       effect="spiro"
       id="path-effect6255"
       is_visible="true" />
    <inkscape:path-effect
       effect="spiro"
       id="path-effect6255-3"
       is_visible="true" />
    <inkscape:path-effect
       effect="spiro"
       id="path-effect4143-0"
       is_visible="true" />
    <inkscape:path-effect
       effect="spiro"
       id="path-effect4143-0-3"
       is_visible="true" />
    <inkscape:path-effect
       effect="spiro"
       id="path-effect4143-0-7"
       is_visible="true" />
    <inkscape:path-effect
       effect="spiro"
       id="path-effect4143-0-7-2"
       is_visible="true" />
    <inkscape:path-effect
       effect="spiro"
       id="path-effect4143-0-2"
       is_visible="true" />
    <inkscape:path-effect
       effect="spiro"
       id="path-effect4143-0-2-3"
       is_visible="true" />
  </defs>
  <sodipodi:namedview
     inkscape:window-height="851"
     inkscape:window-width="1600"
     inkscape:pageshadow="2"
     inkscape:pageopacity="0.0"
     borderopacity="1.0"
     bordercolor="#666666"
     pagecolor="#ffffff"
     id="base"
     showgrid="true"
     showguides="true"
     inkscape:guide-bbox="true"
     inkscape:zoom="0.5"
     inkscape:cx="-1160.3474"
     inkscape:cy="1172.2644"
     inkscape:window-x="1599"
     inkscape:window-y="-1"
     inkscape:current-layer="layer1"
     inkscape:window-maximized="1">
    <sodipodi:guide
       orientation="horizontal"
       position="0,600"
       id="guide5596" />
    <inkscape:grid
       type="xygrid"
       id="grid3769"
       empspacing="3"
       visible="true"
       enabled="true"
       snapvisiblegridlinesonly="true"
       spacingx="4px"
       units="px"
       dotted="true"
       spacingy="4px" />
    <sodipodi:guide
       orientation="0,1"
       position="-1040,1600"
       id="guide2985" />
  </sodipodi:namedview>
  <metadata
     id="metadata5594">
    <rdf:RDF>
      <cc:Work
         rdf:about="">
        <dc:format>image/svg+xml</dc:format>
        <dc:type
           rdf:resource="http://purl.org/dc/dcmitype/StillImage" />
        <dc:title />
      </cc:Work>
    </rdf:RDF>
  </metadata>
  <g
     inkscape:label="Layer 1"
     inkscape:groupmode="layer"
     id="layer1"
     transform="translate(0,1048)">
    <path
       style="fill:none;fill-rule:evenodd;stroke:#000000;stroke-width:70;stroke-linecap:round;stroke-linejoin:round;stroke-miterlimit:4;stroke-dasharray:none;stroke-opacity:1"
       d="m -2928.6285,-559.8041 c 79.178,52.80511 142.9055,128.48916 181.4573,215.5023 38.5518,87.01314 51.7985,185.06312 37.7185,279.18688 -16.2798,108.82912 -69.1301,211.60255 -146.986,289.36664 -77.856,77.76408 -180.1567,130.33462 -288.4162,150.04994 -128.983,23.48931 -265.5208,0.11768 -380.7629,-62.39325 -115.2421,-62.51094 -208.7612,-163.35531 -265.0838,-281.745012 -31.6576,-66.544114 -51.9269,-138.915978 -55.3551,-212.526938 -3.4282,-73.61095 10.3252,-148.4547 43.3526,-214.32972 33.0273,-65.87503 85.7162,-122.38787 151.0449,-156.48317 65.3286,-34.0953 143.2363,-44.90747 214.492,-26.12054 89.1858,23.51428 162.9754,92.13237 202.9543,175.25101 39.979,83.11863 48.1708,179.24892 34.0299,270.39199 -23.0809,148.764563 -105.7653,287.29406 -225.3045,378.80357 -119.5393,91.50951 -274.549,135.15469 -424.3479,120.19129 -123.2401,-12.31044 -242.2987,-63.64826 -335.8082,-144.86176 -93.5096,-81.21349 -161.0231,-191.92654 -190.3501,-312.257718 -24.7032,-101.359092 -21.7192,-212.101902 24.3879,-305.686332 23.0536,-46.79221 56.6746,-88.62597 98.7671,-119.435 42.0926,-30.80903 92.7238,-50.33595 144.7861,-53.57556 77.1932,-4.8034 155.8623,27.81095 207.0138,85.82301 51.1514,58.01205 73.6598,140.14547 59.2296,216.12993"
       id="path4141-0-7"
       inkscape:path-effect="#path-effect4143-0-7"
       inkscape:original-d="m -2928.6285,-559.8041 c 0,0 251.7745,317.26912 219.1758,494.68918 -37.2873,202.93767 -231.6692,408.55166 -435.4022,439.41658 -241.1172,36.5285 -578.9764,-109.29131 -645.8467,-344.138262 -64.3335,-225.937378 118.9651,-613.797408 353.5344,-609.460368 168.0305,3.10678 272.6064,281.16866 236.9842,445.643 -57.8472,267.0921 -376.8627,507.23384 -649.6524,498.99486 -232.0838,-7.00955 -486.2684,-228.05669 -526.1583,-457.119478 -31.3814,-180.203382 86.1099,-459.318032 267.9411,-478.696892 133.4337,-14.22085 266.2434,301.95294 266.2434,301.95294"
       inkscape:connector-curvature="0"
       sodipodi:nodetypes="caaaaaaaac" />
    <path
       style="color:#000000;font-style:normal;font-variant:normal;font-weight:normal;font-stretch:normal;font-size:medium;line-height:normal;font-family:sans-serif;text-indent:0;text-align:start;text-decoration:none;text-decoration-line:none;text-decoration-style:solid;text-decoration-color:#000000;letter-spacing:normal;word-spacing:normal;text-transform:none;direction:ltr;block-progression:tb;writing-mode:lr-tb;baseline-shift:baseline;text-anchor:start;white-space:normal;clip-rule:nonzero;display:inline;overflow:visible;visibility:visible;opacity:1;isolation:auto;mix-blend-mode:normal;color-interpolation:sRGB;color-interpolation-filters:linearRGB;solid-color:#000000;solid-opacity:1;fill:#000000;fill-opacity:1;fill-rule:evenodd;stroke:none;stroke-width:70;stroke-linecap:round;stroke-linejoin:round;stroke-miterlimit:4;stroke-dasharray:none;stroke-dashoffset:0;stroke-opacity:1;color-rendering:auto;image-rendering:auto;shape-rendering:auto;text-rendering:auto;enable-background:accumulate"
       d="M -3606.1523 1432.4863 C -3660.9253 1432.6483 -3715.3965 1446.505 -3763.8535 1471.7949 C -3830.9178 1506.796 -3885.0581 1562.3782 -3921.3965 1627.4824 C -3933.4268 1598.7397 -3949.9563 1571.824 -3970.7871 1548.1992 C -4029.4083 1481.7157 -4117.7608 1445.0869 -4206.2266 1450.5918 C -4265.586 1454.2855 -4322.3106 1476.3107 -4369.5098 1510.8574 C -4416.6196 1545.3388 -4453.6391 1591.5912 -4479 1643.0664 C -4529.6803 1745.9332 -4532.2416 1864.8226 -4505.9961 1972.5098 C -4474.9125 2100.0486 -4403.6939 2216.8336 -4304.5918 2302.9043 C -4205.491 2388.9739 -4079.9104 2443.1226 -3949.3125 2456.168 C -3839.7134 2467.1158 -3727.9908 2448.6085 -3627.5742 2404.2051 C -3507.6858 2466.2369 -3367.8997 2489.015 -3234.582 2464.7363 C -3119.3566 2443.7525 -3010.825 2388.0394 -2927.7031 2305.0156 C -2844.5412 2221.952 -2788.2784 2112.6643 -2770.8359 1996.0625 C -2755.7545 1895.2448 -2769.8763 1790.7209 -2811.1699 1697.5195 C -2852.4634 1604.3181 -2920.3979 1523.6387 -3005.207 1467.0781 A 35.0035 35.0035 0 1 0 -3044.0469 1525.3145 C -2970.5 1574.3641 -2910.9799 1645.0501 -2875.1699 1725.875 C -2839.3598 1806.6999 -2826.9877 1898.2772 -2840.0664 1985.707 C -2855.1834 2086.7635 -2904.6197 2183.0237 -2977.1699 2255.4883 C -3049.76 2327.9927 -3145.8294 2377.4204 -3247.123 2395.8672 C -3347.8663 2414.2137 -3454.2722 2401.8293 -3549.6836 2363.0996 C -3532.6723 2352.5329 -3516.1515 2341.1442 -3500.2109 2328.9414 C -3373.3196 2231.8037 -3286.1135 2085.7388 -3261.5957 1927.7129 C -3246.5691 1830.8617 -3254.9312 1727.7183 -3298.6699 1636.7832 C -3342.6791 1545.2852 -3423.4275 1469.4397 -3524.2422 1442.8594 C -3549.4104 1436.2237 -3575.1433 1432.8534 -3600.8496 1432.5137 L -3600.8516 1432.5137 C -3602.6189 1432.4903 -3604.3855 1432.4811 -3606.1523 1432.4863 z M -3605.9922 1502.6113 C -3604.5985 1502.6045 -3603.2049 1502.6095 -3601.8125 1502.625 C -3581.5593 1502.8505 -3561.4565 1505.4407 -3542.0898 1510.5469 C -3464.533 1530.9951 -3397.7025 1592.3857 -3361.7539 1667.125 C -3325.5345 1742.4271 -3317.5142 1831.5455 -3330.7695 1916.9805 C -3352.4135 2056.4837 -3430.5746 2187.4761 -3542.7617 2273.3574 C -3568.6368 2293.1653 -3596.4092 2310.4857 -3625.4531 2325.4199 C -3724.4594 2266.0913 -3805.3164 2175.7627 -3855.0957 2071.127 C -3885.0138 2008.2391 -3903.9141 1940.2795 -3907.0938 1872.0078 C -3908.2692 1846.7661 -3907.2208 1821.4158 -3903.9453 1796.4531 A 35.0035 35.0035 0 0 0 -3903.4238 1794.0078 C -3902.3073 1788.1286 -3901.4156 1782.2234 -3900.6777 1776.3066 C -3894.2431 1740.9715 -3883.3062 1706.6881 -3867.416 1674.9941 C -3837.4784 1615.2818 -3789.5732 1564.1785 -3731.4648 1533.8516 C -3692.9021 1513.7255 -3649.1952 1502.8221 -3605.9922 1502.6113 z M -4189.4902 1520.0684 C -4127.4344 1520.012 -4064.2427 1548.0518 -4023.291 1594.4961 C -3982.7205 1640.5081 -3962.8482 1705.9074 -3970.0898 1766.9785 C -3976.3466 1802.7633 -3978.7006 1839.1701 -3977.0195 1875.2656 C -3973.3427 1954.2158 -3951.7037 2030.9988 -3918.3066 2101.1992 C -3869.7347 2203.2971 -3795.1691 2292.8431 -3702.9316 2358.3379 C -3779.6662 2384.4357 -3861.968 2394.5438 -3942.3574 2386.5137 C -4058.2397 2374.9382 -4170.7751 2326.4121 -4258.6934 2250.0547 C -4346.6104 2173.6984 -4410.4179 2069.0572 -4437.9883 1955.9336 C -4461.1492 1860.9026 -4457.7428 1758.3059 -4416.209 1674.0039 C -4395.4626 1631.8947 -4365.2413 1594.4805 -4328.166 1567.3438 C -4291.1799 1540.2724 -4246.6441 1523.2426 -4201.8789 1520.457 C -4197.7589 1520.2007 -4193.6273 1520.0721 -4189.4902 1520.0684 z "
       transform="translate(0,-1048)"
       id="path4141-0-7-6" />
    <path
       style="fill:none;fill-rule:evenodd;stroke:#000000;stroke-width:140;stroke-linecap:round;stroke-linejoin:round;stroke-miterlimit:4;stroke-dasharray:none;stroke-opacity:1"
       d="m 1663.1756,-557.00535 c 113.6429,100.19587 180.1835,251.71693 177.0615,403.19026 -2.2939,111.291866 -41.2898,221.576274 -109.7374,309.36047 -68.4476,87.78421 -166.0061,152.53625 -273.5724,181.18278 -152.3091,40.56221 -322.3743,6.03197 -447.9009,-89.29085 -125.52664,-95.32283 -204.27039,-248.9916394 -210.142,-406.50003 -3.93677,-105.60555 25.34268,-215.00352 94.72245,-294.71849 34.68989,-39.85748 78.95454,-71.66842 128.57435,-89.83097 49.6199,-18.16255 104.5669,-22.39163 155.9231,-9.96008 41.2394,9.98261 79.7074,30.50868 111.9346,58.10846 32.2271,27.59978 58.2627,62.16737 77.2287,100.12299 37.9319,75.91124 47.0805,163.9964 36.8849,248.24244 -17.843,147.4362165 -95.292,287.02449 -211.7541,379.17873 C 1075.9364,324.23459 921.72653,367.53532 774.4795,348.19304 652.64877,332.18943 537.17389,274.29138 449.35656,188.34397 361.53922,102.39656 301.45837,-10.8752 276.60167,-131.21217 c -19.67859,-95.26859 -16.75586,-198.40292 27.87365,-284.84109 22.31476,-43.21909 54.90253,-81.46258 95.58085,-108.12928 40.67831,-26.6667 89.54169,-41.39317 138.12203,-38.98727 63.00812,3.12043 122.77572,35.0362 165.77174,81.20006 42.99602,46.16386 70.05257,105.64947 83.78246,167.2226 9.01005,40.40653 12.55072,82.02896 10.4952,123.3768"
       id="path4141-0-4"
       inkscape:path-effect="#path-effect4143-0-2"
       inkscape:original-d="m 1663.1756,-557.00535 c 0,0 195.3255,257.54571 177.0615,403.19026 -25.8203,205.901516 -177.5711,463.45645 -383.3098,490.54325 -272.2872,35.84834 -636.16897,-222.02642 -658.0429,-495.79088 -14.52799,-181.82591 198.33141,-417.98459 379.2199,-394.50954 153.7444,19.95238 256.6024,254.48091 226.0482,406.47389 -52.6289,261.80432 -362.9649,508.63677 -629.673,495.29141 -230.1011,-11.51362 -468.03442,-250.9573 -497.87783,-479.40521 -21.80438,-166.91009 90.1083,-421.90964 261.57653,-431.95764 96.6983,-5.6665 205.3762,145.99884 249.5542,248.42266 20.6885,47.96507 10.4952,123.3768 10.4952,123.3768"
       inkscape:connector-curvature="0"
       sodipodi:nodetypes="caaaaaaassc" />
    <path
       style="color:#000000;font-style:normal;font-variant:normal;font-weight:normal;font-stretch:normal;font-size:medium;line-height:normal;font-family:sans-serif;text-indent:0;text-align:start;text-decoration:none;text-decoration-line:none;text-decoration-style:solid;text-decoration-color:#000000;letter-spacing:normal;word-spacing:normal;text-transform:none;direction:ltr;block-progression:tb;writing-mode:lr-tb;baseline-shift:baseline;text-anchor:start;white-space:normal;clip-rule:nonzero;display:inline;overflow:visible;visibility:visible;opacity:1;isolation:auto;mix-blend-mode:normal;color-interpolation:sRGB;color-interpolation-filters:linearRGB;solid-color:#000000;solid-opacity:1;fill:#000000;fill-opacity:1;fill-rule:evenodd;stroke:none;stroke-width:140;stroke-linecap:round;stroke-linejoin:round;stroke-miterlimit:4;stroke-dasharray:none;stroke-dashoffset:0;stroke-opacity:1;color-rendering:auto;image-rendering:auto;shape-rendering:auto;text-rendering:auto;enable-background:accumulate"
       d="M -1290.5156 390.57422 C -1351.1441 390.16787 -1409.297 409.13812 -1458.3203 441.27539 C -1510.3263 475.36796 -1550.3852 522.8852 -1577.7227 575.83203 C -1632.1939 681.33159 -1633.9321 800.53262 -1611.9512 906.94727 C -1584.3345 1040.6459 -1517.9889 1166.0826 -1419.6055 1262.3711 C -1321.0965 1358.7825 -1192.42 1423.4985 -1054.6367 1441.5977 C -945.05626 1455.9921 -833.37588 1439.9071 -732.27148 1397.7871 C -611.39311 1450.3371 -473.83455 1462.6661 -345.05859 1428.3711 C -222.31487 1395.6826 -112.31323 1322.644 -34.296875 1222.5879 C 43.704442 1122.551 87.611627 998.30758 90.222656 871.62695 C 93.786772 698.70495 19.20349 528.87192 -110.53125 414.48828 A 70.007 70.007 0 1 0 -203.11719 519.50195 C -105.56618 605.51006 -47.068093 738.71753 -49.748047 868.74219 C -51.724717 964.6453 -85.809227 1060.9704 -144.70312 1136.502 C -203.58201 1212.0142 -288.69699 1268.4814 -381.08594 1293.0859 C -442.31345 1309.3917 -507.78263 1311.1746 -571.19727 1300.166 C -446.99806 1196.255 -365.7927 1045.9213 -346.35547 885.3125 C -334.86053 790.33039 -344.51669 688.62322 -390.11523 597.36914 C -412.93473 551.70161 -444.41528 509.63638 -484.42773 475.36914 C -524.53423 441.02137 -572.53716 415.19554 -625.42773 402.39258 C -691.40898 386.42083 -759.89056 391.9618 -821.88086 414.65234 C -883.65713 437.26456 -937.25475 476.07543 -979.19531 524.26367 C -991.14348 537.99171 -1001.9339 552.39629 -1011.8398 567.25391 C -1026.4261 541.40272 -1043.8932 516.79746 -1064.8262 494.32227 C -1118.9058 436.25821 -1193.9839 395.09463 -1278.3594 390.91602 C -1282.4213 390.71485 -1286.4737 390.60131 -1290.5156 390.57422 z M -1291.3477 530.58203 C -1289.3171 530.59062 -1287.2958 530.64458 -1285.2852 530.74414 C -1243.6444 532.80636 -1199.1859 555.47462 -1167.2734 589.73828 C -1134.7357 624.6733 -1112.1525 672.63442 -1100.5898 724.48828 C -1092.9544 758.73024 -1089.9436 794.11443 -1091.6855 829.1543 A 70.007 70.007 0 0 0 -1091.3828 840.7832 C -1091.4618 849.72672 -1091.3978 858.65611 -1091.0664 867.54492 C -1084.9491 1031.6455 -1010.4665 1189.4977 -887.93945 1298.4316 C -937.07546 1307.4793 -987.38953 1309.2276 -1036.4043 1302.7891 C -1142.2824 1288.881 -1244.556 1237.7998 -1321.6816 1162.3164 C -1398.933 1086.71 -1452.749 985.60227 -1474.8457 878.62695 C -1492.222 794.50442 -1488.114 707.43735 -1453.3262 640.06055 C -1436.034 606.56921 -1410.917 577.60019 -1381.5664 558.35938 C -1356.1344 541.6874 -1326.1217 531.82825 -1297.4648 530.69141 C -1295.4179 530.6102 -1293.3782 530.57344 -1291.3477 530.58203 z M -701.19531 533.38477 C -686.57092 533.45547 -672.13945 535.12863 -658.36523 538.46289 C -628.77711 545.62515 -599.84193 560.85135 -575.49414 581.70312 C -551.05232 602.63545 -530.46201 629.70551 -515.34961 659.94922 C -485.08433 720.5176 -476.44351 794.98222 -485.33984 868.49219 C -500.91329 997.17476 -569.70639 1121.0064 -671.03711 1201.1875 C -689.78203 1216.02 -709.74755 1229.3983 -730.62891 1241.2773 C -743.7498 1233.3834 -756.49225 1224.9133 -768.63867 1215.6895 C -876.53742 1133.7529 -946.09722 998.25047 -951.16406 862.33008 C -954.5525 771.43446 -928.55276 679.32402 -873.5918 616.17578 C -846.15257 584.64907 -811.22122 559.83593 -773.75781 546.12305 C -750.47694 537.60146 -725.5693 533.26683 -701.19531 533.38477 z "
       transform="translate(0,-1048)"
       id="path4141-0-4-8" />
  </g>
</svg>
