<?xml version="1.0" encoding="UTF-8" standalone="no"?>
<!-- Created with Inkscape (http://www.inkscape.org/) -->

<svg
   xmlns:dc="http://purl.org/dc/elements/1.1/"
   xmlns:cc="http://creativecommons.org/ns#"
   xmlns:rdf="http://www.w3.org/1999/02/22-rdf-syntax-ns#"
   xmlns:svg="http://www.w3.org/2000/svg"
   xmlns="http://www.w3.org/2000/svg"
   xmlns:sodipodi="http://sodipodi.sourceforge.net/DTD/sodipodi-0.dtd"
   xmlns:inkscape="http://www.inkscape.org/namespaces/inkscape"
   width="2000"
   height="2048"
   id="svg2992"
   version="1.1"
   inkscape:version="0.91pre3 r13670"
   sodipodi:docname="യ്യ.svg">
  <defs
     id="defs5498">
    <inkscape:path-effect
       effect="spiro"
       id="path-effect4151"
       is_visible="true" />
    <inkscape:path-effect
       effect="spiro"
       id="path-effect6255"
       is_visible="true" />
    <inkscape:path-effect
       effect="spiro"
       id="path-effect4143-0"
       is_visible="true" />
    <inkscape:path-effect
       effect="spiro"
       id="path-effect4151-1"
       is_visible="true" />
    <inkscape:path-effect
       effect="spiro"
       id="path-effect4143-0-2"
       is_visible="true" />
    <inkscape:path-effect
       effect="spiro"
       id="path-effect4151-1-6"
       is_visible="true" />
    <inkscape:path-effect
       effect="spiro"
       id="path-effect4143-0-2-5"
       is_visible="true" />
  </defs>
  <sodipodi:namedview
     inkscape:window-height="853"
     inkscape:window-width="1600"
     inkscape:pageshadow="2"
     inkscape:pageopacity="0.0"
     borderopacity="1.0"
     bordercolor="#666666"
     pagecolor="#ffffff"
     id="base"
     showgrid="true"
     showguides="true"
     inkscape:guide-bbox="true"
     inkscape:zoom="0.16051324"
     inkscape:cx="395.89976"
     inkscape:cy="1306.3419"
     inkscape:window-x="1598"
     inkscape:window-y="-3"
     inkscape:current-layer="layer1"
     inkscape:window-maximized="1">
    <sodipodi:guide
       orientation="horizontal"
       position="0,600"
       id="guide5596" />
    <inkscape:grid
       type="xygrid"
       id="grid3769"
       empspacing="3"
       visible="true"
       enabled="true"
       snapvisiblegridlinesonly="true"
       spacingx="4px"
       units="px"
       dotted="true"
       spacingy="4px" />
    <sodipodi:guide
       orientation="0,1"
       position="-1040,1600"
       id="guide2985" />
  </sodipodi:namedview>
  <metadata
     id="metadata5594">
    <rdf:RDF>
      <cc:Work
         rdf:about="">
        <dc:format>image/svg+xml</dc:format>
        <dc:type
           rdf:resource="http://purl.org/dc/dcmitype/StillImage" />
        <dc:title />
      </cc:Work>
    </rdf:RDF>
  </metadata>
  <g
     inkscape:label="Layer 1"
     inkscape:groupmode="layer"
     id="layer1"
     transform="translate(0,1048)">
    <path
       style="fill:none;fill-rule:evenodd;stroke:#000000;stroke-width:140;stroke-linecap:round;stroke-linejoin:round;stroke-miterlimit:4;stroke-dasharray:none;stroke-opacity:1"
       d="m -394.15325,-554.9883 c 75.52325,50.20545 136.32945,122.27258 173.10905,205.16775 36.77961,82.89518 49.40825,176.33811 35.95246,266.022502 -15.56172,103.720693 -66.0408,201.631228 -140.31737,275.679458 -74.27656,74.04823 -171.80871,124.06832 -274.99243,142.86379 -122.99323,22.40388 -253.19385,0.23574 -363.13737,-59.27635 -109.94349,-59.51209 -199.21139,-155.61541 -252.90549,-268.5145262 -30.155,-63.4050568 -49.4327,-132.3726638 -52.6504,-202.5094938 -3.2176,-70.13683 9.9486,-141.4357 41.4691,-204.17316 31.5204,-62.73747 81.762,-116.53888 144.0237,-148.98896 62.2617,-32.45008 136.48429,-42.72782 204.37744,-24.83792 84.97711,22.39154 155.31795,87.71288 193.4687,166.87734 38.15075,79.16445 46.02774,170.75395 32.57952,257.59654 -21.96552,141.8434912 -100.91793,273.89042 -214.97531,361.02808 -114.05739,87.13767 -261.87975,128.58371 -404.69775,114.26333 -117.455,-11.77722 -230.927,-60.65904 -320.112,-137.99206 -89.1851,-77.33301 -153.656,-182.7649483 -181.7658,-297.41315 -23.694,-96.63812 -20.9791,-202.29226 23.0147,-291.53846 21.9968,-44.62311 54.1097,-84.49872 94.3177,-113.79716 40.208,-29.29844 88.5757,-47.76987 138.2441,-50.62202 72.6089,-4.16948 146.4451,26.4933 194.7401,80.87188 48.295,54.37859 70.0239,131.31911 57.3093,202.92758"
       id="path4141-0-8"
       inkscape:path-effect="#path-effect4143-0-2"
       inkscape:original-d="m -394.15325,-554.9883 c 0,0 240.15591,302.19807 209.06151,471.190252 C -220.65834,109.4996 -406.07015,305.34643 -600.40154,334.7452 -830.39194,369.5385 -1152.6599,230.64548 -1216.4444,6.9543238 -1277.8092,-208.25049 -1102.9691,-577.68623 -879.22456,-573.55521 c 160.27652,2.9592 260.02652,267.81247 226.04822,424.47388 -55.1778,254.40459 -359.47166,483.13902 -619.67306,475.29141 -221.3739,-6.67658 -463.8287,-217.22345 -501.8778,-435.40521 -29.9332,-171.64329 82.3515,-437.23531 255.5765,-455.95764 125.7897,-13.59548 252.0494,283.79946 252.0494,283.79946"
       inkscape:connector-curvature="0"
       sodipodi:nodetypes="caaaaaaaac" />
    <path
       style="fill:none;fill-rule:evenodd;stroke:#000000;stroke-width:140;stroke-linecap:round;stroke-linejoin:round;stroke-miterlimit:4;stroke-dasharray:none;stroke-opacity:1"
       d="m -708.01854,397.687 c -39.50133,82.82564 -97.03406,156.99458 -167.43539,215.85113 -84.59302,70.72101 -187.72877,119.06146 -296.20257,138.83217 l 813.99995,-2 -0.4601,-401.1738"
       id="path4149-0"
       inkscape:path-effect="#path-effect4151-1"
       inkscape:original-d="m -708.01854,397.687 c 0,0 -96.32624,158.97142 -167.43539,215.85113 -85.15152,68.11209 -296.20257,138.83217 -296.20257,138.83217 l 813.99995,-2 -0.4601,-401.1738"
       inkscape:connector-curvature="0"
       sodipodi:nodetypes="caccc" />
    <path
       style="color:#000000;font-style:normal;font-variant:normal;font-weight:normal;font-stretch:normal;font-size:medium;line-height:normal;font-family:sans-serif;text-indent:0;text-align:start;text-decoration:none;text-decoration-line:none;text-decoration-style:solid;text-decoration-color:#000000;letter-spacing:normal;word-spacing:normal;text-transform:none;direction:ltr;block-progression:tb;writing-mode:lr-tb;baseline-shift:baseline;text-anchor:start;white-space:normal;clip-rule:nonzero;display:inline;overflow:visible;visibility:visible;opacity:1;isolation:auto;mix-blend-mode:normal;color-interpolation:sRGB;color-interpolation-filters:linearRGB;solid-color:#000000;solid-opacity:1;fill:#000000;fill-opacity:1;fill-rule:evenodd;stroke:none;stroke-width:140;stroke-linecap:round;stroke-linejoin:round;stroke-miterlimit:4;stroke-dasharray:none;stroke-dashoffset:0;stroke-opacity:1;color-rendering:auto;image-rendering:auto;shape-rendering:auto;text-rendering:auto;enable-background:accumulate"
       d="M 989.27539 417.70508 C 931.04198 417.8257 873.51417 432.54833 822.1582 459.31445 C 769.87379 486.56448 725.45454 525.27707 690.51562 570.92969 C 683.05646 559.95686 674.94616 549.3687 666.04102 539.3418 C 602.89885 468.24575 509.88005 429.61707 414.94922 435.06836 C 350.60796 438.76308 289.97879 462.21521 239.49414 499.00195 C 189.19137 535.65615 150.24388 584.39871 123.61328 638.42188 C 70.437309 746.29532 68.599959 868.28025 95.398438 977.58008 C 127.03943 1106.6306 198.9311 1224.1864 299.29297 1311.2109 C 399.65073 1398.2319 526.14536 1452.7177 658.2793 1465.9668 C 763.4865 1476.5159 870.16139 1460.3159 967.43359 1420.4648 C 1024.0671 1447.7888 1084.6348 1466.5982 1146.6758 1476.1582 C 1113.1599 1534.4078 1069.2406 1586.9007 1017.7598 1629.9395 C 942.60411 1692.7707 850.27648 1736.0463 753.9043 1753.6113 A 70.007 70.007 0 0 0 766.62695 1892.4766 L 1580.627 1890.4766 A 70.007 70.007 0 0 0 1650.4551 1820.3965 L 1649.9961 1419.2227 A 70.007 70.007 0 0 0 1611.9375 1356.0527 C 1629.4706 1342.2433 1646.2392 1327.3975 1662.125 1311.5605 C 1747.0209 1226.9256 1804.3478 1115.9877 1822.2461 996.69336 C 1837.714 893.59802 1823.3321 787.18731 1781.0527 691.89648 C 1738.7733 596.60562 1669.5275 514.53712 1582.7109 456.82422 A 70.007 70.007 0 1 0 1505.207 573.41211 C 1569.4369 616.11011 1621.8042 678.17631 1653.084 748.67578 C 1684.3638 819.17527 1695.2386 899.64844 1683.7949 975.92188 C 1670.5698 1064.0689 1626.9385 1148.9525 1563.2812 1212.4141 C 1499.5406 1275.9589 1414.4593 1319.7191 1325.166 1335.9844 C 1259.0677 1348.0245 1189.7184 1345.0803 1123.6484 1328.6875 C 1246.2681 1230.4413 1330.0035 1087.4138 1354.1113 931.73633 C 1369.3312 833.45316 1361.0977 727.8306 1315.416 633.03906 C 1269.1944 537.12709 1184.9342 457.37464 1076.7246 428.86133 C 1049.7133 421.74382 1022.2544 418.12498 994.91211 417.73828 C 993.03233 417.7117 991.15389 417.70119 989.27539 417.70508 z M 990.50391 557.94922 C 1007.7965 557.91513 1024.8578 559.97338 1041.0508 564.24023 C 1102.7954 580.51 1159.2171 631.40141 1189.2969 693.81836 C 1219.9166 757.35575 1227.4363 834.91047 1215.7598 910.3125 C 1196.6708 1033.5803 1126.7964 1150.5404 1027.4648 1226.4277 C 1009.9946 1239.7747 991.49856 1251.8405 972.27344 1262.7148 C 892.17436 1210.1611 826.28042 1134.0402 784.88281 1046.9961 C 758.21396 990.92123 741.67069 930.79284 738.94336 871.34375 C 736.22587 812.10928 747.55549 752.51875 773.03516 701.80469 C 798.36678 651.38528 839.0361 608.38986 886.86328 583.46289 C 916.49714 568.01807 950.04096 559.29076 983.08008 558.0918 C 985.55801 558.00187 988.03354 557.95409 990.50391 557.94922 z M 432.44922 574.59375 C 480.01132 574.84584 530.00598 597.00128 561.36328 632.30859 C 594.81108 669.96973 610.89566 726.92153 602.08984 776.51562 A 70.007 70.007 0 0 0 601.62695 799.72461 C 598.85856 825.71928 597.90238 851.83346 599.0918 877.75977 C 602.79977 958.58433 624.8119 1036.3898 658.45312 1107.125 C 696.73118 1187.6098 750.96192 1260.181 817.29883 1319.6152 C 769.44927 1328.8954 720.37622 1331.492 672.24609 1326.666 C 569.47011 1316.3607 469.02213 1273.0826 391.00977 1205.4375 C 313.0015 1137.796 255.9497 1044.4881 231.37109 944.24219 C 210.78149 860.26578 214.37408 770.94125 249.18555 700.32227 C 266.54867 665.09923 291.82814 634.09112 321.94141 612.14844 C 351.87279 590.33828 387.97909 576.84747 422.97461 574.83789 C 426.11754 574.65741 429.27841 574.57694 432.44922 574.59375 z M 1509.998 1420.5547 L 1510.375 1750.6484 L 1089.8301 1751.6816 C 1095.8126 1747.001 1101.7241 1742.2257 1107.5566 1737.3496 C 1185.7619 1671.9688 1249.3953 1589.9327 1293.2754 1497.9258 A 70.007 70.007 0 0 0 1299.0645 1480.7695 C 1316.183 1479.1541 1333.2638 1476.8139 1350.2559 1473.7188 C 1405.738 1463.6124 1459.6254 1445.6506 1509.998 1420.5547 z "
       transform="translate(0,-1048)"
       id="path4141-0-8-4" />
  </g>
</svg>
