<?xml version="1.0" encoding="UTF-8" standalone="no"?>
<!-- Created with Inkscape (http://www.inkscape.org/) -->

<svg
   xmlns:dc="http://purl.org/dc/elements/1.1/"
   xmlns:cc="http://creativecommons.org/ns#"
   xmlns:rdf="http://www.w3.org/1999/02/22-rdf-syntax-ns#"
   xmlns:svg="http://www.w3.org/2000/svg"
   xmlns="http://www.w3.org/2000/svg"
   xmlns:sodipodi="http://sodipodi.sourceforge.net/DTD/sodipodi-0.dtd"
   xmlns:inkscape="http://www.inkscape.org/namespaces/inkscape"
   sodipodi:docname="ര.svg"
   inkscape:version="0.91 r13725"
   version="1.1"
   id="svg2992"
   height="2000"
   width="2048">
  <defs
     id="defs5498">
    <inkscape:path-effect
       effect="spiro"
       id="path-effect4574"
       is_visible="true" />
    <filter
       inkscape:label="Black Hole"
       inkscape:menu="Morphology"
       inkscape:menu-tooltip="Creates a black light inside and outside"
       height="1.5"
       width="1.5"
       y="-0.25"
       x="-0.25"
       style="color-interpolation-filters:sRGB;"
       id="filter5478">
      <feGaussianBlur
         stdDeviation="5"
         in="SourceAlpha"
         result="result1"
         id="feGaussianBlur5480" />
      <feComposite
         operator="arithmetic"
         k2="3.2"
         k1="-1"
         k4="-2"
         result="result3"
         in2="result1"
         id="feComposite5482" />
      <feColorMatrix
         values="1 0 0 0 0 0 1 0 0 0 0 0 1 0 0 0 0 0 10 0 "
         result="result2"
         id="feColorMatrix5484" />
      <feComposite
         result="fbSourceGraphic"
         in="SourceGraphic"
         operator="out"
         in2="result2"
         id="feComposite5486" />
      <feBlend
         mode="multiply"
         in="result1"
         in2="fbSourceGraphic"
         result="result91"
         id="feBlend5488" />
      <feBlend
         mode="screen"
         in="fbSourceGraphic"
         in2="result91"
         id="feBlend5490" />
    </filter>
    <inkscape:path-effect
       effect="spiro"
       id="path-effect4141-3-4"
       is_visible="true" />
    <inkscape:path-effect
       effect="spiro"
       id="path-effect4141-3-4-6"
       is_visible="true" />
    <inkscape:path-effect
       effect="spiro"
       id="path-effect4141-3-4-6-5"
       is_visible="true" />
    <inkscape:path-effect
       effect="spiro"
       id="path-effect4141-3-4-6-8"
       is_visible="true" />
    <inkscape:path-effect
       effect="spiro"
       id="path-effect4141-3-4-6-0"
       is_visible="true" />
    <inkscape:path-effect
       effect="spiro"
       id="path-effect4141-3-4-6-0-1"
       is_visible="true" />
    <inkscape:path-effect
       effect="spiro"
       id="path-effect4141-3-4-6-0-1-5"
       is_visible="true" />
    <inkscape:path-effect
       effect="spiro"
       id="path-effect4141-3-4-6-0-3"
       is_visible="true" />
  </defs>
  <sodipodi:namedview
     inkscape:window-height="851"
     inkscape:window-width="1600"
     inkscape:pageshadow="2"
     inkscape:pageopacity="0.0"
     borderopacity="1.0"
     bordercolor="#666666"
     pagecolor="#ffffff"
     id="base"
     showgrid="true"
     showguides="true"
     inkscape:guide-bbox="true"
     inkscape:zoom="0.5"
     inkscape:cx="1073.6681"
     inkscape:cy="-20.939957"
     inkscape:window-x="1599"
     inkscape:window-y="-1"
     inkscape:current-layer="layer1"
     inkscape:window-maximized="1"
     inkscape:snap-text-baseline="false">
    <sodipodi:guide
       orientation="horizontal"
       position="0,600"
       id="guide5596" />
    <inkscape:grid
       type="xygrid"
       id="grid3769"
       empspacing="5"
       visible="true"
       enabled="true"
       snapvisiblegridlinesonly="true" />
    <sodipodi:guide
       orientation="0,1"
       position="-1280,1600"
       id="guide4138" />
  </sodipodi:namedview>
  <metadata
     id="metadata5594">
    <rdf:RDF>
      <cc:Work
         rdf:about="">
        <dc:format>image/svg+xml</dc:format>
        <dc:type
           rdf:resource="http://purl.org/dc/dcmitype/StillImage" />
        <dc:title />
      </cc:Work>
    </rdf:RDF>
  </metadata>
  <g
     inkscape:label="Layer 1"
     inkscape:groupmode="layer"
     id="layer1"
     transform="translate(0,1000)">
    <path
       style="fill:none;fill-rule:evenodd;stroke:#000000;stroke-width:140;stroke-linecap:round;stroke-linejoin:round;stroke-miterlimit:4;stroke-dasharray:none;stroke-opacity:1"
       d="m 1217.6514,113.3607 c 21.6631,-85.660104 7.868,-179.722712 -37.4795,-255.55512 -45.3474,-75.83241 -121.6851,-132.49483 -207.39905,-153.94397 -85.71393,-21.44914 -179.7418,-7.41918 -255.46074,38.11745 -75.71894,45.53664 -132.19057,122.01562 -153.42562,207.78284 -22.9022,92.500738 -4.11776,194.63259 50.76137,272.53752 54.87913,77.90493 145.03833,130.06501 239.99053,138.12588 57.46082,4.87808 116.0281,-5.85834 168.51461,-29.7479 52.4864,-23.88956 98.8463,-60.78696 134.8265,-105.85319 71.9605,-90.13245 100.2325,-211.642808 84.1035,-325.84448 -17.9392,-127.01889 -89.0999,-244.5764 -189.6417,-324.24417 C 951.89945,-504.9322 823.51214,-547.0987 695.24389,-548.79234 569.11848,-550.45769 441.80161,-513.03618 340.24686,-438.22292 238.69211,-363.40966 164.36127,-250.7352 141.59259,-126.67079 124.76576,-34.983 136.11533,61.678841 173.72278,146.97522 211.33022,232.2716 275.03924,305.848 354.08059,355.2672"
       id="path4139-1-0-5-6"
       inkscape:path-effect="#path-effect4141-3-4-6-0"
       inkscape:original-d="M 1217.6514,113.3607 C 1000.029,-258.90339 690.72136,-235.64737 563.88649,-50.2381 c -94.6986,138.431959 123.17043,403.75801 290.7519,410.6634 200.67381,8.26899 406.11921,-261.471497 387.44461,-461.44557 -21.9055,-234.57152 -311.28247,-443.6834 -546.83911,-447.77207 -232.03696,-4.02758 -495.7724,197.38302 -553.6513,422.12155 -43.786644,170.019588 212.488,481.93799 212.488,481.93799"
       inkscape:connector-curvature="0"
       sodipodi:nodetypes="caaaaac" />
    <path
       style="fill:none;fill-rule:evenodd;stroke:#000000;stroke-width:70;stroke-linecap:round;stroke-linejoin:round;stroke-miterlimit:4;stroke-dasharray:none;stroke-opacity:1"
       d="m -241.79406,-83.260107 c -16.98371,-91.102953 -68.38909,-175.360933 -141.62889,-232.142333 -73.2398,-56.78139 -167.64901,-85.57064 -260.11037,-79.31834 -92.46136,6.25231 -182.13534,47.4894 -247.06415,113.61385 -64.92882,66.12446 -104.52292,156.5359 -109.08721,249.095941 -4.36492,88.518029 23.30517,178.393929 77.27933,248.688199 53.97417,70.29426 133.91858,120.32636 220.87773,137.43193 68.27975,13.43118 140.26092,6.76966 205.25453,-18.097 64.99362,-24.86666 122.85442,-67.76295 166.2713,-122.1458 43.41688,-54.38286 72.36911,-120.064125 84.14933,-188.647992 11.78023,-68.583867 6.45644,-139.929538 -14.47517,-206.295098 -37.38909,-118.54548 -124.13916,-218.62268 -230.7943,-282.46355 -106.65514,-63.84086 -232.02324,-92.89819 -356.31792,-94.24208 -136.14224,-1.47199 -274.58475,30.58392 -388.66865,104.89232 -114.0839,74.3084 -201.6537,193.07374 -224.7941,327.24302 -18.1892,105.462236 4.3466,217.422895 61.9219,307.63498 57.5752,90.21209 149.6327,157.80255 252.9469,185.71872"
       id="path4139-1-0-5-6-1"
       inkscape:path-effect="#path-effect4141-3-4-6-0-1"
       inkscape:original-d="m -241.79406,-83.260107 c -231.11389,-394.168033 -653.98104,-179.654863 -757.89062,51.249118 -66.73202,148.289469 135.26122,383.532439 298.15706,386.120129 231.58111,3.67884 477.07089,-307.049783 441.19999,-535.18589 -36.04368,-229.23543 -354.44012,-381.72529 -587.11222,-376.70563 -250.31715,5.40032 -565.07025,187.21057 -613.46275,432.13534 -37.7868,191.246682 314.8688,493.3537 314.8688,493.3537"
       inkscape:connector-curvature="0"
       sodipodi:nodetypes="caaaaac" />
    <path
       style="color:#000000;font-style:normal;font-variant:normal;font-weight:normal;font-stretch:normal;font-size:medium;line-height:normal;font-family:sans-serif;text-indent:0;text-align:start;text-decoration:none;text-decoration-line:none;text-decoration-style:solid;text-decoration-color:#000000;letter-spacing:normal;word-spacing:normal;text-transform:none;direction:ltr;block-progression:tb;writing-mode:lr-tb;baseline-shift:baseline;text-anchor:start;white-space:normal;clip-rule:nonzero;display:inline;overflow:visible;visibility:visible;opacity:1;isolation:auto;mix-blend-mode:normal;color-interpolation:sRGB;color-interpolation-filters:linearRGB;solid-color:#000000;solid-opacity:1;fill:#000000;fill-opacity:1;fill-rule:evenodd;stroke:none;stroke-width:70;stroke-linecap:round;stroke-linejoin:round;stroke-miterlimit:4;stroke-dasharray:none;stroke-dashoffset:0;stroke-opacity:1;color-rendering:auto;image-rendering:auto;shape-rendering:auto;text-rendering:auto;enable-background:accumulate"
       d="m -1007.0605,527.21875 c -141.8918,-1.53417 -287.0732,31.70095 -408.1504,110.56445 -121.5115,79.14632 -215.1156,205.28675 -240.1817,350.6211 -19.7174,114.3223 4.496,234.6231 66.9082,332.4141 62.4123,97.7909 161.3266,170.4143 273.3203,200.6757 a 35.0035,35.0035 0 1 0 18.2598,-67.5761 c -94.6346,-25.5709 -179.834,-88.1266 -232.5723,-170.7598 -52.7382,-82.6332 -73.5967,-186.2553 -56.9355,-282.8574 21.2147,-123.00425 102.7499,-234.39282 209.4062,-303.8633 107.0906,-69.75329 238.7949,-100.63249 369.1875,-99.22266 119.09528,1.28769 238.42065,29.23849 338.72074,89.27539 17.70996,10.60071 34.78495,22.32335 51.14844,34.95899 -59.15461,-24.43083 -123.76879,-35.42951 -187.94531,-31.08984 -101.27707,6.84842 -198.55637,51.58264 -269.67577,124.01171 -71.1194,72.42909 -114.0728,170.50937 -119.0723,271.89451 -4.7807,96.9494 25.2451,194.5853 84.4766,271.7266 59.2556,77.1725 146.22796,131.6429 241.8828,150.459 75.00101,14.7533 153.41716,7.4531 224.51758,-19.75 71.06526,-27.1898 133.83765,-73.7794 181.11523,-132.9981 47.25643,-59.1921 78.52421,-130.2214 91.29297,-204.5605 12.76362,-74.3091 6.99216,-151.14359 -15.5918,-222.74807 -40.36076,-127.96742 -132.88769,-234.14277 -246.19726,-301.9668 -113.01019,-67.64481 -244.41995,-97.80886 -373.91402,-99.20898 z m 221.59956,232.29297 c 78.65691,-1.57782 158.47804,24.58898 220.59375,72.74609 66.25677,51.36759 113.30162,128.47973 128.66602,210.89649 a 35.0035,35.0035 0 0 0 0.52734,2.3594 c 2.09931,31.3737 0.62387,62.9364 -4.67383,93.7793 -10.79167,62.8286 -37.42851,123.1628 -77.00586,172.7363 -39.55617,49.5471 -92.50383,88.7493 -151.42578,111.293 -58.88683,22.5302 -124.43369,28.5543 -185.99218,16.4453 -78.26344,-15.3951 -151.18022,-60.9904 -199.87302,-124.4063 -48.7168,-63.4472 -74.0313,-145.5618 -70.0821,-225.6484 4.1292,-83.7349 40.3654,-166.479 99.1036,-226.29884 58.73815,-59.81983 140.80548,-97.55867 224.45112,-103.21484 5.22786,-0.35351 10.46715,-0.58231 15.71094,-0.6875 z"
       id="path4139-1-0-5-6-1-7"
       inkscape:connector-curvature="0" />
    <path
       style="color:#000000;font-style:normal;font-variant:normal;font-weight:normal;font-stretch:normal;font-size:medium;line-height:normal;font-family:sans-serif;text-indent:0;text-align:start;text-decoration:none;text-decoration-line:none;text-decoration-style:solid;text-decoration-color:#000000;letter-spacing:normal;word-spacing:normal;text-transform:none;direction:ltr;block-progression:tb;writing-mode:lr-tb;baseline-shift:baseline;text-anchor:start;white-space:normal;clip-rule:nonzero;display:inline;overflow:visible;visibility:visible;opacity:1;isolation:auto;mix-blend-mode:normal;color-interpolation:sRGB;color-interpolation-filters:linearRGB;solid-color:#000000;solid-opacity:1;fill:#000000;fill-opacity:1;fill-rule:evenodd;stroke:none;stroke-width:140;stroke-linecap:round;stroke-linejoin:round;stroke-miterlimit:4;stroke-dasharray:none;stroke-dashoffset:0;stroke-opacity:1;color-rendering:auto;image-rendering:auto;shape-rendering:auto;text-rendering:auto;enable-background:accumulate"
       d="M 716.16797,627.21289 C 575.5783,625.35657 433.80198,666.64574 318.72852,751.41797 203.28422,836.46338 119.03505,963.42591 92.742188,1106.6934 c -19.412272,105.7757 -6.456193,216.1191 36.929692,314.5214 43.38588,98.4022 116.11266,182.3938 207.29882,239.4063 32.81529,21.1633 76.60097,11.3897 97.30201,-21.7191 20.70104,-33.1088 10.31454,-76.7531 -23.0813,-96.9879 -66.89652,-41.8259 -121.58896,-104.9893 -153.41797,-177.1797 -31.82902,-72.1905 -41.57143,-155.1697 -27.33008,-232.7696 19.24447,-104.8613 83.65707,-203.24891 171.32226,-267.83003 88.03604,-64.85432 200.89354,-98.40795 312.55469,-96.9336 113.5478,1.49927 227.41803,39.27844 314.64849,108.39844 7.7711,6.15771 15.2616,12.67742 22.6152,19.35742 -13.6614,-5.0504 -27.5998,-9.44388 -41.8184,-13.00195 -104.38238,-26.12076 -216.31877,-9.41739 -308.52927,46.03711 -92.21051,55.45451 -159.43879,146.50001 -185.29883,250.94731 -27.93711,112.8364 -5.65163,234.3674 61.48438,329.6718 67.19472,95.3879 174.70347,157.6646 291.29492,167.5625 70.08169,5.9496 140.2763,-7.0378 203.4355,-35.7851 63.0757,-28.7093 117.8822,-72.4713 160.5313,-125.8907 85.5219,-107.1185 117.3853,-247.0813 98.7109,-379.3066 C 1310.707,988.71314 1230.126,856.3709 1115.9141,765.87109 1002.0608,675.65556 859.15667,629.1009 716.16797,627.21289 Z"
       id="path4139-1-0-5-6-12"
       inkscape:connector-curvature="0"
       sodipodi:nodetypes="sssscscssssscssssssssss" />
    <path
       style="opacity:1;fill:#008080;fill-opacity:1;fill-rule:evenodd;stroke:none;stroke-width:0;stroke-linecap:round;stroke-linejoin:round;stroke-miterlimit:4;stroke-dasharray:none;stroke-opacity:1"
       d="m 1178,1273 a 267,267 0 0 1 -267,267 267,267 0 0 1 -267,-267 267,267 0 0 1 267,-267 267,267 0 0 1 267,267 z"
       id="path4176" />
  </g>
</svg>
