<?xml version="1.0" encoding="UTF-8" standalone="no"?>
<!-- Created with Inkscape (http://www.inkscape.org/) -->

<svg
   xmlns:dc="http://purl.org/dc/elements/1.1/"
   xmlns:cc="http://creativecommons.org/ns#"
   xmlns:rdf="http://www.w3.org/1999/02/22-rdf-syntax-ns#"
   xmlns:svg="http://www.w3.org/2000/svg"
   xmlns="http://www.w3.org/2000/svg"
   xmlns:sodipodi="http://sodipodi.sourceforge.net/DTD/sodipodi-0.dtd"
   xmlns:inkscape="http://www.inkscape.org/namespaces/inkscape"
   width="2048"
   height="2000"
   id="svg2992"
   version="1.1"
   inkscape:version="0.91 r13725"
   sodipodi:docname="രൂ.svg">
  <defs
     id="defs5498">
    <inkscape:path-effect
       effect="spiro"
       id="path-effect4574"
       is_visible="true" />
    <inkscape:path-effect
       effect="spiro"
       id="path-effect4141-3-4-6-8-86"
       is_visible="true" />
    <inkscape:path-effect
       effect="spiro"
       id="path-effect4141-3-4-6-8-86-1"
       is_visible="true" />
    <inkscape:path-effect
       effect="spiro"
       id="path-effect4141-3-4-6-8-86-1-7"
       is_visible="true" />
    <inkscape:path-effect
       effect="spiro"
       id="path-effect4141-3-4-6-8-86-1-0"
       is_visible="true" />
    <inkscape:path-effect
       effect="spiro"
       id="path-effect4141-3-4-6-8-86-1-3"
       is_visible="true" />
    <inkscape:path-effect
       effect="spiro"
       id="path-effect4141-3-4-6-8-86-1-38"
       is_visible="true" />
  </defs>
  <sodipodi:namedview
     inkscape:window-height="842"
     inkscape:window-width="1600"
     inkscape:pageshadow="2"
     inkscape:pageopacity="0.0"
     borderopacity="1.0"
     bordercolor="#666666"
     pagecolor="#ffffff"
     id="base"
     showgrid="true"
     showguides="true"
     inkscape:guide-bbox="true"
     inkscape:zoom="0.35355339"
     inkscape:cx="804.85751"
     inkscape:cy="-631.25684"
     inkscape:window-x="1600"
     inkscape:window-y="0"
     inkscape:current-layer="layer1"
     inkscape:window-maximized="1">
    <sodipodi:guide
       orientation="horizontal"
       position="0,600"
       id="guide5596" />
    <inkscape:grid
       type="xygrid"
       id="grid3769"
       empspacing="5"
       visible="true"
       enabled="true"
       snapvisiblegridlinesonly="true" />
    <sodipodi:guide
       orientation="0,1"
       position="-1280,1600"
       id="guide4138" />
  </sodipodi:namedview>
  <metadata
     id="metadata5594">
    <rdf:RDF>
      <cc:Work
         rdf:about="">
        <dc:format>image/svg+xml</dc:format>
        <dc:type
           rdf:resource="http://purl.org/dc/dcmitype/StillImage" />
        <dc:title />
      </cc:Work>
    </rdf:RDF>
  </metadata>
  <g
     inkscape:label="Layer 1"
     inkscape:groupmode="layer"
     id="layer1"
     transform="translate(0,1000)">
    <path
       style="fill:none;fill-rule:evenodd;stroke:#000000;stroke-width:140;stroke-linecap:round;stroke-linejoin:round;stroke-miterlimit:4;stroke-dasharray:none;stroke-opacity:1"
       d="m -86.310042,-562.79995 c -123.513118,137.26669 -196.243188,319.22983 -201.372808,503.814015 -3.14021,112.997379 18.75609,227.035115 66.95088,329.287405 48.19479,102.25229 122.790055,191.88762 214.541533,257.91742 91.751478,66.0298 199.696887,107.84165 310.825557,128.54641 111.12867,20.70475 224.95533,20.49076 337.98676,19.01989 l 277.90772,-3.6164 c 121.8437,-1.58555 246.2512,-3.55205 361.1446,-44.14634 57.4468,-20.29714 111.9289,-50.36992 156.5236,-91.88399 44.5946,-41.51406 78.9892,-94.83697 93.8091,-153.93412 19.1588,-76.39959 3.8243,-160.76336 -40.9944,-225.534 -44.8188,-64.770645 -118.3649,-108.854225 -196.6146,-117.850912 74.2754,-10.20616 143.6346,-52.237866 187.0569,-113.356637 43.4224,-61.118771 60.2846,-140.447341 45.4764,-213.943741 -15.7836,-78.33748 -66.1119,-147.46993 -131.0536,-194.03671 -64.9417,-46.56677 -143.5772,-71.72352 -222.979,-80.73648 -151.8667,-17.2385 -310.30217,24.84817 -431.49515,117.97665 -121.19298,93.12849 -203.0684,236.8243 -217.95783,388.93925 -8.9299,91.230616 6.65815,187.12209 57.40107,263.46293 25.37146,38.17043 59.28135,70.90168 99.3252,93.19926 40.04385,22.29758 86.25557,33.93357 132.01353,31.30651 41.5948,-2.38805 82.24125,-16.48441 117.34111,-38.93058 35.09985,-22.44618 64.70203,-53.09096 87.40117,-88.02774 45.3984,-69.87354 62.5268,-155.29834 61.0841,-238.612449 -2.8675,-165.596011 -80.45247,-330.432681 -212.35363,-430.594281 -65.95058,-50.0808 -144.38273,-83.85903 -226.28849,-96.06604 -81.90577,-12.20702 -167.11925,-2.6744 -243.81846,28.54735 -94.24618,38.36455 -174.56304,109.47798 -225.23881,197.71713 -50.67578,88.23915 -71.620718,192.98338 -60.12667,294.087628 17.43287,153.343452 111.64337,296.014182 245.82098,372.266972"
       id="path4139-1-0-4-2-1-2"
       inkscape:path-effect="#path-effect4141-3-4-6-8-86-1"
       inkscape:original-d="m -86.310042,-562.79995 c 0,0 -248.046468,329.08448 -201.372808,503.814015 C -185.70377,322.7874 288.57139,680.39243 642.62188,675.78519 l 277.90772,-3.6164 c 312.1994,-4.06264 553.1917,-72.04271 611.4773,-289.96445 35.9645,-134.46612 -237.609,-343.384912 -237.609,-343.384912 0,0 252.0744,-194.903428 232.5333,-327.300378 -21.812,-147.78269 -204.649,-274.97801 -354.0326,-274.77319 -274.62126,0.37654 -612.73093,234.76065 -649.45298,506.9159 -21.55645,159.75963 127.53489,388.86197 288.7398,387.9687 C 962.85038,330.7956 1101.3894,114.90228 1078.0118,-33.940309 1034.3131,-312.1654 671.15927,-590.01002 395.55122,-532.05328 210.07463,-493.05 104.70501,-229.70242 110.18574,-40.248522 114.48575,108.39133 356.00672,332.01845 356.00672,332.01845"
       inkscape:connector-curvature="0"
       sodipodi:nodetypes="cassacaaaaaaac" />
    <path
       style="color:#000000;font-style:normal;font-variant:normal;font-weight:normal;font-stretch:normal;font-size:medium;line-height:normal;font-family:sans-serif;text-indent:0;text-align:start;text-decoration:none;text-decoration-line:none;text-decoration-style:solid;text-decoration-color:#000000;letter-spacing:normal;word-spacing:normal;text-transform:none;direction:ltr;block-progression:tb;writing-mode:lr-tb;baseline-shift:baseline;text-anchor:start;white-space:normal;clip-rule:nonzero;display:inline;overflow:visible;visibility:visible;opacity:1;isolation:auto;mix-blend-mode:normal;color-interpolation:sRGB;color-interpolation-filters:linearRGB;solid-color:#000000;solid-opacity:1;fill:#000000;fill-opacity:1;fill-rule:evenodd;stroke:none;stroke-width:140;stroke-linecap:round;stroke-linejoin:round;stroke-miterlimit:4;stroke-dasharray:none;stroke-dashoffset:0;stroke-opacity:1;color-rendering:auto;image-rendering:auto;shape-rendering:auto;text-rendering:auto;enable-background:accumulate"
       d="m 1084.1562,1024.459 c -101.69187,-1.7723 -203.31198,19.6441 -295.56245,62.3515 -53.63406,-27.3308 -111.59699,-46.2642 -171.62695,-55.2109 -94.16239,-14.0337 -191.66741,-3.2228 -280.52735,32.9492 -109.36112,44.5174 -201.05439,125.836 -259.548825,227.6895 C 18.449,1393.9997 -5.2729638,1513.1149 7.9121094,1629.0938 27.99181,1805.7192 134.14956,1966.4823 288.69922,2054.3125 a 70.007,70.007 0 1 0 69.17187,-121.7168 c -113.80554,-64.6754 -196.06745,-189.255 -210.85351,-319.3164 -9.80304,-86.2297 8.36546,-176.6015 51.27539,-251.3184 42.85712,-74.6249 111.79843,-135.5323 190.92969,-167.7441 64.5385,-26.2716 137.45825,-34.5268 207.10742,-24.1465 15.4741,2.3062 30.82278,5.6798 46.00781,9.7774 -123.50421,104.806 -205.37962,255.9938 -221.2793,418.4296 -10.16258,103.8241 6.72795,215.6891 68.77149,309.0313 31.07638,46.7533 72.75894,87.3183 123.5664,115.6094 50.99935,28.3979 109.82096,43.4928 170.08008,40.0332 54.72697,-3.142 106.48343,-21.3494 151.04102,-49.8438 44.4126,-28.4015 80.73002,-66.2913 108.38862,-108.8613 55.2168,-84.9853 73.9982,-184.2307 72.375,-277.9629 -2.8468,-164.4051 -69.9005,-326.6898 -188.91401,-441.3144 66.76922,-18.7979 137.31881,-25.0209 205.91601,-17.2344 70.044,7.9508 137.1847,30.14 190.082,68.0703 52.1974,37.4284 91.5568,93.0662 103.2246,150.9765 10.8498,53.8496 -2.1051,114.7956 -33.9199,159.5762 -31.8147,44.7806 -85.1013,77.071 -139.5215,84.5488 a 70.007,70.007 0 0 0 1.5332,138.8907 c 57.4165,6.6014 114.1607,40.6145 147.0469,88.1406 32.8862,47.5262 44.7181,112.6168 30.6602,168.6758 -11.0207,43.9474 -37.7548,86.3487 -73.6075,119.7246 -36.1229,33.6276 -82.0696,59.426 -132.1464,77.1191 -100.5975,35.5432 -217.0258,38.5686 -338.73636,40.1524 l -277.90821,3.6172 c -112.50837,1.4641 -221.67196,1.2706 -324.2539,-17.8418 C 182.26563,2230.2932 83.971848,2191.8466 1.9765625,2132.8379 -79.996908,2073.8449 -147.08804,1993.2184 -190.13281,1901.8926 c -43.12341,-91.4926 -63.14976,-194.8404 -60.29688,-297.4981 4.65472,-167.4948 71.35572,-334.3793 183.433596,-458.9375 a 70.007,70.007 0 1 0 -104.070316,-93.6425 c -134.94832,149.9752 -213.70598,347.0178 -219.31054,548.6914 -3.42758,123.3371 20.33929,248.0641 73.60547,361.0761 53.34481,113.1789 135.44315,211.8221 236.972652,284.8887 101.507684,73.0509 219.105918,118.2291 338.892578,140.5469 119.67541,22.2972 238.16424,21.675 351.71875,20.1972 l 277.90625,-3.6171 c 121.97695,-1.5873 254.36515,-2.4933 383.55465,-48.1387 64.8166,-22.9011 127.834,-57.2498 180.9004,-106.6504 53.3366,-49.6521 95.3909,-113.8958 114.0098,-188.1426 24.2596,-96.7402 5.4231,-200.3754 -51.3281,-282.3906 a 70.007,70.007 0 0 0 -0,0 c -21.4397,-30.984 -47.686,-57.9752 -77.375,-80.2031 25.4662,-20.1245 48.2519,-43.7932 67.3203,-70.6328 55.03,-77.457 75.7999,-175.1673 57.0332,-268.3106 -19.8993,-98.7647 -81.1987,-181.3925 -158.8847,-237.0977 -76.9861,-55.2032 -167.1154,-83.3271 -255.875,-93.4023 -21.2469,-2.4117 -42.5813,-3.7981 -63.9161,-4.1699 z m -299.50972,223.9512 c 1.96565,1.4403 4.01692,2.765 5.95704,4.2382 112.97157,85.7871 182.19427,231.513 184.69726,376.0586 1.2623,72.8961 -14.21312,144.502 -49.79297,199.2637 -17.73972,27.3036 -40.62697,50.7007 -66.41406,67.1914 -25.64213,16.398 -55.178,26.3855 -83.64063,28.0195 -31.25679,1.7946 -64.85891,-6.3828 -93.94726,-22.58 -29.28024,-16.3041 -55.41744,-41.2034 -75.08398,-70.7911 -39.4423,-59.3394 -53.72652,-139.2574 -46.0293,-217.8945 12.88207,-131.6072 85.25582,-259.0398 190.9414,-340.2519 10.72685,-8.2429 21.90409,-15.9163 33.3125,-23.2539 z"
       id="path4139-1-0-4-2-1-2-5"
       inkscape:connector-curvature="0" />
  </g>
</svg>
