<?xml version="1.0" encoding="UTF-8" standalone="no"?>
<!-- Created with Inkscape (http://www.inkscape.org/) -->

<svg
   xmlns:dc="http://purl.org/dc/elements/1.1/"
   xmlns:cc="http://creativecommons.org/ns#"
   xmlns:rdf="http://www.w3.org/1999/02/22-rdf-syntax-ns#"
   xmlns:svg="http://www.w3.org/2000/svg"
   xmlns="http://www.w3.org/2000/svg"
   xmlns:sodipodi="http://sodipodi.sourceforge.net/DTD/sodipodi-0.dtd"
   xmlns:inkscape="http://www.inkscape.org/namespaces/inkscape"
   width="2048"
   height="2000"
   id="svg2992"
   version="1.1"
   inkscape:version="0.91 r13725"
   sodipodi:docname="രു.svg">
  <defs
     id="defs5498">
    <inkscape:path-effect
       effect="spiro"
       id="path-effect4574"
       is_visible="true" />
    <inkscape:path-effect
       is_visible="true"
       id="path-effect4574-8"
       effect="spiro" />
    <filter
       id="filter5478"
       style="color-interpolation-filters:sRGB;"
       x="-0.25"
       y="-0.25"
       width="1.5"
       height="1.5"
       inkscape:menu-tooltip="Creates a black light inside and outside"
       inkscape:menu="Morphology"
       inkscape:label="Black Hole">
      <feGaussianBlur
         id="feGaussianBlur5480"
         result="result1"
         in="SourceAlpha"
         stdDeviation="5" />
      <feComposite
         id="feComposite5482"
         in2="result1"
         result="result3"
         k4="-2"
         k1="-1"
         k2="3.2"
         operator="arithmetic" />
      <feColorMatrix
         id="feColorMatrix5484"
         result="result2"
         values="1 0 0 0 0 0 1 0 0 0 0 0 1 0 0 0 0 0 10 0 " />
      <feComposite
         id="feComposite5486"
         in2="result2"
         operator="out"
         in="SourceGraphic"
         result="fbSourceGraphic" />
      <feBlend
         id="feBlend5488"
         result="result91"
         in2="fbSourceGraphic"
         in="result1"
         mode="multiply" />
      <feBlend
         id="feBlend5490"
         in2="result91"
         in="fbSourceGraphic"
         mode="screen" />
    </filter>
    <inkscape:path-effect
       is_visible="true"
       id="path-effect4141-3-4"
       effect="spiro" />
    <inkscape:path-effect
       is_visible="true"
       id="path-effect4141-3-4-6"
       effect="spiro" />
    <inkscape:path-effect
       is_visible="true"
       id="path-effect4141-3-4-6-1"
       effect="spiro" />
    <inkscape:path-effect
       is_visible="true"
       id="path-effect4141-3-4-6-7"
       effect="spiro" />
    <inkscape:path-effect
       is_visible="true"
       id="path-effect4141-3-4-6-7-4"
       effect="spiro" />
    <inkscape:path-effect
       is_visible="true"
       id="path-effect4141-3-4-6-7-2"
       effect="spiro" />
    <inkscape:path-effect
       is_visible="true"
       id="path-effect4141-3-4-6-7-40"
       effect="spiro" />
    <inkscape:path-effect
       is_visible="true"
       id="path-effect4141-3-4-6-7-5"
       effect="spiro" />
    <inkscape:path-effect
       is_visible="true"
       id="path-effect4141-3-4-6-7-5-3"
       effect="spiro" />
  </defs>
  <sodipodi:namedview
     inkscape:window-height="704"
     inkscape:window-width="1366"
     inkscape:pageshadow="2"
     inkscape:pageopacity="0.0"
     borderopacity="1.0"
     bordercolor="#666666"
     pagecolor="#ffffff"
     id="base"
     showgrid="true"
     showguides="true"
     inkscape:guide-bbox="true"
     inkscape:zoom="0.227"
     inkscape:cx="-928.84129"
     inkscape:cy="563.23128"
     inkscape:window-x="-4"
     inkscape:window-y="0"
     inkscape:current-layer="layer1-8"
     inkscape:window-maximized="1"
     inkscape:snap-grids="true"
     inkscape:snap-to-guides="true">
    <sodipodi:guide
       orientation="horizontal"
       position="0,600"
       id="guide5596" />
    <inkscape:grid
       type="xygrid"
       id="grid3769"
       empspacing="5"
       visible="true"
       enabled="true"
       snapvisiblegridlinesonly="true" />
    <sodipodi:guide
       orientation="0,1"
       position="-1280,1600"
       id="guide4138" />
  </sodipodi:namedview>
  <metadata
     id="metadata5594">
    <rdf:RDF>
      <cc:Work
         rdf:about="">
        <dc:format>image/svg+xml</dc:format>
        <dc:type
           rdf:resource="http://purl.org/dc/dcmitype/StillImage" />
        <dc:title />
      </cc:Work>
    </rdf:RDF>
  </metadata>
  <g
     inkscape:label="Layer 1"
     inkscape:groupmode="layer"
     id="layer1"
     transform="translate(0,1000)">
    <g
       id="layer1-8"
       inkscape:label="Layer 1"
       transform="translate(253.20792,-337.0132)">
      <path
         sodipodi:nodetypes="caacaaacaaac"
         inkscape:connector-curvature="0"
         inkscape:original-d="m 1135.0757,679.47701 c 148.3308,13.00526 254.3392,-110.61299 264.5097,-226.17399 6.6777,-75.87451 -80.4577,-136.20702 -145.0628,-176.55194 -15.3714,-9.5992 -52.8925,-12.57769 -52.8925,-12.57769 0,0 39.8235,-8.30578 53.0109,-22.2019 54.9253,-57.87721 107.4465,-150.115622 80.7963,-225.324157 C 1285.6725,-123.79187 1101.7772,-227.67025 953.30135,-215.23503 710.23979,-194.87803 442.79616,3.9512298 399.58497,263.13524 378.16534,432.14734 522.94128,685.55675 693.25535,681.43264 846.13797,677.73063 961.05066,444.867 938.38606,293.62839 900.38041,40.020518 596.85734,-292.17936 354.76422,-207.60806 67.927895,-107.40646 -196.77867,375.30262 183.48558,687.65869"
         inkscape:path-effect="#path-effect4141-3-4-6-7"
         id="path4139-1-0-5-2"
         d="m 1135.0757,679.47701 c 65.9816,19.48881 141.3509,3.41542 193.6409,-41.29618 52.2901,-44.71161 79.8738,-116.67012 70.8688,-184.87781 -5.2404,-39.69308 -22.216,-77.67639 -47.8,-108.47349 -25.584,-30.79709 -59.6449,-54.371 -97.2628,-68.07845 -17.0655,-6.21843 -34.8546,-10.44862 -52.8925,-12.57769 18.739,-4.3898 36.7365,-11.92748 53.0109,-22.2019 36.0389,-22.75223 62.9805,-58.8799 76.6514,-99.24789 13.6709,-40.36799 14.3555,-84.697386 4.1449,-126.076267 -19.3423,-78.385614 -77.1364,-144.237443 -147.9477,-183.021313 -70.8113,-38.78387 -153.5227,-52.25256 -234.18825,-48.86105 -131.73862,5.53883 -261.4316,55.78934 -361.53559,141.608534 -100.10399,85.819194 -169.7469,206.829206 -192.18079,336.761736 -16.80454,97.32844 -6.30104,202.21731 45.67748,286.20213 25.98926,41.99241 62.07033,78.0285 105.28432,101.93154 43.21398,23.90304 93.59775,35.35316 142.70858,30.16373 42.19907,-4.45908 82.81475,-21.05956 117.1546,-45.98786 34.33984,-24.92829 62.4668,-58.02145 83.15886,-95.06849 41.38412,-74.09408 52.46575,-162.22525 44.81725,-246.7479 C 925.48654,151.07737 859.19534,12.925191 751.92927,-81.843904 644.6632,-176.613 496.76455,-225.58294 354.76422,-207.60806 255.23097,-195.0088 160.03142,-150.20507 86.885988,-81.536625 13.740559,-12.868175 -36.978756,79.315769 -55.831077,177.85611 -74.683398,276.39646 -61.572849,380.79206 -18.939824,471.61076 23.6932,562.42945 95.631884,639.20936 183.48558,687.65869"
         style="fill:none;fill-rule:evenodd;stroke:#000000;stroke-width:140;stroke-linecap:round;stroke-linejoin:round;stroke-miterlimit:4;stroke-dasharray:none;stroke-opacity:1" />
      <path
         style="color:#000000;font-style:normal;font-variant:normal;font-weight:normal;font-stretch:normal;font-size:medium;line-height:normal;font-family:sans-serif;text-indent:0;text-align:start;text-decoration:none;text-decoration-line:none;text-decoration-style:solid;text-decoration-color:#000000;letter-spacing:normal;word-spacing:normal;text-transform:none;direction:ltr;block-progression:tb;writing-mode:lr-tb;baseline-shift:baseline;text-anchor:start;white-space:normal;clip-rule:nonzero;display:inline;overflow:visible;visibility:visible;opacity:1;isolation:auto;mix-blend-mode:normal;color-interpolation:sRGB;color-interpolation-filters:linearRGB;solid-color:#000000;solid-opacity:1;fill:#000000;fill-opacity:1;fill-rule:evenodd;stroke:none;stroke-width:140;stroke-linecap:round;stroke-linejoin:round;stroke-miterlimit:4;stroke-dasharray:none;stroke-dashoffset:0;stroke-opacity:1;color-rendering:auto;image-rendering:auto;shape-rendering:auto;text-rendering:auto;enable-background:accumulate"
         d="m 1218.75,862.48633 c -11.4288,-0.12814 -22.8098,0.0598 -34.1152,0.53515 -93.9697,3.95087 -186.4777,28.06001 -270.36722,69.90821 -101.72227,-52.94336 -218.48994,-76.41344 -334.02149,-61.78907 -114.52783,14.49733 -222.83333,65.4692 -306.99804,144.48238 -84.16469,79.0134 -141.86619,183.8881 -163.5586,297.2735 -21.692405,113.3853 -6.77635,232.1538 42.2793,336.6543 49.05565,104.5004 130.89755,191.8495 231.98633,247.5976 a 70.007,70.007 0 1 0 67.60742,-122.5937 c -74.61858,-41.1505 -136.65289,-107.3592 -172.86328,-184.4961 -36.2104,-77.137 -47.51614,-167.1602 -31.50391,-250.8555 16.01224,-83.6954 59.74884,-163.188 121.875,-221.5117 62.12613,-58.3236 144.21917,-96.959 228.75781,-107.6602 58.52554,-7.4083 119.19574,-1.0635 176.72657,16.6993 -109.36266,96.1486 -184.80213,228.6263 -209.67578,372.6894 -19.0712,110.4565 -8.34846,232.3756 55.13476,334.9492 31.81563,51.4065 76.07572,96.0094 130.92383,126.3477 55.09436,30.4744 119.16052,45.3673 183.94727,38.5215 55.58607,-5.8737 107.30113,-27.2872 150.91993,-58.9512 43.468,-31.5547 77.9435,-72.452 103.1504,-117.582 l 0,-0 c 50.3125,-90.0802 62.0089,-192.2736 53.4199,-287.1894 -13.8172,-152.6927 -81.5539,-299.8924 -193.6621,-406.5918 45.895,-15.0394 93.7832,-24.0065 141.8027,-26.0254 70.8877,-2.98042 140.9637,9.2867 197.6211,40.3183 55.6061,30.456 99.8545,82.646 113.6113,138.3965 7.2504,29.3825 6.4203,60.5598 -2.4843,86.8535 -8.7786,25.9218 -26.6481,49.2074 -47.7188,62.5098 -9.6438,6.0883 -20.5033,10.637 -31.6074,13.2383 a 70.007,70.007 0 0 0 7.7598,137.6719 c 12.6393,1.4918 25.1749,4.4728 37.1328,8.83 26.1322,9.5223 50.0949,26.2263 67.3847,47.0391 17.2321,20.7434 28.8148,46.9137 32.2461,72.9043 5.741,43.4847 -13.6262,94.0085 -46.9629,122.5137 -33.3367,28.5051 -86.2549,39.79 -128.3203,27.3652 a 70.007,70.007 0 1 0 -39.6582,134.2656 c 89.8977,26.5529 187.7175,5.6933 258.961,-55.2246 71.2435,-60.918 107.0444,-154.3134 94.7754,-247.2441 -7.0495,-53.3956 -29.4176,-103.1902 -63.3536,-144.041 -16.148,-19.4385 -34.6878,-36.4478 -54.9296,-50.9492 20.6796,-24.9809 36.5761,-53.5043 46.8945,-83.9727 18.4372,-54.4421 18.9755,-111.9255 5.8047,-165.3008 C 1612.7443,1047.0496 1541.405,967.53767 1455.3887,920.42578 1381.0441,879.70674 1298.7515,863.38331 1218.75,862.48633 Z M 912.19336,1096.541 c 9.50354,7.091 18.80192,14.4397 27.66211,22.2676 92.69353,81.8943 151.76243,204.1662 163.08793,329.3223 6.7079,74.129 -3.7598,148.1972 -36.2149,206.3046 -16.1771,28.9636 -37.9568,54.2532 -63.168,72.5547 -25.06098,18.1925 -54.57654,29.979 -83.38862,33.0235 -33.43492,3.5329 -70.1371,-4.4731 -101.47071,-21.8047 -31.57985,-17.4679 -59.47969,-44.9373 -79.64258,-77.5156 -40.47378,-65.396 -50.75856,-153.2548 -36.2207,-237.4551 19.54114,-113.1783 81.16366,-220.4295 168.76172,-295.5274 12.93681,-11.0907 26.53957,-21.4328 40.59375,-31.1699 z"
         id="path4139-1-0-5-2-7"
         inkscape:connector-curvature="0" />
      <path
         sodipodi:nodetypes="caacaaacaaac"
         inkscape:connector-curvature="0"
         inkscape:original-d="m -901.80394,711.21551 c 157.11141,13.797 269.3951,-117.34682 280.16765,-239.94288 7.073,-80.49356 -85.22049,-144.49895 -153.64995,-187.29997 -16.28133,-10.18358 -56.02353,-13.34338 -56.02353,-13.34338 0,0 42.18089,-8.81142 56.14893,-23.5535 58.17667,-61.40062 113.80692,-159.254289 85.57913,-239.041325 -52.71069,-148.988785 -247.49187,-259.191015 -404.75689,-245.998765 -257.4499,21.59627 -540.7251,232.5297591 -586.4943,507.49223 -22.6876,179.30113 130.6586,448.13745 311.0545,443.76228 161.9328,-3.92737 283.6478,-250.96715 259.6416,-411.41278 -40.2555,-269.046875 -361.746,-621.47023 -618.1701,-531.75046 -303.8159,106.30162 -584.1921,618.39681 -181.4176,949.76832"
         inkscape:path-effect="#path-effect4141-3-4-6-7-5"
         id="path4139-1-0-5-2-70"
         d="m -901.80394,711.21551 c 69.94382,20.48295 149.73255,3.33766 205.08779,-44.07001 55.35523,-47.40767 84.56481,-123.61137 75.07986,-195.87287 -5.52442,-42.08805 -23.48416,-82.37552 -50.58078,-115.05114 -27.09662,-32.67562 -63.19153,-57.69901 -103.06917,-72.24883 -18.07453,-6.5947 -36.91681,-11.08245 -56.02353,-13.34338 19.8497,-4.6641 38.91216,-12.66047 56.14893,-23.5535 38.21396,-24.14987 66.76611,-62.48797 81.24133,-105.31309 14.47521,-42.825114 15.17701,-89.841628 4.3378,-133.728235 -20.51209,-83.050928 -81.67834,-152.858665 -156.667,-194.027875 -74.98866,-41.1692 -162.61779,-55.53876 -248.08989,-51.97089 -139.6372,5.82889 -277.0766,59.25799 -383.0699,150.35111 -105.9932,91.0931217 -179.6373,219.42148 -203.4244,357.14112 -17.8245,103.19791 -6.7956,214.40921 48.2286,303.5151 27.5121,44.55294 65.7316,82.80238 111.5315,108.18443 45.8,25.38205 99.2204,37.55588 151.2944,32.06275 44.7545,-4.72102 87.8285,-22.33842 124.2335,-48.79465 36.405,-26.45622 66.2084,-61.57758 88.1177,-100.88709 43.8186,-78.61903 55.467,-172.09753 47.2904,-261.73104 -13.7773,-151.02883 -83.9562,-297.3856257 -197.5182,-397.900284 -113.562,-100.514656 -270.1631,-152.629276 -420.6519,-133.850176 -105.7127,13.19161 -206.8749,60.64683 -284.5981,133.50498 -77.7231,72.858148 -131.6092,170.746272 -151.5969,275.38701 -19.9877,104.64074 -5.9746,215.49845 39.4227,311.87414 45.3974,96.37569 121.9466,177.77603 215.3547,229.00219"
         style="fill:none;fill-rule:evenodd;stroke:#000000;stroke-width:70.00000763;stroke-linecap:round;stroke-linejoin:round;stroke-miterlimit:4;stroke-dasharray:none;stroke-opacity:1" />
      <path
         style="color:#000000;font-style:normal;font-variant:normal;font-weight:normal;font-stretch:normal;font-size:medium;line-height:normal;font-family:sans-serif;text-indent:0;text-align:start;text-decoration:none;text-decoration-line:none;text-decoration-style:solid;text-decoration-color:#000000;letter-spacing:normal;word-spacing:normal;text-transform:none;direction:ltr;block-progression:tb;writing-mode:lr-tb;baseline-shift:baseline;text-anchor:start;white-space:normal;clip-rule:nonzero;display:inline;overflow:visible;visibility:visible;opacity:1;isolation:auto;mix-blend-mode:normal;color-interpolation:sRGB;color-interpolation-filters:linearRGB;solid-color:#000000;solid-opacity:1;fill:#000000;fill-opacity:1;fill-rule:evenodd;stroke:none;stroke-width:70.00000763;stroke-linecap:round;stroke-linejoin:round;stroke-miterlimit:4;stroke-dasharray:none;stroke-dashoffset:0;stroke-opacity:1;color-rendering:auto;image-rendering:auto;shape-rendering:auto;text-rendering:auto;enable-background:accumulate"
         d="m -1461.7676,846.55273 c -11.379,-0.13657 -22.7336,0.0421 -34.0312,0.51368 -100.772,4.20653 -200.1478,31.7694 -288.7832,79.50781 -104.8827,-59.15291 -227.7036,-86.19652 -348.0586,-71.17774 -113.2247,14.12902 -220.9551,64.66569 -304.2012,142.70118 -83.2463,78.03544 -140.631,182.27894 -162.0391,294.35544 -21.4079,112.0765 -6.4845,230.1313 42.1387,333.3555 48.6234,103.2242 130.1418,189.909 230.1875,244.7754 a 35.003504,35.003504 0 1 0 33.6602,-61.377 c -86.7705,-47.586 -158.3501,-123.7013 -200.5215,-213.2285 -42.1714,-89.5272 -55.2743,-193.1877 -36.707,-290.3926 18.5673,-97.2049 68.9541,-188.7391 141.1542,-256.4199 72.2001,-67.6808 166.7954,-112.05437 264.9961,-124.30858 91.2311,-11.38448 185.7017,5.67188 269.875,44.95117 -15.884,11.31023 -31.3025,23.29612 -46.123,36.03321 -112.2385,96.4605 -189.873,231.6632 -215.1016,377.7285 -18.9544,109.7398 -7.8284,229.4573 52.9375,327.8613 30.4205,49.2629 72.7271,91.8016 124.3457,120.4082 51.7424,28.6755 112.0092,42.5789 171.9317,36.2579 51.4584,-5.4282 100.0903,-25.4584 141.1386,-55.2891 40.9729,-29.7757 73.9488,-68.8042 98.1133,-112.1602 48.2782,-86.6203 60.224,-187.1304 51.5743,-281.9511 -14.5684,-159.7 -88.3463,-313.9805 -209.1758,-420.92777 -10.4787,-9.27479 -21.4052,-18.01434 -32.5235,-26.49805 70.3305,-32.2081 146.9433,-51.04479 224.1016,-54.26562 80.5635,-3.36297 161.8697,10.3946 229.7871,47.68164 67.396,37.0008 121.8081,99.9794 139.5313,171.7383 9.3596,37.896 8.5811,78.3404 -3.5157,114.1289 -12.0335,35.6015 -36.0548,67.5143 -66.7832,86.9336 -13.9246,8.7998 -29.4217,15.3005 -45.457,19.0683 a 35.003504,35.003504 0 0 0 3.8945,68.8301 c 16.4059,1.9413 32.619,5.8023 48.1387,11.4649 34.1273,12.4517 65.1727,34.0328 88.125,61.7109 22.924,27.6438 38.1947,62.025 42.8203,97.2656 7.865,59.9203 -17.2432,125.4234 -63.1445,164.7344 -45.9013,39.3111 -114.4861,54.0492 -172.4844,37.0645 a 35.003504,35.003504 0 1 0 -19.6738,67.1777 c 81.8892,23.9811 172.8823,4.4281 237.6914,-51.0762 64.8093,-55.5042 98.12039,-142.409 87.01561,-227.0117 -6.42311,-48.9348 -27.07291,-95.1287 -58.34181,-132.8359 l 0,-0 c -25.0534,-30.2114 -56.5408,-54.3721 -91.5371,-71.3945 35.5343,-28.3923 61.6782,-66.9921 76.0508,-109.5137 16.8536,-49.8618 17.477,-103.4509 5.1582,-153.3281 -23.301,-94.3429 -91.2194,-170.9788 -173.8008,-216.31643 -71.8025,-39.41994 -152.7102,-55.81743 -232.3633,-56.77344 z m -323.8262,161.74027 c 19.1617,12.765 37.5419,26.6684 54.7422,41.8925 106.2945,94.0822 172.8731,232.5135 185.8594,374.8711 7.7034,84.4463 -3.6488,170.8941 -43.0078,241.5118 -19.6541,35.2632 -46.2839,66.4766 -78.1211,89.6132 -31.7616,23.0819 -69.2775,38.287 -107.3281,42.3008 -44.2255,4.6652 -90.8008,-5.7803 -130.6582,-27.8691 -39.9812,-22.1573 -74.1131,-56.1159 -98.7168,-95.959 -49.2825,-79.8078 -60.2141,-182.5139 -43.5196,-279.1699 22.3457,-129.3739 92.0002,-250.827 191.7481,-336.5528 21.6428,-18.6003 44.7887,-35.4421 69.0019,-50.6386 z"
         id="path4139-1-0-5-2-70-6"
         inkscape:connector-curvature="0" />
    </g>
  </g>
</svg>
