<?xml version="1.0" encoding="UTF-8" standalone="no"?>
<!-- Created with Inkscape (http://www.inkscape.org/) -->

<svg
   xmlns:dc="http://purl.org/dc/elements/1.1/"
   xmlns:cc="http://creativecommons.org/ns#"
   xmlns:rdf="http://www.w3.org/1999/02/22-rdf-syntax-ns#"
   xmlns:svg="http://www.w3.org/2000/svg"
   xmlns="http://www.w3.org/2000/svg"
   xmlns:sodipodi="http://sodipodi.sourceforge.net/DTD/sodipodi-0.dtd"
   xmlns:inkscape="http://www.inkscape.org/namespaces/inkscape"
   width="2048"
   height="2000"
   id="svg2992"
   version="1.1"
   inkscape:version="0.91pre3 r13670"
   sodipodi:docname="രൂ.svg">
  <defs
     id="defs5498">
    <inkscape:path-effect
       effect="spiro"
       id="path-effect4574"
       is_visible="true" />
    <inkscape:path-effect
       effect="spiro"
       id="path-effect4141-3-4-6-8-86"
       is_visible="true" />
    <inkscape:path-effect
       effect="spiro"
       id="path-effect4141-3-4-6-8-86-1"
       is_visible="true" />
    <inkscape:path-effect
       effect="spiro"
       id="path-effect4141-3-4-6-8-86-1-7"
       is_visible="true" />
  </defs>
  <sodipodi:namedview
     inkscape:window-height="853"
     inkscape:window-width="1600"
     inkscape:pageshadow="2"
     inkscape:pageopacity="0.0"
     borderopacity="1.0"
     bordercolor="#666666"
     pagecolor="#ffffff"
     id="base"
     showgrid="true"
     showguides="true"
     inkscape:guide-bbox="true"
     inkscape:zoom="0.32102648"
     inkscape:cx="902.58069"
     inkscape:cy="978.80731"
     inkscape:window-x="1598"
     inkscape:window-y="-3"
     inkscape:current-layer="layer1"
     inkscape:window-maximized="1">
    <sodipodi:guide
       orientation="horizontal"
       position="0,600"
       id="guide5596" />
    <inkscape:grid
       type="xygrid"
       id="grid3769"
       empspacing="5"
       visible="true"
       enabled="true"
       snapvisiblegridlinesonly="true" />
    <sodipodi:guide
       orientation="0,1"
       position="-1280,1600"
       id="guide4138" />
  </sodipodi:namedview>
  <metadata
     id="metadata5594">
    <rdf:RDF>
      <cc:Work
         rdf:about="">
        <dc:format>image/svg+xml</dc:format>
        <dc:type
           rdf:resource="http://purl.org/dc/dcmitype/StillImage" />
        <dc:title />
      </cc:Work>
    </rdf:RDF>
  </metadata>
  <g
     inkscape:label="Layer 1"
     inkscape:groupmode="layer"
     id="layer1"
     transform="translate(0,1000)">
    <path
       style="fill:none;fill-rule:evenodd;stroke:#000000;stroke-width:140;stroke-linecap:round;stroke-linejoin:round;stroke-miterlimit:4;stroke-dasharray:none;stroke-opacity:1"
       d="m -2100.3327,-540.28018 c -100.2182,94.19625 -171.0147,219.26148 -200.2025,353.66643 -29.1877,134.404952 -16.6406,277.569311 35.4815,404.84816 73.7117,179.99945 226.8015,322.82224 406.6497,396.90222 179.8482,74.07997 379.6891,78.35381 574.1647,74.82518 l 309.54019,-5.6164 c 106.95053,-1.94055 217.20879,-7.7842 313.44652,-54.47983 48.11886,-23.34782 91.88076,-56.19998 125.86727,-97.49723 33.98652,-41.29724 57.99977,-91.0128 67.51174,-143.64424 13.74309,-76.04294 -3.84612,-157.26807 -47.81685,-220.81315 -43.97072,-63.54508 -113.78491,-108.632555 -189.79215,-122.571763 76.68861,-4.305553 150.53057,-45.086334 195.01628,-107.701847 44.4857,-62.61551 58.69131,-145.76543 37.51695,-219.59853 -21.02203,-73.30192 -74.7388,-134.68053 -139.88505,-174.31718 -65.14624,-39.63664 -141.04826,-58.95195 -216.97588,-66.0296 -141.09895,-13.15265 -287.48852,15.86506 -407.53042,91.17677 -120.0419,75.31171 -211.5667,198.30142 -239.0942,337.312717 -18.9872,95.883641 -6.5651,199.859043 45.3247,282.694053 25.9449,41.4175 61.4208,77.04452 103.5707,101.78179 42.15,24.73727 90.9798,38.3884 139.8444,37.49286 48.6011,-0.89071 96.6267,-16.14975 137.7714,-42.03353 41.1447,-25.88377 75.43355,-62.19631 100.4265,-103.88818 49.9859,-83.383737 61.66936,-186.2252198 44.59909,-281.933333 -27.69698,-155.288997 -130.67809,-294.637057 -269.38019,-369.760457 -138.7021,-75.12339 -310.0343,-85.57671 -458.0861,-31.14818 -96.7869,35.58193 -184.2769,98.47176 -244.0166,182.52499 -59.7397,84.05323 -90.5482,189.44909 -79.5887,291.985247 9.0187,84.377708 46.2215,165.498623 104.2811,227.385703 58.0597,61.88708 136.6437,104.18594 220.2748,118.56568"
       id="path4139-1-0-4-2-1-2"
       inkscape:path-effect="#path-effect4141-3-4-6-8-86-1"
       inkscape:original-d="m -2100.3327,-540.28018 c 0,0 -278.2678,526.030037 -164.721,758.51459 159.2121,325.9835 626.7922,478.1509 980.8144,471.7274 l 309.54019,-5.6164 c 312.17443,-5.6642 464.38743,-104.701 506.82553,-295.6213 30.2028,-135.87631 -237.609,-343.384913 -237.609,-343.384913 0,0 256.51705,-195.635727 232.53323,-327.300377 -25.7017,-141.09536 -213.44479,-239.80899 -356.86093,-240.34678 -258.56832,-0.96959 -597.09502,174.70744 -646.62462,428.489487 -32.6469,167.27751 118.3118,423.335973 288.7398,421.968703 170.9506,-1.37146 323.68789,-261.861223 282.79699,-427.855043 -66.2255,-268.837567 -458.15619,-465.185567 -727.46629,-400.908637 -186.2202,44.44568 -338.4252,283.63398 -323.6053,474.510237 12.2398,157.646083 324.5559,345.951383 324.5559,345.951383"
       inkscape:connector-curvature="0"
       sodipodi:nodetypes="cassacaaaaaaac" />
    <path
       style="color:#000000;font-style:normal;font-variant:normal;font-weight:normal;font-stretch:normal;font-size:medium;line-height:normal;font-family:sans-serif;text-indent:0;text-align:start;text-decoration:none;text-decoration-line:none;text-decoration-style:solid;text-decoration-color:#000000;letter-spacing:normal;word-spacing:normal;text-transform:none;direction:ltr;block-progression:tb;writing-mode:lr-tb;baseline-shift:baseline;text-anchor:start;white-space:normal;clip-rule:nonzero;display:inline;overflow:visible;visibility:visible;opacity:1;isolation:auto;mix-blend-mode:normal;color-interpolation:sRGB;color-interpolation-filters:linearRGB;solid-color:#000000;solid-opacity:1;fill:#000000;fill-opacity:1;fill-rule:evenodd;stroke:none;stroke-width:140;stroke-linecap:round;stroke-linejoin:round;stroke-miterlimit:4;stroke-dasharray:none;stroke-dashoffset:0;stroke-opacity:1;color-rendering:auto;image-rendering:auto;shape-rendering:auto;text-rendering:auto;enable-background:accumulate"
       d="m 388.17969,-596.79492 a 70.007,70.007 0 0 0 -49.02149,19.0039 C 101.04555,-360.09012 31.412354,6.3031305 173.36719,296.0957 303.91971,573.28101 592.52438,739.01723 885.7207,763.56641 c 230.3862,21.71987 456.8049,5.5397 677.2324,3.59179 l -0.1,0 c 165.5044,-1.22775 364.0366,-47.25996 469.6485,-213.3457 106.6882,-154.59763 70.39,-372.01761 -71.3477,-486.603516 116.713,-86.237224 169.6108,-249.430314 107.416,-389.861324 -42.704,-100.31663 -124.2828,-168.14156 -213.8262,-207.73047 -89.6672,-39.64369 -188.3882,-53.66712 -279.6582,-50.66016 -86.9078,0.10842 -174.0261,17.40688 -254.9082,49.91211 -36.5424,-17.44399 -75.0123,-31.12145 -114.9726,-40.27734 -279.4562,-74.90937 -608.17092,60.88683 -714.27737,344.07422 -94.33006,227.37533448 16.77052,504.01153 245.85157,598.21289 34.00501,14.87845 69.82462,25.77451 106.67187,32.10937 A 70.007,70.007 0 1 0 867.17188,265.01172 C 841.58631,260.61299 816.35194,252.95927 792.3457,242.4043 a 70.007,70.007 0 0 0 -1.70508,-0.72266 C 638.1065,179.37674 556.9107,-22.566308 620.58594,-174.60938 a 70.007,70.007 0 0 0 1.04883,-2.65429 c 75.29744,-202.60666 328.34679,-311.68945 537.07223,-261.44727 -88.3946,68.76479 -158.6726,160.5632 -196.81052,271.47852 -37.70023,98.737605 -40.56784,210.461761 -8.58984,311.9414 32.03544,101.66194 102.35846,194.84683 210.54886,240.60743 194.5722,88.49937 413.7546,-42.31085 470.584,-233.72266 69.9336,-212.434356 -10.1794,-436.81486 -165.7305,-581.30469 35.7447,-7.49461 72.122,-11.44806 108.3359,-11.36914 a 70.007,70.007 0 0 0 2.4785,-0.0391 c 73.0519,-2.42826 153.1751,9.84948 218.6094,38.7793 65.4343,28.92981 115.0938,71.82132 141.8086,134.91406 a 70.007,70.007 0 0 0 0.5098,1.17187 c 42.4328,95.32682 -25.3063,228.102026 -127.2266,250.232426 -8.5725,0.696007 -16.075,1.422678 -23.0684,2.480468 -8.5174,1.288324 -11.7801,-5.204503 -39.7949,14.7246098 -7.0037,4.9822782 -17.3034,13.4680252 -24.4824,30.3847652 -7.179,16.916741 -6.131,41.078383 0.1094,55.638672 12.4807,29.120579 25.252,31.275649 31.6582,34.894529 12.8123,7.23776 17.2417,7.64184 22.8437,9.38282 11.2041,3.48194 21.7259,6.17748 30.5528,9.05078 8.8269,2.87329 15.8966,7.35525 10.9472,3.76367 a 70.007,70.007 0 0 0 11.1133,6.59179 c 112.2799,53.25405 154.4683,221.54062 84.1719,323.4043 a 70.007,70.007 0 0 0 -1.75,2.66406 c -67.8344,108.5554 -212.9902,149.15924 -353.709,150.20313 a 70.007,70.007 0 0 0 -0.1,0.002 c -226.348,2.00023 -448.0352,17.32922 -663.33008,-3.01953 a 70.007,70.007 0 0 0 -0.76563,-0.0684 C 649.23573,603.34935 405.08623,460.1016 299.76562,235.92773 a 70.007,70.007 0 0 0 -0.51367,-1.07226 C 186.14751,4.3598131 244.13222,-301.21615 433.62695,-474.4668 a 70.007,70.007 0 0 0 -45.44726,-122.32812 z m 925.85741,224.63281 c 151.7795,104.65925 245.2552,305.668316 187.2051,480.74023 a 70.007,70.007 0 0 0 -0.7422,2.38086 c -32.7747,112.05717 -172.2568,195.85493 -279.3301,146.66211 a 70.007,70.007 0 0 0 -2.1621,-0.94921 c -66.4349,-27.84722 -109.9735,-83.58809 -132.1738,-154.03907 -22.2003,-70.450977 -19.7163,-153.758109 6.2187,-220.96484 a 70.007,70.007 0 0 0 0.9356,-2.57422 c 36.9063,-108.04565 119,-195.28001 220.0488,-251.25586 z m 503.5899,496.4082 c -10.1679,5.58395 -8.1718,0.88457 -6.5332,0.63672 0.7845,-0.11866 4.6852,-0.4326 6.5332,-0.63672 z"
       id="path4139-1-0-4-2-1-2-0"
       inkscape:connector-curvature="0" />
  </g>
</svg>
