<?xml version="1.0" encoding="UTF-8" standalone="no"?>
<!-- Created with Inkscape (http://www.inkscape.org/) -->

<svg
   xmlns:dc="http://purl.org/dc/elements/1.1/"
   xmlns:cc="http://creativecommons.org/ns#"
   xmlns:rdf="http://www.w3.org/1999/02/22-rdf-syntax-ns#"
   xmlns:svg="http://www.w3.org/2000/svg"
   xmlns="http://www.w3.org/2000/svg"
   xmlns:sodipodi="http://sodipodi.sourceforge.net/DTD/sodipodi-0.dtd"
   xmlns:inkscape="http://www.inkscape.org/namespaces/inkscape"
   width="2000"
   height="2048"
   id="svg2992"
   version="1.1"
   inkscape:version="0.91pre2 r13516"
   sodipodi:docname="ല.svg">
  <defs
     id="defs5498">
    <inkscape:path-effect
       effect="spiro"
       id="path-effect4316"
       is_visible="true" />
    <inkscape:path-effect
       effect="spiro"
       id="path-effect4316-5"
       is_visible="true" />
    <inkscape:path-effect
       effect="spiro"
       id="path-effect4316-5-9"
       is_visible="true" />
  </defs>
  <sodipodi:namedview
     inkscape:window-height="853"
     inkscape:window-width="1600"
     inkscape:pageshadow="2"
     inkscape:pageopacity="0.0"
     borderopacity="1.0"
     bordercolor="#666666"
     pagecolor="#ffffff"
     id="base"
     showgrid="true"
     showguides="true"
     inkscape:guide-bbox="true"
     inkscape:zoom="0.227"
     inkscape:cx="721.85908"
     inkscape:cy="909.98125"
     inkscape:window-x="1598"
     inkscape:window-y="-3"
     inkscape:current-layer="layer1"
     inkscape:window-maximized="1">
    <sodipodi:guide
       orientation="horizontal"
       position="0,600"
       id="guide5596" />
    <inkscape:grid
       type="xygrid"
       id="grid3769"
       empspacing="3"
       visible="true"
       enabled="true"
       snapvisiblegridlinesonly="true"
       spacingx="4px"
       units="px"
       dotted="true"
       spacingy="4px" />
    <sodipodi:guide
       orientation="0,1"
       position="-1040,1600"
       id="guide2985" />
  </sodipodi:namedview>
  <metadata
     id="metadata5594">
    <rdf:RDF>
      <cc:Work
         rdf:about="">
        <dc:format>image/svg+xml</dc:format>
        <dc:type
           rdf:resource="http://purl.org/dc/dcmitype/StillImage" />
        <dc:title />
      </cc:Work>
    </rdf:RDF>
  </metadata>
  <g
     inkscape:label="Layer 1"
     inkscape:groupmode="layer"
     id="layer1"
     transform="translate(0,1048)">
    <path
       style="fill:none;fill-rule:evenodd;stroke:#000000;stroke-width:140;stroke-linecap:round;stroke-linejoin:round;stroke-miterlimit:4;stroke-dasharray:none;stroke-opacity:1"
       d="m -1663.5675,-31.88944 773.59632,18.250863 c 16.86674,-72.774955 14.29258,-149.961863 -7.38534,-221.451363 -21.67793,-71.4895 -62.40658,-137.10673 -116.85168,-188.25765 -54.445,-51.15091 -122.4733,-87.7104 -195.175,-104.89017 -72.7017,-17.17978 -149.899,-14.93781 -221.4811,6.43225 -101.6117,30.33506 -190.6767,101.69955 -240.1763,195.4809 -24.7498,46.89068 -39.922,98.50366 -47.5232,150.97754 -7.6013,52.47388 -7.6481,105.712857 -7.2727,158.7331 l 2.4719,349.09572 1408.68245,16.7218 -5.8062,-911.50604"
       id="path4314-5"
       inkscape:path-effect="#path-effect4316-5"
       inkscape:original-d="m -1663.5675,-31.88944 773.59632,18.250863 c -0.63866,-287.065873 -343.96512,-620.658293 -540.89312,-508.166933 -219.719,141.45909 -297.0679,209.2218 -294.9722,505.19154 l 2.4719,349.09572 1408.68245,16.7218 -5.8062,-911.50604"
       inkscape:connector-curvature="0"
       sodipodi:nodetypes="cccsccc" />
    <path
       style="color:#000000;font-style:normal;font-variant:normal;font-weight:normal;font-stretch:normal;font-size:medium;line-height:normal;font-family:sans-serif;text-indent:0;text-align:start;text-decoration:none;text-decoration-line:none;text-decoration-style:solid;text-decoration-color:#000000;letter-spacing:normal;word-spacing:normal;text-transform:none;direction:ltr;block-progression:tb;writing-mode:lr-tb;baseline-shift:baseline;text-anchor:start;clip-rule:nonzero;display:inline;overflow:visible;visibility:visible;opacity:1;isolation:auto;mix-blend-mode:normal;color-interpolation:sRGB;color-interpolation-filters:linearRGB;solid-color:#000000;solid-opacity:1;fill:#000000;fill-opacity:1;fill-rule:evenodd;stroke:none;stroke-width:140;stroke-linecap:round;stroke-linejoin:round;stroke-miterlimit:4;stroke-dasharray:none;stroke-dashoffset:0;stroke-opacity:1;color-rendering:auto;image-rendering:auto;shape-rendering:auto;text-rendering:auto;enable-background:accumulate"
       d="m 1627.8203,-627.04492 a 70.007,70.007 0 0 0 -68.4922,71.42578 l 5.3516,840.2207 -1268.71681,-15.0625 -1.59375,-224.980466 763.82426,18.021484 a 70.007,70.007 0 0 0 69.8437,-54.1757811 c 19.6784,-84.9065089 16.7018,-174.1615069 -8.5898,-257.5683569 -25.2917,-83.40675 -72.3891,-159.28508 -135.91019,-218.96289 -63.52107,-59.6778 -142.18672,-101.95245 -227.00781,-121.9961 -84.82109,-20.04364 -174.08862,-17.45199 -257.60352,7.48047 -119.70351,35.73618 -223.21983,118.40923 -282.05664,229.88086 -29.13527,55.19937 -46.33229,114.50921 -54.89453,173.61719 -8.55845,59.08173 -8.37221,115.870407 -7.99414,169.2636706 l 2.47265,349.0956994 a 70.007,70.007 0 0 0 69.16602,69.5 L 1634.3027,425.4375 a 70.007,70.007 0 0 0 70.8282,-70.44141 l -5.8047,-911.50586 a 70.007,70.007 0 0 0 -71.5059,-70.53515 z m -996.51561,163.81445 c 31.31071,-0.90932 62.73815,2.19557 93.02929,9.35352 60.58229,14.31589 117.97471,45.15916 163.34375,87.7832 45.36904,42.62403 79.72868,97.98244 97.79297,157.55469 12.63532,41.66883 17.3133,86.03476 14.28321,129.701169 l -704.69141,-16.625 c 0.93878,-21.874319 2.50492,-43.178019 5.46484,-63.611329 6.64024,-45.83978 19.78806,-89.75592 40.15235,-128.33789 40.16229,-76.09108 114.77507,-136.14614 198.29492,-161.08008 29.82468,-8.90383 61.01937,-13.82895 92.33008,-14.73828 z"
       id="path4314-5-8"
       inkscape:connector-curvature="0" />
  </g>
</svg>
