<?xml version="1.0" encoding="UTF-8" standalone="no"?>
<!-- Created with Inkscape (http://www.inkscape.org/) -->

<svg
   xmlns:dc="http://purl.org/dc/elements/1.1/"
   xmlns:cc="http://creativecommons.org/ns#"
   xmlns:rdf="http://www.w3.org/1999/02/22-rdf-syntax-ns#"
   xmlns:svg="http://www.w3.org/2000/svg"
   xmlns="http://www.w3.org/2000/svg"
   xmlns:sodipodi="http://sodipodi.sourceforge.net/DTD/sodipodi-0.dtd"
   xmlns:inkscape="http://www.inkscape.org/namespaces/inkscape"
   width="2000"
   height="2048"
   id="svg2992"
   version="1.1"
   inkscape:version="0.91 r13725"
   sodipodi:docname="ല.svg">
  <defs
     id="defs5498">
    <inkscape:path-effect
       effect="spiro"
       id="path-effect4316"
       is_visible="true" />
    <inkscape:path-effect
       effect="spiro"
       id="path-effect4316-5"
       is_visible="true" />
    <inkscape:path-effect
       effect="spiro"
       id="path-effect4316-5-9"
       is_visible="true" />
    <inkscape:path-effect
       effect="spiro"
       id="path-effect4316-5-3"
       is_visible="true" />
    <inkscape:path-effect
       effect="spiro"
       id="path-effect4316-5-6"
       is_visible="true" />
    <inkscape:path-effect
       effect="spiro"
       id="path-effect4316-5-7"
       is_visible="true" />
    <inkscape:path-effect
       effect="spiro"
       id="path-effect4316-5-7-3"
       is_visible="true" />
    <inkscape:path-effect
       effect="spiro"
       id="path-effect4316-5-63"
       is_visible="true" />
    <inkscape:path-effect
       effect="spiro"
       id="path-effect4316-5-2"
       is_visible="true" />
  </defs>
  <sodipodi:namedview
     inkscape:window-height="841"
     inkscape:window-width="1600"
     inkscape:pageshadow="2"
     inkscape:pageopacity="0.0"
     borderopacity="1.0"
     bordercolor="#666666"
     pagecolor="#ffffff"
     id="base"
     showgrid="true"
     showguides="true"
     inkscape:guide-bbox="true"
     inkscape:zoom="0.5"
     inkscape:cx="783.06145"
     inkscape:cy="-475.64859"
     inkscape:window-x="1600"
     inkscape:window-y="0"
     inkscape:current-layer="layer1"
     inkscape:window-maximized="1">
    <sodipodi:guide
       orientation="horizontal"
       position="0,600"
       id="guide5596" />
    <inkscape:grid
       type="xygrid"
       id="grid3769"
       empspacing="3"
       visible="true"
       enabled="true"
       snapvisiblegridlinesonly="true"
       spacingx="4px"
       units="px"
       dotted="true"
       spacingy="4px" />
    <sodipodi:guide
       orientation="0,1"
       position="-1040,1600"
       id="guide2985" />
  </sodipodi:namedview>
  <metadata
     id="metadata5594">
    <rdf:RDF>
      <cc:Work
         rdf:about="">
        <dc:format>image/svg+xml</dc:format>
        <dc:type
           rdf:resource="http://purl.org/dc/dcmitype/StillImage" />
        <dc:title />
      </cc:Work>
    </rdf:RDF>
  </metadata>
  <g
     inkscape:label="Layer 1"
     inkscape:groupmode="layer"
     id="layer1"
     transform="translate(0,1048)">
    <path
       style="fill:none;fill-rule:evenodd;stroke:#000000;stroke-width:140;stroke-linecap:round;stroke-linejoin:round;stroke-miterlimit:4;stroke-dasharray:none;stroke-opacity:1"
       d="m 167.05804,-30.092083 797.59632,-1.749137 c 27.02788,-118.89736 -0.63282,-249.09712 -73.66366,-346.73719 -73.03084,-97.64007 -190.11251,-160.95654 -311.80216,-168.61917 -68.44239,-4.30972 -138.02804,8.49036 -199.98349,37.89201 -61.95545,29.40165 -115.81838,75.36028 -155.35906,131.39125 -39.54068,56.03097 -64.50511,121.58401 -77.25435,188.96644 -12.74924,67.38243 -13.41165,136.390324 -13.3973,204.968271 l 0.0666,318.258719 1306.68246,-3.2782 -1.8062,-883.50604"
       id="path4314-5"
       inkscape:path-effect="#path-effect4316-5"
       inkscape:original-d="M 167.05804,-30.092083 964.65436,-31.84122 C 964.0157,-318.90709 793.68987,-544.24065 579.18854,-547.19758 339.73842,-550.49843 134.99234,-279.9513 133.19434,16.020391 l 0.0666,318.258719 1306.68246,-3.2782 -1.8062,-883.50604"
       inkscape:connector-curvature="0"
       sodipodi:nodetypes="ccasccc" />
    <path
       style="fill:none;fill-rule:evenodd;stroke:#000000;stroke-width:70;stroke-linecap:round;stroke-linejoin:round;stroke-miterlimit:4;stroke-dasharray:none;stroke-opacity:1"
       d="m -3459.0138,-22.696561 863.4503,15.7297785 c 25.6763,-121.6887175 -0.4655,-253.4372375 -70.6586,-356.1033775 -70.1932,-102.66615 -183.4726,-174.83839 -306.1833,-195.07453 -74.5105,-12.28748 -152.2827,-5.7817 -223.0595,20.55152 -70.7769,26.33321 -133.938,72.54075 -180.9265,131.65828 -46.9885,59.11753 -77.3921,130.42701 -93.1551,204.28044 -15.7629,73.85343 -17.0633,149.925083 -17.5089,225.440662 l -2.073,351.286538 1510.3901,-3.61839 -1.9366,-950.91028"
       id="path4314-5-6"
       inkscape:path-effect="#path-effect4316-5-7"
       inkscape:original-d="m -3459.0138,-22.696561 863.4503,15.7297785 c -0.6849,-316.8566175 -159.0257,-537.1170775 -376.8419,-551.1779075 -254.3228,-16.41747 -512.7221,255.24424 -514.65,581.930902 l -2.073,351.286538 1510.3901,-3.61839 -1.9366,-950.91028"
       inkscape:connector-curvature="0"
       sodipodi:nodetypes="ccasccc" />
    <path
       style="color:#000000;font-style:normal;font-variant:normal;font-weight:normal;font-stretch:normal;font-size:medium;line-height:normal;font-family:sans-serif;text-indent:0;text-align:start;text-decoration:none;text-decoration-line:none;text-decoration-style:solid;text-decoration-color:#000000;letter-spacing:normal;word-spacing:normal;text-transform:none;direction:ltr;block-progression:tb;writing-mode:lr-tb;baseline-shift:baseline;text-anchor:start;white-space:normal;clip-rule:nonzero;display:inline;overflow:visible;visibility:visible;opacity:1;isolation:auto;mix-blend-mode:normal;color-interpolation:sRGB;color-interpolation-filters:linearRGB;solid-color:#000000;solid-opacity:1;fill:#000000;fill-opacity:1;fill-rule:evenodd;stroke:none;stroke-width:70;stroke-linecap:round;stroke-linejoin:round;stroke-miterlimit:4;stroke-dasharray:none;stroke-dashoffset:0;stroke-opacity:1;color-rendering:auto;image-rendering:auto;shape-rendering:auto;text-rendering:auto;enable-background:accumulate"
       d="m -3897.5938,-624.85938 a 35.0035,35.0035 0 0 0 -34.4003,35.56446 l 1.8652,915.92383 -1440.1113,3.44921 1.8652,-315.996089 c 0.023,-3.875025 0.1184,-7.6885192 0.1484,-11.5546872 l 855.7051,15.5898442 a 35.0035,35.0035 0 0 0 34.8848,-27.7675786 c 27.7206,-131.3774594 -0.2299,-272.2436694 -76.0117,-383.0839894 -75.7819,-110.84029 -196.9001,-188.00619 -329.3809,-209.85351 -80.3253,-13.2464 -164.0963,-6.31699 -240.9609,22.28125 -76.9401,28.62628 -145.1542,78.56067 -196.1211,142.68359 -50.9431,64.09292 -83.2637,140.41149 -99.9844,218.75196 -16.705,78.2673 -17.8321,156.762338 -18.2793,232.541012 l -2.0723,351.285158 a 35.0035,35.0035 0 0 0 35.084,35.20703 l 1510.3887,-3.61719 a 35.0035,35.0035 0 0 0 34.916,-35.07226 l -1.9355,-950.91016 a 35.0035,35.0035 0 0 0 -35.5997,-35.42188 z m -1074.871,85.96876 c 26.0909,-0.67877 52.284,1.12093 78.0449,5.36914 112.9406,18.62495 218.3818,85.80293 282.9863,180.29492 59.202,86.59023 84.4614,196.79153 70.1074,300.806638 l -825.539,-15.039062 c 1.7997,-46.851136 5.8116,-92.680106 15.2285,-136.800786 14.8053,-69.36639 43.2903,-135.6645 86.3242,-189.80664 43.0101,-54.11214 101.1187,-96.5946 165.7324,-120.63476 40.4307,-15.04263 83.6304,-23.05818 127.1153,-24.18945 z"
       id="path4314-5-6-2"
       inkscape:connector-curvature="0" />
    <path
       style="color:#000000;font-style:normal;font-variant:normal;font-weight:normal;font-stretch:normal;font-size:medium;line-height:normal;font-family:sans-serif;text-indent:0;text-align:start;text-decoration:none;text-decoration-line:none;text-decoration-style:solid;text-decoration-color:#000000;letter-spacing:normal;word-spacing:normal;text-transform:none;direction:ltr;block-progression:tb;writing-mode:lr-tb;baseline-shift:baseline;text-anchor:start;white-space:normal;clip-rule:nonzero;display:inline;overflow:visible;visibility:visible;opacity:1;isolation:auto;mix-blend-mode:normal;color-interpolation:sRGB;color-interpolation-filters:linearRGB;solid-color:#000000;solid-opacity:1;fill:#000000;fill-opacity:1;fill-rule:evenodd;stroke:none;stroke-width:140;stroke-linecap:round;stroke-linejoin:round;stroke-miterlimit:4;stroke-dasharray:none;stroke-dashoffset:0;stroke-opacity:1;color-rendering:auto;image-rendering:auto;shape-rendering:auto;text-rendering:auto;enable-background:accumulate"
       d="m 1468.9375,934.50781 a 70.007,70.007 0 0 0 -68.8008,71.13089 l 1.6641,813.5371 -1166.55275,2.9277 -0.0469,-224.2734 761.60742,-1.6719 a 70.007,70.007 0 0 0 68.10351,-54.4824 c 31.7647,-139.735 -0.037,-289.4295 -85.86718,-404.1817 C 893.21491,1022.742 758.60453,949.94693 615.58789,940.94141 c -80.08827,-5.04302 -161.20733,9.78193 -234.39453,44.51367 -73.28427,34.77792 -136.13039,88.50352 -182.54102,154.26952 -46.36751,65.705 -74.52918,140.6796 -88.83984,216.3145 -14.289903,75.5252 -14.631634,148.9576 -14.617188,217.9961 l 0.06641,318.2578 a 70.007,70.007 0 0 0 70.175781,69.9863 L 1472.1191,1959 a 70.007,70.007 0 0 0 69.8243,-70.1426 l -1.8067,-883.5058 a 70.007,70.007 0 0 0 -71.1992,-70.84379 z M 585.44922,1079.9941 c 7.12206,7e-4 14.24028,0.2229 21.33984,0.67 100.3627,6.3196 199.91478,60.1555 260.14649,140.6836 49.30802,65.9233 73.96663,152.0657 69.07617,234.9433 l -697.86328,1.5313 c 1.79229,-26.058 4.61077,-51.3811 9.22265,-75.7559 11.18782,-59.13 32.95415,-115.2641 65.66797,-161.6211 32.67074,-46.296 77.5511,-84.4862 128.17774,-108.5117 l 0,0 c 44.38324,-21.0625 94.37801,-31.9457 144.23242,-31.9414 z"
       id="path4314-5-7"
       inkscape:connector-curvature="0" />
  </g>
</svg>
