<?xml version="1.0" encoding="UTF-8" standalone="no"?>
<!-- Created with Inkscape (http://www.inkscape.org/) -->

<svg
   xmlns:dc="http://purl.org/dc/elements/1.1/"
   xmlns:cc="http://creativecommons.org/ns#"
   xmlns:rdf="http://www.w3.org/1999/02/22-rdf-syntax-ns#"
   xmlns:svg="http://www.w3.org/2000/svg"
   xmlns="http://www.w3.org/2000/svg"
   xmlns:sodipodi="http://sodipodi.sourceforge.net/DTD/sodipodi-0.dtd"
   xmlns:inkscape="http://www.inkscape.org/namespaces/inkscape"
   width="2000"
   height="2048"
   id="svg2992"
   version="1.1"
   inkscape:version="0.91pre3 r13670"
   sodipodi:docname="ല്‍.svg">
  <defs
     id="defs5498">
    <inkscape:path-effect
       is_visible="true"
       id="path-effect2987"
       effect="spiro" />
    <inkscape:path-effect
       is_visible="true"
       id="path-effect4574"
       effect="spiro" />
    <filter
       id="filter5478"
       style="color-interpolation-filters:sRGB;"
       x="-0.25"
       y="-0.25"
       width="1.5"
       height="1.5"
       inkscape:menu-tooltip="Creates a black light inside and outside"
       inkscape:menu="Morphology"
       inkscape:label="Black Hole">
      <feGaussianBlur
         id="feGaussianBlur5480"
         result="result1"
         in="SourceAlpha"
         stdDeviation="5" />
      <feComposite
         id="feComposite5482"
         in2="result1"
         result="result3"
         k4="-2"
         k1="-1"
         k2="3.2"
         operator="arithmetic" />
      <feColorMatrix
         id="feColorMatrix5484"
         result="result2"
         values="1 0 0 0 0 0 1 0 0 0 0 0 1 0 0 0 0 0 10 0 " />
      <feComposite
         id="feComposite5486"
         in2="result2"
         operator="out"
         in="SourceGraphic"
         result="fbSourceGraphic" />
      <feBlend
         id="feBlend5488"
         result="result91"
         in2="fbSourceGraphic"
         in="result1"
         mode="multiply" />
      <feBlend
         id="feBlend5490"
         in2="result91"
         in="fbSourceGraphic"
         mode="screen" />
    </filter>
    <inkscape:path-effect
       is_visible="true"
       id="path-effect6255"
       effect="spiro" />
    <inkscape:path-effect
       effect="spiro"
       id="path-effect4141-3-4-6-50"
       is_visible="true" />
    <inkscape:path-effect
       effect="spiro"
       id="path-effect4141-3-4-6-50-0"
       is_visible="true" />
    <inkscape:path-effect
       effect="spiro"
       id="path-effect4141-3-4-6-50-0-4"
       is_visible="true" />
  </defs>
  <sodipodi:namedview
     inkscape:window-height="853"
     inkscape:window-width="1600"
     inkscape:pageshadow="2"
     inkscape:pageopacity="0.0"
     borderopacity="1.0"
     bordercolor="#666666"
     pagecolor="#ffffff"
     id="base"
     showgrid="true"
     showguides="true"
     inkscape:guide-bbox="true"
     inkscape:zoom="0.227"
     inkscape:cx="243.22633"
     inkscape:cy="1363.0965"
     inkscape:window-x="1598"
     inkscape:window-y="-3"
     inkscape:current-layer="layer1-7"
     inkscape:window-maximized="1"
     inkscape:snap-grids="false">
    <sodipodi:guide
       orientation="horizontal"
       position="0,600"
       id="guide5596" />
    <inkscape:grid
       type="xygrid"
       id="grid3769"
       empspacing="3"
       visible="true"
       enabled="true"
       snapvisiblegridlinesonly="true"
       spacingx="4px"
       units="px"
       dotted="true"
       spacingy="4px" />
    <sodipodi:guide
       orientation="0,1"
       position="-1040,1600"
       id="guide2985" />
  </sodipodi:namedview>
  <metadata
     id="metadata5594">
    <rdf:RDF>
      <cc:Work
         rdf:about="">
        <dc:format>image/svg+xml</dc:format>
        <dc:type
           rdf:resource="http://purl.org/dc/dcmitype/StillImage" />
        <dc:title />
      </cc:Work>
    </rdf:RDF>
  </metadata>
  <g
     inkscape:label="Layer 1"
     inkscape:groupmode="layer"
     id="layer1"
     transform="translate(0,1048)">
    <g
       transform="translate(111.26883,-4.3273578)"
       id="layer1-7"
       inkscape:label="Layer 1">
      <path
         style="color:#000000;font-style:normal;font-variant:normal;font-weight:normal;font-stretch:normal;font-size:medium;line-height:normal;font-family:sans-serif;text-indent:0;text-align:start;text-decoration:none;text-decoration-line:none;text-decoration-style:solid;text-decoration-color:#000000;letter-spacing:normal;word-spacing:normal;text-transform:none;direction:ltr;block-progression:tb;writing-mode:lr-tb;baseline-shift:baseline;text-anchor:start;white-space:normal;clip-rule:nonzero;display:inline;overflow:visible;visibility:visible;opacity:1;isolation:auto;mix-blend-mode:normal;color-interpolation:sRGB;color-interpolation-filters:linearRGB;solid-color:#000000;solid-opacity:1;fill:#000000;fill-opacity:1;fill-rule:evenodd;stroke:none;stroke-width:140;stroke-linecap:round;stroke-linejoin:round;stroke-miterlimit:4;stroke-dasharray:none;stroke-dashoffset:0;stroke-opacity:1;color-rendering:auto;image-rendering:auto;shape-rendering:auto;text-rendering:auto;enable-background:accumulate"
         d="m 1400.2793,-1044.4492 a 70.007,70.007 0 0 0 -48.334,123.03709 c 72.4238,64.07515 117.0408,162.74595 117.3145,259.44531 0.095,33.69538 -4.9374,67.96362 -13.4786,102.7168 -57.841,-17.16518 -117.5393,-27.65535 -177.3652,-31.50195 -124.255,-7.98918 -251.5829,12.3457 -366.39842,64.00781 -79.63028,-42.68047 -169.16738,-66.63987 -260.55274,-67.45313 -134.60467,-1.19788 -267.90512,47.94577 -368.2539,139.00977 -100.50754,91.20807 -163.21239,220.7713 -169.50977,357.238281 -5.00266,108.409912 25.6458,216.768399 86.68945,306.498049 61.04365,89.72965 150.57736,158.02782 253.25,193.18555 A 70.007,70.007 0 1 0 498.99414,269.28516 C 425.67226,244.17788 359.73583,193.87965 316.14258,129.80078 272.54932,65.72192 249.98017,-14.077034 253.55273,-91.496094 c 4.47953,-97.073186 51.11897,-194.113636 123.74024,-260.015626 72.78003,-66.04605 173.75101,-103.57203 272.92578,-102.68945 38.4665,0.34232 77.06981,6.56153 114.375,17.73828 -112.73843,91.54342 -194.97418,221.25421 -219.50781,367.371093 -17.02795,101.414748 -5.73899,212.198337 50.95508,306.308597 28.37745,47.10563 67.44219,88.46329 115.82226,118.27539 48.54793,29.91552 105.16656,47.2442 164.00195,46.92187 56.02754,-0.30695 109.8096,-16.5937 156.43357,-44.16211 46.4693,-27.47692 84.7339,-65.38337 113.7891,-108.62695 58.0222,-86.35561 76.9299,-189.011036 72.2129,-285.628906 -7.1184,-145.801474 -68.0512,-287.264364 -171.8653,-391.111324 -0.033,-0.0326 -0.067,-0.0631 -0.1,-0.0957 71.6152,-20.74197 147.8784,-28.66434 223.0957,-23.82812 47.5774,3.05906 94.8485,11.24932 140.4297,24.32226 -7.921,18.79747 -16.1551,37.66833 -24.789,56.67578 -45.9081,101.06609 -100.3736,210.98994 -113.6778,338.550786 -9.8663,94.59868 5.1519,196.052944 59.5274,282.150394 27.2144,43.0911 63.685,81.04218 108.3906,108.96484 44.847,28.01099 96.885,45.12691 151.457,46.87695 60.1226,1.92804 118.3096,-14.94609 168.0645,-45.1914 49.563,-30.12856 89.3169,-72.47206 117.8066,-120.73828 56.8971,-96.39256 65.9991,-209.538399 46.3906,-312.126958 -28.631,-149.793432 -117.2999,-281.599762 -236.2089,-371.984372 -31.4967,-23.94115 -64.89,-44.80497 -99.6133,-62.84766 13.5105,-49.5545 22.2031,-101.47097 22.0488,-155.97656 -0.3912,-138.24216 -61.0071,-272.29993 -164.5449,-363.90232 a 70.007,70.007 0 0 0 -44.4336,-18.1836 z m 139.0977,671.42186 c 21.8726,12.2767 42.8938,25.87014 62.7265,40.94531 93.0737,70.74677 162.0599,175.06801 183.418,286.810546 14.4361,75.527637 5.8382,154.905174 -29.4434,214.677734 -17.5994,29.81634 -42.0514,55.30409 -69.9668,72.27344 -27.7232,16.85258 -60.3523,25.87265 -90.8535,24.89453 -27.7542,-0.89004 -56.7651,-10.06586 -81.7793,-25.68945 -25.1556,-15.71191 -47.4189,-38.42926 -64.1875,-64.98047 -33.5907,-53.18722 -45.8748,-123.62353 -38.6523,-192.87305 9.9514,-95.41528 55.0898,-192.12326 101.8984,-295.17187 8.9859,-19.78246 18.0033,-40.17351 26.8399,-60.88672 z m -634.19341,8.13281 c 14.88726,11.35417 29.06728,23.58067 42.24219,36.75976 77.86652,77.89126 125.63012,188.0883 131.04302,298.957036 3.5701,73.125948 -11.8288,146.018154 -48.586,200.724614 -18.3344,27.28745 -42.16784,50.42321 -68.84178,66.19531 -26.51923,15.68061 -56.99918,24.51525 -85.94336,24.67383 -30.34533,0.16624 -62.41219,-9.24349 -89.78907,-26.11329 -27.54471,-16.97322 -51.70341,-42.0425 -69.3457,-71.32812 -35.34542,-58.67222 -45.31724,-136.397665 -32.81055,-210.884766 20.7765,-123.740254 101.12431,-239.086384 208.55664,-310.480464 4.42089,-2.9379 8.96097,-5.70132 13.47461,-8.50391 z"
         id="path4139-1-0-4-9-1"
         inkscape:connector-curvature="0" />
      <path
         style="fill:none;fill-rule:evenodd;stroke:#000000;stroke-width:140;stroke-linecap:round;stroke-linejoin:round;stroke-miterlimit:4;stroke-dasharray:none;stroke-opacity:1"
         d="m -850.27433,-972.17166 c 87.98076,77.83877 140.59713,194.20286 140.92951,311.67361 0.31716,112.09235 -44.09552,219.01736 -90.45381,321.07472 -46.35829,102.05736 -96.16033,205.37268 -107.7881,316.860761 -8.54436,81.924093 5.10632,167.869139 49.0894,237.511449 21.99154,34.82116 51.35893,65.15572 86.28953,86.973 34.93061,21.81728 75.45451,34.96261 116.61758,36.28265 45.31186,1.45308 90.71967,-11.4937 129.45883,-35.04265 38.73917,-23.54895 70.8423,-57.4644 93.88692,-96.50568 46.08922,-78.08256 54.93925,-174.344512 37.91695,-263.402609 -24.99461,-130.767991 -103.82143,-248.830921 -209.81279,-329.396611 -105.99135,-80.56569 -237.67871,-124.54293 -370.53962,-133.08544 -147.00067,-9.45165 -298.27347,24.6741 -420.95777,106.20386 -122.6843,81.52976 -214.4547,211.9201 -238.8463,357.190851 -14.7673,87.950925 -4.1375,182.204569 41.8822,258.595809 23.0099,38.19563 54.6219,71.40922 92.5843,94.80188 37.9624,23.39266 82.3051,36.76158 126.8955,36.51729 42.4859,-0.23276 84.6166,-12.79262 121.1882,-34.41713 36.5716,-21.62451 67.6209,-52.14531 91.3157,-87.41082 47.3897,-70.53102 64.543,-158.305544 60.3994,-243.177449 -6.2656,-128.335101 -60.6139,-254.164831 -151.4542,-345.033941 -90.8403,-90.86912 -217.6066,-145.43072 -346.0895,-146.57413 -116.8897,-1.04024 -234.0251,42.29467 -320.5896,120.84969 -86.5644,78.55503 -141.2362,191.85599 -146.6246,308.626081 -4.2876,92.91448327 22.3214,186.993815 74.6399,263.898059 52.3184,76.90425 130.0531,136.20245 218.0504,166.33494"
         id="path4139-1-0-4-9-1-6"
         inkscape:path-effect="#path-effect4141-3-4-6-50-0-4"
         inkscape:original-d="m -850.27433,-972.17166 c 0,0 133.90121,197.87212 140.92951,311.67361 13.7262,222.25256 -232.44541,417.90196 -198.24191,637.935481 22.5315,144.946699 105.3207,362.622499 251.99651,360.767099 157.8356,-1.9966 285.9063,-239.038299 261.2627,-394.950939 -38.619,-244.330321 -333.1023,-454.992471 -580.35241,-462.482051 -268.63447,-8.13734 -610.63167,199.1737 -659.80407,463.394711 -28.6279,153.82808 104.9446,385.887079 261.362,389.914979 151.8653,3.9107 284.2402,-213.5134 272.9033,-365.005399 -17.399,-232.499411 -264.4321,-487.404521 -497.5437,-491.608071 -211.5046,-3.81393 -442.9331,219.33499 -467.2142,429.475771 -19.9093,172.304897 292.6903,430.232999 292.6903,430.232999"
         inkscape:connector-curvature="0"
         sodipodi:nodetypes="caaaaaaaaaac" />
    </g>
  </g>
</svg>
