<?xml version="1.0" encoding="UTF-8" standalone="no"?>
<!-- Created with Inkscape (http://www.inkscape.org/) -->

<svg
   xmlns:dc="http://purl.org/dc/elements/1.1/"
   xmlns:cc="http://creativecommons.org/ns#"
   xmlns:rdf="http://www.w3.org/1999/02/22-rdf-syntax-ns#"
   xmlns:svg="http://www.w3.org/2000/svg"
   xmlns="http://www.w3.org/2000/svg"
   xmlns:sodipodi="http://sodipodi.sourceforge.net/DTD/sodipodi-0.dtd"
   xmlns:inkscape="http://www.inkscape.org/namespaces/inkscape"
   width="2000"
   height="2048"
   id="svg2992"
   version="1.1"
   inkscape:version="0.91pre3 r13670"
   sodipodi:docname="ള.svg">
  <defs
     id="defs5498">
    <inkscape:path-effect
       effect="spiro"
       id="path-effect4142"
       is_visible="true" />
    <inkscape:path-effect
       effect="spiro"
       id="path-effect4142-8"
       is_visible="true" />
    <inkscape:path-effect
       effect="spiro"
       id="path-effect4142-8-0"
       is_visible="true" />
    <inkscape:path-effect
       effect="spiro"
       id="path-effect4142-8-0-2"
       is_visible="true" />
    <inkscape:path-effect
       effect="spiro"
       id="path-effect4142-8-0-2-0"
       is_visible="true" />
    <inkscape:path-effect
       effect="spiro"
       id="path-effect4142-8-0-2-0-1"
       is_visible="true" />
  </defs>
  <sodipodi:namedview
     inkscape:window-height="853"
     inkscape:window-width="1600"
     inkscape:pageshadow="2"
     inkscape:pageopacity="0.0"
     borderopacity="1.0"
     bordercolor="#666666"
     pagecolor="#ffffff"
     id="base"
     showgrid="true"
     showguides="true"
     inkscape:guide-bbox="true"
     inkscape:zoom="0.227"
     inkscape:cx="675.51588"
     inkscape:cy="1082.8179"
     inkscape:window-x="1598"
     inkscape:window-y="-3"
     inkscape:current-layer="layer1"
     inkscape:window-maximized="1">
    <sodipodi:guide
       orientation="horizontal"
       position="0,600"
       id="guide5596" />
    <inkscape:grid
       type="xygrid"
       id="grid3769"
       empspacing="3"
       visible="true"
       enabled="true"
       snapvisiblegridlinesonly="true"
       spacingx="4px"
       units="px"
       dotted="true"
       spacingy="4px" />
    <sodipodi:guide
       orientation="0,1"
       position="-1040,1600"
       id="guide2985" />
  </sodipodi:namedview>
  <metadata
     id="metadata5594">
    <rdf:RDF>
      <cc:Work
         rdf:about="">
        <dc:format>image/svg+xml</dc:format>
        <dc:type
           rdf:resource="http://purl.org/dc/dcmitype/StillImage" />
        <dc:title />
      </cc:Work>
    </rdf:RDF>
  </metadata>
  <g
     inkscape:label="Layer 1"
     inkscape:groupmode="layer"
     id="layer1"
     transform="translate(0,1048)">
    <path
       style="color:#000000;font-style:normal;font-variant:normal;font-weight:normal;font-stretch:normal;font-size:medium;line-height:normal;font-family:sans-serif;text-indent:0;text-align:start;text-decoration:none;text-decoration-line:none;text-decoration-style:solid;text-decoration-color:#000000;letter-spacing:normal;word-spacing:normal;text-transform:none;direction:ltr;block-progression:tb;writing-mode:lr-tb;baseline-shift:baseline;text-anchor:start;white-space:normal;clip-rule:nonzero;display:inline;overflow:visible;visibility:visible;opacity:1;isolation:auto;mix-blend-mode:normal;color-interpolation:sRGB;color-interpolation-filters:linearRGB;solid-color:#000000;solid-opacity:1;fill:#000000;fill-opacity:1;fill-rule:evenodd;stroke:none;stroke-width:140;stroke-linecap:round;stroke-linejoin:round;stroke-miterlimit:4;stroke-dasharray:none;stroke-dashoffset:0;stroke-opacity:1;color-rendering:auto;image-rendering:auto;shape-rendering:auto;text-rendering:auto;enable-background:accumulate"
       d="m 799.01172,-602.75977 c -132.4171,1.06319 -271.98254,23.62808 -393.2461,97.65821 -64.8831,39.61046 -122.77261,93.46362 -163.99218,160.75976 -41.39533,67.5831 -64.70441,147.37224 -60.4336,229.35157 4.27089,81.980857 36.68932,163.755929 99.36133,223.1582 31.26118,29.63021 69.05658,52.60295 111.23242,65.82422 42.27536,13.25246 87.73868,16.27987 132.24805,7.21484 57.10917,-11.63118 108.4456,-42.35038 145.74219,-87.017577 37.28594,-44.654448 58.29005,-100.5409111 59.7832,-158.605469 1.49274,-58.048144 -16.59306,-114.816324 -51.22265,-161.314454 -34.61992,-46.48513 -83.73861,-79.9866 -139.52735,-95.36523 -46.02791,-12.68798 -94.50111,-12.36243 -140.23828,0.57812 23.03633,-24.91681 50.21346,-46.90981 79.99609,-65.0918 96.76155,-59.0719 220.11093,-78.68256 344.89649,-77.0957 82.49114,1.04902 161.09755,11.60374 224.34957,43.69336 31.4478,15.95439 59.1329,37.31688 79.5,62.45703 20.1944,24.92681 33.696,54.71678 37.5567,83.6875 3.019,22.65518 0.2275,46.11292 -7.8047,65.92969 -7.9598,19.638 -22.0903,37.78512 -39.3047,50.45508 -17.2692,12.71029 -39.9726,21.68986 -64.6191,25.68359 -19.9772,3.23711 -43.2751,3.36218 -69.21683,2.41016 -6.17778,-0.31582 -12.40542,-0.64132 -18.375,-0.91602 l -30.33594,-1.39453 -0.33399,-0.0156 A 70.007,70.007 0 0 0 928.25781,9.1191406 l 0.33399,0.017578 0.12304,0.00586 29.08789,1.4785159 c 7.41437,0.376709 15.15084,0.733888 22.97852,1.042968 26.43295,1.509319 50.68095,3.67929 72.15425,8.31836 27.0641,5.846895 51.5377,15.905477 70.5,29.613281 18.761,13.562213 33.6471,32.068908 41.4551,51.285157 7.7267,19.01584 9.2664,41.21934 4.4024,59.625 -4.7784,18.08174 -16.7225,37.03492 -33.2696,52.04297 -16.8185,15.25425 -39.1049,27.59559 -64.1601,36.03515 -50.5401,17.02384 -112.58259,18.12775 -181.03322,17.77344 l -419.8418,-2.17383 c -29.02869,-0.15025 -62.27096,-0.39505 -98.63867,6.33789 -36.51437,6.7601 -73.72879,20.40154 -107.02149,44.5 -33.43295,24.20001 -60.38963,57.23269 -76.43359,96.7793 -16.04807,39.55674 -20.06224,82.84196 -11.3457,124.79297 6.79888,32.72167 21.05552,63.15417 41.4707,89.26563 20.42021,26.11788 46.04506,46.6699 74.39844,61.3789 28.30158,14.68214 57.77106,22.78226 86.25195,26.8457 28.44079,4.05772 54.25846,4.0032 76.95508,3.9961 l 782.8809,-0.2461 a 70.007,70.007 0 1 0 -0.043,-140 l -782.88087,0.2461 c -22.09578,0.007 -41.2361,-0.32294 -57.13867,-2.5918 -15.86247,-2.26314 -30.09772,-6.57688 -41.55664,-12.52148 -11.40712,-5.91772 -21.40711,-14.1685 -28.57617,-23.33789 -7.17408,-9.17581 -12.37603,-20.38353 -14.68946,-31.51758 -2.92369,-14.07119 -1.45869,-30.21497 4.00391,-43.67969 5.4667,-13.47483 15.87347,-26.65176 28.79102,-36.00195 13.0578,-9.45172 30.67165,-16.59195 50.41992,-20.24805 19.89494,-3.68325 44.23847,-4.14591 72.42773,-4 l 419.8418,2.17383 c 68.78802,0.35605 146.92693,1.68978 226.44723,-25.0957 39.975,-13.46512 79.516,-34.16548 113.5254,-65.01172 34.2809,-31.09246 61.8146,-71.71164 74.5684,-119.97266 13.1804,-49.87556 8.8048,-101.68139 -10.0547,-148.095702 -17.0323,-41.9177767 -44.9106,-77.000905 -78.6465,-103.933594 31.0709,-26.648489 55.5166,-60.355334 71.0156,-98.593754 17.8544,-44.04948 22.914,-91.35965 16.8301,-137.01367 -7.6997,-57.77963 -32.6519,-110.24742 -67.5488,-153.32226 -34.724,-42.86151 -78.3416,-75.53818 -124.9414,-99.17969 -92.8434,-47.10216 -193.38098,-57.65341 -285.91018,-58.83008 -8.75672,-0.11136 -17.55109,-0.13728 -26.3789,-0.0664 z m -333.53125,412.49805 c 12.31448,-0.42778 24.69073,0.93853 36.27148,4.13086 25.06886,6.91044 48.97126,23.24075 64.44922,44.02344 15.46826,20.76967 24.21614,48.296172 23.55274,74.093748 C 589.09094,-42.232511 578.93232,-15.2675 562.46094,4.4589844 546.0002,24.172719 521.31924,38.916101 496.24219,44.023438 476.38495,48.067672 454.2175,46.798897 433.8125,40.402344 413.30796,33.97459 393.42403,22.116483 377.00977,6.5585938 375.00609,4.6594508 373.19482,2.498744 371.2832,0.47070312 A 70.007,70.007 0 0 0 369.33203,-2.578125 c -13.36373,-19.96571 -20.80464,-45.25567 -20.38281,-69.277344 0.42182,-24.021667 8.74626,-49.035341 22.80273,-68.519531 14.05648,-19.48421 35.16746,-35.27153 57.83008,-43.24805 11.33131,-3.98826 23.58396,-6.21088 35.89844,-6.63867 z"
       id="path4140-6-2-9-2"
       inkscape:connector-curvature="0" />
    <path
       style="fill:none;fill-rule:evenodd;stroke:#000000;stroke-width:140;stroke-linecap:round;stroke-linejoin:round;stroke-miterlimit:4;stroke-dasharray:none;stroke-opacity:1"
       d="m -1468.6814,31.670655 c -21.4806,-32.09256615 -32.8781,-70.830578 -32.2,-109.442638 0.678,-38.612057 13.4285,-76.926027 36.0226,-108.244637 22.5942,-31.3186 54.9313,-55.50221 91.3588,-68.32355 36.4275,-12.82133 76.7831,-14.22323 114.0125,-3.96063 40.4288,11.14453 76.9397,36.06105 101.9886,69.69495 25.0489,33.6339 38.4656,75.78084 37.3875,117.703701 -1.078,41.922863 -16.6586,83.349053 -43.5372,115.53952 -26.8787,32.190467 -64.8881,54.921419 -105.9812,63.290669 -32.1833,6.55463 -65.9986,4.4067 -97.3387,-5.41781 -31.3402,-9.824517 -60.1791,-27.240458 -84.0168,-49.834508 -47.6754,-45.1880998 -74.1941,-110.396478 -77.6116,-175.995502 -3.4456,-66.13896 15.6298,-132.67041 50.2222,-189.14694 34.5925,-56.47652 84.2455,-103.06719 140.7729,-137.57653 113.0546,-69.01869 249.8152,-89.02795 382.2618,-87.34368 87.51018,1.11283 177.08145,11.66592 255.1291,51.26181 39.02383,19.79795 74.67507,46.81733 102.22069,80.81816 27.54561,34.00083 46.77323,75.13006 52.55343,118.50525 4.55146,34.1546 0.62535,69.5386 -12.31792,101.47172 -12.94326,31.93312 -34.93471,60.11248 -62.68517,80.53707 -27.75047,20.4246 -60.90255,32.893823 -94.91543,38.405274 -34.01289,5.511452 -68.71867,4.160261 -103.13081,2.411851 l -29.54636,-1.50119 30.67156,1.41137 c 35.2753,1.623214 70.72124,3.482626 105.23757,10.939496 34.51632,7.45687 68.10943,20.61658 96.72748,41.304467 28.61805,20.6878878 52.00225,48.948957 65.2953,81.664033 13.29306,32.715079 16.2519,69.720769 7.22968,103.861379 -8.76609,33.17138 -28.5066,62.95775 -53.92059,86.008 -25.41399,23.05025 -56.32707,39.56988 -88.84216,50.52221 -65.03019,21.90466 -135.1216,21.78992 -203.74094,21.43474 l -419.84073,-2.17312 c -28.609,-0.14808 -57.4027,-0.0398 -85.534,5.1683 -28.1313,5.2081 -55.545,15.59879 -78.7203,32.37387 -23.1752,16.77509 -41.8561,39.8804 -52.6114,66.39112 -10.7554,26.51072 -13.4962,56.2254 -7.6761,84.2365 4.5561,21.92786 14.2858,42.74739 28.0804,60.39102 13.7946,17.64363 31.6076,32.04533 51.4878,42.3587 19.8803,10.31337 41.7328,16.52067 63.9045,19.68396 22.1716,3.16329 44.65,3.30043 67.0462,3.29342 l 782.88172,-0.245"
       id="path4140-6-2-9-2-6"
       inkscape:path-effect="#path-effect4142-8-0-2-0-1"
       inkscape:original-d="m -1468.6814,31.670655 c 0,0 96.2987,-328.177925 209.1939,-289.971455 115.6783,39.14832 102.0001,317.874645 -10.1423,366.22884 -106.2712,45.82262 -264.9461,-115.6730247 -258.9671,-231.24782 12.178,-235.40517 337.7109,-405.01382 573.2569,-414.06715 160.02538,-6.15066 399.04162,90.81045 409.90322,250.58522 7.9678,117.20634 -130.79554,223.454015 -273.04933,222.825915 l -29.54636,-1.50119 30.67156,1.41137 c 47.5195,3.37834 291.74743,117.95531 274.49003,237.769375 -18.0966,125.64072 -70.27064,159.39475 -346.50369,157.96495 l -419.84073,-2.17312 c -184.2174,-0.95351 -232.303,90.82459 -224.5418,188.16979 6.4959,81.4765 57.4768,125.775 210.5189,125.7271 l 782.88172,-0.245"
       inkscape:connector-curvature="0"
       sodipodi:nodetypes="caaaaacccassasc" />
  </g>
</svg>
