<?xml version="1.0" encoding="UTF-8" standalone="no"?>
<!-- Created with Inkscape (http://www.inkscape.org/) -->

<svg
   xmlns:dc="http://purl.org/dc/elements/1.1/"
   xmlns:cc="http://creativecommons.org/ns#"
   xmlns:rdf="http://www.w3.org/1999/02/22-rdf-syntax-ns#"
   xmlns:svg="http://www.w3.org/2000/svg"
   xmlns="http://www.w3.org/2000/svg"
   xmlns:sodipodi="http://sodipodi.sourceforge.net/DTD/sodipodi-0.dtd"
   xmlns:inkscape="http://www.inkscape.org/namespaces/inkscape"
   width="2000"
   height="2048"
   id="svg2992"
   version="1.1"
   inkscape:version="0.91pre2 r13516"
   sodipodi:docname="ള്‍.svg">
  <defs
     id="defs5498">
    <inkscape:path-effect
       effect="spiro"
       id="path-effect4372-5-9-5"
       is_visible="true" />
    <inkscape:path-effect
       effect="spiro"
       id="path-effect4918"
       is_visible="true" />
    <inkscape:path-effect
       effect="spiro"
       id="path-effect4918-0"
       is_visible="true" />
    <inkscape:path-effect
       effect="spiro"
       id="path-effect4918-0-4"
       is_visible="true" />
  </defs>
  <sodipodi:namedview
     inkscape:window-height="853"
     inkscape:window-width="1600"
     inkscape:pageshadow="2"
     inkscape:pageopacity="0.0"
     borderopacity="1.0"
     bordercolor="#666666"
     pagecolor="#ffffff"
     id="base"
     showgrid="true"
     showguides="true"
     inkscape:guide-bbox="true"
     inkscape:zoom="0.32102648"
     inkscape:cx="334.45279"
     inkscape:cy="1073.672"
     inkscape:window-x="1598"
     inkscape:window-y="-3"
     inkscape:current-layer="layer1-2"
     inkscape:window-maximized="1">
    <sodipodi:guide
       orientation="horizontal"
       position="0,600"
       id="guide5596" />
    <inkscape:grid
       type="xygrid"
       id="grid3769"
       empspacing="3"
       visible="true"
       enabled="true"
       snapvisiblegridlinesonly="true"
       spacingx="4px"
       units="px"
       dotted="true"
       spacingy="4px" />
    <sodipodi:guide
       orientation="0,1"
       position="-1040,1600"
       id="guide2985" />
  </sodipodi:namedview>
  <metadata
     id="metadata5594">
    <rdf:RDF>
      <cc:Work
         rdf:about="">
        <dc:format>image/svg+xml</dc:format>
        <dc:type
           rdf:resource="http://purl.org/dc/dcmitype/StillImage" />
        <dc:title />
      </cc:Work>
    </rdf:RDF>
  </metadata>
  <g
     inkscape:label="Layer 1"
     inkscape:groupmode="layer"
     id="layer1"
     transform="translate(0,1048)">
    <g
       id="layer1-2"
       inkscape:label="Layer 1"
       transform="translate(33.173191,-57.329207)">
      <path
         style="fill:none;fill-rule:evenodd;stroke:#000000;stroke-width:140;stroke-linecap:round;stroke-linejoin:round;stroke-miterlimit:4;stroke-dasharray:none;stroke-opacity:1"
         d="m -1917.7856,-485.27706 c -118.739,15.28566 -230.5262,78.9664 -304.2302,173.30793 -73.704,94.34153 -108.4433,218.215601 -94.5436,337.124809 12.3634,105.766631 63.6622,207.773481 145.8294,275.508191 82.1672,67.73471 195.2456,98.68407 299.193,75.56751 86.5825,-19.25483 162.4381,-73.59808 220.7111,-140.46759 58.2731,-66.86951 100.5728,-146.010712 138.6466,-226.1210109 38.0739,-80.1102991 72.5545,-162.1621791 117.5879,-238.5773091 45.0334,-76.41513 101.6506,-147.84136 175.482,-196.9963 66.9686,-44.58592 146.8273,-69.37883 227.25771,-71.29049 80.4304,-1.91166 161.1836,18.97307 230.97048,59.00423 69.78688,40.03116 128.46364,99.02847 168.75297,168.66662 40.28933,69.63816 62.16689,149.71716 63.61984,230.157147 1.64233,90.92419 -23.11456,182.616053 -72.97621,258.666843 -49.86164,76.05078 -125.01196,135.8038 -211.37292,164.29397 -86.36096,28.49017 -183.45283,24.894 -266.24217,-12.73357 -82.7893,-37.62758 -149.9861,-109.53411 -179.0702,-195.69688 -21.9332,-64.97803 -22.3273,-135.873 -9.6007,-203.261739 12.7266,-67.388739 38.1116,-131.752561 66.8935,-194.000581 57.5636,-124.49603 130.3619,-245.88432 147.9678,-381.90957 13.5953,-105.03905 -7.8765,-214.31397 -60.2055,-306.39931"
         id="path4916-4"
         inkscape:path-effect="#path-effect4918-0"
         inkscape:original-d="m -1917.7856,-485.27706 c 0,0 -612.7952,149.14443 -398.7738,510.432739 214.0199,361.288301 -53.4559,748.962401 445.0224,351.075701 498.4776,-397.886701 137.2844,-785.43821 652.4276,-802.16221 174.2042,-5.6555 609.93621,-244.73996 690.601,386.537507 57.20971,447.719483 -402.22024,292.052073 -729.6615,214.530363 -287.3709,-68.03504 149.2655,-596.10906 205.2606,-779.17189 47.8413,-156.40593 -60.2055,-306.39931 -60.2055,-306.39931"
         inkscape:connector-curvature="0"
         sodipodi:nodetypes="cssssssc" />
      <path
         style="color:#000000;font-style:normal;font-variant:normal;font-weight:normal;font-stretch:normal;font-size:medium;line-height:normal;font-family:sans-serif;text-indent:0;text-align:start;text-decoration:none;text-decoration-line:none;text-decoration-style:solid;text-decoration-color:#000000;letter-spacing:normal;word-spacing:normal;text-transform:none;direction:ltr;block-progression:tb;writing-mode:lr-tb;baseline-shift:baseline;text-anchor:start;clip-rule:nonzero;display:inline;overflow:visible;visibility:visible;opacity:1;isolation:auto;mix-blend-mode:normal;color-interpolation:sRGB;color-interpolation-filters:linearRGB;solid-color:#000000;solid-opacity:1;fill:#000000;fill-opacity:1;fill-rule:evenodd;stroke:none;stroke-width:140;stroke-linecap:round;stroke-linejoin:round;stroke-miterlimit:4;stroke-dasharray:none;stroke-dashoffset:0;stroke-opacity:1;color-rendering:auto;image-rendering:auto;shape-rendering:auto;text-rendering:auto;enable-background:accumulate"
         d="m 1392.1836,-972.63086 a 70.007,70.007 0 0 0 -58.1445,105.41602 c 44.6401,78.55494 63.2422,173.22473 51.6445,262.83007 -3.0466,23.53841 -8.2836,47.01912 -15.0664,70.56055 -42.4301,13.85926 -83.0693,33.33745 -120.5059,58.26172 -86.1282,57.34185 -148.6182,137.63585 -196.9941,219.72266 -48.2265,81.83328 -83.35122,165.898244 -120.50392,244.070309 -37.11791,78.098932 -76.87362,151.284741 -128.19726,210.179691 -50.84647,58.34737 -115.33936,103.04817 -183.13477,118.125 -80.52221,17.9071 -173.55061,-6.90861 -239.4707,-61.25 C 315.22547,200.39559 271.35598,114.40771 260.98242,25.664062 c -11.68725,-99.981974 18.20549,-206.577522 80.17774,-285.902342 61.97225,-79.32482 158.167,-134.12399 258.00586,-146.97656 a 70.007,70.007 0 1 0 -17.875,-138.85352 c -137.63915,17.71873 -265.01739,90.28047 -350.45313,199.63867 -85.43574,109.35822 -125.02235,250.511231 -108.91016,388.347659 14.35332,122.789611 73.0808,240.814681 170.83008,321.394531 98.41425,81.12803 231.54345,118.21078 358.91602,89.88477 105.36959,-23.43284 192.58751,-87.41695 258.28711,-162.8086 65.22242,-74.84408 110.06786,-159.94084 149.09766,-242.062498 38.9951,-82.048523 72.8315,-162.088962 114.6719,-233.085942 30.8182,-52.29405 66.6198,-100.0484 108.0332,-137.98242 -12.6962,26.14566 -25.5765,52.65102 -38.1641,79.875 -29.916,64.70082 -57.7724,134.30755 -72.1406,210.388674 -14.4368,76.444596 -14.7239,159.283006 12.0625,238.638676 35.7589,105.9372 116.0472,191.41149 216.4297,237.03515 100.0279,45.46247 214.2879,49.41383 317.1367,15.48438 102.5408,-33.82788 189.6559,-103.42908 247.9824,-192.39063 58.1818,-88.74104 86.3109,-193.83653 84.4238,-298.310544 -1.667,-92.287096 -26.5802,-183.682516 -73.0175,-263.947266 a 70.007,70.007 0 0 0 0,-0.002 c -46.4604,-80.30437 -113.6677,-147.95522 -194.5137,-194.33008 -79.2337,-45.45 -170.0182,-69.42788 -261.7188,-68.30078 1.6212,-9.17588 3.068,-18.43823 4.2813,-27.8125 15.5929,-120.47278 -8.7478,-244.35299 -68.7656,-349.96875 a 70.007,70.007 0 0 0 -63.5762,-36.24805 z m 125.6426,554.02539 c 67.2104,-1.59744 135.7914,16.08115 194.4765,49.74414 58.7279,33.68746 108.8758,84.02807 142.9942,143 34.1412,59.01155 52.9817,127.774313 54.2207,196.367189 1.3975,77.374366 -19.9859,155.660951 -61.5274,219.021481 -41.3969,63.14002 -104.5827,113.04676 -174.7636,136.19922 -69.8732,23.05091 -149.797,19.8083 -215.3477,-9.98437 -65.1961,-29.6315 -119.3017,-87.96909 -141.7109,-154.35742 -17.0801,-50.6004 -18.157,-109.551888 -7.1407,-167.88477 11.0851,-58.696353 33.9987,-117.81613 61.6465,-177.61133 33.6403,-72.7557 75.6874,-148.33405 108.0723,-231.17383 12.9847,-1.75093 26.0253,-3.01003 39.0801,-3.32031 z"
         id="path4916-4-8"
         inkscape:connector-curvature="0" />
    </g>
  </g>
</svg>
