<?xml version="1.0" encoding="UTF-8" standalone="no"?>
<!-- Created with Inkscape (http://www.inkscape.org/) -->

<svg
   xmlns:dc="http://purl.org/dc/elements/1.1/"
   xmlns:cc="http://creativecommons.org/ns#"
   xmlns:rdf="http://www.w3.org/1999/02/22-rdf-syntax-ns#"
   xmlns:svg="http://www.w3.org/2000/svg"
   xmlns="http://www.w3.org/2000/svg"
   xmlns:sodipodi="http://sodipodi.sourceforge.net/DTD/sodipodi-0.dtd"
   xmlns:inkscape="http://www.inkscape.org/namespaces/inkscape"
   width="2000"
   height="2048"
   id="svg2992"
   version="1.1"
   inkscape:version="0.91pre3 r13670"
   sodipodi:docname="ള്‍.svg">
  <defs
     id="defs5498">
    <inkscape:path-effect
       effect="spiro"
       id="path-effect4372-5-9-5"
       is_visible="true" />
    <inkscape:path-effect
       effect="spiro"
       id="path-effect4918"
       is_visible="true" />
    <inkscape:path-effect
       effect="spiro"
       id="path-effect4918-0"
       is_visible="true" />
    <inkscape:path-effect
       effect="spiro"
       id="path-effect4918-0-4"
       is_visible="true" />
    <inkscape:path-effect
       effect="spiro"
       id="path-effect4918-0-2"
       is_visible="true" />
  </defs>
  <sodipodi:namedview
     inkscape:window-height="853"
     inkscape:window-width="1600"
     inkscape:pageshadow="2"
     inkscape:pageopacity="0.0"
     borderopacity="1.0"
     bordercolor="#666666"
     pagecolor="#ffffff"
     id="base"
     showgrid="true"
     showguides="true"
     inkscape:guide-bbox="true"
     inkscape:zoom="0.32102648"
     inkscape:cx="1349.5729"
     inkscape:cy="949.07169"
     inkscape:window-x="1598"
     inkscape:window-y="-3"
     inkscape:current-layer="layer1-2"
     inkscape:window-maximized="1">
    <sodipodi:guide
       orientation="horizontal"
       position="0,600"
       id="guide5596" />
    <inkscape:grid
       type="xygrid"
       id="grid3769"
       empspacing="3"
       visible="true"
       enabled="true"
       snapvisiblegridlinesonly="true"
       spacingx="4px"
       units="px"
       dotted="true"
       spacingy="4px" />
    <sodipodi:guide
       orientation="0,1"
       position="-1040,1600"
       id="guide2985" />
  </sodipodi:namedview>
  <metadata
     id="metadata5594">
    <rdf:RDF>
      <cc:Work
         rdf:about="">
        <dc:format>image/svg+xml</dc:format>
        <dc:type
           rdf:resource="http://purl.org/dc/dcmitype/StillImage" />
        <dc:title />
      </cc:Work>
    </rdf:RDF>
  </metadata>
  <g
     inkscape:label="Layer 1"
     inkscape:groupmode="layer"
     id="layer1"
     transform="translate(0,1048)">
    <g
       id="layer1-2"
       inkscape:label="Layer 1"
       transform="translate(33.173191,-57.329207)">
      <path
         style="color:#000000;font-style:normal;font-variant:normal;font-weight:normal;font-stretch:normal;font-size:medium;line-height:normal;font-family:sans-serif;text-indent:0;text-align:start;text-decoration:none;text-decoration-line:none;text-decoration-style:solid;text-decoration-color:#000000;letter-spacing:normal;word-spacing:normal;text-transform:none;direction:ltr;block-progression:tb;writing-mode:lr-tb;baseline-shift:baseline;text-anchor:start;white-space:normal;clip-rule:nonzero;display:inline;overflow:visible;visibility:visible;opacity:1;isolation:auto;mix-blend-mode:normal;color-interpolation:sRGB;color-interpolation-filters:linearRGB;solid-color:#000000;solid-opacity:1;fill:#000000;fill-opacity:1;fill-rule:evenodd;stroke:none;stroke-width:140;stroke-linecap:round;stroke-linejoin:round;stroke-miterlimit:4;stroke-dasharray:none;stroke-dashoffset:0;stroke-opacity:1;color-rendering:auto;image-rendering:auto;shape-rendering:auto;text-rendering:auto;enable-background:accumulate"
         d="m 1270.2227,-978.09375 c -57.1142,-3.74903 -93.6342,71.91546 -55.1778,114.30078 70.6441,89.11845 97.5508,211.27707 69.7188,321.68359 -227.8901,3.71878 -436.58839,168.78667 -500.98046,385.93735 C 732.23166,-10.511971 732.36473,166.43138 608.07422,274.85352 489.22254,371.67581 305.62851,316.84338 229.22443,193.53602 104.90186,11.245393 181.52035,-263.8028 376.0074,-363.75567 c 48.65538,-31.20118 107.04994,-37.38541 160.17587,-55.24871 57.58281,-29.92654 36.44847,-126.63085 -28.36886,-129.80734 C 260.43534,-528.9621 50.414705,-311.01904 31.18116,-64.569292 5.4009831,151.06105 133.64153,386.10398 348.57745,447.75386 514.24432,502.15736 708.6674,425.3608 791.41012,271.71558 c 103.56547,-166.17773 79.5224,-386.15714 210.75548,-537.58862 49.5703,-61.80236 173.1631,-137.13368 224.6102,-118.60211 -84.3548,170.91637 -191.9806,354.410528 -149.9716,552.63926 31.6057,186.53788 229.6233,315.54938 413.2916,279.50617 222.2206,-32.95319 373.8705,-261.74056 354.6825,-478.912051 -10.109,-234.601189 -189.9932,-447.855109 -419.5342,-497.287529 31.0565,-152.20021 -8.574,-322.62632 -115.6706,-436.78961 -11.4343,-8.09134 -25.3574,-12.60722 -39.3508,-12.77484 z m 113.7812,583.7793 c 212.7031,38.24067 365.1843,269.55183 311.2447,479.67888 -29.3531,143.01315 -179.8881,260.09244 -326.9524,219.39144 C 1259.7615,279.1537 1196.7104,164.80715 1208.1859,58.182024 1220.232,-107.08514 1325.6806,-244.07775 1384.0039,-394.31445 Z"
         id="path4916-4"
         inkscape:connector-curvature="0" />
      <path
         style="fill:none;fill-rule:evenodd;stroke:#000000;stroke-width:140;stroke-linecap:round;stroke-linejoin:round;stroke-miterlimit:4;stroke-dasharray:none;stroke-opacity:1"
         d="m 539.5471,1087.381 c -117.68143,17.7883 -227.69219,82.0695 -300.96486,175.859 -73.27266,93.7894 -109.02447,216.0852 -97.80894,334.5738 6.01913,63.5902 25.2324,126.117 57.73029,181.1064 32.49788,54.9895 78.39594,102.2785 133.44232,134.6797 55.04638,32.4013 119.22762,49.6347 183.05438,47.1666 63.82677,-2.4681 127.03101,-24.9202 176.90061,-64.8322 39.54077,-31.6456 70.15267,-73.4533 93.18627,-118.5573 23.03359,-45.104 38.77976,-93.5774 51.90217,-142.4928 26.2448,-97.8309 42.89264,-199.7446 89.92816,-289.4515 45.76428,-87.2824 119.7943,-159.4424 208.1805,-203.0366 88.3862,-43.5942 190.6708,-58.4122 287.8092,-41.7779 97.1385,16.6343 188.6424,64.6233 257.6184,135.0143 68.9759,70.3911 115.0891,162.8233 129.9284,260.2521 11.634,76.3841 4.1144,156.0537 -24.8592,227.6806 -28.9735,71.6269 -79.7509,134.8113 -145.3393,175.6531 -65.5884,40.8417 -145.9127,58.5519 -222.1097,45.7494 -76.197,-12.8026 -147.3043,-56.7706 -190.098,-121.1024 -41.9031,-62.9928 -55.3989,-141.9169 -48.648,-217.272 6.751,-75.355 32.4638,-147.8098 63.7085,-216.7136 31.2447,-68.9038 68.1805,-135.1196 99.1775,-204.1351 30.997,-69.0156 56.1992,-141.6979 62.1376,-217.12137 8.6684,-110.09718 -25.799,-223.02303 -94.4706,-309.51432"
         id="path4916-4-0"
         inkscape:path-effect="#path-effect4918-0-2"
         inkscape:original-d="m 539.5471,1087.381 c 0,0 -442.9107,299.08 -398.7738,510.4328 42.6961,204.4534 353.9243,366.932 551.1276,298.1205 188.3838,-65.734 59.8537,-454.9642 235.0166,-550.5016 262.2765,-143.0508 832.3725,-143.8859 883.5365,150.4519 38.157,219.5108 -402.4606,459.3599 -582.4062,327.9807 -235.0896,-171.6402 189.886,-564.476 176.3756,-855.24207 -5.0068,-107.75394 -94.4706,-309.51432 -94.4706,-309.51432"
         inkscape:connector-curvature="0"
         sodipodi:nodetypes="caaaaaac" />
    </g>
  </g>
</svg>
