<?xml version="1.0" encoding="UTF-8" standalone="no"?>
<!-- Created with Inkscape (http://www.inkscape.org/) -->

<svg
   xmlns:dc="http://purl.org/dc/elements/1.1/"
   xmlns:cc="http://creativecommons.org/ns#"
   xmlns:rdf="http://www.w3.org/1999/02/22-rdf-syntax-ns#"
   xmlns:svg="http://www.w3.org/2000/svg"
   xmlns="http://www.w3.org/2000/svg"
   xmlns:sodipodi="http://sodipodi.sourceforge.net/DTD/sodipodi-0.dtd"
   xmlns:inkscape="http://www.inkscape.org/namespaces/inkscape"
   width="2000"
   height="2000"
   id="svg2992"
   version="1.1"
   inkscape:version="0.91pre2 r13516"
   sodipodi:docname="ള്ള.svg">
  <defs
     id="defs5498">
    <inkscape:path-effect
       effect="spiro"
       id="path-effect2987"
       is_visible="true" />
  </defs>
  <sodipodi:namedview
     inkscape:window-height="857"
     inkscape:window-width="1600"
     inkscape:pageshadow="2"
     inkscape:pageopacity="0.0"
     borderopacity="1.0"
     bordercolor="#666666"
     pagecolor="#ffffff"
     id="base"
     showgrid="true"
     showguides="true"
     inkscape:guide-bbox="true"
     inkscape:zoom="0.227"
     inkscape:cx="340.00606"
     inkscape:cy="586.4198"
     inkscape:window-x="1593"
     inkscape:window-y="-12"
     inkscape:current-layer="layer1"
     inkscape:window-maximized="1">
    <sodipodi:guide
       orientation="horizontal"
       position="0,600"
       id="guide5596" />
    <inkscape:grid
       type="xygrid"
       id="grid3769"
       empspacing="5"
       visible="true"
       enabled="true"
       snapvisiblegridlinesonly="true" />
    <sodipodi:guide
       orientation="0,1"
       position="-2280,1600"
       id="guide4138" />
  </sodipodi:namedview>
  <metadata
     id="metadata5594">
    <rdf:RDF>
      <cc:Work
         rdf:about="">
        <dc:format>image/svg+xml</dc:format>
        <dc:type
           rdf:resource="http://purl.org/dc/dcmitype/StillImage" />
        <dc:title />
      </cc:Work>
    </rdf:RDF>
  </metadata>
  <g
     inkscape:label="Layer 1"
     inkscape:groupmode="layer"
     id="layer1"
     transform="translate(0,1000)">
    <path
       style="fill:none;stroke:#000000;stroke-width:129.82040405;stroke-linecap:round;stroke-linejoin:round;stroke-miterlimit:4;stroke-dasharray:none;stroke-opacity:1"
       d="M 292.53652,-80.857038 C 458.08887,-91.623778 576.59169,48.441782 590.77849,115.86776 660.24129,446.00462 108.15672,432.77602 122.44293,-79.156888 120.7454,-584.08116 798.47879,-675.12868 1031.9473,-324.64876 1184.3189,-24.933738 692.88599,12.591782 781.86939,13.367372 c 631.34841,94.620648 440.53931,469.733948 65.4152,483.033448 -98.1946,3.4814 -214.8325,8.0541 -321.838,19.5705 -589.408111,64.6633 -524.1031215,403.7486 65.7289,311.1437 292.8119,-45.9721 454.13651,25.8279 767.57591,-1.6106"
       id="path3895"
       inkscape:connector-curvature="0"
       sodipodi:nodetypes="cscccscsc" />
    <path
       style="fill:none;stroke:#000000;stroke-width:129.82040405;stroke-linecap:round;stroke-linejoin:round;stroke-miterlimit:4;stroke-dasharray:none;stroke-opacity:1"
       d="m 1438.6158,-74.337215 c 165.5524,-10.76674 284.0552,129.29886 298.242,196.724765 69.4628,330.1369 -482.6218,316.9083 -468.3355,-195.024615 -1.6976,-504.924265 676.0358,-595.971785 909.5043,-245.491865 152.3716,299.715015 -339.0613,337.240575 -250.0779,338.016175 631.3484,94.620605 440.5393,469.733905 65.4152,483.033405 -98.1946,3.4814 -214.8325,8.0541 -321.838,19.5705 -589.4081,64.6633 -524.1031,403.7486 65.7289,311.1437 292.8119,-45.9721 793.3435,-5.0091 1106.7829,-32.4476"
       id="path3895-3"
       inkscape:connector-curvature="0"
       sodipodi:nodetypes="cscccscsc" />
  </g>
</svg>
