<?xml version="1.0" encoding="UTF-8" standalone="no"?>
<!-- Created with Inkscape (http://www.inkscape.org/) -->

<svg
   xmlns:dc="http://purl.org/dc/elements/1.1/"
   xmlns:cc="http://creativecommons.org/ns#"
   xmlns:rdf="http://www.w3.org/1999/02/22-rdf-syntax-ns#"
   xmlns:svg="http://www.w3.org/2000/svg"
   xmlns="http://www.w3.org/2000/svg"
   xmlns:sodipodi="http://sodipodi.sourceforge.net/DTD/sodipodi-0.dtd"
   xmlns:inkscape="http://www.inkscape.org/namespaces/inkscape"
   width="2000"
   height="2048"
   id="svg2992"
   version="1.1"
   inkscape:version="0.91pre3 r13670"
   sodipodi:docname="ള്‍.svg">
  <defs
     id="defs5498">
    <inkscape:path-effect
       effect="spiro"
       id="path-effect4372-5-9-5"
       is_visible="true" />
    <inkscape:path-effect
       effect="spiro"
       id="path-effect4918"
       is_visible="true" />
    <inkscape:path-effect
       effect="spiro"
       id="path-effect4918-0"
       is_visible="true" />
    <inkscape:path-effect
       effect="spiro"
       id="path-effect4918-0-4"
       is_visible="true" />
    <inkscape:path-effect
       effect="spiro"
       id="path-effect4918-0-2"
       is_visible="true" />
    <inkscape:path-effect
       effect="spiro"
       id="path-effect4918-0-2-2"
       is_visible="true" />
  </defs>
  <sodipodi:namedview
     inkscape:window-height="853"
     inkscape:window-width="1600"
     inkscape:pageshadow="2"
     inkscape:pageopacity="0.0"
     borderopacity="1.0"
     bordercolor="#666666"
     pagecolor="#ffffff"
     id="base"
     showgrid="true"
     showguides="true"
     inkscape:guide-bbox="true"
     inkscape:zoom="0.32102648"
     inkscape:cx="944.62188"
     inkscape:cy="787.76017"
     inkscape:window-x="1598"
     inkscape:window-y="-3"
     inkscape:current-layer="layer1-2"
     inkscape:window-maximized="1">
    <sodipodi:guide
       orientation="horizontal"
       position="0,600"
       id="guide5596" />
    <inkscape:grid
       type="xygrid"
       id="grid3769"
       empspacing="3"
       visible="true"
       enabled="true"
       snapvisiblegridlinesonly="true"
       spacingx="4px"
       units="px"
       dotted="true"
       spacingy="4px" />
    <sodipodi:guide
       orientation="0,1"
       position="-1040,1600"
       id="guide2985" />
  </sodipodi:namedview>
  <metadata
     id="metadata5594">
    <rdf:RDF>
      <cc:Work
         rdf:about="">
        <dc:format>image/svg+xml</dc:format>
        <dc:type
           rdf:resource="http://purl.org/dc/dcmitype/StillImage" />
        <dc:title />
      </cc:Work>
    </rdf:RDF>
  </metadata>
  <g
     inkscape:label="Layer 1"
     inkscape:groupmode="layer"
     id="layer1"
     transform="translate(0,1048)">
    <g
       id="layer1-2"
       inkscape:label="Layer 1"
       transform="translate(33.173191,-57.329207)">
      <path
         style="color:#000000;font-style:normal;font-variant:normal;font-weight:normal;font-stretch:normal;font-size:medium;line-height:normal;font-family:sans-serif;text-indent:0;text-align:start;text-decoration:none;text-decoration-line:none;text-decoration-style:solid;text-decoration-color:#000000;letter-spacing:normal;word-spacing:normal;text-transform:none;direction:ltr;block-progression:tb;writing-mode:lr-tb;baseline-shift:baseline;text-anchor:start;white-space:normal;clip-rule:nonzero;display:inline;overflow:visible;visibility:visible;opacity:1;isolation:auto;mix-blend-mode:normal;color-interpolation:sRGB;color-interpolation-filters:linearRGB;solid-color:#000000;solid-opacity:1;fill:#000000;fill-opacity:1;fill-rule:evenodd;stroke:none;stroke-width:140;stroke-linecap:round;stroke-linejoin:round;stroke-miterlimit:4;stroke-dasharray:none;stroke-dashoffset:0;stroke-opacity:1;color-rendering:auto;image-rendering:auto;shape-rendering:auto;text-rendering:auto;enable-background:accumulate"
         d="m 1235.5898,-978.51562 a 70.007,70.007 0 0 0 -55.2441,114.26953 c 57.2857,72.23831 86.7136,168.65098 79.5313,260.5664 -1.5025,19.22707 -4.6189,38.58623 -8.9532,58.07617 -89.4763,6.27266 -176.3839,36.89222 -250.2207,87.85157 -93.84178,64.76607 -163.64693,159.83798 -199.38669,267.17773 -29.65627,89.06877 -34.41323,175.799407 -46.55079,252.10547 -12.03622,75.6691 -32.8238,144.75364 -72.36328,190.80273 -35.25631,41.06077 -90.6381,68.29588 -146.54296,72.97461 C 479.51966,330.02372 419.25614,313.00407 370.96484,279.88086 322.39507,246.56663 283.54036,196.12832 261.04297,139.47461 238.45335,82.588671 231.31488,18.11221 238.92188,-44.728516 249.19776,-129.61671 286.67516,-212.22739 343.7832,-275.86914 400.89124,-339.51088 478.97404,-385.68301 562.25781,-405.05859 A 70.007,70.007 0 1 0 530.53516,-541.41797 C 418.65377,-515.38929 316.30152,-454.8639 239.58398,-369.36914 162.86645,-283.87438 113.73992,-175.58946 99.935547,-61.552734 89.728341,22.76812 98.80809,110.25975 130.92773,191.14453 c 32.21187,81.11703 87.17387,153.65431 160.84766,204.1875 73.95229,50.7242 164.38003,77.13594 255.75977,69.48828 91.81459,-7.68405 179.77279,-49.87799 241.08398,-121.2832 66.99476,-78.0245 90.75481,-174.17783 104.4082,-260.013672 13.55209,-85.1988744 19.1152,-163.779231 41.1211,-229.871098 26.19091,-78.66102 78.57346,-149.59383 146.07616,-196.18164 35.717,-24.65052 76.3338,-42.71986 118.625,-53.3457 -6.5555,15.00952 -13.2919,30.07591 -20.3047,45.26953 -40.3534,87.42772 -87.2966,181.40322 -106.6347,290.089845 -19.897,111.829516 -6.8443,233.619575 55.1875,336.246095 31.0266,51.33095 73.5749,96.2932 125.8925,128.88086 52.4628,32.67813 113.5147,51.98916 176.9551,52.85156 63.8737,0.8683 125.7691,-17.01854 179.3301,-48.48242 53.4033,-31.37125 97.2927,-75.35147 129.9492,-125.86914 65.2572,-100.94868 82.748,-221.950079 69.0723,-334.484377 -14.8355,-122.076863 -66.4258,-240.165203 -152.211,-331.306643 -70.6733,-75.086 -163.0629,-129.4149 -264.3222,-152.24609 3.4835,-18.89289 6.1485,-38.15065 7.6875,-57.8457 10.0234,-128.27276 -29.4669,-257.65055 -109.4121,-358.4629 a 70.007,70.007 0 0 0 -54.4493,-27.28124 z m 116.7774,578.44335 c 75.6851,15.35045 147.9727,56.18774 201.7734,113.34766 63.3502,67.30566 103.7652,158.31295 115.1797,252.240235 10.4445,85.945184 -4.3829,174.629615 -47.6699,241.591795 -21.6155,33.43777 -50.4931,61.89563 -83.2871,81.16016 -32.6364,19.1719 -70.4268,29.69759 -106.5137,29.20703 -35.8376,-0.48718 -73.0291,-11.8817 -104.8418,-31.69727 -31.958,-19.90604 -59.7641,-48.82666 -80.0976,-82.46679 -40.6881,-67.31507 -52.0519,-155.628835 -37.1641,-239.302738 14.7705,-83.015162 54.6661,-166.581672 95.9121,-255.943362 15.9552,-34.56762 32.2038,-70.56189 46.709,-108.13672 z"
         id="path4916-4-0"
         inkscape:connector-curvature="0" />
      <path
         style="fill:none;fill-rule:evenodd;stroke:#000000;stroke-width:140;stroke-linecap:round;stroke-linejoin:round;stroke-miterlimit:4;stroke-dasharray:none;stroke-opacity:1"
         d="m 704.42071,1122.3558 c -97.58256,22.7021 -187.80087,76.0506 -254.71365,150.6188 -66.91279,74.5682 -110.21493,170.0163 -122.25507,269.4787 -8.90711,73.5808 -0.79724,149.5638 26.55738,218.4492 27.35463,68.8854 74.26234,130.3742 135.38412,172.2979 61.12178,41.9238 136.46781,63.6389 210.32754,57.4575 73.85974,-6.1814 145.52993,-40.8959 193.81368,-97.1289 53.26713,-62.0368 75.54115,-144.656 88.38597,-225.4085 12.84482,-80.7525 18.00433,-163.4076 43.83542,-240.9879 30.9653,-93.0004 92.0597,-176.0031 172.7319,-231.68 80.6722,-55.6769 180.6046,-83.403 278.2972,-75.3983 108.4333,8.8847 211.7839,61.6138 286.3516,140.8374 74.5677,79.2235 120.5708,183.7706 133.6958,291.7727 12.0601,99.2397 -4.0992,204.0828 -58.3713,288.0383 -27.136,41.9777 -63.519,78.1968 -106.6177,103.5146 -43.0987,25.3179 -92.9419,39.5244 -142.9222,38.845 -49.639,-0.6748 -98.7613,-16.0271 -140.899,-42.2739 -42.1378,-26.2469 -77.3144,-63.1885 -102.9945,-105.674 -51.3601,-84.9711 -63.5691,-190.0231 -46.1765,-287.7751 17.0543,-95.8509 60.4745,-184.6213 101.2742,-273.016 40.7998,-88.3947 79.977,-179.8949 87.5614,-276.95534 8.6029,-110.09409 -25.8551,-222.98899 -94.4706,-309.51433"
         id="path4916-4-0-4"
         inkscape:path-effect="#path-effect4918-0-2-2"
         inkscape:original-d="m 704.42071,1122.3558 c 0,0 -403.626,233.8504 -376.96872,420.0975 31.45923,219.7971 359.04832,431.3077 566.08272,351.0757 150.67369,-58.3905 37.7206,-335.3178 132.22139,-466.3964 106.3656,-147.5359 270.0791,-325.4514 451.0291,-307.0783 199.967,20.304 405.0198,232.1776 420.0474,432.6101 13.1887,175.906 -131.5365,433.3653 -307.9112,430.3979 -174.4571,-2.9352 -267.745,-262.6753 -290.07,-435.723 -24.8006,-192.2359 185.492,-356.1711 188.8356,-549.97134 1.8608,-107.85414 -94.4706,-309.51433 -94.4706,-309.51433"
         inkscape:connector-curvature="0"
         sodipodi:nodetypes="caaaaaaaac" />
    </g>
  </g>
</svg>
