<?xml version="1.0" encoding="UTF-8" standalone="no"?>
<!-- Created with Inkscape (http://www.inkscape.org/) -->

<svg
   xmlns:osb="http://www.openswatchbook.org/uri/2009/osb"
   xmlns:dc="http://purl.org/dc/elements/1.1/"
   xmlns:cc="http://creativecommons.org/ns#"
   xmlns:rdf="http://www.w3.org/1999/02/22-rdf-syntax-ns#"
   xmlns:svg="http://www.w3.org/2000/svg"
   xmlns="http://www.w3.org/2000/svg"
   xmlns:sodipodi="http://sodipodi.sourceforge.net/DTD/sodipodi-0.dtd"
   xmlns:inkscape="http://www.inkscape.org/namespaces/inkscape"
   width="2000"
   height="2048"
   id="svg2992"
   version="1.1"
   inkscape:version="0.91 r13725"
   sodipodi:docname="ഴ.svg">
  <defs
     id="defs5498">
    <inkscape:path-effect
       effect="spiro"
       id="path-effect4167"
       is_visible="true" />
    <linearGradient
       id="linearGradient5964"
       osb:paint="solid">
      <stop
         style="stop-color:#000000;stop-opacity:1;"
         offset="0"
         id="stop5966" />
    </linearGradient>
    <marker
       inkscape:stockid="Arrow1Lstart"
       orient="auto"
       refY="0.0"
       refX="0.0"
       id="marker4445"
       style="overflow:visible"
       inkscape:isstock="true">
      <path
         id="path4447"
         d="M 0.0,0.0 L 5.0,-5.0 L -12.5,0.0 L 5.0,5.0 L 0.0,0.0 z "
         style="fill-rule:evenodd;stroke:#000000;stroke-width:1pt;stroke-opacity:1;fill:#000000;fill-opacity:1"
         transform="scale(0.8) translate(12.5,0)" />
    </marker>
    <marker
       inkscape:stockid="Arrow1Mend"
       orient="auto"
       refY="0.0"
       refX="0.0"
       id="Arrow1Mend"
       style="overflow:visible;"
       inkscape:isstock="true">
      <path
         id="path4152"
         d="M 0.0,0.0 L 5.0,-5.0 L -12.5,0.0 L 5.0,5.0 L 0.0,0.0 z "
         style="fill-rule:evenodd;stroke:#000000;stroke-width:1pt;stroke-opacity:1;fill:#000000;fill-opacity:1"
         transform="scale(0.4) rotate(180) translate(10,0)" />
    </marker>
    <marker
       inkscape:stockid="Arrow1Lstart"
       orient="auto"
       refY="0.0"
       refX="0.0"
       id="Arrow1Lstart"
       style="overflow:visible"
       inkscape:isstock="true">
      <path
         id="path4143"
         d="M 0.0,0.0 L 5.0,-5.0 L -12.5,0.0 L 5.0,5.0 L 0.0,0.0 z "
         style="fill-rule:evenodd;stroke:#000000;stroke-width:1pt;stroke-opacity:1;fill:#000000;fill-opacity:1"
         transform="scale(0.8) translate(12.5,0)" />
    </marker>
    <inkscape:path-effect
       effect="spiro"
       id="path-effect3006"
       is_visible="true" />
    <inkscape:path-effect
       effect="spiro"
       id="path-effect4167-4"
       is_visible="true" />
    <inkscape:path-effect
       effect="spiro"
       id="path-effect4167-4-8"
       is_visible="true" />
    <inkscape:path-effect
       effect="spiro"
       id="path-effect4167-4-2"
       is_visible="true" />
    <inkscape:path-effect
       effect="spiro"
       id="path-effect4167-4-2-4"
       is_visible="true" />
    <inkscape:path-effect
       effect="spiro"
       id="path-effect4167-4-2-7"
       is_visible="true" />
    <inkscape:path-effect
       effect="spiro"
       id="path-effect4167-4-2-2"
       is_visible="true" />
    <inkscape:path-effect
       effect="spiro"
       id="path-effect4167-4-2-2-3"
       is_visible="true" />
    <inkscape:path-effect
       effect="spiro"
       id="path-effect4167-4-2-2-1"
       is_visible="true" />
    <inkscape:path-effect
       effect="spiro"
       id="path-effect4167-4-2-2-12"
       is_visible="true" />
    <inkscape:path-effect
       effect="spiro"
       id="path-effect4167-4-2-2-12-9"
       is_visible="true" />
    <inkscape:path-effect
       effect="spiro"
       id="path-effect4167-4-2-2-9"
       is_visible="true" />
    <inkscape:path-effect
       effect="spiro"
       id="path-effect4167-4-2-2-2"
       is_visible="true" />
    <inkscape:path-effect
       effect="spiro"
       id="path-effect4167-4-2-2-25"
       is_visible="true" />
  </defs>
  <sodipodi:namedview
     inkscape:window-height="844"
     inkscape:window-width="1600"
     inkscape:pageshadow="2"
     inkscape:pageopacity="0.0"
     borderopacity="1.0"
     bordercolor="#666666"
     pagecolor="#ffffff"
     id="base"
     showgrid="true"
     showguides="true"
     inkscape:guide-bbox="true"
     inkscape:zoom="0.35355339"
     inkscape:cx="244.3439"
     inkscape:cy="1004.7407"
     inkscape:window-x="1600"
     inkscape:window-y="0"
     inkscape:current-layer="layer1"
     inkscape:window-maximized="1">
    <sodipodi:guide
       orientation="horizontal"
       position="0,600"
       id="guide5596" />
    <inkscape:grid
       type="xygrid"
       id="grid3769"
       empspacing="3"
       visible="true"
       enabled="true"
       snapvisiblegridlinesonly="true"
       spacingx="4px"
       units="px"
       dotted="true"
       spacingy="4px" />
    <sodipodi:guide
       orientation="0,1"
       position="-1040,1600"
       id="guide2985" />
  </sodipodi:namedview>
  <metadata
     id="metadata5594">
    <rdf:RDF>
      <cc:Work
         rdf:about="">
        <dc:format>image/svg+xml</dc:format>
        <dc:type
           rdf:resource="http://purl.org/dc/dcmitype/StillImage" />
        <dc:title />
      </cc:Work>
    </rdf:RDF>
  </metadata>
  <g
     inkscape:label="Layer 1"
     inkscape:groupmode="layer"
     id="layer1"
     transform="translate(0,1048)">
    <path
       style="fill:none;fill-rule:evenodd;stroke:#000000;stroke-width:140;stroke-linecap:round;stroke-linejoin:round;stroke-miterlimit:4;stroke-dasharray:none;stroke-opacity:1;image-rendering:auto"
       d="m 394.46177,-551.41809 c -49.15782,49.63006 -82.70823,114.50096 -94.80081,183.30069 -12.09258,68.79974 -2.67368,141.22313 26.61425,204.6412 44.27141,95.862259 132.31252,167.8261153 231.41674,204.266255 99.10423,36.44014 208.36763,39.463641 312.41709,21.48474 99.3454,-17.166078 197.75056,-54.5872849 271.54456,-123.279592 36.897,-34.346154 67.1067,-76.231793 85.7558,-123.064033 18.649,-46.83223 25.4904,-98.65046 17.1985,-148.37258 -9.5533,-57.28569 -39.2533,-110.73773 -81.6944,-150.38194 -42.4412,-39.64421 -97.2419,-65.49535 -154.5753,-74.75771 -80.44624,-12.99629 -167.35198,8.09016 -228.08251,62.42526 -30.36527,27.16756 -53.86513,62.13676 -66.57795,100.84735 -12.71282,38.71059 -14.48482,81.0936 -4.06156,120.48244 14.13756,53.42497 49.65436,99.06816 91.10413,135.6197 41.44976,36.55155 89.07675,65.243626 135.05852,95.899384 45.98176,30.655758 91.16447,64.038701 125.16467,107.605699 17.0001,21.783499 31.05,46.020327 40.0589,72.142437 9.0089,26.1221 12.8921,54.17067 9.7993,81.62898 -5.5951,49.67384 -34.121,95.18316 -72.8015,126.84728 -38.68048,31.66411 -86.83427,50.29219 -136.00447,59.29707 C 834.69611,417.53959 764.27572,412.40841 699.4736,390.45778 634.67148,368.50715 575.62943,329.7851 529.67447,279.09697"
       id="path4165-6-0-2"
       inkscape:path-effect="#path-effect4167-4-2-2"
       inkscape:original-d="m 394.46177,-551.41809 c 0,0 -131.32592,272.82402 -68.18656,387.94189 C 420.66289,8.614684 678.10843,103.01876 870.10904,62.274795 1047.5266,24.625454 1249.1774,-151.13064 1244.6079,-332.44141 1241.8671,-441.19374 1117.125,-557.49552 1008.3382,-557.58106 871.00177,-557.68904 718.39338,-410.88173 709.61618,-273.82601 696.07727,-62.416256 1127.6818,7.9009446 1110.8017,219.07019 1103.3718,312.0175 993.36714,386.62223 901.99573,405.21454 773.59316,431.34196 529.67447,279.09697 529.67447,279.09697"
       inkscape:connector-curvature="0"
       sodipodi:nodetypes="caaaaaaac" />
    <path
       style="fill:none;fill-rule:evenodd;stroke:#000000;stroke-width:70.00000763;stroke-linecap:round;stroke-linejoin:round;stroke-miterlimit:4;stroke-dasharray:none;stroke-opacity:1"
       d="m -2364.4139,-580.21556 c -43.7904,41.11157 -74.8614,95.5883 -87.9537,154.20869 -13.0922,58.62039 -8.1511,121.14008 13.9871,176.97608 30.7373,77.52442 93.5302,140.02338 167.2057,179.096845 73.6755,39.07347 157.6599,55.962042 241.0206,58.371938 102.9481,2.9761528 209.5477,-16.921391 294.2475,-75.514096 42.35,-29.296357 78.5162,-68.028757 102.4567,-113.620927 23.9405,-45.59217 35.3321,-98.11095 29.7508,-149.30316 -6.5838,-60.38701 -37.0161,-117.55786 -82.3195,-158.02433 -45.3035,-40.46646 -104.901,-64.17204 -165.5492,-67.59642 -70.0084,-3.95288 -142.0999,19.7664 -192.8592,68.1431 -25.3796,24.18835 -45.2814,54.19499 -57.0854,87.20813 -11.8039,33.01315 -15.4323,68.99714 -9.8206,103.60508 7.7198,47.60847 32.4261,91.09701 63.052,128.35575 30.626,37.25874 67.21,69.07749 102.8101,101.616618 35.6001,32.539128 70.6898,66.332563 97.4278,106.472791 26.7381,40.140227 44.8141,87.506201 42.8851,135.697911 -2.0967,52.38178 -28.1846,102.36532 -66.5167,138.12702 -38.3321,35.76171 -88.1078,57.92215 -139.5548,67.99463 -107.3155,21.01062 -223.7648,-11.4522 -304.7337,-84.95123"
       id="path4165-6-0-2-99"
       inkscape:path-effect="#path-effect4167-4-2-2-12"
       inkscape:original-d="m -2364.4139,-580.21556 c 0,0 -119.2844,227.53984 -73.9666,331.18477 63.0538,144.20842 251.1962,248.78957485 408.2263,237.468783 181.0316,-13.051143 420.3199,-157.104943 426.455,-338.438183 3.7774,-111.64001 -136.1537,-228.15588 -247.8687,-225.62075 -122.2543,2.77432 -246.8494,137.39802 -259.7652,258.95631 -19.817,186.50687 325.835,285.619621 306.175,472.14307 -10.1823,96.60274 -112.0875,181.4436 -206.0715,206.12165 -101.994,26.78123 -304.7337,-84.95123 -304.7337,-84.95123"
       inkscape:connector-curvature="0"
       sodipodi:nodetypes="caaaaaaac" />
    <path
       style="color:#000000;font-style:normal;font-variant:normal;font-weight:normal;font-stretch:normal;font-size:medium;line-height:normal;font-family:sans-serif;text-indent:0;text-align:start;text-decoration:none;text-decoration-line:none;text-decoration-style:solid;text-decoration-color:#000000;letter-spacing:normal;word-spacing:normal;text-transform:none;direction:ltr;block-progression:tb;writing-mode:lr-tb;baseline-shift:baseline;text-anchor:start;white-space:normal;clip-rule:nonzero;display:inline;overflow:visible;visibility:visible;opacity:1;isolation:auto;mix-blend-mode:normal;color-interpolation:sRGB;color-interpolation-filters:linearRGB;solid-color:#000000;solid-opacity:1;fill:#000000;fill-opacity:1;fill-rule:evenodd;stroke:none;stroke-width:70.00000763;stroke-linecap:round;stroke-linejoin:round;stroke-miterlimit:4;stroke-dasharray:none;stroke-dashoffset:0;stroke-opacity:1;color-rendering:auto;image-rendering:auto;shape-rendering:auto;text-rendering:auto;enable-background:accumulate"
       d="m -2267.9863,824.44141 a 35.003504,35.003504 0 0 0 -24.3828,9.82617 c -49.0157,46.0172 -83.5018,106.48051 -98.1563,172.09572 -14.6544,65.6152 -9.1705,135.0072 15.6094,197.5058 34.3813,86.7153 103.2905,154.6624 183.3418,197.1172 79.7139,42.2759 169.0049,59.9108 256.4082,62.4375 44.6573,1.2911 90.3095,-1.5438 135.082,-9.7383 6.7584,8.3094 13.1076,16.784 18.9121,25.4981 23.7302,35.6246 38.5839,76.3496 37.041,114.8945 -1.6682,41.678 -23.1904,83.8672 -55.4199,113.9356 -32.5548,30.3718 -76.2791,50.2077 -122.4043,59.2383 -95.9592,18.7872 -202.0838,-10.7963 -274.4844,-76.5176 a 35.003504,35.003504 0 1 0 -47.0488,51.8301 c 89.537,81.2768 216.3127,116.6167 334.9844,93.3828 56.7689,-11.1145 112.5957,-35.5985 156.7051,-76.75 44.4347,-41.4553 75.0881,-99.2327 77.6133,-162.3184 2.3151,-57.8385 -18.9825,-111.8461 -48.7286,-156.5019 -1.2657,-1.9003 -2.6223,-3.6959 -3.916,-5.5645 37.4849,-12.7277 73.5303,-30.0657 106.836,-53.1055 46.5527,-32.2037 86.6387,-74.919 113.5312,-126.1328 26.9593,-51.3411 39.9736,-110.5099 33.5567,-169.3672 -7.5853,-69.5732 -42.0865,-134.14455 -93.7969,-180.33395 -51.6124,-46.10183 -118.4559,-72.57337 -186.8926,-76.4375 -79.2264,-4.47336 -160.3744,21.8967 -218.9785,77.75 -29.2294,27.85747 -52.1552,62.33587 -65.8946,100.76175 -13.7529,38.4642 -18.0208,80.2456 -11.414,120.9902 9.0693,55.9308 37.3185,104.5322 70.5644,144.9785 33.1011,40.27 71.0612,73.0777 106.2344,105.2266 4.4138,4.0342 8.6449,8.0829 12.9727,12.1211 -24.1808,2.222 -48.649,2.8943 -73.0313,2.1894 -79.3181,-2.293 -157.9957,-18.4376 -225.6328,-54.3086 -67.2997,-35.6921 -123.9751,-92.7426 -151.0684,-161.0761 -19.4965,-49.1734 -23.8952,-104.8217 -12.3652,-156.4473 11.5301,-51.6256 39.1869,-100.11438 77.752,-136.32032 a 35.003504,35.003504 0 0 0 -23.5293,-60.85937 z m 499.0254,74.52343 c 3.8114,0.0243 7.6205,0.14485 11.4199,0.35938 52.8599,2.98462 105.2126,23.92279 144.207,58.7539 38.8964,34.74356 65.2596,84.51408 70.8418,135.71488 4.7456,43.5271 -5.0236,89.395 -25.9453,129.2382 -20.9885,39.9705 -53.2336,74.7203 -91.3809,101.1094 -34.5699,23.9144 -73.8018,40.8906 -115.4218,52.1192 -16.5392,-17.2483 -33.7082,-33.332 -50.6172,-48.7871 -36.027,-32.9294 -71.2341,-63.7584 -99.3848,-98.0059 -28.0058,-34.0713 -49.1726,-72.4482 -55.543,-111.7344 -4.6166,-28.4712 -1.6263,-58.6566 8.2286,-86.2187 9.8686,-27.6004 26.7475,-53.13705 48.2773,-73.65628 40.2323,-38.34387 98.1463,-59.25649 155.3184,-58.89258 z"
       id="path4165-6-0-2-99-7"
       inkscape:connector-curvature="0" />
    <path
       style="color:#000000;font-style:normal;font-variant:normal;font-weight:normal;font-stretch:normal;font-size:medium;line-height:normal;font-family:sans-serif;text-indent:0;text-align:start;text-decoration:none;text-decoration-line:none;text-decoration-style:solid;text-decoration-color:#000000;letter-spacing:normal;word-spacing:normal;text-transform:none;direction:ltr;block-progression:tb;writing-mode:lr-tb;baseline-shift:baseline;text-anchor:start;white-space:normal;clip-rule:nonzero;display:inline;overflow:visible;visibility:visible;opacity:1;isolation:auto;mix-blend-mode:normal;color-interpolation:sRGB;color-interpolation-filters:linearRGB;solid-color:#000000;solid-opacity:1;fill:#000000;fill-opacity:1;fill-rule:evenodd;stroke:none;stroke-width:140;stroke-linecap:round;stroke-linejoin:round;stroke-miterlimit:4;stroke-dasharray:none;stroke-dashoffset:0;stroke-opacity:1;color-rendering:auto;image-rendering:auto;shape-rendering:auto;text-rendering:auto;enable-background:accumulate"
       d="m -502.20898,-600.5918 c -96.62574,0.90474 -192.27597,40.12815 -257.62891,120.92188 -87.85626,103.32132 -90.80935,258.3386 -3.86914,363.95703 48.50542,63.930292 109.60138,104.559394 165.27734,140.732421 -24.65538,4.398905 -49.60701,7.467347 -74.46289,9.072266 a 70.007,70.007 0 0 0 -1.20703,0.08789 C -818.77164,46.038349 -975.03148,-8.8600831 -1050.834,-126.03711 a 70.007,70.007 0 0 0 -0.7422,-1.12305 c -68.1698,-101.06272 -52.0238,-256.67879 35.2207,-341.84961 a 70.007,70.007 0 1 0 -97.7968,-100.17968 c -138.6732,135.37705 -162.0227,358.84783 -53.8145,519.806638 111.065,171.072872 318.2045,238.304862 504.92383,223.113282 66.42046,-4.35211 136.43433,-16.74791 203.25781,-40.03125 12.01071,14.3016 22.09221,29.58329 29.98828,46.47461 a 70.007,70.007 0 0 0 1.25391,2.54492 c 24.71081,47.72218 1.47763,117.67251 -45.72656,147.75586 a 70.007,70.007 0 0 0 -0.5332,0.34375 c -120.5856,78.39815 -307.03921,42.66741 -402.76954,-65.73828 A 70.007,70.007 0 1 0 -982.51172,357.75 c 142.52364,161.39476 396.55472,212.1085 583.75,90.60938 106.81612,-68.2598 155.73188,-209.78125 95.27149,-328.51368 -8.29696,-17.59189 -17.76699,-33.787568 -28.11719,-48.806638 54.50033,-36.211603 102.40418,-83.390616 138.34765,-144.001953 81.0661,-130.242229 68.15393,-307.507139 -45.02929,-418.207029 -0.0583,-0.0613 -0.12136,-0.11654 -0.17969,-0.17774 -69.2257,-72.62989 -166.96339,-110.15028 -263.74023,-109.24414 z m 4.1289,143.92774 c 59.30375,-0.0492 119.47127,21.12923 158.37696,62.00976 a 70.007,70.007 0 0 0 2.26953,2.27735 c 62.55442,59.95764 71.84385,171.13808 25.07031,245.86523 a 70.007,70.007 0 0 0 -0.95508,1.57227 c -28.19608,47.796392 -70.41164,85.075501 -120.33789,113.146481 -18.66173,-14.103635 -37.48601,-27.042834 -55.70508,-39.148437 -67.22724,-44.668924 -127.21421,-82.050644 -163.41211,-130.132814 a 70.007,70.007 0 0 0 -2.21484,-2.79101 c -41.76381,-49.96541 -40.32532,-136.15589 2.27344,-185.70899 a 70.007,70.007 0 0 0 1.44336,-1.73437 c 35.44766,-44.02989 93.88766,-65.30629 153.1914,-65.35547 z"
       id="path4165-6-0-2-6"
       inkscape:connector-curvature="0" />
  </g>
</svg>
