<?xml version="1.0" encoding="UTF-8" standalone="no"?>
<!-- Created with Inkscape (http://www.inkscape.org/) -->

<svg
   xmlns:dc="http://purl.org/dc/elements/1.1/"
   xmlns:cc="http://creativecommons.org/ns#"
   xmlns:rdf="http://www.w3.org/1999/02/22-rdf-syntax-ns#"
   xmlns:svg="http://www.w3.org/2000/svg"
   xmlns="http://www.w3.org/2000/svg"
   xmlns:sodipodi="http://sodipodi.sourceforge.net/DTD/sodipodi-0.dtd"
   xmlns:inkscape="http://www.inkscape.org/namespaces/inkscape"
   width="2000"
   height="2048"
   id="svg2992"
   version="1.1"
   inkscape:version="0.91 r13725"
   sodipodi:docname="ശൃ.svg">
  <defs
     id="defs5498">
    <inkscape:path-effect
       effect="spiro"
       id="path-effect4504-9-5-0-9"
       is_visible="true" />
    <inkscape:path-effect
       effect="spiro"
       id="path-effect4504-9-5-0-9-1"
       is_visible="true" />
    <inkscape:path-effect
       effect="spiro"
       id="path-effect4504-9-5-0-9-2"
       is_visible="true" />
    <inkscape:path-effect
       effect="spiro"
       id="path-effect4504-9-5-0-9-2-1"
       is_visible="true" />
  </defs>
  <sodipodi:namedview
     inkscape:window-height="844"
     inkscape:window-width="1600"
     inkscape:pageshadow="2"
     inkscape:pageopacity="0.0"
     borderopacity="1.0"
     bordercolor="#666666"
     pagecolor="#ffffff"
     id="base"
     showgrid="true"
     showguides="true"
     inkscape:guide-bbox="true"
     inkscape:zoom="0.32102648"
     inkscape:cx="909.48272"
     inkscape:cy="-859.34842"
     inkscape:window-x="1596"
     inkscape:window-y="0"
     inkscape:current-layer="layer1"
     inkscape:window-maximized="1">
    <sodipodi:guide
       orientation="horizontal"
       position="0,600"
       id="guide5596" />
    <inkscape:grid
       type="xygrid"
       id="grid3769"
       empspacing="3"
       visible="true"
       enabled="true"
       snapvisiblegridlinesonly="true"
       spacingx="4px"
       units="px"
       dotted="true"
       spacingy="4px" />
    <sodipodi:guide
       orientation="0,1"
       position="-1040,1600"
       id="guide2985" />
  </sodipodi:namedview>
  <metadata
     id="metadata5594">
    <rdf:RDF>
      <cc:Work
         rdf:about="">
        <dc:format>image/svg+xml</dc:format>
        <dc:type
           rdf:resource="http://purl.org/dc/dcmitype/StillImage" />
        <dc:title />
      </cc:Work>
    </rdf:RDF>
  </metadata>
  <g
     inkscape:label="Layer 1"
     inkscape:groupmode="layer"
     id="layer1"
     transform="translate(0,1048)">
    <path
       style="fill:none;fill-rule:evenodd;stroke:#000000;stroke-width:140;stroke-linecap:round;stroke-linejoin:round;stroke-miterlimit:4;stroke-dasharray:none;stroke-opacity:1"
       d="m 414.84506,-590.0272 c -106.23332,54.95176 -192.24887,148.00187 -238.69743,258.21868 -59.98672,142.34121 -51.42314,312.190196 24.10865,446.92837 34.06979,60.77576 81.35667,114.67917 139.71913,152.73529 58.36245,38.05612 128.00026,59.75612 197.6288,57.2441 62.02215,-2.2376 123.16813,-23.77789 173.08198,-60.66097 49.91385,-36.88308 88.41699,-88.92223 109.37999,-147.33718 25.04182,-69.780868 24.98878,-145.733113 23.68331,-219.85975 -1.30547,-74.12663 -3.38212,-149.73525 18.00951,-220.72018 22.28994,-73.96584 70.08016,-139.68074 132.4768,-185.22682 62.3966,-45.54609 138.9321,-70.95091 216.1355,-73.67423 119.3571,-4.21028 237.9337,46.0756 324.3305,128.53425 86.3968,82.45865 141.3485,195.15906 162.3189,312.73491 19.8855,111.492879 8.6409,232.296968 -52.2461,327.78972 -30.4436,47.74637 -72.9657,88.18274 -123.606,113.52206 -50.6404,25.33932 -109.4307,35.11702 -165.0725,24.60455 -41.4871,-7.8382 -80.6729,-26.74391 -113.4557,-53.35032 -32.7829,-26.60642 -59.1946,-60.79508 -77.8364,-98.67776 -37.2837,-75.765341 -42.7521,-164.8537678 -24.6393,-247.33034 17.4508,-79.46212 56.447,-154.3406 112.9441,-212.87986 56.497,-58.53925 130.4851,-100.36115 210.1792,-116.71985 84.5542,-17.35632 174.2958,-5.78963 253.0454,29.5537 78.7496,35.34334 146.4233,93.93814 195.3653,165.03898 48.9421,71.10084 79.3486,154.397468 90.9689,239.928876 11.6203,85.531404 4.6891,173.214924 -17.0466,256.750624 -47.749,183.51138 -169.2862,346.85247 -331.7671,444.60902 -134.6514,81.01293 -294.5464,116.79975 -451.5382,109.89614 -65.7822,-2.89273 -134.1629,-14.21583 -187.1537,-53.3009 -26.49547,-19.54253 -48.38212,-45.93512 -60.00853,-76.73681 -11.62642,-30.80169 -12.45891,-66.07064 0.33646,-96.40538 11.78703,-27.94421 34.51834,-50.53813 61.15877,-65.03296 26.6404,-14.49484 57.0078,-21.26947 87.2987,-22.77756 50.345,-2.50652 100.6768,9.16679 147.3072,28.31137 46.6303,19.14458 89.8875,45.61544 131.7694,73.66558 65.3047,43.73736 127.8376,91.61255 187.0993,143.24307"
       id="path4502-2-0-5-0"
       inkscape:path-effect="#path-effect4504-9-5-0-9-2"
       inkscape:original-d="m 414.84506,-590.0272 c 0,0 -198.93217,147.95543 -238.69743,258.21868 -50.6139,140.34493 -51.82302,318.50389 24.10865,446.92837 67.41215,114.0153 204.99523,215.14157 337.34793,209.97939 C 654.4427,320.54216 762.4539,218.84992 820.06618,117.10109 892.75012,-11.26573 789.33603,-194.9646 861.759,-323.47884 c 71.06255,-126.10019 212.6102,-231.51965 348.6123,-258.90105 207.09,-29.74279 464.5097,223.41735 486.6494,441.26916 19.4573,191.45653 -148.927,478.99554 -340.9246,465.91633 -150.9825,-10.28519 -237.0342,-249.504572 -215.9314,-399.35842 21.4546,-152.35263 169.5844,-339.46999 323.1233,-329.59971 288.2128,18.52782 521.464,402.4657886 522.333,691.27218 0.5564,184.91554 -177.5221,342.61613 -331.7671,444.60902 -129.2126,85.44051 -301.517,148.49194 -451.5382,109.89614 -108.1327,-27.81922 -258.42914,-115.3937 -246.82577,-226.44309 5.97495,-57.18295 91.20587,-82.53422 148.45747,-87.81052 98.6236,-9.08914 192.2485,54.33122 279.0766,101.97695 68.8596,37.78579 105.3865,86.52863 187.0993,143.24307"
       inkscape:connector-curvature="0"
       sodipodi:nodetypes="caaaaacaaaaaaaaaac" />
    <path
       style="color:#000000;font-style:normal;font-variant:normal;font-weight:normal;font-stretch:normal;font-size:medium;line-height:normal;font-family:sans-serif;text-indent:0;text-align:start;text-decoration:none;text-decoration-line:none;text-decoration-style:solid;text-decoration-color:#000000;letter-spacing:normal;word-spacing:normal;text-transform:none;direction:ltr;block-progression:tb;writing-mode:lr-tb;baseline-shift:baseline;text-anchor:start;white-space:normal;clip-rule:nonzero;display:inline;overflow:visible;visibility:visible;opacity:1;isolation:auto;mix-blend-mode:normal;color-interpolation:sRGB;color-interpolation-filters:linearRGB;solid-color:#000000;solid-opacity:1;fill:#000000;fill-opacity:1;fill-rule:evenodd;stroke:none;stroke-width:140;stroke-linecap:round;stroke-linejoin:round;stroke-miterlimit:4;stroke-dasharray:none;stroke-dashoffset:0;stroke-opacity:1;color-rendering:auto;image-rendering:auto;shape-rendering:auto;text-rendering:auto;enable-background:accumulate"
       d="m 518.99023,1174.1465 a 70.007,70.007 0 0 0 -31.52734,8.2715 c -121.17961,62.6831 -218.05746,167.4854 -271.04101,293.209 -68.65171,162.9021 -59.1434,353.6844 27.55468,508.3418 38.94644,69.475 93.34072,132.0169 162.54492,177.1425 69.50454,45.3215 152.56214,71.6588 238.38672,68.5625 76.54131,-2.7614 150.74545,-28.9383 212.15821,-74.3183 61.38608,-45.3604 107.963,-108.3669 133.66601,-179.9903 30.50688,-85.0098 29.10488,-169.8014 27.78518,-244.7363 -1.3138,-74.5955 -2.0234,-142.6525 15.0449,-199.291 17.6193,-58.467 56.4784,-112.2078 106.7246,-148.8848 50.3915,-36.783 113.8275,-58.0158 177.332,-60.2558 66.3853,-2.3418 134.4779,16.4139 194.375,50.5 -77.7788,23.7914 -148.3014,67.6752 -204.4746,125.8789 -66.0331,68.42 -110.7843,154.6735 -130.9453,246.4765 -21.0112,95.6746 -15.4815,200.4148 30.2031,293.252 22.84,46.414 55.2501,88.6195 96.5313,122.123 41.3772,33.5816 90.8099,57.6239 144.5723,67.7813 72.2603,13.6523 145.8058,1.0292 209.3906,-30.7871 63.2679,-31.658 114.6095,-80.9359 151.3066,-138.4903 73.1745,-114.7638 84.3559,-253.1247 62.1348,-377.7128 -8.3088,-46.5855 -21.4744,-92.5413 -39.3242,-136.709 49.9112,29.9532 93.8913,71.5171 127.4297,120.2402 42.1419,61.2219 69.022,134.2644 79.2656,209.6621 10.2613,75.5283 4.2152,154.2084 -15.4278,229.7012 -43.0087,165.2936 -153.9305,314.3055 -300.1093,402.2539 -11.5425,6.9445 -23.3791,13.4121 -35.3516,19.6367 -51.3982,-42.7564 -104.8874,-82.9916 -160.4394,-120.1973 -43.4799,-29.1203 -90.6031,-58.2817 -144.1348,-80.2597 -53.7535,-22.0691 -113.9355,-36.6272 -177.375,-33.4688 -38.3686,1.9103 -79.0597,10.4112 -117.2734,31.2031 -38.7815,21.1006 -73.1385,54.1258 -92.19926,99.3145 -20.76894,49.2384 -18.80103,102.0464 -1.33008,148.332 17.21074,45.5962 48.04264,81.8671 83.94724,108.3496 70.9443,52.3273 153.9642,63.7491 225.6289,66.9004 169.6829,7.4617 342.8771,-30.9094 490.7012,-119.8476 178.783,-107.5646 310.9346,-285.2337 363.4238,-486.9629 23.8285,-91.5786 31.6454,-188.2682 18.666,-283.8027 -12.997,-95.6651 -46.9296,-189.2156 -102.6718,-270.1954 -55.8456,-81.1299 -132.9136,-148.1677 -224.3633,-189.2109 -43.0537,-19.3228 -88.8423,-32.4962 -135.6563,-39 -8.4821,-9.237 -17.1772,-18.3082 -26.3066,-27.0215 l -0,0 c -99.2554,-94.7307 -234.5136,-152.8136 -375.1269,-147.8535 -90.9022,3.2065 -180.5377,32.7826 -254.9395,87.0918 -74.54713,54.4153 -131.26788,132.1036 -158.22848,221.5684 -25.71498,85.3313 -22.27183,168.4925 -20.9746,242.1504 1.29123,73.3182 -0.003,140.4304 -19.58008,194.9824 -16.22299,45.2066 -46.65409,86.2777 -85.09571,114.6836 -38.41496,28.3861 -86.50285,45.292 -134.00585,47.0058 -53.43251,1.9277 -109.64878,-15.135 -156.86915,-45.9258 -47.52071,-30.9865 -87.70138,-76.2535 -116.89453,-128.33 -64.36549,-114.8191 -71.98385,-263.7335 -20.66211,-385.5137 39.91357,-94.71 115.06454,-176.0081 206.35157,-223.2285 a 70.007,70.007 0 0 0 -32.79493,-132.6211 z m 1125.18947,318.4941 c 44.6563,62.0179 74.9809,136.1902 88.709,213.1602 17.5499,98.3977 6.2421,201.6436 -42.3575,277.8652 -24.1898,37.9384 -57.8935,69.5339 -95.9062,88.5547 -37.696,18.8622 -81.7307,25.7946 -120.7539,18.4219 -29.2119,-5.519 -58.1514,-19.2887 -82.3399,-38.9199 -24.2846,-19.7093 -44.697,-45.8811 -59.1406,-75.2325 -28.8827,-58.6934 -34.2905,-132.1296 -19.0761,-201.4082 14.7405,-67.1211 47.9823,-130.6246 94.9433,-179.2832 46.8592,-48.5529 108.8508,-83.4123 173.8848,-96.7617 20.2546,-4.1576 41.0731,-6.2213 62.0371,-6.3965 z m -417.8594,939.0606 c 33.2438,0.6613 68.56,9.1628 103.1289,23.3554 39.7289,16.3112 79.1184,40.0924 119.4024,67.0723 29.2691,19.6029 57.8972,40.1565 85.9629,61.4512 -72.8968,18.4211 -149.0689,26.0558 -224.6446,22.7324 -59.8997,-2.634 -113.6404,-13.8602 -148.6777,-39.7031 -17.0862,-12.6025 -30.0264,-29.1161 -36.0684,-45.1231 -5.7818,-15.3178 -5.4779,-33.0474 -0.6562,-44.4785 4.5132,-10.6997 15.6157,-22.8629 30.1152,-30.7519 15.067,-8.1979 35.1111,-13.2457 57.3242,-14.3516 4.6563,-0.2318 9.3642,-0.2976 14.1133,-0.2031 z"
       id="path4502-2-0-5-0-2"
       inkscape:connector-curvature="0" />
  </g>
</svg>
