<?xml version="1.0" encoding="UTF-8" standalone="no"?>
<!-- Created with Inkscape (http://www.inkscape.org/) -->

<svg
   xmlns:dc="http://purl.org/dc/elements/1.1/"
   xmlns:cc="http://creativecommons.org/ns#"
   xmlns:rdf="http://www.w3.org/1999/02/22-rdf-syntax-ns#"
   xmlns:svg="http://www.w3.org/2000/svg"
   xmlns="http://www.w3.org/2000/svg"
   xmlns:sodipodi="http://sodipodi.sourceforge.net/DTD/sodipodi-0.dtd"
   xmlns:inkscape="http://www.inkscape.org/namespaces/inkscape"
   width="2000"
   height="2048"
   id="svg2992"
   version="1.1"
   inkscape:version="0.91pre2 r13516"
   sodipodi:docname="ശ്ര.svg">
  <defs
     id="defs5498">
    <inkscape:path-effect
       is_visible="true"
       id="path-effect4504"
       effect="spiro" />
    <inkscape:path-effect
       is_visible="true"
       id="path-effect4504-9"
       effect="spiro" />
    <inkscape:path-effect
       is_visible="true"
       id="path-effect4504-9-7"
       effect="spiro" />
  </defs>
  <sodipodi:namedview
     inkscape:window-height="853"
     inkscape:window-width="1600"
     inkscape:pageshadow="2"
     inkscape:pageopacity="0.0"
     borderopacity="1.0"
     bordercolor="#666666"
     pagecolor="#ffffff"
     id="base"
     showgrid="true"
     showguides="true"
     inkscape:guide-bbox="true"
     inkscape:zoom="0.227"
     inkscape:cx="1007.7947"
     inkscape:cy="170.77212"
     inkscape:window-x="1598"
     inkscape:window-y="-3"
     inkscape:current-layer="layer1-9"
     inkscape:window-maximized="1">
    <sodipodi:guide
       orientation="horizontal"
       position="0,600"
       id="guide5596" />
    <inkscape:grid
       type="xygrid"
       id="grid3769"
       empspacing="3"
       visible="true"
       enabled="true"
       snapvisiblegridlinesonly="true"
       spacingx="4px"
       units="px"
       dotted="true"
       spacingy="4px" />
    <sodipodi:guide
       orientation="0,1"
       position="-1040,1600"
       id="guide2985" />
  </sodipodi:namedview>
  <metadata
     id="metadata5594">
    <rdf:RDF>
      <cc:Work
         rdf:about="">
        <dc:format>image/svg+xml</dc:format>
        <dc:type
           rdf:resource="http://purl.org/dc/dcmitype/StillImage" />
        <dc:title />
      </cc:Work>
    </rdf:RDF>
  </metadata>
  <g
     inkscape:label="Layer 1"
     inkscape:groupmode="layer"
     id="layer1"
     transform="translate(0,1048)">
    <g
       id="layer1-9"
       inkscape:label="Layer 1"
       transform="translate(-1168.8033,138.69548)">
      <path
         style="color:#000000;font-style:normal;font-variant:normal;font-weight:normal;font-stretch:normal;font-size:medium;line-height:normal;font-family:sans-serif;text-indent:0;text-align:start;text-decoration:none;text-decoration-line:none;text-decoration-style:solid;text-decoration-color:#000000;letter-spacing:normal;word-spacing:normal;text-transform:none;direction:ltr;block-progression:tb;writing-mode:lr-tb;baseline-shift:baseline;text-anchor:start;clip-rule:nonzero;display:inline;overflow:visible;visibility:visible;opacity:1;isolation:auto;mix-blend-mode:normal;color-interpolation:sRGB;color-interpolation-filters:linearRGB;solid-color:#000000;solid-opacity:1;fill:#000000;fill-opacity:1;fill-rule:evenodd;stroke:none;stroke-width:140;stroke-linecap:round;stroke-linejoin:round;stroke-miterlimit:4;stroke-dasharray:none;stroke-dashoffset:0;stroke-opacity:1;color-rendering:auto;image-rendering:auto;shape-rendering:auto;text-rendering:auto;enable-background:accumulate"
         d="m 1124.2695,-793.42773 a 70.007,70.007 0 0 0 -58.9394,28.03906 C 964.21739,-634.0121 899.34795,-476.049 878.94727,-311.52734 c -20.40068,164.52167 3.92244,333.544818 69.88476,485.63867 111.15267,256.29243 333.39567,449.1841 585.43747,555.59765 251.1544,106.03889 527.5661,129.82233 792.9746,105.29883 246.0432,-22.73415 502.6041,-90.43124 700.9102,-257.60156 87.7062,-73.93558 161.7118,-166.19064 210.1641,-272.77148 48.5489,-106.79377 70.41,-226.822257 55.914,-345.580082 -16.6027,-136.017518 -80.1506,-262.417368 -173.3008,-360.099608 -17.3343,-18.17771 -35.7476,-35.40108 -55.1113,-51.54688 -12.83,-23.88436 -27.4565,-46.81197 -43.8457,-68.4707 -55.8291,-73.77964 -130.3516,-131.81867 -214.5215,-168.82617 -84.1175,-36.98447 -176.4542,-52.42996 -267.5488,-46.14453 -182.8601,12.61718 -351.2926,113.28732 -455.4727,261.51367 -82.1544,116.88842 -118.8565,246.49146 -169.8359,355.16211 -25.4515,54.254196 -54.4707,104.250475 -90.2832,145.001951 -35.558,40.461927 -78.9017,72.150357 -124.7871,87.419919 -37.9031,12.61325 -80.4449,14.96355 -120.7578,7.07227 -40.4206,-7.91238 -79.8221,-26.199961 -113.3281,-52.064454 -66.8359,-51.59297 -111.5332,-135.979349 -123.6192,-223.878906 -14.4742,-105.2689 16.5237,-218.64859 82.543,-301.91016 66.0193,-83.26159 169.3478,-139.28898 275.1445,-149.19336 a 70.007,70.007 0 1 0 -13.0488,-139.39062 c -145.2001,13.59321 -281.1871,87.32961 -371.7949,201.60156 -90.6079,114.27196 -131.4041,263.48717 -111.5391,407.96289 16.6699,121.237677 76.4933,238.22713 176.7656,315.63086 50.048,38.63387 108.8166,66.26998 171.9824,78.63477 63.2736,12.38585 129.608,9.0882 191.8575,-11.62696 75.0272,-24.96727 137.1818,-72.58016 185.7441,-127.83984 48.3079,-54.97013 83.1977,-116.8471713 111.8672,-177.960938 57.263,-122.065292 93.2308,-242.494182 157.6289,-334.119142 80.0875,-113.94773 213.7381,-192.90636 350.5703,-202.34765 34.7344,-2.39664 69.8449,-0.52198 104.1602,5.4375 -24.7416,1.87347 -49.4315,5.5026 -73.8692,11.01367 -99.3984,22.41591 -191.9077,75.49748 -259.1445,154.54297 -67.4683,79.31781 -106.4483,182.03566 -103.791,287.97851 2.6957,107.472701 48.1937,210.087345 123.459,285.44336 75.1082,75.19874 176.0787,119.94059 281.0683,127.63477 94.836,6.95006 189.9682,-16.2804 271.127,-64.73828 81.0883,-48.41574 145.9978,-120.552785 186.5566,-205.212895 22.7667,-47.521978 37.5699,-98.31087 44.3047,-150.121095 15.881,38.80615 26.8396,79.346115 31.8516,120.406251 11.0396,90.442103 -5.7221,185.613619 -44.3926,270.677739 -38.7674,85.27704 -99.5208,161.76672 -172.9512,223.66796 -166.6545,140.4883 -394.2879,204.05212 -623.5566,225.23633 -248.1913,22.93264 -501.6213,-0.28763 -725.6387,-94.86914 -223.1301,-94.20684 -417.3789,-265.41523 -511.4512,-482.32422 -55.8461,-128.768265 -76.6606,-273.4169 -59.3886,-412.70703 17.2719,-139.29012 72.7849,-274.47489 158.3906,-385.70312 a 70.007,70.007 0 0 0 -52.0059,-113.42578 z m 1568.4551,341.08203 c 46.3228,-0.0504 93.1929,8.01001 137.3828,23.4707 43.9606,15.38046 85.8043,38.12027 123.9434,66.45312 16.0392,35.59145 26.8722,73.4653 31.2383,111.82422 7.5768,66.56882 -3.7392,135.93612 -32.4395,195.843754 -28.6678,59.8395699 -75.5864,111.774139 -132.0684,145.498047 -56.4112,33.681759 -124.1632,50.077139 -189.125,45.316409 -71.488,-5.23901 -142.3065,-36.945615 -192.246,-86.945316 -49.7824,-49.84242722 -80.8173,-120.595103 -82.5586,-190.017574 -1.7211,-68.61641 24.8075,-140.07212 70.4746,-193.75977 45.8988,-53.95997 112.3667,-92.684 183.3047,-108.68164 26.7033,-6.02202 54.3,-8.9717 82.0937,-9.00195 z"
         id="path4502-2"
         inkscape:connector-curvature="0" />
      <path
         sodipodi:nodetypes="cssssscssssc"
         inkscape:connector-curvature="0"
         inkscape:original-d="m 1651.1502,955.46452 c -66.2368,27.9462 -602.0563,196.74968 -420.5096,530.33428 181.5479,333.5842 232.3301,431.5762 449.155,325.7552 565.7073,-276.0924 -262.8581,-251.0975 420.0722,-613.7522 995.1029,-528.42678 1091.1029,239.5733 484.8399,640.1412 -228.8686,151.2172 -381.5861,-227.8405 -339.6664,-345.0199 225.9294,-631.54808 783.3997,-213.5894 783.3997,-213.5894 0,0 106.475,80.2739 154.475,320.2739 48,240 -97.7112,220.3482 -241.7112,556.3481 -144,336.0001 249.7659,481.4194 -662.2341,241.4194 -912,-240.0001 -1259.7504,-283.0449 -1307.75039,-619.0449 -48,-336 107.75039,-868.95518 107.75039,-868.95518"
         inkscape:path-effect="#path-effect4504-9-7"
         id="path4502-2-8"
         d="m 1651.1502,955.46452 c -125.4984,11.74878 -245.1549,76.63158 -323.4685,175.39838 -78.3136,98.7668 -114.2107,230.0636 -97.0411,354.9359 14.3779,104.5686 66.6377,205.2564 150.1918,269.7547 41.777,32.2492 90.8619,55.212 142.6551,65.3505 51.7933,10.1386 106.2318,7.3142 156.3081,-9.35 60.4563,-20.1184 113.2054,-59.7694 155.2656,-107.6302 42.0602,-47.8608 74.0143,-103.7973 101.0748,-161.4813 54.1212,-115.368 90.4555,-240.384 163.7318,-344.6407 92.1338,-131.087 243.1754,-220.90147 403.0216,-231.9307 79.9231,-5.51462 161.219,8.14555 234.5565,40.3903 73.3375,32.2448 138.5349,83.1015 186.8763,146.9859 48.3415,63.8844 79.6254,140.7097 88.6855,220.3088 9.06,79.5992 -4.2482,161.7553 -38.8614,234.0051 -34.6132,72.2498 -90.5278,134.2856 -159.3129,175.3554 -68.785,41.0698 -150.2268,60.8818 -230.1257,55.0264 -88.2388,-6.4666 -174.1335,-44.6898 -236.6573,-107.289 -62.5239,-62.5992 -100.7906,-149.2833 -103.0091,-237.7309 -2.1892,-87.2796 30.5647,-174.3659 87.1325,-240.8686 56.5678,-66.5028 136.0573,-112.4057 221.2255,-131.6125 85.1683,-19.2068 175.5833,-12.1526 257.9921,16.6798 82.4089,28.8323 156.7973,79.0282 217.0496,142.2119 83.212,87.2605 139.8655,200.586 154.475,320.2739 12.7678,104.6 -6.5439,212.1998 -50.1537,308.1288 -43.6097,95.9289 -110.9892,180.3009 -191.5575,248.2193 -182.4803,153.8293 -424.5782,219.4602 -662.2341,241.4194 -256.7999,23.7281 -521.7209,0.2266 -759.3069,-100.0836 -237.5859,-100.3102 -445.831,-282.3606 -548.44349,-518.9613 -60.90423,-140.4311 -83.47328,-297.2672 -64.63696,-449.1731 18.83633,-151.9059 79.02818,-298.4797 172.38735,-419.78208"
         style="fill:none;fill-rule:evenodd;stroke:#000000;stroke-width:140;stroke-linecap:round;stroke-linejoin:round;stroke-miterlimit:4;stroke-dasharray:none;stroke-opacity:1" />
    </g>
  </g>
</svg>
