<?xml version="1.0" encoding="UTF-8" standalone="no"?>
<!-- Created with Inkscape (http://www.inkscape.org/) -->

<svg
   xmlns:dc="http://purl.org/dc/elements/1.1/"
   xmlns:cc="http://creativecommons.org/ns#"
   xmlns:rdf="http://www.w3.org/1999/02/22-rdf-syntax-ns#"
   xmlns:svg="http://www.w3.org/2000/svg"
   xmlns="http://www.w3.org/2000/svg"
   xmlns:sodipodi="http://sodipodi.sourceforge.net/DTD/sodipodi-0.dtd"
   xmlns:inkscape="http://www.inkscape.org/namespaces/inkscape"
   width="4000"
   height="2048"
   id="svg2992"
   version="1.1"
   inkscape:version="0.91pre3 r13670"
   sodipodi:docname="ഷ.svg">
  <defs
     id="defs5498">
    <inkscape:path-effect
       effect="spiro"
       id="path-effect4141"
       is_visible="true" />
    <inkscape:path-effect
       effect="spiro"
       id="path-effect4141-3"
       is_visible="true" />
    <inkscape:path-effect
       effect="spiro"
       id="path-effect4141-3-6"
       is_visible="true" />
    <inkscape:path-effect
       effect="spiro"
       id="path-effect4141-3-4"
       is_visible="true" />
  </defs>
  <sodipodi:namedview
     inkscape:window-height="853"
     inkscape:window-width="1600"
     inkscape:pageshadow="2"
     inkscape:pageopacity="0.0"
     borderopacity="1.0"
     bordercolor="#666666"
     pagecolor="#ffffff"
     id="base"
     showgrid="true"
     showguides="true"
     inkscape:guide-bbox="true"
     inkscape:zoom="0.32102648"
     inkscape:cx="279.30745"
     inkscape:cy="1020.1824"
     inkscape:window-x="1598"
     inkscape:window-y="-3"
     inkscape:current-layer="layer1"
     inkscape:window-maximized="1">
    <sodipodi:guide
       orientation="horizontal"
       position="0,600"
       id="guide5596" />
    <inkscape:grid
       type="xygrid"
       id="grid3769"
       empspacing="3"
       visible="true"
       enabled="true"
       snapvisiblegridlinesonly="true"
       spacingx="4px"
       units="px"
       dotted="true"
       spacingy="4px" />
    <sodipodi:guide
       orientation="0,1"
       position="-1040,1600"
       id="guide2985" />
    <sodipodi:guide
       orientation="1,0"
       position="100,2496"
       id="guide7215"
       inkscape:label=""
       inkscape:color="rgb(0,0,255)" />
  </sodipodi:namedview>
  <metadata
     id="metadata5594">
    <rdf:RDF>
      <cc:Work
         rdf:about="">
        <dc:format>image/svg+xml</dc:format>
        <dc:type
           rdf:resource="http://purl.org/dc/dcmitype/StillImage" />
        <dc:title />
      </cc:Work>
    </rdf:RDF>
  </metadata>
  <g
     inkscape:label="Layer 1"
     inkscape:groupmode="layer"
     id="layer1"
     transform="translate(0,1048)">
    <path
       style="color:#000000;font-style:normal;font-variant:normal;font-weight:normal;font-stretch:normal;font-size:medium;line-height:normal;font-family:sans-serif;text-indent:0;text-align:start;text-decoration:none;text-decoration-line:none;text-decoration-style:solid;text-decoration-color:#000000;letter-spacing:normal;word-spacing:normal;text-transform:none;direction:ltr;block-progression:tb;writing-mode:lr-tb;baseline-shift:baseline;text-anchor:start;white-space:normal;clip-rule:nonzero;display:inline;overflow:visible;visibility:visible;opacity:1;isolation:auto;mix-blend-mode:normal;color-interpolation:sRGB;color-interpolation-filters:linearRGB;solid-color:#000000;solid-opacity:1;fill:#000000;fill-opacity:1;fill-rule:evenodd;stroke:none;stroke-width:140;stroke-linecap:round;stroke-linejoin:round;stroke-miterlimit:4;stroke-dasharray:none;stroke-dashoffset:0;stroke-opacity:1;color-rendering:auto;image-rendering:auto;shape-rendering:auto;text-rendering:auto;enable-background:accumulate"
       d="m 1194.832,-607.61523 c -66.9799,0.35424 -133.5105,20.52239 -189.3359,60.30273 -69.04366,49.19951 -116.66295,125.3085 -127.41798,211.02148 -8.87744,70.74953 8.137,141.00056 43.23047,200.18164 34.90311,58.860129 86.11971,104.730804 144.24411,135.73438 88.342,47.121627 186.9981,58.066396 280.9727,46.923828 l -1.7383,214.617192 -588.01171,0 c 3.734,-6.26418 7.33345,-12.62126 10.65625,-19.14844 34.82244,-68.40383 44.76645,-147.255964 28.01953,-222.164064 -16.74693,-74.90811 -59.32416,-142.015766 -119.96094,-189.078126 -60.63677,-47.06235 -136.2127,-71.65544 -212.93359,-69.29101 -75.02853,2.31226 -147.41884,30.28099 -204.50976,79.01757 -57.09093,48.73658 -96.07268,115.841783 -110.12891,189.578128 -14.05622,73.736352 -2.49351,150.477092 32.66406,216.798832 35.15757,66.32172 92.17955,118.96071 161.0957,148.71289 A 70.007,70.007 0 1 0 397.16797,267.05859 C 358.25892,250.26095 324.12484,218.75092 304.27539,181.30664 284.42594,143.86236 277.50547,97.927344 285.44141,56.296875 c 7.93594,-41.630477 31.2712,-81.800448 63.5039,-109.316406 32.2327,-27.515956 75.56382,-44.258981 117.92383,-45.564453 43.27631,-1.333714 88.57952,13.408389 122.7832,39.955078 34.20369,26.546693 59.72535,66.7755164 69.17188,109.029297 9.44652,42.253788 3.48425,89.518649 -16.1582,128.103519 -19.64245,38.58486 -54.35204,71.2151 -94.07618,88.4375 a 70.007,70.007 0 0 0 27.84375,134.22461 l 1296.00001,0 a 70.007,70.007 0 0 0 70,-70 l 0,-866 A 70.007,70.007 0 0 0 1803.5,-547.01367 c -20.2138,114.40314 -78.0704,223.17364 -161.6387,303.87695 -44.7472,43.21324 -97.1806,78.81688 -153.834,105.00977 l 1.1446,-141.16993 c 0.2436,-30.05985 0.4958,-64.34724 -6.5332,-101.70703 -7.0424,-37.43012 -21.0943,-74.75326 -44.2657,-108.26562 -23.142,-33.47 -53.6171,-60.62177 -88.457,-80.125 -34.6377,-19.39003 -71.8839,-30.42602 -108.7676,-35.29688 -15.3787,-2.03091 -30.8595,-3.00557 -46.3164,-2.92382 z m 10.0782,140.22265 c 6.0057,0.21662 11.9867,0.71386 17.9101,1.4961 21.6147,2.85444 41.8608,9.23144 58.7109,18.66406 16.648,9.31943 31.2716,22.5195 41.6876,37.58398 10.3866,15.02215 17.9659,33.97254 21.8339,54.53125 3.8812,20.62903 4.3577,45.74107 4.1231,74.68555 l -1.502,185.425781 c -76.7486,11.782852 -154.3798,4.097662 -216.2324,-28.894531 -37.3783,-19.93759 -69.4083,-49.37587 -89.7129,-83.61719 -20.1142,-33.92035 -29.3387,-74.69408 -24.7402,-111.3418 5.4961,-43.80167 32.4953,-87.88954 69.7539,-114.43945 32.8949,-23.44039 76.1281,-35.61007 118.168,-34.09375 z m 597.5234,254.58399 0,473.97461 -317.6426,0 2.0098,-247.785161 c 93.9785,-33.213089 180.493,-86.453211 252.3144,-155.812499 22.7644,-21.98389 43.8399,-45.57286 63.3184,-70.37695 z"
       id="path4139-3"
       inkscape:connector-curvature="0" />
    <path
       style="fill:none;fill-rule:evenodd;stroke:#000000;stroke-width:140;stroke-linecap:round;stroke-linejoin:round;stroke-miterlimit:4;stroke-dasharray:none;stroke-opacity:1"
       d="m 361.642,1496.3385 c -53.9126,-23.2749 -99.49125,-65.3501 -126.99476,-117.2331 -27.50351,-51.883 -36.74475,-113.2209 -25.74867,-170.9043 10.99608,-57.6834 42.15468,-111.3199 86.81649,-149.4462 44.66181,-38.1262 102.52298,-60.48288 161.21725,-62.29176 59.99861,-1.84907 120.43749,17.81846 167.85772,54.62306 47.42024,36.8045 81.46992,90.4728 94.56665,149.0538 13.09673,58.5809 5.14331,121.6398 -22.08914,175.1341 -27.23246,53.4944 -73.54184,97.0272 -128.61569,120.9045 l 1296.00005,0 0,-866.00009 c -22.8437,129.28752 -87.5044,250.84735 -181.9453,342.05055 -76.717,74.08704 -172.6484,128.11304 -275.7831,155.27214 -104.671,27.5637 -220.7052,26.3151 -316.2079,-24.6261 -47.7514,-25.4705 -89.3747,-63.1248 -116.97856,-109.67553 -27.60387,-46.55073 -40.72375,-102.06306 -33.98579,-155.7617 8.12558,-64.75735 45.43535,-124.8561 98.58655,-162.73082 53.1511,-37.87471 121.1621,-53.53332 185.8655,-44.98857 29.2492,3.86266 57.9948,12.56956 83.7387,26.98089 25.7439,14.41133 48.2935,34.58714 65.0725,58.85439 16.779,24.26724 27.5949,52.40474 33.0501,81.39916 5.4551,28.99441 5.567,58.69403 5.3279,88.1962 l -4.9355,608.99438"
       id="path4139-3-0"
       inkscape:path-effect="#path-effect4141-3-4"
       inkscape:original-d="M 361.642,1496.3385 C 43.976163,1414.4463 287.32786,999.14153 456.93231,996.46314 627.59485,993.76805 568.65185,1496.1786 568.65185,1496.1786 l 1296.00005,0 0,-866.00009 c 0,0 -91.7259,249.64634 -181.9453,342.05055 -73.6996,75.48434 -170.3108,157.53234 -275.7831,155.27214 -183.2569,-3.9272 -460.29125,-106.8936 -467.17225,-290.06333 -4.4075,-117.32454 168.43085,-225.70744 284.45205,-207.71939 104.3129,16.17278 188.9288,40.77517 187.1892,255.43064 l -4.9355,608.99438"
       inkscape:connector-curvature="0"
       sodipodi:nodetypes="cacccaaaasc" />
  </g>
</svg>
