<?xml version="1.0" encoding="UTF-8" standalone="no"?>
<!-- Created with Inkscape (http://www.inkscape.org/) -->

<svg
   xmlns:dc="http://purl.org/dc/elements/1.1/"
   xmlns:cc="http://creativecommons.org/ns#"
   xmlns:rdf="http://www.w3.org/1999/02/22-rdf-syntax-ns#"
   xmlns:svg="http://www.w3.org/2000/svg"
   xmlns="http://www.w3.org/2000/svg"
   xmlns:sodipodi="http://sodipodi.sourceforge.net/DTD/sodipodi-0.dtd"
   xmlns:inkscape="http://www.inkscape.org/namespaces/inkscape"
   width="2000"
   height="2048"
   id="svg2992"
   version="1.1"
   inkscape:version="0.91pre3 r13670"
   sodipodi:docname="സ.svg">
  <defs
     id="defs5498">
    <inkscape:path-effect
       effect="spiro"
       id="path-effect3846"
       is_visible="true" />
    <inkscape:path-effect
       effect="spiro"
       id="path-effect3801"
       is_visible="true" />
    <inkscape:path-effect
       effect="spiro"
       id="path-effect4372-52"
       is_visible="true" />
    <inkscape:path-effect
       effect="spiro"
       id="path-effect4372-52-8"
       is_visible="true" />
    <inkscape:path-effect
       effect="spiro"
       id="path-effect4372-52-3"
       is_visible="true" />
    <inkscape:path-effect
       effect="spiro"
       id="path-effect4372-52-4"
       is_visible="true" />
    <inkscape:path-effect
       effect="spiro"
       id="path-effect4372-52-4-6"
       is_visible="true" />
    <inkscape:path-effect
       effect="spiro"
       id="path-effect4372-52-4-6-8"
       is_visible="true" />
  </defs>
  <sodipodi:namedview
     inkscape:window-height="853"
     inkscape:window-width="1600"
     inkscape:pageshadow="2"
     inkscape:pageopacity="0.0"
     borderopacity="1.0"
     bordercolor="#666666"
     pagecolor="#ffffff"
     id="base"
     showgrid="true"
     showguides="true"
     inkscape:guide-bbox="true"
     inkscape:zoom="0.32"
     inkscape:cx="1121.9592"
     inkscape:cy="765.3703"
     inkscape:window-x="1598"
     inkscape:window-y="-3"
     inkscape:current-layer="layer1"
     inkscape:window-maximized="1">
    <sodipodi:guide
       orientation="horizontal"
       position="0,600"
       id="guide5596" />
    <inkscape:grid
       type="xygrid"
       id="grid3769"
       empspacing="3"
       visible="true"
       enabled="true"
       snapvisiblegridlinesonly="true"
       spacingx="4px"
       units="px"
       dotted="true"
       spacingy="4px" />
    <sodipodi:guide
       orientation="0,1"
       position="-1040,1600"
       id="guide2985" />
  </sodipodi:namedview>
  <metadata
     id="metadata5594">
    <rdf:RDF>
      <cc:Work
         rdf:about="">
        <dc:format>image/svg+xml</dc:format>
        <dc:type
           rdf:resource="http://purl.org/dc/dcmitype/StillImage" />
        <dc:title />
      </cc:Work>
    </rdf:RDF>
  </metadata>
  <g
     inkscape:label="Layer 1"
     inkscape:groupmode="layer"
     id="layer1"
     transform="translate(0,1048)">
    <path
       style="color:#000000;font-style:normal;font-variant:normal;font-weight:normal;font-stretch:normal;font-size:medium;line-height:normal;font-family:sans-serif;text-indent:0;text-align:start;text-decoration:none;text-decoration-line:none;text-decoration-style:solid;text-decoration-color:#000000;letter-spacing:normal;word-spacing:normal;text-transform:none;direction:ltr;block-progression:tb;writing-mode:lr-tb;baseline-shift:baseline;text-anchor:start;white-space:normal;clip-rule:nonzero;display:inline;overflow:visible;visibility:visible;opacity:1;isolation:auto;mix-blend-mode:normal;color-interpolation:sRGB;color-interpolation-filters:linearRGB;solid-color:#000000;solid-opacity:1;fill:#000000;fill-opacity:1;fill-rule:evenodd;stroke:none;stroke-width:140;stroke-linecap:round;stroke-linejoin:round;stroke-miterlimit:4;stroke-dasharray:none;stroke-dashoffset:0;stroke-opacity:1;color-rendering:auto;image-rendering:auto;shape-rendering:auto;text-rendering:auto;enable-background:accumulate"
       d="m 1370.9941,-610 c -5.9118,0.001 -11.8274,0.12901 -17.7441,0.38281 -67.205,2.88281 -133.2985,21.99358 -191.6797,56.20117 -58.4398,34.242 -107.1811,82.55197 -142.6933,139.25586 -7.3384,11.71739 -13.9106,23.74632 -20.04106,35.92969 -16.76479,-25.21857 -35.71195,-49.07613 -56.98242,-70.99609 C 840.023,-554.16643 694.29137,-610.39322 548.36523,-601.04492 417.46866,-592.65945 293.00429,-532.19437 205.50586,-434.47656 118.00713,-336.75842 71.601363,-206.3936 77.679688,-75.365234 83.799071,56.548252 142.83814,182.84224 240.12695,272.13672 337.41576,361.43119 468.29653,409.45186 600.25,404.26562 A 70.007,70.007 0 1 0 594.75195,264.37305 C 501.00302,268.05771 403.91372,232.43515 334.79297,168.99414 265.67222,105.55312 221.87693,11.867018 217.5293,-81.853516 c -4.31934,-93.110454 30.09542,-189.790144 92.27539,-259.232424 62.18029,-69.44263 154.48743,-114.28679 247.51172,-120.24609 103.34608,-6.62054 211.94724,35.28229 284.06445,109.60156 57.9325,59.70144 94.18253,142.3102 101.18555,225.94141 -0.71059,24.80296 -0.80428,49.169897 -0.68946,72.714841 l 1.89844,389.308599 0,0.041 a 70.007,70.007 0 0 0 139.99801,-0.64258 l 0,-0.0391 -0,-0.28906 -1.6797,-391.449221 c 2.1015,-24.888486 2.3422,-49.807449 0.7012,-74.550779 1.0385,-27.21416 3.1067,-53.42507 7.2734,-78.34571 7.9544,-47.57439 23.6179,-92.73944 47.4609,-130.81054 23.8076,-38.01445 56.8313,-70.51346 94.8184,-92.77149 38.0459,-22.29243 82.4515,-35.21621 126.9043,-37.12304 62.2266,-2.66926 126.6366,16.81772 176.1152,53.67187 49.3859,36.7851 86.1431,92.84804 99.4825,152.36719 11.521,51.40628 7.3393,112.52377 2.9609,180.382811 -4.4002,68.196659 -8.6294,146.094426 17.3047,225.476559 18.3534,56.17856 50.455,106.42534 91.873,147.09571 41.3551,40.60855 91.1576,70.93483 144.7188,90.13867 107.2983,38.47079 224.303,30.62364 326.4355,-10.12891 92.2307,-36.80155 172.8814,-100.0762 230.1328,-181.60351 57.277,-81.56363 89.6262,-179.3672699 91.5157,-279.333988 2.4637,-130.353912 -47.4868,-258.559692 -137.4903,-352.886722 -90.0034,-94.32706 -215.7266,-150.23417 -346.0527,-153.88476 a 70.007,70.007 0 1 0 -3.9199,139.94531 c 92.1609,2.58154 185.037,43.88196 248.6836,110.58594 63.6465,66.70399 100.5469,161.41503 98.8047,253.595701 -1.3454,71.180592 -25.0161,142.998057 -66.1133,201.521489 -41.1228,58.55974 -100.6874,105.39179 -167.4453,132.02929 -73.2062,29.21045 -156.8946,33.61848 -227.3008,8.375 -35.2912,-12.6533 -67.8846,-32.72099 -93.8789,-58.24609 -25.9314,-25.46329 -45.9256,-57.13437 -56.8848,-90.679689 -15.6771,-47.986409 -14.9012,-107.4656714 -10.6738,-172.984375 4.2492,-65.856326 11.7237,-140.671986 -6.0586,-220.015626 -21.0039,-93.71755 -75.9078,-177.00331 -152.4629,-234.02539 -71.6835,-53.39348 -159.3236,-81.67052 -248.002,-81.65039 z"
       id="path4370-92-6-1"
       inkscape:connector-curvature="0" />
    <path
       style="fill:none;fill-rule:evenodd;stroke:#000000;stroke-width:140;stroke-linecap:round;stroke-linejoin:round;stroke-miterlimit:4;stroke-dasharray:none;stroke-opacity:1"
       d="M 588.8764,1470.5689 C 476.0252,1475.0044 362.03967,1433.1834 278.8349,1356.8157 195.63012,1280.448 144.21275,1170.4573 138.97924,1057.6403 133.78042,945.57089 174.19091,832.04832 249.03027,748.46812 323.86963,664.88791 432.25537,612.23388 544.2158,605.06149 c 124.63611,-7.98442 251.80316,41.08025 338.77702,130.70982 86.97386,89.62956 132.19258,218.21441 120.46418,342.55409 l 1.6923,393.859 -1.8986,-389.3498 c -0.2725,-55.8796 -0.066,-112.0536 9.1492,-167.16878 9.2152,-55.11518 27.5172,-109.06279 57.1771,-156.42197 29.6599,-47.35917 70.5425,-87.76323 118.756,-116.01324 48.2135,-28.25001 103.4622,-44.26715 159.2911,-46.66197 78.4469,-3.36504 157.9611,20.56592 220.9316,67.46951 62.9705,46.90359 108.8013,116.57841 125.9729,193.19676 14.6517,65.37496 8.8228,133.34115 4.509,200.19879 -4.3138,66.8577 -6.8154,135.5457 13.9902,199.23 14.6563,44.8619 40.704,85.8214 74.3787,118.8882 33.6747,33.0668 74.8724,58.264 119.2986,74.1926 88.8523,31.8571 189.1987,25.729 276.868,-9.2525 79.4943,-31.7195 149.6023,-86.772 198.7894,-156.8156 49.1871,-70.0435 77.1971,-154.8548 78.8145,-240.4285 2.103,-111.26729 -41.323,-222.72521 -118.148,-303.24072 -76.8251,-80.51551 -186.1244,-129.11946 -297.3679,-132.23554"
       id="path4370-92-6-1-7"
       inkscape:path-effect="#path-effect4372-52-4-6-8"
       inkscape:original-d="M 588.8764,1470.5689 C 178.69191,1456.8961 148.94475,1260.9527 138.97924,1057.6403 129.06562,855.38641 341.7598,609.12096 544.2158,605.06149 763.99,600.65477 914.5624,852.57379 1003.457,1078.3254 l 1.6923,393.859 -1.8986,-389.3498 c 4.6461,-117.95643 156.5621,-445.40255 344.3734,-486.26596 129.8816,-28.25924 279.3004,132.79621 346.9045,260.66627 62.2967,117.83122 -59.1959,291.13039 18.4992,399.42879 98.1599,136.8241 309.388,232.6597 470.5453,183.8283 154.6022,-46.8451 289.8702,-236.1669 277.6039,-397.2441 -15.2347,-200.05669 -415.5159,-435.47626 -415.5159,-435.47626"
       inkscape:connector-curvature="0"
       sodipodi:nodetypes="caacccsaaaac" />
  </g>
</svg>
