<?xml version="1.0" encoding="UTF-8" standalone="no"?>
<!-- Created with Inkscape (http://www.inkscape.org/) -->

<svg
   xmlns:dc="http://purl.org/dc/elements/1.1/"
   xmlns:cc="http://creativecommons.org/ns#"
   xmlns:rdf="http://www.w3.org/1999/02/22-rdf-syntax-ns#"
   xmlns:svg="http://www.w3.org/2000/svg"
   xmlns="http://www.w3.org/2000/svg"
   xmlns:sodipodi="http://sodipodi.sourceforge.net/DTD/sodipodi-0.dtd"
   xmlns:inkscape="http://www.inkscape.org/namespaces/inkscape"
   width="2000"
   height="2048"
   id="svg2992"
   version="1.1"
   inkscape:version="0.91pre2 r13516"
   sodipodi:docname="സ.svg">
  <defs
     id="defs5498">
    <inkscape:path-effect
       effect="spiro"
       id="path-effect3846"
       is_visible="true" />
    <inkscape:path-effect
       effect="spiro"
       id="path-effect3801"
       is_visible="true" />
    <inkscape:path-effect
       effect="spiro"
       id="path-effect4372-52"
       is_visible="true" />
    <inkscape:path-effect
       effect="spiro"
       id="path-effect4372-52-8"
       is_visible="true" />
    <inkscape:path-effect
       effect="spiro"
       id="path-effect4372-52-3"
       is_visible="true" />
  </defs>
  <sodipodi:namedview
     inkscape:window-height="853"
     inkscape:window-width="1600"
     inkscape:pageshadow="2"
     inkscape:pageopacity="0.0"
     borderopacity="1.0"
     bordercolor="#666666"
     pagecolor="#ffffff"
     id="base"
     showgrid="true"
     showguides="true"
     inkscape:guide-bbox="true"
     inkscape:zoom="0.32"
     inkscape:cx="501.82331"
     inkscape:cy="1392.9338"
     inkscape:window-x="1598"
     inkscape:window-y="-3"
     inkscape:current-layer="layer1"
     inkscape:window-maximized="1">
    <sodipodi:guide
       orientation="horizontal"
       position="0,600"
       id="guide5596" />
    <inkscape:grid
       type="xygrid"
       id="grid3769"
       empspacing="3"
       visible="true"
       enabled="true"
       snapvisiblegridlinesonly="true"
       spacingx="4px"
       units="px"
       dotted="true"
       spacingy="4px" />
    <sodipodi:guide
       orientation="0,1"
       position="-1040,1600"
       id="guide2985" />
  </sodipodi:namedview>
  <metadata
     id="metadata5594">
    <rdf:RDF>
      <cc:Work
         rdf:about="">
        <dc:format>image/svg+xml</dc:format>
        <dc:type
           rdf:resource="http://purl.org/dc/dcmitype/StillImage" />
        <dc:title />
      </cc:Work>
    </rdf:RDF>
  </metadata>
  <g
     inkscape:label="Layer 1"
     inkscape:groupmode="layer"
     id="layer1"
     transform="translate(0,1048)">
    <path
       style="fill:none;fill-rule:evenodd;stroke:#000000;stroke-width:140;stroke-linecap:round;stroke-linejoin:round;stroke-miterlimit:4;stroke-dasharray:none;stroke-opacity:1"
       d="m -2146.4029,322.94391 c -122.9641,39.18768 -262.9453,20.95617 -371.7698,-48.42023 -108.8244,-69.3764 -184.4323,-188.584548 -200.8034,-316.599511 -16.3712,-128.014959 26.8042,-262.413679 114.6675,-356.943459 87.8634,-94.52978 218.7516,-147.40137 347.6201,-140.41925 62.9329,3.40972 125.2373,20.61399 180.3088,51.26201 55.0716,30.64801 102.5337,74.73348 137.5054,127.16584 34.9718,52.43236 57.2078,112.77307 68.7763,174.72746 11.5686,61.95439 12.5422,125.334413 12.9007,188.358612 l 1.8865,331.649288 -2.0928,-338.188602 c -0.3632,-58.683864 -0.2641,-117.647898 8.8348,-175.623228 9.0988,-57.97533 27.2689,-114.87752 57.0664,-165.43481 29.7974,-50.55729 71.1171,-94.42682 120.4705,-126.17846 49.3534,-31.75163 106.4743,-51.2818 164.9177,-56.60086 81.7622,-7.44134 166.3347,13.55015 233.4181,60.88143 67.0834,47.33127 115.6408,121.10371 129.6435,202.0009 10.717,61.9146 1.6936,125.33069 -6.8244,187.585913 -8.5181,62.255227 -16.4808,125.978844 -3.723,187.505347 19.1461,92.33542 86.4588,172.29145 172.41441,211.07339 85.9556,38.78194 188.28049,36.9825 274.77791,-0.57543 86.49742,-37.55794 156.65942,-109.38754 196.54214,-194.83794 39.88273,-85.450399 50.05117,-183.659544 33.28304,-276.45627 -15.59199,-86.28785 -54.16525,-168.31453 -110.67825,-235.35917 -56.51301,-67.04464 -130.82811,-118.94395 -213.23235,-148.91469"
       id="path4370-92"
       inkscape:path-effect="#path-effect4372-52"
       inkscape:original-d="m -2146.4029,322.94391 c -843.75,-28.125 -348.6267,-770.64559 -110.2856,-862.38245 238.3411,-91.73686 401.562,429.17452 399.4912,541.513922 l 1.8865,331.649288 -2.0928,-338.188602 c 6.3411,-172.598568 144.3219,-486.883838 351.2894,-523.837358 147.0879,-26.26217 302.378,139.77982 363.0616,262.88233 60.6835,123.10251 -112.6655,302.863393 -10.5474,375.09126 197.44155,139.64992 523.6304,364.48794 677.0175,-260.79625 95.9581,-391.17423 -323.9106,-384.27386 -323.9106,-384.27386"
       inkscape:connector-curvature="0"
       sodipodi:nodetypes="czsccazasc" />
    <path
       style="color:#000000;font-style:normal;font-variant:normal;font-weight:normal;font-stretch:normal;font-size:medium;line-height:normal;font-family:sans-serif;text-indent:0;text-align:start;text-decoration:none;text-decoration-line:none;text-decoration-style:solid;text-decoration-color:#000000;letter-spacing:normal;word-spacing:normal;text-transform:none;direction:ltr;block-progression:tb;writing-mode:lr-tb;baseline-shift:baseline;text-anchor:start;clip-rule:nonzero;display:inline;overflow:visible;visibility:visible;opacity:1;isolation:auto;mix-blend-mode:normal;color-interpolation:sRGB;color-interpolation-filters:linearRGB;solid-color:#000000;solid-opacity:1;fill:#000000;fill-opacity:1;fill-rule:evenodd;stroke:none;stroke-width:140;stroke-linecap:round;stroke-linejoin:round;stroke-miterlimit:4;stroke-dasharray:none;stroke-dashoffset:0;stroke-opacity:1;color-rendering:auto;image-rendering:auto;shape-rendering:auto;text-rendering:auto;enable-background:accumulate"
       d="M 606.9043,-602.69141 C 466.09638,-602.36682 328.61049,-542.7896 232.41992,-439.30078 129.81665,-328.91271 80.472249,-175.31104 99.589844,-25.820312 118.70743,123.67041 205.11645,259.90886 332.19727,340.92383 459.27808,421.93881 619.25903,442.77546 762.85156,397.01367 A 70.007,70.007 0 1 0 720.3418,263.62305 C 618.00613,296.2366 498.0251,280.61088 407.45703,222.87305 316.88895,165.13522 252.08372,62.959116 238.45898,-43.580078 224.83424,-150.11927 261.8395,-265.31681 334.96289,-343.98828 c 73.12341,-78.67149 185.31294,-123.98853 292.5625,-118.17774 52.72356,2.85657 104.85917,17.37939 150.05469,42.53125 45.08055,25.0879 84.51095,61.66327 113.31054,104.8418 28.81564,43.2026 48.09813,94.62812 58.20118,148.73438 9.0822,48.63875 10.92747,101.445306 11.48437,156.9706994 0.02,4.1167638 -0.004,8.34998609 0.0215,12.4316406 l 2.07226,334.73828 0.0195,3.41602 0.002,0 0,0.0352 a 70.007,70.007 0 0 0 139.99609,-0.83203 l 0,-0.0351 -0,-0.40235 -1.8847,-331.2109356 c -0.037,-6.4956348 -0.1559,-13.211093 -0.2129,-19.7910154 -0.193,-53.393411 0.624,-104.148299 7.9961,-151.121099 7.9734,-50.80447 23.7666,-99.25629 48.2187,-140.74414 24.4184,-41.43059 58.4079,-77.35668 98.0391,-102.85351 39.6693,-25.52132 86.2481,-41.46745 133.3887,-45.75781 65.5892,-5.96941 134.3139,11.39252 186.7187,48.36718 52.0887,36.75162 90.4394,95.59554 101.0235,156.74219 8.2206,47.49282 1.3494,103.65032 -7.2032,166.158204 -8.5935,62.806605 -18.7965,134.601747 -2.9121,211.207036 24.1375,116.40728 105.8241,212.68711 212.168,260.66796 105.6784,47.68059 227.1994,45.09151 331.4473,-0.17382 103.7205,-45.03641 185.2624,-129.10357 232.0937,-229.44141 46.6478,-99.944807 57.9217,-212.333632 38.7363,-318.50781 -17.8039,-98.52876 -61.511,-191.4717 -126.041,-268.02735 -64.53,-76.55566 -148.734,-135.36156 -242.8281,-169.58398 a 70.007,70.007 0 1 0 -47.8535,131.56836 c 70.7142,25.71906 135.1407,70.71052 183.6367,128.24414 48.496,57.53363 81.9363,128.64641 95.3164,202.69336 14.3508,79.41927 5.2876,163.446352 -27.8301,234.40234 -32.9343,70.56296 -91.716,130.1549 -160.9902,160.23438 -68.747,29.85053 -151.8766,30.86181 -218.1094,0.97851 -65.5673,-29.58303 -118.5074,-93.21691 -132.6621,-161.48047 -9.6311,-46.447717 -3.9075,-102.09888131 4.5352,-163.80273 8.4834,-62.00256 19.6586,-132.67729 6.4453,-209.01367 -17.4214,-100.64773 -76.1836,-189.34885 -158.2617,-247.25977 -81.762,-57.68789 -182.184,-82.30976 -280.1192,-73.39648 -69.7462,6.34776 -137.4097,29.46141 -196.4472,67.44336 -59.0757,38.00644 -107.7259,89.82187 -142.9024,149.50586 l 0,0 c -2.9464,4.99915 -5.643,10.09378 -8.3868,15.16992 -6.3753,-11.51264 -13.0655,-22.89463 -20.4453,-33.95899 -41.14396,-61.68618 -96.63855,-113.28013 -161.70114,-149.48828 -64.94762,-36.14415 -137.42023,-56.03128 -210.5625,-59.99414 -9.40547,-0.50959 -18.80617,-0.75211 -28.19336,-0.73047 z"
       id="path4370-92-3"
       inkscape:connector-curvature="0" />
  </g>
</svg>
