<?xml version="1.0" encoding="UTF-8" standalone="no"?>
<!-- Created with Inkscape (http://www.inkscape.org/) -->

<svg
   xmlns:dc="http://purl.org/dc/elements/1.1/"
   xmlns:cc="http://creativecommons.org/ns#"
   xmlns:rdf="http://www.w3.org/1999/02/22-rdf-syntax-ns#"
   xmlns:svg="http://www.w3.org/2000/svg"
   xmlns="http://www.w3.org/2000/svg"
   xmlns:sodipodi="http://sodipodi.sourceforge.net/DTD/sodipodi-0.dtd"
   xmlns:inkscape="http://www.inkscape.org/namespaces/inkscape"
   width="2000"
   height="2048"
   id="svg2992"
   version="1.1"
   inkscape:version="0.91pre2 r13516"
   sodipodi:docname="സ.svg">
  <defs
     id="defs5498">
    <inkscape:path-effect
       effect="spiro"
       id="path-effect3846"
       is_visible="true" />
    <inkscape:path-effect
       effect="spiro"
       id="path-effect3801"
       is_visible="true" />
    <inkscape:path-effect
       effect="spiro"
       id="path-effect4372-52"
       is_visible="true" />
    <inkscape:path-effect
       effect="spiro"
       id="path-effect4372-52-8"
       is_visible="true" />
  </defs>
  <sodipodi:namedview
     inkscape:window-height="853"
     inkscape:window-width="1600"
     inkscape:pageshadow="2"
     inkscape:pageopacity="0.0"
     borderopacity="1.0"
     bordercolor="#666666"
     pagecolor="#ffffff"
     id="base"
     showgrid="true"
     showguides="true"
     inkscape:guide-bbox="true"
     inkscape:zoom="0.32"
     inkscape:cx="296.3952"
     inkscape:cy="900.69625"
     inkscape:window-x="1598"
     inkscape:window-y="-3"
     inkscape:current-layer="layer1"
     inkscape:window-maximized="1">
    <sodipodi:guide
       orientation="horizontal"
       position="0,600"
       id="guide5596" />
    <inkscape:grid
       type="xygrid"
       id="grid3769"
       empspacing="3"
       visible="true"
       enabled="true"
       snapvisiblegridlinesonly="true"
       spacingx="4px"
       units="px"
       dotted="true"
       spacingy="4px" />
    <sodipodi:guide
       orientation="0,1"
       position="-1040,1600"
       id="guide2985" />
  </sodipodi:namedview>
  <metadata
     id="metadata5594">
    <rdf:RDF>
      <cc:Work
         rdf:about="">
        <dc:format>image/svg+xml</dc:format>
        <dc:type
           rdf:resource="http://purl.org/dc/dcmitype/StillImage" />
        <dc:title />
      </cc:Work>
    </rdf:RDF>
  </metadata>
  <g
     inkscape:label="Layer 1"
     inkscape:groupmode="layer"
     id="layer1"
     transform="translate(0,1048)">
    <path
       style="fill:none;fill-rule:evenodd;stroke:#000000;stroke-width:140;stroke-linecap:round;stroke-linejoin:round;stroke-miterlimit:4;stroke-dasharray:none;stroke-opacity:1"
       d="m -2146.4029,322.94391 c -123.2537,40.01652 -263.9553,22.27206 -373.4145,-47.09282 -109.4591,-69.36488 -185.5786,-189.021251 -202.0169,-317.561401 -16.4384,-128.540149 27.1194,-263.501419 115.5999,-358.179779 88.4805,-94.67835 220.1886,-147.25987 349.5459,-139.54845 60.7883,3.62379 120.9514,20.11083 174.3188,49.4412 53.3674,29.33036 99.5689,71.51942 133.7934,121.88838 34.2245,50.36897 56.2106,108.49224 67.8151,168.27254 11.6046,59.78031 12.8909,121.019297 13.5639,181.911802 l 3.8865,351.649288 5.9072,-376.188602 c -23.8101,-104.027538 -3.0501,-217.487878 56.0523,-306.344838 59.1023,-88.85695 155.7173,-151.86305 260.8621,-170.11752 85.8774,-14.90942 177.438,0.0368 251.7492,45.58969 74.3112,45.55289 129.9345,122.19093 145.6874,207.91764 11.3573,61.80618 2.4862,125.31944 -6.1209,187.568239 -8.607,62.248798 -16.8983,125.932046 -4.4265,187.523021 9.3756,46.30081 30.5118,90.09598 60.4444,126.64332 29.9326,36.54735 68.5704,65.82482 111.59624,85.32981 86.05166,39.00998 188.61217,37.26801 275.26889,-0.37879 86.65671,-37.64681 156.89944,-109.69277 196.75143,-195.35774 39.85199,-85.664964 49.88803,-184.08129 32.95654,-277.03285 -15.70973,-86.24427 -54.32442,-168.20896 -110.82334,-235.23688 -56.49891,-67.02793 -130.7459,-118.95758 -213.08726,-149.03698"
       id="path4370-92"
       inkscape:path-effect="#path-effect4372-52"
       inkscape:original-d="m -2146.4029,322.94391 c 0,0 -325.2497,-809.15212 -110.2856,-862.38245 133.5755,-33.07679 387.2778,321.24209 389.4912,521.513922 l 3.8865,351.649288 c -3.4958,-40.48646 -24.8464,-242.675418 5.9072,-376.188602 159.7412,-72.807838 326.6366,-519.875448 316.9144,-476.462358 -64.4376,335.1557 436.3036,-117.10856 397.4366,253.50733 -14.7509,140.65141 -228.6372,24.13814 -10.5474,375.09126 218.0884,350.95329 383.0054,14.48794 677.0175,-260.79625 294.0128,-275.28478 -323.9106,-384.27386 -323.9106,-384.27386"
       inkscape:connector-curvature="0"
       sodipodi:nodetypes="csscccsssc" />
    <path
       style="color:#000000;font-style:normal;font-variant:normal;font-weight:normal;font-stretch:normal;font-size:medium;line-height:normal;font-family:sans-serif;text-indent:0;text-align:start;text-decoration:none;text-decoration-line:none;text-decoration-style:solid;text-decoration-color:#000000;letter-spacing:normal;word-spacing:normal;text-transform:none;direction:ltr;block-progression:tb;writing-mode:lr-tb;baseline-shift:baseline;text-anchor:start;clip-rule:nonzero;display:inline;overflow:visible;visibility:visible;opacity:1;isolation:auto;mix-blend-mode:normal;color-interpolation:sRGB;color-interpolation-filters:linearRGB;solid-color:#000000;solid-opacity:1;fill:#000000;fill-opacity:1;fill-rule:evenodd;stroke:none;stroke-width:140;stroke-linecap:round;stroke-linejoin:round;stroke-miterlimit:4;stroke-dasharray:none;stroke-dashoffset:0;stroke-opacity:1;color-rendering:auto;image-rendering:auto;shape-rendering:auto;text-rendering:auto;enable-background:accumulate"
       d="M 533.04883,-597.44727 C 391.68045,-597.86076 253.35468,-538.57675 156.49805,-434.93555 53.184312,-324.38493 3.4113541,-170.16923 22.605469,-20.080078 41.799582,130.00908 128.77858,266.73501 256.58789,347.72852 c 127.80932,80.9935 288.58358,101.26998 432.5,54.54492 A 70.007,70.007 0 1 0 645.85547,269.11523 C 543.26455,302.42323 422.63631,287.21089 331.52734,229.47461 240.41839,171.73833 175.15715,69.151309 161.47461,-37.839844 147.79207,-144.831 185.13594,-260.53962 258.7832,-339.3457 c 73.64728,-78.80609 186.56693,-123.88545 294.23828,-117.4668 50.93725,3.03654 101.15935,16.94228 144.76954,40.91016 43.48139,23.89708 81.63141,58.70899 109.60937,99.88476 27.98781,41.19028 46.92597,90.3936 56.99609,142.26953 10.08474,51.95119 11.61732,108.922194 12.28516,169.3476594 l 3.88672,351.6484406 a 70.007,70.007 0 0 0 139.98634,0.32617 l 5.9082,-376.189454 a 70.007,70.007 0 0 0 -1.7559,-16.716797 c -19.3658,-84.610549 -1.9692,-179.687409 46.1016,-251.958989 48.0707,-72.27155 129.0315,-125.07073 214.5508,-139.91796 69.8475,-12.12644 144.9062,0.57382 203.1914,36.30273 57.7558,35.4044 101.6243,96.67633 113.4238,160.88867 8.6457,47.0496 2.0028,103.01631 -6.6133,165.33008 -8.6588,62.623369 -19.2256,134.297096 -3.6933,211.00195 11.7329,57.94242 37.8298,111.84753 74.8965,157.10547 37.0312,45.21472 84.1857,80.85621 136.8496,104.73047 105.8151,47.96936 227.6163,45.44355 332.0625,0.0684 103.9126,-45.14341 185.5386,-129.45546 232.3281,-230.0332 46.6046,-100.180376 57.722,-212.783841 38.3555,-319.10352 -17.9326,-98.44758 -61.6747,-191.29644 -126.168,-267.80859 -64.4933,-76.51218 -148.5994,-135.33634 -242.5918,-169.67188 a 70.007,70.007 0 1 0 -48.0371,131.5 c 70.6903,25.82327 135.0795,70.85866 183.584,128.40235 48.5045,57.54368 81.9917,128.62505 95.4785,202.66601 14.4964,79.583444 5.5406,163.813338 -27.5586,234.96289 -32.9145,70.7522 -91.775,130.53144 -161.1758,160.68164 -68.8672,29.91841 -152.1863,30.87677 -218.4746,0.82617 -33.3877,-15.13574 -63.5078,-38.04775 -86.3418,-65.92773 -22.7985,-27.83673 -38.9739,-61.52439 -45.9922,-96.18359 -9.4113,-46.477096 -3.397,-102.1687455 5.1582,-164.042972 8.5981,-62.183828 19.6978,-133.243878 5.6289,-209.806638 -19.7063,-107.24108 -87.0846,-199.24394 -177.9511,-254.94531 -90.3373,-55.37687 -198.3994,-72.57132 -300.3067,-54.87891 -124.7703,21.66171 -237.0399,94.87602 -307.17382,200.31836 -3.33493,5.01387 -6.46757,10.14001 -9.59375,15.26953 -6.65458,-11.93382 -13.68082,-23.71253 -21.44726,-35.14258 -40.47109,-59.56217 -94.72316,-109.13088 -157.97657,-143.89453 -63.12461,-34.69287 -133.22978,-53.75965 -203.86914,-57.9707 -9.44021,-0.56277 -18.87817,-0.85525 -28.30273,-0.88282 z"
       id="path4370-92-5"
       inkscape:connector-curvature="0" />
  </g>
</svg>
