<?xml version="1.0" encoding="UTF-8" standalone="no"?>
<!-- Created with Inkscape (http://www.inkscape.org/) -->

<svg
   xmlns:dc="http://purl.org/dc/elements/1.1/"
   xmlns:cc="http://creativecommons.org/ns#"
   xmlns:rdf="http://www.w3.org/1999/02/22-rdf-syntax-ns#"
   xmlns:svg="http://www.w3.org/2000/svg"
   xmlns="http://www.w3.org/2000/svg"
   xmlns:sodipodi="http://sodipodi.sourceforge.net/DTD/sodipodi-0.dtd"
   xmlns:inkscape="http://www.inkscape.org/namespaces/inkscape"
   width="2000"
   height="2048"
   id="svg2992"
   version="1.1"
   inkscape:version="0.91 r13725"
   sodipodi:docname="സ്ത്ര.svg">
  <defs
     id="defs5498">
    <inkscape:path-effect
       effect="spiro"
       id="path-effect3846"
       is_visible="true" />
    <inkscape:path-effect
       effect="spiro"
       id="path-effect3801"
       is_visible="true" />
    <inkscape:path-effect
       effect="spiro"
       id="path-effect4888"
       is_visible="true" />
    <inkscape:path-effect
       effect="spiro"
       id="path-effect4372-52"
       is_visible="true" />
    <inkscape:path-effect
       effect="spiro"
       id="path-effect4372-52-6"
       is_visible="true" />
    <inkscape:path-effect
       effect="spiro"
       id="path-effect4888-9"
       is_visible="true" />
    <inkscape:path-effect
       effect="spiro"
       id="path-effect4372-52-4-6-8"
       is_visible="true" />
    <inkscape:path-effect
       effect="spiro"
       id="path-effect4372-52-4-6-8-0"
       is_visible="true" />
    <inkscape:path-effect
       effect="spiro"
       id="path-effect4888-9-3"
       is_visible="true" />
    <inkscape:path-effect
       effect="spiro"
       id="path-effect4888-9-3-9"
       is_visible="true" />
    <inkscape:path-effect
       effect="spiro"
       id="path-effect4372-52-4-6-8-0-6"
       is_visible="true" />
    <inkscape:path-effect
       effect="spiro"
       id="path-effect4372-52-4-6-8-2"
       is_visible="true" />
    <inkscape:path-effect
       effect="spiro"
       id="path-effect4888-9-3-9-2"
       is_visible="true" />
    <inkscape:path-effect
       effect="spiro"
       id="path-effect4372-52-4-6-8-2-1"
       is_visible="true" />
    <inkscape:path-effect
       effect="spiro"
       id="path-effect4372-52-4-6-8-2-2"
       is_visible="true" />
    <inkscape:path-effect
       effect="spiro"
       id="path-effect4888-9-3-9-3"
       is_visible="true" />
    <inkscape:path-effect
       effect="spiro"
       id="path-effect4372-52-4-6-8-7"
       is_visible="true" />
    <inkscape:path-effect
       effect="spiro"
       id="path-effect4372-52-4-6-8-7-2"
       is_visible="true" />
    <inkscape:path-effect
       effect="spiro"
       id="path-effect4888-9-3-9-8"
       is_visible="true" />
    <inkscape:path-effect
       effect="spiro"
       id="path-effect4372-52-4-6-8-7-9-3"
       is_visible="true" />
    <inkscape:path-effect
       effect="spiro"
       id="path-effect4372-52-4-6-8-7-9-3-6"
       is_visible="true" />
    <inkscape:path-effect
       effect="spiro"
       id="path-effect4888-9-3-9-5"
       is_visible="true" />
    <inkscape:path-effect
       effect="spiro"
       id="path-effect4888-9-3-9-7"
       is_visible="true" />
    <inkscape:path-effect
       effect="spiro"
       id="path-effect4372-52-4-6-8-7-9-3-9"
       is_visible="true" />
  </defs>
  <sodipodi:namedview
     inkscape:window-height="853"
     inkscape:window-width="1600"
     inkscape:pageshadow="2"
     inkscape:pageopacity="0.0"
     borderopacity="1.0"
     bordercolor="#666666"
     pagecolor="#ffffff"
     id="base"
     showgrid="true"
     showguides="true"
     inkscape:guide-bbox="true"
     inkscape:zoom="0.5"
     inkscape:cx="2050.8723"
     inkscape:cy="-638.14588"
     inkscape:window-x="1598"
     inkscape:window-y="-3"
     inkscape:current-layer="layer1"
     inkscape:window-maximized="1">
    <sodipodi:guide
       orientation="horizontal"
       position="0,600"
       id="guide5596" />
    <inkscape:grid
       type="xygrid"
       id="grid3769"
       empspacing="3"
       visible="true"
       enabled="true"
       snapvisiblegridlinesonly="true"
       spacingx="4px"
       units="px"
       dotted="true"
       spacingy="4px" />
    <sodipodi:guide
       orientation="0,1"
       position="-1040,1600"
       id="guide2985" />
  </sodipodi:namedview>
  <metadata
     id="metadata5594">
    <rdf:RDF>
      <cc:Work
         rdf:about="">
        <dc:format>image/svg+xml</dc:format>
        <dc:type
           rdf:resource="http://purl.org/dc/dcmitype/StillImage" />
        <dc:title />
      </cc:Work>
    </rdf:RDF>
  </metadata>
  <g
     inkscape:label="Layer 1"
     inkscape:groupmode="layer"
     id="layer1"
     transform="translate(0,1048)">
    <path
       style="fill:none;fill-rule:evenodd;stroke:#000000;stroke-width:120;stroke-linecap:round;stroke-linejoin:round;stroke-miterlimit:4;stroke-dasharray:none;stroke-opacity:1"
       d="m 2100.683,950.51194 c -31.702,-15.54366 -59.3918,-39.18655 -79.7112,-68.06116 -20.3193,-28.87462 -33.2258,-62.9207 -37.1541,-98.009 -6.6269,-59.19311 12.7588,-120.04631 48.9494,-167.35367 36.1905,-47.30735 88.3094,-81.3453 144.9053,-99.91002 86.0258,-28.2184 184.6787,-20.1436 261.6394,27.5404 38.4803,23.842 71.2002,57.11036 93.6182,96.43734 22.418,39.32698 34.3987,84.67283 33.4326,129.93036 -0.8982,42.07722 -13.2899,84.439 -38.5789,118.08077 -25.2889,33.64177 -64.0015,57.83493 -105.8862,61.95478 -22.5277,2.21586 -45.5266,-1.30169 -66.5908,-9.59044 -21.0643,-8.28874 -40.1898,-21.29499 -56.0797,-37.41689 -31.7799,-32.2438 -50.0248,-76.44242 -54.913,-121.45052 -8.6002,-79.18698 24.1831,-160.98886 82.7216,-215.00539 58.5385,-54.01653 140.9392,-80.06588 220.2919,-73.15981 72.8224,6.33774 143.1375,39.9475 193.0036,93.39513 49.866,53.44764 78.5922,126.36006 77.4867,199.44937 -1.2209,80.71983 -38.2788,158.86262 -94.6426,216.65801 -56.3638,57.7954 -130.8813,96.0623 -209.0521,116.2242 -147.9173,38.1511 -303.7221,22.9885 -456.4752,21.7508 l -431.5735,-3.4968 c -130.3144,-1.0559 -261.1365,-3.2401 -389.833,-23.7384 C 1107.5449,1094.2428 981.28906,1055.4617 866.13323,994.45273 635.82158,872.43487 458.81923,660.63245 360.55774,419.2272 234.1889,108.76885 230.21857,-249.64317 349.679,-562.82471"
       id="path4886-6-2-5"
       inkscape:path-effect="#path-effect4888-9-3-9"
       inkscape:original-d="m 2100.683,950.51194 c 0,0 -117.3497,-98.3824 -116.8653,-166.07016 0.7876,-110.05249 85.6233,-247.3104 193.8547,-267.26369 152.1929,-28.05794 364.3456,101.07724 388.6902,253.9081 12.1039,75.98569 -67.6981,174.82486 -144.4651,180.03555 -81.4038,5.52542 -177.5323,-86.86678 -177.5835,-168.45785 -0.087,-139.38607 163.7005,-292.67859 303.0135,-288.1652 132.8141,4.30284 270.0812,159.96134 270.4903,292.8445 0.4624,150.19954 -39.7895,298.52941 -303.6947,332.88221 -80.9049,10.5314 -307.0825,22.9612 -456.4752,21.7508 l -431.5735,-3.4968 C 1287.906,1135.7394 606.90448,837.24842 360.55774,419.2272 194.34773,137.18851 349.679,-562.82471 349.679,-562.82471"
       inkscape:connector-curvature="0"
       sodipodi:nodetypes="caaaaaaasssac" />
    <path
       style="fill:none;fill-rule:evenodd;stroke:#000000;stroke-width:140;stroke-linecap:round;stroke-linejoin:round;stroke-miterlimit:4;stroke-dasharray:none;stroke-opacity:1"
       d="M 1183.9965,358.19288 C 1053.013,381.12889 912.8464,345.17595 809.0744,262.02476 705.30239,178.87357 639.66032,49.914679 633.49283,-82.91872 c -5.18515,-111.67599 31.27367,-225.08813 101.8755,-311.77028 70.60184,-86.68214 174.93428,-145.52895 285.85997,-159.45392 64.1735,-8.05596 130.4355,-1.25706 190.838,21.86598 60.4024,23.12304 114.4093,62.67475 154.6718,113.29155 40.2626,50.61679 66.3613,111.68314 79.7065,174.96849 13.3452,63.28535 14.0728,128.46077 14.0249,193.137882 l -0.3077,415.858998 0.1014,-415.349799 c 0.026,-106.021791 0.059,-214.958561 38.3864,-313.810031 19.1638,-49.42573 48.1795,-95.64296 88.0196,-130.61316 39.8402,-34.97021 90.984,-58.13134 143.9673,-59.84281 36.1242,-1.16689 72.3394,7.59117 104.637,23.81408 32.2977,16.22292 60.709,39.78567 83.8089,67.58346 46.1998,55.59559 70.4828,126.87743 79.6303,198.58246 8.1146,63.60814 5.0362,128.02587 5.1456,192.149419 0.1094,64.1235478 3.6044,129.233442 24.182,189.965681 26.1997,77.32522 80.1663,144.60025 148.977,188.54002 68.8107,43.93978 151.8988,64.56573 233.4024,59.79318 117.2359,-6.8649 229.6852,-66.86188 303.3549,-158.31776 73.6696,-91.45589 108.2903,-212.6050132 97.5101,-329.54594 -11.0347,-119.7019 -69.2488,-234.41716 -159.3436,-313.99879 -90.0948,-79.58163 -211.119,-123.18924 -331.2675,-119.36281"
       id="path4370-92-6-1-7-5-7-8"
       inkscape:path-effect="#path-effect4372-52-4-6-8-7-9-3"
       inkscape:original-d="m 1183.9965,358.19288 c -340.63815,16.87397 -526.23708,-207.2232 -550.50367,-441.1116 -20.99198,-202.3268 184.34402,-468.26778 387.73547,-471.2242 222.639,-3.2362 442.0696,450.938 439.2412,503.263902 l -0.3077,415.858998 0.1014,-415.349799 c 4.6461,-117.956401 81.1839,-480.108601 270.3733,-504.266001 130.5762,-16.67314 215.4376,169.32628 268.0762,289.98 51.083,117.08819 -35.8804,272.265041 29.3276,382.1151 77.5785,130.68947 232.1856,271.57047 382.3794,248.3332 208.0019,-32.18099 417.6287,-278.055699 400.865,-487.8637 -17.3788,-217.50691 -334.3454,-322.4011 -490.6111,-433.3616"
       inkscape:connector-curvature="0"
       sodipodi:nodetypes="caacccaaaaac" />
    <path
       style="color:#000000;font-style:normal;font-variant:normal;font-weight:normal;font-stretch:normal;font-size:medium;line-height:normal;font-family:sans-serif;text-indent:0;text-align:start;text-decoration:none;text-decoration-line:none;text-decoration-style:solid;text-decoration-color:#000000;letter-spacing:normal;word-spacing:normal;text-transform:none;direction:ltr;block-progression:tb;writing-mode:lr-tb;baseline-shift:baseline;text-anchor:start;white-space:normal;clip-rule:nonzero;display:inline;overflow:visible;visibility:visible;opacity:1;isolation:auto;mix-blend-mode:normal;color-interpolation:sRGB;color-interpolation-filters:linearRGB;solid-color:#000000;solid-opacity:1;fill:#000000;fill-opacity:1;fill-rule:evenodd;stroke:none;stroke-width:120;stroke-linecap:round;stroke-linejoin:round;stroke-miterlimit:4;stroke-dasharray:none;stroke-dashoffset:0;stroke-opacity:1;color-rendering:auto;image-rendering:auto;shape-rendering:auto;text-rendering:auto;enable-background:accumulate"
       d="m 572.94141,1246.4492 a 60.006,60.006 0 0 0 -59.32227,39.3418 c -125.05086,327.8375 -120.91731,701.0697 11.36524,1026.0567 103.1269,253.3584 288.60511,476.1119 533.06052,605.623 121.8926,64.5781 254.474,105.135 388.7598,126.5234 134.28,21.3877 268.1238,23.4238 398.7832,24.4825 l 431.5742,3.498 c 149.1136,1.2082 310.439,18.0056 471.9453,-23.6504 87.0198,-22.4442 171.4469,-65.1895 237.0235,-132.4316 66.0596,-67.7376 110.1899,-159.1509 111.6796,-257.6426 1.3524,-89.4084 -33.0164,-176.342 -93.6093,-241.2871 -60.4995,-64.8448 -143.9195,-104.6012 -231.6719,-112.2383 -54.5078,-4.7438 -109.7335,3.1483 -160.502,23.0254 -75.6709,-23.8329 -158.0527,-22.1869 -233.0566,2.416 -66.8681,21.9342 -129.215,62.1114 -173.8574,120.4668 -44.9951,58.8165 -69.4961,133.9153 -60.9238,210.4844 5.0675,45.2644 21.5026,88.6146 47.7148,125.8633 26.2123,37.2485 61.4692,67.3527 102.3652,87.4043 a 60.006,60.006 0 1 0 52.8282,-107.7461 c -22.508,-11.0358 -42.6321,-28.2162 -57.0586,-48.7168 l 0,0 c -14.4264,-20.5006 -23.8066,-45.244 -26.5957,-70.1563 -4.6816,-41.8171 9.5905,-88.4223 36.9766,-124.2207 27.7385,-36.2591 69.6274,-64.1602 115.9511,-79.3554 17.4926,-5.738 35.7072,-9.5834 54.127,-11.543 -49.3841,63.4649 -74.7301,144.6027 -65.8359,226.4961 6.1631,56.7485 28.8669,113.4994 71.83,157.0898 21.4613,21.7747 47.3919,39.5443 76.8418,51.1328 29.5296,11.6198 61.7924,16.6797 94.4356,13.4688 61.0735,-6.0074 113.3136,-39.5084 147.9726,-85.6152 34.1688,-45.4545 49.4744,-99.8615 50.6055,-152.8516 1.2102,-56.6942 -13.6026,-112.3498 -41.293,-160.9258 -11.7467,-20.6067 -25.7837,-39.6146 -41.5039,-57.0098 57.4038,5.3624 113.9986,32.6883 152.9082,74.3926 39.1391,41.9503 62.222,100.8411 61.3633,157.6113 -0.9521,62.9479 -30.9356,127.8206 -77.6035,175.6739 -47.1511,48.3486 -111.7602,82.138 -181.082,100.0176 -134.3283,34.6462 -284.6113,21.1187 -441.0039,19.8515 l -431.5743,-3.498 c -129.9693,-1.0531 -257.768,-3.3833 -380.8808,-22.9922 -123.1072,-19.608 -243.038,-56.6148 -351.457,-114.0547 C 898.05479,2696.9091 729.52693,2496.0595 636.13086,2266.6074 515.67572,1970.6776 511.86824,1627.0841 625.73828,1328.5586 a 60.006,60.006 0 0 0 -52.79687,-82.1094 z M 2616.9023,2459.4961 c 3.6677,1.9784 7.282,4.0415 10.8086,6.2266 30.1826,18.7007 55.9052,44.9933 73.0938,75.1464 17.1457,30.078 26.2942,65.1167 25.5723,98.9375 -0.6653,31.1644 -10.1455,61.4795 -26.5547,83.3086 -15.9188,21.1768 -41.1029,36.0625 -63.7989,38.295 -12.4122,1.2209 -26.1472,-0.7534 -38.7461,-5.711 -12.6786,-4.989 -24.9998,-13.2339 -35.3183,-23.7031 -20.5967,-20.8974 -34.3831,-52.5429 -37.9961,-85.8106 -6.3542,-58.5063 19.2056,-123.3173 63.7617,-164.4316 8.9301,-8.2403 18.7408,-15.6528 29.1777,-22.2578 z"
       id="path4886-6-2-5-5"
       inkscape:connector-curvature="0" />
    <path
       style="color:#000000;font-style:normal;font-variant:normal;font-weight:normal;font-stretch:normal;font-size:medium;line-height:normal;font-family:sans-serif;text-indent:0;text-align:start;text-decoration:none;text-decoration-line:none;text-decoration-style:solid;text-decoration-color:#000000;letter-spacing:normal;word-spacing:normal;text-transform:none;direction:ltr;block-progression:tb;writing-mode:lr-tb;baseline-shift:baseline;text-anchor:start;white-space:normal;clip-rule:nonzero;display:inline;overflow:visible;visibility:visible;opacity:1;isolation:auto;mix-blend-mode:normal;color-interpolation:sRGB;color-interpolation-filters:linearRGB;solid-color:#000000;solid-opacity:1;fill:#000000;fill-opacity:1;fill-rule:evenodd;stroke:none;stroke-width:140;stroke-linecap:round;stroke-linejoin:round;stroke-miterlimit:4;stroke-dasharray:none;stroke-dashoffset:0;stroke-opacity:1;color-rendering:auto;image-rendering:auto;shape-rendering:auto;text-rendering:auto;enable-background:accumulate"
       d="m 1289.0664,1242.6094 c -18.9343,0.1642 -37.8287,1.4419 -56.5566,3.7929 -129.7265,16.2852 -249.28585,83.8651 -331.41605,184.7012 -82.03043,100.7138 -123.51746,230.1692 -117.52539,359.2246 7.13742,153.7235 81.64262,300.0943 201.73437,396.3223 120.09177,96.228 279.18497,137.0372 430.76757,110.4941 a 70.007,70.007 0 1 0 -24.1484,-137.9023 c -110.3844,19.329 -231.6239,-11.7694 -319.0762,-81.8438 -87.45232,-70.0744 -144.23017,-181.6211 -149.42773,-293.5644 -4.37821,-94.2966 27.05136,-191.6658 86.22463,-264.3164 59.0735,-72.5281 148.1797,-122.6402 240.3047,-134.2051 53.4352,-6.708 108.3758,-0.8669 157.0937,17.7832 48.5229,18.5754 92.577,50.8409 124.9141,91.4941 32.3618,40.6843 54.5769,91.6842 65.9961,145.836 9.8348,46.6384 11.9361,97.8505 12.334,151.9512 -0.01,9.1209 -0.019,18.2782 -0.022,27.2363 l -0.1016,415.2969 0,0.018 0,0.035 a 70.007,70.007 0 0 0 140,0.068 l 0,-0.033 0.3067,-415.8261 c 0.01,-7.5953 -0.093,-15.4681 -0.1211,-23.1914 0.3876,-97.1482 3.9073,-188.3559 33.5683,-264.8555 15.8714,-40.9343 39.4081,-77.3959 68.9317,-103.3105 29.0349,-25.4859 65.9806,-41.3859 100.0488,-42.4864 23.3189,-0.7532 48.3848,5.0645 70.957,16.4024 22.7174,11.4108 43.8954,28.7162 61.3906,49.7695 35.1082,42.2483 56.1147,100.6472 64.0313,162.7031 7.0826,55.5188 4.4706,116.9664 4.584,183.4102 0.1136,66.5863 3.1986,139.4563 27.8828,212.3086 31.6151,93.3081 95.4674,172.6265 177.6016,225.0742 81.9786,52.3483 179.1435,76.2985 275.1679,70.6758 138.3883,-8.1035 267.6599,-77.3762 353.7774,-184.2852 85.8935,-106.631 125.1426,-244.8998 112.6992,-379.8828 -12.7252,-138.0401 -78.8079,-268.2637 -182.7051,-360.0371 -103.8972,-91.7734 -241.2828,-141.2759 -379.8379,-136.8633 a 70.007,70.007 0 1 0 4.457,139.9277 c 101.742,-3.2402 206.4049,34.4735 282.6973,101.8633 76.2924,67.3898 126.6363,166.5973 135.9805,267.961 9.117,98.8988 -20.8727,202.9264 -82.3184,279.207 -61.2219,76.0029 -156.85,126.7233 -252.9336,132.3496 -66.9828,3.9222 -135.9939,-13.3789 -191.6367,-48.9101 -55.4872,-35.432 -99.5692,-90.6636 -120.3535,-152.0059 -16.471,-48.6121 -20.3753,-105.9602 -20.4805,-167.6211 -0.1054,-61.8032 3.4396,-129.1912 -5.707,-200.8887 -10.3784,-81.354 -37.9391,-165.5199 -95.2305,-234.4629 -28.7045,-34.5423 -64.3486,-64.3634 -106.2265,-85.3984 -42.023,-21.1079 -89.387,-32.8052 -138.3164,-31.2246 -71.8985,2.3225 -137.2394,32.7446 -187.8848,77.1992 -40.0525,35.1566 -69.9773,77.9735 -91.9004,123.2734 -8.3484,-13.1677 -17.2353,-26.0692 -27.0703,-38.4335 l 0,-0 c -48.1878,-60.5798 -112.1483,-107.4174 -184.4297,-135.0879 -54.0653,-20.6971 -111.2223,-30.2328 -168.0254,-29.7402 z"
       id="path4370-92-6-1-7-5-7-8-9"
       inkscape:connector-curvature="0" />
  </g>
</svg>
