<?xml version="1.0" encoding="UTF-8" standalone="no"?>
<!-- Created with Inkscape (http://www.inkscape.org/) -->

<svg
   xmlns:dc="http://purl.org/dc/elements/1.1/"
   xmlns:cc="http://creativecommons.org/ns#"
   xmlns:rdf="http://www.w3.org/1999/02/22-rdf-syntax-ns#"
   xmlns:svg="http://www.w3.org/2000/svg"
   xmlns="http://www.w3.org/2000/svg"
   xmlns:sodipodi="http://sodipodi.sourceforge.net/DTD/sodipodi-0.dtd"
   xmlns:inkscape="http://www.inkscape.org/namespaces/inkscape"
   width="2000"
   height="2048"
   id="svg2992"
   version="1.1"
   inkscape:version="0.91pre3 r13670"
   sodipodi:docname="സ്ര.svg">
  <defs
     id="defs5498">
    <inkscape:path-effect
       effect="spiro"
       id="path-effect4150"
       is_visible="true" />
    <inkscape:path-effect
       effect="spiro"
       id="path-effect3846"
       is_visible="true" />
    <inkscape:path-effect
       effect="spiro"
       id="path-effect3801"
       is_visible="true" />
    <inkscape:path-effect
       effect="spiro"
       id="path-effect4372-52-4-6-8"
       is_visible="true" />
    <inkscape:path-effect
       effect="spiro"
       id="path-effect4150-1"
       is_visible="true" />
    <inkscape:path-effect
       effect="spiro"
       id="path-effect4372-52-4-6-8-7"
       is_visible="true" />
  </defs>
  <sodipodi:namedview
     inkscape:window-height="853"
     inkscape:window-width="1600"
     inkscape:pageshadow="2"
     inkscape:pageopacity="0.0"
     borderopacity="1.0"
     bordercolor="#666666"
     pagecolor="#ffffff"
     id="base"
     showgrid="true"
     showguides="true"
     inkscape:guide-bbox="true"
     inkscape:zoom="0.32"
     inkscape:cx="1093.1038"
     inkscape:cy="-1099.3038"
     inkscape:window-x="1598"
     inkscape:window-y="-3"
     inkscape:current-layer="layer1"
     inkscape:window-maximized="1">
    <sodipodi:guide
       orientation="horizontal"
       position="0,600"
       id="guide5596" />
    <inkscape:grid
       type="xygrid"
       id="grid3769"
       empspacing="3"
       visible="true"
       enabled="true"
       snapvisiblegridlinesonly="true"
       spacingx="4px"
       units="px"
       dotted="true"
       spacingy="4px" />
    <sodipodi:guide
       orientation="0,1"
       position="-1040,1600"
       id="guide2985" />
  </sodipodi:namedview>
  <metadata
     id="metadata5594">
    <rdf:RDF>
      <cc:Work
         rdf:about="">
        <dc:format>image/svg+xml</dc:format>
        <dc:type
           rdf:resource="http://purl.org/dc/dcmitype/StillImage" />
        <dc:title />
      </cc:Work>
    </rdf:RDF>
  </metadata>
  <g
     inkscape:label="Layer 1"
     inkscape:groupmode="layer"
     id="layer1"
     transform="translate(0,1048)">
    <path
       style="color:#000000;font-style:normal;font-variant:normal;font-weight:normal;font-stretch:normal;font-size:medium;line-height:normal;font-family:sans-serif;text-indent:0;text-align:start;text-decoration:none;text-decoration-line:none;text-decoration-style:solid;text-decoration-color:#000000;letter-spacing:normal;word-spacing:normal;text-transform:none;direction:ltr;block-progression:tb;writing-mode:lr-tb;baseline-shift:baseline;text-anchor:start;white-space:normal;clip-rule:nonzero;display:inline;overflow:visible;visibility:visible;opacity:1;isolation:auto;mix-blend-mode:normal;color-interpolation:sRGB;color-interpolation-filters:linearRGB;solid-color:#000000;solid-opacity:1;fill:#000000;fill-opacity:1;fill-rule:evenodd;stroke:none;stroke-width:140;stroke-linecap:round;stroke-linejoin:round;stroke-miterlimit:4;stroke-dasharray:none;stroke-dashoffset:0;stroke-opacity:1;color-rendering:auto;image-rendering:auto;shape-rendering:auto;text-rendering:auto;enable-background:accumulate"
       d="M 1387.6621 426.80859 C 1385.0951 426.78876 1382.5324 426.79621 1379.9746 426.83008 L 1379.9707 426.83008 C 1225.2813 428.87838 1087.586 524.43505 1017.5605 658.14258 C 940.86027 544.21501 819.51396 460.83103 676.53516 441.95898 C 677.19077 442.07751 677.84629 442.18712 678.50195 442.30859 L 674.62305 441.70117 C 675.26196 441.78282 675.8971 441.87477 676.53516 441.95898 C 388.52765 389.89055 105.24296 621.73384 97.505859 913.88086 C 76.06108 1203.8081 331.51099 1461.2848 621.75781 1442.041 A 70.007 70.007 0 1 0 612.49609 1302.3477 C 412.45542 1315.6106 221.46512 1122.5691 237.17969 922.7207 A 70.007 70.007 0 0 0 237.37695 918.81641 C 241.94087 717.17234 454.60709 543.21135 652.99805 579.9668 A 70.007 70.007 0 0 0 656.87695 580.57227 C 819.72536 601.38223 950.8605 754.55206 963.83203 916.81055 C 962.77902 941.22689 962.27433 965.51433 961.85938 989.77734 A 70.007 70.007 0 0 0 961.76172 992.9707 C 961.76472 993.6263 961.76653 994.2819 961.76953 994.9375 C 960.65174 1066.8277 961.69133 1137.9109 962.6875 1208.2773 C 962.92501 1263.5548 963.16287 1318.8319 963.40039 1374.1094 A 70.007 70.007 0 0 0 1103.3926 1374.707 C 1103.4026 1374.306 1103.3931 1373.9088 1103.4023 1373.5078 C 1103.4026 1373.4863 1103.4021 1373.465 1103.4023 1373.4434 C 1104.1944 1310.0102 1103.4203 1247.3657 1102.5938 1185.1152 C 1102.335 1124.9035 1102.077 1064.6922 1101.8184 1004.4805 C 1101.8614 1000.9305 1101.9355 997.39279 1101.9902 993.84766 C 1105.0256 966.92546 1105.72 940.08256 1104.25 913.52344 C 1105.6195 883.64521 1107.5353 853.93705 1110.2969 824.4375 C 1126.4018 675.8553 1275.5054 546.36558 1423.6758 569.85742 A 70.007 70.007 0 0 0 1427.7539 570.38086 C 1560.8945 583.53659 1672.8862 719.12805 1662.3652 852.91602 A 70.007 70.007 0 0 0 1662.2305 855.00977 C 1658.9422 922.74938 1649.6124 1003.8621 1657.6367 1087.4395 C 1665.6185 1170.5737 1693.9342 1260.1446 1767.3457 1327.791 C 1870.6442 1428.8186 2013.1537 1457.2769 2142.8008 1433.7188 C 2241.3829 1415.8054 2335.3225 1369.078 2407.3965 1298.4414 C 2384.4432 1406.2605 2340.7275 1506.0655 2268.3711 1587.416 A 70.007 70.007 0 0 0 2267.8887 1587.9629 C 2142.8932 1731.4752 1933.156 1768.269 1732.2715 1761.1152 A 70.007 70.007 0 0 0 1729.7656 1761.0703 C 1379.9416 1761.1413 1031.4623 1768.9918 684.58789 1763.1777 A 70.007 70.007 0 0 0 684.55664 1763.1758 C 459.04341 1759.4948 232.66776 1671.7519 89.896484 1501.2715 A 70.007 70.007 0 0 0 88.667969 1499.8418 C -140.59637 1240.5969 -170.43564 829.93139 17.083984 539.05273 A 70.007 70.007 0 0 0 -44.183594 430.34961 A 70.007 70.007 0 0 0 -100.58398 463.19727 C -323.64513 809.20758 -289.36366 1283.4645 -16.416016 1592.3359 C 157.5544 1799.2379 422.7203 1898.9216 682.27148 1903.1582 L 682.24023 1903.1562 C 1032.6464 1909.0295 1381.7821 1901.149 1729.3828 1901.0723 C 1949.7494 1908.629 2206.7871 1871.0282 2373.2266 1680.1699 C 2558.2455 1471.9233 2586.6433 1189.0483 2560 935.28906 C 2558.3464 761.55988 2468.0462 589.32018 2306.2402 503.7793 C 2236.2163 464.45251 2156.993 441.69391 2075.873 439.42383 A 70.007 70.007 0 1 0 2071.957 579.36914 C 2129.5592 580.9811 2187.5533 597.52095 2238.3613 626.19336 A 70.007 70.007 0 0 0 2240.1895 627.18945 C 2416.2837 719.77151 2473.4047 984.59125 2354.5742 1143.3574 A 70.007 70.007 0 0 0 2352.2148 1146.7129 C 2301.874 1222.9002 2211.509 1278.9416 2117.7715 1295.9746 C 2024.0339 1313.0077 1931.8055 1293.2042 1864.7363 1227.2617 A 70.007 70.007 0 0 0 1862.8379 1225.4629 C 1819.7645 1186.1678 1803.1059 1137.6971 1796.9961 1074.0605 C 1790.9108 1010.679 1798.4176 936.28188 1802.0215 862.68555 C 1801.9911 863.08736 1801.9652 863.4887 1801.9336 863.89062 L 1802.0664 861.79688 C 1802.052 862.09292 1802.036 862.38948 1802.0215 862.68555 C 1818.1213 649.45315 1655.6486 452.58431 1442.1387 431.13672 C 1423.8202 428.40045 1405.6313 426.94745 1387.6621 426.80859 z "
       transform="translate(0,-1048)"
       id="path4370-92-6-1-7" />
    <path
       style="fill:none;fill-rule:evenodd;stroke:#000000;stroke-width:140;stroke-linecap:round;stroke-linejoin:round;stroke-miterlimit:4;stroke-dasharray:none;stroke-opacity:1"
       d="m 865.0014,2098.8189 c -112.8512,4.4355 -226.83673,-37.3855 -310.04151,-113.7532 -83.20477,-76.3677 -134.62215,-186.3584 -139.85565,-299.1754 -5.19882,-112.0694 35.21167,-225.592 110.05103,-309.1722 74.83936,-83.5802 183.2251,-136.2342 295.18553,-143.4066 124.63611,-7.9844 251.8032,41.0803 338.777,130.7098 86.9739,89.6296 132.1926,218.2144 120.4642,342.5541 l 1.6923,393.859 -1.8986,-389.3498 c -0.2725,-55.8796 -0.066,-112.0536 9.1492,-167.1688 9.2152,-55.1151 27.5171,-109.0627 57.177,-156.4219 29.6599,-47.3592 70.5426,-87.7633 118.756,-116.0133 48.2135,-28.25 103.4622,-44.2672 159.2911,-46.662 78.4469,-3.3651 157.9611,20.5659 220.9317,67.4695 62.9705,46.9036 108.8013,116.5784 125.9729,193.1968 14.6517,65.375 8.8228,133.3411 4.509,200.1988 -4.3138,66.8577 -6.8154,135.5457 13.9902,199.23 14.6563,44.8619 40.704,85.8214 74.3787,118.8882 33.6747,33.0668 74.8724,58.264 119.2986,74.1926 88.8523,31.8571 189.1987,25.729 276.868,-9.2525 79.4943,-31.7195 149.6023,-86.772 198.7894,-156.8156 49.1871,-70.0435 77.1971,-154.8548 78.8145,-240.4285 2.103,-111.2673 -41.323,-222.7252 -118.148,-303.2407 -76.825,-80.5156 -186.1244,-129.1195 -297.3679,-132.2356"
       id="path4370-92-6-1-7-5"
       inkscape:path-effect="#path-effect4372-52-4-6-8-7"
       inkscape:original-d="M 865.0014,2098.8189 C 454.81691,2085.1461 425.06975,1889.2027 415.10424,1685.8903 405.19062,1483.6364 617.8848,1237.371 820.3408,1233.3115 c 219.7742,-4.4067 370.3466,247.5123 459.2412,473.2639 l 1.6923,393.859 -1.8986,-389.3498 c 4.6461,-117.9564 148.1378,-455.5846 344.3733,-486.266 142.9051,-22.3432 279.3005,132.7962 346.9046,260.6663 62.2967,117.8312 -59.1959,291.1304 18.4992,399.4288 98.1599,136.8241 309.388,232.6597 470.5453,183.8283 154.6022,-46.8451 289.8702,-236.1669 277.6039,-397.2441 -15.2347,-200.0567 -415.5159,-435.4763 -415.5159,-435.4763"
       inkscape:connector-curvature="0"
       sodipodi:nodetypes="caacccaaaaac" />
    <path
       style="fill:none;fill-rule:evenodd;stroke:#000000;stroke-width:140;stroke-linecap:round;stroke-linejoin:round;stroke-miterlimit:4;stroke-dasharray:none;stroke-opacity:1"
       d="m 2725.125,1571.5 c 20.2417,111.6791 25.888,225.9948 16.75,339.125 -7.5339,93.2718 -25.4483,186.3584 -61.5416,272.693 -36.0934,86.3346 -90.8867,165.2958 -162.0498,226.0594 -71.163,60.7636 -157.895,102.2391 -248.9102,123.9789 -91.0152,21.7398 -185.4243,23.7506 -278.9984,24.2687 l -903.125,5 c -165.83369,0.9181 -335.30807,-5.9689 -489.59781,-66.7664 C 443.36244,2435.0612 309.86907,2324.5223 218.125,2186.375 124.68751,2045.6778 72.84663,1877.7165 70.732552,1708.8324 68.618474,1539.9484 116.23872,1370.7421 206.125,1227.75"
       id="path4148-7"
       inkscape:path-effect="#path-effect4150-1"
       inkscape:original-d="m 2725.125,1571.5 c 0,0 61.3776,235.1155 16.75,339.125 -130.3381,303.7669 -430.4492,645.2226 -751.5,647 l -903.125,5 c -363.9158,2.0148 -694.17453,-113.4714 -869.125,-376.25 -177.09881,-266.0054 -12,-958.625 -12,-958.625"
       inkscape:connector-curvature="0"
       sodipodi:nodetypes="cassac" />
  </g>
</svg>
