<?xml version="1.0" encoding="UTF-8" standalone="no"?>
<!-- Created with Inkscape (http://www.inkscape.org/) -->

<svg
   xmlns:dc="http://purl.org/dc/elements/1.1/"
   xmlns:cc="http://creativecommons.org/ns#"
   xmlns:rdf="http://www.w3.org/1999/02/22-rdf-syntax-ns#"
   xmlns:svg="http://www.w3.org/2000/svg"
   xmlns="http://www.w3.org/2000/svg"
   xmlns:sodipodi="http://sodipodi.sourceforge.net/DTD/sodipodi-0.dtd"
   xmlns:inkscape="http://www.inkscape.org/namespaces/inkscape"
   width="2000"
   height="2048"
   id="svg2992"
   version="1.1"
   inkscape:version="0.91pre2 r13516"
   sodipodi:docname="സ്ത്ര.svg">
  <defs
     id="defs5498">
    <inkscape:path-effect
       effect="spiro"
       id="path-effect3846"
       is_visible="true" />
    <inkscape:path-effect
       effect="spiro"
       id="path-effect3801"
       is_visible="true" />
    <inkscape:path-effect
       effect="spiro"
       id="path-effect4888"
       is_visible="true" />
    <inkscape:path-effect
       effect="spiro"
       id="path-effect4372-52"
       is_visible="true" />
    <inkscape:path-effect
       effect="spiro"
       id="path-effect4372-52-6"
       is_visible="true" />
    <inkscape:path-effect
       effect="spiro"
       id="path-effect4888-9"
       is_visible="true" />
  </defs>
  <sodipodi:namedview
     inkscape:window-height="853"
     inkscape:window-width="1600"
     inkscape:pageshadow="2"
     inkscape:pageopacity="0.0"
     borderopacity="1.0"
     bordercolor="#666666"
     pagecolor="#ffffff"
     id="base"
     showgrid="true"
     showguides="true"
     inkscape:guide-bbox="true"
     inkscape:zoom="0.227"
     inkscape:cx="-276.15485"
     inkscape:cy="951.40138"
     inkscape:window-x="1598"
     inkscape:window-y="-3"
     inkscape:current-layer="layer1"
     inkscape:window-maximized="1">
    <sodipodi:guide
       orientation="horizontal"
       position="0,600"
       id="guide5596" />
    <inkscape:grid
       type="xygrid"
       id="grid3769"
       empspacing="3"
       visible="true"
       enabled="true"
       snapvisiblegridlinesonly="true"
       spacingx="4px"
       units="px"
       dotted="true"
       spacingy="4px" />
    <sodipodi:guide
       orientation="0,1"
       position="-1040,1600"
       id="guide2985" />
  </sodipodi:namedview>
  <metadata
     id="metadata5594">
    <rdf:RDF>
      <cc:Work
         rdf:about="">
        <dc:format>image/svg+xml</dc:format>
        <dc:type
           rdf:resource="http://purl.org/dc/dcmitype/StillImage" />
        <dc:title />
      </cc:Work>
    </rdf:RDF>
  </metadata>
  <g
     inkscape:label="Layer 1"
     inkscape:groupmode="layer"
     id="layer1"
     transform="translate(0,1048)">
    <path
       style="color:#000000;font-style:normal;font-variant:normal;font-weight:normal;font-stretch:normal;font-size:medium;line-height:normal;font-family:sans-serif;text-indent:0;text-align:start;text-decoration:none;text-decoration-line:none;text-decoration-style:solid;text-decoration-color:#000000;letter-spacing:normal;word-spacing:normal;text-transform:none;direction:ltr;block-progression:tb;writing-mode:lr-tb;baseline-shift:baseline;text-anchor:start;clip-rule:nonzero;display:inline;overflow:visible;visibility:visible;opacity:1;isolation:auto;mix-blend-mode:normal;color-interpolation:sRGB;color-interpolation-filters:linearRGB;solid-color:#000000;solid-opacity:1;fill:#000000;fill-opacity:1;fill-rule:nonzero;stroke:none;stroke-width:136.11326599;stroke-linecap:round;stroke-linejoin:round;stroke-miterlimit:4;stroke-dasharray:none;stroke-dashoffset:0;stroke-opacity:1;color-rendering:auto;image-rendering:auto;shape-rendering:auto;text-rendering:auto;enable-background:accumulate"
       d="M -48.353516 429.26172 C -50.647653 429.26429 -52.940251 429.28194 -55.232422 429.31641 C -192.76265 431.38421 -326.3993 490.84056 -419.68555 592.53906 C -519.19089 701.01745 -566.8566 851.09307 -548.18359 997.10742 C -529.51059 1143.1218 -445.60981 1276.374 -322.00781 1356.3203 C -198.40582 1436.2667 -42.468298 1458.1441 98.361328 1415.2969 C 134.81663 1404.7442 155.59948 1366.4141 144.55273 1330.1055 C 133.50598 1293.7969 94.897456 1273.5374 58.742188 1285.0762 C -42.144602 1315.7709 -159.54059 1299.3008 -248.08594 1242.0293 C -336.63128 1184.7577 -399.79305 1084.4428 -413.16992 979.8418 C -426.54679 875.2408 -390.66202 762.25804 -319.37891 684.54688 C -248.0958 606.83569 -138.62418 561.35354 -33.259766 565.67188 C 17.569509 567.75509 67.857618 580.80199 111.53125 604.14062 C 155.06636 627.40525 193.29371 661.82133 221.10547 702.7168 C 248.92741 743.62723 267.47925 792.69192 276.88672 844.32227 C 286.30952 896.03673 286.88609 952.69574 286.50586 1012.7871 L 284.16992 1382.0391 C 284.17892 1419.1345 313.88938 1449.3927 350.97852 1450.0762 C 388.06766 1450.7597 418.87466 1421.6168 420.25 1384.5469 L 432.26758 991.03711 C 432.42969 985.72694 431.96952 980.41604 430.89648 975.21289 C 413.51344 890.93037 431.66248 797.46234 479.32227 725.80859 C 526.98205 654.15485 606.16891 601.28545 690.61914 584.73633 C 760.61547 571.01964 836.19596 582.09355 894.36328 617.23438 C 951.75502 651.9066 994.72133 714.01872 1002.9297 777.30859 C 1008.7327 822.05225 998.94601 874.64652 985.71484 932.82422 C 972.41633 991.29807 955.47102 1057.9097 961.25 1132.2715 C 966.12243 1194.9682 987.5423 1255.1363 1022.1562 1306.8652 C 1056.7344 1358.5407 1103.641 1400.6381 1157.6836 1430.0547 C 1164.7349 1433.8929 1171.8801 1437.4927 1179.1055 1440.8672 C 1139.4212 1470.5523 1105.3351 1507.5203 1079.3184 1550.7148 C 1030.3603 1634.6374 1014.1261 1734.8631 1034.0898 1829.9492 C 1054.0535 1925.0353 1109.2247 2010.2698 1187.8008 2067.416 C 1247.1959 2110.6124 1317.744 2136.1073 1390.3711 2141.5469 C 1281.9827 2180.7874 1160.3914 2196.3954 1036.1348 2207.1914 C 748.1409 2232.2137 458.72349 2235.3761 183.5293 2174.1777 C -91.035452 2113.1193 -353.56958 1983.1538 -535.81055 1777.9727 C -683.20391 1612.0256 -776.23331 1396.8372 -796.14844 1175.7793 C -816.06357 954.72138 -762.99323 726.36853 -647.63281 536.75 C -634.66535 516.09889 -633.73624 490.08811 -645.19727 468.56445 C -656.65829 447.04079 -678.75806 433.29337 -703.13086 432.52539 C -727.98757 431.74262 -751.29241 444.57893 -763.91602 466.00586 C -894.77024 681.09163 -954.30278 937.24448 -931.71289 1187.9922 C -909.123 1438.7399 -804.76757 1680.1263 -637.57812 1868.3613 C -431.3722 2100.5241 -142.45125 2241.1237 153.98047 2307.0449 C 449.78273 2372.8262 753.16213 2368.4027 1047.918 2342.793 C 1203.9998 2329.2318 1370.0329 2308.9619 1522.1113 2233.1094 C 1598.3418 2195.0877 1669.8027 2143.1422 1726.5273 2075.2207 C 1783.4546 2007.0566 1824.3825 1923.4743 1836.6738 1832.2559 C 1849.224 1739.1166 1830.7985 1643.1683 1783.582 1561.4336 C 1742.2413 1489.87 1680.1428 1431.6272 1606.0117 1395.2109 C 1672.5052 1347.1628 1725.4886 1281.7108 1759.877 1207.5723 C 1809.3823 1100.8426 1819.4217 980.33012 1795.8828 867.62891 C 1755.6791 675.1383 1616.9584 510.56496 1434.0488 438.36328 C 1398.9301 423.90575 1358.7726 440.98503 1344.8281 476.31055 C 1330.8836 511.63607 1348.5474 551.54029 1384.0723 564.96875 C 1522.1685 619.48085 1632.2908 750.1271 1662.6445 895.45703 C 1680.5662 981.26377 1672.2252 1073.0634 1636.4004 1150.2988 C 1600.7842 1227.0845 1535.6471 1291.4718 1459.2637 1321.8125 C 1383.4958 1351.9087 1292.2721 1348.344 1222.7578 1310.5059 C 1187.7432 1291.4467 1157.0896 1263.7644 1135.2793 1231.1699 C 1113.5047 1198.6289 1099.9369 1160.1188 1096.9531 1121.7246 C 1093.3679 1075.5914 1104.936 1022.3849 1118.4395 963.00977 C 1132.0103 903.33851 1147.6535 834.91354 1137.9121 759.80273 C 1123.7225 650.39439 1056.4097 556.10747 964.74609 500.73047 C 873.85813 445.82203 765.34125 431.39181 664.44336 451.16406 C 543.08443 474.94592 434.47764 547.45598 365.98828 650.42578 C 362.8572 655.13318 359.91894 659.94807 356.9707 664.75781 C 349.83086 651.61865 342.17007 638.69287 333.65625 626.17383 C 293.34837 566.90359 238.98464 517.91908 175.68359 484.0918 C 112.52105 450.33853 42.517599 432.54913 -27.685547 429.67188 C -34.579923 429.38931 -41.471104 429.25401 -48.353516 429.26172 z M 1426.8105 1489.6523 C 1460.1434 1489.8368 1493.5442 1495.945 1524.2969 1507.8652 C 1582.6863 1530.4979 1634.193 1574.9397 1665.7227 1629.5195 C 1697.2894 1684.1637 1710.2634 1751.1289 1701.7812 1814.0781 C 1697.8999 1842.884 1689.39 1871.4426 1677.3457 1898.8867 C 1653.0018 1893.5193 1627.6712 1901.8896 1611.3184 1920.7051 C 1569.7379 1967.2159 1508.676 1998.524 1446.6406 2005.1406 C 1384.6051 2011.7572 1318.3142 1994.0323 1267.8594 1957.3379 C 1217.4045 1920.6435 1180.1178 1863.0384 1167.2988 1801.9824 C 1154.4798 1740.9264 1165.45 1673.1887 1196.8867 1619.3008 C 1227.9501 1566.0528 1280.5293 1523.4255 1339.2988 1503.5078 C 1365.0448 1494.7822 1392.51 1490.1978 1420.1465 1489.6953 C 1422.3673 1489.6549 1424.5884 1489.64 1426.8105 1489.6523 z "
       transform="translate(0,-1048)"
       id="path4886" />
    <path
       style="fill:none;fill-rule:evenodd;stroke:#000000;stroke-width:136.11326599;stroke-linecap:round;stroke-linejoin:round;stroke-miterlimit:4;stroke-dasharray:none;stroke-opacity:1"
       d="m -2854.8411,318.99727 c -120.8582,36.77101 -257.5244,17.5971 -363.5981,-51.01186 -106.0737,-68.60897 -179.6057,-185.392256 -195.6306,-310.699945 -16.025,-125.307685 25.7516,-256.837185 111.1459,-349.931965 85.3942,-93.09478 212.837,-146.04419 339.0592,-140.87099 60.5162,2.48025 120.6616,17.89836 174.0797,46.44431 53.4181,28.54596 99.7141,70.24651 133.7739,120.32936 34.0598,50.08285 55.6022,108.09144 66.4592,167.6774 10.8571,59.58596 11.1048,120.529775 10.7216,181.095573 l -2.3364,369.250217 12.018,-393.508747 c -21.1816,-102.700233 0.3375,-213.531573 58.4121,-300.843333 58.0745,-87.31176 151.9714,-150.00174 254.876,-170.16724 85.4471,-16.74448 177.495,-3.99196 252.0226,41.03267 74.5277,45.02462 129.6675,123.22478 140.8665,209.5739 7.7722,59.92723 -4.9431,120.43627 -18.3441,179.360748 -13.401,58.924473 -27.6573,118.834236 -22.9752,179.081705 3.9281,50.545467 21.4223,99.884007 49.6166,142.018987 28.1942,42.13498 66.974,77.02453 111.5026,101.26243 89.0573,48.47582 199.9337,52.21297 294.1675,14.78185 94.2338,-37.43112 171.0852,-114.14415 213.7503,-206.12669 42.6651,-91.982538 51.8564,-198.137703 31.1261,-297.39168 -35.2787,-168.91027 -159.7013,-316.52007 -320.2042,-379.87696"
       id="path4370-92-3"
       inkscape:path-effect="#path-effect4372-52-6"
       inkscape:original-d="m -2854.8411,318.99727 c 0,0 -321.528,-799.89352 -109.0236,-852.51476 132.0471,-32.69834 386.2875,317.5583 385.0344,515.546643 l -2.3364,369.250217 c -3.4559,-40.0232 -18.3836,-261.523297 12.018,-393.508747 157.9134,-71.974713 322.8991,-513.926853 313.2881,-471.010573 -63.7002,331.32083 431.3112,-115.76858 392.8891,250.60657 -14.5822,139.04217 -256.9136,11.50497 -41.3193,358.442453 215.5929,346.937497 409.5154,26.679097 700.1631,-245.455103 290.64864,-272.135 -320.2042,-379.87696 -320.2042,-379.87696"
       inkscape:connector-curvature="0"
       sodipodi:nodetypes="csscccsssc" />
    <path
       style="fill:none;fill-rule:evenodd;stroke:#000000;stroke-width:136.11326599;stroke-linecap:round;stroke-linejoin:round;stroke-miterlimit:4;stroke-dasharray:none;stroke-opacity:1"
       d="m -1271.337,934.87387 c -53.1678,59.47225 -128.873,98.28893 -208.1963,106.74943 -79.3234,8.4605 -161.5126,-13.5153 -226.0281,-60.43565 -64.5155,-46.92031 -110.7456,-118.34012 -127.1369,-196.41119 -16.3914,-78.07107 -2.7886,-162.05303 37.4088,-230.95829 39.6816,-68.02107 104.7684,-120.67875 179.351,-145.95572 74.5827,-25.27697 158.0132,-23.10497 231.4397,5.3563 73.4265,28.46127 136.3675,82.8792 175.7591,151.06864 39.3916,68.18944 55.0914,149.646 44.5752,227.69028 -10.3304,76.66548 -45.348,149.05315 -94.9352,208.42843 -49.5872,59.3752 -113.3309,106.084 -182.5562,140.6118 -138.4507,69.0554 -295.5739,89.3924 -449.7099,102.7845 -291.3748,25.316 -587.773,29.1093 -873.2712,-34.3805 -285.4982,-63.4898 -561.2262,-198.7722 -755.4496,-417.44423 -157.2914,-177.091 -255.9842,-405.37945 -277.2367,-641.28225 -21.2525,-235.902805 35.0492,-478.15474 158.1565,-680.5069"
       id="path4886-6"
       inkscape:path-effect="#path-effect4888-9"
       inkscape:original-d="m -1271.337,934.87387 c 0,0 1107.91233,17.1447 -523.9525,-381.0557 -130.8841,-31.938 857.37774,-107.1725 631.125,238.1595 -136.5254,208.38073 -30.3386,476.30183 -727.2013,451.82473 -457.9911,-16.0869 -1458.7121,-168.4769 -1628.7208,-451.82473 -428.6885,-714.480097 -119.0802,-1321.78915 -119.0802,-1321.78915"
       inkscape:connector-curvature="0"
       sodipodi:nodetypes="cssssc" />
  </g>
</svg>
