<?xml version="1.0" encoding="UTF-8" standalone="no"?>
<!-- Created with Inkscape (http://www.inkscape.org/) -->

<svg
   xmlns:dc="http://purl.org/dc/elements/1.1/"
   xmlns:cc="http://creativecommons.org/ns#"
   xmlns:rdf="http://www.w3.org/1999/02/22-rdf-syntax-ns#"
   xmlns:svg="http://www.w3.org/2000/svg"
   xmlns="http://www.w3.org/2000/svg"
   xmlns:sodipodi="http://sodipodi.sourceforge.net/DTD/sodipodi-0.dtd"
   xmlns:inkscape="http://www.inkscape.org/namespaces/inkscape"
   width="2000"
   height="2048"
   id="svg2992"
   version="1.1"
   inkscape:version="0.91pre3 r13670"
   sodipodi:docname="സ്ത്ര.svg">
  <defs
     id="defs5498">
    <inkscape:path-effect
       effect="spiro"
       id="path-effect3846"
       is_visible="true" />
    <inkscape:path-effect
       effect="spiro"
       id="path-effect3801"
       is_visible="true" />
    <inkscape:path-effect
       effect="spiro"
       id="path-effect4888"
       is_visible="true" />
    <inkscape:path-effect
       effect="spiro"
       id="path-effect4372-52"
       is_visible="true" />
    <inkscape:path-effect
       effect="spiro"
       id="path-effect4372-52-6"
       is_visible="true" />
    <inkscape:path-effect
       effect="spiro"
       id="path-effect4888-9"
       is_visible="true" />
    <inkscape:path-effect
       effect="spiro"
       id="path-effect4372-52-4-6-8"
       is_visible="true" />
    <inkscape:path-effect
       effect="spiro"
       id="path-effect4372-52-4-6-8-0"
       is_visible="true" />
    <inkscape:path-effect
       effect="spiro"
       id="path-effect4888-9-3"
       is_visible="true" />
    <inkscape:path-effect
       effect="spiro"
       id="path-effect4888-9-3-9"
       is_visible="true" />
    <inkscape:path-effect
       effect="spiro"
       id="path-effect4372-52-4-6-8-0-6"
       is_visible="true" />
  </defs>
  <sodipodi:namedview
     inkscape:window-height="853"
     inkscape:window-width="1600"
     inkscape:pageshadow="2"
     inkscape:pageopacity="0.0"
     borderopacity="1.0"
     bordercolor="#666666"
     pagecolor="#ffffff"
     id="base"
     showgrid="true"
     showguides="true"
     inkscape:guide-bbox="true"
     inkscape:zoom="0.227"
     inkscape:cx="978.95139"
     inkscape:cy="-185.16249"
     inkscape:window-x="1598"
     inkscape:window-y="-3"
     inkscape:current-layer="layer1"
     inkscape:window-maximized="1">
    <sodipodi:guide
       orientation="horizontal"
       position="0,600"
       id="guide5596" />
    <inkscape:grid
       type="xygrid"
       id="grid3769"
       empspacing="3"
       visible="true"
       enabled="true"
       snapvisiblegridlinesonly="true"
       spacingx="4px"
       units="px"
       dotted="true"
       spacingy="4px" />
    <sodipodi:guide
       orientation="0,1"
       position="-1040,1600"
       id="guide2985" />
  </sodipodi:namedview>
  <metadata
     id="metadata5594">
    <rdf:RDF>
      <cc:Work
         rdf:about="">
        <dc:format>image/svg+xml</dc:format>
        <dc:type
           rdf:resource="http://purl.org/dc/dcmitype/StillImage" />
        <dc:title />
      </cc:Work>
    </rdf:RDF>
  </metadata>
  <g
     inkscape:label="Layer 1"
     inkscape:groupmode="layer"
     id="layer1"
     transform="translate(0,1048)">
    <path
       style="color:#000000;font-style:normal;font-variant:normal;font-weight:normal;font-stretch:normal;font-size:medium;line-height:normal;font-family:sans-serif;text-indent:0;text-align:start;text-decoration:none;text-decoration-line:none;text-decoration-style:solid;text-decoration-color:#000000;letter-spacing:normal;word-spacing:normal;text-transform:none;direction:ltr;block-progression:tb;writing-mode:lr-tb;baseline-shift:baseline;text-anchor:start;white-space:normal;clip-rule:nonzero;display:inline;overflow:visible;visibility:visible;opacity:1;isolation:auto;mix-blend-mode:normal;color-interpolation:sRGB;color-interpolation-filters:linearRGB;solid-color:#000000;solid-opacity:1;fill:#000000;fill-opacity:1;fill-rule:evenodd;stroke:none;stroke-width:136.11326599;stroke-linecap:round;stroke-linejoin:round;stroke-miterlimit:4;stroke-dasharray:none;stroke-dashoffset:0;stroke-opacity:1;color-rendering:auto;image-rendering:auto;shape-rendering:auto;text-rendering:auto;enable-background:accumulate"
       d="m -75.957031,-606.51367 a 68.063439,68.063439 0 0 0 -57.904299,38.24805 c -177.79807,353.27222 -175.90589,787.2472 6.32617,1138.5664 157.054812,312.60928 467.73353,538.53472 817.81836,579.93942 281.3692,36.6973 560.4132,24.6799 832.2363,33.8614 a 68.063439,68.063439 0 0 0 2.9922,0.035 c 240.9753,-2.4583 512.4119,43.7327 771.7344,-63.5039 93.7386,-36.4944 173.0722,-107.811 220.6016,-196.95116 47.5957,-89.26462 61.6399,-201.19955 12.3574,-303.59375 l 1.4258,3.16406 C 2451.1488,431.61542 2221.7533,361.37367 2041.5312,425.5293 c -23.948,-8.52495 -48.6094,-14.77327 -73.4843,-18.42383 -114.3464,-16.78108 -237.7798,14.43742 -324.8535,100.2793 -148.4703,125.71912 -135.6626,378.43087 39.7089,475.78515 a 68.063439,68.063439 0 1 0 66.0645,-119.00586 c -86.6611,-48.10831 -92.0066,-191.65314 -16.5957,-254.03515 a 68.063439,68.063439 0 0 0 4.8691,-4.44141 c 36.8091,-37.00171 88.871,-59.15216 143.2188,-65.04102 -10.4332,13.52 -20.0101,28.05062 -28.6133,43.59766 -48.5661,76.63184 -52.9774,170.89821 -23.5371,252.2832 29.8694,82.57145 105.7321,156.83538 209.416,160.52149 a 68.063439,68.063439 0 0 0 2.75,0.041 c 98.9187,-0.48053 174.0522,-68.12133 206.5938,-145.00976 32.2951,-76.30608 33.6716,-165.30253 -4.6368,-241.66016 -10.1307,-24.14668 -22.8558,-46.15007 -37.6015,-66.11914 85.9971,8.07146 168.2502,52.94798 201.3047,131.6543 a 68.063439,68.063439 0 0 0 1.4238,3.16406 c 28.6288,59.48202 21.7099,121.39463 -9.8164,180.52148 -31.5264,59.12686 -89.3208,110.66156 -150.1328,134.26368 a 68.063439,68.063439 0 0 0 -1.4746,0.59179 c -213.7919,88.77311 -463.3803,51.07341 -720.4551,53.53321 -278.4655,-9.3353 -552.75803,1.8876 -818.42384,-32.834 a 68.063439,68.063439 0 0 0 -0.83789,-0.1055 C 404.63876,979.45184 130.256,780.50818 -6.0761719,508.87695 a 68.063439,68.063439 0 0 0 -0.4277343,-0.83593 C -167.82851,197.36492 -169.65843,-194.373 -12.279297,-507.07422 a 68.063439,68.063439 0 0 0 -63.677734,-99.43945 z M 2044.2031,576.67383 c 32.4335,20.94233 58.2906,50.42459 73.7129,88.5 a 68.063439,68.063439 0 0 0 2.4746,5.41601 c 17.3053,33.86897 18.2544,88.44451 1.3282,128.4375 -16.7326,39.53518 -39.9685,61.21206 -80.5215,61.89844 -44.3069,-2.07781 -69.2477,-27.45227 -84.8926,-70.70117 -15.8084,-43.70077 -10.9125,-100.62391 11.457,-134.77149 a 68.063439,68.063439 0 0 0 2.7481,-4.57617 c 17.5318,-31.98058 43.3128,-56.55211 73.6933,-74.20312 z"
       id="path4886-6-2"
       inkscape:connector-curvature="0" />
    <path
       style="color:#000000;font-style:normal;font-variant:normal;font-weight:normal;font-stretch:normal;font-size:medium;line-height:normal;font-family:sans-serif;text-indent:0;text-align:start;text-decoration:none;text-decoration-line:none;text-decoration-style:solid;text-decoration-color:#000000;letter-spacing:normal;word-spacing:normal;text-transform:none;direction:ltr;block-progression:tb;writing-mode:lr-tb;baseline-shift:baseline;text-anchor:start;white-space:normal;clip-rule:nonzero;display:inline;overflow:visible;visibility:visible;opacity:1;isolation:auto;mix-blend-mode:normal;color-interpolation:sRGB;color-interpolation-filters:linearRGB;solid-color:#000000;solid-opacity:1;fill:#000000;fill-opacity:1;fill-rule:evenodd;stroke:none;stroke-width:140;stroke-linecap:round;stroke-linejoin:round;stroke-miterlimit:4;stroke-dasharray:none;stroke-dashoffset:0;stroke-opacity:1;color-rendering:auto;image-rendering:auto;shape-rendering:auto;text-rendering:auto;enable-background:accumulate"
       d="m 1406.8652,-616.66992 c -160.1481,-4.06885 -305.893,92.83266 -378.5625,231.30859 -77.03412,-114.34796 -199.02797,-197.9096 -342.81637,-216.27148 l 3.88476,0.60742 C 400.67885,-654.51077 116.11271,-422.25076 108.375,-129.42578 86.949453,160.48962 342.38983,417.95019 632.62695,398.70703 a 70.007,70.007 0 1 0 -9.26172,-139.69336 c -200.04069,13.263 -391.03101,-179.780464 -375.3164,-379.6289 a 70.007,70.007 0 0 0 0.19726,-3.90235 c 4.56395,-201.64406 217.23016,-375.60702 415.6211,-338.85156 a 70.007,70.007 0 0 0 3.88476,0.60742 c 162.74284,20.78237 293.64035,173.65361 306.95703,335.75977 -1.08315,24.97357 -1.60127,49.816543 -2.01562,74.628903 a 70.007,70.007 0 0 0 -0.0586,2.738281 c 7.1e-4,0.166016 0.001,0.332032 0.002,0.498047 -1.1325,72.031583 -0.0861,143.247914 0.91797,213.742189 0.238,55.39 0.47686,110.77993 0.71484,166.16992 a 70.007,70.007 0 0 0 139.99217,0.60938 c 0.01,-0.405 7e-4,-0.80599 0.01,-1.21094 2e-4,-0.0144 -2e-4,-0.0286 0,-0.043 0.8061,-63.63993 0.022,-126.48159 -0.8125,-188.92578 -0.2587,-60.212926 -0.5167,-120.425766 -0.7754,-180.638674 0.037,-2.985033 0.1,-5.959806 0.1445,-8.941406 3.1383,-27.461164 3.8459,-54.84542 2.3028,-81.93359 1.3721,-29.7538 3.2867,-59.34097 6.0468,-88.7168 15.949,-152.64659 173.7036,-283.55149 324.9453,-252.80859 a 70.007,70.007 0 0 0 4.2696,0.73242 c 136.3175,19.02136 240.6178,165.23211 222.6914,302.25781 a 70.007,70.007 0 0 0 -0.3008,2.7168 c -6.415,70.272452 -13.5754,152.21435 -1.2441,234.992184 12.2567,82.277736 46.8846,168.407546 122.6269,230.304686 113.4769,98.81472 264.1331,117.93174 396.9356,82.85547 132.7061,-35.05084 253.0748,-122.57531 317.539,-248.01758 148.2904,-255.06181 22.2387,-606.65218 -258.0371,-704.80078 -52.0653,-20.01121 -107.5209,-31.54225 -163.8633,-33.11719 a 70.007,70.007 0 1 0 -3.9121,139.94532 c 40.2942,1.12634 80.8385,9.53079 118.9199,24.33984 a 70.007,70.007 0 0 0 2.2989,0.84961 c 191.9564,67.00846 285.5505,329.85969 182.5605,504.287109 a 70.007,70.007 0 0 0 -2.0723,3.769531 c -43.4697,85.17213 -132.5067,151.85156 -229.1855,177.38672 -96.6788,25.53516 -195.4323,11.56515 -269.748,-53.47266 a 70.007,70.007 0 0 0 -2.1075,-1.77343 c -44.5045,-35.95769 -64.4339,-82.44434 -73.4824,-143.185552 -9.0485,-60.741209 -4.1062,-132.648734 2.1914,-201.634768 l -0.3027,2.7168 c 28.0981,-214.77654 -122.5927,-427.62471 -340.8418,-458.85547 -21.5544,-4.20909 -42.9994,-6.59444 -64.1895,-7.13281 z"
       id="path4370-92-6-1-7-5"
       inkscape:connector-curvature="0" />
    <path
       style="fill:none;fill-rule:evenodd;stroke:#000000;stroke-width:136.11326599;stroke-linecap:round;stroke-linejoin:round;stroke-miterlimit:4;stroke-dasharray:none;stroke-opacity:1"
       d="m 1630.5068,2955.3489 c -37.3218,-22.5 -67.7394,-56.2838 -86.2131,-95.7539 -18.4736,-39.4701 -24.9295,-84.469 -18.2981,-127.5409 6.7133,-43.6033 26.6283,-84.7779 54.9044,-118.642 28.2761,-33.8641 64.7158,-60.5326 104.5962,-79.397 44.7796,-21.1818 94.219,-32.7098 143.7552,-32.4784 49.5361,0.2314 99.0979,12.3135 142.702,35.8202 43.6041,23.5066 81.1075,58.4843 106.7184,100.8867 25.6109,42.4024 39.1447,92.1697 37.5146,141.6796 -1.3814,41.9567 -13.9079,84.0818 -39.1101,117.6543 -25.2022,33.5726 -63.6164,57.8918 -105.355,62.3812 -22.5925,2.4301 -45.7146,-0.8878 -66.9219,-9.0474 -21.2072,-8.1596 -40.4924,-21.1088 -56.4814,-37.2543 -31.978,-32.291 -50.1415,-76.8904 -54.1802,-122.1561 -3.4905,-39.1207 3.1491,-79.0011 18.3366,-115.222 15.1876,-36.2209 38.8341,-68.7624 68.0209,-95.0444 58.3736,-52.5641 138.1096,-78.8611 216.656,-77.8988 79.0983,0.9691 158.389,29.3962 216.9952,82.5261 58.6063,53.1299 95.0512,131.2295 93.4951,210.3184 -0.8468,43.0355 -12.5892,85.6192 -32.3944,123.836 -19.8053,38.2168 -47.5569,72.1081 -79.9909,100.4065 -64.8681,56.597 -147.231,90.1492 -231.3094,108.6397 -149.1235,32.7953 -303.8132,24.5175 -456.4752,21.7508 L 946.31029,3138.8311 C 724.19286,3134.8057 496.14062,3117.4019 296.75757,3019.4287 97.374525,2921.4554 -63.084697,2751.5512 -161.76061,2552.515 c -162.47332,-327.7201 -161.22756,-731.7907 3.2634,-1058.5027"
       id="path4886-6-2-5"
       inkscape:path-effect="#path-effect4888-9-3-9"
       inkscape:original-d="m 1630.5068,2955.3489 c 25.2818,-6.4503 -114.3602,-141.7063 -104.5112,-223.2948 10.1583,-84.1501 76.2171,-182.2819 159.5006,-198.039 162.4345,-30.7324 399.8112,83.5015 430.6902,245.9081 14.3722,75.5895 -67.6981,174.8248 -144.4651,180.0355 -81.4038,5.5254 -177.5323,-86.8667 -177.5835,-168.4578 -0.087,-139.386 163.6277,-287.8775 303.0135,-288.1652 142.2679,-0.2936 309.5471,150.5795 310.4903,292.8445 1.0573,159.4876 -79.7895,298.5294 -343.6947,332.8822 -80.9049,10.5314 -307.1022,24.4579 -456.4752,21.7508 l -661.16141,-11.9821 c -338.124,-6.1277 -893.040603,-228.0106 -1108.0709,-586.3161 -181.56188,-302.5367 3.2634,-1058.5027 3.2634,-1058.5027"
       inkscape:connector-curvature="0"
       sodipodi:nodetypes="caaaaaaasssac" />
    <path
       style="fill:none;fill-rule:evenodd;stroke:#000000;stroke-width:140;stroke-linecap:round;stroke-linejoin:round;stroke-miterlimit:4;stroke-dasharray:none;stroke-opacity:1"
       d="M 542.56799,2360.5423 C 429.71677,2364.9778 315.73121,2323.1569 232.52642,2246.7892 149.32163,2170.4214 97.904257,2060.4307 92.670787,1947.6137 87.472,1835.5443 127.88253,1722.0218 202.72189,1638.4416 c 74.83937,-83.5801 183.2251,-136.2341 295.1855,-143.4065 124.63607,-7.9844 251.80307,41.0802 338.77692,130.7098 86.97385,89.6295 132.19264,218.2143 120.46428,342.5539 l 1.6923,393.859 -1.8986,-389.3498 c -0.27249,-55.8796 -0.0659,-112.0536 9.14925,-167.1687 9.21514,-55.1152 27.5171,-109.0628 57.17696,-156.4219 29.6599,-47.3592 70.5426,-87.7632 118.7561,-116.0132 48.2134,-28.25 103.4621,-44.2672 159.291,-46.662 78.4469,-3.365 157.9611,20.5659 220.9316,67.4695 62.9705,46.9035 108.8013,116.5784 125.9729,193.1967 14.6517,65.3749 8.8228,133.3411 4.509,200.1988 -4.3138,66.8576 -6.8154,135.5456 13.9902,199.2299 14.6563,44.862 40.704,85.8214 74.3787,118.8882 33.6748,33.0669 74.8725,58.264 119.2986,74.1926 88.8523,31.8571 189.1988,25.729 276.8681,-9.2525 79.4943,-31.7195 149.6023,-86.772 198.7894,-156.8156 49.1871,-70.0435 77.1971,-154.8548 78.8145,-240.4285 2.103,-111.2673 -41.323,-222.7252 -118.148,-303.2407 -76.8251,-80.5154 -186.1244,-129.1194 -297.3679,-132.2354"
       id="path4370-92-6-1-7-5-6"
       inkscape:path-effect="#path-effect4372-52-4-6-8-0-6"
       inkscape:original-d="m 542.56799,2360.5423 c -410.1845,-13.6728 -439.9317,-209.6162 -449.897203,-412.9286 -9.9136,-202.2538 202.780603,-448.5192 405.236603,-452.5786 219.7742,-4.4067 370.3466,247.5122 459.2412,473.2637 l 1.6923,393.859 -1.8986,-389.3498 c 4.6461,-117.9563 156.56201,-445.4024 344.37331,-486.2658 129.8816,-28.2593 279.3004,132.7962 346.9045,260.6662 62.2967,117.8312 -59.1959,291.1303 18.4992,399.4287 98.1599,136.8241 309.3881,232.6597 470.5454,183.8283 154.6022,-46.8451 289.8702,-236.1669 277.6039,-397.2441 -15.2347,-200.0565 -415.5159,-435.4761 -415.5159,-435.4761"
       inkscape:connector-curvature="0"
       sodipodi:nodetypes="caacccsaaaac" />
  </g>
</svg>
