<?xml version="1.0" encoding="UTF-8" standalone="no"?>
<!-- Created with Inkscape (http://www.inkscape.org/) -->

<svg
   xmlns:dc="http://purl.org/dc/elements/1.1/"
   xmlns:cc="http://creativecommons.org/ns#"
   xmlns:rdf="http://www.w3.org/1999/02/22-rdf-syntax-ns#"
   xmlns:svg="http://www.w3.org/2000/svg"
   xmlns="http://www.w3.org/2000/svg"
   xmlns:sodipodi="http://sodipodi.sourceforge.net/DTD/sodipodi-0.dtd"
   xmlns:inkscape="http://www.inkscape.org/namespaces/inkscape"
   width="2000"
   height="2048"
   id="svg2992"
   version="1.1"
   inkscape:version="0.91 r13725"
   sodipodi:docname="സ്ര.svg">
  <defs
     id="defs5498">
    <inkscape:path-effect
       effect="spiro"
       id="path-effect4150"
       is_visible="true" />
    <inkscape:path-effect
       effect="spiro"
       id="path-effect3846"
       is_visible="true" />
    <inkscape:path-effect
       effect="spiro"
       id="path-effect3801"
       is_visible="true" />
    <inkscape:path-effect
       effect="spiro"
       id="path-effect4372-52-4-6-8"
       is_visible="true" />
    <inkscape:path-effect
       effect="spiro"
       id="path-effect4150-1"
       is_visible="true" />
    <inkscape:path-effect
       effect="spiro"
       id="path-effect4372-52-4-6-8-7"
       is_visible="true" />
    <inkscape:path-effect
       effect="spiro"
       id="path-effect4372-52-4-6-8-7-0"
       is_visible="true" />
    <inkscape:path-effect
       effect="spiro"
       id="path-effect4150-1-0"
       is_visible="true" />
    <inkscape:path-effect
       effect="spiro"
       id="path-effect4372-52-4-6-8-7-0-6"
       is_visible="true" />
    <inkscape:path-effect
       effect="spiro"
       id="path-effect4150-1-0-0"
       is_visible="true" />
    <inkscape:path-effect
       effect="spiro"
       id="path-effect4372-52-4-6-8-7-2"
       is_visible="true" />
    <inkscape:path-effect
       effect="spiro"
       id="path-effect4150-1-0-05"
       is_visible="true" />
    <inkscape:path-effect
       effect="spiro"
       id="path-effect4372-52-4-6-8-7-2-5"
       is_visible="true" />
    <inkscape:path-effect
       effect="spiro"
       id="path-effect4372-52-4-6-8-7-9-3"
       is_visible="true" />
    <inkscape:path-effect
       effect="spiro"
       id="path-effect4372-52-4-6-8-7-9-3-4"
       is_visible="true" />
    <inkscape:path-effect
       effect="spiro"
       id="path-effect4150-1-0-1"
       is_visible="true" />
    <inkscape:path-effect
       effect="spiro"
       id="path-effect4372-52-4-6-8-7-9-3-1"
       is_visible="true" />
    <inkscape:path-effect
       effect="spiro"
       id="path-effect4150-1-0-7"
       is_visible="true" />
    <inkscape:path-effect
       effect="spiro"
       id="path-effect4150-1-0-5"
       is_visible="true" />
    <inkscape:path-effect
       effect="spiro"
       id="path-effect4372-52-4-6-8-7-9-3-3"
       is_visible="true" />
    <inkscape:path-effect
       effect="spiro"
       id="path-effect4150-1-0-8"
       is_visible="true" />
    <inkscape:path-effect
       effect="spiro"
       id="path-effect4372-52-4-6-8-7-9-3-7"
       is_visible="true" />
    <inkscape:path-effect
       effect="spiro"
       id="path-effect4372-52-4-6-8-7-9-3-7-3"
       is_visible="true" />
    <inkscape:path-effect
       effect="spiro"
       id="path-effect4150-1-0-8-4"
       is_visible="true" />
  </defs>
  <sodipodi:namedview
     inkscape:window-height="704"
     inkscape:window-width="1366"
     inkscape:pageshadow="2"
     inkscape:pageopacity="0.0"
     borderopacity="1.0"
     bordercolor="#666666"
     pagecolor="#ffffff"
     id="base"
     showgrid="true"
     showguides="true"
     inkscape:guide-bbox="true"
     inkscape:zoom="0.08"
     inkscape:cx="507.56401"
     inkscape:cy="1028.4543"
     inkscape:window-x="-4"
     inkscape:window-y="0"
     inkscape:current-layer="layer1"
     inkscape:window-maximized="1">
    <sodipodi:guide
       orientation="horizontal"
       position="0,600"
       id="guide5596" />
    <inkscape:grid
       type="xygrid"
       id="grid3769"
       empspacing="3"
       visible="true"
       enabled="true"
       snapvisiblegridlinesonly="true"
       spacingx="4px"
       units="px"
       dotted="true"
       spacingy="4px" />
    <sodipodi:guide
       orientation="0,1"
       position="-1040,1600"
       id="guide2985" />
    <sodipodi:guide
       orientation="0,1"
       position="-528,-1152"
       id="guide4145" />
  </sodipodi:namedview>
  <metadata
     id="metadata5594">
    <rdf:RDF>
      <cc:Work
         rdf:about="">
        <dc:format>image/svg+xml</dc:format>
        <dc:type
           rdf:resource="http://purl.org/dc/dcmitype/StillImage" />
        <dc:title />
      </cc:Work>
    </rdf:RDF>
  </metadata>
  <g
     inkscape:label="Layer 1"
     inkscape:groupmode="layer"
     id="layer1"
     transform="translate(0,1048)">
    <path
       style="fill:none;fill-rule:evenodd;stroke:#000000;stroke-width:140;stroke-linecap:round;stroke-linejoin:round;stroke-miterlimit:4;stroke-dasharray:none;stroke-opacity:1"
       d="m 2387.1523,-345.21843 c 78.5962,121.79307 118.2107,268.329917 111.686,413.134424 -6.5246,144.804506 -59.1574,287.184826 -148.3885,401.415826 -80.3101,102.81053 -190.6559,181.71225 -313.8127,224.74861 -123.1567,43.03636 -255.9035,47.8891 -386.363,47.73099 l -825.12506,-1 C 676.0974,740.63078 524.70581,735.4787 383.10886,688.93059 241.5119,642.38248 112.68836,556.39882 18.092257,441.21202 -97.270073,300.73882 -160.98855,118.7806 -158.46465,-62.974226 -155.94075,-244.72906 -87.194364,-424.84782 32.024036,-562.06357"
       id="path4148-7-6"
       inkscape:path-effect="#path-effect4150-1-0"
       inkscape:original-d="m 2387.1523,-345.21843 c 0,0 121.7376,593.71602 -36.7025,814.55025 -145.9941,203.48699 -379.1202,272.8687 -700.1757,272.4796 l -825.12506,-1 C 490.47179,740.40581 180.2927,677.93023 18.092257,441.21202 -170.95728,165.30977 -349.48699,-189.01251 32.024036,-562.06357"
       inkscape:connector-curvature="0"
       sodipodi:nodetypes="cassac" />
    <path
       style="fill:none;fill-rule:evenodd;stroke:#000000;stroke-width:140;stroke-linecap:round;stroke-linejoin:round;stroke-miterlimit:4;stroke-dasharray:none;stroke-opacity:1"
       d="M 836.46094,350.02539 C 705.4774,372.96139 565.31086,337.00844 461.53886,253.85725 357.76687,170.70606 292.1248,41.747179 285.9573,-91.086212 280.77215,-202.7622 317.23095,-316.17432 387.83277,-402.85647 c 70.60182,-86.68214 174.93424,-145.52896 285.85992,-159.45394 64.17345,-8.05597 130.43552,-1.25707 190.83797,21.86597 60.40245,23.12304 114.40935,62.67474 154.67184,113.29154 40.2626,50.6168 66.3613,111.68315 79.7065,174.9685 13.3452,63.28536 14.0728,128.46078 14.0249,193.137888 l -0.3077,415.859002 0.1014,-415.349802 c 0.026,-106.021788 0.059,-214.958558 38.3864,-313.810028 19.1638,-49.42573 48.1795,-95.64296 88.0196,-130.61316 39.8402,-34.97021 90.984,-58.13134 143.9673,-59.84281 36.1242,-1.16689 72.3394,7.59117 104.637,23.81408 32.2977,16.22292 60.709,39.78567 83.8089,67.58346 46.1998,55.59559 70.4828,126.87743 79.6303,198.58246 8.1146,63.60814 5.0362,128.02587 5.1456,192.149419 0.1094,64.123548 3.6044,129.233442 24.182,189.965681 26.1997,77.32522 80.1663,144.60025 148.977,188.54002 68.8107,43.93978 151.8988,64.56573 233.4024,59.79318 117.2359,-6.8649 229.6852,-66.86188 303.3549,-158.31776 73.6696,-91.45589 108.2903,-212.605013 97.5101,-329.54594 -11.0347,-119.7019 -69.2488,-234.41716 -159.3436,-313.99879 -90.0948,-79.58163 -211.119,-123.18924 -331.2675,-119.36281"
       id="path4370-92-6-1-7-5-7-8"
       inkscape:path-effect="#path-effect4372-52-4-6-8-7-9-3"
       inkscape:original-d="M 836.46094,350.02539 C 495.82282,366.89936 310.22389,142.80219 285.9573,-91.086212 264.96532,-293.41301 470.30136,-559.35399 673.69269,-562.31041 c 222.63901,-3.2362 442.06961,450.938 439.24121,503.263898 l -0.3077,415.859002 0.1014,-415.349802 c 4.6461,-117.956398 81.1839,-480.108598 270.3733,-504.265998 130.5762,-16.67314 215.4376,169.32628 268.0762,289.98 51.083,117.08819 -35.8804,272.2650378 29.3276,382.1151 77.5785,130.68947 232.1856,271.57047 382.3794,248.3332 208.0019,-32.18099 417.6287,-278.055702 400.865,-487.8637 -17.3788,-217.50691 -334.3454,-322.4011 -490.6111,-433.3616"
       inkscape:connector-curvature="0"
       sodipodi:nodetypes="caacccaaaaac" />
    <path
       style="color:#000000;font-style:normal;font-variant:normal;font-weight:normal;font-stretch:normal;font-size:medium;line-height:normal;font-family:sans-serif;text-indent:0;text-align:start;text-decoration:none;text-decoration-line:none;text-decoration-style:solid;text-decoration-color:#000000;letter-spacing:normal;word-spacing:normal;text-transform:none;direction:ltr;block-progression:tb;writing-mode:lr-tb;baseline-shift:baseline;text-anchor:start;white-space:normal;clip-rule:nonzero;display:inline;overflow:visible;visibility:visible;opacity:1;isolation:auto;mix-blend-mode:normal;color-interpolation:sRGB;color-interpolation-filters:linearRGB;solid-color:#000000;solid-opacity:1;fill:#000000;fill-opacity:1;fill-rule:evenodd;stroke:none;stroke-width:140;stroke-linecap:round;stroke-linejoin:round;stroke-miterlimit:4;stroke-dasharray:none;stroke-dashoffset:0;stroke-opacity:1;color-rendering:auto;image-rendering:auto;shape-rendering:auto;text-rendering:auto;enable-background:accumulate"
       d="M 634.42188 2319.166 C 632.64619 2319.1618 630.8708 2319.1682 629.0957 2319.1836 C 610.16136 2319.3478 591.26699 2320.6256 572.53906 2322.9766 C 442.81265 2339.2617 323.2532 2406.8434 241.12305 2507.6797 C 159.09261 2608.3934 117.60559 2737.8469 123.59766 2866.9023 C 130.73508 3020.6258 205.24031 3166.9966 325.33203 3263.2246 C 445.42378 3359.4526 604.51694 3400.2618 756.09961 3373.7188 A 70.007 70.007 0 1 0 731.95312 3235.8164 C 621.56871 3255.1454 500.3273 3224.0471 412.875 3153.9727 C 325.42271 3083.8982 268.64482 2972.3515 263.44727 2860.4082 C 259.06906 2766.1116 290.50063 2668.7423 349.67383 2596.0918 C 408.74732 2523.5636 497.85163 2473.4516 589.97656 2461.8867 C 643.41177 2455.1787 698.35238 2461.0199 747.07031 2479.6699 C 795.59337 2498.2454 839.64719 2530.5108 871.98438 2571.1641 C 904.34623 2611.8484 926.56127 2662.8482 937.98047 2717 C 947.7999 2763.5655 949.91156 2814.6907 950.31445 2868.6973 C 950.30445 2877.9047 950.29517 2887.1459 950.29297 2896.1875 L 950.19141 3311.4844 L 950.19141 3311.502 L 950.19141 3311.5371 A 70.007 70.007 0 0 0 1090.1914 3311.6055 L 1090.1914 3311.5723 L 1090.5 2895.7461 C 1090.51 2888.1125 1090.405 2880.2005 1090.377 2872.4375 C 1090.767 2775.3332 1094.2962 2684.1681 1123.9453 2607.6992 C 1139.8167 2566.7649 1163.3534 2530.3034 1192.877 2504.3887 C 1221.9119 2478.9029 1258.8576 2463.0028 1292.9258 2461.9023 C 1316.2447 2461.1491 1341.3106 2466.9668 1363.8828 2478.3047 C 1386.6002 2489.7155 1407.7802 2507.0209 1425.2754 2528.0742 C 1460.3836 2570.3225 1481.3881 2628.7214 1489.3047 2690.7773 C 1496.3873 2746.2961 1493.7753 2807.7437 1493.8887 2874.1875 C 1494.0023 2940.7738 1497.0873 3013.6438 1521.7715 3086.4961 C 1553.3866 3179.8042 1617.2389 3259.1227 1699.373 3311.5703 C 1781.3517 3363.9186 1878.5166 3387.8689 1974.541 3382.2461 C 2090.1883 3375.4742 2199.4616 3325.9771 2282.5117 3247.5039 C 2261.4906 3295.1217 2234.7426 3340.154 2202.8496 3380.9824 C 2130.9927 3472.9714 2031.4078 3544.1978 1921.1113 3582.7402 C 1811.1952 3621.1498 1686.5899 3626.7087 1557.9238 3626.5527 L 732.79883 3625.5527 C 585.30283 3625.374 441.52566 3619.5777 312.53516 3577.1738 C 183.26742 3534.6788 65.411391 3455.8299 -20.246094 3351.5273 C -124.81579 3224.196 -183.19401 3057.4911 -180.90625 2892.7402 C -178.61848 2727.9893 -115.63532 2562.9666 -7.5703125 2438.5879 A 70.007 70.007 0 0 0 -59.742188 2321.9238 A 70.007 70.007 0 0 0 -113.25195 2346.7676 C -243.62371 2496.8205 -318.13257 2692.0361 -320.89258 2890.7949 C -323.65258 3089.5537 -254.59247 3286.7638 -128.4375 3440.3789 C -24.902763 3566.45 114.88634 3659.5707 268.8125 3710.1719 C 423.0159 3760.8642 582.02163 3765.3702 732.62891 3765.5527 L 1557.7539 3766.5527 C 1690.0068 3766.713 1830.8976 3762.5676 1967.2949 3714.9043 C 2103.3121 3667.3739 2224.4164 3580.7981 2313.1797 3467.166 C 2411.5612 3341.2209 2469.1382 3185.4626 2476.332 3025.8086 C 2482.2232 2895.0628 2454.2179 2763.8854 2396.293 2646.916 C 2364.5205 2575.2405 2317.5707 2510.3843 2258.3125 2458.041 C 2154.4153 2366.2676 2017.0297 2316.7651 1878.4746 2321.1777 A 70.007 70.007 0 1 0 1882.9316 2461.1055 C 1984.6736 2457.8653 2089.3365 2495.579 2165.6289 2562.9688 C 2189.5903 2584.134 2210.9894 2608.4397 2229.3652 2634.9629 A 70.007 70.007 0 0 0 2235.9004 2647.4785 C 2247.227 2665.0302 2257.6554 2683.1907 2267.166 2701.8438 C 2285.6292 2742.8142 2297.529 2786.6647 2301.6094 2830.9277 C 2310.7264 2929.8265 2280.7367 3033.8561 2219.291 3110.1367 C 2158.0691 3186.1396 2062.441 3236.86 1966.3574 3242.4863 C 1899.3746 3246.4086 1830.3635 3229.1075 1774.7207 3193.5762 C 1719.2335 3158.1442 1675.1515 3102.9126 1654.3672 3041.5703 C 1637.8962 2992.9582 1633.9939 2935.6101 1633.8887 2873.9492 C 1633.7832 2812.146 1637.3263 2744.758 1628.1797 2673.0605 C 1617.8012 2591.7065 1590.2406 2507.5406 1532.9492 2438.5977 C 1504.2447 2404.0554 1468.6006 2374.2342 1426.7227 2353.1992 C 1384.6997 2332.0913 1337.3358 2320.3941 1288.4062 2321.9746 C 1216.5078 2324.2971 1151.1669 2354.7192 1100.5215 2399.1738 C 1060.4687 2434.3307 1030.5462 2477.1488 1008.623 2522.4492 C 1000.274 2509.2802 991.38669 2496.3791 981.55078 2484.0137 C 933.36287 2423.4333 869.40295 2376.5946 797.12109 2348.9238 C 744.74538 2328.8736 689.468 2319.2971 634.42188 2319.166 z "
       transform="translate(0,-1048)"
       id="path4148-7-6-7" />
    <path
       style="fill:none;fill-rule:evenodd;stroke:#000000;stroke-width:69.99999237;stroke-linecap:round;stroke-linejoin:round;stroke-miterlimit:4;stroke-dasharray:none;stroke-opacity:1"
       d="m -896.29461,-343.7492 c 84.33899,122.52951 127.23689,273.055665 120.16087,421.637213 -7.07603,148.581547 -64.0846,294.349767 -159.68613,408.309827 -84.44753,100.66409 -198.70173,175.29897 -323.79893,215.49026 -125.0971,40.19128 -258.5157,44.29897 -389.9106,44.13979 l -841.074,-1.0189 c -150.4045,-0.1822 -302.903,-4.61465 -446.7894,-48.41265 -143.8863,-43.79801 -276.8593,-125.62871 -375.8669,-238.84982 -122.8566,-140.49379 -191.5103,-327.22695 -188.9178,-513.842935 2.5925,-186.615985 76.4069,-371.369975 203.1188,-508.396745"
       id="path4148-7-6-6"
       inkscape:path-effect="#path-effect4150-1-0-8"
       inkscape:original-d="m -896.29461,-343.7492 c 0,0 124.70587,606.93046 -39.52526,829.94704 -150.11413,203.84654 -386.44823,260.0265 -713.70953,259.63005 l -841.074,-1.0189 c -341.1462,-0.41327 -656.15,-49.26996 -822.6563,-287.26247 -195.3545,-279.22613 -374.6843,-642.13716 14.201,-1022.23968"
       inkscape:connector-curvature="0"
       sodipodi:nodetypes="cassac" />
    <path
       style="fill:none;fill-rule:evenodd;stroke:#000000;stroke-width:69.99999237;stroke-linecap:round;stroke-linejoin:round;stroke-miterlimit:4;stroke-dasharray:none;stroke-opacity:1"
       d="m -2479.0728,364.63622 c -133.4965,23.46991 -276.3982,-13.11712 -382.1911,-97.8521 -105.7928,-84.73497 -172.7037,-216.19772 -178.9532,-351.597446 -5.2526,-113.801354 31.9418,-229.356684 103.91,-317.668114 71.9683,-88.31143 178.2866,-148.25675 291.3198,-162.46323 65.4003,-8.21977 132.931,-1.31104 194.497,22.23454 61.5659,23.54558 116.6205,63.83547 157.6677,115.4096 41.0471,51.57412 67.6583,113.80478 81.2658,178.29971 13.6076,64.49492 14.3498,130.91804 14.301,196.832813 l -0.3136,423.719627 0.1035,-423.200801 c 0.026,-108.037539 0.07,-219.048259 39.1523,-319.769009 19.5412,-50.36037 49.1234,-97.44693 89.7305,-133.07121 40.6071,-35.62428 92.726,-59.21408 146.7166,-60.95749 36.8133,-1.18874 73.7194,7.73216 106.6362,24.2586 32.9167,16.52643 61.8758,40.53118 85.4239,68.85287 47.0964,56.64338 71.8652,129.27827 81.1978,202.34978 8.2773,64.80943 5.1426,130.44554 5.2542,195.781328 0.1116,65.3357841 3.6712,131.677035 24.6402,193.556572 26.7061,78.80966 81.7264,147.36721 151.87,192.13397 70.1435,44.76677 154.8317,65.76672 237.9005,60.89325 119.4657,-7.0088 234.05685,-68.12301 309.15317,-161.29869 75.09633,-93.17568 110.41856,-216.6184024 99.46013,-335.78668 -11.21971,-122.00963 -70.5582,-238.94324 -162.4049,-320.03835 -91.8467,-81.0951 -215.2295,-125.49339 -337.6893,-121.51471"
       id="path4370-92-6-1-7-5-7-8-6"
       inkscape:path-effect="#path-effect4372-52-4-6-8-7-9-3-7"
       inkscape:original-d="m -2479.0728,364.63622 c -347.2224,17.19293 -536.4088,-211.14015 -561.1443,-449.449546 -21.3979,-206.151204 187.9072,-477.119044 395.2298,-480.131344 226.9426,-3.29737 450.6145,459.46169 447.7315,512.776663 l -0.3136,423.719627 0.1035,-423.200801 c 4.736,-120.186029 82.7531,-489.183679 275.5994,-513.797709 133.1002,-16.9883 219.6018,172.52691 273.2579,295.46125 52.0703,119.3014 -36.574,277.4114258 29.8944,389.3379 79.0781,133.15976 236.6736,276.70371 389.7705,253.02722 212.0224,-32.78928 425.70102,-283.311551 408.6133,-497.08537 -17.71476,-221.61825 -340.808,-328.49517 -500.0942,-441.55306"
       inkscape:connector-curvature="0"
       sodipodi:nodetypes="caacccaaaaac" />
    <path
       style="color:#000000;font-style:normal;font-variant:normal;font-weight:normal;font-stretch:normal;font-size:medium;line-height:normal;font-family:sans-serif;text-indent:0;text-align:start;text-decoration:none;text-decoration-line:none;text-decoration-style:solid;text-decoration-color:#000000;letter-spacing:normal;word-spacing:normal;text-transform:none;direction:ltr;block-progression:tb;writing-mode:lr-tb;baseline-shift:baseline;text-anchor:start;white-space:normal;clip-rule:nonzero;display:inline;overflow:visible;visibility:visible;opacity:1;isolation:auto;mix-blend-mode:normal;color-interpolation:sRGB;color-interpolation-filters:linearRGB;solid-color:#000000;solid-opacity:1;fill:#000000;fill-opacity:1;fill-rule:evenodd;stroke:none;stroke-width:69.99999237;stroke-linecap:round;stroke-linejoin:round;stroke-miterlimit:4;stroke-dasharray:none;stroke-dashoffset:0;stroke-opacity:1;color-rendering:auto;image-rendering:auto;shape-rendering:auto;text-rendering:auto;enable-background:accumulate"
       d="M -2591.9258 2193.2305 C -2593.601 2193.2266 -2595.2762 2193.2315 -2596.9512 2193.2461 L -2596.9512 2193.2441 C -2614.8174 2193.3997 -2632.6601 2194.6046 -2650.3516 2196.8281 C -2772.7774 2212.2151 -2886.7072 2276.5239 -2964.4395 2371.9082 C -3042.1224 2467.2321 -3081.8335 2590.8075 -3076.1797 2713.3008 C -3069.4478 2859.1521 -2998.1036 2999.3258 -2884.1445 3090.6016 C -2770.1854 3181.8773 -2617.8129 3220.889 -2474.0117 3195.6074 A 35.003496 35.003496 0 1 0 -2486.1328 3126.6641 C -2609.3246 3148.3223 -2742.7561 3114.161 -2840.3828 3035.9668 C -2938.0094 2957.7726 -3000.4868 2835.0203 -3006.2539 2710.0723 C -3011.1053 2604.9629 -2976.4292 2497.4278 -2910.1758 2416.1289 C -2843.9714 2334.8904 -2745.2636 2279.3073 -2641.623 2266.2812 C -2581.5882 2258.7359 -2519.7159 2265.1692 -2463.9922 2286.4805 C -2408.3664 2307.7542 -2358.2892 2344.4019 -2321.207 2390.9941 C -2284.1127 2437.6017 -2259.4463 2494.7986 -2246.8027 2554.7246 C -2235.8543 2606.6159 -2233.7855 2661.5567 -2233.4277 2717.8945 C -2233.4437 2726.9002 -2233.4648 2735.9307 -2233.4668 2744.8418 L -2233.5703 3168.0176 L -2233.5703 3168.0273 L -2233.5703 3168.0449 A 35.003496 35.003496 0 0 0 -2163.5703 3168.0801 L -2163.5703 3168.0625 L -2163.2559 2744.3594 C -2163.2459 2736.2595 -2163.3581 2728.008 -2163.3945 2719.832 C -2163.0689 2620.4569 -2159.8487 2523.2153 -2126.6836 2437.7441 C -2108.7902 2391.6302 -2081.9504 2349.421 -2046.502 2318.3223 C -2011.2974 2287.4377 -1966.2742 2267.4752 -1921.7363 2266.0371 C -1891.3227 2265.055 -1859.9889 2272.5062 -1831.9336 2286.5918 C -1803.806 2300.7138 -1778.4641 2321.5924 -1757.7188 2346.543 C -1716.1695 2396.5147 -1693.0421 2462.708 -1684.3262 2530.9512 C -1676.5658 2591.7134 -1679.4671 2655.862 -1679.3535 2722.3574 C -1679.2398 2788.9239 -1675.8863 2859.1471 -1652.8633 2927.0879 C -1623.4477 3013.8932 -1563.4809 3088.4727 -1486.6738 3137.4922 C -1409.9452 3186.4617 -1318.2202 3209.1195 -1227.8945 3203.8203 C -1097.8601 3196.1914 -974.85951 3130.4452 -893.53906 3029.5469 C -858.14229 2985.6284 -831.02694 2935.7736 -812.66992 2882.8867 C -821.44132 3020.1343 -875.25601 3154.8528 -963.63477 3260.2031 C -1043.5667 3355.4845 -1152.3321 3426.6354 -1271.3242 3464.8652 C -1390.1828 3503.0522 -1519.8496 3507.4864 -1650.4863 3507.3281 L -2491.5605 3506.3086 C -2641.3061 3506.1272 -2790.2763 3501.3975 -2928.2012 3459.4141 C -3066.2159 3417.4033 -3193.6258 3338.8298 -3287.9121 3231.0078 C -3404.9057 3097.2188 -3470.6504 2918.3995 -3468.1816 2740.6895 C -3465.7129 2562.9793 -3395.0262 2386.0578 -3274.3613 2255.5703 A 35.003496 35.003496 0 0 0 -3298.6289 2196.457 A 35.003496 35.003496 0 0 0 -3325.7559 2208.0449 C -3458.5148 2351.611 -3535.4576 2544.195 -3538.1738 2739.7168 C -3540.89 2935.2385 -3469.3271 3129.8874 -3340.6074 3277.0859 C -3236.8785 3395.7062 -3098.3419 3480.7936 -2948.584 3526.3789 C -2798.7363 3571.9915 -2642.71 3576.1256 -2491.6465 3576.3086 L -1650.5723 3577.3281 C -1518.4192 3577.4882 -1381.2479 3573.7054 -1249.9121 3531.5098 C -1118.71 3489.357 -998.96891 3411.2382 -910.00586 3305.1914 C -809.36258 3185.2214 -749.62302 3032.47 -742.17383 2876.0527 C -734.75714 2720.3175 -779.29376 2563.2775 -867.3125 2434.5996 C -893.15387 2394.2445 -924.49048 2357.3778 -960.57031 2325.5215 C -1059.3238 2238.3282 -1190.8919 2190.9838 -1322.5605 2195.2617 A 35.003496 35.003496 0 1 0 -1320.2871 2265.2246 C -1207.0361 2261.545 -1091.8404 2302.9972 -1006.9004 2377.9941 C -921.96045 2452.9909 -866.55958 2562.1674 -856.18359 2675.002 C -846.05501 2785.1462 -879.05765 2900.0281 -948.04102 2985.6191 C -1016.9132 3071.0722 -1123.0973 3127.5526 -1231.9941 3133.9414 C -1307.8061 3138.3891 -1385.4572 3119.0484 -1449.0156 3078.4844 C -1512.4958 3037.9704 -1562.5698 2975.4352 -1586.5664 2904.6211 C -1605.4814 2848.803 -1609.244 2786.3434 -1609.3535 2722.2383 C -1609.4631 2658.0621 -1606.0964 2590.9386 -1614.8906 2522.082 C -1624.8399 2444.1822 -1651.251 2365.104 -1703.8945 2301.7891 C -1730.2456 2270.0963 -1762.8196 2242.9661 -1800.5254 2224.0352 C -1838.3037 2205.068 -1880.7831 2194.6788 -1923.9961 2196.0742 C -1987.4395 2198.1228 -2046.6544 2225.3391 -2092.6641 2265.7031 C -2138.4298 2305.853 -2170.7544 2357.815 -2191.9434 2412.4219 C -2197.0722 2425.6397 -2201.5446 2438.9611 -2205.4844 2452.3535 C -2220.8738 2415.0304 -2240.9251 2379.4616 -2266.4375 2347.4062 C -2311.4498 2290.8501 -2371.4823 2246.9189 -2438.9883 2221.1016 C -2487.9646 2202.3708 -2539.9926 2193.3515 -2591.9258 2193.2305 z "
       transform="translate(0,-1048)"
       id="path4148-7-6-6-7" />
  </g>
</svg>
