<?xml version="1.0" encoding="UTF-8" standalone="no"?>
<!-- Created with Inkscape (http://www.inkscape.org/) -->

<svg
   xmlns:dc="http://purl.org/dc/elements/1.1/"
   xmlns:cc="http://creativecommons.org/ns#"
   xmlns:rdf="http://www.w3.org/1999/02/22-rdf-syntax-ns#"
   xmlns:svg="http://www.w3.org/2000/svg"
   xmlns="http://www.w3.org/2000/svg"
   xmlns:sodipodi="http://sodipodi.sourceforge.net/DTD/sodipodi-0.dtd"
   xmlns:inkscape="http://www.inkscape.org/namespaces/inkscape"
   width="2000"
   height="2048"
   id="svg2992"
   version="1.1"
   inkscape:version="0.91 r13725"
   sodipodi:docname="സൃ.svg">
  <defs
     id="defs5498">
    <inkscape:path-effect
       effect="spiro"
       id="path-effect4148"
       is_visible="true" />
    <inkscape:path-effect
       effect="spiro"
       id="path-effect3846"
       is_visible="true" />
    <inkscape:path-effect
       effect="spiro"
       id="path-effect3801"
       is_visible="true" />
    <inkscape:path-effect
       effect="spiro"
       id="path-effect4372-52-4-6-8"
       is_visible="true" />
    <inkscape:path-effect
       effect="spiro"
       id="path-effect4148-5"
       is_visible="true" />
    <inkscape:path-effect
       effect="spiro"
       id="path-effect4372-52-4-6-8-0"
       is_visible="true" />
    <inkscape:path-effect
       effect="spiro"
       id="path-effect4372-52-4-6-8-7-9-3"
       is_visible="true" />
    <inkscape:path-effect
       effect="spiro"
       id="path-effect4148-56"
       is_visible="true" />
    <inkscape:path-effect
       effect="spiro"
       id="path-effect4372-52-4-6-8-7-9-3-1"
       is_visible="true" />
    <inkscape:path-effect
       effect="spiro"
       id="path-effect4372-52-4-6-8-7-9-3-2"
       is_visible="true" />
    <inkscape:path-effect
       effect="spiro"
       id="path-effect4148-8"
       is_visible="true" />
    <inkscape:path-effect
       effect="spiro"
       id="path-effect4372-52-4-6-8-7-9-3-2-4"
       is_visible="true" />
    <inkscape:path-effect
       effect="spiro"
       id="path-effect4148-8-0"
       is_visible="true" />
    <inkscape:path-effect
       effect="spiro"
       id="path-effect4187"
       is_visible="true" />
    <inkscape:path-effect
       effect="spiro"
       id="path-effect4183"
       is_visible="true" />
    <inkscape:path-effect
       effect="spiro"
       id="path-effect4187-2"
       is_visible="true" />
    <inkscape:path-effect
       effect="spiro"
       id="path-effect4183-3"
       is_visible="true" />
    <inkscape:path-effect
       effect="spiro"
       id="path-effect4372-52-4-6-8-7-9-3-26"
       is_visible="true" />
    <inkscape:path-effect
       effect="spiro"
       id="path-effect4372-52-4-6-8-7-9-3-10"
       is_visible="true" />
    <inkscape:path-effect
       effect="spiro"
       id="path-effect4187-9"
       is_visible="true" />
    <inkscape:path-effect
       effect="spiro"
       id="path-effect4183-9"
       is_visible="true" />
  </defs>
  <sodipodi:namedview
     inkscape:window-height="844"
     inkscape:window-width="1600"
     inkscape:pageshadow="2"
     inkscape:pageopacity="0.0"
     borderopacity="1.0"
     bordercolor="#666666"
     pagecolor="#ffffff"
     id="base"
     showgrid="true"
     showguides="true"
     inkscape:guide-bbox="true"
     inkscape:zoom="0.25000001"
     inkscape:cx="213.1405"
     inkscape:cy="-1096.9386"
     inkscape:window-x="1600"
     inkscape:window-y="0"
     inkscape:current-layer="layer1"
     inkscape:window-maximized="1">
    <sodipodi:guide
       orientation="horizontal"
       position="0,600"
       id="guide5596" />
    <inkscape:grid
       type="xygrid"
       id="grid3769"
       empspacing="3"
       visible="true"
       enabled="true"
       snapvisiblegridlinesonly="true"
       spacingx="4px"
       units="px"
       dotted="true"
       spacingy="4px" />
    <sodipodi:guide
       orientation="0,1"
       position="-1040,1600"
       id="guide2985" />
  </sodipodi:namedview>
  <metadata
     id="metadata5594">
    <rdf:RDF>
      <cc:Work
         rdf:about="">
        <dc:format>image/svg+xml</dc:format>
        <dc:type
           rdf:resource="http://purl.org/dc/dcmitype/StillImage" />
        <dc:title />
      </cc:Work>
    </rdf:RDF>
  </metadata>
  <g
     inkscape:label="Layer 1"
     inkscape:groupmode="layer"
     id="layer1"
     transform="translate(0,1048)">
    <path
       style="fill:none;fill-rule:evenodd;stroke:#000000;stroke-width:140;stroke-linecap:round;stroke-linejoin:round;stroke-miterlimit:4;stroke-dasharray:none;stroke-opacity:1"
       d="M 683.3687,345.23363 C 552.38517,368.16962 412.21864,332.21666 308.44665,249.06547 204.67466,165.91428 139.0326,36.955413 132.8651,-95.87797 c -5.18515,-111.67599 31.27365,-225.08812 101.87547,-311.77026 70.60182,-86.68215 174.93425,-145.52897 285.85993,-159.45394 64.17345,-8.05597 130.43552,-1.25707 190.83797,21.86597 60.40245,23.12305 114.40935,62.67475 154.67187,113.29155 40.26251,50.6168 66.36124,111.68314 79.70646,174.9685 13.34522,63.28535 14.07276,128.46077 14.0249,193.13788 l -0.3077,415.859 0.1014,-415.3498 c 0.0259,-106.02179 0.0587,-214.95856 38.38637,-313.81003 19.16383,-49.42573 48.17953,-95.64296 88.01963,-130.61316 39.8402,-34.97021 90.984,-58.13134 143.9673,-59.84281 36.1242,-1.16689 72.3394,7.59117 104.637,23.81408 32.2977,16.22292 60.709,39.78567 83.8089,67.58346 46.1998,55.59559 70.4828,126.87743 79.6303,198.58246 8.1146,63.60814 5.0362,128.02587 5.1456,192.149419 0.1094,64.123548 3.6044,129.233442 24.182,189.965681 26.1997,77.32522 80.1663,144.60025 148.977,188.54002 68.8107,43.93978 151.8988,64.56573 233.4024,59.79318 117.2359,-6.8649 229.6852,-66.86188 303.3549,-158.31776 73.6696,-91.45589 108.2903,-212.605013 97.5101,-329.54594 -11.0347,-119.7019 -69.2488,-234.41716 -159.3436,-313.99879 -90.0948,-79.58163 -211.119,-123.18924 -331.2675,-119.36281"
       id="path4370-92-6-1-7-5-7-8"
       inkscape:path-effect="#path-effect4372-52-4-6-8-7-9-3"
       inkscape:original-d="m 683.3687,345.23363 c -340.6381,16.87397 -526.237,-207.2232 -550.5036,-441.1116 -20.992,-202.3268 184.344,-468.26778 387.7354,-471.2242 222.639,-3.2362 442.0696,450.938 439.2412,503.2639 l -0.3077,415.859 0.1014,-415.3498 c 4.6461,-117.9564 81.1839,-480.1086 270.3733,-504.266 130.5762,-16.67314 215.4376,169.32628 268.0762,289.98 51.083,117.08819 -35.8804,272.26504 29.3276,382.1151 77.5785,130.68947 232.1856,271.57047 382.3794,248.3332 208.0019,-32.18099 417.6287,-278.0557 400.865,-487.8637 -17.3788,-217.50691 -334.3454,-322.4011 -490.6111,-433.3616"
       inkscape:connector-curvature="0"
       sodipodi:nodetypes="caacccaaaaac" />
    <path
       style="fill:none;fill-rule:evenodd;stroke:#000000;stroke-width:70;stroke-linecap:round;stroke-linejoin:round;stroke-miterlimit:4;stroke-dasharray:none;stroke-opacity:1"
       d="m -124.7261,-138.24163 c 33.024026,201.981134 -4.45829,414.79698 -104.5026,593.34137 -99.79764,178.10417 -260.43322,320.49065 -447.2597,402.81034 -115.34015,50.8213 -242.12288,79.43563 -367.7684,69.46782 -64.4622,-5.11397 -130.0774,-21.24245 -181.568,-60.36079 -25.7453,-19.55917 -47.4929,-44.73236 -61.3009,-73.96797 -13.808,-29.23561 -19.4364,-62.59127 -14.0189,-94.46654 6.7249,-39.56767 30.3327,-75.34533 61.9841,-100.02348 31.6514,-24.67814 70.8744,-38.67287 110.7396,-43.31942 79.7304,-9.29308 159.05429,17.42242 233.1648,48.25956 115.36794,48.00421 226.14996,107.02259 330.3492,175.99132"
       id="path4159-1"
       inkscape:connector-curvature="0"
       sodipodi:nodetypes="caaaaac"
       inkscape:path-effect="#path-effect4148-8"
       inkscape:original-d="m -124.7261,-138.24163 c 0,0 -7.16844,417.68092 -104.5026,593.34137 -97.2433,175.49646 -267.47147,313.75159 -447.2597,402.81034 -111.79329,55.37721 -247.54648,102.80046 -367.7684,69.46782 -110.4994,-30.63697 -285.1188,-117.65689 -256.8878,-228.7953 34.2114,-134.68174 268.0966,-113.05497 405.8885,-95.08334 123.72017,16.13631 200.939,134.07812 330.3492,175.99132" />
    <path
       style="fill:none;fill-rule:evenodd;stroke:#000000;stroke-width:70;stroke-linecap:round;stroke-linejoin:round;stroke-miterlimit:4;stroke-dasharray:none;stroke-opacity:1"
       d="m -1793.6298,378.50668 c -134.4999,23.46382 -278.3861,-13.50644 -384.9159,-98.90065 -106.5297,-85.3942 -173.9252,-217.787209 -180.2922,-354.16984 -5.3543,-114.69006 32.0494,-231.17735 104.5354,-320.21813 72.4859,-89.04077 179.634,-149.49595 293.5568,-163.78134 65.9003,-8.2636 133.9437,-1.2629 195.9633,22.50062 62.0197,23.76353 117.4656,64.39634 158.7976,116.38488 41.332,51.98853 68.1204,114.70105 81.818,179.68964 13.6976,64.98859 14.444,131.91624 14.3949,198.332652 l -0.3159,427.133268 0.1041,-426.610263 c 0.027,-108.885147 0.051,-220.761407 39.3894,-322.292077 19.6691,-50.76534 49.4545,-98.23955 90.3618,-134.16433 40.9072,-35.92478 93.4298,-59.72238 147.844,-61.48065 37.0977,-1.19873 74.2887,7.79929 107.4539,24.46495 33.1653,16.66566 62.3368,40.87038 86.0521,69.42324 47.43038,57.10573 72.3467,130.31477 81.7308,203.9534 8.32575,65.33357 5.16214,131.49703 5.27444,197.358866 0.11229,65.8618358 3.70346,132.736313 24.83656,195.115684 26.89948,79.40019 82.29779,148.48892 152.94382,193.62328 70.64603,45.13436 155.95913,66.33434 239.64928,61.44243 120.40148,-7.03779 235.88401,-68.6771 311.51886,-162.62078 75.63485,-93.94368 111.15006,-218.3738585 100.05364,-338.4693 -11.35601,-122.90488 -71.12578,-240.6834 -163.61735,-322.41392 -92.49157,-81.73053 -216.73028,-126.55181 -340.09845,-122.69646"
       id="path4370-92-6-1-7-5-7-8-1"
       inkscape:path-effect="#path-effect4372-52-4-6-8-7-9-3-2"
       inkscape:original-d="m -1793.6298,378.50668 c -349.7369,17.33143 -540.2933,-212.84119 -565.2081,-453.07049 -21.5527,-207.81204 189.268,-480.9629 398.0922,-483.99947 228.5859,-3.32393 453.8777,463.1633 450.9738,516.907792 l -0.3159,427.133268 0.1041,-426.610263 c 4.7702,-121.154297 83.3524,-493.124727 277.5952,-517.937057 134.064,-17.12516 221.1922,173.91685 275.2368,297.84159 52.4475,120.26254 -36.8388,279.646365 30.111,392.47455 79.6507,134.23256 238.3875,278.93296 392.5931,255.06571 213.5579,-33.05345 428.784,-285.59402 411.5725,-501.09008 -17.843,-223.40369 -343.2761,-331.14165 -503.7158,-445.11038"
       inkscape:connector-curvature="0"
       sodipodi:nodetypes="caacccaaaaac" />
    <path
       style="color:#000000;font-style:normal;font-variant:normal;font-weight:normal;font-stretch:normal;font-size:medium;line-height:normal;font-family:sans-serif;text-indent:0;text-align:start;text-decoration:none;text-decoration-line:none;text-decoration-style:solid;text-decoration-color:#000000;letter-spacing:normal;word-spacing:normal;text-transform:none;direction:ltr;block-progression:tb;writing-mode:lr-tb;baseline-shift:baseline;text-anchor:start;white-space:normal;clip-rule:nonzero;display:inline;overflow:visible;visibility:visible;opacity:1;isolation:auto;mix-blend-mode:normal;color-interpolation:sRGB;color-interpolation-filters:linearRGB;solid-color:#000000;solid-opacity:1;fill:#000000;fill-opacity:1;fill-rule:evenodd;stroke:none;stroke-width:70;stroke-linecap:round;stroke-linejoin:round;stroke-miterlimit:4;stroke-dasharray:none;stroke-dashoffset:0;stroke-opacity:1;color-rendering:auto;image-rendering:auto;shape-rendering:auto;text-rendering:auto;enable-background:accumulate"
       d="M -2434.2578 2227.1035 C -2435.945 2227.0989 -2437.6315 2227.1032 -2439.3184 2227.1172 C -2457.3114 2227.2664 -2475.2814 2228.4747 -2493.0996 2230.709 C -2616.43 2246.1741 -2731.195 2310.9996 -2809.4453 2407.1211 C -2887.6452 2503.1808 -2927.5607 2627.6907 -2921.8008 2751.0684 C -2914.9464 2897.8899 -2843.1212 3038.9856 -2728.4375 3130.916 C -2613.7538 3222.8464 -2460.4099 3262.2461 -2315.6152 3236.9863 A 35.0035 35.0035 0 1 0 -2327.6445 3168.0273 C -2451.8497 3189.6952 -2586.2784 3155.1549 -2684.6543 3076.2969 C -2783.0302 2997.4389 -2845.9973 2873.7484 -2851.877 2747.8047 C -2856.8257 2641.8023 -2821.9323 2533.3364 -2755.1602 2451.3145 C -2688.4385 2369.3546 -2588.9058 2313.2698 -2484.3906 2300.1641 C -2423.8629 2292.5742 -2361.482 2299.0961 -2305.3047 2320.6211 C -2249.2245 2342.1088 -2198.7524 2379.0966 -2161.3809 2426.1035 C -2123.9969 2473.1262 -2099.1495 2530.8067 -2086.4141 2591.2305 C -2075.3935 2643.5176 -2073.3054 2698.8563 -2072.9434 2755.5898 C -2072.9604 2764.703 -2072.9824 2773.8417 -2072.9844 2782.8594 L -2073.0879 3209.4434 L -2073.0879 3209.4531 L -2073.0879 3209.4707 A 35.0035 35.0035 0 0 0 -2003.0879 3209.5059 L -2003.0879 3209.4883 L -2002.7715 2782.373 C -2002.7615 2774.125 -2002.8763 2765.7241 -2002.9141 2757.3984 C -2002.5842 2657.3226 -1999.3385 2559.3738 -1965.959 2473.2227 C -1947.9346 2426.7024 -1920.886 2384.1059 -1885.1367 2352.7109 C -1849.6322 2321.5308 -1804.21 2301.3667 -1759.2578 2299.9141 C -1728.5654 2298.9224 -1696.9518 2306.4483 -1668.6504 2320.6699 C -1640.2763 2334.9279 -1614.7202 2356.002 -1593.8066 2381.1816 C -1551.9208 2431.6118 -1528.6408 2498.3797 -1519.8711 2567.1973 C -1512.0605 2628.4887 -1514.9912 2693.1689 -1514.877 2760.1914 C -1514.7626 2827.2852 -1511.3752 2898.0384 -1488.1895 2966.4766 C -1458.5839 3053.8644 -1398.2456 3128.9758 -1320.9395 3178.3652 C -1243.7105 3227.7052 -1151.3582 3250.5684 -1060.4043 3245.252 C -929.41984 3237.5955 -805.52452 3171.3144 -723.66602 3069.6406 C -715.57908 3059.5961 -707.92866 3049.2393 -700.70703 3038.6133 C -719.41509 3116.6454 -748.61061 3192.1191 -787.76172 3261.9902 C -857.36925 3386.2155 -958.26301 3492.6068 -1077.1621 3572.002 C -1182.1846 3502.8091 -1293.6938 3443.5013 -1409.8105 3395.1855 C -1485.4798 3363.6998 -1570.429 3333.9794 -1660.4727 3344.4746 C -1705.7428 3349.7511 -1751.033 3365.603 -1788.6816 3394.957 C -1826.6138 3424.5323 -1855.2423 3467.2474 -1863.6504 3516.7188 C -1870.4147 3556.5181 -1863.4032 3596.786 -1846.7734 3631.9961 C -1830.2181 3667.0487 -1804.7018 3696.3202 -1774.998 3718.8867 C -1715.7926 3763.8662 -1643.4043 3780.8429 -1575.0254 3786.2676 C -1442.2654 3796.7998 -1309.9394 3766.6221 -1190.375 3713.9395 C -996.69508 3628.6 -830.43353 3481.3456 -726.69531 3296.209 C -622.6757 3110.5701 -583.84928 2890.1182 -618.18555 2680.1113 A 35.0035 35.0035 0 0 0 -620.24609 2672.5117 C -639.31345 2552.8831 -700.37063 2440.9446 -791.31641 2360.5801 C -890.70403 2272.7558 -1023.1172 2224.9861 -1155.6836 2229.1289 A 35.0035 35.0035 0 1 0 -1153.498 2299.0938 C -1039.328 2295.5257 -923.26351 2337.3983 -837.66797 2413.0352 C -752.07245 2488.6719 -696.23587 2598.7001 -685.72656 2712.4414 C -675.46341 2823.5185 -708.6676 2939.3888 -778.19141 3025.7422 C -847.6026 3111.9556 -954.6718 3168.9519 -1064.4902 3175.3711 C -1140.9166 3179.8384 -1219.1907 3160.3037 -1283.2539 3119.375 C -1347.2398 3078.4956 -1397.6972 3015.4282 -1421.8906 2944.0156 C -1440.9711 2887.695 -1444.7668 2824.7003 -1444.877 2760.0703 C -1444.9873 2695.3693 -1441.5908 2627.7235 -1450.4316 2558.3477 C -1460.4301 2479.888 -1486.984 2400.2363 -1539.959 2336.4551 C -1566.476 2304.5289 -1599.2623 2277.1943 -1637.2188 2258.1211 C -1675.2477 2239.0113 -1718.0166 2228.5436 -1761.5195 2229.9492 C -1825.3958 2232.0133 -1885.0183 2259.444 -1931.3281 2300.1133 C -1977.3934 2340.5678 -2009.9166 2392.9194 -2031.2305 2447.9297 C -2036.4681 2461.4477 -2041.0354 2475.0725 -2045.041 2488.7715 C -2060.5513 2450.9894 -2080.797 2414.9816 -2106.5879 2382.541 C -2151.8804 2325.5709 -2212.3008 2281.2932 -2280.2598 2255.2539 C -2329.5657 2236.3618 -2381.9564 2227.2478 -2434.2578 2227.1035 z M -1626.1465 3412.4121 C -1564.5442 3411.943 -1500.1839 3433.3976 -1436.7012 3459.8125 C -1334.8576 3502.1893 -1236.6843 3553.3848 -1143.5391 3612.4824 C -1168.0131 3626.0355 -1193.0206 3638.6094 -1218.6016 3649.8809 C -1329.7173 3698.8408 -1450.9573 3725.8917 -1569.4883 3716.4883 C -1630.0338 3711.685 -1688.8766 3696.4057 -1732.6523 3663.1484 C -1754.4392 3646.5966 -1772.4178 3625.5203 -1783.4785 3602.1016 C -1794.4647 3578.8405 -1798.7094 3552.3984 -1794.6387 3528.4473 C -1789.597 3498.7832 -1771.0113 3469.9413 -1745.6406 3450.1602 C -1719.9865 3430.158 -1686.8294 3418.0204 -1652.3691 3414.0039 C -1643.692 3412.9925 -1634.9468 3412.4791 -1626.1465 3412.4121 z "
       transform="translate(0,-1048)"
       id="path4159-1-6" />
    <path
       style="fill:none;fill-rule:evenodd;stroke:#000000;stroke-width:140;stroke-linecap:round;stroke-linejoin:round;stroke-miterlimit:4;stroke-dasharray:none;stroke-opacity:1"
       d="m 1205.9798,733.38445 c 3.8574,27.08362 16.9401,52.4687 35.269,72.77765 18.3289,20.30895 41.7334,35.68918 66.8875,46.44443 50.3081,21.5105 106.3447,24.63309 161.0482,25.69802 56.4913,1.09974 114.5188,0.0482 167.0791,-20.68585 26.2802,-10.36701 50.8461,-25.69845 70.1198,-46.35385 19.2736,-20.65539 33.0645,-46.79923 37.0662,-74.7654 4.4179,-30.87447 -3.3085,-62.93067 -19.2458,-89.74022 -15.9374,-26.80955 -39.7465,-48.50374 -66.7421,-64.12375 -53.9914,-31.24004 -118.5422,-38.10796 -180.9167,-38.75593 -62.7942,-0.65233 -127.9612,4.96998 -182.7861,35.5932 -27.4124,15.31161 -51.6729,36.86504 -67.96,63.70933 -16.2871,26.84429 -24.2465,59.11726 -19.8191,90.20237 z"
       id="path4181"
       inkscape:path-effect="#path-effect4183"
       inkscape:original-d="m 1205.9798,733.38445 c 5.3904,100.00947 163.0586,143.61218 263.2047,144.9201 102.9098,1.34401 274.2651,-45.8051 274.2651,-141.8051 3.9795,-141.0994 -157.1903,-191.84464 -266.9046,-192.6199 -110.1071,-0.77804 -276.4914,79.55463 -270.5652,189.5049 z"
       inkscape:connector-curvature="0"
       sodipodi:nodetypes="aacaa" />
    <path
       style="fill:none;fill-rule:evenodd;stroke:#000000;stroke-width:140;stroke-linecap:butt;stroke-linejoin:miter;stroke-miterlimit:4;stroke-dasharray:none;stroke-opacity:1"
       d="m 1498.3346,878.23435 c 88.2605,8.59102 177.8777,3.09045 264.425,-16.23 112.8024,-25.18153 221.0593,-74.45892 309.3732,-149.01861 116.477,-98.33655 194.4562,-237.87527 231.7304,-385.68459 37.2742,-147.80932 35.5026,-303.637062 9.8266,-453.89585 -7.3304,-42.89826 -16.5794,-85.46863 -27.71,-127.54124"
       id="path4185"
       inkscape:path-effect="#path-effect4187"
       inkscape:original-d="m 1498.3346,878.23435 c 0,0 178.9751,6.05309 264.425,-16.23 110.7601,-28.88331 235.5433,-61.54753 309.3732,-149.01861 187.8336,-222.53885 231.9186,-548.52699 241.557,-839.58044 1.4399,-43.48174 -27.71,-127.54124 -27.71,-127.54124"
       inkscape:connector-curvature="0"
       sodipodi:nodetypes="caaac" />
    <path
       style="color:#000000;font-style:normal;font-variant:normal;font-weight:normal;font-stretch:normal;font-size:medium;line-height:normal;font-family:sans-serif;text-indent:0;text-align:start;text-decoration:none;text-decoration-line:none;text-decoration-style:solid;text-decoration-color:#000000;letter-spacing:normal;word-spacing:normal;text-transform:none;direction:ltr;block-progression:tb;writing-mode:lr-tb;baseline-shift:baseline;text-anchor:start;white-space:normal;clip-rule:nonzero;display:inline;overflow:visible;visibility:visible;opacity:1;isolation:auto;mix-blend-mode:normal;color-interpolation:sRGB;color-interpolation-filters:linearRGB;solid-color:#000000;solid-opacity:1;fill:#000000;fill-opacity:1;fill-rule:evenodd;stroke:none;stroke-width:140;stroke-linecap:round;stroke-linejoin:round;stroke-miterlimit:4;stroke-dasharray:none;stroke-dashoffset:0;stroke-opacity:1;color-rendering:auto;image-rendering:auto;shape-rendering:auto;text-rendering:auto;enable-background:accumulate"
       d="M 477.76562 2379.6309 C 475.98994 2379.6266 474.21455 2379.633 472.43945 2379.6484 C 453.5051 2379.8126 434.60879 2381.0924 415.88086 2383.4434 C 286.15444 2399.7285 166.595 2467.3084 84.464844 2568.1445 C 2.434432 2668.8583 -39.050681 2798.3137 -33.058594 2927.3691 C -25.921163 3081.0926 48.584042 3227.4635 168.67578 3323.6914 C 288.76748 3419.9194 447.86067 3460.7266 599.44336 3434.1836 A 70.007 70.007 0 1 0 575.29492 3296.2832 C 464.91055 3315.6122 343.67104 3284.5139 256.21875 3214.4395 C 168.76651 3144.3651 111.98663 3032.8183 106.78906 2920.875 C 102.41084 2826.5784 133.84239 2729.2092 193.01562 2656.5586 C 252.08911 2584.0305 341.19537 2533.9184 433.32031 2522.3535 C 486.75551 2515.6455 541.69425 2521.4867 590.41211 2540.1367 C 638.93508 2558.7121 682.99098 2590.9776 715.32812 2631.6309 C 747.68994 2672.3152 769.90307 2723.315 781.32227 2777.4668 C 791.14171 2824.0323 793.25334 2875.1574 793.65625 2929.1641 C 793.64625 2938.3715 793.63697 2947.6127 793.63477 2956.6543 L 793.5332 3371.9512 L 793.5332 3371.9688 L 793.5332 3372.0039 A 70.007 70.007 0 0 0 933.5332 3372.0723 L 933.5332 3372.0371 L 933.8418 2956.2129 C 933.8478 2948.5796 933.7469 2940.6669 933.71875 2932.9043 C 934.10873 2835.7999 937.63789 2744.6347 967.28711 2668.166 C 983.15856 2627.2316 1006.6952 2590.7701 1036.2188 2564.8555 C 1065.2537 2539.3697 1102.2013 2523.4696 1136.2695 2522.3691 C 1159.5885 2521.6159 1184.6543 2527.4336 1207.2266 2538.7715 C 1229.944 2550.1823 1251.1219 2567.4877 1268.6172 2588.541 C 1303.7254 2630.7893 1324.7319 2689.1862 1332.6484 2751.2422 C 1339.7311 2806.7609 1337.1171 2868.2105 1337.2305 2934.6543 C 1337.3441 3001.2406 1340.431 3074.1106 1365.1152 3146.9629 C 1396.7303 3240.271 1460.5826 3319.5895 1542.7168 3372.0371 C 1624.6954 3424.3854 1721.8604 3448.3357 1817.8848 3442.7129 C 1945.3003 3435.2519 2064.9842 3375.9358 2150.377 3283.1348 C 2147.3641 3298.9364 2143.9112 3314.6275 2139.9883 3330.1836 C 2105.82 3465.6763 2034.2798 3592.2836 1930.9766 3679.498 C 1867.4378 3733.1412 1791.0487 3772.8553 1709.4551 3798.2402 C 1712.704 3788.0189 1715.1724 3777.3981 1716.7441 3766.4141 C 1723.7455 3717.4853 1711.7585 3670.3257 1688.375 3630.9902 C 1665.2656 3592.1161 1632.3909 3562.8025 1596.5195 3542.0469 C 1525.4435 3500.9216 1448.2819 3494.579 1381.2715 3493.8828 C 1313.7966 3493.1819 1235.8807 3497.9989 1163.623 3538.3594 C 1127.1454 3558.7345 1093.6115 3587.8775 1069.9531 3626.8711 C 1046.0061 3666.3404 1033.6472 3713.8784 1040.6797 3763.2539 C 1046.7915 3806.166 1066.6161 3843.5127 1093.2832 3873.0605 C 1119.6926 3902.323 1151.7123 3922.9022 1184.6152 3936.9707 C 1249.9489 3964.9058 1315.3865 3967.1924 1371.8223 3968.291 C 1382.1505 3968.4921 1392.7867 3968.6555 1403.6543 3968.6523 C 1496.6974 3976.8654 1590.8387 3970.6748 1682.0098 3950.3223 C 1804.4697 3922.9849 1923.0461 3869.4151 2021.2891 3786.4727 C 2150.9399 3677.0141 2235.3581 3524.5439 2275.7383 3364.418 C 2315.9934 3204.788 2313.6288 3039.2675 2286.6895 2881.6152 C 2284.9022 2871.1561 2282.9965 2860.7182 2280.9922 2850.2988 C 2277.316 2825.1014 2271.8683 2800.2398 2264.7422 2775.9062 C 2262.4598 2766.5709 2260.1103 2757.2519 2257.6523 2747.9609 L 2255.9004 2748.4238 C 2225.0553 2660.4906 2172.0352 2580.6759 2101.6543 2518.5078 C 1997.7571 2426.7344 1860.3734 2377.23 1721.8184 2381.6426 A 70.007 70.007 0 1 0 1726.2734 2521.5723 C 1828.0154 2518.3321 1932.6783 2556.0438 2008.9707 2623.4336 C 2066.1036 2673.8997 2108.6841 2742.2101 2130.3926 2815.9062 C 2134.942 2834.9258 2139.0925 2854.0399 2142.8359 2873.2344 C 2143.6851 2879.2761 2144.3942 2885.331 2144.9531 2891.3945 C 2154.0701 2990.2933 2124.0785 3094.3229 2062.6328 3170.6035 C 2001.4109 3246.6064 1905.7828 3297.3268 1809.6992 3302.9531 C 1742.7164 3306.8754 1673.7053 3289.5743 1618.0625 3254.043 C 1562.5753 3218.611 1518.4952 3163.3794 1497.7109 3102.0371 C 1481.2399 3053.425 1477.3357 2996.075 1477.2305 2934.4141 C 1477.125 2872.6109 1480.6681 2805.2248 1471.5215 2733.5273 C 1461.143 2652.1733 1433.5824 2568.0074 1376.291 2499.0645 C 1347.5865 2464.5222 1311.9424 2434.701 1270.0645 2413.666 C 1228.0415 2392.5581 1180.6775 2380.8609 1131.748 2382.4414 C 1059.8496 2384.7639 994.50866 2415.184 943.86328 2459.6387 C 903.81036 2494.7956 873.88798 2537.6156 851.96484 2582.916 C 843.61589 2569.7471 834.7284 2556.8438 824.89258 2544.4785 C 776.70469 2483.8982 712.74677 2437.0613 640.46484 2409.3906 C 588.0891 2389.3403 532.81175 2379.762 477.76562 2379.6309 z M 1368.9902 3633.8457 C 1372.5756 3633.8267 1376.1863 3633.8373 1379.8184 3633.875 C 1437.557 3634.4748 1489.4975 3641.8699 1526.4043 3663.2246 C 1544.5241 3673.709 1559.2678 3687.7843 1568.0332 3702.5293 C 1576.5243 3716.8129 1579.9908 3733.7638 1578.1562 3746.584 C 1576.4824 3758.2818 1569.739 3772.2162 1559.2031 3783.5078 C 1548.3832 3795.1034 1532.7935 3805.3156 1514.5762 3812.502 C 1477.6244 3827.0786 1429.2373 3829.383 1374.5469 3828.3184 C 1321.5756 3827.2872 1274.9389 3823.3281 1239.6562 3808.2422 C 1222.2511 3800.8001 1207.4632 3790.6172 1197.2148 3779.2617 C 1187.2241 3768.1918 1180.8843 3754.7688 1179.2812 3743.5137 C 1177.4589 3730.719 1181.0173 3713.7115 1189.6445 3699.4922 C 1198.5604 3684.7971 1213.5474 3670.834 1231.8945 3660.5859 C 1266.9497 3641.0055 1315.2103 3634.131 1368.9902 3633.8457 z "
       transform="translate(0,-1048)"
       id="path4370-92-6-1-7-5-7-8-9" />
  </g>
</svg>
