<?xml version="1.0" encoding="UTF-8" standalone="no"?>
<!-- Created with Inkscape (http://www.inkscape.org/) -->

<svg
   xmlns:dc="http://purl.org/dc/elements/1.1/"
   xmlns:cc="http://creativecommons.org/ns#"
   xmlns:rdf="http://www.w3.org/1999/02/22-rdf-syntax-ns#"
   xmlns:svg="http://www.w3.org/2000/svg"
   xmlns="http://www.w3.org/2000/svg"
   xmlns:sodipodi="http://sodipodi.sourceforge.net/DTD/sodipodi-0.dtd"
   xmlns:inkscape="http://www.inkscape.org/namespaces/inkscape"
   width="2000"
   height="2048"
   id="svg2992"
   version="1.1"
   inkscape:version="0.91 r13725"
   sodipodi:docname="സ്ത്ര.svg">
  <defs
     id="defs5498">
    <inkscape:perspective
       sodipodi:type="inkscape:persp3d"
       inkscape:vp_x="0 : 1024 : 1"
       inkscape:vp_y="0 : 1000 : 0"
       inkscape:vp_z="2000 : 1024 : 1"
       inkscape:persp3d-origin="1000 : 682.66667 : 1"
       id="perspective4215" />
    <inkscape:path-effect
       effect="spiro"
       id="path-effect3846"
       is_visible="true" />
    <inkscape:path-effect
       effect="spiro"
       id="path-effect3801"
       is_visible="true" />
    <inkscape:path-effect
       effect="spiro"
       id="path-effect4888"
       is_visible="true" />
    <inkscape:path-effect
       effect="spiro"
       id="path-effect4372-52"
       is_visible="true" />
    <inkscape:path-effect
       effect="spiro"
       id="path-effect4372-52-6"
       is_visible="true" />
    <inkscape:path-effect
       effect="spiro"
       id="path-effect4888-9"
       is_visible="true" />
    <inkscape:path-effect
       effect="spiro"
       id="path-effect4372-52-4-6-8"
       is_visible="true" />
    <inkscape:path-effect
       effect="spiro"
       id="path-effect4372-52-4-6-8-0"
       is_visible="true" />
    <inkscape:path-effect
       effect="spiro"
       id="path-effect4888-9-3"
       is_visible="true" />
    <inkscape:path-effect
       effect="spiro"
       id="path-effect4888-9-3-9"
       is_visible="true" />
    <inkscape:path-effect
       effect="spiro"
       id="path-effect4372-52-4-6-8-0-6"
       is_visible="true" />
    <inkscape:path-effect
       effect="spiro"
       id="path-effect4372-52-4-6-8-2"
       is_visible="true" />
    <inkscape:path-effect
       effect="spiro"
       id="path-effect4888-9-3-9-2"
       is_visible="true" />
    <inkscape:path-effect
       effect="spiro"
       id="path-effect4372-52-4-6-8-2-1"
       is_visible="true" />
    <inkscape:path-effect
       effect="spiro"
       id="path-effect4372-52-4-6-8-2-2"
       is_visible="true" />
    <inkscape:path-effect
       effect="spiro"
       id="path-effect4888-9-3-9-3"
       is_visible="true" />
    <inkscape:path-effect
       effect="spiro"
       id="path-effect4372-52-4-6-8-7"
       is_visible="true" />
    <inkscape:path-effect
       effect="spiro"
       id="path-effect4372-52-4-6-8-7-2"
       is_visible="true" />
    <inkscape:path-effect
       effect="spiro"
       id="path-effect4888-9-3-9-8"
       is_visible="true" />
    <inkscape:path-effect
       effect="spiro"
       id="path-effect4372-52-4-6-8-7-9-3"
       is_visible="true" />
    <inkscape:path-effect
       effect="spiro"
       id="path-effect4372-52-4-6-8-7-9-3-6"
       is_visible="true" />
    <inkscape:path-effect
       effect="spiro"
       id="path-effect4888-9-3-9-5"
       is_visible="true" />
    <inkscape:path-effect
       effect="spiro"
       id="path-effect4888-9-3-9-7"
       is_visible="true" />
    <inkscape:path-effect
       effect="spiro"
       id="path-effect4372-52-4-6-8-7-9-3-9"
       is_visible="true" />
    <inkscape:path-effect
       effect="spiro"
       id="path-effect4372-52-4-6-8-7-9-3-1"
       is_visible="true" />
    <inkscape:path-effect
       effect="spiro"
       id="path-effect4372-52-4-6-8-7-9-3-1-1"
       is_visible="true" />
    <inkscape:path-effect
       effect="spiro"
       id="path-effect4888-9-3-9-28"
       is_visible="true" />
    <inkscape:path-effect
       effect="spiro"
       id="path-effect4888-9-3-9-9"
       is_visible="true" />
    <inkscape:path-effect
       effect="spiro"
       id="path-effect4372-52-4-6-8-7-9-3-1-0"
       is_visible="true" />
    <inkscape:path-effect
       effect="spiro"
       id="path-effect4372-52-4-6-8-7-9-3-1-0-2"
       is_visible="true" />
    <inkscape:path-effect
       effect="spiro"
       id="path-effect4888-9-3-9-9-7"
       is_visible="true" />
    <inkscape:path-effect
       effect="spiro"
       id="path-effect4372-52-4-6-8-7-9-3-1-6"
       is_visible="true" />
    <inkscape:path-effect
       effect="spiro"
       id="path-effect4888-9-3-9-27"
       is_visible="true" />
  </defs>
  <sodipodi:namedview
     inkscape:window-height="844"
     inkscape:window-width="1600"
     inkscape:pageshadow="2"
     inkscape:pageopacity="0.0"
     borderopacity="1.0"
     bordercolor="#666666"
     pagecolor="#ffffff"
     id="base"
     showgrid="true"
     showguides="true"
     inkscape:guide-bbox="true"
     inkscape:zoom="0.25"
     inkscape:cx="1395.1854"
     inkscape:cy="-1825.6051"
     inkscape:window-x="1600"
     inkscape:window-y="0"
     inkscape:current-layer="layer1"
     inkscape:window-maximized="1">
    <sodipodi:guide
       orientation="horizontal"
       position="0,600"
       id="guide5596" />
    <inkscape:grid
       type="xygrid"
       id="grid3769"
       empspacing="3"
       visible="true"
       enabled="true"
       snapvisiblegridlinesonly="true"
       spacingx="4px"
       units="px"
       dotted="true"
       spacingy="4px" />
    <sodipodi:guide
       orientation="0,1"
       position="-1040,1600"
       id="guide2985" />
  </sodipodi:namedview>
  <metadata
     id="metadata5594">
    <rdf:RDF>
      <cc:Work
         rdf:about="">
        <dc:format>image/svg+xml</dc:format>
        <dc:type
           rdf:resource="http://purl.org/dc/dcmitype/StillImage" />
        <dc:title />
      </cc:Work>
    </rdf:RDF>
  </metadata>
  <g
     inkscape:label="Layer 1"
     inkscape:groupmode="layer"
     id="layer1"
     transform="translate(0,1048)">
    <path
       style="fill:none;fill-rule:evenodd;stroke:#000000;stroke-width:120;stroke-linecap:round;stroke-linejoin:round;stroke-miterlimit:4;stroke-dasharray:none;stroke-opacity:1"
       d="m 2072.683,942.51194 c -38.1757,-24.18841 -69.3407,-59.30499 -88.8219,-100.08426 -19.4812,-40.77927 -27.2156,-87.08919 -22.0434,-131.9859 7.5929,-65.90951 43.3838,-127.74812 95.6042,-168.67167 52.2205,-40.92356 120.0419,-60.85052 186.2505,-56.59202 63.0609,4.05604 124.4412,29.73257 171.9961,71.34573 47.5549,41.61316 81.0823,98.85465 94.6941,160.56237 11.0874,50.26392 8.5592,105.25146 -16.8487,150.0156 -12.704,22.38208 -31.0056,41.76039 -53.3448,54.53964 -22.3392,12.77924 -48.7443,18.75204 -74.2716,15.48031 -22.7641,-2.91759 -44.3821,-13.08829 -61.913,-27.89995 -17.5309,-14.81165 -31.0311,-34.14372 -39.9947,-55.27121 -17.9273,-42.25498 -17.5475,-90.46015 -7.6758,-135.28669 15.088,-68.51321 52.5783,-132.61414 107.7028,-176.0077 55.1245,-43.39356 127.9817,-64.89056 197.3107,-54.1575 67.4185,10.43729 128.7018,50.71411 169.3535,105.50128 40.6516,54.78716 61.2813,123.14682 63.1368,191.34322 1.3802,50.72511 -7.455,101.94279 -27.8544,148.40578 -20.3993,46.463 -52.4675,87.78963 -92.6594,118.76613 -40.192,30.9766 -88.0732,51.2588 -137.7013,61.8413 -49.6282,10.5825 -100.7368,11.5338 -151.4796,11.869 l -644.0487,4.254 c -138.5755,0.9153 -277.6413,0.8005 -414.9915,-17.6101 C 1187.7328,1094.4587 1052.3153,1057.7559 927.44988,997.65075 677.71902,877.44048 477.87119,660.76553 370.55774,405.2272 240.27666,94.99759 242.91265,-268.51707 377.679,-576.82471"
       id="path4886-6-2-5"
       inkscape:path-effect="#path-effect4888-9-3-9"
       inkscape:original-d="m 2072.683,942.51194 c 0,0 -130.0284,-148.50871 -110.8653,-232.07016 26.8838,-117.22776 161.6097,-227.75832 281.8547,-225.26369 117.781,2.44352 250.5967,115.20619 266.6902,231.9081 11.9862,86.91808 -56.872,225.12267 -144.4651,220.03555 -81.3303,-4.7234 -128.1328,-139.13033 -109.5835,-218.45785 29.0009,-124.02499 178.7172,-246.6728 305.0135,-230.1652 124.6241,16.28904 245.8132,171.86855 232.4903,296.8445 -18.832,176.65366 -143.6858,332.79811 -409.6947,340.88221 l -644.0487,4.254 C 1213.5276,1103.7493 635.37257,848.75154 370.55774,405.2272 202.73885,124.15622 377.679,-576.82471 377.679,-576.82471"
       inkscape:connector-curvature="0"
       sodipodi:nodetypes="caaaaaaaccac" />
    <path
       style="fill:none;fill-rule:evenodd;stroke:#000000;stroke-width:140;stroke-linecap:round;stroke-linejoin:round;stroke-miterlimit:4;stroke-dasharray:none;stroke-opacity:1"
       d="M 1150.8687,350.48363 C 1019.8852,373.41962 879.71864,337.46666 775.94665,254.31547 672.17466,171.16428 606.5326,42.205413 600.3651,-90.62797 c -5.18515,-111.67599 31.27365,-225.08812 101.87547,-311.77026 70.60182,-86.68215 174.93425,-145.52897 285.85993,-159.45394 64.1735,-8.05597 130.4355,-1.25707 190.838,21.86597 60.4024,23.12305 114.4093,62.67475 154.6718,113.29155 40.2626,50.6168 66.3613,111.68314 79.7065,174.9685 13.3452,63.28535 14.0728,128.46077 14.0249,193.13788 l -0.3077,415.859 0.1014,-415.3498 c 0.026,-106.02179 0.059,-214.95856 38.3864,-313.81003 19.1638,-49.42573 48.1795,-95.64296 88.0196,-130.61316 39.8402,-34.97021 90.984,-58.13134 143.9673,-59.84281 36.1242,-1.16689 72.3394,7.59117 104.637,23.81408 32.2977,16.22292 60.709,39.78567 83.8089,67.58346 46.1998,55.59559 70.4828,126.87743 79.6303,198.58246 8.1146,63.60814 5.0362,128.02587 5.1456,192.149419 0.1094,64.123548 3.6044,129.233442 24.182,189.965681 26.1997,77.32522 80.1663,144.60025 148.977,188.54002 68.8107,43.93978 151.8988,64.56573 233.4024,59.79318 117.2359,-6.8649 229.6852,-66.86188 303.3549,-158.31776 73.6696,-91.45589 108.2903,-212.605013 97.5101,-329.54594 -11.0347,-119.7019 -69.2488,-234.41716 -159.3436,-313.99879 -90.0948,-79.58163 -211.119,-123.18924 -331.2675,-119.36281"
       id="path4370-92-6-1-7-5-7-8"
       inkscape:path-effect="#path-effect4372-52-4-6-8-7-9-3-1"
       inkscape:original-d="m 1150.8687,350.48363 c -340.6381,16.87397 -526.237,-207.2232 -550.5036,-441.1116 -20.992,-202.3268 184.344,-468.26778 387.7354,-471.2242 222.639,-3.2362 442.0696,450.938 439.2412,503.2639 l -0.3077,415.859 0.1014,-415.3498 c 4.6461,-117.9564 81.1839,-480.1086 270.3733,-504.266 130.5762,-16.67314 215.4376,169.32628 268.0762,289.98 51.083,117.08819 -35.8804,272.26504 29.3276,382.1151 77.5785,130.68947 232.1856,271.57047 382.3794,248.3332 208.0019,-32.18099 417.6287,-278.0557 400.865,-487.8637 -17.3788,-217.50691 -334.3454,-322.4011 -490.6111,-433.3616"
       inkscape:connector-curvature="0"
       sodipodi:nodetypes="caacccaaaaac" />
    <path
       style="fill:none;fill-rule:evenodd;stroke:#000000;stroke-width:60;stroke-linecap:round;stroke-linejoin:round;stroke-miterlimit:4;stroke-dasharray:none;stroke-opacity:1"
       d="m -1132.2391,921.99945 c -43.4472,-18.87807 -80.3542,-52.44793 -103.2531,-93.91696 -22.8989,-41.46903 -31.651,-90.58586 -24.4852,-137.41206 7.8812,-51.50129 34.6571,-99.31018 71.9092,-135.73512 37.2521,-36.42494 84.5713,-61.76806 134.5899,-76.34993 88.3572,-25.75866 187.89624,-17.14951 266.40818,30.87525 39.25597,24.01238 72.85313,57.46111 96.06465,97.19587 23.21151,39.73476 35.88088,85.73134 35.16051,131.74337 -0.67437,43.07376 -13.39657,86.46965 -39.3362,120.86353 -25.93963,34.39388 -65.58966,59.05263 -108.45281,63.36004 -46.18188,4.64092 -93.27992,-14.76193 -125.93975,-47.74132 -32.65983,-32.97939 -51.33584,-78.42918 -55.72966,-124.63523 -3.81603,-40.1299 2.71952,-81.10538 18.0842,-118.37329 15.36467,-37.26792 39.47159,-70.80322 69.3615,-97.85066 59.77983,-54.09488 141.94965,-80.9102 222.53966,-78.64452 81.6421,2.29526 162.84138,34.2449 221.32543,91.25644 58.48405,57.01154 92.7723,139.13731 88.12468,220.67932 -4.84202,84.95279 -50.84815,164.46307 -115.05601,220.3001 -64.20785,55.83702 -145.29304,89.61032 -228.36248,108.04642 -152.46918,33.8384 -310.8083,23.9661 -466.978,22.2568 l -326.9263,-3.5782 c -142.8326,-1.5633 -286.5063,-6.5459 -426.1238,-36.7212 -139.6175,-30.1752 -273.8991,-83.78276 -397.2448,-155.82054 -219.3103,-128.08412 -406.8128,-315.25791 -518.324,-543.4416 -154.2971,-315.735943 -151.5186,-703.68191 7.2851,-1017.1754"
       id="path4886-6-2-5-0"
       inkscape:path-effect="#path-effect4888-9-3-9-9"
       inkscape:original-d="m -1132.2391,921.99945 c 0,0 -139.4843,-144.02626 -127.7383,-231.32902 13.1585,-97.8002 108.4377,-201.25341 206.4991,-212.08505 157.36182,-17.38174 372.72861,103.42855 397.63334,259.81449 12.38239,77.75327 -69.25572,178.89166 -147.78901,184.22357 -83.27677,5.65393 -181.61703,-88.88749 -181.66941,-172.37655 -0.089,-142.62839 167.40714,-296.93557 309.98536,-294.86847 146.42953,2.12306 311.38554,165.46738 309.45011,311.93576 -2.09287,158.38314 -73.44126,293.19462 -343.41849,328.34652 -82.7664,10.7764 -314.1521,23.9294 -466.978,22.2568 l -326.9263,-3.5782 c -185.9933,-2.0356 -578.669,-52.6305 -823.3686,-192.54174 -217.3011,-124.24579 -426.0989,-310.69598 -518.324,-543.4416 -124.9021,-315.21144 7.2851,-1017.1754 7.2851,-1017.1754"
       inkscape:connector-curvature="0"
       sodipodi:nodetypes="caaaaaaasssaac" />
    <path
       style="fill:none;fill-rule:evenodd;stroke:#000000;stroke-width:70;stroke-linecap:round;stroke-linejoin:round;stroke-miterlimit:4;stroke-dasharray:none;stroke-opacity:1"
       d="m -2062.8213,358.19725 c -135.3981,23.40003 -280.1373,-13.94794 -387.3083,-99.93963 -107.171,-85.99168 -174.9945,-219.199326 -181.4892,-356.45099 -5.4652,-115.49647 32.1032,-232.83852 105.0453,-322.55339 72.942,-89.71488 180.8429,-150.64567 295.575,-164.99284 66.3509,-8.29713 134.8548,-1.20129 197.2778,22.77049 62.423,23.97178 118.2123,64.92448 159.7918,117.29268 41.5794,52.36819 68.5191,115.51673 82.2935,180.95024 13.7745,65.43351 14.5241,132.81469 14.4747,199.682296 l -0.318,430.263334 0.1048,-429.736497 c 0.027,-109.655563 0.028,-222.316863 39.5834,-324.589693 19.7776,-51.13642 49.7389,-98.96855 90.9133,-135.1729 41.1744,-36.20436 94.0624,-60.1978 148.8615,-61.96992 37.3548,-1.208 74.8033,7.8623 108.1914,24.65745 33.3881,16.79514 62.7483,41.18517 86.6099,69.9509 47.7231,57.53145 72.7591,131.26363 82.1834,205.41583 8.3646,65.81477 5.1734,132.46132 5.2863,198.805412 0.1128,66.344087 3.7338,133.707115 25.0159,196.545198 27.0702,79.92843 82.7956,149.49793 153.8837,194.9714 71.08807,45.47348 156.95708,66.86607 241.20265,61.96347 121.2516,-7.05614 237.5419,-69.18678 313.65061,-163.83985 76.10871,-94.65307 111.77344,-219.986517 100.53565,-340.92225 -11.49462,-123.69961 -71.64591,-242.22392 -164.70042,-324.53175 -93.05451,-82.30783 -218.03679,-127.53638 -342.21432,-123.84042"
       id="path4370-92-6-1-7-5-7-8-3"
       inkscape:path-effect="#path-effect4372-52-4-6-8-7-9-3-1-0"
       inkscape:original-d="m -2062.8213,358.19725 c -351.9579,17.45837 -543.7245,-214.40091 -568.7975,-456.39062 -21.6896,-209.33489 190.47,-484.4874 400.6203,-487.54623 230.0376,-3.34829 456.7602,466.55737 453.8378,520.695706 l -0.318,430.263334 0.1048,-429.736497 c 4.8005,-122.042113 83.8818,-496.738363 279.3582,-521.732513 134.9154,-17.25066 222.5968,175.19132 276.9847,300.02418 52.7805,121.14383 -37.0728,281.6956177 30.3022,395.35061 80.1565,135.21623 239.90141,280.97694 395.08635,256.93487 214.91407,-33.29568 431.50704,-287.686884 414.18626,-504.7621 -17.95632,-225.04081 -345.45613,-333.56827 -506.91474,-448.37217"
       inkscape:connector-curvature="0"
       sodipodi:nodetypes="caacccaaaaac" />
    <path
       style="color:#000000;font-style:normal;font-variant:normal;font-weight:normal;font-stretch:normal;font-size:medium;line-height:normal;font-family:sans-serif;text-indent:0;text-align:start;text-decoration:none;text-decoration-line:none;text-decoration-style:solid;text-decoration-color:#000000;letter-spacing:normal;word-spacing:normal;text-transform:none;direction:ltr;block-progression:tb;writing-mode:lr-tb;baseline-shift:baseline;text-anchor:start;white-space:normal;clip-rule:nonzero;display:inline;overflow:visible;visibility:visible;opacity:1;isolation:auto;mix-blend-mode:normal;color-interpolation:sRGB;color-interpolation-filters:linearRGB;solid-color:#000000;solid-opacity:1;fill:#000000;fill-opacity:1;fill-rule:evenodd;stroke:none;stroke-width:60;stroke-linecap:round;stroke-linejoin:round;stroke-miterlimit:4;stroke-dasharray:none;stroke-dashoffset:0;stroke-opacity:1;color-rendering:auto;image-rendering:auto;shape-rendering:auto;text-rendering:auto;enable-background:accumulate"
       d="m -2646.791,1154.832 a 30.003,30.003 0 0 0 -25.5703,16.791 c -163.2486,322.2681 -166.0924,719.3312 -7.4766,1043.9043 114.4944,234.2883 306.2776,425.4282 530.1484,556.1758 125.9368,73.5511 263.1309,128.3523 406.0372,159.2383 143.1047,30.929 288.8228,35.828 432.1328,37.3965 l 326.9277,3.5781 c 155.12751,1.6979 315.84177,12.0889 473.80469,-22.9687 86.60377,-19.2205 172.42389,-54.5823 241.54883,-114.6953 69.49449,-60.4345 119.92641,-146.561 125.32226,-241.2305 5.18977,-91.0537 -32.53587,-180.8968 -97.13476,-243.8692 -64.4111,-62.7894 -152.52282,-97.2623 -241.42383,-99.7617 -53.30971,-1.4987 -107.18811,8.6367 -156.14844,30.1914 -73.86302,-26.8199 -156.18138,-27.6821 -231.25195,-5.7968 -54.10441,15.773 -105.8074,43.2608 -147.166,83.7011 -41.4965,40.575 -71.5936,93.8461 -80.5918,152.6465 -8.1927,53.5374 1.698,109.0387 27.8789,156.4512 26.1808,47.4126 67.8845,85.3459 117.55859,106.9297 a 30.003,30.003 0 1 0 23.91211,-55.0293 c -37.22025,-16.1725 -69.33032,-45.3787 -88.9473,-80.9043 -19.6169,-35.5255 -27.2305,-78.2561 -21.0918,-118.3711 6.7643,-44.2023 30.2207,-86.5494 63.22855,-118.8242 33.14561,-32.4097 76.07883,-55.6073 122.01172,-68.9981 46.09404,-13.4377 95.58363,-16.4824 142.64258,-8.6836 -5.29516,4.1997 -10.50876,8.5172 -15.54688,13.0762 -33.08711,29.9407 -59.8066,67.0324 -76.96875,108.6602 -17.17552,41.6602 -24.51668,87.3872 -20.21289,132.6464 4.97671,52.3359 25.94424,104.1981 64.27735,142.9063 38.66701,39.0453 93.77783,62.156 150.25585,56.4805 52.3655,-5.2624 98.76789,-34.5205 129.40625,-75.1446 30.40498,-40.3145 44.61898,-89.7955 45.38086,-138.459 0.81146,-51.8298 -13.35444,-103.0095 -39.2539,-147.3457 -22.80159,-39.0329 -54.34358,-72.2692 -91.16992,-97.7597 26.15344,-6.2757 53.23107,-9.1522 80.11132,-8.3965 74.3832,2.0912 148.66956,31.5162 201.22657,82.75 52.36921,51.0506 83.22073,125.4599 79.11523,197.4902 -4.28821,75.2361 -45.86981,148.1296 -104.79102,199.3692 -59.29075,51.5609 -135.64262,83.7447 -215.17773,101.3964 -146.97544,32.6192 -302.93658,23.2676 -460.14844,21.5469 l -326.92775,-3.5781 c -142.3552,-1.5581 -283.983,-6.6253 -420.1133,-36.0469 -136.3287,-29.4644 -267.6984,-81.8778 -388.4531,-152.4023 -214.7497,-125.4206 -397.972,-308.6298 -506.5,-530.709 -149.9784,-306.8986 -147.2651,-685.7283 7.0938,-990.4473 a 30.003,30.003 0 0 0 -27.9551,-43.9043 z m 2010.49803,1190.5664 c 8.77153,4.0909 17.32553,8.6123 25.56836,13.6543 35.17669,21.5172 65.26393,51.5569 85.81445,86.7364 20.52358,35.1334 31.69765,75.9465 31.06836,116.1406 -0.58685,37.4841 -11.81673,74.7964 -33.29101,103.2695 -21.24088,28.1638 -54.1392,48.2217 -87.5,51.5742 -35.88578,3.6063 -74.97231,-12.0865 -101.625,-39 -26.98659,-27.2506 -43.36876,-66.2908 -47.17969,-106.3672 -3.32827,-35.0005 2.3993,-71.222 15.95312,-104.0976 13.56722,-32.9081 35.06314,-62.8867 61.75586,-87.041 14.93654,-13.5161 31.61436,-25.1161 49.43555,-34.8692 z"
       id="path4886-6-2-5-0-7"
       inkscape:connector-curvature="0" />
    <path
       style="color:#000000;font-style:normal;font-variant:normal;font-weight:normal;font-stretch:normal;font-size:medium;line-height:normal;font-family:sans-serif;text-indent:0;text-align:start;text-decoration:none;text-decoration-line:none;text-decoration-style:solid;text-decoration-color:#000000;letter-spacing:normal;word-spacing:normal;text-transform:none;direction:ltr;block-progression:tb;writing-mode:lr-tb;baseline-shift:baseline;text-anchor:start;white-space:normal;clip-rule:nonzero;display:inline;overflow:visible;visibility:visible;opacity:1;isolation:auto;mix-blend-mode:normal;color-interpolation:sRGB;color-interpolation-filters:linearRGB;solid-color:#000000;solid-opacity:1;fill:#000000;fill-opacity:1;fill-rule:evenodd;stroke:none;stroke-width:70;stroke-linecap:round;stroke-linejoin:round;stroke-miterlimit:4;stroke-dasharray:none;stroke-dashoffset:0;stroke-opacity:1;color-rendering:auto;image-rendering:auto;shape-rendering:auto;text-rendering:auto;enable-background:accumulate"
       d="m -1989.2148,1199.9395 c -18.1075,0.141 -36.194,1.3492 -54.127,3.5917 -124.1577,15.5259 -239.6818,80.8375 -318.3887,177.6426 -78.6549,96.7414 -118.7256,222.1083 -112.8496,346.2871 6.988,147.6754 79.2368,289.5734 194.5469,382.0957 115.3102,92.5224 269.4909,132.3061 415.1719,107.1289 a 35.0035,35.0035 0 1 0 -11.9199,-68.9765 c -125.1153,21.6229 -260.4135,-13.289 -359.4454,-92.75 -99.0318,-79.461 -162.4301,-203.9786 -168.4316,-330.8067 -5.0544,-106.8141 30.0129,-216.1319 97.2422,-298.8203 67.1773,-82.6244 167.4532,-139.1732 272.7598,-152.3418 60.9697,-7.6242 123.8078,-1.0134 180.3886,20.7149 56.4844,21.6912 107.3032,58.9957 144.9278,106.3828 37.6371,47.403 62.6405,105.5228 75.455,166.3965 11.0869,52.6665 13.1866,108.3875 13.5508,165.5019 -0.017,9.1864 -0.037,18.3978 -0.039,27.4883 l -0.1055,429.7109 0,0.01 0,0.017 a 35.0035,35.0035 0 0 0 70,0.035 l 0,-0.018 0.3183,-430.2461 c 0.01,-8.3156 -0.1044,-16.7842 -0.1425,-25.1777 0.3284,-100.7845 3.5717,-199.4506 37.1562,-286.2852 18.1365,-46.8934 45.3636,-89.8459 81.3809,-121.5156 35.7715,-31.4537 81.555,-51.8057 126.8808,-53.2715 30.9428,-1.0006 62.8105,6.5962 91.3321,20.9434 28.5945,14.3838 54.3392,35.6395 75.4004,61.0293 42.1817,50.8511 65.5877,118.1424 74.4003,187.4824 7.8517,61.7786 4.893,126.9448 5.0079,194.4512 0.1149,67.5773 3.5321,138.8209 26.8652,207.7148 29.7723,87.9065 90.42953,163.4954 168.17382,213.2266 77.66826,49.6827 170.578,72.7476 262.0957,67.4219 131.85163,-7.6731 256.56276,-74.4572 338.89454,-176.8497 82.21745,-102.2501 120.18452,-236.1448 108.10937,-366.0918 -12.34487,-132.8496 -76.42558,-259.1136 -176.36328,-347.5097 -99.9377,-88.3962 -233.08049,-136.5787 -366.44336,-132.6094 a 35.0035,35.0035 0 1 0 2.08203,69.9688 c 114.9922,-3.4226 231.8131,38.8526 317.98438,115.0722 86.17129,76.2195 142.39469,187.0051 153.03906,301.5547 10.40043,111.9245 -22.961,228.6942 -92.96094,315.75 -69.8856,86.9137 -177.75665,144.3927 -288.4082,150.832 -76.97346,4.4794 -155.80067,-15.2415 -220.3086,-56.5058 -64.43189,-41.2156 -115.22554,-104.7646 -139.59374,-176.7149 -19.23112,-56.7823 -23.05532,-120.268 -23.16602,-185.3789 -0.11092,-65.1818 3.31116,-133.3072 -5.56641,-203.1582 -10.03595,-78.9644 -36.70035,-159.1359 -89.96485,-223.3476 -26.662,-32.1418 -59.6386,-59.6667 -97.8203,-78.8731 -38.2546,-19.2432 -81.2839,-29.7864 -125.0508,-28.3711 -64.2724,2.0785 -124.2647,29.7111 -170.8418,70.666 -46.3315,40.7391 -79.0266,93.4525 -100.4453,148.8321 -5.3288,13.778 -9.9806,27.6644 -14.041,41.6289 -15.6113,-38.1762 -36.02,-74.5607 -62.043,-107.336 -45.5344,-57.3493 -106.2946,-101.9507 -174.6562,-128.2031 -51.1989,-19.6615 -105.7186,-28.8411 -160.041,-28.4179 z"
       id="path4370-92-6-1-7-5-7-8-3-6"
       inkscape:connector-curvature="0" />
    <path
       style="color:#000000;font-style:normal;font-variant:normal;font-weight:normal;font-stretch:normal;font-size:medium;line-height:normal;font-family:sans-serif;text-indent:0;text-align:start;text-decoration:none;text-decoration-line:none;text-decoration-style:solid;text-decoration-color:#000000;letter-spacing:normal;word-spacing:normal;text-transform:none;direction:ltr;block-progression:tb;writing-mode:lr-tb;baseline-shift:baseline;text-anchor:start;white-space:normal;clip-rule:nonzero;display:inline;overflow:visible;visibility:visible;opacity:1;isolation:auto;mix-blend-mode:normal;color-interpolation:sRGB;color-interpolation-filters:linearRGB;solid-color:#000000;solid-opacity:1;fill:#000000;fill-opacity:1;fill-rule:evenodd;stroke:none;stroke-width:120;stroke-linecap:round;stroke-linejoin:round;stroke-miterlimit:4;stroke-dasharray:none;stroke-dashoffset:0;stroke-opacity:1;color-rendering:auto;image-rendering:auto;shape-rendering:auto;text-rendering:auto;enable-background:accumulate"
       d="M 433.83984 2518.3926 A 60.006 60.006 0 0 0 378.70117 2555.1445 C 237.11739 2879.0485 234.36667 3258.5358 371.23828 3584.459 C 484.16016 3853.3523 693.57835 4080.7076 957.42578 4207.7129 C 1088.9658 4271.031 1230.501 4309.2222 1373.1113 4328.3379 C 1515.7145 4347.4526 1657.5969 4347.3958 1796.4707 4346.4785 L 2440.5195 4342.2246 C 2491.7461 4341.8862 2546.9872 4341.2188 2604.1152 4329.0371 C 2661.3377 4316.8352 2717.5204 4293.3504 2765.9316 4256.0391 C 2814.3382 4218.7314 2852.4629 4169.5343 2876.9023 4113.8691 C 2901.2629 4058.384 2911.3944 3998.4932 2909.7949 3939.7109 C 2907.6402 3860.5175 2883.9601 3780.4144 2834.8652 3714.248 C 2785.404 3647.588 2711.5563 3598.3717 2626.5078 3585.2051 C 2560.4517 3574.9787 2494.0106 3587.5835 2436.2695 3617.2676 C 2395.0824 3596.764 2349.9508 3584.2889 2303.5234 3581.3027 C 2222.7311 3576.1062 2141.0417 3599.8968 2076.4121 3650.5449 C 2011.5705 3701.3594 1967.7708 3776.6076 1958.2129 3859.5742 C 1951.7255 3915.8869 1961.288 3973.1428 1985.7227 4024.291 C 2010.1574 4075.4393 2048.6877 4118.8565 2096.5703 4149.1953 A 60.006 60.006 0 1 0 2160.7969 4047.8301 C 2132.3281 4029.7921 2108.5277 4002.9747 2094 3972.5645 C 2079.4723 3942.1541 2073.5668 3906.7893 2077.4238 3873.3086 C 2083.0517 3824.4562 2110.8324 3776.0288 2150.4316 3744.9961 C 2190.243 3713.7972 2244.1955 3697.7342 2295.8203 3701.0547 C 2306.6258 3701.7497 2317.4166 3703.4258 2328.1055 3705.7383 C 2291.3024 3751.2238 2266.1689 3805.2249 2253.7188 3861.7598 C 2241.9734 3915.0938 2240.3015 3975.7454 2264.7559 4033.3848 C 2277.0396 4062.3379 2295.6702 4089.4329 2321.2617 4111.0547 C 2347.024 4132.821 2378.8165 4148.0928 2414.2695 4152.6367 C 2454.1048 4157.7421 2492.9295 4148.6214 2525.9629 4129.7246 C 2558.7344 4110.9774 2584.1189 4083.687 2601.6953 4052.7207 C 2636.6722 3991.098 2638.4365 3921.2901 2624.9531 3860.1641 C 2612.3463 3803.0123 2585.8407 3749.578 2548.1172 3705.0195 C 2568.2669 3701.3553 2588.6674 3700.7789 2608.1484 3703.7949 C 2657.937 3711.5028 2706.654 3742.8395 2738.4961 3785.7539 C 2770.7044 3829.1617 2788.2836 3885.7772 2789.8398 3942.9766 C 2791.0008 3985.6446 2783.4637 4028.1901 2767.0254 4065.6309 C 2750.6662 4102.8918 2724.655 4136.3487 2692.6777 4160.9941 C 2660.705 4185.636 2621.1236 4202.7146 2579.0898 4211.6777 C 2536.9615 4220.661 2489.9856 4221.8965 2439.7266 4222.2285 L 1795.6777 4226.4824 C 1657.4005 4227.3957 1521.1519 4227.1088 1389.0547 4209.4023 C 1256.9648 4191.6968 1127.6635 4156.4821 1009.4727 4099.5898 C 773.85832 3986.1747 583.58197 3780.1813 481.87695 3537.998 C 358.18641 3243.462 360.70733 2895.9203 488.65625 2603.209 A 60.006 60.006 0 0 0 433.83984 2518.3945 L 433.83984 2518.3926 z M 1097.2656 2520.8809 C 1095.4899 2520.8766 1093.7145 2520.883 1091.9395 2520.8984 C 1073.0051 2521.0626 1054.1088 2522.3424 1035.3809 2524.6934 C 905.6544 2540.9785 786.095 2608.5584 703.96484 2709.3945 C 621.93444 2810.1083 580.44932 2939.5637 586.44141 3068.6191 C 593.57884 3222.3426 668.08404 3368.7135 788.17578 3464.9414 C 908.26748 3561.1694 1067.3607 3601.9786 1218.9434 3575.4355 A 70.007 70.007 0 1 0 1194.7949 3437.5332 C 1084.4106 3456.8622 963.17103 3425.7639 875.71875 3355.6895 C 788.26651 3285.6151 731.48663 3174.0683 726.28906 3062.125 C 721.91085 2967.8284 753.34239 2870.4592 812.51562 2797.8086 C 871.58911 2725.2805 960.69538 2675.1684 1052.8203 2663.6035 C 1106.2556 2656.8955 1161.1942 2662.7367 1209.9121 2681.3867 C 1258.435 2699.9621 1302.491 2732.2276 1334.8281 2772.8809 C 1367.19 2813.5651 1389.4031 2864.565 1400.8223 2918.7168 C 1410.6417 2965.2824 1412.7534 3016.4075 1413.1562 3070.4141 C 1413.1463 3079.6215 1413.1368 3088.8627 1413.1348 3097.9043 L 1413.0332 3513.2012 L 1413.0332 3513.2188 L 1413.0332 3513.2539 A 70.007 70.007 0 0 0 1553.0332 3513.3223 L 1553.0332 3513.2871 L 1553.3418 3097.4629 C 1553.3518 3089.8293 1553.2468 3081.9172 1553.2188 3074.1543 C 1553.6088 2977.05 1557.138 2885.8849 1586.7871 2809.416 C 1602.6585 2768.4817 1626.1951 2732.0202 1655.7188 2706.1055 C 1684.7537 2680.6197 1721.7013 2664.7196 1755.7695 2663.6191 C 1779.0885 2662.8659 1804.1543 2668.6836 1826.7266 2680.0215 C 1849.444 2691.4323 1870.6219 2708.7377 1888.1172 2729.791 C 1923.2254 2772.0393 1944.2319 2830.4382 1952.1484 2892.4941 C 1959.2311 2948.0129 1956.6171 3009.4605 1956.7305 3075.9043 C 1956.8441 3142.4906 1959.931 3215.3606 1984.6152 3288.2129 C 2016.2303 3381.521 2080.0826 3460.8395 2162.2168 3513.2871 C 2244.1954 3565.6354 2341.3604 3589.5857 2437.3848 3583.9629 C 2575.773 3575.8594 2705.0427 3506.5867 2791.1602 3399.6777 C 2877.0537 3293.0467 2916.3047 3154.776 2903.8613 3019.793 C 2891.1361 2881.7529 2825.0515 2751.5312 2721.1543 2659.7578 C 2617.2571 2567.9844 2479.8734 2518.48 2341.3184 2522.8926 A 70.007 70.007 0 1 0 2345.7734 2662.8223 C 2447.5154 2659.5821 2552.1783 2697.2938 2628.4707 2764.6836 C 2704.7631 2832.0734 2755.1089 2931.2808 2764.4531 3032.6445 C 2773.5701 3131.5433 2743.5785 3235.5729 2682.1328 3311.8535 C 2620.9109 3387.8564 2525.2828 3438.5768 2429.1992 3444.2031 C 2362.2164 3448.1254 2293.2053 3430.8243 2237.5625 3395.293 C 2182.0753 3359.861 2137.9952 3304.6294 2117.2109 3243.2871 C 2100.7399 3194.675 2096.8357 3137.325 2096.7305 3075.6641 C 2096.625 3013.8609 2100.1681 2946.4748 2091.0215 2874.7773 C 2080.643 2793.4233 2053.0824 2709.2574 1995.791 2640.3145 C 1967.0865 2605.7722 1931.4424 2575.951 1889.5645 2554.916 C 1847.5415 2533.8081 1800.1775 2522.1109 1751.248 2523.6914 C 1679.3496 2526.0139 1614.0087 2556.4341 1563.3633 2600.8887 C 1523.3105 2636.0456 1493.388 2678.8656 1471.4648 2724.166 C 1463.1159 2710.9971 1454.2284 2698.0938 1444.3926 2685.7285 C 1396.2047 2625.1482 1332.2467 2578.3113 1259.9648 2550.6406 C 1207.5892 2530.5903 1152.3117 2521.012 1097.2656 2520.8809 z M 2437.9258 3763.1699 C 2472.4312 3795.6162 2497.5174 3839.5239 2507.7715 3886.0098 C 2516.4629 3925.4116 2513.1731 3965.5789 2497.334 3993.4844 C 2489.5024 4007.2822 2478.2839 4018.7491 2466.377 4025.5605 C 2454.7319 4032.2221 2440.7447 4035.0473 2429.5254 4033.6094 C 2419.4503 4032.3181 2408.0066 4027.2477 2398.707 4019.3906 C 2389.2366 4011.3892 2380.8681 3999.8194 2375.2246 3986.5176 C 2363.8243 3959.647 2362.912 3923.8894 2370.9102 3887.5703 C 2381.2693 3840.5305 2405.0296 3796.2232 2437.9258 3763.1719 L 2437.9258 3763.1699 z "
       transform="translate(0,-1048)"
       id="path4886-6-2-5-04" />
  </g>
</svg>
