<?xml version="1.0" encoding="UTF-8" standalone="no"?>
<!-- Created with Inkscape (http://www.inkscape.org/) -->

<svg
   xmlns:dc="http://purl.org/dc/elements/1.1/"
   xmlns:cc="http://creativecommons.org/ns#"
   xmlns:rdf="http://www.w3.org/1999/02/22-rdf-syntax-ns#"
   xmlns:svg="http://www.w3.org/2000/svg"
   xmlns="http://www.w3.org/2000/svg"
   xmlns:sodipodi="http://sodipodi.sourceforge.net/DTD/sodipodi-0.dtd"
   xmlns:inkscape="http://www.inkscape.org/namespaces/inkscape"
   width="2000"
   height="2048"
   id="svg2992"
   version="1.1"
   inkscape:version="0.91 r13725"
   sodipodi:docname="സ്ത്ര.svg">
  <defs
     id="defs5498">
    <inkscape:path-effect
       effect="spiro"
       id="path-effect3846"
       is_visible="true" />
    <inkscape:path-effect
       effect="spiro"
       id="path-effect3801"
       is_visible="true" />
    <inkscape:path-effect
       effect="spiro"
       id="path-effect4888"
       is_visible="true" />
    <inkscape:path-effect
       effect="spiro"
       id="path-effect4372-52"
       is_visible="true" />
    <inkscape:path-effect
       effect="spiro"
       id="path-effect4372-52-6"
       is_visible="true" />
    <inkscape:path-effect
       effect="spiro"
       id="path-effect4888-9"
       is_visible="true" />
    <inkscape:path-effect
       effect="spiro"
       id="path-effect4372-52-4-6-8"
       is_visible="true" />
    <inkscape:path-effect
       effect="spiro"
       id="path-effect4372-52-4-6-8-0"
       is_visible="true" />
    <inkscape:path-effect
       effect="spiro"
       id="path-effect4888-9-3"
       is_visible="true" />
    <inkscape:path-effect
       effect="spiro"
       id="path-effect4888-9-3-9"
       is_visible="true" />
    <inkscape:path-effect
       effect="spiro"
       id="path-effect4372-52-4-6-8-0-6"
       is_visible="true" />
    <inkscape:path-effect
       effect="spiro"
       id="path-effect4372-52-4-6-8-2"
       is_visible="true" />
    <inkscape:path-effect
       effect="spiro"
       id="path-effect4888-9-3-9-2"
       is_visible="true" />
    <inkscape:path-effect
       effect="spiro"
       id="path-effect4372-52-4-6-8-2-1"
       is_visible="true" />
    <inkscape:path-effect
       effect="spiro"
       id="path-effect4372-52-4-6-8-2-2"
       is_visible="true" />
    <inkscape:path-effect
       effect="spiro"
       id="path-effect4888-9-3-9-3"
       is_visible="true" />
    <inkscape:path-effect
       effect="spiro"
       id="path-effect4372-52-4-6-8-7"
       is_visible="true" />
    <inkscape:path-effect
       effect="spiro"
       id="path-effect4372-52-4-6-8-7-2"
       is_visible="true" />
    <inkscape:path-effect
       effect="spiro"
       id="path-effect4888-9-3-9-8"
       is_visible="true" />
    <inkscape:path-effect
       effect="spiro"
       id="path-effect4372-52-4-6-8-7-9-3"
       is_visible="true" />
    <inkscape:path-effect
       effect="spiro"
       id="path-effect4372-52-4-6-8-7-9-3-6"
       is_visible="true" />
    <inkscape:path-effect
       effect="spiro"
       id="path-effect4888-9-3-9-5"
       is_visible="true" />
    <inkscape:path-effect
       effect="spiro"
       id="path-effect4888-9-3-9-7"
       is_visible="true" />
    <inkscape:path-effect
       effect="spiro"
       id="path-effect4372-52-4-6-8-7-9-3-9"
       is_visible="true" />
    <inkscape:path-effect
       effect="spiro"
       id="path-effect4372-52-4-6-8-7-9-3-1"
       is_visible="true" />
    <inkscape:path-effect
       effect="spiro"
       id="path-effect4372-52-4-6-8-7-9-3-1-1"
       is_visible="true" />
    <inkscape:path-effect
       effect="spiro"
       id="path-effect4888-9-3-9-28"
       is_visible="true" />
    <inkscape:path-effect
       effect="spiro"
       id="path-effect4888-9-3-9-9"
       is_visible="true" />
    <inkscape:path-effect
       effect="spiro"
       id="path-effect4372-52-4-6-8-7-9-3-1-0"
       is_visible="true" />
    <inkscape:path-effect
       effect="spiro"
       id="path-effect4372-52-4-6-8-7-9-3-1-0-2"
       is_visible="true" />
    <inkscape:path-effect
       effect="spiro"
       id="path-effect4888-9-3-9-9-7"
       is_visible="true" />
  </defs>
  <sodipodi:namedview
     inkscape:window-height="704"
     inkscape:window-width="1366"
     inkscape:pageshadow="2"
     inkscape:pageopacity="0.0"
     borderopacity="1.0"
     bordercolor="#666666"
     pagecolor="#ffffff"
     id="base"
     showgrid="true"
     showguides="true"
     inkscape:guide-bbox="true"
     inkscape:zoom="0.125"
     inkscape:cx="42.223109"
     inkscape:cy="-550.47771"
     inkscape:window-x="-4"
     inkscape:window-y="0"
     inkscape:current-layer="layer1"
     inkscape:window-maximized="1">
    <sodipodi:guide
       orientation="horizontal"
       position="0,600"
       id="guide5596" />
    <inkscape:grid
       type="xygrid"
       id="grid3769"
       empspacing="3"
       visible="true"
       enabled="true"
       snapvisiblegridlinesonly="true"
       spacingx="4px"
       units="px"
       dotted="true"
       spacingy="4px" />
    <sodipodi:guide
       orientation="0,1"
       position="-1040,1600"
       id="guide2985" />
  </sodipodi:namedview>
  <metadata
     id="metadata5594">
    <rdf:RDF>
      <cc:Work
         rdf:about="">
        <dc:format>image/svg+xml</dc:format>
        <dc:type
           rdf:resource="http://purl.org/dc/dcmitype/StillImage" />
        <dc:title />
      </cc:Work>
    </rdf:RDF>
  </metadata>
  <g
     inkscape:label="Layer 1"
     inkscape:groupmode="layer"
     id="layer1"
     transform="translate(0,1048)">
    <path
       style="fill:none;fill-rule:evenodd;stroke:#000000;stroke-width:120;stroke-linecap:round;stroke-linejoin:round;stroke-miterlimit:4;stroke-dasharray:none;stroke-opacity:1"
       d="m 2044.683,936.51194 c -42.4689,-18.4387 -78.5477,-51.24252 -100.9325,-91.77045 -22.3848,-40.52793 -30.9397,-88.53406 -23.9328,-134.29971 7.7066,-50.33573 33.8853,-97.05929 70.3005,-132.65438 36.4152,-35.59508 82.6669,-60.35781 131.5542,-74.60931 86.3652,-25.17693 183.6583,-16.78094 260.4084,30.14708 38.3751,23.464 71.2206,56.15329 93.9127,94.9898 22.6921,38.83652 35.0775,83.79673 34.3691,128.77122 -0.6631,42.09794 -13.1049,84.50885 -38.4622,118.11962 -25.3573,33.61077 -64.1108,57.70539 -106.0029,61.91593 -45.1376,4.53673 -91.172,-14.42015 -123.0986,-46.64864 -31.9265,-32.22848 -50.188,-76.64819 -54.4849,-121.80921 -3.7319,-39.22305 2.6582,-79.27321 17.6799,-115.69745 15.0216,-36.42423 38.5897,-69.19809 67.8091,-95.62915 58.4388,-52.8621 138.7553,-79.05526 217.5245,-76.8386 79.7952,2.24553 159.1598,33.45922 216.3307,89.17106 57.1708,55.71183 90.699,135.97583 86.1596,215.67344 -4.7294,83.03382 -49.7078,160.74524 -112.4743,215.31031 -62.7665,54.5651 -142.026,87.5595 -223.2204,105.5719 -149.0426,33.064 -303.8183,23.4212 -456.4752,21.7508 l -319.5735,-3.4968 c -139.6175,-1.5277 -280.0568,-6.3967 -416.5332,-35.8853 C 1129.0648,1059.1054 997.80152,1006.7171 877.22421,936.31465 662.85952,811.15184 479.56496,628.24149 370.55774,405.2272 219.74143,96.677078 222.45757,-282.467 377.679,-588.82471"
       id="path4886-6-2-5"
       inkscape:path-effect="#path-effect4888-9-3-9"
       inkscape:original-d="m 2044.683,936.51194 c 0,0 -136.3472,-140.75209 -124.8653,-226.07016 12.8625,-95.57694 105.9988,-196.67833 201.8547,-207.26369 153.8226,-16.98663 364.3456,101.07724 388.6902,253.9081 12.1039,75.98569 -67.6981,174.82486 -144.4651,180.03555 -81.4038,5.52542 -177.5323,-86.86678 -177.5835,-168.45785 -0.087,-139.38607 163.642,-290.18535 303.0135,-288.1652 143.1362,2.07472 304.3822,161.70574 302.4903,304.8445 -2.0458,154.78252 -71.7895,286.52941 -335.6947,320.88221 -80.9049,10.5314 -307.0865,23.3854 -456.4752,21.7508 l -319.5735,-3.4968 C 1500.2643,1122.49 1116.4202,1073.0453 877.22421,936.31465 664.81039,814.89338 460.70862,632.68175 370.55774,405.2272 248.46479,97.181441 377.679,-588.82471 377.679,-588.82471"
       inkscape:connector-curvature="0"
       sodipodi:nodetypes="caaaaaaasssaac" />
    <path
       style="fill:none;fill-rule:evenodd;stroke:#000000;stroke-width:140;stroke-linecap:round;stroke-linejoin:round;stroke-miterlimit:4;stroke-dasharray:none;stroke-opacity:1"
       d="M 1150.8687,350.48363 C 1019.8852,373.41962 879.71864,337.46666 775.94665,254.31547 672.17466,171.16428 606.5326,42.205413 600.3651,-90.62797 c -5.18515,-111.67599 31.27365,-225.08812 101.87547,-311.77026 70.60182,-86.68215 174.93425,-145.52897 285.85993,-159.45394 64.1735,-8.05597 130.4355,-1.25707 190.838,21.86597 60.4024,23.12305 114.4093,62.67475 154.6718,113.29155 40.2626,50.6168 66.3613,111.68314 79.7065,174.9685 13.3452,63.28535 14.0728,128.46077 14.0249,193.13788 l -0.3077,415.859 0.1014,-415.3498 c 0.026,-106.02179 0.059,-214.95856 38.3864,-313.81003 19.1638,-49.42573 48.1795,-95.64296 88.0196,-130.61316 39.8402,-34.97021 90.984,-58.13134 143.9673,-59.84281 36.1242,-1.16689 72.3394,7.59117 104.637,23.81408 32.2977,16.22292 60.709,39.78567 83.8089,67.58346 46.1998,55.59559 70.4828,126.87743 79.6303,198.58246 8.1146,63.60814 5.0362,128.02587 5.1456,192.149419 0.1094,64.123548 3.6044,129.233442 24.182,189.965681 26.1997,77.32522 80.1663,144.60025 148.977,188.54002 68.8107,43.93978 151.8988,64.56573 233.4024,59.79318 117.2359,-6.8649 229.6852,-66.86188 303.3549,-158.31776 73.6696,-91.45589 108.2903,-212.605013 97.5101,-329.54594 -11.0347,-119.7019 -69.2488,-234.41716 -159.3436,-313.99879 -90.0948,-79.58163 -211.119,-123.18924 -331.2675,-119.36281"
       id="path4370-92-6-1-7-5-7-8"
       inkscape:path-effect="#path-effect4372-52-4-6-8-7-9-3-1"
       inkscape:original-d="m 1150.8687,350.48363 c -340.6381,16.87397 -526.237,-207.2232 -550.5036,-441.1116 -20.992,-202.3268 184.344,-468.26778 387.7354,-471.2242 222.639,-3.2362 442.0696,450.938 439.2412,503.2639 l -0.3077,415.859 0.1014,-415.3498 c 4.6461,-117.9564 81.1839,-480.1086 270.3733,-504.266 130.5762,-16.67314 215.4376,169.32628 268.0762,289.98 51.083,117.08819 -35.8804,272.26504 29.3276,382.1151 77.5785,130.68947 232.1856,271.57047 382.3794,248.3332 208.0019,-32.18099 417.6287,-278.0557 400.865,-487.8637 -17.3788,-217.50691 -334.3454,-322.4011 -490.6111,-433.3616"
       inkscape:connector-curvature="0"
       sodipodi:nodetypes="caacccaaaaac" />
    <path
       style="color:#000000;font-style:normal;font-variant:normal;font-weight:normal;font-stretch:normal;font-size:medium;line-height:normal;font-family:sans-serif;text-indent:0;text-align:start;text-decoration:none;text-decoration-line:none;text-decoration-style:solid;text-decoration-color:#000000;letter-spacing:normal;word-spacing:normal;text-transform:none;direction:ltr;block-progression:tb;writing-mode:lr-tb;baseline-shift:baseline;text-anchor:start;white-space:normal;clip-rule:nonzero;display:inline;overflow:visible;visibility:visible;opacity:1;isolation:auto;mix-blend-mode:normal;color-interpolation:sRGB;color-interpolation-filters:linearRGB;solid-color:#000000;solid-opacity:1;fill:#000000;fill-opacity:1;fill-rule:evenodd;stroke:none;stroke-width:120;stroke-linecap:round;stroke-linejoin:round;stroke-miterlimit:4;stroke-dasharray:none;stroke-dashoffset:0;stroke-opacity:1;color-rendering:auto;image-rendering:auto;shape-rendering:auto;text-rendering:auto;enable-background:accumulate"
       d="m 511.29688,1478.4766 a 60.006,60.006 0 0 0 -51.14063,33.58 c -164.11431,323.9095 -166.96072,721.2921 -7.50391,1047.5196 114.97627,235.2262 306.8339,426.0651 530.31836,556.5527 125.7589,73.4278 262.8461,128.2018 405.8984,159.1113 143.4492,30.9953 287.9768,35.6982 428.5489,37.2364 l 319.5742,3.4961 c 150.5744,1.6476 310.1,12.3284 470.125,-23.1719 88.2588,-19.5796 176.9888,-55.749 249.5918,-118.8653 73.343,-63.7596 127.175,-154.7053 133.0117,-257.1796 5.6233,-98.7272 -34.7848,-194.4252 -104.1875,-262.0567 -69.026,-67.2644 -162.2123,-103.5239 -256.5176,-106.1777 -52.4974,-1.4774 -105.5176,7.5118 -154.5781,27.1836 -75.6635,-24.6878 -158.0298,-24.1463 -233.5566,-2.1289 -57.0536,16.6321 -112.0743,45.6808 -156.7032,89.3047 -44.9049,43.8936 -77.7257,101.5426 -87.6679,166.4804 -9.0625,59.192 1.7669,119.9711 30.7187,172.3887 28.9518,52.4176 74.6306,93.9508 129.5586,117.7988 a 60.006,60.006 0 1 0 47.791,-110.0742 c -30.0098,-13.0293 -56.4888,-37.1038 -72.3066,-65.7422 -15.8178,-28.6382 -22.0958,-63.8715 -17.1445,-96.2109 5.4709,-35.7335 25.0061,-71.5316 52.9316,-98.8281 28.2015,-27.5664 65.6852,-48.0412 106.4062,-59.9122 19.4083,-5.6578 39.5232,-9.129 59.7325,-10.5527 -19.486,24.0338 -35.7039,50.8432 -47.6719,79.8633 -18.6454,45.2109 -26.6498,94.7698 -21.9414,144.2559 5.4638,57.4251 28.3147,114.6673 71.5898,158.3515 43.942,44.3575 106.0004,70.7269 171.7246,64.1211 60.8908,-6.12 113.1449,-39.4104 147.9004,-85.4785 34.2894,-45.45 49.7174,-100.0297 50.5567,-153.3106 0.8917,-56.6154 -14.4862,-111.9449 -42.5567,-159.9863 -12.2203,-20.9145 -26.8078,-40.11 -43.1074,-57.5957 1.6495,0.015 3.3012,-0.021 4.9492,0.025 65.2851,1.8372 130.8268,28.0067 176.1426,72.166 44.9389,43.7921 71.5864,108.623 68.1309,169.291 -3.6222,63.5933 -39.7456,128.0689 -91.9356,173.4395 -52.93,46.0139 -122.7196,75.8341 -196.8496,92.2793 -138.0602,30.6276 -288.0848,22.0233 -442.8242,20.3301 l -319.5742,-3.4981 c -138.663,-1.5172 -275.014,-6.5532 -404.5176,-34.5351 C 1284.3124,3129.8794 1158.8722,3079.877 1043.4766,3012.5 838.23161,2892.662 663.50106,2717.6813 560.46289,2506.8789 418.28712,2216.0062 420.87266,1855.0989 567.20117,1566.293 a 60.006,60.006 0 0 0 -55.90429,-87.8164 z M 2478.8496,2707.998 c 2.6642,1.4762 5.3413,2.9318 7.9316,4.5157 a 60.006,60.006 0 0 0 0,0 c 30.2152,18.4747 56.0405,44.3443 73.4083,74.0684 17.3136,29.6316 26.7047,64.2231 26.1796,97.5566 -0.4869,30.9152 -9.9419,61.1583 -26.3671,82.9297 -15.9591,21.1535 -41.2121,36.0506 -64.1055,38.3516 -24.5509,2.4675 -54.5614,-9.0763 -74.4727,-29.1758 -20.578,-20.7726 -34.2489,-52.3688 -37.3789,-85.2656 -2.7554,-28.9599 2.02,-59.5012 13.418,-87.1387 11.4247,-27.7027 29.7662,-53.3621 52.5898,-74.0078 8.8724,-8.0257 18.5394,-15.2994 28.7969,-21.836 z"
       id="path4886-6-2-5-2"
       inkscape:connector-curvature="0" />
    <path
       style="color:#000000;font-style:normal;font-variant:normal;font-weight:normal;font-stretch:normal;font-size:medium;line-height:normal;font-family:sans-serif;text-indent:0;text-align:start;text-decoration:none;text-decoration-line:none;text-decoration-style:solid;text-decoration-color:#000000;letter-spacing:normal;word-spacing:normal;text-transform:none;direction:ltr;block-progression:tb;writing-mode:lr-tb;baseline-shift:baseline;text-anchor:start;white-space:normal;clip-rule:nonzero;display:inline;overflow:visible;visibility:visible;opacity:1;isolation:auto;mix-blend-mode:normal;color-interpolation:sRGB;color-interpolation-filters:linearRGB;solid-color:#000000;solid-opacity:1;fill:#000000;fill-opacity:1;fill-rule:evenodd;stroke:none;stroke-width:140;stroke-linecap:round;stroke-linejoin:round;stroke-miterlimit:4;stroke-dasharray:none;stroke-dashoffset:0;stroke-opacity:1;color-rendering:auto;image-rendering:auto;shape-rendering:auto;text-rendering:auto;enable-background:accumulate"
       d="m 1171.9395,1484.8984 c -18.9344,0.1642 -37.8307,1.444 -56.5586,3.795 -129.72648,16.2851 -249.2859,83.865 -331.41606,184.7011 -82.0304,100.7138 -123.51747,230.1692 -117.52539,359.2246 7.13744,153.7235 81.64462,300.0943 201.73633,396.3223 120.09169,96.2279 279.18492,137.0372 430.76762,110.4941 a 70.007,70.007 0 1 0 -24.1485,-137.9023 c -110.3843,19.329 -231.6239,-11.7694 -319.07615,-81.8437 -87.45228,-70.0745 -144.23212,-181.6212 -149.42969,-293.5645 -4.37821,-94.2966 27.05333,-191.6658 86.22656,-264.3164 59.07351,-72.5281 148.17968,-122.6402 240.30468,-134.2051 53.4353,-6.708 108.3739,-0.8668 157.0918,17.7832 48.5229,18.5754 92.5789,50.8409 124.916,91.4942 32.3619,40.6842 54.575,91.6841 65.9942,145.8359 9.8194,46.5656 11.9311,97.6907 12.3339,151.6973 -0.01,9.2074 -0.019,18.4486 -0.021,27.4902 l -0.1016,415.2969 0,0.018 0,0.035 a 70.007,70.007 0 0 0 140,0.068 l 0,-0.035 0.3086,-415.8242 c 0.01,-7.6336 -0.095,-15.5457 -0.123,-23.3086 0.39,-97.1043 3.9192,-188.2694 33.5683,-264.7383 15.8714,-40.9343 39.4081,-77.3958 68.9317,-103.3105 29.0349,-25.4858 65.9825,-41.3859 100.0507,-42.4864 23.319,-0.7532 48.3848,5.0645 70.9571,16.4024 22.7174,11.4108 43.8953,28.7162 61.3906,49.7695 35.1082,42.2483 56.1147,100.6472 64.0312,162.7031 7.0827,55.5188 4.4687,116.9664 4.5821,183.4102 0.1136,66.5863 3.2005,139.4563 27.8847,212.3086 31.6151,93.3081 95.4674,172.6266 177.6016,225.0742 81.9786,52.3483 179.1436,76.2986 275.168,70.6758 138.3882,-8.1035 267.6579,-77.3762 353.7754,-184.2852 85.8935,-106.631 125.1445,-244.9017 112.7011,-379.8847 -12.7252,-138.0401 -78.8098,-268.2618 -182.707,-360.0352 -103.8972,-91.7734 -241.2809,-141.2778 -379.8359,-136.8652 a 70.007,70.007 0 1 0 4.455,139.9297 c 101.742,-3.2402 206.4049,34.4715 282.6973,101.8613 76.2924,67.3898 126.6382,166.5972 135.9824,267.9609 9.117,98.8988 -20.8746,202.9284 -82.3203,279.209 -61.2219,76.0029 -156.85,126.7233 -252.9336,132.3496 -66.9828,3.9223 -135.9939,-13.3788 -191.6367,-48.9101 -55.4872,-35.432 -99.5673,-90.6636 -120.3516,-152.0059 -16.471,-48.6121 -20.3752,-105.9621 -20.4804,-167.623 -0.1055,-61.8032 3.4376,-129.1893 -5.709,-200.8868 -10.3785,-81.354 -37.9391,-165.5199 -95.2305,-234.4628 -28.7045,-34.5423 -64.3486,-64.3635 -106.2265,-85.3985 -42.023,-21.1079 -89.387,-32.8051 -138.3165,-31.2246 -71.8984,2.3225 -137.2393,32.7427 -187.8847,77.1973 -40.0528,35.1569 -69.9753,77.9769 -91.8985,123.2773 -8.3489,-13.1689 -17.2364,-26.0722 -27.0722,-38.4375 -48.1879,-60.5803 -112.1459,-107.4172 -184.4278,-135.0879 -54.0652,-20.6971 -111.2223,-30.2348 -168.0253,-29.7422 z"
       id="path4370-92-6-1-7-5-7-8-2"
       inkscape:connector-curvature="0" />
    <path
       style="fill:none;fill-rule:evenodd;stroke:#000000;stroke-width:60;stroke-linecap:round;stroke-linejoin:round;stroke-miterlimit:4;stroke-dasharray:none;stroke-opacity:1"
       d="m -1132.2391,921.99945 c -43.4472,-18.87807 -80.3542,-52.44793 -103.2531,-93.91696 -22.8989,-41.46903 -31.651,-90.58586 -24.4852,-137.41206 7.8812,-51.50129 34.6571,-99.31018 71.9092,-135.73512 37.2521,-36.42494 84.5713,-61.76806 134.5899,-76.34993 88.3572,-25.75866 187.89624,-17.14951 266.40818,30.87525 39.25597,24.01238 72.85313,57.46111 96.06465,97.19587 23.21151,39.73476 35.88088,85.73134 35.16051,131.74337 -0.67437,43.07376 -13.39657,86.46965 -39.3362,120.86353 -25.93963,34.39388 -65.58966,59.05263 -108.45281,63.36004 -46.18188,4.64092 -93.27992,-14.76193 -125.93975,-47.74132 -32.65983,-32.97939 -51.33584,-78.42918 -55.72966,-124.63523 -3.81603,-40.1299 2.71952,-81.10538 18.0842,-118.37329 15.36467,-37.26792 39.47159,-70.80322 69.3615,-97.85066 59.77983,-54.09488 141.94965,-80.9102 222.53966,-78.64452 81.6421,2.29526 162.84138,34.2449 221.32543,91.25644 58.48405,57.01154 92.7723,139.13731 88.12468,220.67932 -4.84202,84.95279 -50.84815,164.46307 -115.05601,220.3001 -64.20785,55.83702 -145.29304,89.61032 -228.36248,108.04642 -152.46918,33.8384 -310.8083,23.9661 -466.978,22.2568 l -326.9263,-3.5782 c -142.8326,-1.5633 -286.5063,-6.5459 -426.1238,-36.7212 -139.6175,-30.1752 -273.8991,-83.78276 -397.2448,-155.82054 -219.3103,-128.08412 -406.8128,-315.25791 -518.324,-543.4416 -154.2971,-315.735943 -151.5186,-703.68191 7.2851,-1017.1754"
       id="path4886-6-2-5-0"
       inkscape:path-effect="#path-effect4888-9-3-9-9"
       inkscape:original-d="m -1132.2391,921.99945 c 0,0 -139.4843,-144.02626 -127.7383,-231.32902 13.1585,-97.8002 108.4377,-201.25341 206.4991,-212.08505 157.36182,-17.38174 372.72861,103.42855 397.63334,259.81449 12.38239,77.75327 -69.25572,178.89166 -147.78901,184.22357 -83.27677,5.65393 -181.61703,-88.88749 -181.66941,-172.37655 -0.089,-142.62839 167.40714,-296.93557 309.98536,-294.86847 146.42953,2.12306 311.38554,165.46738 309.45011,311.93576 -2.09287,158.38314 -73.44126,293.19462 -343.41849,328.34652 -82.7664,10.7764 -314.1521,23.9294 -466.978,22.2568 l -326.9263,-3.5782 c -185.9933,-2.0356 -578.669,-52.6305 -823.3686,-192.54174 -217.3011,-124.24579 -426.0989,-310.69598 -518.324,-543.4416 -124.9021,-315.21144 7.2851,-1017.1754 7.2851,-1017.1754"
       inkscape:connector-curvature="0"
       sodipodi:nodetypes="caaaaaaasssaac" />
    <path
       style="fill:none;fill-rule:evenodd;stroke:#000000;stroke-width:70;stroke-linecap:round;stroke-linejoin:round;stroke-miterlimit:4;stroke-dasharray:none;stroke-opacity:1"
       d="m -2062.8213,358.19725 c -135.3981,23.40003 -280.1373,-13.94794 -387.3083,-99.93963 -107.171,-85.99168 -174.9945,-219.199326 -181.4892,-356.45099 -5.4652,-115.49647 32.1032,-232.83852 105.0453,-322.55339 72.942,-89.71488 180.8429,-150.64567 295.575,-164.99284 66.3509,-8.29713 134.8548,-1.20129 197.2778,22.77049 62.423,23.97178 118.2123,64.92448 159.7918,117.29268 41.5794,52.36819 68.5191,115.51673 82.2935,180.95024 13.7745,65.43351 14.5241,132.81469 14.4747,199.682296 l -0.318,430.263334 0.1048,-429.736497 c 0.027,-109.655563 0.028,-222.316863 39.5834,-324.589693 19.7776,-51.13642 49.7389,-98.96855 90.9133,-135.1729 41.1744,-36.20436 94.0624,-60.1978 148.8615,-61.96992 37.3548,-1.208 74.8033,7.8623 108.1914,24.65745 33.3881,16.79514 62.7483,41.18517 86.6099,69.9509 47.7231,57.53145 72.7591,131.26363 82.1834,205.41583 8.3646,65.81477 5.1734,132.46132 5.2863,198.805412 0.1128,66.344087 3.7338,133.707115 25.0159,196.545198 27.0702,79.92843 82.7956,149.49793 153.8837,194.9714 71.08807,45.47348 156.95708,66.86607 241.20265,61.96347 121.2516,-7.05614 237.5419,-69.18678 313.65061,-163.83985 76.10871,-94.65307 111.77344,-219.986517 100.53565,-340.92225 -11.49462,-123.69961 -71.64591,-242.22392 -164.70042,-324.53175 -93.05451,-82.30783 -218.03679,-127.53638 -342.21432,-123.84042"
       id="path4370-92-6-1-7-5-7-8-3"
       inkscape:path-effect="#path-effect4372-52-4-6-8-7-9-3-1-0"
       inkscape:original-d="m -2062.8213,358.19725 c -351.9579,17.45837 -543.7245,-214.40091 -568.7975,-456.39062 -21.6896,-209.33489 190.47,-484.4874 400.6203,-487.54623 230.0376,-3.34829 456.7602,466.55737 453.8378,520.695706 l -0.318,430.263334 0.1048,-429.736497 c 4.8005,-122.042113 83.8818,-496.738363 279.3582,-521.732513 134.9154,-17.25066 222.5968,175.19132 276.9847,300.02418 52.7805,121.14383 -37.0728,281.6956177 30.3022,395.35061 80.1565,135.21623 239.90141,280.97694 395.08635,256.93487 214.91407,-33.29568 431.50704,-287.686884 414.18626,-504.7621 -17.95632,-225.04081 -345.45613,-333.56827 -506.91474,-448.37217"
       inkscape:connector-curvature="0"
       sodipodi:nodetypes="caacccaaaaac" />
    <path
       style="color:#000000;font-style:normal;font-variant:normal;font-weight:normal;font-stretch:normal;font-size:medium;line-height:normal;font-family:sans-serif;text-indent:0;text-align:start;text-decoration:none;text-decoration-line:none;text-decoration-style:solid;text-decoration-color:#000000;letter-spacing:normal;word-spacing:normal;text-transform:none;direction:ltr;block-progression:tb;writing-mode:lr-tb;baseline-shift:baseline;text-anchor:start;white-space:normal;clip-rule:nonzero;display:inline;overflow:visible;visibility:visible;opacity:1;isolation:auto;mix-blend-mode:normal;color-interpolation:sRGB;color-interpolation-filters:linearRGB;solid-color:#000000;solid-opacity:1;fill:#000000;fill-opacity:1;fill-rule:evenodd;stroke:none;stroke-width:60;stroke-linecap:round;stroke-linejoin:round;stroke-miterlimit:4;stroke-dasharray:none;stroke-dashoffset:0;stroke-opacity:1;color-rendering:auto;image-rendering:auto;shape-rendering:auto;text-rendering:auto;enable-background:accumulate"
       d="m -2646.791,1154.832 a 30.003,30.003 0 0 0 -25.5703,16.791 c -163.2486,322.2681 -166.0924,719.3312 -7.4766,1043.9043 114.4944,234.2883 306.2776,425.4282 530.1484,556.1758 125.9368,73.5511 263.1309,128.3523 406.0372,159.2383 143.1047,30.929 288.8228,35.828 432.1328,37.3965 l 326.9277,3.5781 c 155.12751,1.6979 315.84177,12.0889 473.80469,-22.9687 86.60377,-19.2205 172.42389,-54.5823 241.54883,-114.6953 69.49449,-60.4345 119.92641,-146.561 125.32226,-241.2305 5.18977,-91.0537 -32.53587,-180.8968 -97.13476,-243.8692 -64.4111,-62.7894 -152.52282,-97.2623 -241.42383,-99.7617 -53.30971,-1.4987 -107.18811,8.6367 -156.14844,30.1914 -73.86302,-26.8199 -156.18138,-27.6821 -231.25195,-5.7968 -54.10441,15.773 -105.8074,43.2608 -147.166,83.7011 -41.4965,40.575 -71.5936,93.8461 -80.5918,152.6465 -8.1927,53.5374 1.698,109.0387 27.8789,156.4512 26.1808,47.4126 67.8845,85.3459 117.55859,106.9297 a 30.003,30.003 0 1 0 23.91211,-55.0293 c -37.22025,-16.1725 -69.33032,-45.3787 -88.9473,-80.9043 -19.6169,-35.5255 -27.2305,-78.2561 -21.0918,-118.3711 6.7643,-44.2023 30.2207,-86.5494 63.22855,-118.8242 33.14561,-32.4097 76.07883,-55.6073 122.01172,-68.9981 46.09404,-13.4377 95.58363,-16.4824 142.64258,-8.6836 -5.29516,4.1997 -10.50876,8.5172 -15.54688,13.0762 -33.08711,29.9407 -59.8066,67.0324 -76.96875,108.6602 -17.17552,41.6602 -24.51668,87.3872 -20.21289,132.6464 4.97671,52.3359 25.94424,104.1981 64.27735,142.9063 38.66701,39.0453 93.77783,62.156 150.25585,56.4805 52.3655,-5.2624 98.76789,-34.5205 129.40625,-75.1446 30.40498,-40.3145 44.61898,-89.7955 45.38086,-138.459 0.81146,-51.8298 -13.35444,-103.0095 -39.2539,-147.3457 -22.80159,-39.0329 -54.34358,-72.2692 -91.16992,-97.7597 26.15344,-6.2757 53.23107,-9.1522 80.11132,-8.3965 74.3832,2.0912 148.66956,31.5162 201.22657,82.75 52.36921,51.0506 83.22073,125.4599 79.11523,197.4902 -4.28821,75.2361 -45.86981,148.1296 -104.79102,199.3692 -59.29075,51.5609 -135.64262,83.7447 -215.17773,101.3964 -146.97544,32.6192 -302.93658,23.2676 -460.14844,21.5469 l -326.92775,-3.5781 c -142.3552,-1.5581 -283.983,-6.6253 -420.1133,-36.0469 -136.3287,-29.4644 -267.6984,-81.8778 -388.4531,-152.4023 -214.7497,-125.4206 -397.972,-308.6298 -506.5,-530.709 -149.9784,-306.8986 -147.2651,-685.7283 7.0938,-990.4473 a 30.003,30.003 0 0 0 -27.9551,-43.9043 z m 2010.49803,1190.5664 c 8.77153,4.0909 17.32553,8.6123 25.56836,13.6543 35.17669,21.5172 65.26393,51.5569 85.81445,86.7364 20.52358,35.1334 31.69765,75.9465 31.06836,116.1406 -0.58685,37.4841 -11.81673,74.7964 -33.29101,103.2695 -21.24088,28.1638 -54.1392,48.2217 -87.5,51.5742 -35.88578,3.6063 -74.97231,-12.0865 -101.625,-39 -26.98659,-27.2506 -43.36876,-66.2908 -47.17969,-106.3672 -3.32827,-35.0005 2.3993,-71.222 15.95312,-104.0976 13.56722,-32.9081 35.06314,-62.8867 61.75586,-87.041 14.93654,-13.5161 31.61436,-25.1161 49.43555,-34.8692 z"
       id="path4886-6-2-5-0-7"
       inkscape:connector-curvature="0" />
    <path
       style="color:#000000;font-style:normal;font-variant:normal;font-weight:normal;font-stretch:normal;font-size:medium;line-height:normal;font-family:sans-serif;text-indent:0;text-align:start;text-decoration:none;text-decoration-line:none;text-decoration-style:solid;text-decoration-color:#000000;letter-spacing:normal;word-spacing:normal;text-transform:none;direction:ltr;block-progression:tb;writing-mode:lr-tb;baseline-shift:baseline;text-anchor:start;white-space:normal;clip-rule:nonzero;display:inline;overflow:visible;visibility:visible;opacity:1;isolation:auto;mix-blend-mode:normal;color-interpolation:sRGB;color-interpolation-filters:linearRGB;solid-color:#000000;solid-opacity:1;fill:#000000;fill-opacity:1;fill-rule:evenodd;stroke:none;stroke-width:70;stroke-linecap:round;stroke-linejoin:round;stroke-miterlimit:4;stroke-dasharray:none;stroke-dashoffset:0;stroke-opacity:1;color-rendering:auto;image-rendering:auto;shape-rendering:auto;text-rendering:auto;enable-background:accumulate"
       d="m -1989.2148,1199.9395 c -18.1075,0.141 -36.194,1.3492 -54.127,3.5917 -124.1577,15.5259 -239.6818,80.8375 -318.3887,177.6426 -78.6549,96.7414 -118.7256,222.1083 -112.8496,346.2871 6.988,147.6754 79.2368,289.5734 194.5469,382.0957 115.3102,92.5224 269.4909,132.3061 415.1719,107.1289 a 35.0035,35.0035 0 1 0 -11.9199,-68.9765 c -125.1153,21.6229 -260.4135,-13.289 -359.4454,-92.75 -99.0318,-79.461 -162.4301,-203.9786 -168.4316,-330.8067 -5.0544,-106.8141 30.0129,-216.1319 97.2422,-298.8203 67.1773,-82.6244 167.4532,-139.1732 272.7598,-152.3418 60.9697,-7.6242 123.8078,-1.0134 180.3886,20.7149 56.4844,21.6912 107.3032,58.9957 144.9278,106.3828 37.6371,47.403 62.6405,105.5228 75.455,166.3965 11.0869,52.6665 13.1866,108.3875 13.5508,165.5019 -0.017,9.1864 -0.037,18.3978 -0.039,27.4883 l -0.1055,429.7109 0,0.01 0,0.017 a 35.0035,35.0035 0 0 0 70,0.035 l 0,-0.018 0.3183,-430.2461 c 0.01,-8.3156 -0.1044,-16.7842 -0.1425,-25.1777 0.3284,-100.7845 3.5717,-199.4506 37.1562,-286.2852 18.1365,-46.8934 45.3636,-89.8459 81.3809,-121.5156 35.7715,-31.4537 81.555,-51.8057 126.8808,-53.2715 30.9428,-1.0006 62.8105,6.5962 91.3321,20.9434 28.5945,14.3838 54.3392,35.6395 75.4004,61.0293 42.1817,50.8511 65.5877,118.1424 74.4003,187.4824 7.8517,61.7786 4.893,126.9448 5.0079,194.4512 0.1149,67.5773 3.5321,138.8209 26.8652,207.7148 29.7723,87.9065 90.42953,163.4954 168.17382,213.2266 77.66826,49.6827 170.578,72.7476 262.0957,67.4219 131.85163,-7.6731 256.56276,-74.4572 338.89454,-176.8497 82.21745,-102.2501 120.18452,-236.1448 108.10937,-366.0918 -12.34487,-132.8496 -76.42558,-259.1136 -176.36328,-347.5097 -99.9377,-88.3962 -233.08049,-136.5787 -366.44336,-132.6094 a 35.0035,35.0035 0 1 0 2.08203,69.9688 c 114.9922,-3.4226 231.8131,38.8526 317.98438,115.0722 86.17129,76.2195 142.39469,187.0051 153.03906,301.5547 10.40043,111.9245 -22.961,228.6942 -92.96094,315.75 -69.8856,86.9137 -177.75665,144.3927 -288.4082,150.832 -76.97346,4.4794 -155.80067,-15.2415 -220.3086,-56.5058 -64.43189,-41.2156 -115.22554,-104.7646 -139.59374,-176.7149 -19.23112,-56.7823 -23.05532,-120.268 -23.16602,-185.3789 -0.11092,-65.1818 3.31116,-133.3072 -5.56641,-203.1582 -10.03595,-78.9644 -36.70035,-159.1359 -89.96485,-223.3476 -26.662,-32.1418 -59.6386,-59.6667 -97.8203,-78.8731 -38.2546,-19.2432 -81.2839,-29.7864 -125.0508,-28.3711 -64.2724,2.0785 -124.2647,29.7111 -170.8418,70.666 -46.3315,40.7391 -79.0266,93.4525 -100.4453,148.8321 -5.3288,13.778 -9.9806,27.6644 -14.041,41.6289 -15.6113,-38.1762 -36.02,-74.5607 -62.043,-107.336 -45.5344,-57.3493 -106.2946,-101.9507 -174.6562,-128.2031 -51.1989,-19.6615 -105.7186,-28.8411 -160.041,-28.4179 z"
       id="path4370-92-6-1-7-5-7-8-3-6"
       inkscape:connector-curvature="0" />
  </g>
</svg>
