<?xml version="1.0" encoding="UTF-8" standalone="no"?>
<!-- Created with Inkscape (http://www.inkscape.org/) -->

<svg
   xmlns:dc="http://purl.org/dc/elements/1.1/"
   xmlns:cc="http://creativecommons.org/ns#"
   xmlns:rdf="http://www.w3.org/1999/02/22-rdf-syntax-ns#"
   xmlns:svg="http://www.w3.org/2000/svg"
   xmlns="http://www.w3.org/2000/svg"
   xmlns:sodipodi="http://sodipodi.sourceforge.net/DTD/sodipodi-0.dtd"
   xmlns:inkscape="http://www.inkscape.org/namespaces/inkscape"
   width="2000"
   height="2048"
   id="svg2992"
   version="1.1"
   inkscape:version="0.91pre3 r13670"
   sodipodi:docname="ഹ.svg">
  <defs
     id="defs5498">
    <inkscape:path-effect
       effect="spiro"
       id="path-effect4148"
       is_visible="true" />
    <inkscape:path-effect
       effect="spiro"
       id="path-effect4141-5"
       is_visible="true" />
    <inkscape:path-effect
       effect="spiro"
       id="path-effect4141-5-7"
       is_visible="true" />
    <inkscape:path-effect
       effect="spiro"
       id="path-effect4141-5-7-6"
       is_visible="true" />
  </defs>
  <sodipodi:namedview
     inkscape:window-height="853"
     inkscape:window-width="1600"
     inkscape:pageshadow="2"
     inkscape:pageopacity="0.0"
     borderopacity="1.0"
     bordercolor="#666666"
     pagecolor="#ffffff"
     id="base"
     showgrid="true"
     showguides="true"
     inkscape:guide-bbox="true"
     inkscape:zoom="0.32102648"
     inkscape:cx="870.54502"
     inkscape:cy="1158.3157"
     inkscape:window-x="1598"
     inkscape:window-y="-3"
     inkscape:current-layer="layer1"
     inkscape:window-maximized="1">
    <sodipodi:guide
       orientation="horizontal"
       position="0,600"
       id="guide5596" />
    <inkscape:grid
       type="xygrid"
       id="grid3769"
       empspacing="3"
       visible="true"
       enabled="true"
       snapvisiblegridlinesonly="true"
       spacingx="4px"
       units="px"
       dotted="true"
       spacingy="4px" />
    <sodipodi:guide
       orientation="0,1"
       position="-1040,1600"
       id="guide2985" />
  </sodipodi:namedview>
  <metadata
     id="metadata5594">
    <rdf:RDF>
      <cc:Work
         rdf:about="">
        <dc:format>image/svg+xml</dc:format>
        <dc:type
           rdf:resource="http://purl.org/dc/dcmitype/StillImage" />
        <dc:title />
      </cc:Work>
    </rdf:RDF>
  </metadata>
  <g
     inkscape:label="Layer 1"
     inkscape:groupmode="layer"
     id="layer1"
     transform="translate(0,1048)">
    <path
       style="color:#000000;font-style:normal;font-variant:normal;font-weight:normal;font-stretch:normal;font-size:medium;line-height:normal;font-family:sans-serif;text-indent:0;text-align:start;text-decoration:none;text-decoration-line:none;text-decoration-style:solid;text-decoration-color:#000000;letter-spacing:normal;word-spacing:normal;text-transform:none;direction:ltr;block-progression:tb;writing-mode:lr-tb;baseline-shift:baseline;text-anchor:start;white-space:normal;clip-rule:nonzero;display:inline;overflow:visible;visibility:visible;opacity:1;isolation:auto;mix-blend-mode:normal;color-interpolation:sRGB;color-interpolation-filters:linearRGB;solid-color:#000000;solid-opacity:1;fill:#000000;fill-opacity:1;fill-rule:evenodd;stroke:none;stroke-width:140;stroke-linecap:round;stroke-linejoin:round;stroke-miterlimit:4;stroke-dasharray:none;stroke-dashoffset:0;stroke-opacity:1;color-rendering:auto;image-rendering:auto;shape-rendering:auto;text-rendering:auto;enable-background:accumulate"
       d="m 1645.1211,-607.04297 c -118.3702,1.59243 -234.2841,44.98701 -324.5117,122.05664 -96.2429,82.20758 -159.2119,199.27153 -174.7559,324.88672 -15.5441,125.615179 16.9915,254.497958 90.293,357.68555 16.2286,22.8452 34.3967,44.11936 54.0488,63.84179 l -511.90624,-1.42578 c 2.29248,-3.54581 4.54171,-7.12337 6.71094,-10.75586 38.08,-63.7669 55.47085,-138.23832 49.57031,-212.275387 -5.90054,-74.037073 -34.86718,-144.811633 -82.5664,-201.742183 -47.69923,-56.93055 -112.30974,-97.84241 -184.16993,-116.61524 -88.94247,-23.23542 -184.29997,-11.18164 -264.66406,33.45313 -80.3641,44.63476 -140.99124,119.21759 -168.27148,207.003902 -27.28025,87.786318 -19.60471,183.594028 21.30664,265.916018 40.91134,82.322 112.64353,146.29847 199.08984,177.5664 A 70.007,70.007 0 1 0 402.91406,270.90039 C 351.45879,252.28884 305.9297,211.682 281.57812,162.68164 257.22655,113.68129 252.35383,52.868107 268.5918,0.61523438 284.82976,-51.637638 323.31152,-98.977063 371.14648,-125.54492 c 47.83496,-26.56786 108.35974,-34.2171 161.30079,-20.38672 43.10853,11.26171 83.62962,36.91797 112.24414,71.070312 28.61451,34.152342 46.78061,78.5406348 50.32031,122.955078 3.5397,44.414452 -7.36696,91.11963 -30.21094,129.37305 -22.84399,38.25343 -58.78966,70.00373 -99.57031,87.95117 a 70.007,70.007 0 0 0 28.00195,134.07031 l 965.48828,2.6875 A 70.007,70.007 0 0 0 1573.6719,263.75 c -88.4751,-19.07748 -170.9771,-73.456 -223.3926,-147.24219 -52.4156,-73.786192 -76.5995,-169.590668 -65.4844,-259.41406 11.115,-89.82337 57.9219,-176.84291 126.7422,-235.62695 68.8202,-58.78402 162.0883,-91.41182 252.5449,-88.34766 96.8188,3.27967 194.077,47.84463 260.4219,118.88477 66.4005,71.09951 104.4066,171.12094 102.5527,268.716793 -1.419,74.70486 -25.478,149.886557 -67.6953,211.535157 -42.2172,61.6486 -103.6163,111.26017 -172.7558,139.58984 a 70.007,70.007 0 1 0 53.082,129.54688 c 94.9321,-38.89811 177.2192,-105.38657 235.1855,-190.0332 57.9664,-84.64663 90.2099,-185.404765 92.1582,-287.978521 2.5621,-134.876939 -47.908,-268.100729 -140.2089,-366.933589 -92.3563,-98.89226 -222.4374,-158.65596 -358,-163.24805 -7.9063,-0.26782 -15.8099,-0.34835 -23.7012,-0.24219 z"
       id="path4139-0-3"
       inkscape:connector-curvature="0" />
    <path
       style="fill:none;fill-rule:evenodd;stroke:#000000;stroke-width:140;stroke-linecap:round;stroke-linejoin:round;stroke-miterlimit:4;stroke-dasharray:none;stroke-opacity:1"
       d="m 355.17017,1355.3347 c -68.95079,-24.9397 -127.58086,-77.2317 -160.21232,-142.8929 -32.63146,-65.6612 -38.90664,-143.9719 -17.14753,-213.99145 21.7591,-70.01958 71.314,-130.98065 135.41352,-166.58196 64.09952,-35.6013 142.0411,-45.45265 212.98286,-26.91975 57.48435,15.01727 110.05022,48.30126 148.20709,93.8427 38.15686,45.54145 61.72271,103.12306 66.44283,162.34886 4.72012,59.2257 -9.428,119.8131 -39.88999,170.8232 -30.46198,51.0102 -77.09251,92.1998 -131.47268,116.1324 l 965.48845,2.6887 c -106.1023,-22.8784 -202.8455,-86.6436 -265.704,-175.1305 -62.8585,-88.4869 -91.2177,-200.83019 -77.8881,-308.54947 13.3295,-107.71927 68.2175,-209.76127 150.7491,-280.25708 82.5315,-70.49581 191.8998,-108.75613 300.3784,-105.08149 116.1907,3.93588 229.8604,56.10165 309.211,141.06785 79.3507,84.96619 123.5899,201.58796 121.382,317.82436 -1.6837,88.63933 -29.8362,176.60963 -79.928,249.75723 -50.0918,73.1476 -121.9351,131.1983 -203.9709,164.8122"
       id="path4139-0-3-5"
       inkscape:path-effect="#path-effect4141-5-7-6"
       inkscape:original-d="m 355.17017,1355.3347 c 0,0 -19.90001,-571.64502 171.03653,-550.38606 180.50773,20.09781 43.28725,543.14716 43.28725,543.14716 l 965.48845,2.6887 c 0,0 -169.9636,-778.52258 107.5354,-869.01854 199.4234,-65.0345 414.5475,249.74705 430.593,458.89221 12.8119,166.99603 -283.8989,414.56943 -283.8989,414.56943"
       inkscape:connector-curvature="0"
       sodipodi:nodetypes="caccaac" />
  </g>
</svg>
