<?xml version="1.0" encoding="UTF-8" standalone="no"?>
<!-- Created with Inkscape (http://www.inkscape.org/) -->

<svg
   xmlns:dc="http://purl.org/dc/elements/1.1/"
   xmlns:cc="http://creativecommons.org/ns#"
   xmlns:rdf="http://www.w3.org/1999/02/22-rdf-syntax-ns#"
   xmlns:svg="http://www.w3.org/2000/svg"
   xmlns="http://www.w3.org/2000/svg"
   xmlns:sodipodi="http://sodipodi.sourceforge.net/DTD/sodipodi-0.dtd"
   xmlns:inkscape="http://www.inkscape.org/namespaces/inkscape"
   width="2000"
   height="2048"
   id="svg2992"
   version="1.1"
   inkscape:version="0.91 r13725"
   sodipodi:docname="ഹ്മ.svg">
  <defs
     id="defs5498">
    <inkscape:path-effect
       effect="spiro"
       id="path-effect4171"
       is_visible="true" />
    <inkscape:path-effect
       effect="spiro"
       id="path-effect4167"
       is_visible="true" />
    <inkscape:path-effect
       is_visible="true"
       id="path-effect4148"
       effect="spiro" />
    <inkscape:path-effect
       is_visible="true"
       id="path-effect4141-5"
       effect="spiro" />
    <inkscape:path-effect
       is_visible="true"
       id="path-effect4141-5-7"
       effect="spiro" />
    <inkscape:path-effect
       effect="spiro"
       id="path-effect4842-3"
       is_visible="true" />
    <inkscape:path-effect
       is_visible="true"
       id="path-effect4141-5-7-8"
       effect="spiro" />
    <inkscape:path-effect
       effect="spiro"
       id="path-effect4171-1"
       is_visible="true" />
    <inkscape:path-effect
       effect="spiro"
       id="path-effect4166"
       is_visible="true" />
    <inkscape:path-effect
       effect="spiro"
       id="path-effect4170"
       is_visible="true" />
    <inkscape:path-effect
       effect="spiro"
       id="path-effect4166-4"
       is_visible="true" />
    <inkscape:path-effect
       is_visible="true"
       id="path-effect4141-5-7-8-6"
       effect="spiro" />
  </defs>
  <sodipodi:namedview
     inkscape:window-height="851"
     inkscape:window-width="1600"
     inkscape:pageshadow="2"
     inkscape:pageopacity="0.0"
     borderopacity="1.0"
     bordercolor="#666666"
     pagecolor="#ffffff"
     id="base"
     showgrid="true"
     showguides="true"
     inkscape:guide-bbox="true"
     inkscape:zoom="0.32102648"
     inkscape:cx="972.13121"
     inkscape:cy="414.31226"
     inkscape:window-x="1599"
     inkscape:window-y="-1"
     inkscape:current-layer="layer1-7"
     inkscape:window-maximized="1">
    <sodipodi:guide
       orientation="horizontal"
       position="0,600"
       id="guide5596" />
    <inkscape:grid
       type="xygrid"
       id="grid3769"
       empspacing="3"
       visible="true"
       enabled="true"
       snapvisiblegridlinesonly="true"
       spacingx="4px"
       units="px"
       dotted="true"
       spacingy="4px" />
    <sodipodi:guide
       orientation="0,1"
       position="-1040,1600"
       id="guide2985" />
  </sodipodi:namedview>
  <metadata
     id="metadata5594">
    <rdf:RDF>
      <cc:Work
         rdf:about="">
        <dc:format>image/svg+xml</dc:format>
        <dc:type
           rdf:resource="http://purl.org/dc/dcmitype/StillImage" />
        <dc:title />
      </cc:Work>
    </rdf:RDF>
  </metadata>
  <g
     inkscape:label="Layer 1"
     inkscape:groupmode="layer"
     id="layer1"
     transform="translate(0,1048)">
    <g
       id="layer1-7"
       inkscape:label="Layer 1"
       transform="translate(496.50537,-996.8633)">
      <path
         sodipodi:nodetypes="caccaac"
         inkscape:connector-curvature="0"
         inkscape:original-d="M -195.96758,1335.4831 C -396.95716,748.02784 -319.82805,738.73604 -115.26628,725.91193 92.3645,712.89542 43.276262,1329.5542 43.276262,1329.5542 l 556.720868,-4.1548 c 229.12544,-108.0358 483.97157,-195.3646 585.97927,-403.12145 58.4746,-119.0939 67.4789,-295.12783 -16.7049,-397.67403 -53.3631,-65.0028 -245.18943,-59.489 -245.18943,-59.489"
         inkscape:path-effect="#path-effect4141-5-7-8"
         id="path4139-0-3-7"
         d="m -195.96758,1335.4831 c -65.87666,-25.0741 -122.84623,-72.9007 -158.94954,-133.4399 -36.10332,-60.5392 -51.1039,-133.3945 -41.8528,-203.272 9.2511,-69.87748 42.69329,-136.31943 93.30631,-185.37825 50.61303,-49.05881 118.06538,-80.41313 188.19733,-87.48102 74.09575,-7.46736 150.634963,12.33399 211.813081,54.79785 61.178119,42.46386 106.497089,107.24453 125.414809,179.27273 18.91771,72.02819 11.28017,150.71759 -21.13599,217.76329 -32.41616,67.0458 -89.34703,121.9021 -157.549358,151.8084 l 556.720868,-4.1548 c 123.37698,-11.2036 243.68505,-54.653 345.74997,-124.868 102.0649,-70.2151 185.6557,-167.0369 240.2293,-278.25345 31.1189,-63.4179 53.0951,-132.53935 53.6302,-203.17879 0.5351,-70.63945 -21.9618,-143.01478 -70.3351,-194.49524 -30.466,-32.4229 -70.5069,-55.73666 -113.7432,-66.22686 -43.2363,-10.49019 -89.50917,-8.11827 -131.44623,6.73786"
         style="fill:none;fill-rule:evenodd;stroke:#000000;stroke-width:140;stroke-linecap:round;stroke-linejoin:round;stroke-miterlimit:4;stroke-dasharray:none;stroke-opacity:1" />
      <path
         style="fill:none;fill-rule:evenodd;stroke:#000000;stroke-width:140;stroke-linecap:butt;stroke-linejoin:round;stroke-miterlimit:4;stroke-dasharray:none;stroke-opacity:1"
         d="m 523.24507,943.44095 0,384.00005 1055.99993,0 0,-384.00005"
         id="path4162"
         inkscape:connector-curvature="0" />
      <path
         style="fill:none;fill-rule:evenodd;stroke:#000000;stroke-width:140;stroke-linecap:round;stroke-linejoin:round;stroke-miterlimit:4;stroke-dasharray:none;stroke-opacity:1"
         d="M 523.24507,939.44095 C 534.30391,793.19276 609.29303,652.90919 724.75599,562.47062 840.21896,472.03205 994.381,432.8286 1139.0206,457.12302 c 121.3937,20.38992 234.9363,84.66023 314.8976,178.24638 79.9613,93.58615 125.7254,215.76739 126.9215,338.85575"
         id="path4164"
         inkscape:path-effect="#path-effect4166"
         inkscape:original-d="m 523.24507,939.44095 c 11.1629,-137.0661 356.3412,-508.25513 615.77553,-482.31793 225.5908,22.5537 424.7248,246.07483 441.8191,517.10213"
         inkscape:connector-curvature="0"
         sodipodi:nodetypes="cac" />
      <path
         style="color:#000000;font-style:normal;font-variant:normal;font-weight:normal;font-stretch:normal;font-size:medium;line-height:normal;font-family:sans-serif;text-indent:0;text-align:start;text-decoration:none;text-decoration-line:none;text-decoration-style:solid;text-decoration-color:#000000;letter-spacing:normal;word-spacing:normal;text-transform:none;direction:ltr;block-progression:tb;writing-mode:lr-tb;baseline-shift:baseline;text-anchor:start;white-space:normal;clip-rule:nonzero;display:inline;overflow:visible;visibility:visible;opacity:1;isolation:auto;mix-blend-mode:normal;color-interpolation:sRGB;color-interpolation-filters:linearRGB;solid-color:#000000;solid-opacity:1;fill:#000000;fill-opacity:1;fill-rule:evenodd;stroke:none;stroke-width:140;stroke-linecap:round;stroke-linejoin:round;stroke-miterlimit:4;stroke-dasharray:none;stroke-dashoffset:0;stroke-opacity:1;color-rendering:auto;image-rendering:auto;shape-rendering:auto;text-rendering:auto;enable-background:accumulate"
         d="M 1589.9453 1632.5312 C 1574.4364 1632.5768 1558.9434 1633.2348 1543.5078 1634.4766 C 1508.281 1634.0667 1473.0645 1639.8208 1439.5605 1651.6895 A 70.007 70.007 0 0 0 1437.0137 1652.6934 C 1358.8155 1673.3536 1284.7179 1709.5753 1220.4453 1759.918 C 1088.9013 1862.9524 1004.8959 2020.1 992.29688 2186.7168 A 70.007 70.007 0 0 0 992.1582 2195.9961 L 992.09766 2195.9961 L 992.09766 2509.0488 L 773.63281 2510.6777 C 784.49641 2494.8351 794.27565 2478.1938 802.69922 2460.7715 C 842.58273 2378.2811 851.79512 2283.3765 828.51953 2194.7559 C 805.24394 2106.1354 750.58553 2028.0057 675.31445 1975.7598 C 600.04341 1923.5141 507.73282 1899.6327 416.56836 1908.8203 C 330.34206 1917.5102 248.89799 1955.3684 186.66992 2015.6855 C 124.44184 2076.0027 84.063563 2156.2271 72.689453 2242.1406 C 61.315353 2328.0541 79.427836 2416.0209 123.81641 2490.4531 C 168.20496 2564.8853 236.98986 2622.6326 317.98438 2653.4609 A 70.007 70.007 0 1 0 367.78711 2522.6172 C 317.02831 2503.2973 271.87471 2465.3923 244.05664 2418.7461 C 216.23857 2372.0998 204.35042 2314.3552 211.47852 2260.5137 C 218.60661 2206.6721 245.1114 2154.0133 284.10938 2116.2129 C 323.10735 2078.4124 376.56786 2053.5611 430.60547 2048.1152 C 487.63251 2042.368 548.40112 2058.0896 595.48633 2090.7715 C 642.57151 2123.4534 678.55148 2174.8845 693.11133 2230.3203 C 707.67118 2285.7561 701.60701 2348.2308 676.6582 2399.832 C 651.70942 2451.4332 606.51087 2494.9849 554.01953 2518.002 A 70.007 70.007 0 0 0 582.65234 2652.1074 L 1048.6582 2648.6309 A 70.007 70.007 0 0 0 1062.0977 2649.9961 L 2118.0977 2649.9961 A 70.007 70.007 0 0 0 2188.0977 2579.9961 L 2188.0977 2242.3613 A 70.007 70.007 0 0 0 2189.6895 2226.0996 C 2188.3292 2086.1132 2136.9308 1948.8853 2045.9922 1842.4512 C 1955.0535 1736.0171 1827.5278 1663.8336 1689.4688 1640.6445 C 1658.5718 1635.4548 1627.3975 1632.7827 1596.2676 1632.5449 L 1596.2676 1632.5469 C 1594.1598 1632.5308 1592.0526 1632.5251 1589.9453 1632.5312 z M 1549.541 1774.8047 C 1559.1468 1775.3438 1568.6634 1776.7236 1577.877 1778.959 C 1607.6423 1786.1808 1636.1375 1802.7728 1657.1113 1825.0938 C 1690.4814 1860.6073 1708.8827 1915.7085 1708.4629 1971.125 C 1708.0352 2027.5933 1689.9875 2086.9379 1661.9883 2143.998 C 1612.7898 2244.2607 1536.9381 2332.1166 1444.9258 2395.416 C 1353.5816 2458.2558 1245.3267 2497.5331 1134.9395 2507.9824 L 1132.0977 2508.0039 L 1132.0977 2195.9961 L 1132.0039 2195.9961 C 1141.8708 2070.5595 1207.7278 1947.7123 1306.7734 1870.1328 C 1375.5667 1816.2493 1461.727 1783.1468 1549.541 1774.8047 z M 1825.6309 1837.7871 C 1868.5379 1863.3781 1907.3736 1895.7323 1939.5527 1933.3945 C 2001.7239 2006.1593 2040.4524 2100.3649 2048.252 2195.9961 L 2048.0977 2195.9961 L 2048.0977 2509.9961 L 1525.373 2509.9961 C 1636.9878 2432.9311 1727.9195 2327.4405 1787.6719 2205.6699 C 1821.9106 2135.8942 1847.8145 2056.996 1848.457 1972.1855 C 1848.798 1927.177 1841.6357 1881.1334 1825.6309 1837.7871 z "
         transform="translate(-496.50537,-51.1367)"
         id="path4139-0-3-7-1" />
    </g>
  </g>
</svg>
