<?xml version="1.0" encoding="UTF-8" standalone="no"?>
<!-- Created with Inkscape (http://www.inkscape.org/) -->

<svg
   xmlns:dc="http://purl.org/dc/elements/1.1/"
   xmlns:cc="http://creativecommons.org/ns#"
   xmlns:rdf="http://www.w3.org/1999/02/22-rdf-syntax-ns#"
   xmlns:svg="http://www.w3.org/2000/svg"
   xmlns="http://www.w3.org/2000/svg"
   xmlns:sodipodi="http://sodipodi.sourceforge.net/DTD/sodipodi-0.dtd"
   xmlns:inkscape="http://www.inkscape.org/namespaces/inkscape"
   width="2000"
   height="2048"
   id="svg2992"
   version="1.1"
   inkscape:version="0.91pre3 r13670"
   sodipodi:docname="ഹൂ.svg">
  <defs
     id="defs5498">
    <inkscape:path-effect
       is_visible="true"
       id="path-effect4222"
       effect="spiro" />
    <inkscape:path-effect
       is_visible="true"
       id="path-effect4199"
       effect="spiro" />
    <inkscape:path-effect
       is_visible="true"
       id="path-effect4195"
       effect="spiro" />
    <inkscape:path-effect
       is_visible="true"
       id="path-effect4191"
       effect="spiro" />
    <inkscape:path-effect
       is_visible="true"
       id="path-effect3782"
       effect="spiro" />
    <inkscape:path-effect
       is_visible="true"
       id="path-effect3846"
       effect="spiro" />
    <inkscape:path-effect
       is_visible="true"
       id="path-effect3801"
       effect="spiro" />
    <inkscape:path-effect
       is_visible="true"
       id="path-effect3846-8"
       effect="spiro" />
    <inkscape:path-effect
       is_visible="true"
       id="path-effect3801-4"
       effect="spiro" />
    <inkscape:path-effect
       is_visible="true"
       id="path-effect3846-4"
       effect="spiro" />
    <inkscape:path-effect
       is_visible="true"
       id="path-effect3801-2"
       effect="spiro" />
    <inkscape:path-effect
       is_visible="true"
       id="path-effect4141-5-7-9"
       effect="spiro" />
    <inkscape:path-effect
       is_visible="true"
       id="path-effect4141-5-7-9-4"
       effect="spiro" />
  </defs>
  <sodipodi:namedview
     inkscape:window-height="878"
     inkscape:window-width="1600"
     inkscape:pageshadow="2"
     inkscape:pageopacity="0.0"
     borderopacity="1.0"
     bordercolor="#666666"
     pagecolor="#ffffff"
     id="base"
     showgrid="true"
     showguides="true"
     inkscape:guide-bbox="true"
     inkscape:zoom="0.227"
     inkscape:cx="1090.4383"
     inkscape:cy="481.39036"
     inkscape:window-x="-1"
     inkscape:window-y="-1"
     inkscape:current-layer="layer1-2"
     inkscape:window-maximized="1"
     inkscape:snap-grids="false">
    <sodipodi:guide
       orientation="horizontal"
       position="0,600"
       id="guide5596" />
    <inkscape:grid
       type="xygrid"
       id="grid3769"
       empspacing="3"
       visible="true"
       enabled="true"
       snapvisiblegridlinesonly="true"
       spacingx="4px"
       units="px"
       dotted="true"
       spacingy="4px" />
    <sodipodi:guide
       orientation="0,1"
       position="-1040,1600"
       id="guide2985" />
  </sodipodi:namedview>
  <metadata
     id="metadata5594">
    <rdf:RDF>
      <cc:Work
         rdf:about="">
        <dc:format>image/svg+xml</dc:format>
        <dc:type
           rdf:resource="http://purl.org/dc/dcmitype/StillImage" />
        <dc:title />
      </cc:Work>
    </rdf:RDF>
  </metadata>
  <g
     inkscape:label="Layer 1"
     inkscape:groupmode="layer"
     id="layer1"
     transform="translate(0,1048)">
    <g
       id="layer1-5"
       inkscape:label="Layer 1"
       transform="translate(24.987319,25.339789)">
      <g
         transform="translate(9.8717383,-66.184927)"
         id="layer1-4"
         inkscape:label="Layer 1">
        <g
           transform="translate(1138.3105,47.019258)"
           id="layer1-9"
           inkscape:label="Layer 1" />
        <g
           transform="translate(1669.1096,32.086007)"
           id="layer1-6"
           inkscape:label="Layer 1" />
        <g
           transform="translate(25.895786,72.958614)"
           id="layer1-2"
           inkscape:label="Layer 1">
          <path
             sodipodi:nodetypes="caccaaacascasc"
             inkscape:connector-curvature="0"
             inkscape:original-d="m 298.99818,301.08368 c 0,0 -141.5827,-563.1528 52.0938,-581.2231 197.9635,-18.4703 162.23,573.9842 162.23,573.9842 l 965.48852,2.6887 c 0,0 -276.6051,-82.14436 -294.3006,-199.291901 -43.0515,-285.009139 253.6681,-650.002859 540.8495,-674.710739 188.678,-16.23306 427.5108,186.70833 425.832,376.07588 -0.968,109.198857 -249.3623,212.476768 -249.3623,212.476768 0,0 295.5758,168.783242 263.1542,297.024982 -57.838,228.77455 -565.2457,243.92873 -664.869,243.09781 l -1070.76772,-8.9309 c -168.3472,-3.9073 -349.428805,38.0721 -344.840505,165.4872 4.5525,126.424 71.727605,140.6917 353.082205,139.1641 l 1734.72162,-9.4185"
             inkscape:path-effect="#path-effect4141-5-7-9"
             id="path4139-0-3-8"
             d="M 298.99818,301.08368 C 236.04494,279.44464 180.7353,236.22032 144.52392,180.36251 108.31254,124.50471 91.429932,56.36899 97.372501,-9.9336829 103.31507,-76.236356 132.04498,-140.28392 177.61226,-188.81208 c 45.56727,-48.52815 107.68184,-81.22799 173.47972,-91.32734 71.66622,-11.00009 147.15856,5.0597 208.14146,44.27876 60.9829,39.21905 106.91214,101.2474 126.63245,171.019582 19.7203,69.7721866 13.05567,146.665578 -18.37517,212.004308 -31.43085,65.33874 -87.34744,118.53974 -154.16874,146.68155 l 965.48852,2.6887 C 1356.134,283.5944 1242.0637,206.34928 1184.5099,97.241579 c -40.5483,-76.869451 -53.4273,-167.378056 -39.3886,-253.145129 14.0388,-85.76708 54.4243,-166.54926 111.9831,-231.66496 57.5589,-65.11571 131.8961,-114.70771 212.882,-146.24123 80.9859,-31.53352 168.4791,-45.24839 255.373,-43.65942 107.4572,1.965 217.5045,28.77085 302.4161,94.65654 42.4558,32.94284 77.9198,75.35976 100.3383,124.19761 22.4185,48.83785 31.4646,104.14268 23.0776,157.22173 -9.2786,58.72185 -40.1447,113.786065 -85.3958,152.343642 -45.2511,38.557578 -104.5163,60.292539 -163.9665,60.133126 38.8948,-6.3640559 79.3852,-2.7178725 116.5173,10.492472 37.1322,13.210345 70.8273,35.956783 96.963,65.45649 26.1358,29.49971 44.6567,65.69001 53.2968,104.14333 8.6401,38.45333 7.3812,79.08799 -3.6229,116.93269 -17.6968,60.86221 -59.9811,112.80291 -111.6418,149.52562 -51.6607,36.72271 -112.3584,59.2508 -174.293,72.72275 -123.8692,26.9439 -252.1729,21.90671 -378.9342,20.84944 l -1070.76772,-8.9309 c -71.7891,-0.59877 -145.04443,-3.94079 -214.02561,15.94969 -34.49058,9.94524 -67.72178,26.5742 -92.75041,52.30504 -12.51431,12.86542 -22.850006,27.94277 -29.633242,44.55947 -6.783235,16.6167 -9.95753,34.79012 -8.431243,52.673 1.476904,17.30429 7.331056,34.12911 16.243185,49.03527 8.91213,14.90615 20.83556,27.92179 34.43629,38.72178 27.20146,21.59997 60.63145,34.21789 94.62322,41.36198 67.98354,14.28816 138.31174,10.42224 207.77951,10.04507 l 1734.72162,-9.4185"
             style="fill:none;fill-rule:evenodd;stroke:#000000;stroke-width:140;stroke-linecap:round;stroke-linejoin:round;stroke-miterlimit:4;stroke-dasharray:none;stroke-opacity:1" />
          <path
             style="color:#000000;font-style:normal;font-variant:normal;font-weight:normal;font-stretch:normal;font-size:medium;line-height:normal;font-family:sans-serif;text-indent:0;text-align:start;text-decoration:none;text-decoration-line:none;text-decoration-style:solid;text-decoration-color:#000000;letter-spacing:normal;word-spacing:normal;text-transform:none;direction:ltr;block-progression:tb;writing-mode:lr-tb;baseline-shift:baseline;text-anchor:start;white-space:normal;clip-rule:nonzero;display:inline;overflow:visible;visibility:visible;opacity:1;isolation:auto;mix-blend-mode:normal;color-interpolation:sRGB;color-interpolation-filters:linearRGB;solid-color:#000000;solid-opacity:1;fill:#000000;fill-opacity:1;fill-rule:evenodd;stroke:none;stroke-width:140;stroke-linecap:round;stroke-linejoin:round;stroke-miterlimit:4;stroke-dasharray:none;stroke-dashoffset:0;stroke-opacity:1;color-rendering:auto;image-rendering:auto;shape-rendering:auto;text-rendering:auto;enable-background:accumulate"
             d="m 1761.3398,1026.7012 c -95.1146,-1.7394 -191.5751,13.1894 -282.0507,48.4179 -90.6132,35.2821 -174.2439,90.8018 -239.9297,165.1114 -65.8246,74.4667 -112.2533,166.7449 -128.6172,266.7168 -16.4093,100.2495 -1.7191,205.5983 46.5547,297.1132 18.5443,35.1554 41.8203,67.2335 68.6191,95.8321 l -487.67772,-1.3594 c 10.0907,-14.8951 19.17526,-30.526 27.03516,-46.8652 39.05537,-81.1888 47.15838,-174.691 22.65429,-261.3887 -24.5041,-86.6976 -80.35258,-162.1226 -156.1289,-210.8555 -75.77626,-48.7329 -167.57383,-68.2623 -256.625,-54.5937 -81.66404,12.5347 -157.33545,52.3716 -213.89063,112.6015 -56.55516,60.2301 -91.554147,138.2544 -98.929684,220.545 -7.375535,82.2906 13.191534,165.2959 58.134764,234.623 44.94322,69.3271 112.32344,121.9848 190.45703,148.8418 a 70.007,70.007 0 1 0 45.50781,-132.3965 c -47.77288,-16.421 -91.01069,-50.213 -118.49023,-92.6015 -27.47953,-42.3885 -40.67757,-95.654 -36.16797,-145.9688 4.5096,-50.3146 26.96943,-100.3846 61.54883,-137.2109 34.57937,-36.8263 83.13859,-62.3906 133.07031,-70.0547 54.28127,-8.3317 113.46671,4.2596 159.65625,33.9648 46.18948,29.7052 82.19825,78.337 97.13477,131.1836 14.93651,52.8467 9.71255,113.1323 -14.09375,162.6211 -23.80629,49.4887 -67.64617,91.1986 -118.25781,112.5137 a 70.007,70.007 0 0 0 26.9746,134.5117 l 965.48828,2.6875 a 70.007,70.007 0 0 0 7.5371,-139.6133 c -98.2772,-10.3656 -193.6217,-74.9288 -239.7285,-162.3359 -32.8228,-62.2239 -43.8908,-137.8953 -32.2227,-209.1797 11.7137,-71.5623 46.0566,-140.8466 95.3497,-196.6113 49.432,-55.9219 114.4753,-99.5862 185.8339,-127.3711 71.4962,-27.8385 150.0222,-40.341 228.6953,-38.9024 96.6953,1.7682 191.7494,26.4071 260.7833,79.9727 34.3795,26.6762 62.48,60.7311 79.6328,98.0976 17.0381,37.1167 23.5588,79.0812 17.5527,117.0918 -6.5963,41.7465 -29.4824,82.5769 -61.6523,109.9883 -24.1045,20.5389 -54.8207,34.7314 -86.4864,40.5117 -14.4952,0.2746 -28.9943,1.4677 -43.3847,3.8223 a 70.007,70.007 0 0 0 11.1152,139.0801 c 14.6552,0.039 29.2328,-0.9468 43.6387,-2.8867 16.9316,0.5986 33.8372,3.7209 49.6035,9.33 25.824,9.1873 49.8548,25.4098 68.0312,45.9258 18.1766,20.516 31.3857,46.3255 37.3946,73.0684 6.0089,26.743 5.1119,55.7234 -2.541,82.043 -12.3314,42.4094 -44.0252,82.9013 -84.9825,112.0156 -41.5758,29.5539 -93.2362,49.3309 -148.6152,61.3769 -112.2887,24.425 -235.2491,20.3215 -363.4707,19.252 l -1070.76954,-8.9297 c -70.01401,-0.584 -150.33858,-5.4366 -234.00195,18.6875 -42.9488,12.3841 -87.42387,33.6315 -123.53516,70.7559 -18.141439,18.6505 -33.676658,40.9774 -44.263672,66.9121 -10.644802,26.0763 -15.936493,55.0014 -13.36914,85.082 2.482824,29.0904 12.019462,55.7739 25.908203,79.0039 13.813626,23.1042 31.541109,42.1768 50.988279,57.6191 38.67773,30.7131 82.56907,46.3906 123.75586,55.0469 79.97995,16.8095 155.42925,11.9036 222.55664,11.5391 l 1734.72068,-9.418 a 70.007,70.007 0 1 0 -0.7597,-139.998 l -1734.72074,9.4179 c -71.80815,0.3899 -137.01482,3.2181 -193.00196,-8.5488 -26.79675,-5.6319 -49.76504,-15.1907 -65.49023,-27.6777 a 70.007,70.007 0 0 0 -0.002,0 c -7.75429,-6.1575 -13.87414,-13.1162 -17.88477,-19.8242 -3.9355,-6.5825 -6.10715,-13.5482 -6.57813,-19.0664 -0.48522,-5.6853 0.57249,-13.1066 3.49415,-20.2637 2.97946,-7.2987 8.11477,-15.1266 15.00195,-22.2071 13.94597,-14.3372 35.93441,-26.3472 61.9668,-33.8535 54.29896,-15.6569 120.48464,-13.8265 194.04882,-13.2129 l 1070.76756,8.9317 c 125.301,1.0451 258.9468,7.0156 394.3965,-22.4473 68.4902,-14.898 138.2252,-40.1769 199.9707,-84.0683 62.3641,-44.3312 115.2385,-107.7202 138.3008,-187.0352 14.3553,-49.3699 15.9764,-101.6606 4.7051,-151.8242 -11.2714,-50.1638 -35.1061,-96.7334 -69.2012,-135.2168 l 0,0 c -14.4906,-16.3558 -30.7393,-30.9295 -48.2558,-43.7403 53.7182,-49.0771 89.5002,-115.2897 100.8848,-187.3398 10.7679,-68.1474 -0.8044,-136.7906 -28.6036,-197.3496 l 0,0 c -27.6843,-60.3092 -70.5129,-111.0893 -121.0449,-150.2988 -100.7896,-78.2059 -225.8297,-107.18 -344.0489,-109.3418 z"
             id="path4139-0-3-8-9"
             inkscape:connector-curvature="0" />
        </g>
      </g>
    </g>
  </g>
</svg>
