<?xml version="1.0" encoding="UTF-8" standalone="no"?>
<!-- Created with Inkscape (http://www.inkscape.org/) -->

<svg
   xmlns:dc="http://purl.org/dc/elements/1.1/"
   xmlns:cc="http://creativecommons.org/ns#"
   xmlns:rdf="http://www.w3.org/1999/02/22-rdf-syntax-ns#"
   xmlns:svg="http://www.w3.org/2000/svg"
   xmlns="http://www.w3.org/2000/svg"
   xmlns:sodipodi="http://sodipodi.sourceforge.net/DTD/sodipodi-0.dtd"
   xmlns:inkscape="http://www.inkscape.org/namespaces/inkscape"
   width="2000"
   height="2048"
   id="svg2992"
   version="1.1"
   inkscape:version="0.91pre3 r13670"
   sodipodi:docname="ഹ്നു.svg">
  <defs
     id="defs5498">
    <inkscape:path-effect
       is_visible="true"
       id="path-effect4222"
       effect="spiro" />
    <inkscape:path-effect
       is_visible="true"
       id="path-effect4199"
       effect="spiro" />
    <inkscape:path-effect
       is_visible="true"
       id="path-effect4195"
       effect="spiro" />
    <inkscape:path-effect
       is_visible="true"
       id="path-effect4191"
       effect="spiro" />
    <inkscape:path-effect
       is_visible="true"
       id="path-effect3782"
       effect="spiro" />
    <inkscape:path-effect
       is_visible="true"
       id="path-effect3846"
       effect="spiro" />
    <inkscape:path-effect
       is_visible="true"
       id="path-effect3801"
       effect="spiro" />
    <inkscape:path-effect
       is_visible="true"
       id="path-effect3846-8"
       effect="spiro" />
    <inkscape:path-effect
       is_visible="true"
       id="path-effect3801-4"
       effect="spiro" />
    <inkscape:path-effect
       is_visible="true"
       id="path-effect3846-4"
       effect="spiro" />
    <inkscape:path-effect
       is_visible="true"
       id="path-effect3801-2"
       effect="spiro" />
    <inkscape:path-effect
       effect="spiro"
       id="path-effect4141-5-7-6-5"
       is_visible="true" />
    <inkscape:path-effect
       effect="spiro"
       id="path-effect4372-5-0-7-0-2"
       is_visible="true" />
    <inkscape:path-effect
       effect="spiro"
       id="path-effect4141-5-7-6-5-3"
       is_visible="true" />
  </defs>
  <sodipodi:namedview
     inkscape:window-height="853"
     inkscape:window-width="1600"
     inkscape:pageshadow="2"
     inkscape:pageopacity="0.0"
     borderopacity="1.0"
     bordercolor="#666666"
     pagecolor="#ffffff"
     id="base"
     showgrid="true"
     showguides="true"
     inkscape:guide-bbox="true"
     inkscape:zoom="0.227"
     inkscape:cx="1674.1388"
     inkscape:cy="657.60182"
     inkscape:window-x="1598"
     inkscape:window-y="-3"
     inkscape:current-layer="layer1-4"
     inkscape:window-maximized="1"
     inkscape:snap-grids="false">
    <sodipodi:guide
       orientation="horizontal"
       position="0,600"
       id="guide5596" />
    <inkscape:grid
       type="xygrid"
       id="grid3769"
       empspacing="3"
       visible="true"
       enabled="true"
       snapvisiblegridlinesonly="true"
       spacingx="4px"
       units="px"
       dotted="true"
       spacingy="4px" />
    <sodipodi:guide
       orientation="0,1"
       position="-1040,1600"
       id="guide2985" />
  </sodipodi:namedview>
  <metadata
     id="metadata5594">
    <rdf:RDF>
      <cc:Work
         rdf:about="">
        <dc:format>image/svg+xml</dc:format>
        <dc:type
           rdf:resource="http://purl.org/dc/dcmitype/StillImage" />
        <dc:title />
      </cc:Work>
    </rdf:RDF>
  </metadata>
  <g
     inkscape:label="Layer 1"
     inkscape:groupmode="layer"
     id="layer1"
     transform="translate(0,1048)">
    <g
       id="layer1-5"
       inkscape:label="Layer 1"
       transform="translate(24.987319,25.339789)">
      <g
         transform="translate(9.8717383,-66.184927)"
         id="layer1-4"
         inkscape:label="Layer 1">
        <g
           transform="translate(1138.3105,47.019258)"
           id="layer1-9"
           inkscape:label="Layer 1" />
        <g
           transform="translate(1669.1096,32.086007)"
           id="layer1-6"
           inkscape:label="Layer 1" />
        <path
           style="color:#000000;font-style:normal;font-variant:normal;font-weight:normal;font-stretch:normal;font-size:medium;line-height:normal;font-family:sans-serif;text-indent:0;text-align:start;text-decoration:none;text-decoration-line:none;text-decoration-style:solid;text-decoration-color:#000000;letter-spacing:normal;word-spacing:normal;text-transform:none;direction:ltr;block-progression:tb;writing-mode:lr-tb;baseline-shift:baseline;text-anchor:start;white-space:normal;clip-rule:nonzero;display:inline;overflow:visible;visibility:visible;opacity:1;isolation:auto;mix-blend-mode:normal;color-interpolation:sRGB;color-interpolation-filters:linearRGB;solid-color:#000000;solid-opacity:1;fill:#000000;fill-opacity:1;fill-rule:evenodd;stroke:none;stroke-width:140;stroke-linecap:round;stroke-linejoin:round;stroke-miterlimit:4;stroke-dasharray:none;stroke-dashoffset:0;stroke-opacity:1;color-rendering:auto;image-rendering:auto;shape-rendering:auto;text-rendering:auto;enable-background:accumulate"
           d="m 1417.5273,-557.75586 c -133.1153,-2.19237 -262.1101,54.39061 -352.4414,150.76367 -90.13879,96.16763 -137.41625,226.48435 -133.31832,357.169924 4.15179,132.401934 60.94163,259.706286 155.49802,351.751956 l -360.34568,-0.86133 c 2.0963,-3.16388 4.17989,-6.33695 6.17774,-9.57227 C 773.06627,226.77075 791.50329,150.5354 785.52539,74.699219 779.5475,-1.1369613 749.39346,-73.543332 699.77734,-131.20703 650.16123,-188.87073 583.06436,-229.48787 508.96875,-246.71289 420.93388,-267.17837 327.58303,-253.44596 249.17188,-208.49414 170.76072,-163.54232 111.74167,-89.92417 84.919922,-3.6132812 58.09819,82.697602 64.998415,176.79907 104.12109,258.27539 c 39.12269,81.47632 108.24638,145.69878 192.375,178.73438 a 70.007,70.007 0 1 0 51.17188,-130.3125 C 297.50914,287.00092 253.6498,246.25328 230.32422,197.67578 206.99866,149.09831 202.62173,89.391579 218.61328,37.931641 c 15.99156,-51.459934 53.43947,-98.167753 100.18945,-124.96875 46.74999,-26.801001 105.97704,-35.514341 158.46485,-23.312501 44.45682,10.33488 86.61741,35.857276 116.38672,70.455079 29.7693,34.5977982 48.71604,80.0926 52.30273,125.59375 3.5867,45.501141 -7.99763,93.405491 -31.97851,132.240231 -23.98088,38.83474 -61.62166,70.64565 -103.91016,87.81836 a 70.007,70.007 0 0 0 26.16992,134.85742 l 844.29882,2.01368 c 43.6719,5.56531 88.1438,5.60215 132.2031,-0.33203 a 70.007,70.007 0 0 0 -9.1757,-139.375 l -110.4297,-0.26368 c -69.5061,-10.09559 -136.8493,-39.26723 -189.7832,-84.10547 -78.5195,-66.51068 -128.4272,-169.911396 -131.6524,-272.763668 -2.9286,-93.394042 32.3541,-189.636372 95.5313,-257.039062 62.9845,-67.19728 156.9462,-108.02486 247.9902,-106.52539 47.7304,0.78611 95.4039,12.66789 136.6563,34.61523 41.1388,21.88691 77.2928,54.72056 103.5019,93.72657 26.2332,39.04194 43.6998,85.96804 52.5547,135.44921 a 70.007,70.007 0 0 0 0,0.002 c 8.8711,49.5715 9.4213,104.053607 9.0684,162.0468731 l -2.2481,369.4531269 a 70.007,70.007 0 0 0 139.9961,0.99804 l 0,-0.14648 0,-0.35937 3.0293,-370.1621138 c 0.429,-52.4474182 1.5998,-101.6229422 9.6152,-146.3671862 8.0085,-44.7052 23.1033,-87.24547 45.4805,-123.70508 22.3898,-36.48011 52.9941,-68.46221 88.5332,-92.65234 35.6673,-24.27744 77.2562,-41.57364 120.9414,-51.26172 112.2434,-24.89226 238.4618,3.68492 330.2031,73.90039 53.0782,40.62407 95.7049,95.89197 123.9532,157.64648 -8.2778,-6.15301 -16.8513,-11.94942 -25.7012,-17.35937 -71.0078,-43.40677 -155.9553,-59.71977 -237.9902,-45.70117 -82.0349,14.01859 -156.7465,57.61524 -209.3106,122.13867 -36.6258,44.95895 -61.4326,98.666577 -71.7656,155.845701 -10.3351,57.190845 -5.907,116.332229 13.0293,171.400389 18.9404,55.07968 51.885,104.5712 95.5898,143.24805 43.7142,38.68514 96.9674,65.45404 154.2422,77.31055 65.9314,13.6485 133.7929,6.89403 195.2852,-16.44922 61.3249,-23.27976 114.7063,-62.28864 156.4883,-110.79688 83.593,-97.05033 115.8894,-225.324493 106.9941,-347.144529 -11.4551,-156.875051 -90.3737,-305.371931 -215.7266,-401.312501 -125.487,-96.04315 -290.7826,-133.73855 -445.6015,-99.4043 -59.6098,13.2197 -117.608,36.94784 -169.4063,72.20508 -51.9267,35.34457 -96.1207,81.45937 -129.0762,135.1543 -0.4639,0.7559 -0.8672,1.53691 -1.3261,2.29492 -6.3833,-11.66413 -13.1422,-23.1774 -20.6504,-34.35156 -38.9949,-58.03463 -91.8763,-106.21678 -153.9512,-139.24219 -61.9612,-32.96499 -130.9396,-49.86085 -200.1055,-51 z m 955.2715,455.36328 c 36.7992,0.57978 74.0478,10.975633 104.9903,29.890627 41.2565,25.219995 74.1482,67.3262259 88.6308,113.460937 14.4826,46.134735 11.5563,99.481756 -7.8847,143.755856 a 70.007,70.007 0 0 0 -3.627,10.16602 c -4.6345,6.48034 -9.447,12.80568 -14.6074,18.79687 -27.3709,31.77716 -62.3588,56.95115 -100.0977,71.27735 -37.5717,14.2627 -79.3904,18.07346 -117.2207,10.24219 -32.8624,-6.80288 -64.6238,-22.74178 -89.8418,-45.0586 -25.2274,-22.32513 -44.9863,-51.9657 -55.9785,-83.93164 -10.9961,-31.97745 -13.6844,-67.588226 -7.6504,-100.978514 6.0362,-33.402008 21.0256,-65.91249566 42.5371,-92.31836 30.5405,-37.48908 76.6881,-64.41749 124.3516,-72.5625 11.9159,-2.036256 24.1321,-2.933496 36.3984,-2.740236 z"
           id="path4139-0-3-5-1"
           inkscape:connector-curvature="0" />
        <path
           style="fill:none;fill-rule:evenodd;stroke:#000000;stroke-width:140;stroke-linecap:round;stroke-linejoin:round;stroke-miterlimit:4;stroke-dasharray:none;stroke-opacity:1"
           d="m 311.53479,1653.115 c -67.14372,-26.366 -123.63508,-78.8517 -154.85919,-143.8786 -31.22412,-65.0269 -36.86217,-141.931 -15.45552,-210.8164 21.40665,-68.8854 69.63939,-129.0487 132.21996,-164.9251 62.58056,-35.8764 138.86991,-47.0996 209.13125,-30.7659 59.27621,13.78 113.9053,46.8496 153.598,92.9803 39.69271,46.1308 64.24212,105.0822 69.02441,165.7508 4.78229,60.6687 -10.22746,122.7384 -42.20221,174.5184 -31.97475,51.78 -80.74781,93.0005 -137.1329,115.8976 l 966.99121,2.3072 c -122.3807,16.483 -251.0647,-21.1418 -345.2899,-100.9561 -94.2252,-79.8144 -152.50304,-200.5575 -156.37331,-323.9825 -3.51326,-112.0398 37.76631,-225.3196 114.42431,-307.10471 76.658,-81.78517 188.1358,-130.49121 300.2155,-128.64529 58.4481,0.96262 116.7744,15.35225 168.3812,42.80842 51.6069,27.45617 96.1241,67.96452 128.7261,116.48484 32.6019,48.52034 53.0611,104.61674 63.3585,162.15864 10.2975,57.5419 10.5179,116.35 10.1621,174.805 l -2.2485,369.4524 3.0322,-370.6673 c 0.4327,-52.9006 1.3813,-106.0643 10.7097,-158.1377 9.3284,-52.0734 27.0526,-102.8908 54.7252,-147.97837 27.6726,-45.08752 65.0718,-84.1359 108.8047,-113.90325 43.7328,-29.76734 93.5254,-50.28006 145.1729,-61.73395 133.5312,-29.61326 279.2886,3.52306 387.9028,86.65237 108.6141,83.12932 178.4947,214.4114 188.4556,350.8236 7.7168,105.6802 -21.0644,216.0777 -90.2173,296.3631 -34.5764,40.1428 -78.7613,72.2339 -128.2932,91.0369 -49.532,18.803 -104.3721,24.0857 -156.2529,13.3458 -45.0686,-9.3297 -87.576,-30.6832 -122.0421,-61.1842 -34.4661,-30.501 -60.8177,-70.0682 -75.784,-113.591 -14.9662,-43.5228 -18.5245,-90.8985 -10.3399,-136.1891 8.1846,-45.2905 28.0827,-88.3993 57.1514,-124.0817 41.5523,-51.0063 101.9811,-86.2681 166.8304,-97.3499 64.8492,-11.0818 133.5585,2.1122 189.6907,36.4256 56.1321,34.3134 99.2022,89.4497 118.9067,152.2188 19.7044,62.7691 15.873,132.6287 -10.5778,192.8665"
           id="path4139-0-3-5-1-5"
           inkscape:path-effect="#path-effect4141-5-7-6-5-3"
           inkscape:original-d="m 311.53479,1653.115 c 0,0 -19.8908,-571.7276 171.0365,-550.386 182.4804,20.3974 43.2873,549.1471 43.2873,549.1471 l 966.99121,2.3072 c 0,0 -489.897,-206.1051 -501.66321,-424.9386 -10.765,-200.2114 214.49461,-447.68267 414.63981,-435.75 206.0952,12.28741 385.0436,284.392 370.6279,496.2569 l -2.2485,369.4524 3.0322,-370.6673 c -0.3679,-80.65 129.4519,-449.53001 319.4125,-481.75327 237.7977,-40.33792 555.9259,197.14827 576.3584,437.47597 15.4935,182.2344 -195.8476,438.6744 -374.7634,400.7458 -150.1665,-31.834 -270.557,-338.7496 -151.0146,-435.046 141.4289,-113.9269 434.0464,106.2102 464.85,284.161"
           inkscape:connector-curvature="0"
           sodipodi:nodetypes="caccaacccaaaac" />
      </g>
    </g>
  </g>
</svg>
