<?xml version="1.0" encoding="UTF-8" standalone="no"?>
<!-- Created with Inkscape (http://www.inkscape.org/) -->

<svg
   xmlns:dc="http://purl.org/dc/elements/1.1/"
   xmlns:cc="http://creativecommons.org/ns#"
   xmlns:rdf="http://www.w3.org/1999/02/22-rdf-syntax-ns#"
   xmlns:svg="http://www.w3.org/2000/svg"
   xmlns="http://www.w3.org/2000/svg"
   xmlns:sodipodi="http://sodipodi.sourceforge.net/DTD/sodipodi-0.dtd"
   xmlns:inkscape="http://www.inkscape.org/namespaces/inkscape"
   width="2000"
   height="2048"
   id="svg2992"
   version="1.1"
   inkscape:version="0.91pre3 r13670"
   sodipodi:docname="ഹ്നൂ.svg">
  <defs
     id="defs5498">
    <inkscape:path-effect
       is_visible="true"
       id="path-effect4222"
       effect="spiro" />
    <inkscape:path-effect
       is_visible="true"
       id="path-effect4199"
       effect="spiro" />
    <inkscape:path-effect
       is_visible="true"
       id="path-effect4195"
       effect="spiro" />
    <inkscape:path-effect
       is_visible="true"
       id="path-effect4191"
       effect="spiro" />
    <inkscape:path-effect
       is_visible="true"
       id="path-effect3782"
       effect="spiro" />
    <inkscape:path-effect
       is_visible="true"
       id="path-effect3846"
       effect="spiro" />
    <inkscape:path-effect
       is_visible="true"
       id="path-effect3801"
       effect="spiro" />
    <inkscape:path-effect
       is_visible="true"
       id="path-effect3846-8"
       effect="spiro" />
    <inkscape:path-effect
       is_visible="true"
       id="path-effect3801-4"
       effect="spiro" />
    <inkscape:path-effect
       is_visible="true"
       id="path-effect3846-4"
       effect="spiro" />
    <inkscape:path-effect
       is_visible="true"
       id="path-effect3801-2"
       effect="spiro" />
    <inkscape:path-effect
       effect="spiro"
       id="path-effect4141-5-7-6-5"
       is_visible="true" />
    <inkscape:path-effect
       effect="spiro"
       id="path-effect4372-5-0-7-0-2-2"
       is_visible="true" />
    <inkscape:path-effect
       effect="spiro"
       id="path-effect4372-5-0-7-0-2-2-0"
       is_visible="true" />
  </defs>
  <sodipodi:namedview
     inkscape:window-height="853"
     inkscape:window-width="1600"
     inkscape:pageshadow="2"
     inkscape:pageopacity="0.0"
     borderopacity="1.0"
     bordercolor="#666666"
     pagecolor="#ffffff"
     id="base"
     showgrid="true"
     showguides="true"
     inkscape:guide-bbox="true"
     inkscape:zoom="0.227"
     inkscape:cx="1674.1388"
     inkscape:cy="1186.2362"
     inkscape:window-x="1598"
     inkscape:window-y="-3"
     inkscape:current-layer="layer1-4"
     inkscape:window-maximized="1"
     inkscape:snap-grids="false">
    <sodipodi:guide
       orientation="horizontal"
       position="0,600"
       id="guide5596" />
    <inkscape:grid
       type="xygrid"
       id="grid3769"
       empspacing="3"
       visible="true"
       enabled="true"
       snapvisiblegridlinesonly="true"
       spacingx="4px"
       units="px"
       dotted="true"
       spacingy="4px" />
    <sodipodi:guide
       orientation="0,1"
       position="-1040,1600"
       id="guide2985" />
  </sodipodi:namedview>
  <metadata
     id="metadata5594">
    <rdf:RDF>
      <cc:Work
         rdf:about="">
        <dc:format>image/svg+xml</dc:format>
        <dc:type
           rdf:resource="http://purl.org/dc/dcmitype/StillImage" />
        <dc:title />
      </cc:Work>
    </rdf:RDF>
  </metadata>
  <g
     inkscape:label="Layer 1"
     inkscape:groupmode="layer"
     id="layer1"
     transform="translate(0,1048)">
    <g
       id="layer1-5"
       inkscape:label="Layer 1"
       transform="translate(24.987319,25.339789)">
      <g
         transform="translate(9.8717383,-66.184927)"
         id="layer1-4"
         inkscape:label="Layer 1">
        <g
           transform="translate(1138.3105,47.019258)"
           id="layer1-9"
           inkscape:label="Layer 1" />
        <g
           transform="translate(1669.1096,32.086007)"
           id="layer1-6"
           inkscape:label="Layer 1" />
        <path
           style="color:#000000;font-style:normal;font-variant:normal;font-weight:normal;font-stretch:normal;font-size:medium;line-height:normal;font-family:sans-serif;text-indent:0;text-align:start;text-decoration:none;text-decoration-line:none;text-decoration-style:solid;text-decoration-color:#000000;letter-spacing:normal;word-spacing:normal;text-transform:none;direction:ltr;block-progression:tb;writing-mode:lr-tb;baseline-shift:baseline;text-anchor:start;white-space:normal;clip-rule:nonzero;display:inline;overflow:visible;visibility:visible;opacity:1;isolation:auto;mix-blend-mode:normal;color-interpolation:sRGB;color-interpolation-filters:linearRGB;solid-color:#000000;solid-opacity:1;fill:#000000;fill-opacity:1;fill-rule:evenodd;stroke:none;stroke-width:140;stroke-linecap:round;stroke-linejoin:round;stroke-miterlimit:4;stroke-dasharray:none;stroke-dashoffset:0;stroke-opacity:1;color-rendering:auto;image-rendering:auto;shape-rendering:auto;text-rendering:auto;enable-background:accumulate"
           d="m 1425.0781,-554.62109 c -120.6922,-2.87488 -239.0066,41.66218 -328.7383,121.33593 -89.6122,79.56767 -147.10761,190.59001 -162.40425,308.70899 -20.17563,155.794213 34.98623,315.70209 146.44335,426.20508 l -354.77734,-1.19922 c 2.31757,-3.58171 4.5895,-7.19698 6.78125,-10.86719 C 770.4628,225.79559 787.85366,151.32416 781.95312,77.287109 776.05257,3.2500492 747.08595,-67.524537 699.38672,-124.45508 651.68749,-181.38563 587.07696,-222.29749 515.2168,-241.07031 426.27433,-264.30573 330.91681,-252.25195 250.55273,-207.61719 170.18866,-162.98243 109.56149,-88.399584 82.28125,-0.61328125 55.001012,87.17302 62.678515,182.98075 103.58984,265.30273 144.50118,347.62471 216.23143,411.60121 302.67773,442.86914 A 70.007,70.007 0 1 0 350.29688,311.2168 C 298.84162,292.60525 253.31251,251.99839 228.96094,202.99805 204.60937,153.99769 199.73665,93.184505 215.97461,40.931641 c 16.23796,-52.252864 54.71974,-99.592296 102.55469,-126.160157 47.83495,-26.567864 108.35974,-34.217084 161.30078,-20.386714 43.10854,11.261714 83.62963,36.917986 112.24414,71.070308 28.61451,34.15233066 46.7806,78.540634 50.32031,122.955078 3.5397,44.414444 -7.36696,91.119634 -30.21094,129.373044 -22.84399,38.25344 -58.78967,70.00373 -99.57031,87.95118 a 70.007,70.007 0 0 0 27.96094,134.07031 l 821.32418,2.77734 c 52.2318,8.05019 105.7896,8.2613 158.5918,-0.43164 a 70.007,70.007 0 0 0 -11.1347,-139.07031 l -132.6426,-0.44922 c -72.7035,-12.85835 -142.3655,-46.6439 -194.627,-97.13867 -81.1748,-78.43066 -123.8069,-200.1478505 -109.3105,-312.08789 10.9261,-84.37053 53.4493,-166.00296 116.5176,-222.00196 62.9487,-55.8929 149.0209,-88.0498 232.4511,-86.0625 47.8975,1.14092 95.5913,13.18061 136.8848,35.18164 41.1712,21.93581 77.3563,54.71594 103.6094,93.64844 26.2732,38.9623 43.799,85.80049 52.6875,135.18946 8.9044,49.47793 9.4679,103.892439 9.1152,161.830073 l -2.25,369.453127 a 70.007,70.007 0 0 0 139.9961,0.99804 l 0,-0.14648 0,-0.35937 3.0293,-370.160161 c 0.4296,-52.514562 1.5856,-101.778744 9.5527,-146.648439 7.9599,-44.82884 22.9679,-87.48216 45.2754,-124.04297 43.9796,-72.07986 123.4353,-125.14872 208.9864,-143.13281 110.7464,-23.28054 234.9906,7.62639 325.6445,78.29102 29.0818,22.6692 55.0788,49.56609 77.5254,79.42187 -37.0856,-4.56552 -74.8575,-4.45802 -112.3574,0.91016 -93.0841,13.32517 -180.742,58.32813 -244.4297,129.29687 -74.2671,82.75741 -111.2466,197.442324 -89.8379,309.81641 10.6487,55.89524 35.3518,108.89273 72.8672,152.83203 37.5816,44.01693 86.878,77.50239 142.8867,95.23242 68.1924,21.58691 140.738,18.12535 205.9785,-5.32031 64.9335,-23.33536 120.3249,-65.34789 162.0352,-117.46875 41.567,-51.94166 68.7948,-112.65605 83.1093,-175.28906 5.2388,-22.92193 8.712,-46.002065 10.6719,-69.066409 26.7978,53.970379 40.4591,115.565899 39.6973,176.929689 -0.9031,72.74056 -21.786,145.94837 -59.3946,208.21875 l 0,0 c -37.6086,62.27038 -92.6824,114.82758 -156.6426,149.48437 -63.9601,34.65679 -138.0643,52.09369 -210.7676,49.59571 -72.7032,-2.49799 -145.4345,-24.98027 -206.8652,-63.94532 a 70.007,70.007 0 1 0 -74.9883,118.22266 c 82.8304,52.53869 179.0172,82.27245 277.0469,85.64062 98.0298,3.36817 196.0305,-19.69417 282.2715,-66.42382 86.241,-46.72963 159.0734,-116.23479 209.7832,-200.19727 50.7096,-83.96251 78.3272,-180.7774 79.5449,-278.85742 1.1094,-89.35961 -19.7493,-179.220547 -63.3828,-258.7753912 -36.0495,-65.7271158 -87.158,-123.1232388 -149.5176,-165.7753888 -36.8108,-103.30462 -101.4424,-196.51795 -189.166,-264.89844 -123.1129,-95.96647 -286.0201,-137.3581 -440.5156,-104.88086 -121.7486,25.59335 -233.3425,98.47231 -299.6953,207.2207 -0.4801,0.78684 -0.8964,1.59958 -1.3711,2.38868 -6.3321,-11.495 -13.0262,-22.84354 -20.4531,-33.85743 -39.0574,-57.92074 -91.9285,-105.93829 -153.8536,-138.93164 -61.8024,-32.92812 -130.4972,-49.94509 -199.3828,-51.58593 z m 1060.7344,446.33593 c 43.054,1.1156 86.442,12.041545 125.5254,31.138676 4.2394,17.158656 7.6077,34.510219 9.8008,51.986328 5.9302,47.255472 4.5349,94.66123 -5.5625,138.841796 -10.0643,44.03576 -29.1352,85.5164 -55.9356,119.00586 -26.6569,33.31024 -62.038,59.52348 -100.0761,73.19336 -37.7313,13.55958 -80.2542,15.03327 -116.379,3.59766 -29.7525,-9.41843 -57.8392,-28.27067 -78.6679,-52.66602 -20.8951,-24.47298 -35.6245,-55.6539 -41.8106,-88.125 -12.2611,-64.35857 10.6105,-138.969139 56.5059,-190.111328 40.2355,-44.835341 99.1289,-75.490675 160.0723,-84.214842 15.2953,-2.18956 30.8821,-3.05188 46.5273,-2.64649 z"
           id="path4370-9-0-9-5-7-5"
           inkscape:connector-curvature="0" />
        <path
           style="fill:none;fill-rule:evenodd;stroke:#000000;stroke-width:140;stroke-linecap:round;stroke-linejoin:round;stroke-miterlimit:4;stroke-dasharray:none;stroke-opacity:1"
           d="m 2072.2478,2238.4829 c 72.1305,45.7519 156.5891,71.8594 241.9556,74.7925 85.3665,2.933 171.4179,-17.316 246.5185,-58.0093 75.1006,-40.6932 139.0543,-101.7242 183.2135,-174.8407 44.1591,-73.1164 68.4083,-158.1272 69.4687,-243.5375 0.9658,-77.7928 -17.349,-156.032 -54.7616,-224.2446 -37.4127,-68.2125 -94.0647,-126.0905 -162.5624,-162.9786 -68.4976,-36.8881 -148.7162,-52.3402 -225.73,-41.3155 -77.0137,11.0247 -150.2892,48.8544 -202.2508,106.7564 -60.0812,66.9498 -90.0073,161.5967 -73.1724,249.963 8.4174,44.1832 28.1338,86.2724 57.339,120.4785 29.2052,34.2062 67.8972,60.3754 110.7778,73.9496 52.1586,16.5113 109.6921,14.0431 161.178,-4.4595 51.4858,-18.5026 96.8721,-52.6147 131.0557,-95.3303 34.1837,-42.7155 57.3327,-93.8139 69.5221,-147.1483 12.1895,-53.3344 13.5898,-108.8689 6.7776,-163.1527 -16.8743,-134.4649 -86.3954,-262.5748 -193.2788,-345.8904 -106.8834,-83.3155 -250.4586,-119.4645 -383.0796,-91.5856 -103.6498,21.7887 -199.176,84.7621 -254.3422,175.1762 -27.5831,45.2071 -45.1843,96.1221 -54.4427,148.2641 -9.2584,52.142 -10.1945,105.3572 -10.6277,158.313 l -3.0322,370.6673 2.2485,-369.4524 c 0.3555,-58.407 0.1257,-117.1701 -10.2197,-174.6547 -10.3454,-57.4846 -30.8874,-113.5019 -63.5427,-161.9286 -32.6552,-48.4266 -77.1833,-88.8256 -128.7314,-116.2901 -51.548,-27.4646 -109.7426,-41.9926 -168.1341,-43.3835 -102.0612,-2.4311 -204.255,35.9158 -280.5952,103.6991 -76.3402,67.7833 -126.34889,164.1113 -139.46026,265.356 -17.47216,134.9184 32.25361,276.8884 130.09146,371.4188 97.8379,94.5304 241.4334,139.3464 375.6714,117.2465 l -968.3074,-3.2753 c 54.38016,-23.9326 101.01068,-65.1222 131.47266,-116.1324 30.46198,-51.0101 44.61009,-111.5975 39.88997,-170.8232 -4.72013,-59.2258 -28.28598,-116.8074 -66.44285,-162.3488 -38.15686,-45.5415 -90.72273,-78.8254 -148.20708,-93.8427 -70.94175,-18.5329 -148.88331,-8.6815 -212.98282,26.9198 -64.09951,35.6013 -113.65439,96.5623 -135.413492,166.5819 -21.759099,70.0196 -15.483921,148.3302 17.147532,213.9914 32.63144,65.6612 91.26151,117.9532 160.21228,142.8929"
           id="path4370-9-0-9-5-7-5-5"
           inkscape:path-effect="#path-effect4372-5-0-7-0-2-2-0"
           inkscape:original-d="m 2072.2478,2238.4829 c -5.506,-31.8079 745.9322,-120.647 741.1563,-401.595 -4.0854,-240.3266 -455.3265,-469.0297 -645.3048,-321.7823 -119.7225,92.794 -51.407,405.3339 94.9444,444.3911 177.5701,47.3886 385.9175,-227.1301 368.5334,-410.0908 -22.8145,-240.1133 -338.5607,-477.8139 -576.3584,-437.476 -189.9607,32.2233 -319.7805,401.1033 -319.4126,481.7533 l -3.0322,370.6673 2.2485,-369.4524 c 14.4158,-211.8649 -165.2872,-474.7765 -370.6279,-496.2569 -185.3717,-19.3914 -415.64336,182.7241 -420.05546,369.0551 -5.5493,234.3579 505.76286,488.6653 505.76286,488.6653 l -968.3074,-3.2753 c 0,0 137.2204,-523.0493 -43.2873,-543.1471 -190.9365,-21.259 -171.0365,550.386 -171.0365,550.386"
           inkscape:connector-curvature="0"
           sodipodi:nodetypes="caaaaacccaaccac" />
      </g>
    </g>
  </g>
</svg>
