<?xml version="1.0" encoding="UTF-8" standalone="no"?>
<!-- Created with Inkscape (http://www.inkscape.org/) -->

<svg
   xmlns:dc="http://purl.org/dc/elements/1.1/"
   xmlns:cc="http://creativecommons.org/ns#"
   xmlns:rdf="http://www.w3.org/1999/02/22-rdf-syntax-ns#"
   xmlns:svg="http://www.w3.org/2000/svg"
   xmlns="http://www.w3.org/2000/svg"
   xmlns:sodipodi="http://sodipodi.sourceforge.net/DTD/sodipodi-0.dtd"
   xmlns:inkscape="http://www.inkscape.org/namespaces/inkscape"
   width="2000"
   height="2048"
   id="svg2992"
   version="1.1"
   inkscape:version="0.91pre2 r13516"
   sodipodi:docname="ഹൃ.svg">
  <defs
     id="defs5498">
    <inkscape:path-effect
       is_visible="true"
       id="path-effect4148"
       effect="spiro" />
    <inkscape:path-effect
       is_visible="true"
       id="path-effect4141-5"
       effect="spiro" />
    <inkscape:path-effect
       is_visible="true"
       id="path-effect4141-5-7"
       effect="spiro" />
    <inkscape:path-effect
       is_visible="true"
       id="path-effect4141-5-7-6"
       effect="spiro" />
  </defs>
  <sodipodi:namedview
     inkscape:window-height="853"
     inkscape:window-width="1600"
     inkscape:pageshadow="2"
     inkscape:pageopacity="0.0"
     borderopacity="1.0"
     bordercolor="#666666"
     pagecolor="#ffffff"
     id="base"
     showgrid="true"
     showguides="true"
     inkscape:guide-bbox="true"
     inkscape:zoom="0.32102648"
     inkscape:cx="1147.7807"
     inkscape:cy="286.11352"
     inkscape:window-x="1598"
     inkscape:window-y="-3"
     inkscape:current-layer="layer1-4"
     inkscape:window-maximized="1">
    <sodipodi:guide
       orientation="horizontal"
       position="0,600"
       id="guide5596" />
    <inkscape:grid
       type="xygrid"
       id="grid3769"
       empspacing="3"
       visible="true"
       enabled="true"
       snapvisiblegridlinesonly="true"
       spacingx="4px"
       units="px"
       dotted="true"
       spacingy="4px" />
    <sodipodi:guide
       orientation="0,1"
       position="-1040,1600"
       id="guide2985" />
  </sodipodi:namedview>
  <metadata
     id="metadata5594">
    <rdf:RDF>
      <cc:Work
         rdf:about="">
        <dc:format>image/svg+xml</dc:format>
        <dc:type
           rdf:resource="http://purl.org/dc/dcmitype/StillImage" />
        <dc:title />
      </cc:Work>
    </rdf:RDF>
  </metadata>
  <g
     inkscape:label="Layer 1"
     inkscape:groupmode="layer"
     id="layer1"
     transform="translate(0,1048)">
    <g
       id="layer1-4"
       inkscape:label="Layer 1"
       transform="translate(47.944243,-457.96695)">
      <path
         style="color:#000000;font-style:normal;font-variant:normal;font-weight:normal;font-stretch:normal;font-size:medium;line-height:normal;font-family:sans-serif;text-indent:0;text-align:start;text-decoration:none;text-decoration-line:none;text-decoration-style:solid;text-decoration-color:#000000;letter-spacing:normal;word-spacing:normal;text-transform:none;direction:ltr;block-progression:tb;writing-mode:lr-tb;baseline-shift:baseline;text-anchor:start;clip-rule:nonzero;display:inline;overflow:visible;visibility:visible;opacity:1;isolation:auto;mix-blend-mode:normal;color-interpolation:sRGB;color-interpolation-filters:linearRGB;solid-color:#000000;solid-opacity:1;fill:#000000;fill-opacity:1;fill-rule:evenodd;stroke:none;stroke-width:140;stroke-linecap:round;stroke-linejoin:round;stroke-miterlimit:4;stroke-dasharray:none;stroke-dashoffset:0;stroke-opacity:1;color-rendering:auto;image-rendering:auto;shape-rendering:auto;text-rendering:auto;enable-background:accumulate"
         d="m 1695.0742,-134.38867 c -154.3719,0.76016 -306.1477,62.51887 -418.1914,169.48242 -75.512,72.08822 -133.6555,164.46996 -159.4512,268.74023 -25.9128,104.74331 -17.6516,218.63539 31.4825,317.98829 17.5534,35.4944 40.0712,68.21559 66.4707,97.45117 l -497.51957,-1.38477 c 2.93861,-4.67048 5.80916,-9.38728 8.53711,-14.19922 35.75551,-63.07059 51.87703,-135.81632 46.11719,-208.08789 C 766.7597,423.33 739.31918,354.05846 694.02539,297.44727 648.7316,240.83608 587.16862,198.86529 517.92188,177.38867 c -62.06035,-19.24779 -128.51413,-21.5033 -191.80665,-6.28906 -63.30607,15.2175 -121.62638,47.4853 -168.0957,93.25977 -44.17333,43.5128 -76.384305,97.98953 -93.224608,157.66406 -16.8403,59.67453 -17.860427,122.95457 -2.951172,183.14062 14.909241,60.18607 45.35092,115.67275 88.09961,160.58594 42.7487,44.9132 96.66413,78.05459 156.04102,95.91602 A 70.007,70.007 0 1 0 346.3125,727.59961 c -35.73007,-10.74812 -69.2369,-31.34457 -94.96094,-58.37109 -25.72404,-27.02654 -44.64359,-61.50959 -53.61523,-97.72657 -8.97165,-36.21696 -8.33679,-75.54589 1.79687,-111.45507 10.13366,-35.90917 30.15307,-69.76539 56.73438,-95.94922 27.93858,-27.52082 64.32231,-47.68143 102.56836,-56.875 38.25961,-9.19684 79.91647,-7.80872 117.61328,3.88281 41.95854,13.01328 80.81498,39.50237 108.25976,73.80469 27.44479,34.30232 44.76191,78.02307 48.25196,121.81445 3.49004,43.79139 -6.68434,89.70367 -28.34961,127.91992 -21.66527,38.21625 -55.83538,70.52478 -95.20313,90.01953 a 70.007,70.007 0 0 0 30.86914,132.73047 l 965.48826,2.6875 a 70.007,70.007 0 0 0 5.7168,-139.78125 c -49.4922,-3.91575 -98.624,-21.13524 -139.7324,-48.97266 -41.1084,-27.8374 -75.3356,-67.06606 -97.3438,-111.56835 -32.7501,-66.22337 -39.52,-147.73636 -21.0722,-222.30469 18.5647,-75.04139 62.1258,-145.63305 120.2226,-201.0957 105.0018,-100.240902 261.7915,-149.604989 403.0372,-123.64063 71.0576,13.062134 139.2668,44.19993 194.998,89.49805 55.6963,45.26972 99.8689,105.56686 125.5664,172.12304 43.8117,113.47138 34.7116,248.91506 -11.5469,369.10352 -46.6184,121.12388 -128.8185,230.4766 -224.4843,329.04883 -59.32,61.12211 -123.078,117.72601 -190.9375,168.01561 -83.7053,-58.9993 -171.8009,-111.7356 -263.4024,-157.52733 -81.0049,-40.4944 -174.561,-80.98141 -280.707,-79.37891 -53.449,0.80693 -108.6348,12.82631 -158.56643,41.02735 -50.39862,28.46495 -93.27113,72.58139 -116.39648,129.73239 -23.27456,57.5197 -23.14452,120.0111 -4.86524,176.3809 18.13681,55.9304 52.97979,103.1477 96.19141,138.666 42.98042,35.3282 92.98654,58.3068 144.09574,71.2266 50.945,12.8782 102.4049,15.743 151.8886,12.5742 120.7835,-7.7346 232.2266,-51.0394 331.8985,-104.0645 146.6129,-77.9974 277.2369,-181.6554 391.2656,-299.1484 103.6442,-106.793 198.4992,-230.30797 254.6758,-376.26563 56.5366,-146.89311 70.7613,-316.3156 11.4941,-469.81641 C 2192.9806,133.83157 2134.4956,54.21164 2059.8945,-6.4238281 1985.3284,-67.030913 1895.9882,-107.67969 1801.9043,-124.97461 c -35.4446,-6.51558 -71.2058,-9.58948 -106.8301,-9.41406 z M 1128.1934,1043.5859 c 67.9323,-1.0255 141.2744,27.2668 215.9941,64.6192 68.7894,34.3879 135.4601,73.0218 199.5898,115.4804 -12.9564,7.5037 -26.0026,14.8377 -39.205,21.8614 -89.1119,47.4071 -182.4761,82.0184 -275.0918,87.9492 -37.8177,2.4218 -74.7636,-0.031 -108.6309,-8.5918 -33.703,-8.5197 -64.9095,-23.428 -89.5098,-43.6484 -24.3689,-20.0304 -43.06651,-46.4153 -51.91402,-73.6993 -8.70501,-26.8445 -8.06985,-57.1083 1.46875,-80.6816 9.52617,-23.5426 30.06997,-46.0017 55.46677,-60.3457 25.864,-14.6078 58.2416,-22.4362 91.8321,-22.9434 z"
         id="path4139-0-3"
         inkscape:connector-curvature="0" />
      <path
         sodipodi:nodetypes="cssccssssssssc"
         inkscape:connector-curvature="0"
         inkscape:original-d="m 490.11393,2477.4471 c 0,0 -288.27863,-402.806 -119.0055,-480.4047 169.27314,-77.5995 -166.95675,-29.1144 290.04203,-69.9814 456.99754,-40.8669 -305.55974,43.4157 43.28725,543.1472 l 965.48849,2.6887 c 0,0 -150.3007,-7.2919 -294.3006,-199.2919 -182.1473,-242.8629 -126.4405,-489.0644 113.5595,-505.0644 240,-16 933.2398,-316.6003 837.2398,163.3996 -46.9639,234.8194 -194.4303,696.6574 -251.0998,772.1177 -31.8302,42.3848 -208.6608,195.531 -373.9117,286.102 -33.3212,18.2628 -171.5091,138.9062 -303.495,96.0063 -151.6996,-49.3075 -298.2063,-266.6601 -317.9476,-302.7343 -19.7113,-36.0191 308.9688,-30.5573 459.4811,-55.0252 126.263,-20.5259 261.0937,156.8085 261.0937,156.8085"
         inkscape:path-effect="#path-effect4141-5-7-6"
         id="path4139-0-3-8"
         d="m 490.11393,2477.4471 c -47.55348,-14.3048 -91.26602,-41.174 -125.50239,-77.1439 -34.23637,-35.9698 -58.91554,-80.9552 -70.85598,-129.1567 -11.94045,-48.2015 -11.1139,-99.5051 2.37308,-147.2969 13.48698,-47.7919 39.60247,-91.9589 74.97979,-126.8072 37.20395,-36.6476 84.55539,-62.8619 135.33145,-75.0675 50.77606,-12.2055 104.832,-10.3836 154.71058,5.0861 55.60264,17.245 105.81198,51.4751 142.18127,96.9318 36.36929,45.4568 58.74887,101.9531 63.37381,159.9846 4.62494,58.0315 -8.52379,117.3593 -37.23418,168.0027 -28.71039,50.6434 -72.86428,92.394 -125.03365,118.2281 l 965.48849,2.6887 c -61.7611,-4.8864 -122.1613,-26.0551 -173.4602,-60.7933 -51.2989,-34.7381 -93.3765,-82.9644 -120.8404,-138.4986 -40.9421,-82.7881 -48.4584,-180.4906 -26.2782,-270.1464 22.1802,-89.6559 73.0333,-171.1426 139.8377,-234.918 121.4508,-115.9442 298.8875,-172.212 464.0293,-141.855 82.5708,15.1786 161.3457,51.0716 226.4944,104.0242 65.1487,52.9526 116.4768,122.9111 146.7161,201.2304 51.5394,133.4861 39.8764,285.9199 -11.5212,419.4607 -51.3975,133.5408 -139.9236,249.9744 -239.5786,352.657 -109.7426,113.0767 -234.798,212.0941 -373.9117,286.102 -94.3919,50.2161 -196.7954,89.1736 -303.495,96.0063 -43.6507,2.7953 -87.8533,0.1363 -130.2595,-10.5834 -42.4061,-10.7197 -83.0123,-29.6629 -116.8025,-57.4372 -33.7903,-27.7743 -60.5605,-64.5749 -74.0527,-106.1821 -13.4921,-41.6072 -13.2395,-87.9851 3.1671,-128.5316 16.3258,-40.3468 48.0338,-73.6338 85.9316,-95.0383 37.8978,-21.4044 81.6797,-31.3283 125.1993,-31.9853 87.0393,-1.314 170.4879,33.075 248.3502,71.9984 90.8973,45.4397 178.2752,97.9174 261.0937,156.8085"
         style="fill:none;fill-rule:evenodd;stroke:#000000;stroke-width:140;stroke-linecap:round;stroke-linejoin:round;stroke-miterlimit:4;stroke-dasharray:none;stroke-opacity:1" />
    </g>
  </g>
</svg>
