<?xml version="1.0" encoding="UTF-8" standalone="no"?>
<!-- Created with Inkscape (http://www.inkscape.org/) -->

<svg
   xmlns:dc="http://purl.org/dc/elements/1.1/"
   xmlns:cc="http://creativecommons.org/ns#"
   xmlns:rdf="http://www.w3.org/1999/02/22-rdf-syntax-ns#"
   xmlns:svg="http://www.w3.org/2000/svg"
   xmlns="http://www.w3.org/2000/svg"
   xmlns:sodipodi="http://sodipodi.sourceforge.net/DTD/sodipodi-0.dtd"
   xmlns:inkscape="http://www.inkscape.org/namespaces/inkscape"
   width="2000"
   height="2048"
   id="svg2992"
   version="1.1"
   inkscape:version="0.91pre2 r13516"
   sodipodi:docname="ഹു.svg">
  <defs
     id="defs5498">
    <inkscape:path-effect
       is_visible="true"
       id="path-effect4222"
       effect="spiro" />
    <inkscape:path-effect
       is_visible="true"
       id="path-effect4199"
       effect="spiro" />
    <inkscape:path-effect
       is_visible="true"
       id="path-effect4195"
       effect="spiro" />
    <inkscape:path-effect
       is_visible="true"
       id="path-effect4191"
       effect="spiro" />
    <inkscape:path-effect
       is_visible="true"
       id="path-effect3782"
       effect="spiro" />
    <inkscape:path-effect
       is_visible="true"
       id="path-effect3846"
       effect="spiro" />
    <inkscape:path-effect
       is_visible="true"
       id="path-effect3801"
       effect="spiro" />
    <inkscape:path-effect
       is_visible="true"
       id="path-effect3846-8"
       effect="spiro" />
    <inkscape:path-effect
       is_visible="true"
       id="path-effect3801-4"
       effect="spiro" />
    <inkscape:path-effect
       is_visible="true"
       id="path-effect3846-4"
       effect="spiro" />
    <inkscape:path-effect
       is_visible="true"
       id="path-effect3801-2"
       effect="spiro" />
    <inkscape:path-effect
       is_visible="true"
       id="path-effect4148"
       effect="spiro" />
    <inkscape:path-effect
       is_visible="true"
       id="path-effect4141-5"
       effect="spiro" />
    <inkscape:path-effect
       is_visible="true"
       id="path-effect4141-5-7"
       effect="spiro" />
    <inkscape:path-effect
       is_visible="true"
       id="path-effect4141-5-7-9"
       effect="spiro" />
  </defs>
  <sodipodi:namedview
     inkscape:window-height="853"
     inkscape:window-width="1600"
     inkscape:pageshadow="2"
     inkscape:pageopacity="0.0"
     borderopacity="1.0"
     bordercolor="#666666"
     pagecolor="#ffffff"
     id="base"
     showgrid="true"
     showguides="true"
     inkscape:guide-bbox="true"
     inkscape:zoom="0.227"
     inkscape:cx="1143.3018"
     inkscape:cy="787.76588"
     inkscape:window-x="1598"
     inkscape:window-y="-3"
     inkscape:current-layer="layer1-7"
     inkscape:window-maximized="1"
     inkscape:snap-grids="false">
    <sodipodi:guide
       orientation="horizontal"
       position="0,600"
       id="guide5596" />
    <inkscape:grid
       type="xygrid"
       id="grid3769"
       empspacing="3"
       visible="true"
       enabled="true"
       snapvisiblegridlinesonly="true"
       spacingx="4px"
       units="px"
       dotted="true"
       spacingy="4px" />
    <sodipodi:guide
       orientation="0,1"
       position="-1040,1600"
       id="guide2985" />
  </sodipodi:namedview>
  <metadata
     id="metadata5594">
    <rdf:RDF>
      <cc:Work
         rdf:about="">
        <dc:format>image/svg+xml</dc:format>
        <dc:type
           rdf:resource="http://purl.org/dc/dcmitype/StillImage" />
        <dc:title />
      </cc:Work>
    </rdf:RDF>
  </metadata>
  <g
     inkscape:label="Layer 1"
     inkscape:groupmode="layer"
     id="layer1"
     transform="translate(0,1048)">
    <g
       id="layer1-5"
       inkscape:label="Layer 1"
       transform="translate(24.987319,25.339789)">
      <g
         transform="translate(9.8717383,-66.184927)"
         id="layer1-4"
         inkscape:label="Layer 1">
        <g
           transform="translate(1138.3105,47.019258)"
           id="layer1-9"
           inkscape:label="Layer 1" />
        <g
           transform="translate(1669.1096,32.086007)"
           id="layer1-6"
           inkscape:label="Layer 1" />
        <g
           transform="translate(25.895786,72.958614)"
           id="layer1-2"
           inkscape:label="Layer 1">
          <g
             transform="translate(-835.2801,-814.95552)"
             id="layer1-7"
             inkscape:label="Layer 1">
            <path
               style="color:#000000;font-style:normal;font-variant:normal;font-weight:normal;font-stretch:normal;font-size:medium;line-height:normal;font-family:sans-serif;text-indent:0;text-align:start;text-decoration:none;text-decoration-line:none;text-decoration-style:solid;text-decoration-color:#000000;letter-spacing:normal;word-spacing:normal;text-transform:none;direction:ltr;block-progression:tb;writing-mode:lr-tb;baseline-shift:baseline;text-anchor:start;clip-rule:nonzero;display:inline;overflow:visible;visibility:visible;opacity:1;isolation:auto;mix-blend-mode:normal;color-interpolation:sRGB;color-interpolation-filters:linearRGB;solid-color:#000000;solid-opacity:1;fill:#000000;fill-opacity:1;fill-rule:evenodd;stroke:none;stroke-width:140;stroke-linecap:round;stroke-linejoin:round;stroke-miterlimit:4;stroke-dasharray:none;stroke-dashoffset:0;stroke-opacity:1;color-rendering:auto;image-rendering:auto;shape-rendering:auto;text-rendering:auto;enable-background:accumulate"
               d="m 2449.127,217.69727 c -40.4722,0.29682 -80.9965,4.82528 -120.8145,13.79882 -106.327,23.96229 -205.1483,79.3294 -279.7637,160.27149 -66.95,72.62676 -112.8072,164.32271 -128.1367,263.09961 -15.3574,98.95649 0.641,202.1524 48.3418,291.53125 18.7008,35.04038 42.0801,67.01476 68.9434,95.53316 l -500.9844,-1.3945 c 2.9386,-4.6705 5.8091,-9.3892 8.5371,-14.2012 35.7554,-63.07048 51.8771,-135.81423 46.1172,-208.0859 -5.7598,-72.27162 -33.1984,-141.54311 -78.4922,-198.1543 -45.2938,-56.61121 -106.8588,-98.58198 -176.1055,-120.05859 -62.0603,-19.24777 -128.5141,-21.5033 -191.8066,-6.28906 -63.306,15.2175 -121.6244,47.48525 -168.09376,93.25976 -44.17333,43.5128 -76.3843,97.98951 -93.22461,157.66407 -16.84032,59.67455 -17.86041,122.95457 -2.95117,183.14062 14.90924,60.18605 45.34889,115.6728 88.09766,160.5859 42.74868,44.9133 96.66608,78.0546 156.04298,95.9161 a 70.007,70.007 0 1 0 40.3281,-134.0665 c -35.7301,-10.7481 -69.2388,-31.3445 -94.9629,-58.37105 -25.724,-27.02642 -44.6416,-61.51153 -53.6133,-97.72851 -8.9716,-36.217 -8.3387,-75.54396 1.795,-111.45313 10.1336,-35.90917 30.153,-69.76537 56.7343,-95.94922 27.9385,-27.52074 64.3224,-47.68142 102.5684,-56.875 38.2597,-9.19684 79.9184,-7.80871 117.6152,3.88282 41.9585,13.01328 80.8131,39.5024 108.2578,73.80468 27.4448,34.30233 44.7639,78.02312 48.2539,121.81446 3.4901,43.79128 -6.6843,89.7036 -28.3496,127.91992 -21.6652,38.21624 -55.8353,70.52473 -95.2031,90.01953 a 70.007,70.007 0 0 0 30.8692,132.7305 l 965.4882,2.6875 a 70.007,70.007 0 0 0 7.8731,-139.5762 c -98.3975,-10.8596 -193.6125,-75.33842 -240.2227,-162.67383 -32.5263,-60.94589 -44.2835,-134.72125 -33.5097,-204.14258 10.8015,-69.6009 44.1879,-137.02532 92.7285,-189.68164 54.1974,-58.79287 128.5332,-100.7659 207.6054,-118.58594 79.2179,-17.85284 164.8604,-12.20388 242.6407,14.7168 77.8989,26.96178 149.3485,75.44385 205.2011,137.57422 55.9221,62.20766 97.1167,138.74627 120.25,220.29687 22.7947,80.35664 27.6245,165.43453 10.2266,244.125 -17.3185,78.332 -57.87,152.1777 -114.916,207.4297 -57.0466,55.2524 -132.5242,93.7885 -213.0195,113.2402 -80.7268,19.5078 -169.688,20.7295 -262.7754,19.9531 l -1070.7676,-8.9296 c -63.3827,-0.5287 -136.2498,-2.439 -211.1211,22.4922 -37.7276,12.5628 -74.94471,32.0646 -107.01172,61.0488 -32.29733,29.1922 -57.82192,66.8293 -71.01954,110.7773 -13.26865,44.1847 -12.99293,91.5557 1.85547,135.9668 14.84325,44.3955 42.95116,81.948 78.96289,109.3828 35.7836,27.261 76.4266,42.5001 116.2422,49.9903 39.5862,7.447 76.0338,7.1536 108.1113,6.9882 l 1826.7207,-9.4179 a 70.007,70.007 0 1 0 -0.7207,-139.9981 l -1826.7226,9.418 c -31.3501,0.1616 -58.7571,-0.2966 -81.5059,-4.5762 -22.5197,-4.2364 -42.6139,-12.5925 -57.2852,-23.7695 -14.4429,-11.0031 -25.7582,-26.6505 -31.0273,-42.4102 -5.264,-15.7443 -5.521,-34.7448 -0.5469,-51.3086 5.0452,-16.8003 16.0542,-33.8422 30.8125,-47.1816 14.9886,-13.5476 34.9131,-24.6038 57.3653,-32.0801 45.488,-15.1469 102.2529,-15.8575 165.7226,-15.3281 l 1070.7676,8.9316 c 94.5277,0.7885 195.1827,0.6957 296.8281,-23.8671 101.8771,-24.6187 199.8109,-73.48 277.5352,-148.7598 77.7248,-75.2804 131.03,-172.904 154.2148,-277.7695 23.1058,-104.50713 16.1673,-212.41143 -12.2402,-312.55473 -28.7313,-101.28452 -79.6897,-196.55579 -150.8223,-275.68359 -71.2021,-79.20512 -161.8266,-141.08271 -263.5234,-176.28125 -63.6349,-22.02478 -130.9409,-33.28377 -198.3945,-32.78906 z"
               id="path4139-0-3"
               inkscape:connector-curvature="0" />
            <path
               sodipodi:nodetypes="cssccsssscsc"
               inkscape:connector-curvature="0"
               inkscape:original-d="m 1111.5681,2906.7188 c 0,0 -288.27855,-402.806 -119.00545,-480.4047 169.27315,-77.5995 -166.9568,-29.1144 290.04195,-69.9814 456.9977,-40.8669 -305.55965,43.4157 43.2873,543.1472 l 965.4884,2.6887 c 0,0 -150.3007,-7.2919 -294.3006,-199.2919 -182.1472,-242.8629 -170.4933,-458.2274 69.5066,-474.2274 240,-16 990.5085,-197.6576 894.5086,282.3424 -70.1391,350.6954 -494.4153,675.1341 -648.4108,673.8497 l -1070.7676,-8.9309 c -316.65875,-7.3495 -684.47715,359.7486 -83.7583,356.6513 l 1826.7215,-9.4185"
               inkscape:path-effect="#path-effect4141-5-7-9"
               id="path4139-0-3-8"
               d="m 1111.5681,2906.7188 c -47.5535,-14.3048 -91.266,-41.174 -125.50238,-77.1439 -34.23637,-35.9698 -58.91553,-80.9552 -70.85597,-129.1567 -11.94043,-48.2015 -11.11388,-99.5051 2.3731,-147.2969 13.48699,-47.7919 39.60248,-91.9589 74.9798,-126.8072 37.20395,-36.6476 84.55535,-62.8619 135.33145,-75.0674 50.776,-12.2056 104.8319,-10.3836 154.7105,5.086 55.6026,17.2449 105.812,51.4751 142.1813,96.9318 36.3693,45.4568 58.7489,101.9531 63.3738,159.9846 4.625,58.0315 -8.5238,117.3593 -37.2341,168.0027 -28.7104,50.6434 -72.8643,92.394 -125.0337,118.2281 l 965.4884,2.6887 c -122.5146,-13.5213 -236.2663,-90.5507 -294.3006,-199.2919 -40.1136,-75.1624 -53.9909,-163.6478 -40.9253,-247.8367 13.0655,-84.1889 52.6866,-163.7492 110.4319,-226.3907 64.4064,-69.8675 150.9856,-118.5373 243.6852,-139.4285 92.6996,-20.8911 191.127,-14.2267 280.925,16.8535 89.798,31.0801 170.8347,86.2596 234.3621,156.9273 63.5273,70.6678 109.604,156.5725 135.5363,247.9901 25.6011,90.25 31.4846,186.7418 11.2328,278.3406 -20.2518,91.5988 -67.1797,177.3332 -134.5651,242.5994 -67.3855,65.2661 -154.091,108.9646 -245.2772,130.9998 -91.1861,22.0353 -185.9937,22.6923 -279.8013,21.9099 l -1070.7676,-8.9309 c -63.4262,-0.529 -128.2426,-1.1287 -188.4223,18.9103 -30.0899,10.0196 -58.66064,25.2994 -82.18842,46.5653 -23.52779,21.2658 -41.79416,48.6045 -50.91554,78.9787 -9.12137,30.3742 -8.85547,63.5608 1.20071,93.6385 10.05618,30.0776 29.76739,56.6768 54.99478,75.8958 25.22737,19.219 55.59567,31.017 86.76327,36.8803 31.1675,5.8633 63.0954,5.9459 94.8092,5.7824 l 1826.7215,-9.4185"
               style="fill:none;fill-rule:evenodd;stroke:#000000;stroke-width:140;stroke-linecap:round;stroke-linejoin:round;stroke-miterlimit:4;stroke-dasharray:none;stroke-opacity:1" />
          </g>
        </g>
      </g>
    </g>
  </g>
</svg>
