<?xml version="1.0" encoding="UTF-8" standalone="no"?>
<!-- Created with Inkscape (http://www.inkscape.org/) -->

<svg
   xmlns:dc="http://purl.org/dc/elements/1.1/"
   xmlns:cc="http://creativecommons.org/ns#"
   xmlns:rdf="http://www.w3.org/1999/02/22-rdf-syntax-ns#"
   xmlns:svg="http://www.w3.org/2000/svg"
   xmlns="http://www.w3.org/2000/svg"
   xmlns:sodipodi="http://sodipodi.sourceforge.net/DTD/sodipodi-0.dtd"
   xmlns:inkscape="http://www.inkscape.org/namespaces/inkscape"
   width="2000"
   height="2048"
   id="svg2992"
   version="1.1"
   inkscape:version="0.91 r13725"
   sodipodi:docname="ഹ്നൂ.svg">
  <defs
     id="defs5498">
    <inkscape:path-effect
       is_visible="true"
       id="path-effect4222"
       effect="spiro" />
    <inkscape:path-effect
       is_visible="true"
       id="path-effect4199"
       effect="spiro" />
    <inkscape:path-effect
       is_visible="true"
       id="path-effect4195"
       effect="spiro" />
    <inkscape:path-effect
       is_visible="true"
       id="path-effect4191"
       effect="spiro" />
    <inkscape:path-effect
       is_visible="true"
       id="path-effect3782"
       effect="spiro" />
    <inkscape:path-effect
       is_visible="true"
       id="path-effect3846"
       effect="spiro" />
    <inkscape:path-effect
       is_visible="true"
       id="path-effect3801"
       effect="spiro" />
    <inkscape:path-effect
       is_visible="true"
       id="path-effect3846-8"
       effect="spiro" />
    <inkscape:path-effect
       is_visible="true"
       id="path-effect3801-4"
       effect="spiro" />
    <inkscape:path-effect
       is_visible="true"
       id="path-effect3846-4"
       effect="spiro" />
    <inkscape:path-effect
       is_visible="true"
       id="path-effect3801-2"
       effect="spiro" />
    <inkscape:path-effect
       effect="spiro"
       id="path-effect4141-5-7-6-5"
       is_visible="true" />
    <inkscape:path-effect
       effect="spiro"
       id="path-effect4372-5-0-7-0-2-2"
       is_visible="true" />
    <inkscape:path-effect
       effect="spiro"
       id="path-effect4372-5-0-7-0-2-2-0"
       is_visible="true" />
    <inkscape:path-effect
       effect="spiro"
       id="path-effect4372-5-0-7-0-2-2-0-1"
       is_visible="true" />
    <inkscape:path-effect
       effect="spiro"
       id="path-effect4372-5-0-7-0-2-2-0-7"
       is_visible="true" />
    <inkscape:path-effect
       effect="spiro"
       id="path-effect4372-5-0-7-0-2-2-0-1-0"
       is_visible="true" />
    <inkscape:path-effect
       effect="spiro"
       id="path-effect4372-5-0-7-0-2-2-0-7-6"
       is_visible="true" />
  </defs>
  <sodipodi:namedview
     inkscape:window-height="843"
     inkscape:window-width="1600"
     inkscape:pageshadow="2"
     inkscape:pageopacity="0.0"
     borderopacity="1.0"
     bordercolor="#666666"
     pagecolor="#ffffff"
     id="base"
     showgrid="true"
     showguides="true"
     inkscape:guide-bbox="true"
     inkscape:zoom="0.32102648"
     inkscape:cx="4451.2988"
     inkscape:cy="1135.3597"
     inkscape:window-x="1600"
     inkscape:window-y="0"
     inkscape:current-layer="layer1-4"
     inkscape:window-maximized="1"
     inkscape:snap-grids="false">
    <sodipodi:guide
       orientation="horizontal"
       position="0,600"
       id="guide5596" />
    <inkscape:grid
       type="xygrid"
       id="grid3769"
       empspacing="3"
       visible="true"
       enabled="true"
       snapvisiblegridlinesonly="true"
       spacingx="4px"
       units="px"
       dotted="true"
       spacingy="4px" />
    <sodipodi:guide
       orientation="0,1"
       position="-1040,1600"
       id="guide2985" />
    <sodipodi:guide
       position="4176.2115,1710"
       orientation="0,1"
       id="guide4161"
       inkscape:label=""
       inkscape:color="rgb(0,0,255)" />
  </sodipodi:namedview>
  <metadata
     id="metadata5594">
    <rdf:RDF>
      <cc:Work
         rdf:about="">
        <dc:format>image/svg+xml</dc:format>
        <dc:type
           rdf:resource="http://purl.org/dc/dcmitype/StillImage" />
        <dc:title />
      </cc:Work>
    </rdf:RDF>
  </metadata>
  <g
     inkscape:label="Layer 1"
     inkscape:groupmode="layer"
     id="layer1"
     transform="translate(0,1048)">
    <g
       id="layer1-5"
       inkscape:label="Layer 1"
       transform="translate(24.987319,25.339789)">
      <g
         transform="translate(9.8717383,-66.184927)"
         id="layer1-4"
         inkscape:label="Layer 1">
        <g
           transform="translate(1138.3105,47.019258)"
           id="layer1-9"
           inkscape:label="Layer 1" />
        <g
           transform="translate(1669.1096,32.086007)"
           id="layer1-6"
           inkscape:label="Layer 1" />
        <path
           style="color:#000000;font-style:normal;font-variant:normal;font-weight:normal;font-stretch:normal;font-size:medium;line-height:normal;font-family:sans-serif;text-indent:0;text-align:start;text-decoration:none;text-decoration-line:none;text-decoration-style:solid;text-decoration-color:#000000;letter-spacing:normal;word-spacing:normal;text-transform:none;direction:ltr;block-progression:tb;writing-mode:lr-tb;baseline-shift:baseline;text-anchor:start;white-space:normal;clip-rule:nonzero;display:inline;overflow:visible;visibility:visible;opacity:1;isolation:auto;mix-blend-mode:normal;color-interpolation:sRGB;color-interpolation-filters:linearRGB;solid-color:#000000;solid-opacity:1;fill:#000000;fill-opacity:1;fill-rule:evenodd;stroke:none;stroke-width:140;stroke-linecap:round;stroke-linejoin:round;stroke-miterlimit:4;stroke-dasharray:none;stroke-dashoffset:0;stroke-opacity:1;color-rendering:auto;image-rendering:auto;shape-rendering:auto;text-rendering:auto;enable-background:accumulate"
           d="m 1425.0781,-554.62109 c -120.6922,-2.87488 -239.0066,41.66218 -328.7383,121.33593 -89.6122,79.56767 -147.10761,190.59001 -162.40425,308.70899 -20.17563,155.794213 34.98623,315.70209 146.44335,426.20508 l -354.77734,-1.19922 c 2.31757,-3.58171 4.5895,-7.19698 6.78125,-10.86719 C 770.4628,225.79559 787.85366,151.32416 781.95312,77.287109 776.05257,3.2500492 747.08595,-67.524537 699.38672,-124.45508 651.68749,-181.38563 587.07696,-222.29749 515.2168,-241.07031 426.27433,-264.30573 330.91681,-252.25195 250.55273,-207.61719 170.18866,-162.98243 109.56149,-88.399584 82.28125,-0.61328125 55.001012,87.17302 62.678515,182.98075 103.58984,265.30273 144.50118,347.62471 216.23143,411.60121 302.67773,442.86914 A 70.007,70.007 0 1 0 350.29688,311.2168 C 298.84162,292.60525 253.31251,251.99839 228.96094,202.99805 204.60937,153.99769 199.73665,93.184505 215.97461,40.931641 c 16.23796,-52.252864 54.71974,-99.592296 102.55469,-126.160157 47.83495,-26.567864 108.35974,-34.217084 161.30078,-20.386714 43.10854,11.261714 83.62963,36.917986 112.24414,71.070308 28.61451,34.15233066 46.7806,78.540634 50.32031,122.955078 3.5397,44.414444 -7.36696,91.119634 -30.21094,129.373044 -22.84399,38.25344 -58.78967,70.00373 -99.57031,87.95118 a 70.007,70.007 0 0 0 27.96094,134.07031 l 821.32418,2.77734 c 52.2318,8.05019 105.7896,8.2613 158.5918,-0.43164 a 70.007,70.007 0 0 0 -11.1347,-139.07031 l -132.6426,-0.44922 c -72.7035,-12.85835 -142.3655,-46.6439 -194.627,-97.13867 -81.1748,-78.43066 -123.8069,-200.1478505 -109.3105,-312.08789 10.9261,-84.37053 53.4493,-166.00296 116.5176,-222.00196 62.9487,-55.8929 149.0209,-88.0498 232.4511,-86.0625 47.8975,1.14092 95.5913,13.18061 136.8848,35.18164 41.1712,21.93581 77.3563,54.71594 103.6094,93.64844 26.2732,38.9623 43.799,85.80049 52.6875,135.18946 8.9044,49.47793 9.4679,103.892439 9.1152,161.830073 l -2.25,369.453127 a 70.007,70.007 0 0 0 139.9961,0.99804 l 0,-0.14648 0,-0.35937 3.0293,-370.160161 c 0.4296,-52.514562 1.5856,-101.778744 9.5527,-146.648439 7.9599,-44.82884 22.9679,-87.48216 45.2754,-124.04297 43.9796,-72.07986 123.4353,-125.14872 208.9864,-143.13281 110.7464,-23.28054 234.9906,7.62639 325.6445,78.29102 29.0818,22.6692 55.0788,49.56609 77.5254,79.42187 -37.0856,-4.56552 -74.8575,-4.45802 -112.3574,0.91016 -93.0841,13.32517 -180.742,58.32813 -244.4297,129.29687 -74.2671,82.75741 -111.2466,197.442324 -89.8379,309.81641 10.6487,55.89524 35.3518,108.89273 72.8672,152.83203 37.5816,44.01693 86.878,77.50239 142.8867,95.23242 68.1924,21.58691 140.738,18.12535 205.9785,-5.32031 64.9335,-23.33536 120.3249,-65.34789 162.0352,-117.46875 41.567,-51.94166 68.7948,-112.65605 83.1093,-175.28906 5.2388,-22.92193 8.712,-46.002065 10.6719,-69.066409 26.7978,53.970379 40.4591,115.565899 39.6973,176.929689 -0.9031,72.74056 -21.786,145.94837 -59.3946,208.21875 l 0,0 c -37.6086,62.27038 -92.6824,114.82758 -156.6426,149.48437 -63.9601,34.65679 -138.0643,52.09369 -210.7676,49.59571 -72.7032,-2.49799 -145.4345,-24.98027 -206.8652,-63.94532 a 70.007,70.007 0 1 0 -74.9883,118.22266 c 82.8304,52.53869 179.0172,82.27245 277.0469,85.64062 98.0298,3.36817 196.0305,-19.69417 282.2715,-66.42382 86.241,-46.72963 159.0734,-116.23479 209.7832,-200.19727 50.7096,-83.96251 78.3272,-180.7774 79.5449,-278.85742 1.1094,-89.35961 -19.7493,-179.220547 -63.3828,-258.7753912 -36.0495,-65.7271158 -87.158,-123.1232388 -149.5176,-165.7753888 -36.8108,-103.30462 -101.4424,-196.51795 -189.166,-264.89844 -123.1129,-95.96647 -286.0201,-137.3581 -440.5156,-104.88086 -121.7486,25.59335 -233.3425,98.47231 -299.6953,207.2207 -0.4801,0.78684 -0.8964,1.59958 -1.3711,2.38868 -6.3321,-11.495 -13.0262,-22.84354 -20.4531,-33.85743 -39.0574,-57.92074 -91.9285,-105.93829 -153.8536,-138.93164 -61.8024,-32.92812 -130.4972,-49.94509 -199.3828,-51.58593 z m 1060.7344,446.33593 c 43.054,1.1156 86.442,12.041545 125.5254,31.138676 4.2394,17.158656 7.6077,34.510219 9.8008,51.986328 5.9302,47.255472 4.5349,94.66123 -5.5625,138.841796 -10.0643,44.03576 -29.1352,85.5164 -55.9356,119.00586 -26.6569,33.31024 -62.038,59.52348 -100.0761,73.19336 -37.7313,13.55958 -80.2542,15.03327 -116.379,3.59766 -29.7525,-9.41843 -57.8392,-28.27067 -78.6679,-52.66602 -20.8951,-24.47298 -35.6245,-55.6539 -41.8106,-88.125 -12.2611,-64.35857 10.6105,-138.969139 56.5059,-190.111328 40.2355,-44.835341 99.1289,-75.490675 160.0723,-84.214842 15.2953,-2.18956 30.8821,-3.05188 46.5273,-2.64649 z"
           id="path4370-9-0-9-5-7-5"
           inkscape:connector-curvature="0" />
        <path
           style="fill:none;fill-rule:evenodd;stroke:#000000;stroke-width:69.99999237;stroke-linecap:round;stroke-linejoin:round;stroke-miterlimit:4;stroke-dasharray:none;stroke-opacity:1"
           d="m -1188.1648,555.18719 c 75.7348,51.79789 165.573,82.75432 257.14015,88.60536 91.56718,5.85104 184.61477,-13.4192 266.32637,-55.15644 81.7116,-41.73724 151.86537,-105.82816 200.7983,-183.44486 48.93293,-77.61669 76.51217,-168.54843 78.93895,-260.27026 2.23897,-84.623352 -16.98282,-170.01966 -57.33622,-244.435569 -40.35341,-74.415911 -101.97778,-137.507031 -176.54915,-177.572421 -74.57138,-40.06538 -161.93481,-56.62828 -245.69437,-44.36205 -83.75957,12.26623 -163.33323,53.69216 -219.74813,116.80703 -65.096,72.82696 -97.6266,175.52244 -79.4521,271.496072 9.0873,47.986818 30.4358,93.718668 62.1094,130.895198 31.6736,37.17654 73.6725,65.62846 120.23558,80.36582 56.60381,17.91527 119.04868,15.18534 174.8968,-4.96252 55.84812,-20.14786 105.0445,-57.24813 142.06496,-103.66401 37.02047,-46.41587 62.04992,-101.907319 75.20448,-159.8029662 13.15456,-57.8956468 14.62013,-118.1577738 7.21966,-177.0660238 -18.32372,-145.85802 -93.45762,-284.91677 -209.23567,-375.50244 -115.77805,-90.58567 -271.53001,-130.06276 -415.37371,-99.74254 -112.4831,23.70984 -216.0235,92.30528 -275.7469,190.52804 -29.8617,49.11138 -48.8997,104.3895 -58.9129,160.98795 -10.0132,56.59844 -11.0242,114.35346 -11.4932,171.82892 l -3.286,402.66844 2.4367,-401.34865 c 0.3861,-63.60213 0.1834,-127.57468 -10.7862,-190.22488 -10.9697,-62.65021 -32.8099,-123.81982 -67.9203,-176.85414 -35.1104,-53.03432 -83.2951,-97.46721 -139.4506,-127.3326 -56.1555,-29.86539 -119.8968,-45.09835 -183.4988,-44.68904 -107.1,0.68924 -212.6656,46.44276 -288.5289,122.04455 -75.8633,75.60179 -121.7549,179.82479 -129.3122,286.66001 -9.4557,133.67185 41.3341,269.764577 133.3681,367.16742 96.422,102.04681 236.9921,160.8662 377.3557,157.89872 l -1049.3715,-5.55807 c 59.1111,-25.95875 109.8116,-70.68561 142.9394,-126.09793 33.1278,-55.412323 48.5245,-121.245252 43.4078,-185.602031 -5.1167,-64.356779 -30.7224,-126.929799 -72.1898,-176.411419 -41.4674,-49.48161 -98.5983,-85.6353 -161.0686,-101.9277 -77.0711,-20.10034 -161.7347,-9.3582 -231.3438,29.35298 -69.6091,38.71119 -123.4003,104.96684 -146.985,181.0441 -23.5846,76.077272 -16.7039,161.141736 18.8015,232.43936 35.5054,71.29762 99.2461,128.0464 174.1721,155.0665"
           id="path4370-9-0-9-5-7-5-5"
           inkscape:path-effect="#path-effect4372-5-0-7-0-2-2-0-1"
           inkscape:original-d="m -1188.1648,555.18719 c -5.967,-34.554 804.51274,-109.62998 803.20377,-410.2662 -1.13468,-260.6066 -493.44519,-509.52284 -699.32787,-349.56301 -129.7453,100.80526 -55.7107,440.32794 102.89288,482.75709 192.4358,51.47984 418.2254,-246.739116 399.3859,-445.49552 -24.7244,-260.8432 -366.904,-519.0654 -624.60938,-475.24498 -205.8637,35.00526 -346.5517,435.73209 -346.153,523.34491 l -3.286,402.66844 2.4367,-401.34865 c 15.6226,-230.15601 -178.2459,-521.62495 -401.6559,-539.10066 -194.2372,-15.19374 -444.0138,127.13389 -417.8411,408.70456 13.5544,182.066576 -2.4133,297.222194 133.3681,367.16742 113.4318,58.43224 377.3557,157.89872 377.3557,157.89872 l -1049.3715,-5.55807 c 0,0 148.7082,-568.20616 -46.9112,-590.03908 -206.9211,-23.09437 -185.3552,597.90294 -185.3552,597.90294"
           inkscape:connector-curvature="0"
           sodipodi:nodetypes="caaaaacccacsccac" />
        <path
           style="fill:none;fill-rule:evenodd;stroke:#000000;stroke-width:140;stroke-linecap:round;stroke-linejoin:round;stroke-miterlimit:4;stroke-dasharray:none;stroke-opacity:1"
           d="m 3133.918,2520.247 c 72.1305,45.7519 156.5891,71.8594 241.9556,74.7925 85.3665,2.9331 171.4179,-17.316 246.5185,-58.0092 75.1006,-40.6932 139.0543,-101.7242 183.2134,-174.8407 44.1592,-73.1164 68.4084,-158.1272 69.4688,-243.5375 0.9658,-77.7928 -17.349,-156.032 -54.7616,-224.2446 -37.4127,-68.2125 -94.0647,-126.0905 -162.5623,-162.9786 -68.4977,-36.8881 -148.7163,-52.3402 -225.7301,-41.3155 -77.0137,11.0247 -150.2892,48.8544 -202.2508,106.7564 -60.0812,66.9498 -90.0073,161.5967 -73.1724,249.963 8.4174,44.1832 28.1338,86.2724 57.339,120.4785 29.2052,34.2062 67.8972,60.3754 110.7778,73.9496 52.1586,16.5113 109.6921,14.0431 161.178,-4.4595 51.4858,-18.5026 96.8721,-52.6147 131.0557,-95.3303 34.1837,-42.7155 57.3327,-93.8139 69.5221,-147.1483 12.1895,-53.3344 13.5898,-108.8689 6.7776,-163.1527 -16.8743,-134.4649 -86.3954,-262.5748 -193.2788,-345.8904 -106.8834,-83.3155 -250.4586,-119.4645 -383.0796,-91.5856 -103.6498,21.7887 -199.176,84.7621 -254.3422,175.1762 -27.5831,45.2071 -45.1843,96.1221 -54.4427,148.2641 -9.2584,52.142 -10.1945,105.3572 -10.6277,158.313 l -3.0322,370.6673 2.2485,-369.4524 c 0.3555,-58.407 0.1257,-117.1701 -10.2197,-174.6547 -10.3454,-57.4846 -30.8874,-113.5019 -63.5427,-161.9286 -32.6552,-48.4266 -77.1833,-88.8256 -128.7314,-116.2901 -51.548,-27.4646 -109.7426,-41.9926 -168.1341,-43.3835 -102.0612,-2.4311 -204.255,35.9158 -280.5952,103.6991 -76.3403,67.7833 -126.3489,164.1112 -139.4603,265.356 -17.4722,134.9184 32.2536,276.8884 130.0915,371.4188 97.8379,94.5304 241.4334,139.3464 375.6714,117.2465 l -968.3074,-3.2753 c 54.3802,-23.9326 101.0107,-65.1222 131.4727,-116.1324 30.4619,-51.0101 44.6101,-111.5975 39.8899,-170.8232 -4.7201,-59.2258 -28.2859,-116.8074 -66.4428,-162.3488 -38.1569,-45.5415 -90.7228,-78.8254 -148.2071,-93.8427 -70.9417,-18.5329 -148.8833,-8.6815 -212.9828,26.9198 -64.0995,35.6013 -113.6544,96.5623 -135.4135,166.5819 -21.7591,70.0196 -15.4839,148.3302 17.1475,213.9914 32.6315,65.6612 91.2615,117.9532 160.2123,142.8929"
           id="path4370-9-0-9-5-7-5-5-4"
           inkscape:path-effect="#path-effect4372-5-0-7-0-2-2-0-7"
           inkscape:original-d="m 3133.918,2520.247 c -5.506,-31.8079 745.9322,-120.647 741.1563,-401.5949 -4.0854,-240.3266 -455.3265,-469.0297 -645.3048,-321.7823 -119.7225,92.794 -51.407,405.3339 94.9444,444.3911 177.5701,47.3886 385.9175,-227.1301 368.5334,-410.0908 -22.8145,-240.1133 -338.5607,-477.8139 -576.3584,-437.476 -189.9607,32.2233 -319.7805,401.1033 -319.4126,481.7533 l -3.0322,370.6673 2.2485,-369.4524 c 14.4158,-211.8649 -165.2872,-474.7765 -370.6279,-496.2569 -185.3717,-19.3914 -415.6434,182.7241 -420.0555,369.0551 -5.5493,234.3579 505.7629,488.6653 505.7629,488.6653 l -968.3074,-3.2753 c 0,0 137.2204,-523.0493 -43.2873,-543.1471 -190.9365,-21.259 -171.0365,550.386 -171.0365,550.386"
           inkscape:connector-curvature="0"
           sodipodi:nodetypes="caaaaacccaaccac" />
        <path
           style="color:#000000;font-style:normal;font-variant:normal;font-weight:normal;font-stretch:normal;font-size:medium;line-height:normal;font-family:sans-serif;text-indent:0;text-align:start;text-decoration:none;text-decoration-line:none;text-decoration-style:solid;text-decoration-color:#000000;letter-spacing:normal;word-spacing:normal;text-transform:none;direction:ltr;block-progression:tb;writing-mode:lr-tb;baseline-shift:baseline;text-anchor:start;white-space:normal;clip-rule:nonzero;display:inline;overflow:visible;visibility:visible;opacity:1;isolation:auto;mix-blend-mode:normal;color-interpolation:sRGB;color-interpolation-filters:linearRGB;solid-color:#000000;solid-opacity:1;fill:#000000;fill-opacity:1;fill-rule:evenodd;stroke:none;stroke-width:69.99999237;stroke-linecap:round;stroke-linejoin:round;stroke-miterlimit:4;stroke-dasharray:none;stroke-dashoffset:0;stroke-opacity:1;color-rendering:auto;image-rendering:auto;shape-rendering:auto;text-rendering:auto;enable-background:accumulate"
           d="m -2078.4746,636.8457 c -116.9195,0.75244 -230.6484,50.17645 -313.0098,132.25391 -82.2566,81.97305 -131.3715,193.79525 -139.5195,308.98049 -10.1962,144.1393 44.0452,289.1159 142.8418,393.6758 36.5021,38.6314 78.8053,71.2707 124.7812,97.3867 l -657.5078,-3.4824 c 22.8866,-21.7248 42.8645,-46.5318 59.1309,-73.7403 36.9419,-61.7921 53.9616,-134.5696 48.2558,-206.3359 -5.7058,-71.7664 -34.0123,-140.9387 -80.2539,-196.1172 -46.2416,-55.1786 -109.3979,-95.14627 -179.0605,-113.31446 -86.0742,-22.44838 -179.447,-10.60239 -257.1875,32.63086 -77.7405,43.2332 -137.0647,116.3053 -163.4043,201.2695 -26.3396,84.9642 -18.7507,178.7781 20.9023,258.4043 39.653,79.6262 109.9505,142.2123 193.6289,172.3887 a 35.003496,35.003496 0 1 0 23.7461,-65.8477 c -66.1735,-23.8637 -123.357,-74.7751 -154.7148,-137.7441 -31.3579,-62.9689 -37.5307,-139.2844 -16.7012,-206.4746 20.8296,-67.1903 69.0868,-126.6293 130.5645,-160.8184 61.4777,-34.1891 137.432,-43.8265 205.5,-26.0742 55.2778,14.4166 106.383,46.7564 143.0762,90.541 36.693,43.7847 59.5974,99.7579 64.125,156.7051 4.5275,56.9471 -9.245,115.8347 -38.5586,164.8672 -29.3138,49.0326 -74.6652,89.0416 -126.9707,112.0117 a 35.003496,35.003496 0 0 0 13.8867,67.0449 l 1049.3711,5.5586 0,-0.014 c 0.3088,-0.01 0.6169,0.012 0.9257,0.01 a 35.003496,35.003496 0 0 0 -0.5546,-69.9902 l -10.6465,-0.057 c -126.9105,-0.1168 -254.3101,-54.6522 -341.4551,-146.8808 -85.2714,-90.2457 -132.6098,-217.4559 -123.8945,-340.6602 6.9666,-98.48519 49.6354,-195.10731 119.1054,-264.33786 69.3653,-69.12612 166.7683,-111.20989 264.0489,-111.83594 57.8634,-0.37238 116.0205,13.56347 166.8379,40.58985 50.7773,27.0051 94.76,67.50488 126.7011,115.75195 31.9601,48.27582 52.3529,104.88169 62.6289,163.5703 10.2842,58.7354 10.6485,120.5913 10.2637,183.9766 l -2.4355,401.0644 -0,0.211 0,0.072 a 35.003496,35.003496 0 0 0 69.9981,0.4981 l 0,-0.072 3.2851,-402.5957 c 0.4672,-57.2564 1.5889,-113.0433 10.9609,-166.0176 9.3685,-52.954 27.1181,-104.10825 54.3536,-148.90036 54.152,-89.05991 149.665,-152.67095 253.0586,-174.46484 132.8549,-28.00394 278.9209,8.82111 386.58784,93.06054 60.34109,47.21135 109.1229,109.03226 143.42774,178.28516 -63.9756,-21.73937 -132.87361,-28.91042 -200.22656,-19.04688 -91.79362,13.44287 -178.52982,58.47768 -240.77152,128.11138 -72.1298,80.6963 -108.1906,193.3738 -87.7461,301.3339 10.1954,53.8389 34.0277,105.0277 69.8555,147.0801 35.8618,42.0924 83.1704,74.2162 136.3164,91.0371 64.6391,20.4585 134.60317,17.2234 197.33595,-5.4082 62.57773,-22.5757 116.77416,-63.6383 157.55078,-114.7636 40.7045,-51.035 67.76144,-111.3335 81.9707,-173.8711 14.19277,-62.4649 15.65805,-126.7793 7.81836,-189.1836 -0.45914,-3.6548 -1.11507,-7.2803 -1.64062,-10.9258 30.10225,29.1368 55.86433,62.9685 75.85742,99.8379 37.22488,68.6465 55.19962,148.1196 53.11719,226.8261 -2.25753,85.3246 -28.03853,170.3261 -73.5586,242.5293 -45.52007,72.2033 -111.10069,132.1151 -187.11328,170.9414 -76.01219,38.8257 -162.99163,56.8414 -248.1719,51.3985 -85.1807,-5.4429 -169.1606,-34.3812 -239.6133,-82.5664 a 35.003496,35.003496 0 1 0 -39.5175,57.7793 c 81.017,55.4106 176.7125,88.3854 274.666,94.6445 97.95358,6.2591 197.06788,-14.2678 284.4785,-58.916 87.41059,-44.6483 162.14054,-112.9191 214.48633,-195.9492 52.34577,-83.0301 81.72231,-179.8908 84.31836,-278.0098 2.39553,-90.5402 -18.0747,-181.8597 -61.55664,-262.0449 -38.52735,-71.0485 -94.89184,-132.419 -163.5,-175.7617 C -734.77315,928.18079 -801.62459,829.67829 -892.65039,758.45898 -1016.5396,661.5271 -1181.9781,619.39672 -1336.8105,652.0332 c -121.5727,25.62579 -233.1389,99.20619 -298.4336,206.5918 -15.0192,24.70098 -27.3294,50.7147 -37.3965,77.46094 -12.9124,-39.02222 -30.4328,-76.73428 -53.4746,-111.53906 -38.2797,-57.82158 -90.6676,-106.18839 -152.2012,-138.91407 -61.4937,-32.70442 -130.8176,-49.23335 -200.1582,-48.78711 z m 1139.03905,401.7285 c 62.46286,-1.1755 125.74234,14.3612 181.05274,44.0781 0.52167,0.2803 1.02847,0.5883 1.54883,0.8711 7.80076,26.9975 13.63007,54.5455 17.125,82.3653 6.96127,55.4121 5.49332,111.6229 -6.62305,164.9492 -12.09985,53.2537 -35.10106,103.9375 -68.4375,145.7344 -33.26432,41.7064 -77.45962,74.8443 -126.57813,92.5644 -48.96345,17.6642 -103.89054,19.8897 -152.45894,4.5176 -39.9803,-12.6539 -76.669,-37.4367 -104.1543,-69.6973 -27.5194,-32.3005 -46.3843,-72.5742 -54.3633,-114.709 -15.9047,-83.987 13.0962,-176.7005 71.1582,-241.6582 50.5881,-56.5961 122.9991,-94.4122 198.72459,-105.5019 14.21957,-2.0824 28.59136,-3.2424 43.00586,-3.5137 z"
           id="path4370-9-0-9-5-7-5-5-7"
           inkscape:connector-curvature="0" />
        <path
           style="color:#000000;font-style:normal;font-variant:normal;font-weight:normal;font-stretch:normal;font-size:medium;line-height:normal;font-family:sans-serif;text-indent:0;text-align:start;text-decoration:none;text-decoration-line:none;text-decoration-style:solid;text-decoration-color:#000000;letter-spacing:normal;word-spacing:normal;text-transform:none;direction:ltr;block-progression:tb;writing-mode:lr-tb;baseline-shift:baseline;text-anchor:start;white-space:normal;clip-rule:nonzero;display:inline;overflow:visible;visibility:visible;opacity:1;isolation:auto;mix-blend-mode:normal;color-interpolation:sRGB;color-interpolation-filters:linearRGB;solid-color:#000000;solid-opacity:1;fill:#000000;fill-opacity:1;fill-rule:evenodd;stroke:none;stroke-width:200;stroke-linecap:round;stroke-linejoin:round;stroke-miterlimit:4;stroke-dasharray:none;stroke-dashoffset:0;stroke-opacity:1;color-rendering:auto;image-rendering:auto;shape-rendering:auto;text-rendering:auto;enable-background:accumulate"
           d="m 4699.123,-669.97461 c -33.1151,0.48504 -66.15,4.34833 -98.5292,11.49414 -121.4711,26.80755 -228.205,98.32478 -301.2911,196.8125 -72.8848,98.21655 -109.2644,218.53123 -106.8574,339.04102 2.5858,129.4585398 49.8375,255.08835 132.6348,354.22265 l -350.043,-1.18359 c 28.5174,-60.85149 40.9282,-128.27378 35.5547,-195.697266 -6.4064,-80.38474 -37.6857,-156.815334 -89.4746,-218.626954 -51.7889,-61.81157 -121.5628,-105.9907 -199.584,-126.37305 -96.657,-25.25079 -199.4779,-12.2543 -286.8125,36.25196 -87.3346,48.50623 -152.7071,128.92751 -182.3535,224.328122 -29.6465,95.400622 -21.3699,198.707628 23.0898,288.169918 a 100.01,100.01 0 0 0 0,0 c 44.4599,89.46224 121.8036,158.44772 215.748,192.42774 a 100.01,100.01 0 1 0 68.0274,-188.07617 c -43.9572,-15.89947 -83.8707,-51.49928 -104.6739,-93.35938 -20.803,-41.86003 -25.0748,-95.172014 -11.2031,-139.8105456 13.8718,-44.6385404 47.6083,-86.1395524 88.4727,-108.8359374 40.8644,-22.696367 93.926,-29.404827 139.1523,-17.589847 36.9475,9.6522 72.3051,32.041214 96.8301,61.312503 24.5249,29.271238 40.3783,68.005512 43.4121,106.072266 3.0339,38.066559 -6.4834,78.821061 -26.0625,111.607421 -19.5792,32.7863 -50.9461,60.49261 -85.8984,75.875 a 100.01,100.01 0 0 0 39.9433,191.52734 l 968.3067,3.27539 a 100.01,100.01 0 0 0 11.9453,-199.32421 c -86.9156,-10.15616 -172.208,-54.01402 -231.0332,-118.79883 -58.8251,-64.784733 -94.274,-153.899204 -96.0215,-241.38867 -1.5356,-76.88207 22.7368,-155.53244 67.5059,-215.86133 44.5677,-60.05772 112.464,-104.95734 183.7851,-120.69727 50.8147,-11.21435 105.39,-8.36459 153.293,8.30078 47.7251,16.60349 91.9446,48.2342 123.9668,88.44922 32.1235,40.34224 54.5312,92.23861 65.8887,148 11.4055,55.99989 12.3545,119.763508 11.9316,189.248049 l -2.2422,368.638671 -0.01,0.60547 0,0 -0,0.20898 a 100.01,100.01 0 0 0 199.9942,1.42579 l 0,-0.20899 0,-0.11719 3.0293,-370.33984 c 0.4527,-55.332863 1.5728,-106.40104 8.793,-152.28711 7.2128,-45.83864 20.7518,-89.06032 40.9277,-126.2207 39.3897,-72.54858 113.3666,-129.71313 193.0254,-148.82422 51.7937,-12.42591 108.4655,-11.12954 161.2735,3.23437 52.9386,14.39946 103.6166,42.18338 145.9316,79.37305 19.3295,16.98828 36.9174,36.23564 52.7891,57.09961 -27.1912,-1.13222 -54.6009,0.0538 -81.9414,3.87695 -99.6234,13.93094 -193.2814,61.27381 -262.3516,136.92578 a 100.01,100.01 0 0 0 0,0.002 c -40.1019,43.92335 -71.0031,96.437479 -88.877,154.609372 -17.9087,58.28559 -22.2065,120.682883 -10.6542,181.949218 11.5784,61.40526 38.7348,119.55378 80.5214,167.83008 41.8947,48.40113 96.7556,84.77635 159.4375,103.31836 75.0499,22.20057 153.2534,16.61458 223.1368,-9.97656 69.4085,-26.41048 127.4796,-72.08424 171.2597,-127.59571 36.4171,-46.17555 61.7929,-97.28209 78.4473,-150.3457 4.0819,22.55359 6.0784,45.59068 5.8867,68.58398 -0.5616,67.37505 -19.8179,135.67427 -54.5332,193.41993 -34.7154,57.74571 -86.0023,106.78764 -145.2422,138.88671 -59.2398,32.09906 -128.3312,48.283 -195.664,45.83204 -67.3329,-2.45097 -135.0633,-23.6144 -191.8126,-59.93555 a 100.01,100.01 0 1 0 -107.8144,168.45117 c 87.3631,55.91487 188.6956,87.57841 292.3516,91.35156 103.6559,3.77316 207.0235,-20.43837 298.2207,-69.85351 91.1972,-49.41514 167.9283,-122.78869 221.3711,-211.68555 53.4426,-88.8969 82.2506,-191.07978 83.1152,-294.80078 0.7842,-94.08611 -21.4772,-188.573944 -67.9004,-272.601562 -34.4591,-62.371978 -81.6283,-117.588198 -138.8652,-160.929688 -32.8454,-115.58862 -95.9347,-222.97794 -188.8496,-304.63867 -64.4007,-56.60024 -141.3152,-99.24473 -225.4688,-122.13477 -84.2843,-22.92558 -174.0666,-25.44515 -260.4258,-4.72656 -118.1776,28.35222 -221.4791,99.79086 -290.8437,197.83398 -8.4665,-13.01029 -17.5629,-25.73156 -27.3848,-38.0664 -55.4726,-69.6651 -129.7711,-123.2107 -214.707,-152.75977 -52.9738,-18.4295 -108.3902,-27.00956 -163.5821,-26.20117 z m 1090.4356,553.11133 c 34.9955,1.00946 70.5687,9.05919 103.1445,23.369139 1.1957,8.976877 2.2265,17.972568 2.9102,26.990235 6.7439,88.947802 -13.065,177.706606 -59.8262,236.998046 -23.1981,29.41427 -53.6676,52.467 -85.3476,64.52148 -31.2053,11.87382 -66.6124,13.5972 -95.2793,5.11719 -24.0111,-7.10272 -47.6768,-22.47081 -64.9493,-42.42578 -17.3805,-20.0798 -30.0319,-46.56048 -35.205,-73.99609 -5.1994,-27.574528 -3.3474,-58.014953 5.2968,-86.14844 8.6792,-28.2471821 24.5438,-55.66001 45.3985,-78.501953 35.5424,-38.928783 88.3129,-66.149077 142.3476,-73.705077 13.5907,-1.90047 27.5039,-2.62276 41.5098,-2.21875 z"
           id="path4370-9-0-9-5-7-5-5-4-4"
           inkscape:connector-curvature="0" />
      </g>
    </g>
  </g>
</svg>
