<?xml version="1.0" encoding="UTF-8" standalone="no"?>
<!-- Created with Inkscape (http://www.inkscape.org/) -->

<svg
   xmlns:dc="http://purl.org/dc/elements/1.1/"
   xmlns:cc="http://creativecommons.org/ns#"
   xmlns:rdf="http://www.w3.org/1999/02/22-rdf-syntax-ns#"
   xmlns:svg="http://www.w3.org/2000/svg"
   xmlns="http://www.w3.org/2000/svg"
   xmlns:sodipodi="http://sodipodi.sourceforge.net/DTD/sodipodi-0.dtd"
   xmlns:inkscape="http://www.inkscape.org/namespaces/inkscape"
   width="2000"
   height="2048"
   id="svg2992"
   version="1.1"
   inkscape:version="0.91pre2 r13516"
   sodipodi:docname="ാ.svg">
  <defs
     id="defs5498">
    <inkscape:path-effect
       effect="spiro"
       id="path-effect4141"
       is_visible="true" />
    <inkscape:path-effect
       effect="spiro"
       id="path-effect3006"
       is_visible="true" />
    <inkscape:path-effect
       effect="spiro"
       id="path-effect4141-4"
       is_visible="true" />
    <inkscape:path-effect
       effect="spiro"
       id="path-effect4141-7"
       is_visible="true" />
  </defs>
  <sodipodi:namedview
     inkscape:window-height="853"
     inkscape:window-width="1600"
     inkscape:pageshadow="2"
     inkscape:pageopacity="0.0"
     borderopacity="1.0"
     bordercolor="#666666"
     pagecolor="#ffffff"
     id="base"
     showgrid="true"
     showguides="true"
     inkscape:guide-bbox="true"
     inkscape:zoom="0.32102648"
     inkscape:cx="-560.86534"
     inkscape:cy="906.00006"
     inkscape:window-x="1598"
     inkscape:window-y="-3"
     inkscape:current-layer="layer1"
     inkscape:window-maximized="1">
    <sodipodi:guide
       orientation="horizontal"
       position="0,600"
       id="guide5596" />
    <inkscape:grid
       type="xygrid"
       id="grid3769"
       empspacing="3"
       visible="true"
       enabled="true"
       snapvisiblegridlinesonly="true"
       spacingx="4px"
       units="px"
       dotted="true"
       spacingy="4px" />
    <sodipodi:guide
       orientation="0,1"
       position="-1040,1600"
       id="guide2985" />
  </sodipodi:namedview>
  <metadata
     id="metadata5594">
    <rdf:RDF>
      <cc:Work
         rdf:about="">
        <dc:format>image/svg+xml</dc:format>
        <dc:type
           rdf:resource="http://purl.org/dc/dcmitype/StillImage" />
        <dc:title />
      </cc:Work>
    </rdf:RDF>
  </metadata>
  <g
     inkscape:label="Layer 1"
     inkscape:groupmode="layer"
     id="layer1"
     transform="translate(0,1048)">
    <path
       style="fill:none;fill-rule:evenodd;stroke:#000000;stroke-width:140;stroke-linecap:round;stroke-linejoin:round;stroke-miterlimit:4;stroke-dasharray:none;stroke-opacity:1"
       d="m -2266.4951,-267.96493 c 7.0243,-70.46965 40.3677,-138.00745 92.042,-186.43348 51.6743,-48.42603 121.2317,-77.32059 192.0085,-79.76147 54.479,-1.87882 109.1749,11.58534 157.442,36.91864 48.2671,25.33329 90.1201,62.34655 122.6792,106.06604 65.1182,87.43899 91.735,199.77038 87.0289,308.691464 -4.6675,108.026 -40.305,216.750936 -111.7787,297.886036 -35.7369,40.56755 -80.0709,73.78976 -129.7965,95.00792 -49.7257,21.21816 -104.8437,30.24583 -158.5651,24.17462 -67.3932,-7.6163 -131.8027,-39.38552 -178.8642,-88.22261 -47.0616,-48.83709 -76.4247,-114.37848 -81.5411,-182.00741"
       id="path4139"
       inkscape:path-effect="#path-effect4141"
       inkscape:original-d="m -2266.4951,-267.96493 c 0,0 154.585,-274.96686 284.0505,-266.19495 193.581,13.11603 375.1176,257.81502 367.1501,451.676144 -7.9115,192.496796 -192.6869,450.891826 -400.1403,417.068576 -122.7572,-24.06295 -260.4053,-270.23002 -260.4053,-270.23002"
       inkscape:connector-curvature="0"
       sodipodi:nodetypes="caacc" />
    <path
       style="color:#000000;font-style:normal;font-variant:normal;font-weight:normal;font-stretch:normal;font-size:medium;line-height:normal;font-family:sans-serif;text-indent:0;text-align:start;text-decoration:none;text-decoration-line:none;text-decoration-style:solid;text-decoration-color:#000000;letter-spacing:normal;word-spacing:normal;text-transform:none;direction:ltr;block-progression:tb;writing-mode:lr-tb;baseline-shift:baseline;text-anchor:start;clip-rule:nonzero;display:inline;overflow:visible;visibility:visible;opacity:1;isolation:auto;mix-blend-mode:normal;color-interpolation:sRGB;color-interpolation-filters:linearRGB;solid-color:#000000;solid-opacity:1;fill:#000000;fill-opacity:1;fill-rule:evenodd;stroke:none;stroke-width:140;stroke-linecap:round;stroke-linejoin:round;stroke-miterlimit:4;stroke-dasharray:none;stroke-dashoffset:0;stroke-opacity:1;color-rendering:auto;image-rendering:auto;shape-rendering:auto;text-rendering:auto;enable-background:accumulate"
       d="m 466.13086,-609.45703 c -186.12858,-2.63602 -348.34551,145.74526 -362.91406,331.05078 a 70.007,70.007 0 1 0 139.57031,10.97266 c 8.36226,-106.36423 114.99562,-203.76966 221.76367,-202.04688 a 70.007,70.007 0 0 0 1.41992,0.008 c 117.01116,-0.48752 229.99798,95.9892 264.50977,210.62891 a 70.007,70.007 0 0 0 0.73828,2.31055 c 51.50867,151.83094 17.43196,340.313278 -97.78516,448.07422 -74.98147,68.3054 -196.58707,91.6429 -281.93164,43.6289 a 70.007,70.007 0 0 0 -1.27929,-0.70312 C 285.70187,199.92062 238.44028,127.35482 233.49609,54.650391 A 70.007,70.007 0 1 0 93.818359,64.148438 C 102.21323,187.59528 175.15279,299.31324 283.69141,357.63086 430.65736,439.78732 611.2765,401.38294 728.06445,294.73047 a 70.007,70.007 0 0 0 0.54297,-0.5 C 890.82701,142.9231 931.8295,-98.106714 864.53711,-299.20117 812.85204,-470.8863 654.97811,-609.8769 466.13086,-609.45703 Z"
       id="path4139-4"
       inkscape:connector-curvature="0" />
  </g>
</svg>
