<?xml version="1.0" encoding="UTF-8" standalone="no"?>
<!-- Created with Inkscape (http://www.inkscape.org/) -->

<svg
   xmlns:dc="http://purl.org/dc/elements/1.1/"
   xmlns:cc="http://creativecommons.org/ns#"
   xmlns:rdf="http://www.w3.org/1999/02/22-rdf-syntax-ns#"
   xmlns:svg="http://www.w3.org/2000/svg"
   xmlns="http://www.w3.org/2000/svg"
   xmlns:sodipodi="http://sodipodi.sourceforge.net/DTD/sodipodi-0.dtd"
   xmlns:inkscape="http://www.inkscape.org/namespaces/inkscape"
   width="2000"
   height="2048"
   id="svg2992"
   version="1.1"
   inkscape:version="0.91pre3 r13670"
   sodipodi:docname="ി.svg">
  <defs
     id="defs5498">
    <inkscape:path-effect
       effect="spiro"
       id="path-effect3801"
       is_visible="true" />
    <inkscape:path-effect
       effect="spiro"
       id="path-effect4976"
       is_visible="true" />
    <inkscape:path-effect
       effect="spiro"
       id="path-effect4976-5"
       is_visible="true" />
    <inkscape:path-effect
       effect="spiro"
       id="path-effect4976-5-6"
       is_visible="true" />
    <inkscape:path-effect
       effect="spiro"
       id="path-effect4976-5-65"
       is_visible="true" />
    <inkscape:path-effect
       effect="spiro"
       id="path-effect4976-5-65-3"
       is_visible="true" />
  </defs>
  <sodipodi:namedview
     inkscape:window-height="853"
     inkscape:window-width="1600"
     inkscape:pageshadow="2"
     inkscape:pageopacity="0.0"
     borderopacity="1.0"
     bordercolor="#666666"
     pagecolor="#ffffff"
     id="base"
     showgrid="true"
     showguides="true"
     inkscape:guide-bbox="true"
     inkscape:zoom="0.32102648"
     inkscape:cx="-122.1281"
     inkscape:cy="1282.916"
     inkscape:window-x="1598"
     inkscape:window-y="-3"
     inkscape:current-layer="layer1"
     inkscape:window-maximized="1">
    <sodipodi:guide
       orientation="horizontal"
       position="0,600"
       id="guide5596" />
    <inkscape:grid
       type="xygrid"
       id="grid3769"
       empspacing="3"
       visible="true"
       enabled="true"
       snapvisiblegridlinesonly="true"
       spacingx="4px"
       units="px"
       dotted="true"
       spacingy="4px" />
    <sodipodi:guide
       orientation="0,1"
       position="-1040,1600"
       id="guide2985" />
  </sodipodi:namedview>
  <metadata
     id="metadata5594">
    <rdf:RDF>
      <cc:Work
         rdf:about="">
        <dc:format>image/svg+xml</dc:format>
        <dc:type
           rdf:resource="http://purl.org/dc/dcmitype/StillImage" />
        <dc:title />
      </cc:Work>
    </rdf:RDF>
  </metadata>
  <g
     inkscape:label="Layer 1"
     inkscape:groupmode="layer"
     id="layer1"
     transform="translate(0,1048)">
    <path
       style="color:#000000;font-style:normal;font-variant:normal;font-weight:normal;font-stretch:normal;font-size:medium;line-height:normal;font-family:sans-serif;text-indent:0;text-align:start;text-decoration:none;text-decoration-line:none;text-decoration-style:solid;text-decoration-color:#000000;letter-spacing:normal;word-spacing:normal;text-transform:none;direction:ltr;block-progression:tb;writing-mode:lr-tb;baseline-shift:baseline;text-anchor:start;white-space:normal;clip-rule:nonzero;display:inline;overflow:visible;visibility:visible;opacity:1;isolation:auto;mix-blend-mode:normal;color-interpolation:sRGB;color-interpolation-filters:linearRGB;solid-color:#000000;solid-opacity:1;fill:#000000;fill-opacity:1;fill-rule:evenodd;stroke:none;stroke-width:140;stroke-linecap:round;stroke-linejoin:round;stroke-miterlimit:4;stroke-dasharray:none;stroke-dashoffset:0;stroke-opacity:1;color-rendering:auto;image-rendering:auto;shape-rendering:auto;text-rendering:auto;enable-background:accumulate"
       d="m 359.71094,-1048.6719 c -97.65084,1.0418 -192.14192,41.595 -260.091799,112.2969 -72.47988,75.41541 -109.4867047,179.64459 -100.791016,283.88086 a 70.007,70.007 0 1 0 139.515625,-11.63867 c -5.21901,-62.56087 18.71363,-129.9674 62.21484,-175.23047 43.50121,-45.26307 109.90631,-71.85347 172.625,-69.1211 41.90248,1.82551 84.46421,15.99402 120.31446,39.65626 35.92362,23.71066 66.59389,57.77004 88.49218,96.98632 21.96174,39.32991 35.98141,85.10094 43.22852,133.23242 7.25766,48.20158 7.91473,100.29949 8.03906,155.36329 l 1.83594,813.01562 a 70.007,70.007 0 1 0 140,-0.31641 l -1.83594,-813.01562 c -0.12558,-55.61903 -0.37759,-114.6428 -9.59961,-175.89062 -9.23257,-61.31792 -27.43504,-123.33682 -59.43554,-180.64454 -32.06395,-57.42131 -77.15126,-108.31404 -133.60352,-145.57422 -56.52565,-37.30862 -122.66605,-59.68782 -191.3418,-62.67972 -6.5312,-0.2845 -13.05635,-0.3897 -19.5664,-0.3203 z"
       id="path4974-2-2"
       inkscape:connector-curvature="0" />
    <path
       style="fill:none;fill-rule:evenodd;stroke:#000000;stroke-width:140;stroke-linecap:round;stroke-linejoin:round;stroke-miterlimit:4;stroke-dasharray:none;stroke-opacity:1"
       d="m -1046.7188,-666.67173 c -6.9573,-83.39857 23.5121,-169.2175 81.50267,-229.55673 57.99055,-60.33923 142.53281,-94.19014 226.14177,-90.54767 55.28911,2.4087 109.63979,20.68173 155.82774,51.16716 46.18794,30.48543 84.06716,72.96195 111.04828,121.28075 26.98112,48.3188 43.09206,102.21342 51.3319,156.93811 8.23984,54.7247 8.69453,110.28576 8.81948,165.62717 l 1.8357,813.01511"
       id="path4974-2-2-0"
       inkscape:path-effect="#path-effect4976-5-65-3"
       inkscape:original-d="m -1046.7188,-666.67173 c 0,0 160.26394,-333.53317 307.64444,-320.1044 196.9452,17.9449 326.0416,58.4172 327.0274,495.01319 l 1.8357,813.01511"
       inkscape:connector-curvature="0"
       sodipodi:nodetypes="casc" />
  </g>
</svg>
