<?xml version="1.0" encoding="UTF-8" standalone="no"?>
<!-- Created with Inkscape (http://www.inkscape.org/) -->

<svg
   xmlns:dc="http://purl.org/dc/elements/1.1/"
   xmlns:cc="http://creativecommons.org/ns#"
   xmlns:rdf="http://www.w3.org/1999/02/22-rdf-syntax-ns#"
   xmlns:svg="http://www.w3.org/2000/svg"
   xmlns="http://www.w3.org/2000/svg"
   xmlns:sodipodi="http://sodipodi.sourceforge.net/DTD/sodipodi-0.dtd"
   xmlns:inkscape="http://www.inkscape.org/namespaces/inkscape"
   version="1.1"
   width="2000"
   height="2000"
   id="svg2992"
   inkscape:version="0.91pre2 r13516"
   sodipodi:docname="ൂ.svg">
  <sodipodi:namedview
     pagecolor="#ffffff"
     bordercolor="#666666"
     borderopacity="1"
     objecttolerance="10"
     gridtolerance="10"
     guidetolerance="10"
     inkscape:pageopacity="0"
     inkscape:pageshadow="2"
     inkscape:window-width="1600"
     inkscape:window-height="853"
     id="namedview7"
     showgrid="true"
     inkscape:zoom="0.3337544"
     inkscape:cx="509.25657"
     inkscape:cy="759.27714"
     inkscape:window-x="1598"
     inkscape:window-y="-3"
     inkscape:window-maximized="1"
     inkscape:current-layer="layer1"
     showguides="true"
     inkscape:guide-bbox="true">
    <inkscape:grid
       type="xygrid"
       id="grid2984" />
    <sodipodi:guide
       orientation="0,1"
       position="-2000,1600"
       id="guide2984" />
    <sodipodi:guide
       orientation="0,1"
       position="-2640,560"
       id="guide2986" />
  </sodipodi:namedview>
  <defs
     id="defs5498">
    <inkscape:path-effect
       effect="spiro"
       id="path-effect4140"
       is_visible="true" />
    <inkscape:path-effect
       effect="spiro"
       id="path-effect4140-8"
       is_visible="true" />
    <inkscape:path-effect
       effect="spiro"
       id="path-effect4140-8-7"
       is_visible="true" />
  </defs>
  <metadata
     id="metadata5594">
    <rdf:RDF>
      <cc:Work
         rdf:about="">
        <dc:format>image/svg+xml</dc:format>
        <dc:type
           rdf:resource="http://purl.org/dc/dcmitype/StillImage" />
        <dc:title></dc:title>
      </cc:Work>
    </rdf:RDF>
  </metadata>
  <g
     transform="translate(0,1000)"
     id="layer1">
    <path
       style="color:#000000;font-style:normal;font-variant:normal;font-weight:normal;font-stretch:normal;font-size:medium;line-height:normal;font-family:sans-serif;text-indent:0;text-align:start;text-decoration:none;text-decoration-line:none;text-decoration-style:solid;text-decoration-color:#000000;letter-spacing:normal;word-spacing:normal;text-transform:none;direction:ltr;block-progression:tb;writing-mode:lr-tb;baseline-shift:baseline;text-anchor:start;clip-rule:nonzero;display:inline;overflow:visible;visibility:visible;opacity:1;isolation:auto;mix-blend-mode:normal;color-interpolation:sRGB;color-interpolation-filters:linearRGB;solid-color:#000000;solid-opacity:1;fill:#000000;fill-opacity:1;fill-rule:evenodd;stroke:none;stroke-width:140;stroke-linecap:round;stroke-linejoin:round;stroke-miterlimit:4;stroke-dasharray:none;stroke-dashoffset:0;stroke-opacity:1;color-rendering:auto;image-rendering:auto;shape-rendering:auto;text-rendering:auto;enable-background:accumulate"
       d="m 433.01758,-602.44922 c -26.96012,-0.5366 -54.027,2.02023 -80.60352,7.69922 -85.8793,18.35109 -162.5299,68.33837 -213.95117,139.52734 a 70.007,70.007 0 1 0 113.49023,81.97657 c 30.4894,-42.21033 78.79608,-73.71278 129.7168,-84.59375 50.30593,-10.74961 106.37377,-1.91582 149.90625,23.91796 43.36467,25.7342 77.44071,70.6451 89.75391,118.70508 9.50157,37.08583 7.88732,79.90989 -2.53711,122.31836 -10.50043,42.71772 -29.72178,85.86413 -53.17578,129.482424 -85.78595,159.539339 -215.6765,303.901486 -318.5625,477.455076 -7.86732,13.27102 -15.61001,26.91291 -23.15625,40.82813 -98.78903,38.28607 -183.424954,110.57636 -234.92969,204.88672 -71.502314,130.92791 -73.179254,292.70793 -4.40625,425.08989 68.772996,132.3819 202.10382,224.0268 350.33789,240.8007 148.23408,16.774 298.67167,-42.7589 395.28711,-156.4257 a 70.007,70.007 0 1 0 -106.67188,-90.67 c -64.88411,76.3354 -173.3234,119.2473 -272.87304,107.9824 -99.54967,-11.2648 -195.65976,-77.3227 -241.8457,-166.2265 -46.185935,-88.90382 -44.9759,-205.52187 3.04296,-293.44923 10.46367,-19.16004 23.38948,-37.0958 38.06055,-53.66797 -6.64278,62.38013 -0.12727,127.88093 27.48438,189.13281 24.69143,54.77386 64.67493,101.80697 115.57031,134.62696 50.95091,32.85583 110.87178,50.14753 171.95703,48.72263 61.15605,-1.4266 120.84523,-21.5982 170.25781,-58.45896 49.47323,-36.90608 86.27471,-88.83556 104.10352,-148.41992 C 756.39123,781.58286 754.90741,721.2295 737.69727,665.63086 720.54358,610.21456 688.48067,561.41038 647.08008,522.99219 579.88777,460.64026 492.87265,429.35667 405.38086,424.98828 494.22881,289.81623 604.90045,159.14449 688.92188,2.8867188 715.35669,-46.275093 740.10085,-99.898931 754.74609,-159.47852 c 14.72128,-59.88882 18.84638,-125.52367 2.20313,-190.48437 -22.0377,-86.01594 -78.26271,-159.45537 -153.92383,-204.35547 -51.90163,-30.80035 -110.69555,-46.95033 -170.00781,-48.13086 z m -49.03711,1166.9668 c 62.87501,0.33366 125.50825,21.78458 167.87109,61.0957 24.25256,22.50546 42.77653,51.2699 52.10742,81.41406 9.27446,29.96182 9.7487,63.03216 1.19141,91.63086 -8.86419,29.62438 -28.52756,57.5642 -53.69141,76.33594 -25.22451,18.81699 -57.87721,29.9699 -89.8125,30.71484 -32.00609,0.7466 -65.51262,-8.81177 -92.81836,-26.41992 -27.36128,-17.64398 -50.23647,-44.38774 -63.8125,-74.5039 -19.81723,-43.96128 -22.07819,-99.97599 -9.66015,-154.20313 6.06213,-26.47216 15.48977,-52.95862 27.22851,-79.4707 11.42161,-2.48971 22.93743,-4.36796 34.49414,-5.4336 8.93366,-0.82376 17.9202,-1.20782 26.90235,-1.16015 z"
       id="path4138-4"
       inkscape:connector-curvature="0" />
    <path
       style="fill:none;fill-rule:evenodd;stroke:#000000;stroke-width:140;stroke-linecap:round;stroke-linejoin:round;stroke-miterlimit:4;stroke-dasharray:none;stroke-opacity:1"
       d="m -852.71016,-414.99156 c 40.95533,-56.69966 103.43346,-97.44456 171.83347,-112.0606 67.6754,-14.46121 140.74625,-3.14158 200.25915,32.17557 59.51289,35.31715 104.66385,94.49125 121.83929,161.52922 13.0724,51.02326 10.20298,105.25307 -2.36988,156.40172 -12.57286,51.14865 -34.5571,99.533716 -59.50152,145.923766 -91.12509,169.468644 -221.87868,314.483704 -319.99995,479.999924 -34.44604,58.10542 -65.06939,119.37758 -80.14766,185.22145 -15.07827,65.84386 -13.68027,137.01641 14.07953,198.59695 19.13373,42.44501 50.56231,79.33331 89.69064,104.56529 39.12833,25.23198 85.84291,38.65601 132.38859,37.57025 46.54567,-1.08576 92.71566,-16.74715 130.03421,-44.58605 37.31854,-27.83891 65.55144,-67.77482 78.89794,-112.37919 12.83754,-42.90343 11.85808,-89.61452 -1.38422,-132.39475 -13.2423,-42.78024 -38.53552,-81.56448 -71.3621,-112.02631 -65.65314,-60.92365 -159.62803,-86.55342 -248.81545,-78.32954 -124.15583,11.44828 -240.48621,87.90442 -300.24679,197.33205 -59.76059,109.42764 -61.20339,248.62612 -3.72399,359.26901 57.47947,110.6429 172.20002,189.4939 296.09187,203.5133 123.89185,14.0194 253.3313,-37.2029 334.08108,-132.204"
       id="path4138-4-9"
       inkscape:path-effect="#path-effect4140-8-7"
       inkscape:original-d="m -852.71016,-414.99156 c 0,0 51.83347,-72.0606 171.83347,-112.0606 120.00004,-40 242.09844,153.70479 322.09844,193.70479 80,40 -61.8714,142.32549 -61.8714,302.325486 0,160.000004 -200,439.999924 -319.99995,479.999924 -120,40 -226.06812,223.81839 -66.06813,383.8184 159.99998,160 351.01138,225.17026 431.01138,-14.8297 32.1988,-96.5965 -213.0989,-389.3841 -321.56177,-322.7506 -950.65018,584.02686 326.20217,627.91036 326.20217,627.91036"
       inkscape:connector-curvature="0"
       sodipodi:nodetypes="csssssssc" />
  </g>
</svg>
