<?xml version="1.0" encoding="UTF-8" standalone="no"?>
<!-- Created with Inkscape (http://www.inkscape.org/) -->

<svg
   xmlns:dc="http://purl.org/dc/elements/1.1/"
   xmlns:cc="http://creativecommons.org/ns#"
   xmlns:rdf="http://www.w3.org/1999/02/22-rdf-syntax-ns#"
   xmlns:svg="http://www.w3.org/2000/svg"
   xmlns="http://www.w3.org/2000/svg"
   xmlns:sodipodi="http://sodipodi.sourceforge.net/DTD/sodipodi-0.dtd"
   xmlns:inkscape="http://www.inkscape.org/namespaces/inkscape"
   width="2000"
   height="2048"
   id="svg2992"
   version="1.1"
   inkscape:version="0.91pre3 r13670"
   sodipodi:docname="േ.svg">
  <defs
     id="defs5498">
    <inkscape:path-effect
       effect="spiro"
       id="path-effect4141"
       is_visible="true" />
    <inkscape:path-effect
       effect="spiro"
       id="path-effect3891"
       is_visible="true" />
    <inkscape:path-effect
       effect="spiro"
       id="path-effect4141-6"
       is_visible="true" />
    <inkscape:path-effect
       effect="spiro"
       id="path-effect4141-5"
       is_visible="true" />
    <inkscape:path-effect
       is_visible="true"
       id="path-effect4141-2"
       effect="spiro" />
    <inkscape:path-effect
       is_visible="true"
       id="path-effect3006"
       effect="spiro" />
    <inkscape:path-effect
       is_visible="true"
       id="path-effect4141-4"
       effect="spiro" />
    <inkscape:path-effect
       is_visible="true"
       id="path-effect4141-2-7"
       effect="spiro" />
    <inkscape:path-effect
       is_visible="true"
       id="path-effect4141-2-9"
       effect="spiro" />
  </defs>
  <sodipodi:namedview
     inkscape:window-height="851"
     inkscape:window-width="1600"
     inkscape:pageshadow="2"
     inkscape:pageopacity="0.0"
     borderopacity="1.0"
     bordercolor="#666666"
     pagecolor="#ffffff"
     id="base"
     showgrid="true"
     showguides="true"
     inkscape:guide-bbox="true"
     inkscape:zoom="0.64205296"
     inkscape:cx="695.6668"
     inkscape:cy="1072.1611"
     inkscape:window-x="1599"
     inkscape:window-y="-1"
     inkscape:current-layer="layer1-8"
     inkscape:window-maximized="1">
    <sodipodi:guide
       orientation="horizontal"
       position="0,600"
       id="guide5596" />
    <inkscape:grid
       type="xygrid"
       id="grid3769"
       empspacing="3"
       visible="true"
       enabled="true"
       snapvisiblegridlinesonly="true"
       spacingx="4px"
       units="px"
       dotted="true"
       spacingy="4px" />
    <sodipodi:guide
       orientation="0,1"
       position="-1040,1600"
       id="guide2985" />
  </sodipodi:namedview>
  <metadata
     id="metadata5594">
    <rdf:RDF>
      <cc:Work
         rdf:about="">
        <dc:format>image/svg+xml</dc:format>
        <dc:type
           rdf:resource="http://purl.org/dc/dcmitype/StillImage" />
        <dc:title />
      </cc:Work>
    </rdf:RDF>
  </metadata>
  <g
     inkscape:label="Layer 1"
     inkscape:groupmode="layer"
     id="layer1"
     transform="translate(0,1048)">
    <g
       id="layer1-8"
       inkscape:label="Layer 1"
       transform="translate(230.92449,2.080707)">
      <path
         sodipodi:nodetypes="caaaaaac"
         inkscape:connector-curvature="0"
         inkscape:original-d="m -602.44934,-511.56845 c 0,0 -185.86269,184.25019 -125.92835,259.38769 55.80126,69.956 236.72786,25.35596 261.52069,-60.62624 29.82729,-103.44186 -125.82627,-264.67519 -227.48887,-229.25483 -274.53891,95.65235 -338.39223,705.34425 -96.62554,866.80586 108.58768,72.51927 343.82174,-58.66728 342.98773,-189.24151 -0.55847,-87.435662 -163.96153,-179.584139 -231.27286,-123.776512 -81.62492,67.675 95.5443,303.404142 95.5443,303.404142"
         inkscape:path-effect="#path-effect4141-2-9"
         id="path4139-1"
         d="m -602.44934,-511.56845 c -30.45481,-1.45953 -61.28916,6.21018 -87.51123,21.76746 -26.22207,15.55728 -47.73224,38.94304 -61.04821,66.37133 -13.31597,27.42828 -18.38715,58.7949 -14.39256,89.02186 3.99459,30.22695 17.03977,59.19944 37.02365,82.22704 18.09483,20.85084 41.81577,36.79621 68.00058,45.5447 26.18482,8.74849 54.76639,10.26009 81.69694,4.1834 26.93055,-6.07669 52.12567,-19.74039 71.80912,-39.09866 19.68344,-19.35827 33.77895,-44.36137 40.01405,-71.25568 6.92678,-29.8778 4.1072,-61.72576 -6.60379,-90.4649 -10.71099,-28.73914 -29.13367,-54.37497 -51.99423,-74.82145 -45.72112,-40.89294 -107.66721,-60.18438 -168.89085,-63.96848 -106.31234,-6.57094 -214.31416,32.03349 -293.75124,102.99291 -79.43709,70.95942 -129.74329,173.10528 -139.62769,279.16087 -9.8845,106.05558 20.2984,215.024691 81.6487,302.09725 61.35026,87.07256 153.10777,151.86088 255.10469,182.55483 73.95092,22.25406 156.37674,26.32909 226.54754,-5.9206 35.08539,-16.12485 66.33274,-41.24377 87.69107,-73.41235 21.35832,-32.16858 32.44933,-71.47285 28.74912,-109.90856 -4.9377,-51.290138 -37.14781,-99.060873 -82.64456,-123.249827 -45.49674,-24.188953 -102.88396,-24.244077 -148.6283,-0.526685 -33.38803,17.310931 -60.36395,46.671877 -74.79101,81.403547 -14.42707,34.731675 -16.19327,74.564385 -4.89682,110.436655 11.29645,35.87226 35.56785,67.50554 67.29271,87.70361 31.72487,20.19807 70.65687,28.80411 107.93942,23.86033"
         style="fill:none;fill-rule:evenodd;stroke:#000000;stroke-width:140;stroke-linecap:round;stroke-linejoin:round;stroke-miterlimit:4;stroke-dasharray:none;stroke-opacity:1" />
      <path
         id="path5605"
         style="opacity:1;fill:#000000;fill-opacity:1;fill-rule:evenodd;stroke:none;stroke-width:50;stroke-linecap:round;stroke-linejoin:round;stroke-miterlimit:4;stroke-dasharray:none;stroke-opacity:1"
         d="m 560.43808,-363.53195 c 0,61.01508 -49.46249,110.47757 -110.47757,110.47757 -61.01508,0 -110.47757,-49.46249 -110.47757,-110.47757 0,-61.01508 49.46249,-110.47757 110.47757,-110.47757 61.01508,0 110.47757,49.46249 110.47757,110.47757 z m 5.30995,513.66374 c -10e-6,59.04063 -47.8619,106.90252 -106.90253,106.90252 -59.04063,-1e-5 -106.90251,-47.86189 -106.90252,-106.90252 0,-59.040636 47.86188,-106.902531 106.90252,-106.902537 59.04064,0 106.90253,47.861897 106.90253,106.902537 z M 349.13672,-617.86719 c -117.96776,-1.18291 -233.39107,43.16779 -321.083986,121.50196 -93.377604,83.41218 -151.155824,201.09817 -162.691404,324.86914 -11.51749,123.576763 23.16271,248.197544 94.124998,348.91211 70.861827,100.57197 175.222372,174.07728 292.154292,209.26562 85.43711,25.7106 184.84797,32.52428 275.95118,-9.3457 45.81975,-21.05824 87.30296,-53.9093 116.77539,-98.29883 29.7149,-44.75475 45.52631,-99.08816 40.11133,-155.33594 -7.32299,-76.067144 -52.3257,-142.654307 -119.46094,-178.347654 -67.00092,-35.621937 -146.68919,-35.612522 -213.71094,-0.863282 -48.42357,25.106518 -86.29086,66.321074 -107.21484,116.69336 -11.25511,27.095501 -15.61739,55.900176 -15.53269,84.776426 -1.66308,39.50426 7.60071,66.45056 21.81003,100.10443 C 183.2564,215.98167 115.28177,161.77954 73.929688,96.777344 26.608078,22.391522 -3.4936862,-69.969501 4.7578125,-158.50391 12.99121,-246.8441 63.515186,-326.96619 121.32031,-391.95703 c 41.03574,-46.13686 107.03345,-87.27045 154.94545,-101.51249 -40.59374,43.48552 -54.35505,112.25867 -48.27943,163.13944 5.82678,44.09111 24.40285,85.34784 53.55273,118.9375 26.36464,30.38021 60.3053,53.23359 98.68555,66.05664 38.40699,12.83199 79.55188,15.0402 119.28711,6.07422 39.76381,-8.97243 76.25014,-28.72334 105.48437,-57.47461 29.25592,-28.77261 49.80162,-65.1467 59.12305,-105.35351 10.34239,-44.61061 6.01406,-89.89079 -9.20312,-130.72071 -15.12668,-40.58706 -40.31922,-75.17978 -70.92188,-102.55078 -60.98497,-54.54493 -138.29569,-77.15173 -211.23828,-81.66015 -7.87968,-0.48703 -15.75462,-0.76685 -23.61914,-0.84571 z"
         inkscape:connector-curvature="0"
         sodipodi:nodetypes="sssssssssssssssssssssccasaccsssssssss" />
    </g>
  </g>
</svg>
