<?xml version="1.0" encoding="UTF-8" standalone="no"?>
<!-- Created with Inkscape (http://www.inkscape.org/) -->

<svg
   xmlns:dc="http://purl.org/dc/elements/1.1/"
   xmlns:cc="http://creativecommons.org/ns#"
   xmlns:rdf="http://www.w3.org/1999/02/22-rdf-syntax-ns#"
   xmlns:svg="http://www.w3.org/2000/svg"
   xmlns="http://www.w3.org/2000/svg"
   xmlns:sodipodi="http://sodipodi.sourceforge.net/DTD/sodipodi-0.dtd"
   xmlns:inkscape="http://www.inkscape.org/namespaces/inkscape"
   width="2000"
   height="2048"
   id="svg2992"
   version="1.1"
   inkscape:version="0.91 r13725"
   sodipodi:docname="്ല.svg">
  <defs
     id="defs5498">
    <inkscape:path-effect
       effect="spiro"
       id="path-effect4180"
       is_visible="true" />
    <inkscape:path-effect
       effect="spiro"
       id="path-effect4144"
       is_visible="true" />
    <inkscape:path-effect
       effect="spiro"
       id="path-effect4140"
       is_visible="true" />
    <inkscape:path-effect
       effect="spiro"
       id="path-effect4140-4"
       is_visible="true" />
    <inkscape:path-effect
       effect="spiro"
       id="path-effect4140-4-0"
       is_visible="true" />
    <inkscape:path-effect
       effect="spiro"
       id="path-effect4140-4-2"
       is_visible="true" />
    <inkscape:path-effect
       effect="spiro"
       id="path-effect4144-7"
       is_visible="true" />
    <inkscape:path-effect
       effect="spiro"
       id="path-effect4144-9"
       is_visible="true" />
    <inkscape:path-effect
       effect="spiro"
       id="path-effect4144-3"
       is_visible="true" />
    <inkscape:path-effect
       effect="spiro"
       id="path-effect4144-6"
       is_visible="true" />
    <inkscape:path-effect
       effect="spiro"
       id="path-effect4504-9-5-0-9-2-8"
       is_visible="true" />
    <inkscape:path-effect
       effect="spiro"
       id="path-effect4180-0"
       is_visible="true" />
    <inkscape:path-effect
       effect="spiro"
       id="path-effect4504-9-5-0-9-2-8-1"
       is_visible="true" />
    <inkscape:path-effect
       effect="spiro"
       id="path-effect4504-9-5-0-9-2-8-1-8"
       is_visible="true" />
    <inkscape:path-effect
       effect="spiro"
       id="path-effect4504-9-5-0-9-2-8-1-8-8"
       is_visible="true" />
    <inkscape:path-effect
       effect="spiro"
       id="path-effect4504-9-5-0-9-2-8-1-8-2"
       is_visible="true" />
    <inkscape:path-effect
       effect="spiro"
       id="path-effect4504-9-5-0-9-2-8-1-8-0"
       is_visible="true" />
  </defs>
  <sodipodi:namedview
     inkscape:window-height="847"
     inkscape:window-width="1600"
     inkscape:pageshadow="2"
     inkscape:pageopacity="0.0"
     borderopacity="1.0"
     bordercolor="#666666"
     pagecolor="#ffffff"
     id="base"
     showgrid="true"
     showguides="true"
     inkscape:guide-bbox="true"
     inkscape:zoom="0.5"
     inkscape:cx="1199.869"
     inkscape:cy="-954.99087"
     inkscape:window-x="1596"
     inkscape:window-y="-5"
     inkscape:current-layer="layer1"
     inkscape:window-maximized="1">
    <sodipodi:guide
       orientation="horizontal"
       position="0,600"
       id="guide5596" />
    <inkscape:grid
       type="xygrid"
       id="grid3769"
       empspacing="3"
       visible="true"
       enabled="true"
       snapvisiblegridlinesonly="true"
       spacingx="4px"
       units="px"
       dotted="true"
       spacingy="4px" />
    <sodipodi:guide
       orientation="0,1"
       position="-1040,1600"
       id="guide2985" />
  </sodipodi:namedview>
  <metadata
     id="metadata5594">
    <rdf:RDF>
      <cc:Work
         rdf:about="">
        <dc:format>image/svg+xml</dc:format>
        <dc:type
           rdf:resource="http://purl.org/dc/dcmitype/StillImage" />
        <dc:title />
      </cc:Work>
    </rdf:RDF>
  </metadata>
  <g
     inkscape:label="Layer 1"
     inkscape:groupmode="layer"
     id="layer1"
     transform="translate(0,1048)">
    <path
       style="color:#000000;font-style:normal;font-variant:normal;font-weight:normal;font-stretch:normal;font-size:medium;line-height:normal;font-family:sans-serif;text-indent:0;text-align:start;text-decoration:none;text-decoration-line:none;text-decoration-style:solid;text-decoration-color:#000000;letter-spacing:normal;word-spacing:normal;text-transform:none;direction:ltr;block-progression:tb;writing-mode:lr-tb;baseline-shift:baseline;text-anchor:start;white-space:normal;clip-rule:nonzero;display:inline;overflow:visible;visibility:visible;opacity:1;isolation:auto;mix-blend-mode:normal;color-interpolation:sRGB;color-interpolation-filters:linearRGB;solid-color:#000000;solid-opacity:1;fill:#000000;fill-opacity:1;fill-rule:evenodd;stroke:none;stroke-width:120;stroke-linecap:round;stroke-linejoin:round;stroke-miterlimit:4;stroke-dasharray:none;stroke-dashoffset:0;stroke-opacity:1;color-rendering:auto;image-rendering:auto;shape-rendering:auto;text-rendering:auto;enable-background:accumulate"
       d="m -2711.5986,407.78501 c -28.8317,-1.3708 -54.5542,17.97978 -61.2292,46.06162 -6.675,28.08183 7.589,56.93713 33.9538,68.68642 65.1143,30.12926 107.1154,108.26869 96.2675,179.13477 -0.1091,0.71175 -0.2055,1.4254 -0.289,2.14062 -10.132,87.0506 -107.1396,159.82494 -193.5899,145.34571 -0.3711,-0.0627 -0.7429,-0.12199 -1.1152,-0.17774 -105.3938,-15.61972 -187.975,-108.14628 -277.8222,-201.73047 l 0.4179,0.44336 c -97.3897,-103.52483 -223.0567,-222.85213 -395.4219,-233.19336 -138.5727,-12.17713 -275.7827,75.00417 -314.1308,210.82617 -5.1868,22.33014 -11.9001,42.32738 -11.3321,62.69922 -9.2752,129.01429 78.5633,254.27729 210.1992,279.92969 145.0741,34.16998 294.2836,-66.23939 316.8321,-213.81836 l -0.6015,3.31055 c 9.864,-46.80472 5.8794,-93.56576 -8.8907,-136.19141 40.5233,31.7826 79.0849,69.4798 115.9434,108.66016 0.1392,0.14784 0.2792,0.29498 0.4199,0.4414 85.7856,89.35357 185.9593,213.17066 346.123,237.21485 158.494,26.28102 313.1623,-89.6933 332.0821,-249.3086 18.5266,-125.71688 -49.3084,-251.23991 -164.6993,-304.63281 -7.2373,-3.47404 -15.0982,-5.46051 -23.1171,-5.84179 z m -829.5079,35.78515 2.9492,0.3457 c -1.0373,-0.123 -1.9921,-0.22503 -2.9492,-0.3457 z m -27.8379,118.04492 c 4.6348,0.0836 9.26,0.44468 13.8555,1.09961 0.98,0.1402 1.9634,0.25612 2.9492,0.34766 76.2854,7.04391 141.0697,94.60826 125.2578,169.63476 -0.2314,1.09768 -0.432,2.20163 -0.6015,3.31055 -11.2449,73.59749 -99.1432,132.49569 -171.4844,114.99024 -0.9911,-0.23956 -1.9882,-0.45383 -2.9902,-0.64258 -72.8714,-13.74502 -127.7137,-101.90973 -111.1661,-174.58399 0.2093,-0.91993 0.3969,-1.84466 0.5626,-2.77343 0.5701,-3.19321 1.4642,-6.30129 2.2617,-9.43555 19.3744,-57.30352 81.1692,-103.03326 141.3554,-101.94727 z"
       id="path4142-2"
       inkscape:connector-curvature="0"
       sodipodi:nodetypes="sscccccccccccccccccccscccscccccccccs" />
    <path
       style="fill:none;fill-rule:evenodd;stroke:#000000;stroke-width:120;stroke-linecap:round;stroke-linejoin:round;stroke-miterlimit:4;stroke-dasharray:none;stroke-opacity:1"
       d="m -1667.342,1799.7036 c 6.2428,-57.6073 38.0576,-111.9689 85.226,-145.6246 47.1683,-33.6558 108.9224,-46.0578 165.4275,-33.2227 56.5051,12.8352 106.8413,50.6985 134.8414,101.4288 28,50.7303 33.2081,113.5017 13.9513,168.1528 -11.4215,32.4144 -31.1024,61.8839 -56.683,84.8355 -25.5806,22.9516 -57.0092,39.3358 -90.4784,47.1432 -33.4692,7.8075 -68.9091,7.0193 -101.992,-2.29 -33.083,-9.3094 -63.7378,-27.1223 -88.1911,-51.2715 -27.3988,-27.0581 -46.8673,-61.9678 -55.9387,-99.3916 -9.0714,-37.4239 -7.7737,-77.2453 3.2706,-114.1351 11.0443,-36.8898 31.7622,-70.778 59.2367,-97.7593 27.4745,-26.9812 61.6225,-47.0376 98.4338,-58.341 48.351,-14.8468 100.6988,-14.5162 149.9515,-3.0088 49.2528,11.5073 95.5445,33.881 137.6264,61.941 84.1639,56.12 151.0559,133.8748 221.63463,206.343 39.0019,40.046 79.76875,79.0037 126.9642,108.9607 47.19544,29.957 101.54635,50.6628 157.44513,51.0599 52.41512,0.3723 104.78194,-17.6244 145.89492,-50.1391 41.11298,-32.5147 70.69168,-79.3256 82.4068,-130.4161 11.71511,-51.0905 5.48674,-106.1121 -17.35237,-153.2911 -22.83911,-47.179 -62.13317,-86.1937 -109.47395,-108.6955"
       id="path4142-0"
       inkscape:path-effect="#path-effect4144-6"
       inkscape:original-d="m -1667.342,1799.7036 c 0,0 399.1023,-45.8059 399.4462,90.7343 0.2909,115.4459 -257.7103,162.0009 -337.3445,78.4172 -88.3516,-92.7336 -12.6252,-318.9393 105.0024,-369.627 175.7648,-75.74 340.9219,174.1265 509.21253,265.2752 95.65033,51.8056 184.92777,204.0231 284.40933,160.0206 138.4074,-61.2201 101.4754,-442.5418 101.4754,-442.5418"
       inkscape:connector-curvature="0"
       sodipodi:nodetypes="caaaaac" />
    <g
       id="g4166"
       transform="matrix(1.0636334,0,0,-0.87945016,1146.726,376.21424)" />
    <g
       id="g4192"
       transform="matrix(1,0,0,-1,302.4207,400.12668)">
      <path
         id="path4194"
         d="m 1380,156 -2,793 q 0,40 34,60 16,10 40.5,10 24.5,0 45,-20.5 20.5,-20.5 20.5,-36 0,-15.5 2,-875.5 l 0,-1 q 0,-40 -35,-60 -18,-10 -35,-10 L 170,19 q -30,1 -50,21 -21,21 -20,49 l 2,263 Q 91,678 213,834 310,965 472.5,1000.5 635,1036 780,967 883,923 957,837 q 75,-86 105,-195 30,-105 10,-219 -4,-24 -24,-41 -20,-17 -32,-17 l -14,0 -760,14 0,-27 -2,-193 z M 722,840 Q 655,872 578,870.5 501,869 433.5,838 366,807 325,751 q -1,-1 -1,-2 -64,-81 -78,-230 L 939,506 Q 938,611 878.5,704.5 819,798 725,839 q -2,0 -3,1 z"
         inkscape:connector-curvature="0"
         style="fill:currentColor" />
    </g>
    <path
       id="path4194-7"
       d="m -2658.1448,266.40347 -2,-793 q 0,-40 34,-60 16,-10 40.5,-10 24.5,0 45,20.5 20.5,20.5 20.5,36 0,15.5 2,875.5 l 0,1 q 0,40 -35,60 -18,10 -35,10 l -1280,-3 q -30,-1 -50,-21 -21,-21 -20,-49 l 2,-263.000007 q -11,-325.999993 110.9999,-481.999993 97,-131 259.5,-166.5 162.5,-35.5 307.5,33.5 103,44 177,130 75,86 105,195 30,105 10,218.9999927 -4,24.0000003 -24,41.0000003 -20,17 -32,17 l -14,0 -760,-14 0,27 -2,193.000007 z m -658.0001,-684 q -67,-32 -144,-30.5 -77,1.5 -144.5,32.5 -67.5,31 -108.5,87 -1,1 -1,2 -64,81 -78,229.999993 l 693,13 q -1,-104.999993 -60.5,-198.499993 -59.5,-93.5 -153.5,-134.5 -2,0 -3,-1 z"
       inkscape:connector-curvature="0"
       style="fill:currentColor" />
    <path
       style="fill:none;fill-rule:evenodd;stroke:#000000;stroke-width:130;stroke-linecap:round;stroke-linejoin:round;stroke-miterlimit:4;stroke-dasharray:none;stroke-opacity:1"
       d="m 1680.6978,467.24163 c 57.3417,58.24135 86.6205,142.95857 77.4773,224.17756 -9.8242,87.26829 -64.1766,168.39434 -141.2661,210.45954 -77.0895,42.06521 -174.8518,43.83725 -253.3047,4.37314 -43.8251,-22.04534 -80.9452,-55.59185 -113.4489,-92.3362 -32.5038,-36.74435 -60.8532,-76.92352 -91.1289,-115.5243 -67.8534,-86.51142 -148.6356,-167.35119 -250.5024,-208.72105 -45.83873,-18.61589 -95.27202,-28.77116 -144.74139,-28.04903 -49.46937,0.72213 -98.93518,12.44928 -142.71066,35.50241 -43.77549,23.05313 -81.7047,57.54346 -107.40406,99.81973 -25.69937,42.27627 -38.89895,92.31698 -35.76279,141.69212 3.23657,50.95595 24.0858,100.74972 58.69397,138.28982 34.60817,37.54009 82.82254,62.43668 133.55983,68.15607 64.52708,7.27385 131.4166,-17.12866 177.75657,-62.61778 C 894.25554,836.97454 919.76843,771.63205 918.8747,706.70244 918.11017,651.1587 898.4623,596.04425 863.91799,552.54273 829.37367,509.04121 780.14354,477.41787 726.2172,464.08962"
       id="path4502-2-0-5-0-7-3-8"
       inkscape:path-effect="#path-effect4504-9-5-0-9-2-8-1-8"
       inkscape:original-d="m 1680.6978,467.24163 c 0,0 106.0474,150.45733 77.4773,224.17756 -54.1155,139.63558 -246.4393,236.82438 -394.5708,214.83268 C 1267.4425,891.97563 1230.5537,764.2302 1159.0265,698.39137 1079.0591,624.78362 1016.8166,498.92261 908.5241,489.67032 743.32275,475.55586 502.41819,574.6544 477.9052,738.63555 464.00286,831.63612 576.16298,942.41129 670.159,945.08144 784.94786,948.34226 911.10134,821.27421 918.8747,706.70244 925.86504,603.67164 726.2172,464.08962 726.2172,464.08962"
       inkscape:connector-curvature="0"
       sodipodi:nodetypes="caaaaaaac" />
    <path
       style="color:#000000;font-style:normal;font-variant:normal;font-weight:normal;font-stretch:normal;font-size:medium;line-height:normal;font-family:sans-serif;text-indent:0;text-align:start;text-decoration:none;text-decoration-line:none;text-decoration-style:solid;text-decoration-color:#000000;letter-spacing:normal;word-spacing:normal;text-transform:none;direction:ltr;block-progression:tb;writing-mode:lr-tb;baseline-shift:baseline;text-anchor:start;white-space:normal;clip-rule:nonzero;display:inline;overflow:visible;visibility:visible;opacity:1;isolation:auto;mix-blend-mode:normal;color-interpolation:sRGB;color-interpolation-filters:linearRGB;solid-color:#000000;solid-opacity:1;fill:#000000;fill-opacity:1;fill-rule:evenodd;stroke:none;stroke-width:120;stroke-linecap:round;stroke-linejoin:round;stroke-miterlimit:4;stroke-dasharray:none;stroke-dashoffset:0;stroke-opacity:1;color-rendering:auto;image-rendering:auto;shape-rendering:auto;text-rendering:auto;enable-background:accumulate"
       d="m 1460.9531,1064.502 a 60.006,60.006 0 0 0 -36.8125,109.0996 c 61.2542,44.2326 103.5834,117.8788 110.9688,193.0722 3.6466,37.1283 -0.7671,74.6195 -13.5606,107.4219 -12.7092,32.5868 -34.4621,61.6076 -61.2383,80.752 -26.5061,18.9513 -59.9341,29.038 -90.4335,27.0234 -30.054,-1.9852 -60.3827,-16.6306 -78.7266,-37.9844 -17.7352,-20.6452 -29.7687,-52.9859 -37.9707,-90.9765 -8.2837,-38.3694 -13.2701,-83.8443 -29.4433,-132.5547 -19.1781,-57.7604 -52.3753,-110.3935 -96.6817,-152.4512 -44.3227,-42.0734 -98.8574,-72.6737 -158.18747,-88.2461 -102.93374,-27.017 -214.80085,-6.5107 -301.09375,56.3984 -86.39132,62.9809 -140.54171,163.9101 -144.12304,271.1289 -2.6995,80.8182 23.80534,164.3495 84.01953,224.9239 30.06121,30.2409 67.43449,53.454 109.50586,65.8261 42.20447,12.4115 87.6947,13.4128 131.13476,0.9532 65.82371,-18.8797 117.3246,-65.5546 148.1211,-122.3047 30.42711,-56.0693 39.75201,-118.8708 34.88081,-178.3711 -5.9051,-72.131 -33.12512,-140.6058 -76.123,-197.334 32.99902,11.3517 63.9054,30.0003 89.25,54.0586 29.6217,28.1183 52.4684,64.2525 65.4102,103.2305 11.0135,33.1706 16.1097,74.0985 26.0332,120.0625 10.0052,46.3428 25.7596,99.0507 64.2441,143.8496 41.3723,48.1607 100.4549,75.4724 161.8438,79.5274 60.9433,4.0255 120.0933,-14.7979 168.1347,-49.1465 47.7712,-34.1555 82.6528,-81.9727 103.2422,-134.7637 l 0,0 c 20.5048,-52.5754 26.4986,-108.6796 21.1875,-162.7539 -10.8834,-110.8074 -69.8746,-213.4464 -160.1406,-278.6289 a 60.006,60.006 0 0 0 -33.4395,-11.8125 z m -675.64646,142.5195 c 69.73926,41.1153 119.80568,120.381 126.4043,200.9824 3.26588,39.8925 -3.61365,79.7623 -20.75196,111.3438 -16.76892,30.9008 -45.69787,55.5762 -75.73437,64.1914 -19.98983,5.7335 -43.09305,5.4772 -64.19531,-0.7286 -21.23496,-6.2447 -41.79642,-18.7413 -58.25586,-35.2988 -32.82743,-33.0238 -50.8977,-85.2351 -49.19141,-136.3184 2.28083,-68.284 39.37559,-137.7036 94.88086,-178.168 14.34217,-10.4557 30.15337,-19.1315 46.84375,-26.0019 z"
       id="path4502-2-0-5-0-7-3-8-9"
       inkscape:connector-curvature="0" />
    <path
       style="color:#000000;font-style:normal;font-variant:normal;font-weight:normal;font-stretch:normal;font-size:medium;line-height:normal;font-family:sans-serif;text-indent:0;text-align:start;text-decoration:none;text-decoration-line:none;text-decoration-style:solid;text-decoration-color:#000000;letter-spacing:normal;word-spacing:normal;text-transform:none;direction:ltr;block-progression:tb;writing-mode:lr-tb;baseline-shift:baseline;text-anchor:start;white-space:normal;clip-rule:nonzero;display:inline;overflow:visible;visibility:visible;opacity:1;isolation:auto;mix-blend-mode:normal;color-interpolation:sRGB;color-interpolation-filters:linearRGB;solid-color:#000000;solid-opacity:1;fill:#000000;fill-opacity:1;fill-rule:evenodd;stroke:none;stroke-width:130;stroke-linecap:round;stroke-linejoin:round;stroke-miterlimit:4;stroke-dasharray:none;stroke-dashoffset:0;stroke-opacity:1;color-rendering:auto;image-rendering:auto;shape-rendering:auto;text-rendering:auto;enable-background:accumulate"
       d="m 762.83398,1764.6289 c -12.10026,0.1766 -24.20053,1.0421 -36.26953,2.3223 a 65.0065,65.0065 0 0 0 -19.26757,2.541 c -40.24771,6.2937 -79.74226,18.7555 -116.51172,38.1191 -53.72922,28.295 -100.36617,70.4437 -132.66016,123.5684 -32.39393,53.289 -49.13352,115.9137 -45.08984,179.5762 4.18618,65.906 30.56801,129.1914 75.77343,178.2265 45.29281,49.1298 107.02327,81.1315 174.07032,88.6895 85.57575,9.6465 170.20869,-21.569 230.57031,-80.8223 60.0351,-58.9328 91.55621,-140.4891 90.41992,-223.041 -0.53527,-38.8872 -8.26839,-77.1804 -22.44726,-112.9648 53.71442,37.9305 102.23572,89.2784 146.45902,145.6621 28.9184,36.8703 57.9329,78.1678 93.5898,118.4765 35.7674,40.4339 78.6134,80.0162 132.9238,107.336 98.5163,49.5565 216.9494,47.3847 313.6485,-5.3809 96.6587,-52.7435 162.4199,-150.944 174.7246,-260.2461 11.4309,-101.5411 -24.0626,-204.2385 -95.752,-277.0527 a 65.0065,65.0065 0 1 0 -92.6367,91.2051 c 42.994,43.6685 66.0605,110.4078 59.2051,171.3046 -7.3438,65.2346 -50.2903,129.285 -107.8106,160.6719 -57.4799,31.365 -134.5695,32.7369 -192.9589,3.3652 -33.3398,-16.7708 -64.7346,-44.281 -93.9747,-77.3359 -29.3507,-33.1799 -57.0349,-72.2409 -88.6679,-112.5723 -71.1792,-90.7517 -159.0718,-180.8604 -277.18948,-228.83 -53.29753,-21.6451 -111.15428,-33.6796 -170.14844,-32.8184 z m -40.33593,134.0488 c 35.13651,11.3266 67.69325,33.5446 90.51757,62.2871 25.38168,31.9631 40.30349,73.8217 40.86524,114.6329 0.65117,47.3073 -18.85516,96.435 -51.5,128.4804 -32.31832,31.7249 -81.463,49.3132 -124.94141,44.4121 -34.42751,-3.8808 -69.12724,-21.6728 -93.05078,-47.623 -24.01091,-26.0451 -39.32628,-62.3458 -41.61328,-98.3516 -2.22868,-35.0877 7.43076,-72.5451 26.43555,-103.8086 19.1047,-31.4279 48.32667,-58.259 82.14844,-76.0703 21.85453,-11.5091 46.05417,-19.52 71.13867,-23.959 z"
       id="path4502-2-0-5-0-7-3-8-8"
       inkscape:connector-curvature="0" />
  </g>
</svg>
