<?xml version="1.0" encoding="UTF-8" standalone="no"?>
<!-- Created with Inkscape (http://www.inkscape.org/) -->

<svg
   xmlns:dc="http://purl.org/dc/elements/1.1/"
   xmlns:cc="http://creativecommons.org/ns#"
   xmlns:rdf="http://www.w3.org/1999/02/22-rdf-syntax-ns#"
   xmlns:svg="http://www.w3.org/2000/svg"
   xmlns="http://www.w3.org/2000/svg"
   xmlns:sodipodi="http://sodipodi.sourceforge.net/DTD/sodipodi-0.dtd"
   xmlns:inkscape="http://www.inkscape.org/namespaces/inkscape"
   width="2000"
   height="2048"
   id="svg2992"
   version="1.1"
   inkscape:version="0.91pre3 r13670"
   sodipodi:docname="്ല.svg">
  <defs
     id="defs5498">
    <inkscape:path-effect
       effect="spiro"
       id="path-effect4180"
       is_visible="true" />
    <inkscape:path-effect
       effect="spiro"
       id="path-effect4144"
       is_visible="true" />
    <inkscape:path-effect
       effect="spiro"
       id="path-effect4140"
       is_visible="true" />
    <inkscape:path-effect
       effect="spiro"
       id="path-effect4140-4"
       is_visible="true" />
    <inkscape:path-effect
       effect="spiro"
       id="path-effect4140-4-0"
       is_visible="true" />
    <inkscape:path-effect
       effect="spiro"
       id="path-effect4140-4-2"
       is_visible="true" />
    <inkscape:path-effect
       effect="spiro"
       id="path-effect4144-7"
       is_visible="true" />
    <inkscape:path-effect
       effect="spiro"
       id="path-effect4144-9"
       is_visible="true" />
    <inkscape:path-effect
       effect="spiro"
       id="path-effect4144-3"
       is_visible="true" />
    <inkscape:path-effect
       effect="spiro"
       id="path-effect4144-6"
       is_visible="true" />
    <inkscape:path-effect
       effect="spiro"
       id="path-effect4504-9-5-0-9-2-8"
       is_visible="true" />
  </defs>
  <sodipodi:namedview
     inkscape:window-height="851"
     inkscape:window-width="1600"
     inkscape:pageshadow="2"
     inkscape:pageopacity="0.0"
     borderopacity="1.0"
     bordercolor="#666666"
     pagecolor="#ffffff"
     id="base"
     showgrid="true"
     showguides="true"
     inkscape:guide-bbox="true"
     inkscape:zoom="0.16051324"
     inkscape:cx="305.34229"
     inkscape:cy="355.74912"
     inkscape:window-x="1599"
     inkscape:window-y="-1"
     inkscape:current-layer="layer1"
     inkscape:window-maximized="1">
    <sodipodi:guide
       orientation="horizontal"
       position="0,600"
       id="guide5596" />
    <inkscape:grid
       type="xygrid"
       id="grid3769"
       empspacing="3"
       visible="true"
       enabled="true"
       snapvisiblegridlinesonly="true"
       spacingx="4px"
       units="px"
       dotted="true"
       spacingy="4px" />
    <sodipodi:guide
       orientation="0,1"
       position="-1040,1600"
       id="guide2985" />
  </sodipodi:namedview>
  <metadata
     id="metadata5594">
    <rdf:RDF>
      <cc:Work
         rdf:about="">
        <dc:format>image/svg+xml</dc:format>
        <dc:type
           rdf:resource="http://purl.org/dc/dcmitype/StillImage" />
        <dc:title />
      </cc:Work>
    </rdf:RDF>
  </metadata>
  <g
     inkscape:label="Layer 1"
     inkscape:groupmode="layer"
     id="layer1"
     transform="translate(0,1048)">
    <path
       style="color:#000000;font-style:normal;font-variant:normal;font-weight:normal;font-stretch:normal;font-size:medium;line-height:normal;font-family:sans-serif;text-indent:0;text-align:start;text-decoration:none;text-decoration-line:none;text-decoration-style:solid;text-decoration-color:#000000;letter-spacing:normal;word-spacing:normal;text-transform:none;direction:ltr;block-progression:tb;writing-mode:lr-tb;baseline-shift:baseline;text-anchor:start;white-space:normal;clip-rule:nonzero;display:inline;overflow:visible;visibility:visible;opacity:1;isolation:auto;mix-blend-mode:normal;color-interpolation:sRGB;color-interpolation-filters:linearRGB;solid-color:#000000;solid-opacity:1;fill:#000000;fill-opacity:1;fill-rule:evenodd;stroke:none;stroke-width:120;stroke-linecap:round;stroke-linejoin:round;stroke-miterlimit:4;stroke-dasharray:none;stroke-dashoffset:0;stroke-opacity:1;color-rendering:auto;image-rendering:auto;shape-rendering:auto;text-rendering:auto;enable-background:accumulate"
       d="m -669.47432,413.44186 c -28.83169,-1.3708 -54.55418,17.97978 -61.22918,46.06162 -6.675,28.08183 7.58905,56.93713 33.95379,68.68642 65.11429,30.12926 107.11545,108.26869 96.26758,179.13477 -0.10919,0.71175 -0.20556,1.4254 -0.28906,2.14062 -10.13201,87.0506 -107.13959,159.82494 -193.58985,145.34571 -0.37118,-0.0627 -0.74294,-0.12199 -1.11523,-0.17774 -105.39381,-15.61972 -187.975,-108.14628 -277.82223,-201.73047 l 0.4179,0.44336 c -97.3897,-103.52483 -223.0567,-222.85213 -395.4219,-233.19336 -138.5727,-12.17713 -275.7827,75.00417 -314.1308,210.82617 -5.1868,22.33014 -11.9001,42.32738 -11.3321,62.69922 -9.2752,129.01429 78.5633,254.27729 210.1992,279.92969 145.0741,34.17003 294.2836,-66.23939 316.8321,-213.81836 l -0.6015,3.31055 c 9.864,-46.80472 5.8794,-93.56576 -8.8907,-136.19141 40.5233,31.7826 79.0849,69.4798 115.9434,108.66016 0.1392,0.14784 0.2792,0.29498 0.4199,0.4414 85.7856,89.35357 185.95932,213.17066 346.12306,237.21485 158.49394,26.28102 313.16227,-89.6933 332.08203,-249.3086 18.52664,-125.71688 -49.30838,-251.23991 -164.69922,-304.63281 -7.23737,-3.47404 -15.09827,-5.46051 -23.11719,-5.84179 z m -829.50788,35.78515 2.9492,0.3457 c -1.0373,-0.123 -1.9921,-0.22503 -2.9492,-0.3457 z m -27.8379,118.04492 c 4.6348,0.0836 9.26,0.44468 13.8555,1.09961 0.98,0.1402 1.9634,0.25612 2.9492,0.34766 76.2854,7.04391 141.0697,94.60826 125.2578,169.63476 -0.2314,1.09768 -0.432,2.20163 -0.6015,3.31055 -11.2449,73.59749 -99.1432,132.49569 -171.4844,114.99024 -0.9911,-0.23956 -1.9882,-0.45383 -2.9902,-0.64258 -72.8714,-13.74502 -127.7137,-101.90973 -111.1661,-174.58399 0.2093,-0.91993 0.3969,-1.84466 0.5626,-2.77343 0.5701,-3.19321 1.4642,-6.30129 2.2617,-9.43555 19.3744,-57.30352 81.1692,-103.03326 141.3554,-101.94727 z"
       id="path4142-2"
       inkscape:connector-curvature="0"
       sodipodi:nodetypes="sscccccccccccccccccccscccscccccccccs" />
    <path
       style="fill:none;fill-rule:evenodd;stroke:#000000;stroke-width:120;stroke-linecap:round;stroke-linejoin:round;stroke-miterlimit:4;stroke-dasharray:none;stroke-opacity:1"
       d="m -1667.342,1799.7036 c 6.2428,-57.6073 38.0576,-111.9689 85.226,-145.6246 47.1683,-33.6558 108.9224,-46.0578 165.4275,-33.2227 56.5051,12.8352 106.8413,50.6985 134.8414,101.4288 28,50.7303 33.2081,113.5017 13.9513,168.1528 -11.4215,32.4144 -31.1024,61.8839 -56.683,84.8355 -25.5806,22.9516 -57.0092,39.3358 -90.4784,47.1432 -33.4692,7.8075 -68.9091,7.0193 -101.992,-2.29 -33.083,-9.3094 -63.7378,-27.1223 -88.1911,-51.2715 -27.3988,-27.0581 -46.8673,-61.9678 -55.9387,-99.3916 -9.0714,-37.4239 -7.7737,-77.2453 3.2706,-114.1351 11.0443,-36.8898 31.7622,-70.778 59.2367,-97.7593 27.4745,-26.9812 61.6225,-47.0376 98.4338,-58.341 48.351,-14.8468 100.6988,-14.5162 149.9515,-3.0088 49.2528,11.5073 95.5445,33.881 137.6264,61.941 84.1639,56.12 151.0559,133.8748 221.63463,206.343 39.0019,40.046 79.76875,79.0037 126.9642,108.9607 47.19544,29.957 101.54635,50.6628 157.44513,51.0599 52.41512,0.3723 104.78194,-17.6244 145.89492,-50.1391 41.11298,-32.5147 70.69168,-79.3256 82.4068,-130.4161 11.71511,-51.0905 5.48674,-106.1121 -17.35237,-153.2911 -22.83911,-47.179 -62.13317,-86.1937 -109.47395,-108.6955"
       id="path4142-0"
       inkscape:path-effect="#path-effect4144-6"
       inkscape:original-d="m -1667.342,1799.7036 c 0,0 399.1023,-45.8059 399.4462,90.7343 0.2909,115.4459 -257.7103,162.0009 -337.3445,78.4172 -88.3516,-92.7336 -12.6252,-318.9393 105.0024,-369.627 175.7648,-75.74 340.9219,174.1265 509.21253,265.2752 95.65033,51.8056 184.92777,204.0231 284.40933,160.0206 138.4074,-61.2201 101.4754,-442.5418 101.4754,-442.5418"
       inkscape:connector-curvature="0"
       sodipodi:nodetypes="caaaaac" />
    <g
       id="g4166"
       transform="matrix(1.0636334,0,0,-0.87945016,1146.726,376.21424)" />
    <path
       style="fill:none;fill-rule:evenodd;stroke:#000000;stroke-width:120;stroke-linecap:round;stroke-linejoin:round;stroke-miterlimit:4;stroke-dasharray:none;stroke-opacity:1"
       d="m 395.01554,469.0147 c 57.72316,10.98855 110.79642,44.73444 145.23398,92.345 34.43757,47.61057 49.87365,108.58009 42.24055,166.84198 -5.51897,42.1252 -23.02753,82.93999 -51.49576,114.47651 -28.46823,31.53651 -68.04403,53.35654 -110.23234,58.37039 -49.46843,5.87905 -100.7321,-11.87726 -137.7305,-45.23603 -36.99841,-33.35876 -59.72799,-81.4188 -64.66168,-130.99044 -5.99032,-60.18821 13.89367,-121.91548 51.25937,-169.47922 37.36571,-47.56373 91.40503,-81.06245 149.81254,-96.78082 79.66964,-21.44033 168.12934,-9.50046 238.27828,33.92839 70.14893,43.42886 120.56879,118.11239 132.76279,199.71046 0.93806,6.2772 1.66024,12.5857 2.64376,18.85594 7.63627,48.68379 31.50134,94.67385 66.88385,128.97402 35.38251,34.30017 82.07827,56.72195 130.96502,62.92757 57.008,7.23652 116.5559,-7.87282 163.2172,-41.4138 46.6614,-33.54098 79.9583,-85.17009 91.2648,-141.51226 11.3065,-56.34217 0.5069,-116.8204 -29.6012,-165.76714 -30.108,-48.94674 -79.2161,-85.86073 -134.6023,-101.179"
       id="path4178"
       inkscape:path-effect="#path-effect4180"
       inkscape:original-d="m 395.01554,469.0147 c 127.56538,50.18846 194.18618,152.77104 187.47453,259.18698 -4.96658,78.74715 -88.29604,201.71754 -161.7281,172.8469 C 347.18514,872.12102 227.63822,813.79479 218.36979,724.82211 206.84643,614.20303 310.0412,478.58453 419.4417,458.56207 c 143.76963,-26.3127 291.66981,110.91042 371.04107,233.63885 3.44664,5.32939 -19.59711,-24.9306 2.64376,18.85594 22.24087,43.78654 110.11212,219.16729 197.84887,191.90159 146.0568,-45.38965 215.2246,-287.8263 90.2785,-449.8722"
       inkscape:connector-curvature="0"
       sodipodi:nodetypes="casaaazac" />
    <g
       id="g4192"
       transform="matrix(1,0,0,-1,-203.17065,396.46983)">
      <path
         id="path4194"
         d="m 1380,138 -2,793 q 0,40 34,60 16,10 40.5,10 24.5,0 45,-20.5 20.5,-20.5 20.5,-36 0,-15.5 2,-875.5 l 0,-1 q 0,-40 -35,-60 -18,-10 -35,-10 L 170,1 Q 140,2 120,22 99,43 100,71 l 2,263 Q 91,660 213,816 310,947 472.5,982.5 635,1018 780,949 883,905 957,819 q 75,-86 105,-195 30,-105 10,-219 -4,-24 -24,-41 -20,-17 -32,-17 l -14,0 -760,14 0,-27 -2,-193 z M 722,822 Q 655,854 578,852.5 501,851 433.5,820 366,789 325,733 q -1,-1 -1,-2 -64,-81 -78,-230 L 939,488 Q 938,593 878.5,686.5 819,780 725,821 q -2,0 -3,1 z"
         inkscape:connector-curvature="0"
         style="fill:currentColor" />
    </g>
    <path
       id="path4194-7"
       d="m -616.02052,272.06032 -2,-793 q 0,-40 34,-60 16,-10 40.5,-10 24.5,0 45,20.5 20.5,20.5 20.5,36 0,15.5 2,875.5 l 0,1 q 0,40 -35,60 -18,10 -35,10 l -1279.99998,-3 q -30,-1 -50,-21 -21,-21 -20,-49 l 2,-263.000003 q -11,-325.999997 110.9999,-481.999997 97,-131 259.5,-166.5 162.5,-35.5 307.5,33.5 103,44 177,130 75.00003,86 105.00003,195 30,105 10,218.9999968 -4,24.0000002 -24,41.0000002 -20,17 -32.00005,17 l -14,0 -759.99998,-14 0,27 -2,193.000003 z m -658.00008,-684 q -67,-32 -144,-30.5 -77,1.5 -144.5,32.5 -67.5,31 -108.5,87 -1,1 -1,2 -64,81 -78,229.999997 l 693,13 q -1,-104.999997 -60.5,-198.499997 -59.5,-93.5 -153.5,-134.5 -2,0 -3,-1 z"
       inkscape:connector-curvature="0"
       style="fill:currentColor" />
  </g>
</svg>
