<?xml version="1.0" encoding="UTF-8" standalone="no"?>
<!-- Created with Inkscape (http://www.inkscape.org/) -->

<svg
   xmlns:dc="http://purl.org/dc/elements/1.1/"
   xmlns:cc="http://creativecommons.org/ns#"
   xmlns:rdf="http://www.w3.org/1999/02/22-rdf-syntax-ns#"
   xmlns:svg="http://www.w3.org/2000/svg"
   xmlns="http://www.w3.org/2000/svg"
   xmlns:sodipodi="http://sodipodi.sourceforge.net/DTD/sodipodi-0.dtd"
   xmlns:inkscape="http://www.inkscape.org/namespaces/inkscape"
   width="2000"
   height="2048"
   id="svg2992"
   version="1.1"
   inkscape:version="0.91pre3 r13670"
   sodipodi:docname="്ല.svg">
  <defs
     id="defs5498">
    <inkscape:path-effect
       effect="spiro"
       id="path-effect4144"
       is_visible="true" />
    <inkscape:path-effect
       effect="spiro"
       id="path-effect4140"
       is_visible="true" />
    <inkscape:path-effect
       effect="spiro"
       id="path-effect4140-4"
       is_visible="true" />
    <inkscape:path-effect
       effect="spiro"
       id="path-effect4140-4-0"
       is_visible="true" />
    <inkscape:path-effect
       effect="spiro"
       id="path-effect4140-4-2"
       is_visible="true" />
    <inkscape:path-effect
       effect="spiro"
       id="path-effect4144-7"
       is_visible="true" />
    <inkscape:path-effect
       effect="spiro"
       id="path-effect4144-9"
       is_visible="true" />
    <inkscape:path-effect
       effect="spiro"
       id="path-effect4144-3"
       is_visible="true" />
  </defs>
  <sodipodi:namedview
     inkscape:window-height="853"
     inkscape:window-width="1600"
     inkscape:pageshadow="2"
     inkscape:pageopacity="0.0"
     borderopacity="1.0"
     bordercolor="#666666"
     pagecolor="#ffffff"
     id="base"
     showgrid="true"
     showguides="true"
     inkscape:guide-bbox="true"
     inkscape:zoom="0.64205296"
     inkscape:cx="-759.5089"
     inkscape:cy="236.80885"
     inkscape:window-x="1598"
     inkscape:window-y="-3"
     inkscape:current-layer="layer1"
     inkscape:window-maximized="1">
    <sodipodi:guide
       orientation="horizontal"
       position="0,600"
       id="guide5596" />
    <inkscape:grid
       type="xygrid"
       id="grid3769"
       empspacing="3"
       visible="true"
       enabled="true"
       snapvisiblegridlinesonly="true"
       spacingx="4px"
       units="px"
       dotted="true"
       spacingy="4px" />
    <sodipodi:guide
       orientation="0,1"
       position="-1040,1600"
       id="guide2985" />
  </sodipodi:namedview>
  <metadata
     id="metadata5594">
    <rdf:RDF>
      <cc:Work
         rdf:about="">
        <dc:format>image/svg+xml</dc:format>
        <dc:type
           rdf:resource="http://purl.org/dc/dcmitype/StillImage" />
        <dc:title />
      </cc:Work>
    </rdf:RDF>
  </metadata>
  <g
     inkscape:label="Layer 1"
     inkscape:groupmode="layer"
     id="layer1"
     transform="translate(0,1048)">
    <path
       style="fill:none;fill-rule:evenodd;stroke:#000000;stroke-width:120;stroke-linecap:round;stroke-linejoin:round;stroke-miterlimit:4;stroke-dasharray:none;stroke-opacity:1"
       d="m 123.93188,690.32763 c 6.24273,-57.60728 38.05754,-111.96893 85.22593,-145.62473 47.16839,-33.6558 108.92243,-46.05781 165.42755,-33.22266 56.50513,12.83514 106.84139,50.69847 134.84146,101.4288 28.00008,50.73032 33.2081,113.50172 13.95132,168.15285 -11.42148,32.4144 -31.10241,61.88385 -56.68301,84.83545 -25.58061,22.9516 -57.00917,39.33587 -90.47837,47.14327 -33.46921,7.8074 -68.90916,7.01927 -101.99208,-2.29008 -33.08291,-9.30934 -63.7378,-27.12232 -88.19105,-51.27148 -27.3988,-27.05809 -46.86731,-61.96775 -55.93869,-99.3916 -9.07137,-37.42385 -7.7737,-77.24527 3.27063,-114.13506 11.04433,-36.8898 31.76223,-70.77804 59.23669,-97.7593 27.47446,-26.98125 61.62254,-47.03764 98.43379,-58.341 48.35103,-14.8468 100.6988,-14.51615 149.95153,-3.00882 49.25273,11.50732 95.54447,33.88105 137.62638,61.94103 84.16382,56.11997 151.05582,133.87478 221.63457,206.34297 39.00191,40.04602 79.76876,79.00369 126.96421,108.96068 47.19546,29.957 101.54636,50.66288 157.44516,51.05992 52.4151,0.3723 104.7819,-17.62439 145.8949,-50.13909 41.1129,-32.5147 70.6916,-79.32565 82.4068,-130.41613 11.7151,-51.09049 5.4867,-106.11204 -17.3524,-153.29103 -22.8391,-47.179 -62.1331,-86.19364 -109.4739,-108.69549"
       id="path4142"
       inkscape:path-effect="#path-effect4144"
       inkscape:original-d="m 123.93188,690.32763 c 0,0 399.10231,-45.80591 399.44626,90.73426 0.29081,115.4459 -257.71035,162.0009 -337.34451,78.41716 -88.351587,-92.73352 -12.62523,-318.93923 105.00242,-369.62696 175.76479,-75.74 340.92189,174.12649 509.21248,265.27518 95.65033,51.80564 184.92777,204.0231 284.40937,160.0206 138.4074,-61.22007 101.4754,-442.54174 101.4754,-442.54174"
       inkscape:connector-curvature="0"
       sodipodi:nodetypes="caaaaac" />
    <path
       style="color:#000000;font-style:normal;font-variant:normal;font-weight:normal;font-stretch:normal;font-size:medium;line-height:normal;font-family:sans-serif;text-indent:0;text-align:start;text-decoration:none;text-decoration-line:none;text-decoration-style:solid;text-decoration-color:#000000;letter-spacing:normal;word-spacing:normal;text-transform:none;direction:ltr;block-progression:tb;writing-mode:lr-tb;baseline-shift:baseline;text-anchor:start;white-space:normal;clip-rule:nonzero;display:inline;overflow:visible;visibility:visible;opacity:1;isolation:auto;mix-blend-mode:normal;color-interpolation:sRGB;color-interpolation-filters:linearRGB;solid-color:#000000;solid-opacity:1;fill:#000000;fill-opacity:1;fill-rule:evenodd;stroke:none;stroke-width:120;stroke-linecap:round;stroke-linejoin:round;stroke-miterlimit:4;stroke-dasharray:none;stroke-dashoffset:0;stroke-opacity:1;color-rendering:auto;image-rendering:auto;shape-rendering:auto;text-rendering:auto;enable-background:accumulate"
       d="m -289.44336,419.67188 c -28.83169,-1.3708 -54.55418,17.97978 -61.22918,46.06162 -6.675,28.08183 7.58905,56.93713 33.95379,68.68642 65.11429,30.12926 107.11545,108.26869 96.26758,179.13477 -0.10919,0.71175 -0.20556,1.4254 -0.28906,2.14062 -10.13201,87.0506 -107.13959,159.82494 -193.58985,145.34571 -0.37118,-0.0627 -0.74294,-0.12199 -1.11523,-0.17774 -105.39381,-15.61972 -187.975,-108.14628 -277.82227,-201.73047 l 0.41797,0.44336 C -790.23939,556.05134 -915.9063,436.72404 -1088.2715,426.38281 c -138.5727,-12.17713 -275.7827,75.00417 -314.1308,210.82617 -5.1868,22.33014 -11.9001,42.32738 -11.3321,62.69922 -9.2752,129.01429 78.5633,254.27729 210.1992,279.92969 145.0741,34.17001 294.28359,-66.23939 316.83208,-213.81836 l -0.60157,3.31055 c 9.86407,-46.80472 5.87943,-93.56576 -8.89062,-136.19141 40.52322,31.7826 79.08489,69.4798 115.94336,108.66016 0.13923,0.14784 0.2792,0.29498 0.41992,0.4414 85.78558,89.35357 185.95931,213.17066 346.12305,237.21485 158.49394,26.28102 313.16227,-89.6933 332.08203,-249.3086 18.526637,-125.71688 -49.30838,-251.23991 -164.69922,-304.63281 -7.23737,-3.47404 -15.09827,-5.46051 -23.11719,-5.84179 z m -829.50784,35.78515 2.9492,0.3457 c -1.0373,-0.123 -1.9921,-0.22503 -2.9492,-0.3457 z m -27.8379,118.04492 c 4.6348,0.0836 9.26,0.44468 13.8555,1.09961 0.98,0.1402 1.9634,0.25612 2.9492,0.34766 76.2854,7.04391 141.06964,94.60826 125.2578,169.63476 -0.2314,1.09768 -0.432,2.20163 -0.6015,3.31055 -11.2449,73.59749 -99.1432,132.49569 -171.4844,114.99024 -0.9911,-0.23956 -1.9882,-0.45383 -2.9902,-0.64258 -72.8714,-13.74502 -127.7137,-101.90973 -111.1661,-174.58399 0.2093,-0.91993 0.3969,-1.84466 0.5626,-2.77343 0.5701,-3.19321 1.4642,-6.30129 2.2617,-9.43555 19.3744,-57.30352 81.1692,-103.03326 141.3554,-101.94727 z"
       id="path4142-2"
       inkscape:connector-curvature="0"
       sodipodi:nodetypes="sscccccccccccccccccccscccscccccccccs" />
  </g>
</svg>
