<?xml version="1.0" encoding="UTF-8" standalone="no"?>
<!-- Created with Inkscape (http://www.inkscape.org/) -->

<svg
   xmlns:dc="http://purl.org/dc/elements/1.1/"
   xmlns:cc="http://creativecommons.org/ns#"
   xmlns:rdf="http://www.w3.org/1999/02/22-rdf-syntax-ns#"
   xmlns:svg="http://www.w3.org/2000/svg"
   xmlns="http://www.w3.org/2000/svg"
   xmlns:sodipodi="http://sodipodi.sourceforge.net/DTD/sodipodi-0.dtd"
   xmlns:inkscape="http://www.inkscape.org/namespaces/inkscape"
   width="2000"
   height="2048"
   id="svg2992"
   version="1.1"
   inkscape:version="0.91pre3 r13670"
   sodipodi:docname="്ല.svg">
  <defs
     id="defs5498">
    <inkscape:path-effect
       effect="spiro"
       id="path-effect4144"
       is_visible="true" />
    <inkscape:path-effect
       effect="spiro"
       id="path-effect4140"
       is_visible="true" />
    <inkscape:path-effect
       effect="spiro"
       id="path-effect4140-4"
       is_visible="true" />
    <inkscape:path-effect
       effect="spiro"
       id="path-effect4140-4-0"
       is_visible="true" />
    <inkscape:path-effect
       effect="spiro"
       id="path-effect4140-4-2"
       is_visible="true" />
    <inkscape:path-effect
       effect="spiro"
       id="path-effect4144-7"
       is_visible="true" />
  </defs>
  <sodipodi:namedview
     inkscape:window-height="853"
     inkscape:window-width="1600"
     inkscape:pageshadow="2"
     inkscape:pageopacity="0.0"
     borderopacity="1.0"
     bordercolor="#666666"
     pagecolor="#ffffff"
     id="base"
     showgrid="true"
     showguides="true"
     inkscape:guide-bbox="true"
     inkscape:zoom="0.32102648"
     inkscape:cx="48.836486"
     inkscape:cy="687.99273"
     inkscape:window-x="1598"
     inkscape:window-y="-3"
     inkscape:current-layer="layer1"
     inkscape:window-maximized="1">
    <sodipodi:guide
       orientation="horizontal"
       position="0,600"
       id="guide5596" />
    <inkscape:grid
       type="xygrid"
       id="grid3769"
       empspacing="3"
       visible="true"
       enabled="true"
       snapvisiblegridlinesonly="true"
       spacingx="4px"
       units="px"
       dotted="true"
       spacingy="4px" />
    <sodipodi:guide
       orientation="0,1"
       position="-1040,1600"
       id="guide2985" />
  </sodipodi:namedview>
  <metadata
     id="metadata5594">
    <rdf:RDF>
      <cc:Work
         rdf:about="">
        <dc:format>image/svg+xml</dc:format>
        <dc:type
           rdf:resource="http://purl.org/dc/dcmitype/StillImage" />
        <dc:title />
      </cc:Work>
    </rdf:RDF>
  </metadata>
  <g
     inkscape:label="Layer 1"
     inkscape:groupmode="layer"
     id="layer1"
     transform="translate(0,1048)">
    <path
       style="fill:none;fill-rule:evenodd;stroke:#000000;stroke-width:140;stroke-linecap:round;stroke-linejoin:round;stroke-miterlimit:4;stroke-dasharray:none;stroke-opacity:1"
       d="m 353.41516,490.69005 c 62.52027,12.96557 118.81002,53.46965 150.96776,108.63096 32.15773,55.16131 39.67104,124.1009 20.1505,184.89431 -13.42013,41.79472 -39.26243,79.62049 -73.76334,106.7606 -34.50091,27.14011 -77.57251,43.3892 -121.4359,45.09255 -46.916,1.82189 -94.24871,-13.11831 -131.85441,-41.22954 -37.60571,-28.11123 -65.27852,-69.14968 -77.62501,-114.44862 -16.01725,-58.76687 -5.76446,-123.79973 25.8437,-175.8672 31.60816,-52.06747 83.78665,-90.83536 142.2136,-108.0513 48.40723,-14.26356 100.48256,-14.11374 149.76136,-3.23677 49.27881,10.87698 95.87299,32.21572 138.49089,59.24207 85.23581,54.0527 154.02875,129.77901 224.82588,201.71373 48.30325,49.07941 98.5513,97.20788 157.44327,132.89721 58.89194,35.68932 127.65774,58.42175 196.26064,52.45192 50.1473,-4.36383 98.8358,-24.24469 137.7051,-56.22875 38.8692,-31.98407 67.7522,-75.93397 81.6893,-124.3029 13.9371,-48.36893 12.8685,-100.94914 -3.0223,-148.71188 -15.8908,-47.76273 -46.5356,-90.50285 -86.6722,-120.88128"
       id="path4142"
       inkscape:path-effect="#path-effect4144"
       inkscape:original-d="m 353.41516,490.69005 c 0,0 192.60988,182.32898 171.11826,293.52527 C 508.88988,865.15401 411.76577,935.16044 329.33418,936.06847 242.34181,937.02674 137.02021,865.67769 119.85476,780.39031 98.155429,672.57605 182.38527,527.43745 287.91206,496.47181 471.55793,442.58302 630.70905,666.81726 800.99019,754.19084 919.41833,814.95793 1032.2903,991.83867 1154.6941,939.53997 1298.2829,878.18972 1284.394,489.41516 1284.394,489.41516"
       inkscape:connector-curvature="0"
       sodipodi:nodetypes="caaaaaac" />
    <path
       style="color:#000000;font-style:normal;font-variant:normal;font-weight:normal;font-stretch:normal;font-size:medium;line-height:normal;font-family:sans-serif;text-indent:0;text-align:start;text-decoration:none;text-decoration-line:none;text-decoration-style:solid;text-decoration-color:#000000;letter-spacing:normal;word-spacing:normal;text-transform:none;direction:ltr;block-progression:tb;writing-mode:lr-tb;baseline-shift:baseline;text-anchor:start;white-space:normal;clip-rule:nonzero;display:inline;overflow:visible;visibility:visible;opacity:1;isolation:auto;mix-blend-mode:normal;color-interpolation:sRGB;color-interpolation-filters:linearRGB;solid-color:#000000;solid-opacity:1;fill:#000000;fill-opacity:1;fill-rule:evenodd;stroke:none;stroke-width:140;stroke-linecap:round;stroke-linejoin:round;stroke-miterlimit:4;stroke-dasharray:none;stroke-dashoffset:0;stroke-opacity:1;color-rendering:auto;image-rendering:auto;shape-rendering:auto;text-rendering:auto;enable-background:accumulate"
       d="m -1168.1504,410.08398 c -138.9585,-2.99761 -277.3515,79.74607 -318.5664,222.67969 -50.0992,150.51265 38.4356,320.63431 194.7188,359.48242 157.8324,45.83941 319.99066,-63.50609 349.0605,-220.77929 9.04355,-39.48299 9.32323,-79.17226 2.18164,-117.02735 50.71801,42.13453 99.55734,92.77126 149.43945,143.96289 90.82702,94.14878 211.72709,203.82086 376.08008,207.62306 175.86979,6.7952 327.885043,-139.63946 327.058596,-315.80274 2.2752,-102.3687 -45.817346,-200.01941 -127.347656,-261.18946 a 70.007,70.007 0 1 0 -84.01953,111.98438 c 44.40443,33.31548 72.8279,91.50595 71.41797,146.66601 a 70.007,70.007 0 0 0 -0.0195,2.44141 c 0.84851,91.09092 -90.94084,179.68508 -181.97657,176.00586 a 70.007,70.007 0 0 0 -1.35937,-0.041 c -101.47323,-2.12573 -194.69196,-77.41825 -279.07813,-164.89062 a 70.007,70.007 0 0 0 -0.24414,-0.25195 C -796.9397,592.03056 -920.38721,449.56208 -1109.4316,416.58789 c -19.4026,-3.92647 -39.0655,-6.07994 -58.7188,-6.50391 z m -39.0039,143.72657 a 70.007,70.007 0 0 0 5.9453,1.32812 c 78.3405,14.44792 139.8018,108.05977 121.7012,185.64649 a 70.007,70.007 0 0 0 -0.791,3.89062 c -12.7918,73.43218 -102.3552,134.01806 -173.3594,112.95899 a 70.007,70.007 0 0 0 -3.5664,-0.95704 c -71.4124,-17.14014 -120.4624,-111.66136 -96.1309,-181.48437 a 70.007,70.007 0 0 0 1.1582,-3.64063 c 17.6429,-61.18563 79.166,-105.64736 145.043,-117.74218 z"
       id="path4142-6"
       inkscape:connector-curvature="0" />
  </g>
</svg>
