<?xml version="1.0" encoding="UTF-8" standalone="no"?>
<!-- Created with Inkscape (http://www.inkscape.org/) -->

<svg
   xmlns:dc="http://purl.org/dc/elements/1.1/"
   xmlns:cc="http://creativecommons.org/ns#"
   xmlns:rdf="http://www.w3.org/1999/02/22-rdf-syntax-ns#"
   xmlns:svg="http://www.w3.org/2000/svg"
   xmlns="http://www.w3.org/2000/svg"
   xmlns:sodipodi="http://sodipodi.sourceforge.net/DTD/sodipodi-0.dtd"
   xmlns:inkscape="http://www.inkscape.org/namespaces/inkscape"
   width="2000"
   height="2048"
   id="svg2992"
   version="1.1"
   inkscape:version="0.91 r13725"
   sodipodi:docname="്യ.svg">
  <defs
     id="defs5498">
    <inkscape:path-effect
       effect="spiro"
       id="path-effect4140"
       is_visible="true" />
    <inkscape:path-effect
       effect="spiro"
       id="path-effect4140-2"
       is_visible="true" />
    <inkscape:path-effect
       effect="spiro"
       id="path-effect4140-8"
       is_visible="true" />
    <inkscape:path-effect
       effect="spiro"
       id="path-effect4140-5"
       is_visible="true" />
    <inkscape:path-effect
       effect="spiro"
       id="path-effect4140-5-9"
       is_visible="true" />
  </defs>
  <sodipodi:namedview
     inkscape:window-height="704"
     inkscape:window-width="1366"
     inkscape:pageshadow="2"
     inkscape:pageopacity="0.0"
     borderopacity="1.0"
     bordercolor="#666666"
     pagecolor="#ffffff"
     id="base"
     showgrid="true"
     showguides="true"
     inkscape:guide-bbox="true"
     inkscape:zoom="0.16051324"
     inkscape:cx="-1977.3996"
     inkscape:cy="930.1241"
     inkscape:window-x="-6"
     inkscape:window-y="0"
     inkscape:current-layer="layer1"
     inkscape:window-maximized="1">
    <sodipodi:guide
       orientation="horizontal"
       position="0,600"
       id="guide5596" />
    <inkscape:grid
       type="xygrid"
       id="grid3769"
       empspacing="3"
       visible="true"
       enabled="true"
       snapvisiblegridlinesonly="true"
       spacingx="4px"
       units="px"
       dotted="true"
       spacingy="4px" />
    <sodipodi:guide
       orientation="0,1"
       position="-1040,1600"
       id="guide2985" />
  </sodipodi:namedview>
  <metadata
     id="metadata5594">
    <rdf:RDF>
      <cc:Work
         rdf:about="">
        <dc:format>image/svg+xml</dc:format>
        <dc:type
           rdf:resource="http://purl.org/dc/dcmitype/StillImage" />
        <dc:title />
      </cc:Work>
    </rdf:RDF>
  </metadata>
  <g
     inkscape:label="Layer 1"
     inkscape:groupmode="layer"
     id="layer1"
     transform="translate(0,1048)">
    <path
       style="fill:none;fill-rule:evenodd;stroke:#000000;stroke-width:140;stroke-linecap:round;stroke-linejoin:round;stroke-miterlimit:4;stroke-dasharray:none;stroke-opacity:1"
       d="m -1040.9752,404.51387 c -56.6108,34.34403 -99.3375,90.89434 -116.9097,154.73407 -17.5722,63.83973 -9.8028,134.28934 21.2587,192.76561 30.6326,57.66867 83.391,103.01234 144.64205,125.64716 61.25107,22.63482 130.4146,22.58322 192.0026,0.88192 61.588,-21.70131 115.25622,-64.7173 150.771,-119.51446 35.51478,-54.79716 52.83829,-120.98286 49.82655,-186.2129 -2.5174,-54.52332 -18.79835,-107.7307 -41.58954,-157.32597 -22.7912,-49.59527 -52.03188,-95.92268 -81.76513,-141.69454 -78.48205,-120.8166 -162.0799,-241.024024 -206.8673,-377.95529 -46.03759,-140.75355 -48.20953,-295.51464 -6.14002,-437.5047"
       id="path4138"
       inkscape:path-effect="#path-effect4140"
       inkscape:original-d="m -1040.9752,404.51387 c 0,0 -138.9424,239.85119 -95.651,347.49968 43.2914,107.64853 277.49406,-179.19828 537.2422,-179.19828 259.74817,0 -72.78653,-124.57101 -123.35467,-299.02051 -38.99237,-134.51548 -196.76593,-245.272772 -206.8673,-377.95529 -10.10136,-132.68252 -6.14002,-437.5047 -6.14002,-437.5047"
       inkscape:connector-curvature="0"
       sodipodi:nodetypes="cssssc" />
    <path
       style="color:#000000;font-style:normal;font-variant:normal;font-weight:normal;font-stretch:normal;font-size:medium;line-height:normal;font-family:sans-serif;text-indent:0;text-align:start;text-decoration:none;text-decoration-line:none;text-decoration-style:solid;text-decoration-color:#000000;letter-spacing:normal;word-spacing:normal;text-transform:none;direction:ltr;block-progression:tb;writing-mode:lr-tb;baseline-shift:baseline;text-anchor:start;clip-rule:nonzero;display:inline;overflow:visible;visibility:visible;opacity:1;isolation:auto;mix-blend-mode:normal;color-interpolation:sRGB;color-interpolation-filters:linearRGB;solid-color:#000000;solid-opacity:1;fill:#000000;fill-opacity:1;fill-rule:evenodd;stroke:none;stroke-width:140;stroke-linecap:round;stroke-linejoin:round;stroke-miterlimit:4;stroke-dasharray:none;stroke-dashoffset:0;stroke-opacity:1;color-rendering:auto;image-rendering:auto;shape-rendering:auto;text-rendering:auto;enable-background:accumulate"
       d="m 190.42188,-605.65625 a 70.007,70.007 0 0 0 -65.50586,51.04492 c -46.191585,155.90255 -43.823844,324.60747 6.7246,479.152346 49.02539,149.888317 137.02883,274.765064 214.69532,394.326174 29.3999,45.2587 56.65145,88.80863 76.86328,132.79101 20.1408,43.82784 33.29474,88.59739 35.26758,131.32618 2.34072,50.69679 -11.46872,102.98447 -38.64258,144.9121 -27.1032,41.8186 -69.02735,75.26287 -115.29102,91.56446 -46.12782,16.25371 -99.329,16.16242 -144.47656,-0.52149 C 115.05798,802.31058 75.114031,767.80213 52.970703,726.11523 30.567146,683.93844 24.708626,630.80894 37.382812,584.76367 50.057,538.71839 82.278077,496.07188 123.10938,471.30078 A 70.007,70.007 0 1 0 50.494141,351.60547 c -72.39028,43.91696 -125.621585,114.37166 -148.091797,196.00586 -22.470214,81.63419 -12.789844,169.40394 26.929687,244.17969 39.121786,73.65044 104.693777,129.82798 182.197269,158.46875 77.35457,28.58573 162.48109,28.39303 239.52929,1.24414 76.91234,-27.10104 142.32364,-79.68912 186.25,-147.46485 43.8557,-67.6667 64.69252,-147.74843 61.00977,-227.51172 C 595.25639,510.20949 575.84979,448.56195 550.4082,393.19922 525.03764,337.99106 493.80683,288.88658 463.74023,242.60156 384.44262,120.52947 305.25254,4.9917909 264.70312,-118.98242 223.17639,-245.94465 221.19903,-386.76227 259.14648,-514.83984 a 70.007,70.007 0 0 0 -68.7246,-90.81641 z"
       id="path4138-9"
       inkscape:connector-curvature="0" />
    <path
       style="fill:none;fill-rule:evenodd;stroke:#000000;stroke-width:70;stroke-linecap:round;stroke-linejoin:round;stroke-miterlimit:4;stroke-dasharray:none;stroke-opacity:1"
       d="m -2669.4613,391.76125 c -58.04,35.28051 -101.8468,93.28503 -119.9025,158.76287 -18.0557,65.47785 -10.1695,137.73686 21.5851,197.77852 31.3953,59.36217 85.5857,106.0797 148.5471,129.43331 62.9614,23.35361 134.0953,23.36505 197.4444,1.08448 63.349,-22.28057 118.5575,-66.50814 155.0749,-122.86422 36.5174,-56.35608 54.3042,-124.43546 51.1522,-191.51448 -2.6293,-55.95418 -19.3712,-110.54834 -42.791,-161.4335 -23.4197,-50.88516 -53.4551,-98.41369 -84.0024,-145.36732 -80.6444,-123.95662 -166.5907,-247.259109 -212.634,-387.78943 -47.3109,-144.39902 -49.5438,-303.21623 -6.3112,-448.88826"
       id="path4138-4"
       inkscape:path-effect="#path-effect4140-5"
       inkscape:original-d="m -2669.4613,391.76125 c 0,0 -142.8157,246.09196 -98.3174,356.54139 44.4982,110.44944 285.2297,-183.86091 552.2186,-183.86091 266.9891,0 -74.8155,-127.81225 -126.7934,-306.80082 -40.0792,-138.01548 -202.251,-251.6546023 -212.634,-387.78943 -10.3829,-136.13482 -6.3112,-448.88826 -6.3112,-448.88826"
       inkscape:connector-curvature="0"
       sodipodi:nodetypes="cssssc" />
    <path
       style="color:#000000;font-style:normal;font-variant:normal;font-weight:normal;font-stretch:normal;font-size:medium;line-height:normal;font-family:sans-serif;text-indent:0;text-align:start;text-decoration:none;text-decoration-line:none;text-decoration-style:solid;text-decoration-color:#000000;letter-spacing:normal;word-spacing:normal;text-transform:none;direction:ltr;block-progression:tb;writing-mode:lr-tb;baseline-shift:baseline;text-anchor:start;white-space:normal;clip-rule:nonzero;display:inline;overflow:visible;visibility:visible;opacity:1;isolation:auto;mix-blend-mode:normal;color-interpolation:sRGB;color-interpolation-filters:linearRGB;solid-color:#000000;solid-opacity:1;fill:#000000;fill-opacity:1;fill-rule:evenodd;stroke:none;stroke-width:70;stroke-linecap:round;stroke-linejoin:round;stroke-miterlimit:4;stroke-dasharray:none;stroke-dashoffset:0;stroke-opacity:1;color-rendering:auto;image-rendering:auto;shape-rendering:auto;text-rendering:auto;enable-background:accumulate"
       d="m -3810.0879,-422.50195 a 35.0035,35.0035 0 0 0 -32.7637,25.50781 c -45.3002,152.63902 -42.9701,318.437056 6.6036,469.742187 48.1696,147.020333 136.3253,272.658803 216.5566,395.980473 30.3786,46.69433 59.4182,92.83204 81.5469,140.9121 22.0932,48.00296 37.2706,98.38138 39.623,148.44336 2.8101,59.80325 -13.2198,120.92639 -45.5625,170.83985 -32.3074,49.85888 -81.639,89.29647 -137.3164,108.87887 -55.6094,19.5585 -118.7543,19.4829 -173.6601,-0.8828 -54.8314,-20.338 -102.6177,-61.62334 -129.7793,-112.98045 -27.4486,-51.89973 -34.3905,-115.5126 -18.7832,-172.11133 15.6072,-56.59871 54.1723,-107.6619 104.3418,-138.1582 a 35.0035,35.0035 0 1 0 -36.3594,-59.8164 c -65.9105,40.0647 -114.9588,105.0102 -135.4629,179.36718 -20.5042,74.35696 -11.6759,155.26173 24.3847,223.44532 35.629,67.36718 96.2231,119.51558 167.3145,145.88478 71.017,26.3415 150.1417,26.2898 221.2305,1.2871 71.0207,-24.9788 132.1065,-73.9964 172.834,-136.84962 40.692,-62.79872 60.2341,-137.83466 56.7402,-212.18945 -2.9062,-61.84636 -21.2107,-120.65647 -45.957,-174.42383 -24.7108,-53.69023 -55.743,-102.60741 -86.459,-149.82031 -81.0575,-124.59158 -164.794,-245.5593 -208.711,-379.599612 -45.0481,-137.492929 -47.1844,-289.328138 -6.0195,-428.033198 a 35.0035,35.0035 0 0 0 -34.3418,-45.42383 z"
       id="path4138-4-0"
       inkscape:connector-curvature="0" />
  </g>
</svg>
