<?xml version="1.0" encoding="UTF-8" standalone="no"?>
<!-- Created with Inkscape (http://www.inkscape.org/) -->

<svg
   xmlns:dc="http://purl.org/dc/elements/1.1/"
   xmlns:cc="http://creativecommons.org/ns#"
   xmlns:rdf="http://www.w3.org/1999/02/22-rdf-syntax-ns#"
   xmlns:svg="http://www.w3.org/2000/svg"
   xmlns="http://www.w3.org/2000/svg"
   xmlns:sodipodi="http://sodipodi.sourceforge.net/DTD/sodipodi-0.dtd"
   xmlns:inkscape="http://www.inkscape.org/namespaces/inkscape"
   width="2000"
   height="2048"
   id="svg2992"
   version="1.1"
   inkscape:version="0.91 r13725"
   sodipodi:docname="ൔ.svg">
  <defs
     id="defs5498">
    <inkscape:path-effect
       effect="spiro"
       id="path-effect4258"
       is_visible="true" />
    <inkscape:path-effect
       effect="spiro"
       id="path-effect4198"
       is_visible="true" />
    <inkscape:path-effect
       effect="spiro"
       id="path-effect4170"
       is_visible="true" />
    <inkscape:path-effect
       effect="spiro"
       id="path-effect4166"
       is_visible="true" />
    <inkscape:path-effect
       effect="spiro"
       id="path-effect3006"
       is_visible="true" />
    <inkscape:path-effect
       effect="spiro"
       id="path-effect4842"
       is_visible="true" />
    <inkscape:path-effect
       effect="spiro"
       id="path-effect4842-3"
       is_visible="true" />
    <inkscape:path-effect
       effect="spiro"
       id="path-effect4842-3-9"
       is_visible="true" />
    <inkscape:path-effect
       effect="spiro"
       id="path-effect4842-3-7"
       is_visible="true" />
    <inkscape:path-effect
       effect="spiro"
       id="path-effect4842-3-3"
       is_visible="true" />
    <inkscape:path-effect
       effect="spiro"
       id="path-effect4166-3"
       is_visible="true" />
    <inkscape:path-effect
       effect="spiro"
       id="path-effect4170-7"
       is_visible="true" />
    <inkscape:path-effect
       effect="spiro"
       id="path-effect4170-8"
       is_visible="true" />
    <inkscape:path-effect
       effect="spiro"
       id="path-effect4166-0"
       is_visible="true" />
    <inkscape:path-effect
       effect="spiro"
       id="path-effect4166-32"
       is_visible="true" />
    <inkscape:path-effect
       effect="spiro"
       id="path-effect4170-4"
       is_visible="true" />
    <inkscape:path-effect
       effect="spiro"
       id="path-effect4170-3"
       is_visible="true" />
    <inkscape:path-effect
       effect="spiro"
       id="path-effect4166-2"
       is_visible="true" />
    <inkscape:path-effect
       effect="spiro"
       id="path-effect4170-3-1"
       is_visible="true" />
    <inkscape:path-effect
       effect="spiro"
       id="path-effect4166-2-6"
       is_visible="true" />
    <inkscape:path-effect
       effect="spiro"
       id="path-effect4170-86"
       is_visible="true" />
    <inkscape:path-effect
       effect="spiro"
       id="path-effect4166-4"
       is_visible="true" />
    <inkscape:path-effect
       effect="spiro"
       id="path-effect4170-34"
       is_visible="true" />
    <inkscape:path-effect
       effect="spiro"
       id="path-effect4166-7"
       is_visible="true" />
    <inkscape:path-effect
       effect="spiro"
       id="path-effect4170-34-3"
       is_visible="true" />
    <inkscape:path-effect
       effect="spiro"
       id="path-effect4166-7-0"
       is_visible="true" />
    <inkscape:path-effect
       effect="spiro"
       id="path-effect4170-3-4"
       is_visible="true" />
    <inkscape:path-effect
       effect="spiro"
       id="path-effect4166-2-2"
       is_visible="true" />
    <inkscape:path-effect
       effect="spiro"
       id="path-effect4170-3-4-0"
       is_visible="true" />
    <inkscape:path-effect
       effect="spiro"
       id="path-effect4166-2-2-3"
       is_visible="true" />
    <inkscape:path-effect
       effect="spiro"
       id="path-effect4170-34-30"
       is_visible="true" />
    <inkscape:path-effect
       effect="spiro"
       id="path-effect4166-7-8"
       is_visible="true" />
    <inkscape:path-effect
       effect="spiro"
       id="path-effect4170-34-30-0"
       is_visible="true" />
    <inkscape:path-effect
       effect="spiro"
       id="path-effect4166-7-8-8"
       is_visible="true" />
    <inkscape:path-effect
       effect="spiro"
       id="path-effect4170-9"
       is_visible="true" />
    <inkscape:path-effect
       effect="spiro"
       id="path-effect4166-40"
       is_visible="true" />
    <inkscape:path-effect
       effect="spiro"
       id="path-effect4170-9-8"
       is_visible="true" />
    <inkscape:path-effect
       effect="spiro"
       id="path-effect4166-40-9"
       is_visible="true" />
    <inkscape:path-effect
       effect="spiro"
       id="path-effect4166-75"
       is_visible="true" />
    <inkscape:path-effect
       effect="spiro"
       id="path-effect4198-3"
       is_visible="true" />
    <inkscape:path-effect
       effect="spiro"
       id="path-effect4166-2-27"
       is_visible="true" />
    <inkscape:path-effect
       effect="spiro"
       id="path-effect4258-0"
       is_visible="true" />
    <inkscape:path-effect
       effect="spiro"
       id="path-effect4198-6"
       is_visible="true" />
    <inkscape:path-effect
       effect="spiro"
       id="path-effect4166-06"
       is_visible="true" />
  </defs>
  <sodipodi:namedview
     inkscape:window-height="843"
     inkscape:window-width="1600"
     inkscape:pageshadow="2"
     inkscape:pageopacity="0.0"
     borderopacity="1.0"
     bordercolor="#666666"
     pagecolor="#ffffff"
     id="base"
     showgrid="true"
     showguides="false"
     inkscape:guide-bbox="true"
     inkscape:zoom="0.125"
     inkscape:cx="1883.5576"
     inkscape:cy="86.270192"
     inkscape:window-x="1600"
     inkscape:window-y="0"
     inkscape:current-layer="layer1"
     inkscape:window-maximized="1">
    <sodipodi:guide
       orientation="horizontal"
       position="0,600"
       id="guide5596" />
    <inkscape:grid
       type="xygrid"
       id="grid3769"
       empspacing="3"
       visible="true"
       enabled="true"
       snapvisiblegridlinesonly="true"
       spacingx="4px"
       units="px"
       dotted="true"
       spacingy="4px" />
    <sodipodi:guide
       orientation="0,1"
       position="-1040,1600"
       id="guide2985" />
  </sodipodi:namedview>
  <metadata
     id="metadata5594">
    <rdf:RDF>
      <cc:Work
         rdf:about="">
        <dc:format>image/svg+xml</dc:format>
        <dc:type
           rdf:resource="http://purl.org/dc/dcmitype/StillImage" />
        <dc:title />
      </cc:Work>
    </rdf:RDF>
  </metadata>
  <g
     inkscape:label="Layer 1"
     inkscape:groupmode="layer"
     id="layer1"
     transform="translate(0,1048)">
    <path
       style="fill:none;fill-rule:evenodd;stroke:#000000;stroke-width:130.40625;stroke-linecap:round;stroke-linejoin:round;stroke-miterlimit:4;stroke-dasharray:none;stroke-opacity:1"
       d="m -3892.3093,1290.5627 c -76.4772,30.073 -165.6774,25.9805 -239.0796,-10.969 -46.9291,-23.6233 -87.1963,-60.0058 -116.4082,-103.6758 -29.212,-43.67 -47.411,-94.4879 -53.7163,-146.6478 -12.6107,-104.31961 23.2965,-211.90382 89.4815,-293.51979 66.185,-81.61596 160.8204,-137.91955 262.0863,-165.97031 101.2658,-28.05075 208.8954,-28.86084 312.5213,-11.44577 110.5024,18.57071 220.3279,59.43664 302.0944,136.05196 40.8832,38.30766 74.0988,85.23054 93.9004,137.64056 19.8017,52.41003 25.8733,110.35012 14.5006,165.20972 -13.0068,62.74183 -48.1662,119.37203 -92.4795,165.65433 -44.3132,46.2822 -97.6069,83.002 -152.3049,116.3763 -246.0396,150.1224 -529.4666,238.4372 -817.2329,254.6468 l 1072.1375,-11.1512 -0.5983,-540.08901"
       id="path4840-4"
       inkscape:path-effect="#path-effect4842-3"
       inkscape:original-d="m -3892.3093,1290.5627 c -479.7788,305.7016 -574.6391,190.367 -239.0796,-10.969 335.5779,-201.3472 238.9205,-1068.39685 493.9646,-721.25947 90.9166,123.74659 577.5192,459.16917 410.4954,438.90224 -73.9815,-8.97672 -90.4034,241.20163 -244.7844,282.03063 -249.2923,65.9295 -817.2329,254.6468 -817.2329,254.6468 l 1072.1375,-11.1512 -0.5983,-540.08901"
       inkscape:connector-curvature="0"
       sodipodi:nodetypes="cssssccc" />
    <path
       style="color:#000000;font-style:normal;font-variant:normal;font-weight:normal;font-stretch:normal;font-size:medium;line-height:normal;font-family:sans-serif;text-indent:0;text-align:start;text-decoration:none;text-decoration-line:none;text-decoration-style:solid;text-decoration-color:#000000;letter-spacing:normal;word-spacing:normal;text-transform:none;direction:ltr;block-progression:tb;writing-mode:lr-tb;baseline-shift:baseline;text-anchor:start;clip-rule:nonzero;display:inline;overflow:visible;visibility:visible;opacity:1;isolation:auto;mix-blend-mode:normal;color-interpolation:sRGB;color-interpolation-filters:linearRGB;solid-color:#000000;solid-opacity:1;fill:#000000;fill-opacity:1;fill-rule:evenodd;stroke:none;stroke-width:130.40625;stroke-linecap:round;stroke-linejoin:round;stroke-miterlimit:4;stroke-dasharray:none;stroke-dashoffset:0;stroke-opacity:1;color-rendering:auto;image-rendering:auto;shape-rendering:auto;text-rendering:auto;enable-background:accumulate"
       d="m -3794.0953,1751.5345 c -64.3176,0.1545 -129.0298,7.9638 -192.2598,25.4785 -112.8262,31.253 -219.2274,93.8995 -295.3242,187.7383 -76.5743,94.4276 -118.5918,218.1519 -103.5703,342.4141 7.4937,61.9907 29.001,122.3783 64.2519,175.0762 35.3028,52.7754 83.7222,96.6848 141.2871,125.6621 90.6247,45.6189 197.8366,50.5392 292.2578,13.4101 a 65.209645,65.209645 0 1 0 -47.7226,-121.3613 c -58.5332,23.0169 -129.7207,19.7506 -185.9004,-8.5293 -36.2934,-18.2695 -68.4082,-47.123 -91.5293,-81.6875 -23.173,-34.6421 -38.0647,-75.8918 -43.1817,-118.2207 -10.1999,-84.3772 19.5989,-175.8206 75.3946,-244.625 56.2731,-69.3932 139.1421,-119.3546 228.8476,-144.2031 90.1229,-24.9642 188.2856,-26.1179 284.3086,-9.9805 102.048,17.1499 199.3677,54.7232 268.3184,119.3301 34.3557,32.1913 61.6595,71.2104 77.4883,113.1054 15.7436,41.6695 20.2344,87.522 11.6504,128.9297 -9.8489,47.5087 -37.8768,94.2612 -75.7305,133.7969 -38.1673,39.8632 -86.5494,73.7019 -139.1699,105.8086 -236.7398,144.4481 -510.0482,229.6101 -786.9375,245.207 a 65.209645,65.209645 0 0 0 4.3437,130.2989 l 1072.1387,-11.1504 a 65.209645,65.209645 0 0 0 64.5234,-65.2715 l -0.5976,-540.0899 a 65.209645,65.209645 0 0 0 -4.2559,-23.8574 c 2.6525,-51.3712 -6.1154,-102.4929 -23.9746,-149.7617 -23.7744,-62.925 -62.9018,-117.7518 -110.3125,-162.1758 -94.5823,-88.6237 -216.9142,-132.7819 -335.8711,-152.7734 -48.6626,-8.1781 -98.4479,-12.6885 -148.4726,-12.5684 z m 492.7421,736.5039 0.2657,240.2676 -406.8457,4.2305 c 86.8135,-35.947 170.8897,-78.5509 251.1777,-127.5391 53.0782,-32.3859 107.3223,-69.2525 155.4023,-116.959 z"
       id="path4840-4-7"
       inkscape:connector-curvature="0" />
    <path
       style="fill:none;fill-rule:evenodd;stroke:#000000;stroke-width:140;stroke-linecap:round;stroke-linejoin:round;stroke-miterlimit:4;stroke-dasharray:none;stroke-opacity:1"
       d="m 487.9999,-40 0,384 1006,-4 c -176.0821,-178.24467 -275.9676,-429.411301 -270.3873,-679.90065 5.249,-235.61828 103.2693,-467.93405 268.3873,-636.09933"
       id="path4162"
       inkscape:connector-curvature="0"
       sodipodi:nodetypes="cccac"
       inkscape:path-effect="#path-effect4198"
       inkscape:original-d="m 487.9999,-40 0,384 1006,-4 c 0,0 -272.9182,-436.01622 -270.3873,-679.90065 2.3881,-230.12141 100.6713,-449.16081 268.3873,-636.09933" />
    <path
       style="fill:none;fill-rule:evenodd;stroke:#000000;stroke-width:140;stroke-linecap:round;stroke-linejoin:round;stroke-miterlimit:4;stroke-dasharray:none;stroke-opacity:1"
       d="m 487.9999,-40 c 7.5784,-121.48741 59.12967,-239.76178 142.96729,-328.01073 83.83762,-88.24894 199.31543,-145.79228 320.255,-159.58513 51.64831,-5.89035 105.88601,-3.62416 152.67871,19.01842 38.4046,18.58367 69.8555,50.30894 90.4991,87.64672 20.6436,37.33779 30.7381,80.06895 31.7322,122.72196 1.9882,85.30603 -31.5092,167.87074 -75.401,241.045764 C 1028.1991,147.11886 817.39538,296.33708 583.9999,344"
       id="path4164"
       inkscape:path-effect="#path-effect4166"
       inkscape:original-d="m 487.9999,-40 c 9.41025,-115.54586 237.36474,-409.37671 463.22229,-487.59586 42.06564,-14.56821 116.78851,-17.61721 152.67871,19.01842 105.8654,108.06415 107.4675,327.41434 46.8303,451.414444 C 1049.0564,150.75693 793.8774,237.92261 583.9999,344"
       inkscape:connector-curvature="0"
       sodipodi:nodetypes="csaac" />
    <path
       style="fill:none;fill-rule:evenodd;stroke:#000000;stroke-width:70;stroke-linecap:round;stroke-linejoin:round;stroke-miterlimit:4;stroke-dasharray:none;stroke-opacity:1"
       d="m -1431.1894,-44.000887 0,407.241827 1119.08841,0 c -210.86025,-161.77038 -342.92743,-421.791953 -349.17935,-687.48466 -6.25933,-266.00773 113.739,-532.2599 317.17935,-703.75718"
       id="path4162-0"
       inkscape:connector-curvature="0"
       sodipodi:nodetypes="cccac"
       inkscape:path-effect="#path-effect4258"
       inkscape:original-d="m -1431.1894,-44.000887 0,407.241827 1119.08841,0 c 0,0 -343.20104,-430.528175 -349.17935,-687.48466 -5.98492,-257.2406 317.17935,-703.75718 317.17935,-703.75718" />
    <path
       style="fill:none;fill-rule:evenodd;stroke:#000000;stroke-width:70;stroke-linecap:round;stroke-linejoin:round;stroke-miterlimit:4;stroke-dasharray:none;stroke-opacity:1"
       d="m -1431.1894,-44.000887 c 4.2329,-120.502843 52.2057,-238.999903 132.9949,-328.509433 80.7892,-89.50954 193.7664,-149.33518 313.20657,-165.85465 41.61283,-5.75537 84.22112,-6.39053 125.43082,1.76496 41.20971,8.15548 81.04058,25.37729 112.9896,52.65386 28.99323,24.75306 50.93217,57.33979 64.72473,92.87972 13.79256,35.53992 19.57343,73.96554 18.74766,112.07905 -1.65155,76.227 -29.27287,149.84232 -65.76949,216.784692 C -850.45953,160.8276 -1078.7159,322.51917 -1329.454,363.24094"
       id="path4164-5"
       inkscape:path-effect="#path-effect4166-2"
       inkscape:original-d="m -1431.1894,-44.000887 c 9.1058,-111.890403 234.5348,-427.475573 446.20147,-494.364083 77.72864,-24.56292 186.26975,-8.23408 238.42042,54.41882 90.01589,108.14352 79.69659,295.43169 17.7029,421.743462 C -836.95828,158.03751 -1107.0379,250.74315 -1329.454,363.24094"
       inkscape:connector-curvature="0"
       sodipodi:nodetypes="caaac" />
    <path
       style="color:#000000;font-style:normal;font-variant:normal;font-weight:normal;font-stretch:normal;font-size:medium;line-height:normal;font-family:sans-serif;text-indent:0;text-align:start;text-decoration:none;text-decoration-line:none;text-decoration-style:solid;text-decoration-color:#000000;letter-spacing:normal;word-spacing:normal;text-transform:none;direction:ltr;block-progression:tb;writing-mode:lr-tb;baseline-shift:baseline;text-anchor:start;white-space:normal;clip-rule:nonzero;display:inline;overflow:visible;visibility:visible;opacity:1;isolation:auto;mix-blend-mode:normal;color-interpolation:sRGB;color-interpolation-filters:linearRGB;solid-color:#000000;solid-opacity:1;fill:#000000;fill-opacity:1;fill-rule:evenodd;stroke:none;stroke-width:140;stroke-linecap:round;stroke-linejoin:round;stroke-miterlimit:4;stroke-dasharray:none;stroke-dashoffset:0;stroke-opacity:1;color-rendering:auto;image-rendering:auto;shape-rendering:auto;text-rendering:auto;enable-background:accumulate"
       d="M 1473.9766 1797.3398 A 70.007 70.007 0 0 0 1426.0527 1818.957 C 1295.9404 1951.4707 1204.9665 2119.8041 1163.2207 2299.9902 C 1149.4044 2289.469 1134.4458 2280.1811 1118.3906 2272.4121 C 1070.2143 2249.1 1020.0748 2242.5852 973.06641 2243.6309 C 957.39695 2243.9794 942.07561 2245.1693 927.29102 2246.8555 C 789.55794 2262.5636 659.69603 2327.2742 564.2168 2427.7773 C 469.28158 2527.7078 411.43519 2659.7722 402.29492 2797.2793 A 70.007 70.007 0 0 0 402 2804 L 402 2804.7246 A 70.007 70.007 0 0 0 402 2807.3262 L 402 3188 A 70.007 70.007 0 0 0 472.27734 3258 L 558.86914 3257.6562 A 70.007 70.007 0 0 0 575.94141 3257.5879 L 1478.2773 3254 A 70.007 70.007 0 0 0 1527.7988 3134.8047 C 1382.9386 2988.1653 1293.2375 2785.9452 1279.3066 2580.0137 C 1280.1049 2568.2034 1280.3951 2556.2515 1280.1133 2544.1602 C 1279.8371 2532.312 1278.9924 2520.4084 1277.5508 2508.5195 C 1277.5687 2507.5659 1277.5745 2506.6117 1277.5957 2505.6582 C 1282.4353 2288.4151 1373.7063 2072.0935 1525.9473 1917.043 A 70.007 70.007 0 0 0 1473.9766 1797.3398 z M 979.42578 2383.7422 C 1009.3315 2383.6428 1036.3146 2388.2256 1057.4102 2398.4336 C 1081.1855 2409.9383 1102.9399 2431.2548 1117.1406 2456.9395 C 1127.0801 2474.9168 1133.9048 2495.6534 1137.4258 2517.5488 C 1137.2871 2537.781 1137.7779 2557.9934 1138.8867 2578.1582 C 1133.0783 2635.0307 1108.5704 2694.3642 1074.7012 2750.8301 C 964.12436 2935.1802 772.5401 3072.179 562.40039 3117.6387 L 542 3117.7207 L 542 2806.3516 C 548.97436 2702.4173 593.98236 2599.71 665.7168 2524.2012 C 737.9128 2448.2063 839.00824 2397.8308 943.1543 2385.9531 C 955.57378 2384.5367 967.72356 2383.7811 979.42578 2383.7422 z M 1187.1562 2835.2656 C 1219.5566 2934.8289 1267.1811 3029.4011 1328.2871 3114.5938 L 915 3116.2383 C 1023.833 3042.9996 1117.4896 2947.2596 1187.1562 2835.2656 z "
       transform="translate(0,-1048)"
       id="path4162-5" />
    <path
       style="color:#000000;font-style:normal;font-variant:normal;font-weight:normal;font-stretch:normal;font-size:medium;line-height:normal;font-family:sans-serif;text-indent:0;text-align:start;text-decoration:none;text-decoration-line:none;text-decoration-style:solid;text-decoration-color:#000000;letter-spacing:normal;word-spacing:normal;text-transform:none;direction:ltr;block-progression:tb;writing-mode:lr-tb;baseline-shift:baseline;text-anchor:start;white-space:normal;clip-rule:nonzero;display:inline;overflow:visible;visibility:visible;opacity:1;isolation:auto;mix-blend-mode:normal;color-interpolation:sRGB;color-interpolation-filters:linearRGB;solid-color:#000000;solid-opacity:1;fill:#000000;fill-opacity:1;fill-rule:evenodd;stroke:none;stroke-width:70;stroke-linecap:round;stroke-linejoin:round;stroke-miterlimit:4;stroke-dasharray:none;stroke-dashoffset:0;stroke-opacity:1;color-rendering:auto;image-rendering:auto;shape-rendering:auto;text-rendering:auto;enable-background:accumulate"
       d="M 62.714844 1864.7109 A 35.0035 35.0035 0 0 0 41.339844 1873.2383 C -132.5114 2019.7924 -247.32647 2231.6432 -279.36328 2456.0098 C -290.07665 2442.0216 -302.24275 2429.0458 -315.8418 2417.4355 C -353.18296 2385.5554 -398.56018 2366.2098 -444.76172 2357.0664 C -467.78987 2352.5091 -490.92688 2350.4458 -513.86523 2350.291 C -536.80359 2350.1362 -559.54398 2351.889 -581.7832 2354.9648 C -709.61612 2372.6451 -829.70973 2436.2398 -916.17578 2532.0391 C -1002.3025 2627.4622 -1053.2297 2752.8118 -1058.1055 2881.252 A 35.0035 35.0035 0 0 0 -1058.1602 2882.5625 C -1058.1626 2882.6315 -1058.1655 2882.7005 -1058.168 2882.7695 A 35.0035 35.0035 0 0 0 -1058.168 2882.957 A 35.0035 35.0035 0 0 0 -1058.1895 2884 L -1058.1895 3291.2402 A 35.0035 35.0035 0 0 0 -1023.1895 3326.2402 L -923.4668 3326.2402 A 35.0035 35.0035 0 0 0 -920.29883 3326.2402 L 95.898438 3326.2402 A 35.0035 35.0035 0 0 0 117.20312 3263.4727 C -84.886221 3108.4312 -212.29916 2857.5746 -218.29102 2602.9336 C -224.28995 2347.9921 -108.51998 2091.1226 86.457031 1926.7598 A 35.0035 35.0035 0 0 0 62.714844 1864.7109 z M -514.37891 2420.3105 C -495.30725 2420.4383 -476.53312 2422.1362 -458.35156 2425.7344 C -422.13366 2432.902 -387.84986 2447.9988 -361.29297 2470.6719 C -337.20512 2491.237 -318.34686 2518.9989 -306.47266 2549.5957 C -294.56523 2580.2781 -289.34978 2614.1863 -290.08789 2648.2539 C -291.56694 2716.5198 -316.70656 2785.0526 -351.59375 2849.043 C -467.34884 3061.3618 -685.85271 3216.6117 -924.40039 3256.2402 L -988.18945 3256.2402 L -988.18945 2884.7031 C -984.13201 2772.8461 -939.20778 2662.0312 -864.21289 2578.9414 C -789.10056 2495.7214 -683.24076 2439.6634 -572.19336 2424.3047 C -552.81974 2421.6251 -533.45056 2420.1828 -514.37891 2420.3105 z M -257.94922 2815.9082 C -213.76375 2982.642 -123.43171 3137.0027 1.46875 3256.2402 L -691.17383 3256.2402 C -522.86923 3177.7615 -379.38594 3046.2559 -290.13477 2882.5508 C -278.4577 2861.1326 -267.53958 2838.8842 -257.94922 2815.9082 z "
       transform="translate(0,-1048)"
       id="path4162-0-9" />
    <path
       style="color:#000000;font-style:normal;font-variant:normal;font-weight:normal;font-stretch:normal;font-size:medium;line-height:normal;font-family:sans-serif;text-indent:0;text-align:start;text-decoration:none;text-decoration-line:none;text-decoration-style:solid;text-decoration-color:#000000;letter-spacing:normal;word-spacing:normal;text-transform:none;direction:ltr;block-progression:tb;writing-mode:lr-tb;baseline-shift:baseline;text-anchor:start;white-space:normal;clip-rule:nonzero;display:inline;overflow:visible;visibility:visible;opacity:1;isolation:auto;mix-blend-mode:normal;color-interpolation:sRGB;color-interpolation-filters:linearRGB;solid-color:#000000;solid-opacity:1;fill:#000000;fill-opacity:1;fill-rule:evenodd;stroke:none;stroke-width:200;stroke-linecap:round;stroke-linejoin:round;stroke-miterlimit:4;stroke-dasharray:none;stroke-dashoffset:0;stroke-opacity:1;color-rendering:auto;image-rendering:auto;shape-rendering:auto;text-rendering:auto;enable-background:accumulate"
       d="M 3985.1113 67.056641 A 100.01 100.01 0 0 0 3916.6465 97.939453 C 3792.4638 224.41393 3703.0295 382.15126 3656.3633 552.06836 C 3652.1355 549.75719 3647.8402 547.52824 3643.459 545.4082 C 3589.6762 519.38318 3534.8819 512.44286 3484.543 513.59961 C 3467.7633 513.98519 3451.4777 515.27116 3435.8906 517.04883 C 3290.9602 533.57776 3154.9353 601.35838 3054.4668 707.11328 C 2954.7733 812.05236 2894.2234 950.04 2884.4219 1094.4062 A 100.01 100.01 0 0 0 2884 1104 L 2884 1105.2129 A 100.01 100.01 0 0 0 2884 1108.6641 L 2884 1488 A 100.01 100.01 0 0 0 2984.3984 1588 L 3068.6973 1587.6641 A 100.01 100.01 0 0 0 3089.4551 1587.582 L 3990.3984 1584 A 100.01 100.01 0 0 0 4061.1406 1413.7227 C 3922.0368 1272.9103 3835.3437 1077.9697 3821.3887 880.03906 C 3822.1377 868.01114 3822.3934 855.81654 3822.1055 843.46094 C 3821.8228 831.33156 3820.9903 819.13369 3819.5781 806.92773 C 3819.5824 806.72726 3819.5834 806.52664 3819.5879 806.32617 C 3824.2521 596.9582 3912.6313 387.49051 4059.3535 238.06055 A 100.01 100.01 0 0 0 3985.1113 67.056641 z M 3494.9727 713.80273 C 3520.0774 714.1074 3541.3047 718.16024 3556.3438 725.4375 C 3573.8493 733.9083 3591.4452 750.76453 3602.8848 771.45508 C 3610.6386 785.47932 3616.2789 802.12144 3619.4023 820.0332 C 3619.3214 839.14046 3619.7836 858.2255 3620.7793 877.26562 C 3615.1312 927.39035 3593.0135 981.98432 3560.9746 1035.3984 C 3457.633 1207.6865 3279.5174 1337.6338 3084 1384.666 L 3084 1107.3848 C 3090.7144 1010.9497 3132.9138 914.92007 3199.4668 844.86523 C 3266.6735 774.12223 3361.6039 726.81653 3458.5527 715.75977 C 3471.3491 714.30038 3483.5614 713.66425 3494.9727 713.80273 z M 3690.9512 1201.5684 C 3715.8744 1265.4571 3747.01 1326.9208 3783.9219 1384.8184 L 3518.1602 1385.875 C 3583.3486 1332.3983 3641.6662 1270.4655 3690.9512 1201.5684 z "
       transform="translate(0,-1048)"
       id="path4162-2" />
  </g>
</svg>
