<?xml version="1.0" encoding="UTF-8" standalone="no"?>
<!-- Created with Inkscape (http://www.inkscape.org/) -->

<svg
   xmlns:osb="http://www.openswatchbook.org/uri/2009/osb"
   xmlns:dc="http://purl.org/dc/elements/1.1/"
   xmlns:cc="http://creativecommons.org/ns#"
   xmlns:rdf="http://www.w3.org/1999/02/22-rdf-syntax-ns#"
   xmlns:svg="http://www.w3.org/2000/svg"
   xmlns="http://www.w3.org/2000/svg"
   xmlns:sodipodi="http://sodipodi.sourceforge.net/DTD/sodipodi-0.dtd"
   xmlns:inkscape="http://www.inkscape.org/namespaces/inkscape"
   width="2000"
   height="2048"
   id="svg2992"
   version="1.1"
   inkscape:version="0.91 r13725"
   sodipodi:docname="ൖ.svg">
  <defs
     id="defs5498">
    <inkscape:path-effect
       effect="spiro"
       id="path-effect4167"
       is_visible="true" />
    <linearGradient
       id="linearGradient5964"
       osb:paint="solid">
      <stop
         style="stop-color:#000000;stop-opacity:1;"
         offset="0"
         id="stop5966" />
    </linearGradient>
    <marker
       inkscape:stockid="Arrow1Lstart"
       orient="auto"
       refY="0.0"
       refX="0.0"
       id="marker4445"
       style="overflow:visible"
       inkscape:isstock="true">
      <path
         id="path4447"
         d="M 0.0,0.0 L 5.0,-5.0 L -12.5,0.0 L 5.0,5.0 L 0.0,0.0 z "
         style="fill-rule:evenodd;stroke:#000000;stroke-width:1pt;stroke-opacity:1;fill:#000000;fill-opacity:1"
         transform="scale(0.8) translate(12.5,0)" />
    </marker>
    <marker
       inkscape:stockid="Arrow1Mend"
       orient="auto"
       refY="0.0"
       refX="0.0"
       id="Arrow1Mend"
       style="overflow:visible;"
       inkscape:isstock="true">
      <path
         id="path4152"
         d="M 0.0,0.0 L 5.0,-5.0 L -12.5,0.0 L 5.0,5.0 L 0.0,0.0 z "
         style="fill-rule:evenodd;stroke:#000000;stroke-width:1pt;stroke-opacity:1;fill:#000000;fill-opacity:1"
         transform="scale(0.4) rotate(180) translate(10,0)" />
    </marker>
    <marker
       inkscape:stockid="Arrow1Lstart"
       orient="auto"
       refY="0.0"
       refX="0.0"
       id="Arrow1Lstart"
       style="overflow:visible"
       inkscape:isstock="true">
      <path
         id="path4143"
         d="M 0.0,0.0 L 5.0,-5.0 L -12.5,0.0 L 5.0,5.0 L 0.0,0.0 z "
         style="fill-rule:evenodd;stroke:#000000;stroke-width:1pt;stroke-opacity:1;fill:#000000;fill-opacity:1"
         transform="scale(0.8) translate(12.5,0)" />
    </marker>
    <inkscape:path-effect
       effect="spiro"
       id="path-effect3006"
       is_visible="true" />
    <inkscape:path-effect
       effect="spiro"
       id="path-effect4167-4"
       is_visible="true" />
    <inkscape:path-effect
       effect="spiro"
       id="path-effect4167-4-8"
       is_visible="true" />
    <inkscape:path-effect
       effect="spiro"
       id="path-effect4167-4-2"
       is_visible="true" />
    <inkscape:path-effect
       effect="spiro"
       id="path-effect4167-4-2-4"
       is_visible="true" />
    <inkscape:path-effect
       effect="spiro"
       id="path-effect4167-4-2-7"
       is_visible="true" />
    <inkscape:path-effect
       effect="spiro"
       id="path-effect4167-4-2-2"
       is_visible="true" />
    <inkscape:path-effect
       effect="spiro"
       id="path-effect4167-4-2-2-3"
       is_visible="true" />
    <inkscape:path-effect
       effect="spiro"
       id="path-effect4167-4-2-2-1"
       is_visible="true" />
    <inkscape:path-effect
       effect="spiro"
       id="path-effect4167-4-2-2-12"
       is_visible="true" />
    <inkscape:path-effect
       effect="spiro"
       id="path-effect4167-4-2-2-12-9"
       is_visible="true" />
    <inkscape:path-effect
       effect="spiro"
       id="path-effect4167-4-2-2-9"
       is_visible="true" />
    <inkscape:path-effect
       effect="spiro"
       id="path-effect4167-4-2-2-2"
       is_visible="true" />
    <inkscape:path-effect
       effect="spiro"
       id="path-effect4167-4-2-2-25"
       is_visible="true" />
    <inkscape:path-effect
       effect="spiro"
       id="path-effect4167-4-2-2-5"
       is_visible="true" />
    <inkscape:path-effect
       effect="spiro"
       id="path-effect4167-4-2-2-39"
       is_visible="true" />
    <inkscape:path-effect
       effect="spiro"
       id="path-effect4167-4-2-2-36"
       is_visible="true" />
    <inkscape:path-effect
       effect="spiro"
       id="path-effect4167-4-2-2-53"
       is_visible="true" />
    <inkscape:path-effect
       effect="spiro"
       id="path-effect4167-4-2-2-53-6"
       is_visible="true" />
    <inkscape:path-effect
       effect="spiro"
       id="path-effect4167-4-2-2-53-9"
       is_visible="true" />
    <inkscape:path-effect
       effect="spiro"
       id="path-effect4167-4-2-2-27"
       is_visible="true" />
  </defs>
  <sodipodi:namedview
     inkscape:window-height="843"
     inkscape:window-width="1600"
     inkscape:pageshadow="2"
     inkscape:pageopacity="0.0"
     borderopacity="1.0"
     bordercolor="#666666"
     pagecolor="#ffffff"
     id="base"
     showgrid="true"
     showguides="true"
     inkscape:guide-bbox="true"
     inkscape:zoom="0.35355339"
     inkscape:cx="1302.8273"
     inkscape:cy="1398.792"
     inkscape:window-x="1600"
     inkscape:window-y="0"
     inkscape:current-layer="layer1"
     inkscape:window-maximized="1">
    <sodipodi:guide
       orientation="horizontal"
       position="0,600"
       id="guide5596" />
    <inkscape:grid
       type="xygrid"
       id="grid3769"
       empspacing="3"
       visible="true"
       enabled="true"
       snapvisiblegridlinesonly="true"
       spacingx="4px"
       units="px"
       dotted="true"
       spacingy="4px" />
    <sodipodi:guide
       orientation="0,1"
       position="-1040,1600"
       id="guide2985" />
  </sodipodi:namedview>
  <metadata
     id="metadata5594">
    <rdf:RDF>
      <cc:Work
         rdf:about="">
        <dc:format>image/svg+xml</dc:format>
        <dc:type
           rdf:resource="http://purl.org/dc/dcmitype/StillImage" />
        <dc:title />
      </cc:Work>
    </rdf:RDF>
  </metadata>
  <g
     inkscape:label="Layer 1"
     inkscape:groupmode="layer"
     id="layer1"
     transform="translate(0,1048)">
    <path
       style="fill:none;fill-rule:evenodd;stroke:#000000;stroke-width:140;stroke-linecap:round;stroke-linejoin:round;stroke-miterlimit:4;stroke-dasharray:none;stroke-opacity:1;image-rendering:auto"
       d="m 324.46177,-587.41809 c -63.88073,59.36327 -99.64817,147.77155 -95.01499,234.85358 3.27402,61.53617 25.89757,121.44466 61.40042,171.81297 35.50286,50.36832 83.56211,91.347292 137.30648,121.496301 107.48873,60.2980191 234.67441,76.717969 357.84869,72.501774 103.49376,-3.54254 209.14391,-21.8006877 298.10943,-74.797352 44.4827,-26.498333 84.1954,-61.570033 113.5688,-104.209013 29.3734,-42.63898 48.1478,-92.97906 50.9273,-144.68158 3.8574,-71.7524 -24.1072,-144.32798 -73.9226,-196.1132 -49.8154,-51.78521 -120.5384,-82.42013 -192.3471,-85.02645 -61.92268,-2.24751 -125.20426,16.43301 -173.11165,55.73125 -47.90739,39.29823 -79.07828,99.69353 -78.78194,161.65627 0.20396,42.6467 14.74335,84.28093 35.75757,121.39138 21.01422,37.11045 48.37039,70.19226 76.15904,102.54305 27.78866,32.35078 56.25914,64.315358 79.91927,99.797477 23.66014,35.482118 42.52846,74.940876 48.92323,117.105906 C 981.26232,132.9674 958.37138,203.01906 912.75111,252.19959 867.13085,301.38012 800.08224,329.31414 733.00078,329.41555 664.68682,329.51883 596.7766,301.03446 548.975,252.23061 501.1734,203.42677 474.10429,134.94154 475.61802,66.644273 c 1.88137,-84.884424 45.34966,-163.226581 95.12126,-232.013883 49.77161,-68.78729 107.42734,-132.79427 144.93098,-208.96764 50.88369,-103.34949 60.82319,-226.18616 27.21805,-336.37219 -33.60514,-110.18604 -110.40344,-206.56893 -210.30213,-263.93198"
       id="path4165-6-0-2"
       inkscape:path-effect="#path-effect4167-4-2-2"
       inkscape:original-d="m 324.46177,-587.41809 c 0,0 -120.1681,154.23793 -95.01499,234.85358 66.12415,211.92772 334.57505,369.0361 556.55559,365.811045 188.1815,-2.734004 443.62693,-136.445945 462.60553,-323.687945 13.016,-128.41526 -137.3596,-274.6529 -266.2697,-281.13965 -110.76908,-5.5739 -232.09643,108.25947 -251.89359,217.38752 -29.8865,164.7436 260.51369,274.574723 240.75911,440.837813 C 957.25518,184.04119 851.20138,327.13147 733.00078,329.41555 610.4156,331.78436 488.59469,189.95426 475.61802,66.644273 460.17005,-80.149136 698.75568,-207.83238 715.67026,-374.33725 736.81334,-582.46691 532.58618,-974.64142 532.58618,-974.64142"
       inkscape:connector-curvature="0"
       sodipodi:nodetypes="caaaaaaasac" />
    <path
       style="color:#000000;font-style:normal;font-variant:normal;font-weight:normal;font-stretch:normal;font-size:medium;line-height:normal;font-family:sans-serif;text-indent:0;text-align:start;text-decoration:none;text-decoration-line:none;text-decoration-style:solid;text-decoration-color:#000000;letter-spacing:normal;word-spacing:normal;text-transform:none;direction:ltr;block-progression:tb;writing-mode:lr-tb;baseline-shift:baseline;text-anchor:start;white-space:normal;clip-rule:nonzero;display:inline;overflow:visible;visibility:visible;opacity:1;isolation:auto;mix-blend-mode:normal;color-interpolation:sRGB;color-interpolation-filters:linearRGB;solid-color:#000000;solid-opacity:1;fill:#000000;fill-opacity:1;fill-rule:evenodd;stroke:none;stroke-width:140;stroke-linecap:round;stroke-linejoin:round;stroke-miterlimit:4;stroke-dasharray:none;stroke-dashoffset:0;stroke-opacity:1;color-rendering:auto;image-rendering:auto;shape-rendering:auto;text-rendering:auto;enable-background:accumulate"
       d="M 650.20508,506.90234 A 70.007,70.007 0 0 0 613.72852,638.0625 c 83.97004,48.21663 149.95819,131.03134 178.20507,223.64844 22.48552,73.72649 21.58103,155.61766 -1.26562,229.78706 -1.13451,3.3542 -2.27467,6.7054 -3.2793,10.1094 -5.23308,15.459 -11.35157,30.576 -18.51953,45.1348 -31.8096,64.6083 -86.10932,125.9741 -138.8418,198.8535 -18.87065,26.0804 -37.64048,54.2887 -54.17382,84.5859 -44.59428,-25.4628 -83.66762,-59.3627 -111.79102,-99.2617 -28.51198,-40.4503 -46.22172,-88.3441 -48.71484,-135.2031 -3.48416,-65.4855 24.7274,-135.2163 72.76562,-179.8574 A 70.007,70.007 0 1 0 392.81055,913.30469 c -79.72324,74.08547 -123.04786,181.17111 -117.26563,289.84961 4.05493,76.2134 31.59415,148.1374 74.08789,208.4238 42.34075,60.0693 98.45375,107.5378 160.27344,142.2168 5.71603,3.2065 11.50323,6.1857 17.28906,9.1699 -3.14897,17.534 -5.14878,35.5507 -5.56054,54.129 -1.94633,87.816 31.86767,173.3661 93.33203,236.1191 61.46473,62.7534 146.29831,98.3359 234.14062,98.2031 86.44377,-0.1307 171.07408,-35.0488 230.96288,-99.6113 a 70.007,70.007 0 0 0 0,0 c 60.2192,-64.9188 89.8549,-154.5419 76.3398,-243.6563 -0.9141,-6.0271 -2.0888,-11.9255 -3.3476,-17.7773 28.2963,-10.7348 56.049,-23.8054 82.871,-39.7832 52.0762,-31.0219 99.4687,-72.4918 135.3907,-124.6367 36.0699,-52.36 59.6258,-114.4917 63.1816,-180.6348 4.9668,-92.3881 -29.9798,-182.4986 -93.375,-248.40038 C 1277.9315,931.21559 1190.8904,893.73191 1100.877,890.46484 1048.1131,888.54976 994.54349,898.4932 945.89844,921.19727 942.48252,887.30904 935.85015,853.68052 925.84375,820.87109 886.88033,693.11614 799.27068,583.16377 683.44336,516.6543 a 70.007,70.007 0 0 0 -33.23828,-9.75196 z M 1095.7988,1030.373 c 53.604,1.9456 108.01,25.7316 144.4395,63.6016 36.2358,37.6686 57.2187,92.7095 54.4707,143.8262 -2.0032,37.2619 -15.9972,75.8105 -38.6738,108.7285 -22.8249,33.1329 -54.8589,61.8063 -91.7481,83.7812 -21.2633,12.6666 -44.1799,23.075 -68.2793,31.6504 -27.1459,-40.5648 -57.4746,-74.3152 -84.5469,-105.832 -27.21508,-31.6831 -51.37733,-61.4583 -68.34567,-91.4238 -16.77446,-29.6232 -26.54295,-60.2772 -26.67187,-87.2324 -0.18303,-38.2699 20.94904,-80.7642 53.17773,-107.2012 32.94761,-27.0268 80.03291,-41.5733 126.17771,-39.8985 z m -277.08591,298.5118 c 0.87197,1.5864 1.68897,3.2379 2.57617,4.8047 a 70.007,70.007 0 0 0 0.002,0 c 25.0601,44.2553 55.60852,80.6436 83.9707,113.6621 13.46299,15.6732 26.36828,30.5943 38.48242,45.2382 -14.61396,1.2165 -29.31304,2.1899 -44.13672,2.6973 -65.15332,2.2302 -129.94984,-1.9569 -190.5332,-15.2851 10.33684,-17.5363 21.85452,-35.0312 34.37695,-52.3379 22.9337,-31.6958 49.27554,-63.8956 75.26172,-98.7793 z m -156.7168,284.0742 c 80.30443,19.7978 163.01779,24.9633 242.40039,22.2461 37.0268,-1.2674 74.90857,-4.3251 112.83012,-10.0899 0.2428,1.3389 0.5659,2.6957 0.7675,4.0254 6.6021,43.5319 -9.5412,94.011 -40.56246,127.4532 -31.35176,33.7984 -80.81798,54.7501 -128.53711,54.8222 -48.78559,0.074 -99.77364,-21.3118 -133.91211,-56.166 -34.13882,-34.8546 -54.46197,-86.2761 -53.38086,-135.0547 0.0532,-2.4012 0.24404,-4.8217 0.39453,-7.2363 z"
       id="path4165-6-0-2-7"
       inkscape:connector-curvature="0" />
    <path
       style="fill:none;fill-rule:evenodd;stroke:#000000;stroke-width:70;stroke-linecap:round;stroke-linejoin:round;stroke-miterlimit:4;stroke-dasharray:none;stroke-opacity:1;image-rendering:auto"
       d="m -1877.2153,-611.08923 c -68.4216,66.90838 -104.3747,165.61364 -95.015,260.85358 5.9921,60.97299 29.6913,119.73748 65.3908,169.52859 35.6995,49.79111 83.1536,90.717983 136.2638,121.261755 106.2203,61.0875441 232.4661,79.934621 354.901,75.020675 102.557,-4.116145 206.7002,-25.0038326 294.2864,-78.515935 43.7931,-26.756051 82.9518,-61.535255 112.6811,-103.366915 29.72937,-41.83166 49.8431,-90.8135 55.63804,-141.80507 8.60303,-75.70086 -15.70247,-154.6078 -65.55944,-212.21787 -49.8569,-57.61006 -124.5462,-93.0076 -200.7103,-94.92178 -65.699,-1.65117 -132.3178,21.72021 -180.3424,66.58361 -48.0246,44.86339 -76.1003,111.24182 -71.5512,176.80391 2.944,42.42856 18.8633,83.15618 40.4385,119.80809 21.5751,36.65192 48.7419,69.65456 76.0582,102.25314 27.3164,32.59858 55.0021,65.097863 77.794,101.005741 22.792,35.907878 40.6873,75.635036 46.4684,117.770879 9.0988,66.31712 -13.7434,135.95968 -59.1185,185.17199 -45.375,49.2123 -112.1461,77.50667 -179.0844,77.59921 -68.1736,0.0942 -135.7965,-28.78535 -183.3438,-77.6413 -47.5473,-48.85595 -74.5414,-116.95808 -74.039,-185.1299 0.6502,-88.237649 44.7697,-170.22442 95.1888,-242.64142 50.4191,-72.41701 108.8046,-140.43147 144.8635,-220.96756 45.156,-100.85405 51.8647,-218.37001 18.4798,-323.70781 -33.3849,-105.33779 -106.5588,-197.53639 -201.5639,-253.96895"
       id="path4165-6-0-2-5"
       inkscape:path-effect="#path-effect4167-4-2-2-53"
       inkscape:original-d="m -1877.2153,-611.08923 c 0,0 -124.1255,173.01176 -95.015,260.85358 69.8364,210.73357 334.575,369.03612 556.5556,365.81102 188.1815,-2.734 439.51282,-136.9087 462.60554,-323.68792 16.62575,-134.47288 -130.90514,-301.15755 -266.26974,-307.13965 -116.6423,-5.15471 -234.2902,127.9661 -251.8936,243.38752 -25.244,165.51859 260.5137,274.57472 240.7591,440.83785 -13.9485,117.3969 -120.0023,260.4872 -238.2029,262.7712 -122.5852,2.3688 -244.4061,-139.4613 -257.3828,-262.7712 -15.4479,-146.79345 225.2034,-290.21989 240.0523,-463.60898 17.2359,-201.26173 -183.0841,-577.67676 -183.0841,-577.67676"
       inkscape:connector-curvature="0"
       sodipodi:nodetypes="caaaaaaasac" />
    <path
       style="color:#000000;font-style:normal;font-variant:normal;font-weight:normal;font-stretch:normal;font-size:medium;line-height:normal;font-family:sans-serif;text-indent:0;text-align:start;text-decoration:none;text-decoration-line:none;text-decoration-style:solid;text-decoration-color:#000000;letter-spacing:normal;word-spacing:normal;text-transform:none;direction:ltr;block-progression:tb;writing-mode:lr-tb;baseline-shift:baseline;text-anchor:start;white-space:normal;clip-rule:nonzero;display:inline;overflow:visible;visibility:visible;opacity:1;isolation:auto;mix-blend-mode:normal;color-interpolation:sRGB;color-interpolation-filters:linearRGB;solid-color:#000000;solid-opacity:1;fill:#000000;fill-opacity:1;fill-rule:evenodd;stroke:none;stroke-width:70;stroke-linecap:round;stroke-linejoin:round;stroke-miterlimit:4;stroke-dasharray:none;stroke-dashoffset:0;stroke-opacity:1;color-rendering:auto;image-rendering:auto;shape-rendering:auto;text-rendering:auto;enable-background:accumulate"
       d="m -1752.6621,661.99414 a 35.0035,35.0035 0 0 0 -15.7051,65.30469 c 87.3985,51.91424 155.3623,137.54732 186.0742,234.45117 30.7119,96.9038 24.482,206.0511 -17.0586,298.8301 -33.304,74.3832 -89.8575,140.8898 -141.6445,215.2715 -25.1288,36.0925 -49.4232,75.2922 -67.9707,117.3847 -8.6458,-4.2652 -17.2044,-8.6982 -25.5605,-13.5039 -49.2077,-28.2994 -92.8361,-66.0787 -125.2696,-111.3144 -32.3749,-45.1542 -53.6743,-98.3467 -59.0019,-152.5586 -8.2763,-84.2152 24.151,-173.243 84.6523,-232.4063 a 35.0035,35.0035 0 1 0 -48.9414,-50.0469 c -76.3419,74.6536 -115.8181,183.0362 -105.375,289.3008 6.6566,67.7341 32.7533,132.0701 71.7774,186.4981 38.9657,54.3465 90.247,98.4208 147.2597,131.209 12.223,7.0294 24.7034,13.4211 37.332,19.4121 -6.3534,25.2602 -10.1661,51.384 -10.3652,78.4082 -0.5717,77.5821 29.6876,154.0376 83.9551,209.7988 54.3074,55.8021 130.3848,88.3381 208.4746,88.2305 76.769,-0.1061 152.3252,-31.9978 204.7676,-88.875 52.5618,-57.0068 78.6821,-136.2529 68.0625,-213.6543 -2.3298,-16.9808 -6.3863,-33.3575 -11.6113,-49.1778 36.092,-12.1617 71.14,-27.8704 104.2695,-48.1113 47.3868,-28.9517 90.1312,-66.7648 122.9609,-112.959 32.8846,-46.2715 55.3498,-100.6055 61.88674,-158.1269 9.74629,-85.761 -17.34894,-173.7625 -73.87114,-239.0742 -56.5332,-65.3247 -139.8733,-104.8358 -226.2968,-107.0079 -69.3603,-1.7432 -139.1743,20.7597 -193.166,65.5313 -0.3439,-48.7694 -7.737,-97.50876 -22.5372,-144.20704 -36.0578,-113.77173 -114.4409,-212.53545 -217.0527,-273.48633 a 35.0035,35.0035 0 0 0 -20.0449,-5.12109 z m 440.3809,427.25196 c 3.5562,-0.082 7.1113,-0.08 10.6621,0.01 65.9046,1.6563 131.9425,32.9404 175.123,82.8359 43.1917,49.9083 64.7097,119.7227 57.25,185.3633 -5.0528,44.4618 -22.8166,88.0885 -49.3906,125.4804 -26.6289,37.4691 -62.201,69.215 -102.4004,93.7754 -30.0772,18.3761 -62.6205,32.7085 -96.7363,43.668 -3.5641,-6.2499 -7.2145,-12.4193 -11.0196,-18.4141 -24.5437,-38.6676 -53.3235,-72.2758 -80.5175,-104.7285 -27.1846,-32.4412 -53.0039,-64.0309 -72.7227,-97.5293 -19.6433,-33.3699 -33.2356,-69.1949 -35.6836,-104.4746 -3.7478,-54.0143 20.1151,-111.0545 60.5273,-148.8066 38.1157,-35.6067 91.5642,-55.9519 144.9083,-57.1797 z m -262.9473,273.3711 c 8.1956,25.7789 19.6377,50.1188 32.8711,72.5996 23.4314,39.8054 51.9463,74.2226 79.3945,106.9785 27.0726,32.3078 53.2709,63.3106 74.1758,95.9707 -35.886,6.7047 -72.7451,10.4742 -109.6914,11.957 -83.6303,3.3566 -168.0997,-5.0463 -245.3281,-30.3906 15.8423,-35.5976 36.9637,-70.4227 60.2597,-103.8828 34.4012,-49.4104 74.1676,-98.4943 108.3184,-153.2324 z m -190.9688,323.5156 c 87.2218,28.7893 180.3401,37.5532 270.5254,33.9336 46.2404,-1.8558 93.1919,-6.9845 139.2774,-16.9297 4.619,13.2746 8.0031,26.6833 9.8457,40.1133 7.578,55.2327 -11.9874,115.2716 -50.1758,156.6895 -38.3078,41.5473 -96.2928,66.2453 -153.4004,66.3242 -58.2574,0.08 -117.4277,-25.143 -158.2148,-67.0528 -40.8271,-41.9508 -64.5542,-101.6995 -64.1211,-160.4609 0.1296,-17.5972 2.3928,-35.1543 6.2636,-52.6172 z"
       id="path4165-6-0-2-5-1"
       inkscape:connector-curvature="0" />
    <path
       style="color:#000000;font-style:normal;font-variant:normal;font-weight:normal;font-stretch:normal;font-size:medium;line-height:normal;font-family:sans-serif;text-indent:0;text-align:start;text-decoration:none;text-decoration-line:none;text-decoration-style:solid;text-decoration-color:#000000;letter-spacing:normal;word-spacing:normal;text-transform:none;direction:ltr;block-progression:tb;writing-mode:lr-tb;baseline-shift:baseline;text-anchor:start;white-space:normal;clip-rule:nonzero;display:inline;overflow:visible;visibility:visible;opacity:1;isolation:auto;mix-blend-mode:normal;color-interpolation:sRGB;color-interpolation-filters:linearRGB;solid-color:#000000;solid-opacity:1;fill:#000000;fill-opacity:1;fill-rule:evenodd;stroke:none;stroke-width:200;stroke-linecap:round;stroke-linejoin:round;stroke-miterlimit:4;stroke-dasharray:none;stroke-dashoffset:0;stroke-opacity:1;color-rendering:auto;image-rendering:auto;shape-rendering:auto;text-rendering:auto;enable-background:accumulate"
       d="m 1936.2148,-1076.666 a 100.01,100.01 0 0 0 -52.1074,187.37303 c 77.1435,44.29673 138.4987,121.29521 164.4492,206.38281 20.4103,66.92209 19.763,141.8804 -0.5214,209.67969 -1.5451,4.49279 -3.0308,9.0088 -4.3653,13.58789 -4.6814,13.62649 -10.0886,26.94994 -16.3965,39.76172 -29.3692,59.65168 -82.2309,119.88438 -136.2324,194.51758 -13.6194,18.82285 -27.3647,38.86874 -40.373,60.16406 -30.4506,-20.99663 -56.8675,-46.30468 -76.7676,-74.53711 -25.5158,-36.19961 -41.1189,-78.94507 -43.2774,-119.51367 -2.9917,-56.22988 21.9819,-117.9555 63.2305,-156.28711 A 100.01,100.01 0 1 0 1657.707,-662.04492 c -86.5128,80.39493 -133.0754,195.48574 -126.8008,313.41992 4.3896,82.50374 34.0337,159.57627 79.5235,224.11328 45.0752,63.948684 104.3307,114.020142 169.2793,150.599611 -1.4524,12.085499 -2.4689,24.371853 -2.7481,36.96875 -2.1317,96.181169 34.5708,189.044089 101.8907,257.775389 67.3203,68.73185 159.4075,107.35641 255.6191,107.21094 94.7419,-0.14324 186.9082,-38.05416 252.9121,-109.20899 65.2383,-70.32965 97.6651,-166.03836 84.6797,-263.039058 21.869,-9.390511 43.4403,-20.23466 64.5449,-32.806641 55.3307,-32.9604433 106.0137,-77.171621 144.7422,-133.390621 38.9402,-56.52628 64.5431,-123.71123 68.4316,-196.04297 5.4423,-101.23203 -32.4959,-198.85683 -101.7109,-270.8086 -68.9381,-71.66406 -162.9717,-112.08452 -260.7871,-115.63476 -44.2582,-1.60637 -89.0302,4.46397 -131.6152,18.70312 -3.911,-22.58039 -9.0793,-44.99747 -15.8106,-67.06836 -41.2599,-135.28448 -133.5043,-251.05111 -256.1582,-321.48049 a 100.01,100.01 0 0 0 -47.4844,-13.9316 z m 443.8145,583.64647 c 45.802,1.6624 93.2135,22.51354 123.9062,54.41992 30.4161,31.61867 48.4074,79.14519 46.1348,121.41797 -1.6705,31.0733 -13.6152,64.56667 -33.4219,93.31836 -20.0183,29.05894 -48.7617,54.99113 -82.3964,75.02734 -13.1872,7.85559 -27.1846,14.80837 -41.836,20.97656 -24.6513,-33.93838 -50.3066,-62.65136 -72.8808,-88.93164 -26.9694,-31.397 -49.7638,-59.75483 -64.9981,-86.6582 -14.9574,-26.41429 -22.6786,-52.36535 -22.7754,-72.5957 -0.1344,-28.11592 16.6958,-62.9361 42.2051,-83.86133 26.5364,-21.76766 66.6797,-34.5427 106.0625,-33.11328 z m -278.7109,321.73437 c 21.2646,31.6493 44.1503,58.75524 65.3222,83.417972 -41.8632,0.658326 -83.1463,-1.368212 -122.7031,-7.08789 3.0281,-4.388333 5.9558,-8.769732 9.1367,-13.166012 14.6776,-20.28523 31.1829,-41.20158 48.2442,-63.16407 z m -121.875,268.654301 c 70.9917,13.479729 142.6203,16.796139 211.2988,14.445309 27.3416,-0.93589 55.2743,-2.83673 83.4531,-6.02343 -2.5294,27.63315 -14.6411,56.76177 -33.4414,77.02929 -25.2367,27.20619 -67.165,45.16306 -106.5859,45.22266 -40.4164,0.0611 -84.1528,-18.28239 -112.4356,-47.1582 -21.402,-21.85073 -36.5526,-52.42235 -42.289,-83.515629 z"
       id="path4165-6-0-2-0"
       inkscape:connector-curvature="0" />
  </g>
</svg>
