<?xml version="1.0" encoding="UTF-8" standalone="no"?>
<!-- Created with Inkscape (http://www.inkscape.org/) -->

<svg
   xmlns:dc="http://purl.org/dc/elements/1.1/"
   xmlns:cc="http://creativecommons.org/ns#"
   xmlns:rdf="http://www.w3.org/1999/02/22-rdf-syntax-ns#"
   xmlns:svg="http://www.w3.org/2000/svg"
   xmlns="http://www.w3.org/2000/svg"
   xmlns:sodipodi="http://sodipodi.sourceforge.net/DTD/sodipodi-0.dtd"
   xmlns:inkscape="http://www.inkscape.org/namespaces/inkscape"
   width="2000"
   height="2048"
   id="svg2992"
   version="1.1"
   inkscape:version="0.91 r13725"
   sodipodi:docname="ൡ.svg">
  <defs
     id="defs5498">
    <inkscape:path-effect
       effect="spiro"
       id="path-effect4140"
       is_visible="true" />
    <inkscape:path-effect
       effect="spiro"
       id="path-effect4159"
       is_visible="true" />
    <inkscape:path-effect
       effect="spiro"
       id="path-effect4140-0"
       is_visible="true" />
    <inkscape:path-effect
       effect="spiro"
       id="path-effect4140-9"
       is_visible="true" />
    <inkscape:path-effect
       effect="spiro"
       id="path-effect4140-5"
       is_visible="true" />
    <inkscape:path-effect
       effect="spiro"
       id="path-effect4140-5-0"
       is_visible="true" />
    <inkscape:path-effect
       effect="spiro"
       id="path-effect4140-5-8"
       is_visible="true" />
  </defs>
  <sodipodi:namedview
     inkscape:window-height="704"
     inkscape:window-width="1366"
     inkscape:pageshadow="2"
     inkscape:pageopacity="0.0"
     borderopacity="1.0"
     bordercolor="#666666"
     pagecolor="#ffffff"
     id="base"
     showgrid="true"
     showguides="true"
     inkscape:guide-bbox="true"
     inkscape:zoom="0.227"
     inkscape:cx="-1831.0458"
     inkscape:cy="-323.98808"
     inkscape:window-x="-4"
     inkscape:window-y="0"
     inkscape:current-layer="layer1"
     inkscape:window-maximized="1">
    <sodipodi:guide
       orientation="horizontal"
       position="0,600"
       id="guide5596" />
    <inkscape:grid
       type="xygrid"
       id="grid3769"
       empspacing="3"
       visible="true"
       enabled="true"
       snapvisiblegridlinesonly="true"
       spacingx="4px"
       units="px"
       dotted="true"
       spacingy="4px" />
    <sodipodi:guide
       orientation="0,1"
       position="-1040,1600"
       id="guide2985" />
  </sodipodi:namedview>
  <metadata
     id="metadata5594">
    <rdf:RDF>
      <cc:Work
         rdf:about="">
        <dc:format>image/svg+xml</dc:format>
        <dc:type
           rdf:resource="http://purl.org/dc/dcmitype/StillImage" />
        <dc:title />
      </cc:Work>
    </rdf:RDF>
  </metadata>
  <g
     inkscape:label="Layer 1"
     inkscape:groupmode="layer"
     id="layer1"
     transform="translate(0,1048)">
    <path
       style="fill:none;fill-rule:evenodd;stroke:#000000;stroke-width:140;stroke-linecap:round;stroke-linejoin:round;stroke-miterlimit:4;stroke-dasharray:none;stroke-opacity:1"
       d="m -565.24391,147.39113 c -11.06467,-72.130453 13.36037,-148.8553873 64.08762,-201.314661 50.72725,-52.459269 126.58923,-79.445539 199.05039,-70.807899 72.46116,8.63764 139.85383,52.7004 176.82819,115.6140341 36.97437,62.9136339 42.679475,143.2301959 14.96934,210.7385459 -15.77766,38.43805 -41.91426,72.67288 -75.29227,97.41813 -33.378,24.74524 -73.949,39.84496 -115.43285,42.19198 -47.47492,2.68597 -95.23544,-11.31038 -135.64394,-36.37501 -40.4085,-25.06463 -73.64072,-60.83336 -98.69128,-101.25058 -32.75771,-52.85214 -51.8402,-113.757468 -57.71733,-175.65961 -5.87713,-61.902141 1.26862,-124.763272 18.35271,-184.55081 28.60752,-100.115 85.98131,-192.56709 166.25696,-258.87866 80.27564,-66.31157 183.57867,-105.48051 287.69249,-104.17032 71.990036,0.90594 143.610339,21.02151 205.693395,57.47806 62.083055,36.45656 114.299745,89.06886 151.984215,150.41433 37.68447,61.34547 60.74767,130.97927 72.49717,202.0098 11.74949,71.03052 12.30073,143.376954 12.30073,215.37269 l 0,249.69984 0,-249.69984 c 0,-68.755818 0.3845,-137.747915 9.76172,-205.86128 9.37722,-68.11336 27.81795,-135.35413 58.94586,-196.66005 31.12791,-61.30592 74.95642,-116.41077 129.22754,-158.62461 54.27112,-42.21384 118.84115,-71.32884 186.63008,-82.81899 129.73092,-21.98925 267.25314,23.10951 364.82977,111.38432 97.5766,88.27481 155.5043,216.64603 166.1409,347.79671 7.7597,95.678636 -9.4147,195.08105 -59.8073,276.78289 -25.1964,40.85092 -58.4845,76.87976 -98.1456,103.91042 -39.661,27.03066 -85.73019,44.92604 -133.43857,50.17621 -85.93157,9.45653 -175.91962,-24.70662 -232.5929,-89.98908 -28.33665,-32.64123 -48.42455,-72.42554 -57.62847,-114.65945 -9.20392,-42.2339 -7.4794,-86.831937 5.19197,-128.158097 20.13474,-65.667064 67.61693,-121.406963 126.39558,-156.940643 58.77864,-35.53368 128.17109,-51.61487 196.85562,-51.69885 132.40307,-0.16189 263.68497,60.29553 349.63227,161.011217 85.9473,100.715682 125.0083,239.871323 104.0278,370.601613 -20.9804,130.73029 -101.6235,250.67505 -214.77,319.43887 -113.1464,68.76382 -256.75357,85.10526 -382.45687,43.52079"
       id="path4138"
       inkscape:path-effect="#path-effect4140"
       inkscape:original-d="m -565.24391,147.39113 c 0,0 416.17394,-93.487842 454.93554,54.23002 19.997053,76.2074 -112.03788,135.639 -190.72512,139.61011 -90.47171,4.56583 -185.12356,-61.57173 -234.33522,-137.62559 -65.61693,-101.40726 -85.69611,-248.664893 -39.36462,-360.21042 74.32244,-178.9352 262.09344,-390.12116 453.94945,-363.04898 252.8281,35.67574 442.47551,369.94214 442.47551,625.27488 l 0,249.69984 0,-249.69984 c -6.55358,-299.62114 137.7292,-604.20295 384.5652,-643.96493 231.0155,-37.2135 500.27267,227.20984 530.97067,459.18103 22.7465,171.885261 -118.2872,421.02761 -291.39147,430.86952 -145.8246,8.29091 -306.0914,-188.27307 -285.0294,-332.806627 18.4931,-126.904953 215.8651,-278.747253 323.2512,-208.639493 252.88467,165.097639 -239.5668,846.57249 -143.5668,894.57249"
       inkscape:connector-curvature="0"
       sodipodi:nodetypes="caaaaasccaaaaac" />
    <path
       style="color:#000000;font-style:normal;font-variant:normal;font-weight:normal;font-stretch:normal;font-size:medium;line-height:normal;font-family:sans-serif;text-indent:0;text-align:start;text-decoration:none;text-decoration-line:none;text-decoration-style:solid;text-decoration-color:#000000;letter-spacing:normal;word-spacing:normal;text-transform:none;direction:ltr;block-progression:tb;writing-mode:lr-tb;baseline-shift:baseline;text-anchor:start;white-space:normal;clip-rule:nonzero;display:inline;overflow:visible;visibility:visible;opacity:1;isolation:auto;mix-blend-mode:normal;color-interpolation:sRGB;color-interpolation-filters:linearRGB;solid-color:#000000;solid-opacity:1;fill:#000000;fill-opacity:1;fill-rule:evenodd;stroke:none;stroke-width:140;stroke-linecap:round;stroke-linejoin:round;stroke-miterlimit:4;stroke-dasharray:none;stroke-dashoffset:0;stroke-opacity:1;color-rendering:auto;image-rendering:auto;shape-rendering:auto;text-rendering:auto;enable-background:accumulate"
       d="m 1372.1914,806.18945 c -28.699,-0.44007 -57.5796,1.68412 -86.3262,6.55664 -79.7773,13.52219 -154.7122,47.42458 -217.9101,96.58203 -63.1574,49.12585 -113.19372,112.32728 -148.66408,182.18558 -3.343,6.584 -6.42334,13.2532 -9.5,19.9218 -6.80125,-13.4469 -13.97381,-26.7538 -21.94532,-39.7304 C 844.40923,1000.996 784.32446,940.23731 711.66211,897.56836 639.00363,854.90168 555.84681,831.51968 471.4043,830.45703 349.1555,828.91863 230.82417,874.18358 138.25,950.6543 c -92.279572,76.2274 -156.709669,180.6714 -188.982422,293.6133 -19.228647,67.2926 -27.537587,138.7441 -20.734375,210.4004 4.042978,42.5835 13.594274,84.896 28.722656,125.455 a 70.007,70.007 0 0 0 11.597657,28.3614 c 8.036835,17.8451 17.159965,35.282 27.5859371,52.1035 29.9121549,48.261 70.1433749,92.1323 121.2929669,123.8594 51.48483,31.935 112.68345,50.3875 176.49414,46.7773 55.81904,-3.158 108.93401,-23.0541 153.16797,-55.8476 44.14695,-32.7289 77.81595,-77.017 98.36133,-127.0704 36.39771,-88.6733 29.18946,-190.147 -19.37695,-272.7851 -48.56645,-82.6381 -133.71358,-138.3106 -228.89258,-149.6563 -75.40324,-8.9883 -151.16775,10.6385 -212.550783,53.4043 25.275073,-85.9457 75.110363,-165.0335 142.474613,-220.6797 67.97713,-56.1523 156.25357,-89.22646 242.23242,-88.14449 59.53756,0.74924 119.61933,17.59928 171.12695,47.84569 51.50377,30.2442 95.85269,74.7114 127.78516,126.6934 31.98573,52.0687 52.53738,113.0463 63.08203,176.7929 10.55808,63.828 11.36133,132.3109 11.36133,203.9493 l 0,249.6992 a 70.007,70.007 0 0 0 140,0 l 0,-249.6992 c 0,-68.4949 0.56595,-134.2718 9.10742,-196.3145 8.53503,-61.996 25.18953,-121.682 52.01563,-174.5156 26.7854,-52.7535 64.4061,-99.7607 109.791,-135.0625 45.3442,-35.27026 99.5491,-59.59852 155.3496,-69.05666 106.1467,-17.99175 224.0624,19.99893 306.1699,94.27926 40.8345,36.9418 73.969,83.0092 98.2149,133.9239 -44.8614,-12.2208 -91.3997,-18.6707 -138.3672,-18.6133 -79.553,0.097 -161.3338,18.4778 -232.9844,61.793 -72.2311,43.6661 -131.1835,111.7846 -157.1054,196.3261 -16.2868,53.1185 -18.4363,109.5542 -6.6622,163.5821 11.7686,54.0018 37.1028,104.1073 73.1622,145.6445 72.7951,83.8535 183.6771,125.7226 293.1113,113.6797 60.0293,-6.6061 116.5774,-28.7736 165.2031,-61.9141 48.5185,-33.0675 88.297,-76.3606 118.3008,-125.0058 35.8989,-58.203 56.9407,-122.444 66.25,-187.7657 56.1358,81.5312 80.9663,186.8957 65.3535,284.1797 -17.5949,109.6349 -87.1193,213.0452 -182.0078,270.7129 -94.8886,57.6677 -218.6981,71.7551 -324.1172,36.8809 a 70.007,70.007 0 1 0 -43.9707,132.916 c 145.9875,48.2948 309.3924,29.6997 440.7969,-50.1602 131.4045,-79.8599 223.1653,-216.3403 247.5312,-368.166 24.3661,-151.8257 -20.0802,-310.1651 -119.8965,-427.1328 -26.7787,-31.3802 -57.2147,-59.1615 -90.2558,-83.2051 -24.3703,-121.718 -84.7405,-236.5543 -178.6328,-321.49607 -91.8496,-83.09378 -212.8018,-133.13988 -337.1641,-135.04688 z m 203.2578,494.17575 c 63.0726,-0.077 126.8174,16.7467 183.3477,46.7422 6.6674,83.3267 -8.9251,167.8461 -49.6485,233.8711 -20.3888,33.0566 -47.1867,61.8205 -77.9902,82.8145 -30.6963,20.9209 -66.2844,34.5451 -101.6719,38.4394 -62.429,6.8701 -131.5247,-19.5873 -172.0761,-66.2988 -20.6139,-23.7453 -35.4544,-53.2098 -42.0938,-83.6758 -6.6335,-30.4393 -5.3328,-63.199 3.7227,-92.7324 14.3474,-46.7927 50.3572,-90.1554 95.6836,-117.5566 45.906,-27.7518 102.9111,-41.5325 160.7265,-41.6036 z m -1313.42186,63.4844 c 6.3565,-0.046 12.67074,0.292 18.88868,1.0332 49.74334,5.9296 99.38137,38.3831 124.76367,81.5723 25.38233,43.1893 29.58507,102.3479 10.5625,148.6914 -11.00994,26.8228 -29.61554,51.0041 -52.22461,67.7656 -22.52206,16.6971 -50.55055,27.0011 -77.69922,28.5371 -31.13915,1.7618 -65.45884,-7.7785 -94.79102,-25.9726 -29.6674,-18.4021 -55.90088,-46.0692 -76.08984,-78.6426 -8.19269,-13.2183 -15.26995,-27.2639 -21.453125,-41.8047 -3.325717,-46.4671 14.413785,-97.0178 46.488285,-130.1875 30.47046,-31.5109 77.05919,-50.6676 121.55468,-50.9922 z"
       id="path4138-2"
       inkscape:connector-curvature="0" />
    <path
       style="fill:none;fill-rule:evenodd;stroke:#000000;stroke-width:70;stroke-linecap:round;stroke-linejoin:round;stroke-miterlimit:4;stroke-dasharray:none;stroke-opacity:1"
       d="m -2829.7417,140.41466 c -0.5859,-69.248077 30.2875,-138.1545728 82.3561,-183.810959 52.0685,-45.656387 124.4184,-67.261331 192.9962,-57.632101 68.5778,9.629238 132.18,50.323647 169.6614,108.554043 37.4815,58.230396 48.1844,132.974757 28.5505,199.383707 -12.901,43.63586 -38.5412,83.59555 -73.5965,112.60677 -35.0553,29.01121 -79.4808,46.80021 -124.9384,48.83353 -51.112,2.28624 -102.0994,-15.24035 -143.9987,-44.60207 -41.8993,-29.36172 -75.0761,-70.0513 -99.9322,-114.77084 -62.6038,-112.633093 -72.4086,-250.283081 -40.9766,-375.253 26.3228,-104.65613 81.2174,-202.88939 161.0279,-275.526 79.8105,-72.63662 184.8963,-118.53337 292.7729,-121.43579 77.81,-2.09348 155.9641,18.09449 223.5154,56.76735 67.5514,38.67287 124.1734,95.55527 164.8377,161.92687 40.6643,66.3716 65.337,141.75423 77.8794,218.57521 12.5424,76.82098 13.0986,155.030818 13.0986,232.86895 l 0,260.12744 0,-260.12744 c 0,-71.610162 0.3987,-143.465696 10.1498,-214.40885 9.7511,-70.94315 28.9285,-140.9815 61.3153,-204.84945 32.3867,-63.86795 77.9984,-121.28947 134.4995,-165.28532 56.5012,-43.99584 123.7442,-74.3482 194.3476,-86.31363 135.082,-22.89287 278.2623,24.16794 379.8059,116.14698 101.5436,91.97904 161.7832,225.65384 172.90711,362.209692 8.11863,99.663347 -9.68025,203.221868 -62.12121,288.360788 -26.2205,42.56947 -60.8805,80.11781 -102.1913,108.27967 -41.3108,28.16185 -89.3098,46.79325 -139.0109,52.2224 -89.4544,9.77165 -183.0733,-25.91767 -242.0126,-93.9158 -29.4696,-33.99907 -50.3594,-75.4143 -59.9514,-119.37325 -9.5919,-43.95894 -7.8416,-90.373252 5.2633,-133.415757 20.8454,-68.466207 70.1475,-126.702393 131.3454,-163.809853 61.198,-37.10746 133.5736,-53.83979 205.1422,-53.54253 134.869,0.56017 268.27033,62.7791 355.37525,165.748522 87.10491,102.969419 126.34842,244.839248 104.54298,377.935048 -21.80544,133.0958 -104.26803,255.0262 -219.67676,324.81727 -115.40877,69.79107 -261.68997,86.18886 -389.68697,43.683"
       id="path4138-5"
       inkscape:path-effect="#path-effect4140-5"
       inkscape:original-d="m -2829.7417,140.41466 c 0,0 430.7997,-87.065057 473.5642,66.49469 22.8832,82.16942 -113.3539,157.00756 -198.5349,161.4403 -96.9953,5.04755 -193.1296,-76.59137 -243.9309,-159.37291 -65.8134,-107.24391 -86.6564,-258.022261 -40.9766,-375.253 72.9919,-187.32333 254.2363,-420.15528 453.8008,-396.96179 272.6659,31.68932 479.3311,404.1428 479.3311,670.13838 l 0,260.12744 0,-260.12744 c -6.8219,-312.13347 143.3689,-629.43479 400.3122,-670.85725 240.4751,-38.76753 520.75794,236.69823 552.71301,478.356672 23.67792,179.063277 -123.13091,438.609948 -303.32341,448.862858 -151.7958,8.63716 -318.6252,-196.13543 -296.7007,-346.704807 19.2502,-132.204583 224.771,-290.488743 336.4876,-217.352383 257.82962,168.790779 -249.3767,862.17934 -149.4455,912.18384"
       inkscape:connector-curvature="0"
       sodipodi:nodetypes="caaaaasccaaaaac" />
    <path
       style="color:#000000;font-style:normal;font-variant:normal;font-weight:normal;font-stretch:normal;font-size:medium;line-height:normal;font-family:sans-serif;text-indent:0;text-align:start;text-decoration:none;text-decoration-line:none;text-decoration-style:solid;text-decoration-color:#000000;letter-spacing:normal;word-spacing:normal;text-transform:none;direction:ltr;block-progression:tb;writing-mode:lr-tb;baseline-shift:baseline;text-anchor:start;white-space:normal;clip-rule:nonzero;display:inline;overflow:visible;visibility:visible;opacity:1;isolation:auto;mix-blend-mode:normal;color-interpolation:sRGB;color-interpolation-filters:linearRGB;solid-color:#000000;solid-opacity:1;fill:#000000;fill-opacity:1;fill-rule:evenodd;stroke:none;stroke-width:70;stroke-linecap:round;stroke-linejoin:round;stroke-miterlimit:4;stroke-dasharray:none;stroke-dashoffset:0;stroke-opacity:1;color-rendering:auto;image-rendering:auto;shape-rendering:auto;text-rendering:auto;enable-background:accumulate"
       d="m -2184.623,569.68945 c -27.6423,-0.46339 -55.3996,1.54917 -82.9415,6.2168 -76.6076,12.983 -149.0366,45.73307 -210.0019,93.20508 -60.9446,47.45575 -109.6584,108.92925 -144.2129,177.07226 -16.778,33.08685 -30.0818,67.53674 -40.5547,102.68555 -14.5245,-47.77667 -34.3819,-94.16304 -60.8281,-137.32812 -43.5716,-71.11678 -104.2177,-132.1804 -177.293,-174.01563 -73.0951,-41.84666 -157.3585,-63.65399 -241.8457,-61.38086 -117.1823,3.1528 -229.6955,52.54851 -315.3887,130.53906 -85.5193,77.83231 -143.5472,182.07822 -171.414,292.87305 -26.3172,104.63396 -25.5201,217.86386 9.248,320.88286 a 35.0035,35.0035 0 0 0 4.2032,12.1699 c 8.5133,23.2137 18.7285,45.8855 30.8769,67.7422 26.9013,48.399 63.2039,93.3299 110.4375,126.4296 47.4671,33.2636 105.5232,53.5938 165.6504,50.9043 53.5444,-2.395 104.8567,-23.045 145.6875,-56.8359 40.7588,-33.7313 70.0171,-79.4907 84.8457,-129.6465 22.6388,-76.5726 10.5343,-161.1076 -32.6836,-228.25 -43.2178,-67.1424 -115.1512,-113.1685 -194.2246,-124.2715 -79.0734,-11.103 -160.9001,13.3328 -220.9375,65.9766 -19.9334,17.4786 -37.0271,37.7878 -51.0391,59.9863 -1.7067,-49.5711 3.6854,-99.7587 15.8223,-148.0136 24.7788,-98.51749 76.5409,-190.73684 150.6426,-258.17778 73.9278,-67.2827 171.5852,-109.68192 270.1562,-112.33398 71.1328,-1.91383 143.1781,16.65524 205.1856,52.1543 62.0275,35.51049 114.6257,88.21147 152.3828,149.83789 37.7916,61.68288 61.2267,132.71909 73.1797,205.92967 11.9602,73.2549 12.6426,149.5572 12.6426,227.2285 l 0,260.1289 a 35.0035,35.0035 0 0 0 70,0 l 0,-260.1289 c 0,-71.4803 0.4877,-141.7304 9.8222,-209.6425 9.3313,-67.8889 27.6181,-134.15195 57.8574,-193.7852 30.2189,-59.59289 72.7293,-112.96407 124.7872,-153.5 52.0368,-40.51967 114.0942,-68.47206 178.6933,-79.41992 123.2739,-20.8917 256.6476,22.60126 350.461,107.57812 67.8388,61.44896 116.2273,143.89143 141.9511,233.11328 -65.1841,-30.17291 -136.6702,-46.73694 -208.9394,-47.03711 -77.1217,-0.32032 -155.7629,17.58106 -223.4336,58.61328 -67.9541,41.20405 -122.9683,105.65885 -146.6817,183.54495 -14.8939,48.9186 -16.8514,101.2314 -5.9765,151.0703 10.8723,49.8264 34.3775,96.3927 67.6992,134.8359 66.9839,77.2791 171.0418,116.8421 272.2617,105.7852 55.8756,-6.1037 109.1236,-26.8734 154.9238,-58.0957 45.7463,-31.1855 83.6536,-72.3727 112.2774,-118.8438 48.9896,-79.5356 69.5922,-172.2376 69.1289,-263.6113 9.9112,9.574 19.4233,19.5469 28.3105,30.0527 80.2149,94.8245 116.8053,227.1041 96.7246,349.6719 -20.0805,122.5678 -96.9701,236.2568 -203.25,300.5274 -106.2798,64.2705 -242.6726,79.5595 -360.5449,40.416 a 35.0035,35.0035 0 1 0 -22.0605,66.4336 c 138.1215,45.868 294.2925,28.3604 418.8301,-46.9512 124.5375,-75.3116 212.5732,-205.4838 236.1035,-349.1074 23.5303,-143.6238 -18.3664,-295.0849 -112.3614,-406.1992 -26.5148,-31.3441 -56.9869,-58.9828 -90.1914,-82.7403 -21.2346,-126.34 -81.9056,-246.51797 -177.7773,-333.35936 -88.7851,-80.42222 -206.4279,-128.92165 -326.2109,-130.92969 z m 211.9375,438.88675 c 79.5104,0.3302 159.0344,24.3188 227.0585,66.3496 0.6287,5.5584 1.2864,11.1142 1.7403,16.6855 7.6232,93.5818 -9.3879,189.8047 -57.0371,267.1641 -23.8173,38.6677 -55.2301,72.5767 -92.1055,97.7148 -36.8214,25.1015 -79.571,41.5949 -123.0977,46.3496 -77.6888,8.4865 -160.8689,-23.3297 -211.7636,-82.0468 -25.6175,-29.555 -43.8934,-65.8188 -52.2051,-103.9102 -8.3089,-38.0791 -6.7651,-78.5934 4.5508,-115.7598 17.9774,-59.0463 61.568,-111.0653 116.0097,-144.0761 54.7254,-33.1828 120.8341,-48.7449 186.8497,-48.4707 z m -1364.0704,97.6152 c 7.364,0.1916 14.6988,0.7911 21.959,1.8106 58.0822,8.1554 113.3527,43.5194 145.0977,92.8378 31.7451,49.3185 41.047,114.2703 24.418,170.5157 -10.9734,37.116 -32.9959,71.2753 -62.3477,95.5664 -29.2798,24.2315 -66.8167,39.1604 -104.1875,40.832 -42.0968,1.883 -86.0181,-12.8388 -122.3496,-38.2988 -36.565,-25.6236 -66.6149,-62.0714 -89.4258,-103.1113 -10.4219,-18.7505 -19.2246,-38.3598 -26.5547,-58.5665 1.512,-56.4736 27.8778,-113.2931 70.2969,-150.4882 38.5871,-33.8352 91.5461,-52.439 143.0937,-51.0977 z"
       id="path4138-5-5"
       inkscape:connector-curvature="0" />
  </g>
</svg>
