<?xml version="1.0" encoding="UTF-8" standalone="no"?>
<!-- Created with Inkscape (http://www.inkscape.org/) -->

<svg
   xmlns:dc="http://purl.org/dc/elements/1.1/"
   xmlns:cc="http://creativecommons.org/ns#"
   xmlns:rdf="http://www.w3.org/1999/02/22-rdf-syntax-ns#"
   xmlns:svg="http://www.w3.org/2000/svg"
   xmlns="http://www.w3.org/2000/svg"
   xmlns:sodipodi="http://sodipodi.sourceforge.net/DTD/sodipodi-0.dtd"
   xmlns:inkscape="http://www.inkscape.org/namespaces/inkscape"
   width="2000"
   height="2048"
   id="svg2992"
   version="1.1"
   inkscape:version="0.91 r13725"
   sodipodi:docname="൧.svg">
  <defs
     id="defs5498">
    <inkscape:path-effect
       effect="spiro"
       id="path-effect3006"
       is_visible="true" />
    <inkscape:path-effect
       effect="spiro"
       id="path-effect4141-37"
       is_visible="true" />
    <inkscape:path-effect
       effect="spiro"
       id="path-effect4141-37-3"
       is_visible="true" />
    <inkscape:path-effect
       effect="spiro"
       id="path-effect4141-37-3-0"
       is_visible="true" />
    <inkscape:path-effect
       effect="spiro"
       id="path-effect4141-37-3-0-3"
       is_visible="true" />
    <inkscape:path-effect
       effect="spiro"
       id="path-effect4141-37-3-0-3-4"
       is_visible="true" />
    <inkscape:path-effect
       effect="spiro"
       id="path-effect4141-37-3-0-3-4-9"
       is_visible="true" />
    <inkscape:path-effect
       effect="spiro"
       id="path-effect4141-37-3-0-3-4-9-5"
       is_visible="true" />
    <inkscape:path-effect
       effect="spiro"
       id="path-effect4141-37-3-0-3-4-9-1"
       is_visible="true" />
    <inkscape:path-effect
       effect="spiro"
       id="path-effect4141-37-3-0-3-4-9-1-9"
       is_visible="true" />
    <inkscape:path-effect
       effect="spiro"
       id="path-effect4141-37-3-0-3-4-6"
       is_visible="true" />
    <inkscape:path-effect
       effect="spiro"
       id="path-effect4141-37-3-0-3-4-7"
       is_visible="true" />
    <inkscape:path-effect
       effect="spiro"
       id="path-effect4141-37-3-0-3-4-6-5"
       is_visible="true" />
    <inkscape:path-effect
       effect="spiro"
       id="path-effect4141-37-3-0-3-4-6-2"
       is_visible="true" />
  </defs>
  <sodipodi:namedview
     inkscape:window-height="704"
     inkscape:window-width="1366"
     inkscape:pageshadow="2"
     inkscape:pageopacity="0.0"
     borderopacity="1.0"
     bordercolor="#666666"
     pagecolor="#ffffff"
     id="base"
     showgrid="true"
     showguides="true"
     inkscape:guide-bbox="true"
     inkscape:zoom="0.32102648"
     inkscape:cx="146.71727"
     inkscape:cy="-261.48693"
     inkscape:window-x="-4"
     inkscape:window-y="0"
     inkscape:current-layer="layer1"
     inkscape:window-maximized="1">
    <sodipodi:guide
       orientation="horizontal"
       position="0,600"
       id="guide5596" />
    <inkscape:grid
       type="xygrid"
       id="grid3769"
       empspacing="3"
       visible="true"
       enabled="true"
       snapvisiblegridlinesonly="true"
       spacingx="4px"
       units="px"
       dotted="true"
       spacingy="4px" />
    <sodipodi:guide
       orientation="0,1"
       position="-1040,1600"
       id="guide2985" />
  </sodipodi:namedview>
  <metadata
     id="metadata5594">
    <rdf:RDF>
      <cc:Work
         rdf:about="">
        <dc:format>image/svg+xml</dc:format>
        <dc:type
           rdf:resource="http://purl.org/dc/dcmitype/StillImage" />
        <dc:title></dc:title>
      </cc:Work>
    </rdf:RDF>
  </metadata>
  <g
     inkscape:label="Layer 1"
     inkscape:groupmode="layer"
     id="layer1"
     transform="translate(0,1048)">
    <path
       style="fill:none;fill-rule:evenodd;stroke:#000000;stroke-width:140;stroke-linecap:round;stroke-linejoin:round;stroke-miterlimit:4;stroke-dasharray:none;stroke-opacity:1"
       d="m 1075.6029,691.43029 -131.35285,3.2672 c -30.95982,0.77008 -62.05558,1.40412 -92.77966,-2.48618 -30.72407,-3.89031 -61.11438,-12.41211 -88.09483,-27.61602 -26.98045,-15.2039 -50.32873,-37.16324 -65.88918,-63.93964 -15.56044,-26.7764 -23.10606,-58.18077 -21.13471,-89.08736 1.97136,-30.90658 13.39722,-61.02957 31.76637,-85.96303 18.36915,-24.93346 43.43852,-44.60586 71.27156,-58.1862 55.66606,-27.16067 119.84922,-28.94548 181.78761,-29.16604 l 891.18649,-3.17355 1.188,-389.677088 c 0.174,-57.079852 -0.2653,-114.515222 -10.7167,-170.630362 -10.4513,-56.11514 -30.9726,-110.6845 -63.1389,-157.83823 -32.1662,-47.15373 -75.6861,-86.46945 -125.779,-113.83442 -50.0929,-27.36497 -106.3898,-42.82949 -163.3221,-46.93462 -64.2174,-4.63042 -129.691,5.21115 -188.8509,30.61639 -59.1599,25.40523 -111.5032,66.45572 -150.2681,117.86195 -38.7649,51.40623 -63.5678,112.58826 -76.0062,175.75949 -12.4384,63.17124 -12.6324,128.028808 -12.0818,192.410602 l 2.7198,318.042588"
       id="path4139-9-6-5-4-9"
       inkscape:path-effect="#path-effect4141-37-3-0-3-4"
       inkscape:original-d="m 1075.6029,691.43029 -131.35285,3.2672 c -354.82453,-7.2896 -293.8208,-347.01927 16.92716,-356.44447 l 891.18649,-3.17355 1.188,-389.677088 c 2.2879,-750.459942 -159.9695,-483.894502 -362.9567,-489.237632 -223.3881,-5.88014 -428.7429,337.05132 -427.207,516.648432 l 2.7198,318.042588"
       inkscape:connector-curvature="0"
       sodipodi:nodetypes="ccccsasc" />
    <path
       style="fill:none;fill-rule:evenodd;stroke:#000000;stroke-width:70;stroke-linecap:round;stroke-linejoin:round;stroke-miterlimit:4;stroke-dasharray:none;stroke-opacity:1"
       d="m -623.30332,705.937 -138.02095,3.43258 c -29.92801,0.74431 -59.98911,1.35478 -89.68545,-2.43564 -29.69633,-3.79041 -59.06324,-12.08618 -85.1012,-26.85995 -26.03796,-14.77377 -48.52872,-36.09454 -63.45164,-62.04731 -14.92294,-25.95277 -22.05974,-56.35063 -19.99814,-86.21682 2.0616,-29.8662 13.2569,-58.92506 31.12429,-82.94583 17.86735,-24.02078 42.17161,-42.93821 69.11547,-55.98689 53.88773,-26.09736 115.90898,-27.78239 175.78312,-27.99558 l 936.42747,-3.3342 1.2483,-409.40287 c 0.18286,-59.97365 -0.27879,-120.32091 -11.26122,-179.28071 -10.98242,-58.9598 -32.5465,-116.29508 -66.34667,-165.83719 -33.80016,-49.54211 -79.530379,-90.84717 -132.16604,-119.59363 -52.635661,-28.74646 -111.78898,-44.98723 -171.60823,-49.29171 -67.46693,-4.85479 -136.25091,5.49413 -198.40146,32.18992 -62.15054,26.69578 -117.13972,69.82386 -157.86872,123.82853 -40.72899,54.00466 -66.79521,118.27719 -79.87706,184.64149 -13.08185,66.3643 -13.30531,134.502592 -12.74686,202.141658 l 2.85788,346.142172"
       id="path4139-9-6-5-4-9-8"
       inkscape:path-effect="#path-effect4141-37-3-0-3-4-6"
       inkscape:original-d="m -623.30332,705.937 -138.02095,3.43258 c -372.83713,-7.6586 -308.73643,-334.58571 17.78645,-344.48802 l 936.42747,-3.3342 1.2483,-409.40287 c 2.40405,-788.44887 -168.090317,-508.38964 -381.38216,-514.00324 -234.72836,-6.1778 -450.45199,354.11266 -448.8941,542.801598 l 2.85788,346.142172"
       inkscape:connector-curvature="0"
       sodipodi:nodetypes="ccccsasc" />
    <path
       style="color:#000000;font-style:normal;font-variant:normal;font-weight:normal;font-stretch:normal;font-size:medium;line-height:normal;font-family:sans-serif;text-indent:0;text-align:start;text-decoration:none;text-decoration-line:none;text-decoration-style:solid;text-decoration-color:#000000;letter-spacing:normal;word-spacing:normal;text-transform:none;direction:ltr;block-progression:tb;writing-mode:lr-tb;baseline-shift:baseline;text-anchor:start;white-space:normal;clip-rule:nonzero;display:inline;overflow:visible;visibility:visible;opacity:1;isolation:auto;mix-blend-mode:normal;color-interpolation:sRGB;color-interpolation-filters:linearRGB;solid-color:#000000;solid-opacity:1;fill:#000000;fill-opacity:1;fill-rule:evenodd;stroke:none;stroke-width:140;stroke-linecap:round;stroke-linejoin:round;stroke-miterlimit:4;stroke-dasharray:none;stroke-dashoffset:0;stroke-opacity:1;color-rendering:auto;image-rendering:auto;shape-rendering:auto;text-rendering:auto;enable-background:accumulate"
       d="m 1347.2266,896.51367 c -65.649,-1.03436 -131.8694,10.91579 -193.42,37.34766 -70.5255,30.28609 -132.32,78.74847 -178.53707,140.03707 -46.19837,61.2638 -74.60788,132.3089 -88.79883,204.3809 -14.16625,71.9466 -13.95169,141.6088 -13.39648,206.5332 l 2.51953,294.7168 -34.98242,0.125 c -63.11087,0.2248 -138.59673,0.3245 -212.23438,36.2539 -36.889,17.9989 -70.954,44.3145 -96.93359,79.5781 -26.11664,35.4495 -42.38642,77.8568 -45.26758,123.0274 -2.8854,45.2369 7.90313,89.8806 30.4707,128.7148 22.49094,38.7024 54.99949,68.8752 92.04688,89.752 36.82028,20.7488 76.01034,31.3101 113.66602,36.0781 37.50379,4.7487 72.14458,3.7929 103.31445,3.0176 l 131.35156,-3.2676 a 70.007,70.007 0 1 0 -3.48047,-139.9551 l -131.35351,3.2656 c -30.74977,0.7649 -58.2998,1.0788 -82.24414,-1.9531 -23.79249,-3.0126 -45.38283,-9.4953 -62.52344,-19.1543 -16.91352,-9.531 -31.10246,-23.2765 -39.73242,-38.1269 -8.55332,-14.7186 -12.85613,-32.8828 -11.79883,-49.459 1.06154,-16.6427 7.64396,-34.4831 18.26562,-48.9004 10.75869,-14.6034 26.83232,-27.6332 45.60938,-36.7949 37.69447,-18.392 90.57588,-21.8598 151.3418,-22.0762 l 891.18552,-3.1738 a 70.007,70.007 0 0 0 69.752,-69.7871 l 1.1875,-389.6758 c 0.1755,-57.5822 0.061,-119.4416 -11.9004,-183.6621 -11.9755,-64.299 -35.6058,-127.9939 -74.1289,-184.4668 l 0,-0 c -38.5223,-56.471 -90.1687,-103.10777 -150.0469,-135.81834 -59.7201,-32.62411 -125.6371,-50.54827 -191.8457,-55.32227 -9.3398,-0.67344 -18.7075,-1.08465 -28.0859,-1.23242 z m -2.1485,139.99223 c 6.7249,0.101 13.4514,0.3947 20.166,0.8789 47.6561,3.4362 94.3312,16.4411 134.7969,38.5468 40.3071,22.0192 75.7017,54.0137 101.5117,91.8496 25.8089,37.8342 43.2215,83.2783 52.1485,131.209 8.9418,48.0099 9.7056,101.022 9.5332,157.5996 l -0.9746,320.1387 -646.666,2.3027 -2.5254,-295.416 c -0.546,-63.8392 0.055,-123.8932 10.7656,-178.289 10.6858,-54.2704 31.8835,-105.5881 63.2148,-147.1367 31.3127,-41.5239 74.2058,-75.1631 122,-95.6875 41.9793,-18.0273 88.9553,-26.7037 136.0293,-25.9961 z"
       id="path4139-9-6-5-4-9-3"
       inkscape:connector-curvature="0" />
    <path
       style="color:#000000;font-style:normal;font-variant:normal;font-weight:normal;font-stretch:normal;font-size:medium;line-height:normal;font-family:sans-serif;text-indent:0;text-align:start;text-decoration:none;text-decoration-line:none;text-decoration-style:solid;text-decoration-color:#000000;letter-spacing:normal;word-spacing:normal;text-transform:none;direction:ltr;block-progression:tb;writing-mode:lr-tb;baseline-shift:baseline;text-anchor:start;white-space:normal;clip-rule:nonzero;display:inline;overflow:visible;visibility:visible;opacity:1;isolation:auto;mix-blend-mode:normal;color-interpolation:sRGB;color-interpolation-filters:linearRGB;solid-color:#000000;solid-opacity:1;fill:#000000;fill-opacity:1;fill-rule:evenodd;stroke:none;stroke-width:70;stroke-linecap:round;stroke-linejoin:round;stroke-miterlimit:4;stroke-dasharray:none;stroke-dashoffset:0;stroke-opacity:1;color-rendering:auto;image-rendering:auto;shape-rendering:auto;text-rendering:auto;enable-background:accumulate"
       d="m -421.47266,897.39844 c -63.8564,-0.98753 -128.129,10.67485 -187.40234,36.13476 -67.83187,29.1361 -127.5439,75.968 -171.99805,134.9121 -44.4448,58.9316 -72.31469,128.1346 -86.27343,198.9473 -13.94639,70.7501 -13.96694,141.289 -13.40625,209.1992 l 2.85742,346.1426 a 35.0035,35.0035 0 0 0 0.0996,2.2383 l -75.48242,0.2695 c -60.44478,0.2152 -128.07678,1.0645 -190.91408,31.4961 -31.4561,15.2339 -60.2547,37.4421 -81.9414,66.5976 -21.7564,29.2491 -35.4053,64.4292 -37.959,101.4239 -2.5561,37.03 6.1662,74.0637 24.5723,106.0742 18.3688,31.9457 45.4367,57.4038 76.5215,75.041 30.9709,17.5728 64.7594,26.9031 97.9433,31.1387 33.1072,4.2257 64.95153,3.452 94.98636,2.7051 l 138.02148,-3.4317 a 35.0035,35.0035 0 1 0 -1.74023,-69.9785 l -138.02149,3.4316 c -29.82122,0.7417 -58.09932,1.191 -84.38472,-2.164 -26.2089,-3.3453 -51.155,-10.6073 -72.2598,-22.5821 -20.9912,-11.9102 -38.9059,-29.0928 -50.3828,-49.0527 -11.4397,-19.8951 -16.989,-43.659 -15.4219,-66.3613 1.5695,-22.7378 10.3107,-45.6745 24.2891,-64.4668 a 35.0035,35.0035 0 0 0 0,0 c 14.0479,-18.8861 33.8554,-34.5115 56.2871,-45.375 44.9381,-21.7632 101.3488,-24.2849 160.65238,-24.4961 l 936.427729,-3.334 a 35.0035,35.0035 0 0 0 34.875,-34.8945 l 1.248047,-409.4024 C 19.906286,1387.3865 19.606538,1324.8274 7.8691406,1261.8145 -3.8756139,1198.762 -26.993171,1136.8643 -63.972656,1082.6621 -100.95156,1028.4608 -150.74604,983.49523 -208.27539,952.07617 c -57.45,-31.37576 -121.41331,-48.84611 -185.87109,-53.48437 -9.08964,-0.65408 -18.20383,-1.05229 -27.32618,-1.19336 z m -1.0664,69.99609 c 7.79564,0.11793 15.59009,0.45795 23.36718,1.01758 55.18072,3.9707 109.52439,18.98246 157.34571,45.09959 47.74197,26.0738 89.40786,63.7187 120.02929,108.6016 30.62085,44.882 50.629517,97.6523 60.849614,152.5195 10.227453,54.9067 10.85202,113.0432 10.669922,172.7656 l -1.142578,374.6328 -756.318358,2.6934 a 35.0035,35.0035 0 0 0 0.041,-2.5684 l -2.85742,-346.1425 c -0.55621,-67.368 -0.12942,-133.1035 12.08789,-195.0821 12.20498,-61.9158 36.46727,-121.2583 73.48047,-170.3359 37.00385,-49.0653 87.26907,-88.4906 143.73828,-112.74609 49.49013,-21.25769 104.13946,-31.28055 158.70899,-30.45508 z"
       id="path4139-9-6-5-4-9-8-7"
       inkscape:connector-curvature="0" />
  </g>
</svg>
