<?xml version="1.0" encoding="UTF-8" standalone="no"?>
<!-- Created with Inkscape (http://www.inkscape.org/) -->

<svg
   xmlns:dc="http://purl.org/dc/elements/1.1/"
   xmlns:cc="http://creativecommons.org/ns#"
   xmlns:rdf="http://www.w3.org/1999/02/22-rdf-syntax-ns#"
   xmlns:svg="http://www.w3.org/2000/svg"
   xmlns="http://www.w3.org/2000/svg"
   xmlns:sodipodi="http://sodipodi.sourceforge.net/DTD/sodipodi-0.dtd"
   xmlns:inkscape="http://www.inkscape.org/namespaces/inkscape"
   width="2000"
   height="2048"
   id="svg2992"
   version="1.1"
   inkscape:version="0.91 r13725"
   sodipodi:docname="൩.svg">
  <defs
     id="defs5498">
    <inkscape:path-effect
       effect="spiro"
       id="path-effect4186"
       is_visible="true" />
    <inkscape:path-effect
       is_visible="true"
       id="path-effect3846"
       effect="spiro" />
    <inkscape:path-effect
       is_visible="true"
       id="path-effect3801"
       effect="spiro" />
    <inkscape:path-effect
       is_visible="true"
       id="path-effect4372-5-0"
       effect="spiro" />
    <inkscape:path-effect
       is_visible="true"
       id="path-effect4372-5-0-5"
       effect="spiro" />
    <inkscape:path-effect
       is_visible="true"
       id="path-effect4372-5-0-53"
       effect="spiro" />
    <inkscape:path-effect
       is_visible="true"
       id="path-effect3846-9"
       effect="spiro" />
    <inkscape:path-effect
       is_visible="true"
       id="path-effect3801-3"
       effect="spiro" />
    <inkscape:path-effect
       is_visible="true"
       id="path-effect4372-5-0-50"
       effect="spiro" />
    <inkscape:path-effect
       is_visible="true"
       id="path-effect4372-5-0-5-8"
       effect="spiro" />
    <inkscape:path-effect
       is_visible="true"
       id="path-effect4372-5-0-53-2"
       effect="spiro" />
    <inkscape:path-effect
       is_visible="true"
       id="path-effect4372-5-0-50-1"
       effect="spiro" />
    <inkscape:path-effect
       is_visible="true"
       id="path-effect4372-5-0-50-1-7"
       effect="spiro" />
    <inkscape:path-effect
       is_visible="true"
       id="path-effect4372-5-0-50-1-7-6"
       effect="spiro" />
    <inkscape:path-effect
       is_visible="true"
       id="path-effect4372-5-0-50-1-7-63"
       effect="spiro" />
    <inkscape:path-effect
       is_visible="true"
       id="path-effect4372-5-0-50-1-7-63-1"
       effect="spiro" />
    <inkscape:path-effect
       is_visible="true"
       id="path-effect4372-5-0-50-1-7-63-1-9"
       effect="spiro" />
    <inkscape:path-effect
       is_visible="true"
       id="path-effect4372-5-0-50-1-7-4"
       effect="spiro" />
    <inkscape:path-effect
       is_visible="true"
       id="path-effect4372-5-0-50-1-7-3"
       effect="spiro" />
    <inkscape:path-effect
       is_visible="true"
       id="path-effect4372-5-0-50-1-7-3-5"
       effect="spiro" />
    <inkscape:path-effect
       is_visible="true"
       id="path-effect4372-5-0-50-1-7-0"
       effect="spiro" />
  </defs>
  <sodipodi:namedview
     inkscape:window-height="704"
     inkscape:window-width="1366"
     inkscape:pageshadow="2"
     inkscape:pageopacity="0.0"
     borderopacity="1.0"
     bordercolor="#666666"
     pagecolor="#ffffff"
     id="base"
     showgrid="true"
     showguides="true"
     inkscape:guide-bbox="true"
     inkscape:zoom="0.125"
     inkscape:cx="-2366.0527"
     inkscape:cy="376.95444"
     inkscape:window-x="-4"
     inkscape:window-y="0"
     inkscape:current-layer="layer1-2"
     inkscape:window-maximized="1">
    <sodipodi:guide
       orientation="horizontal"
       position="384,576"
       id="guide5596" />
    <inkscape:grid
       type="xygrid"
       id="grid3769"
       empspacing="3"
       visible="true"
       enabled="true"
       snapvisiblegridlinesonly="true"
       spacingx="4px"
       units="px"
       dotted="true"
       spacingy="4px" />
    <sodipodi:guide
       orientation="0,1"
       position="-1040,1600"
       id="guide2985" />
  </sodipodi:namedview>
  <metadata
     id="metadata5594">
    <rdf:RDF>
      <cc:Work
         rdf:about="">
        <dc:format>image/svg+xml</dc:format>
        <dc:type
           rdf:resource="http://purl.org/dc/dcmitype/StillImage" />
        <dc:title></dc:title>
      </cc:Work>
    </rdf:RDF>
  </metadata>
  <g
     inkscape:label="Layer 1"
     inkscape:groupmode="layer"
     id="layer1"
     transform="translate(0,1048)">
    <g
       id="layer1-2"
       inkscape:label="Layer 1"
       transform="translate(253.59372,-238.29924)">
      <path
         sodipodi:nodetypes="caacccaacc"
         inkscape:connector-curvature="0"
         inkscape:original-d="m -1253.6585,637.46455 c -197.3889,98.08143 -355.3667,-389.1912 -313.548,-615.666102 27.824,-150.685208 188.6715,-323.276608 341.1525,-308.118258 209.1562,20.79253 376.8479,305.223719 375.5874,506.4999 l -3.2919,418.84266 6.533,-418.0135 c 0,-55.92711 188.0263,-499.56646 404.7521,-509.74367 143.1807,-6.72361 268.9485,169.81527 297.7828,310.223615 42.8596,208.704345 -225.077,598.239385 -225.077,598.239385 l 578.1822,-2.34023"
         inkscape:path-effect="#path-effect4372-5-0-50-1-7"
         id="path4370-9-0-6-0"
         d="m -1253.6585,637.46455 c -118.0553,-44.81463 -218.3248,-134.77834 -275.6308,-247.30137 -57.306,-112.52303 -71.0996,-246.52738 -37.9172,-368.364732 21.4825,-78.878339 62.5928,-153.071298 122.0218,-209.209428 59.4289,-56.13813 137.5641,-93.41572 219.1307,-98.90883 59.9575,-4.03784 120.9163,9.14274 174.0557,37.20358 53.13935,28.06084 98.15096,70.80836 130.5057,121.44801 32.35474,50.639647 51.99104,108.750452 61.74552,168.046766 9.75449,59.296313 9.75277,119.710114 9.28048,179.801544 l -3.2919,418.84266 6.533,-418.0135 c 0.97928,-62.65913 2.40006,-125.63335 13.80404,-187.253763 11.40398,-61.620414 32.95125,-121.869291 67.84994,-173.919337 34.89869,-52.05005 83.17314,-95.4607 139.83779,-122.22342 56.66466,-26.76272 121.42969,-36.55 183.26033,-26.34715 74.89084,12.35795 143.62496,53.59054 194.62343,109.80897 50.99848,56.21843 84.84691,126.753189 103.15937,200.414645 27.33048,109.936215 20.45691,228.122005 -19.43376,334.148705 -39.89068,106.0267 -112.62508,199.43351 -205.64324,264.09068 l 578.1822,-2.34023"
         style="fill:none;fill-rule:evenodd;stroke:#000000;stroke-width:140;stroke-linecap:round;stroke-linejoin:round;stroke-miterlimit:4;stroke-dasharray:none;stroke-opacity:1" />
      <path
         sodipodi:nodetypes="caacccaacc"
         inkscape:connector-curvature="0"
         inkscape:original-d="m -4239.6585,653.38623 c -210.4977,104.82207 -378.9669,-415.93801 -334.3711,-657.977208 29.6719,-161.040922 201.2014,-345.493522 363.8088,-329.293432 223.0464,22.22148 401.8747,326.199967 400.5305,541.30869 l -3.5106,447.62724 6.9669,-446.7411 c 0,-59.77065 200.5132,-533.89875 431.632,-544.77539 152.6895,-7.18567 286.8096,181.48569 317.5588,331.543489 45.7059,223.047371 -240.0245,639.352881 -240.0245,639.352881 l 616.5797,-2.50106"
         inkscape:path-effect="#path-effect4372-5-0-50-1-7-3"
         id="path4370-9-0-6-0-1"
         d="m -4239.6585,653.38623 c -125.9126,-48.20747 -232.7575,-144.43017 -293.8387,-264.62597 -61.0811,-120.1958 -75.8194,-263.22529 -40.5324,-393.351238 22.8431,-84.237 66.5947,-163.520292 129.9585,-223.542852 63.3638,-60.02257 146.7663,-99.91494 233.8503,-105.75058 64.0193,-4.29003 129.0982,9.87281 185.7882,39.92462 56.69,30.05181 104.6664,75.78077 139.1326,129.90057 34.4662,54.11979 55.3617,116.183923 65.7398,179.501876 10.3782,63.317953 10.3731,127.820764 9.8699,191.981624 l -3.5106,447.62724 6.9669,-446.7411 c 1.0433,-66.89889 2.5534,-134.132022 14.6877,-199.9294947 12.1343,-65.7974733 35.064,-130.1440653 72.2408,-185.7716553 37.1769,-55.6276 88.6329,-102.06907 149.0862,-130.73861 60.4534,-28.66954 129.6001,-39.2111 195.6173,-28.33563 79.9694,13.17392 153.3365,57.28676 207.7072,117.39072 54.3708,60.10396 90.3829,135.478533 109.8516,214.152769 29.0636,117.448051 21.7012,243.642381 -20.8229,356.913891 -42.5242,113.27151 -120.0274,213.13369 -219.2016,282.43899 l 616.5797,-2.50106"
         style="fill:none;fill-rule:evenodd;stroke:#000000;stroke-width:70;stroke-linecap:round;stroke-linejoin:round;stroke-miterlimit:4;stroke-dasharray:none;stroke-opacity:1" />
      <path
         style="color:#000000;font-style:normal;font-variant:normal;font-weight:normal;font-stretch:normal;font-size:medium;line-height:normal;font-family:sans-serif;text-indent:0;text-align:start;text-decoration:none;text-decoration-line:none;text-decoration-style:solid;text-decoration-color:#000000;letter-spacing:normal;word-spacing:normal;text-transform:none;direction:ltr;block-progression:tb;writing-mode:lr-tb;baseline-shift:baseline;text-anchor:start;white-space:normal;clip-rule:nonzero;display:inline;overflow:visible;visibility:visible;opacity:1;isolation:auto;mix-blend-mode:normal;color-interpolation:sRGB;color-interpolation-filters:linearRGB;solid-color:#000000;solid-opacity:1;fill:#000000;fill-opacity:1;fill-rule:evenodd;stroke:none;stroke-width:70;stroke-linecap:round;stroke-linejoin:round;stroke-miterlimit:4;stroke-dasharray:none;stroke-dashoffset:0;stroke-opacity:1;color-rendering:auto;image-rendering:auto;shape-rendering:auto;text-rendering:auto;enable-background:accumulate"
         d="m -3232.3105,1256.3223 c -55.5128,-0.3375 -110.815,12.1684 -160.9063,35.9238 -66.7279,31.6453 -122.721,82.3662 -163.1875,142.916 -25.0627,37.5013 -43.9171,78.2432 -57.6992,120.3633 -12.1824,-37.0413 -28.3912,-72.9631 -49.6758,-106.3848 -37.5727,-58.9977 -89.808,-108.9172 -152.2598,-142.0234 -62.463,-33.1122 -133.7959,-48.6632 -204.5214,-43.9238 -96.2138,6.4474 -186.7052,50.0205 -255.5801,115.2636 -68.6955,65.0731 -115.3243,150.0127 -139.6699,239.791 -37.6269,138.7545 -22.0202,290.2032 43.1113,418.3692 65.1313,128.1658 178.2636,230.0509 312.5254,281.4551 a 35.0035,35.0035 0 1 0 25.0293,-65.3731 c -117.5634,-45.0109 -218.1196,-135.5693 -275.1504,-247.7949 -57.031,-112.2257 -70.9022,-246.8367 -37.9551,-368.334 21.3403,-78.6956 62.2159,-152.3228 120.248,-207.2949 57.8528,-54.8021 134.1669,-91.0145 212.1211,-96.2383 57.3131,-3.8406 116.1378,8.9363 167.0547,35.9277 50.9282,26.9975 94.6443,68.5356 126.0039,117.7774 31.3966,49.2997 50.967,106.8408 60.7227,166.3613 9.7642,59.572 9.9119,122.0681 9.4101,186.0469 l -3.5078,447.332 0,0.024 -0,0.2714 a 35.0035,35.0035 0 0 0 69.9941,0.8204 l 0,-0.2715 6.9629,-446.4707 c 1.0408,-66.738 2.6543,-132.002 14.1113,-194.127 11.4462,-62.0663 32.9793,-121.8835 66.9219,-172.6719 33.8873,-50.7053 80.8038,-92.8686 134.9824,-118.5625 54.1185,-25.6652 116.3612,-35.0725 174.9317,-25.4238 70.9926,11.6951 137.8634,51.5301 187.4414,106.3359 49.7627,55.01 83.5287,125.1154 101.832,199.0801 27.3282,110.4353 20.3699,229.697 -19.6152,336.2051 -39.985,106.5081 -113.2319,200.8837 -206.4844,266.0508 a 35.0035,35.0035 0 0 0 20.1914,63.6894 l 616.5801,-2.5019 a 35.0035,35.0035 0 1 0 -0.2852,-70 l -518.8281,2.1055 c 67.8362,-65.6583 121.1109,-146.1781 154.3594,-234.7422 45.0633,-120.035 52.8302,-253.1602 22.0312,-377.6211 -20.6341,-83.3837 -58.8922,-164.0287 -117.8711,-229.2266 -59.1634,-65.4021 -139.0264,-113.7926 -227.9726,-128.4453 -18.366,-3.0256 -36.8942,-4.5652 -55.3984,-4.6777 z"
         id="path4370-9-0-6-0-1-0"
         inkscape:connector-curvature="0" />
      <path
         style="color:#000000;font-style:normal;font-variant:normal;font-weight:normal;font-stretch:normal;font-size:medium;line-height:normal;font-family:sans-serif;text-indent:0;text-align:start;text-decoration:none;text-decoration-line:none;text-decoration-style:solid;text-decoration-color:#000000;letter-spacing:normal;word-spacing:normal;text-transform:none;direction:ltr;block-progression:tb;writing-mode:lr-tb;baseline-shift:baseline;text-anchor:start;white-space:normal;clip-rule:nonzero;display:inline;overflow:visible;visibility:visible;opacity:1;isolation:auto;mix-blend-mode:normal;color-interpolation:sRGB;color-interpolation-filters:linearRGB;solid-color:#000000;solid-opacity:1;fill:#000000;fill-opacity:1;fill-rule:evenodd;stroke:none;stroke-width:140;stroke-linecap:round;stroke-linejoin:round;stroke-miterlimit:4;stroke-dasharray:none;stroke-dashoffset:0;stroke-opacity:1;color-rendering:auto;image-rendering:auto;shape-rendering:auto;text-rendering:auto;enable-background:accumulate"
         d="m -1160.7598,1845.2754 c -57.6881,-0.4206 -114.8717,12.4826 -166.8691,37.041 -69.2137,32.6896 -126.5828,84.6396 -168.084,146.5371 -8.6378,12.8829 -16.3683,26.1597 -23.5723,39.6328 -4.7878,-8.7278 -9.8036,-17.3683 -15.2187,-25.8437 -38.5905,-60.3997 -92.1433,-111.5117 -156.8066,-145.6582 l -0,0 c -64.6824,-34.156 -138.1254,-50.0842 -211.4453,-45.1465 -99.7598,6.7183 -192.0473,51.3174 -262.4961,117.8652 -70.0954,66.214 -116.9842,151.7142 -141.4922,241.7012 -37.8946,139.1392 -22.3639,290.0232 43.0801,418.5254 65.4439,128.5021 178.344,229.7999 313.164,280.9785 a 70.007,70.007 0 1 0 49.6856,-130.8867 c -101.2905,-38.4506 -188.9276,-117.0812 -238.0957,-213.625 -49.1682,-96.5438 -61.2241,-213.6677 -32.7539,-318.2031 18.457,-67.7696 53.7882,-130.6564 102.5508,-176.7188 48.4089,-45.7284 112.3921,-75.6852 175.7656,-79.9531 46.5945,-3.1379 95.068,7.2964 136.6641,29.2617 41.6147,21.9751 78.0865,56.3571 104.205,97.2363 26.1917,40.9936 43.161,90.0435 51.6621,141.7207 8.5182,51.7806 8.823,108.1667 8.3536,167.8907 l -3.2911,418.8418 a 70.007,70.007 0 0 0 139.9883,1.6445 l 0.01,-0.5449 6.5254,-417.4688 c 0.9742,-62.3341 2.6043,-121.3574 12.6446,-175.6094 10.0185,-54.1342 28.7538,-105.3089 57.1601,-147.6757 28.2962,-42.2028 67.4742,-77.0744 111.5899,-97.9102 43.9993,-20.781 94.9807,-28.3298 141.9687,-20.5762 57.0007,9.4058 112.7629,42.1236 154.17579,87.7754 41.77793,46.0541 71.10807,106.0539 87.07226,170.2696 23.83366,95.8703 17.76925,200.1502 -17.01757,292.6113 -34.78683,92.461 -98.96318,174.8771 -180.08008,231.2617 a 70.007,70.007 0 0 0 40.2363,127.4785 l 578.18167,-2.3398 a 70.007,70.007 0 1 0 -0.56641,-140 l -402.11328,1.6269 c 40.07676,-50.8791 72.45741,-107.8151 95.375,-168.7285 44.99451,-119.5924 52.67691,-251.6835 21.84961,-375.6855 -20.66073,-83.1074 -59.02707,-164.1759 -119.2461,-230.5586 -60.58402,-66.7852 -142.29139,-116.5338 -235.07229,-131.8438 -19.1683,-3.163 -38.4542,-4.7836 -57.6836,-4.9238 z"
         id="path4370-9-0-6-0-6"
         inkscape:connector-curvature="0" />
    </g>
  </g>
</svg>
