<?xml version="1.0" encoding="UTF-8" standalone="no"?>
<!-- Created with Inkscape (http://www.inkscape.org/) -->

<svg
   xmlns:dc="http://purl.org/dc/elements/1.1/"
   xmlns:cc="http://creativecommons.org/ns#"
   xmlns:rdf="http://www.w3.org/1999/02/22-rdf-syntax-ns#"
   xmlns:svg="http://www.w3.org/2000/svg"
   xmlns="http://www.w3.org/2000/svg"
   xmlns:sodipodi="http://sodipodi.sourceforge.net/DTD/sodipodi-0.dtd"
   xmlns:inkscape="http://www.inkscape.org/namespaces/inkscape"
   width="2000"
   height="2048"
   id="svg2992"
   version="1.1"
   inkscape:version="0.91 r13725"
   sodipodi:docname="൪.svg">
  <defs
     id="defs5498">
    <inkscape:path-effect
       effect="spiro"
       id="path-effect4141"
       is_visible="true" />
    <inkscape:path-effect
       effect="spiro"
       id="path-effect4141-7"
       is_visible="true" />
    <inkscape:path-effect
       effect="spiro"
       id="path-effect4141-7-5"
       is_visible="true" />
    <inkscape:path-effect
       effect="spiro"
       id="path-effect4141-7-5-2"
       is_visible="true" />
    <inkscape:path-effect
       effect="spiro"
       id="path-effect4141-7-5-2-1"
       is_visible="true" />
    <inkscape:path-effect
       effect="spiro"
       id="path-effect4141-7-5-2-1-3"
       is_visible="true" />
    <inkscape:path-effect
       effect="spiro"
       id="path-effect4141-7-5-2-1-4"
       is_visible="true" />
    <inkscape:path-effect
       effect="spiro"
       id="path-effect4141-7-5-2-0"
       is_visible="true" />
    <inkscape:path-effect
       effect="spiro"
       id="path-effect4141-7-5-2-5"
       is_visible="true" />
    <inkscape:path-effect
       effect="spiro"
       id="path-effect4141-7-5-2-3"
       is_visible="true" />
    <inkscape:path-effect
       effect="spiro"
       id="path-effect4141-7-5-2-6"
       is_visible="true" />
    <inkscape:path-effect
       effect="spiro"
       id="path-effect4141-7-5-2-57"
       is_visible="true" />
    <inkscape:path-effect
       effect="spiro"
       id="path-effect4141-7-5-2-66"
       is_visible="true" />
    <inkscape:path-effect
       effect="spiro"
       id="path-effect4141-7-5-2-57-5"
       is_visible="true" />
  </defs>
  <sodipodi:namedview
     inkscape:window-height="704"
     inkscape:window-width="1366"
     inkscape:pageshadow="2"
     inkscape:pageopacity="0.0"
     borderopacity="1.0"
     bordercolor="#666666"
     pagecolor="#ffffff"
     id="base"
     showgrid="true"
     showguides="true"
     inkscape:guide-bbox="true"
     inkscape:zoom="0.125"
     inkscape:cx="499.50669"
     inkscape:cy="-53.23883"
     inkscape:window-x="-4"
     inkscape:window-y="0"
     inkscape:current-layer="layer1"
     inkscape:window-maximized="1">
    <sodipodi:guide
       orientation="horizontal"
       position="0,600"
       id="guide5596" />
    <inkscape:grid
       type="xygrid"
       id="grid3769"
       empspacing="3"
       visible="true"
       enabled="true"
       snapvisiblegridlinesonly="true"
       spacingx="4px"
       units="px"
       dotted="true"
       spacingy="4px" />
    <sodipodi:guide
       orientation="0,1"
       position="-1040,1600"
       id="guide2985" />
  </sodipodi:namedview>
  <metadata
     id="metadata5594">
    <rdf:RDF>
      <cc:Work
         rdf:about="">
        <dc:format>image/svg+xml</dc:format>
        <dc:type
           rdf:resource="http://purl.org/dc/dcmitype/StillImage" />
        <dc:title></dc:title>
      </cc:Work>
    </rdf:RDF>
  </metadata>
  <g
     inkscape:label="Layer 1"
     inkscape:groupmode="layer"
     id="layer1"
     transform="translate(0,1048)">
    <path
       style="fill:none;fill-rule:evenodd;stroke:#000000;stroke-width:140;stroke-linecap:round;stroke-linejoin:round;stroke-miterlimit:4;stroke-dasharray:none;stroke-opacity:1"
       d="M 874.19527,-914.74807 825.0524,-21.286648 c -1.9995,36.352774 -3.77043,72.848485 -0.66346,109.123393 3.10697,36.274905 11.11684,72.306575 25.84776,105.601055 29.46184,66.58895 87.68471,120.47567 157.3768,141.5731 59.4785,18.00555 125.2038,12.51859 182.1884,-12.27361 56.9846,-24.79219 105.1578,-68.26983 138.3736,-120.79225 33.2159,-52.52242 51.7335,-113.784149 56.4023,-175.752676 4.6688,-61.968527 -4.2634,-124.614398 -22.9669,-183.877174 -37.2363,-117.98491 -113.9831,-223.01332 -214.6825,-294.89253 -100.6993,-71.87922 -224.73671,-110.30944 -348.44683,-108.63981 -120.87587,1.63138 -241.65472,41.83519 -336.55374,116.72053 -94.89903,74.88533 -162.66936,184.63318 -182.57156,303.87051 -15.49893,92.856641 -1.97582,190.346003 38.21258,275.47805 40.18839,85.13204 106.86404,157.52962 188.40698,204.57557"
       id="path4139-1-1-8"
       inkscape:path-effect="#path-effect4141-7-5-2"
       inkscape:original-d="M 874.19527,-914.74807 825.0524,-21.286648 c -7.34184,133.481158 49.48538,346.330028 182.5611,356.297548 201.6625,15.10474 386.8142,-293.148791 353.9974,-492.69571 -37.4743,-227.86791 -332.3015,-410.36124 -563.12933,-403.53234 -222.61016,6.58579 -469.57287,203.3692 -519.1253,420.59104 -39.3591,172.537591 146.96884,326.07858 226.61956,480.05362"
       inkscape:connector-curvature="0"
       sodipodi:nodetypes="csaaaac" />
    <path
       style="fill:none;fill-rule:evenodd;stroke:#000000;stroke-width:70.00000763;stroke-linecap:round;stroke-linejoin:round;stroke-miterlimit:4;stroke-dasharray:none;stroke-opacity:1"
       d="m -1127.7169,-962.72194 -52.9116,961.501447 c -2.1532,39.126904 -4.0599,78.40789 -0.7125,117.450763 3.3473,39.04288 11.9756,77.8232 27.8402,113.65428 31.7291,71.66216 94.4187,129.63371 169.43388,152.32578 64.01876,19.36567 134.75258,13.46248 196.08771,-13.21022 61.33513,-26.67269 113.19521,-73.44942 148.96362,-129.96536 35.76841,-56.51594 55.72322,-122.44257 60.76908,-189.135668 5.04586,-66.6931 -4.55093,-134.120566 -24.67526,-197.904902 -40.07465,-127.01713 -122.73442,-240.06503 -231.16691,-317.40664 -108.43248,-77.34162 -241.97152,-118.66061 -375.14832,-116.85602 -130.1173,1.76314 -260.1349,45.00137 -362.3165,125.57761 -102.1816,80.57624 -175.1797,198.69206 -196.62,327.04283 -16.6947,99.941553 -2.1355,204.875874 41.1378,296.4971 43.2733,91.62124 115.0685,169.52262 202.861,220.11421"
       id="path4139-1-1-8-9"
       inkscape:path-effect="#path-effect4141-7-5-2-57"
       inkscape:original-d="m -1127.7169,-962.72194 -52.9116,961.501447 c -7.9048,143.646233 53.2805,372.704163 196.56158,383.430823 217.12783,16.25498 416.47863,-315.473034 381.14515,-530.21615 -40.34816,-245.2208 -357.78544,-441.61161 -606.31523,-434.26266 -239.682,7.08733 -505.5839,218.85644 -558.9365,452.62044 -42.3776,185.676857 158.2397,350.9105 243.9988,516.61131"
       inkscape:connector-curvature="0"
       sodipodi:nodetypes="csaaaac" />
    <path
       style="color:#000000;font-style:normal;font-variant:normal;font-weight:normal;font-stretch:normal;font-size:medium;line-height:normal;font-family:sans-serif;text-indent:0;text-align:start;text-decoration:none;text-decoration-line:none;text-decoration-style:solid;text-decoration-color:#000000;letter-spacing:normal;word-spacing:normal;text-transform:none;direction:ltr;block-progression:tb;writing-mode:lr-tb;baseline-shift:baseline;text-anchor:start;white-space:normal;clip-rule:nonzero;display:inline;overflow:visible;visibility:visible;opacity:1;isolation:auto;mix-blend-mode:normal;color-interpolation:sRGB;color-interpolation-filters:linearRGB;solid-color:#000000;solid-opacity:1;fill:#000000;fill-opacity:1;fill-rule:evenodd;stroke:none;stroke-width:140;stroke-linecap:round;stroke-linejoin:round;stroke-miterlimit:4;stroke-dasharray:none;stroke-dashoffset:0;stroke-opacity:1;color-rendering:auto;image-rendering:auto;shape-rendering:auto;text-rendering:auto;enable-background:accumulate"
       d="m 973.04102,838.3125 a 70.007,70.007 0 0 0 -72.74024,67.0957 l -15.82226,287.6816 c -132.70554,3.6558 -264.30938,48.1278 -369.91407,131.461 -108.2856,85.4487 -185.25165,209.4887 -208.2539,347.2988 -17.8974,107.2262 -2.45046,218.5786 43.95703,316.8848 46.40751,98.3061 122.56494,180.9998 216.72656,235.3261 a 70.007,70.007 0 1 0 69.96289,-121.2656 c -68.92427,-39.7657 -126.1186,-101.8682 -160.08789,-173.8261 -33.9693,-71.9581 -45.56926,-155.5831 -32.46875,-234.0704 16.80217,-100.6644 75.37819,-196.1214 156.89063,-260.4433 76.98809,-60.7517 175.74349,-95.9335 275.46875,-101.0508 l -25.60157,465.4648 c -2.01612,36.655 -4.15432,76.4356 -0.51367,118.9414 3.64359,42.5401 13.08523,86.152 31.57813,127.9493 37.61482,85.0161 110.12863,152.7061 201.10934,180.248 76.94,23.2916 158.821,16.0582 230.3965,-15.082 71.2036,-30.9785 129.3791,-83.9524 169.6094,-147.5664 40.0767,-63.3713 61.5921,-135.5589 67.043,-207.9082 5.4367,-72.1625 -4.976,-143.5382 -26.0157,-210.2032 -41.9563,-132.9406 -127.5128,-249.9595 -240.7675,-330.8007 -77.4601,-55.291 -166.5268,-92.7218 -259.5176,-110.2676 l 16.0097,-291.084 a 70.007,70.007 0 0 0 -67.04878,-74.7832 z m 43.25778,507.3379 c 66.7521,15.141 130.6623,43.2739 185.961,82.7461 88.1438,62.9171 156.0814,155.9572 188.5976,258.9863 16.3674,51.8606 23.8187,105.7763 19.918,157.5508 -3.8867,51.5877 -19.4069,101.9222 -45.7617,143.5957 -26.2014,41.4308 -64.3731,75.4136 -107.1387,94.0195 -42.3937,18.4442 -91.9634,22.1845 -133.9805,9.4649 -48.4034,-14.6529 -92.3357,-54.7368 -113.6445,-102.8985 -10.96894,-24.7917 -17.54683,-53.2422 -20.11719,-83.2519 -2.57328,-30.044 -1.16843,-63.254 0.81446,-99.3047 l 25.35153,-460.9082 z"
       id="path4139-1-1-8-3"
       inkscape:connector-curvature="0" />
    <path
       style="color:#000000;font-style:normal;font-variant:normal;font-weight:normal;font-stretch:normal;font-size:medium;line-height:normal;font-family:sans-serif;text-indent:0;text-align:start;text-decoration:none;text-decoration-line:none;text-decoration-style:solid;text-decoration-color:#000000;letter-spacing:normal;word-spacing:normal;text-transform:none;direction:ltr;block-progression:tb;writing-mode:lr-tb;baseline-shift:baseline;text-anchor:start;white-space:normal;clip-rule:nonzero;display:inline;overflow:visible;visibility:visible;opacity:1;isolation:auto;mix-blend-mode:normal;color-interpolation:sRGB;color-interpolation-filters:linearRGB;solid-color:#000000;solid-opacity:1;fill:#000000;fill-opacity:1;fill-rule:evenodd;stroke:none;stroke-width:70.00000763;stroke-linecap:round;stroke-linejoin:round;stroke-miterlimit:4;stroke-dasharray:none;stroke-dashoffset:0;stroke-opacity:1;color-rendering:auto;image-rendering:auto;shape-rendering:auto;text-rendering:auto;enable-background:accumulate"
       d="m -1222.293,1497.8086 a 35.003504,35.003504 0 0 0 -36.3711,33.5469 l -19.1308,347.623 c -9.2998,-0.2688 -18.607,-0.3703 -27.916,-0.2441 -137.5531,1.8638 -274.7772,47.3466 -383.5137,133.0918 -108.8763,85.8554 -186.4782,211.1169 -209.4707,348.7597 -17.8955,107.1302 -2.3742,218.9996 44.0117,317.211 46.3859,98.2113 122.926,181.2616 217.0332,235.4922 a 35.003504,35.003504 0 1 0 34.9512,-60.6504 c -81.4778,-46.9527 -148.5287,-119.7053 -188.6895,-204.7364 -40.1607,-85.031 -53.7575,-183.0301 -38.2636,-275.7832 19.8881,-119.0587 88.2845,-230.029 183.7714,-305.3261 95.6267,-75.4073 218.4357,-116.4021 341.1172,-118.0645 7.7056,-0.1044 15.4163,-0.047 23.1231,0.1543 l -29.9356,543.9727 c -2.1615,39.2782 -4.2514,80.2045 -0.6367,122.3652 3.6161,42.1777 12.9614,84.7502 30.709,124.834 35.8095,80.878 105.6476,145.7455 191.3027,171.6562 72.7444,22.0052 151.55208,15.2288 220.17972,-14.6152 68.44215,-29.7633 125.30315,-81.2842 164.58007,-143.3437 39.20031,-61.9385 60.65704,-133.3281 66.09571,-205.2129 5.4316,-71.7916 -4.90402,-143.587 -26.19727,-211.0762 -42.43692,-134.5044 -129.50765,-253.5477 -244.2207,-335.3691 -88.05123,-62.8043 -191.33893,-102.9026 -298.24223,-117.3282 l 19.2364,-349.5644 a 35.003504,35.003504 0 0 0 -33.5235,-37.3926 z m 10.4297,457.0566 c 93.769,13.5986 184.5239,49.347 261.45119,104.2168 102.15191,72.862 180.39897,179.9136 218.11133,299.4434 18.95541,60.0794 27.81441,123.1378 23.1543,184.7324 -4.65308,61.5014 -23.10687,121.9653 -55.44336,173.0586 -32.2599,50.9723 -79.1196,93.0058 -133.34766,116.5879 -54.04261,23.5014 -116.7029,28.5309 -171.9961,11.8047 -64.3752,-19.4735 -119.9157,-70.5477 -147.5644,-132.9942 -13.9817,-31.5782 -21.8922,-66.5667 -24.9708,-102.4746 -3.08,-35.9251 -1.3577,-73.5615 0.7872,-112.5371 l 29.8183,-541.8379 z"
       id="path4139-1-1-8-9-4"
       inkscape:connector-curvature="0" />
  </g>
</svg>
