<?xml version="1.0" encoding="UTF-8" standalone="no"?>
<!-- Created with Inkscape (http://www.inkscape.org/) -->

<svg
   xmlns:dc="http://purl.org/dc/elements/1.1/"
   xmlns:cc="http://creativecommons.org/ns#"
   xmlns:rdf="http://www.w3.org/1999/02/22-rdf-syntax-ns#"
   xmlns:svg="http://www.w3.org/2000/svg"
   xmlns="http://www.w3.org/2000/svg"
   xmlns:sodipodi="http://sodipodi.sourceforge.net/DTD/sodipodi-0.dtd"
   xmlns:inkscape="http://www.inkscape.org/namespaces/inkscape"
   width="2000"
   height="2048"
   id="svg2992"
   version="1.1"
   inkscape:version="0.91 r13725"
   sodipodi:docname="൮.svg">
  <defs
     id="defs5498">
    <inkscape:path-effect
       effect="spiro"
       id="path-effect4163"
       is_visible="true" />
    <inkscape:path-effect
       effect="spiro"
       id="path-effect3006"
       is_visible="true" />
    <inkscape:path-effect
       is_visible="true"
       id="path-effect3006-3"
       effect="spiro" />
    <inkscape:path-effect
       is_visible="true"
       id="path-effect4141-37"
       effect="spiro" />
    <inkscape:path-effect
       is_visible="true"
       id="path-effect4141-37-3"
       effect="spiro" />
    <inkscape:path-effect
       is_visible="true"
       id="path-effect4141-37-3-0"
       effect="spiro" />
    <inkscape:path-effect
       is_visible="true"
       id="path-effect4141-37-3-0-7"
       effect="spiro" />
    <inkscape:path-effect
       effect="spiro"
       id="path-effect4163-1"
       is_visible="true" />
    <inkscape:path-effect
       effect="spiro"
       id="path-effect4141-37-3-0-9"
       is_visible="true" />
    <inkscape:path-effect
       effect="spiro"
       id="path-effect4163-1-4"
       is_visible="true" />
    <inkscape:path-effect
       effect="spiro"
       id="path-effect4141-37-3-0-9-8"
       is_visible="true" />
    <inkscape:path-effect
       effect="spiro"
       id="path-effect4163-1-4-2"
       is_visible="true" />
    <inkscape:path-effect
       effect="spiro"
       id="path-effect4141-37-3-0-9-8-0"
       is_visible="true" />
    <inkscape:path-effect
       effect="spiro"
       id="path-effect4141-37-3-0-9-8-0-7"
       is_visible="true" />
    <inkscape:path-effect
       effect="spiro"
       id="path-effect4163-1-4-2-6"
       is_visible="true" />
    <inkscape:path-effect
       effect="spiro"
       id="path-effect4163-1-4-6"
       is_visible="true" />
    <inkscape:path-effect
       effect="spiro"
       id="path-effect4141-37-3-0-9-8-5"
       is_visible="true" />
    <inkscape:path-effect
       effect="spiro"
       id="path-effect4141-37-3-0-9-8-5-0"
       is_visible="true" />
    <inkscape:path-effect
       effect="spiro"
       id="path-effect4163-1-4-6-0"
       is_visible="true" />
    <inkscape:path-effect
       effect="spiro"
       id="path-effect4141-37-3-0-9-8-8"
       is_visible="true" />
    <inkscape:path-effect
       effect="spiro"
       id="path-effect4163-1-4-28"
       is_visible="true" />
  </defs>
  <sodipodi:namedview
     inkscape:window-height="704"
     inkscape:window-width="1366"
     inkscape:pageshadow="2"
     inkscape:pageopacity="0.0"
     borderopacity="1.0"
     bordercolor="#666666"
     pagecolor="#ffffff"
     id="base"
     showgrid="true"
     showguides="true"
     inkscape:guide-bbox="true"
     inkscape:zoom="0.16051324"
     inkscape:cx="-416.0537"
     inkscape:cy="-807.28924"
     inkscape:window-x="-4"
     inkscape:window-y="0"
     inkscape:current-layer="layer1-7"
     inkscape:window-maximized="1">
    <sodipodi:guide
       orientation="horizontal"
       position="0,600"
       id="guide5596" />
    <inkscape:grid
       type="xygrid"
       id="grid3769"
       empspacing="3"
       visible="true"
       enabled="true"
       snapvisiblegridlinesonly="true"
       spacingx="4px"
       units="px"
       dotted="true"
       spacingy="4px" />
    <sodipodi:guide
       orientation="0,1"
       position="-1040,1600"
       id="guide2985" />
  </sodipodi:namedview>
  <metadata
     id="metadata5594">
    <rdf:RDF>
      <cc:Work
         rdf:about="">
        <dc:format>image/svg+xml</dc:format>
        <dc:type
           rdf:resource="http://purl.org/dc/dcmitype/StillImage" />
        <dc:title />
      </cc:Work>
    </rdf:RDF>
  </metadata>
  <g
     inkscape:label="Layer 1"
     inkscape:groupmode="layer"
     id="layer1"
     transform="translate(0,1048)">
    <g
       id="layer1-7"
       inkscape:label="Layer 1"
       transform="translate(-1486.7764,237.09647)">
      <path
         style="fill:none;fill-rule:evenodd;stroke:#000000;stroke-width:140;stroke-linecap:round;stroke-linejoin:round;stroke-miterlimit:4;stroke-dasharray:none;stroke-opacity:1"
         d="m 3211.4771,73.766542 c 7.1794,51.445538 1.6289,104.619608 -16.02,153.473508 -18.6715,51.68447 -50.5974,98.10767 -89.8183,136.59956 -39.221,38.49188 -85.6224,69.23349 -134.8984,93.56016 -162.6173,80.28131 -359.1696,88.65945 -528.0287,22.5075"
         id="path4161-3-8"
         inkscape:path-effect="#path-effect4163-1-4"
         inkscape:original-d="m 3211.4771,73.766542 c 0,0 5.8281,106.909538 -16.02,153.473508 -45.5471,97.07256 -64.3726,207.47787 -224.7167,230.15972 -155.5277,22.51493 -528.0287,22.5075 -528.0287,22.5075"
         inkscape:connector-curvature="0"
         sodipodi:nodetypes="cacc" />
      <path
         style="fill:none;fill-rule:evenodd;stroke:#000000;stroke-width:140;stroke-linecap:round;stroke-linejoin:round;stroke-miterlimit:4;stroke-dasharray:none;stroke-opacity:1"
         d="m 3216.2123,-774.83102 -2.3944,878.68303 -732.695,-2.24114 c 95.0641,-27.128436 180.0261,-88.309458 235.8953,-169.867855 55.8692,-81.558395 82.2277,-182.884095 73.1837,-281.328725 -10.5257,-114.57326 -68.8446,-223.20281 -155.6104,-298.76414 -86.7659,-75.56133 -200.6304,-118.15699 -315.5958,-122.71454 -110.4257,-4.37759 -222.6386,26.20605 -313.1393,89.63021 -90.5007,63.42417 -158.1694,159.93238 -182.7888,267.66769 -27.3677,119.76229 0.2005,250.95113 73.4586,349.56778 73.2581,98.616651 190.8956,162.896825 313.4586,171.28193"
         id="path4139-9-6-5-3-4"
         inkscape:path-effect="#path-effect4141-37-3-0-9-8"
         inkscape:original-d="m 3216.2123,-774.83102 -2.3944,878.68303 -732.695,-2.24114 c 0,0 330.9417,-270.20326 309.079,-451.19658 -25.273,-209.22626 -260.7756,-410.37539 -471.2062,-421.47868 -203.4535,-10.7352 -464.7215,155.9424 -495.9281,357.2979 -33.1252,213.73557 386.9172,520.84971 386.9172,520.84971"
         inkscape:connector-curvature="0"
         sodipodi:nodetypes="cccaaac" />
      <path
         style="fill:none;fill-rule:evenodd;stroke:#000000;stroke-width:70;stroke-linecap:round;stroke-linejoin:round;stroke-miterlimit:4;stroke-dasharray:none;stroke-opacity:1"
         d="m 829.0576,105.58626 c 10.71563,55.41692 4.60511,113.97324 -17.32091,165.98391 -21.46039,50.90615 -57.49373,94.91647 -100.14398,130.02971 -42.65026,35.11324 -91.81903,61.65968 -142.82087,82.89165 -179.52806,74.7372 -385.66914,83.52659 -570.9073098,24.3422"
         id="path4161-3-8-5"
         inkscape:path-effect="#path-effect4163-1-4-6"
         inkscape:original-d="m 829.0576,105.58626 c 0,0 8.24816,116.58005 -17.32091,165.98391 -49.49708,95.63691 -69.59999,188.39053 -242.96485,212.92136 -168.15734,24.3502 -570.9073098,24.3422 -570.9073098,24.3422"
         inkscape:connector-curvature="0"
         sodipodi:nodetypes="cacc" />
      <path
         style="fill:none;fill-rule:evenodd;stroke:#000000;stroke-width:70;stroke-linecap:round;stroke-linejoin:round;stroke-miterlimit:4;stroke-dasharray:none;stroke-opacity:1"
         d="M 834.17732,-812.18502 831.58848,138.12416 39.394915,135.70033 C 142.1833,106.32887 234.03883,40.150212 294.44179,-48.05193 c 60.40296,-88.20214 88.90208,-197.7688 79.13091,-304.22377 -11.37195,-123.8951 -74.41035,-241.37253 -168.21946,-323.09871 -93.80911,-81.72618 -216.932832,-127.80867 -341.25109,-132.73698 -119.40587,-4.73357 -240.74231,28.35626 -338.5907,96.95553 -97.84839,68.59927 -170.99873,172.96853 -197.60928,289.46766 -29.58139,129.50524 0.22449,271.35802 79.42602,378.005975 79.20152,106.647951 206.38322,176.185105 338.91083,185.300985"
         id="path4139-9-6-5-3-4-0"
         inkscape:path-effect="#path-effect4141-37-3-0-9-8-5"
         inkscape:original-d="m 834.17732,-812.18502 -2.58884,950.30918 -792.193565,-2.42383 c 0,0 357.815845,-292.22898 334.177785,-487.97603 -27.3253,-226.2814 -281.951902,-443.82731 -509.47055,-455.83569 -219.97496,-11.61028 -502.45925,168.6541 -536.19998,386.42319 -35.81514,231.15831 418.33685,563.30696 418.33685,563.30696"
         inkscape:connector-curvature="0"
         sodipodi:nodetypes="cccaaac" />
      <path
         style="color:#000000;font-style:normal;font-variant:normal;font-weight:normal;font-stretch:normal;font-size:medium;line-height:normal;font-family:sans-serif;text-indent:0;text-align:start;text-decoration:none;text-decoration-line:none;text-decoration-style:solid;text-decoration-color:#000000;letter-spacing:normal;word-spacing:normal;text-transform:none;direction:ltr;block-progression:tb;writing-mode:lr-tb;baseline-shift:baseline;text-anchor:start;white-space:normal;clip-rule:nonzero;display:inline;overflow:visible;visibility:visible;opacity:1;isolation:auto;mix-blend-mode:normal;color-interpolation:sRGB;color-interpolation-filters:linearRGB;solid-color:#000000;solid-opacity:1;fill:#000000;fill-opacity:1;fill-rule:evenodd;stroke:none;stroke-width:70;stroke-linecap:round;stroke-linejoin:round;stroke-miterlimit:4;stroke-dasharray:none;stroke-dashoffset:0;stroke-opacity:1;color-rendering:auto;image-rendering:auto;shape-rendering:auto;text-rendering:auto;enable-background:accumulate"
         d="M -1037.0312 1973.4141 A 35.0035 35.0035 0 0 0 -1071.5996 2008.8145 L -1074.0625 2912.6855 A 35.0035 35.0035 0 0 0 -1076.7461 2924.1055 L -1677.4062 2922.2676 C -1626.7216 2887.557 -1582.3094 2843.7099 -1547.459 2792.8203 C -1482.3209 2697.7039 -1451.8144 2580.4213 -1462.3516 2465.6211 C -1474.6155 2332.0077 -1541.9545 2206.8691 -1642.4336 2119.332 C -1742.766 2031.9228 -1873.2559 1983.2459 -2005.2891 1978.0117 C -2132.0836 1972.9852 -2260.7046 2007.9115 -2365.3574 2081.2812 C -2470.1554 2154.7527 -2548.2953 2265.9633 -2576.9961 2391.6133 C -2608.9496 2531.5034 -2577.1014 2683.0815 -2491.5488 2798.2812 C -2405.9962 2913.4812 -2270.0943 2987.7859 -2126.9395 2997.6328 A 35.0035 35.0035 0 1 0 -2122.1367 2927.7969 C -2244.037 2919.412 -2362.4992 2854.6428 -2435.3496 2756.5469 C -2508.2 2658.451 -2535.9632 2526.3215 -2508.7539 2407.2012 C -2484.2336 2299.8529 -2416.0727 2202.3248 -2325.1738 2138.5977 C -2234.1298 2074.7688 -2120.0797 2043.5164 -2008.0625 2047.957 C -1891.4592 2052.5795 -1775.6999 2096.0682 -1688.4141 2172.1113 C -1601.275 2248.0266 -1542.5385 2357.8427 -1532.0586 2472.0195 C -1523.0534 2570.1293 -1549.545 2671.9798 -1605.2129 2753.2676 C -1660.8808 2834.5554 -1746.2674 2896.0736 -1840.998 2923.1426 A 35.0035 35.0035 0 0 0 -1831.4902 2991.7969 L -1071.9512 2994.1211 C -1073.4864 3023.3121 -1079.9979 3052.282 -1091.291 3079.0703 C -1110.1087 3123.7076 -1142.3905 3163.5335 -1181.4297 3195.6738 C -1220.5724 3227.8993 -1266.643 3252.9542 -1315.457 3273.2754 C -1487.1079 3344.7333 -1685.1493 3353.1774 -1862.2598 3296.5898 A 35.0035 35.0035 0 1 0 -1883.5645 3363.2695 C -1690.1986 3425.0508 -1475.9599 3415.9149 -1288.5547 3337.8984 C -1235.3651 3315.7557 -1183.0972 3287.7177 -1136.9395 3249.7168 C -1090.6781 3211.6306 -1050.8922 3163.4366 -1026.7891 3106.2617 C -1004.761 3054.0089 -996.9758 2996.3398 -1004.1367 2940.1973 L -1001.5996 2009.0059 A 35.0035 35.0035 0 0 0 -1037.0312 1973.4141 z M 1536.5762 2455.2734 A 70.007 70.007 0 0 0 1467.4355 2526.0742 L 1465.2344 3334.7324 L 1046.4375 3333.4531 C 1064.4666 3314.4764 1081.1103 3294.1202 1095.9902 3272.3984 C 1161.3346 3177.0081 1191.7087 3060.2459 1181.1309 2945.1055 C 1168.8191 2811.0898 1101.893 2687.1374 1001.7852 2599.957 C 901.97172 2513.033 773.37733 2465.2549 642.99023 2460.0859 C 517.79453 2455.1228 391.01615 2489.3762 286.90625 2562.3379 C 182.50515 2635.5037 104.85143 2745.693 76.048828 2871.7344 C 43.933528 3012.2721 75.590342 3162.9167 161.55664 3278.6406 C 247.52294 3394.3645 382.60539 3468.1759 526.42969 3478.0156 A 70.007 70.007 0 1 0 535.98438 3338.3418 C 434.68268 3331.4113 334.49316 3276.6636 273.94336 3195.1543 C 213.39346 3113.6448 189.91105 3001.9107 212.53125 2902.9238 C 232.96735 2813.4946 290.65155 2730.669 367.25195 2676.9863 C 444.14345 2623.0996 541.79147 2596.1845 637.44727 2599.9766 C 736.99097 2603.9228 836.1234 2641.3364 909.8418 2705.5352 C 983.2657 2769.4774 1032.9791 2862.7831 1041.7188 2957.9141 C 1049.2289 3039.6628 1026.8842 3125.5528 980.49023 3193.2793 C 934.09613 3261.0058 862.08017 3312.867 783.13867 3335.3945 A 70.007 70.007 0 0 0 802.13086 3472.707 L 1459.5273 3474.7168 C 1457.2494 3484.8567 1454.354 3494.8361 1450.8438 3504.5527 C 1436.2849 3544.8532 1410.5233 3582.891 1377.8301 3614.9766 C 1345.0099 3647.1867 1304.9036 3674.0425 1260.9766 3695.7285 C 1116.702 3766.9543 939.28105 3774.5164 789.46875 3715.8262 A 70.007 70.007 0 1 0 738.40039 3846.1797 C 926.30639 3919.7934 1141.9912 3910.6005 1322.9512 3821.2637 C 1377.5762 3794.2963 1430.2708 3759.6682 1475.8926 3714.8945 C 1521.6412 3669.9962 1559.7315 3615.1876 1582.5156 3552.1191 C 1600.5938 3502.0771 1608.2326 3448.778 1605.0684 3395.8164 L 1607.4355 2526.4551 A 70.007 70.007 0 0 0 1536.5762 2455.2734 z "
         transform="translate(1486.7764,-1285.0965)"
         id="path4161-3-8-5-8" />
    </g>
  </g>
</svg>
