<?xml version="1.0" encoding="UTF-8" standalone="no"?>
<!-- Created with Inkscape (http://www.inkscape.org/) -->

<svg
   xmlns:dc="http://purl.org/dc/elements/1.1/"
   xmlns:cc="http://creativecommons.org/ns#"
   xmlns:rdf="http://www.w3.org/1999/02/22-rdf-syntax-ns#"
   xmlns:svg="http://www.w3.org/2000/svg"
   xmlns="http://www.w3.org/2000/svg"
   xmlns:sodipodi="http://sodipodi.sourceforge.net/DTD/sodipodi-0.dtd"
   xmlns:inkscape="http://www.inkscape.org/namespaces/inkscape"
   width="2000"
   height="2048"
   id="svg2992"
   version="1.1"
   inkscape:version="0.91 r13725"
   sodipodi:docname="൯.svg">
  <defs
     id="defs5498">
    <inkscape:path-effect
       effect="spiro"
       id="path-effect3846"
       is_visible="true" />
    <inkscape:path-effect
       effect="spiro"
       id="path-effect3801"
       is_visible="true" />
    <inkscape:path-effect
       is_visible="true"
       id="path-effect3846-9"
       effect="spiro" />
    <inkscape:path-effect
       is_visible="true"
       id="path-effect3801-6"
       effect="spiro" />
    <inkscape:path-effect
       effect="spiro"
       id="path-effect4372-5-0-5"
       is_visible="true" />
    <inkscape:path-effect
       effect="spiro"
       id="path-effect4372-5-0-5-7"
       is_visible="true" />
    <inkscape:path-effect
       effect="spiro"
       id="path-effect4372-5-0-5-7-0"
       is_visible="true" />
    <inkscape:path-effect
       effect="spiro"
       id="path-effect4372-5-0-5-7-0-2"
       is_visible="true" />
    <inkscape:path-effect
       effect="spiro"
       id="path-effect4372-5-0-5-7-0-2-1"
       is_visible="true" />
    <inkscape:path-effect
       effect="spiro"
       id="path-effect4372-5-0-5-7-0-2-3"
       is_visible="true" />
    <inkscape:path-effect
       effect="spiro"
       id="path-effect4372-5-0-5-7-0-2-9"
       is_visible="true" />
    <inkscape:path-effect
       effect="spiro"
       id="path-effect4372-5-0-6"
       is_visible="true" />
    <inkscape:path-effect
       effect="spiro"
       id="path-effect4372-5-0-6-0"
       is_visible="true" />
    <inkscape:path-effect
       effect="spiro"
       id="path-effect4372-5-0-6-02"
       is_visible="true" />
    <inkscape:path-effect
       effect="spiro"
       id="path-effect4372-5-0-6-02-6"
       is_visible="true" />
    <inkscape:path-effect
       effect="spiro"
       id="path-effect4372-5-0-6-9"
       is_visible="true" />
  </defs>
  <sodipodi:namedview
     inkscape:window-height="704"
     inkscape:window-width="1366"
     inkscape:pageshadow="2"
     inkscape:pageopacity="0.0"
     borderopacity="1.0"
     bordercolor="#666666"
     pagecolor="#ffffff"
     id="base"
     showgrid="true"
     showguides="true"
     inkscape:guide-bbox="true"
     inkscape:zoom="0.1767767"
     inkscape:cx="2029.4055"
     inkscape:cy="236.48165"
     inkscape:window-x="-4"
     inkscape:window-y="0"
     inkscape:current-layer="layer1"
     inkscape:window-maximized="1"
     inkscape:snap-grids="false"
     inkscape:snap-to-guides="false">
    <sodipodi:guide
       orientation="horizontal"
       position="0,600"
       id="guide5596" />
    <inkscape:grid
       type="xygrid"
       id="grid3769"
       empspacing="3"
       visible="true"
       enabled="true"
       snapvisiblegridlinesonly="true"
       spacingx="4px"
       units="px"
       dotted="true"
       spacingy="4px" />
    <sodipodi:guide
       orientation="0,1"
       position="-1040,1600"
       id="guide2985" />
  </sodipodi:namedview>
  <metadata
     id="metadata5594">
    <rdf:RDF>
      <cc:Work
         rdf:about="">
        <dc:format>image/svg+xml</dc:format>
        <dc:type
           rdf:resource="http://purl.org/dc/dcmitype/StillImage" />
        <dc:title />
      </cc:Work>
    </rdf:RDF>
  </metadata>
  <g
     inkscape:label="Layer 1"
     inkscape:groupmode="layer"
     id="layer1"
     transform="translate(0,1048)">
    <path
       style="fill:none;fill-rule:evenodd;stroke:#000000;stroke-width:140;stroke-linecap:round;stroke-linejoin:round;stroke-miterlimit:4;stroke-dasharray:none;stroke-opacity:1"
       d="m 1752.0827,-888.02435 -7.0952,836.369672 c -0.7,82.516036 -0.1234,167.252398 29.8742,244.125868 14.9987,38.43674 37.2215,74.36062 67.0048,102.91411 29.7833,28.55348 67.2804,49.50641 107.794,57.3164 46.6613,8.99511 96.0434,0.18347 138.2174,-21.71489 42.174,-21.89836 77.2306,-56.41755 102.4963,-96.6646 50.5316,-80.4941 61.245,-180.377456 52.9122,-275.05218 -11.6309,-132.14757 -59.4465,-262.89428 -146.4433,-363.04326 -86.9967,-100.14899 -214.8107,-167.12769 -347.459,-168.76821 -114.6673,-1.41814 -229.1028,46.79003 -308.1901,129.83105 -79.0873,83.04101 -121.6601,199.69036 -114.6543,314.15225 l 0.4191,459.7824 -2.1414,-461.4525 c 17.7475,-112.32204 -18.0306,-231.91755 -94.5462,-316.03989 -76.5157,-84.12234 -192.1953,-131.04139 -305.69177,-123.98701 -114.34784,7.10729 -223.26321,68.10643 -292.92681,159.06205 -69.6636,90.95563 -100.16738,209.87252 -87.73372,323.764337 12.90325,118.193294 71.56169,230.799753 161.02191,309.113353 89.46021,78.31359 208.83703,121.55944 327.69849,118.71316"
       id="path4370-9-0-9"
       inkscape:path-effect="#path-effect4372-5-0-6"
       inkscape:original-d="m 1752.0827,-888.02435 -7.0952,836.369672 c -1.0164,119.815293 54.1666,391.337568 204.673,404.356378 163.032,14.10226 302.4022,-230.02643 293.6259,-393.43167 -12.975,-241.57993 -251.979,-530.29213 -493.9023,-531.81147 -204.37,-1.28349 -422.8444,443.9833 -422.8444,443.9833 l 0.4191,459.7824 -2.1414,-461.4525 c 0,0 -202.0867,-447.00994 -400.23797,-440.0269 -204.81831,7.21799 -399.50026,278.7487 -380.66053,482.826387 19.90267,215.591723 294.71593,523.184613 488.7204,427.826513"
       inkscape:connector-curvature="0"
       sodipodi:nodetypes="csaaacccaac" />
    <path
       style="fill:none;fill-rule:evenodd;stroke:#000000;stroke-width:70;stroke-linecap:round;stroke-linejoin:round;stroke-miterlimit:4;stroke-dasharray:none;stroke-opacity:1"
       d="m 3985.919,-905.32008 -7.4014,872.984536 c -0.7301,86.114747 -0.1372,174.543674 31.1417,254.780264 15.6395,40.11829 38.8155,77.61847 69.8862,107.42929 31.0707,29.81082 70.1969,51.69186 112.4761,59.84888 48.6951,9.39484 100.2334,0.19437 144.2418,-22.6688 44.0085,-22.86317 80.5823,-58.90179 106.9334,-100.91479 52.7021,-84.02601 63.8334,-188.269231 55.1198,-287.071869 -12.1602,-137.884261 -62.0085,-274.312481 -152.7401,-378.848161 -90.7317,-104.53568 -224.0641,-174.49312 -362.4725,-176.24513 -119.6728,-1.51485 -239.1167,48.80402 -321.6304,135.4952 -82.5137,86.69119 -126.877,208.47272 -119.4584,327.92495 l 0.4372,479.91085 -2.2338,-481.65406 c 18.6097,-117.20985 -18.6675,-242.05489 -98.4958,-329.87235 -79.8284,-87.81746 -200.5628,-136.79767 -319.0112,-129.41819 -119.3261,7.43417 -232.9682,71.12848 -305.6326,166.06995 -72.6644,94.94146 -104.4518,219.04511 -91.4522,337.893768 13.4872,123.306525 74.674,240.780032 167.982,322.511412 93.308,81.73139 217.8165,126.91413 341.8252,124.04457"
       id="path4370-9-0-9-4"
       inkscape:path-effect="#path-effect4372-5-0-6-02"
       inkscape:original-d="m 3985.919,-905.32008 -7.4014,872.984536 c -1.0602,125.060601 56.5038,408.469684 213.504,422.058434 170.0663,14.71957 315.4499,-240.09657 306.295,-410.655459 C 4484.7816,-273.08847 4235.4654,-574.44 3983.104,-576.02586 c -213.188,-1.33968 -441.0888,463.42015 -441.0888,463.42015 l 0.4372,479.91085 -2.2338,-481.65406 c 0,0 -210.8061,-466.57929 -417.507,-459.29054 -213.6555,7.53397 -416.7374,290.95184 -397.0848,503.963718 20.7614,225.030002 307.4319,546.088702 509.8072,446.555982"
       inkscape:connector-curvature="0"
       sodipodi:nodetypes="csaaacccaac" />
    <path
       style="color:#000000;font-style:normal;font-variant:normal;font-weight:normal;font-stretch:normal;font-size:medium;line-height:normal;font-family:sans-serif;text-indent:0;text-align:start;text-decoration:none;text-decoration-line:none;text-decoration-style:solid;text-decoration-color:#000000;letter-spacing:normal;word-spacing:normal;text-transform:none;direction:ltr;block-progression:tb;writing-mode:lr-tb;baseline-shift:baseline;text-anchor:start;white-space:normal;clip-rule:nonzero;display:inline;overflow:visible;visibility:visible;opacity:1;isolation:auto;mix-blend-mode:normal;color-interpolation:sRGB;color-interpolation-filters:linearRGB;solid-color:#000000;solid-opacity:1;fill:#000000;fill-opacity:1;fill-rule:evenodd;stroke:none;stroke-width:70;stroke-linecap:round;stroke-linejoin:round;stroke-miterlimit:4;stroke-dasharray:none;stroke-dashoffset:0;stroke-opacity:1;color-rendering:auto;image-rendering:auto;shape-rendering:auto;text-rendering:auto;enable-background:accumulate"
       d="m 3813.166,371.95898 a 35.0035,35.0035 0 0 0 -34.7734,35.20118 l -2.5059,295.6582 c -117.4975,7.54407 -230.9065,59.79004 -312.2929,145.29687 -36.1002,37.92781 -65.245,81.88597 -86.8086,129.26758 -19.0102,-48.42905 -46.4355,-93.58485 -81.6914,-132.36914 -87.2863,-96.02174 -217.5716,-148.87749 -347.086,-140.80859 -130.3324,8.11988 -252.473,76.80252 -331.25,179.73047 -78.6171,102.71915 -112.4076,235.37365 -98.4512,362.97065 14.47,132.2917 79.6057,257.3462 179.7129,345.0333 a 35.0035,35.0035 0 0 0 0,0 c 100.1074,87.6871 232.6522,135.7857 365.6973,132.707 a 35.0035,35.0035 0 1 0 -1.6191,-69.9824 c -114.9723,2.6605 -231.4463,-39.6051 -317.9551,-115.3808 -86.5088,-75.7758 -143.7456,-185.669 -156.25,-299.9903 -12.0427,-110.1004 17.7414,-225.6526 84.4531,-312.81638 66.5519,-86.95496 171.6959,-145.65975 280.0156,-152.40821 107.3825,-6.69006 218.5651,38.41414 290.9356,118.02735 56.3296,61.96707 89.4709,145.35734 93.5019,229.38474 -2.4364,21.4597 -3.3922,43.0899 -2.8144,64.75 -0.3086,2.2326 -0.5061,4.4817 -0.8594,6.7071 a 35.0035,35.0035 0 0 0 -0.4336,5.6503 l 2.2344,481.5235 0,0.1308 a 35.0035,35.0035 0 0 0 70,-0.1933 l -0.4375,-479.9121 a 35.0035,35.0035 0 0 0 -0.068,-2.1367 c -0.1765,-2.8419 -0.1848,-5.6932 -0.2969,-8.5391 2.6763,-21.7458 3.6609,-43.609 2.9668,-65.4141 10.9222,-84.523 48.6667,-166.16562 107.209,-227.67185 67.5372,-70.95643 163.1877,-115.64186 260.9922,-123.35351 l -4.2988,507.12106 c -0.7332,86.4785 -0.856,179.584 33.5293,267.7891 17.2087,44.1436 42.8881,86.0297 78.2656,119.9726 35.4889,34.0498 80.3091,59.3574 130.0762,68.959 57.3789,11.0702 116.4879,0.2694 167.0078,-25.9765 50.321,-26.1427 91.1395,-66.6449 120.4492,-113.375 58.4469,-93.1853 69.466,-205.1971 60.334,-308.7442 -12.7181,-144.2098 -64.7206,-287.5872 -161.1738,-398.71481 -89.2472,-102.82531 -216.7479,-174.35591 -353.5996,-186.39258 l 2.5097,-295.9082 a 35.0035,35.0035 0 0 0 -35.2246,-35.79493 z m 32.1192,402.01954 c 114.5198,11.87435 224.4993,73.43696 301.332,161.95898 85.0102,97.9437 132.7043,227.4236 144.3066,358.9824 8.2952,94.0582 -2.947,190.5317 -49.9043,265.3985 -23.3924,37.2959 -55.7239,68.8693 -93.4199,88.4531 -37.4971,19.4804 -81.4633,27.0807 -121.4746,19.3613 -34.7913,-6.7123 -68.2225,-25.1665 -94.875,-50.7383 -26.7639,-25.6786 -47.4375,-58.7917 -61.5078,-94.8847 -28.1725,-72.2679 -29.4809,-156.0206 -28.7539,-241.7715 l 4.2969,-506.75978 z"
       id="path4370-9-0-9-4-0"
       inkscape:connector-curvature="0" />
    <path
       style="color:#000000;font-style:normal;font-variant:normal;font-weight:normal;font-stretch:normal;font-size:medium;line-height:normal;font-family:sans-serif;text-indent:0;text-align:start;text-decoration:none;text-decoration-line:none;text-decoration-style:solid;text-decoration-color:#000000;letter-spacing:normal;word-spacing:normal;text-transform:none;direction:ltr;block-progression:tb;writing-mode:lr-tb;baseline-shift:baseline;text-anchor:start;white-space:normal;clip-rule:nonzero;display:inline;overflow:visible;visibility:visible;opacity:1;isolation:auto;mix-blend-mode:normal;color-interpolation:sRGB;color-interpolation-filters:linearRGB;solid-color:#000000;solid-opacity:1;fill:#000000;fill-opacity:1;fill-rule:evenodd;stroke:none;stroke-width:140;stroke-linecap:round;stroke-linejoin:round;stroke-miterlimit:4;stroke-dasharray:none;stroke-dashoffset:0;stroke-opacity:1;color-rendering:auto;image-rendering:auto;shape-rendering:auto;text-rendering:auto;enable-background:accumulate"
       d="m 1200.9668,923.95703 a 70.007,70.007 0 0 0 -69.5469,70.40235 l -2.125,250.48242 c -109.4998,14.7602 -212.71294,66.5698 -289.45506,147.1484 -20.6248,21.6559 -38.95231,45.2039 -55.10937,70.0762 -15.27229,-25.7236 -32.99775,-50.0946 -53.33985,-72.459 -91.42817,-100.5173 -226.20195,-155.1792 -361.81835,-146.75 -136.35187,8.475 -262.26321,79.4403 -344.156254,186.3633 -81.574492,106.5069 -116.092684,242.5277 -101.748047,373.9238 14.866596,136.1774 81.4296854,263.9579 184.501951,354.1875 103.07229,90.2297 238.53333,139.3029 375.48047,136.0235 a 70.007,70.007 0 1 0 -3.35156,-139.961 C 379.52307,2155.8077 276.23094,2118.3898 200.38281,2051.9922 124.53465,1985.5946 73.781729,1888.1604 62.841797,1787.9512 52.319092,1691.5637 78.80784,1589.7519 136.56055,1514.3477 193.9947,1439.3592 285.914,1388.3275 378.25781,1382.5879 c 91.37656,-5.6795 187.96325,33.4953 249.56641,101.2226 47.43995,52.1561 75.95584,123.3645 80.08398,194.6504 -2.13345,20.1508 -2.99426,40.463 -2.57617,60.8301 -0.12503,0.841 -0.18963,1.6938 -0.32226,2.5332 a 70.007,70.007 0 0 0 -0.85547,11.25 l 2.14062,461.4512 a 70.007,70.007 0 0 0 140,-0.3887 L 845.875,1754.3555 a 70.007,70.007 0 0 0 -0.13086,-4.2129 c -0.0891,-1.4554 -0.0773,-2.9196 -0.14648,-4.377 2.40694,-20.6995 3.39158,-41.4587 2.89843,-62.1484 10.05238,-72.3976 42.81537,-142.6719 92.72266,-195.0742 49.10911,-51.5642 116.30395,-87.4515 186.87105,-101.5157 l -3.7636,443.7012 c -0.7062,83.2486 -1.5597,177.3471 34.6601,270.166 18.1414,46.4903 45.3725,91.1847 83.7715,127.9981 38.6213,37.0265 87.5079,64.8262 142.9883,75.5215 64.0181,12.341 128.5331,0.3314 183.7246,-28.3262 54.7948,-28.4515 98.3398,-71.8934 129.5254,-121.5703 62.0271,-98.8057 72.5247,-214.23 63.3555,-318.4082 -12.7465,-144.8219 -64.8766,-289.4772 -163.3262,-402.8106 a 70.007,70.007 0 0 0 -0,0 c -84.1322,-96.8514 -201.1179,-166.6448 -329.7363,-186.7773 l 2.1289,-250.97462 a 70.007,70.007 0 0 0 -70.4492,-71.58985 z m 67.1133,464.89647 c 85.2641,18.8748 166.4133,68.522 225.2519,136.2559 75.5438,86.9646 119.0432,203.802 129.5586,323.2754 7.4964,85.1712 -3.4306,169.5149 -42.4668,231.6972 -19.346,30.8173 -45.9155,56.4127 -75.4687,71.7578 -29.1565,15.1392 -63.4047,20.7546 -92.709,15.1055 -25.5468,-4.9248 -51.6562,-19.0328 -72.6016,-39.1133 -21.1676,-20.2936 -38.3801,-47.4467 -50.2363,-77.83 -23.7753,-60.9279 -25.7817,-136.3025 -25.0879,-218.086 l 3.7598,-443.0625 z"
       id="path4370-9-0-9-9"
       inkscape:connector-curvature="0" />
  </g>
</svg>
