<?xml version="1.0" encoding="UTF-8" standalone="no"?>
<!-- Created with Inkscape (http://www.inkscape.org/) -->

<svg
   xmlns:dc="http://purl.org/dc/elements/1.1/"
   xmlns:cc="http://creativecommons.org/ns#"
   xmlns:rdf="http://www.w3.org/1999/02/22-rdf-syntax-ns#"
   xmlns:svg="http://www.w3.org/2000/svg"
   xmlns="http://www.w3.org/2000/svg"
   xmlns:sodipodi="http://sodipodi.sourceforge.net/DTD/sodipodi-0.dtd"
   xmlns:inkscape="http://www.inkscape.org/namespaces/inkscape"
   width="2000"
   height="2048"
   id="svg2992"
   version="1.1"
   inkscape:version="0.91 r13725"
   sodipodi:docname="൰.svg">
  <defs
     id="defs5498">
    <inkscape:path-effect
       effect="spiro"
       id="path-effect4166"
       is_visible="true" />
    <inkscape:path-effect
       effect="spiro"
       id="path-effect3846"
       is_visible="true" />
    <inkscape:path-effect
       effect="spiro"
       id="path-effect3801"
       is_visible="true" />
    <inkscape:path-effect
       effect="spiro"
       id="path-effect4372-5-0"
       is_visible="true" />
    <inkscape:path-effect
       effect="spiro"
       id="path-effect4372-5-0-5"
       is_visible="true" />
    <inkscape:path-effect
       effect="spiro"
       id="path-effect4372-5-0-53"
       is_visible="true" />
    <inkscape:path-effect
       effect="spiro"
       id="path-effect4372-5-0-6"
       is_visible="true" />
    <inkscape:path-effect
       effect="spiro"
       id="path-effect4372-5-0-6-1"
       is_visible="true" />
    <inkscape:path-effect
       effect="spiro"
       id="path-effect4372-5-0-6-1-2"
       is_visible="true" />
    <inkscape:path-effect
       effect="spiro"
       id="path-effect4372-5-0-6-9"
       is_visible="true" />
    <inkscape:path-effect
       effect="spiro"
       id="path-effect4372-5-0-6-9-1"
       is_visible="true" />
    <inkscape:path-effect
       effect="spiro"
       id="path-effect4372-5-0-6-1-2-2"
       is_visible="true" />
    <inkscape:path-effect
       effect="spiro"
       id="path-effect4372-5-0-6-1-2-2-6"
       is_visible="true" />
    <inkscape:path-effect
       effect="spiro"
       id="path-effect4372-5-0-6-10"
       is_visible="true" />
    <inkscape:path-effect
       effect="spiro"
       id="path-effect4372-5-0-6-94"
       is_visible="true" />
    <inkscape:path-effect
       effect="spiro"
       id="path-effect4372-5-0-6-94-2"
       is_visible="true" />
    <inkscape:path-effect
       effect="spiro"
       id="path-effect4372-5-0-6-94-5"
       is_visible="true" />
    <inkscape:path-effect
       effect="spiro"
       id="path-effect4166-3"
       is_visible="true" />
    <inkscape:path-effect
       effect="spiro"
       id="path-effect4372-5-0-6-94-6"
       is_visible="true" />
    <inkscape:path-effect
       effect="spiro"
       id="path-effect4166-35"
       is_visible="true" />
    <inkscape:path-effect
       effect="spiro"
       id="path-effect4372-5-0-6-9-2"
       is_visible="true" />
    <inkscape:path-effect
       effect="spiro"
       id="path-effect4166-35-9"
       is_visible="true" />
    <inkscape:path-effect
       effect="spiro"
       id="path-effect4372-5-0-6-94-7"
       is_visible="true" />
    <inkscape:path-effect
       effect="spiro"
       id="path-effect4166-0"
       is_visible="true" />
  </defs>
  <sodipodi:namedview
     inkscape:window-height="843"
     inkscape:window-width="1600"
     inkscape:pageshadow="2"
     inkscape:pageopacity="0.0"
     borderopacity="1.0"
     bordercolor="#666666"
     pagecolor="#ffffff"
     id="base"
     showgrid="true"
     showguides="true"
     inkscape:guide-bbox="true"
     inkscape:zoom="0.25000001"
     inkscape:cx="2774.7312"
     inkscape:cy="553.29889"
     inkscape:window-x="1600"
     inkscape:window-y="0"
     inkscape:current-layer="layer1"
     inkscape:window-maximized="1">
    <sodipodi:guide
       orientation="horizontal"
       position="0,600"
       id="guide5596" />
    <inkscape:grid
       type="xygrid"
       id="grid3769"
       empspacing="3"
       visible="true"
       enabled="true"
       snapvisiblegridlinesonly="true"
       spacingx="4px"
       units="px"
       dotted="true"
       spacingy="4px" />
    <sodipodi:guide
       orientation="0,1"
       position="-1040,1600"
       id="guide2985" />
    <sodipodi:guide
       position="3552,1710"
       orientation="0,1"
       id="guide4190"
       inkscape:label=""
       inkscape:color="rgb(0,0,255)" />
  </sodipodi:namedview>
  <metadata
     id="metadata5594">
    <rdf:RDF>
      <cc:Work
         rdf:about="">
        <dc:format>image/svg+xml</dc:format>
        <dc:type
           rdf:resource="http://purl.org/dc/dcmitype/StillImage" />
        <dc:title />
      </cc:Work>
    </rdf:RDF>
  </metadata>
  <g
     inkscape:label="Layer 1"
     inkscape:groupmode="layer"
     id="layer1"
     transform="translate(0,1048)">
    <path
       style="fill:none;fill-rule:evenodd;stroke:#000000;stroke-width:70;stroke-linecap:round;stroke-linejoin:round;stroke-miterlimit:4;stroke-dasharray:none;stroke-opacity:1"
       d="m -1044.2529,-572.62029 c 126.2443,-27.08186 263.25447,0.51904 369.1659,74.36902 105.91143,73.84998 179.17676,192.8701 197.40916,320.69275 18.18946,127.521664 -18.8099,262.23574 -100.70677,361.66177 -81.89687,99.42602 -207.68272,161.68283 -336.45083,165.06002 -123.54766,3.24027 -247.55906,-47.76011 -333.08136,-136.98157 -85.5222,-89.22145 -131.2288,-215.2800692 -122.763,-338.57993 l 0.4518,-466.69746 -2.3085,464.17915 c 12.1589,120.0379864 -28.7967,244.4934 -109.8638,333.85272 -81.067,89.35932 -200.9585,142.20386 -321.6099,141.75592 -124.8132,-0.46339 -247.917,-57.84017 -330.0713,-151.80416 -82.1543,-93.96399 -122.5324,-222.703642 -110.7888,-346.96403 12.3024,-130.17303 81.611,-253.9413 186.169,-332.45245 104.5579,-78.51115 242.7457,-110.54903 371.1843,-86.05657"
       id="path4370-9-0-9-1"
       inkscape:path-effect="#path-effect4372-5-0-6-9"
       inkscape:original-d="m -1044.2529,-572.62029 c 0,0 535.71696,166.504 566.57506,395.06177 30.5596,226.346498 -209.4882,518.55677 -437.1576,526.72179 -219.14506,7.85931 -455.84436,-475.5615 -455.84436,-475.5615 l 0.4518,-466.69746 -2.3085,464.17915 c 0,0 -217.73,476.99489 -431.4737,475.60864 -221.5633,-1.43697 -463.2927,-277.762272 -440.8601,-498.76819 23.5002,-231.52232 348.2081,-521.57808 557.3533,-418.50902"
       inkscape:connector-curvature="0"
       sodipodi:nodetypes="caacccaac" />
    <path
       style="fill:none;fill-rule:evenodd;stroke:#000000;stroke-width:140;stroke-linecap:round;stroke-linejoin:round;stroke-miterlimit:4;stroke-dasharray:none;stroke-opacity:1"
       d="m 1406.5557,-547.30692 c 98.9087,10.37686 194.2438,52.47331 268.5445,118.57934 74.3007,66.10603 127.2019,155.89666 149.0145,252.92663 28.1714,125.315951 2.6151,262.98105 -73.7055,366.29071 -38.1603,51.65483 -88.3374,94.49087 -145.7161,123.33723 -57.3787,28.84637 -121.8951,43.58426 -186.0888,41.68815 -57.2047,-1.68967 -114.0876,-16.6681 -164.2246,-44.26359 -50.137,-27.59548 -93.1874,-67.77479 -124.7037,-115.54466 C 1098.1598,147.93701 1078.374,92.981501 1068.2792,36.649206 1058.1844,-19.683088 1057.702,-77.238486 1057.76,-134.46811 l 0.4191,-413.78238 4.2261,415.45247 c 0.5975,58.734755 0.5567,117.869379 -10.1983,175.614158 -10.7549,57.744782 -32.3188,113.863042 -66.37931,161.717082 -34.06052,47.85404 -80.3182,86.95691 -133.23365,112.45364 C 799.67848,342.48358 740.52548,354.413 681.79962,353.22885 559.21774,350.75711 439.74069,289.66342 363.45187,193.68194 287.16305,97.700462 254.59463,-30.985535 272.85482,-152.22494 c 16.47766,-109.40417 73.56468,-212.21709 157.71647,-284.0451 84.15179,-71.82801 194.65386,-112.06128 305.28823,-111.15396"
       id="path4370-9-0-9-6"
       inkscape:path-effect="#path-effect4372-5-0-6-94"
       inkscape:original-d="m 1406.5557,-547.30692 c 0,0 399.7212,186.06101 417.559,371.50597 21.332,221.770653 -182.7243,533.22542 -405.5104,531.31609 -202.8314,-1.7383 -349.7918,-278.082147 -360.8443,-489.98325 l 0.4191,-413.78238 4.2261,415.45247 c -12.48,258.23101 -174.83908,484.39143 -380.60558,486.02687 -216.7161,1.72245 -428.8551,-289.647397 -408.9448,-505.45379 18.6414,-202.05283 269.0002,-490.55718 463.0047,-395.19906"
       inkscape:connector-curvature="0"
       sodipodi:nodetypes="caacccaac" />
    <path
       style="fill:none;fill-rule:evenodd;stroke:#000000;stroke-width:140;stroke-linecap:round;stroke-linejoin:round;stroke-miterlimit:4;stroke-dasharray:none;stroke-opacity:1"
       d="m 672,354 c 33.14295,83.99113 23.95797,183.49511 -24,260 C 603.66373,684.72739 527.36489,734.53122 444.77497,746.65451 362.18506,758.7778 274.79198,733.00214 212,678"
       id="path4164"
       inkscape:path-effect="#path-effect4166"
       inkscape:original-d="m 672,354 c 0,0 35.86866,196.82679 -24,260 -101.04142,106.61857 -436,64 -436,64"
       inkscape:connector-curvature="0"
       sodipodi:nodetypes="cac" />
    <path
       style="color:#000000;font-style:normal;font-variant:normal;font-weight:normal;font-stretch:normal;font-size:medium;line-height:normal;font-family:sans-serif;text-indent:0;text-align:start;text-decoration:none;text-decoration-line:none;text-decoration-style:solid;text-decoration-color:#000000;letter-spacing:normal;word-spacing:normal;text-transform:none;direction:ltr;block-progression:tb;writing-mode:lr-tb;baseline-shift:baseline;text-anchor:start;white-space:normal;clip-rule:nonzero;display:inline;overflow:visible;visibility:visible;opacity:1;isolation:auto;mix-blend-mode:normal;color-interpolation:sRGB;color-interpolation-filters:linearRGB;solid-color:#000000;solid-opacity:1;fill:#000000;fill-opacity:1;fill-rule:evenodd;stroke:none;stroke-width:140;stroke-linecap:round;stroke-linejoin:round;stroke-miterlimit:4;stroke-dasharray:none;stroke-dashoffset:0;stroke-opacity:1;color-rendering:auto;image-rendering:auto;shape-rendering:auto;text-rendering:auto;enable-background:accumulate"
       d="M 1206.7539 2098.5 A 70.007 70.007 0 0 0 1140.1797 2167.6777 L 1139.7598 2581.4609 C 1139.7248 2616.0602 1139.8278 2652.1574 1142.3574 2689.3242 C 1140.9646 2708.8721 1138.7809 2727.7956 1135.3906 2745.998 C 1126.2249 2795.2104 1107.961 2841.7774 1080.7988 2879.9395 C 1053.6543 2918.0768 1016.2829 2949.651 974.20898 2969.9238 C 931.97961 2990.2716 883.51554 3000.2142 835.21094 2999.2402 C 734.95649 2997.2186 633.39054 2945.5642 570.25 2866.125 C 506.8864 2786.4052 478.7261 2676.1039 494.07422 2574.1992 C 507.96759 2481.9533 557.06177 2393.5335 628.01562 2332.9707 C 698.96948 2272.4077 794.00205 2237.8073 887.28516 2238.5723 A 70.007 70.007 0 1 0 888.43359 2098.5762 C 760.44796 2097.5266 634.47668 2143.393 537.12695 2226.4863 C 439.77726 2309.5794 374.69667 2426.7851 355.63477 2553.3477 C 334.46255 2693.9218 371.43833 2840.9933 460.65234 2953.2363 C 537.05936 3049.3666 648.46762 3114.8377 769.66016 3133.6992 C 779.5721 3187.664 769.33248 3247.1276 740.68945 3292.8203 C 707.69433 3345.4558 648.07295 3384.3743 586.60938 3393.3965 C 525.14585 3402.4187 456.85296 3382.2764 410.12305 3341.3438 A 70.007 70.007 0 1 0 317.87695 3446.6562 C 396.731 3515.7279 503.22511 3547.1365 606.94141 3531.9121 C 710.65766 3516.6877 803.63313 3455.999 859.31055 3367.1797 C 903.06732 3297.3767 920.95099 3214.5626 911.57227 3134.0176 C 953.99891 3127.5218 995.68059 3114.9822 1034.9785 3096.0469 C 1098.7356 3065.3263 1153.8809 3018.6939 1194.8574 2961.123 C 1201.2845 2952.0932 1207.176 2942.8012 1212.8242 2933.4004 C 1216.1995 2939.061 1219.5922 2944.7155 1223.2461 2950.2539 C 1260.9628 3007.4217 1312.1735 3055.3005 1372.627 3088.5742 C 1432.9839 3121.7947 1500.4981 3139.4727 1568.5371 3141.4824 C 1644.8143 3143.7354 1720.4911 3126.3741 1788.1348 3092.3672 C 1855.7282 3058.3855 1914.1149 3008.4484 1958.7109 2948.082 C 2048.2534 2826.8749 2076.9746 2669.7015 2044.4102 2524.8438 C 2019.3125 2413.2006 1959.1196 2311.0346 1873.6289 2234.9727 C 1788.1381 2158.9109 1679.6642 2111.0119 1565.8594 2099.0723 A 70.007 70.007 0 1 0 1551.252 2238.3086 C 1635.2645 2247.1227 1717.4595 2283.4182 1780.5703 2339.5684 C 1843.681 2395.7186 1889.2908 2473.134 1907.8184 2555.5508 C 1931.5967 2661.3252 1909.2061 2779.4824 1846.1074 2864.8945 C 1814.3829 2907.8377 1772.4159 2943.5721 1725.252 2967.2832 C 1678.1382 2990.9689 1624.7821 3003.0822 1572.6719 3001.543 C 1526.3015 3000.1733 1480.0499 2987.8963 1440.1328 2965.9258 C 1400.3123 2944.0085 1365.4214 2911.5281 1340.1055 2873.1562 C 1314.7631 2834.7441 1297.8695 2788.7818 1289.1816 2740.3008 C 1286.1819 2723.5612 1284.1724 2706.2154 1282.7656 2688.3945 C 1284.9246 2651.8892 1284.7477 2616.434 1284.4023 2582.4883 L 1280.1758 2167.0352 A 70.007 70.007 0 0 0 1206.7539 2098.5 z "
       transform="translate(0,-1048)"
       id="path4370-9-0-9-6-7" />
    <path
       style="fill:none;fill-rule:evenodd;stroke:#000000;stroke-width:70;stroke-linecap:round;stroke-linejoin:round;stroke-miterlimit:4;stroke-dasharray:none;stroke-opacity:1"
       d="m -1812,382.00001 c 15.9886,64.68587 7.2701,135.16056 -24,194 -40.0741,75.40557 -117.3268,129.86348 -201.8143,142.26531 -84.4874,12.40183 -174.1317,-17.55745 -234.1857,-78.26531"
       id="path4164-6"
       inkscape:path-effect="#path-effect4166-35"
       inkscape:original-d="m -1812,382.00001 c 0,0 21.5498,147.40607 -24,194 -102.6839,105.03767 -436,64 -436,64"
       inkscape:connector-curvature="0"
       sodipodi:nodetypes="cac" />
    <path
       style="color:#000000;font-style:normal;font-variant:normal;font-weight:normal;font-stretch:normal;font-size:medium;line-height:normal;font-family:sans-serif;text-indent:0;text-align:start;text-decoration:none;text-decoration-line:none;text-decoration-style:solid;text-decoration-color:#000000;letter-spacing:normal;word-spacing:normal;text-transform:none;direction:ltr;block-progression:tb;writing-mode:lr-tb;baseline-shift:baseline;text-anchor:start;white-space:normal;clip-rule:nonzero;display:inline;overflow:visible;visibility:visible;opacity:1;isolation:auto;mix-blend-mode:normal;color-interpolation:sRGB;color-interpolation-filters:linearRGB;solid-color:#000000;solid-opacity:1;fill:#000000;fill-opacity:1;fill-rule:evenodd;stroke:none;stroke-width:70;stroke-linecap:round;stroke-linejoin:round;stroke-miterlimit:4;stroke-dasharray:none;stroke-dashoffset:0;stroke-opacity:1;color-rendering:auto;image-rendering:auto;shape-rendering:auto;text-rendering:auto;enable-background:accumulate"
       d="M -1227.6465 2148.3594 A 35.0035 35.0035 0 0 0 -1261.2285 2182.7305 L -1261.2285 2182.8711 L -1263.5352 2646.9102 A 35.0035 35.0035 0 0 0 -1263.3574 2650.6113 C -1262.8828 2655.297 -1262.6211 2660.0024 -1262.3242 2664.7051 C -1262.7297 2677.865 -1262.5896 2691.0129 -1261.8926 2704.1309 C -1265.5894 2796.8015 -1302.1684 2888.9085 -1364.3223 2957.4199 C -1438.4647 3039.1464 -1549.5352 3088.101 -1659.8809 3087.6914 C -1774.0534 3087.2675 -1888.3348 3034.0857 -1963.7324 2947.8496 C -2039.2002 2861.5333 -2076.8489 2741.7411 -2066.0254 2627.2168 C -2054.686 2507.2338 -1990.0587 2391.8242 -1893.6855 2319.459 C -1797.3123 2247.0936 -1668.4567 2217.2197 -1550.0723 2239.7949 A 35.0035 35.0035 0 1 0 -1536.9609 2171.0352 C -1675.4537 2144.6254 -1822.974 2178.8254 -1935.7168 2263.4824 C -2048.4596 2348.1394 -2122.4494 2480.2679 -2135.7148 2620.6309 C -2148.3786 2754.6273 -2105.2705 2892.3141 -2016.4297 2993.9258 C -1936.937 3084.8455 -1823.0602 3143.6854 -1703.0195 3155.4922 A 35.0035 35.0035 0 0 0 -1701.9766 3166.3984 C -1688.1201 3222.4584 -1695.8062 3284.5812 -1722.9062 3335.5742 C -1757.5098 3400.6862 -1825.9424 3448.9279 -1898.8965 3459.6367 C -1971.8505 3470.3456 -2051.2612 3443.8054 -2103.1172 3391.3848 A 35.0035 35.0035 0 1 0 -2152.8828 3440.6152 C -2084.6308 3509.6104 -1984.7512 3542.9893 -1888.7305 3528.8945 C -1792.7096 3514.7998 -1706.6384 3454.125 -1661.0938 3368.4258 C -1626.8309 3303.9551 -1616.5835 3228.1377 -1632.3145 3156.9258 C -1511.1247 3149.9134 -1394.227 3094.5636 -1312.4785 3004.4531 C -1275.1871 2963.3473 -1245.9027 2915.6228 -1225.4258 2864.4023 C -1202.7806 2918.9767 -1170.3132 2969.4917 -1129.1836 3012.4004 C -1036.5759 3109.0137 -903.70133 3163.6591 -769.91797 3160.1504 C -630.47746 3156.4933 -495.88904 3089.8221 -407.36914 2982.3555 C -318.89734 2874.9471 -279.41634 2731.0015 -299.0293 2593.5 C -318.6837 2455.7079 -396.89649 2328.6489 -511.06836 2249.0391 C -625.24023 2169.4292 -771.50317 2139.9641 -907.59375 2169.1582 A 35.0035 35.0035 0 1 0 -892.91211 2237.6016 C -776.51407 2212.6319 -648.75648 2238.3688 -551.10547 2306.459 C -453.45446 2374.5491 -385.13655 2485.5295 -368.32617 2603.3828 C -351.56021 2720.9247 -386.07845 2846.4077 -461.40039 2937.8516 C -536.67421 3029.2369 -653.65819 3087.0785 -771.75391 3090.1758 C -885.0659 3093.1476 -1000.2134 3045.7926 -1078.6504 2963.9629 C -1145.3009 2894.4295 -1185.823 2799.4599 -1191.7734 2703.1074 C -1191.3801 2689.935 -1191.4899 2676.7461 -1192.2363 2663.5586 C -1192.0878 2659.7048 -1192.0258 2655.8462 -1191.7617 2652 A 35.0035 35.0035 0 0 0 -1191.6797 2649.6348 L -1191.2285 2183.1113 L -1191.2285 2183.0781 L -1191.2285 2182.9375 A 35.0035 35.0035 0 0 0 -1227.6465 2148.3594 z "
       transform="translate(0,-1048)"
       id="path4370-9-0-9-1-1" />
    <path
       style="color:#000000;font-style:normal;font-variant:normal;font-weight:normal;font-stretch:normal;font-size:medium;line-height:normal;font-family:sans-serif;text-indent:0;text-align:start;text-decoration:none;text-decoration-line:none;text-decoration-style:solid;text-decoration-color:#000000;letter-spacing:normal;word-spacing:normal;text-transform:none;direction:ltr;block-progression:tb;writing-mode:lr-tb;baseline-shift:baseline;text-anchor:start;white-space:normal;clip-rule:nonzero;display:inline;overflow:visible;visibility:visible;opacity:1;isolation:auto;mix-blend-mode:normal;color-interpolation:sRGB;color-interpolation-filters:linearRGB;solid-color:#000000;solid-opacity:1;fill:#000000;fill-opacity:1;fill-rule:evenodd;stroke:none;stroke-width:200;stroke-linecap:round;stroke-linejoin:round;stroke-miterlimit:4;stroke-dasharray:none;stroke-dashoffset:0;stroke-opacity:1;color-rendering:auto;image-rendering:auto;shape-rendering:auto;text-rendering:auto;enable-background:accumulate"
       d="M 3475.0156 380.55273 A 100.01 100.01 0 0 0 3464.1211 580.14648 C 3541.7497 588.29077 3618.314 622.09907 3676.6289 673.98242 C 3734.9439 725.86582 3777.4292 797.97882 3794.5488 874.13281 C 3816.4445 971.5321 3795.4088 1081.3285 3737.9766 1159.0703 C 3709.0102 1198.28 3670.5616 1230.9722 3627.7754 1252.4824 C 3585.061 1273.9565 3536.4882 1284.9448 3489.5566 1283.5586 C 3447.8296 1282.3261 3406.1348 1271.2042 3370.5977 1251.6445 C 3335.1985 1232.1608 3303.8051 1202.9808 3281.1465 1168.6367 C 3258.45 1134.2352 3242.7958 1092.1258 3234.7109 1047.0098 C 3232.0283 1032.0396 3230.1904 1016.3158 3228.8594 1000.0098 C 3230.9596 963.04056 3230.7403 927.59978 3230.4004 894.18555 L 3226.1738 478.73242 A 100.01 100.01 0 0 0 3026.1797 479.64844 L 3025.7598 893.42969 C 3025.7258 927.40954 3025.8008 963.40549 3028.2598 1000.9492 C 3026.9334 1018.9542 3024.938 1036.186 3021.8984 1052.5059 C 3013.4137 1098.0615 2996.5633 1140.5364 2972.3574 1174.5449 C 2948.1769 1208.5179 2914.6131 1236.8644 2877.1855 1254.8984 C 2839.5359 1273.0395 2795.6549 1282.134 2751.8164 1281.25 C 2750.713 1281.2278 2749.6082 1281.192 2748.5039 1281.1562 A 100.01 100.01 0 0 0 2740.3906 1280.6777 A 100.01 100.01 0 0 0 2739.4395 1280.7168 C 2652.6744 1275.0414 2564.6292 1228.5215 2509.7363 1159.459 C 2451.912 1086.7084 2425.6401 984.28637 2439.7402 890.66797 C 2452.5261 805.77569 2498.1946 723.52599 2563.4922 667.79102 C 2628.7898 612.056 2717.1922 579.86823 2803.0391 580.57227 A 100.01 100.01 0 1 0 2804.6797 380.58008 C 2669.2577 379.46947 2536.6563 427.7489 2433.6504 515.66992 C 2330.6444 603.59096 2262.1402 726.96478 2241.9707 860.88086 C 2219.5504 1009.7413 2258.4145 1164.6919 2353.168 1283.9043 C 2429.6739 1380.159 2538.5569 1447.2368 2658.6641 1471.3926 C 2661.6812 1512.3706 2652.1868 1555.5217 2631.2715 1588.8867 C 2603.1368 1633.7685 2550.6613 1668.0217 2498.252 1675.7148 C 2445.8426 1683.408 2385.7368 1665.6803 2345.8906 1630.7773 A 100.01 100.01 0 1 0 2214.1094 1781.2227 C 2299.8472 1856.324 2414.5284 1890.1472 2527.2988 1873.5938 C 2640.0692 1857.0403 2740.1906 1791.6863 2800.7285 1695.1133 C 2843.2465 1627.2866 2863.2526 1548.7667 2859.7461 1470.623 C 2895.4478 1462.9965 2930.4801 1451.2263 2964.002 1435.0742 C 3029.0865 1403.714 3085.4507 1356.9191 3128.6328 1299.2871 C 3167.2494 1351.4115 3216.6883 1395.2248 3274.1602 1426.8574 C 3338.897 1462.4887 3410.97 1481.3239 3483.6523 1483.4707 C 3565.1081 1485.8767 3645.5664 1467.3905 3717.6094 1431.1719 C 3789.5805 1394.9893 3851.4876 1342.0101 3898.8418 1277.9102 C 3994.0508 1149.0327 4024.1268 983.49825 3989.6797 830.26562 C 3963.1741 712.35968 3899.8567 604.89116 3809.5703 524.5625 C 3719.2839 444.23379 3605.179 393.84771 3484.9902 381.23828 A 100.01 100.01 0 0 0 3475.0156 380.55273 z "
       transform="translate(0,-1048)"
       id="path4370-9-0-9-6-9" />
  </g>
</svg>
