<?xml version="1.0" encoding="UTF-8" standalone="no"?>
<!-- Created with Inkscape (http://www.inkscape.org/) -->

<svg
   xmlns:dc="http://purl.org/dc/elements/1.1/"
   xmlns:cc="http://creativecommons.org/ns#"
   xmlns:rdf="http://www.w3.org/1999/02/22-rdf-syntax-ns#"
   xmlns:svg="http://www.w3.org/2000/svg"
   xmlns="http://www.w3.org/2000/svg"
   xmlns:sodipodi="http://sodipodi.sourceforge.net/DTD/sodipodi-0.dtd"
   xmlns:inkscape="http://www.inkscape.org/namespaces/inkscape"
   width="2048"
   height="2000"
   id="svg2992"
   version="1.1"
   inkscape:version="0.91 r13725"
   sodipodi:docname="൳.svg">
  <defs
     id="defs5498">
    <inkscape:path-effect
       effect="spiro"
       id="path-effect4161"
       is_visible="true" />
    <inkscape:path-effect
       effect="spiro"
       id="path-effect4141-3"
       is_visible="true" />
    <inkscape:path-effect
       effect="spiro"
       id="path-effect4141-3-4"
       is_visible="true" />
    <inkscape:path-effect
       effect="spiro"
       id="path-effect4141-3-4-5"
       is_visible="true" />
    <inkscape:path-effect
       effect="spiro"
       id="path-effect4161-3"
       is_visible="true" />
    <inkscape:path-effect
       effect="spiro"
       id="path-effect4161-2"
       is_visible="true" />
    <inkscape:path-effect
       effect="spiro"
       id="path-effect4161-2-9"
       is_visible="true" />
    <inkscape:path-effect
       effect="spiro"
       id="path-effect4161-5"
       is_visible="true" />
    <inkscape:path-effect
       effect="spiro"
       id="path-effect4161-36"
       is_visible="true" />
    <inkscape:path-effect
       effect="spiro"
       id="path-effect4161-36-2"
       is_visible="true" />
    <inkscape:path-effect
       effect="spiro"
       id="path-effect4161-2-8"
       is_visible="true" />
    <inkscape:path-effect
       effect="spiro"
       id="path-effect4161-2-8-2"
       is_visible="true" />
    <inkscape:path-effect
       effect="spiro"
       id="path-effect4161-2-8-8"
       is_visible="true" />
    <inkscape:path-effect
       effect="spiro"
       id="path-effect4161-1"
       is_visible="true" />
    <inkscape:path-effect
       effect="spiro"
       id="path-effect4161-367"
       is_visible="true" />
    <inkscape:path-effect
       effect="spiro"
       id="path-effect4161-56"
       is_visible="true" />
    <inkscape:path-effect
       effect="spiro"
       id="path-effect4161-12"
       is_visible="true" />
    <inkscape:path-effect
       effect="spiro"
       id="path-effect4161-3675"
       is_visible="true" />
    <inkscape:path-effect
       effect="spiro"
       id="path-effect4161-6"
       is_visible="true" />
    <inkscape:path-effect
       effect="spiro"
       id="path-effect4161-6-1"
       is_visible="true" />
    <inkscape:path-effect
       effect="spiro"
       id="path-effect4161-6-0"
       is_visible="true" />
    <inkscape:path-effect
       effect="spiro"
       id="path-effect4161-60"
       is_visible="true" />
  </defs>
  <sodipodi:namedview
     inkscape:window-height="843"
     inkscape:window-width="1600"
     inkscape:pageshadow="2"
     inkscape:pageopacity="0.0"
     borderopacity="1.0"
     bordercolor="#666666"
     pagecolor="#ffffff"
     id="base"
     showgrid="true"
     showguides="true"
     inkscape:guide-bbox="true"
     inkscape:zoom="0.25000001"
     inkscape:cx="2992.7294"
     inkscape:cy="332.5674"
     inkscape:window-x="1600"
     inkscape:window-y="0"
     inkscape:current-layer="layer1"
     inkscape:window-maximized="1">
    <sodipodi:guide
       orientation="horizontal"
       position="0,600"
       id="guide5596" />
    <inkscape:grid
       type="xygrid"
       id="grid3769"
       empspacing="5"
       visible="true"
       enabled="true"
       snapvisiblegridlinesonly="true" />
    <sodipodi:guide
       orientation="0,1"
       position="-760,1600"
       id="guide6577" />
    <sodipodi:guide
       position="3200,1710"
       orientation="0,1"
       id="guide4175"
       inkscape:label=""
       inkscape:color="rgb(0,0,255)" />
  </sodipodi:namedview>
  <metadata
     id="metadata5594">
    <rdf:RDF>
      <cc:Work
         rdf:about="">
        <dc:format>image/svg+xml</dc:format>
        <dc:type
           rdf:resource="http://purl.org/dc/dcmitype/StillImage" />
        <dc:title />
      </cc:Work>
    </rdf:RDF>
  </metadata>
  <g
     inkscape:label="Layer 1"
     inkscape:groupmode="layer"
     id="layer1"
     transform="translate(0,1000)">
    <path
       style="fill:none;fill-rule:evenodd;stroke:#000000;stroke-width:140;stroke-linecap:butt;stroke-linejoin:miter;stroke-miterlimit:4;stroke-dasharray:none;stroke-opacity:1"
       d="m 233.4395,-5.9030043 c 2.45679,-94.1048057 47.75271,-185.6690057 119.07064,-247.1141157 71.31794,-61.44511 167.22081,-92.60112 261.24304,-87.95677 88.58105,4.37557 175.75638,40.3816 239.61996,101.92177 C 917.23672,-177.51196 956.6809,-90.58123 958.0669,-1.9030045 959.50061,89.827649 920.05748,180.88914 854.22544,244.78523 788.3934,308.68132 697.46233,345.20388 605.75318,347.65353 510.03329,350.21031 413.23222,315.51838 343.07301,250.35305 272.9138,185.18772 230.94051,89.818412 233.4395,-5.9030043 Z"
       id="path4159"
       inkscape:path-effect="#path-effect4161"
       inkscape:original-d="M 233.4395,-5.9030043 C 236.59229,-174.82821 444.86357,-345.66066 613.75318,-340.97389 774.77123,-336.50556 957.76541,-162.98276 958.0669,-1.9030045 958.37654,163.53039 771.17694,345.8415 605.75318,347.65353 434.61708,349.52813 230.2458,165.21356 233.4395,-5.9030043 Z"
       inkscape:connector-curvature="0"
       sodipodi:nodetypes="aaaaa" />
    <path
       style="fill:none;fill-rule:evenodd;stroke:#000000;stroke-width:140;stroke-linecap:round;stroke-linejoin:round;stroke-miterlimit:4;stroke-dasharray:none;stroke-opacity:1"
       d="m 614.54416,-345.55635 1385.45584,0"
       id="path4160"
       inkscape:connector-curvature="0"
       sodipodi:nodetypes="cc" />
    <path
       style="color:#000000;font-style:normal;font-variant:normal;font-weight:normal;font-stretch:normal;font-size:medium;line-height:normal;font-family:sans-serif;text-indent:0;text-align:start;text-decoration:none;text-decoration-line:none;text-decoration-style:solid;text-decoration-color:#000000;letter-spacing:normal;word-spacing:normal;text-transform:none;direction:ltr;block-progression:tb;writing-mode:lr-tb;baseline-shift:baseline;text-anchor:start;white-space:normal;clip-rule:nonzero;display:inline;overflow:visible;visibility:visible;opacity:1;isolation:auto;mix-blend-mode:normal;color-interpolation:sRGB;color-interpolation-filters:linearRGB;solid-color:#000000;solid-opacity:1;fill:#000000;fill-opacity:1;fill-rule:evenodd;stroke:none;stroke-width:140;stroke-linecap:butt;stroke-linejoin:miter;stroke-miterlimit:4;stroke-dasharray:none;stroke-dashoffset:0;stroke-opacity:1;color-rendering:auto;image-rendering:auto;shape-rendering:auto;text-rendering:auto;enable-background:accumulate"
       d="M 1526.5449 2192.4434 A 70.007 70.007 0 0 0 1502.0391 2196.5957 C 1399.3571 2197.7242 1297.819 2233.8886 1218.8203 2301.9512 C 1132.5535 2376.2756 1078.4746 2484.9096 1075.4629 2600.2695 C 1072.3985 2717.6457 1122.5221 2830.7751 1207.4336 2909.6426 C 1292.0403 2988.227 1405.7485 3028.6706 1519.623 3025.6289 C 1628.6624 3022.7163 1735.5958 2980.0638 1814.9785 2903.0156 C 1894.6345 2825.702 1941.8171 2717.5172 1940.0586 2605.0039 C 1938.4629 2502.907 1896.7309 2405.5442 1827.7031 2332.4434 L 2912 2332.4434 A 70.007 70.007 0 1 0 2912 2192.4434 L 1526.5449 2192.4434 z M 1507.9707 2336.582 C 1512.754 2336.582 1517.5318 2336.7059 1522.2988 2336.9414 C 1594.2406 2340.4951 1666.0329 2370.4325 1716.8008 2419.3535 C 1767.3167 2468.0316 1799.0033 2538.5483 1800.0762 2607.1914 C 1801.1851 2678.1396 1769.4806 2752.0761 1717.4727 2802.5547 C 1665.1911 2853.2987 1590.2638 2883.691 1515.8848 2885.6777 C 1438.3196 2887.7496 1358.4226 2858.8106 1302.7109 2807.0645 C 1247.304 2755.6014 1213.4824 2677.9905 1215.416 2603.9238 C 1217.3179 2531.0741 1253.832 2456.5814 1310.2012 2408.0156 C 1363.3322 2362.2397 1436.2209 2336.5144 1507.9707 2336.582 z "
       transform="translate(0,-1000)"
       id="path4159-3" />
    <path
       style="fill:none;fill-rule:evenodd;stroke:#000000;stroke-width:70;stroke-linecap:butt;stroke-linejoin:miter;stroke-miterlimit:4;stroke-dasharray:none;stroke-opacity:1"
       d="m -1854.5605,-141.90293 c 8.9239,-92.58003 54.1848,-181.17155 123.9721,-242.65679 69.7872,-61.48525 163.3749,-95.2247 256.3416,-92.41411 88.8692,2.68671 176.6328,38.83354 240.3929,100.79815 63.76,61.96461 102.5348,149.37362 103.9208,238.27265 1.4339,91.97263 -37.2981,183.532715 -103.0262,247.88203 -65.7282,64.34932 -157.306,101.01953 -249.2875,101.67457 -94.567,0.67346 -188.8746,-36.58155 -257.4504,-101.70249 -68.5757,-65.120934 -110.6517,-157.378529 -114.8633,-251.85411 l 0,1e-4 z"
       id="path4159-2"
       inkscape:path-effect="#path-effect4161-6"
       inkscape:original-d="m -1854.5605,-141.90293 c 3.1528,-168.9253 211.4241,-339.7577 380.3137,-335.0709 161.0181,4.4683 344.0122,177.9911 344.3137,339.0708 0.3097,165.433404 -186.8899,347.7445 -352.3137,349.5566 -171.1361,1.8746 -375.5074,-182.439996 -372.3137,-353.5566 z"
       inkscape:connector-curvature="0"
       sodipodi:nodetypes="caaaac" />
    <path
       style="fill:none;fill-rule:evenodd;stroke:#000000;stroke-width:70;stroke-linecap:round;stroke-linejoin:round;stroke-miterlimit:4;stroke-dasharray:none;stroke-opacity:1"
       d="m -1473.4558,-481.55633 1385.455823,0"
       id="path4160-9"
       inkscape:connector-curvature="0"
       sodipodi:nodetypes="cc" />
    <path
       style="color:#000000;font-style:normal;font-variant:normal;font-weight:normal;font-stretch:normal;font-size:medium;line-height:normal;font-family:sans-serif;text-indent:0;text-align:start;text-decoration:none;text-decoration-line:none;text-decoration-style:solid;text-decoration-color:#000000;letter-spacing:normal;word-spacing:normal;text-transform:none;direction:ltr;block-progression:tb;writing-mode:lr-tb;baseline-shift:baseline;text-anchor:start;white-space:normal;clip-rule:nonzero;display:inline;overflow:visible;visibility:visible;opacity:1;isolation:auto;mix-blend-mode:normal;color-interpolation:sRGB;color-interpolation-filters:linearRGB;solid-color:#000000;solid-opacity:1;fill:#000000;fill-opacity:1;fill-rule:evenodd;stroke:none;stroke-width:70;stroke-linecap:butt;stroke-linejoin:miter;stroke-miterlimit:4;stroke-dasharray:none;stroke-dashoffset:0;stroke-opacity:1;color-rendering:auto;image-rendering:auto;shape-rendering:auto;text-rendering:auto;enable-background:accumulate"
       d="M -1913.4551 1643.4434 A 35.0035 35.0035 0 0 0 -1931.0039 1647.9121 C -1931.4453 1647.9186 -1931.8868 1647.9197 -1932.3281 1647.9277 C -2027.9405 1649.6604 -2121.8507 1685.8542 -2193.7266 1749.1797 C -2270.3943 1816.7268 -2319.5948 1913.0312 -2322.2461 2018.2559 C -2324.8973 2123.4806 -2279.16 2223.7656 -2203.7988 2295.3301 C -2128.4376 2366.8946 -2025.9223 2407.3925 -1921.998 2406.6523 C -1820.8804 2405.9323 -1721.0657 2366.0567 -1648.4746 2294.9883 C -1575.7988 2223.8371 -1533.3448 2123.7081 -1534.9375 2021.5508 C -1536.4765 1922.8358 -1578.9896 1827.2116 -1649.4609 1758.7246 C -1666.8595 1741.816 -1685.8049 1726.6877 -1705.9414 1713.4434 L -528 1713.4434 A 35.0035 35.0035 0 1 0 -528 1643.4434 L -1913.4551 1643.4434 z M -1923.166 1717.8691 C -1920.5446 1717.8833 -1917.9235 1717.9306 -1915.3047 1718.0098 C -1835.2174 1720.431 -1755.3732 1753.4054 -1698.2461 1808.9238 C -1641.1974 1864.3661 -1606.1626 1943.5594 -1604.9297 2022.6426 C -1603.6546 2104.4305 -1638.6629 2187.4214 -1697.4434 2244.9688 C -1756.3086 2302.5992 -1839.6508 2336.0644 -1922.4961 2336.6543 C -2007.7058 2337.2612 -2093.8053 2303.2496 -2155.5957 2244.5723 C -2216.7908 2186.4602 -2250.0061 2103.2841 -2254.4238 2018.9961 C -2245.8113 1936.4175 -2209.7388 1856.5789 -2147.4512 1801.7012 C -2088.4761 1749.7418 -2009.6982 1719.4232 -1931.0312 1717.9238 C -1928.409 1717.8738 -1925.7874 1717.855 -1923.166 1717.8691 z "
       transform="translate(0,-1000)"
       id="path4159-2-9" />
    <path
       style="color:#000000;font-style:normal;font-variant:normal;font-weight:normal;font-stretch:normal;font-size:medium;line-height:normal;font-family:sans-serif;text-indent:0;text-align:start;text-decoration:none;text-decoration-line:none;text-decoration-style:solid;text-decoration-color:#000000;letter-spacing:normal;word-spacing:normal;text-transform:none;direction:ltr;block-progression:tb;writing-mode:lr-tb;baseline-shift:baseline;text-anchor:start;white-space:normal;clip-rule:nonzero;display:inline;overflow:visible;visibility:visible;opacity:1;isolation:auto;mix-blend-mode:normal;color-interpolation:sRGB;color-interpolation-filters:linearRGB;solid-color:#000000;solid-opacity:1;fill:#000000;fill-opacity:1;fill-rule:evenodd;stroke:none;stroke-width:200;stroke-linecap:butt;stroke-linejoin:miter;stroke-miterlimit:4;stroke-dasharray:none;stroke-dashoffset:0;stroke-opacity:1;color-rendering:auto;image-rendering:auto;shape-rendering:auto;text-rendering:auto;enable-background:accumulate"
       d="M 2734.5449 498.44336 A 100.01 100.01 0 0 0 2704.3945 502.67969 C 2596.6044 505.0099 2490.6423 543.36465 2407.2383 615.22266 C 2314.565 695.06683 2256.7222 811.01708 2253.4727 935.48633 C 2250.166 1062.1431 2303.7838 1182.8832 2395.0176 1267.623 C 2485.8161 1351.9586 2606.7687 1394.8667 2728.4238 1391.6172 C 2844.8904 1388.5062 2958.683 1343.2278 3043.873 1260.543 C 3129.4538 1177.479 3179.9524 1061.9552 3178.0547 940.53516 C 3176.6811 852.65296 3147.9738 768.65562 3098.7852 698.44336 L 3890 698.44336 A 100.01 100.01 0 1 0 3890 498.44336 L 2734.5449 498.44336 z M 2715.9121 702.58594 C 2720.2235 702.58694 2724.5288 702.69231 2728.8203 702.9043 C 2793.6309 706.1057 2858.8287 733.44418 2903.9844 776.95703 C 2948.7799 820.1229 2977.1414 883.60344 2978.0801 943.66016 C 2979.0497 1005.7014 2950.6616 1072.2991 2904.5781 1117.0273 C 2858.1042 1162.1347 2790.0356 1189.9011 2723.084 1191.6895 C 2653.2993 1193.5535 2580.6468 1167.0772 2531.127 1121.082 C 2482.0424 1075.4913 2451.7149 1005.4931 2453.4062 940.70703 C 2455.0703 876.96666 2487.8188 809.78823 2537.7812 766.74219 C 2585.0284 726.03581 2651.242 702.56605 2715.9121 702.58594 z "
       transform="translate(0,-1000)"
       id="path4159-6" />
  </g>
</svg>
