<?xml version="1.0" encoding="UTF-8" standalone="no"?>
<!-- Created with Inkscape (http://www.inkscape.org/) -->

<svg
   xmlns:dc="http://purl.org/dc/elements/1.1/"
   xmlns:cc="http://creativecommons.org/ns#"
   xmlns:rdf="http://www.w3.org/1999/02/22-rdf-syntax-ns#"
   xmlns:svg="http://www.w3.org/2000/svg"
   xmlns="http://www.w3.org/2000/svg"
   xmlns:sodipodi="http://sodipodi.sourceforge.net/DTD/sodipodi-0.dtd"
   xmlns:inkscape="http://www.inkscape.org/namespaces/inkscape"
   width="2000"
   height="2048"
   id="svg2992"
   version="1.1"
   inkscape:version="0.91 r13725"
   sodipodi:docname="൴.svg">
  <defs
     id="defs5498">
    <inkscape:path-effect
       effect="spiro"
       id="path-effect4141"
       is_visible="true" />
    <inkscape:path-effect
       effect="spiro"
       id="path-effect4141-7"
       is_visible="true" />
    <inkscape:path-effect
       effect="spiro"
       id="path-effect4141-7-5"
       is_visible="true" />
    <inkscape:path-effect
       effect="spiro"
       id="path-effect4141-7-5-2"
       is_visible="true" />
    <inkscape:path-effect
       effect="spiro"
       id="path-effect4141-7-5-2-1"
       is_visible="true" />
    <inkscape:path-effect
       effect="spiro"
       id="path-effect4141-7-5-2-1-3"
       is_visible="true" />
    <inkscape:path-effect
       effect="spiro"
       id="path-effect4141-7-5-2-1-4"
       is_visible="true" />
    <inkscape:path-effect
       effect="spiro"
       id="path-effect4141-7-5-2-0"
       is_visible="true" />
    <inkscape:path-effect
       effect="spiro"
       id="path-effect4141-7-5-2-5"
       is_visible="true" />
    <inkscape:path-effect
       effect="spiro"
       id="path-effect4141-7-5-2-12"
       is_visible="true" />
    <inkscape:path-effect
       effect="spiro"
       id="path-effect4141-7-5-2-3"
       is_visible="true" />
    <inkscape:path-effect
       effect="spiro"
       id="path-effect4141-7-5-2-53"
       is_visible="true" />
    <inkscape:path-effect
       effect="spiro"
       id="path-effect4141-7-5-2-53-6"
       is_visible="true" />
    <inkscape:path-effect
       effect="spiro"
       id="path-effect4141-7-5-2-9"
       is_visible="true" />
  </defs>
  <sodipodi:namedview
     inkscape:window-height="843"
     inkscape:window-width="1600"
     inkscape:pageshadow="2"
     inkscape:pageopacity="0.0"
     borderopacity="1.0"
     bordercolor="#666666"
     pagecolor="#ffffff"
     id="base"
     showgrid="true"
     showguides="true"
     inkscape:guide-bbox="true"
     inkscape:zoom="0.35355339"
     inkscape:cx="2187.8597"
     inkscape:cy="1162.5427"
     inkscape:window-x="1600"
     inkscape:window-y="0"
     inkscape:current-layer="layer1"
     inkscape:window-maximized="1">
    <sodipodi:guide
       orientation="horizontal"
       position="0,600"
       id="guide5596" />
    <inkscape:grid
       type="xygrid"
       id="grid3769"
       empspacing="3"
       visible="true"
       enabled="true"
       snapvisiblegridlinesonly="true"
       spacingx="4px"
       units="px"
       dotted="true"
       spacingy="4px" />
    <sodipodi:guide
       orientation="0,1"
       position="-1040,1600"
       id="guide2985" />
  </sodipodi:namedview>
  <metadata
     id="metadata5594">
    <rdf:RDF>
      <cc:Work
         rdf:about="">
        <dc:format>image/svg+xml</dc:format>
        <dc:type
           rdf:resource="http://purl.org/dc/dcmitype/StillImage" />
        <dc:title />
      </cc:Work>
    </rdf:RDF>
  </metadata>
  <g
     inkscape:label="Layer 1"
     inkscape:groupmode="layer"
     id="layer1"
     transform="translate(0,1048)">
    <path
       style="fill:none;fill-rule:evenodd;stroke:#000000;stroke-width:140;stroke-linecap:round;stroke-linejoin:round;stroke-miterlimit:4;stroke-dasharray:none;stroke-opacity:1"
       d="m 791.72243,-952.70384 c 55.47159,34.50129 100.51226,85.53977 127.84687,144.87152 27.33461,59.33175 36.85983,126.73248 27.03712,191.31538 -16.19064,106.45112 -81.6648,197.93458 -145.3717,284.74132 -63.70689,86.80674 -129.50828,177.93551 -146.54114,284.255126 -16.04291,100.140329 16.07239,207.346244 86.10785,280.698094 70.03547,73.35185 176.77752,110.44783 276.88927,94.22755 51.6836,-8.37387 101.0001,-30.19758 142.6119,-61.97449 41.6118,-31.77692 75.5161,-73.38456 99.2004,-120.079 47.3686,-93.388881 52.4083,-205.692976 21.265,-305.66977 -39.9104,-128.12099 -136.7703,-234.74621 -254.5573,-299.04281 -117.78699,-64.2966 -254.99976,-88.26385 -389.0399,-81.85539 -112.30659,5.36938 -224.11614,31.70247 -324.70059,81.94556 -100.58445,50.2431 -189.66111,124.78422 -252.466365,218.04246 -35.300014,52.41627 -62.3139208,110.79004 -75.910318,172.504657 -13.596398,61.7146192 -13.50676,126.83007 3.718925,187.631653 17.2256855,60.80158 51.97311,117.05146 100.923477,157.01917 48.950371,39.96771 112.228731,62.94382 175.366621,60.26732 52.76355,-2.23672 104.84174,-22.53613 144.18829,-57.76174 39.34655,-35.22561 65.41488,-85.31949 70.17171,-137.91576 5.33392,-58.977158 -16.4804,-119.458284 -56.67238,-162.948055 -40.19199,-43.48977 -97.84311,-69.820906 -156.9191,-73.917695 -47.44169,-3.289976 -95.95462,7.491547 -136.89639,31.684733 C 87.032918,-40.470821 53.970854,-2.8079859 36.465647,41.408595 22.180165,77.492439 18.316733,117.63397 25.457936,155.78003 32.59914,193.92609 50.721583,229.95171 77.092489,258.4244"
       id="path4139-1-1-8"
       inkscape:path-effect="#path-effect4141-7-5-2"
       inkscape:original-d="m 791.72243,-952.70384 c 0,0 157.49305,212.83131 154.88399,336.1869 -4.50767,213.12156 -323.26424,358.1453 -291.91284,568.996446 25.58373,172.061164 190.68102,398.731544 362.99712,374.925644 182.9792,-25.2791 312.5021,-309.741244 263.0773,-487.72326 -66.702,-240.19861 -394.4036,-374.03638 -643.5972,-380.8982 -216.74202,-5.96823 -497.57794,98.29937 -577.166955,299.98802 -74.934585,189.893724 6.079915,527.79037 204.098705,577.4228 93.84415,23.52157 209.66219,-99.04459 214.36,-195.6775 C 483.62499,34.327009 370.03749,-80.760549 264.87107,-96.34874 176.9212,-109.38502 72.842344,-39.720071 36.465647,41.408595 6.3550809,108.5623 77.092489,258.4244 77.092489,258.4244"
       inkscape:connector-curvature="0"
       sodipodi:nodetypes="caaaaaaaaaac" />
    <path
       style="color:#000000;font-style:normal;font-variant:normal;font-weight:normal;font-stretch:normal;font-size:medium;line-height:normal;font-family:sans-serif;text-indent:0;text-align:start;text-decoration:none;text-decoration-line:none;text-decoration-style:solid;text-decoration-color:#000000;letter-spacing:normal;word-spacing:normal;text-transform:none;direction:ltr;block-progression:tb;writing-mode:lr-tb;baseline-shift:baseline;text-anchor:start;white-space:normal;clip-rule:nonzero;display:inline;overflow:visible;visibility:visible;opacity:1;isolation:auto;mix-blend-mode:normal;color-interpolation:sRGB;color-interpolation-filters:linearRGB;solid-color:#000000;solid-opacity:1;fill:#000000;fill-opacity:1;fill-rule:evenodd;stroke:none;stroke-width:140;stroke-linecap:round;stroke-linejoin:round;stroke-miterlimit:4;stroke-dasharray:none;stroke-dashoffset:0;stroke-opacity:1;color-rendering:auto;image-rendering:auto;shape-rendering:auto;text-rendering:auto;enable-background:accumulate"
       d="m 950.62305,514.20898 a 70.007,70.007 0 0 0 -34.06836,129.94141 c 43.61135,27.12465 79.74999,68.07457 101.24021,114.7207 21.4903,46.64616 29.1327,100.7254 21.4102,151.5 -1.802,11.84791 -4.5376,23.66 -7.9453,35.45508 -77.58088,-17.43593 -157.36054,-23.29084 -235.62894,-19.54883 -120.99766,5.78494 -242.24942,34.10148 -352.63867,89.24216 -110.5651,55.2285 -208.96476,137.2052 -279.2461,241.5645 -39.50774,58.6643 -70.418475,124.8622 -86.210934,196.5449 -15.836174,71.881 -16.050605,148.4223 4.730469,221.7734 20.868835,73.6609 62.699115,142.1068 124.001955,192.1602 61.66239,50.347 140.5518,79.4607 222.60351,75.9824 68.72175,-2.9132 135.65512,-28.7612 187.91407,-75.5469 52.47044,-46.9751 86.73117,-112.2897 93.19531,-183.7636 7.26275,-80.3041 -21.39959,-158.7866 -74.97852,-216.7617 -53.27888,-57.6506 -126.89299,-90.9288 -203.48437,-96.2403 -61.25672,-4.248 -123.40104,9.3717 -177.35156,41.252 -7.88312,4.6582 -15.45478,9.7793 -22.84961,15.1386 12.34982,-31.9971 28.82896,-63.0513 48.55078,-92.3359 55.32918,-82.1571 135.08372,-149.2659 225.6875,-194.5234 90.77965,-45.3455 193.14622,-69.6926 296.76172,-74.6465 55.64399,-2.6604 111.49913,0.4962 165.625,9.9062 -18.67523,29.137 -39.50854,58.4554 -61.33594,88.1973 -63.92963,87.1103 -138.72756,186.6442 -159.22656,314.5996 -19.58551,122.2534 18.41836,249.8492 104.59765,340.1094 86.42747,90.52 214.21384,135.1599 338.71294,114.9883 63.6979,-10.3205 123.3725,-36.8558 173.9003,-75.4414 50.4601,-38.5339 90.8576,-88.2781 119.1446,-144.0469 56.7038,-111.7935 61.8779,-241.9188 25.6699,-358.1543 -46.1952,-148.2965 -155.6632,-267.5081 -287.8516,-339.666 -18.5956,-10.1509 -37.5931,-19.27466 -56.8593,-27.61331 5.4221,-18.57732 9.897,-37.69935 12.9199,-57.57421 11.9228,-78.3912 0.5149,-159.11352 -32.6641,-231.13086 -33.1789,-72.01737 -87.1213,-133.14551 -154.45311,-175.02344 a 70.007,70.007 0 0 0 -39.87304,-11.0586 z m 157.41215,602.84762 c 15.849,6.7998 31.3796,14.2168 46.4394,22.4375 103.3856,56.4353 187.638,150.4744 221.2637,258.42 26.0786,83.718 21.172,178.2014 -16.8613,253.1855 -19.0817,37.6202 -46.4924,71.0914 -79.2559,96.1113 -32.6958,24.9682 -71.653,42.0805 -111.3223,48.5079 -75.7238,12.2689 -161.4209,-17.2858 -215.06442,-73.4688 -53.89165,-56.4436 -80.11943,-143.2579 -67.61915,-221.2852 13.56671,-84.6837 70.3713,-167.4088 133.85547,-253.9121 29.4387,-40.113 61.0464,-82.9811 88.5645,-129.9961 z M 409.17773,1510.5 c 4.22656,-0.026 8.45097,0.105 12.6543,0.3965 41.56062,2.8821 83.24844,22.2666 110.35352,51.5957 26.80505,29.0044 41.77034,71.4825 38.36523,109.1328 -3.04954,33.7187 -20.92578,68.5921 -47.14844,92.0684 -26.43415,23.6655 -63.65558,38.4163 -100.46093,39.9765 -41.5651,1.762 -86.05084,-13.1577 -121.35157,-39.5058 a 70.007,70.007 0 0 0 -11.33789,-15.8926 c -17.2326,-18.6061 -29.51898,-43.0317 -34.18554,-67.959 -4.66655,-24.9272 -2.04799,-52.145 7.28711,-75.7246 11.40891,-28.8179 34.27694,-55.1714 62.03515,-71.5742 24.44138,-14.4429 54.20318,-22.3299 83.78906,-22.5137 z"
       id="path4139-1-1-8-67"
       inkscape:connector-curvature="0" />
    <path
       style="fill:none;fill-rule:evenodd;stroke:#000000;stroke-width:70;stroke-linecap:round;stroke-linejoin:round;stroke-miterlimit:4;stroke-dasharray:none;stroke-opacity:1"
       d="m -1516.6023,-942.28163 c 55.0157,34.98487 99.6521,86.07746 126.933,145.29255 27.2809,59.21509 37.1099,126.3437 27.951,190.89435 -15.116,106.53543 -78.9154,198.99747 -142.032,286.14445 -63.1165,87.14698 -129.1208,177.27115 -149.8808,282.851992 -20.3566,103.529317 7.9543,216.436498 77.9506,295.387358 34.9981,39.47542 79.7277,70.34985 129.2484,88.54004 49.5206,18.1902 103.7488,23.60315 155.7981,14.99821 53.5494,-8.85294 104.3939,-32.44407 146.7076,-66.43627 42.3137,-33.99221 76.1233,-78.22088 99.2312,-127.3324 46.21587,-98.223046 48.44979,-214.015765 17.1385,-317.95455 -37.6576,-125.00561 -122.4819,-234.13366 -231.0255,-306.67871 -108.5436,-72.54505 -239.7257,-109.02167 -370.2802,-109.20079 -124.1813,-0.17037 -248.3328,32.08555 -356.4653,93.1461 -108.1324,61.06056 -199.9579,150.8299 -262.9932,257.82322 -31.6326,53.69181 -56.1934,111.91823 -68.584,172.991166 -12.3907,61.072933 -12.3621,125.090487 4.008,185.219104 16.3702,60.12861 49.5062,116.17422 96.9567,156.57082 47.4504,40.39659 109.4256,64.3975 171.718,62.64171 52.9135,-1.49144 105.3044,-21.74762 144.6666,-57.14083 39.3623,-35.3932 65.1698,-85.79576 69.6934,-138.53667 5.0564,-58.95261 -16.772,-119.304203 -56.8996,-162.7870252 -40.1276,-43.4828218 -97.6698,-69.9103448 -156.6918,-74.0787228 -47.4462,-3.350846 -95.9807,7.422825 -136.9253,31.62834 -40.9447,24.205514 -73.9913,61.896551 -91.4802,106.12901 -14.2683,36.087108 -18.1223,76.223738 -10.9817,114.366578 7.1406,38.14283 25.2525,74.1673 51.6086,102.64922"
       id="path4139-1-1-8-5"
       inkscape:path-effect="#path-effect4141-7-5-2-53"
       inkscape:original-d="m -1516.6023,-942.28163 c 0,0 157.4931,212.83131 154.884,336.1869 -4.5076,213.12156 -319.997,357.68531 -291.9128,568.996442 23.6861,178.219358 184.7677,422.536298 362.9971,398.925608 190.1346,-25.18782 309.67737,-325.674774 263.0773,-511.72322 -59.2121,-236.40119 -357.8464,-404.96455 -601.3057,-415.8795 -237.0868,-10.62925 -536.3484,128.67253 -619.4585,350.96932 -71.4903,191.217045 6.0799,527.79037 204.0987,577.4228 93.8441,23.52157 209.6622,-99.04459 214.36,-195.6775 5.1624,-106.189983 -108.425,-221.277545 -213.5914,-236.865748 -87.9499,-13.036301 -192.0288,56.628659 -228.4055,137.75735 -30.1106,67.153708 40.6269,217.015798 40.6269,217.015798"
       inkscape:connector-curvature="0"
       sodipodi:nodetypes="caaaaaaaaaac" />
    <path
       style="color:#000000;font-style:normal;font-variant:normal;font-weight:normal;font-stretch:normal;font-size:medium;line-height:normal;font-family:sans-serif;text-indent:0;text-align:start;text-decoration:none;text-decoration-line:none;text-decoration-style:solid;text-decoration-color:#000000;letter-spacing:normal;word-spacing:normal;text-transform:none;direction:ltr;block-progression:tb;writing-mode:lr-tb;baseline-shift:baseline;text-anchor:start;white-space:normal;clip-rule:nonzero;display:inline;overflow:visible;visibility:visible;opacity:1;isolation:auto;mix-blend-mode:normal;color-interpolation:sRGB;color-interpolation-filters:linearRGB;solid-color:#000000;solid-opacity:1;fill:#000000;fill-opacity:1;fill-rule:evenodd;stroke:none;stroke-width:70;stroke-linecap:round;stroke-linejoin:round;stroke-miterlimit:4;stroke-dasharray:none;stroke-dashoffset:0;stroke-opacity:1;color-rendering:auto;image-rendering:auto;shape-rendering:auto;text-rendering:auto;enable-background:accumulate"
       d="m -1506.8027,348.90234 a 35.0035,35.0035 0 0 0 -17.6836,64.79688 c 49.2288,31.30497 89.5144,77.41776 113.9258,130.4043 24.4113,52.98649 33.2814,113.57115 25.0859,171.33203 -2.1598,15.22189 -5.5884,30.22924 -9.8906,45.08789 -71.8007,-23.11924 -147.2733,-34.74828 -222.5508,-34.85156 -130.2741,-0.17873 -260.1996,33.56237 -373.7246,97.66796 -113.5344,64.11098 -209.7044,158.11072 -275.9395,270.53516 -33.2281,56.4 -59.4078,118.1395 -72.7285,183.7969 -13.3404,65.754 -13.4824,135.1788 4.5391,201.373 18.0668,66.3605 54.5459,128.4863 108.039,174.0274 53.6942,45.7121 123.4672,73.0038 195.3926,70.9765 61.1849,-1.7245 121.1751,-24.8215 167.082,-66.0996 45.9913,-41.3537 75.8322,-99.4302 81.1621,-161.5722 5.9632,-69.5242 -19.2651,-138.8182 -66.0488,-189.5137 -46.6436,-50.5438 -112.1498,-80.4677 -179.9472,-85.2559 -54.3783,-3.8403 -109.7447,8.3557 -157.2032,36.4121 -38.217,22.593 -70.1727,55.1498 -91.9765,93.9805 1.0053,-20.2142 3.5133,-40.45 7.5625,-60.4082 11.4605,-56.4886 34.4024,-111.2019 64.4394,-162.1856 59.8356,-101.5621 147.3165,-187.10113 250.0469,-245.11128 102.74,-58.01551 221.1185,-88.78506 339.207,-88.62304 66.8478,0.0917 133.8175,10.33375 197.3887,30.36132 -26.0867,54.7344 -62.6653,107.59164 -100.5742,159.9336 -63.0412,87.0429 -133.1349,180.9677 -155.877,296.6289 -22.4712,114.2838 8.2264,237.5195 86.1035,325.3594 38.8089,43.7738 88.2195,77.9159 143.3692,98.1738 55.1739,20.2668 115.3368,26.304 173.5762,16.6758 59.9039,-9.9035 116.0961,-36.0679 162.9179,-73.6817 46.7733,-37.5747 83.7198,-86.0297 108.9805,-139.7168 50.54236,-107.4181 52.49713,-231.698 18.98242,-342.9511 -40.22192,-133.5178 -130.06832,-248.80709 -245.08982,-325.68166 -32.1405,-21.48108 -66.1214,-39.82633 -101.3301,-55.27344 5.8426,-19.49134 10.4608,-39.52627 13.3984,-60.23047 10.1223,-71.34042 -0.664,-145.01334 -30.8144,-210.45703 -30.1505,-65.44367 -79.1389,-121.51687 -139.9414,-160.18164 a 35.0035,35.0035 0 0 0 -19.8789,-5.72852 z m 152.2461,502.10547 c 30.4615,13.55168 59.7818,29.48841 87.4238,47.96289 102.0657,68.21553 181.8676,171.1824 216.9609,287.6758 29.1079,96.6245 26.5945,203.9292 -15.2949,292.957 -20.9551,44.5362 -51.6283,84.5396 -89.4824,114.9492 -37.8055,30.3707 -83.3013,51.3871 -130.4961,59.1895 -45.8592,7.5815 -94.1542,2.7933 -138.0215,-13.3203 -43.8917,-16.1226 -83.9396,-43.7271 -115.127,-78.9043 -62.1154,-70.0618 -88.0388,-172.6413 -69.7968,-265.416 18.7779,-95.5004 80.6929,-181.8232 143.8847,-269.0743 39.2793,-54.23395 80.3724,-112.03215 109.9493,-176.01949 z m -695.6973,439.92189 c 5.0849,-0.022 10.1681,0.1462 15.2324,0.5039 50.2468,3.5486 99.8242,26.4805 133.4356,62.9023 33.4715,36.2703 51.8996,87.6776 47.75,136.0586 -3.7173,43.3398 -25.4913,86.0693 -58.2246,115.502 -32.8175,29.5083 -77.6079,46.9234 -122.25,48.1816 -52.6594,1.4843 -106.8362,-19.2255 -148.043,-54.3066 -3.2487,-2.7658 -6.2964,-5.7751 -9.4004,-8.7168 a 35.0035,35.0035 0 0 0 -2.8926,-3.5332 c -21.7928,-23.5506 -36.9902,-53.7795 -42.8945,-85.3184 -5.9043,-31.539 -2.671,-65.2175 9.1269,-95.0566 14.4455,-36.535 42.399,-68.5651 76.7442,-88.8692 30.1269,-17.8104 65.8217,-27.1963 101.416,-27.3476 z"
       id="path4139-1-1-8-5-2"
       inkscape:connector-curvature="0" />
    <path
       style="color:#000000;font-style:normal;font-variant:normal;font-weight:normal;font-stretch:normal;font-size:medium;line-height:normal;font-family:sans-serif;text-indent:0;text-align:start;text-decoration:none;text-decoration-line:none;text-decoration-style:solid;text-decoration-color:#000000;letter-spacing:normal;word-spacing:normal;text-transform:none;direction:ltr;block-progression:tb;writing-mode:lr-tb;baseline-shift:baseline;text-anchor:start;white-space:normal;clip-rule:nonzero;display:inline;overflow:visible;visibility:visible;opacity:1;isolation:auto;mix-blend-mode:normal;color-interpolation:sRGB;color-interpolation-filters:linearRGB;solid-color:#000000;solid-opacity:1;fill:#000000;fill-opacity:1;fill-rule:evenodd;stroke:none;stroke-width:200;stroke-linecap:round;stroke-linejoin:round;stroke-miterlimit:4;stroke-dasharray:none;stroke-dashoffset:0;stroke-opacity:1;color-rendering:auto;image-rendering:auto;shape-rendering:auto;text-rendering:auto;enable-background:accumulate"
       d="m 2659.5312,-1053.416 a 100.01,100.01 0 0 0 -48.5839,185.65233 c 38.5303,23.94027 70.8586,60.55583 89.8398,101.75586 18.9812,41.20001 25.8041,89.56686 18.9629,134.41015 -0.5611,3.67775 -1.299,7.37326 -2.0527,11.07032 -69.1735,-14.07651 -139.2462,-20.32226 -207.9961,-20.6875 -136.7655,-0.72659 -276.8501,21.19941 -407.543,76.65234 -131.1503,55.64696 -250.8626,145.09642 -334.5254,266.63281 -42.1922,61.29233 -75.3609,131.05407 -92.3887,207.312502 -17.0908,76.541546 -17.4168,158.319162 5.0957,237.267578 22.6371,79.38523 67.8737,153.10296 134.7911,207.35742 67.4206,54.66237 153.2257,86.12555 243.4453,82.08594 75.3946,-3.37581 148.5605,-31.5743 206.3086,-83.23633 58.0603,-51.9415 95.9063,-123.69771 103.164,-203.25586 8.164,-89.492211 -23.444,-175.740664 -82.789,-239.939451 -58.9115,-63.729679 -139.3936,-99.959359 -223.4922,-105.773439 -44.98,-3.10965 -90.2637,2.73389 -133.1875,17.35352 1.2781,-1.91724 2.4855,-3.86744 3.7949,-5.76953 58.814,-85.43869 147.7396,-153.42485 247.9023,-195.92383 100.6201,-42.69303 213.857,-61.37394 328.3614,-60.76563 38.5406,0.20475 76.8449,2.67513 114.3593,7.61914 -9.8344,14.02732 -19.9416,28.16818 -30.5175,42.57032 -64.077,87.25873 -142.7742,190.49337 -164.5528,327.847652 -20.8799,131.686885 19.9315,267.751918 112.9453,365.033208 93.3303,97.61169 229.6589,145.45586 364.3086,124.34375 68.9889,-10.81696 133.418,-39.01922 188.1543,-80.34766 54.6468,-41.26096 98.2674,-94.50299 128.8086,-154.38672 61.3067,-120.207316 66.2428,-259.205575 25.6387,-382.95703 -51.143,-155.87147 -168.4564,-276.45096 -305.6836,-349.74805 -11.0625,-5.90878 -22.2576,-11.40489 -33.5098,-16.71484 3.5334,-14.13418 6.5986,-28.56974 8.8731,-43.47852 12.8645,-84.32524 0.6657,-170.78557 -35.0274,-248.25976 -35.693,-77.47416 -93.4834,-142.92902 -165.9375,-187.94729 a 100.01,100.01 0 0 0 -56.9668,-15.7734 z m 166.6192,677.66795 c 7.3304,3.49998 14.592,7.10928 21.7226,10.91797 97.8102,52.24329 177.9498,138.37527 209.879,235.6875 24.8835,75.839018 20.3565,162.819737 -13.7735,229.74024 -17.1772,33.68018 -41.9848,63.61135 -71.1582,85.63867 -29.0841,21.95981 -63.846,36.92282 -98.6191,42.375 -65.5104,10.27155 -142.0878,-16.14499 -188.7735,-64.97266 -47.0023,-49.15874 -70.8171,-127.080643 -59.9687,-195.499998 11.9468,-75.346912 64.8356,-154.464562 128.2265,-240.789062 23.4186,-31.8909 48.7148,-66.02247 72.4649,-103.09766 z M 2037.5332,3.0957031 c 3.4905,-0.026431 6.9768,0.078835 10.4414,0.3183594 34.0714,2.3554954 68.9276,18.7555855 90.4219,42.0078125 21.0606,22.783119 33.0777,57.539655 30.4805,86.009765 -2.3341,25.58609 -16.7122,53.91539 -37.3399,72.36914 -20.9401,18.73323 -51.8276,31.14728 -81.9082,32.49414 -31.6759,1.4183 -67.023,-9.15165 -96.1016,-28.51758 a 100.01,100.01 0 0 0 -13.0722,-17.30859 c -13.3158,-14.37491 -23.1034,-33.82978 -26.709,-53.08984 -3.6056,-19.25992 -1.5188,-40.936075 5.6953,-59.154301 8.7967,-22.214853 27.2969,-43.720161 49.4082,-56.785156 19.5665,-11.5613408 44.2502,-18.1587303 68.6836,-18.3437499 z"
       id="path4139-1-1-8-1"
       inkscape:connector-curvature="0" />
  </g>
</svg>
